<svg width="16" height="18" viewBox="0 0 16 18" fill="none" xmlns="http://www.w3.org/2000/svg">
<path fill-rule="evenodd" clip-rule="evenodd" d="M16 12.6562C16 12.9199 15.875 13.159 15.6821 13.3102C15.5321 13.8516 15.5321 15.3949 15.6821 15.9363C15.875 16.091 16 16.3301 16 16.5938V17.1562C16 17.6238 15.6179 18 15.1429 18H3.42857C1.53571 18 0 16.4883 0 14.625V3.375C0 1.51172 1.53571 0 3.42857 0H15.1429C15.6179 0 16 0.376172 16 0.84375V12.6562ZM4.78571 4.5C4.66786 4.5 4.57143 4.59492 4.57143 4.71094V5.41406C4.57143 5.53008 4.66786 5.625 4.78571 5.625H12.3571C12.475 5.625 12.5714 5.53008 12.5714 5.41406V4.71094C12.5714 4.59492 12.475 4.5 12.3571 4.5H4.78571ZM4.57143 6.96094C4.57143 6.84492 4.66786 6.75 4.78571 6.75H12.3571C12.475 6.75 12.5714 6.84492 12.5714 6.96094V7.66406C12.5714 7.78008 12.475 7.875 12.3571 7.875H4.78571C4.66786 7.875 4.57143 7.78008 4.57143 7.66406V6.96094ZM3.42899 15.75H13.6218C13.554 15.1488 13.554 14.1012 13.6218 13.5H3.42899C2.80042 13.5 2.28613 14.0063 2.28613 14.625C2.28613 15.2473 2.79685 15.75 3.42899 15.75Z" fill="#737373"/>
</svg>
