<svg width="16" height="18" viewBox="0 0 16 18" fill="none" xmlns="http://www.w3.org/2000/svg">
<path fill-rule="evenodd" clip-rule="evenodd" d="M16 3.9375V5.20312C16 5.43516 15.8071 5.625 15.5714 5.625H0.428571C0.192857 5.625 0 5.43516 0 5.20312V3.9375C0 3.00586 0.767857 2.25 1.71429 2.25H3.42857V0.421875C3.42857 0.189844 3.62143 0 3.85714 0H5.28571C5.52143 0 5.71429 0.189844 5.71429 0.421875V2.25H10.2857V0.421875C10.2857 0.189844 10.4786 0 10.7143 0H12.1429C12.3786 0 12.5714 0.189844 12.5714 0.421875V2.25H14.2857C15.2321 2.25 16 3.00586 16 3.9375ZM15.5714 6.75H0.428571C0.192857 6.75 0 6.93984 0 7.17188V16.3125C0 17.2441 0.767857 18 1.71429 18H14.2857C15.2321 18 16 17.2441 16 16.3125V7.17188C16 6.93984 15.8071 6.75 15.5714 6.75Z" fill="#737373"/>
</svg>
