<svg width="42" height="42" viewBox="0 0 42 42" fill="none" xmlns="http://www.w3.org/2000/svg">
<path d="M6.4 2.5H33.6C34.7284 2.5 35.5446 2.50039 36.1865 2.55284C36.8226 2.60481 37.2434 2.70539 37.589 2.88148C38.2475 3.21703 38.783 3.75247 39.1185 4.41103C39.2946 4.75662 39.3952 5.17744 39.4472 5.81352C39.4996 6.45545 39.5 7.27164 39.5 8.4V35.6C39.5 36.7284 39.4996 37.5446 39.4472 38.1865C39.3952 38.8226 39.2946 39.2434 39.1185 39.589C38.783 40.2475 38.2475 40.783 37.589 41.1185C37.2434 41.2946 36.8226 41.3952 36.1865 41.4472C35.5446 41.4996 34.7284 41.5 33.6 41.5H6.4C5.27165 41.5 4.45545 41.4996 3.81352 41.4472C3.17744 41.3952 2.75662 41.2946 2.41103 41.1185C1.75247 40.783 1.21703 40.2475 0.881477 39.589C0.705391 39.2434 0.604807 38.8226 0.552836 38.1865C0.500389 37.5446 0.5 36.7284 0.5 35.6V8.4C0.5 7.27165 0.500389 6.45545 0.552836 5.81352C0.604807 5.17744 0.705391 4.75662 0.881477 4.41103C1.21703 3.75247 1.75247 3.21703 2.41103 2.88148C2.75662 2.70539 3.17744 2.60481 3.81352 2.55284C4.45545 2.50039 5.27164 2.5 6.4 2.5Z" fill="#F8F8F8"/>
<path d="M27.1464 21.5414C26.8598 21.5414 26.5733 21.4459 26.1913 21.3504L25.0452 20.9684L24.0901 21.9234C24.1856 22.4009 24.2811 22.8785 24.2811 23.356C24.2811 26.5076 21.7025 29.0862 18.5507 29.0862C15.399 29.0862 12.8203 26.5076 12.8203 23.356C12.8203 20.2044 15.399 17.6258 18.5507 17.6258C19.0283 17.6258 19.6013 17.7213 19.9833 17.8168L20.9384 16.8617L20.5564 15.7157C20.4609 15.2382 20.4609 14.6652 20.5564 14.0921C19.8878 13.9966 19.2193 13.9011 18.5507 13.9011C13.2978 13.9011 9 18.1988 9 23.4515C9 28.7042 13.2978 33.0018 18.5507 33.0018C23.8036 33.0018 28.1014 28.7042 28.1014 23.4515C28.1014 22.783 28.0059 22.1144 27.9104 21.4459C27.6239 21.5414 27.4329 21.5414 27.1464 21.5414Z" fill="#989898"/>
<path d="M30.9657 15.62C30.8702 15.3335 30.6792 15.047 30.2972 14.9515L28.8646 14.474L29.7241 13.6145C30.1061 13.2325 30.1061 12.6594 29.7241 12.2774C29.3421 11.8954 28.769 11.8954 28.387 12.2774L27.5275 13.137L27.0499 11.7044C26.9544 11.4179 26.6679 11.1314 26.3814 11.0359C26.0948 10.9404 25.7128 11.0359 25.5218 11.3224L22.6566 14.1875C22.3701 14.474 22.2746 14.856 22.4656 15.1425L23.2296 17.4346L20.4599 20.2042C19.8869 19.8222 19.2183 19.6312 18.5498 19.6312C16.4486 19.6312 14.7295 21.3503 14.7295 23.4513C14.7295 25.5524 16.4486 27.2715 18.5498 27.2715C20.6509 27.2715 22.3701 25.5524 22.3701 23.4513C22.3701 22.7828 22.1791 22.1143 21.797 21.5413L24.4712 18.8672L26.7634 19.6312C26.8589 19.6312 26.9544 19.7267 27.0499 19.7267C27.3364 19.7267 27.5275 19.6312 27.7185 19.4402L30.5837 16.5751C30.9657 16.2886 31.0612 15.9066 30.9657 15.62Z" fill="#989898"/>
<path d="M34.4969 12C34.0041 12 33.6304 11.8749 33.3758 11.6246C33.1253 11.3744 33 10.9951 33 10.4868V6.12903C33 5.62463 33.1253 5.24927 33.3758 5.00293C33.6304 4.75269 34.0041 4.62757 34.4969 4.62757H40.5031C40.9959 4.62757 41.3676 4.75269 41.6181 5.00293C41.8727 5.24927 42 5.62463 42 6.12903V10.4868C42 10.9951 41.8727 11.3744 41.6181 11.6246C41.3676 11.8749 40.9959 12 40.5031 12H34.4969ZM34.2136 5.19062V3.29619C34.2136 2.59629 34.3614 2.00196 34.6571 1.5132C34.9569 1.02053 35.3552 0.645161 35.8522 0.387097C36.3491 0.129032 36.8973 0 37.4969 0C38.1006 0 38.6509 0.129032 39.1478 0.387097C39.6448 0.645161 40.0411 1.02053 40.3368 1.5132C40.6366 2.00196 40.7864 2.59629 40.7864 3.29619V5.19062H39.3265V3.21994C39.3265 2.82502 39.2444 2.48876 39.0801 2.21114C38.9158 1.92962 38.694 1.71457 38.4148 1.56598C38.1396 1.4174 37.8337 1.34311 37.4969 1.34311C37.1602 1.34311 36.8542 1.4174 36.5791 1.56598C36.3039 1.71457 36.0842 1.92962 35.9199 2.21114C35.7598 2.48876 35.6797 2.82502 35.6797 3.21994V5.19062H34.2136Z" fill="#373737"/>
<path d="M6.4 2.5H33.6C34.7284 2.5 35.5446 2.50039 36.1865 2.55284C36.8226 2.60481 37.2434 2.70539 37.589 2.88148C38.2475 3.21703 38.783 3.75247 39.1185 4.41103C39.2946 4.75662 39.3952 5.17744 39.4472 5.81352C39.4996 6.45545 39.5 7.27164 39.5 8.4V35.6C39.5 36.7284 39.4996 37.5446 39.4472 38.1865C39.3952 38.8226 39.2946 39.2434 39.1185 39.589C38.783 40.2475 38.2475 40.783 37.589 41.1185C37.2434 41.2946 36.8226 41.3952 36.1865 41.4472C35.5446 41.4996 34.7284 41.5 33.6 41.5H6.4C5.27165 41.5 4.45545 41.4996 3.81352 41.4472C3.17744 41.3952 2.75662 41.2946 2.41103 41.1185C1.75247 40.783 1.21703 40.2475 0.881477 39.589C0.705391 39.2434 0.604807 38.8226 0.552836 38.1865C0.500389 37.5446 0.5 36.7284 0.5 35.6V8.4C0.5 7.27165 0.500389 6.45545 0.552836 5.81352C0.604807 5.17744 0.705391 4.75662 0.881477 4.41103C1.21703 3.75247 1.75247 3.21703 2.41103 2.88148C2.75662 2.70539 3.17744 2.60481 3.81352 2.55284C4.45545 2.50039 5.27164 2.5 6.4 2.5Z" stroke="#CFCFCF"/>
</svg>
