<svg width="40" height="40" viewBox="0 0 40 40" fill="none" xmlns="http://www.w3.org/2000/svg">
<path d="M0 6.4C0 4.15979 0 3.03968 0.435974 2.18404C0.819467 1.43139 1.43139 0.819467 2.18404 0.435974C3.03968 0 4.15979 0 6.4 0H33.6C35.8402 0 36.9603 0 37.816 0.435974C38.5686 0.819467 39.1805 1.43139 39.564 2.18404C40 3.03968 40 4.15979 40 6.4V33.6C40 35.8402 40 36.9603 39.564 37.816C39.1805 38.5686 38.5686 39.1805 37.816 39.564C36.9603 40 35.8402 40 33.6 40H6.4C4.15979 40 3.03968 40 2.18404 39.564C1.43139 39.1805 0.819467 38.5686 0.435974 37.816C0 36.9603 0 35.8402 0 33.6V6.4Z" fill="#4D8DD9"/>
<path d="M27.1464 19.5413C26.8598 19.5413 26.5733 19.4458 26.1913 19.3503L25.0452 18.9683L24.0901 19.9233C24.1856 20.4008 24.2811 20.8783 24.2811 21.3559C24.2811 24.5075 21.7025 27.0861 18.5507 27.0861C15.399 27.0861 12.8203 24.5075 12.8203 21.3559C12.8203 18.2042 15.399 15.6256 18.5507 15.6256C19.0283 15.6256 19.6013 15.7211 19.9833 15.8166L20.9384 14.8616L20.5564 13.7156C20.4609 13.2381 20.4609 12.665 20.5564 12.092C19.8878 11.9965 19.2193 11.901 18.5507 11.901C13.2978 11.901 9 16.1987 9 21.4514C9 26.7041 13.2978 31.0017 18.5507 31.0017C23.8036 31.0017 28.1014 26.7041 28.1014 21.4514C28.1014 20.7828 28.0059 20.1143 27.9104 19.4458C27.6239 19.5413 27.4329 19.5413 27.1464 19.5413Z" fill="white" fill-opacity="0.8"/>
<path d="M30.9657 13.62C30.8702 13.3335 30.6792 13.047 30.2972 12.9515L28.8646 12.4739L29.7241 11.6144C30.1061 11.2324 30.1061 10.6594 29.7241 10.2774C29.3421 9.89535 28.769 9.89535 28.387 10.2774L27.5275 11.1369L27.0499 9.70434C26.9544 9.41783 26.6679 9.13132 26.3814 9.03581C26.0948 8.94031 25.7128 9.03581 25.5218 9.32232L22.6566 12.1874C22.3701 12.4739 22.2746 12.856 22.4656 13.1425L23.2296 15.4346L20.4599 18.2042C19.8869 17.8221 19.2183 17.6311 18.5498 17.6311C16.4486 17.6311 14.7295 19.3502 14.7295 21.4513C14.7295 23.5524 16.4486 25.2714 18.5498 25.2714C20.6509 25.2714 22.3701 23.5524 22.3701 21.4513C22.3701 20.7828 22.1791 20.1142 21.797 19.5412L24.4712 16.8671L26.7634 17.6311C26.8589 17.6311 26.9544 17.7266 27.0499 17.7266C27.3364 17.7266 27.5275 17.6311 27.7185 17.4401L30.5837 14.575C30.9657 14.2885 31.0612 13.9065 30.9657 13.62Z" fill="white" fill-opacity="0.8"/>
</svg>
