<svg width="40" height="40" viewBox="0 0 40 40" fill="none" xmlns="http://www.w3.org/2000/svg">
<path d="M6.4 0.5H33.6C34.7284 0.5 35.5446 0.500389 36.1865 0.552836C36.8226 0.604807 37.2434 0.705391 37.589 0.881477C38.2475 1.21703 38.783 1.75247 39.1185 2.41103C39.2946 2.75662 39.3952 3.17744 39.4472 3.81352C39.4996 4.45545 39.5 5.27164 39.5 6.4V33.6C39.5 34.7284 39.4996 35.5446 39.4472 36.1865C39.3952 36.8226 39.2946 37.2434 39.1185 37.589C38.783 38.2475 38.2475 38.783 37.589 39.1185C37.2434 39.2946 36.8226 39.3952 36.1865 39.4472C35.5446 39.4996 34.7284 39.5 33.6 39.5H6.4C5.27165 39.5 4.45545 39.4996 3.81352 39.4472C3.17744 39.3952 2.75662 39.2946 2.41103 39.1185C1.75247 38.783 1.21703 38.2475 0.881477 37.589C0.705391 37.2434 0.604807 36.8226 0.552836 36.1865C0.500389 35.5446 0.5 34.7284 0.5 33.6V6.4C0.5 5.27165 0.500389 4.45545 0.552836 3.81352C0.604807 3.17744 0.705391 2.75662 0.881477 2.41103C1.21703 1.75247 1.75247 1.21703 2.41103 0.881477C2.75662 0.705391 3.17744 0.604807 3.81352 0.552836C4.45545 0.500389 5.27164 0.5 6.4 0.5Z" fill="#F1F1F1"/>
<path d="M27.1464 19.5414C26.8598 19.5414 26.5733 19.4459 26.1913 19.3504L25.0452 18.9684L24.0901 19.9234C24.1856 20.4009 24.2811 20.8785 24.2811 21.356C24.2811 24.5076 21.7025 27.0862 18.5507 27.0862C15.399 27.0862 12.8203 24.5076 12.8203 21.356C12.8203 18.2044 15.399 15.6258 18.5507 15.6258C19.0283 15.6258 19.6013 15.7213 19.9833 15.8168L20.9384 14.8617L20.5564 13.7157C20.4609 13.2382 20.4609 12.6652 20.5564 12.0921C19.8878 11.9966 19.2193 11.9011 18.5507 11.9011C13.2978 11.9011 9 16.1988 9 21.4515C9 26.7042 13.2978 31.0018 18.5507 31.0018C23.8036 31.0018 28.1014 26.7042 28.1014 21.4515C28.1014 20.783 28.0059 20.1144 27.9104 19.4459C27.6239 19.5414 27.4329 19.5414 27.1464 19.5414Z" fill="#666666"/>
<path d="M30.9657 13.62C30.8702 13.3335 30.6792 13.047 30.2972 12.9515L28.8646 12.474L29.7241 11.6145C30.1061 11.2325 30.1061 10.6594 29.7241 10.2774C29.3421 9.89541 28.769 9.89541 28.387 10.2774L27.5275 11.137L27.0499 9.7044C26.9544 9.41789 26.6679 9.13138 26.3814 9.03587C26.0948 8.94037 25.7128 9.03587 25.5218 9.32239L22.6566 12.1875C22.3701 12.474 22.2746 12.856 22.4656 13.1425L23.2296 15.4346L20.4599 18.2042C19.8869 17.8222 19.2183 17.6312 18.5498 17.6312C16.4486 17.6312 14.7295 19.3503 14.7295 21.4513C14.7295 23.5524 16.4486 25.2715 18.5498 25.2715C20.6509 25.2715 22.3701 23.5524 22.3701 21.4513C22.3701 20.7828 22.1791 20.1143 21.797 19.5413L24.4712 16.8672L26.7634 17.6312C26.8589 17.6312 26.9544 17.7267 27.0499 17.7267C27.3364 17.7267 27.5275 17.6312 27.7185 17.4402L30.5837 14.5751C30.9657 14.2886 31.0612 13.9066 30.9657 13.62Z" fill="#666666"/>
<path d="M6.4 0.5H33.6C34.7284 0.5 35.5446 0.500389 36.1865 0.552836C36.8226 0.604807 37.2434 0.705391 37.589 0.881477C38.2475 1.21703 38.783 1.75247 39.1185 2.41103C39.2946 2.75662 39.3952 3.17744 39.4472 3.81352C39.4996 4.45545 39.5 5.27164 39.5 6.4V33.6C39.5 34.7284 39.4996 35.5446 39.4472 36.1865C39.3952 36.8226 39.2946 37.2434 39.1185 37.589C38.783 38.2475 38.2475 38.783 37.589 39.1185C37.2434 39.2946 36.8226 39.3952 36.1865 39.4472C35.5446 39.4996 34.7284 39.5 33.6 39.5H6.4C5.27165 39.5 4.45545 39.4996 3.81352 39.4472C3.17744 39.3952 2.75662 39.2946 2.41103 39.1185C1.75247 38.783 1.21703 38.2475 0.881477 37.589C0.705391 37.2434 0.604807 36.8226 0.552836 36.1865C0.500389 35.5446 0.5 34.7284 0.5 33.6V6.4C0.5 5.27165 0.500389 4.45545 0.552836 3.81352C0.604807 3.17744 0.705391 2.75662 0.881477 2.41103C1.21703 1.75247 1.75247 1.21703 2.41103 0.881477C2.75662 0.705391 3.17744 0.604807 3.81352 0.552836C4.45545 0.500389 5.27164 0.5 6.4 0.5Z" stroke="#CFCFCF"/>
</svg>
