<svg width="40" height="40" viewBox="0 0 40 40" fill="none" xmlns="http://www.w3.org/2000/svg">
<path d="M0.499878 6.4C0.499878 5.27165 0.500267 4.45545 0.552714 3.81352C0.604685 3.17744 0.705268 2.75662 0.881355 2.41103C1.21691 1.75247 1.75234 1.21703 2.41091 0.881477C2.7565 0.705391 3.17731 0.604807 3.8134 0.552836C4.45533 0.500389 5.27152 0.5 6.39988 0.5H33.5999C34.7282 0.5 35.5444 0.500389 36.1864 0.552836C36.8224 0.604807 37.2433 0.705391 37.5888 0.881477C38.2474 1.21703 38.7828 1.75247 39.1184 2.41103C39.2945 2.75662 39.3951 3.17744 39.447 3.81352C39.4995 4.45545 39.4999 5.27164 39.4999 6.4V33.6C39.4999 34.7284 39.4995 35.5446 39.447 36.1865C39.3951 36.8226 39.2945 37.2434 39.1184 37.589C38.7828 38.2475 38.2474 38.783 37.5888 39.1185C37.2433 39.2946 36.8224 39.3952 36.1864 39.4472C35.5444 39.4996 34.7282 39.5 33.5999 39.5H6.39988C5.27152 39.5 4.45533 39.4996 3.8134 39.4472C3.17731 39.3952 2.7565 39.2946 2.41091 39.1185C1.75234 38.783 1.21691 38.2475 0.881355 37.589C0.705268 37.2434 0.604685 36.8226 0.552714 36.1865C0.500267 35.5446 0.499878 34.7284 0.499878 33.6V6.4Z" fill="#F8F8F8"/>
<path fill-rule="evenodd" clip-rule="evenodd" d="M25.4373 17.6759C25.4373 21.9616 21.9627 25.4359 17.6766 25.4359C13.3905 25.4359 9.91589 21.9616 9.91589 17.6759C9.91589 13.3903 13.3905 9.91602 17.6766 9.91602C21.9627 9.91602 25.4373 13.3903 25.4373 17.6759ZM13.1413 17.6759C13.1413 20.1793 15.171 22.2087 17.6747 22.2087C20.1785 22.2087 22.2081 20.1793 22.2081 17.6759C22.2081 15.1725 20.1785 13.1431 17.6747 13.1431C15.171 13.1431 13.1413 15.1725 13.1413 17.6759Z" fill="#989898"/>
<path d="M21.6832 23.9655C21.053 23.3353 21.053 22.3137 21.6832 21.6836C22.3133 21.0534 23.3351 21.0534 23.9652 21.6835L29.4434 27.1611C30.0736 27.7912 30.0736 28.8129 29.4434 29.443C28.8133 30.0732 27.7915 30.0732 27.1614 29.4431L21.6832 23.9655Z" fill="#989898"/>
<path d="M0.499878 6.4C0.499878 5.27165 0.500267 4.45545 0.552714 3.81352C0.604685 3.17744 0.705268 2.75662 0.881355 2.41103C1.21691 1.75247 1.75234 1.21703 2.41091 0.881477C2.7565 0.705391 3.17731 0.604807 3.8134 0.552836C4.45533 0.500389 5.27152 0.5 6.39988 0.5H33.5999C34.7282 0.5 35.5444 0.500389 36.1864 0.552836C36.8224 0.604807 37.2433 0.705391 37.5888 0.881477C38.2474 1.21703 38.7828 1.75247 39.1184 2.41103C39.2945 2.75662 39.3951 3.17744 39.447 3.81352C39.4995 4.45545 39.4999 5.27164 39.4999 6.4V33.6C39.4999 34.7284 39.4995 35.5446 39.447 36.1865C39.3951 36.8226 39.2945 37.2434 39.1184 37.589C38.7828 38.2475 38.2474 38.783 37.5888 39.1185C37.2433 39.2946 36.8224 39.3952 36.1864 39.4472C35.5444 39.4996 34.7282 39.5 33.5999 39.5H6.39988C5.27152 39.5 4.45533 39.4996 3.8134 39.4472C3.17731 39.3952 2.7565 39.2946 2.41091 39.1185C1.75234 38.783 1.21691 38.2475 0.881355 37.589C0.705268 37.2434 0.604685 36.8226 0.552714 36.1865C0.500267 35.5446 0.499878 34.7284 0.499878 33.6V6.4Z" stroke="#CFCFCF"/>
</svg>
