<svg width="40" height="40" viewBox="0 0 40 40" fill="none" xmlns="http://www.w3.org/2000/svg">
<path d="M0 6.4C0 4.15979 0 3.03968 0.435974 2.18404C0.819467 1.43139 1.43139 0.819467 2.18404 0.435974C3.03968 0 4.15979 0 6.4 0H33.6C35.8402 0 36.9603 0 37.816 0.435974C38.5686 0.819467 39.1805 1.43139 39.564 2.18404C40 3.03968 40 4.15979 40 6.4V33.6C40 35.8402 40 36.9603 39.564 37.816C39.1805 38.5686 38.5686 39.1805 37.816 39.564C36.9603 40 35.8402 40 33.6 40H6.4C4.15979 40 3.03968 40 2.18404 39.564C1.43139 39.1805 0.819467 38.5686 0.435974 37.816C0 36.9603 0 35.8402 0 33.6V6.4Z" fill="#79C933"/>
<path fill-rule="evenodd" clip-rule="evenodd" d="M25.4374 17.6759C25.4374 21.9616 21.9628 25.4359 17.6767 25.4359C13.3906 25.4359 9.91602 21.9616 9.91602 17.6759C9.91602 13.3903 13.3906 9.91602 17.6767 9.91602C21.9628 9.91602 25.4374 13.3903 25.4374 17.6759ZM13.1415 17.6759C13.1415 20.1793 15.1711 22.2087 17.6748 22.2087C20.1786 22.2087 22.2082 20.1793 22.2082 17.6759C22.2082 15.1725 20.1786 13.1431 17.6748 13.1431C15.1711 13.1431 13.1415 15.1725 13.1415 17.6759Z" fill="white" fill-opacity="0.8"/>
<path d="M21.6836 23.9655C21.0534 23.3353 21.0534 22.3137 21.6835 21.6836C22.3137 21.0534 23.3354 21.0534 23.9656 21.6835L29.4437 27.1611C30.0739 27.7912 30.0739 28.8129 29.4438 29.443C28.8136 30.0732 27.7919 30.0732 27.1617 29.4431L21.6836 23.9655Z" fill="white" fill-opacity="0.8"/>
</svg>
