<svg width="40" height="40" viewBox="0 0 40 40" fill="none" xmlns="http://www.w3.org/2000/svg">
<path d="M6.4 0.5H33.6C34.7284 0.5 35.5446 0.500389 36.1865 0.552836C36.8226 0.604807 37.2434 0.705391 37.589 0.881477C38.2475 1.21703 38.783 1.75247 39.1185 2.41103C39.2946 2.75662 39.3952 3.17744 39.4472 3.81352C39.4996 4.45545 39.5 5.27164 39.5 6.4V33.6C39.5 34.7284 39.4996 35.5446 39.4472 36.1865C39.3952 36.8226 39.2946 37.2434 39.1185 37.589C38.783 38.2475 38.2475 38.783 37.589 39.1185C37.2434 39.2946 36.8226 39.3952 36.1865 39.4472C35.5446 39.4996 34.7284 39.5 33.6 39.5H6.4C5.27165 39.5 4.45545 39.4996 3.81352 39.4472C3.17744 39.3952 2.75662 39.2946 2.41103 39.1185C1.75247 38.783 1.21703 38.2475 0.881477 37.589C0.705391 37.2434 0.604807 36.8226 0.552836 36.1865C0.500389 35.5446 0.5 34.7284 0.5 33.6V6.4C0.5 5.27165 0.500389 4.45545 0.552836 3.81352C0.604807 3.17744 0.705391 2.75662 0.881477 2.41103C1.21703 1.75247 1.75247 1.21703 2.41103 0.881477C2.75662 0.705391 3.17744 0.604807 3.81352 0.552836C4.45545 0.500389 5.27164 0.5 6.4 0.5Z" fill="#F0F7FF"/>
<path fill-rule="evenodd" clip-rule="evenodd" d="M25.4374 17.6759C25.4374 21.9616 21.9628 25.4359 17.6767 25.4359C13.3906 25.4359 9.91602 21.9616 9.91602 17.6759C9.91602 13.3903 13.3906 9.91602 17.6767 9.91602C21.9628 9.91602 25.4374 13.3903 25.4374 17.6759ZM13.1415 17.6759C13.1415 20.1793 15.1711 22.2087 17.6748 22.2087C20.1786 22.2087 22.2082 20.1793 22.2082 17.6759C22.2082 15.1725 20.1786 13.1431 17.6748 13.1431C15.1711 13.1431 13.1415 15.1725 13.1415 17.6759Z" fill="#4D8DD9"/>
<path d="M21.6836 23.9655C21.0534 23.3353 21.0534 22.3137 21.6835 21.6836C22.3137 21.0534 23.3354 21.0534 23.9656 21.6835L29.4437 27.1611C30.0739 27.7912 30.0739 28.8129 29.4438 29.443C28.8136 30.0732 27.7919 30.0732 27.1617 29.4431L21.6836 23.9655Z" fill="#4D8DD9"/>
<path d="M6.4 0.5H33.6C34.7284 0.5 35.5446 0.500389 36.1865 0.552836C36.8226 0.604807 37.2434 0.705391 37.589 0.881477C38.2475 1.21703 38.783 1.75247 39.1185 2.41103C39.2946 2.75662 39.3952 3.17744 39.4472 3.81352C39.4996 4.45545 39.5 5.27164 39.5 6.4V33.6C39.5 34.7284 39.4996 35.5446 39.4472 36.1865C39.3952 36.8226 39.2946 37.2434 39.1185 37.589C38.783 38.2475 38.2475 38.783 37.589 39.1185C37.2434 39.2946 36.8226 39.3952 36.1865 39.4472C35.5446 39.4996 34.7284 39.5 33.6 39.5H6.4C5.27165 39.5 4.45545 39.4996 3.81352 39.4472C3.17744 39.3952 2.75662 39.2946 2.41103 39.1185C1.75247 38.783 1.21703 38.2475 0.881477 37.589C0.705391 37.2434 0.604807 36.8226 0.552836 36.1865C0.500389 35.5446 0.5 34.7284 0.5 33.6V6.4C0.5 5.27165 0.500389 4.45545 0.552836 3.81352C0.604807 3.17744 0.705391 2.75662 0.881477 2.41103C1.21703 1.75247 1.75247 1.21703 2.41103 0.881477C2.75662 0.705391 3.17744 0.604807 3.81352 0.552836C4.45545 0.500389 5.27164 0.5 6.4 0.5Z" stroke="#B4D5FF"/>
</svg>
