<svg width="40" height="40" viewBox="0 0 40 40" fill="none" xmlns="http://www.w3.org/2000/svg">
<path d="M0 6.4C0 4.15979 0 3.03968 0.435974 2.18404C0.819467 1.43139 1.43139 0.819467 2.18404 0.435974C3.03968 0 4.15979 0 6.4 0H33.6C35.8402 0 36.9603 0 37.816 0.435974C38.5686 0.819467 39.1805 1.43139 39.564 2.18404C40 3.03968 40 4.15979 40 6.4V33.6C40 35.8402 40 36.9603 39.564 37.816C39.1805 38.5686 38.5686 39.1805 37.816 39.564C36.9603 40 35.8402 40 33.6 40H6.4C4.15979 40 3.03968 40 2.18404 39.564C1.43139 39.1805 0.819467 38.5686 0.435974 37.816C0 36.9603 0 35.8402 0 33.6V6.4Z" fill="#4D8DD9"/>
<path fill-rule="evenodd" clip-rule="evenodd" d="M28.5 10.9375V24.0625C28.5 24.3555 28.3633 24.6211 28.1523 24.7891C27.9883 25.3906 27.9883 27.1055 28.1523 27.707C28.3633 27.8789 28.5 28.1445 28.5 28.4375V29.0625C28.5 29.582 28.082 30 27.5625 30H14.75C12.6797 30 11 28.3203 11 26.25V13.75C11 11.6797 12.6797 10 14.75 10H27.5625C28.082 10 28.5 10.418 28.5 10.9375ZM14.75 27.5H25.8984C25.8242 26.832 25.8242 25.668 25.8984 25H14.75C14.0625 25 13.5 25.5625 13.5 26.25C13.5 26.9414 14.0586 27.5 14.75 27.5ZM14 12.5C14 12.2239 14.2239 12 14.5 12C14.7761 12 15 12.2239 15 12.5V22.5C15 22.7761 14.7761 23 14.5 23C14.2239 23 14 22.7761 14 22.5V12.5ZM18.5 15C18.2239 15 18 15.2239 18 15.5C18 15.7761 18.2239 16 18.5 16H24.5C24.7761 16 25 15.7761 25 15.5C25 15.2239 24.7761 15 24.5 15H18.5Z" fill="white" fill-opacity="0.8"/>
</svg>
