<svg width="40" height="40" viewBox="0 0 40 40" fill="none" xmlns="http://www.w3.org/2000/svg">
<path d="M6.4 0.5H33.6C34.7284 0.5 35.5446 0.500389 36.1865 0.552836C36.8226 0.604807 37.2434 0.705391 37.589 0.881477C38.2475 1.21703 38.783 1.75247 39.1185 2.41103C39.2946 2.75662 39.3952 3.17744 39.4472 3.81352C39.4996 4.45545 39.5 5.27164 39.5 6.4V33.6C39.5 34.7284 39.4996 35.5446 39.4472 36.1865C39.3952 36.8226 39.2946 37.2434 39.1185 37.589C38.783 38.2475 38.2475 38.783 37.589 39.1185C37.2434 39.2946 36.8226 39.3952 36.1865 39.4472C35.5446 39.4996 34.7284 39.5 33.6 39.5H6.4C5.27165 39.5 4.45545 39.4996 3.81352 39.4472C3.17744 39.3952 2.75662 39.2946 2.41103 39.1185C1.75247 38.783 1.21703 38.2475 0.881477 37.589C0.705391 37.2434 0.604807 36.8226 0.552836 36.1865C0.500389 35.5446 0.5 34.7284 0.5 33.6V6.4C0.5 5.27165 0.500389 4.45545 0.552836 3.81352C0.604807 3.17744 0.705391 2.75662 0.881477 2.41103C1.21703 1.75247 1.75247 1.21703 2.41103 0.881477C2.75662 0.705391 3.17744 0.604807 3.81352 0.552836C4.45545 0.500389 5.27164 0.5 6.4 0.5Z" fill="#F1F1F1"/>
<path fill-rule="evenodd" clip-rule="evenodd" d="M28.5 10.9375V24.0625C28.5 24.3555 28.3633 24.6211 28.1523 24.7891C27.9883 25.3906 27.9883 27.1055 28.1523 27.707C28.3633 27.8789 28.5 28.1445 28.5 28.4375V29.0625C28.5 29.582 28.082 30 27.5625 30H14.75C12.6797 30 11 28.3203 11 26.25V13.75C11 11.6797 12.6797 10 14.75 10H27.5625C28.082 10 28.5 10.418 28.5 10.9375ZM14.75 27.5H25.8984C25.8242 26.832 25.8242 25.668 25.8984 25H14.75C14.0625 25 13.5 25.5625 13.5 26.25C13.5 26.9414 14.0586 27.5 14.75 27.5ZM14 12.5C14 12.2239 14.2239 12 14.5 12C14.7761 12 15 12.2239 15 12.5V22.5C15 22.7761 14.7761 23 14.5 23C14.2239 23 14 22.7761 14 22.5V12.5ZM18.5 15C18.2239 15 18 15.2239 18 15.5C18 15.7761 18.2239 16 18.5 16H24.5C24.7761 16 25 15.7761 25 15.5C25 15.2239 24.7761 15 24.5 15H18.5Z" fill="#06806B"/>
<path d="M6.4 0.5H33.6C34.7284 0.5 35.5446 0.500389 36.1865 0.552836C36.8226 0.604807 37.2434 0.705391 37.589 0.881477C38.2475 1.21703 38.783 1.75247 39.1185 2.41103C39.2946 2.75662 39.3952 3.17744 39.4472 3.81352C39.4996 4.45545 39.5 5.27164 39.5 6.4V33.6C39.5 34.7284 39.4996 35.5446 39.4472 36.1865C39.3952 36.8226 39.2946 37.2434 39.1185 37.589C38.783 38.2475 38.2475 38.783 37.589 39.1185C37.2434 39.2946 36.8226 39.3952 36.1865 39.4472C35.5446 39.4996 34.7284 39.5 33.6 39.5H6.4C5.27165 39.5 4.45545 39.4996 3.81352 39.4472C3.17744 39.3952 2.75662 39.2946 2.41103 39.1185C1.75247 38.783 1.21703 38.2475 0.881477 37.589C0.705391 37.2434 0.604807 36.8226 0.552836 36.1865C0.500389 35.5446 0.5 34.7284 0.5 33.6V6.4C0.5 5.27165 0.500389 4.45545 0.552836 3.81352C0.604807 3.17744 0.705391 2.75662 0.881477 2.41103C1.21703 1.75247 1.75247 1.21703 2.41103 0.881477C2.75662 0.705391 3.17744 0.604807 3.81352 0.552836C4.45545 0.500389 5.27164 0.5 6.4 0.5Z" stroke="#CFCFCF"/>
</svg>
