<svg width="40" height="40" viewBox="0 0 40 40" fill="none" xmlns="http://www.w3.org/2000/svg">
<path d="M0 6.4C0 4.15979 0 3.03968 0.435974 2.18404C0.819467 1.43139 1.43139 0.819467 2.18404 0.435974C3.03968 0 4.15979 0 6.4 0H33.6C35.8402 0 36.9603 0 37.816 0.435974C38.5686 0.819467 39.1805 1.43139 39.564 2.18404C40 3.03968 40 4.15979 40 6.4V33.6C40 35.8402 40 36.9603 39.564 37.816C39.1805 38.5686 38.5686 39.1805 37.816 39.564C36.9603 40 35.8402 40 33.6 40H6.4C4.15979 40 3.03968 40 2.18404 39.564C1.43139 39.1805 0.819467 38.5686 0.435974 37.816C0 36.9603 0 35.8402 0 33.6V6.4Z" fill="#79C933"/>
<path d="M25.5341 20.2973C26.2718 20.2973 26.9042 20.5946 27.4311 20.991C27.5365 21.0901 27.6419 21.0901 27.7473 21.0901C27.8527 21.0901 27.9581 21.0901 28.0634 20.991C28.2742 20.7928 28.3796 20.6937 28.5904 20.5946C28.6958 20.4955 28.8012 20.3964 28.8012 20.2973V16.1351C28.8012 15.3423 28.0634 14.6486 27.2203 14.6486H23.0048C22.8994 14.5495 22.8994 14.4505 22.794 14.3514C23.3209 13.7568 23.5317 13.0631 23.5317 12.2703C23.5317 10.4865 21.9509 9 20.0539 9C18.1569 9 16.576 10.4865 16.576 12.3694C16.576 13.1622 16.8922 13.8559 17.3137 14.4505C17.2084 14.4505 17.2084 14.5495 17.103 14.6486H12.8874C11.9389 14.6486 11.3066 15.3423 11.3066 16.1351V20.2973C11.3066 20.3964 11.412 20.5946 11.5173 20.5946C11.7281 20.6937 11.9389 20.7928 12.0443 20.991C12.1497 21.0901 12.4658 21.0901 12.5712 20.991C13.0982 20.4955 13.7305 20.2973 14.4682 20.2973C15.9437 20.2973 17.2084 21.4865 17.2084 22.8739C17.2084 24.2613 15.9437 25.4505 14.4682 25.4505C13.7305 25.4505 13.0982 25.1532 12.5712 24.7568C12.4658 24.6577 12.3605 24.5586 12.2551 24.5586C12.1497 24.5586 12.0443 24.5586 11.9389 24.6577C11.7281 24.8559 11.6227 24.955 11.412 25.0541C11.3066 25.1532 11.2012 25.2523 11.2012 25.3514V29.5135C11.2012 30.3063 11.9389 31 12.782 31H27.1149C27.9581 31 28.6958 30.3063 28.6958 29.5135V25.3514C28.6958 25.2523 28.5904 25.0541 28.485 25.0541C28.2742 24.955 28.1688 24.8559 27.9581 24.7568C27.9581 24.6577 27.8527 24.6577 27.7473 24.5586C27.6419 24.5586 27.4311 24.5586 27.3257 24.6577C26.7988 25.1532 26.1664 25.4505 25.4287 25.4505C23.9533 25.4505 22.6886 24.2613 22.6886 22.8739C22.6886 21.4865 24.0587 20.2973 25.5341 20.2973Z" fill="white" fill-opacity="0.8"/>
</svg>
