<svg width="40" height="40" viewBox="0 0 40 40" fill="none" xmlns="http://www.w3.org/2000/svg">
<path d="M6.4 0.5H33.6C34.7284 0.5 35.5446 0.500389 36.1865 0.552836C36.8226 0.604807 37.2434 0.705391 37.589 0.881477C38.2475 1.21703 38.783 1.75247 39.1185 2.41103C39.2946 2.75662 39.3952 3.17744 39.4472 3.81352C39.4996 4.45545 39.5 5.27164 39.5 6.4V33.6C39.5 34.7284 39.4996 35.5446 39.4472 36.1865C39.3952 36.8226 39.2946 37.2434 39.1185 37.589C38.783 38.2475 38.2475 38.783 37.589 39.1185C37.2434 39.2946 36.8226 39.3952 36.1865 39.4472C35.5446 39.4996 34.7284 39.5 33.6 39.5H6.4C5.27165 39.5 4.45545 39.4996 3.81352 39.4472C3.17744 39.3952 2.75662 39.2946 2.41103 39.1185C1.75247 38.783 1.21703 38.2475 0.881477 37.589C0.705391 37.2434 0.604807 36.8226 0.552836 36.1865C0.500389 35.5446 0.5 34.7284 0.5 33.6V6.4C0.5 5.27165 0.500389 4.45545 0.552836 3.81352C0.604807 3.17744 0.705391 2.75662 0.881477 2.41103C1.21703 1.75247 1.75247 1.21703 2.41103 0.881477C2.75662 0.705391 3.17744 0.604807 3.81352 0.552836C4.45545 0.500389 5.27164 0.5 6.4 0.5Z" fill="#F1F1F1"/>
<path d="M25.5341 20.2973C26.2718 20.2973 26.9042 20.5946 27.4311 20.991C27.5365 21.0901 27.6419 21.0901 27.7473 21.0901C27.8527 21.0901 27.9581 21.0901 28.0634 20.991C28.2742 20.7928 28.3796 20.6937 28.5904 20.5946C28.6958 20.4955 28.8012 20.3964 28.8012 20.2973V16.1351C28.8012 15.3423 28.0634 14.6486 27.2203 14.6486H23.0048C22.8994 14.5495 22.8994 14.4505 22.794 14.3514C23.3209 13.7568 23.5317 13.0631 23.5317 12.2703C23.5317 10.4865 21.9509 9 20.0539 9C18.1569 9 16.576 10.4865 16.576 12.3694C16.576 13.1622 16.8922 13.8559 17.3137 14.4505C17.2084 14.4505 17.2084 14.5495 17.103 14.6486H12.8874C11.9389 14.6486 11.3066 15.3423 11.3066 16.1351V20.2973C11.3066 20.3964 11.412 20.5946 11.5173 20.5946C11.7281 20.6937 11.9389 20.7928 12.0443 20.991C12.1497 21.0901 12.4658 21.0901 12.5712 20.991C13.0982 20.4955 13.7305 20.2973 14.4682 20.2973C15.9437 20.2973 17.2084 21.4865 17.2084 22.8739C17.2084 24.2613 15.9437 25.4505 14.4682 25.4505C13.7305 25.4505 13.0982 25.1532 12.5712 24.7568C12.4658 24.6577 12.3605 24.5586 12.2551 24.5586C12.1497 24.5586 12.0443 24.5586 11.9389 24.6577C11.7281 24.8559 11.6227 24.955 11.412 25.0541C11.3066 25.1532 11.2012 25.2523 11.2012 25.3514V29.5135C11.2012 30.3063 11.9389 31 12.782 31H27.1149C27.9581 31 28.6958 30.3063 28.6958 29.5135V25.3514C28.6958 25.2523 28.5904 25.0541 28.485 25.0541C28.2742 24.955 28.1688 24.8559 27.9581 24.7568C27.9581 24.6577 27.8527 24.6577 27.7473 24.5586C27.6419 24.5586 27.4311 24.5586 27.3257 24.6577C26.7988 25.1532 26.1664 25.4505 25.4287 25.4505C23.9533 25.4505 22.6886 24.2613 22.6886 22.8739C22.6886 21.4865 24.0587 20.2973 25.5341 20.2973Z" fill="#06806B"/>
<path d="M6.4 0.5H33.6C34.7284 0.5 35.5446 0.500389 36.1865 0.552836C36.8226 0.604807 37.2434 0.705391 37.589 0.881477C38.2475 1.21703 38.783 1.75247 39.1185 2.41103C39.2946 2.75662 39.3952 3.17744 39.4472 3.81352C39.4996 4.45545 39.5 5.27164 39.5 6.4V33.6C39.5 34.7284 39.4996 35.5446 39.4472 36.1865C39.3952 36.8226 39.2946 37.2434 39.1185 37.589C38.783 38.2475 38.2475 38.783 37.589 39.1185C37.2434 39.2946 36.8226 39.3952 36.1865 39.4472C35.5446 39.4996 34.7284 39.5 33.6 39.5H6.4C5.27165 39.5 4.45545 39.4996 3.81352 39.4472C3.17744 39.3952 2.75662 39.2946 2.41103 39.1185C1.75247 38.783 1.21703 38.2475 0.881477 37.589C0.705391 37.2434 0.604807 36.8226 0.552836 36.1865C0.500389 35.5446 0.5 34.7284 0.5 33.6V6.4C0.5 5.27165 0.500389 4.45545 0.552836 3.81352C0.604807 3.17744 0.705391 2.75662 0.881477 2.41103C1.21703 1.75247 1.75247 1.21703 2.41103 0.881477C2.75662 0.705391 3.17744 0.604807 3.81352 0.552836C4.45545 0.500389 5.27164 0.5 6.4 0.5Z" stroke="#CFCFCF"/>
</svg>
