<svg width="42" height="42" viewBox="0 0 42 42" fill="none" xmlns="http://www.w3.org/2000/svg">
<path d="M6.4 2.5H33.6C34.7284 2.5 35.5446 2.50039 36.1865 2.55284C36.8226 2.60481 37.2434 2.70539 37.589 2.88148C38.2475 3.21703 38.783 3.75247 39.1185 4.41103C39.2946 4.75662 39.3952 5.17744 39.4472 5.81352C39.4996 6.45545 39.5 7.27164 39.5 8.4V35.6C39.5 36.7284 39.4996 37.5446 39.4472 38.1865C39.3952 38.8226 39.2946 39.2434 39.1185 39.589C38.783 40.2475 38.2475 40.783 37.589 41.1185C37.2434 41.2946 36.8226 41.3952 36.1865 41.4472C35.5446 41.4996 34.7284 41.5 33.6 41.5H6.4C5.27165 41.5 4.45545 41.4996 3.81352 41.4472C3.17744 41.3952 2.75662 41.2946 2.41103 41.1185C1.75247 40.783 1.21703 40.2475 0.881477 39.589C0.705391 39.2434 0.604807 38.8226 0.552836 38.1865C0.500389 37.5446 0.5 36.7284 0.5 35.6V8.4C0.5 7.27165 0.500389 6.45545 0.552836 5.81352C0.604807 5.17744 0.705391 4.75662 0.881477 4.41103C1.21703 3.75247 1.75247 3.21703 2.41103 2.88148C2.75662 2.70539 3.17744 2.60481 3.81352 2.55284C4.45545 2.50039 5.27164 2.5 6.4 2.5Z" fill="#F8F8F8"/>
<path d="M25.5341 22.2973C26.2718 22.2973 26.9042 22.5946 27.4311 22.991C27.5365 23.0901 27.6419 23.0901 27.7473 23.0901C27.8527 23.0901 27.9581 23.0901 28.0634 22.991C28.2742 22.7928 28.3796 22.6937 28.5904 22.5946C28.6958 22.4955 28.8012 22.3964 28.8012 22.2973V18.1351C28.8012 17.3423 28.0634 16.6486 27.2203 16.6486H23.0048C22.8994 16.5495 22.8994 16.4505 22.794 16.3514C23.3209 15.7568 23.5317 15.0631 23.5317 14.2703C23.5317 12.4865 21.9509 11 20.0539 11C18.1569 11 16.576 12.4865 16.576 14.3694C16.576 15.1622 16.8922 15.8559 17.3137 16.4505C17.2084 16.4505 17.2084 16.5495 17.103 16.6486H12.8874C11.9389 16.6486 11.3066 17.3423 11.3066 18.1351V22.2973C11.3066 22.3964 11.412 22.5946 11.5173 22.5946C11.7281 22.6937 11.9389 22.7928 12.0443 22.991C12.1497 23.0901 12.4658 23.0901 12.5712 22.991C13.0982 22.4955 13.7305 22.2973 14.4682 22.2973C15.9437 22.2973 17.2084 23.4865 17.2084 24.8739C17.2084 26.2613 15.9437 27.4505 14.4682 27.4505C13.7305 27.4505 13.0982 27.1532 12.5712 26.7568C12.4658 26.6577 12.3605 26.5586 12.2551 26.5586C12.1497 26.5586 12.0443 26.5586 11.9389 26.6577C11.7281 26.8559 11.6227 26.955 11.412 27.0541C11.3066 27.1532 11.2012 27.2523 11.2012 27.3514V31.5135C11.2012 32.3063 11.9389 33 12.782 33H27.1149C27.9581 33 28.6958 32.3063 28.6958 31.5135V27.3514C28.6958 27.2523 28.5904 27.0541 28.485 27.0541C28.2742 26.955 28.1688 26.8559 27.9581 26.7568C27.9581 26.6577 27.8527 26.6577 27.7473 26.5586C27.6419 26.5586 27.4311 26.5586 27.3257 26.6577C26.7988 27.1532 26.1664 27.4505 25.4287 27.4505C23.9533 27.4505 22.6886 26.2613 22.6886 24.8739C22.6886 23.4865 24.0587 22.2973 25.5341 22.2973Z" fill="#989898"/>
<path d="M34.4969 12C34.0041 12 33.6304 11.8749 33.3758 11.6246C33.1253 11.3744 33 10.9951 33 10.4868V6.12903C33 5.62463 33.1253 5.24927 33.3758 5.00293C33.6304 4.75269 34.0041 4.62757 34.4969 4.62757H40.5031C40.9959 4.62757 41.3676 4.75269 41.6181 5.00293C41.8727 5.24927 42 5.62463 42 6.12903V10.4868C42 10.9951 41.8727 11.3744 41.6181 11.6246C41.3676 11.8749 40.9959 12 40.5031 12H34.4969ZM34.2136 5.19062V3.29619C34.2136 2.59629 34.3614 2.00196 34.6571 1.5132C34.9569 1.02053 35.3552 0.645161 35.8522 0.387097C36.3491 0.129032 36.8973 0 37.4969 0C38.1006 0 38.6509 0.129032 39.1478 0.387097C39.6448 0.645161 40.0411 1.02053 40.3368 1.5132C40.6366 2.00196 40.7864 2.59629 40.7864 3.29619V5.19062H39.3265V3.21994C39.3265 2.82502 39.2444 2.48876 39.0801 2.21114C38.9158 1.92962 38.694 1.71457 38.4148 1.56598C38.1396 1.4174 37.8337 1.34311 37.4969 1.34311C37.1602 1.34311 36.8542 1.4174 36.5791 1.56598C36.3039 1.71457 36.0842 1.92962 35.9199 2.21114C35.7598 2.48876 35.6797 2.82502 35.6797 3.21994V5.19062H34.2136Z" fill="#373737"/>
<path d="M6.4 2.5H33.6C34.7284 2.5 35.5446 2.50039 36.1865 2.55284C36.8226 2.60481 37.2434 2.70539 37.589 2.88148C38.2475 3.21703 38.783 3.75247 39.1185 4.41103C39.2946 4.75662 39.3952 5.17744 39.4472 5.81352C39.4996 6.45545 39.5 7.27164 39.5 8.4V35.6C39.5 36.7284 39.4996 37.5446 39.4472 38.1865C39.3952 38.8226 39.2946 39.2434 39.1185 39.589C38.783 40.2475 38.2475 40.783 37.589 41.1185C37.2434 41.2946 36.8226 41.3952 36.1865 41.4472C35.5446 41.4996 34.7284 41.5 33.6 41.5H6.4C5.27165 41.5 4.45545 41.4996 3.81352 41.4472C3.17744 41.3952 2.75662 41.2946 2.41103 41.1185C1.75247 40.783 1.21703 40.2475 0.881477 39.589C0.705391 39.2434 0.604807 38.8226 0.552836 38.1865C0.500389 37.5446 0.5 36.7284 0.5 35.6V8.4C0.5 7.27165 0.500389 6.45545 0.552836 5.81352C0.604807 5.17744 0.705391 4.75662 0.881477 4.41103C1.21703 3.75247 1.75247 3.21703 2.41103 2.88148C2.75662 2.70539 3.17744 2.60481 3.81352 2.55284C4.45545 2.50039 5.27164 2.5 6.4 2.5Z" stroke="#CFCFCF"/>
</svg>
