<svg width="42" height="42" viewBox="0 0 42 42" fill="none" xmlns="http://www.w3.org/2000/svg">
<path d="M6.4 2.5H33.6C34.7284 2.5 35.5446 2.50039 36.1865 2.55284C36.8226 2.60481 37.2434 2.70539 37.589 2.88148C38.2475 3.21703 38.783 3.75247 39.1185 4.41103C39.2946 4.75662 39.3952 5.17744 39.4472 5.81352C39.4996 6.45545 39.5 7.27164 39.5 8.4V35.6C39.5 36.7284 39.4996 37.5446 39.4472 38.1865C39.3952 38.8226 39.2946 39.2434 39.1185 39.589C38.783 40.2475 38.2475 40.783 37.589 41.1185C37.2434 41.2946 36.8226 41.3952 36.1865 41.4472C35.5446 41.4996 34.7284 41.5 33.6 41.5H6.4C5.27165 41.5 4.45545 41.4996 3.81352 41.4472C3.17744 41.3952 2.75662 41.2946 2.41103 41.1185C1.75247 40.783 1.21703 40.2475 0.881477 39.589C0.705391 39.2434 0.604807 38.8226 0.552836 38.1865C0.500389 37.5446 0.5 36.7284 0.5 35.6V8.4C0.5 7.27165 0.500389 6.45545 0.552836 5.81352C0.604807 5.17744 0.705391 4.75662 0.881477 4.41103C1.21703 3.75247 1.75247 3.21703 2.41103 2.88148C2.75662 2.70539 3.17744 2.60481 3.81352 2.55284C4.45545 2.50039 5.27164 2.5 6.4 2.5Z" fill="#F8F8F8"/>
<path fill-rule="evenodd" clip-rule="evenodd" d="M18.9445 17.662C18.9411 17.707 18.9378 17.7524 18.9345 17.7982C18.4644 17.7071 17.9217 17.556 17.3575 17.3989C16.1232 17.0553 14.7859 16.6829 13.88 16.8479C12.3009 17.1354 10.7821 18.8684 10.1971 21.8025C9.61209 24.7367 10.3549 27.0359 12.0038 29.5154C13.6528 31.9949 16.3897 33.9999 17.652 33.9999C18.0762 33.9999 18.5643 33.9861 19.0746 33.9717H19.0746C20.1313 33.9419 21.2827 33.9094 22.1573 33.9911C22.2197 33.9969 22.283 33.9999 22.3473 33.9999C23.8313 33.9999 25.9234 31.8042 27.2123 29.8266C28.5012 27.8489 29.5513 24.2116 29.0865 21.642C28.6218 19.0724 27.1915 17.118 24.914 16.8479C23.5417 16.6851 22.4348 17.0878 21.4719 17.438C21.103 17.5722 20.7552 17.6986 20.4218 17.7827L20.4223 17.7771C20.463 17.2389 20.5113 16.8219 20.5602 16.6068C20.7086 15.9543 21.0498 15.2071 21.3601 14.8427C21.6276 14.5285 21.5933 14.0539 21.2835 13.7827C20.9738 13.5114 20.5058 13.5461 20.2383 13.8603C19.7571 14.4255 19.3152 15.3932 19.116 16.2689C19.0453 16.5798 18.9908 17.0512 18.9445 17.662ZM13.5974 23.2327C13.5974 21.9521 13.7676 20.8711 14.115 19.988C14.237 19.678 14.5977 19.5216 14.9206 19.6387C15.2435 19.7558 15.4064 20.102 15.2845 20.412C14.9955 21.1463 14.8475 22.0871 14.8475 23.2327C14.8475 24.3483 15.2076 25.6537 15.9378 27.1447C16.0847 27.4446 15.9505 27.802 15.6381 27.943C15.3257 28.0839 14.9534 27.9551 14.8065 27.6552C14.0037 26.016 13.5974 24.5432 13.5974 23.2327Z" fill="#989898"/>
<path fill-rule="evenodd" clip-rule="evenodd" d="M14.7399 13.8003C14.1135 13.2363 13.6725 12.539 13.4168 11.7086C13.3527 11.5004 13.3412 11.2796 13.3831 11.0658C13.5236 10.3505 14.2174 9.88449 14.9327 10.025L14.9328 10.025C15.7853 10.1924 16.5248 10.5582 17.1512 11.1222C17.7776 11.6862 18.2186 12.3834 18.4743 13.2138C18.5384 13.422 18.5499 13.6429 18.508 13.8566C18.3675 14.572 17.6737 15.038 16.9584 14.8975L16.9584 14.8975C16.1058 14.73 15.3663 14.3643 14.7399 13.8003Z" fill="#989898"/>
<path d="M34.4969 12C34.0041 12 33.6304 11.8749 33.3758 11.6246C33.1253 11.3744 33 10.9951 33 10.4868V6.12903C33 5.62463 33.1253 5.24927 33.3758 5.00293C33.6304 4.75269 34.0041 4.62757 34.4969 4.62757H40.5031C40.9959 4.62757 41.3676 4.75269 41.6181 5.00293C41.8727 5.24927 42 5.62463 42 6.12903V10.4868C42 10.9951 41.8727 11.3744 41.6181 11.6246C41.3676 11.8749 40.9959 12 40.5031 12H34.4969ZM34.2136 5.19062V3.29619C34.2136 2.59629 34.3614 2.00196 34.6571 1.5132C34.9569 1.02053 35.3552 0.645161 35.8522 0.387097C36.3491 0.129032 36.8973 0 37.4969 0C38.1006 0 38.6509 0.129032 39.1478 0.387097C39.6448 0.645161 40.0411 1.02053 40.3368 1.5132C40.6366 2.00196 40.7864 2.59629 40.7864 3.29619V5.19062H39.3265V3.21994C39.3265 2.82502 39.2444 2.48876 39.0801 2.21114C38.9158 1.92962 38.694 1.71457 38.4148 1.56598C38.1396 1.4174 37.8337 1.34311 37.4969 1.34311C37.1602 1.34311 36.8542 1.4174 36.5791 1.56598C36.3039 1.71457 36.0842 1.92962 35.9199 2.21114C35.7598 2.48876 35.6797 2.82502 35.6797 3.21994V5.19062H34.2136Z" fill="#373737"/>
<path d="M6.4 2.5H33.6C34.7284 2.5 35.5446 2.50039 36.1865 2.55284C36.8226 2.60481 37.2434 2.70539 37.589 2.88148C38.2475 3.21703 38.783 3.75247 39.1185 4.41103C39.2946 4.75662 39.3952 5.17744 39.4472 5.81352C39.4996 6.45545 39.5 7.27164 39.5 8.4V35.6C39.5 36.7284 39.4996 37.5446 39.4472 38.1865C39.3952 38.8226 39.2946 39.2434 39.1185 39.589C38.783 40.2475 38.2475 40.783 37.589 41.1185C37.2434 41.2946 36.8226 41.3952 36.1865 41.4472C35.5446 41.4996 34.7284 41.5 33.6 41.5H6.4C5.27165 41.5 4.45545 41.4996 3.81352 41.4472C3.17744 41.3952 2.75662 41.2946 2.41103 41.1185C1.75247 40.783 1.21703 40.2475 0.881477 39.589C0.705391 39.2434 0.604807 38.8226 0.552836 38.1865C0.500389 37.5446 0.5 36.7284 0.5 35.6V8.4C0.5 7.27165 0.500389 6.45545 0.552836 5.81352C0.604807 5.17744 0.705391 4.75662 0.881477 4.41103C1.21703 3.75247 1.75247 3.21703 2.41103 2.88148C2.75662 2.70539 3.17744 2.60481 3.81352 2.55284C4.45545 2.50039 5.27164 2.5 6.4 2.5Z" stroke="#CFCFCF"/>
</svg>
