<svg width="40" height="40" viewBox="0 0 40 40" fill="none" xmlns="http://www.w3.org/2000/svg">
<path d="M6.4 0.5H33.6C34.7284 0.5 35.5446 0.500389 36.1865 0.552836C36.8226 0.604807 37.2434 0.705391 37.589 0.881477C38.2475 1.21703 38.783 1.75247 39.1185 2.41103C39.2946 2.75662 39.3952 3.17744 39.4472 3.81352C39.4996 4.45545 39.5 5.27164 39.5 6.4V33.6C39.5 34.7284 39.4996 35.5446 39.4472 36.1865C39.3952 36.8226 39.2946 37.2434 39.1185 37.589C38.783 38.2475 38.2475 38.783 37.589 39.1185C37.2434 39.2946 36.8226 39.3952 36.1865 39.4472C35.5446 39.4996 34.7284 39.5 33.6 39.5H6.4C5.27165 39.5 4.45545 39.4996 3.81352 39.4472C3.17744 39.3952 2.75662 39.2946 2.41103 39.1185C1.75247 38.783 1.21703 38.2475 0.881477 37.589C0.705391 37.2434 0.604807 36.8226 0.552836 36.1865C0.500389 35.5446 0.5 34.7284 0.5 33.6V6.4C0.5 5.27165 0.500389 4.45545 0.552836 3.81352C0.604807 3.17744 0.705391 2.75662 0.881477 2.41103C1.21703 1.75247 1.75247 1.21703 2.41103 0.881477C2.75662 0.705391 3.17744 0.604807 3.81352 0.552836C4.45545 0.500389 5.27164 0.5 6.4 0.5Z" fill="#F0F7FF"/>
<path fill-rule="evenodd" clip-rule="evenodd" d="M18.9445 15.662C18.9411 15.707 18.9378 15.7524 18.9345 15.7981C18.4644 15.7071 17.9217 15.556 17.3575 15.3989C16.1232 15.0552 14.7859 14.6829 13.88 14.8478C12.3009 15.1353 10.7821 16.8683 10.1971 19.8025C9.61209 22.7366 10.3549 25.0358 12.0038 27.5153C13.6528 29.9949 16.3897 31.9999 17.652 31.9999C18.0762 31.9999 18.5643 31.9861 19.0746 31.9717H19.0746C20.1313 31.9418 21.2827 31.9093 22.1573 31.991C22.2197 31.9968 22.283 31.9999 22.3473 31.9999C23.8313 31.9999 25.9234 29.8042 27.2123 27.8265C28.5012 25.8488 29.5513 22.2115 29.0865 19.6419C28.6218 17.0723 27.1915 15.1179 24.914 14.8478C23.5417 14.6851 22.4348 15.0877 21.4719 15.4379C21.103 15.5721 20.7552 15.6986 20.4218 15.7826L20.4223 15.777C20.463 15.2388 20.5113 14.8218 20.5602 14.6067C20.7086 13.9542 21.0498 13.2071 21.3601 12.8426C21.6276 12.5285 21.5933 12.0539 21.2835 11.7826C20.9738 11.5113 20.5058 11.5461 20.2383 11.8602C19.7571 12.4255 19.3152 13.3931 19.116 14.2689C19.0453 14.5797 18.9908 15.0512 18.9445 15.662ZM13.5974 21.2326C13.5974 19.9521 13.7676 18.871 14.115 17.9879C14.237 17.6779 14.5977 17.5215 14.9206 17.6386C15.2435 17.7557 15.4064 18.1019 15.2845 18.4119C14.9955 19.1462 14.8475 20.087 14.8475 21.2326C14.8475 22.3482 15.2076 23.6537 15.9378 25.1446C16.0847 25.4445 15.9505 25.8019 15.6381 25.9429C15.3257 26.0839 14.9534 25.9551 14.8065 25.6552C14.0037 24.0159 13.5974 22.5432 13.5974 21.2326Z" fill="#4D8DD9"/>
<path fill-rule="evenodd" clip-rule="evenodd" d="M14.7399 11.8003C14.1135 11.2363 13.6725 10.539 13.4168 9.70863C13.3527 9.50043 13.3412 9.27959 13.3831 9.06583C13.5236 8.35049 14.2174 7.88449 14.9327 8.025L14.9328 8.02498C15.7853 8.19244 16.5248 8.55818 17.1512 9.1222C17.7776 9.68621 18.2186 10.3834 18.4743 11.2138C18.5384 11.422 18.5499 11.6429 18.508 11.8566C18.3675 12.572 17.6737 13.038 16.9584 12.8975L16.9584 12.8975C16.1058 12.73 15.3663 12.3643 14.7399 11.8003Z" fill="#4D8DD9"/>
<path d="M6.4 0.5H33.6C34.7284 0.5 35.5446 0.500389 36.1865 0.552836C36.8226 0.604807 37.2434 0.705391 37.589 0.881477C38.2475 1.21703 38.783 1.75247 39.1185 2.41103C39.2946 2.75662 39.3952 3.17744 39.4472 3.81352C39.4996 4.45545 39.5 5.27164 39.5 6.4V33.6C39.5 34.7284 39.4996 35.5446 39.4472 36.1865C39.3952 36.8226 39.2946 37.2434 39.1185 37.589C38.783 38.2475 38.2475 38.783 37.589 39.1185C37.2434 39.2946 36.8226 39.3952 36.1865 39.4472C35.5446 39.4996 34.7284 39.5 33.6 39.5H6.4C5.27165 39.5 4.45545 39.4996 3.81352 39.4472C3.17744 39.3952 2.75662 39.2946 2.41103 39.1185C1.75247 38.783 1.21703 38.2475 0.881477 37.589C0.705391 37.2434 0.604807 36.8226 0.552836 36.1865C0.500389 35.5446 0.5 34.7284 0.5 33.6V6.4C0.5 5.27165 0.500389 4.45545 0.552836 3.81352C0.604807 3.17744 0.705391 2.75662 0.881477 2.41103C1.21703 1.75247 1.75247 1.21703 2.41103 0.881477C2.75662 0.705391 3.17744 0.604807 3.81352 0.552836C4.45545 0.500389 5.27164 0.5 6.4 0.5Z" stroke="#B4D5FF"/>
</svg>
