<svg width="40" height="40" viewBox="0 0 40 40" fill="none" xmlns="http://www.w3.org/2000/svg">
<path d="M6.4 0.5H33.6C34.7284 0.5 35.5446 0.500389 36.1865 0.552836C36.8226 0.604807 37.2434 0.705391 37.589 0.881477C38.2475 1.21703 38.783 1.75247 39.1185 2.41103C39.2946 2.75662 39.3952 3.17744 39.4472 3.81352C39.4996 4.45545 39.5 5.27164 39.5 6.4V33.6C39.5 34.7284 39.4996 35.5446 39.4472 36.1865C39.3952 36.8226 39.2946 37.2434 39.1185 37.589C38.783 38.2475 38.2475 38.783 37.589 39.1185C37.2434 39.2946 36.8226 39.3952 36.1865 39.4472C35.5446 39.4996 34.7284 39.5 33.6 39.5H6.4C5.27165 39.5 4.45545 39.4996 3.81352 39.4472C3.17744 39.3952 2.75662 39.2946 2.41103 39.1185C1.75247 38.783 1.21703 38.2475 0.881477 37.589C0.705391 37.2434 0.604807 36.8226 0.552836 36.1865C0.500389 35.5446 0.5 34.7284 0.5 33.6V6.4C0.5 5.27165 0.500389 4.45545 0.552836 3.81352C0.604807 3.17744 0.705391 2.75662 0.881477 2.41103C1.21703 1.75247 1.75247 1.21703 2.41103 0.881477C2.75662 0.705391 3.17744 0.604807 3.81352 0.552836C4.45545 0.500389 5.27164 0.5 6.4 0.5Z" fill="#F0F7FF"/>
<path d="M30.5755 12.7714C30.3733 12.7714 30.1711 12.8587 29.9689 12.946C29.1601 13.3825 28.3512 13.5571 27.5424 13.5571C26.0258 13.5571 24.5093 12.946 22.9927 12.4222C21.3751 11.8111 19.7574 11.2 18.1397 11.2C17.1287 11.2 16.3199 11.4619 15.4099 11.8984C14.9044 12.1603 14.5 12.7714 14.5 13.2952V20.1047C14.5 20.4539 14.8033 20.6285 15.0055 20.6285C15.2077 20.6285 15.4099 20.5412 15.6121 20.4539C16.421 20.0174 17.2298 19.8428 18.0386 19.8428C19.5552 19.8428 21.0717 20.4539 22.5883 20.9777C24.1049 21.5888 25.7225 22.2 27.3402 22.2C28.3512 22.2 29.2612 21.938 30.07 21.5015C30.5755 21.2396 30.9799 20.6285 30.9799 20.1047V13.2952C31.081 12.8587 30.7777 12.7714 30.5755 12.7714Z" fill="#4D8DD9"/>
<rect x="10.0996" y="15" width="2.2" height="17" rx="1.1" fill="#4D8DD9"/>
<circle cx="11.2" cy="11.2" r="2.2" fill="#4D8DD9"/>
<path d="M6.4 0.5H33.6C34.7284 0.5 35.5446 0.500389 36.1865 0.552836C36.8226 0.604807 37.2434 0.705391 37.589 0.881477C38.2475 1.21703 38.783 1.75247 39.1185 2.41103C39.2946 2.75662 39.3952 3.17744 39.4472 3.81352C39.4996 4.45545 39.5 5.27164 39.5 6.4V33.6C39.5 34.7284 39.4996 35.5446 39.4472 36.1865C39.3952 36.8226 39.2946 37.2434 39.1185 37.589C38.783 38.2475 38.2475 38.783 37.589 39.1185C37.2434 39.2946 36.8226 39.3952 36.1865 39.4472C35.5446 39.4996 34.7284 39.5 33.6 39.5H6.4C5.27165 39.5 4.45545 39.4996 3.81352 39.4472C3.17744 39.3952 2.75662 39.2946 2.41103 39.1185C1.75247 38.783 1.21703 38.2475 0.881477 37.589C0.705391 37.2434 0.604807 36.8226 0.552836 36.1865C0.500389 35.5446 0.5 34.7284 0.5 33.6V6.4C0.5 5.27165 0.500389 4.45545 0.552836 3.81352C0.604807 3.17744 0.705391 2.75662 0.881477 2.41103C1.21703 1.75247 1.75247 1.21703 2.41103 0.881477C2.75662 0.705391 3.17744 0.604807 3.81352 0.552836C4.45545 0.500389 5.27164 0.5 6.4 0.5Z" stroke="#B4D5FF"/>
</svg>
