<svg width="42" height="42" viewBox="0 0 42 42" fill="none" xmlns="http://www.w3.org/2000/svg">
<path d="M6.4 2.5H33.6C34.7284 2.5 35.5446 2.50039 36.1865 2.55284C36.8226 2.60481 37.2434 2.70539 37.589 2.88148C38.2475 3.21703 38.783 3.75247 39.1185 4.41103C39.2946 4.75662 39.3952 5.17744 39.4472 5.81352C39.4996 6.45545 39.5 7.27164 39.5 8.4V35.6C39.5 36.7284 39.4996 37.5446 39.4472 38.1865C39.3952 38.8226 39.2946 39.2434 39.1185 39.589C38.783 40.2475 38.2475 40.783 37.589 41.1185C37.2434 41.2946 36.8226 41.3952 36.1865 41.4472C35.5446 41.4996 34.7284 41.5 33.6 41.5H6.4C5.27165 41.5 4.45545 41.4996 3.81352 41.4472C3.17744 41.3952 2.75662 41.2946 2.41103 41.1185C1.75247 40.783 1.21703 40.2475 0.881477 39.589C0.705391 39.2434 0.604807 38.8226 0.552836 38.1865C0.500389 37.5446 0.5 36.7284 0.5 35.6V8.4C0.5 7.27165 0.500389 6.45545 0.552836 5.81352C0.604807 5.17744 0.705391 4.75662 0.881477 4.41103C1.21703 3.75247 1.75247 3.21703 2.41103 2.88148C2.75662 2.70539 3.17744 2.60481 3.81352 2.55284C4.45545 2.50039 5.27164 2.5 6.4 2.5Z" fill="#F8F8F8"/>
<path d="M30.5755 14.7714C30.3733 14.7714 30.1711 14.8587 29.9689 14.946C29.1601 15.3826 28.3512 15.5572 27.5424 15.5572C26.0258 15.5572 24.5093 14.946 22.9927 14.4222C21.3751 13.8111 19.7574 13.2 18.1397 13.2C17.1287 13.2 16.3199 13.4619 15.4099 13.8984C14.9044 14.1603 14.5 14.7714 14.5 15.2953V22.1048C14.5 22.454 14.8033 22.6286 15.0055 22.6286C15.2077 22.6286 15.4099 22.5413 15.6121 22.454C16.421 22.0175 17.2298 21.8429 18.0386 21.8429C19.5552 21.8429 21.0717 22.454 22.5883 22.9778C24.1049 23.5889 25.7225 24.2 27.3402 24.2C28.3512 24.2 29.2612 23.9381 30.07 23.5016C30.5755 23.2397 30.9799 22.6286 30.9799 22.1048V15.2953C31.081 14.8587 30.7777 14.7714 30.5755 14.7714Z" fill="#989898"/>
<rect x="10.0996" y="17" width="2.2" height="17" rx="1.1" fill="#989898"/>
<circle cx="11.2" cy="13.2" r="2.2" fill="#989898"/>
<path d="M34.4969 12C34.0041 12 33.6304 11.8749 33.3758 11.6246C33.1253 11.3744 33 10.9951 33 10.4868V6.12903C33 5.62463 33.1253 5.24927 33.3758 5.00293C33.6304 4.75269 34.0041 4.62757 34.4969 4.62757H40.5031C40.9959 4.62757 41.3676 4.75269 41.6181 5.00293C41.8727 5.24927 42 5.62463 42 6.12903V10.4868C42 10.9951 41.8727 11.3744 41.6181 11.6246C41.3676 11.8749 40.9959 12 40.5031 12H34.4969ZM34.2136 5.19062V3.29619C34.2136 2.59629 34.3614 2.00196 34.6571 1.5132C34.9569 1.02053 35.3552 0.645161 35.8522 0.387097C36.3491 0.129032 36.8973 0 37.4969 0C38.1006 0 38.6509 0.129032 39.1478 0.387097C39.6448 0.645161 40.0411 1.02053 40.3368 1.5132C40.6366 2.00196 40.7864 2.59629 40.7864 3.29619V5.19062H39.3265V3.21994C39.3265 2.82502 39.2444 2.48876 39.0801 2.21114C38.9158 1.92962 38.694 1.71457 38.4148 1.56598C38.1396 1.4174 37.8337 1.34311 37.4969 1.34311C37.1602 1.34311 36.8542 1.4174 36.5791 1.56598C36.3039 1.71457 36.0842 1.92962 35.9199 2.21114C35.7598 2.48876 35.6797 2.82502 35.6797 3.21994V5.19062H34.2136Z" fill="#373737"/>
<path d="M6.4 2.5H33.6C34.7284 2.5 35.5446 2.50039 36.1865 2.55284C36.8226 2.60481 37.2434 2.70539 37.589 2.88148C38.2475 3.21703 38.783 3.75247 39.1185 4.41103C39.2946 4.75662 39.3952 5.17744 39.4472 5.81352C39.4996 6.45545 39.5 7.27164 39.5 8.4V35.6C39.5 36.7284 39.4996 37.5446 39.4472 38.1865C39.3952 38.8226 39.2946 39.2434 39.1185 39.589C38.783 40.2475 38.2475 40.783 37.589 41.1185C37.2434 41.2946 36.8226 41.3952 36.1865 41.4472C35.5446 41.4996 34.7284 41.5 33.6 41.5H6.4C5.27165 41.5 4.45545 41.4996 3.81352 41.4472C3.17744 41.3952 2.75662 41.2946 2.41103 41.1185C1.75247 40.783 1.21703 40.2475 0.881477 39.589C0.705391 39.2434 0.604807 38.8226 0.552836 38.1865C0.500389 37.5446 0.5 36.7284 0.5 35.6V8.4C0.5 7.27165 0.500389 6.45545 0.552836 5.81352C0.604807 5.17744 0.705391 4.75662 0.881477 4.41103C1.21703 3.75247 1.75247 3.21703 2.41103 2.88148C2.75662 2.70539 3.17744 2.60481 3.81352 2.55284C4.45545 2.50039 5.27164 2.5 6.4 2.5Z" stroke="#CFCFCF"/>
</svg>
