<svg width="40" height="40" viewBox="0 0 40 40" fill="none" xmlns="http://www.w3.org/2000/svg">
<path d="M0 6.4C0 4.15979 0 3.03968 0.435974 2.18404C0.819467 1.43139 1.43139 0.819467 2.18404 0.435974C3.03968 0 4.15979 0 6.4 0H33.6C35.8402 0 36.9603 0 37.816 0.435974C38.5686 0.819467 39.1805 1.43139 39.564 2.18404C40 3.03968 40 4.15979 40 6.4V33.6C40 35.8402 40 36.9603 39.564 37.816C39.1805 38.5686 38.5686 39.1805 37.816 39.564C36.9603 40 35.8402 40 33.6 40H6.4C4.15979 40 3.03968 40 2.18404 39.564C1.43139 39.1805 0.819467 38.5686 0.435974 37.816C0 36.9603 0 35.8402 0 33.6V6.4Z" fill="#F8A823"/>
<path d="M30.5755 12.7714C30.3733 12.7714 30.1711 12.8587 29.9689 12.946C29.1601 13.3825 28.3512 13.5571 27.5424 13.5571C26.0258 13.5571 24.5093 12.946 22.9927 12.4222C21.3751 11.8111 19.7574 11.2 18.1397 11.2C17.1287 11.2 16.3199 11.4619 15.4099 11.8984C14.9044 12.1603 14.5 12.7714 14.5 13.2952V20.1047C14.5 20.4539 14.8033 20.6285 15.0055 20.6285C15.2077 20.6285 15.4099 20.5412 15.6121 20.4539C16.421 20.0174 17.2298 19.8428 18.0386 19.8428C19.5552 19.8428 21.0717 20.4539 22.5883 20.9777C24.1049 21.5888 25.7225 22.2 27.3402 22.2C28.3512 22.2 29.2612 21.938 30.07 21.5015C30.5755 21.2396 30.9799 20.6285 30.9799 20.1047V13.2952C31.081 12.8587 30.7777 12.7714 30.5755 12.7714Z" fill="white" fill-opacity="0.8"/>
<rect x="10.0996" y="15" width="2.2" height="17" rx="1.1" fill="white" fill-opacity="0.8"/>
<circle cx="11.2" cy="11.2" r="2.2" fill="white" fill-opacity="0.8"/>
</svg>
