<svg width="22" height="16" viewBox="0 0 22 16" fill="none" xmlns="http://www.w3.org/2000/svg">
<path fill-rule="evenodd" clip-rule="evenodd" d="M14.8504 4C14.8504 6.21071 13.1282 8 11.0004 8C8.87258 8 7.15039 6.21071 7.15039 4C7.15039 1.78929 8.87258 0 11.0004 0C13.1282 0 14.8504 1.78929 14.8504 4ZM5.49961 4.57136C5.49961 5.83207 4.51305 6.85707 3.29961 6.85707C2.08617 6.85707 1.09961 5.83207 1.09961 4.57136C1.09961 3.31064 2.08617 2.28564 3.29961 2.28564C4.51305 2.28564 5.49961 3.31064 5.49961 4.57136ZM20.9 4.57143C20.9 5.83214 19.9134 6.85714 18.7 6.85714C17.4866 6.85714 16.5 5.83214 16.5 4.57143C16.5 3.31071 17.4866 2.28571 18.7 2.28571C19.9134 2.28571 20.9 3.31071 20.9 4.57143ZM17.6 8C16.995 8 16.4484 8.25357 16.0497 8.66429C17.435 9.45357 18.4181 10.8786 18.6313 12.5714H20.9C21.5084 12.5714 22 12.0607 22 11.4286V10.2857C22 9.025 21.0134 8 19.8 8H17.6ZM13.6404 9.14307H13.3551C12.6401 9.50021 11.846 9.71449 11.0004 9.71449C10.1548 9.71449 9.36414 9.50021 8.6457 9.14307H8.36039C6.17414 9.14307 4.40039 10.9859 4.40039 13.2574V14.2859C4.40039 15.2324 5.13945 16.0002 6.05039 16.0002H15.9504C16.8613 16.0002 17.6004 15.2324 17.6004 14.2859V13.2574C17.6004 10.9859 15.8266 9.14307 13.6404 9.14307ZM4.4 8C5.005 8 5.55156 8.25357 5.95031 8.66429C4.565 9.45357 3.58188 10.8786 3.36531 12.5714H1.1C0.491563 12.5714 0 12.0607 0 11.4286V10.2857C0 9.025 0.986562 8 2.2 8H4.4Z" fill="#737373"/>
</svg>
