<?xml version="1.0" encoding="UTF-8" standalone="no"?>
<svg width="145px" height="22px" viewBox="0 0 145 22" version="1.1" xmlns="http://www.w3.org/2000/svg" xmlns:xlink="http://www.w3.org/1999/xlink">
    <!-- Generator: Sketch 40 (33762) - http://www.bohemiancoding.com/sketch -->
    <title>Group 16</title>
    <desc>Created with Sketch.</desc>
    <defs>
        <polygon id="path-1" points="0 0.239976731 144.17186 0.239976731 144.17186 21.8262974 0 21.8262974"></polygon>
    </defs>
    <g id="Welcome" stroke="none" stroke-width="1" fill="none" fill-rule="evenodd">
        <g id="Quill-Homepage" transform="translate(-1019.000000, -6980.000000)">
            <g id="Group-16" transform="translate(1005.000000, 6956.000000)">
                <rect id="Rectangle-2-Copy-5" x="0.665365854" y="0" width="172.264171" height="69.593333"></rect>
                <g id="BlackRock" transform="translate(14.774634, 24.187317)">
                    <polyline id="Fill-1" fill="#C9C9C9" points="21.5093068 4.44734807 21.5093068 18.7612153 29.634993 18.7612153 28.5353489 21.5753976 17.9714228 21.5753976 17.9714228 4.44734807 21.5093068 4.44734807"></polyline>
                    <path d="M85.2643059,10.0820017 L83.3336712,10.0820017 L83.3336712,2.78505409 L85.6744615,2.79399115 C88.8429051,2.79399115 90.4868648,3.77872325 90.4868648,6.377754 C90.4868648,9.2207335 88.4414265,10.0820017 85.2643059,10.0820017 L85.2643059,10.0820017 Z M89.4836689,12.207699 C91.754042,11.3308737 94.3821749,9.46733028 94.3821749,6.20629476 C94.3821749,2.26604234 90.921049,0.239976731 85.975487,0.239976731 L79.5598392,0.239976731 L79.5598392,21.5734116 L83.3336712,21.5734116 L83.3336712,12.7829812 L85.580683,12.7829812 L91.5190953,21.5734116 L95.8545967,21.5734116 L89.4836689,12.207699 L89.4836689,12.207699 Z" id="Fill-2" fill="#C9C9C9"></path>
                    <path d="M36.0476372,15.4680726 L38.6470692,9.14327894 L41.3429495,15.4697276 L36.0476372,15.4680726 L36.0476372,15.4680726 Z M36.3102836,4.44734807 L36.9333597,5.78029469 L30.2340405,21.5734116 L33.5256309,21.5734116 L34.9369799,18.0978865 L42.5286963,18.0978865 L44.0518453,21.5734116 L47.9294676,21.5734116 L40.329408,4.44734807 L36.3102836,4.44734807 L36.3102836,4.44734807 Z" id="Fill-3" fill="#C9C9C9"></path>
                    <path d="M6.33555229,18.7612153 L3.88095963,18.7552573 L3.88095963,11.7032514 L6.1139548,11.7032514 C9.50733321,11.7032514 12.2899836,12.196114 12.2899836,15.248618 C12.2899836,18.1846091 10.0406356,18.7612153 6.33555229,18.7612153 L6.33555229,18.7612153 Z M6.24644607,2.79994919 C9.07214778,2.79994919 11.0645228,3.12830356 11.0645228,5.70284013 C11.0645228,9.10455166 7.55467221,8.92018333 5.7979114,8.92018333 L3.88095963,8.92018333 L3.88095963,2.79399115 L6.24644607,2.79994919 L6.24644607,2.79994919 Z M11.357205,10.1343001 C13.2604738,9.54213682 15.0556137,8.12048156 15.0556137,5.45260232 C15.0556137,0.239976731 8.78981122,0.239976731 6.73402729,0.239976731 L0,0.239976731 L0,21.5753976 L6.47838923,21.5753976 C10.1644499,21.5753976 16.2784047,20.6250897 16.2784047,15.4167672 C16.2784047,12.5075872 14.5680325,10.6688689 11.357205,10.1343001 L11.357205,10.1343001 Z" id="Fill-4" fill="#C9C9C9"></path>
                    <g id="Group-11">
                        <mask id="mask-2" fill="white">
                            <use xlink:href="#path-1"></use>
                        </mask>
                        <g id="Clip-6"></g>
                        <path d="M74.3099144,4.43046695 L67.0329065,12.6519042 L74.3269347,21.5707636 L78.4842237,21.5707636 L71.0470249,12.4092795 L77.8995267,4.43046695 L74.3099144,4.43046695 L74.3099144,4.43046695 Z M63.2891104,4.4238469 L66.8276619,4.4238469 L66.8276619,21.5750666 L63.2891104,21.5750666 L63.2891104,4.4238469 Z" id="Fill-5" fill="#C9C9C9" mask="url(#mask-2)"></path>
                        <path d="M47.200265,12.4533028 C47.200265,18.0727303 50.6410333,21.8461576 55.4163924,21.8461576 C57.9427373,21.8461576 59.6050522,21.2721994 61.2226471,20.1381852 L60.392324,18.4159798 C58.9793062,19.133593 57.7675284,19.4361292 56.309457,19.4361292 C53.2377954,19.4361292 51.0268265,17.1823339 51.0268265,12.5334054 C51.0268265,8.80201548 52.4168168,6.55153025 55.140063,6.55153025 C56.547741,6.55153025 57.7438335,7.10695226 58.2531072,8.55939073 L61.3334458,7.70408056 C61.0127302,6.54259319 59.4458624,4.17890514 54.9301461,4.17890514 C50.7858726,4.17890514 47.200265,6.9613112 47.200265,12.4533028" id="Fill-7" fill="#C9C9C9" mask="url(#mask-2)"></path>
                        <path d="M139.997551,4.43046695 L132.718207,12.6519042 L140.013236,21.5707636 L144.17186,21.5707636 L136.733326,12.4092795 L143.585161,4.43046695 L139.997551,4.43046695 L139.997551,4.43046695 Z M128.976747,4.4238469 L132.513296,4.4238469 L132.513296,21.5750666 L128.976747,21.5750666 L128.976747,4.4238469 Z" id="Fill-8" fill="#C9C9C9" mask="url(#mask-2)"></path>
                        <path d="M112.773098,12.4533028 C112.773098,18.0727303 116.2142,21.8461576 120.989893,21.8461576 C123.51557,21.8461576 125.177885,21.2721994 126.795814,20.1381852 L125.965157,18.4159798 C124.552139,19.133593 123.339694,19.4361292 121.88229,19.4361292 C118.811629,19.4361292 116.599993,17.1823339 116.599993,12.5334054 C116.599993,8.80201548 117.990317,6.55153025 120.714231,6.55153025 C122.120907,6.55153025 123.316332,7.10695226 123.824605,8.55939073 L126.906612,7.70408056 C126.585897,6.54259319 125.018695,4.17890514 120.502979,4.17890514 C116.359373,4.17890514 112.773098,6.9613112 112.773098,12.4533028" id="Fill-9" fill="#C9C9C9" mask="url(#mask-2)"></path>
                        <path d="M103.270103,19.4457282 C99.6564621,19.4457282 98.8575097,16.5405203 98.8575097,13.0262679 C98.8575097,9.5116846 99.6754847,6.45719457 103.270103,6.45719457 C106.865723,6.45719457 107.684365,9.5116846 107.684365,13.0262679 C107.684365,16.5405203 106.88341,19.4457282 103.270103,19.4457282 L103.270103,19.4457282 Z M103.270103,4.17758113 C98.5725033,4.17758113 95.1797923,6.9877914 95.1797923,13.0262679 C95.1797923,19.0462084 98.4316687,21.8461576 103.270103,21.8461576 C108.11054,21.8461576 111.362082,19.0462084 111.362082,13.0262679 C111.362082,6.9877914 107.968704,4.17758113 103.270103,4.17758113 L103.270103,4.17758113 Z" id="Fill-10" fill="#C9C9C9" mask="url(#mask-2)"></path>
                    </g>
                </g>
            </g>
        </g>
    </g>
</svg>