<?xml version="1.0" encoding="UTF-8" standalone="no"?>
<svg width="46px" height="41px" viewBox="0 0 46 41" version="1.1" xmlns="http://www.w3.org/2000/svg" xmlns:xlink="http://www.w3.org/1999/xlink">
    <!-- Generator: Sketch 40 (33762) - http://www.bohemiancoding.com/sketch -->
    <title>Group 30</title>
    <desc>Created with Sketch.</desc>
    <defs></defs>
    <g id="Welcome" stroke="none" stroke-width="1" fill="none" fill-rule="evenodd" stroke-linecap="round" stroke-linejoin="round">
        <g id="Quill-Homepage" transform="translate(-495.000000, -5632.000000)" stroke="#00C2A2" stroke-width="1.5">
            <g id="Group-30" transform="translate(496.000000, 5633.000000)">
                <path d="M0,35.6234763 L0,3.33366284 C0,1.75278766 1.28073118,0.470664275 2.86094624,0.470664275 L40.8996559,0.470664275 C42.4793978,0.470664275 43.7606022,1.75278766 43.7606022,3.33366284 L43.7606022,35.6234763 C43.7606022,37.204825 42.4793978,38.4864749 40.8996559,38.4864749 L2.86094624,38.4864749 C1.28073118,38.4864749 0,37.204825 0,35.6234763 L0,35.6234763 Z" id="Stroke-14"></path>
                <polygon id="Stroke-16" points="3.75845161 34.7252798 40.0016774 34.7252798 40.0016774 4.23223816 3.75845161 4.23223816"></polygon>
                <path d="M29.0616215,26.7101148 L35.1918151,26.7101148 L35.1918151,25.3432425 C35.1918151,23.575825 32.7978366,22.1426686 29.8446323,22.1426686 C29.1065677,22.1426686 28.4030409,22.2321521 27.7633849,22.3940746" id="Stroke-17"></path>
                <path d="M32.1268602,18.3754605 C32.1268602,19.6272826 31.1124946,20.6423759 29.8615699,20.6423759 C28.610172,20.6423759 27.5962796,19.6272826 27.5962796,18.3754605 C27.5962796,17.1236385 28.610172,16.1085452 29.8615699,16.1085452 C31.1124946,16.1085452 32.1268602,17.1236385 32.1268602,18.3754605 L32.1268602,18.3754605 Z" id="Stroke-18"></path>
                <path d="M16.0105118,22.3976729 C15.367071,22.2333831 14.659286,22.1424792 13.9155441,22.1424792 C10.9623398,22.1424792 8.56883441,23.5756356 8.56883441,25.3430531 L8.56883441,26.7099254 L14.699028,26.7099254" id="Stroke-19"></path>
                <path d="M16.1977247,18.3754605 C16.1977247,19.6272826 15.1833591,20.6423759 13.9324344,20.6423759 C12.6810366,20.6423759 11.6671441,19.6272826 11.6671441,18.3754605 C11.6671441,17.1236385 12.6810366,16.1085452 13.9324344,16.1085452 C15.1833591,16.1085452 16.1977247,17.1236385 16.1977247,18.3754605 L16.1977247,18.3754605 Z" id="Stroke-20"></path>
                <g id="Group-23" transform="translate(25.548387, 32.331478)">
                    <polyline id="Stroke-22" points="0.269393548 1.92024964 0.269393548 0.244209469 9.44221075 0.244209469 9.44221075 1.92024964"></polyline>
                </g>
                <path d="M29.0617634,26.7101148 L29.0617634,24.8740459 C29.0617634,22.5001291 25.8464516,20.5755237 21.8803011,20.5755237 C17.9141505,20.5755237 14.6988387,22.5001291 14.6988387,24.8740459 L14.6988387,26.7101148 L29.0617634,26.7101148 L29.0617634,26.7101148 Z" id="Stroke-25"></path>
                <path d="M24.9452559,15.5158709 C24.9452559,17.1975925 23.5831484,18.5606772 21.9026323,18.5606772 C20.2221161,18.5606772 18.8600086,17.1975925 18.8600086,15.5158709 C18.8600086,13.8341492 20.2221161,12.4710646 21.9026323,12.4710646 C23.5831484,12.4710646 24.9452559,13.8341492 24.9452559,15.5158709 L24.9452559,15.5158709 Z" id="Stroke-27"></path>
            </g>
        </g>
    </g>
</svg>