<?xml version="1.0" encoding="UTF-8" standalone="no"?>
<svg width="38px" height="50px" viewBox="0 0 38 50" version="1.1" xmlns="http://www.w3.org/2000/svg" xmlns:xlink="http://www.w3.org/1999/xlink">
    <!-- Generator: Sketch 40 (33762) - http://www.bohemiancoding.com/sketch -->
    <title>Page 1</title>
    <desc>Created with Sketch.</desc>
    <defs></defs>
    <g id="Welcome" stroke="none" stroke-width="1" fill="none" fill-rule="evenodd">
        <g id="Quill-Homepage" transform="translate(-843.000000, -5810.000000)">
            <g id="Page-1" transform="translate(844.000000, 5811.000000)">
                <path d="M6.76193684,18.1024674 C6.76193684,11.8382147 11.8398316,6.76183579 18.1025684,6.76183579 L18.1025684,-0.000101052632 C8.12109474,-0.000101052632 0,8.12048842 0,18.1024674 C0,28.0839411 8.12109474,36.2050358 18.1025684,36.2050358 L18.1025684,29.4430989 C11.8398316,29.4430989 6.76193684,24.3652042 6.76193684,18.1024674" id="Fill-1"></path>
                <path d="M13.5240253,18.1024674 C13.5240253,15.5776674 15.5784253,13.5232674 18.1022147,13.5232674 L18.1022147,6.76183579 C11.8399832,6.76183579 6.76208842,11.8382147 6.76208842,18.1024674 C6.76208842,24.3652042 11.8399832,29.4430989 18.1022147,29.4430989 L18.1022147,22.6806568 C15.5784253,22.6806568 13.5240253,20.6262568 13.5240253,18.1024674" id="Fill-3"></path>
                <path d="M29.4427958,29.4427958 C29.4427958,35.7070484 24.3649011,40.7834274 18.1021642,40.7834274 L18.1021642,47.5453642 C28.0836379,47.5453642 36.2047326,39.4247747 36.2047326,29.4427958 C36.2047326,19.4613221 28.0836379,11.3402274 18.1021642,11.3402274 L18.1021642,18.1021642 C24.3649011,18.1021642 29.4427958,23.1800589 29.4427958,29.4427958" id="Fill-5"></path>
                <path d="M22.6807579,29.4427958 C22.6807579,31.9675958 20.6263579,34.0219958 18.1025684,34.0219958 L18.1025684,40.7834274 C24.3648,40.7834274 29.4426947,35.7070484 29.4426947,29.4427958 C29.4426947,23.1800589 24.3648,18.1021642 18.1025684,18.1021642 L18.1025684,24.8646063 C20.6263579,24.8646063 22.6807579,26.9190063 22.6807579,29.4427958" id="Fill-7"></path>
                <path d="M18.1023663,36.2049347 C8.12089263,36.2049347 -0.000202105264,28.08384 -0.000202105264,18.1023663 C-0.000202105264,8.12038737 8.12089263,-0.000202105263 18.1023663,-0.000202105263 L18.1023663,13.5231663 C15.5785768,13.5231663 13.5241768,15.5775663 13.5241768,18.1023663 C13.5241768,20.6261558 15.5785768,22.6810611 18.1023663,22.6810611 L18.1023663,36.2049347 L18.1023663,36.2049347 Z" id="Stroke-9" stroke="#00C2A2" stroke-width="1.5" stroke-linecap="round" stroke-linejoin="round"></path>
                <path d="M18.1023663,29.4428463 C11.8396295,29.4428463 6.76173474,24.3649516 6.76173474,18.1022147 C6.76173474,11.8379621 11.8396295,6.76208842 18.1023663,6.76208842" id="Stroke-11" stroke="#00C2A2" stroke-width="1.5" stroke-linecap="round" stroke-linejoin="round"></path>
                <path d="M18.1023663,47.5453137 L18.1023663,34.02144 C20.6271663,34.02144 22.6815663,31.9675453 22.6815663,29.4427453 C22.6815663,26.9184505 20.6271663,24.8645558 18.1023663,24.8645558 L18.1023663,11.3401768 C28.0843453,11.3401768 36.2049347,19.4617768 36.2049347,29.4427453 C36.2049347,39.4242189 28.0843453,47.5453137 18.1023663,47.5453137 L18.1023663,47.5453137 Z" id="Stroke-13" stroke="#00C2A2" stroke-width="1.5" stroke-linecap="round" stroke-linejoin="round"></path>
                <path d="M18.1023663,18.1024674 C24.3666189,18.1024674 29.4435032,23.1783411 29.4435032,29.4430989 C29.4435032,35.7053305 24.3666189,40.7832253 18.1023663,40.7832253" id="Stroke-15" stroke="#00C2A2" stroke-width="1.5" stroke-linecap="round" stroke-linejoin="round"></path>
            </g>
        </g>
    </g>
</svg>