<?xml version="1.0" encoding="UTF-8" standalone="no"?>
<svg width="145px" height="29px" viewBox="0 0 145 29" version="1.1" xmlns="http://www.w3.org/2000/svg" xmlns:xlink="http://www.w3.org/1999/xlink">
    <!-- Generator: Sketch 40 (33762) - http://www.bohemiancoding.com/sketch -->
    <title>Group 10</title>
    <desc>Created with Sketch.</desc>
    <defs>
        <polygon id="path-1" points="0.0178725446 0.128143617 144.111391 0.128143617 144.111391 28.7551903 0.0178725446 28.7551903"></polygon>
    </defs>
    <g id="Welcome" stroke="none" stroke-width="1" fill="none" fill-rule="evenodd">
        <g id="Quill-Homepage" transform="translate(-675.000000, -6976.000000)">
            <g id="Group-10" transform="translate(660.000000, 6956.000000)">
                <rect id="Rectangle-2-Copy-7" x="0.996097561" y="0" width="172.264171" height="69.593333"></rect>
                <g id="ffwd-final" transform="translate(15.105366, 20.156098)">
                    <g id="Group-4">
                        <mask id="mask-2" fill="white">
                            <use xlink:href="#path-1"></use>
                        </mask>
                        <g id="Clip-2"></g>
                        <path d="M138.020428,24.635017 C138.020428,23.6463534 137.320122,22.9973298 136.531645,22.9973298 C135.723806,22.9973298 135.052096,23.6273692 135.052096,24.635017 L135.052096,24.6542979 C135.052096,25.6429615 135.733338,26.2922818 136.531645,26.2922818 C137.320122,26.2922818 138.020428,25.6331728 138.020428,24.6542979 L138.020428,24.635017 L138.020428,24.635017 Z M138.001364,27.2032287 L138.001364,26.3501244 C137.621572,26.8831663 137.08629,27.3097184 136.249259,27.3097184 C135.042862,27.3097184 133.865359,26.3501244 133.865359,24.6542979 L133.865359,24.635017 C133.865359,22.9388939 135.023202,21.9798932 136.249259,21.9798932 C137.09612,21.9798932 137.6317,22.3963599 138.001364,22.8810513 L138.001364,20.1286332 L139.178569,20.1286332 L139.178569,27.2032287 L138.001364,27.2032287 L138.001364,27.2032287 Z M130.781452,24.6542979 C130.781452,23.7531398 130.1297,23.0071185 129.205093,23.0071185 C128.261125,23.0071185 127.657629,23.743351 127.657629,24.635017 L127.657629,24.6542979 C127.657629,25.5456673 128.309679,26.2922818 129.224455,26.2922818 C130.178253,26.2922818 130.781452,25.555456 130.781452,24.6735788 L130.781452,24.6542979 L130.781452,24.6542979 Z M129.205093,27.3195072 C127.638267,27.3195072 126.480424,26.1273562 126.480424,24.6735788 L126.480424,24.6542979 C126.480424,23.1910283 127.648395,21.9798932 129.224455,21.9798932 C130.800814,21.9798932 131.958954,23.1717475 131.958954,24.635017 L131.958954,24.6542979 C131.958954,26.1080754 130.791282,27.3195072 129.205093,27.3195072 L129.205093,27.3195072 Z M123.416176,24.6542979 C123.416176,23.7531398 122.763828,23.0071185 121.83952,23.0071185 C120.895551,23.0071185 120.292055,23.743351 120.292055,24.635017 L120.292055,24.6542979 C120.292055,25.5456673 120.944105,26.2922818 121.858882,26.2922818 C122.81268,26.2922818 123.416176,25.555456 123.416176,24.6735788 L123.416176,24.6542979 L123.416176,24.6542979 Z M121.83952,27.3195072 C120.272693,27.3195072 119.11485,26.1273562 119.11485,24.6735788 L119.11485,24.6542979 C119.11485,23.1910283 120.282523,21.9798932 121.858882,21.9798932 C123.43524,21.9798932 124.593679,23.1717475 124.593679,24.635017 L124.593679,24.6542979 C124.593679,26.1080754 123.425708,27.3195072 121.83952,27.3195072 L121.83952,27.3195072 Z M115.788174,24.3733905 C115.788174,23.5398637 115.097102,22.9780489 114.279433,22.9780489 C113.46236,22.9780489 112.819842,23.5303716 112.819842,24.3733905 L112.819842,24.3926714 C112.819842,25.2261981 113.47219,25.7978017 114.279433,25.7978017 C115.097102,25.7978017 115.788174,25.2261981 115.788174,24.3926714 L115.788174,24.3733905 L115.788174,24.3733905 Z M116.293967,28.0848093 C115.826898,28.5502198 115.106932,28.772988 114.182326,28.772988 C113.335763,28.772988 112.547286,28.5597119 111.886002,28.1622294 L112.323581,27.2803522 C112.878226,27.6196954 113.452232,27.813394 114.153432,27.813394 C115.203742,27.813394 115.778344,27.2803522 115.778344,26.2531268 L115.778344,25.8657297 C115.349999,26.4082637 114.814716,26.7962541 113.968451,26.7962541 C112.751927,26.7962541 111.632509,25.9045881 111.632509,24.4024601 L111.632509,24.3831792 C111.632509,22.8712625 112.771288,21.9798932 113.968451,21.9798932 C114.834078,21.9798932 115.369361,22.3770791 115.768812,22.8519817 L115.768812,22.0866795 L116.946315,22.0866795 L116.946315,26.1564259 C116.946315,27.0190222 116.722014,27.6585538 116.293967,28.0848093 L116.293967,28.0848093 Z M103.372713,22.9388939 C102.652152,22.9388939 102.146061,23.4915132 102.039421,24.285885 L104.676217,24.285885 C104.59877,23.5303716 104.151062,22.9388939 103.372713,22.9388939 L103.372713,22.9388939 Z M105.824528,25.0615692 L102.048953,25.0615692 C102.17555,25.8950959 102.769217,26.3599132 103.527906,26.3599132 C104.102509,26.3599132 104.510896,26.1466371 104.919582,25.7497479 L105.610653,26.3599132 C105.124222,26.9416021 104.45281,27.3195072 103.508544,27.3195072 C102.019761,27.3195072 100.871152,26.2439313 100.871152,24.6643833 L100.871152,24.6445092 C100.871152,23.1815362 101.912824,21.9798932 103.382245,21.9798932 C105.016987,21.9798932 105.84389,23.2586597 105.84389,24.7320146 C105.84389,24.8385044 105.83406,24.9449941 105.824528,25.0615692 L105.824528,25.0615692 Z M97.748521,23.0940307 L97.748521,25.6041031 C97.748521,26.0594283 97.9817578,26.2439313 98.3812091,26.2439313 C98.6436377,26.2439313 98.8774701,26.1854955 99.1110047,26.0695136 L99.1110047,27.028811 C98.8187886,27.1934399 98.4976785,27.2901409 98.0502692,27.2901409 C97.1840465,27.2901409 96.5713161,26.9122359 96.5713161,25.7883096 L96.5713161,23.0940307 L95.9189682,23.0940307 L95.9189682,22.0866795 L96.5713161,22.0866795 L96.5713161,20.6815492 L97.748521,20.6815492 L97.748521,22.0866795 L99.1303666,22.0866795 L99.1303666,23.0940307 L97.748521,23.0940307 L97.748521,23.0940307 Z M92.8740824,25.0126254 C92.5726321,24.8966436 92.1731807,24.8094347 91.7061116,24.8094347 C90.9471242,24.8094347 90.4997148,25.1292005 90.4997148,25.6622424 L90.4997148,25.6815232 C90.4997148,26.1760034 90.9372943,26.4569108 91.5017688,26.4569108 C92.280416,26.4569108 92.8740824,26.0110778 92.8740824,25.3617575 L92.8740824,25.0126254 L92.8740824,25.0126254 Z M92.8448906,27.2032287 L92.8448906,26.5634005 C92.4945887,26.9801639 91.959306,27.3097184 91.1708289,27.3097184 C90.2074987,27.3097184 89.3415739,26.7570991 89.3415739,25.7301704 L89.3415739,25.7105929 C89.3415739,24.6059474 90.2173286,24.0634135 91.472577,24.0634135 C92.0465836,24.0634135 92.455567,24.1506223 92.8547205,24.2763929 L92.8547205,24.1506223 C92.8547205,23.4235853 92.4067153,23.0361881 91.5798123,23.0361881 C91.0058057,23.0361881 90.5774604,23.1622553 90.1100933,23.3559539 L89.7892812,22.4355149 C90.3632877,22.1833805 90.9182302,22.0184549 91.7356013,22.0184549 C92.5041207,22.0184549 93.0781273,22.2222389 93.438259,22.5906518 C93.8177527,22.9581748 93.9929037,23.501302 93.9929037,24.1696065 L93.9929037,27.2032287 L92.8448906,27.2032287 L92.8448906,27.2032287 Z M87.8733444,23.2298867 C86.8412049,23.2298867 86.1212393,23.8984879 86.1212393,25.2552677 L86.1212393,27.2032287 L84.9342044,27.2032287 L84.9342044,22.0866795 L86.1212393,22.0866795 L86.1212393,23.2393788 C86.4423493,22.4740767 87.0363135,21.9508236 87.9412601,21.9893853 L87.9412601,23.2298867 L87.8733444,23.2298867 L87.8733444,23.2298867 Z M80.3126623,22.9388939 C79.5923987,22.9388939 79.0866057,23.4915132 78.9796683,24.285885 L81.6164644,24.285885 C81.5387188,23.5303716 81.0913095,22.9388939 80.3126623,22.9388939 L80.3126623,22.9388939 Z M82.7647754,25.0615692 L78.9889025,25.0615692 C79.1154996,25.8950959 79.7094639,26.3599132 80.4684513,26.3599132 C81.0424578,26.3599132 81.4514412,26.1466371 81.8598289,25.7497479 L82.5509006,26.3599132 C82.0641716,26.9416021 81.3927597,27.3195072 80.4487915,27.3195072 C78.9603064,27.3195072 77.8116975,26.2439313 77.8116975,24.6643833 L77.8116975,24.6445092 C77.8116975,23.1815362 78.8530711,21.9798932 80.3221943,21.9798932 C81.9569364,21.9798932 82.7844352,23.2586597 82.7844352,24.7320146 C82.7844352,24.8385044 82.7746053,24.9449941 82.7647754,25.0615692 L82.7647754,25.0615692 Z M74.3965521,20.1286332 L75.5838848,20.1286332 L75.5838848,27.2032287 L74.3965521,27.2032287 L74.3965521,20.1286332 Z M69.7070943,22.9388939 C68.9871286,22.9388939 68.4810377,23.4915132 68.3738025,24.285885 L71.0114922,24.285885 C70.9334487,23.5303716 70.4860394,22.9388939 69.7070943,22.9388939 L69.7070943,22.9388939 Z M72.1595053,25.0615692 L68.3839302,25.0615692 C68.5102295,25.8950959 69.1038959,26.3599132 69.8628833,26.3599132 C70.4368899,26.3599132 70.8461711,26.1466371 71.2545588,25.7497479 L71.9456305,26.3599132 C71.4589015,26.9416021 70.7874896,27.3195072 69.8435214,27.3195072 C68.3544405,27.3195072 67.2064274,26.2439313 67.2064274,24.6643833 L67.2064274,24.6445092 C67.2064274,23.1815362 68.247801,21.9798932 69.7169242,21.9798932 C71.3516663,21.9798932 72.1791651,23.2586597 72.1791651,24.7320146 C72.1791651,24.8385044 72.1693352,24.9449941 72.1595053,25.0615692 L72.1595053,25.0615692 Z M63.4895339,23.0071185 C62.6331411,23.0071185 62.0007509,23.743351 62.0007509,24.635017 L62.0007509,24.6542979 C62.0007509,25.5655414 62.6331411,26.2922818 63.5383855,26.2922818 C64.0930301,26.2922818 64.4921836,26.0398508 64.8719752,25.6622424 L65.5818131,26.3599132 C65.076318,26.9223213 64.4823537,27.3195072 63.4802997,27.3195072 C61.952495,27.3195072 60.8232481,26.1273562 60.8232481,24.6735788 L60.8232481,24.6542979 C60.8232481,23.2008171 61.952495,21.9798932 63.4996617,21.9798932 C64.4629918,21.9798932 65.0664881,22.3382207 65.5529192,22.8617704 L64.8132937,23.6463534 C64.4531619,23.2785338 64.0736682,23.0071185 63.4895339,23.0071185 L63.4895339,23.0071185 Z M57.1069503,23.0071185 C56.2505576,23.0071185 55.6178695,23.743351 55.6178695,24.635017 L55.6178695,24.6542979 C55.6178695,25.5655414 56.2505576,26.2922818 57.1555041,26.2922818 C57.7101487,26.2922818 58.1093022,26.0398508 58.4890938,25.6622424 L59.1992295,26.3599132 C58.6931387,26.9223213 58.0997702,27.3195072 57.0974183,27.3195072 C55.5693157,27.3195072 54.4406645,26.1273562 54.4406645,24.6735788 L54.4406645,24.6542979 C54.4406645,23.2008171 55.5693157,21.9798932 57.1167802,21.9798932 C58.0804083,21.9798932 58.6836066,22.3382207 59.1700377,22.8617704 L58.4307101,23.6463534 C58.0702805,23.2785338 57.6907868,23.0071185 57.1069503,23.0071185 L57.1069503,23.0071185 Z M51.2206278,25.0126254 C50.9191775,24.8966436 50.520024,24.8094347 50.0529548,24.8094347 C49.2936696,24.8094347 48.8462602,25.1292005 48.8462602,25.6622424 L48.8462602,25.6815232 C48.8462602,26.1760034 49.2841375,26.4569108 49.8486121,26.4569108 C50.6269614,26.4569108 51.2206278,26.0110778 51.2206278,25.3617575 L51.2206278,25.0126254 L51.2206278,25.0126254 Z M51.1914359,27.2032287 L51.1914359,26.5634005 C50.8411341,26.9801639 50.3058513,27.3097184 49.51797,27.3097184 C48.554342,27.3097184 47.6881193,26.7570991 47.6881193,25.7301704 L47.6881193,25.7105929 C47.6881193,24.6059474 48.563874,24.0634135 49.8197181,24.0634135 C50.3937247,24.0634135 50.8021123,24.1506223 51.200968,24.2763929 L51.200968,24.1506223 C51.200968,23.4235853 50.7535586,23.0361881 49.9263576,23.0361881 C49.3523511,23.0361881 48.9240058,23.1622553 48.4572345,23.3559539 L48.1358266,22.4355149 C48.7098331,22.1833805 49.2644777,22.0184549 50.0821467,22.0184549 C50.850964,22.0184549 51.4252684,22.2222389 51.7848044,22.5906518 C52.164596,22.9581748 52.3397469,23.501302 52.3397469,24.1696065 L52.3397469,27.2032287 L51.1914359,27.2032287 L51.1914359,27.2032287 Z" id="Fill-1" fill="#C9C9C9" mask="url(#mask-2)"></path>
                        <path d="M10.9385931,3.626583 C10.4402469,3.42813837 9.81709088,3.30414756 9.29402108,3.30414756 C8.29732884,3.30414756 7.69919435,3.77549063 7.42514866,4.74309359 L7.32565816,5.11506603 L10.5400353,5.11506603 L9.66785514,8.34120023 L6.50322324,8.34120023 L3.78749008,18.4150089 L0,18.4150089 L2.71573316,8.34120023 L1.14622586,8.34120023 L2.01840604,5.11506603 L3.58791333,5.11506603 L3.71272327,4.59418596 C4.06153577,3.13032312 4.60962713,2.18763697 5.28252844,1.51755265 C6.22917755,0.574569874 7.5499586,0.128143617 9.16921114,0.128143617 C10.2409681,0.128143617 11.1378719,0.276754617 11.7607301,0.500116059 L10.9385931,3.626583" id="Fill-3" fill="#C9C9C9" mask="url(#mask-2)"></path>
                    </g>
                    <path d="M17.5907542,13.4025765 C17.1671749,14.8421157 15.7966486,16.0826171 14.2265455,16.0826171 C13.1556822,16.0826171 12.4827809,15.4869866 12.4827809,14.6682913 C12.4827809,14.1224944 12.6820598,13.6754749 13.0308723,13.3281226 C13.5044947,12.8570762 14.2768865,12.5841778 15.1985141,12.5841778 C16.1204395,12.5841778 17.0423649,12.8072426 17.6905425,13.0555208 L17.5907542,13.4025765 L17.5907542,13.4025765 Z M16.718574,4.96675166 C14.8249779,4.96675166 13.1306607,5.3387241 11.7601344,5.90914117 L12.3582689,8.88670049 C13.3299395,8.48981123 14.625699,8.16707916 15.9211606,8.16707916 C17.790033,8.16707916 18.4376149,8.8125433 18.4376149,9.73060926 C18.4376149,10.1274985 18.3628481,10.4250171 18.2883792,10.723129 L18.238336,10.8966568 C17.1171317,10.5496012 15.9211606,10.3010263 14.4761654,10.3010263 C12.6323145,10.3010263 11.0377857,10.8471198 9.99105032,11.8891766 C9.19363695,12.6832518 8.72001452,13.7499287 8.72001452,15.0900974 C8.72001452,17.1742109 10.2901176,18.6629906 12.607293,18.6629906 C14.177396,18.6629906 15.5226029,18.0181197 16.5940619,16.8766923 L16.1952063,18.4150089 L19.8581843,18.4150089 L21.8268451,11.0704813 C22.0011024,10.400397 22.1256145,9.75522945 22.1256145,9.06052493 C22.1256145,6.45523469 20.3064873,4.96675166 16.718574,4.96675166 L16.718574,4.96675166 Z" id="Fill-5" fill="#C9C9C9"></path>
                    <path d="M33.1130592,9.15959893 C31.8175976,8.1427556 30.7211169,7.74556972 29.6249342,7.74556972 C28.7030088,7.74556972 28.1549174,8.16707916 28.1549174,8.8620803 C28.1549174,9.38296037 28.8027972,9.75522945 29.9242993,10.2514893 C31.6680639,11.0206477 33.5866816,11.9387136 33.5866816,14.0231238 C33.5866816,16.9259327 31.2945278,18.7125276 28.1051722,18.7125276 C26.0867661,18.7125276 23.6701002,17.9433692 22.0999972,16.3059786 L24.2926605,14.0480406 C25.6879105,15.4374496 27.1832467,15.8346355 28.3792179,15.8346355 C29.3759101,15.8346355 29.9734488,15.4125328 29.9734488,14.6682913 C29.9734488,14.1720314 29.3508885,13.8246792 28.4289631,13.4274933 C26.3357903,12.5340475 24.5416846,11.6661118 24.5416846,9.53216463 C24.5416846,6.87704076 26.5848144,4.8670844 29.8989799,4.8670844 C32.0666217,4.8670844 34.0600062,5.81006717 35.1564868,6.77767013 L33.1130592,9.15959893" id="Fill-6" fill="#C9C9C9"></path>
                    <path d="M45.4466043,5.11506603 L44.574722,8.34120023 L41.4351117,8.34120023 L39.9397755,13.9240498 C39.8900302,14.1224944 39.840285,14.370476 39.840285,14.519087 C39.840285,15.0156436 40.1640759,15.3134588 40.8619988,15.3134588 C41.4595375,15.3134588 42.1824819,15.1645512 42.8053401,14.8916527 L41.9334578,18.0919802 C41.1857897,18.4396291 40.2144169,18.6380738 39.1927031,18.6380738 C36.8999535,18.6380738 35.7787492,17.496943 35.7787492,16.0330801 C35.7787492,15.4869866 35.8782397,14.9661066 36.0277733,14.370476 L37.6476216,8.34120023 L36.0530928,8.34120023 L36.9252729,5.11506603 L38.5198018,5.11506603 L39.4417272,1.7162939 L43.2289194,1.7162939 L42.306994,5.11506603 L45.4466043,5.11506603" id="Fill-7" fill="#C9C9C9"></path>
                    <path d="M58.7509266,3.626583 C58.2525804,3.42813837 57.6297223,3.30414756 57.1066525,3.30414756 C56.1099602,3.30414756 55.5121236,3.77549063 55.23778,4.74309359 L55.1379917,5.11506603 L58.3523688,5.11506603 L57.4801886,8.34120023 L54.3161525,8.34120023 L51.5998236,18.4150089 L47.8123335,18.4150089 L50.5283645,8.34120023 L48.9588572,8.34120023 L49.8307395,5.11506603 L51.4005447,5.11506603 L51.5250568,4.59418596 C51.8738693,3.13032312 52.4222585,2.18763697 53.0948619,1.51755265 C54.0418089,0.574569874 55.36259,0.128143617 56.9818425,0.128143617 C58.0533016,0.128143617 58.9505033,0.276754617 59.5730636,0.500116059 L58.7509266,3.626583" id="Fill-8" fill="#C9C9C9"></path>
                    <path d="M67.2969816,14.4449299 C66.6738256,15.0651806 65.8269648,15.4869866 64.8800179,15.4869866 C63.1606791,15.4869866 61.9897295,14.420013 61.9897295,12.4595937 C61.9897295,11.4175369 62.4880756,10.0281279 63.4102989,9.13497875 C64.0328592,8.51472805 64.8800179,8.09262535 65.8269648,8.09262535 C67.5460058,8.09262535 68.7172532,9.15959893 68.7172532,11.1200183 C68.7172532,12.1620751 68.2189071,13.5514841 67.2969816,14.4449299 L67.2969816,14.4449299 Z M66.00152,4.8670844 C63.8833256,4.8670844 61.9897295,5.76053017 60.5944795,7.1499392 C59.1488885,8.58918186 58.2773041,10.5496012 58.2773041,12.5589643 C58.2773041,16.107534 60.7437153,18.7125276 64.7057605,18.7125276 C66.8233592,18.7125276 68.7172532,17.8193784 70.112801,16.4299694 C71.5577963,14.9907267 72.4299765,13.030604 72.4299765,11.0206477 C72.4299765,7.47267127 69.9629695,4.8670844 66.00152,4.8670844 L66.00152,4.8670844 Z" id="Fill-9" fill="#C9C9C9"></path>
                    <path d="M82.545241,8.8125433 L82.3456642,8.8125433 C79.8292099,8.8125433 77.9105923,10.2514893 76.9639432,13.7006883 L75.6678858,18.4150089 L71.8806936,18.4150089 L75.4686069,5.11506603 L79.2563949,5.11506603 L78.5334504,7.79510672 C79.8789552,5.83468736 81.4240367,4.69355659 83.6167,4.8670844 L82.545241,8.8125433" id="Fill-10" fill="#C9C9C9"></path>
                    <polyline id="Fill-11" fill="#C9C9C9" points="97.1208969 18.5140829 93.7072408 18.5140829 93.3337046 10.3505633 88.5247986 18.5140829 85.1358663 18.5140829 84.6375202 5.11506603 88.4744576 5.11506603 88.4500318 13.1795116 93.1344258 5.06582566 96.3985482 5.06582566 96.7470628 13.2041318 101.132389 5.11506603 104.895156 5.11506603 97.1208969 18.5140829"></polyline>
                    <path d="M111.945279,13.4025765 C111.521402,14.8421157 110.151173,16.0826171 108.58107,16.0826171 C107.509611,16.0826171 106.837306,15.4869866 106.837306,14.6682913 C106.837306,14.1224944 107.036585,13.6754749 107.385397,13.3281226 C107.858722,12.8570762 108.631411,12.5841778 109.553039,12.5841778 C110.474964,12.5841778 111.39689,12.8072426 112.044769,13.0555208 L111.945279,13.4025765 L111.945279,13.4025765 Z M111.073099,4.96675166 C109.179205,4.96675166 107.485185,5.3387241 106.114361,5.90914117 L106.712496,8.88670049 C107.684464,8.48981123 108.979926,8.16707916 110.275685,8.16707916 C112.144558,8.16707916 112.79214,8.8125433 112.79214,9.73060926 C112.79214,10.1274985 112.717373,10.4250171 112.642606,10.723129 L112.592861,10.8966568 C111.471954,10.5496012 110.275685,10.3010263 108.83069,10.3010263 C106.986541,10.3010263 105.391715,10.8471198 104.345575,11.8891766 C103.548162,12.6832518 103.074539,13.7499287 103.074539,15.0900974 C103.074539,17.1742109 104.644642,18.6629906 106.961818,18.6629906 C108.531325,18.6629906 109.877128,18.0181197 110.948587,16.8766923 L110.549731,18.4150089 L114.212709,18.4150089 L116.181072,11.0704813 C116.355627,10.400397 116.480139,9.75522945 116.480139,9.06052493 C116.480139,6.45523469 114.661012,4.96675166 111.073099,4.96675166 L111.073099,4.96675166 Z" id="Fill-12" fill="#C9C9C9"></path>
                    <path d="M126.620723,8.8125433 L126.421147,8.8125433 C123.904692,8.8125433 121.985777,10.2514893 121.039425,13.7006883 L119.743368,18.4150089 L115.956176,18.4150089 L119.544089,5.11506603 L123.331579,5.11506603 L122.608933,7.79510672 C123.954437,5.83468736 125.499519,4.69355659 127.692182,4.8670844 L126.620723,8.8125433" id="Fill-13" fill="#C9C9C9"></path>
                    <path d="M136.237642,14.3455592 C135.515293,15.0651806 134.59307,15.4869866 133.646421,15.4869866 C131.951805,15.4869866 130.855921,14.4449299 130.855921,12.7081686 C130.855921,11.2440091 131.429034,10.0035077 132.275894,9.15959893 C132.973519,8.46519105 133.895743,8.04308835 134.81737,8.04308835 C136.486964,8.04308835 137.682935,9.18451575 137.682935,10.87174 C137.682935,12.2365289 137.134843,13.4524101 136.237642,14.3455592 L136.237642,14.3455592 Z M140.324497,0.301671431 L138.50537,7.05056857 C137.633189,5.73561336 136.412197,4.8670844 134.319322,4.8670844 C132.500195,4.8670844 130.706387,5.66115955 129.335563,7.02624502 C127.890568,8.46519105 126.943621,10.5246844 126.943621,12.9561502 C126.943621,16.5539602 129.161305,18.6629906 132.076615,18.6629906 C133.571654,18.6629906 134.693156,18.0424432 135.839084,16.9760629 L135.440526,18.4150089 L139.227718,18.4150089 L144.111391,0.301671431 L140.324497,0.301671431 L140.324497,0.301671431 Z" id="Fill-14" fill="#C9C9C9"></path>
                </g>
            </g>
        </g>
    </g>
</svg>