<?xml version="1.0" encoding="UTF-8" standalone="no"?>
<svg width="148px" height="38px" viewBox="0 0 148 38" version="1.1" xmlns="http://www.w3.org/2000/svg" xmlns:xlink="http://www.w3.org/1999/xlink">
    <!-- Generator: Sketch 40 (33762) - http://www.bohemiancoding.com/sketch -->
    <title>Group 10 Copy</title>
    <desc>Created with Sketch.</desc>
    <defs>
        <polygon id="path-1" points="0.220292308 26.6808511 26.0999626 26.6808511 26.0999626 0.0963744681 0.220292308 0.0963744681 0.220292308 26.6808511"></polygon>
        <polygon id="path-3" points="0.220292308 26.6808511 26.0999626 26.6808511 26.0999626 0.0963744681 0.220292308 0.0963744681 0.220292308 26.6808511"></polygon>
    </defs>
    <g id="Welcome" stroke="none" stroke-width="1" fill="none" fill-rule="evenodd">
        <g id="Quill-Homepage" transform="translate(-1000.000000, -6109.000000)">
            <g id="Group-10-Copy" transform="translate(971.000000, 6078.000000)">
                <rect id="Rectangle-386-Copy-4" x="0" y="0" width="206.4" height="100.03125"></rect>
                <g id="Page-1" transform="translate(29.000000, 31.000000)">
                    <g id="Group-3" transform="translate(72.373626, 0.402153)" fill="#838383">
                        <path d="M13.4315692,35.4070255 C12.7883385,35.4070255 11.9564484,35.3011106 11.4994374,35.217834 C11.3197231,32.7995787 11.2115692,22.8274085 11.2221407,14.1189404 C12.2630198,13.7704723 12.9599209,13.6888128 13.8674374,13.6888128 C17.5861407,13.6888128 19.6711516,17.9528979 19.6792835,23.3448553 C19.6939209,30.2010255 17.1161187,35.4070255 13.4315692,35.4070255 M17.3722725,10.8937915 C15.0400527,10.8937915 13.1689099,11.5163447 11.2262066,12.4614936 C11.2457231,6.98868511 11.3091516,2.21200426 11.4465802,0.4066 L0.122953846,2.5798766 L0.122953846,3.59374894 L1.22563516,3.73281277 C2.80484396,3.95111064 3.41229451,4.87038723 3.59688791,6.96362128 C3.95631648,10.9794936 3.90101978,32.5303447 3.59688791,35.9859191 C6.64633846,36.6650681 9.94543736,37.1914085 13.2494154,37.1914085 C22.2343165,37.1914085 27.6411956,31.6700894 27.6411956,22.9349404 C27.6411956,15.9259617 23.2516132,10.8937915 17.3722725,10.8937915" id="Fill-1"></path>
                    </g>
                    <path d="M29.7765429,1.60610638 L8.1318678e-05,1.60610638 L8.1318678e-05,3.02746809 L1.58335604,3.24091489 C3.85621319,3.57159574 4.72794945,4.97193617 4.99467473,8.15908511 C5.50698242,14.267383 5.43704835,25.1911702 4.99467473,30.4448723 C4.72794945,33.6287872 3.85621319,35.0258936 1.58335604,35.3565745 L8.1318678e-05,35.5692128 L8.1318678e-05,36.9938085 L19.1368066,36.9938085 L19.1368066,35.5692128 L17.1266088,35.3565745 C14.8529385,35.0258936 13.9812022,33.6287872 13.7169165,30.4448723 C13.5323231,28.2691702 13.414411,24.6122766 13.3737516,20.3150426 L17.3193341,20.4427872 C19.9516198,20.5268723 21.0567407,22.4640638 21.6853341,25.3383191 L23.1604549,25.3383191 L23.1604549,13.3650851 L21.6853341,13.3650851 C21.0567407,16.2369149 19.9516198,18.1781489 17.3193341,18.262234 L13.3631802,18.3875532 C13.3339055,12.7312128 13.4420593,7.29802128 13.7169165,4.03487234 L19.5962571,4.03487234 C24.1801912,4.03487234 26.6311363,6.93014894 28.1745648,12.0472128 L29.9391802,11.5637234 L29.7765429,1.60610638" id="Fill-4" fill="#FFFFFF"></path>
                    <g id="Group-8" transform="translate(26.021978, 10.912791)">
                        <mask id="mask-2" fill="white">
                            <use xlink:href="#path-1"></use>
                        </mask>
                        <g id="Clip-7"></g>
                        <path d="M12.990578,1.72714043 C9.25073187,1.72714043 8.20334725,6.75931064 8.20334725,13.3939489 C8.20334725,19.8418213 9.85818242,25.0478213 13.3296769,25.0478213 C17.0687099,25.0478213 18.1144681,20.0229277 18.1144681,13.3939489 C18.1144681,6.94041702 16.459633,1.72714043 12.990578,1.72714043 M13.4288857,0.0963744681 C21.8925341,0.0963744681 26.0999626,5.80203404 26.0999626,13.3228 C26.0999626,20.6624596 21.352578,26.6810128 12.8873033,26.6810128 C4.42528132,26.6810128 0.220292308,20.9777787 0.220292308,13.4529702 C0.220292308,6.11897021 4.96523736,0.0963744681 13.4288857,0.0963744681" id="Fill-6" fill="#838383" mask="url(#mask-2)"></path>
                    </g>
                    <path d="M109.977011,21.332634 L117.913714,21.1685064 C117.954374,17.6741234 117.395714,12.6807617 114.538176,12.6807617 C111.664374,12.6807617 110.046945,17.4008468 109.977011,21.332634 M102.093978,24.5319106 C102.085033,17.5762936 106.50389,11.0289745 115.230198,11.0289745 C122.326879,11.0289745 125.715429,16.2600383 125.753648,23.1008468 L109.920088,23.1008468 C109.74444,29.311017 112.90611,33.8734426 118.959473,33.8734426 C121.621846,33.8734426 123.057121,33.2169319 124.667231,31.9896128 L125.408044,32.879783 C123.654,35.2980383 119.988154,37.5934 115.122044,37.5934 C107.494352,37.5934 102.09967,32.2273149 102.093978,24.5319106" id="Fill-9" fill="#FFFFFF"></path>
                    <path d="M145.817163,12.3842809 C143.933822,11.523217 141.121009,11.0090043 138.168327,11.0090043 C131.800262,11.0090043 127.937624,14.7200681 127.937624,19.048834 C127.937624,23.5093872 130.84558,25.2662809 134.853778,26.686834 C139.1718,28.2189617 140.310262,29.4123234 140.310262,31.393983 C140.310262,33.4395149 138.800987,35.3540681 136.096327,35.3540681 C132.898064,35.3540681 130.490218,33.4880255 128.636152,28.3386213 L127.338305,28.6757702 L127.567624,36.0364511 C129.674591,36.8845787 133.271316,37.5936426 136.511053,37.5936426 C143.253998,37.5936426 147.351646,34.3256426 147.351646,29.0056426 C147.351646,25.4393021 145.600855,23.4867489 141.177932,21.783217 C136.398833,19.9406213 134.743998,18.7836426 134.743998,16.5812596 C134.743998,14.3618979 136.215053,12.8410894 138.26347,12.8410894 C141.328371,12.8410894 143.42558,14.7330043 144.803119,19.1757702 L146.100965,18.8442809 L145.817163,12.3842809" id="Fill-11" fill="#838383"></path>
                    <path d="M74.2071187,11.7204128 C71.3520198,10.0217319 66.1451846,10.827817 63.5104593,16.8568809 L63.6332505,10.9903277 L52.3502835,13.1619872 L52.3502835,14.1750511 L53.4554044,14.3173489 C55.0321736,14.5364553 55.6396242,15.4565404 55.825844,17.548966 C56.1836462,21.5632213 56.1283495,28.7427957 55.825844,32.1983702 C55.6396242,34.2956468 55.0321736,35.2133064 53.4554044,35.4299872 L52.3502835,35.5690511 L52.3502835,36.9920298 L68.0634923,36.9920298 L68.0634923,35.5690511 L66.0167011,35.4299872 C64.4374923,35.2133064 63.8276022,34.2956468 63.6421956,32.1983702 C63.3624593,29.024966 63.2965912,22.7145404 63.565756,18.5959872 C64.322833,17.3484553 68.0122615,16.3531787 71.4406571,18.6436894 L74.2071187,11.7204128" id="Fill-13" fill="#FFFFFF"></path>
                    <g id="Group-17" transform="translate(72.373626, 0.402153)" fill="#FFFFFF">
                        <path d="M13.4315692,35.4070255 C12.7883385,35.4070255 11.9564484,35.3011106 11.4994374,35.217834 C11.3197231,32.7995787 11.2115692,22.8274085 11.2221407,14.1189404 C12.2630198,13.7704723 12.9599209,13.6888128 13.8674374,13.6888128 C17.5861407,13.6888128 19.6711516,17.9528979 19.6792835,23.3448553 C19.6939209,30.2010255 17.1161187,35.4070255 13.4315692,35.4070255 M17.3722725,10.8937915 C15.0400527,10.8937915 13.1689099,11.5163447 11.2262066,12.4614936 C11.2457231,6.98868511 11.3091516,2.21200426 11.4465802,0.4066 L0.122953846,2.5798766 L0.122953846,3.59374894 L1.22563516,3.73281277 C2.80484396,3.95111064 3.41229451,4.87038723 3.59688791,6.96362128 C3.95631648,10.9794936 3.90101978,32.5303447 3.59688791,35.9859191 C6.64633846,36.6650681 9.94543736,37.1914085 13.2494154,37.1914085 C22.2343165,37.1914085 27.6411956,31.6700894 27.6411956,22.9349404 C27.6411956,15.9259617 23.2516132,10.8937915 17.3722725,10.8937915" id="Fill-15"></path>
                    </g>
                    <path d="M29.7765429,1.60610638 L8.1318678e-05,1.60610638 L8.1318678e-05,3.02746809 L1.58335604,3.24091489 C3.85621319,3.57159574 4.72794945,4.97193617 4.99467473,8.15908511 C5.50698242,14.267383 5.43704835,25.1911702 4.99467473,30.4448723 C4.72794945,33.6287872 3.85621319,35.0258936 1.58335604,35.3565745 L8.1318678e-05,35.5692128 L8.1318678e-05,36.9938085 L19.1368066,36.9938085 L19.1368066,35.5692128 L17.1266088,35.3565745 C14.8529385,35.0258936 13.9812022,33.6287872 13.7169165,30.4448723 C13.5323231,28.2691702 13.414411,24.6122766 13.3737516,20.3150426 L17.3193341,20.4427872 C19.9516198,20.5268723 21.0567407,22.4640638 21.6853341,25.3383191 L23.1604549,25.3383191 L23.1604549,13.3650851 L21.6853341,13.3650851 C21.0567407,16.2369149 19.9516198,18.1781489 17.3193341,18.262234 L13.3631802,18.3875532 C13.3339055,12.7312128 13.4420593,7.29802128 13.7169165,4.03487234 L19.5962571,4.03487234 C24.1801912,4.03487234 26.6311363,6.93014894 28.1745648,12.0472128 L29.9391802,11.5637234 L29.7765429,1.60610638" id="Fill-18" fill="#FFFFFF"></path>
                    <g id="Group-22" transform="translate(26.021978, 10.912791)">
                        <mask id="mask-4" fill="white">
                            <use xlink:href="#path-3"></use>
                        </mask>
                        <g id="Clip-21"></g>
                        <path d="M12.990578,1.72714043 C9.25073187,1.72714043 8.20334725,6.75931064 8.20334725,13.3939489 C8.20334725,19.8418213 9.85818242,25.0478213 13.3296769,25.0478213 C17.0687099,25.0478213 18.1144681,20.0229277 18.1144681,13.3939489 C18.1144681,6.94041702 16.459633,1.72714043 12.990578,1.72714043 M13.4288857,0.0963744681 C21.8925341,0.0963744681 26.0999626,5.80203404 26.0999626,13.3228 C26.0999626,20.6624596 21.352578,26.6810128 12.8873033,26.6810128 C4.42528132,26.6810128 0.220292308,20.9777787 0.220292308,13.4529702 C0.220292308,6.11897021 4.96523736,0.0963744681 13.4288857,0.0963744681" id="Fill-20" fill="#FFFFFF" mask="url(#mask-4)"></path>
                    </g>
                    <path d="M109.977011,21.332634 L117.913714,21.1685064 C117.954374,17.6741234 117.395714,12.6807617 114.538176,12.6807617 C111.664374,12.6807617 110.046945,17.4008468 109.977011,21.332634 M102.093978,24.5319106 C102.085033,17.5762936 106.50389,11.0289745 115.230198,11.0289745 C122.326879,11.0289745 125.715429,16.2600383 125.753648,23.1008468 L109.920088,23.1008468 C109.74444,29.311017 112.90611,33.8734426 118.959473,33.8734426 C121.621846,33.8734426 123.057121,33.2169319 124.667231,31.9896128 L125.408044,32.879783 C123.654,35.2980383 119.988154,37.5934 115.122044,37.5934 C107.494352,37.5934 102.09967,32.2273149 102.093978,24.5319106" id="Fill-23" fill="#FFFFFF"></path>
                    <path d="M145.817163,12.3842809 C143.933822,11.523217 141.121009,11.0090043 138.168327,11.0090043 C131.800262,11.0090043 127.937624,14.7200681 127.937624,19.048834 C127.937624,23.5093872 130.84558,25.2662809 134.853778,26.686834 C139.1718,28.2189617 140.310262,29.4123234 140.310262,31.393983 C140.310262,33.4395149 138.800987,35.3540681 136.096327,35.3540681 C132.898064,35.3540681 130.490218,33.4880255 128.636152,28.3386213 L127.338305,28.6757702 L127.567624,36.0364511 C129.674591,36.8845787 133.271316,37.5936426 136.511053,37.5936426 C143.253998,37.5936426 147.351646,34.3256426 147.351646,29.0056426 C147.351646,25.4393021 145.600855,23.4867489 141.177932,21.783217 C136.398833,19.9406213 134.743998,18.7836426 134.743998,16.5812596 C134.743998,14.3618979 136.215053,12.8410894 138.26347,12.8410894 C141.328371,12.8410894 143.42558,14.7330043 144.803119,19.1757702 L146.100965,18.8442809 L145.817163,12.3842809" id="Fill-25" fill="#FFFFFF"></path>
                    <path d="M74.2071187,11.7204128 C71.3520198,10.0217319 66.1451846,10.827817 63.5104593,16.8568809 L63.6332505,10.9903277 L52.3502835,13.1619872 L52.3502835,14.1750511 L53.4554044,14.3173489 C55.0321736,14.5364553 55.6396242,15.4565404 55.825844,17.548966 C56.1836462,21.5632213 56.1283495,28.7427957 55.825844,32.1983702 C55.6396242,34.2956468 55.0321736,35.2133064 53.4554044,35.4299872 L52.3502835,35.5690511 L52.3502835,36.9920298 L68.0634923,36.9920298 L68.0634923,35.5690511 L66.0167011,35.4299872 C64.4374923,35.2133064 63.8276022,34.2956468 63.6421956,32.1983702 C63.3624593,29.024966 63.2965912,22.7145404 63.565756,18.5959872 C64.322833,17.3484553 68.0122615,16.3531787 71.4406571,18.6436894 L74.2071187,11.7204128" id="Fill-27" fill="#FFFFFF"></path>
                </g>
            </g>
        </g>
    </g>
</svg>