<?xml version="1.0" encoding="UTF-8" standalone="no"?>
<svg width="148px" height="31px" viewBox="0 0 148 31" version="1.1" xmlns="http://www.w3.org/2000/svg" xmlns:xlink="http://www.w3.org/1999/xlink">
    <!-- Generator: Sketch 40 (33762) - http://www.bohemiancoding.com/sketch -->
    <title>Group 6</title>
    <desc>Created with Sketch.</desc>
    <defs></defs>
    <g id="Welcome" stroke="none" stroke-width="1" fill="none" fill-rule="evenodd">
        <g id="Quill-Homepage" transform="translate(-158.000000, -6975.000000)">
            <g id="Group-6" transform="translate(145.000000, 6956.000000)">
                <rect id="Rectangle-2-Copy-4" x="0" y="0" width="172.264171" height="69.593333"></rect>
                <g id="bmg_logo" transform="translate(13.101463, 19.148293)" stroke="#C9C9C9" stroke-width="0.2" fill="#C9C9C9">
                    <path d="M45.9682436,24.9759737 C45.9682436,23.6186975 45.8962275,23.4740948 45.2516578,23.2608887 C45.1091578,23.2608887 44.8221148,23.1889699 44.6788487,23.1889699 C44.6073434,23.1889699 44.5363488,23.1889699 44.5363488,23.116796 C44.5363488,23.0458973 44.6073434,22.9739785 44.8221148,22.9739785 C45.5376792,22.9739785 46.612558,23.0458973 46.6835526,23.0458973 C46.7553134,23.0458973 47.8291707,22.9739785 48.3304744,22.9739785 C48.5457566,22.9739785 48.6177727,23.0458973 48.6177727,23.116796 C48.6177727,23.1889699 48.5457566,23.1889699 48.4734851,23.1889699 C48.3304744,23.1889699 48.258969,23.2608887 48.0444529,23.2608887 C47.6146546,23.3317874 47.4711331,23.6186975 47.4711331,24.2608661 C47.3993724,24.7609824 47.3993724,25.2628838 47.3993724,25.9777364 L47.3993724,27.9075577 C47.3993724,28.6224103 47.3993724,28.6945841 47.1848563,28.8374016 C46.1104882,29.4094367 44.6073434,29.5517441 43.6754753,29.5517441 C42.3871019,29.5517441 40.0248712,29.4094367 38.1626672,27.7647402 C37.0890653,26.8354064 36.1582187,25.0478925 36.1582187,22.9020597 C36.1582187,20.2571308 37.4471029,18.3260343 38.9512692,17.3961904 C40.4551802,16.396213 42.1015912,16.3242942 43.39022,16.3242942 C44.4643327,16.3242942 45.6099507,16.5390305 45.9682436,16.6109493 C46.3257705,16.6813379 46.8988349,16.7535117 47.3291439,16.7535117 C47.4711331,16.7535117 47.5431493,16.8241554 47.5431493,16.8963292 C47.5431493,17.1110655 47.3993724,17.6111818 47.3993724,19.328052 C47.3993724,19.5422783 47.3291439,19.6850958 47.2568724,19.6850958 C47.1848563,19.6850958 47.1138617,19.5422783 47.1138617,19.3981856 C47.1138617,19.1849795 47.0418456,18.6833331 46.7553134,18.2553907 C46.3257705,17.6111818 44.9646148,16.8963292 42.8174109,16.8963292 C41.8145482,16.8963292 40.5259195,17.0391467 39.2370353,18.0403993 C38.3069548,18.8274257 37.5898582,20.3280295 37.5898582,22.3300247 C37.5898582,24.6905938 38.8082585,26.4775976 39.3803014,27.0498877 C40.6691856,28.3367753 42.2440912,28.8374016 43.7477468,28.8374016 C44.3923165,28.8374016 45.2516578,28.7665029 45.6809453,28.4795928 C45.8962275,28.3367753 45.9682436,28.1944679 45.9682436,27.9075577 L45.9682436,24.9759737" id="Fill-1"></path>
                    <path d="M53.9158093,18.6833331 C54.05882,18.2553907 54.1308361,18.1832168 54.2018307,18.1832168 C54.3445861,18.111298 54.3445861,18.1832168 54.5601237,18.6833331 C54.774129,19.1849795 56.9938598,25.19071 57.9249617,27.4074415 C58.4262654,28.6945841 58.7845583,28.9093204 59.1428513,29.0516278 C59.357112,29.1238017 59.5718834,29.1238017 59.7148942,29.1238017 C59.7863995,29.1238017 59.8591818,29.1238017 59.8591818,29.1944453 C59.8591818,29.2666192 59.7148942,29.338538 59.5718834,29.338538 C59.357112,29.338538 58.2832547,29.338538 57.2811581,29.2666192 C56.9938598,29.2666192 56.8511044,29.2666192 56.8511044,29.1944453 C56.8511044,29.1238017 56.9223544,29.1238017 56.9938598,29.1238017 C57.066642,29.0516278 57.1376366,28.9093204 57.066642,28.6945841 L55.705231,25.1187912 C55.705231,25.0478925 55.6337256,25.0478925 55.562731,25.0478925 L52.483659,25.0478925 C52.4118983,25.0478925 52.4118983,25.1187912 52.3403929,25.19071 L51.4813071,27.7647402 C51.409291,28.1225491 51.3382964,28.4094592 51.3382964,28.6945841 C51.3382964,28.979709 51.6238071,29.1238017 51.8380678,29.1238017 L51.9826107,29.1238017 C52.1256215,29.1238017 52.1256215,29.1238017 52.1256215,29.1944453 C52.1256215,29.2666192 52.0536054,29.338538 51.9111054,29.338538 C51.5535786,29.338538 50.9800034,29.2666192 50.8364819,29.2666192 C50.6219659,29.2666192 49.8343854,29.338538 49.190071,29.338538 C48.9755549,29.338538 48.9032834,29.2666192 48.9032834,29.1944453 C48.9032834,29.1238017 48.9755549,29.1238017 49.0457834,29.1238017 L49.4760924,29.1238017 C50.1206622,28.979709 50.4071944,28.4795928 50.693982,27.7647402 L53.9158093,18.6833331 L53.9158093,18.6833331 Z M55.4197203,24.5477763 C55.4907149,24.5477763 55.4907149,24.4758575 55.4907149,24.4039387 L54.1308361,20.4721221 C54.05882,20.2571308 53.9878254,20.2571308 53.9158093,20.4721221 L52.6269251,24.4039387 C52.6269251,24.4758575 52.6269251,24.5477763 52.6979197,24.5477763 L55.4197203,24.5477763 L55.4197203,24.5477763 Z" id="Fill-2"></path>
                    <path d="M63.653052,25.1187912 C63.653052,26.4775976 63.653052,27.6224328 63.7250681,28.2648565 C63.7963181,28.6945841 63.8683342,28.979709 64.2978771,29.0516278 C64.5126486,29.1238017 64.7989254,29.1238017 64.9419362,29.1238017 C65.0139523,29.1238017 65.0849469,29.1944453 65.0849469,29.1944453 C65.0849469,29.2666192 65.0139523,29.338538 64.7989254,29.338538 C64.0831057,29.338538 63.1520037,29.2666192 63.0794768,29.2666192 C63.0095037,29.2666192 62.0784018,29.338538 61.6480927,29.338538 C61.5055927,29.338538 61.4333213,29.2666192 61.4333213,29.1944453 C61.4333213,29.1944453 61.4333213,29.1238017 61.5770981,29.1238017 C61.6480927,29.1238017 61.8628642,29.1238017 62.0063857,29.0516278 C62.2924071,28.979709 62.3644232,28.6945841 62.3644232,28.2648565 C62.4364393,27.6224328 62.4364393,26.4775976 62.4364393,25.1187912 L62.4364393,18.9702432 L60.3592086,18.9702432 C59.4288727,19.0408869 59.1428513,19.1130607 58.8552976,19.4701044 C58.7127976,19.6850958 58.7127976,19.8279132 58.6410369,19.9000871 C58.5697869,20.0421395 58.5697869,20.0421395 58.4977708,20.0421395 C58.4262654,20.0421395 58.4262654,20.0421395 58.4262654,19.9000871 C58.4262654,19.7559944 58.7127976,18.5410256 58.7127976,18.3982082 C58.7845583,18.3260343 58.8552976,18.1832168 58.8552976,18.1832168 C58.9995852,18.111298 59.1428513,18.3260343 59.5008888,18.3260343 C59.9301764,18.3982082 60.5024747,18.3982082 60.6459961,18.3982082 L66.0165596,18.3982082 C66.5178633,18.3982082 66.8036293,18.3260343 67.0186562,18.3260343 C67.2331723,18.2553907 67.3764384,18.2553907 67.4484545,18.2553907 C67.5194491,18.2553907 67.5194491,18.3260343 67.5194491,18.3982082 C67.5194491,18.8274257 67.4484545,19.8279132 67.4484545,20.0421395 C67.4484545,20.185212 67.4484545,20.185212 67.3764384,20.185212 C67.3054438,20.185212 67.3054438,20.185212 67.2331723,19.9702207 L67.2331723,19.8279132 C67.1611561,19.3981856 66.8753901,19.0408869 65.5147452,18.9702432 L63.653052,18.9702432 L63.653052,25.1187912" id="Fill-3"></path>
                    <path d="M70.2404835,22.544761 L70.2404835,19.3981856 C70.1689781,18.8980694 70.096962,18.6833331 69.5961691,18.6129445 C69.5246637,18.5410256 69.2383869,18.5410256 69.0953762,18.5410256 C69.0953762,18.5410256 69.0233601,18.5410256 69.0233601,18.4683417 C69.0233601,18.3982082 69.0953762,18.3260343 69.2383869,18.3260343 C69.8827013,18.3260343 70.8132925,18.3982082 70.8847979,18.3982082 L74.1794075,18.3982082 C74.3934128,18.3982082 74.6802004,18.3260343 74.7517057,18.3260343 C74.822445,18.3260343 74.8947165,18.2553907 74.9667326,18.2553907 C75.0377272,18.2553907 75.0377272,18.3260343 75.0377272,18.3982082 C75.0377272,18.4683417 74.9667326,18.6129445 74.8947165,19.0408869 C74.8947165,19.1849795 74.8947165,19.8279132 74.822445,19.9702207 C74.822445,20.0421395 74.822445,20.185212 74.7517057,20.185212 C74.6802004,20.185212 74.6084396,20.1148234 74.6084396,19.9702207 C74.6084396,19.9000871 74.6084396,19.6131769 74.5369343,19.4701044 C74.4649182,19.1849795 74.3221628,19.0408869 73.5350931,18.9702432 C73.2477947,18.8980694 71.7443945,18.8980694 71.5298784,18.8980694 C71.5298784,18.8980694 71.4576069,18.9702432 71.4576069,19.0408869 L71.4576069,23.0458973 C71.4576069,23.1889699 71.4576069,23.1889699 71.5298784,23.1889699 L73.8206038,23.1889699 C74.1794075,23.116796 74.3934128,23.116796 74.5369343,22.9739785 C74.6084396,22.8316711 74.6802004,22.7589872 74.7517057,22.7589872 C74.7517057,22.7589872 74.822445,22.8316711 74.822445,22.9020597 C74.822445,22.9739785 74.7517057,23.2608887 74.6802004,23.6888311 C74.6802004,23.9757412 74.6084396,24.5477763 74.6084396,24.618675 C74.6084396,24.7609824 74.6084396,24.9055851 74.5369343,24.9055851 C74.4649182,24.9055851 74.3934128,24.9055851 74.3934128,24.7609824 L74.3934128,24.33304 C74.3221628,24.1185587 74.1794075,23.8316486 73.6058323,23.8316486 C73.2477947,23.7610049 71.8156445,23.7610049 71.600873,23.7610049 C71.5298784,23.7610049 71.4576069,23.7610049 71.4576069,23.8316486 L71.4576069,25.1187912 L71.4576069,27.6224328 C71.5298784,28.6224103 71.7443945,28.7665029 73.1042733,28.7665029 C73.5350931,28.7665029 74.107136,28.7665029 74.5369343,28.6224103 C74.8947165,28.4795928 75.0377272,28.1944679 75.181504,27.5497489 C75.181504,27.4074415 75.181504,27.3355227 75.2530094,27.3355227 C75.3960201,27.3355227 75.3960201,27.4796153 75.3960201,27.5497489 C75.3960201,27.6928214 75.2530094,28.6945841 75.181504,28.979709 C75.1092325,29.338538 74.9667326,29.338538 74.3934128,29.338538 C72.2462089,29.338538 71.2420693,29.2666192 70.8847979,29.2666192 L70.3119889,29.2666192 C70.0259674,29.338538 69.6676745,29.338538 69.4536691,29.338538 C69.310403,29.338538 69.2383869,29.2666192 69.2383869,29.1944453 C69.2383869,29.1944453 69.2383869,29.1238017 69.3811423,29.1238017 C69.4536691,29.1238017 69.6676745,29.1238017 69.811196,29.0516278 C70.096962,28.979709 70.1689781,28.6945841 70.1689781,28.2648565 C70.2404835,27.6224328 70.2404835,26.4775976 70.2404835,25.1187912 L70.2404835,22.544761" id="Fill-4"></path>
                    <path d="M77.9735331,29.1238017 C77.830267,29.0516278 77.7592723,28.979709 77.7592723,28.5515116 C77.7592723,27.836659 77.830267,27.264624 77.830267,27.0498877 C77.9017723,26.9075803 77.9017723,26.8354064 77.9735331,26.8354064 C78.0455492,26.8354064 78.0455492,26.8354064 78.0455492,26.9777139 C78.0455492,27.1218065 78.0455492,27.3355227 78.1167992,27.4796153 C78.3315706,28.5515116 79.2621618,28.979709 80.2652799,28.979709 C81.6256694,28.979709 82.2699838,27.9794765 82.2699838,27.0498877 C82.2699838,26.04787 81.8404409,25.4776201 80.6225514,24.4758575 L79.9784923,23.9038224 C78.4748367,22.6166798 78.1167992,21.7590097 78.1167992,20.7572471 C78.1167992,19.1849795 79.2621618,18.1832168 81.1243658,18.1832168 C81.6256694,18.111298 82.0547016,18.1832168 82.4129945,18.3260343 C82.699016,18.3260343 82.8427929,18.3982082 82.9142982,18.3982082 C83.0570536,18.3982082 83.0570536,18.3982082 83.0570536,18.4683417 L83.0570536,19.9702207 C83.0570536,20.2571308 82.9852928,20.3280295 82.9142982,20.3280295 C82.8427929,20.3280295 82.8427929,20.2571308 82.7705214,20.185212 C82.7705214,19.9702207 82.699016,19.6131769 82.6282768,19.3981856 C82.5560053,19.2553681 82.1269731,18.6833331 80.8380889,18.6833331 C79.8354816,18.6833331 79.0481565,19.2553681 79.0481565,20.3280295 C79.0481565,21.1869747 79.4771887,21.6870909 80.8380889,22.7589872 L81.1948496,23.116796 C82.9142982,24.4758575 83.2725912,25.3335275 83.2725912,26.4775976 C83.2725912,27.1218065 83.0570536,28.1944679 82.0547016,28.9093204 C81.4818926,29.338538 80.6945675,29.5517441 79.9064762,29.5517441 C79.2621618,29.5517441 78.6178474,29.4094367 77.9735331,29.1238017" id="Fill-5"></path>
                    <path d="M91.4339068,22.4019435 C91.3631675,22.6166798 91.2906407,22.9739785 91.1483961,23.3317874 C90.7908692,24.6905938 90.4325763,25.9777364 90.0742834,27.3355227 C89.7159904,28.4094592 89.3579529,29.0516278 89.1439475,29.2666192 C89.0001707,29.4094367 88.4993778,29.8386542 87.7830473,29.8386542 C87.2817436,29.8386542 87.0672275,29.4813555 87.0672275,29.2666192 C87.0672275,28.979709 87.2097275,28.9093204 87.2817436,28.8374016 C87.4247543,28.6945841 87.4960043,28.7665029 87.6400365,28.9093204 C87.7830473,29.1944453 88.0688133,29.4094367 88.2843509,29.4094367 C88.4993778,29.4094367 88.7853992,29.1944453 89.071676,28.4094592 C89.6444851,26.4056788 90.0020119,24.33304 90.575587,22.4019435 L89.6444851,22.4019435 C89.5019851,22.3300247 89.5729797,22.1168186 89.7159904,21.9722158 L90.7185978,21.9722158 C91.0048746,20.9000645 91.2906407,19.9702207 92.0074819,19.1849795 C92.5802909,18.4683417 93.2966214,18.1832168 94.0126966,18.1832168 C94.5132341,18.1832168 94.9430324,18.4683417 94.9430324,18.9702432 C94.9430324,19.328052 94.657011,19.6850958 94.4417287,19.6850958 C94.3704788,19.6850958 94.298718,19.5422783 94.298718,19.4701044 C94.2267019,18.7552519 93.8689197,18.5410256 93.5823875,18.5410256 C93.2246053,18.5410256 92.9378177,18.8274257 92.6517963,19.1849795 C92.079498,19.9702207 91.8642158,20.9719834 91.5781944,21.9722158 L93.0100892,21.9722158 C93.0813392,22.1168186 93.0813392,22.259126 92.8668231,22.4019435 L91.4339068,22.4019435" id="Fill-6"></path>
                    <path d="M98.3078705,23.3317874 C98.2371312,23.9757412 97.8788383,25.1187912 97.0192417,25.9777364 C96.3036773,26.7645077 95.6593629,26.8354064 95.3728307,26.8354064 C94.5855056,26.8354064 94.1557073,26.2628613 94.1557073,25.2628838 C94.2267019,24.5477763 94.657011,23.3317874 95.4443361,22.6166798 C96.0886505,21.9722158 96.5899541,21.8299084 97.0912578,21.8299084 C97.9503436,21.8299084 98.3078705,22.4738623 98.3078705,23.3317874 L98.3078705,23.3317874 Z M96.1596451,22.7589872 C95.4443361,23.6888311 95.0153039,25.1187912 94.9430324,25.6908263 C94.9430324,26.1205539 95.0860431,26.4775976 95.4443361,26.4775976 C95.7306129,26.4775976 96.0171451,26.3347801 96.3749273,25.8349189 C96.8767417,25.19071 97.4495507,23.6186975 97.4495507,22.9739785 C97.5208007,22.6166798 97.4495507,22.1869521 97.0192417,22.1869521 C96.8042148,22.1869521 96.5189595,22.259126 96.1596451,22.7589872 L96.1596451,22.7589872 Z" id="Fill-7"></path>
                    <path d="M101.172682,25.6204376 C101.029671,25.9055626 101.100666,26.04787 101.243676,26.04787 C101.387198,26.04787 101.888757,25.6908263 102.46131,25.0478925 C103.535679,23.9757412 104.179227,22.6166798 104.53752,21.9018272 C104.824818,21.8299084 105.109818,21.9722158 105.109818,22.1168186 C105.038568,22.4019435 104.251498,24.4039387 103.749939,25.7627451 C103.678689,25.9777364 103.678689,26.04787 103.821189,26.04787 C104.036216,26.04787 104.68053,25.5480088 104.967318,25.19071 C105.038568,25.1187912 105.1826,25.19071 105.1826,25.3335275 C104.895813,25.9055626 103.749939,26.8354064 103.10537,26.8354064 C102.962614,26.8354064 102.747587,26.6206701 102.819093,26.4056788 L103.607184,24.2608661 L103.607184,24.1889473 C102.747587,25.3335275 101.315437,26.8354064 100.671123,26.8354064 C100.170074,26.8354064 100.098569,26.3347801 100.313085,25.8349189 L101.387198,22.9020597 C101.458959,22.6888536 101.458959,22.6166798 101.387198,22.6166798 C101.172682,22.6166798 100.598851,23.116796 100.313085,23.4037062 C100.170074,23.4037062 100.098569,23.3317874 100.098569,23.2608887 C100.385357,22.7589872 101.601969,21.8299084 102.103273,21.8299084 C102.246794,21.8299084 102.53205,21.9722158 102.46131,22.1869521 L101.172682,25.6204376" id="Fill-8"></path>
                    <path d="M108.475933,24.4039387 L108.475933,24.4039387 C109.335274,23.116796 110.480382,21.8299084 111.411483,21.8299084 C111.841282,21.8299084 112.055798,22.0441347 112.055798,22.4738623 C112.055798,22.6166798 111.984292,23.0458973 111.841282,23.2608887 C111.626766,23.9038224 110.838164,25.8349189 110.767169,25.9055626 C110.694642,26.04787 110.694642,26.1205539 110.767169,26.1205539 C110.982196,26.1205539 111.554494,25.7627451 111.912787,25.3335275 C112.055798,25.3335275 112.055798,25.4057013 112.055798,25.4776201 C111.626766,26.2628613 110.694642,26.8354064 110.050328,26.8354064 C109.979844,26.8354064 109.764562,26.6925889 109.764562,26.5497714 C109.764562,26.4056788 109.836578,26.3347801 110.050328,25.7627451 C110.337371,25.19071 110.767169,23.9757412 110.982196,23.4037062 C111.125462,23.1889699 111.268217,22.7589872 111.268217,22.544761 C111.268217,22.4019435 111.268217,22.259126 111.053191,22.259126 C110.767169,22.259126 110.122855,22.8316711 109.47854,23.6888311 C108.833715,24.4758575 108.332667,25.4057013 107.688352,26.6925889 C107.616336,26.7645077 107.544576,26.8354064 107.473326,26.8354064 C107.33006,26.8354064 106.972022,26.7645077 107.115543,26.5497714 L108.475933,22.7589872 C108.547949,22.6166798 108.547949,22.4738623 108.404172,22.4738623 C108.189401,22.4738623 107.759858,22.7589872 107.402331,23.116796 C107.25932,23.116796 107.187049,23.0458973 107.187049,22.9020597 C107.688352,22.3300247 108.404172,21.8299084 108.977237,21.8299084 C109.263769,21.8299084 109.406013,22.0441347 109.263769,22.3300247 L108.475933,24.4039387" id="Fill-9"></path>
                    <path d="M118.858001,19.7559944 C119.143767,19.0408869 119.143767,18.8274257 119.000756,18.7552519 L118.714735,18.5410256 C118.714735,18.5410256 118.714735,18.4683417 118.786495,18.3982082 C119.000756,18.3260343 119.645071,18.1832168 120.146885,18.1832168 L120.218646,18.2553907 C120.003108,18.8980694 119.789358,19.328052 119.431065,20.3280295 C118.285447,23.6186975 117.712127,25.4776201 117.641133,25.8349189 C117.569372,25.9777364 117.569372,26.1205539 117.712127,26.1205539 C117.927154,26.1205539 118.643229,25.5480088 119.000756,25.0478925 C119.072772,25.0478925 119.143767,25.1187912 119.143767,25.19071 C118.858001,25.8349189 117.784144,26.8354064 117.211845,26.8354064 C116.925058,26.8354064 116.781536,26.6206701 116.781536,26.4775976 C116.781536,26.3347801 116.852531,26.1205539 116.925058,25.7627451 L117.354345,24.618675 L117.354345,24.5477763 C116.494749,25.6908263 115.635663,26.8354064 114.4903,26.8354064 C114.061013,26.8354064 113.774736,26.4775976 113.774736,25.9777364 C113.774736,25.1187912 114.419305,23.6888311 115.349641,22.9020597 C116.137222,22.1168186 116.852531,21.8299084 117.425851,21.8299084 C117.641133,21.8299084 117.927154,21.9018272 118.070165,22.1869521 L118.858001,19.7559944 L118.858001,19.7559944 Z M116.566254,22.6888536 C116.065716,23.116796 115.20612,24.2608661 114.848338,24.9759737 C114.4903,25.7627451 114.4903,25.9777364 114.4903,26.1205539 C114.4903,26.2628613 114.633822,26.4056788 114.705327,26.4056788 C114.919332,26.4056788 115.492907,26.1924727 116.280488,25.3335275 C117.211845,24.4039387 117.569372,23.6888311 117.712127,23.0458973 C117.855138,22.544761 117.712127,22.1869521 117.425851,22.1869521 C117.139829,22.1869521 116.852531,22.4019435 116.566254,22.6888536 L116.566254,22.6888536 Z" id="Fill-10"></path>
                    <path d="M124.944129,21.5440184 C125.086884,21.4720996 125.445432,21.5440184 125.517704,21.6870909 C125.302422,22.1869521 124.299814,24.7609824 123.941521,25.9055626 C123.869505,26.04787 123.869505,26.1205539 124.013793,26.1205539 C124.227798,26.1205539 124.51382,25.9777364 125.230916,25.3335275 C125.302422,25.3335275 125.373416,25.4057013 125.373416,25.4776201 C124.873389,26.1924727 124.013793,26.8354064 123.369478,26.8354064 C123.153941,26.8354064 123.082691,26.6206701 123.082691,26.4775976 C123.082691,26.4056788 123.082691,26.3347801 123.153941,26.04787 L123.583995,24.9759737 L123.511978,24.9759737 C122.724909,25.9777364 121.507274,26.8354064 120.934465,26.8354064 C120.647423,26.8354064 120.432651,26.4775976 120.432651,26.1924727 C120.432651,25.9055626 120.647423,24.9055851 121.435769,23.8316486 C122.008578,23.0458973 122.509882,22.6166798 123.011185,22.3300247 C123.440473,22.0441347 123.798511,21.9722158 124.084787,21.9722158 C124.227798,21.9722158 124.299814,22.0441347 124.37132,22.0441347 C124.37132,22.0441347 124.51382,22.1869521 124.586091,22.3300247 L124.944129,21.5440184 L124.944129,21.5440184 Z M122.867409,22.9020597 C122.151589,23.5460136 121.364008,25.1187912 121.364008,25.9777364 C121.364008,26.1205539 121.507274,26.1924727 121.57878,26.1924727 C121.722301,26.1924727 122.080594,26.04787 122.724909,25.4057013 C123.583995,24.5477763 124.084787,23.5460136 124.299814,22.8316711 C124.227798,22.6166798 124.013793,22.4019435 123.727005,22.4019435 C123.440473,22.4019435 123.225191,22.544761 122.867409,22.9020597 L122.867409,22.9020597 Z" id="Fill-11"></path>
                    <path d="M129.240069,22.544761 L128.165701,25.6908263 C128.165701,25.9055626 128.165701,25.9777364 128.308967,25.9777364 C128.452744,25.9777364 129.240069,25.3335275 129.597851,24.9055851 C129.741372,24.9055851 129.812878,24.9759737 129.812878,25.1187912 C129.097058,26.1205539 128.022945,26.8354064 127.521386,26.8354064 C127.379142,26.8354064 127.23562,26.6925889 127.23562,26.4775976 C127.23562,26.3347801 127.23562,26.1924727 127.379142,25.8349189 L128.452744,22.544761 L127.592892,22.544761 C127.521386,22.4019435 127.592892,22.259126 127.664652,22.1869521 L128.668026,22.0441347 L129.311574,20.9000645 C129.383846,20.829931 129.669867,20.829931 129.741372,20.9719834 L129.383846,22.1168186 L130.672219,22.1168186 C130.743214,22.259126 130.672219,22.4738623 130.528953,22.544761 L129.240069,22.544761" id="Fill-12"></path>
                    <path d="M133.178737,22.8316711 C133.249732,22.6888536 133.249732,22.544761 133.178737,22.544761 C133.10621,22.544761 132.748684,22.6888536 132.176385,23.1889699 C132.104369,23.1889699 132.032864,23.116796 132.032864,22.9739785 C132.677178,22.259126 133.60828,21.8299084 133.965807,21.8299084 C134.037312,21.8299084 134.108307,21.9018272 134.181089,21.9018272 C134.252595,22.0441347 134.252595,22.1168186 134.108307,22.4738623 L132.677178,25.8349189 C132.677178,25.9777364 132.605417,26.1205539 132.748684,26.1205539 C132.963966,26.1205539 133.536775,25.6908263 133.965807,25.19071 C134.037312,25.2628838 134.108307,25.3335275 134.108307,25.4057013 C133.965807,25.7627451 132.748684,26.8354064 131.961358,26.8354064 C131.889087,26.8354064 131.817582,26.7645077 131.746076,26.6925889 C131.675082,26.6206701 131.675082,26.5497714 131.675082,26.4056788 L133.178737,22.8316711 L133.178737,22.8316711 Z M134.681627,19.3981856 C134.681627,19.7559944 134.467621,20.185212 134.037312,20.185212 C133.75078,20.185212 133.679019,19.9000871 133.679019,19.6850958 C133.679019,19.4701044 133.823052,18.9702432 134.252595,18.9702432 C134.538616,18.9702432 134.681627,19.1849795 134.681627,19.3981856 L134.681627,19.3981856 Z" id="Fill-13"></path>
                    <path d="M140.338467,23.3317874 C140.338467,23.9757412 139.98094,25.1187912 139.121344,25.9777364 C138.404758,26.7645077 137.760443,26.8354064 137.402917,26.8354064 C136.686841,26.8354064 136.185538,26.2628613 136.256532,25.2628838 C136.329315,24.5477763 136.758347,23.3317874 137.546438,22.6166798 C138.118736,21.9722158 138.691545,21.8299084 139.121344,21.8299084 C139.98094,21.8299084 140.409972,22.4738623 140.338467,23.3317874 L140.338467,23.3317874 Z M138.190242,22.7589872 C137.546438,23.6888311 137.045134,25.1187912 137.045134,25.6908263 C137.045134,26.1205539 137.188145,26.4775976 137.546438,26.4775976 C137.760443,26.4775976 138.047231,26.3347801 138.477029,25.8349189 C138.978333,25.19071 139.478615,23.6186975 139.551142,22.9739785 C139.551142,22.6166798 139.478615,22.1869521 139.049072,22.1869521 C138.835067,22.1869521 138.547768,22.259126 138.190242,22.7589872 L138.190242,22.7589872 Z" id="Fill-14"></path>
                    <path d="M143.560294,24.4039387 L143.560294,24.4039387 C144.419891,23.116796 145.564998,21.8299084 146.424339,21.8299084 C146.925643,21.8299084 147.140415,22.0441347 147.140415,22.4738623 C147.140415,22.6166798 146.996893,23.0458973 146.925643,23.2608887 C146.710616,23.9038224 145.85102,25.8349189 145.85102,25.9055626 C145.77977,26.04787 145.77977,26.1205539 145.85102,26.1205539 C146.066302,26.1205539 146.639622,25.7627451 146.925643,25.3335275 C147.140415,25.3335275 147.140415,25.4057013 147.140415,25.4776201 C146.710616,26.2628613 145.77977,26.8354064 145.135455,26.8354064 C144.9927,26.8354064 144.848923,26.6925889 144.848923,26.5497714 C144.848923,26.4056788 144.848923,26.3347801 145.135455,25.7627451 C145.350993,25.19071 145.77977,23.9757412 146.066302,23.4037062 C146.138318,23.1889699 146.352579,22.7589872 146.352579,22.544761 C146.352579,22.4019435 146.281329,22.259126 146.138318,22.259126 C145.85102,22.259126 145.135455,22.8316711 144.491141,23.6888311 C143.918077,24.4758575 143.417794,25.4057013 142.701464,26.6925889 C142.628937,26.7645077 142.628937,26.8354064 142.486692,26.8354064 C142.343171,26.8354064 142.056383,26.7645077 142.129166,26.5497714 L143.560294,22.7589872 C143.560294,22.6166798 143.560294,22.4738623 143.488789,22.4738623 C143.202257,22.4738623 142.844475,22.7589872 142.415187,23.116796 C142.343171,23.116796 142.271666,23.0458973 142.271666,22.9020597 C142.701464,22.3300247 143.417794,21.8299084 144.062109,21.8299084 C144.276114,21.8299084 144.419891,22.0441347 144.348386,22.3300247 L143.560294,24.4039387" id="Fill-15"></path>
                    <path d="M1.43189488,5.31230058 C1.43189488,2.6668616 1.43189488,2.23764404 1.36038952,1.66560898 C1.36038952,1.09357393 1.21661266,0.807938945 0.644314389,0.664356361 L0.0709946097,0.664356361 C0,0.664356361 0,0.592947616 0,0.521538871 C0,0.450130126 0.0709946097,0.37872138 0.215282216,0.37872138 C1.00260733,0.37872138 2.07672002,0.450130126 2.14720388,0.450130126 C2.50524144,0.450130126 3.15083271,0.37872138 3.93764708,0.37872138 C6.65893686,0.37872138 7.30222975,2.09482654 7.30222975,2.95249658 C7.30222975,4.31155802 6.51567076,5.16948309 5.72834565,6.02766318 C6.94495831,6.38496194 8.5911139,7.60120589 8.5911139,9.60294603 C8.5911139,11.3904599 7.23225664,13.2496376 4.36744538,13.2496376 C3.93764708,13.2496376 2.21921999,13.1777188 2.14720388,13.1777188 L0.500537536,13.1777188 C0.286021449,13.1777188 0.215282216,13.1777188 0.215282216,13.1063101 C0.215282216,13.0354114 0.286021449,12.9627275 0.35829294,12.9627275 C0.500537536,12.9627275 0.715819752,12.9627275 0.858319724,12.8925939 C1.21661266,12.8204201 1.28862878,12.4626112 1.36038952,11.96275 C1.43189488,11.2471324 1.43189488,9.96024479 1.43189488,8.31554837 L1.43189488,5.31230058 L1.43189488,5.31230058 Z M2.79253977,5.6701094 C2.79253977,5.81292689 2.79253977,5.88433563 2.86353438,5.88433563 C3.00628973,5.88433563 3.29333269,5.95574438 3.86614171,5.95574438 C4.7969883,5.95574438 5.08275438,5.88433563 5.44155807,5.52729191 C5.79934026,5.09807434 6.01385634,4.52603929 6.01385634,3.81093171 C6.01385634,2.38122662 5.37005271,0.87934769 3.7941256,0.87934769 C3.58012026,0.87934769 3.22182732,0.87934769 2.93529512,0.950756435 C2.79253977,1.02216518 2.79253977,1.02216518 2.79253977,1.16498267 L2.79253977,5.6701094 L2.79253977,5.6701094 Z M2.79253977,7.45762331 L2.79253977,11.1757236 C2.86353438,11.96275 2.86353438,12.248385 3.3653488,12.4626112 C3.7941256,12.6776026 4.5104561,12.7490113 4.7969883,12.7490113 C5.72834565,12.7490113 7.15998515,12.248385 7.15998515,10.3180536 C7.15998515,9.31731105 6.80194759,7.81543212 5.58405804,6.956997 C5.01175977,6.52828949 4.58196146,6.45637069 4.15292929,6.45637069 C3.93764708,6.38496194 3.07805047,6.38496194 2.86353438,6.38496194 C2.79253977,6.38496194 2.79253977,6.45637069 2.79253977,6.52828949 L2.79253977,7.45762331 L2.79253977,7.45762331 Z" id="Fill-16"></path>
                    <path d="M13.5326452,9.03091098 C13.5326452,10.3894624 13.5326452,11.5335325 13.6036398,12.1769763 C13.6036398,12.53402 13.6759113,12.8925939 14.1049435,12.9627275 C14.3202257,12.9627275 14.6772417,13.0354114 14.7492579,13.0354114 C14.821274,13.0354114 14.8920132,13.0354114 14.8920132,13.1063101 C14.8920132,13.1777188 14.821274,13.1777188 14.6772417,13.1777188 L12.88782,13.1777188 L11.4566913,13.1777188 C11.3134252,13.1777188 11.2414091,13.1777188 11.2414091,13.1063101 C11.2414091,13.0354114 11.3134252,13.0354114 11.3839091,13.0354114 C11.5274305,13.0354114 11.6706966,12.9627275 11.8142181,12.9627275 C12.0997288,12.8925939 12.1720003,12.53402 12.2435057,12.1769763 C12.3147556,11.5335325 12.3147556,10.3894624 12.3147556,9.03091098 L12.3147556,6.45637069 C12.3147556,4.16823047 12.3147556,3.81093171 12.2435057,3.3103054 C12.2435057,2.80967909 12.0997288,2.59545285 11.8142181,2.52404411 C11.5989359,2.45187027 11.4566913,2.45187027 11.3134252,2.45187027 C11.2414091,2.45187027 11.2414091,2.38122662 11.2414091,2.38122662 C11.2414091,2.23764404 11.3134252,2.23764404 11.4566913,2.23764404 C11.8857235,2.23764404 12.8163147,2.30905278 12.88782,2.30905278 C12.9595808,2.30905278 13.8909381,2.23764404 14.3202257,2.23764404 C14.4632364,2.23764404 14.534231,2.23764404 14.534231,2.38122662 C14.534231,2.38122662 14.4632364,2.45187027 14.391731,2.45187027 L14.0339489,2.45187027 C13.6759113,2.52404411 13.5326452,2.80967909 13.5326452,3.3103054 L13.5326452,6.45637069 L13.5326452,9.03091098" id="Fill-17"></path>
                    <path d="M19.6895123,9.03091098 C19.6895123,11.1757236 19.7622945,12.1055675 20.0472944,12.3203038 C20.2625767,12.6056838 20.6206142,12.6776026 21.7659769,12.6776026 C22.4823074,12.6776026 23.1266218,12.6776026 23.4854255,12.248385 C23.6994308,12.0333937 23.8437184,11.6758399 23.8437184,11.3904599 C23.8437184,11.2471324 23.914713,11.1757236 23.9862184,11.1757236 C24.0577238,11.1757236 24.0577238,11.2471324 24.0577238,11.3904599 C24.0577238,11.5335325 23.9862184,12.4626112 23.8437184,12.8925939 C23.7714469,13.1777188 23.6994308,13.2496376 22.9838664,13.2496376 C20.9079126,13.2496376 19.9768106,13.1777188 19.117214,13.1777188 L18.5446603,13.1777188 L17.6850637,13.1777188 C17.5417976,13.1777188 17.4697815,13.1777188 17.4697815,13.1063101 C17.4697815,13.0354114 17.5417976,13.0354114 17.6140691,13.0354114 C17.6850637,13.0354114 17.9000906,12.9627275 18.0431013,12.9627275 C18.330655,12.8925939 18.4008835,12.53402 18.4008835,12.1769763 C18.5446603,11.5335325 18.5446603,10.3894624 18.5446603,9.03091098 L18.5446603,6.45637069 C18.5446603,4.16823047 18.5446603,3.81093171 18.4728996,3.3103054 C18.4728996,2.80967909 18.330655,2.59545285 17.9000906,2.45187027 L17.3992977,2.45187027 C17.3265154,2.45187027 17.2557762,2.38122662 17.2557762,2.38122662 C17.2557762,2.23764404 17.3265154,2.23764404 17.4697815,2.23764404 C18.1153728,2.23764404 19.0457086,2.30905278 19.117214,2.30905278 C19.1887193,2.30905278 20.2625767,2.23764404 20.6928857,2.23764404 C20.8358964,2.23764404 20.9079126,2.23764404 20.9079126,2.38122662 C20.9079126,2.38122662 20.8358964,2.45187027 20.7643911,2.45187027 L20.3345928,2.45187027 C19.9045391,2.52404411 19.7622945,2.80967909 19.7622945,3.3103054 C19.6895123,3.81093171 19.6895123,4.16823047 19.6895123,6.45637069 L19.6895123,9.03091098" id="Fill-18"></path>
                    <path d="M27.7808548,9.03091098 C27.7808548,11.1757236 27.8528709,12.1055675 28.0676423,12.3203038 C28.2826692,12.6056838 28.6404514,12.6776026 29.7860694,12.6776026 C30.5733945,12.6776026 31.2177089,12.6776026 31.5039857,12.248385 C31.7187572,12.0333937 31.8627894,11.6758399 31.9342948,11.3904599 C31.9342948,11.2471324 31.9342948,11.1757236 32.0052894,11.1757236 C32.0773055,11.1757236 32.1493216,11.2471324 32.1493216,11.3904599 C32.1493216,11.5335325 32.0052894,12.4626112 31.9342948,12.8925939 C31.7907733,13.1777188 31.7907733,13.2496376 31.0031928,13.2496376 C28.9264728,13.2496376 27.9951155,13.1777188 27.1365404,13.1777188 L26.5642421,13.1777188 L25.7756401,13.1777188 C25.5616348,13.1777188 25.4901294,13.1777188 25.4901294,13.1063101 C25.4901294,13.0354114 25.5616348,13.0354114 25.6326294,13.0354114 C25.7756401,13.0354114 25.9196723,12.9627275 26.0629384,12.9627275 C26.3489599,12.8925939 26.420976,12.53402 26.4919706,12.1769763 C26.5642421,11.5335325 26.5642421,10.3894624 26.5642421,9.03091098 L26.5642421,6.45637069 C26.5642421,4.16823047 26.5642421,3.81093171 26.4919706,3.3103054 C26.4919706,2.80967909 26.420976,2.59545285 25.9196723,2.45187027 L25.4178579,2.45187027 C25.3463525,2.45187027 25.3463525,2.38122662 25.3463525,2.38122662 C25.3463525,2.23764404 25.4178579,2.23764404 25.5616348,2.23764404 C26.2059491,2.23764404 27.0642689,2.30905278 27.1365404,2.30905278 C27.2085565,2.30905278 28.2826692,2.23764404 28.7124675,2.23764404 C28.8554782,2.23764404 28.9264728,2.23764404 28.9264728,2.38122662 L28.8554782,2.45187027 L28.3528977,2.45187027 C27.9238655,2.52404411 27.8528709,2.80967909 27.7808548,3.3103054 L27.7808548,6.45637069 L27.7808548,9.03091098" id="Fill-19"></path>
                    <path d="M34.7268346,9.38820974 C34.7268346,8.81617468 34.941606,7.74351332 35.8724526,6.74277076 C36.6600331,5.95574438 37.4471029,5.81292689 37.6626404,5.81292689 C38.2346833,5.81292689 38.3069548,6.17022564 38.4499656,6.3135532 C38.9512692,5.88433563 39.8095889,5.0266656 40.1683926,4.52603929 C40.3121695,4.31155802 40.5976802,3.81093171 40.5976802,3.52478667 C40.5976802,3.3103054 40.5259195,3.23889665 40.4551802,3.16697785 C40.3121695,3.02467042 40.3121695,3.02467042 40.3121695,2.88108784 C40.3121695,2.52404411 40.5259195,2.38122662 40.812707,2.38122662 C41.0979623,2.38122662 41.3134999,2.52404411 41.3134999,3.02467042 C41.3134999,3.66811422 40.955207,4.45437551 39.8095889,5.52729191 C38.8082585,6.52828949 36.8027885,8.10106711 35.5141597,8.95899217 L35.5141597,9.10231972 C35.5141597,10.6041987 36.730517,11.1757236 37.6626404,11.1757236 C38.6642263,11.1757236 39.8813497,10.4608711 40.5976802,9.17372847 C41.0979623,8.31554837 41.2419946,7.67184954 41.2419946,6.67059692 C41.0979623,6.59918818 40.8842124,6.45637069 40.5976802,6.45637069 C40.239898,6.45637069 39.7385943,6.81417951 39.7385943,7.24288701 C39.7385943,7.38621456 39.8095889,7.52903205 39.8095889,7.67184954 C39.8813497,7.81543212 39.952855,7.95824961 39.952855,8.02965836 C39.952855,8.10106711 39.8813497,8.38746718 39.5235675,8.38746718 C39.3085407,8.38746718 39.0232853,8.17247585 39.0232853,7.88633081 C39.0232853,7.52903205 39.2370353,7.02840574 39.8095889,6.45637069 C40.3121695,6.09932696 40.8842124,5.95574438 41.0272231,5.95574438 C41.6717929,5.95574438 42.0298304,6.38496194 42.6744002,6.956997 C42.9604217,7.17198832 42.9604217,7.24288701 43.1757039,7.24288701 C43.3187146,7.24288701 43.39022,7.09981449 43.39022,6.88558825 L43.39022,6.59918818 C43.3187146,6.45637069 43.3187146,6.45637069 43.3187146,6.38496194 C43.3187146,6.24214445 43.4617253,6.09932696 43.6754753,6.09932696 C44.0345344,6.09932696 44.1783112,6.45637069 44.1783112,6.74277076 C44.1783112,7.02840574 44.0345344,7.24288701 43.963029,7.38621456 C43.8200183,7.45762331 43.7477468,7.45762331 43.6052468,7.45762331 C43.39022,7.52903205 42.9604217,7.67184954 42.6744002,7.74351332 C42.6021287,7.88633081 42.4588626,7.81543212 42.3871019,7.74351332 C42.3161073,7.60120589 41.9590912,7.17198832 41.6007983,6.81417951 C41.6007983,7.02840574 41.5285268,7.67184954 41.5285268,7.88633081 C41.5285268,8.24413963 41.2419946,9.45961848 40.3121695,10.5322798 C39.451296,11.4621237 38.2346833,11.8905762 37.3750867,11.8905762 C35.4421436,11.8905762 34.7268346,10.6756074 34.7268346,9.38820974 L34.7268346,9.38820974 Z M37.5193743,7.02840574 L37.5193743,6.74277076 C37.5193743,6.45637069 37.3750867,6.3135532 37.1613368,6.3135532 C36.9460546,6.3135532 36.5882724,6.52828949 36.2307456,7.02840574 C35.8004365,7.52903205 35.6574258,7.95824961 35.5141597,8.53028467 C36.4447509,7.88633081 37.0890653,7.38621456 37.5193743,7.02840574 L37.5193743,7.02840574 Z" id="Fill-20"></path>
                    <path d="M61.0037783,10.9614974 C61.0757944,11.5335325 61.1480659,12.4626112 61.8628642,12.7490113 C62.3644232,12.8925939 62.7942215,12.8925939 62.9367215,12.8925939 C63.0794768,12.8925939 63.0794768,12.8925939 63.0794768,12.9627275 C63.0794768,13.0354114 62.9367215,13.1063101 62.7222054,13.1063101 C62.3644232,13.1063101 60.5742354,13.0354114 59.9301764,13.0354114 C59.5718834,12.9627275 59.5008888,12.8925939 59.5008888,12.8204201 C59.5008888,12.7490113 59.5008888,12.7490113 59.5718834,12.7490113 C59.7148942,12.6776026 59.7148942,12.3919676 59.6441549,12.1055675 L58.8552976,3.38171414 L58.7845583,3.38171414 L54.7036452,12.1769763 C54.3445861,12.8925939 54.3445861,13.1063101 54.2018307,13.1063101 C54.05882,13.1063101 53.9878254,12.8925939 53.6287663,12.3203038 C53.1997342,11.4621237 51.7670732,8.53028467 51.6960785,8.38746718 C51.5535786,8.10106711 49.6913746,4.02541298 49.4760924,3.52478667 L49.4050978,3.52478667 L48.7607834,11.3904599 L48.7607834,12.248385 C48.7607834,12.53402 48.9032834,12.7490113 49.190071,12.8204201 C49.4760924,12.8204201 49.6913746,12.8925939 49.8343854,12.8925939 C49.8343854,12.8925939 49.9061461,12.8925939 49.9061461,12.9627275 C49.9061461,13.1063101 49.8343854,13.1063101 49.6193585,13.1063101 C49.0457834,13.1063101 48.1874636,13.0354114 48.0444529,13.0354114 C47.9011868,13.0354114 47.1138617,13.1063101 46.6835526,13.1063101 C46.5405419,13.1063101 46.398042,13.1063101 46.398042,12.9627275 C46.398042,12.8925939 46.4682704,12.8925939 46.5405419,12.8925939 C46.6835526,12.8925939 46.8270741,12.8925939 47.0418456,12.8204201 C47.6146546,12.7490113 47.6866707,12.0333937 47.7571546,11.3904599 L48.9032834,0.37872138 C48.9755549,0.164240114 49.0457834,0.0923213062 49.1185656,0.0923213062 C49.190071,0.0923213062 49.2608102,0.164240114 49.4050978,0.307312635 L54.4886183,10.9614974 L59.4288727,0.307312635 C59.5008888,0.164240114 59.5008888,0.0923213062 59.6441549,0.0923213062 C59.7863995,0.0923213062 59.7863995,0.23590389 59.8591818,0.521538871 L61.0037783,10.9614974" id="Fill-21"></path>
                    <path d="M65.4432398,6.3135532 L65.4432398,3.23889665 C65.4432398,2.73827034 65.2997183,2.45187027 64.7989254,2.38122662 C64.7274201,2.38122662 64.4406325,2.30905278 64.3693825,2.30905278 C64.2978771,2.30905278 64.2261164,2.30905278 64.2261164,2.23764404 C64.2261164,2.16623529 64.2978771,2.09482654 64.4406325,2.09482654 C65.0849469,2.09482654 66.0165596,2.16623529 66.0875542,2.16623529 L69.3811423,2.16623529 C69.5961691,2.16623529 69.8827013,2.09482654 69.9534405,2.09482654 C70.0259674,2.09482654 70.096962,2.0234178 70.1689781,2.0234178 C70.2404835,2.0234178 70.2404835,2.09482654 70.2404835,2.16623529 C70.2404835,2.23764404 70.1689781,2.45187027 70.096962,2.80967909 C70.096962,2.95249658 70.096962,3.59619541 70.0259674,3.81093171 C70.0259674,3.88234045 70.0259674,3.9537492 69.9534405,3.9537492 C69.8827013,3.9537492 69.811196,3.88234045 69.811196,3.73952296 C69.811196,3.66811422 69.811196,3.38171414 69.7391798,3.23889665 C69.6676745,3.02467042 69.5246637,2.80967909 68.7368279,2.73827034 C68.4497849,2.73827034 66.9471508,2.6668616 66.7318686,2.6668616 C66.7318686,2.6668616 66.6611294,2.73827034 66.6611294,2.80967909 L66.6611294,6.81417951 C66.6611294,6.956997 66.6611294,7.02840574 66.7318686,7.02840574 C66.9471508,7.02840574 68.7368279,7.02840574 69.0233601,6.956997 C69.3811423,6.956997 69.5961691,6.88558825 69.7391798,6.74277076 C69.811196,6.67059692 69.8827013,6.59918818 69.9534405,6.59918818 C69.9534405,6.59918818 70.0259674,6.59918818 70.0259674,6.67059692 C70.0259674,6.74277076 69.9534405,7.02840574 69.8827013,7.52903205 C69.8827013,7.81543212 69.811196,8.31554837 69.811196,8.45887592 C69.811196,8.53028467 69.811196,8.67310216 69.7391798,8.67310216 C69.6676745,8.67310216 69.5961691,8.67310216 69.5961691,8.60169341 L69.5961691,8.10106711 C69.5246637,7.88633081 69.3811423,7.67184954 68.8080779,7.60120589 C68.4497849,7.52903205 67.0186562,7.52903205 66.8036293,7.52903205 C66.7318686,7.52903205 66.6611294,7.52903205 66.6611294,7.60120589 L66.6611294,8.88809349 L66.6611294,11.3904599 C66.7318686,12.3919676 66.9471508,12.53402 68.3790457,12.53402 C68.7368279,12.53402 69.3811423,12.53402 69.7391798,12.3919676 C70.096962,12.248385 70.2404835,11.96275 70.384005,11.3904599 C70.384005,11.1757236 70.4557657,11.1757236 70.5272711,11.1757236 C70.5992872,11.1757236 70.5992872,11.2471324 70.5992872,11.3904599 C70.5992872,11.4621237 70.4557657,12.4626112 70.384005,12.7490113 C70.3119889,13.1777188 70.1689781,13.1777188 69.5961691,13.1777188 C67.4484545,13.1777188 66.5178633,13.0354114 66.0875542,13.0354114 C66.0165596,13.0354114 65.8015328,13.1063101 65.5147452,13.1063101 L64.6559147,13.1063101 C64.5126486,13.1063101 64.4406325,13.1063101 64.4406325,12.9627275 C64.4406325,12.9627275 64.4406325,12.8925939 64.5836432,12.8925939 C64.6559147,12.8925939 64.8709415,12.8925939 65.0139523,12.8204201 C65.2997183,12.7490113 65.3722452,12.4626112 65.3722452,12.0333937 C65.4432398,11.4621237 65.4432398,10.3180536 65.4432398,8.88809349 L65.4432398,6.3135532" id="Fill-22"></path>
                    <path d="M75.181504,8.88809349 C75.181504,11.0329062 75.181504,11.96275 75.4680362,12.248385 C75.6820416,12.4626112 76.0403345,12.6056838 77.1859526,12.6056838 C77.9735331,12.6056838 78.6178474,12.53402 78.9038689,12.1769763 C79.1191511,11.8905762 79.2621618,11.5335325 79.3339226,11.2471324 C79.3339226,11.1757236 79.3339226,11.1043149 79.4054279,11.1043149 C79.4771887,11.1043149 79.4771887,11.1757236 79.4771887,11.3190512 C79.4771887,11.4621237 79.4054279,12.3203038 79.3339226,12.7490113 C79.1906565,13.1063101 79.1191511,13.1777188 78.4038421,13.1777188 C76.326356,13.1777188 75.3960201,13.0354114 74.5369343,13.0354114 C74.4649182,13.0354114 74.2504021,13.1063101 73.9641252,13.1063101 L73.1768001,13.1063101 C73.0330233,13.1063101 72.8895018,13.1063101 72.8895018,12.9627275 C72.8895018,12.9627275 72.9615179,12.8925939 73.0330233,12.8925939 C73.1768001,12.8925939 73.3198109,12.8925939 73.4628216,12.8204201 C73.7485876,12.7490113 73.8206038,12.4626112 73.8921091,12.0333937 C73.9641252,11.4621237 73.9641252,10.3180536 73.9641252,8.88809349 L73.9641252,6.3135532 C73.9641252,4.09682172 73.9641252,3.66811422 73.8921091,3.23889665 C73.8921091,2.73827034 73.7485876,2.45187027 73.3198109,2.38122662 C73.1768001,2.38122662 72.9615179,2.30905278 72.8185072,2.30905278 C72.7464911,2.30905278 72.6742196,2.30905278 72.6742196,2.23764404 C72.6742196,2.16623529 72.7464911,2.09482654 72.9615179,2.09482654 C73.6058323,2.09482654 74.4649182,2.16623529 74.5369343,2.16623529 C74.6084396,2.16623529 75.6820416,2.09482654 76.1113291,2.09482654 C76.255106,2.09482654 76.326356,2.16623529 76.326356,2.23764404 C76.326356,2.30905278 76.255106,2.30905278 76.255106,2.30905278 C76.1113291,2.30905278 75.8973238,2.38122662 75.7543131,2.38122662 C75.3245148,2.45187027 75.181504,2.6668616 75.181504,3.23889665 L75.181504,6.3135532 L75.181504,8.88809349" id="Fill-23"></path>
                    <path d="M83.5586126,8.88809349 C83.5586126,10.3180536 83.5586126,11.4621237 83.630118,12.0333937 C83.701368,12.4626112 83.7733841,12.7490113 84.202927,12.8204201 C84.4179538,12.8925939 84.7042307,12.8925939 84.8472414,12.8925939 C84.9187467,12.8925939 84.9187467,12.9627275 84.9187467,12.9627275 C84.9187467,13.0354114 84.8472414,13.1063101 84.7042307,13.1063101 C83.9169055,13.1063101 83.0570536,13.0354114 82.9852928,13.0354114 C82.9142982,13.0354114 81.9831962,13.1063101 81.5541641,13.1063101 C81.4103872,13.1063101 81.3388819,13.1063101 81.3388819,12.9627275 C81.3388819,12.9627275 81.3388819,12.8925939 81.4103872,12.8925939 C81.5541641,12.8925939 81.6964087,12.8925939 81.8404409,12.8204201 C82.1269731,12.7490113 82.1984785,12.4626112 82.2699838,12.0333937 C82.3407231,11.4621237 82.3407231,10.3180536 82.3407231,8.88809349 L82.3407231,6.3135532 L82.3407231,3.23889665 C82.2699838,2.73827034 82.1269731,2.45187027 81.8404409,2.38122662 C81.6964087,2.38122662 81.4818926,2.30905278 81.4103872,2.30905278 C81.3388819,2.30905278 81.2671211,2.30905278 81.2671211,2.23764404 C81.2671211,2.16623529 81.3388819,2.09482654 81.4818926,2.09482654 C81.9831962,2.09482654 82.9142982,2.16623529 82.9852928,2.16623529 C83.0570536,2.16623529 83.9169055,2.09482654 84.3467038,2.09482654 C84.4892038,2.09482654 84.5612199,2.16623529 84.5612199,2.23764404 C84.5612199,2.30905278 84.4892038,2.30905278 84.4892038,2.30905278 C84.3467038,2.30905278 84.2744324,2.38122662 84.1314216,2.38122662 C83.701368,2.45187027 83.630118,2.6668616 83.5586126,3.23889665 L83.5586126,6.3135532 L83.5586126,8.88809349" id="Fill-24"></path>
                    <path d="M88.9286653,11.1043149 C89.0001707,12.3203038 89.1439475,12.6776026 89.5019851,12.8204201 C89.7882619,12.8925939 90.0742834,12.8925939 90.2172941,12.8925939 C90.2887995,12.8925939 90.3605602,12.9627275 90.3605602,12.9627275 C90.3605602,13.1063101 90.2887995,13.1063101 90.0742834,13.1063101 C89.2869582,13.1063101 88.7131277,13.0354114 88.5711385,13.0354114 C88.4273616,13.0354114 87.8540419,13.1063101 87.2097275,13.1063101 C87.0672275,13.1063101 86.9954668,13.1063101 86.9954668,12.9627275 C86.9954668,12.9627275 86.9954668,12.8925939 87.0672275,12.8925939 C87.2097275,12.8925939 87.4247543,12.8925939 87.6400365,12.8204201 C87.9980741,12.7490113 88.0688133,12.3203038 88.0688133,10.9614974 L88.0688133,2.6668616 C88.0688133,2.09482654 88.1403187,1.95200905 88.2843509,1.95200905 C88.3558563,1.95200905 88.6426439,2.23764404 88.7853992,2.38122662 C89.0001707,2.6668616 91.1483961,4.95500182 93.2966214,7.38621456 C94.7285163,8.88809349 96.3036773,10.6756074 96.7332202,11.1757236 L96.5899541,3.81093171 C96.5899541,2.80967909 96.5189595,2.52404411 96.0171451,2.38122662 C95.802629,2.38122662 95.4443361,2.30905278 95.3728307,2.30905278 C95.22982,2.30905278 95.22982,2.30905278 95.22982,2.23764404 C95.22982,2.16623529 95.3728307,2.09482654 95.5153307,2.09482654 C96.1596451,2.09482654 96.8767417,2.16623529 97.0192417,2.16623529 L98.3801419,2.16623529 C98.5231527,2.16623529 98.6661634,2.16623529 98.6661634,2.23764404 C98.6661634,2.30905278 98.594658,2.38122662 98.5231527,2.38122662 L98.1651151,2.38122662 C97.6635561,2.52404411 97.5925615,2.80967909 97.5925615,3.66811422 L97.4495507,12.0333937 C97.4495507,12.9627275 97.3775346,13.1777188 97.3060293,13.1777188 C97.1635293,13.1777188 97.0192417,13.0354114 96.2314058,12.248385 C96.0886505,12.1055675 94.0126966,10.0316535 92.5087856,8.31554837 C90.8618639,6.52828949 90.2887995,5.74151814 89.1439475,4.31155802 L88.9286653,11.1043149" id="Fill-25"></path>
                    <path d="M101.530464,6.3135532 L101.530464,3.23889665 C101.458959,2.73827034 101.387198,2.45187027 100.885894,2.38122662 C100.742883,2.38122662 100.528367,2.30905278 100.385357,2.30905278 C100.313085,2.30905278 100.313085,2.30905278 100.313085,2.23764404 C100.313085,2.16623529 100.385357,2.09482654 100.528367,2.09482654 C101.172682,2.09482654 102.032278,2.16623529 102.103273,2.16623529 C102.3183,2.16623529 103.177641,2.09482654 104.036216,2.09482654 C105.469132,2.09482654 108.117385,2.0234178 109.836578,3.81093171 C110.552653,4.52603929 111.196967,5.74151814 111.196967,7.45762331 C111.196967,9.31731105 110.480382,10.6756074 109.693056,11.5335325 C109.048742,12.248385 107.759858,13.2496376 105.324845,13.2496376 C104.107721,13.2496376 102.246794,13.0354114 102.103273,13.0354114 C102.032278,13.0354114 101.172682,13.1063101 100.742883,13.1063101 C100.598851,13.1063101 100.528367,13.1063101 100.528367,12.9627275 C100.528367,12.9627275 100.528367,12.8925939 100.598851,12.8925939 C100.742883,12.8925939 100.885894,12.8925939 101.029671,12.8204201 C101.315437,12.7490113 101.387198,12.4626112 101.458959,12.0333937 C101.530464,11.4621237 101.530464,10.3180536 101.530464,8.88809349 L101.530464,6.3135532 L101.530464,6.3135532 Z M102.747587,7.88633081 L102.747587,11.0329062 C102.747587,11.3904599 102.819093,12.0333937 102.890598,12.1769763 C103.10537,12.4626112 103.678689,12.7490113 105.324845,12.7490113 C106.685745,12.7490113 107.902358,12.248385 108.761954,11.3904599 C109.54928,10.6756074 109.908083,9.24513721 109.908083,7.95824961 C109.908083,6.09932696 109.120247,4.88308301 108.547949,4.24014927 C107.187049,2.80967909 105.540127,2.59545285 103.821189,2.59545285 C103.535679,2.59545285 103.034375,2.6668616 102.890598,2.73827034 C102.819093,2.80967909 102.747587,2.88108784 102.747587,3.02467042 L102.747587,6.09932696 L102.747587,7.88633081 L102.747587,7.88633081 Z" id="Fill-26"></path>
                    <path d="M116.137222,2.52404411 C116.351993,2.0234178 116.423243,1.95200905 116.494749,1.95200905 C116.566254,1.95200905 116.638525,2.0234178 116.781536,2.45187027 C116.996818,3.02467042 119.288055,9.03091098 120.146885,11.1757236 C120.647423,12.4626112 121.077987,12.7490113 121.364008,12.8204201 C121.57878,12.8925939 121.793296,12.8925939 121.936051,12.8925939 C122.008578,12.8925939 122.080594,12.8925939 122.080594,12.9627275 C122.080594,13.1063101 121.936051,13.1063101 121.793296,13.1063101 L119.574076,13.1063101 C119.288055,13.0354114 119.143767,13.0354114 119.143767,12.9627275 C119.143767,12.8925939 119.143767,12.8925939 119.216038,12.8925939 C119.288055,12.8204201 119.359049,12.7490113 119.288055,12.4626112 L117.99866,8.88809349 C117.927154,8.81617468 117.927154,8.81617468 117.855138,8.81617468 L114.776832,8.81617468 C114.705327,8.81617468 114.633822,8.88809349 114.633822,8.95899217 L113.774736,11.5335325 C113.630703,11.8905762 113.559709,12.248385 113.559709,12.4626112 C113.559709,12.7490113 113.84573,12.8925939 114.132518,12.8925939 L114.204023,12.8925939 C114.347034,12.8925939 114.419305,12.9627275 114.419305,12.9627275 C114.419305,13.1063101 114.275018,13.1063101 114.204023,13.1063101 C113.84573,13.1063101 113.201161,13.0354114 113.057894,13.0354114 C112.915394,13.0354114 112.128069,13.1063101 111.411483,13.1063101 C111.268217,13.1063101 111.125462,13.1063101 111.125462,12.9627275 C111.125462,12.9627275 111.196967,12.8925939 111.268217,12.8925939 L111.697505,12.8925939 C112.342075,12.7490113 112.628607,12.248385 112.915394,11.5335325 L116.137222,2.52404411 L116.137222,2.52404411 Z M117.641133,8.31554837 C117.712127,8.31554837 117.712127,8.24413963 117.712127,8.17247585 L116.351993,4.31155802 C116.280488,4.09682172 116.208216,4.09682172 116.137222,4.31155802 L114.848338,8.17247585 C114.848338,8.24413963 114.848338,8.31554837 114.919332,8.31554837 L117.641133,8.31554837 L117.641133,8.31554837 Z" id="Fill-27"></path>
                </g>
            </g>
        </g>
    </g>
</svg>