<?xml version="1.0" encoding="UTF-8" standalone="no"?>
<svg width="137px" height="31px" viewBox="0 0 137 31" version="1.1" xmlns="http://www.w3.org/2000/svg" xmlns:xlink="http://www.w3.org/1999/xlink">
    <!-- Generator: Sketch 40 (33762) - http://www.bohemiancoding.com/sketch -->
    <title>Group 7</title>
    <desc>Created with Sketch.</desc>
    <defs></defs>
    <g id="Welcome" stroke="none" stroke-width="1" fill="none" fill-rule="evenodd">
        <g id="Quill-Homepage" transform="translate(-334.000000, -6975.000000)">
            <g id="Group-7" transform="translate(317.000000, 6956.000000)">
                <rect id="Rectangle-2-Copy-3" x="0.334634146" y="0" width="172.264171" height="69.593333"></rect>
                <g id="google_org" transform="translate(17.467317, 19.148293)" fill="#C9C9C9">
                    <path d="M22.5758614,10.7527103 L11.86108,10.7527103 L11.86108,13.9556984 L19.460146,13.9556984 C19.0847564,18.4471599 15.3753482,20.3626007 11.8739484,20.3626007 C7.39427457,20.3626007 3.48522231,16.8119146 3.48522231,11.8352501 C3.48522231,6.98720141 7.21154329,3.25354558 11.8837836,3.25354558 C15.4884982,3.25354558 17.6126114,5.56844553 17.6126114,5.56844553 L19.8388446,3.2460453 C19.8388446,3.2460453 16.9814164,0.0414830071 11.7699902,0.0414830071 C5.13384819,0.0413904111 0,5.68363495 0,11.7780257 C0,17.7498194 4.82923478,23.572904 11.9391177,23.572904 C18.1923329,23.572904 22.7697147,19.2575601 22.7697147,12.8762143 C22.7697147,11.5299611 22.5756776,10.7518769 22.5756776,10.7518769 L22.5758614,10.7527103" id="Fill-1"></path>
                    <path d="M31.3967819,11.4038453 C33.558857,11.4038453 35.6076901,13.1647434 35.6076901,16.0021626 C35.6076901,18.7793943 33.5675891,20.5904795 31.3868549,20.5904795 C28.9907588,20.5904795 27.1004828,18.6572602 27.1004828,15.9801247 C27.1004828,13.3603988 28.9673199,11.4038453 31.3967819,11.4038453 L31.3967819,11.4038453 Z M31.3530294,8.43308792 C26.9564486,8.43308792 23.8056209,11.8957153 23.8056209,15.9341045 C23.8056209,20.0322182 26.8617739,23.5591998 31.4046868,23.5591998 C35.5172436,23.5591998 38.8864665,20.3926944 38.8864665,16.0221633 C38.8864665,11.012905 34.9673034,8.43308792 31.3530294,8.43308792 L31.3530294,8.43308792 Z" id="Fill-3"></path>
                    <path d="M47.8113453,11.4038453 C49.9734204,11.4038453 52.0222535,13.1647434 52.0222535,16.0021626 C52.0222535,18.7793943 49.9821525,20.5904795 47.8014183,20.5904795 C45.4053222,20.5904795 43.5150462,18.6572602 43.5150462,15.9801247 C43.5150462,13.3603988 45.3818833,11.4038453 47.8113453,11.4038453 L47.8113453,11.4038453 Z M47.7675928,8.43308792 C43.371012,8.43308792 40.2201843,11.8957153 40.2201843,15.9341045 C40.2201843,20.0322182 43.2763373,23.5591998 47.8192502,23.5591998 C51.931807,23.5591998 55.3010299,20.3926944 55.3010299,16.0221633 C55.3010299,11.012905 51.3818668,8.43308792 47.7675928,8.43308792 L47.7675928,8.43308792 Z" id="Fill-4"></path>
                    <path d="M64.1599122,11.4057898 C66.1384287,11.4057898 68.1700733,13.1077043 68.1700733,16.0141075 C68.1700733,18.9682902 66.1427488,20.5964056 64.1161597,20.5964056 C61.964747,20.5964056 59.9628836,18.8366187 59.9628836,16.0421641 C59.9628836,13.1385387 62.0419574,11.4057898 64.1598203,11.4057898 L64.1599122,11.4057898 L64.1599122,11.4057898 Z M63.8677995,8.44105117 C59.8322693,8.44105117 56.6602087,12.0016451 56.6602087,15.9980884 C56.6602087,20.5503854 60.3377217,23.5692001 63.7982183,23.5692001 C65.9379574,23.5692001 67.0757078,22.7136131 67.9157386,21.7314474 L67.9157386,23.2227985 C67.9157386,25.8321537 66.3430363,27.3947112 63.9691842,27.3947112 C61.6759434,27.3947112 60.5256922,25.6769628 60.1259446,24.7022048 L57.2405735,25.917342 C58.2641628,28.0977 60.3247614,30.3714873 63.9930826,30.3714873 C68.0054497,30.3714873 71.0635331,27.8255604 71.0635331,22.4861047 L71.0635331,8.89579012 L67.9158305,8.89579012 L67.9158305,10.1769483 C66.947943,9.12626156 65.6243362,8.44123637 63.8677995,8.44123637 L63.8677995,8.44105117 L63.8677995,8.44105117 Z" id="Fill-5"></path>
                    <path d="M85.1904626,11.331713 C86.5621422,11.331713 87.5493323,12.0663697 87.9685664,12.9472354 L81.2458384,15.7778951 C80.9560237,13.5864256 83.0169899,11.331713 85.1904626,11.331713 L85.1904626,11.331713 Z M85.0592969,8.42299495 C81.2526403,8.42299495 78.0564055,11.4740331 78.0564055,15.9760505 C78.0564055,20.7398368 81.619022,23.5651259 85.4249433,23.5651259 C88.6014159,23.5651259 90.5509785,21.814506 91.7144657,20.2460224 L89.1191852,18.5064213 C88.4457082,19.5593304 87.3198152,20.5883498 85.4408449,20.5883498 C83.3302435,20.5883498 82.3597823,19.4240477 81.7585523,18.2962284 L91.8253178,14.0882959 L91.3026769,12.8551024 C90.3301935,10.4401988 88.0616784,8.42345793 85.0596645,8.42345793 L85.0592969,8.42299495 L85.0592969,8.42299495 Z" id="Fill-6"></path>
                    <polygon id="Fill-7" points="73.2571357 0.823641402 76.5638549 0.823641402 76.5638549 23.1161279 73.2571357 23.1161279"></polygon>
                    <path d="M96.0911004,21.9260841 C95.7289469,22.2908198 95.295098,22.4727709 94.7886345,22.4727709 C94.2821711,22.4727709 93.8483222,22.2908198 93.4861686,21.9260841 C93.1240151,21.5617189 92.9438575,21.124388 92.9438575,20.6140914 C92.9438575,20.1041653 93.1240151,19.6667418 93.4861686,19.3020988 C93.8483222,18.9377335 94.2821711,18.7553194 94.7886345,18.7553194 C95.295098,18.7553194 95.7289469,18.9377335 96.0911004,19.3020988 C96.453254,19.6667418 96.6343308,20.1041653 96.6343308,20.6140914 C96.6343308,21.124388 96.453254,21.5617189 96.0911004,21.9260841" id="Fill-8"></path>
                    <path d="M102.48118,19.124407 C103.339686,20.0085136 104.357209,20.4500113 105.533749,20.4500113 C106.709369,20.4500113 107.726892,20.0085136 108.586317,19.124407 C109.444823,18.2407634 109.874995,17.0700722 109.874995,15.6120556 C109.874995,14.1544094 109.444823,12.9837182 108.586317,12.0997042 C107.726892,11.2160606 106.709369,10.7740073 105.533749,10.7740073 C104.357209,10.7740073 103.339686,11.2160606 102.48118,12.0997042 C101.621755,12.9837182 101.192502,14.1544094 101.192502,15.6120556 C101.192502,17.0700722 101.621755,18.2407634 102.48118,19.124407 L102.48118,19.124407 Z M100.622616,10.5143682 C101.906698,9.15709603 103.543742,8.47799698 105.533749,8.47799698 C107.522836,8.47799698 109.15988,9.15709603 110.444881,10.5143682 C111.728964,11.8721033 112.370546,13.571425 112.370546,15.6120556 C112.370546,17.6530566 111.728964,19.352471 110.444881,20.7097431 C109.15988,22.0673856 107.522836,22.7460217 105.533749,22.7460217 C103.543742,22.7460217 101.906698,22.0673856 100.622616,20.7097431 C99.3376139,19.352471 98.6960323,17.6530566 98.6960323,15.6120556 C98.6960323,13.571425 99.3376139,11.8721033 100.622616,10.5143682 L100.622616,10.5143682 Z" id="Fill-9"></path>
                    <path d="M116.875405,22.3086908 L114.378935,22.3086908 L114.378935,8.91532788 L116.766943,8.91532788 L116.766943,11.1019824 L116.875405,11.1019824 C117.128177,10.3734371 117.648428,9.77202605 118.435239,9.29802714 C119.222049,8.82430601 119.985881,8.58735285 120.727652,8.58735285 C121.469424,8.58735285 122.093541,8.69670872 122.600004,8.91532788 L121.6505,11.2660625 C121.325114,11.138743 120.881154,11.0746665 120.321379,11.0746665 C119.415995,11.0746665 118.616316,11.4346798 117.919584,12.1543359 C117.222852,12.874455 116.875405,13.8174526 116.875405,14.9834214 L116.875405,22.3086908" id="Fill-10"></path>
                    <path d="M129.519527,20.4500113 C130.695147,20.4500113 131.694287,20.012773 132.516945,19.1380186 C133.340523,18.2633568 133.752311,17.0880358 133.752311,15.6120556 C133.752311,14.1360754 133.340523,12.9606618 132.516945,12.086 C131.694287,11.2113382 130.695147,10.7740073 129.519527,10.7740073 C128.361371,10.7740073 127.365908,11.2160606 126.534977,12.0997042 C125.702208,12.9837182 125.286743,14.1544094 125.286743,15.6120556 C125.286743,17.0700722 125.702208,18.2407634 126.534977,19.124407 C127.365908,20.0085136 128.361371,20.4500113 129.519527,20.4500113 L129.519527,20.4500113 Z M129.329259,28.6501277 C127.755637,28.6501277 126.470635,28.2538169 125.476092,27.4611025 C124.481548,26.6683882 123.767352,25.7616882 123.332584,24.7413729 L125.612129,23.7847636 C125.864901,24.5133089 126.330921,25.1240721 127.00927,25.6160347 C127.687618,26.1080898 128.460642,26.3541174 129.329259,26.3541174 C130.70342,26.3541174 131.784365,25.9393799 132.571176,25.1103679 C133.358906,24.2809856 133.752311,23.1561294 133.752311,21.7346882 L133.752311,20.4500113 L133.643849,20.4500113 C133.209081,21.106054 132.594155,21.6527408 131.798153,22.0900717 C131.002151,22.5274026 130.106878,22.7460217 129.112334,22.7460217 C127.393483,22.7460217 125.91086,22.0627558 124.662625,20.6960389 C123.41439,19.3294146 122.790273,17.6347226 122.790273,15.6120556 C122.790273,13.5893887 123.41439,11.8946967 124.662625,10.5279798 C125.91086,9.16135544 127.393483,8.47799698 129.112334,8.47799698 C130.106878,8.47799698 131.002151,8.69670872 131.798153,9.13403962 C132.594155,9.57137052 133.209081,10.1180573 133.643849,10.7740073 L133.752311,10.7740073 L133.752311,8.91532788 L136.1394,8.91532788 L136.1394,21.6254249 C136.1394,23.9213427 135.479435,25.6660365 134.158585,26.8597841 C132.838655,28.0530687 131.228267,28.6501277 129.329259,28.6501277 L129.329259,28.6501277 Z" id="Fill-11"></path>
                </g>
            </g>
        </g>
    </g>
</svg>