<?xml version="1.0" encoding="UTF-8" standalone="no"?>
<svg width="154px" height="35px" viewBox="0 0 154 35" version="1.1" xmlns="http://www.w3.org/2000/svg" xmlns:xlink="http://www.w3.org/1999/xlink">
    <!-- Generator: Sketch 40 (33762) - http://www.bohemiancoding.com/sketch -->
    <title>Group 12</title>
    <desc>Created with Sketch.</desc>
    <defs>
        <polyline id="path-1" points="0.0124784107 0.0266610313 152.618242 0.0266610313 152.618242 34.1013191 0.0124784107 34.1013191"></polyline>
    </defs>
    <g id="Welcome" stroke="none" stroke-width="1" fill="none" fill-rule="evenodd">
        <g id="Quill-Homepage" transform="translate(-843.000000, -6973.000000)">
            <g id="Group-12" transform="translate(833.000000, 6956.000000)">
                <rect id="Rectangle-2-Copy-6" x="0.330731707" y="0" width="172.264171" height="69.593333"></rect>
                <g id="Accelerator-Logo" transform="translate(10.408780, 17.132683)">
                    <path d="M65.6420556,6.8498183 C66.3281602,6.8498183 66.4252838,6.26430898 66.4252838,5.59736985 C66.4252838,4.93043072 66.3281602,4.35236169 65.6420556,4.35236169 C64.9561589,4.35236169 64.8517562,4.93043072 64.8517562,5.59736985 C64.8517562,6.26430898 64.9561589,6.8498183 65.6420556,6.8498183" id="Fill-1" fill="#C9C9C9"></path>
                    <path d="M36.5640311,6.8498183 C37.2499277,6.8498183 37.3470513,6.26430898 37.3470513,5.59736985 C37.3470513,4.93043072 37.2499277,4.35236169 36.5640311,4.35236169 C35.8779265,4.35236169 35.7735237,4.93043072 35.7735237,5.59736985 C35.7735237,6.26430898 35.8779265,6.8498183 36.5640311,6.8498183" id="Fill-2" fill="#C9C9C9"></path>
                    <path d="M56.4265413,6.8498183 C56.6503208,6.8498183 56.8443601,6.76838848 56.98599,6.62743636 C57.2172566,6.39782081 57.2469968,6.00493228 57.2469968,5.59736985 C57.2469968,5.18980742 57.2172566,4.79691889 56.98599,4.56730334 C56.8443601,4.42655789 56.6503208,4.35236169 56.4265413,4.35236169 C56.2029698,4.35236169 56.0164175,4.42655789 55.8747876,4.56730334 C55.643521,4.79691889 55.6137808,5.18980742 55.6137808,5.59736985 C55.6137808,6.00493228 55.643521,6.39782081 55.8747876,6.62743636 C56.0164175,6.76838848 56.2029698,6.8498183 56.4265413,6.8498183" id="Fill-3" fill="#C9C9C9"></path>
                    <path d="M84.9736094,19.7975725 C84.8912519,18.9223053 84.254853,18.3237755 83.1424027,18.3237755 C82.0301603,18.3237755 80.9751107,18.9223053 80.3160426,19.7975725 C79.9094544,20.327073 79.7493148,20.6724263 79.4905958,21.3862806 L84.7737469,21.3862806 C84.9860878,20.6724263 85.0305942,20.327073 84.9736094,19.7975725" id="Fill-4" fill="#C9C9C9"></path>
                    <g id="Group-8">
                        <mask id="mask-2" fill="white">
                            <use xlink:href="#path-1"></use>
                        </mask>
                        <g id="Clip-6"></g>
                        <polyline id="Fill-5" fill="#C9C9C9" mask="url(#mask-2)" points="31.8607101 22.7681074 36.9352638 22.7681074 36.8327328 15.4915059 31.8607101 22.7681074"></polyline>
                        <path d="M132.981799,19.2449244 C132.623253,18.7152173 132.289871,18.4620408 131.478774,18.4620408 C130.204105,18.4620408 128.804235,19.47516 128.272655,21.0870157 L125.933577,28.17885 L123.570166,28.17885 L127.420795,16.5046251 L129.737412,16.5046251 L129.320009,17.7711274 C130.195786,16.9421554 131.590664,16.3661531 132.911296,16.3661531 C134.046831,16.3661531 134.805311,16.6658313 135.350617,17.4718625 L132.981799,19.2449244 L132.981799,19.2449244 Z M120.781865,26.9359086 C119.759259,27.7187922 118.402856,28.317322 116.804371,28.317322 C115.205263,28.317322 114.267302,27.7187922 113.761095,26.9359086 C113.028404,25.7841107 113.236378,24.3105204 113.889415,22.3303705 C114.534964,20.3733681 115.299059,18.8995711 116.791061,17.7481865 C117.813667,16.9653029 119.146777,16.3663598 120.745677,16.3663598 C122.34437,16.3663598 123.305831,16.9653029 123.811831,17.7481865 C124.54473,18.8995711 124.336756,20.3733681 123.690998,22.3303705 C123.037961,24.3105204 122.274075,25.7841107 120.781865,26.9359086 L120.781865,26.9359086 Z M110.655011,26.1757592 L111.628327,26.1757592 L110.967595,28.1790567 L109.553999,28.1790567 C107.353015,28.1790567 106.849719,26.6132895 107.404177,24.9321978 L109.522803,18.5077159 L108.178878,18.5077159 L108.771394,16.7119198 L110.115319,16.7119198 L111.284962,13.1655893 L113.648373,13.1655893 L112.47873,16.7119198 L114.749801,16.7119198 L114.157284,18.5077159 L111.886422,18.5077159 L109.805647,24.81708 C109.524882,25.6691996 109.774659,26.1757592 110.655011,26.1757592 L110.655011,26.1757592 Z M106.380947,20.3733681 L103.806443,28.1790567 L101.489202,28.1790567 L101.838597,27.1198491 C100.700358,27.9719687 99.7757082,28.317322 98.3157341,28.317322 C96.8557601,28.317322 95.9966215,27.9719687 95.513707,27.2581144 C95.1162696,26.636437 95.0881932,25.7382289 95.4145036,24.7482573 C96.0602614,22.7908416 97.8906363,21.3862806 100.578278,21.3862806 L103.683322,21.3862806 L103.9566,20.5573085 C104.442634,19.0835115 103.936634,18.3696572 102.106051,18.3696572 C100.808505,18.3696572 100.084133,18.6691288 99.1621863,19.4981009 L98.0880031,18.0474514 C99.6253433,16.7578016 100.913323,16.3663598 102.859331,16.3663598 C106.080217,16.3663598 107.254228,17.725039 106.380947,20.3733681 L106.380947,20.3733681 Z M91.3151378,21.0870157 L88.9760597,28.17885 L86.6126487,28.17885 L90.4630703,16.5046251 L92.7803111,16.5046251 L92.3624924,17.7711274 C93.2382688,16.9421554 94.6329392,16.3661531 95.953779,16.3661531 C97.0893143,16.3661531 97.8480017,16.6658313 98.3931003,17.4718625 L96.024074,19.2449244 C95.6657356,18.7152173 95.3321461,18.4620408 94.5212574,18.4620408 C93.2465878,18.4620408 91.8467181,19.47516 91.3151378,21.0870157 L91.3151378,21.0870157 Z M80.8623891,26.290877 C82.1830209,26.290877 82.9997328,25.9223761 84.1073998,25.0936107 L85.1501789,26.4981717 C83.5504467,27.695438 82.2098494,28.317322 80.1477921,28.317322 C77.2047589,28.317322 75.3735521,26.7744957 76.8391415,22.3303705 C78.0846948,18.554011 80.7756641,16.3663598 83.7879524,16.3663598 C86.9391671,16.3663598 88.0104387,18.6691288 86.9169139,21.9848104 L86.5750055,23.0212838 L78.9515284,23.0212838 C78.2907966,25.0245813 78.939258,26.290877 80.8623891,26.290877 L80.8623891,26.290877 Z M74.8902217,28.1790567 L73.4304556,28.1790567 C71.1828859,28.1790567 70.703091,26.6823188 71.2729384,24.9553453 L75.6166732,11.7843825 L77.9798762,11.7843825 L73.6816876,24.81708 C73.3853254,25.7154947 73.5579434,26.1757592 74.5081744,26.1757592 L75.5507456,26.1757592 L74.8902217,28.1790567 L74.8902217,28.1790567 Z M70.5832982,21.9848104 L70.2413898,23.0212838 L62.6181207,23.0212838 C61.9573889,25.0245813 62.6056423,26.290877 64.5287734,26.290877 C65.8496131,26.290877 66.6663251,25.9223761 67.7737841,25.0936107 L68.8165633,26.4981717 C67.216831,27.695438 65.8764417,28.317322 63.8141764,28.317322 C60.8713512,28.317322 59.0399364,26.7744957 60.5055258,22.3303705 C61.7510791,18.554011 64.4422564,16.3663598 67.4543368,16.3663598 C70.6057594,16.3663598 71.676823,18.6691288 70.5832982,21.9848104 L70.5832982,21.9848104 Z M57.5880734,18.4620408 C56.6846364,18.4620408 55.7984613,18.8303351 55.0684743,19.4978942 C54.3459743,20.1429258 53.8871847,20.9716912 53.4392098,22.3303705 C52.9910269,23.6890497 52.895567,24.5409626 53.1925532,25.1859942 C53.4820523,25.8535534 54.1253144,26.2218476 55.0289593,26.2218476 C55.9558972,26.2218476 56.6338909,25.9223761 57.6411066,25.1167582 L58.7541808,26.6595846 C57.2546918,27.8337033 55.9598487,28.3171154 54.3378633,28.3171154 C51.6963918,28.3171154 49.6328786,26.7052597 51.0755908,22.3303705 C52.518511,17.9552745 55.6379057,16.3661531 58.2793773,16.3661531 C59.9013627,16.3661531 60.8846615,16.8268309 61.6098651,18.001363 L59.4712735,19.5673369 C58.9956381,18.7615124 58.5152193,18.4620408 57.5880734,18.4620408 L57.5880734,18.4620408 Z M48.1583464,18.4620408 C47.2547015,18.4620408 46.3687343,18.8303351 45.6385393,19.4978942 C44.9160393,20.1429258 44.4572498,20.9716912 44.0092748,22.3303705 C43.5612999,23.6890497 43.46584,24.5409626 43.7626182,25.1859942 C44.0521174,25.8535534 44.6953794,26.2218476 45.5990243,26.2218476 C46.5259623,26.2218476 47.2039559,25.9223761 48.2111716,25.1167582 L49.3244539,26.6595846 C47.8249648,27.8337033 46.5299138,28.3171154 44.9079284,28.3171154 C42.2664568,28.3171154 40.2031516,26.7052597 41.6458638,22.3303705 C43.088784,17.9552745 46.2081788,16.3661531 48.8494423,16.3661531 C50.4716357,16.3661531 51.4549345,16.8268309 52.1799302,18.001363 L50.0413385,19.5673369 C49.5657031,18.7615124 49.0854923,18.4620408 48.1583464,18.4620408 L48.1583464,18.4620408 Z M40.1578133,7.47976267 L39.5014489,7.47976267 L38.330766,3.72241732 L39.1360395,3.72241732 L39.8668584,6.36805966 L40.7467943,3.72241732 L41.3359833,3.72241732 L42.2086401,6.36805966 L42.9394591,3.72241732 L43.7524275,3.72241732 L42.5738416,7.47976267 L41.9251723,7.47976267 L41.0377493,4.85623452 L40.1578133,7.47976267 L40.1578133,7.47976267 Z M36.981018,28.1790567 L36.9317282,24.886316 L30.4204935,24.886316 L28.1991285,28.1790567 L25.5343638,28.1790567 L36.9895449,11.7843825 L39.0052241,11.7843825 L39.6457826,28.1790567 L36.981018,28.1790567 L36.981018,28.1790567 Z M31.2326301,2.20315189 L34.6259259,2.20315189 L34.6259259,2.92196636 L32.0381115,2.92196636 L32.0381115,4.46355266 L34.2455424,4.46355266 L34.2455424,5.17492684 L32.0381115,5.17492684 L32.0381115,6.76094819 L34.6259259,6.76094819 L34.6259259,7.47976267 L31.2326301,7.47976267 L31.2326301,2.20315189 L31.2326301,2.20315189 Z M35.4378545,4.0113485 C35.6466599,3.80384714 35.9748421,3.67798227 36.3552257,3.67798227 C36.7578624,3.67798227 37.0710705,3.77429266 37.3470513,4.1002186 L37.3470513,2.20315189 L38.1076105,2.20315189 L38.1076105,7.47976267 L37.3618175,7.47976267 L37.3618175,7.07943385 C37.0785575,7.42044704 36.7726285,7.52419772 36.3625047,7.52419772 C35.9823292,7.52419772 35.6466599,7.39812617 35.4378545,7.19083149 C35.0574709,6.81282353 35.0127566,6.16799859 35.0127566,5.59736985 C35.0127566,5.02674111 35.0574709,4.38935646 35.4378545,4.0113485 L35.4378545,4.0113485 Z M43.9674721,3.72241732 L44.7282392,3.72241732 L44.7282392,7.47976267 L43.9674721,7.47976267 L43.9674721,3.72241732 Z M43.945219,2.18083103 L44.7504924,2.18083103 L44.7504924,2.98107531 L43.945219,2.98107531 L43.945219,2.18083103 Z M45.4958695,3.72241732 L46.2416625,3.72241732 L46.2416625,4.1002186 C46.5028772,3.81872772 46.8680787,3.67798227 47.2484623,3.67798227 C47.6363329,3.67798227 47.957028,3.80384714 48.1805995,4.01878879 C48.4715545,4.30048635 48.5609831,4.65617344 48.5609831,5.07861645 L48.5609831,7.47976267 L47.800424,7.47976267 L47.800424,5.18980742 C47.800424,4.6042981 47.4647547,4.35236169 47.0396569,4.35236169 C46.614559,4.35236169 46.2566366,4.61173839 46.2566366,5.18980742 L46.2566366,7.47976267 L45.4958695,7.47976267 L45.4958695,3.72241732 L45.4958695,3.72241732 Z M51.0433549,2.72190529 C51.4085564,2.35877791 51.8710895,2.15871684 52.4378173,2.15871684 C53.5637859,2.15871684 54.2201503,2.89241188 54.3692673,3.79661353 L53.5565068,3.79661353 C53.422156,3.21833783 53.0342854,2.87753131 52.4378173,2.87753131 C52.1246092,2.87753131 51.8411413,3.00360285 51.654797,3.20366392 C51.3937903,3.48515481 51.3341019,3.78173295 51.3341019,4.84135394 C51.3341019,5.9011816 51.3937903,6.20499336 51.654797,6.48669092 C51.8411413,6.68675199 52.1246092,6.80538325 52.4378173,6.80538325 C52.7882527,6.80538325 53.0939737,6.67187141 53.3027792,6.43481558 C53.4968184,6.21243364 53.571273,5.94561666 53.571273,5.60481014 L53.571273,5.30843867 L52.4378173,5.30843867 L52.4378173,4.62661897 L54.3767544,4.62661897 L54.3767544,5.43430354 C54.3767544,6.11612325 54.2500985,6.55324016 53.8994552,6.92380783 C53.4968184,7.34625083 52.9970581,7.52419772 52.4378173,7.52419772 C51.8858556,7.52419772 51.4085564,7.32413665 51.0433549,6.96100927 C50.5211334,6.44225587 50.5286205,5.85674655 50.5286205,4.84135394 C50.5286205,3.826168 50.5211334,3.24065869 51.0433549,2.72190529 L51.0433549,2.72190529 Z M55.3005727,4.12253947 C55.5466054,3.87060306 55.9120148,3.67798227 56.4265413,3.67798227 C56.9412757,3.67798227 57.3139643,3.87060306 57.5602049,4.12253947 C57.9181273,4.49310714 58.0075559,4.96742548 58.0075559,5.59736985 C58.0075559,6.23475451 57.9181273,6.70907285 57.5602049,7.07943385 C57.3139643,7.33157693 56.9412757,7.52419772 56.4265413,7.52419772 C55.9120148,7.52419772 55.5466054,7.33157693 55.3005727,7.07943385 C54.9426503,6.70907285 54.8530137,6.23475451 54.8530137,5.59736985 C54.8530137,4.96742548 54.9426503,4.49310714 55.3005727,4.12253947 L55.3005727,4.12253947 Z M58.5586857,3.72241732 L59.3194528,3.72241732 L59.3194528,6.01237257 C59.3194528,6.59788189 59.6549141,6.8498183 60.080012,6.8498183 C60.5051098,6.8498183 60.8630323,6.5904416 60.8630323,6.01237257 L60.8630323,3.72241732 L61.6237994,3.72241732 L61.6237994,7.47976267 L60.8780063,7.47976267 L60.8780063,7.10175471 C60.6169996,7.38345227 60.2515901,7.52419772 59.8712066,7.52419772 C59.4835439,7.52419772 59.1628488,7.39812617 58.9390693,7.18318453 C58.6481144,6.90169364 58.5586857,6.54600655 58.5586857,6.12356354 L58.5586857,3.72241732 L58.5586857,3.72241732 Z M62.3687605,2.20315189 L63.1293196,2.20315189 L63.1293196,6.39782081 C63.1293196,6.68675199 63.2337223,6.83493772 63.5396513,6.83493772 L63.8751126,6.83493772 L63.8751126,7.47976267 L63.4053005,7.47976267 C62.6819686,7.47976267 62.3687605,6.99800403 62.3687605,6.44225587 L62.3687605,2.20315189 L62.3687605,2.20315189 Z M64.516087,4.0113485 C64.7248924,3.80384714 65.0528666,3.67798227 65.4334581,3.67798227 C65.8360949,3.67798227 66.149303,3.77429266 66.4252838,4.1002186 L66.4252838,2.20315189 L67.185843,2.20315189 L67.185843,7.47976267 L66.4400499,7.47976267 L66.4400499,7.07943385 C66.15679,7.42044704 65.850861,7.52419772 65.4407372,7.52419772 C65.0605616,7.52419772 64.7248924,7.39812617 64.516087,7.19083149 C64.1357034,6.81282353 64.0909891,6.16799859 64.0909891,5.59736985 C64.0909891,5.02674111 64.1357034,4.38935646 64.516087,4.0113485 L64.516087,4.0113485 Z M69.4003449,2.20315189 L72.6965171,2.20315189 L72.6965171,2.70702471 L69.9670727,2.70702471 L69.9670727,4.64873316 L72.2938804,4.64873316 L72.2938804,5.15281265 L69.9670727,5.15281265 L69.9670727,7.47976267 L69.4003449,7.47976267 L69.4003449,2.20315189 L69.4003449,2.20315189 Z M73.1505233,4.20417596 C73.404251,3.95223955 73.7546863,3.78896656 74.2022453,3.78896656 C74.6495963,3.78896656 75.0002397,3.95223955 75.2537594,4.20417596 C75.6266559,4.58197724 75.7011104,5.09349703 75.7011104,5.65668548 C75.7011104,6.21987393 75.6266559,6.73118704 75.2537594,7.109195 C75.0002397,7.36113141 74.6495963,7.52419772 74.2022453,7.52419772 C73.7546863,7.52419772 73.404251,7.36113141 73.1505233,7.109195 C72.7778347,6.73118704 72.7031722,6.21987393 72.7031722,5.65668548 C72.7031722,5.09349703 72.7778347,4.58197724 73.1505233,4.20417596 L73.1505233,4.20417596 Z M76.371617,3.83360829 L76.9086046,3.83360829 L76.9086046,6.07912849 C76.9086046,6.72374675 77.2515529,7.04987937 77.8035146,7.04987937 C78.3552684,7.04987937 78.7208858,6.71651314 78.7208858,6.07912849 L78.7208858,3.83360829 L79.2576654,3.83360829 L79.2576654,7.47976267 L78.7281649,7.47976267 L78.7281649,7.07220023 C78.4671581,7.3685717 78.1017487,7.52419772 77.6914169,7.52419772 C77.2962673,7.52419772 76.968293,7.40577314 76.7445135,7.18318453 C76.4835068,6.93145479 76.371617,6.58300131 76.371617,6.1605583 L76.371617,3.83360829 L76.371617,3.83360829 Z M80.1594386,3.83360829 L80.6962182,3.83360829 L80.6962182,4.23373044 C80.957433,3.93735897 81.3151474,3.78896656 81.7254791,3.78896656 C82.1206288,3.78896656 82.441324,3.90759782 82.6651035,4.12997976 C82.9259022,4.38191617 83.045487,4.72292936 83.045487,5.14537237 L83.045487,7.47976267 L82.5084994,7.47976267 L82.5084994,5.23424247 C82.5084994,4.58941753 82.1578561,4.26349159 81.6061023,4.26349159 C81.0541406,4.26349159 80.6962182,4.59685782 80.6962182,5.23424247 L80.6962182,7.47976267 L80.1594386,7.47976267 L80.1594386,3.83360829 L80.1594386,3.83360829 Z M84.1633446,4.10765889 C84.3571759,3.91503811 84.6851502,3.78896656 85.0580467,3.78896656 C85.4608914,3.78896656 85.7965606,3.87804334 86.0947946,4.2560513 L86.0947946,2.20315189 L86.6317822,2.20315189 L86.6317822,7.47976267 L86.1022817,7.47976267 L86.1022817,7.04243908 C85.8038397,7.42788733 85.4608914,7.52419772 85.0580467,7.52419772 C84.6851502,7.52419772 84.3571759,7.39812617 84.1633446,7.20550539 C83.7904481,6.83493772 83.7157856,6.22731422 83.7157856,5.65668548 C83.7157856,5.08605674 83.7904481,4.47843323 84.1633446,4.10765889 L84.1633446,4.10765889 Z M88.6742901,4.24861101 C88.20427,4.24861101 87.9657244,4.35980198 87.7496399,4.66361373 L87.3840224,4.33004083 C87.7122046,3.90759782 88.0851011,3.78896656 88.6815692,3.78896656 C89.6661158,3.78896656 90.150902,4.21161625 90.150902,5.00442025 L90.150902,7.47976267 L89.6139144,7.47976267 L89.6139144,7.13130919 C89.3154724,7.42788733 89.0471866,7.52419772 88.5549133,7.52419772 C88.0476659,7.52419772 87.7496399,7.42788733 87.5181654,7.19083149 C87.3393081,7.01288461 87.2423925,6.73862733 87.2423925,6.44969615 C87.2423925,5.8123115 87.6899515,5.39730878 88.510199,5.39730878 L89.6139144,5.39730878 L89.6139144,5.0488553 C89.6139144,4.515428 89.3454206,4.24861101 88.6742901,4.24861101 L88.6742901,4.24861101 Z M90.6423434,3.85572248 L91.1046686,3.85572248 L91.1046686,2.714465 L91.6416562,2.714465 L91.6416562,3.85572248 L92.4246764,3.85572248 L92.4246764,4.26349159 L91.6416562,4.26349159 L91.6416562,6.48669092 C91.6416562,6.82005715 91.7982602,7.02032489 92.1412085,7.02032489 L92.4246764,7.02032489 L92.4246764,7.47976267 L92.0442929,7.47976267 C91.4176687,7.47976267 91.1046686,7.04243908 91.1046686,6.50157149 L91.1046686,4.26349159 L90.6423434,4.26349159 L90.6423434,3.85572248 L90.6423434,3.85572248 Z M93.0506767,3.83360829 L93.5874563,3.83360829 L93.5874563,7.47976267 L93.0506767,7.47976267 L93.0506767,3.83360829 Z M93.0207285,2.1957116 L93.6248916,2.1957116 L93.6248916,2.79610149 L93.0207285,2.79610149 L93.0207285,2.1957116 Z M94.7504442,4.20417596 C95.0041719,3.95223955 95.3543993,3.78896656 95.8019583,3.78896656 C96.2495173,3.78896656 96.5997447,3.95223955 96.8534724,4.20417596 C97.2263689,4.58197724 97.3010314,5.09349703 97.3010314,5.65668548 C97.3010314,6.21987393 97.2263689,6.73118704 96.8534724,7.109195 C96.5997447,7.36113141 96.2495173,7.52419772 95.8019583,7.52419772 C95.3543993,7.52419772 95.0041719,7.36113141 94.7504442,7.109195 C94.3775477,6.73118704 94.3030932,6.21987393 94.3030932,5.65668548 C94.3030932,5.09349703 94.3775477,4.58197724 94.7504442,4.20417596 L94.7504442,4.20417596 Z M98.0014862,3.83360829 L98.5382658,3.83360829 L98.5382658,4.23373044 C98.7994805,3.93735897 99.157195,3.78896656 99.5675267,3.78896656 C99.9626764,3.78896656 100.283372,3.90759782 100.507151,4.12997976 C100.76795,4.38191617 100.887535,4.72292936 100.887535,5.14537237 L100.887535,7.47976267 L100.350547,7.47976267 L100.350547,5.23424247 C100.350547,4.58941753 99.9999036,4.26349159 99.4481499,4.26349159 C98.8961882,4.26349159 98.5382658,4.59685782 98.5382658,5.23424247 L98.5382658,7.47976267 L98.0014862,7.47976267 L98.0014862,3.83360829 L98.0014862,3.83360829 Z M152.618242,23.8661699 L152.584342,17.5388251 L150.602771,17.5388251 L150.658508,11.211687 L145.456882,11.211687 L145.424646,7.30388253 L105.627043,7.30388253 L105.627043,0.0266610313 L25.7244516,0.0266610313 L25.7244516,7.30388253 L21.1694158,7.30388253 L21.1546497,11.2338012 L9.78182615,11.2594289 L9.8521212,23.8806371 L0.0858930603,23.8661699 L0,30.1893811 L15.8848089,30.1933079 L15.8769059,33.9411462 L132.811053,34.1013191 L132.811053,30.194548 L142.913574,30.1933079 L142.888617,23.8661699 L152.618242,23.8661699 L152.618242,23.8661699 Z" id="Fill-7" fill="#C9C9C9" mask="url(#mask-2)"></path>
                    </g>
                    <path d="M66.808787,18.3237755 C65.6967526,18.3237755 64.641911,18.9223053 63.9826349,19.7975725 C63.5760467,20.327073 63.4159071,20.6724263 63.1571881,21.3862806 L68.4403392,21.3862806 C68.6526801,20.6724263 68.6969785,20.327073 68.6399937,19.7975725 C68.5578442,18.9223053 67.9212373,18.3237755 66.808787,18.3237755" id="Fill-9" fill="#C9C9C9"></path>
                    <path d="M120.054581,18.4620408 C119.359326,18.4620408 118.704417,18.6922764 118.119596,19.1298066 C117.165829,19.8434543 116.670644,21.0636615 116.253034,22.3303705 C115.835631,23.5964594 115.525334,24.8172866 116.008665,25.5311409 C116.304611,25.9686712 116.800004,26.2218476 117.495051,26.2218476 C118.190515,26.2218476 118.876619,25.9686712 119.460817,25.5311409 C120.414584,24.8172866 120.909768,23.5964594 121.327587,22.3303705 C121.745406,21.0636615 122.055287,19.8434543 121.572164,19.1298066 C121.276426,18.6922764 120.749837,18.4620408 120.054581,18.4620408" id="Fill-10" fill="#C9C9C9"></path>
                    <path d="M97.7238415,24.7021689 C97.374446,25.7611698 97.8488336,26.3599063 99.3318927,26.3599063 C100.235538,26.3599063 100.930377,26.290877 101.753536,25.6923472 C102.214822,25.3467871 102.559434,24.7943458 102.832711,23.9653737 L103.144047,23.0212838 L100.386526,23.0212838 C98.9966394,23.0212838 98.073029,23.6429612 97.7238415,24.7021689" id="Fill-11" fill="#C9C9C9"></path>
                    <path d="M95.8019583,7.04987937 C96.0629651,7.04987937 96.3017186,6.95356898 96.4730888,6.78306238 C96.7415826,6.51624539 96.7640438,6.06424791 96.7640438,5.65668548 C96.7640438,5.24891637 96.7415826,4.79691889 96.4730888,4.5301019 C96.3017186,4.35980198 96.0629651,4.26349159 95.8019583,4.26349159 C95.5409515,4.26349159 95.309685,4.35980198 95.1381068,4.5301019 C94.869821,4.79691889 94.8400808,5.24891637 94.8400808,5.65668548 C94.8400808,6.06424791 94.869821,6.51624539 95.1381068,6.78306238 C95.309685,6.95356898 95.5409515,7.04987937 95.8019583,7.04987937" id="Fill-12" fill="#C9C9C9"></path>
                    <path d="M87.764406,6.44225587 C87.764406,6.86469887 88.0254127,7.06475995 88.6071147,7.06475995 C88.9203228,7.06475995 89.1963036,7.04243908 89.4273622,6.82005715 C89.554226,6.70163257 89.6139144,6.49413121 89.6139144,6.19031945 L89.6139144,5.79743092 L88.5846535,5.79743092 C88.0328998,5.79743092 87.764406,6.01981286 87.764406,6.44225587" id="Fill-13" fill="#C9C9C9"></path>
                    <path d="M74.2022453,7.04987937 C74.4632521,7.04987937 74.7017977,6.95356898 74.8733758,6.78306238 C75.1418696,6.51624539 75.1641228,6.06424791 75.1641228,5.65668548 C75.1641228,5.24891637 75.1418696,4.79691889 74.8733758,4.5301019 C74.7017977,4.35980198 74.4632521,4.26349159 74.2022453,4.26349159 C73.9412386,4.26349159 73.709972,4.35980198 73.5383939,4.5301019 C73.2699001,4.79691889 73.2401599,5.24891637 73.2401599,5.65668548 C73.2401599,6.06424791 73.2699001,6.51624539 73.5383939,6.78306238 C73.709972,6.95356898 73.9412386,7.04987937 74.2022453,7.04987937" id="Fill-14" fill="#C9C9C9"></path>
                    <path d="M85.1776315,7.04987937 C85.9754178,7.04987937 86.0947946,6.36805966 86.0947946,5.65668548 C86.0947946,4.94510462 85.9754178,4.26349159 85.1776315,4.26349159 C84.3796371,4.26349159 84.2527732,4.94510462 84.2527732,5.65668548 C84.2527732,6.36805966 84.3796371,7.04987937 85.1776315,7.04987937" id="Fill-15" fill="#C9C9C9"></path>
                </g>
            </g>
        </g>
    </g>
</svg>