<svg width="24" height="26" viewBox="0 0 24 26" fill="none" xmlns="http://www.w3.org/2000/svg">
<path d="M11.9082 3.64941C12.3249 3.64941 12.6634 3.78613 12.9238 4.05957C13.1842 4.3265 13.3145 4.67806 13.3145 5.11426V15.9541L13.168 19.6162L12.3574 19.0791L15.1895 15.8076L17.3965 13.6201C17.5202 13.4899 17.6667 13.3857 17.8359 13.3076C18.0052 13.223 18.194 13.1807 18.4023 13.1807C18.7865 13.1807 19.1055 13.3076 19.3594 13.5615C19.6198 13.8154 19.75 14.141 19.75 14.5381C19.75 14.9222 19.6035 15.2607 19.3105 15.5537L12.9531 21.9209C12.8229 22.0576 12.6634 22.1618 12.4746 22.2334C12.2858 22.3115 12.097 22.3506 11.9082 22.3506C11.7129 22.3506 11.5208 22.3115 11.332 22.2334C11.1497 22.1618 10.9935 22.0576 10.8633 21.9209L4.50586 15.5537C4.21289 15.2607 4.06641 14.9222 4.06641 14.5381C4.06641 14.141 4.19336 13.8154 4.44727 13.5615C4.70768 13.3076 5.02995 13.1807 5.41406 13.1807C5.6224 13.1807 5.80794 13.223 5.9707 13.3076C6.13997 13.3857 6.28971 13.4899 6.41992 13.6201L8.61719 15.8076L11.4492 19.0791L10.6387 19.6162L10.4922 15.9541V5.11426C10.4922 4.67806 10.6224 4.3265 10.8828 4.05957C11.1432 3.78613 11.485 3.64941 11.9082 3.64941Z" fill="#C97C00"/>
</svg>
