<svg width="16" height="16" viewBox="0 0 16 16" fill="none" xmlns="http://www.w3.org/2000/svg">
<path d="M2 7.5835H2.83333" stroke="#5C5C5C" stroke-width="1.33333" stroke-linecap="round" stroke-linejoin="round"/>
<path d="M3.8302 3.16382L4.41978 3.7534" stroke="#5C5C5C" stroke-width="1.33333" stroke-linecap="round" stroke-linejoin="round"/>
<path d="M8.25 1.3335V2.16683" stroke="#5C5C5C" stroke-width="1.33333" stroke-linecap="round" stroke-linejoin="round"/>
<path d="M12.6693 3.16382L12.0797 3.7534" stroke="#5C5C5C" stroke-width="1.33333" stroke-linecap="round" stroke-linejoin="round"/>
<path d="M14.5 7.5835H13.6666" stroke="#5C5C5C" stroke-width="1.33333" stroke-linecap="round" stroke-linejoin="round"/>
<path fill-rule="evenodd" clip-rule="evenodd" d="M12 7.5835C12 5.51225 10.3213 3.8335 8.25 3.8335C6.17875 3.8335 4.5 5.51225 4.5 7.5835C4.5 8.75946 5.04247 9.80666 5.88994 10.4932C6.28313 10.8117 6.58333 11.2588 6.58333 11.7648V13.1668C6.58333 13.9032 7.18029 14.5002 7.91667 14.5002H8.58333C9.31971 14.5002 9.91667 13.9032 9.91667 13.1668V11.7648C9.91667 11.2588 10.2169 10.8117 10.6101 10.4932C11.4575 9.80666 12 8.75946 12 7.5835Z" stroke="#5C5C5C" stroke-width="1.33333" stroke-linecap="round" stroke-linejoin="round"/>
<path d="M6.58337 12.0001H9.91671" stroke="#5C5C5C" stroke-width="1.33333" stroke-linecap="round" stroke-linejoin="round"/>
</svg>
