<svg width="16" height="16" viewBox="0 0 16 16" fill="none" xmlns="http://www.w3.org/2000/svg">
<path d="M4.18127 13.5709C4.17542 13.5662 4.17233 13.563 4.17105 13.5616C4.16967 13.5601 4.16959 13.5598 4.16996 13.5604C4.17034 13.561 4.17009 13.5608 4.1694 13.5589C4.16867 13.5569 4.16697 13.5518 4.16535 13.5424C4.15737 13.4963 4.15536 13.3931 4.21845 13.2093L4.21847 13.2093L4.21998 13.2048L5.39228 9.71739L5.56707 9.19739L5.12156 8.87729L2.12896 6.7271L2.12898 6.72708L2.12431 6.72378C1.96774 6.6131 1.90247 6.52706 1.87664 6.47908C1.87694 6.47818 1.87727 6.47719 1.87765 6.47614L1.87769 6.47615L1.88046 6.46803C1.8826 6.46173 1.88441 6.45759 1.88557 6.45519C1.887 6.45429 1.88905 6.45309 1.89184 6.45164L1.89185 6.45166L1.89707 6.44888C1.94164 6.42517 2.03895 6.39176 2.22679 6.39446L2.23145 6.3945L5.9074 6.42395L6.45491 6.42834L6.62122 5.90667L7.74048 2.3957C7.74049 2.39569 7.74049 2.39568 7.74049 2.39567C7.8039 2.19681 7.8686 2.11286 7.8983 2.08396L7.8985 2.08378C7.90186 2.0805 7.90444 2.07829 7.9062 2.07688C7.90841 2.07667 7.91172 2.07646 7.91627 2.07646C7.91797 2.07646 7.91948 2.07649 7.92081 2.07654C7.92091 2.07663 7.921 2.07672 7.92109 2.07682L7.92819 2.08392L7.93548 2.09082C7.96539 2.11916 8.02979 2.20056 8.09195 2.39538C8.09198 2.39549 8.09201 2.39559 8.09205 2.3957L9.20508 5.90559L9.37086 6.42834L9.91925 6.42395L13.5952 6.39451L13.5997 6.39445C13.7946 6.3917 13.8879 6.42628 13.9237 6.44572L13.9321 6.45028L13.9406 6.45462C13.9429 6.45579 13.9447 6.45679 13.946 6.45757C13.9471 6.46008 13.9488 6.46403 13.9507 6.4697C13.9513 6.47156 13.9518 6.47321 13.9522 6.47466L13.9469 6.48549C13.9274 6.52533 13.8691 6.61008 13.7082 6.72378L13.7082 6.72377L13.7041 6.72669L10.7056 8.87689L10.2587 9.19739L10.4347 9.71846L11.6129 13.2059L11.6129 13.2059L11.6141 13.2093C11.6772 13.3931 11.6752 13.4963 11.6672 13.5424L12.3993 13.6691L11.6672 13.5424C11.6659 13.5496 11.6647 13.5536 11.6642 13.5551C11.664 13.5553 11.6639 13.5555 11.6637 13.5557C11.6621 13.5574 11.6578 13.5616 11.6494 13.5679L11.6493 13.5679L11.6454 13.5709C11.5921 13.5625 11.4861 13.5282 11.3232 13.4106L8.35671 11.2269L7.9167 10.903L7.47639 11.2265L4.50147 13.412L4.50062 13.4127C4.34394 13.5281 4.23907 13.5621 4.18245 13.5707L4.18127 13.5709Z" stroke="#5C5C5C" stroke-width="1.48593"/>
</svg>
