<svg width="16" height="16" viewBox="0 0 16 16" fill="none" xmlns="http://www.w3.org/2000/svg">
<path fill-rule="evenodd" clip-rule="evenodd" d="M7.99998 1H7.66665V3.94301C7.63789 3.95963 7.61009 3.97858 7.58352 3.99984L4.91685 6.13317C4.75871 6.25969 4.66665 6.45123 4.66665 6.65375V9H1.99998C1.63179 9 1.33331 9.29848 1.33331 9.66667V14.3333C1.33331 14.7015 1.63179 15 1.99998 15H6.66673V11H9.3334V15H14C14.3682 15 14.6666 14.7015 14.6666 14.3333V9.66667C14.6666 9.29848 14.3682 9 14 9H11.3333V6.65375C11.3333 6.45123 11.2413 6.25969 11.0831 6.13317L8.41644 3.99984C8.38987 3.97858 8.36207 3.95963 8.33331 3.94301V3H9.99998C10.3682 3 10.6666 2.70152 10.6666 2.33333V1.66667C10.6666 1.29848 10.3682 1 9.99998 1H8.33331H7.99998ZM6.66673 7.33333H9.3334V8.66667H6.66673V7.33333ZM5.33339 11H2.66673V12.3333H5.33339V11ZM10.6667 11H13.3334V12.3333H10.6667V11Z" fill="#5C5C5C"/>
</svg>
