<svg width="16" height="16" viewBox="0 0 16 16" fill="none" xmlns="http://www.w3.org/2000/svg">
<path d="M4.18115 13.5707C4.1753 13.5661 4.1722 13.5629 4.17093 13.5615C4.16955 13.56 4.16947 13.5597 4.16984 13.5603C4.17021 13.5609 4.16997 13.5607 4.16928 13.5588C4.16855 13.5568 4.16685 13.5517 4.16523 13.5423C4.15725 13.4962 4.15524 13.393 4.21833 13.2092L4.21834 13.2092L4.21986 13.2047L5.39216 9.71727L5.56695 9.19727L5.12144 8.87717L2.12884 6.72698L2.12885 6.72696L2.12418 6.72366C1.96762 6.61298 1.90235 6.52694 1.87652 6.47896C1.87682 6.47805 1.87715 6.47707 1.87752 6.47602L1.87757 6.47603L1.88034 6.46791C1.88247 6.46161 1.88428 6.45747 1.88544 6.45507C1.88688 6.45417 1.88893 6.45297 1.89172 6.45152L1.89173 6.45154L1.89695 6.44876C1.94152 6.42505 2.03883 6.39164 2.22667 6.39434L2.23133 6.39437L5.90727 6.42383L6.45479 6.42822L6.62109 5.90655L7.74036 2.39558C7.74037 2.39557 7.74037 2.39556 7.74037 2.39555C7.80378 2.19669 7.86848 2.11274 7.89818 2.08384L7.89838 2.08365C7.90174 2.08038 7.90432 2.07817 7.90608 2.07676C7.90829 2.07655 7.9116 2.07634 7.91614 2.07634C7.91785 2.07634 7.91936 2.07637 7.92069 2.07642C7.92078 2.07651 7.92088 2.0766 7.92097 2.0767L7.92807 2.08379L7.93536 2.0907C7.96527 2.11904 8.02967 2.20044 8.09182 2.39526C8.09186 2.39537 8.09189 2.39547 8.09193 2.39558L9.20496 5.90547L9.37073 6.42822L9.91912 6.42383L13.5951 6.39439L13.5996 6.39432C13.7945 6.39158 13.8878 6.42616 13.9236 6.4456L13.932 6.45016L13.9405 6.4545C13.9428 6.45567 13.9445 6.45666 13.9459 6.45745C13.947 6.45996 13.9486 6.4639 13.9505 6.46958C13.9512 6.47144 13.9517 6.47309 13.9521 6.47454L13.9468 6.48537C13.9273 6.52521 13.8689 6.60996 13.7081 6.72366L13.7081 6.72364L13.704 6.72657L10.7055 8.87676L10.2586 9.19727L10.4346 9.71834L11.6128 13.2058L11.6128 13.2058L11.614 13.2092C11.677 13.393 11.675 13.4962 11.6671 13.5423L12.3991 13.669L11.6671 13.5423C11.6658 13.5494 11.6646 13.5534 11.664 13.555C11.6639 13.5552 11.6637 13.5553 11.6636 13.5555C11.662 13.5573 11.6577 13.5615 11.6493 13.5678L11.6492 13.5677L11.6453 13.5708C11.5919 13.5624 11.486 13.5281 11.3231 13.4105L8.35659 11.2268L7.91658 10.9029L7.47627 11.2264L4.50134 13.4119L4.5005 13.4125C4.34382 13.528 4.23894 13.562 4.18233 13.5706L4.18115 13.5707Z" stroke="white" stroke-width="1.48593"/>
</svg>
