<svg width="16" height="16" viewBox="0 0 16 16" fill="none" xmlns="http://www.w3.org/2000/svg">
<path fill-rule="evenodd" clip-rule="evenodd" d="M5.66667 5.66671C5.66667 4.37804 6.71134 3.33337 8 3.33337C9.28866 3.33337 10.3333 4.37804 10.3333 5.66671C10.3333 6.95537 9.28866 8.00004 8 8.00004C6.71134 8.00004 5.66667 6.95537 5.66667 5.66671ZM2 7.00004C2 6.07957 2.74619 5.33337 3.66667 5.33337C3.90667 5.33337 4.13333 5.38671 4.33333 5.48004V5.66671C4.33333 6.46671 4.59333 7.24004 5.08 7.87337C4.92667 8.11337 4.72 8.31337 4.47333 8.45337C4.23333 8.58671 3.96 8.66671 3.66667 8.66671C3.37333 8.66671 3.1 8.58671 2.86 8.45337C2.35333 8.16671 2 7.62671 2 7.00004ZM12.3333 5.33337C12.0933 5.33337 11.8666 5.38671 11.6666 5.48004V5.66671C11.6666 6.46671 11.4066 7.24004 10.9199 7.87337C10.9999 8.00004 11.0866 8.10004 11.1866 8.20004C11.2933 8.30004 11.3999 8.38671 11.5266 8.45337C11.7666 8.58671 12.0399 8.66671 12.3333 8.66671C12.6266 8.66671 12.8999 8.58671 13.1399 8.45337C13.6466 8.16671 13.9999 7.62671 13.9999 7.00004C13.9999 6.07957 13.2537 5.33337 12.3333 5.33337ZM3.33333 11.6667C3.33333 10.1134 6.44 9.33337 8 9.33337C9.56 9.33337 12.6667 10.1134 12.6667 11.6667V12.6667H3.33333V11.6667ZM3.14 9.70007C1.85333 9.85341 0 10.5067 0 11.6667V12.6667H2V11.3801C2 10.7067 2.46 10.1467 3.14 9.70007ZM14 11.3801C14 10.7067 13.54 10.1467 12.86 9.70007C14.1467 9.85341 16 10.5067 16 11.6667V12.6667H14V11.3801Z" fill="#5C5C5C"/>
</svg>
