<svg width="16" height="16" viewBox="0 0 16 16" fill="none" xmlns="http://www.w3.org/2000/svg">
<path fill-rule="evenodd" clip-rule="evenodd" d="M14.0007 2.66671V4.00018V8.06004V9.39351C14.0007 10.1299 13.4037 10.7268 12.6673 10.7268H6.33337V9.39351H12.6673L12.6673 7.31158L12.6673 4.74864L12.6673 2.66671H6.00067C6.00067 2.20004 5.874 1.74004 5.64067 1.33337H12.6673C13.4037 1.33337 14.0007 1.93033 14.0007 2.66671ZM9.33337 4.66671V6.00004H5.33337V14.6667H4.00004V10.6667H2.66671V14.6667H1.33337V9.33337H0.333374V6.00004C0.333374 5.26366 0.930328 4.66671 1.66671 4.66671H9.33337ZM3.33337 4.00004C4.06975 4.00004 4.66671 3.40309 4.66671 2.66671C4.66671 1.93033 4.06975 1.33337 3.33337 1.33337C2.59699 1.33337 2.00004 1.93033 2.00004 2.66671C2.00004 3.40309 2.59699 4.00004 3.33337 4.00004Z" fill="#5C5C5C"/>
</svg>
