<svg xmlns="http://www.w3.org/2000/svg" xmlns:xlink="http://www.w3.org/1999/xlink" width="300" height="100" viewBox="0 0 300 100">
    <defs>
        <path id="a" d="M.035.005H5.57v6.98H.035z"/>
        <path id="c" d="M.05.005h5.534v6.98H.05z"/>
        <path id="e" d="M.004.05h5.92v9.576H.003z"/>
    </defs>
    <g fill="none" fill-rule="evenodd">
        <path fill="#FFF" d="M0 0h300v100H0z"/>
        <path fill="#4D8AC3" d="M35 39.589c2.13.006 4.258.013 6.387.022.037 0 .074.037.157.082v2.65c.115-.106.17-.14.202-.187 1.004-1.46 2.427-2.31 4.089-2.81 1.932-.58 3.859-.448 5.729.207 1.816.636 2.983 1.96 3.547 3.803.262.858.363 1.74.45 2.634.074.765.046 1.523.049 2.283.014 3.804.007 7.61.005 11.414 0 .194-.021.387-.034.61h-.543c-1.803 0-3.606-.003-5.409.002-.175 0-.35.04-.515.117l-.4-.156v-.497c0-3.876-.004-7.752-.001-11.628 0-.663-.11-1.314-.378-1.907-.23-.51-.576-.99-1.135-1.208-1.112-.435-2.24-.514-3.348-.002-.707.327-1.165.93-1.525 1.599-.055.101.008.267.019.438-.217.179-.485.381-.249.727-.071.082-.176.146-.19.227a5.174 5.174 0 0 0-.085.843c-.005 3.592-.003 7.184-.005 10.776 0 .194-.019.389-.033.663l-2.27.005h-2.257c-.752-.001-1.505-.005-2.257-.007v-20.7zM166.696 24l.004 18.524v.61c.128.04.238.077.348.112.025-.02.055-.032.068-.054.86-1.382 1.96-2.524 3.35-3.378.168-.104.366-.16.534-.263.14-.088.258-.214.364-.305.176-.012.355.012.508-.042 1.214-.424 2.462-.342 3.707-.248.97.074 1.897.316 2.763.783.876.473 1.555 1.124 1.99 2.028.349.723.507 1.49.508 2.282.01 4.868.006 9.737.006 14.606v.648c.684.085 1.332.03 1.976.04.634.01 1.269.002 1.923.002v.834h-11.957v-.793c.19-.015.354-.04.519-.04.908-.003 1.817.001 2.725-.003.52-.002.623-.103.623-.626.001-5.139.007-10.277-.007-15.415-.002-.722-.1-1.441-.42-2.109-.452-.941-1.243-1.376-2.24-1.42-1.726-.078-3.152.596-4.413 1.757-1.146 1.056-1.97 2.325-2.692 3.676a1.613 1.613 0 0 0-.175.729c-.01 4.3-.008 8.602-.006 12.902 0 .14.015.279.028.487 1.236.05 2.45-.002 3.692.03v.774c-.26.097-10.956.16-11.81.06v-.863h3.723c.122-.362.146-32.726.025-33.253h-3.73l-.038-.858c.125-.014.205-.031.286-.031 1.433 0 2.867.027 4.3-.01a9.149 9.149 0 0 0 1.845-.26 2.884 2.884 0 0 0 1.503-.913h.17zM243.533 24l.004 17.5v17.824c1.325.05 2.607-.003 3.906.032v.822h-12.041v-.82h3.75c.139-.366.182-32.613.061-33.257-.147-.016-.31-.047-.472-.047-.936-.005-1.873-.001-2.81-.004-.166 0-.331-.02-.536-.033v-.778c.168-.019.331-.05.494-.051 1.362-.004 2.725.008 4.087-.007.783-.008 1.557-.113 2.29-.41.422-.17.826-.379 1.097-.771h.17zM265 54.496c-.143.562-.258 1.133-.437 1.683-.274.843-.74 1.584-1.267 2.297-.583.788-1.381 1.28-2.223 1.702-.858.429-1.79.611-2.756.633-1.848.04-3.532-.432-5.042-1.513-.293-.21-.622-.372-.945-.537-.317-.162-.634.07-.686.508-.041.351-.053.706-.079 1.06-.003.04-.017.081-.035.166-.11.016-.23.045-.351.048-.432.009-.509-.09-.507-.526.007-1.915.007-3.831.002-5.747 0-.254-.056-.507-.067-.761-.006-.15.026-.303.047-.506l.683-.039c.051.21.095.38.135.551.08.344.147.692.245 1.03.024.082.15.134.186.164 0 .198-.043.382.007.536.326.992.79 1.933 1.52 2.673.798.807 1.691 1.529 2.857 1.777.984.209 1.973.37 2.974.123.225-.056.433-.184.649-.276.062-.027.13-.074.19-.067.364.045.637-.167.88-.366.416-.343.942-.604 1.088-1.198.923-1.121.947-2.428.676-3.743-.204-.994-.788-1.776-1.745-2.216-.773-.356-1.6-.494-2.438-.604-1.235-.162-2.476-.3-3.699-.53-1-.188-1.928-.597-2.622-1.385-.23-.262-.382-.593-.573-.89-.08-.124-.171-.24-.25-.35-.056-.27-.108-.544-.17-.816-.344-1.525-.33-3.039.16-4.532.46-1.409 1.369-2.461 2.625-3.228.156-.095.304-.203.512-.344.096-.013.292-.01.469-.069 1.13-.38 2.278-.372 3.445-.227.527.066 1.007.262 1.483.456.496.202.956.492 1.432.744l.767.404c.34-.269.345-.286.378-1.362h.759l.2 5.86h-.774c-.141-1.48-.594-2.801-1.65-3.845-.93-.92-2.076-1.398-3.381-1.463-.78-.038-1.56-.031-2.315.23-1.515.525-2.502 1.487-2.725 3.146-.081.599-.036 1.168.18 1.71.314.79.857 1.337 1.673 1.691 1.257.546 2.568.627 3.898.714 1.043.069 2.094.104 3.108.426 1.044.332 1.941.866 2.582 1.767.433.61.648 1.32.835 2.035.025.095.061.187.092.28v2.726zM102.703 57.432c-.706-3.025-1.423-6.047-2.137-9.07-.088-.373-.169-.747-.261-1.118a.77.77 0 0 0-.213-.379c-.262 1.13-.521 2.259-.786 3.387-.27 1.153-.548 2.303-.819 3.456-.224.953-.44 1.907-.663 2.86-.13.551-.268 1.1-.39 1.654-.029.133-.004.278-.004.425-.378.496-.306 1.152-.478 1.707-.338-.02-.67-.054-1.002-.055-1.548-.006-3.095-.003-4.643-.003h-1.273c-1.192-3.724-2.382-7.445-3.578-11.164-.004-.014-.075-.008-.08-.008-.009-.176.019-.348-.029-.496-.244-.767-.517-1.525-.762-2.292-.102-.32-.145-.661-.244-.984-.491-1.606-.992-3.209-1.491-4.813-.087-.28-.182-.558-.272-.833.315-.138 6.141-.19 6.927-.063L93.9 52.72l.078-.002c.124-.519.255-1.037.37-1.558.281-1.272.56-2.546.827-3.822.052-.246.211-.51.013-.717.087-.158.2-.287.232-.433.33-1.481.642-2.967.97-4.448.16-.717.344-1.427.52-2.153h5.975c.518 0 .535.015.65.523.24 1.065.477 2.132.718 3.197.276 1.224.554 2.447.832 3.67.391 1.713.784 3.426 1.174 5.14.047.204.08.412.12.618l.087.01 3.325-13.135h6.909c.06.474-.369.855-.178 1.235-.102.146-.212.242-.242.36-.087.339-.11.696-.215 1.028-.147.462-.364.9-.52 1.359-.232.684-.439 1.378-.653 2.068-.39 1.26-.777 2.52-1.167 3.779-.2.65-.412 1.296-.602 1.95-.04.135-.006.293-.006.392-.08.111-.167.19-.2.289a72.32 72.32 0 0 0-.613 1.858c-.46 1.475-.912 2.954-1.37 4.43-.196.636-.397 1.27-.605 1.933h-6.922c-.025-.067-.067-.153-.088-.244M66.684 47.725h8.174c-.016-.247-.002-.458-.048-.654-.214-.928-.685-1.7-1.364-2.376-.437-.436-.962-.685-1.508-.878-.68-.241-1.401-.176-2.098-.015-.21.048-.399.19-.597.29-.135.072-.308.092-.442.174-1.257.778-1.847 1.969-2.117 3.46m-.033 3.999c.037.898.213 1.7.709 2.41.111.16.176.354.286.516.431.637 1.046 1.037 1.765 1.26.496.153 1.01.278 1.526.329.4.039.828-.004 1.218-.107a7.962 7.962 0 0 0 1.458-.561c.253-.125.482-.342.662-.566.204-.255.512-.441.568-.82.012-.084.236-.18.37-.194.296-.03.596-.01.894-.01 1.547 0 3.094-.001 4.642.002.18 0 .359.024.59.041-.027.192-.03.345-.074.485-.223.718-.49 1.413-.915 2.045-.415.614-.881 1.172-1.416 1.687-.894.862-1.964 1.409-3.099 1.854-1.873.735-3.833.892-5.815.78-1.61-.093-3.17-.455-4.634-1.158-.406-.195-.803-.41-1.225-.628-.159-.126-.346-.27-.527-.42-.867-.72-1.653-1.529-2.245-2.484a9.96 9.96 0 0 1-1.423-3.978 20.847 20.847 0 0 1-.176-2.455c-.023-1.962.511-3.782 1.495-5.475.073-.126.113-.27.19-.458.128-.135.328-.304.479-.51.85-1.167 1.95-2.035 3.169-2.785 1.304-.803 2.742-1.192 4.225-1.418 1.66-.253 3.304-.09 4.932.318 1.23.309 2.337.881 3.359 1.597.526.368.953.887 1.393 1.368 1.249 1.366 1.936 3.03 2.37 4.79.344 1.394.436 2.828.36 4.267-.003.053-.032.105-.064.203-.187.012-.38.035-.572.035-4.628.002-9.255 0-13.883.003-.192 0-.384.023-.592.037M195.083 40.363c-.312-.14-.563.026-.82.187-.787.49-1.28 1.218-1.606 2.058a7.676 7.676 0 0 0-.447 1.568c-.116.74-.197 1.493-.196 2.24.002 2.68.031 5.36.08 8.04.015.881.185 1.747.51 2.574.526 1.343 1.467 2.233 2.868 2.615a8.195 8.195 0 0 0 3.072.238c.956-.103 1.827-.321 2.635-.906.863-.625 1.396-1.431 1.696-2.407.356-1.158.43-2.367.433-3.567.008-2.566-.02-5.133-.087-7.699-.02-.788-.001-1.623-.526-2.314-.022-.03-.008-.083-.018-.123-.054-.216-.08-.446-.172-.645-.544-1.173-1.499-1.869-2.714-2.206-1.32-.365-2.659-.344-3.992-.078-.047.288-.117.303-.417.106-.036.018-.086.026-.11.056-.063.073-.113.155-.189.263m-6.447 3.635l1.278-1.783c.349-.207.737-.578.998-1.03.238-.147.46-.27.668-.413 1.012-.691 2.09-1.228 3.283-1.552.861-.234 1.726-.323 2.612-.325.895-.003 1.78.034 2.66.246 1.256.303 2.42.797 3.472 1.546a10.534 10.534 0 0 1 2.98 3.277c.118.2.289.37.466.594-.022.232.375 1.278.58 1.446.038.206-.107.483.197.59 0 .161-.03.342.005.508.37 1.743.389 3.484.043 5.234-.265 1.341-.804 2.564-1.504 3.726-.12.2-.192.438-.341.61-1.022 1.185-2.124 2.277-3.532 3.01-1.415.738-2.927 1.07-4.513 1.128a10.947 10.947 0 0 1-3.444-.438c-.529-.152-1.094-.269-1.555-.547-1.522-.92-2.925-1.98-3.896-3.53-.436-.696-.857-1.397-1.125-2.166a16.999 16.999 0 0 1-.637-2.378 9.376 9.376 0 0 1-.17-1.986c.024-.99.1-1.988.4-2.939.252-.795.586-1.564.879-2.347.063-.168.103-.345.153-.518l.043.037M227.938 49.612c-.03-1.565.078-3.353-.162-5.134-.124-.92-.378-1.789-.834-2.595-.466-.824-1.171-1.37-2.05-1.705-.988-.377-2.017-.476-3.057-.404-.59.04-1.171.19-1.76.262-.615.076-1.04.517-1.536.801-.57.328-.935.913-1.193 1.516-.522 1.216-.7 2.514-.715 3.823-.029 2.47-.038 4.94.007 7.41.017.886.18 1.775.34 2.65a4.42 4.42 0 0 0 1.08 2.191c.657.723 1.513 1.14 2.467 1.336.965.198 1.943.27 2.916.087.568-.106 1.15-.223 1.675-.451.432-.188.805-.528 1.178-.832.664-.54.98-1.303 1.208-2.09.343-1.18.415-2.4.433-3.62.015-1.008.003-2.016.003-3.245m.29-9.04c.082.111.149.27.269.352.737.5 1.343 1.138 1.88 1.834.38.491.718 1.02 1.018 1.564a10.477 10.477 0 0 1 1.196 3.567c.305 2.08.166 4.122-.587 6.113-.406 1.074-.937 2.075-1.641 2.964-.576.727-1.266 1.359-2.013 1.932-1.36 1.046-2.919 1.559-4.577 1.813-1.83.281-3.635.079-5.351-.592-.821-.32-1.602-.794-2.326-1.305-1.658-1.17-2.76-2.803-3.508-4.66-.45-1.117-.667-2.304-.766-3.517-.092-1.115.027-2.207.206-3.295.084-.512.271-1.01.447-1.503.818-2.292 2.241-4.111 4.29-5.433A9.286 9.286 0 0 1 220.558 39c1.79-.248 3.568-.165 5.279.458.661.24 1.272.618 1.91.927.149.073.31.122.48.187M152.178 40.969h-.248c.025-.384-.195-.564-.513-.694-1.24-.509-2.525-.597-3.843-.45-.757.085-1.474.264-2.135.66-.676.407-1.222.899-1.619 1.618a7.442 7.442 0 0 0-.83 2.348c-.13.751-.204 1.52-.214 2.282a231.8 231.8 0 0 0 0 6.388c.015 1.033.061 2.078.36 3.074.184.612.408 1.2.779 1.766.804 1.227 1.974 1.67 3.31 1.89a7.587 7.587 0 0 0 3.61-.275c1.285-.416 2.428-1.085 3.26-2.194.279-.373.554-.749.827-1.117-.068-.084-.109-.134-.131-.163.783-.799.866-1.856 1.1-2.867h.826c.066.527-.052 1.01-.171 1.485-.348 1.393-1.05 2.604-2.031 3.633-.688.72-1.52 1.267-2.431 1.688-1.863.86-3.804.915-5.789.597-1.19-.19-2.3-.597-3.367-1.149-1.043-.54-1.895-1.315-2.658-2.184-1.167-1.33-1.847-2.905-2.138-4.639a12.139 12.139 0 0 1 .067-4.483c.279-1.36.728-2.658 1.443-3.848.732-1.219 1.594-2.345 2.77-3.174.752-.529 1.508-1.08 2.335-1.467.733-.342 1.554-.556 2.359-.68 1.982-.304 3.937-.141 5.803.652.962.409 1.813.975 2.404 1.875.648.988.775 2.39.14 3.419a2.08 2.08 0 0 1-1.358.954c-.969.217-1.925.076-2.612-.795-.678-.86-.594-2.28.168-3.058.158-.162.314-.328.46-.502.145-.174.211-.368.067-.59M130.986 40.555c.35-.383.078-.884.257-1.347h.745c.015.177.035.328.039.48.033 1.36.059 2.722.097 4.082.012.42.058.838.092 1.31h-.785c-.195-.995-.275-1.964-.966-2.788.024-.35-.272-.609-.505-.875a4.632 4.632 0 0 0-2.364-1.438c-1.26-.325-2.531-.352-3.768.12-1.16.443-2.011 1.201-2.367 2.437-.076.264-.05.537-.135.81-.083.266-.05.604.037.879.138.437.156.915.479 1.297.479.566 1.042.978 1.752 1.213.994.33 2.018.45 3.052.51 1.104.065 2.207.105 3.29.358.821.192 1.528.59 2.163 1.127 1.09.925 1.503 2.175 1.625 3.535.136 1.502-.073 2.974-.576 4.395-.116.328-.355.611-.51.928-.451.915-1.204 1.546-2.01 2.112-.822.579-1.75.91-2.756 1.035a8.823 8.823 0 0 1-4.062-.433c-.87-.304-1.55-.915-2.346-1.334-.05-.026-.09-.069-.14-.098-.549-.326-.9-.151-.962.482-.035.365-.067.73-.105 1.145h-.797c-.016-.187-.042-.351-.043-.516-.006-1.136.003-2.272-.01-3.407-.014-1.006-.052-2.012-.075-3.018-.004-.167.013-.334.023-.547h.71c.21.836.262 1.693.75 2.515-.025.542.35 1.029.663 1.525.645 1.025 1.483 1.86 2.618 2.333 1.257.523 2.567.726 3.914.432 1.42-.31 2.535-1.08 3.16-2.412a4.61 4.61 0 0 0 .286-3.2 3.612 3.612 0 0 0-.878-1.599c-.624-.669-1.398-.9-2.208-1.063-.872-.176-1.766-.246-2.65-.361-1.026-.134-2.05-.243-3.032-.62-1.572-.605-2.474-1.726-2.773-3.368-.224-1.228-.248-2.45.013-3.675a5.919 5.919 0 0 1 .822-1.996c1.117-1.722 2.748-2.514 4.771-2.63 1.645-.093 3.098.417 4.48 1.24.211.126.468.173.7.266.095.039.182.1.285.16"/>
        <path fill="#6D6E6F" d="M76.7 74.774l-2.596-6.826h1.22l1.466 4.088c.159.441.304.9.437 1.375.103-.36.247-.792.431-1.298l1.517-4.165h1.189l-2.584 6.826H76.7zM89.38 70.705h3.812c-.051-.574-.197-1.004-.437-1.291a1.773 1.773 0 0 0-1.433-.669c-.531 0-.978.178-1.34.534-.362.355-.562.83-.601 1.426m3.798 1.87l1.196.149c-.189.698-.538 1.24-1.048 1.626-.51.385-1.161.578-1.954.578-.998 0-1.79-.307-2.374-.922-.585-.615-.878-1.477-.878-2.587 0-1.148.296-2.04.887-2.674.591-.634 1.358-.951 2.301-.951.913 0 1.658.31 2.237.932.578.621.867 1.495.867 2.622 0 .069-.002.172-.006.309h-5.09c.042.75.255 1.324.636 1.722.381.399.857.598 1.427.598.424 0 .786-.111 1.086-.334.3-.223.538-.579.713-1.067M102.948 74.774v-6.826h1.042v.97c.501-.75 1.225-1.124 2.172-1.124.411 0 .79.074 1.135.222.344.147.603.341.774.581.171.24.291.525.36.855.043.214.064.59.064 1.125v4.197h-1.157v-4.152c0-.471-.045-.824-.135-1.057-.09-.234-.25-.42-.479-.56a1.524 1.524 0 0 0-.806-.208c-.493 0-.918.156-1.276.469-.358.313-.537.906-.537 1.78v3.728h-1.157zM119.916 73.739l.167 1.022a4.29 4.29 0 0 1-.874.103c-.42 0-.746-.067-.977-.2a1.115 1.115 0 0 1-.488-.523c-.095-.217-.142-.672-.142-1.366v-3.927h-.848v-.9h.848v-1.69l1.15-.694v2.384h1.164v.9h-1.163v3.991c0 .33.02.542.06.636a.48.48 0 0 0 .2.226c.092.055.224.083.395.083.129 0 .298-.015.508-.045"/>
        <g transform="translate(128.107 67.943)">
            <mask id="b" fill="#fff">
                <use xlink:href="#a"/>
            </mask>
            <path fill="#6D6E6F" d="M4.534 6.831V5.828c-.531.772-1.253 1.157-2.166 1.157-.402 0-.778-.077-1.128-.231C.891 6.6.632 6.406.463 6.172a2.178 2.178 0 0 1-.357-.858c-.047-.227-.07-.587-.07-1.08V.005h1.156v3.786c0 .604.024 1.011.07 1.221.074.304.228.543.464.717.235.173.527.26.874.26s.672-.089.977-.267c.304-.178.52-.42.646-.726s.19-.75.19-1.334V.005h1.156v6.826H4.534z" mask="url(#b)"/>
        </g>
        <path fill="#6D6E6F" d="M142.597 74.774v-6.826h1.041v1.035c.266-.484.511-.803.736-.958.225-.154.473-.231.743-.231.39 0 .786.124 1.189.373l-.399 1.073a1.655 1.655 0 0 0-.848-.25c-.253 0-.48.075-.682.227a1.236 1.236 0 0 0-.43.634 4.503 4.503 0 0 0-.193 1.35v3.573h-1.157zM154.989 70.705h3.811c-.051-.574-.197-1.004-.437-1.291a1.773 1.773 0 0 0-1.433-.669c-.532 0-.978.178-1.34.534-.363.355-.563.83-.601 1.426m3.798 1.87l1.196.149c-.19.698-.538 1.24-1.048 1.626-.51.385-1.161.578-1.954.578-.998 0-1.79-.307-2.375-.922s-.877-1.477-.877-2.587c0-1.148.296-2.04.887-2.674.591-.634 1.358-.951 2.3-.951.913 0 1.659.31 2.237.932.579.621.868 1.495.868 2.622 0 .069-.002.172-.006.309h-5.09c.042.75.254 1.324.636 1.722.38.399.857.598 1.426.598.425 0 .787-.111 1.087-.334.3-.223.537-.579.713-1.067M179.61 74.774v-5.926h-1.021v-.9h1.022v-.726c0-.459.04-.8.122-1.022.111-.3.307-.543.588-.73.28-.186.674-.28 1.18-.28.325 0 .685.04 1.08.117l-.174 1.009a3.891 3.891 0 0 0-.682-.065c-.351 0-.6.075-.745.225-.146.15-.219.43-.219.842v.63h1.33v.9h-1.33v5.926h-1.15z"/>
        <g transform="translate(190.037 67.943)">
            <mask id="d" fill="#fff">
                <use xlink:href="#c"/>
            </mask>
            <path fill="#6D6E6F" d="M4.549 6.831V5.828c-.531.772-1.253 1.157-2.166 1.157-.403 0-.779-.077-1.128-.231-.35-.154-.609-.348-.778-.582a2.178 2.178 0 0 1-.356-.858C.073 5.087.05 4.727.05 4.234V.005h1.157v3.786c0 .604.023 1.011.07 1.221.073.304.227.543.463.717.236.173.527.26.874.26s.673-.089.977-.267c.304-.178.52-.42.646-.726s.19-.75.19-1.334V.005h1.157v6.826H4.549z" mask="url(#d)"/>
        </g>
        <path fill="#6D6E6F" d="M204.554 74.774v-6.826h1.041v.97c.502-.75 1.226-1.124 2.173-1.124.411 0 .79.074 1.134.222.345.147.603.341.775.581.171.24.291.525.36.855.042.214.064.59.064 1.125v4.197h-1.157v-4.152c0-.471-.045-.824-.135-1.057-.09-.234-.25-.42-.479-.56a1.524 1.524 0 0 0-.806-.208c-.493 0-.919.156-1.276.469-.358.313-.537.906-.537 1.78v3.728h-1.157z"/>
        <g transform="translate(218.574 65.302)">
            <mask id="f" fill="#fff">
                <use xlink:href="#e"/>
            </mask>
            <path fill="#6D6E6F" d="M1.193 6.065c0 .874.184 1.528.553 1.96.368.433.803.65 1.305.65.505 0 .935-.207 1.288-.62.354-.414.53-1.045.53-1.893 0-.934-.18-1.62-.54-2.057-.36-.437-.803-.656-1.33-.656-.514 0-.944.21-1.289.63-.345.42-.517 1.082-.517 1.986zM4.85 9.472V8.61c-.433.678-1.069 1.016-1.909 1.016-.544 0-1.044-.15-1.5-.45C.983 8.876.63 8.457.38 7.92.13 7.382.004 6.764.004 6.065c0-.681.113-1.299.34-1.854.228-.555.568-.98 1.023-1.276a2.732 2.732 0 0 1 1.523-.443 2.276 2.276 0 0 1 1.883.938V.05h1.15v9.422H4.85z" mask="url(#f)"/>
        </g>
    </g>
</svg>
