<svg xmlns="http://www.w3.org/2000/svg" width="300" height="100" viewBox="0 0 300 100">
    <defs>
        <linearGradient id="a" x1="0%" y1="79.298%" y2="79.298%">
            <stop offset="0%" stop-color="#FFC80A"/>
            <stop offset="100%" stop-color="#EE2D24"/>
        </linearGradient>
    </defs>
    <g fill="none" fill-rule="evenodd">
        <path fill="#FFF" d="M0 0h300v100H0z"/>
        <path fill="url(#a)" d="M173.017.044v11.985h65.188l.053 6.435h8.52l-.091 10.42h3.246l.055 10.421h-15.937l.041 10.42-16.548.002v6.434l-191.538-.264.013-6.172L0 49.72l.14-10.414 15.998.024-.115-20.786 18.628-.042.024-6.472h7.462V.044h130.88zm-4.534 26.91c-3.07 0-5.14.597-7.537 2.538l-.278.23 1.76 2.39c1.51-1.366 2.696-1.86 4.821-1.86 2.92 0 3.783 1.115 3.091 3.415l-.06.189-.447 1.365h-5.086c-4.402 0-7.4 2.313-8.458 5.537-.535 1.63-.489 3.11.162 4.133.791 1.176 2.198 1.745 4.59 1.745 2.277 0 3.76-.516 5.506-1.778l.264-.195-.572 1.745h3.796l4.217-12.855c1.43-4.362-.493-6.6-5.769-6.6zm-88.468 0c-4.326 0-9.436 2.616-11.8 9.822-2.362 7.205 1.017 9.86 5.344 9.86 2.541 0 4.593-.73 6.916-2.485l.318-.246-1.823-2.54c-1.65 1.326-2.76 1.82-4.279 1.82-1.48 0-2.534-.607-3.008-1.706-.486-1.063-.33-2.466.404-4.703.734-2.238 1.485-3.603 2.669-4.665 1.196-1.1 2.647-1.706 4.127-1.706 1.447 0 2.229.447 2.973 1.636l.112.184 3.503-2.579c-1.188-1.934-2.799-2.693-5.456-2.693zm57.23 0c-4.935 0-9.342 3.602-11.383 9.822-2.4 7.319.6 9.86 5.42 9.86 3.242 0 5.396-.944 7.881-2.764l.313-.232-1.708-2.314c-1.815 1.365-3.152 1.972-5.316 1.972-3.078 0-4.163-1.992-3.2-5.161l.07-.223h12.488l.56-1.707c1.79-5.461.036-9.253-5.126-9.253zm-26.755 0c-4.934 0-9.342 3.602-11.382 9.822-2.4 7.319.6 9.86 5.42 9.86 3.242 0 5.395-.944 7.88-2.764l.313-.232-1.708-2.314c-1.814 1.365-3.152 1.972-5.315 1.972-3.079 0-4.163-1.992-3.2-5.161l.07-.223h12.487l.56-1.707c1.791-5.461.037-9.253-5.125-9.253zm-15.029 0c-4.326 0-9.436 2.616-11.8 9.822-2.362 7.205 1.018 9.86 5.344 9.86 2.542 0 4.593-.73 6.916-2.485l.318-.246-1.823-2.54c-1.65 1.326-2.76 1.82-4.279 1.82-1.48 0-2.534-.607-3.008-1.706-.486-1.063-.33-2.466.404-4.703.734-2.238 1.486-3.603 2.669-4.665 1.196-1.1 2.647-1.706 4.127-1.706 1.446 0 2.23.447 2.973 1.636l.112.184 3.503-2.579c-1.188-1.934-2.799-2.693-5.456-2.693zm102.32 0c-2.619 0-4.803.986-6.478 2.275-2.443 1.897-3.695 4.324-4.752 7.547-1.07 3.26-1.41 5.688-.21 7.585.829 1.289 2.365 2.275 4.984 2.275 2.619 0 4.84-.986 6.515-2.275 2.445-1.897 3.696-4.324 4.765-7.585 1.058-3.223 1.399-5.65.198-7.547-.828-1.289-2.403-2.275-5.022-2.275zm-70.05-7.546h-3.871l-7.115 21.69c-.913 2.783-.181 5.203 3.298 5.306l.236.004h2.391l1.082-3.3h-1.708c-1.499 0-1.816-.702-1.404-2.076l.05-.161 7.04-21.463zm-63.84 0h-3.302l-18.764 27h4.365l3.639-5.423h10.665l.08 5.423h4.366l-1.05-27zm153.817 7.545c-2.065 0-4.24.865-5.681 2.13l-.201.184.684-2.086h-3.795l-6.307 19.227h3.87l3.832-11.68c.871-2.655 3.164-4.323 5.252-4.323 1.25 0 1.808.37 2.358 1.14l.104.15 3.88-2.92c-.893-1.328-2.136-1.822-3.996-1.822zm-60.536 0c-2.065 0-4.24.865-5.682 2.13l-.2.184.684-2.086h-3.796l-6.307 19.227h3.872l3.83-11.68c.872-2.655 3.165-4.323 5.253-4.323 1.25 0 1.807.37 2.358 1.14l.103.15 3.88-2.92c-.892-1.328-2.135-1.822-3.995-1.822zm28.984-5.27h-3.872l-1.915 5.84h-2.202l-.97 2.957h2.201l-3.47 10.58c-.889 2.709-.12 5.236 3.29 5.344l.231.004h2.316l1.082-3.3h-1.594c-1.387 0-1.819-.77-1.44-2.078l.048-.159 3.409-10.39h3.72l.97-2.958h-3.72l1.916-5.84zm-17.206 16.23l-.51 1.555c-.448 1.366-1.012 2.275-1.768 2.845-1.348.985-2.486 1.099-3.967 1.099-2.429 0-3.206-.986-2.634-2.73.551-1.68 1.974-2.692 4.112-2.764l.25-.004h4.517zm27.7-7.508c1.138 0 2 .38 2.485 1.1.791 1.175.284 3.185-.4 5.27-.685 2.086-1.496 4.096-3.059 5.272-.956.72-2.08 1.138-3.22 1.138-1.138 0-1.95-.417-2.434-1.138-.792-1.176-.284-3.186.4-5.271.684-2.086 1.495-4.096 3.058-5.271.957-.72 2.03-1.1 3.17-1.1zM60.331 25.513l.168 11.984h-8.312l8.144-11.984zm75.855 4.664c1.822 0 2.865.986 3 2.427.086.805.03 1.352-.252 2.356l-.076.26h-8.654c.424-1.175.686-1.744 1.352-2.616 1.08-1.441 2.808-2.427 4.63-2.427zm-26.754 0c1.822 0 2.865.986 3 2.427.085.805.03 1.352-.252 2.356l-.076.26h-8.654c.424-1.175.686-1.744 1.352-2.616 1.08-1.441 2.808-2.427 4.63-2.427zM97.165 6.13H95.92v3.955c0 .696.146 1.281.623 1.745.367.354.892.562 1.527.562.56 0 1.102-.188 1.516-.564l.133-.132v.622h1.222V6.13h-1.247v3.772c0 .952-.586 1.379-1.282 1.379-.655 0-1.18-.368-1.24-1.215l-.006-.164V6.13zm28.811.184h-.88v3.832c0 .695.184 1.27.611 1.684.367.367.904.562 1.551.562.605 0 1.15-.208 1.565-.605l.134-.14v.671h.867V6.314h-.88v3.698c0 1.05-.598 1.598-1.502 1.598-.854 0-1.402-.479-1.46-1.426l-.006-.172V6.314zm19.284-.074c-.912 0-1.505.17-2.017.759l-.108.132.599.55c.354-.5.744-.684 1.514-.684 1.038 0 1.488.392 1.535 1.176l.004.142v.574h-1.808c-1.343 0-2.076.683-2.076 1.733 0 .476.159.927.451 1.22.38.39.868.55 1.699.55.739 0 1.17-.134 1.613-.532l.121-.116v.574h.88V8.242c0-1.306-.794-2.002-2.407-2.002zM85.893 3.555c-.928 0-1.686.33-2.284.928-.81.809-.842 1.717-.843 3.232v.516c0 1.516.032 2.424.843 3.233.598.598 1.38.928 2.284.928.916 0 1.735-.294 2.394-.99.533-.566.75-1.227.779-2.218l.003-.234V7.62h-3.176v1.122h1.857v.489c0 .56-.122 1-.44 1.366-.342.39-.843.61-1.417.61-.513 0-.977-.195-1.283-.524-.407-.442-.515-.917-.524-2.469v-.482c.01-1.55.117-2.014.524-2.456.306-.33.77-.537 1.283-.537.92 0 1.536.497 1.79 1.35l.042.164h1.332c-.245-1.49-1.32-2.698-3.164-2.698zm24.157.073h-1.246v3.125c-.452-.537-.965-.696-1.624-.696-.624 0-1.16.208-1.503.55-.623.622-.696 1.671-.696 2.611 0 .94.073 2.002.696 2.625.342.34.892.549 1.515.549.616 0 1.088-.144 1.52-.6l.117-.133v.66h1.221v-8.69zm11.493 2.612c-.733 0-1.307.269-1.723.684-.61.622-.732 1.464-.732 2.392 0 .927.122 1.77.732 2.392.416.415.99.684 1.723.684.733 0 1.307-.269 1.722-.684.611-.622.733-1.465.733-2.392 0-.928-.122-1.77-.733-2.392-.415-.415-.99-.684-1.722-.684zM62.42 3.628h-1.246v3.125c-.452-.537-.965-.696-1.624-.696-.623 0-1.16.208-1.503.55-.623.622-.696 1.671-.696 2.611 0 .94.073 2.002.696 2.625.342.34.892.549 1.515.549.615 0 1.088-.144 1.52-.6l.117-.133v.66h1.221v-8.69zm79.483 0h-.88V7.01c-.488-.622-1.038-.769-1.698-.769-.611 0-1.148.208-1.466.525-.61.61-.733 1.611-.733 2.55 0 .94.123 1.941.733 2.552.318.317.855.525 1.466.525.609 0 1.134-.136 1.596-.656l.114-.138v.72h.868v-8.69zm15.02 2.612c-.733 0-1.306.269-1.722.684-.61.622-.733 1.464-.733 2.392 0 .927.122 1.77.733 2.392.416.415.99.684 1.722.684.733 0 1.307-.269 1.723-.684.61-.622.733-1.465.733-2.392 0-.928-.122-1.77-.733-2.392-.416-.415-.99-.684-1.723-.684zm-64.496-.183c-.843 0-1.442.317-1.845.732-.586.61-.733 1.392-.733 2.43 0 1.049.147 1.83.733 2.44.403.415 1.002.733 1.845.733s1.453-.318 1.856-.733c.587-.61.733-1.391.733-2.44 0-1.038-.146-1.82-.733-2.43-.403-.415-1.013-.732-1.856-.732zm-19.162.073h-1.246v6.188h1.246V6.13zm30.14-2.502h-1.245v6.982c0 .87.463 1.629 1.525 1.702l.173.006h.77v-1.062h-.55c-.46 0-.642-.205-.669-.605l-.003-.114V3.628zm46.704.842h-.88v1.88h-.757v.672h.757v3.685c0 .842.457 1.53 1.373 1.605l.166.006h.623v-.756h-.464c-.519 0-.777-.281-.814-.756l-.004-.123V7.022h1.282V6.35h-1.282V4.47zm-93.392-.842H51.16v8.69h5.558v-1.183h-4.239V8.523h3.616V7.35h-3.616V4.812h4.24V3.628zm20.676 2.43c-.56 0-1.102.187-1.516.562l-.133.133V6.13h-1.222v6.188h1.246v-3.77c0-.953.587-1.38 1.283-1.38.655 0 1.18.367 1.24 1.215l.006.164v3.771h1.246V8.364c0-.696-.147-1.282-.623-1.745-.367-.354-.892-.562-1.527-.562zm75.903.256h-.88v6.004h.88V6.314zM64.105 6.13h-1.32l1.918 6.188h1.075l1.442-4.32 1.453 4.32h1.063l1.93-6.188h-1.331l-1.197 4.358-1.43-4.358h-.965l-1.441 4.358-1.197-4.358zm98.986.11c-.605 0-1.14.198-1.553.593l-.133.14v-.66h-.879v6.005h.88V8.62c0-1.05.586-1.598 1.49-1.598.853 0 1.413.478 1.473 1.426l.005.172v3.698h.88V8.474c0-.696-.196-1.257-.624-1.672-.366-.367-.891-.562-1.539-.562zm-29.225 0c-.605 0-1.14.198-1.553.593l-.133.14v-.66h-.88v6.005h.88V8.62c0-1.05.586-1.598 1.49-1.598.854 0 1.414.478 1.473 1.426l.006.172v3.698h.88V8.474c0-.696-.197-1.257-.624-1.672-.366-.367-.892-.562-1.539-.562zm-14.79-2.612h-5.398v8.69h.928V8.486h3.811v-.83h-3.811V4.458h4.47v-.83zm27.711 5.92v.647c0 .5-.097.842-.305 1.037-.379.366-.83.403-1.344.403-.953 0-1.38-.33-1.38-1.025 0-.653.386-1.015 1.18-1.058l.163-.004h1.686zm10.136-2.526c.428 0 .819.158 1.1.439.44.439.476 1.183.476 1.855 0 .671-.037 1.416-.476 1.855-.281.28-.672.44-1.1.44-.427 0-.806-.16-1.087-.44-.44-.44-.488-1.184-.488-1.855 0-.672.048-1.416.488-1.855.281-.28.66-.44 1.087-.44zm-35.38 0c.428 0 .818.158 1.1.439.44.439.476 1.183.476 1.855 0 .671-.037 1.416-.477 1.855-.28.28-.671.44-1.099.44-.427 0-.806-.16-1.087-.44-.44-.44-.489-1.184-.489-1.855 0-.672.049-1.416.489-1.855.28-.28.66-.44 1.087-.44zm17.978 0c1.306 0 1.502 1.122 1.502 2.294s-.196 2.294-1.502 2.294c-1.307 0-1.515-1.122-1.515-2.294s.208-2.294 1.515-2.294zm-47.094.146c.366 0 .684.122.916.354.379.378.427 1.025.427 1.696s-.048 1.319-.427 1.697c-.232.232-.55.366-.916.366-.367 0-.672-.134-.904-.366-.38-.378-.428-1.026-.428-1.697 0-.67.049-1.318.428-1.696.232-.232.537-.354.904-.354zm-32.535 0c1.123 0 1.282.952 1.282 2.05 0 1.099-.159 2.063-1.282 2.063-1.124 0-1.295-.964-1.295-2.063 0-1.098.17-2.05 1.295-2.05zm47.63 0c1.123 0 1.282.952 1.282 2.05 0 1.099-.159 2.063-1.283 2.063-1.123 0-1.294-.964-1.294-2.063 0-1.098.171-2.05 1.294-2.05zm-34.22-3.576h-1.32V4.91h1.32V3.592zm80.055.024h-.99v.989h.99v-.989z" transform="translate(24.857 21.742)"/>
    </g>
</svg>
