<svg xmlns="http://www.w3.org/2000/svg" width="300" height="100" viewBox="0 0 300 100">
    <g fill="none" fill-rule="evenodd">
        <path fill="#FFF" d="M0 0h300v100H0z"/>
        <g fill-rule="nonzero">
            <path fill="#4285F4" d="M29.212 44.207c0-11.05 9.373-20.073 20.559-20.073 6.171 0 10.568 2.409 13.885 5.544l-3.895 3.862c-2.353-2.218-5.593-3.9-9.99-3.9-8.139 0-14.503 6.5-14.503 14.567 0 8.068 6.364 14.568 14.503 14.568 5.284 0 8.293-2.103 10.221-4.015 1.582-1.567 2.623-3.823 3.009-6.882H49.77V42.41H68.4c.193.994.308 2.141.308 3.441 0 4.13-1.118 9.215-4.783 12.81-3.548 3.67-8.1 5.62-14.117 5.62-11.224-.038-20.597-9.024-20.597-20.074z"/>
            <path fill="#EA4335" d="M83.714 38.434c-7.213 0-13.076 5.43-13.076 12.923 0 7.456 5.863 12.924 13.076 12.924 7.212 0 13.075-5.468 13.075-12.924 0-7.494-5.863-12.923-13.075-12.923zm0 20.723c-3.935 0-7.368-3.211-7.368-7.838 0-4.665 3.395-7.838 7.368-7.838 3.934 0 7.367 3.173 7.367 7.838 0 4.627-3.433 7.838-7.367 7.838z"/>
            <path fill="#FBBC05" d="M112.256 38.434c-7.212 0-13.075 5.43-13.075 12.923 0 7.456 5.863 12.924 13.075 12.924 7.213 0 13.076-5.468 13.076-12.924 0-7.494-5.863-12.923-13.076-12.923zm0 20.723c-3.934 0-7.367-3.211-7.367-7.838 0-4.665 3.395-7.838 7.367-7.838 3.973 0 7.368 3.173 7.368 7.838 0 4.627-3.433 7.838-7.368 7.838z"/>
            <path fill="#4285F4" d="M147.28 39.199V41.3h-.194c-1.272-1.529-3.741-2.905-6.865-2.905-6.519 0-12.497 5.658-12.497 12.961 0 7.227 5.978 12.886 12.497 12.886 3.124 0 5.593-1.377 6.865-2.944h.193v1.873c0 4.932-2.661 7.57-6.943 7.57-3.51 0-5.67-2.485-6.557-4.588l-4.975 2.065c1.427 3.441 5.245 7.647 11.571 7.647 6.711 0 12.381-3.9 12.381-13.459V39.2h-5.477zm-6.558 19.958c-3.934 0-7.251-3.288-7.251-7.8 0-4.55 3.317-7.876 7.251-7.876 3.896 0 6.943 3.326 6.943 7.876.039 4.55-3.047 7.8-6.943 7.8z"/>
            <path fill="#34A853" d="M156.69 25.51h5.71v37.968h-5.71z"/>
            <path fill="#EA4335" d="M178.098 59.157c-2.932 0-4.976-1.338-6.326-3.9l17.434-7.15-.578-1.453c-1.08-2.905-4.397-8.22-11.147-8.22-6.712 0-12.305 5.238-12.305 12.923 0 7.227 5.516 12.924 12.922 12.924 5.978 0 9.411-3.632 10.877-5.735l-4.436-2.945c-1.504 2.142-3.51 3.556-6.441 3.556zm-.424-15.753c2.275 0 4.204 1.11 4.821 2.753l-11.649 4.78c-.154-4.97 3.896-7.533 6.828-7.533z"/>
            <path fill="#757575" d="M192.91 60.457c0-1.873 1.465-3.326 3.355-3.326s3.356 1.453 3.356 3.326c0 1.874-1.466 3.327-3.356 3.327s-3.356-1.491-3.356-3.327zm35.37-8.985c0 7.303-5.17 12.77-12.46 12.77-7.29 0-12.458-5.467-12.458-12.77s5.169-12.77 12.459-12.77 12.458 5.505 12.458 12.77zm-4.552 0c0-5.468-3.857-8.68-7.907-8.68s-7.907 3.174-7.907 8.68 3.857 8.68 7.907 8.68 7.907-3.174 7.907-8.68zm8.216 12.006V39.504h4.358v3.9h.193c1.003-2.753 4.474-4.511 7.02-4.511 1.466 0 2.469.19 3.394.573l-1.735 4.206c-.656-.23-1.428-.344-2.43-.344-3.125 0-6.288 2.6-6.288 6.997v13.153h-4.512zm16.508 4.359l4.166-1.72c.887 2.56 3.51 4.587 6.75 4.587 5.053 0 8.061-3.211 8.061-8.258V60.15h-.193c-1.465 2.218-4.397 4.13-8.254 4.13-6.171 0-11.494-5.43-11.494-12.77 0-7.342 5.323-12.771 11.494-12.771 3.857 0 6.75 1.911 8.254 4.13h.193v-3.327h4.359v22.75c0 8.717-6.017 12.58-12.382 12.58-6.364 0-9.72-4.169-10.954-7.036zm18.977-16.365c0-5.468-3.664-8.68-7.714-8.68-4.05 0-7.714 3.289-7.714 8.68s3.664 8.68 7.714 8.68c4.05 0 7.714-3.174 7.714-8.68z"/>
        </g>
    </g>
</svg>
