<svg xmlns="http://www.w3.org/2000/svg" xmlns:xlink="http://www.w3.org/1999/xlink" width="300" height="100" viewBox="0 0 300 100">
    <defs>
        <path id="a" d="M0 .109h241.9v42.452H0z"/>
        <path id="b" d="M0 .066h20.781v37.423H0z"/>
    </defs>
    <g fill="none" fill-rule="evenodd">
        <path fill="#FFF" d="M0 0h300v100H0z"/>
        <g transform="translate(29 31.304)">
            <mask id="c" fill="#fff">
                <use xlink:href="#b"/>
            </mask>
            <path fill="#98C521" d="M6.448 11.112c0 1.658.017 3.317-.01 4.976-.008.507.112.718.661.689.837-.045 1.68.033 2.515-.021 1.646-.107 2.865-.749 3.362-2.415.581-1.943.558-3.91.164-5.878-.33-1.653-1.29-2.726-3.012-2.914-1.005-.11-2.027-.054-3.04-.109-.49-.026-.658.13-.65.636.027 1.678.01 3.357.01 5.036zM0 .074C3.454.08 6.91.03 10.363.117c2.246.055 4.4.561 6.237 1.997 1.406 1.099 2.248 2.556 2.683 4.249.842 3.278.88 6.56-.138 9.811-.574 1.833-1.676 3.284-3.381 4.216-.356.194-.286.41-.197.682.82 2.528 1.643 5.055 2.456 7.585.893 2.775 1.777 5.552 2.662 8.329.04.128.054.265.096.48h-1.453c-1.538 0-3.075-.013-4.613.01-.393.006-.562-.137-.666-.497-.824-2.856-1.664-5.707-2.495-8.56-.577-1.978-1.149-3.958-1.726-5.936-.044-.15-.118-.291-.15-.366-.898 0-1.75.026-2.6-.01-.502-.02-.641.156-.64.648.017 4.617.01 9.234.01 13.851 0 .86 0 .858-.878.861-1.856.006-3.713.015-5.57.022V.074z" mask="url(#c)"/>
        </g>
        <path fill="#0E425A" d="M158.188 41.429c1.403.417 2.671-.232 3.991-.469l-3.991.469zm-3.123 17.604l.512-3.68-2.846 2.15 2.334 1.53zm9.313-2.671c1.346-2.743 2.329-5.442 2.067-8.48-.128-1.478-.418-2.892-1.089-4.207-.602-1.18-.412-1.199-1.896-.869-.621.139-1.308.33-1.772.723-.436.371-.86.596-1.388.684-.426.07-.858.106-1.307.16.093.997.175 1.975.278 2.952.056.527.23 1.053.207 1.573-.055 1.222.466 2.173 1.222 3.056.5.584.967 1.197 1.46 1.788.709.848 1.428 1.688 2.218 2.62zm-12.429-26.585c0 .39-.018.749.003 1.106.112 1.958.253 3.916.34 5.876.025.542.106.905.752.857a.41.41 0 0 1 .305.149c.626.867 1.58 1.13 2.53 1.413.135.04.35.183.341.257-.017.151-.13.363-.26.417-.484.202-.991.35-1.503.523l-.052.703c.143-.06.27-.1.382-.164.736-.425 1.452-.553 2.185.032.146.117.415.128.62.11.489-.046.97-.157 1.459-.208 1.627-.17 3.256-.325 4.884-.486-.488-5.191-7.358-11.277-11.986-10.585zm6.218 41.895c-.431-.498-.648-1.062-.613-1.734.092-1.761-.02-3.502-.6-5.186-.039-.111-.099-.215-.178-.385-.2.164-.418.281-.553.46-.635.84-1.581.61-2.424.71-.087.01-.29-.262-.292-.405-.001-.177.14-.502.24-.51.902-.069 1.02-.805 1.166-1.426.058-.252-.18-.694-.417-.872a26.59 26.59 0 0 0-2.653-1.77c-.705-.405-1.481-.691-2.235-1.007-.832-.349-1.203-1.424-.712-2.19.756-1.18 1.467-2.396 2.323-3.499.495-.636 1.294-1.027 1.85-1.626.456-.49.989-1.097 1.06-1.703.075-.632-.223-1.422-.605-1.97-.688-.983-1.518-1.883-2.379-2.724-.318-.31-.888-.37-1.352-.52-1.404-.449-2.817-.873-4.218-1.334-.72-.237-.73-.787-.29-1.38.595-.804 1.306-.979 2.239-.942.984.038 1.975-.096 3.153-.167l-1.908-2.59 1.603-.993-2.843-.338c.276-1.112 2.42-.969 4.315-.279l-.426-7.93c1.678-.196 3.438.065 5.147.722 1.672.643 3.123 1.647 4.349 2.919 1.762 1.827 3.019 3.993 3.859 6.394.274.783.863 1.1 1.588.673.604-.355 1.102-.141 1.787-.023-.62.28-1.021.724-1.69.476-.375-.139-.656 0-.63.543.047.928.36 1.756.744 2.577.535 1.141.763 2.35.838 3.607.205 3.479-.873 6.592-2.642 9.513-.12.2-.367.323-.442.387a34934.73 34934.73 0 0 1-3.838-4.632c-.16 2.006-1.094 3.487-2.054 4.951-.51.78-.164 1.45.132 2.175.248.607.465 1.25.553 1.896.256 1.877.407 3.768.667 5.645.158 1.147.446 2.277.663 3.417.08.417-.048.78-.365 1.07h-1.917z"/>
        <path fill="#98C521" d="M126.043 45.92v22.795h-5.926c-.01-.234-.03-.448-.03-.662 0-11.969.004-23.938-.015-35.906 0-.612.164-.777.766-.761 1.576.042 3.155.03 4.731.005.478-.008.687.156.85.61 2.024 5.614 4.07 11.22 6.114 16.826.387 1.061.784 2.119 1.179 3.178.045.12.109.234.273.328v-.695c0-6.494.008-12.988-.013-19.481-.002-.595.136-.79.756-.772 1.655.045 3.311.015 5.039.015.016.247.043.457.043.667.002 12.008-.002 24.017.014 36.026.001.569-.182.7-.713.689a109.18 109.18 0 0 0-4.371 0c-.416.007-.592-.144-.724-.522-1.352-3.896-2.721-7.786-4.086-11.678a19197.57 19197.57 0 0 0-3.623-10.327c-.043-.122-.107-.238-.16-.356l-.104.022M86.372 41.704c0 1.458.01 2.915-.006 4.373-.005.405.113.577.54.56.658-.027 1.317.009 1.975-.01 1.6-.046 2.841-.732 3.526-2.202.902-1.935.758-3.909-.12-5.798-.592-1.276-1.71-1.881-3.133-1.876-.738.003-1.477.024-2.214-.007-.453-.019-.583.15-.576.588.022 1.457.008 2.915.008 4.372m0 16.015c0 1.719.01 3.437-.007 5.155-.004.415.132.564.55.552.837-.025 1.68.041 2.514-.017 1.98-.139 3.45-.913 3.97-3.158.326-1.413.404-2.826.188-4.25-.328-2.161-1.432-3.425-3.502-3.828-1.023-.198-2.098-.123-3.147-.196-.457-.032-.579.153-.574.588.02 1.718.008 3.436.008 5.154m8.966-8.618c.639.44 1.399.88 2.06 1.437 1.55 1.302 2.34 3.058 2.605 5.014.345 2.543.253 5.075-.654 7.524-1.163 3.142-3.437 4.978-6.71 5.428-1.842.253-3.727.223-5.593.258-2.116.04-4.233-.014-6.348.023-.604.011-.766-.15-.766-.761.019-11.968.014-23.937.016-35.905 0-.214.018-.428.03-.681.24-.015.434-.036.628-.036 3.454-.002 6.91-.074 10.36.024 2.265.065 4.392.728 6.046 2.407 1.392 1.413 2.051 3.185 2.29 5.12.097.787.118 1.586.125 2.38.018 2.299-.538 4.423-2.134 6.145-.58.626-1.32 1.105-1.955 1.623M257.596 50.352c0 4.237.011 8.474-.014 12.711-.003.59.178.77.747.725.91-.073 1.834-.028 2.737-.149 1.208-.162 2.315-.623 2.718-1.904.283-.896.54-1.848.54-2.776.01-6.09-.013-12.181-.12-18.27-.03-1.695-.753-3.047-2.612-3.455-.653-.144-1.33-.203-2-.231-.631-.027-1.495-.198-1.834.131-.332.322-.157 1.195-.158 1.826-.009 3.797-.005 7.595-.004 11.392m-6.513 18.779c-.013-.293-.031-.507-.031-.721-.002-12.01.003-24.02-.016-36.029-.002-.623.181-.76.772-.755 3.034.03 6.07-.022 9.104.027 2.041.032 4.04.383 5.8 1.507 2.121 1.355 3.235 3.414 3.677 5.815.26 1.417.359 2.879.37 4.322.042 5.195.046 10.391.003 15.586-.019 2.227-.486 4.382-1.675 6.306-1.369 2.214-3.471 3.314-5.972 3.694-2.97.453-5.967.188-8.951.245-1.012.019-2.025.003-3.08.003M186.826 69.057v-.765-14.927c0-.78-.002-.782-.785-.783-1.757-.001-3.514.019-5.27-.012-.542-.009-.713.143-.711.701.02 5.036.001 10.071.025 15.106.003.6-.144.783-.76.769-1.853-.042-3.709-.015-5.621-.015V31.64h.946c1.598 0 3.195.017 4.792-.011.498-.01.642.141.64.64-.018 4.615 0 9.231-.024 13.847-.004.608.163.781.769.767 1.756-.04 3.514-.036 5.27-.001.571.011.745-.146.742-.732-.023-4.556-.013-9.112-.013-13.668v-.843h1.734c1.357 0 2.715.013 4.073-.007.438-.007.63.082.63.587-.015 12.109-.011 24.218-.01 36.327 0 .309.036.594-.437.59-1.896-.02-3.793-.01-5.69-.015-.075 0-.15-.031-.3-.065M205.953 50.363c0 3.436-.027 6.873.013 10.31.017 1.499.552 2.666 1.79 2.993.831.22 1.76.185 2.632.112 1.036-.085 1.709-.769 1.942-1.76.203-.86.357-1.755.362-2.637.03-5.873.02-11.747.01-17.621a15.792 15.792 0 0 0-.132-2.14c-.181-1.3-.714-2.38-2.143-2.663-.538-.108-1.108-.093-1.662-.078-1.119.028-2.029.46-2.436 1.566-.202.548-.354 1.15-.36 1.728-.033 3.397-.016 6.793-.016 10.19m13.18.01c0 3.297.018 6.595-.007 9.892-.015 2.044-.488 3.97-1.683 5.674-1.356 1.933-3.275 2.985-5.534 3.408-1.085.203-2.216.29-3.318.242-2.588-.112-4.972-.834-6.803-2.808-1.356-1.462-2.19-3.235-2.231-5.2-.124-5.809-.111-11.62-.148-17.431-.009-1.3-.056-2.601.01-3.897.13-2.552.862-4.876 2.788-6.69 1.395-1.315 3.104-1.981 4.954-2.261 1.878-.284 3.757-.215 5.605.314 3.386.967 5.381 3.229 6.106 6.622.201.942.24 1.932.25 2.9.03 3.078.011 6.157.011 9.234M60.61 50.1c0 3.198-.005 6.395.006 9.592.002.494.04.995.13 1.48.22 1.19.85 2.072 2.09 2.31.607.117 1.252.084 1.876.05a2.584 2.584 0 0 0 2.394-1.988 8.876 8.876 0 0 0 .248-1.94c.019-5.855.016-11.71.005-17.565a37.573 37.573 0 0 0-.122-2.8c-.111-1.457-.93-2.408-2.352-2.678-.52-.1-1.08-.09-1.61-.032-1.03.111-1.882.584-2.25 1.6-.225.621-.389 1.303-.397 1.96-.039 3.337-.018 6.674-.018 10.011m13.18-.052c0 3.316-.004 6.632.002 9.948.004 2.41-.664 4.601-2.273 6.411-1.235 1.39-2.86 2.208-4.67 2.574-2.266.459-4.55.47-6.765-.266-3.029-1.004-4.93-3.107-5.634-6.22a14.589 14.589 0 0 1-.368-3.121c-.034-6.253-.043-12.505-.002-18.758.014-1.994.349-3.947 1.445-5.692 1.26-2.005 3.073-3.243 5.353-3.738 1.133-.246 2.32-.393 3.476-.36 2.708.08 5.211.786 7.136 2.875 1.24 1.344 1.979 2.95 2.153 4.74.167 1.72.126 3.462.143 5.194.02 2.138.004 4.275.004 6.413M238.47 50.384c0-3.257.004-6.514-.007-9.772a7.475 7.475 0 0 0-.135-1.419c-.242-1.219-.927-2.073-2.198-2.264a6.645 6.645 0 0 0-2.024-.01c-1.057.17-1.818.802-2.079 1.88-.157.649-.297 1.323-.3 1.987-.022 6.355-.016 12.71-.007 19.064 0 .534.004 1.091.149 1.596.16.557.387 1.154.76 1.58.978 1.118 2.307.968 3.6.774.815-.123 1.47-.58 1.776-1.333.255-.63.435-1.336.444-2.012.044-3.356.02-6.714.02-10.07m-13.18 0c0-3.457-.06-6.916.017-10.37.07-3.132 1.355-5.688 4.024-7.438 1.094-.717 2.347-1.078 3.624-1.266 2.022-.298 4.036-.241 6.004.408 3.073 1.012 4.962 3.12 5.678 6.25.232 1.016.357 2.08.362 3.123.033 6.234.046 12.469 0 18.703-.016 2.033-.357 4.018-1.494 5.8-1.374 2.152-3.378 3.289-5.81 3.77-2.056.405-4.105.356-6.125-.23-3.303-.958-5.278-3.186-6.02-6.5-.21-.938-.24-1.93-.25-2.899-.029-3.117-.01-6.234-.01-9.351M113.054 31.403v37.368h-1.452c-1.458 0-2.916-.016-4.374.01-.457.007-.57-.15-.57-.587.01-12.072.008-24.144.01-36.216 0-.268-.076-.58.38-.579 1.976.009 3.951.004 6.006.004"/>
        <path fill="#FFF" d="M158.188 41.429l3.991-.469c-1.32.237-2.588.886-3.991.469"/>
    </g>
</svg>
