<svg xmlns="http://www.w3.org/2000/svg" width="300" height="100" viewBox="0 0 300 100">
    <g fill="none" fill-rule="evenodd">
        <path fill="#FFF" d="M0 0h300v100H0z"/>
        <g fill-rule="nonzero">
            <path fill="#231F20" d="M107.118 35.05c-1.446.644-2.892.998-4.916.998-4.561 0-7.832-2.616-7.832-7.249 0-4.233 3.27-7.537 7.787-7.537 1.224 0 2.536.289 3.47.687l.757-.753h.645l.267 5.43-.824.045c-1.467-3.125-2.736-4.323-4.538-4.323-2.224 0-3.893 2.063-3.893 6.119 0 4.211 2.07 6.384 4.828 6.384a4.08 4.08 0 0 0 1.468-.244l2.625-3.347.6.088-.444 3.703zM115.194 27.27c-.8 0-1.29.199-2.069.62v6.695l1.201.488v.642h-5.539v-.642l1.424-.488V21.84l-1.535-.931v-.577l4.026-1.041.423.243v7.426l.245.044c1.023-.908 2.225-1.64 3.605-1.64 1.868 0 2.847 1.22 2.847 3.037v6.185l1.423.488v.642h-5.539v-.642l1.202-.488v-5.21c0-1.285-.468-2.105-1.714-2.105M127.675 30.794c-2.38.089-3.248.91-3.248 2.018 0 1.019.579 1.574 1.602 1.574.445 0 1.046-.2 1.646-.577v-3.015zm2.759 2.815c0 .754.334 1.22 1.624 1.242l.044.576c-.645.244-1.624.51-2.491.51-1.024 0-1.602-.421-1.78-1.463l-.267-.044c-1.001.93-1.958 1.485-3.137 1.485-1.601 0-2.714-.864-2.714-2.394 0-1.884 1.958-3.17 5.962-3.458v-1.22c0-1.662-.667-2.216-2.336-2.216-.444 0-.845.089-1.134.2.4.332.623.709.623 1.196 0 .71-.49 1.264-1.335 1.264-.801 0-1.402-.62-1.402-1.352 0-1.53 2.447-2.572 4.783-2.572 2.425 0 3.56.91 3.56 3.082v5.164zM143.115 34.585l1.402.488v.642h-5.518v-.642l1.202-.488v-5.21c0-1.308-.468-2.105-1.691-2.105-.757 0-1.246.222-2.002.62v6.695l1.18.488v.642h-5.518v-.642l1.424-.488v-6.894l-1.402-.931v-.577l3.804-.886.423.266-.156 1.595.267.045c1.357-1.241 2.514-1.84 3.738-1.84 1.824 0 2.847 1.153 2.847 3.038v6.184zM106.54 57.507H94.148l-.089-.554 8.899-12.37-3.404.045c-1.224 0-1.78.399-2.737 1.64l-1.424 1.774-.555-.133.422-4.522h11.636l.088.554-8.832 12.392 4.227-.045c1.158 0 1.714-.465 2.447-1.53l1.647-2.393.511.089-.444 5.053zM119.577 56.443v.554l-3.827.887-.422-.244.155-1.596-.266-.044c-1.358 1.242-2.448 1.84-3.738 1.84-1.869 0-2.848-1.264-2.848-3.06v-5.364l-1.379-.909v-.531l3.893-.888.4.266v6.429c0 1.375.49 2.128 1.691 2.128.756 0 1.246-.2 2.002-.598v-5.897l-1.401-.909v-.531l3.893-.888.423.266v8.27l1.424.82zM128.098 51.123c-1.001 0-1.58-.731-1.58-1.729 0-.421.089-.82.245-1.175-.134-.022-.245-.044-.4-.044-1.647.066-3.093 1.485-3.093 4.167 0 2.46 1.513 3.747 3.538 3.747.912 0 1.535-.2 2.58-.599l.223.532c-1.246 1.264-2.648 1.84-4.183 1.84-2.87 0-5.16-2.062-5.16-5.12 0-3.105 2.424-5.587 5.74-5.587 2.201 0 3.58 1.064 3.58 2.372 0 .909-.622 1.596-1.49 1.596M140.846 56.399l1.068.466v.642h-4.984v-.576l.823-.421-2.58-3.502h-.779v3.369l1.112.488v.642h-5.45v-.642l1.424-.488V43.63l-1.536-.93v-.577l4.028-1.042.422.243v10.508h.845l2.715-3.037-1.224-.754v-.554h4.716v.665l-1.379.533-3.07 2.726zM148.9 51.39c-.022-2.262-.6-3.326-1.847-3.326-1.223 0-2.091 1.308-2.18 3.524l4.027-.199zm-4.05.997c.023 2.416 1.068 3.768 3.315 3.768 1.024 0 1.914-.2 3.227-.687l.245.51c-1.38 1.13-3.027 1.884-4.495 1.884-3.181 0-5.206-2.083-5.206-5.165 0-3.193 2.514-5.542 5.295-5.542 3.338 0 4.627 2.416 4.516 5.232h-6.897zM160.09 50.658c-.868 0-1.401-.644-1.512-1.397-.712.155-1.269.62-1.758 1.263v5.852l1.58.489v.642h-5.918v-.642l1.424-.489v-6.893l-1.402-.931v-.577l3.805-.886.422.266-.245 2.128.267.066c.912-1.507 1.825-2.416 3.138-2.416 1.045 0 1.802.687 1.802 1.75 0 1.02-.69 1.775-1.603 1.775M167.477 49.017c-.556 0-1.068.155-1.536.333v6.428c.556.71 1.18 1.064 2.047 1.064 1.18 0 2.225-1.13 2.225-3.946 0-2.637-1.001-3.879-2.736-3.879m-.067 8.845c-1.29 0-3.048-.288-4.383-.709V43.63l-1.557-.93v-.577l4.049-1.042.422.244v7.138l.268.044c.911-.82 1.824-1.352 3.092-1.352 2.091 0 3.982 1.928 3.982 5.054 0 2.971-2.225 5.653-5.873 5.653M181.448 51.39c-.022-2.262-.6-3.326-1.847-3.326-1.223 0-2.09 1.308-2.18 3.524l4.027-.199zm-4.049.997c.023 2.416 1.068 3.768 3.315 3.768 1.024 0 1.913-.2 3.225-.687l.245.51c-1.379 1.13-3.025 1.884-4.494 1.884-3.18 0-5.205-2.083-5.205-5.165 0-3.193 2.514-5.542 5.294-5.542 3.338 0 4.628 2.416 4.517 5.232h-6.897zM192.639 50.658c-.868 0-1.402-.644-1.513-1.397-.712.155-1.268.62-1.758 1.263v5.852l1.58.489v.642h-5.918v-.642l1.424-.489v-6.893l-1.401-.931v-.577l3.804-.886.422.266-.245 2.128.267.066c.913-1.507 1.825-2.416 3.138-2.416 1.045 0 1.802.687 1.802 1.75 0 1.02-.69 1.775-1.602 1.775M199.268 47.93c-1 0-1.712.644-1.712 2.572 0 2.018.69 2.572 1.824 2.572 1 0 1.646-.91 1.646-2.66 0-1.64-.623-2.483-1.758-2.483m1.312 9.909l-3.58-.044c-.29.376-.49.864-.49 1.463 0 1.152.956 1.95 3.248 1.95 1.846 0 3.293-.908 3.293-1.973 0-.974-.757-1.374-2.47-1.396m-1.246-3.99c-.757 0-1.223-.067-1.624-.2-.222.288-.422.688-.422.975 0 .555.4.82 1.468.843l2.736.044c2.314.045 3.515.931 3.515 2.594 0 2.172-2.38 4.012-6.029 4.012-3.337 0-4.872-.975-4.872-2.26 0-.82.69-1.575 2.158-2.129l-.022-.222c-.89-.288-1.29-.842-1.29-1.463 0-.731.622-1.529 1.935-2.549v-.133c-1.179-.577-2.002-1.597-2.002-2.86 0-2.061 1.957-3.347 4.494-3.347 1.49 0 2.425.4 3.203.953l1.713-.953h1.268v1.928h-.444l-1.847-.354-.045.177c.268.465.467.954.467 1.663 0 1.884-1.668 3.28-4.36 3.28M101.823 78.568v.731h-7.586v-.731l2.136-.488V66.398l-2.136-.489v-.73h7.586v.73l-2.113.489V78.08zM113.726 78.169l1.401.487v.643h-5.517v-.643l1.201-.487v-5.21c0-1.308-.467-2.106-1.69-2.106-.757 0-1.246.222-2.003.62v6.696l1.18.487v.643h-5.518v-.643l1.424-.487v-6.895l-1.401-.93v-.577l3.804-.887.423.266-.157 1.596.268.045c1.356-1.242 2.514-1.84 3.737-1.84 1.824 0 2.848 1.152 2.848 3.037v6.185zM118.309 63.183c1.068 0 1.824.776 1.824 1.796 0 .997-.8 1.906-1.913 1.906-1.023 0-1.802-.754-1.802-1.774 0-.997.801-1.928 1.89-1.928zm-2.87 7.16v-.576l3.938-.887.378.222v9.067l1.38.487v.643h-5.762v-.643l1.467-.487v-6.895l-1.401-.93zM125.584 79.587c-1.758 0-2.648-.842-2.648-2.638v-6.228h-1.712v-.6l2.157-1.484 1.647-2.505h.823v3.103h3.381v1.486h-3.381v5.186c0 .931.133 1.42.578 1.73.4.265.823.332 1.557.332.357 0 .823-.022 1.29-.067l.023.688c-.823.51-2.403.997-3.715.997M132.48 63.183c1.068 0 1.825.776 1.825 1.796 0 .997-.801 1.906-1.913 1.906-1.024 0-1.802-.754-1.802-1.774 0-.997.8-1.928 1.89-1.928zm-2.87 7.16v-.576l3.938-.887.378.222v9.067l1.38.487v.643h-5.762v-.643l1.468-.487v-6.895l-1.402-.93zM141.958 74.378c-2.381.088-3.248.908-3.248 2.017 0 1.02.578 1.574 1.601 1.574.446 0 1.046-.2 1.647-.576v-3.015zm2.758 2.815c0 .754.334 1.22 1.624 1.241l.045.577c-.645.243-1.624.51-2.491.51-1.024 0-1.603-.422-1.78-1.463l-.268-.044c-1 .93-1.957 1.484-3.136 1.484-1.602 0-2.715-.864-2.715-2.394 0-1.884 1.959-3.17 5.963-3.458v-1.219c0-1.663-.668-2.217-2.336-2.217-.445 0-.845.09-1.135.2.4.332.623.71.623 1.197 0 .709-.49 1.264-1.334 1.264-.802 0-1.402-.621-1.402-1.353 0-1.53 2.447-2.571 4.783-2.571 2.425 0 3.56.909 3.56 3.081v5.165zM150.457 79.587c-1.758 0-2.648-.842-2.648-2.638v-6.228h-1.713v-.6l2.158-1.484 1.647-2.505h.822v3.103h3.382v1.486h-3.382v5.186c0 .931.134 1.42.58 1.73.4.265.822.332 1.556.332.356 0 .823-.022 1.29-.067l.023.688c-.824.51-2.403.997-3.715.997M157.353 63.183c1.068 0 1.825.776 1.825 1.796 0 .997-.801 1.906-1.913 1.906-1.024 0-1.802-.754-1.802-1.774 0-.997.8-1.928 1.89-1.928zm-2.87 7.16v-.576l3.938-.887.378.222v9.067l1.38.487v.643h-5.762v-.643l1.468-.487v-6.895l-1.402-.93zM166.853 76.373h.133l1.024-2.616 1.067-3.17-1.29-.687v-.62h4.405v.665l-1.49.73-3.827 8.868h-1.646l-3.916-9.066-1.357-.532v-.666h5.985v.62l-1.38.533zM179.223 73.18c-.023-2.26-.6-3.325-1.847-3.325-1.223 0-2.091 1.308-2.18 3.525l4.027-.2zm-4.05.998c.023 2.417 1.068 3.769 3.315 3.769 1.024 0 1.914-.2 3.227-.687l.244.51c-1.38 1.13-3.026 1.884-4.494 1.884-3.181 0-5.206-2.084-5.206-5.166 0-3.191 2.514-5.541 5.295-5.541 3.337 0 4.627 2.416 4.516 5.231h-6.896z"/>
            <path fill="#FF414C" d="M193.245 72.522c-.493.342-1.07.556-1.872.573-.966.02-1.692-.617-1.759-1.558-.036-.5.132-.978.474-1.344a1.797 1.797 0 0 1 1.311-.575c.255-.003.524.05.755.148 0 0-.063.526-.084.762l.795.005.142-1.183-.223-.14c-.417-.257-.899-.391-1.392-.387a2.631 2.631 0 0 0-1.895.83 2.544 2.544 0 0 0-.685 1.94c.045.64.322 1.224.778 1.645.461.427 1.083.656 1.755.65l.05-.001a3.97 3.97 0 0 0 1.37-.287l.573-1.109s-.012-.025-.093.031"/>
            <path fill="#FF414C" d="M195.945 75.363l-.096 1.09-.002.012c-.039.412-.26.762-.59.936a.836.836 0 0 1-.81-.002c-.27-.146-.398-.365-.446-.642-.076-.439.175-.896.516-1.127l5.33-3.455c.04.293.061.591.061.894 0 3.576-2.917 6.485-6.502 6.485-3.586 0-6.503-2.909-6.503-6.485 0-3.575 2.917-6.484 6.503-6.484a6.511 6.511 0 0 1 5.98 3.943l.65-.42a7.279 7.279 0 0 0-6.63-4.282c-4.009 0-7.27 3.25-7.27 7.243 0 3.995 3.261 7.244 7.27 7.244 4.008 0 7.27-3.25 7.27-7.244a7.209 7.209 0 0 0-.306-2.076l-1.514.943-2.004 1.265a1.01 1.01 0 0 0-.575-.69c-.405-.183-1.061-.041-1.544.231 0 0 1.32-2.544 1.539-2.962a.04.04 0 0 0-.037-.06l-.08.001v-.001h-2.387l-.1.822.374-.001h.964l-1.89 3.604c-.036.07.04.146.11.11l1.01-.535c.486-.248 1.296-.76 1.697-.464a.396.396 0 0 1 .137.275.133.133 0 0 1-.06.117L194 75.002a1.966 1.966 0 0 0-.849 1.81c.051.55.394 1.022.903 1.298.267.144.556.212.844.205.253-.007.506-.073.742-.198.574-.301.955-.889 1.022-1.57l.162-1.834-.879.65z"/>
        </g>
    </g>
</svg>
