<svg xmlns="http://www.w3.org/2000/svg" xmlns:xlink="http://www.w3.org/1999/xlink" width="300" height="100" viewBox="0 0 300 100">
    <defs>
        <path id="a" d="M.04.053h9.262V17.33H.04z"/>
        <path id="c" d="M.025.01h6.75v13.47H.026z"/>
        <path id="e" d="M.06.115H11.2v11.343H.06z"/>
        <path id="g" d="M0 .115h11.14v11.343H0z"/>
    </defs>
    <g fill="none" fill-rule="evenodd">
        <path fill="#FFF" d="M0 0h300v100H0z"/>
        <path fill="#007FA0" d="M80.906 18.852c-.398 0-.814.003-1.25.011-.435.008-.87.023-1.306.046-.436.023-.856.05-1.261.08-.405.03-.768.069-1.089.115.076-.275.115-.52.115-.734a3.17 3.17 0 0 0-.115-.71c1.009.03 1.994.057 2.957.08a123.65 123.65 0 0 0 5.914 0c.963-.023 1.949-.05 2.957-.08-.076.306-.114.55-.114.733 0 .199.038.436.114.71-.32-.045-.684-.083-1.089-.114-.405-.03-.825-.057-1.26-.08a37.526 37.526 0 0 0-1.307-.046 71.78 71.78 0 0 0-1.25-.011 162.884 162.884 0 0 0-.068 4.743v3.941c0 1.009.019 2.002.057 2.98.038.977.08 1.94.126 2.887a12.92 12.92 0 0 0-1.123-.046c-.397 0-.772.015-1.123.046.046-.947.088-1.91.126-2.887.038-.978.057-1.971.057-2.98v-3.94c0-1.59-.023-3.17-.068-4.744"/>
        <g transform="translate(88.957 16.072)">
            <mask id="b" fill="#fff">
                <use xlink:href="#a"/>
            </mask>
            <path fill="#007FA0" d="M.213 4.957c-.008-.611-.02-1.215-.035-1.81C.163 2.55.144 1.981.121 1.438A37.895 37.895 0 0 0 .041.053c.428.076.771.114 1.031.114.26 0 .604-.038 1.032-.114-.03.382-.057.84-.08 1.375a98.115 98.115 0 0 0-.058 1.684 133.687 133.687 0 0 0-.045 3.426V8.28h.045c.428-.657.94-1.165 1.536-1.524.596-.36 1.307-.539 2.132-.539.428 0 .86.061 1.295.183.436.123.83.333 1.18.63.352.299.639.704.86 1.215.222.512.333 1.165.333 1.96 0 .657-.016 1.333-.046 2.028-.03.695-.046 1.432-.046 2.21v1.49a21.8 21.8 0 0 0 .046 1.398 9.63 9.63 0 0 0-1.903 0c.03-.794.065-1.611.103-2.452.038-.84.058-1.703.058-2.59v-1.397c0-1.146-.222-2.013-.665-2.601-.443-.588-1.054-.882-1.834-.882-1.07 0-1.853.328-2.35.985-.496.657-.744 1.581-.744 2.773a128.315 128.315 0 0 0 .103 4.858c.023.535.05.97.08 1.306a11.836 11.836 0 0 0-2.063 0c.03-.351.057-.794.08-1.329.023-.534.042-1.1.057-1.696A145.41 145.41 0 0 0 .224 10.8V6.653c0-.52-.004-1.085-.011-1.696" mask="url(#b)"/>
        </g>
        <path fill="#007FA0" d="M106.098 23.022c-.566 0-1.043.13-1.433.39-.39.26-.71.584-.962.974-.253.39-.444.817-.574 1.283-.13.466-.21.905-.24 1.318l1.478.045a49.789 49.789 0 0 0 3.038 0l1.513-.045c0-.413-.035-.848-.104-1.307a4.077 4.077 0 0 0-.412-1.283 2.741 2.741 0 0 0-.86-.985c-.367-.26-.848-.39-1.444-.39m-5.295 5.294c0-1.88.447-3.354 1.34-4.423.895-1.07 2.197-1.604 3.91-1.604.809 0 1.508.126 2.097.378a4.383 4.383 0 0 1 1.478 1.008c.397.42.691.913.883 1.478a5.62 5.62 0 0 1 .286 1.81 8.676 8.676 0 0 1-.046.894l-2.452-.045c-.81-.015-1.628-.023-2.453-.023-.504 0-1.005.008-1.502.023l-1.501.045a1.897 1.897 0 0 0-.023.344v.298c0 .596.088 1.154.264 1.673.175.52.431.966.768 1.34.336.375.748.673 1.237.894.49.222 1.055.333 1.697.333.305 0 .619-.042.94-.127a5.294 5.294 0 0 0 1.799-.859c.267-.198.5-.412.7-.642l.114.07-.138 1.122c-.458.367-1.028.68-1.708.94-.68.26-1.386.39-2.12.39-.825 0-1.578-.127-2.258-.379a4.997 4.997 0 0 1-1.765-1.1 4.938 4.938 0 0 1-1.146-1.707 5.592 5.592 0 0 1-.401-2.131"/>
        <path fill="#00394E" d="M78.195 43.336a597.148 597.148 0 0 0-.153-3.597c.24.038.472.07.694.097a5.372 5.372 0 0 0 1.334 0c.222-.027.454-.06.694-.097a586.914 586.914 0 0 0-.152 3.597 91.107 91.107 0 0 0-.07 3.597c0 2.332.01 4.356.028 6.068.018 1.713.037 3.245.056 4.596 1.314 0 2.574-.014 3.778-.041 1.204-.028 2.5-.134 3.89-.32a3.214 3.214 0 0 0-.14.833c0 .204.046.454.14.75a58.349 58.349 0 0 0-2.557-.055h-5.125c-.825 0-1.681.018-2.57.055.055-1.148.106-2.314.153-3.5.046-1.184.07-2.388.07-3.61v-4.776c0-1.222-.024-2.421-.07-3.597M92.85 52.265c0 .777.069 1.527.208 2.25.139.722.375 1.365.708 1.93a3.793 3.793 0 0 0 1.334 1.347c.556.333 1.24.5 2.056.5.815 0 1.5-.167 2.056-.5.555-.334 1-.782 1.333-1.347.334-.565.57-1.208.709-1.93.138-.723.208-1.473.208-2.25 0-.778-.07-1.528-.208-2.25a5.997 5.997 0 0 0-.709-1.93 3.795 3.795 0 0 0-1.333-1.347c-.556-.333-1.241-.5-2.056-.5-.816 0-1.5.167-2.056.5-.556.333-1 .783-1.334 1.347a5.994 5.994 0 0 0-.708 1.93 11.885 11.885 0 0 0-.208 2.25m-2.445 0c0-1.259.199-2.328.597-3.208.398-.879.921-1.592 1.57-2.138a6.208 6.208 0 0 1 2.18-1.195 8.078 8.078 0 0 1 2.404-.374c.815 0 1.62.125 2.417.374.796.25 1.518.649 2.167 1.195.648.546 1.17 1.259 1.57 2.138.397.88.597 1.95.597 3.208 0 1.26-.2 2.329-.598 3.208-.398.88-.921 1.592-1.57 2.138-.648.547-1.37.93-2.166 1.153a8.956 8.956 0 0 1-2.417.333 9.006 9.006 0 0 1-2.403-.333 5.699 5.699 0 0 1-2.181-1.153c-.649-.546-1.172-1.259-1.57-2.138-.398-.88-.597-1.949-.597-3.208M106.99 54.626c0-.982.014-1.82.042-2.514.028-.694.042-1.384.042-2.069a177.405 177.405 0 0 0-.056-4.416c.463.093.852.139 1.167.139.296 0 .676-.046 1.14-.139a75.615 75.615 0 0 0-.21 3.652c-.046 1.324-.069 2.68-.069 4.069 0 .963.084 1.699.25 2.208.167.51.37.894.612 1.153.259.296.587.541.986.736.398.194.865.291 1.403.291.778 0 1.426-.17 1.945-.514.518-.342.898-.763 1.139-1.263.129-.315.23-.583.305-.806.074-.222.134-.518.18-.888.047-.37.075-.87.084-1.5.01-.63.014-1.49.014-2.583v-2.333c0-.407-.005-.796-.014-1.166-.01-.37-.023-.722-.042-1.056.204.037.398.07.584.097.185.028.38.042.583.042.204 0 .398-.014.584-.042.185-.027.37-.06.555-.097a82.571 82.571 0 0 0-.166 4.18 307.151 307.151 0 0 0-.028 4.263c0 .833.009 1.648.028 2.444.018.797.046 1.565.083 2.305a10.804 10.804 0 0 0-2.167 0c.018-.166.032-.342.042-.527.009-.185.014-.38.014-.584v-1.194h-.056c-.482.889-1.102 1.542-1.861 1.958a5.059 5.059 0 0 1-2.473.625c-1.445 0-2.58-.384-3.403-1.153-.825-.768-1.237-1.874-1.237-3.318M123.16 50.82c0-.832-.014-1.707-.042-2.624a30.336 30.336 0 0 0-.18-2.569c.518.093.934.139 1.25.139.314 0 .73-.046 1.25-.139a30.131 30.131 0 0 0-.181 2.57 86.763 86.763 0 0 0-.042 2.624v2.888c0 .833.014 1.708.042 2.625.028.916.088 1.745.18 2.485a14.317 14.317 0 0 0-2.5 0c.093-.74.153-1.569.18-2.485.029-.917.042-1.792.042-2.625v-2.888zm-.39-10.025c0-.39.14-.722.417-1a1.364 1.364 0 0 1 1-.417c.39 0 .723.14 1 .417.278.278.417.61.417 1 0 .389-.139.722-.416 1a1.364 1.364 0 0 1-1 .416c-.39 0-.723-.139-1-.416a1.363 1.363 0 0 1-.417-1zM130.452 56.847c.195.223.426.43.695.625a3.9 3.9 0 0 0 .917.486c.342.13.708.195 1.097.195.352 0 .69-.056 1.014-.167.324-.11.611-.268.861-.472.25-.203.449-.463.597-.778.149-.314.223-.675.223-1.083 0-.573-.163-1.014-.486-1.319a3.832 3.832 0 0 0-1.209-.75 12.795 12.795 0 0 0-1.583-.514 6.623 6.623 0 0 1-1.584-.625 3.71 3.71 0 0 1-1.209-1.069c-.324-.444-.486-1.055-.486-1.833 0-.61.102-1.17.306-1.68.203-.51.5-.949.889-1.32.389-.37.87-.661 1.445-.874.573-.213 1.23-.32 1.972-.32.685 0 1.264.093 1.736.278.473.186.922.352 1.348.5-.149.278-.288.62-.417 1.028-.13.407-.213.722-.25.944h-.333c-.149-.444-.436-.842-.862-1.194s-.954-.528-1.583-.528c-.278 0-.556.047-.834.139a2.303 2.303 0 0 0-.75.417 2.216 2.216 0 0 0-.555.722c-.149.296-.223.648-.223 1.055 0 .593.162 1.051.487 1.375.323.324.726.579 1.208.764.481.185 1.01.347 1.584.486a7.007 7.007 0 0 1 1.583.583c.482.25.884.597 1.209 1.041.323.445.486 1.056.486 1.833 0 .538-.116 1.065-.347 1.583a4.449 4.449 0 0 1-1 1.403 4.59 4.59 0 0 1-1.57.972c-.611.231-1.306.347-2.084.347-.852 0-1.565-.083-2.139-.25-.574-.167-1.056-.361-1.445-.583.111-.24.227-.57.348-.986.12-.417.18-.764.18-1.042h.333c.093.186.237.39.431.611M162.873 58.167a7.489 7.489 0 0 1-1.305.472c-.51.139-1.08.264-1.709.375-.63.11-1.287.166-1.973.166-1.463 0-2.815-.208-4.056-.625-1.24-.416-2.31-1.05-3.209-1.902-.898-.851-1.602-1.893-2.111-3.124-.51-1.232-.764-2.634-.764-4.208 0-1.573.255-2.976.764-4.208.51-1.23 1.222-2.272 2.14-3.124.916-.851 2.013-1.5 3.291-1.944 1.278-.445 2.686-.667 4.223-.667 1.223 0 2.338.125 3.348.375 1.01.25 1.903.551 2.68.903-.148.26-.268.61-.36 1.055-.093.445-.167.815-.223 1.111l-.166.056a6.153 6.153 0 0 0-.778-.75 8.58 8.58 0 0 0-1.167-.806 7.426 7.426 0 0 0-1.5-.652 6.056 6.056 0 0 0-1.834-.264c-1.093 0-2.107.176-3.042.528a6.478 6.478 0 0 0-2.445 1.624c-.694.732-1.236 1.658-1.625 2.778s-.583 2.448-.583 3.985.194 2.865.583 3.985c.39 1.12.93 2.046 1.625 2.778a6.467 6.467 0 0 0 2.445 1.624c.935.352 1.95.528 3.042.528.667 0 1.283-.083 1.848-.25a9.878 9.878 0 0 0 1.556-.597 9.26 9.26 0 0 0 1.277-.75c.38-.268.7-.504.959-.708l.111.111-.25 1.639c-.167.148-.43.31-.792.486M174.36 51.904c-.314.111-.68.204-1.097.278-.416.074-.838.152-1.264.236-.426.083-.847.19-1.264.319-.416.13-.787.306-1.11.528a2.57 2.57 0 0 0-.779.833c-.194.333-.291.76-.291 1.277 0 .87.25 1.528.75 1.972.5.445 1.055.667 1.666.667.704 0 1.348-.195 1.931-.583.584-.39 1.032-.843 1.348-1.361l.11-4.166zM167.5 46.96c.833-.629 1.601-1.055 2.306-1.277a7.155 7.155 0 0 1 2.167-.334c.666 0 1.278.098 1.833.292a3.987 3.987 0 0 1 1.417.833c.389.361.695.797.917 1.306.222.51.333 1.069.333 1.68 0 1.055-.018 2.106-.055 3.152a93.2 93.2 0 0 0-.056 3.319c0 .222.004.458.014.708.01.25.05.472.125.667.074.194.18.356.32.486.138.13.347.194.625.194.092 0 .19-.004.291-.014a.685.685 0 0 0 .292-.097v.611a3.276 3.276 0 0 1-.764.222 5.69 5.69 0 0 1-1.014.084c-.593 0-1.047-.153-1.361-.459-.315-.305-.5-.698-.556-1.18-.667.666-1.324 1.157-1.972 1.472-.65.314-1.445.472-2.39.472-.463 0-.917-.065-1.361-.194a3.116 3.116 0 0 1-1.18-.64 3.498 3.498 0 0 1-.834-1.068c-.213-.417-.32-.893-.32-1.43 0-1.112.348-1.973 1.042-2.584.695-.61 1.653-1.018 2.876-1.222 1-.166 1.782-.31 2.347-.43s.981-.245 1.25-.375.43-.282.486-.458c.056-.176.084-.403.084-.68 0-.463-.056-.908-.167-1.334a3.096 3.096 0 0 0-.528-1.11 2.672 2.672 0 0 0-.944-.765c-.39-.194-.861-.291-1.417-.291-.741 0-1.431.167-2.07.5-.639.333-1.116.796-1.43 1.388h-.306V46.96zM181.82 43.822c-.01-.74-.023-1.472-.041-2.194-.019-.722-.042-1.412-.07-2.07a45.945 45.945 0 0 0-.097-1.68c.518.093.935.14 1.25.14.315 0 .731-.047 1.25-.14a45.39 45.39 0 0 0-.097 1.68c-.028.658-.051 1.348-.07 2.07a159.559 159.559 0 0 0-.055 4.25v5.026a158.987 158.987 0 0 0 .056 4.25c.018.721.041 1.407.069 2.054.028.649.06 1.186.097 1.611a14.312 14.312 0 0 0-2.5 0c.037-.425.07-.962.097-1.61.028-.648.051-1.334.07-2.056a176.837 176.837 0 0 0 .055-4.249v-5.027c0-.63-.005-1.314-.014-2.055M190.335 52.515c0 1.11.116 2.027.348 2.75.231.722.527 1.3.889 1.735.36.435.773.736 1.236.903.463.166.917.25 1.361.25.722 0 1.343-.18 1.862-.542a4.437 4.437 0 0 0 1.291-1.416 6.603 6.603 0 0 0 .75-1.986c.158-.74.237-1.481.237-2.222 0-1.777-.343-3.133-1.028-4.068-.686-.935-1.695-1.403-3.029-1.403-.666 0-1.245.153-1.736.458a3.682 3.682 0 0 0-1.222 1.278c-.324.546-.565 1.185-.722 1.916a11.13 11.13 0 0 0-.237 2.347zm7.89 3.666a6.864 6.864 0 0 1-.597.958 4.786 4.786 0 0 1-2.292 1.68c-.519.185-1.12.278-1.806.278-.704 0-1.394-.12-2.07-.361a4.664 4.664 0 0 1-1.805-1.18c-.528-.546-.954-1.25-1.278-2.111-.324-.861-.486-1.893-.486-3.097 0-1.185.175-2.212.527-3.083.352-.87.81-1.597 1.376-2.18a5.526 5.526 0 0 1 1.917-1.305 5.728 5.728 0 0 1 2.153-.43c2.056 0 3.481.925 4.278 2.777h.055v-2.722c0-.703-.004-1.412-.013-2.125a2217.293 2217.293 0 0 0-.056-3.874 63.348 63.348 0 0 0-.042-1.527c.223.037.435.069.64.097a4.533 4.533 0 0 0 1.208 0c.194-.028.412-.06.653-.097a45.722 45.722 0 0 0-.14 2.569c-.036 1.12-.069 2.356-.096 3.707-.028 1.352-.052 2.74-.07 4.166a300.636 300.636 0 0 0-.028 3.916c0 1.278.01 2.426.028 3.444l.056 3.138a10.534 10.534 0 0 0-2.14 0l.084-2.638h-.056zM209.56 46.238c-.685 0-1.264.158-1.736.472a4.054 4.054 0 0 0-1.167 1.18c-.305.473-.537.991-.694 1.556a8.22 8.22 0 0 0-.292 1.597c.574.019 1.171.037 1.792.055a60.459 60.459 0 0 0 3.681 0c.63-.018 1.24-.036 1.834-.055 0-.5-.042-1.028-.126-1.583a4.942 4.942 0 0 0-.5-1.555 3.322 3.322 0 0 0-1.041-1.195c-.445-.314-1.028-.472-1.75-.472m-6.418 6.416c0-2.278.542-4.064 1.625-5.36 1.083-1.296 2.662-1.945 4.737-1.945.981 0 1.829.153 2.542.459.713.305 1.31.713 1.792 1.222.481.51.837 1.106 1.07 1.791.23.685.347 1.416.347 2.194a10.48 10.48 0 0 1-.056 1.083l-2.973-.055c-.981-.018-1.972-.028-2.972-.028-.611 0-1.218.01-1.82.028l-1.82.055a2.285 2.285 0 0 0-.028.417v.36c0 .723.107 1.399.32 2.028a4.6 4.6 0 0 0 .93 1.625c.408.454.908.815 1.5 1.083.593.269 1.279.403 2.057.403.37 0 .75-.05 1.139-.153a6.42 6.42 0 0 0 2.18-1.041c.325-.24.607-.5.848-.778l.139.083-.167 1.361c-.555.445-1.246.824-2.07 1.139a7.146 7.146 0 0 1-2.57.472c-1 0-1.912-.153-2.736-.458a6.055 6.055 0 0 1-2.139-1.333 5.983 5.983 0 0 1-1.39-2.07 6.779 6.779 0 0 1-.485-2.582"/>
        <g transform="translate(218.148 45.34)">
            <mask id="d" fill="#fff">
                <use xlink:href="#c"/>
            </mask>
            <path fill="#00394E" d="M5.845 2.26a2.506 2.506 0 0 0-.82-.139 2.34 2.34 0 0 0-1.194.306 2.78 2.78 0 0 0-.89.819c-.24.343-.426.75-.555 1.222a5.69 5.69 0 0 0-.194 1.514v3.054c0 1.241.004 2.19.014 2.847.009.658.041 1.19.097 1.597a11.634 11.634 0 0 0-2.278 0c.055-.63.087-1.486.097-2.569.01-1.083.014-2.411.014-3.985v-.889c0-.722-.005-1.555-.014-2.5A93.18 93.18 0 0 0 .025.289c.203.037.398.07.583.097.185.028.38.042.584.042.166 0 .342-.014.527-.042.185-.028.38-.06.584-.097a19.23 19.23 0 0 0-.125 1.583c-.01.389-.014.76-.014 1.111l.055.028c1.093-2 2.315-3 3.668-3 .166 0 .31.01.43.028.12.019.273.065.459.139-.093.222-.149.56-.167 1.014-.019.454-.028.865-.028 1.236l-.194.138c-.093-.11-.274-.212-.542-.305" mask="url(#d)"/>
        </g>
        <path fill="#007FA0" d="M77.73 70.943c-.038-.97-.08-1.96-.125-2.968.687.03 1.371.057 2.051.08a60.578 60.578 0 0 0 4.138 0c.703-.023 1.467-.05 2.292-.08a3.496 3.496 0 0 0 0 1.375 34.25 34.25 0 0 0-1.49-.126 65.064 65.064 0 0 0-1.776-.092c-.604-.023-1.185-.042-1.743-.057a53.279 53.279 0 0 0-1.386-.023 115.378 115.378 0 0 0-.046 3.002c0 .535.003 1.028.011 1.478.008.45.012.92.012 1.41a95.91 95.91 0 0 0 2.991-.047c.986-.03 1.96-.091 2.923-.183a2.656 2.656 0 0 0 0 1.375c-.382-.046-.814-.08-1.295-.103a85.602 85.602 0 0 0-1.502-.057 54.571 54.571 0 0 0-1.582-.023h-1.535v1.948c0 1.008.019 2.001.057 2.979.038.977.08 1.94.126 2.887a12.92 12.92 0 0 0-1.123-.046c-.398 0-.772.015-1.123.046.045-.947.087-1.91.126-2.887.038-.978.057-1.971.057-2.98v-3.94c0-1.01-.02-1.998-.057-2.968"/>
        <g transform="translate(86.714 72.49)">
            <mask id="f" fill="#fff">
                <use xlink:href="#e"/>
            </mask>
            <path fill="#007FA0" d="M2.077 5.82c0 .642.057 1.261.172 1.857.115.595.31 1.127.584 1.592.276.467.642.837 1.1 1.112.46.275 1.024.412 1.697.412.672 0 1.238-.137 1.696-.412a3.127 3.127 0 0 0 1.1-1.112c.276-.465.47-.997.585-1.592a9.806 9.806 0 0 0 .172-1.856c0-.642-.057-1.26-.172-1.857a4.945 4.945 0 0 0-.584-1.592 3.13 3.13 0 0 0-1.1-1.112C6.866.985 6.301.848 5.63.848c-.673 0-1.238.137-1.696.412a3.13 3.13 0 0 0-1.1 1.112c-.276.466-.47.997-.585 1.592a9.807 9.807 0 0 0-.172 1.857m-2.017 0c0-1.04.164-1.921.493-2.647.328-.726.76-1.314 1.295-1.765a5.122 5.122 0 0 1 1.8-.985A6.663 6.663 0 0 1 5.63.114c.672 0 1.337.104 1.994.31a5.144 5.144 0 0 1 1.788.985c.535.451.967 1.04 1.296 1.765.328.726.492 1.608.492 2.647 0 1.039-.164 1.92-.492 2.646-.33.726-.76 1.314-1.296 1.765a4.716 4.716 0 0 1-1.788.95 7.395 7.395 0 0 1-1.994.276 7.436 7.436 0 0 1-1.983-.275 4.703 4.703 0 0 1-1.8-.951C1.314 9.782.882 9.193.554 8.467.223 7.742.06 6.86.06 5.821" mask="url(#f)"/>
        </g>
        <path fill="#007FA0" d="M100.459 80.258c0-.81.011-1.501.034-2.074.023-.573.035-1.142.035-1.707a144.348 144.348 0 0 0-.046-3.644c.382.077.703.115.963.115.244 0 .557-.038.94-.115a62.448 62.448 0 0 0-.172 3.013 95.98 95.98 0 0 0-.058 3.358c0 .794.069 1.401.207 1.821.137.42.305.738.504.951.214.245.485.447.814.608.328.16.714.24 1.157.24.642 0 1.177-.14 1.605-.424.428-.282.741-.63.94-1.042.106-.26.19-.482.252-.665.06-.183.11-.427.149-.733.038-.306.06-.718.069-1.238.007-.519.011-1.23.011-2.13v-1.926a30.05 30.05 0 0 0-.046-1.833c.168.03.329.057.482.08a3.246 3.246 0 0 0 .963 0c.152-.023.305-.05.458-.08a68.29 68.29 0 0 0-.138 3.449c-.015 1.108-.023 2.28-.023 3.517 0 .688.008 1.36.023 2.017.015.657.038 1.291.07 1.902a8.932 8.932 0 0 0-1.789 0 7.55 7.55 0 0 0 .034-.435c.008-.153.012-.313.012-.482v-.985h-.046c-.397.733-.91 1.272-1.536 1.616a4.174 4.174 0 0 1-2.04.515c-1.192 0-2.128-.317-2.808-.95-.68-.635-1.02-1.548-1.02-2.74M120.012 74.678c-.443-.588-1.054-.882-1.834-.882-1.07 0-1.853.328-2.35.985-.496.657-.744 1.581-.744 2.773V79.5c0 .688.011 1.41.034 2.166.023.756.073 1.44.15 2.051a11.836 11.836 0 0 0-2.064 0c.076-.61.126-1.295.15-2.05.022-.757.034-1.479.034-2.167v-2.383c0-.687-.012-1.41-.035-2.165a25.013 25.013 0 0 0-.149-2.12 6.13 6.13 0 0 0 1.032.115c.122 0 .255-.012.4-.035l.517-.08a24.51 24.51 0 0 0-.07 1.833h.047c.427-.656.94-1.164 1.536-1.524.596-.358 1.306-.538 2.131-.538.428 0 .86.061 1.296.183a3.11 3.11 0 0 1 1.18.63c.351.298.638.703.86 1.215.221.512.332 1.165.332 1.96 0 .656-.015 1.332-.046 2.027-.03.696-.046 1.432-.046 2.212v1.49a21.794 21.794 0 0 0 .046 1.397 9.63 9.63 0 0 0-1.902 0c.03-.794.064-1.612.103-2.452.038-.84.057-1.703.057-2.59V77.28c0-1.146-.222-2.013-.665-2.601M127.187 78.516c0 .917.096 1.673.287 2.269.19.596.435 1.073.733 1.432.298.36.638.607 1.02.745a3.3 3.3 0 0 0 1.124.206c.596 0 1.108-.149 1.535-.447a3.663 3.663 0 0 0 1.066-1.168 5.45 5.45 0 0 0 .62-1.639c.129-.61.194-1.222.194-1.833 0-1.467-.283-2.586-.848-3.357-.566-.772-1.398-1.158-2.499-1.158-.55 0-1.028.126-1.432.378A3.04 3.04 0 0 0 127.978 75c-.267.45-.466.977-.596 1.58a9.19 9.19 0 0 0-.195 1.937zm6.51 3.025a5.655 5.655 0 0 1-.492.79 3.947 3.947 0 0 1-1.891 1.386c-.429.154-.925.23-1.49.23-.582 0-1.15-.1-1.708-.298a3.847 3.847 0 0 1-1.49-.974c-.436-.45-.788-1.03-1.055-1.741-.267-.71-.401-1.562-.401-2.555 0-.978.145-1.826.436-2.544.29-.718.668-1.318 1.134-1.799.466-.481.993-.84 1.582-1.077a4.724 4.724 0 0 1 1.776-.355c1.697 0 2.873.764 3.53 2.292h.046V72.65c0-.58-.003-1.165-.011-1.753a2726.943 2726.943 0 0 0-.046-3.197c-.008-.473-.02-.894-.034-1.26.183.03.359.057.527.08a3.747 3.747 0 0 0 .997 0l.539-.08c-.046.489-.084 1.195-.115 2.12-.03.924-.057 1.944-.08 3.058a444.465 444.465 0 0 0-.057 3.438 249.637 249.637 0 0 0-.023 3.231c0 1.054.007 2.001.023 2.842l.046 2.59a8.672 8.672 0 0 0-1.765 0l.068-2.178h-.046zM144.586 78.012c-.26.092-.562.168-.906.23-.343.06-.691.125-1.043.194-.351.069-.699.157-1.043.264-.343.107-.65.252-.917.435a2.118 2.118 0 0 0-.641.687c-.16.275-.241.627-.241 1.054 0 .719.206 1.26.619 1.627.412.367.87.55 1.375.55.58 0 1.112-.16 1.593-.48.482-.322.852-.696 1.112-1.124l.092-3.437zm-5.662-4.079c.688-.52 1.322-.87 1.902-1.054a5.904 5.904 0 0 1 1.788-.275c.55 0 1.055.08 1.513.24.459.16.849.39 1.17.688.32.298.573.657.756 1.077.183.42.275.882.275 1.387 0 .87-.015 1.738-.046 2.6-.03.864-.046 1.776-.046 2.739 0 .183.004.378.012.584.007.206.042.39.103.55.06.16.149.294.263.401.115.107.287.16.516.16.077 0 .157-.003.24-.01a.561.561 0 0 0 .242-.081v.504a2.697 2.697 0 0 1-.63.183 4.697 4.697 0 0 1-.837.07c-.49 0-.864-.127-1.124-.379-.26-.252-.412-.576-.458-.974-.55.55-1.093.955-1.628 1.215-.535.26-1.192.39-1.971.39a4 4 0 0 1-1.123-.161 2.57 2.57 0 0 1-.974-.527 2.885 2.885 0 0 1-.688-.883 2.555 2.555 0 0 1-.264-1.18c0-.916.287-1.627.86-2.13.573-.505 1.364-.84 2.372-1.01.826-.137 1.471-.255 1.937-.354.466-.1.81-.203 1.032-.31.221-.106.355-.233.4-.378.047-.145.07-.332.07-.561 0-.382-.046-.749-.138-1.1a2.556 2.556 0 0 0-.435-.917 2.204 2.204 0 0 0-.78-.63c-.32-.16-.71-.24-1.169-.24-.611 0-1.18.137-1.707.412-.528.275-.921.657-1.181 1.146h-.252v-1.192zM152.242 69.762c-.046.581-.08 1.15-.103 1.708-.023.557-.05 1.119-.08 1.684.168 0 .481-.004.94-.012.458-.007.955-.026 1.49-.057a.921.921 0 0 0-.023.252v.481c0 .107.007.184.023.23a15.903 15.903 0 0 0-1.307-.046h-1.123c-.016.061-.035.306-.058.733-.022.428-.042.936-.057 1.524s-.027 1.203-.034 1.845c-.008.641-.012 1.214-.012 1.718 0 .428.012.848.035 1.26.023.413.095.784.218 1.112.122.329.305.592.55.79.244.2.596.299 1.054.299.122 0 .287-.015.493-.046a3.83 3.83 0 0 0 .539-.115v.55c-.26.046-.547.103-.86.172a4.224 4.224 0 0 1-.905.103c-.963 0-1.674-.237-2.132-.71-.459-.474-.688-1.169-.688-2.086 0-.412.008-.859.023-1.34.015-.481.034-1.008.057-1.581s.042-1.207.058-1.902c.015-.695.022-1.47.022-2.326h-.733c-.123 0-.252.004-.39.011-.137.008-.283.02-.435.035a2.967 2.967 0 0 0 .035-.756 2.567 2.567 0 0 0-.035-.23c.687.046 1.192.069 1.513.069a34.557 34.557 0 0 1-.035-1.146 31.849 31.849 0 0 0-.057-1.42l1.903-.803h.114zM157.125 77.118c0-.687-.012-1.409-.035-2.165a25.004 25.004 0 0 0-.149-2.12c.428.077.772.115 1.032.115s.603-.038 1.031-.115a24.801 24.801 0 0 0-.149 2.12 71.2 71.2 0 0 0-.034 2.165v2.384c0 .687.011 1.409.034 2.165.023.756.073 1.44.15 2.051a11.839 11.839 0 0 0-2.064 0c.077-.61.126-1.295.15-2.05a71.99 71.99 0 0 0 .034-2.166v-2.384zm-.321-8.272c0-.321.114-.596.344-.825.229-.23.504-.344.825-.344.32 0 .596.115.825.344.23.229.344.504.344.825 0 .32-.115.596-.344.825-.229.229-.504.343-.825.343-.321 0-.596-.114-.825-.343a1.125 1.125 0 0 1-.344-.825z"/>
        <g transform="translate(161.962 72.49)">
            <mask id="h" fill="#fff">
                <use xlink:href="#g"/>
            </mask>
            <path fill="#007FA0" d="M2.017 5.82c0 .642.058 1.261.172 1.857.115.595.31 1.127.585 1.592.275.467.642.837 1.1 1.112.458.275 1.024.412 1.696.412.673 0 1.238-.137 1.697-.412a3.127 3.127 0 0 0 1.1-1.112c.275-.465.47-.997.584-1.592a9.806 9.806 0 0 0 .172-1.856c0-.642-.057-1.26-.172-1.857a4.945 4.945 0 0 0-.584-1.592 3.13 3.13 0 0 0-1.1-1.112C6.808.985 6.243.848 5.57.848c-.672 0-1.238.137-1.696.412a3.131 3.131 0 0 0-1.1 1.112c-.275.466-.47.997-.585 1.592a9.807 9.807 0 0 0-.172 1.857M0 5.82C0 4.78.164 3.9.493 3.174c.328-.726.76-1.314 1.295-1.765a5.122 5.122 0 0 1 1.8-.985A6.662 6.662 0 0 1 5.57.114c.673 0 1.337.104 1.995.31a5.144 5.144 0 0 1 1.788.985c.534.451.966 1.04 1.295 1.765.328.726.493 1.608.493 2.647 0 1.039-.165 1.92-.493 2.646-.329.726-.76 1.314-1.295 1.765a4.716 4.716 0 0 1-1.788.95 7.394 7.394 0 0 1-1.995.276 7.436 7.436 0 0 1-1.983-.275 4.703 4.703 0 0 1-1.799-.951C1.253 9.782.821 9.193.493 8.467.164 7.742 0 6.86 0 5.821" mask="url(#h)"/>
        </g>
        <path fill="#007FA0" d="M182.455 74.678c-.444-.588-1.055-.882-1.834-.882-1.07 0-1.853.328-2.35.985-.496.657-.745 1.581-.745 2.773V79.5c0 .688.012 1.41.035 2.166.023.756.072 1.44.149 2.051a11.836 11.836 0 0 0-2.063 0c.076-.61.126-1.295.149-2.05.022-.757.034-1.479.034-2.167v-2.383c0-.687-.012-1.41-.034-2.165a25.015 25.015 0 0 0-.15-2.12c.428.077.772.115 1.032.115.122 0 .256-.012.401-.035l.516-.08a24.51 24.51 0 0 0-.069 1.833h.046c.428-.656.94-1.164 1.536-1.524.596-.358 1.307-.538 2.132-.538.427 0 .86.061 1.295.183.436.123.829.332 1.18.63.352.298.638.703.86 1.215.221.512.332 1.165.332 1.96 0 .656-.015 1.332-.045 2.027-.031.696-.046 1.432-.046 2.212v1.49a21.46 21.46 0 0 0 .046 1.397 9.63 9.63 0 0 0-1.903 0c.03-.794.065-1.612.103-2.452.038-.84.057-1.703.057-2.59V77.28c0-1.146-.221-2.013-.664-2.601"/>
    </g>
</svg>
