<svg xmlns="http://www.w3.org/2000/svg" width="300" height="100" viewBox="0 0 300 100">
    <g fill="none" fill-rule="evenodd">
        <path fill="#FFF" d="M0 0h300v100H0z"/>
        <g fill-rule="nonzero">
            <g fill="#6B7B83">
                <path d="M166.072 60.881l-1.215.43v.564h3.444v-.565l-1.344-.429v-6.152h.161l4.12 5.858.942 1.367h.886v-7.647l1.215-.429v-.564h-3.445v.564l1.344.43v5h-.152l-3.196-4.627-.925-1.375h-3.05v.596l1.215.413v6.566zm-4.338-7.575H154.7v.564l1.489.31v6.812l-1.489.31v.565h7.622l.37-2.592-.41-.055-.805 1.208c-.339.509-.588.636-1.393.636h-2.462V57.9h.708c.813 0 1.102.16 1.376 1.105l.12.413h.476v-3.751h-.475l-.121.445c-.258.938-.555 1.089-1.376 1.089h-.708v-3.108h1.834c.846 0 1.079.12 1.513.675l.693.899.394-.096-.322-2.265zm-11.412 2.265c0 1.185-.789 1.749-2.028 1.749h-.902v-3.267c.274-.056.516-.08.902-.08 1.263-.007 2.028.51 2.028 1.598zm1.593-.071c0-1.4-1.158-2.194-3.307-2.194h-4.137v.564l1.48.31v6.812l-1.48.31v.565h4.338v-.557l-1.417-.31v-2.957h.355c.772 0 1.102.08 1.48.859l.765 1.542c.531 1.065.845 1.423 1.907 1.423h1.4v-.557c-.9-.095-1.078-.198-1.384-.508-.313-.31-.571-.899-.957-1.638-.314-.588-.83-1.145-1.554-1.375v-.143c1.554-.318 2.511-.954 2.511-2.146zm-10.776 2.082c0 2.592-1.28 3.482-3.098 3.482h-1.457v-6.947h1.159c1.923 0 3.396.89 3.396 3.465zm-6.004-3.402v6.812l-1.48.31v.565h4.273c2.849 0 4.86-1.852 4.86-4.285 0-2.416-1.81-4.276-4.78-4.276h-4.354v.564l1.481.31zm-3.372 4.96l-.394-.055-.845 1.208c-.41.58-.628.74-1.433.74H127V54.18l1.553-.31v-.564h-4.475v.564l1.481.31v6.812l-1.48.31v.565h7.34l.345-2.727zM120.553 61v-6.812l1.52-.31v-.564h-4.507v.564l1.538.31V61l-1.538.31v.565h4.507v-.565l-1.52-.31zm-7.96-3.998h-4.604V54.18l1.417-.31v-.564h-4.346v.564l1.48.31v6.812l-1.48.31v.565h4.346v-.557l-1.417-.31v-3.147h4.604V61l-1.417.31v.565h4.338v-.565l-1.48-.31v-6.812l1.48-.31v-.564h-4.338v.564l1.417.31v2.814zm-9.86 2.639l-.466-.19-1.288 1.692a2.726 2.726 0 0 1-1.086.207c-2.181 0-3.445-1.415-3.445-3.879 0-2.019 1.055-3.633 2.704-3.633 1.264 0 1.94.732 2.785 2.155l.588-.032-.113-2.902h-.563l-.387.501c-.587-.302-1.24-.46-2.173-.46-2.35 0-4.523 1.764-4.523 4.506 0 2.846 1.908 4.547 4.765 4.547 1.167 0 2.044-.215 2.93-.724l.273-1.788zm-17.222 3.068h1.15l.862-3.887c.571-.66.885-1.017 1.376-1.264.322.231.588.374.918.374a.82.82 0 0 0 .82-.835c0-.484-.305-.779-.844-.779-.749 0-1.248.565-2.004 1.574l-.137-.04.346-1.478-.113-.111-2.294.715-.024.477 1.055.358-1.111 4.896zm-4.306-.652c-.837 0-1.392-.572-1.392-1.78 0-1.479.805-3.116 2.028-3.116.829 0 1.384.58 1.384 1.78.008 1.479-.796 3.116-2.02 3.116zm-.499.811c2.181 0 3.807-2.154 3.807-4.213 0-1.55-.998-2.305-2.165-2.305-2.18 0-3.807 2.154-3.807 4.213 0 1.55.998 2.305 2.165 2.305zm-7.758 2.846c.555 0 1.086-.23 1.53-.66.86-.827 1.134-1.526 1.496-3.537l.708-4.046h1.554l.169-.835h-1.57l.129-.683c.346-1.908.958-2.631 1.746-2.735.21.7.572 1.042 1.087 1.042.475 0 .748-.302.748-.7 0-.493-.499-1.01-1.416-1.01-.636 0-1.24.168-1.747.557-.957.716-1.36 1.534-1.625 3.132l-.057.326-1.529.381-.112.525h1.456l-.941 5.381c-.193 1.073-.403 1.67-.805 2.027-.29-.381-.596-.604-1.038-.604-.475 0-.805.286-.805.66-.008.397.354.779 1.022.779zM275.719 46.12l-1.224.437v.573h3.477v-.573l-1.36-.437v-6.216h.16l4.162 5.914.95 1.383h.893v-7.718l1.223-.43v-.571h-3.477v.572l1.36.437v5.047h-.153l-3.227-4.665-.933-1.384h-3.083v.597l1.224.42v6.614h.008zm-5.03-3.322c0 2.647-1.248 3.855-2.511 3.855-1.377 0-2.817-.882-2.817-3.855s1.247-3.84 2.51-3.84c1.377 0 2.818 1.209 2.818 3.84zm1.665 0c0-2.44-1.52-4.515-4.29-4.515-2.639 0-4.37 2.074-4.37 4.515 0 2.456 1.522 4.53 4.282 4.53 2.648 0 4.378-2.074 4.378-4.53zm-12.337 3.45v-6.884l1.537-.31v-.572h-4.547v.572l1.553.31v6.875l-1.553.31v.573h4.547v-.573l-1.537-.302zm-5.006-5.215l-.491-2.551h-7.597l-.483 2.551.41.08.7-1.042c.507-.747.765-.842 1.473-.842h1.014v7.01l-1.593.31v.573h4.643v-.573l-1.593-.31v-7.01h.917c.717 0 1.006.135 1.473.842l.7 1.042.427-.08zm-12.901 2.472h-2.72l1.295-3.648h.113l1.312 3.648zm2.503 2.687l-2.97-7.79h-1.167l-2.953 7.758-1.143.397v.573h3.082v-.533l-1.014-.39.684-1.97h3.243l.74 2.058-1.303.302v.533h3.928v-.573l-1.127-.365zm-10.962-3.394c0 2.615-1.287 3.513-3.13 3.513h-1.473v-7.01h1.167c1.956 0 3.436.89 3.436 3.497zm-6.06-3.434v6.875l-1.497.31v.573h4.314c2.873 0 4.901-1.868 4.901-4.324 0-2.44-1.827-4.316-4.82-4.316h-4.395v.572l1.497.31zm-11.758 6.756l-1.223.437v.573h3.476v-.573l-1.36-.437v-6.216h.161l4.161 5.914.95 1.383h.893v-7.718l1.223-.437v-.564h-3.476v.572l1.36.437v5.047h-.153l-3.227-4.665-.934-1.384h-3.074v.597l1.223.42v6.614zm-5.336-6.637v4.42c0 1.558-.78 2.535-2.23 2.535-1.593 0-2.47-.77-2.47-2.416v-4.658l1.497-.31v-.572h-4.346v.572l1.36.31v4.698c0 2.201 1.376 3.298 3.59 3.298 2.18 0 3.484-1.343 3.484-3.243v-4.634l1.224-.437v-.564h-3.34v.572l1.231.43zm-10.728 3.315c0 2.647-1.247 3.855-2.51 3.855-1.377 0-2.818-.882-2.818-3.855s1.248-3.84 2.511-3.84c1.377 0 2.817 1.209 2.817 3.84zm1.666 0c0-2.44-1.53-4.515-4.29-4.515-2.64 0-4.37 2.074-4.37 4.515 0 2.456 1.521 4.53 4.29 4.53 2.64 0 4.37-2.074 4.37-4.53zm-10.672-2.02l-.33-2.289h-7.106v.565l1.497.31v6.875l-1.497.31v.573h4.531v-.573l-1.577-.31v-3.068h.74c.82 0 1.11.151 1.384 1.097l.121.421h.483v-3.775h-.483l-.113.445c-.257.946-.563 1.113-1.384 1.113h-.74v-3.188h1.786c.861 0 1.143.08 1.594.676l.7.906.394-.087zM173.42 40.803c0 1.192-.797 1.764-2.044 1.764h-.91v-3.299c.274-.055.523-.079.91-.079 1.271 0 2.044.517 2.044 1.614zm1.61-.064c0-1.407-1.168-2.21-3.34-2.21h-4.177v.573l1.496.31v6.875l-1.496.31v.572h4.386v-.572l-1.425-.31v-2.98h.354c.781 0 1.111.079 1.497.866l.773 1.558c.531 1.073.853 1.438 1.923 1.438h1.417v-.572c-.91-.095-1.087-.199-1.4-.516-.314-.31-.58-.907-.958-1.654-.314-.596-.837-1.152-1.57-1.383v-.15c1.554-.31 2.52-.947 2.52-2.155zm-11.332-2.218h-7.099v.573l1.497.31v6.875l-1.497.31v.573h7.694l.37-2.624-.41-.055-.813 1.224c-.346.517-.587.636-1.4.636h-2.487v-3.188h.716c.821 0 1.11.167 1.385 1.113l.12.421h.483v-3.775h-.483l-.12.445c-.258.946-.564 1.097-1.385 1.097h-.716v-3.132h1.86c.852 0 1.086.12 1.528.676l.7.906.395-.095-.338-2.29zm-12.845 3.736h-4.644v-2.853l1.433-.31v-.573h-4.386v.573l1.497.31v6.875l-1.497.31v.573h4.386v-.573l-1.433-.31v-3.171h4.644v3.171l-1.424.31v.573h4.378v-.573l-1.497-.31v-6.875l1.497-.31v-.573h-4.378v.573l1.424.31v2.853zm-10.752 2.6l-.467-.191-1.288 1.693a2.726 2.726 0 0 1-1.086.206c-2.181 0-3.445-1.407-3.445-3.879 0-2.019 1.063-3.632 2.705-3.632 1.263 0 1.94.731 2.784 2.162l.588-.024-.105-2.901h-.563l-.387.5c-.587-.302-1.239-.46-2.173-.46-2.35 0-4.523 1.764-4.523 4.498 0 2.854 1.908 4.547 4.765 4.547 1.167 0 2.044-.214 2.93-.715l.265-1.805zm-11.163-.16c0-1.096-.547-1.78-1.666-2.305-.507-.246-.91-.39-1.384-.596-.934-.397-1.336-.803-1.336-1.613 0-.732.483-1.264 1.248-1.264.82 0 1.4.445 2.156 1.995l.604-.024-.233-2.607h-.604l-.233.405c-.37-.206-.87-.365-1.57-.365-1.4 0-2.648.882-2.648 2.456 0 1.073.548 1.74 1.522 2.21.426.206.772.31 1.207.5 1.159.485 1.65.978 1.65 1.749 0 .882-.54 1.534-1.538 1.534-1.03 0-1.94-.636-2.543-2.36l-.603.023.16 2.973h.62l.234-.421c.507.214 1.287.381 1.988.381 1.496 0 2.97-.938 2.97-2.67zm-13.062-2.432l2.664-2.702 1.248-.477v-.565h-3.244v.54l1.03.422-2.68 2.846h-1.126v-2.925l1.303-.31v-.573h-4.257v.573l1.497.31v6.875l-1.497.31v.573h4.257v-.573l-1.303-.31v-3.171h1.07l2.551 3.219-.933.326v.516h3.75v-.572l-1.199-.39-3.13-3.942zm-8.281 2.591l-.467-.19-1.296 1.693a2.726 2.726 0 0 1-1.086.206c-2.181 0-3.445-1.407-3.445-3.879 0-2.019 1.055-3.632 2.704-3.632 1.264 0 1.94.731 2.785 2.162l.596-.024-.113-2.901h-.563l-.387.5c-.587-.302-1.24-.46-2.173-.46-2.35 0-4.523 1.764-4.523 4.498 0 2.854 1.908 4.547 4.765 4.547 1.167 0 2.044-.214 2.93-.715l.273-1.805zm-11.96-6.335h-7.098v.573l1.497.31v6.875l-1.497.31v.573h7.694l.37-2.624-.41-.055-.813 1.224c-.346.517-.596.636-1.4.636H91.49v-3.188h.716c.82 0 1.11.167 1.384 1.113l.121.421h.483v-3.775h-.483l-.129.445c-.257.946-.563 1.097-1.384 1.097h-.716v-3.132h1.85c.854 0 1.087.12 1.53.676l.7.906.402-.095-.33-2.29zm-12.844 3.736h-4.644v-2.853l1.433-.31v-.573H75.2v.573l1.497.31v6.875l-1.497.31v.573h4.379v-.573l-1.433-.31v-3.171h4.644v3.171l-1.433.31v.573h4.378v-.573l-1.489-.302v-6.883l1.497-.31v-.573h-4.378v.573l1.433.31v2.853h-.008z"/>
            </g>
            <path fill="#02549E" d="M16 35h14.092v30.444H16z"/>
            <path fill="#078C45" d="M49.464 35h14.092v30.444H49.464z"/>
            <path fill="#6B7B83" d="M32.732 35h14.092v13.918H32.732z"/>
            <path fill="#F05124" d="M32.732 51.525h14.092v13.918H32.732z"/>
        </g>
    </g>
</svg>
