<svg xmlns="http://www.w3.org/2000/svg" width="300" height="100" viewBox="0 0 300 100">
    <defs>
        <linearGradient id="a" x1="29.953%" x2="76.967%" y1="13.7%" y2="93.76%">
            <stop offset="0%" stop-color="#FCA900"/>
            <stop offset="100%" stop-color="#FEFEFE"/>
        </linearGradient>
        <linearGradient id="b" x1="37.987%" x2="54.775%" y1="14.267%" y2="19.288%">
            <stop offset="0%" stop-color="#C30044"/>
            <stop offset="100%" stop-color="#D9371F"/>
        </linearGradient>
    </defs>
    <g fill="none" fill-rule="evenodd">
        <path fill="#FFF" d="M0 0h300v100H0z"/>
        <g fill-rule="nonzero">
            <path fill="#FFF" d="M78.66 42.353c-.727-1.8-2.494-3.748-5.824-3.478-4.234.46-5.542 4.466-4.908 6.875-1.685-1.136-4.544-1.624-7.052.501-3.222 3.208-1.496 7.538.27 8.58-1.955-.175-5.043 1.137-5.73 4.561-.728 4.25 2.548 6.74 5.73 6.74h35.326c3.68 0 5.73-3.153 5.501-6.144-.364-3.884-3.95-5.373-5.906-5.062 1.632-.906 3.816-5.156.5-8.499-2.643-2.49-6-1.583-7.187-.5.633-2.071-.405-6.375-4.679-7.052-.297-.027-.58-.054-.85-.054-3.262 0-4.732 2.368-5.19 3.532"/>
            <path fill="#D2532A" d="M61.47 46.914c-1.861 1.678-2.549 5.468.822 7.688l13.416 9.121-6.499-14.765c-1.375-3.492-5.097-4.25-7.74-2.044"/>
            <path fill="#AF2630" d="M73.025 39.728c-2.185.04-5.461 2.612-3.991 6.55l6.728 15.727 2.346-16.539c.553-4.114-2.589-6.009-5.083-5.738"/>
            <path fill="#4E3F92" d="M79.16 44.83h1.267s.674 0 .769.311c-.5.406-1.861.46-1.686 2.626l2.144 14.224 6.674-15.767c1.362-3.519-1.497-6.456-4.045-6.55-.121-.014-.243-.014-.364-.014-2.265.014-4.88 1.651-4.76 5.17"/>
            <path fill="#4273AE" d="M88.072 49.08l-6.324 14.59 13.416-9.163c3.088-2.18 2.589-5.644.863-7.363-.728-.812-2.063-1.434-3.465-1.434-1.672 0-3.452.88-4.49 3.37"/>
            <path fill="#64A04F" d="M93.667 56.577l-12.593 8.716H96.58c3.182 0 5.231-3.248 4.314-6.239-.606-1.881-2.413-3.343-4.503-3.343-.876 0-1.807.271-2.724.866"/>
            <path fill="#E8B230" d="M61.106 65.293h15.276l-12.593-8.716c-2.913-1.854-6.189-.771-7.362 2.301-.998 3.533 1.497 6.415 4.679 6.415"/>
            <path fill="#000" d="M50.831 47.564V23.08h-13.55L18.16 47.7V58.12l20.603.027v7.16h12.094v-7.268h4.153l1.2-10.448-5.38-.027zm-12.229-.27h-6.714l6.714-9.204v9.203zM18 76.662v-8.594h2.09l6.04 6.428v-6.428h1.686v8.594h-2.09l-5.865-6.253v6.253M29.03 68.068h8.696v1.556h-7.011v1.76h4.88l-.026 1.556h-4.854v2.206h7.24v1.516H29.03M38.602 68.108l2.791 8.594h2.13l1.848-6.266 1.928 6.266h2.09l2.764-8.594h-1.955l-1.86 6.185-1.916-6.185H44.36l-1.915 6.185-1.955-6.185z"/>
            <g fill="#000">
                <path d="M55.591 68.108h2.36l3.303 3.722 3.37-3.722h2.225l-4.76 5.346v3.248h-1.711v-3.424z"/>
            </g>
            <path fill="#000" d="M75.506 68.65c-1.955-1.083-4.895-1.218-6.85 0-2.764 1.962-2.858 5.386 0 7.443 1.82 1.15 4.922 1.15 6.85 0 2.764-1.867 2.804-5.481 0-7.443zm-.944 5.982c-1.389.92-3.438.947-5.056 0-1.55-1.394-1.416-3.18 0-4.372 1.051-1.055 3.775-1.083 5.056 0 1.685 1.123 1.483 3.154 0 4.372z"/>
            <g fill="#000">
                <path d="M86.737 73.414c2.616-.582 2.832-4.602-.337-5.346h-7.389v8.634h1.753v-3.167l3.802.027 2.292 3.154h2.063l-2.184-3.302zm-.688-1.597h-5.19v-2.03h5.19c1.12.378 1.08 1.84 0 2.03z"/>
            </g>
            <g fill="#000">
                <path d="M90.404 68.068h1.848v4.02l5.339-4.02h2.724l-4.423 3.383 4.692 5.251H98.32l-3.87-4.317-2.184 1.678v2.64h-1.86z"/>
            </g>
        </g>
        <path fill="url(#a)" d="M129.735 20.851c0 1.235-.208 2.378-.624 3.43a8.116 8.116 0 0 1-1.754 2.732 7.952 7.952 0 0 1-2.72 1.8c-1.06.43-2.235.646-3.522.646-1.288 0-2.463-.216-3.527-.647a8.002 8.002 0 0 1-2.733-1.8 8.07 8.07 0 0 1-1.76-2.73c-.416-1.053-.624-2.196-.624-3.43 0-1.236.208-2.38.624-3.431a8.07 8.07 0 0 1 1.76-2.732 8.002 8.002 0 0 1 2.733-1.8c1.064-.43 2.24-.646 3.527-.646s2.461.218 3.521.653a8.065 8.065 0 0 1 2.72 1.8 8.053 8.053 0 0 1 1.755 2.725c.416 1.052.624 2.195.624 3.43z" transform="translate(135 35)"/>
        <path fill="#000" fill-rule="nonzero" d="M136.369 41.494v3.812H135V35.114h3c.642 0 1.201.074 1.676.224.476.15.87.361 1.181.636.312.275.545.607.699.996.153.389.23.823.23 1.302 0 .474-.083.908-.248 1.301a2.8 2.8 0 0 1-.727 1.017c-.32.285-.715.507-1.188.665-.472.16-1.014.239-1.624.239h-1.63zm0-1.096h1.63a3.16 3.16 0 0 0 1.04-.156c.3-.104.551-.25.754-.438.204-.187.357-.41.461-.672.104-.26.156-.547.156-.86 0-.65-.2-1.157-.599-1.522-.4-.365-1.003-.548-1.812-.548h-1.63v4.196zm8.665.655v4.253h-1.369V35.114h2.872c.643 0 1.198.065 1.666.195.468.13.855.32 1.16.566.305.246.53.544.677.892.146.349.22.739.22 1.17 0 .36-.057.697-.17 1.01a2.67 2.67 0 0 1-.493.843 2.95 2.95 0 0 1-.787.637 3.89 3.89 0 0 1-1.053.398c.15.089.287.213.409.372l3.008 4.109h-1.22c-.25 0-.434-.097-.552-.292l-2.638-3.641a.77.77 0 0 0-.263-.246c-.094-.05-.236-.074-.425-.074h-1.042zm0-1.003h1.44c.4 0 .754-.049 1.06-.146.304-.097.56-.235.765-.412.206-.178.36-.39.464-.637.104-.247.156-.52.156-.818 0-.607-.2-1.064-.599-1.373-.4-.308-.994-.462-1.783-.462h-1.503v3.848zm17.06.163a5.9 5.9 0 0 1-.361 2.102 4.815 4.815 0 0 1-1.021 1.647c-.44.46-.968.816-1.585 1.07a5.33 5.33 0 0 1-2.046.38c-.747 0-1.428-.126-2.042-.38a4.57 4.57 0 0 1-1.581-1.07 4.815 4.815 0 0 1-1.021-1.647 5.9 5.9 0 0 1-.362-2.102 5.9 5.9 0 0 1 .362-2.101 4.854 4.854 0 0 1 1.02-1.65c.44-.463.967-.822 1.582-1.078.614-.256 1.295-.384 2.042-.384.747 0 1.429.128 2.046.384a4.58 4.58 0 0 1 1.585 1.078c.44.462.78 1.012 1.02 1.65a5.9 5.9 0 0 1 .362 2.101zm-1.41 0c0-.625-.086-1.187-.256-1.685a3.568 3.568 0 0 0-.723-1.263 3.138 3.138 0 0 0-1.135-.793 3.841 3.841 0 0 0-1.489-.277c-.544 0-1.038.092-1.482.277-.444.185-.824.45-1.138.793a3.539 3.539 0 0 0-.727 1.263 5.194 5.194 0 0 0-.255 1.685c0 .626.085 1.187.255 1.683.17.495.413.915.727 1.258.314.344.694.607 1.138.79.444.182.938.274 1.482.274.548 0 1.045-.092 1.49-.274a3.101 3.101 0 0 0 1.134-.79c.312-.343.553-.763.723-1.258.17-.496.255-1.057.255-1.683zm7.111 1.572c0 .57-.07 1.079-.209 1.53-.14.45-.345.83-.617 1.141-.271.31-.606.549-1.003.715-.397.166-.853.249-1.369.249-.458 0-.936-.067-1.432-.2.01-.137.021-.273.036-.408l.042-.402a.32.32 0 0 1 .089-.196c.05-.05.124-.074.223-.074.085 0 .199.02.34.064.142.042.331.064.568.064.312 0 .59-.048.833-.143.243-.095.449-.242.617-.44.168-.2.295-.455.383-.765.087-.31.13-.68.13-1.106v-6.7h1.37v6.671zm8.736-6.671v1.124h-4.878v3.385h3.95v1.081h-3.95v3.478h4.878v1.124h-6.26V35.114h6.26zm9.14 8.087c.076 0 .145.03.206.092l.54.59c-.417.484-.921.861-1.515 1.131-.593.27-1.308.406-2.145.406-.732 0-1.397-.127-1.992-.38a4.367 4.367 0 0 1-1.525-1.068 4.826 4.826 0 0 1-.978-1.646 6.168 6.168 0 0 1-.348-2.113c0-.768.124-1.472.372-2.112.249-.64.597-1.19 1.046-1.65a4.68 4.68 0 0 1 1.614-1.07A5.477 5.477 0 0 1 183.02 35c.747 0 1.39.116 1.932.349a4.882 4.882 0 0 1 1.443.945l-.447.633a.488.488 0 0 1-.113.118.311.311 0 0 1-.185.046.358.358 0 0 1-.195-.068l-.088-.059c-.047-.032-.1-.068-.156-.108a5.278 5.278 0 0 0-.334-.213 2.917 2.917 0 0 0-.453-.213 3.74 3.74 0 0 0-.61-.168 4.232 4.232 0 0 0-.801-.067c-.544 0-1.042.094-1.493.28-.452.188-.84.455-1.167.801-.326.346-.58.768-.762 1.266a4.841 4.841 0 0 0-.273 1.671c0 .636.091 1.202.273 1.7.182.498.43.919.745 1.263a3.14 3.14 0 0 0 1.117.786c.43.18.893.27 1.39.27.302 0 .574-.018.815-.053a3.34 3.34 0 0 0 .67-.168c.206-.075.397-.171.574-.288.178-.116.356-.254.536-.416.08-.07.158-.106.234-.106zm9.474-8.087v1.16h-3.283v9.032h-1.376v-9.033h-3.297v-1.16h7.956zM138.222 64.273h-3.136V47.43h3.136v16.843zm4.167-16.843h1.637c.14 0 .255.005.348.017a.815.815 0 0 1 .25.07.837.837 0 0 1 .215.151c.07.066.147.154.232.262l8.814 11.264a11.632 11.632 0 0 1-.064-.798c-.011-.26-.017-.503-.017-.728V47.43h2.752v16.843h-1.614c-.248 0-.453-.04-.616-.117-.162-.078-.321-.217-.476-.42l-8.779-11.216a16.206 16.206 0 0 1 .07 1.41v10.343h-2.752V47.43zm17.95 0h1.638c.14 0 .255.005.348.017a.815.815 0 0 1 .25.07.837.837 0 0 1 .215.151c.07.066.147.154.232.262l8.814 11.264a11.632 11.632 0 0 1-.064-.798c-.012-.26-.017-.503-.017-.728V47.43h2.752v16.843h-1.614c-.248 0-.453-.04-.616-.117-.162-.078-.321-.217-.476-.42l-8.78-11.216a16.206 16.206 0 0 1 .07 1.41v10.343h-2.752V47.43zm34.058 8.421c0 1.235-.205 2.378-.615 3.43a8.13 8.13 0 0 1-1.73 2.732 7.834 7.834 0 0 1-2.683 1.8c-1.045.43-2.203.646-3.472.646-1.27 0-2.43-.216-3.478-.647a7.882 7.882 0 0 1-2.695-1.8 8.084 8.084 0 0 1-1.736-2.73c-.41-1.053-.615-2.196-.615-3.43 0-1.236.205-2.38.615-3.431a8.084 8.084 0 0 1 1.736-2.732 7.882 7.882 0 0 1 2.695-1.8c1.049-.43 2.208-.646 3.478-.646s2.427.218 3.472.653a7.945 7.945 0 0 1 2.682 1.8 8.066 8.066 0 0 1 1.73 2.725c.41 1.052.616 2.195.616 3.43zm-3.205 0c0-.924-.122-1.753-.366-2.487-.244-.734-.594-1.357-1.05-1.87a4.525 4.525 0 0 0-1.667-1.176c-.654-.272-1.392-.407-2.212-.407-.821 0-1.56.135-2.218.407A4.567 4.567 0 0 0 182 51.495c-.461.512-.815 1.135-1.063 1.87-.248.733-.372 1.562-.372 2.486 0 .924.124 1.753.372 2.487.248.734.602 1.355 1.063 1.864a4.6 4.6 0 0 0 1.678 1.17c.658.272 1.397.408 2.218.408.82 0 1.558-.136 2.212-.408a4.556 4.556 0 0 0 1.666-1.17c.457-.51.807-1.13 1.051-1.864.244-.734.366-1.563.366-2.487zm3.76-8.421h2.52c.271 0 .492.066.662.198.17.132.298.302.383.512l3.949 10.274c.131.334.257.7.377 1.1.12.4.234.822.343 1.264a14.49 14.49 0 0 1 .661-2.364l3.937-10.274c.07-.178.194-.342.372-.49.178-.147.398-.22.662-.22h2.52l-6.782 16.843h-2.822l-6.782-16.843zm31.329 16.843h-2.416c-.27 0-.493-.068-.667-.204a1.159 1.159 0 0 1-.378-.507l-1.254-3.436h-6.956l-1.254 3.436a1.102 1.102 0 0 1-.366.49 1.026 1.026 0 0 1-.668.22h-2.427l6.596-16.842h3.194l6.596 16.843zm-10.87-6.36h5.354l-2.044-5.603-.063-.172a28.28 28.28 0 0 1-.245-.707 21.483 21.483 0 0 1-.33-1.101 38.9 38.9 0 0 1-.32 1.106c-.105.342-.207.641-.308.897l-2.044 5.58zM238.53 47.43v2.574h-5.052v14.269h-3.123v-14.27h-5.075V47.43h13.25zm5.897 16.843h-3.136V47.43h3.136v16.843zm23.128-16.843h1.637c.14 0 .256.005.349.017a.815.815 0 0 1 .25.07.837.837 0 0 1 .214.151c.07.066.147.154.232.262l8.814 11.264a11.631 11.631 0 0 1-.064-.798c-.011-.26-.017-.503-.017-.728V47.43h2.752v16.843h-1.614c-.248 0-.453-.04-.615-.117-.163-.078-.322-.217-.477-.42l-8.779-11.216a16.204 16.204 0 0 1 .07 1.41v10.343h-2.752V47.43z"/>
        <g fill-rule="nonzero">
            <path fill="url(#b)" d="M8.524 0c1.27 0 2.427.217 3.472.652a7.949 7.949 0 0 1 2.67 1.787C4.92 1.024.949 5.262 2.753 15.152a6.855 6.855 0 0 1-.401-.382 8.084 8.084 0 0 1-1.737-2.732C.205 10.986 0 9.843 0 8.608c0-1.235.205-2.378.615-3.43a8.084 8.084 0 0 1 1.737-2.732 7.882 7.882 0 0 1 2.694-1.8C6.095.216 7.254 0 8.524 0z" transform="translate(247.49 47.161)"/>
            <path fill="#00A4D8" d="M256.014 47.161c1.27 0 2.427.218 3.472.653.747.31 1.417.706 2.01 1.185l-.196-.033c-9.574-1.791-13.512 2.4-11.813 12.573a8.139 8.139 0 0 1-1.382-2.34c-.41-1.052-.615-2.195-.615-3.43 0-1.234.205-2.378.615-3.43a8.084 8.084 0 0 1 1.737-2.732 7.882 7.882 0 0 1 2.694-1.8c1.049-.43 2.208-.646 3.478-.646z"/>
            <path fill="#7DC347" d="M256.014 47.161c1.27 0 2.427.218 3.472.653.358.149.7.317 1.022.505a28.671 28.671 0 0 1-1.672-.266c-7.68-1.434-11.116 2.588-10.308 12.067a8.435 8.435 0 0 1-.423-.92c-.41-1.053-.615-2.196-.615-3.43 0-1.235.205-2.379.615-3.431a8.084 8.084 0 0 1 1.737-2.732 7.882 7.882 0 0 1 2.694-1.8c1.049-.43 2.208-.646 3.478-.646z"/>
        </g>
        <path fill="#FFF" d="M261.495 55.851c0-.924-.122-1.753-.366-2.487-.243-.734-.594-1.357-1.05-1.87a4.525 4.525 0 0 0-1.667-1.176c-.654-.272-1.391-.407-2.212-.407-.82 0-1.56.135-2.218.407a4.567 4.567 0 0 0-1.678 1.177c-.46.512-.815 1.135-1.063 1.87-.247.733-.371 1.562-.371 2.486 0 .924.124 1.753.371 2.487.248.734.602 1.355 1.063 1.864a4.6 4.6 0 0 0 1.678 1.17c.658.272 1.397.408 2.218.408.82 0 1.558-.136 2.212-.408a4.556 4.556 0 0 0 1.666-1.17c.457-.51.808-1.13 1.051-1.864.244-.734.366-1.563.366-2.487z"/>
        <path fill="#000" d="M118 23h1v54h-1z"/>
    </g>
</svg>
