<svg xmlns="http://www.w3.org/2000/svg" width="300" height="100" viewBox="0 0 300 100">
    <g fill="none" fill-rule="evenodd">
        <path fill="#FFF" d="M0 0h300v100H0z"/>
        <path fill="#3A6130" fill-rule="nonzero" d="M28.575 51.157l-.264 4.228H16v-.725c.22-.018.477-.048.772-.088.296-.04.49-.079.584-.116.226-.087.383-.208.471-.363.088-.154.132-.353.132-.594v-9.302a1.29 1.29 0 0 0-.103-.553c-.07-.146-.236-.277-.5-.395a3.241 3.241 0 0 0-.701-.21 17.571 17.571 0 0 0-.655-.115v-.725h7.338v.725c-.201.018-.438.045-.711.079-.274.034-.51.082-.712.144-.245.08-.408.206-.49.376-.081.17-.122.364-.122.58v8.67c0 .41.028.732.085.967.056.236.166.41.33.52.163.118.39.194.682.228.292.034.696.051 1.21.051.503 0 .991-.029 1.466-.088.474-.059.814-.187 1.022-.385.32-.316.648-.76.984-1.334.336-.573.604-1.098.805-1.575h.688zm10.163-3.894c.465.428.82.939 1.065 1.534.245.594.367 1.239.367 1.932 0 .688-.12 1.337-.363 1.947a4.255 4.255 0 0 1-1.06 1.566 5.083 5.083 0 0 1-1.775 1.069c-.687.248-1.474.371-2.36.371a6.588 6.588 0 0 1-2.114-.325 4.989 4.989 0 0 1-1.71-.975 4.427 4.427 0 0 1-1.13-1.538c-.276-.61-.414-1.294-.414-2.05 0-.743.12-1.404.362-1.983a4.453 4.453 0 0 1 1.088-1.548c.465-.433 1.038-.77 1.72-1.008.68-.238 1.442-.358 2.283-.358.88 0 1.654.12 2.322.358a5.038 5.038 0 0 1 1.72 1.008zm-2.411 6.44a5.35 5.35 0 0 0 .306-1.264 13.269 13.269 0 0 0 .005-3.215c-.063-.558-.157-.997-.283-1.32-.15-.39-.36-.696-.626-.92-.267-.223-.605-.334-1.013-.334-.446 0-.802.12-1.069.362a2.36 2.36 0 0 0-.617.939 5.09 5.09 0 0 0-.273 1.24c-.05.474-.075.969-.075 1.483 0 .675.022 1.234.066 1.677.044.443.15.888.32 1.334.144.384.352.687.622.91.27.223.612.335 1.026.335.377 0 .7-.104.97-.312.27-.207.484-.512.641-.915zm17.492 1.682h-5.67v-.678l.433-.047c.17-.018.298-.05.386-.093a.595.595 0 0 0 .282-.297c.057-.13.085-.322.085-.576v-4.35c0-.631-.118-1.107-.353-1.426-.236-.319-.582-.478-1.04-.478-.252 0-.486.037-.703.111a2.628 2.628 0 0 0-.635.326c-.183.124-.329.25-.438.38a8.76 8.76 0 0 0-.278.344v4.99c0 .217.031.399.094.544a.653.653 0 0 0 .31.33c.101.056.227.105.377.149.151.043.299.074.443.093v.678h-5.727v-.678a8.57 8.57 0 0 0 .476-.051c.16-.022.297-.051.41-.089.2-.068.339-.173.414-.316.075-.142.113-.328.113-.557v-5.409c0-.192-.05-.38-.15-.566a1.334 1.334 0 0 0-.396-.456 1.566 1.566 0 0 0-.429-.186 3.057 3.057 0 0 0-.57-.102v-.678l4.493-.242.142.14v1.347h.037c.176-.155.39-.34.64-.557.252-.217.484-.394.698-.53.232-.149.537-.276.914-.381a4.46 4.46 0 0 1 1.205-.158c1.024 0 1.792.286 2.303.86.512.572.768 1.333.768 2.28v4.554c0 .23.035.412.104.548.069.137.197.245.386.326.1.043.224.086.372.13.147.043.315.074.504.093v.678zm11.002-2.22c-.22.352-.485.685-.796.998-.311.313-.664.58-1.06.804-.42.235-.846.413-1.276.534-.43.121-.925.181-1.484.181-.93 0-1.731-.13-2.407-.39-.675-.26-1.232-.61-1.671-1.05a4.195 4.195 0 0 1-.985-1.556 5.673 5.673 0 0 1-.325-1.947 4.866 4.866 0 0 1 1.356-3.364c.428-.44.966-.796 1.616-1.069.65-.272 1.377-.409 2.18-.409.88 0 1.602.106 2.167.316.565.21 1.033.502 1.404.874.358.353.618.77.781 1.25.164.48.245.983.245 1.51v.604H58.2c0 1.27.248 2.236.744 2.899.496.663 1.284.994 2.364.994.59 0 1.121-.16 1.592-.478a4.51 4.51 0 0 0 1.206-1.213l.716.511zm-3.599-3.532c0-.372-.018-.753-.056-1.143a3.762 3.762 0 0 0-.198-.957c-.107-.291-.253-.511-.438-.66-.185-.149-.42-.223-.702-.223-.483 0-.87.242-1.158.725-.29.483-.446 1.248-.471 2.295l3.023-.037zm22.032-4.135c0 .743-.155 1.383-.466 1.919a3.68 3.68 0 0 1-1.286 1.305 6.105 6.105 0 0 1-1.935.753c-.726.155-1.54.232-2.445.232H76.03v3.708c0 .223.042.417.127.58.085.165.246.297.485.396.126.05.33.102.612.158.283.056.521.093.716.111v.725h-7.243v-.725c.182-.018.423-.045.725-.079.301-.034.512-.076.63-.125.246-.1.408-.22.486-.363.079-.142.118-.34.118-.594v-9.302c0-.217-.038-.405-.113-.563-.076-.157-.239-.29-.49-.394a3.762 3.762 0 0 0-.702-.2c-.292-.06-.51-.098-.654-.116v-.725h7.375c1.727 0 3.017.27 3.871.813.854.542 1.281 1.37 1.281 2.486zm-3.673.474c0-.992-.203-1.727-.608-2.207-.405-.48-1.125-.72-2.162-.72h-.781v5.789h.395c1.03 0 1.814-.234 2.35-.702.537-.468.806-1.188.806-2.16zm10.521 9.413H84.15v-.678c.163-.013.324-.028.48-.047.158-.018.293-.05.406-.093.2-.074.342-.18.423-.32.082-.14.123-.324.123-.553v-5.409c0-.216-.05-.407-.15-.571a1.237 1.237 0 0 0-.378-.395 2.015 2.015 0 0 0-.513-.214 3.388 3.388 0 0 0-.626-.13v-.678l4.615-.242.141.14v7.378c0 .217.048.401.142.553.094.152.229.265.405.34.125.055.264.104.414.148.15.043.308.074.471.093v.678zM88.727 42.71c0 .47-.184.872-.551 1.203a1.883 1.883 0 0 1-1.305.497c-.508 0-.946-.165-1.314-.497-.367-.331-.55-.732-.55-1.203 0-.471.183-.874.55-1.208A1.885 1.885 0 0 1 86.871 41c.509 0 .945.167 1.31.502.364.334.546.737.546 1.208zm14.675 12.675h-5.67v-.678l.433-.047c.17-.018.298-.05.386-.093a.595.595 0 0 0 .283-.297c.056-.13.085-.322.085-.576v-4.35c0-.631-.118-1.107-.353-1.426-.236-.319-.583-.478-1.041-.478-.252 0-.485.037-.702.111a2.628 2.628 0 0 0-.636.326c-.182.124-.328.25-.438.38-.11.13-.202.245-.278.344v4.99c0 .217.032.399.094.544a.653.653 0 0 0 .311.33c.1.056.226.105.377.149.15.043.298.074.443.093v.678h-5.727v-.678a8.57 8.57 0 0 0 .475-.051c.16-.022.297-.051.41-.089.201-.068.34-.173.415-.316.075-.142.113-.328.113-.557v-5.409c0-.192-.05-.38-.151-.566a1.334 1.334 0 0 0-.396-.456 1.566 1.566 0 0 0-.428-.186 3.057 3.057 0 0 0-.57-.102v-.678l4.493-.242.141.14v1.347h.038c.176-.155.39-.34.64-.557.252-.217.484-.394.697-.53.233-.149.537-.276.914-.381a4.46 4.46 0 0 1 1.206-.158c1.023 0 1.791.286 2.303.86.512.572.768 1.333.768 2.28v4.554c0 .23.034.412.103.548.07.137.198.245.386.326.1.043.225.086.372.13.148.043.316.074.504.093v.678zm11.002-2.22c-.22.352-.485.685-.796.998-.31.313-.664.58-1.06.804-.42.235-.846.413-1.276.534-.43.121-.924.181-1.483.181-.93 0-1.732-.13-2.407-.39s-1.232-.61-1.672-1.05a4.195 4.195 0 0 1-.984-1.556 5.673 5.673 0 0 1-.325-1.947 4.866 4.866 0 0 1 1.356-3.364c.427-.44.966-.796 1.616-1.069.65-.272 1.376-.409 2.18-.409.88 0 1.602.106 2.167.316.565.21 1.033.502 1.403.874.358.353.619.77.782 1.25.163.48.245.983.245 1.51v.604h-6.368c0 1.27.248 2.236.745 2.899.496.663 1.284.994 2.364.994.59 0 1.12-.16 1.592-.478a4.51 4.51 0 0 0 1.205-1.213l.716.511zm-3.598-3.532c0-.372-.019-.753-.057-1.143a3.762 3.762 0 0 0-.197-.957c-.107-.291-.253-.511-.438-.66-.186-.149-.42-.223-.702-.223-.484 0-.87.242-1.159.725-.289.483-.446 1.248-.47 2.295l3.023-.037zm21.514-3.912h-.725c-.183-.514-.504-1.061-.966-1.64-.461-.58-.9-.897-1.314-.953a14.749 14.749 0 0 0-1.62-.093h-2.082v5.176h1.328a3.4 3.4 0 0 0 .98-.125c.276-.084.521-.234.735-.451.157-.155.309-.414.457-.776.147-.362.237-.674.268-.934h.716v5.548h-.716c-.025-.279-.122-.618-.292-1.018-.17-.4-.314-.664-.433-.794a1.644 1.644 0 0 0-.697-.442 3.177 3.177 0 0 0-1.018-.144h-1.328v4.368c0 .223.043.413.127.571.085.158.247.287.486.386.138.056.328.107.57.153.241.047.481.083.72.107v.725h-7.206v-.725c.182-.018.424-.045.725-.079.302-.034.512-.076.632-.125.226-.087.383-.208.47-.363.088-.154.132-.353.132-.594v-9.302c0-.21-.039-.395-.117-.553-.079-.158-.24-.29-.485-.395a3.986 3.986 0 0 0-.698-.205 8.22 8.22 0 0 0-.659-.12v-.725h12.01v3.522zm10.455 1.542c.465.428.82.939 1.065 1.534.245.594.367 1.239.367 1.932 0 .688-.12 1.337-.363 1.947a4.255 4.255 0 0 1-1.06 1.566 5.083 5.083 0 0 1-1.775 1.069c-.687.248-1.474.371-2.36.371a6.588 6.588 0 0 1-2.114-.325 4.989 4.989 0 0 1-1.71-.975 4.427 4.427 0 0 1-1.13-1.538c-.276-.61-.414-1.294-.414-2.05 0-.743.12-1.404.362-1.983a4.453 4.453 0 0 1 1.088-1.548c.465-.433 1.038-.77 1.72-1.008.68-.238 1.442-.358 2.283-.358.88 0 1.654.12 2.322.358a5.038 5.038 0 0 1 1.72 1.008zm-2.411 6.44a5.35 5.35 0 0 0 .306-1.264 13.269 13.269 0 0 0 .005-3.215c-.063-.558-.157-.997-.283-1.32-.15-.39-.36-.696-.626-.92-.267-.223-.605-.334-1.013-.334-.446 0-.802.12-1.069.362a2.36 2.36 0 0 0-.617.939 5.09 5.09 0 0 0-.273 1.24c-.05.474-.075.969-.075 1.483 0 .675.022 1.234.066 1.677.044.443.15.888.32 1.334.144.384.352.687.622.91.27.223.612.335 1.026.335.377 0 .7-.104.97-.312.27-.207.484-.512.641-.915zm17.35 1.487l-4.493.27-.14-.13v-1.218h-.057l-.627.562a3.602 3.602 0 0 1-.73.497c-.32.168-.623.292-.909.372-.285.08-.701.12-1.248.12-.948 0-1.675-.281-2.18-.845-.506-.563-.759-1.36-.759-2.388v-4.182c0-.241-.047-.438-.14-.59a1.484 1.484 0 0 0-.378-.404 1.217 1.217 0 0 0-.49-.2c-.2-.04-.383-.066-.546-.079v-.678l4.569-.242.103.14v6.18c0 .637.124 1.108.372 1.412.248.303.589.455 1.022.455.446 0 .846-.114 1.201-.344.355-.229.614-.474.777-.734v-5.009c0-.21-.04-.4-.122-.566a1.028 1.028 0 0 0-.358-.41c-.113-.074-.275-.123-.485-.148a10.63 10.63 0 0 0-.645-.056v-.678l4.568-.242.141.14v7.174c0 .216.044.4.132.553a1.112 1.112 0 0 0 .853.539c.191.027.381.044.57.05v.679zm13.197.195h-5.67v-.678l.433-.047c.17-.018.298-.05.386-.093a.595.595 0 0 0 .283-.297c.056-.13.084-.322.084-.576v-4.35c0-.631-.117-1.107-.353-1.426-.235-.319-.582-.478-1.04-.478-.252 0-.486.037-.702.111a2.628 2.628 0 0 0-.636.326c-.182.124-.328.25-.438.38a8.76 8.76 0 0 0-.278.344v4.99c0 .217.031.399.094.544a.653.653 0 0 0 .31.33c.101.056.227.105.378.149.15.043.298.074.442.093v.678h-5.727v-.678a8.57 8.57 0 0 0 .476-.051c.16-.022.297-.051.41-.089.2-.068.339-.173.414-.316.076-.142.113-.328.113-.557v-5.409c0-.192-.05-.38-.15-.566a1.334 1.334 0 0 0-.396-.456 1.566 1.566 0 0 0-.429-.186 3.057 3.057 0 0 0-.57-.102v-.678l4.494-.242.14.14v1.347h.039c.175-.155.389-.34.64-.557.251-.217.484-.394.697-.53.232-.149.537-.276.914-.381a4.46 4.46 0 0 1 1.205-.158c1.024 0 1.792.286 2.304.86.511.572.767 1.333.767 2.28v4.554c0 .23.035.412.104.548.069.137.198.245.386.326.1.043.225.086.372.13.148.043.316.074.504.093v.678zm13.055-.195l-4.643.27-.142-.13v-.856l-.066-.018c-.307.328-.723.615-1.248.86a3.721 3.721 0 0 1-1.587.366c-1.268 0-2.314-.464-3.137-1.393-.822-.93-1.234-2.132-1.234-3.606 0-1.307.46-2.428 1.38-3.364.92-.935 2.033-1.403 3.34-1.403.514 0 .998.057 1.45.172.452.114.813.25 1.083.404v-3.039c0-.229-.047-.444-.14-.646a1.166 1.166 0 0 0-.378-.469 1.921 1.921 0 0 0-.73-.293 7.725 7.725 0 0 0-.88-.125v-.678L182.12 41l.141.149V53.33c0 .236.04.434.118.595a.85.85 0 0 0 .382.381c.131.068.325.118.579.149.254.03.463.05.626.056v.678zm-4.804-1.654v-5.25a4.088 4.088 0 0 0-.183-.474 1.944 1.944 0 0 0-.325-.493 1.698 1.698 0 0 0-.504-.344c-.21-.099-.448-.148-.711-.148-.628 0-1.143.35-1.545 1.05-.402.7-.603 1.688-.603 2.964 0 .502.036.952.108 1.352.073.4.2.764.382 1.092.182.328.416.585.702.771.285.186.63.28 1.031.28.383 0 .7-.074.951-.22a2.82 2.82 0 0 0 .697-.58zm16.183 1.654a7.183 7.183 0 0 1-.98.325c-.377.1-.775.149-1.196.149-.772 0-1.34-.113-1.705-.34a1.703 1.703 0 0 1-.744-.97h-.057c-.213.21-.419.39-.617.539a3.55 3.55 0 0 1-.635.38c-.295.137-.58.238-.853.303s-.654.097-1.144.097c-.729 0-1.35-.212-1.865-.636-.515-.425-.773-.987-.773-1.687 0-.403.057-.745.17-1.027.113-.282.273-.531.48-.748.189-.198.407-.362.655-.492.248-.13.52-.251.815-.363a28.572 28.572 0 0 1 2.034-.636c.791-.22 1.37-.417 1.733-.59V48.6c0-.154-.012-.359-.037-.613a1.962 1.962 0 0 0-.16-.641 1.23 1.23 0 0 0-.415-.502c-.188-.136-.436-.204-.744-.204-.276 0-.507.038-.692.116a2.326 2.326 0 0 0-.448.237 3.6 3.6 0 0 0 .16.567c.088.254.132.498.132.734 0 .105-.028.237-.084.395a.88.88 0 0 1-.245.376 1.63 1.63 0 0 1-.485.288c-.18.068-.454.102-.825.102-.527 0-.926-.125-1.196-.376-.27-.25-.405-.578-.405-.98 0-.347.14-.659.42-.934a3.43 3.43 0 0 1 1.021-.683 5.92 5.92 0 0 1 1.366-.432 7.386 7.386 0 0 1 1.432-.154c.609 0 1.168.036 1.676.107.51.071.967.219 1.376.442.389.216.698.53.927.943.23.412.344.95.344 1.612 0 .7-.014 1.53-.042 2.49-.028.96-.043 1.593-.043 1.896 0 .279.043.499.128.66a.805.805 0 0 0 .39.362c.107.05.275.08.504.089.23.009.438.014.627.014v.678zm-4.682-4.842c-.351.118-.7.253-1.045.405a4.188 4.188 0 0 0-.848.478 1.805 1.805 0 0 0-.546.665c-.132.27-.198.587-.198.952 0 .483.111.833.334 1.05.223.217.498.326.825.326.345 0 .63-.07.852-.21.223-.139.42-.31.589-.515l.037-3.15zm12.415 4.61c-.402.173-.832.33-1.29.469-.459.14-1.018.209-1.677.209-.98 0-1.706-.235-2.18-.706-.475-.471-.712-1.143-.712-2.017v-5.705h-1.695v-1.004h1.733v-2.816h3.061v2.816h2.638v1.004h-2.619V52.3c0 .725.102 1.239.306 1.543.204.303.57.455 1.098.455.17 0 .405-.013.706-.037.301-.025.512-.053.631-.084v.78zm6.613.427h-5.953v-.678c.163-.013.323-.028.48-.047.157-.018.292-.05.405-.093.2-.074.342-.18.424-.32.081-.14.122-.324.122-.553v-5.409c0-.216-.05-.407-.15-.571a1.237 1.237 0 0 0-.377-.395 2.015 2.015 0 0 0-.514-.214 3.388 3.388 0 0 0-.626-.13v-.678l4.616-.242.14.14v7.378c0 .217.048.401.142.553.094.152.23.265.405.34.126.055.264.104.415.148.15.043.307.074.47.093v.678zm-1.376-12.675c0 .47-.183.872-.55 1.203a1.883 1.883 0 0 1-1.305.497c-.509 0-.947-.165-1.314-.497-.368-.331-.551-.732-.551-1.203 0-.471.183-.874.55-1.208A1.885 1.885 0 0 1 206.46 41c.508 0 .945.167 1.309.502.364.334.546.737.546 1.208zm11.86 4.553c.464.428.819.939 1.064 1.534.245.594.367 1.239.367 1.932 0 .688-.12 1.337-.363 1.947a4.255 4.255 0 0 1-1.06 1.566 5.083 5.083 0 0 1-1.775 1.069c-.687.248-1.474.371-2.36.371a6.588 6.588 0 0 1-2.114-.325 4.989 4.989 0 0 1-1.71-.975 4.427 4.427 0 0 1-1.13-1.538c-.276-.61-.414-1.294-.414-2.05 0-.743.12-1.404.362-1.983a4.453 4.453 0 0 1 1.088-1.548c.465-.433 1.038-.77 1.72-1.008.68-.238 1.442-.358 2.283-.358.88 0 1.654.12 2.322.358a5.038 5.038 0 0 1 1.72 1.008zm-2.412 6.44a5.35 5.35 0 0 0 .306-1.264 13.269 13.269 0 0 0 .005-3.215c-.063-.558-.157-.997-.283-1.32-.15-.39-.36-.696-.626-.92-.267-.223-.605-.334-1.013-.334-.446 0-.802.12-1.069.362a2.36 2.36 0 0 0-.617.939 5.09 5.09 0 0 0-.273 1.24c-.05.474-.075.969-.075 1.483 0 .675.022 1.234.066 1.677.044.443.15.888.32 1.334.144.384.352.687.622.91.27.223.612.335 1.026.335.377 0 .7-.104.97-.312.27-.207.484-.512.641-.915zm17.492 1.682h-5.67v-.678l.433-.047c.17-.018.298-.05.386-.093a.595.595 0 0 0 .282-.297c.057-.13.085-.322.085-.576v-4.35c0-.631-.118-1.107-.353-1.426-.236-.319-.583-.478-1.04-.478-.252 0-.486.037-.703.111a2.628 2.628 0 0 0-.635.326c-.183.124-.329.25-.438.38a8.76 8.76 0 0 0-.278.344v4.99c0 .217.031.399.094.544a.653.653 0 0 0 .31.33c.101.056.227.105.377.149.151.043.299.074.443.093v.678h-5.727v-.678a8.57 8.57 0 0 0 .476-.051c.16-.022.297-.051.41-.089.2-.068.339-.173.414-.316.075-.142.113-.328.113-.557v-5.409c0-.192-.05-.38-.15-.566a1.334 1.334 0 0 0-.396-.456 1.566 1.566 0 0 0-.429-.186 3.057 3.057 0 0 0-.57-.102v-.678l4.493-.242.142.14v1.347h.037c.176-.155.39-.34.64-.557.252-.217.484-.394.698-.53.232-.149.537-.276.914-.381a4.46 4.46 0 0 1 1.205-.158c1.024 0 1.791.286 2.303.86.512.572.768 1.333.768 2.28v4.554c0 .23.034.412.104.548.069.137.197.245.386.326.1.043.224.086.372.13.147.043.315.074.504.093v.678zm5.406-.492c0 .755-.32 1.528-.96 2.318A6.214 6.214 0 0 1 237.393 59l-.415-.66c.308-.16.599-.334.872-.52a3.724 3.724 0 0 0 1.253-1.445c.128-.27.208-.6.24-.99h-.528c-.64 0-1.124-.142-1.45-.427-.327-.285-.49-.679-.49-1.18 0-.397.157-.755.47-1.074.315-.319.701-.478 1.16-.478.703 0 1.238.237 1.605.71.368.474.551 1.126.551 1.957zm14.158.492h-7.413v-.725l.749-.055c.33-.025.557-.062.682-.112.233-.093.391-.215.476-.367.085-.152.127-.345.127-.58v-9.35c0-.21-.04-.396-.122-.557-.082-.16-.242-.291-.48-.39a4.312 4.312 0 0 0-.67-.19 7.808 7.808 0 0 0-.762-.135v-.725h7.413v.725c-.189.018-.424.045-.707.079a3.96 3.96 0 0 0-.716.144c-.244.08-.408.206-.49.376-.081.17-.122.364-.122.58v9.34c0 .223.043.413.127.571.085.158.247.287.485.386.132.056.35.11.655.163.305.052.56.085.768.097v.725zm13.573 0h-5.67v-.678l.433-.047c.17-.018.298-.05.386-.093a.595.595 0 0 0 .283-.297c.056-.13.084-.322.084-.576v-4.35c0-.631-.117-1.107-.353-1.426-.235-.319-.582-.478-1.04-.478-.252 0-.486.037-.702.111a2.628 2.628 0 0 0-.636.326c-.182.124-.328.25-.438.38a8.76 8.76 0 0 0-.278.344v4.99c0 .217.031.399.094.544a.653.653 0 0 0 .311.33c.1.056.226.105.377.149.15.043.298.074.443.093v.678h-5.727v-.678a8.57 8.57 0 0 0 .475-.051c.16-.022.297-.051.41-.089.2-.068.339-.173.414-.316.076-.142.113-.328.113-.557v-5.409c0-.192-.05-.38-.15-.566a1.334 1.334 0 0 0-.396-.456 1.566 1.566 0 0 0-.428-.186 3.057 3.057 0 0 0-.57-.102v-.678l4.493-.242.141.14v1.347h.038c.175-.155.389-.34.64-.557.251-.217.484-.394.697-.53.233-.149.537-.276.914-.381a4.46 4.46 0 0 1 1.206-.158c1.023 0 1.79.286 2.303.86.511.572.767 1.333.767 2.28v4.554c0 .23.035.412.104.548.069.137.198.245.386.326.1.043.225.086.372.13.148.043.316.074.504.093v.678zm6.255.297c-.873 0-1.644-.125-2.313-.376-.669-.25-1.22-.593-1.653-1.027a4.196 4.196 0 0 1-.97-1.56 5.817 5.817 0 0 1-.32-1.962c0-.644.13-1.257.39-1.84a5.005 5.005 0 0 1 1.06-1.533c.459-.452 1.028-.813 1.71-1.083.681-.269 1.433-.404 2.256-.404 1.155 0 2.069.216 2.74.646.673.43 1.009 1.011 1.009 1.742 0 .447-.12.806-.358 1.078-.239.273-.65.41-1.234.41-.471 0-.865-.112-1.182-.335-.318-.223-.476-.514-.476-.874 0-.303.05-.604.15-.901.101-.297.16-.524.18-.678a.714.714 0 0 0-.264-.256c-.107-.059-.273-.088-.5-.088-.282 0-.54.065-.772.195-.232.13-.449.36-.65.687-.194.31-.35.725-.466 1.246-.116.52-.174 1.146-.174 1.877 0 1.103.262 1.992.786 2.667.525.675 1.151 1.013 1.88 1.013.697 0 1.25-.154 1.662-.46.411-.307.777-.742 1.097-1.306l.707.483a5.278 5.278 0 0 1-.697 1.037c-.27.312-.594.59-.97.831a5.097 5.097 0 0 1-1.206.576c-.408.13-.882.195-1.422.195zm9.353-1.84c0 .49-.184.914-.551 1.274-.367.359-.802.539-1.305.539-.508 0-.946-.178-1.314-.535a1.718 1.718 0 0 1-.55-1.277c0-.496.183-.925.55-1.288a1.806 1.806 0 0 1 1.314-.543c.503 0 .938.183 1.305.548.367.366.551.793.551 1.283z"/>
    </g>
</svg>
