<svg xmlns="http://www.w3.org/2000/svg" width="300" height="100" viewBox="0 0 300 100">
    <g fill="none" fill-rule="evenodd">
        <path fill="#FFF" d="M0 0h300v100H0z"/>
        <g fill-rule="nonzero">
            <path fill="#10507B" d="M37.308 64.4c-1.3 0-2.308-1.05-2.308-2.31V37.31c0-1.26 1.007-2.31 2.308-2.31 1.3 0 2.35 1.05 2.35 2.31v22.428H51.03c1.217 0 2.308 1.05 2.308 2.352 0 1.26-1.091 2.31-2.308 2.31H37.308zm25.97 0c-5.75-.042-10.198-4.788-10.24-10.5.042-5.712 4.49-10.5 10.24-10.5 5.455 0 9.777 4.074 10.112 9.744v.21c0 .084 0 .294-.041.378-.126 1.008-1.008 1.68-2.183 1.68H57.822c.21.966.671 2.058 1.427 2.772.881 1.008 2.56 1.764 4.028 1.89 1.511.126 3.315-.252 4.364-1.05.882-.924 2.602-.798 3.148-.126.545.588.965 1.848 0 2.73-2.056 1.89-4.532 2.772-7.512 2.772zm0-17.01c-3.568.168-5.33 2.73-5.666 4.452h11.876c-.42-1.68-2.56-4.158-6.21-4.452zm31.298-1.722v16.506a2.24 2.24 0 0 1-2.224 2.226c-1.091 0-1.93-.798-2.182-1.806-1.595 1.134-3.483 1.806-5.581 1.806-2.854 0-5.33-1.176-7.134-3.066-1.805-1.932-2.854-4.536-2.854-7.392 0-2.898 1.05-5.502 2.854-7.392 1.804-1.932 4.28-3.15 7.134-3.15 2.098 0 3.986.714 5.58 1.848.253-1.05 1.092-1.848 2.183-1.848 1.217 0 2.224 1.008 2.224 2.268zm-6.085 12.6c1.007-1.092 1.637-2.604 1.637-4.326 0-1.764-.63-3.276-1.637-4.326-1.007-1.134-2.434-1.722-3.902-1.722-1.511 0-2.938.588-3.903 1.722-1.007 1.05-1.595 2.562-1.595 4.326 0 1.722.588 3.234 1.595 4.326.965 1.05 2.392 1.638 3.903 1.638 1.468 0 2.895-.588 3.902-1.638zm21.773-14.826c1.26 0 2.224.966 2.224 2.184 0 1.176-.965 2.226-2.224 2.226-.965 0-1.804.252-2.518.798-.797.504-1.426 1.218-1.93 2.016-1.007 1.344-1.51 2.94-1.72 3.528v7.98c0 1.218-1.05 2.226-2.308 2.226a2.24 2.24 0 0 1-2.224-2.226V45.626c0-1.218 1.007-2.184 2.224-2.184 1.259 0 2.308.966 2.308 2.184v.294c.251-.294.587-.63.88-.84 1.386-.924 3.19-1.68 5.288-1.638zm13.213-.042c4.867 0 8.77 3.99 8.77 8.736v10.038c0 1.218-.965 2.226-2.182 2.226-1.175 0-2.224-1.008-2.224-2.226V52.136c0-2.352-1.972-4.242-4.364-4.242-2.35 0-4.197 1.89-4.197 4.242v10.038c0 .126 0 .252-.084.42a2.295 2.295 0 0 1-2.224 1.806 2.213 2.213 0 0 1-2.224-2.226V45.626c0-1.218.966-2.226 2.224-2.226a2.27 2.27 0 0 1 2.057 1.302 8.371 8.371 0 0 1 4.448-1.302z"/>
            <path fill="#F16567" d="M140.004 64.4c-1.3 0-2.308-1.05-2.308-2.31V37.31c0-1.26 1.007-2.31 2.308-2.31s2.35 1.05 2.35 2.31v22.428h11.372c1.217 0 2.308 1.05 2.308 2.352 0 1.26-1.09 2.31-2.308 2.31h-13.722zm35.37-18.732v16.506a2.24 2.24 0 0 1-2.225 2.226c-1.09 0-1.93-.798-2.182-1.806-1.594 1.134-3.483 1.806-5.58 1.806-2.854 0-5.33-1.176-7.135-3.066-1.804-1.932-2.853-4.536-2.853-7.392 0-2.898 1.049-5.502 2.853-7.392 1.805-1.932 4.28-3.15 7.134-3.15 2.098 0 3.987.714 5.581 1.848.252-1.05 1.091-1.848 2.182-1.848 1.217 0 2.224 1.008 2.224 2.268zm-6.085 12.6c1.007-1.092 1.636-2.604 1.636-4.326 0-1.764-.63-3.276-1.636-4.326-1.007-1.134-2.434-1.722-3.903-1.722-1.51 0-2.937.588-3.902 1.722-1.008 1.05-1.595 2.562-1.595 4.326 0 1.722.587 3.234 1.595 4.326.965 1.05 2.391 1.638 3.902 1.638 1.469 0 2.896-.588 3.903-1.638zm28.235-2.604c0 4.788-4.028 8.736-8.854 8.736-4.784 0-8.729-3.948-8.729-8.736V45.626c0-1.176 1.008-2.226 2.224-2.226 1.26 0 2.225 1.05 2.225 2.226v10.038a4.247 4.247 0 0 0 4.28 4.284c2.434 0 4.364-1.89 4.406-4.284V45.626c0-1.176.923-2.226 2.182-2.226 1.175 0 2.266 1.05 2.266 2.226v10.038zM210.57 43.4c4.867 0 8.77 3.99 8.77 8.736v10.038c0 1.218-.965 2.226-2.182 2.226-1.175 0-2.224-1.008-2.224-2.226V52.136c0-2.352-1.972-4.242-4.364-4.242-2.35 0-4.197 1.89-4.197 4.242v10.038c0 .126 0 .252-.084.42a2.295 2.295 0 0 1-2.224 1.806 2.213 2.213 0 0 1-2.224-2.226V45.626c0-1.218.965-2.226 2.224-2.226a2.27 2.27 0 0 1 2.057 1.302 8.371 8.371 0 0 1 4.448-1.302zm22.948 21c-5.791 0-10.66-4.704-10.66-10.458 0-5.838 4.869-10.5 10.66-10.542 2.517 0 4.867.924 6.672 2.31.965.756 1.133 2.184.461 3.108-.839 1.008-2.182 1.176-3.147.42-1.09-.798-2.434-1.344-3.986-1.344-3.4 0-6.211 2.814-6.211 6.048s2.812 6.006 6.21 6.006c1.511 0 2.896-.546 3.987-1.344.923-.714 2.308-.546 3.147.462.672.924.504 2.268-.461 3.108-1.805 1.302-4.155 2.226-6.672 2.226zm16.191-11.802v9.492c0 1.302-1.049 2.31-2.35 2.31-1.049 0-1.93-.756-2.224-1.722a2.48 2.48 0 0 1-.083-.588V37.31c0-1.302 1.049-2.31 2.308-2.31 1.3 0 2.35 1.008 2.35 2.31v7.308c1.342-.714 2.853-1.218 4.49-1.218 5.077 0 9.148 4.158 9.148 9.198v9.492a2.276 2.276 0 0 1-2.308 2.31 2.276 2.276 0 0 1-2.308-2.31v-9.492c0-2.478-2.015-4.494-4.532-4.536-2.476.042-4.449 2.058-4.49 4.536z"/>
        </g>
    </g>
</svg>
