<svg xmlns="http://www.w3.org/2000/svg" xmlns:xlink="http://www.w3.org/1999/xlink" width="300" height="100" viewBox="0 0 300 100">
    <defs>
        <path id="a" d="M.316.636h20.712v22.221H.316z"/>
    </defs>
    <g fill="none" fill-rule="evenodd">
        <path fill="#FFF" d="M0 0h300v100H0z"/>
        <path fill="#30AAD3" d="M52.352 40.615a7.421 7.421 0 0 0-2.609-.518c-1.582 0-2.53.757-2.965 2.31l-.157.597h5.098l-1.383 5.178h-5.02l-4.308 16.166H35l4.308-16.166h-2.49l1.384-5.178h2.49l.197-.835c.554-2.35 1.422-3.863 2.49-4.939 1.503-1.513 3.597-2.23 6.166-2.23 1.7 0 3.123.24 4.111.597l-1.304 5.018zM62.904 56.305c-.673 2.31-2.846 4.3-5.336 4.3-1.7 0-2.767-.955-2.767-2.269 0-.876.316-1.594.87-2.15.75-.758 1.976-1.195 3.438-1.195 1.462 0 2.926.359 3.952.756l-.157.558zM61.52 42.766c-3.005 0-5.692.597-7.867 1.513l.95 4.779c1.541-.638 3.596-1.156 5.651-1.156 2.965 0 3.992 1.036 3.992 2.51 0 .637-.118 1.114-.236 1.592l-.08.279c-1.779-.558-3.676-.957-5.968-.957-2.925 0-5.455.877-7.115 2.55-1.265 1.274-2.015 2.986-2.015 5.137 0 3.345 2.49 5.734 6.166 5.734 2.49 0 4.624-1.036 6.324-2.867l-.633 2.468h5.811l3.122-11.786c.277-1.076.474-2.11.474-3.226 0-4.181-2.885-6.57-8.576-6.57z"/>
        <g transform="translate(69.74 41.97)">
            <mask id="b" fill="#fff">
                <use xlink:href="#a"/>
            </mask>
            <path fill="#30AAD3" d="M17.787 7.526c-2.055-1.632-3.794-2.27-5.533-2.27-1.463 0-2.332.676-2.332 1.792 0 .836 1.027 1.434 2.806 2.23 2.767 1.235 5.81 2.708 5.81 6.053 0 4.66-3.636 7.526-8.696 7.526-3.2 0-7.035-1.235-9.526-3.863l3.48-3.623c2.212 2.23 4.584 2.867 6.481 2.867 1.58 0 2.53-.677 2.53-1.87 0-.799-.988-1.355-2.45-1.993C7.036 12.941 4.19 11.55 4.19 8.123c0-4.26 3.24-7.486 8.498-7.486 3.439 0 6.6 1.513 8.34 3.066l-3.241 3.823z" mask="url(#b)"/>
        </g>
        <path fill="#30AAD3" d="M107.091 43.004l-1.382 5.178h-4.98l-2.373 8.96c-.079.318-.157.716-.157.954 0 .797.512 1.275 1.62 1.275.948 0 2.095-.24 3.082-.676l-1.383 5.135c-1.186.558-2.727.877-4.347.877-3.637 0-5.416-1.832-5.416-4.18 0-.877.158-1.713.395-2.67l2.57-9.675h-2.53l1.385-5.178h2.528l1.463-5.454h6.008l-1.463 5.454h4.98z"/>
        <path fill="#2B303A" d="M128.196 40.615a7.421 7.421 0 0 0-2.608-.518c-1.582 0-2.53.757-2.965 2.31l-.158.597h5.099l-1.384 5.178h-5.019l-4.309 16.166h-6.008l4.309-16.166h-2.49l1.383-5.178h2.49l.198-.835c.554-2.35 1.423-3.863 2.49-4.939 1.502-1.513 3.597-2.23 6.166-2.23 1.698 0 3.123.24 4.11.597l-1.304 5.018zM141.752 57.977c-.989.997-2.331 1.673-3.833 1.673-2.728 0-4.586-1.712-4.586-4.858 0-1.673.79-3.903 2.254-5.337.988-.995 2.332-1.672 3.834-1.672 2.726 0 4.584 1.712 4.584 4.858 0 1.673-.79 3.903-2.253 5.336m-2.054-15.371c-3.36 0-6.365 1.433-8.577 3.664-2.293 2.31-3.677 5.455-3.677 8.68 0 5.696 3.913 9.876 10.198 9.876 3.359 0 6.363-1.432 8.577-3.664 2.293-2.308 3.676-5.455 3.676-8.68 0-5.694-3.914-9.876-10.197-9.876M165.941 48.938h-.317c-3.992 0-7.035 2.31-8.537 7.845l-2.056 7.566h-6.007l5.691-21.345h6.01l-1.148 4.301c2.134-3.146 4.585-4.977 8.063-4.698l-1.699 6.331zM189.062 64.508h-5.415l-.593-13.1-7.628 13.1h-5.375l-.792-21.504h6.087l-.038 12.942 7.43-13.02h5.178l.553 13.06 6.957-12.982h5.968zM212.578 56.305c-.673 2.31-2.846 4.3-5.336 4.3-1.7 0-2.768-.955-2.768-2.269 0-.876.317-1.594.872-2.15.749-.758 1.975-1.195 3.437-1.195 1.462 0 2.925.359 3.952.756l-.157.558zm-1.383-13.539c-3.005 0-5.692.597-7.867 1.513l.95 4.779c1.541-.638 3.596-1.156 5.651-1.156 2.964 0 3.992 1.036 3.992 2.51 0 .637-.118 1.114-.236 1.592l-.08.279c-1.778-.558-3.676-.957-5.969-.957-2.924 0-5.454.877-7.114 2.55-1.264 1.274-2.016 2.986-2.016 5.137 0 3.345 2.49 5.734 6.167 5.734 2.489 0 4.624-1.036 6.324-2.867l-.633 2.468h5.81l3.123-11.786c.277-1.076.473-2.11.473-3.226 0-4.181-2.884-6.57-8.575-6.57zM235.857 48.938h-.317c-3.991 0-7.034 2.31-8.536 7.845l-2.057 7.566h-6.007l5.692-21.345h6.008l-1.147 4.301c2.135-3.146 4.586-4.977 8.064-4.698l-1.7 6.331zM251.113 57.818c-1.147 1.155-2.61 1.832-4.111 1.832-2.688 0-4.427-1.672-4.427-4.46 0-2.35.91-4.34 2.253-5.694 1.107-1.116 2.57-1.793 4.031-1.793 2.65 0 4.546 1.832 4.546 4.54 0 2.19-.869 4.142-2.292 5.575zm6.483-22.54L254.71 46.11c-1.383-2.11-3.32-3.504-6.64-3.504-2.886 0-5.73 1.274-7.905 3.465-2.292 2.31-3.795 5.615-3.795 9.516 0 5.775 3.52 9.16 8.143 9.16 2.37 0 4.15-.995 5.968-2.707l-.631 2.309h6.007l7.747-29.07h-6.007z"/>
    </g>
</svg>
