<svg xmlns="http://www.w3.org/2000/svg" width="300" height="100" viewBox="0 0 300 100">
    <g fill="none" fill-rule="evenodd">
        <path fill="#FFF" d="M0 0h300v100H0z"/>
        <g fill-rule="nonzero">
            <path fill="#000" d="M209.358 61.643c-.377 0-.636-.26-.636-.637V42.35h-6.336c-.376 0-.636-.26-.636-.636V39.14c0-.377.26-.638.636-.638h16.864c.376 0 .635.261.635.638v2.573c0 .376-.259.636-.635.636h-6.335v18.657c0 .376-.26.637-.636.637h-2.921m-48.53-9.314l-3.325-9.545-3.356 9.545h6.681zm7.376 8.56c.146.377-.086.754-.491.754h-3.008c-.434 0-.695-.202-.84-.608l-1.706-4.916h-9.341l-1.709 4.916c-.144.406-.405.608-.838.608h-2.834c-.376 0-.637-.377-.492-.754l7.838-21.807c.145-.406.406-.579.839-.579h3.875c.435 0 .724.173.869.58l7.838 21.806m22.468-2.37c1.85 0 3.095-.896 4.107-2.43l-4.685-5.033c-1.794 1.013-2.952 2.024-2.952 4.05 0 1.996 1.62 3.413 3.53 3.413m1.301-16.95c-1.503 0-2.371.955-2.371 2.227 0 .984.52 1.851 1.706 3.125 2.053-1.187 2.922-1.91 2.922-3.182 0-1.187-.752-2.17-2.257-2.17m12.815 19.264c.375.405.144.81-.32.81h-3.673c-.492 0-.752-.116-1.07-.493l-2.198-2.428c-1.475 1.967-3.53 3.442-6.943 3.442-4.222 0-7.55-2.546-7.55-6.912 0-3.357 1.795-5.15 4.514-6.654-1.332-1.533-1.938-3.153-1.938-4.57 0-3.588 2.516-6.046 6.305-6.046 3.876 0 6.248 2.286 6.248 5.67 0 2.892-2.082 4.51-4.281 5.726l3.24 3.501 1.822-3.183c.231-.375.492-.52.954-.52h2.805c.463 0 .724.319.435.81l-3.24 5.553 4.89 5.294m-28.866.81c.376 0 .638-.26.638-.637V42.35h6.333c.376 0 .636-.26.636-.636V39.14c0-.377-.26-.638-.636-.638H166.03c-.377 0-.637.261-.637.638v2.573c0 .376.26.636.637.636h6.333v18.657c0 .376.261.637.637.637h2.922z"/>
            <path fill="#00A8E0" d="M90.32 72.897c4.906 3.799 11.063 6.081 17.743 6.081 7.31 0 13.974-2.715 19.06-7.172.062-.055.031-.09-.03-.055-2.282 1.525-8.787 4.854-19.03 4.854-8.902 0-14.528-1.987-17.705-3.761-.06-.03-.083.015-.038.053m19.707 1.479c7.12 0 14.944-1.942 19.623-5.785 1.28-1.048 2.5-2.442 3.593-4.315a27.763 27.763 0 0 0 1.745-3.617c.022-.061-.016-.09-.062-.022-4.352 6.407-16.953 10.403-29.964 10.403-9.197 0-19.093-2.943-22.967-8.56-.038-.053-.076-.03-.053.03 3.609 7.674 14.558 11.866 28.085 11.866m-7.78-12.731c-14.808 0-21.79-6.9-23.057-11.609-.016-.068-.06-.053-.06.008 0 1.585.158 3.631.43 4.989.13.66.669 1.698 1.457 2.525 3.586 3.739 12.526 8.978 28.008 8.978 21.094 0 25.917-7.03 26.902-9.34.704-1.654 1.07-4.642 1.07-7.152 0-.607-.016-1.092-.039-1.568 0-.077-.045-.084-.06-.008-1.054 5.656-19.077 13.177-34.65 13.177m-20.33-24.013c-.848 1.684-1.788 4.527-2.068 5.998-.123.63-.07.933.15 1.403 1.775 3.767 10.753 9.795 31.695 9.795 12.775 0 22.7-3.14 24.308-8.87.296-1.055.312-2.169-.069-3.67-.425-1.676-1.22-3.632-1.894-5.005-.022-.045-.062-.038-.054.015.25 7.515-20.7 12.36-31.27 12.36-11.449 0-21.001-4.565-21.001-10.327 0-.554.114-1.108.257-1.684.015-.053-.03-.061-.053-.015m45.251-9.228c.122.19.182.394.182.668 0 3.215-9.835 8.902-25.49 8.902-11.504 0-13.658-4.27-13.658-6.984 0-.97.372-1.964 1.192-2.972.044-.06.006-.083-.045-.039a28.998 28.998 0 0 0-4.072 4.232c-.576.728-.933 1.372-.933 1.759 0 5.626 14.102 9.706 27.288 9.706 14.05 0 20.32-4.589 20.32-8.621 0-1.441-.56-2.283-1.995-3.914a34.108 34.108 0 0 0-2.744-2.775c-.045-.037-.076-.007-.045.038m-4.307-3.214c-4.336-2.6-9.372-4.08-14.8-4.08-5.466 0-10.653 1.532-15.005 4.2-1.306.804-2.04 1.448-2.04 2.276 0 2.44 5.701 5.065 15.816 5.065 10.01 0 17.773-2.874 17.773-5.641 0-.66-.577-1.122-1.744-1.82"/>
        </g>
    </g>
</svg>
