<svg xmlns="http://www.w3.org/2000/svg" width="300" height="100" viewBox="0 0 300 100">
    <g fill="none" fill-rule="evenodd">
        <path fill="#FFF" d="M0 0h300v100H0z"/>
        <g fill="#AC193C" fill-rule="nonzero">
            <path d="M102.06 72.412c0 .495-.204.814-.585 1.019-.761.437-2.28.611-3.333.611-2.69 0-5.35-.873-7.66-3.115-1.024-.988-3.1-3.958-3.1-8.064 0-3.405 1.2-6.055 2.896-7.393 2.221-1.747 4.414-1.922 6.257-1.922 3.77 0 6.139 1.253 6.868 2.359.441.698.587 1.512.615 1.921.03.26.06.435.205.435.205 0 .263-.145.263-.61 0-2.912.206-3.726.206-4.133 0-.117-.06-.234-.351-.262-.732-.03-1.755-.147-2.37-.292-.555-.117-2.631-.496-4.473-.496-2.251 0-5.145.205-7.776 1.835-2.602 1.63-4.883 4.92-4.883 9.579 0 3.637 1.696 6.754 3.479 8.294 3.246 2.825 7.397 3.117 9.618 3.117 1.697 0 4.329-.322 6.2-1.31.35-.205.38-.262.38-1.573v-3.26c0-1.222 0-2.096.058-3.027.058-1.018.293-1.515 1.083-1.66.35-.057.526-.087.73-.087.117 0 .235-.058.235-.175 0-.175-.148-.232-.469-.232-.877 0-2.72.087-2.865.087-.148 0-1.988-.087-3.304-.087-.321 0-.469.057-.469.232 0 .117.118.175.236.175.263 0 .76.03.993.087 1.17.32 1.316.642 1.316 2.998v4.95zM110.21 72.13c-.453 1.247-.954 2.196-2.106 2.345-.2.025-.55.051-.726.051-.126 0-.227.05-.227.149 0 .149.151.2.478.2 1.177 0 2.556-.075 2.832-.075.275 0 1.351.076 1.954.076.225 0 .374-.052.374-.201 0-.1-.073-.149-.249-.149h-.251c-.427 0-.953-.224-.953-.725 0-.448.125-1.048.35-1.671l1.504-4.417c.05-.123.126-.199.251-.199h5.388c.125 0 .175.05.225.149l2.33 6.138c.152.4 0 .624-.149.674-.1.025-.175.075-.175.174 0 .151.275.151.752.175 1.728.052 3.557.052 3.934.052.275 0 .5-.052.5-.201 0-.125-.1-.149-.25-.149-.25 0-.627-.026-1.002-.15-.527-.152-1.254-.549-2.156-2.77-1.529-3.792-5.463-14.098-5.838-15.045-.3-.774-.402-.897-.552-.897-.15 0-.251.149-.55.973l-5.689 15.493zm3.507-5.513c-.074 0-.124-.052-.074-.175l2.205-6.736c.124-.375.25-.375.375 0l2.38 6.736c.026.1.026.175-.1.175h-4.786zM132.953 57.085l3.158.05c2.405.049 2.981.623 3.08 1.373l.027.272c.024.351.076.425.2.425.1 0 .175-.1.175-.324 0-.274.075-1.997.075-2.743 0-.151 0-.3-.125-.3-.1 0-.325.05-.702.123-.4.051-.977.125-1.779.125h-9.397c-.3 0-1.252-.05-1.98-.125-.675-.05-.927-.298-1.102-.298-.1 0-.2.324-.25.475-.05.198-.552 2.344-.552 2.594 0 .15.05.225.126.225.1 0 .175-.052.251-.25.074-.175.15-.35.425-.775.4-.597 1.003-.772 2.556-.798l3.709-.05v10.554c0 2.395 0 4.366-.126 5.416-.1.723-.223 1.273-.726 1.372-.225.05-.526.1-.751.1-.152 0-.202.075-.202.148 0 .151.126.2.4.2.755 0 2.332-.075 2.457-.075.126 0 1.705.076 3.083.076.275 0 .4-.076.4-.2 0-.074-.05-.15-.2-.15-.226 0-.776-.05-1.127-.099-.752-.1-.901-.65-.977-1.372-.126-1.05-.126-3.021-.126-5.416V57.085zM144.47 67.639c0 2.394 0 4.366-.125 5.414-.1.724-.225 1.272-.728 1.372-.225.05-.524.1-.75.1-.151 0-.2.074-.2.15 0 .15.125.2.4.2.377 0 .95-.025 1.453-.05.527 0 .951-.025 1.003-.025.726 0 2.405.149 6.19.149.976 0 1.178 0 1.353-.647.126-.525.325-2.222.325-2.422 0-.173 0-.374-.15-.374-.125 0-.175.1-.227.374-.173 1.024-.474 1.522-1.126 1.796-.652.276-1.755.276-2.407.276-2.454 0-2.831-.325-2.905-2.047-.026-.524 0-3.418 0-4.266v-2.196c0-.1.05-.174.175-.174.425 0 2.908.05 3.583.125.977.099 1.203.524 1.302.873.1.324.1.574.1.824 0 .123.052.222.176.222.175 0 .175-.274.175-.472 0-.175.05-1.098.1-1.598.076-.822.201-1.247.201-1.398 0-.149-.05-.198-.125-.198-.1 0-.2.125-.375.323-.226.25-.577.3-1.179.352-.576.05-3.658.05-3.983.05-.126 0-.15-.076-.15-.251v-6.887c0-.175.05-.248.15-.248.275 0 3.006.024 3.433.073 1.352.151 1.603.449 1.779.85.125.3.15.723.15.897 0 .2.049.324.2.324.1 0 .152-.149.176-.274.05-.3.1-1.398.126-1.646.075-.699.2-.998.2-1.173 0-.125-.025-.224-.1-.224-.126 0-.226.099-.352.123-.201.051-.602.1-1.076.125-.577.026-5.563.026-5.739.026-.125 0-1.704-.074-2.833-.074-.275 0-.4.048-.4.199 0 .099.1.148.2.148.226 0 .653.026.852.076.827.175 1.027.574 1.079 1.421.05.8.05 1.497.05 5.39v4.392zM161.35 75.224c1.354 0 2.706-.3 3.784-1.048 1.729-1.223 2.13-3.12 2.13-4.142 0-1.997-.702-3.543-3.659-5.864l-.702-.548c-2.355-1.922-3.056-2.77-3.056-4.191 0-1.823 1.353-2.895 3.082-2.895 2.305 0 2.98 1.047 3.132 1.323.15.274.302.947.325 1.246.026.2.05.326.202.326.125 0 .175-.177.175-.576 0-1.695.1-2.52.1-2.644 0-.125-.05-.173-.251-.173-.2 0-.401-.026-.876-.125-.628-.15-1.353-.25-2.33-.25-3.185 0-5.188 1.82-5.188 4.49 0 1.696.602 3.245 3.258 5.414l1.128.924c2.153 1.77 2.881 2.77 2.881 4.49 0 1.599-1.178 3.32-3.583 3.32-1.68 0-3.333-.699-3.71-2.545-.074-.35-.074-.7-.074-.924 0-.2-.026-.273-.176-.273-.125 0-.175.123-.2.399-.025.399-.127 1.397-.127 2.644 0 .673.026.774.377.949 1.027.498 2.18.673 3.358.673M184.04 63.012c.307-.225.35-.532.206-.757h-2.567c.553-1.737.963-3.393 1.928-4.762.493-.695 1.007-1.104 1.604-1.104.532 0 1.19.367 1.25 1.594.022.143.103.327.289.327.327 0 .883-.633.883-1.266 0-.818-.823-1.35-1.685-1.35-1.21 0-2.422.49-3.447 1.697-1.212 1.43-1.745 3.024-2.281 4.864h-1.765c-.267.185-.349.572-.143.757h1.705c-.985 3.33-1.663 6.847-2.712 10.262-.43 1.39-.923 1.695-1.292 1.695-.41 0-.945-.286-1.232-.756-.164-.266-.307-.43-.597-.183-.143.101-.388.286-.388.735 0 .347.388 1.042 1.334 1.042 1.212 0 2.093-.796 2.34-1.042.431-.388 1.047-1.513 1.621-3.352.678-2.249 1.272-4.516 1.93-6.787.186-.612.35-1.267.473-1.614h2.546zM191.36 61.969c-.841 0-1.764.305-2.833 1.33-1.396 1.328-2.155 3.31-2.237 4.578-.124 1.759.74 2.718 2.054 2.718.552 0 1.66-.101 2.932-1.41 1.522-1.554 2.116-3.516 2.178-4.641.082-1.491-.636-2.575-2.094-2.575m-.143.613c.717 0 .841.717.821 1.35-.04 1.082-1.005 3.78-1.91 4.987-.656.88-1.17 1.062-1.621 1.062-.596 0-.883-.591-.841-1.308.06-1.082.861-3.516 2.051-5.11.596-.796 1.089-.98 1.5-.98M200.76 62.582c.123-.347-.348-.613-.615-.613-.965 0-3.017 1.616-3.551 2.432a.286.286 0 0 0 .349.307c.492-.512 1.559-1.41 1.95-1.41.165 0 .143.203 0 .593l-1.889 4.967c-.348.9-.247 1.737.595 1.737 1.108 0 3.654-2.617 5.132-4.477l.042.022-1.396 3.74c-.124.328.183.715.512.715 1.09 0 3.061-1.614 3.595-2.597-.022-.244-.185-.325-.37-.286-.535.636-1.621 1.594-2.012 1.594-.206 0-.186-.244-.082-.51.861-2.432 2.195-5.785 2.403-6.337-.084-.244-.577-.449-1.007-.367-.678 1.247-1.745 3.617-3.613 5.457-1.069 1.043-1.89 1.698-2.197 1.698-.226 0-.33-.205-.144-.697l2.299-5.968zM212.66 62.807c.184-.47-.041-.838-.534-.838-1.025 0-2.279.838-3.058 1.9-.02.165.081.308.247.308.678-.594 1.395-1.022 1.868-1.022.164 0 .164.204.06.47-.102.286-2.28 6.172-2.38 6.438-.186.47.368.532.595.532.184 0 .268-.061.37-.246 1.211-2.247 2.05-3.841 3.14-5.191 1.128-1.41 2.34-2.432 2.833-2.432.307 0 .329.244.329.49 0 .41-.267 1.124-.43 1.493-.473 1.02-1.233 3.024-1.664 4.026-.43 1.023-.492 1.166-.492 1.35 0 .244.307.51.492.51 1.129 0 2.752-.98 3.53-2.289 0-.164-.04-.327-.328-.285-.596.714-1.58 1.39-1.93 1.39-.143 0-.123-.185-.042-.39.064-.163 1.542-3.496 1.91-4.518.166-.469.33-1.102.33-1.43 0-.675-.35-1.104-1.15-1.104-1.54 0-3.574 2.248-5.03 4.457l-.061-.041 1.395-3.578zM227.992 62.603c-.225-.429-.717-.635-1.046-.635-.985 0-2.28.573-3.675 1.82-1.623 1.452-2.732 3.883-2.732 5.337 0 .816.433 1.47 1.232 1.47 1.992 0 3.534-1.982 4.95-3.863l.081.02-.718 2.023c-.207.594-.267.921-.267 1.166 0 .327.225.655.656.655 1.067 0 2.937-1.678 3.491-2.801-.022-.183-.123-.266-.309-.266-.636.798-1.93 1.84-2.257 1.84-.185 0-.205-.205-.123-.47.183-.614 1.15-3.884 3.182-9.464.616-1.698.923-2.474 1.292-3.62l-.082-.12c-.881-.023-2.032.243-2.42.386-.084.082-.104.205-.064.286l.472.328c.287.184.228.552-.183 1.697l-1.48 4.211zm-1.086-.02c.512 0 .78.614.532 1.471-.307 1.084-.903 2.311-2.504 3.945-1.416 1.451-2.463 1.819-2.772 1.819-.185 0-.39-.183-.39-.43 0-.263 0-.633.638-1.94.636-1.29 2.113-3.23 2.934-3.987.533-.49 1.09-.878 1.562-.878zM239.42 62.807a1.151 1.151 0 0 0-.411-.429 1.006 1.006 0 0 0-.492-.123c-.533 0-1.047.143-1.847.594-.841.47-1.724 1.286-2.711 2.636-1.354 1.86-1.807 3.494-1.807 3.965 0 .574.33 1.145.905 1.145.963 0 3.059-1.411 4.516-3.21l.062.022-.678 1.838c-.163.471-.205.656-.205.799 0 .162.124.551.594.551 1.129 0 2.588-1.145 3.45-2.289 0-.164-.144-.266-.288-.266-1.17 1.023-1.764 1.37-2.115 1.37-.164 0-.265-.123-.144-.47.658-1.86 2.445-6.379 2.752-7.135-.122-.264-.656-.469-1.005-.306l-.576 1.308zm-1.54.224c.535 0 .884.35 1.027.737-.329 1.205-1.19 2.964-2.751 4.415-1.17 1.062-1.787 1.328-1.992 1.328-.184 0-.307-.142-.307-.387 0-1.453 1.252-4.13 2.566-5.294.636-.572.965-.799 1.457-.799zM249.823 63.237c.265-.143.389-.552.245-.757h-2.237l.596-2.003c-.163-.204-.574-.246-.78-.123l-1.15 2.023-1.643.288c-.205.081-.265.367-.225.572h1.601l-1.93 5.642c-.205.611-.287.9-.287 1.165 0 .244.267.552.554.552.861 0 2.794-1.249 3.942-2.944.042-.244-.082-.367-.287-.367-.678.776-2.034 1.838-2.34 1.838-.164 0-.268-.123-.144-.51l1.848-5.376h2.237zM251.849 69.86a.481.481 0 0 0 .083.551c.102.123.226.185.33.185 1.413 0 3.528-1.84 3.835-2.434 0-.183-.101-.326-.307-.347-.697.798-1.786 1.512-2.135 1.512-.164 0-.144-.244-.06-.448l2.443-5.807c.245-.592.245-.776.123-.898-.083-.083-.185-.206-.329-.206-.678 0-2.259.758-3.387 2.045-.042.165.081.327.267.347 1.025-.838 1.56-1.084 1.703-1.084.143 0 .143.165.041.39l-2.607 6.193zm4.516-12.798c-.8 0-1.107.84-1.107 1.289 0 .367.205.776.738.776.636 0 1.088-.653 1.088-1.286 0-.451-.247-.779-.72-.779zM264.873 61.969c-.842 0-1.767.305-2.833 1.33-1.398 1.328-2.156 3.31-2.24 4.578-.121 1.759.74 2.718 2.054 2.718.554 0 1.663-.101 2.935-1.41 1.52-1.554 2.116-3.516 2.177-4.641.082-1.491-.636-2.575-2.093-2.575m-.144.613c.718 0 .842.717.82 1.35-.04 1.082-1.005 3.78-1.908 4.987-.656.88-1.17 1.062-1.621 1.062-.597 0-.884-.591-.844-1.308.062-1.082.864-3.516 2.054-5.11.596-.796 1.087-.98 1.5-.98M273.945 62.807c.184-.47-.042-.838-.534-.838-1.027 0-2.28.838-3.059 1.9-.022.165.082.308.247.308.676-.594 1.396-1.022 1.869-1.022.163 0 .163.204.06.47-.102.286-2.28 6.172-2.381 6.438-.186.47.369.532.594.532.185 0 .267-.061.37-.246 1.211-2.247 2.055-3.841 3.141-5.191 1.13-1.41 2.341-2.432 2.833-2.432.31 0 .33.244.33.49 0 .41-.268 1.124-.433 1.493-.47 1.02-1.23 3.024-1.661 4.026-.43 1.023-.493 1.166-.493 1.35 0 .244.307.51.493.51 1.128 0 2.75-.98 3.531-2.289 0-.164-.042-.327-.329-.285-.596.714-1.581 1.39-1.93 1.39-.144 0-.124-.185-.042-.39.062-.163 1.54-3.496 1.91-4.518.164-.469.33-1.102.33-1.43 0-.675-.35-1.104-1.151-1.104-1.54 0-3.573 2.248-5.03 4.457l-.063-.041 1.398-3.578zM24.139 38.741c0 2.795 0 5.094-.146 6.317-.117.844-.263 1.485-.85 1.6-.26.06-.613.117-.876.117-.174 0-.234.088-.234.175 0 .175.148.232.469.232.877 0 2.72-.087 2.865-.087.233 0 3.216.175 3.888.175 5 0 7.455-3.23 7.455-6.345 0-3.407-2.893-5.474-5.056-6.143 1.373-1.427 2.747-2.853 2.747-5.24 0-1.456-1.053-4.367-5.848-4.367-1.344 0-2.484.088-3.186.088-.146 0-1.988-.088-3.304-.088-.32 0-.468.058-.468.233 0 .117.117.174.235.174.263 0 .76.03.993.088.965.204 1.198.669 1.258 1.66.058.93.058 1.747.058 6.287v5.124zm2.339-12.285c0-.175.087-.262.35-.32.469-.117 1.083-.147 1.404-.147 2.865 0 3.948 2.591 3.948 5.01 0 1.193-.44 2.24-1.053 2.94-.614.696-1.025.756-2.662.756-1.08 0-1.607-.087-1.782-.117-.148-.058-.205-.115-.205-.32v-7.802zm0 9.228c0-.145.057-.203.175-.203.439 0 1.9 0 2.281.058.702.087 1.432.174 2.427.843 2.25 1.543 2.835 4.076 2.835 5.823 0 3.29-2.542 4.134-4.122 4.134-.526 0-1.784-.058-2.574-.437-.905-.437-.905-.844-.993-2.27-.03-.438-.03-4.047-.03-6.289v-1.66zM45.244 35.544c0-3.891 0-4.59.05-5.388.05-.876.25-1.299.927-1.424.3-.05.45-.075.626-.075.1 0 .201-.05.201-.15 0-.15-.125-.2-.4-.2-.752 0-2.331.076-2.457.076-.126 0-1.705-.076-2.53-.076-.275 0-.4.05-.4.2 0 .1.099.15.198.15.176 0 .503.026.778.101.55.125.802.548.851 1.398.05.798.05 1.497.05 5.388v4.391c0 2.394 0 4.366-.125 5.414-.1.725-.226 1.273-.726 1.372a3.758 3.758 0 0 1-.752.101c-.15 0-.201.074-.201.149 0 .15.125.199.4.199.752 0 2.331-.074 2.457-.074.126 0 1.705.074 3.083.074.275 0 .4-.074.4-.199 0-.075-.05-.149-.201-.149-.223 0-.776-.05-1.127-.101-.751-.1-.9-.647-.977-1.372-.125-1.048-.125-3.02-.125-5.414v-4.391zM56.112 35.544c0-3.891 0-4.59.05-5.388.05-.876.25-1.299.977-1.424.3-.05.652-.075.827-.075.1 0 .201-.05.201-.15 0-.15-.125-.2-.4-.2-.752 0-2.582.076-2.708.076-.126 0-1.703-.076-2.831-.076-.275 0-.401.05-.401.2 0 .1.1.15.201.15.226 0 .65.026.852.075.827.175 1.027.574 1.076 1.424.052.798.052 1.497.052 5.388v4.391c0 2.394 0 4.366-.127 5.414-.1.725-.224 1.273-.726 1.372a3.758 3.758 0 0 1-.752.101c-.15 0-.201.074-.201.149 0 .15.125.199.4.199.377 0 .93-.024 1.43-.048.5 0 .927-.026 1.027-.026 1.454 0 3.108.149 6.715.149 1.33 0 1.404-.1 1.58-.673.2-.723.376-2.22.376-2.496 0-.273-.026-.373-.151-.373-.15 0-.2.125-.225.324-.074.474-.325 1.098-.65 1.497-.603.724-1.705.748-3.033.748-1.954 0-2.606-.174-3.007-.574-.453-.448-.552-2.044-.552-5.713v-4.441zM70.181 35.544c0-3.891 0-4.59.05-5.388.05-.876.251-1.299.977-1.424.301-.05.652-.075.828-.075.1 0 .201-.05.201-.15 0-.15-.126-.2-.403-.2-.75 0-2.58.076-2.705.076-.126 0-1.703-.076-2.832-.076-.275 0-.4.05-.4.2 0 .1.1.15.199.15.225 0 .652.026.853.075.828.175 1.027.574 1.077 1.424.05.798.05 1.497.05 5.388v4.391c0 2.394 0 4.366-.124 5.414-.102.725-.225 1.273-.728 1.372a3.758 3.758 0 0 1-.751.101c-.152 0-.2.074-.2.149 0 .15.124.199.4.199.376 0 .928-.024 1.429-.048.5 0 .927-.026 1.027-.026 1.453 0 3.108.149 6.715.149 1.328 0 1.404-.1 1.579-.673.201-.723.377-2.22.377-2.496 0-.273-.026-.373-.152-.373-.15 0-.2.125-.225.324-.076.474-.325 1.098-.652 1.497-.6.724-1.703.748-3.03.748-1.957 0-2.609-.174-3.01-.574-.45-.448-.55-2.044-.55-5.713v-4.441zM87.007 44.855c1.482 0 3.597-.631 5.078-2.297 1.63-1.833 2.096-3.919 2.16-4.55.042-.401.084-1.412.084-1.791.656.526 1.353 1.326 1.46 1.495.107.169.274.274.508.127.38-.232 1.228-.485 1.587-.526.233-.044.422-.064.55-.213.17-.166.403-.504.403-.988 0-.548-.212-1.182-.784-1.182-.38 0-.678.274-.678.529 0 .063.042.168.086.315.042.127.086.294.086.526 0 .36-.214.653-.425.653-.38 0-.445-.105-.931-.548-1.037-.927-1.651-1.643-2.815-1.643-.296 0-1.249.168-2.094.865-1.059.864-1.44 1.813-1.44 2.359 0 .57.467.844.91.844.594 0 .697-.443.697-.592 0-.125-.083-.357-.145-.588-.064-.232-.172-.506-.172-.697 0-.716.89-1.348 1.546-1.348.422 0 .869.147 1.1.358-.064 1.729-.339 2.781-1.142 4.256-1.228 2.256-3.386 3.435-5.142 3.435-1.63 0-3.789-.905-3.745-3.604v-.168c2.2-1.495 5.754-4.171 7.511-5.899 1.968-1.917 2.666-3.224 2.666-4.32 0-.821-.487-1.115-.973-1.115-.4 0-.846.294-.846.863 0 .233.062.294.232.463a.84.84 0 0 1 .255.633c0 .548-.467 1.39-.762 1.77-.592.78-2.053 2.254-2.985 3.013-.189-.274-.4-.822-1.331-.822-.467 0-1.779.21-3.153 1.644-1.693 1.727-2.031 3.476-2.031 4.528 0 2.172 1.331 4.215 4.675 4.215m-3.216-5.773c.148-.886.487-1.728 1.143-2.591.634-.822 1.331-1.138 1.628-1.138.403 0 .698.252.698.651 0 .044 0 .318-.02.507-.697.611-1.948 1.538-3.449 2.57M126.278 25.376c-.058-.553-.145-.786-.35-.786-.206 0-.322.205-.44.467l-8.595 18.282-8.947-18.312c-.145-.32-.263-.437-.438-.437-.176 0-.263.205-.321.524l-2.106 18.982c-.117 1.106-.205 2.241-1.17 2.416a3.762 3.762 0 0 1-.875.087c-.148 0-.294.058-.294.145 0 .205.206.262.497.262.79 0 2.193-.087 2.456-.087.234 0 1.637.087 2.72.087.351 0 .526-.057.526-.262 0-.087-.117-.145-.235-.145-.175 0-.614-.03-1.11-.145a.933.933 0 0 1-.76-.903c0-.494 0-1.018.028-1.485l1.17-13.508h.116c.323.786 3.597 7.772 3.86 8.297.148.291 2.662 5.328 3.421 6.754.557 1.048.7 1.34.906 1.34.263 0 .35-.262.965-1.543l7.164-15.138h.087l1.404 15.02c.058.525.028 1.02-.118 1.05-.145.029-.205.086-.205.204 0 .145.148.232.82.29 1.082.087 4.238.174 4.883.174.35 0 .614-.087.614-.262 0-.117-.088-.145-.236-.145-.29 0-1.052 0-1.9-.262-1.256-.409-1.461-2.039-1.579-3.085l-1.958-17.876zM136.096 39.758c0 2.397 0 4.366-.126 5.414-.1.725-.225 1.273-.725 1.374-.226.05-.527.1-.752.1-.152 0-.201.073-.201.148 0 .151.125.2.4.2.377 0 .953-.025 1.454-.049.526 0 .953-.026 1.003-.026.728 0 2.406.151 6.189.151.977 0 1.178 0 1.354-.651.125-.522.325-2.22.325-2.42 0-.173 0-.373-.15-.373-.126 0-.175.099-.225.373-.176 1.024-.477 1.523-1.129 1.797-.652.276-1.754.276-2.404.276-2.457 0-2.834-.326-2.907-2.047-.026-.524 0-3.419 0-4.267v-2.195c0-.1.05-.175.175-.175.425 0 2.907.05 3.583.125.977.1 1.202.524 1.302.873.102.324.102.574.102.822 0 .125.05.227.175.227.176 0 .176-.274.176-.475 0-.175.05-1.098.1-1.598.075-.822.199-1.247.199-1.396 0-.15-.048-.2-.124-.2-.102 0-.201.125-.377.323-.225.25-.576.3-1.178.352-.576.05-3.657.05-3.984.05-.125 0-.15-.076-.15-.25v-6.888c0-.174.05-.248.15-.248.275 0 3.007.024 3.434.074 1.353.15 1.603.448 1.778.85.126.297.152.722.152.897 0 .2.05.323.199.323.1 0 .152-.149.175-.274.052-.297.102-1.397.126-1.645.076-.7.201-1 .201-1.174 0-.125-.025-.224-.101-.224-.124 0-.226.1-.35.125-.2.05-.601.1-1.078.125-.576.024-5.563.024-5.738.024-.126 0-1.705-.076-2.831-.076-.278 0-.401.052-.401.2 0 .1.1.15.2.15.224 0 .651.026.853.075.825.175 1.026.574 1.076 1.424.05.798.05 1.497.05 5.388v4.391zM153.025 35.367c0-3.893 0-4.592.05-5.39.05-.874.251-1.296.977-1.422.301-.05.652-.075.827-.075.1 0 .2-.05.2-.149 0-.15-.124-.2-.399-.2-.752 0-2.582.075-2.708.075-.125 0-1.704-.075-2.83-.075-.276 0-.402.05-.402.2 0 .1.1.149.2.149.225 0 .652.026.853.075.826.175 1.027.574 1.077 1.422.052.798.052 1.497.052 5.39v4.391c0 2.395 0 4.366-.126 5.414-.102.723-.227 1.273-.728 1.372-.225.052-.526.1-.751.1-.152 0-.2.075-.2.15 0 .15.124.199.401.199.375 0 .927-.024 1.428-.05.5 0 .927-.024 1.026-.024 1.454 0 3.107.15 6.716.15 1.328 0 1.403-.1 1.579-.674.201-.724.377-2.221.377-2.495s-.026-.373-.152-.373c-.15 0-.2.125-.225.323-.076.475-.325 1.098-.652 1.497-.6.725-1.703.749-3.03.749-1.957 0-2.609-.175-3.008-.574-.452-.449-.552-2.047-.552-5.714v-4.441zM167.698 35.367c0-3.893 0-4.592.05-5.39.052-.874.252-1.296.927-1.422.302-.05.453-.075.627-.075.101 0 .2-.05.2-.149 0-.15-.125-.2-.4-.2-.752 0-2.33.075-2.456.075-.126 0-1.703-.075-2.53-.075-.278 0-.401.05-.401.2 0 .1.1.149.2.149.175 0 .502.026.777.1.55.126.801.55.851 1.397.05.798.05 1.497.05 5.39v4.391c0 2.395 0 4.366-.126 5.414-.1.723-.225 1.273-.725 1.372-.226.052-.527.1-.752.1-.152 0-.202.075-.202.15 0 .15.126.199.401.199.754 0 2.331-.074 2.457-.074.125 0 1.704.074 3.082.074.275 0 .401-.074.401-.199 0-.075-.05-.15-.201-.15-.224 0-.776-.048-1.127-.1-.752-.1-.901-.649-.977-1.372-.126-1.048-.126-3.02-.126-5.414v-4.391zM176.812 31.65c.802.896 3.633 4.041 6.54 7.16 2.656 2.845 6.265 6.512 6.54 6.762 1.33 1.322 1.63 1.596 1.83 1.596.176 0 .226-.125.226-1.77l.05-14.622c0-1.497.1-2.045.927-2.22.3-.075.476-.075.602-.075.175 0 .275-.076.275-.175 0-.149-.177-.175-.45-.175-1.027 0-1.855.076-2.13.076-.277 0-1.48-.076-2.608-.076-.299 0-.5.026-.5.175 0 .1.026.175.201.175.2 0 .776.025 1.226.125.778.198.953.748.98 2.37l.274 12.674c-.801-.824-3.533-3.867-6.013-6.512-3.86-4.117-7.593-8.133-7.97-8.558-.249-.248-.676-.798-.877-.798-.2 0-.275.274-.275 1.247l-.026 14.298c0 2.269-.124 2.993-.752 3.168-.375.125-.825.15-1.027.15-.125 0-.2.049-.2.15 0 .175.15.198.402.198 1.126 0 2.18-.075 2.404-.075.226 0 1.229.075 2.656.075.301 0 .45-.05.45-.198 0-.101-.073-.15-.198-.15-.226 0-.778-.025-1.253-.15-.676-.2-.927-.85-.979-2.894l-.325-11.952zM199.123 39.758c0 2.397 0 4.366-.126 5.414-.1.725-.225 1.273-.726 1.374-.225.05-.526.1-.752.1-.151 0-.2.073-.2.148 0 .151.125.2.4.2.752 0 2.33-.075 2.456-.075.252 0 3.408.3 5.563.3 4.261 0 6.516-1.747 7.593-2.87 1.404-1.472 2.706-3.892 2.706-7.037 0-2.968-1.177-5.038-2.431-6.337-2.98-3.069-7.567-2.845-10.047-2.845-1.503 0-3.083.076-3.384.076-.125 0-1.704-.076-2.831-.076-.275 0-.4.052-.4.2 0 .1.099.15.199.15.225 0 .652.026.853.075.825.175 1.027.574 1.077 1.424.05.798.05 1.497.05 5.388v4.391zm2.105-4.79c0-1.922 0-4.465.024-5.315 0-.274.076-.399.301-.498.201-.101 1.129-.175 1.63-.175 2.982 0 5.837.35 8.194 2.82 1.027 1.071 2.404 3.118 2.404 6.287 0 2.295-.7 4.69-2.005 5.963-1.478 1.472-3.633 2.321-5.962 2.321-2.957 0-3.936-.524-4.26-.998-.2-.274-.25-1.273-.276-1.896-.026-.475-.05-2.772-.05-5.416v-3.093zM219.01 44.25c-.453 1.246-.954 2.195-2.106 2.344-.2.026-.55.05-.726.05-.125 0-.225.051-.225.15 0 .15.15.2.476.2 1.177 0 2.555-.074 2.83-.074.277 0 1.354.073 1.956.073.225 0 .377-.05.377-.198 0-.1-.076-.151-.252-.151h-.25c-.428 0-.952-.225-.952-.723 0-.449.126-1.048.349-1.672l1.503-4.417c.05-.125.126-.198.252-.198h5.389c.124 0 .173.05.223.148l2.331 6.139c.152.4 0 .623-.15.673-.1.026-.175.075-.175.175 0 .15.275.15.752.174 1.729.05 3.557.05 3.934.05.275 0 .5-.05.5-.198 0-.126-.1-.151-.249-.151-.251 0-.628-.024-1.003-.15-.526-.148-1.254-.55-2.155-2.769-1.53-3.792-5.463-14.097-5.838-15.044-.301-.775-.401-.9-.553-.9-.15 0-.25.151-.55.975L219.01 44.25zm3.507-5.516c-.074 0-.126-.05-.074-.174l2.205-6.737c.124-.373.25-.373.375 0l2.38 6.737c.027.1.027.174-.099.174h-4.787z"/>
        </g>
    </g>
</svg>
