<svg xmlns="http://www.w3.org/2000/svg" width="300" height="100" viewBox="0 0 300 100">
    <defs>
        <linearGradient id="a" x1="80.45%" x2="43.776%" y1="15.814%" y2="97.439%">
            <stop offset="0%" stop-color="#0052CC"/>
            <stop offset="92.3%" stop-color="#2684FF"/>
        </linearGradient>
    </defs>
    <g fill="none" fill-rule="evenodd">
        <path fill="#FFF" d="M0 0h300v100H0z"/>
        <g fill-rule="nonzero">
            <path fill="url(#a)" d="M9.224 14.185a.839.839 0 0 0-1.43.156L.543 28.922a.876.876 0 0 0 .038.848.865.865 0 0 0 .737.414h10.094a.835.835 0 0 0 .775-.482c2.178-4.527.858-11.41-2.964-15.517z" transform="translate(29 35)"/>
            <path fill="#2684FF" d="M43.541 35.923a19.331 19.331 0 0 0-1.116 18.987l4.867 9.792a.866.866 0 0 0 .775.482H58.16c.3 0 .579-.157.737-.414a.876.876 0 0 0 .038-.848l-13.92-28.005a.818.818 0 0 0-1.474.006z"/>
            <path fill="#0052CC" d="M161.925 47.614c0 3.61 1.665 6.477 8.178 7.743 3.885.82 4.7 1.451 4.7 2.754 0 1.265-.816 2.085-3.553 2.085a19.956 19.956 0 0 1-9.436-2.569v5.881c1.961.968 4.551 2.048 9.362 2.048 6.809 0 9.51-3.055 9.51-7.594m0 0c0-4.28-2.257-6.291-8.622-7.668-3.515-.782-4.366-1.563-4.366-2.68 0-1.413 1.258-2.01 3.589-2.01 2.812 0 5.588.856 8.215 2.047v-5.62a18.473 18.473 0 0 0-8.03-1.676c-6.29 0-9.547 2.755-9.547 7.259M249.398 40.727v24.457h5.18v-18.65l2.183 4.95 7.327 13.7h6.513V40.727h-5.18V56.51l-1.962-4.579-5.884-11.204zM210.787 40.727h5.662v24.456h-5.662zM204.254 57.962c0-4.28-2.257-6.291-8.622-7.668-3.515-.782-4.366-1.563-4.366-2.68 0-1.413 1.258-2.01 3.59-2.01 2.812 0 5.587.856 8.214 2.047v-5.62a18.473 18.473 0 0 0-8.03-1.676c-6.29 0-9.547 2.755-9.547 7.259 0 3.61 1.665 6.477 8.178 7.743 3.886.82 4.7 1.451 4.7 2.754 0 1.265-.816 2.085-3.553 2.085a19.956 19.956 0 0 1-9.436-2.569v5.881c1.962.968 4.552 2.048 9.362 2.048 6.809 0 9.51-3.055 9.51-7.594M117.944 40.727v24.457h11.637l1.832-5.286h-7.77v-19.17zM94.953 40.727v5.286h6.29v19.17h5.7v-19.17h6.734v-5.286zM86.69 40.727h-7.468l-8.477 24.457h6.474l1.202-4.12a16 16 0 0 0 9.067 0l1.202 4.12h6.475L86.69 40.727zm-3.734 15.927c-1.055 0-2.104-.151-3.116-.45l3.116-10.673 3.116 10.676a10.997 10.997 0 0 1-3.116.447zM149.642 40.727h-7.467l-8.478 24.457h6.476l1.202-4.12a16 16 0 0 0 9.067 0l1.202 4.12h6.475l-8.477-24.457zm-3.733 15.927c-1.055 0-2.104-.151-3.116-.45l3.116-10.673 3.115 10.676a10.997 10.997 0 0 1-3.115.447zM236.85 40.727h-7.468l-8.477 24.457h6.475l1.202-4.12a16 16 0 0 0 9.067 0l1.202 4.12h6.476l-8.477-24.457zm-3.736 15.927c-1.055 0-2.104-.151-3.116-.45l3.116-10.673 3.115 10.676a10.997 10.997 0 0 1-3.115.447z"/>
        </g>
    </g>
</svg>
