<svg xmlns="http://www.w3.org/2000/svg" xmlns:xlink="http://www.w3.org/1999/xlink" width="300" height="100" viewBox="0 0 300 100">
    <defs>
        <path id="a" d="M0 68.87h211.886V.078H0z"/>
    </defs>
    <g fill="none" fill-rule="evenodd">
        <path fill="#FFF" d="M0 0h300v100H0z"/>
        <path fill="#E80047" d="M56.788 56.903L51.954 67.87l-4.835-10.967H44l7.954 17.313 7.953-17.313z"/>
        <g transform="translate(44 16.052)">
            <path fill="#E80047" d="M19.377 49.037c0 3.995 2.808 6.032 5.693 6.032 2.924 0 5.692-2.076 5.692-6.032 0-3.995-2.73-6.071-5.692-6.071-2.963 0-5.693 2.115-5.693 6.071m-2.885 0c0-4.935 3.626-8.578 8.578-8.578 4.951 0 8.577 3.643 8.577 8.578 0 4.936-3.665 8.54-8.577 8.54-4.913 0-8.578-3.604-8.578-8.54M38.442 48.959c0 3.486 1.95 6.11 5.303 6.11 3.43 0 5.38-2.86 5.38-6.071 0-4.191-2.885-6.032-5.38-6.032-2.768 0-5.303 2.037-5.303 5.993zM48.97 40.85h2.807v25.264H48.97v-11.28c-.935 1.214-2.69 2.741-5.536 2.741-4.094 0-7.876-2.898-7.876-8.617 0-5.602 3.743-8.5 7.876-8.5 3.119 0 4.795 1.723 5.536 2.703V40.85zM57.585 48.959c0 3.486 1.95 6.11 5.303 6.11 3.43 0 5.38-2.86 5.38-6.071 0-4.191-2.885-6.032-5.38-6.032-2.768 0-5.303 2.037-5.303 5.993zm10.527-8.108h2.807v16.255h-2.807v-2.272c-.935 1.215-2.69 2.742-5.536 2.742-4.094 0-7.876-2.898-7.876-8.617 0-5.602 3.743-8.5 7.876-8.5 3.119 0 4.795 1.723 5.536 2.703V40.85z"/>
            <mask id="b" fill="#fff">
                <use xlink:href="#a"/>
            </mask>
            <path fill="#E80047" d="M74.857 57.106h2.807V28.291h-2.807z" mask="url(#b)"/>
            <path fill="#9C8A87" d="M94.35 47.823c-.389-3.173-2.728-5.562-5.886-5.562-3.236 0-5.537 2.467-5.965 5.562H94.35zM82.383 49.31c0 4.074 2.963 6.738 6.316 6.738 2.573 0 4.522-1.528 5.536-3.643l1.326.783c-.936 1.802-3.042 4.348-6.98 4.348-4.95 0-7.836-3.682-7.836-8.343 0-5.562 3.82-8.422 7.72-8.422 4.288 0 7.525 3.447 7.525 8.54H82.382zM99.965 48.998c0 4.661 3.041 7.05 6.238 7.05 3.158 0 6.16-2.389 6.16-7.05 0-3.721-2.3-6.737-6.238-6.737-3.275 0-6.16 2.272-6.16 6.737zm12.32-19.926h1.56v28.034h-1.56v-2.86c-1.598 2.468-4.132 3.291-6.16 3.291-4.016 0-7.797-2.899-7.797-8.5 0-5.836 3.937-8.265 7.797-8.265 2.885 0 4.913 1.332 6.16 3.134V29.072zM119.771 41.125v9.636c0 1.136.039 2.82 1.014 3.995.974 1.175 2.417 1.293 3.158 1.293.74 0 2.183-.118 3.158-1.293.975-1.175 1.014-2.86 1.014-3.995v-9.636h1.56V51.19c0 1.293-.118 2.977-1.21 4.387-1.208 1.567-3.119 1.959-4.522 1.959-1.404 0-3.314-.392-4.523-1.959-1.092-1.41-1.209-3.094-1.209-4.387V41.125h1.56zM146.79 44.885c-1.053-1.214-2.885-2.624-5.498-2.624-3.898 0-6.628 3.016-6.628 6.933 0 4.583 3.47 6.855 6.55 6.855 2.535 0 4.523-1.489 5.77-2.86v2.115c-1.052.94-3.001 2.233-5.809 2.233-4.795 0-8.148-3.564-8.148-8.304s3.158-8.46 8.265-8.46c1.131 0 3.314.195 5.498 2.036v2.076zM150.65 48.998c0 3.604 2.222 7.05 6.237 7.05 3.977 0 6.16-3.368 6.16-7.05 0-4.74-3.47-6.737-6.199-6.737-3.158 0-6.199 2.39-6.199 6.737zm12.32-7.873h1.56v15.981h-1.56v-2.86c-1.599 2.468-4.133 3.291-6.2 3.291-4.171 0-7.758-3.173-7.758-8.422 0-4.935 3.119-8.343 7.758-8.343 2.496 0 4.679.98 6.2 3.134v-2.781zM170.572 42.613v14.493h-1.56V42.613h-1.754v-1.488h1.755v-5.72h1.56v5.72h2.767v1.488zM175.211 57.106h1.56V41.125h-1.56v15.981zm-.624-21.308c0-.862.624-1.45 1.404-1.45.78 0 1.404.588 1.404 1.45 0 .861-.624 1.449-1.404 1.449-.78 0-1.404-.588-1.404-1.45zM195.173 49.155c0-3.878-2.885-6.894-6.706-6.894-3.82 0-6.706 3.016-6.706 6.894 0 3.877 2.885 6.894 6.706 6.894 3.821 0 6.706-3.017 6.706-6.894m1.638 0c0 4.74-3.626 8.382-8.344 8.382-4.717 0-8.344-3.643-8.344-8.382 0-4.74 3.627-8.383 8.344-8.383 4.718 0 8.344 3.643 8.344 8.383M200.163 41.125h1.56v2.507c.74-1.332 2.183-2.86 4.873-2.86 2.847 0 4.055 1.684 4.406 2.233.702 1.136.78 2.624.78 4.034v10.067h-1.56V47.04c0-1.096-.039-2.31-.623-3.212-.351-.587-1.21-1.566-3.12-1.566-2.183 0-3.314 1.175-3.898 2.232-.702 1.254-.858 2.742-.858 4.31v8.303h-1.56V41.125zM145.21 63.185c-.318.299-.543.814-.543 1.339 0 .422.153.855.44 1.122.257.248.564.32.861.32.462 0 .81-.155 1.056-.423.308-.319.482-.864.482-1.39 0-.576-.256-.896-.4-1.03a1.226 1.226 0 0 0-.871-.34c-.472 0-.81.196-1.025.402zm2.501-.957h.738l-.523 4.273h-.738l.072-.597a1.791 1.791 0 0 1-.533.505 1.76 1.76 0 0 1-.882.216c-.512 0-.984-.103-1.383-.525-.318-.34-.554-.824-.554-1.524 0-.876.338-1.514.738-1.895.4-.381.892-.556 1.527-.556.287 0 .595.04.902.206.257.133.431.298.564.504l.072-.607zM152.826 62.228l.923 2.883 1.62-2.883h.84l-2.645 4.551-1.537-4.551zM157.962 63.257c-.359.35-.543.824-.543 1.34 0 .483.205.792.369.967.154.165.461.402.984.402.533 0 .912-.227 1.158-.495.318-.34.513-.854.513-1.349 0-.432-.164-.751-.349-.947a1.328 1.328 0 0 0-.974-.391c-.286 0-.748.072-1.158.473m-.758 2.78c-.298-.318-.544-.802-.544-1.492 0-.618.205-1.257.77-1.782.47-.432 1.014-.638 1.7-.638.698 0 1.2.226 1.559.587.43.432.523.957.523 1.4 0 .927-.38 1.524-.718 1.854-.543.535-1.2.659-1.773.659-.605 0-1.107-.155-1.517-.587M163.59 63.196c-.359.37-.533.947-.533 1.462 0 .494.185.793.348.968.236.247.523.34.882.34.39 0 .758-.103 1.076-.423.349-.35.533-.864.533-1.37 0-.504-.184-.823-.348-.998-.185-.206-.482-.391-.943-.391-.39 0-.728.113-1.015.412zm2.511-.969h.738l-.82 6.643h-.738l.37-2.966c-.113.154-.298.37-.595.525a1.91 1.91 0 0 1-.902.196c-.513 0-.964-.113-1.353-.536-.43-.453-.513-1.009-.513-1.42 0-.773.277-1.494.738-1.947.502-.495 1.107-.598 1.63-.598.308 0 .574.042.871.217.236.134.39.299.503.494l.071-.608zM169.218 63.185c-.318.299-.543.814-.543 1.339 0 .422.153.855.44 1.122.257.248.564.32.861.32.462 0 .81-.155 1.056-.423.308-.319.482-.864.482-1.39 0-.576-.256-.896-.4-1.03a1.226 1.226 0 0 0-.871-.34c-.472 0-.81.196-1.025.402zm2.5-.957h.739l-.523 4.273h-.738l.072-.597a1.791 1.791 0 0 1-.533.505 1.76 1.76 0 0 1-.882.216c-.512 0-.984-.103-1.383-.525-.318-.34-.554-.824-.554-1.524 0-.876.338-1.514.738-1.895.4-.381.892-.556 1.527-.556.287 0 .595.04.902.206.257.133.43.298.564.504l.072-.607zM175.194 58.994l-.922 7.507h-.738l.922-7.507zM179.172 60.281a.56.56 0 0 1 .44-.196c.144 0 .246.042.328.124a.459.459 0 0 1 .134.34c0 .185-.072.32-.165.412a.547.547 0 0 1-.41.175.463.463 0 0 1-.348-.144.444.444 0 0 1-.123-.32c0-.154.061-.298.144-.39zm.553 1.946l-.523 4.274h-.738l.523-4.274h.738zM181.324 62.228h.738l-.061.494c.02-.031.205-.258.43-.402.267-.165.554-.195.79-.195.307 0 .707.061 1.014.37.287.289.339.639.339.958 0 .216-.031.453-.062.71l-.287 2.338h-.738l.256-2.131c.02-.176.062-.536.062-.732 0-.175-.02-.442-.216-.638-.123-.124-.328-.216-.594-.216-.328 0-.594.123-.759.298-.287.299-.369.803-.42 1.185l-.277 2.234h-.738l.523-4.273zM186.521 60.281a.56.56 0 0 1 .441-.196c.144 0 .246.042.328.124a.459.459 0 0 1 .133.34c0 .185-.071.32-.164.412a.547.547 0 0 1-.41.175.463.463 0 0 1-.348-.144.444.444 0 0 1-.123-.32c0-.154.061-.298.143-.39zm.554 1.946l-.523 4.274h-.738l.523-4.274h.738zM189.35 62.907l-.44 3.594h-.738l.44-3.594h-.45l.082-.68h.45l.185-1.544h.738l-.184 1.544h.738l-.082.68zM191.257 60.281a.56.56 0 0 1 .441-.196c.144 0 .246.042.328.124a.459.459 0 0 1 .133.34c0 .185-.071.32-.164.412a.547.547 0 0 1-.41.175.463.463 0 0 1-.348-.144.444.444 0 0 1-.123-.32c0-.154.061-.298.143-.39zm.554 1.946l-.523 4.274h-.738l.523-4.274h.738zM194.189 63.185c-.318.299-.543.814-.543 1.339 0 .422.153.855.44 1.122.257.248.564.32.861.32.462 0 .81-.155 1.056-.423.308-.319.482-.864.482-1.39 0-.576-.256-.896-.4-1.03a1.226 1.226 0 0 0-.871-.34c-.472 0-.81.196-1.025.402zm2.501-.957h.738l-.523 4.273h-.738l.072-.597a1.791 1.791 0 0 1-.533.505 1.76 1.76 0 0 1-.882.216c-.512 0-.984-.103-1.383-.525-.318-.34-.554-.824-.554-1.524 0-.876.338-1.514.738-1.895.4-.381.892-.556 1.527-.556.287 0 .595.04.902.206.257.133.431.298.564.504l.072-.607zM199.704 62.907l-.44 3.594h-.739l.441-3.594h-.451l.082-.68h.451l.184-1.544h.739l-.185 1.544h.738l-.082.68zM201.61 60.281a.56.56 0 0 1 .441-.196c.144 0 .247.042.329.124a.459.459 0 0 1 .133.34c0 .185-.072.32-.164.412a.547.547 0 0 1-.41.175.463.463 0 0 1-.349-.144.444.444 0 0 1-.123-.32c0-.154.062-.298.144-.39zm.554 1.946l-.523 4.274h-.738l.523-4.274h.738zM203.948 62.228l.922 2.883 1.62-2.883h.84l-2.644 4.551-1.538-4.551zM211.154 63.896a1.268 1.268 0 0 0-.359-.845c-.235-.226-.543-.267-.779-.267-.379 0-.676.103-.932.36a1.622 1.622 0 0 0-.41.752h2.48zm.615 1.514c-.195.33-.502.69-.79.885-.42.278-.87.33-1.23.33-.501 0-.983-.093-1.403-.536-.257-.267-.564-.741-.564-1.534 0-.731.277-1.38.728-1.833.44-.443.922-.597 1.486-.597.717 0 1.138.257 1.384.504.307.32.594.906.481 1.885h-3.31c-.01.607.194.947.379 1.132.246.248.533.32.84.32.246 0 .544-.041.82-.237.216-.155.431-.433.554-.66l.625.34z" mask="url(#b)"/>
            <path fill="#6F615F" d="M37.619 25.47l-3.021-1.746c.348-.544.639-1.042.972-1.51 5.307-7.442 12.135-13.051 20.362-16.942C62.347 2.238 69.118.626 76.195.198c11.9-.72 23.01 1.784 33.186 8.109 6.07 3.773 11.244 8.543 15.41 14.387.22.308.404.641.667 1.064-.948.57-1.844 1.135-2.774 1.635-.122.066-.5-.139-.623-.314-3.756-5.343-8.433-9.707-13.887-13.249-6.237-4.05-13.044-6.564-20.394-7.606-7.486-1.062-14.89-.638-22.188 1.334-7.946 2.147-14.94 6.057-20.937 11.723a51.189 51.189 0 0 0-3.68 3.868c-1.157 1.348-2.188 2.805-3.356 4.32" mask="url(#b)"/>
            <path fill="#9C8A87" d="M113.992 26.057c-.995.685-1.81 1.282-2.671 1.805-.134.081-.557-.104-.699-.284-2.628-3.33-5.755-6.101-9.297-8.406-5.816-3.782-12.188-5.862-19.103-6.262-5.965-.345-11.746.497-17.302 2.741-6.394 2.583-11.797 6.532-16.127 11.93-.367.457-.62.552-1.098.185-.701-.539-1.45-1.015-2.35-1.638 8.741-10.744 19.848-16.557 33.58-16.797 14.32-.25 25.93 5.525 35.067 16.726" mask="url(#b)"/>
            <path fill="#C3B8B6" d="M58.19 27.938c1.446-1.084 2.726-2.165 4.122-3.066 3.85-2.487 8.062-4.097 12.595-4.718 4.168-.57 8.337-.528 12.47.46a31.355 31.355 0 0 1 12.3 5.965c1.654 1.306 1.66 1.295.169 2.763-1.168 1.149-.89.961-2.01.05-3.656-2.975-7.813-4.888-12.438-5.785-6.126-1.189-12.005-.385-17.683 2.14-2.336 1.038-4.492 2.363-6.414 4.055-.425.374-.742.414-1.157-.02-.572-.598-1.203-1.14-1.954-1.844" mask="url(#b)"/>
        </g>
    </g>
</svg>
