<svg width="11" height="11" viewBox="0 0 11 11" fill="none" xmlns="http://www.w3.org/2000/svg">
<path d="M0.548828 0.847656C0.701172 0.847656 0.826172 0.896484 0.923828 0.994141C1.02539 1.08789 1.07617 1.21094 1.07617 1.36328C1.07617 1.46875 1.07227 1.57422 1.06445 1.67969C1.06055 1.78125 1.05859 1.90234 1.05859 2.04297C1.05859 2.76562 1.15039 3.35156 1.33398 3.80078C1.52148 4.25 1.82617 4.58008 2.24805 4.79102C2.67383 4.99805 3.24609 5.10156 3.96484 5.10156H8.00781L9.44922 5.18945L7.46875 3.37891L6.16797 2.05469C6.125 2.00781 6.08984 1.95313 6.0625 1.89062C6.03906 1.82422 6.02734 1.75586 6.02734 1.68555C6.02734 1.54102 6.07617 1.42188 6.17383 1.32812C6.27539 1.23047 6.39844 1.18164 6.54297 1.18164C6.68359 1.18164 6.81055 1.23438 6.92383 1.33984L10.8145 5.23047C10.9355 5.34375 10.9961 5.47461 10.9961 5.62305C10.9961 5.77148 10.9355 5.9043 10.8145 6.02148L6.93555 9.89453C6.81445 10.0117 6.68359 10.0703 6.54297 10.0703C6.39844 10.0703 6.27539 10.0234 6.17383 9.92969C6.07617 9.83203 6.02734 9.71094 6.02734 9.56641C6.02734 9.49609 6.03906 9.42773 6.0625 9.36133C6.08594 9.29492 6.12109 9.23828 6.16797 9.19141L7.46875 7.86719L9.44336 6.06836L8.00781 6.15039H3.91211C2.52148 6.15039 1.52148 5.83008 0.912109 5.18945C0.302734 4.54492 -0.00195312 3.51367 -0.00195312 2.0957C-0.00195312 1.92383 0.00195312 1.76758 0.00976562 1.62695C0.0175781 1.48633 0.03125 1.37109 0.0507812 1.28125C0.0664062 1.20313 0.09375 1.13086 0.132812 1.06445C0.171875 0.998047 0.224609 0.945313 0.291016 0.90625C0.361328 0.867187 0.447266 0.847656 0.548828 0.847656Z" fill="#404040"/>
</svg>
