<svg width="24" height="24" viewBox="0 0 24 24" fill="none" xmlns="http://www.w3.org/2000/svg">
<path fill-rule="evenodd" clip-rule="evenodd" d="M15.1562 1.4595C14.9197 2.98977 13.5968 4.16129 12.0003 4.16129C10.4037 4.16129 9.08078 2.98969 8.84433 1.45934C9.84392 1.16052 10.9032 1 12 1C13.097 1 14.1564 1.16058 15.1562 1.4595ZM17.221 2.31558C16.3065 3.56486 16.4136 5.32841 17.5424 6.45719C18.6712 7.58601 20.4349 7.69312 21.6842 6.77852C20.6643 4.89094 19.1086 3.33537 17.221 2.31558ZM22.5405 8.84372C21.009 9.07923 19.8363 10.4027 19.8363 12C19.8363 13.5974 21.009 14.9208 22.5405 15.1563C22.8394 14.1565 23 13.097 23 12C23 10.903 22.8394 9.84349 22.5405 8.84372ZM21.684 17.2218C20.4347 16.3069 18.6708 16.4139 17.5419 17.5428C16.413 18.6716 16.3059 20.4353 17.2206 21.6846C19.1083 20.6649 20.664 19.1093 21.684 17.2218ZM15.1562 22.5405C14.9197 21.0102 13.5968 19.8387 12.0003 19.8387C10.4037 19.8387 9.08078 21.0103 8.84433 22.5407C9.84392 22.8395 10.9032 23 12 23C13.097 23 14.1565 22.8394 15.1562 22.5405ZM6.77862 21.6842C7.69293 20.4349 7.58573 18.6715 6.45702 17.5428C5.32833 16.4141 3.56496 16.3069 2.3157 17.2212C3.33551 19.1088 4.89107 20.6644 6.77862 21.6842ZM1.45945 15.156C2.9901 14.9198 4.16201 13.5967 4.16201 12C4.16201 10.4032 2.99011 9.08012 1.45947 8.84393C1.16056 9.84364 1 10.9031 1 12C1 13.0969 1.16056 14.1563 1.45945 15.156ZM2.31552 6.77912C3.56476 7.6931 5.32789 7.5858 6.45647 6.45722C7.58513 5.32856 7.69237 3.56528 6.7782 2.31602C4.89073 3.33593 3.33525 4.89154 2.31552 6.77912ZM13.014 6.03234C13.014 6.59354 12.5591 7.04847 11.9979 7.04847C11.4367 7.04847 10.9818 6.59354 10.9818 6.03234C10.9818 5.47115 11.4367 5.01622 11.9979 5.01622C12.5591 5.01622 13.014 5.47115 13.014 6.03234ZM15.4993 8.49867C15.8961 8.89549 16.5395 8.89549 16.9363 8.49867C17.3331 8.10184 17.3331 7.45847 16.9363 7.06164C16.5395 6.66482 15.8961 6.66482 15.4993 7.06164C15.1025 7.45847 15.1025 8.10184 15.4993 8.49867ZM17.9681 13.0161C17.4069 13.0161 16.9519 12.5612 16.9519 12C16.9519 11.4388 17.4069 10.9839 17.9681 10.9839C18.5292 10.9839 18.9842 11.4388 18.9842 12C18.9842 12.5612 18.5292 13.0161 17.9681 13.0161ZM15.5007 15.5013C15.1039 15.8981 15.1039 16.5415 15.5007 16.9383C15.8975 17.3351 16.5409 17.3351 16.9377 16.9383C17.3346 16.5415 17.3346 15.8981 16.9377 15.5013C16.5409 15.1045 15.8975 15.1045 15.5007 15.5013ZM13.014 17.9677C13.014 18.5289 12.5591 18.9839 11.9979 18.9839C11.4367 18.9839 10.9818 18.5289 10.9818 17.9677C10.9818 17.4066 11.4367 16.9516 11.9979 16.9516C12.5591 16.9516 13.014 17.4066 13.014 17.9677ZM7.06106 16.9383C7.45788 17.3351 8.10126 17.3351 8.49808 16.9383C8.89491 16.5415 8.89491 15.8981 8.49808 15.5013C8.10126 15.1045 7.45788 15.1045 7.06106 15.5013C6.66424 15.8981 6.66424 16.5415 7.06106 16.9383ZM6.03093 13.0161C5.46973 13.0161 5.0148 12.5612 5.0148 12C5.0148 11.4388 5.46973 10.9839 6.03093 10.9839C6.59212 10.9839 7.04706 11.4388 7.04706 12C7.04706 12.5612 6.59212 13.0161 6.03093 13.0161ZM7.06042 7.06164C6.6636 7.45847 6.6636 8.10184 7.06042 8.49867C7.45724 8.89549 8.10062 8.89549 8.49744 8.49867C8.89427 8.10184 8.89427 7.45847 8.49744 7.06164C8.10062 6.66482 7.45724 6.66482 7.06042 7.06164Z" fill="#5C5C5C"/>
</svg>
