<svg width="41" height="40" viewBox="0 0 41 40" fill="none" xmlns="http://www.w3.org/2000/svg">
<path fill-rule="evenodd" clip-rule="evenodd" d="M12.7227 0H36.7227C38.9318 0 40.7227 1.79086 40.7227 4V28C40.7227 30.2091 38.9318 32 36.7227 32H12.7227C10.5135 32 8.72266 30.2091 8.72266 28V4C8.72266 1.79086 10.5135 0 12.7227 0ZM12.7227 28H36.7227V4H12.7227V28ZM28.7227 36V40H4.72266C2.51352 40 0.722656 38.2091 0.722656 36V10H4.72266V36H28.7227ZM31.6627 10L33.7827 12.12L21.9027 24L15.5427 17.64L17.6627 15.52L21.9027 19.76L31.6627 10Z" fill="#5C5C5C"/>
</svg>
