<svg width="45" height="44" viewBox="0 0 45 44" fill="none" xmlns="http://www.w3.org/2000/svg">
<path d="M31.8887 20.168C32.9012 20.168 33.722 20.9888 33.722 22.0013C33.722 22.9415 33.0143 23.7164 32.1025 23.8223L31.8887 23.8346H11.722C10.7095 23.8346 9.88867 23.0138 9.88867 22.0013C9.88867 21.0611 10.5964 20.2862 11.5082 20.1803L11.722 20.168H31.8887Z" fill="#5C5C5C"/>
<path d="M23.2596 13.369C23.9205 12.7081 24.9604 12.6573 25.6796 13.2165L25.8524 13.369L33.1857 20.7023C33.8466 21.3632 33.8974 22.4031 33.3382 23.1223L33.1857 23.2951L25.8524 30.6284C25.1364 31.3444 23.9756 31.3444 23.2596 30.6284C22.5987 29.9675 22.5479 28.9276 23.1071 28.2084L23.2596 28.0357L29.2952 21.9987L23.2596 15.9617C22.5987 15.3008 22.5479 14.2609 23.1071 13.5417L23.2596 13.369Z" fill="#5C5C5C"/>
<path fill-rule="evenodd" clip-rule="evenodd" d="M0.722656 22C0.722656 9.84974 10.5724 0 22.7227 0C34.8729 0 44.7227 9.84974 44.7227 22C44.7227 34.1503 34.8729 44 22.7227 44C10.5724 44 0.722656 34.1503 0.722656 22ZM41.056 22C41.056 11.8748 32.8479 3.66667 22.7227 3.66667C12.5974 3.66667 4.38932 11.8748 4.38932 22C4.38932 32.1252 12.5974 40.3333 22.7227 40.3333C32.8479 40.3333 41.056 32.1252 41.056 22Z" fill="#5C5C5C"/>
</svg>
