<svg width="37" height="40" viewBox="0 0 37 40" fill="none" xmlns="http://www.w3.org/2000/svg">
<path fill-rule="evenodd" clip-rule="evenodd" d="M24.0287 4H32.3887C34.5978 4 36.3887 5.79086 36.3887 8V36C36.3887 38.2091 34.5978 40 32.3887 40H4.38867C2.17953 40 0.388672 38.2091 0.388672 36V8C0.388672 5.79086 2.17953 4 4.38867 4H12.7487C13.5887 1.68 15.7887 0 18.3887 0C20.9887 0 23.1887 1.68 24.0287 4ZM20.3887 6C20.3887 4.89543 19.4932 4 18.3887 4C17.2841 4 16.3887 4.89543 16.3887 6C16.3887 7.10457 17.2841 8 18.3887 8C19.4932 8 20.3887 7.10457 20.3887 6ZM28.3887 12V8H32.3887V36H4.38867V8H8.38867V12H28.3887ZM12.3887 22L9.38867 25L16.3887 32L28.3887 20L25.3887 17L16.3887 26L12.3887 22Z" fill="#5C5C5C"/>
</svg>
