<?xml version="1.0" encoding="UTF-8"?>
<svg width="30px" height="30px" viewBox="0 0 30 30" version="1.1" xmlns="http://www.w3.org/2000/svg" xmlns:xlink="http://www.w3.org/1999/xlink">
    <!-- Generator: Sketch 43.2 (39069) - http://www.bohemiancoding.com/sketch -->
    <title>Group 19</title>
    <desc>Created with Sketch.</desc>
    <defs></defs>
    <g id="10-Teacher-Dashboard:-Acitivity-Planner" stroke="none" stroke-width="1" fill="none" fill-rule="evenodd">
        <g id="10_01-Assign-A-New-Activity" transform="translate(-886.000000, -682.000000)" fill-rule="nonzero" fill="#969696">
            <g id="Group-15" transform="translate(851.000000, 656.000000)">
                <g id="Group-8" transform="translate(35.000000, 26.000000)">
                    <g id="Group-18">
                        <g id="Group-19">
                            <path d="M24.7,14.4 C24.31,14.4 23.92,14.27 23.4,14.14 L21.84,13.62 L20.54,14.92 C20.67,15.57 20.8,16.22 20.8,16.87 C20.8,21.16 17.29,24.67 13,24.67 C8.71,24.67 5.2,21.16 5.2,16.87 C5.2,12.58 8.71,9.07 13,9.07 C13.65,9.07 14.43,9.2 14.95,9.33 L16.25,8.03 L15.73,6.47 C15.6,5.82 15.6,5.04 15.73,4.26 C14.82,4.13 13.91,4 13,4 C5.85,4 0,9.85 0,17 C0,24.15 5.85,30 13,30 C20.15,30 26,24.15 26,17 C26,16.09 25.87,15.18 25.74,14.27 C25.35,14.4 25.09,14.4 24.7,14.4 Z" id="Shape"></path>
                            <path d="M29.9534226,6.24651504 C29.8242848,5.85913426 29.5660093,5.47175348 29.0494582,5.34262656 L27.1123915,4.69699193 L28.2746315,3.5348496 C28.7911826,3.01834189 28.7911826,2.24358034 28.2746315,1.72707263 C27.7580804,1.21056493 26.9832537,1.21056493 26.4667026,1.72707263 L25.3044625,2.88921497 L24.6587736,0.952311079 C24.5296359,0.564930301 24.1422225,0.177549523 23.7548092,0.0484225972 C23.3673958,-0.0807043287 22.8508447,0.0484225972 22.5925691,0.435803375 L18.7184357,4.30961115 C18.3310224,4.69699193 18.2018846,5.21349963 18.4601602,5.60088041 L19.4932624,8.69992663 L15.7482668,12.4446075 C14.9734401,11.9280998 14.0694757,11.6698459 13.1655112,11.6698459 C10.32448,11.6698459 8,13.9941306 8,16.834923 C8,19.6757153 10.32448,22 13.1655112,22 C16.0065424,22 18.3310224,19.6757153 18.3310224,16.834923 C18.3310224,15.9310345 18.0727468,15.027146 17.5561957,14.2523844 L21.1720536,10.6368305 L24.2713603,11.6698459 C24.4004981,11.6698459 24.5296359,11.7989729 24.6587736,11.7989729 C25.046187,11.7989729 25.3044625,11.6698459 25.5627381,11.4115921 L29.4368715,7.5377843 C29.9534226,7.15040352 30.0825604,6.63389582 29.9534226,6.24651504 Z" id="Shape"></path>
                        </g>
                    </g>
                </g>
            </g>
        </g>
    </g>
</svg>