<svg xmlns="http://www.w3.org/2000/svg" width="24" height="24" viewBox="0 0 24 24">
    <g fill="none" fill-rule="evenodd">
        <path d="M0 0H24V24H0z"/>
        <g fill="#B17410" fill-rule="nonzero">
            <path d="M15.583 10.083c.507 0 .917.41.917.917 0 .47-.354.858-.81.91l-.107.007H5.5c-.506 0-.917-.41-.917-.917 0-.47.354-.858.81-.91l.107-.007h10.083z" transform="translate(1 1)"/>
            <path d="M11.268 6.685c.33-.33.85-.356 1.21-.076l.087.076 3.667 3.667c.33.33.355.85.076 1.21l-.076.086-3.667 3.667c-.358.358-.939.358-1.297 0-.33-.33-.355-.85-.076-1.21l.076-.087L14.286 11l-3.018-3.018c-.33-.33-.355-.85-.076-1.21l.076-.087z" transform="translate(1 1)"/>
            <path d="M11 0C4.925 0 0 4.925 0 11s4.925 11 11 11 11-4.925 11-11S17.075 0 11 0zm0 1.833c5.063 0 9.167 4.104 9.167 9.167S16.063 20.167 11 20.167 1.833 16.063 1.833 11 5.937 1.833 11 1.833z" transform="translate(1 1)"/>
        </g>
    </g>
</svg>
