<svg xmlns="http://www.w3.org/2000/svg" width="24" height="24" viewBox="0 0 24 24">
    <g fill="none" fill-rule="evenodd">
        <path d="M0 0h24v24H0z"/>
        <g fill="#878787" fill-rule="nonzero">
            <path d="M16.583 11.083a.917.917 0 0 1 .107 1.827l-.107.007H6.5a.917.917 0 0 1-.107-1.827l.107-.007h10.083z"/>
            <path d="M12.268 7.685a.917.917 0 0 1 1.21-.076l.087.076 3.667 3.667c.33.33.355.85.076 1.21l-.076.086-3.667 3.667a.917.917 0 0 1-1.373-1.21l.076-.087L15.286 12l-3.018-3.018a.917.917 0 0 1-.076-1.21l.076-.087z"/>
            <path d="M12 1C5.925 1 1 5.925 1 12s4.925 11 11 11 11-4.925 11-11S18.075 1 12 1zm0 1.833a9.167 9.167 0 1 1 0 18.334 9.167 9.167 0 0 1 0-18.334z"/>
        </g>
    </g>
</svg>
