<?xml version="1.0" encoding="UTF-8"?>
<svg width="13px" height="13px" viewBox="0 0 13 13" version="1.1" xmlns="http://www.w3.org/2000/svg" xmlns:xlink="http://www.w3.org/1999/xlink">
    <!-- Generator: Sketch 47.1 (45422) - http://www.bohemiancoding.com/sketch -->
    <title>Combined Shape</title>
    <desc>Created with Sketch.</desc>
    <defs></defs>
    <g id="Co-teaching" stroke="none" stroke-width="1" fill="none" fill-rule="evenodd">
        <g id="08_14-Manage-Classes" transform="translate(-559.000000, -1872.000000)" fill-rule="nonzero" fill="#FF4542">
            <g id="Group-3" transform="translate(186.000000, 1748.000000)">
                <path d="M378.085786,130.5 L373.292893,135.292893 C372.902369,135.683418 372.902369,136.316582 373.292893,136.707107 C373.683418,137.097631 374.316582,137.097631 374.707107,136.707107 L379.5,131.914214 L384.292893,136.707107 C384.683418,137.097631 385.316582,137.097631 385.707107,136.707107 C386.097631,136.316582 386.097631,135.683418 385.707107,135.292893 L380.914214,130.5 L385.707107,125.707107 C386.097631,125.316582 386.097631,124.683418 385.707107,124.292893 C385.316582,123.902369 384.683418,123.902369 384.292893,124.292893 L379.5,129.085786 L374.707107,124.292893 C374.316582,123.902369 373.683418,123.902369 373.292893,124.292893 C372.902369,124.683418 372.902369,125.316582 373.292893,125.707107 L378.085786,130.5 Z" id="Combined-Shape"></path>
            </g>
        </g>
    </g>
</svg>