<?xml version="1.0" encoding="utf-8"?>
<!-- Generator: Adobe Illustrator 21.0.2, SVG Export Plug-In . SVG Version: 6.00 Build 0)  -->
<svg version="1.1" id="Layer_1" xmlns="http://www.w3.org/2000/svg" xmlns:xlink="http://www.w3.org/1999/xlink" x="0px" y="0px"
	 viewBox="0 0 17 18" style="enable-background:new 0 0 17 18;" xml:space="preserve">
<style type="text/css">
	.st0{fill:#969696;}
</style>
<title>Group 18</title>
<desc>Created with Sketch.</desc>
<g id="Customize-Slides">
	<g id="E-12_00-Select-Edition" transform="translate(-812.000000, -872.000000)">
		<g id="Group-8" transform="translate(204.000000, 185.000000)">
			<g id="Group-22" transform="translate(595.000000, 604.000000)">
				<g id="Group-18" transform="translate(13.000000, 83.000000)">
					<path class="st0" d="M11.5,6.8c-3,0-5.4,2.4-5.4,5.4c0,3,2.4,5.4,5.4,5.4s5.4-2.4,5.4-5.4C16.9,9.2,14.5,6.8,11.5,6.8z M14,14
						l-0.7,0.7l-1.8-1.8l-1.8,1.8L9,14l1.8-1.8L9,10.4l0.7-0.7l1.8,1.8l1.8-1.8l0.7,0.7l-1.8,1.8L14,14z"/>
					<g id="Rectangle-48-Copy_1_">
						<path class="st0" d="M5.7,17.7H1.1c-0.6,0-1-0.4-1-1V1.3c0-0.6,0.4-1,1-1h11.1c0.6,0,1,0.4,1,1v3.9h-1V1.3H1.1v15.5h4.6V17.7z
							"/>
					</g>
				</g>
			</g>
		</g>
	</g>
</g>
</svg>
