<svg xmlns="http://www.w3.org/2000/svg" width="16" height="16" viewBox="0 0 16 16">
    <g fill="none" fill-rule="evenodd">
        <g>
            <g>
                <path d="M0 0H16V16H0z" transform="translate(-512 -568) translate(512 568)"/>
                <g>
                    <path d="M0 0H12V12H0z" transform="translate(-512 -568) translate(512 568) translate(2 2)"/>
                    <g stroke="#757575" stroke-linecap="round" stroke-linejoin="round">
                        <path d="M4.5 9L9 9M6.75.75c.268-.268.658-.373 1.025-.275.366.099.651.384.75.75.098.367-.007.757-.275 1.025L2 8.5 0 9l.5-2L6.75.75z" transform="translate(-512 -568) translate(512 568) translate(2 2) translate(1 1)"/>
                    </g>
                </g>
            </g>
        </g>
    </g>
</svg>
