<svg xmlns="http://www.w3.org/2000/svg" width="16" height="16" viewBox="0 0 16 16">
    <g fill="none" fill-rule="evenodd">
        <g>
            <g>
                <g>
                    <g>
                        <path d="M0 0H16V16H0z" transform="translate(-393 -936) translate(377 797) translate(16 139)"/>
                        <g>
                            <g>
                                <path d="M0 0H12V12H0z" transform="translate(-393 -936) translate(377 797) translate(16 139) translate(2 2)"/>
                                <g stroke="#757575" stroke-linecap="round" stroke-linejoin="round" transform="translate(-393 -936) translate(377 797) translate(16 139) translate(2 2)">
                                    <circle cx="6" cy="6" r="5.5"/>
                                    <path d="M7.5 3.285c-.4-.196-.84-.293-1.286-.285C4.071 3 3.5 4.571 3.5 6s.571 3 2.714 3c.445.008.886-.09 1.286-.285"/>
                                </g>
                            </g>
                        </g>
                    </g>
                </g>
            </g>
        </g>
    </g>
</svg>
