<svg xmlns="http://www.w3.org/2000/svg" width="16" height="16" viewBox="0 0 16 16">
    <g fill="none" fill-rule="evenodd">
        <g>
            <g>
                <path d="M0 0H16V16H0z" transform="translate(-393 -307) translate(393 307)"/>
                <g stroke="#757575" stroke-linecap="round">
                    <path stroke-linejoin="round" d="M.5 6.415V4.5c0-.553.448-1 1-1h1.777C3.105 3.204 3 2.865 3 2.5c0-1.105.896-2 2-2s2 .895 2 2c0 .366-.105.705-.277 1H8.5c.552 0 1 .447 1 1v1.777h0" transform="translate(-393 -307) translate(393 307) translate(3 1)"/>
                    <path stroke-linejoin="round" d="M.5 6.277C.795 6.105 1.134 6 1.5 6c1.104 0 2 .895 2 2 0 1.104-.896 2-2 2-.366 0-.705-.106-1-.278V11.5c0 .553.448 1 1 1h7c.552 0 1-.447 1-1V9.722h0" transform="translate(-393 -307) translate(393 307) translate(3 1)"/>
                    <path d="M9.5 6.277C9.205 6.105 8.866 6 8.5 6c-1.104 0-2 .895-2 2 0 1.104.896 2 2 2 .366 0 .705-.106 1-.278" transform="translate(-393 -307) translate(393 307) translate(3 1)"/>
                </g>
            </g>
        </g>
    </g>
</svg>
