<svg xmlns="http://www.w3.org/2000/svg" width="16" height="16" viewBox="0 0 16 16">
    <g fill="none" fill-rule="evenodd">
        <g>
            <g>
                <path d="M0 0H16V16H0z" transform="translate(-1165 -829) translate(1165 829)"/>
                <g>
                    <path d="M0 0H12V12H0z" transform="translate(-1165 -829) translate(1165 829) translate(2 2)"/>
                    <path stroke="#757575" stroke-linecap="round" stroke-linejoin="round" d="M7 9c2.21 0 4-1.79 4-4S9.21 1 7 1" transform="translate(-1165 -829) translate(1165 829) translate(2 2)"/>
                    <path stroke="#757575" stroke-linecap="round" stroke-linejoin="round" d="M1 11c2.21 0 4-1.79 4-4S3.21 3 1 3" transform="translate(-1165 -829) translate(1165 829) translate(2 2) matrix(-1 0 0 1 6 0)"/>
                </g>
            </g>
        </g>
    </g>
</svg>
