<svg xmlns="http://www.w3.org/2000/svg" width="16" height="16" viewBox="0 0 16 16">
    <g fill="none" fill-rule="evenodd">
        <g>
            <g>
                <path d="M0 0H16V16H0z" transform="translate(-963.000000, -244.000000) translate(963.000000, 244.000000)"/>
                <path fill="#757575" fill-rule="nonzero" d="M13.141 13.25h.078c.154 0 .281.127.281.281v.188c0 .154-.127.281-.281.281H4.875C3.839 14 3 13.16 3 12.125v-8.25C3 2.839 3.84 2 4.875 2h8.063c.311 0 .562.25.562.563v8.624c0 .235-.145.436-.35.52-.084.378-.102 1.07-.009 1.543zM6 11h6.75V2.75H6V11zm-2.25.375c.314-.234.703-.375 1.125-.375h.375V2.75h-.375c-.621 0-1.125.504-1.125 1.125v7.5zm8.726 1.875c-.073-.478-.068-1.06 0-1.5H4.875c-1.5 0-1.5 1.5 0 1.5h7.6z" transform="translate(-963.000000, -244.000000) translate(963.000000, 244.000000)"/>
            </g>
        </g>
    </g>
</svg>
