<svg xmlns="http://www.w3.org/2000/svg" width="22" height="24" viewBox="0 0 22 24">
    <g fill="none" fill-rule="evenodd">
        <path d="M0 0H24V24H0z" transform="translate(-1)"/>
        <g fill="#FFF" fill-rule="nonzero">
            <path d="M19.8 11.4c.1.5.2 1.1.2 1.6 0 1.4-.3 2.8-.9 4-2 1.1-2.9.5-3.8-.2-.6-.5-1.5-1.1-2.6-.7-1.1.4-1.9 1.3-2.4 2.4-.4 1-.5 2.3-.3 3.5-2-.2-3.8-1.1-5.1-2.4.7-1.5.7-3-.2-4.3-.2-.4-.5-.7-.8-1-.5-.5-.3-1.4.3-1.7.8-.4 1.7-.8 2.3-1.6 1.2-1.8-.2-4.4-.5-4.9-.1-.1-.2-.2-.3-.4C6.7 5 7.8 4.5 9 4.2c.1-.8.3-1.5.6-2.1C4.2 2.8 0 7.4 0 13c0 6.1 4.9 11 11 11s11-4.9 11-11c0-1.2-.2-2.4-.6-3.6-.5.7-1 1.4-1.6 2z" transform="translate(-1) translate(1)"/>
            <path d="M16 0c-2.5 0-5 1.9-5 5 0 2.8 3.9 6.4 4.3 6.7.2.2.4.3.7.3.3 0 .5-.1.7-.3.4-.3 4.3-3.9 4.3-6.7 0-3.1-2.5-5-5-5zm0 7c-1.1 0-2-.9-2-2s.9-2 2-2 2 .9 2 2-.9 2-2 2z" transform="translate(-1) translate(1)"/>
        </g>
    </g>
</svg>
