<svg width="24" height="24" viewBox="0 0 24 24" fill="none" xmlns="http://www.w3.org/2000/svg">
<path d="M3.81384 20.4086C2.78584 20.4086 1.99368 20.1335 1.43736 19.5832C0.887078 19.0389 0.611938 18.2528 0.611938 17.2248V7.18376C0.611938 6.15576 0.881031 5.36965 1.41922 4.82542C1.9574 4.27514 2.70723 4 3.66871 4H20.1862C21.2202 4 22.0124 4.27514 22.5626 4.82542C23.1129 5.36965 23.3881 6.15576 23.3881 7.18376V17.2248C23.3881 18.2528 23.119 19.0389 22.5808 19.5832C22.0426 20.1335 21.2958 20.4086 20.3404 20.4086H3.81384ZM3.90454 18.2498H20.0955C20.4583 18.2498 20.7364 18.1531 20.9299 17.9596C21.1295 17.7661 21.2293 17.4818 21.2293 17.1069V7.30168C21.2293 6.93281 21.1295 6.65162 20.9299 6.45812C20.7364 6.26461 20.4583 6.16786 20.0955 6.16786H3.90454C3.54172 6.16786 3.26356 6.26461 3.07005 6.45812C2.87655 6.65162 2.7798 6.93281 2.7798 7.30168V17.1069C2.7798 17.4818 2.87655 17.7661 3.07005 17.9596C3.26356 18.1531 3.54172 18.2498 3.90454 18.2498ZM11.9955 14.8484C11.6508 14.8484 11.3273 14.7879 11.0249 14.667C10.7286 14.54 10.4263 14.3344 10.1179 14.0502L1.73669 6.51254L3.07005 5.1701L11.2789 12.5717C11.5147 12.7833 11.7536 12.8891 11.9955 12.8891C12.2434 12.8891 12.4853 12.7833 12.7211 12.5717L20.9299 5.1701L22.2633 6.51254L13.8821 14.0502C13.5737 14.3344 13.2684 14.54 12.966 14.667C12.6697 14.7879 12.3462 14.8484 11.9955 14.8484ZM3.25146 18.8575L1.90903 17.5151L8.26747 11.1567L9.62805 12.4719L3.25146 18.8575ZM20.7576 18.8666L14.3719 12.4719L15.7325 11.1567L22.1 17.5151L20.7576 18.8666Z" fill="white"/>
</svg>
