<svg width="14" height="13" viewBox="0 0 14 13" fill="none" xmlns="http://www.w3.org/2000/svg">
<path d="M2.68535 12.8641C2.84551 12.9797 3.0221 13.0216 3.21512 12.9897C3.41225 12.9578 3.61964 12.8641 3.8373 12.7086L6.99748 10.4539L10.1638 12.7086C10.3815 12.8641 10.5868 12.9578 10.7798 12.9897C10.977 13.0216 11.1556 12.9797 11.3158 12.8641C11.4718 12.7484 11.5663 12.5949 11.5991 12.4036C11.632 12.2162 11.6053 11.9989 11.5191 11.7517L10.2685 8.14545L13.4595 5.92668C13.6813 5.77119 13.8353 5.60971 13.9215 5.44226C14.0119 5.27082 14.0242 5.0934 13.9585 4.90999C13.8969 4.73058 13.7799 4.59701 13.6074 4.5093C13.4349 4.42159 13.2111 4.37972 12.9359 4.38371L9.02419 4.40763L7.83527 0.777466C7.75313 0.526284 7.64225 0.334908 7.50262 0.203337C7.36299 0.067779 7.19461 0 6.99748 0C6.80446 0 6.63814 0.067779 6.49851 0.203337C6.35887 0.334908 6.24799 0.526284 6.16585 0.777466L4.97694 4.40763L1.05905 4.38371C0.788005 4.37972 0.566238 4.42159 0.393753 4.5093C0.221268 4.59701 0.104224 4.73058 0.0426219 4.90999C-0.0230869 5.0934 -0.0128199 5.27082 0.0734229 5.44226C0.163772 5.60971 0.319831 5.77119 0.541598 5.92668L3.73258 8.14545L2.48206 11.7517C2.39582 11.9989 2.36912 12.2162 2.40198 12.4036C2.43483 12.5949 2.52929 12.7484 2.68535 12.8641Z" fill="#EDA41B"/>
</svg>
