<svg width="15" height="13" viewBox="0 0 15 13" fill="none" xmlns="http://www.w3.org/2000/svg">
<path fill-rule="evenodd" clip-rule="evenodd" d="M10.772 0.866211C11.1915 0.866211 11.5936 1.034 11.8887 1.33221L14.3046 3.77351C14.8933 4.36839 14.9123 5.3203 14.3479 5.93822L8.65984 12.1651C8.03687 12.8471 6.96283 12.8471 6.33986 12.1651L0.651831 5.93822C0.0873867 5.3203 0.106408 4.36839 0.695087 3.77351L3.11096 1.33221C3.40606 1.034 3.80816 0.866211 4.2277 0.866211H7.49985H10.772ZM13.261 4.98345H10.7768C10.7694 5.23992 10.7152 5.49594 10.6135 5.7384L8.94888 9.70405L13.261 4.98345ZM6.05069 9.70392L4.38617 5.7384C4.2844 5.49594 4.23019 5.23992 4.22284 4.98345H1.73873L6.05069 9.70392ZM12.4068 3.91203L10.8606 2.34961C10.8372 2.32595 10.8053 2.31263 10.772 2.31263H9.63537L10.5148 3.90393L10.5192 3.91203H12.4068ZM8.41122 2.31263H7.49985H6.58841L5.70451 3.91203H9.29512L8.41122 2.31263ZM5.36426 2.31263H4.2277C4.1944 2.31263 4.1625 2.32595 4.13908 2.34961L2.59294 3.91203H4.48038L4.48483 3.90393L5.36426 2.31263ZM9.62553 5.32372L7.49982 10.388L5.3741 5.32372C5.32815 5.21426 5.30193 5.09917 5.29517 4.98345H9.70446C9.6977 5.09917 9.67148 5.21426 9.62553 5.32372Z" fill="#06806B"/>
</svg>
