<svg width="17" height="16" viewBox="0 0 17 16" fill="none" xmlns="http://www.w3.org/2000/svg">
<path fill-rule="evenodd" clip-rule="evenodd" d="M6.16667 5.66732C6.16667 4.37865 7.21134 3.33398 8.5 3.33398C9.78866 3.33398 10.8333 4.37865 10.8333 5.66732C10.8333 6.95598 9.78866 8.00065 8.5 8.00065C7.21134 8.00065 6.16667 6.95598 6.16667 5.66732ZM2.5 7.00065C2.5 6.08018 3.24619 5.33398 4.16667 5.33398C4.40667 5.33398 4.63333 5.38732 4.83333 5.48065V5.66732C4.83333 6.46732 5.09333 7.24065 5.58 7.87398C5.42667 8.11398 5.22 8.31398 4.97333 8.45398C4.73333 8.58732 4.46 8.66732 4.16667 8.66732C3.87333 8.66732 3.6 8.58732 3.36 8.45398C2.85333 8.16732 2.5 7.62732 2.5 7.00065ZM12.8333 5.33398C12.5933 5.33398 12.3666 5.38732 12.1666 5.48065V5.66732C12.1666 6.46732 11.9066 7.24065 11.4199 7.87398C11.4999 8.00065 11.5866 8.10065 11.6866 8.20065C11.7933 8.30065 11.8999 8.38732 12.0266 8.45398C12.2666 8.58732 12.5399 8.66732 12.8333 8.66732C13.1266 8.66732 13.3999 8.58732 13.6399 8.45398C14.1466 8.16732 14.4999 7.62732 14.4999 7.00065C14.4999 6.08018 13.7537 5.33398 12.8333 5.33398ZM3.83333 11.6673C3.83333 10.114 6.94 9.33398 8.5 9.33398C10.06 9.33398 13.1667 10.114 13.1667 11.6673V12.6673H3.83333V11.6673ZM3.64 9.70052C2.35333 9.85385 0.5 10.5072 0.5 11.6672V12.6672H2.5V11.3805C2.5 10.7072 2.96 10.1472 3.64 9.70052ZM14.5 11.3805C14.5 10.7072 14.04 10.1472 13.36 9.70052C14.6467 9.85385 16.5 10.5072 16.5 11.6672V12.6672H14.5V11.3805Z" fill="#373737"/>
</svg>
