<svg xmlns="http://www.w3.org/2000/svg" width="24" height="24" viewBox="0 0 24 24">
    <g fill="none" fill-rule="evenodd">
        <path d="M0 0H24V24H0z"/>
        <g fill="#878787" fill-rule="nonzero">
            <path d="M3 10.476c.552 0 1 .448 1 1 0 .513-.386.936-.883.993L3 12.476H1c-.552 0-1-.448-1-1 0-.513.386-.935.883-.993L1 10.476h2zM3.498 3.379c.351-.37.918-.41 1.317-.115l.097.08 1.414 1.347c.4.381.415 1.014.034 1.414-.351.37-.918.41-1.317.115l-.097-.08-1.414-1.347c-.4-.381-.415-1.014-.034-1.414zM12 0c.513 0 .936.386.993.883L13 1v1.905c0 .552-.448 1-1 1-.513 0-.936-.386-.993-.884L11 2.905V1c0-.552.448-1 1-1zM19.088 3.344c.4-.38 1.033-.365 1.414.035.352.37.366.937.051 1.322l-.085.092-1.414 1.346c-.4.381-1.033.366-1.414-.034-.352-.37-.366-.937-.051-1.322l.085-.092 1.414-1.347zM23 10.476c.552 0 1 .448 1 1 0 .513-.386.936-.883.993l-.117.007h-2c-.552 0-1-.448-1-1 0-.513.386-.935.883-.993l.117-.007h2zM12 4.762c-3.856 0-7 2.995-7 6.714l.005.26c.1 2.51 1.648 4.71 3.941 5.776l.054.024V21c0 .552.448 1 1 1h4l.117-.007c.497-.057.883-.48.883-.993v-3.464l.054-.024C17.426 16.41 19 14.092 19 11.476c0-3.72-3.144-6.714-7-6.714zm0 2c2.772 0 5 2.121 5 4.714 0 1.999-1.339 3.767-3.32 4.434l-.117.049c-.341.165-.563.513-.563.9V20h-2v-3.142c0-.43-.274-.81-.68-.948C8.338 15.243 7 13.475 7 11.476c0-2.593 2.228-4.714 5-4.714z" transform="translate(0 1)"/>
        </g>
    </g>
</svg>
