<svg width="42" height="40" viewBox="0 0 42 40" fill="none" xmlns="http://www.w3.org/2000/svg">
<path fill-rule="evenodd" clip-rule="evenodd" d="M41.3887 20.18V4C41.3887 1.79086 39.5978 0 37.3887 0H16.3087C17.0087 1.22 17.3887 2.6 17.3887 4H37.3887V17.9346C37.3887 17.9346 38.4559 18.1218 39.5195 18.7494C40.5832 19.377 41.3887 20.18 41.3887 20.18ZM27.3887 10V14H15.3887V40H11.3887V28H7.38867V40H3.38867V24H0.388672V14C0.388672 11.7909 2.17953 10 4.38867 10H27.3887ZM9.38867 8C11.5978 8 13.3887 6.20914 13.3887 4C13.3887 1.79086 11.5978 0 9.38867 0C7.17953 0 5.38867 1.79086 5.38867 4C5.38867 6.20914 7.17953 8 9.38867 8Z" fill="#5C5C5C"/>
</svg>
