<svg xmlns="http://www.w3.org/2000/svg" width="48" height="48" viewBox="0 0 48 48">
    <g fill="none" fill-rule="evenodd">
        <g>
            <g>
                <path d="M0 0H48V48H0z" transform="translate(-954.000000, -352.000000) translate(954.000000, 352.000000)"/>
                <g fill="#FFF" fill-rule="nonzero">
                    <path d="M40 20c0 11.046-8.954 20-20 20-5.304 0-10.391-2.107-14.142-5.858C2.108 30.392 0 25.304 0 20S2.107 9.609 5.858 5.858C9.608 2.108 14.696 0 20 0s10.391 2.107 14.142 5.858C37.892 9.608 40 14.696 40 20M8 22h16l-7 7 2.84 2.84L31.68 20 19.84 8.16 17 11l7 7H8v4z" transform="translate(-954.000000, -352.000000) translate(954.000000, 352.000000) translate(4.000000, 4.000000)"/>
                </g>
            </g>
        </g>
    </g>
</svg>
