<svg xmlns="http://www.w3.org/2000/svg" width="24" height="24" viewBox="0 0 24 24">
    <g fill="none" fill-rule="evenodd">
        <g>
            <g>
                <g>
                    <g>
                        <path d="M0 0H24V24H0z" transform="translate(-877 -468) translate(861 205) translate(0 255) translate(16 8)"/>
                        <g fill="#5C5C5C" fill-rule="nonzero">
                            <path d="M12 0c-1.933 0-3.5 1.567-3.5 3.5S10.067 7 12 7s3.5-1.567 3.5-3.5S13.933 0 12 0m0 2c.828 0 1.5.672 1.5 1.5S12.828 5 12 5s-1.5-.672-1.5-1.5S11.172 2 12 2M5.5 3C4.12 3 3 4.12 3 5.5c0 .94.53 1.75 1.29 2.18.36.2.77.32 1.21.32.44 0 .85-.12 1.21-.32.37-.21.68-.51.91-.87C6.89 5.86 6.5 4.7 6.5 3.5v-.28c-.3-.14-.64-.22-1-.22m13 0c-.36 0-.7.08-1 .22v.28c0 1.2-.39 2.36-1.12 3.31.12.19.25.34.4.49.16.15.32.28.51.38.36.2.77.32 1.21.32.44 0 .85-.12 1.21-.32C20.47 7.25 21 6.44 21 5.5 21 4.12 19.88 3 18.5 3M12 9c-2.34 0-7 1.17-7 3.5V14h14v-1.5c0-2.33-4.66-3.5-7-3.5m-7.29.55C2.78 9.78 0 10.76 0 12.5V14h3v-1.93c0-1.01.69-1.85 1.71-2.52m14.58 0c1.02.67 1.71 1.51 1.71 2.52V14h3v-1.5c0-1.74-2.78-2.72-4.71-2.95M12 11c1.53 0 3.24.5 4.23 1H7.77c.99-.5 2.7-1 4.23-1z" transform="translate(-877 -468) translate(861 205) translate(0 255) translate(16 8) translate(0 5)"/>
                        </g>
                    </g>
                </g>
            </g>
        </g>
    </g>
</svg>
