<svg xmlns="http://www.w3.org/2000/svg" width="24" height="24" viewBox="0 0 24 24">
    <g fill="none" fill-rule="evenodd">
        <g>
            <g>
                <g>
                    <g>
                        <path d="M0 0H24V24H0z" transform="translate(-877 -428) translate(861 205) translate(0 215) translate(16 8)"/>
                        <g fill="#5C5C5C" fill-rule="nonzero">
                            <path d="M21 10v8c0 1.105-.895 2-2 2H3c-1.105 0-2-.895-2-2v-8c-.552 0-1-.448-1-1V6c0-1.105.895-2 2-2h3.17C5.06 3.69 5 3.35 5 3c0-1.657 1.343-3 3-3 1 0 1.88.5 2.43 1.24v-.01L11 2l.57-.77v.01C12.12.5 13 0 14 0c1.657 0 3 1.343 3 3 0 .35-.06.69-.17 1H20c1.105 0 2 .895 2 2v3c0 .552-.448 1-1 1M3 18h7v-8H3v8m16 0v-8h-7v8h7M8 2c-.552 0-1 .448-1 1s.448 1 1 1 1-.448 1-1-.448-1-1-1m6 0c-.552 0-1 .448-1 1s.448 1 1 1 1-.448 1-1-.448-1-1-1M2 6v2h8V6H2m10 0v2h8V6h-8z" transform="translate(-877 -428) translate(861 205) translate(0 215) translate(16 8) translate(1 2)"/>
                        </g>
                    </g>
                </g>
            </g>
        </g>
    </g>
</svg>
