<svg xmlns="http://www.w3.org/2000/svg" width="24" height="24" viewBox="0 0 24 24">
    <g fill="none" fill-rule="evenodd">
        <g>
            <g>
                <path d="M0 0H24V24H0z" transform="translate(-940 -1029) translate(940 1029)"/>
                <g fill="#5C5C5C" fill-rule="nonzero">
                    <path d="M15 5h5v10h-5v2c0 .552.448 1 1 1h2v2h-2.5c-.55 0-1.5-.45-1.5-1 0 .55-.95 1-1.5 1H10v-2h2c.552 0 1-.448 1-1V3c0-.552-.448-1-1-1h-2V0h2.5c.55 0 1.5.45 1.5 1 0-.55.95-1 1.5-1H18v2h-2c-.552 0-1 .448-1 1v2M0 5h11v2H2v6h9v2H0V5m18 8V7h-3v6h3z" transform="translate(-940 -1029) translate(940 1029) translate(2 2)"/>
                </g>
            </g>
        </g>
    </g>
</svg>
