<svg width="16" height="16" xmlns="http://www.w3.org/2000/svg">
    <g fill="none" fill-rule="evenodd">
        <path d="M0 0h16v16H0z"/>
        <path d="M7.333 12h1.334v-1.333H7.333V12M8 1.333a6.667 6.667 0 1 0 0 13.334A6.667 6.667 0 0 0 8 1.333m0 12A5.34 5.34 0 0 1 2.667 8 5.34 5.34 0 0 1 8 2.667 5.34 5.34 0 0 1 13.333 8 5.34 5.34 0 0 1 8 13.333M8 4a2.667 2.667 0 0 0-2.667 2.667h1.334a1.333 1.333 0 0 1 2.666 0c0 1.333-2 1.166-2 3.333h1.334c0-1.5 2-1.667 2-3.333A2.667 2.667 0 0 0 8 4z" fill="#FFF" fill-rule="nonzero"/>
    </g>
</svg>
