<svg xmlns="http://www.w3.org/2000/svg" width="24" height="24" viewBox="0 0 24 24">
    <g fill="none" fill-rule="evenodd">
        <g>
            <g>
                <g>
                    <g>
                        <path d="M0 0H24V24H0z" transform="translate(-877 -388) translate(861 205) translate(0 175) translate(16 8)"/>
                        <g fill="#5C5C5C" fill-rule="nonzero">
                            <path d="M8 9c1.051 0 2.52.209 3.889.626-.68.403-1.294.905-1.824 1.489C9.397 10.982 8.697 10.9 8 10.9c-2.97 0-6.1 1.46-6.1 2.1v1.1h6.523l.185.46.11.258c.184.416.404.811.654 1.183L0 16v-3c0-2.67 5.33-4 8-4zm0-9c2.21 0 4 1.79 4 4s-1.79 4-4 4-4-1.79-4-4 1.79-4 4-4zm0 2c-1.1 0-2 .89-2 2 0 1.11.89 2 2 2 1.11 0 2-.9 2-2s-.89-2-2-2z" transform="translate(-877 -388) translate(861 205) translate(0 175) translate(16 8) translate(1 3)"/>
                            <g>
                                <path d="M6 3c.56 0 1 .44 1 1s-.44 1-1 1-1-.44-1-1 .44-1 1-1m0-3C3.27 0 .94 1.66 0 4c.94 2.34 3.27 4 6 4s5.06-1.66 6-4c-.94-2.34-3.27-4-6-4m0 6.5C4.62 6.5 3.5 5.38 3.5 4S4.62 1.5 6 1.5 8.5 2.62 8.5 4 7.38 6.5 6 6.5" transform="translate(-877 -388) translate(861 205) translate(0 175) translate(16 8) translate(1 3) translate(8 8) translate(2 2)"/>
                            </g>
                        </g>
                    </g>
                </g>
            </g>
        </g>
    </g>
</svg>
