<svg xmlns="http://www.w3.org/2000/svg" width="24" height="24" viewBox="0 0 24 24">
    <g fill="none" fill-rule="evenodd">
        <g>
            <g>
                <g>
                    <g>
                        <path d="M0 0H24V24H0z" transform="translate(-877 -268) translate(861 205) translate(0 55) translate(16 8)"/>
                        <g fill="#5C5C5C" fill-rule="nonzero">
                            <path d="M13.5 10c2.5 0 4.5 2 4.5 4.5 0 .88-.25 1.7-.69 2.4l3.08 3.1L19 21.39l-3.12-3.07c-.69.43-1.51.68-2.38.68C11 19 9 17 9 14.5s2-4.5 4.5-4.5m0 2c-1.38 0-2.5 1.12-2.5 2.5s1.12 2.5 2.5 2.5 2.5-1.12 2.5-2.5-1.12-2.5-2.5-2.5m4-12c.276 0 .5.224.5.5v9.31c-.58-.55-1.25-1-2-1.31V2.7l-3 1.16V8c-.7.07-1.38.24-2 .5V3.87l-4-1.4V14.5c0 .64.09 1.26.26 1.84L6 15.9.66 17.97.5 18c-.276 0-.5-.224-.5-.5V2.38c0-.23.15-.41.36-.48L6 0l6 2.1L17.34.03 17.5 0M2 3.46v11.85l3-1.16V2.45L2 3.46z" transform="translate(-877 -268) translate(861 205) translate(0 55) translate(16 8) translate(2 2)"/>
                        </g>
                    </g>
                </g>
            </g>
        </g>
    </g>
</svg>
