<svg width="24" height="24" viewBox="0 0 24 24" xmlns="http://www.w3.org/2000/svg">
    <g fill="none" fill-rule="evenodd">
        <path d="M0 0h24v24H0z"/>
        <path d="M21 12.09V4a2 2 0 0 0-2-2H8.46c.35.61.54 1.3.54 2h10v6.967c.356.063.71.199 1.065.408.355.209.666.447.935.715zM14 7v2H8v13H6v-6H4v6H2v-8H.5V9a2 2 0 0 1 2-2H14M7 4a2 2 0 1 1-4 0 2 2 0 0 1 4 0zM17 15c.6 0 1 .4 1 1s-.4 1-1 1-1-.4-1-1 .4-1 1-1m0-3c-2.7 0-5.1 1.7-6 4 .9 2.3 3.3 4 6 4s5.1-1.7 6-4c-.9-2.3-3.3-4-6-4m0 6.5c-1.4 0-2.5-1.1-2.5-2.5s1.1-2.5 2.5-2.5 2.5 1.1 2.5 2.5-1.1 2.5-2.5 2.5" fill="#5C5C5C" fill-rule="nonzero"/>
    </g>
</svg>
