<svg xmlns="http://www.w3.org/2000/svg" width="24" height="24" viewBox="0 0 24 24">
    <g fill="none" fill-rule="evenodd">
        <g>
            <g>
                <g>
                    <g>
                        <path d="M0 0H24V24H0z" transform="translate(-877 -308) translate(861 205) translate(0 95) translate(16 8)"/>
                        <g fill="#5C5C5C" fill-rule="nonzero">
                            <g>
                                <path d="M16 2h-4.18C11.4.84 10.3 0 9 0 7.7 0 6.6.84 6.18 2H2C.895 2 0 2.895 0 4v14c0 1.105.895 2 2 2h14c1.105 0 2-.895 2-2V4c0-1.105-.895-2-2-2M9 2c.552 0 1 .448 1 1s-.448 1-1 1-1-.448-1-1 .448-1 1-1M4 6h10V4h2v14H2V4h2v2m.5 6.5L6 11l2 2 4.5-4.5L14 10l-6 6-3.5-3.5z" transform="translate(-877 -308) translate(861 205) translate(0 95) translate(16 8) translate(3 2)"/>
                            </g>
                        </g>
                    </g>
                </g>
            </g>
        </g>
    </g>
</svg>
