<svg width="18" height="18" xmlns="http://www.w3.org/2000/svg">
    <g fill="none" fill-rule="evenodd">
        <path d="M0 0h18v18H0z"/>
        <path d="M13.5 6h-.75V4.5C12.75 2.43 11.07.75 9 .75 6.93.75 5.25 2.43 5.25 4.5V6H4.5C3.675 6 3 6.675 3 7.5V15c0 .825.675 1.5 1.5 1.5h9c.825 0 1.5-.675 1.5-1.5V7.5c0-.825-.675-1.5-1.5-1.5zM9 12.75c-.825 0-1.5-.675-1.5-1.5s.675-1.5 1.5-1.5 1.5.675 1.5 1.5-.675 1.5-1.5 1.5zM11.325 6h-4.65V4.5A2.327 2.327 0 0 1 9 2.175 2.327 2.327 0 0 1 11.325 4.5V6z" fill="gray" fill-rule="nonzero"/>
    </g>
</svg>
