<svg xmlns="http://www.w3.org/2000/svg" width="24" height="24" viewBox="0 0 24 24">
    <g fill="none" fill-rule="evenodd">
        <g>
            <g>
                <path d="M0 0H24V24H0z" transform="translate(-218 -2041) translate(218 2041)"/>
                <g fill="#5C5C5C" fill-rule="nonzero">
                    <path d="M14 7h-1V5c0-2.76-2.24-5-5-5S3 2.24 3 5v2H2C.9 7 0 7.9 0 9v10c0 1.1.9 2 2 2h12c1.1 0 2-.9 2-2V9c0-1.1-.9-2-2-2zm-6 9c-1.1 0-2-.9-2-2s.9-2 2-2 2 .9 2 2-.9 2-2 2zm3.1-9H4.9V5c0-1.71 1.39-3.1 3.1-3.1 1.71 0 3.1 1.39 3.1 3.1v2z" transform="translate(-218 -2041) translate(218 2041) translate(4 1)"/>
                </g>
            </g>
        </g>
    </g>
</svg>
