<svg width="24" height="24" viewBox="0 0 24 24" xmlns="http://www.w3.org/2000/svg">
    <defs>
        <radialGradient cx="3.445%" cy="2.344%" fx="3.445%" fy="2.344%" r="143.311%" gradientTransform="matrix(.83333 0 0 1 .006 0)" id="b">
            <stop stop-color="#FFF" stop-opacity=".1" offset="0%"/>
            <stop stop-color="#FFF" stop-opacity="0" offset="100%"/>
        </radialGradient>
        <linearGradient x1="50.018%" y1="1.328%" x2="50.018%" y2="101.045%" id="a">
            <stop stop-color="#BF360C" stop-opacity=".2" offset="0%"/>
            <stop stop-color="#BF360C" stop-opacity=".02" offset="100%"/>
        </linearGradient>
    </defs>
    <g fill="none" fill-rule="evenodd">
        <path d="M0 0h24v24H0z"/>
        <g fill-rule="nonzero">
            <path fill="#0F9D58" d="M2.18 4.104h19.636v15.788H2.18z"/>
            <path d="M16.36 12.528c.68 0 1.228-.532 1.228-1.184 0-.652-.552-1.184-1.227-1.184-.676 0-1.227.532-1.227 1.184 0 .652.551 1.184 1.227 1.184zm0 .788c-1.313 0-2.727.672-2.727 1.504v.864h5.455v-.864c0-.832-1.413-1.504-2.727-1.504zm-8.725-.788c.68 0 1.227-.532 1.227-1.184 0-.652-.551-1.184-1.227-1.184-.675 0-1.227.532-1.227 1.184 0 .652.552 1.184 1.227 1.184zm0 .788c-1.314 0-2.727.672-2.727 1.504v.864h5.455v-.864c0-.832-1.414-1.504-2.728-1.504z" fill="#57BB8A"/>
            <path d="M12 11.472c.904 0 1.637-.708 1.633-1.58 0-.872-.734-1.58-1.637-1.576-.904 0-1.633.708-1.633 1.58 0 .872.733 1.576 1.637 1.576zm0 1.056c-1.84 0-3.818.944-3.818 2.104v1.052h7.636v-1.052c0-1.164-1.978-2.104-3.818-2.104z" fill="#F7F7F7"/>
            <path fill="#F1F1F1" d="M14.18 18.844h4.908v1.052H14.18z"/>
            <path d="M22.363 2H1.637C.734 2 0 2.708 0 3.58v16.844C0 21.292.734 22 1.637 22h20.726c.903 0 1.637-.708 1.637-1.58V3.58C23.996 2.708 23.266 2 22.363 2zm-.547 17.896H2.18V4.104h19.636v15.792z" fill="#F4B400"/>
            <path d="M22.363 2H1.637C.734 2 0 2.708 0 3.58v.132c0-.872.734-1.58 1.637-1.58h20.726c.903 0 1.637.708 1.637 1.58V3.58C23.996 2.708 23.266 2 22.363 2z" fill="#FFF" opacity=".2"/>
            <path d="M22.363 21.868H1.637C.734 21.868 0 21.16 0 20.288v.132C0 21.292.734 22 1.637 22h20.726c.903 0 1.637-.708 1.637-1.58v-.132c-.004.872-.734 1.58-1.637 1.58z" fill="#BF360C" opacity=".2"/>
            <path fill="url(#a)" d="M19.08 17.896h-4.908L16.352 20h4.904z" transform="translate(0 2)"/>
            <path fill="#263238" opacity=".2" d="M2.18 3.972h19.636v.132H2.18z"/>
            <path fill="#FFF" opacity=".2" d="M2.18 19.896h19.636v.132H2.18z"/>
            <path d="M22.363 0H1.637C.734 0 0 .708 0 1.58v16.844C0 19.292.734 20 1.637 20h20.726c.903 0 1.637-.708 1.637-1.58V1.58C23.996.708 23.266 0 22.363 0z" fill="url(#b)" transform="translate(0 2)"/>
        </g>
    </g>
</svg>
