<svg xmlns="http://www.w3.org/2000/svg" width="16" height="16" viewBox="0 0 16 16">
    <g fill="none" fill-rule="evenodd">
        <g>
            <g>
                <path d="M0 0H16V16H0z" transform="translate(-530 -714) translate(530 714)"/>
                <g fill="#5C5C5C" fill-rule="nonzero">
                    <path d="M6 10.667h1.333V9.333H6v1.334M6.667 0C2.985 0 0 2.985 0 6.667c0 1.768.702 3.463 1.953 4.714 1.25 1.25 2.946 1.952 4.714 1.952 1.768 0 3.463-.702 4.714-1.952 1.25-1.25 1.952-2.946 1.952-4.714 0-1.768-.702-3.464-1.952-4.714C10.13.703 8.435 0 6.667 0m0 12c-2.94 0-5.334-2.393-5.334-5.333 0-2.94 2.394-5.334 5.334-5.334C9.607 1.333 12 3.727 12 6.667 12 9.607 9.607 12 6.667 12m0-9.333C5.194 2.667 4 3.86 4 5.333h1.333C5.333 4.597 5.93 4 6.667 4 7.403 4 8 4.597 8 5.333 8 6.667 6 6.5 6 8.667h1.333c0-1.5 2-1.667 2-3.334 0-1.472-1.194-2.666-2.666-2.666z" transform="translate(-530 -714) translate(530 714) translate(1.333 1.333)"/>
                </g>
            </g>
        </g>
    </g>
</svg>
