<svg xmlns="http://www.w3.org/2000/svg" width="24" height="24" viewBox="0 0 24 24">
    <g fill="none" fill-rule="evenodd">
        <g>
            <g>
                <g>
                    <g>
                        <path d="M0 0H24V24H0z" transform="translate(-877 -508) translate(861 205) translate(0 295) translate(16 8)"/>
                        <g fill="#5C5C5C" fill-rule="nonzero">
                            <path d="M23 0H1C.448 0 0 .448 0 1v18c0 .552.448 1 1 1h22c.552 0 1-.448 1-1V1c0-.552-.448-1-1-1m-1 18h-2v-1h-5v1H2V2h20v16M10.29 7.71c0-.944.766-1.71 1.71-1.71.95 0 1.71.77 1.71 1.71 0 .95-.76 1.72-1.71 1.72s-1.71-.77-1.71-1.72M5.71 9.29C5.71 8.58 6.29 8 7 8c.712 0 1.29.578 1.29 1.29 0 .71-.58 1.28-1.29 1.28-.71 0-1.29-.57-1.29-1.28m10 0c0-.712.578-1.29 1.29-1.29.712 0 1.29.578 1.29 1.29 0 .71-.58 1.28-1.29 1.28-.71 0-1.29-.57-1.29-1.28M20 13.14V14H4v-.86c0-.94 1.55-1.71 3-1.71.55 0 1.11.11 1.6.3.75-.69 2.1-1.16 3.4-1.16 1.3 0 2.65.47 3.4 1.16.49-.19 1.05-.3 1.6-.3 1.45 0 3 .77 3 1.71z" transform="translate(-877 -508) translate(861 205) translate(0 295) translate(16 8) translate(0 2)"/>
                        </g>
                    </g>
                </g>
            </g>
        </g>
    </g>
</svg>
