<svg xmlns="http://www.w3.org/2000/svg" width="24" height="24" viewBox="0 0 24 24">
    <g fill="none" fill-rule="evenodd">
        <g>
            <g>
                <path d="M0 0H24V24H0z" transform="translate(-803 -905) translate(803 905)"/>
                <g fill="#5C5C5C" fill-rule="nonzero">
                    <path d="M10 0l6 6v12c0 1.105-.895 2-2 2H2c-1.105 0-2-.895-2-2V2C0 .895.895 0 2 0h8m4 18V7H9V2H2v16h12m-6-1l-4-4h2.5v-3h3v3H12l-4 4z" transform="translate(-803 -905) translate(803 905) translate(4 2)"/>
                </g>
            </g>
        </g>
    </g>
</svg>
