<svg xmlns="http://www.w3.org/2000/svg" width="24" height="24" viewBox="0 0 24 24">
    <g fill="none" fill-rule="evenodd">
        <g>
            <g>
                <path d="M0 0H24V24H0z" transform="translate(-803 -809) translate(803 809)"/>
                <g fill="#5C5C5C" fill-rule="nonzero">
                    <path d="M21.48 5.98C19.054 3.313 15.032.493 11 .55 6.967.492 2.945 3.314.52 5.98c-.687.77-.687 1.933 0 2.703 2.397 2.639 6.361 5.434 10.332 5.434h.283c3.985 0 7.948-2.795 10.347-5.435.687-.77.686-1.933-.003-2.702zM6.782 7.333c0-2.328 1.888-4.216 4.217-4.216 2.329 0 4.217 1.888 4.217 4.216 0 2.33-1.888 4.217-4.217 4.217-2.329 0-4.217-1.888-4.217-4.217z" transform="translate(-803 -809) translate(803 809) translate(1 4)"/>
                    <path d="M12.296 6.037c.716.716.716 1.877 0 2.593s-1.876.716-2.592 0c-.716-.716-.716-1.877 0-2.593s1.876-.716 2.592 0" transform="translate(-803 -809) translate(803 809) translate(1 4)"/>
                </g>
            </g>
        </g>
    </g>
</svg>
