<svg xmlns="http://www.w3.org/2000/svg" width="24" height="24" viewBox="0 0 24 24">
    <g fill="none" fill-rule="evenodd">
        <g>
            <g>
                <path d="M0 0H24V24H0z" transform="translate(-234 -1148) translate(234 1148)"/>
                <g fill="#5C5C5C" fill-rule="nonzero">
                    <path d="M12 6c1.657 0 3-1.343 3-3s-1.343-3-3-3-3 1.343-3 3 1.343 3 3 3m0-4c.552 0 1 .448 1 1s-.448 1-1 1-1-.448-1-1 .448-1 1-1m4.11 3.86c1.198-1.718 1.198-4.002 0-5.72.288-.093.588-.14.89-.14 1.657 0 3 1.343 3 3s-1.343 3-3 3c-.302 0-.602-.047-.89-.14M12 8c-6 0-6 4-6 4v2h12v-2s0-4-6-4m-4 4c0-.29.32-2 4-2 3.5 0 3.94 1.56 4 2m7 0v2h-3v-2c-.047-1.502-.696-2.921-1.8-3.94C23 8.55 23 12 23 12M6.34 3.92L7.5 5.33l-4.75 4.75-2.75-3 1.16-1.16L2.75 7.5l3.59-3.58" transform="translate(-234 -1148) translate(234 1148) translate(0 5)"/>
                </g>
            </g>
        </g>
    </g>
</svg>
