<svg width="22" height="23" viewBox="0 0 22 23" fill="none" xmlns="http://www.w3.org/2000/svg">
<path d="M10.9956 20.7812C12.2729 20.7812 13.4712 20.5381 14.5903 20.0518C15.7095 19.5713 16.6938 18.9033 17.5435 18.0479C18.3989 17.1982 19.0698 16.2139 19.5562 15.0947C20.0425 13.9756 20.2856 12.7773 20.2856 11.5C20.2856 10.2285 20.0425 9.0332 19.5562 7.91406C19.0698 6.79492 18.3989 5.80762 17.5435 4.95215C16.6938 4.09668 15.7065 3.42871 14.5815 2.94824C13.4624 2.46191 12.2671 2.21875 10.9956 2.21875C9.72412 2.21875 8.52588 2.46191 7.40088 2.94824C6.28174 3.42871 5.29443 4.09668 4.43896 4.95215C3.58936 5.80762 2.92139 6.79492 2.43506 7.91406C1.95459 9.0332 1.71436 10.2285 1.71436 11.5C1.71436 12.7773 1.95459 13.9756 2.43506 15.0947C2.92139 16.2139 3.59229 17.1982 4.44775 18.0479C5.30322 18.9033 6.29053 19.5713 7.40967 20.0518C8.52881 20.5381 9.72412 20.7812 10.9956 20.7812ZM9.33447 16.457C9.09424 16.457 8.88916 16.3809 8.71924 16.2285C8.55518 16.0703 8.47314 15.8652 8.47314 15.6133C8.47314 15.3848 8.55518 15.1914 8.71924 15.0332C8.88916 14.8691 9.09424 14.7871 9.33447 14.7871H10.354V11.5703H9.51025C9.27002 11.5703 9.06494 11.4941 8.89502 11.3418C8.73096 11.1836 8.64893 10.9814 8.64893 10.7354C8.64893 10.501 8.73096 10.3047 8.89502 10.1465C9.06494 9.98242 9.27002 9.90039 9.51025 9.90039H11.3032C11.6138 9.90039 11.8481 10 12.0063 10.1992C12.1646 10.3926 12.2437 10.6533 12.2437 10.9814V14.7871H13.0698C13.3101 14.7871 13.5122 14.8691 13.6763 15.0332C13.8462 15.1914 13.9312 15.3848 13.9312 15.6133C13.9312 15.8652 13.8462 16.0703 13.6763 16.2285C13.5122 16.3809 13.3101 16.457 13.0698 16.457H9.33447ZM10.9868 8.64355C10.6118 8.64355 10.2896 8.50879 10.02 8.23926C9.75049 7.96387 9.61572 7.6416 9.61572 7.27246C9.61572 6.87988 9.75049 6.55176 10.02 6.28809C10.2896 6.01855 10.6118 5.88379 10.9868 5.88379C11.3618 5.88379 11.6812 6.01855 11.9448 6.28809C12.2144 6.55176 12.3491 6.87988 12.3491 7.27246C12.3491 7.6416 12.2144 7.96387 11.9448 8.23926C11.6812 8.50879 11.3618 8.64355 10.9868 8.64355Z" fill="black"/>
</svg>
