<svg width="49" height="44" viewBox="0 0 49 44" fill="none" xmlns="http://www.w3.org/2000/svg">
<path d="M6.38867 20.9531C7.49324 20.9531 8.38867 21.8486 8.38867 22.9531C8.38867 23.9788 7.61659 24.8241 6.62191 24.9397L6.38867 24.9531H2.38867C1.2841 24.9531 0.388672 24.0577 0.388672 22.9531C0.388672 21.9275 1.16075 21.0821 2.15543 20.9666L2.38867 20.9531H6.38867Z" fill="#5C5C5C"/>
<path d="M7.38376 6.75741C8.08693 6.01908 9.21971 5.93598 10.0189 6.52671L10.2113 6.68845L13.0393 9.38178C13.8392 10.1436 13.8701 11.4095 13.1083 12.2094C12.4051 12.9477 11.2724 13.0308 10.4731 12.4401L10.2807 12.2783L7.45272 9.585C6.65286 8.82323 6.62199 7.55727 7.38376 6.75741Z" fill="#5C5C5C"/>
<path d="M24.3887 0C25.4143 0 26.2597 0.77208 26.3752 1.76676L26.3887 2V5.80952C26.3887 6.91409 25.4932 7.80952 24.3887 7.80952C23.363 7.80952 22.5177 7.03744 22.4021 6.04277L22.3887 5.80952V2C22.3887 0.89543 23.2841 0 24.3887 0Z" fill="#5C5C5C"/>
<path d="M38.5659 6.68845C39.3657 5.92667 40.6317 5.95755 41.3935 6.75741C42.0966 7.49575 42.1244 8.63122 41.4954 9.4007L41.3245 9.585L38.4965 12.2783C37.6966 13.0401 36.4307 13.0092 35.6689 12.2094C34.9657 11.471 34.938 10.3356 35.567 9.56608L35.7379 9.38178L38.5659 6.68845Z" fill="#5C5C5C"/>
<path d="M46.3887 20.9531C47.4932 20.9531 48.3887 21.8486 48.3887 22.9531C48.3887 23.9788 47.6166 24.8241 46.6219 24.9397L46.3887 24.9531H42.3887C41.2841 24.9531 40.3887 24.0577 40.3887 22.9531C40.3887 21.9275 41.1608 21.0821 42.1554 20.9666L42.3887 20.9531H46.3887Z" fill="#5C5C5C"/>
<path fill-rule="evenodd" clip-rule="evenodd" d="M10.3887 22.952C10.3887 15.5126 16.6773 9.52344 24.3887 9.52344C32.1 9.52344 38.3887 15.5126 38.3887 22.952C38.3887 28.1842 35.2404 32.8193 30.4967 35.0243L30.3887 35.0716V41.9996C30.3887 43.0253 29.6166 43.8706 28.6219 43.9862L28.3887 43.9996H20.3887C19.2841 43.9996 18.3887 43.1042 18.3887 41.9996V35.0716L18.2806 35.0243C13.6951 32.8928 10.6003 28.4905 10.3991 23.4732L10.3887 22.952ZM34.3887 22.952C34.3887 17.7666 29.9333 13.5234 24.3887 13.5234C18.844 13.5234 14.3887 17.7666 14.3887 22.952C14.3887 26.9488 17.0657 30.4856 21.0273 31.8205C21.8408 32.0946 22.3887 32.8574 22.3887 33.7158V39.9996H26.3887V33.7158C26.3887 32.9432 26.8324 32.2481 27.5142 31.917L27.75 31.8205C31.7116 30.4856 34.3887 26.9488 34.3887 22.952Z" fill="#5C5C5C"/>
</svg>
