<svg width="16" height="23" viewBox="0 0 16 23" fill="none" xmlns="http://www.w3.org/2000/svg">
<path d="M2.60301 22.5H13.3969C14.178 22.5 14.7565 22.3011 15.1326 21.9034C15.5159 21.5056 15.7075 20.8872 15.7075 20.0483V11.7061C15.7075 10.8744 15.5159 10.2597 15.1326 9.86193C14.7565 9.46417 14.178 9.26529 13.3969 9.26529L2.72234 9.27613C1.95574 9.27613 1.35909 9.47502 0.932398 9.87278C0.505705 10.2633 0.292358 10.8744 0.292358 11.7061V20.0483C0.292358 20.8872 0.484009 21.5056 0.867309 21.9034C1.25784 22.3011 1.83641 22.5 2.60301 22.5ZM2.20163 10.1331H4.80518V6.53156C4.80518 5.78665 4.9462 5.15385 5.22826 4.63314C5.51754 4.10519 5.90446 3.70381 6.38901 3.42899C6.87356 3.15417 7.41235 3.01677 8.00538 3.01677C8.59841 3.01677 9.1372 3.15417 9.62175 3.42899C10.1063 3.70381 10.4896 4.10519 10.7716 4.63314C11.0537 5.15385 11.1947 5.78665 11.1947 6.53156V10.1331H13.8091V6.69428C13.8091 5.65286 13.6464 4.74523 13.321 3.9714C12.9955 3.19034 12.558 2.54306 12.0083 2.02959C11.4587 1.51611 10.8367 1.13281 10.1425 0.879684C9.44818 0.626561 8.73582 0.5 8.00538 0.5C7.2677 0.5 6.55173 0.626561 5.85745 0.879684C5.1704 1.13281 4.55206 1.51611 4.00242 2.02959C3.45278 2.54306 3.01524 3.19034 2.68979 3.9714C2.36435 4.74523 2.20163 5.65286 2.20163 6.69428V10.1331Z" fill="black"/>
</svg>
