<svg width="15" height="15" viewBox="0 0 15 15" fill="none" xmlns="http://www.w3.org/2000/svg">
<path d="M6.28125 14.3281C6.6875 14.3281 7.00521 14.1589 7.23438 13.8203L14.5781 2.375C14.6562 2.25 14.7135 2.13281 14.75 2.02344C14.7865 1.90885 14.8047 1.79688 14.8047 1.6875C14.8047 1.41667 14.7188 1.19792 14.5469 1.03125C14.375 0.859375 14.1536 0.773438 13.8828 0.773438C13.6849 0.773438 13.5234 0.8125 13.3984 0.890625C13.2734 0.963542 13.151 1.09115 13.0312 1.27344L6.25 12.0469L2.75 7.55469C2.53125 7.26823 2.26302 7.125 1.94531 7.125C1.66927 7.125 1.4401 7.21354 1.25781 7.39062C1.08073 7.56771 0.992188 7.79167 0.992188 8.0625C0.992188 8.18229 1.01302 8.29948 1.05469 8.41406C1.10156 8.52865 1.17448 8.64583 1.27344 8.76562L5.32031 13.8281C5.58594 14.1615 5.90625 14.3281 6.28125 14.3281Z" fill="white"/>
</svg>
