<?xml version="1.0" encoding="UTF-8"?>
<svg width="24px" height="24px" viewBox="0 0 24 24" version="1.1" xmlns="http://www.w3.org/2000/svg" xmlns:xlink="http://www.w3.org/1999/xlink">
    <title>person-greeting</title>
    <g id="Public" stroke="none" stroke-width="1" fill="none" fill-rule="evenodd">
        <g id="Public---School-Closure-Support---Webinar" transform="translate(-179.000000, -16.000000)">
            <g id="person-greeting" transform="translate(179.000000, 16.000000)">
                <rect id="Rectangle" x="0" y="0" width="24" height="24"></rect>
                <g id="human-greeting" transform="translate(1.000000, 4.000000)" fill="#FFFFFF" fill-rule="nonzero">
                    <path d="M0.5,0 L0.5,1.5 C0.5,5.65 2.71,9.28 6,11.3 L6,16 L21,16 L21,14 C21,11.34 15.67,10 13,10 C13,10 12.83,10 12.75,10 C8,10 4,6 4,1.5 L4,0 M13,0 C10.790861,0 9,1.790861 9,4 C9,6.209139 10.790861,8 13,8 C15.209139,8 17,6.209139 17,4 C17,1.790861 15.209139,0 13,0 Z" id="Shape"></path>
                </g>
            </g>
        </g>
    </g>
</svg>