<svg width="44" height="43" viewBox="0 0 44 43" fill="none" xmlns="http://www.w3.org/2000/svg">
<path d="M21.9898 43C24.9474 43 27.7218 42.4367 30.3131 41.3101C32.9043 40.1971 35.1835 38.6498 37.1507 36.6681C39.1315 34.7 40.6849 32.4197 41.8109 29.8272C42.937 27.2347 43.5 24.459 43.5 21.5C43.5 18.5546 42.937 15.7857 41.8109 13.1932C40.6849 10.6007 39.1315 8.3136 37.1507 6.33191C35.1835 4.35022 32.8975 2.80287 30.2927 1.68987C27.7015 0.563289 24.9338 0 21.9898 0C19.0458 0 16.2714 0.563289 13.6666 1.68987C11.0753 2.80287 8.78932 4.35022 6.80857 6.33191C4.84138 8.3136 3.29476 10.6007 2.16872 13.1932C1.05624 15.7857 0.5 18.5546 0.5 21.5C0.5 24.459 1.05624 27.2347 2.16872 29.8272C3.29476 32.4197 4.84816 34.7 6.82892 36.6681C8.80967 38.6498 11.0957 40.1971 13.6869 41.3101C16.2782 42.4367 19.0458 43 21.9898 43ZM12.0182 21.5C12.0182 20.7942 12.2421 20.2173 12.6898 19.7694C13.151 19.3079 13.7209 19.0772 14.3992 19.0772H19.6089V13.8651C19.6089 13.1864 19.8327 12.6231 20.2804 12.1752C20.7281 11.7137 21.2979 11.483 21.9898 11.483C22.6817 11.483 23.2515 11.7137 23.6992 12.1752C24.1605 12.6231 24.3911 13.1864 24.3911 13.8651V19.0772H29.6212C30.2995 19.0772 30.8625 19.3079 31.3102 19.7694C31.7579 20.2173 31.9818 20.7942 31.9818 21.5C31.9818 22.1787 31.7579 22.7487 31.3102 23.2102C30.8625 23.6581 30.2995 23.8821 29.6212 23.8821H24.3911V29.0942C24.3911 29.7729 24.1605 30.3362 23.6992 30.7841C23.2515 31.232 22.6817 31.456 21.9898 31.456C21.2979 31.456 20.7281 31.232 20.2804 30.7841C19.8327 30.3362 19.6089 29.7729 19.6089 29.0942V23.8821H14.3992C13.7209 23.8821 13.151 23.6581 12.6898 23.2102C12.2421 22.7487 12.0182 22.1787 12.0182 21.5Z" fill="#666666"/>
</svg>
