<svg xmlns="http://www.w3.org/2000/svg" width="32" height="32" viewBox="0 0 32 32">
    <g fill="none" fill-rule="evenodd">
        <path d="M0 0H32V32H0z"/>
        <path fill="#878787" fill-rule="nonzero" d="M13.012 7.132c.443.516.422 1.273-.024 1.764l-.12.116-6.599 5.655h23.064c.737 0 1.334.597 1.334 1.333 0 .684-.515 1.247-1.178 1.324l-.156.01-23.064-.001 6.599 5.655c.516.442.61 1.193.245 1.746l-.1.134c-.443.516-1.194.61-1.747.245l-.134-.1-9.333-8-.019-.017c-.021-.02-.042-.039-.062-.06l.08.076c-.038-.033-.075-.068-.109-.105l-.061-.071c-.081-.1-.145-.208-.192-.322l-.013-.031c-.01-.029-.021-.058-.03-.088l-.01-.03-.023-.098-.005-.028-.012-.078-.006-.058-.003-.066v-.064l.003-.066-.004.093c0-.054.004-.108.01-.16l.01-.07.013-.063.013-.054.022-.074.017-.05.03-.07c.01-.024.021-.048.034-.071l.015-.028c.014-.027.03-.053.046-.08.01-.012.018-.025.027-.038.016-.025.034-.049.053-.072l.023-.028c.012-.015.024-.029.037-.042l.018-.02c.036-.037.075-.073.115-.107l9.316-7.985c.56-.48 1.401-.415 1.88.144z"/>
    </g>
</svg>
