<svg xmlns="http://www.w3.org/2000/svg" width="24" height="24" viewBox="0 0 24 24">
    <g fill="none" fill-rule="evenodd">
        <path d="M0 0h24v24H0z"/>
        <path fill="#878787" fill-rule="nonzero" d="M1.102 12.44l-.024-.052A.993.993 0 0 1 1 11.96L1 12a1.003 1.003 0 0 1 .262-.675l.01-.011.06-.058.017-.015 7-6a1 1 0 0 1 1.392 1.43l-.09.088L4.702 11H22a1 1 0 0 1 .117 1.993L22 13H4.702l4.949 4.24a1 1 0 0 1 .184 1.31l-.076.1a1 1 0 0 1-1.31.185l-.1-.076-7-6-.014-.012a1.006 1.006 0 0 1-.069-.068l.083.08a1.013 1.013 0 0 1-.236-.296l-.011-.023z"/>
    </g>
</svg>
