<?xml version="1.0" encoding="UTF-8"?>
<svg width="30px" height="30px" viewBox="0 0 30 30" version="1.1" xmlns="http://www.w3.org/2000/svg" xmlns:xlink="http://www.w3.org/1999/xlink">
    <!-- Generator: Sketch 43.2 (39069) - http://www.bohemiancoding.com/sketch -->
    <title>Group 13</title>
    <desc>Created with Sketch.</desc>
    <defs></defs>
    <g id="10-Teacher-Dashboard:-Acitivity-Planner" stroke="none" stroke-width="1" fill="none" fill-rule="evenodd">
        <g id="10_01-Assign-A-New-Activity" transform="translate(-546.000000, -788.000000)" fill="#969696">
            <g id="Group-14-Copy" transform="translate(511.000000, 762.000000)">
                <g id="Group-13" transform="translate(35.000000, 26.000000)">
                    <path d="M29.244498,5.53611266 C28.9838498,5.53611266 28.6917223,5.64026771 28.3693748,5.8485778 C27.2965619,6.54503625 26.1771598,6.88134412 24.9431731,6.88134412 C22.8680609,6.88134412 20.7186576,5.91132181 18.641027,4.97141662 C16.4954013,4.00264919 14.2805212,3 12.0568269,3 C10.6868499,3 9.44153071,3.37520915 8.25539253,4.14319576 C7.58551407,4.57361963 7,5.62269939 7,6.38943112 L7,17.6130786 C7,18.2430284 7.40797109,18.4651422 7.75550203,18.4651422 C8.01363188,18.4651422 8.30827767,18.3622421 8.63062521,18.1551868 C9.6984014,17.4587284 10.8215811,17.1211656 12.0568269,17.1211656 C14.1331983,17.1211656 16.278824,18.0924428 18.3577138,19.0310931 C20.5045987,19.9973508 22.7182196,21 24.9406548,21 C26.3131501,21 27.5572101,20.6273006 28.74083,19.8568042 C29.4119676,19.4263804 30,18.3773006 30,17.6130786 L30,6.38943112 C30,5.7607362 29.5907697,5.53611266 29.244498,5.53611266" id="Fill-42"></path>
                    <path d="M2.5,0 C1.12231535,0 4.4408921e-16,1.04901961 4.4408921e-16,2.34068627 C4.4408921e-16,3.1004902 0.388947093,3.77328431 0.990047145,4.20098039 C0.990047145,4.23406863 0.9848088,4.26348039 0.9848088,4.29534314 L0.9848088,28.5857843 C0.9848088,29.3664216 1.66186485,30 2.49345207,30 L2.50654793,30 C3.33682556,30 4.0151912,29.3664216 4.0151912,28.5857843 L4.0151912,4.29534314 C4.0151912,4.26348039 4.01388161,4.23406863 4.01257203,4.20098039 C4.61105291,3.77328431 5,3.1004902 5,2.34068627 C5,1.04901961 3.88030382,0 2.5,0" id="Fill-44"></path>
                </g>
            </g>
        </g>
    </g>
</svg>