<?xml version="1.0" encoding="UTF-8"?>
<svg width="23px" height="22px" viewBox="0 0 23 22" version="1.1" xmlns="http://www.w3.org/2000/svg" xmlns:xlink="http://www.w3.org/1999/xlink">
    <!-- Generator: Sketch 48.2 (47327) - http://www.bohemiancoding.com/sketch -->
    <title>Group 3</title>
    <desc>Created with Sketch.</desc>
    <defs></defs>
    <g id="10_03-Explore-All-Activities" stroke="none" stroke-width="1" fill="none" fill-rule="evenodd" transform="translate(-517.000000, -593.000000)">
        <g id="Group-3" transform="translate(517.000000, 593.000000)" fill="#3B3B3B">
            <path d="M21.6955615,2.76857955 C21.51165,2.76857955 21.3055269,2.84121296 21.0780808,2.98647976 C20.3211115,3.47216093 19.5312692,3.70668806 18.6605769,3.70668806 C17.1963923,3.70668806 15.6797885,3.03023482 14.2138269,2.37478401 C12.6998885,1.69920587 11.1370846,1 9.56806154,1 C8.60141538,1 7.72272692,1.26165526 6.88579615,1.79721721 C6.41313462,2.09737692 6,2.82896154 6,3.36364838 L6,11.1905536 C6,11.6298545 6.28786154,11.7847474 6.53307692,11.7847474 C6.71521154,11.7847474 6.92311154,11.7129891 7.15055769,11.5685974 C7.90397308,11.0829162 8.69648077,10.847514 9.56806154,10.847514 C11.0331346,10.847514 12.5470731,11.5248423 14.0139231,12.179418 C15.52875,12.853246 17.0906654,13.5524518 18.6588,13.5524518 C19.6272231,13.5524518 20.5050231,13.2925468 21.3401769,12.7552346 C21.8137269,12.4550749 22.2286385,11.7234903 22.2286385,11.1905536 L22.2286385,3.36364838 C22.2286385,2.92522267 21.9398885,2.76857955 21.6955615,2.76857955" id="Fill-42"></path>
            <path d="M1.69607308,0 C0.761411538,0 0,0.74908664 0,1.67144332 C0,2.21400607 0.263873077,2.69443664 0.671676923,2.99984696 C0.671676923,3.0234747 0.668123077,3.04447713 0.668123077,3.06722976 L0.668123077,20.4126109 C0.668123077,20.9700504 1.12745769,21.4224777 1.69163077,21.4224777 L1.70051538,21.4224777 C2.2638,21.4224777 2.72402308,20.9700504 2.72402308,20.4126109 L2.72402308,3.06722976 C2.72402308,3.04447713 2.72313462,3.0234747 2.72224615,2.99984696 C3.12827308,2.69443664 3.39214615,2.21400607 3.39214615,1.67144332 C3.39214615,0.74908664 2.63251154,0 1.69607308,0" id="Fill-44"></path>
        </g>
    </g>
</svg>