<svg width="12" height="12" viewBox="0 0 12 12" fill="none" xmlns="http://www.w3.org/2000/svg">
<path d="M5.99716 12C6.82253 12 7.59678 11.8428 8.31992 11.5284C9.04307 11.2178 9.67913 10.786 10.2281 10.233C10.7809 9.68371 11.2144 9.04735 11.5286 8.32386C11.8429 7.60038 12 6.82576 12 6C12 5.17803 11.8429 4.4053 11.5286 3.68182C11.2144 2.95833 10.7809 2.32008 10.2281 1.76705C9.67913 1.21402 9.04117 0.782197 8.31425 0.471591C7.5911 0.157197 6.81874 0 5.99716 0C5.17558 0 4.40133 0.157197 3.6744 0.471591C2.95125 0.782197 2.3133 1.21402 1.76053 1.76705C1.21155 2.32008 0.779934 2.95833 0.465689 3.68182C0.15523 4.4053 0 5.17803 0 6C0 6.82576 0.15523 7.60038 0.465689 8.32386C0.779934 9.04735 1.21344 9.68371 1.76621 10.233C2.31898 10.786 2.95693 11.2178 3.68008 11.5284C4.40322 11.8428 5.17558 12 5.99716 12ZM5.37246 8.84659C5.24373 8.84659 5.12825 8.82008 5.02603 8.76705C4.92381 8.71023 4.82726 8.62689 4.73639 8.51705L3.40748 6.92614C3.34311 6.84659 3.29579 6.76894 3.2655 6.69318C3.23521 6.61742 3.22007 6.53788 3.22007 6.45455C3.22007 6.2803 3.28254 6.13258 3.40748 6.01136C3.53242 5.88636 3.68008 5.82386 3.85045 5.82386C3.95646 5.82386 4.04922 5.8447 4.12873 5.88636C4.21202 5.92803 4.29153 5.99621 4.36725 6.09091L5.3611 7.30682L7.57028 3.78977C7.72172 3.54735 7.90913 3.42614 8.13251 3.42614C8.30289 3.42614 8.45244 3.48295 8.58116 3.59659C8.71368 3.71023 8.77993 3.85417 8.77993 4.02841C8.77993 4.10038 8.76479 4.17424 8.7345 4.25C8.708 4.32576 8.67203 4.39962 8.6266 4.47159L5.9858 8.50568C5.91008 8.61553 5.81921 8.70076 5.7132 8.76136C5.61098 8.81818 5.4974 8.84659 5.37246 8.84659Z" fill="#06806B"/>
</svg>
