<svg width="30" height="36" viewBox="0 0 30 36" fill="none" xmlns="http://www.w3.org/2000/svg">
<path fill-rule="evenodd" clip-rule="evenodd" d="M23.7893 2.1233C24.4338 2.1233 25.0979 2.28059 25.7229 2.59517C27.8127 3.67654 28.6331 6.2325 27.5588 8.33626L25.4493 12.4775C25.1914 12.3435 24.8742 12.3277 24.5901 12.4649L20.8628 14.2121L24.258 7.54987C24.4924 7.078 24.3166 6.48816 23.8283 6.23256C23.3596 5.99663 22.7736 6.17358 22.5197 6.66511L19.167 13.2441L18.4182 9.27981C18.3614 8.97119 18.166 8.72237 17.9087 8.58745L20.0197 4.44333C20.7619 2.96873 22.2463 2.1233 23.7893 2.1233ZM17.722 16.0795L16.7399 10.8819L12.9689 18.2849L13.9505 23.4801L17.722 16.0795ZM14.3187 27.0534C14.5802 27.0478 14.8566 26.9889 15.0978 26.8769L21.3479 23.9474C21.7385 23.7704 22.0705 23.4558 22.2658 23.0626L29.3167 9.22107C30.8792 6.17357 29.6683 2.39861 26.6409 0.845371C25.7424 0.393162 24.7659 0.157227 23.7893 0.157227C21.4651 0.157227 19.3361 1.45487 18.2814 3.53896L11.2306 17.3805C11.0353 17.7737 10.9767 18.2063 11.0548 18.6388L12.3439 25.4613C12.391 25.6983 12.4791 25.9226 12.6031 26.1241L11.5548 28.181L8.92588 28.784C8.39853 28.902 8.0665 29.4328 8.18369 29.9637L8.18861 29.9849L8.27783 33.8764H0.97657C0.429691 33.8764 0 34.309 0 34.8595C0 35.41 0.429691 35.8426 0.97657 35.8426H9.27742C9.53794 35.8426 9.77188 35.7444 9.94543 35.5821L14.0235 32.7753C14.4552 32.4919 14.5802 31.9181 14.3121 31.4724L13.2976 29.057L14.3187 27.0534ZM15.6407 24.4592L19.4207 17.042L24.2858 14.7616L20.508 22.1778L15.6407 24.4592ZM11.6407 30.18L12.2508 31.6302L10.2149 33.0309L10.1556 30.525L11.6407 30.18Z" fill="white"/>
</svg>
