<svg width="20" height="16" viewBox="0 0 20 16" fill="none" xmlns="http://www.w3.org/2000/svg">
<path fill-rule="evenodd" clip-rule="evenodd" d="M8.59856 2.05456H9.81382H11.029L12.2075 4.18711H7.42002L8.59856 2.05456ZM6.96634 2.05456H5.45091C5.40652 2.05456 5.36397 2.07232 5.33275 2.10387L3.27121 4.18711H5.78783L5.79376 4.17632L6.96634 2.05456ZM2.13225 5.61569L7.8816 11.9097L5.66221 6.6223C5.52652 6.29902 5.45424 5.95765 5.44444 5.61569H2.13225ZM11.7459 11.9099L17.4954 5.61569H14.1831C14.1733 5.95765 14.101 6.29902 13.9653 6.6223L11.7459 11.9099ZM16.3564 4.18711L14.2949 2.10387C14.2637 2.07231 14.2211 2.05456 14.1767 2.05456H12.6612L13.8338 4.17632L13.8397 4.18711H16.3564ZM5.45091 0.125977H9.81382H14.1767C14.7361 0.125977 15.2723 0.349702 15.6657 0.747311L18.8869 4.00242C19.6718 4.79559 19.6972 6.06483 18.9446 6.88873L11.3605 15.1913C10.5299 16.1007 9.09779 16.1007 8.26715 15.1913L0.683038 6.88873C-0.0695625 6.06483 -0.0441997 4.79559 0.740714 4.00242L3.96191 0.747311C4.35538 0.349702 4.89153 0.125977 5.45091 0.125977ZM12.6481 6.06938L9.81378 12.8218L6.97946 6.06938C6.9182 5.92343 6.88323 5.76998 6.87422 5.61569H12.7533C12.7443 5.76998 12.7094 5.92343 12.6481 6.06938Z" fill="#C04500"/>
</svg>
