<svg xmlns="http://www.w3.org/2000/svg" width="24" height="24" viewBox="0 0 24 24">
    <g fill="none" fill-rule="evenodd">
        <path d="M0 0h24v24H0z"/>
        <g fill="#B17410" fill-rule="nonzero">
            <path d="M22 5a1 1 0 0 1 .117 1.993L22 7H3v5a1 1 0 0 1-.883.993L2 13a1 1 0 0 1-.993-.883L1 12V6a1 1 0 0 1 .883-.993L2 5h20zM22 11a1 1 0 0 1 .993.883L23 12v6a1 1 0 0 1-.883.993L22 19H2a1 1 0 0 1-.117-1.993L2 17h19v-5a1 1 0 0 1 .883-.993L22 11z"/>
            <path d="M17.293 1.293a1 1 0 0 1 1.32-.083l.094.083 4 4a1 1 0 0 1 .083 1.32l-.083.094-4 4a1 1 0 0 1-1.497-1.32l.083-.094L20.585 6l-3.292-3.293a1 1 0 0 1-.083-1.32l.083-.094zM5.293 13.293a1 1 0 0 1 1.497 1.32l-.083.094L3.415 18l3.292 3.293a1 1 0 0 1 .083 1.32l-.083.094a1 1 0 0 1-1.32.083l-.094-.083-4-4a1 1 0 0 1-.083-1.32l.083-.094 4-4z"/>
        </g>
    </g>
</svg>
