<svg width="10" height="10" viewBox="0 0 10 10" fill="none" xmlns="http://www.w3.org/2000/svg">
<path fill-rule="evenodd" clip-rule="evenodd" d="M7.35 2.91667H1.16667V4.08333H0V2.33333C0 1.98333 0.233333 1.75 0.583333 1.75H7.35L6.59167 0.991667C6.35833 0.758333 6.35833 0.408333 6.59167 0.175C6.825 -0.0583333 7.175 -0.0583333 7.40833 0.175L9.15833 1.925C9.39167 2.15833 9.39167 2.50833 9.15833 2.74167L7.40833 4.49167C7.29167 4.60833 7.175 4.66667 7 4.66667C6.825 4.66667 6.70833 4.60833 6.59167 4.49167C6.35833 4.25833 6.35833 3.90833 6.59167 3.675L7.35 2.91667ZM1.98333 6.41667H8.16667V5.25H9.33333V7C9.33333 7.35 9.1 7.58333 8.75 7.58333H1.98333L2.74167 8.34167C2.975 8.575 2.975 8.925 2.74167 9.15833C2.625 9.275 2.50833 9.33333 2.33333 9.33333C2.15833 9.33333 2.04167 9.275 1.925 9.15833L0.175 7.40833C-0.0583333 7.175 -0.0583333 6.825 0.175 6.59167L1.925 4.84167C2.15833 4.60833 2.50833 4.60833 2.74167 4.84167C2.975 5.075 2.975 5.425 2.74167 5.65833L1.98333 6.41667Z" fill="#5C5C5C"/>
</svg>
