<?xml version="1.0" encoding="UTF-8"?>
<svg width="80px" height="80px" viewBox="0 0 80 80" version="1.1" xmlns="http://www.w3.org/2000/svg" xmlns:xlink="http://www.w3.org/1999/xlink">
    <!-- Generator: Sketch 48.2 (47327) - http://www.bohemiancoding.com/sketch -->
    <title>Group 9 Copy 2</title>
    <desc>Created with Sketch.</desc>
    <defs></defs>
    <g id="S-12_17-Students-Type-Response" stroke="none" stroke-width="1" fill="none" fill-rule="evenodd" transform="translate(-159.000000, -472.000000)">
        <g id="Group-9-Copy-2" transform="translate(199.000000, 512.000000) rotate(-180.000000) translate(-199.000000, -512.000000) translate(159.000000, 472.000000)" fill="#00C2A2" fill-rule="nonzero">
            <path d="M40,1 C18.4608948,1 1,18.4608948 1,40 C1,61.5391052 18.4608948,79 40,79 C61.5391052,79 79,61.5391052 79,40 C79,18.4608948 61.5391052,1 40,1 Z M40,0 C62.09139,-4.05812251e-15 80,17.90861 80,40 C80,62.09139 62.09139,80 40,80 C17.90861,80 2.705415e-15,62.09139 0,40 C-2.705415e-15,17.90861 17.90861,4.05812251e-15 40,0 Z" id="Rectangle-9"></path>
            <path d="M30.219406,27.3004089 C29.9244027,27.0004335 29.9272456,26.5169342 30.2257559,26.2204829 C30.5242663,25.9240316 31.0054042,25.9268885 31.3004076,26.226864 L45,40.1573517 L31.6098948,53.773136 C31.3148914,54.0731115 30.8337535,54.0759684 30.5352431,53.7795171 C30.2367328,53.4830658 30.2338899,52.9995665 30.5288932,52.6995911 L42.8632473,40.1573517 L30.219406,27.3004089 Z" id="Path-2" transform="translate(37.500000, 40.000000) rotate(-180.000000) translate(-37.500000, -40.000000) "></path>
        </g>
    </g>
</svg>