<svg width="12" height="12" viewBox="0 0 12 12" fill="none" xmlns="http://www.w3.org/2000/svg">
<path d="M3.30525 6.86932H5.99716C6.15239 6.86932 6.28301 6.81629 6.38902 6.71023C6.49503 6.60417 6.54804 6.47348 6.54804 6.31818V2.78409C6.54804 2.63258 6.49503 2.50379 6.38902 2.39773C6.28301 2.29167 6.15239 2.23864 5.99716 2.23864C5.84193 2.23864 5.71131 2.29167 5.6053 2.39773C5.49929 2.50379 5.44629 2.63258 5.44629 2.78409V5.76705H3.30525C3.15002 5.76705 3.0194 5.82008 2.91339 5.92614C2.80738 6.0322 2.75438 6.16288 2.75438 6.31818C2.75438 6.47348 2.80738 6.60417 2.91339 6.71023C3.0194 6.81629 3.15002 6.86932 3.30525 6.86932ZM5.99716 12C6.82253 12 7.59678 11.8428 8.31992 11.5284C9.04307 11.2178 9.67913 10.786 10.2281 10.233C10.7809 9.68371 11.2144 9.04735 11.5286 8.32386C11.8429 7.60038 12 6.82576 12 6C12 5.17803 11.8429 4.4053 11.5286 3.68182C11.2144 2.95833 10.7809 2.32008 10.2281 1.76705C9.67913 1.21402 9.04117 0.782197 8.31425 0.471591C7.5911 0.157197 6.81874 0 5.99716 0C5.17558 0 4.40133 0.157197 3.6744 0.471591C2.95125 0.782197 2.3133 1.21402 1.76053 1.76705C1.21155 2.32008 0.779934 2.95833 0.465689 3.68182C0.15523 4.4053 0 5.17803 0 6C0 6.82576 0.15523 7.60038 0.465689 8.32386C0.779934 9.04735 1.21344 9.68371 1.76621 10.233C2.31898 10.786 2.95693 11.2178 3.68008 11.5284C4.40322 11.8428 5.17558 12 5.99716 12ZM5.99716 10.5057C5.37624 10.5057 4.79319 10.3883 4.24799 10.1534C3.70279 9.92235 3.22385 9.60227 2.81117 9.19318C2.39849 8.7803 2.07667 8.30114 1.84572 7.75568C1.61477 7.21023 1.49929 6.625 1.49929 6C1.49929 5.375 1.61477 4.79167 1.84572 4.25C2.07667 3.70455 2.39849 3.22538 2.81117 2.8125C3.22385 2.39962 3.7009 2.07765 4.24231 1.84659C4.78751 1.61174 5.37246 1.49432 5.99716 1.49432C6.62186 1.49432 7.20492 1.61174 7.74633 1.84659C8.29153 2.07765 8.77047 2.39962 9.18315 2.8125C9.59584 3.22538 9.91955 3.70455 10.1543 4.25C10.389 4.79167 10.5064 5.375 10.5064 6C10.5064 6.625 10.389 7.21023 10.1543 7.75568C9.92333 8.30114 9.60151 8.7803 9.18883 9.19318C8.77615 9.60227 8.29721 9.92235 7.75201 10.1534C7.20682 10.3883 6.62186 10.5057 5.99716 10.5057Z" fill="#06806B"/>
</svg>
