<svg width="21" height="22" viewBox="0 0 21 22" fill="none" xmlns="http://www.w3.org/2000/svg">
<path d="M3.27344 21.4375C2.5625 21.4375 2.00391 21.2734 1.59766 20.9453C1.19141 20.6172 0.988281 20.168 0.988281 19.5977C0.988281 18.8477 1.21875 18.0625 1.67969 17.2422C2.14844 16.4141 2.82031 15.6406 3.69531 14.9219C4.57031 14.2031 5.62109 13.6211 6.84766 13.1758C8.07422 12.7227 9.44531 12.4961 10.9609 12.4961C12.4844 12.4961 13.8555 12.7227 15.0742 13.1758C16.3008 13.6211 17.3477 14.2031 18.2148 14.9219C19.0898 15.6406 19.7617 16.4141 20.2305 17.2422C20.6992 18.0625 20.9336 18.8477 20.9336 19.5977C20.9336 20.168 20.7305 20.6172 20.3242 20.9453C19.9258 21.2734 19.3672 21.4375 18.6484 21.4375H3.27344ZM10.9609 10.4453C10.0859 10.4453 9.28516 10.2109 8.55859 9.74219C7.83203 9.27344 7.25 8.64453 6.8125 7.85547C6.38281 7.06641 6.16797 6.18359 6.16797 5.20703C6.16797 4.25391 6.38281 3.38672 6.8125 2.60547C7.25 1.82422 7.83203 1.20312 8.55859 0.742188C9.29297 0.28125 10.0938 0.0507812 10.9609 0.0507812C11.8359 0.0507812 12.6367 0.28125 13.3633 0.742188C14.0898 1.19531 14.6719 1.8125 15.1094 2.59375C15.5469 3.375 15.7656 4.23828 15.7656 5.18359C15.7656 6.16797 15.5469 7.05859 15.1094 7.85547C14.6797 8.64453 14.1016 9.27344 13.375 9.74219C12.6484 10.2109 11.8438 10.4453 10.9609 10.4453Z" fill="black"/>
</svg>
