<svg width="17" height="16" viewBox="0 0 17 16" fill="none" xmlns="http://www.w3.org/2000/svg">
<path d="M3.26078 15.8327C3.45526 15.975 3.6697 16.0265 3.90408 15.9873C4.14344 15.948 4.39528 15.8327 4.65958 15.6413L8.49694 12.8664L12.3418 15.6413C12.6061 15.8327 12.8554 15.948 13.0898 15.9873C13.3292 16.0265 13.5461 15.975 13.7406 15.8327C13.9301 15.6904 14.0448 15.5015 14.0847 15.2659C14.1246 15.0353 14.0922 14.7679 13.9874 14.4636L12.4689 10.0252L16.3437 7.29437C16.613 7.103 16.8 6.90426 16.9047 6.69816C17.0144 6.48716 17.0294 6.2688 16.9496 6.04307C16.8748 5.82225 16.7327 5.65786 16.5232 5.54991C16.3138 5.44195 16.042 5.39043 15.7079 5.39533L10.9579 5.42478L9.51425 0.956881C9.41452 0.647735 9.27987 0.412195 9.11032 0.250261C8.94077 0.0834204 8.73631 0 8.49694 0C8.26256 0 8.06059 0.0834204 7.89104 0.250261C7.72149 0.412195 7.58685 0.647735 7.48711 0.956881L6.04342 5.42478L1.28599 5.39533C0.956864 5.39043 0.687575 5.44195 0.478129 5.54991C0.268682 5.65786 0.126557 5.82225 0.0517551 6.04307C-0.028034 6.2688 -0.015567 6.48716 0.0891563 6.69816C0.198866 6.90426 0.388366 7.103 0.657654 7.29437L4.53242 10.0252L3.01393 14.4636C2.90921 14.7679 2.87679 15.0353 2.91669 15.2659C2.95658 15.5015 3.07128 15.6904 3.26078 15.8327Z" fill="white"/>
</svg>
