<?xml version="1.0" encoding="UTF-8"?>
<svg width="9px" height="10px" viewBox="0 0 9 10" version="1.1" xmlns="http://www.w3.org/2000/svg" xmlns:xlink="http://www.w3.org/1999/xlink">
    <!-- Generator: Sketch 43.2 (39069) - http://www.bohemiancoding.com/sketch -->
    <title>Combined Shape Copy</title>
    <desc>Created with Sketch.</desc>
    <defs></defs>
    <g id="V1" stroke="none" stroke-width="1" fill="none" fill-rule="evenodd">
        <g id="12_01-Lobby" transform="translate(-330.000000, -81.000000)" fill="#FFFFFF">
            <g id="Group-20" transform="translate(318.000000, 76.000000)">
                <g id="Group-15">
                    <g id="Group-18" transform="translate(12.000000, 5.000000)">
                        <path d="M4.5,4.67307692 C3.25735931,4.67307692 2.25,3.62697302 2.25,2.33653846 C2.25,1.0461039 3.25735931,0 4.5,0 C5.74264069,0 6.75,1.0461039 6.75,2.33653846 C6.75,3.62697302 5.74264069,4.67307692 4.5,4.67307692 Z M4.5,10 C2.01471863,10 0,10 0,10 C0,7.51471863 2.01471863,5.5 4.5,5.5 C6.98528137,5.5 9,7.51471863 9,10 C9,10 6.98528137,10 4.5,10 Z" id="Combined-Shape-Copy"></path>
                    </g>
                </g>
            </g>
        </g>
    </g>
</svg>