<svg width="17" height="16" viewBox="0 0 17 16" fill="none" xmlns="http://www.w3.org/2000/svg">
<path fill-rule="evenodd" clip-rule="evenodd" d="M6.16667 5.66683C6.16667 4.37816 7.21134 3.3335 8.5 3.3335C9.78866 3.3335 10.8333 4.37816 10.8333 5.66683C10.8333 6.95549 9.78866 8.00016 8.5 8.00016C7.21134 8.00016 6.16667 6.95549 6.16667 5.66683ZM2.5 7.00016C2.5 6.07969 3.24619 5.3335 4.16667 5.3335C4.40667 5.3335 4.63333 5.38683 4.83333 5.48016V5.66683C4.83333 6.46683 5.09333 7.24016 5.58 7.8735C5.42667 8.1135 5.22 8.3135 4.97333 8.4535C4.73333 8.58683 4.46 8.66683 4.16667 8.66683C3.87333 8.66683 3.6 8.58683 3.36 8.4535C2.85333 8.16683 2.5 7.62683 2.5 7.00016ZM12.8333 5.3335C12.5933 5.3335 12.3666 5.38683 12.1666 5.48016V5.66683C12.1666 6.46683 11.9066 7.24016 11.4199 7.8735C11.4999 8.00016 11.5866 8.10016 11.6866 8.20016C11.7933 8.30016 11.8999 8.38683 12.0266 8.4535C12.2666 8.58683 12.5399 8.66683 12.8333 8.66683C13.1266 8.66683 13.3999 8.58683 13.6399 8.4535C14.1466 8.16683 14.4999 7.62683 14.4999 7.00016C14.4999 6.07969 13.7537 5.3335 12.8333 5.3335ZM3.83333 11.6668C3.83333 10.1135 6.94 9.3335 8.5 9.3335C10.06 9.3335 13.1667 10.1135 13.1667 11.6668V12.6668H3.83333V11.6668ZM3.64 9.70003C2.35333 9.85337 0.5 10.5067 0.5 11.6667V12.6667H2.5V11.38C2.5 10.7067 2.96 10.1467 3.64 9.70003ZM14.5 11.38C14.5 10.7067 14.04 10.1467 13.36 9.70003C14.6467 9.85337 16.5 10.5067 16.5 11.6667V12.6667H14.5V11.38Z" fill="white"/>
</svg>
