<?xml version="1.0" encoding="UTF-8"?>
<svg width="16px" height="18px" viewBox="0 0 16 18" version="1.1" xmlns="http://www.w3.org/2000/svg" xmlns:xlink="http://www.w3.org/1999/xlink">
    <title>teacher-center-comprehension</title>
    <g id="👀-1---Public" stroke="none" stroke-width="1" fill="none" fill-rule="evenodd">
        <g id="10131---Public---Misc---Navigation---Teacher-Center---Hover" transform="translate(-537.000000, -327.000000)" fill="#00C2A2">
            <path d="M552.453571,343.875 L552.571429,343.875 C552.807143,343.875 553,344.064844 553,344.296875 L553,344.578125 C553,344.810156 552.807143,345 552.571429,345 L539.857143,345 C538.278571,345 537,343.741406 537,342.1875 L537,329.8125 C537,328.258594 538.278571,327 539.857143,327 L552.142857,327 C552.617857,327 553,327.376172 553,327.84375 L553,340.78125 C553,341.132812 552.778571,341.435156 552.467857,341.561719 C552.339286,342.127734 552.310714,343.164844 552.453571,343.875 L552.453571,343.875 Z M541.571429,340.5 L551.857143,340.5 L551.857143,328.125 L541.571429,328.125 L541.571429,340.5 Z M538.142857,341.0625 C538.621429,340.710938 539.214286,340.5 539.857143,340.5 L540.428571,340.5 L540.428571,328.125 L539.857143,328.125 C538.910714,328.125 538.142857,328.880859 538.142857,329.8125 L538.142857,341.0625 Z M551.439286,343.875 C551.328571,343.157812 551.335714,342.285937 551.439286,341.625 L539.857143,341.625 C537.571429,341.625 537.571429,343.875 539.857143,343.875 L551.439286,343.875 Z" id="teacher-center-comprehension"></path>
        </g>
    </g>
</svg>