<svg xmlns="http://www.w3.org/2000/svg" width="32" height="32" viewBox="0 0 32 32">
    <g fill="none" fill-rule="evenodd">
        <path d="M0 0H32V32H0z"/>
        <g fill="#B17410" fill-rule="nonzero" transform="translate(1.333)">
            <circle cx="4" cy="4" r="4"/>
            <path d="M20 12V9.333H2.667C1.194 9.333 0 10.527 0 12v20h2.667v-9.333h2.666V32H8V12h12z"/>
            <path d="M29.333 2.667H10.667v2.666H28V20H10.667v2.667h9.788l3.653 8.525c.21.49.692.808 1.225.808.181 0 .36-.036.526-.108.676-.29.99-1.074.7-1.75l-3.204-7.475h5.978c.737 0 1.334-.597 1.334-1.334V4c0-.736-.597-1.333-1.334-1.333z"/>
        </g>
    </g>
</svg>
