<svg width="49" height="48" viewBox="0 0 49 48" fill="none" xmlns="http://www.w3.org/2000/svg">
<path fill-rule="evenodd" clip-rule="evenodd" d="M42.3887 24.18V8C42.3887 5.79086 40.5978 4 38.3887 4H17.3087C18.0087 5.22 18.3887 6.6 18.3887 8H38.3887V21.9346C38.3887 21.9346 39.4559 22.1218 40.5195 22.7494C41.5832 23.377 42.3887 24.18 42.3887 24.18ZM28.3887 14V18H16.3887V44H12.3887V32H8.38867V44H4.38867V28H1.38867V18C1.38867 15.7909 3.17953 14 5.38867 14H28.3887ZM10.3887 12C12.5978 12 14.3887 10.2091 14.3887 8C14.3887 5.79086 12.5978 4 10.3887 4C8.17953 4 6.38867 5.79086 6.38867 8C6.38867 10.2091 8.17953 12 10.3887 12Z" fill="#5C5C5C"/>
<path fill-rule="evenodd" clip-rule="evenodd" d="M34.3887 24C28.9887 24 24.1887 27.4 22.3887 32C24.1887 36.6 28.9887 40 34.3887 40C39.7887 40 44.5887 36.6 46.3887 32C44.5887 27.4 39.7887 24 34.3887 24ZM34.3887 30C35.5887 30 36.3887 30.8 36.3887 32C36.3887 33.2 35.5887 34 34.3887 34C33.1887 34 32.3887 33.2 32.3887 32C32.3887 30.8 33.1887 30 34.3887 30ZM29.3887 32C29.3887 34.8 31.5887 37 34.3887 37C37.1887 37 39.3887 34.8 39.3887 32C39.3887 29.2 37.1887 27 34.3887 27C31.5887 27 29.3887 29.2 29.3887 32Z" fill="#5C5C5C"/>
</svg>
