<?xml version="1.0" encoding="UTF-8"?>
<svg width="16px" height="18px" viewBox="0 0 16 18" version="1.1" xmlns="http://www.w3.org/2000/svg" xmlns:xlink="http://www.w3.org/1999/xlink">
    <title>teacher-center-comprehension-hover</title>
    <defs>
        <linearGradient x1="50%" y1="0%" x2="50%" y2="100%" id="linearGradient-1">
            <stop stop-color="#00947B" offset="0%"></stop>
            <stop stop-color="#00C2A2" offset="100%"></stop>
        </linearGradient>
    </defs>
    <g id="👀-1---Public" stroke="none" stroke-width="1" fill="none" fill-rule="evenodd">
        <g id="10131---Public---Misc---Navigation---Teacher-Center---Hover" transform="translate(-579.000000, -327.000000)" fill="url(#linearGradient-1)" fill-rule="nonzero">
            <path d="M594.453571,343.875 L594.571429,343.875 C594.807143,343.875 595,344.064844 595,344.296875 L595,344.578125 C595,344.810156 594.807143,345 594.571429,345 L581.857143,345 C580.278571,345 579,343.741406 579,342.1875 L579,329.8125 C579,328.258594 580.278571,327 581.857143,327 L594.142857,327 C594.617857,327 595,327.376172 595,327.84375 L595,340.78125 C595,341.132812 594.778571,341.435156 594.467857,341.561719 C594.339286,342.127734 594.310714,343.164844 594.453571,343.875 L594.453571,343.875 Z M583.571429,340.5 L593.857143,340.5 L593.857143,328.125 L583.571429,328.125 L583.571429,340.5 Z M580.142857,341.0625 C580.621429,340.710938 581.214286,340.5 581.857143,340.5 L582.428571,340.5 L582.428571,328.125 L581.857143,328.125 C580.910714,328.125 580.142857,328.880859 580.142857,329.8125 L580.142857,341.0625 Z M593.439286,343.875 C593.328571,343.157812 593.335714,342.285937 593.439286,341.625 L581.857143,341.625 C579.571429,341.625 579.571429,343.875 581.857143,343.875 L593.439286,343.875 Z" id="teacher-center-comprehension-hover"></path>
        </g>
    </g>
</svg>