<svg width="8" height="9" viewBox="0 0 8 9" fill="none" xmlns="http://www.w3.org/2000/svg">
<path d="M7.88184 1.08594C7.88184 1.18359 7.8623 1.27637 7.82324 1.36426C7.78743 1.44889 7.74349 1.54167 7.69141 1.64258L4.64941 7.91699C4.54525 8.12533 4.44271 8.26855 4.3418 8.34668C4.24089 8.4248 4.12533 8.46387 3.99512 8.46387C3.86816 8.46387 3.7526 8.4248 3.64844 8.34668C3.54753 8.26855 3.44661 8.12533 3.3457 7.91699L0.298828 1.64258C0.25 1.53841 0.206055 1.44401 0.166992 1.35938C0.131185 1.27148 0.113281 1.17871 0.113281 1.08105C0.113281 0.902018 0.176758 0.760417 0.303711 0.65625C0.430664 0.548828 0.599935 0.495117 0.811523 0.495117L7.17871 0.5C7.39355 0.5 7.56445 0.553711 7.69141 0.661133C7.81836 0.765299 7.88184 0.906901 7.88184 1.08594Z" fill="#404040"/>
</svg>
