<svg width="10" height="10" viewBox="0 0 10 10" fill="none" xmlns="http://www.w3.org/2000/svg">
<path d="M9.6582 8.84766C9.6582 9.06641 9.58203 9.23828 9.42969 9.36328C9.27734 9.48828 9.07227 9.55078 8.81445 9.55078L1.17383 9.55664C0.919922 9.55664 0.716797 9.49414 0.564453 9.36914C0.412109 9.24414 0.335938 9.07227 0.335938 8.85352C0.335938 8.73633 0.357422 8.62695 0.400391 8.52539C0.447266 8.41992 0.5 8.30469 0.558594 8.17969L4.21484 0.65625C4.33594 0.402344 4.45703 0.228516 4.57812 0.134766C4.70312 0.0410156 4.8418 -0.00585938 4.99414 -0.00585938C5.15039 -0.00585938 5.28906 0.0410156 5.41016 0.134766C5.53125 0.228516 5.6543 0.402344 5.7793 0.65625L9.42969 8.17969C9.49219 8.30078 9.54492 8.41406 9.58789 8.51953C9.63477 8.62109 9.6582 8.73047 9.6582 8.84766Z" fill="#404040"/>
</svg>
