<svg xmlns="http://www.w3.org/2000/svg" width="24" height="24" viewBox="0 0 24 24">
    <g fill="none" fill-rule="evenodd">
        <path d="M0 0h24v24H0z"/>
        <g fill="#757575" transform="translate(2 2)">
            <path fill-rule="nonzero" d="M19.614 3.429c-.184 0-.368.079-.551.158a4.55 4.55 0 0 1-2.206.556c-1.379 0-2.758-.556-4.136-1.032C11.25 2.556 9.779 2 8.309 2c-.92 0-1.655.238-2.482.635-.46.238-.827.794-.827 1.27v6.19c0 .318.276.476.46.476.183 0 .367-.079.551-.158a4.55 4.55 0 0 1 2.206-.556c1.379 0 2.757.556 4.136 1.032 1.379.555 2.85 1.111 4.32 1.111.919 0 1.746-.238 2.482-.635.46-.238.827-.794.827-1.27v-6.19c.092-.397-.184-.476-.368-.476"/>
            <rect width="2" height="20" x="1" rx="1"/>
            <circle cx="2" cy="2" r="2"/>
        </g>
    </g>
</svg>
