<svg xmlns="http://www.w3.org/2000/svg" width="24" height="24" viewBox="0 0 24 24">
    <g fill="none" fill-rule="evenodd">
        <path d="M0 0h24v24H0z"/>
        <path fill="#757575" fill-rule="nonzero" d="M17.03 12.27c.67 0 1.245.27 1.724.63.096.091.192.091.288.091.096 0 .192 0 .287-.09.192-.18.288-.27.48-.36.095-.09.191-.18.191-.27V8.485c0-.72-.67-1.35-1.437-1.35H14.73c-.096-.091-.096-.181-.192-.271.479-.54.67-1.171.67-1.892C15.21 3.351 13.773 2 12.049 2c-1.725 0-3.162 1.351-3.162 3.063 0 .72.288 1.351.67 1.892-.095 0-.095.09-.19.18H5.532c-.862 0-1.437.63-1.437 1.351v3.784c0 .09.096.27.191.27.192.09.384.18.48.36.095.091.383.091.479 0 .479-.45 1.053-.63 1.724-.63 1.341 0 2.491 1.081 2.491 2.343 0 1.26-1.15 2.342-2.49 2.342-.672 0-1.246-.27-1.725-.63-.096-.09-.192-.18-.288-.18-.096 0-.192 0-.287.09-.192.18-.288.27-.48.36-.095.09-.191.18-.191.27v3.784C4 21.369 4.67 22 5.437 22h13.03c.767 0 1.437-.63 1.437-1.351v-3.784c0-.09-.096-.27-.191-.27-.192-.09-.288-.18-.48-.27 0-.09-.095-.09-.191-.18-.096 0-.288 0-.383.09-.48.45-1.054.72-1.725.72-1.341 0-2.49-1.081-2.49-2.342 0-1.262 1.245-2.343 2.586-2.343"/>
    </g>
</svg>
