<svg width="33" height="40" viewBox="0 0 33 40" fill="none" xmlns="http://www.w3.org/2000/svg">
<path d="M26.7825 20.5405C28.1239 20.5405 29.2736 21.0811 30.2316 21.8018C30.4233 21.982 30.6149 21.982 30.8065 21.982C30.9981 21.982 31.1897 21.982 31.3813 21.8018C31.7646 21.4414 31.9562 21.2613 32.3394 21.0811C32.531 20.9009 32.7227 20.7207 32.7227 20.5405V12.973C32.7227 11.5315 31.3813 10.2703 29.8484 10.2703H22.1837C21.9921 10.0901 21.9921 9.90991 21.8005 9.72973C22.7586 8.64865 23.1418 7.38739 23.1418 5.94595C23.1418 2.7027 20.2676 0 16.8185 0C13.3694 0 10.4951 2.7027 10.4951 6.12613C10.4951 7.56757 11.07 8.82883 11.8364 9.90991C11.6448 9.90991 11.6448 10.0901 11.4532 10.2703H3.78852C2.06397 10.2703 0.914273 11.5315 0.914273 12.973V20.5405C0.914273 20.7207 1.10589 21.0811 1.29751 21.0811C1.68074 21.2613 2.06397 21.4414 2.25559 21.8018C2.44721 21.982 3.02206 21.982 3.21367 21.8018C4.17176 20.9009 5.32146 20.5405 6.66278 20.5405C9.34541 20.5405 11.6448 22.7027 11.6448 25.2252C11.6448 27.7477 9.34541 29.9099 6.66278 29.9099C5.32146 29.9099 4.17176 29.3694 3.21367 28.6486C3.02206 28.4685 2.83044 28.2883 2.63882 28.2883C2.44721 28.2883 2.25559 28.2883 2.06397 28.4685C1.68074 28.8288 1.48912 29.009 1.10589 29.1892C0.914273 29.3694 0.722656 29.5496 0.722656 29.7297V37.2973C0.722656 38.7387 2.06397 40 3.59691 40H29.6568C31.1897 40 32.531 38.7387 32.531 37.2973V29.7297C32.531 29.5496 32.3394 29.1892 32.1478 29.1892C31.7646 29.009 31.573 28.8288 31.1897 28.6486C31.1897 28.4685 30.9981 28.4685 30.8065 28.2883C30.6149 28.2883 30.2316 28.2883 30.04 28.4685C29.0819 29.3694 27.9322 29.9099 26.5909 29.9099C23.9083 29.9099 21.6089 27.7477 21.6089 25.2252C21.6089 22.7027 24.0999 20.5405 26.7825 20.5405Z" fill="#5C5C5C"/>
</svg>
