<svg width="36" height="40" viewBox="0 0 36 40" fill="none" xmlns="http://www.w3.org/2000/svg">
<path fill-rule="evenodd" clip-rule="evenodd" d="M35.7227 1.875V28.125C35.7227 28.7109 35.4492 29.2422 35.0273 29.5781C34.6992 30.7812 34.6992 34.2109 35.0273 35.4141C35.4492 35.7578 35.7227 36.2891 35.7227 36.875V38.125C35.7227 39.1641 34.8867 40 33.8477 40H8.22266C4.08203 40 0.722656 36.6406 0.722656 32.5V7.5C0.722656 3.35938 4.08203 0 8.22266 0H33.8477C34.8867 0 35.7227 0.835938 35.7227 1.875ZM8.22266 35H30.5195C30.3711 33.6641 30.3711 31.3359 30.5195 30H8.22266C6.84766 30 5.72266 31.125 5.72266 32.5C5.72266 33.8828 6.83984 35 8.22266 35ZM6.72266 5C6.72266 4.44772 7.17037 4 7.72266 4C8.27494 4 8.72266 4.44772 8.72266 5V25C8.72266 25.5523 8.27494 26 7.72266 26C7.17037 26 6.72266 25.5523 6.72266 25V5ZM15.2227 10C14.9465 10 14.7227 10.2239 14.7227 10.5V11.5C14.7227 11.7761 14.9465 12 15.2227 12H28.2227C28.4988 12 28.7227 11.7761 28.7227 11.5V10.5C28.7227 10.2239 28.4988 10 28.2227 10H15.2227Z" fill="#5C5C5C"/>
</svg>
