<svg xmlns="http://www.w3.org/2000/svg" width="24" height="24" viewBox="0 0 24 24">
    <g fill="none" fill-rule="evenodd">
        <path d="M0 0h24v24H0z"/>
        <g fill="#757575" fill-rule="nonzero">
            <path d="M18.454 11.608c-.26 0-.52-.087-.866-.173l-1.039-.347-.866.866c.087.433.173.866.173 1.3 0 2.857-2.338 5.195-5.196 5.195-2.858 0-5.196-2.338-5.196-5.196 0-2.858 2.338-5.196 5.196-5.196.433 0 .953.087 1.3.173l.865-.866-.346-1.039a4.196 4.196 0 0 1 0-1.472c-.606-.087-1.213-.173-1.819-.173C5.897 4.68 2 8.577 2 13.34S5.897 22 10.66 22s8.66-3.897 8.66-8.66c0-.606-.086-1.213-.173-1.819-.26.087-.433.087-.693.087z"/>
            <path d="M21.918 6.239c-.086-.26-.26-.52-.606-.607L20.013 5.2l.78-.78a.837.837 0 0 0 0-1.211.837.837 0 0 0-1.213 0l-.78.779-.432-1.3a1.046 1.046 0 0 0-.607-.605.698.698 0 0 0-.779.26L14.384 4.94c-.26.26-.346.606-.173.866l.693 2.078-2.512 2.511a3.123 3.123 0 0 0-1.732-.52 3.474 3.474 0 0 0-3.464 3.465 3.474 3.474 0 0 0 3.464 3.464 3.474 3.474 0 0 0 3.464-3.464c0-.606-.173-1.213-.52-1.732l2.425-2.425 2.079.693c.086 0 .173.086.26.086.26 0 .433-.086.606-.26l2.598-2.597c.346-.26.433-.607.346-.866z"/>
        </g>
    </g>
</svg>
