<svg width="33" height="40" viewBox="0 0 33 40" fill="none" xmlns="http://www.w3.org/2000/svg">
<path fill-rule="evenodd" clip-rule="evenodd" d="M15.2975 12.7702C15.2918 12.8451 15.2862 12.9208 15.2808 12.997C14.4974 12.8452 13.5932 12.5934 12.6531 12.3317C10.5959 11.7589 8.36701 11.1384 6.85715 11.4133C4.22515 11.8924 1.69386 14.7808 0.718809 19.671C-0.256238 24.5613 0.981739 28.3933 3.73009 32.5258C6.47844 36.6584 11.0401 40 13.144 40C13.5278 40 13.8959 39.9101 14.2411 39.7631C15.7673 39.1134 18.034 39.0625 19.5628 39.7061C19.9914 39.8865 20.4626 40 20.9696 40C23.443 40 26.93 36.3405 29.0782 33.0444C31.2264 29.7483 32.9765 23.6861 32.2019 19.4034C31.4273 15.1208 29.0435 11.8635 25.2475 11.4133C22.9604 11.142 21.1154 11.8131 19.5105 12.3968C18.8954 12.6205 18.3156 12.8314 17.7597 12.9715L17.7604 12.962C17.8283 12.065 17.9088 11.37 17.9903 11.0114C18.2376 9.92399 18.8063 8.67871 19.3235 8.07129C19.7693 7.54768 19.7122 6.75669 19.1959 6.30456C18.6796 5.85243 17.8997 5.91037 17.4539 6.43398C16.6518 7.37604 15.9153 8.98875 15.5833 10.4484C15.4655 10.9665 15.3745 11.7522 15.2975 12.7702ZM6.38867 22.0548C6.38867 19.9205 6.67225 18.1188 7.25142 16.6469C7.45472 16.1303 8.05584 15.8696 8.59407 16.0648C9.13229 16.2599 9.4038 16.837 9.20051 17.3536C8.71894 18.5775 8.47216 20.1454 8.47216 22.0548C8.47216 23.9141 9.07245 26.0899 10.2894 28.5748C10.5342 29.0746 10.3106 29.6703 9.78989 29.9053C9.26922 30.1402 8.6487 29.9255 8.40392 29.4257C7.06589 26.6936 6.38867 24.239 6.38867 22.0548Z" fill="#5C5C5C"/>
<path fill-rule="evenodd" clip-rule="evenodd" d="M8.30061 6.33379C7.25661 5.39377 6.52155 4.23175 6.09544 2.84772C5.98861 2.50071 5.96932 2.13265 6.03929 1.77638C6.27347 0.584148 7.42979 -0.19251 8.62202 0.0416629L8.62203 0.0416319C10.043 0.320737 11.2755 0.930304 12.3195 1.87033C13.3635 2.81035 14.0986 3.97238 14.5247 5.3564C14.6315 5.70341 14.6508 6.07147 14.5808 6.42774C14.3467 7.61997 13.1903 8.39663 11.9981 8.16246L11.9981 8.16249C10.5771 7.88338 9.34462 7.27382 8.30061 6.33379Z" fill="#5C5C5C"/>
</svg>
