<svg xmlns="http://www.w3.org/2000/svg" width="24" height="24" viewBox="0 0 24 24">
    <g fill="none" fill-rule="evenodd">
        <path d="M0 0h24v24H0z"/>
        <g fill="#757575">
            <path fill-rule="nonzero" d="M11.446 8.498l.008-.113c.039-.509.084-.902.143-1.16.166-.73.535-1.537.936-2.008a.612.612 0 0 1 .87-.065.632.632 0 0 1 .064.884c-.258.303-.543.926-.666 1.47a8.056 8.056 0 0 0-.116.98c1.004-.253 2.163-.967 3.744-.78 1.898.226 3.09 1.854 3.478 3.996.387 2.141-.488 5.172-1.562 6.82C17.27 20.17 15.527 22 14.29 22c-.348 0-.672-.08-.97-.242a2.2 2.2 0 0 0-2.133.023 1.613 1.613 0 0 1-.81.219c-1.051 0-3.332-1.67-4.706-3.737-1.374-2.066-1.993-3.982-1.506-6.427.488-2.446 1.753-3.89 3.07-4.13 1.1-.2 2.962.55 4.211.792zm-4.015 1.825C7.141 11.06 7 11.96 7 13.027c0 1.093.339 2.32 1.008 3.686a.53.53 0 0 0 .693.24.492.492 0 0 0 .25-.666c-.61-1.242-.91-2.33-.91-3.26 0-.954.124-1.738.365-2.35a.494.494 0 0 0-.303-.645.528.528 0 0 0-.672.291z"/>
            <path d="M7.956 5.167a3.805 3.805 0 0 1-1.103-1.743A1.1 1.1 0 0 1 8.116 2.02c.71.14 1.327.444 1.849.914.522.47.89 1.051 1.103 1.743a1.1 1.1 0 0 1-1.264 1.403 3.805 3.805 0 0 1-1.848-.914z"/>
        </g>
    </g>
</svg>
