<svg xmlns="http://www.w3.org/2000/svg" width="24" height="24" viewBox="0 0 24 24">
    <g fill="none" fill-rule="evenodd">
        <g>
            <g>
                <path d="M0 0H24V24H0z" transform="translate(-441.000000, -240.000000) translate(441.000000, 240.000000)"/>
                <g fill="#757575" fill-rule="nonzero">
                    <path d="M16.563 0c.519 0 .937.418.937.938v13.124c0 .293-.137.56-.348.727-.164.602-.164 2.316 0 2.918.211.172.348.438.348.73v.625c0 .52-.418.938-.938.938H3.75C1.68 20 0 18.32 0 16.25V3.75C0 1.68 1.68 0 3.75 0zm-1.665 15H3.75c-.688 0-1.25.563-1.25 1.25 0 .691.559 1.25 1.25 1.25h11.148c-.074-.668-.074-1.832 0-2.5zM3.5 2c-.276 0-.5.224-.5.5v10c0 .276.224.5.5.5s.5-.224.5-.5v-10c0-.276-.224-.5-.5-.5zm10 3h-6c-.276 0-.5.224-.5.5s.224.5.5.5h6c.276 0 .5-.224.5-.5s-.224-.5-.5-.5z" transform="translate(-441.000000, -240.000000) translate(441.000000, 240.000000) translate(3.000000, 2.000000)"/>
                </g>
            </g>
        </g>
    </g>
</svg>
