<svg xmlns="http://www.w3.org/2000/svg" width="34" height="34" viewBox="0 0 34 34">
    <g fill="none" fill-rule="evenodd" transform="translate(1 1)">
        <circle cx="16" cy="16" r="16" stroke="#CECECE"/>
        <g fill="#111" fill-rule="nonzero">
            <path d="M25.5 15.167h-1.667V13.5h-1.666v1.667H20.5v1.666h1.667V18.5h1.666v-1.667H25.5zM18.395 15.003L12.75 15v2.25h3.226c-.174.952-1.128 2.69-3.601 2.69-2.177 0-3.953-1.804-3.953-4.026 0-2.222 1.776-4.025 3.953-4.025 1.239 0 2.067.528 2.54.983l1.731-1.666c-1.11-1.039-2.55-1.667-4.271-1.667A6.37 6.37 0 0 0 6 15.914a6.37 6.37 0 0 0 6.375 6.375c4.386 0 6.645-3.64 6.02-7.286z"/>
        </g>
    </g>
</svg>
