<svg width="22" height="23" viewBox="0 0 22 23" fill="none" xmlns="http://www.w3.org/2000/svg">
<path d="M2.49136 22.5H12.5518C13.3823 22.5 14.0051 22.2779 14.4203 21.8337C14.8356 21.3967 15.0432 20.7085 15.0432 19.7691V11.8714C15.0432 10.9465 14.8356 10.262 14.4203 9.81778C14.0051 9.37355 13.3823 9.15144 12.5518 9.15144H2.49136C1.66091 9.15144 1.03807 9.37355 0.622841 9.81778C0.207614 10.262 0 10.9465 0 11.8714V19.7691C0 20.7085 0.207614 21.3967 0.622841 21.8337C1.03807 22.2779 1.66091 22.5 2.49136 22.5ZM2.98752 20.3262C2.75528 20.3262 2.58285 20.2643 2.47025 20.1405C2.36468 20.024 2.3119 19.8274 2.3119 19.5506V12.1008C2.3119 11.8241 2.36468 11.6274 2.47025 11.5109C2.58285 11.3944 2.75528 11.3361 2.98752 11.3361H12.0662C12.2914 11.3361 12.4568 11.3944 12.5624 11.5109C12.675 11.6274 12.7313 11.8241 12.7313 12.1008V19.5506C12.7313 19.8274 12.675 20.024 12.5624 20.1405C12.4568 20.2643 12.2914 20.3262 12.0662 20.3262H2.98752ZM10.9155 10.1564H13.143V6.49702C13.143 5.68868 13.2908 5.00414 13.5864 4.4434C13.889 3.87537 14.2901 3.44571 14.7898 3.15442C15.2965 2.86312 15.8525 2.71748 16.4578 2.71748C17.0701 2.71748 17.626 2.86312 18.1257 3.15442C18.6324 3.44571 19.0336 3.87537 19.3292 4.4434C19.6248 5.00414 19.7726 5.68868 19.7726 6.49702V8.73635C19.7726 9.166 19.8816 9.49007 20.0998 9.70854C20.318 9.92701 20.5854 10.0362 20.9021 10.0362C21.2118 10.0362 21.4722 9.93065 21.6833 9.71946C21.8944 9.50099 22 9.17329 22 8.73635V6.68272C22 5.64863 21.8452 4.74197 21.5355 3.96276C21.2329 3.18355 20.8177 2.53906 20.2898 2.02929C19.769 1.51953 19.1779 1.13721 18.5163 0.882324C17.8548 0.627441 17.1686 0.5 16.4578 0.5C15.754 0.5 15.0713 0.627441 14.4098 0.882324C13.7482 1.13721 13.1536 1.51953 12.6257 2.02929C12.1049 2.53906 11.6897 3.18355 11.38 3.96276C11.0704 4.74197 10.9155 5.64863 10.9155 6.68272V10.1564Z" fill="black"/>
</svg>
