<svg width="14" height="14" viewBox="0 0 14 14" fill="none" xmlns="http://www.w3.org/2000/svg">
<g clip-path="url(#clip0_446_55279)">
<path d="M1.66797 12.9404H12.4072C12.749 12.9404 13.0452 12.8652 13.2959 12.7148C13.5465 12.569 13.738 12.3685 13.8701 12.1133C14.0068 11.8626 14.0752 11.5824 14.0752 11.2725C14.0752 11.1312 14.057 10.9922 14.0205 10.8555C13.984 10.7188 13.9294 10.5843 13.8564 10.4521L8.47656 0.847656C8.32161 0.569661 8.11426 0.360026 7.85449 0.21875C7.59473 0.0729167 7.32357 0 7.04102 0C6.75846 0 6.48503 0.0729167 6.2207 0.21875C5.96094 0.360026 5.75358 0.569661 5.59863 0.847656L0.225586 10.459C0.0751953 10.7324 0 11.0036 0 11.2725C0 11.5824 0.0683594 11.8626 0.205078 12.1133C0.341797 12.3685 0.533203 12.569 0.779297 12.7148C1.02995 12.8652 1.32617 12.9404 1.66797 12.9404ZM7.04785 8.36719C6.68327 8.36719 6.49642 8.18034 6.4873 7.80664L6.39844 4.08105C6.39388 3.90332 6.45085 3.75521 6.56934 3.63672C6.69238 3.51823 6.84961 3.45898 7.04102 3.45898C7.22786 3.45898 7.38281 3.52051 7.50586 3.64355C7.63346 3.76204 7.69499 3.91016 7.69043 4.08789L7.58789 7.80664C7.58333 8.18034 7.40332 8.36719 7.04785 8.36719ZM7.04785 10.6572C6.84277 10.6572 6.66276 10.5866 6.50781 10.4453C6.35742 10.304 6.28223 10.1309 6.28223 9.92578C6.28223 9.72526 6.35742 9.55208 6.50781 9.40625C6.6582 9.26042 6.83822 9.1875 7.04785 9.1875C7.25293 9.1875 7.43066 9.26042 7.58105 9.40625C7.736 9.54753 7.81348 9.7207 7.81348 9.92578C7.81348 10.1309 7.736 10.304 7.58105 10.4453C7.43066 10.5866 7.25293 10.6572 7.04785 10.6572Z" fill="#EB4F47"/>
</g>
<defs>
<clipPath id="clip0_446_55279">
<rect width="14" height="14" fill="white"/>
</clipPath>
</defs>
</svg>
