<svg width="15" height="13" viewBox="0 0 15 13" fill="none" xmlns="http://www.w3.org/2000/svg">
<path fill-rule="evenodd" clip-rule="evenodd" d="M10.772 0.386719C11.1915 0.386719 11.5936 0.554511 11.8887 0.852714L14.3046 3.29402C14.8933 3.88889 14.9123 4.84081 14.3479 5.45873L8.65984 11.6856C8.03687 12.3676 6.96283 12.3676 6.33986 11.6856L0.651831 5.45873C0.0873867 4.84081 0.106408 3.88889 0.695087 3.29402L3.11096 0.852714C3.40606 0.554511 3.80816 0.386719 4.2277 0.386719H7.49985H10.772ZM13.261 4.50396H10.7768C10.7694 4.76043 10.7152 5.01645 10.6135 5.25891L8.94888 9.22456L13.261 4.50396ZM6.05069 9.22443L4.38617 5.25891C4.2844 5.01645 4.23019 4.76043 4.22284 4.50396H1.73873L6.05069 9.22443ZM12.4068 3.43254L10.8606 1.87012C10.8372 1.84646 10.8053 1.83314 10.772 1.83314H9.63537L10.5148 3.42444L10.5192 3.43254H12.4068ZM8.41122 1.83314H7.49985H6.58841L5.70451 3.43254H9.29512L8.41122 1.83314ZM5.36426 1.83314H4.2277C4.1944 1.83314 4.1625 1.84646 4.13908 1.87012L2.59294 3.43254H4.48038L4.48483 3.42444L5.36426 1.83314ZM9.62554 4.84423L7.49982 9.9085L5.3741 4.84423C5.32815 4.73477 5.30193 4.61968 5.29517 4.50396H9.70446C9.6977 4.61968 9.67148 4.73477 9.62554 4.84423Z" fill="white"/>
</svg>
