<svg width="16" height="16" viewBox="0 0 16 16" fill="none" xmlns="http://www.w3.org/2000/svg">
<path fill-rule="evenodd" clip-rule="evenodd" d="M14.6136 3.49506L15.5564 4.43787L14.6136 5.38068L8.48545 11.5089L8.48562 11.509L7.54281 12.4518L7.54264 12.4517L7.30686 12.6874L3.4217 13.8699L1.8857 14.3374L2.35318 12.8014L3.53562 8.91621L8.95663 3.4952L8.95647 3.49504L9.89927 2.55223L9.89944 2.55239L10.8424 1.60944L11.7852 0.666632L12.728 1.60944L14.6136 3.49506ZM9.89944 4.43801L5.65703 8.68042L7.54264 10.566L11.7851 6.32363L9.89944 4.43801ZM12.7279 5.38082L10.8422 3.4952L11.7852 2.55225L13.6708 4.43787L12.7279 5.38082ZM4.71413 9.62332L4.71422 9.62323L6.59983 11.5089L6.59975 11.5089L3.88917 12.3339L4.71413 9.62332Z" fill="white"/>
</svg>
