<svg width="20" height="16" viewBox="0 0 20 16" fill="none" xmlns="http://www.w3.org/2000/svg">
<path fill-rule="evenodd" clip-rule="evenodd" d="M8.59832 2.05456H9.81358H11.0291L12.2076 4.18711H7.41978L8.59832 2.05456ZM6.9661 2.05456H5.45067C5.40627 2.05456 5.36373 2.07232 5.3325 2.10387L3.27096 4.18711H5.78758L5.79352 4.17632L6.9661 2.05456ZM2.13201 5.61569L7.88135 11.9097L5.66197 6.6223C5.52627 6.29902 5.45399 5.95765 5.44419 5.61569H2.13201ZM11.7463 11.9092L17.4951 5.61569H14.1832C14.1734 5.95765 14.1011 6.29902 13.9654 6.6223L11.7463 11.9092ZM16.3562 4.18711L14.2947 2.10387C14.2634 2.07231 14.2209 2.05456 14.1765 2.05456H12.6613L13.8339 4.17632L13.8398 4.18711H16.3562ZM5.45067 0.125977H9.81358H14.1765C14.7359 0.125977 15.272 0.349702 15.6655 0.747311L18.8867 4.00242C19.6716 4.79559 19.697 6.06483 18.9444 6.88873L11.3603 15.1913C10.5296 16.1007 9.09754 16.1007 8.26691 15.1913L0.682794 6.88873C-0.0698067 6.06483 -0.0444438 4.79559 0.74047 4.00242L3.96167 0.747311C4.35513 0.349702 4.89128 0.125977 5.45067 0.125977ZM12.6482 6.06938L9.81371 12.8222L6.97921 6.06938C6.91795 5.92343 6.88299 5.76998 6.87397 5.61569H12.7534C12.7444 5.76998 12.7095 5.92343 12.6482 6.06938Z" fill="#C97C00"/>
</svg>
