<svg width="81" height="80" viewBox="0 0 81 80" fill="none" xmlns="http://www.w3.org/2000/svg">
<path fill-rule="evenodd" clip-rule="evenodd" d="M48.459 24.375H30.959V24.375C30.959 20.2325 34.3165 16.875 38.459 16.875H40.959C45.1015 16.875 48.459 20.2325 48.459 24.375V24.375Z" stroke="#C04500" stroke-width="2.5" stroke-linecap="round" stroke-linejoin="round"/>
<circle cx="39.709" cy="8.125" r="5" stroke="#C04500" stroke-width="2.5" stroke-linecap="round" stroke-linejoin="round"/>
<path fill-rule="evenodd" clip-rule="evenodd" d="M19.709 35.625H2.20898V35.625C2.20898 31.4825 5.56648 28.125 9.70898 28.125H12.209C16.3515 28.125 19.709 31.4825 19.709 35.625V35.625Z" stroke="#C04500" stroke-width="2.5" stroke-linecap="round" stroke-linejoin="round"/>
<circle cx="10.959" cy="19.375" r="5" stroke="#C04500" stroke-width="2.5" stroke-linecap="round" stroke-linejoin="round"/>
<path fill-rule="evenodd" clip-rule="evenodd" d="M78.459 35.625H60.959V35.625C60.959 31.4825 64.3165 28.125 68.459 28.125H70.959C75.1015 28.125 78.459 31.4825 78.459 35.625V35.625Z" stroke="#C04500" stroke-width="2.5" stroke-linecap="round" stroke-linejoin="round"/>
<circle cx="69.709" cy="19.375" r="5" stroke="#C04500" stroke-width="2.5" stroke-linecap="round" stroke-linejoin="round"/>
<circle cx="39.709" cy="45.625" r="11.25" stroke="#C04500" stroke-width="2.5" stroke-linecap="round" stroke-linejoin="round"/>
<path fill-rule="evenodd" clip-rule="evenodd" d="M43.459 63.125H35.959C27.6752 63.125 20.959 69.8413 20.959 78.125V78.125H58.459V78.125C58.459 69.8413 51.7427 63.125 43.459 63.125Z" stroke="#C04500" stroke-width="2.5" stroke-linecap="round" stroke-linejoin="round"/>
</svg>
