<svg xmlns="http://www.w3.org/2000/svg" width="300" height="100" viewBox="0 0 300 100">
    <g fill="none" fill-rule="evenodd">
        <path fill="#FFF" d="M0 0h300v100H0z"/>
        <g fill-rule="nonzero">
            <path fill="#C8102E" d="M63.891 47.044l-1.013-8.465-2.07 8.465h-3.841l-2.048-8.275-.971 8.275H50l1.858-15.685H55.7l3.23 11.02 3.23-11.02h3.8l1.879 15.685H63.89zM69.74 31.36h4.095v15.685H69.74V31.36zm6.418 0h4.095v6.101h1.626l2.512-6.101h4.349l-3.61 7.895 3.8 7.79H84.58l-2.702-5.91h-1.626v5.91h-4.095V31.36zM94.059 47.17c-2.759 0-4.138-1.245-4.138-3.737v-8.19c0-1.394.384-2.39 1.15-2.988.768-.598 1.686-.897 2.756-.897 2.533 0 4.841.105 6.924.317v3.462h-5.658c-.717 0-1.076.31-1.076.929v1.309l5.679.21v3.252l-5.68.21v1.183c0 .366.082.64.243.823.162.183.384.275.665.275h5.827v3.462a34.88 34.88 0 0 1-3.156.285c-1.231.063-2.41.095-3.536.095zm20.203 0c-1.59 0-2.86-.211-3.81-.633-.95-.422-1.672-1.21-2.164-2.365-.493-1.154-.74-2.814-.74-4.982 0-2.167.247-3.828.74-4.982.492-1.154 1.214-1.942 2.164-2.365.95-.422 2.22-.633 3.81-.633 1.59 0 2.86.211 3.81.633.95.423 1.672 1.21 2.165 2.365.492 1.154.739 2.815.739 4.982 0 2.168-.247 3.828-.74 4.982-.492 1.154-1.213 1.943-2.163 2.365-.95.422-2.22.633-3.81.633zm0-3.673c.732 0 1.277-.116 1.636-.349.36-.232.613-.65.76-1.256.148-.605.222-1.506.222-2.702 0-1.238-.07-2.157-.211-2.755-.14-.598-.394-1.006-.76-1.224-.366-.218-.915-.328-1.647-.328s-1.28.11-1.646.328c-.366.218-.62.626-.76 1.224-.141.598-.212 1.517-.212 2.755 0 1.196.074 2.097.222 2.702.148.606.401 1.024.76 1.256.359.233.904.349 1.636.349zm9.226-6.418c-.422 0-.725-.028-.908-.084v-1.52c.436 0 .654-.219.654-.655v-.317h-.232a.536.536 0 0 1-.38-.137c-.098-.091-.148-.221-.148-.39V31.57c0-.38.176-.57.528-.57h2.555c.337 0 .506.19.506.57v3.378c0 .802-.257 1.358-.77 1.668-.514.31-1.116.464-1.805.464zm10.049 10.091c-1.295 0-2.354-.211-3.178-.633-.823-.422-1.46-1.218-1.91-2.386-.45-1.168-.676-2.836-.676-5.003 0-2.097.236-3.726.708-4.887.471-1.161 1.122-1.96 1.952-2.396.83-.437 1.865-.655 3.104-.655 1.168 0 2.185.085 3.05.253.866.17 1.566.366 2.1.592v3.187a16.575 16.575 0 0 0-1.815-.253 25.943 25.943 0 0 0-2.428-.106c-.69 0-1.21.102-1.562.307-.352.204-.608.608-.77 1.213-.147.55-.228 1.368-.241 2.454l-.002.333c0 1.196.067 2.09.2 2.681.134.591.384 1.01.75 1.256.366.247.922.37 1.668.37l.82-.005c1.444-.016 2.571-.078 3.38-.185v3.188c-1.125.45-2.842.675-5.15.675zm10.66-15.812h5.11l4.644 15.685h-4.243l-.634-2.49h-4.707l-.613 2.49h-4.2l4.644-15.685zm3.927 9.521l-1.414-6.038-1.393 6.038h2.807zm11.168 6.164c-1.421 0-2.456-.323-3.103-.97-.648-.648-.971-1.683-.971-3.104V31.359h4.095v10.914c0 .732.366 1.098 1.098 1.098h4.56v3.673h-5.679zm11.337 0c-1.422 0-2.456-.323-3.103-.97-.648-.648-.972-1.683-.972-3.104V31.359h4.096v10.914c0 .732.366 1.098 1.098 1.098h4.56v3.673h-5.68zM181.48 31.36h5.109l4.644 15.685h-4.243l-.633-2.49h-4.708l-.612 2.49h-4.201l4.644-15.685zm3.927 9.521l-1.415-6.038-1.393 6.038h2.808zm11.189 6.27c-1.788 0-3.02-.7-3.695-2.1-.675-1.4-1.013-3.34-1.013-5.817 0-1.773.162-3.233.485-4.38.324-1.147.93-2.041 1.816-2.681.887-.64 2.153-.96 3.8-.96 1.126 0 2.058.059 2.797.179.739.12 1.622.32 2.65.601v3.188c-1.267-.197-2.822-.296-4.666-.296-.83 0-1.44.124-1.826.37-.387.246-.644.665-.77 1.256-.116.537-.179 1.336-.19 2.397v.326c0 1.154.063 2.027.19 2.618.126.591.33.996.612 1.214.281.218.675.327 1.182.327.886 0 1.66-.07 2.322-.21v-2.028h-2.174v-3.25a26.125 26.125 0 0 1 1.73-.148 33.671 33.671 0 0 1 1.964-.064c.732 0 1.534.014 2.407.042v9.31h-3.083l-.548-1.034c-.423.281-.993.542-1.71.781a7.163 7.163 0 0 1-2.28.359zm9.943-15.791h4.095v6.038h4.645v-6.038h4.095v15.685h-4.095V41.07h-4.645v5.974h-4.095V31.36zm18.747 0h5.108l4.645 15.685h-4.243l-.634-2.49h-4.708l-.612 2.49h-4.2l4.644-15.685zm3.926 9.521l-1.414-6.038-1.394 6.038h2.808zm7.094-9.521h3.25l5.51 8.74v-8.74h4.096v15.685h-3.25l-5.51-8.74v8.74h-4.096V31.36z"/>
            <path fill="#0081B7" d="M63.891 68.156l-1.013-8.466-2.07 8.466h-3.841l-2.048-8.276-.971 8.276H50l1.858-15.686H55.7l3.23 11.02 3.23-11.02h3.8l1.879 15.686H63.89zM69.74 52.47h4.095v15.686H69.74V52.47zm6.418 0h6.924c2.111 0 3.585.693 4.423 2.08.837 1.386 1.256 3.31 1.256 5.773 0 2.73-.464 4.719-1.393 5.964-.93 1.246-2.358 1.869-4.286 1.869h-6.924V52.47zm6.502 12.012c.76 0 1.284-.316 1.573-.95.288-.633.432-1.703.432-3.209 0-1.196-.077-2.093-.232-2.691-.155-.598-.373-.996-.654-1.193-.282-.197-.655-.296-1.12-.296h-2.406v8.34h2.407zM90.68 52.47h6.925c2.11 0 3.585.693 4.422 2.08.838 1.386 1.256 3.31 1.256 5.773 0 2.73-.464 4.719-1.393 5.964-.929 1.246-2.357 1.869-4.285 1.869H90.68V52.47zm6.502 12.012c.76 0 1.285-.316 1.573-.95.289-.633.433-1.703.433-3.209 0-1.196-.078-2.093-.232-2.691-.155-.598-.373-.996-.655-1.193-.281-.197-.654-.296-1.119-.296h-2.406v8.34h2.406zm12.097 3.674c-1.421 0-2.456-.324-3.103-.972-.648-.647-.971-1.681-.971-3.103V52.47h4.095v10.914c0 .732.366 1.098 1.098 1.098h4.56v3.674h-5.679zm11.4.126c-2.759 0-4.138-1.245-4.138-3.736v-8.192c0-1.393.384-2.389 1.15-2.987.768-.598 1.686-.897 2.756-.897 2.533 0 4.841.106 6.924.317v3.462h-5.658c-.717 0-1.076.31-1.076.929v1.309l5.679.21v3.252l-5.68.211v1.182c0 .366.082.64.244.824.161.183.383.274.665.274h5.826v3.462a34.88 34.88 0 0 1-3.156.285c-1.231.064-2.41.095-3.536.095zm18.81 0c-1.801 0-3.483-.204-5.046-.612v-3.251c1.408.127 3.02.19 4.835.19.718 0 1.245-.081 1.583-.243.338-.162.507-.44.507-.834v-.253c0-.296-.106-.524-.317-.686-.21-.162-.471-.243-.78-.243h-1.12c-1.675 0-2.924-.37-3.747-1.108-.823-.74-1.235-1.932-1.235-3.579v-.696c0-1.534.457-2.688 1.372-3.463.915-.774 2.26-1.16 4.032-1.16 1.549 0 3.181.203 4.898.612v3.25a55.061 55.061 0 0 0-4.39-.19c-.676 0-1.183.082-1.52.243-.339.162-.508.468-.508.919v.21c0 .719.458 1.078 1.373 1.078h1.393c1.421 0 2.516.394 3.283 1.182.767.788 1.15 1.815 1.15 3.082v.697c0 1.294-.225 2.297-.675 3.008a3.402 3.402 0 0 1-1.91 1.457c-.824.26-1.883.39-3.178.39zm13.047 0c-1.295 0-2.354-.21-3.178-.633-.823-.422-1.46-1.218-1.91-2.386-.45-1.168-.676-2.836-.676-5.003 0-2.097.236-3.726.708-4.887.471-1.161 1.122-1.96 1.952-2.396.83-.437 1.865-.655 3.104-.655 1.168 0 2.185.085 3.05.254.866.168 1.566.365 2.1.59v3.188a16.575 16.575 0 0 0-1.815-.253 25.943 25.943 0 0 0-2.428-.105c-.69 0-1.21.102-1.562.306-.352.204-.608.608-.77 1.214-.147.55-.228 1.367-.241 2.453l-.002.333c0 1.197.067 2.09.2 2.681.134.591.384 1.01.75 1.256.366.247.922.37 1.668.37l.82-.005c1.444-.016 2.571-.078 3.38-.185v3.188c-1.125.45-2.842.675-5.15.675zm7.072-15.812h4.095v6.038h4.645V52.47h4.095v15.686h-4.095V62.18h-4.645v5.975h-4.095V52.47zm21.47 15.812c-1.59 0-2.86-.21-3.81-.633-.95-.422-1.672-1.21-2.165-2.365-.492-1.154-.738-2.814-.738-4.982 0-2.167.246-3.828.738-4.982.493-1.154 1.214-1.942 2.164-2.364.95-.423 2.22-.634 3.81-.634 1.591 0 2.861.211 3.811.634.95.422 1.672 1.21 2.164 2.364.493 1.154.74 2.815.74 4.982 0 2.168-.247 3.828-.74 4.982-.492 1.155-1.214 1.943-2.164 2.365-.95.422-2.22.633-3.81.633zm0-3.673c.732 0 1.277-.116 1.636-.348.359-.233.612-.651.76-1.257.148-.605.222-1.505.222-2.702 0-1.238-.07-2.157-.211-2.755-.141-.598-.395-1.006-.76-1.224-.366-.218-.915-.327-1.647-.327s-1.28.109-1.647.327c-.366.218-.619.626-.76 1.224-.14.598-.21 1.517-.21 2.755 0 1.197.073 2.097.22 2.702.149.606.402 1.024.76 1.257.36.232.905.348 1.637.348zm14.947 3.673c-1.59 0-2.861-.21-3.811-.633-.95-.422-1.671-1.21-2.164-2.365-.492-1.154-.739-2.814-.739-4.982 0-2.167.247-3.828.74-4.982.492-1.154 1.213-1.942 2.163-2.364.95-.423 2.22-.634 3.81-.634 1.59 0 2.861.211 3.811.634.95.422 1.671 1.21 2.164 2.364.493 1.154.739 2.815.739 4.982 0 2.168-.246 3.828-.739 4.982-.493 1.155-1.214 1.943-2.164 2.365-.95.422-2.22.633-3.81.633zm0-3.673c.731 0 1.277-.116 1.636-.348.359-.233.612-.651.76-1.257.147-.605.221-1.505.221-2.702 0-1.238-.07-2.157-.21-2.755-.142-.598-.395-1.006-.76-1.224-.367-.218-.916-.327-1.647-.327-.732 0-1.281.109-1.647.327-.366.218-.62.626-.76 1.224s-.211 1.517-.211 2.755c0 1.197.074 2.097.221 2.702.148.606.402 1.024.76 1.257.36.232.905.348 1.637.348zm12.708 3.547c-1.421 0-2.455-.324-3.103-.972-.647-.647-.971-1.681-.971-3.103V52.47h4.096v10.914c0 .732.365 1.098 1.097 1.098h4.56v3.674h-5.679z"/>
        </g>
    </g>
</svg>
