<svg xmlns="http://www.w3.org/2000/svg" xmlns:xlink="http://www.w3.org/1999/xlink" width="300" height="100" viewBox="0 0 300 100">
    <defs>
        <path id="a" d="M0 .055h26.724v25.853H0z"/>
        <path id="c" d="M.125.083H25.98V26.83H.125z"/>
    </defs>
    <g fill="none" fill-rule="evenodd">
        <path fill="#FFF" d="M0 0h300v100H0z"/>
        <path fill="#000" fill-rule="nonzero" d="M132.972 34.559a4.915 4.915 0 0 0-.567.06c-.226.036-.418.081-.575.135a.598.598 0 0 0-.376.327 1.25 1.25 0 0 0-.098.498v6.864c0 .36-.072.74-.216 1.143a3.301 3.301 0 0 1-.633 1.077 3.41 3.41 0 0 1-1.147.866c-.443.206-.95.31-1.522.31-.887 0-1.606-.25-2.159-.747-.552-.498-.828-1.169-.828-2.012 0-.37.095-.698.285-.984.19-.285.468-.428.833-.428.326 0 .589.091.788.273.198.183.298.423.298.723 0 .174-.036.348-.107.522-.07.174-.15.33-.236.465l-.278.441a2.153 2.153 0 0 0-.22.457c.114.18.292.338.534.474.243.136.568.204.976.204.397 0 .722-.091.975-.274.253-.182.442-.426.568-.73.12-.283.205-.632.257-1.045.051-.414.077-.876.077-1.388v-6.13c0-.19-.031-.35-.094-.477-.062-.128-.191-.24-.387-.339a2.28 2.28 0 0 0-.633-.2 5.732 5.732 0 0 0-.624-.085v-.58h5.11v.58zm10.595.791a5.685 5.685 0 0 1 1.2 1.93c.288.754.432 1.588.432 2.502 0 .92-.147 1.755-.44 2.506a5.576 5.576 0 0 1-1.225 1.918 5.308 5.308 0 0 1-1.763 1.208 5.435 5.435 0 0 1-2.138.425c-.806 0-1.55-.151-2.233-.453a5.178 5.178 0 0 1-1.759-1.261c-.49-.528-.874-1.169-1.155-1.922a6.888 6.888 0 0 1-.42-2.42c0-.942.147-1.781.44-2.519.295-.737.7-1.375 1.217-1.914a5.25 5.25 0 0 1 1.783-1.224 5.463 5.463 0 0 1 2.127-.425c.767 0 1.49.145 2.17.433.681.288 1.269.694 1.764 1.216zm-1.216 8.212a5.42 5.42 0 0 0 .665-1.682 9.715 9.715 0 0 0 .208-2.098c0-.794-.077-1.523-.233-2.187-.155-.664-.382-1.23-.681-1.698a3.263 3.263 0 0 0-1.126-1.081c-.452-.259-.97-.388-1.551-.388-.653 0-1.208.15-1.665.449-.458.3-.83.7-1.119 1.2a5.753 5.753 0 0 0-.608 1.681 9.938 9.938 0 0 0-.2 2.024c0 .784.071 1.491.212 2.123.142.63.365 1.191.67 1.681.294.479.664.853 1.11 1.122.446.27.98.404 1.6.404.582 0 1.107-.136 1.575-.408a3.194 3.194 0 0 0 1.143-1.142zm16.292 2h-4.808v-.58l.567-.05c.248-.02.418-.054.51-.097a.692.692 0 0 0 .36-.298c.076-.133.114-.306.114-.518v-4.122h-5.444v4.032c0 .19.031.35.094.481.062.131.186.245.37.343.075.04.195.079.361.118l.134.03c.236.048.423.075.559.08v.58h-4.808v-.58l.568-.048.221-.026a1.1 1.1 0 0 0 .289-.072.692.692 0 0 0 .359-.298c.076-.133.114-.306.114-.518V35.66a1.07 1.07 0 0 0-.106-.477.737.737 0 0 0-.367-.339 2.954 2.954 0 0 0-.535-.188 3.084 3.084 0 0 0-.543-.097v-.58h4.808v.58c-.152.005-.339.03-.56.073l-.237.05c-.105.026-.19.05-.256.072-.185.066-.309.175-.371.327a1.298 1.298 0 0 0-.094.498v3.591h5.444v-3.51a1.07 1.07 0 0 0-.106-.477.737.737 0 0 0-.367-.339 2.954 2.954 0 0 0-.535-.188 3.084 3.084 0 0 0-.543-.097v-.58h4.808v.58c-.153.005-.339.03-.56.073l-.237.05c-.106.026-.19.05-.256.072-.185.066-.309.175-.372.327a1.298 1.298 0 0 0-.093.498v8.35c0 .19.03.35.093.481s.187.245.372.343c.074.04.194.079.36.118l.134.03c.236.048.423.075.559.08v.58zm13.517-11.003c-.153.005-.387.049-.702.13-.316.082-.542.166-.678.253-.196.136-.328.397-.396.784a8.72 8.72 0 0 0-.102 1.469v8.48h-.71l-7.02-9.476v5.975c0 .67.043 1.184.127 1.543s.214.615.388.767c.125.12.383.231.775.335l.269.068c.244.06.413.09.507.095v.58h-4.75v-.58c.146-.011.394-.064.742-.16.348-.095.566-.18.653-.256.19-.153.32-.385.392-.698.063-.282.098-.743.105-1.384v-5.926c0-.25-.043-.5-.13-.75a1.4 1.4 0 0 0-.35-.58c-.197-.18-.462-.333-.797-.461-.334-.128-.605-.198-.812-.208v-.58h3.306l6.513 8.832V37.3c0-.675-.043-1.193-.13-1.555-.087-.362-.212-.602-.376-.722-.152-.104-.4-.204-.746-.302s-.609-.153-.788-.163v-.58h4.71v.58zm15.77 11.002h-4.825v-.58a5.001 5.001 0 0 0 1.057-.162c.28-.082.42-.183.42-.302a1.213 1.213 0 0 0-.045-.31l-.983-2.653h-4.057l-.169.433c-.077.205-.145.393-.202.562l-.178.537-.08.247c-.07.234-.119.424-.146.571a2.06 2.06 0 0 0-.04.36c0 .217.17.386.513.506.343.12.73.19 1.16.212v.58h-4.36v-.58c.142-.011.32-.042.531-.094.213-.052.387-.121.523-.208.217-.147.386-.3.506-.461.12-.16.237-.383.35-.666l.398-.995c.203-.51.412-1.042.629-1.592l2.777-7.15h.653l3.861 9.99c.082.213.174.384.278.515.103.13.247.258.432.383.125.076.289.14.49.192.201.052.37.08.506.086v.58zm-4.67-4.734l-1.755-4.49-1.722 4.49h3.477zm16.178-.987c0 .984-.185 1.839-.555 2.563a5.245 5.245 0 0 1-1.445 1.779 6.274 6.274 0 0 1-2.016 1.037 7.836 7.836 0 0 1-2.31.342h-4.8v-.58c.127 0 .284-.009.47-.028l.147-.016c.253-.03.42-.064.502-.102a.698.698 0 0 0 .355-.314 1.06 1.06 0 0 0 .11-.502V35.66a1.26 1.26 0 0 0-.094-.497c-.062-.147-.186-.264-.371-.351a2.224 2.224 0 0 0-.547-.18 4.533 4.533 0 0 0-.506-.073v-.58h5.06c.697 0 1.383.107 2.058.322a6.13 6.13 0 0 1 1.763.87 5.008 5.008 0 0 1 1.6 1.902c.386.783.579 1.705.579 2.767zm-2-.009c0-.778-.103-1.481-.31-2.11a4.855 4.855 0 0 0-.906-1.644 3.993 3.993 0 0 0-1.383-1.053 4.254 4.254 0 0 0-1.825-.384l-.55.007-.83.026v8.905c0 .495.145.838.433 1.028.289.19.732.286 1.33.286.692 0 1.296-.122 1.813-.367a3.27 3.27 0 0 0 1.257-1.02 4.56 4.56 0 0 0 .739-1.588c.155-.601.232-1.297.232-2.086zm14.227 5.73h-4.824v-.58a5.001 5.001 0 0 0 1.057-.162c.28-.082.42-.183.42-.302a1.213 1.213 0 0 0-.045-.31l-.983-2.653h-4.057l-.169.433c-.051.137-.099.266-.141.387l-.239.712-.08.247-.073.26c-.032.12-.057.223-.073.311a2.06 2.06 0 0 0-.04.36c0 .217.17.386.513.506.343.12.73.19 1.16.212v.58h-4.36v-.58c.142-.011.32-.042.531-.094.213-.052.387-.121.523-.208.217-.147.386-.3.506-.461.12-.16.237-.383.35-.666l.813-2.043.432-1.102 2.56-6.592h.652l3.861 9.99c.082.213.174.384.278.515.103.13.247.258.432.383.125.076.289.14.49.192.201.052.37.08.506.086v.58zm-4.669-4.734l-1.755-4.49-1.722 4.49h3.477zm19.027 4.734h-5.118v-.58l.247-.012c.137-.01.292-.025.467-.044.291-.033.491-.08.6-.14.169-.102.292-.22.371-.354a.972.972 0 0 0 .119-.502v-8.424h-.123l-3.95 9.869h-.408L214.465 35.3h-.106v6.914c0 .67.042 1.178.126 1.526.085.348.214.599.388.751.12.114.367.223.743.327l.257.068c.232.06.392.09.477.095v.58h-4.677v-.58a6.02 6.02 0 0 0 .772-.123c.269-.06.477-.15.624-.269.19-.152.321-.386.392-.702.07-.316.106-.843.106-1.583v-5.926c0-.343-.04-.623-.123-.841a1.315 1.315 0 0 0-.35-.53 1.61 1.61 0 0 0-.62-.327 3.123 3.123 0 0 0-.727-.122v-.58h3.95l3.314 8.685 2.833-7.265c.103-.266.191-.545.265-.836l.054-.226c.039-.169.06-.288.064-.358h3.78v.58c-.153.005-.348.03-.584.073l-.254.05a2.45 2.45 0 0 0-.265.072.598.598 0 0 0-.375.327 1.25 1.25 0 0 0-.098.498v8.35c0 .19.033.35.098.481s.19.245.375.343c.082.046.217.088.404.128l.119.023c.25.047.449.072.596.078v.58zm8.766-5.313c.245.272.426.57.543.893.117.324.175.701.175 1.13 0 1.024-.378 1.867-1.134 2.531-.757.664-1.695.996-2.816.996-.517 0-1.034-.08-1.551-.24a5.985 5.985 0 0 1-1.339-.584l-.35.595h-.654l-.114-3.966h.661c.136.49.295.931.478 1.326.182.395.423.763.722 1.106.283.321.614.577.992.767.378.19.817.286 1.318.286.375 0 .703-.05.983-.147.28-.098.508-.237.682-.416a1.7 1.7 0 0 0 .388-.633 2.54 2.54 0 0 0 .126-.836c0-.463-.13-.894-.392-1.294-.26-.4-.65-.704-1.167-.91l-.449-.177-.767-.293a18.16 18.16 0 0 1-1.183-.485c-.653-.294-1.16-.68-1.523-1.155-.362-.476-.543-1.098-.543-1.865 0-.441.09-.852.27-1.233.18-.38.435-.72.767-1.02a3.478 3.478 0 0 1 1.118-.665c.43-.16.88-.241 1.347-.241.533 0 1.01.081 1.433.245.421.163.806.353 1.155.571l.334-.555h.653l.065 3.844h-.66c-.12-.44-.255-.862-.405-1.265a4.472 4.472 0 0 0-.583-1.093 2.678 2.678 0 0 0-.857-.755c-.338-.188-.751-.282-1.241-.282-.517 0-.958.166-1.322.498a1.583 1.583 0 0 0-.547 1.216c0 .5.117.916.35 1.245.235.329.575.6 1.021.812.298.143.592.271.882.385l.29.109c.383.139.754.287 1.114.445.326.141.64.302.942.481.302.18.565.39.788.629zm-97.877 24.537h-4.567v-.55l.538-.047c.236-.02.397-.052.485-.093a.657.657 0 0 0 .341-.283.986.986 0 0 0 .109-.492v-3.916h-5.172v3.83c0 .181.03.334.089.458.06.124.177.232.353.326.088.046.244.093.469.14l.247.045c.112.018.207.029.284.032v.55h-4.567v-.55l.539-.047c.235-.02.397-.052.484-.093a.657.657 0 0 0 .342-.283.986.986 0 0 0 .108-.492v-7.94c0-.166-.033-.317-.1-.454a.7.7 0 0 0-.35-.322 2.806 2.806 0 0 0-.507-.178 2.93 2.93 0 0 0-.516-.093v-.551h4.567v.55a3.457 3.457 0 0 0-.531.07c-.21.042-.366.08-.47.117a.554.554 0 0 0-.352.31c-.06.145-.09.302-.09.473v3.412h5.173v-3.335c0-.165-.034-.316-.1-.453a.7.7 0 0 0-.35-.322 2.806 2.806 0 0 0-.508-.178 2.93 2.93 0 0 0-.515-.093v-.551h4.567v.55a3.457 3.457 0 0 0-.531.07c-.21.042-.366.08-.47.117a.554.554 0 0 0-.352.31c-.06.145-.09.302-.09.473v7.932c0 .181.03.334.09.458s.177.232.352.326c.088.046.245.093.47.14l.247.045c.111.018.206.029.284.032v.55zm6.358 0h-4.955v-.55l.605-.047c.264-.02.45-.052.558-.093a.767.767 0 0 0 .373-.275c.077-.116.116-.278.116-.485v-7.971c0-.181-.028-.332-.085-.454-.057-.121-.192-.223-.404-.306a4.075 4.075 0 0 0-.585-.175 3.866 3.866 0 0 0-.578-.096v-.551h4.955v.55c-.16.006-.351.025-.574.059a3.943 3.943 0 0 0-.581.128c-.197.062-.328.162-.396.302-.067.14-.1.295-.1.465v7.964c0 .17.037.322.112.454a.768.768 0 0 0 .384.314c.087.033.217.068.392.106l.139.03c.246.048.454.075.624.08v.551zm12.027-4.962v.566l-.351.05-.15.023a1.88 1.88 0 0 0-.507.144.68.68 0 0 0-.33.33 1.2 1.2 0 0 0-.097.5l.003 1.56c.002.245.005.428.01.549l.012.296c.004.09.01.169.014.239a11.7 11.7 0 0 1-2.055.713 8.506 8.506 0 0 1-2.008.248c-.703 0-1.38-.132-2.032-.395a5.082 5.082 0 0 1-1.705-1.125 5.412 5.412 0 0 1-1.171-1.79c-.29-.704-.435-1.49-.435-2.358 0-.838.139-1.614.415-2.33a5.54 5.54 0 0 1 1.175-1.865 5.159 5.159 0 0 1 1.756-1.206 5.555 5.555 0 0 1 2.183-.43c.62 0 1.16.075 1.62.225.46.15.867.33 1.218.542l.318-.527h.62l.07 3.846h-.636a10.861 10.861 0 0 0-.403-1.252 4.377 4.377 0 0 0-.62-1.105 2.866 2.866 0 0 0-.927-.78c-.364-.193-.8-.29-1.306-.29-.554 0-1.047.112-1.481.337-.435.225-.812.56-1.133 1.004-.315.43-.558.964-.728 1.605a8.353 8.353 0 0 0-.256 2.148c0 .698.084 1.356.252 1.974.168.617.412 1.151.732 1.6a3.5 3.5 0 0 0 1.202 1.087c.481.263 1.026.395 1.636.395.455 0 .87-.07 1.245-.21.375-.139.64-.286.795-.441.041-.27.063-.54.066-.815l.004-.697v-.605c0-.217-.03-.41-.09-.578a.617.617 0 0 0-.368-.368 2.52 2.52 0 0 0-.694-.175l-.32-.04a7.47 7.47 0 0 0-.366-.033v-.566h4.823zm12.26 4.962h-4.568v-.55l.54-.047c.234-.02.396-.052.484-.093a.657.657 0 0 0 .34-.283.986.986 0 0 0 .11-.492v-3.916h-5.173v3.83c0 .181.03.334.09.458.059.124.177.232.352.326.088.046.245.093.47.14l.246.045c.112.018.207.029.285.032v.55h-4.568v-.55l.54-.047c.235-.02.396-.052.484-.093a.657.657 0 0 0 .341-.283.986.986 0 0 0 .109-.492v-7.94c0-.166-.034-.317-.101-.454a.7.7 0 0 0-.349-.322 2.806 2.806 0 0 0-.508-.178 2.93 2.93 0 0 0-.516-.093v-.551h4.568v.55a3.457 3.457 0 0 0-.531.07c-.21.042-.366.08-.47.117a.554.554 0 0 0-.352.31c-.06.145-.09.302-.09.473v3.412h5.172v-3.335c0-.165-.033-.316-.1-.453a.7.7 0 0 0-.35-.322 2.806 2.806 0 0 0-.507-.178 2.93 2.93 0 0 0-.516-.093v-.551h4.567v.55a3.457 3.457 0 0 0-.53.07c-.21.042-.367.08-.47.117a.554.554 0 0 0-.353.31c-.06.145-.089.302-.089.473v7.932c0 .181.03.334.09.458.059.124.176.232.352.326.088.046.244.093.47.14l.246.045c.112.018.207.029.284.032v.55zm12.228-5.048c.232.259.404.542.515.85.112.307.167.665.167 1.073 0 .972-.36 1.773-1.078 2.404-.718.63-1.61.946-2.675.946-.491 0-.982-.076-1.473-.229a5.685 5.685 0 0 1-1.272-.554l-.333.566h-.62l-.11-3.769h.629c.13.466.28.886.453 1.26a4.4 4.4 0 0 0 .687 1.051c.269.305.583.548.942.73.36.18.777.27 1.252.27.357 0 .668-.046.935-.14.266-.092.482-.224.647-.395.165-.17.288-.37.368-.6.08-.23.12-.495.12-.795 0-.44-.124-.85-.372-1.23s-.617-.668-1.109-.864l-.426-.168-.729-.278a17.253 17.253 0 0 1-1.124-.461c-.62-.28-1.103-.645-1.446-1.097-.344-.453-.516-1.043-.516-1.772 0-.419.085-.81.256-1.171a3.05 3.05 0 0 1 .729-.97c.3-.268.654-.479 1.062-.631a3.628 3.628 0 0 1 1.28-.23c.506 0 .96.078 1.36.233.401.156.767.337 1.098.543l.317-.527h.62l.063 3.652h-.628c-.114-.418-.242-.82-.384-1.202a4.249 4.249 0 0 0-.554-1.039 2.544 2.544 0 0 0-.815-.717c-.32-.178-.713-.268-1.178-.268a1.8 1.8 0 0 0-1.256.473c-.347.316-.52.701-.52 1.156 0 .475.111.87.333 1.182.223.313.546.57.97.772.377.18.748.337 1.112.47.365.13.718.272 1.059.422.31.134.609.287.895.457.287.17.537.37.749.597zm6.909 5.304c-.657 0-1.286-.13-1.888-.388a4.844 4.844 0 0 1-1.602-1.116 5.43 5.43 0 0 1-1.1-1.78c-.275-.7-.412-1.49-.412-2.369 0-.879.135-1.676.403-2.392a5.608 5.608 0 0 1 1.117-1.85 4.893 4.893 0 0 1 1.667-1.186 5.09 5.09 0 0 1 2.055-.418c.543 0 1.034.067 1.473.201.44.135.859.323 1.257.566l.318-.527h.62l.07 3.924h-.636a9.25 9.25 0 0 0-.372-1.245 4.809 4.809 0 0 0-.582-1.136 2.82 2.82 0 0 0-.884-.826 2.28 2.28 0 0 0-1.17-.298c-.502 0-.969.11-1.4.333-.432.222-.806.55-1.12.985-.3.419-.536.951-.707 1.597a8.477 8.477 0 0 0-.255 2.164c0 .703.089 1.348.267 1.934.178.587.433 1.103.764 1.547.33.44.722.784 1.175 1.032a3.1 3.1 0 0 0 1.516.372c.418 0 .803-.066 1.155-.198a3.1 3.1 0 0 0 .915-.523c.258-.228.486-.486.682-.776.197-.29.357-.605.481-.946l.582.28c-.445 1.09-1.034 1.87-1.768 2.337-.734.468-1.608.702-2.621.702zm16.741-.256h-4.567v-.55l.539-.047c.235-.02.397-.052.484-.093a.657.657 0 0 0 .342-.283.986.986 0 0 0 .108-.492v-3.916h-5.172v3.83c0 .181.03.334.09.458.059.124.176.232.352.326.088.046.244.093.47.14l.246.045c.112.018.207.029.284.032v.55h-4.567v-.55l.54-.047c.234-.02.396-.052.484-.093a.657.657 0 0 0 .34-.283.986.986 0 0 0 .11-.492v-7.94c0-.166-.034-.317-.101-.454a.7.7 0 0 0-.35-.322 2.806 2.806 0 0 0-.507-.178 2.93 2.93 0 0 0-.516-.093v-.551h4.567v.55a3.457 3.457 0 0 0-.53.07c-.21.042-.367.08-.47.117a.554.554 0 0 0-.353.31c-.06.145-.089.302-.089.473v3.412h5.172v-3.335c0-.165-.033-.316-.1-.453a.7.7 0 0 0-.35-.322 2.806 2.806 0 0 0-.508-.178 2.93 2.93 0 0 0-.515-.093v-.551h4.567v.55a3.457 3.457 0 0 0-.531.07c-.21.042-.366.08-.47.117a.554.554 0 0 0-.352.31c-.06.145-.09.302-.09.473v7.932c0 .181.03.334.09.458s.177.232.353.326c.088.046.244.093.469.14l.247.045c.112.018.207.029.284.032v.55zm10.437-9.7a5.4 5.4 0 0 1 1.14 1.834c.274.716.411 1.508.411 2.376 0 .874-.14 1.667-.419 2.38a5.298 5.298 0 0 1-1.163 1.823c-.48.496-1.039.879-1.675 1.148a5.163 5.163 0 0 1-2.031.403 5.185 5.185 0 0 1-2.121-.43 4.919 4.919 0 0 1-1.671-1.199 5.43 5.43 0 0 1-1.097-1.826 6.544 6.544 0 0 1-.4-2.299c0-.894.14-1.691.419-2.392.28-.7.664-1.307 1.155-1.818a4.988 4.988 0 0 1 1.695-1.163 5.19 5.19 0 0 1 2.02-.404c.729 0 1.416.137 2.062.411.646.274 1.205.66 1.675 1.156zm-1.155 7.8c.29-.47.5-1.002.632-1.597a9.229 9.229 0 0 0 .198-1.993c0-.755-.074-1.447-.221-2.078-.148-.63-.364-1.168-.648-1.613a3.1 3.1 0 0 0-1.07-1.027c-.43-.246-.92-.369-1.473-.369-.62 0-1.148.143-1.582.427a3.314 3.314 0 0 0-1.063 1.14 5.465 5.465 0 0 0-.577 1.597 9.441 9.441 0 0 0-.19 1.923c0 .745.067 1.417.201 2.016.135.6.347 1.132.636 1.598.28.455.631.81 1.055 1.066.424.256.93.384 1.52.384.553 0 1.052-.13 1.496-.388.445-.258.807-.62 1.086-1.086zm12.973-7.8a5.4 5.4 0 0 1 1.14 1.834c.273.716.41 1.508.41 2.376 0 .874-.14 1.667-.418 2.38a5.298 5.298 0 0 1-1.163 1.823c-.481.496-1.04.879-1.675 1.148a5.163 5.163 0 0 1-2.032.403 5.185 5.185 0 0 1-2.12-.43 4.919 4.919 0 0 1-1.672-1.199 5.43 5.43 0 0 1-1.097-1.826 6.544 6.544 0 0 1-.4-2.299c0-.894.14-1.691.42-2.392.279-.7.664-1.307 1.155-1.818a4.988 4.988 0 0 1 1.694-1.163 5.19 5.19 0 0 1 2.02-.404c.729 0 1.417.137 2.063.411.646.274 1.204.66 1.675 1.156zm-1.156 7.8c.29-.47.5-1.002.632-1.597a9.229 9.229 0 0 0 .198-1.993c0-.755-.074-1.447-.221-2.078-.147-.63-.363-1.168-.648-1.613a3.1 3.1 0 0 0-1.07-1.027c-.429-.246-.92-.369-1.473-.369-.62 0-1.148.143-1.582.427a3.314 3.314 0 0 0-1.062 1.14 5.465 5.465 0 0 0-.578 1.597 9.441 9.441 0 0 0-.19 1.923c0 .745.067 1.417.202 2.016.134.6.346 1.132.636 1.598.279.455.63.81 1.054 1.066.424.256.93.384 1.52.384.553 0 1.052-.13 1.497-.388.444-.258.806-.62 1.085-1.086zm12.919-1.372l-.233 3.272h-8.6v-.55l.284-.027.256-.028c.235-.025.399-.06.492-.1a.669.669 0 0 0 .337-.295c.07-.13.105-.295.105-.496V55.41c0-.175-.03-.33-.09-.465-.059-.134-.176-.243-.352-.326a2.65 2.65 0 0 0-.5-.182 2.868 2.868 0 0 0-.531-.104v-.551h4.644v.55a3.616 3.616 0 0 0-.562.078l-.245.053a2.655 2.655 0 0 0-.255.071.578.578 0 0 0-.36.318c-.065.15-.097.31-.097.48v7.39c0 .342.016.607.05.795a.709.709 0 0 0 .237.439c.118.093.295.153.53.182a11.969 11.969 0 0 0 1.586.027c.207-.01.404-.031.59-.062.18-.031.347-.074.5-.128a.793.793 0 0 0 .337-.206c.186-.208.398-.51.637-.906l.104-.175c.281-.484.477-.875.585-1.175h.55z"/>
        <path fill="#1D273F" d="M75.823 43.926c-.076.162-.19.39-.291.624-.139.32-.062.525.32.526 1.959.002 3.917 0 5.967 0l-.233-1.147c-.748-.291-1.417-.533-2.067-.819-.129-.056-.256-.275-.264-.426-.096-1.75-.171-3.502-.249-5.253-.067-1.536-.144-3.072-.178-4.61-.004-.177.194-.437.368-.53a2.736 2.736 0 0 1 2.386-.124c.798.324 1.571.707 2.384 1.077-.159.405-.314.778-.453 1.157-.71 1.934-1.404 3.874-2.136 5.8-.164.43.012.623.322.823.7.453 4.445.46 5.108-.033.17-.126.365-.453.313-.606-.696-2.02-1.427-4.03-2.165-6.035-.2-.543-.568-1.07.122-1.56-.595-.153-1.15-.214-1.632-.436-1.472-.68-2.91-1.451-4.572-.578l-.156-.827-.184-.001-.205.826c-1.264-.657-2.456-.37-3.647.138-.755.32-1.531.589-2.388.915l.426.538-2.588 7.227c.243.172.49.495.747.503 1.49.05 2.983.068 4.471-.002.32-.015.792-.313.57-.892a158.167 158.167 0 0 1-1.167-3.17c-.457-1.277-.899-2.56-1.382-3.937 1.025-.403 1.957-.907 2.95-1.108.596-.12 1.31.18 1.917.425.116.046-.024.719-.04 1.103-.007.169 0 .339 0 .509v8.945l-2.374.958zm13.895 5.005H63.01c-.161-13.46 11.559-26.578 26.708-26.785V48.93z"/>
        <g transform="translate(63 51.326)">
            <mask id="b" fill="#fff">
                <use xlink:href="#a"/>
            </mask>
            <path fill="#1D273F" d="M22.95 14.357c.034-.529-1.069-1.72-1.644-1.778-.558-.055-1.754 1.082-1.78 1.693-.025.575 1.13 1.745 1.734 1.757.593.012 1.65-1.033 1.69-1.672zm-10.454-1.686c-.504.247-.94.598-1.415.663-.785.106-1.595.02-2.394.03-.602.008-.612-.247-.315-.658.52-.723.995-1.485 1.577-2.155.508-.586.497-1.008-.026-1.577-.606-.657-1.106-1.412-1.739-2.238.69 0 1.198.04 1.697-.008.982-.092 1.865-.017 2.364 1.007.031.063.14.089.225.14V6.257H6.207c.106.207.154.335.23.444.719 1.021 1.42 2.056 2.176 3.05.275.361.266.6-.001.94-.726.926-1.427 1.87-2.12 2.82-.133.182-.183.425-.294.697h6.298V12.67zm7.082-9.898c-.182-.116-.32-.213-.466-.297-1.031-.592-1.996-.328-2.543.723-.068.13-.047.408.047.505.475.484.253.683-.25.93-1.226.597-1.301 1.774-.121 2.428.502.279.66.536.64 1.09-.035 1.022.784 1.78 1.81 1.738.161-.007.425-.16.453-.288.179-.803.544-.553 1.022-.266 1.186.71 2.09.167 2.101-1.228.002-.24 0-.48 0-.7 1.405-.62 1.523-.867 1.304-2.432-.067-.472-.343-.661-.737-.547-.553.161-.57-.132-.563-.517a6.957 6.957 0 0 0-.007-.58c-.066-.985-.82-1.473-1.72-1.095-.33.138-.63.345-.97.536zm.13 15.639c-.38-.232-.245-.446.008-.68.565-.52.547-.822.01-1.351-.129-.128-.208-.384-.19-.568.066-.655-.244-.987-.872-.958a.966.966 0 0 1-.67-.26c-.43-.454-.823-.454-1.237.015a.843.843 0 0 1-.598.253c-.68-.038-.994.284-.934.956a.817.817 0 0 1-.25.601c-.5.43-.503.84-.002 1.293.146.132.268.398.247.586-.07.633.259.972.907.959.234-.005.464.223.71.3.323.1.927.274.952.216.286-.656.816-.55 1.335-.518-.21.645.045 1.308.43 1.146.391-.164.493-.01.69.217.314.36.635.331.993.007.183-.164.462-.222.698-.328l.16.192c.284-.578.72-1.135.802-1.74.067-.49-.147-1.203-.502-1.518-.501-.445-1.247-.613-1.943-.924-.102.862-.106.86-.734 1.752-.057.08-.01.232-.01.352zM0 .055h26.724v25.851C13.57 26.094.607 14.767 0 .055z" mask="url(#b)"/>
        </g>
        <g transform="translate(92.11 22.07)">
            <mask id="d" fill="#fff">
                <use xlink:href="#c"/>
            </mask>
            <path fill="#1D273F" d="M17.151 21.67c-.196-.183-.226-.223-.266-.247-1.173-.707-1.197-.7-1.788.482-.244.487-.495.97-.743 1.455l.178.145 2.62-1.835zm.164-9.905c-.844-1.012-1.757-1.737-3.055-2.21.296.534.525.92.726 1.32.205.406.346.85.59 1.228.098.15.428.277.6.228.354-.1.674-.325 1.14-.566zM9.128 23.666l.153-.192-1.433-2.713-1.54.718-.053.277 2.873 1.91zm-1.4-11.102l1.593-3.08c-1.392.43-2.41 1.204-3.329 2.307l1.736.773zm.963 7.965l-.188.256c.617.957 1.207 1.934 1.87 2.857.15.207.555.228.912.36v-3.906l-2.594.433zm2.602-11.435c-.36.104-.779.094-.948.296-.833.992-1.492 2.095-1.867 3.441l2.815.462V9.094zm.7 11.007v3.843c.411-.058.886.02 1.086-.179.869-.861 1.46-1.915 1.888-3.167l-2.973-.497zm-3.791-6.62c-.112.76-.25 1.512-.31 2.27-.01.145.285.44.451.45.842.045 1.688.037 2.53.003.159-.006.434-.204.442-.328.044-.661.02-1.326.02-1.948l-3.133-.447zm9.454 2.74c.218 0 .439-.022.654.004.623.074.884-.166.679-.783-.302-.904-.601-1.81-.965-2.69-.064-.155-.478-.312-.657-.252-1.475.495-1.47.51-1.16 2.032.029.142.047.287.058.432.099 1.257.098 1.257 1.39 1.257zm-5.71-2.25c0 .59-.036 1.215.024 1.83.016.156.33.393.517.402.866.043 1.736.01 2.604.023.396.006.603-.143.553-.551-.079-.645-.148-1.294-.277-1.929-.026-.13-.314-.317-.455-.296-.966.142-1.925.332-2.966.52zm.049-4.746v4.068l3.041-.507c-.084-.311-.11-.58-.226-.802-.37-.696-.781-1.37-1.164-2.059-.365-.66-.905-.883-1.651-.7zm-.685 7.717H7.777l.519 2.971 3.014-.456v-2.515zm6.266 4.014c.898-1.205 1.43-2.514 1.453-4.041H16.42c-.184 1.01-.37 1.95-.513 2.895-.026.17.071.463.2.53.459.241.956.409 1.469.616zm-10.01-7.719c-.506-.239-1.116-.555-1.751-.805-.131-.052-.475.096-.522.225a46.562 46.562 0 0 0-1.023 3.114c-.03.104.271.427.434.44.648.048 1.303.003 1.955.015.424.008.582-.157.61-.595.052-.762.184-1.519.297-2.394zm4.42 6.183c.965.183 1.881.368 2.803.516.133.02.405-.118.428-.223.198-.905.354-1.819.535-2.793h-3.766v2.5zm-7.722-2.496a6.522 6.522 0 0 0 1.222 3.662c.11.155.5.32.565.262.492-.441 1.594-.174 1.59-1.063-.005-.94-.325-1.88-.515-2.86H4.264zM.125.083C14.16.916 25.583 12.48 25.98 26.83H.125V.083z" mask="url(#d)"/>
        </g>
        <path fill="#1D273F" d="M109.147 61.652c-1.787.868-3.421 1.67-5.067 2.448a.8.8 0 0 1-.607.003c-1.643-.782-3.273-1.59-5.01-2.442 0 .558-.062 1.043.022 1.5.05.27.282.56.513.733.726.544 1.571.953 2.221 1.57.93.884 1.73 1.906 2.612 2.899.11-.125.263-.27.382-.438 1.207-1.716 2.609-3.208 4.564-4.095.166-.075.337-.324.353-.506.048-.52.017-1.046.017-1.672zm-14.51-2.424c.745.396 1.28.8 1.883.975.935.27 1.142.822 1.082 1.712-.075 1.135.012 2.28-.028 3.419-.03.857-.149 1.711-.229 2.575h.903c-.078-.921-.189-1.776-.212-2.633-.036-1.285.009-2.571-.019-3.856-.01-.463.137-.688.59-.832 1.53-.485 3.038-1.042 4.573-1.51.396-.12.862-.012 1.296-.009l-.021.177-5.99 1.742c1.562.965 3.103 1.703 4.62 2.488.548.283 1.016.174 1.507-.072 1.749-.873 3.497-1.745 5.245-2.62.976-.489 1.95-.984 3.09-1.56-3.083-1.517-5.983-2.95-8.895-4.36-.173-.083-.471-.026-.664.066a360.27 360.27 0 0 0-4.987 2.41c-1.196.588-2.38 1.199-3.744 1.888zm23.41-7.822c-.982 15.575-14.076 25.559-25.809 25.793V51.406h25.809z"/>
        <path fill="#FFF" d="M72.88 40.417v-6.35l-.096-.006-2.265 6.356h2.36zm13.941.028l-2.283-6.415-.087.024v6.39h2.37zm-11.169-.078l-2.3-6.428-.142.038v4.39c0 2.126 0 2.127 2.122 2.07.046 0 .092-.019.32-.07zm6.005.12c.672 0 1.225-.033 1.772.009.566.043.767-.144.752-.73-.037-1.5-.013-3-.014-4.5v-1.257L84 33.983l-2.342 6.504zm-5.834 3.439l2.375-.958v-8.945c0-.17-.008-.34 0-.51.015-.383.155-1.056.039-1.102-.607-.245-1.32-.545-1.916-.425-.994.2-1.926.705-2.95 1.108.482 1.378.924 2.66 1.381 3.938.38 1.06.766 2.117 1.168 3.169.22.579-.25.877-.571.892-1.488.07-2.982.053-4.471.002-.257-.008-.504-.33-.747-.503l2.588-7.227-.426-.538c.857-.326 1.633-.594 2.388-.915 1.191-.508 2.383-.795 3.647-.138l.205-.827.184.002.156.827c1.661-.873 3.1-.102 4.572.578.481.222 1.037.282 1.632.436-.69.49-.322 1.017-.122 1.56.738 2.006 1.47 4.014 2.164 6.035.053.153-.142.48-.312.606-.663.493-4.408.486-5.108.033-.31-.2-.486-.393-.322-.823.732-1.925 1.425-3.866 2.136-5.8.14-.378.294-.752.453-1.157-.813-.37-1.586-.753-2.384-1.077a2.736 2.736 0 0 0-2.386.125c-.174.092-.372.352-.368.53.034 1.537.11 3.073.178 4.609.078 1.751.153 3.503.249 5.253.008.15.135.37.264.426.65.286 1.319.528 2.067.819l.233 1.148-5.966-.001c-.383 0-.46-.206-.321-.526.1-.234.215-.462.291-.624zM85.324 58.302c.286-.224.63-.414.851-.698.118-.15.126-.572.007-.684-.295-.277-.69-.446-1.029-.648-.325.591-.478 1.259.17 2.03zm-4.826-2.858c.742.143 1.26-.336 1.78-1.177-.481-.14-.888-.298-1.308-.353-.118-.015-.357.26-.398.435-.078.338-.054.7-.074 1.095zm-.184 3.51c.004.662-.165 1.328.459 1.533l1.404-.472c-.326-.739-.95-1.062-1.863-1.06zm4.694.028c-1.092-.021-1.676.327-2.08 1.29.556.06 1.164.31 1.5.109.327-.197.376-.857.58-1.4zm-.2-3.576c-.005-.512.263-1.15-.403-1.443-.564-.247-1.046.07-1.43.475.449.658.939 1.162 1.834.968zm-4.635.61c-.755.378-1.434.598-1.303 1.337.091.519.552.857 1.303.864v-2.2zm2.435-.347c-.85-.002-1.715.772-1.726 1.547-.01.768.89 1.599 1.722 1.591.784-.007 1.667-.813 1.7-1.551.03-.685-.93-1.585-1.696-1.587zm-.03-1.57c.34-.191.64-.398.97-.536.9-.378 1.654.11 1.72 1.094.012.193.01.387.007.58-.006.385.01.68.563.518.394-.114.67.075.737.547.22 1.565.101 1.812-1.304 2.431 0 .222.002.461 0 .7-.011 1.396-.915 1.939-2.1 1.229-.479-.287-.844-.537-1.023.266-.028.127-.292.281-.452.288-1.027.041-1.846-.716-1.81-1.739.019-.553-.14-.81-.641-1.089-1.18-.654-1.105-1.83.12-2.429.504-.246.726-.446.251-.93-.094-.096-.115-.374-.047-.505.547-1.05 1.512-1.315 2.543-.722.146.083.284.18.466.297zM75.496 63.997v1.536h-6.298c.11-.27.161-.514.294-.696a101.6 101.6 0 0 1 2.12-2.82c.267-.341.276-.579 0-.941-.755-.994-1.456-2.028-2.175-3.05-.076-.108-.124-.236-.23-.444h6.264v1.619c-.086-.052-.195-.077-.226-.14-.499-1.024-1.383-1.1-2.364-1.007-.499.047-1.006.008-1.697.008.633.826 1.133 1.58 1.739 2.238.523.569.534.991.026 1.577-.582.67-1.057 1.432-1.577 2.154-.297.412-.287.667.315.66.8-.01 1.61.075 2.394-.031.475-.065.911-.416 1.415-.663M80.366 67.342c-.61.01-1.047.458-1.032 1.058.014.577.504 1.06 1.065 1.052.605-.009 1.003-.441 1-1.086-.004-.65-.39-1.034-1.033-1.024m1.758 3.24c-.519-.033-1.05-.139-1.335.518-.025.058-.629-.116-.953-.217-.245-.077-.476-.304-.71-.3-.647.014-.977-.325-.906-.958.021-.188-.101-.454-.247-.586-.501-.454-.499-.864.002-1.293a.816.816 0 0 0 .25-.6c-.06-.674.253-.995.934-.957a.843.843 0 0 0 .598-.253c.414-.47.807-.47 1.238-.015.151.16.446.27.67.26.627-.03.937.303.871.957-.018.185.061.441.19.569.537.53.555.831-.01 1.351-.253.234-.387.448-.008.68-.195.28-.39.562-.584.844"/>
        <path fill="#FFF" d="M84.697 69.708c-.207-.151-.497-.521-.833-.57-.463-.066-.81.284-.822.798-.013.519.269.803.797.798.51-.004.806-.253.858-1.026m-2.573.874l.584-.845c0-.119-.047-.272.01-.352.628-.892.633-.889.734-1.751.695.31 1.442.479 1.943.924.355.315.569 1.028.502 1.518-.081.605-.518 1.162-.802 1.74l-.16-.192c-.236.106-.515.163-.698.328-.358.324-.68.353-.993-.007-.197-.227-.299-.381-.689-.217-.386.161-.64-.5-.431-1.146M84.258 64.774c-.295.366-.652.623-.621.818.037.233.38.502.642.577.12.034.505-.353.511-.557.007-.228-.279-.465-.532-.838m1.692.91c-.04.638-1.097 1.683-1.69 1.67-.604-.011-1.759-1.182-1.734-1.756.026-.611 1.222-1.748 1.78-1.693.575.057 1.678 1.249 1.644 1.778M96.375 38.994h2.861c.19.982.51 1.92.515 2.86.004.89-1.097.623-1.59 1.064-.064.058-.455-.107-.565-.262a6.522 6.522 0 0 1-1.221-3.662M104.096 41.49v-2.5h3.766c-.18.974-.336 1.888-.535 2.793-.023.105-.294.244-.428.223-.922-.148-1.838-.334-2.803-.516M99.676 35.307c-.113.875-.245 1.632-.296 2.394-.029.437-.187.603-.611.595-.652-.012-1.306.033-1.954-.016-.164-.012-.465-.336-.435-.439a46.53 46.53 0 0 1 1.023-3.114c.048-.129.391-.277.522-.225.635.25 1.245.566 1.751.805M109.686 43.026c-.512-.207-1.01-.375-1.469-.616-.128-.067-.226-.36-.2-.53.144-.945.33-1.885.514-2.895h2.609c-.025 1.527-.556 2.836-1.454 4.041M103.42 39.012v2.515l-3.014.456-.519-2.971h3.533zM104.105 31.295c.747-.183 1.286.04 1.652.7.382.69.793 1.363 1.163 2.06.117.22.142.49.227.8l-3.042.508v-4.068zM104.056 36.04c1.041-.188 2-.378 2.967-.52.14-.02.428.166.454.296.13.635.199 1.283.278 1.928.05.408-.158.558-.553.552-.869-.013-1.739.02-2.605-.023-.186-.01-.501-.246-.516-.402-.06-.615-.025-1.24-.025-1.83M109.766 38.29c-1.292.001-1.292.001-1.39-1.256a3.555 3.555 0 0 0-.059-.432c-.309-1.522-.315-1.537 1.16-2.032.18-.06.593.096.658.252.363.88.663 1.786.964 2.69.205.617-.056.856-.679.782-.215-.025-.436-.004-.654-.003M100.312 35.55l3.134.448c0 .622.024 1.287-.02 1.948-.009.124-.284.322-.442.328-.843.033-1.69.042-2.53-.004-.166-.009-.462-.304-.45-.448.058-.759.197-1.511.308-2.272M104.104 42.17c1.008.17 1.944.326 2.974.498-.43 1.252-1.02 2.306-1.888 3.167-.2.199-.675.12-1.086.178v-3.842zM103.404 31.164v4.2l-2.815-.463c.375-1.346 1.033-2.45 1.867-3.441.168-.202.588-.192.948-.296M100.801 42.598l2.595-.433v3.907c-.357-.132-.764-.153-.912-.36-.663-.923-1.254-1.9-1.87-2.857l.187-.257M99.838 34.634l-1.735-.773c.918-1.103 1.936-1.877 3.329-2.307l-1.594 3.08M101.239 45.736l-2.874-1.91.054-.278 1.54-.717 1.433 2.713-.153.192M109.425 33.835c-.464.241-.784.466-1.14.566-.17.049-.5-.078-.598-.229-.245-.377-.386-.82-.59-1.226-.202-.4-.431-.787-.727-1.322 1.298.474 2.212 1.2 3.055 2.211M109.262 43.74l-2.62 1.834-.177-.144c.248-.485.499-.968.742-1.455.591-1.182.615-1.19 1.788-.482.04.024.07.064.267.247M94.637 59.228c1.364-.689 2.548-1.3 3.744-1.888 1.656-.815 3.318-1.62 4.987-2.41.193-.091.49-.15.664-.066 2.912 1.41 5.812 2.843 8.895 4.36-1.14.576-2.114 1.071-3.09 1.56-1.747.875-3.496 1.747-5.245 2.62-.491.246-.96.355-1.507.072-1.517-.785-3.058-1.523-4.62-2.488l5.99-1.742.02-.177c-.433-.003-.899-.111-1.295.01-1.535.467-3.043 1.024-4.573 1.509-.453.144-.6.37-.59.832.028 1.285-.017 2.571.019 3.856.023.857.134 1.712.212 2.633h-.903c.08-.864.2-1.718.23-2.575.039-1.139-.048-2.284.027-3.419.06-.89-.147-1.442-1.082-1.712-.602-.174-1.138-.579-1.883-.975"/>
        <path fill="#FFF" d="M109.147 61.652c0 .626.03 1.153-.017 1.672-.016.182-.187.43-.353.506-1.955.887-3.357 2.379-4.564 4.095-.119.169-.272.313-.382.438-.882-.993-1.681-2.015-2.612-2.899-.65-.617-1.495-1.026-2.22-1.57-.232-.173-.464-.462-.514-.732-.084-.458-.023-.943-.023-1.501 1.738.852 3.368 1.66 5.01 2.442a.8.8 0 0 0 .608-.003c1.646-.778 3.28-1.58 5.067-2.448"/>
        <path fill="#1D273F" d="M81.657 40.487l2.342-6.504.168.026v1.257c0 1.5-.023 3 .014 4.5.014.586-.186.773-.752.73-.547-.042-1.1-.01-1.772-.01M75.653 40.367c-.23.052-.275.07-.32.07-2.123.057-2.123.056-2.123-2.07v-4.39l.142-.038 2.3 6.428M86.821 40.445h-2.37v-6.391l.087-.024 2.283 6.415M72.88 40.417h-2.36l2.264-6.356.095.006v6.35zM82.866 58.076c.151-.227.508-.531.545-.87.056-.51-.325-.876-.863-.85-.48.023-.802.324-.797.85.005.564.338.813 1.115.87m-.258-2.407c.765.002 1.726.902 1.696 1.587-.033.738-.916 1.544-1.7 1.551-.833.008-1.733-.823-1.722-1.59.01-.776.875-1.55 1.726-1.548M80.173 56.016v2.2c-.75-.006-1.212-.344-1.303-.863-.131-.74.548-.959 1.303-1.337M84.809 55.406c-.895.194-1.385-.31-1.835-.968.385-.405.867-.722 1.431-.475.666.292.398.931.404 1.443M85.007 58.982c-.203.542-.252 1.202-.579 1.399-.336.202-.944-.049-1.5-.108.404-.964.988-1.312 2.08-1.291M80.314 58.955c.913-.002 1.537.321 1.863 1.06l-1.404.472c-.624-.205-.455-.871-.46-1.532M80.498 55.444c.02-.395-.004-.757.074-1.095.04-.175.28-.45.398-.435.42.054.827.214 1.307.353-.519.84-1.038 1.32-1.78 1.177M85.324 58.302c-.649-.771-.496-1.439-.17-2.03.337.202.733.371 1.028.648.119.112.11.534-.007.684-.222.284-.565.474-.851.698M80.366 67.342c.642-.01 1.03.374 1.033 1.024.003.645-.395 1.077-1 1.086-.56.009-1.05-.475-1.065-1.052-.015-.6.423-1.048 1.032-1.058M84.697 69.708c-.052.773-.348 1.022-.858 1.026-.528.005-.81-.28-.797-.798.012-.514.36-.864.822-.797.336.048.626.418.833.57M84.258 64.774c.253.373.54.61.532.838-.006.204-.391.591-.51.557-.263-.075-.606-.344-.643-.577-.031-.195.326-.452.62-.818"/>
        <path fill="#FFF" d="M82.866 58.076c-.777-.057-1.11-.306-1.115-.87-.005-.526.317-.827.797-.85.538-.026.919.34.863.85-.037.339-.394.643-.545.87"/>
    </g>
</svg>
