<svg xmlns="http://www.w3.org/2000/svg" xmlns:xlink="http://www.w3.org/1999/xlink" width="254" height="63" viewBox="0 0 254 63">
    <defs>
        <path id="a" d="M0 .093h46.81v46.753H0z"/>
    </defs>
    <g fill="none" fill-rule="evenodd">
        <rect width="254" height="63" fill="#FFF" rx="5"/>
        <path fill="#000" fill-rule="nonzero" d="M60.935 35.212c.505-.017.864-.086 1.077-.207.327-.183.49-.527.49-1.032v-8.529c0-.51-.16-.855-.482-1.032-.195-.11-.557-.181-1.085-.216v-.447h10.002v3.554h-.43c-.219-1.096-.586-1.863-1.103-2.302-.517-.439-1.47-.658-2.86-.658-.518 0-.846.059-.987.176-.14.118-.211.337-.211.658v4.08c.953.017 1.598-.184 1.934-.603.336-.419.59-1.087.762-2.005h.449v5.955h-.449c-.12-.952-.363-1.646-.728-2.082-.364-.436-1.02-.654-1.968-.654v4.105c0 .545.16.89.478 1.037.319.146.806.214 1.46.202v.448h-6.35v-.448zm10.778.026c.31-.075.53-.174.659-.297.13-.123.194-.38.194-.77v-8.976c0-.373-.06-.617-.181-.732-.12-.115-.345-.21-.672-.284v-.43h3.343V34.17c0 .39.063.645.19.766.126.12.35.22.671.3v.423h-4.204v-.422zm5.014-3.623c0-1.354.36-2.406 1.081-3.154.721-.75 1.59-1.123 2.607-1.123.58 0 1.125.152 1.637.456.51.304.904.725 1.18 1.265.207.407.35.935.43 1.583l.034.28c.018.171.027.31.027.417h-4.497c.04.706.155 1.317.344 1.833.345.97.95 1.455 1.818 1.455.414 0 .804-.13 1.172-.387.224-.155.502-.416.836-.784l.405.25c-.546.895-1.178 1.518-1.896 1.867-.465.224-1 .336-1.602.336-.868 0-1.68-.341-2.439-1.024-.758-.683-1.137-1.773-1.137-3.27zm2.456-.93h2.369l-.01-.426c-.026-.813-.103-1.397-.231-1.751-.15-.413-.448-.62-.896-.62-.46 0-.774.238-.944.715-.17.476-.265 1.17-.288 2.082zm5.264 4.553c.321-.04.542-.11.663-.207.195-.155.293-.441.293-.86V28.99c0-.367-.066-.617-.198-.749s-.385-.22-.758-.267v-.43h3.343v1.265c.293-.384.577-.683.853-.895a2.77 2.77 0 0 1 1.705-.576c.707 0 1.255.166 1.646.499.218.19.425.499.62.93h.121c.333-.408.652-.715.956-.922a2.689 2.689 0 0 1 1.577-.507c.62 0 1.167.198 1.641.593.474.396.711 1.022.711 1.876v4.433c0 .407.066.667.198.778.132.112.365.185.698.22v.422H94.33v-.422c.322-.046.546-.125.672-.237.126-.112.19-.366.19-.761V29.97c0-.459-.068-.815-.203-1.067-.135-.253-.392-.379-.771-.379-.305 0-.625.14-.96.418-.337.278-.505.471-.505.58v4.717c0 .384.058.63.173.74.114.109.33.195.646.258v.422h-4.127v-.422c.31-.04.531-.116.663-.228s.198-.369.198-.77V29.97c0-.448-.063-.8-.19-1.059-.126-.258-.387-.387-.783-.387-.362 0-.698.148-1.008.443l-.168.164c-.198.201-.298.332-.298.391v4.717c0 .384.055.63.164.74.11.109.325.195.646.258v.422h-4.221v-.422zM99.92 24.85c0-.378.134-.7.401-.968.267-.266.59-.4.97-.4.373 0 .693.134.96.4.267.267.4.59.4.968 0 .38-.133.702-.4.969-.267.266-.587.4-.96.4-.38 0-.703-.134-.97-.4-.267-.267-.4-.59-.4-.969zm-.775 10.388c.31-.052.523-.13.638-.233.172-.154.258-.433.258-.834V28.99c0-.356-.06-.598-.18-.727-.122-.13-.36-.225-.716-.289v-.43h3.386v6.696c0 .384.057.63.172.74.115.109.33.195.646.258v.422h-4.204v-.422zm4.902 0c.322-.04.559-.128.711-.263.152-.134.228-.403.228-.804V28.99c0-.356-.061-.602-.185-.74-.123-.138-.375-.23-.754-.276v-.43h3.343v1.265a3.612 3.612 0 0 1 1.073-1.054 2.617 2.617 0 0 1 1.443-.417c.758 0 1.345.195 1.762.585.416.39.624 1.076.624 2.057v4.26c0 .395.068.65.203.765.135.115.36.193.676.233v.422h-4.144v-.422c.316-.063.531-.15.646-.258.115-.11.173-.356.173-.74V29.97c0-.402-.04-.703-.121-.904-.138-.361-.41-.542-.818-.542-.305 0-.585.11-.84.332a2.94 2.94 0 0 0-.59.666v4.717c0 .384.057.63.172.74.115.109.33.195.646.258v.422h-4.248v-.422zm12.51-5.06c0 .677.058 1.179.173 1.506.172.516.502.774.99.774.443 0 .747-.194.914-.58.166-.388.25-.955.25-1.7 0-.792-.088-1.369-.263-1.73-.175-.362-.476-.542-.9-.542-.466 0-.776.193-.931.58-.155.388-.233.951-.233 1.692zm-1.025 7.4c0 .362.194.646.582.853.387.206.949.31 1.684.31.655 0 1.195-.052 1.62-.155.798-.195 1.197-.554 1.197-1.076 0-.304-.113-.532-.34-.684-.227-.152-.64-.228-1.236-.228h-2.895c-.184.149-.316.275-.397.378a.98.98 0 0 0-.215.603zm-1.55.121c0-.252.104-.512.314-.779.21-.266.573-.44 1.09-.52v-.12c-.345-.133-.595-.268-.75-.405-.276-.247-.414-.577-.414-.99 0-.493.217-.915.65-1.265.435-.35.858-.594 1.272-.732v-.12c-.598-.241-1.08-.585-1.448-1.033-.367-.447-.551-.99-.551-1.626 0-.804.322-1.466.965-1.988s1.513-.783 2.61-.783c.414 0 .793.04 1.138.12.344.08.611.164.8.25h2.327v.938h-1.43c.23.223.406.484.53.783.123.298.185.622.185.972 0 1.102-.526 1.856-1.577 2.264-.551.218-1.237.327-2.059.327l-.184-.002a3.26 3.26 0 0 1-.125-.004l-.142-.01a4.152 4.152 0 0 0-.143-.002c-.173.03-.354.121-.543.276-.195.16-.293.353-.293.576 0 .178.049.316.146.414a.681.681 0 0 0 .405.18l.098.01c.102.007.253.014.454.02l.438.011 1.362.02c.65.011 1.195.106 1.637.284.845.344 1.267.96 1.267 1.85 0 1.147-.632 1.936-1.895 2.366-.667.224-1.505.336-2.516.336-.827 0-1.54-.08-2.137-.24-.988-.27-1.482-.73-1.482-1.378zm19.651-14.174c.736 0 1.48.136 2.232.409l.641.227c.354.121.56.182.617.182a.65.65 0 0 0 .538-.258c.135-.173.22-.353.254-.543h.492v4.123h-.448c-.426-.895-.86-1.601-1.301-2.117-.828-.953-1.764-1.429-2.81-1.429-1.182 0-2.022.51-2.52 1.528-.496 1.018-.744 2.385-.744 4.1 0 1.262.146 2.3.439 3.116.546 1.526 1.56 2.289 3.041 2.289.908 0 1.752-.253 2.533-.758.448-.292.977-.76 1.586-1.402l.525.43c-.69.769-1.295 1.325-1.818 1.67-.93.613-1.964.92-3.101.92-1.74 0-3.2-.516-4.377-1.549-1.304-1.141-1.956-2.679-1.956-4.612 0-1.917.623-3.469 1.87-4.656 1.171-1.113 2.607-1.67 4.307-1.67zm6.307 8.098c0-1.227.378-2.252 1.133-3.072.755-.82 1.705-1.23 2.848-1.23 1.166 0 2.12.418 2.864 1.256.744.837 1.116 1.853 1.116 3.046 0 1.177-.368 2.188-1.103 3.034-.735.846-1.694 1.27-2.877 1.27-1.15 0-2.1-.412-2.852-1.236-.753-.823-1.129-1.846-1.129-3.068zm2.593 0l.004.474c.014.984.076 1.69.186 2.117.201.763.6 1.144 1.198 1.144.568 0 .942-.292 1.12-.877.178-.586.267-1.538.267-2.858 0-1.313-.094-2.264-.28-2.853-.187-.588-.553-.882-1.099-.882-.597 0-.996.382-1.197 1.145-.133.51-.199 1.374-.199 2.59zm9.452-4.079v5.981c0 .356.043.617.129.783.15.293.445.44.887.44.282 0 .558-.09.828-.267.155-.098.35-.262.585-.491v-5c0-.367-.073-.624-.22-.77-.146-.147-.44-.228-.882-.246v-.43h3.515v6.343c0 .367.069.62.207.761.137.14.407.228.81.263v.404l-.957.094c-.549.057-.917.102-1.107.134-.284.05-.74.171-1.366.366v-1.162c-.419.362-.766.617-1.042.766a3.1 3.1 0 0 1-1.508.396c-.568 0-1.098-.18-1.59-.542-.49-.362-.736-1.004-.736-1.928v-4.45c0-.372-.06-.616-.181-.73-.12-.115-.353-.21-.698-.285v-.43h3.326zm6.487 7.694c.322-.04.559-.128.711-.263.152-.134.229-.403.229-.804V28.99c0-.356-.062-.602-.186-.74-.123-.138-.375-.23-.754-.276v-.43h3.343v1.265a3.612 3.612 0 0 1 1.073-1.054 2.617 2.617 0 0 1 1.443-.417c.758 0 1.346.195 1.762.585.416.39.625 1.076.625 2.057v4.26c0 .395.067.65.202.765.135.115.36.193.676.233v.422h-4.144v-.422c.316-.063.532-.15.646-.258.115-.11.173-.356.173-.74V29.97c0-.402-.04-.703-.12-.904-.139-.361-.412-.542-.82-.542-.304 0-.584.11-.84.332a2.94 2.94 0 0 0-.59.666v4.717c0 .384.058.63.173.74.115.109.33.195.646.258v.422h-4.248v-.422zm9.814-6.92v-.49l.204-.184c.11-.099.235-.207.373-.324a14.581 14.581 0 0 0 2.318-2.754h.448v2.978h1.68v.775h-1.68v5.3c0 .248.037.454.112.62.114.259.304.388.568.388.23 0 .422-.082.577-.245.155-.164.31-.39.466-.676l.422.207c-.207.481-.454.874-.741 1.179-.506.533-1.123.8-1.853.8a2.4 2.4 0 0 1-1.085-.232c-.597-.299-.896-.841-.896-1.627v-5.714h-.913zm5.876 9.614c0-.402.116-.698.348-.887.233-.19.51-.284.832-.284.281 0 .512.083.693.25a.78.78 0 0 1 .272.593l-.043.388c0 .074.028.143.086.206a.28.28 0 0 0 .215.095c.287 0 .555-.232.802-.697.155-.287.379-.85.672-1.687l-2.12-5.224-.22-.533a38.589 38.589 0 0 0-.215-.5 17.65 17.65 0 0 0-.444-.937c-.16-.31-.287-.505-.379-.586-.092-.08-.258-.132-.5-.155v-.43h4.412v.43a2.377 2.377 0 0 0-.677.095c-.175.057-.262.18-.262.37 0 .04.01.095.03.164l.036.108c.023.068.056.155.097.262l1.387 3.545h.138l1.129-3.175.079-.242a9.45 9.45 0 0 0 .063-.21c.037-.13.056-.242.056-.34 0-.247-.082-.403-.245-.469-.164-.066-.407-.102-.728-.108v-.43h2.67v.43a1.08 1.08 0 0 0-.564.185c-.146.107-.297.363-.452.77l-2.637 7.023c-.482 1.297-.897 2.177-1.245 2.642-.347.465-.891.697-1.632.697-.54 0-.95-.142-1.232-.426-.282-.284-.422-.595-.422-.933zm13.56-6.386h.509c.287 1.314.75 2.269 1.391 2.866.64.596 1.374.895 2.202.895.804 0 1.375-.205 1.714-.616.339-.41.508-.842.508-1.295 0-.528-.178-.958-.534-1.29-.235-.219-.71-.503-1.421-.853l-1.146-.568c-1.137-.562-1.939-1.118-2.404-1.67-.465-.55-.698-1.23-.698-2.039 0-.86.309-1.664.926-2.41.618-.745 1.564-1.118 2.84-1.118.648 0 1.276.097 1.882.292l.485.153c.31.093.493.14.553.14.195 0 .33-.056.405-.168.075-.112.135-.26.18-.443h.526v3.838h-.49a5.336 5.336 0 0 0-1.246-2.298c-.594-.642-1.316-.964-2.167-.964-.597 0-1.07.163-1.417.487a1.558 1.558 0 0 0-.521 1.183c0 .557.164.973.491 1.248.322.281 1.037.694 2.145 1.24l1.327.653c.592.293 1.063.617 1.413.973.655.665.982 1.474.982 2.427 0 .889-.352 1.728-1.055 2.517-.704.789-1.831 1.183-3.382 1.183a6.065 6.065 0 0 1-2.162-.404l-.345-.13a2.716 2.716 0 0 0-.233-.055 1.033 1.033 0 0 0-.19-.022c-.183 0-.31.053-.378.16-.07.105-.13.256-.181.451h-.508v-4.363zm13.751-4.226c.741 0 1.383.181 1.926.543.543.361.814.826.814 1.394 0 .304-.108.568-.323.791-.216.224-.49.336-.823.336-.224 0-.42-.052-.586-.155-.316-.183-.474-.516-.474-.998l.009-.228c.006-.1.009-.208.009-.323 0-.31-.072-.522-.216-.637a.812.812 0 0 0-.508-.172c-.546 0-.934.3-1.163.9-.23.599-.345 1.286-.345 2.06 0 1.102.218 2.026.655 2.772.436.746 1.025 1.118 1.766 1.118.465 0 .862-.103 1.189-.31.195-.12.437-.34.724-.662l.327.301c-.574.798-1.246 1.346-2.016 1.644a3.633 3.633 0 0 1-1.3.232c-1.132 0-2.057-.404-2.775-1.213-.718-.81-1.077-1.796-1.077-2.96 0-1.228.38-2.274 1.141-3.137.762-.864 1.777-1.296 3.046-1.296zm3.567 7.918c.322-.04.559-.128.71-.263.153-.134.23-.403.23-.804v-8.976c0-.35-.064-.596-.19-.736-.127-.14-.377-.234-.75-.28v-.43h3.412v4.957c.362-.436.742-.773 1.141-1.011.4-.238.849-.357 1.349-.357.678 0 1.238.196 1.68.59.442.392.663 1.062.663 2.009v4.234c0 .396.068.655.203.779.135.123.36.219.676.288v.422h-4.144v-.422c.316-.063.531-.15.646-.258.115-.11.172-.356.172-.74V29.97c0-.402-.04-.703-.12-.904-.138-.361-.41-.542-.819-.542-.304 0-.619.14-.943.422-.325.281-.487.473-.487.576v4.717c0 .384.057.63.172.74.115.109.33.195.647.258v.422h-4.248v-.422zm9.917-3.615c0-1.227.377-2.252 1.133-3.072.755-.82 1.704-1.23 2.847-1.23 1.166 0 2.12.418 2.865 1.256.744.837 1.115 1.853 1.115 3.046 0 1.177-.367 2.188-1.102 3.034-.736.846-1.695 1.27-2.878 1.27-1.149 0-2.1-.412-2.852-1.236-.752-.823-1.128-1.846-1.128-3.068zm2.593 0l.003.474c.015.984.077 1.69.186 2.117.202.763.6 1.144 1.198 1.144.569 0 .942-.292 1.12-.877.178-.586.267-1.538.267-2.858 0-1.313-.093-2.264-.28-2.853-.186-.588-.553-.882-1.098-.882-.598 0-.997.382-1.198 1.145-.132.51-.198 1.374-.198 2.59zm6.23 0c0-1.227.377-2.252 1.132-3.072.755-.82 1.704-1.23 2.847-1.23 1.166 0 2.121.418 2.865 1.256.744.837 1.116 1.853 1.116 3.046 0 1.177-.368 2.188-1.103 3.034-.735.846-1.694 1.27-2.878 1.27-1.148 0-2.099-.412-2.851-1.236-.753-.823-1.129-1.846-1.129-3.068zm2.592 0l.004.474c.014.984.076 1.69.186 2.117.2.763.6 1.144 1.197 1.144.57 0 .942-.292 1.12-.877.179-.586.268-1.538.268-2.858 0-1.313-.094-2.264-.28-2.853-.187-.588-.553-.882-1.099-.882-.597 0-.996.382-1.197 1.145-.133.51-.199 1.374-.199 2.59zm6.126 3.615c.31-.075.53-.174.66-.297.128-.123.193-.38.193-.77v-8.976c0-.373-.06-.617-.18-.732-.121-.115-.346-.21-.673-.284v-.43h3.343V34.17c0 .39.063.645.19.766.126.12.35.22.672.3v.423h-4.205v-.422zm5.066-2.246h.491c.173.843.494 1.438.965 1.785.471.348.954.521 1.448.521.453 0 .786-.102.999-.305.213-.204.319-.472.319-.805 0-.316-.115-.585-.345-.809-.126-.12-.33-.25-.612-.387l-1.31-.637c-.688-.339-1.182-.706-1.481-1.102-.304-.396-.457-.863-.457-1.402 0-.683.239-1.273.715-1.769.477-.496 1.143-.744 2-.744.373 0 .769.061 1.188.185l.256.073c.272.074.448.112.528.112.144 0 .246-.03.306-.09.06-.061.11-.146.15-.255h.389v2.548h-.448c-.167-.597-.44-1.076-.819-1.437a1.862 1.862 0 0 0-1.327-.543c-.39 0-.682.11-.874.327-.193.218-.289.454-.289.706 0 .207.086.413.259.62.166.212.482.43.947.654l.965.465c.598.286 1.034.565 1.31.834.46.46.69 1.024.69 1.696 0 .654-.238 1.263-.712 1.828-.474.566-1.184.848-2.132.848-.236 0-.472-.024-.71-.073a6.619 6.619 0 0 1-.713-.197l-.654-.224a.318.318 0 0 0-.12-.014.336.336 0 0 0-.254.117 1.769 1.769 0 0 0-.246.391h-.422v-2.917z"/>
        <g transform="translate(8 8.061)">
            <mask id="b" fill="#fff">
                <use xlink:href="#a"/>
            </mask>
            <path fill="#F6F6F6" d="M46.412 22.738c-.281-4.145-1.267-7.76-3.25-11.054-2.45-4.072-5.845-7.135-10.184-9.1C29.525 1.021 25.874.244 22.09.522 16.087.963 10.861 3.26 6.7 7.665 2.245 12.38.154 18.102.439 24.52.714 30.65 3.115 36 7.658 40.22c4.79 4.45 10.562 6.545 17.069 6.176 6.012-.34 11.24-2.719 15.395-7.134 4.437-4.715 6.411-10.41 6.29-16.523M24.825.093c5.367.13 11.146 2.504 15.758 7.467 4.442 4.779 6.485 10.504 6.201 16.983-.28 6.42-2.838 11.877-7.596 16.22-4.803 4.382-10.547 6.376-17.008 6.048-6.325-.32-11.727-2.836-16.027-7.52C1.754 34.498-.254 28.78.026 22.318.54 10.416 10.28.103 24.824.093" mask="url(#b)"/>
        </g>
        <path fill="#E9E9E9" d="M8.718 31.687c.17 6.627 2.665 12.394 7.818 16.93 4.259 3.748 9.338 5.599 14.939 5.575 5.97-.025 11.289-2.127 15.63-6.316 4.346-4.194 6.691-9.37 6.936-15.401.26-6.425-1.878-12.035-6.323-16.679-4.408-4.605-9.957-6.905-16.26-6.93-6.037-.024-11.419 2.106-15.795 6.363-4.56 4.436-6.802 9.908-6.945 16.458m45.694-.888c.12 6.113-1.854 11.808-6.291 16.524-4.154 4.415-9.383 6.793-15.395 7.133-6.507.37-12.279-1.725-17.07-6.175-4.542-4.22-6.943-9.571-7.216-15.7-.286-6.418 1.805-12.14 6.259-16.854 4.161-4.406 9.388-6.703 15.392-7.144 3.783-.277 7.434.499 10.887 2.062 4.339 1.965 7.733 5.028 10.184 9.1 1.983 3.294 2.969 6.91 3.25 11.054"/>
        <path fill="#DADADA" d="M31.425 9.089C18.841 9.28 9.191 18.95 8.99 31.057 8.772 44.16 18.93 53.642 30.762 53.92c13.195.312 22.92-9.944 23.073-22.039.163-12.878-9.97-22.618-22.41-22.793M8.718 31.687c.143-6.55 2.385-12.022 6.945-16.458 4.376-4.257 9.758-6.387 15.795-6.363 6.303.025 11.852 2.325 16.26 6.93 4.445 4.644 6.584 10.254 6.323 16.679-.245 6.031-2.59 11.207-6.936 15.401-4.341 4.189-9.66 6.29-15.63 6.316-5.6.024-10.68-1.827-14.939-5.576-5.153-4.535-7.647-10.302-7.818-16.929"/>
        <path fill="#CDCAC5" d="M53.594 31.56c-.122-12.422-9.77-22.137-22.132-22.162-12.45-.024-22.15 9.71-22.209 22.007-.06 12.505 9.75 22.229 22.102 22.253 12.451.025 22.087-9.729 22.239-22.098M31.425 9.088c12.44.176 22.573 9.916 22.41 22.794-.153 12.095-9.878 22.35-23.073 22.039-11.831-.28-21.99-9.76-21.772-22.864C9.19 18.95 18.84 9.28 31.425 9.088"/>
        <path fill="#F8AF18" d="M52.076 31.52c-.125-11.492-9.155-20.595-20.64-20.61-11.499-.015-20.636 9.078-20.669 20.556-.033 11.536 9.124 20.678 20.638 20.68 11.504.002 20.555-9.117 20.671-20.626m1.518.04c-.152 12.37-9.788 22.123-22.24 22.098-12.351-.024-22.16-9.748-22.1-22.253.059-12.297 9.757-22.031 22.208-22.007 12.362.025 22.01 9.74 22.132 22.162"/>
        <path fill="#020200" d="M22.266 27.074c.303-.204.669-.142.745-.509.026-.124-.105-.181-.224-.18-.404.005-.423.313-.52.69m9.368 2.916l.006-.189c.096-2.076.698-4.111.548-6.308a1.64 1.64 0 0 0-.3.747c-.082.502-.053 1.019-.265 1.505-.248.568-.442 1.158-.671 1.734-.067.168-.05.437-.36.391-.231-.035-.462-.047-.514-.362-.034-.206-.18-.4-.397-.398-.342.003-.485-.157-.608-.451-.147-.349-.831-.46-.967-.166a2.127 2.127 0 0 1-.878.995c-.436.261-.842.583-1.224.92-.545.478-1.043.416-1.544-.046-.246-.228-.362-.147-.5.14-.385.807-.368 1.653-.322 2.507-.076.413.07.882-.222 1.236-.254.306-.244.592-.087.914.111.682.084 1.385.303 2.05l.456 1.678c.05.117-.266.311.04.35.26.034.527.138.809-.01.28-.146.63-.147.903-.031.468.197.575-.04.64-.406.541-.045 1.125-.38 1.567.241.062.088.182.06.259.018.238-.135.427-.065.64.076.334.222.965-.157 1.03-.555.08-.49.136-.992.36-1.45.394-.51.614-1.12.973-1.65.1-.148.076-.256-.094-.323a.873.873 0 0 1 .044-.633c.185-.42.238-.86.207-1.313-.013-.413.241-.79.168-1.211m1.573 5.313c.05-.351.105-.702.145-1.054.018-.153.136-.373-.117-.423-.226-.045-.495-.155-.66.145-.258.473-.52.945-.78 1.418-.145.218-.298.432-.432.657-.06.1-.314-.075-.234.163.061.185.242.362.41.335.464-.074.838.17 1.248.28.2.054.337.068.48-.123.14-.187.122-.28-.072-.398-.096-.059-.038-.2-.032-.306l.044-.694m-10.287 1.95l-.079-.36-.3-1.869-.3-1.198-.123.01c-.055.516-.263.966-.557 1.378-.495.6-.932 1.237-1.26 1.945-.058.08-.038.179.05.17.582-.067.914.342 1.226.698.345.395.621.37 1.004.081.305-.231.732-.367.339-.856m17.219.012a.595.595 0 0 0-.08.462c-.167.255-.126.59-.337.838-.091.106-.064.282.12.327.58.144 1.113.468 1.743.429.236-.015.34-.08.318-.325-.048-.518-.084-1.036-.125-1.555-.034-.464-.026-.934-.145-1.39a2.26 2.26 0 0 0-.14-.86c-.068-.2-.17-.25-.317-.061-.197.254-.42.494-.485.826-.183.437-.517.81-.552 1.31m-6.63-21.278c.197.02.377-.045.557-.11.93-.282 1.833.045 2.763.084-.043.17-.306.028-.276.294.064.588.07 1.183.091 1.776.006.158.073.413-.142.417-.204.004-.169-.255-.172-.418-.002-.139.022-.278.037-.417l.171-1.522c-.247.034-.458.085-.671.089-.375.006-.385.2-.22.436.215.309.246.624.208.989-.039.37.194.76-.093 1.116-.02.025 0 .094.018.134.111.248-.014.338-.237.377-.15.026-.33.024-.343.239-.013.224.162.291.328.328.413.09.613.388.776.736.147.313.224.643.28.98.23 1.416.598 2.783 1.396 4a.37.37 0 0 0 .113.273c.14.422.165.936.486 1.227.33.3.366.554.22.911-.232.779.006 1.46.43 2.184.15-.543.535-.695.947-.752.312-.042.532-.237.797-.354.111-.05.222-.24.105-.294-.474-.218-.396-.695-.558-1.057.15-.78.434-.956 1.35-.84.508.065.734.401.691 1.029.046.304.055.604-.226.81-.067.05-.198.03-.175.16.021.121.124.184.236.195.323.032.643.095.972.048.822-.118 1.645-.235 2.479-.231.153 0 .322.002.456-.059.323-.148.613-.065.953.046-.143.11-.287.17-.348.276-.207.364-.473.337-.747.124a.434.434 0 0 0-.433-.069c-.524.173-1.037.377-1.562.542-.21.066-.19.158-.11.3-.175.063-.345.145-.524.183-.423.09-.592.311-.534.76.06.459.046.928.064 1.392-.278.547-.068 1.097-.035 1.652.03.504-.039 1.013-.064 1.52-.013.53-.023 1.06.064 1.587l.014.84.004.836c.001.124-.005.262.118.334.316.185.597.463 1.005.426.386-.035.741.018 1.023.314.119.123.24.133.358.004.304-.331.527-.204.776.092.155.184.288.527.607.406.427-.161.675-.087.891.333.157.305.867.379.991.144.41-.78.825-1.558 1.053-2.417.208-.313.28-.674.368-1.03.222-.541.34-1.111.452-1.683.268-1.103.386-2.225.428-3.357.083-.78.044-1.558-.058-2.333-.034-.727-.095-1.45-.29-2.156a9.92 9.92 0 0 0-.5-2.051c-.245-.772-.455-1.557-.86-2.268-.297-.743-.643-1.46-1.099-2.12-.442-.766-.91-1.515-1.52-2.164-.483-.69-1.056-1.3-1.687-1.858-.428-.39-.84-.8-1.286-1.166a18 18 0 0 0-4.791-2.838c-.236-.127-.472-.254-.744-.287-.095-.049-.185-.112-.286-.146-3.047-1.03-6.16-1.4-9.356-.913l-.829.158c-.861.124-1.704.322-2.516.641a15.803 15.803 0 0 0-4.677 2.24l-.18.106c-.057-.005-.09.023-.103.078-.105.043-.212.084-.273.19-1.378.895-2.555 2.017-3.621 3.255-.717.832-1.4 1.693-1.91 2.675-.576.881-1.062 1.808-1.398 2.808-.43.902-.714 1.85-.904 2.83a8.942 8.942 0 0 0-.386 2.24c-.132.74-.184 1.487-.164 2.239-.041.723.032 1.439.146 2.152-.006.636.117 1.253.283 1.864-.005.358.144.683.222 1.024l.249.848c.197.832.57 1.599.887 2.386.084.207.248.264.437.287.354.041.71.063 1.062.113.34.05.565-.037.65-.404.071-.316.276-.487.614-.534.302-.042.609-.11.835-.357.304-.333.694-.508 1.136-.563.244-.03.388-.16.475-.383.084-.215.186-.423.28-.634l-.023-.107.026-.274c.52-.547.967-1.15 1.384-1.778.376-.429.789-.842.647-1.494.04-.75.001-1.496-.095-2.24.07-.545-.281-1.038-.195-1.586l.048-.75.074-.147c.146-.147.292-.294.349-.504.17-.269.338-.54.514-.806.14-.21.618-.411-.005-.619-.083-.027-.019-.14-.03-.21-.103-.696.24-1.213.671-1.696l-.002-.002.087-.117.267-.375c.337-.091.64-.36 1.026-.2.325-.013.554.226.839.317.181.15.453.143.6.35-.01.148-.037.283-.225.291a.224.224 0 0 0-.215.294c.13.342-.1.635-.08.955-.153.104-.366 0-.564.177.24.069.402.198.545.351.2.306.327.687.708.819.24.083 1.14-.375 1.284-.615.227-.374.344-.83.783-1.046.265-.19.56-.347.701-.667.293-.316.575-.64.787-1.017.393-.546.828-1.064 1.123-1.675l.078-.088c.554-.394.764-1.035 1.132-1.563.396-.19.762-.428.968-.83.28-.547.715-.88 1.308-1.012.35-.078.385-.232.184-.516-.312-.443-.347-.94-.268-1.47.038-.253.207-.443.234-.698.03-.269.007-.405-.318-.374-.324.031-.654.007-1.097.007l.375-.17c.328.008.633-.085.931-.207m5.229 21.365c.115-.13.212-.267.21-.451l.48-1.207c.083-.18.17-.359.245-.542.29-.699.233-1.482.53-2.18.022-.187.344-.302.18-.506-.156-.196-.093-.374-.075-.565.03-.307.113-.617.082-.917-.017-.17.13-.606-.428-.433-.184.057-.379.085-.536.216-.256.212-.473.181-.661-.09l-.289-.416c-.267-.673-.246-1.383-.196-2.08.036-.494-.38-.808-.36-1.304-.106.536-.395.688-.875.59-.118-.024-.266.063-.391.118-.178.079-.347.133-.51-.023.235-.752-.15-1.352-.532-1.957l.33 1.956c-.023.906.064 1.807.148 2.707l.149 2.704c-.003.23-.025.462-.004.69.031.35-.105.397-.404.287-.71-.263-1.077-.018-1.106.713-.012.306-.038.612-.057.919-.03.243.032.576-.104.714-.427.43.11.384.2.378.73-.044 1.412.335 2.145.232.14-.02.276.005.394.094l.32.358c.097.117.18.25.294.35.178.156.286.542.513.45.25-.101.285-.47.315-.76.001-.015-.005-.03-.007-.045m13.337-5.833c-.116 11.51-9.167 20.628-20.671 20.626-11.514-.002-20.67-9.144-20.638-20.68.033-11.478 9.17-20.57 20.669-20.556 11.485.015 20.515 9.118 20.64 20.61"/>
        <path fill="#FEFEFB" d="M24.536 24.692c-.285-.09-.514-.33-.839-.316-.019-.199-.205-.212-.329-.291-1.845-1.19-2.73-2.903-2.439-5.056.398-2.94 3.09-4.786 5.974-4.261 3.062.557 4.919 3.937 3.738 6.81-.175.426-.53.764-.58 1.243l-.078.088c-.399.181-.612.58-.974.815-.996.65-2.014 1.158-3.266.963-.392-.061-.804 0-1.207.005"/>
        <path fill="#F9D546" d="M28.639 12.021c3.196-.487 6.309-.117 9.357.913.1.034.19.097.285.146.135.538-.329.795-.553 1.162-.078.13-.165.255-.019.367.178.136.231-.04.308-.153.047-.07.052-.188.221-.18.1.17-.066.565.228.563.502-.005.909.317 1.396.314.04.207.139.375.34.459.366.151.608.62.566 1.004-.039.358-.296.655-.315.98a8.32 8.32 0 0 1-.11 1.04c-.086.462.121.714.575.715 1.817.002 3.633.001 5.45 0 .15 0 .317.042.422-.122.61.65 1.077 1.398 1.52 2.164-.337.054-.669.112-1.015.11-2.287-.01-4.574-.006-6.862-.005-.627 0-.712.111-.6.711.049.27.078.53-.139.784-.339.396-.64.809-1.244.78-.128-.005-.147.128-.179.237-.048.162-.121.316-.183.474-.181.329.177.714-.107 1.032-.798-1.217-1.167-2.584-1.397-4a3.664 3.664 0 0 0-.279-.98c-.163-.348-.363-.645-.776-.736-.166-.037-.34-.104-.328-.328.013-.215.194-.213.343-.24.223-.038.348-.128.237-.376-.018-.04-.038-.11-.018-.134.287-.355.054-.747.093-1.116.038-.365.007-.68-.208-.989-.165-.235-.155-.43.22-.436.213-.004.425-.055.671-.089-.06.529-.116 1.025-.17 1.522-.016.139-.04.278-.038.417.003.163-.032.422.172.418.215-.004.148-.26.142-.417-.022-.593-.027-1.187-.092-1.776-.029-.266.234-.124.278-.294-.93-.04-1.835-.367-2.764-.083-.356-.336-.153-.777-.184-1.162-.025-.316-.157-.318-.375-.308l-.001-.002c.028-.081.18-.106.133-.204-.064-.133-.21-.055-.32-.072l-.001-.002c0-.12-.037-.243-.132-.303-.064-.04-.114.058-.144.124l-.372-.002c-.405-.056-.755-.473-1.213-.183a2.719 2.719 0 0 1-.82-.566c-.296-.286-.626-.647-.992-.718-.297-.058-.493-.423-.847-.261-.06.028-.137-.105-.16-.199"/>
        <path fill="#FAD647" d="M22.319 25.07c-.431.482-.774 1-.67 1.695.01.071-.054.183.029.21.623.208.145.41.005.62-.176.265-.343.536-.514.805a.562.562 0 0 0-.36.099c-.411-.203-.462.322-.75.37-.163-.294-.311-.124-.477.004-.09.069-.306.259-.304.079.004-.433-.265-.23-.433-.255-.072-.01-.175.04-.175-.075 0-.376-.46-.47-.443-.881-.215.2-.324.43-.568.076-.189-.274-.705-.244-.783-.694-.002-.012-.058-.026-.086-.02-.55.1-1.042-.259-1.587-.195l-.092-.001v-.488c-.446.299-.671.208-.629-.326.006-.08-.042-.117-.108-.112-.32.023-.276-.172-.198-.351.18-.413.344-.816-.043-1.208-.02-.02.004-.085.013-.128.087-.455.382-.757.784-.919.339-.136.335-.31.314-.639-.037-.589-.08-1.117-.714-1.372.51-.982 1.193-1.842 1.91-2.675 1.066-1.238 2.243-2.36 3.621-3.255-.027.313-.267.677.031.924.357.295.073.376-.1.504-.204.15-.405.251-.529.53-.246.554-.005.965.236 1.404-.255.127-.387.398-.652.53-.155.076-.16.252.073.309-.292.213-.317.684-.745.77-.03.006-.078.085-.068.105.165.322-.353.548-.124.88.019.028-.023.135-.064.159-.442.259-.696.61-.627 1.15.009.068-.021.174-.072.213-.182.142-.15.328-.11.5.067.282.052.54-.156.758.659.138 1.317 0 1.932.357.363.21.36.31.076.53.101.109.32-.038.29.068-.11.372.288.393.36.39.511-.028.954.134 1.401.347.134.063.297.078.294-.23-.003-.39.528-.706.812-.563"/>
        <path fill="#FCFB95" d="M32.58 16.195c-.085.037-.168.075-.376.17.443 0 .773.024 1.097-.007.325-.03.348.105.319.374-.028.255-.197.445-.235.699-.08.53-.044 1.026.268 1.469.201.284.166.438-.184.516a1.854 1.854 0 0 0-1.308 1.012c-.206.402-.572.64-.968.83-.003-.154-.03-.313-.005-.464.274-1.692-.049-3.212-1.182-4.552-1.098-1.3-2.534-1.891-4.165-1.895-1.128-.003-2.235.327-3.139 1.1-.091.077-.198.08-.307.08-.043-.332.222-.51.372-.746.337-.059.101-.41.282-.549l.11-.096c.073-.01.137-.032.17-.105.827.257 1.796-.34 1.965-1.211.812-.32 1.655-.517 2.516-.641.018.093-.036.254.159.192.566-.183.942.194 1.343.467.089.06.28.001.267.162-.025.302.118.334.373.324.167-.007.365.09.291.315-.086.262.043.234.178.148.181-.116.32-.231.33.115.002.047.091.112.131.022.092-.207.108-.072.228-.007.242.13.439.575.815.213l.185.091c.265.179.534.308.87.193.118-.04.255.01.311.147.056.135-.038.193-.146.24-.104.047-.112.151-.098.24.052.33-.13.566-.376.69-.284.144-.128.298-.092.464"/>
        <path fill="#FDFD9D" d="M22.395 15.527c.11 0 .216-.003.307-.08.904-.773 2.011-1.103 3.14-1.1 1.63.004 3.065.595 4.164 1.895 1.133 1.34 1.456 2.86 1.182 4.552-.024.15.002.31.005.464-.368.528-.578 1.17-1.132 1.563.05-.48.405-.817.58-1.244 1.18-2.872-.676-6.252-3.738-6.81-2.883-.524-5.576 1.323-5.974 4.262-.291 2.153.594 3.866 2.439 5.056.124.08.31.092.33.29-.387-.16-.69.109-1.027.2-.441.112-.937.103-1.22.562-.05.084-.119.077-.178-.001.038-.033.121-.052.035-.12l-.034.121c-.276.113-.557.062-.7-.17-.125-.204-.29-.286-.466-.407-.25-.17-.733-.219-.759-.31-.155-.564-.606-.328-.924-.412-.133-.035-.204-.047-.14-.194l.02-.04a9.404 9.404 0 0 0-.02.04.501.501 0 0 1-.4-.197c-.263-.295-.057-.552-.086-.82a.813.813 0 0 1 .298-.733c.376-.314.678-.642.546-1.17-.04-.162.113-.166.14-.254.096-.307.592-.404.44-.838.226-.087.38-.4.505-.425.639-.133.412-.625.357-.908-.15-.78-.128-.887.667-.895.317-.003.483-.136.613-.383.022-.193.154-.328.242-.488.21-.381.653-.573.788-1.006z"/>
        <path fill="#F9BA3B" d="M37.981 25.516c.284-.318-.074-.703.106-1.032.155.004.284-.024.28-.22-.004-.192.078-.266.257-.17.286.155.514.021.704-.164.244-.239.524-.291.85-.29 2.89.006 5.78.005 8.672 0 .19 0 .411.084.558-.127.405.711.615 1.496.86 2.268l-12.174.008a.37.37 0 0 1-.113-.273"/>
        <path fill="#F48C28" d="M42.964 35.492c.025-.507.094-1.016.064-1.52-.033-.555-.243-1.105.035-1.652h8.053c-.042 1.133-.16 2.255-.428 3.358-.172.004-.312-.112-.398-.214-.634-.745-1.342-.626-2.088-.22-.014.007-.028.015-.042.02-.339.092-.677.25-.974-.113-.083-.101-.241-.128-.388-.125-.816.014-1.633-.065-2.428.248-.44.173-.915.29-1.406.218"/>
        <path fill="#F7AE36" d="M38.094 25.79l12.174-.01a9.91 9.91 0 0 1 .5 2.052l-8.206.01c.043-.627-.183-.963-.69-1.028-.917-.116-1.202.06-1.35.84a.499.499 0 0 1-.389.338c-.456.113-.89-.034-1.332-.065.145-.357.11-.61-.221-.91-.321-.292-.346-.806-.486-1.228"/>
        <path fill="#F7D145" d="M27.439 29.083c-.036-.03-.068-.075-.094-.072-.029.004-.07.05-.074.08-.008.061.021.121.095.102.029-.007.044-.064.073-.11m-3.8 1.927c-.046-.854-.063-1.7.322-2.506.138-.288.254-.369.5-.141.5.462.999.524 1.544.045a8.493 8.493 0 0 1 1.224-.919c.412-.246.68-.563.878-.995.136-.295.82-.183.967.166.123.294.266.454.608.451.216-.002.363.192.397.398.052.315.283.327.514.362.31.046.293-.223.36-.39.23-.576.423-1.167.67-1.735.213-.486.184-1.003.266-1.505a1.64 1.64 0 0 1 .3-.747c.15 2.197-.452 4.231-.547 6.308-.079.001-.149.017-.186.096h-.188c-.029-.118.078-.316-.122-.328-.133-.008-.223.14-.244.285-.01.074-.007.15-.01.226-.32-.147-.313-.705-.805-.647-.016.002-.05-.106-.068-.164-.077-.24-.304-.383-.383-.632-.056-.176-.328-.206-.382-.088-.234.507-1.03.173-1.16.805-.015.068-.133.04-.211.02-.197-.046-.237.09-.258.239-.072.02-.162.076-.212.05-.264-.13-.649.034-.608.308.044.295-.052.57-.02.855-.108.069-.09.177-.092.28-.275.017-.554-.04-.823.07-.102.042-.224.04-.289-.073-.351-.614-.582-.078-.851.087l-.192.102h-.079c-.018-.085.025-.204-.086-.239-.11-.034-.155.071-.204.147l-.283.097c.002-.127.018-.262-.163-.284a.214.214 0 0 0-.083-.004"/>
        <path fill="#FAC841" d="M49.408 23.513c-.147.211-.369.127-.558.127-2.891.005-5.782.006-8.673 0-.325-.001-.605.051-.85.29-.189.185-.417.32-.703.165-.179-.097-.26-.023-.257.168.004.197-.125.225-.28.22.063-.157.136-.311.184-.473.032-.109.05-.243.18-.237.602.029.904-.384 1.243-.78.217-.254.188-.514.138-.784-.11-.6-.026-.71.601-.711 2.288-.001 4.575-.005 6.862.005.346.002.678-.056 1.014-.11.456.66.802 1.377 1.099 2.12"/>
        <path fill="#F5912A" d="M11.824 33.633c-.114-.713-.187-1.429-.146-2.152h7.923c.433 0 .868.025 1.292-.093.096.743.135 1.49.095 2.239l-9.164.006"/>
        <path fill="#F6972C" d="M51.116 32.32h-8.053c-.018-.465-.004-.933-.064-1.393-.058-.448.11-.669.534-.759.18-.038.35-.12.524-.182l7.001.002c.102.776.141 1.553.058 2.333"/>
        <path fill="#F69B2E" d="M20.893 31.388c-.424.118-.859.093-1.292.093h-7.923c-.02-.752.031-1.499.164-2.24.24.074.482.099.734.097 1.058-.007 2.12.049 3.173-.024.543-.038.965.226 1.394.397.432.172.765.047 1.143-.004l.185.002c-.03.115-.215.186-.131.318.075.118.24.193.367.133.3-.142.408-.016.398.4.295-.396.545-.637.954-.487.072.027.149-.031.19-.103.105-.18.277-.172.449-.169-.086.548.265 1.041.195 1.587"/>
        <path fill="#F4A131" d="M51.058 29.988c-2.334 0-4.668-.002-7.001-.003-.08-.142-.1-.234.11-.3.525-.165 1.038-.369 1.562-.542a.434.434 0 0 1 .433.069c.274.213.54.24.747-.124.06-.106.205-.166.348-.276-.34-.111-.63-.194-.953-.046-.134.06-.303.06-.456.06-.834-.005-1.657.112-2.48.23-.328.047-.648-.016-.971-.048-.112-.011-.215-.074-.236-.194-.023-.13.108-.111.175-.16.281-.206.272-.507.226-.811l8.207-.01c.194.705.255 1.428.289 2.155"/>
        <path fill="#F38A27" d="M11.824 33.633l9.164-.006c.142.652-.271 1.065-.647 1.494a.553.553 0 0 0-.444-.061 3.17 3.17 0 0 1-1.773.019c-.129-.036-.26-.074-.34.041-.249.356-.538.235-.86.129-.29-.096-.603-.116-.901-.189-.152-.037-.236.01-.298.137-.217.443-.674.472-1.034.434-.861-.092-1.719-.162-2.584-.134-.166-.61-.289-1.228-.283-1.864M23.633 35.21c-.219-.665-.192-1.368-.303-2.05l7.886-.012c.17.067.194.175.094.322-.36.53-.58 1.142-.973 1.652-2.237-.153-4.473-.185-6.704.089"/>
        <path fill="#EA6C20" d="M42.964 35.492c.49.072.966-.045 1.406-.218.795-.313 1.612-.234 2.428-.248.147-.003.305.024.388.125.297.362.635.205.974.112.014-.004.028-.012.042-.02.746-.405 1.454-.524 2.088.221.086.102.226.218.398.214-.112.572-.23 1.142-.452 1.684-.047-.06-.114-.113-.136-.18-.13-.408-.345-.53-.748-.298-.424.244-.845.237-1.215-.144-.237-.244-.507-.216-.801-.084-.606.271-1.228.507-1.829.787-.224.104-.388.046-.557-.066-.346-.228-.711-.346-1.133-.302-.26.026-.526.004-.79.004-.086-.526-.076-1.057-.063-1.587"/>
        <path fill="#F5912A" d="M31.216 33.148l-7.886.012c-.157-.322-.167-.608.087-.914.292-.354.146-.823.223-1.236a.213.213 0 0 1 .083.004c-.021.139-.025.266.164.283.02.115.03.237.163.295a.54.54 0 0 0 .119-.391c.05-.076.094-.18.204-.147.111.035.068.154.086.239l.082.093c.16.074.016.382.285.372l.18-.001c.103.467.714.623 1.125.287l.56.09c.31-.246.7-.352.945-.725.233-.355.634-.428 1.017-.147.168.123.326.177.504.038a.395.395 0 0 1 .301-.09c.67.076 1.34-.03 2.009-.008.031.453-.022.892-.207 1.313a.873.873 0 0 0-.044.633"/>
        <path fill="#F38A27" d="M34.67 35.582c.018-.307.044-.613.056-.92.029-.73.396-.975 1.107-.712.298.11.434.064.403-.286-.02-.229.001-.46.004-.691h3.963c-.296.698-.238 1.481-.529 2.18-.076.183-.163.362-.244.542-.527-.007-1.047.003-1.509-.348-.158-.12-.414-.052-.628.029-.807.302-1.612.664-2.485.213-.038-.019-.092-.006-.139-.007"/>
        <path fill="#A53600" d="M49.868 38.391c-.228.859-.643 1.637-1.053 2.417-.124.235-.834.16-.99-.144-.217-.42-.465-.494-.892-.333-.32.12-.452-.222-.607-.407-.25-.295-.472-.422-.776-.091-.118.13-.24.12-.358-.004-.282-.296-.637-.35-1.023-.314-.408.036-.689-.24-1.005-.426-.123-.072-.117-.21-.118-.334l-.004-.836c.727.15 1.45.318 2.18.443.366.063.744.063 1.044-.245.123-.126 1.457-.159 1.556-.025.25.334.59.287.929.287.372 0 .745.008 1.117.012M18.954 37.28c-.094.211-.196.419-.28.634-.087.222-.231.353-.475.383-.442.055-.832.23-1.136.563-.226.246-.533.315-.835.357-.338.047-.543.218-.615.534-.084.367-.31.453-.65.404-.351-.05-.707-.072-1.06-.113-.19-.023-.354-.08-.438-.287-.318-.787-.69-1.554-.887-2.386.697-.396 1.287-.207 1.798.342.225.241.385.19.54-.062.18-.29.392-.394.772-.324.635.119 1.287.18 1.94.144.19-.01.382 0 .5-.178.17-.256.388-.193.615-.113l.21.102"/>
        <path fill="#FBE04A" d="M46.79 19.23c-.105.163-.273.12-.422.12-1.817.002-3.633.003-5.45 0-.454 0-.66-.252-.575-.715.063-.345.09-.689.11-1.04.019-.324.276-.62.315-.98.042-.382-.2-.852-.566-1.003-.201-.084-.3-.252-.34-.459.253-.068.305.224.5.275.545.14.971 1.294.687 1.714-.27.396-.037.437.285.437h3.3c.189 0 .38.013.468-.208.631.557 1.204 1.167 1.688 1.858"/>
        <path fill="#EA6C20" d="M23.633 35.21c2.231-.273 4.467-.241 6.704-.088-.224.457-.28.959-.36 1.45-.065.396-.696.776-1.03.554-.213-.14-.402-.21-.64-.076-.077.043-.197.07-.259-.018-.442-.622-1.026-.286-1.567-.24-.167.03-.305-.053-.433-.133-.323-.202-.626-.235-.991-.061-.299.142-.619.282-.968.29l-.456-1.677M12.107 35.497c.865-.028 1.723.042 2.584.134.36.038.817.01 1.034-.434.062-.127.146-.174.298-.137.298.073.612.093.901.19.322.105.611.226.86-.13.08-.115.211-.077.34-.041a3.17 3.17 0 0 0 1.773-.02.553.553 0 0 1 .444.062c-.417.627-.864 1.231-1.384 1.778-.635.016-1.238-.277-1.88-.193-.473.062-.943.165-1.417.179-1.124.033-2.257.088-3.331-.364-.078-.34-.227-.666-.222-1.024"/>
        <path fill="#F6972C" d="M40.203 32.973H36.24l-.149-2.704 2.386-.007.289.416c.188.27.405.302.66.09.159-.13.353-.159.537-.216.559-.173.411.262.429.433.03.3-.053.61-.083.917-.018.191-.08.37.075.565.164.204-.158.32-.18.506"/>
        <path fill="#FBE94E" d="M45.102 17.37c-.088.222-.28.21-.468.21-1.1-.002-2.2-.002-3.3 0-.322 0-.554-.042-.285-.438.284-.42-.142-1.574-.686-1.714-.195-.05-.248-.344-.501-.275.004-.153-.021-.284-.22-.279-.13.004-.265-.023-.327-.139-.133-.25.087-.622-.27-.801.293-.2-.053-.377-.02-.567a18.003 18.003 0 0 1 4.79 2.838c.448.367.86.776 1.287 1.166"/>
        <path fill="#F17A2E" d="M49.868 38.391c-.372-.004-.745-.012-1.117-.012-.34 0-.68.047-.929-.287-.1-.134-1.433-.101-1.556.025-.3.308-.678.308-1.043.245-.731-.125-1.454-.293-2.18-.443l-.015-.84c.263 0 .528.022.789-.004.422-.044.787.074 1.133.302.17.112.333.17.557.066.601-.28 1.223-.516 1.829-.787.294-.132.564-.16.801.084.37.38.79.388 1.215.144.403-.232.617-.11.748.297.022.068.09.121.136.18-.088.356-.16.717-.368 1.03"/>
        <path fill="#F6A632" d="M18.286 29.707c-.378.05-.71.176-1.143.004-.43-.171-.85-.435-1.394-.397-1.053.073-2.115.017-3.173.024a2.415 2.415 0 0 1-.734-.096 8.943 8.943 0 0 1 .386-2.24c.326-.025.521.27.833.341.22.05.553.143.712.327.223.257.347.164.542.017.137-.103.978-.008 1.04.122.182.376.434.228.688.122l.093.004c.072.233.234.315.467.28-.007.091.007.19-.024.273-.102.272.044.811.289.902.207.078.29-.03.202-.242.28.18.563.333.92.287.177-.024.28.091.296.272"/>
        <path fill="#F4A131" d="M38.477 30.262l-2.386.007c-.084-.9-.17-1.8-.148-2.707l.201.001c.164.156.333.102.51.023.126-.055.274-.141.392-.118.48.098.77-.054.876-.59-.022.496.395.81.36 1.305-.051.696-.072 1.406.195 2.08"/>
        <path fill="#FAC841" d="M14.53 21.364c.634.255.677.783.714 1.372.02.33.025.503-.314.64-.402.161-.697.463-.785.918-.008.043-.032.108-.012.128.387.392.223.795.043 1.208-.078.179-.122.374.198.351.066-.005.115.032.108.112-.042.534.183.625.629.326v.488c-.091.008-.22-.013-.247.085-.167.585-.637.208-.935.25-.354.05-.344-.353-.308-.623.036-.278-.084-.37-.4-.383.602-.015.208-.866.831-.787-.051-.161-.338-.146-.211-.335.267-.397-.069-.502-.294-.662-.136-.097-.324-.116-.415-.28.336-1 .822-1.926 1.398-2.808"/>
        <path fill="#EA6C20" d="M34.67 35.582c.046.001.1-.012.138.007.873.45 1.678.09 2.485-.213.214-.08.47-.15.628-.03.462.352.982.342 1.509.349l-.482 1.207c-.57-.353-1.103-.056-1.644.098a.512.512 0 0 0-.394-.094c-.733.103-1.415-.276-2.146-.232-.09.006-.626.052-.2-.378.137-.138.076-.47.105-.714"/>
        <path fill="#FCEA71" d="M18.285 23.644c-.064.147.008.16.14.194.318.085.77-.152.924.412.026.091.51.14.759.31.176.121.341.203.466.407.143.232.424.283.7.17.058.077.126.084.178 0 .282-.46.778-.45 1.219-.562l-.267.375-.087.117.002.002c-.284-.143-.815.173-.812.562.003.31-.16.294-.294.23-.447-.212-.89-.374-1.401-.347-.072.004-.47-.017-.36-.39.03-.105-.189.042-.29-.067.283-.22.287-.32-.076-.53-.615-.357-1.273-.219-1.932-.357.208-.219.223-.476.156-.758-.04-.172-.072-.358.11-.5.05-.039.08-.145.072-.214-.07-.538.185-.89.627-1.15.04-.023.083-.13.064-.157-.229-.333.29-.56.124-.881-.01-.02.038-.1.068-.105.428-.086.453-.557.745-.77l.103-.003c.152.434-.344.53-.44.838-.027.089-.18.092-.14.253.132.53-.17.857-.546 1.17a.812.812 0 0 0-.298.733c.03.269-.177.526.086.821.138.156.24.184.4.196z"/>
        <path fill="#F9BA3B" d="M13.132 24.172c.091.164.28.183.415.28.225.16.561.265.294.662-.127.188.16.174.211.335-.623-.079-.229.773-.831.787.315.012.436.105.4.382-.036.271-.046.674.308.624.298-.042.768.335.935-.25.028-.098.156-.077.247-.085l.092.001c-.038.185-.138.46.171.427.494-.055.51.329.669.596-.254.106-.506.254-.687-.122-.063-.13-.904-.225-1.041-.122-.195.147-.32.24-.542-.017-.159-.184-.493-.277-.712-.327-.312-.07-.507-.366-.833-.342.19-.978.475-1.926.904-2.829"/>
        <path fill="#FCFB95" d="M24.616 26.581c-.02-.32.21-.613.08-.953a.224.224 0 0 1 .215-.295c.188-.008.216-.143.225-.29.298.005.604.056.894.008.852-.14 1.75-.039 2.554-.459.073-.038.183-.007.276-.008-.212.377-.494.701-.787 1.017-.262.002-.526.06-.785.065-.457.008-.468-.255-.618-.608-.086.508-.767.485-.626 1.036.006.022-.058.083-.096.092-.348.075-.27.302-.196.53a.822.822 0 0 1-.083.012c-.351-.045-.77.396-1.053-.147"/>
        <path fill="#F17A2E" d="M12.329 36.52c1.074.453 2.207.398 3.331.364.474-.014.944-.116 1.416-.178.643-.084 1.246.209 1.88.193l-.025.274-.188.005c-.227-.08-.445-.143-.615.113-.118.178-.31.167-.5.178a8.129 8.129 0 0 1-1.94-.143c-.38-.071-.592.033-.771.323-.156.253-.316.303-.54.062-.512-.55-1.102-.738-1.799-.342l-.25-.848"/>
        <path fill="#F69B2E" d="M31.467 31.202c-.67-.023-1.339.084-2.009.007a.395.395 0 0 0-.301.091c-.178.14-.336.085-.504-.038-.383-.281-.784-.208-1.017.147-.244.373-.636.48-.945.725.01-.21.025-.423-.187-.56.112-.137.394-.103.377-.37.389.065.802-.383.831-.92.28.079.487.58.848.165.326.064.697-.173.986.155.042.047.108-.03.149-.076.143-.164.29-.224.467-.038.02.022.112-.023.17-.038.203.06.404.137.61.178.141.028.355-.05.278-.189-.126-.224.09-.362.048-.544l.188.001c.037.073.105.089.179.093.073.421-.181.797-.168 1.21"/>
        <path fill="#EA6C20" d="M22.541 35.025l.301 1.869c-.363.04-.74-.094-1.093.08-.137-.04-.269-.146-.4.036-.292.403-.668.3-1.046.15.327-.708.764-1.345 1.26-1.945.34.015.645-.16.978-.19"/>
        <path fill="#F4A131" d="M38.801 27.927c.443.03.876.178 1.332.065a.499.499 0 0 0 .388-.338c.162.362.084.839.558 1.057.117.053.006.244-.105.294-.265.117-.485.312-.797.354-.412.057-.797.21-.947.752-.424-.724-.662-1.405-.429-2.184"/>
        <path fill="#A53600" d="M41.779 37.441c.04.519.077 1.037.124 1.555.023.246-.08.31-.317.325-.63.039-1.163-.285-1.742-.429-.185-.045-.212-.221-.121-.327.211-.248.17-.583.336-.838.225-.026.423.075.63.133.385.108.893-.095 1.023-.41a.142.142 0 0 1 .067-.009"/>
        <path fill="#FAD647" d="M23.16 14.136l-.111.096c-.362-.14-.362-.14-.37.365-.225.017-.27.402-.565.278-.137-.268-.291-.162-.413 0-.307.411-.689.323-1.084.186a15.803 15.803 0 0 1 4.677-2.241c-.17.87-1.138 1.468-1.965 1.211-.077-.102-.176-.107-.286-.067.04.057.078.114.117.172"/>
        <path fill="#F9BA3B" d="M18.286 29.707c-.016-.18-.119-.296-.296-.272-.357.046-.64-.106-.92-.287v-.28-.092c.03-.094.063-.188.094-.281l.54-.093c.25-.041.407.23.656.195-.141.44.114.347.373.295.063-.013.146.097.226.135.173.084.269.515.546.141.144-.194.529.088.554-.3.287-.047.339-.571.75-.37l.01.406-.074.148c-.232.088-.509.187-.588.41-.172.483-.63.222-.925.385-.12.067-.464-.244-.473-.654l-.288.516-.185-.002"/>
        <path fill="#EA6C20" d="M33.208 35.304l-.044.694c-.006.105-.064.247.032.306.194.118.212.21.072.398-.143.19-.28.177-.48.123-.41-.11-.784-.355-1.249-.28-.167.027-.348-.15-.41-.335-.079-.238.175-.063.235-.163.134-.225.287-.439.432-.657.477.082.94-.095 1.412-.086"/>
        <path fill="#F7D145" d="M25.67 26.728a.887.887 0 0 0 .082-.012c.266-.004.347-.213.441-.403.051-.102.043-.247.227-.228.323.033.662-.018.952.184-.44.215-.556.67-.783 1.045-.144.24-1.045.698-1.284.615-.38-.132-.509-.513-.708-.819.135.024.272.04.404.074.506.128.682.01.668-.456"/>
        <path fill="#FDFD9D" d="M28.86 24.584c-.093 0-.203-.03-.276.008-.804.42-1.702.319-2.554.46-.29.047-.596-.003-.894-.01-.147-.207-.419-.2-.6-.35.403-.005.815-.066 1.207-.005 1.252.195 2.27-.314 3.266-.963.362-.236.575-.634.974-.815-.295.611-.73 1.129-1.123 1.675"/>
        <path fill="#FBE04A" d="M39.025 13.367c-.033.19.313.368.02.567.357.179.137.551.27.801.062.116.197.143.328.14.197-.006.223.124.219.278-.487.003-.894-.319-1.396-.315-.294.003-.128-.392-.228-.562-.169-.008-.174.11-.221.18-.077.112-.13.29-.308.153-.146-.112-.06-.238.02-.367.223-.367.687-.624.552-1.162.272.033.508.16.744.287"/>
        <path fill="#FCEA71" d="M20.617 15.06c.395.138.777.226 1.084-.185.122-.162.276-.268.413 0 .059.149.2.31-.1.376-.191.042-.374.125-.56.19l-.274.09c-.021-.084-.036-.217-.158-.114-.1.085-.235.173-.318.141-.492-.187-.301.135-.27.341h-.001c-.16.132-.01.235.014.36.048.247.184.557-.098.734-.627.393-.784.83-.47 1.527.101.222.027.28-.18.276-.24-.439-.482-.85-.235-1.404.124-.279.324-.38.527-.53.174-.128.458-.21.101-.504-.298-.247-.058-.611-.031-.924.062-.106.168-.147.273-.19l.097.005.044.019-.039-.024.002-.078.179-.105"/>
        <path fill="#A53600" d="M20.303 37.16c.378.15.754.253 1.046-.15.131-.182.263-.075.4-.037.371.174.735.38 1.172.28.393.489-.034.625-.34.856-.382.29-.658.314-1.003-.08-.312-.358-.644-.766-1.227-.7-.087.01-.108-.09-.048-.169"/>
        <path fill="#EA6C20" d="M41.779 37.441a.141.141 0 0 0-.067.009c-.526-.044-1.032-.26-1.573-.185.036-.499.37-.872.554-1.309.305.115.623.102.94.096.12.455.112.925.146 1.39"/>
        <path fill="#FCF17E" d="M31.925 14.13c-.376.362-.573-.084-.815-.213-.12-.065-.136-.2-.228.007-.04.09-.13.025-.13-.022-.012-.346-.15-.23-.33-.115-.136.086-.265.114-.179-.148.074-.224-.124-.322-.291-.315-.255.01-.398-.022-.373-.324.013-.16-.178-.101-.267-.162-.401-.273-.777-.65-1.343-.467-.195.063-.14-.1-.159-.192l.829-.158c.023.094.1.226.16.199.354-.162.55.203.847.26.366.072.695.433.992.72.248.238.508.431.82.565.146.134.272.293.467.365"/>
        <path fill="#F38A27" d="M33.208 35.304c-.473-.01-.935.168-1.412.086.26-.473.522-.945.78-1.418.164-.3.434-.19.66-.145.253.05.135.27.117.423-.04.352-.095.703-.145 1.054"/>
        <path fill="#A53600" d="M24.09 36.888c.348-.008.668-.148.967-.29.365-.174.668-.141.991.061.128.08.266.163.433.132-.065.367-.172.603-.64.406a1.088 1.088 0 0 0-.903.032c-.282.147-.548.043-.808.01-.306-.04.01-.234-.04-.351"/>
        <path fill="#FCF17E" d="M32.58 16.195c-.037-.166-.193-.32.091-.464.247-.124.428-.36.376-.69-.014-.089-.006-.193.098-.24.108-.047.202-.105.146-.24a.246.246 0 0 0-.31-.147c-.337.115-.606-.014-.871-.193.124-.22.496.068.561-.273l.372.002c.012.183.147.176.276.179v.002c-.285.327.185.143.188.276l.001.002c.073.511-.238 1.026.018 1.536.004.009-.01.028-.016.042-.298.123-.603.217-.93.208"/>
        <path fill="#FCEA71" d="M27.372 26.268c-.29-.201-.629-.15-.952-.183-.184-.02-.176.126-.227.228-.094.19-.175.4-.441.403-.075-.228-.152-.455.196-.53.039-.009.102-.07.096-.092-.14-.55.54-.528.626-1.036.15.353.16.617.618.608.26-.005.523-.063.785-.065-.14.32-.436.478-.701.667"/>
        <path fill="#F6A632" d="M18.471 29.71l.288-.517c.01.41.353.72.473.654.295-.163.753.098.925-.385.08-.223.356-.322.588-.41l-.047.75c-.172-.004-.344-.011-.449.167-.041.072-.118.13-.19.104-.409-.15-.659.091-.955.487.01-.416-.096-.542-.397-.4-.127.06-.292-.015-.367-.133-.084-.132.102-.203.131-.318"/>
        <path fill="#F17A2E" d="M40.14 37.265c.54-.076 1.046.142 1.572.185-.13.315-.638.518-1.023.41-.207-.058-.405-.159-.63-.133a.595.595 0 0 1 .08-.462M37.304 37c.54-.154 1.073-.451 1.644-.098.003.184-.094.321-.21.45-.371-.161-.742.017-1.113.006a353.7 353.7 0 0 1-.321-.358"/>
        <path fill="#F7AE36" d="M36.144 27.563h-.201l-.33-1.957c.381.605.767 1.205.531 1.957"/>
        <path fill="#FCEA71" d="M33.51 15.988c.006-.015.02-.034.016-.043-.256-.51.055-1.025-.018-1.536.218-.01.35-.008.375.308.03.385-.172.826.184 1.162-.18.064-.36.13-.557.109"/>
        <path fill="#F17A2E" d="M22.541 35.025c-.333.03-.637.205-.979.19.294-.412.502-.862.557-1.379l.122-.009.3 1.198"/>
        <path fill="#F38A27" d="M41.634 36.052c-.318.005-.636.02-.942-.096.065-.332.288-.572.485-.826.147-.19.249-.14.317.06.094.28.157.564.14.862"/>
        <path fill="#A53600" d="M37.625 37.358c.371.01.742-.167 1.114-.005.002.015.008.03.007.045-.03.29-.066.659-.315.76-.227.092-.335-.294-.513-.45-.113-.1-.197-.233-.293-.35"/>
        <path fill="#FCEA71" d="M25.67 26.728c.013.465-.163.584-.669.456-.132-.034-.269-.05-.404-.074a1.17 1.17 0 0 0-.545-.351c.198-.177.41-.073.564-.178.283.542.702.102 1.053.147"/>
        <path fill="#F9BA3B" d="M22.266 27.074c.098-.376.117-.684.521-.689.12-.001.25.056.224.18-.076.367-.442.305-.745.51"/>
        <path fill="#F17A2E" d="M22.92 37.253c-.436.1-.8-.106-1.171-.28.354-.173.73-.039 1.093-.08l.079.36"/>
        <path fill="#F6A632" d="M20.82 28.904l-.011-.406a.562.562 0 0 1 .36-.098c-.057.21-.203.357-.35.504"/>
        <path fill="#F7AE36" d="M31.635 29.99c-.074-.003-.141-.019-.18-.092.038-.078.108-.095.187-.096l-.007.189"/>
        <path fill="#EA6C20" d="M18.743 37.178l.188-.005.023.107-.211-.102"/>
        <path fill="#FAD647" d="M20.438 15.166l-.002.078-.005.005-.097-.005c.013-.054.046-.083.104-.078M22.317 25.067l.087-.117-.087.117z"/>
        <path fill="#FCEA71" d="M32.671 13.948c-.065.341-.437.053-.56.274l-.186-.092c-.195-.072-.321-.23-.467-.365.458-.29.808.127 1.213.183M33.507 14.407c-.003-.132-.473.051-.188-.276.11.017.257-.061.321.072.048.098-.105.123-.133.204M33.319 14.13c-.13-.004-.264.003-.276-.18.03-.066.08-.164.144-.124.095.06.132.182.132.303"/>
        <path fill="#FAC841" d="M20.06 28.868c-.026.388-.41.106-.555.3-.277.374-.373-.057-.546-.14-.08-.04-.163-.15-.226-.136-.26.052-.515.144-.373-.295-.249.036-.405-.236-.655-.195l-.54.093c.058-.392-.199-.39-.467-.374l-.095-.094c-.216-.061.06-.346-.175-.401-.138.071-.072.324-.292.31a9.488 9.488 0 0 1-.093-.005c-.159-.267-.175-.651-.669-.596-.309.034-.209-.242-.17-.427.544-.064 1.037.295 1.586.194.028-.005.084.01.086.021.078.45.594.42.783.694.244.354.353.124.568-.076-.017.411.442.505.443.881 0 .115.103.065.175.075.168.025.437-.178.433.255-.002.18.214-.01.304-.079.166-.128.313-.298.477-.005"/>
        <path fill="#FCF17E" d="M20.69 17.022l-.02-.038c-.01.011-.025.022-.025.033-.001.012.012.025.018.038l.027-.033m-.991 1.774c.207.004.28-.054.18-.276-.314-.697-.157-1.134.47-1.527.282-.177.146-.487.098-.733-.024-.126-.175-.23-.014-.36-.03-.207-.22-.529.271-.342.083.032.219-.056.318-.14.122-.104.137.028.158.113-.454.178-.413.574-.358.925.044.275.162.57.543.565-.13.247-.296.38-.613.383-.795.008-.817.115-.667.895.055.283.282.775-.357.908-.124.026-.28.338-.505.425l-.103.003c-.234-.057-.228-.233-.073-.31.265-.13.397-.402.652-.53M21.454 15.441c.186-.065.369-.148.56-.19.3-.067.158-.228.1-.376.296.124.34-.26.565-.278.072.04.087.109.088.184-.15.235-.415.414-.372.746-.22.016-.44-.038-.648.114-.22.16-.284-.002-.293-.2"/>
        <path fill="#FCEA71" d="M22.767 14.78c-.001-.074-.015-.143-.088-.183.008-.504.008-.504.37-.365-.18.139.055.49-.282.549M23.16 14.136a66.95 66.95 0 0 0-.117-.172c.11-.04.21-.035.286.067-.033.073-.097.096-.17.105"/>
        <path fill="#FCFB95" d="M21.454 15.441c.01.198.073.36.293.2.209-.152.429-.098.648-.114-.135.432-.578.625-.787 1.006-.089.16-.22.295-.243.488-.38.005-.5-.29-.543-.565-.055-.351-.096-.748.358-.925l.274-.09"/>
        <path fill="#FCEA71" d="M21.274 25.137l.034-.121c.086.068.003.087-.035.12l.001.001zM18.284 23.643l.022-.04-.021.04z"/>
        <path fill="#FAC841" d="M28.41 29.67c-.028-.01-.046-.015-.063-.02l.01.035.052-.016m1.923.783c-.058.014-.15.06-.17.038-.178-.186-.324-.126-.467.038-.041.046-.107.123-.149.076-.29-.328-.66-.09-.986-.155-.175-.147.058-.537-.348-.558-.345-.018-.566.051-.755.407-.112.21-.322.518-.673.529-.03-.285.065-.56.02-.855-.04-.274.345-.439.609-.307.05.025.14-.032.212-.05l.067.15.056-.036-.123-.115c.021-.15.061-.285.258-.239.078.02.196.048.21-.02.131-.632.927-.298 1.16-.805.055-.118.327-.088.383.089.08.248.306.391.383.63.019.06.052.167.068.165.492-.057.484.5.805.647.095.32-.192.202-.25.165-.291-.186-.27.046-.31.206M26.88 31.203c.018.268-.264.234-.376.371-.125.124-.248-.237-.374-.001-.232.256-.462.413-.643-.043-.119-.301-.334 0-.51-.074-.082-.035 0 .193.028.3l-.179.003-.096-.568c.27-.165.5-.701.851-.087.065.114.187.115.289.073.269-.11.548-.053.823-.07.078.002.147.021.188.096"/>
        <path fill="#F7AE36" d="M26.88 31.203c-.04-.075-.11-.094-.187-.095.001-.104-.016-.213.091-.281.352-.011.56-.32.673-.53.189-.355.41-.424.756-.406.405.021.172.41.347.558-.361.415-.568-.086-.848-.165-.029.537-.442.985-.831.92M30.332 30.452c.04-.16.02-.392.31-.206.058.037.345.154.25-.165.003-.076 0-.152.01-.226.021-.146.111-.293.244-.285.2.012.093.21.122.327.042.182-.174.32-.048.544.077.138-.137.217-.277.189-.207-.041-.408-.117-.61-.178"/>
        <path fill="#F6A632" d="M24.73 31.19l.096.569c-.27.009-.125-.299-.285-.373l-.003-.093.192-.102"/>
        <path fill="#FAC841" d="M24.168 31.201a.54.54 0 0 1-.118.391c-.133-.058-.143-.18-.164-.294l.282-.097zM23.887 31.297c-.189-.017-.186-.144-.164-.283.181.022.165.157.164.283M27.439 29.083c-.03.046-.044.103-.073.11-.074.02-.103-.04-.095-.101.004-.032.045-.077.074-.08.026-.004.058.042.094.071M24.538 31.293l.003.093a44.4 44.4 0 0 1-.082-.093h.08"/>
        <path fill="#F6A632" d="M25.005 31.757c-.028-.108-.11-.336-.028-.301.176.073.391-.227.51.074.18.456.411.3.643.043.017.157.13.314.001.47-.411.337-1.022.18-1.126-.286"/>
        <path fill="#F7AE36" d="M26.131 32.044c.128-.157.016-.314 0-.471.125-.236.248.125.373.001.212.137.196.35.187.56l-.56-.09M16.894 28.908l-.053.077c.041.011.091.037.121.03.03-.008.038-.048.056-.074l-.124-.033m-.106-.787c.428-.016.839-.018.744.374l-.15.281c-.02.009-.058.022-.056.026.013.023.036.044.055.066l.001.28c.14.211.008.32-.323.242-.39-.09-.623-.63-.46-.902.049-.083.027-.182.038-.273l.15-.094"/>
        <path fill="#F9BA3B" d="M16.136 27.935c.22.015.154-.238.292-.31.235.056-.041.34.175.402v.188c-.233.035-.395-.047-.467-.28"/>
        <path fill="#F6A632" d="M17.07 28.868c-.013-.022-.027-.043-.035-.067-.002-.003.022-.016.034-.025v.092"/>
        <path fill="#FAD647" d="M20.436 15.244l.039.024-.044-.019.005-.005z"/>
        <path fill="#F6A632" d="M16.603 28.215v-.188l.095.094-.095.094"/>
        <path fill="#FCEA71" d="M20.69 17.022l-.027.033c-.006-.013-.02-.026-.018-.038 0-.011.016-.022.025-.033l.02.038M20.433 15.9z"/>
        <path fill="#F7AE36" d="M27.625 29.614l.123.115-.056.036-.067-.15zM28.41 29.67c-.027.007-.04.01-.053.015l-.01-.035c.017.005.035.01.062.02"/>
        <path fill="#F6A632" d="M16.764 28.908l.078.033c-.011.026-.017.066-.035.073-.019.008-.05-.018-.076-.029.01-.026.022-.051.033-.077"/>
    </g>
</svg>
