<svg xmlns="http://www.w3.org/2000/svg" width="300" height="100" viewBox="0 0 300 100">
    <g fill="none" fill-rule="evenodd">
        <path fill="#FFF" d="M0 0h300v100H0z"/>
        <g fill-rule="nonzero">
            <path fill="#04305C" d="M61.428 41.22h-5.06v7.259h5.06c2.355 0 3.9-1.506 3.9-3.63 0-2.125-1.545-3.63-3.9-3.63zm4.17 22.705L60.23 52.958h-3.861v10.967H51V36.43h10.775c5.6 0 8.92 3.823 8.92 8.42 0 3.86-2.355 6.254-5.02 7.22l6.14 11.855h-6.217zM76.068 63.925V36.43h18.11v4.79H81.435v6.447h10.852v4.789H81.434v6.681h12.745v4.788H76.068M99.24 63.925V36.43h5.368v22.707h11.3v4.788H99.24M130.672 44.54l-3.476 10.002h6.835l-3.36-10.001zm6.41 19.385l-1.622-4.865h-9.771l-1.658 4.865h-5.6l10.001-27.495h4.21l10.037 27.495h-5.597zM154.583 52.65v11.275h-5.331V52.65l-8.263-16.22h5.831l5.136 11.083 5.058-11.083h5.833l-8.264 16.22"/>
            <path fill="#5C8FB9" d="M199.382 61.03c-2.203 2.278-4.827 3.127-7.762 3.127-3.012 0-5.485-1.08-7.415-3.012-2.78-2.78-2.703-6.218-2.703-10.967 0-4.75-.077-8.186 2.703-10.968 1.93-1.93 4.324-3.011 7.415-3.011 6.37 0 9.616 4.17 10.348 8.804h-5.405c-.618-2.587-2.202-4.016-4.943-4.016-1.467 0-2.665.58-3.437 1.468-1.042 1.159-1.314 2.433-1.314 7.723s.272 6.603 1.314 7.763c.772.887 1.97 1.429 3.437 1.429 1.623 0 2.935-.58 3.823-1.545.889-1.005 1.234-2.24 1.234-3.67v-1.043h-5.057v-4.479h10.388v4.017c0 3.976-.696 6.371-2.626 8.38M215.603 64.157c-4.17 0-7.335-.888-10.04-3.63l3.477-3.476c1.737 1.739 4.09 2.319 6.641 2.319 3.167 0 4.866-1.199 4.866-3.4 0-.965-.27-1.776-.85-2.317-.54-.502-1.158-.771-2.432-.965l-3.321-.463c-2.355-.348-4.094-1.081-5.33-2.28-1.312-1.312-1.969-3.088-1.969-5.404 0-4.906 3.631-8.342 9.577-8.342 3.785 0 6.527.928 8.882 3.205l-3.398 3.36c-1.739-1.661-3.823-1.893-5.638-1.893-2.858 0-4.248 1.584-4.248 3.476 0 .695.232 1.43.81 1.97.542.501 1.428.926 2.55 1.08l3.243.464c2.51.347 4.093 1.043 5.253 2.124 1.467 1.39 2.122 3.398 2.122 5.83 0 5.33-4.44 8.342-10.195 8.342M230.27 63.925V36.43h18.11v4.79h-12.743v6.447h10.85v4.789h-10.85v6.681h12.743v4.788h-18.11"/>
            <path fill="#8E1731" d="M176.565 37.361c0-1.002-1.093-1.816-2.436-1.816-1.279 0-2.318.737-2.42 1.67l-.018-.021-6.878 25.821a3.223 3.223 0 0 0 1.755 1.445c1.021.341 2.095.125 2.933-.47l6.936-26.032-.024.016c.092-.193.152-.395.152-.613"/>
        </g>
    </g>
</svg>
