<svg xmlns="http://www.w3.org/2000/svg" width="300" height="100" viewBox="0 0 300 100">
    <g fill="none" fill-rule="evenodd">
        <path fill="#FFF" d="M0 0h300v100H0z"/>
        <g fill-rule="nonzero">
            <path fill="#000" d="M91 78c15.464 0 28-12.536 28-28s-12.536-28-28-28-28 12.536-28 28 12.536 28 28 28zm0-2c-14.36 0-26-11.64-26-26s11.64-26 26-26 26 11.64 26 26-11.64 26-26 26z"/>
            <path fill="#C5B783" d="M91 77c14.912 0 27-12.088 27-27s-12.088-27-27-27-27 12.088-27 27 12.088 27 27 27zm0-4c-12.703 0-23-10.297-23-23s10.297-23 23-23 23 10.297 23 23-10.297 23-23 23z"/>
            <path fill="#C8102E" d="M91 75c13.807 0 25-11.193 25-25s-11.193-25-25-25-25 11.193-25 25 11.193 25 25 25zm0-6c-10.493 0-19-8.507-19-19s8.507-19 19-19 19 8.507 19 19-8.507 19-19 19z"/>
            <path fill="#FFF" d="M111.643 41.036A22.503 22.503 0 0 0 91 27.5a22.502 22.502 0 0 0-20.54 13.304.5.5 0 1 0 .912.409A21.502 21.502 0 0 1 91 28.5c8.642 0 16.34 5.145 19.726 12.934a.5.5 0 1 0 .917-.398zM111.643 59.2A22.503 22.503 0 0 1 91 72.735a22.502 22.502 0 0 1-20.54-13.304.5.5 0 1 1 .912-.409A21.502 21.502 0 0 0 91 71.735c8.642 0 16.34-5.145 19.726-12.934a.5.5 0 1 1 .917.399z" opacity=".69"/>
            <path fill="#C8102E" d="M139.535 46.19h-3.73a86.66 86.66 0 0 0-2.242-3.36 78.229 78.229 0 0 0-2.172-2.92h-1.416v4.395c0 .228.035.428.107.6.072.173.225.305.459.396.117.045.322.088.615.127.293.039.54.062.742.068v.693h-5.859v-.693l.679-.068c.296-.033.503-.075.62-.127a.842.842 0 0 0 .425-.371c.088-.163.132-.371.132-.625v-10.02c0-.228-.033-.43-.098-.605-.065-.176-.218-.31-.46-.4a4.227 4.227 0 0 0-.634-.162 6.032 6.032 0 0 0-.664-.093v-.693h6.397c.585 0 1.136.06 1.65.18.514.121.98.315 1.396.582.404.26.726.6.967 1.02.241.42.362.926.362 1.519 0 .534-.082 1.006-.245 1.416-.162.41-.403.765-.722 1.064a4.29 4.29 0 0 1-1.055.728c-.41.205-.863.38-1.357.522l.938 1.25 2.189 2.966.242.325c.286.39.545.679.776.865.231.185.46.336.689.454.169.084.38.15.634.195.254.046.466.072.635.078v.693zm-5.137-10.333c0-.84-.24-1.505-.722-1.997-.482-.491-1.162-.737-2.041-.737h-1.66v5.947h1.279c.898 0 1.647-.288 2.246-.864.599-.576.898-1.359.898-2.349zm16.866-1.884c.612.638 1.09 1.408 1.435 2.31.345.9.518 1.899.518 2.992 0 1.1-.176 2.1-.528 2.998-.351.899-.84 1.664-1.464 2.295a6.351 6.351 0 0 1-2.11 1.446c-.8.338-1.653.507-2.558.507a6.53 6.53 0 0 1-2.671-.542 6.195 6.195 0 0 1-2.105-1.508c-.586-.632-1.046-1.398-1.382-2.3a8.24 8.24 0 0 1-.503-2.896c0-1.126.176-2.13.528-3.012a7.021 7.021 0 0 1 1.455-2.29 6.282 6.282 0 0 1 2.134-1.465 6.536 6.536 0 0 1 2.544-.508c.918 0 1.783.173 2.597.518.814.345 1.517.83 2.11 1.455zm-1.455 9.824c.364-.593.63-1.263.795-2.012.167-.749.25-1.585.25-2.51 0-.95-.093-1.823-.279-2.617-.185-.794-.457-1.471-.815-2.031a3.904 3.904 0 0 0-1.348-1.294c-.54-.31-1.159-.464-1.855-.464-.782 0-1.446.18-1.993.537a4.173 4.173 0 0 0-1.337 1.436c-.326.573-.568 1.243-.728 2.012a11.89 11.89 0 0 0-.24 2.421c0 .938.085 1.784.255 2.54.169.755.436 1.425.8 2.011.352.573.795 1.02 1.329 1.343.533.322 1.171.483 1.914.483a3.68 3.68 0 0 0 1.884-.488 3.821 3.821 0 0 0 1.368-1.367zm21.826 2.392h-6.123v-.693l.296-.016c.163-.011.35-.029.558-.052.349-.04.588-.095.718-.166.202-.124.35-.266.444-.425.095-.16.142-.36.142-.6V34.157h-.147l-4.726 11.807h-.488l-4.502-12.05h-.127v8.27c0 .801.05 1.41.151 1.827.101.416.256.716.464.898.143.137.44.267.889.39l.307.083c.279.07.469.108.571.113v.693h-5.595v-.693c.293-.026.6-.075.923-.146.322-.072.57-.18.747-.323.228-.182.384-.462.468-.84.077-.34.119-.885.126-1.636l.001-7.348c0-.41-.048-.745-.146-1.006a1.573 1.573 0 0 0-.42-.634 1.926 1.926 0 0 0-.742-.391 3.736 3.736 0 0 0-.87-.147v-.693h4.727l3.965 10.39 3.389-8.69c.123-.32.23-.653.317-1.002l.066-.27c.046-.202.071-.344.076-.428h4.521v.693a5.004 5.004 0 0 0-.698.088l-.303.061a2.93 2.93 0 0 0-.317.086c-.221.078-.371.208-.45.39-.077.183-.117.381-.117.596v9.99c0 .228.04.42.118.576.078.157.228.293.449.41.098.055.258.106.483.153l.142.028c.3.056.537.087.713.093v.693zm13.515-4.082l-.263 4.082h-11.504v-.693c.195-.013.456-.04.781-.083.326-.042.537-.086.635-.132.208-.097.353-.224.434-.38.082-.157.122-.355.122-.596v-9.961a1.43 1.43 0 0 0-.107-.572c-.072-.166-.221-.3-.45-.405a3.312 3.312 0 0 0-.707-.224 5.323 5.323 0 0 0-.708-.118v-.693h10.722v3.34h-.732c-.13-.495-.412-1.02-.845-1.577-.433-.557-.844-.861-1.235-.913a9.029 9.029 0 0 0-.723-.059l-.449-.015a24.95 24.95 0 0 0-.508-.004h-2.177v5.507h1.562c.501 0 .868-.047 1.099-.141.23-.095.434-.253.61-.474.143-.189.265-.441.366-.757.101-.315.168-.613.2-.893h.733v5.42h-.733a4.364 4.364 0 0 0-.21-.992c-.113-.348-.232-.6-.356-.756-.202-.254-.431-.42-.688-.498-.258-.079-.598-.118-1.021-.118h-1.562v4.16c0 .417.029.746.087.987.059.24.173.423.342.547.17.123.4.203.694.239.25.03.593.048 1.026.053h1.073c.352 0 .648-.012.889-.038.247-.026.503-.074.766-.142.264-.068.451-.161.562-.278.3-.313.614-.786.942-1.421l.202-.399c.215-.435.357-.77.428-1.003h.703zm12.344 4.405c-.827 0-1.62-.163-2.378-.489a6.1 6.1 0 0 1-2.016-1.406c-.58-.612-1.042-1.359-1.387-2.241-.345-.882-.518-1.877-.518-2.983 0-1.107.17-2.111.508-3.013a7.063 7.063 0 0 1 1.406-2.33 6.162 6.162 0 0 1 2.1-1.493 6.41 6.41 0 0 1 2.588-.528 6.33 6.33 0 0 1 1.855.254 6.9 6.9 0 0 1 1.582.713l.4-.664h.782l.088 4.941h-.8a11.65 11.65 0 0 0-.47-1.567 6.056 6.056 0 0 0-.732-1.43 3.55 3.55 0 0 0-1.113-1.04c-.43-.251-.922-.377-1.475-.377-.631 0-1.219.14-1.763.42a4.012 4.012 0 0 0-1.41 1.24c-.378.528-.675 1.198-.89 2.012-.214.814-.322 1.722-.322 2.725 0 .885.113 1.697.337 2.436a6.3 6.3 0 0 0 .962 1.949c.417.553.91.986 1.48 1.298.57.313 1.206.47 1.909.47.527 0 1.012-.084 1.455-.25a3.905 3.905 0 0 0 1.152-.659c.326-.286.612-.612.86-.977.247-.364.449-.761.605-1.191l.732.352c-.56 1.373-1.302 2.355-2.226 2.944-.925.59-2.025.884-3.3.884zm12.793-.323h-6.24v-.693l.762-.058.3-.03c.177-.024.312-.053.403-.088.215-.084.37-.2.468-.346.098-.147.147-.35.147-.61v-10.04c0-.228-.036-.418-.107-.571-.072-.153-.241-.282-.508-.386a5.132 5.132 0 0 0-.738-.22 4.869 4.869 0 0 0-.727-.122v-.693h6.24v.693c-.202.007-.443.031-.723.074-.28.042-.524.096-.732.16-.247.079-.413.206-.498.382a1.333 1.333 0 0 0-.127.586v10.029c0 .215.047.405.142.571.094.166.255.298.483.396.137.052.36.109.669.17.31.062.571.097.786.103v.693zm12.998-10.097h-.674a4.632 4.632 0 0 0-.317-.835 7.506 7.506 0 0 0-.513-.913 4.574 4.574 0 0 0-.64-.786c-.23-.225-.453-.354-.668-.386a9.186 9.186 0 0 0-.762-.059 21.771 21.771 0 0 0-.582-.017l-.834-.002v11.084c0 .215.045.412.137.59.09.18.25.318.478.416l.132.043c.109.031.26.068.453.11l.152.032c.375.078.666.12.874.127v.693h-6.542v-.693l.492-.043.342-.035c.375-.04.634-.088.777-.147a.948.948 0 0 0 .473-.366c.101-.16.152-.372.152-.64V33.095l-.906.003a31.65 31.65 0 0 0-.413.011c-.299.01-.585.031-.859.064-.215.026-.438.154-.669.386a5.135 5.135 0 0 0-.64.786 6.637 6.637 0 0 0-.517.932c-.15.33-.254.601-.313.816h-.683v-3.76h12.07v3.76zm12.988-3.067c-.11.007-.286.05-.527.132-.24.082-.413.161-.517.24l-.227.144c-.133.088-.23.16-.291.217-.091.084-.267.306-.527.664a29.399 29.399 0 0 0-1.407 2.178l-1.002 1.736-.609 1.066c-.24.417-.4.752-.478 1.006-.079.254-.118.622-.118 1.104v2.646c0 .235.048.438.142.61.094.173.255.311.483.416.114.043.303.094.566.154l.167.036c.351.075.634.116.85.122v.693h-6.485v-.693l.646-.056.174-.017c.365-.036.619-.083.762-.142.234-.097.396-.23.483-.4.088-.17.132-.378.132-.625v-3.37c0-.103-.063-.294-.19-.57l-.209-.439a25.164 25.164 0 0 0-.245-.484c-.39-.756-.824-1.573-1.3-2.452l-.923-1.689-.316-.566a5.45 5.45 0 0 0-.572-.84 2.894 2.894 0 0 0-.57-.498 1.875 1.875 0 0 0-.562-.225 3.77 3.77 0 0 0-.591-.098v-.693h5.908v.693l-.414.014c-.449.021-.78.062-.992.123-.274.078-.41.189-.41.332 0 .03.01.075.032.137l.026.068c.04.098.095.222.166.371l.09.178.213.403c.117.218.228.428.332.63l.464.868 1.723 3.117.817-1.323c.568-.926 1.036-1.701 1.403-2.327l.12-.203c.536-.921.805-1.473.805-1.655 0-.15-.055-.27-.166-.362a1.205 1.205 0 0 0-.44-.214 3.193 3.193 0 0 0-.615-.103l-.42-.035a17.83 17.83 0 0 1-.195-.019v-.693h4.814v.693zm-101.61 28.807c.292.326.509.682.649 1.07.14.387.21.838.21 1.352 0 1.224-.453 2.233-1.358 3.027-.905.795-2.028 1.192-3.37 1.192a6.227 6.227 0 0 1-1.855-.288 7.16 7.16 0 0 1-1.601-.699l-.42.713h-.781L126 63.453h.791c.163.586.353 1.115.571 1.587.218.472.506.913.865 1.323.338.384.734.69 1.186.918.453.228.978.342 1.577.342.45 0 .842-.059 1.177-.176a2.06 2.06 0 0 0 .815-.498c.209-.215.363-.467.464-.757.101-.29.152-.623.152-1 0-.554-.157-1.07-.47-1.548-.312-.479-.777-.842-1.396-1.09l-.537-.211c-.19-.073-.388-.15-.597-.229l-.32-.12a21.728 21.728 0 0 1-1.417-.582c-.78-.351-1.388-.812-1.821-1.382-.433-.57-.65-1.313-.65-2.231 0-.528.108-1.019.323-1.475.215-.456.52-.862.918-1.22a4.16 4.16 0 0 1 1.338-.796 4.569 4.569 0 0 1 1.611-.288c.638 0 1.21.097 1.714.292.505.196.965.424 1.382.684l.4-.664h.781l.079 4.6h-.791a17.548 17.548 0 0 0-.484-1.514 5.35 5.35 0 0 0-.698-1.309 3.203 3.203 0 0 0-1.026-.903c-.403-.225-.898-.337-1.484-.337-.618 0-1.146.199-1.582.596-.436.397-.654.882-.654 1.455 0 .599.14 1.095.42 1.49.28.393.687.717 1.22.97.357.172.709.325 1.056.461l.346.13c.459.167.903.344 1.333.533.39.17.766.361 1.128.576.361.215.675.466.942.752zm8.7 6.68c-.827 0-1.62-.163-2.378-.489a6.1 6.1 0 0 1-2.016-1.406c-.58-.612-1.042-1.359-1.387-2.241-.345-.882-.518-1.877-.518-2.983 0-1.107.17-2.111.508-3.013a7.063 7.063 0 0 1 1.407-2.33 6.162 6.162 0 0 1 2.1-1.493 6.41 6.41 0 0 1 2.587-.528 6.33 6.33 0 0 1 1.855.254 6.9 6.9 0 0 1 1.583.713l.4-.664h.781l.088 4.941h-.8a11.65 11.65 0 0 0-.47-1.567 6.056 6.056 0 0 0-.732-1.43 3.55 3.55 0 0 0-1.113-1.04c-.43-.251-.921-.377-1.475-.377-.631 0-1.219.14-1.762.42a4.012 4.012 0 0 0-1.412 1.24c-.377.528-.673 1.198-.888 2.012-.215.814-.323 1.722-.323 2.725 0 .885.113 1.697.337 2.436a6.3 6.3 0 0 0 .962 1.949c.417.553.91.986 1.48 1.298.57.313 1.206.47 1.909.47.527 0 1.012-.084 1.455-.25a3.905 3.905 0 0 0 1.152-.659c.326-.286.612-.612.86-.977.247-.364.449-.761.605-1.191l.733.352c-.56 1.373-1.302 2.355-2.227 2.944-.924.59-2.025.884-3.3.884zm21.084-.323h-5.752v-.693l.679-.058c.296-.027.5-.066.61-.118a.828.828 0 0 0 .43-.356c.091-.16.137-.366.137-.62v-4.932h-6.514v4.824c0 .228.038.42.112.577.075.156.223.292.445.41.088.047.232.093.431.14l.16.035c.283.059.506.092.669.098v.693h-5.752v-.693l.678-.058.266-.03c.156-.024.27-.053.345-.088a.828.828 0 0 0 .43-.356c.09-.16.136-.366.136-.62v-10a1.28 1.28 0 0 0-.127-.572.882.882 0 0 0-.44-.405 3.534 3.534 0 0 0-.639-.224 3.69 3.69 0 0 0-.65-.118v-.693h5.753v.693a4.354 4.354 0 0 0-.67.088l-.284.061c-.126.03-.228.058-.306.086-.222.078-.37.208-.445.39-.074.183-.112.381-.112.596v4.297h6.514v-4.2a1.28 1.28 0 0 0-.127-.57.882.882 0 0 0-.44-.406 3.534 3.534 0 0 0-.64-.224 3.69 3.69 0 0 0-.649-.118v-.693h5.752v.693a4.354 4.354 0 0 0-.669.088l-.284.061c-.126.03-.228.058-.307.086-.22.078-.369.208-.444.39-.075.183-.112.381-.112.596v9.99c0 .228.037.42.112.577.075.156.223.292.444.41.089.047.233.093.432.14l.16.035c.283.059.506.092.668.098v.693zm13.145-12.216c.612.638 1.09 1.408 1.435 2.31.345.9.518 1.899.518 2.992 0 1.1-.176 2.1-.527 2.998-.352.899-.84 1.664-1.465 2.295a6.351 6.351 0 0 1-2.11 1.446c-.8.338-1.653.507-2.558.507a6.53 6.53 0 0 1-2.671-.542 6.195 6.195 0 0 1-2.105-1.508c-.586-.632-1.046-1.398-1.381-2.3a8.24 8.24 0 0 1-.503-2.896c0-1.126.175-2.13.527-3.012a7.021 7.021 0 0 1 1.455-2.29 6.282 6.282 0 0 1 2.134-1.465 6.536 6.536 0 0 1 2.544-.508c.918 0 1.784.173 2.597.518.814.345 1.517.83 2.11 1.455zm-1.455 9.824c.364-.593.63-1.263.796-2.012.166-.749.249-1.585.249-2.51 0-.95-.093-1.823-.279-2.617-.185-.794-.457-1.471-.815-2.031a3.904 3.904 0 0 0-1.348-1.294c-.54-.31-1.159-.464-1.855-.464-.781 0-1.446.18-1.992.537a4.173 4.173 0 0 0-1.338 1.436c-.326.573-.568 1.243-.728 2.012a11.89 11.89 0 0 0-.24 2.421c0 .938.086 1.784.255 2.54.17.755.436 1.425.8 2.011.352.573.795 1.02 1.329 1.343.534.322 1.172.483 1.914.483a3.68 3.68 0 0 0 1.885-.488 3.821 3.821 0 0 0 1.367-1.367zm16.338-9.824c.612.638 1.09 1.408 1.435 2.31.345.9.518 1.899.518 2.992 0 1.1-.176 2.1-.528 2.998-.351.899-.84 1.664-1.464 2.295a6.351 6.351 0 0 1-2.11 1.446c-.8.338-1.653.507-2.558.507a6.53 6.53 0 0 1-2.671-.542 6.195 6.195 0 0 1-2.105-1.508c-.586-.632-1.046-1.398-1.382-2.3a8.24 8.24 0 0 1-.503-2.896c0-1.126.176-2.13.528-3.012a7.021 7.021 0 0 1 1.455-2.29 6.282 6.282 0 0 1 2.134-1.465 6.536 6.536 0 0 1 2.544-.508c.918 0 1.783.173 2.597.518.814.345 1.517.83 2.11 1.455zm-1.455 9.824c.364-.593.63-1.263.795-2.012.166-.749.25-1.585.25-2.51 0-.95-.093-1.823-.279-2.617-.185-.794-.457-1.471-.815-2.031a3.904 3.904 0 0 0-1.348-1.294c-.54-.31-1.159-.464-1.855-.464-.782 0-1.446.18-1.993.537a4.173 4.173 0 0 0-1.338 1.436c-.325.573-.568 1.243-.727 2.012a11.89 11.89 0 0 0-.24 2.421c0 .938.085 1.784.255 2.54.169.755.436 1.425.8 2.011.352.573.795 1.02 1.329 1.343.533.322 1.171.483 1.914.483a3.68 3.68 0 0 0 1.884-.488 3.821 3.821 0 0 0 1.368-1.367zm16.27-1.729l-.294 4.121h-10.83v-.693l.679-.068c.296-.033.503-.075.62-.127a.842.842 0 0 0 .425-.371c.088-.163.131-.371.131-.625v-9.922c0-.222-.037-.417-.112-.586-.075-.17-.223-.306-.444-.41a3.338 3.338 0 0 0-.63-.23 3.612 3.612 0 0 0-.669-.132v-.693h5.85v.693a3.95 3.95 0 0 0-.541.066l-.167.032c-.29.059-.5.11-.63.156a.728.728 0 0 0-.454.4c-.082.19-.122.391-.122.606v9.307c0 .43.02.763.063 1a.893.893 0 0 0 .298.553c.15.117.373.193.669.229.296.036.711.054 1.245.054.24 0 .491-.007.752-.02.26-.013.508-.039.742-.078.228-.039.438-.093.63-.161s.334-.155.425-.259c.267-.3.578-.753.932-1.362.355-.609.601-1.102.738-1.48h.693zm9.57-2.236c.292.326.509.682.649 1.07.14.387.21.838.21 1.352 0 1.224-.453 2.233-1.358 3.027-.905.795-2.028 1.192-3.369 1.192a6.227 6.227 0 0 1-1.855-.288 7.16 7.16 0 0 1-1.602-.699l-.42.713h-.781l-.137-4.746h.791c.163.586.353 1.115.572 1.587.218.472.506.913.864 1.323.338.384.734.69 1.186.918.453.228.979.342 1.577.342.45 0 .842-.059 1.177-.176a2.06 2.06 0 0 0 .816-.498c.208-.215.363-.467.464-.757.1-.29.15-.623.15-1 0-.554-.155-1.07-.468-1.548-.312-.479-.778-.842-1.396-1.09l-.538-.211-.917-.35a21.728 21.728 0 0 1-1.416-.58c-.782-.352-1.389-.813-1.822-1.383-.433-.57-.65-1.313-.65-2.231 0-.528.108-1.019.323-1.475.215-.456.521-.862.918-1.22a4.16 4.16 0 0 1 1.338-.796 4.569 4.569 0 0 1 1.611-.288c.638 0 1.21.097 1.714.292.505.196.965.424 1.382.684l.4-.664h.782l.078 4.6h-.791a17.548 17.548 0 0 0-.484-1.514 5.35 5.35 0 0 0-.698-1.309 3.203 3.203 0 0 0-1.025-.903c-.404-.225-.899-.337-1.485-.337-.618 0-1.145.199-1.582.596-.436.397-.654.882-.654 1.455 0 .599.14 1.095.42 1.49.28.393.687.717 1.22.97.357.172.709.325 1.056.461l.346.13c.459.167.903.344 1.333.533.39.17.767.361 1.128.576.361.215.675.466.942.752zM91.332 37.143c1.042 0 2.02.107 2.935.32a7.905 7.905 0 0 1 2.483 1.034 5.217 5.217 0 0 1 1.72 1.815c.428.747.642 1.647.642 2.7 0 .95-.145 1.789-.434 2.518a5.19 5.19 0 0 1-1.285 1.893 7.628 7.628 0 0 1-1.876 1.294c-.73.365-1.534.674-2.414.93l1.67 2.222 3.892 5.273.43.58c.509.694.97 1.206 1.38 1.536.411.33.82.6 1.224.808.301.15.678.266 1.13.347.45.081.827.128 1.128.14v1.232h-6.634a154.108 154.108 0 0 0-3.985-5.974 139.114 139.114 0 0 0-3.864-5.192h-2.518v7.814c0 .406.063.762.19 1.068.128.307.4.542.817.704.208.08.573.156 1.094.226.52.069.96.11 1.32.121v1.233h-10.42v-1.233l1.207-.121c.527-.058.894-.134 1.103-.226.347-.15.599-.37.755-.66.156-.29.235-.66.235-1.112V40.616c0-.405-.058-.764-.174-1.077-.116-.312-.388-.55-.816-.712-.29-.104-.666-.2-1.13-.286a10.726 10.726 0 0 0-1.18-.165v-1.233h11.375zm-1.424 1.406h-2.952v10.576h2.275c1.597 0 2.929-.512 3.994-1.537 1.065-1.024 1.597-2.416 1.597-4.176 0-1.494-.428-2.678-1.285-3.552-.856-.874-2.066-1.31-3.63-1.31z"/>
        </g>
    </g>
</svg>
