<svg xmlns="http://www.w3.org/2000/svg" width="300" height="100" viewBox="0 0 300 100">
    <g fill="none" fill-rule="evenodd">
        <path fill="#FFF" d="M0 0h300v100H0z"/>
        <g fill="#0072AD" fill-rule="nonzero">
            <path d="M71.055 43.901h2.01l7.386 18.264h-1.946l-2.307-5.67h-8.572l-2.274 5.67H63.44L71.055 43.9zm-2.868 11.11h7.417l-3.626-9.363-3.791 9.363zM91.429 53.132c-.462-1.978-1.682-3.165-3.858-3.165-3.197 0-4.78 2.802-4.78 5.637 0 2.803 1.583 5.638 4.78 5.638 2.044 0 3.759-1.55 3.956-3.758h1.649c-.462 3.164-2.572 5.11-5.605 5.11-4.153 0-6.428-3.198-6.428-6.99 0-3.79 2.275-6.989 6.428-6.989 2.902 0 5.143 1.517 5.506 4.517h-1.648zM95.484 43.901h1.648v7.352h.066c.593-1.583 2.44-2.67 4.351-2.67 3.825 0 4.978 1.944 4.978 5.076v8.473h-1.648V53.89c0-2.275-.758-3.989-3.461-3.989-2.638 0-4.22 1.945-4.286 4.517v7.68h-1.648V43.902zM109.692 43.901h1.649v2.572h-1.649V43.9zm0 5.077h1.649v13.187h-1.649V48.978zM115.495 56c.032 2.34 1.285 5.176 4.483 5.176 2.44 0 3.758-1.385 4.286-3.363h1.648c-.725 3-2.505 4.714-5.934 4.714-4.319 0-6.132-3.23-6.132-6.989 0-3.461 1.813-6.989 6.132-6.989 4.385 0 6.132 3.693 6 7.418h-10.483V56zm8.835-1.352c-.066-2.44-1.649-4.714-4.319-4.714-2.703 0-4.22 2.308-4.484 4.714h8.803zM126.67 48.978h1.846l4.286 11.571h.066l4.22-11.571h1.714l-5.077 13.187h-1.78zM141.407 56c.033 2.34 1.285 5.176 4.483 5.176 2.44 0 3.758-1.385 4.286-3.363h1.648c-.725 3-2.505 4.714-5.934 4.714-4.319 0-6.132-3.23-6.132-6.989 0-3.461 1.813-6.989 6.132-6.989 4.385 0 6.132 3.693 6 7.418h-10.483V56zm8.802-1.352c-.066-2.44-1.649-4.714-4.319-4.714-2.703 0-4.22 2.308-4.483 4.714h8.802zM154.099 48.978h1.516v2.209h.066c.857-1.583 2.308-2.605 4.45-2.605 1.781 0 3.396.858 3.891 2.572.824-1.747 2.538-2.572 4.319-2.572 2.967 0 4.516 1.517 4.516 4.616v8.934h-1.648v-8.835c0-2.176-.857-3.363-3.231-3.363-2.868 0-3.692 2.308-3.692 4.747v7.45h-1.649v-8.9c.033-1.78-.725-3.264-2.835-3.264-2.868 0-4.022 2.11-4.055 4.846v7.352H154.1V48.978zM177.044 56c.033 2.34 1.286 5.176 4.483 5.176 2.44 0 3.759-1.385 4.286-3.363h1.649c-.726 3-2.506 4.714-5.935 4.714-4.318 0-6.131-3.23-6.131-6.989 0-3.461 1.813-6.989 6.131-6.989 4.385 0 6.132 3.693 6 7.418h-10.483V56zm8.802-1.352c-.066-2.44-1.648-4.714-4.319-4.714-2.703 0-4.22 2.308-4.483 4.714h8.802zM189.703 48.978h1.649v2.275h.066c.593-1.583 2.44-2.67 4.351-2.67 3.824 0 4.978 1.944 4.978 5.076v8.473H199.1V53.89c0-2.275-.758-3.989-3.462-3.989-2.637 0-4.22 1.945-4.285 4.517v7.68h-1.649v-13.12zM206.516 48.978h2.77v1.352h-2.77v8.9c0 1.056.165 1.65 1.352 1.748.462 0 .956-.033 1.418-.066v1.385c-.495 0-.99.066-1.484.066-2.209 0-2.967-.726-2.967-2.967V50.33h-2.373v-1.352h2.373v-3.956h1.649v3.956h.032zM214.758 43.901h12.99v2.77h-9.693v4.78h8.505v2.604h-8.505v8.11h-3.297zM230.055 43.901h3v2.77h-3V43.9zm0 5.044h3v13.22h-3v-13.22zM236.319 48.945h2.835v2.571h.066c.33-1.417 2.143-2.9 3.989-2.9.692 0 .857.065 1.12.065v2.803c-.428-.066-.856-.132-1.285-.132-2.044 0-3.692 1.615-3.692 4.516v6.297h-3v-13.22h-.033zM247.857 57.945c.165 1.681 1.484 2.308 3.099 2.308 1.12 0 3.099-.231 3.033-1.748-.066-1.549-2.275-1.714-4.45-2.208-2.21-.462-4.385-1.22-4.385-3.923 0-2.901 3.23-3.792 5.703-3.792 2.802 0 5.34 1.121 5.703 4.055h-3.131c-.264-1.384-1.451-1.78-2.77-1.78-.857 0-2.472.198-2.472 1.352 0 1.417 2.209 1.648 4.417 2.11 2.176.494 4.418 1.252 4.418 3.857 0 3.132-3.264 4.286-6.099 4.286-3.428 0-6-1.484-6.033-4.616h2.967v.1zM257.912 48.945h2.275V44.99h3v3.956h2.703v2.176h-2.703v7.055c0 1.187.099 1.813 1.45 1.813.429 0 .858 0 1.253-.099v2.242c-.66.066-1.286.165-1.945.165-3.132 0-3.725-1.187-3.758-3.363v-7.813h-2.275v-2.176zM38.813 48.12l2.67-2.142 2.473 3.758s6.923-11.934 13.912-14.703c0 0-7.253 4.78-14.34 19.912l-4.715-6.824z"/>
            <g>
                <path d="M61.89 45.945c-.758-4.945-5.308-7.154-9.527-4.978-.165.198-.33.396-.495.626 7.681-2.11 8.77 3.89 7.253 9.56-.429 1.583-5.407 14.243-7.517 13.715 2.077 1.187 6.693-6.099 7.385-7.648 1.582-3.495 3.527-7.352 2.901-11.275zM50.88 41.923c.032-.033.098-.066.131-.099-.132.033-.264.1-.396.132l.264-.033z"/>
            </g>
            <path d="M38.945 40.077C34 41.462 34 46.176 34.527 50.857c.462 3.99 1.715 9.758 4.78 12.692 3.759 3.627 8.473-.263 9.825-3.923-5.637 8.341-11.605 1.715-12.429-6.89-.23-2.406-1.12-9 2.374-10.846 2.571-1.385 6.593-.264 8.77 1.583.032-.066.098-.1.131-.165-2.209-2.737-5.473-4.22-9.033-3.231z"/>
        </g>
    </g>
</svg>
