<svg xmlns="http://www.w3.org/2000/svg" xmlns:xlink="http://www.w3.org/1999/xlink" width="300" height="100" viewBox="0 0 300 100">
    <defs>
        <path id="a" d="M0 .071h47.942v47.454H0z"/>
    </defs>
    <g fill="none" fill-rule="evenodd">
        <path fill="#FFF" d="M0 0h300v100H0z"/>
        <g transform="translate(39 26.166)">
            <mask id="b" fill="#fff">
                <use xlink:href="#a"/>
            </mask>
            <path fill="#0D0D38" d="M11.99 28.323c-.15-.396-.402-.485-.736-.577.11.383.26.603.737.577zm.269.074c.713.26 1.003.145 1.328-.413l-1.328.413zm6.994 14.393c-.54-1.064-1.164-1.085-2.56-.299.87.076 1.621-.231 2.56.299zm-6.728-7.586l.424-1.725c-1.32.115-1.373.294-.424 1.725zm-.02-12.423c.373.46.751.543.99.082.298-.572.307-1.164-.41-1.6-.186.58.097 1.239-.58 1.518zm3.462 19.485l.822-1.009c-.415-.353-.519-.988-1.12-1.23-.217.781-.014 1.437.298 2.239zM14.891 9.284c-.529-.259-1.042-.242-1.151.238-.092.402.11 1.05.584 1.138.316.057.689 1.015 1.095.01-.372-.373-1.336-.563-.528-1.386zm11.083.083c1.364-.667 2.7.855 4.288.156-1.546-1.239-2.909-1.032-4.288-.156zm6.34 21.385c.82 1.168 1.042 2.415 1.45 3.66.761-2.152.278-3.548-1.45-3.66zM21.55 7.983c-1.238-1.106-2.583-1.876-4.255-1.816 1.608.176 2.274 2.624 4.255 1.816zm14.78-1.658c2.162 1.773 2.617 4.027 1.906 6.638-.417 1.531-.91 3.112.646 4.453-.634-1.513.027-2.93.182-4.389.206-1.932-.067-3.828-.717-5.66-.421-1.19-1.239-1.623-2.017-1.042zM33.85 12.28c-.121-.504.498-1.068.323-1.296-1.1-1.43.29-2.076.89-2.867.583-.766 1.429-.556 1.862.314.169.339.181.781.798.988-.31-1.062-.579-2.032-1.587-2.293-.914-.236-1.54.473-2.127 1.105-1.178 1.269-1.718 2.839-2.226 4.568 1.28.06 2.194.983 3.436 1.301.014-1-.047-1.812-1.369-1.82zM10.54 31.315c-.209.155-.447.241-.463.357-.113.853.337 1.353 1.144 1.408.693.048 1.448.029 1.494-1.008.043-.988-.076-1.823-1.038-2.432-.76-.482-1.49-1.232-1.251-2.21.167-.681-.095-1.03-.466-1.54-.894.881-.96 1.826-.349 2.831-1.133.784-.8 1.75.93 2.594zm22.469 3.461c-.034-1.231-.38-2.1-.644-2.991-.28-.945-.867-1.414-1.862-1.447-1.495-.048-2.99-.162-4.485-.214-.701-.024-.703.012-1.023.882 2.806.804 5.41 2.056 8.014 3.77zm-17.113 9.368c-.008 1.621.484 1.971 1.877 2.362 1.716.482 3.21-.267 4.801-.468 1.3-.165 1.594-1.19 1.702-2.226.27-2.618 1.341-4.836 3.207-6.66.891-.87 1.54-.76 2.54.28-2.035-.061-2.886.585-3.397 2.602 1.595.594 1.294 2.269 1.901 3.562l.482-1.546.689 1.981c1.76-2.365 2.95-4.892 3.231-7.804.04-.413.072-.724-.384-.988-2.723-1.576-5.508-2.99-8.628-3.625.161-.298.354-.595.492-.916.78-1.817.052-3.768-1.64-4.32-2.402-.781-4.567-.363-6.447 1.367-.632.581-1.229 1.172-1.977 1.654-1.72 1.11-1.475 2.867.395 3.697 1.712.76 3.392.985 5.24.306 1.762-.646 3.36-.213 4.68 1.277.505.568.564 1.454 1.381 1.692-.711 1.717-1.35 3.367-2.071 4.98-1.299 2.902-1.377 2.924-4.425 2.286-.308-.065-.612-.165-.923-.198-.938-.097-1.88-.208-2.882.02.322.574 1.001.212 1.17.805l-1.014-.12zm18.728-12.952l-.156-.131-.02.291c.583 2.077.908 4.165.208 6.305l-.14-1.661c-.965 3.91-2.51 7.54-5.064 11.09 6.912-2.949 9.602-8.047 9.213-15.04.51 1.586.686 3.167.79 4.833.836-.437.942-1.372 1.778-2.027-.55 2.06-1.413 3.648-2.568 5.322-.074-.96.397-1.674.061-2.531-.4 2.004-1.235 3.748-2.056 5.525 2.985-2.34 5.564-5.067 6.31-8.87.619-3.155.08-6.256-2.38-8.932.507 5.324.496 5.54-.42 6.944-.593-3.192-1.777-5.903-5.22-7.362.525.68.947 1.11 1.171 1.927-.522-.402-.845-.656-1.174-.902-.664-.498-1.341-1.145-2.204-1.01-2.677.416-5.266 1.191-7.832 2.125.459.699.456.683 1.335.517 3.475-.652 6.956-1.05 10.463-.209.34.082.722.06.893.507-.513 0-.993.053-1.457-.008a28.85 28.85 0 0 0-10.121.463c-.681.152-.688.438-.57.961 4.246.237 8.484.21 12.208 2.56-1.063-.027-1.984-.657-3.048-.687zM13.908 7.95c1.614.902 3.518 1.574 3.048 4.128.54-.191.957-.228 1.359.066.159-2.51-2.116-4.336-6.083-6.015.44.946.432 2.059 1.566 2.523l.125-.725-.015.023zm4.776 28.055c-.722.164-.846.749-.98 1.35-.168.761-.056 1.566-.405 2.301-.157.333-.678.872.048 1.005.531.097 1.357.642 1.72-.374.075-.124.092-.321.32-.26.05.722-.194 1.5.406 2.156l1.253-.395c-.225-.601-.874-.796-.971-1.475.349.258.666.18.982.1 1.4-.481 1.374-1.77 1.59-2.888.196-1.015.504-1.856 1.774-1.857-1.303-1.853-3.807-1.94-5.07-.258l.134-1.106c-.45.082-.895-.088-1.28.283l.479 1.418zm5.893-9.772c2.263-.395 4.406-1.328 6.706-1.553-2.419-.325-4.71-.085-6.679 1.574l-.177.085.142.058.008-.164zM16.272 6.518l.02.013c-.155-.247-.375-.293-.638-.2l-.21-.291c-.792-.52-1.68-.648-2.985-.71l1.262.528c.442.56 1.172.487 1.73.79.715.577 1.475 1.106 2.132 1.742.886.86 1.48 1.938 1.873 3.102.201.595-.653.566-.764 1.096-.143.68-1.101.87-1.046 1.872.025.456-.996.97-1.779 1.668l1.19-1.51c-1.954.55-2.888 2.028-4.202 2.985-.778.566-.75 1.424-.787 2.234-.02.413.276.536.643.3.083-.052.136-.152.07-.075.151-.599-.486-.53-.29-1.059 1.537.54 1.105 2.534 2.275 3.346-.3.327-.412.797-.894.904l-.55.359c-.258.3-.513.601-1.052.48-.124-.411-.214-.92-.71-1.211-.255.616-.107 1.112.238 1.578-.32.479-1.142.621-1.018 1.433.344-.312.567-.738 1.111-.614l-.192.755-.253.213c-.226.227-.552.542-.293.796.33.323.86.411 1.33.318.78-.153 1.554-.34 2.348-.162 1.066.24 2.124-.468 2.319-1.583l-1.195.392c.251-.62.89-.51 1.002-1.024-.722-.752-1.818-.535-2.659-.972 1.628-.544 3.213.14 3.847 1.652 1.08-.136 2.116-.433 3.257-.18.777.173 1.599.424 2.494-.134 3.128-1.948 6.452-2.421 9.938-.873.001-.896.585-.682 1.066-.543 2.403.694 3.912 2.36 4.897 4.575.152.343.145.77.623 1.03.124-1.927-.47-3.657-1.036-5.391.626-.224 1.065.023 1.448.39 2.527 2.412 3.469 5.406 3.147 8.822-.102 1.081-.38 2.146-.577 3.218 1.63-1.813 2.548-3.895 2.761-6.267.481.075.206.633.647.677.698-2.268.171-4.403-.57-6.56-.776-2.254-2.44-3.616-4.588-4.618.523-.378.87.235 1.19-.234-.427-2.081-1.482-3.87-2.644-5.6-1.677 1.979-.137 4.376-.984 6.66-.818-1.48-1.614-2.624-3.141-3.066-.387-.112-.927-.509-.988-1.083-.202-1.877-1.459-2.662-3.105-3.068-.542-.133-.693-.398-.62-1.017.196-1.658 1.094-2.998 1.794-4.433l1.105-.941c-1.103 0-1.473.703-2.017 1.132-.467.503-.87 1.049-1.1 1.705-.465.042-.622.312-.556.749l-.049.321c-.51.09-.722.359-.52.874l-.251.433c-.668.55-.564 1.526-1.191 2.298-.16-.562-.402-.976-.362-1.36.129-1.224-.682-1.3-1.529-1.381a10.975 10.975 0 0 0-4.64.54c-.64.22-.903.037-1.165-.511-.516-1.083-1.031-2.18-2.064-2.902-.654-.833-1.372-1.595-2.33-2.09.085-.21-.04-.28-.213-.317zm-.494 32.325c.388-.027.325.495.651.543.239-.494-1.764-5.368-2.461-5.99-.634.541-.742.837-.813 2.302-1.038.283-1.474-.423-1.822-1.172-.593-1.278-1.387-1.59-2.664-.954-.807.403-1.628.786-2.393 1.259-.687.424-1.335.904-2.283 1.271.493-1.242 1.662-1.376 2.38-2.04.591-.548 1.42-.833 2.116-1.277.379-.241 1.14-.253.84-1.02-.287-.734-.894-.491-1.417-.344-2.082.586-4.16 1.187-6.236 1.792-.221.065-.413.244-.824.063 1.88-1.149 3.802-1.942 5.858-2.313 1.344-.242 2.104-.704 1.548-2.312-2.666-.104-5.382.423-8.129.614 2.351-.927 4.793-1.365 7.32-1.394.318-.004.781.212.94-.203.21-.547.803-1.158-.452-1.458A92.575 92.575 0 0 0 0 24.686c2.482-.325 4.917.038 7.357.472.798.141 1.574.706 2.476.06.669-.479.935-.923 1.016-1.787.161-1.713.56-3.405.766-5.126.129-1.067 1.223-1.489 1.94-2.138 1.456-1.315 1.735-1.659.67-3.294-2.038-3.128-2.403-7-4.694-9.995-.555-.726-.91-1.663-.5-2.807 1.454 3.932 4.615 5.075 8.268 5.427 1.76.17 3.317.914 4.746 1.843 1.782 1.158 3.618 1.204 5.575.762.378-.086.872-.235 1.155-.075 1.87 1.055 2.953-.221 4.168-1.265a10.493 10.493 0 0 1 2.055-1.396c2.024-1.029 3.028-2.68 3.181-4.908.694.585.802.925.686 2.24-.02.233-.131.459-.136.689-.016.74-.774 1.434-.37 2.127.497.851 1.28-.41 2.023.24-1.673 1.083-.793 2.543-.647 4.065.19 1.976.84 3.622 2.02 5.136.846 1.087 1.19 2.432 1.722 3.66.51 1.178 1.409 2 2.147 2.932 2.002 2.525 2.473 5.371 2.277 8.437-.02.307-.12.628-.258.904-2.105 4.236-4.311 8.429-7.717 11.79-2.896 2.86-6.475 4.403-10.524 4.816-.771.078-1.55.031-2.315-.488.558-.597 1.735-.49 1.696-1.596-.428-.235-.306.399-.68.34-.214-1.152-.428-2.336-.656-3.517-.082-.426-.133-.883-.774-.816-.531.055-1.134-.127-1.376.602-.305.916-.828 1.798-.05 2.755.379.468-.116.667-.413.913-2.195 1.815-4.749 1.842-7.381 1.501-.763-.099-1.264-.608-1.71-1.148-1.23-1.488-1.194-5.63.035-7.198z" mask="url(#b)"/>
        </g>
        <path fill="#0D0D38" d="M43.039 62.45c-.147.08-.237.168-.323.163-.086-.004-.168-.1-.252-.156.093-.054.182-.14.279-.151.076-.01.162.075.296.145"/>
        <path fill="#F8B522" d="M57.648 48.45l.005.154.75-.072-.005-.081h-.75zm-4.616-4.564c-.333.477-.521.877-.538 1.388.934-.403 1.017-.63.538-1.388zm4.089.884c-.863.408-.7 1.05-.396 1.726l.396-1.726zm-3.183 1.682l.622-1.9c-1.115.465-.67 1.253-.622 1.9zm1.663-.93c-.315 1.58.15 2.364 1.236 2.844-.774-.651-.744-1.663-1.236-2.843zm5.056-3.029c1.034-.79 1.997-1.679 3.07-2.431-1.494.182-2.309 1.27-3.07 2.431zm-5.882 4.488c-.418 2.286.047 2.73 2.557 2.504-.972-.74-2.567-.787-2.557-2.504zm7.175-1.582l-.663-.188c.007-.68.875-.982.607-1.822-1.158.752-1.778 1.748-2.026 3.08.962.098 1.498-.38 2.082-1.07zm9.851 3.576c.14-1.337.95-.35 1.341-.297.581.08 1.101.555 1.84.545-1.625-1.896-5.747-1.99-6.624-.066 1.19-.704 2.307-.582 3.443-.182zm-7.233-2.34c-1.33-.893-2.507-.72-3.797.433-1.079.965-1.379 2.518-2.713 3.317.454.292.86.208 1.18.27 1.202.237 2.49.83 3.681-.051 1.152-.853 2.395-1.425 3.85-1.464.014 0 .024-.132.059-.338-1.933.54-2.976-1.168-4.624-1.64.723-.608 1.482-.467 2.364-.527zm-6.684-4.92c-.152-.15-.234.01-.335.079-.004.003.02.08.044.09.162.066.255-.009.303-.162l.274-.2.714-.713 1.502-1.045c-.936.002-1.271.507-1.69.86l-.715.734c-.082.105-.258.185-.097.357zm-7.086 8.91c-.345-.465-.493-.961-.237-1.578.495.291.585.8.71 1.212.538.12.793-.181 1.05-.48.278.024.513-.017.55-.36.483-.106.595-.577.895-.904-1.17-.812-.738-2.806-2.276-3.345-.195.528.442.46.291 1.058.066-.076.013.023-.07.076-.367.236-.662.112-.643-.301.038-.81.009-1.667.787-2.234 1.314-.957 2.248-2.435 4.202-2.985l-1.19 1.51c.783-.698 1.804-1.212 1.78-1.668-.056-1.001.902-1.192 1.045-1.872.11-.53.965-.5.764-1.095-.393-1.164-.987-2.244-1.873-3.103-.657-.636-1.417-1.164-2.131-1.741l.175-.179.666.062-.021-.014.213.317c.958.495 1.676 1.257 2.33 2.09l2.286 3.957c1.621-.31 3.259-.69 4.966-.651.966.022 1.525.305 1.718 1.319.144.758.5 1.455 1.583 1.56-.323-1.102.521-1.896.398-2.868l.252-.434.52-.874.048-.321c.338-.136.417-.464.556-.748.23-.657.633-1.202 1.1-1.706.352.166.605-.14.911-.19-.7 1.434-1.597 2.775-1.793 4.432-.073.62.079.884.62 1.018 1.646.405 2.903 1.19 3.105 3.068.061.574.6.97.988 1.082 1.526.442 2.323 1.587 3.141 3.065.847-2.283-.693-4.68.984-6.658 1.162 1.729 2.217 3.518 2.645 5.599-.322.469-.668-.144-1.191.234 2.148 1.002 3.812 2.364 4.587 4.619.742 2.157 1.269 4.291.57 6.56-.44-.045-.164-.603-.646-.678-.213 2.372-1.13 4.455-2.761 6.267.197-1.072.475-2.137.577-3.218.322-3.415-.62-6.41-3.147-8.822-.383-.366-.822-.613-1.448-.39.567 1.735 1.16 3.464 1.036 5.392-.478-.26-.47-.688-.623-1.03-.985-2.216-2.494-3.882-4.897-4.576-.481-.139-1.065-.353-1.066.544-3.486-1.549-6.81-1.075-9.938.872-.896.558-1.717.307-2.494.135-1.14-.253-2.176.044-3.257.18-.634-1.512-2.219-2.196-3.846-1.654.84.439 1.936.222 2.658.974-.112.513-.75.404-1.002 1.023l1.195-.391c-.195 1.114-1.253 1.822-2.32 1.582-.793-.179-1.567.01-2.347.163-.47.092-1 .004-1.33-.319-.26-.254.067-.57.293-.796.78 1.026 1.611.051 2.67.225-.945-.482-1.798.454-2.417-.438l.193-.754c.014-.278.184-.575-.094-.82z"/>
        <path fill="#FDFDFD" d="M73.623 57.359c1.064.03 1.985.66 3.048.687-3.724-2.35-7.963-2.323-12.207-2.56-.119-.524-.112-.81.569-.962a28.849 28.849 0 0 1 10.12-.463c.465.06.945.009 1.458.009-.171-.449-.552-.425-.893-.507-3.507-.841-6.988-.444-10.463.209-.88.165-.876.181-1.335-.517 2.566-.934 5.155-1.71 7.832-2.126.863-.134 1.54.513 2.204 1.01.329.246.652.5 1.174.902-.224-.817-.645-1.246-1.172-1.926 3.444 1.459 4.628 4.17 5.221 7.361.915-1.404.927-1.62.42-6.944 2.46 2.676 2.999 5.778 2.38 8.932-.746 3.804-3.325 6.53-6.31 8.87.821-1.777 1.655-3.52 2.056-5.525.336.857-.135 1.57-.061 2.532 1.155-1.675 2.018-3.263 2.568-5.323-.836.656-.942 1.59-1.777 2.027-.105-1.666-.281-3.246-.791-4.832.389 6.992-2.301 12.09-9.213 15.039 2.554-3.55 4.099-7.18 5.064-11.09l.14 1.66c.7-2.138.375-4.226-.207-6.303.062-.05.12-.103.175-.16"/>
        <path fill="#FDFDFD" d="M57.087 70.588l-.555-.21c.155.314.32.303.555.21M64.52 60.47c-.203-1.507-.55-1.778-1.82-1.47.787.3 1.375.772 1.82 1.47m-8.49-4.816c1.588.476 3.156-.898 4.746-.132-1.59-.778-3.169-.417-4.745.132m.323 1.595c1.58-.059 3.11-.31 4.625.56-.518-1.475-3.197-1.726-4.625-.56m5.878-2.716c-1.718-1.534-5.574-1.277-6.404.252 2.022-1.237 4.082-.721 6.404-.252M54.895 70.31l1.014.12c-.169-.592-.848-.23-1.17-.805 1.001-.228 1.944-.117 2.882-.02.311.033.615.134.923.198 3.047.638 3.127.617 4.424-2.286.722-1.613 1.36-3.262 2.072-4.98-.817-.237-.876-1.123-1.38-1.692-1.32-1.49-2.92-1.923-4.68-1.277-1.849.68-3.529.454-5.241-.306-1.87-.83-2.115-2.587-.395-3.697.748-.482 1.345-1.072 1.977-1.654 1.88-1.73 4.045-2.148 6.446-1.366 1.693.551 2.422 2.503 1.641 4.32-.138.32-.33.618-.492.915 3.12.636 5.905 2.049 8.628 3.625.456.265.424.576.384.988-.28 2.912-1.472 5.44-3.231 7.805l-.69-1.982-.48 1.546c-.608-1.293-.307-2.968-1.901-3.561.51-2.018 1.36-2.664 3.396-2.603-1-1.04-1.649-1.15-2.54-.28-1.866 1.825-2.937 4.042-3.207 6.66-.108 1.036-.403 2.061-1.702 2.226-1.59.202-3.085.95-4.801.468-1.393-.39-1.885-.74-1.877-2.362"/>
        <path fill="#F8B522" d="M58.352 61.576c1.261-1.681 3.766-1.595 5.069.258-1.27.001-1.578.842-1.774 1.858-.216 1.117-.19 2.406-1.588 2.887-.276-.267-.594-.428-.99-.39-.248-.342-.5-.768-.7.029l.017-.024c-.227-.062-.244.135-.319.26-.422-.149-1.229.168-1.128-.643.195-1.572 1.644-.383 2.325-.953-2.305-.865-2.318-.884-1.526-2.225 1.054.127.544-.656.634-1.09l-.02.033z"/>
        <path fill="#FDFDFD" d="M72.008 60.942c-2.603-1.714-5.208-2.966-8.014-3.77.32-.87.322-.906 1.023-.881 1.496.052 2.99.165 4.486.214.994.032 1.58.501 1.86 1.446.265.891.61 1.76.645 2.991M49.54 57.482c-1.73-.845-2.063-1.81-.93-2.595-.61-1.004-.545-1.95.35-2.83.37.51.632.858.465 1.54-.24.977.491 1.727 1.251 2.209.962.609 1.081 1.444 1.038 2.432-.046 1.037-.8 1.057-1.494 1.009-.807-.056-1.257-.556-1.144-1.408.016-.116.255-.203.463-.357"/>
        <path fill="#F8B522" d="M72.851 38.447c1.322.007 1.383.818 1.37 1.82-1.243-.319-2.157-1.241-3.437-1.302.508-1.729 1.048-3.299 2.226-4.568.586-.632 1.213-1.34 2.127-1.104 1.008.26 1.276 1.23 1.587 2.292-.617-.206-.63-.649-.798-.988-.433-.87-1.28-1.08-1.862-.314-.6.791-1.99 1.437-.89 2.867.175.228-.444.792-.323 1.297"/>
        <path fill="#F8B522" d="M75.33 32.492c.778-.582 1.596-.149 2.017 1.04.65 1.833.923 3.73.717 5.662-.155 1.458-.816 2.875-.182 4.389-1.557-1.342-1.063-2.922-.646-4.454.71-2.61.257-4.865-1.906-6.637M52.923 34.094l-.124.724c-1.135-.464-1.127-1.577-1.567-2.523 3.967 1.679 6.242 3.506 6.082 6.015-.4-.294-.817-.257-1.358-.065.47-2.554-1.434-3.227-3.049-4.129a35.976 35.976 0 0 1-.131-.137l-.017.1.164.015"/>
        <path fill="#FDFDFD" d="M68.766 38.408c.123.972-.721 1.766-.398 2.868-1.082-.105-1.44-.802-1.583-1.56-.193-1.014-.752-1.297-1.718-1.32-1.707-.038-3.345.341-4.966.652-.776-1.342-1.53-2.65-2.286-3.956 1.033.72 1.548 1.818 2.064 2.901.262.548.525.731 1.164.512a10.975 10.975 0 0 1 4.641-.54c.847.08 1.657.156 1.529 1.38-.04.385.203.799.362 1.36.627-.772.523-1.748 1.19-2.297M57.738 62.633c-.792 1.341-.78 1.36 1.526 2.226-.681.569-2.13-.62-2.325.952-.1.81.706.494 1.128.643-.363 1.015-1.189.47-1.72.373-.726-.133-.205-.672-.047-1.004.348-.736.236-1.54.404-2.301.134-.602.258-1.186.98-1.35l-.031-.036c-.254.215.101.324.085.497M63.604 52.42c1.97-1.659 4.26-1.9 6.679-1.574-2.3.226-4.443 1.159-6.706 1.553l.027.02zM60.55 34.15c-1.98.807-2.647-1.64-4.255-1.817 1.672-.06 3.017.71 4.255 1.817M71.314 56.918c1.728.113 2.211 1.509 1.45 3.661-.408-1.246-.63-2.493-1.45-3.66M64.974 35.533c1.38-.876 2.743-1.083 4.288.157-1.588.698-2.924-.824-4.288-.157"/>
        <path fill="#FDFDFD" d="M59.068 66.19c.397-.04.715.123.991.389-.318.08-.635.159-.984-.1.097.68.746.874.972 1.476-.418.13-.831.26-1.254.394-.6-.655-.355-1.433-.407-2.155l-.017.024.7-.029"/>
        <path fill="#F8B522" d="M53.891 35.45c-.808.823.156 1.014.528 1.386-.406 1.006-.78.048-1.095-.01-.474-.087-.676-.736-.584-1.138.109-.48.622-.496 1.151-.237"/>
        <path fill="#FDFDFD" d="M58.352 61.576l.02-.033c-.518-.14.119 1.121-.72.593l.032.035-.479-1.418c.385-.37.83-.201 1.28-.282l-.133 1.105M54.967 68.432c-.312-.802-.515-1.457-.297-2.238.6.242.704.876 1.119 1.23l-.822 1.008M51.505 48.947c.677-.28.394-.939.58-1.518.717.436.707 1.028.41 1.601-.239.46-.617.377-.99-.083M51.525 61.37c-.949-1.43-.897-1.61.424-1.725l-.424 1.726M58.253 68.956c-.939-.53-1.69-.223-2.56-.299 1.396-.785 2.02-.765 2.56.3M50.7 52.2c.618.89 1.47-.045 2.416.437-1.059-.174-1.89.802-2.67-.225l.253-.212M50.798 50.625c.278.245.108.542.094.82-.545-.125-.768.301-1.112.613-.124-.811.698-.954 1.018-1.433M72.154 34.135c-.307.05-.56.356-.912.19.544-.429.914-1.133 2.017-1.132l-1.105.942M52.721 32.024l-1.262-.528c1.305.062 2.193.19 2.986.71l-1.724-.182"/>
        <path fill="#F8B522" d="M52.721 32.024l1.724.182.209.29a.292.292 0 0 1-.027.14l-.175.179c-.559-.304-1.29-.23-1.73-.791"/>
        <path fill="#FDFDFD" d="M51.259 54.563l1.327-.412c-.324.558-.614.673-1.327.412M50.99 54.49c-.476.026-.626-.194-.736-.578.334.093.587.18.737.577M69.537 37.1l-.52.874c-.202-.515.01-.783.52-.874M52.872 49.42c-.038.342-.273.383-.55.358l.55-.358M70.142 36.03c-.139.285-.218.613-.556.749-.066-.436.091-.707.556-.748M54.627 32.636a.297.297 0 0 0 .027-.14c.263-.092.483-.046.639.201l-.666-.06M63.577 52.4l-.009.163-.14-.057.176-.086-.027-.02"/>
        <path fill="#FDFDFD" d="M55.485 33l-.213-.316c.174.037.297.106.213.317M73.447 57.518l.02-.291.156.132c-.055.057-.113.11-.176.16"/>
        <path fill="#0D0D38" d="M60.317 49.233c-.1.634.142.981.708 1.054 1.108.141 2.053-.138 2.719-1.12-.6-.622-1.321-1.162-2.072-.701-.586.36.3.662.418 1.067-.733.968-1.252.415-1.773-.3m4.251-2.598c-.882.06-1.64-.08-2.364.527 1.648.472 2.691 2.18 4.624 1.64-.035.206-.045.338-.058.338-1.456.04-2.699.611-3.85 1.464-1.191.88-2.48.288-3.682.052-.32-.063-.726.02-1.18-.271 1.334-.8 1.634-2.352 2.713-3.317 1.29-1.153 2.467-1.326 3.797-.433M71.801 48.975c-1.136-.4-2.253-.522-3.443.182.877-1.924 5-1.83 6.624.066-.739.01-1.259-.466-1.84-.545-.392-.053-1.202-1.04-1.34.297M61.95 45.399c-.584.69-1.12 1.168-2.082 1.07.248-1.332.868-2.328 2.026-3.08.268.84-.6 1.142-.607 1.822l.663.188M54.775 46.981c-.01 1.717 1.585 1.765 2.556 2.503-2.51.227-2.974-.217-2.556-2.503M60.657 42.493c.761-1.16 1.576-2.249 3.07-2.431-1.073.753-2.036 1.64-3.07 2.431"/>
        <path fill="#FDFDFD" d="M55.6 45.523c.493 1.18.463 2.192 1.237 2.843-1.086-.48-1.55-1.265-1.236-2.843M53.938 46.452c-.048-.647-.493-1.435.622-1.9-.25.767-.436 1.333-.622 1.9M57.12 44.77l-.395 1.726c-.304-.675-.467-1.318.396-1.726"/>
        <path fill="#0D0D38" d="M53.032 43.886c.48.759.396.985-.538 1.388.017-.511.206-.91.538-1.388M58.696 40.624c.419-.353.754-.858 1.69-.86l-1.502 1.045-.188-.185"/>
        <path fill="#0D0D38" d="M57.98 41.358l.716-.734.188.185-.714.712-.19-.163"/>
        <path fill="#FDFDFD" d="M57.648 48.45h.75l.005.082-.75.072-.005-.153"/>
        <path fill="#0D0D38" d="M57.896 41.722c-.048.153-.141.228-.303.161-.024-.01-.049-.086-.044-.089.1-.069.183-.23.335-.08l.012.008z"/>
        <path fill="#0D0D38" d="M57.884 41.715c-.161-.172.015-.252.097-.357l.189.164-.274.2-.012-.007zM62.232 54.533c-2.322-.47-4.382-.985-6.404.252.83-1.528 4.686-1.786 6.404-.252M56.355 57.249c1.427-1.165 4.106-.915 4.624.56-1.515-.87-3.046-.619-4.624-.56M56.03 55.654c1.577-.55 3.155-.91 4.746-.132-1.59-.766-3.158.608-4.745.132M64.52 60.47c-.445-.698-1.034-1.17-1.82-1.47 1.27-.308 1.617-.037 1.82 1.47"/>
        <path fill="#F8B522" d="M57.087 70.588c-.236.093-.4.104-.555-.21l.555.21"/>
        <path fill="#0D0D38" d="M57.652 62.136c.839.529.202-.733.72-.593-.09.434.42 1.217-.634 1.09.016-.173-.34-.283-.086-.497M59.068 66.19l-.699.028c.2-.797.452-.371.7-.029M52.923 34.094l-.164-.015.017-.1.131.137.016-.022"/>
        <path fill="#FDFDFD" d="M60.317 49.233c.52.715 1.04 1.268 1.773.3-.119-.405-1.004-.706-.418-1.067.75-.461 1.472.079 2.072.702-.666.981-1.611 1.26-2.72 1.119-.565-.073-.807-.42-.707-1.054"/>
        <g fill="#003387" fill-rule="nonzero">
            <path d="M105.477 46.336H97V32.059h8.477v3.095h-4.62V37.4h4.278v3.096h-4.278v2.695h4.62v3.145zm14.619-7.441c0 2.382-.656 4.218-1.968 5.507-1.312 1.29-3.156 1.934-5.532 1.934h-4.62V32.059h4.942c2.292 0 4.06.586 5.308 1.757 1.246 1.172 1.87 2.865 1.87 5.079zm-4.004.136c0-1.308-.259-2.278-.777-2.91-.517-.631-1.303-.947-2.358-.947h-1.123v7.998h.86c1.171 0 2.03-.34 2.577-1.02.547-.681.82-1.721.82-3.12zm6.562 7.305V32.059h3.877v14.277h-3.877zm20.557 0h-5.059l-5.215-10.059h-.087l.075 1.036c.066.975.102 1.772.11 2.388v6.635h-3.418V32.059h5.04l5.195 9.921h.058l-.05-.829a53.737 53.737 0 0 1-.085-2.367l-.002-6.725h3.438v14.277zm11.846 0l-.703-2.676h-4.64l-.722 2.676h-4.238L149.412 32h5.147l4.716 14.336h-4.218zm-1.504-5.84l-.615-2.344-.239-.896-.41-1.642a25.182 25.182 0 0 1-.28-1.26l-.077.403a52.82 52.82 0 0 1-.214.991l-.192.825a224.02 224.02 0 0 1-1.01 3.923h3.037zm24.697 5.84h-3.877v-5.82h-4.482v5.82h-3.877V32.059h3.877v5.293h4.482v-5.293h3.877v14.277zm3.086 0V32.059h3.877v14.277h-3.877zm6.963 0V32.059h3.857V43.22h5.498v3.115H188.3zm11.64 0V32.059h3.858V43.22h5.498v3.115h-9.356zm-96.718 21l-2.92-10.283h-.088l.058.78c.098 1.38.147 2.48.147 3.302v6.2H97V53.06h5.137l2.978 10.136h.078l2.92-10.136h5.147v14.277h-3.545v-6.51l.02-1.01c.016-.473.058-1.388.126-2.744h-.088l-2.88 10.264h-3.672zm13.115 0V53.059h3.877v14.277h-3.877zm19.082-7.441c0 2.382-.656 4.218-1.968 5.507-1.312 1.29-3.156 1.934-5.532 1.934h-4.62V53.059h4.942c2.292 0 4.061.586 5.308 1.757 1.247 1.172 1.87 2.865 1.87 5.079zm-4.004.136c0-1.308-.259-2.278-.776-2.91-.518-.631-1.304-.947-2.359-.947h-1.123v7.998h.86c1.172 0 2.03-.34 2.578-1.02.547-.681.82-1.721.82-3.12zm18.682-.136c0 2.382-.656 4.218-1.968 5.507-1.312 1.29-3.156 1.934-5.532 1.934h-4.62V53.059h4.942c2.292 0 4.06.586 5.308 1.757 1.246 1.172 1.87 2.865 1.87 5.079zm-4.004.136c0-1.308-.259-2.278-.777-2.91-.517-.631-1.303-.947-2.358-.947h-1.123v7.998h.86c1.171 0 2.03-.34 2.577-1.02.547-.681.82-1.721.82-3.12zm6.562 7.305V53.059h3.858V64.22h5.498v3.115h-9.356zm20.117 0h-8.476V53.059h8.476v3.095h-4.619V58.4h4.278v3.096h-4.278v2.695h4.62v3.145zM189.803 63c0 .885-.225 1.672-.674 2.358-.45.687-1.097 1.221-1.943 1.602-.847.38-1.84.571-2.979.571-.95 0-1.748-.066-2.393-.2a8.882 8.882 0 0 1-2.011-.698v-3.438c.735.378 1.5.673 2.295.884.794.212 1.523.317 2.187.317.573 0 .993-.099 1.26-.297.267-.199.4-.454.4-.767a.844.844 0 0 0-.16-.513c-.108-.146-.28-.294-.518-.444l-.138-.08c-.304-.168-.891-.447-1.762-.838-.93-.423-1.629-.833-2.095-1.23a3.778 3.778 0 0 1-1.035-1.368c-.224-.514-.337-1.123-.337-1.826 0-1.315.479-2.34 1.436-3.076.957-.736 2.272-1.103 3.945-1.103 1.478 0 2.985.341 4.522 1.025l-1.182 2.978c-1.335-.612-2.487-.918-3.457-.918-.501 0-.866.088-1.094.264-.228.176-.341.394-.341.654 0 .28.144.531.434.752.251.192.875.521 1.872.987l.486.224c1.231.554 2.085 1.148 2.564 1.783.478.634.718 1.433.718 2.397zm8.564-6.982c-.918 0-1.634.376-2.148 1.128-.515.751-.772 1.788-.772 3.11 0 2.747 1.045 4.121 3.135 4.121a6.42 6.42 0 0 0 1.836-.264 18.368 18.368 0 0 0 1.787-.634v3.261c-1.191.528-2.539.791-4.043.791-2.155 0-3.807-.625-4.956-1.875-1.149-1.25-1.724-3.056-1.724-5.42 0-1.478.279-2.776.835-3.896.557-1.12 1.358-1.98 2.403-2.583 1.045-.602 2.273-.903 3.686-.903 1.543 0 3.018.335 4.424 1.005l-1.182 3.037a13.285 13.285 0 0 0-1.582-.625 5.529 5.529 0 0 0-1.699-.253zm18.858 11.318h-3.877v-5.82h-4.483v5.82h-3.877V53.059h3.877v5.293h4.483v-5.293h3.877v14.277zm16.445-7.158c0 2.402-.59 4.228-1.768 5.478s-2.903 1.875-5.175 1.875c-2.24 0-3.957-.628-5.152-1.885-1.194-1.256-1.792-3.085-1.792-5.488 0-2.376.594-4.19 1.782-5.444 1.189-1.253 2.915-1.88 5.181-1.88 2.272 0 3.994.622 5.166 1.865 1.172 1.244 1.758 3.07 1.758 5.479zm-9.824 0c0 2.76.96 4.14 2.88 4.14.977 0 1.701-.335 2.173-1.006.472-.67.708-1.715.708-3.134 0-1.426-.239-2.48-.717-3.16-.479-.68-1.193-1.02-2.144-1.02-1.934 0-2.9 1.393-2.9 4.18zm25.761 0c0 2.402-.589 4.228-1.767 5.478-1.179 1.25-2.904 1.875-5.176 1.875-2.24 0-3.957-.628-5.151-1.885-1.195-1.256-1.792-3.085-1.792-5.488 0-2.376.594-4.19 1.782-5.444 1.188-1.253 2.915-1.88 5.18-1.88 2.273 0 3.995.622 5.167 1.865 1.171 1.244 1.757 3.07 1.757 5.479zm-9.824 0c0 2.76.96 4.14 2.881 4.14.977 0 1.7-.335 2.173-1.006.472-.67.708-1.715.708-3.134 0-1.426-.24-2.48-.718-3.16-.478-.68-1.193-1.02-2.143-1.02-1.934 0-2.9 1.393-2.9 4.18zm12.403 7.158V53.059h3.857V64.22h5.498v3.115h-9.355z"/>
        </g>
    </g>
</svg>
