<svg width="17" height="15" viewBox="0 0 17 15" fill="none" xmlns="http://www.w3.org/2000/svg">
<path d="M3.38281 14.6914C2.5651 14.6914 1.95052 14.4883 1.53906 14.082C1.13281 13.681 0.929688 13.0768 0.929688 12.2695V2.73047C0.929688 1.92318 1.13281 1.31901 1.53906 0.917969C1.95052 0.511719 2.5651 0.308594 3.38281 0.308594H14.0547C14.8724 0.308594 15.4844 0.511719 15.8906 0.917969C16.2969 1.31901 16.5 1.92318 16.5 2.73047V12.2695C16.5 13.0768 16.2969 13.681 15.8906 14.082C15.4844 14.4883 14.8724 14.6914 14.0547 14.6914H3.38281ZM3.26562 13.4336H14.1562C14.5052 13.4336 14.7734 13.3398 14.9609 13.1523C15.1484 12.9701 15.2422 12.6992 15.2422 12.3398V4.97266C15.2422 4.61328 15.1484 4.34245 14.9609 4.16016C14.7734 3.97266 14.5052 3.87891 14.1562 3.87891H3.26562C2.92188 3.87891 2.65625 3.97266 2.46875 4.16016C2.28125 4.34245 2.1875 4.61328 2.1875 4.97266V12.3398C2.1875 12.6992 2.28125 12.9701 2.46875 13.1523C2.65625 13.3398 2.92188 13.4336 3.26562 13.4336ZM7.19531 6.69141C7.0599 6.69141 6.96354 6.66536 6.90625 6.61328C6.85417 6.5612 6.82812 6.46745 6.82812 6.33203V5.87109C6.82812 5.73568 6.85417 5.64453 6.90625 5.59766C6.96354 5.54557 7.0599 5.51953 7.19531 5.51953H7.65625C7.79167 5.51953 7.88542 5.54557 7.9375 5.59766C7.99479 5.64453 8.02344 5.73568 8.02344 5.87109V6.33203C8.02344 6.46745 7.99479 6.5612 7.9375 6.61328C7.88542 6.66536 7.79167 6.69141 7.65625 6.69141H7.19531ZM9.78906 6.69141C9.65365 6.69141 9.5599 6.66536 9.50781 6.61328C9.45573 6.5612 9.42969 6.46745 9.42969 6.33203V5.87109C9.42969 5.73568 9.45573 5.64453 9.50781 5.59766C9.5599 5.54557 9.65365 5.51953 9.78906 5.51953H10.25C10.3906 5.51953 10.487 5.54557 10.5391 5.59766C10.5911 5.64453 10.6172 5.73568 10.6172 5.87109V6.33203C10.6172 6.46745 10.5911 6.5612 10.5391 6.61328C10.487 6.66536 10.3906 6.69141 10.25 6.69141H9.78906ZM12.3906 6.69141C12.25 6.69141 12.1536 6.66536 12.1016 6.61328C12.0495 6.5612 12.0234 6.46745 12.0234 6.33203V5.87109C12.0234 5.73568 12.0495 5.64453 12.1016 5.59766C12.1536 5.54557 12.25 5.51953 12.3906 5.51953H12.8438C12.9844 5.51953 13.0807 5.54557 13.1328 5.59766C13.1849 5.64453 13.2109 5.73568 13.2109 5.87109V6.33203C13.2109 6.46745 13.1849 6.5612 13.1328 6.61328C13.0807 6.66536 12.9844 6.69141 12.8438 6.69141H12.3906ZM4.60156 9.24609C4.46094 9.24609 4.36458 9.22005 4.3125 9.16797C4.26042 9.11589 4.23438 9.02214 4.23438 8.88672V8.43359C4.23438 8.29297 4.26042 8.19922 4.3125 8.15234C4.36458 8.10026 4.46094 8.07422 4.60156 8.07422H5.0625C5.19792 8.07422 5.29167 8.10026 5.34375 8.15234C5.39583 8.19922 5.42188 8.29297 5.42188 8.43359V8.88672C5.42188 9.02214 5.39583 9.11589 5.34375 9.16797C5.29167 9.22005 5.19792 9.24609 5.0625 9.24609H4.60156ZM7.19531 9.24609C7.0599 9.24609 6.96354 9.22005 6.90625 9.16797C6.85417 9.11589 6.82812 9.02214 6.82812 8.88672V8.43359C6.82812 8.29297 6.85417 8.19922 6.90625 8.15234C6.96354 8.10026 7.0599 8.07422 7.19531 8.07422H7.65625C7.79167 8.07422 7.88542 8.10026 7.9375 8.15234C7.99479 8.19922 8.02344 8.29297 8.02344 8.43359V8.88672C8.02344 9.02214 7.99479 9.11589 7.9375 9.16797C7.88542 9.22005 7.79167 9.24609 7.65625 9.24609H7.19531ZM9.78906 9.24609C9.65365 9.24609 9.5599 9.22005 9.50781 9.16797C9.45573 9.11589 9.42969 9.02214 9.42969 8.88672V8.43359C9.42969 8.29297 9.45573 8.19922 9.50781 8.15234C9.5599 8.10026 9.65365 8.07422 9.78906 8.07422H10.25C10.3906 8.07422 10.487 8.10026 10.5391 8.15234C10.5911 8.19922 10.6172 8.29297 10.6172 8.43359V8.88672C10.6172 9.02214 10.5911 9.11589 10.5391 9.16797C10.487 9.22005 10.3906 9.24609 10.25 9.24609H9.78906ZM12.3906 9.24609C12.25 9.24609 12.1536 9.22005 12.1016 9.16797C12.0495 9.11589 12.0234 9.02214 12.0234 8.88672V8.43359C12.0234 8.29297 12.0495 8.19922 12.1016 8.15234C12.1536 8.10026 12.25 8.07422 12.3906 8.07422H12.8438C12.9844 8.07422 13.0807 8.10026 13.1328 8.15234C13.1849 8.19922 13.2109 8.29297 13.2109 8.43359V8.88672C13.2109 9.02214 13.1849 9.11589 13.1328 9.16797C13.0807 9.22005 12.9844 9.24609 12.8438 9.24609H12.3906ZM4.60156 11.8008C4.46094 11.8008 4.36458 11.7773 4.3125 11.7305C4.26042 11.6784 4.23438 11.582 4.23438 11.4414V10.9883C4.23438 10.8477 4.26042 10.7539 4.3125 10.707C4.36458 10.6549 4.46094 10.6289 4.60156 10.6289H5.0625C5.19792 10.6289 5.29167 10.6549 5.34375 10.707C5.39583 10.7539 5.42188 10.8477 5.42188 10.9883V11.4414C5.42188 11.582 5.39583 11.6784 5.34375 11.7305C5.29167 11.7773 5.19792 11.8008 5.0625 11.8008H4.60156ZM7.19531 11.8008C7.0599 11.8008 6.96354 11.7773 6.90625 11.7305C6.85417 11.6784 6.82812 11.582 6.82812 11.4414V10.9883C6.82812 10.8477 6.85417 10.7539 6.90625 10.707C6.96354 10.6549 7.0599 10.6289 7.19531 10.6289H7.65625C7.79167 10.6289 7.88542 10.6549 7.9375 10.707C7.99479 10.7539 8.02344 10.8477 8.02344 10.9883V11.4414C8.02344 11.582 7.99479 11.6784 7.9375 11.7305C7.88542 11.7773 7.79167 11.8008 7.65625 11.8008H7.19531ZM9.78906 11.8008C9.65365 11.8008 9.5599 11.7773 9.50781 11.7305C9.45573 11.6784 9.42969 11.582 9.42969 11.4414V10.9883C9.42969 10.8477 9.45573 10.7539 9.50781 10.707C9.5599 10.6549 9.65365 10.6289 9.78906 10.6289H10.25C10.3906 10.6289 10.487 10.6549 10.5391 10.707C10.5911 10.7539 10.6172 10.8477 10.6172 10.9883V11.4414C10.6172 11.582 10.5911 11.6784 10.5391 11.7305C10.487 11.7773 10.3906 11.8008 10.25 11.8008H9.78906Z" fill="black"/>
</svg>
