<svg width="19" height="20" viewBox="0 0 19 20" fill="none" xmlns="http://www.w3.org/2000/svg">
<path d="M17.6422 8.58346C18.0301 8.58346 18.3534 8.46061 18.612 8.21491C18.8707 7.96274 19 7.64591 19 7.26442V2.07555C19 1.42249 18.819 0.914923 18.4569 0.552833C18.0883 0.184278 17.5743 0 16.9148 0H11.561C11.173 0 10.8562 0.129318 10.6105 0.387953C10.3583 0.640123 10.2323 0.963417 10.2323 1.35784C10.2323 1.73932 10.3583 2.05938 10.6105 2.31802C10.8562 2.57019 11.173 2.69627 11.561 2.69627H12.1817L14.6743 2.4829L12.8121 4.23839L10.3389 6.70189C10.2096 6.83121 10.1094 6.97669 10.0383 7.13834C9.96716 7.29352 9.9316 7.46163 9.9316 7.64267C9.9316 8.05649 10.0641 8.39595 10.3292 8.66105C10.5879 8.92615 10.9241 9.0587 11.3379 9.0587C11.7194 9.0587 12.0362 8.92939 12.2884 8.67075L14.7519 6.18785L16.5074 4.32568L16.294 6.78918V7.26442C16.294 7.65237 16.4233 7.9692 16.682 8.21491C16.9406 8.46061 17.2607 8.58346 17.6422 8.58346ZM7.439 19.0097C7.82695 19.0097 8.14701 18.8804 8.39918 18.6217C8.64489 18.3696 8.76774 18.0495 8.76774 17.6616C8.76774 17.2736 8.64489 16.9503 8.39918 16.6917C8.14701 16.4395 7.82695 16.3134 7.439 16.3134H6.80858L4.31598 16.5268L6.18785 14.7713L8.66105 12.3078C8.79037 12.1785 8.89059 12.0362 8.96171 11.8811C9.03284 11.7194 9.0684 11.5481 9.0684 11.367C9.0684 10.9532 8.93909 10.617 8.68045 10.3583C8.41535 10.0932 8.07589 9.96069 7.66207 9.96069C7.28059 9.96069 6.96052 10.09 6.70189 10.3486L4.24809 12.8218L2.4829 14.684L2.70597 12.2302V11.7453C2.70597 11.3573 2.57665 11.0405 2.31802 10.7948C2.05938 10.5491 1.73932 10.4262 1.35784 10.4262C0.969883 10.4262 0.646589 10.5523 0.387953 10.8045C0.129318 11.0502 0 11.3638 0 11.7453V16.9342C0 17.5872 0.184278 18.0948 0.552834 18.4569C0.914923 18.8254 1.42249 19.0097 2.07555 19.0097H7.439Z" fill="#06806B"/>
</svg>
