<svg width="17" height="14" viewBox="0 0 17 14" fill="none" xmlns="http://www.w3.org/2000/svg">
<path d="M0.894531 7.00391C0.894531 6.67057 1.01172 6.39193 1.24609 6.16797L6.32422 1.08984C6.44401 0.970052 6.57161 0.88151 6.70703 0.824219C6.84766 0.761719 6.98568 0.730469 7.12109 0.730469C7.45443 0.730469 7.72266 0.834635 7.92578 1.04297C8.13411 1.24609 8.23828 1.4987 8.23828 1.80078C8.23828 1.97266 8.20443 2.1263 8.13672 2.26172C8.07422 2.39193 7.99089 2.50911 7.88672 2.61328L6.13672 4.37109L3.55078 6.74609L3.06641 6.03516L6.10547 5.87109H14.9336C15.2878 5.87109 15.5716 5.97526 15.7852 6.18359C15.9987 6.39193 16.1055 6.66536 16.1055 7.00391C16.1055 7.34245 15.9987 7.61589 15.7852 7.82422C15.5716 8.03255 15.2878 8.13672 14.9336 8.13672H6.10547L3.06641 7.97266L3.55078 7.26172L6.13672 9.63672L7.88672 11.3867C7.99089 11.4909 8.07422 11.6107 8.13672 11.7461C8.20443 11.8763 8.23828 12.0273 8.23828 12.1992C8.23828 12.5013 8.13411 12.7539 7.92578 12.957C7.72266 13.1654 7.45443 13.2695 7.12109 13.2695C6.83464 13.2695 6.57161 13.1523 6.33203 12.918L1.24609 7.83984C1.01172 7.61068 0.894531 7.33203 0.894531 7.00391Z" fill="#373737"/>
</svg>
