<svg width="28" height="31" viewBox="0 0 28 31" fill="none" xmlns="http://www.w3.org/2000/svg">
<path d="M14.2565 26.7207C13.7487 26.7207 13.3385 26.5566 13.026 26.2285C12.7135 25.9082 12.5573 25.4824 12.5573 24.9512V11.9551L12.7331 7.54883L13.7057 8.20508L10.3073 12.1309L7.67056 14.7559C7.51431 14.9121 7.33463 15.041 7.1315 15.1426C6.93619 15.2363 6.71353 15.2832 6.46353 15.2832C6.00259 15.2832 5.61588 15.1309 5.30338 14.8262C4.99869 14.5215 4.84634 14.127 4.84634 13.6426C4.84634 13.1895 5.02213 12.7832 5.37369 12.4238L13.0026 4.7832C13.1588 4.62695 13.3463 4.50586 13.5651 4.41992C13.7917 4.32617 14.0221 4.2793 14.2565 4.2793C14.4831 4.2793 14.7096 4.32617 14.9362 4.41992C15.1628 4.50586 15.3542 4.62695 15.5104 4.7832L23.1393 12.4238C23.4909 12.7832 23.6667 13.1895 23.6667 13.6426C23.6667 14.127 23.5104 14.5215 23.1979 14.8262C22.8932 15.1309 22.5104 15.2832 22.0495 15.2832C21.7995 15.2832 21.5729 15.2363 21.3698 15.1426C21.1667 15.041 20.9909 14.9121 20.8424 14.7559L18.194 12.1309L14.7956 8.20508L15.7682 7.54883L15.944 11.9551V24.9512C15.944 25.4824 15.7878 25.9082 15.4753 26.2285C15.1628 26.5566 14.7565 26.7207 14.2565 26.7207Z" fill="#129E6C"/>
</svg>
