<svg width="28" height="31" viewBox="0 0 28 31" fill="none" xmlns="http://www.w3.org/2000/svg">
<path d="M13.9232 4.2793C14.4232 4.2793 14.8294 4.44336 15.1419 4.77148C15.4544 5.0918 15.6107 5.51367 15.6107 6.03711V19.0449L15.4349 23.4395L14.4622 22.7949L17.8607 18.8691L20.5091 16.2441C20.6575 16.0879 20.8333 15.9629 21.0364 15.8691C21.2396 15.7676 21.4661 15.7168 21.7161 15.7168C22.1771 15.7168 22.5599 15.8691 22.8646 16.1738C23.1771 16.4785 23.3333 16.8691 23.3333 17.3457C23.3333 17.8066 23.1575 18.2129 22.806 18.5645L15.1771 26.2051C15.0208 26.3691 14.8294 26.4941 14.6028 26.5801C14.3763 26.6738 14.1497 26.7207 13.9232 26.7207C13.6888 26.7207 13.4583 26.6738 13.2318 26.5801C13.013 26.4941 12.8255 26.3691 12.6693 26.2051L5.04034 18.5645C4.68878 18.2129 4.513 17.8066 4.513 17.3457C4.513 16.8691 4.66534 16.4785 4.97003 16.1738C5.28253 15.8691 5.66925 15.7168 6.13019 15.7168C6.38019 15.7168 6.60284 15.7676 6.79816 15.8691C7.00128 15.9629 7.18097 16.0879 7.33722 16.2441L9.97394 18.8691L13.3724 22.7949L12.3997 23.4395L12.2239 19.0449V6.03711C12.2239 5.51367 12.3802 5.0918 12.6927 4.77148C13.0052 4.44336 13.4153 4.2793 13.9232 4.2793Z" fill="#F65C3A"/>
</svg>
