<svg width="19" height="19" viewBox="0 0 19 19" fill="none" xmlns="http://www.w3.org/2000/svg">
<path d="M3.77539 18.6719C2.66211 18.6719 1.80924 18.3757 1.2168 17.7832C0.624349 17.1973 0.328125 16.3509 0.328125 15.2441V3.42773C0.328125 2.32096 0.624349 1.47461 1.2168 0.888672C1.80924 0.296224 2.66211 0 3.77539 0H15.5527C16.666 0 17.5189 0.296224 18.1113 0.888672C18.7038 1.47461 19 2.32096 19 3.42773V15.2441C19 16.3509 18.7038 17.1973 18.1113 17.7832C17.5189 18.3757 16.666 18.6719 15.5527 18.6719H3.77539ZM12.916 12.2461C13.2285 12.2461 13.4727 12.1419 13.6484 11.9336C13.8307 11.7253 13.9219 11.4518 13.9219 11.1133V6.44531C13.9219 6.0026 13.8014 5.66732 13.5605 5.43945C13.3197 5.21159 12.9876 5.09766 12.5645 5.09766H7.87695C7.5319 5.09766 7.25521 5.1888 7.04688 5.37109C6.83854 5.55339 6.73438 5.80078 6.73438 6.11328C6.73438 6.41927 6.83529 6.66341 7.03711 6.8457C7.24544 7.02799 7.52214 7.11914 7.86719 7.11914H9.35156L10.5625 6.96289L9.17578 8.18359L5.9043 11.4551C5.6569 11.696 5.5332 11.9759 5.5332 12.2949C5.5332 12.6465 5.64388 12.9264 5.86523 13.1348C6.0931 13.3431 6.36654 13.4473 6.68555 13.4473C6.85482 13.4473 7.01432 13.418 7.16406 13.3594C7.3138 13.3008 7.45378 13.2064 7.58398 13.0762L10.8262 9.83398L12.0371 8.45703L11.9004 9.72656V11.1133C11.9004 11.4583 11.9915 11.735 12.1738 11.9434C12.3561 12.1452 12.6035 12.2461 12.916 12.2461Z" fill="#06806B"/>
</svg>
