<svg width="80" height="110" viewBox="0 0 80 110" fill="none" xmlns="http://www.w3.org/2000/svg">
<path d="M13.6396 110H66.3604C70.6862 110 73.9486 108.853 76.1475 106.559C78.3825 104.265 79.5 100.789 79.5 96.129V56.1828C79.5 51.5591 78.3825 48.1183 76.1475 45.8602C73.9486 43.5663 70.6862 42.4194 66.3604 42.4194H13.6396C9.31383 42.4194 6.03342 43.5663 3.79843 45.8602C1.59948 48.1183 0.5 51.5591 0.5 56.1828V96.129C0.5 100.789 1.59948 104.265 3.79843 106.559C6.03342 108.853 9.31383 110 13.6396 110ZM11.1523 47.5806H23.9675L24.0216 29.5161C24.0216 25.8961 24.7245 22.8136 26.1304 20.2688C27.5723 17.6882 29.5009 15.7168 31.9162 14.3548C34.3314 12.9928 37.017 12.3118 39.973 12.3118C42.9289 12.3118 45.6145 12.9928 48.0298 14.3548C50.4811 15.7168 52.4277 17.6882 53.8696 20.2688C55.3115 22.8136 56.0325 25.8961 56.0325 29.5161L55.9784 47.5806H68.8477V30.2151C68.8477 23.7993 67.5319 18.3513 64.9004 13.871C62.3049 9.35484 58.8263 5.91398 54.4644 3.54839C50.1026 1.1828 45.2721 0 39.973 0C34.7099 0 29.8974 1.1828 25.5356 3.54839C21.1737 5.91398 17.677 9.35484 15.0455 13.871C12.45 18.3513 11.1523 23.7993 11.1523 30.2151V47.5806Z" fill="#E0E0E0"/>
</svg>
