<svg width="17" height="17" viewBox="0 0 17 17" fill="none" xmlns="http://www.w3.org/2000/svg">
<path d="M8.36719 16.3281C7.27865 16.3281 6.2526 16.1198 5.28906 15.7031C4.33073 15.2865 3.48438 14.7109 2.75 13.9766C2.01562 13.2422 1.4401 12.3958 1.02344 11.4375C0.606771 10.474 0.398438 9.44792 0.398438 8.35938C0.398438 7.27083 0.606771 6.2474 1.02344 5.28906C1.4401 4.32552 2.01302 3.47656 2.74219 2.74219C3.47656 2.00781 4.32292 1.43229 5.28125 1.01562C6.24479 0.598958 7.27083 0.390625 8.35938 0.390625C9.44792 0.390625 10.474 0.598958 11.4375 1.01562C12.401 1.43229 13.25 2.00781 13.9844 2.74219C14.7188 3.47656 15.2943 4.32552 15.7109 5.28906C16.1276 6.2474 16.3359 7.27083 16.3359 8.35938C16.3359 9.44792 16.1276 10.474 15.7109 11.4375C15.2943 12.3958 14.7188 13.2422 13.9844 13.9766C13.25 14.7109 12.401 15.2865 11.4375 15.7031C10.4792 16.1198 9.45573 16.3281 8.36719 16.3281ZM5.74219 11.6406C5.92969 11.6406 6.08854 11.5781 6.21875 11.4531L8.375 9.28125L10.5391 11.4531C10.6589 11.5781 10.8125 11.6406 11 11.6406C11.1823 11.6406 11.3359 11.5781 11.4609 11.4531C11.5859 11.3229 11.6484 11.1693 11.6484 10.9922C11.6484 10.7995 11.5859 10.6458 11.4609 10.5312L9.28906 8.36719L11.4688 6.19531C11.5938 6.0651 11.6562 5.91146 11.6562 5.73438C11.6562 5.55729 11.5938 5.40625 11.4688 5.28125C11.3438 5.15625 11.1927 5.09375 11.0156 5.09375C10.8438 5.09375 10.6953 5.15625 10.5703 5.28125L8.375 7.46094L6.19531 5.28906C6.0651 5.16927 5.91406 5.10938 5.74219 5.10938C5.5651 5.10938 5.41406 5.17188 5.28906 5.29688C5.16406 5.41667 5.10156 5.56771 5.10156 5.75C5.10156 5.92188 5.16406 6.07292 5.28906 6.20312L7.46094 8.36719L5.28906 10.5391C5.16406 10.6641 5.10156 10.8151 5.10156 10.9922C5.10156 11.1693 5.16406 11.3229 5.28906 11.4531C5.41406 11.5781 5.5651 11.6406 5.74219 11.6406Z" fill="white"/>
</svg>
