<svg width="17" height="14" viewBox="0 0 17 14" fill="none" xmlns="http://www.w3.org/2000/svg">
<path d="M16.1055 7.00391C16.1055 7.33203 15.9909 7.61068 15.7617 7.83984L10.668 12.918C10.4336 13.1523 10.1706 13.2695 9.87891 13.2695C9.54557 13.2695 9.27734 13.1654 9.07422 12.957C8.87109 12.7539 8.76953 12.5013 8.76953 12.1992C8.76953 12.0273 8.80078 11.8763 8.86328 11.7461C8.93099 11.6107 9.01693 11.4909 9.12109 11.3867L10.8711 9.63672L13.457 7.26172L13.9336 7.97266L10.9023 8.13672H2.06641C1.71745 8.13672 1.43359 8.03255 1.21484 7.82422C1.0013 7.61589 0.894531 7.34245 0.894531 7.00391C0.894531 6.66536 1.0013 6.39193 1.21484 6.18359C1.43359 5.97526 1.71745 5.87109 2.06641 5.87109H10.9023L13.9336 6.03516L13.457 6.74609L10.8711 4.37109L9.12109 2.61328C9.01693 2.50911 8.93099 2.39193 8.86328 2.26172C8.80078 2.1263 8.76953 1.97266 8.76953 1.80078C8.76953 1.4987 8.87109 1.24609 9.07422 1.04297C9.27734 0.834635 9.54557 0.730469 9.87891 0.730469C10.0195 0.730469 10.1576 0.761719 10.293 0.824219C10.4284 0.88151 10.556 0.970052 10.6758 1.08984L15.7617 6.16797C15.9909 6.39193 16.1055 6.67057 16.1055 7.00391Z" fill="#373737"/>
</svg>
