<svg width="24" height="26" viewBox="0 0 24 26" fill="none" xmlns="http://www.w3.org/2000/svg">
<path d="M11.9915 22.3506C11.5684 22.3506 11.2266 22.2139 10.9661 21.9404C10.7057 21.6735 10.5755 21.3187 10.5755 20.876V10.0459L10.722 6.37402L11.5325 6.9209L8.70052 10.1924L6.50325 12.3799C6.37304 12.5101 6.2233 12.6175 6.05403 12.7021C5.89127 12.7803 5.70572 12.8193 5.49739 12.8193C5.11328 12.8193 4.79101 12.6924 4.53059 12.4385C4.27669 12.1846 4.14973 11.8558 4.14973 11.4521C4.14973 11.0745 4.29622 10.736 4.58919 10.4365L10.9466 4.06934C11.0768 3.93913 11.2331 3.83822 11.4154 3.7666C11.6042 3.68848 11.7962 3.64941 11.9915 3.64941C12.1803 3.64941 12.3691 3.68848 12.5579 3.7666C12.7467 3.83822 12.9062 3.93913 13.0365 4.06934L19.3939 10.4365C19.6868 10.736 19.8333 11.0745 19.8333 11.4521C19.8333 11.8558 19.7031 12.1846 19.4427 12.4385C19.1888 12.6924 18.8698 12.8193 18.4857 12.8193C18.2773 12.8193 18.0885 12.7803 17.9193 12.7021C17.75 12.6175 17.6035 12.5101 17.4798 12.3799L15.2728 10.1924L12.4408 6.9209L13.2513 6.37402L13.3978 10.0459V20.876C13.3978 21.3187 13.2676 21.6735 13.0072 21.9404C12.7467 22.2139 12.4082 22.3506 11.9915 22.3506Z" fill="#129E6C"/>
</svg>
