<svg width="25" height="26" viewBox="0 0 25 26" fill="none" xmlns="http://www.w3.org/2000/svg">
<path d="M12.8249 3.64941C13.2415 3.64941 13.5801 3.78613 13.8405 4.05957C14.1009 4.3265 14.2311 4.67806 14.2311 5.11426V15.9541L14.0846 19.6162L13.2741 19.0791L16.1061 15.8076L18.3131 13.6201C18.4368 13.4899 18.5833 13.3857 18.7526 13.3076C18.9219 13.223 19.1107 13.1807 19.319 13.1807C19.7031 13.1807 20.0221 13.3076 20.276 13.5615C20.5364 13.8154 20.6667 14.141 20.6667 14.5381C20.6667 14.9222 20.5202 15.2607 20.2272 15.5537L13.8698 21.9209C13.7396 22.0576 13.5801 22.1618 13.3913 22.2334C13.2025 22.3115 13.0137 22.3506 12.8249 22.3506C12.6295 22.3506 12.4375 22.3115 12.2487 22.2334C12.0664 22.1618 11.9101 22.0576 11.7799 21.9209L5.42252 15.5537C5.12955 15.2607 4.98306 14.9222 4.98306 14.5381C4.98306 14.141 5.11002 13.8154 5.36392 13.5615C5.62434 13.3076 5.9466 13.1807 6.33072 13.1807C6.53905 13.1807 6.7246 13.223 6.88736 13.3076C7.05663 13.3857 7.20637 13.4899 7.33658 13.6201L9.53384 15.8076L12.3659 19.0791L11.5553 19.6162L11.4088 15.9541V5.11426C11.4088 4.67806 11.5391 4.3265 11.7995 4.05957C12.0599 3.78613 12.4017 3.64941 12.8249 3.64941Z" fill="#F65C3A"/>
</svg>
