<svg width="24" height="24" viewBox="0 0 24 24" fill="none" xmlns="http://www.w3.org/2000/svg">
<path id="1 copy 4" d="M11.9943 24C10.3512 24 8.80644 23.6856 7.36015 23.0568C5.91387 22.4356 4.63796 21.572 3.53242 20.4659C2.42688 19.3674 1.55987 18.0947 0.931377 16.6477C0.310459 15.2008 0 13.6515 0 12C0 10.3561 0.310459 8.81061 0.931377 7.36364C1.55987 5.91667 2.4231 4.64015 3.52106 3.53409C4.6266 2.42803 5.90251 1.56439 7.34879 0.943182C8.80265 0.314394 10.3512 0 11.9943 0C13.6375 0 15.1822 0.314394 16.6285 0.943182C18.0823 1.56439 19.3583 2.42803 20.4562 3.53409C21.5618 4.64015 22.4288 5.91667 23.0573 7.36364C23.6858 8.81061 24 10.3561 24 12C24 13.6515 23.6858 15.2008 23.0573 16.6477C22.4288 18.0947 21.5618 19.3674 20.4562 20.4659C19.3583 21.572 18.0861 22.4356 16.6398 23.0568C15.1936 23.6856 13.6451 24 11.9943 24ZM10.7449 17.6932C10.9948 17.6932 11.222 17.6364 11.4264 17.5227C11.6384 17.4015 11.8202 17.2311 11.9716 17.0114L17.2532 8.94318C17.3441 8.79924 17.416 8.65152 17.469 8.5C17.5296 8.34848 17.5599 8.20076 17.5599 8.05682C17.5599 7.70833 17.4274 7.42045 17.1623 7.19318C16.9049 6.96591 16.6058 6.85227 16.265 6.85227C15.8183 6.85227 15.4434 7.0947 15.1406 7.57955L10.7222 14.6136L8.7345 12.1818C8.58306 11.9924 8.42404 11.8561 8.25745 11.7727C8.09844 11.6894 7.91292 11.6477 7.7009 11.6477C7.36015 11.6477 7.06484 11.7727 6.81495 12.0227C6.56507 12.2652 6.44013 12.5606 6.44013 12.9091C6.44013 13.0758 6.47042 13.2348 6.531 13.3864C6.59158 13.5379 6.68623 13.6932 6.81495 13.8523L9.47279 17.0341C9.65452 17.2538 9.84761 17.4205 10.0521 17.5341C10.2565 17.6402 10.4875 17.6932 10.7449 17.6932Z" fill="#2A5900"/>
</svg>
