<svg width="32" height="32" viewBox="0 0 32 32" fill="none" xmlns="http://www.w3.org/2000/svg">
<g id="Icons / S / Revise">
<path id="Union" fill-rule="evenodd" clip-rule="evenodd" d="M22.134 12.0001H8.00065V14.6668H5.33398V10.6668C5.33398 9.86677 5.86732 9.33344 6.66732 9.33344H22.134L20.4007 7.6001C19.8673 7.06677 19.8673 6.26677 20.4007 5.73344C20.934 5.2001 21.734 5.2001 22.2673 5.73344L26.2673 9.73344C26.8007 10.2668 26.8007 11.0668 26.2673 11.6001L22.2673 15.6001C22.0007 15.8668 21.734 16.0001 21.334 16.0001C20.934 16.0001 20.6673 15.8668 20.4007 15.6001C19.8673 15.0668 19.8673 14.2668 20.4007 13.7334L22.134 12.0001ZM9.86732 20.0001H24.0007V17.3334H26.6673V21.3334C26.6673 22.1334 26.134 22.6668 25.334 22.6668H9.86732L11.6007 24.4001C12.134 24.9334 12.134 25.7334 11.6007 26.2668C11.334 26.5334 11.0673 26.6668 10.6673 26.6668C10.2673 26.6668 10.0007 26.5334 9.73398 26.2668L5.73398 22.2668C5.20065 21.7334 5.20065 20.9334 5.73398 20.4001L9.73398 16.4001C10.2673 15.8668 11.0673 15.8668 11.6007 16.4001C12.134 16.9334 12.134 17.7334 11.6007 18.2668L9.86732 20.0001Z" fill="#9F6405"/>
</g>
</svg>
