<svg width="12" height="12" viewBox="0 0 12 12" fill="none" xmlns="http://www.w3.org/2000/svg">
<path id="&#244;&#128;&#129;&#163;" d="M6 12C5.18039 12 4.40784 11.8431 3.68235 11.5294C2.96078 11.2157 2.32353 10.7824 1.77059 10.2294C1.21765 9.67647 0.784314 9.03922 0.470588 8.31765C0.156863 7.59216 0 6.81961 0 6C0 5.18039 0.156863 4.4098 0.470588 3.68824C0.784314 2.96275 1.21569 2.32353 1.76471 1.77059C2.31765 1.21765 2.9549 0.784314 3.67647 0.470588C4.40196 0.156863 5.17451 0 5.99412 0C6.81373 0 7.58628 0.156863 8.31177 0.470588C9.03726 0.784314 9.67647 1.21765 10.2294 1.77059C10.7824 2.32353 11.2157 2.96275 11.5294 3.68824C11.8431 4.4098 12 5.18039 12 6C12 6.81961 11.8431 7.59216 11.5294 8.31765C11.2157 9.03922 10.7824 9.67647 10.2294 10.2294C9.67647 10.7824 9.03726 11.2157 8.31177 11.5294C7.5902 11.8431 6.81961 12 6 12ZM5.34118 8.87059C5.44314 8.87059 5.53529 8.84706 5.61765 8.8C5.7 8.75294 5.77255 8.68235 5.83529 8.58824L8.6 4.22941C8.63529 4.17059 8.66863 4.10784 8.7 4.04118C8.73137 3.97451 8.74706 3.90784 8.74706 3.84118C8.74706 3.70392 8.69608 3.59608 8.59412 3.51765C8.49216 3.43529 8.37843 3.39412 8.25294 3.39412C8.08039 3.39412 7.93922 3.48431 7.82941 3.66471L5.31765 7.7L4.12353 6.15882C4.04902 6.06078 3.97647 5.99412 3.90588 5.95882C3.83922 5.92353 3.76275 5.90588 3.67647 5.90588C3.54314 5.90588 3.43137 5.9549 3.34118 6.05294C3.25098 6.14706 3.20588 6.26078 3.20588 6.39412C3.20588 6.46078 3.21765 6.52745 3.24118 6.59412C3.26863 6.65686 3.30392 6.71765 3.34706 6.77647L4.82353 8.58824C4.90196 8.6902 4.98235 8.76275 5.06471 8.80588C5.14706 8.84902 5.23922 8.87059 5.34118 8.87059Z" fill="#2A5900"/>
</svg>
