<svg width="14" height="14" viewBox="0 0 14 14" fill="none" xmlns="http://www.w3.org/2000/svg">
<g id="Icons / S / Revise">
<path id="Union" fill-rule="evenodd" clip-rule="evenodd" d="M9.68398 5.24992H3.50065V6.41658H2.33398V4.66659C2.33398 4.31659 2.56732 4.08325 2.91732 4.08325H9.68398L8.92565 3.32492C8.69232 3.09159 8.69232 2.74159 8.92565 2.50825C9.15898 2.27492 9.50898 2.27492 9.74232 2.50825L11.4923 4.25825C11.7257 4.49159 11.7257 4.84159 11.4923 5.07492L9.74232 6.82492C9.62565 6.94159 9.50898 6.99992 9.33398 6.99992C9.15898 6.99992 9.04232 6.94159 8.92565 6.82492C8.69232 6.59159 8.69232 6.24159 8.92565 6.00825L9.68398 5.24992ZM4.31732 8.74992H10.5007V7.58325H11.6673V9.33325C11.6673 9.68325 11.434 9.91658 11.084 9.91658H4.31732L5.07565 10.6749C5.30898 10.9083 5.30898 11.2583 5.07565 11.4916C4.95898 11.6083 4.84232 11.6666 4.66732 11.6666C4.49232 11.6666 4.37565 11.6083 4.25898 11.4916L2.50898 9.74158C2.27565 9.50825 2.27565 9.15825 2.50898 8.92492L4.25898 7.17492C4.49232 6.94159 4.84232 6.94159 5.07565 7.17492C5.30898 7.40825 5.30898 7.75825 5.07565 7.99159L4.31732 8.74992Z" fill="#9F6405"/>
</g>
</svg>
