<?xml version="1.0" encoding="UTF-8" standalone="no"?>
<svg width="127px" height="40px" viewBox="0 0 127 40" version="1.1" xmlns="http://www.w3.org/2000/svg" xmlns:xlink="http://www.w3.org/1999/xlink">
    <!-- Generator: Sketch 40 (33762) - http://www.bohemiancoding.com/sketch -->
    <title>Group 7 Copy</title>
    <desc>Created with Sketch.</desc>
    <defs>
        <polygon id="path-1" points="126.413327 6.66666665e-05 0.000200526323 6.66666665e-05 0.000200526323 39.9064 126.413327 39.9064 126.413327 6.66666665e-05"></polygon>
    </defs>
    <g id="Welcome" stroke="none" stroke-width="1" fill="none" fill-rule="evenodd">
        <g id="Quill-Homepage" transform="translate(-598.000000, -6108.000000)">
            <g id="Group-7-Copy" transform="translate(558.000000, 6078.000000)">
                <rect id="Rectangle-386-Copy-2" x="0" y="0" width="206.4" height="100.03125"></rect>
                <g id="Page-1" transform="translate(40.000000, 30.000000)">
                    <mask id="mask-2" fill="white">
                        <use xlink:href="#path-1"></use>
                    </mask>
                    <g id="Clip-2"></g>
                    <path d="M9.94296368,19.5677333 C10.8947953,19.3584 13.3385426,18.4237333 13.3385426,16.6230667 C13.3385426,15.9670667 12.9140953,15.4884 12.1066426,15.4884 C10.4208847,15.4884 8.79729,18.1197333 8.79729,20.5970667 C8.79729,21.3764 9.05463211,22.4037333 10.3834532,22.4037333 C11.7797847,22.4037333 12.4000795,20.6757333 12.4869742,20.4604 L12.22629,20.3437333 C12.0291058,20.7970667 11.5037268,21.9050667 10.6782268,21.9050667 C10.1120742,21.9050667 9.83869,21.4657333 9.83869,20.7310667 C9.83869,20.3624 9.87478474,19.9677333 9.94296368,19.5677333 L9.94296368,19.5677333 Z M10.0057953,19.2184 C10.3660742,17.4764 11.2430426,15.7350667 12.0625268,15.7350667 C12.4221374,15.7350667 12.5765426,15.9824 12.5765426,16.3064 C12.5765426,17.4177333 11.5445005,18.7664 10.0057953,19.2184 L10.0057953,19.2184 Z M3.98733211,22.2684 C4.29547421,20.8944 4.93114263,18.0570667 4.93114263,18.0570667 C5.16308474,17.0604 5.78805842,16.0457333 6.44110579,16.0457333 C6.86555316,16.0457333 7.01126895,16.3270667 7.01126895,16.6230667 C7.01126895,16.8210667 6.95712684,17.0590667 6.89295842,17.3517333 C6.47452684,19.2324 6.17306895,20.6144 6.13697421,20.7704 C6.11023737,20.8770667 6.00930579,21.2850667 6.00930579,21.6197333 C6.00930579,22.0244 6.26330579,22.3910667 6.85619526,22.3910667 C7.96711105,22.3910667 8.42030053,21.0017333 8.47845316,20.8517333 L8.25453211,20.7484 C8.15493737,20.9697333 7.83810579,21.7997333 7.35817947,21.7997333 C7.19107421,21.7997333 7.06942158,21.7017333 7.06942158,21.4564 C7.06942158,21.2957333 7.13559526,21.0030667 7.16901632,20.8470667 C7.21446895,20.6350667 7.49721105,19.3630667 7.91029526,17.5264 C7.98649526,17.1850667 8.04799,16.8984 8.04799,16.5377333 C8.04799,16.0690667 7.69305842,15.5070667 6.84349526,15.5070667 C5.95048474,15.5070667 5.44382158,16.2550667 5.28340053,16.5097333 L6.58481632,10.6957333 L4.58222684,10.6957333 L4.49600053,10.9997333 L5.44850053,10.9997333 L2.93523737,22.2684 L3.98733211,22.2684 L3.98733211,22.2684 Z M2.33566368,15.9084 L3.45927947,15.9084 L3.52679,15.6144 L2.40651632,15.6144 L2.90515842,13.3684 L1.85707421,13.3684 L1.36043737,15.6144 L0.205405789,15.6144 L0.137226842,15.9084 L1.29092158,15.9084 C1.29092158,15.9084 0.271579474,20.5217333 0.217437368,20.7544 C0.192705789,20.8617333 0.0870952632,21.2990667 0.0870952632,21.6197333 C0.0870952632,22.0230667 0.342432105,22.3910667 0.933984737,22.3910667 C2.04490053,22.3910667 2.49809,21.0017333 2.55624263,20.8517333 L2.33232158,20.7497333 C2.21735316,21.0124 1.90319526,21.7997333 1.43463211,21.7997333 C1.26084263,21.7997333 1.14587421,21.6970667 1.14587421,21.4577333 C1.14587421,21.3590667 1.17261105,21.1857333 1.20736895,21.0284 C1.28156368,20.6917333 2.33566368,15.9084 2.33566368,15.9084 L2.33566368,15.9084 Z M117.278685,24.2077333 C118.725816,19.8224 120.278558,18.1290667 122.283822,18.1290667 C123.448211,18.1290667 123.915437,18.8450667 123.915437,19.3817333 C123.915437,20.4997333 123.265732,21.0864 123.265732,22.0904 C123.265732,22.9830667 123.792448,23.6517333 124.671422,23.6517333 C125.726858,23.6517333 126.413327,22.6637333 126.413327,21.1337333 C126.413327,19.9237333 125.790358,17.4790667 121.587995,17.4790667 C117.634953,17.4790667 115.201901,20.3197333 113.893801,24.0344 C113.50879,25.1204 111.697369,30.1077333 111.697369,34.5870667 C111.697369,36.5857333 112.536906,39.9050667 116.841537,39.9050667 C121.365411,39.9050667 123.377358,34.2990667 123.662774,33.6050667 L123.071222,33.3377333 C122.426195,34.7997333 120.691643,38.6824 117.799385,38.6824 C115.962564,38.6824 115.074232,37.2644 115.074232,34.8750667 C115.074232,31.3037333 116.841537,25.5324 117.278685,24.2077333 L117.278685,24.2077333 Z M60.8679584,22.6777333 C60.3365637,24.3210667 58.1668689,31.8057333 58.1668689,36.0430667 C58.1668689,37.9344 58.8827479,38.7657333 60.2750689,38.7657333 C62.30239,38.7657333 63.9594058,36.1484 64.9018795,32.6777333 C66.1277637,28.1544 67.03949,23.5137333 67.03949,21.1857333 C67.03949,19.6497333 66.2320374,18.2724 64.6993479,18.2724 C62.9935374,18.2724 61.7596321,19.9264 60.8679584,22.6777333 L60.8679584,22.6777333 Z M71.6696426,17.9390667 C71.6696426,17.9390667 67.9358426,34.7117333 67.7025637,35.8004 C67.5949479,36.3010667 67.5261005,36.7844 67.5261005,37.1397333 C67.5261005,37.9297333 67.8095111,38.3864 68.5247216,38.3864 C70.1971111,38.3864 71.3588268,35.4524 71.6776637,34.7017333 L72.1555847,34.9157333 C71.9744426,35.3957333 70.5667479,39.8970667 67.0194374,39.8970667 C65.1712532,39.8970667 64.1552532,38.7124 64.1552532,37.4010667 C64.1552532,36.8724 64.2354637,36.3937333 64.2769058,36.2017333 C63.6800058,37.4470667 62.1018637,39.9037333 59.5297795,39.9037333 C56.7812321,39.9037333 54.9584479,37.9517333 54.9584479,34.3744 C54.9584479,31.0284 56.3186847,26.0550667 57.0225321,24.0817333 C58.2043005,20.7624 60.0397847,17.4744 64.1044532,17.4744 C67.1110111,17.4744 67.6203479,19.7770667 67.7653953,20.2430667 L68.2787426,17.9390667 L71.6696426,17.9390667 L71.6696426,17.9390667 Z M106.126748,18.5084 C106.126748,18.5084 102.719806,33.8470667 102.548022,34.5950667 C102.469148,34.9430667 102.126248,36.4897333 102.126248,37.4024 C102.126248,38.7124 103.065379,39.9050667 104.989095,39.9050667 C108.389353,39.9050667 109.947443,35.3957333 110.128585,34.9157333 L109.648658,34.7017333 C109.345864,35.4244 108.063164,38.3877333 106.565232,38.3877333 C105.706979,38.3877333 105.491079,37.9030667 105.497095,37.1037333 C105.500437,36.7430667 105.565274,36.3090667 105.674227,35.8024 C105.908843,34.7110667 109.642643,17.9390667 109.642643,17.9390667 L100.026069,17.9390667 L101.64699,10.6564 L98.2527479,10.6564 L96.6351689,17.9390667 L92.89669,17.9390667 L92.7723637,18.5084 L96.5101742,18.5084 C96.5101742,18.5084 93.1052374,33.8470667 92.9334532,34.5950667 C92.8525742,34.9430667 92.5103426,36.3637333 92.5103426,37.4024 C92.5103426,38.7124 93.4488058,39.9050667 95.3725216,39.9050667 C98.7734479,39.9050667 100.330869,35.3957333 100.514016,34.9157333 L100.03409,34.7017333 C99.7219374,35.4684 98.4907058,38.3877333 96.8878321,38.3877333 C96.2154005,38.3877333 95.8825268,38.0290667 95.8825268,37.1684 C95.8825268,36.8044 95.9473637,36.3170667 96.0576532,35.8024 C96.2929374,34.7110667 99.9017426,18.5084 99.9017426,18.5084 L106.126748,18.5084 L106.126748,18.5084 Z M109.339848,9.9184 C110.426701,9.9184 111.012237,10.6530667 111.012237,11.6324 C111.012237,12.9464 110.014953,13.9430667 108.920079,13.9430667 C107.938169,13.9430667 107.295816,13.2390667 107.295816,12.1770667 C107.295816,10.8357333 108.332537,9.9184 109.339848,9.9184 L109.339848,9.9184 Z M42.1769005,18.5084 L45.8137795,18.5084 L45.9387742,17.9390667 L42.3032321,17.9390667 L43.9234847,10.6564 L40.5279058,10.6564 L38.9136689,17.9390667 L35.1738532,17.9390667 L35.0488584,18.5084 L38.7873374,18.5084 C38.7873374,18.5084 35.3803953,33.8470667 35.2099479,34.5950667 C35.1297374,34.9430667 34.7888426,36.3637333 34.7888426,37.4024 C34.7888426,38.7124 35.6123374,39.9064 37.5360532,39.9064 C41.1355005,39.9064 42.6073637,35.3957333 42.7905111,34.9157333 L42.3105847,34.7017333 C42.0064532,35.4824 40.7692058,38.3877333 39.1643268,38.3877333 C38.5707689,38.3877333 38.1590216,38.0104 38.1590216,37.2390667 C38.1590216,36.8770667 38.2238584,36.3170667 38.3341479,35.8024 C38.5694321,34.7110667 42.1769005,18.5084 42.1769005,18.5084 L42.1769005,18.5084 Z M76.4996532,39.4537333 C77.4989426,34.9977333 79.6813374,25.2617333 79.6813374,25.2617333 C80.4272953,22.0310667 82.2975374,18.7384 84.5741795,18.7384 C85.9504584,18.7384 86.4257058,19.6577333 86.4257058,20.6097333 C86.4257058,21.2530667 86.2505795,22.0244 86.03869,22.9797333 C84.6851374,29.0690667 83.5789005,34.0864 83.4619268,34.5950667 C83.3830532,34.9430667 83.0408216,36.4897333 83.0408216,37.4024 C83.0408216,38.7124 83.9779479,39.9050667 85.9016637,39.9050667 C89.3039268,39.9050667 90.8593426,35.3957333 91.04249,34.9157333 L90.5632321,34.7017333 C90.2270163,35.4257333 88.95969,38.3877333 87.4778005,38.3877333 C86.6208847,38.3877333 86.4049847,37.9050667 86.4110005,37.1037333 C86.4143426,36.7430667 86.4778426,36.3090667 86.5881321,35.8024 C86.7345163,35.1144 87.8755111,30.0384 89.21369,24.0737333 C89.4596689,22.9750667 89.6622005,22.0437333 89.6622005,20.8757333 C89.6622005,19.3550667 88.5780216,17.5310667 85.8969847,17.5310667 C82.8275953,17.5310667 81.1926374,20.1797333 80.6071005,21.1570667 L81.32699,17.9390667 L74.8319426,17.9390667 L74.6521374,18.5104 L77.7482637,18.5104 L73.0880321,39.4537333 L76.4996532,39.4537333 L76.4996532,39.4537333 Z M52.5140321,34.7017333 C52.1905163,35.4590667 50.8764005,38.3877333 49.3784689,38.3877333 C48.6405321,38.3877333 48.3624689,37.9317333 48.3624689,37.1464 C48.3624689,36.7950667 48.4333216,36.2917333 48.5375953,35.8024 C48.9272847,33.9890667 56.1328637,1.94373333 56.1328637,1.94373333 L49.6358111,1.94373333 L49.4479847,2.51506667 L52.5441111,2.51506667 C52.5441111,2.51506667 45.7001479,33.3377333 45.4133953,34.5950667 C45.3325163,34.9430667 44.9902847,36.4897333 44.9902847,37.4024 C44.9902847,38.7124 45.7997426,39.9050667 47.7234584,39.9050667 C51.2453689,39.9050667 52.8094742,35.3957333 52.9926216,34.9157333 L52.5140321,34.7017333 L52.5140321,34.7017333 Z M16.9413321,21.7350667 L26.0352005,21.7350667 L26.0352005,8.34773333 L16.9413321,21.7350667 L16.9413321,21.7350667 Z M0.127868947,38.8944 L3.70057947,38.9244 L30.3525321,-0.000266666667 L30.3558742,1.21306667 L30.3558742,38.8944 L33.5816742,38.8944 L33.4580163,39.4644 L22.3034058,39.4644 L22.4330795,38.8944 L26.0398795,38.8944 L26.0398795,22.3064 L16.5549847,22.3064 L5.07819526,38.8944 L9.44766368,38.8944 L9.32133211,39.4644 L0.000200526323,39.4644 L0.127868947,38.8944 Z" id="Fill-1" fill="#FFFFFF" mask="url(#mask-2)"></path>
                </g>
            </g>
        </g>
    </g>
</svg>