<?xml version="1.0" encoding="UTF-8" standalone="no"?>
<svg width="44px" height="50px" viewBox="0 0 44 50" version="1.1" xmlns="http://www.w3.org/2000/svg" xmlns:xlink="http://www.w3.org/1999/xlink">
    <!-- Generator: Sketch 40 (33762) - http://www.bohemiancoding.com/sketch -->
    <title>Page 1</title>
    <desc>Created with Sketch.</desc>
    <defs></defs>
    <g id="Welcome" stroke="none" stroke-width="1" fill="none" fill-rule="evenodd">
        <g id="Quill-Homepage" transform="translate(-495.000000, -5810.000000)">
            <g id="Page-1" transform="translate(496.000000, 5811.000000)">
                <path d="M28.4517159,9.20820947 C27.6462239,10.1804547 28.7449046,12.5030117 28.4517159,13.9314364 C28.0606249,15.8353082 26.5724072,16.7653725 27.5120615,17.7105387 C28.0093428,18.2099405 29.4053562,19.6805461 35.1764086,21.2735286 C35.6597038,16.8018252 34.2036022,12.1567112 30.8008517,8.73588678 C30.5589451,8.49269527 30.3082325,8.26252258 30.0544119,8.03911967 C29.5773327,8.24742075 28.9717892,8.58070247 28.4517159,9.20820947" id="Fill-1"></path>
                <path d="M7.77864691,20.5443186 C9.21351049,20.1803124 11.0689911,19.2153577 11.5372643,16.7657371 C11.8491011,15.1363019 11.6118565,12.9121671 12.4769186,12.0419894 C13.6268815,10.8864392 16.8421155,13.2714865 19.055017,12.9871555 C21.0109899,12.735632 22.0350785,9.83503948 22.3179072,8.7076099 C22.6059159,7.56091248 22.5365037,5.64870859 22.3981974,4.43639633 C17.7278977,3.6948445 12.7794314,5.12535214 9.18812842,8.73573055 C5.94440433,11.9972047 4.47069066,16.3710065 4.75869938,20.6469069 C5.75636987,20.7271028 7.20521948,20.6901293 7.77864691,20.5443186" id="Fill-3"></path>
                <path d="M14.3564345,27.1570446 C13.8866073,24.7954311 16.7837886,25.1891201 19.1588245,20.466414 C20.152351,18.491199 23.4504652,19.1129777 25.2670957,20.9387367 C27.0832083,22.7650164 27.2722787,25.4932397 25.7369229,27.0794524 C22.8785918,30.0315994 14.9314159,30.0456597 14.3564345,27.1570446 M35.1759424,21.2735807 C29.405408,19.6805982 28.0093946,18.2099926 27.5121133,17.71007 C26.572459,16.7654246 28.0606767,15.8353603 28.4517677,13.9314885 C28.7449564,12.5030638 27.6457577,10.1799861 28.4517677,9.20826154 C28.971841,8.5802338 29.5773845,8.24747283 30.0544637,8.03917175 C27.8255041,6.07645486 25.1614235,4.8750784 22.3978866,4.43660463 C22.5367109,5.6489169 22.6061231,7.56060003 22.3181144,8.70781821 C22.0352857,9.83472703 21.0111971,12.7353195 19.0547062,12.9868431 C16.8418047,13.271174 13.6270887,10.8861267 12.4771258,12.0421977 C11.6115457,12.9118547 11.8487903,15.1365102 11.5374715,16.7654246 C11.0686803,19.2150453 9.21371769,20.18 7.77885411,20.5445269 C7.20490868,20.6898169 5.75605906,20.7273111 4.75890658,20.6465944 C4.99977718,24.2252069 6.47349085,27.7340385 9.18833562,30.4633034 C15.1469045,36.4535216 24.8423347,36.4535216 30.8009035,30.4633034 C33.3567219,27.8939096 34.8128235,24.6329563 35.1759424,21.2735807" id="Fill-5"></path>
                <path d="M25.2668367,20.9388929 C23.4502062,19.1126132 20.152092,18.4913552 19.1590835,20.4665702 C16.7840476,25.1887556 13.8863483,24.7955873 14.3561755,27.1572008 C14.9311569,30.045816 22.8783328,30.0312349 25.7366639,27.0790879 C27.2725377,25.4928752 27.0834673,22.7651726 25.2668367,20.9388929" id="Fill-7"></path>
                <path d="M28.4517159,9.20820947 C27.6462239,10.1804547 28.7449046,12.5030117 28.4517159,13.9314364 C28.0606249,15.8353082 26.5724072,16.7653725 27.5120615,17.7105387 C28.0093428,18.2099405 29.4053562,19.6805461 35.1764086,21.2735286 C35.6597038,16.8018252 34.2036022,12.1567112 30.8008517,8.73588678 C30.5589451,8.49269527 30.3082325,8.26252258 30.0544119,8.03911967 C29.5773327,8.24742075 28.9717892,8.58070247 28.4517159,9.20820947 L28.4517159,9.20820947 Z" id="Stroke-9" stroke="#00C2A2" stroke-width="1.5" stroke-linecap="round" stroke-linejoin="round"></path>
                <path d="M7.77864691,20.5443186 C9.21351049,20.1803124 11.0689911,19.2153577 11.5372643,16.7657371 C11.8491011,15.1363019 11.6118565,12.9121671 12.4769186,12.0419894 C13.6268815,10.8864392 16.8421155,13.2714865 19.055017,12.9871555 C21.0109899,12.735632 22.0350785,9.83503948 22.3179072,8.7076099 C22.6059159,7.56091248 22.5365037,5.64870859 22.3981974,4.43639633 C17.7278977,3.6948445 12.7794314,5.12535214 9.18812842,8.73573055 C5.94440433,11.9972047 4.47069066,16.3710065 4.75869938,20.6469069 C5.75636987,20.7271028 7.20521948,20.6901293 7.77864691,20.5443186 L7.77864691,20.5443186 Z" id="Stroke-11" stroke="#00C2A2" stroke-width="1.5" stroke-linecap="round" stroke-linejoin="round"></path>
                <path d="M25.2668367,20.9388929 C23.4502062,19.1126132 20.152092,18.4913552 19.1590835,20.4665702 C16.7840476,25.1887556 13.8863483,24.7955873 14.3561755,27.1572008 C14.9311569,30.045816 22.8783328,30.0312349 25.7366639,27.0790879 C27.2725377,25.4928752 27.0834673,22.7651726 25.2668367,20.9388929 L25.2668367,20.9388929 Z" id="Stroke-13" stroke="#00C2A2" stroke-width="1.5" stroke-linecap="round" stroke-linejoin="round"></path>
                <path d="M19.9711341,41.3761447 L19.9711341,47.9089872" id="Stroke-15" stroke="#00C2A2" stroke-width="1.5" stroke-linecap="round" stroke-linejoin="round"></path>
                <path d="M4.72331989,34.9519833 L0.499019353,39.1987215" id="Stroke-17" stroke="#00C2A2" stroke-width="1.5" stroke-linecap="round" stroke-linejoin="round"></path>
                <path d="M39.4906342,0 L35.2663337,4.2467382" id="Stroke-19" stroke="#00C2A2" stroke-width="1.5" stroke-linecap="round" stroke-linejoin="round"></path>
                <path d="M19.9949822,4.24647782 C28.4290792,4.24647782 35.2666963,11.1198926 35.2666963,19.5993087 C35.2666963,28.078204 28.4290792,34.9521395 19.9949822,34.9521395 C11.5608851,34.9521395 4.72326809,28.078204 4.72326809,19.5993087 C4.72326809,11.1198926 11.5608851,4.24647782 19.9949822,4.24647782 L19.9949822,4.24647782 Z" id="Stroke-21" stroke="#00C2A2" stroke-width="1.5" stroke-linecap="round" stroke-linejoin="round"></path>
                <path d="M11.3302192,47.4314436 L28.6599524,47.4314436" id="Stroke-23" stroke="#00C2A2" stroke-width="1.5" stroke-linecap="round" stroke-linejoin="round"></path>
                <path d="M1.69068133,31.1410109 C5.48141478,37.2385042 12.3050458,41.3764051 19.994775,41.3764051 C31.9088047,41.3764051 41.657071,31.5763602 41.657071,19.5990483 C41.657071,11.8684746 37.649295,5.1174367 31.6922802,1.3065685" id="Stroke-25" stroke="#00C2A2" stroke-width="1.5" stroke-linecap="round" stroke-linejoin="round"></path>
            </g>
        </g>
    </g>
</svg>