<?xml version="1.0" encoding="UTF-8"?>
<svg width="184px" height="28px" viewBox="0 0 184 28" version="1.1" xmlns="http://www.w3.org/2000/svg" xmlns:xlink="http://www.w3.org/1999/xlink">
    <!-- Generator: Sketch 46.2 (44496) - http://www.bohemiancoding.com/sketch -->
    <title>fast-company-1</title>
    <desc>Created with Sketch.</desc>
    <defs></defs>
    <g id="00-Homepage" stroke="none" stroke-width="1" fill="none" fill-rule="evenodd">
        <g id="00_00-Homepage" transform="translate(-981.000000, -6766.000000)" fill-rule="nonzero" fill="#FFFFFF">
            <g id="fast-company-1" transform="translate(981.000000, 6766.000000)">
                <path d="M87.1555035,7.51419753 C87.1555035,11.3339506 86.7803279,23.1648148 86.7803279,23.1648148 C86.7803279,25.4549383 87.5264637,26.4746914 89.6384075,26.4746914 L89.6384075,27.4944444 L81.3213115,27.4944444 L81.3213115,26.4703704 C83.4290398,26.4703704 84.5503513,25.4549383 84.5503513,23.1604938 L85.2964871,3.81975309 C84.6725995,2.29876543 84.0529274,1.7845679 82.4384075,1.65925926 L82.4384075,0.769135802 L88.7700234,0.769135802 L95.4725995,18.8395062 L102.301639,0.769135802 L108.009368,0.769135802 L108.009368,1.65925926 C106.394848,1.65925926 105.526464,2.42407407 105.526464,4.20432099 L106.2726,22.9098765 C106.2726,25.7055556 106.765808,26.4703704 109,26.4703704 L109,27.4901235 L99.4393443,27.4901235 L99.4393443,26.4703704 C101.302576,26.4703704 102.17096,25.8395062 102.048712,22.9098765 C102.048712,22.9098765 101.677752,9.80432099 101.551288,7.51419753 L96.9564403,20.4944444 C96.2681704,22.3236088 95.688194,24.1936731 95.2196721,26.0944444 L93.7274005,26.2197531 C93.3564403,24.8197531 92.3615925,22.2746914 92.3615925,22.2746914 C92.3615925,22.2746914 88.5213115,11.204321 87.1555035,7.51419753 L87.1555035,7.51419753 Z M79.3316159,27.6197531 C78.834192,27.4944444 78.3409836,27.4944444 77.8393443,27.4944444 C76.8487119,27.4944444 75.1077283,28 73,28 C64.9316159,28 58.9709602,23.0395062 58.9709602,13.8746914 C58.9709602,6.11419753 64.5564403,0.12962963 73.1222482,0.12962963 C75.1077283,0.12962963 77.3419204,0.514197531 79.2051522,1.27901235 C79.5761124,0.894444444 79.7025761,0.64382716 80.0735363,0.259259259 L80.8196721,0.259259259 C80.6974239,1.65925926 80.2,6.24382716 80.2,6.24382716 L79.4538642,6.24382716 C78.9564403,3.5691358 77.5948478,1.78888889 73.2487119,1.78888889 C68.034192,1.78888889 63.317096,5.98888889 63.317096,13.7537037 C63.317096,22.5339506 68.1564403,26.3493827 73.4974239,26.3493827 C76.9751756,26.3493827 79.082904,24.3141975 80.4487119,21.7691358 L81.317096,22.1493827 L79.3316159,27.6197531 Z M55.8725995,5.72962963 L55.0042155,5.72962963 C54.8819672,3.30987654 54.1358314,2.54938272 52.2725995,2.54938272 L48.6725995,2.54938272 L48.6725995,22.5296296 C48.6725995,25.8395062 49.2922717,26.4703704 51.4042155,26.4703704 L51.4042155,27.4901235 L42.0964871,27.4901235 L42.0964871,26.4703704 C44.2042155,26.4703704 44.828103,25.8395062 44.828103,22.4 L44.828103,2.54938272 L41.2238876,2.54938272 C38.8632319,2.54938272 38.4922717,3.1845679 37.8725995,5.72962963 L37,5.72962963 L37.6196721,0.00432098765 L38.2393443,0.12962963 C38.4880562,0.764814815 38.9854801,0.764814815 40.4735363,0.764814815 L52.5128806,0.764814815 C54.7470726,0.764814815 55.2444965,0.764814815 55.7419204,0 L56.4880562,0 L55.8725995,5.72962963 L55.8725995,5.72962963 Z" id="Shape"></path>
                <path d="M30.2164561,27.9957173 C28.4868101,27.9957173 27.1340844,27.7430407 26.1457153,27.3704497 C25.4055894,27.1921716 24.6984822,26.8928132 24.0517128,26.48394 C23.724654,26.830136 23.4340854,27.2105269 23.1847957,27.6188437 L22.4435188,27.3704497 L23.0591556,21.4389722 L23.9218846,21.5631692 C24.4160692,24.3383298 26.2671674,26.3554604 30.086628,26.3554604 C33.0475475,26.3554604 35.0200979,23.8329764 35.0200979,21.0620985 C35.0200979,18.7922912 34.1573688,17.6573876 31.1964493,15.3875803 C30.2164561,14.7537473 29.3537271,14.248394 28.6124502,13.6231263 C25.898623,11.8543897 24.1689769,9.8372591 24.1689769,6.55674518 C24.1689769,2.77087794 27.2513486,0.248394004 31.3220895,0.248394004 C33.6673723,0.248394004 35.145738,1.00642398 35.6399226,1.25481799 L36.5068396,0.248394004 L37.1224764,0.372591006 L36.5068396,5.7987152 L35.6399226,5.6745182 C35.6399226,3.15203426 34.1615568,2.01713062 31.6948219,2.01713062 C29.3537271,2.01713062 27.624081,3.28051392 27.624081,5.6745182 C27.624081,7.81584582 29.2280869,9.20342612 31.0791852,10.4668094 C32.0633663,11.0963597 32.8046432,11.6017131 33.5459201,12.1070664 C37.8637533,15.2591006 38.8479344,17.2762313 38.8479344,20.3040685 C38.8479344,24.7152034 35.5184705,27.9957173 30.2164561,27.9957173 L30.2164561,27.9957173 Z M16.1531353,5.7987152 L15.1689541,5.7987152 C15.1689541,3.52890792 14.180585,2.64668094 12.2080346,2.64668094 L6.65892796,2.64668094 L6.65892796,12.608137 L10.2354842,12.608137 C12.0865825,12.608137 12.4551269,11.6017131 12.7022192,9.9614561 L13.5649482,9.9614561 L13.5649482,17.0235546 L12.7022192,17.0235546 C12.4551269,15.1349036 12.0865825,14.3768737 10.1140321,14.3768737 L6.65892796,14.3768737 L6.65892796,22.8265525 C6.65892796,25.9785867 7.40020485,26.3554604 9.37275521,26.3554604 L9.37275521,27.366167 L0,27.366167 L0,26.3554604 C2.3410948,26.3554604 2.70963924,25.7301927 2.70963924,22.8265525 L2.70963924,4.2869379 C2.70963924,2.52248394 1.96836235,1.76445396 0,1.76445396 L0,0.882226981 L12.8236713,0.882226981 C15.043314,0.882226981 15.5333106,0.758029979 15.906043,0 L16.768772,0 L16.1531353,5.7987152 Z M149.226994,7.31477516 L149.226994,22.4496788 C149.226994,25.7301927 149.968271,26.3554604 151.940822,26.3554604 L151.940822,27.366167 L137.387504,27.366167 L137.387504,26.3554604 C138.497326,26.3554604 139.481507,25.9785867 139.481507,25.2205567 C139.481507,24.7152034 139.360055,23.8329764 139.112962,22.9507495 L137.998953,19.2933619 L129.861659,19.2933619 C129.740207,19.7944325 128.257653,23.9571734 128.257653,25.0920771 C128.257653,26.0985011 129.367475,26.3511777 130.108752,26.3511777 L130.108752,27.3618844 L123.324183,27.3618844 L123.324183,26.3554604 C124.555457,26.3554604 125.543826,26.2312634 126.406555,23.5845824 L132.696939,3.02783726 C132.332582,2.14132762 131.838398,1.88865096 130.975669,1.76445396 L130.975669,0.882226981 L136.524775,0.882226981 L143.183703,22.4496788 C143.79934,24.7152034 144.414977,25.8543897 145.403346,26.3554604 C146.881712,25.8543897 147.250256,25.3490364 147.250256,22.4496788 L147.250256,4.2869379 C146.140435,2.77087794 146.018983,1.76445396 143.920792,1.76445396 L143.920792,0.882226981 L150.211176,0.882226981 L160.5723,18.9164882 L160.5723,5.16916488 C160.5723,2.39828694 159.956663,1.76445396 157.858473,1.76445396 L157.858473,0.882226981 L171.670513,0.882226981 L171.670513,1.76445396 C170.807784,1.76445396 170.066507,2.14132762 170.066507,3.02783726 C170.066507,3.65310493 170.3136,4.2869379 170.556504,5.04496788 L174.501605,13.7473233 L178.325253,5.29336188 C178.94089,4.15845824 179.06653,3.52890792 179.06653,2.8993576 C179.06653,2.14132762 178.572346,1.76445396 177.462524,1.76445396 L177.462524,0.882226981 L184,0.882226981 L184,1.76445396 C182.395994,1.76445396 181.411813,3.28051392 180.670536,5.04496788 L175.615614,15.640257 L175.615614,22.5781585 C175.615614,25.6017131 176.356891,26.359743 178.325253,26.359743 L178.325253,27.3704497 L168.952498,27.3704497 L168.952498,26.3554604 C170.929236,26.3554604 171.666325,25.5974304 171.666325,22.5738758 L171.666325,16.6466809 L166.238671,4.92077088 C165.25449,2.6509636 164.881757,2.14561028 164.26612,1.76873662 C163.034847,2.27408994 162.662114,3.15631692 162.662114,5.17344754 L162.662114,24.5952891 C162.662114,24.5952891 162.783567,26.111349 162.909207,27.875803 L161.305201,28 L149.226994,7.31477516 L149.226994,7.31477516 Z M133.810948,6.05139186 L130.360032,17.5289079 L137.513144,17.5289079 L133.810948,6.05139186 L133.810948,6.05139186 Z" id="Shape"></path>
                <path d="M116.493787,16.3398545 L114.663759,16.3398545 L114.663759,21.665966 C114.663759,24.3899757 115.396598,25.0079224 117.466766,25.0079224 L117.466766,26 L108.076485,26 L108.076485,25.0037187 C110.030723,25.0037187 110.759422,24.2596605 110.759422,21.5398545 L110.759422,4.08601455 C110.759422,1.36620857 110.030723,0.865966047 108.076485,0.865966047 L108.076485,0 L115.148178,0 C121.975591,0 125.999997,2.10606306 125.999997,7.79789814 C126.004138,13.7419563 121.126822,16.3398545 116.493787,16.3398545 L116.493787,16.3398545 Z M115.272388,1.73193209 L114.663759,1.73193209 L114.663759,14.4818108 L115.760948,14.4818108 C119.785354,14.4818108 121.859662,12.6279709 121.859662,7.91980598 C121.859662,3.21164107 120.025493,1.73193209 115.272388,1.73193209 Z M73.9394189,21.0438157 C69.3063835,21.0438157 66.1390269,17.7018593 66.1390269,12.8759903 C66.1390269,8.29393694 69.4305936,4.70816492 73.9394189,4.70816492 C78.3281745,4.70816492 81.6197413,8.1720291 81.6197413,12.8759903 C81.6197413,17.4538399 78.2081048,21.0438157 73.9394189,21.0438157 Z M73.9394189,6.19207761 C70.7679219,6.19207761 69.670733,9.28601455 69.670733,12.8759903 C69.670733,16.2179466 70.6478522,19.5641067 73.9394189,19.5641067 C77.1109159,19.5641067 78.0838947,16.2179466 78.0838947,12.7540825 C78.0838947,9.40792239 76.8666361,6.19207761 73.9394189,6.19207761 Z M20.293092,19.559903 L20.293092,18.6897332 C21.5103506,18.6897332 21.7546304,18.319806 21.7546304,17.9498787 C21.7457732,17.5251321 21.6630757,17.1053143 21.5103506,16.7097817 C21.5103506,16.7097817 21.2660708,15.7219078 21.021791,14.9778496 L16.2686859,14.9778496 L15.7842666,16.5878739 C15.6319353,16.982061 15.5492432,17.4004282 15.5399868,17.8237672 C15.5399868,18.319806 16.0285464,18.6897332 16.7572455,18.6897332 L16.7572455,19.559903 L12,19.559903 L12,18.6897332 C13.2172586,18.6897332 13.7058182,18.319806 14.1943778,16.9578011 L17.8544344,5.81794665 C17.7302243,5.32611156 17.3658748,4.9519806 16.6371757,4.9519806 L16.6371757,4.08601455 L20.5373718,4.08601455 C23.7088688,13.4939369 24.5617779,15.9699272 24.5617779,15.9699272 C25.1704072,18.0759903 25.7790365,18.6897332 26.7561557,18.6897332 L26.7561557,19.559903 L20.293092,19.559903 L20.293092,19.559903 Z M18.5831334,7.54987874 L16.7572455,13.6158448 L20.5373718,13.6158448 L18.5831334,7.54987874 L18.5831334,7.54987874 Z" id="Shape"></path>
            </g>
        </g>
    </g>
</svg>