<svg xmlns="http://www.w3.org/2000/svg" xmlns:xlink="http://www.w3.org/1999/xlink" width="146" height="19" viewBox="0 0 146 19">
    <defs>
        <path id="a" d="M.202.406h13.21v14.167H.202z"/>
    </defs>
    <g fill="none" fill-rule="evenodd">
        <path d="M-14-25h173v70H-14z"/>
        <path fill="#C9C9C9" d="M11.067 3.58a4.735 4.735 0 0 0-1.664-.33c-1.009 0-1.614.482-1.89 1.472l-.101.38h3.252L9.78 8.405H6.58L3.832 18.711H0L2.748 8.404H1.159l.883-3.301H3.63l.126-.532c.354-1.499.907-2.463 1.588-3.15C6.303.458 7.638.002 9.277.002c1.084 0 1.992.152 2.622.38l-.832 3.2zM17.797 13.583c-.429 1.472-1.815 2.742-3.403 2.742-1.084 0-1.765-.609-1.765-1.447 0-.559.202-1.016.555-1.371.479-.483 1.26-.762 2.193-.762s1.866.23 2.52.482l-.1.356zm-.882-8.632c-1.916 0-3.63.381-5.017.965l.605 3.047c.983-.407 2.294-.737 3.605-.737 1.89 0 2.546.66 2.546 1.6 0 .406-.075.71-.15 1.015l-.052.178c-1.134-.356-2.344-.61-3.806-.61-1.865 0-3.48.56-4.538 1.626-.807.812-1.285 1.903-1.285 3.275 0 2.132 1.588 3.655 3.932 3.655 1.589 0 2.95-.66 4.034-1.827l-.404 1.573h3.707l1.991-7.514c.176-.686.302-1.346.302-2.057 0-2.666-1.84-4.189-5.47-4.189z"/>
        <g transform="translate(22.157 4.443)">
            <mask id="b" fill="#fff">
                <use xlink:href="#a"/>
            </mask>
            <path fill="#C9C9C9" d="M11.345 4.798c-1.31-1.04-2.42-1.447-3.53-1.447-.933 0-1.486.431-1.486 1.142 0 .533.654.915 1.79 1.422 1.764.788 3.705 1.727 3.705 3.86 0 2.97-2.32 4.798-5.547 4.798-2.041 0-4.487-.788-6.075-2.463L2.42 9.8c1.411 1.421 2.924 1.828 4.134 1.828 1.008 0 1.613-.432 1.613-1.193 0-.509-.63-.863-1.562-1.27-2.118-.914-3.933-1.802-3.933-3.986 0-2.717 2.067-4.773 5.42-4.773 2.193 0 4.21.965 5.32 1.955l-2.068 2.437z" mask="url(#b)"/>
        </g>
        <path fill="#C9C9C9" d="M45.98 5.103L45.1 8.404h-3.177l-1.513 5.712c-.05.203-.1.457-.1.61 0 .507.326.812 1.033.812.604 0 1.336-.153 1.966-.431l-.882 3.274c-.757.355-1.74.559-2.773.559-2.32 0-3.454-1.168-3.454-2.666 0-.558.1-1.091.252-1.701l1.639-6.169h-1.613l.882-3.301h1.613l.933-3.477h3.832l-.933 3.477h3.176zM59.441 3.58a4.735 4.735 0 0 0-1.664-.33c-1.008 0-1.613.482-1.89 1.472l-.101.38h3.252l-.883 3.302h-3.2l-2.749 10.307h-3.832l2.748-10.307h-1.588l.882-3.301h1.588l.126-.532c.354-1.499.908-2.463 1.588-3.15.959-.964 2.295-1.42 3.933-1.42 1.084 0 1.992.152 2.622.38l-.832 3.2zM68.087 14.65c-.63.634-1.487 1.066-2.445 1.066-1.74 0-2.924-1.092-2.924-3.097 0-1.067.504-2.489 1.437-3.403.63-.635 1.487-1.066 2.445-1.066 1.74 0 2.925 1.091 2.925 3.097 0 1.066-.505 2.488-1.438 3.402m-1.31-9.8c-2.143 0-4.06.914-5.47 2.336-1.463 1.473-2.345 3.478-2.345 5.535 0 3.63 2.495 6.296 6.504 6.296 2.142 0 4.059-.914 5.47-2.336 1.463-1.472 2.345-3.478 2.345-5.534 0-3.63-2.496-6.297-6.504-6.297M83.515 8.886h-.202c-2.546 0-4.487 1.473-5.445 5.002l-1.311 4.823h-3.832l3.63-13.608h3.833l-.732 2.742c1.361-2.005 2.925-3.173 5.143-2.995l-1.084 4.036zM98.262 18.813h-3.454l-.378-8.353-4.865 8.353h-3.429l-.504-13.71h3.882l-.025 8.252 4.74-8.302h3.302l.353 8.327 4.437-8.277h3.807zM113.26 13.583c-.429 1.472-1.815 2.742-3.403 2.742-1.084 0-1.765-.609-1.765-1.447 0-.559.202-1.016.556-1.371.478-.483 1.26-.762 2.192-.762.933 0 1.866.23 2.52.482l-.1.356zm-.882-8.632c-1.916 0-3.63.381-5.017.965l.606 3.047c.983-.407 2.293-.737 3.604-.737 1.89 0 2.546.66 2.546 1.6 0 .406-.075.71-.15 1.015l-.052.178c-1.133-.356-2.344-.61-3.806-.61-1.866 0-3.479.56-4.538 1.626-.806.812-1.286 1.903-1.286 3.275 0 2.132 1.589 3.655 3.934 3.655 1.587 0 2.949-.66 4.033-1.827l-.403 1.573h3.705l1.992-7.514c.177-.686.302-1.346.302-2.057 0-2.666-1.84-4.189-5.47-4.189zM128.108 8.886h-.202c-2.546 0-4.487 1.473-5.444 5.002l-1.312 4.823h-3.832l3.63-13.608h3.833l-.732 2.742c1.362-2.005 2.925-3.173 5.143-2.995l-1.084 4.036zM137.838 14.548c-.73.736-1.664 1.167-2.622 1.167-1.714 0-2.823-1.065-2.823-2.843 0-1.498.58-2.767 1.437-3.63.706-.711 1.64-1.143 2.571-1.143 1.69 0 2.9 1.168 2.9 2.895 0 1.396-.555 2.64-1.463 3.554zm4.136-14.37l-1.842 6.905c-.882-1.345-2.117-2.234-4.235-2.234-1.84 0-3.655.813-5.042 2.21-1.462 1.472-2.42 3.58-2.42 6.067 0 3.681 2.244 5.84 5.193 5.84 1.513 0 2.648-.635 3.807-1.727l-.403 1.472h3.831L145.805.178h-3.831z"/>
    </g>
</svg>
