<svg xmlns="http://www.w3.org/2000/svg" width="107" height="44" viewBox="0 0 107 44">
    <g fill="none" fill-rule="evenodd">
        <path d="M-33-13h173v70H-33z"/>
        <g fill="#C9C9C9" fill-rule="nonzero">
            <path d="M98.892 30.833a.46.46 0 0 1-.482-.483V16.196h-4.807a.46.46 0 0 1-.482-.482V13.76c0-.286.197-.483.482-.483h12.793a.46.46 0 0 1 .482.483v1.953a.46.46 0 0 1-.482.482h-4.805V30.35a.461.461 0 0 1-.483.483h-2.216m-36.815-7.066l-2.523-7.241-2.546 7.24h5.069zm5.595 6.494c.11.286-.066.572-.373.572h-2.281c-.33 0-.527-.153-.637-.462l-1.295-3.73H56l-1.297 3.73c-.109.309-.307.462-.635.462h-2.15c-.286 0-.483-.286-.374-.572l5.947-16.544c.11-.308.307-.439.636-.439h2.94c.33 0 .549.131.659.44l5.946 16.543m17.045-1.799c1.403 0 2.347-.679 3.115-1.842L84.278 22.8c-1.36.769-2.239 1.536-2.239 3.072 0 1.515 1.229 2.59 2.678 2.59m.987-12.86c-1.14 0-1.8.725-1.8 1.69 0 .747.395 1.405 1.295 2.37 1.558-.9 2.216-1.448 2.216-2.413 0-.9-.57-1.646-1.711-1.646m9.721 14.614c.285.308.11.615-.242.615h-2.787c-.373 0-.57-.088-.811-.374l-1.668-1.842c-1.119 1.492-2.678 2.61-5.267 2.61-3.203 0-5.727-1.93-5.727-5.243 0-2.546 1.36-3.907 3.424-5.048-1.01-1.163-1.47-2.392-1.47-3.466 0-2.722 1.909-4.587 4.783-4.587 2.94 0 4.74 1.734 4.74 4.301 0 2.194-1.58 3.422-3.248 4.344l2.458 2.656 1.382-2.414c.175-.285.373-.395.723-.395h2.128c.352 0 .55.242.33.615l-2.457 4.212 3.71 4.016m-21.899.615a.462.462 0 0 0 .484-.483V16.196h4.804a.46.46 0 0 0 .483-.482V13.76a.461.461 0 0 0-.483-.483H66.022a.461.461 0 0 0-.482.483v1.953a.46.46 0 0 0 .482.482h4.805V30.35c0 .285.198.483.483.483h2.217zM8.588 39.37a21.924 21.924 0 0 0 13.46 4.613c5.545 0 10.6-2.06 14.46-5.44.046-.042.023-.07-.023-.042-1.732 1.157-6.666 3.682-14.437 3.682-6.754 0-11.021-1.507-13.432-2.853-.046-.023-.063.012-.028.04m14.95 1.122c5.4 0 11.336-1.473 14.886-4.389.972-.794 1.897-1.852 2.726-3.273.477-.817.943-1.789 1.324-2.744.016-.046-.012-.069-.047-.016-3.302 4.86-12.861 7.891-22.732 7.891-6.977 0-14.484-2.232-17.423-6.494-.029-.04-.058-.022-.04.023 2.738 5.822 11.044 9.002 21.305 9.002m-5.901-9.658C6.402 30.834 1.105 25.6.144 22.028c-.012-.052-.046-.04-.046.006 0 1.202.12 2.754.327 3.784.1.501.507 1.288 1.105 1.916 2.72 2.836 9.502 6.81 21.248 6.81 16.002 0 19.66-5.332 20.408-7.086.534-1.254.811-3.52.811-5.424 0-.461-.011-.829-.029-1.19 0-.059-.034-.064-.045-.007-.8 4.292-14.472 9.997-26.287 9.997M2.214 12.617c-.644 1.278-1.357 3.434-1.57 4.55-.092.478-.053.708.115 1.065 1.346 2.858 8.157 7.43 24.044 7.43 9.692 0 17.22-2.382 18.44-6.728.225-.8.237-1.646-.051-2.784-.323-1.272-.927-2.756-1.438-3.797-.016-.034-.046-.03-.04.01.19 5.702-15.703 9.377-23.722 9.377-8.686 0-15.932-3.462-15.932-7.834 0-.42.086-.84.195-1.277.01-.04-.023-.047-.04-.012m34.328-7a.888.888 0 0 1 .138.507c0 2.438-7.46 6.753-19.338 6.753-8.727 0-10.36-3.239-10.36-5.299 0-.736.282-1.49.903-2.254.034-.046.006-.063-.034-.03a21.999 21.999 0 0 0-3.089 3.21c-.436.553-.707 1.042-.707 1.335 0 4.268 10.698 7.363 20.701 7.363 10.659 0 15.415-3.48 15.415-6.54 0-1.093-.425-1.731-1.513-2.969a25.875 25.875 0 0 0-2.082-2.105c-.034-.028-.058-.005-.034.029m-3.268-2.438A21.7 21.7 0 0 0 22.048.084 21.79 21.79 0 0 0 10.665 3.27c-.99.61-1.548 1.098-1.548 1.727 0 1.851 4.325 3.842 11.998 3.842 7.594 0 13.484-2.18 13.484-4.28 0-.5-.438-.851-1.324-1.38"/>
        </g>
    </g>
</svg>
