<svg xmlns="http://www.w3.org/2000/svg" width="67" height="44" viewBox="0 0 67 44">
    <g fill="none" fill-rule="evenodd">
        <path d="M-53-13h173v70H-53z"/>
        <g fill="#C9C9C9" fill-rule="nonzero">
            <path d="M34.776 19.131c-1.489 1.343-2.039 4.375.658 6.15l10.732 7.298-5.199-11.813c-1.1-2.793-4.077-3.4-6.191-1.635M44.02 13.382c-1.748.033-4.369 2.09-3.193 5.24l5.382 12.582 1.877-13.231c.443-3.291-2.07-4.807-4.066-4.59M48.928 17.464h1.014s.539 0 .614.25c-.399.324-1.488.367-1.348 2.1l1.715 11.379 5.34-12.614c1.089-2.815-1.198-5.164-3.236-5.24-.098-.01-.195-.01-.292-.01-1.812.01-3.904 1.32-3.807 4.135M56.058 20.864l-5.06 11.671 10.733-7.33c2.47-1.743 2.071-4.514.69-5.89-.582-.65-1.65-1.147-2.772-1.147-1.337 0-2.76.704-3.591 2.696M60.534 26.862l-10.075 6.973h12.405c2.545 0 4.185-2.599 3.452-4.992-.486-1.505-1.931-2.674-3.603-2.674-.701 0-1.446.217-2.18.693M34.484 33.835h12.222L36.63 26.862c-2.33-1.483-4.951-.617-5.89 1.84-.798 2.826 1.198 5.133 3.743 5.133M26.265 19.651V.065h-10.84L.129 19.759v8.337l16.482.022v5.727h9.676v-5.814h3.322l.96-8.358-4.304-.022zm-9.783-.216H11.11l5.372-7.363v7.363zM0 42.93v-6.876h1.672l4.832 5.143v-5.143h1.349v6.875H6.18l-4.692-5.002v5.002M8.823 36.054h6.958V37.3h-5.61v1.408h3.905l-.021 1.245h-3.883v1.765h5.792v1.212h-7.14M16.482 36.087l2.233 6.875h1.704l1.478-5.013 1.542 5.013h1.672l2.211-6.875h-1.564l-1.488 4.948-1.532-4.948h-1.65l-1.532 4.948-1.564-4.948z"/>
            <g>
                <path d="M30.073 36.087h1.887l2.643 2.977 2.697-2.977h1.78l-3.808 4.276v2.599h-1.37v-2.74z"/>
            </g>
            <path d="M46.004 36.52c-1.564-.866-3.915-.975-5.48 0-2.21 1.57-2.286 4.309 0 5.955 1.457.92 3.938.92 5.48 0 2.212-1.495 2.244-4.385 0-5.955zm-.755 4.785c-1.11.737-2.75.758-4.045 0-1.24-1.115-1.132-2.544 0-3.497.842-.844 3.02-.866 4.045 0 1.349.899 1.187 2.523 0 3.497z"/>
            <g>
                <path d="M54.99 40.33c2.092-.465 2.265-3.68-.27-4.276h-5.911v6.908h1.402v-2.534l3.042.022 1.834 2.523h1.65L54.99 40.33zm-.55-1.277h-4.153V37.43h4.153c.895.303.862 1.473 0 1.624z"/>
            </g>
            <g>
                <path d="M57.924 36.054H59.4v3.216l4.272-3.216h2.179l-3.538 2.707 3.753 4.2h-1.812l-3.095-3.453-1.748 1.343v2.11h-1.488z"/>
            </g>
        </g>
    </g>
</svg>
