<?xml version="1.0" encoding="UTF-8" standalone="no"?>
<svg width="173px" height="43px" viewBox="0 0 173 43" version="1.1" xmlns="http://www.w3.org/2000/svg" xmlns:xlink="http://www.w3.org/1999/xlink">
    <!-- Generator: Sketch 40 (33762) - http://www.bohemiancoding.com/sketch -->
    <title>Group 9 Copy</title>
    <desc>Created with Sketch.</desc>
    <defs>
        <polygon id="path-1" points="13.5564074 0.43637037 0.447677301 0.43637037 0.447677301 18.2582778 13.5564074 18.2582778"></polygon>
        <polygon id="path-3" points="6.54375153 0.43637037 0.420825153 0.43637037 0.420825153 18.2582778 6.54375153 18.2582778 6.54375153 0.43637037"></polygon>
    </defs>
    <g id="Welcome" stroke="none" stroke-width="1" fill="none" fill-rule="evenodd">
        <g id="Quill-Homepage" transform="translate(-781.000000, -6107.000000)">
            <g id="Group-9-Copy" transform="translate(764.000000, 6078.000000)">
                <rect id="Rectangle-386-Copy-3" x="0" y="0" width="206.4" height="100.03125"></rect>
                <g id="Page-1" transform="translate(17.000000, 29.000000)">
                    <path d="M12.8095887,6.10334568 L11.9461807,6.10334568 C11.7853862,5.49709877 11.449469,4.84785185 10.9394905,4.15719753 C10.4289813,3.46654321 9.93969908,3.08644444 9.47217454,3.0174321 C9.23390153,2.98664198 8.95211319,2.96381481 8.62574816,2.94841975 C8.2999138,2.93302469 7.93003344,2.92559259 7.51557638,2.92559259 L4.77623282,2.92559259 L4.77623282,9.48760494 L6.65694448,9.48760494 C7.22582791,9.48760494 7.66788006,9.42867901 7.9836316,9.30923457 C8.29885245,9.19032099 8.56843528,9.00823457 8.79131871,8.76244444 C8.94468374,8.59362963 9.08531258,8.33085185 9.21214387,7.97411111 C9.33897515,7.61737037 9.42176043,7.23567901 9.46049969,6.82850617 L10.3239077,6.82850617 L10.3239077,13.2524938 L9.46049969,13.2524938 C9.43768067,12.9153951 9.35861012,12.5310494 9.22381871,12.1015802 C9.08955798,11.6715802 8.94468374,11.3604938 8.79131871,11.1688519 C8.56047515,10.8848395 8.27019601,10.6910741 7.92048129,10.5875556 C7.57023589,10.484037 7.14941074,10.4320123 6.65694448,10.4320123 L4.77623282,10.4320123 L4.77623282,16.0528025 C4.77623282,16.3060247 4.82611626,16.531642 4.92588313,16.730716 C5.02565,16.930321 5.20236472,17.0911728 5.45549663,17.2138025 C5.57065307,17.2674198 5.81953957,17.332716 6.20374816,17.4091605 C6.5868954,17.4856049 6.87823589,17.5280741 7.07830031,17.5355062 L7.07830031,18.353037 L0.000159202449,18.353037 L0.000159202449,17.5355062 C0.229941411,17.520642 0.537202147,17.4951605 0.920880061,17.4606543 C1.30455798,17.4261481 1.55397515,17.3820864 1.66860092,17.3284691 C1.8989138,17.2286667 2.06607638,17.0810864 2.16955798,16.8851975 C2.27303957,16.6893086 2.32504571,16.4536049 2.32504571,16.1770247 L2.32504571,4.38759259 C2.32504571,4.13437037 2.28259172,3.90981481 2.19821442,3.71392593 C2.11383712,3.51803704 1.93765307,3.35930864 1.66860092,3.23614815 C1.46163773,3.13687654 1.18356411,3.04822222 0.834380061,2.97124691 C0.485196012,2.89480247 0.207122393,2.84861728 0.000159202449,2.83375309 L0.000159202449,2.01569136 L12.8095887,2.01569136 L12.8095887,6.10334568 Z" id="Fill-1" fill="#FFFFFF"></path>
                    <path d="M22.649627,8.46335556 C22.649627,8.85513333 22.5535748,9.20231852 22.3620012,9.50491111 C22.1698969,9.80856543 21.8748417,9.95986173 21.4757742,9.95986173 C21.0459276,9.95986173 20.7179706,9.84891111 20.4919031,9.62647901 C20.2653049,9.40351605 20.1522712,9.15772593 20.1522712,8.88963951 C20.1522712,8.72082469 20.165538,8.56687407 20.1926025,8.42884938 C20.2196669,8.29029383 20.2446086,8.15226914 20.2674276,8.01424444 C19.9065687,8.01424444 19.4846822,8.1602321 19.0012374,8.45167654 C18.5177926,8.74365185 18.107581,9.15772593 17.7700718,9.69549136 L17.7700718,16.3036889 C17.7700718,16.5723062 17.8215472,16.7910222 17.9255595,16.959837 C18.0285104,17.1291827 18.1919583,17.2555284 18.414311,17.3399358 C18.6058847,17.4163802 18.8537098,17.4742444 19.1567252,17.5124667 C19.4597405,17.5512198 19.7224245,17.577763 19.9447773,17.593158 L19.9447773,18.3528247 L13.9603571,18.3528247 L13.9603571,17.593158 C14.1370718,17.577763 14.3190933,17.5623679 14.5069521,17.5469728 C14.694811,17.5315778 14.8582589,17.5013185 14.9962344,17.4551333 C15.210627,17.386121 15.3703601,17.2656148 15.4738417,17.093084 C15.5773233,16.9205531 15.6293294,16.6965284 15.6293294,16.420479 L15.6293294,9.41678765 C15.6293294,9.17949136 15.5736086,8.94591111 15.4621669,8.71551605 C15.3512558,8.48565185 15.1957681,8.30144198 14.9962344,8.16341728 C14.8502988,8.07157778 14.6778294,8.00468889 14.4782957,7.96275062 C14.278762,7.92028148 14.0638387,7.89161481 13.8335258,7.87621975 L13.8335258,7.11602222 L17.6087466,6.86333086 L17.7700718,7.02418272 L17.7700718,8.62473827 L17.8273847,8.62473827 C18.3034,8.00256543 18.8324828,7.53062716 19.4156945,7.20839259 C19.9983755,6.88615802 20.5322344,6.72477531 21.0156791,6.72477531 C21.4985933,6.72477531 21.8918233,6.88244198 22.1948387,7.19671358 C22.4983847,7.51151605 22.649627,7.93408395 22.649627,8.46335556" id="Fill-3" fill="#FFFFFF"></path>
                    <path d="M31.1547528,11.3532741 C31.1547528,10.9243358 31.1186669,10.4651383 31.0454337,9.97568148 C30.9727313,9.48622469 30.8554521,9.0769284 30.694127,8.74779259 C30.5179429,8.39582963 30.2759552,8.1086321 29.9692252,7.88673086 C29.6624951,7.66482963 29.2671423,7.55387901 28.7842282,7.55387901 C27.9781331,7.55387901 27.3089521,7.88885432 26.7756239,8.55774321 C26.2422957,9.22769383 25.9530779,10.1593605 25.9069092,11.3532741 L31.1547528,11.3532741 Z M33.6982773,15.6819407 C33.222262,16.5875951 32.5854521,17.3095704 31.7878479,17.8462741 C30.9897129,18.3840395 30.0732374,18.6521259 29.0373601,18.6521259 C28.1240687,18.6521259 27.3243417,18.4907432 26.6376485,18.1690395 C25.9509552,17.8462741 25.3847252,17.4093728 24.9400196,16.8562123 C24.4947834,16.3035827 24.1631117,15.6591136 23.9444736,14.9217432 C23.7258356,14.1854346 23.6165166,13.4066568 23.6165166,12.584879 C23.6165166,11.8480395 23.733265,11.1250025 23.9672926,10.4147062 C24.2013202,9.70494074 24.5446669,9.06578025 24.9978632,8.49775556 C25.4351393,7.95308889 25.977489,7.51353333 26.6259736,7.17961975 C27.2744583,6.84570617 28.0014828,6.67901481 28.8070472,6.67901481 C29.6359613,6.67901481 30.3449429,6.80960741 30.9361147,7.07026173 C31.5267558,7.33091605 32.0064859,7.68818765 32.3747742,8.14101481 C32.727673,8.57101481 32.9908877,9.07745926 33.1633571,9.66087901 C33.3358264,10.2437679 33.4223264,10.8776198 33.4223264,11.5603111 L33.4223264,12.3199778 L25.9069092,12.3199778 C25.9069092,13.0663728 25.977489,13.7437556 26.1197098,14.3515951 C26.2614,14.9589037 26.4858755,15.493484 26.7931362,15.9553358 C27.0919061,16.4012617 27.4835442,16.7532247 27.966989,17.0112247 C28.4499031,17.2686938 29.0256853,17.3976938 29.6932742,17.3976938 C30.3757221,17.3976938 30.9647712,17.2373728 31.4598908,16.9167309 C31.9550104,16.5971506 32.4326178,16.0201012 32.8927129,15.1871753 L33.6982773,15.6819407 Z" id="Fill-5" fill="#FFFFFF"></path>
                    <path d="M42.5485009,11.3532741 C42.5485009,10.9243358 42.512415,10.4651383 42.4391819,9.97568148 C42.3664794,9.48622469 42.2492003,9.0769284 42.0878752,8.74779259 C41.9116911,8.39582963 41.6697034,8.1086321 41.3629733,7.88673086 C41.0562433,7.66482963 40.6608905,7.55387901 40.1779764,7.55387901 C39.3718813,7.55387901 38.7027003,7.88885432 38.1693721,8.55774321 C37.6360439,9.22769383 37.3468261,10.1593605 37.3006574,11.3532741 L42.5485009,11.3532741 Z M45.0920255,15.6819407 C44.6160101,16.5875951 43.9792003,17.3095704 43.181596,17.8462741 C42.383461,18.3840395 41.4669856,18.6521259 40.4311083,18.6521259 C39.5178169,18.6521259 38.7180899,18.4907432 38.0313966,18.1690395 C37.3447034,17.8462741 36.7784733,17.4093728 36.3337678,16.8562123 C35.8885316,16.3035827 35.5568598,15.6591136 35.3382218,14.9217432 C35.1195837,14.1854346 35.0102647,13.4066568 35.0102647,12.584879 C35.0102647,11.8480395 35.1270132,11.1250025 35.3610408,10.4147062 C35.5950684,9.70494074 35.938415,9.06578025 36.3916113,8.49775556 C36.8288874,7.95308889 37.3712371,7.51353333 38.0197218,7.17961975 C38.6682064,6.84570617 39.395231,6.67901481 40.2007954,6.67901481 C41.0297095,6.67901481 41.7386911,6.80960741 42.3298629,7.07026173 C42.920504,7.33091605 43.400234,7.68818765 43.7685224,8.14101481 C44.1214212,8.57101481 44.3841052,9.07745926 44.5571052,9.66087901 C44.7295745,10.2437679 44.8160745,10.8776198 44.8160745,11.5603111 L44.8160745,12.3199778 L37.3006574,12.3199778 C37.3006574,13.0663728 37.3712371,13.7437556 37.513458,14.3515951 C37.6551482,14.9589037 37.8796236,15.493484 38.1868844,15.9553358 C38.4856543,16.4012617 38.8772923,16.7532247 39.3607371,17.0112247 C39.8436512,17.2686938 40.4194334,17.3976938 41.0870224,17.3976938 C41.7694702,17.3976938 42.3585193,17.2373728 42.853639,16.9167309 C43.3487586,16.5971506 43.826366,16.0201012 44.286461,15.1871753 L45.0920255,15.6819407 Z" id="Fill-7" fill="#FFFFFF"></path>
                    <path d="M65.6701632,6.44877901 L64.8757429,6.44877901 C64.8067552,6.17219877 64.6820466,5.84412469 64.5010865,5.46455679 C64.3201264,5.08445802 64.1184699,4.72559383 63.8955865,4.38743333 C63.6647429,4.03493951 63.4132031,3.72544568 63.1399055,3.46107531 C62.8671387,3.19617407 62.6033933,3.04487778 62.3497307,3.00612469 C62.1114577,2.97586543 61.8116264,2.95250741 61.4502368,2.93711235 C61.0888472,2.92171728 60.7539914,2.91428519 60.4467307,2.91428519 L59.7775497,2.91428519 L59.7775497,15.9815074 C59.7775497,16.2347296 59.8311479,16.4667173 59.9388748,16.6780012 C60.0460712,16.8887543 60.2339301,17.0522605 60.5024515,17.167458 C60.640427,17.2210753 60.9301755,17.2938037 61.3716969,17.3856432 C61.8126877,17.4780136 62.1560344,17.5279148 62.4017368,17.5353469 L62.4017368,18.3528778 L54.6905006,18.3528778 L54.6905006,17.5353469 C54.9054239,17.5204827 55.233381,17.4896926 55.6749025,17.4435074 C56.1158933,17.3973222 56.4205006,17.339458 56.5897859,17.2709765 C56.8429178,17.1711741 57.028654,17.0273099 57.1480558,16.8388531 C57.2663963,16.651458 57.3258319,16.3998284 57.3258319,16.0850259 L57.3258319,2.91428519 L56.6587736,2.91428519 C56.4205006,2.91428519 56.1254454,2.91959383 55.7725466,2.93127284 C55.4191172,2.94242099 55.0821387,2.96790247 54.7594883,3.00612469 C54.5063564,3.03691481 54.2436724,3.18874198 53.9714362,3.46107531 C53.6986693,3.73340864 53.4476601,4.0423716 53.2173472,4.38743333 C52.987565,4.73302593 52.7837859,5.09985309 52.6076018,5.48738395 C52.4308871,5.87491481 52.3083012,6.19502593 52.2393135,6.44877901 L51.4337491,6.44877901 L51.4337491,2.01606296 L65.6701632,2.01606296 L65.6701632,6.44877901 Z" id="Fill-9" fill="#FFFFFF"></path>
                    <path d="M74.2097298,11.3532741 C74.2097298,10.9243358 74.1736439,10.4651383 74.1004107,9.97568148 C74.0277083,9.48622469 73.9104291,9.0769284 73.749104,8.74779259 C73.5729199,8.39582963 73.3309322,8.1086321 73.0242021,7.88673086 C72.7174721,7.66482963 72.3221193,7.55387901 71.8392052,7.55387901 C71.0331101,7.55387901 70.3639291,7.88885432 69.8306009,8.55774321 C69.2972727,9.22769383 69.0080549,10.1593605 68.9618862,11.3532741 L74.2097298,11.3532741 Z M76.7532543,15.6819407 C76.277239,16.5875951 75.6404291,17.3095704 74.8428248,17.8462741 C74.0446899,18.3840395 73.1282144,18.6521259 72.0923371,18.6521259 C71.1790457,18.6521259 70.3793187,18.4907432 69.6926255,18.1690395 C69.0059322,17.8462741 68.4397021,17.4093728 67.9949966,16.8562123 C67.5497604,16.3035827 67.2180887,15.6591136 66.9994506,14.9217432 C66.7808126,14.1854346 66.6714936,13.4066568 66.6714936,12.584879 C66.6714936,11.8480395 66.788242,11.1250025 67.0222696,10.4147062 C67.2562972,9.70494074 67.5996439,9.06578025 68.0528402,8.49775556 C68.4901163,7.95308889 69.032466,7.51353333 69.6809506,7.17961975 C70.3294353,6.84570617 71.0564598,6.67901481 71.8620242,6.67901481 C72.6909383,6.67901481 73.3999199,6.80960741 73.9910917,7.07026173 C74.5817328,7.33091605 75.0614629,7.68818765 75.4297512,8.14101481 C75.78265,8.57101481 76.0458647,9.07745926 76.218334,9.66087901 C76.3908034,10.2437679 76.4773034,10.8776198 76.4773034,11.5603111 L76.4773034,12.3199778 L68.9618862,12.3199778 C68.9618862,13.0663728 69.032466,13.7437556 69.1746868,14.3515951 C69.316377,14.9589037 69.5408525,15.493484 69.8481132,15.9553358 C70.1468831,16.4012617 70.5385212,16.7532247 71.021966,17.0112247 C71.5048801,17.2686938 72.0806623,17.3976938 72.7482512,17.3976938 C73.4306991,17.3976938 74.0197482,17.2373728 74.5148678,16.9167309 C75.0099874,16.5971506 75.4875948,16.0201012 75.9476899,15.1871753 L76.7532543,15.6819407 Z" id="Fill-11" fill="#FFFFFF"></path>
                    <path d="M83.3133506,18.6522852 C81.6714426,18.6522852 80.3861482,18.1076185 79.4579979,17.0177543 C78.5293169,15.9278901 78.0655071,14.4653593 78.0655071,12.6306926 C78.0655071,11.8328037 78.189685,11.0864086 78.4391021,10.3915074 C78.6885193,9.69713704 79.0509702,9.06593951 79.5269856,8.49791481 C79.9796512,7.95271728 80.5469426,7.51316173 81.2304518,7.17977901 C81.9128997,6.84586543 82.6574365,6.67917407 83.4630009,6.67917407 C84.5752954,6.67917407 85.4806267,6.9456679 86.1789948,7.47865556 C86.8773629,8.01270494 87.2265469,8.73998889 87.2265469,9.66103827 C87.2265469,10.0443222 87.1342095,10.3840753 86.9500653,10.6797667 C86.7659212,10.975458 86.4629058,11.1230383 86.0410193,11.1230383 C85.5883537,11.1230383 85.2370469,11.0078407 84.9876298,10.7785074 C84.7387433,10.5486432 84.6140347,10.2927667 84.6140347,10.0092852 C84.6140347,9.66528519 84.6602034,9.31172963 84.7520101,8.94808765 C84.8438169,8.58444568 84.897415,8.31901358 84.9128046,8.15072963 C84.7753598,7.91343333 84.5705193,7.75470494 84.2988138,7.67401358 C84.0271083,7.59385309 83.7341758,7.55403827 83.4205469,7.55403827 C83.0533199,7.55403827 82.7030745,7.63260617 82.3703414,7.78974198 C82.0370776,7.94740864 81.7138966,8.23672963 81.4002678,8.65929753 C81.1168874,9.04258148 80.8871052,9.5612358 80.7114518,10.213137 C80.5357985,10.8655691 80.4477064,11.6448778 80.4477064,12.5505321 C80.4477064,13.9780259 80.763458,15.142742 81.3954917,16.0446802 C82.0275255,16.9466185 82.8569702,17.3973222 83.8832954,17.3973222 C84.6262402,17.3973222 85.2487218,17.2162975 85.7507402,16.8537173 C86.2522279,16.491137 86.7176298,15.9470012 87.1469457,15.2218407 L87.882461,15.7049272 C87.3761972,16.6105815 86.7086083,17.3283099 85.8796942,17.8581123 C85.0513107,18.387384 84.1958629,18.6522852 83.3133506,18.6522852" id="Fill-13" fill="#FFFFFF"></path>
                    <g id="Group-17" transform="translate(87.561350, 0.094759)">
                        <mask id="mask-2" fill="white">
                            <use xlink:href="#path-1"></use>
                        </mask>
                        <g id="Clip-16"></g>
                        <path d="M13.5564074,18.2582778 L7.97476933,18.2582778 L7.97476933,17.4986111 C8.15095337,17.483216 8.34677239,17.467821 8.56169571,17.4524259 C8.77661902,17.4370309 8.95280307,17.4062407 9.09077853,17.3600556 C9.30570184,17.2910432 9.46490429,17.170537 9.56838589,16.9974753 C9.67239816,16.8249444 9.72387362,16.6003889 9.72387362,16.3238086 L9.72387362,10.4869568 C9.72387362,9.68110494 9.53336135,9.05946296 9.15286748,8.6215 C8.77237362,8.18459877 8.3085638,7.96535185 7.76249939,7.96535185 C7.36290123,7.96535185 6.99195951,8.02852469 6.64967423,8.15540123 C6.30738896,8.28227778 6.00172025,8.43729012 5.7326681,8.6215 C5.4710454,8.81367284 5.27098098,9.00584568 5.13247485,9.19748765 C4.99449939,9.38912963 4.88677239,9.55051235 4.80982454,9.68110494 L4.80982454,16.2086111 C4.80982454,16.4697963 4.8613,16.6853272 4.96531227,16.8536111 C5.06879387,17.0224259 5.22746564,17.1530185 5.44291963,17.244858 C5.61114356,17.3218333 5.78573558,17.3796975 5.96616503,17.4179198 C6.14659448,17.4566728 6.34400552,17.483216 6.55892883,17.4986111 L6.55892883,18.2582778 L1.00010982,18.2582778 L1.00010982,17.4986111 C1.17523252,17.483216 1.35831534,17.4656975 1.54882761,17.4465864 C1.73933988,17.4274753 1.89960368,17.3988086 2.02908834,17.3600556 C2.24241963,17.2910432 2.40215276,17.1700062 2.5088184,16.9974753 C2.61548405,16.8244136 2.66908221,16.599858 2.66908221,16.3232778 L2.66908221,3.0967963 C2.66908221,2.83561111 2.60964663,2.57442593 2.49077546,2.31324074 C2.37137362,2.05205556 2.21641656,1.85616667 2.02431227,1.72610494 C1.88633681,1.62630247 1.64275706,1.5546358 1.29357301,1.51269753 C0.944388957,1.4702284 0.662600614,1.44156173 0.447677301,1.42616667 L0.447677301,0.68932716 L4.64849939,0.436104938 L4.80982454,0.608635802 L4.80982454,8.52966049 L4.85546258,8.52966049 C5.10912515,8.27643827 5.33996871,8.05188272 5.54746258,7.85652469 C5.75495644,7.6606358 6.02772331,7.45519136 6.36576319,7.24019136 C6.65816503,7.05598148 7.00204233,6.90256173 7.39739509,6.77940123 C7.79327853,6.6567716 8.23745337,6.59519136 8.72885828,6.59519136 C9.74350859,6.59519136 10.5236006,6.9163642 11.0691344,7.55711728 C11.6146681,8.19787037 11.887435,9.12104321 11.887435,10.3255741 L11.887435,16.2319691 C11.887435,16.5005864 11.9357264,16.717179 12.0323092,16.8822778 C12.128892,17.0479074 12.2896865,17.1758457 12.5136313,17.268216 C12.6908767,17.3372284 12.8516712,17.3887222 12.9944227,17.4232284 C13.1371742,17.4577346 13.3245025,17.483216 13.5564074,17.4986111 L13.5564074,18.2582778 Z" id="Fill-15" fill="#FFFFFF" mask="url(#mask-2)"></path>
                    </g>
                    <path d="M115.020483,18.353037 L109.473339,18.353037 L109.473339,17.5933704 C109.649523,17.5779753 109.843219,17.5625802 110.054428,17.5471852 C110.265636,17.5317901 110.440228,17.501 110.578204,17.4548148 C110.793127,17.3858025 110.952329,17.2652963 111.055811,17.0922346 C111.159293,16.9197037 111.211299,16.6951481 111.211299,16.4185679 L111.211299,10.581716 C111.211299,9.7758642 111.020787,9.15422222 110.640293,8.71625926 C110.259268,8.27935802 109.795989,8.06011111 109.249925,8.06011111 C108.842366,8.06011111 108.469302,8.12328395 108.130731,8.25016049 C107.792691,8.37703704 107.49286,8.53204938 107.231237,8.71625926 C106.977575,8.89303704 106.775388,9.08308642 106.625737,9.28640741 C106.475556,9.4897284 106.365707,9.65323457 106.296719,9.7758642 L106.296719,16.3033704 C106.296719,16.5645556 106.350317,16.7800864 106.458044,16.9483704 C106.56524,17.1171852 106.726566,17.2477778 106.941489,17.3396173 C107.102283,17.4165926 107.276875,17.4744568 107.465265,17.512679 C107.653124,17.5514321 107.84682,17.5779753 108.046354,17.5933704 L108.046354,18.353037 L102.487535,18.353037 L102.487535,17.5933704 C102.663719,17.5779753 102.84574,17.5625802 103.03413,17.5471852 C103.221989,17.5317901 103.384906,17.5015309 103.523412,17.4553457 C103.737805,17.3863333 103.897007,17.2658272 104.00102,17.0932963 C104.104501,16.9207654 104.156507,16.6962099 104.156507,16.4206914 L104.156507,9.417 C104.156507,9.15634568 104.100256,8.91692593 103.989345,8.69820988 C103.877903,8.48002469 103.722946,8.30165432 103.523412,8.16362963 C103.377477,8.07179012 103.205007,8.00490123 103.005474,7.96296296 C102.80594,7.92049383 102.591017,7.8912963 102.360704,7.87590123 L102.360704,7.11623457 L106.135394,6.86301235 L106.296719,7.02439506 L106.296719,8.62441975 L106.354563,8.62441975 C106.538707,8.44074074 106.768489,8.21937037 107.044971,7.96296296 C107.320921,7.70549383 107.582013,7.49633333 107.827716,7.33495062 C108.111096,7.15074074 108.449136,6.99732099 108.840244,6.87416049 C109.231882,6.75153086 109.672872,6.68995062 110.163747,6.68995062 C111.253222,6.68995062 112.060909,7.03023457 112.586808,7.70920988 C113.112176,8.38818519 113.37486,9.29224691 113.37486,10.4203333 L113.37486,16.3267284 C113.37486,16.5953457 113.421029,16.8119383 113.512836,16.977037 C113.605173,17.1426667 113.762253,17.2706049 113.985136,17.3629753 C114.16928,17.4399506 114.327952,17.4935679 114.462213,17.524358 C114.596474,17.5551481 114.78274,17.5779753 115.020483,17.5933704 L115.020483,18.353037 Z" id="Fill-18" fill="#FFFFFF"></path>
                    <path d="M125.102827,12.5847728 C125.102827,12.009316 125.044984,11.4014765 124.929297,10.7601926 C124.81414,10.1194395 124.641671,9.57636543 124.410827,9.13150123 C124.164594,8.65531605 123.841944,8.27309383 123.442346,7.98536543 C123.042217,7.69763704 122.554527,7.55377284 121.978214,7.55377284 C121.385981,7.55377284 120.880778,7.69976049 120.462076,7.99120494 C120.042843,8.28318025 119.70268,8.68185926 119.441588,9.18883457 C119.195355,9.65705679 119.022355,10.1900444 118.922588,10.7888593 C118.822821,11.3876741 118.772938,11.9673778 118.772938,12.5274395 C118.772938,13.264279 118.832373,13.9453778 118.951244,14.5707358 C119.070646,15.1966247 119.260628,15.7550938 119.522251,16.2461432 C119.783343,16.7371926 120.11183,17.1231309 120.508244,17.4028963 C120.904128,17.6837235 121.393941,17.8233407 121.978214,17.8233407 C122.938735,17.8233407 123.699723,17.3593654 124.260646,16.4303531 C124.8221,15.5018716 125.102827,14.2198346 125.102827,12.5847728 M127.485027,12.5619457 C127.485027,13.3603654 127.358195,14.1449827 127.105063,14.9163284 C126.85087,15.6876741 126.490542,16.3422296 126.021956,16.8789333 C125.491812,17.4936741 124.87729,17.9502173 124.178392,18.2496247 C123.479493,18.5490321 122.696217,18.6982049 121.828033,18.6982049 C121.106315,18.6982049 120.41856,18.5617728 119.76583,18.2894395 C119.1131,18.017637 118.533073,17.6205506 118.026278,17.0981802 C117.526913,16.5843037 117.129438,15.9568222 116.833852,15.2157358 C116.538266,14.4746494 116.390208,13.6443778 116.390208,12.7233284 C116.390208,10.950242 116.906554,9.49939012 117.940309,8.37077284 C118.972471,7.24321728 120.326754,6.67890864 122.001033,6.67890864 C123.590935,6.67890864 124.902232,7.21401975 125.935456,8.28477284 C126.96868,9.35552593 127.485027,10.7814272 127.485027,12.5619457" id="Fill-20" fill="#FFFFFF"></path>
                    <g id="Group-24" transform="translate(127.892638, 0.094759)">
                        <mask id="mask-4" fill="white">
                            <use xlink:href="#path-3"></use>
                        </mask>
                        <g id="Clip-23"></g>
                        <path d="M6.54375153,18.2582778 L1.00775153,18.2582778 L1.00775153,17.4986111 C1.18446626,17.483216 1.37232515,17.4656975 1.57132822,17.4465864 C1.77086196,17.4274753 1.93590184,17.3988086 2.06644785,17.3600556 C2.28137117,17.2910432 2.44216564,17.1700062 2.54989264,16.9974753 C2.65708896,16.8244136 2.71121779,16.599858 2.71121779,16.3232778 L2.71121779,3.16580864 C2.71121779,2.8892284 2.65178221,2.63016667 2.53291104,2.38809259 C2.4135092,2.14654938 2.25855215,1.95596914 2.06644785,1.81794444 C1.92847239,1.72610494 1.67534049,1.64169753 1.30705215,1.56472222 C0.938763804,1.48774691 0.643177914,1.44156173 0.420825153,1.42616667 L0.420825153,0.68932716 L4.69063497,0.436104938 L4.85196012,0.608635802 L4.85196012,16.185784 C4.85196012,16.4549321 4.90184356,16.6752407 5.00161043,16.8477716 C5.1013773,17.0208333 5.26217178,17.1530185 5.48452454,17.244858 C5.65327914,17.3218333 5.81991104,17.3796975 5.9854816,17.4179198 C6.15052147,17.4566728 6.33625767,17.483216 6.54375153,17.4986111 L6.54375153,18.2582778 Z" id="Fill-22" fill="#FFFFFF" mask="url(#mask-4)"></path>
                    </g>
                    <path d="M144.55275,12.5847728 C144.55275,12.009316 144.494907,11.4014765 144.37922,10.7601926 C144.264063,10.1194395 144.091594,9.57636543 143.86075,9.13150123 C143.614517,8.65531605 143.291867,8.27309383 142.892269,7.98536543 C142.49214,7.69763704 142.00445,7.55377284 141.428137,7.55377284 C140.835904,7.55377284 140.330701,7.69976049 139.911999,7.99120494 C139.492766,8.28318025 139.152603,8.68185926 138.891511,9.18883457 C138.645278,9.65705679 138.472278,10.1900444 138.372511,10.7888593 C138.272744,11.3876741 138.222861,11.9673778 138.222861,12.5274395 C138.222861,13.264279 138.282296,13.9453778 138.401167,14.5707358 C138.520569,15.1966247 138.710551,15.7550938 138.972174,16.2461432 C139.233266,16.7371926 139.561753,17.1231309 139.958167,17.4028963 C140.354051,17.6837235 140.843864,17.8233407 141.428137,17.8233407 C142.388658,17.8233407 143.149646,17.3593654 143.710569,16.4303531 C144.272023,15.5018716 144.55275,14.2198346 144.55275,12.5847728 M146.93495,12.5619457 C146.93495,13.3603654 146.808118,14.1449827 146.554987,14.9163284 C146.300793,15.6876741 145.940465,16.3422296 145.471879,16.8789333 C144.941735,17.4936741 144.327213,17.9502173 143.628315,18.2496247 C142.929416,18.5490321 142.14614,18.6982049 141.277956,18.6982049 C140.556238,18.6982049 139.868483,18.5617728 139.215753,18.2894395 C138.563023,18.017637 137.982996,17.6205506 137.476201,17.0981802 C136.976836,16.5843037 136.579361,15.9568222 136.283775,15.2157358 C135.988189,14.4746494 135.840131,13.6443778 135.840131,12.7233284 C135.840131,10.950242 136.356477,9.49939012 137.390232,8.37077284 C138.422394,7.24321728 139.776677,6.67890864 141.450956,6.67890864 C143.040858,6.67890864 144.352155,7.21401975 145.385379,8.28477284 C146.418603,9.35552593 146.93495,10.7814272 146.93495,12.5619457" id="Fill-25" fill="#FFFFFF"></path>
                    <path d="M155.186837,10.4434259 C155.186837,9.54573457 155.004285,8.83012963 154.639712,8.29661111 C154.275669,7.76309259 153.763567,7.4960679 153.103408,7.4960679 C152.74308,7.4960679 152.434227,7.57091975 152.17738,7.72062346 C151.920003,7.87032716 151.710917,8.0832037 151.550123,8.35978395 C151.396227,8.61300617 151.286908,8.91825309 151.222166,9.27499383 C151.156893,9.63173457 151.123991,9.99856173 151.123991,10.3744136 C151.123991,11.2264506 151.310258,11.920821 151.682261,12.4585864 C152.054264,12.995821 152.535586,13.2644383 153.126227,13.2644383 C153.786387,13.2644383 154.294773,12.9979444 154.651387,12.4638951 C155.008531,11.9309074 155.186837,11.2572407 155.186837,10.4434259 M157.396567,19.9650062 C157.396567,19.5350062 157.296801,19.1819815 157.097267,18.9059321 C156.897202,18.6293519 156.594718,18.4408951 156.188221,18.3416235 C155.972767,18.3108333 155.532307,18.276858 154.864187,18.2381049 C154.197129,18.1998827 153.421813,18.1807716 152.539831,18.1807716 C151.710917,18.3416235 151.121868,18.6123642 150.772684,18.9919321 C150.424031,19.3720309 150.249439,19.8614877 150.249439,20.4597716 C150.249439,20.7283889 150.306752,20.985858 150.421908,21.2311173 C150.537064,21.4769074 150.736598,21.7035864 151.020509,21.9106235 C151.289031,22.1102284 151.649359,22.2732037 152.102025,22.4000802 C152.555221,22.5269568 153.107123,22.5895988 153.759853,22.5895988 C154.887537,22.5895988 155.775356,22.3730062 156.42384,21.9392901 C157.072325,21.5055741 157.396567,20.8473025 157.396567,19.9650062 M158.294469,17.1790309 C158.600669,17.4704753 158.842656,17.800142 159.019371,18.1690926 C159.195555,18.5369815 159.284178,18.9940556 159.284178,19.5387222 C159.284178,20.0839198 159.164776,20.5962037 158.927034,21.0755741 C158.689291,21.5554753 158.328963,21.9722037 157.844988,22.3246975 C157.331294,22.6856852 156.717304,22.9659815 156.003546,23.1650556 C155.290319,23.3646605 154.407807,23.4649938 153.35654,23.4649938 C151.638215,23.4649938 150.35292,23.2133642 149.501187,22.7106358 C148.649454,22.2079074 148.223853,21.4731914 148.223853,20.5059568 C148.223853,19.7229321 148.530583,19.105537 149.144574,18.652179 C149.758564,18.1998827 150.540779,17.9540926 151.492279,17.9153395 L151.492279,17.7544877 C151.261966,17.6849444 151.024224,17.5989444 150.779052,17.4954259 C150.53335,17.3919074 150.322141,17.2708704 150.145426,17.1328457 C149.946423,16.971463 149.785098,16.7814136 149.662512,16.5626975 C149.539396,16.3439815 149.478368,16.0732407 149.478368,15.7510062 C149.478368,15.3443642 149.622181,14.9706358 149.909807,14.6287593 C150.197433,14.2868827 150.633117,13.9933148 151.215798,13.7475247 L151.215798,13.5755247 C150.479752,13.2299321 149.908215,12.7866605 149.501187,12.2457099 C149.09469,11.7042284 148.891442,11.0767469 148.891442,10.3627346 C148.891442,9.28826543 149.292101,8.40543827 150.093951,7.71478395 C150.895801,7.02466049 151.922126,6.6790679 153.172396,6.6790679 C153.517865,6.6790679 153.861212,6.71357407 154.202966,6.78258642 C154.54366,6.85159877 154.891252,6.94025309 155.24415,7.04748765 L159.203515,7.04748765 L159.203515,8.15221605 L156.53369,8.15221605 L156.53369,8.2212284 C156.817071,8.55142593 157.028279,8.91666049 157.166255,9.31533951 C157.30423,9.71454938 157.373748,10.1057963 157.373748,10.4896111 C157.373748,11.4876358 156.968844,12.3317099 156.159034,13.0223642 C155.349224,13.7130185 154.407807,14.0586111 153.333721,14.0586111 L151.94123,14.0586111 C151.764515,14.1201914 151.580371,14.2316728 151.388798,14.3925247 C151.196693,14.5539074 151.100641,14.7720926 151.100641,15.0486728 C151.100641,15.333216 151.181304,15.5498086 151.342629,15.6995123 C151.503954,15.849216 151.699773,15.9506111 151.929555,16.0042284 C152.151908,16.0658086 152.410877,16.1040309 152.706463,16.1194259 C153.002049,16.134821 153.306656,16.1465 153.621877,16.1539321 C153.958856,16.1618951 154.421074,16.1847222 155.008531,16.2234753 C155.595457,16.2616975 156.011506,16.2850556 156.257209,16.2924877 C156.610107,16.3078827 156.965129,16.3922901 157.321212,16.545179 C157.678356,16.6991296 158.002598,16.9098827 158.294469,17.1790309" id="Fill-27" fill="#FFFFFF"></path>
                    <path d="M160.664092,22.0601148 C160.664092,21.6763 160.769165,21.363621 160.980374,21.1215469 C161.191052,20.8805346 161.453736,20.7589667 161.768957,20.7589667 C162.014129,20.7589667 162.224806,20.804621 162.401521,20.8964605 C162.577705,20.9877691 162.735316,21.1061519 162.873291,21.2505469 C162.988448,21.3646827 163.111033,21.5207568 163.241049,21.7187691 C163.371595,21.9167815 163.475607,22.0808185 163.552024,22.2098185 C163.935702,22.0033123 164.394205,21.4628926 164.927003,20.5901519 C165.460331,19.7168802 165.846132,18.9508432 166.083874,18.2925716 C165.354727,16.4743617 164.695098,14.847263 164.104457,13.4128679 C163.513816,11.977942 162.896641,10.492584 162.251871,8.95838642 C162.106466,8.60536173 161.861294,8.33090494 161.515825,8.13501605 C161.170356,7.93965802 160.825417,7.81490494 160.479948,7.76075679 L160.479948,7.00109012 L165.660926,7.00109012 L165.660926,7.80694198 C165.430613,7.81490494 165.154662,7.86321358 164.832012,7.95080617 C164.509892,8.03892963 164.349098,8.15996667 164.349098,8.31338642 C164.433475,8.54325062 164.490788,8.71206543 164.521567,8.8193 C164.812377,9.57896667 165.256021,10.6736086 165.85303,12.1037568 C166.45004,13.5344358 166.912788,14.6784481 167.241806,15.5379173 C167.587276,14.7172012 167.946543,13.8678185 168.319076,12.9892383 C168.69161,12.1111889 169.108721,11.0738802 169.569346,9.87784321 C169.622944,9.73185556 169.699892,9.53065802 169.799659,9.27371975 C169.899957,9.01731235 169.94984,8.79647284 169.94984,8.61226296 C169.94984,8.41318889 169.774717,8.22685556 169.426064,8.05432469 C169.07688,7.88232469 168.745208,7.77615185 168.430518,7.73792963 L168.430518,7.00109012 L172.644607,7.00109012 L172.644607,7.7145716 C172.414825,7.75332469 172.11181,7.88604074 171.735561,8.11218889 C171.359843,8.3388679 171.079647,8.65897901 170.895503,9.07358395 C169.982211,11.192263 169.17081,13.1224852 168.461297,14.8647815 C167.751785,16.6070778 167.212619,17.888584 166.844331,18.7098309 C166.360886,19.7843 165.929448,20.6230654 165.549484,21.2255963 C165.170052,21.8281272 164.799641,22.3021889 164.438782,22.6472506 C164.085883,22.970016 163.765356,23.1866086 163.47826,23.2980901 C163.190104,23.4090407 162.892926,23.4647815 162.586196,23.4647815 C161.987595,23.4647815 161.517948,23.3230407 161.176193,23.0390284 C160.834438,22.7544852 160.664092,22.4290654 160.664092,22.0601148" id="Fill-29" fill="#FFFFFF"></path>
                    <path d="M31.2923037,25.777916 C31.2923037,26.1235086 31.2004969,26.4149531 31.0158221,26.6527802 C30.8316779,26.8911383 30.5514816,27.0100519 30.1757638,27.0100519 C29.9380215,27.0100519 29.7289356,26.9601506 29.5485061,26.8603481 C29.3686074,26.7605457 29.2014448,26.626237 29.0480798,26.4568914 C28.8947147,26.2880765 28.7524939,26.0964346 28.6219479,25.8814346 C28.4919325,25.6664346 28.3804908,25.4939037 28.288684,25.3633111 C27.7744601,25.3861383 27.3775153,25.7444716 27.097319,26.4372494 C26.8171227,27.1310889 26.6770245,28.2358173 26.6770245,29.7519654 L26.6770245,30.9129654 L29.6005123,30.9129654 L29.6005123,32.0176938 L26.6770245,32.0176938 L26.6770245,40.1691136 C26.6770245,40.4377309 26.7290307,40.6564469 26.8325123,40.8252617 C26.9359939,40.9946074 27.098911,41.1209531 27.3217945,41.2053605 C27.5059387,41.2743728 27.7511104,41.3301136 28.0583712,41.3725827 C28.3651012,41.414521 28.629908,41.4431877 28.8522607,41.4585827 L28.8522607,42.2182494 L22.8678405,42.2182494 L22.8678405,41.4585827 C23.0440245,41.4431877 23.2265767,41.4277926 23.4144356,41.4123975 C23.6022945,41.3970025 23.7657423,41.3662123 23.9031871,41.3200272 C24.1181104,41.2515457 24.2773129,41.1305086 24.3813252,40.9574469 C24.4848067,40.7854469 24.5362822,40.5603605 24.5362822,40.2843111 L24.5362822,32.0176938 L22.292589,32.0176938 L22.292589,30.9129654 L24.5362822,30.9129654 L24.5362822,30.1888667 C24.5362822,28.4651506 24.9836411,27.0684469 25.8772975,25.9998173 C26.770954,24.9306568 27.8896166,24.3960765 29.2322239,24.3960765 C29.9152025,24.3960765 30.4288957,24.5303852 30.774365,24.7990025 C31.1198344,25.0681506 31.2923037,25.3941012 31.2923037,25.777916" id="Fill-31" fill="#FFFFFF"></path>
                    <path d="M39.1988813,36.4502506 C39.1988813,35.8747938 39.1415684,35.2669543 39.0258813,34.6256704 C38.9107248,33.9849173 38.7377248,33.4418432 38.507412,32.996979 C38.2611788,32.5207938 37.9379979,32.1385716 37.5389304,31.8508432 C37.1388015,31.5631148 36.6505807,31.4192506 36.0742678,31.4192506 C35.4820347,31.4192506 34.9768322,31.5652383 34.5581298,31.8566827 C34.1388966,32.148658 33.7992647,32.547337 33.537642,33.0543123 C33.2919396,33.5225346 33.1189396,34.0555222 33.018642,34.654337 C32.9188752,35.2531519 32.8689917,35.8328556 32.8689917,36.3929173 C32.8689917,37.1297568 32.9284273,37.8108556 33.0478291,38.4362136 C33.1667003,39.0621025 33.3572126,39.6205716 33.6188353,40.111621 C33.8799273,40.6026704 34.208415,40.9886086 34.6042985,41.2683741 C35.0001819,41.5492012 35.4899948,41.6888185 36.0742678,41.6888185 C37.0347893,41.6888185 37.7963077,41.2248432 38.357231,40.2958309 C38.9181543,39.3673494 39.1988813,38.0853123 39.1988813,36.4502506 M41.5810807,36.4274235 C41.5810807,37.2258432 41.4547801,38.0104605 41.2011175,38.7818062 C40.9474549,39.5531519 40.586596,40.2077074 40.1180101,40.7444111 C39.5883966,41.3591519 38.9733445,41.8156951 38.2749764,42.1151025 C37.5755469,42.4145099 36.7922709,42.5636827 35.9246175,42.5636827 C35.202369,42.5636827 34.5151451,42.4272506 33.862415,42.1549173 C33.209685,41.8831148 32.6296574,41.4860284 32.1228629,40.963658 C31.6234979,40.4497815 31.2254917,39.8223 30.9299058,39.0812136 C30.6343199,38.3401272 30.4867923,37.5098556 30.4867923,36.5888062 C30.4867923,34.8157198 31.003139,33.3648679 32.0363629,32.2362506 C33.0690561,31.1086951 34.4228077,30.5443864 36.0970868,30.5443864 C37.6869887,30.5443864 38.9982862,31.0794975 40.0320408,32.1502506 C41.064734,33.2210037 41.5810807,34.6469049 41.5810807,36.4274235" id="Fill-33" fill="#FFFFFF"></path>
                    <path d="M51.9047761,32.3287802 C51.9047761,32.720558 51.8087239,33.0677432 51.6171503,33.3703358 C51.425046,33.6739901 51.1299908,33.8252864 50.7309233,33.8252864 C50.3010767,33.8252864 49.9731196,33.7143358 49.7470521,33.4919037 C49.520454,33.2689407 49.4074202,33.0231506 49.4074202,32.7550642 C49.4074202,32.5862494 49.4206871,32.4322988 49.4477515,32.2942741 C49.474816,32.1557185 49.4997577,32.0176938 49.5225767,31.8796691 C49.1617178,31.8796691 48.7398313,32.0256568 48.2563865,32.3171012 C47.7729417,32.6090765 47.3627301,33.0231506 47.0252209,33.560916 L47.0252209,40.1691136 C47.0252209,40.4377309 47.0766963,40.6564469 47.1807086,40.8252617 C47.2836595,40.9946074 47.4471074,41.1209531 47.6694601,41.2053605 C47.8610337,41.2818049 48.1088589,41.3396691 48.4118742,41.3778914 C48.7148896,41.4166444 48.9775736,41.4431877 49.1999264,41.4585827 L49.1999264,42.2182494 L43.2155061,42.2182494 L43.2155061,41.4585827 C43.3922209,41.4431877 43.5742423,41.4277926 43.7621012,41.4123975 C43.9499601,41.3970025 44.113408,41.3667432 44.2513834,41.320558 C44.4657761,41.2515457 44.6255092,41.1310395 44.7289908,40.9585086 C44.8324724,40.7859778 44.8844785,40.5619531 44.8844785,40.2859037 L44.8844785,33.2822123 C44.8844785,33.044916 44.8287577,32.8113358 44.717316,32.5809407 C44.6064049,32.3510765 44.4509172,32.1668667 44.2513834,32.028842 C44.1054479,31.9370025 43.9329785,31.8701136 43.7334448,31.8281753 C43.533911,31.7857062 43.3189877,31.7570395 43.0886748,31.7416444 L43.0886748,30.9814469 L46.8638957,30.7287556 L47.0252209,30.8896074 L47.0252209,32.490163 L47.0825337,32.490163 C47.5585491,31.8679901 48.0876319,31.3960519 48.6708436,31.0738173 C49.2535245,30.7515827 49.7873834,30.5902 50.2708282,30.5902 C50.7537423,30.5902 51.1469724,30.7478667 51.4499877,31.0621383 C51.7535337,31.3769407 51.9047761,31.7995086 51.9047761,32.3287802" id="Fill-35" fill="#FFFFFF"></path>
                    <path d="M72.1375506,30.3142037 L71.3431304,30.3142037 C71.2741426,30.0376235 71.149434,29.7095494 70.9684739,29.3299815 C70.7875138,28.9498827 70.5858574,28.5910185 70.3629739,28.252858 C70.1321304,27.9003642 69.8805905,27.5908704 69.6072929,27.3265 C69.3345261,27.0615988 69.0707807,26.9103025 68.8171181,26.8715494 C68.5788451,26.8412901 68.2790138,26.8179321 67.9176242,26.802537 C67.5562347,26.787142 67.2213788,26.7797099 66.9141181,26.7797099 L66.2449371,26.7797099 L66.2449371,39.8469321 C66.2449371,40.1001543 66.2985353,40.332142 66.4062623,40.5434259 C66.5134586,40.754179 66.7013175,40.9176852 66.969839,41.0328827 C67.1078144,41.0865 67.3975629,41.1592284 67.8390844,41.2510679 C68.2800752,41.3434383 68.6234218,41.3933395 68.8691242,41.4007716 L68.8691242,42.2183025 L61.157888,42.2183025 L61.157888,41.4007716 C61.3728113,41.3859074 61.7007684,41.3551173 62.1422899,41.3089321 C62.5832807,41.2627469 62.887888,41.2054136 63.0571733,41.1364012 C63.3103052,41.0365988 63.4960414,40.8927346 63.6154433,40.7042778 C63.7337837,40.5168827 63.7932193,40.2652531 63.7932193,39.9504506 L63.7932193,26.7797099 L63.126161,26.7797099 C62.887888,26.7797099 62.5928328,26.7850185 62.239934,26.7966975 C61.8865046,26.8078457 61.5495261,26.8333272 61.2268758,26.8715494 C60.9737439,26.9023395 60.7110598,27.0541667 60.4388236,27.3265 C60.1660567,27.5988333 59.9150475,27.9077963 59.6847347,28.252858 C59.4549525,28.5984506 59.2511733,28.9652778 59.0749893,29.3528086 C58.8982745,29.7403395 58.7756887,30.0604506 58.7067009,30.3142037 L57.9011365,30.3142037 L57.9011365,25.8814877 L72.1375506,25.8814877 L72.1375506,30.3142037 Z" id="Fill-37" fill="#FFFFFF"></path>
                    <path d="M80.6771172,35.2187519 C80.6771172,34.7898136 80.6410313,34.330616 80.5677982,33.8411593 C80.4950957,33.3517025 80.3778166,32.9424062 80.2164914,32.6132704 C80.0403074,32.2613074 79.7983196,31.9741099 79.4915896,31.7522086 C79.1848595,31.5303074 78.7895067,31.4193568 78.3065926,31.4193568 C77.5004975,31.4193568 76.8313166,31.7538012 76.2979883,32.423221 C75.7646601,33.0931716 75.4754423,34.0248383 75.4292736,35.2187519 L80.6771172,35.2187519 Z M83.2206417,39.5474185 C82.7446264,40.4530728 82.1078166,41.1750481 81.3102123,41.7117519 C80.5120773,42.2495173 79.5956018,42.5176037 78.5597245,42.5176037 C77.6464331,42.5176037 76.8467061,42.356221 76.1600129,42.0345173 C75.4733196,41.7117519 74.9070896,41.2748506 74.462384,40.7216901 C74.0171479,40.1690605 73.6854761,39.5240605 73.466838,38.787221 C73.2482,38.0509123 73.138881,37.2721346 73.138881,36.4503568 C73.138881,35.7135173 73.2556294,34.9904802 73.4896571,34.280184 C73.7236847,33.5704185 74.0670313,32.931258 74.5202276,32.3632333 C74.9575037,31.8185667 75.4998534,31.3790111 76.148338,31.0450975 C76.7968227,30.711184 77.5238472,30.5444926 78.3294117,30.5444926 C79.1583258,30.5444926 79.8673074,30.6750852 80.4584791,30.9357395 C81.0491202,31.1963938 81.5288503,31.5536654 81.8971387,32.0064926 C82.2500374,32.4364926 82.5132521,32.942937 82.6857215,33.5263568 C82.8581908,34.1092457 82.9446908,34.7430975 82.9446908,35.4257889 L82.9446908,36.1854556 L75.4292736,36.1854556 C75.4292736,36.9318506 75.4998534,37.6092333 75.6420742,38.2170728 C75.7837644,38.8243815 76.0082399,39.3589617 76.3155006,39.8208136 C76.6142706,40.2667395 77.0059086,40.6187025 77.4893534,40.8767025 C77.9722675,41.1341716 78.5480497,41.2631716 79.2156387,41.2631716 C79.8980865,41.2631716 80.4871356,41.1028506 80.9822552,40.7822086 C81.4773748,40.4626284 81.9549822,39.885579 82.4150773,39.0526531 L83.2206417,39.5474185 Z" id="Fill-39" fill="#FFFFFF"></path>
                    <path d="M91.2654601,35.9323926 C90.6132607,36.1250963 90.0417239,36.3130222 89.5508497,36.497763 C89.0594448,36.6825037 88.6030644,36.9128988 88.1811779,37.1900099 C87.7975,37.4517259 87.4944847,37.7612198 87.2721319,38.1190222 C87.0492485,38.4762938 86.9383374,38.901516 86.9383374,39.3936272 C86.9383374,40.0322568 87.1049693,40.5015407 87.4387638,40.801479 C87.7725583,41.1019481 88.1965675,41.251121 88.7107914,41.251121 C89.2552638,41.251121 89.7349939,41.1189358 90.1494509,40.8535037 C90.5633773,40.5880716 90.9125613,40.2748617 91.1964724,39.9128123 L91.2654601,35.9323926 Z M95.282138,42.0113185 C94.9212791,42.1419111 94.6049969,42.2475531 94.3327607,42.3282444 C94.0599939,42.4089358 93.7516718,42.4487506 93.4062025,42.4487506 C92.8076012,42.4487506 92.3299939,42.3086025 91.9733804,42.0283062 C91.6167669,41.7485407 91.388046,41.3397753 91.2882791,40.8025407 L91.2192914,40.8025407 C90.7209877,41.3551704 90.1855368,41.7772074 89.614,42.0686519 C89.0424632,42.3606272 88.3536472,42.506084 87.5480828,42.506084 C86.6963497,42.506084 85.9963896,42.2454296 85.4476718,41.7235901 C84.898954,41.2012198 84.6251258,40.5185284 84.6251258,39.6739235 C84.6251258,39.2364914 84.6861534,38.8452444 84.8087393,38.4996519 C84.9318558,38.1545901 85.116,37.8435037 85.3617025,37.5669235 C85.5532761,37.3370593 85.806408,37.1316148 86.1210982,36.951121 C86.4357883,36.771158 86.7308436,36.626763 87.0073252,36.5195284 C87.3527945,36.3889358 88.0522239,36.1473926 89.1077362,35.7943679 C90.1627178,35.4413432 90.8743528,35.1652938 91.2426411,34.965158 L91.2426411,33.8253926 C91.2426411,33.7255901 91.2214141,33.5339481 91.1794908,33.2499358 C91.1370368,32.9659235 91.0468221,32.6973062 90.9088466,32.444084 C90.7554816,32.1600716 90.5384356,31.9126889 90.2587699,31.7014049 C89.9780429,31.490121 89.5810982,31.3850099 89.0674049,31.3850099 C88.7145061,31.3850099 88.3865491,31.4439358 88.0830031,31.5628494 C87.7799877,31.6822938 87.5671871,31.806516 87.4446012,31.9371086 C87.4446012,32.0910593 87.4812178,32.3172074 87.5539202,32.6166148 C87.6266227,32.9160222 87.6632393,33.1920716 87.6632393,33.4458247 C87.6632393,33.7139111 87.5422454,33.9597012 87.3007883,34.1826642 C87.0588006,34.4050963 86.7234141,34.5165778 86.2935675,34.5165778 C85.9098896,34.5165778 85.6281012,34.3801457 85.4476718,34.1072815 C85.2672423,33.835479 85.1770276,33.5302321 85.1770276,33.1920716 C85.1770276,32.8390469 85.3017362,32.5014173 85.551684,32.1791827 C85.8005706,31.8564173 86.1248129,31.5692198 86.5238804,31.3154667 C86.8693497,31.1009975 87.2869908,30.9183802 87.7783957,30.7686765 C88.2692699,30.6189728 88.749,30.5446519 89.2170552,30.5446519 C89.8612945,30.5446519 90.4232791,30.5881827 90.9030092,30.676837 C91.3822086,30.7649605 91.8178926,30.9550099 92.209,31.2464543 C92.600638,31.5309975 92.897816,31.9164049 93.1010644,32.4037383 C93.3043129,32.8910716 93.4062025,33.5185531 93.4062025,34.2861827 C93.4062025,35.3840099 93.3945276,36.3565531 93.3717086,37.2043432 C93.3488896,38.0526642 93.3372147,38.9795531 93.3372147,39.9850099 C93.3372147,40.2838864 93.3892209,40.5222444 93.4927025,40.6990222 C93.596184,40.8758 93.7553865,41.0255037 93.9703098,41.1476025 C94.0849356,41.2166148 94.2674877,41.2553679 94.5169049,41.2628 C94.7663221,41.270763 95.021046,41.274479 95.282138,41.274479 L95.282138,42.0113185 Z" id="Fill-41" fill="#FFFFFF"></path>
                    <path d="M101.658143,42.517763 C100.016235,42.517763 98.7309408,41.9730963 97.8027905,40.8832321 C96.8741095,39.7933679 96.4102997,38.330837 96.4102997,36.4961704 C96.4102997,35.6982815 96.5344776,34.9518864 96.7838948,34.2569852 C97.033312,33.5626148 97.3957629,32.9314173 97.8717782,32.3633926 C98.3244439,31.8181951 98.8917353,31.3786395 99.5752445,31.0452568 C100.257692,30.7113432 101.002229,30.5446519 101.807794,30.5446519 C102.920088,30.5446519 103.825419,30.8111457 104.523787,31.3441333 C105.222156,31.8781827 105.57134,32.6054667 105.57134,33.526516 C105.57134,33.9098 105.479002,34.2495531 105.294858,34.5452444 C105.110714,34.8409358 104.807698,34.988516 104.385812,34.988516 C103.933146,34.988516 103.58184,34.8733185 103.332422,34.6439852 C103.083536,34.414121 102.958827,34.1582444 102.958827,33.874763 C102.958827,33.530763 103.004996,33.1772074 103.096803,32.8135654 C103.18861,32.4499235 103.242208,32.1844914 103.257597,32.0162074 C103.120152,31.7789111 102.915312,31.6201827 102.643606,31.5394914 C102.371901,31.4593309 102.078968,31.419516 101.76534,31.419516 C101.398113,31.419516 101.047867,31.498084 100.715134,31.6552198 C100.38187,31.8128864 100.058689,32.1022074 99.7450604,32.5247753 C99.4616801,32.9080593 99.2318979,33.4267136 99.0562445,34.0786148 C98.8805911,34.7310469 98.7924991,35.5103556 98.7924991,36.4160099 C98.7924991,37.8435037 99.1082506,39.0082198 99.7402844,39.910158 C100.372318,40.8120963 101.201763,41.2628 102.228088,41.2628 C102.971033,41.2628 103.593514,41.0817753 104.095533,40.7191951 C104.597021,40.3566148 105.062422,39.812479 105.491738,39.0873185 L106.227254,39.5704049 C105.72099,40.4760593 105.053401,41.1937877 104.224487,41.7235901 C103.396103,42.2528617 102.540656,42.517763 101.658143,42.517763" id="Fill-43" fill="#FFFFFF"></path>
                    <path d="M119.462337,42.2185148 L113.880699,42.2185148 L113.880699,41.4588481 C114.056883,41.4434531 114.252702,41.428058 114.467626,41.412663 C114.682549,41.3972679 114.858733,41.3664778 114.996709,41.3202926 C115.211632,41.2512802 115.370834,41.1307741 115.474847,40.9577123 C115.578328,40.7851815 115.629804,40.5606259 115.629804,40.2840457 L115.629804,34.4471938 C115.629804,33.641342 115.439291,33.0197 115.058798,32.581737 C114.678304,32.1448358 114.214494,31.9255889 113.668429,31.9255889 C113.268831,31.9255889 112.89789,31.9887617 112.555604,32.1156383 C112.213319,32.2425148 111.90765,32.398058 111.638598,32.581737 C111.376975,32.7739099 111.176911,32.9660827 111.038405,33.1577247 C110.900429,33.3493667 110.792702,33.5107494 110.715755,33.641342 L110.715755,40.1688481 C110.715755,40.4300333 110.76723,40.6455642 110.871242,40.8138481 C110.974724,40.982663 111.133396,41.1132556 111.34885,41.2050951 C111.517074,41.2820704 111.691666,41.3399346 111.872095,41.3781568 C112.052525,41.4169099 112.249936,41.4434531 112.464859,41.4588481 L112.464859,42.2185148 L106.90604,42.2185148 L106.90604,41.4588481 C107.081163,41.4434531 107.264245,41.4259346 107.454758,41.4068235 C107.64527,41.3877123 107.805534,41.3590457 107.935018,41.3202926 C108.14835,41.2512802 108.308083,41.1302432 108.414748,40.9577123 C108.521414,40.7846506 108.575012,40.5600951 108.575012,40.2835148 L108.575012,27.0570333 C108.575012,26.7958481 108.515577,26.534663 108.396706,26.2734778 C108.277304,26.0122926 108.122347,25.8164037 107.930242,25.686342 C107.792267,25.5865395 107.548687,25.5148728 107.199503,25.4729346 C106.850319,25.4304654 106.568531,25.4017988 106.353607,25.3864037 L106.353607,24.6495642 L110.554429,24.396342 L110.715755,24.5688728 L110.715755,32.4898975 L110.761393,32.4898975 C111.015055,32.2366753 111.245899,32.0121198 111.453393,31.8167617 C111.660887,31.6208728 111.933653,31.4154284 112.271693,31.2004284 C112.564095,31.0162185 112.907972,30.8627988 113.303325,30.7396383 C113.699209,30.6170086 114.143383,30.5554284 114.634788,30.5554284 C115.649439,30.5554284 116.429531,30.8766012 116.975064,31.5173543 C117.520598,32.1581074 117.793896,33.0812802 117.793896,34.2858111 L117.793896,40.1922062 C117.793896,40.4608235 117.841656,40.677416 117.938239,40.8425148 C118.035353,41.0081444 118.195617,41.1360827 118.419561,41.2284531 C118.596807,41.2974654 118.757601,41.3489593 118.900353,41.3834654 C119.043635,41.4179716 119.230963,41.4434531 119.462337,41.4588481 L119.462337,42.2185148 Z" id="Fill-45" fill="#FFFFFF"></path>
                    <path d="M128.370458,35.2187519 C128.370458,34.7898136 128.333841,34.330616 128.261139,33.8411593 C128.187906,33.3517025 128.070626,32.9424062 127.909832,32.6132704 C127.733648,32.2613074 127.49166,31.9741099 127.18493,31.7522086 C126.8782,31.5303074 126.482847,31.4193568 125.999933,31.4193568 C125.193838,31.4193568 124.524657,31.7538012 123.990798,32.423221 C123.458001,33.0931716 123.168252,34.0248383 123.122614,35.2187519 L128.370458,35.2187519 Z M130.913452,39.5474185 C130.437967,40.4530728 129.801157,41.1750481 129.003022,41.7117519 C128.204887,42.2495173 127.288412,42.5176037 126.252534,42.5176037 C125.339243,42.5176037 124.540047,42.356221 123.852823,42.0345173 C123.166129,41.7117519 122.60043,41.2748506 122.155725,40.7216901 C121.710488,40.1690605 121.378817,39.5240605 121.159648,38.787221 C120.94101,38.0509123 120.831691,37.2721346 120.831691,36.4503568 C120.831691,35.7135173 120.94897,34.9904802 121.182998,34.280184 C121.417025,33.5704185 121.760372,32.931258 122.213037,32.3632333 C122.650313,31.8185667 123.193194,31.3790111 123.841148,31.0450975 C124.490163,30.711184 125.216657,30.5444926 126.022752,30.5444926 C126.851136,30.5444926 127.560648,30.6750852 128.151289,30.9357395 C128.742461,31.1963938 129.22166,31.5536654 129.590479,32.0064926 C129.942847,32.4364926 130.206062,32.942937 130.378531,33.5263568 C130.551001,34.1092457 130.638031,34.7430975 130.638031,35.4257889 L130.638031,36.1854556 L123.122614,36.1854556 C123.122614,36.9318506 123.193194,37.6092333 123.335415,38.2170728 C123.477105,38.8243815 123.70158,39.3589617 124.00831,39.8208136 C124.307611,40.2667395 124.698718,40.6187025 125.182163,40.8767025 C125.665608,41.1341716 126.24086,41.2631716 126.908979,41.2631716 C127.591427,41.2631716 128.180476,41.1028506 128.675065,40.7822086 C129.170185,40.4626284 129.647792,39.885579 130.107887,39.0526531 L130.913452,39.5474185 Z" id="Fill-47" fill="#FFFFFF"></path>
                    <path d="M140.915399,32.3287802 C140.915399,32.720558 140.819347,33.0677432 140.627242,33.3703358 C140.435669,33.6739901 140.140083,33.8252864 139.741015,33.8252864 C139.311699,33.8252864 138.983742,33.7143358 138.757144,33.4919037 C138.531077,33.2689407 138.418043,33.0231506 138.418043,32.7550642 C138.418043,32.5862494 138.430779,32.4322988 138.457844,32.2942741 C138.484908,32.1557185 138.50985,32.0176938 138.533199,31.8796691 C138.17234,31.8796691 137.749923,32.0256568 137.267009,32.3171012 C136.783564,32.6090765 136.372822,33.0231506 136.035313,33.560916 L136.035313,40.1691136 C136.035313,40.4377309 136.087319,40.6564469 136.190801,40.8252617 C136.294282,40.9946074 136.457199,41.1209531 136.680083,41.2053605 C136.871656,41.2818049 137.119482,41.3396691 137.421966,41.3778914 C137.725512,41.4166444 137.987666,41.4431877 138.210549,41.4585827 L138.210549,42.2182494 L132.225598,42.2182494 L132.225598,41.4585827 C132.402313,41.4431877 132.584334,41.4277926 132.772724,41.4123975 C132.960583,41.3970025 133.1235,41.3667432 133.261475,41.320558 C133.476399,41.2515457 133.635601,41.1310395 133.739083,40.9585086 C133.843095,40.7859778 133.895101,40.5619531 133.895101,40.2859037 L133.895101,33.2822123 C133.895101,33.044916 133.83885,32.8113358 133.727939,32.5809407 C133.616497,32.3510765 133.461009,32.1668667 133.261475,32.028842 C133.11554,31.9370025 132.943601,31.8701136 132.744067,31.8281753 C132.544003,31.7857062 132.32961,31.7570395 132.099298,31.7416444 L132.099298,30.9814469 L135.873988,30.7287556 L136.035313,30.8896074 L136.035313,32.490163 L136.092626,32.490163 C136.568641,31.8679901 137.097724,31.3960519 137.680936,31.0738173 C138.264147,30.7515827 138.797475,30.5902 139.28092,30.5902 C139.764365,30.5902 140.157064,30.7478667 140.46061,31.0621383 C140.763626,31.3769407 140.915399,31.7995086 140.915399,32.3287802" id="Fill-49" fill="#FFFFFF"></path>
                    <path d="M149.374356,36.6576593 C149.689046,36.9342395 149.930503,37.2522272 150.099258,37.6132148 C150.268012,37.9742025 150.35239,38.4153506 150.35239,38.937721 C150.35239,39.9888321 149.95916,40.8483012 149.17323,41.5161284 C148.38677,42.1839556 147.367874,42.5178691 146.117074,42.5178691 C145.456914,42.5178691 144.849291,42.3989556 144.293144,42.1611284 C143.736997,41.9227704 143.339521,41.7045852 143.10231,41.5049802 L142.871997,42.2529679 L142.008589,42.2529679 L141.893433,38.3038691 L142.687322,38.3038691 C142.74888,38.6048691 142.879426,38.9552395 143.07896,39.3555111 C143.278494,39.7557827 143.519951,40.1178321 143.803862,40.4411284 C144.103163,40.7798198 144.461899,41.0654247 144.880071,41.2963506 C145.298242,41.5272765 145.76789,41.6430049 146.289543,41.6430049 C147.02665,41.6430049 147.594472,41.4752519 147.993009,41.1392148 C148.392077,40.8031778 148.59161,40.3227457 148.59161,39.6973877 C148.59161,39.3746222 148.527929,39.0969802 148.40216,38.8623383 C148.275328,38.6282272 148.089061,38.4233136 147.84389,38.2465358 C147.590227,38.069758 147.279782,37.9104988 146.911494,37.768758 C146.543206,37.6264864 146.132463,37.4863383 145.679798,37.3483136 C145.318939,37.241079 144.918279,37.0934988 144.477288,36.905042 C144.035767,36.717116 143.657926,36.4962765 143.343236,36.2430543 C143.005727,35.9749679 142.729776,35.6442395 142.514853,35.2529926 C142.30046,34.8617457 142.192733,34.4009556 142.192733,33.871684 C142.192733,32.9432025 142.537672,32.1559309 143.22861,31.5114617 C143.919018,30.8664617 144.843454,30.5442272 146.002448,30.5442272 C146.447153,30.5442272 146.901411,30.6015605 147.366282,30.716758 C147.830092,30.8319556 148.207933,30.9699802 148.499804,31.131363 L148.76461,30.5325481 L149.592994,30.5325481 L149.765994,34.1827704 L148.971043,34.1827704 C148.810779,33.3652395 148.463187,32.7005975 147.929859,32.1877827 C147.396531,31.6754988 146.746454,31.4196222 145.979098,31.4196222 C145.349718,31.4196222 144.855129,31.5778198 144.49427,31.8947457 C144.133942,32.2116716 143.953512,32.5944247 143.953512,33.0424741 C143.953512,33.3880667 144.012948,33.6757951 144.131819,33.9061901 C144.25069,34.1365852 144.428997,34.3319432 144.66727,34.4933259 C144.897583,34.6467457 145.186801,34.7906099 145.536515,34.9249185 C145.885169,35.0592272 146.316607,35.2110543 146.830831,35.3793383 C147.337095,35.540721 147.814702,35.7291778 148.263653,35.9441778 C148.712604,36.1586469 149.082485,36.3964741 149.374356,36.6576593" id="Fill-51" fill="#FFFFFF"></path>
                </g>
            </g>
        </g>
    </g>
</svg>