<?xml version="1.0" encoding="UTF-8"?>
<svg width="106px" height="46px" viewBox="0 0 106 46" version="1.1" xmlns="http://www.w3.org/2000/svg" xmlns:xlink="http://www.w3.org/1999/xlink">
    <!-- Generator: Sketch 46.2 (44496) - http://www.bohemiancoding.com/sketch -->
    <title>Combined Shape</title>
    <desc>Created with Sketch.</desc>
    <defs></defs>
    <g id="00-Homepage" stroke="none" stroke-width="1" fill="none" fill-rule="evenodd">
        <g id="00_00-Homepage" transform="translate(-608.000000, -6755.000000)" fill="#FFFFFF">
            <path d="M649.077505,6762.3727 L649.077505,6765.12744 L661.300567,6765.12744 L661.300567,6799.79284 L671.920605,6799.79284 L671.920605,6765.12744 L683.342155,6765.12744 L683.342155,6799.79284 L693.361059,6799.79284 L714,6799.79284 L714,6790.57545 L693.761815,6790.57545 L693.761815,6781.75882 L711.795841,6781.75882 L711.795841,6773.14256 L693.761815,6773.14256 L693.761815,6765.12744 L712.99811,6765.12744 L712.99811,6755.91005 L649.077505,6755.91005 L649.077505,6758.68274 C645.45164,6756.22758 641.154399,6755 636.185781,6755 C627.310036,6755 619.691687,6759.87864 619.691687,6768.45101 C619.691687,6780.67756 630.750703,6780.12964 636.886503,6783.49257 C638.389528,6784.31636 639.788423,6785.16559 639.788423,6787.60794 C639.788423,6791.68134 635.223497,6792.25013 633.565214,6792.17357 C628.917381,6791.959 625.792563,6788.9135 624.26167,6787.60794 L618.620038,6793.51498 L618.620038,6755.91005 L608,6755.91005 L608,6799.79284 L618.620038,6799.79284 L618.620038,6795.5688 C622.318387,6798.10501 629.032711,6800.25494 634.308862,6800.23001 C641.022471,6800.19828 650.617174,6796.82354 650.617174,6786.85284 C650.617174,6777.90454 643.715833,6775.33695 638.110709,6773.62168 C633.585867,6772.237 630.124184,6771.54357 630.124184,6767.44291 C630.124184,6764.64625 634.015375,6763.68499 635.710812,6763.62731 C636.606253,6763.59685 641.335388,6763.93482 644.147524,6767.44291 L649.077505,6762.3727 Z" id="Combined-Shape"></path>
        </g>
    </g>
</svg>