<svg xmlns="http://www.w3.org/2000/svg" xmlns:xlink="http://www.w3.org/1999/xlink" width="610" height="490" viewBox="0 0 610 490">
    <defs>
        <filter id="prefix__a" width="106.4%" height="112.7%" x="-3.2%" y="-5.4%" filterUnits="objectBoundingBox">
            <feOffset dy="2" in="SourceAlpha" result="shadowOffsetOuter1"/>
            <feGaussianBlur in="shadowOffsetOuter1" result="shadowBlurOuter1" stdDeviation="4"/>
            <feColorMatrix in="shadowBlurOuter1" values="0 0 0 0 0 0 0 0 0 0 0 0 0 0 0 0 0 0 0.40157889 0"/>
        </filter>
        <filter id="prefix__c" width="106.4%" height="112.7%" x="-3.2%" y="-5.4%" filterUnits="objectBoundingBox">
            <feOffset dy="2" in="SourceAlpha" result="shadowOffsetOuter1"/>
            <feGaussianBlur in="shadowOffsetOuter1" result="shadowBlurOuter1" stdDeviation="4"/>
            <feColorMatrix in="shadowBlurOuter1" values="0 0 0 0 0 0 0 0 0 0 0 0 0 0 0 0 0 0 0.40157889 0"/>
        </filter>
        <rect id="prefix__b" width="406" height="204" x="110" y="44" rx="10"/>
        <rect id="prefix__d" width="406" height="204" x="110" y="264" rx="10"/>
    </defs>
    <g fill="none" fill-rule="evenodd" transform="translate(1 1)">
        <g stroke="#83CFC3" stroke-linecap="round" stroke-linejoin="round" stroke-width="2">
            <path d="M58 31L58 0 79 0 79 15.5 58 15.5M66 116L66 89 51 89 51 116M51 58H66V70H51zM16 89H31V101H16zM85 89H100V101H85z" transform="translate(0 159)"/>
            <path d="M85.067 69.636L85.067 50.318 58 31 30.933 50.318 30.933 69.636 0 69.636 0 116 116 116 116 69.636z" transform="translate(0 159)"/>
        </g>
        <g stroke="#83CFC3" stroke-linecap="round" stroke-linejoin="round" stroke-width="2">
            <path d="M32.867 23.2h0c-6.407 0-11.6-5.193-11.6-11.6h0c0-6.407 5.193-11.6 11.6-11.6h0c6.406 0 11.6 5.193 11.6 11.6h0c0 6.407-5.194 11.6-11.6 11.6zM11.6 59.933v-17.4c0-5.338 4.328-9.666 9.667-9.666H23.2l9.667 9.666 9.666-9.666h1.934c5.338 0 9.666 4.328 9.666 9.666v17.4M0 59.933H65.733V75.4H0zM56.067 75.4L56.067 116 9.667 116 9.667 75.4" transform="translate(503 372)"/>
        </g>
        <g stroke="#83CFC3" stroke-linecap="round" stroke-linejoin="round" stroke-width="2" transform="translate(503)">
            <circle cx="17.4" cy="11.6" r="11.6"/>
            <path d="M40.6 11.6L104.4 11.6 104.4 85.067 44.467 85.067M77.333 85.067L96.667 116"/>
            <path d="M68.517 32.867H11.6c-6.407 0-11.6 5.193-11.6 11.6v65.406c-.067 3.17 2.333 5.848 5.49 6.127 1.592.085 3.148-.488 4.303-1.585 1.156-1.097 1.81-2.622 1.807-4.215V77.333h9.667v32.54c-.068 3.17 2.333 5.848 5.49 6.127 1.591.085 3.147-.488 4.303-1.585 1.156-1.097 1.809-2.622 1.807-4.215V44.467l35.596-1.696c2.555-.064 4.677-1.991 4.986-4.528.12-1.382-.346-2.75-1.283-3.773-.938-1.022-2.262-1.603-3.649-1.603zM58 11.6L58 1.933"/>
        </g>
        <use fill="#000" filter="url(#prefix__a)" xlink:href="#prefix__b"/>
        <use fill="#FFF" xlink:href="#prefix__b"/>
        <use fill="#000" filter="url(#prefix__c)" xlink:href="#prefix__d"/>
        <use fill="#FFF" xlink:href="#prefix__d"/>
        <g transform="translate(131 282)">
            <rect width="362.403" height="143.508" x=".799" y="23.689" fill="#FFF" stroke="#E0E0E0" rx="6"/>
            <path fill="#3F3F3F" fill-rule="nonzero" d="M16.085 10.065v-7.96h2.734V.859h-6.981v1.246h2.76v7.96h1.487zm6.523.152c1.424 0 2.429-.712 2.683-1.958l-1.246-.305c-.152.674-.509 1.068-1.348 1.068-.953 0-1.615-.496-1.653-1.882h4.26c.025-.305.038-.61.038-.877 0-1.704-.788-2.912-2.696-2.912-1.716 0-3.14 1.055-3.14 3.433 0 1.806.737 3.433 3.102 3.433zm1.22-4.094H21.07c.063-1.17.75-1.615 1.487-1.615.878 0 1.272.496 1.272 1.615zm4.63 4.094c.915 0 1.64-.317 2.085-.8.114.508.42.775 1.106.775.356 0 .776-.089 1.03-.216l-.05-.865c-.166.051-.28.076-.395.076-.33 0-.394-.152-.394-.508v-3.04c0-1.64-.788-2.288-2.467-2.288-1.615 0-2.403.661-2.607 1.895l1.285.228c.14-.686.407-1.017 1.208-1.017.966 0 1.144.458 1.144 1.259v.496c-.178-.013-.369-.025-.674-.025-1.767 0-3.217.559-3.217 2.263 0 .648.292 1.767 1.946 1.767zm.52-1.093c-.775 0-.978-.42-.978-.877 0-.967 1.068-1.056 1.805-1.056.331 0 .484.013.61.026v1.297c-.292.305-.838.61-1.436.61zm7.554 1.093c1.412 0 2.581-.673 2.798-2.25l-1.272-.255c-.153.916-.636 1.31-1.45 1.31-.915 0-1.627-.547-1.627-2.327 0-1.742.814-2.174 1.666-2.174s1.208.56 1.31 1.424l1.347-.19C39.19 4.202 38.16 3.35 36.71 3.35c-2.06 0-3.255 1.233-3.255 3.51 0 1.958.903 3.356 3.077 3.356zm5.62-.152V5.27c.318-.292 1.005-.7 1.666-.7.776 0 1.081.433 1.081 1.26v4.234h1.462V5.589c0-1.488-.61-2.238-2.021-2.238-.916 0-1.628.33-2.2.788V.464h-1.45v9.6h1.463zm8.698.152c1.424 0 2.429-.712 2.683-1.958l-1.246-.305c-.153.674-.509 1.068-1.348 1.068-.953 0-1.615-.496-1.653-1.882h4.26c.025-.305.038-.61.038-.877 0-1.704-.788-2.912-2.696-2.912-1.716 0-3.14 1.055-3.14 3.433 0 1.806.737 3.433 3.102 3.433zm1.22-4.094h-2.758c.063-1.17.75-1.615 1.487-1.615.878 0 1.272.496 1.272 1.615zm4.451 3.942V5.5c.547-.483 1.476-.776 2.302-.674V3.364c-.089 0-.19-.013-.267-.013-.966 0-1.628.381-2.149 1.119l-.114-.98h-1.234v6.575h1.462zm7.516 0V6.848h1.233c2.289 0 3.56-.992 3.56-3.192 0-1.462-.712-2.797-3.064-2.797h-3.204v9.206h1.475zm1.106-4.45h-1.106V2.078h1.271c1.272 0 1.984.42 1.984 1.679 0 1.577-.954 1.856-2.15 1.856zm6.536 4.45V5.5c.547-.483 1.475-.776 2.301-.674V3.364c-.089 0-.19-.013-.267-.013-.966 0-1.627.381-2.149 1.119l-.114-.98h-1.234v6.575h1.463zm6.065.152c1.424 0 2.429-.712 2.683-1.958l-1.246-.305c-.152.674-.508 1.068-1.348 1.068-.953 0-1.615-.496-1.653-1.882h4.26c.025-.305.038-.61.038-.877 0-1.704-.788-2.912-2.696-2.912-1.716 0-3.14 1.055-3.14 3.433 0 1.806.737 3.433 3.102 3.433zm1.221-4.094h-2.76c.064-1.17.75-1.615 1.488-1.615.878 0 1.272.496 1.272 1.615zm4.45 3.942V5.233c.318-.293.992-.661 1.54-.661.724 0 .902.445.902 1.22v4.273h1.462V5.55c0-.115 0-.242-.012-.344.318-.292.966-.635 1.487-.635.725 0 .916.445.916 1.22v4.273h1.462V5.576c0-1.475-.56-2.225-1.907-2.225-.89 0-1.628.356-2.2.852-.28-.61-.814-.852-1.653-.852-.865 0-1.551.343-2.149.814l-.05-.674h-1.26v6.574h1.463zm10.25-7.68c.61 0 .953-.344.953-.967 0-.61-.343-.954-.953-.954-.598 0-.954.344-.954.954 0 .623.356.966.954.966zm.724 7.68V3.49h-1.462v6.574h1.462zm3.752.14c.902 0 1.678-.344 2.25-.865l.102.725h1.272V3.49h-1.463v4.794c-.318.292-1.004.686-1.653.686-.775 0-1.03-.42-1.03-1.246V3.491h-1.462v4.488c0 1.476.61 2.226 1.984 2.226zm6.866-.14V5.233c.318-.293.992-.661 1.539-.661.725 0 .903.445.903 1.22v4.273h1.462V5.55c0-.115 0-.242-.013-.344.318-.292.967-.635 1.488-.635.725 0 .916.445.916 1.22v4.273h1.462V5.576c0-1.475-.56-2.225-1.908-2.225-.89 0-1.627.356-2.2.852-.28-.61-.813-.852-1.652-.852-.865 0-1.552.343-2.15.814l-.05-.674h-1.26v6.574h1.463zm13.682 0v-3.7h1.755l1.984 3.7h1.615l-2.2-4.082c1.017-.394 1.704-1.208 1.704-2.581 0-1.297-.712-2.543-3.001-2.543h-3.332v9.206h1.475zm1.437-4.896h-1.437V2.08h1.4c1.207 0 1.92.33 1.92 1.424 0 1.31-.802 1.666-1.883 1.666zm7.757 5.048c1.424 0 2.429-.712 2.683-1.958l-1.246-.305c-.153.674-.509 1.068-1.348 1.068-.954 0-1.615-.496-1.653-1.882h4.26c.025-.305.038-.61.038-.877 0-1.704-.788-2.912-2.696-2.912-1.716 0-3.14 1.055-3.14 3.433 0 1.806.737 3.433 3.102 3.433zm1.22-4.094h-2.759c.064-1.17.75-1.615 1.488-1.615.878 0 1.272.496 1.272 1.615zm4.413 6.638V9.58c.458.37 1.043.636 1.831.636 1.475 0 2.721-1.004 2.721-3.598 0-2.403-1.042-3.268-2.428-3.268-.865 0-1.615.292-2.2.84l-.076-.7h-1.26v9.27h1.412zm1.513-3.739c-.635 0-1.22-.381-1.475-.585V5.246c.356-.331.98-.7 1.603-.7.928 0 1.386.585 1.386 2.098 0 1.45-.407 2.378-1.514 2.378zm7.248 1.195c2.264 0 3.205-1.398 3.205-3.56 0-1.946-.865-3.306-3.04-3.306-2.174 0-3.267 1.348-3.267 3.459 0 1.958.788 3.407 3.102 3.407zm.077-1.131c-1.145 0-1.653-.725-1.653-2.327 0-1.602.648-2.226 1.69-2.226 1.03 0 1.565.56 1.565 2.2 0 1.692-.598 2.353-1.602 2.353zm6.04.979V5.5c.547-.483 1.475-.776 2.301-.674V3.364c-.089 0-.19-.013-.267-.013-.966 0-1.627.381-2.149 1.119l-.114-.98h-1.234v6.575h1.463zm5.544.152c.7 0 1.411-.241 1.742-.457l-.242-1.043c-.267.153-.724.305-1.119.305-.712 0-.877-.343-.877-.992V4.572h1.78V3.49h-1.78V1.367l-1.462.204v1.92h-1.005v1.08h1.005v3.663c0 1.399.66 1.983 1.958 1.983zm4.96 0c1.614 0 2.708-.724 2.708-2.085 0-1.5-1.208-1.767-2.34-1.97-.865-.153-1.424-.332-1.424-.942 0-.432.33-.776 1.131-.776.852 0 1.094.458 1.247 1.107l1.271-.33c-.254-1.145-.966-1.87-2.492-1.87-1.374 0-2.53.661-2.53 2.034 0 1.564 1.27 1.793 2.339 2.01.84.165 1.373.28 1.373.94 0 .56-.508.789-1.233.789-1.055 0-1.323-.547-1.488-1.17l-1.246.407c.203 1.22 1.106 1.856 2.683 1.856zM15.23 66.378v-7.02h2.365v-.871H11.84v.872h2.387v7.02h1.002zm5.623.13c1.886 0 2.649-1.198 2.649-3.04 0-1.668-.73-2.812-2.507-2.812-1.787 0-2.725 1.133-2.725 2.943 0 1.656.643 2.91 2.583 2.91zm.055-.795c-1.09 0-1.613-.676-1.613-2.158 0-1.493.665-2.082 1.657-2.082.97 0 1.515.513 1.515 2.06 0 1.592-.589 2.18-1.56 2.18zm5.003.665v-4.174c.294-.262.992-.676 1.635-.676.763 0 1.046.425 1.046 1.199v3.651h.992v-3.804c0-1.264-.523-1.918-1.722-1.918-.774 0-1.472.349-2.017.785l-.054-.665h-.872v5.602h.992zm5.864-6.681c.446 0 .708-.262.708-.72 0-.457-.262-.708-.708-.708-.447 0-.698.25-.698.708 0 .458.25.72.698.72zm.48 6.681v-5.602h-.993v5.602h.992zm5.144 0v-6.823h.021l2.344 6.823h1.046l2.387-6.812h.01v6.812h.95v-7.891h-1.505l-2.321 6.714h-.011l-2.322-6.714h-1.526v7.891h.927zm10.92.13c1.886 0 2.65-1.198 2.65-3.04 0-1.668-.731-2.812-2.508-2.812-1.787 0-2.724 1.133-2.724 2.943 0 1.656.643 2.91 2.583 2.91zm.055-.795c-1.09 0-1.613-.676-1.613-2.158 0-1.493.665-2.082 1.657-2.082.97 0 1.515.513 1.515 2.06 0 1.592-.589 2.18-1.559 2.18zm5.003.665v-4.076c.458-.425 1.286-.709 1.984-.61v-1.025c-.066 0-.142-.011-.207-.011-.785 0-1.374.262-1.864.926l-.076-.806h-.829v5.602h.992zm3.967 0v-4.076c.458-.425 1.286-.709 1.984-.61v-1.025l-.207-.011c-.785 0-1.373.262-1.864.926l-.076-.806h-.828v5.602h.991zm3.488-6.681c.447 0 .709-.262.709-.72 0-.457-.262-.708-.709-.708-.447 0-.697.25-.697.708 0 .458.25.72.697.72zm.48 6.681v-5.602h-.992v5.602h.992zm3.498.13c1.363 0 2.191-.631 2.191-1.7 0-1.253-.97-1.46-1.994-1.678-.785-.163-1.243-.327-1.243-.905 0-.425.262-.784 1.08-.784.817 0 1.035.392 1.165 1.035l.894-.196c-.174-.992-.72-1.624-2.049-1.624-1.134 0-2.07.556-2.07 1.69 0 1.307 1.1 1.503 2.016 1.689.762.152 1.22.261 1.22.883 0 .599-.49.806-1.166.806-.992 0-1.243-.48-1.395-1.079l-.883.24c.174 1.122.948 1.624 2.234 1.624zm5.766 0c1.886 0 2.649-1.198 2.649-3.04 0-1.668-.73-2.812-2.507-2.812-1.788 0-2.725 1.133-2.725 2.943 0 1.656.643 2.91 2.583 2.91zm.055-.795c-1.09 0-1.613-.676-1.613-2.158 0-1.493.664-2.082 1.656-2.082.97 0 1.515.513 1.515 2.06 0 1.592-.588 2.18-1.558 2.18zm5.002.665v-4.174c.295-.262.992-.676 1.635-.676.763 0 1.047.425 1.047 1.199v3.651h.992v-3.804c0-1.264-.524-1.918-1.723-1.918-.773 0-1.471.349-2.016.785l-.054-.665h-.872v5.602h.991zM13.104 96.351l.774-2.343h3.03l.796 2.343h1.1l-2.746-7.89H14.75l-2.66 7.89h1.014zm3.553-3.204h-2.54l1.265-3.771h.01l1.265 3.77zm4.404 3.204v-8.229h-.992v8.23h.992zm2.234-6.681c.447 0 .708-.262.708-.72 0-.457-.261-.708-.708-.708-.447 0-.698.25-.698.709 0 .457.251.719.698.719zm.48 6.681V90.75h-.992v5.602h.991zm3.945.131c1.123 0 2.114-.545 2.3-1.842l-.872-.185c-.142.828-.632 1.199-1.395 1.199-.894 0-1.57-.502-1.57-2.17 0-1.59.796-2.027 1.602-2.027.785 0 1.167.426 1.254 1.254l.948-.13c-.076-1.298-.905-1.952-2.158-1.952-1.679 0-2.681 1.025-2.681 2.976 0 1.678.72 2.877 2.572 2.877zm5.875 0c1.122 0 1.994-.534 2.223-1.624l-.872-.196c-.152.632-.523.992-1.319.992-.893 0-1.525-.447-1.57-1.875h3.772c.033-.262.044-.512.044-.73 0-1.384-.654-2.42-2.224-2.42-1.438 0-2.637.883-2.637 2.932 0 1.537.6 2.921 2.583 2.921zm1.253-3.488h-2.78c.055-1.111.775-1.558 1.516-1.558.883 0 1.264.555 1.264 1.558zm7.063 3.357l1.722-6.485h.01l1.68 6.485h1.275l1.667-7.89h-1.003l-1.297 6.8h-.01l-1.744-6.8h-1.112l-1.744 6.713h-.01l-1.352-6.714h-1.047l1.722 7.891h1.243zm8.796.131c.784 0 1.362-.25 1.798-.687.055.36.305.665.861.665.273 0 .556-.065.774-.174l-.044-.621c-.141.043-.24.065-.338.065-.283 0-.337-.13-.337-.436v-2.736c0-1.395-.622-1.929-2.006-1.929-1.297 0-1.973.49-2.147 1.537l.872.163c.12-.62.414-.926 1.188-.926.915 0 1.112.436 1.112 1.144v.545c-.153-.01-.316-.021-.49-.021-1.581 0-2.9.414-2.9 1.907 0 .545.24 1.504 1.657 1.504zm.305-.774c-.763 0-.937-.414-.937-.894 0-.959 1.035-1.035 1.809-1.035.207 0 .414.01.567.033v1.264c-.306.327-.861.632-1.44.632zm5.242.643v-8.229h-.991v8.23h.991zm2.714 0v-2.038l.861-.85 1.723 2.888h1.09l-2.082-3.586 1.94-2.016h-1.123l-2.409 2.463v-5.09h-.991v8.23h.991zm7.03.131c1.123 0 1.995-.534 2.224-1.624l-.872-.196c-.153.632-.523.992-1.319.992-.894 0-1.526-.447-1.57-1.875h3.772c.033-.262.043-.512.043-.73 0-1.384-.654-2.42-2.223-2.42-1.439 0-2.638.883-2.638 2.932 0 1.537.6 2.921 2.583 2.921zm1.254-3.488h-2.78c.055-1.111.774-1.558 1.516-1.558.882 0 1.264.555 1.264 1.558zm3.455 3.357v-4.076c.458-.425 1.286-.709 1.984-.61V90.64c-.066 0-.142-.01-.207-.01-.785 0-1.374.26-1.864.926l-.077-.807h-.828v5.602h.992zM13.104 126.324l.774-2.343h3.03l.796 2.343h1.1l-2.746-7.89H14.75l-2.66 7.89h1.014zm3.553-3.204h-2.54l1.265-3.771h.01l1.265 3.771zm5.395 5.668c1.406 0 2.878-.415 2.878-1.788 0-1.1-.676-1.384-1.831-1.46l-1.559-.11c-.6-.043-.72-.206-.72-.424 0-.23.197-.382.35-.524.283.098.632.131 1.002.131 1.286 0 2.29-.741 2.29-2.005 0-.458-.143-.905-.415-1.221.283-.087.73-.142 1.068-.12v-.796c-.163-.054-.316-.087-.49-.087-.415 0-.709.327-.883.73-.37-.37-.938-.512-1.624-.512-1.45 0-2.376.829-2.376 2.06 0 .72.316 1.297.828 1.57-.392.305-.741.621-.741 1.1 0 .404.229.622.61.774v.011c-.458.218-.904.654-.904 1.286 0 .665.425 1.385 2.517 1.385zm.077-4.992c-.992 0-1.395-.469-1.395-1.2 0-.86.632-1.198 1.416-1.198.84 0 1.352.381 1.352 1.22 0 .753-.556 1.178-1.373 1.178zm.043 4.207c-1.264 0-1.646-.316-1.646-.785 0-.37.197-.6.622-.883l1.82.11c.763.054.937.272.937.675 0 .589-.577.883-1.733.883zm5.297-1.548c.785 0 1.363-.25 1.799-.686.054.36.305.664.86.664.273 0 .557-.065.775-.174l-.044-.621c-.142.043-.24.065-.338.065-.283 0-.338-.13-.338-.436v-2.736c0-1.395-.621-1.929-2.005-1.929-1.297 0-1.973.49-2.147 1.537l.872.164c.12-.622.414-.927 1.188-.927.915 0 1.111.436 1.111 1.145v.544c-.152-.01-.316-.021-.49-.021-1.58 0-2.9.414-2.9 1.907 0 .545.24 1.504 1.657 1.504zm.305-.774c-.762 0-.937-.414-.937-.893 0-.96 1.036-1.036 1.81-1.036.207 0 .414.011.566.033v1.264c-.305.327-.86.632-1.439.632zm6.006.774c.523 0 1.1-.185 1.373-.37l-.174-.72c-.24.131-.643.273-.981.273-.676 0-.807-.327-.807-.916v-3.204h1.548v-.796h-1.548v-1.776l-.991.152v1.624h-.861v.796h.86v3.335c0 1.123.535 1.602 1.581 1.602zm3.368-.13v-4.175c.294-.262.992-.676 1.635-.676.763 0 1.046.425 1.046 1.2v3.65h.992v-3.803c0-1.265-.523-1.919-1.711-1.919-.785 0-1.428.327-1.973.752v-3.259h-.98v8.23h.99zm6.736.13c.784 0 1.362-.25 1.798-.686.055.36.305.664.861.664.273 0 .556-.065.774-.174l-.044-.621c-.141.043-.24.065-.337.065-.284 0-.338-.13-.338-.436v-2.736c0-1.395-.622-1.929-2.006-1.929-1.297 0-1.973.49-2.147 1.537l.872.164c.12-.622.414-.927 1.188-.927.916 0 1.112.436 1.112 1.145v.544c-.153-.01-.316-.021-.49-.021-1.581 0-2.9.414-2.9 1.907 0 .545.24 1.504 1.657 1.504zm.305-.774c-.763 0-.937-.414-.937-.893 0-.96 1.035-1.036 1.809-1.036.207 0 .414.011.567.033v1.264c-.306.327-.861.632-1.44.632zm9.711.774c1.384 0 2.812-.588 3.085-2.332l-.905-.186c-.25 1.112-.861 1.657-2.114 1.657-1.58 0-2.496-.915-2.496-3.182 0-2.17.991-3.248 2.626-3.248 1.297 0 1.853.643 2.006 1.874l.937-.098c-.12-1.842-1.275-2.648-2.932-2.648-2.245 0-3.673 1.547-3.673 4.207 0 2.365.992 3.956 3.466 3.956zm5.406-.13v-4.175c.295-.262.992-.676 1.635-.676.763 0 1.046.425 1.046 1.2v3.65h.992v-3.803c0-1.265-.523-1.919-1.71-1.919-.786 0-1.429.327-1.974.752v-3.259h-.98v8.23h.991zm6.344 0v-4.077c.457-.425 1.286-.708 1.983-.61v-1.025l-.207-.01c-.784 0-1.373.26-1.864.926l-.076-.807h-.828v5.602h.992zm3.487-6.682c.447 0 .709-.261.709-.72 0-.457-.262-.708-.709-.708-.446 0-.697.251-.697.709 0 .458.25.72.697.72zm.48 6.681v-5.602h-.992v5.602h.992zm3.499.131c1.362 0 2.19-.632 2.19-1.7 0-1.254-.97-1.46-1.994-1.679-.785-.163-1.243-.327-1.243-.904 0-.425.262-.785 1.08-.785.817 0 1.035.392 1.166 1.035l.893-.196c-.174-.992-.719-1.624-2.049-1.624-1.133 0-2.07.556-2.07 1.69 0 1.308 1.1 1.504 2.016 1.689.763.153 1.22.262 1.22.883 0 .6-.49.806-1.166.806-.992 0-1.242-.48-1.395-1.079l-.883.24c.175 1.123.949 1.624 2.235 1.624zm5.286 0c.523 0 1.1-.185 1.373-.37l-.174-.72c-.24.131-.643.273-.981.273-.676 0-.807-.327-.807-.916v-3.204h1.548v-.796h-1.548v-1.776l-.992.152v1.624h-.86v.796h.86v3.335c0 1.123.535 1.602 1.58 1.602zm2.888-6.812c.447 0 .709-.261.709-.72 0-.457-.262-.708-.709-.708-.447 0-.697.251-.697.709 0 .458.25.72.697.72zm.48 6.681v-5.602h-.992v5.602h.992zm3.956.131c1.123 0 1.995-.534 2.224-1.624l-.872-.196c-.153.632-.523.992-1.32.992-.893 0-1.525-.447-1.569-1.875h3.772c.032-.261.043-.512.043-.73 0-1.384-.654-2.42-2.223-2.42-1.439 0-2.638.883-2.638 2.932 0 1.537.6 2.921 2.583 2.921zm1.254-3.488H84.2c.055-1.111.774-1.558 1.515-1.558.883 0 1.265.556 1.265 1.558zM14.99 156.298c2.823 0 4.098-1.646 4.098-4.066 0-2.354-1.177-3.826-3.913-3.826h-2.43v7.892h2.245zm.01-.85h-1.253v-6.191h1.34c1.875 0 2.965.719 2.965 3.117 0 1.929-.992 3.073-3.052 3.073zm6.9.98c.785 0 1.362-.25 1.798-.686.055.36.305.665.861.665.273 0 .556-.066.774-.175l-.044-.621c-.141.043-.24.065-.337.065-.284 0-.338-.13-.338-.436v-2.735c0-1.396-.622-1.93-2.006-1.93-1.297 0-1.973.49-2.147 1.537l.872.164c.12-.622.414-.927 1.188-.927.916 0 1.112.436 1.112 1.145v.545c-.153-.011-.316-.022-.49-.022-1.581 0-2.9.414-2.9 1.907 0 .545.24 1.504 1.657 1.504zm.305-.774c-.763 0-.937-.414-.937-.893 0-.96 1.035-1.036 1.809-1.036.207 0 .414.011.567.033v1.264c-.306.327-.861.632-1.44.632zm5.243.644v-4.175c.294-.261.991-.676 1.634-.676.763 0 1.047.425 1.047 1.2v3.65h.992v-3.803c0-1.265-.524-1.919-1.723-1.919-.773 0-1.47.35-2.016.785l-.054-.665h-.872v5.603h.992zm7.585.13c1.123 0 1.995-.534 2.224-1.624l-.872-.196c-.153.632-.523.992-1.319.992-.894 0-1.526-.447-1.57-1.875h3.772c.033-.261.043-.512.043-.73 0-1.384-.654-2.42-2.223-2.42-1.439 0-2.638.883-2.638 2.932 0 1.537.6 2.921 2.583 2.921zm1.254-3.487h-2.78c.055-1.112.774-1.56 1.516-1.56.882 0 1.264.557 1.264 1.56zm6.31 3.357v-.796h-3.27l3.14-4.087v-.72h-4.218v.796h3.095l-3.139 4.13v.677h4.393zm5.723.13c1.46 0 2.79-.654 2.79-2.321 0-1.526-1.253-1.897-2.409-2.235-.98-.294-1.885-.566-1.885-1.525 0-.698.436-1.232 1.645-1.232 1.221 0 1.526.73 1.646 1.482l.938-.109c-.164-1.69-1.21-2.223-2.594-2.223-1.526 0-2.66.828-2.66 2.18 0 1.624 1.275 1.961 2.442 2.288.97.273 1.852.535 1.852 1.515 0 1.047-.904 1.33-1.754 1.33-1.352 0-1.744-.73-1.93-1.57l-.959.142c.207 1.624 1.232 2.278 2.878 2.278zm5.112-.13v-4.186c.294-.272.98-.665 1.547-.665.72 0 .872.425.872 1.177v3.674h.992v-3.815c0-.142-.01-.284-.022-.414.327-.273.97-.622 1.504-.622.72 0 .872.425.872 1.177v3.674h.992v-3.815c0-1.254-.414-1.908-1.591-1.908-.763 0-1.395.338-1.94.774-.218-.523-.665-.774-1.406-.774-.763 0-1.352.327-1.908.752l-.054-.632h-.85v5.603h.992zm8.959-6.682c.447 0 .708-.261.708-.72 0-.457-.261-.708-.708-.708-.447 0-.698.251-.698.709 0 .458.25.72.698.72zm.48 6.682v-5.603h-.993v5.603h.992zm3.476.13c.523 0 1.101-.185 1.374-.37l-.175-.72c-.24.131-.643.273-.98.273-.677 0-.807-.327-.807-.916v-3.204h1.547v-.796H65.76v-1.776l-.992.152v1.624h-.861v.796h.86v3.335c0 1.123.535 1.602 1.581 1.602zm3.368-.13v-4.175c.294-.261.992-.676 1.635-.676.763 0 1.046.425 1.046 1.2v3.65h.992v-3.803c0-1.265-.523-1.919-1.711-1.919-.785 0-1.428.327-1.973.752v-3.258h-.98v8.229h.991zM129.927 66.378v-.883h-3.554v-7.008h-1.002v7.891h4.556zm1.809-6.681c.447 0 .708-.262.708-.72 0-.457-.261-.708-.708-.708-.447 0-.698.25-.698.708 0 .458.251.72.698.72zm.48 6.681v-5.602h-.992v5.602h.991zm2.713 0v-4.174c.295-.262.992-.676 1.635-.676.763 0 1.047.425 1.047 1.199v3.651h.992v-3.804c0-1.264-.524-1.918-1.723-1.918-.773 0-1.471.349-2.016.785l-.054-.665h-.872v5.602h.991zm7.575.13c1.123 0 2.115-.544 2.3-1.841l-.872-.185c-.141.828-.632 1.199-1.395 1.199-.894 0-1.57-.502-1.57-2.17 0-1.59.796-2.027 1.603-2.027.785 0 1.166.425 1.253 1.254l.949-.131c-.077-1.297-.905-1.951-2.159-1.951-1.678 0-2.68 1.024-2.68 2.975 0 1.679.719 2.878 2.571 2.878zm5.875 0c1.886 0 2.649-1.198 2.649-3.04 0-1.668-.73-2.812-2.507-2.812-1.788 0-2.725 1.133-2.725 2.943 0 1.656.643 2.91 2.583 2.91zm.055-.795c-1.09 0-1.613-.676-1.613-2.158 0-1.493.664-2.082 1.656-2.082.97 0 1.515.513 1.515 2.06 0 1.592-.588 2.18-1.558 2.18zm5.002.665V58.15h-.991v8.23h.991zm2.714 0v-4.174c.295-.262.992-.676 1.635-.676.763 0 1.047.425 1.047 1.199v3.651h.991v-3.804c0-1.264-.523-1.918-1.722-1.918-.773 0-1.471.349-2.016.785l-.054-.665h-.872v5.602h.991zm8.774 0v-6.823h.022l2.344 6.823h1.046l2.387-6.812h.01v6.812h.949v-7.891h-1.504l-2.322 6.714h-.01l-2.322-6.714h-1.526v7.891h.926zm9.2-6.681c.446 0 .708-.262.708-.72 0-.457-.262-.708-.709-.708-.446 0-.697.25-.697.708 0 .458.25.72.697.72zm.479 6.681v-5.602h-.992v5.602h.992zm3.52.13c.807 0 1.374-.304 1.853-.74l.011.01.077.6h.828V58.15h-.97v3.03c-.393-.316-.927-.523-1.57-.523-1.242 0-2.365.796-2.365 3.008 0 2.038.861 2.845 2.136 2.845zm.295-.827c-.981 0-1.406-.654-1.406-2.017 0-1.297.392-2.158 1.471-2.158.643 0 1.166.294 1.428.49v2.998c-.349.349-.916.687-1.493.687zm5.994.828c.807 0 1.374-.305 1.853-.741l.011.01.076.6h.829V58.15h-.97v3.03c-.393-.316-.927-.523-1.57-.523-1.242 0-2.365.796-2.365 3.008 0 2.038.861 2.845 2.136 2.845zm.295-.828c-.981 0-1.406-.654-1.406-2.017 0-1.297.392-2.158 1.471-2.158.643 0 1.166.294 1.428.49v2.998c-.349.349-.916.687-1.493.687zm5.188.697V58.15h-.992v8.23h.992zm3.956.13c1.123 0 1.995-.533 2.224-1.623l-.872-.196c-.153.632-.523.992-1.32.992-.893 0-1.525-.447-1.569-1.875h3.772c.032-.262.043-.512.043-.73 0-1.385-.654-2.42-2.223-2.42-1.439 0-2.638.883-2.638 2.932 0 1.537.6 2.92 2.583 2.92zm1.254-3.487h-2.78c.055-1.112.774-1.559 1.515-1.559.883 0 1.265.556 1.265 1.56zm7.03 3.488c1.46 0 2.79-.654 2.79-2.322 0-1.526-1.254-1.896-2.409-2.234-.98-.294-1.885-.567-1.885-1.526 0-.698.436-1.232 1.645-1.232 1.221 0 1.526.73 1.646 1.483l.938-.11c-.164-1.689-1.21-2.223-2.595-2.223-1.525 0-2.659.829-2.659 2.18 0 1.624 1.275 1.962 2.441 2.289.97.272 1.853.534 1.853 1.515 0 1.046-.904 1.33-1.754 1.33-1.352 0-1.744-.73-1.93-1.57l-.959.142c.207 1.624 1.232 2.278 2.878 2.278zm6.343 0c1.123 0 2.115-.545 2.3-1.842l-.872-.185c-.142.828-.632 1.199-1.395 1.199-.894 0-1.57-.502-1.57-2.17 0-1.59.796-2.027 1.602-2.027.785 0 1.167.425 1.254 1.254l.948-.131c-.076-1.297-.904-1.951-2.158-1.951-1.678 0-2.681 1.024-2.681 2.975 0 1.679.72 2.878 2.572 2.878zm4.632-.13v-4.175c.295-.262.992-.676 1.635-.676.763 0 1.047.425 1.047 1.199v3.651h.991v-3.804c0-1.264-.523-1.918-1.71-1.918-.786 0-1.429.327-1.974.752v-3.259h-.98v8.23h.991zm7.586.13c1.886 0 2.649-1.2 2.649-3.041 0-1.668-.73-2.812-2.507-2.812-1.788 0-2.725 1.133-2.725 2.943 0 1.656.643 2.91 2.583 2.91zm.055-.796c-1.09 0-1.613-.676-1.613-2.158 0-1.493.665-2.082 1.656-2.082.97 0 1.515.513 1.515 2.06 0 1.592-.588 2.18-1.558 2.18zm6.245.796c1.886 0 2.649-1.2 2.649-3.041 0-1.668-.73-2.812-2.507-2.812-1.788 0-2.725 1.133-2.725 2.943 0 1.656.643 2.91 2.583 2.91zm.055-.796c-1.09 0-1.614-.676-1.614-2.158 0-1.493.665-2.082 1.657-2.082.97 0 1.515.513 1.515 2.06 0 1.592-.588 2.18-1.558 2.18zm5.002.665V58.15h-.991v8.23h.991zM129.927 96.351v-.883h-3.554V88.46h-1.002v7.891h4.556zm1.809-6.681c.447 0 .708-.262.708-.72 0-.457-.261-.708-.708-.708-.447 0-.698.25-.698.709 0 .457.251.719.698.719zm.48 6.681V90.75h-.992v5.602h.991zm2.713 0v-4.174c.295-.262.992-.676 1.635-.676.763 0 1.047.425 1.047 1.199v3.651h.992v-3.804c0-1.264-.524-1.918-1.723-1.918-.773 0-1.471.349-2.016.785l-.054-.665h-.872v5.602h.991zm7.575.131c1.123 0 2.115-.545 2.3-1.842l-.872-.185c-.141.828-.632 1.199-1.395 1.199-.894 0-1.57-.502-1.57-2.17 0-1.59.796-2.027 1.603-2.027.785 0 1.166.426 1.253 1.254l.949-.13c-.077-1.298-.905-1.952-2.159-1.952-1.678 0-2.68 1.025-2.68 2.976 0 1.678.719 2.877 2.571 2.877zm5.875 0c1.886 0 2.649-1.199 2.649-3.04 0-1.668-.73-2.813-2.507-2.813-1.788 0-2.725 1.134-2.725 2.943 0 1.657.643 2.91 2.583 2.91zm.055-.796c-1.09 0-1.613-.675-1.613-2.158 0-1.493.664-2.081 1.656-2.081.97 0 1.515.512 1.515 2.06 0 1.59-.588 2.18-1.558 2.18zm5.002.665v-8.229h-.991v8.23h.991zm2.714 0v-4.174c.295-.262.992-.676 1.635-.676.763 0 1.047.425 1.047 1.199v3.651h.991v-3.804c0-1.264-.523-1.918-1.722-1.918-.773 0-1.471.349-2.016.785l-.054-.665h-.872v5.602h.991zm8.774 0v-6.823h.022l2.344 6.823h1.046l2.387-6.812h.01v6.812h.949v-7.89h-1.504l-2.322 6.713h-.01l-2.322-6.714h-1.526v7.891h.926zm9.2-6.681c.446 0 .708-.262.708-.72 0-.457-.262-.708-.709-.708-.446 0-.697.25-.697.709 0 .457.25.719.697.719zm.479 6.681V90.75h-.992v5.602h.992zm3.52.131c.807 0 1.374-.305 1.853-.741l.011.01.077.6h.828v-8.229h-.97v3.03c-.393-.316-.927-.523-1.57-.523-1.242 0-2.365.796-2.365 3.008 0 2.038.861 2.845 2.136 2.845zm.295-.828c-.981 0-1.406-.654-1.406-2.017 0-1.297.392-2.158 1.471-2.158.643 0 1.166.295 1.428.49v2.998c-.349.349-.916.687-1.493.687zm5.994.828c.807 0 1.374-.305 1.853-.741l.011.01.076.6h.829v-8.229h-.97v3.03c-.393-.316-.927-.523-1.57-.523-1.242 0-2.365.796-2.365 3.008 0 2.038.861 2.845 2.136 2.845zm.295-.828c-.981 0-1.406-.654-1.406-2.017 0-1.297.392-2.158 1.471-2.158.643 0 1.166.295 1.428.49v2.998c-.349.349-.916.687-1.493.687zm5.188.697v-8.229h-.992v8.23h.992zm3.956.131c1.123 0 1.995-.534 2.224-1.624l-.872-.196c-.153.632-.523.992-1.32.992-.893 0-1.525-.447-1.569-1.875h3.772c.032-.262.043-.512.043-.73 0-1.384-.654-2.42-2.223-2.42-1.439 0-2.638.883-2.638 2.932 0 1.537.6 2.921 2.583 2.921zm1.254-3.488h-2.78c.055-1.111.774-1.558 1.515-1.558.883 0 1.265.555 1.265 1.558zm7.03 3.488c1.46 0 2.79-.654 2.79-2.322 0-1.525-1.254-1.896-2.409-2.234-.98-.294-1.885-.567-1.885-1.526 0-.697.436-1.231 1.645-1.231 1.221 0 1.526.73 1.646 1.482l.938-.11c-.164-1.689-1.21-2.223-2.595-2.223-1.525 0-2.659.829-2.659 2.18 0 1.624 1.275 1.962 2.441 2.29.97.272 1.853.533 1.853 1.514 0 1.046-.904 1.33-1.754 1.33-1.352 0-1.744-.73-1.93-1.57l-.959.142c.207 1.624 1.232 2.278 2.878 2.278zm6.343 0c1.123 0 2.115-.545 2.3-1.842l-.872-.185c-.142.828-.632 1.199-1.395 1.199-.894 0-1.57-.502-1.57-2.17 0-1.59.796-2.027 1.602-2.027.785 0 1.167.426 1.254 1.254l.948-.13c-.076-1.298-.904-1.952-2.158-1.952-1.678 0-2.681 1.025-2.681 2.976 0 1.678.72 2.877 2.572 2.877zm4.632-.13v-4.175c.295-.262.992-.676 1.635-.676.763 0 1.047.425 1.047 1.199v3.651h.991v-3.804c0-1.264-.523-1.918-1.71-1.918-.786 0-1.429.327-1.974.752v-3.259h-.98v8.23h.991zm7.586.13c1.886 0 2.649-1.199 2.649-3.04 0-1.668-.73-2.813-2.507-2.813-1.788 0-2.725 1.134-2.725 2.943 0 1.657.643 2.91 2.583 2.91zm.055-.796c-1.09 0-1.613-.675-1.613-2.158 0-1.493.665-2.081 1.656-2.081.97 0 1.515.512 1.515 2.06 0 1.59-.588 2.18-1.558 2.18zm6.245.796c1.886 0 2.649-1.199 2.649-3.04 0-1.668-.73-2.813-2.507-2.813-1.788 0-2.725 1.134-2.725 2.943 0 1.657.643 2.91 2.583 2.91zm.055-.796c-1.09 0-1.614-.675-1.614-2.158 0-1.493.665-2.081 1.657-2.081.97 0 1.515.512 1.515 2.06 0 1.59-.588 2.18-1.558 2.18zm5.002.665v-8.229h-.991v8.23h.991zM128.335 126.455c1.385 0 2.812-.588 3.085-2.332l-.905-.186c-.25 1.112-.86 1.657-2.114 1.657-1.58 0-2.496-.915-2.496-3.182 0-2.17.992-3.248 2.627-3.248 1.297 0 1.852.643 2.005 1.874l.937-.098c-.12-1.842-1.275-2.648-2.932-2.648-2.245 0-3.673 1.547-3.673 4.207 0 2.365.992 3.956 3.466 3.956zm6.649 0c1.123 0 1.995-.534 2.223-1.624l-.872-.196c-.152.632-.523.992-1.318.992-.894 0-1.526-.447-1.57-1.875h3.771c.033-.261.044-.512.044-.73 0-1.384-.654-2.42-2.224-2.42-1.438 0-2.637.883-2.637 2.932 0 1.537.6 2.921 2.583 2.921zm1.253-3.488h-2.779c.055-1.111.774-1.558 1.515-1.558.883 0 1.264.556 1.264 1.558zm3.455 3.357v-4.174c.295-.262.992-.676 1.635-.676.763 0 1.047.425 1.047 1.2v3.65h.992v-3.803c0-1.265-.524-1.919-1.723-1.919-.773 0-1.471.349-2.016.785l-.054-.665h-.872v5.602h.991zm7.107.131c.523 0 1.1-.185 1.373-.37l-.174-.72c-.24.131-.643.273-.981.273-.676 0-.807-.327-.807-.916v-3.204h1.548v-.796h-1.548v-1.776l-.992.152v1.624h-.86v.796h.86v3.335c0 1.123.534 1.602 1.58 1.602zm3.368-.13v-4.077c.457-.425 1.286-.708 1.983-.61v-1.025l-.207-.01c-.784 0-1.373.26-1.864.926l-.076-.807h-.828v5.602h.992zm4.36.13c.784 0 1.362-.25 1.798-.686.054.36.305.664.86.664.273 0 .557-.065.775-.174l-.044-.621c-.142.043-.24.065-.338.065-.283 0-.338-.13-.338-.436v-2.736c0-1.395-.62-1.929-2.005-1.929-1.297 0-1.973.49-2.147 1.537l.872.164c.12-.622.414-.927 1.188-.927.915 0 1.111.436 1.111 1.145v.544c-.152-.01-.316-.021-.49-.021-1.58 0-2.9.414-2.9 1.907 0 .545.24 1.504 1.657 1.504zm.305-.774c-.763 0-.938-.414-.938-.893 0-.96 1.036-1.036 1.81-1.036.207 0 .414.011.566.033v1.264c-.305.327-.86.632-1.438.632zm5.242.643v-8.229h-.992v8.23h.992zm5.221 0v-3.575h3.837v3.575h1.002v-7.89h-1.002v3.41h-3.837v-3.41h-1.003v7.89h1.003zm7.28-6.68c.448 0 .71-.262.71-.72 0-.458-.262-.709-.71-.709-.446 0-.697.251-.697.709 0 .458.25.72.698.72zm.48 6.68v-5.602h-.992v5.602h.992zm3.706 2.464c1.406 0 2.877-.415 2.877-1.788 0-1.1-.675-1.384-1.83-1.46l-1.56-.11c-.599-.043-.719-.206-.719-.424 0-.23.197-.382.35-.524.283.098.631.131 1.002.131 1.286 0 2.289-.741 2.289-2.005 0-.458-.142-.905-.414-1.221.283-.087.73-.142 1.068-.12v-.796c-.164-.054-.316-.087-.49-.087-.415 0-.71.327-.884.73-.37-.37-.937-.512-1.624-.512-1.45 0-2.376.829-2.376 2.06 0 .72.316 1.297.829 1.57-.393.305-.741.621-.741 1.1 0 .404.228.622.61.774v.011c-.458.218-.905.654-.905 1.286 0 .665.425 1.385 2.518 1.385zm.076-4.992c-.991 0-1.395-.469-1.395-1.2 0-.86.632-1.198 1.417-1.198.84 0 1.352.381 1.352 1.22 0 .753-.556 1.178-1.374 1.178zm.044 4.207c-1.264 0-1.646-.316-1.646-.785 0-.37.196-.6.621-.883l1.82.11c.764.054.938.272.938.675 0 .589-.578.883-1.733.883zm4.905-1.679v-4.174c.294-.262.991-.676 1.635-.676.762 0 1.046.425 1.046 1.2v3.65h.992v-3.803c0-1.265-.523-1.919-1.711-1.919-.785 0-1.428.327-1.973.752v-3.259h-.981v8.23h.992zm9.918.131c1.46 0 2.79-.654 2.79-2.321 0-1.526-1.253-1.897-2.408-2.235-.981-.294-1.886-.567-1.886-1.526 0-.697.436-1.231 1.646-1.231 1.22 0 1.526.73 1.646 1.482l.937-.109c-.164-1.69-1.21-2.223-2.594-2.223-1.526 0-2.66.828-2.66 2.18 0 1.623 1.276 1.961 2.442 2.288.97.273 1.853.534 1.853 1.515 0 1.047-.905 1.33-1.755 1.33-1.352 0-1.744-.73-1.93-1.57l-.958.142c.207 1.624 1.231 2.278 2.877 2.278zm6.343 0c1.123 0 2.115-.545 2.3-1.842l-.872-.185c-.141.828-.632 1.199-1.395 1.199-.894 0-1.57-.502-1.57-2.17 0-1.59.796-2.026 1.603-2.026.785 0 1.166.425 1.253 1.253l.949-.13c-.077-1.298-.905-1.952-2.159-1.952-1.678 0-2.68 1.025-2.68 2.976 0 1.678.719 2.877 2.571 2.877zm4.633-.13v-4.175c.294-.262.991-.676 1.635-.676.763 0 1.046.425 1.046 1.2v3.65h.992v-3.803c0-1.265-.523-1.919-1.711-1.919-.785 0-1.428.327-1.973.752v-3.259h-.981v8.23h.992zm7.586.13c1.885 0 2.648-1.199 2.648-3.04 0-1.668-.73-2.813-2.507-2.813-1.787 0-2.725 1.134-2.725 2.943 0 1.657.644 2.91 2.584 2.91zm.054-.795c-1.09 0-1.613-.676-1.613-2.159 0-1.493.665-2.081 1.657-2.081.97 0 1.515.512 1.515 2.06 0 1.591-.589 2.18-1.559 2.18zm6.245.795c1.886 0 2.649-1.199 2.649-3.04 0-1.668-.73-2.813-2.507-2.813-1.787 0-2.725 1.134-2.725 2.943 0 1.657.643 2.91 2.583 2.91zm.055-.795c-1.09 0-1.613-.676-1.613-2.159 0-1.493.665-2.081 1.656-2.081.97 0 1.516.512 1.516 2.06 0 1.591-.59 2.18-1.56 2.18zm5.003.664v-8.229h-.992v8.23h.992zM128.335 156.428c1.385 0 2.812-.588 3.085-2.332l-.905-.185c-.25 1.111-.86 1.656-2.114 1.656-1.58 0-2.496-.915-2.496-3.182 0-2.17.992-3.248 2.627-3.248 1.297 0 1.852.643 2.005 1.874l.937-.098c-.12-1.842-1.275-2.648-2.932-2.648-2.245 0-3.673 1.547-3.673 4.207 0 2.365.992 3.956 3.466 3.956zm6.649 0c1.123 0 1.995-.534 2.223-1.624l-.872-.196c-.152.632-.523.992-1.318.992-.894 0-1.526-.447-1.57-1.875h3.771c.033-.261.044-.512.044-.73 0-1.384-.654-2.42-2.224-2.42-1.438 0-2.637.883-2.637 2.932 0 1.537.6 2.921 2.583 2.921zm1.253-3.487h-2.779c.055-1.112.774-1.56 1.515-1.56.883 0 1.264.557 1.264 1.56zm3.455 3.357v-4.175c.295-.261.992-.676 1.635-.676.763 0 1.047.425 1.047 1.2v3.65h.992v-3.803c0-1.265-.524-1.919-1.723-1.919-.773 0-1.471.35-2.016.785l-.054-.665h-.872v5.603h.991zm7.107.13c.523 0 1.1-.185 1.373-.37l-.174-.72c-.24.131-.643.273-.981.273-.676 0-.807-.327-.807-.916v-3.204h1.548v-.796h-1.548v-1.776l-.992.152v1.624h-.86v.796h.86v3.335c0 1.123.534 1.602 1.58 1.602zm3.368-.13v-4.077c.457-.425 1.286-.708 1.983-.61v-1.025l-.207-.01c-.784 0-1.373.261-1.864.926l-.076-.807h-.828v5.603h.992zm4.36.13c.784 0 1.362-.25 1.798-.686.054.36.305.665.86.665.273 0 .557-.066.775-.175l-.044-.621c-.142.043-.24.065-.338.065-.283 0-.338-.13-.338-.436v-2.735c0-1.396-.62-1.93-2.005-1.93-1.297 0-1.973.49-2.147 1.537l.872.164c.12-.622.414-.927 1.188-.927.915 0 1.111.436 1.111 1.145v.545c-.152-.011-.316-.022-.49-.022-1.58 0-2.9.414-2.9 1.907 0 .545.24 1.504 1.657 1.504zm.305-.774c-.763 0-.938-.414-.938-.893 0-.96 1.036-1.036 1.81-1.036.207 0 .414.011.566.033v1.264c-.305.327-.86.632-1.438.632zm5.242.644v-8.23h-.992v8.23h.992zm5.221 0v-3.575h3.837v3.575h1.002v-7.892h-1.002v3.412h-3.837v-3.412h-1.003v7.892h1.003zm7.28-6.682c.448 0 .71-.261.71-.72 0-.457-.262-.708-.71-.708-.446 0-.697.251-.697.709 0 .458.25.72.698.72zm.48 6.682v-5.603h-.992v5.603h.992zm3.706 2.463c1.406 0 2.877-.414 2.877-1.788 0-1.1-.675-1.384-1.83-1.46l-1.56-.11c-.599-.043-.719-.206-.719-.424 0-.23.197-.382.35-.523.283.098.631.13 1.002.13 1.286 0 2.289-.74 2.289-2.005 0-.458-.142-.905-.414-1.22.283-.088.73-.143 1.068-.12v-.796c-.164-.055-.316-.088-.49-.088-.415 0-.71.327-.884.73-.37-.37-.937-.512-1.624-.512-1.45 0-2.376.829-2.376 2.06 0 .72.316 1.297.829 1.57-.393.305-.741.621-.741 1.1 0 .404.228.622.61.775v.01c-.458.218-.905.654-.905 1.287 0 .664.425 1.384 2.518 1.384zm.076-4.992c-.991 0-1.395-.469-1.395-1.199 0-.861.632-1.199 1.417-1.199.84 0 1.352.382 1.352 1.22 0 .753-.556 1.178-1.374 1.178zm.044 4.207c-1.264 0-1.646-.316-1.646-.785 0-.37.196-.6.621-.883l1.82.11c.764.054.938.272.938.675 0 .589-.578.883-1.733.883zm4.905-1.678v-4.175c.294-.261.991-.676 1.635-.676.762 0 1.046.425 1.046 1.2v3.65h.992v-3.803c0-1.265-.523-1.919-1.711-1.919-.785 0-1.428.327-1.973.752v-3.258h-.981v8.229h.992zm9.918.13c1.46 0 2.79-.654 2.79-2.321 0-1.526-1.253-1.897-2.408-2.235-.981-.294-1.886-.566-1.886-1.525 0-.698.436-1.232 1.646-1.232 1.22 0 1.526.73 1.646 1.482l.937-.109c-.164-1.69-1.21-2.223-2.594-2.223-1.526 0-2.66.828-2.66 2.18 0 1.624 1.276 1.961 2.442 2.288.97.273 1.853.535 1.853 1.515 0 1.047-.905 1.33-1.755 1.33-1.352 0-1.744-.73-1.93-1.57l-.958.142c.207 1.624 1.231 2.278 2.877 2.278zm6.343 0c1.123 0 2.115-.545 2.3-1.842l-.872-.185c-.141.828-.632 1.199-1.395 1.199-.894 0-1.57-.501-1.57-2.169 0-1.591.796-2.027 1.603-2.027.785 0 1.166.425 1.253 1.253l.949-.13c-.077-1.298-.905-1.952-2.159-1.952-1.678 0-2.68 1.025-2.68 2.976 0 1.678.719 2.877 2.571 2.877zm4.633-.13v-4.175c.294-.261.991-.676 1.635-.676.763 0 1.046.425 1.046 1.2v3.65h.992v-3.803c0-1.265-.523-1.919-1.711-1.919-.785 0-1.428.327-1.973.752v-3.258h-.981v8.229h.992zm7.586.13c1.885 0 2.648-1.199 2.648-3.04 0-1.668-.73-2.813-2.507-2.813-1.787 0-2.725 1.134-2.725 2.943 0 1.657.644 2.91 2.584 2.91zm.054-.795c-1.09 0-1.613-.676-1.613-2.158 0-1.494.665-2.082 1.657-2.082.97 0 1.515.512 1.515 2.06 0 1.591-.589 2.18-1.559 2.18zm6.245.795c1.886 0 2.649-1.199 2.649-3.04 0-1.668-.73-2.813-2.507-2.813-1.787 0-2.725 1.134-2.725 2.943 0 1.657.643 2.91 2.583 2.91zm.055-.795c-1.09 0-1.613-.676-1.613-2.158 0-1.494.665-2.082 1.656-2.082.97 0 1.516.512 1.516 2.06 0 1.591-.59 2.18-1.56 2.18zm5.003.665v-8.23h-.992v8.23h.992z"/>
            <path fill="#06806B" fill-rule="nonzero" d="M291.593 65.47l2.528-7.891h-1.024l-2.158 6.92h-.011l-2.234-6.92h-1.123l2.66 7.89h1.362zm4.033-6.681c.446 0 .708-.262.708-.72 0-.458-.262-.708-.708-.708-.447 0-.698.25-.698.708 0 .458.25.72.698.72zm.48 6.68v-5.601h-.993v5.602h.992zm3.956.132c1.122 0 1.994-.534 2.223-1.624l-.872-.197c-.153.633-.523.992-1.319.992-.894 0-1.526-.447-1.57-1.874h3.772c.033-.262.043-.513.043-.73 0-1.385-.653-2.42-2.223-2.42-1.439 0-2.638.882-2.638 2.932 0 1.536.6 2.92 2.584 2.92zm1.253-3.488h-2.78c.055-1.112.774-1.559 1.516-1.559.882 0 1.264.556 1.264 1.559zm4.578 3.357l1.144-4.414h.011l1.155 4.414h1.156l1.744-5.602h-.96l-1.33 4.534h-.01l-1.22-4.534h-1.025l-1.232 4.555-1.363-4.555h-1.002l1.755 5.602h1.177zm9.646 0v-3.28h1.776l1.81 3.28h1.09l-1.94-3.542c.915-.317 1.525-1.014 1.525-2.202 0-1.08-.588-2.147-2.55-2.147h-2.703v7.89h.992zm1.471-4.12h-1.471v-2.921h1.373c1.133 0 1.853.283 1.853 1.351 0 1.221-.72 1.57-1.755 1.57zm6.42 4.25c1.122 0 1.994-.533 2.223-1.623l-.872-.197c-.152.633-.523.992-1.319.992-.893 0-1.526-.447-1.57-1.874h3.772c.033-.262.044-.513.044-.73 0-1.385-.654-2.42-2.224-2.42-1.439 0-2.637.882-2.637 2.932 0 1.536.599 2.92 2.583 2.92zm1.253-3.487h-2.78c.055-1.112.775-1.559 1.516-1.559.883 0 1.264.556 1.264 1.559zm3.423 5.667v-2.724c.403.305.937.545 1.613.545 1.253 0 2.332-.872 2.332-3.063 0-2.06-.872-2.79-2.049-2.79-.796 0-1.428.305-1.94.763l-.055-.643h-.86v7.912h.959zm1.47-3.019c-.642 0-1.198-.37-1.438-.556v-2.92c.327-.328.948-.709 1.57-.709.893 0 1.33.545 1.33 1.951 0 1.34-.393 2.234-1.461 2.234zm6.137.84c1.886 0 2.649-1.2 2.649-3.041 0-1.668-.73-2.812-2.507-2.812-1.788 0-2.725 1.133-2.725 2.942 0 1.657.643 2.91 2.583 2.91zm.055-.796c-1.09 0-1.613-.676-1.613-2.158 0-1.493.664-2.082 1.656-2.082.97 0 1.515.512 1.515 2.06 0 1.591-.588 2.18-1.558 2.18zm5.003.665v-4.077c.457-.425 1.286-.708 1.983-.61V59.76l-.207-.011c-.785 0-1.373.261-1.864.926l-.076-.806h-.828v5.602h.992zm4.73.13c.523 0 1.1-.185 1.373-.37l-.174-.72c-.24.131-.643.273-.981.273-.676 0-.807-.327-.807-.915v-3.205h1.548v-.795h-1.548V58.09l-.992.153v1.624h-.86v.795h.86v3.335c0 1.123.534 1.603 1.58 1.603zm4.152 0c1.363 0 2.191-.632 2.191-1.7 0-1.253-.97-1.46-1.994-1.678-.785-.164-1.243-.327-1.243-.905 0-.425.262-.785 1.08-.785.817 0 1.035.393 1.165 1.036l.894-.196c-.174-.992-.72-1.624-2.049-1.624-1.133 0-2.07.556-2.07 1.689 0 1.308 1.1 1.504 2.016 1.69.763.152 1.22.261 1.22.882 0 .6-.49.807-1.166.807-.992 0-1.242-.48-1.395-1.08l-.883.24c.175 1.123.948 1.625 2.234 1.625zM291.593 95.443l2.528-7.891h-1.024l-2.158 6.92h-.011l-2.234-6.92h-1.123l2.66 7.891h1.362zm4.033-6.681c.446 0 .708-.262.708-.72 0-.457-.262-.708-.708-.708-.447 0-.698.25-.698.708 0 .458.25.72.698.72zm.48 6.681v-5.602h-.993v5.602h.992zm3.956.13c1.122 0 1.994-.533 2.223-1.623l-.872-.196c-.153.632-.523.991-1.319.991-.894 0-1.526-.446-1.57-1.874h3.772c.033-.262.043-.513.043-.73 0-1.385-.653-2.42-2.223-2.42-1.439 0-2.638.883-2.638 2.932 0 1.537.6 2.92 2.584 2.92zm1.253-3.487h-2.78c.055-1.112.774-1.559 1.516-1.559.882 0 1.264.556 1.264 1.559zm4.578 3.357l1.144-4.414h.011l1.155 4.414h1.156l1.744-5.602h-.96l-1.33 4.534h-.01l-1.22-4.534h-1.025l-1.232 4.556-1.363-4.556h-1.002l1.755 5.602h1.177zm9.646 0v-3.28h1.776l1.81 3.28h1.09l-1.94-3.542c.915-.316 1.525-1.014 1.525-2.202 0-1.079-.588-2.147-2.55-2.147h-2.703v7.891h.992zm1.471-4.12h-1.471v-2.921h1.373c1.133 0 1.853.283 1.853 1.352 0 1.22-.72 1.569-1.755 1.569zm6.42 4.25c1.122 0 1.994-.533 2.223-1.623l-.872-.196c-.152.632-.523.991-1.319.991-.893 0-1.526-.446-1.57-1.874h3.772c.033-.262.044-.513.044-.73 0-1.385-.654-2.42-2.224-2.42-1.439 0-2.637.883-2.637 2.932 0 1.537.599 2.92 2.583 2.92zm1.253-3.487h-2.78c.055-1.112.775-1.559 1.516-1.559.883 0 1.264.556 1.264 1.559zm3.423 5.668v-2.725c.403.305.937.545 1.613.545 1.253 0 2.332-.872 2.332-3.063 0-2.06-.872-2.79-2.049-2.79-.796 0-1.428.305-1.94.763l-.055-.643h-.86v7.913h.959zm1.47-3.02c-.642 0-1.198-.37-1.438-.555v-2.921c.327-.327.948-.709 1.57-.709.893 0 1.33.545 1.33 1.951 0 1.34-.393 2.234-1.461 2.234zm6.137.84c1.886 0 2.649-1.2 2.649-3.041 0-1.668-.73-2.812-2.507-2.812-1.788 0-2.725 1.133-2.725 2.943 0 1.656.643 2.91 2.583 2.91zm.055-.796c-1.09 0-1.613-.676-1.613-2.158 0-1.493.664-2.082 1.656-2.082.97 0 1.515.513 1.515 2.06 0 1.592-.588 2.18-1.558 2.18zm5.003.665v-4.076c.457-.425 1.286-.709 1.983-.61v-1.025l-.207-.011c-.785 0-1.373.261-1.864.926l-.076-.806h-.828v5.602h.992zm4.73.13c.523 0 1.1-.185 1.373-.37l-.174-.72c-.24.132-.643.273-.981.273-.676 0-.807-.327-.807-.915v-3.205h1.548v-.795h-1.548v-1.777l-.992.153v1.624h-.86v.795h.86v3.336c0 1.122.534 1.602 1.58 1.602zm4.152 0c1.363 0 2.191-.631 2.191-1.7 0-1.253-.97-1.46-1.994-1.678-.785-.164-1.243-.327-1.243-.905 0-.425.262-.784 1.08-.784.817 0 1.035.392 1.165 1.035l.894-.196c-.174-.992-.72-1.624-2.049-1.624-1.133 0-2.07.556-2.07 1.69 0 1.307 1.1 1.503 2.016 1.689.763.152 1.22.261 1.22.882 0 .6-.49.807-1.166.807-.992 0-1.242-.48-1.395-1.079l-.883.24c.175 1.122.948 1.624 2.234 1.624zM291.593 125.416l2.528-7.891h-1.024l-2.158 6.921h-.011l-2.234-6.921h-1.123l2.66 7.891h1.362zm4.033-6.681c.446 0 .708-.262.708-.72 0-.457-.262-.708-.708-.708-.447 0-.698.25-.698.708 0 .458.25.72.698.72zm.48 6.681v-5.602h-.993v5.602h.992zm3.956.13c1.122 0 1.994-.533 2.223-1.623l-.872-.196c-.153.632-.523.992-1.319.992-.894 0-1.526-.447-1.57-1.875h3.772c.033-.262.043-.512.043-.73 0-1.385-.653-2.42-2.223-2.42-1.439 0-2.638.883-2.638 2.932 0 1.537.6 2.92 2.584 2.92zm1.253-3.487h-2.78c.055-1.112.774-1.558 1.516-1.558.882 0 1.264.555 1.264 1.558zm4.578 3.357l1.144-4.414h.011l1.155 4.414h1.156l1.744-5.602h-.96l-1.33 4.534h-.01l-1.22-4.534h-1.025l-1.232 4.556-1.363-4.556h-1.002l1.755 5.602h1.177zm9.646 0v-3.28h1.776l1.81 3.28h1.09l-1.94-3.542c.915-.316 1.525-1.014 1.525-2.202 0-1.079-.588-2.147-2.55-2.147h-2.703v7.891h.992zm1.471-4.12h-1.471v-2.92h1.373c1.133 0 1.853.283 1.853 1.35 0 1.221-.72 1.57-1.755 1.57zm6.42 4.25c1.122 0 1.994-.533 2.223-1.623l-.872-.196c-.152.632-.523.992-1.319.992-.893 0-1.526-.447-1.57-1.875h3.772c.033-.262.044-.512.044-.73 0-1.385-.654-2.42-2.224-2.42-1.439 0-2.637.883-2.637 2.932 0 1.537.599 2.92 2.583 2.92zm1.253-3.487h-2.78c.055-1.112.775-1.558 1.516-1.558.883 0 1.264.555 1.264 1.558zm3.423 5.668v-2.725c.403.305.937.545 1.613.545 1.253 0 2.332-.872 2.332-3.063 0-2.06-.872-2.79-2.049-2.79-.796 0-1.428.305-1.94.763l-.055-.643h-.86v7.913h.959zm1.47-3.02c-.642 0-1.198-.37-1.438-.555v-2.921c.327-.327.948-.709 1.57-.709.893 0 1.33.545 1.33 1.951 0 1.34-.393 2.235-1.461 2.235zm6.137.84c1.886 0 2.649-1.199 2.649-3.041 0-1.668-.73-2.812-2.507-2.812-1.788 0-2.725 1.133-2.725 2.943 0 1.656.643 2.91 2.583 2.91zm.055-.796c-1.09 0-1.613-.676-1.613-2.158 0-1.493.664-2.082 1.656-2.082.97 0 1.515.513 1.515 2.06 0 1.592-.588 2.18-1.558 2.18zm5.003.665v-4.076c.457-.425 1.286-.709 1.983-.61v-1.025l-.207-.011c-.785 0-1.373.262-1.864.926l-.076-.806h-.828v5.602h.992zm4.73.13c.523 0 1.1-.184 1.373-.37l-.174-.719c-.24.13-.643.272-.981.272-.676 0-.807-.327-.807-.915v-3.204h1.548v-.796h-1.548v-1.777l-.992.153v1.624h-.86v.796h.86v3.335c0 1.122.534 1.602 1.58 1.602zm4.152 0c1.363 0 2.191-.631 2.191-1.7 0-1.253-.97-1.46-1.994-1.678-.785-.163-1.243-.327-1.243-.905 0-.425.262-.784 1.08-.784.817 0 1.035.392 1.165 1.035l.894-.196c-.174-.992-.72-1.624-2.049-1.624-1.133 0-2.07.556-2.07 1.69 0 1.307 1.1 1.503 2.016 1.689.763.152 1.22.261 1.22.883 0 .6-.49.806-1.166.806-.992 0-1.242-.48-1.395-1.079l-.883.24c.175 1.123.948 1.624 2.234 1.624zM291.593 155.39l2.528-7.892h-1.024l-2.158 6.921h-.011l-2.234-6.92h-1.123l2.66 7.89h1.362zm4.033-6.682c.446 0 .708-.262.708-.72 0-.457-.262-.708-.708-.708-.447 0-.698.25-.698.709 0 .457.25.719.698.719zm.48 6.681v-5.602h-.993v5.602h.992zm3.956.131c1.122 0 1.994-.534 2.223-1.624l-.872-.196c-.153.632-.523.992-1.319.992-.894 0-1.526-.447-1.57-1.875h3.772c.033-.262.043-.512.043-.73 0-1.384-.653-2.42-2.223-2.42-1.439 0-2.638.883-2.638 2.932 0 1.537.6 2.921 2.584 2.921zm1.253-3.488h-2.78c.055-1.111.774-1.558 1.516-1.558.882 0 1.264.556 1.264 1.558zm4.578 3.357l1.144-4.414h.011l1.155 4.414h1.156l1.744-5.602h-.96l-1.33 4.534h-.01l-1.22-4.534h-1.025l-1.232 4.556-1.363-4.556h-1.002l1.755 5.602h1.177zm9.646 0v-3.28h1.776l1.81 3.28h1.09l-1.94-3.542c.915-.316 1.525-1.014 1.525-2.202 0-1.079-.588-2.147-2.55-2.147h-2.703v7.891h.992zm1.471-4.12h-1.471v-2.92h1.373c1.133 0 1.853.283 1.853 1.35 0 1.222-.72 1.57-1.755 1.57zm6.42 4.251c1.122 0 1.994-.534 2.223-1.624l-.872-.196c-.152.632-.523.992-1.319.992-.893 0-1.526-.447-1.57-1.875h3.772c.033-.262.044-.512.044-.73 0-1.384-.654-2.42-2.224-2.42-1.439 0-2.637.883-2.637 2.932 0 1.537.599 2.921 2.583 2.921zm1.253-3.488h-2.78c.055-1.111.775-1.558 1.516-1.558.883 0 1.264.556 1.264 1.558zm3.423 5.668v-2.725c.403.305.937.545 1.613.545 1.253 0 2.332-.872 2.332-3.063 0-2.06-.872-2.79-2.049-2.79-.796 0-1.428.305-1.94.763l-.055-.643h-.86v7.913h.959zm1.47-3.02c-.642 0-1.198-.37-1.438-.555v-2.921c.327-.327.948-.709 1.57-.709.893 0 1.33.545 1.33 1.951 0 1.341-.393 2.235-1.461 2.235zm6.137.84c1.886 0 2.649-1.199 2.649-3.04 0-1.668-.73-2.813-2.507-2.813-1.788 0-2.725 1.134-2.725 2.943 0 1.657.643 2.91 2.583 2.91zm.055-.796c-1.09 0-1.613-.675-1.613-2.158 0-1.493.664-2.081 1.656-2.081.97 0 1.515.512 1.515 2.06 0 1.59-.588 2.18-1.558 2.18zm5.003.665v-4.076c.457-.425 1.286-.709 1.983-.61v-1.025l-.207-.01c-.785 0-1.373.26-1.864.926l-.076-.807h-.828v5.602h.992zm4.73.131c.523 0 1.1-.185 1.373-.37l-.174-.72c-.24.13-.643.273-.981.273-.676 0-.807-.327-.807-.916v-3.204h1.548v-.796h-1.548v-1.777l-.992.153v1.624h-.86v.796h.86v3.335c0 1.122.534 1.602 1.58 1.602zm4.152 0c1.363 0 2.191-.632 2.191-1.7 0-1.254-.97-1.46-1.994-1.679-.785-.163-1.243-.327-1.243-.904 0-.425.262-.785 1.08-.785.817 0 1.035.392 1.165 1.035l.894-.196c-.174-.992-.72-1.624-2.049-1.624-1.133 0-2.07.556-2.07 1.69 0 1.307 1.1 1.504 2.016 1.689.763.152 1.22.261 1.22.883 0 .6-.49.806-1.166.806-.992 0-1.242-.48-1.395-1.079l-.883.24c.175 1.123.948 1.624 2.234 1.624z"/>
            <path fill="#6F6F6F" fill-rule="nonzero" d="M15.23 40.038v-7.02h2.365v-.871H11.84v.872h2.387v7.019h1.002zm5.623.13c1.123 0 1.995-.533 2.224-1.623l-.872-.196c-.153.632-.523.991-1.319.991-.894 0-1.526-.446-1.57-1.874h3.772c.032-.262.043-.512.043-.73 0-1.385-.654-2.42-2.223-2.42-1.439 0-2.638.883-2.638 2.932 0 1.537.6 2.92 2.583 2.92zm1.254-3.487h-2.78c.055-1.112.774-1.559 1.516-1.559.882 0 1.264.556 1.264 1.559zm3.847 3.488c.785 0 1.363-.25 1.799-.687.054.36.305.665.86.665.273 0 .557-.065.775-.174l-.044-.622c-.142.044-.24.066-.338.066-.283 0-.338-.131-.338-.436v-2.736c0-1.395-.621-1.93-2.005-1.93-1.297 0-1.973.491-2.147 1.538l.872.163c.12-.621.414-.926 1.188-.926.915 0 1.111.436 1.111 1.144v.545c-.152-.01-.316-.022-.49-.022-1.58 0-2.9.415-2.9 1.908 0 .545.24 1.504 1.657 1.504zm.305-.774c-.762 0-.937-.414-.937-.894 0-.959 1.036-1.035 1.81-1.035.207 0 .414.01.566.032v1.265c-.305.327-.86.632-1.439.632zm6.475.774c1.122 0 2.114-.545 2.3-1.842l-.872-.185c-.142.828-.633 1.198-1.396 1.198-.893 0-1.57-.5-1.57-2.168 0-1.592.797-2.028 1.603-2.028.785 0 1.166.425 1.254 1.254l.948-.131c-.077-1.297-.905-1.951-2.158-1.951-1.679 0-2.682 1.024-2.682 2.975 0 1.679.72 2.878 2.573 2.878zm4.632-.131v-4.174c.294-.262.992-.676 1.635-.676.763 0 1.046.425 1.046 1.199v3.651h.992v-3.804c0-1.264-.523-1.918-1.711-1.918-.785 0-1.428.327-1.973.752v-3.259h-.98v8.229h.99zm7.586.13c1.122 0 1.994-.533 2.223-1.623l-.872-.196c-.152.632-.523.991-1.318.991-.894 0-1.526-.446-1.57-1.874h3.771c.033-.262.044-.512.044-.73 0-1.385-.654-2.42-2.224-2.42-1.438 0-2.637.883-2.637 2.932 0 1.537.6 2.92 2.583 2.92zm1.253-3.487h-2.78c.055-1.112.775-1.559 1.516-1.559.883 0 1.264.556 1.264 1.559zm3.455 3.357v-4.076c.458-.425 1.286-.709 1.984-.61v-1.025l-.207-.011c-.785 0-1.373.261-1.864.926l-.076-.806h-.828v5.602h.991zM127.442 40.169c1.46 0 2.79-.654 2.79-2.322 0-1.526-1.254-1.896-2.409-2.234-.98-.294-1.886-.567-1.886-1.526 0-.698.436-1.232 1.646-1.232 1.221 0 1.526.73 1.646 1.483l.937-.11c-.163-1.689-1.21-2.223-2.594-2.223-1.526 0-2.66.829-2.66 2.18 0 1.624 1.276 1.962 2.442 2.289.97.272 1.853.534 1.853 1.515 0 1.046-.904 1.33-1.755 1.33-1.351 0-1.743-.73-1.929-1.57l-.959.142c.207 1.624 1.232 2.278 2.878 2.278zm6.343 0c1.123 0 2.114-.545 2.3-1.842l-.872-.185c-.142.828-.632 1.198-1.395 1.198-.894 0-1.57-.5-1.57-2.168 0-1.592.796-2.028 1.602-2.028.785 0 1.167.425 1.254 1.254l.948-.131c-.076-1.297-.905-1.951-2.158-1.951-1.679 0-2.681 1.024-2.681 2.975 0 1.679.72 2.878 2.572 2.878zm4.632-.131v-4.174c.294-.262.992-.676 1.635-.676.763 0 1.046.425 1.046 1.199v3.651h.992v-3.804c0-1.264-.523-1.918-1.71-1.918-.786 0-1.429.327-1.974.752v-3.259h-.98v8.229h.991zm7.586.13c1.886 0 2.649-1.198 2.649-3.04 0-1.668-.73-2.812-2.507-2.812-1.788 0-2.725 1.133-2.725 2.943 0 1.656.643 2.91 2.583 2.91zm.055-.795c-1.09 0-1.613-.676-1.613-2.158 0-1.493.664-2.082 1.656-2.082.97 0 1.515.513 1.515 2.06 0 1.592-.588 2.18-1.558 2.18zm6.245.796c1.886 0 2.648-1.2 2.648-3.041 0-1.668-.73-2.812-2.506-2.812-1.788 0-2.725 1.133-2.725 2.943 0 1.656.643 2.91 2.583 2.91zm.054-.796c-1.09 0-1.613-.676-1.613-2.158 0-1.493.665-2.082 1.657-2.082.97 0 1.515.513 1.515 2.06 0 1.592-.589 2.18-1.559 2.18zm5.003.665v-8.229h-.992v8.229h.992z"/>
            <path fill="#E0E0E0" d="M.799 47.304H363.202V48.304H.799zM.799 77.277H363.202V78.277H.799zM.799 107.251H363.202V108.251H.799zM.799 137.224H363.202V138.224H.799z"/>
        </g>
        <g transform="translate(131 62)">
            <path fill="#9B9B9B" fill-rule="nonzero" d="M7.157 5.523c1.507 0 2.715-1.217 2.715-2.724C9.872 1.29 8.664.074 7.157.074c-1.508 0-2.725 1.217-2.725 2.725 0 1.507 1.217 2.724 2.725 2.724zm0 1.817C5.04 7.34.799 8.403.799 10.519v2.27h12.716v-2.27c0-2.116-4.242-3.179-6.358-3.179z"/>
            <path fill="#3F3F3F" fill-rule="nonzero" d="M21.09 10.065V3.482h.021l2.126 6.583h1.242l2.17-6.562h.032v6.562h1.188V2.174h-1.897l-2.049 6.343h-.032l-2.06-6.343h-1.919v7.89h1.178zm9.907.13c.785 0 1.406-.272 1.788-.686.098.436.36.665.948.665.305 0 .665-.076.883-.185l-.044-.742c-.142.044-.24.066-.338.066-.283 0-.338-.131-.338-.436V6.272c0-1.406-.675-1.962-2.114-1.962-1.384 0-2.06.567-2.235 1.624l1.101.196c.12-.588.35-.872 1.036-.872.828 0 .98.393.98 1.08v.424c-.152-.01-.315-.021-.577-.021-1.515 0-2.758.48-2.758 1.94 0 .556.251 1.515 1.668 1.515zm.447-.937c-.665 0-.84-.36-.84-.752 0-.828.916-.904 1.548-.904.284 0 .415.01.524.021v1.112c-.251.262-.72.523-1.232.523zm4.501 3.237c1.003 0 1.504-.468 1.962-1.71.73-1.94 1.602-4.284 2.354-6.355h-1.286l-1.384 4.229h-.01l-1.385-4.23h-1.351l2.114 5.723-.229.589c-.229.577-.534.773-.915.773-.273 0-.643-.087-.883-.174l-.12.937c.229.11.708.218 1.133.218zm6.518-2.3c.785 0 1.406-.272 1.788-.686.098.436.36.665.948.665.305 0 .665-.076.883-.185l-.044-.742c-.142.044-.24.066-.338.066-.283 0-.338-.131-.338-.436V6.272c0-1.406-.675-1.962-2.114-1.962-1.384 0-2.06.567-2.234 1.624l1.1.196c.12-.588.35-.872 1.036-.872.828 0 .98.393.98 1.08v.424c-.152-.01-.315-.021-.577-.021-1.515 0-2.757.48-2.757 1.94 0 .556.25 1.515 1.667 1.515zm.447-.937c-.665 0-.84-.36-.84-.752 0-.828.916-.904 1.548-.904.284 0 .415.01.524.021v1.112c-.251.262-.72.523-1.232.523zm7.117.807l.72-2.158h2.866l.741 2.158h1.395l-2.768-7.891h-1.624l-2.627 7.89h1.297zm3.292-3.226h-2.322l1.156-3.488h.021l1.145 3.488zm4.73 3.226v-4.11c.273-.25.861-.599 1.428-.599.665 0 .926.37.926 1.08v3.629h1.254V6.228c0-1.275-.523-1.918-1.744-1.918-.774 0-1.45.305-1.951.708l-.054-.588h-1.112v5.635h1.253zm7.226 2.463c1.505 0 2.921-.458 2.921-1.93 0-1.034-.697-1.394-1.874-1.47l-1.602-.099c-.48-.032-.578-.174-.578-.37 0-.164.13-.316.272-.425.295.087.589.109.96.109 1.362 0 2.376-.741 2.376-2.017 0-.457-.142-.904-.436-1.242.294-.087.632-.13.98-.11v-.926c-.163-.054-.261-.065-.446-.065-.414 0-.741.316-.938.774-.381-.327-.926-.447-1.58-.447-1.515 0-2.43.861-2.43 2.082 0 .72.326 1.275.828 1.558-.414.316-.796.643-.796 1.156 0 .436.25.708.665.85v.033c-.523.174-.937.545-.937 1.133 0 .709.523 1.406 2.615 1.406zm.077-5.155c-.872 0-1.232-.404-1.232-1.057 0-.73.534-1.036 1.243-1.036.752 0 1.21.349 1.21 1.057 0 .643-.502 1.036-1.221 1.036zm.043 4.207c-1.057 0-1.526-.207-1.526-.665 0-.305.164-.523.458-.73l1.733.087c.687.033.85.229.85.578 0 .512-.534.73-1.515.73zm6.158-1.384c1.221 0 2.082-.61 2.3-1.679l-1.068-.261c-.13.577-.436.915-1.155.915-.818 0-1.384-.425-1.417-1.613h3.651c.022-.262.033-.523.033-.752 0-1.46-.676-2.496-2.31-2.496-1.472 0-2.693.905-2.693 2.943 0 1.548.632 2.943 2.66 2.943zm1.047-3.51h-2.365c.054-1.003.643-1.384 1.275-1.384.752 0 1.09.425 1.09 1.384zm3.836 3.379v-8.23h-1.253v8.23h1.253zm3.88.13c1.94 0 2.747-1.198 2.747-3.051 0-1.668-.741-2.834-2.605-2.834-1.864 0-2.8 1.155-2.8 2.965 0 1.678.675 2.92 2.659 2.92zm.066-.97c-.981 0-1.417-.62-1.417-1.994 0-1.373.556-1.907 1.45-1.907.882 0 1.34.48 1.34 1.885 0 1.45-.512 2.017-1.373 2.017zm5.613.96c.774 0 1.439-.295 1.93-.741l.086.62h1.09V4.43h-1.253v4.109c-.273.25-.861.589-1.417.589-.665 0-.883-.36-.883-1.069V4.43h-1.253v3.848c0 1.265.523 1.908 1.7 1.908z"/>
            <rect width="362.403" height="142.6" x=".799" y="23.689" fill="#FFF" stroke="#E0E0E0" rx="6"/>
            <path fill="#3F3F3F" fill-rule="nonzero" d="M16.403 44.732c1.627 0 3.357-.75 3.675-2.836l-1.323-.254c-.267 1.17-.903 1.831-2.276 1.831-1.716 0-2.683-.979-2.683-3.471 0-2.404 1.068-3.51 2.81-3.51 1.374 0 1.997.674 2.15 2.06l1.373-.127c-.14-2.213-1.526-3.217-3.51-3.217-2.734 0-4.349 1.869-4.349 4.895 0 2.785 1.17 4.629 4.133 4.629zm7.757 0c2.263 0 3.204-1.399 3.204-3.56 0-1.946-.865-3.307-3.04-3.307-2.174 0-3.267 1.348-3.267 3.46 0 1.957.788 3.407 3.103 3.407zm.076-1.132c-1.145 0-1.653-.725-1.653-2.327 0-1.602.648-2.225 1.691-2.225 1.03 0 1.564.56 1.564 2.2 0 1.691-.598 2.352-1.602 2.352zm6.04.98v-4.794c.318-.293 1.004-.7 1.666-.7.775 0 1.08.432 1.08 1.259v4.234h1.463v-4.476c0-1.487-.61-2.238-2.035-2.238-.903 0-1.69.356-2.276.827l-.063-.687h-1.297v6.574h1.462zm8.672.152c1.412 0 2.581-.674 2.798-2.25l-1.272-.255c-.153.916-.636 1.31-1.45 1.31-.915 0-1.627-.547-1.627-2.327 0-1.742.814-2.175 1.666-2.175s1.208.56 1.31 1.424l1.347-.19c-.114-1.552-1.144-2.404-2.594-2.404-2.06 0-3.255 1.234-3.255 3.51 0 1.958.903 3.357 3.077 3.357zm6.905 0c1.424 0 2.429-.712 2.683-1.958l-1.246-.305c-.153.674-.509 1.068-1.348 1.068-.954 0-1.615-.496-1.653-1.882h4.26c.025-.305.038-.61.038-.878 0-1.704-.789-2.912-2.696-2.912-1.717 0-3.14 1.056-3.14 3.434 0 1.805.737 3.433 3.102 3.433zm1.22-4.095h-2.759c.064-1.17.75-1.614 1.488-1.614.877 0 1.272.495 1.272 1.614zm4.413 6.638v-3.179c.458.369 1.043.636 1.831.636 1.475 0 2.721-1.005 2.721-3.599 0-2.403-1.042-3.268-2.428-3.268-.865 0-1.615.293-2.2.84l-.077-.7h-1.258v9.27h1.411zm1.513-3.738c-.636 0-1.22-.382-1.475-.585V39.76c.356-.33.98-.7 1.602-.7.929 0 1.386.586 1.386 2.099 0 1.45-.407 2.378-1.513 2.378zm6.727 1.195c.7 0 1.411-.242 1.742-.458l-.242-1.042c-.267.152-.724.305-1.119.305-.712 0-.877-.344-.877-.992v-3.459h1.78v-1.08h-1.78v-2.124l-1.462.203v1.92h-1.005v1.081h1.005v3.662c0 1.4.66 1.984 1.958 1.984zm4.96 0c1.614 0 2.708-.725 2.708-2.085 0-1.5-1.208-1.768-2.34-1.971-.865-.153-1.424-.331-1.424-.941 0-.433.33-.776 1.131-.776.852 0 1.094.458 1.247 1.106l1.271-.33c-.254-1.145-.966-1.87-2.492-1.87-1.374 0-2.53.662-2.53 2.035 0 1.564 1.27 1.793 2.34 2.01.838.164 1.372.279 1.372.94 0 .56-.508.788-1.233.788-1.055 0-1.323-.546-1.488-1.17l-1.246.407c.203 1.221 1.106 1.857 2.683 1.857zm8.264-.153v-3.7h1.755l1.984 3.7h1.615l-2.2-4.081c1.017-.395 1.704-1.208 1.704-2.582 0-1.297-.712-2.543-3.001-2.543h-3.332v9.206h1.475zm1.437-4.895H72.95v-3.09h1.4c1.207 0 1.92.33 1.92 1.424 0 1.31-.802 1.666-1.883 1.666zm7.757 5.048c1.424 0 2.429-.712 2.683-1.958l-1.246-.305c-.153.674-.509 1.068-1.348 1.068-.954 0-1.615-.496-1.653-1.882h4.26c.025-.305.038-.61.038-.878 0-1.704-.788-2.912-2.696-2.912-1.717 0-3.14 1.056-3.14 3.434 0 1.805.737 3.433 3.102 3.433zm1.22-4.095h-2.759c.064-1.17.75-1.614 1.488-1.614.878 0 1.272.495 1.272 1.614zm4.413 6.638v-3.179c.458.369 1.043.636 1.831.636 1.475 0 2.721-1.005 2.721-3.599 0-2.403-1.042-3.268-2.428-3.268-.865 0-1.615.293-2.2.84l-.076-.7h-1.26v9.27h1.412zm1.513-3.738c-.635 0-1.22-.382-1.475-.585V39.76c.356-.33.98-.7 1.602-.7.929 0 1.386.586 1.386 2.099 0 1.45-.406 2.378-1.513 2.378zm7.248 1.195c2.264 0 3.205-1.399 3.205-3.56 0-1.946-.865-3.307-3.04-3.307-2.174 0-3.267 1.348-3.267 3.46 0 1.957.788 3.407 3.102 3.407zm.077-1.132c-1.145 0-1.653-.725-1.653-2.327 0-1.602.648-2.225 1.69-2.225 1.03 0 1.565.56 1.565 2.2 0 1.691-.598 2.352-1.602 2.352zm6.04.98v-4.566c.546-.483 1.475-.775 2.301-.674v-1.462c-.089 0-.19-.013-.267-.013-.966 0-1.627.382-2.149 1.12l-.114-.98h-1.234v6.574h1.463zm5.544.152c.7 0 1.411-.242 1.742-.458l-.242-1.042c-.267.152-.725.305-1.119.305-.712 0-.877-.344-.877-.992v-3.459h1.78v-1.08h-1.78v-2.124l-1.462.203v1.92h-1.005v1.081h1.005v3.662c0 1.4.66 1.984 1.958 1.984zM315.662 10.065c2.823 0 4.098-1.646 4.098-4.066 0-2.354-1.177-3.825-3.913-3.825h-2.561v7.89h2.376zm-.01-1.036h-1.09V3.21h1.187c1.744 0 2.703.676 2.703 2.91 0 1.82-.85 2.91-2.8 2.91zm7.727 1.167c1.94 0 2.746-1.2 2.746-3.052 0-1.668-.74-2.834-2.604-2.834s-2.802 1.155-2.802 2.965c0 1.678.676 2.92 2.66 2.92zm.065-.97c-.98 0-1.417-.622-1.417-1.995 0-1.373.556-1.907 1.45-1.907.883 0 1.34.48 1.34 1.885 0 1.45-.512 2.017-1.373 2.017zm6.387.839l1.014-4.131h.022l1.057 4.13h1.439l1.722-5.634h-1.221l-1.199 4.316h-.01L331.52 4.43h-1.265l-1.133 4.338h-.011L327.88 4.43h-1.264l1.722 5.635h1.493zm7.303 0v-4.11c.272-.25.86-.599 1.428-.599.664 0 .926.37.926 1.08v3.629h1.253V6.228c0-1.275-.523-1.918-1.743-1.918-.774 0-1.45.305-1.951.708l-.055-.588h-1.112v5.635h1.254zm6.376 0v-8.23h-1.254v8.23h1.254zm3.88.13c1.94 0 2.747-1.198 2.747-3.051 0-1.668-.741-2.834-2.605-2.834-1.864 0-2.801 1.155-2.801 2.965 0 1.678.675 2.92 2.659 2.92zm.065-.97c-.98 0-1.416-.62-1.416-1.994 0-1.373.555-1.907 1.45-1.907.882 0 1.34.48 1.34 1.885 0 1.45-.513 2.017-1.374 2.017zm5.33.97c.785 0 1.406-.272 1.788-.686.098.436.36.665.948.665.305 0 .665-.076.883-.185l-.044-.742c-.141.044-.24.066-.338.066-.283 0-.338-.131-.338-.436V6.272c0-1.406-.675-1.962-2.114-1.962-1.384 0-2.06.567-2.234 1.624l1.1.196c.12-.588.35-.872 1.036-.872.828 0 .98.393.98 1.08v.424c-.152-.01-.315-.021-.577-.021-1.515 0-2.757.48-2.757 1.94 0 .556.25 1.515 1.667 1.515zm.447-.937c-.665 0-.84-.36-.84-.752 0-.828.916-.904 1.549-.904.283 0 .414.01.523.021v1.112c-.251.262-.72.523-1.232.523zm6.038.938c.774 0 1.33-.273 1.777-.698h.022l.087.567h1.046v-8.23h-1.22v2.966c-.382-.327-.872-.491-1.515-.491-1.221 0-2.377.796-2.377 3.03 0 2.038.883 2.856 2.18 2.856zm.404-1.014c-.905 0-1.287-.632-1.287-1.853 0-1.177.36-1.994 1.341-1.994.534 0 .981.25 1.22.436v2.833c-.304.316-.795.578-1.274.578zM13.104 95.443l.774-2.343h3.03l.796 2.343h1.1l-2.746-7.891H14.75l-2.66 7.891h1.014zm3.553-3.204h-2.54l1.265-3.772h.01l1.265 3.772zm5.21 3.335c.807 0 1.373-.305 1.853-.741l.01.01.077.6h.828v-8.229h-.97v3.03c-.392-.316-.926-.523-1.57-.523-1.242 0-2.364.795-2.364 3.008 0 2.038.86 2.845 2.136 2.845zm.294-.829c-.98 0-1.406-.654-1.406-2.016 0-1.297.393-2.158 1.472-2.158.643 0 1.166.294 1.428.49v2.998c-.35.349-.916.686-1.494.686zm4.72-6.07c.447 0 .697-.262.697-.72 0-.447-.25-.708-.697-.708-.447 0-.709.261-.709.708 0 .458.262.72.709.72zm-1.123 9.199c1.014 0 1.591-.513 1.591-1.7V89.84h-.991v6.289c0 .664-.284.882-.73.882-.273 0-.6-.076-.818-.163l-.11.807c.197.12.698.218 1.058.218zm5.526-2.3c1.123 0 1.995-.534 2.224-1.624l-.872-.196c-.153.632-.524.991-1.32.991-.893 0-1.525-.446-1.569-1.874h3.771c.033-.262.044-.513.044-.73 0-1.385-.654-2.42-2.223-2.42-1.44 0-2.638.883-2.638 2.932 0 1.537.6 2.92 2.583 2.92zm1.254-3.488h-2.78c.055-1.112.774-1.559 1.515-1.559.883 0 1.265.556 1.265 1.559zm4.686 3.488c1.123 0 2.115-.545 2.3-1.842l-.872-.186c-.142.829-.632 1.2-1.395 1.2-.894 0-1.57-.502-1.57-2.17 0-1.59.796-2.027 1.603-2.027.784 0 1.166.425 1.253 1.254l.948-.131c-.076-1.297-.904-1.951-2.158-1.951-1.678 0-2.681 1.024-2.681 2.975 0 1.679.72 2.878 2.572 2.878zm5.395 0c.524 0 1.101-.186 1.374-.37l-.175-.72c-.24.13-.643.272-.98.272-.676 0-.807-.327-.807-.915v-3.205h1.548v-.795H42.03v-1.777l-.992.153v1.624h-.861v.795h.861v3.336c0 1.122.534 1.602 1.58 1.602zm2.889-6.812c.447 0 .708-.262.708-.72 0-.457-.261-.708-.708-.708-.447 0-.698.25-.698.708 0 .458.25.72.698.72zm.48 6.681v-5.602h-.993v5.602h.992zm4.174 0l2.103-5.602h-1.013l-1.624 4.61h-.011l-1.646-4.61h-1.08l2.137 5.602h1.134zm5.286.13c1.123 0 1.994-.533 2.223-1.623l-.872-.196c-.152.632-.523.991-1.318.991-.894 0-1.526-.446-1.57-1.874h3.771c.033-.262.044-.513.044-.73 0-1.385-.654-2.42-2.224-2.42-1.438 0-2.637.883-2.637 2.932 0 1.537.6 2.92 2.583 2.92zm1.253-3.487h-2.779c.054-1.112.774-1.559 1.515-1.559.883 0 1.264.556 1.264 1.559zm4.24 3.488c1.363 0 2.19-.632 2.19-1.7 0-1.254-.97-1.461-1.994-1.679-.784-.164-1.242-.327-1.242-.905 0-.425.261-.784 1.079-.784.817 0 1.035.392 1.166 1.035l.894-.196c-.175-.992-.72-1.624-2.05-1.624-1.133 0-2.07.556-2.07 1.69 0 1.307 1.1 1.503 2.016 1.689.763.152 1.221.261 1.221.882 0 .6-.49.807-1.166.807-.992 0-1.243-.48-1.395-1.079l-.883.24c.174 1.122.948 1.624 2.234 1.624zm8.055 0c.883 0 1.547-.23 2.016-.589.469.349.916.578 1.515.578.24 0 .556-.055.785-.185l-.174-.742c-.175.077-.338.11-.502.11-.338 0-.654-.153-.97-.393.578-.741.796-1.711.807-2.649h-.883c-.022.829-.175 1.57-.556 2.104-.283-.305-.589-.665-.927-1.09-.37-.458-.675-.883-.915-1.275l.392-.174c1.297-.556 1.635-1.298 1.635-1.94 0-1.21-.904-1.494-1.646-1.494-1.166 0-1.994.785-1.994 1.831 0 .556.142 1.047.425 1.57-.948.49-1.471 1.122-1.471 2.18 0 1.253.97 2.158 2.463 2.158zm-.12-4.752c-.218-.447-.327-.85-.327-1.265 0-.62.414-.948.97-.948s.828.338.828.763c0 .545-.327.96-1.09 1.297-.01 0-.37.153-.381.153zm.261 3.956c-1.1 0-1.613-.708-1.613-1.46s.338-1.156.818-1.45c.229.37.49.73.795 1.134.338.457.774.991 1.254 1.45-.327.206-.741.326-1.254.326zm8.142.665l.774-2.343h3.03l.796 2.343h1.1l-2.746-7.891h-1.308l-2.66 7.891h1.014zm3.553-3.204h-2.54l1.265-3.772h.011l1.264 3.772zm5.21 3.335c.807 0 1.374-.305 1.853-.741l.011.01.076.6h.829v-8.229h-.97v3.03c-.393-.316-.927-.523-1.57-.523-1.242 0-2.365.795-2.365 3.008 0 2.038.861 2.845 2.136 2.845zm.295-.829c-.981 0-1.406-.654-1.406-2.016 0-1.297.392-2.158 1.471-2.158.643 0 1.166.294 1.428.49v2.998c-.349.349-.916.686-1.493.686zm6.648.698l2.104-5.602h-1.014l-1.624 4.61h-.01l-1.647-4.61h-1.079l2.137 5.602h1.133zm5.286.13c1.123 0 1.995-.533 2.224-1.623l-.872-.196c-.153.632-.523.991-1.319.991-.894 0-1.526-.446-1.57-1.874h3.772c.032-.262.043-.513.043-.73 0-1.385-.654-2.42-2.223-2.42-1.439 0-2.638.883-2.638 2.932 0 1.537.6 2.92 2.583 2.92zm1.254-3.487h-2.78c.055-1.112.774-1.559 1.515-1.559.883 0 1.265.556 1.265 1.559zm3.455 3.357v-4.076c.458-.425 1.286-.709 1.984-.61v-1.025l-.208-.011c-.784 0-1.373.261-1.863.926l-.077-.806h-.828v5.602h.992zm5.526.13c1.297 0 2.365-.882 2.365-3.062 0-2.06-.883-2.79-2.038-2.79-.818 0-1.406.305-1.897.741v-3.248h-.98v8.229h.86l.055-.49h.01c.404.316.96.62 1.625.62zm-.12-.839c-.643 0-1.188-.392-1.439-.577v-2.9c.327-.315.948-.697 1.57-.697.926 0 1.33.61 1.33 1.94 0 1.363-.404 2.234-1.461 2.234zm5.678.84c1.363 0 2.191-.632 2.191-1.7 0-1.254-.97-1.461-1.994-1.679-.785-.164-1.243-.327-1.243-.905 0-.425.262-.784 1.08-.784.817 0 1.035.392 1.165 1.035l.894-.196c-.174-.992-.72-1.624-2.049-1.624-1.133 0-2.07.556-2.07 1.69 0 1.307 1.1 1.503 2.016 1.689.763.152 1.22.261 1.22.882 0 .6-.49.807-1.166.807-.992 0-1.242-.48-1.395-1.079l-.883.24c.175 1.122.948 1.624 2.234 1.624zM15.709 125.547c1.384 0 2.812-.589 3.084-2.333l-.904-.185c-.25 1.112-.861 1.657-2.115 1.657-1.58 0-2.496-.916-2.496-3.183 0-2.169.992-3.248 2.627-3.248 1.297 0 1.853.643 2.006 1.875l.937-.098c-.12-1.842-1.275-2.649-2.932-2.649-2.245 0-3.673 1.548-3.673 4.207 0 2.366.992 3.957 3.466 3.957zm6.649 0c1.885 0 2.648-1.199 2.648-3.041 0-1.668-.73-2.812-2.507-2.812-1.787 0-2.725 1.133-2.725 2.943 0 1.656.643 2.91 2.584 2.91zm.054-.796c-1.09 0-1.613-.676-1.613-2.158 0-1.493.665-2.082 1.657-2.082.97 0 1.515.513 1.515 2.06 0 1.592-.589 2.18-1.559 2.18zm5.003.665v-4.174c.294-.262.992-.676 1.635-.676.763 0 1.046.425 1.046 1.199v3.651h.992v-3.804c0-1.264-.523-1.918-1.722-1.918-.774 0-1.472.349-2.017.785l-.054-.665h-.872v5.602h.992zm5.875-6.768c.446 0 .697-.262.697-.72 0-.447-.25-.708-.697-.708-.447 0-.709.261-.709.708 0 .458.262.72.709.72zm-1.123 9.199c1.014 0 1.591-.513 1.591-1.7v-6.333h-.992v6.289c0 .665-.283.883-.73.883-.272 0-.6-.077-.817-.164l-.11.807c.197.12.698.218 1.058.218zm4.98-2.322c.775 0 1.44-.305 1.985-.752l.065.643h.861v-5.602h-.992v4.163c-.294.273-.98.687-1.624.687-.828 0-1.013-.425-1.013-1.199v-3.651h-.992v3.804c0 1.253.523 1.907 1.71 1.907zm5.636-.109v-4.174c.294-.262.992-.676 1.635-.676.763 0 1.046.425 1.046 1.199v3.651h.992v-3.804c0-1.264-.523-1.918-1.722-1.918-.774 0-1.472.349-2.017.785l-.054-.665h-.872v5.602h.992zm7.575.13c1.123 0 2.114-.544 2.3-1.841l-.872-.185c-.142.828-.632 1.199-1.395 1.199-.894 0-1.57-.502-1.57-2.17 0-1.59.796-2.027 1.602-2.027.785 0 1.167.425 1.254 1.254l.948-.131c-.076-1.297-.905-1.951-2.158-1.951-1.679 0-2.681 1.024-2.681 2.975 0 1.679.719 2.878 2.572 2.878zm5.395 0c.523 0 1.1-.184 1.373-.37l-.174-.719c-.24.13-.643.272-.98.272-.677 0-.807-.327-.807-.915v-3.204h1.547v-.796h-1.547v-1.777l-.992.153v1.624h-.861v.796h.86v3.335c0 1.122.535 1.602 1.581 1.602zm2.888-6.811c.447 0 .709-.262.709-.72 0-.457-.262-.708-.709-.708-.446 0-.697.25-.697.708 0 .458.25.72.697.72zm.48 6.681v-5.602h-.992v5.602h.992zm3.956.13c1.886 0 2.649-1.198 2.649-3.04 0-1.668-.73-2.812-2.507-2.812-1.787 0-2.725 1.133-2.725 2.943 0 1.656.643 2.91 2.583 2.91zm.055-.795c-1.09 0-1.613-.676-1.613-2.158 0-1.493.665-2.082 1.657-2.082.97 0 1.515.513 1.515 2.06 0 1.592-.589 2.18-1.56 2.18zm5.003.665v-4.174c.294-.262.992-.676 1.635-.676.763 0 1.046.425 1.046 1.199v3.651h.992v-3.804c0-1.264-.523-1.918-1.722-1.918-.774 0-1.472.349-2.017.785l-.054-.665h-.872v5.602h.992zm7.128.13c1.362 0 2.19-.631 2.19-1.7 0-1.253-.97-1.46-1.994-1.678-.785-.163-1.242-.327-1.242-.905 0-.425.261-.784 1.079-.784.817 0 1.035.392 1.166 1.035l.894-.196c-.175-.992-.72-1.624-2.05-1.624-1.133 0-2.07.556-2.07 1.69 0 1.307 1.1 1.503 2.016 1.689.763.152 1.22.261 1.22.883 0 .6-.49.806-1.166.806-.991 0-1.242-.48-1.395-1.079l-.882.24c.174 1.123.948 1.624 2.234 1.624zM15.709 155.52c1.384 0 2.812-.589 3.084-2.332l-.904-.186c-.25 1.112-.861 1.657-2.115 1.657-1.58 0-2.496-.916-2.496-3.183 0-2.169.992-3.248 2.627-3.248 1.297 0 1.853.643 2.006 1.875l.937-.098c-.12-1.842-1.275-2.649-2.932-2.649-2.245 0-3.673 1.548-3.673 4.208 0 2.365.992 3.956 3.466 3.956zm6.649 0c1.885 0 2.648-1.199 2.648-3.04 0-1.668-.73-2.813-2.507-2.813-1.787 0-2.725 1.134-2.725 2.943 0 1.657.643 2.91 2.584 2.91zm.054-.796c-1.09 0-1.613-.675-1.613-2.158 0-1.493.665-2.081 1.657-2.081.97 0 1.515.512 1.515 2.06 0 1.59-.589 2.18-1.559 2.18zm5.003.665v-4.174c.294-.262.992-.676 1.635-.676.763 0 1.046.425 1.046 1.199v3.651h.992v-3.804c0-1.264-.523-1.918-1.722-1.918-.774 0-1.472.349-2.017.785l-.054-.665h-.872v5.602h.992zm5.875-6.768c.446 0 .697-.262.697-.72 0-.446-.25-.708-.697-.708-.447 0-.709.262-.709.708 0 .458.262.72.709.72zm-1.123 9.199c1.014 0 1.591-.512 1.591-1.7v-6.333h-.992v6.289c0 .665-.283.883-.73.883-.272 0-.6-.077-.817-.164l-.11.807c.197.12.698.218 1.058.218zm4.98-2.322c.775 0 1.44-.305 1.985-.752l.065.643h.861v-5.602h-.992v4.164c-.294.272-.98.686-1.624.686-.828 0-1.013-.425-1.013-1.199v-3.651h-.992v3.804c0 1.253.523 1.907 1.71 1.907zm5.636-.109v-4.174c.294-.262.992-.676 1.635-.676.763 0 1.046.425 1.046 1.199v3.651h.992v-3.804c0-1.264-.523-1.918-1.722-1.918-.774 0-1.472.349-2.017.785l-.054-.665h-.872v5.602h.992zm7.575.131c1.123 0 2.114-.545 2.3-1.842l-.872-.185c-.142.828-.632 1.199-1.395 1.199-.894 0-1.57-.502-1.57-2.17 0-1.59.796-2.027 1.602-2.027.785 0 1.167.426 1.254 1.254l.948-.13c-.076-1.298-.905-1.952-2.158-1.952-1.679 0-2.681 1.025-2.681 2.976 0 1.678.719 2.877 2.572 2.877zm5.395 0c.523 0 1.1-.185 1.373-.37l-.174-.72c-.24.13-.643.273-.98.273-.677 0-.807-.327-.807-.916v-3.204h1.547v-.796h-1.547v-1.777l-.992.153v1.624h-.861v.796h.86v3.335c0 1.122.535 1.602 1.581 1.602zm2.888-6.812c.447 0 .709-.262.709-.72 0-.457-.262-.708-.709-.708-.446 0-.697.25-.697.709 0 .457.25.719.697.719zm.48 6.681v-5.602h-.992v5.602h.992zm3.956.131c1.886 0 2.649-1.199 2.649-3.04 0-1.668-.73-2.813-2.507-2.813-1.787 0-2.725 1.134-2.725 2.943 0 1.657.643 2.91 2.583 2.91zm.055-.796c-1.09 0-1.613-.675-1.613-2.158 0-1.493.665-2.081 1.657-2.081.97 0 1.515.512 1.515 2.06 0 1.59-.589 2.18-1.56 2.18zm5.003.665v-4.174c.294-.262.992-.676 1.635-.676.763 0 1.046.425 1.046 1.199v3.651h.992v-3.804c0-1.264-.523-1.918-1.722-1.918-.774 0-1.472.349-2.017.785l-.054-.665h-.872v5.602h.992zm7.128.131c1.362 0 2.19-.632 2.19-1.7 0-1.254-.97-1.46-1.994-1.679-.785-.163-1.242-.327-1.242-.904 0-.425.261-.785 1.079-.785.817 0 1.035.392 1.166 1.035l.894-.196c-.175-.992-.72-1.624-2.05-1.624-1.133 0-2.07.556-2.07 1.69 0 1.307 1.1 1.504 2.016 1.689.763.152 1.22.261 1.22.883 0 .6-.49.806-1.166.806-.991 0-1.242-.48-1.395-1.079l-.882.24c.174 1.123.948 1.624 2.234 1.624zM132.997 95.443l.773-2.343h3.03l.796 2.343h1.101l-2.747-7.891h-1.308l-2.659 7.891h1.014zm3.553-3.204h-2.54l1.265-3.772h.01l1.265 3.772zm5.21 3.335c.806 0 1.373-.305 1.853-.741l.01.01.077.6h.828v-8.229h-.97v3.03c-.392-.316-.926-.523-1.57-.523-1.242 0-2.365.795-2.365 3.008 0 2.038.861 2.845 2.137 2.845zm.294-.829c-.981 0-1.406-.654-1.406-2.016 0-1.297.392-2.158 1.471-2.158.643 0 1.167.294 1.428.49v2.998c-.349.349-.915.686-1.493.686zm6.649.698l2.103-5.602h-1.014l-1.624 4.61h-.01l-1.646-4.61h-1.08l2.137 5.602h1.134zm5.286.13c1.122 0 1.994-.533 2.223-1.623l-.872-.196c-.152.632-.523.991-1.319.991-.893 0-1.525-.446-1.57-1.874h3.772c.033-.262.044-.513.044-.73 0-1.385-.654-2.42-2.224-2.42-1.438 0-2.637.883-2.637 2.932 0 1.537.599 2.92 2.583 2.92zm1.253-3.487h-2.78c.055-1.112.775-1.559 1.516-1.559.883 0 1.264.556 1.264 1.559zm3.455 3.357v-4.076c.458-.425 1.286-.709 1.984-.61v-1.025l-.207-.011c-.785 0-1.373.261-1.864.926l-.076-.806h-.829v5.602h.992zm5.526.13c1.297 0 2.365-.882 2.365-3.062 0-2.06-.882-2.79-2.038-2.79-.817 0-1.406.305-1.896.741v-3.248h-.981v8.229h.86l.055-.49h.011c.403.316.96.62 1.624.62zm-.12-.839c-.643 0-1.188-.392-1.438-.577v-2.9c.327-.315.948-.697 1.57-.697.926 0 1.329.61 1.329 1.94 0 1.363-.403 2.234-1.46 2.234zm5.679.84c1.362 0 2.19-.632 2.19-1.7 0-1.254-.97-1.461-1.994-1.679-.785-.164-1.242-.327-1.242-.905 0-.425.261-.784 1.079-.784.817 0 1.035.392 1.166 1.035l.894-.196c-.175-.992-.72-1.624-2.05-1.624-1.133 0-2.07.556-2.07 1.69 0 1.307 1.1 1.503 2.016 1.689.763.152 1.22.261 1.22.882 0 .6-.49.807-1.166.807-.991 0-1.242-.48-1.395-1.079l-.883.24c.175 1.122.949 1.624 2.235 1.624zm8.098 0c1.886 0 2.649-1.2 2.649-3.041 0-1.668-.73-2.812-2.507-2.812-1.788 0-2.725 1.133-2.725 2.943 0 1.656.643 2.91 2.583 2.91zm.055-.796c-1.09 0-1.614-.676-1.614-2.158 0-1.493.665-2.082 1.657-2.082.97 0 1.515.513 1.515 2.06 0 1.592-.588 2.18-1.558 2.18zm5.122.665v-4.807h1.559v-.795h-1.559v-.938c0-.784.36-.991.872-.991.262 0 .567.065.785.141l.044-.763c-.186-.087-.567-.185-1.025-.185-1.068 0-1.668.6-1.668 1.831v.905h-.828v.795h.828v4.807h.992zm5.875 0V88.62h.022l2.343 6.823h1.046l2.387-6.812h.011v6.812h.949v-7.891h-1.505l-2.321 6.714h-.011l-2.322-6.714h-1.525v7.891h.926zm10.071.13c.785 0 1.362-.25 1.798-.686.055.36.306.665.861.665.273 0 .556-.065.774-.174l-.043-.622c-.142.044-.24.066-.338.066-.284 0-.338-.131-.338-.436V91.65c0-1.395-.621-1.93-2.006-1.93-1.297 0-1.972.491-2.147 1.538l.872.163c.12-.621.414-.926 1.188-.926.916 0 1.112.436 1.112 1.144v.545c-.153-.01-.316-.022-.49-.022-1.58 0-2.9.414-2.9 1.908 0 .545.24 1.504 1.657 1.504zm.305-.773c-.763 0-.937-.414-.937-.894 0-.959 1.035-1.035 1.81-1.035.206 0 .413.01.566.032v1.265c-.305.327-.861.632-1.439.632zm5.243.643v-4.174c.294-.262.992-.676 1.635-.676.763 0 1.046.425 1.046 1.199v3.651h.992v-3.804c0-1.264-.523-1.918-1.722-1.918-.774 0-1.472.349-2.017.785l-.054-.665h-.872v5.602h.992zm6.343 0v-4.174c.294-.262.992-.676 1.635-.676.763 0 1.046.425 1.046 1.199v3.651h.992v-3.804c0-1.264-.523-1.918-1.722-1.918-.774 0-1.471.349-2.016.785l-.055-.665h-.872v5.602h.992zm7.586.13c1.123 0 1.995-.533 2.224-1.623l-.872-.196c-.153.632-.524.991-1.32.991-.893 0-1.525-.446-1.569-1.874h3.771c.033-.262.044-.513.044-.73 0-1.385-.654-2.42-2.223-2.42-1.44 0-2.638.883-2.638 2.932 0 1.537.6 2.92 2.583 2.92zm1.253-3.487h-2.779c.055-1.112.774-1.559 1.515-1.559.883 0 1.264.556 1.264 1.559zm3.456 3.357v-4.076c.457-.425 1.286-.709 1.983-.61v-1.025l-.207-.011c-.785 0-1.373.261-1.864.926l-.076-.806h-.828v5.602h.992zM132.997 125.416l.773-2.343h3.03l.796 2.343h1.101l-2.747-7.891h-1.308l-2.659 7.891h1.014zm3.553-3.204h-2.54l1.265-3.771h.01l1.265 3.77zm4.403 3.204v-8.229h-.992v8.23h.992zm3.477.13c.523 0 1.1-.184 1.373-.37l-.174-.719c-.24.13-.643.272-.981.272-.676 0-.807-.327-.807-.915v-3.204h1.548v-.796h-1.548v-1.777l-.991.153v1.624h-.861v.796h.86v3.335c0 1.122.535 1.602 1.581 1.602zm3.368-.13v-4.174c.294-.262.992-.676 1.635-.676.763 0 1.046.425 1.046 1.199v3.651h.992v-3.804c0-1.264-.523-1.918-1.711-1.918-.785 0-1.428.327-1.973.752v-3.259h-.98v8.23h.99zm7.586.13c1.885 0 2.648-1.198 2.648-3.04 0-1.668-.73-2.812-2.506-2.812-1.788 0-2.725 1.133-2.725 2.943 0 1.656.643 2.91 2.583 2.91zm.054-.795c-1.09 0-1.613-.676-1.613-2.158 0-1.493.665-2.082 1.657-2.082.97 0 1.515.513 1.515 2.06 0 1.592-.589 2.18-1.559 2.18zm5.7.774c.775 0 1.44-.305 1.984-.752l.066.643h.86v-5.602h-.991v4.163c-.294.273-.981.687-1.624.687-.828 0-1.014-.425-1.014-1.199v-3.651h-.992v3.804c0 1.253.524 1.907 1.712 1.907zm6.627 2.354c1.406 0 2.878-.414 2.878-1.787 0-1.101-.676-1.384-1.831-1.46l-1.559-.11c-.6-.043-.72-.207-.72-.425 0-.229.197-.381.35-.523.283.098.632.13 1.002.13 1.286 0 2.29-.74 2.29-2.005 0-.457-.142-.904-.415-1.22.283-.087.73-.142 1.068-.12v-.796c-.163-.054-.316-.087-.49-.087-.414 0-.709.327-.883.73-.37-.37-.937-.512-1.624-.512-1.45 0-2.376.828-2.376 2.06 0 .72.316 1.297.828 1.57-.392.305-.741.62-.741 1.1 0 .404.229.622.61.774v.011c-.457.218-.904.654-.904 1.286 0 .665.425 1.384 2.517 1.384zm.077-4.992c-.992 0-1.395-.468-1.395-1.198 0-.862.632-1.2 1.417-1.2.839 0 1.351.382 1.351 1.221 0 .752-.556 1.177-1.373 1.177zm.043 4.208c-1.264 0-1.645-.316-1.645-.785 0-.37.196-.6.62-.883l1.821.109c.763.054.937.272.937.676 0 .588-.577.883-1.733.883zm4.905-1.679v-4.174c.294-.262.992-.676 1.635-.676.763 0 1.046.425 1.046 1.199v3.651h.992v-3.804c0-1.264-.523-1.918-1.711-1.918-.785 0-1.428.327-1.973.752v-3.259h-.98v8.23h.991zM135.122 155.39c1.711 0 2.921-.524 2.921-2.137 0-1.09-.6-1.787-1.886-1.951v-.022c.861-.196 1.57-.74 1.57-1.853 0-1.079-.512-1.929-2.376-1.929h-2.714v7.891h2.485zm-.349-4.437h-1.144v-2.627h1.438c1.08 0 1.646.262 1.646 1.243 0 1.144-1.079 1.384-1.94 1.384zm.207 3.597h-1.351v-2.768h1.57c1.002 0 1.787.36 1.787 1.406 0 1.188-.861 1.362-2.006 1.362zm6.573.97c1.122 0 1.994-.534 2.223-1.624l-.872-.196c-.152.632-.523.992-1.319.992-.893 0-1.526-.447-1.57-1.875h3.772c.033-.262.044-.512.044-.73 0-1.384-.654-2.42-2.224-2.42-1.439 0-2.638.883-2.638 2.932 0 1.537.6 2.921 2.584 2.921zm1.253-3.488h-2.78c.055-1.111.775-1.558 1.516-1.558.883 0 1.264.556 1.264 1.558zm4.687 3.488c1.122 0 2.114-.545 2.3-1.842l-.872-.185c-.142.828-.633 1.199-1.396 1.199-.893 0-1.57-.502-1.57-2.17 0-1.59.797-2.027 1.603-2.027.785 0 1.166.426 1.254 1.254l.948-.13c-.077-1.298-.905-1.952-2.158-1.952-1.679 0-2.682 1.025-2.682 2.976 0 1.678.72 2.877 2.573 2.877zm5.024 0c.785 0 1.363-.25 1.799-.687.054.36.305.665.86.665.273 0 .557-.065.775-.174l-.044-.621c-.142.043-.24.065-.338.065-.283 0-.338-.13-.338-.436v-2.736c0-1.395-.621-1.929-2.005-1.929-1.297 0-1.973.49-2.147 1.537l.872.163c.12-.62.414-.926 1.188-.926.915 0 1.111.436 1.111 1.144v.545c-.152-.01-.316-.021-.49-.021-1.58 0-2.9.414-2.9 1.907 0 .545.24 1.504 1.657 1.504zm.305-.774c-.762 0-.937-.414-.937-.894 0-.959 1.036-1.035 1.81-1.035.207 0 .414.01.566.033v1.264c-.305.327-.86.632-1.439.632zm5.94.752c.774 0 1.44-.305 1.984-.752l.066.643h.86v-5.602h-.991v4.164c-.294.272-.981.686-1.624.686-.828 0-1.014-.425-1.014-1.199v-3.651h-.992v3.804c0 1.253.524 1.907 1.712 1.907zm6.42.022c1.363 0 2.191-.632 2.191-1.7 0-1.254-.97-1.46-1.994-1.679-.785-.163-1.243-.327-1.243-.904 0-.425.262-.785 1.079-.785s1.035.392 1.166 1.035l.894-.196c-.174-.992-.72-1.624-2.05-1.624-1.133 0-2.07.556-2.07 1.69 0 1.307 1.1 1.504 2.016 1.689.763.152 1.221.261 1.221.883 0 .6-.49.806-1.166.806-.992 0-1.243-.48-1.395-1.079l-.883.24c.174 1.123.948 1.624 2.234 1.624zm5.766 0c1.123 0 1.995-.534 2.224-1.624l-.872-.196c-.153.632-.524.992-1.32.992-.893 0-1.525-.447-1.569-1.875h3.771c.033-.262.044-.512.044-.73 0-1.384-.654-2.42-2.223-2.42-1.44 0-2.638.883-2.638 2.932 0 1.537.6 2.921 2.583 2.921zm1.254-3.488h-2.78c.055-1.111.774-1.558 1.515-1.558.883 0 1.265.556 1.265 1.558zM301.26 95.443v-7.891h-.566c-.502.578-1.167.828-2.18.915l.076.807c.36 0 1.319-.142 1.69-.36v6.529h.98zm4.35.13c2.146 0 2.648-1.732 2.648-4.195 0-2.202-.382-3.968-2.529-3.968-2.114 0-2.703 1.766-2.703 4.098 0 2.344.436 4.066 2.583 4.066zm.043-.817c-1.406 0-1.635-1.34-1.635-3.215 0-2.027.327-3.292 1.678-3.292 1.341 0 1.57 1.265 1.57 3.205 0 1.983-.272 3.302-1.613 3.302zM301.359 125.416v-7.891h-.567c-.502.578-1.166.828-2.18.916l.076.806c.36 0 1.319-.142 1.69-.36v6.53h.98zm6.158 0v-1.94h.937v-.85h-.926v-5.101h-1.243l-3.368 5.21v.741h3.64v1.94h.96zm-.949-2.79h-2.67l2.67-4.12v4.12zM305.261 155.389L308.476 148.261 308.476 147.498 303.506 147.498 303.506 148.37 307.429 148.37 304.203 155.389zM334.242 95.574c2.354 0 2.801-2.256 2.801-4.338 0-2.06-.436-3.826-2.474-3.826-1.472 0-2.507.948-2.507 2.66 0 1.45.698 2.354 2.082 2.354.828 0 1.57-.414 1.94-.829-.033 1.679-.436 3.161-1.788 3.161-.708 0-1.166-.294-1.373-1.166l-.894.262c.24 1.264 1.112 1.722 2.213 1.722zm.098-3.979c-.861 0-1.286-.544-1.286-1.558 0-1.243.61-1.81 1.439-1.81 1.297 0 1.482 1.32 1.536 2.507-.403.48-1.035.861-1.69.861zm6.049 3.979c1.537 0 2.54-.938 2.54-2.355 0-1.21-.654-1.82-1.679-2.005v-.033c.698-.174 1.537-.719 1.537-1.907 0-1.123-.741-1.864-2.125-1.864-1.167 0-2.126.436-2.387 1.755l.882.196c.197-.72.47-1.123 1.396-1.123.937 0 1.242.524 1.242 1.178 0 .872-.654 1.45-1.755 1.45h-.501v.838h.708c.992 0 1.657.371 1.657 1.494 0 1.09-.698 1.526-1.493 1.526-1.046 0-1.243-.502-1.384-1.178l-.938.197c.153 1.308 1.068 1.83 2.3 1.83zm5.232-4.207c1.188 0 1.809-.84 1.809-2.06 0-1.145-.501-1.897-1.722-1.897-1.21 0-1.831.84-1.831 2.038 0 1.014.436 1.919 1.744 1.919zm.196 4.25l4.774-8.065h-.883l-4.785 8.065h.894zm-.164-4.97c-.719 0-.915-.512-.915-1.264 0-.654.218-1.264.937-1.264.709 0 .894.512.894 1.231 0 .796-.207 1.297-.916 1.297zm4.338 4.927c1.188 0 1.81-.84 1.81-2.06 0-1.145-.502-1.897-1.722-1.897-1.21 0-1.832.84-1.832 2.038 0 1.014.436 1.919 1.744 1.919zm.033-.72c-.72 0-.915-.512-.915-1.264 0-.654.217-1.264.937-1.264.708 0 .894.512.894 1.231 0 .796-.207 1.297-.916 1.297zM334.427 125.547c1.613 0 2.616-.937 2.616-2.17 0-1.23-.709-1.721-1.646-2.135.916-.48 1.504-1.101 1.504-2.05 0-1.122-.85-1.809-2.278-1.809-1.395 0-2.441.687-2.441 2.071 0 .948.621 1.559 1.395 1.918-.96.436-1.657 1.058-1.657 2.148 0 1.122.752 2.027 2.507 2.027zm.153-4.665c-.687-.349-1.385-.763-1.385-1.57 0-.708.524-1.111 1.374-1.111.926 0 1.33.37 1.33 1.046 0 .698-.556 1.243-1.32 1.635zm-.12 3.826c-1.112 0-1.526-.524-1.526-1.254 0-.872.621-1.297 1.406-1.667.763.283 1.668.675 1.668 1.59 0 .688-.415 1.33-1.548 1.33zm6.147.839c1.471 0 2.463-.948 2.463-2.67 0-1.363-.708-2.267-2.092-2.267-.818 0-1.57.425-1.94.839.021-1.428.392-3.248 1.852-3.248.589 0 .992.218 1.188 1.1l.894-.24c-.24-1.253-.959-1.678-1.983-1.678-2.387 0-2.91 2.573-2.91 4.338 0 2.06.468 3.826 2.528 3.826zm.033-.807c-1.254 0-1.483-1.253-1.548-2.441.403-.425 1.046-.85 1.69-.85.871 0 1.286.49 1.286 1.504 0 1.199-.6 1.787-1.428 1.787zm4.98-3.4c1.189 0 1.81-.84 1.81-2.06 0-1.145-.501-1.897-1.722-1.897-1.21 0-1.831.84-1.831 2.038 0 1.014.436 1.919 1.744 1.919zm.197 4.25l4.774-8.065h-.883l-4.785 8.065h.894zm-.164-4.97c-.719 0-.915-.512-.915-1.264 0-.654.218-1.264.937-1.264.709 0 .894.512.894 1.231 0 .796-.207 1.297-.916 1.297zm4.338 4.927c1.188 0 1.81-.84 1.81-2.06 0-1.145-.502-1.897-1.722-1.897-1.21 0-1.832.84-1.832 2.039 0 1.013.436 1.918 1.744 1.918zm.033-.72c-.72 0-.915-.512-.915-1.264 0-.654.217-1.264.937-1.264.708 0 .894.512.894 1.232 0 .795-.207 1.297-.916 1.297zM334.558 155.52c2.354 0 2.801-2.256 2.801-4.338 0-2.06-.436-3.826-2.474-3.826-1.472 0-2.507.949-2.507 2.66 0 1.45.698 2.354 2.082 2.354.828 0 1.57-.414 1.94-.828-.033 1.678-.436 3.16-1.788 3.16-.708 0-1.166-.294-1.373-1.166l-.894.262c.24 1.264 1.112 1.722 2.213 1.722zm.098-3.978c-.861 0-1.286-.545-1.286-1.559 0-1.242.61-1.81 1.439-1.81 1.297 0 1.482 1.32 1.536 2.508-.403.48-1.035.86-1.689.86zm5.471 3.847l3.216-7.128v-.763h-4.97v.872h3.923l-3.226 7.02h1.057zm5.494-4.076c1.188 0 1.809-.84 1.809-2.06 0-1.144-.501-1.897-1.722-1.897-1.21 0-1.831.84-1.831 2.039 0 1.013.436 1.918 1.744 1.918zm.196 4.25l4.774-8.065h-.883l-4.785 8.066h.894zm-.164-4.97c-.719 0-.915-.512-.915-1.264 0-.654.218-1.264.937-1.264.709 0 .894.512.894 1.232 0 .795-.207 1.297-.916 1.297zm4.338 4.927c1.188 0 1.81-.84 1.81-2.06 0-1.144-.502-1.896-1.722-1.896-1.21 0-1.832.839-1.832 2.038 0 1.013.436 1.918 1.744 1.918zm.033-.72c-.72 0-.915-.512-.915-1.264 0-.654.217-1.264.937-1.264.708 0 .894.512.894 1.232 0 .795-.207 1.297-.916 1.297z"/>
            <path fill="#6F6F6F" fill-rule="nonzero" d="M15.709 69.234c1.384 0 2.812-.589 3.084-2.333l-.904-.185c-.25 1.112-.861 1.657-2.115 1.657-1.58 0-2.496-.916-2.496-3.183 0-2.169.992-3.248 2.627-3.248 1.297 0 1.853.643 2.006 1.875l.937-.098c-.12-1.842-1.275-2.649-2.932-2.649-2.245 0-3.673 1.548-3.673 4.207 0 2.365.992 3.957 3.466 3.957zm5.798 0c.785 0 1.363-.251 1.799-.687.054.36.305.665.86.665.273 0 .557-.065.775-.174l-.044-.622c-.142.044-.24.066-.338.066-.283 0-.338-.131-.338-.436V65.31c0-1.395-.62-1.93-2.005-1.93-1.297 0-1.973.491-2.147 1.538l.872.163c.12-.621.414-.926 1.188-.926.915 0 1.111.436 1.111 1.144v.545c-.152-.01-.316-.022-.49-.022-1.58 0-2.9.414-2.9 1.908 0 .545.24 1.504 1.657 1.504zm.306-.774c-.763 0-.938-.414-.938-.894 0-.959 1.036-1.035 1.81-1.035.207 0 .414.01.566.032v1.265c-.305.327-.86.632-1.438.632zm6.005.774c.523 0 1.1-.186 1.373-.37l-.174-.72c-.24.13-.643.272-.98.272-.677 0-.807-.327-.807-.915v-3.205h1.547v-.795H27.23v-1.777l-.992.153V63.5h-.861v.795h.86v3.335c0 1.123.535 1.603 1.581 1.603zm4.61 0c1.123 0 1.995-.534 2.224-1.624l-.872-.196c-.153.632-.523.991-1.319.991-.894 0-1.526-.447-1.57-1.874h3.772c.033-.262.043-.513.043-.73 0-1.385-.653-2.42-2.223-2.42-1.439 0-2.638.883-2.638 2.932 0 1.536.6 2.92 2.584 2.92zm1.254-3.488h-2.78c.055-1.112.774-1.559 1.516-1.559.882 0 1.264.556 1.264 1.559zm4.447 5.82c1.406 0 2.877-.414 2.877-1.787 0-1.101-.675-1.385-1.83-1.46l-1.56-.11c-.599-.043-.719-.207-.719-.425 0-.229.196-.381.349-.523.283.098.632.13 1.003.13 1.286 0 2.289-.74 2.289-2.005 0-.458-.142-.904-.415-1.22.284-.088.73-.142 1.069-.12v-.796c-.164-.055-.317-.087-.49-.087-.415 0-.71.327-.884.73-.37-.37-.937-.512-1.624-.512-1.45 0-2.376.828-2.376 2.06 0 .72.316 1.297.829 1.57-.393.304-.742.62-.742 1.1 0 .403.23.621.61.774v.01c-.457.219-.904.655-.904 1.287 0 .665.425 1.384 2.518 1.384zm.076-4.992c-.992 0-1.395-.468-1.395-1.199 0-.86.632-1.199 1.417-1.199.84 0 1.351.382 1.351 1.221 0 .752-.555 1.177-1.373 1.177zm.044 4.207c-1.265 0-1.646-.316-1.646-.784 0-.37.196-.6.621-.883l1.82.109c.763.054.938.272.938.676 0 .588-.578.882-1.733.882zm6.147-1.547c1.886 0 2.649-1.2 2.649-3.041 0-1.668-.73-2.812-2.507-2.812-1.788 0-2.725 1.133-2.725 2.943 0 1.656.643 2.91 2.583 2.91zm.054-.796c-1.09 0-1.613-.676-1.613-2.158 0-1.493.665-2.082 1.657-2.082.97 0 1.515.512 1.515 2.06 0 1.591-.588 2.18-1.559 2.18zm5.003.665v-4.076c.458-.426 1.286-.709 1.984-.61v-1.025l-.207-.011c-.785 0-1.373.261-1.864.926l-.076-.806h-.829v5.602h.992zm3.063 2.43c.883 0 1.395-.425 1.842-1.613l2.42-6.42h-1.014l-1.537 4.448h-.01L52.733 63.5h-1.1l2.08 5.667-.26.687c-.251.665-.6.872-1.003.872-.295 0-.687-.098-.894-.174l-.12.773c.218.098.665.207 1.079.207zM133.574 69.103v-6.616l3.88 6.616h1.21v-7.891h-.926v6.55l-3.782-6.55h-1.32v7.89h.938zm8.404.13c.784 0 1.362-.25 1.798-.686.055.36.305.665.861.665.273 0 .556-.065.774-.174l-.044-.622c-.141.044-.24.066-.338.066-.283 0-.337-.131-.337-.436V65.31c0-1.395-.622-1.93-2.006-1.93-1.297 0-1.973.491-2.147 1.538l.872.163c.12-.621.414-.926 1.188-.926.915 0 1.112.436 1.112 1.144v.545c-.153-.01-.316-.022-.49-.022-1.581 0-2.9.414-2.9 1.908 0 .545.24 1.504 1.657 1.504zm.305-.773c-.763 0-.937-.414-.937-.894 0-.959 1.035-1.035 1.809-1.035.207 0 .414.01.567.032v1.265c-.306.327-.861.632-1.44.632zm5.242.643v-4.185c.295-.273.981-.665 1.548-.665.72 0 .872.425.872 1.177v3.673h.992v-3.815c0-.142-.011-.283-.022-.414.327-.273.97-.621 1.504-.621.72 0 .872.425.872 1.177v3.673h.992v-3.815c0-1.253-.414-1.907-1.591-1.907-.763 0-1.395.338-1.94.774-.218-.524-.665-.774-1.406-.774-.763 0-1.352.327-1.908.752l-.054-.632h-.85v5.602h.991zm10.682.13c1.122 0 1.994-.533 2.223-1.623l-.872-.196c-.152.632-.523.991-1.319.991-.893 0-1.525-.447-1.569-1.874h3.771c.033-.262.044-.513.044-.73 0-1.385-.654-2.42-2.224-2.42-1.438 0-2.637.883-2.637 2.932 0 1.536.6 2.92 2.583 2.92zm1.253-3.487h-2.78c.055-1.112.775-1.559 1.516-1.559.883 0 1.264.556 1.264 1.559zM264.926 69.757l.588-.556-.97-1.046c.698-.752 1.025-1.799 1.025-3.15 0-2.191-1.09-3.935-3.477-3.935-2.409 0-3.706 1.744-3.706 4.087 0 2.366 1.123 4.077 3.542 4.077.796 0 1.46-.164 1.995-.556l1.003 1.079zm-2.943-1.384c-1.515 0-2.55-1.09-2.55-3.227 0-2.103 1.1-3.193 2.626-3.193 1.504 0 2.496 1.068 2.496 3.15 0 1.024-.229 1.81-.632 2.398l-1.428-1.57-.621.589 1.439 1.515c-.382.229-.84.338-1.33.338zm6.703.839c.774 0 1.439-.305 1.984-.752l.065.643h.861V63.5h-.992v4.163c-.294.273-.98.687-1.624.687-.828 0-1.013-.425-1.013-1.2v-3.65h-.992v3.804c0 1.253.523 1.907 1.711 1.907zm6.877.022c1.123 0 1.995-.534 2.224-1.624l-.872-.196c-.153.632-.523.991-1.319.991-.894 0-1.526-.447-1.57-1.874h3.772c.033-.262.043-.513.043-.73 0-1.385-.654-2.42-2.223-2.42-1.439 0-2.638.883-2.638 2.932 0 1.536.6 2.92 2.583 2.92zm1.254-3.488h-2.78c.055-1.112.774-1.559 1.516-1.559.882 0 1.264.556 1.264 1.559zm4.24 3.488c1.362 0 2.19-.632 2.19-1.7 0-1.254-.97-1.461-1.994-1.68-.785-.163-1.243-.326-1.243-.904 0-.425.262-.784 1.08-.784.817 0 1.035.392 1.166 1.035l.893-.196c-.174-.992-.719-1.624-2.049-1.624-1.133 0-2.07.556-2.07 1.69 0 1.307 1.1 1.503 2.016 1.689.763.152 1.22.261 1.22.882 0 .6-.49.807-1.166.807-.992 0-1.242-.48-1.395-1.08l-.883.24c.175 1.123.949 1.625 2.235 1.625zm5.286 0c.523 0 1.1-.186 1.373-.37l-.174-.72c-.24.13-.643.272-.981.272-.676 0-.807-.327-.807-.915v-3.205h1.548v-.795h-1.548v-1.777l-.991.153V63.5h-.862v.795h.862v3.335c0 1.123.534 1.603 1.58 1.603zm2.888-6.812c.447 0 .709-.262.709-.72 0-.458-.262-.708-.709-.708-.447 0-.697.25-.697.708 0 .458.25.72.697.72zm.48 6.68v-5.601h-.992v5.602h.992zm3.956.132c1.886 0 2.649-1.2 2.649-3.041 0-1.668-.73-2.812-2.507-2.812-1.788 0-2.725 1.133-2.725 2.943 0 1.656.643 2.91 2.583 2.91zm.055-.796c-1.09 0-1.613-.676-1.613-2.158 0-1.493.665-2.082 1.656-2.082.97 0 1.515.512 1.515 2.06 0 1.591-.588 2.18-1.558 2.18zm5.003.665v-4.175c.294-.261.991-.675 1.634-.675.763 0 1.047.425 1.047 1.199v3.65h.992V65.3c0-1.264-.524-1.918-1.722-1.918-.774 0-1.472.349-2.017.785l-.054-.665h-.872v5.602h.992zm7.128.13c1.362 0 2.19-.631 2.19-1.7 0-1.253-.97-1.46-1.994-1.678-.785-.164-1.243-.327-1.243-.905 0-.425.262-.784 1.08-.784.817 0 1.035.392 1.166 1.035l.893-.196c-.174-.992-.719-1.624-2.049-1.624-1.133 0-2.07.556-2.07 1.69 0 1.307 1.1 1.503 2.016 1.689.763.152 1.22.261 1.22.882 0 .6-.49.807-1.166.807-.992 0-1.242-.48-1.395-1.08l-.883.24c.175 1.123.949 1.625 2.235 1.625zM326.354 69.234c1.46 0 2.79-.654 2.79-2.322 0-1.526-1.253-1.896-2.408-2.234-.981-.295-1.886-.567-1.886-1.526 0-.698.436-1.232 1.646-1.232 1.22 0 1.526.73 1.646 1.483l.937-.11c-.163-1.689-1.21-2.223-2.594-2.223-1.526 0-2.66.828-2.66 2.18 0 1.624 1.276 1.962 2.442 2.289.97.272 1.853.534 1.853 1.515 0 1.046-.905 1.33-1.755 1.33-1.351 0-1.744-.73-1.929-1.57l-.96.142c.208 1.624 1.233 2.278 2.878 2.278zm6.344 0c1.122 0 2.114-.545 2.3-1.842l-.872-.186c-.142.829-.633 1.2-1.396 1.2-.893 0-1.57-.502-1.57-2.17 0-1.59.797-2.027 1.603-2.027.785 0 1.166.425 1.254 1.254l.948-.131c-.076-1.297-.905-1.951-2.158-1.951-1.679 0-2.681 1.024-2.681 2.975 0 1.679.719 2.878 2.572 2.878zm5.874 0c1.886 0 2.649-1.2 2.649-3.041 0-1.668-.73-2.812-2.507-2.812-1.787 0-2.725 1.133-2.725 2.943 0 1.656.643 2.91 2.583 2.91zm.055-.796c-1.09 0-1.613-.676-1.613-2.158 0-1.493.665-2.082 1.657-2.082.97 0 1.515.512 1.515 2.06 0 1.591-.589 2.18-1.559 2.18zm5.003.665v-4.076c.458-.426 1.286-.709 1.983-.61v-1.025l-.207-.011c-.784 0-1.373.261-1.863.926l-.077-.806h-.828v5.602h.992zm5.21.13c1.122 0 1.994-.533 2.223-1.623l-.872-.196c-.152.632-.523.991-1.319.991-.893 0-1.526-.447-1.57-1.874h3.772c.033-.262.044-.513.044-.73 0-1.385-.654-2.42-2.224-2.42-1.439 0-2.637.883-2.637 2.932 0 1.536.599 2.92 2.583 2.92zm1.253-3.487h-2.78c.055-1.112.775-1.559 1.516-1.559.883 0 1.264.556 1.264 1.559z"/>
            <path fill="#E0E0E0" d="M.799 76.369H363.202V77.369H.799zM.799 106.342H363.202V107.342H.799zM.799 136.315H363.202V137.315H.799z"/>
            <g fill="#9B9B9B" fill-rule="nonzero">
                <path d="M9.991 9.083H.908c-.501 0-.908.406-.908.908s.407.908.908.908h9.083c.502 0 .908-.406.908-.908s-.406-.908-.908-.908zM9.083 2.725L6.358 2.725 6.358 0 4.541 0 4.541 2.725 1.817 2.725 5.45 7.266z" transform="translate(295.989 .982)"/>
            </g>
        </g>
    </g>
</svg>
