<svg width="48" height="48" viewBox="0 0 48 48" fill="none" xmlns="http://www.w3.org/2000/svg">
<path fill-rule="evenodd" clip-rule="evenodd" d="M23.2493 5.13927V12.3749C23.2493 12.6428 23.3923 12.8904 23.6243 13.0244C23.8563 13.1583 24.1423 13.1583 24.3743 13.0244C24.6063 12.8903 24.7493 12.6428 24.7493 12.3749V5.13927C25.5618 4.89708 26.2073 4.27739 26.4823 3.47535C26.7574 2.67346 26.6282 1.78798 26.1354 1.09814C25.6427 0.40814 24.8471 -0.0012207 23.9993 -0.0012207C23.1515 -0.0012207 22.3559 0.40814 21.8632 1.09814C21.3704 1.78798 21.2412 2.67346 21.5163 3.47535C21.7913 4.27739 22.4368 4.89707 23.2493 5.13927ZM23.9993 1.4999C24.2977 1.4999 24.5838 1.61849 24.7948 1.82943C25.0057 2.04037 25.1243 2.32648 25.1243 2.62492C25.1243 2.92336 25.0057 3.20944 24.7948 3.4204C24.5838 3.63133 24.2977 3.74993 23.9993 3.74993C23.7009 3.74993 23.4148 3.63134 23.2038 3.4204C22.9929 3.20946 22.8743 2.92336 22.8743 2.62492C22.8746 2.32664 22.9932 2.04071 23.2041 1.82975C23.4151 1.61882 23.701 1.50021 23.9993 1.4999ZM23.9993 34.8753C23.8004 34.8753 23.6096 34.9544 23.469 35.095C23.3284 35.2356 23.2493 35.4264 23.2493 35.6253V42.8609C22.4368 43.1031 21.7913 43.7228 21.5163 44.5248C21.2412 45.3267 21.3704 46.2122 21.8632 46.902C22.3559 47.592 23.1515 48.0014 23.9993 48.0014C24.8471 48.0014 25.6427 47.592 26.1354 46.902C26.6282 46.2122 26.7574 45.3267 26.4823 44.5248C26.2073 43.7228 25.5618 43.1031 24.7493 42.8609V35.6253C24.7493 35.4264 24.6702 35.2356 24.5296 35.095C24.389 34.9544 24.1982 34.8753 23.9993 34.8753ZM25.1243 45.3753C25.1243 45.6737 25.0057 45.9598 24.7948 46.1708C24.5838 46.3817 24.2977 46.5003 23.9993 46.5003C23.7009 46.5003 23.4148 46.3817 23.2038 46.1708C22.9929 45.9599 22.8743 45.6738 22.8743 45.3753C22.8743 45.0769 22.9929 44.7908 23.2038 44.5798C23.4148 44.3689 23.7009 44.2503 23.9993 44.2503C24.2976 44.2506 24.5835 44.3692 24.7945 44.5801C25.0054 44.7911 25.124 45.077 25.1243 45.3753ZM10.1314 10.3629C10.0611 10.3629 9.99051 10.3601 9.91942 10.3545L9.91952 10.3544C9.15076 10.2935 8.4478 9.89751 7.99732 9.27159C7.54686 8.64583 7.39467 7.85331 7.58092 7.10503C7.76732 6.3569 8.27344 5.72847 8.96484 5.3869C9.65624 5.04549 10.463 5.02534 11.1703 5.33222C11.8778 5.63894 12.4146 6.24146 12.6378 6.97958C12.8611 7.71754 12.7485 8.51658 12.3296 9.1641L17.0252 14.6689C17.1991 14.8728 17.251 15.1539 17.1614 15.4064C17.0717 15.6589 16.8542 15.8444 16.5908 15.8932C16.3273 15.9417 16.058 15.8461 15.8841 15.6424L11.1837 10.132C10.8529 10.2817 10.4944 10.3604 10.1314 10.3629ZM10.1257 6.61259C9.85846 6.61228 9.60003 6.70775 9.39722 6.88166C9.17018 7.07542 9.02939 7.35138 9.0058 7.64873C8.98204 7.94621 9.07767 8.2409 9.27142 8.46793C9.46502 8.69496 9.74096 8.83574 10.0385 8.85934C10.3358 8.88231 10.63 8.78684 10.8574 8.59371C11.0844 8.40011 11.2252 8.12433 11.2489 7.82683C11.2725 7.52931 11.1771 7.23478 10.9835 7.00775C10.7897 6.78056 10.5139 6.63978 10.2164 6.61619C10.1861 6.61384 10.1557 6.61259 10.1257 6.61259ZM39.5748 42.2602C40.2191 41.7095 40.5582 40.8817 40.4851 40.0372C40.4121 39.1928 39.9359 38.4355 39.2065 38.0037C38.477 37.572 37.584 37.5189 36.8085 37.8612L32.1145 32.358C31.9406 32.1543 31.6712 32.0587 31.4078 32.1073C31.1444 32.156 30.9269 32.3415 30.8372 32.594C30.7476 32.8465 30.7995 33.1276 30.9734 33.3315L35.669 38.8362C35.2087 39.5476 35.1203 40.4374 35.4314 41.2255C35.7425 42.0136 36.4148 42.6032 37.237 42.8083C38.059 43.0136 38.9296 42.8093 39.5746 42.2599L39.5748 42.2602ZM37.0153 40.9931C36.8221 40.7658 36.7268 40.4712 36.7504 40.1739C36.774 39.8766 36.9146 39.6008 37.1412 39.4069C37.3682 39.2133 37.6629 39.1178 37.9603 39.1414C38.2578 39.1651 38.5335 39.3059 38.7271 39.533C38.9207 39.76 39.0162 40.0545 38.9926 40.352C38.969 40.6494 38.8282 40.9252 38.6012 41.1188C38.3742 41.3125 38.0796 41.408 37.7821 41.3844C37.4848 41.3608 37.2089 41.22 37.0153 40.9931ZM2.58395 22.875C2.43347 22.8748 2.28347 22.8615 2.13535 22.8353L2.13558 22.8353C1.45794 22.7153 0.857298 22.3274 0.469018 21.7591C0.0735368 21.1877 -0.0811514 20.4834 0.0385368 19.7989C0.152297 19.1158 0.532778 18.5058 1.09606 18.103C1.65186 17.7017 2.34686 17.5435 3.02154 17.6646C3.69918 17.7846 4.29982 18.1725 4.68794 18.7408C4.93545 19.0983 5.09061 19.5116 5.13983 19.9436L12.139 21.1866C12.3331 21.2231 12.505 21.3347 12.6172 21.497C12.7293 21.6595 12.7729 21.8597 12.7383 22.0542C12.71 22.2266 12.6217 22.3834 12.489 22.497C12.3564 22.6106 12.1878 22.6737 12.0131 22.6753C11.9705 22.6753 11.9278 22.6714 11.8858 22.6639L4.88615 21.4209C4.69663 21.8098 4.41302 22.1453 4.06083 22.3969C3.63083 22.7073 3.11411 22.8745 2.58395 22.875ZM1.94283 19.3296C1.70159 19.5023 1.53878 19.7639 1.49003 20.0565L1.48999 20.0565C1.43843 20.35 1.50483 20.6519 1.67452 20.8967C1.84064 21.1403 2.09813 21.3065 2.3886 21.3579C2.67768 21.4101 2.97564 21.3423 3.21376 21.1701C3.455 20.9973 3.61781 20.7359 3.66656 20.4432C3.71797 20.1498 3.65172 19.8479 3.48203 19.6031C3.27735 19.304 2.93829 19.125 2.57595 19.1248C2.34863 19.125 2.1272 19.1967 1.94283 19.3296ZM43.1117 26.5789L36.1123 25.3355C35.9182 25.3022 35.7189 25.348 35.5587 25.4627C35.3985 25.5772 35.2909 25.751 35.2598 25.9455C35.2251 26.1399 35.2687 26.34 35.3809 26.5025C35.4931 26.665 35.6649 26.7767 35.859 26.8131L42.8582 28.0564C42.9074 28.4886 43.0626 28.9019 43.3101 29.2597C43.7877 29.9578 44.579 30.3755 45.4251 30.3758C45.9554 30.3755 46.4721 30.2081 46.902 29.8977C47.4653 29.4946 47.8457 28.8846 47.9595 28.2013C48.0792 27.5166 47.9245 26.8122 47.529 26.2406C47.1409 25.6722 46.5401 25.2842 45.8625 25.1641C45.1878 25.0428 44.4926 25.2011 43.937 25.6027C43.5848 25.8542 43.3011 26.1899 43.1117 26.5789ZM44.3314 27.5567C44.3802 27.2639 44.543 27.0025 44.7842 26.8297C44.9686 26.6966 45.1902 26.625 45.4174 26.6247C45.7799 26.6249 46.1189 26.8039 46.3234 27.1031C46.4931 27.3481 46.5595 27.65 46.508 27.9435C46.4594 28.2363 46.2964 28.4978 46.0552 28.6707C45.817 28.8429 45.5191 28.9107 45.23 28.8585C44.9395 28.8071 44.6821 28.6408 44.5159 28.3971C44.3462 28.1522 44.28 27.8502 44.3314 27.5567ZM4.70249 37.0684C4.03049 36.8846 3.46001 36.4395 3.11829 35.8325L3.1181 35.8325C2.77497 35.2267 2.68638 34.5095 2.87201 33.8386C3.05765 33.1676 3.50201 32.5978 4.10765 32.2545H4.10796C4.6 31.9769 5.16828 31.8648 5.72876 31.9355C6.28921 32.0059 6.81221 32.2552 7.21985 32.6461L13.5151 29.0789C13.7482 28.9469 14.0341 28.9491 14.2652 29.085C14.4962 29.2208 14.6373 29.4695 14.6351 29.7375C14.6329 30.0054 14.488 30.252 14.2549 30.384H14.2548L7.95954 33.9514C8.13814 34.7298 7.95298 35.547 7.4561 36.1723C6.95938 36.7975 6.20502 37.1626 5.40641 37.1645C5.16841 37.1644 4.93171 37.132 4.70249 37.0684ZM4.98017 33.4956C4.65594 33.6269 4.41125 33.9014 4.31797 34.2384C4.23751 34.5259 4.27547 34.8338 4.42343 35.0931C4.59591 35.3974 4.89999 35.6042 5.24639 35.6527C5.5928 35.7011 5.94202 35.5856 6.19124 35.3403C6.44061 35.095 6.56155 34.7478 6.51874 34.4006C6.47594 34.0536 6.27406 33.7461 5.97266 33.5688C5.67126 33.3914 5.30441 33.3644 4.98017 33.4956ZM33.7445 17.6161C33.5709 17.7139 33.4435 17.8767 33.3903 18.0687C33.337 18.2606 33.3621 18.4659 33.4604 18.6392C33.5587 18.8125 33.7218 18.9395 33.9138 18.9925C34.1059 19.0455 34.311 19.0197 34.4842 18.9212L40.7806 15.3533C41.2706 15.823 41.9229 16.0855 42.6017 16.0862C43.0539 16.0862 43.4981 15.9689 43.8912 15.7456H43.8915C44.4593 15.4242 44.8871 14.9028 45.0915 14.2831C45.2957 13.6636 45.262 12.99 44.9968 12.3939C44.7315 11.7979 44.2537 11.3217 43.6567 11.0588C43.0596 10.7956 42.3858 10.7644 41.767 10.971C41.148 11.1777 40.6284 11.6074 40.309 12.1763C39.9896 12.7454 39.8937 13.4128 40.0398 14.0488L33.7445 17.6161ZM42.0425 12.4831C42.2109 12.387 42.4014 12.3366 42.5954 12.3364C42.6972 12.3364 42.7986 12.3503 42.8969 12.3775C43.2339 12.4706 43.5086 12.7153 43.64 13.0395C43.7712 13.3638 43.7444 13.7306 43.567 14.0322C43.3898 14.3337 43.0823 14.5356 42.7353 14.5786C42.3881 14.6214 42.0408 14.5005 41.7953 14.2512C41.55 14.0019 41.4345 13.6526 41.4829 13.3062C41.5314 12.9598 41.7381 12.6556 42.0425 12.4831ZM17.6337 9.38901C17.2546 9.38854 16.8804 9.30589 16.5365 9.14682C15.7404 8.77982 15.18 8.03983 15.0428 7.17403C14.9054 6.30827 15.2095 5.43106 15.8529 4.8359C16.4965 4.24073 17.3947 4.00604 18.2471 4.21026C19.0995 4.41462 19.7937 5.03102 20.0975 5.85322V5.85338C20.2925 6.38366 20.3112 6.96258 20.1514 7.50446C19.9914 8.04618 19.6611 8.52213 19.2095 8.86151L20.6765 12.835C20.7454 13.0215 20.7375 13.2278 20.6542 13.4084C20.5711 13.5892 20.4195 13.7293 20.2328 13.7982C20.0462 13.8671 19.84 13.8592 19.6593 13.7759C19.4786 13.6926 19.3384 13.5411 19.2695 13.3545H19.2697L17.8 9.37417C17.7775 9.37562 17.7551 9.37834 17.7326 9.38105C17.6997 9.38503 17.6667 9.38901 17.6337 9.38901ZM17.3867 5.66558C17.0456 5.74274 16.7598 5.97416 16.6134 6.29182C16.4878 6.56262 16.4756 6.87246 16.5797 7.15215C16.7008 7.48027 16.9677 7.7334 17.3016 7.83699C17.6356 7.94074 17.9989 7.88308 18.2844 7.68121C18.57 7.47933 18.7453 7.15606 18.759 6.80669C18.7728 6.45729 18.6231 6.12136 18.3542 5.89776C18.0853 5.67417 17.7278 5.58839 17.3867 5.66558ZM30.3661 43.8641C31.0766 43.8632 31.7562 43.5743 32.25 43.0635C32.7436 42.5526 33.0094 41.8635 32.9861 41.1535C32.963 40.4433 32.6531 39.773 32.1272 39.2954C31.6012 38.8177 30.9042 38.5737 30.1951 38.619L28.7287 34.6472C28.6359 34.3958 28.4161 34.2132 28.152 34.1679C27.8878 34.1226 27.6196 34.2216 27.4484 34.4277C27.2771 34.6338 27.2289 34.9155 27.3217 35.1668L28.7887 39.1403C28.3371 39.4796 28.0068 39.9554 27.8468 40.4973C27.6868 41.0392 27.7057 41.6181 27.9007 42.1484V42.1485C28.0873 42.652 28.4235 43.0862 28.8643 43.3929C29.305 43.6996 29.829 43.8641 30.3661 43.8641ZM29.9734 40.1838C30.2534 40.0804 30.5629 40.0926 30.8339 40.2174C31.105 40.3423 31.3153 40.5696 31.4186 40.8496C31.522 41.1295 31.5098 41.439 31.385 41.7099C31.2601 41.981 31.0328 42.1913 30.7528 42.2948C30.4729 42.398 30.1634 42.386 29.8925 42.2612C29.6214 42.1363 29.4111 41.909 29.3076 41.629C29.2023 41.3491 29.2134 41.0388 29.3386 40.7673C29.4637 40.4957 29.6923 40.2855 29.9734 40.1838ZM8.01149 17.5604C7.55913 17.5606 7.11461 17.4431 6.72133 17.2193C6.15396 16.8977 5.72665 16.3763 5.52274 15.757C5.31868 15.1375 5.35274 14.4642 5.61806 13.8685C5.88354 13.2728 6.36118 12.7971 6.95806 12.5343C7.55494 12.2715 8.22838 12.2404 8.84698 12.4471C9.46558 12.6537 9.98496 13.0834 10.3042 13.6521C10.6232 14.2209 10.7192 14.8882 10.5731 15.5239L14.2576 17.6132C14.4906 17.7454 14.6354 17.9918 14.6375 18.2596C14.6395 18.5276 14.4986 18.7762 14.2676 18.912C14.0369 19.0478 13.7511 19.0501 13.5179 18.9181L9.83213 16.8279C9.34213 17.2973 8.69009 17.5598 8.01149 17.5604ZM7.7165 13.8515C7.42883 13.931 7.18461 14.1215 7.03742 14.381C6.89039 14.6405 6.85258 14.9479 6.93196 15.2354C7.01148 15.5229 7.20178 15.7671 7.46116 15.9145C7.72068 16.0618 8.02802 16.0998 8.31568 16.0204C8.60335 15.9409 8.84757 15.7504 8.99476 15.4909C9.14195 15.2314 9.18007 14.9239 9.10054 14.6364C9.02102 14.3487 8.83055 14.1043 8.57102 13.9573C8.3115 13.8101 8.004 13.772 7.7165 13.8515ZM33.4595 29.3649C33.3614 29.5379 33.3359 29.7427 33.3889 29.9344C33.4418 30.1261 33.5687 30.2889 33.7418 30.3871L37.4263 32.4764C37.2363 33.3027 37.457 34.1697 38.0188 34.8045C38.5807 35.4394 39.4146 35.7637 40.2578 35.6755C41.1009 35.587 41.8495 35.097 42.2678 34.3595C42.6859 33.622 42.7221 32.7281 42.3649 31.9592C42.0079 31.1903 41.3015 30.6413 40.4682 30.485C39.6349 30.3288 38.7776 30.5846 38.1662 31.1717L34.4817 29.0822H34.4815C34.3085 28.9841 34.1037 28.9586 33.912 29.0116C33.7203 29.0647 33.5574 29.1918 33.4595 29.3649ZM39.0047 32.5094C39.1519 32.2499 39.3961 32.0594 39.6838 31.9799C39.9713 31.9005 40.2788 31.9385 40.5383 32.0857C40.7978 32.2329 40.9883 32.4771 41.0678 32.7648C41.1473 33.0524 41.1092 33.3598 40.962 33.6193C40.8148 33.879 40.5706 34.0693 40.2829 34.1488C39.9953 34.2283 39.6879 34.1902 39.4284 34.043C39.169 33.8957 38.9787 33.6515 38.8992 33.3639C38.8199 33.0763 38.8577 32.7691 39.0047 32.5094ZM7.64249 29.1276C7.16184 29.5552 6.54092 29.7915 5.89764 29.7913L5.89777 29.7913C5.27168 29.7911 4.66636 29.5671 4.19088 29.1597C3.7154 28.7524 3.40117 28.1885 3.30508 27.5699C3.20881 26.9513 3.33711 26.3186 3.66633 25.7861C3.99569 25.2537 4.50461 24.8564 5.10101 24.6663C5.69757 24.476 6.34242 24.5054 6.91914 24.7488C7.49602 24.9922 7.96665 25.434 8.2465 25.994L12.4185 25.2644C12.6823 25.2188 12.9502 25.3172 13.1218 25.5226C13.2934 25.7279 13.3426 26.0091 13.2509 26.2604C13.1591 26.5118 12.9405 26.6954 12.6771 26.7421H12.6769L8.50453 27.4718C8.42985 28.1107 8.12313 28.6999 7.64249 29.1276ZM6.54499 26.2455C6.30091 26.074 5.99858 26.0066 5.70467 26.058C5.41091 26.1096 5.14967 26.2757 4.97811 26.5198C4.8067 26.7638 4.7392 27.066 4.7903 27.3599C4.84154 27.6538 5.00764 27.9152 5.25186 28.0868C5.49594 28.2582 5.79827 28.3257 6.09218 28.2743C6.3861 28.2231 6.6475 28.057 6.81906 27.8127C6.99062 27.5687 7.05796 27.2663 7.00672 26.9724C6.95532 26.6785 6.78922 26.4171 6.54499 26.2455ZM35.45 22.7473C35.4936 22.7473 35.537 22.7436 35.58 22.7359L39.7608 22.0047V22.0048C40.1427 22.7559 40.8636 23.2766 41.6967 23.4028C42.5298 23.5289 43.3728 23.2453 43.96 22.6409C44.5472 22.0367 44.8067 21.1861 44.6567 20.3568C44.5067 19.5276 43.9658 18.8218 43.2039 18.4615C42.4422 18.1013 41.5534 18.1309 40.8173 18.541C40.0811 18.951 39.5883 19.6912 39.4937 20.5286L35.3213 21.2582H35.3212C35.0726 21.3018 34.8626 21.4676 34.7623 21.6993C34.6621 21.931 34.6851 22.1974 34.8235 22.4085C34.9619 22.6196 35.1973 22.747 35.4497 22.7473L35.45 22.7473ZM41.906 19.7261C41.9701 19.7148 42.035 19.709 42.1 19.709C42.4908 19.7087 42.8538 19.9109 43.0592 20.2434C43.2646 20.5758 43.2828 20.9909 43.1077 21.3401C42.9325 21.6895 42.5888 21.9229 42.1996 21.9572C41.8102 21.9912 41.4311 21.8212 41.1977 21.5078C40.9644 21.1944 40.9102 20.7823 41.0546 20.4192C41.1989 20.0561 41.5211 19.7937 41.906 19.7261ZM13.8027 39.9658C13.3248 40.3805 12.7131 40.6086 12.0803 40.6081C11.4084 40.608 10.7623 40.35 10.2749 39.8876C9.78759 39.4253 9.49603 38.7936 9.46056 38.1228C9.42508 37.4519 9.6482 36.793 10.084 36.2817L10.0845 36.2812C10.4515 35.8519 10.9471 35.5522 11.4979 35.4266C12.0488 35.3009 12.6254 35.3561 13.1424 35.5839L15.8896 32.3601C16.0634 32.1561 16.3328 32.0603 16.5964 32.1089C16.8599 32.1575 17.0776 32.343 17.1673 32.5955C17.257 32.8479 17.2053 33.1292 17.0313 33.3331L14.2851 36.5557C14.6293 37.0868 14.7701 37.7243 14.6813 38.3509C14.5927 38.9775 14.2807 39.5511 13.8027 39.9658ZM12.2131 36.8667C11.84 36.8229 11.4697 36.9684 11.2259 37.2543L11.226 37.2544C11.0324 37.4814 10.9371 37.7761 10.9608 38.0736C10.9846 38.3711 11.1255 38.6469 11.3527 38.8403C11.5797 39.0339 11.8744 39.1292 12.1719 39.1055C12.5464 39.0756 12.8812 38.8606 13.0644 38.5327C13.2475 38.2045 13.2548 37.8067 13.0839 37.4722C12.9129 37.1376 12.5862 36.9104 12.2131 36.8667ZM31.5389 15.9021C31.7588 15.9024 31.9677 15.806 32.1102 15.6385L34.8631 12.4078L34.8633 12.408C35.3778 12.6405 35.9542 12.6988 36.505 12.5742C37.0558 12.4496 37.5509 12.1488 37.9155 11.7174L37.9158 11.7171V11.7169C38.3386 11.2203 38.5615 10.5841 38.5408 9.93221C38.5202 9.28033 38.2575 8.65957 37.8041 8.19065C37.3508 7.72189 36.7391 7.43861 36.0882 7.39613C35.4374 7.35363 34.7941 7.55504 34.2836 7.96097C33.7732 8.36689 33.4321 8.94849 33.3269 9.59205C33.2218 10.2357 33.3601 10.8955 33.7147 11.4429L30.9685 14.6655C30.844 14.8116 30.7802 14.9999 30.7904 15.1916C30.8005 15.3833 30.8838 15.5639 31.0232 15.6959C31.1624 15.8281 31.3469 15.9019 31.539 15.902L31.5389 15.9021ZM35.0616 9.28471C35.2544 9.05706 35.5305 8.91596 35.828 8.89315C35.8588 8.89065 35.8891 8.88955 35.9195 8.88955V8.8894C36.2642 8.88987 36.5896 9.04815 36.8027 9.31908C37.0158 9.58986 37.093 9.94328 37.0124 10.2783C36.9317 10.6134 36.702 10.893 36.3891 11.0372C36.0761 11.1814 35.7142 11.1744 35.4072 11.018C35.1002 10.8616 34.8816 10.5731 34.8142 10.2352C34.7469 9.89721 34.838 9.54707 35.0616 9.28471ZM21.7705 15.75C22.6181 15.748 23.4273 16.1036 23.9989 16.7297H23.999C24.5705 16.1036 25.3798 15.748 26.2274 15.75C27.2663 15.7406 28.2349 16.2739 28.7824 17.1569C29.634 17.2738 30.4157 17.6911 30.9866 18.3334C31.5577 18.976 31.8804 19.8013 31.8966 20.6605V20.6606C31.8965 20.7324 31.894 20.8047 31.8893 20.8774C32.5976 21.5483 32.9988 22.4809 32.999 23.4566C32.9935 24.4463 32.5801 25.39 31.8563 26.065C31.8832 26.2385 31.8966 26.4136 31.8966 26.5891C31.8804 27.4485 31.5577 28.2738 30.9868 28.9163C30.4158 29.5587 29.6343 29.9762 28.7827 30.0932C28.2349 30.976 27.2663 31.5093 26.2274 31.5001C25.3796 31.5021 24.5703 31.1463 23.9989 30.5202C23.4275 31.1463 22.6183 31.5021 21.7705 31.5001C20.7316 31.5093 19.763 30.976 19.2152 30.0932C18.3636 29.9761 17.582 29.5587 17.0111 28.9163C16.4402 28.2738 16.1175 27.4485 16.1012 26.5891C16.1012 26.4136 16.1147 26.2385 16.1416 26.065C15.4178 25.39 15.0044 24.4463 14.9989 23.4566C14.9991 22.481 15.4003 21.5483 16.1086 20.8774C16.1038 20.8046 16.1013 20.7322 16.1013 20.6605C16.1175 19.8011 16.4402 18.9759 17.0113 18.3334C17.5822 17.6911 18.3639 17.2738 19.2155 17.1569C19.7629 16.2739 20.7315 15.7406 21.7705 15.75ZM22.7973 29.6093C23.0744 29.3483 23.2367 28.9882 23.2489 28.6077L23.2489 18.6422C23.2367 18.2617 23.0742 17.9017 22.7972 17.6408C22.5202 17.38 22.151 17.2395 21.7705 17.2502C21.391 17.2502 21.025 17.3913 20.7438 17.6463C21.2577 18.108 21.5589 18.7611 21.5764 19.4519C21.585 19.6505 21.5144 19.8445 21.38 19.9913C21.2456 20.1378 21.0584 20.2252 20.8597 20.2339V20.2338C20.8487 20.2344 20.8378 20.2345 20.8264 20.2345C20.6333 20.2344 20.4476 20.1597 20.3083 20.0261C20.1689 19.8925 20.0862 19.7103 20.0778 19.5173C20.0776 19.3366 20.0297 19.1591 19.9386 19.003C19.8475 18.8467 19.7167 18.7175 19.5595 18.6283C19.0392 18.6638 18.5506 18.8914 18.1886 19.2671C17.8267 19.6427 17.6173 20.1394 17.6012 20.6607H17.6011C17.6011 20.675 17.6032 20.6897 17.6053 20.7043V20.7044V20.7044V20.7044C17.6071 20.7168 17.6089 20.7291 17.6094 20.7413C17.9334 20.9282 18.304 21.0191 18.6778 21.0035C18.9447 20.9782 19.2047 21.0969 19.36 21.3154C19.5155 21.5336 19.5425 21.8183 19.4311 22.0621C19.3197 22.3057 19.0867 22.4714 18.82 22.4969C18.7295 22.5055 18.6406 22.5094 18.5527 22.5094C18.0122 22.4997 17.4812 22.3646 17.002 22.1146C16.6591 22.5074 16.4797 23.0166 16.5005 23.5375C16.5214 24.0586 16.7411 24.5519 17.1144 24.916C17.6344 24.7204 18.1913 24.6416 18.7452 24.6854C19.0113 24.7176 19.2399 24.8893 19.345 25.1357C19.45 25.3821 19.4158 25.6658 19.2549 25.8802C19.0941 26.0944 18.8311 26.2066 18.565 26.1744C18.2432 26.1608 17.9219 26.2135 17.6213 26.3293C17.6086 26.4153 17.6021 26.5022 17.6013 26.5893C17.6163 27.0975 17.8152 27.583 18.1611 27.9557C18.5069 28.3283 18.9762 28.5627 19.482 28.6155C19.7606 28.3677 19.928 28.0183 19.9464 27.6458C19.967 27.3786 20.1284 27.1427 20.3702 27.0269C20.6117 26.9111 20.8969 26.933 21.118 27.0844C21.3391 27.2358 21.4625 27.4936 21.442 27.7608C21.397 28.4228 21.1286 29.0499 20.6805 29.5394C20.9667 29.8338 21.3598 29.9999 21.7705 30.0002C22.1509 30.0108 22.5202 29.8702 22.7973 29.6093ZM27.1714 20.2349C27.1601 20.2349 27.149 20.2347 27.1381 20.2341L27.1381 20.2339C26.9394 20.2252 26.7522 20.1379 26.6178 19.9913C26.4834 19.8446 26.4128 19.6505 26.4214 19.4519C26.4389 18.7611 26.74 18.108 27.254 17.6463C26.9728 17.3913 26.6069 17.2502 26.2273 17.2502C25.8468 17.2396 25.4776 17.38 25.2006 17.6408C24.9236 17.9017 24.7611 18.2618 24.7489 18.6422V28.6078C24.7611 28.9883 24.9234 29.3485 25.2004 29.6094C25.4776 29.8703 25.8469 30.011 26.2273 30.0003C26.638 30 27.0311 29.8339 27.3173 29.5395C26.8692 29.05 26.6008 28.423 26.5558 27.7609C26.5353 27.4937 26.6587 27.2359 26.8798 27.0845C27.1009 26.9331 27.3861 26.9113 27.6276 27.027C27.8694 27.1428 28.0308 27.3788 28.0514 27.646C28.0698 28.0182 28.2364 28.3674 28.5142 28.6158C29.0203 28.5635 29.49 28.3291 29.8362 27.9564C30.1825 27.5836 30.3816 27.098 30.3966 26.5894C30.3958 26.5025 30.3892 26.4156 30.3767 26.3295C30.0759 26.2139 29.7547 26.1611 29.4328 26.1745C29.1667 26.2067 28.9037 26.0945 28.7429 25.8803C28.582 25.6661 28.5478 25.3822 28.6528 25.1358C28.758 24.8894 28.9865 24.7177 29.2526 24.6855C29.8065 24.6416 30.3636 24.7202 30.8837 24.916C31.2568 24.5518 31.4764 24.0586 31.4973 23.5377C31.5181 23.0166 31.3387 22.5075 30.9958 22.1147C30.5165 22.3647 29.9856 22.4999 29.4451 22.5096C29.3571 22.5096 29.2682 22.5056 29.1778 22.4971C28.9111 22.4717 28.6781 22.306 28.5667 22.0622C28.4553 21.8185 28.4823 21.5338 28.6378 21.3155C28.7931 21.0972 29.0531 20.9783 29.32 21.0036C29.6937 21.0199 30.0644 20.9291 30.3884 20.7419H30.3883C30.3886 20.7348 30.3893 20.7276 30.3902 20.7204L30.3923 20.7054L30.3923 20.7054C30.3944 20.6905 30.3965 20.6755 30.3965 20.6608C30.3805 20.1402 30.1716 19.6439 29.8103 19.2684C29.4492 18.893 28.9614 18.665 28.4417 18.6286C28.2831 18.7166 28.1511 18.8455 28.0594 19.0019C27.9676 19.1581 27.9195 19.3363 27.92 19.5175C27.9114 19.7105 27.8289 19.8927 27.6895 20.0263C27.5501 20.1599 27.3645 20.2346 27.1714 20.2347V20.2349ZM20.9806 24.0245C20.8027 24.0711 20.6478 24.1814 20.5459 24.3347C20.4439 24.4878 20.4019 24.6733 20.4277 24.8555C20.2022 24.9894 20.0631 25.2314 20.0608 25.4937C20.0584 25.7559 20.1934 26.0005 20.4164 26.1383C20.6395 26.2762 20.9184 26.2876 21.1521 26.1683C21.4417 26.0264 21.6738 25.7891 21.8093 25.4964C21.9447 25.2036 21.9752 24.8731 21.8958 24.5605C21.846 24.3678 21.7213 24.203 21.5496 24.1023C21.3778 24.0017 21.1731 23.9737 20.9806 24.0245ZM27.1873 24.8995C27.1817 24.8714 27.1666 24.8459 27.1448 24.8273L27.1448 24.8273C27.3226 24.9176 27.4571 25.0748 27.5193 25.2643C27.5815 25.4539 27.5659 25.6603 27.4762 25.8384C27.3873 26.0159 27.2312 26.1506 27.0424 26.2125C26.8539 26.2743 26.6482 26.2584 26.4714 26.1681C26.1817 26.0262 25.9496 25.7889 25.8142 25.4962C25.6787 25.2034 25.6482 24.873 25.7276 24.5603L27.1785 24.9397C27.1835 24.9269 27.1865 24.9133 27.1873 24.8995ZM26.053 21.8553C25.8275 21.9892 25.6884 22.2312 25.6861 22.4936C25.6838 22.7558 25.8188 23.0003 26.0417 23.1381C26.2648 23.2761 26.5438 23.2875 26.7774 23.1681C27.0671 23.0262 27.2991 22.7889 27.4346 22.4962C27.57 22.2034 27.6005 21.873 27.5211 21.5603C27.456 21.3109 27.2674 21.1127 27.0216 21.035C26.776 20.9573 26.5075 21.0112 26.3108 21.1778C26.1142 21.3444 26.0169 21.6002 26.053 21.8553ZM21.4171 23.2124C21.2285 23.2743 21.0229 23.2584 20.846 23.1681L20.8461 23.168C20.5564 23.0261 20.3243 22.7888 20.1889 22.4961C20.0534 22.2033 20.0229 21.8729 20.1023 21.5602L21.5532 21.9396C21.5582 21.9268 21.5612 21.9132 21.562 21.8994C21.5563 21.8713 21.5413 21.8459 21.5195 21.8273C21.6973 21.9176 21.8318 22.0748 21.894 22.2643C21.9562 22.4538 21.9406 22.6603 21.8509 22.8384C21.762 23.0159 21.6059 23.1506 21.4171 23.2124Z" fill="black"/>
</svg>
