<svg width="48" height="48" viewBox="0 0 48 48" fill="none" xmlns="http://www.w3.org/2000/svg">
<path fill-rule="evenodd" clip-rule="evenodd" d="M19.9221 40.372V43.5H13.1721C12.5755 43.5006 12.0036 43.738 11.5817 44.1597C11.16 44.5816 10.9227 45.1534 10.9221 45.75V47.25C10.9221 47.4489 11.0011 47.6397 11.1417 47.7803C11.2824 47.9209 11.4732 48 11.6721 48H32.6721C32.871 48 33.0618 47.9209 33.2024 47.7803C33.343 47.6397 33.4221 47.4489 33.4221 47.25V45.75C33.4214 45.1534 33.1841 44.5816 32.7624 44.1597C32.3405 43.738 31.7686 43.5006 31.1721 43.5H24.4221V40.372C29.3697 39.813 33.9385 37.4531 37.2577 33.7425C40.5772 30.0315 42.4153 25.2289 42.4221 20.2501C42.4221 19.9821 42.2791 19.7346 42.0471 19.6005C41.815 19.4666 41.5291 19.4666 41.2971 19.6005C41.065 19.7346 40.9221 19.9821 40.9221 20.2501C40.9221 25.1797 38.9807 29.9109 35.5185 33.4197C32.0561 36.9284 27.3513 38.9324 22.4221 38.998C17.4929 39.0638 12.7365 37.1857 9.18167 33.7705C5.62699 30.3551 3.56007 25.6773 3.42887 20.7497C3.29731 15.8217 5.11183 11.0405 8.47927 7.44087C11.8468 3.84088 16.4965 1.71208 21.4221 1.51488V3.76908C17.1153 3.96501 13.0565 5.83876 10.1137 8.98947C7.17103 12.1399 5.57807 16.3171 5.67607 20.6271C5.77419 24.9371 7.55515 29.0375 10.6381 32.0511C13.721 35.0647 17.8609 36.7519 22.1721 36.7519C26.4833 36.7519 30.6229 35.0645 33.7061 32.0511C36.7889 29.0375 38.5697 24.9371 38.6681 20.6271C38.766 16.3171 37.1732 12.1399 34.2305 8.98947C31.2878 5.83884 27.2289 3.96508 22.9221 3.76908V1.5H23.6721C23.94 1.5 24.1876 1.35703 24.3216 1.125C24.4555 0.892967 24.4555 0.60704 24.3216 0.375C24.1875 0.142968 23.94 0 23.6721 0H22.1721C16.9965 -0.000312424 12.0177 1.98108 8.25727 5.5372C4.49711 9.09343 2.24127 13.9544 1.95327 19.122C1.6653 24.2896 3.36687 29.3712 6.70847 33.3228C10.0502 37.2748 14.7785 39.7972 19.9217 40.372L19.9221 40.372ZM31.1721 45C31.371 45.0002 31.5616 45.0793 31.7022 45.2199C31.8428 45.3605 31.9219 45.5511 31.9221 45.75V46.5H12.4221V45.75C12.4222 45.5511 12.5013 45.3605 12.6419 45.2199C12.7825 45.0793 12.9731 45.0002 13.1721 45H31.1721ZM21.4221 40.4808L21.4862 40.4832C21.7141 40.4916 21.9421 40.4999 22.1721 40.4999C22.4085 40.4999 22.6427 40.4912 22.877 40.4825L22.8773 40.4825L22.9221 40.4808V43.4999H21.4221V40.4808ZM13.0973 8.31727C13.2952 8.66384 13.4521 9.03243 13.5646 9.41539C13.6582 9.77836 13.6626 10.1587 13.5774 10.5237C13.4549 10.8688 13.1581 11.1284 12.5841 11.392L12.2716 11.5332C11.4685 11.8284 10.7449 12.3063 10.1582 12.929C9.77039 13.3243 9.25977 13.5759 8.71009 13.6426C9.74181 11.5526 11.2434 9.72996 13.0973 8.3174L13.0973 8.31727ZM11.419 27.1257L11.4058 27.1863C11.2699 27.6732 11.2362 28.183 11.3066 28.6835C11.3788 29.0094 11.308 29.3505 11.1121 29.6207C10.9752 29.7522 10.784 29.8111 10.5968 29.7793C8.38006 27.0986 7.16882 23.7285 7.17226 20.2501C7.17273 19.711 7.20226 19.1723 7.26038 18.6362C8.3035 18.7458 9.1235 19.0685 9.17538 19.4171C9.11585 20.1376 9.12632 20.8621 9.20648 21.5805C9.33818 22.7075 10.1654 23.3991 10.8302 23.955L10.8304 23.9552C11.4751 24.4943 11.8693 24.8572 11.9071 25.3511C11.8965 25.6824 11.8184 26.0078 11.6774 26.3077C11.5716 26.5738 11.4852 26.8472 11.419 27.1258L11.419 27.1257ZM27.2774 10.0685C27.7769 9.44127 27.6191 8.51239 27.5343 8.01363C27.4035 7.24299 27.515 6.49315 27.7775 6.37627C27.785 6.37293 27.7917 6.36875 27.7985 6.36456C27.8037 6.36131 27.809 6.35805 27.8146 6.35518C29.8586 7.19002 31.6941 8.46362 33.1914 10.0861C34.6887 11.7086 35.8114 13.6403 36.4798 15.7445C36.2803 15.804 36.0895 15.8725 35.911 15.9386C35.5078 16.1398 35.0554 16.2221 34.607 16.1762C34.431 16.1154 34.2654 16.0282 34.1157 15.9178C33.7557 15.6472 33.3296 15.4781 32.882 15.4281C32.3249 15.3942 31.7851 15.6276 31.4284 16.0567C31.0809 16.4676 30.949 17.0191 31.0732 17.5426C31.1295 17.7486 31.2141 17.9459 31.3246 18.1285C31.2074 18.107 31.0923 18.0746 30.981 18.032C30.594 17.8684 30.1677 17.8209 29.7543 17.8954C29.2824 17.9984 28.8862 18.3166 28.6838 18.7552C28.4576 19.2902 28.483 19.8985 28.753 20.4128C29.0915 21.0592 29.6765 21.5415 30.3755 21.7504C30.5727 21.822 30.7632 21.9112 30.9444 22.0167C30.8765 22.1151 30.7723 22.239 30.7008 22.3237C30.6037 22.4395 30.5113 22.5507 30.438 22.6543C30.3026 22.8467 30.1489 23.0362 29.9862 23.2368L29.9862 23.2368L29.9816 23.2424H29.9818C29.5388 23.7333 29.1809 24.2948 28.9227 24.9033C28.7441 25.4369 28.6419 25.9932 28.6191 26.5554C28.6004 26.901 28.5527 27.2445 28.4768 27.5823C28.3697 27.8785 28.1999 28.1481 27.9791 28.3727C27.5337 28.8649 27.0273 29.2985 26.4724 29.6629C26.2323 29.8313 25.7949 30.0796 25.5691 29.8527C25.177 29.4168 24.9159 28.879 24.8159 28.3013C24.7635 28.0095 24.7369 27.7137 24.7363 27.4173C24.7415 26.9176 24.6729 26.4199 24.5327 25.9404C24.468 25.7601 24.3884 25.5857 24.2945 25.4188C24.2173 25.3035 24.1646 25.1735 24.1401 25.037C24.2745 24.2645 24.0182 23.4756 23.4557 22.9293C22.5074 22.0623 20.9938 22.2615 20.6596 22.3187C20.124 22.307 19.6003 22.1593 19.1372 21.8898L18.9872 21.8219C18.1265 21.4352 17.8251 20.7851 17.947 19.579C18.0384 18.9596 18.31 18.3809 18.7281 17.9148C19.146 17.4487 19.692 17.1159 20.2979 16.9579C21.4728 16.6674 22.637 16.9587 24.0351 17.3691H24.035C24.8226 17.521 25.6223 17.5999 26.4243 17.6048L26.5106 17.609C27.1747 17.6907 27.8437 17.502 28.3671 17.0854C28.6535 16.8337 28.8342 16.4828 28.8724 16.1034C28.9664 15.3777 28.7357 14.6477 28.2421 14.1079C27.2515 13.078 25.4822 13.1416 23.9218 13.1977L23.9217 13.1977L23.9216 13.1976C23.46 13.2233 22.9974 13.224 22.5357 13.1993L22.5435 13.1865C22.5927 13.1554 22.6861 13.1087 22.7514 13.076H22.7516C22.9903 12.9735 23.2074 12.8262 23.391 12.6422C23.7706 12.1432 23.9785 11.5346 23.9833 10.9076C24.1071 10.7005 25.0741 10.5127 26.0322 10.5879C26.0491 10.5891 26.066 10.5901 26.083 10.5902H26.0832C26.1287 10.5901 26.1749 10.5899 26.2222 10.5872C26.633 10.5776 27.0188 10.3879 27.2772 10.0683L27.2774 10.0685ZM22.1722 5.25008C23.5692 5.25039 24.9592 5.44648 26.3018 5.83271C25.8519 6.68819 25.9826 7.83491 26.0555 8.26491H26.0554C26.1196 8.53491 26.1394 8.81351 26.1143 9.08975H26.1127C25.4605 9.0421 22.7251 8.94835 22.496 10.7148L22.4977 10.7149V10.7151C22.4918 10.7508 22.4879 10.7869 22.4857 10.823C22.4955 11.0991 22.4313 11.3727 22.2999 11.6157C22.2294 11.6597 22.1563 11.6994 22.0812 11.7346C21.7747 11.8579 21.5083 12.0633 21.3113 12.3283L21.3109 12.3289C21.1542 12.5731 20.6788 13.3134 21.0696 13.9997C21.5168 14.7849 22.6018 14.7465 23.9752 14.6968L23.9817 14.6965C25.1033 14.6569 26.6361 14.6027 27.1613 15.1483C27.3518 15.3699 27.4318 15.6657 27.3791 15.9532C27.344 16.0054 27.1488 16.1407 26.5862 16.1111L26.4966 16.1068H26.4965C25.8135 16.1035 25.1321 16.0446 24.4587 15.9305L24.4576 15.9302C23.1841 15.5565 21.599 15.0914 19.9383 15.5019C19.0324 15.7344 18.2166 16.2324 17.5959 16.9319C16.9751 17.6316 16.5776 18.5007 16.4547 19.4278C16.2689 21.2691 16.914 22.5352 18.3719 23.1903L18.5177 23.2562C19.2178 23.6444 20.0097 23.8364 20.8099 23.8122C20.8381 23.8098 20.8663 23.8061 20.8941 23.8008C21.2283 23.7361 22.0822 23.7062 22.4432 24.0364L22.4432 24.0364C22.5091 24.0967 22.7096 24.2801 22.6478 24.8843H22.648C22.6233 25.3209 22.7361 25.754 22.9702 26.1233C23.0246 26.2184 23.0718 26.3173 23.1114 26.4195C23.2014 26.7619 23.2438 27.115 23.2374 27.4689C23.2394 27.8572 23.2775 28.2442 23.3513 28.6254C23.5105 29.4825 23.9118 30.2761 24.5075 30.9123C24.8417 31.2575 25.3024 31.4511 25.7827 31.4481C26.3442 31.4256 26.8853 31.2314 27.333 30.8917C27.9978 30.4526 28.6024 29.9286 29.1314 29.3331C29.4978 28.9417 29.7704 28.4722 29.9288 27.96C30.0274 27.5401 30.0894 27.1125 30.114 26.6819C30.129 26.2567 30.2008 25.8356 30.3275 25.4295C30.5338 24.9752 30.8102 24.5561 31.1466 24.1876C31.3194 23.9747 31.4982 23.7544 31.6643 23.519C31.7106 23.4534 31.7691 23.3841 31.8305 23.3114L31.8305 23.3114L31.8488 23.2897C32.1568 22.9239 32.5786 22.4225 32.4947 21.782H32.4949C32.4358 21.3922 32.2107 21.047 31.8775 20.8359C31.5828 20.6388 31.2652 20.478 30.9316 20.3573C30.4658 20.1716 30.2696 20.082 30.088 19.7286V19.7284C30.0292 19.6237 30.0141 19.5 30.046 19.3841L30.046 19.3839C30.0502 19.3752 30.0547 19.366 30.1011 19.3551C30.2386 19.3661 30.3735 19.3992 30.5005 19.4531C30.7233 19.5372 30.9555 19.5944 31.1921 19.623C31.7166 19.7236 32.2577 19.5667 32.6472 19.2011C33.2567 18.5187 32.8297 17.7493 32.6473 17.4206L32.6472 17.4204C32.605 17.3489 32.5671 17.275 32.5335 17.199C32.5186 17.1351 32.5357 17.0679 32.5794 17.0189C32.6342 16.9531 32.7178 16.9186 32.8032 16.9262C32.9855 16.9784 33.1563 17.0648 33.3063 17.1807C33.6056 17.3965 33.943 17.5539 34.3006 17.6447C35.0252 17.7576 35.767 17.6534 36.4325 17.3453C36.5833 17.2894 36.7238 17.2386 36.8589 17.1961V17.1962C37.5147 20.3379 37.1447 23.6074 35.8036 26.523C34.4625 29.4389 32.221 31.8474 29.4084 33.3942C26.5962 34.9409 23.362 35.5444 20.1812 35.1156C17.0004 34.6869 14.0412 33.2486 11.7392 31.0124C11.9117 30.9149 12.0687 30.7923 12.205 30.6485C12.7317 30.0313 12.9445 29.2057 12.7816 28.4109C12.7537 28.1056 12.7844 27.7978 12.8719 27.504L12.885 27.4429H12.8851C12.9372 27.2343 13.0034 27.0296 13.0834 26.8301C13.3076 26.3296 13.4169 25.7851 13.4026 25.2368C13.3142 24.0769 12.4707 23.3716 11.7929 22.8048L11.7925 22.8045C11.2376 22.3407 10.7587 21.9401 10.6962 21.4063V21.4062C10.6256 20.7673 10.6184 20.1229 10.675 19.4826C10.6773 19.454 10.6781 19.4254 10.6772 19.3968C10.6251 17.7679 8.7031 17.2917 7.4953 17.1534H7.49546C7.64624 16.437 7.84968 15.7327 8.10422 15.0462C8.27891 15.1034 8.46063 15.1357 8.64422 15.1424C8.67104 15.1435 8.69771 15.1438 8.72469 15.1438C9.70673 15.0754 10.6255 14.634 11.2926 13.9102C11.7406 13.4588 12.2847 13.1144 12.8844 12.9024C12.9928 12.8538 13.1019 12.8048 13.2108 12.7546C14.0169 12.4487 14.6609 11.8234 14.9905 11.0267C15.1719 10.4193 15.1898 9.77478 15.0425 9.15838C14.8909 8.56274 14.6522 7.9929 14.3339 7.4673C16.082 6.39074 18.034 5.68715 20.0671 5.40091C20.1129 5.71215 20.134 6.02671 20.1302 6.34123C20.1326 6.72247 20.1244 7.0003 19.9949 7.10434V7.1045C19.8158 7.22325 19.6204 7.31528 19.4149 7.37778C19.2741 7.42997 19.134 7.48247 18.9996 7.54262C18.3257 7.80684 17.7051 8.19074 17.1679 8.6759C16.5597 9.28058 16.616 9.80982 16.7702 10.1475H16.77C16.8691 10.3642 17.0652 10.5209 17.2983 10.5698C17.5315 10.6187 17.7741 10.554 17.9518 10.3954C18.1296 10.2367 18.2215 10.0031 18.1993 9.76593C18.2074 9.75764 18.2163 9.74858 18.2266 9.73843H18.2265C18.6379 9.38655 19.1061 9.10719 19.6111 8.91235C19.7097 8.86842 19.8124 8.83039 19.9154 8.79221L19.9154 8.7922L19.9361 8.78454C20.2954 8.67078 20.6332 8.49797 20.9353 8.27298C21.6391 7.7075 21.6338 6.8797 21.6302 6.33234C21.6322 5.97562 21.6094 5.61922 21.562 5.26562C21.7647 5.25749 21.9675 5.25015 22.1722 5.25015L22.1722 5.25008ZM31.9109 27.9345L31.9307 27.9346C32.6932 27.9346 33.4016 27.1866 33.8128 26.4816C34.2712 25.6948 34.554 24.6365 33.9734 24.0262H33.9732C33.8001 23.8443 33.5474 23.7612 33.3001 23.8046C33.0528 23.848 32.8437 24.0123 32.7429 24.2422C32.6421 24.4722 32.6631 24.7374 32.7987 24.9486C32.7627 25.2255 32.6665 25.491 32.5168 25.7266C32.369 26.0135 32.1501 26.2577 31.881 26.4357C31.6201 26.4507 31.3857 26.6002 31.2624 26.8307C31.1391 27.0612 31.1448 27.3391 31.2771 27.5644C31.4094 27.7898 31.6496 27.9299 31.9109 27.9345ZM38.6512 7.37257L39.0025 5.3401L37.4187 3.90676C37.2772 3.77879 37.1898 3.6016 37.1744 3.41144C37.1589 3.22145 37.2164 3.03255 37.3353 2.88333C37.4542 2.73411 37.6255 2.63583 37.8142 2.60833L40.0189 2.28864L40.9818 0.40832C41.0444 0.286448 41.139 0.183948 41.2556 0.112072C41.3722 0.0400395 41.5061 0.00144592 41.6431 0.000195923H41.6495C41.7854 0.000195923 41.9187 0.0370719 42.0353 0.106916C42.1517 0.176916 42.2472 0.277072 42.3111 0.397072V0.396915L43.3071 2.26299L45.5179 2.54877C45.7072 2.57331 45.8798 2.66877 46.0011 2.81612C46.1222 2.96331 46.1828 3.15128 46.1703 3.34144C46.1579 3.53176 46.0734 3.7102 45.9342 3.84052L44.3759 5.29772L44.7623 7.32395C44.7973 7.50708 44.7628 7.69661 44.6656 7.85567C44.5683 8.01473 44.4153 8.13192 44.2364 8.18427C44.0575 8.23661 43.8655 8.22052 43.6978 8.13895L43.6977 8.1388L41.7045 7.16944L39.729 8.16944C39.5628 8.2535 39.3712 8.27272 39.1917 8.22334C39.012 8.17397 38.8572 8.05944 38.7573 7.90225C38.6575 7.74492 38.6197 7.55616 38.6514 7.37257H38.6512ZM41.1775 3.3173C41.0667 3.53355 40.858 3.68277 40.6175 3.71762L39.6069 3.8642L40.315 4.50512C40.5056 4.67748 40.5947 4.9356 40.5509 5.18872L40.3836 6.157L41.3594 5.66324C41.5686 5.55746 41.8152 5.55558 42.0259 5.65793V5.65777L43.0089 6.13589L42.8253 5.17261C42.777 4.91997 42.8616 4.66011 43.0495 4.48433H43.0497L43.7467 3.83245L42.7316 3.7012C42.4909 3.67011 42.2803 3.52464 42.1661 3.31058V3.31074L41.6633 2.36886L41.1775 3.3173Z" fill="black"/>
</svg>
