<svg width="32" height="32" viewBox="0 0 32 32" fill="none" xmlns="http://www.w3.org/2000/svg">
<path fill-rule="evenodd" clip-rule="evenodd" d="M22.134 12.0002H8.00065V14.6668H5.33398V10.6668C5.33398 9.86683 5.86732 9.3335 6.66732 9.3335H22.134L20.4007 7.60016C19.8673 7.06683 19.8673 6.26683 20.4007 5.7335C20.934 5.20016 21.734 5.20016 22.2673 5.7335L26.2673 9.7335C26.8007 10.2668 26.8007 11.0668 26.2673 11.6002L22.2673 15.6002C22.0007 15.8668 21.734 16.0002 21.334 16.0002C20.934 16.0002 20.6673 15.8668 20.4007 15.6002C19.8673 15.0668 19.8673 14.2668 20.4007 13.7335L22.134 12.0002ZM9.86732 20.0002H24.0007V17.3335H26.6673V21.3335C26.6673 22.1335 26.134 22.6668 25.334 22.6668H9.86732L11.6007 24.4002C12.134 24.9335 12.134 25.7335 11.6007 26.2668C11.334 26.5335 11.0673 26.6668 10.6673 26.6668C10.2673 26.6668 10.0007 26.5335 9.73398 26.2668L5.73398 22.2668C5.20065 21.7335 5.20065 20.9335 5.73398 20.4002L9.73398 16.4002C10.2673 15.8668 11.0673 15.8668 11.6007 16.4002C12.134 16.9335 12.134 17.7335 11.6007 18.2668L9.86732 20.0002Z" fill="#9F6405"/>
</svg>
