<svg width="32" height="32" viewBox="0 0 32 32" fill="none" xmlns="http://www.w3.org/2000/svg">
<path d="M15.9943 28C14.3512 28 12.8064 27.6856 11.3602 27.0568C9.91387 26.4356 8.63796 25.572 7.53242 24.4659C6.42688 23.3674 5.55987 22.0947 4.93138 20.6477C4.31046 19.2008 4 17.6515 4 16C4 14.3561 4.31046 12.8106 4.93138 11.3636C5.55987 9.91667 6.4231 8.64015 7.52106 7.53409C8.6266 6.42803 9.90251 5.56439 11.3488 4.94318C12.8027 4.31439 14.3512 4 15.9943 4C17.6375 4 19.1822 4.31439 20.6285 4.94318C22.0823 5.56439 23.3583 6.42803 24.4562 7.53409C25.5618 8.64015 26.4288 9.91667 27.0573 11.3636C27.6858 12.8106 28 14.3561 28 16C28 17.6515 27.6858 19.2008 27.0573 20.6477C26.4288 22.0947 25.5618 23.3674 24.4562 24.4659C23.3583 25.572 22.0861 26.4356 20.6398 27.0568C19.1936 27.6856 17.6451 28 15.9943 28ZM14.7449 21.6932C14.9948 21.6932 15.222 21.6364 15.4264 21.5227C15.6384 21.4015 15.8202 21.2311 15.9716 21.0114L21.2532 12.9432C21.3441 12.7992 21.416 12.6515 21.469 12.5C21.5296 12.3485 21.5599 12.2008 21.5599 12.0568C21.5599 11.7083 21.4274 11.4205 21.1623 11.1932C20.9049 10.9659 20.6058 10.8523 20.265 10.8523C19.8183 10.8523 19.4434 11.0947 19.1406 11.5795L14.7222 18.6136L12.7345 16.1818C12.5831 15.9924 12.424 15.8561 12.2575 15.7727C12.0984 15.6894 11.9129 15.6477 11.7009 15.6477C11.3602 15.6477 11.0648 15.7727 10.815 16.0227C10.5651 16.2652 10.4401 16.5606 10.4401 16.9091C10.4401 17.0758 10.4704 17.2348 10.531 17.3864C10.5916 17.5379 10.6862 17.6932 10.815 17.8523L13.4728 21.0341C13.6545 21.2538 13.8476 21.4205 14.0521 21.5341C14.2565 21.6402 14.4875 21.6932 14.7449 21.6932Z" fill="#79C933"/>
</svg>
