<svg width="40" height="40" viewBox="0 0 40 40" fill="none" xmlns="http://www.w3.org/2000/svg">
<rect width="40.0004" height="39.9996" rx="8" fill="#EB4F47"/>
<path fill-rule="evenodd" clip-rule="evenodd" d="M24.2696 21.9875C25.0614 20.7713 25.5214 19.3193 25.5214 17.7599C25.5214 13.4742 22.0468 10 17.7607 10C13.4746 10 10 13.4742 10 17.7599C10 22.0456 13.4746 25.5198 17.7607 25.5198C19.3196 25.5198 20.7712 25.0602 21.9873 24.2691L27.2457 29.527C27.8759 30.1572 28.8976 30.1571 29.5278 29.527C30.1579 28.8969 30.1579 27.8752 29.5277 27.2451L24.2696 21.9875ZM17.758 22.2927C15.2542 22.2927 13.2246 20.2632 13.2246 17.7599C13.2246 15.2565 15.2542 13.2271 17.758 13.2271C20.2617 13.2271 22.2914 15.2565 22.2914 17.7599C22.2914 20.2632 20.2617 22.2927 17.758 22.2927Z" fill="white"/>
</svg>
