<svg width="40" height="40" viewBox="0 0 40 40" fill="none" xmlns="http://www.w3.org/2000/svg">
<rect width="40" height="40" rx="8" fill="#9035D6"/>
<path d="M25.5331 20.2973C26.2709 20.2973 26.9032 20.5946 27.4301 20.991C27.5355 21.0901 27.6409 21.0901 27.7463 21.0901C27.8517 21.0901 27.9571 21.0901 28.0625 20.991C28.2732 20.7928 28.3786 20.6937 28.5894 20.5946C28.6948 20.4955 28.8002 20.3964 28.8002 20.2973V16.1351C28.8002 15.3423 28.0625 14.6486 27.2194 14.6486H23.0038C22.8984 14.5495 22.8984 14.4505 22.793 14.3514C23.32 13.7568 23.5307 13.0631 23.5307 12.2703C23.5307 10.4865 21.9499 9 20.0529 9C18.1559 9 16.575 10.4865 16.575 12.3694C16.575 13.1622 16.8912 13.8559 17.3128 14.4505C17.2074 14.4505 17.2074 14.5495 17.102 14.6486H12.8864C11.9379 14.6486 11.3056 15.3423 11.3056 16.1351V20.2973C11.3056 20.3964 11.411 20.5946 11.5164 20.5946C11.7271 20.6937 11.9379 20.7928 12.0433 20.991C12.1487 21.0901 12.4649 21.0901 12.5703 20.991C13.0972 20.4955 13.7295 20.2973 14.4673 20.2973C15.9427 20.2973 17.2074 21.4865 17.2074 22.8739C17.2074 24.2613 15.9427 25.4505 14.4673 25.4505C13.7295 25.4505 13.0972 25.1532 12.5703 24.7568C12.4649 24.6577 12.3595 24.5586 12.2541 24.5586C12.1487 24.5586 12.0433 24.5586 11.9379 24.6577C11.7271 24.8559 11.6218 24.955 11.411 25.0541C11.3056 25.1532 11.2002 25.2523 11.2002 25.3514V29.5135C11.2002 30.3063 11.9379 31 12.781 31H27.114C27.9571 31 28.6948 30.3063 28.6948 29.5135V25.3514C28.6948 25.2523 28.5894 25.0541 28.484 25.0541C28.2733 24.955 28.1679 24.8559 27.9571 24.7568C27.9571 24.6577 27.8517 24.6577 27.7463 24.5586C27.6409 24.5586 27.4301 24.5586 27.3247 24.6577C26.7978 25.1532 26.1655 25.4505 25.4277 25.4505C23.9523 25.4505 22.6876 24.2613 22.6876 22.8739C22.6876 21.4865 24.0577 20.2973 25.5331 20.2973Z" fill="white"/>
</svg>
