<svg width="40" height="40" viewBox="0 0 40 40" fill="none" xmlns="http://www.w3.org/2000/svg">
<rect width="40" height="40" rx="8" fill="#2C7F9B"/>
<path fill-rule="evenodd" clip-rule="evenodd" d="M28.75 10.9375V24.0625C28.75 24.3555 28.6133 24.6211 28.4023 24.7891C28.2383 25.3906 28.2383 27.1055 28.4023 27.707C28.6133 27.8789 28.75 28.1445 28.75 28.4375V29.0625C28.75 29.582 28.332 30 27.8125 30H15C12.9297 30 11.25 28.3203 11.25 26.25V13.75C11.25 11.6797 12.9297 10 15 10H27.8125C28.332 10 28.75 10.418 28.75 10.9375ZM15 27.5H26.1484C26.0742 26.832 26.0742 25.668 26.1484 25H15C14.3125 25 13.75 25.5625 13.75 26.25C13.75 26.9414 14.3086 27.5 15 27.5ZM14.25 12.5C14.25 12.2239 14.4739 12 14.75 12C15.0261 12 15.25 12.2239 15.25 12.5V22.5C15.25 22.7761 15.0261 23 14.75 23C14.4739 23 14.25 22.7761 14.25 22.5V12.5ZM18.75 15C18.4739 15 18.25 15.2239 18.25 15.5C18.25 15.7761 18.4739 16 18.75 16H24.75C25.0261 16 25.25 15.7761 25.25 15.5C25.25 15.2239 25.0261 15 24.75 15H18.75Z" fill="white"/>
</svg>
