<svg width="40" height="40" viewBox="0 0 40 40" fill="none" xmlns="http://www.w3.org/2000/svg">
<rect width="40" height="40" rx="8" fill="#DF9E3D"/>
<path fill-rule="evenodd" clip-rule="evenodd" d="M30.298 12.9505C30.68 13.046 30.871 13.3325 30.9665 13.619C31.062 13.9055 30.9665 14.2876 30.5845 14.5741L27.7193 17.4392C27.5283 17.6302 27.3373 17.7257 27.0508 17.7257C27.003 17.7257 26.9552 17.7018 26.9075 17.678C26.8597 17.6541 26.812 17.6302 26.7642 17.6302L24.4721 16.8662L21.7979 19.5403C22.1799 20.1133 22.371 20.7818 22.371 21.4504C22.371 23.5515 20.6518 25.2705 18.5507 25.2705C16.4496 25.2705 14.7305 23.5515 14.7305 21.4504C14.7305 19.3493 16.4496 17.6302 18.5507 17.6302C19.2193 17.6302 19.8878 17.8212 20.4608 18.2032L23.2305 15.4336L22.4665 13.1415C22.2754 12.855 22.371 12.473 22.6575 12.1865L25.5227 9.32135C25.7137 9.03484 26.0957 8.93933 26.3822 9.03484C26.6687 9.13034 26.9552 9.41685 27.0508 9.70337L27.5283 11.1359L28.3878 10.2764C28.7699 9.89437 29.3429 9.89437 29.7249 10.2764C30.1069 10.6584 30.1069 11.2314 29.7249 11.6134L28.8654 12.473L30.298 12.9505ZM26.4187 19.4082C26.6927 19.4805 26.9194 19.5403 27.1462 19.5403C27.4327 19.5403 27.6237 19.5403 27.9102 19.4448L27.9102 19.4448C28.0057 20.1133 28.1012 20.7819 28.1012 21.4504C28.1012 26.7031 23.8034 31.0008 18.5506 31.0008C13.2978 31.0008 9 26.7031 9 21.4504C9 16.1976 13.2978 11.9 18.5506 11.9C19.2191 11.9 19.8877 11.9955 20.5562 12.091C20.4607 12.664 20.4607 13.237 20.5562 13.7145L20.9383 14.8606L19.9832 15.8156C19.6012 15.7201 19.0281 15.6246 18.5506 15.6246C15.3989 15.6246 12.8202 18.2032 12.8202 21.3549C12.8202 24.5065 15.3989 27.0851 18.5506 27.0851C21.7023 27.0851 24.281 24.5065 24.281 21.3549C24.281 20.8773 24.1855 20.3998 24.09 19.9223L25.045 18.9673L26.1911 19.3493C26.2708 19.3692 26.3464 19.3891 26.4187 19.4082Z" fill="white"/>
</svg>
