<svg width="40" height="40" viewBox="0 0 40 40" fill="none" xmlns="http://www.w3.org/2000/svg">
<rect width="40" height="40" rx="8" fill="#AD277B"/>
<path fill-rule="evenodd" clip-rule="evenodd" d="M13.8182 9.70863C14.0739 10.539 14.5149 11.2363 15.1413 11.8003C15.7677 12.3643 16.5071 12.73 17.3597 12.8975L17.3597 12.8975C18.075 13.038 18.7688 12.572 18.9093 11.8566C18.9513 11.6429 18.9397 11.422 18.8756 11.2138C18.62 10.3834 18.179 9.68621 17.5526 9.1222C16.9262 8.55818 16.1867 8.19244 15.3341 8.02498L15.3341 8.025C14.6188 7.88449 13.925 8.35049 13.7845 9.06583C13.7425 9.27959 13.7541 9.50043 13.8182 9.70863ZM19.3359 15.7981C19.3392 15.7524 19.3425 15.707 19.3459 15.662C19.3921 15.0512 19.4467 14.5797 19.5174 14.2689C19.7166 13.3931 20.1585 12.4255 20.6397 11.8602C20.9072 11.5461 21.3751 11.5113 21.6849 11.7826C21.9947 12.0539 22.0289 12.5285 21.7615 12.8426C21.4512 13.2071 21.11 13.9542 20.9616 14.6067C20.9126 14.8218 20.8644 15.2388 20.8236 15.777L20.8232 15.7826C21.1566 15.6986 21.5044 15.5721 21.8733 15.4379C22.8361 15.0877 23.9431 14.6851 25.3153 14.8478C27.5929 15.1179 29.0232 17.0723 29.4879 19.6419C29.9527 22.2115 28.9026 25.8488 27.6137 27.8265C26.3248 29.8042 24.2327 31.9999 22.7487 31.9999C22.6844 31.9999 22.621 31.9968 22.5587 31.991C21.6841 31.9093 20.5326 31.9418 19.476 31.9717H19.4759H19.4759C18.9657 31.9861 18.4776 31.9999 18.0534 31.9999C16.7911 31.9999 14.0542 29.9949 12.4052 27.5153C10.7562 25.0358 10.0135 22.7366 10.5985 19.8025C11.1835 16.8683 12.7022 15.1353 14.2814 14.8478C15.1873 14.6829 16.5246 15.0552 17.7589 15.3989C18.3231 15.556 18.8658 15.7071 19.3359 15.7981ZM14.5164 17.9879C14.1689 18.871 13.9988 19.9521 13.9988 21.2326C13.9988 22.5432 14.4051 24.0159 15.2079 25.6552C15.3548 25.9551 15.7271 26.0839 16.0395 25.9429C16.3519 25.8019 16.486 25.4445 16.3392 25.1446C15.609 23.6537 15.2488 22.3482 15.2488 21.2326C15.2488 20.087 15.3969 19.1462 15.6858 18.4119C15.8078 18.1019 15.6449 17.7557 15.322 17.6386C14.9991 17.5215 14.6384 17.6779 14.5164 17.9879Z" fill="white"/>
</svg>
