<svg width="40" height="40" viewBox="0 0 40 40" fill="none" xmlns="http://www.w3.org/2000/svg">
<rect width="40" height="40" rx="8" fill="#4D8DD9"/>
<path fill-rule="evenodd" clip-rule="evenodd" d="M11.2 12.9C12.415 12.9 13.4 11.915 13.4 10.7C13.4 9.48497 12.415 8.5 11.2 8.5C9.98497 8.5 9 9.48497 9 10.7C9 11.915 9.98497 12.9 11.2 12.9ZM30.5755 12.2714C30.3733 12.2714 30.1711 12.3587 29.9689 12.446C29.16 12.8825 28.3512 13.0571 27.5424 13.0571C26.2154 13.0571 24.8884 12.5892 23.5614 12.1213C23.3719 12.0545 23.1823 11.9876 22.9927 11.9222C21.3751 11.3111 19.7574 10.7 18.1397 10.7C17.1287 10.7 16.3199 10.9619 15.4099 11.3984C14.9044 11.6603 14.5 12.2714 14.5 12.7952V19.6047C14.5 19.9539 14.8033 20.1285 15.0055 20.1285C15.2077 20.1285 15.4099 20.0412 15.6121 19.9539C16.421 19.5174 17.2298 19.3428 18.0386 19.3428C19.3656 19.3428 20.6926 19.8107 22.0196 20.2786C22.2092 20.3454 22.3987 20.4123 22.5883 20.4777C24.1049 21.0888 25.7225 21.7 27.3402 21.7C28.3512 21.7 29.2612 21.438 30.07 21.0015C30.5755 20.7396 30.9799 20.1285 30.9799 19.6047V12.7952C31.081 12.3587 30.7777 12.2714 30.5755 12.2714ZM10.0996 15.6C10.0996 14.9925 10.5921 14.5 11.1996 14.5C11.8071 14.5 12.2996 14.9925 12.2996 15.6V30.4C12.2996 31.0075 11.8071 31.5 11.1996 31.5C10.5921 31.5 10.0996 31.0075 10.0996 30.4V15.6Z" fill="white"/>
</svg>
