<svg width="60" height="60" viewBox="0 0 60 60" fill="none" xmlns="http://www.w3.org/2000/svg">
<path fill-rule="evenodd" clip-rule="evenodd" d="M36.0938 18.2812H22.9688V18.2812C22.9688 15.1744 25.4869 12.6562 28.5938 12.6562H30.4688C33.5756 12.6562 36.0938 15.1744 36.0938 18.2812V18.2812Z" stroke="#9035D6" stroke-width="2" stroke-linecap="round" stroke-linejoin="round"/>
<circle cx="29.5312" cy="6.09375" r="3.75" stroke="#9035D6" stroke-width="2" stroke-linecap="round" stroke-linejoin="round"/>
<path fill-rule="evenodd" clip-rule="evenodd" d="M14.5312 26.7188H1.40625V26.7188C1.40625 23.6119 3.92438 21.0938 7.03125 21.0938H8.90625C12.0131 21.0938 14.5312 23.6119 14.5312 26.7188V26.7188Z" stroke="#9035D6" stroke-width="2" stroke-linecap="round" stroke-linejoin="round"/>
<circle cx="7.96875" cy="14.5312" r="3.75" stroke="#9035D6" stroke-width="2" stroke-linecap="round" stroke-linejoin="round"/>
<path fill-rule="evenodd" clip-rule="evenodd" d="M58.5938 26.7188H45.4688V26.7188C45.4688 23.6119 47.9869 21.0938 51.0938 21.0938H52.9688C56.0756 21.0938 58.5938 23.6119 58.5938 26.7188V26.7188Z" stroke="#9035D6" stroke-width="2" stroke-linecap="round" stroke-linejoin="round"/>
<circle cx="52.0312" cy="14.5312" r="3.75" stroke="#9035D6" stroke-width="2" stroke-linecap="round" stroke-linejoin="round"/>
<circle cx="29.5312" cy="34.2188" r="8.4375" stroke="#9035D6" stroke-width="2" stroke-linecap="round" stroke-linejoin="round"/>
<path fill-rule="evenodd" clip-rule="evenodd" d="M32.3438 47.3438H26.7188C20.5059 47.3438 15.4688 52.3809 15.4688 58.5938V58.5938H43.5938V58.5938C43.5938 52.3809 38.5566 47.3438 32.3438 47.3438Z" stroke="#9035D6" stroke-width="2" stroke-linecap="round" stroke-linejoin="round"/>
</svg>
