<svg width="59" height="60" viewBox="0 0 59 60" fill="none" xmlns="http://www.w3.org/2000/svg">
<path d="M13.2111 6.94922C14.9857 8.26078 16.3479 11.5955 16.3479 11.5955C16.3479 11.5955 17.8789 12.6595 18.3589 14.018C18.8379 15.3764 18.3861 17.2214 18.3861 17.2214C18.3861 17.2214 19.7445 21.2086 19.1042 22.328C18.4648 23.4464 15.7479 24.1655 15.7479 24.1655C15.7479 24.1655 14.6304 26.243 12.312 26.6423C10.7942 26.8017 9.27637 27.8405 9.27637 29.9986C9.27637 32.1567 11.4336 35.6714 11.4336 35.6714C11.4336 35.6714 13.6695 36.7655 13.9892 37.5652C14.3089 38.3648 14.4176 40.2258 14.4176 40.2258C14.4176 40.2258 16.5467 43.9814 15.3476 46.1386C14.9651 46.8267 13.1914 47.3367 13.1914 47.3367L10.7023 51.0698" stroke="#4D8DD9" stroke-width="2" stroke-linecap="round" stroke-linejoin="round"/>
<path d="M51.5292 12.7264C48.8151 14.0277 44.0676 15.1133 44.0676 15.1133C44.0676 15.1133 40.5988 18.9748 38.3216 18.6552C36.0445 18.3345 33.727 15.7789 33.727 15.7789C33.727 15.7789 33.8873 11.0652 33.1673 10.8252C32.4482 10.5852 30.532 11.8639 29.332 10.9048C28.1338 9.94578 28.8248 7.24297 28.8248 7.24297C28.8248 7.24297 26.2157 6.43109 25.896 5.55172C25.5763 4.67234 26.8457 2.71578 27.0885 1.96484" stroke="#4D8DD9" stroke-width="2" stroke-linecap="round" stroke-linejoin="round"/>
<path fill-rule="evenodd" clip-rule="evenodd" d="M49.948 31.8376C50.5874 33.3554 48.748 37.2329 47.2312 37.9894C45.223 38.9916 43.8534 40.2497 43.2937 41.1291C42.7349 42.0085 41.999 45.6347 40.1615 46.3538C38.324 47.0729 33.9674 51.1735 31.6499 50.5341C29.3334 49.8957 29.3334 44.3822 30.9318 41.9054C31.8852 40.4269 30.7724 37.1916 30.6918 36.0722C30.6121 34.9538 27.2559 32.8763 27.2559 31.7579C27.2559 30.0001 31.0912 25.366 31.0912 25.366C31.0912 25.366 34.2327 24.3272 35.1927 24.5672C36.1518 24.8072 37.963 25.9257 37.963 25.9257C37.963 25.9257 41.5584 26.2454 42.9168 26.9644L44.7543 28.6426C44.7543 28.6416 49.3077 30.3197 49.948 31.8376Z" stroke="#4D8DD9" stroke-width="2" stroke-linecap="round" stroke-linejoin="round"/>
<path fill-rule="evenodd" clip-rule="evenodd" d="M29.333 1.875C44.8655 1.875 57.458 14.4675 57.458 30C57.458 45.5325 44.8655 58.125 29.333 58.125C13.8005 58.125 1.20801 45.5325 1.20801 30C1.20801 14.4675 13.8005 1.875 29.333 1.875Z" stroke="#4D8DD9" stroke-width="2" stroke-linecap="round" stroke-linejoin="round"/>
</svg>
