<svg xmlns="http://www.w3.org/2000/svg" width="300" height="150" viewBox="0 0 300 150">
    <g fill="none" fill-rule="evenodd">
        <g>
            <g transform="translate(-186 -2831) translate(186 2831)">
                <rect width="300" height="150" fill="#F5F5F5" rx="8"/>
                <g transform="translate(21 15)">
                    <rect width="258.182" height="101.818" y="17.791" fill="#FFF" stroke="#E0E0E0" rx="6"/>
                    <path fill="#3F3F3F" fill-rule="nonzero" d="M11.198 7.616V1.731h1.942V.81H8.182v.92h1.96v5.886h1.056zm4.633.113c1.011 0 1.725-.527 1.905-1.448l-.885-.226c-.108.499-.36.79-.957.79-.677 0-1.147-.366-1.174-1.391h3.025c.018-.226.027-.451.027-.649 0-1.26-.56-2.153-1.914-2.153-1.22 0-2.23.78-2.23 2.539 0 1.335.523 2.538 2.203 2.538zm.867-3.027h-1.96c.045-.865.533-1.194 1.057-1.194.623 0 .903.366.903 1.194zm3.287 3.027c.65 0 1.165-.235 1.481-.592.081.376.298.573.786.573.253 0 .55-.066.731-.16l-.036-.639c-.117.038-.199.056-.28.056-.235 0-.28-.112-.28-.376V4.344c0-1.212-.56-1.692-1.752-1.692-1.147 0-1.707.49-1.851 1.401l.912.17c.1-.508.289-.753.858-.753.686 0 .813.339.813.93v.368c-.127-.01-.262-.02-.479-.02-1.255 0-2.285.414-2.285 1.674 0 .48.208 1.307 1.382 1.307zm.37-.809c-.55 0-.695-.31-.695-.648 0-.715.758-.78 1.282-.78.235 0 .343.009.434.018v.96c-.208.225-.596.45-1.02.45zm5.364.809c1.003 0 1.834-.498 1.987-1.664l-.903-.188c-.108.677-.451.968-1.03.968-.65 0-1.155-.404-1.155-1.72 0-1.288.578-1.608 1.183-1.608.605 0 .858.414.93 1.053l.957-.14c-.081-1.148-.813-1.778-1.842-1.778-1.463 0-2.312.912-2.312 2.595 0 1.448.641 2.482 2.185 2.482zm3.992-.113V4.072c.226-.216.713-.517 1.183-.517.55 0 .768.32.768.93v3.131H32.7v-3.31c0-1.1-.433-1.654-1.436-1.654-.65 0-1.156.245-1.562.583V.518h-1.03v7.098h1.039zm6.177.113c1.011 0 1.725-.527 1.905-1.448l-.885-.226c-.108.499-.36.79-.957.79-.677 0-1.147-.366-1.174-1.391h3.026c.018-.226.027-.451.027-.649 0-1.26-.56-2.153-1.915-2.153-1.219 0-2.23.78-2.23 2.539 0 1.335.523 2.538 2.203 2.538zm.867-3.027h-1.96c.045-.865.533-1.194 1.057-1.194.623 0 .903.366.903 1.194zm3.16 2.914V4.241c.389-.357 1.048-.573 1.635-.498V2.662c-.063 0-.135-.01-.19-.01-.686 0-1.155.282-1.526.828l-.08-.724h-.877v4.86h1.039zm5.338 0V5.238h.876c1.625 0 2.528-.734 2.528-2.36 0-1.081-.505-2.068-2.176-2.068h-2.276v6.806h1.048zm.786-3.29h-.786V1.712h.903c.903 0 1.409.31 1.409 1.241 0 1.166-.678 1.373-1.526 1.373zm4.641 3.29V4.241c.389-.357 1.048-.573 1.635-.498V2.662c-.063 0-.136-.01-.19-.01-.686 0-1.156.282-1.526.828l-.081-.724h-.876v4.86h1.038zm4.308.113c1.011 0 1.725-.527 1.905-1.448l-.885-.226c-.108.499-.36.79-.957.79-.677 0-1.147-.366-1.174-1.391h3.025c.019-.226.028-.451.028-.649 0-1.26-.56-2.153-1.915-2.153-1.22 0-2.23.78-2.23 2.539 0 1.335.523 2.538 2.203 2.538zm.867-3.027h-1.96c.045-.865.533-1.194 1.057-1.194.623 0 .903.366.903 1.194zm3.16 2.914V4.044c.226-.217.705-.49 1.093-.49.515 0 .642.33.642.903v3.159h1.038V4.279c0-.085 0-.179-.009-.254.226-.216.686-.47 1.057-.47.514 0 .65.329.65.902v3.159h1.038V4.297c0-1.09-.397-1.645-1.354-1.645-.632 0-1.156.263-1.563.63-.198-.451-.577-.63-1.174-.63-.614 0-1.101.254-1.526.602l-.036-.498h-.894v4.86h1.039zm7.28-5.678c.433 0 .677-.254.677-.715 0-.451-.244-.705-.678-.705-.424 0-.677.254-.677.705 0 .46.253.715.677.715zm.514 5.678v-4.86h-1.038v4.86h1.038zm2.664.103c.641 0 1.192-.253 1.599-.639l.072.536h.903v-4.86h-1.039V6.3c-.225.216-.713.508-1.174.508-.55 0-.731-.31-.731-.922v-3.13h-1.039v3.318c0 1.09.434 1.645 1.41 1.645zm4.877-.103V4.044c.226-.217.704-.49 1.093-.49.514 0 .64.33.64.903v3.159h1.04V4.279c0-.085 0-.179-.01-.254.226-.216.687-.47 1.057-.47.515 0 .65.329.65.902v3.159h1.039V4.297c0-1.09-.398-1.645-1.355-1.645-.632 0-1.156.263-1.562.63-.2-.451-.578-.63-1.174-.63-.614 0-1.102.254-1.527.602l-.036-.498h-.894v4.86h1.039zm9.717 0V4.88h1.246l1.409 2.736h1.147l-1.563-3.018c.723-.291 1.21-.893 1.21-1.908 0-.96-.505-1.88-2.13-1.88h-2.367v6.806h1.048zm1.02-3.62h-1.02V1.713h.993c.858 0 1.364.245 1.364 1.053 0 .968-.57 1.232-1.337 1.232zm5.509 3.733c1.011 0 1.725-.527 1.906-1.448l-.886-.226c-.108.499-.36.79-.957.79-.677 0-1.147-.366-1.174-1.391h3.026c.018-.226.027-.451.027-.649 0-1.26-.56-2.153-1.915-2.153-1.219 0-2.23.78-2.23 2.539 0 1.335.523 2.538 2.203 2.538zm.867-3.027h-1.96c.045-.865.533-1.194 1.057-1.194.623 0 .903.366.903 1.194zm3.134 4.907V7.26c.325.272.74.47 1.3.47 1.048 0 1.933-.743 1.933-2.66 0-1.777-.74-2.417-1.725-2.417-.614 0-1.147.216-1.563.62l-.054-.516h-.894v6.853h1.003zm1.074-2.764c-.451 0-.867-.282-1.047-.432v-2.36c.253-.244.695-.517 1.138-.517.659 0 .984.432.984 1.551 0 1.072-.289 1.758-1.075 1.758zm5.148.884c1.607 0 2.276-1.034 2.276-2.632 0-1.439-.615-2.445-2.159-2.445-1.544 0-2.32.997-2.32 2.557 0 1.448.56 2.52 2.203 2.52zm.054-.837c-.813 0-1.174-.536-1.174-1.72 0-1.185.46-1.645 1.201-1.645.732 0 1.11.413 1.11 1.626 0 1.25-.424 1.74-1.137 1.74zm4.29.724V4.241c.388-.357 1.047-.573 1.634-.498V2.662c-.063 0-.135-.01-.19-.01-.686 0-1.155.282-1.526.828L105 2.756h-.876v4.86h1.039zm3.937.113c.497 0 1.002-.179 1.237-.339l-.171-.77c-.19.112-.515.225-.795.225-.506 0-.623-.254-.623-.733V3.555h1.264v-.8h-1.264v-1.57l-1.039.151v1.42h-.713v.799h.713v2.707c0 1.034.47 1.467 1.39 1.467zm3.522 0c1.147 0 1.923-.536 1.923-1.542 0-1.11-.857-1.307-1.661-1.457-.614-.113-1.012-.245-1.012-.696 0-.32.235-.573.804-.573.605 0 .777.338.885.818l.903-.245c-.18-.846-.686-1.382-1.77-1.382-.975 0-1.797.49-1.797 1.504 0 1.157.903 1.326 1.662 1.486.596.122.975.207.975.695 0 .414-.361.583-.876.583-.75 0-.94-.404-1.057-.865l-.885.301c.145.903.786 1.373 1.906 1.373zM10.603 47.704v-4.646h1.689v-.577h-4.11v.577h1.704v4.646h.717zm4.016.087c1.347 0 1.892-.794 1.892-2.013 0-1.104-.522-1.862-1.79-1.862-1.277 0-1.947.75-1.947 1.949 0 1.096.46 1.926 1.845 1.926zm.039-.527c-.778 0-1.152-.447-1.152-1.428 0-.989.475-1.378 1.183-1.378.693 0 1.082.339 1.082 1.363 0 1.054-.42 1.443-1.113 1.443zm3.573.44v-2.763c.21-.173.708-.447 1.167-.447.545 0 .748.281.748.793v2.417h.708v-2.518c0-.837-.374-1.27-1.23-1.27-.553 0-1.05.231-1.44.52l-.039-.44h-.623v3.708h.709zm4.187-4.422c.32 0 .506-.174.506-.477s-.186-.469-.506-.469c-.319 0-.498.166-.498.47 0 .302.18.476.498.476zm.343 4.422v-3.708h-.708v3.708h.708zm3.674 0v-4.516h.015l1.674 4.516h.747l1.705-4.51h.008v4.51h.677v-5.223h-1.074l-1.658 4.444h-.008l-1.658-4.444h-1.09v5.223h.662zm7.8.087c1.346 0 1.89-.794 1.89-2.013 0-1.104-.52-1.862-1.79-1.862-1.276 0-1.946.75-1.946 1.949 0 1.096.46 1.926 1.845 1.926zm.038-.527c-.778 0-1.152-.447-1.152-1.428 0-.989.475-1.378 1.183-1.378.693 0 1.082.339 1.082 1.363 0 1.054-.42 1.443-1.113 1.443zm3.573.44v-2.698c.327-.281.918-.47 1.417-.404v-.678c-.047 0-.102-.008-.148-.008-.56 0-.981.174-1.331.614l-.055-.534h-.591v3.708h.708zm2.833 0v-2.698c.327-.281.919-.47 1.417-.404v-.678l-.148-.008c-.56 0-.98.174-1.331.614l-.055-.534h-.591v3.708h.708zm2.491-4.422c.32 0 .506-.174.506-.477s-.187-.469-.506-.469c-.32 0-.498.166-.498.47 0 .302.179.476.498.476zm.343 4.422v-3.708h-.709v3.708h.709zm2.498.087c.973 0 1.565-.419 1.565-1.126 0-.83-.693-.966-1.425-1.11-.56-.109-.887-.217-.887-.6 0-.281.187-.52.77-.52.584 0 .74.26.833.686l.639-.13c-.125-.656-.514-1.075-1.464-1.075-.81 0-1.479.368-1.479 1.119 0 .866.787.995 1.44 1.118.545.101.872.173.872.585 0 .396-.35.533-.833.533-.708 0-.887-.317-.996-.714l-.63.159c.124.743.677 1.075 1.595 1.075zm4.118 0c1.346 0 1.891-.794 1.891-2.013 0-1.104-.521-1.862-1.79-1.862-1.277 0-1.946.75-1.946 1.949 0 1.096.46 1.926 1.845 1.926zm.039-.527c-.779 0-1.152-.447-1.152-1.428 0-.989.475-1.378 1.183-1.378.693 0 1.082.339 1.082 1.363 0 1.054-.42 1.443-1.113 1.443zm3.572.44v-2.763c.21-.173.709-.447 1.168-.447.545 0 .747.281.747.793v2.417h.709v-2.518c0-.837-.374-1.27-1.23-1.27-.553 0-1.051.231-1.44.52l-.04-.44h-.622v3.708h.708zM8.897 69.51l.545-1.784h2.136l.561 1.784h.777l-1.937-6.007h-.922L8.182 69.51h.715zm2.505-2.44h-1.79l.89-2.87h.008l.892 2.87zm3.104 2.44v-6.265h-.699v6.265h.7zm1.576-5.086c.315 0 .5-.2.5-.548 0-.348-.185-.54-.5-.54s-.492.192-.492.54c0 .348.177.548.492.548zm.338 5.086v-4.265h-.7v4.265h.7zm2.782.1c.791 0 1.49-.416 1.621-1.403l-.615-.141c-.1.63-.445.913-.983.913-.63 0-1.107-.382-1.107-1.652 0-1.21.561-1.543 1.13-1.543.553 0 .822.324.884.954l.668-.1c-.054-.986-.638-1.484-1.521-1.484-1.184 0-1.89.78-1.89 2.265 0 1.277.506 2.19 1.813 2.19zm4.142 0c.791 0 1.406-.407 1.568-1.237l-.615-.15c-.108.482-.37.756-.93.756-.63 0-1.076-.34-1.107-1.428h2.66c.022-.199.03-.39.03-.555 0-1.054-.461-1.842-1.568-1.842-1.014 0-1.86.672-1.86 2.232 0 1.17.423 2.223 1.822 2.223zm.884-2.656h-1.96c.038-.846.546-1.186 1.068-1.186.623 0 .892.423.892 1.186zm4.98 2.556l1.214-4.937h.007l1.184 4.937h.899l1.176-6.007h-.707l-.915 5.177h-.008l-1.23-5.177h-.783l-1.23 5.11h-.007l-.953-5.11h-.738l1.214 6.007h.876zm6.2.1c.554 0 .962-.192 1.269-.524.038.274.215.506.607.506.192 0 .392-.05.546-.132l-.031-.473c-.1.033-.17.05-.238.05-.2 0-.239-.1-.239-.332v-2.083c0-1.062-.438-1.468-1.414-1.468-.914 0-1.39.373-1.513 1.17l.614.124c.085-.473.292-.705.838-.705.645 0 .784.332.784.871v.415c-.108-.009-.223-.017-.346-.017-1.114 0-2.044.315-2.044 1.452 0 .415.169 1.145 1.168 1.145zm.216-.59c-.538 0-.66-.315-.66-.68 0-.73.73-.789 1.275-.789.146 0 .292.009.4.025v.963c-.216.249-.608.481-1.015.481zm3.696.49v-6.265h-.699v6.265h.7zm1.914 0v-1.552l.607-.647 1.214 2.199h.769l-1.468-2.73 1.368-1.535h-.792l-1.698 1.875v-3.875h-.7v6.265h.7zm4.957.1c.791 0 1.406-.407 1.567-1.237l-.614-.15c-.108.482-.37.756-.93.756-.63 0-1.076-.34-1.107-1.428h2.659c.023-.199.03-.39.03-.555 0-1.054-.46-1.842-1.567-1.842-1.014 0-1.86.672-1.86 2.232 0 1.17.423 2.223 1.822 2.223zm.883-2.656h-1.96c.04-.846.546-1.186 1.069-1.186.622 0 .891.423.891 1.186zm2.436 2.556v-3.103c.323-.324.907-.54 1.4-.465v-.78c-.047 0-.1-.008-.147-.008-.553 0-.968.199-1.314.705l-.054-.614h-.584v4.265h.7zM8.898 90.66l.547-1.593h2.14l.563 1.594h.778l-1.941-5.368h-.924l-1.88 5.368h.717zm2.51-2.179H9.614l.893-2.565h.008l.893 2.565zm3.812 3.855c.994 0 2.033-.281 2.033-1.215 0-.75-.477-.942-1.293-.994l-1.102-.074c-.423-.03-.508-.14-.508-.29 0-.155.139-.259.247-.355.2.067.446.089.708.089.909 0 1.617-.504 1.617-1.364 0-.312-.1-.615-.292-.83.2-.06.516-.097.754-.082v-.541c-.115-.037-.223-.06-.346-.06-.293 0-.5.223-.624.497-.262-.252-.662-.348-1.147-.348-1.025 0-1.68.563-1.68 1.4 0 .49.224.883.586 1.068-.277.208-.524.423-.524.75 0 .274.162.422.432.526v.007c-.324.148-.64.445-.64.875 0 .452.3.941 1.78.941zm.054-3.395c-.7 0-.985-.319-.985-.816 0-.585.446-.815 1-.815.594 0 .956.26.956.83 0 .512-.393.8-.97.8zm.031 2.862c-.893 0-1.163-.215-1.163-.534 0-.252.139-.408.44-.6l1.285.073c.54.038.663.186.663.46 0 .4-.409.6-1.225.6zm3.743-1.053c.554 0 .962-.17 1.27-.467.039.244.216.452.609.452.192 0 .392-.044.546-.119l-.03-.422c-.1.03-.17.044-.24.044-.2 0-.238-.089-.238-.296V88.08c0-.949-.439-1.312-1.417-1.312-.916 0-1.394.333-1.517 1.045l.616.111c.085-.422.293-.63.84-.63.647 0 .785.297.785.779v.37c-.108-.007-.223-.015-.346-.015-1.117 0-2.049.282-2.049 1.298 0 .37.17 1.023 1.17 1.023zm.215-.527c-.539 0-.662-.281-.662-.607 0-.653.732-.705 1.278-.705.147 0 .293.008.4.023v.86c-.215.222-.608.43-1.016.43zm4.243.527c.37 0 .778-.126.97-.252l-.122-.49c-.17.09-.455.186-.693.186-.478 0-.57-.223-.57-.623v-2.18h1.093v-.54h-1.093v-1.21l-.701.105v1.104h-.608v.542h.608v2.268c0 .764.377 1.09 1.116 1.09zm2.38-.09v-2.839c.208-.177.7-.46 1.155-.46.54 0 .74.29.74.816v2.484h.7v-2.587c0-.86-.37-1.305-1.209-1.305-.554 0-1.009.222-1.394.511v-2.216h-.693v5.597h.701zm4.76.09c.554 0 .962-.17 1.27-.467.038.244.215.452.608.452.193 0 .393-.044.547-.119l-.03-.422c-.101.03-.17.044-.24.044-.2 0-.238-.089-.238-.296V88.08c0-.949-.44-1.312-1.417-1.312-.917 0-1.394.333-1.517 1.045l.616.111c.084-.422.292-.63.84-.63.646 0 .785.297.785.779v.37c-.108-.007-.224-.015-.347-.015-1.117 0-2.048.282-2.048 1.298 0 .37.17 1.023 1.17 1.023zm.215-.527c-.54 0-.662-.281-.662-.607 0-.653.731-.705 1.278-.705.146 0 .292.008.4.023v.86c-.215.222-.608.43-1.016.43zm6.861.527c.978 0 1.987-.4 2.18-1.587l-.64-.126c-.177.757-.608 1.127-1.494 1.127-1.116 0-1.763-.623-1.763-2.165 0-1.475.7-2.209 1.856-2.209.916 0 1.309.438 1.417 1.275L39.94 87c-.085-1.253-.9-1.802-2.071-1.802-1.587 0-2.596 1.053-2.596 2.862 0 1.608.701 2.69 2.45 2.69zm3.82-.09v-2.839c.208-.177.7-.46 1.155-.46.54 0 .74.29.74.816v2.484h.7v-2.587c0-.86-.37-1.305-1.209-1.305-.554 0-1.009.222-1.394.511v-2.216h-.693v5.597h.7zm4.482 0v-2.772c.323-.289.908-.482 1.401-.415v-.697l-.146-.007c-.554 0-.97.178-1.317.63l-.054-.549h-.585v3.81h.7zm2.464-4.544c.316 0 .5-.178.5-.489s-.184-.482-.5-.482-.493.17-.493.482c0 .311.177.49.493.49zm.339 4.545v-3.81h-.7v3.81h.7zm2.472.089c.962 0 1.548-.43 1.548-1.157 0-.852-.686-.993-1.41-1.141-.554-.112-.877-.223-.877-.616 0-.289.184-.533.762-.533.577 0 .732.266.824.704l.631-.134c-.123-.674-.508-1.104-1.447-1.104-.801 0-1.464.378-1.464 1.149 0 .89.778 1.023 1.425 1.149.54.104.863.178.863.6 0 .408-.347.55-.824.55-.701 0-.878-.327-.986-.735l-.624.163c.123.764.67 1.105 1.579 1.105zm3.735 0c.37 0 .778-.126.97-.252l-.123-.49c-.17.09-.455.186-.693.186-.478 0-.57-.223-.57-.623v-2.18h1.093v-.54h-1.093v-1.21l-.7.105v1.104h-.61v.542h.61v2.268c0 .764.376 1.09 1.116 1.09zm2.04-4.634c.316 0 .501-.178.501-.489s-.185-.482-.5-.482c-.316 0-.493.17-.493.482 0 .311.177.49.492.49zm.34 4.545v-3.81h-.701v3.81h.7zm2.795.089c.793 0 1.409-.363 1.57-1.105l-.615-.133c-.108.43-.37.674-.932.674-.632 0-1.078-.304-1.11-1.275h2.665c.023-.178.031-.348.031-.496 0-.942-.462-1.646-1.57-1.646-1.017 0-1.864.6-1.864 1.994 0 1.045.423 1.987 1.825 1.987zm.885-2.372h-1.963c.038-.757.546-1.06 1.07-1.06.624 0 .893.377.893 1.06zM9.797 112.237c2.032 0 2.95-1.253 2.95-3.095 0-1.792-.848-2.912-2.816-2.912H8.18v6.007h1.616zm.008-.647h-.902v-4.713h.965c1.349 0 2.133.548 2.133 2.373 0 1.468-.714 2.34-2.196 2.34zm4.965.746c.564 0 .98-.19 1.294-.522.039.273.22.506.62.506.195 0 .4-.05.556-.133l-.031-.473c-.102.033-.173.05-.243.05-.204 0-.244-.1-.244-.332v-2.082c0-1.062-.447-1.469-1.443-1.469-.933 0-1.42.373-1.545 1.17l.628.124c.086-.473.298-.705.855-.705.658 0 .8.332.8.871v.415c-.11-.008-.228-.017-.353-.017-1.137 0-2.086.316-2.086 1.452 0 .415.172 1.145 1.192 1.145zm.22-.589c-.55 0-.675-.315-.675-.68 0-.73.745-.788 1.302-.788.149 0 .298.008.407.025v.962c-.22.249-.62.481-1.035.481zm3.772.49v-3.178c.211-.199.713-.514 1.176-.514.549 0 .753.323.753.912v2.78h.713v-2.896c0-.962-.376-1.46-1.239-1.46-.556 0-1.058.265-1.45.597l-.04-.506h-.627v4.265h.714zm5.458.1c.808 0 1.435-.407 1.6-1.237l-.628-.15c-.11.482-.376.756-.948.756-.644 0-1.098-.34-1.13-1.427h2.714c.023-.2.031-.39.031-.556 0-1.054-.47-1.842-1.6-1.842-1.035 0-1.898.672-1.898 2.232 0 1.17.432 2.223 1.859 2.223zm.902-2.656h-2c.04-.846.557-1.186 1.09-1.186.635 0 .91.423.91 1.186zm4.54 2.556v-.606H27.31l2.259-3.111v-.548h-3.035v.606h2.227l-2.259 3.144v.515h3.16zm4.118.1c1.051 0 2.008-.498 2.008-1.768 0-1.161-.902-1.443-1.733-1.7-.706-.225-1.357-.432-1.357-1.162 0-.531.314-.938 1.184-.938.878 0 1.098.556 1.184 1.129l.675-.083c-.118-1.286-.87-1.693-1.867-1.693-1.098 0-1.913.63-1.913 1.66 0 1.236.917 1.493 1.756 1.742.698.207 1.334.406 1.334 1.153 0 .796-.651 1.012-1.263 1.012-.972 0-1.255-.556-1.388-1.195l-.69.108c.149 1.237.886 1.734 2.07 1.734zm3.678-.1v-3.186c.212-.208.706-.506 1.114-.506.518 0 .627.323.627.896v2.796h.714v-2.904c0-.108-.008-.216-.016-.315.236-.208.698-.473 1.083-.473.517 0 .627.323.627.896v2.796h.714v-2.904c0-.954-.298-1.452-1.145-1.452-.55 0-1.004.257-1.396.59-.157-.4-.479-.59-1.012-.59-.549 0-.972.249-1.372.572l-.04-.48h-.611v4.264h.713zm6.447-5.086c.322 0 .51-.2.51-.548 0-.348-.188-.539-.51-.539s-.502.19-.502.54c0 .348.18.547.502.547zm.345 5.086v-4.265h-.714v4.265h.714zm2.502.1c.376 0 .792-.142.988-.283l-.125-.547c-.173.1-.463.207-.706.207-.487 0-.58-.249-.58-.697v-2.44h1.113v-.605h-1.114v-1.352l-.713.116v1.236h-.62v.606h.62v2.539c0 .854.384 1.22 1.137 1.22zm2.423-.1v-3.178c.212-.199.714-.514 1.177-.514.549 0 .753.323.753.912v2.78h.713v-2.896c0-.962-.376-1.46-1.231-1.46-.565 0-1.027.249-1.42.572v-2.48h-.705v6.264h.713zM91.443 47.691v-.672H88.9v-5.335h-.718v6.007h3.261zm1.295-5.086c.32 0 .507-.199.507-.547 0-.349-.187-.54-.507-.54s-.5.191-.5.54c0 .348.18.547.5.547zm.343 5.086v-4.264h-.71v4.264h.71zm1.943 0v-3.177c.21-.2.71-.515 1.17-.515.546 0 .75.324.75.913v2.78h.71v-2.896c0-.963-.375-1.46-1.234-1.46-.553 0-1.053.265-1.443.597l-.039-.506h-.624v4.264h.71zm5.422.1c.804 0 1.514-.415 1.646-1.402l-.624-.141c-.101.63-.452.912-.998.912-.64 0-1.124-.381-1.124-1.65 0-1.212.57-1.544 1.147-1.544.562 0 .835.324.897.954l.679-.1c-.055-.987-.648-1.484-1.545-1.484-1.201 0-1.919.78-1.919 2.265 0 1.277.515 2.19 1.841 2.19zm4.205 0c1.35 0 1.896-.913 1.896-2.315 0-1.27-.523-2.14-1.794-2.14-1.28 0-1.95.862-1.95 2.24 0 1.26.46 2.215 1.848 2.215zm.04-.606c-.78 0-1.155-.514-1.155-1.643 0-1.136.476-1.584 1.186-1.584.694 0 1.084.39 1.084 1.568 0 1.211-.421 1.66-1.116 1.66zm3.58.506v-6.264h-.71v6.264h.71zm1.943 0v-3.177c.21-.2.71-.515 1.17-.515.546 0 .75.324.75.913v2.78h.71v-2.896c0-.963-.375-1.46-1.233-1.46-.554 0-1.054.265-1.444.597l-.039-.506h-.624v4.264h.71zm6.28 0v-5.193h.016l1.677 5.193h.75l1.708-5.185h.008v5.185h.679v-6.007h-1.077l-1.662 5.111h-.008l-1.661-5.11h-1.093v6.006h.663zm6.585-5.086c.32 0 .507-.199.507-.547 0-.349-.187-.54-.507-.54s-.5.191-.5.54c0 .348.18.547.5.547zm.343 5.086v-4.264h-.71v4.264h.71zm2.52.1c.578 0 .983-.232 1.327-.564l.007.008.055.456h.593v-6.264h-.694v2.307c-.281-.24-.664-.398-1.124-.398-.89 0-1.693.605-1.693 2.29 0 1.55.617 2.165 1.53 2.165zm.211-.63c-.702 0-1.006-.498-1.006-1.536 0-.987.28-1.642 1.053-1.642.46 0 .835.224 1.022.373v2.282c-.25.265-.656.522-1.069.522zm4.291.63c.577 0 .983-.232 1.326-.564l.008.008.055.456h.593v-6.264h-.695v2.307c-.28-.24-.663-.398-1.123-.398-.89 0-1.693.605-1.693 2.29 0 1.55.616 2.165 1.529 2.165zm.21-.63c-.702 0-1.006-.498-1.006-1.536 0-.987.281-1.642 1.053-1.642.46 0 .835.224 1.022.373v2.282c-.25.265-.655.522-1.068.522zm3.714.53v-6.264h-.71v6.264h.71zm2.832.1c.804 0 1.428-.407 1.592-1.236l-.624-.15c-.11.482-.375.755-.944.755-.64 0-1.093-.34-1.124-1.427h2.7c.023-.199.03-.39.03-.556 0-1.053-.467-1.841-1.59-1.841-1.03 0-1.889.672-1.889 2.231 0 1.17.43 2.224 1.85 2.224zm.897-2.655h-1.989c.039-.846.554-1.187 1.084-1.187.632 0 .905.424.905 1.187zm5.033 2.655c1.045 0 1.997-.498 1.997-1.767 0-1.162-.897-1.444-1.724-1.701-.702-.224-1.35-.432-1.35-1.162 0-.53.312-.937 1.178-.937.874 0 1.092.556 1.178 1.128l.671-.083c-.117-1.286-.866-1.692-1.857-1.692-1.092 0-1.903.63-1.903 1.659 0 1.236.912 1.493 1.747 1.742.695.208 1.327.407 1.327 1.154 0 .796-.648 1.012-1.257 1.012-.967 0-1.248-.556-1.38-1.195l-.687.108c.148 1.236.882 1.734 2.06 1.734zm4.54 0c.804 0 1.514-.415 1.646-1.402l-.624-.141c-.101.63-.452.912-.998.912-.64 0-1.124-.381-1.124-1.65 0-1.212.57-1.544 1.147-1.544.562 0 .835.324.897.954l.679-.1c-.055-.987-.648-1.484-1.545-1.484-1.201 0-1.919.78-1.919 2.265 0 1.277.515 2.19 1.841 2.19zm3.316-.1v-3.177c.21-.2.71-.515 1.17-.515.546 0 .75.324.75.913v2.78h.71v-2.896c0-.963-.375-1.46-1.226-1.46-.561 0-1.022.248-1.412.572v-2.48h-.702v6.263h.71zm5.43.1c1.35 0 1.896-.913 1.896-2.315 0-1.27-.523-2.14-1.795-2.14-1.279 0-1.95.862-1.95 2.24 0 1.26.46 2.215 1.849 2.215zm.039-.606c-.78 0-1.155-.514-1.155-1.643 0-1.136.476-1.584 1.186-1.584.695 0 1.085.39 1.085 1.568 0 1.211-.422 1.66-1.116 1.66zm4.47.606c1.35 0 1.896-.913 1.896-2.315 0-1.27-.522-2.14-1.794-2.14-1.28 0-1.95.862-1.95 2.24 0 1.26.46 2.215 1.848 2.215zm.04-.606c-.78 0-1.155-.514-1.155-1.643 0-1.136.476-1.584 1.186-1.584.694 0 1.084.39 1.084 1.568 0 1.211-.421 1.66-1.116 1.66zm3.58.506v-6.264h-.71v6.264h.71zM91.443 69.51v-.673H88.9v-5.334h-.718v6.007h3.261zm1.295-5.086c.32 0 .507-.2.507-.548 0-.348-.187-.54-.507-.54s-.5.192-.5.54c0 .348.18.548.5.548zm.343 5.086v-4.265h-.71v4.265h.71zm1.943 0v-3.178c.21-.2.71-.515 1.17-.515.546 0 .75.324.75.913v2.78h.71v-2.896c0-.962-.375-1.46-1.234-1.46-.553 0-1.053.265-1.443.597l-.039-.506h-.624v4.265h.71zm5.422.1c.804 0 1.514-.416 1.646-1.403l-.624-.141c-.101.63-.452.913-.998.913-.64 0-1.124-.382-1.124-1.652 0-1.21.57-1.543 1.147-1.543.562 0 .835.324.897.954l.679-.1c-.055-.986-.648-1.484-1.545-1.484-1.201 0-1.919.78-1.919 2.265 0 1.277.515 2.19 1.841 2.19zm4.205 0c1.35 0 1.896-.914 1.896-2.316 0-1.27-.523-2.14-1.794-2.14-1.28 0-1.95.863-1.95 2.24 0 1.261.46 2.215 1.848 2.215zm.04-.607c-.78 0-1.155-.514-1.155-1.642 0-1.137.476-1.585 1.186-1.585.694 0 1.084.39 1.084 1.568 0 1.211-.421 1.66-1.116 1.66zm3.58.507v-6.265h-.71v6.265h.71zm1.943 0v-3.178c.21-.2.71-.515 1.17-.515.546 0 .75.324.75.913v2.78h.71v-2.896c0-.962-.375-1.46-1.233-1.46-.554 0-1.054.265-1.444.597l-.039-.506h-.624v4.265h.71zm6.28 0v-5.194h.016l1.677 5.194h.75l1.708-5.186h.008v5.186h.679v-6.007h-1.077l-1.662 5.11h-.008l-1.661-5.11h-1.093v6.007h.663zm6.585-5.086c.32 0 .507-.2.507-.548 0-.348-.187-.54-.507-.54s-.5.192-.5.54c0 .348.18.548.5.548zm.343 5.086v-4.265h-.71v4.265h.71zm2.52.1c.578 0 .983-.233 1.327-.565l.007.008.055.457h.593v-6.265h-.694v2.307c-.281-.24-.664-.398-1.124-.398-.89 0-1.693.605-1.693 2.29 0 1.551.617 2.165 1.53 2.165zm.211-.631c-.702 0-1.006-.498-1.006-1.535 0-.988.28-1.643 1.053-1.643.46 0 .835.224 1.022.373v2.282c-.25.265-.656.523-1.069.523zm4.291.63c.577 0 .983-.232 1.326-.564l.008.008.055.457h.593v-6.265h-.695v2.307c-.28-.24-.663-.398-1.123-.398-.89 0-1.693.605-1.693 2.29 0 1.551.616 2.165 1.529 2.165zm.21-.63c-.702 0-1.006-.498-1.006-1.535 0-.988.281-1.643 1.053-1.643.46 0 .835.224 1.022.373v2.282c-.25.265-.655.523-1.068.523zm3.714.53v-6.264h-.71v6.265h.71zm2.832.1c.804 0 1.428-.406 1.592-1.236l-.624-.15c-.11.482-.375.756-.944.756-.64 0-1.093-.34-1.124-1.428h2.7c.023-.199.03-.39.03-.555 0-1.054-.467-1.842-1.59-1.842-1.03 0-1.889.672-1.889 2.232 0 1.17.43 2.223 1.85 2.223zm.897-2.655h-1.989c.039-.846.554-1.186 1.084-1.186.632 0 .905.423.905 1.186zm5.033 2.655c1.045 0 1.997-.498 1.997-1.767 0-1.162-.897-1.444-1.724-1.701-.702-.224-1.35-.431-1.35-1.162 0-.53.312-.937 1.178-.937.874 0 1.092.556 1.178 1.128l.671-.083c-.117-1.286-.866-1.692-1.857-1.692-1.092 0-1.903.63-1.903 1.66 0 1.235.912 1.493 1.747 1.741.695.208 1.327.407 1.327 1.154 0 .796-.648 1.012-1.257 1.012-.967 0-1.248-.556-1.38-1.195l-.687.108c.148 1.236.882 1.734 2.06 1.734zm4.54 0c.804 0 1.514-.415 1.646-1.402l-.624-.141c-.101.63-.452.913-.998.913-.64 0-1.124-.382-1.124-1.652 0-1.21.57-1.543 1.147-1.543.562 0 .835.324.897.954l.679-.1c-.055-.986-.648-1.484-1.545-1.484-1.201 0-1.919.78-1.919 2.265 0 1.277.515 2.19 1.841 2.19zm3.316-.1v-3.177c.21-.2.71-.515 1.17-.515.546 0 .75.324.75.913v2.78h.71v-2.896c0-.962-.375-1.46-1.226-1.46-.561 0-1.022.249-1.412.572v-2.48h-.702v6.264h.71zm5.43.1c1.35 0 1.896-.913 1.896-2.315 0-1.27-.523-2.14-1.795-2.14-1.279 0-1.95.863-1.95 2.24 0 1.261.46 2.215 1.849 2.215zm.039-.606c-.78 0-1.155-.514-1.155-1.642 0-1.137.476-1.585 1.186-1.585.695 0 1.085.39 1.085 1.568 0 1.211-.422 1.66-1.116 1.66zm4.47.606c1.35 0 1.896-.913 1.896-2.315 0-1.27-.522-2.14-1.794-2.14-1.28 0-1.95.863-1.95 2.24 0 1.261.46 2.215 1.848 2.215zm.04-.606c-.78 0-1.155-.514-1.155-1.642 0-1.137.476-1.585 1.186-1.585.694 0 1.084.39 1.084 1.568 0 1.211-.421 1.66-1.116 1.66zm3.58.507v-6.265h-.71v6.265h.71zM90.657 90.75c.988 0 2.008-.4 2.202-1.587l-.646-.126c-.179.757-.614 1.127-1.51 1.127-1.128 0-1.782-.623-1.782-2.165 0-1.475.708-2.209 1.876-2.209.926 0 1.323.438 1.432 1.275l.67-.066c-.086-1.253-.911-1.802-2.094-1.802-1.604 0-2.623 1.053-2.623 2.862 0 1.608.708 2.69 2.475 2.69zm4.748 0c.801 0 1.424-.363 1.587-1.105l-.622-.133c-.11.43-.374.674-.942.674-.638 0-1.09-.304-1.12-1.275H97c.023-.178.031-.348.031-.496 0-.942-.467-1.646-1.588-1.646-1.027 0-1.883.6-1.883 1.994 0 1.045.428 1.987 1.845 1.987zm.895-2.372h-1.985c.039-.757.553-1.06 1.082-1.06.63 0 .903.377.903 1.06zm2.467 2.283v-2.84c.21-.177.708-.46 1.167-.46.545 0 .748.29.748.816v2.484h.708v-2.587c0-.86-.374-1.305-1.23-1.305-.553 0-1.05.237-1.44.534l-.039-.453h-.622v3.81h.708zm5.074.089c.374 0 .787-.126.981-.252l-.124-.49c-.172.09-.46.186-.7.186-.483 0-.577-.223-.577-.623v-2.18h1.105v-.54h-1.105v-1.21l-.708.105v1.104h-.615v.542h.615v2.268c0 .764.381 1.09 1.128 1.09zm2.405-.09v-2.772c.327-.289.919-.482 1.417-.415v-.697l-.148-.007c-.56 0-.98.178-1.33.63l-.055-.549h-.592v3.81h.708zm3.114.09c.56 0 .973-.17 1.284-.467.039.244.218.452.615.452.194 0 .397-.044.552-.119l-.03-.422c-.102.03-.172.044-.242.044-.202 0-.241-.089-.241-.296V88.08c0-.949-.444-1.312-1.432-1.312-.927 0-1.41.333-1.534 1.045l.623.111c.086-.422.296-.63.848-.63.654 0 .794.297.794.779v.37c-.109-.007-.225-.015-.35-.015-1.129 0-2.07.282-2.07 1.298 0 .37.17 1.023 1.183 1.023zm.218-.527c-.545 0-.67-.281-.67-.607 0-.653.74-.705 1.292-.705.148 0 .296.008.405.023v.86c-.218.222-.615.43-1.027.43zm3.743.438v-5.597h-.708v5.597h.708zm3.728 0v-2.432h2.74v2.432h.716v-5.368h-.716v2.32h-2.74v-2.32h-.716v5.368h.716zm5.2-4.545c.319 0 .506-.178.506-.489s-.187-.482-.506-.482c-.32 0-.499.17-.499.482 0 .311.18.49.499.49zm.342 4.545v-3.81h-.708v3.81h.708zm2.646 1.675c1.004 0 2.055-.281 2.055-1.215 0-.75-.482-.942-1.307-.994l-1.113-.074c-.429-.03-.514-.14-.514-.29 0-.155.14-.259.249-.355.202.067.451.089.716.089.918 0 1.634-.504 1.634-1.364 0-.312-.1-.615-.295-.83.202-.06.521-.097.762-.082v-.541c-.116-.037-.225-.06-.35-.06-.296 0-.506.223-.63.497-.265-.252-.67-.348-1.16-.348-1.035 0-1.697.563-1.697 1.4 0 .49.226.883.592 1.068-.28.208-.53.423-.53.75 0 .274.164.422.436.526v.007c-.326.148-.646.445-.646.875 0 .452.304.941 1.798.941zm.055-3.395c-.708 0-.996-.319-.996-.816 0-.585.451-.815 1.011-.815.6 0 .965.26.965.83 0 .512-.396.8-.98.8zm.03 2.862c-.902 0-1.174-.215-1.174-.534 0-.252.14-.408.443-.6l1.3.073c.545.038.67.186.67.46 0 .4-.413.6-1.238.6zm3.503-1.142v-2.84c.21-.177.709-.46 1.168-.46.545 0 .747.29.747.816v2.484h.708v-2.587c0-.86-.373-1.305-1.222-1.305-.56 0-1.02.222-1.408.511v-2.216h-.7v5.597h.707zm7.083.089c1.043 0 1.992-.445 1.992-1.58 0-1.037-.895-1.29-1.72-1.519-.7-.2-1.346-.386-1.346-1.038 0-.474.311-.838 1.175-.838.872 0 1.09.497 1.175 1.009l.67-.075c-.117-1.149-.864-1.512-1.853-1.512-1.09 0-1.899.564-1.899 1.483 0 1.104.911 1.334 1.744 1.557.692.185 1.323.363 1.323 1.03 0 .712-.646.905-1.253.905-.965 0-1.246-.497-1.378-1.068l-.685.096c.148 1.105.88 1.55 2.055 1.55zm4.53 0c.801 0 1.51-.37 1.642-1.253l-.623-.126c-.1.563-.451.815-.996.815-.638 0-1.12-.34-1.12-1.475 0-1.082.568-1.379 1.143-1.379.56 0 .833.29.896.853l.677-.09c-.055-.881-.646-1.326-1.541-1.326-1.199 0-1.915.697-1.915 2.024 0 1.141.514 1.957 1.837 1.957zm3.308-.09v-2.839c.21-.177.708-.46 1.167-.46.545 0 .747.29.747.816v2.484h.709v-2.587c0-.86-.374-1.305-1.222-1.305-.56 0-1.02.222-1.41.511v-2.216h-.7v5.597h.709zm5.417.09c1.346 0 1.891-.816 1.891-2.069 0-1.134-.521-1.912-1.79-1.912-1.277 0-1.946.77-1.946 2.001 0 1.127.46 1.98 1.845 1.98zm.039-.541c-.779 0-1.152-.46-1.152-1.468 0-1.016.474-1.416 1.183-1.416.692 0 1.082.348 1.082 1.4 0 1.083-.42 1.484-1.113 1.484zm4.46.54c1.346 0 1.89-.815 1.89-2.068 0-1.134-.52-1.912-1.79-1.912-1.276 0-1.945.77-1.945 2.001 0 1.127.459 1.98 1.844 1.98zm.038-.54c-.778 0-1.152-.46-1.152-1.468 0-1.016.475-1.416 1.183-1.416.693 0 1.082.348 1.082 1.4 0 1.083-.42 1.484-1.113 1.484zm3.573.452v-5.597h-.709v5.597h.709zM90.657 111.659c.988 0 2.008-.4 2.202-1.587l-.646-.126c-.179.757-.614 1.127-1.51 1.127-1.128 0-1.782-.622-1.782-2.164 0-1.476.708-2.21 1.876-2.21.926 0 1.323.438 1.432 1.275l.67-.066c-.086-1.253-.911-1.802-2.094-1.802-1.604 0-2.623 1.053-2.623 2.862 0 1.609.708 2.69 2.475 2.69zm4.748 0c.801 0 1.424-.363 1.587-1.105l-.622-.133c-.11.43-.374.675-.942.675-.638 0-1.09-.304-1.12-1.276H97c.023-.178.031-.348.031-.496 0-.942-.467-1.646-1.588-1.646-1.027 0-1.883.6-1.883 1.994 0 1.045.428 1.987 1.845 1.987zm.895-2.372h-1.985c.039-.757.553-1.06 1.082-1.06.63 0 .903.378.903 1.06zm2.467 2.283v-2.84c.21-.177.708-.46 1.167-.46.545 0 .748.29.748.816v2.484h.708v-2.587c0-.86-.374-1.305-1.23-1.305-.553 0-1.05.237-1.44.534l-.039-.453h-.622v3.811h.708zm5.074.089c.374 0 .787-.126.981-.252l-.124-.49c-.172.09-.46.186-.7.186-.483 0-.577-.222-.577-.623v-2.18h1.105v-.54h-1.105v-1.209l-.708.104v1.104h-.615v.542h.615v2.268c0 .764.381 1.09 1.128 1.09zm2.405-.089v-2.773c.327-.289.919-.482 1.417-.415v-.697l-.148-.007c-.56 0-.98.178-1.33.63l-.055-.549h-.592v3.811h.708zm3.114.089c.56 0 .973-.17 1.284-.467.039.245.218.452.615.452.194 0 .397-.044.552-.118l-.03-.423c-.102.03-.172.044-.242.044-.202 0-.241-.089-.241-.296v-1.86c0-.95-.444-1.313-1.432-1.313-.927 0-1.41.333-1.534 1.045l.623.111c.086-.422.296-.63.848-.63.654 0 .794.297.794.779v.37c-.109-.007-.225-.015-.35-.015-1.129 0-2.07.282-2.07 1.298 0 .37.17 1.023 1.183 1.023zm.218-.526c-.545 0-.67-.282-.67-.608 0-.653.74-.705 1.292-.705.148 0 .296.008.405.023v.86c-.218.222-.615.43-1.027.43zm3.743.437v-5.597h-.708v5.597h.708zm3.728 0v-2.432h2.74v2.432h.716v-5.367h-.716v2.32h-2.74v-2.32h-.716v5.367h.716zm5.2-4.545c.319 0 .506-.177.506-.489 0-.311-.187-.482-.506-.482-.32 0-.499.17-.499.482 0 .312.18.49.499.49zm.342 4.545v-3.81h-.708v3.81h.708zm2.646 1.675c1.004 0 2.055-.281 2.055-1.215 0-.75-.482-.942-1.307-.994l-1.113-.074c-.429-.03-.514-.14-.514-.29 0-.155.14-.259.249-.355.202.067.451.09.716.09.918 0 1.634-.505 1.634-1.365 0-.311-.1-.615-.295-.83.202-.06.521-.097.762-.082v-.541c-.116-.037-.225-.06-.35-.06-.296 0-.506.223-.63.497-.265-.252-.67-.348-1.16-.348-1.035 0-1.697.563-1.697 1.401 0 .49.226.882.592 1.068-.28.207-.53.422-.53.748 0 .275.164.423.436.527v.007c-.326.148-.646.445-.646.875 0 .452.304.941 1.798.941zm.055-3.395c-.708 0-.996-.319-.996-.815 0-.586.451-.816 1.011-.816.6 0 .965.26.965.83 0 .512-.396.801-.98.801zm.03 2.862c-.902 0-1.174-.215-1.174-.534 0-.252.14-.408.443-.6l1.3.074c.545.037.67.185.67.46 0 .4-.413.6-1.238.6zm3.503-1.142v-2.84c.21-.177.709-.46 1.168-.46.545 0 .747.29.747.816v2.484h.708v-2.587c0-.86-.373-1.305-1.222-1.305-.56 0-1.02.222-1.408.511v-2.216h-.7v5.597h.707zm7.083.089c1.043 0 1.992-.445 1.992-1.58 0-1.037-.895-1.29-1.72-1.519-.7-.2-1.346-.385-1.346-1.038 0-.474.311-.838 1.175-.838.872 0 1.09.497 1.175 1.009l.67-.074c-.117-1.15-.864-1.513-1.853-1.513-1.09 0-1.899.564-1.899 1.483 0 1.105.911 1.334 1.744 1.557.692.185 1.323.363 1.323 1.03 0 .712-.646.905-1.253.905-.965 0-1.246-.497-1.378-1.068l-.685.097c.148 1.104.88 1.549 2.055 1.549zm4.53 0c.801 0 1.51-.37 1.642-1.253l-.623-.126c-.1.563-.451.816-.996.816-.638 0-1.12-.342-1.12-1.476 0-1.082.568-1.379 1.143-1.379.56 0 .833.29.896.853l.677-.09c-.055-.881-.646-1.326-1.541-1.326-1.199 0-1.915.697-1.915 2.024 0 1.141.514 1.957 1.837 1.957zm3.308-.089v-2.84c.21-.177.708-.46 1.167-.46.545 0 .747.29.747.816v2.484h.709v-2.587c0-.86-.374-1.305-1.222-1.305-.56 0-1.02.222-1.41.511v-2.216h-.7v5.597h.709zm5.417.089c1.346 0 1.891-.816 1.891-2.068 0-1.135-.521-1.913-1.79-1.913-1.277 0-1.946.77-1.946 2.002 0 1.126.46 1.979 1.845 1.979zm.039-.541c-.779 0-1.152-.46-1.152-1.468 0-1.016.474-1.416 1.183-1.416.692 0 1.082.348 1.082 1.401 0 1.082-.42 1.483-1.113 1.483zm4.46.54c1.346 0 1.89-.815 1.89-2.067 0-1.135-.52-1.913-1.79-1.913-1.276 0-1.945.77-1.945 2.002 0 1.126.459 1.979 1.844 1.979zm.038-.54c-.778 0-1.152-.46-1.152-1.468 0-1.016.475-1.416 1.183-1.416.693 0 1.082.348 1.082 1.401 0 1.082-.42 1.483-1.113 1.483zm3.573.452v-5.597h-.709v5.597h.709z"/>
                    <path fill="#06806B" fill-rule="nonzero" d="M207.39 47.087l1.788-5.508h-.725l-1.526 4.831h-.007l-1.58-4.83h-.795l1.881 5.507h.964zm2.852-4.663c.316 0 .5-.183.5-.502 0-.32-.184-.495-.5-.495s-.494.175-.494.495.178.502.494.502zm.339 4.663v-3.91h-.702v3.91h.702zm2.798.092c.794 0 1.41-.373 1.572-1.134l-.616-.137c-.108.441-.37.692-.933.692-.632 0-1.08-.312-1.11-1.308h2.667c.023-.183.03-.358.03-.51 0-.966-.462-1.689-1.572-1.689-1.017 0-1.865.617-1.865 2.047 0 1.072.424 2.039 1.827 2.039zm.886-2.435H212.3c.038-.776.547-1.088 1.071-1.088.625 0 .894.388.894 1.088zm3.238 2.343l.81-3.08h.007l.817 3.08h.817l1.233-3.91h-.678l-.94 3.165h-.008l-.864-3.165h-.724l-.871 3.18-.964-3.18h-.709l1.241 3.91h.833zm6.821 0v-2.29h1.257l1.28 2.29h.77l-1.372-2.472c.648-.22 1.08-.708 1.08-1.537 0-.753-.417-1.499-1.804-1.499h-1.912v5.508h.701zm1.041-2.875h-1.04v-2.04h.97c.802 0 1.311.199 1.311.944 0 .852-.509 1.096-1.241 1.096zm4.54 2.967c.794 0 1.41-.373 1.572-1.134l-.616-.137c-.108.441-.37.692-.933.692-.632 0-1.079-.312-1.11-1.308h2.667c.023-.183.031-.358.031-.51 0-.966-.462-1.689-1.572-1.689-1.018 0-1.866.617-1.866 2.047 0 1.072.424 2.039 1.827 2.039zm.886-2.435h-1.965c.038-.776.547-1.088 1.071-1.088.625 0 .894.388.894 1.088zm2.42 3.956v-1.902c.286.213.664.38 1.142.38.886 0 1.65-.608 1.65-2.137 0-1.438-.618-1.948-1.45-1.948-.563 0-1.01.213-1.372.533l-.039-.449h-.609V48.7h.679zm1.041-2.107c-.454 0-.847-.259-1.017-.388v-2.039c.231-.228.67-.495 1.11-.495.632 0 .94.38.94 1.362 0 .936-.277 1.56-1.033 1.56zm4.34.586c1.334 0 1.873-.837 1.873-2.123 0-1.164-.516-1.963-1.773-1.963-1.264 0-1.927.791-1.927 2.054 0 1.157.455 2.032 1.827 2.032zm.039-.556c-.771 0-1.141-.471-1.141-1.506 0-1.042.47-1.453 1.171-1.453.686 0 1.072.357 1.072 1.438 0 1.11-.416 1.521-1.102 1.521zm3.538.464v-2.845c.323-.297.91-.494 1.402-.426v-.715l-.146-.008c-.555 0-.971.183-1.318.647l-.054-.563h-.586v3.91h.702zm3.345.092c.37 0 .778-.13.971-.26l-.123-.501c-.17.091-.455.19-.694.19-.478 0-.57-.228-.57-.64v-2.236h1.094v-.555h-1.094v-1.24l-.702.106v1.134h-.609v.555h.61v2.328c0 .784.377 1.119 1.117 1.119zm2.937 0c.963 0 1.549-.442 1.549-1.187 0-.875-.686-1.02-1.41-1.172-.556-.114-.88-.228-.88-.631 0-.297.186-.548.764-.548.578 0 .732.274.825.723l.632-.137c-.124-.692-.51-1.134-1.45-1.134-.801 0-1.464.388-1.464 1.18 0 .912.778 1.05 1.426 1.179.54.106.863.182.863.616 0 .418-.347.563-.824.563-.702 0-.88-.335-.987-.753l-.624.167c.123.784.67 1.134 1.58 1.134zM207.39 68.905l1.788-5.507h-.725l-1.526 4.83h-.007l-1.58-4.83h-.795l1.881 5.507h.964zm2.852-4.663c.316 0 .5-.183.5-.502 0-.32-.184-.495-.5-.495s-.494.175-.494.495.178.502.494.502zm.339 4.663v-3.91h-.702v3.91h.702zm2.798.092c.794 0 1.41-.373 1.572-1.134l-.616-.137c-.108.441-.37.693-.933.693-.632 0-1.08-.312-1.11-1.309h2.667c.023-.183.03-.358.03-.51 0-.966-.462-1.689-1.572-1.689-1.017 0-1.865.617-1.865 2.047 0 1.073.424 2.039 1.827 2.039zm.886-2.435H212.3c.038-.776.547-1.088 1.071-1.088.625 0 .894.388.894 1.088zm3.238 2.343l.81-3.08h.007l.817 3.08h.817l1.233-3.91h-.678l-.94 3.165h-.008l-.864-3.165h-.724l-.871 3.18-.964-3.18h-.709l1.241 3.91h.833zm6.821 0v-2.29h1.257l1.28 2.29h.77l-1.372-2.472c.648-.22 1.08-.708 1.08-1.537 0-.753-.417-1.498-1.804-1.498h-1.912v5.507h.701zm1.041-2.875h-1.04V63.99h.97c.802 0 1.311.198 1.311.943 0 .852-.509 1.096-1.241 1.096zm4.54 2.967c.794 0 1.41-.373 1.572-1.134l-.616-.137c-.108.441-.37.693-.933.693-.632 0-1.079-.312-1.11-1.309h2.667c.023-.183.031-.358.031-.51 0-.966-.462-1.689-1.572-1.689-1.018 0-1.866.617-1.866 2.047 0 1.073.424 2.039 1.827 2.039zm.886-2.435h-1.965c.038-.776.547-1.088 1.071-1.088.625 0 .894.388.894 1.088zm2.42 3.956v-1.902c.286.213.664.38 1.142.38.886 0 1.65-.608 1.65-2.137 0-1.438-.618-1.948-1.45-1.948-.563 0-1.01.213-1.372.533l-.039-.449h-.609v5.523h.679zm1.041-2.107c-.454 0-.847-.259-1.017-.388v-2.039c.231-.228.67-.494 1.11-.494.632 0 .94.38.94 1.361 0 .936-.277 1.56-1.033 1.56zm4.34.586c1.334 0 1.873-.837 1.873-2.123 0-1.164-.516-1.963-1.773-1.963-1.264 0-1.927.792-1.927 2.055 0 1.156.455 2.03 1.827 2.03zm.039-.556c-.771 0-1.141-.471-1.141-1.506 0-1.042.47-1.453 1.171-1.453.686 0 1.072.358 1.072 1.438 0 1.11-.416 1.521-1.102 1.521zm3.538.464V66.06c.323-.296.91-.494 1.402-.426v-.715l-.146-.008c-.555 0-.971.183-1.318.647l-.054-.563h-.586v3.91h.702zm3.345.092c.37 0 .778-.13.971-.259l-.123-.502c-.17.091-.455.19-.694.19-.478 0-.57-.228-.57-.639v-2.236h1.094v-.556h-1.094v-1.24l-.702.107v1.133h-.609v.556h.61v2.327c0 .784.377 1.119 1.117 1.119zm2.937 0c.963 0 1.549-.442 1.549-1.187 0-.875-.686-1.02-1.41-1.172-.556-.114-.88-.228-.88-.631 0-.297.186-.548.764-.548.578 0 .732.274.825.723l.632-.137c-.124-.692-.51-1.134-1.45-1.134-.801 0-1.464.388-1.464 1.18 0 .913.778 1.05 1.426 1.179.54.106.863.182.863.616 0 .418-.347.563-.824.563-.702 0-.88-.335-.987-.753l-.624.167c.123.784.67 1.134 1.58 1.134zM207.39 89.814l1.788-5.507h-.725l-1.526 4.83h-.007l-1.58-4.83h-.795l1.881 5.507h.964zm2.852-4.663c.316 0 .5-.182.5-.502s-.184-.494-.5-.494-.494.175-.494.494c0 .32.178.502.494.502zm.339 4.663v-3.91h-.702v3.91h.702zm2.798.092c.794 0 1.41-.373 1.572-1.134l-.616-.137c-.108.442-.37.693-.933.693-.632 0-1.08-.312-1.11-1.309h2.667c.023-.182.03-.357.03-.51 0-.966-.462-1.688-1.572-1.688-1.017 0-1.865.616-1.865 2.046 0 1.073.424 2.039 1.827 2.039zm.886-2.435H212.3c.038-.776.547-1.087 1.071-1.087.625 0 .894.388.894 1.087zm3.238 2.343l.81-3.08h.007l.817 3.08h.817l1.233-3.91h-.678l-.94 3.165h-.008l-.864-3.165h-.724l-.871 3.18-.964-3.18h-.709l1.241 3.91h.833zm6.821 0v-2.29h1.257l1.28 2.29h.77l-1.372-2.472c.648-.22 1.08-.707 1.08-1.537 0-.753-.417-1.498-1.804-1.498h-1.912v5.507h.701zm1.041-2.875h-1.04V84.9h.97c.802 0 1.311.198 1.311.943 0 .852-.509 1.096-1.241 1.096zm4.54 2.967c.794 0 1.41-.373 1.572-1.134l-.616-.137c-.108.442-.37.693-.933.693-.632 0-1.079-.312-1.11-1.309h2.667c.023-.182.031-.357.031-.51 0-.966-.462-1.688-1.572-1.688-1.018 0-1.866.616-1.866 2.046 0 1.073.424 2.039 1.827 2.039zm.886-2.435h-1.965c.038-.776.547-1.087 1.071-1.087.625 0 .894.388.894 1.087zm2.42 3.956v-1.902c.286.213.664.38 1.142.38.886 0 1.65-.608 1.65-2.137 0-1.438-.618-1.947-1.45-1.947-.563 0-1.01.213-1.372.532l-.039-.449h-.609v5.523h.679zm1.041-2.107c-.454 0-.847-.259-1.017-.388v-2.039c.231-.228.67-.494 1.11-.494.632 0 .94.38.94 1.361 0 .936-.277 1.56-1.033 1.56zm4.34.586c1.334 0 1.873-.837 1.873-2.123 0-1.164-.516-1.962-1.773-1.962-1.264 0-1.927.79-1.927 2.054 0 1.156.455 2.03 1.827 2.03zm.039-.556c-.771 0-1.141-.471-1.141-1.506 0-1.042.47-1.453 1.171-1.453.686 0 1.072.358 1.072 1.438 0 1.11-.416 1.521-1.102 1.521zm3.538.464V86.97c.323-.296.91-.494 1.402-.426v-.715l-.146-.007c-.555 0-.971.182-1.318.646l-.054-.563h-.586v3.91h.702zm3.345.092c.37 0 .778-.13.971-.259l-.123-.502c-.17.091-.455.19-.694.19-.478 0-.57-.228-.57-.639V86.46h1.094v-.556h-1.094v-1.24l-.702.107v1.133h-.609v.556h.61v2.327c0 .784.377 1.119 1.117 1.119zm2.937 0c.963 0 1.549-.441 1.549-1.187 0-.875-.686-1.02-1.41-1.172-.556-.114-.88-.228-.88-.63 0-.298.186-.549.764-.549.578 0 .732.274.825.723l.632-.137c-.124-.692-.51-1.133-1.45-1.133-.801 0-1.464.388-1.464 1.179 0 .913.778 1.05 1.426 1.179.54.106.863.182.863.616 0 .419-.347.563-.824.563-.702 0-.88-.335-.987-.753l-.624.167c.123.784.67 1.134 1.58 1.134zM207.39 111.633l1.788-5.508h-.725l-1.526 4.83h-.007l-1.58-4.83h-.795l1.881 5.508h.964zm2.852-4.664c.316 0 .5-.182.5-.502s-.184-.494-.5-.494-.494.175-.494.494c0 .32.178.502.494.502zm.339 4.664v-3.91h-.702v3.91h.702zm2.798.091c.794 0 1.41-.373 1.572-1.134l-.616-.136c-.108.44-.37.692-.933.692-.632 0-1.08-.312-1.11-1.309h2.667c.023-.182.03-.357.03-.51 0-.966-.462-1.688-1.572-1.688-1.017 0-1.865.616-1.865 2.046 0 1.073.424 2.039 1.827 2.039zm.886-2.434H212.3c.038-.776.547-1.088 1.071-1.088.625 0 .894.388.894 1.088zm3.238 2.343l.81-3.081h.007l.817 3.08h.817l1.233-3.91h-.678l-.94 3.165h-.008l-.864-3.165h-.724l-.871 3.18-.964-3.18h-.709l1.241 3.91h.833zm6.821 0v-2.29h1.257l1.28 2.29h.77l-1.372-2.473c.648-.22 1.08-.707 1.08-1.536 0-.754-.417-1.5-1.804-1.5h-1.912v5.509h.701zm1.041-2.876h-1.04v-2.039h.97c.802 0 1.311.198 1.311.944 0 .852-.509 1.095-1.241 1.095zm4.54 2.967c.794 0 1.41-.373 1.572-1.134l-.616-.136c-.108.44-.37.692-.933.692-.632 0-1.079-.312-1.11-1.309h2.667c.023-.182.031-.357.031-.51 0-.966-.462-1.688-1.572-1.688-1.018 0-1.866.616-1.866 2.046 0 1.073.424 2.039 1.827 2.039zm.886-2.434h-1.965c.038-.776.547-1.088 1.071-1.088.625 0 .894.388.894 1.088zm2.42 3.955v-1.901c.286.213.664.38 1.142.38.886 0 1.65-.609 1.65-2.138 0-1.438-.618-1.947-1.45-1.947-.563 0-1.01.213-1.372.532l-.039-.449h-.609v5.523h.679zm1.041-2.107c-.454 0-.847-.258-1.017-.388v-2.039c.231-.228.67-.494 1.11-.494.632 0 .94.38.94 1.362 0 .935-.277 1.56-1.033 1.56zm4.34.586c1.334 0 1.873-.837 1.873-2.123 0-1.163-.516-1.962-1.773-1.962-1.264 0-1.927.79-1.927 2.054 0 1.156.455 2.031 1.827 2.031zm.039-.555c-.771 0-1.141-.472-1.141-1.507 0-1.042.47-1.453 1.171-1.453.686 0 1.072.358 1.072 1.438 0 1.11-.416 1.522-1.102 1.522zm3.538.464v-2.846c.323-.296.91-.494 1.402-.426v-.715l-.146-.007c-.555 0-.971.182-1.318.646l-.054-.563h-.586v3.91h.702zm3.345.091c.37 0 .778-.13.971-.259l-.123-.502c-.17.092-.455.19-.694.19-.478 0-.57-.228-.57-.639v-2.236h1.094v-.556h-1.094v-1.24l-.702.107v1.133h-.609v.556h.61v2.328c0 .783.377 1.118 1.117 1.118zm2.937 0c.963 0 1.549-.441 1.549-1.187 0-.875-.686-1.02-1.41-1.171-.556-.114-.88-.229-.88-.632 0-.296.186-.548.764-.548.578 0 .732.274.825.723l.632-.137c-.124-.692-.51-1.133-1.45-1.133-.801 0-1.464.388-1.464 1.179 0 .913.778 1.05 1.426 1.18.54.106.863.182.863.615 0 .419-.347.563-.824.563-.702 0-.88-.335-.987-.753l-.624.167c.123.784.67 1.134 1.58 1.134z"/>
                    <path fill="#6F6F6F" fill-rule="nonzero" d="M10.582 29.51v-5.344h1.674v-.663H8.182v.663h1.69v5.344h.71zm3.982.1c.794 0 1.412-.407 1.574-1.237l-.617-.15c-.109.482-.37.756-.934.756-.633 0-1.08-.34-1.111-1.428h2.67c.023-.199.03-.39.03-.555 0-1.054-.463-1.842-1.574-1.842-1.018 0-1.867.672-1.867 2.232 0 1.17.424 2.223 1.829 2.223zm.887-2.656h-1.968c.039-.846.548-1.186 1.073-1.186.625 0 .895.423.895 1.186zm2.724 2.655c.556 0 .965-.19 1.273-.523.039.274.216.506.61.506.193 0 .394-.05.548-.132l-.031-.473c-.1.033-.17.05-.24.05-.2 0-.238-.1-.238-.332v-2.083c0-1.062-.44-1.468-1.42-1.468-.919 0-1.397.373-1.52 1.17l.617.124c.085-.473.293-.705.841-.705.648 0 .787.332.787.871v.415c-.108-.009-.224-.017-.347-.017-1.12 0-2.053.315-2.053 1.452 0 .415.17 1.145 1.173 1.145zm.216-.589c-.54 0-.663-.315-.663-.68 0-.73.733-.789 1.28-.789.147 0 .294.009.402.025v.963c-.216.249-.61.481-1.019.481zm4.584.59c.795 0 1.497-.416 1.628-1.403l-.617-.141c-.1.63-.448.913-.988.913-.633 0-1.111-.382-1.111-1.652 0-1.21.563-1.543 1.134-1.543.556 0 .826.324.888.954l.671-.1c-.054-.986-.64-1.484-1.528-1.484-1.188 0-1.898.78-1.898 2.265 0 1.277.51 2.19 1.821 2.19zm3.28-.1v-3.178c.208-.2.702-.515 1.157-.515.54 0 .74.324.74.913v2.78h.703v-2.896c0-.962-.37-1.46-1.211-1.46-.556 0-1.011.249-1.397.572v-2.48h-.695v6.264h.703zm5.37.1c.795 0 1.413-.407 1.575-1.237l-.618-.15c-.108.482-.37.756-.933.756-.633 0-1.08-.34-1.112-1.428h2.67c.024-.199.031-.39.031-.555 0-1.054-.463-1.842-1.574-1.842-1.019 0-1.867.672-1.867 2.232 0 1.17.424 2.223 1.829 2.223zm.888-2.656h-1.968c.039-.846.548-1.186 1.073-1.186.625 0 .895.423.895 1.186zm2.446 2.556v-3.103c.324-.324.91-.54 1.405-.465v-.78l-.147-.008c-.556 0-.972.199-1.32.705l-.054-.614h-.586v4.265h.702zM90.256 29.61c1.052 0 2.01-.499 2.01-1.768 0-1.162-.903-1.444-1.735-1.701-.707-.224-1.36-.431-1.36-1.162 0-.53.315-.937 1.187-.937.88 0 1.1.556 1.186 1.128l.675-.083c-.117-1.286-.872-1.692-1.87-1.692-1.099 0-1.916.63-1.916 1.66 0 1.235.92 1.493 1.76 1.741.699.208 1.335.407 1.335 1.154 0 .796-.652 1.012-1.265 1.012-.974 0-1.256-.556-1.39-1.195l-.691.108c.15 1.236.887 1.734 2.074 1.734zm4.571 0c.81 0 1.524-.416 1.658-1.403l-.629-.141c-.102.63-.455.913-1.005.913-.644 0-1.131-.382-1.131-1.652 0-1.21.573-1.543 1.154-1.543.566 0 .841.324.904.954l.683-.1c-.055-.986-.652-1.484-1.555-1.484-1.21 0-1.932.78-1.932 2.265 0 1.277.518 2.19 1.853 2.19zm3.339-.1v-3.178c.212-.2.715-.515 1.178-.515.55 0 .754.324.754.913v2.78h.715v-2.896c0-.962-.377-1.46-1.233-1.46-.566 0-1.03.249-1.422.572v-2.48h-.707v6.264h.715zm5.467.1c1.359 0 1.909-.914 1.909-2.316 0-1.27-.526-2.14-1.807-2.14-1.288 0-1.964.863-1.964 2.24 0 1.261.464 2.215 1.862 2.215zm.04-.607c-.786 0-1.163-.514-1.163-1.642 0-1.137.479-1.585 1.194-1.585.699 0 1.092.39 1.092 1.568 0 1.211-.425 1.66-1.124 1.66zm4.5.606c1.36 0 1.91-.913 1.91-2.315 0-1.27-.527-2.14-1.808-2.14-1.288 0-1.963.863-1.963 2.24 0 1.261.463 2.215 1.861 2.215zm.04-.606c-.786 0-1.163-.514-1.163-1.642 0-1.137.48-1.585 1.194-1.585.7 0 1.092.39 1.092 1.568 0 1.211-.424 1.66-1.123 1.66zm3.605.507v-6.265h-.715v6.265h.715z"/>
                    <path fill="#E0E0E0" d="M0 34.155H258.182V35.155H0zM0 55.064H258.182V56.064H0zM0 76.882H258.182V77.882H0zM0 97.791H258.182V98.791H0z"/>
                </g>
            </g>
        </g>
    </g>
</svg>
