<svg xmlns="http://www.w3.org/2000/svg" width="104" height="104" viewBox="0 0 104 104">
    <g fill="none" fill-rule="evenodd">
        <g>
            <g transform="translate(-609 -2371) translate(609 2371)">
                <circle cx="52" cy="52" r="52" fill="#F5F5F5"/>
                <g fill-rule="nonzero">
                    <path fill="#013461" d="M29 19.478c-.764 0-1.381-.623-1.381-1.391V1.391C27.619.623 28.238 0 29 0s1.381.623 1.381 1.391v16.696c0 .768-.617 1.391-1.381 1.391z" transform="translate(23 17)"/>
                    <path fill="#0060B4" d="M42.81 13.913H30.38V2.783H42.81c.762 0 1.38.623 1.38 1.39v8.349c0 .768-.618 1.391-1.38 1.391z" transform="translate(23 17)"/>
                    <path fill="#05457D" d="M56.619 38.957H1.381c-.764 0-1.381.623-1.381 1.39V62.61C0 63.377.617 64 1.381 64h55.238c.764 0 1.381-.623 1.381-1.391V40.348c0-.768-.617-1.391-1.381-1.391z" transform="translate(23 17)"/>
                    <path fill="#B3B3B3" d="M43.673 28.13L29.863 17c-.504-.406-1.222-.406-1.726 0l-13.81 11.13c-.327.265-.517.664-.517 1.087v9.74h30.38v-9.74c0-.423-.19-.822-.517-1.086z" transform="translate(23 17)"/>
                    <path fill="#FFF" d="M30.381 34.783h-2.762c-.762 0-1.38-.624-1.38-1.392V30.61c0-.768.618-1.392 1.38-1.392h2.762c.762 0 1.38.624 1.38 1.392v2.782c0 .768-.618 1.392-1.38 1.392z" transform="translate(23 17)"/>
                    <path fill="#BADEFC" d="M9.667 54.26H6.905c-.763 0-1.381-.622-1.381-1.39v-2.783c0-.768.618-1.391 1.38-1.391h2.763c.762 0 1.38.623 1.38 1.391v2.783c0 .768-.618 1.39-1.38 1.39zM19.333 54.26h-2.762c-.762 0-1.38-.622-1.38-1.39v-2.783c0-.768.618-1.391 1.38-1.391h2.762c.763 0 1.381.623 1.381 1.391v2.783c0 .768-.618 1.39-1.38 1.39zM41.429 54.26h-2.762c-.763 0-1.381-.622-1.381-1.39v-2.783c0-.768.618-1.391 1.38-1.391h2.763c.762 0 1.38.623 1.38 1.391v2.783c0 .768-.618 1.39-1.38 1.39zM51.095 54.26h-2.762c-.762 0-1.38-.622-1.38-1.39v-2.783c0-.768.618-1.391 1.38-1.391h2.762c.763 0 1.381.623 1.381 1.391v2.783c0 .768-.618 1.39-1.38 1.39z" transform="translate(23 17)"/>
                    <path fill="#E6E6E6" d="M30.381 55.652h-2.762c-.762 0-1.38.623-1.38 1.391V64h5.523v-6.957c0-.768-.619-1.39-1.381-1.39z" transform="translate(23 17)"/>
                </g>
            </g>
        </g>
    </g>
</svg>
