<svg xmlns="http://www.w3.org/2000/svg" width="300" height="150" viewBox="0 0 300 150">
    <g fill="none" fill-rule="evenodd">
        <g>
            <g transform="translate(-838 -2831) translate(838 2831)">
                <rect width="300" height="150" fill="#F5F5F5" rx="8"/>
                <g fill-rule="nonzero">
                    <g>
                        <path fill="#013461" d="M44.5 29.826c-1.172 0-2.119-.954-2.119-2.13V2.13c0-1.176.95-2.13 2.119-2.13 1.17 0 2.119.954 2.119 2.13v25.566c0 1.176-.947 2.13-2.119 2.13z" transform="translate(31 26) translate(66)"/>
                        <path fill="#0060B4" d="M65.69 21.304H46.62V4.261H65.69c1.17 0 2.12.954 2.12 2.13v12.783c0 1.176-.95 2.13-2.12 2.13z" transform="translate(31 26) translate(66)"/>
                        <path fill="#05457D" d="M86.881 59.652H2.119c-1.172 0-2.119.955-2.119 2.13V95.87C0 97.046.947 98 2.119 98h84.762C88.053 98 89 97.046 89 95.87V61.783c0-1.176-.947-2.13-2.119-2.13z" transform="translate(31 26) translate(66)"/>
                        <path fill="#B3B3B3" d="M67.015 43.075l-21.19-17.043c-.774-.622-1.876-.622-2.65 0l-21.19 17.043c-.502.405-.795 1.016-.795 1.664v14.913h46.62V44.74c0-.648-.293-1.259-.795-1.664z" transform="translate(31 26) translate(66)"/>
                        <path fill="#FFF" d="M46.619 53.26h-4.238c-1.17 0-2.12-.954-2.12-2.13v-4.26c0-1.176.95-2.13 2.12-2.13h4.238c1.17 0 2.12.954 2.12 2.13v4.26c0 1.176-.95 2.13-2.12 2.13z" transform="translate(31 26) translate(66)"/>
                        <path fill="#BADEFC" d="M14.833 83.087h-4.238c-1.17 0-2.119-.954-2.119-2.13v-4.261c0-1.176.95-2.13 2.12-2.13h4.237c1.17 0 2.12.954 2.12 2.13v4.26c0 1.177-.95 2.131-2.12 2.131zM29.667 83.087h-4.238c-1.17 0-2.12-.954-2.12-2.13v-4.261c0-1.176.95-2.13 2.12-2.13h4.238c1.17 0 2.119.954 2.119 2.13v4.26c0 1.177-.95 2.131-2.12 2.131zM63.571 83.087h-4.238c-1.17 0-2.119-.954-2.119-2.13v-4.261c0-1.176.95-2.13 2.12-2.13h4.237c1.17 0 2.12.954 2.12 2.13v4.26c0 1.177-.95 2.131-2.12 2.131zM78.405 83.087h-4.238c-1.17 0-2.12-.954-2.12-2.13v-4.261c0-1.176.95-2.13 2.12-2.13h4.238c1.17 0 2.119.954 2.119 2.13v4.26c0 1.177-.95 2.131-2.12 2.131z" transform="translate(31 26) translate(66)"/>
                        <path fill="#E6E6E6" d="M46.619 85.217h-4.238c-1.17 0-2.12.955-2.12 2.13V98h8.477V87.348c0-1.176-.95-2.13-2.119-2.13z" transform="translate(31 26) translate(66)"/>
                    </g>
                    <g transform="translate(31 26) translate(192 25)">
                        <path fill="#B3B3B3" d="M37.636 49c-.418 0-.796-.254-.96-.646l-6.273-14.913c-.218-.538.03-1.155.555-1.384.525-.23 1.134.013 1.366.545l6.273 14.913c.228.54-.018 1.167-.549 1.399-.13.057-.27.087-.412.086zM25.09 0c-.576 0-1.045.477-1.045 1.065v3.196h2.091V1.065C26.136.477 25.668 0 25.091 0z"/>
                        <path fill="#444" d="M26.136 10.652c2.31 0 4.182 1.908 4.182 4.261s-1.872 4.26-4.182 4.26h-11.5v14.914h30.319V5.327H13.59c0 2.005-.796 3.926-2.207 5.325h14.752z"/>
                        <ellipse cx="6.273" cy="5.326" fill="#5A7A84" rx="5.227" ry="5.326"/>
                        <path fill="#5A7A84" d="M28.227 14.913c0-1.177-.936-2.13-2.09-2.13H5.226C2.342 12.786.003 15.169 0 18.109v28.228C0 47.807 1.17 49 2.614 49c1.443 0 2.613-1.192 2.613-2.663V33.022h2.091v13.315c0 1.47 1.17 2.663 2.614 2.663 1.443 0 2.613-1.192 2.613-2.663V17.043h13.591c1.155 0 2.091-.953 2.091-2.13z"/>
                        <path fill="#A67C52" d="M44.955 4.26H13.507c.053.353.081.71.084 1.066-.003.357-.031.713-.084 1.065H43.91v26.63H14.636v2.131h30.319c.577 0 1.045-.477 1.045-1.065V5.327c0-.59-.468-1.066-1.045-1.066z"/>
                    </g>
                    <g>
                        <path fill="#5A7A84" d="M15 10.652c-2.959 0-5.357-2.384-5.357-5.326C9.643 2.385 12.04 0 15 0s5.357 2.385 5.357 5.326c0 2.942-2.398 5.326-5.357 5.326z" transform="translate(31 26) translate(0 25)"/>
                        <path fill="#335262" d="M5.357 26.63v-9.587c0-2.353 1.919-4.26 4.286-4.26h10.714c2.367 0 4.286 1.907 4.286 4.26v9.587H5.357z" transform="translate(31 26) translate(0 25)"/>
                        <path fill="#C6A279" d="M4.286 49h21.428c.592 0 1.072-.477 1.072-1.065V31.957H3.214v15.978c0 .588.48 1.065 1.072 1.065z" transform="translate(31 26) translate(0 25)"/>
                        <path fill="#DDBE99" d="M1.071 31.957H28.93c.591 0 1.071-.477 1.071-1.066v-3.195c0-.589-.48-1.066-1.071-1.066H1.07C.48 26.63 0 27.107 0 27.696v3.195c0 .589.48 1.066 1.071 1.066z" transform="translate(31 26) translate(0 25)"/>
                    </g>
                </g>
            </g>
        </g>
    </g>
</svg>
