<svg xmlns="http://www.w3.org/2000/svg" width="300" height="150" viewBox="0 0 300 150">
    <g fill="none" fill-rule="evenodd">
        <g>
            <g transform="translate(-512 -2831) translate(512 2831)">
                <rect width="300" height="150" fill="#F5F5F5" rx="8"/>
                <g transform="translate(21 15)">
                    <g fill="#9B9B9B" fill-rule="nonzero">
                        <path d="M4.5 3.857c1.067 0 1.922-.861 1.922-1.928C6.422.86 5.567 0 4.5 0S2.571.861 2.571 1.929c0 1.067.862 1.928 1.929 1.928zm0 1.286c-1.498 0-4.5.752-4.5 2.25V9h9V7.393c0-1.498-3.002-2.25-4.5-2.25z"/>
                    </g>
                    <g fill="#9B9B9B" fill-rule="nonzero">
                        <path d="M4.5 3.857c1.067 0 1.922-.861 1.922-1.928C6.422.86 5.567 0 4.5 0S2.571.861 2.571 1.929c0 1.067.862 1.928 1.929 1.928zm0 1.286c-1.498 0-4.5.752-4.5 2.25V9h9V7.393c0-1.498-3.002-2.25-4.5-2.25z" transform="translate(90)"/>
                    </g>
                    <g fill="#9B9B9B" fill-rule="nonzero">
                        <path d="M4.5 3.857c1.067 0 1.922-.861 1.922-1.928C6.422.86 5.567 0 4.5 0S2.571.861 2.571 1.929c0 1.067.862 1.928 1.929 1.928zm0 1.286c-1.498 0-4.5.752-4.5 2.25V9h9V7.393c0-1.498-3.002-2.25-4.5-2.25z" transform="translate(179)"/>
                    </g>
                    <path fill="#3F3F3F" fill-rule="nonzero" d="M12.947 6.906l.526-1.549h2.093l.542 1.55h1.018l-2.021-5.664h-1.187L12 6.906h.947zm2.404-2.315h-1.695l.844-2.504h.015l.836 2.504zm3.471 2.315V1h-.915v5.906h.915zm1.592-4.725c.382 0 .597-.211.597-.594 0-.376-.215-.587-.597-.587-.374 0-.597.211-.597.587 0 .383.223.594.597.594zm.454 4.725V2.862h-.916v4.044h.916zM23.686 7c.883 0 1.616-.415 1.751-1.385l-.796-.156c-.095.563-.398.806-.907.806-.574 0-1.02-.337-1.02-1.432 0-1.072.51-1.338 1.043-1.338.534 0 .757.345.82.877l.844-.118c-.071-.954-.716-1.478-1.624-1.478-1.29 0-2.038.759-2.038 2.159C21.76 6.14 22.325 7 23.686 7zm4.322 0c.892 0 1.52-.438 1.68-1.205l-.78-.187c-.096.414-.319.657-.844.657-.597 0-1.01-.305-1.035-1.158h2.667c.016-.188.024-.376.024-.54 0-1.048-.494-1.791-1.688-1.791-1.074 0-1.966.649-1.966 2.112 0 1.11.462 2.112 1.942 2.112zm.765-2.519h-1.728c.04-.72.47-.993.931-.993.55 0 .797.305.797.993zM34.2 6.906l1.123-4.357h.016l1.114 4.357h1.186l1.218-5.663h-.931l-.868 4.685h-.016L35.85 1.243h-1.01l-1.17 4.646h-.017l-.915-4.646h-.98l1.258 5.663h1.186zm6.36.094c.574 0 1.028-.196 1.306-.493.072.313.263.477.693.477.223 0 .485-.054.645-.133l-.032-.532c-.104.032-.175.047-.247.047-.207 0-.247-.094-.247-.313v-1.87c0-1.008-.493-1.407-1.544-1.407-1.011 0-1.505.407-1.632 1.165l.804.141c.088-.422.255-.626.756-.626.605 0 .717.282.717.775v.305c-.112-.008-.231-.016-.422-.016-1.107 0-2.014.344-2.014 1.393 0 .399.183 1.087 1.218 1.087zm.327-.673c-.485 0-.613-.258-.613-.54 0-.594.669-.649 1.13-.649.208 0 .303.008.383.016v.798c-.183.188-.526.375-.9.375zm3.957.58V1h-.916v5.906h.916zm2.037 0V5.434l.542-.524 1.186 1.995h1.003l-1.505-2.59 1.401-1.454h-1.027l-1.6 1.635V1h-.915v5.906h.915zM52.01 7c.891 0 1.52-.438 1.68-1.205l-.78-.187c-.096.414-.319.657-.844.657-.597 0-1.011-.305-1.035-1.158h2.666c.016-.188.024-.376.024-.54 0-1.048-.493-1.791-1.687-1.791-1.075 0-1.966.649-1.966 2.112 0 1.11.461 2.112 1.942 2.112zm.764-2.519h-1.727c.04-.72.47-.993.931-.993.55 0 .796.305.796.993zm2.786 2.425V4.098c.342-.297.924-.477 1.441-.415v-.9c-.056 0-.12-.007-.167-.007-.605 0-1.02.234-1.345.688l-.072-.602h-.772v4.044h.915zM103.928 7.157l.515-1.615h2.052l.53 1.615h1l-1.982-5.904h-1.163L103 7.157h.928zm2.356-2.414h-1.661l.827-2.61h.015l.82 2.61zM110.294 9c1.077 0 2.091-.343 2.091-1.443 0-.775-.5-1.044-1.342-1.101l-1.147-.074c-.343-.024-.413-.13-.413-.277 0-.122.094-.236.195-.318.21.065.421.082.687.082.975 0 1.7-.555 1.7-1.51 0-.342-.101-.676-.312-.929.21-.065.453-.098.702-.081v-.694c-.117-.04-.187-.048-.32-.048-.296 0-.53.236-.67.579-.274-.245-.664-.335-1.132-.335-1.084 0-1.74.644-1.74 1.558 0 .538.235.954.594 1.166-.297.236-.57.481-.57.864 0 .327.18.53.476.636V7.1c-.375.13-.671.408-.671.848 0 .53.374 1.052 1.872 1.052zm.055-3.857c-.624 0-.882-.302-.882-.791 0-.547.383-.775.89-.775.538 0 .866.26.866.791 0 .481-.36.775-.874.775zm.031 3.148c-.757 0-1.092-.155-1.092-.498 0-.228.117-.391.328-.546l1.24.065c.492.024.609.171.609.432 0 .383-.383.547-1.085.547zm3.73-1.036c.56 0 1.006-.204 1.279-.514.07.326.257.498.678.498.219 0 .476-.058.632-.14l-.03-.554c-.102.033-.173.05-.243.05-.203 0-.242-.099-.242-.327V4.32c0-1.052-.483-1.468-1.513-1.468-.99 0-1.475.424-1.6 1.215l.789.147c.085-.44.25-.652.74-.652.594 0 .703.293.703.807v.318c-.11-.008-.226-.016-.414-.016-1.084 0-1.973.359-1.973 1.451 0 .416.179 1.134 1.193 1.134zm.32-.701c-.477 0-.602-.27-.602-.563 0-.62.656-.677 1.108-.677.203 0 .297.008.375.016v.832c-.18.196-.515.392-.882.392zm4.329.7c.429 0 .866-.154 1.069-.293l-.149-.668c-.163.097-.444.195-.686.195-.437 0-.538-.22-.538-.636V3.634h1.092v-.693h-1.092V1.579l-.898.13v1.232h-.616v.693h.616v2.349c0 .897.406 1.272 1.202 1.272zm2.59-.097V4.083c.195-.188.616-.449 1.022-.449.476 0 .663.277.663.807v2.716h.897v-2.87c0-.955-.374-1.436-1.24-1.436-.562 0-.999.212-1.35.506V1h-.89v6.157h.898zm4.657.098c.562 0 1.007-.204 1.28-.514.07.326.257.498.679.498.218 0 .475-.058.631-.14l-.03-.554c-.102.033-.172.05-.243.05-.202 0-.241-.099-.241-.327V4.32c0-1.052-.484-1.468-1.514-1.468-.99 0-1.474.424-1.6 1.215l.789.147c.086-.44.25-.652.74-.652.594 0 .703.293.703.807v.318c-.11-.008-.226-.016-.413-.016-1.085 0-1.974.359-1.974 1.451 0 .416.18 1.134 1.193 1.134zm.32-.701c-.476 0-.6-.27-.6-.563 0-.62.655-.677 1.107-.677.203 0 .297.008.375.016v.832c-.18.196-.515.392-.882.392zm6.842.7c.999 0 2.06-.48 2.255-1.818l-.812-.163c-.163.75-.554 1.175-1.396 1.175-1.053 0-1.646-.628-1.646-2.227 0-1.541.655-2.25 1.724-2.25.842 0 1.225.432 1.318 1.32l.843-.081c-.086-1.419-.936-2.063-2.153-2.063-1.678 0-2.668 1.199-2.668 3.14 0 1.785.717 2.968 2.535 2.968zm3.971-.097V4.083c.195-.188.616-.449 1.022-.449.476 0 .663.277.663.807v2.716h.897v-2.87c0-.955-.374-1.436-1.24-1.436-.562 0-.999.212-1.35.506V1h-.89v6.157h.898zm4.548 0V4.229c.336-.31.905-.497 1.412-.432V2.86c-.054 0-.117-.008-.164-.008-.592 0-.998.245-1.318.718l-.07-.628h-.757v4.216h.897zm2.504-4.926c.375 0 .586-.22.586-.62 0-.39-.211-.611-.586-.611-.366 0-.585.22-.585.612 0 .4.219.62.585.62zm.445 4.926V2.941h-.897v4.216h.897zm2.442.098c.99 0 1.662-.465 1.662-1.338 0-.962-.741-1.133-1.436-1.264-.53-.097-.874-.212-.874-.603 0-.277.203-.498.695-.498.523 0 .67.294.764.71l.78-.212c-.156-.734-.592-1.199-1.529-1.199-.842 0-1.552.424-1.552 1.305 0 1.003.78 1.15 1.435 1.288.515.106.843.18.843.604 0 .359-.312.506-.757.506-.647 0-.811-.351-.913-.75l-.764.26c.125.783.679 1.19 1.646 1.19zm3.862 0c.429 0 .866-.155 1.069-.294l-.149-.668c-.164.097-.444.195-.686.195-.437 0-.539-.22-.539-.636V3.634h1.093v-.693h-1.093V1.579l-.897.13v1.232h-.616v.693h.616v2.349c0 .897.406 1.272 1.202 1.272zm2.16-5.024c.375 0 .586-.22.586-.62 0-.39-.21-.611-.585-.611-.367 0-.585.22-.585.612 0 .4.218.62.585.62zm.445 4.926V2.941h-.897v4.216h.897zm2.778.098c.873 0 1.49-.457 1.646-1.256l-.765-.196c-.093.432-.312.685-.827.685-.585 0-.99-.318-1.014-1.207h2.614c.015-.195.023-.391.023-.562 0-1.093-.484-1.868-1.654-1.868-1.053 0-1.927.677-1.927 2.202 0 1.158.453 2.202 1.904 2.202zm.749-2.626h-1.693c.039-.75.46-1.036.912-1.036.539 0 .78.318.78 1.036zM194.711 6.906c2.034 0 2.952-1.181 2.952-2.918 0-1.69-.848-2.745-2.818-2.745H193v5.663h1.711zm-.008-.743h-.785V1.986h.856c1.256 0 1.947.485 1.947 2.088 0 1.307-.612 2.089-2.018 2.089zm4.883.837c.565 0 1.013-.196 1.288-.493.07.313.259.477.683.477.22 0 .479-.054.636-.133l-.032-.532c-.102.032-.173.047-.243.047-.204 0-.244-.094-.244-.313v-1.87c0-1.008-.486-1.407-1.523-1.407-.996 0-1.483.407-1.609 1.165l.793.141c.086-.422.251-.626.746-.626.596 0 .706.282.706.775v.305c-.11-.008-.227-.016-.416-.016-1.09 0-1.986.344-1.986 1.393 0 .399.18 1.087 1.201 1.087zm.322-.673c-.479 0-.604-.258-.604-.54 0-.594.66-.649 1.114-.649.204 0 .299.008.377.016v.798c-.18.188-.518.375-.887.375zm3.886.58v-2.95c.196-.18.62-.43 1.028-.43.48 0 .668.266.668.774v2.605h.902V4.153c0-.916-.376-1.377-1.256-1.377-.557 0-1.044.219-1.405.508l-.04-.422h-.8v4.044h.903zm5.37.093c.879 0 1.499-.438 1.656-1.205l-.77-.187c-.094.414-.314.657-.832.657-.588 0-.997-.305-1.02-1.158h2.63c.015-.188.023-.376.023-.54 0-1.048-.487-1.791-1.664-1.791-1.06 0-1.939.649-1.939 2.112 0 1.11.455 2.112 1.915 2.112zm.753-2.519h-1.703c.039-.72.463-.993.918-.993.542 0 .785.305.785.993zm4.726 2.425v-.735h-2.19l2.096-2.66v-.65h-3.085v.705h2.08l-2.112 2.699v.641h3.21zM218.7 7c1.084 0 2.073-.485 2.073-1.713 0-2.05-3.038-1.267-3.038-2.636 0-.454.306-.767 1.052-.767.793 0 1.012.446 1.09.986l.849-.102c-.11-1.26-.934-1.627-1.931-1.627-1.123 0-1.979.594-1.979 1.62 0 2.143 3.038 1.22 3.038 2.651 0 .673-.573.86-1.138.86-.918 0-1.162-.5-1.287-1.079l-.848.125c.125 1.283.997 1.682 2.12 1.682zm3.847-.094V3.934c.196-.18.612-.407.95-.407.447 0 .557.274.557.75v2.63h.903V4.128c0-.07 0-.149-.008-.211.196-.18.597-.391.919-.391.447 0 .565.274.565.75v2.63h.902V4.144c0-.908-.345-1.37-1.177-1.37-.55 0-1.005.22-1.358.525-.173-.376-.503-.524-1.02-.524-.534 0-.958.211-1.327.5l-.032-.414h-.777v4.044h.903zm6.327-4.725c.377 0 .589-.211.589-.594 0-.376-.212-.587-.589-.587-.369 0-.589.211-.589.587 0 .383.22.594.59.594zm.448 4.725V2.862h-.903v4.044h.903zm2.472.094c.432 0 .872-.149 1.076-.282l-.15-.641c-.164.094-.447.188-.69.188-.44 0-.542-.212-.542-.61V3.526h1.1v-.665h-1.1V1.555l-.903.126v1.18h-.62v.666h.62V5.78c0 .86.409 1.22 1.21 1.22zm2.607-.094V3.957c.196-.18.62-.43 1.028-.43.479 0 .667.266.667.774v2.605H237V4.153c0-.916-.377-1.377-1.248-1.377-.565 0-1.005.203-1.358.485V1h-.895v5.906h.903z"/>
                    <rect width="80" height="104" y="16" fill="#FFF" stroke="#E0E0E0" rx="6"/>
                    <rect width="80" height="104" x="90" y="16" fill="#FFF" stroke="#E0E0E0" rx="6"/>
                    <rect width="80" height="104" x="179" y="16" fill="#FFF" stroke="#E0E0E0" rx="6"/>
                    <path fill="#6F6F6F" fill-rule="nonzero" d="M6.539 27.918v-4.123l2.229 4.123h.695V23h-.532v4.083L6.758 23H6v4.918h.539zm4.828.082c.45 0 .783-.156 1.033-.428.031.224.175.414.495.414.156 0 .32-.04.444-.108l-.025-.388c-.081.028-.137.041-.194.041-.163 0-.194-.081-.194-.271v-1.706c0-.87-.357-1.202-1.152-1.202-.745 0-1.134.306-1.234.958l.501.102c.069-.388.238-.578.683-.578.526 0 .638.272.638.714v.34c-.087-.008-.181-.014-.281-.014-.908 0-1.666.258-1.666 1.189 0 .34.138.937.952.937zm.175-.482c-.438 0-.538-.258-.538-.557 0-.598.594-.646 1.04-.646.118 0 .237.007.325.02v.789c-.176.203-.495.394-.827.394zm3.012.4V25.31c.17-.17.564-.415.89-.415.413 0 .5.265.5.734v2.29h.57V25.54c0-.089-.006-.177-.012-.258.188-.17.557-.388.864-.388.413 0 .5.265.5.734v2.29h.57V25.54c0-.781-.237-1.19-.913-1.19-.439 0-.802.212-1.115.483-.125-.326-.382-.482-.808-.482-.438 0-.777.204-1.096.469l-.031-.394h-.489v3.491h.57zm6.137.082c.645 0 1.146-.333 1.278-1.012l-.501-.123c-.088.395-.3.619-.758.619-.514 0-.877-.279-.902-1.169h2.167c.019-.163.025-.32.025-.455 0-.863-.376-1.508-1.277-1.508-.827 0-1.516.55-1.516 1.827 0 .958.344 1.821 1.484 1.821zm.72-2.174h-1.597c.032-.693.445-.971.87-.971.508 0 .727.346.727.971zM96.539 27.918v-4.123l2.229 4.123h.695V23h-.532v4.083L96.758 23H96v4.918h.539zm4.828.082c.45 0 .783-.156 1.033-.428.031.224.175.414.495.414.156 0 .32-.04.444-.108l-.025-.388c-.081.028-.137.041-.194.041-.163 0-.194-.081-.194-.271v-1.706c0-.87-.357-1.202-1.152-1.202-.745 0-1.134.306-1.234.958l.501.102c.069-.388.238-.578.683-.578.526 0 .638.272.638.714v.34c-.087-.008-.181-.014-.281-.014-.908 0-1.666.258-1.666 1.189 0 .34.138.937.952.937zm.175-.482c-.438 0-.538-.258-.538-.557 0-.598.594-.646 1.04-.646.118 0 .237.007.325.02v.789c-.176.203-.495.394-.827.394zm3.012.4V25.31c.17-.17.564-.415.89-.415.413 0 .5.265.5.734v2.29h.57V25.54c0-.089-.006-.177-.012-.258.188-.17.557-.388.864-.388.413 0 .5.265.5.734v2.29h.57V25.54c0-.781-.237-1.19-.913-1.19-.439 0-.802.212-1.115.483-.125-.326-.382-.482-.808-.482-.438 0-.777.204-1.096.469l-.031-.394h-.489v3.491h.57zm6.137.082c.645 0 1.146-.333 1.278-1.012l-.501-.123c-.088.395-.3.619-.758.619-.514 0-.877-.279-.902-1.169h2.167c.019-.163.025-.32.025-.455 0-.863-.376-1.508-1.277-1.508-.827 0-1.516.55-1.516 1.827 0 .958.344 1.821 1.484 1.821zm.72-2.174h-1.597c.032-.693.445-.971.87-.971.508 0 .727.346.727.971zM186.539 27.918v-4.123l2.229 4.123h.695V23h-.532v4.083L186.758 23H186v4.918h.539zm4.828.082c.45 0 .783-.156 1.033-.428.031.224.175.414.495.414.156 0 .32-.04.444-.108l-.025-.388c-.081.028-.137.041-.194.041-.163 0-.194-.081-.194-.271v-1.706c0-.87-.357-1.202-1.152-1.202-.745 0-1.134.306-1.234.958l.501.102c.069-.388.238-.578.683-.578.526 0 .638.272.638.714v.34c-.087-.008-.181-.014-.281-.014-.908 0-1.666.258-1.666 1.189 0 .34.138.937.952.937zm.175-.482c-.438 0-.538-.258-.538-.557 0-.598.594-.646 1.04-.646.118 0 .237.007.325.02v.789c-.176.203-.495.394-.827.394zm3.012.4V25.31c.17-.17.564-.415.89-.415.413 0 .5.265.5.734v2.29h.57V25.54c0-.089-.006-.177-.012-.258.188-.17.557-.388.864-.388.413 0 .5.265.5.734v2.29h.57V25.54c0-.781-.237-1.19-.913-1.19-.439 0-.802.212-1.115.483-.125-.326-.382-.482-.808-.482-.438 0-.777.204-1.096.469l-.031-.394h-.489v3.491h.57zm6.137.082c.645 0 1.146-.333 1.278-1.012l-.501-.123c-.088.395-.3.619-.758.619-.514 0-.877-.279-.902-1.169h2.167c.019-.163.025-.32.025-.455 0-.863-.376-1.508-1.277-1.508-.827 0-1.516.55-1.516 1.827 0 .958.344 1.821 1.484 1.821zm.72-2.174h-1.597c.032-.693.445-.971.87-.971.508 0 .727.346.727.971zM37.406 27.918c1.768 0 2.567-1.025 2.567-2.533 0-1.468-.738-2.385-2.45-2.385H36v4.918h1.406zm.007-.53h-.785V23.53h.84c1.174 0 1.856.448 1.856 1.943 0 1.202-.62 1.916-1.911 1.916zm4.32.612c.492 0 .854-.156 1.127-.428.034.224.191.414.54.414.17 0 .347-.04.484-.108l-.027-.388c-.09.028-.15.041-.212.041-.177 0-.212-.081-.212-.271v-1.706c0-.87-.389-1.202-1.256-1.202-.812 0-1.235.306-1.344.958l.546.102c.075-.388.26-.578.744-.578.573 0 .696.272.696.714v.34c-.095-.008-.198-.014-.307-.014-.99 0-1.816.258-1.816 1.189 0 .34.15.937 1.038.937zm.192-.482c-.478 0-.587-.258-.587-.557 0-.598.648-.646 1.133-.646.13 0 .26.007.355.02v.789c-.191.203-.54.394-.901.394zm3.761.482c.328 0 .69-.115.86-.231l-.11-.448c-.15.081-.402.17-.613.17-.424 0-.506-.204-.506-.571v-1.997h.97v-.496h-.97v-1.108l-.62.095v1.013h-.54v.496h.54V27c0 .7.334.999.989.999zm2.887 0c.703 0 1.25-.333 1.393-1.012l-.546-.123c-.096.395-.328.619-.826.619-.56 0-.956-.279-.983-1.169h2.362c.02-.163.027-.32.027-.455 0-.863-.41-1.508-1.392-1.508-.902 0-1.652.55-1.652 1.827 0 .958.375 1.821 1.617 1.821zm.785-2.174h-1.74c.034-.693.484-.971.949-.971.552 0 .791.346.791.971zM127.406 27.918c1.768 0 2.567-1.025 2.567-2.533 0-1.468-.738-2.385-2.45-2.385H126v4.918h1.406zm.007-.53h-.785V23.53h.84c1.174 0 1.856.448 1.856 1.943 0 1.202-.62 1.916-1.911 1.916zm4.32.612c.492 0 .854-.156 1.127-.428.034.224.191.414.54.414.17 0 .347-.04.484-.108l-.027-.388c-.09.028-.15.041-.212.041-.177 0-.212-.081-.212-.271v-1.706c0-.87-.389-1.202-1.256-1.202-.812 0-1.235.306-1.344.958l.546.102c.075-.388.26-.578.744-.578.573 0 .696.272.696.714v.34c-.095-.008-.198-.014-.307-.014-.99 0-1.816.258-1.816 1.189 0 .34.15.937 1.038.937zm.192-.482c-.478 0-.587-.258-.587-.557 0-.598.648-.646 1.133-.646.13 0 .26.007.355.02v.789c-.191.203-.54.394-.901.394zm3.761.482c.328 0 .69-.115.86-.231l-.11-.448c-.15.081-.402.17-.613.17-.424 0-.506-.204-.506-.571v-1.997h.97v-.496h-.97v-1.108l-.62.095v1.013h-.54v.496h.54V27c0 .7.334.999.989.999zm2.887 0c.703 0 1.25-.333 1.393-1.012l-.546-.123c-.096.395-.328.619-.826.619-.56 0-.956-.279-.983-1.169h2.362c.02-.163.027-.32.027-.455 0-.863-.41-1.508-1.392-1.508-.902 0-1.652.55-1.652 1.827 0 .958.375 1.821 1.617 1.821zm.785-2.174h-1.74c.034-.693.484-.971.949-.971.552 0 .791.346.791.971zM217.406 27.918c1.768 0 2.567-1.025 2.567-2.533 0-1.468-.738-2.385-2.45-2.385H216v4.918h1.406zm.007-.53h-.785V23.53h.84c1.174 0 1.856.448 1.856 1.943 0 1.202-.62 1.916-1.911 1.916zm4.32.612c.492 0 .854-.156 1.127-.428.034.224.191.414.54.414.17 0 .347-.04.484-.108l-.027-.388c-.09.028-.15.041-.212.041-.177 0-.212-.081-.212-.271v-1.706c0-.87-.389-1.202-1.256-1.202-.812 0-1.235.306-1.344.958l.546.102c.075-.388.26-.578.744-.578.573 0 .696.272.696.714v.34c-.095-.008-.198-.014-.307-.014-.99 0-1.816.258-1.816 1.189 0 .34.15.937 1.038.937zm.192-.482c-.478 0-.587-.258-.587-.557 0-.598.648-.646 1.133-.646.13 0 .26.007.355.02v.789c-.191.203-.54.394-.901.394zm3.761.482c.328 0 .69-.115.86-.231l-.11-.448c-.15.081-.402.17-.613.17-.424 0-.506-.204-.506-.571v-1.997h.97v-.496h-.97v-1.108l-.62.095v1.013h-.54v.496h.54V27c0 .7.334.999.989.999zm2.887 0c.703 0 1.25-.333 1.393-1.012l-.546-.123c-.096.395-.328.619-.826.619-.56 0-.956-.279-.983-1.169h2.362c.02-.163.027-.32.027-.455 0-.863-.41-1.508-1.392-1.508-.902 0-1.652.55-1.652 1.827 0 .958.375 1.821 1.617 1.821zm.785-2.174h-1.74c.034-.693.484-.971.949-.971.552 0 .791.346.791.971zM58.666 28c.845 0 1.615-.4 1.615-1.422 0-.934-.726-1.161-1.395-1.368-.567-.18-1.091-.348-1.091-.935 0-.427.252-.754.953-.754.706 0 .883.447.952.908l.543-.067c-.095-1.035-.7-1.362-1.502-1.362-.883 0-1.54.507-1.54 1.335 0 .995.74 1.202 1.414 1.402.562.167 1.073.327 1.073.928 0 .64-.524.814-1.016.814-.782 0-1.01-.447-1.117-.961l-.555.087c.12.994.713 1.395 1.666 1.395zm3.672 0c.65 0 1.224-.334 1.33-1.128l-.504-.114c-.082.508-.366.735-.808.735-.517 0-.908-.307-.908-1.329 0-.974.46-1.241.927-1.241.455 0 .675.26.726.767l.549-.08c-.044-.794-.524-1.195-1.25-1.195-.971 0-1.551.628-1.551 1.823 0 1.028.416 1.762 1.489 1.762zm3.4 0c1.092 0 1.533-.734 1.533-1.862 0-1.022-.422-1.723-1.45-1.723-1.036 0-1.578.694-1.578 1.803 0 1.014.372 1.782 1.495 1.782zm.032-.487c-.631 0-.934-.414-.934-1.322 0-.915.385-1.275.959-1.275.561 0 .877.314.877 1.262 0 .974-.34 1.335-.902 1.335zm2.896.407v-2.497c.265-.26.744-.434 1.148-.374v-.627l-.12-.007c-.454 0-.795.16-1.079.568l-.044-.494h-.48v3.43h.575zm3.015.08c.65 0 1.155-.327 1.287-.995l-.504-.12c-.089.387-.303.608-.764.608-.517 0-.883-.274-.908-1.149h2.183c.019-.16.025-.313.025-.447 0-.848-.379-1.482-1.287-1.482-.833 0-1.527.54-1.527 1.796 0 .941.347 1.789 1.495 1.789zm.726-2.136h-1.609c.032-.681.448-.955.877-.955.511 0 .732.34.732.955zM148.666 28c.845 0 1.615-.4 1.615-1.422 0-.934-.726-1.161-1.395-1.368-.567-.18-1.091-.348-1.091-.935 0-.427.252-.754.953-.754.706 0 .883.447.952.908l.543-.067c-.095-1.035-.7-1.362-1.502-1.362-.883 0-1.54.507-1.54 1.335 0 .995.74 1.202 1.414 1.402.562.167 1.073.327 1.073.928 0 .64-.524.814-1.016.814-.782 0-1.01-.447-1.117-.961l-.555.087c.12.994.713 1.395 1.666 1.395zm3.672 0c.65 0 1.224-.334 1.33-1.128l-.504-.114c-.082.508-.366.735-.808.735-.517 0-.908-.307-.908-1.329 0-.974.46-1.241.927-1.241.455 0 .675.26.726.767l.549-.08c-.044-.794-.524-1.195-1.25-1.195-.971 0-1.551.628-1.551 1.823 0 1.028.416 1.762 1.489 1.762zm3.4 0c1.092 0 1.533-.734 1.533-1.862 0-1.022-.422-1.723-1.45-1.723-1.036 0-1.578.694-1.578 1.803 0 1.014.372 1.782 1.495 1.782zm.032-.487c-.631 0-.934-.414-.934-1.322 0-.915.385-1.275.959-1.275.561 0 .877.314.877 1.262 0 .974-.34 1.335-.902 1.335zm2.896.407v-2.497c.265-.26.744-.434 1.148-.374v-.627l-.12-.007c-.454 0-.795.16-1.079.568l-.044-.494h-.48v3.43h.575zm3.015.08c.65 0 1.155-.327 1.287-.995l-.504-.12c-.089.387-.303.608-.764.608-.517 0-.883-.274-.908-1.149h2.183c.019-.16.025-.313.025-.447 0-.848-.379-1.482-1.287-1.482-.833 0-1.527.54-1.527 1.796 0 .941.347 1.789 1.495 1.789zm.726-2.136h-1.609c.032-.681.448-.955.877-.955.511 0 .732.34.732.955zM238.666 28c.845 0 1.615-.4 1.615-1.422 0-.934-.726-1.161-1.395-1.368-.567-.18-1.091-.348-1.091-.935 0-.427.252-.754.953-.754.706 0 .883.447.952.908l.543-.067c-.095-1.035-.7-1.362-1.502-1.362-.883 0-1.54.507-1.54 1.335 0 .995.74 1.202 1.414 1.402.562.167 1.073.327 1.073.928 0 .64-.524.814-1.016.814-.782 0-1.01-.447-1.117-.961l-.555.087c.12.994.713 1.395 1.666 1.395zm3.672 0c.65 0 1.224-.334 1.33-1.128l-.504-.114c-.082.508-.366.735-.808.735-.517 0-.908-.307-.908-1.329 0-.974.46-1.241.927-1.241.455 0 .675.26.726.767l.549-.08c-.044-.794-.524-1.195-1.25-1.195-.971 0-1.551.628-1.551 1.823 0 1.028.416 1.762 1.489 1.762zm3.4 0c1.092 0 1.533-.734 1.533-1.862 0-1.022-.422-1.723-1.45-1.723-1.036 0-1.578.694-1.578 1.803 0 1.014.372 1.782 1.495 1.782zm.032-.487c-.631 0-.934-.414-.934-1.322 0-.915.385-1.275.959-1.275.561 0 .877.314.877 1.262 0 .974-.34 1.335-.902 1.335zm2.896.407v-2.497c.265-.26.744-.434 1.148-.374v-.627l-.12-.007c-.454 0-.795.16-1.079.568l-.044-.494h-.48v3.43h.575zm3.015.08c.65 0 1.155-.327 1.287-.995l-.504-.12c-.089.387-.303.608-.764.608-.517 0-.883-.274-.908-1.149h2.183c.019-.16.025-.313.025-.447 0-.848-.379-1.482-1.287-1.482-.833 0-1.527.54-1.527 1.796 0 .941.347 1.789 1.495 1.789zm.726-2.136h-1.609c.032-.681.448-.955.877-.955.511 0 .732.34.732.955z"/>
                    <path fill="#E0E0E0" d="M0 34H80V35H0zM90 34H170V35H90zM179 34H259V35H179zM0 55H80V56H0zM90 55H170V56H90zM179 55H259V56H179zM0 76H80V77H0zM90 76H170V77H90zM179 76H259V77H179zM0 98H80V99H0zM90 98H170V99H90zM179 98H259V99H179z"/>
                    <path fill="#E2E2E2" style="mix-blend-mode:multiply" d="M6 43H26V47H6zM95 43H115V47H95zM185 43H205V47H185zM6 64H19V68H6zM95 64H108V68H95zM185 64H198V68H185zM5 85H29V89H5zM95 85H119V89H95zM184 85H208V89H184zM6 106H24V110H6zM95 106H113V110H95zM185 106H203V110H185zM36 43H46V47H36zM126 43H136V47H126zM215 43H225V47H215zM36 64H43V68H36zM125 64H132V68H125zM215 64H222V68H215zM36 85H48V89H36zM126 85H138V89H126zM215 85H227V89H215zM36 106H43V110H36zM126 106H133V110H126zM215 106H222V110H215z"/>
                    <path fill="#F5A732" style="mix-blend-mode:multiply" d="M56 43H63V47H56z"/>
                    <path fill="#58B145" style="mix-blend-mode:multiply" d="M146 43H161V47H146z"/>
                    <path fill="#F5A732" style="mix-blend-mode:multiply" d="M236 43H243V46H236z"/>
                    <path fill="#58B145" style="mix-blend-mode:multiply" d="M56 64H67V68H56z"/>
                    <path fill="#F5A732" style="mix-blend-mode:multiply" d="M146 64H155V68H146z"/>
                    <path fill="#E73030" style="mix-blend-mode:multiply" d="M236 64H245V68H236z"/>
                    <path fill="#F5A732" style="mix-blend-mode:multiply" d="M57 85H62V89H57z"/>
                    <path fill="#58B145" style="mix-blend-mode:multiply" d="M146 85H157V89H146zM236 85H249V89H236z"/>
                    <path fill="#E73030" style="mix-blend-mode:multiply" d="M56 106H63V110H56z"/>
                    <path fill="#58B145" style="mix-blend-mode:multiply" d="M146 106H151V110H146zM237 106H247V110H237z"/>
                </g>
            </g>
        </g>
    </g>
</svg>
