<svg width="61" height="60" viewBox="0 0 61 60" fill="none" xmlns="http://www.w3.org/2000/svg">
<line x1="32.2656" y1="58.1875" x2="4.4762" y2="58.1875" stroke="#06806B" stroke-width="2" stroke-linecap="round"/>
<mask id="path-2-inside-1_4733_4524" fill="white">
<path fill-rule="evenodd" clip-rule="evenodd" d="M55.9064 13.8916L45.3965 36.7656L33.2724 41.5872L29.0335 29.2473L39.5471 6.36524C39.5476 6.36416 39.5481 6.36309 39.5486 6.36202C41.726 1.62299 47.1542 -0.535716 51.6727 1.54041C56.1912 3.61654 58.0891 9.14131 55.9116 13.8803C55.9099 13.8841 55.9082 13.8879 55.9064 13.8916Z"/>
</mask>
<path d="M55.9064 13.8916L54.0902 13.0541L54.0891 13.0566L55.9064 13.8916ZM45.3965 36.7656L46.1356 38.624L46.8796 38.3282L47.2139 37.6006L45.3965 36.7656ZM33.2724 41.5872L31.3809 42.237L32.0623 44.2208L34.0115 43.4456L33.2724 41.5872ZM29.0335 29.2473L27.2162 28.4123L26.8819 29.1398L27.142 29.897L29.0335 29.2473ZM39.5471 6.36524L41.3645 7.20025L41.3648 7.19962L39.5471 6.36524ZM54.0891 13.0566L43.5792 35.9306L47.2139 37.6006L57.7238 14.7266L54.0891 13.0566ZM44.6574 34.9072L32.5333 39.7288L34.0115 43.4456L46.1356 38.624L44.6574 34.9072ZM35.1639 40.9375L30.925 28.5975L27.142 29.897L31.3809 42.237L35.1639 40.9375ZM30.8508 30.0823L41.3645 7.20025L37.7298 5.53022L27.2162 28.4123L30.8508 30.0823ZM41.3648 7.19962C41.3638 7.2018 41.363 7.20353 41.3633 7.20276C41.3633 7.20272 41.3646 7.20002 41.366 7.19704L37.7313 5.527C37.7321 5.52509 37.7329 5.52346 37.7324 5.5245C37.7323 5.5248 37.731 5.5276 37.7295 5.53086L41.3648 7.19962ZM41.366 7.19704C43.1202 3.37913 47.4035 1.77984 50.8377 3.35776L52.5077 -0.276936C46.9049 -2.85128 40.3319 -0.133143 37.7313 5.527L41.366 7.19704ZM50.8377 3.35776C54.2719 4.93567 55.8485 9.22741 54.0943 13.0453L57.729 14.7154C60.3296 9.05521 58.1106 2.2974 52.5077 -0.276936L50.8377 3.35776ZM54.0943 13.0453C54.0928 13.0486 54.0915 13.0514 54.0902 13.0541L57.7226 14.7292C57.7248 14.7243 57.727 14.7197 57.729 14.7154L54.0943 13.0453Z" fill="#06806B" mask="url(#path-2-inside-1_4733_4524)"/>
<path d="M31.3955 45.673L47.8418 9.87891" stroke="#06806B" stroke-width="2" stroke-linecap="round"/>
<path d="M27.1598 46.2212L30.706 45.7651C31.1278 45.7109 31.5436 45.9019 31.7772 46.2573L33.7411 49.2451C34.0622 49.7336 33.9503 50.3874 33.4849 50.7413L28.3564 54.6411C27.6482 55.1797 26.6257 54.7098 26.573 53.8217L26.1914 47.3901C26.1568 46.8065 26.5799 46.2957 27.1598 46.2212Z" stroke="#06806B" stroke-width="2" stroke-linecap="round"/>
<path d="M36.7637 15.8125L40.9602 24.9275L50.6099 22.1744" stroke="#06806B" stroke-width="2" stroke-linecap="square"/>
</svg>
