<svg width="80" height="80" viewBox="0 0 80 80" fill="none" xmlns="http://www.w3.org/2000/svg">
<path fill-rule="evenodd" clip-rule="evenodd" d="M54.8728 7.65992C53.58 7.17502 52.139 7.82993 51.6541 9.1227C51.1692 10.4155 51.8241 11.8565 53.1168 12.3414L56.4725 13.6001L13.9655 32.9354C12.7087 33.5071 12.1533 34.9894 12.725 36.2462C13.2967 37.503 14.7789 38.0584 16.0357 37.4867L58.5402 18.1525L57.2821 21.5067C56.7972 22.7995 57.4521 24.2405 58.7448 24.7254C60.0376 25.2103 61.4787 24.5554 61.9636 23.2627L65.3416 14.2567C65.415 14.061 65.4629 13.8587 65.4856 13.6544C65.5344 13.2206 65.4702 12.7683 65.2762 12.3419C64.9779 11.6861 64.4316 11.2212 63.7987 11.0079L54.8728 7.65992ZM15.4979 45.9985C15.4979 44.6178 16.6172 43.4985 17.9979 43.4985H29.9979C31.3786 43.4985 32.4979 44.6178 32.4979 45.9985V63.9985C32.4979 65.3792 31.3786 66.4985 29.9979 66.4985H17.9979C16.6172 66.4985 15.4979 65.3792 15.4979 63.9985V45.9985ZM20.4979 48.4985V61.4985H27.4979V48.4985H20.4979ZM42.0016 31.5015C40.6209 31.5015 39.5016 32.6208 39.5016 34.0015V64.0015C39.5016 65.3822 40.6209 66.5015 42.0016 66.5015H54.0016C55.3824 66.5015 56.5016 65.3822 56.5016 64.0015V34.0015C56.5016 32.6208 55.3824 31.5015 54.0016 31.5015H42.0016ZM44.5016 61.5015V36.5015H51.5016V61.5015H44.5016Z" fill="#DF9E3D"/>
</svg>
