<svg width="80" height="80" viewBox="0 0 80 80" fill="none" xmlns="http://www.w3.org/2000/svg">
<path fill-rule="evenodd" clip-rule="evenodd" d="M49.4 13.3307H63.3333C67.0152 13.3307 70 16.3155 70 19.9974V66.6641C70 70.346 67.0152 73.3307 63.3333 73.3307H16.6667C12.9848 73.3307 10 70.346 10 66.6641V19.9974C10 16.3155 12.9848 13.3307 16.6667 13.3307H30.6C32 9.46406 35.6667 6.66406 40 6.66406C44.3333 6.66406 48 9.46406 49.4 13.3307ZM43.3332 16.6624C43.3332 14.8215 41.8409 13.3291 39.9999 13.3291C38.1589 13.3291 36.6666 14.8215 36.6666 16.6624C36.6666 18.5034 38.1589 19.9958 39.9999 19.9958C41.8409 19.9958 43.3332 18.5034 43.3332 16.6624ZM23.3335 26.6645H56.6669V19.9978H63.3335V66.6645H16.6669V19.9978H23.3335V26.6645ZM23.3337 63.3299H30.0004V39.9966H23.3337V63.3299ZM36.6666 63.3324V29.999H43.3332V63.3324H36.6666ZM50.0003 63.3311H56.667V49.9978H50.0003V63.3311Z" fill="#DF9E3D"/>
</svg>
