<svg width="80" height="80" viewBox="0 0 80 80" fill="none" xmlns="http://www.w3.org/2000/svg">
<path fill-rule="evenodd" clip-rule="evenodd" d="M49.4 13.3307H63.3333C67.0152 13.3307 70 16.3155 70 19.9974V66.6641C70 70.346 67.0152 73.3307 63.3333 73.3307H16.6667C12.9848 73.3307 10 70.346 10 66.6641V19.9974C10 16.3155 12.9848 13.3307 16.6667 13.3307H30.6C32 9.46406 35.6667 6.66406 40 6.66406C44.3333 6.66406 48 9.46406 49.4 13.3307ZM43.3332 16.6624C43.3332 14.8215 41.8409 13.3291 39.9999 13.3291C38.1589 13.3291 36.6666 14.8215 36.6666 16.6624C36.6666 18.5034 38.1589 19.9958 39.9999 19.9958C41.8409 19.9958 43.3332 18.5034 43.3332 16.6624ZM23.3335 26.6645H56.6669V19.9978H63.3335V66.6645H16.6669V19.9978H23.3335V26.6645ZM41.6626 53.999C48.2895 53.9985 53.6616 48.6261 53.6616 41.999C53.6616 35.3719 48.2895 29.9996 41.6626 29.999V35.9976C44.9758 35.9981 47.6616 38.6842 47.6616 41.9976C47.6616 45.3109 44.9758 47.997 41.6626 47.9976V53.999ZM38.6644 59.9985C32.0381 59.9973 26.6667 54.6252 26.6667 47.9985C26.6667 41.3719 32.0381 35.9998 38.6644 35.9985V41.9971C35.3518 41.9984 32.6668 44.6842 32.6668 47.9971C32.6668 51.31 35.3518 53.9958 38.6644 53.9971V59.9985Z" fill="#DF9E3D"/>
</svg>
