<?xml version="1.0" encoding="UTF-8" standalone="no"?>
<svg width="93px" height="74px" viewBox="0 0 93 74" version="1.1" xmlns="http://www.w3.org/2000/svg" xmlns:xlink="http://www.w3.org/1999/xlink">
    <!-- Generator: Sketch 39.1 (31720) - http://www.bohemiancoding.com/sketch -->
    <title>Group 12</title>
    <desc>Created with Sketch.</desc>
    <defs>
        <rect id="path-1" x="0" y="0" width="93" height="22"></rect>
        <mask id="mask-2" maskContentUnits="userSpaceOnUse" maskUnits="objectBoundingBox" x="0" y="0" width="93" height="22" fill="white">
            <use xlink:href="#path-1"></use>
        </mask>
        <rect id="path-3" x="0" y="26" width="93" height="22"></rect>
        <mask id="mask-4" maskContentUnits="userSpaceOnUse" maskUnits="objectBoundingBox" x="0" y="0" width="93" height="22" fill="white">
            <use xlink:href="#path-3"></use>
        </mask>
        <rect id="path-5" x="0" y="52" width="93" height="22"></rect>
        <mask id="mask-6" maskContentUnits="userSpaceOnUse" maskUnits="objectBoundingBox" x="0" y="0" width="93" height="22" fill="white">
            <use xlink:href="#path-5"></use>
        </mask>
    </defs>
    <g id="Welcome" stroke="none" stroke-width="1" fill="none" fill-rule="evenodd">
        <g id="Activity-Planner---landing-page" transform="translate(-615.000000, -640.000000)">
            <g id="Group-12" transform="translate(615.000000, 640.000000)">
                <use id="Rectangle-27" stroke="#CECECE" mask="url(#mask-2)" stroke-width="2" fill="#FFFFFF" xlink:href="#path-1"></use>
                <path d="M22.068,10.557 L25.434,10.557 L25.434,9.677 L22.068,9.677 L22.068,6.916 L25.709,6.916 L25.709,6.036 L21.056,6.036 L21.056,14 L22.068,14 L22.068,10.557 Z M29.921,8.236 C29.855,8.236 29.778,8.225 29.712,8.225 C28.92,8.225 28.326,8.489 27.831,9.16 L27.754,8.346 L26.918,8.346 L26.918,14 L27.919,14 L27.919,9.886 C28.381,9.457 29.217,9.171 29.921,9.27 L29.921,8.236 Z M35.046,10.172 C35.046,8.764 34.419,8.225 33.022,8.225 C31.713,8.225 31.031,8.72 30.855,9.776 L31.735,9.941 C31.856,9.314 32.153,9.006 32.934,9.006 C33.858,9.006 34.056,9.446 34.056,10.161 L34.056,10.711 C33.902,10.7 33.737,10.689 33.561,10.689 C31.966,10.689 30.635,11.107 30.635,12.614 C30.635,13.164 30.877,14.132 32.307,14.132 C33.099,14.132 33.682,13.879 34.122,13.439 C34.177,13.802 34.43,14.11 34.991,14.11 C35.266,14.11 35.552,14.044 35.772,13.934 L35.728,13.307 C35.585,13.351 35.486,13.373 35.387,13.373 C35.101,13.373 35.046,13.241 35.046,12.933 L35.046,10.172 Z M34.067,12.713 C33.759,13.043 33.198,13.351 32.615,13.351 C31.845,13.351 31.669,12.933 31.669,12.449 C31.669,11.481 32.714,11.404 33.495,11.404 C33.704,11.404 33.913,11.415 34.067,11.437 L34.067,12.713 Z M39.115,8.225 C37.652,8.225 36.717,9.061 36.717,10.304 C36.717,11.03 37.036,11.613 37.553,11.888 C37.157,12.196 36.805,12.515 36.805,12.999 C36.805,13.406 37.036,13.626 37.421,13.78 L37.421,13.791 C36.959,14.011 36.508,14.451 36.508,15.089 C36.508,15.76 36.937,16.486 39.049,16.486 C40.468,16.486 41.953,16.068 41.953,14.682 C41.953,13.571 41.271,13.285 40.105,13.208 L38.532,13.098 C37.927,13.054 37.806,12.889 37.806,12.669 C37.806,12.438 38.004,12.284 38.158,12.141 C38.444,12.24 38.796,12.273 39.17,12.273 C40.468,12.273 41.48,11.525 41.48,10.249 C41.48,9.787 41.337,9.336 41.062,9.017 C41.348,8.929 41.799,8.874 42.14,8.896 L42.14,8.093 C41.975,8.038 41.821,8.005 41.645,8.005 C41.227,8.005 40.93,8.335 40.754,8.742 C40.38,8.368 39.808,8.225 39.115,8.225 L39.115,8.225 Z M40.512,10.26 C40.512,11.019 39.951,11.448 39.126,11.448 C38.125,11.448 37.718,10.975 37.718,10.238 C37.718,9.369 38.356,9.028 39.148,9.028 C39.995,9.028 40.512,9.413 40.512,10.26 L40.512,10.26 Z M40.919,14.803 C40.919,15.397 40.336,15.694 39.17,15.694 C37.894,15.694 37.509,15.375 37.509,14.902 C37.509,14.528 37.707,14.297 38.136,14.011 L39.973,14.121 C40.743,14.176 40.919,14.396 40.919,14.803 L40.919,14.803 Z M44.35,9.776 C44.647,9.501 45.34,9.105 45.912,9.105 C46.638,9.105 46.792,9.534 46.792,10.293 L46.792,14 L47.793,14 L47.793,10.15 C47.793,10.007 47.782,9.864 47.771,9.732 C48.101,9.457 48.75,9.105 49.289,9.105 C50.015,9.105 50.169,9.534 50.169,10.293 L50.169,14 L51.17,14 L51.17,10.15 C51.17,8.885 50.752,8.225 49.564,8.225 C48.794,8.225 48.156,8.566 47.606,9.006 C47.386,8.478 46.935,8.225 46.187,8.225 C45.417,8.225 44.823,8.555 44.262,8.984 L44.207,8.346 L43.349,8.346 L43.349,14 L44.35,14 L44.35,9.776 Z M55.36,14.132 C56.493,14.132 57.373,13.593 57.604,12.493 L56.724,12.295 C56.57,12.933 56.196,13.296 55.393,13.296 C54.491,13.296 53.853,12.845 53.809,11.404 L57.615,11.404 C57.648,11.14 57.659,10.887 57.659,10.667 C57.659,9.27 56.999,8.225 55.415,8.225 C53.963,8.225 52.753,9.116 52.753,11.184 C52.753,12.735 53.358,14.132 55.36,14.132 L55.36,14.132 Z M53.82,10.612 C53.875,9.49 54.601,9.039 55.349,9.039 C56.24,9.039 56.625,9.6 56.625,10.612 L53.82,10.612 Z M64.049,10.161 C64.049,8.885 63.521,8.225 62.311,8.225 C61.53,8.225 60.826,8.577 60.276,9.017 L60.221,8.346 L59.341,8.346 L59.341,14 L60.342,14 L60.342,9.787 C60.639,9.523 61.343,9.105 61.992,9.105 C62.762,9.105 63.048,9.534 63.048,10.315 L63.048,14 L64.049,14 L64.049,10.161 Z M68.811,13.032 C68.569,13.164 68.162,13.307 67.821,13.307 C67.139,13.307 67.007,12.977 67.007,12.383 L67.007,9.149 L68.569,9.149 L68.569,8.346 L67.007,8.346 L67.007,6.553 L66.006,6.707 L66.006,8.346 L65.137,8.346 L65.137,9.149 L66.006,9.149 L66.006,12.515 C66.006,13.648 66.545,14.132 67.601,14.132 C68.129,14.132 68.712,13.945 68.987,13.758 L68.811,13.032 Z M72.066,8.225 C70.922,8.225 69.976,8.786 69.976,9.93 C69.976,11.25 71.087,11.448 72.011,11.635 C72.781,11.789 73.243,11.899 73.243,12.526 C73.243,13.131 72.748,13.34 72.066,13.34 C71.065,13.34 70.812,12.856 70.658,12.251 L69.767,12.493 C69.943,13.626 70.724,14.132 72.022,14.132 C73.397,14.132 74.233,13.494 74.233,12.416 C74.233,11.151 73.254,10.942 72.22,10.722 C71.428,10.557 70.966,10.392 70.966,9.809 C70.966,9.38 71.23,9.017 72.055,9.017 C72.88,9.017 73.1,9.413 73.232,10.062 L74.134,9.864 C73.958,8.863 73.408,8.225 72.066,8.225 L72.066,8.225 Z" id="Fragments" fill="#252525"></path>
                <g id="x-copy" transform="translate(9.000000, 7.000000)" stroke-width="2" stroke="#E8522C">
                    <g id="Group">
                        <path d="M6.68181818,0.318181818 L0.318181818,6.68181818" id="Shape"></path>
                        <path d="M6.68181818,6.68181818 L0.318181818,0.318181818" id="Shape"></path>
                    </g>
                </g>
                <use id="Rectangle-27" stroke="#CECECE" mask="url(#mask-4)" stroke-width="2" fill="#FFFFFF" xlink:href="#path-3"></use>
                <path d="M22.057,37.107 L23.267,37.107 C25.181,37.107 26.303,36.315 26.303,34.423 C26.303,33.158 25.687,32.036 23.652,32.036 L21.056,32.036 L21.056,40 L22.057,40 L22.057,37.107 Z M22.057,36.238 L22.057,32.894 L23.355,32.894 C24.631,32.894 25.258,33.334 25.258,34.478 C25.258,35.963 24.345,36.238 23.19,36.238 L22.057,36.238 Z M30.9,34.236 C30.834,34.236 30.757,34.225 30.691,34.225 C29.899,34.225 29.305,34.489 28.81,35.16 L28.733,34.346 L27.897,34.346 L27.897,40 L28.898,40 L28.898,35.886 C29.36,35.457 30.196,35.171 30.9,35.27 L30.9,34.236 Z M34.232,40.132 C35.365,40.132 36.245,39.593 36.476,38.493 L35.596,38.295 C35.442,38.933 35.068,39.296 34.265,39.296 C33.363,39.296 32.725,38.845 32.681,37.404 L36.487,37.404 C36.52,37.14 36.531,36.887 36.531,36.667 C36.531,35.27 35.871,34.225 34.287,34.225 C32.835,34.225 31.625,35.116 31.625,37.184 C31.625,38.735 32.23,40.132 34.232,40.132 L34.232,40.132 Z M32.692,36.612 C32.747,35.49 33.473,35.039 34.221,35.039 C35.112,35.039 35.497,35.6 35.497,36.612 L32.692,36.612 Z M38.213,42.332 L39.181,42.332 L39.181,39.582 C39.588,39.89 40.127,40.132 40.809,40.132 C42.074,40.132 43.163,39.252 43.163,37.041 C43.163,34.962 42.283,34.225 41.095,34.225 C40.292,34.225 39.654,34.533 39.137,34.995 L39.082,34.346 L38.213,34.346 L38.213,42.332 Z M39.214,35.776 C39.544,35.446 40.171,35.061 40.798,35.061 C41.7,35.061 42.14,35.611 42.14,37.03 C42.14,38.383 41.744,39.285 40.666,39.285 C40.017,39.285 39.456,38.911 39.214,38.724 L39.214,35.776 Z M47.089,40.132 C48.992,40.132 49.762,38.922 49.762,37.063 C49.762,35.38 49.025,34.225 47.232,34.225 C45.428,34.225 44.482,35.369 44.482,37.195 C44.482,38.867 45.131,40.132 47.089,40.132 L47.089,40.132 Z M47.144,39.329 C46.044,39.329 45.516,38.647 45.516,37.151 C45.516,35.644 46.187,35.05 47.188,35.05 C48.167,35.05 48.717,35.567 48.717,37.129 C48.717,38.735 48.123,39.329 47.144,39.329 L47.144,39.329 Z M53.237,34.225 C52.093,34.225 51.147,34.786 51.147,35.93 C51.147,37.25 52.258,37.448 53.182,37.635 C53.952,37.789 54.414,37.899 54.414,38.526 C54.414,39.131 53.919,39.34 53.237,39.34 C52.236,39.34 51.983,38.856 51.829,38.251 L50.938,38.493 C51.114,39.626 51.895,40.132 53.193,40.132 C54.568,40.132 55.404,39.494 55.404,38.416 C55.404,37.151 54.425,36.942 53.391,36.722 C52.599,36.557 52.137,36.392 52.137,35.809 C52.137,35.38 52.401,35.017 53.226,35.017 C54.051,35.017 54.271,35.413 54.403,36.062 L55.305,35.864 C55.129,34.863 54.579,34.225 53.237,34.225 L53.237,34.225 Z M57.988,34.346 L56.987,34.346 L56.987,40 L57.988,40 L57.988,34.346 Z M58.219,32.531 C58.219,32.069 57.955,31.816 57.504,31.816 C57.053,31.816 56.8,32.069 56.8,32.531 C56.8,32.993 57.053,33.257 57.504,33.257 C57.955,33.257 58.219,32.993 58.219,32.531 L58.219,32.531 Z M62.937,39.032 C62.695,39.164 62.288,39.307 61.947,39.307 C61.265,39.307 61.133,38.977 61.133,38.383 L61.133,35.149 L62.695,35.149 L62.695,34.346 L61.133,34.346 L61.133,32.553 L60.132,32.707 L60.132,34.346 L59.263,34.346 L59.263,35.149 L60.132,35.149 L60.132,38.515 C60.132,39.648 60.671,40.132 61.727,40.132 C62.255,40.132 62.838,39.945 63.113,39.758 L62.937,39.032 Z M65.356,34.346 L64.355,34.346 L64.355,40 L65.356,40 L65.356,34.346 Z M65.587,32.531 C65.587,32.069 65.323,31.816 64.872,31.816 C64.421,31.816 64.168,32.069 64.168,32.531 C64.168,32.993 64.421,33.257 64.872,33.257 C65.323,33.257 65.587,32.993 65.587,32.531 L65.587,32.531 Z M69.579,40.132 C71.482,40.132 72.252,38.922 72.252,37.063 C72.252,35.38 71.515,34.225 69.722,34.225 C67.918,34.225 66.972,35.369 66.972,37.195 C66.972,38.867 67.621,40.132 69.579,40.132 L69.579,40.132 Z M69.634,39.329 C68.534,39.329 68.006,38.647 68.006,37.151 C68.006,35.644 68.677,35.05 69.678,35.05 C70.657,35.05 71.207,35.567 71.207,37.129 C71.207,38.735 70.613,39.329 69.634,39.329 L69.634,39.329 Z M78.62,36.161 C78.62,34.885 78.092,34.225 76.882,34.225 C76.101,34.225 75.397,34.577 74.847,35.017 L74.792,34.346 L73.912,34.346 L73.912,40 L74.913,40 L74.913,35.787 C75.21,35.523 75.914,35.105 76.563,35.105 C77.333,35.105 77.619,35.534 77.619,36.315 L77.619,40 L78.62,40 L78.62,36.161 Z M82.381,34.225 C81.237,34.225 80.291,34.786 80.291,35.93 C80.291,37.25 81.402,37.448 82.326,37.635 C83.096,37.789 83.558,37.899 83.558,38.526 C83.558,39.131 83.063,39.34 82.381,39.34 C81.38,39.34 81.127,38.856 80.973,38.251 L80.082,38.493 C80.258,39.626 81.039,40.132 82.337,40.132 C83.712,40.132 84.548,39.494 84.548,38.416 C84.548,37.151 83.569,36.942 82.535,36.722 C81.743,36.557 81.281,36.392 81.281,35.809 C81.281,35.38 81.545,35.017 82.37,35.017 C83.195,35.017 83.415,35.413 83.547,36.062 L84.449,35.864 C84.273,34.863 83.723,34.225 82.381,34.225 L82.381,34.225 Z" id="Prepositions" fill="#252525"></path>
                <g id="check-copy-2" transform="translate(8.000000, 33.000000)" stroke-width="2" stroke="#58B146">
                    <g id="Group">
                        <polyline id="Shape" points="0.371212121 3.5 2.8459596 6.68181818 7.79545455 0.318181818"></polyline>
                    </g>
                </g>
                <use id="Rectangle-27" stroke="#CECECE" mask="url(#mask-6)" stroke-width="2" fill="#FFFFFF" xlink:href="#path-5"></use>
                <path d="M24.169,66 L26.721,58.036 L25.687,58.036 L23.509,65.021 L23.498,65.021 L21.243,58.036 L20.11,58.036 L22.794,66 L24.169,66 Z M29.734,66.132 C30.867,66.132 31.747,65.593 31.978,64.493 L31.098,64.295 C30.944,64.933 30.57,65.296 29.767,65.296 C28.865,65.296 28.227,64.845 28.183,63.404 L31.989,63.404 C32.022,63.14 32.033,62.887 32.033,62.667 C32.033,61.27 31.373,60.225 29.789,60.225 C28.337,60.225 27.127,61.116 27.127,63.184 C27.127,64.735 27.732,66.132 29.734,66.132 L29.734,66.132 Z M28.194,62.612 C28.249,61.49 28.975,61.039 29.723,61.039 C30.614,61.039 30.999,61.6 30.999,62.612 L28.194,62.612 Z M36.718,60.236 C36.652,60.236 36.575,60.225 36.509,60.225 C35.717,60.225 35.123,60.489 34.628,61.16 L34.551,60.346 L33.715,60.346 L33.715,66 L34.716,66 L34.716,61.886 C35.178,61.457 36.014,61.171 36.718,61.27 L36.718,60.236 Z M38.818,66 L38.873,65.505 L38.884,65.505 C39.291,65.824 39.852,66.132 40.523,66.132 C41.832,66.132 42.91,65.241 42.91,63.041 C42.91,60.962 42.019,60.225 40.853,60.225 C40.028,60.225 39.434,60.533 38.939,60.973 L38.939,57.695 L37.949,57.695 L37.949,66 L38.818,66 Z M38.95,61.776 C39.28,61.457 39.907,61.072 40.534,61.072 C41.469,61.072 41.876,61.688 41.876,63.03 C41.876,64.405 41.469,65.285 40.402,65.285 C39.753,65.285 39.203,64.889 38.95,64.702 L38.95,61.776 Z M49.827,66 L49.827,58.916 L52.214,58.916 L52.214,58.036 L46.406,58.036 L46.406,58.916 L48.815,58.916 L48.815,66 L49.827,66 Z M54.732,66.132 C55.865,66.132 56.745,65.593 56.976,64.493 L56.096,64.295 C55.942,64.933 55.568,65.296 54.765,65.296 C53.863,65.296 53.225,64.845 53.181,63.404 L56.987,63.404 C57.02,63.14 57.031,62.887 57.031,62.667 C57.031,61.27 56.371,60.225 54.787,60.225 C53.335,60.225 52.125,61.116 52.125,63.184 C52.125,64.735 52.73,66.132 54.732,66.132 L54.732,66.132 Z M53.192,62.612 C53.247,61.49 53.973,61.039 54.721,61.039 C55.612,61.039 55.997,61.6 55.997,62.612 L53.192,62.612 Z M63.421,62.161 C63.421,60.885 62.893,60.225 61.683,60.225 C60.902,60.225 60.198,60.577 59.648,61.017 L59.593,60.346 L58.713,60.346 L58.713,66 L59.714,66 L59.714,61.787 C60.011,61.523 60.715,61.105 61.364,61.105 C62.134,61.105 62.42,61.534 62.42,62.315 L62.42,66 L63.421,66 L63.421,62.161 Z M67.182,60.225 C66.038,60.225 65.092,60.786 65.092,61.93 C65.092,63.25 66.203,63.448 67.127,63.635 C67.897,63.789 68.359,63.899 68.359,64.526 C68.359,65.131 67.864,65.34 67.182,65.34 C66.181,65.34 65.928,64.856 65.774,64.251 L64.883,64.493 C65.059,65.626 65.84,66.132 67.138,66.132 C68.513,66.132 69.349,65.494 69.349,64.416 C69.349,63.151 68.37,62.942 67.336,62.722 C66.544,62.557 66.082,62.392 66.082,61.809 C66.082,61.38 66.346,61.017 67.171,61.017 C67.996,61.017 68.216,61.413 68.348,62.062 L69.25,61.864 C69.074,60.863 68.524,60.225 67.182,60.225 L67.182,60.225 Z M73.187,66.132 C74.32,66.132 75.2,65.593 75.431,64.493 L74.551,64.295 C74.397,64.933 74.023,65.296 73.22,65.296 C72.318,65.296 71.68,64.845 71.636,63.404 L75.442,63.404 C75.475,63.14 75.486,62.887 75.486,62.667 C75.486,61.27 74.826,60.225 73.242,60.225 C71.79,60.225 70.58,61.116 70.58,63.184 C70.58,64.735 71.185,66.132 73.187,66.132 L73.187,66.132 Z M71.647,62.612 C71.702,61.49 72.428,61.039 73.176,61.039 C74.067,61.039 74.452,61.6 74.452,62.612 L71.647,62.612 Z" id="Verb-Tense" fill="#252525"></path>
                <g id="check-copy-2" transform="translate(8.000000, 59.000000)" stroke-width="2" stroke="#58B146">
                    <g id="Group">
                        <polyline id="Shape" points="0.371212121 3.5 2.8459596 6.68181818 7.79545455 0.318181818"></polyline>
                    </g>
                </g>
            </g>
        </g>
    </g>
</svg>