<?xml version="1.0" encoding="UTF-8" standalone="no"?>
<svg width="170px" height="64px" viewBox="0 0 170 64" version="1.1" xmlns="http://www.w3.org/2000/svg" xmlns:xlink="http://www.w3.org/1999/xlink">
    <!-- Generator: Sketch 3.8.3 (29802) - http://www.bohemiancoding.com/sketch -->
    <title>Group 5</title>
    <desc>Created with Sketch.</desc>
    <defs>
        <rect id="path-1" x="0" y="10.5" width="170" height="52.5"></rect>
        <mask id="mask-2" maskContentUnits="userSpaceOnUse" maskUnits="objectBoundingBox" x="0" y="0" width="170" height="52.5" fill="white">
            <use xlink:href="#path-1"></use>
        </mask>
    </defs>
    <g id="Welcome" stroke="none" stroke-width="1" fill="none" fill-rule="evenodd">
        <g id="Activity-Planner---Choose-an-Assignment" transform="translate(-916.000000, -319.000000)">
            <g id="Group-5" transform="translate(916.000000, 320.000000)">
                <use id="Rectangle-601" stroke="#CECECE" mask="url(#mask-2)" stroke-width="2" stroke-dasharray="8" fill="#F8F6F6" xlink:href="#path-1"></use>
                <g id="Group-4" transform="translate(11.543210, 0.000000)">
                    <polyline id="Path-2351" stroke="#82BF3C" stroke-width="1.5" fill="#FFFFFF" points="140.647732 31.4618584 140.647732 0 0 1.63503358e-14 2.55354991e-15 39.5864526 125.889436 39.5864526"></polyline>
                    <polygon id="Shape" stroke="#707070" stroke-width="1.5" fill="#FFFFFF" points="144.666973 32.8390454 123.82716 27.3 129.662308 47.082305 133.83027 39.9606752 142.999788 48.6648894 146.334158 45.4997206 137.16464 36.7955064"></polygon>
                    <path d="M23.0066667,13.432963 L20.8155556,13.432963 L18.4481481,20.7618519 L18.4103704,20.7618519 L16.0303704,13.432963 L13.8140741,13.432963 L13.8140741,22.55 L15.1740741,22.55 L15.1740741,14.9440741 L15.1992593,14.9440741 L17.6548148,22.55 L19.0903704,22.55 L21.5962963,14.9692593 L21.6340741,14.9692593 L21.6340741,22.55 L23.0066667,22.55 L23.0066667,13.432963 Z M26.4696296,16.0396296 L25.0214815,16.0396296 L25.0214815,22.55 L26.4696296,22.55 L26.4696296,16.0396296 Z M26.6962963,13.987037 C26.6962963,13.3825926 26.3562963,13.0425926 25.7518519,13.0425926 C25.16,13.0425926 24.8074074,13.3825926 24.8074074,13.987037 C24.8074074,14.6040741 25.16,14.9440741 25.7518519,14.9440741 C26.3562963,14.9440741 26.6962963,14.6040741 26.6962963,13.987037 L26.6962963,13.987037 Z M30.5118519,15.9011111 C29.1518519,15.9011111 28.0059259,16.5559259 28.0059259,17.9159259 C28.0059259,19.4648148 29.2651852,19.6914815 30.322963,19.9055556 C31.1540741,20.0692593 31.682963,20.1825926 31.682963,20.8374074 C31.682963,21.3914815 31.1792593,21.6181481 30.4614815,21.6181481 C29.4162963,21.6181481 29.1518519,21.0766667 28.9881481,20.4596296 L27.7540741,20.8625926 C27.9555556,22.0714815 28.8496296,22.7011111 30.4111111,22.7011111 C32.0103704,22.7011111 33.0933333,21.9833333 33.0933333,20.6359259 C33.0933333,19.15 31.897037,18.8855556 30.7762963,18.6840741 C29.92,18.532963 29.3659259,18.3566667 29.3659259,17.7522222 C29.3659259,17.3240741 29.6933333,16.9840741 30.4866667,16.9840741 C31.3303704,16.9840741 31.5696296,17.4374074 31.7207407,18.0796296 L32.98,17.7522222 C32.7281481,16.6188889 32.022963,15.9011111 30.5118519,15.9011111 L30.5118519,15.9011111 Z M34.4533333,25.2196296 L35.8511111,25.2196296 L35.8511111,22.0714815 C36.3044444,22.4366667 36.8837037,22.7011111 37.6644444,22.7011111 C39.1251852,22.7011111 40.3592593,21.7062963 40.3592593,19.1374074 C40.3592593,16.7574074 39.3266667,15.9011111 37.9540741,15.9011111 C37.0977778,15.9011111 36.3548148,16.1907407 35.7755556,16.7322222 L35.7,16.0396296 L34.4533333,16.0396296 L34.4533333,25.2196296 Z M35.8888889,17.7774074 C36.2414815,17.45 36.8585185,17.0848148 37.4755556,17.0848148 C38.3948148,17.0848148 38.8481481,17.6640741 38.8481481,19.1625926 C38.8481481,20.5981481 38.4451852,21.5174074 37.3496296,21.5174074 C36.72,21.5174074 36.1407407,21.1396296 35.8888889,20.9381481 L35.8888889,17.7774074 Z M43.2807407,13.0425926 L41.8325926,13.0425926 L41.8325926,22.55 L43.2807407,22.55 L43.2807407,13.0425926 Z M50.0177778,18.1677778 C50.0177778,16.5433333 49.237037,15.9011111 47.5748148,15.9011111 C45.9755556,15.9011111 45.1948148,16.5559259 44.9933333,17.7774074 L46.2651852,18.0040741 C46.4037037,17.3240741 46.6681481,16.9966667 47.4614815,16.9966667 C48.4185185,16.9966667 48.5948148,17.45 48.5948148,18.2433333 L48.5948148,18.7344444 C48.4185185,18.7218519 48.2296296,18.7092593 47.9274074,18.7092593 C46.177037,18.7092593 44.7414815,19.2633333 44.7414815,20.9507407 C44.7414815,21.592963 45.0311111,22.7011111 46.6681481,22.7011111 C47.5748148,22.7011111 48.2925926,22.3862963 48.7333333,21.9077778 C48.8466667,22.4114815 49.1488889,22.6759259 49.8288889,22.6759259 C50.1814815,22.6759259 50.597037,22.5877778 50.8488889,22.4618519 L50.7985185,21.6055556 C50.6348148,21.6559259 50.5214815,21.6811111 50.4081481,21.6811111 C50.0807407,21.6811111 50.0177778,21.53 50.0177778,21.1774074 L50.0177778,18.1677778 Z M48.6074074,21.0137037 C48.3177778,21.3159259 47.7762963,21.6181481 47.1844444,21.6181481 C46.4162963,21.6181481 46.2148148,21.2025926 46.2148148,20.7492593 C46.2148148,19.7922222 47.2725926,19.7040741 48.002963,19.7040741 C48.3303704,19.7040741 48.4814815,19.7166667 48.6074074,19.7292593 L48.6074074,21.0137037 Z M54.5385185,22.7011111 C55.9362963,22.7011111 57.0948148,22.0337037 57.3088889,20.4722222 L56.0496296,20.2203704 C55.8985185,21.127037 55.42,21.5174074 54.6140741,21.5174074 C53.7074074,21.5174074 53.0022222,20.9759259 53.0022222,19.212963 C53.0022222,17.4877778 53.8081481,17.0596296 54.6518519,17.0596296 C55.4955556,17.0596296 55.8481481,17.6137037 55.9488889,18.47 L57.2837037,18.2811111 C57.1703704,16.7448148 56.1503704,15.9011111 54.7148148,15.9011111 C52.6748148,15.9011111 51.4911111,17.1225926 51.4911111,19.3766667 C51.4911111,21.3159259 52.3851852,22.7011111 54.5385185,22.7011111 L54.5385185,22.7011111 Z M61.3762963,22.7011111 C62.7866667,22.7011111 63.7814815,21.9959259 64.0333333,20.7618519 L62.7992593,20.4596296 C62.6481481,21.127037 62.2955556,21.5174074 61.4644444,21.5174074 C60.52,21.5174074 59.8651852,21.0262963 59.8274074,19.6537037 L64.0459259,19.6537037 C64.0711111,19.3514815 64.0837037,19.0492593 64.0837037,18.7848148 C64.0837037,17.0974074 63.302963,15.9011111 61.4140741,15.9011111 C59.7140741,15.9011111 58.3037037,16.9462963 58.3037037,19.3011111 C58.3037037,21.0892593 59.0340741,22.7011111 61.3762963,22.7011111 L61.3762963,22.7011111 Z M59.8525926,18.6462963 C59.9155556,17.4877778 60.5955556,17.047037 61.3259259,17.047037 C62.1948148,17.047037 62.5851852,17.5381481 62.5851852,18.6462963 L59.8525926,18.6462963 Z M71.122963,13.0425926 L69.7125926,13.0425926 L69.7125926,16.4677778 C69.2718519,16.09 68.7051852,15.9011111 67.9622222,15.9011111 C66.5518519,15.9011111 65.217037,16.8203704 65.217037,19.4018519 C65.217037,21.7566667 66.237037,22.7011111 67.7355556,22.7011111 C68.6296296,22.7011111 69.2718519,22.3862963 69.7881481,21.8951852 L69.8133333,21.8951852 L69.9140741,22.55 L71.122963,22.55 L71.122963,13.0425926 Z M69.6748148,20.8625926 C69.3222222,21.2277778 68.7555556,21.53 68.2014815,21.53 C67.1562963,21.53 66.7155556,20.7996296 66.7155556,19.3892593 C66.7155556,18.0292593 67.1311111,17.0848148 68.2644444,17.0848148 C68.8814815,17.0848148 69.3977778,17.3744444 69.6748148,17.5885185 L69.6748148,20.8625926 Z M84.7733333,13.432963 L82.5822222,13.432963 L80.2148148,20.7618519 L80.177037,20.7618519 L77.797037,13.432963 L75.5807407,13.432963 L75.5807407,22.55 L76.9407407,22.55 L76.9407407,14.9440741 L76.9659259,14.9440741 L79.4214815,22.55 L80.857037,22.55 L83.362963,14.9692593 L83.4007407,14.9692593 L83.4007407,22.55 L84.7733333,22.55 L84.7733333,13.432963 Z M89.482963,22.7011111 C91.7244444,22.7011111 92.6562963,21.3159259 92.6562963,19.1751852 C92.6562963,17.2485185 91.8,15.9011111 89.6466667,15.9011111 C87.4933333,15.9011111 86.4103704,17.2359259 86.4103704,19.3262963 C86.4103704,21.2655556 87.1911111,22.7011111 89.482963,22.7011111 L89.482963,22.7011111 Z M89.5585185,21.5803704 C88.4251852,21.5803704 87.9214815,20.8625926 87.9214815,19.2759259 C87.9214815,17.6892593 88.5637037,17.0722222 89.5962963,17.0722222 C90.6162963,17.0722222 91.1451852,17.6262963 91.1451852,19.2507407 C91.1451852,20.9255556 90.5533333,21.5803704 89.5585185,21.5803704 L89.5585185,21.5803704 Z M99.6703704,13.0425926 L98.26,13.0425926 L98.26,16.4677778 C97.8192593,16.09 97.2525926,15.9011111 96.5096296,15.9011111 C95.0992593,15.9011111 93.7644444,16.8203704 93.7644444,19.4018519 C93.7644444,21.7566667 94.7844444,22.7011111 96.282963,22.7011111 C97.177037,22.7011111 97.8192593,22.3862963 98.3355556,21.8951852 L98.3607407,21.8951852 L98.4614815,22.55 L99.6703704,22.55 L99.6703704,13.0425926 Z M98.2222222,20.8625926 C97.8696296,21.2277778 97.302963,21.53 96.7488889,21.53 C95.7037037,21.53 95.262963,20.7996296 95.262963,19.3892593 C95.262963,18.0292593 95.6785185,17.0848148 96.8118519,17.0848148 C97.4288889,17.0848148 97.9451852,17.3744444 98.2222222,17.5885185 L98.2222222,20.8625926 Z M102.906667,16.0396296 L101.458519,16.0396296 L101.458519,22.55 L102.906667,22.55 L102.906667,16.0396296 Z M103.133333,13.987037 C103.133333,13.3825926 102.793333,13.0425926 102.188889,13.0425926 C101.597037,13.0425926 101.244444,13.3825926 101.244444,13.987037 C101.244444,14.6040741 101.597037,14.9440741 102.188889,14.9440741 C102.793333,14.9440741 103.133333,14.6040741 103.133333,13.987037 L103.133333,13.987037 Z M110.348889,16.0396296 L106.306667,16.0396296 L106.306667,15.1077778 C106.306667,14.2892593 106.659259,14.05 107.188148,14.05 C107.465185,14.05 107.704444,14.1003704 107.943704,14.1759259 L107.994074,13.092963 C107.742222,13.0048148 107.377037,12.9166667 106.898519,12.9166667 C105.614074,12.9166667 104.858519,13.6092593 104.858519,15.1077778 L104.858519,16.0396296 L103.926667,16.0396296 L103.926667,17.11 L104.858519,17.11 L104.858519,22.55 L106.306667,22.55 L106.306667,17.11 L108.900741,17.11 L108.900741,22.55 L110.348889,22.55 L110.348889,16.0396296 Z M110.575556,13.9366667 C110.575556,13.3322222 110.222963,12.9922222 109.631111,12.9922222 C109.039259,12.9922222 108.686667,13.3322222 108.686667,13.9366667 C108.686667,14.5411111 109.039259,14.8937037 109.631111,14.8937037 C110.222963,14.8937037 110.575556,14.5411111 110.575556,13.9366667 L110.575556,13.9366667 Z M114.831852,22.7011111 C116.242222,22.7011111 117.237037,21.9959259 117.488889,20.7618519 L116.254815,20.4596296 C116.103704,21.127037 115.751111,21.5174074 114.92,21.5174074 C113.975556,21.5174074 113.320741,21.0262963 113.282963,19.6537037 L117.501481,19.6537037 C117.526667,19.3514815 117.539259,19.0492593 117.539259,18.7848148 C117.539259,17.0974074 116.758519,15.9011111 114.86963,15.9011111 C113.16963,15.9011111 111.759259,16.9462963 111.759259,19.3011111 C111.759259,21.0892593 112.48963,22.7011111 114.831852,22.7011111 L114.831852,22.7011111 Z M113.308148,18.6462963 C113.371111,17.4877778 114.051111,17.047037 114.781481,17.047037 C115.65037,17.047037 116.040741,17.5381481 116.040741,18.6462963 L113.308148,18.6462963 Z M122.727407,15.9137037 C122.639259,15.9137037 122.538519,15.9011111 122.462963,15.9011111 C121.505926,15.9011111 120.851111,16.2788889 120.334815,17.0092593 L120.221481,16.0396296 L119,16.0396296 L119,22.55 L120.448148,22.55 L120.448148,18.0292593 C120.98963,17.5507407 121.908889,17.2611111 122.727407,17.3618519 L122.727407,15.9137037 Z M125.913333,15.9011111 C124.553333,15.9011111 123.407407,16.5559259 123.407407,17.9159259 C123.407407,19.4648148 124.666667,19.6914815 125.724444,19.9055556 C126.555556,20.0692593 127.084444,20.1825926 127.084444,20.8374074 C127.084444,21.3914815 126.580741,21.6181481 125.862963,21.6181481 C124.817778,21.6181481 124.553333,21.0766667 124.38963,20.4596296 L123.155556,20.8625926 C123.357037,22.0714815 124.251111,22.7011111 125.812593,22.7011111 C127.411852,22.7011111 128.494815,21.9833333 128.494815,20.6359259 C128.494815,19.15 127.298519,18.8855556 126.177778,18.6840741 C125.321481,18.532963 124.767407,18.3566667 124.767407,17.7522222 C124.767407,17.3240741 125.094815,16.9840741 125.888148,16.9840741 C126.731852,16.9840741 126.971111,17.4374074 127.122222,18.0796296 L128.381481,17.7522222 C128.12963,16.6188889 127.424444,15.9011111 125.913333,15.9011111 L125.913333,15.9011111 Z" id="Misplaced-Modifiers" fill="#646464"></path>
                </g>
            </g>
        </g>
    </g>
</svg>