<?xml version="1.0" encoding="UTF-8" standalone="no"?>
<svg width="334px" height="223px" viewBox="0 0 334 223" version="1.1" xmlns="http://www.w3.org/2000/svg" xmlns:xlink="http://www.w3.org/1999/xlink">
    <!-- Generator: sketchtool 3.8.3 (29802) - http://www.bohemiancoding.com/sketch -->
    <title>3A95EAD0-4E9B-4CB0-BF06-3F394143813E</title>
    <desc>Created with sketchtool.</desc>
    <defs>
        <ellipse id="path-1" cx="153.5" cy="62.2366412" rx="12.5" ry="12.7099237"></ellipse>
        <mask id="mask-2" maskContentUnits="userSpaceOnUse" maskUnits="objectBoundingBox" x="0" y="0" width="25" height="25.4198473" fill="white">
            <use xlink:href="#path-1"></use>
        </mask>
        <ellipse id="path-3" cx="153.5" cy="127.763359" rx="12.5" ry="12.7099237"></ellipse>
        <mask id="mask-4" maskContentUnits="userSpaceOnUse" maskUnits="objectBoundingBox" x="0" y="0" width="25" height="25.4198473" fill="white">
            <use xlink:href="#path-3"></use>
        </mask>
        <ellipse id="path-5" cx="198.5" cy="160.526718" rx="12.5" ry="12.7099237"></ellipse>
        <mask id="mask-6" maskContentUnits="userSpaceOnUse" maskUnits="objectBoundingBox" x="0" y="0" width="25" height="25.4198473" fill="white">
            <use xlink:href="#path-5"></use>
        </mask>
        <ellipse id="path-7" cx="198.5" cy="193.290076" rx="12.5" ry="12.7099237"></ellipse>
        <mask id="mask-8" maskContentUnits="userSpaceOnUse" maskUnits="objectBoundingBox" x="0" y="0" width="25" height="25.4198473" fill="white">
            <use xlink:href="#path-7"></use>
        </mask>
        <ellipse id="path-9" cx="198.5" cy="95" rx="12.5" ry="12.7099237"></ellipse>
        <mask id="mask-10" maskContentUnits="userSpaceOnUse" maskUnits="objectBoundingBox" x="0" y="0" width="25" height="25.4198473" fill="white">
            <use xlink:href="#path-9"></use>
        </mask>
        <ellipse id="path-11" cx="198.5" cy="29.4732824" rx="12.5" ry="12.7099237"></ellipse>
        <mask id="mask-12" maskContentUnits="userSpaceOnUse" maskUnits="objectBoundingBox" x="0" y="0" width="25" height="25.4198473" fill="white">
            <use xlink:href="#path-11"></use>
        </mask>
        <ellipse id="path-13" cx="243.5" cy="13" rx="12.5" ry="12.7099237"></ellipse>
        <mask id="mask-14" maskContentUnits="userSpaceOnUse" maskUnits="objectBoundingBox" x="0" y="0" width="25" height="25.4198473" fill="white">
            <use xlink:href="#path-13"></use>
        </mask>
        <ellipse id="path-15" cx="243.5" cy="46" rx="12.5" ry="12.7099237"></ellipse>
        <mask id="mask-16" maskContentUnits="userSpaceOnUse" maskUnits="objectBoundingBox" x="0" y="0" width="25" height="25.4198473" fill="white">
            <use xlink:href="#path-15"></use>
        </mask>
        <ellipse id="path-17" cx="243.5" cy="111" rx="12.5" ry="12.7099237"></ellipse>
        <mask id="mask-18" maskContentUnits="userSpaceOnUse" maskUnits="objectBoundingBox" x="0" y="0" width="25" height="25.4198473" fill="white">
            <use xlink:href="#path-17"></use>
        </mask>
        <ellipse id="path-19" cx="243.5" cy="144" rx="12.5" ry="12.7099237"></ellipse>
        <mask id="mask-20" maskContentUnits="userSpaceOnUse" maskUnits="objectBoundingBox" x="0" y="0" width="25" height="25.4198473" fill="white">
            <use xlink:href="#path-19"></use>
        </mask>
        <ellipse id="path-21" cx="243.5" cy="209.709924" rx="12.5" ry="12.7099237"></ellipse>
        <mask id="mask-22" maskContentUnits="userSpaceOnUse" maskUnits="objectBoundingBox" x="0" y="0" width="25" height="25.4198473" fill="white">
            <use xlink:href="#path-21"></use>
        </mask>
        <ellipse id="path-23" cx="12.5" cy="12.7099237" rx="12.5" ry="12.7099237"></ellipse>
        <mask id="mask-24" maskContentUnits="userSpaceOnUse" maskUnits="objectBoundingBox" x="0" y="0" width="25" height="25.4198473" fill="white">
            <use xlink:href="#path-23"></use>
        </mask>
        <ellipse id="path-25" cx="12.5" cy="12.7099237" rx="12.5" ry="12.7099237"></ellipse>
        <mask id="mask-26" maskContentUnits="userSpaceOnUse" maskUnits="objectBoundingBox" x="0" y="0" width="25" height="25.4198473" fill="white">
            <use xlink:href="#path-25"></use>
        </mask>
        <ellipse id="path-27" cx="12.5" cy="12.7099237" rx="12.5" ry="12.7099237"></ellipse>
        <mask id="mask-28" maskContentUnits="userSpaceOnUse" maskUnits="objectBoundingBox" x="0" y="0" width="25" height="25.4198473" fill="white">
            <use xlink:href="#path-27"></use>
        </mask>
        <ellipse id="path-29" cx="12.5" cy="12.7099237" rx="12.5" ry="12.7099237"></ellipse>
        <mask id="mask-30" maskContentUnits="userSpaceOnUse" maskUnits="objectBoundingBox" x="0" y="0" width="25" height="25.4198473" fill="white">
            <use xlink:href="#path-29"></use>
        </mask>
        <ellipse id="path-31" cx="12.5" cy="12.7099237" rx="12.5" ry="12.7099237"></ellipse>
        <mask id="mask-32" maskContentUnits="userSpaceOnUse" maskUnits="objectBoundingBox" x="0" y="0" width="25" height="25.4198473" fill="white">
            <use xlink:href="#path-31"></use>
        </mask>
        <ellipse id="path-33" cx="12.5" cy="12.7099237" rx="12.5" ry="12.7099237"></ellipse>
        <mask id="mask-34" maskContentUnits="userSpaceOnUse" maskUnits="objectBoundingBox" x="0" y="0" width="25" height="25.4198473" fill="white">
            <use xlink:href="#path-33"></use>
        </mask>
        <ellipse id="path-35" cx="12.5" cy="12.7099237" rx="12.5" ry="12.7099237"></ellipse>
        <mask id="mask-36" maskContentUnits="userSpaceOnUse" maskUnits="objectBoundingBox" x="0" y="0" width="25" height="25.4198473" fill="white">
            <use xlink:href="#path-35"></use>
        </mask>
        <ellipse id="path-37" cx="12.5" cy="12.7099237" rx="12.5" ry="12.7099237"></ellipse>
        <mask id="mask-38" maskContentUnits="userSpaceOnUse" maskUnits="objectBoundingBox" x="0" y="0" width="25" height="25.4198473" fill="white">
            <use xlink:href="#path-37"></use>
        </mask>
        <ellipse id="path-39" cx="12.5" cy="12.7099237" rx="12.5" ry="12.7099237"></ellipse>
        <mask id="mask-40" maskContentUnits="userSpaceOnUse" maskUnits="objectBoundingBox" x="0" y="0" width="25" height="25.4198473" fill="white">
            <use xlink:href="#path-39"></use>
        </mask>
    </defs>
    <style>
@font-face {
    font-family: "AdelleSans-Regular";
    src: url("//fonts.googleapis.com/css?family=Open+Sans:700,400,300,600");
}
</style>
    <g id="Welcome" stroke="none" stroke-width="1" fill="none" fill-rule="evenodd">
        <g id="Diagnostic---Modal---Adaptive-Testing" transform="translate(-493.000000, -139.000000)">
            <g id="Group-10" transform="translate(493.000000, 139.000000)">
                <path d="M107.75,97.5 L107.75,160.5" id="Line" stroke="#BFBFBF" stroke-width="1.5" stroke-linecap="square" stroke-dasharray="4"></path>
                <path d="M176.75,62.3354062 L176.75,94.5042648" id="Line" stroke="#BFBFBF" stroke-width="1.5" stroke-linecap="square" stroke-dasharray="4"></path>
                <path d="M222,65 L222,80.1700001" id="Line" stroke="#BFBFBF" stroke-width="1.5" stroke-linecap="square" stroke-dasharray="4"></path>
                <path d="M32.4995808,110.75 L107.040001,110.75" id="Line" stroke="#BFBFBF" stroke-width="1.5" stroke-linecap="square" stroke-dasharray="4"></path>
                <path d="M111,95 L176.593445,95" id="Line" stroke="#BFBFBF" stroke-width="1.5" stroke-linecap="square" stroke-dasharray="4"></path>
                <path d="M111,161 L176.593445,161" id="Line-Copy-29" stroke="#BFBFBF" stroke-width="1.5" stroke-linecap="square" stroke-dasharray="4"></path>
                <path d="M220.75,128.353751 L220.75,176.504265" id="Line" stroke="#BFBFBF" stroke-width="1.5" stroke-linecap="square" stroke-dasharray="4"></path>
                <path d="M290.75,77.4962943 L290.75,87.9262946" id="Line" stroke="#BFBFBF" stroke-width="1.5" stroke-linecap="square" stroke-dasharray="4"></path>
                <path d="M290.75,138.353751 L290.75,176.930931" id="Line" stroke="#BFBFBF" stroke-width="1.5" stroke-linecap="square" stroke-dasharray="4"></path>
                <path d="M224,176 L288.501938,176" id="Line-Copy-29" stroke="#BFBFBF" stroke-width="1.5" stroke-linecap="square" stroke-dasharray="4"></path>
                <path d="M177,62 L221.637428,62" id="Line" stroke="#BFBFBF" stroke-width="1.5" stroke-linecap="square" stroke-dasharray="4"></path>
                <path d="M176.75,128.335406 L176.75,160.504265" id="Line" stroke="#BFBFBF" stroke-width="1.5" stroke-linecap="square" stroke-dasharray="4"></path>
                <path d="M177,128 L221.637428,128" id="Line" stroke="#BFBFBF" stroke-width="1.5" stroke-linecap="square" stroke-dasharray="4"></path>
                <path d="M222,78 L288.501877,78" id="Line" stroke="#BFBFBF" stroke-width="1.5" stroke-linecap="square" stroke-dasharray="4"></path>
                <use id="Oval-204" stroke="#BFBFBF" mask="url(#mask-2)" stroke-width="3" xlink:href="#path-1"></use>
                <use id="Oval-204" stroke="#BFBFBF" mask="url(#mask-4)" stroke-width="3" xlink:href="#path-3"></use>
                <use id="Oval-204" stroke="#BFBFBF" mask="url(#mask-6)" stroke-width="3" xlink:href="#path-5"></use>
                <use id="Oval-204" stroke="#BFBFBF" mask="url(#mask-8)" stroke-width="3" xlink:href="#path-7"></use>
                <use id="Oval-204" stroke="#BFBFBF" mask="url(#mask-10)" stroke-width="3" xlink:href="#path-9"></use>
                <use id="Oval-204" stroke="#BFBFBF" mask="url(#mask-12)" stroke-width="3" xlink:href="#path-11"></use>
                <use id="Oval-204" stroke="#BFBFBF" mask="url(#mask-14)" stroke-width="3" xlink:href="#path-13"></use>
                <use id="Oval-204" stroke="#BFBFBF" mask="url(#mask-16)" stroke-width="3" xlink:href="#path-15"></use>
                <use id="Oval-204" stroke="#BFBFBF" mask="url(#mask-18)" stroke-width="3" xlink:href="#path-17"></use>
                <use id="Oval-204" stroke="#BFBFBF" mask="url(#mask-20)" stroke-width="3" xlink:href="#path-19"></use>
                <use id="Oval-204" stroke="#BFBFBF" mask="url(#mask-22)" stroke-width="3" xlink:href="#path-21"></use>
                <g id="Group-28" transform="translate(316.000000, 11.000000)">
                    <g id="Group-27" transform="translate(5.000000, 0.000000)" stroke="#BFBFBF" stroke-width="1.5">
                        <g id="Group" transform="translate(5.500000, 20.000000) rotate(90.000000) translate(-5.500000, -20.000000) translate(-14.500000, 14.500000)">
                            <path d="M0,5 L39.5600014,5" id="Shape"></path>
                            <polyline id="Shape" points="5.71428571 11 0 5.5 5.71428571 0"></polyline>
                        </g>
                        <g id="Group" transform="translate(5.500000, 181.000000) rotate(270.000000) translate(-5.500000, -181.000000) translate(-14.500000, 175.500000)">
                            <path d="M0,5 L39.5600014,5" id="Shape"></path>
                            <polyline id="Shape" points="5.71428571 11 0 5.5 5.71428571 0"></polyline>
                        </g>
                    </g>
                    <text id="Level-of-difficulty" transform="translate(11.000000, 101.000000) rotate(90.000000) translate(-11.000000, -101.000000) " font-family="AdelleSans-Regular, Adelle Sans" font-size="12" font-weight="normal" line-spacing="22" fill="#333333">
                        <tspan x="-34.624" y="104">Level of difficulty</tspan>
                    </text>
                </g>
                <g id="Group" transform="translate(282.000000, 94.000000)" fill="#444444">
                    <path d="M0.944999993,20 C0.422665989,20 0,19.8053244 0,19.5652174 L0,0.434782609 C0,0.194675609 0.422665989,0 0.944999993,0 C1.467334,0 1.88999999,0.194675609 1.88999999,0.434782609 L1.88999999,19.5652174 C1.88999999,19.8053244 1.467334,20 0.944999993,20 L0.944999993,20 Z" id="Shape"></path>
                    <path d="M17.5526316,1.73913043 L3.23684211,1.73913043 C2.98956619,1.73913043 2.78947368,1.93380604 2.78947368,2.17391304 L2.78947368,12.6086957 C2.78947368,12.8488027 2.98956619,13.0434783 3.23684211,13.0434783 L17.5526316,13.0434783 C17.7999075,13.0434783 18,12.8488027 18,12.6086957 L18,2.17391304 C18,1.93380604 17.7999075,1.73913043 17.5526316,1.73913043 L17.5526316,1.73913043 Z M6.36842105,12.173913 L3.68421053,12.173913 L3.68421053,9.56521739 L6.36842105,9.56521739 L6.36842105,12.173913 L6.36842105,12.173913 Z M6.36842105,5.2173913 L3.68421053,5.2173913 L3.68421053,2.60869565 L6.36842105,2.60869565 L6.36842105,5.2173913 L6.36842105,5.2173913 Z M9.94736842,8.69565217 L7.26315789,8.69565217 L7.26315789,6.08695652 L9.94736842,6.08695652 L9.94736842,8.69565217 L9.94736842,8.69565217 Z M13.5263158,12.173913 L10.8421053,12.173913 L10.8421053,9.56521739 L13.5263158,9.56521739 L13.5263158,12.173913 L13.5263158,12.173913 Z M13.5263158,5.2173913 L10.8421053,5.2173913 L10.8421053,2.60869565 L13.5263158,2.60869565 L13.5263158,5.2173913 L13.5263158,5.2173913 Z M17.1052632,8.69565217 L14.4210526,8.69565217 L14.4210526,6.08695652 L17.1052632,6.08695652 L17.1052632,8.69565217 L17.1052632,8.69565217 Z" id="Shape"></path>
                </g>
                <text id="Finish" font-family="AdelleSans-Regular, Adelle Sans" font-size="11" font-weight="normal" line-spacing="22" fill="#333333">
                    <tspan x="276.172" y="128">Finish</tspan>
                </text>
                <g id="Group-7" transform="translate(0.000000, 88.000000)">
                    <text id="Start" font-family="AdelleSans-Regular, Adelle Sans" font-size="11" font-weight="normal" line-spacing="22" fill="#333333">
                        <tspan x="0.713" y="40">Start</tspan>
                    </text>
                    <g id="Group" transform="translate(1.000000, 0.000000)" fill="#444444">
                        <path d="M15.2173913,17.0434783 L7.91304348,17.0434783 C3.54991304,17.0434783 -9.09494702e-13,20.5933913 -9.09494702e-13,24.9565217 L-9.09494702e-13,26.173913 C-9.09494702e-13,26.4386957 0.171043478,26.6730435 0.423043478,26.754 C0.582521739,26.8045217 4.40026087,28 11.5652174,28 C18.7301739,28 22.547913,26.8045217 22.7073913,26.754 C22.9593913,26.6730435 23.1304348,26.4386957 23.1304348,26.173913 L23.1304348,24.9565217 C23.1304348,20.5933913 19.5805217,17.0434783 15.2173913,17.0434783 L15.2173913,17.0434783 Z" id="Shape"></path>
                        <path d="M11.5652174,14.6086957 C15.336087,14.6086957 18.2608696,10.3551304 18.2608696,6.69565217 C18.2608696,3.00391304 15.2569565,0 11.5652174,0 C7.87347826,0 4.86956522,3.00391304 4.86956522,6.69565217 C4.86956522,10.3551304 7.79434783,14.6086957 11.5652174,14.6086957 L11.5652174,14.6086957 Z" id="Shape"></path>
                    </g>
                </g>
                <g id="Group-8" transform="translate(51.000000, 97.000000)">
                    <g id="Group-25" stroke="#BFBFBF" stroke-width="3" fill="#E4F3D3">
                        <use id="Oval-204" mask="url(#mask-24)" xlink:href="#path-23"></use>
                    </g>
                    <path d="M10.0353438,17.7306726 L6.0795312,13.77486 C5.9734896,13.6688184 5.9734896,13.4971449 6.0795312,13.3913745 L7.59448865,11.8764171 C7.70053025,11.7703755 7.87220373,11.7703755 7.97797413,11.8764171 L10.2270866,14.1255295 L16.2730849,8.0795312 C16.3791265,7.9734896 16.5508,7.9734896 16.6565704,8.0795312 L18.1715278,9.59448865 C18.2775694,9.70053025 18.2775694,9.87220373 18.1715278,9.97797413 L10.4188293,17.7306726 C10.3130589,17.836443 10.1411142,17.836443 10.0353438,17.7306726 L10.0353438,17.7306726 Z" id="Shape" fill="#5F9B2B"></path>
                </g>
                <g id="Group-8" transform="translate(96.000000, 82.000000)">
                    <g id="Group-25" stroke="#BFBFBF" stroke-width="3" fill="#E4F3D3">
                        <use id="Oval-204" mask="url(#mask-26)" xlink:href="#path-25"></use>
                    </g>
                    <path d="M10.0353438,17.7306726 L6.0795312,13.77486 C5.9734896,13.6688184 5.9734896,13.4971449 6.0795312,13.3913745 L7.59448865,11.8764171 C7.70053025,11.7703755 7.87220373,11.7703755 7.97797413,11.8764171 L10.2270866,14.1255295 L16.2730849,8.0795312 C16.3791265,7.9734896 16.5508,7.9734896 16.6565704,8.0795312 L18.1715278,9.59448865 C18.2775694,9.70053025 18.2775694,9.87220373 18.1715278,9.97797413 L10.4188293,17.7306726 C10.3130589,17.836443 10.1411142,17.836443 10.0353438,17.7306726 L10.0353438,17.7306726 Z" id="Shape" fill="#5F9B2B"></path>
                </g>
                <g id="Group-8" transform="translate(141.000000, 82.000000)">
                    <g id="Group-25" stroke="#BFBFBF" stroke-width="3" fill="#E4F3D3">
                        <use id="Oval-204" mask="url(#mask-28)" xlink:href="#path-27"></use>
                    </g>
                    <path d="M10.0353438,17.7306726 L6.0795312,13.77486 C5.9734896,13.6688184 5.9734896,13.4971449 6.0795312,13.3913745 L7.59448865,11.8764171 C7.70053025,11.7703755 7.87220373,11.7703755 7.97797413,11.8764171 L10.2270866,14.1255295 L16.2730849,8.0795312 C16.3791265,7.9734896 16.5508,7.9734896 16.6565704,8.0795312 L18.1715278,9.59448865 C18.2775694,9.70053025 18.2775694,9.87220373 18.1715278,9.97797413 L10.4188293,17.7306726 C10.3130589,17.836443 10.1411142,17.836443 10.0353438,17.7306726 L10.0353438,17.7306726 Z" id="Shape" fill="#5F9B2B"></path>
                </g>
                <g id="Group-8" transform="translate(141.000000, 148.000000)">
                    <g id="Group-25" stroke="#BFBFBF" stroke-width="3" fill="#E4F3D3">
                        <use id="Oval-204" mask="url(#mask-30)" xlink:href="#path-29"></use>
                    </g>
                    <path d="M10.0353438,17.7306726 L6.0795312,13.77486 C5.9734896,13.6688184 5.9734896,13.4971449 6.0795312,13.3913745 L7.59448865,11.8764171 C7.70053025,11.7703755 7.87220373,11.7703755 7.97797413,11.8764171 L10.2270866,14.1255295 L16.2730849,8.0795312 C16.3791265,7.9734896 16.5508,7.9734896 16.6565704,8.0795312 L18.1715278,9.59448865 C18.2775694,9.70053025 18.2775694,9.87220373 18.1715278,9.97797413 L10.4188293,17.7306726 C10.3130589,17.836443 10.1411142,17.836443 10.0353438,17.7306726 L10.0353438,17.7306726 Z" id="Shape" fill="#5F9B2B"></path>
                </g>
                <g id="Group-8" transform="translate(231.000000, 65.000000)" stroke-width="3" stroke="#BFBFBF" fill="#BFBFBF">
                    <g id="Group-25">
                        <use id="Oval-204" mask="url(#mask-32)" xlink:href="#path-31"></use>
                    </g>
                </g>
                <g id="Group-9" transform="translate(96.000000, 115.000000)">
                    <g id="Group-25" stroke="#BFBFBF" stroke-width="3" fill="#FEE2E1">
                        <use id="Oval-204" mask="url(#mask-34)" xlink:href="#path-33"></use>
                    </g>
                    <path d="M16.9357143,9.35 L15.65,8.06428571 C15.5642857,7.97857143 15.4357143,7.97857143 15.35,8.06428571 L12.5,10.9142857 L9.65,8.06428571 C9.56428571,7.97857143 9.43571429,7.97857143 9.35,8.06428571 L8.06428571,9.35 C7.97857143,9.43571429 7.97857143,9.56428571 8.06428571,9.65 L10.9142857,12.5 L8.06428571,15.35 C7.97857143,15.4357143 7.97857143,15.5642857 8.06428571,15.65 L9.35,16.9357143 C9.43571429,17.0214286 9.56428571,17.0214286 9.65,16.9357143 L12.5,14.0857143 L15.35,16.9357143 C15.3928571,16.9785714 15.4571429,17 15.5,17 C15.5428571,17 15.6071429,16.9785714 15.65,16.9357143 L16.9357143,15.65 C17.0214286,15.5642857 17.0214286,15.4357143 16.9357143,15.35 L14.0857143,12.5 L16.9357143,9.65 C17.0214286,9.56428571 17.0214286,9.43571429 16.9357143,9.35 L16.9357143,9.35 Z" id="Shape" fill="#FF4542"></path>
                </g>
                <g id="Group-9" transform="translate(186.000000, 50.000000)">
                    <g id="Group-25" stroke="#BFBFBF" stroke-width="3" fill="#FEE2E1">
                        <use id="Oval-204" mask="url(#mask-36)" xlink:href="#path-35"></use>
                    </g>
                    <path d="M16.9357143,9.35 L15.65,8.06428571 C15.5642857,7.97857143 15.4357143,7.97857143 15.35,8.06428571 L12.5,10.9142857 L9.65,8.06428571 C9.56428571,7.97857143 9.43571429,7.97857143 9.35,8.06428571 L8.06428571,9.35 C7.97857143,9.43571429 7.97857143,9.56428571 8.06428571,9.65 L10.9142857,12.5 L8.06428571,15.35 C7.97857143,15.4357143 7.97857143,15.5642857 8.06428571,15.65 L9.35,16.9357143 C9.43571429,17.0214286 9.56428571,17.0214286 9.65,16.9357143 L12.5,14.0857143 L15.35,16.9357143 C15.3928571,16.9785714 15.4571429,17 15.5,17 C15.5428571,17 15.6071429,16.9785714 15.65,16.9357143 L16.9357143,15.65 C17.0214286,15.5642857 17.0214286,15.4357143 16.9357143,15.35 L14.0857143,12.5 L16.9357143,9.65 C17.0214286,9.56428571 17.0214286,9.43571429 16.9357143,9.35 L16.9357143,9.35 Z" id="Shape" fill="#FF4542"></path>
                </g>
                <g id="Group-9" transform="translate(186.000000, 115.000000)">
                    <g id="Group-25" stroke="#BFBFBF" stroke-width="3" fill="#FEE2E1">
                        <use id="Oval-204" mask="url(#mask-38)" xlink:href="#path-37"></use>
                    </g>
                    <path d="M16.9357143,9.35 L15.65,8.06428571 C15.5642857,7.97857143 15.4357143,7.97857143 15.35,8.06428571 L12.5,10.9142857 L9.65,8.06428571 C9.56428571,7.97857143 9.43571429,7.97857143 9.35,8.06428571 L8.06428571,9.35 C7.97857143,9.43571429 7.97857143,9.56428571 8.06428571,9.65 L10.9142857,12.5 L8.06428571,15.35 C7.97857143,15.4357143 7.97857143,15.5642857 8.06428571,15.65 L9.35,16.9357143 C9.43571429,17.0214286 9.56428571,17.0214286 9.65,16.9357143 L12.5,14.0857143 L15.35,16.9357143 C15.3928571,16.9785714 15.4571429,17 15.5,17 C15.5428571,17 15.6071429,16.9785714 15.65,16.9357143 L16.9357143,15.65 C17.0214286,15.5642857 17.0214286,15.4357143 16.9357143,15.35 L14.0857143,12.5 L16.9357143,9.65 C17.0214286,9.56428571 17.0214286,9.43571429 16.9357143,9.35 L16.9357143,9.35 Z" id="Shape" fill="#FF4542"></path>
                </g>
                <g id="Group-9" transform="translate(231.000000, 164.000000)" stroke-width="3" stroke="#BFBFBF" fill="#BFBFBF">
                    <g id="Group-25">
                        <use id="Oval-204" mask="url(#mask-40)" xlink:href="#path-39"></use>
                    </g>
                </g>
            </g>
        </g>
    </g>
</svg>
