<svg version="1.1" id="Layer_1" xmlns="http://www.w3.org/2000/svg" xmlns:xlink="http://www.w3.org/1999/xlink" x="0px" y="0px"
	 viewBox="0 0 23 23" style="enable-background:new 0 0 23 23;" xml:space="preserve">
<title>Group</title>
<desc>Created with Sketch.</desc>
<g>
	<path d="M19,11c-0.3,0-0.6-0.1-1-0.2l-1.2-0.4l-1,1c0.1,0.5,0.2,1,0.2,1.5c0,3.3-2.7,6-6,6s-6-2.7-6-6s2.7-6,6-6
		c0.5,0,1.1,0.1,1.5,0.2l1-1l-0.4-1.2c-0.1-0.5-0.1-1.1,0-1.7C11.4,3.1,10.7,3,10,3C4.5,3,0,7.5,0,13s4.5,10,10,10s10-4.5,10-10
		c0-0.7-0.1-1.4-0.2-2.1C19.5,11,19.3,11,19,11z"/>
	<path d="M23,4.8c-0.1-0.3-0.3-0.6-0.7-0.7l-1.5-0.5l0.9-0.9c0.4-0.4,0.4-1,0-1.4s-1-0.4-1.4,0l-0.9,0.9l-0.5-1.5
		c-0.1-0.3-0.4-0.6-0.7-0.7s-0.7,0-0.9,0.3l-3,3c-0.3,0.3-0.4,0.7-0.2,1l0.8,2.4L12,9.6C11.4,9.2,10.7,9,10,9c-2.2,0-4,1.8-4,4
		s1.8,4,4,4s4-1.8,4-4c0-0.7-0.2-1.4-0.6-2l2.8-2.8L18.6,9c0.1,0,0.2,0.1,0.3,0.1c0.3,0,0.5-0.1,0.7-0.3l3-3C23,5.5,23.1,5.1,23,4.8
		z"/>
</g>
</svg>
