<svg version="1.1" id="Layer_1" xmlns="http://www.w3.org/2000/svg" xmlns:xlink="http://www.w3.org/1999/xlink" x="0px" y="0px"
	 viewBox="0 0 100 100" style="enable-background:new 0 0 100 100;" xml:space="preserve">
<path d="M96.5,84.3L69.8,57.7c3.6-5.8,5.5-12.5,5.5-19.5C75.4,17.7,58.7,1,38.2,1S1,17.7,1,38.2c0,20.5,16.7,37.2,37.2,37.2
	c7.2,0,14.1-2.1,20-5.9L84.8,96c1.6,1.6,3.7,2.4,5.8,2.4c2.1,0,4.2-0.8,5.8-2.4C99.7,92.8,99.7,87.5,96.5,84.3z M38.2,58.8
	c-11.4,0-20.6-9.3-20.6-20.6c0-11.4,9.3-20.6,20.6-20.6s20.6,9.3,20.6,20.6c0,5.4-2.1,10.6-5.9,14.4C49,56.6,43.8,58.8,38.2,58.8z"
	/>
</svg>
