<?xml version="1.0" encoding="UTF-8"?>
<svg width="26px" height="30px" viewBox="0 0 26 30" version="1.1" xmlns="http://www.w3.org/2000/svg" xmlns:xlink="http://www.w3.org/1999/xlink">
    <!-- Generator: Sketch 43.2 (39069) - http://www.bohemiancoding.com/sketch -->
    <title>Group 20</title>
    <desc>Created with Sketch.</desc>
    <defs></defs>
    <g id="V1" stroke="none" stroke-width="1" fill="none" fill-rule="evenodd">
        <g id="10_07-Lessons-Page" transform="translate(-216.000000, -490.000000)" fill="#027360">
            <g id="Group-11" transform="translate(209.000000, 485.000000)">
                <g id="Group-14">
                    <g id="Group-9" transform="translate(7.777778, 4.444444)">
                        <g id="Group-5" transform="translate(0.000000, 0.000000)">
                            <g id="Group-19">
                                <g id="Group-20">
                                    <path d="M11.1862808,10.0680076 C11.2121418,9.78194553 11.2417565,9.49937136 11.2753839,9.22811534 C11.3661227,8.49616786 11.4734378,7.93000804 11.6233448,7.52745437 C12.020893,6.45989519 12.8810077,5.3096286 13.7968119,4.65270452 C14.2954428,4.29502694 14.9896179,4.40929215 15.3472955,4.90792301 C15.7049731,5.40655387 15.5907078,6.10072901 15.092077,6.45840659 C14.5420474,6.85295344 13.9519507,7.64211398 13.7058578,8.30296119 C13.6342267,8.49531656 13.5510848,8.93394596 13.4807245,9.50150931 C13.45888,9.67771916 13.4387348,9.86095761 13.4202911,10.0478775 C14.9183463,9.64672031 16.6514782,8.67097616 18.9893669,8.93839819 C21.8891163,9.27008929 23.710069,11.6699451 24.301772,14.8252499 C24.893475,17.9805548 23.5565823,22.4469565 21.9155901,24.8754061 C20.2745979,27.3038558 17.6109331,30 15.7215665,30 C13.8322,30 13.2229375,28.7853846 13.2229375,28.7853846 C12.8608446,28.3753985 12.3180492,28.3625334 11.9759657,28.7967983 C11.9759657,28.7967983 11.3507665,30 9.74363861,30 C8.1365107,30 4.65190573,27.5380083 2.55247163,24.4933149 C0.453037524,21.4486215 -0.492639781,18.625359 0.252187863,15.0224122 C0.997015506,11.4194654 2.93064366,9.29145193 4.94119895,8.93839819 C6.56679749,8.6529429 9.2835207,9.67808404 11.1862808,10.0680076 Z M3.93975442,14.2004724 C3.8936374,14.351092 3.83077509,14.606917 3.76981241,14.9529878 C3.57613204,16.0524658 3.53976781,17.2913984 3.75913144,18.594106 C3.92689082,19.5903578 4.32312113,20.5477724 4.87608984,21.4492482 C5.31839232,22.1703106 5.76250735,22.7111006 6.07408194,23.0262259 C6.39766981,23.3535014 6.92529882,23.3564908 7.25257433,23.0329029 C7.57984984,22.7093151 7.58283926,22.1816861 7.25925139,21.8544106 C7.20899426,21.8035807 7.10793301,21.6924332 6.97309348,21.5282418 C6.74300392,21.2480664 6.51196425,20.9286062 6.29677495,20.5777945 C5.847613,19.8455494 5.53128501,19.0812034 5.40265956,18.3173514 C5.21755159,17.2180737 5.2484254,16.1662001 5.41120645,15.2421303 C5.4597925,14.9663187 5.50647892,14.7763232 5.5333944,14.6884165 C5.66813643,14.248345 5.42061797,13.7823665 4.98054644,13.6476245 C4.54047492,13.5128824 4.07449646,13.7604009 3.93975442,14.2004724 Z" id="Combined-Shape" fill-rule="nonzero"></path>
                                    <path d="M7.15509958,6.85461429 C9.90486134,6.85461429 11.7544456,5.06043413 11.7544456,5.06043413 C11.9640587,4.88298771 11.9615278,4.5869992 11.7544456,4.4178438 C11.7544456,4.4178438 9.90486134,2.62366364 7.15509958,2.62366364 C4.40533781,2.62366364 2.55575351,4.4178438 2.55575351,4.4178438 C2.34614044,4.59529022 2.34867136,4.89127873 2.55575351,5.06043413 C2.55575351,5.06043413 4.40533781,6.85461429 7.15509958,6.85461429 Z" id="Oval-6" transform="translate(7.155100, 4.739139) rotate(-318.000000) translate(-7.155100, -4.739139) "></path>
                                </g>
                            </g>
                        </g>
                    </g>
                </g>
            </g>
        </g>
    </g>
</svg>