<?xml version="1.0" encoding="utf-8"?>
<!-- Generator: Adobe Illustrator 21.0.2, SVG Export Plug-In . SVG Version: 6.00 Build 0)  -->
<svg version="1.1" id="Layer_1" xmlns="http://www.w3.org/2000/svg" xmlns:xlink="http://www.w3.org/1999/xlink" x="0px" y="0px"
	 viewBox="0 0 23 23" style="enable-background:new 0 0 23 23;" xml:space="preserve">
<style type="text/css">
	.st0{fill:#FFFFFF;}
</style>
<path class="st0" d="M22.2,19.5l-6.1-6.1c0.8-1.3,1.3-2.9,1.3-4.5c0-4.7-3.8-8.6-8.5-8.6S0.2,4.1,0.2,8.9s3.8,8.6,8.6,8.6
	c1.7,0,3.2-0.5,4.6-1.4l6.1,6.1c0.4,0.4,0.9,0.6,1.3,0.6s1-0.2,1.3-0.6C22.9,21.4,22.9,20.2,22.2,19.5z M8.8,13.6
	c-2.6,0-4.7-2.1-4.7-4.7c0-2.6,2.1-4.7,4.7-4.7s4.7,2.1,4.7,4.7c0,1.2-0.5,2.4-1.4,3.3C11.3,13.1,10.1,13.6,8.8,13.6z"/>
</svg>
