<?xml version="1.0" encoding="UTF-8" standalone="no"?>
<svg width="99px" height="34px" viewBox="0 0 99 34" version="1.1" xmlns="http://www.w3.org/2000/svg" xmlns:xlink="http://www.w3.org/1999/xlink">
    <!-- Generator: Sketch 3.8.3 (29802) - http://www.bohemiancoding.com/sketch -->
    <title>Group</title>
    <desc>Created with Sketch.</desc>
    <defs></defs>
    <g id="Welcome" stroke="none" stroke-width="1" fill="none" fill-rule="evenodd">
        <g id="Teacher-Header---Full-Width" transform="translate(-178.000000, -17.000000)" fill="#FFFFFF">
            <g id="Group" transform="translate(178.000000, 17.000000)">
                <g transform="translate(0.000000, 4.935695)" id="Shape">
                    <path d="M12.7554797,0.442510589 C19.2589306,0.442510589 25.3768677,5.31012707 25.3768677,13.5476319 C25.3768677,17.2749326 24.1197573,20.3384675 22.1586651,22.5340008 L25.0919226,25.8698498 L22.259234,28.3206777 L19.2086462,24.9507894 C17.281077,26.0911051 15.0182783,26.6867925 12.7387182,26.6867925 C6.23526735,26.6867925 0.150853242,21.819176 0.150853242,13.5476319 C0.167614714,5.31012707 6.25202882,0.442510589 12.7554797,0.442510589 L12.7554797,0.442510589 Z M12.7554797,22.6361186 C14.0125901,22.6361186 15.3032234,22.380824 16.4597649,21.819176 L12.3699659,17.2068541 L15.2361775,14.7219869 L19.3594994,19.3683481 C20.4154721,17.9046592 21.0691695,15.9984598 21.0691695,13.5476319 C21.0691695,7.4716211 16.9458476,4.45914517 12.7387182,4.45914517 C8.58187334,4.45914517 4.44178991,7.4716211 4.44178991,13.5476319 C4.45855138,19.6236427 8.59863481,22.6361186 12.7554797,22.6361186 L12.7554797,22.6361186 Z"></path>
                    <path d="M34.7968146,26.6527532 C30.7405385,26.6527532 28.3604096,23.606238 28.3604096,19.7597998 L28.3604096,8.85021178 L32.4166856,8.85021178 L32.4166856,19.0109357 C32.4166856,21.1383905 33.388851,22.9594917 35.8527873,22.9594917 C38.1993932,22.9594917 39.4229807,21.3596457 39.4229807,19.0960339 L39.4229807,8.85021178 L43.4792567,8.85021178 L43.4792567,22.993531 C43.4792567,24.406161 43.5798256,25.5124374 43.6468714,26.1591837 L39.7582101,26.1591837 C39.6911642,25.767732 39.6241183,24.9507894 39.6241183,24.2359646 C38.7692833,25.8017713 36.7914297,26.6527532 34.7968146,26.6527532 L34.7968146,26.6527532 Z"></path>
                    <path d="M49.8318544,0.0850981902 C51.3068639,0.0850981902 52.4969283,1.29349249 52.4969283,2.79122064 C52.4969283,4.28894879 51.3068639,5.46330381 49.8318544,5.46330381 C48.3903678,5.46330381 47.2003034,4.28894879 47.2003034,2.79122064 C47.2003034,1.29349249 48.3903678,0.0850981902 49.8318544,0.0850981902 L49.8318544,0.0850981902 Z M47.8372393,26.1591837 L47.8372393,8.85021178 L51.8599924,8.85021178 L51.8599924,26.142164 L47.8372393,26.142164 L47.8372393,26.1591837 Z"></path>
                    <polygon points="56.2347364 26.1591837 56.2347364 0.442510589 60.2910125 0.442510589 60.2910125 26.1591837"></polygon>
                    <polygon points="64.6657565 26.1591837 64.6657565 0.442510589 68.7220326 0.442510589 68.7220326 26.1591837"></polygon>
                </g>
                <path d="M83.9079257,28.4908741 C83.5726962,28.4908741 83.2709898,28.3036581 83.136898,27.9632653 L82.3491088,26.0740855 L80.3880167,26.5336157 C79.935457,26.6357335 79.4828972,26.3463997 79.3823284,25.8868695 C79.2817596,25.4273392 79.5667046,24.967809 80.0192643,24.8656912 L82.6675768,24.2529842 C83.0698521,24.167886 83.4721274,24.3721217 83.6229807,24.7465537 L84.6789534,27.2824798 C84.8633295,27.7079707 84.6621919,28.2185599 84.2263936,28.3887563 C84.1258248,28.4568348 84.025256,28.4908741 83.9079257,28.4908741 L83.9079257,28.4908741 Z" id="Shape"></path>
                <path d="M80.3209708,30.9757412 C80.186879,30.9757412 80.0527873,30.941702 79.935457,30.8736234 C79.6672734,30.7374663 79.4828972,30.4481325 79.4828972,30.141779 L79.3823284,25.7166731 C79.3655669,25.2401232 79.7343193,24.8486715 80.2036405,24.8486715 L80.220402,24.8486715 C80.6729617,24.8486715 81.0417141,25.2231036 81.0584755,25.6826338 L81.1255214,28.541933 L83.4553659,26.9250674 C83.8408798,26.6527532 84.3604854,26.754871 84.6119075,27.1463227 C84.880091,27.5377744 84.7795222,28.0653831 84.3940083,28.3206777 L80.790292,30.8225645 C80.6394388,30.9246823 80.4885855,30.9757412 80.3209708,30.9757412 L80.3209708,30.9757412 Z" id="Shape"></path>
                <path d="M92.774744,1.78706199 C93.3278726,1.78706199 93.8977626,1.9232191 94.4341297,2.19553331 C96.2276071,3.1316134 96.9315889,5.34416635 96.009708,7.16526762 L89.9588168,19.1470928 L84.595146,21.6830189 L83.4888889,15.7772045 L89.5397801,3.79537928 C90.176716,2.51890643 91.4505878,1.78706199 92.774744,1.78706199 L92.774744,1.78706199 Z M92.774744,0.0850981902 C90.7801289,0.0850981902 88.9531286,1.2083943 88.0480091,3.01247593 L81.9971179,14.9943011 C81.8295032,15.3346939 81.7792188,15.7091259 81.8462647,16.083558 L82.9525218,21.9893724 C83.0530906,22.4999615 83.3715586,22.9424721 83.8408798,23.180747 C84.0755404,23.2998845 84.3437239,23.367963 84.6119075,23.367963 C84.8465681,23.367963 85.0979901,23.3169041 85.3158893,23.2147863 L90.6795601,20.6788602 C91.0147895,20.5256835 91.2997345,20.2533693 91.4673493,19.9129765 L97.5182404,7.93115133 C98.8591581,5.29310743 97.8199469,2.02533693 95.2219188,0.680785522 C94.4508912,0.289333847 93.6128176,0.0850981902 92.774744,0.0850981902 L92.774744,0.0850981902 L92.774744,0.0850981902 Z" id="Shape"></path>
                <path d="M88.4502844,14.8921833 C88.3161926,14.8921833 88.1821009,14.858144 88.0647706,14.7900655 C87.83011,14.670928 87.6792567,14.4496727 87.6289723,14.1943781 L86.5227152,8.28856373 C86.4389078,7.8290335 86.7406143,7.38652291 87.1931741,7.30142472 C87.6457338,7.21632653 88.081532,7.52268002 88.1653394,7.98221024 L89.0704589,12.8157874 L93.4619644,10.7393916 C93.8810011,10.5351559 94.3838453,10.722372 94.5682215,11.1478629 C94.7693591,11.5733539 94.5849829,12.083943 94.1659462,12.271159 L88.8022753,14.8070851 C88.684945,14.858144 88.5676147,14.8921833 88.4502844,14.8921833 L88.4502844,14.8921833 Z" id="Shape"></path>
                <path d="M82.851953,25.9379284 C82.7178612,25.9379284 82.6005309,25.9038891 82.4664391,25.8358106 C82.0474024,25.6145553 81.8965491,25.1039661 82.0976868,24.6954948 L91.6852484,5.71859838 C91.9031475,5.29310743 92.4059917,5.13993069 92.808267,5.34416635 C93.2273038,5.56542164 93.378157,6.07601078 93.1770193,6.48448209 L83.5894577,25.4613785 C83.4553659,25.767732 83.1704209,25.9379284 82.851953,25.9379284 L82.851953,25.9379284 Z" id="Shape"></path>
                <path d="M80.3209708,30.9757412 L73.1973455,30.9757412 C72.7280243,30.9757412 72.3592719,30.6013092 72.3592719,30.1247593 C72.3592719,29.6482095 72.7280243,29.2737774 73.1973455,29.2737774 L80.3209708,29.2737774 C80.790292,29.2737774 81.1590444,29.6482095 81.1590444,30.1247593 C81.1590444,30.6013092 80.790292,30.9757412 80.3209708,30.9757412 L80.3209708,30.9757412 Z" id="Shape"></path>
            </g>
        </g>
    </g>
</svg>