<?xml version="1.0" encoding="utf-8"?>
<!-- Generator: Adobe Illustrator 21.0.2, SVG Export Plug-In . SVG Version: 6.00 Build 0)  -->
<svg version="1.1" id="Layer_1" xmlns="http://www.w3.org/2000/svg" xmlns:xlink="http://www.w3.org/1999/xlink" x="0px" y="0px"
	 viewBox="0 0 23 23" style="enable-background:new 0 0 23 23;" xml:space="preserve">
<style type="text/css">
	.st0{fill:#FFFFFF;}
</style>
<title>Group</title>
<desc>Created with Sketch.</desc>
<g>
	<path class="st0" d="M18.8,11c-0.3,0-0.6-0.1-1-0.2l-1.2-0.4l-1,1c0.1,0.5,0.2,1,0.2,1.5c0,3.2-2.6,5.9-5.9,5.9s-5.9-2.6-5.9-5.9
		S6.8,7,10,7c0.5,0,1.1,0.1,1.5,0.2l1-1L12.1,5C12,4.6,12,4,12.1,3.4c-0.7-0.1-1.4-0.2-2.1-0.2c-5.4,0-9.8,4.4-9.8,9.8
		s4.4,9.8,9.8,9.8s9.8-4.4,9.8-9.8c0-0.7-0.1-1.4-0.2-2.1C19.3,11,19.1,11,18.8,11z"/>
	<path class="st0" d="M22.8,5c-0.1-0.3-0.3-0.6-0.7-0.7l-1.5-0.5l0.9-0.9c0.4-0.4,0.4-1,0-1.4c-0.4-0.4-1-0.4-1.4,0l-0.9,0.9
		l-0.5-1.5c-0.1-0.3-0.4-0.6-0.7-0.7s-0.7,0-0.9,0.3l-2.9,2.9c-0.3,0.3-0.4,0.7-0.2,1l0.8,2.4L12,9.7c-0.6-0.4-1.3-0.6-2-0.6
		c-2.2,0-3.9,1.8-3.9,3.9s1.8,3.9,3.9,3.9s3.9-1.8,3.9-3.9c0-0.7-0.2-1.4-0.6-2l2.7-2.7l2.4,0.8c0.1,0,0.2,0.1,0.3,0.1
		c0.3,0,0.5-0.1,0.7-0.3l2.9-2.9C22.8,5.6,22.9,5.2,22.8,5z"/>
</g>
</svg>
