<?xml version="1.0" encoding="utf-8"?>
<!-- Generator: Adobe Illustrator 21.0.2, SVG Export Plug-In . SVG Version: 6.00 Build 0)  -->
<svg version="1.1" id="Layer_1" xmlns="http://www.w3.org/2000/svg" xmlns:xlink="http://www.w3.org/1999/xlink" x="0px" y="0px"
	 viewBox="0 0 23 23" style="enable-background:new 0 0 23 23;" xml:space="preserve">
<style type="text/css">
	.st0{fill:#FFFFFF;}
</style>
<g id="Homepage">
	<g id="Quill-Homepage" transform="translate(-732.000000, -2621.000000)">
		<g id="Group-34" transform="translate(732.000000, 2621.000000)">
			<g id="Group-35">
				<g id="Group-36">
					<path id="Fill-1" class="st0" d="M17.3,11.7c0.7,0,1.3,0.3,1.8,0.7c0.1,0.1,0.2,0.1,0.3,0.1c0.1,0,0.2,0,0.3-0.1
						c0.2-0.2,0.3-0.3,0.5-0.4c0.1-0.1,0.2-0.2,0.2-0.3V7.5c0-0.8-0.7-1.5-1.5-1.5h-4c-0.1-0.1-0.1-0.2-0.2-0.3
						c0.5-0.6,0.7-1.3,0.7-2.1c0-1.8-1.5-3.3-3.3-3.3S8.8,1.8,8.8,3.7c0,0.8,0.3,1.5,0.7,2.1C9.4,5.8,9.4,5.9,9.3,6h-4
						C4.4,6,3.8,6.7,3.8,7.5v4.2c0,0.1,0.1,0.3,0.2,0.3c0.2,0.1,0.4,0.2,0.5,0.4c0.1,0.1,0.4,0.1,0.5,0c0.5-0.5,1.1-0.7,1.8-0.7
						c1.4,0,2.6,1.2,2.6,2.6s-1.2,2.6-2.6,2.6c-0.7,0-1.3-0.3-1.8-0.7C4.9,16.1,4.8,16,4.7,16c-0.1,0-0.2,0-0.3,0.1
						c-0.2,0.2-0.3,0.3-0.5,0.4c-0.1,0.1-0.2,0.2-0.2,0.3v4.2c0,0.8,0.7,1.5,1.5,1.5h13.6c0.8,0,1.5-0.7,1.5-1.5v-4.2
						c0-0.1-0.1-0.3-0.2-0.3c-0.2-0.1-0.3-0.2-0.5-0.3c0-0.1-0.1-0.1-0.2-0.2c-0.1,0-0.3,0-0.4,0.1c-0.5,0.5-1.1,0.8-1.8,0.8
						c-1.4,0-2.6-1.2-2.6-2.6S15.9,11.7,17.3,11.7"/>
				</g>
			</g>
		</g>
	</g>
</g>
</svg>
