<?xml version="1.0" encoding="UTF-8" standalone="no"?>
<svg width="149px" height="73px" viewBox="0 0 149 73" version="1.1" xmlns="http://www.w3.org/2000/svg" xmlns:xlink="http://www.w3.org/1999/xlink">
    <!-- Generator: Sketch 39.1 (31720) - http://www.bohemiancoding.com/sketch -->
    <title>Group 8</title>
    <desc>Created with Sketch.</desc>
    <defs>
        <polygon id="path-1" points="7.98580295e-05 17.9840284 13.4440994 17.9840284 13.4440994 0.000319432121 7.98580295e-05 0.000319432121 7.98580295e-05 17.9840284"></polygon>
        <path d="M82.3897765,43.1115801 L75.2781965,36 L68.1666164,43.1115801 L6.0023096,43.1115801 C2.68129956,43.1115801 0,45.7991793 0,49.1145009 L0,72.4258658 L149,72.4258658 L149,49.1145009 C149,45.7907389 146.312674,43.1115801 142.99769,43.1115801 L82.3897765,43.1115801 Z" id="path-3"></path>
        <mask id="mask-4" maskContentUnits="userSpaceOnUse" maskUnits="objectBoundingBox" x="0" y="0" width="149" height="36.4258658" fill="white">
            <use xlink:href="#path-3"></use>
        </mask>
    </defs>
    <g id="Welcome" stroke="none" stroke-width="1" fill="none" fill-rule="evenodd">
        <g id="Activity-Planner---landing-page" transform="translate(-247.000000, -326.000000)">
            <g id="Group-8" transform="translate(247.000000, 326.000000)">
                <rect id="Rectangle-23" fill="#E8522C" x="10" y="0" width="32" height="32" rx="3"></rect>
                <rect id="Rectangle-23-Copy" fill="#F8A724" x="58" y="0" width="32" height="32" rx="3"></rect>
                <rect id="Rectangle-23-Copy-2" fill="#58B146" x="106" y="0" width="32" height="32" rx="3"></rect>
                <g id="Group-46" transform="translate(17.000000, 7.000000)" fill="#FFFFFF">
                    <path d="M17.4780381,3.00322877 C17.327565,3.00322877 17.1589188,3.06265609 16.9728265,3.18151075 C16.3534881,3.57888626 15.7072535,3.77077209 14.9948688,3.77077209 C13.7968996,3.77077209 12.5560419,3.21731034 11.3566188,2.68103241 C10.1179419,2.12828666 8.83928423,1.55620913 7.55553808,1.55620913 C6.76464577,1.55620913 6.04571885,1.77029071 5.36095731,2.20847775 C4.97423423,2.45406298 4.636215,3.05263221 4.636215,3.49010326 L4.636215,9.89393484 C4.636215,10.2533628 4.87173808,10.3800933 5.07236885,10.3800933 C5.22138808,10.3800933 5.39148808,10.321382 5.57758038,10.2032433 C6.19401115,9.80586783 6.84242654,9.61326601 7.55553808,9.61326601 C8.75423423,9.61326601 9.99291115,10.1674437 11.1930612,10.7030057 C12.432465,11.2543195 13.7103958,11.826397 14.993415,11.826397 C15.7857612,11.826397 16.5039612,11.6137474 17.1872688,11.1741284 C17.5747188,10.9285431 17.9141919,10.3299739 17.9141919,9.89393484 L17.9141919,3.49010326 C17.9141919,3.13139132 17.6779419,3.00322877 17.4780381,3.00322877" id="Fill-42"></path>
                    <path d="M1.70933192,0.31825913 C0.944608846,0.31825913 0.321635769,0.931148198 0.321635769,1.68580366 C0.321635769,2.12971864 0.537531923,2.5227982 0.871189615,2.77267937 C0.871189615,2.79201115 0.868281923,2.80919496 0.868281923,2.82781075 L0.868281923,17.0194863 C0.868281923,17.4755731 1.24410115,17.8457409 1.70569731,17.8457409 L1.71296654,17.8457409 C2.17383577,17.8457409 2.55038192,17.4755731 2.55038192,17.0194863 L2.55038192,2.82781075 C2.55038192,2.80919496 2.549655,2.79201115 2.54892808,2.77267937 C2.88113192,2.5227982 3.09702808,2.12971864 3.09702808,1.68580366 C3.09702808,0.931148198 2.47550885,0.31825913 1.70933192,0.31825913" id="Fill-44"></path>
                </g>
                <g id="Group-46-Copy" transform="translate(113.000000, 7.000000)" fill="#FFFFFF">
                    <path d="M17.4780381,3.00322877 C17.327565,3.00322877 17.1589188,3.06265609 16.9728265,3.18151075 C16.3534881,3.57888626 15.7072535,3.77077209 14.9948688,3.77077209 C13.7968996,3.77077209 12.5560419,3.21731034 11.3566188,2.68103241 C10.1179419,2.12828666 8.83928423,1.55620913 7.55553808,1.55620913 C6.76464577,1.55620913 6.04571885,1.77029071 5.36095731,2.20847775 C4.97423423,2.45406298 4.636215,3.05263221 4.636215,3.49010326 L4.636215,9.89393484 C4.636215,10.2533628 4.87173808,10.3800933 5.07236885,10.3800933 C5.22138808,10.3800933 5.39148808,10.321382 5.57758038,10.2032433 C6.19401115,9.80586783 6.84242654,9.61326601 7.55553808,9.61326601 C8.75423423,9.61326601 9.99291115,10.1674437 11.1930612,10.7030057 C12.432465,11.2543195 13.7103958,11.826397 14.993415,11.826397 C15.7857612,11.826397 16.5039612,11.6137474 17.1872688,11.1741284 C17.5747188,10.9285431 17.9141919,10.3299739 17.9141919,9.89393484 L17.9141919,3.49010326 C17.9141919,3.13139132 17.6779419,3.00322877 17.4780381,3.00322877" id="Fill-42"></path>
                    <path d="M1.70933192,0.31825913 C0.944608846,0.31825913 0.321635769,0.931148198 0.321635769,1.68580366 C0.321635769,2.12971864 0.537531923,2.5227982 0.871189615,2.77267937 C0.871189615,2.79201115 0.868281923,2.80919496 0.868281923,2.82781075 L0.868281923,17.0194863 C0.868281923,17.4755731 1.24410115,17.8457409 1.70569731,17.8457409 L1.71296654,17.8457409 C2.17383577,17.8457409 2.55038192,17.4755731 2.55038192,17.0194863 L2.55038192,2.82781075 C2.55038192,2.80919496 2.549655,2.79201115 2.54892808,2.77267937 C2.88113192,2.5227982 3.09702808,2.12971864 3.09702808,1.68580366 C3.09702808,0.931148198 2.47550885,0.31825913 1.70933192,0.31825913" id="Fill-44"></path>
                </g>
                <g id="Page-1" transform="translate(67.000000, 6.000000)">
                    <mask id="mask-2" fill="white">
                        <use xlink:href="#path-1"></use>
                    </mask>
                    <g id="Clip-2"></g>
                    <path d="M10.9781633,9.18638864 C11.5275865,9.18638864 12.044268,9.398811 12.4339752,9.78452529 C12.4906744,9.83962733 12.5681366,9.86757764 12.6455989,9.87077196 C12.725457,9.8691748 12.7997249,9.83643301 12.8556256,9.78053239 C12.9833984,9.64876664 13.1055812,9.5569299 13.2932476,9.4515173 C13.3866815,9.398811 13.4441792,9.30058563 13.4441792,9.1919787 L13.4441792,5.77645075 C13.4441792,5.09446318 12.8907631,4.54024845 12.2071783,4.54024845 L8.95695652,4.54024845 C8.90824312,4.46278616 8.85873114,4.39410825 8.80602484,4.32862467 C9.18295475,3.85826087 9.38818988,3.27689441 9.38818988,2.66598048 C9.38818988,1.19579414 8.19271517,0.000319432121 6.72252884,0.000319432121 C5.2523425,0.000319432121 4.05686779,1.19579414 4.05686779,2.66598048 C4.05686779,3.27849157 4.26210293,3.85985803 4.64142857,4.33102041 C4.58712511,4.39810115 4.53681455,4.46757764 4.48969831,4.54024845 L1.23787933,4.54024845 C0.554294587,4.54024845 7.98580295e-05,5.09446318 7.98580295e-05,5.77645075 L7.98580295e-05,9.1919787 C7.98580295e-05,9.30617569 0.0647648625,9.40440106 0.158198758,9.45471162 C0.311526176,9.54175688 0.45447205,9.64876664 0.582244898,9.77334516 C0.698837622,9.88674357 0.884108252,9.88594499 0.999103815,9.77094942 C1.37603372,9.39401952 1.89750665,9.18638864 2.46689441,9.18638864 C3.60966282,9.18638864 4.54000887,10.1159361 4.54000887,11.2587045 C4.54000887,12.4014729 3.60966282,13.331819 2.46689441,13.331819 C1.91747116,13.331819 1.40078971,13.118598 1.01108252,12.7328838 C0.954383319,12.6777817 0.87771961,12.6458385 0.79945874,12.6474357 C0.71960071,12.6482343 0.645332742,12.680976 0.589432121,12.7368767 C0.461659272,12.8686424 0.339476486,12.9620763 0.151011535,13.0658917 C0.0583762201,13.118598 7.98580295e-05,13.217622 7.98580295e-05,13.3254303 L7.98580295e-05,16.7473469 C7.98580295e-05,17.4293345 0.554294587,17.9843478 1.23787933,17.9843478 L12.2071783,17.9843478 C12.8907631,17.9843478 13.4441792,17.4293345 13.4441792,16.7473469 L13.4441792,13.3254303 C13.4441792,13.217622 13.3866815,13.1193966 13.2932476,13.0658917 C13.1574889,12.9900266 13.0289175,12.8981899 12.9131233,12.7919787 C12.8787844,12.7288909 12.8212866,12.6785803 12.750213,12.6538243 C12.6424046,12.6170896 12.5242147,12.6442413 12.4435581,12.7240994 C12.0514552,13.1162023 11.5307808,13.331819 10.9781633,13.331819 C9.83459627,13.331819 8.9050488,12.4014729 8.9050488,11.2587045 C8.9050488,10.1159361 9.83459627,9.18638864 10.9781633,9.18638864" id="Fill-1" fill="#FFFFFF" mask="url(#mask-2)"></path>
                </g>
                <use id="Combined-Shape" stroke="#CECECE" mask="url(#mask-4)" stroke-width="2" fill="#FFFFFF" xlink:href="#path-3"></use>
                <g id="Group-7" transform="translate(22.000000, 52.000000)">
                    <g id="Group-6">
                        <path d="M17.008,6.616 L19.852,1.312 L18.712,1.312 L16.492,5.548 L16.468,5.548 L14.188,1.312 L12.94,1.312 L15.904,6.64 L15.904,10 L17.008,10 L17.008,6.616 Z M22.3453333,10.144 C24.4213333,10.144 25.2613333,8.824 25.2613333,6.796 C25.2613333,4.96 24.4573333,3.7 22.5013333,3.7 C20.5333333,3.7 19.5013333,4.948 19.5013333,6.94 C19.5013333,8.764 20.2093333,10.144 22.3453333,10.144 L22.3453333,10.144 Z M22.4053333,9.268 C21.2053333,9.268 20.6293333,8.524 20.6293333,6.892 C20.6293333,5.248 21.3613333,4.6 22.4533333,4.6 C23.5213333,4.6 24.1213333,5.164 24.1213333,6.868 C24.1213333,8.62 23.4733333,9.268 22.4053333,9.268 L22.4053333,9.268 Z M26.8306667,8.02 C26.8306667,9.4 27.4066667,10.12 28.7146667,10.12 C29.5666667,10.12 30.2986667,9.784 30.8986667,9.292 L30.9706667,10 L31.9186667,10 L31.9186667,3.832 L30.8266667,3.832 L30.8266667,8.416 C30.5026667,8.716 29.7466667,9.172 29.0386667,9.172 C28.1266667,9.172 27.9226667,8.704 27.9226667,7.852 L27.9226667,3.832 L26.8306667,3.832 L26.8306667,8.02 Z M33.176,3.412 L34.004,3.52 L34.988,0.796 L33.812,0.796 L33.176,3.412 Z M38.9573333,3.712 C38.8853333,3.712 38.8013333,3.7 38.7293333,3.7 C37.8653333,3.7 37.2173333,3.988 36.6773333,4.72 L36.5933333,3.832 L35.6813333,3.832 L35.6813333,10 L36.7733333,10 L36.7733333,5.512 C37.2773333,5.044 38.1893333,4.732 38.9573333,4.84 L38.9573333,3.712 Z M42.3746667,10.144 C43.6106667,10.144 44.5706667,9.556 44.8226667,8.356 L43.8626667,8.14 C43.6946667,8.836 43.2866667,9.232 42.4106667,9.232 C41.4266667,9.232 40.7306667,8.74 40.6826667,7.168 L44.8346667,7.168 C44.8706667,6.88 44.8826667,6.604 44.8826667,6.364 C44.8826667,4.84 44.1626667,3.7 42.4346667,3.7 C40.8506667,3.7 39.5306667,4.672 39.5306667,6.928 C39.5306667,8.62 40.1906667,10.144 42.3746667,10.144 L42.3746667,10.144 Z M40.6946667,6.304 C40.7546667,5.08 41.5466667,4.588 42.3626667,4.588 C43.3346667,4.588 43.7546667,5.2 43.7546667,6.304 L40.6946667,6.304 Z" id="You’re" fill="#252525"></path>
                        <g id="x-copy" transform="translate(0.000000, 2.000000)" stroke-width="2" stroke="#E8522C">
                            <g id="Group">
                                <path d="M7.63636364,0.363636364 L0.363636364,7.63636364" id="Shape"></path>
                                <path d="M7.63636364,7.63636364 L0.363636364,0.363636364" id="Shape"></path>
                            </g>
                        </g>
                    </g>
                    <g id="Group-3" transform="translate(65.000000, 1.000000)">
                        <path d="M18.008,5.616 L20.852,0.312 L19.712,0.312 L17.492,4.548 L17.468,4.548 L15.188,0.312 L13.94,0.312 L16.904,5.64 L16.904,9 L18.008,9 L18.008,5.616 Z M23.3453333,9.144 C25.4213333,9.144 26.2613333,7.824 26.2613333,5.796 C26.2613333,3.96 25.4573333,2.7 23.5013333,2.7 C21.5333333,2.7 20.5013333,3.948 20.5013333,5.94 C20.5013333,7.764 21.2093333,9.144 23.3453333,9.144 L23.3453333,9.144 Z M23.4053333,8.268 C22.2053333,8.268 21.6293333,7.524 21.6293333,5.892 C21.6293333,4.248 22.3613333,3.6 23.4533333,3.6 C24.5213333,3.6 25.1213333,4.164 25.1213333,5.868 C25.1213333,7.62 24.4733333,8.268 23.4053333,8.268 L23.4053333,8.268 Z M27.8306667,7.02 C27.8306667,8.4 28.4066667,9.12 29.7146667,9.12 C30.5666667,9.12 31.2986667,8.784 31.8986667,8.292 L31.9706667,9 L32.9186667,9 L32.9186667,2.832 L31.8266667,2.832 L31.8266667,7.416 C31.5026667,7.716 30.7466667,8.172 30.0386667,8.172 C29.1266667,8.172 28.9226667,7.704 28.9226667,6.852 L28.9226667,2.832 L27.8306667,2.832 L27.8306667,7.02 Z M38.136,2.712 C38.064,2.712 37.98,2.7 37.908,2.7 C37.044,2.7 36.396,2.988 35.856,3.72 L35.772,2.832 L34.86,2.832 L34.86,9 L35.952,9 L35.952,4.512 C36.456,4.044 37.368,3.732 38.136,3.84 L38.136,2.712 Z" id="Your" fill="#252525"></path>
                        <g id="check-copy" stroke-width="2" stroke="#58B146">
                            <g id="Group">
                                <polyline id="Shape" points="0.424242424 4 3.25252525 7.63636364 8.90909091 0.363636364"></polyline>
                            </g>
                        </g>
                    </g>
                </g>
            </g>
        </g>
    </g>
</svg>