<svg xmlns="http://www.w3.org/2000/svg" width="447" height="224" viewBox="0 0 447 224">
    <g fill="none" fill-rule="evenodd">
        <path fill="#F8F6F6" d="M0 0H447V224H0z"/>
        <path fill="#9B9B9B" fill-rule="nonzero" d="M31 26c1.66 0 2.99-1.34 2.99-3s-1.33-3-2.99-3c-1.66 0-3 1.34-3 3s1.34 3 3 3zm0 2c-2.33 0-7 1.17-7 3.5V34h14v-2.5c0-2.33-4.67-3.5-7-3.5z"/>
        <path fill="#3F3F3F" fill-rule="nonzero" d="M46.34 31v-7.248h.024L48.704 31h1.368l2.388-7.224h.036V31h1.308v-8.688h-2.088l-2.256 6.984h-.036l-2.268-6.984h-2.112V31h1.296zm10.908.144c.864 0 1.548-.3 1.968-.756.108.48.396.732 1.044.732.336 0 .732-.084.972-.204l-.048-.816c-.156.048-.264.072-.372.072-.312 0-.372-.144-.372-.48v-2.868c0-1.548-.744-2.16-2.328-2.16-1.524 0-2.268.624-2.46 1.788l1.212.216c.132-.648.384-.96 1.14-.96.912 0 1.08.432 1.08 1.188v.468c-.168-.012-.348-.024-.636-.024-1.668 0-3.036.528-3.036 2.136 0 .612.276 1.668 1.836 1.668zm.492-1.032c-.732 0-.924-.396-.924-.828 0-.912 1.008-.996 1.704-.996.312 0 .456.012.576.024v1.224c-.276.288-.792.576-1.356.576zm4.956 3.564c1.104 0 1.656-.516 2.16-1.884.804-2.136 1.764-4.716 2.592-6.996h-1.416l-1.524 4.656h-.012l-1.524-4.656h-1.488l2.328 6.3-.252.648c-.252.636-.588.852-1.008.852-.3 0-.708-.096-.972-.192l-.132 1.032c.252.12.78.24 1.248.24zm7.176-2.532c.864 0 1.548-.3 1.968-.756.108.48.396.732 1.044.732.336 0 .732-.084.972-.204l-.048-.816c-.156.048-.264.072-.372.072-.312 0-.372-.144-.372-.48v-2.868c0-1.548-.744-2.16-2.328-2.16-1.524 0-2.268.624-2.46 1.788l1.212.216c.132-.648.384-.96 1.14-.96.912 0 1.08.432 1.08 1.188v.468c-.168-.012-.348-.024-.636-.024-1.668 0-3.036.528-3.036 2.136 0 .612.276 1.668 1.836 1.668zm.492-1.032c-.732 0-.924-.396-.924-.828 0-.912 1.008-.996 1.704-.996.312 0 .456.012.576.024v1.224c-.276.288-.792.576-1.356.576zM78.2 31l.792-2.376h3.156L82.964 31H84.5l-3.048-8.688h-1.788L76.772 31H78.2zm3.624-3.552h-2.556l1.272-3.84h.024l1.26 3.84zM87.032 31v-4.524c.3-.276.948-.66 1.572-.66.732 0 1.02.408 1.02 1.188V31h1.38v-4.224c0-1.404-.576-2.112-1.92-2.112-.852 0-1.596.336-2.148.78l-.06-.648h-1.224V31h1.38zm7.956 2.712c1.656 0 3.216-.504 3.216-2.124 0-1.14-.768-1.536-2.064-1.62l-1.764-.108c-.528-.036-.636-.192-.636-.408 0-.18.144-.348.3-.468.324.096.648.12 1.056.12 1.5 0 2.616-.816 2.616-2.22 0-.504-.156-.996-.48-1.368.324-.096.696-.144 1.08-.12v-1.02c-.18-.06-.288-.072-.492-.072-.456 0-.816.348-1.032.852-.42-.36-1.02-.492-1.74-.492-1.668 0-2.676.948-2.676 2.292 0 .792.36 1.404.912 1.716-.456.348-.876.708-.876 1.272 0 .48.276.78.732.936v.036c-.576.192-1.032.6-1.032 1.248 0 .78.576 1.548 2.88 1.548zm.084-5.676c-.96 0-1.356-.444-1.356-1.164 0-.804.588-1.14 1.368-1.14.828 0 1.332.384 1.332 1.164 0 .708-.552 1.14-1.344 1.14zm.048 4.632c-1.164 0-1.68-.228-1.68-.732 0-.336.18-.576.504-.804l1.908.096c.756.036.936.252.936.636 0 .564-.588.804-1.668.804zm6.78-1.524c1.344 0 2.292-.672 2.532-1.848l-1.176-.288c-.144.636-.48 1.008-1.272 1.008-.9 0-1.524-.468-1.56-1.776h4.02c.024-.288.036-.576.036-.828 0-1.608-.744-2.748-2.544-2.748-1.62 0-2.964.996-2.964 3.24 0 1.704.696 3.24 2.928 3.24zm1.152-3.864h-2.604c.06-1.104.708-1.524 1.404-1.524.828 0 1.2.468 1.2 1.524zm4.224 3.72v-9.06h-1.38V31h1.38zm4.272.144c2.136 0 3.024-1.32 3.024-3.36 0-1.836-.816-3.12-2.868-3.12s-3.084 1.272-3.084 3.264c0 1.848.744 3.216 2.928 3.216zm.072-1.068c-1.08 0-1.56-.684-1.56-2.196s.612-2.1 1.596-2.1c.972 0 1.476.528 1.476 2.076 0 1.596-.564 2.22-1.512 2.22zm6.18 1.056c.852 0 1.584-.324 2.124-.816l.096.684h1.2v-6.204h-1.38v4.524c-.3.276-.948.648-1.56.648-.732 0-.972-.396-.972-1.176v-3.996h-1.38v4.236c0 1.392.576 2.1 1.872 2.1z"/>
        <rect width="399" height="159" x="24" y="46" fill="#FFF" stroke="#E0E0E0" rx="6"/>
        <path fill="#3F3F3F" fill-rule="nonzero" d="M41.18 69.168c1.792 0 3.696-.826 4.046-3.122l-1.456-.28c-.294 1.288-.994 2.016-2.506 2.016-1.89 0-2.954-1.078-2.954-3.822 0-2.646 1.176-3.864 3.094-3.864 1.512 0 2.198.742 2.366 2.268l1.512-.14c-.154-2.436-1.68-3.542-3.864-3.542-3.01 0-4.788 2.058-4.788 5.39 0 3.066 1.288 5.096 4.55 5.096zm8.54 0c2.492 0 3.528-1.54 3.528-3.92 0-2.142-.952-3.64-3.346-3.64s-3.598 1.484-3.598 3.808c0 2.156.868 3.752 3.416 3.752zm.084-1.246c-1.26 0-1.82-.798-1.82-2.562 0-1.764.714-2.45 1.862-2.45 1.134 0 1.722.616 1.722 2.422 0 1.862-.658 2.59-1.764 2.59zM56.454 69v-5.32c.35-.322 1.092-.728 1.694-.728.798 0 .994.49.994 1.344V69h1.61v-4.97c0-.126 0-.266-.014-.378.35-.322 1.064-.7 1.638-.7.798 0 1.008.49 1.008 1.344V69h1.61v-4.942c0-1.624-.616-2.45-2.1-2.45-.98 0-1.792.392-2.422.938-.308-.672-.896-.938-1.82-.938-.952 0-1.708.378-2.366.896l-.056-.742h-1.386V69h1.61zm12.012 2.968v-3.5c.504.406 1.148.7 2.016.7 1.624 0 2.996-1.106 2.996-3.962 0-2.646-1.148-3.598-2.674-3.598-.952 0-1.778.322-2.422.924l-.084-.77h-1.386v10.206h1.554zm1.666-4.116c-.7 0-1.344-.42-1.624-.644v-3.514c.392-.364 1.078-.77 1.764-.77 1.022 0 1.526.644 1.526 2.31 0 1.596-.448 2.618-1.666 2.618zM76.726 69V58.43h-1.61V69h1.61zm4.984.168c1.568 0 2.674-.784 2.954-2.156l-1.372-.336c-.168.742-.56 1.176-1.484 1.176-1.05 0-1.778-.546-1.82-2.072h4.69c.028-.336.042-.672.042-.966 0-1.876-.868-3.206-2.968-3.206-1.89 0-3.458 1.162-3.458 3.78 0 1.988.812 3.78 3.416 3.78zm1.344-4.508h-3.038c.07-1.288.826-1.778 1.638-1.778.966 0 1.4.546 1.4 1.778zM87.142 69l1.666-2.59 1.75 2.59h1.736l-2.506-3.724 2.394-3.514h-1.568L88.92 64.24l-1.638-2.478h-1.75l2.422 3.542L85.546 69h1.596zm12.222.168c1.932 0 3.696-.868 3.696-3.066 0-3.668-5.418-2.268-5.418-4.718 0-.812.546-1.372 1.876-1.372 1.414 0 1.806.798 1.946 1.764l1.512-.182c-.196-2.254-1.666-2.912-3.444-2.912-2.002 0-3.528 1.064-3.528 2.898 0 3.836 5.418 2.184 5.418 4.746 0 1.204-1.022 1.54-2.03 1.54-1.638 0-2.072-.896-2.296-1.932l-1.512.224c.224 2.296 1.778 3.01 3.78 3.01zm8.274 0c1.568 0 2.674-.784 2.954-2.156l-1.372-.336c-.168.742-.56 1.176-1.484 1.176-1.05 0-1.778-.546-1.82-2.072h4.69c.028-.336.042-.672.042-.966 0-1.876-.868-3.206-2.968-3.206-1.89 0-3.458 1.162-3.458 3.78 0 1.988.812 3.78 3.416 3.78zm1.344-4.508h-3.038c.07-1.288.826-1.778 1.638-1.778.966 0 1.4.546 1.4 1.778zm4.9 4.34v-5.278c.35-.322 1.106-.77 1.834-.77.854 0 1.19.476 1.19 1.386V69h1.61v-4.928c0-1.638-.672-2.464-2.24-2.464-.994 0-1.862.392-2.506.91l-.07-.756h-1.428V69h1.61zm9.002.168c.77 0 1.554-.266 1.918-.504l-.266-1.148c-.294.168-.798.336-1.232.336-.784 0-.966-.378-.966-1.092v-3.808h1.96v-1.19h-1.96v-2.338l-1.61.224v2.114h-1.106v1.19h1.106v4.032c0 1.54.728 2.184 2.156 2.184zm6.062 0c1.568 0 2.674-.784 2.954-2.156l-1.372-.336c-.168.742-.56 1.176-1.484 1.176-1.05 0-1.778-.546-1.82-2.072h4.69c.028-.336.042-.672.042-.966 0-1.876-.868-3.206-2.968-3.206-1.89 0-3.458 1.162-3.458 3.78 0 1.988.812 3.78 3.416 3.78zm1.344-4.508h-3.038c.07-1.288.826-1.778 1.638-1.778.966 0 1.4.546 1.4 1.778zm4.9 4.34v-5.278c.35-.322 1.106-.77 1.834-.77.854 0 1.19.476 1.19 1.386V69h1.61v-4.928c0-1.638-.672-2.464-2.24-2.464-.994 0-1.862.392-2.506.91l-.07-.756h-1.428V69h1.61zm9.548.168c1.554 0 2.842-.742 3.08-2.478l-1.4-.28c-.168 1.008-.7 1.442-1.596 1.442-1.008 0-1.792-.602-1.792-2.562 0-1.918.896-2.394 1.834-2.394.938 0 1.33.616 1.442 1.568l1.484-.21c-.126-1.708-1.26-2.646-2.856-2.646-2.268 0-3.584 1.358-3.584 3.864 0 2.156.994 3.696 3.388 3.696zm7.602 0c1.568 0 2.674-.784 2.954-2.156l-1.372-.336c-.168.742-.56 1.176-1.484 1.176-1.05 0-1.778-.546-1.82-2.072h4.69c.028-.336.042-.672.042-.966 0-1.876-.868-3.206-2.968-3.206-1.89 0-3.458 1.162-3.458 3.78 0 1.988.812 3.78 3.416 3.78zm1.344-4.508h-3.038c.07-1.288.826-1.778 1.638-1.778.966 0 1.4.546 1.4 1.778zm5.712 4.508c1.778 0 2.982-.798 2.982-2.296 0-1.652-1.33-1.946-2.576-2.17-.952-.168-1.568-.364-1.568-1.036 0-.476.364-.854 1.246-.854.938 0 1.204.504 1.372 1.218l1.4-.364c-.28-1.26-1.064-2.058-2.744-2.058-1.512 0-2.786.728-2.786 2.24 0 1.722 1.4 1.974 2.576 2.212.924.182 1.512.308 1.512 1.036 0 .616-.56.868-1.358.868-1.162 0-1.456-.602-1.638-1.288l-1.372.448c.224 1.344 1.218 2.044 2.954 2.044zM363.326 69l.852-2.58h3.336l.876 2.58h1.212l-3.024-8.688h-1.44L362.21 69h1.116zm3.912-3.528h-2.796l1.392-4.152h.012l1.392 4.152zM373.694 69l2.316-6.168h-1.116l-1.788 5.076h-.012l-1.812-5.076h-1.188L372.446 69h1.248zm5.544 2.712c1.548 0 3.168-.456 3.168-1.968 0-1.212-.744-1.524-2.016-1.608l-1.716-.12c-.66-.048-.792-.228-.792-.468 0-.252.216-.42.384-.576.312.108.696.144 1.104.144 1.416 0 2.52-.816 2.52-2.208 0-.504-.156-.996-.456-1.344.312-.096.804-.156 1.176-.132v-.876c-.18-.06-.348-.096-.54-.096-.456 0-.78.36-.972.804-.408-.408-1.032-.564-1.788-.564-1.596 0-2.616.912-2.616 2.268 0 .792.348 1.428.912 1.728-.432.336-.816.684-.816 1.212 0 .444.252.684.672.852v.012c-.504.24-.996.72-.996 1.416 0 .732.468 1.524 2.772 1.524zm.084-5.496c-1.092 0-1.536-.516-1.536-1.32 0-.948.696-1.32 1.56-1.32.924 0 1.488.42 1.488 1.344 0 .828-.612 1.296-1.512 1.296zm.048 4.632c-1.392 0-1.812-.348-1.812-.864 0-.408.216-.66.684-.972l2.004.12c.84.06 1.032.3 1.032.744 0 .648-.636.972-1.908.972zm4.692-6.252c.528 0 .816-.276.816-.804s-.288-.804-.816-.804-.816.276-.816.804c0 .54.288.804.816.804zm0 4.548c.528 0 .816-.276.816-.804s-.288-.804-.816-.804-.816.276-.816.804c0 .54.288.804.816.804zm6.276-.144l3.54-7.848v-.84h-5.472v.96h4.32L389.174 69h1.164zm6.984.144c1.776 0 2.88-1.032 2.88-2.388 0-1.356-.78-1.896-1.812-2.352 1.008-.528 1.656-1.212 1.656-2.256 0-1.236-.936-1.992-2.508-1.992-1.536 0-2.688.756-2.688 2.28 0 1.044.684 1.716 1.536 2.112-1.056.48-1.824 1.164-1.824 2.364 0 1.236.828 2.232 2.76 2.232zm.168-5.136c-.756-.384-1.524-.84-1.524-1.728 0-.78.576-1.224 1.512-1.224 1.02 0 1.464.408 1.464 1.152 0 .768-.612 1.368-1.452 1.8zm-.132 4.212c-1.224 0-1.68-.576-1.68-1.38 0-.96.684-1.428 1.548-1.836.84.312 1.836.744 1.836 1.752 0 .756-.456 1.464-1.704 1.464zm5.508-3.708c1.308 0 1.992-.924 1.992-2.268 0-1.26-.552-2.088-1.896-2.088-1.332 0-2.016.924-2.016 2.244 0 1.116.48 2.112 1.92 2.112zm.216 4.68l5.256-8.88h-.972l-5.268 8.88h.984zm-.18-5.472c-.792 0-1.008-.564-1.008-1.392 0-.72.24-1.392 1.032-1.392.78 0 .984.564.984 1.356 0 .876-.228 1.428-1.008 1.428zm4.776 5.424c1.308 0 1.992-.924 1.992-2.268 0-1.26-.552-2.088-1.896-2.088-1.332 0-2.016.924-2.016 2.244 0 1.116.48 2.112 1.92 2.112zm.036-.792c-.792 0-1.008-.564-1.008-1.392 0-.72.24-1.392 1.032-1.392.78 0 .984.564.984 1.356 0 .876-.228 1.428-1.008 1.428zM370.66 31c3.108 0 4.512-1.812 4.512-4.476 0-2.592-1.296-4.212-4.308-4.212h-2.82V31h2.616zm-.012-1.14h-1.2v-6.408h1.308c1.92 0 2.976.744 2.976 3.204 0 2.004-.936 3.204-3.084 3.204zm8.508 1.284c2.136 0 3.024-1.32 3.024-3.36 0-1.836-.816-3.12-2.868-3.12s-3.084 1.272-3.084 3.264c0 1.848.744 3.216 2.928 3.216zm.072-1.068c-1.08 0-1.56-.684-1.56-2.196s.612-2.1 1.596-2.1c.972 0 1.476.528 1.476 2.076 0 1.596-.564 2.22-1.512 2.22zm7.032.924l1.116-4.548h.024L388.564 31h1.584l1.896-6.204H390.7l-1.32 4.752h-.012l-1.248-4.752h-1.392l-1.248 4.776h-.012l-1.356-4.776h-1.392L384.616 31h1.644zm8.04 0v-4.524c.3-.276.948-.66 1.572-.66.732 0 1.02.408 1.02 1.188V31h1.38v-4.224c0-1.404-.576-2.112-1.92-2.112-.852 0-1.596.336-2.148.78l-.06-.648h-1.224V31h1.38zm7.02 0v-9.06h-1.38V31h1.38zm4.272.144c2.136 0 3.024-1.32 3.024-3.36 0-1.836-.816-3.12-2.868-3.12s-3.084 1.272-3.084 3.264c0 1.848.744 3.216 2.928 3.216zm.072-1.068c-1.08 0-1.56-.684-1.56-2.196s.612-2.1 1.596-2.1c.972 0 1.476.528 1.476 2.076 0 1.596-.564 2.22-1.512 2.22zm5.868 1.068c.864 0 1.548-.3 1.968-.756.108.48.396.732 1.044.732.336 0 .732-.084.972-.204l-.048-.816c-.156.048-.264.072-.372.072-.312 0-.372-.144-.372-.48v-2.868c0-1.548-.744-2.16-2.328-2.16-1.524 0-2.268.624-2.46 1.788l1.212.216c.132-.648.384-.96 1.14-.96.912 0 1.08.432 1.08 1.188v.468c-.168-.012-.348-.024-.636-.024-1.668 0-3.036.528-3.036 2.136 0 .612.276 1.668 1.836 1.668zm.492-1.032c-.732 0-.924-.396-.924-.828 0-.912 1.008-.996 1.704-.996.312 0 .456.012.576.024v1.224c-.276.288-.792.576-1.356.576zm6.648 1.032c.852 0 1.464-.3 1.956-.768h.024l.096.624h1.152v-9.06h-1.344v3.264c-.42-.36-.96-.54-1.668-.54-1.344 0-2.616.876-2.616 3.336 0 2.244.972 3.144 2.4 3.144zm.444-1.116c-.996 0-1.416-.696-1.416-2.04 0-1.296.396-2.196 1.476-2.196.588 0 1.08.276 1.344.48v3.12c-.336.348-.876.636-1.404.636zM37.548 125l.852-2.58h3.336l.876 2.58h1.212l-3.024-8.688h-1.44L36.432 125h1.116zm3.912-3.528h-2.796l1.392-4.152h.012l1.392 4.152zm9.372 3.672c.576 0 1.212-.204 1.512-.408l-.204-.792c-.252.144-.696.3-1.068.3-.744 0-.888-.36-.888-1.008v-3.528h1.692v-.876h-1.692v-1.956l-1.092.168v1.788H46.44v-1.044c0-.828.372-1.068.912-1.068.276 0 .6.06.852.144l.048-.84c-.204-.096-.624-.204-1.104-.204-1.152 0-1.8.66-1.8 2.016v.996h-.912v.876h.912V125h1.092v-5.292h2.652v3.672c0 1.236.576 1.764 1.74 1.764zm5.076 0c1.236 0 2.196-.588 2.448-1.788l-.96-.216c-.168.696-.576 1.092-1.452 1.092-.984 0-1.68-.492-1.728-2.064h4.152c.036-.288.048-.564.048-.804 0-1.524-.72-2.664-2.448-2.664-1.584 0-2.904.972-2.904 3.228 0 1.692.66 3.216 2.844 3.216zm1.38-3.84h-3.06c.06-1.224.852-1.716 1.668-1.716.972 0 1.392.612 1.392 1.716zM61.092 125v-4.488c.504-.468 1.416-.78 2.184-.672v-1.128l-.228-.012c-.864 0-1.512.288-2.052 1.02l-.084-.888H60V125h1.092zm3.348 1.548l1.008-2.82h-1.212l-.672 2.712.876.108zM72.468 125c1.884 0 3.216-.576 3.216-2.352 0-1.2-.66-1.968-2.076-2.148v-.024c.948-.216 1.728-.816 1.728-2.04 0-1.188-.564-2.124-2.616-2.124h-2.988V125h2.736zm-.384-4.884h-1.26v-2.892h1.584c1.188 0 1.812.288 1.812 1.368 0 1.26-1.188 1.524-2.136 1.524zm.228 3.96h-1.488v-3.048h1.728c1.104 0 1.968.396 1.968 1.548 0 1.308-.948 1.5-2.208 1.5zm7.236 1.068c1.236 0 2.196-.588 2.448-1.788l-.96-.216c-.168.696-.576 1.092-1.452 1.092-.984 0-1.68-.492-1.728-2.064h4.152c.036-.288.048-.564.048-.804 0-1.524-.72-2.664-2.448-2.664-1.584 0-2.904.972-2.904 3.228 0 1.692.66 3.216 2.844 3.216zm1.38-3.84h-3.06c.06-1.224.852-1.716 1.668-1.716.972 0 1.392.612 1.392 1.716zM84.864 125v-5.292h1.716v-.876h-1.716V117.8c0-.864.396-1.092.96-1.092.288 0 .624.072.864.156l.048-.84c-.204-.096-.624-.204-1.128-.204-1.176 0-1.836.66-1.836 2.016v.996h-.912v.876h.912V125h1.092zm5.16.144c2.076 0 2.916-1.32 2.916-3.348 0-1.836-.804-3.096-2.76-3.096-1.968 0-3 1.248-3 3.24 0 1.824.708 3.204 2.844 3.204zm.06-.876c-1.2 0-1.776-.744-1.776-2.376 0-1.644.732-2.292 1.824-2.292 1.068 0 1.668.564 1.668 2.268 0 1.752-.648 2.4-1.716 2.4zm5.508.732v-4.488c.504-.468 1.416-.78 2.184-.672v-1.128c-.072 0-.156-.012-.228-.012-.864 0-1.512.288-2.052 1.02l-.084-.888H94.5V125h1.092zm5.736.144c1.236 0 2.196-.588 2.448-1.788l-.96-.216c-.168.696-.576 1.092-1.452 1.092-.984 0-1.68-.492-1.728-2.064h4.152c.036-.288.048-.564.048-.804 0-1.524-.72-2.664-2.448-2.664-1.584 0-2.904.972-2.904 3.228 0 1.692.66 3.216 2.844 3.216zm1.38-3.84h-3.06c.06-1.224.852-1.716 1.668-1.716.972 0 1.392.612 1.392 1.716zM37.548 158l.852-2.58h3.336l.876 2.58h1.212l-3.024-8.688h-1.44L36.432 158h1.116zm3.912-3.528h-2.796l1.392-4.152h.012l1.392 4.152zm5.712 3.672c1.5 0 2.412-.696 2.412-1.872 0-1.38-1.068-1.608-2.196-1.848-.864-.18-1.368-.36-1.368-.996 0-.468.288-.864 1.188-.864.9 0 1.14.432 1.284 1.14l.984-.216c-.192-1.092-.792-1.788-2.256-1.788-1.248 0-2.28.612-2.28 1.86 0 1.44 1.212 1.656 2.22 1.86.84.168 1.344.288 1.344.972 0 .66-.54.888-1.284.888-1.092 0-1.368-.528-1.536-1.188l-.972.264c.192 1.236 1.044 1.788 2.46 1.788zM54.72 158v-9.06h-1.092V158h1.092zm4.356.144c2.076 0 2.916-1.32 2.916-3.348 0-1.836-.804-3.096-2.76-3.096-1.968 0-3 1.248-3 3.24 0 1.824.708 3.204 2.844 3.204zm.06-.876c-1.2 0-1.776-.744-1.776-2.376 0-1.644.732-2.292 1.824-2.292 1.068 0 1.668.564 1.668 2.268 0 1.752-.648 2.4-1.716 2.4zm5.508.732v-4.596c.324-.288 1.092-.744 1.8-.744.84 0 1.152.468 1.152 1.32V158h1.092v-4.188c0-1.392-.576-2.112-1.896-2.112-.852 0-1.62.384-2.22.864l-.06-.732h-.96V158h1.092zm8.076 2.712c1.548 0 3.168-.456 3.168-1.968 0-1.212-.744-1.524-2.016-1.608l-1.716-.12c-.66-.048-.792-.228-.792-.468 0-.252.216-.42.384-.576.312.108.696.144 1.104.144 1.416 0 2.52-.816 2.52-2.208 0-.504-.156-.996-.456-1.344.312-.096.804-.156 1.176-.132v-.876c-.18-.06-.348-.096-.54-.096-.456 0-.78.36-.972.804-.408-.408-1.032-.564-1.788-.564-1.596 0-2.616.912-2.616 2.268 0 .792.348 1.428.912 1.728-.432.336-.816.684-.816 1.212 0 .444.252.684.672.852v.012c-.504.24-.996.72-.996 1.416 0 .732.468 1.524 2.772 1.524zm.084-5.496c-1.092 0-1.536-.516-1.536-1.32 0-.948.696-1.32 1.56-1.32.924 0 1.488.42 1.488 1.344 0 .828-.612 1.296-1.512 1.296zm.048 4.632c-1.392 0-1.812-.348-1.812-.864 0-.408.216-.66.684-.972l2.004.12c.84.06 1.032.3 1.032.744 0 .648-.636.972-1.908.972zm8.4-1.704c.864 0 1.5-.276 1.98-.756.06.396.336.732.948.732.3 0 .612-.072.852-.192l-.048-.684c-.156.048-.264.072-.372.072-.312 0-.372-.144-.372-.48v-3.012c0-1.536-.684-2.124-2.208-2.124-1.428 0-2.172.54-2.364 1.692l.96.18c.132-.684.456-1.02 1.308-1.02 1.008 0 1.224.48 1.224 1.26v.6c-.168-.012-.348-.024-.54-.024-1.74 0-3.192.456-3.192 2.1 0 .6.264 1.656 1.824 1.656zm.336-.852c-.84 0-1.032-.456-1.032-.984 0-1.056 1.14-1.14 1.992-1.14.228 0 .456.012.624.036v1.392c-.336.36-.948.696-1.584.696zm6.636.852c1.5 0 2.412-.696 2.412-1.872 0-1.38-1.068-1.608-2.196-1.848-.864-.18-1.368-.36-1.368-.996 0-.468.288-.864 1.188-.864.9 0 1.14.432 1.284 1.14l.984-.216c-.192-1.092-.792-1.788-2.256-1.788-1.248 0-2.28.612-2.28 1.86 0 1.44 1.212 1.656 2.22 1.86.84.168 1.344.288 1.344.972 0 .66-.54.888-1.284.888-1.092 0-1.368-.528-1.536-1.188l-.972.264c.192 1.236 1.044 1.788 2.46 1.788zm3.96 1.404l1.008-2.82H91.98l-.672 2.712.876.108zM98.58 158v-8.688h-1.104V158h1.104zm3.348 0v-5.292h1.716v-.876h-1.716V150.8c0-.864.396-1.092.96-1.092.288 0 .624.072.864.156l.048-.84c-.204-.096-.624-.204-1.128-.204-1.176 0-1.836.66-1.836 2.016v.996h-.912v.876h.912V158h1.092zm2.772 1.548l1.008-2.82h-1.212l-.672 2.712.876.108zm8.388-1.404c2.052 0 3.228-.972 3.228-3.06v-5.772h-1.092v5.676c0 1.632-.696 2.196-2.088 2.196-1.38 0-2.112-.624-2.112-2.232v-5.64h-1.104v5.748c0 2.028.936 3.084 3.168 3.084zm6.384-.144v-4.596c.324-.288 1.092-.744 1.8-.744.84 0 1.152.468 1.152 1.32V158h1.092v-4.188c0-1.392-.576-2.112-1.896-2.112-.852 0-1.62.384-2.22.864l-.06-.732h-.96V158h1.092zm6.984 0v-9.06h-1.092V158h1.092zm4.356.144c1.236 0 2.196-.588 2.448-1.788l-.96-.216c-.168.696-.576 1.092-1.452 1.092-.984 0-1.68-.492-1.728-2.064h4.152c.036-.288.048-.564.048-.804 0-1.524-.72-2.664-2.448-2.664-1.584 0-2.904.972-2.904 3.228 0 1.692.66 3.216 2.844 3.216zm1.38-3.84h-3.06c.06-1.224.852-1.716 1.668-1.716.972 0 1.392.612 1.392 1.716zm4.668 3.84c1.5 0 2.412-.696 2.412-1.872 0-1.38-1.068-1.608-2.196-1.848-.864-.18-1.368-.36-1.368-.996 0-.468.288-.864 1.188-.864.9 0 1.14.432 1.284 1.14l.984-.216c-.192-1.092-.792-1.788-2.256-1.788-1.248 0-2.28.612-2.28 1.86 0 1.44 1.212 1.656 2.22 1.86.84.168 1.344.288 1.344.972 0 .66-.54.888-1.284.888-1.092 0-1.368-.528-1.536-1.188l-.972.264c.192 1.236 1.044 1.788 2.46 1.788zm5.844 0c1.5 0 2.412-.696 2.412-1.872 0-1.38-1.068-1.608-2.196-1.848-.864-.18-1.368-.36-1.368-.996 0-.468.288-.864 1.188-.864.9 0 1.14.432 1.284 1.14l.984-.216c-.192-1.092-.792-1.788-2.256-1.788-1.248 0-2.28.612-2.28 1.86 0 1.44 1.212 1.656 2.22 1.86.84.168 1.344.288 1.344.972 0 .66-.54.888-1.284.888-1.092 0-1.368-.528-1.536-1.188l-.972.264c.192 1.236 1.044 1.788 2.46 1.788zM39.432 193.144c1.608 0 3.072-.72 3.072-2.556 0-1.68-1.38-2.088-2.652-2.46-1.08-.324-2.076-.624-2.076-1.68 0-.768.48-1.356 1.812-1.356 1.344 0 1.68.804 1.812 1.632l1.032-.12c-.18-1.86-1.332-2.448-2.856-2.448-1.68 0-2.928.912-2.928 2.4 0 1.788 1.404 2.16 2.688 2.52 1.068.3 2.04.588 2.04 1.668 0 1.152-.996 1.464-1.932 1.464-1.488 0-1.92-.804-2.124-1.728l-1.056.156c.228 1.788 1.356 2.508 3.168 2.508zm5.1-7.5c.492 0 .78-.288.78-.792s-.288-.78-.78-.78c-.492 0-.768.276-.768.78s.276.792.768.792zM45.06 193v-6.168h-1.092V193h1.092zm2.988 0v-4.596c.324-.288 1.092-.744 1.8-.744.84 0 1.152.468 1.152 1.32V193h1.092v-4.188c0-1.392-.576-2.112-1.896-2.112-.852 0-1.62.384-2.22.864l-.06-.732h-.96V193h1.092zm8.34.144c1.236 0 2.328-.6 2.532-2.028l-.96-.204c-.156.912-.696 1.32-1.536 1.32-.984 0-1.728-.552-1.728-2.388 0-1.752.876-2.232 1.764-2.232.864 0 1.284.468 1.38 1.38l1.044-.144c-.084-1.428-.996-2.148-2.376-2.148-1.848 0-2.952 1.128-2.952 3.276 0 1.848.792 3.168 2.832 3.168zm6.468 0c1.236 0 2.196-.588 2.448-1.788l-.96-.216c-.168.696-.576 1.092-1.452 1.092-.984 0-1.68-.492-1.728-2.064h4.152c.036-.288.048-.564.048-.804 0-1.524-.72-2.664-2.448-2.664-1.584 0-2.904.972-2.904 3.228 0 1.692.66 3.216 2.844 3.216zm1.38-3.84h-3.06c.06-1.224.852-1.716 1.668-1.716.972 0 1.392.612 1.392 1.716zm2.784 5.244l1.008-2.82h-1.212l-.672 2.712.876.108zM75.048 193c1.884 0 3.216-.576 3.216-2.352 0-1.2-.66-1.968-2.076-2.148v-.024c.948-.216 1.728-.816 1.728-2.04 0-1.188-.564-2.124-2.616-2.124h-2.988V193h2.736zm-.384-4.884h-1.26v-2.892h1.584c1.188 0 1.812.288 1.812 1.368 0 1.26-1.188 1.524-2.136 1.524zm.228 3.96h-1.488v-3.048h1.728c1.104 0 1.968.396 1.968 1.548 0 1.308-.948 1.5-2.208 1.5zm7.236 1.068c1.236 0 2.196-.588 2.448-1.788l-.96-.216c-.168.696-.576 1.092-1.452 1.092-.984 0-1.68-.492-1.728-2.064h4.152c.036-.288.048-.564.048-.804 0-1.524-.72-2.664-2.448-2.664-1.584 0-2.904.972-2.904 3.228 0 1.692.66 3.216 2.844 3.216zm1.38-3.84h-3.06c.06-1.224.852-1.716 1.668-1.716.972 0 1.392.612 1.392 1.716zm5.16 3.84c1.236 0 2.328-.6 2.532-2.028l-.96-.204c-.156.912-.696 1.32-1.536 1.32-.984 0-1.728-.552-1.728-2.388 0-1.752.876-2.232 1.764-2.232.864 0 1.284.468 1.38 1.38l1.044-.144c-.084-1.428-.996-2.148-2.376-2.148-1.848 0-2.952 1.128-2.952 3.276 0 1.848.792 3.168 2.832 3.168zm5.532 0c.864 0 1.5-.276 1.98-.756.06.396.336.732.948.732.3 0 .612-.072.852-.192l-.048-.684c-.156.048-.264.072-.372.072-.312 0-.372-.144-.372-.48v-3.012c0-1.536-.684-2.124-2.208-2.124-1.428 0-2.172.54-2.364 1.692l.96.18c.132-.684.456-1.02 1.308-1.02 1.008 0 1.224.48 1.224 1.26v.6c-.168-.012-.348-.024-.54-.024-1.74 0-3.192.456-3.192 2.1 0 .6.264 1.656 1.824 1.656zm.336-.852c-.84 0-1.032-.456-1.032-.984 0-1.056 1.14-1.14 1.992-1.14.228 0 .456.012.624.036v1.392c-.336.36-.948.696-1.584.696zm6.54.828c.852 0 1.584-.336 2.184-.828l.072.708h.948v-6.168h-1.092v4.584c-.324.3-1.08.756-1.788.756-.912 0-1.116-.468-1.116-1.32v-4.02h-1.092v4.188c0 1.38.576 2.1 1.884 2.1zm7.068.024c1.5 0 2.412-.696 2.412-1.872 0-1.38-1.068-1.608-2.196-1.848-.864-.18-1.368-.36-1.368-.996 0-.468.288-.864 1.188-.864.9 0 1.14.432 1.284 1.14l.984-.216c-.192-1.092-.792-1.788-2.256-1.788-1.248 0-2.28.612-2.28 1.86 0 1.44 1.212 1.656 2.22 1.86.84.168 1.344.288 1.344.972 0 .66-.54.888-1.284.888-1.092 0-1.368-.528-1.536-1.188l-.972.264c.192 1.236 1.044 1.788 2.46 1.788zm6.348 0c1.236 0 2.196-.588 2.448-1.788l-.96-.216c-.168.696-.576 1.092-1.452 1.092-.984 0-1.68-.492-1.728-2.064h4.152c.036-.288.048-.564.048-.804 0-1.524-.72-2.664-2.448-2.664-1.584 0-2.904.972-2.904 3.228 0 1.692.66 3.216 2.844 3.216zm1.38-3.84h-3.06c.06-1.224.852-1.716 1.668-1.716.972 0 1.392.612 1.392 1.716zM390.816 125l3.54-7.848v-.84h-5.472v.96h4.32L389.652 125h1.164zm6.792.144c2.592 0 3.084-2.484 3.084-4.776 0-2.268-.48-4.212-2.724-4.212-1.62 0-2.76 1.044-2.76 2.928 0 1.596.768 2.592 2.292 2.592.912 0 1.728-.456 2.136-.912-.036 1.848-.48 3.48-1.968 3.48-.78 0-1.284-.324-1.512-1.284l-.984.288c.264 1.392 1.224 1.896 2.436 1.896zm.108-4.38c-.948 0-1.416-.6-1.416-1.716 0-1.368.672-1.992 1.584-1.992 1.428 0 1.632 1.452 1.692 2.76-.444.528-1.14.948-1.86.948zm5.928-.252c1.308 0 1.992-.924 1.992-2.268 0-1.26-.552-2.088-1.896-2.088-1.332 0-2.016.924-2.016 2.244 0 1.116.48 2.112 1.92 2.112zm.216 4.68l5.256-8.88h-.972l-5.268 8.88h.984zm-.18-5.472c-.792 0-1.008-.564-1.008-1.392 0-.72.24-1.392 1.032-1.392.78 0 .984.564.984 1.356 0 .876-.228 1.428-1.008 1.428zm4.776 5.424c1.308 0 1.992-.924 1.992-2.268 0-1.26-.552-2.088-1.896-2.088-1.332 0-2.016.924-2.016 2.244 0 1.116.48 2.112 1.92 2.112zm.036-.792c-.792 0-1.008-.564-1.008-1.392 0-.72.24-1.392 1.032-1.392.78 0 .984.564.984 1.356 0 .876-.228 1.428-1.008 1.428zM391.128 158.144c2.592 0 3.084-2.484 3.084-4.776 0-2.268-.48-4.212-2.724-4.212-1.62 0-2.76 1.044-2.76 2.928 0 1.596.768 2.592 2.292 2.592.912 0 1.728-.456 2.136-.912-.036 1.848-.48 3.48-1.968 3.48-.78 0-1.284-.324-1.512-1.284l-.984.288c.264 1.392 1.224 1.896 2.436 1.896zm.108-4.38c-.948 0-1.416-.6-1.416-1.716 0-1.368.672-1.992 1.584-1.992 1.428 0 1.632 1.452 1.692 2.76-.444.528-1.14.948-1.86.948zm6.864 4.38c1.776 0 2.88-1.032 2.88-2.388 0-1.356-.78-1.896-1.812-2.352 1.008-.528 1.656-1.212 1.656-2.256 0-1.236-.936-1.992-2.508-1.992-1.536 0-2.688.756-2.688 2.28 0 1.044.684 1.716 1.536 2.112-1.056.48-1.824 1.164-1.824 2.364 0 1.236.828 2.232 2.76 2.232zm.168-5.136c-.756-.384-1.524-.84-1.524-1.728 0-.78.576-1.224 1.512-1.224 1.02 0 1.464.408 1.464 1.152 0 .768-.612 1.368-1.452 1.8zm-.132 4.212c-1.224 0-1.68-.576-1.68-1.38 0-.96.684-1.428 1.548-1.836.84.312 1.836.744 1.836 1.752 0 .756-.456 1.464-1.704 1.464zm5.508-3.708c1.308 0 1.992-.924 1.992-2.268 0-1.26-.552-2.088-1.896-2.088-1.332 0-2.016.924-2.016 2.244 0 1.116.48 2.112 1.92 2.112zm.216 4.68l5.256-8.88h-.972l-5.268 8.88h.984zm-.18-5.472c-.792 0-1.008-.564-1.008-1.392 0-.72.24-1.392 1.032-1.392.78 0 .984.564.984 1.356 0 .876-.228 1.428-1.008 1.428zm4.776 5.424c1.308 0 1.992-.924 1.992-2.268 0-1.26-.552-2.088-1.896-2.088-1.332 0-2.016.924-2.016 2.244 0 1.116.48 2.112 1.92 2.112zm.036-.792c-.792 0-1.008-.564-1.008-1.392 0-.72.24-1.392 1.032-1.392.78 0 .984.564.984 1.356 0 .876-.228 1.428-1.008 1.428zM391.368 193.144c1.812 0 2.904-1.224 2.904-3.012 0-2.016-1.176-2.652-2.364-2.652-.768 0-1.308.264-1.704.588l.252-2.796h3.3v-.96h-4.152l-.336 4.428.744.336c.42-.396.936-.66 1.548-.66.888 0 1.572.48 1.572 1.752 0 1.476-.888 2.028-1.752 2.028-1.116 0-1.452-.648-1.584-1.332l-1.02.252c.216 1.452 1.344 2.028 2.592 2.028zm6.732 0c1.776 0 2.88-1.032 2.88-2.388 0-1.356-.78-1.896-1.812-2.352 1.008-.528 1.656-1.212 1.656-2.256 0-1.236-.936-1.992-2.508-1.992-1.536 0-2.688.756-2.688 2.28 0 1.044.684 1.716 1.536 2.112-1.056.48-1.824 1.164-1.824 2.364 0 1.236.828 2.232 2.76 2.232zm.168-5.136c-.756-.384-1.524-.84-1.524-1.728 0-.78.576-1.224 1.512-1.224 1.02 0 1.464.408 1.464 1.152 0 .768-.612 1.368-1.452 1.8zm-.132 4.212c-1.224 0-1.68-.576-1.68-1.38 0-.96.684-1.428 1.548-1.836.84.312 1.836.744 1.836 1.752 0 .756-.456 1.464-1.704 1.464zm5.508-3.708c1.308 0 1.992-.924 1.992-2.268 0-1.26-.552-2.088-1.896-2.088-1.332 0-2.016.924-2.016 2.244 0 1.116.48 2.112 1.92 2.112zm.216 4.68l5.256-8.88h-.972l-5.268 8.88h.984zm-.18-5.472c-.792 0-1.008-.564-1.008-1.392 0-.72.24-1.392 1.032-1.392.78 0 .984.564.984 1.356 0 .876-.228 1.428-1.008 1.428zm4.776 5.424c1.308 0 1.992-.924 1.992-2.268 0-1.26-.552-2.088-1.896-2.088-1.332 0-2.016.924-2.016 2.244 0 1.116.48 2.112 1.92 2.112zm.036-.792c-.792 0-1.008-.564-1.008-1.392 0-.72.24-1.392 1.032-1.392.78 0 .984.564.984 1.356 0 .876-.228 1.428-1.008 1.428z"/>
        <path fill="#6F6F6F" fill-rule="nonzero" d="M38.184 96v-7.284L42.456 96h1.332v-8.688h-1.02v7.212l-4.164-7.212h-1.452V96h1.032zm9.252.144c.864 0 1.5-.276 1.98-.756.06.396.336.732.948.732.3 0 .612-.072.852-.192l-.048-.684c-.156.048-.264.072-.372.072-.312 0-.372-.144-.372-.48v-3.012c0-1.536-.684-2.124-2.208-2.124-1.428 0-2.172.54-2.364 1.692l.96.18c.132-.684.456-1.02 1.308-1.02 1.008 0 1.224.48 1.224 1.26v.6c-.168-.012-.348-.024-.54-.024-1.74 0-3.192.456-3.192 2.1 0 .6.264 1.656 1.824 1.656zm.336-.852c-.84 0-1.032-.456-1.032-.984 0-1.056 1.14-1.14 1.992-1.14.228 0 .456.012.624.036v1.392c-.336.36-.948.696-1.584.696zm5.772.708v-4.608c.324-.3 1.08-.732 1.704-.732.792 0 .96.468.96 1.296V96H57.3v-4.2c0-.156-.012-.312-.024-.456.36-.3 1.068-.684 1.656-.684.792 0 .96.468.96 1.296V96h1.092v-4.2c0-1.38-.456-2.1-1.752-2.1-.84 0-1.536.372-2.136.852-.24-.576-.732-.852-1.548-.852-.84 0-1.488.36-2.1.828l-.06-.696h-.936V96h1.092zm11.76.144c1.236 0 2.196-.588 2.448-1.788l-.96-.216c-.168.696-.576 1.092-1.452 1.092-.984 0-1.68-.492-1.728-2.064h4.152c.036-.288.048-.564.048-.804 0-1.524-.72-2.664-2.448-2.664-1.584 0-2.904.972-2.904 3.228 0 1.692.66 3.216 2.844 3.216zm1.38-3.84h-3.06c.06-1.224.852-1.716 1.668-1.716.972 0 1.392.612 1.392 1.716zM281.624 96c3.108 0 4.512-1.812 4.512-4.476 0-2.592-1.296-4.212-4.308-4.212h-2.676V96h2.472zm.012-.936h-1.38v-6.816h1.476c2.064 0 3.264.792 3.264 3.432 0 2.124-1.092 3.384-3.36 3.384zm7.596 1.08c.864 0 1.5-.276 1.98-.756.06.396.336.732.948.732.3 0 .612-.072.852-.192l-.048-.684c-.156.048-.264.072-.372.072-.312 0-.372-.144-.372-.48v-3.012c0-1.536-.684-2.124-2.208-2.124-1.428 0-2.172.54-2.364 1.692l.96.18c.132-.684.456-1.02 1.308-1.02 1.008 0 1.224.48 1.224 1.26v.6c-.168-.012-.348-.024-.54-.024-1.74 0-3.192.456-3.192 2.1 0 .6.264 1.656 1.824 1.656zm.336-.852c-.84 0-1.032-.456-1.032-.984 0-1.056 1.14-1.14 1.992-1.14.228 0 .456.012.624.036v1.392c-.336.36-.948.696-1.584.696zm6.612.852c.576 0 1.212-.204 1.512-.408l-.192-.792c-.264.144-.708.3-1.08.3-.744 0-.888-.36-.888-1.008v-3.528h1.704v-.876h-1.704v-1.956l-1.092.168v1.788h-.948v.876h.948v3.672c0 1.236.588 1.764 1.74 1.764zm5.076 0c1.236 0 2.196-.588 2.448-1.788l-.96-.216c-.168.696-.576 1.092-1.452 1.092-.984 0-1.68-.492-1.728-2.064h4.152c.036-.288.048-.564.048-.804 0-1.524-.72-2.664-2.448-2.664-1.584 0-2.904.972-2.904 3.228 0 1.692.66 3.216 2.844 3.216zm1.38-3.84h-3.06c.06-1.224.852-1.716 1.668-1.716.972 0 1.392.612 1.392 1.716zM382.432 96.144c1.608 0 3.072-.72 3.072-2.556 0-1.68-1.38-2.088-2.652-2.46-1.08-.324-2.076-.624-2.076-1.68 0-.768.48-1.356 1.812-1.356 1.344 0 1.68.804 1.812 1.632l1.032-.12c-.18-1.86-1.332-2.448-2.856-2.448-1.68 0-2.928.912-2.928 2.4 0 1.788 1.404 2.16 2.688 2.52 1.068.3 2.04.588 2.04 1.668 0 1.152-.996 1.464-1.932 1.464-1.488 0-1.92-.804-2.124-1.728l-1.056.156c.228 1.788 1.356 2.508 3.168 2.508zm6.984 0c1.236 0 2.328-.6 2.532-2.028l-.96-.204c-.156.912-.696 1.32-1.536 1.32-.984 0-1.728-.552-1.728-2.388 0-1.752.876-2.232 1.764-2.232.864 0 1.284.468 1.38 1.38l1.044-.144c-.084-1.428-.996-2.148-2.376-2.148-1.848 0-2.952 1.128-2.952 3.276 0 1.848.792 3.168 2.832 3.168zm6.468 0c2.076 0 2.916-1.32 2.916-3.348 0-1.836-.804-3.096-2.76-3.096-1.968 0-3 1.248-3 3.24 0 1.824.708 3.204 2.844 3.204zm.06-.876c-1.2 0-1.776-.744-1.776-2.376 0-1.644.732-2.292 1.824-2.292 1.068 0 1.668.564 1.668 2.268 0 1.752-.648 2.4-1.716 2.4zm5.508.732v-4.488c.504-.468 1.416-.78 2.184-.672v-1.128l-.228-.012c-.864 0-1.512.288-2.052 1.02l-.084-.888h-.912V96h1.092zm5.736.144c1.236 0 2.196-.588 2.448-1.788l-.96-.216c-.168.696-.576 1.092-1.452 1.092-.984 0-1.68-.492-1.728-2.064h4.152c.036-.288.048-.564.048-.804 0-1.524-.72-2.664-2.448-2.664-1.584 0-2.904.972-2.904 3.228 0 1.692.66 3.216 2.844 3.216zm1.38-3.84h-3.06c.06-1.224.852-1.716 1.668-1.716.972 0 1.392.612 1.392 1.716z"/>
        <path fill="#E0E0E0" d="M24 104H423V105H24zM24 137H423V138H24zM24 172H423V173H24z"/>
        <g fill="#9B9B9B" fill-rule="nonzero">
            <path d="M11 10H1c-.552 0-1 .448-1 1s.448 1 1 1h10c.552 0 1-.448 1-1s-.448-1-1-1zM10 3L7 3 7 0 5 0 5 3 2 3 6 8z" transform="translate(349 21)"/>
        </g>
        <rect width="20" height="20" x="360" y="111" fill="#F5A732" rx="4"/>
        <rect width="20" height="20" x="360" y="144" fill="#58B145" rx="4"/>
        <rect width="20" height="20" x="360" y="179" fill="#E73030" rx="4"/>
        <g>
            <path d="M0 0H16V16H0z" transform="translate(362 113)"/>
            <g fill="#FFF" fill-rule="nonzero">
                <path d="M10.97 6.405c-.174 0-.347-.058-.578-.115L9.7 6.059l-.577.577c.058.289.115.578.115.866 0 1.905-1.558 3.464-3.464 3.464-1.905 0-3.464-1.559-3.464-3.464s1.56-3.464 3.464-3.464c.29 0 .635.058.866.116l.578-.578-.231-.693c-.058-.288-.058-.635 0-.981-.404-.058-.808-.116-1.213-.116C2.598 1.786 0 4.385 0 7.56s2.598 5.773 5.773 5.773c3.176 0 5.774-2.598 5.774-5.773 0-.404-.058-.808-.116-1.213-.173.058-.288.058-.462.058z" transform="translate(362 113) translate(1.333 1.333)"/>
                <path d="M13.279 2.826c-.058-.173-.173-.347-.404-.404l-.866-.29.52-.519c.23-.23.23-.577 0-.808-.232-.23-.578-.23-.809 0l-.52.52-.288-.866c-.058-.174-.231-.347-.404-.405-.174-.057-.405 0-.52.174L8.256 1.96c-.173.173-.23.404-.115.577l.461 1.386-1.674 1.674c-.346-.231-.75-.346-1.155-.346-1.27 0-2.309 1.039-2.309 2.309 0 1.27 1.04 2.31 2.31 2.31s2.309-1.04 2.309-2.31c0-.404-.116-.808-.347-1.155L9.353 4.79l1.386.462c.057 0 .115.057.173.057.173 0 .288-.057.404-.173l1.732-1.732c.23-.173.289-.404.23-.577z" transform="translate(362 113) translate(1.333 1.333)"/>
            </g>
        </g>
        <g>
            <path d="M0 0H16V16H0z" transform="translate(362 146)"/>
            <g fill="#FFF" fill-rule="nonzero">
                <path d="M10.97 6.405c-.174 0-.347-.058-.578-.115L9.7 6.059l-.577.577c.058.289.115.578.115.866 0 1.905-1.558 3.464-3.464 3.464-1.905 0-3.464-1.559-3.464-3.464s1.56-3.464 3.464-3.464c.29 0 .635.058.866.116l.578-.578-.231-.693c-.058-.288-.058-.635 0-.981-.404-.058-.808-.116-1.213-.116C2.598 1.786 0 4.385 0 7.56s2.598 5.773 5.773 5.773c3.176 0 5.774-2.598 5.774-5.773 0-.404-.058-.808-.116-1.213-.173.058-.288.058-.462.058z" transform="translate(362 146) translate(1.333 1.333)"/>
                <path d="M13.279 2.826c-.058-.173-.173-.347-.404-.404l-.866-.29.52-.519c.23-.23.23-.577 0-.808-.232-.23-.578-.23-.809 0l-.52.52-.288-.866c-.058-.174-.231-.347-.404-.405-.174-.057-.405 0-.52.174L8.256 1.96c-.173.173-.23.404-.115.577l.461 1.386-1.674 1.674c-.346-.231-.75-.346-1.155-.346-1.27 0-2.309 1.039-2.309 2.309 0 1.27 1.04 2.31 2.31 2.31s2.309-1.04 2.309-2.31c0-.404-.116-.808-.347-1.155L9.353 4.79l1.386.462c.057 0 .115.057.173.057.173 0 .288-.057.404-.173l1.732-1.732c.23-.173.289-.404.23-.577z" transform="translate(362 146) translate(1.333 1.333)"/>
            </g>
        </g>
        <g>
            <path d="M0 0H16V16H0z" transform="translate(362 181)"/>
            <g fill="#FFF" fill-rule="nonzero">
                <path d="M10.97 6.405c-.174 0-.347-.058-.578-.115L9.7 6.059l-.577.577c.058.289.115.578.115.866 0 1.905-1.558 3.464-3.464 3.464-1.905 0-3.464-1.559-3.464-3.464s1.56-3.464 3.464-3.464c.29 0 .635.058.866.116l.578-.578-.231-.693c-.058-.288-.058-.635 0-.981-.404-.058-.808-.116-1.213-.116C2.598 1.786 0 4.385 0 7.56s2.598 5.773 5.773 5.773c3.176 0 5.774-2.598 5.774-5.773 0-.404-.058-.808-.116-1.213-.173.058-.288.058-.462.058z" transform="translate(362 181) translate(1.333 1.333)"/>
                <path d="M13.279 2.826c-.058-.173-.173-.347-.404-.404l-.866-.29.52-.519c.23-.23.23-.577 0-.808-.232-.23-.578-.23-.809 0l-.52.52-.288-.866c-.058-.174-.231-.347-.404-.405-.174-.057-.405 0-.52.174L8.256 1.96c-.173.173-.23.404-.115.577l.461 1.386-1.674 1.674c-.346-.231-.75-.346-1.155-.346-1.27 0-2.309 1.039-2.309 2.309 0 1.27 1.04 2.31 2.31 2.31s2.309-1.04 2.309-2.31c0-.404-.116-.808-.347-1.155L9.353 4.79l1.386.462c.057 0 .115.057.173.057.173 0 .288-.057.404-.173l1.732-1.732c.23-.173.289-.404.23-.577z" transform="translate(362 181) translate(1.333 1.333)"/>
            </g>
        </g>
        <path fill="#E2E2E2" style="mix-blend-mode:multiply" d="M278 117H310V123H278zM278 150H317V156H278zM278 185H312V191H278z"/>
    </g>
</svg>
