<svg xmlns="http://www.w3.org/2000/svg" width="447" height="224" viewBox="0 0 447 224">
    <g fill="none" fill-rule="evenodd">
        <path fill="#F8F6F6" d="M0 0H447V224H0z"/>
        <path fill="#9B9B9B" fill-rule="nonzero" d="M31 27c1.66 0 2.99-1.34 2.99-3s-1.33-3-2.99-3c-1.66 0-3 1.34-3 3s1.34 3 3 3zm0 2c-2.33 0-7 1.17-7 3.5V35h14v-2.5c0-2.33-4.67-3.5-7-3.5z"/>
        <path fill="#3F3F3F" fill-rule="nonzero" d="M46.34 32v-7.248h.024L48.704 32h1.368l2.388-7.224h.036V32h1.308v-8.688h-2.088l-2.256 6.984h-.036l-2.268-6.984h-2.112V32h1.296zm10.908.144c.864 0 1.548-.3 1.968-.756.108.48.396.732 1.044.732.336 0 .732-.084.972-.204l-.048-.816c-.156.048-.264.072-.372.072-.312 0-.372-.144-.372-.48v-2.868c0-1.548-.744-2.16-2.328-2.16-1.524 0-2.268.624-2.46 1.788l1.212.216c.132-.648.384-.96 1.14-.96.912 0 1.08.432 1.08 1.188v.468c-.168-.012-.348-.024-.636-.024-1.668 0-3.036.528-3.036 2.136 0 .612.276 1.668 1.836 1.668zm.492-1.032c-.732 0-.924-.396-.924-.828 0-.912 1.008-.996 1.704-.996.312 0 .456.012.576.024v1.224c-.276.288-.792.576-1.356.576zm4.956 3.564c1.104 0 1.656-.516 2.16-1.884.804-2.136 1.764-4.716 2.592-6.996h-1.416l-1.524 4.656h-.012l-1.524-4.656h-1.488l2.328 6.3-.252.648c-.252.636-.588.852-1.008.852-.3 0-.708-.096-.972-.192l-.132 1.032c.252.12.78.24 1.248.24zm7.176-2.532c.864 0 1.548-.3 1.968-.756.108.48.396.732 1.044.732.336 0 .732-.084.972-.204l-.048-.816c-.156.048-.264.072-.372.072-.312 0-.372-.144-.372-.48v-2.868c0-1.548-.744-2.16-2.328-2.16-1.524 0-2.268.624-2.46 1.788l1.212.216c.132-.648.384-.96 1.14-.96.912 0 1.08.432 1.08 1.188v.468c-.168-.012-.348-.024-.636-.024-1.668 0-3.036.528-3.036 2.136 0 .612.276 1.668 1.836 1.668zm.492-1.032c-.732 0-.924-.396-.924-.828 0-.912 1.008-.996 1.704-.996.312 0 .456.012.576.024v1.224c-.276.288-.792.576-1.356.576zM78.2 32l.792-2.376h3.156L82.964 32H84.5l-3.048-8.688h-1.788L76.772 32H78.2zm3.624-3.552h-2.556l1.272-3.84h.024l1.26 3.84zM87.032 32v-4.524c.3-.276.948-.66 1.572-.66.732 0 1.02.408 1.02 1.188V32h1.38v-4.224c0-1.404-.576-2.112-1.92-2.112-.852 0-1.596.336-2.148.78l-.06-.648h-1.224V32h1.38zm7.956 2.712c1.656 0 3.216-.504 3.216-2.124 0-1.14-.768-1.536-2.064-1.62l-1.764-.108c-.528-.036-.636-.192-.636-.408 0-.18.144-.348.3-.468.324.096.648.12 1.056.12 1.5 0 2.616-.816 2.616-2.22 0-.504-.156-.996-.48-1.368.324-.096.696-.144 1.08-.12v-1.02c-.18-.06-.288-.072-.492-.072-.456 0-.816.348-1.032.852-.42-.36-1.02-.492-1.74-.492-1.668 0-2.676.948-2.676 2.292 0 .792.36 1.404.912 1.716-.456.348-.876.708-.876 1.272 0 .48.276.78.732.936v.036c-.576.192-1.032.6-1.032 1.248 0 .78.576 1.548 2.88 1.548zm.084-5.676c-.96 0-1.356-.444-1.356-1.164 0-.804.588-1.14 1.368-1.14.828 0 1.332.384 1.332 1.164 0 .708-.552 1.14-1.344 1.14zm.048 4.632c-1.164 0-1.68-.228-1.68-.732 0-.336.18-.576.504-.804l1.908.096c.756.036.936.252.936.636 0 .564-.588.804-1.668.804zm6.78-1.524c1.344 0 2.292-.672 2.532-1.848l-1.176-.288c-.144.636-.48 1.008-1.272 1.008-.9 0-1.524-.468-1.56-1.776h4.02c.024-.288.036-.576.036-.828 0-1.608-.744-2.748-2.544-2.748-1.62 0-2.964.996-2.964 3.24 0 1.704.696 3.24 2.928 3.24zm1.152-3.864h-2.604c.06-1.104.708-1.524 1.404-1.524.828 0 1.2.468 1.2 1.524zm4.224 3.72v-9.06h-1.38V32h1.38zm4.272.144c2.136 0 3.024-1.32 3.024-3.36 0-1.836-.816-3.12-2.868-3.12s-3.084 1.272-3.084 3.264c0 1.848.744 3.216 2.928 3.216zm.072-1.068c-1.08 0-1.56-.684-1.56-2.196s.612-2.1 1.596-2.1c.972 0 1.476.528 1.476 2.076 0 1.596-.564 2.22-1.512 2.22zm6.18 1.056c.852 0 1.584-.324 2.124-.816l.096.684h1.2v-6.204h-1.38v4.524c-.3.276-.948.648-1.56.648-.732 0-.972-.396-.972-1.176v-3.996h-1.38v4.236c0 1.392.576 2.1 1.872 2.1z"/>
        <rect width="399" height="157" x="24" y="47" fill="#FFF" stroke="#E0E0E0" rx="6"/>
        <path fill="#3F3F3F" fill-rule="nonzero" d="M41.18 70.168c1.792 0 3.696-.826 4.046-3.122l-1.456-.28c-.294 1.288-.994 2.016-2.506 2.016-1.89 0-2.954-1.078-2.954-3.822 0-2.646 1.176-3.864 3.094-3.864 1.512 0 2.198.742 2.366 2.268l1.512-.14c-.154-2.436-1.68-3.542-3.864-3.542-3.01 0-4.788 2.058-4.788 5.39 0 3.066 1.288 5.096 4.55 5.096zm8.54 0c2.492 0 3.528-1.54 3.528-3.92 0-2.142-.952-3.64-3.346-3.64s-3.598 1.484-3.598 3.808c0 2.156.868 3.752 3.416 3.752zm.084-1.246c-1.26 0-1.82-.798-1.82-2.562 0-1.764.714-2.45 1.862-2.45 1.134 0 1.722.616 1.722 2.422 0 1.862-.658 2.59-1.764 2.59zM56.454 70v-5.278c.35-.322 1.106-.77 1.834-.77.854 0 1.19.476 1.19 1.386V70h1.61v-4.928c0-1.638-.672-2.464-2.24-2.464-.994 0-1.862.392-2.506.91l-.07-.756h-1.428V70h1.61zm9.548.168c1.554 0 2.842-.742 3.08-2.478l-1.4-.28c-.168 1.008-.7 1.442-1.596 1.442-1.008 0-1.792-.602-1.792-2.562 0-1.918.896-2.394 1.834-2.394.938 0 1.33.616 1.442 1.568l1.484-.21c-.126-1.708-1.26-2.646-2.856-2.646-2.268 0-3.584 1.358-3.584 3.864 0 2.156.994 3.696 3.388 3.696zm7.602 0c1.568 0 2.674-.784 2.954-2.156l-1.372-.336c-.168.742-.56 1.176-1.484 1.176-1.05 0-1.778-.546-1.82-2.072h4.69c.028-.336.042-.672.042-.966 0-1.876-.868-3.206-2.968-3.206-1.89 0-3.458 1.162-3.458 3.78 0 1.988.812 3.78 3.416 3.78zm1.344-4.508H71.91c.07-1.288.826-1.778 1.638-1.778.966 0 1.4.546 1.4 1.778zm4.858 7.308v-3.5c.504.406 1.148.7 2.016.7 1.624 0 2.996-1.106 2.996-3.962 0-2.646-1.148-3.598-2.674-3.598-.952 0-1.778.322-2.422.924l-.084-.77h-1.386v10.206h1.554zm1.666-4.116c-.7 0-1.344-.42-1.624-.644v-3.514c.392-.364 1.078-.77 1.764-.77 1.022 0 1.526.644 1.526 2.31 0 1.596-.448 2.618-1.666 2.618zm7.406 1.316c.77 0 1.554-.266 1.918-.504l-.266-1.148c-.294.168-.798.336-1.232.336-.784 0-.966-.378-.966-1.092v-3.808h1.96v-1.19h-1.96v-2.338l-1.61.224v2.114h-1.106v1.19h1.106v4.032c0 1.54.728 2.184 2.156 2.184zm5.46 0c1.778 0 2.982-.798 2.982-2.296 0-1.652-1.33-1.946-2.576-2.17-.952-.168-1.568-.364-1.568-1.036 0-.476.364-.854 1.246-.854.938 0 1.204.504 1.372 1.218l1.4-.364c-.28-1.26-1.064-2.058-2.744-2.058-1.512 0-2.786.728-2.786 2.24 0 1.722 1.4 1.974 2.576 2.212.924.182 1.512.308 1.512 1.036 0 .616-.56.868-1.358.868-1.162 0-1.456-.602-1.638-1.288l-1.372.448c.224 1.344 1.218 2.044 2.954 2.044zm9.1-.168v-4.074h1.932L107.554 70h1.778l-2.422-4.494c1.12-.434 1.876-1.33 1.876-2.842 0-1.428-.784-2.8-3.304-2.8h-3.668V70h1.624zm1.582-5.39h-1.582v-3.402h1.54c1.33 0 2.114.364 2.114 1.568 0 1.442-.882 1.834-2.072 1.834zm8.54 5.558c1.568 0 2.674-.784 2.954-2.156l-1.372-.336c-.168.742-.56 1.176-1.484 1.176-1.05 0-1.778-.546-1.82-2.072h4.69c.028-.336.042-.672.042-.966 0-1.876-.868-3.206-2.968-3.206-1.89 0-3.458 1.162-3.458 3.78 0 1.988.812 3.78 3.416 3.78zm1.344-4.508h-3.038c.07-1.288.826-1.778 1.638-1.778.966 0 1.4.546 1.4 1.778zm4.858 7.308v-3.5c.504.406 1.148.7 2.016.7 1.624 0 2.996-1.106 2.996-3.962 0-2.646-1.148-3.598-2.674-3.598-.952 0-1.778.322-2.422.924l-.084-.77h-1.386v10.206h1.554zm1.666-4.116c-.7 0-1.344-.42-1.624-.644v-3.514c.392-.364 1.078-.77 1.764-.77 1.022 0 1.526.644 1.526 2.31 0 1.596-.448 2.618-1.666 2.618zm7.98 1.316c2.492 0 3.528-1.54 3.528-3.92 0-2.142-.952-3.64-3.346-3.64s-3.598 1.484-3.598 3.808c0 2.156.868 3.752 3.416 3.752zm.084-1.246c-1.26 0-1.82-.798-1.82-2.562 0-1.764.714-2.45 1.862-2.45 1.134 0 1.722.616 1.722 2.422 0 1.862-.658 2.59-1.764 2.59zm6.65 1.078v-5.026c.602-.532 1.624-.854 2.534-.742v-1.61c-.098 0-.21-.014-.294-.014-1.064 0-1.792.42-2.366 1.232l-.126-1.078h-1.358V70h1.61zm6.104.168c.77 0 1.554-.266 1.918-.504l-.266-1.148c-.294.168-.798.336-1.232.336-.784 0-.966-.378-.966-1.092v-3.808h1.96v-1.19h-1.96v-2.338l-1.61.224v2.114h-1.106v1.19h1.106v4.032c0 1.54.728 2.184 2.156 2.184zM370.66 32c3.108 0 4.512-1.812 4.512-4.476 0-2.592-1.296-4.212-4.308-4.212h-2.82V32h2.616zm-.012-1.14h-1.2v-6.408h1.308c1.92 0 2.976.744 2.976 3.204 0 2.004-.936 3.204-3.084 3.204zm8.508 1.284c2.136 0 3.024-1.32 3.024-3.36 0-1.836-.816-3.12-2.868-3.12s-3.084 1.272-3.084 3.264c0 1.848.744 3.216 2.928 3.216zm.072-1.068c-1.08 0-1.56-.684-1.56-2.196s.612-2.1 1.596-2.1c.972 0 1.476.528 1.476 2.076 0 1.596-.564 2.22-1.512 2.22zm7.032.924l1.116-4.548h.024L388.564 32h1.584l1.896-6.204H390.7l-1.32 4.752h-.012l-1.248-4.752h-1.392l-1.248 4.776h-.012l-1.356-4.776h-1.392L384.616 32h1.644zm8.04 0v-4.524c.3-.276.948-.66 1.572-.66.732 0 1.02.408 1.02 1.188V32h1.38v-4.224c0-1.404-.576-2.112-1.92-2.112-.852 0-1.596.336-2.148.78l-.06-.648h-1.224V32h1.38zm7.02 0v-9.06h-1.38V32h1.38zm4.272.144c2.136 0 3.024-1.32 3.024-3.36 0-1.836-.816-3.12-2.868-3.12s-3.084 1.272-3.084 3.264c0 1.848.744 3.216 2.928 3.216zm.072-1.068c-1.08 0-1.56-.684-1.56-2.196s.612-2.1 1.596-2.1c.972 0 1.476.528 1.476 2.076 0 1.596-.564 2.22-1.512 2.22zm5.868 1.068c.864 0 1.548-.3 1.968-.756.108.48.396.732 1.044.732.336 0 .732-.084.972-.204l-.048-.816c-.156.048-.264.072-.372.072-.312 0-.372-.144-.372-.48v-2.868c0-1.548-.744-2.16-2.328-2.16-1.524 0-2.268.624-2.46 1.788l1.212.216c.132-.648.384-.96 1.14-.96.912 0 1.08.432 1.08 1.188v.468c-.168-.012-.348-.024-.636-.024-1.668 0-3.036.528-3.036 2.136 0 .612.276 1.668 1.836 1.668zm.492-1.032c-.732 0-.924-.396-.924-.828 0-.912 1.008-.996 1.704-.996.312 0 .456.012.576.024v1.224c-.276.288-.792.576-1.356.576zm6.648 1.032c.852 0 1.464-.3 1.956-.768h.024l.096.624h1.152v-9.06h-1.344v3.264c-.42-.36-.96-.54-1.668-.54-1.344 0-2.616.876-2.616 3.336 0 2.244.972 3.144 2.4 3.144zm.444-1.116c-.996 0-1.416-.696-1.416-2.04 0-1.296.396-2.196 1.476-2.196.588 0 1.08.276 1.344.48v3.12c-.336.348-.876.636-1.404.636zM37.548 126l.852-2.58h3.336l.876 2.58h1.212l-3.024-8.688h-1.44L36.432 126h1.116zm3.912-3.528h-2.796l1.392-4.152h.012l1.392 4.152zm5.736 3.672c.888 0 1.512-.336 2.04-.816l.012.012.084.66h.912v-9.06h-1.068v3.336c-.432-.348-1.02-.576-1.728-.576-1.368 0-2.604.876-2.604 3.312 0 2.244.948 3.132 2.352 3.132zm.324-.912c-1.08 0-1.548-.72-1.548-2.22 0-1.428.432-2.376 1.62-2.376.708 0 1.284.324 1.572.54v3.3c-.384.384-1.008.756-1.644.756zm5.196-6.684c.492 0 .768-.288.768-.792 0-.492-.276-.78-.768-.78s-.78.288-.78.78c0 .504.288.792.78.792zm-1.236 10.128c1.116 0 1.752-.564 1.752-1.872v-6.972H52.14v6.924c0 .732-.312.972-.804.972-.3 0-.66-.084-.9-.18l-.12.888c.216.132.768.24 1.164.24zm6.084-2.532c1.236 0 2.196-.588 2.448-1.788l-.96-.216c-.168.696-.576 1.092-1.452 1.092-.984 0-1.68-.492-1.728-2.064h4.152c.036-.288.048-.564.048-.804 0-1.524-.72-2.664-2.448-2.664-1.584 0-2.904.972-2.904 3.228 0 1.692.66 3.216 2.844 3.216zm1.38-3.84h-3.06c.06-1.224.852-1.716 1.668-1.716.972 0 1.392.612 1.392 1.716zm5.16 3.84c1.236 0 2.328-.6 2.532-2.028l-.96-.204c-.156.912-.696 1.32-1.536 1.32-.984 0-1.728-.552-1.728-2.388 0-1.752.876-2.232 1.764-2.232.864 0 1.284.468 1.38 1.38l1.044-.144c-.084-1.428-.996-2.148-2.376-2.148-1.848 0-2.952 1.128-2.952 3.276 0 1.848.792 3.168 2.832 3.168zm5.94 0c.576 0 1.212-.204 1.512-.408l-.192-.792c-.264.144-.708.3-1.08.3-.744 0-.888-.36-.888-1.008v-3.528H71.1v-.876h-1.704v-1.956l-1.092.168v1.788h-.948v.876h.948v3.672c0 1.236.588 1.764 1.74 1.764zm3.18-7.5c.492 0 .78-.288.78-.792s-.288-.78-.78-.78c-.492 0-.768.276-.768.78s.276.792.768.792zm.528 7.356v-6.168H72.66V126h1.092zm4.596 0l2.316-6.168h-1.116l-1.788 5.076h-.012l-1.812-5.076h-1.188L77.1 126h1.248zm5.82.144c1.236 0 2.196-.588 2.448-1.788l-.96-.216c-.168.696-.576 1.092-1.452 1.092-.984 0-1.68-.492-1.728-2.064h4.152c.036-.288.048-.564.048-.804 0-1.524-.72-2.664-2.448-2.664-1.584 0-2.904.972-2.904 3.228 0 1.692.66 3.216 2.844 3.216zm1.38-3.84h-3.06c.06-1.224.852-1.716 1.668-1.716.972 0 1.392.612 1.392 1.716zm4.668 3.84c1.5 0 2.412-.696 2.412-1.872 0-1.38-1.068-1.608-2.196-1.848-.864-.18-1.368-.36-1.368-.996 0-.468.288-.864 1.188-.864.9 0 1.14.432 1.284 1.14l.984-.216c-.192-1.092-.792-1.788-2.256-1.788-1.248 0-2.28.612-2.28 1.86 0 1.44 1.212 1.656 2.22 1.86.84.168 1.344.288 1.344.972 0 .66-.54.888-1.284.888-1.092 0-1.368-.528-1.536-1.188l-.972.264c.192 1.236 1.044 1.788 2.46 1.788zm8.868 0c.972 0 1.704-.252 2.22-.648.516.384 1.008.636 1.668.636.264 0 .612-.06.864-.204l-.192-.816c-.192.084-.372.12-.552.12-.372 0-.72-.168-1.068-.432.636-.816.876-1.884.888-2.916h-.972c-.024.912-.192 1.728-.612 2.316-.312-.336-.648-.732-1.02-1.2-.408-.504-.744-.972-1.008-1.404l.432-.192c1.428-.612 1.8-1.428 1.8-2.136 0-1.332-.996-1.644-1.812-1.644-1.284 0-2.196.864-2.196 2.016 0 .612.156 1.152.468 1.728-1.044.54-1.62 1.236-1.62 2.4 0 1.38 1.068 2.376 2.712 2.376zm-.132-5.232c-.24-.492-.36-.936-.36-1.392 0-.684.456-1.044 1.068-1.044.612 0 .912.372.912.84 0 .6-.36 1.056-1.2 1.428-.012 0-.408.168-.42.168zm.288 4.356c-1.212 0-1.776-.78-1.776-1.608 0-.828.372-1.272.9-1.596.252.408.54.804.876 1.248.372.504.852 1.092 1.38 1.596-.36.228-.816.36-1.38.36zm8.964.732l.852-2.58h3.336l.876 2.58h1.212l-3.024-8.688h-1.44L107.088 126h1.116zm3.912-3.528h-2.796l1.392-4.152h.012l1.392 4.152zm5.736 3.672c.888 0 1.512-.336 2.04-.816l.012.012.084.66h.912v-9.06h-1.068v3.336c-.432-.348-1.02-.576-1.728-.576-1.368 0-2.604.876-2.604 3.312 0 2.244.948 3.132 2.352 3.132zm.324-.912c-1.08 0-1.548-.72-1.548-2.22 0-1.428.432-2.376 1.62-2.376.708 0 1.284.324 1.572.54v3.3c-.384.384-1.008.756-1.644.756zm7.32.768l2.316-6.168h-1.116l-1.788 5.076h-.012l-1.812-5.076h-1.188l2.352 6.168h1.248zm5.82.144c1.236 0 2.196-.588 2.448-1.788l-.96-.216c-.168.696-.576 1.092-1.452 1.092-.984 0-1.68-.492-1.728-2.064h4.152c.036-.288.048-.564.048-.804 0-1.524-.72-2.664-2.448-2.664-1.584 0-2.904.972-2.904 3.228 0 1.692.66 3.216 2.844 3.216zm1.38-3.84h-3.06c.06-1.224.852-1.716 1.668-1.716.972 0 1.392.612 1.392 1.716zM136.5 126v-4.488c.504-.468 1.416-.78 2.184-.672v-1.128l-.228-.012c-.864 0-1.512.288-2.052 1.02l-.084-.888h-.912V126h1.092zm6.084.144c1.428 0 2.604-.972 2.604-3.372 0-2.268-.972-3.072-2.244-3.072-.9 0-1.548.336-2.088.816v-3.576h-1.08V126h.948l.06-.54h.012c.444.348 1.056.684 1.788.684zm-.132-.924c-.708 0-1.308-.432-1.584-.636v-3.192c.36-.348 1.044-.768 1.728-.768 1.02 0 1.464.672 1.464 2.136 0 1.5-.444 2.46-1.608 2.46zm6.252.924c1.5 0 2.412-.696 2.412-1.872 0-1.38-1.068-1.608-2.196-1.848-.864-.18-1.368-.36-1.368-.996 0-.468.288-.864 1.188-.864.9 0 1.14.432 1.284 1.14l.984-.216c-.192-1.092-.792-1.788-2.256-1.788-1.248 0-2.28.612-2.28 1.86 0 1.44 1.212 1.656 2.22 1.86.84.168 1.344.288 1.344.972 0 .66-.54.888-1.284.888-1.092 0-1.368-.528-1.536-1.188l-.972.264c.192 1.236 1.044 1.788 2.46 1.788zM40.416 159.144c1.524 0 3.096-.648 3.396-2.568l-.996-.204c-.276 1.224-.948 1.824-2.328 1.824-1.74 0-2.748-1.008-2.748-3.504 0-2.388 1.092-3.576 2.892-3.576 1.428 0 2.04.708 2.208 2.064l1.032-.108c-.132-2.028-1.404-2.916-3.228-2.916-2.472 0-4.044 1.704-4.044 4.632 0 2.604 1.092 4.356 3.816 4.356zm7.32 0c2.076 0 2.916-1.32 2.916-3.348 0-1.836-.804-3.096-2.76-3.096-1.968 0-3 1.248-3 3.24 0 1.824.708 3.204 2.844 3.204zm.06-.876c-1.2 0-1.776-.744-1.776-2.376 0-1.644.732-2.292 1.824-2.292 1.068 0 1.668.564 1.668 2.268 0 1.752-.648 2.4-1.716 2.4zm5.508.732v-4.596c.324-.288 1.092-.744 1.8-.744.84 0 1.152.468 1.152 1.32V159h1.092v-4.188c0-1.392-.576-2.112-1.896-2.112-.852 0-1.62.384-2.22.864l-.06-.732h-.96V159h1.092zm6.468-7.452c.492 0 .768-.288.768-.792 0-.492-.276-.78-.768-.78s-.78.288-.78.78c0 .504.288.792.78.792zm-1.236 10.128c1.116 0 1.752-.564 1.752-1.872v-6.972h-1.092v6.924c0 .732-.312.972-.804.972-.3 0-.66-.084-.9-.18l-.12.888c.216.132.768.24 1.164.24zm5.484-2.556c.852 0 1.584-.336 2.184-.828l.072.708h.948v-6.168h-1.092v4.584c-.324.3-1.08.756-1.788.756-.912 0-1.116-.468-1.116-1.32v-4.02h-1.092v4.188c0 1.38.576 2.1 1.884 2.1zm6.204-.12v-4.596c.324-.288 1.092-.744 1.8-.744.84 0 1.152.468 1.152 1.32V159h1.092v-4.188c0-1.392-.576-2.112-1.896-2.112-.852 0-1.62.384-2.22.864l-.06-.732h-.96V159h1.092zm8.34.144c1.236 0 2.328-.6 2.532-2.028l-.96-.204c-.156.912-.696 1.32-1.536 1.32-.984 0-1.728-.552-1.728-2.388 0-1.752.876-2.232 1.764-2.232.864 0 1.284.468 1.38 1.38l1.044-.144c-.084-1.428-.996-2.148-2.376-2.148-1.848 0-2.952 1.128-2.952 3.276 0 1.848.792 3.168 2.832 3.168zm5.94 0c.576 0 1.212-.204 1.512-.408l-.192-.792c-.264.144-.708.3-1.08.3-.744 0-.888-.36-.888-1.008v-3.528h1.704v-.876h-1.704v-1.956l-1.092.168v1.788h-.948v.876h.948v3.672c0 1.236.588 1.764 1.74 1.764zm3.18-7.5c.492 0 .78-.288.78-.792s-.288-.78-.78-.78c-.492 0-.768.276-.768.78s.276.792.768.792zm.528 7.356v-6.168H87.12V159h1.092zm4.356.144c2.076 0 2.916-1.32 2.916-3.348 0-1.836-.804-3.096-2.76-3.096-1.968 0-3 1.248-3 3.24 0 1.824.708 3.204 2.844 3.204zm.06-.876c-1.2 0-1.776-.744-1.776-2.376 0-1.644.732-2.292 1.824-2.292 1.068 0 1.668.564 1.668 2.268 0 1.752-.648 2.4-1.716 2.4zm5.508.732v-4.596c.324-.288 1.092-.744 1.8-.744.84 0 1.152.468 1.152 1.32V159h1.092v-4.188c0-1.392-.576-2.112-1.896-2.112-.852 0-1.62.384-2.22.864l-.06-.732h-.96V159h1.092zm7.848.144c1.5 0 2.412-.696 2.412-1.872 0-1.38-1.068-1.608-2.196-1.848-.864-.18-1.368-.36-1.368-.996 0-.468.288-.864 1.188-.864.9 0 1.14.432 1.284 1.14l.984-.216c-.192-1.092-.792-1.788-2.256-1.788-1.248 0-2.28.612-2.28 1.86 0 1.44 1.212 1.656 2.22 1.86.84.168 1.344.288 1.344.972 0 .66-.54.888-1.284.888-1.092 0-1.368-.528-1.536-1.188l-.972.264c.192 1.236 1.044 1.788 2.46 1.788zM40.416 192.144c1.524 0 3.096-.648 3.396-2.568l-.996-.204c-.276 1.224-.948 1.824-2.328 1.824-1.74 0-2.748-1.008-2.748-3.504 0-2.388 1.092-3.576 2.892-3.576 1.428 0 2.04.708 2.208 2.064l1.032-.108c-.132-2.028-1.404-2.916-3.228-2.916-2.472 0-4.044 1.704-4.044 4.632 0 2.604 1.092 4.356 3.816 4.356zm7.32 0c2.076 0 2.916-1.32 2.916-3.348 0-1.836-.804-3.096-2.76-3.096-1.968 0-3 1.248-3 3.24 0 1.824.708 3.204 2.844 3.204zm.06-.876c-1.2 0-1.776-.744-1.776-2.376 0-1.644.732-2.292 1.824-2.292 1.068 0 1.668.564 1.668 2.268 0 1.752-.648 2.4-1.716 2.4zm5.508.732v-4.596c.324-.288 1.092-.744 1.8-.744.84 0 1.152.468 1.152 1.32V192h1.092v-4.188c0-1.392-.576-2.112-1.896-2.112-.852 0-1.62.384-2.22.864l-.06-.732h-.96V192h1.092zm6.468-7.452c.492 0 .768-.288.768-.792 0-.492-.276-.78-.768-.78s-.78.288-.78.78c0 .504.288.792.78.792zm-1.236 10.128c1.116 0 1.752-.564 1.752-1.872v-6.972h-1.092v6.924c0 .732-.312.972-.804.972-.3 0-.66-.084-.9-.18l-.12.888c.216.132.768.24 1.164.24zm5.484-2.556c.852 0 1.584-.336 2.184-.828l.072.708h.948v-6.168h-1.092v4.584c-.324.3-1.08.756-1.788.756-.912 0-1.116-.468-1.116-1.32v-4.02h-1.092v4.188c0 1.38.576 2.1 1.884 2.1zm6.204-.12v-4.596c.324-.288 1.092-.744 1.8-.744.84 0 1.152.468 1.152 1.32V192h1.092v-4.188c0-1.392-.576-2.112-1.896-2.112-.852 0-1.62.384-2.22.864l-.06-.732h-.96V192h1.092zm8.34.144c1.236 0 2.328-.6 2.532-2.028l-.96-.204c-.156.912-.696 1.32-1.536 1.32-.984 0-1.728-.552-1.728-2.388 0-1.752.876-2.232 1.764-2.232.864 0 1.284.468 1.38 1.38l1.044-.144c-.084-1.428-.996-2.148-2.376-2.148-1.848 0-2.952 1.128-2.952 3.276 0 1.848.792 3.168 2.832 3.168zm5.94 0c.576 0 1.212-.204 1.512-.408l-.192-.792c-.264.144-.708.3-1.08.3-.744 0-.888-.36-.888-1.008v-3.528h1.704v-.876h-1.704v-1.956l-1.092.168v1.788h-.948v.876h.948v3.672c0 1.236.588 1.764 1.74 1.764zm3.18-7.5c.492 0 .78-.288.78-.792s-.288-.78-.78-.78c-.492 0-.768.276-.768.78s.276.792.768.792zm.528 7.356v-6.168H87.12V192h1.092zm4.356.144c2.076 0 2.916-1.32 2.916-3.348 0-1.836-.804-3.096-2.76-3.096-1.968 0-3 1.248-3 3.24 0 1.824.708 3.204 2.844 3.204zm.06-.876c-1.2 0-1.776-.744-1.776-2.376 0-1.644.732-2.292 1.824-2.292 1.068 0 1.668.564 1.668 2.268 0 1.752-.648 2.4-1.716 2.4zm5.508.732v-4.596c.324-.288 1.092-.744 1.8-.744.84 0 1.152.468 1.152 1.32V192h1.092v-4.188c0-1.392-.576-2.112-1.896-2.112-.852 0-1.62.384-2.22.864l-.06-.732h-.96V192h1.092zm7.848.144c1.5 0 2.412-.696 2.412-1.872 0-1.38-1.068-1.608-2.196-1.848-.864-.18-1.368-.36-1.368-.996 0-.468.288-.864 1.188-.864.9 0 1.14.432 1.284 1.14l.984-.216c-.192-1.092-.792-1.788-2.256-1.788-1.248 0-2.28.612-2.28 1.86 0 1.44 1.212 1.656 2.22 1.86.84.168 1.344.288 1.344.972 0 .66-.54.888-1.284.888-1.092 0-1.368-.528-1.536-1.188l-.972.264c.192 1.236 1.044 1.788 2.46 1.788zM169.548 126l.852-2.58h3.336l.876 2.58h1.212l-3.024-8.688h-1.44L168.432 126h1.116zm3.912-3.528h-2.796l1.392-4.152h.012l1.392 4.152zm5.736 3.672c.888 0 1.512-.336 2.04-.816l.012.012.084.66h.912v-9.06h-1.068v3.336c-.432-.348-1.02-.576-1.728-.576-1.368 0-2.604.876-2.604 3.312 0 2.244.948 3.132 2.352 3.132zm.324-.912c-1.08 0-1.548-.72-1.548-2.22 0-1.428.432-2.376 1.62-2.376.708 0 1.284.324 1.572.54v3.3c-.384.384-1.008.756-1.644.756zm7.32.768l2.316-6.168h-1.116l-1.788 5.076h-.012l-1.812-5.076h-1.188l2.352 6.168h1.248zm5.82.144c1.236 0 2.196-.588 2.448-1.788l-.96-.216c-.168.696-.576 1.092-1.452 1.092-.984 0-1.68-.492-1.728-2.064h4.152c.036-.288.048-.564.048-.804 0-1.524-.72-2.664-2.448-2.664-1.584 0-2.904.972-2.904 3.228 0 1.692.66 3.216 2.844 3.216zm1.38-3.84h-3.06c.06-1.224.852-1.716 1.668-1.716.972 0 1.392.612 1.392 1.716zm3.804 3.696v-4.488c.504-.468 1.416-.78 2.184-.672v-1.128l-.228-.012c-.864 0-1.512.288-2.052 1.02l-.084-.888h-.912V126h1.092zm6.084.144c1.428 0 2.604-.972 2.604-3.372 0-2.268-.972-3.072-2.244-3.072-.9 0-1.548.336-2.088.816v-3.576h-1.08V126h.948l.06-.54h.012c.444.348 1.056.684 1.788.684zm-.132-.924c-.708 0-1.308-.432-1.584-.636v-3.192c.36-.348 1.044-.768 1.728-.768 1.02 0 1.464.672 1.464 2.136 0 1.5-.444 2.46-1.608 2.46zm6.252.924c1.5 0 2.412-.696 2.412-1.872 0-1.38-1.068-1.608-2.196-1.848-.864-.18-1.368-.36-1.368-.996 0-.468.288-.864 1.188-.864.9 0 1.14.432 1.284 1.14l.984-.216c-.192-1.092-.792-1.788-2.256-1.788-1.248 0-2.28.612-2.28 1.86 0 1.44 1.212 1.656 2.22 1.86.84.168 1.344.288 1.344.972 0 .66-.54.888-1.284.888-1.092 0-1.368-.528-1.536-1.188l-.972.264c.192 1.236 1.044 1.788 2.46 1.788zm8.916 0c2.076 0 2.916-1.32 2.916-3.348 0-1.836-.804-3.096-2.76-3.096-1.968 0-3 1.248-3 3.24 0 1.824.708 3.204 2.844 3.204zm.06-.876c-1.2 0-1.776-.744-1.776-2.376 0-1.644.732-2.292 1.824-2.292 1.068 0 1.668.564 1.668 2.268 0 1.752-.648 2.4-1.716 2.4zm5.64.732v-5.292h1.716v-.876h-1.716V118.8c0-.864.396-1.092.96-1.092.288 0 .624.072.864.156l.048-.84c-.204-.096-.624-.204-1.128-.204-1.176 0-1.836.66-1.836 2.016v.996h-.912v.876h.912V126h1.092zm6.468 0v-7.512h.024l2.58 7.512h1.152l2.628-7.5h.012v7.5h1.044v-8.688h-1.656l-2.556 7.392h-.012l-2.556-7.392h-1.68V126h1.02zm11.088.144c.864 0 1.5-.276 1.98-.756.06.396.336.732.948.732.3 0 .612-.072.852-.192l-.048-.684c-.156.048-.264.072-.372.072-.312 0-.372-.144-.372-.48v-3.012c0-1.536-.684-2.124-2.208-2.124-1.428 0-2.172.54-2.364 1.692l.96.18c.132-.684.456-1.02 1.308-1.02 1.008 0 1.224.48 1.224 1.26v.6c-.168-.012-.348-.024-.54-.024-1.74 0-3.192.456-3.192 2.1 0 .6.264 1.656 1.824 1.656zm.336-.852c-.84 0-1.032-.456-1.032-.984 0-1.056 1.14-1.14 1.992-1.14.228 0 .456.012.624.036v1.392c-.336.36-.948.696-1.584.696zm5.772.708v-4.596c.324-.288 1.092-.744 1.8-.744.84 0 1.152.468 1.152 1.32V126h1.092v-4.188c0-1.392-.576-2.112-1.896-2.112-.852 0-1.62.384-2.22.864l-.06-.732h-.96V126h1.092zm6.984 0v-4.596c.324-.288 1.092-.744 1.8-.744.84 0 1.152.468 1.152 1.32V126h1.092v-4.188c0-1.392-.576-2.112-1.896-2.112-.852 0-1.62.384-2.22.864l-.06-.732h-.96V126h1.092zm8.352.144c1.236 0 2.196-.588 2.448-1.788l-.96-.216c-.168.696-.576 1.092-1.452 1.092-.984 0-1.68-.492-1.728-2.064h4.152c.036-.288.048-.564.048-.804 0-1.524-.72-2.664-2.448-2.664-1.584 0-2.904.972-2.904 3.228 0 1.692.66 3.216 2.844 3.216zm1.38-3.84h-3.06c.06-1.224.852-1.716 1.668-1.716.972 0 1.392.612 1.392 1.716zm3.804 3.696v-4.488c.504-.468 1.416-.78 2.184-.672v-1.128l-.228-.012c-.864 0-1.512.288-2.052 1.02l-.084-.888h-.912V126h1.092zM169.548 159l.852-2.58h3.336l.876 2.58h1.212l-3.024-8.688h-1.44L168.432 159h1.116zm3.912-3.528h-2.796l1.392-4.152h.012l1.392 4.152zm4.848 3.528v-9.06h-1.092V159h1.092zm3.828.144c.576 0 1.212-.204 1.512-.408l-.192-.792c-.264.144-.708.3-1.08.3-.744 0-.888-.36-.888-1.008v-3.528h1.704v-.876h-1.704v-1.956l-1.092.168v1.788h-.948v.876h.948v3.672c0 1.236.588 1.764 1.74 1.764zm3.708-.144v-4.596c.324-.288 1.092-.744 1.8-.744.84 0 1.152.468 1.152 1.32V159h1.092v-4.188c0-1.392-.576-2.112-1.884-2.112-.864 0-1.572.36-2.172.828v-3.588h-1.08V159h1.092zm8.352.144c2.076 0 2.916-1.32 2.916-3.348 0-1.836-.804-3.096-2.76-3.096-1.968 0-3 1.248-3 3.24 0 1.824.708 3.204 2.844 3.204zm.06-.876c-1.2 0-1.776-.744-1.776-2.376 0-1.644.732-2.292 1.824-2.292 1.068 0 1.668.564 1.668 2.268 0 1.752-.648 2.4-1.716 2.4zm6.276.852c.852 0 1.584-.336 2.184-.828l.072.708h.948v-6.168h-1.092v4.584c-.324.3-1.08.756-1.788.756-.912 0-1.116-.468-1.116-1.32v-4.02h-1.092v4.188c0 1.38.576 2.1 1.884 2.1zm7.296 2.592c1.548 0 3.168-.456 3.168-1.968 0-1.212-.744-1.524-2.016-1.608l-1.716-.12c-.66-.048-.792-.228-.792-.468 0-.252.216-.42.384-.576.312.108.696.144 1.104.144 1.416 0 2.52-.816 2.52-2.208 0-.504-.156-.996-.456-1.344.312-.096.804-.156 1.176-.132v-.876c-.18-.06-.348-.096-.54-.096-.456 0-.78.36-.972.804-.408-.408-1.032-.564-1.788-.564-1.596 0-2.616.912-2.616 2.268 0 .792.348 1.428.912 1.728-.432.336-.816.684-.816 1.212 0 .444.252.684.672.852v.012c-.504.24-.996.72-.996 1.416 0 .732.468 1.524 2.772 1.524zm.084-5.496c-1.092 0-1.536-.516-1.536-1.32 0-.948.696-1.32 1.56-1.32.924 0 1.488.42 1.488 1.344 0 .828-.612 1.296-1.512 1.296zm.048 4.632c-1.392 0-1.812-.348-1.812-.864 0-.408.216-.66.684-.972l2.004.12c.84.06 1.032.3 1.032.744 0 .648-.636.972-1.908.972zm5.4-1.848v-4.596c.324-.288 1.092-.744 1.8-.744.84 0 1.152.468 1.152 1.32V159h1.092v-4.188c0-1.392-.576-2.112-1.884-2.112-.864 0-1.572.36-2.172.828v-3.588h-1.08V159h1.092zM171.888 192c1.884 0 3.216-.576 3.216-2.352 0-1.2-.66-1.968-2.076-2.148v-.024c.948-.216 1.728-.816 1.728-2.04 0-1.188-.564-2.124-2.616-2.124h-2.988V192h2.736zm-.384-4.884h-1.26v-2.892h1.584c1.188 0 1.812.288 1.812 1.368 0 1.26-1.188 1.524-2.136 1.524zm.228 3.96h-1.488v-3.048h1.728c1.104 0 1.968.396 1.968 1.548 0 1.308-.948 1.5-2.208 1.5zm7.236 1.068c1.236 0 2.196-.588 2.448-1.788l-.96-.216c-.168.696-.576 1.092-1.452 1.092-.984 0-1.68-.492-1.728-2.064h4.152c.036-.288.048-.564.048-.804 0-1.524-.72-2.664-2.448-2.664-1.584 0-2.904.972-2.904 3.228 0 1.692.66 3.216 2.844 3.216zm1.38-3.84h-3.06c.06-1.224.852-1.716 1.668-1.716.972 0 1.392.612 1.392 1.716zm5.16 3.84c1.236 0 2.328-.6 2.532-2.028l-.96-.204c-.156.912-.696 1.32-1.536 1.32-.984 0-1.728-.552-1.728-2.388 0-1.752.876-2.232 1.764-2.232.864 0 1.284.468 1.38 1.38l1.044-.144c-.084-1.428-.996-2.148-2.376-2.148-1.848 0-2.952 1.128-2.952 3.276 0 1.848.792 3.168 2.832 3.168zm5.532 0c.864 0 1.5-.276 1.98-.756.06.396.336.732.948.732.3 0 .612-.072.852-.192l-.048-.684c-.156.048-.264.072-.372.072-.312 0-.372-.144-.372-.48v-3.012c0-1.536-.684-2.124-2.208-2.124-1.428 0-2.172.54-2.364 1.692l.96.18c.132-.684.456-1.02 1.308-1.02 1.008 0 1.224.48 1.224 1.26v.6c-.168-.012-.348-.024-.54-.024-1.74 0-3.192.456-3.192 2.1 0 .6.264 1.656 1.824 1.656zm.336-.852c-.84 0-1.032-.456-1.032-.984 0-1.056 1.14-1.14 1.992-1.14.228 0 .456.012.624.036v1.392c-.336.36-.948.696-1.584.696zm6.54.828c.852 0 1.584-.336 2.184-.828l.072.708h.948v-6.168h-1.092v4.584c-.324.3-1.08.756-1.788.756-.912 0-1.116-.468-1.116-1.32v-4.02h-1.092v4.188c0 1.38.576 2.1 1.884 2.1zm7.068.024c1.5 0 2.412-.696 2.412-1.872 0-1.38-1.068-1.608-2.196-1.848-.864-.18-1.368-.36-1.368-.996 0-.468.288-.864 1.188-.864.9 0 1.14.432 1.284 1.14l.984-.216c-.192-1.092-.792-1.788-2.256-1.788-1.248 0-2.28.612-2.28 1.86 0 1.44 1.212 1.656 2.22 1.86.84.168 1.344.288 1.344.972 0 .66-.54.888-1.284.888-1.092 0-1.368-.528-1.536-1.188l-.972.264c.192 1.236 1.044 1.788 2.46 1.788zm6.348 0c1.236 0 2.196-.588 2.448-1.788l-.96-.216c-.168.696-.576 1.092-1.452 1.092-.984 0-1.68-.492-1.728-2.064h4.152c.036-.288.048-.564.048-.804 0-1.524-.72-2.664-2.448-2.664-1.584 0-2.904.972-2.904 3.228 0 1.692.66 3.216 2.844 3.216zm1.38-3.84h-3.06c.06-1.224.852-1.716 1.668-1.716.972 0 1.392.612 1.392 1.716zM354.804 126v-8.688h-.624c-.552.636-1.284.912-2.4 1.008l.084.888c.396 0 1.452-.156 1.86-.396V126h1.08zm4.788.144c2.364 0 2.916-1.908 2.916-4.62 0-2.424-.42-4.368-2.784-4.368-2.328 0-2.976 1.944-2.976 4.512 0 2.58.48 4.476 2.844 4.476zm.048-.9c-1.548 0-1.8-1.476-1.8-3.54 0-2.232.36-3.624 1.848-3.624 1.476 0 1.728 1.392 1.728 3.528 0 2.184-.3 3.636-1.776 3.636zM354.912 159v-8.688h-.624c-.552.636-1.284.912-2.4 1.008l.084.888c.396 0 1.452-.156 1.86-.396V159h1.08zm6.78 0v-2.136h1.032v-.936h-1.02v-5.616h-1.368l-3.708 5.736v.816h4.008V159h1.056zm-1.044-3.072h-2.94l2.94-4.536v4.536zM359.208 192L362.748 184.152 362.748 183.312 357.276 183.312 357.276 184.272 361.596 184.272 358.044 192zM391.116 126.144c2.592 0 3.084-2.484 3.084-4.776 0-2.268-.48-4.212-2.724-4.212-1.62 0-2.76 1.044-2.76 2.928 0 1.596.768 2.592 2.292 2.592.912 0 1.728-.456 2.136-.912-.036 1.848-.48 3.48-1.968 3.48-.78 0-1.284-.324-1.512-1.284l-.984.288c.264 1.392 1.224 1.896 2.436 1.896zm.108-4.38c-.948 0-1.416-.6-1.416-1.716 0-1.368.672-1.992 1.584-1.992 1.428 0 1.632 1.452 1.692 2.76-.444.528-1.14.948-1.86.948zm6.66 4.38c1.692 0 2.796-1.032 2.796-2.592 0-1.332-.72-2.004-1.848-2.208v-.036c.768-.192 1.692-.792 1.692-2.1 0-1.236-.816-2.052-2.34-2.052-1.284 0-2.34.48-2.628 1.932l.972.216c.216-.792.516-1.236 1.536-1.236 1.032 0 1.368.576 1.368 1.296 0 .96-.72 1.596-1.932 1.596h-.552v.924h.78c1.092 0 1.824.408 1.824 1.644 0 1.2-.768 1.68-1.644 1.68-1.152 0-1.368-.552-1.524-1.296l-1.032.216c.168 1.44 1.176 2.016 2.532 2.016zm5.76-4.632c1.308 0 1.992-.924 1.992-2.268 0-1.26-.552-2.088-1.896-2.088-1.332 0-2.016.924-2.016 2.244 0 1.116.48 2.112 1.92 2.112zm.216 4.68l5.256-8.88h-.972l-5.268 8.88h.984zm-.18-5.472c-.792 0-1.008-.564-1.008-1.392 0-.72.24-1.392 1.032-1.392.78 0 .984.564.984 1.356 0 .876-.228 1.428-1.008 1.428zm4.776 5.424c1.308 0 1.992-.924 1.992-2.268 0-1.26-.552-2.088-1.896-2.088-1.332 0-2.016.924-2.016 2.244 0 1.116.48 2.112 1.92 2.112zm.036-.792c-.792 0-1.008-.564-1.008-1.392 0-.72.24-1.392 1.032-1.392.78 0 .984.564.984 1.356 0 .876-.228 1.428-1.008 1.428zM391.32 159.144c1.776 0 2.88-1.032 2.88-2.388 0-1.356-.78-1.896-1.812-2.352 1.008-.528 1.656-1.212 1.656-2.256 0-1.236-.936-1.992-2.508-1.992-1.536 0-2.688.756-2.688 2.28 0 1.044.684 1.716 1.536 2.112-1.056.48-1.824 1.164-1.824 2.364 0 1.236.828 2.232 2.76 2.232zm.168-5.136c-.756-.384-1.524-.84-1.524-1.728 0-.78.576-1.224 1.512-1.224 1.02 0 1.464.408 1.464 1.152 0 .768-.612 1.368-1.452 1.8zm-.132 4.212c-1.224 0-1.68-.576-1.68-1.38 0-.96.684-1.428 1.548-1.836.84.312 1.836.744 1.836 1.752 0 .756-.456 1.464-1.704 1.464zm6.768.924c1.62 0 2.712-1.044 2.712-2.94 0-1.5-.78-2.496-2.304-2.496-.9 0-1.728.468-2.136.924.024-1.572.432-3.576 2.04-3.576.648 0 1.092.24 1.308 1.212l.984-.264c-.264-1.38-1.056-1.848-2.184-1.848-2.628 0-3.204 2.832-3.204 4.776 0 2.268.516 4.212 2.784 4.212zm.036-.888c-1.38 0-1.632-1.38-1.704-2.688.444-.468 1.152-.936 1.86-.936.96 0 1.416.54 1.416 1.656 0 1.32-.66 1.968-1.572 1.968zm5.484-3.744c1.308 0 1.992-.924 1.992-2.268 0-1.26-.552-2.088-1.896-2.088-1.332 0-2.016.924-2.016 2.244 0 1.116.48 2.112 1.92 2.112zm.216 4.68l5.256-8.88h-.972l-5.268 8.88h.984zm-.18-5.472c-.792 0-1.008-.564-1.008-1.392 0-.72.24-1.392 1.032-1.392.78 0 .984.564.984 1.356 0 .876-.228 1.428-1.008 1.428zm4.776 5.424c1.308 0 1.992-.924 1.992-2.268 0-1.26-.552-2.088-1.896-2.088-1.332 0-2.016.924-2.016 2.244 0 1.116.48 2.112 1.92 2.112zm.036-.792c-.792 0-1.008-.564-1.008-1.392 0-.72.24-1.392 1.032-1.392.78 0 .984.564.984 1.356 0 .876-.228 1.428-1.008 1.428zM391.464 192.144c2.592 0 3.084-2.484 3.084-4.776 0-2.268-.48-4.212-2.724-4.212-1.62 0-2.76 1.044-2.76 2.928 0 1.596.768 2.592 2.292 2.592.912 0 1.728-.456 2.136-.912-.036 1.848-.48 3.48-1.968 3.48-.78 0-1.284-.324-1.512-1.284l-.984.288c.264 1.392 1.224 1.896 2.436 1.896zm.108-4.38c-.948 0-1.416-.6-1.416-1.716 0-1.368.672-1.992 1.584-1.992 1.428 0 1.632 1.452 1.692 2.76-.444.528-1.14.948-1.86.948zm6.024 4.236l3.54-7.848v-.84h-5.472v.96h4.32L396.432 192h1.164zm6.048-4.488c1.308 0 1.992-.924 1.992-2.268 0-1.26-.552-2.088-1.896-2.088-1.332 0-2.016.924-2.016 2.244 0 1.116.48 2.112 1.92 2.112zm.216 4.68l5.256-8.88h-.972l-5.268 8.88h.984zm-.18-5.472c-.792 0-1.008-.564-1.008-1.392 0-.72.24-1.392 1.032-1.392.78 0 .984.564.984 1.356 0 .876-.228 1.428-1.008 1.428zm4.776 5.424c1.308 0 1.992-.924 1.992-2.268 0-1.26-.552-2.088-1.896-2.088-1.332 0-2.016.924-2.016 2.244 0 1.116.48 2.112 1.92 2.112zm.036-.792c-.792 0-1.008-.564-1.008-1.392 0-.72.24-1.392 1.032-1.392.78 0 .984.564.984 1.356 0 .876-.228 1.428-1.008 1.428z"/>
        <path fill="#6F6F6F" fill-rule="nonzero" d="M40.416 97.144c1.524 0 3.096-.648 3.396-2.568l-.996-.204c-.276 1.224-.948 1.824-2.328 1.824-1.74 0-2.748-1.008-2.748-3.504 0-2.388 1.092-3.576 2.892-3.576 1.428 0 2.04.708 2.208 2.064l1.032-.108c-.132-2.028-1.404-2.916-3.228-2.916-2.472 0-4.044 1.704-4.044 4.632 0 2.604 1.092 4.356 3.816 4.356zm6.384 0c.864 0 1.5-.276 1.98-.756.06.396.336.732.948.732.3 0 .612-.072.852-.192l-.048-.684c-.156.048-.264.072-.372.072-.312 0-.372-.144-.372-.48v-3.012c0-1.536-.684-2.124-2.208-2.124-1.428 0-2.172.54-2.364 1.692l.96.18c.132-.684.456-1.02 1.308-1.02 1.008 0 1.224.48 1.224 1.26v.6c-.168-.012-.348-.024-.54-.024-1.74 0-3.192.456-3.192 2.1 0 .6.264 1.656 1.824 1.656zm.336-.852c-.84 0-1.032-.456-1.032-.984 0-1.056 1.14-1.14 1.992-1.14.228 0 .456.012.624.036v1.392c-.336.36-.948.696-1.584.696zm6.612.852c.576 0 1.212-.204 1.512-.408l-.192-.792c-.264.144-.708.3-1.08.3-.744 0-.888-.36-.888-1.008v-3.528h1.704v-.876H53.1v-1.956l-1.092.168v1.788h-.948v.876h.948v3.672c0 1.236.588 1.764 1.74 1.764zm5.076 0c1.236 0 2.196-.588 2.448-1.788l-.96-.216c-.168.696-.576 1.092-1.452 1.092-.984 0-1.68-.492-1.728-2.064h4.152c.036-.288.048-.564.048-.804 0-1.524-.72-2.664-2.448-2.664-1.584 0-2.904.972-2.904 3.228 0 1.692.66 3.216 2.844 3.216zm1.38-3.84h-3.06c.06-1.224.852-1.716 1.668-1.716.972 0 1.392.612 1.392 1.716zm4.896 6.408c1.548 0 3.168-.456 3.168-1.968 0-1.212-.744-1.524-2.016-1.608l-1.716-.12c-.66-.048-.792-.228-.792-.468 0-.252.216-.42.384-.576.312.108.696.144 1.104.144 1.416 0 2.52-.816 2.52-2.208 0-.504-.156-.996-.456-1.344.312-.096.804-.156 1.176-.132v-.876c-.18-.06-.348-.096-.54-.096-.456 0-.78.36-.972.804-.408-.408-1.032-.564-1.788-.564-1.596 0-2.616.912-2.616 2.268 0 .792.348 1.428.912 1.728-.432.336-.816.684-.816 1.212 0 .444.252.684.672.852v.012c-.504.24-.996.72-.996 1.416 0 .732.468 1.524 2.772 1.524zm.084-5.496c-1.092 0-1.536-.516-1.536-1.32 0-.948.696-1.32 1.56-1.32.924 0 1.488.42 1.488 1.344 0 .828-.612 1.296-1.512 1.296zm.048 4.632c-1.392 0-1.812-.348-1.812-.864 0-.408.216-.66.684-.972l2.004.12c.84.06 1.032.3 1.032.744 0 .648-.636.972-1.908.972zM72 97.144c2.076 0 2.916-1.32 2.916-3.348 0-1.836-.804-3.096-2.76-3.096-1.968 0-3 1.248-3 3.24 0 1.824.708 3.204 2.844 3.204zm.06-.876c-1.2 0-1.776-.744-1.776-2.376 0-1.644.732-2.292 1.824-2.292 1.068 0 1.668.564 1.668 2.268 0 1.752-.648 2.4-1.716 2.4zm5.508.732v-4.488c.504-.468 1.416-.78 2.184-.672v-1.128l-.228-.012c-.864 0-1.512.288-2.052 1.02l-.084-.888h-.912V97h1.092zm3.372 2.676c.972 0 1.536-.468 2.028-1.776l2.664-7.068h-1.116l-1.692 4.896h-.012l-1.632-4.896h-1.212l2.292 6.24-.288.756c-.276.732-.66.96-1.104.96-.324 0-.756-.108-.984-.192l-.132.852c.24.108.732.228 1.188.228zM170.184 97v-7.284L174.456 97h1.332v-8.688h-1.02v7.212l-4.164-7.212h-1.452V97h1.032zm9.252.144c.864 0 1.5-.276 1.98-.756.06.396.336.732.948.732.3 0 .612-.072.852-.192l-.048-.684c-.156.048-.264.072-.372.072-.312 0-.372-.144-.372-.48v-3.012c0-1.536-.684-2.124-2.208-2.124-1.428 0-2.172.54-2.364 1.692l.96.18c.132-.684.456-1.02 1.308-1.02 1.008 0 1.224.48 1.224 1.26v.6c-.168-.012-.348-.024-.54-.024-1.74 0-3.192.456-3.192 2.1 0 .6.264 1.656 1.824 1.656zm.336-.852c-.84 0-1.032-.456-1.032-.984 0-1.056 1.14-1.14 1.992-1.14.228 0 .456.012.624.036v1.392c-.336.36-.948.696-1.584.696zm5.772.708v-4.608c.324-.3 1.08-.732 1.704-.732.792 0 .96.468.96 1.296V97h1.092v-4.2c0-.156-.012-.312-.024-.456.36-.3 1.068-.684 1.656-.684.792 0 .96.468.96 1.296V97h1.092v-4.2c0-1.38-.456-2.1-1.752-2.1-.84 0-1.536.372-2.136.852-.24-.576-.732-.852-1.548-.852-.84 0-1.488.36-2.1.828l-.06-.696h-.936V97h1.092zm11.76.144c1.236 0 2.196-.588 2.448-1.788l-.96-.216c-.168.696-.576 1.092-1.452 1.092-.984 0-1.68-.492-1.728-2.064h4.152c.036-.288.048-.564.048-.804 0-1.524-.72-2.664-2.448-2.664-1.584 0-2.904.972-2.904 3.228 0 1.692.66 3.216 2.844 3.216zm1.38-3.84h-3.06c.06-1.224.852-1.716 1.668-1.716.972 0 1.392.612 1.392 1.716zM314.8 97.72l.648-.612-1.068-1.152c.768-.828 1.128-1.98 1.128-3.468 0-2.412-1.2-4.332-3.828-4.332-2.652 0-4.08 1.92-4.08 4.5 0 2.604 1.236 4.488 3.9 4.488.876 0 1.608-.18 2.196-.612l1.104 1.188zm-3.24-1.524c-1.668 0-2.808-1.2-2.808-3.552 0-2.316 1.212-3.516 2.892-3.516 1.656 0 2.748 1.176 2.748 3.468 0 1.128-.252 1.992-.696 2.64l-1.572-1.728-.684.648 1.584 1.668c-.42.252-.924.372-1.464.372zm7.38.924c.852 0 1.584-.336 2.184-.828l.072.708h.948v-6.168h-1.092v4.584c-.324.3-1.08.756-1.788.756-.912 0-1.116-.468-1.116-1.32v-4.02h-1.092v4.188c0 1.38.576 2.1 1.884 2.1zm7.572.024c1.236 0 2.196-.588 2.448-1.788l-.96-.216c-.168.696-.576 1.092-1.452 1.092-.984 0-1.68-.492-1.728-2.064h4.152c.036-.288.048-.564.048-.804 0-1.524-.72-2.664-2.448-2.664-1.584 0-2.904.972-2.904 3.228 0 1.692.66 3.216 2.844 3.216zm1.38-3.84h-3.06c.06-1.224.852-1.716 1.668-1.716.972 0 1.392.612 1.392 1.716zm4.668 3.84c1.5 0 2.412-.696 2.412-1.872 0-1.38-1.068-1.608-2.196-1.848-.864-.18-1.368-.36-1.368-.996 0-.468.288-.864 1.188-.864.9 0 1.14.432 1.284 1.14l.984-.216c-.192-1.092-.792-1.788-2.256-1.788-1.248 0-2.28.612-2.28 1.86 0 1.44 1.212 1.656 2.22 1.86.84.168 1.344.288 1.344.972 0 .66-.54.888-1.284.888-1.092 0-1.368-.528-1.536-1.188l-.972.264c.192 1.236 1.044 1.788 2.46 1.788zm5.82 0c.576 0 1.212-.204 1.512-.408l-.192-.792c-.264.144-.708.3-1.08.3-.744 0-.888-.36-.888-1.008v-3.528h1.704v-.876h-1.704v-1.956l-1.092.168v1.788h-.948v.876h.948v3.672c0 1.236.588 1.764 1.74 1.764zm3.18-7.5c.492 0 .78-.288.78-.792s-.288-.78-.78-.78c-.492 0-.768.276-.768.78s.276.792.768.792zm.528 7.356v-6.168h-1.092V97h1.092zm4.356.144c2.076 0 2.916-1.32 2.916-3.348 0-1.836-.804-3.096-2.76-3.096-1.968 0-3 1.248-3 3.24 0 1.824.708 3.204 2.844 3.204zm.06-.876c-1.2 0-1.776-.744-1.776-2.376 0-1.644.732-2.292 1.824-2.292 1.068 0 1.668.564 1.668 2.268 0 1.752-.648 2.4-1.716 2.4zm5.508.732v-4.596c.324-.288 1.092-.744 1.8-.744.84 0 1.152.468 1.152 1.32V97h1.092v-4.188c0-1.392-.576-2.112-1.896-2.112-.852 0-1.62.384-2.22.864l-.06-.732h-.96V97h1.092zm7.848.144c1.5 0 2.412-.696 2.412-1.872 0-1.38-1.068-1.608-2.196-1.848-.864-.18-1.368-.36-1.368-.996 0-.468.288-.864 1.188-.864.9 0 1.14.432 1.284 1.14l.984-.216c-.192-1.092-.792-1.788-2.256-1.788-1.248 0-2.28.612-2.28 1.86 0 1.44 1.212 1.656 2.22 1.86.84.168 1.344.288 1.344.972 0 .66-.54.888-1.284.888-1.092 0-1.368-.528-1.536-1.188l-.972.264c.192 1.236 1.044 1.788 2.46 1.788zM382.432 97.144c1.608 0 3.072-.72 3.072-2.556 0-1.68-1.38-2.088-2.652-2.46-1.08-.324-2.076-.624-2.076-1.68 0-.768.48-1.356 1.812-1.356 1.344 0 1.68.804 1.812 1.632l1.032-.12c-.18-1.86-1.332-2.448-2.856-2.448-1.68 0-2.928.912-2.928 2.4 0 1.788 1.404 2.16 2.688 2.52 1.068.3 2.04.588 2.04 1.668 0 1.152-.996 1.464-1.932 1.464-1.488 0-1.92-.804-2.124-1.728l-1.056.156c.228 1.788 1.356 2.508 3.168 2.508zm6.984 0c1.236 0 2.328-.6 2.532-2.028l-.96-.204c-.156.912-.696 1.32-1.536 1.32-.984 0-1.728-.552-1.728-2.388 0-1.752.876-2.232 1.764-2.232.864 0 1.284.468 1.38 1.38l1.044-.144c-.084-1.428-.996-2.148-2.376-2.148-1.848 0-2.952 1.128-2.952 3.276 0 1.848.792 3.168 2.832 3.168zm6.468 0c2.076 0 2.916-1.32 2.916-3.348 0-1.836-.804-3.096-2.76-3.096-1.968 0-3 1.248-3 3.24 0 1.824.708 3.204 2.844 3.204zm.06-.876c-1.2 0-1.776-.744-1.776-2.376 0-1.644.732-2.292 1.824-2.292 1.068 0 1.668.564 1.668 2.268 0 1.752-.648 2.4-1.716 2.4zm5.508.732v-4.488c.504-.468 1.416-.78 2.184-.672v-1.128l-.228-.012c-.864 0-1.512.288-2.052 1.02l-.084-.888h-.912V97h1.092zm5.736.144c1.236 0 2.196-.588 2.448-1.788l-.96-.216c-.168.696-.576 1.092-1.452 1.092-.984 0-1.68-.492-1.728-2.064h4.152c.036-.288.048-.564.048-.804 0-1.524-.72-2.664-2.448-2.664-1.584 0-2.904.972-2.904 3.228 0 1.692.66 3.216 2.844 3.216zm1.38-3.84h-3.06c.06-1.224.852-1.716 1.668-1.716.972 0 1.392.612 1.392 1.716z"/>
        <path fill="#E0E0E0" d="M24 105H423V106H24zM24 138H423V139H24zM24 171H423V172H24z"/>
        <g fill="#9B9B9B" fill-rule="nonzero">
            <path d="M11 10H1c-.552 0-1 .448-1 1s.448 1 1 1h10c.552 0 1-.448 1-1s-.448-1-1-1zM10 3L7 3 7 0 5 0 5 3 2 3 6 8z" transform="translate(349 22)"/>
        </g>
    </g>
</svg>
