<svg xmlns="http://www.w3.org/2000/svg" width="96" height="80" viewBox="0 0 96 80">
    <g fill="none" fill-rule="evenodd">
        <path d="M0 0h96v80H0z"/>
        <g transform="translate(2 5)">
            <rect width="58" height="70" x="17" fill="#F8F6F6" stroke="#BBBABA" rx="1"/>
            <rect width="24" height="2" x="25" y="13" fill="#B4B4B4" rx="1"/>
            <rect width="40" height="2" x="25" y="41" fill="#B4B4B4" rx="1"/>
            <rect width="32" height="2" x="25" y="27" fill="#B4B4B4" rx="1"/>
            <rect width="25" height="2" x="25" y="55" fill="#B4B4B4" rx="1"/>
            <g transform="translate(52 26)">
                <path fill="#C79765" fill-rule="nonzero" d="M38.222 40c-.455 0-.91-.174-1.257-.52l-10.02-10.02a1.777 1.777 0 1 1 2.514-2.514l10.02 10.02A1.777 1.777 0 0 1 38.222 40z"/>
                <circle cx="16.889" cy="16.889" r="16" fill="#CEE5F9" fill-rule="nonzero"/>
                <rect width="16" height="4" x="1" y="14" fill="#99C8F0" rx="1"/>
                <path fill="#5A7A84" fill-rule="nonzero" d="M16.889 33.778C7.576 33.778 0 26.2 0 16.888 0 7.577 7.576 0 16.889 0 26.2 0 33.778 7.576 33.778 16.889c0 9.312-7.577 16.889-16.89 16.889zm0-32c-8.333 0-15.111 6.778-15.111 15.11C1.778 25.222 8.556 32 16.888 32 25.222 32 32 25.221 32 16.889c0-8.333-6.779-15.111-15.111-15.111z"/>
            </g>
            <g transform="translate(0 4)">
                <rect width="34" height="19" fill="#01C2A2" rx="2"/>
                <path fill="#FFF" d="M8.29 10.457v1.666H12V14H6V5h5.738v1.865H8.29V8.63h3.257v1.827H8.29zM16.337 5v7.06H20V14h-6V5h2.337zm8 0v7.06H28V14h-6V5h2.337z"/>
            </g>
        </g>
    </g>
</svg>
