<svg xmlns="http://www.w3.org/2000/svg" width="60" height="55" viewBox="0 0 60 55">
    <g fill="none">
        <path fill="#444" d="M57.391 55H2.61C1.167 55 0 53.828 0 52.381V10.476C0 9.03 1.167 7.857 2.609 7.857H57.39c1.442 0 2.609 1.172 2.609 2.62V52.38C60 53.828 58.833 55 57.391 55z"/>
        <path fill="#848484" d="M50.87 48.452H9.13c-.72 0-1.304-.586-1.304-1.31V15.715c0-.723.584-1.31 1.304-1.31h41.74c.72 0 1.304.587 1.304 1.31v31.429c0 .723-.584 1.31-1.304 1.31z"/>
        <path fill="#C6C6C6" d="M54.241.247c-.343-.247-.78-.312-1.175-.18L30 7.787v39.356c.138 0 .278-.022.412-.067L53.89 39.22c.534-.18.893-.678.893-1.243V1.31c0-.42-.201-.816-.542-1.063z"/>
        <path fill="#E6E6E6" d="M30 7.786L6.934.066C6.536-.064 6.099 0 5.759.248c-.34.247-.542.642-.542 1.063v36.666c0 .565.36 1.064.893 1.243l23.478 7.857c.134.045.274.067.412.067V7.786z"/>
    </g>
</svg>
