<svg xmlns="http://www.w3.org/2000/svg" width="104" height="104" viewBox="0 0 104 104">
    <g fill="none" fill-rule="evenodd">
        <circle cx="52" cy="52" r="52" fill="#EA9A1A"/>
        <g fill-rule="nonzero">
            <path fill="#A36500" d="M34.783 2.783h-5.566c-.769 0-1.39.623-1.39 1.39V9.74c0 .768.621 1.391 1.39 1.391h5.566c.769 0 1.39-.623 1.39-1.39V4.173c0-.768-.621-1.391-1.39-1.391z" transform="translate(20 20)"/>
            <path fill="#E6E6E6" d="M57.043 8.348H6.957c-.77 0-1.392.623-1.392 1.391v38.957c0 .768.622 1.391 1.392 1.391.769 0 1.39-.623 1.39-1.391h47.305c0 .768.622 1.391 1.391 1.391.77 0 1.392-.623 1.392-1.391V9.739c0-.768-.622-1.391-1.392-1.391z" transform="translate(20 20)"/>
            <path fill="#A36500" d="M32 61.217c-.77 0-1.391-.623-1.391-1.39V48.695c0-.768.622-1.392 1.391-1.392.77 0 1.391.624 1.391 1.392v11.13c0 .768-.622 1.391-1.391 1.391zM15.303 64c-.305 0-.61-.1-.868-.305-.6-.48-.697-1.355-.217-1.954l11.13-13.914c.483-.598 1.357-.697 1.956-.217.6.48.697 1.356.217 1.955l-11.13 13.913c-.276.344-.679.522-1.088.522zM48.697 64c-.409 0-.812-.178-1.088-.522l-11.13-13.913c-.48-.6-.382-1.476.217-1.955.602-.481 1.476-.38 1.956.217l11.13 13.914c.48.6.381 1.476-.217 1.954-.257.205-.563.305-.868.305z" transform="translate(20 20)"/>
            <path fill="#6B4200" d="M62.609 50.087H1.39c-.77 0-1.391-.623-1.391-1.391s.622-1.392 1.391-1.392H62.61c.77 0 1.391.624 1.391 1.392 0 .768-.622 1.391-1.391 1.391z" transform="translate(20 20)"/>
            <path fill="#98630D" d="M40.348 25.043c-.356 0-.713-.136-.984-.407-.544-.544-.544-1.423 0-1.967L61.625.408c.544-.544 1.423-.544 1.967 0s.544 1.423 0 1.967l-22.26 22.26c-.272.272-.628.408-.984.408z" transform="translate(20 20)"/>
            <path fill="#8E8E8E" d="M29.217 25.043h-11.13c-.768 0-1.391-.621-1.391-1.39 0-.77.623-1.392 1.391-1.392h11.13c.768 0 1.392.622 1.392 1.391 0 .77-.624 1.391-1.392 1.391zM45.913 36.174H18.087c-.768 0-1.391-.622-1.391-1.391 0-.77.623-1.392 1.391-1.392h27.826c.768 0 1.391.622 1.391 1.392 0 .769-.623 1.39-1.391 1.39z" transform="translate(20 20)"/>
        </g>
    </g>
</svg>
