<?xml version="1.0" encoding="utf-8"?>
<!-- Generator: Adobe Illustrator 21.0.2, SVG Export Plug-In . SVG Version: 6.00 Build 0)  -->
<svg version="1.1" id="Layer_1" xmlns="http://www.w3.org/2000/svg" xmlns:xlink="http://www.w3.org/1999/xlink" x="0px" y="0px"
	 viewBox="0 0 23 23" style="enable-background:new 0 0 23 23;" xml:space="preserve">
<style type="text/css">
	.st0{fill:#FFFFFF;}
</style>
<g id="Homepage">
	<g id="Quill-Homepage" transform="translate(-78.000000, -1972.000000)">
		<g id="Group-33" transform="translate(78.000000, 1963.000000)">
			<g id="Group-29" transform="translate(0.000000, 9.000000)">
				<g id="Group-27">
					<path id="Fill-42" class="st0" d="M22.1,4.5c-0.2,0-0.4,0.1-0.6,0.2c-0.8,0.5-1.6,0.7-2.4,0.7c-1.5,0-3-0.7-4.5-1.3
						C13,3.4,11.4,2.7,9.8,2.7C8.8,2.7,8,3,7.1,3.5c-0.5,0.3-0.9,1-0.9,1.6v7.8c0,0.4,0.3,0.6,0.5,0.6c0.2,0,0.4-0.1,0.6-0.2
						c0.8-0.5,1.6-0.7,2.4-0.7c1.5,0,3,0.7,4.5,1.3c1.5,0.7,3.1,1.4,4.7,1.4c1,0,1.9-0.3,2.7-0.8c0.5-0.3,0.9-1,0.9-1.6V5.1
						C22.6,4.6,22.3,4.5,22.1,4.5"/>
					<path id="Fill-44" class="st0" d="M2.2,1C1.2,1,0.4,1.7,0.4,2.6c0,0.5,0.3,1,0.7,1.3c0,0,0,0,0,0.1v17.2c0,0.6,0.5,1,1,1h0
						c0.6,0,1-0.4,1-1V4c0,0,0,0,0-0.1c0.4-0.3,0.7-0.8,0.7-1.3C3.9,1.7,3.1,1,2.2,1"/>
				</g>
			</g>
		</g>
	</g>
</g>
</svg>
