<svg xmlns="http://www.w3.org/2000/svg" width="447" height="224" viewBox="0 0 447 224">
    <g fill="none" fill-rule="evenodd">
        <path fill="#F8F6F6" d="M0 0H447V224H0z"/>
        <path fill="#9B9B9B" fill-rule="nonzero" d="M31 26c1.66 0 2.99-1.34 2.99-3s-1.33-3-2.99-3c-1.66 0-3 1.34-3 3s1.34 3 3 3zm0 2c-2.33 0-7 1.17-7 3.5V34h14v-2.5c0-2.33-4.67-3.5-7-3.5zM169 26c1.66 0 2.99-1.34 2.99-3s-1.33-3-2.99-3c-1.66 0-3 1.34-3 3s1.34 3 3 3zm0 2c-2.33 0-7 1.17-7 3.5V34h14v-2.5c0-2.33-4.67-3.5-7-3.5zM307 26c1.66 0 2.99-1.34 2.99-3s-1.33-3-2.99-3c-1.66 0-3 1.34-3 3s1.34 3 3 3zm0 2c-2.33 0-7 1.17-7 3.5V34h14v-2.5c0-2.33-4.67-3.5-7-3.5z"/>
        <path fill="#3F3F3F" fill-rule="nonzero" d="M45.752 31l.792-2.376H49.7L50.516 31h1.536l-3.048-8.688h-1.788L44.324 31h1.428zm3.624-3.552H46.82l1.272-3.84h.024l1.26 3.84zM54.608 31v-9.06h-1.38V31h1.38zm2.4-7.248c.576 0 .9-.324.9-.912 0-.576-.324-.9-.9-.9-.564 0-.9.324-.9.9 0 .588.336.912.9.912zM57.692 31v-6.204h-1.38V31h1.38zm4.248.144c1.332 0 2.436-.636 2.64-2.124l-1.2-.24c-.144.864-.6 1.236-1.368 1.236-.864 0-1.536-.516-1.536-2.196 0-1.644.768-2.052 1.572-2.052s1.14.528 1.236 1.344l1.272-.18c-.108-1.464-1.08-2.268-2.448-2.268-1.944 0-3.072 1.164-3.072 3.312 0 1.848.852 3.168 2.904 3.168zm6.516 0c1.344 0 2.292-.672 2.532-1.848l-1.176-.288c-.144.636-.48 1.008-1.272 1.008-.9 0-1.524-.468-1.56-1.776H71c.024-.288.036-.576.036-.828 0-1.608-.744-2.748-2.544-2.748-1.62 0-2.964.996-2.964 3.24 0 1.704.696 3.24 2.928 3.24zm1.152-3.864h-2.604c.06-1.104.708-1.524 1.404-1.524.828 0 1.2.468 1.2 1.524zM77.792 31l1.692-6.684h.024L81.188 31h1.788l1.836-8.688h-1.404L82.1 29.5h-.024l-1.8-7.188h-1.524l-1.764 7.128h-.024l-1.38-7.128h-1.476L76.004 31h1.788zm9.588.144c.864 0 1.548-.3 1.968-.756.108.48.396.732 1.044.732.336 0 .732-.084.972-.204l-.048-.816c-.156.048-.264.072-.372.072-.312 0-.372-.144-.372-.48v-2.868c0-1.548-.744-2.16-2.328-2.16-1.524 0-2.268.624-2.46 1.788l1.212.216c.132-.648.384-.96 1.14-.96.912 0 1.08.432 1.08 1.188v.468c-.168-.012-.348-.024-.636-.024-1.668 0-3.036.528-3.036 2.136 0 .612.276 1.668 1.836 1.668zm.492-1.032c-.732 0-.924-.396-.924-.828 0-.912 1.008-.996 1.704-.996.312 0 .456.012.576.024v1.224c-.276.288-.792.576-1.356.576zm5.964.888v-9.06h-1.38V31h1.38zm3.072 0v-2.256l.816-.804L99.512 31h1.512l-2.268-3.972 2.112-2.232H99.32l-2.412 2.508V21.94h-1.38V31h1.38zm7.728.144c1.344 0 2.292-.672 2.532-1.848l-1.176-.288c-.144.636-.48 1.008-1.272 1.008-.9 0-1.524-.468-1.56-1.776h4.02c.024-.288.036-.576.036-.828 0-1.608-.744-2.748-2.544-2.748-1.62 0-2.964.996-2.964 3.24 0 1.704.696 3.24 2.928 3.24zm1.152-3.864h-2.604c.06-1.104.708-1.524 1.404-1.524.828 0 1.2.468 1.2 1.524zm4.2 3.72v-4.308c.516-.456 1.392-.732 2.172-.636v-1.38c-.084 0-.18-.012-.252-.012-.912 0-1.536.36-2.028 1.056l-.108-.924h-1.164V31h1.38zM183.752 31l.792-2.376h3.156l.816 2.376h1.536l-3.048-8.688h-1.788L182.324 31h1.428zm3.624-3.552h-2.556l1.272-3.84h.024l1.26 3.84zm6.168 6.264c1.656 0 3.216-.504 3.216-2.124 0-1.14-.768-1.536-2.064-1.62l-1.764-.108c-.528-.036-.636-.192-.636-.408 0-.18.144-.348.3-.468.324.096.648.12 1.056.12 1.5 0 2.616-.816 2.616-2.22 0-.504-.156-.996-.48-1.368.324-.096.696-.144 1.08-.12v-1.02c-.18-.06-.288-.072-.492-.072-.456 0-.816.348-1.032.852-.42-.36-1.02-.492-1.74-.492-1.668 0-2.676.948-2.676 2.292 0 .792.36 1.404.912 1.716-.456.348-.876.708-.876 1.272 0 .48.276.78.732.936v.036c-.576.192-1.032.6-1.032 1.248 0 .78.576 1.548 2.88 1.548zm.084-5.676c-.96 0-1.356-.444-1.356-1.164 0-.804.588-1.14 1.368-1.14.828 0 1.332.384 1.332 1.164 0 .708-.552 1.14-1.344 1.14zm.048 4.632c-1.164 0-1.68-.228-1.68-.732 0-.336.18-.576.504-.804l1.908.096c.756.036.936.252.936.636 0 .564-.588.804-1.668.804zm5.736-1.524c.864 0 1.548-.3 1.968-.756.108.48.396.732 1.044.732.336 0 .732-.084.972-.204l-.048-.816c-.156.048-.264.072-.372.072-.312 0-.372-.144-.372-.48v-2.868c0-1.548-.744-2.16-2.328-2.16-1.524 0-2.268.624-2.46 1.788l1.212.216c.132-.648.384-.96 1.14-.96.912 0 1.08.432 1.08 1.188v.468c-.168-.012-.348-.024-.636-.024-1.668 0-3.036.528-3.036 2.136 0 .612.276 1.668 1.836 1.668zm.492-1.032c-.732 0-.924-.396-.924-.828 0-.912 1.008-.996 1.704-.996.312 0 .456.012.576.024v1.224c-.276.288-.792.576-1.356.576zm6.66 1.032c.66 0 1.332-.228 1.644-.432l-.228-.984c-.252.144-.684.288-1.056.288-.672 0-.828-.324-.828-.936v-3.264h1.68v-1.02h-1.68v-2.004l-1.38.192v1.812h-.948v1.02h.948v3.456c0 1.32.624 1.872 1.848 1.872zm3.984-.144v-4.524c.3-.276.948-.66 1.572-.66.732 0 1.02.408 1.02 1.188V31h1.38v-4.224c0-1.404-.576-2.112-1.908-2.112-.864 0-1.536.312-2.076.744V21.94h-1.368V31h1.38zm7.164.144c.864 0 1.548-.3 1.968-.756.108.48.396.732 1.044.732.336 0 .732-.084.972-.204l-.048-.816c-.156.048-.264.072-.372.072-.312 0-.372-.144-.372-.48v-2.868c0-1.548-.744-2.16-2.328-2.16-1.524 0-2.268.624-2.46 1.788l1.212.216c.132-.648.384-.96 1.14-.96.912 0 1.08.432 1.08 1.188v.468c-.168-.012-.348-.024-.636-.024-1.668 0-3.036.528-3.036 2.136 0 .612.276 1.668 1.836 1.668zm.492-1.032c-.732 0-.924-.396-.924-.828 0-.912 1.008-.996 1.704-.996.312 0 .456.012.576.024v1.224c-.276.288-.792.576-1.356.576zm10.524 1.032c1.536 0 3.168-.708 3.468-2.676l-1.248-.24c-.252 1.104-.852 1.728-2.148 1.728-1.62 0-2.532-.924-2.532-3.276 0-2.268 1.008-3.312 2.652-3.312 1.296 0 1.884.636 2.028 1.944l1.296-.12c-.132-2.088-1.44-3.036-3.312-3.036-2.58 0-4.104 1.764-4.104 4.62 0 2.628 1.104 4.368 3.9 4.368zm6.108-.144v-4.524c.3-.276.948-.66 1.572-.66.732 0 1.02.408 1.02 1.188V31h1.38v-4.224c0-1.404-.576-2.112-1.908-2.112-.864 0-1.536.312-2.076.744V21.94h-1.368V31h1.38zm6.996 0v-4.308c.516-.456 1.392-.732 2.172-.636v-1.38c-.084 0-.18-.012-.252-.012-.912 0-1.536.36-2.028 1.056l-.108-.924h-1.164V31h1.38zm3.852-7.248c.576 0 .9-.324.9-.912 0-.576-.324-.9-.9-.9-.564 0-.9.324-.9.9 0 .588.336.912.9.912zm.684 7.248v-6.204h-1.38V31h1.38zm3.756.144c1.524 0 2.556-.684 2.556-1.968 0-1.416-1.14-1.668-2.208-1.86-.816-.144-1.344-.312-1.344-.888 0-.408.312-.732 1.068-.732.804 0 1.032.432 1.176 1.044l1.2-.312c-.24-1.08-.912-1.764-2.352-1.764-1.296 0-2.388.624-2.388 1.92 0 1.476 1.2 1.692 2.208 1.896.792.156 1.296.264 1.296.888 0 .528-.48.744-1.164.744-.996 0-1.248-.516-1.404-1.104l-1.176.384c.192 1.152 1.044 1.752 2.532 1.752zm5.94 0c.66 0 1.332-.228 1.644-.432l-.228-.984c-.252.144-.684.288-1.056.288-.672 0-.828-.324-.828-.936v-3.264h1.68v-1.02h-1.68v-2.004l-1.38.192v1.812h-.948v1.02h.948v3.456c0 1.32.624 1.872 1.848 1.872zm3.324-7.392c.576 0 .9-.324.9-.912 0-.576-.324-.9-.9-.9-.564 0-.9.324-.9.9 0 .588.336.912.9.912zm.684 7.248v-6.204h-1.38V31h1.38zm4.272.144c1.344 0 2.292-.672 2.532-1.848l-1.176-.288c-.144.636-.48 1.008-1.272 1.008-.9 0-1.524-.468-1.56-1.776h4.02c.024-.288.036-.576.036-.828 0-1.608-.744-2.748-2.544-2.748-1.62 0-2.964.996-2.964 3.24 0 1.704.696 3.24 2.928 3.24zm1.152-3.864h-2.604c.06-1.104.708-1.524 1.404-1.524.828 0 1.2.468 1.2 1.524zM323.66 31c3.108 0 4.512-1.812 4.512-4.476 0-2.592-1.296-4.212-4.308-4.212h-2.82V31h2.616zm-.012-1.14h-1.2v-6.408h1.308c1.92 0 2.976.744 2.976 3.204 0 2.004-.936 3.204-3.084 3.204zm7.464 1.284c.864 0 1.548-.3 1.968-.756.108.48.396.732 1.044.732.336 0 .732-.084.972-.204l-.048-.816c-.156.048-.264.072-.372.072-.312 0-.372-.144-.372-.48v-2.868c0-1.548-.744-2.16-2.328-2.16-1.524 0-2.268.624-2.46 1.788l1.212.216c.132-.648.384-.96 1.14-.96.912 0 1.08.432 1.08 1.188v.468c-.168-.012-.348-.024-.636-.024-1.668 0-3.036.528-3.036 2.136 0 .612.276 1.668 1.836 1.668zm.492-1.032c-.732 0-.924-.396-.924-.828 0-.912 1.008-.996 1.704-.996.312 0 .456.012.576.024v1.224c-.276.288-.792.576-1.356.576zm5.94.888v-4.524c.3-.276.948-.66 1.572-.66.732 0 1.02.408 1.02 1.188V31h1.38v-4.224c0-1.404-.576-2.112-1.92-2.112-.852 0-1.596.336-2.148.78l-.06-.648h-1.224V31h1.38zm8.208.144c1.344 0 2.292-.672 2.532-1.848l-1.176-.288c-.144.636-.48 1.008-1.272 1.008-.9 0-1.524-.468-1.56-1.776h4.02c.024-.288.036-.576.036-.828 0-1.608-.744-2.748-2.544-2.748-1.62 0-2.964.996-2.964 3.24 0 1.704.696 3.24 2.928 3.24zm1.152-3.864H344.3c.06-1.104.708-1.524 1.404-1.524.828 0 1.2.468 1.2 1.524zm7.224 3.72v-1.128h-3.348l3.204-4.08v-.996h-4.716v1.08h3.18l-3.228 4.14V31h4.908zm6.204.144c1.656 0 3.168-.744 3.168-2.628 0-3.144-4.644-1.944-4.644-4.044 0-.696.468-1.176 1.608-1.176 1.212 0 1.548.684 1.668 1.512l1.296-.156c-.168-1.932-1.428-2.496-2.952-2.496-1.716 0-3.024.912-3.024 2.484 0 3.288 4.644 1.872 4.644 4.068 0 1.032-.876 1.32-1.74 1.32-1.404 0-1.776-.768-1.968-1.656l-1.296.192c.192 1.968 1.524 2.58 3.24 2.58zm5.88-.144v-4.56c.3-.276.936-.624 1.452-.624.684 0 .852.42.852 1.152V31h1.38v-4.26c0-.108 0-.228-.012-.324.3-.276.912-.6 1.404-.6.684 0 .864.42.864 1.152V31h1.38v-4.236c0-1.392-.528-2.1-1.8-2.1-.84 0-1.536.336-2.076.804-.264-.576-.768-.804-1.56-.804-.816 0-1.464.324-2.028.768l-.048-.636h-1.188V31h1.38zm9.672-7.248c.576 0 .9-.324.9-.912 0-.576-.324-.9-.9-.9-.564 0-.9.324-.9.9 0 .588.336.912.9.912zm.684 7.248v-6.204h-1.38V31h1.38zm3.78.144c.66 0 1.332-.228 1.644-.432l-.228-.984c-.252.144-.684.288-1.056.288-.672 0-.828-.324-.828-.936v-3.264h1.68v-1.02h-1.68v-2.004l-1.38.192v1.812h-.948v1.02h.948v3.456c0 1.32.624 1.872 1.848 1.872zm3.984-.144v-4.524c.3-.276.948-.66 1.572-.66.732 0 1.02.408 1.02 1.188V31h1.38v-4.224c0-1.404-.576-2.112-1.908-2.112-.864 0-1.536.312-2.076.744V21.94h-1.368V31h1.38z"/>
        <rect width="122" height="159" x="24" y="46" fill="#FFF" stroke="#E0E0E0" rx="6"/>
        <rect width="122" height="159" x="162" y="46" fill="#FFF" stroke="#E0E0E0" rx="6"/>
        <rect width="122" height="159" x="300" y="46" fill="#FFF" stroke="#E0E0E0" rx="6"/>
        <path fill="#6F6F6F" fill-rule="nonzero" d="M33.82 63v-6.07L37.38 63h1.11v-7.24h-.85v6.01l-3.47-6.01h-1.21V63h.86zm7.71.12c.72 0 1.25-.23 1.65-.63.05.33.28.61.79.61.25 0 .51-.06.71-.16l-.04-.57c-.13.04-.22.06-.31.06-.26 0-.31-.12-.31-.4v-2.51c0-1.28-.57-1.77-1.84-1.77-1.19 0-1.81.45-1.97 1.41l.8.15c.11-.57.38-.85 1.09-.85.84 0 1.02.4 1.02 1.05v.5c-.14-.01-.29-.02-.45-.02-1.45 0-2.66.38-2.66 1.75 0 .5.22 1.38 1.52 1.38zm.28-.71c-.7 0-.86-.38-.86-.82 0-.88.95-.95 1.66-.95.19 0 .38.01.52.03v1.16c-.28.3-.79.58-1.32.58zm4.81.59v-3.84c.27-.25.9-.61 1.42-.61.66 0 .8.39.8 1.08V63h.91v-3.5c0-.13-.01-.26-.02-.38.3-.25.89-.57 1.38-.57.66 0 .8.39.8 1.08V63h.91v-3.5c0-1.15-.38-1.75-1.46-1.75-.7 0-1.28.31-1.78.71-.2-.48-.61-.71-1.29-.71-.7 0-1.24.3-1.75.69l-.05-.58h-.78V63h.91zm9.8.12c1.03 0 1.83-.49 2.04-1.49l-.8-.18c-.14.58-.48.91-1.21.91-.82 0-1.4-.41-1.44-1.72h3.46c.03-.24.04-.47.04-.67 0-1.27-.6-2.22-2.04-2.22-1.32 0-2.42.81-2.42 2.69 0 1.41.55 2.68 2.37 2.68zm1.15-3.2h-2.55c.05-1.02.71-1.43 1.39-1.43.81 0 1.16.51 1.16 1.43zM171.82 63v-6.07l3.56 6.07h1.11v-7.24h-.85v6.01l-3.47-6.01h-1.21V63h.86zm7.71.12c.72 0 1.25-.23 1.65-.63.05.33.28.61.79.61.25 0 .51-.06.71-.16l-.04-.57c-.13.04-.22.06-.31.06-.26 0-.31-.12-.31-.4v-2.51c0-1.28-.57-1.77-1.84-1.77-1.19 0-1.81.45-1.97 1.41l.8.15c.11-.57.38-.85 1.09-.85.84 0 1.02.4 1.02 1.05v.5c-.14-.01-.29-.02-.45-.02-1.45 0-2.66.38-2.66 1.75 0 .5.22 1.38 1.52 1.38zm.28-.71c-.7 0-.86-.38-.86-.82 0-.88.95-.95 1.66-.95.19 0 .38.01.52.03v1.16c-.28.3-.79.58-1.32.58zm4.81.59v-3.84c.27-.25.9-.61 1.42-.61.66 0 .8.39.8 1.08V63h.91v-3.5c0-.13-.01-.26-.02-.38.3-.25.89-.57 1.38-.57.66 0 .8.39.8 1.08V63h.91v-3.5c0-1.15-.38-1.75-1.46-1.75-.7 0-1.28.31-1.78.71-.2-.48-.61-.71-1.29-.71-.7 0-1.24.3-1.75.69l-.05-.58h-.78V63h.91zm9.8.12c1.03 0 1.83-.49 2.04-1.49l-.8-.18c-.14.58-.48.91-1.21.91-.82 0-1.4-.41-1.44-1.72h3.46c.03-.24.04-.47.04-.67 0-1.27-.6-2.22-2.04-2.22-1.32 0-2.42.81-2.42 2.69 0 1.41.55 2.68 2.37 2.68zm1.15-3.2h-2.55c.05-1.02.71-1.43 1.39-1.43.81 0 1.16.51 1.16 1.43zM309.82 63v-6.07l3.56 6.07h1.11v-7.24h-.85v6.01l-3.47-6.01h-1.21V63h.86zm7.71.12c.72 0 1.25-.23 1.65-.63.05.33.28.61.79.61.25 0 .51-.06.71-.16l-.04-.57c-.13.04-.22.06-.31.06-.26 0-.31-.12-.31-.4v-2.51c0-1.28-.57-1.77-1.84-1.77-1.19 0-1.81.45-1.97 1.41l.8.15c.11-.57.38-.85 1.09-.85.84 0 1.02.4 1.02 1.05v.5c-.14-.01-.29-.02-.45-.02-1.45 0-2.66.38-2.66 1.75 0 .5.22 1.38 1.52 1.38zm.28-.71c-.7 0-.86-.38-.86-.82 0-.88.95-.95 1.66-.95.19 0 .38.01.52.03v1.16c-.28.3-.79.58-1.32.58zm4.81.59v-3.84c.27-.25.9-.61 1.42-.61.66 0 .8.39.8 1.08V63h.91v-3.5c0-.13-.01-.26-.02-.38.3-.25.89-.57 1.38-.57.66 0 .8.39.8 1.08V63h.91v-3.5c0-1.15-.38-1.75-1.46-1.75-.7 0-1.28.31-1.78.71-.2-.48-.61-.71-1.29-.71-.7 0-1.24.3-1.75.69l-.05-.58h-.78V63h.91zm9.8.12c1.03 0 1.83-.49 2.04-1.49l-.8-.18c-.14.58-.48.91-1.21.91-.82 0-1.4-.41-1.44-1.72h3.46c.03-.24.04-.47.04-.67 0-1.27-.6-2.22-2.04-2.22-1.32 0-2.42.81-2.42 2.69 0 1.41.55 2.68 2.37 2.68zm1.15-3.2h-2.55c.05-1.02.71-1.43 1.39-1.43.81 0 1.16.51 1.16 1.43zM82.02 63c2.59 0 3.76-1.51 3.76-3.73 0-2.16-1.08-3.51-3.59-3.51h-2.23V63h2.06zm.01-.78h-1.15v-5.68h1.23c1.72 0 2.72.66 2.72 2.86 0 1.77-.91 2.82-2.8 2.82zm6.33.9c.72 0 1.25-.23 1.65-.63.05.33.28.61.79.61.25 0 .51-.06.71-.16l-.04-.57c-.13.04-.22.06-.31.06-.26 0-.31-.12-.31-.4v-2.51c0-1.28-.57-1.77-1.84-1.77-1.19 0-1.81.45-1.97 1.41l.8.15c.11-.57.38-.85 1.09-.85.84 0 1.02.4 1.02 1.05v.5c-.14-.01-.29-.02-.45-.02-1.45 0-2.66.38-2.66 1.75 0 .5.22 1.38 1.52 1.38zm.28-.71c-.7 0-.86-.38-.86-.82 0-.88.95-.95 1.66-.95.19 0 .38.01.52.03v1.16c-.28.3-.79.58-1.32.58zm5.51.71c.48 0 1.01-.17 1.26-.34l-.16-.66c-.22.12-.59.25-.9.25-.62 0-.74-.3-.74-.84v-2.94h1.42v-.73h-1.42v-1.63l-.91.14v1.49h-.79v.73h.79v3.06c0 1.03.49 1.47 1.45 1.47zm4.23 0c1.03 0 1.83-.49 2.04-1.49l-.8-.18c-.14.58-.48.91-1.21.91-.82 0-1.4-.41-1.44-1.72h3.46c.03-.24.04-.47.04-.67 0-1.27-.6-2.22-2.04-2.22-1.32 0-2.42.81-2.42 2.69 0 1.41.55 2.68 2.37 2.68zm1.15-3.2h-2.55c.05-1.02.71-1.43 1.39-1.43.81 0 1.16.51 1.16 1.43zM220.02 63c2.59 0 3.76-1.51 3.76-3.73 0-2.16-1.08-3.51-3.59-3.51h-2.23V63h2.06zm.01-.78h-1.15v-5.68h1.23c1.72 0 2.72.66 2.72 2.86 0 1.77-.91 2.82-2.8 2.82zm6.33.9c.72 0 1.25-.23 1.65-.63.05.33.28.61.79.61.25 0 .51-.06.71-.16l-.04-.57c-.13.04-.22.06-.31.06-.26 0-.31-.12-.31-.4v-2.51c0-1.28-.57-1.77-1.84-1.77-1.19 0-1.81.45-1.97 1.41l.8.15c.11-.57.38-.85 1.09-.85.84 0 1.02.4 1.02 1.05v.5c-.14-.01-.29-.02-.45-.02-1.45 0-2.66.38-2.66 1.75 0 .5.22 1.38 1.52 1.38zm.28-.71c-.7 0-.86-.38-.86-.82 0-.88.95-.95 1.66-.95.19 0 .38.01.52.03v1.16c-.28.3-.79.58-1.32.58zm5.51.71c.48 0 1.01-.17 1.26-.34l-.16-.66c-.22.12-.59.25-.9.25-.62 0-.74-.3-.74-.84v-2.94h1.42v-.73h-1.42v-1.63l-.91.14v1.49h-.79v.73h.79v3.06c0 1.03.49 1.47 1.45 1.47zm4.23 0c1.03 0 1.83-.49 2.04-1.49l-.8-.18c-.14.58-.48.91-1.21.91-.82 0-1.4-.41-1.44-1.72h3.46c.03-.24.04-.47.04-.67 0-1.27-.6-2.22-2.04-2.22-1.32 0-2.42.81-2.42 2.69 0 1.41.55 2.68 2.37 2.68zm1.15-3.2h-2.55c.05-1.02.71-1.43 1.39-1.43.81 0 1.16.51 1.16 1.43zM358.02 63c2.59 0 3.76-1.51 3.76-3.73 0-2.16-1.08-3.51-3.59-3.51h-2.23V63h2.06zm.01-.78h-1.15v-5.68h1.23c1.72 0 2.72.66 2.72 2.86 0 1.77-.91 2.82-2.8 2.82zm6.33.9c.72 0 1.25-.23 1.65-.63.05.33.28.61.79.61.25 0 .51-.06.71-.16l-.04-.57c-.13.04-.22.06-.31.06-.26 0-.31-.12-.31-.4v-2.51c0-1.28-.57-1.77-1.84-1.77-1.19 0-1.81.45-1.97 1.41l.8.15c.11-.57.38-.85 1.09-.85.84 0 1.02.4 1.02 1.05v.5c-.14-.01-.29-.02-.45-.02-1.45 0-2.66.38-2.66 1.75 0 .5.22 1.38 1.52 1.38zm.28-.71c-.7 0-.86-.38-.86-.82 0-.88.95-.95 1.66-.95.19 0 .38.01.52.03v1.16c-.28.3-.79.58-1.32.58zm5.51.71c.48 0 1.01-.17 1.26-.34l-.16-.66c-.22.12-.59.25-.9.25-.62 0-.74-.3-.74-.84v-2.94h1.42v-.73h-1.42v-1.63l-.91.14v1.49h-.79v.73h.79v3.06c0 1.03.49 1.47 1.45 1.47zm4.23 0c1.03 0 1.83-.49 2.04-1.49l-.8-.18c-.14.58-.48.91-1.21.91-.82 0-1.4-.41-1.44-1.72h3.46c.03-.24.04-.47.04-.67 0-1.27-.6-2.22-2.04-2.22-1.32 0-2.42.81-2.42 2.69 0 1.41.55 2.68 2.37 2.68zm1.15-3.2h-2.55c.05-1.02.71-1.43 1.39-1.43.81 0 1.16.51 1.16 1.43zM113.86 63.12c1.34 0 2.56-.6 2.56-2.13 0-1.4-1.15-1.74-2.21-2.05-.9-.27-1.73-.52-1.73-1.4 0-.64.4-1.13 1.51-1.13 1.12 0 1.4.67 1.51 1.36l.86-.1c-.15-1.55-1.11-2.04-2.38-2.04-1.4 0-2.44.76-2.44 2 0 1.49 1.17 1.8 2.24 2.1.89.25 1.7.49 1.7 1.39 0 .96-.83 1.22-1.61 1.22-1.24 0-1.6-.67-1.77-1.44l-.88.13c.19 1.49 1.13 2.09 2.64 2.09zm5.82 0c1.03 0 1.94-.5 2.11-1.69l-.8-.17c-.13.76-.58 1.1-1.28 1.1-.82 0-1.44-.46-1.44-1.99 0-1.46.73-1.86 1.47-1.86.72 0 1.07.39 1.15 1.15l.87-.12c-.07-1.19-.83-1.79-1.98-1.79-1.54 0-2.46.94-2.46 2.73 0 1.54.66 2.64 2.36 2.64zm5.39 0c1.73 0 2.43-1.1 2.43-2.79 0-1.53-.67-2.58-2.3-2.58-1.64 0-2.5 1.04-2.5 2.7 0 1.52.59 2.67 2.37 2.67zm.05-.73c-1 0-1.48-.62-1.48-1.98 0-1.37.61-1.91 1.52-1.91.89 0 1.39.47 1.39 1.89 0 1.46-.54 2-1.43 2zm4.59.61v-3.74c.42-.39 1.18-.65 1.82-.56v-.94l-.19-.01c-.72 0-1.26.24-1.71.85l-.07-.74h-.76V63h.91zm4.78.12c1.03 0 1.83-.49 2.04-1.49l-.8-.18c-.14.58-.48.91-1.21.91-.82 0-1.4-.41-1.44-1.72h3.46c.03-.24.04-.47.04-.67 0-1.27-.6-2.22-2.04-2.22-1.32 0-2.42.81-2.42 2.69 0 1.41.55 2.68 2.37 2.68zm1.15-3.2h-2.55c.05-1.02.71-1.43 1.39-1.43.81 0 1.16.51 1.16 1.43zM251.86 63.12c1.34 0 2.56-.6 2.56-2.13 0-1.4-1.15-1.74-2.21-2.05-.9-.27-1.73-.52-1.73-1.4 0-.64.4-1.13 1.51-1.13 1.12 0 1.4.67 1.51 1.36l.86-.1c-.15-1.55-1.11-2.04-2.38-2.04-1.4 0-2.44.76-2.44 2 0 1.49 1.17 1.8 2.24 2.1.89.25 1.7.49 1.7 1.39 0 .96-.83 1.22-1.61 1.22-1.24 0-1.6-.67-1.77-1.44l-.88.13c.19 1.49 1.13 2.09 2.64 2.09zm5.82 0c1.03 0 1.94-.5 2.11-1.69l-.8-.17c-.13.76-.58 1.1-1.28 1.1-.82 0-1.44-.46-1.44-1.99 0-1.46.73-1.86 1.47-1.86.72 0 1.07.39 1.15 1.15l.87-.12c-.07-1.19-.83-1.79-1.98-1.79-1.54 0-2.46.94-2.46 2.73 0 1.54.66 2.64 2.36 2.64zm5.39 0c1.73 0 2.43-1.1 2.43-2.79 0-1.53-.67-2.58-2.3-2.58-1.64 0-2.5 1.04-2.5 2.7 0 1.52.59 2.67 2.37 2.67zm.05-.73c-1 0-1.48-.62-1.48-1.98 0-1.37.61-1.91 1.52-1.91.89 0 1.39.47 1.39 1.89 0 1.46-.54 2-1.43 2zm4.59.61v-3.74c.42-.39 1.18-.65 1.82-.56v-.94l-.19-.01c-.72 0-1.26.24-1.71.85l-.07-.74h-.76V63h.91zm4.78.12c1.03 0 1.83-.49 2.04-1.49l-.8-.18c-.14.58-.48.91-1.21.91-.82 0-1.4-.41-1.44-1.72h3.46c.03-.24.04-.47.04-.67 0-1.27-.6-2.22-2.04-2.22-1.32 0-2.42.81-2.42 2.69 0 1.41.55 2.68 2.37 2.68zm1.15-3.2h-2.55c.05-1.02.71-1.43 1.39-1.43.81 0 1.16.51 1.16 1.43zM389.86 63.12c1.34 0 2.56-.6 2.56-2.13 0-1.4-1.15-1.74-2.21-2.05-.9-.27-1.73-.52-1.73-1.4 0-.64.4-1.13 1.51-1.13 1.12 0 1.4.67 1.51 1.36l.86-.1c-.15-1.55-1.11-2.04-2.38-2.04-1.4 0-2.44.76-2.44 2 0 1.49 1.17 1.8 2.24 2.1.89.25 1.7.49 1.7 1.39 0 .96-.83 1.22-1.61 1.22-1.24 0-1.6-.67-1.77-1.44l-.88.13c.19 1.49 1.13 2.09 2.64 2.09zm5.82 0c1.03 0 1.94-.5 2.11-1.69l-.8-.17c-.13.76-.58 1.1-1.28 1.1-.82 0-1.44-.46-1.44-1.99 0-1.46.73-1.86 1.47-1.86.72 0 1.07.39 1.15 1.15l.87-.12c-.07-1.19-.83-1.79-1.98-1.79-1.54 0-2.46.94-2.46 2.73 0 1.54.66 2.64 2.36 2.64zm5.39 0c1.73 0 2.43-1.1 2.43-2.79 0-1.53-.67-2.58-2.3-2.58-1.64 0-2.5 1.04-2.5 2.7 0 1.52.59 2.67 2.37 2.67zm.05-.73c-1 0-1.48-.62-1.48-1.98 0-1.37.61-1.91 1.52-1.91.89 0 1.39.47 1.39 1.89 0 1.46-.54 2-1.43 2zm4.59.61v-3.74c.42-.39 1.18-.65 1.82-.56v-.94l-.19-.01c-.72 0-1.26.24-1.71.85l-.07-.74h-.76V63h.91zm4.78.12c1.03 0 1.83-.49 2.04-1.49l-.8-.18c-.14.58-.48.91-1.21.91-.82 0-1.4-.41-1.44-1.72h3.46c.03-.24.04-.47.04-.67 0-1.27-.6-2.22-2.04-2.22-1.32 0-2.42.81-2.42 2.69 0 1.41.55 2.68 2.37 2.68zm1.15-3.2h-2.55c.05-1.02.71-1.43 1.39-1.43.81 0 1.16.51 1.16 1.43z"/>
        <path fill="#E0E0E0" d="M24 72H146V73H24zM162 72H284V73H162zM300 72H422V73H300zM24 105H146V106H24zM162 105H284V106H162zM300 105H422V106H300zM24 138H146V139H24zM162 138H284V139H162zM300 138H422V139H300zM24 171H146V172H24zM162 171H284V172H162zM300 171H422V172H300z"/>
        <path fill="#E2E2E2" style="mix-blend-mode:multiply" d="M32 85H64V91H32zM170 85H202V91H170zM308 85H340V91H308zM32 118H52V124H32zM170 118H190V124H170zM308 118H328V124H308zM32 151H69V157H32zM170 151H207V157H170zM308 151H345V157H308zM32 184H61V190H32zM170 184H199V190H170zM308 184H337V190H308zM79 85H94V91H79zM217 85H232V91H217zM355 85H370V91H355zM79 118H89V124H79zM217 118H227V124H217zM355 118H365V124H355zM79 151H97V157H79zM217 151H235V157H217zM355 151H373V157H355zM79 184H90V190H79zM217 184H228V190H217zM355 184H366V190H355z"/>
        <path fill="#F5A732" style="mix-blend-mode:multiply" d="M111 85H121V91H111z"/>
        <path fill="#58B145" style="mix-blend-mode:multiply" d="M249 85H271V91H249z"/>
        <path fill="#F5A732" style="mix-blend-mode:multiply" d="M387 85H397V90H387z"/>
        <path fill="#58B145" style="mix-blend-mode:multiply" d="M111 118H127V124H111z"/>
        <path fill="#F5A732" style="mix-blend-mode:multiply" d="M249 118H262V124H249z"/>
        <path fill="#E73030" style="mix-blend-mode:multiply" d="M387 118H400V124H387z"/>
        <path fill="#F5A732" style="mix-blend-mode:multiply" d="M111 151H119V157H111z"/>
        <path fill="#58B145" style="mix-blend-mode:multiply" d="M249 151H265V157H249zM387 151H406V157H387z"/>
        <path fill="#E73030" style="mix-blend-mode:multiply" d="M111 184H121V190H111z"/>
        <path fill="#58B145" style="mix-blend-mode:multiply" d="M249 184H257V190H249zM387 184H402V190H387z"/>
    </g>
</svg>
