<svg xmlns="http://www.w3.org/2000/svg" width="447" height="224" viewBox="0 0 447 224">
    <g fill="none" fill-rule="evenodd">
        <path fill="#F8F6F6" d="M0 0H447V224H0z"/>
        <g fill-rule="nonzero">
            <g>
                <path fill="#013461" d="M58 38.957c-1.527 0-2.762-1.247-2.762-2.783V2.783C55.238 1.247 56.475 0 58 0s2.762 1.247 2.762 2.783v33.39c0 1.537-1.235 2.784-2.762 2.784z" transform="translate(67 44) translate(87)"/>
                <path fill="#0060B4" d="M85.619 27.826H60.762V5.566h24.857c1.525 0 2.762 1.246 2.762 2.782v16.695c0 1.536-1.237 2.783-2.762 2.783z" transform="translate(67 44) translate(87)"/>
                <path fill="#05457D" d="M113.238 77.913H2.762C1.235 77.913 0 79.16 0 80.696v44.521C0 126.753 1.235 128 2.762 128h110.476c1.527 0 2.762-1.247 2.762-2.783V80.696c0-1.536-1.235-2.783-2.762-2.783z" transform="translate(67 44) translate(87)"/>
                <path fill="#B3B3B3" d="M87.345 56.262L59.726 34c-1.008-.813-2.444-.813-3.452 0l-27.62 22.26c-.654.53-1.035 1.328-1.035 2.174v19.478h60.762V58.435c0-.846-.381-1.645-1.036-2.173z" transform="translate(67 44) translate(87)"/>
                <path fill="#FFF" d="M60.762 69.565h-5.524c-1.524 0-2.762-1.246-2.762-2.782v-5.566c0-1.536 1.238-2.782 2.762-2.782h5.524c1.524 0 2.762 1.246 2.762 2.782v5.566c0 1.536-1.238 2.782-2.762 2.782z" transform="translate(67 44) translate(87)"/>
                <path fill="#BADEFC" d="M19.333 108.522H13.81c-1.525 0-2.762-1.247-2.762-2.783v-5.565c0-1.536 1.237-2.783 2.762-2.783h5.523c1.525 0 2.762 1.247 2.762 2.783v5.565c0 1.536-1.237 2.783-2.762 2.783zM38.667 108.522h-5.524c-1.525 0-2.762-1.247-2.762-2.783v-5.565c0-1.536 1.237-2.783 2.762-2.783h5.524c1.524 0 2.762 1.247 2.762 2.783v5.565c0 1.536-1.238 2.783-2.762 2.783zM82.857 108.522h-5.524c-1.524 0-2.762-1.247-2.762-2.783v-5.565c0-1.536 1.238-2.783 2.762-2.783h5.524c1.525 0 2.762 1.247 2.762 2.783v5.565c0 1.536-1.237 2.783-2.762 2.783zM102.19 108.522h-5.523c-1.525 0-2.762-1.247-2.762-2.783v-5.565c0-1.536 1.237-2.783 2.762-2.783h5.523c1.525 0 2.762 1.247 2.762 2.783v5.565c0 1.536-1.237 2.783-2.762 2.783z" transform="translate(67 44) translate(87)"/>
                <path fill="#E6E6E6" d="M60.762 111.304h-5.524c-1.524 0-2.762 1.247-2.762 2.783V128h11.048v-13.913c0-1.536-1.238-2.783-2.762-2.783z" transform="translate(67 44) translate(87)"/>
            </g>
            <g transform="translate(67 44) translate(251 32)">
                <path fill="#B3B3B3" d="M49.91 64c-.555 0-1.057-.332-1.275-.843l-8.318-19.478c-.289-.704.039-1.51.735-1.81.697-.299 1.504.018 1.813.713l8.318 19.479c.302.706-.024 1.523-.728 1.826-.172.075-.358.114-.546.113zM33.273 0c-.766 0-1.387.623-1.387 1.391v4.174h2.773V1.391C34.66.623 34.04 0 33.273 0z"/>
                <path fill="#444" d="M34.66 13.913c3.062 0 5.545 2.492 5.545 5.565 0 3.074-2.483 5.565-5.546 5.565H19.41v19.479h40.205V6.957H18.023c0 2.62-1.055 5.129-2.927 6.956H34.66z"/>
                <ellipse cx="8.318" cy="6.957" fill="#5A7A84" rx="6.932" ry="6.957"/>
                <path fill="#5A7A84" d="M37.432 19.478c0-1.537-1.242-2.782-2.773-2.782H6.932C3.105 16.7.005 19.812 0 23.652v36.87C0 62.442 1.552 64 3.466 64c1.914 0 3.466-1.557 3.466-3.478V43.13h2.773v17.392c0 1.92 1.551 3.478 3.465 3.478 1.915 0 3.466-1.557 3.466-3.478V22.26H34.66c1.531 0 2.773-1.246 2.773-2.783z"/>
                <path fill="#A67C52" d="M59.614 5.565H17.912c.07.46.107.926.11 1.392-.003.465-.04.93-.11 1.39h40.315V43.13H19.41v2.783h40.205c.765 0 1.386-.623 1.386-1.391V6.957c0-.769-.62-1.392-1.386-1.392z"/>
            </g>
            <g>
                <path fill="#5A7A84" d="M19.5 13.913c-3.846 0-6.964-3.114-6.964-6.956C12.536 3.115 15.654 0 19.5 0c3.846 0 6.964 3.115 6.964 6.957 0 3.842-3.118 6.956-6.964 6.956z" transform="translate(67 44) translate(0 32)"/>
                <path fill="#335262" d="M6.964 34.783V22.26c0-3.074 2.495-5.565 5.572-5.565h13.928c3.077 0 5.572 2.491 5.572 5.565v12.522H6.964z" transform="translate(67 44) translate(0 32)"/>
                <path fill="#C6A279" d="M5.571 64H33.43c.769 0 1.392-.623 1.392-1.391v-20.87H4.18v20.87c0 .768.623 1.391 1.392 1.391z" transform="translate(67 44) translate(0 32)"/>
                <path fill="#DDBE99" d="M1.393 41.74h36.214c.77 0 1.393-.624 1.393-1.392v-4.174c0-.768-.624-1.391-1.393-1.391H1.393c-.77 0-1.393.623-1.393 1.39v4.175c0 .768.624 1.391 1.393 1.391z" transform="translate(67 44) translate(0 32)"/>
            </g>
        </g>
    </g>
</svg>
