<svg xmlns="http://www.w3.org/2000/svg" width="447" height="224" viewBox="0 0 447 224">
    <g fill="none" fill-rule="evenodd">
        <path fill="#F8F6F6" d="M0 0H447V224H0z"/>
        <path fill="#9B9B9B" fill-rule="nonzero" d="M31 27c1.66 0 2.99-1.34 2.99-3s-1.33-3-2.99-3c-1.66 0-3 1.34-3 3s1.34 3 3 3zm0 2c-2.33 0-7 1.17-7 3.5V35h14v-2.5c0-2.33-4.67-3.5-7-3.5z"/>
        <path fill="#3F3F3F" fill-rule="nonzero" d="M46.34 32v-7.248h.024L48.704 32h1.368l2.388-7.224h.036V32h1.308v-8.688h-2.088l-2.256 6.984h-.036l-2.268-6.984h-2.112V32h1.296zm10.908.144c.864 0 1.548-.3 1.968-.756.108.48.396.732 1.044.732.336 0 .732-.084.972-.204l-.048-.816c-.156.048-.264.072-.372.072-.312 0-.372-.144-.372-.48v-2.868c0-1.548-.744-2.16-2.328-2.16-1.524 0-2.268.624-2.46 1.788l1.212.216c.132-.648.384-.96 1.14-.96.912 0 1.08.432 1.08 1.188v.468c-.168-.012-.348-.024-.636-.024-1.668 0-3.036.528-3.036 2.136 0 .612.276 1.668 1.836 1.668zm.492-1.032c-.732 0-.924-.396-.924-.828 0-.912 1.008-.996 1.704-.996.312 0 .456.012.576.024v1.224c-.276.288-.792.576-1.356.576zm4.956 3.564c1.104 0 1.656-.516 2.16-1.884.804-2.136 1.764-4.716 2.592-6.996h-1.416l-1.524 4.656h-.012l-1.524-4.656h-1.488l2.328 6.3-.252.648c-.252.636-.588.852-1.008.852-.3 0-.708-.096-.972-.192l-.132 1.032c.252.12.78.24 1.248.24zm7.176-2.532c.864 0 1.548-.3 1.968-.756.108.48.396.732 1.044.732.336 0 .732-.084.972-.204l-.048-.816c-.156.048-.264.072-.372.072-.312 0-.372-.144-.372-.48v-2.868c0-1.548-.744-2.16-2.328-2.16-1.524 0-2.268.624-2.46 1.788l1.212.216c.132-.648.384-.96 1.14-.96.912 0 1.08.432 1.08 1.188v.468c-.168-.012-.348-.024-.636-.024-1.668 0-3.036.528-3.036 2.136 0 .612.276 1.668 1.836 1.668zm.492-1.032c-.732 0-.924-.396-.924-.828 0-.912 1.008-.996 1.704-.996.312 0 .456.012.576.024v1.224c-.276.288-.792.576-1.356.576zM78.2 32l.792-2.376h3.156L82.964 32H84.5l-3.048-8.688h-1.788L76.772 32H78.2zm3.624-3.552h-2.556l1.272-3.84h.024l1.26 3.84zM87.032 32v-4.524c.3-.276.948-.66 1.572-.66.732 0 1.02.408 1.02 1.188V32h1.38v-4.224c0-1.404-.576-2.112-1.92-2.112-.852 0-1.596.336-2.148.78l-.06-.648h-1.224V32h1.38zm7.956 2.712c1.656 0 3.216-.504 3.216-2.124 0-1.14-.768-1.536-2.064-1.62l-1.764-.108c-.528-.036-.636-.192-.636-.408 0-.18.144-.348.3-.468.324.096.648.12 1.056.12 1.5 0 2.616-.816 2.616-2.22 0-.504-.156-.996-.48-1.368.324-.096.696-.144 1.08-.12v-1.02c-.18-.06-.288-.072-.492-.072-.456 0-.816.348-1.032.852-.42-.36-1.02-.492-1.74-.492-1.668 0-2.676.948-2.676 2.292 0 .792.36 1.404.912 1.716-.456.348-.876.708-.876 1.272 0 .48.276.78.732.936v.036c-.576.192-1.032.6-1.032 1.248 0 .78.576 1.548 2.88 1.548zm.084-5.676c-.96 0-1.356-.444-1.356-1.164 0-.804.588-1.14 1.368-1.14.828 0 1.332.384 1.332 1.164 0 .708-.552 1.14-1.344 1.14zm.048 4.632c-1.164 0-1.68-.228-1.68-.732 0-.336.18-.576.504-.804l1.908.096c.756.036.936.252.936.636 0 .564-.588.804-1.668.804zm6.78-1.524c1.344 0 2.292-.672 2.532-1.848l-1.176-.288c-.144.636-.48 1.008-1.272 1.008-.9 0-1.524-.468-1.56-1.776h4.02c.024-.288.036-.576.036-.828 0-1.608-.744-2.748-2.544-2.748-1.62 0-2.964.996-2.964 3.24 0 1.704.696 3.24 2.928 3.24zm1.152-3.864h-2.604c.06-1.104.708-1.524 1.404-1.524.828 0 1.2.468 1.2 1.524zm4.224 3.72v-9.06h-1.38V32h1.38zm4.272.144c2.136 0 3.024-1.32 3.024-3.36 0-1.836-.816-3.12-2.868-3.12s-3.084 1.272-3.084 3.264c0 1.848.744 3.216 2.928 3.216zm.072-1.068c-1.08 0-1.56-.684-1.56-2.196s.612-2.1 1.596-2.1c.972 0 1.476.528 1.476 2.076 0 1.596-.564 2.22-1.512 2.22zm6.18 1.056c.852 0 1.584-.324 2.124-.816l.096.684h1.2v-6.204h-1.38v4.524c-.3.276-.948.648-1.56.648-.732 0-.972-.396-.972-1.176v-3.996h-1.38v4.236c0 1.392.576 2.1 1.872 2.1z"/>
        <rect width="399" height="157" x="24" y="47" fill="#FFF" stroke="#E0E0E0" rx="6"/>
        <path fill="#3F3F3F" fill-rule="nonzero" d="M40.13 70.168c1.932 0 3.696-.868 3.696-3.066 0-3.668-5.418-2.268-5.418-4.718 0-.812.546-1.372 1.876-1.372 1.414 0 1.806.798 1.946 1.764l1.512-.182c-.196-2.254-1.666-2.912-3.444-2.912-2.002 0-3.528 1.064-3.528 2.898 0 3.836 5.418 2.184 5.418 4.746 0 1.204-1.022 1.54-2.03 1.54-1.638 0-2.072-.896-2.296-1.932l-1.512.224c.224 2.296 1.778 3.01 3.78 3.01zm7.7 0c.77 0 1.554-.266 1.918-.504l-.266-1.148c-.294.168-.798.336-1.232.336-.784 0-.966-.378-.966-1.092v-3.808h1.96v-1.19h-1.96v-2.338l-1.61.224v2.114h-1.106v1.19h1.106v4.032c0 1.54.728 2.184 2.156 2.184zm4.844 0c1.008 0 1.806-.35 2.296-.882.126.56.462.854 1.218.854.392 0 .854-.098 1.134-.238l-.056-.952c-.182.056-.308.084-.434.084-.364 0-.434-.168-.434-.56v-3.346c0-1.806-.868-2.52-2.716-2.52-1.778 0-2.646.728-2.87 2.086l1.414.252c.154-.756.448-1.12 1.33-1.12 1.064 0 1.26.504 1.26 1.386v.546c-.196-.014-.406-.028-.742-.028-1.946 0-3.542.616-3.542 2.492 0 .714.322 1.946 2.142 1.946zm.574-1.204c-.854 0-1.078-.462-1.078-.966 0-1.064 1.176-1.162 1.988-1.162.364 0 .532.014.672.028v1.428c-.322.336-.924.672-1.582.672zM60.178 70v-5.278c.35-.322 1.106-.77 1.834-.77.854 0 1.19.476 1.19 1.386V70h1.61v-4.928c0-1.638-.672-2.464-2.24-2.464-.994 0-1.862.392-2.506.91l-.07-.756h-1.428V70h1.61zm8.988.168c.994 0 1.708-.35 2.282-.896h.028l.112.728h1.344V59.43h-1.568v3.808c-.49-.42-1.12-.63-1.946-.63-1.568 0-3.052 1.022-3.052 3.892 0 2.618 1.134 3.668 2.8 3.668zm.518-1.302c-1.162 0-1.652-.812-1.652-2.38 0-1.512.462-2.562 1.722-2.562.686 0 1.26.322 1.568.56v3.64c-.392.406-1.022.742-1.638.742zm7.014 1.302c1.008 0 1.806-.35 2.296-.882.126.56.462.854 1.218.854.392 0 .854-.098 1.134-.238l-.056-.952c-.182.056-.308.084-.434.084-.364 0-.434-.168-.434-.56v-3.346c0-1.806-.868-2.52-2.716-2.52-1.778 0-2.646.728-2.87 2.086l1.414.252c.154-.756.448-1.12 1.33-1.12 1.064 0 1.26.504 1.26 1.386v.546c-.196-.014-.406-.028-.742-.028-1.946 0-3.542.616-3.542 2.492 0 .714.322 1.946 2.142 1.946zm.574-1.204c-.854 0-1.078-.462-1.078-.966 0-1.064 1.176-1.162 1.988-1.162.364 0 .532.014.672.028v1.428c-.322.336-.924.672-1.582.672zM84.202 70v-5.026c.602-.532 1.624-.854 2.534-.742v-1.61c-.098 0-.21-.014-.294-.014-1.064 0-1.792.42-2.366 1.232l-.126-1.078h-1.358V70h1.61zm6.09.168c.994 0 1.708-.35 2.282-.896h.028l.112.728h1.344V59.43H92.49v3.808c-.49-.42-1.12-.63-1.946-.63-1.568 0-3.052 1.022-3.052 3.892 0 2.618 1.134 3.668 2.8 3.668zm.518-1.302c-1.162 0-1.652-.812-1.652-2.38 0-1.512.462-2.562 1.722-2.562.686 0 1.26.322 1.568.56v3.64c-.392.406-1.022.742-1.638.742zm7.63 1.302c1.778 0 2.982-.798 2.982-2.296 0-1.652-1.33-1.946-2.576-2.17-.952-.168-1.568-.364-1.568-1.036 0-.476.364-.854 1.246-.854.938 0 1.204.504 1.372 1.218l1.4-.364c-.28-1.26-1.064-2.058-2.744-2.058-1.512 0-2.786.728-2.786 2.24 0 1.722 1.4 1.974 2.576 2.212.924.182 1.512.308 1.512 1.036 0 .616-.56.868-1.358.868-1.162 0-1.456-.602-1.638-1.288l-1.372.448c.224 1.344 1.218 2.044 2.954 2.044zm9.1-.168v-4.074h1.932L111.656 70h1.778l-2.422-4.494c1.12-.434 1.876-1.33 1.876-2.842 0-1.428-.784-2.8-3.304-2.8h-3.668V70h1.624zm1.582-5.39h-1.582v-3.402h1.54c1.33 0 2.114.364 2.114 1.568 0 1.442-.882 1.834-2.072 1.834zm8.54 5.558c1.568 0 2.674-.784 2.954-2.156l-1.372-.336c-.168.742-.56 1.176-1.484 1.176-1.05 0-1.778-.546-1.82-2.072h4.69c.028-.336.042-.672.042-.966 0-1.876-.868-3.206-2.968-3.206-1.89 0-3.458 1.162-3.458 3.78 0 1.988.812 3.78 3.416 3.78zm1.344-4.508h-3.038c.07-1.288.826-1.778 1.638-1.778.966 0 1.4.546 1.4 1.778zm4.858 7.308v-3.5c.504.406 1.148.7 2.016.7 1.624 0 2.996-1.106 2.996-3.962 0-2.646-1.148-3.598-2.674-3.598-.952 0-1.778.322-2.422.924l-.084-.77h-1.386v10.206h1.554zm1.666-4.116c-.7 0-1.344-.42-1.624-.644v-3.514c.392-.364 1.078-.77 1.764-.77 1.022 0 1.526.644 1.526 2.31 0 1.596-.448 2.618-1.666 2.618zm7.98 1.316c2.492 0 3.528-1.54 3.528-3.92 0-2.142-.952-3.64-3.346-3.64s-3.598 1.484-3.598 3.808c0 2.156.868 3.752 3.416 3.752zm.084-1.246c-1.26 0-1.82-.798-1.82-2.562 0-1.764.714-2.45 1.862-2.45 1.134 0 1.722.616 1.722 2.422 0 1.862-.658 2.59-1.764 2.59zm6.65 1.078v-5.026c.602-.532 1.624-.854 2.534-.742v-1.61c-.098 0-.21-.014-.294-.014-1.064 0-1.792.42-2.366 1.232l-.126-1.078h-1.358V70h1.61zm6.104.168c.77 0 1.554-.266 1.918-.504L148 68.516c-.294.168-.798.336-1.232.336-.784 0-.966-.378-.966-1.092v-3.808h1.96v-1.19h-1.96v-2.338l-1.61.224v2.114h-1.106v1.19h1.106v4.032c0 1.54.728 2.184 2.156 2.184zM370.66 32c3.108 0 4.512-1.812 4.512-4.476 0-2.592-1.296-4.212-4.308-4.212h-2.82V32h2.616zm-.012-1.14h-1.2v-6.408h1.308c1.92 0 2.976.744 2.976 3.204 0 2.004-.936 3.204-3.084 3.204zm8.508 1.284c2.136 0 3.024-1.32 3.024-3.36 0-1.836-.816-3.12-2.868-3.12s-3.084 1.272-3.084 3.264c0 1.848.744 3.216 2.928 3.216zm.072-1.068c-1.08 0-1.56-.684-1.56-2.196s.612-2.1 1.596-2.1c.972 0 1.476.528 1.476 2.076 0 1.596-.564 2.22-1.512 2.22zm7.032.924l1.116-4.548h.024L388.564 32h1.584l1.896-6.204H390.7l-1.32 4.752h-.012l-1.248-4.752h-1.392l-1.248 4.776h-.012l-1.356-4.776h-1.392L384.616 32h1.644zm8.04 0v-4.524c.3-.276.948-.66 1.572-.66.732 0 1.02.408 1.02 1.188V32h1.38v-4.224c0-1.404-.576-2.112-1.92-2.112-.852 0-1.596.336-2.148.78l-.06-.648h-1.224V32h1.38zm7.02 0v-9.06h-1.38V32h1.38zm4.272.144c2.136 0 3.024-1.32 3.024-3.36 0-1.836-.816-3.12-2.868-3.12s-3.084 1.272-3.084 3.264c0 1.848.744 3.216 2.928 3.216zm.072-1.068c-1.08 0-1.56-.684-1.56-2.196s.612-2.1 1.596-2.1c.972 0 1.476.528 1.476 2.076 0 1.596-.564 2.22-1.512 2.22zm5.868 1.068c.864 0 1.548-.3 1.968-.756.108.48.396.732 1.044.732.336 0 .732-.084.972-.204l-.048-.816c-.156.048-.264.072-.372.072-.312 0-.372-.144-.372-.48v-2.868c0-1.548-.744-2.16-2.328-2.16-1.524 0-2.268.624-2.46 1.788l1.212.216c.132-.648.384-.96 1.14-.96.912 0 1.08.432 1.08 1.188v.468c-.168-.012-.348-.024-.636-.024-1.668 0-3.036.528-3.036 2.136 0 .612.276 1.668 1.836 1.668zm.492-1.032c-.732 0-.924-.396-.924-.828 0-.912 1.008-.996 1.704-.996.312 0 .456.012.576.024v1.224c-.276.288-.792.576-1.356.576zm6.648 1.032c.852 0 1.464-.3 1.956-.768h.024l.096.624h1.152v-9.06h-1.344v3.264c-.42-.36-.96-.54-1.668-.54-1.344 0-2.616.876-2.616 3.336 0 2.244.972 3.144 2.4 3.144zm.444-1.116c-.996 0-1.416-.696-1.416-2.04 0-1.296.396-2.196 1.476-2.196.588 0 1.08.276 1.344.48v3.12c-.336.348-.876.636-1.404.636zM38.988 126.144c1.692 0 2.796-1.032 2.796-2.592 0-1.332-.72-2.004-1.848-2.208v-.036c.768-.192 1.692-.792 1.692-2.1 0-1.236-.816-2.052-2.34-2.052-1.284 0-2.34.48-2.628 1.932l.972.216c.216-.792.516-1.236 1.536-1.236 1.032 0 1.368.576 1.368 1.296 0 .96-.72 1.596-1.932 1.596h-.552v.924h.78c1.092 0 1.824.408 1.824 1.644 0 1.2-.768 1.68-1.644 1.68-1.152 0-1.368-.552-1.524-1.296l-1.032.216c.168 1.44 1.176 2.016 2.532 2.016zm5.568-.144v-4.488c.504-.468 1.416-.78 2.184-.672v-1.128l-.228-.012c-.864 0-1.512.288-2.052 1.02l-.084-.888h-.912V126h1.092zm5.256.144c.888 0 1.512-.336 2.04-.816l.012.012.084.66h.912v-9.06h-1.068v3.336c-.432-.348-1.02-.576-1.728-.576-1.368 0-2.604.876-2.604 3.312 0 2.244.948 3.132 2.352 3.132zm.324-.912c-1.08 0-1.548-.72-1.548-2.22 0-1.428.432-2.376 1.62-2.376.708 0 1.284.324 1.572.54v3.3c-.384.384-1.008.756-1.644.756zm10.524.912c1.212 0 2.304-.576 2.616-1.32l.156 1.176h.804v-4.512h-3.348v.9h2.304v.744c0 1.02-.756 2.076-2.316 2.076-1.608 0-2.784-.852-2.784-3.54 0-2.256 1.056-3.552 2.892-3.552 1.356 0 2.052.636 2.196 2.04l1.056-.108c-.156-2.088-1.392-2.892-3.216-2.892-2.532 0-4.068 1.668-4.068 4.608 0 2.58 1.092 4.38 3.708 4.38zm6.588-.144v-4.488c.504-.468 1.416-.78 2.184-.672v-1.128l-.228-.012c-.864 0-1.512.288-2.052 1.02l-.084-.888h-.912V126h1.092zm4.8.144c.864 0 1.5-.276 1.98-.756.06.396.336.732.948.732.3 0 .612-.072.852-.192l-.048-.684c-.156.048-.264.072-.372.072-.312 0-.372-.144-.372-.48v-3.012c0-1.536-.684-2.124-2.208-2.124-1.428 0-2.172.54-2.364 1.692l.96.18c.132-.684.456-1.02 1.308-1.02 1.008 0 1.224.48 1.224 1.26v.6c-.168-.012-.348-.024-.54-.024-1.74 0-3.192.456-3.192 2.1 0 .6.264 1.656 1.824 1.656zm.336-.852c-.84 0-1.032-.456-1.032-.984 0-1.056 1.14-1.14 1.992-1.14.228 0 .456.012.624.036v1.392c-.336.36-.948.696-1.584.696zm6.66.852c.888 0 1.512-.336 2.04-.816l.012.012.084.66h.912v-9.06h-1.068v3.336c-.432-.348-1.02-.576-1.728-.576-1.368 0-2.604.876-2.604 3.312 0 2.244.948 3.132 2.352 3.132zm.324-.912c-1.08 0-1.548-.72-1.548-2.22 0-1.428.432-2.376 1.62-2.376.708 0 1.284.324 1.572.54v3.3c-.384.384-1.008.756-1.644.756zm7.08.912c1.236 0 2.196-.588 2.448-1.788l-.96-.216c-.168.696-.576 1.092-1.452 1.092-.984 0-1.68-.492-1.728-2.064h4.152c.036-.288.048-.564.048-.804 0-1.524-.72-2.664-2.448-2.664-1.584 0-2.904.972-2.904 3.228 0 1.692.66 3.216 2.844 3.216zm1.38-3.84h-3.06c.06-1.224.852-1.716 1.668-1.716.972 0 1.392.612 1.392 1.716zm8.724 3.84c1.524 0 3.096-.648 3.396-2.568l-.996-.204c-.276 1.224-.948 1.824-2.328 1.824-1.74 0-2.748-1.008-2.748-3.504 0-2.388 1.092-3.576 2.892-3.576 1.428 0 2.04.708 2.208 2.064l1.032-.108c-.132-2.028-1.404-2.916-3.228-2.916-2.472 0-4.044 1.704-4.044 4.632 0 2.604 1.092 4.356 3.816 4.356zm8.304 0c1.524 0 3.096-.648 3.396-2.568l-.996-.204c-.276 1.224-.948 1.824-2.328 1.824-1.74 0-2.748-1.008-2.748-3.504 0-2.388 1.092-3.576 2.892-3.576 1.428 0 2.04.708 2.208 2.064l1.032-.108c-.132-2.028-1.404-2.916-3.228-2.916-2.472 0-4.044 1.704-4.044 4.632 0 2.604 1.092 4.356 3.816 4.356zm7.32 0c1.608 0 3.072-.72 3.072-2.556 0-1.68-1.38-2.088-2.652-2.46-1.08-.324-2.076-.624-2.076-1.68 0-.768.48-1.356 1.812-1.356 1.344 0 1.68.804 1.812 1.632l1.032-.12c-.18-1.86-1.332-2.448-2.856-2.448-1.68 0-2.928.912-2.928 2.4 0 1.788 1.404 2.16 2.688 2.52 1.068.3 2.04.588 2.04 1.668 0 1.152-.996 1.464-1.932 1.464-1.488 0-1.92-.804-2.124-1.728l-1.056.156c.228 1.788 1.356 2.508 3.168 2.508zm6.996 0c1.608 0 3.072-.72 3.072-2.556 0-1.68-1.38-2.088-2.652-2.46-1.08-.324-2.076-.624-2.076-1.68 0-.768.48-1.356 1.812-1.356 1.344 0 1.68.804 1.812 1.632l1.032-.12c-.18-1.86-1.332-2.448-2.856-2.448-1.68 0-2.928.912-2.928 2.4 0 1.788 1.404 2.16 2.688 2.52 1.068.3 2.04.588 2.04 1.668 0 1.152-.996 1.464-1.932 1.464-1.488 0-1.92-.804-2.124-1.728l-1.056.156c.228 1.788 1.356 2.508 3.168 2.508zM39.516 159.144c1.62 0 2.712-1.044 2.712-2.94 0-1.5-.78-2.496-2.304-2.496-.9 0-1.728.468-2.136.924.024-1.572.432-3.576 2.04-3.576.648 0 1.092.24 1.308 1.212l.984-.264c-.264-1.38-1.056-1.848-2.184-1.848-2.628 0-3.204 2.832-3.204 4.776 0 2.268.516 4.212 2.784 4.212zm.036-.888c-1.38 0-1.632-1.38-1.704-2.688.444-.468 1.152-.936 1.86-.936.96 0 1.416.54 1.416 1.656 0 1.32-.66 1.968-1.572 1.968zm6.132.888c.576 0 1.212-.204 1.512-.408l-.192-.792c-.264.144-.708.3-1.08.3-.744 0-.888-.36-.888-1.008v-3.528h1.704v-.876h-1.704v-1.956l-1.092.168v1.788h-.948v.876h.948v3.672c0 1.236.588 1.764 1.74 1.764zm3.708-.144v-4.596c.324-.288 1.092-.744 1.8-.744.84 0 1.152.468 1.152 1.32V159h1.092v-4.188c0-1.392-.576-2.112-1.884-2.112-.864 0-1.572.36-2.172.828v-3.588H48.3V159h1.092zm11.796.144c1.212 0 2.304-.576 2.616-1.32L63.96 159h.804v-4.512h-3.348v.9h2.304v.744c0 1.02-.756 2.076-2.316 2.076-1.608 0-2.784-.852-2.784-3.54 0-2.256 1.056-3.552 2.892-3.552 1.356 0 2.052.636 2.196 2.04l1.056-.108c-.156-2.088-1.392-2.892-3.216-2.892-2.532 0-4.068 1.668-4.068 4.608 0 2.58 1.092 4.38 3.708 4.38zm6.588-.144v-4.488c.504-.468 1.416-.78 2.184-.672v-1.128l-.228-.012c-.864 0-1.512.288-2.052 1.02l-.084-.888h-.912V159h1.092zm4.8.144c.864 0 1.5-.276 1.98-.756.06.396.336.732.948.732.3 0 .612-.072.852-.192l-.048-.684c-.156.048-.264.072-.372.072-.312 0-.372-.144-.372-.48v-3.012c0-1.536-.684-2.124-2.208-2.124-1.428 0-2.172.54-2.364 1.692l.96.18c.132-.684.456-1.02 1.308-1.02 1.008 0 1.224.48 1.224 1.26v.6c-.168-.012-.348-.024-.54-.024-1.74 0-3.192.456-3.192 2.1 0 .6.264 1.656 1.824 1.656zm.336-.852c-.84 0-1.032-.456-1.032-.984 0-1.056 1.14-1.14 1.992-1.14.228 0 .456.012.624.036v1.392c-.336.36-.948.696-1.584.696zm6.66.852c.888 0 1.512-.336 2.04-.816l.012.012.084.66h.912v-9.06h-1.068v3.336c-.432-.348-1.02-.576-1.728-.576-1.368 0-2.604.876-2.604 3.312 0 2.244.948 3.132 2.352 3.132zm.324-.912c-1.08 0-1.548-.72-1.548-2.22 0-1.428.432-2.376 1.62-2.376.708 0 1.284.324 1.572.54v3.3c-.384.384-1.008.756-1.644.756zm7.08.912c1.236 0 2.196-.588 2.448-1.788l-.96-.216c-.168.696-.576 1.092-1.452 1.092-.984 0-1.68-.492-1.728-2.064h4.152c.036-.288.048-.564.048-.804 0-1.524-.72-2.664-2.448-2.664-1.584 0-2.904.972-2.904 3.228 0 1.692.66 3.216 2.844 3.216zm1.38-3.84h-3.06c.06-1.224.852-1.716 1.668-1.716.972 0 1.392.612 1.392 1.716zm8.724 3.84c1.524 0 3.096-.648 3.396-2.568l-.996-.204c-.276 1.224-.948 1.824-2.328 1.824-1.74 0-2.748-1.008-2.748-3.504 0-2.388 1.092-3.576 2.892-3.576 1.428 0 2.04.708 2.208 2.064l1.032-.108c-.132-2.028-1.404-2.916-3.228-2.916-2.472 0-4.044 1.704-4.044 4.632 0 2.604 1.092 4.356 3.816 4.356zm8.304 0c1.524 0 3.096-.648 3.396-2.568l-.996-.204c-.276 1.224-.948 1.824-2.328 1.824-1.74 0-2.748-1.008-2.748-3.504 0-2.388 1.092-3.576 2.892-3.576 1.428 0 2.04.708 2.208 2.064l1.032-.108c-.132-2.028-1.404-2.916-3.228-2.916-2.472 0-4.044 1.704-4.044 4.632 0 2.604 1.092 4.356 3.816 4.356zm7.32 0c1.608 0 3.072-.72 3.072-2.556 0-1.68-1.38-2.088-2.652-2.46-1.08-.324-2.076-.624-2.076-1.68 0-.768.48-1.356 1.812-1.356 1.344 0 1.68.804 1.812 1.632l1.032-.12c-.18-1.86-1.332-2.448-2.856-2.448-1.68 0-2.928.912-2.928 2.4 0 1.788 1.404 2.16 2.688 2.52 1.068.3 2.04.588 2.04 1.668 0 1.152-.996 1.464-1.932 1.464-1.488 0-1.92-.804-2.124-1.728l-1.056.156c.228 1.788 1.356 2.508 3.168 2.508zm6.996 0c1.608 0 3.072-.72 3.072-2.556 0-1.68-1.38-2.088-2.652-2.46-1.08-.324-2.076-.624-2.076-1.68 0-.768.48-1.356 1.812-1.356 1.344 0 1.68.804 1.812 1.632l1.032-.12c-.18-1.86-1.332-2.448-2.856-2.448-1.68 0-2.928.912-2.928 2.4 0 1.788 1.404 2.16 2.688 2.52 1.068.3 2.04.588 2.04 1.668 0 1.152-.996 1.464-1.932 1.464-1.488 0-1.92-.804-2.124-1.728l-1.056.156c.228 1.788 1.356 2.508 3.168 2.508zM38.352 192l3.54-7.848v-.84H36.42v.96h4.32L37.188 192h1.164zm6.696.144c.576 0 1.212-.204 1.512-.408l-.192-.792c-.264.144-.708.3-1.08.3-.744 0-.888-.36-.888-1.008v-3.528h1.704v-.876H44.4v-1.956l-1.092.168v1.788h-.948v.876h.948v3.672c0 1.236.588 1.764 1.74 1.764zm3.708-.144v-4.596c.324-.288 1.092-.744 1.8-.744.84 0 1.152.468 1.152 1.32V192H52.8v-4.188c0-1.392-.576-2.112-1.884-2.112-.864 0-1.572.36-2.172.828v-3.588h-1.08V192h1.092zm11.796.144c1.212 0 2.304-.576 2.616-1.32l.156 1.176h.804v-4.512H60.78v.9h2.304v.744c0 1.02-.756 2.076-2.316 2.076-1.608 0-2.784-.852-2.784-3.54 0-2.256 1.056-3.552 2.892-3.552 1.356 0 2.052.636 2.196 2.04l1.056-.108c-.156-2.088-1.392-2.892-3.216-2.892-2.532 0-4.068 1.668-4.068 4.608 0 2.58 1.092 4.38 3.708 4.38zM67.14 192v-4.488c.504-.468 1.416-.78 2.184-.672v-1.128l-.228-.012c-.864 0-1.512.288-2.052 1.02l-.084-.888h-.912V192h1.092zm4.8.144c.864 0 1.5-.276 1.98-.756.06.396.336.732.948.732.3 0 .612-.072.852-.192l-.048-.684c-.156.048-.264.072-.372.072-.312 0-.372-.144-.372-.48v-3.012c0-1.536-.684-2.124-2.208-2.124-1.428 0-2.172.54-2.364 1.692l.96.18c.132-.684.456-1.02 1.308-1.02 1.008 0 1.224.48 1.224 1.26v.6c-.168-.012-.348-.024-.54-.024-1.74 0-3.192.456-3.192 2.1 0 .6.264 1.656 1.824 1.656zm.336-.852c-.84 0-1.032-.456-1.032-.984 0-1.056 1.14-1.14 1.992-1.14.228 0 .456.012.624.036v1.392c-.336.36-.948.696-1.584.696zm6.66.852c.888 0 1.512-.336 2.04-.816l.012.012.084.66h.912v-9.06h-1.068v3.336c-.432-.348-1.02-.576-1.728-.576-1.368 0-2.604.876-2.604 3.312 0 2.244.948 3.132 2.352 3.132zm.324-.912c-1.08 0-1.548-.72-1.548-2.22 0-1.428.432-2.376 1.62-2.376.708 0 1.284.324 1.572.54v3.3c-.384.384-1.008.756-1.644.756zm7.08.912c1.236 0 2.196-.588 2.448-1.788l-.96-.216c-.168.696-.576 1.092-1.452 1.092-.984 0-1.68-.492-1.728-2.064H88.8c.036-.288.048-.564.048-.804 0-1.524-.72-2.664-2.448-2.664-1.584 0-2.904.972-2.904 3.228 0 1.692.66 3.216 2.844 3.216zm1.38-3.84h-3.06c.06-1.224.852-1.716 1.668-1.716.972 0 1.392.612 1.392 1.716zm8.724 3.84c1.524 0 3.096-.648 3.396-2.568l-.996-.204c-.276 1.224-.948 1.824-2.328 1.824-1.74 0-2.748-1.008-2.748-3.504 0-2.388 1.092-3.576 2.892-3.576 1.428 0 2.04.708 2.208 2.064l1.032-.108c-.132-2.028-1.404-2.916-3.228-2.916-2.472 0-4.044 1.704-4.044 4.632 0 2.604 1.092 4.356 3.816 4.356zm8.304 0c1.524 0 3.096-.648 3.396-2.568l-.996-.204c-.276 1.224-.948 1.824-2.328 1.824-1.74 0-2.748-1.008-2.748-3.504 0-2.388 1.092-3.576 2.892-3.576 1.428 0 2.04.708 2.208 2.064l1.032-.108c-.132-2.028-1.404-2.916-3.228-2.916-2.472 0-4.044 1.704-4.044 4.632 0 2.604 1.092 4.356 3.816 4.356zm7.32 0c1.608 0 3.072-.72 3.072-2.556 0-1.68-1.38-2.088-2.652-2.46-1.08-.324-2.076-.624-2.076-1.68 0-.768.48-1.356 1.812-1.356 1.344 0 1.68.804 1.812 1.632l1.032-.12c-.18-1.86-1.332-2.448-2.856-2.448-1.68 0-2.928.912-2.928 2.4 0 1.788 1.404 2.16 2.688 2.52 1.068.3 2.04.588 2.04 1.668 0 1.152-.996 1.464-1.932 1.464-1.488 0-1.92-.804-2.124-1.728l-1.056.156c.228 1.788 1.356 2.508 3.168 2.508zm6.996 0c1.608 0 3.072-.72 3.072-2.556 0-1.68-1.38-2.088-2.652-2.46-1.08-.324-2.076-.624-2.076-1.68 0-.768.48-1.356 1.812-1.356 1.344 0 1.68.804 1.812 1.632l1.032-.12c-.18-1.86-1.332-2.448-2.856-2.448-1.68 0-2.928.912-2.928 2.4 0 1.788 1.404 2.16 2.688 2.52 1.068.3 2.04.588 2.04 1.668 0 1.152-.996 1.464-1.932 1.464-1.488 0-1.92-.804-2.124-1.728l-1.056.156c.228 1.788 1.356 2.508 3.168 2.508zM143.248 126.144c2.052 0 3.228-.972 3.228-3.06v-5.772h-1.092v5.676c0 1.632-.696 2.196-2.088 2.196-1.38 0-2.112-.624-2.112-2.232v-5.64h-1.104v5.748c0 2.028.936 3.084 3.168 3.084zm7.248 0c1.5 0 2.412-.696 2.412-1.872 0-1.38-1.068-1.608-2.196-1.848-.864-.18-1.368-.36-1.368-.996 0-.468.288-.864 1.188-.864.9 0 1.14.432 1.284 1.14l.984-.216c-.192-1.092-.792-1.788-2.256-1.788-1.248 0-2.28.612-2.28 1.86 0 1.44 1.212 1.656 2.22 1.86.84.168 1.344.288 1.344.972 0 .66-.54.888-1.284.888-1.092 0-1.368-.528-1.536-1.188l-.972.264c.192 1.236 1.044 1.788 2.46 1.788zm4.452-7.5c.492 0 .78-.288.78-.792s-.288-.78-.78-.78c-.492 0-.768.276-.768.78s.276.792.768.792zm.528 7.356v-6.168h-1.092V126h1.092zm2.988 0v-4.596c.324-.288 1.092-.744 1.8-.744.84 0 1.152.468 1.152 1.32V126h1.092v-4.188c0-1.392-.576-2.112-1.896-2.112-.852 0-1.62.384-2.22.864l-.06-.732h-.96V126h1.092zm8.076 2.712c1.548 0 3.168-.456 3.168-1.968 0-1.212-.744-1.524-2.016-1.608l-1.716-.12c-.66-.048-.792-.228-.792-.468 0-.252.216-.42.384-.576.312.108.696.144 1.104.144 1.416 0 2.52-.816 2.52-2.208 0-.504-.156-.996-.456-1.344.312-.096.804-.156 1.176-.132v-.876c-.18-.06-.348-.096-.54-.096-.456 0-.78.36-.972.804-.408-.408-1.032-.564-1.788-.564-1.596 0-2.616.912-2.616 2.268 0 .792.348 1.428.912 1.728-.432.336-.816.684-.816 1.212 0 .444.252.684.672.852v.012c-.504.24-.996.72-.996 1.416 0 .732.468 1.524 2.772 1.524zm.084-5.496c-1.092 0-1.536-.516-1.536-1.32 0-.948.696-1.32 1.56-1.32.924 0 1.488.42 1.488 1.344 0 .828-.612 1.296-1.512 1.296zm.048 4.632c-1.392 0-1.812-.348-1.812-.864 0-.408.216-.66.684-.972l2.004.12c.84.06 1.032.3 1.032.744 0 .648-.636.972-1.908.972zm9.324-1.704c1.236 0 2.328-.6 2.532-2.028l-.96-.204c-.156.912-.696 1.32-1.536 1.32-.984 0-1.728-.552-1.728-2.388 0-1.752.876-2.232 1.764-2.232.864 0 1.284.468 1.38 1.38l1.044-.144c-.084-1.428-.996-2.148-2.376-2.148-1.848 0-2.952 1.128-2.952 3.276 0 1.848.792 3.168 2.832 3.168zm6.468 0c2.076 0 2.916-1.32 2.916-3.348 0-1.836-.804-3.096-2.76-3.096-1.968 0-3 1.248-3 3.24 0 1.824.708 3.204 2.844 3.204zm.06-.876c-1.2 0-1.776-.744-1.776-2.376 0-1.644.732-2.292 1.824-2.292 1.068 0 1.668.564 1.668 2.268 0 1.752-.648 2.4-1.716 2.4zm6.876.876c2.076 0 2.916-1.32 2.916-3.348 0-1.836-.804-3.096-2.76-3.096-1.968 0-3 1.248-3 3.24 0 1.824.708 3.204 2.844 3.204zm.06-.876c-1.2 0-1.776-.744-1.776-2.376 0-1.644.732-2.292 1.824-2.292 1.068 0 1.668.564 1.668 2.268 0 1.752-.648 2.4-1.716 2.4zm5.508.732v-4.488c.504-.468 1.416-.78 2.184-.672v-1.128l-.228-.012c-.864 0-1.512.288-2.052 1.02l-.084-.888h-.912V126h1.092zm5.256.144c.888 0 1.512-.336 2.04-.816l.012.012.084.66h.912v-9.06h-1.068v3.336c-.432-.348-1.02-.576-1.728-.576-1.368 0-2.604.876-2.604 3.312 0 2.244.948 3.132 2.352 3.132zm.324-.912c-1.08 0-1.548-.72-1.548-2.22 0-1.428.432-2.376 1.62-2.376.708 0 1.284.324 1.572.54v3.3c-.384.384-1.008.756-1.644.756zm5.184-6.588c.492 0 .78-.288.78-.792s-.288-.78-.78-.78c-.492 0-.768.276-.768.78s.276.792.768.792zm.528 7.356v-6.168h-1.092V126h1.092zm2.988 0v-4.596c.324-.288 1.092-.744 1.8-.744.84 0 1.152.468 1.152 1.32V126h1.092v-4.188c0-1.392-.576-2.112-1.896-2.112-.852 0-1.62.384-2.22.864l-.06-.732h-.96V126h1.092zm7.416.144c.864 0 1.5-.276 1.98-.756.06.396.336.732.948.732.3 0 .612-.072.852-.192l-.048-.684c-.156.048-.264.072-.372.072-.312 0-.372-.144-.372-.48v-3.012c0-1.536-.684-2.124-2.208-2.124-1.428 0-2.172.54-2.364 1.692l.96.18c.132-.684.456-1.02 1.308-1.02 1.008 0 1.224.48 1.224 1.26v.6c-.168-.012-.348-.024-.54-.024-1.74 0-3.192.456-3.192 2.1 0 .6.264 1.656 1.824 1.656zm.336-.852c-.84 0-1.032-.456-1.032-.984 0-1.056 1.14-1.14 1.992-1.14.228 0 .456.012.624.036v1.392c-.336.36-.948.696-1.584.696zm6.612.852c.576 0 1.212-.204 1.512-.408l-.192-.792c-.264.144-.708.3-1.08.3-.744 0-.888-.36-.888-1.008v-3.528h1.704v-.876h-1.704v-1.956l-1.092.168v1.788h-.948v.876h.948v3.672c0 1.236.588 1.764 1.74 1.764zm3.18-7.5c.492 0 .78-.288.78-.792s-.288-.78-.78-.78c-.492 0-.768.276-.768.78s.276.792.768.792zm.528 7.356v-6.168h-1.092V126h1.092zm2.988 0v-4.596c.324-.288 1.092-.744 1.8-.744.84 0 1.152.468 1.152 1.32V126h1.092v-4.188c0-1.392-.576-2.112-1.896-2.112-.852 0-1.62.384-2.22.864l-.06-.732h-.96V126h1.092zm8.076 2.712c1.548 0 3.168-.456 3.168-1.968 0-1.212-.744-1.524-2.016-1.608l-1.716-.12c-.66-.048-.792-.228-.792-.468 0-.252.216-.42.384-.576.312.108.696.144 1.104.144 1.416 0 2.52-.816 2.52-2.208 0-.504-.156-.996-.456-1.344.312-.096.804-.156 1.176-.132v-.876c-.18-.06-.348-.096-.54-.096-.456 0-.78.36-.972.804-.408-.408-1.032-.564-1.788-.564-1.596 0-2.616.912-2.616 2.268 0 .792.348 1.428.912 1.728-.432.336-.816.684-.816 1.212 0 .444.252.684.672.852v.012c-.504.24-.996.72-.996 1.416 0 .732.468 1.524 2.772 1.524zm.084-5.496c-1.092 0-1.536-.516-1.536-1.32 0-.948.696-1.32 1.56-1.32.924 0 1.488.42 1.488 1.344 0 .828-.612 1.296-1.512 1.296zm.048 4.632c-1.392 0-1.812-.348-1.812-.864 0-.408.216-.66.684-.972l2.004.12c.84.06 1.032.3 1.032.744 0 .648-.636.972-1.908.972zm8.4-1.704c.864 0 1.5-.276 1.98-.756.06.396.336.732.948.732.3 0 .612-.072.852-.192l-.048-.684c-.156.048-.264.072-.372.072-.312 0-.372-.144-.372-.48v-3.012c0-1.536-.684-2.124-2.208-2.124-1.428 0-2.172.54-2.364 1.692l.96.18c.132-.684.456-1.02 1.308-1.02 1.008 0 1.224.48 1.224 1.26v.6c-.168-.012-.348-.024-.54-.024-1.74 0-3.192.456-3.192 2.1 0 .6.264 1.656 1.824 1.656zm.336-.852c-.84 0-1.032-.456-1.032-.984 0-1.056 1.14-1.14 1.992-1.14.228 0 .456.012.624.036v1.392c-.336.36-.948.696-1.584.696zm5.772.708v-4.596c.324-.288 1.092-.744 1.8-.744.84 0 1.152.468 1.152 1.32V126h1.092v-4.188c0-1.392-.576-2.112-1.896-2.112-.852 0-1.62.384-2.22.864l-.06-.732h-.96V126h1.092zm7.872.144c.888 0 1.512-.336 2.04-.816l.012.012.084.66h.912v-9.06h-1.068v3.336c-.432-.348-1.02-.576-1.728-.576-1.368 0-2.604.876-2.604 3.312 0 2.244.948 3.132 2.352 3.132zm.324-.912c-1.08 0-1.548-.72-1.548-2.22 0-1.428.432-2.376 1.62-2.376.708 0 1.284.324 1.572.54v3.3c-.384.384-1.008.756-1.644.756zm9.144.912c1.5 0 2.412-.696 2.412-1.872 0-1.38-1.068-1.608-2.196-1.848-.864-.18-1.368-.36-1.368-.996 0-.468.288-.864 1.188-.864.9 0 1.14.432 1.284 1.14l.984-.216c-.192-1.092-.792-1.788-2.256-1.788-1.248 0-2.28.612-2.28 1.86 0 1.44 1.212 1.656 2.22 1.86.84.168 1.344.288 1.344.972 0 .66-.54.888-1.284.888-1.092 0-1.368-.528-1.536-1.188l-.972.264c.192 1.236 1.044 1.788 2.46 1.788zm6.756 0c.528 0 .816-.276.816-.804s-.288-.804-.816-.804-.816.276-.816.804c0 .54.288.804.816.804zm-2.484 0c.528 0 .816-.276.816-.804s-.288-.804-.816-.804-.816.276-.816.804c0 .54.288.804.816.804zm4.944 0c.528 0 .816-.276.816-.804s-.288-.804-.816-.804-.816.276-.816.804c0 .54.288.804.816.804zM142.432 159.144c1.608 0 3.072-.72 3.072-2.556 0-1.68-1.38-2.088-2.652-2.46-1.08-.324-2.076-.624-2.076-1.68 0-.768.48-1.356 1.812-1.356 1.344 0 1.68.804 1.812 1.632l1.032-.12c-.18-1.86-1.332-2.448-2.856-2.448-1.68 0-2.928.912-2.928 2.4 0 1.788 1.404 2.16 2.688 2.52 1.068.3 2.04.588 2.04 1.668 0 1.152-.996 1.464-1.932 1.464-1.488 0-1.92-.804-2.124-1.728l-1.056.156c.228 1.788 1.356 2.508 3.168 2.508zm6.396-.024c.852 0 1.584-.336 2.184-.828l.072.708h.948v-6.168h-1.092v4.584c-.324.3-1.08.756-1.788.756-.912 0-1.116-.468-1.116-1.32v-4.02h-1.092v4.188c0 1.38.576 2.1 1.884 2.1zm7.92.024c1.428 0 2.604-.972 2.604-3.372 0-2.268-.972-3.072-2.244-3.072-.9 0-1.548.336-2.088.816v-3.576h-1.08V159h.948l.06-.54h.012c.444.348 1.056.684 1.788.684zm-.132-.924c-.708 0-1.308-.432-1.584-.636v-3.192c.36-.348 1.044-.768 1.728-.768 1.02 0 1.464.672 1.464 2.136 0 1.5-.444 2.46-1.608 2.46zm4.872-6.672c.492 0 .768-.288.768-.792 0-.492-.276-.78-.768-.78s-.78.288-.78.78c0 .504.288.792.78.792zm-1.236 10.128c1.116 0 1.752-.564 1.752-1.872v-6.972h-1.092v6.924c0 .732-.312.972-.804.972-.3 0-.66-.084-.9-.18l-.12.888c.216.132.768.24 1.164.24zm6.084-2.532c1.236 0 2.196-.588 2.448-1.788l-.96-.216c-.168.696-.576 1.092-1.452 1.092-.984 0-1.68-.492-1.728-2.064h4.152c.036-.288.048-.564.048-.804 0-1.524-.72-2.664-2.448-2.664-1.584 0-2.904.972-2.904 3.228 0 1.692.66 3.216 2.844 3.216zm1.38-3.84h-3.06c.06-1.224.852-1.716 1.668-1.716.972 0 1.392.612 1.392 1.716zm5.16 3.84c1.236 0 2.328-.6 2.532-2.028l-.96-.204c-.156.912-.696 1.32-1.536 1.32-.984 0-1.728-.552-1.728-2.388 0-1.752.876-2.232 1.764-2.232.864 0 1.284.468 1.38 1.38l1.044-.144c-.084-1.428-.996-2.148-2.376-2.148-1.848 0-2.952 1.128-2.952 3.276 0 1.848.792 3.168 2.832 3.168zm5.94 0c.576 0 1.212-.204 1.512-.408l-.192-.792c-.264.144-.708.3-1.08.3-.744 0-.888-.36-.888-1.008v-3.528h1.704v-.876h-1.704v-1.956l-1.092.168v1.788h-.948v.876h.948v3.672c0 1.236.588 1.764 1.74 1.764zm3.18-7.5c.492 0 .78-.288.78-.792s-.288-.78-.78-.78c-.492 0-.768.276-.768.78s.276.792.768.792zm.528 7.356v-6.168h-1.092V159h1.092zm4.596 0l2.316-6.168h-1.116l-1.788 5.076h-.012l-1.812-5.076h-1.188l2.352 6.168h1.248zm5.82.144c1.236 0 2.196-.588 2.448-1.788l-.96-.216c-.168.696-.576 1.092-1.452 1.092-.984 0-1.68-.492-1.728-2.064h4.152c.036-.288.048-.564.048-.804 0-1.524-.72-2.664-2.448-2.664-1.584 0-2.904.972-2.904 3.228 0 1.692.66 3.216 2.844 3.216zm1.38-3.84h-3.06c.06-1.224.852-1.716 1.668-1.716.972 0 1.392.612 1.392 1.716zm2.784 5.244l1.008-2.82H196.9l-.672 2.712.876.108zm7.572-1.404c2.076 0 2.916-1.32 2.916-3.348 0-1.836-.804-3.096-2.76-3.096-1.968 0-3 1.248-3 3.24 0 1.824.708 3.204 2.844 3.204zm.06-.876c-1.2 0-1.776-.744-1.776-2.376 0-1.644.732-2.292 1.824-2.292 1.068 0 1.668.564 1.668 2.268 0 1.752-.648 2.4-1.716 2.4zm7.224.876c1.428 0 2.604-.972 2.604-3.372 0-2.268-.972-3.072-2.244-3.072-.9 0-1.548.336-2.088.816v-3.576h-1.08V159h.948l.06-.54h.012c.444.348 1.056.684 1.788.684zm-.132-.924c-.708 0-1.308-.432-1.584-.636v-3.192c.36-.348 1.044-.768 1.728-.768 1.02 0 1.464.672 1.464 2.136 0 1.5-.444 2.46-1.608 2.46zm4.872-6.672c.492 0 .768-.288.768-.792 0-.492-.276-.78-.768-.78s-.78.288-.78.78c0 .504.288.792.78.792zm-1.236 10.128c1.116 0 1.752-.564 1.752-1.872v-6.972h-1.092v6.924c0 .732-.312.972-.804.972-.3 0-.66-.084-.9-.18l-.12.888c.216.132.768.24 1.164.24zm6.084-2.532c1.236 0 2.196-.588 2.448-1.788l-.96-.216c-.168.696-.576 1.092-1.452 1.092-.984 0-1.68-.492-1.728-2.064h4.152c.036-.288.048-.564.048-.804 0-1.524-.72-2.664-2.448-2.664-1.584 0-2.904.972-2.904 3.228 0 1.692.66 3.216 2.844 3.216zm1.38-3.84h-3.06c.06-1.224.852-1.716 1.668-1.716.972 0 1.392.612 1.392 1.716zm5.16 3.84c1.236 0 2.328-.6 2.532-2.028l-.96-.204c-.156.912-.696 1.32-1.536 1.32-.984 0-1.728-.552-1.728-2.388 0-1.752.876-2.232 1.764-2.232.864 0 1.284.468 1.38 1.38l1.044-.144c-.084-1.428-.996-2.148-2.376-2.148-1.848 0-2.952 1.128-2.952 3.276 0 1.848.792 3.168 2.832 3.168zm5.94 0c.576 0 1.212-.204 1.512-.408l-.192-.792c-.264.144-.708.3-1.08.3-.744 0-.888-.36-.888-1.008v-3.528h1.704v-.876h-1.704v-1.956l-1.092.168v1.788h-.948v.876h.948v3.672c0 1.236.588 1.764 1.74 1.764zm3.18-7.5c.492 0 .78-.288.78-.792s-.288-.78-.78-.78c-.492 0-.768.276-.768.78s.276.792.768.792zm.528 7.356v-6.168h-1.092V159h1.092zm4.596 0l2.316-6.168h-1.116l-1.788 5.076h-.012l-1.812-5.076h-1.188l2.352 6.168h1.248zm5.82.144c1.236 0 2.196-.588 2.448-1.788l-.96-.216c-.168.696-.576 1.092-1.452 1.092-.984 0-1.68-.492-1.728-2.064h4.152c.036-.288.048-.564.048-.804 0-1.524-.72-2.664-2.448-2.664-1.584 0-2.904.972-2.904 3.228 0 1.692.66 3.216 2.844 3.216zm1.38-3.84h-3.06c.06-1.224.852-1.716 1.668-1.716.972 0 1.392.612 1.392 1.716zm2.784 5.244l1.008-2.82h-1.212l-.672 2.712.876.108zm6.636-1.404c.864 0 1.5-.276 1.98-.756.06.396.336.732.948.732.3 0 .612-.072.852-.192l-.048-.684c-.156.048-.264.072-.372.072-.312 0-.372-.144-.372-.48v-3.012c0-1.536-.684-2.124-2.208-2.124-1.428 0-2.172.54-2.364 1.692l.96.18c.132-.684.456-1.02 1.308-1.02 1.008 0 1.224.48 1.224 1.26v.6c-.168-.012-.348-.024-.54-.024-1.74 0-3.192.456-3.192 2.1 0 .6.264 1.656 1.824 1.656zm.336-.852c-.84 0-1.032-.456-1.032-.984 0-1.056 1.14-1.14 1.992-1.14.228 0 .456.012.624.036v1.392c-.336.36-.948.696-1.584.696zm5.772.708v-4.596c.324-.288 1.092-.744 1.8-.744.84 0 1.152.468 1.152 1.32V159h1.092v-4.188c0-1.392-.576-2.112-1.896-2.112-.852 0-1.62.384-2.22.864l-.06-.732h-.96V159h1.092zm7.872.144c.888 0 1.512-.336 2.04-.816l.012.012.084.66h.912v-9.06h-1.068v3.336c-.432-.348-1.02-.576-1.728-.576-1.368 0-2.604.876-2.604 3.312 0 2.244.948 3.132 2.352 3.132zm.324-.912c-1.08 0-1.548-.72-1.548-2.22 0-1.428.432-2.376 1.62-2.376.708 0 1.284.324 1.572.54v3.3c-.384.384-1.008.756-1.644.756zm7.488.912c.528 0 .816-.276.816-.804s-.288-.804-.816-.804-.816.276-.816.804c0 .54.288.804.816.804zm-2.484 0c.528 0 .816-.276.816-.804s-.288-.804-.816-.804-.816.276-.816.804c0 .54.288.804.816.804zm4.944 0c.528 0 .816-.276.816-.804s-.288-.804-.816-.804-.816.276-.816.804c0 .54.288.804.816.804zM143.416 192.144c1.524 0 3.096-.648 3.396-2.568l-.996-.204c-.276 1.224-.948 1.824-2.328 1.824-1.74 0-2.748-1.008-2.748-3.504 0-2.388 1.092-3.576 2.892-3.576 1.428 0 2.04.708 2.208 2.064l1.032-.108c-.132-2.028-1.404-2.916-3.228-2.916-2.472 0-4.044 1.704-4.044 4.632 0 2.604 1.092 4.356 3.816 4.356zm5.952-.144v-4.596c.324-.288 1.092-.744 1.8-.744.84 0 1.152.468 1.152 1.32V192h1.092v-4.188c0-1.392-.576-2.112-1.884-2.112-.864 0-1.572.36-2.172.828v-3.588h-1.08V192h1.092zm8.352.144c2.076 0 2.916-1.32 2.916-3.348 0-1.836-.804-3.096-2.76-3.096-1.968 0-3 1.248-3 3.24 0 1.824.708 3.204 2.844 3.204zm.06-.876c-1.2 0-1.776-.744-1.776-2.376 0-1.644.732-2.292 1.824-2.292 1.068 0 1.668.564 1.668 2.268 0 1.752-.648 2.4-1.716 2.4zm6.876.876c2.076 0 2.916-1.32 2.916-3.348 0-1.836-.804-3.096-2.76-3.096-1.968 0-3 1.248-3 3.24 0 1.824.708 3.204 2.844 3.204zm.06-.876c-1.2 0-1.776-.744-1.776-2.376 0-1.644.732-2.292 1.824-2.292 1.068 0 1.668.564 1.668 2.268 0 1.752-.648 2.4-1.716 2.4zm6.372.876c1.5 0 2.412-.696 2.412-1.872 0-1.38-1.068-1.608-2.196-1.848-.864-.18-1.368-.36-1.368-.996 0-.468.288-.864 1.188-.864.9 0 1.14.432 1.284 1.14l.984-.216c-.192-1.092-.792-1.788-2.256-1.788-1.248 0-2.28.612-2.28 1.86 0 1.44 1.212 1.656 2.22 1.86.84.168 1.344.288 1.344.972 0 .66-.54.888-1.284.888-1.092 0-1.368-.528-1.536-1.188l-.972.264c.192 1.236 1.044 1.788 2.46 1.788zm6.348 0c1.236 0 2.196-.588 2.448-1.788l-.96-.216c-.168.696-.576 1.092-1.452 1.092-.984 0-1.68-.492-1.728-2.064h4.152c.036-.288.048-.564.048-.804 0-1.524-.72-2.664-2.448-2.664-1.584 0-2.904.972-2.904 3.228 0 1.692.66 3.216 2.844 3.216zm1.38-3.84h-3.06c.06-1.224.852-1.716 1.668-1.716.972 0 1.392.612 1.392 1.716zm6.804 3.84c.864 0 1.5-.276 1.98-.756.06.396.336.732.948.732.3 0 .612-.072.852-.192l-.048-.684c-.156.048-.264.072-.372.072-.312 0-.372-.144-.372-.48v-3.012c0-1.536-.684-2.124-2.208-2.124-1.428 0-2.172.54-2.364 1.692l.96.18c.132-.684.456-1.02 1.308-1.02 1.008 0 1.224.48 1.224 1.26v.6c-.168-.012-.348-.024-.54-.024-1.74 0-3.192.456-3.192 2.1 0 .6.264 1.656 1.824 1.656zm.336-.852c-.84 0-1.032-.456-1.032-.984 0-1.056 1.14-1.14 1.992-1.14.228 0 .456.012.624.036v1.392c-.336.36-.948.696-1.584.696zm5.772.708v-4.608c.324-.3 1.08-.732 1.704-.732.792 0 .96.468.96 1.296V192h1.092v-4.2c0-.156-.012-.312-.024-.456.36-.3 1.068-.684 1.656-.684.792 0 .96.468.96 1.296V192h1.092v-4.2c0-1.38-.456-2.1-1.752-2.1-.84 0-1.536.372-2.136.852-.24-.576-.732-.852-1.548-.852-.84 0-1.488.36-2.1.828l-.06-.696h-.936V192h1.092zm11.76.144c2.076 0 2.916-1.32 2.916-3.348 0-1.836-.804-3.096-2.76-3.096-1.968 0-3 1.248-3 3.24 0 1.824.708 3.204 2.844 3.204zm.06-.876c-1.2 0-1.776-.744-1.776-2.376 0-1.644.732-2.292 1.824-2.292 1.068 0 1.668.564 1.668 2.268 0 1.752-.648 2.4-1.716 2.4zm5.508.732v-4.596c.324-.288 1.092-.744 1.8-.744.84 0 1.152.468 1.152 1.32V192h1.092v-4.188c0-1.392-.576-2.112-1.896-2.112-.852 0-1.62.384-2.22.864l-.06-.732h-.96V192h1.092zm8.076 2.712c1.548 0 3.168-.456 3.168-1.968 0-1.212-.744-1.524-2.016-1.608l-1.716-.12c-.66-.048-.792-.228-.792-.468 0-.252.216-.42.384-.576.312.108.696.144 1.104.144 1.416 0 2.52-.816 2.52-2.208 0-.504-.156-.996-.456-1.344.312-.096.804-.156 1.176-.132v-.876c-.18-.06-.348-.096-.54-.096-.456 0-.78.36-.972.804-.408-.408-1.032-.564-1.788-.564-1.596 0-2.616.912-2.616 2.268 0 .792.348 1.428.912 1.728-.432.336-.816.684-.816 1.212 0 .444.252.684.672.852v.012c-.504.24-.996.72-.996 1.416 0 .732.468 1.524 2.772 1.524zm.084-5.496c-1.092 0-1.536-.516-1.536-1.32 0-.948.696-1.32 1.56-1.32.924 0 1.488.42 1.488 1.344 0 .828-.612 1.296-1.512 1.296zm.048 4.632c-1.392 0-1.812-.348-1.812-.864 0-.408.216-.66.684-.972l2.004.12c.84.06 1.032.3 1.032.744 0 .648-.636.972-1.908.972zm8.832-1.704c1.5 0 2.412-.696 2.412-1.872 0-1.38-1.068-1.608-2.196-1.848-.864-.18-1.368-.36-1.368-.996 0-.468.288-.864 1.188-.864.9 0 1.14.432 1.284 1.14l.984-.216c-.192-1.092-.792-1.788-2.256-1.788-1.248 0-2.28.612-2.28 1.86 0 1.44 1.212 1.656 2.22 1.86.84.168 1.344.288 1.344.972 0 .66-.54.888-1.284.888-1.092 0-1.368-.528-1.536-1.188l-.972.264c.192 1.236 1.044 1.788 2.46 1.788zm4.452-7.5c.492 0 .78-.288.78-.792s-.288-.78-.78-.78c-.492 0-.768.276-.768.78s.276.792.768.792zm.528 7.356v-6.168h-1.092V192h1.092zm2.988 0v-4.608c.324-.3 1.08-.732 1.704-.732.792 0 .96.468.96 1.296V192h1.092v-4.2c0-.156-.012-.312-.024-.456.36-.3 1.068-.684 1.656-.684.792 0 .96.468.96 1.296V192h1.092v-4.2c0-1.38-.456-2.1-1.752-2.1-.84 0-1.536.372-2.136.852-.24-.576-.732-.852-1.548-.852-.84 0-1.488.36-2.1.828l-.06-.696h-.936V192h1.092zm10.356 2.544v-3c.444.336 1.032.6 1.776.6 1.38 0 2.568-.96 2.568-3.372 0-2.268-.96-3.072-2.256-3.072-.876 0-1.572.336-2.136.84l-.06-.708h-.948v8.712h1.056zm1.62-3.324c-.708 0-1.32-.408-1.584-.612v-3.216c.36-.36 1.044-.78 1.728-.78.984 0 1.464.6 1.464 2.148 0 1.476-.432 2.46-1.608 2.46zm5.388.78v-9.06h-1.092V192h1.092zm4.356.144c1.236 0 2.196-.588 2.448-1.788l-.96-.216c-.168.696-.576 1.092-1.452 1.092-.984 0-1.68-.492-1.728-2.064h4.152c.036-.288.048-.564.048-.804 0-1.524-.72-2.664-2.448-2.664-1.584 0-2.904.972-2.904 3.228 0 1.692.66 3.216 2.844 3.216zm1.38-3.84h-3.06c.06-1.224.852-1.716 1.668-1.716.972 0 1.392.612 1.392 1.716zm2.784 5.244l1.008-2.82h-1.212l-.672 2.712.876.108zm7.56-1.404c1.236 0 2.328-.6 2.532-2.028l-.96-.204c-.156.912-.696 1.32-1.536 1.32-.984 0-1.728-.552-1.728-2.388 0-1.752.876-2.232 1.764-2.232.864 0 1.284.468 1.38 1.38l1.044-.144c-.084-1.428-.996-2.148-2.376-2.148-1.848 0-2.952 1.128-2.952 3.276 0 1.848.792 3.168 2.832 3.168zm6.468 0c2.076 0 2.916-1.32 2.916-3.348 0-1.836-.804-3.096-2.76-3.096-1.968 0-3 1.248-3 3.24 0 1.824.708 3.204 2.844 3.204zm.06-.876c-1.2 0-1.776-.744-1.776-2.376 0-1.644.732-2.292 1.824-2.292 1.068 0 1.668.564 1.668 2.268 0 1.752-.648 2.4-1.716 2.4zm7.284.876c.528 0 .816-.276.816-.804s-.288-.804-.816-.804-.816.276-.816.804c0 .54.288.804.816.804zm-2.484 0c.528 0 .816-.276.816-.804s-.288-.804-.816-.804-.816.276-.816.804c0 .54.288.804.816.804zm4.944 0c.528 0 .816-.276.816-.804s-.288-.804-.816-.804-.816.276-.816.804c0 .54.288.804.816.804zM317.184 159v-7.284l4.272 7.284h1.332v-8.688h-1.02v7.212l-4.164-7.212h-1.452V159h1.032zm10.188.144c2.076 0 2.916-1.32 2.916-3.348 0-1.836-.804-3.096-2.76-3.096-1.968 0-3 1.248-3 3.24 0 1.824.708 3.204 2.844 3.204zm.06-.876c-1.2 0-1.776-.744-1.776-2.376 0-1.644.732-2.292 1.824-2.292 1.068 0 1.668.564 1.668 2.268 0 1.752-.648 2.4-1.716 2.4zm6.348.876c.576 0 1.212-.204 1.512-.408l-.192-.792c-.264.144-.708.3-1.08.3-.744 0-.888-.36-.888-1.008v-3.528h1.704v-.876h-1.704v-1.956l-1.092.168v1.788h-.948v.876h.948v3.672c0 1.236.588 1.764 1.74 1.764zm5.28 2.532c.972 0 1.536-.468 2.028-1.776l2.664-7.068h-1.116l-1.692 4.896h-.012l-1.632-4.896h-1.212l2.292 6.24-.288.756c-.276.732-.66.96-1.104.96-.324 0-.756-.108-.984-.192l-.132.852c.24.108.732.228 1.188.228zm8.184-2.532c1.236 0 2.196-.588 2.448-1.788l-.96-.216c-.168.696-.576 1.092-1.452 1.092-.984 0-1.68-.492-1.728-2.064h4.152c.036-.288.048-.564.048-.804 0-1.524-.72-2.664-2.448-2.664-1.584 0-2.904.972-2.904 3.228 0 1.692.66 3.216 2.844 3.216zm1.38-3.84h-3.06c.06-1.224.852-1.716 1.668-1.716.972 0 1.392.612 1.392 1.716zm4.644 3.84c.576 0 1.212-.204 1.512-.408l-.192-.792c-.264.144-.708.3-1.08.3-.744 0-.888-.36-.888-1.008v-3.528h1.704v-.876h-1.704v-1.956l-1.092.168v1.788h-.948v.876h.948v3.672c0 1.236.588 1.764 1.74 1.764zm6.24 2.4v-3c.444.336 1.032.6 1.776.6 1.38 0 2.568-.96 2.568-3.372 0-2.268-.96-3.072-2.256-3.072-.876 0-1.572.336-2.136.84l-.06-.708h-.948v8.712h1.056zm1.62-3.324c-.708 0-1.32-.408-1.584-.612v-3.216c.36-.36 1.044-.78 1.728-.78.984 0 1.464.6 1.464 2.148 0 1.476-.432 2.46-1.608 2.46zm5.388.78v-4.488c.504-.468 1.416-.78 2.184-.672v-1.128l-.228-.012c-.864 0-1.512.288-2.052 1.02l-.084-.888h-.912V159h1.092zm5.736.144c2.076 0 2.916-1.32 2.916-3.348 0-1.836-.804-3.096-2.76-3.096-1.968 0-3 1.248-3 3.24 0 1.824.708 3.204 2.844 3.204zm.06-.876c-1.2 0-1.776-.744-1.776-2.376 0-1.644.732-2.292 1.824-2.292 1.068 0 1.668.564 1.668 2.268 0 1.752-.648 2.4-1.716 2.4zm5.64.732v-5.292h2.652V159h1.092v-6.168h-3.744v-1.044c0-.828.36-1.068.9-1.068.276 0 .528.06.756.132l.036-.852c-.216-.096-.54-.18-.984-.18-1.152 0-1.8.66-1.8 2.016v.996h-.912v.876h.912V159h1.092zm3.204-7.392c.492 0 .78-.276.78-.78s-.288-.78-.78-.78c-.48 0-.768.276-.768.78s.288.78.768.78zm4.884 7.536c1.236 0 2.328-.6 2.532-2.028l-.96-.204c-.156.912-.696 1.32-1.536 1.32-.984 0-1.728-.552-1.728-2.388 0-1.752.876-2.232 1.764-2.232.864 0 1.284.468 1.38 1.38l1.044-.144c-.084-1.428-.996-2.148-2.376-2.148-1.848 0-2.952 1.128-2.952 3.276 0 1.848.792 3.168 2.832 3.168zm4.572-7.5c.492 0 .78-.288.78-.792s-.288-.78-.78-.78c-.492 0-.768.276-.768.78s.276.792.768.792zm.528 7.356v-6.168h-1.092V159h1.092zm4.356.144c1.236 0 2.196-.588 2.448-1.788l-.96-.216c-.168.696-.576 1.092-1.452 1.092-.984 0-1.68-.492-1.728-2.064h4.152c.036-.288.048-.564.048-.804 0-1.524-.72-2.664-2.448-2.664-1.584 0-2.904.972-2.904 3.228 0 1.692.66 3.216 2.844 3.216zm1.38-3.84h-3.06c.06-1.224.852-1.716 1.668-1.716.972 0 1.392.612 1.392 1.716zM400.68 159v-4.596c.324-.288 1.092-.744 1.8-.744.84 0 1.152.468 1.152 1.32V159h1.092v-4.188c0-1.392-.576-2.112-1.896-2.112-.852 0-1.62.384-2.22.864l-.06-.732h-.96V159h1.092zm7.824.144c.576 0 1.212-.204 1.512-.408l-.192-.792c-.264.144-.708.3-1.08.3-.744 0-.888-.36-.888-1.008v-3.528h1.704v-.876h-1.704v-1.956l-1.092.168v1.788h-.948v.876h.948v3.672c0 1.236.588 1.764 1.74 1.764zM317.184 192v-7.284l4.272 7.284h1.332v-8.688h-1.02v7.212l-4.164-7.212h-1.452V192h1.032zm10.188.144c1.236 0 2.196-.588 2.448-1.788l-.96-.216c-.168.696-.576 1.092-1.452 1.092-.984 0-1.68-.492-1.728-2.064h4.152c.036-.288.048-.564.048-.804 0-1.524-.72-2.664-2.448-2.664-1.584 0-2.904.972-2.904 3.228 0 1.692.66 3.216 2.844 3.216zm1.38-3.84h-3.06c.06-1.224.852-1.716 1.668-1.716.972 0 1.392.612 1.392 1.716zm4.236 3.84c.864 0 1.5-.276 1.98-.756.06.396.336.732.948.732.3 0 .612-.072.852-.192l-.048-.684c-.156.048-.264.072-.372.072-.312 0-.372-.144-.372-.48v-3.012c0-1.536-.684-2.124-2.208-2.124-1.428 0-2.172.54-2.364 1.692l.96.18c.132-.684.456-1.02 1.308-1.02 1.008 0 1.224.48 1.224 1.26v.6c-.168-.012-.348-.024-.54-.024-1.74 0-3.192.456-3.192 2.1 0 .6.264 1.656 1.824 1.656zm.336-.852c-.84 0-1.032-.456-1.032-.984 0-1.056 1.14-1.14 1.992-1.14.228 0 .456.012.624.036v1.392c-.336.36-.948.696-1.584.696zm5.772.708v-4.488c.504-.468 1.416-.78 2.184-.672v-1.128l-.228-.012c-.864 0-1.512.288-2.052 1.02l-.084-.888h-.912V192h1.092zm4.368 0v-9.06h-1.092V192h1.092zm1.992 2.676c.972 0 1.536-.468 2.028-1.776l2.664-7.068h-1.116l-1.692 4.896h-.012l-1.632-4.896h-1.212l2.292 6.24-.288.756c-.276.732-.66.96-1.104.96-.324 0-.756-.108-.984-.192l-.132.852c.24.108.732.228 1.188.228zm9.348-.132v-3c.444.336 1.032.6 1.776.6 1.38 0 2.568-.96 2.568-3.372 0-2.268-.96-3.072-2.256-3.072-.876 0-1.572.336-2.136.84l-.06-.708h-.948v8.712h1.056zm1.62-3.324c-.708 0-1.32-.408-1.584-.612v-3.216c.36-.36 1.044-.78 1.728-.78.984 0 1.464.6 1.464 2.148 0 1.476-.432 2.46-1.608 2.46zm5.388.78v-4.488c.504-.468 1.416-.78 2.184-.672v-1.128c-.072 0-.156-.012-.228-.012-.864 0-1.512.288-2.052 1.02l-.084-.888h-.912V192h1.092zm5.736.144c2.076 0 2.916-1.32 2.916-3.348 0-1.836-.804-3.096-2.76-3.096-1.968 0-3 1.248-3 3.24 0 1.824.708 3.204 2.844 3.204zm.06-.876c-1.2 0-1.776-.744-1.776-2.376 0-1.644.732-2.292 1.824-2.292 1.068 0 1.668.564 1.668 2.268 0 1.752-.648 2.4-1.716 2.4zm5.64.732v-5.292h2.652V192h1.092v-6.168h-3.744v-1.044c0-.828.36-1.068.9-1.068.276 0 .528.06.756.132l.036-.852c-.216-.096-.54-.18-.984-.18-1.152 0-1.8.66-1.8 2.016v.996h-.912v.876h.912V192h1.092zm3.204-7.392c.492 0 .78-.276.78-.78s-.288-.78-.78-.78c-.48 0-.768.276-.768.78s.288.78.768.78zm4.884 7.536c1.236 0 2.328-.6 2.532-2.028l-.96-.204c-.156.912-.696 1.32-1.536 1.32-.984 0-1.728-.552-1.728-2.388 0-1.752.876-2.232 1.764-2.232.864 0 1.284.468 1.38 1.38l1.044-.144c-.084-1.428-.996-2.148-2.376-2.148-1.848 0-2.952 1.128-2.952 3.276 0 1.848.792 3.168 2.832 3.168zm4.572-7.5c.492 0 .78-.288.78-.792s-.288-.78-.78-.78c-.492 0-.768.276-.768.78s.276.792.768.792zm.528 7.356v-6.168h-1.092V192h1.092zm4.356.144c1.236 0 2.196-.588 2.448-1.788l-.96-.216c-.168.696-.576 1.092-1.452 1.092-.984 0-1.68-.492-1.728-2.064h4.152c.036-.288.048-.564.048-.804 0-1.524-.72-2.664-2.448-2.664-1.584 0-2.904.972-2.904 3.228 0 1.692.66 3.216 2.844 3.216zm1.38-3.84h-3.06c.06-1.224.852-1.716 1.668-1.716.972 0 1.392.612 1.392 1.716zm3.804 3.696v-4.596c.324-.288 1.092-.744 1.8-.744.84 0 1.152.468 1.152 1.32V192h1.092v-4.188c0-1.392-.576-2.112-1.896-2.112-.852 0-1.62.384-2.22.864l-.06-.732h-.96V192h1.092zm7.824.144c.576 0 1.212-.204 1.512-.408l-.192-.792c-.264.144-.708.3-1.08.3-.744 0-.888-.36-.888-1.008v-3.528h1.704v-.876h-1.704v-1.956l-1.092.168v1.788h-.948v.876h.948v3.672c0 1.236.588 1.764 1.74 1.764zM317.244 126v-3.156h1.32c2.088 0 3.312-.864 3.312-2.928 0-1.38-.672-2.604-2.892-2.604h-2.832V126h1.092zm1.236-4.104h-1.236v-3.648h1.416c1.392 0 2.076.48 2.076 1.728 0 1.62-.996 1.92-2.256 1.92zm5.976 4.104v-4.488c.504-.468 1.416-.78 2.184-.672v-1.128l-.228-.012c-.864 0-1.512.288-2.052 1.02l-.084-.888h-.912V126h1.092zm5.736.144c2.076 0 2.916-1.32 2.916-3.348 0-1.836-.804-3.096-2.76-3.096-1.968 0-3 1.248-3 3.24 0 1.824.708 3.204 2.844 3.204zm.06-.876c-1.2 0-1.776-.744-1.776-2.376 0-1.644.732-2.292 1.824-2.292 1.068 0 1.668.564 1.668 2.268 0 1.752-.648 2.4-1.716 2.4zm5.64.732v-5.292h2.652V126h1.092v-6.168h-3.744v-1.044c0-.828.36-1.068.9-1.068.276 0 .528.06.756.132l.036-.852c-.216-.096-.54-.18-.984-.18-1.152 0-1.8.66-1.8 2.016v.996h-.912v.876h.912V126h1.092zm3.204-7.392c.492 0 .78-.276.78-.78s-.288-.78-.78-.78c-.48 0-.768.276-.768.78s.288.78.768.78zm4.884 7.536c1.236 0 2.328-.6 2.532-2.028l-.96-.204c-.156.912-.696 1.32-1.536 1.32-.984 0-1.728-.552-1.728-2.388 0-1.752.876-2.232 1.764-2.232.864 0 1.284.468 1.38 1.38l1.044-.144c-.084-1.428-.996-2.148-2.376-2.148-1.848 0-2.952 1.128-2.952 3.276 0 1.848.792 3.168 2.832 3.168zm4.572-7.5c.492 0 .78-.288.78-.792s-.288-.78-.78-.78c-.492 0-.768.276-.768.78s.276.792.768.792zm.528 7.356v-6.168h-1.092V126h1.092zm4.356.144c1.236 0 2.196-.588 2.448-1.788l-.96-.216c-.168.696-.576 1.092-1.452 1.092-.984 0-1.68-.492-1.728-2.064h4.152c.036-.288.048-.564.048-.804 0-1.524-.72-2.664-2.448-2.664-1.584 0-2.904.972-2.904 3.228 0 1.692.66 3.216 2.844 3.216zm1.38-3.84h-3.06c.06-1.224.852-1.716 1.668-1.716.972 0 1.392.612 1.392 1.716zM358.62 126v-4.596c.324-.288 1.092-.744 1.8-.744.84 0 1.152.468 1.152 1.32V126h1.092v-4.188c0-1.392-.576-2.112-1.896-2.112-.852 0-1.62.384-2.22.864l-.06-.732h-.96V126h1.092zm7.824.144c.576 0 1.212-.204 1.512-.408l-.192-.792c-.264.144-.708.3-1.08.3-.744 0-.888-.36-.888-1.008v-3.528h1.704v-.876h-1.704v-1.956l-1.092.168v1.788h-.948v.876h.948v3.672c0 1.236.588 1.764 1.74 1.764z"/>
        <path fill="#6F6F6F" fill-rule="nonzero" d="M39.432 97.144c1.608 0 3.072-.72 3.072-2.556 0-1.68-1.38-2.088-2.652-2.46-1.08-.324-2.076-.624-2.076-1.68 0-.768.48-1.356 1.812-1.356 1.344 0 1.68.804 1.812 1.632l1.032-.12c-.18-1.86-1.332-2.448-2.856-2.448-1.68 0-2.928.912-2.928 2.4 0 1.788 1.404 2.16 2.688 2.52 1.068.3 2.04.588 2.04 1.668 0 1.152-.996 1.464-1.932 1.464-1.488 0-1.92-.804-2.124-1.728l-1.056.156c.228 1.788 1.356 2.508 3.168 2.508zm6.468 0c.576 0 1.212-.204 1.512-.408l-.192-.792c-.264.144-.708.3-1.08.3-.744 0-.888-.36-.888-1.008v-3.528h1.704v-.876h-1.704v-1.956l-1.092.168v1.788h-.948v.876h.948v3.672c0 1.236.588 1.764 1.74 1.764zm4.14 0c.864 0 1.5-.276 1.98-.756.06.396.336.732.948.732.3 0 .612-.072.852-.192l-.048-.684c-.156.048-.264.072-.372.072-.312 0-.372-.144-.372-.48v-3.012c0-1.536-.684-2.124-2.208-2.124-1.428 0-2.172.54-2.364 1.692l.96.18c.132-.684.456-1.02 1.308-1.02 1.008 0 1.224.48 1.224 1.26v.6c-.168-.012-.348-.024-.54-.024-1.74 0-3.192.456-3.192 2.1 0 .6.264 1.656 1.824 1.656zm.336-.852c-.84 0-1.032-.456-1.032-.984 0-1.056 1.14-1.14 1.992-1.14.228 0 .456.012.624.036v1.392c-.336.36-.948.696-1.584.696zm5.772.708v-4.596c.324-.288 1.092-.744 1.8-.744.84 0 1.152.468 1.152 1.32V97h1.092v-4.188c0-1.392-.576-2.112-1.896-2.112-.852 0-1.62.384-2.22.864l-.06-.732h-.96V97h1.092zm7.872.144c.888 0 1.512-.336 2.04-.816l.012.012.084.66h.912v-9.06H66v3.336c-.432-.348-1.02-.576-1.728-.576-1.368 0-2.604.876-2.604 3.312 0 2.244.948 3.132 2.352 3.132zm.324-.912c-1.08 0-1.548-.72-1.548-2.22 0-1.428.432-2.376 1.62-2.376.708 0 1.284.324 1.572.54v3.3c-.384.384-1.008.756-1.644.756zm6.144.912c.864 0 1.5-.276 1.98-.756.06.396.336.732.948.732.3 0 .612-.072.852-.192l-.048-.684c-.156.048-.264.072-.372.072-.312 0-.372-.144-.372-.48v-3.012c0-1.536-.684-2.124-2.208-2.124-1.428 0-2.172.54-2.364 1.692l.96.18c.132-.684.456-1.02 1.308-1.02 1.008 0 1.224.48 1.224 1.26v.6c-.168-.012-.348-.024-.54-.024-1.74 0-3.192.456-3.192 2.1 0 .6.264 1.656 1.824 1.656zm.336-.852c-.84 0-1.032-.456-1.032-.984 0-1.056 1.14-1.14 1.992-1.14.228 0 .456.012.624.036v1.392c-.336.36-.948.696-1.584.696zm5.772.708v-4.488c.504-.468 1.416-.78 2.184-.672v-1.128c-.072 0-.156-.012-.228-.012-.864 0-1.512.288-2.052 1.02l-.084-.888h-.912V97h1.092zm5.256.144c.888 0 1.512-.336 2.04-.816l.012.012.084.66h.912v-9.06h-1.068v3.336c-.432-.348-1.02-.576-1.728-.576-1.368 0-2.604.876-2.604 3.312 0 2.244.948 3.132 2.352 3.132zm.324-.912c-1.08 0-1.548-.72-1.548-2.22 0-1.428.432-2.376 1.62-2.376.708 0 1.284.324 1.572.54v3.3c-.384.384-1.008.756-1.644.756zM94.56 97v-.972h-3.912v-7.716h-1.104V97h5.016zm3.888.144c1.236 0 2.196-.588 2.448-1.788l-.96-.216c-.168.696-.576 1.092-1.452 1.092-.984 0-1.68-.492-1.728-2.064h4.152c.036-.288.048-.564.048-.804 0-1.524-.72-2.664-2.448-2.664-1.584 0-2.904.972-2.904 3.228 0 1.692.66 3.216 2.844 3.216zm1.38-3.84h-3.06c.06-1.224.852-1.716 1.668-1.716.972 0 1.392.612 1.392 1.716zM105.24 97l2.316-6.168h-1.116l-1.788 5.076h-.012l-1.812-5.076h-1.188L103.992 97h1.248zm5.82.144c1.236 0 2.196-.588 2.448-1.788l-.96-.216c-.168.696-.576 1.092-1.452 1.092-.984 0-1.68-.492-1.728-2.064h4.152c.036-.288.048-.564.048-.804 0-1.524-.72-2.664-2.448-2.664-1.584 0-2.904.972-2.904 3.228 0 1.692.66 3.216 2.844 3.216zm1.38-3.84h-3.06c.06-1.224.852-1.716 1.668-1.716.972 0 1.392.612 1.392 1.716zM116.244 97v-9.06h-1.092V97h1.092zM142.432 97.144c1.608 0 3.072-.72 3.072-2.556 0-1.68-1.38-2.088-2.652-2.46-1.08-.324-2.076-.624-2.076-1.68 0-.768.48-1.356 1.812-1.356 1.344 0 1.68.804 1.812 1.632l1.032-.12c-.18-1.86-1.332-2.448-2.856-2.448-1.68 0-2.928.912-2.928 2.4 0 1.788 1.404 2.16 2.688 2.52 1.068.3 2.04.588 2.04 1.668 0 1.152-.996 1.464-1.932 1.464-1.488 0-1.92-.804-2.124-1.728l-1.056.156c.228 1.788 1.356 2.508 3.168 2.508zm6.468 0c.576 0 1.212-.204 1.512-.408l-.192-.792c-.264.144-.708.3-1.08.3-.744 0-.888-.36-.888-1.008v-3.528h1.704v-.876h-1.704v-1.956l-1.092.168v1.788h-.948v.876h.948v3.672c0 1.236.588 1.764 1.74 1.764zm4.14 0c.864 0 1.5-.276 1.98-.756.06.396.336.732.948.732.3 0 .612-.072.852-.192l-.048-.684c-.156.048-.264.072-.372.072-.312 0-.372-.144-.372-.48v-3.012c0-1.536-.684-2.124-2.208-2.124-1.428 0-2.172.54-2.364 1.692l.96.18c.132-.684.456-1.02 1.308-1.02 1.008 0 1.224.48 1.224 1.26v.6c-.168-.012-.348-.024-.54-.024-1.74 0-3.192.456-3.192 2.1 0 .6.264 1.656 1.824 1.656zm.336-.852c-.84 0-1.032-.456-1.032-.984 0-1.056 1.14-1.14 1.992-1.14.228 0 .456.012.624.036v1.392c-.336.36-.948.696-1.584.696zm5.772.708v-4.596c.324-.288 1.092-.744 1.8-.744.84 0 1.152.468 1.152 1.32V97h1.092v-4.188c0-1.392-.576-2.112-1.896-2.112-.852 0-1.62.384-2.22.864l-.06-.732h-.96V97h1.092zm7.872.144c.888 0 1.512-.336 2.04-.816l.012.012.084.66h.912v-9.06H169v3.336c-.432-.348-1.02-.576-1.728-.576-1.368 0-2.604.876-2.604 3.312 0 2.244.948 3.132 2.352 3.132zm.324-.912c-1.08 0-1.548-.72-1.548-2.22 0-1.428.432-2.376 1.62-2.376.708 0 1.284.324 1.572.54v3.3c-.384.384-1.008.756-1.644.756zm6.144.912c.864 0 1.5-.276 1.98-.756.06.396.336.732.948.732.3 0 .612-.072.852-.192l-.048-.684c-.156.048-.264.072-.372.072-.312 0-.372-.144-.372-.48v-3.012c0-1.536-.684-2.124-2.208-2.124-1.428 0-2.172.54-2.364 1.692l.96.18c.132-.684.456-1.02 1.308-1.02 1.008 0 1.224.48 1.224 1.26v.6c-.168-.012-.348-.024-.54-.024-1.74 0-3.192.456-3.192 2.1 0 .6.264 1.656 1.824 1.656zm.336-.852c-.84 0-1.032-.456-1.032-.984 0-1.056 1.14-1.14 1.992-1.14.228 0 .456.012.624.036v1.392c-.336.36-.948.696-1.584.696zm5.772.708v-4.488c.504-.468 1.416-.78 2.184-.672v-1.128c-.072 0-.156-.012-.228-.012-.864 0-1.512.288-2.052 1.02l-.084-.888h-.912V97h1.092zm5.256.144c.888 0 1.512-.336 2.04-.816l.012.012.084.66h.912v-9.06h-1.068v3.336c-.432-.348-1.02-.576-1.728-.576-1.368 0-2.604.876-2.604 3.312 0 2.244.948 3.132 2.352 3.132zm.324-.912c-1.08 0-1.548-.72-1.548-2.22 0-1.428.432-2.376 1.62-2.376.708 0 1.284.324 1.572.54v3.3c-.384.384-1.008.756-1.644.756zm8.4.768v-7.284L197.848 97h1.332v-8.688h-1.02v7.212l-4.164-7.212h-1.452V97h1.032zm9.252.144c.864 0 1.5-.276 1.98-.756.06.396.336.732.948.732.3 0 .612-.072.852-.192l-.048-.684c-.156.048-.264.072-.372.072-.312 0-.372-.144-.372-.48v-3.012c0-1.536-.684-2.124-2.208-2.124-1.428 0-2.172.54-2.364 1.692l.96.18c.132-.684.456-1.02 1.308-1.02 1.008 0 1.224.48 1.224 1.26v.6c-.168-.012-.348-.024-.54-.024-1.74 0-3.192.456-3.192 2.1 0 .6.264 1.656 1.824 1.656zm.336-.852c-.84 0-1.032-.456-1.032-.984 0-1.056 1.14-1.14 1.992-1.14.228 0 .456.012.624.036v1.392c-.336.36-.948.696-1.584.696zm5.772.708v-4.608c.324-.3 1.08-.732 1.704-.732.792 0 .96.468.96 1.296V97h1.092v-4.2c0-.156-.012-.312-.024-.456.36-.3 1.068-.684 1.656-.684.792 0 .96.468.96 1.296V97h1.092v-4.2c0-1.38-.456-2.1-1.752-2.1-.84 0-1.536.372-2.136.852-.24-.576-.732-.852-1.548-.852-.84 0-1.488.36-2.1.828l-.06-.696h-.936V97h1.092zm11.76.144c1.236 0 2.196-.588 2.448-1.788l-.96-.216c-.168.696-.576 1.092-1.452 1.092-.984 0-1.68-.492-1.728-2.064h4.152c.036-.288.048-.564.048-.804 0-1.524-.72-2.664-2.448-2.664-1.584 0-2.904.972-2.904 3.228 0 1.692.66 3.216 2.844 3.216zm1.38-3.84h-3.06c.06-1.224.852-1.716 1.668-1.716.972 0 1.392.612 1.392 1.716zM305.244 97v-3.156h1.32c2.088 0 3.312-.864 3.312-2.928 0-1.38-.672-2.604-2.892-2.604h-2.832V97h1.092zm1.236-4.104h-1.236v-3.648h1.416c1.392 0 2.076.48 2.076 1.728 0 1.62-.996 1.92-2.256 1.92zM312.456 97v-4.488c.504-.468 1.416-.78 2.184-.672v-1.128l-.228-.012c-.864 0-1.512.288-2.052 1.02l-.084-.888h-.912V97h1.092zm5.736.144c2.076 0 2.916-1.32 2.916-3.348 0-1.836-.804-3.096-2.76-3.096-1.968 0-3 1.248-3 3.24 0 1.824.708 3.204 2.844 3.204zm.06-.876c-1.2 0-1.776-.744-1.776-2.376 0-1.644.732-2.292 1.824-2.292 1.068 0 1.668.564 1.668 2.268 0 1.752-.648 2.4-1.716 2.4zm5.64.732v-5.292h2.652V97h1.092v-6.168h-3.744v-1.044c0-.828.36-1.068.9-1.068.276 0 .528.06.756.132l.036-.852c-.216-.096-.54-.18-.984-.18-1.152 0-1.8.66-1.8 2.016v.996h-.912v.876h.912V97h1.092zm3.204-7.392c.492 0 .78-.276.78-.78s-.288-.78-.78-.78c-.48 0-.768.276-.768.78s.288.78.768.78zm4.884 7.536c1.236 0 2.328-.6 2.532-2.028l-.96-.204c-.156.912-.696 1.32-1.536 1.32-.984 0-1.728-.552-1.728-2.388 0-1.752.876-2.232 1.764-2.232.864 0 1.284.468 1.38 1.38l1.044-.144c-.084-1.428-.996-2.148-2.376-2.148-1.848 0-2.952 1.128-2.952 3.276 0 1.848.792 3.168 2.832 3.168zm4.572-7.5c.492 0 .78-.288.78-.792s-.288-.78-.78-.78c-.492 0-.768.276-.768.78s.276.792.768.792zM337.08 97v-6.168h-1.092V97h1.092zm4.356.144c1.236 0 2.196-.588 2.448-1.788l-.96-.216c-.168.696-.576 1.092-1.452 1.092-.984 0-1.68-.492-1.728-2.064h4.152c.036-.288.048-.564.048-.804 0-1.524-.72-2.664-2.448-2.664-1.584 0-2.904.972-2.904 3.228 0 1.692.66 3.216 2.844 3.216zm1.38-3.84h-3.06c.06-1.224.852-1.716 1.668-1.716.972 0 1.392.612 1.392 1.716zM346.62 97v-4.596c.324-.288 1.092-.744 1.8-.744.84 0 1.152.468 1.152 1.32V97h1.092v-4.188c0-1.392-.576-2.112-1.896-2.112-.852 0-1.62.384-2.22.864l-.06-.732h-.96V97h1.092zm8.34.144c1.236 0 2.328-.6 2.532-2.028l-.96-.204c-.156.912-.696 1.32-1.536 1.32-.984 0-1.728-.552-1.728-2.388 0-1.752.876-2.232 1.764-2.232.864 0 1.284.468 1.38 1.38l1.044-.144c-.084-1.428-.996-2.148-2.376-2.148-1.848 0-2.952 1.128-2.952 3.276 0 1.848.792 3.168 2.832 3.168zm4.104 2.532c.972 0 1.536-.468 2.028-1.776l2.664-7.068h-1.116l-1.692 4.896h-.012l-1.632-4.896h-1.212l2.292 6.24-.288.756c-.276.732-.66.96-1.104.96-.324 0-.756-.108-.984-.192l-.132.852c.24.108.732.228 1.188.228z"/>
        <path fill="#E0E0E0" d="M24 105H423V106H24zM24 138H423V139H24zM24 171H423V172H24z"/>
        <g fill="#9B9B9B" fill-rule="nonzero">
            <path d="M11 10H1c-.552 0-1 .448-1 1s.448 1 1 1h10c.552 0 1-.448 1-1s-.448-1-1-1zM10 3L7 3 7 0 5 0 5 3 2 3 6 8z" transform="translate(349 22)"/>
        </g>
        <circle cx="307" cy="122" r="4" fill="#58B145"/>
        <circle cx="307" cy="155" r="4" fill="#E73030"/>
        <circle cx="307" cy="188" r="4" fill="#F5A732"/>
    </g>
</svg>
