<svg xmlns="http://www.w3.org/2000/svg" width="447" height="224" viewBox="0 0 447 224">
    <g fill="none" fill-rule="evenodd">
        <path fill="#F8F6F6" d="M0 0H447V224H0z"/>
        <rect width="399" height="158" x="24" y="47" fill="#FFF" stroke="#E0E0E0" rx="6"/>
        <path fill="#3F3F3F" fill-rule="nonzero" d="M40.83 32v-8.764h3.01v-1.372h-7.686v1.372h3.038V32h1.638zm7.182.168c1.568 0 2.674-.784 2.954-2.156l-1.372-.336c-.168.742-.56 1.176-1.484 1.176-1.05 0-1.778-.546-1.82-2.072h4.69c.028-.336.042-.672.042-.966 0-1.876-.868-3.206-2.968-3.206-1.89 0-3.458 1.162-3.458 3.78 0 1.988.812 3.78 3.416 3.78zm1.344-4.508h-3.038c.07-1.288.826-1.778 1.638-1.778.966 0 1.4.546 1.4 1.778zm5.096 4.508c1.008 0 1.806-.35 2.296-.882.126.56.462.854 1.218.854.392 0 .854-.098 1.134-.238l-.056-.952c-.182.056-.308.084-.434.084-.364 0-.434-.168-.434-.56v-3.346c0-1.806-.868-2.52-2.716-2.52-1.778 0-2.646.728-2.87 2.086l1.414.252c.154-.756.448-1.12 1.33-1.12 1.064 0 1.26.504 1.26 1.386v.546c-.196-.014-.406-.028-.742-.028-1.946 0-3.542.616-3.542 2.492 0 .714.322 1.946 2.142 1.946zm.574-1.204c-.854 0-1.078-.462-1.078-.966 0-1.064 1.176-1.162 1.988-1.162.364 0 .532.014.672.028v1.428c-.322.336-.924.672-1.582.672zm8.316 1.204c1.554 0 2.842-.742 3.08-2.478l-1.4-.28c-.168 1.008-.7 1.442-1.596 1.442-1.008 0-1.792-.602-1.792-2.562 0-1.918.896-2.394 1.834-2.394.938 0 1.33.616 1.442 1.568l1.484-.21c-.126-1.708-1.26-2.646-2.856-2.646-2.268 0-3.584 1.358-3.584 3.864 0 2.156.994 3.696 3.388 3.696zM69.53 32v-5.278c.35-.322 1.106-.77 1.834-.77.854 0 1.19.476 1.19 1.386V32h1.61v-4.928c0-1.638-.672-2.464-2.226-2.464-1.008 0-1.792.364-2.422.868V21.43H67.92V32h1.61zm9.576.168c1.568 0 2.674-.784 2.954-2.156l-1.372-.336c-.168.742-.56 1.176-1.484 1.176-1.05 0-1.778-.546-1.82-2.072h4.69c.028-.336.042-.672.042-.966 0-1.876-.868-3.206-2.968-3.206-1.89 0-3.458 1.162-3.458 3.78 0 1.988.812 3.78 3.416 3.78zm1.344-4.508h-3.038c.07-1.288.826-1.778 1.638-1.778.966 0 1.4.546 1.4 1.778zm4.9 4.34v-5.026c.602-.532 1.624-.854 2.534-.742v-1.61c-.098 0-.21-.014-.294-.014-1.064 0-1.792.42-2.366 1.232l-.126-1.078H83.74V32h1.61zm8.274 0v-3.542h1.358c2.52 0 3.92-1.092 3.92-3.514 0-1.61-.784-3.08-3.374-3.08H92V32h1.624zm1.218-4.9h-1.218v-3.892h1.4c1.4 0 2.184.462 2.184 1.848 0 1.736-1.05 2.044-2.366 2.044zm7.196 4.9v-5.026c.602-.532 1.624-.854 2.534-.742v-1.61c-.098 0-.21-.014-.294-.014-1.064 0-1.792.42-2.366 1.232l-.126-1.078h-1.358V32h1.61zm6.678.168c1.568 0 2.674-.784 2.954-2.156l-1.372-.336c-.168.742-.56 1.176-1.484 1.176-1.05 0-1.778-.546-1.82-2.072h4.69c.028-.336.042-.672.042-.966 0-1.876-.868-3.206-2.968-3.206-1.89 0-3.458 1.162-3.458 3.78 0 1.988.812 3.78 3.416 3.78zm1.344-4.508h-3.038c.07-1.288.826-1.778 1.638-1.778.966 0 1.4.546 1.4 1.778zm4.9 4.34v-5.32c.35-.322 1.092-.728 1.694-.728.798 0 .994.49.994 1.344V32h1.61v-4.97c0-.126 0-.266-.014-.378.35-.322 1.064-.7 1.638-.7.798 0 1.008.49 1.008 1.344V32h1.61v-4.942c0-1.624-.616-2.45-2.1-2.45-.98 0-1.792.392-2.422.938-.308-.672-.896-.938-1.82-.938-.952 0-1.708.378-2.366.896l-.056-.742h-1.386V32h1.61zm11.284-8.456c.672 0 1.05-.378 1.05-1.064 0-.672-.378-1.05-1.05-1.05-.658 0-1.05.378-1.05 1.05 0 .686.392 1.064 1.05 1.064zm.798 8.456v-7.238h-1.61V32h1.61zm4.13.154c.994 0 1.848-.378 2.478-.952l.112.798h1.4v-7.238h-1.61v5.278c-.35.322-1.106.756-1.82.756-.854 0-1.134-.462-1.134-1.372v-4.662h-1.61v4.942c0 1.624.672 2.45 2.184 2.45zm7.56-.154v-5.32c.35-.322 1.092-.728 1.694-.728.798 0 .994.49.994 1.344V32h1.61v-4.97c0-.126 0-.266-.014-.378.35-.322 1.064-.7 1.638-.7.798 0 1.008.49 1.008 1.344V32h1.61v-4.942c0-1.624-.616-2.45-2.1-2.45-.98 0-1.792.392-2.422.938-.308-.672-.896-.938-1.82-.938-.952 0-1.708.378-2.366.896l-.056-.742h-1.386V32h1.61zm15.064 0v-4.074h1.932L157.912 32h1.778l-2.422-4.494c1.12-.434 1.876-1.33 1.876-2.842 0-1.428-.784-2.8-3.304-2.8h-3.668V32h1.624zm1.582-5.39h-1.582v-3.402h1.54c1.33 0 2.114.364 2.114 1.568 0 1.442-.882 1.834-2.072 1.834zm8.54 5.558c1.568 0 2.674-.784 2.954-2.156l-1.372-.336c-.168.742-.56 1.176-1.484 1.176-1.05 0-1.778-.546-1.82-2.072h4.69c.028-.336.042-.672.042-.966 0-1.876-.868-3.206-2.968-3.206-1.89 0-3.458 1.162-3.458 3.78 0 1.988.812 3.78 3.416 3.78zm1.344-4.508h-3.038c.07-1.288.826-1.778 1.638-1.778.966 0 1.4.546 1.4 1.778zm4.858 7.308v-3.5c.504.406 1.148.7 2.016.7 1.624 0 2.996-1.106 2.996-3.962 0-2.646-1.148-3.598-2.674-3.598-.952 0-1.778.322-2.422.924l-.084-.77h-1.386v10.206h1.554zm1.666-4.116c-.7 0-1.344-.42-1.624-.644v-3.514c.392-.364 1.078-.77 1.764-.77 1.022 0 1.526.644 1.526 2.31 0 1.596-.448 2.618-1.666 2.618zm7.98 1.316c2.492 0 3.528-1.54 3.528-3.92 0-2.142-.952-3.64-3.346-3.64s-3.598 1.484-3.598 3.808c0 2.156.868 3.752 3.416 3.752zm.084-1.246c-1.26 0-1.82-.798-1.82-2.562 0-1.764.714-2.45 1.862-2.45 1.134 0 1.722.616 1.722 2.422 0 1.862-.658 2.59-1.764 2.59zM186.5 32v-5.026c.602-.532 1.624-.854 2.534-.742v-1.61c-.098 0-.21-.014-.294-.014-1.064 0-1.792.42-2.366 1.232l-.126-1.078h-1.358V32h1.61zm6.104.168c.77 0 1.554-.266 1.918-.504l-.266-1.148c-.294.168-.798.336-1.232.336-.784 0-.966-.378-.966-1.092v-3.808h1.96v-1.19h-1.96v-2.338l-1.61.224v2.114h-1.106v1.19h1.106v4.032c0 1.54.728 2.184 2.156 2.184zm5.46 0c1.778 0 2.982-.798 2.982-2.296 0-1.652-1.33-1.946-2.576-2.17-.952-.168-1.568-.364-1.568-1.036 0-.476.364-.854 1.246-.854.938 0 1.204.504 1.372 1.218l1.4-.364c-.28-1.26-1.064-2.058-2.744-2.058-1.512 0-2.786.728-2.786 2.24 0 1.722 1.4 1.974 2.576 2.212.924.182 1.512.308 1.512 1.036 0 .616-.56.868-1.358.868-1.162 0-1.456-.602-1.638-1.288l-1.372.448c.224 1.344 1.218 2.044 2.954 2.044zM39.888 94v-7.728h2.604v-.96h-6.336v.96h2.628V94h1.104zm6.192.144c2.076 0 2.916-1.32 2.916-3.348 0-1.836-.804-3.096-2.76-3.096-1.968 0-3 1.248-3 3.24 0 1.824.708 3.204 2.844 3.204zm.06-.876c-1.2 0-1.776-.744-1.776-2.376 0-1.644.732-2.292 1.824-2.292 1.068 0 1.668.564 1.668 2.268 0 1.752-.648 2.4-1.716 2.4zm5.508.732v-4.596c.324-.288 1.092-.744 1.8-.744.84 0 1.152.468 1.152 1.32V94h1.092v-4.188c0-1.392-.576-2.112-1.896-2.112-.852 0-1.62.384-2.22.864l-.06-.732h-.96V94h1.092zm6.456-7.356c.492 0 .78-.288.78-.792s-.288-.78-.78-.78c-.492 0-.768.276-.768.78s.276.792.768.792zM58.632 94v-6.168H57.54V94h1.092zm5.664 0v-7.512h.024L66.9 94h1.152l2.628-7.5h.012V94h1.044v-8.688H70.08l-2.556 7.392h-.012l-2.556-7.392h-1.68V94h1.02zm12.024.144c2.076 0 2.916-1.32 2.916-3.348 0-1.836-.804-3.096-2.76-3.096-1.968 0-3 1.248-3 3.24 0 1.824.708 3.204 2.844 3.204zm.06-.876c-1.2 0-1.776-.744-1.776-2.376 0-1.644.732-2.292 1.824-2.292 1.068 0 1.668.564 1.668 2.268 0 1.752-.648 2.4-1.716 2.4zm5.508.732v-4.488c.504-.468 1.416-.78 2.184-.672v-1.128c-.072 0-.156-.012-.228-.012-.864 0-1.512.288-2.052 1.02l-.084-.888h-.912V94h1.092zm4.368 0v-4.488c.504-.468 1.416-.78 2.184-.672v-1.128l-.228-.012c-.864 0-1.512.288-2.052 1.02l-.084-.888h-.912V94h1.092zm3.84-7.356c.492 0 .78-.288.78-.792s-.288-.78-.78-.78c-.492 0-.768.276-.768.78s.276.792.768.792zM90.624 94v-6.168h-1.092V94h1.092zm3.852.144c1.5 0 2.412-.696 2.412-1.872 0-1.38-1.068-1.608-2.196-1.848-.864-.18-1.368-.36-1.368-.996 0-.468.288-.864 1.188-.864.9 0 1.14.432 1.284 1.14l.984-.216c-.192-1.092-.792-1.788-2.256-1.788-1.248 0-2.28.612-2.28 1.86 0 1.44 1.212 1.656 2.22 1.86.84.168 1.344.288 1.344.972 0 .66-.54.888-1.284.888-1.092 0-1.368-.528-1.536-1.188l-.972.264c.192 1.236 1.044 1.788 2.46 1.788zm6.348 0c2.076 0 2.916-1.32 2.916-3.348 0-1.836-.804-3.096-2.76-3.096-1.968 0-3 1.248-3 3.24 0 1.824.708 3.204 2.844 3.204zm.06-.876c-1.2 0-1.776-.744-1.776-2.376 0-1.644.732-2.292 1.824-2.292 1.068 0 1.668.564 1.668 2.268 0 1.752-.648 2.4-1.716 2.4zm5.508.732v-4.596c.324-.288 1.092-.744 1.8-.744.84 0 1.152.468 1.152 1.32V94h1.092v-4.188c0-1.392-.576-2.112-1.896-2.112-.852 0-1.62.384-2.22.864l-.06-.732h-.96V94h1.092zM37.548 127l.852-2.58h3.336l.876 2.58h1.212l-3.024-8.688h-1.44L36.432 127h1.116zm3.912-3.528h-2.796l1.392-4.152h.012l1.392 4.152zM46.308 127v-9.06h-1.092V127h1.092zm2.46-7.356c.492 0 .78-.288.78-.792s-.288-.78-.78-.78c-.492 0-.768.276-.768.78s.276.792.768.792zm.528 7.356v-6.168h-1.092V127h1.092zm4.344.144c1.236 0 2.328-.6 2.532-2.028l-.96-.204c-.156.912-.696 1.32-1.536 1.32-.984 0-1.728-.552-1.728-2.388 0-1.752.876-2.232 1.764-2.232.864 0 1.284.468 1.38 1.38l1.044-.144c-.084-1.428-.996-2.148-2.376-2.148-1.848 0-2.952 1.128-2.952 3.276 0 1.848.792 3.168 2.832 3.168zm6.468 0c1.236 0 2.196-.588 2.448-1.788l-.96-.216c-.168.696-.576 1.092-1.452 1.092-.984 0-1.68-.492-1.728-2.064h4.152c.036-.288.048-.564.048-.804 0-1.524-.72-2.664-2.448-2.664-1.584 0-2.904.972-2.904 3.228 0 1.692.66 3.216 2.844 3.216zm1.38-3.84h-3.06c.06-1.224.852-1.716 1.668-1.716.972 0 1.392.612 1.392 1.716zM69.264 127l1.896-7.14h.012L73.02 127h1.404l1.836-8.688h-1.104l-1.428 7.488h-.012l-1.92-7.488h-1.224l-1.92 7.392h-.012l-1.488-7.392H66L67.896 127h1.368zm9.684.144c.864 0 1.5-.276 1.98-.756.06.396.336.732.948.732.3 0 .612-.072.852-.192l-.048-.684c-.156.048-.264.072-.372.072-.312 0-.372-.144-.372-.48v-3.012c0-1.536-.684-2.124-2.208-2.124-1.428 0-2.172.54-2.364 1.692l.96.18c.132-.684.456-1.02 1.308-1.02 1.008 0 1.224.48 1.224 1.26v.6c-.168-.012-.348-.024-.54-.024-1.74 0-3.192.456-3.192 2.1 0 .6.264 1.656 1.824 1.656zm.336-.852c-.84 0-1.032-.456-1.032-.984 0-1.056 1.14-1.14 1.992-1.14.228 0 .456.012.624.036v1.392c-.336.36-.948.696-1.584.696zm5.772.708v-9.06h-1.092V127h1.092zm2.988 0v-2.244l.948-.936 1.896 3.18h1.2l-2.292-3.948 2.136-2.22h-1.236l-2.652 2.712v-5.604h-1.092V127h1.092zm7.74.144c1.236 0 2.196-.588 2.448-1.788l-.96-.216c-.168.696-.576 1.092-1.452 1.092-.984 0-1.68-.492-1.728-2.064h4.152c.036-.288.048-.564.048-.804 0-1.524-.72-2.664-2.448-2.664-1.584 0-2.904.972-2.904 3.228 0 1.692.66 3.216 2.844 3.216zm1.38-3.84h-3.06c.06-1.224.852-1.716 1.668-1.716.972 0 1.392.612 1.392 1.716zm3.804 3.696v-4.488c.504-.468 1.416-.78 2.184-.672v-1.128c-.072 0-.156-.012-.228-.012-.864 0-1.512.288-2.052 1.02l-.084-.888h-.912V127h1.092zM37.548 160l.852-2.58h3.336l.876 2.58h1.212l-3.024-8.688h-1.44L36.432 160h1.116zm3.912-3.528h-2.796l1.392-4.152h.012l1.392 4.152zm5.94 6.24c1.548 0 3.168-.456 3.168-1.968 0-1.212-.744-1.524-2.016-1.608l-1.716-.12c-.66-.048-.792-.228-.792-.468 0-.252.216-.42.384-.576.312.108.696.144 1.104.144 1.416 0 2.52-.816 2.52-2.208 0-.504-.156-.996-.456-1.344.312-.096.804-.156 1.176-.132v-.876c-.18-.06-.348-.096-.54-.096-.456 0-.78.36-.972.804-.408-.408-1.032-.564-1.788-.564-1.596 0-2.616.912-2.616 2.268 0 .792.348 1.428.912 1.728-.432.336-.816.684-.816 1.212 0 .444.252.684.672.852v.012c-.504.24-.996.72-.996 1.416 0 .732.468 1.524 2.772 1.524zm.084-5.496c-1.092 0-1.536-.516-1.536-1.32 0-.948.696-1.32 1.56-1.32.924 0 1.488.42 1.488 1.344 0 .828-.612 1.296-1.512 1.296zm.048 4.632c-1.392 0-1.812-.348-1.812-.864 0-.408.216-.66.684-.972l2.004.12c.84.06 1.032.3 1.032.744 0 .648-.636.972-1.908.972zm5.832-1.704c.864 0 1.5-.276 1.98-.756.06.396.336.732.948.732.3 0 .612-.072.852-.192l-.048-.684c-.156.048-.264.072-.372.072-.312 0-.372-.144-.372-.48v-3.012c0-1.536-.684-2.124-2.208-2.124-1.428 0-2.172.54-2.364 1.692l.96.18c.132-.684.456-1.02 1.308-1.02 1.008 0 1.224.48 1.224 1.26v.6c-.168-.012-.348-.024-.54-.024-1.74 0-3.192.456-3.192 2.1 0 .6.264 1.656 1.824 1.656zm.336-.852c-.84 0-1.032-.456-1.032-.984 0-1.056 1.14-1.14 1.992-1.14.228 0 .456.012.624.036v1.392c-.336.36-.948.696-1.584.696zm6.612.852c.576 0 1.212-.204 1.512-.408l-.192-.792c-.264.144-.708.3-1.08.3-.744 0-.888-.36-.888-1.008v-3.528h1.704v-.876h-1.704v-1.956l-1.092.168v1.788h-.948v.876h.948v3.672c0 1.236.588 1.764 1.74 1.764zM64.02 160v-4.596c.324-.288 1.092-.744 1.8-.744.84 0 1.152.468 1.152 1.32V160h1.092v-4.188c0-1.392-.576-2.112-1.884-2.112-.864 0-1.572.36-2.172.828v-3.588h-1.08V160h1.092zm7.416.144c.864 0 1.5-.276 1.98-.756.06.396.336.732.948.732.3 0 .612-.072.852-.192l-.048-.684c-.156.048-.264.072-.372.072-.312 0-.372-.144-.372-.48v-3.012c0-1.536-.684-2.124-2.208-2.124-1.428 0-2.172.54-2.364 1.692l.96.18c.132-.684.456-1.02 1.308-1.02 1.008 0 1.224.48 1.224 1.26v.6c-.168-.012-.348-.024-.54-.024-1.74 0-3.192.456-3.192 2.1 0 .6.264 1.656 1.824 1.656zm.336-.852c-.84 0-1.032-.456-1.032-.984 0-1.056 1.14-1.14 1.992-1.14.228 0 .456.012.624.036v1.392c-.336.36-.948.696-1.584.696zm10.692.852c1.524 0 3.096-.648 3.396-2.568l-.996-.204c-.276 1.224-.948 1.824-2.328 1.824-1.74 0-2.748-1.008-2.748-3.504 0-2.388 1.092-3.576 2.892-3.576 1.428 0 2.04.708 2.208 2.064l1.032-.108c-.132-2.028-1.404-2.916-3.228-2.916-2.472 0-4.044 1.704-4.044 4.632 0 2.604 1.092 4.356 3.816 4.356zm5.952-.144v-4.596c.324-.288 1.092-.744 1.8-.744.84 0 1.152.468 1.152 1.32V160h1.092v-4.188c0-1.392-.576-2.112-1.884-2.112-.864 0-1.572.36-2.172.828v-3.588h-1.08V160h1.092zm6.984 0v-4.488c.504-.468 1.416-.78 2.184-.672v-1.128l-.228-.012c-.864 0-1.512.288-2.052 1.02l-.084-.888h-.912V160H95.4zm3.84-7.356c.492 0 .78-.288.78-.792s-.288-.78-.78-.78c-.492 0-.768.276-.768.78s.276.792.768.792zm.528 7.356v-6.168h-1.092V160h1.092zm3.852.144c1.5 0 2.412-.696 2.412-1.872 0-1.38-1.068-1.608-2.196-1.848-.864-.18-1.368-.36-1.368-.996 0-.468.288-.864 1.188-.864.9 0 1.14.432 1.284 1.14l.984-.216c-.192-1.092-.792-1.788-2.256-1.788-1.248 0-2.28.612-2.28 1.86 0 1.44 1.212 1.656 2.22 1.86.84.168 1.344.288 1.344.972 0 .66-.54.888-1.284.888-1.092 0-1.368-.528-1.536-1.188l-.972.264c.192 1.236 1.044 1.788 2.46 1.788zm5.82 0c.576 0 1.212-.204 1.512-.408l-.192-.792c-.264.144-.708.3-1.08.3-.744 0-.888-.36-.888-1.008v-3.528h1.704v-.876h-1.704v-1.956l-1.092.168v1.788h-.948v.876h.948v3.672c0 1.236.588 1.764 1.74 1.764zm3.18-7.5c.492 0 .78-.288.78-.792s-.288-.78-.78-.78c-.492 0-.768.276-.768.78s.276.792.768.792zm.528 7.356v-6.168h-1.092V160h1.092zm4.356.144c1.236 0 2.196-.588 2.448-1.788l-.96-.216c-.168.696-.576 1.092-1.452 1.092-.984 0-1.68-.492-1.728-2.064h4.152c.036-.288.048-.564.048-.804 0-1.524-.72-2.664-2.448-2.664-1.584 0-2.904.972-2.904 3.228 0 1.692.66 3.216 2.844 3.216zm1.38-3.84h-3.06c.06-1.224.852-1.716 1.668-1.716.972 0 1.392.612 1.392 1.716zM39.624 193c3.108 0 4.512-1.812 4.512-4.476 0-2.592-1.296-4.212-4.308-4.212h-2.676V193h2.472zm.012-.936h-1.38v-6.816h1.476c2.064 0 3.264.792 3.264 3.432 0 2.124-1.092 3.384-3.36 3.384zm7.596 1.08c.864 0 1.5-.276 1.98-.756.06.396.336.732.948.732.3 0 .612-.072.852-.192l-.048-.684c-.156.048-.264.072-.372.072-.312 0-.372-.144-.372-.48v-3.012c0-1.536-.684-2.124-2.208-2.124-1.428 0-2.172.54-2.364 1.692l.96.18c.132-.684.456-1.02 1.308-1.02 1.008 0 1.224.48 1.224 1.26v.6c-.168-.012-.348-.024-.54-.024-1.74 0-3.192.456-3.192 2.1 0 .6.264 1.656 1.824 1.656zm.336-.852c-.84 0-1.032-.456-1.032-.984 0-1.056 1.14-1.14 1.992-1.14.228 0 .456.012.624.036v1.392c-.336.36-.948.696-1.584.696zm5.772.708v-4.596c.324-.288 1.092-.744 1.8-.744.84 0 1.152.468 1.152 1.32V193h1.092v-4.188c0-1.392-.576-2.112-1.896-2.112-.852 0-1.62.384-2.22.864l-.06-.732h-.96V193h1.092zm8.352.144c1.236 0 2.196-.588 2.448-1.788l-.96-.216c-.168.696-.576 1.092-1.452 1.092-.984 0-1.68-.492-1.728-2.064h4.152c.036-.288.048-.564.048-.804 0-1.524-.72-2.664-2.448-2.664-1.584 0-2.904.972-2.904 3.228 0 1.692.66 3.216 2.844 3.216zm1.38-3.84h-3.06c.06-1.224.852-1.716 1.668-1.716.972 0 1.392.612 1.392 1.716zM70.02 193v-.876h-3.6l3.456-4.5v-.792h-4.644v.876h3.408l-3.456 4.548V193h4.836zm6.3.144c1.608 0 3.072-.72 3.072-2.556 0-1.68-1.38-2.088-2.652-2.46-1.08-.324-2.076-.624-2.076-1.68 0-.768.48-1.356 1.812-1.356 1.344 0 1.68.804 1.812 1.632l1.032-.12c-.18-1.86-1.332-2.448-2.856-2.448-1.68 0-2.928.912-2.928 2.4 0 1.788 1.404 2.16 2.688 2.52 1.068.3 2.04.588 2.04 1.668 0 1.152-.996 1.464-1.932 1.464-1.488 0-1.92-.804-2.124-1.728l-1.056.156c.228 1.788 1.356 2.508 3.168 2.508zm5.628-.144v-4.608c.324-.3 1.08-.732 1.704-.732.792 0 .96.468.96 1.296V193h1.092v-4.2c0-.156-.012-.312-.024-.456.36-.3 1.068-.684 1.656-.684.792 0 .96.468.96 1.296V193h1.092v-4.2c0-1.38-.456-2.1-1.752-2.1-.84 0-1.536.372-2.136.852-.24-.576-.732-.852-1.548-.852-.84 0-1.488.36-2.1.828l-.06-.696h-.936V193h1.092zm9.864-7.356c.492 0 .78-.288.78-.792s-.288-.78-.78-.78c-.492 0-.768.276-.768.78s.276.792.768.792zM92.34 193v-6.168h-1.092V193h1.092zm3.828.144c.576 0 1.212-.204 1.512-.408l-.192-.792c-.264.144-.708.3-1.08.3-.744 0-.888-.36-.888-1.008v-3.528h1.704v-.876H95.52v-1.956l-1.092.168v1.788h-.948v.876h.948v3.672c0 1.236.588 1.764 1.74 1.764zm3.708-.144v-4.596c.324-.288 1.092-.744 1.8-.744.84 0 1.152.468 1.152 1.32V193h1.092v-4.188c0-1.392-.576-2.112-1.884-2.112-.864 0-1.572.36-2.172.828v-3.588h-1.08V193h1.092zM166.168 94v-.972h-3.912v-7.716h-1.104V94h5.016zm1.992-7.356c.492 0 .78-.288.78-.792s-.288-.78-.78-.78c-.492 0-.768.276-.768.78s.276.792.768.792zm.528 7.356v-6.168h-1.092V94h1.092zm2.988 0v-4.596c.324-.288 1.092-.744 1.8-.744.84 0 1.152.468 1.152 1.32V94h1.092v-4.188c0-1.392-.576-2.112-1.896-2.112-.852 0-1.62.384-2.22.864l-.06-.732h-.96V94h1.092zm8.34.144c1.236 0 2.328-.6 2.532-2.028l-.96-.204c-.156.912-.696 1.32-1.536 1.32-.984 0-1.728-.552-1.728-2.388 0-1.752.876-2.232 1.764-2.232.864 0 1.284.468 1.38 1.38l1.044-.144c-.084-1.428-.996-2.148-2.376-2.148-1.848 0-2.952 1.128-2.952 3.276 0 1.848.792 3.168 2.832 3.168zm6.468 0c2.076 0 2.916-1.32 2.916-3.348 0-1.836-.804-3.096-2.76-3.096-1.968 0-3 1.248-3 3.24 0 1.824.708 3.204 2.844 3.204zm.06-.876c-1.2 0-1.776-.744-1.776-2.376 0-1.644.732-2.292 1.824-2.292 1.068 0 1.668.564 1.668 2.268 0 1.752-.648 2.4-1.716 2.4zm5.508.732v-9.06h-1.092V94h1.092zm2.988 0v-4.596c.324-.288 1.092-.744 1.8-.744.84 0 1.152.468 1.152 1.32V94h1.092v-4.188c0-1.392-.576-2.112-1.896-2.112-.852 0-1.62.384-2.22.864l-.06-.732h-.96V94h1.092zm9.66 0v-7.512h.024l2.58 7.512h1.152l2.628-7.5h.012V94h1.044v-8.688h-1.656l-2.556 7.392h-.012l-2.556-7.392h-1.68V94h1.02zm10.128-7.356c.492 0 .78-.288.78-.792s-.288-.78-.78-.78c-.492 0-.768.276-.768.78s.276.792.768.792zm.528 7.356v-6.168h-1.092V94h1.092zm3.876.144c.888 0 1.512-.336 2.04-.816l.012.012.084.66h.912v-9.06h-1.068v3.336c-.432-.348-1.02-.576-1.728-.576-1.368 0-2.604.876-2.604 3.312 0 2.244.948 3.132 2.352 3.132zm.324-.912c-1.08 0-1.548-.72-1.548-2.22 0-1.428.432-2.376 1.62-2.376.708 0 1.284.324 1.572.54v3.3c-.384.384-1.008.756-1.644.756zm6.6.912c.888 0 1.512-.336 2.04-.816l.012.012.084.66h.912v-9.06h-1.068v3.336c-.432-.348-1.02-.576-1.728-.576-1.368 0-2.604.876-2.604 3.312 0 2.244.948 3.132 2.352 3.132zm.324-.912c-1.08 0-1.548-.72-1.548-2.22 0-1.428.432-2.376 1.62-2.376.708 0 1.284.324 1.572.54v3.3c-.384.384-1.008.756-1.644.756zm5.712.768v-9.06H231.1V94h1.092zm4.356.144c1.236 0 2.196-.588 2.448-1.788l-.96-.216c-.168.696-.576 1.092-1.452 1.092-.984 0-1.68-.492-1.728-2.064h4.152c.036-.288.048-.564.048-.804 0-1.524-.72-2.664-2.448-2.664-1.584 0-2.904.972-2.904 3.228 0 1.692.66 3.216 2.844 3.216zm1.38-3.84h-3.06c.06-1.224.852-1.716 1.668-1.716.972 0 1.392.612 1.392 1.716zm7.74 3.84c1.608 0 3.072-.72 3.072-2.556 0-1.68-1.38-2.088-2.652-2.46-1.08-.324-2.076-.624-2.076-1.68 0-.768.48-1.356 1.812-1.356 1.344 0 1.68.804 1.812 1.632l1.032-.12c-.18-1.86-1.332-2.448-2.856-2.448-1.68 0-2.928.912-2.928 2.4 0 1.788 1.404 2.16 2.688 2.52 1.068.3 2.04.588 2.04 1.668 0 1.152-.996 1.464-1.932 1.464-1.488 0-1.92-.804-2.124-1.728l-1.056.156c.228 1.788 1.356 2.508 3.168 2.508zm6.984 0c1.236 0 2.328-.6 2.532-2.028l-.96-.204c-.156.912-.696 1.32-1.536 1.32-.984 0-1.728-.552-1.728-2.388 0-1.752.876-2.232 1.764-2.232.864 0 1.284.468 1.38 1.38l1.044-.144c-.084-1.428-.996-2.148-2.376-2.148-1.848 0-2.952 1.128-2.952 3.276 0 1.848.792 3.168 2.832 3.168zm5.1-.144v-4.596c.324-.288 1.092-.744 1.8-.744.84 0 1.152.468 1.152 1.32V94h1.092v-4.188c0-1.392-.576-2.112-1.884-2.112-.864 0-1.572.36-2.172.828V84.94h-1.08V94h1.092zm8.352.144c2.076 0 2.916-1.32 2.916-3.348 0-1.836-.804-3.096-2.76-3.096-1.968 0-3 1.248-3 3.24 0 1.824.708 3.204 2.844 3.204zm.06-.876c-1.2 0-1.776-.744-1.776-2.376 0-1.644.732-2.292 1.824-2.292 1.068 0 1.668.564 1.668 2.268 0 1.752-.648 2.4-1.716 2.4zm6.876.876c2.076 0 2.916-1.32 2.916-3.348 0-1.836-.804-3.096-2.76-3.096-1.968 0-3 1.248-3 3.24 0 1.824.708 3.204 2.844 3.204zm.06-.876c-1.2 0-1.776-.744-1.776-2.376 0-1.644.732-2.292 1.824-2.292 1.068 0 1.668.564 1.668 2.268 0 1.752-.648 2.4-1.716 2.4zm5.508.732v-9.06h-1.092V94h1.092zM166.168 127v-.972h-3.912v-7.716h-1.104V127h5.016zm1.992-7.356c.492 0 .78-.288.78-.792s-.288-.78-.78-.78c-.492 0-.768.276-.768.78s.276.792.768.792zm.528 7.356v-6.168h-1.092V127h1.092zm2.988 0v-4.596c.324-.288 1.092-.744 1.8-.744.84 0 1.152.468 1.152 1.32V127h1.092v-4.188c0-1.392-.576-2.112-1.896-2.112-.852 0-1.62.384-2.22.864l-.06-.732h-.96V127h1.092zm8.34.144c1.236 0 2.328-.6 2.532-2.028l-.96-.204c-.156.912-.696 1.32-1.536 1.32-.984 0-1.728-.552-1.728-2.388 0-1.752.876-2.232 1.764-2.232.864 0 1.284.468 1.38 1.38l1.044-.144c-.084-1.428-.996-2.148-2.376-2.148-1.848 0-2.952 1.128-2.952 3.276 0 1.848.792 3.168 2.832 3.168zm6.468 0c2.076 0 2.916-1.32 2.916-3.348 0-1.836-.804-3.096-2.76-3.096-1.968 0-3 1.248-3 3.24 0 1.824.708 3.204 2.844 3.204zm.06-.876c-1.2 0-1.776-.744-1.776-2.376 0-1.644.732-2.292 1.824-2.292 1.068 0 1.668.564 1.668 2.268 0 1.752-.648 2.4-1.716 2.4zm5.508.732v-9.06h-1.092V127h1.092zm2.988 0v-4.596c.324-.288 1.092-.744 1.8-.744.84 0 1.152.468 1.152 1.32V127h1.092v-4.188c0-1.392-.576-2.112-1.896-2.112-.852 0-1.62.384-2.22.864l-.06-.732h-.96V127h1.092zm9.66 0v-7.512h.024l2.58 7.512h1.152l2.628-7.5h.012v7.5h1.044v-8.688h-1.656l-2.556 7.392h-.012l-2.556-7.392h-1.68V127h1.02zm10.128-7.356c.492 0 .78-.288.78-.792s-.288-.78-.78-.78c-.492 0-.768.276-.768.78s.276.792.768.792zm.528 7.356v-6.168h-1.092V127h1.092zm3.876.144c.888 0 1.512-.336 2.04-.816l.012.012.084.66h.912v-9.06h-1.068v3.336c-.432-.348-1.02-.576-1.728-.576-1.368 0-2.604.876-2.604 3.312 0 2.244.948 3.132 2.352 3.132zm.324-.912c-1.08 0-1.548-.72-1.548-2.22 0-1.428.432-2.376 1.62-2.376.708 0 1.284.324 1.572.54v3.3c-.384.384-1.008.756-1.644.756zm6.6.912c.888 0 1.512-.336 2.04-.816l.012.012.084.66h.912v-9.06h-1.068v3.336c-.432-.348-1.02-.576-1.728-.576-1.368 0-2.604.876-2.604 3.312 0 2.244.948 3.132 2.352 3.132zm.324-.912c-1.08 0-1.548-.72-1.548-2.22 0-1.428.432-2.376 1.62-2.376.708 0 1.284.324 1.572.54v3.3c-.384.384-1.008.756-1.644.756zm5.712.768v-9.06H231.1V127h1.092zm4.356.144c1.236 0 2.196-.588 2.448-1.788l-.96-.216c-.168.696-.576 1.092-1.452 1.092-.984 0-1.68-.492-1.728-2.064h4.152c.036-.288.048-.564.048-.804 0-1.524-.72-2.664-2.448-2.664-1.584 0-2.904.972-2.904 3.228 0 1.692.66 3.216 2.844 3.216zm1.38-3.84h-3.06c.06-1.224.852-1.716 1.668-1.716.972 0 1.392.612 1.392 1.716zm7.74 3.84c1.608 0 3.072-.72 3.072-2.556 0-1.68-1.38-2.088-2.652-2.46-1.08-.324-2.076-.624-2.076-1.68 0-.768.48-1.356 1.812-1.356 1.344 0 1.68.804 1.812 1.632l1.032-.12c-.18-1.86-1.332-2.448-2.856-2.448-1.68 0-2.928.912-2.928 2.4 0 1.788 1.404 2.16 2.688 2.52 1.068.3 2.04.588 2.04 1.668 0 1.152-.996 1.464-1.932 1.464-1.488 0-1.92-.804-2.124-1.728l-1.056.156c.228 1.788 1.356 2.508 3.168 2.508zm6.984 0c1.236 0 2.328-.6 2.532-2.028l-.96-.204c-.156.912-.696 1.32-1.536 1.32-.984 0-1.728-.552-1.728-2.388 0-1.752.876-2.232 1.764-2.232.864 0 1.284.468 1.38 1.38l1.044-.144c-.084-1.428-.996-2.148-2.376-2.148-1.848 0-2.952 1.128-2.952 3.276 0 1.848.792 3.168 2.832 3.168zm5.1-.144v-4.596c.324-.288 1.092-.744 1.8-.744.84 0 1.152.468 1.152 1.32V127h1.092v-4.188c0-1.392-.576-2.112-1.884-2.112-.864 0-1.572.36-2.172.828v-3.588h-1.08V127h1.092zm8.352.144c2.076 0 2.916-1.32 2.916-3.348 0-1.836-.804-3.096-2.76-3.096-1.968 0-3 1.248-3 3.24 0 1.824.708 3.204 2.844 3.204zm.06-.876c-1.2 0-1.776-.744-1.776-2.376 0-1.644.732-2.292 1.824-2.292 1.068 0 1.668.564 1.668 2.268 0 1.752-.648 2.4-1.716 2.4zm6.876.876c2.076 0 2.916-1.32 2.916-3.348 0-1.836-.804-3.096-2.76-3.096-1.968 0-3 1.248-3 3.24 0 1.824.708 3.204 2.844 3.204zm.06-.876c-1.2 0-1.776-.744-1.776-2.376 0-1.644.732-2.292 1.824-2.292 1.068 0 1.668.564 1.668 2.268 0 1.752-.648 2.4-1.716 2.4zm5.508.732v-9.06h-1.092V127h1.092zM164.416 160.144c1.524 0 3.096-.648 3.396-2.568l-.996-.204c-.276 1.224-.948 1.824-2.328 1.824-1.74 0-2.748-1.008-2.748-3.504 0-2.388 1.092-3.576 2.892-3.576 1.428 0 2.04.708 2.208 2.064l1.032-.108c-.132-2.028-1.404-2.916-3.228-2.916-2.472 0-4.044 1.704-4.044 4.632 0 2.604 1.092 4.356 3.816 4.356zm7.32 0c1.236 0 2.196-.588 2.448-1.788l-.96-.216c-.168.696-.576 1.092-1.452 1.092-.984 0-1.68-.492-1.728-2.064h4.152c.036-.288.048-.564.048-.804 0-1.524-.72-2.664-2.448-2.664-1.584 0-2.904.972-2.904 3.228 0 1.692.66 3.216 2.844 3.216zm1.38-3.84h-3.06c.06-1.224.852-1.716 1.668-1.716.972 0 1.392.612 1.392 1.716zM176.92 160v-4.596c.324-.288 1.092-.744 1.8-.744.84 0 1.152.468 1.152 1.32V160h1.092v-4.188c0-1.392-.576-2.112-1.896-2.112-.852 0-1.62.384-2.22.864l-.06-.732h-.96V160h1.092zm7.824.144c.576 0 1.212-.204 1.512-.408l-.192-.792c-.264.144-.708.3-1.08.3-.744 0-.888-.36-.888-1.008v-3.528h1.704v-.876h-1.704v-1.956l-1.092.168v1.788h-.948v.876h.948v3.672c0 1.236.588 1.764 1.74 1.764zm3.708-.144v-4.488c.504-.468 1.416-.78 2.184-.672v-1.128l-.228-.012c-.864 0-1.512.288-2.052 1.02l-.084-.888h-.912V160h1.092zm4.8.144c.864 0 1.5-.276 1.98-.756.06.396.336.732.948.732.3 0 .612-.072.852-.192l-.048-.684c-.156.048-.264.072-.372.072-.312 0-.372-.144-.372-.48v-3.012c0-1.536-.684-2.124-2.208-2.124-1.428 0-2.172.54-2.364 1.692l.96.18c.132-.684.456-1.02 1.308-1.02 1.008 0 1.224.48 1.224 1.26v.6c-.168-.012-.348-.024-.54-.024-1.74 0-3.192.456-3.192 2.1 0 .6.264 1.656 1.824 1.656zm.336-.852c-.84 0-1.032-.456-1.032-.984 0-1.056 1.14-1.14 1.992-1.14.228 0 .456.012.624.036v1.392c-.336.36-.948.696-1.584.696zm5.772.708v-9.06h-1.092V160h1.092zm5.748 0v-3.936h4.224V160h1.104v-8.688h-1.104v3.756h-4.224v-3.756h-1.104V160h1.104zm8.016-7.356c.492 0 .78-.288.78-.792s-.288-.78-.78-.78c-.492 0-.768.276-.768.78s.276.792.768.792zm.528 7.356v-6.168h-1.092V160h1.092zm4.08 2.712c1.548 0 3.168-.456 3.168-1.968 0-1.212-.744-1.524-2.016-1.608l-1.716-.12c-.66-.048-.792-.228-.792-.468 0-.252.216-.42.384-.576.312.108.696.144 1.104.144 1.416 0 2.52-.816 2.52-2.208 0-.504-.156-.996-.456-1.344.312-.096.804-.156 1.176-.132v-.876c-.18-.06-.348-.096-.54-.096-.456 0-.78.36-.972.804-.408-.408-1.032-.564-1.788-.564-1.596 0-2.616.912-2.616 2.268 0 .792.348 1.428.912 1.728-.432.336-.816.684-.816 1.212 0 .444.252.684.672.852v.012c-.504.24-.996.72-.996 1.416 0 .732.468 1.524 2.772 1.524zm.084-5.496c-1.092 0-1.536-.516-1.536-1.32 0-.948.696-1.32 1.56-1.32.924 0 1.488.42 1.488 1.344 0 .828-.612 1.296-1.512 1.296zm.048 4.632c-1.392 0-1.812-.348-1.812-.864 0-.408.216-.66.684-.972l2.004.12c.84.06 1.032.3 1.032.744 0 .648-.636.972-1.908.972zm5.4-1.848v-4.596c.324-.288 1.092-.744 1.8-.744.84 0 1.152.468 1.152 1.32V160h1.092v-4.188c0-1.392-.576-2.112-1.884-2.112-.864 0-1.572.36-2.172.828v-3.588h-1.08V160h1.092zm10.92.144c1.608 0 3.072-.72 3.072-2.556 0-1.68-1.38-2.088-2.652-2.46-1.08-.324-2.076-.624-2.076-1.68 0-.768.48-1.356 1.812-1.356 1.344 0 1.68.804 1.812 1.632l1.032-.12c-.18-1.86-1.332-2.448-2.856-2.448-1.68 0-2.928.912-2.928 2.4 0 1.788 1.404 2.16 2.688 2.52 1.068.3 2.04.588 2.04 1.668 0 1.152-.996 1.464-1.932 1.464-1.488 0-1.92-.804-2.124-1.728l-1.056.156c.228 1.788 1.356 2.508 3.168 2.508zm6.984 0c1.236 0 2.328-.6 2.532-2.028l-.96-.204c-.156.912-.696 1.32-1.536 1.32-.984 0-1.728-.552-1.728-2.388 0-1.752.876-2.232 1.764-2.232.864 0 1.284.468 1.38 1.38l1.044-.144c-.084-1.428-.996-2.148-2.376-2.148-1.848 0-2.952 1.128-2.952 3.276 0 1.848.792 3.168 2.832 3.168zm5.1-.144v-4.596c.324-.288 1.092-.744 1.8-.744.84 0 1.152.468 1.152 1.32V160h1.092v-4.188c0-1.392-.576-2.112-1.884-2.112-.864 0-1.572.36-2.172.828v-3.588h-1.08V160h1.092zm8.352.144c2.076 0 2.916-1.32 2.916-3.348 0-1.836-.804-3.096-2.76-3.096-1.968 0-3 1.248-3 3.24 0 1.824.708 3.204 2.844 3.204zm.06-.876c-1.2 0-1.776-.744-1.776-2.376 0-1.644.732-2.292 1.824-2.292 1.068 0 1.668.564 1.668 2.268 0 1.752-.648 2.4-1.716 2.4zm6.876.876c2.076 0 2.916-1.32 2.916-3.348 0-1.836-.804-3.096-2.76-3.096-1.968 0-3 1.248-3 3.24 0 1.824.708 3.204 2.844 3.204zm.06-.876c-1.2 0-1.776-.744-1.776-2.376 0-1.644.732-2.292 1.824-2.292 1.068 0 1.668.564 1.668 2.268 0 1.752-.648 2.4-1.716 2.4zm5.508.732v-9.06h-1.092V160h1.092zM164.416 193.144c1.524 0 3.096-.648 3.396-2.568l-.996-.204c-.276 1.224-.948 1.824-2.328 1.824-1.74 0-2.748-1.008-2.748-3.504 0-2.388 1.092-3.576 2.892-3.576 1.428 0 2.04.708 2.208 2.064l1.032-.108c-.132-2.028-1.404-2.916-3.228-2.916-2.472 0-4.044 1.704-4.044 4.632 0 2.604 1.092 4.356 3.816 4.356zm7.32 0c1.236 0 2.196-.588 2.448-1.788l-.96-.216c-.168.696-.576 1.092-1.452 1.092-.984 0-1.68-.492-1.728-2.064h4.152c.036-.288.048-.564.048-.804 0-1.524-.72-2.664-2.448-2.664-1.584 0-2.904.972-2.904 3.228 0 1.692.66 3.216 2.844 3.216zm1.38-3.84h-3.06c.06-1.224.852-1.716 1.668-1.716.972 0 1.392.612 1.392 1.716zM176.92 193v-4.596c.324-.288 1.092-.744 1.8-.744.84 0 1.152.468 1.152 1.32V193h1.092v-4.188c0-1.392-.576-2.112-1.896-2.112-.852 0-1.62.384-2.22.864l-.06-.732h-.96V193h1.092zm7.824.144c.576 0 1.212-.204 1.512-.408l-.192-.792c-.264.144-.708.3-1.08.3-.744 0-.888-.36-.888-1.008v-3.528h1.704v-.876h-1.704v-1.956l-1.092.168v1.788h-.948v.876h.948v3.672c0 1.236.588 1.764 1.74 1.764zm3.708-.144v-4.488c.504-.468 1.416-.78 2.184-.672v-1.128l-.228-.012c-.864 0-1.512.288-2.052 1.02l-.084-.888h-.912V193h1.092zm4.8.144c.864 0 1.5-.276 1.98-.756.06.396.336.732.948.732.3 0 .612-.072.852-.192l-.048-.684c-.156.048-.264.072-.372.072-.312 0-.372-.144-.372-.48v-3.012c0-1.536-.684-2.124-2.208-2.124-1.428 0-2.172.54-2.364 1.692l.96.18c.132-.684.456-1.02 1.308-1.02 1.008 0 1.224.48 1.224 1.26v.6c-.168-.012-.348-.024-.54-.024-1.74 0-3.192.456-3.192 2.1 0 .6.264 1.656 1.824 1.656zm.336-.852c-.84 0-1.032-.456-1.032-.984 0-1.056 1.14-1.14 1.992-1.14.228 0 .456.012.624.036v1.392c-.336.36-.948.696-1.584.696zm5.772.708v-9.06h-1.092V193h1.092zm5.748 0v-3.936h4.224V193h1.104v-8.688h-1.104v3.756h-4.224v-3.756h-1.104V193h1.104zm8.016-7.356c.492 0 .78-.288.78-.792s-.288-.78-.78-.78c-.492 0-.768.276-.768.78s.276.792.768.792zm.528 7.356v-6.168h-1.092V193h1.092zm4.08 2.712c1.548 0 3.168-.456 3.168-1.968 0-1.212-.744-1.524-2.016-1.608l-1.716-.12c-.66-.048-.792-.228-.792-.468 0-.252.216-.42.384-.576.312.108.696.144 1.104.144 1.416 0 2.52-.816 2.52-2.208 0-.504-.156-.996-.456-1.344.312-.096.804-.156 1.176-.132v-.876c-.18-.06-.348-.096-.54-.096-.456 0-.78.36-.972.804-.408-.408-1.032-.564-1.788-.564-1.596 0-2.616.912-2.616 2.268 0 .792.348 1.428.912 1.728-.432.336-.816.684-.816 1.212 0 .444.252.684.672.852v.012c-.504.24-.996.72-.996 1.416 0 .732.468 1.524 2.772 1.524zm.084-5.496c-1.092 0-1.536-.516-1.536-1.32 0-.948.696-1.32 1.56-1.32.924 0 1.488.42 1.488 1.344 0 .828-.612 1.296-1.512 1.296zm.048 4.632c-1.392 0-1.812-.348-1.812-.864 0-.408.216-.66.684-.972l2.004.12c.84.06 1.032.3 1.032.744 0 .648-.636.972-1.908.972zm5.4-1.848v-4.596c.324-.288 1.092-.744 1.8-.744.84 0 1.152.468 1.152 1.32V193h1.092v-4.188c0-1.392-.576-2.112-1.884-2.112-.864 0-1.572.36-2.172.828v-3.588h-1.08V193h1.092zm10.92.144c1.608 0 3.072-.72 3.072-2.556 0-1.68-1.38-2.088-2.652-2.46-1.08-.324-2.076-.624-2.076-1.68 0-.768.48-1.356 1.812-1.356 1.344 0 1.68.804 1.812 1.632l1.032-.12c-.18-1.86-1.332-2.448-2.856-2.448-1.68 0-2.928.912-2.928 2.4 0 1.788 1.404 2.16 2.688 2.52 1.068.3 2.04.588 2.04 1.668 0 1.152-.996 1.464-1.932 1.464-1.488 0-1.92-.804-2.124-1.728l-1.056.156c.228 1.788 1.356 2.508 3.168 2.508zm6.984 0c1.236 0 2.328-.6 2.532-2.028l-.96-.204c-.156.912-.696 1.32-1.536 1.32-.984 0-1.728-.552-1.728-2.388 0-1.752.876-2.232 1.764-2.232.864 0 1.284.468 1.38 1.38l1.044-.144c-.084-1.428-.996-2.148-2.376-2.148-1.848 0-2.952 1.128-2.952 3.276 0 1.848.792 3.168 2.832 3.168zm5.1-.144v-4.596c.324-.288 1.092-.744 1.8-.744.84 0 1.152.468 1.152 1.32V193h1.092v-4.188c0-1.392-.576-2.112-1.884-2.112-.864 0-1.572.36-2.172.828v-3.588h-1.08V193h1.092zm8.352.144c2.076 0 2.916-1.32 2.916-3.348 0-1.836-.804-3.096-2.76-3.096-1.968 0-3 1.248-3 3.24 0 1.824.708 3.204 2.844 3.204zm.06-.876c-1.2 0-1.776-.744-1.776-2.376 0-1.644.732-2.292 1.824-2.292 1.068 0 1.668.564 1.668 2.268 0 1.752-.648 2.4-1.716 2.4zm6.876.876c2.076 0 2.916-1.32 2.916-3.348 0-1.836-.804-3.096-2.76-3.096-1.968 0-3 1.248-3 3.24 0 1.824.708 3.204 2.844 3.204zm.06-.876c-1.2 0-1.776-.744-1.776-2.376 0-1.644.732-2.292 1.824-2.292 1.068 0 1.668.564 1.668 2.268 0 1.752-.648 2.4-1.716 2.4zm5.508.732v-9.06h-1.092V193h1.092z"/>
        <path fill="#06806B" fill-rule="nonzero" d="M344.16 93l2.784-8.688h-1.128l-2.376 7.62h-.012l-2.46-7.62h-1.236L342.66 93h1.5zm4.44-7.356c.492 0 .78-.288.78-.792s-.288-.78-.78-.78c-.492 0-.768.276-.768.78s.276.792.768.792zm.528 7.356v-6.168h-1.092V93h1.092zm4.356.144c1.236 0 2.196-.588 2.448-1.788l-.96-.216c-.168.696-.576 1.092-1.452 1.092-.984 0-1.68-.492-1.728-2.064h4.152c.036-.288.048-.564.048-.804 0-1.524-.72-2.664-2.448-2.664-1.584 0-2.904.972-2.904 3.228 0 1.692.66 3.216 2.844 3.216zm1.38-3.84h-3.06c.06-1.224.852-1.716 1.668-1.716.972 0 1.392.612 1.392 1.716zm5.04 3.696l1.26-4.86h.012l1.272 4.86h1.272l1.92-6.168h-1.056l-1.464 4.992h-.012l-1.344-4.992h-1.128l-1.356 5.016-1.5-5.016h-1.104L358.608 93h1.296zm10.62 0v-3.612h1.956L374.472 93h1.2l-2.136-3.9c1.008-.348 1.68-1.116 1.68-2.424 0-1.188-.648-2.364-2.808-2.364h-2.976V93h1.092zm1.62-4.536h-1.62v-3.216h1.512c1.248 0 2.04.312 2.04 1.488 0 1.344-.792 1.728-1.932 1.728zm7.068 4.68c1.236 0 2.196-.588 2.448-1.788l-.96-.216c-.168.696-.576 1.092-1.452 1.092-.984 0-1.68-.492-1.728-2.064h4.152c.036-.288.048-.564.048-.804 0-1.524-.72-2.664-2.448-2.664-1.584 0-2.904.972-2.904 3.228 0 1.692.66 3.216 2.844 3.216zm1.38-3.84h-3.06c.06-1.224.852-1.716 1.668-1.716.972 0 1.392.612 1.392 1.716zm3.768 6.24v-3c.444.336 1.032.6 1.776.6 1.38 0 2.568-.96 2.568-3.372 0-2.268-.96-3.072-2.256-3.072-.876 0-1.572.336-2.136.84l-.06-.708h-.948v8.712h1.056zm1.62-3.324c-.708 0-1.32-.408-1.584-.612v-3.216c.36-.36 1.044-.78 1.728-.78.984 0 1.464.6 1.464 2.148 0 1.476-.432 2.46-1.608 2.46zm6.756.924c2.076 0 2.916-1.32 2.916-3.348 0-1.836-.804-3.096-2.76-3.096-1.968 0-3 1.248-3 3.24 0 1.824.708 3.204 2.844 3.204zm.06-.876c-1.2 0-1.776-.744-1.776-2.376 0-1.644.732-2.292 1.824-2.292 1.068 0 1.668.564 1.668 2.268 0 1.752-.648 2.4-1.716 2.4zm5.508.732v-4.488c.504-.468 1.416-.78 2.184-.672v-1.128l-.228-.012c-.864 0-1.512.288-2.052 1.02l-.084-.888h-.912V93h1.092zm5.208.144c.576 0 1.212-.204 1.512-.408l-.192-.792c-.264.144-.708.3-1.08.3-.744 0-.888-.36-.888-1.008v-3.528h1.704v-.876h-1.704v-1.956l-1.092.168v1.788h-.948v.876h.948v3.672c0 1.236.588 1.764 1.74 1.764zm4.572 0c1.5 0 2.412-.696 2.412-1.872 0-1.38-1.068-1.608-2.196-1.848-.864-.18-1.368-.36-1.368-.996 0-.468.288-.864 1.188-.864.9 0 1.14.432 1.284 1.14l.984-.216c-.192-1.092-.792-1.788-2.256-1.788-1.248 0-2.28.612-2.28 1.86 0 1.44 1.212 1.656 2.22 1.86.84.168 1.344.288 1.344.972 0 .66-.54.888-1.284.888-1.092 0-1.368-.528-1.536-1.188l-.972.264c.192 1.236 1.044 1.788 2.46 1.788zM344.16 126l2.784-8.688h-1.128l-2.376 7.62h-.012l-2.46-7.62h-1.236L342.66 126h1.5zm4.44-7.356c.492 0 .78-.288.78-.792s-.288-.78-.78-.78c-.492 0-.768.276-.768.78s.276.792.768.792zm.528 7.356v-6.168h-1.092V126h1.092zm4.356.144c1.236 0 2.196-.588 2.448-1.788l-.96-.216c-.168.696-.576 1.092-1.452 1.092-.984 0-1.68-.492-1.728-2.064h4.152c.036-.288.048-.564.048-.804 0-1.524-.72-2.664-2.448-2.664-1.584 0-2.904.972-2.904 3.228 0 1.692.66 3.216 2.844 3.216zm1.38-3.84h-3.06c.06-1.224.852-1.716 1.668-1.716.972 0 1.392.612 1.392 1.716zm5.04 3.696l1.26-4.86h.012l1.272 4.86h1.272l1.92-6.168h-1.056l-1.464 4.992h-.012l-1.344-4.992h-1.128l-1.356 5.016-1.5-5.016h-1.104l1.932 6.168h1.296zm10.62 0v-3.612h1.956l1.992 3.612h1.2l-2.136-3.9c1.008-.348 1.68-1.116 1.68-2.424 0-1.188-.648-2.364-2.808-2.364h-2.976V126h1.092zm1.62-4.536h-1.62v-3.216h1.512c1.248 0 2.04.312 2.04 1.488 0 1.344-.792 1.728-1.932 1.728zm7.068 4.68c1.236 0 2.196-.588 2.448-1.788l-.96-.216c-.168.696-.576 1.092-1.452 1.092-.984 0-1.68-.492-1.728-2.064h4.152c.036-.288.048-.564.048-.804 0-1.524-.72-2.664-2.448-2.664-1.584 0-2.904.972-2.904 3.228 0 1.692.66 3.216 2.844 3.216zm1.38-3.84h-3.06c.06-1.224.852-1.716 1.668-1.716.972 0 1.392.612 1.392 1.716zm3.768 6.24v-3c.444.336 1.032.6 1.776.6 1.38 0 2.568-.96 2.568-3.372 0-2.268-.96-3.072-2.256-3.072-.876 0-1.572.336-2.136.84l-.06-.708h-.948v8.712h1.056zm1.62-3.324c-.708 0-1.32-.408-1.584-.612v-3.216c.36-.36 1.044-.78 1.728-.78.984 0 1.464.6 1.464 2.148 0 1.476-.432 2.46-1.608 2.46zm6.756.924c2.076 0 2.916-1.32 2.916-3.348 0-1.836-.804-3.096-2.76-3.096-1.968 0-3 1.248-3 3.24 0 1.824.708 3.204 2.844 3.204zm.06-.876c-1.2 0-1.776-.744-1.776-2.376 0-1.644.732-2.292 1.824-2.292 1.068 0 1.668.564 1.668 2.268 0 1.752-.648 2.4-1.716 2.4zm5.508.732v-4.488c.504-.468 1.416-.78 2.184-.672v-1.128l-.228-.012c-.864 0-1.512.288-2.052 1.02l-.084-.888h-.912V126h1.092zm5.208.144c.576 0 1.212-.204 1.512-.408l-.192-.792c-.264.144-.708.3-1.08.3-.744 0-.888-.36-.888-1.008v-3.528h1.704v-.876h-1.704v-1.956l-1.092.168v1.788h-.948v.876h.948v3.672c0 1.236.588 1.764 1.74 1.764zm4.572 0c1.5 0 2.412-.696 2.412-1.872 0-1.38-1.068-1.608-2.196-1.848-.864-.18-1.368-.36-1.368-.996 0-.468.288-.864 1.188-.864.9 0 1.14.432 1.284 1.14l.984-.216c-.192-1.092-.792-1.788-2.256-1.788-1.248 0-2.28.612-2.28 1.86 0 1.44 1.212 1.656 2.22 1.86.84.168 1.344.288 1.344.972 0 .66-.54.888-1.284.888-1.092 0-1.368-.528-1.536-1.188l-.972.264c.192 1.236 1.044 1.788 2.46 1.788zM344.16 159l2.784-8.688h-1.128l-2.376 7.62h-.012l-2.46-7.62h-1.236L342.66 159h1.5zm4.44-7.356c.492 0 .78-.288.78-.792s-.288-.78-.78-.78c-.492 0-.768.276-.768.78s.276.792.768.792zm.528 7.356v-6.168h-1.092V159h1.092zm4.356.144c1.236 0 2.196-.588 2.448-1.788l-.96-.216c-.168.696-.576 1.092-1.452 1.092-.984 0-1.68-.492-1.728-2.064h4.152c.036-.288.048-.564.048-.804 0-1.524-.72-2.664-2.448-2.664-1.584 0-2.904.972-2.904 3.228 0 1.692.66 3.216 2.844 3.216zm1.38-3.84h-3.06c.06-1.224.852-1.716 1.668-1.716.972 0 1.392.612 1.392 1.716zm5.04 3.696l1.26-4.86h.012l1.272 4.86h1.272l1.92-6.168h-1.056l-1.464 4.992h-.012l-1.344-4.992h-1.128l-1.356 5.016-1.5-5.016h-1.104l1.932 6.168h1.296zm10.62 0v-3.612h1.956l1.992 3.612h1.2l-2.136-3.9c1.008-.348 1.68-1.116 1.68-2.424 0-1.188-.648-2.364-2.808-2.364h-2.976V159h1.092zm1.62-4.536h-1.62v-3.216h1.512c1.248 0 2.04.312 2.04 1.488 0 1.344-.792 1.728-1.932 1.728zm7.068 4.68c1.236 0 2.196-.588 2.448-1.788l-.96-.216c-.168.696-.576 1.092-1.452 1.092-.984 0-1.68-.492-1.728-2.064h4.152c.036-.288.048-.564.048-.804 0-1.524-.72-2.664-2.448-2.664-1.584 0-2.904.972-2.904 3.228 0 1.692.66 3.216 2.844 3.216zm1.38-3.84h-3.06c.06-1.224.852-1.716 1.668-1.716.972 0 1.392.612 1.392 1.716zm3.768 6.24v-3c.444.336 1.032.6 1.776.6 1.38 0 2.568-.96 2.568-3.372 0-2.268-.96-3.072-2.256-3.072-.876 0-1.572.336-2.136.84l-.06-.708h-.948v8.712h1.056zm1.62-3.324c-.708 0-1.32-.408-1.584-.612v-3.216c.36-.36 1.044-.78 1.728-.78.984 0 1.464.6 1.464 2.148 0 1.476-.432 2.46-1.608 2.46zm6.756.924c2.076 0 2.916-1.32 2.916-3.348 0-1.836-.804-3.096-2.76-3.096-1.968 0-3 1.248-3 3.24 0 1.824.708 3.204 2.844 3.204zm.06-.876c-1.2 0-1.776-.744-1.776-2.376 0-1.644.732-2.292 1.824-2.292 1.068 0 1.668.564 1.668 2.268 0 1.752-.648 2.4-1.716 2.4zm5.508.732v-4.488c.504-.468 1.416-.78 2.184-.672v-1.128l-.228-.012c-.864 0-1.512.288-2.052 1.02l-.084-.888h-.912V159h1.092zm5.208.144c.576 0 1.212-.204 1.512-.408l-.192-.792c-.264.144-.708.3-1.08.3-.744 0-.888-.36-.888-1.008v-3.528h1.704v-.876h-1.704v-1.956l-1.092.168v1.788h-.948v.876h.948v3.672c0 1.236.588 1.764 1.74 1.764zm4.572 0c1.5 0 2.412-.696 2.412-1.872 0-1.38-1.068-1.608-2.196-1.848-.864-.18-1.368-.36-1.368-.996 0-.468.288-.864 1.188-.864.9 0 1.14.432 1.284 1.14l.984-.216c-.192-1.092-.792-1.788-2.256-1.788-1.248 0-2.28.612-2.28 1.86 0 1.44 1.212 1.656 2.22 1.86.84.168 1.344.288 1.344.972 0 .66-.54.888-1.284.888-1.092 0-1.368-.528-1.536-1.188l-.972.264c.192 1.236 1.044 1.788 2.46 1.788zM344.16 192l2.784-8.688h-1.128l-2.376 7.62h-.012l-2.46-7.62h-1.236L342.66 192h1.5zm4.44-7.356c.492 0 .78-.288.78-.792s-.288-.78-.78-.78c-.492 0-.768.276-.768.78s.276.792.768.792zm.528 7.356v-6.168h-1.092V192h1.092zm4.356.144c1.236 0 2.196-.588 2.448-1.788l-.96-.216c-.168.696-.576 1.092-1.452 1.092-.984 0-1.68-.492-1.728-2.064h4.152c.036-.288.048-.564.048-.804 0-1.524-.72-2.664-2.448-2.664-1.584 0-2.904.972-2.904 3.228 0 1.692.66 3.216 2.844 3.216zm1.38-3.84h-3.06c.06-1.224.852-1.716 1.668-1.716.972 0 1.392.612 1.392 1.716zm5.04 3.696l1.26-4.86h.012l1.272 4.86h1.272l1.92-6.168h-1.056l-1.464 4.992h-.012l-1.344-4.992h-1.128l-1.356 5.016-1.5-5.016h-1.104l1.932 6.168h1.296zm10.62 0v-3.612h1.956l1.992 3.612h1.2l-2.136-3.9c1.008-.348 1.68-1.116 1.68-2.424 0-1.188-.648-2.364-2.808-2.364h-2.976V192h1.092zm1.62-4.536h-1.62v-3.216h1.512c1.248 0 2.04.312 2.04 1.488 0 1.344-.792 1.728-1.932 1.728zm7.068 4.68c1.236 0 2.196-.588 2.448-1.788l-.96-.216c-.168.696-.576 1.092-1.452 1.092-.984 0-1.68-.492-1.728-2.064h4.152c.036-.288.048-.564.048-.804 0-1.524-.72-2.664-2.448-2.664-1.584 0-2.904.972-2.904 3.228 0 1.692.66 3.216 2.844 3.216zm1.38-3.84h-3.06c.06-1.224.852-1.716 1.668-1.716.972 0 1.392.612 1.392 1.716zm3.768 6.24v-3c.444.336 1.032.6 1.776.6 1.38 0 2.568-.96 2.568-3.372 0-2.268-.96-3.072-2.256-3.072-.876 0-1.572.336-2.136.84l-.06-.708h-.948v8.712h1.056zm1.62-3.324c-.708 0-1.32-.408-1.584-.612v-3.216c.36-.36 1.044-.78 1.728-.78.984 0 1.464.6 1.464 2.148 0 1.476-.432 2.46-1.608 2.46zm6.756.924c2.076 0 2.916-1.32 2.916-3.348 0-1.836-.804-3.096-2.76-3.096-1.968 0-3 1.248-3 3.24 0 1.824.708 3.204 2.844 3.204zm.06-.876c-1.2 0-1.776-.744-1.776-2.376 0-1.644.732-2.292 1.824-2.292 1.068 0 1.668.564 1.668 2.268 0 1.752-.648 2.4-1.716 2.4zm5.508.732v-4.488c.504-.468 1.416-.78 2.184-.672v-1.128l-.228-.012c-.864 0-1.512.288-2.052 1.02l-.084-.888h-.912V192h1.092zm5.208.144c.576 0 1.212-.204 1.512-.408l-.192-.792c-.264.144-.708.3-1.08.3-.744 0-.888-.36-.888-1.008v-3.528h1.704v-.876h-1.704v-1.956l-1.092.168v1.788h-.948v.876h.948v3.672c0 1.236.588 1.764 1.74 1.764zm4.572 0c1.5 0 2.412-.696 2.412-1.872 0-1.38-1.068-1.608-2.196-1.848-.864-.18-1.368-.36-1.368-.996 0-.468.288-.864 1.188-.864.9 0 1.14.432 1.284 1.14l.984-.216c-.192-1.092-.792-1.788-2.256-1.788-1.248 0-2.28.612-2.28 1.86 0 1.44 1.212 1.656 2.22 1.86.84.168 1.344.288 1.344.972 0 .66-.54.888-1.284.888-1.092 0-1.368-.528-1.536-1.188l-.972.264c.192 1.236 1.044 1.788 2.46 1.788z"/>
        <path fill="#6F6F6F" fill-rule="nonzero" d="M39.888 65v-7.728h2.604v-.96h-6.336v.96h2.628V65h1.104zm6.192.144c1.236 0 2.196-.588 2.448-1.788l-.96-.216c-.168.696-.576 1.092-1.452 1.092-.984 0-1.68-.492-1.728-2.064h4.152c.036-.288.048-.564.048-.804 0-1.524-.72-2.664-2.448-2.664-1.584 0-2.904.972-2.904 3.228 0 1.692.66 3.216 2.844 3.216zm1.38-3.84H44.4c.06-1.224.852-1.716 1.668-1.716.972 0 1.392.612 1.392 1.716zm4.236 3.84c.864 0 1.5-.276 1.98-.756.06.396.336.732.948.732.3 0 .612-.072.852-.192l-.048-.684c-.156.048-.264.072-.372.072-.312 0-.372-.144-.372-.48v-3.012c0-1.536-.684-2.124-2.208-2.124-1.428 0-2.172.54-2.364 1.692l.96.18c.132-.684.456-1.02 1.308-1.02 1.008 0 1.224.48 1.224 1.26v.6c-.168-.012-.348-.024-.54-.024-1.74 0-3.192.456-3.192 2.1 0 .6.264 1.656 1.824 1.656zm.336-.852c-.84 0-1.032-.456-1.032-.984 0-1.056 1.14-1.14 1.992-1.14.228 0 .456.012.624.036v1.392c-.336.36-.948.696-1.584.696zm7.128.852c1.236 0 2.328-.6 2.532-2.028l-.96-.204c-.156.912-.696 1.32-1.536 1.32-.984 0-1.728-.552-1.728-2.388 0-1.752.876-2.232 1.764-2.232.864 0 1.284.468 1.38 1.38l1.044-.144c-.084-1.428-.996-2.148-2.376-2.148-1.848 0-2.952 1.128-2.952 3.276 0 1.848.792 3.168 2.832 3.168zm5.1-.144v-4.596c.324-.288 1.092-.744 1.8-.744.84 0 1.152.468 1.152 1.32V65h1.092v-4.188c0-1.392-.576-2.112-1.884-2.112-.864 0-1.572.36-2.172.828V55.94h-1.08V65h1.092zm8.352.144c1.236 0 2.196-.588 2.448-1.788l-.96-.216c-.168.696-.576 1.092-1.452 1.092-.984 0-1.68-.492-1.728-2.064h4.152c.036-.288.048-.564.048-.804 0-1.524-.72-2.664-2.448-2.664-1.584 0-2.904.972-2.904 3.228 0 1.692.66 3.216 2.844 3.216zm1.38-3.84h-3.06c.06-1.224.852-1.716 1.668-1.716.972 0 1.392.612 1.392 1.716zM77.796 65v-4.488c.504-.468 1.416-.78 2.184-.672v-1.128l-.228-.012c-.864 0-1.512.288-2.052 1.02l-.084-.888h-.912V65h1.092zM163.432 65.144c1.608 0 3.072-.72 3.072-2.556 0-1.68-1.38-2.088-2.652-2.46-1.08-.324-2.076-.624-2.076-1.68 0-.768.48-1.356 1.812-1.356 1.344 0 1.68.804 1.812 1.632l1.032-.12c-.18-1.86-1.332-2.448-2.856-2.448-1.68 0-2.928.912-2.928 2.4 0 1.788 1.404 2.16 2.688 2.52 1.068.3 2.04.588 2.04 1.668 0 1.152-.996 1.464-1.932 1.464-1.488 0-1.92-.804-2.124-1.728l-1.056.156c.228 1.788 1.356 2.508 3.168 2.508zm6.984 0c1.236 0 2.328-.6 2.532-2.028l-.96-.204c-.156.912-.696 1.32-1.536 1.32-.984 0-1.728-.552-1.728-2.388 0-1.752.876-2.232 1.764-2.232.864 0 1.284.468 1.38 1.38l1.044-.144c-.084-1.428-.996-2.148-2.376-2.148-1.848 0-2.952 1.128-2.952 3.276 0 1.848.792 3.168 2.832 3.168zm5.1-.144v-4.596c.324-.288 1.092-.744 1.8-.744.84 0 1.152.468 1.152 1.32V65h1.092v-4.188c0-1.392-.576-2.112-1.884-2.112-.864 0-1.572.36-2.172.828V55.94h-1.08V65h1.092zm8.352.144c2.076 0 2.916-1.32 2.916-3.348 0-1.836-.804-3.096-2.76-3.096-1.968 0-3 1.248-3 3.24 0 1.824.708 3.204 2.844 3.204zm.06-.876c-1.2 0-1.776-.744-1.776-2.376 0-1.644.732-2.292 1.824-2.292 1.068 0 1.668.564 1.668 2.268 0 1.752-.648 2.4-1.716 2.4zm6.876.876c2.076 0 2.916-1.32 2.916-3.348 0-1.836-.804-3.096-2.76-3.096-1.968 0-3 1.248-3 3.24 0 1.824.708 3.204 2.844 3.204zm.06-.876c-1.2 0-1.776-.744-1.776-2.376 0-1.644.732-2.292 1.824-2.292 1.068 0 1.668.564 1.668 2.268 0 1.752-.648 2.4-1.716 2.4zm5.508.732v-9.06h-1.092V65h1.092z"/>
        <path fill="#E0E0E0" d="M24 73H423V74H24zM24 106H423V107H24zM24 139H423V140H24zM24 172H423V173H24z"/>
    </g>
</svg>
