<?xml version="1.0" encoding="UTF-8"?>
<svg width="36px" height="36px" viewBox="0 0 36 36" version="1.1" xmlns="http://www.w3.org/2000/svg" xmlns:xlink="http://www.w3.org/1999/xlink">
    <!-- Generator: Sketch 43.2 (39069) - http://www.bohemiancoding.com/sketch -->
    <title>Group 17</title>
    <desc>Created with Sketch.</desc>
    <defs></defs>
    <g id="V1" stroke="none" stroke-width="1" fill="none" fill-rule="evenodd">
        <g id="10_08-My-Activity-Pack" transform="translate(-240.000000, -515.000000)">
            <g id="Group-17" transform="translate(240.000000, 515.000000)">
                <g id="Group-7" transform="translate(7.000000, 7.000000)" fill-rule="nonzero" fill="#027360">
                    <path d="M21.9,3.8 C21.7,3.8 21.5,3.9 21.3,4 C20.5,4.5 19.7,4.7 18.9,4.7 C17.4,4.7 15.9,4 14.4,3.4 C12.8,2.7 11.2,2 9.6,2 C8.6,2 7.8,2.3 6.9,2.8 C6.4,3.1 6,3.8 6,4.4 L6,12.2 C6,12.6 6.3,12.8 6.5,12.8 C6.7,12.8 6.9,12.7 7.1,12.6 C7.9,12.1 8.7,11.9 9.5,11.9 C11,11.9 12.5,12.6 14,13.2 C15.5,13.9 17.1,14.6 18.7,14.6 C19.7,14.6 20.6,14.3 21.4,13.8 C21.9,13.5 22.3,12.8 22.3,12.2 L22.3,4.4 C22.4,3.9 22.1,3.8 21.9,3.8" id="Fill-42"></path>
                    <path d="M1.8,0 C0.8,0 2.22044605e-16,0.7 2.22044605e-16,1.6 C2.22044605e-16,2.1 0.3,2.6 0.7,2.9 C0.7,2.9 0.7,2.9 0.7,3 L0.7,20.2 C0.7,20.8 1.2,21.2 1.7,21.2 L1.7,21.2 C2.3,21.2 2.7,20.8 2.7,20.2 L2.7,3 C2.7,3 2.7,3 2.7,2.9 C3.1,2.6 3.4,2.1 3.4,1.6 C3.5,0.7 2.7,0 1.8,0" id="Fill-44"></path>
                </g>
                <rect id="Rectangle-13-Copy-19" stroke="#027360" x="0.5" y="0.5" width="35" height="35" rx="3"></rect>
            </g>
        </g>
    </g>
</svg>