<svg width="107" height="44" viewBox="0 0 107 44" fill="none" xmlns="http://www.w3.org/2000/svg">
<path fill-rule="evenodd" clip-rule="evenodd" d="M94.8836 30.2181C95.1669 30.5255 94.9928 30.8326 94.6427 30.8326H91.8722C91.5014 30.8326 91.3051 30.7444 91.0652 30.4588L89.4073 28.6163C88.2949 30.1086 86.7447 31.2274 84.171 31.2274C80.9861 31.2274 78.4766 29.2965 78.4766 25.9837C78.4766 23.4375 79.8299 22.0767 81.8808 20.9359C80.8765 19.773 80.4193 18.5441 80.4193 17.4694C80.4193 14.7477 82.3171 12.8828 85.1744 12.8828C88.0978 12.8828 89.887 14.617 89.887 17.1838C89.887 19.3782 88.3167 20.6059 86.6581 21.5282L89.1018 24.1842L90.476 21.7695C90.6503 21.4847 90.8468 21.3746 91.1954 21.3746H93.311C93.6607 21.3746 93.857 21.6166 93.6395 21.9894L91.1957 26.2019L94.8836 30.2181ZM98.3298 30.8325C98.0458 30.8325 97.8501 30.6344 97.8501 30.3495V16.1959H93.0718C92.7877 16.1959 92.5918 15.9986 92.5918 15.7134V13.761C92.5918 13.4751 92.7878 13.2773 93.0718 13.2773H105.791C106.075 13.2773 106.27 13.4753 106.27 13.761V15.7133C106.27 15.9983 106.075 16.1959 105.791 16.1959H101.013V30.3492C101.013 30.6344 100.816 30.8325 100.533 30.8325H98.3298ZM61.7268 23.7662L59.2185 16.5254L56.6877 23.7662H61.7268ZM66.9199 30.8326C67.2254 30.8326 67.4003 30.5467 67.2907 30.2607L61.3785 13.7172C61.2695 13.4091 61.0513 13.2782 60.7238 13.2782H57.8004C57.4738 13.2782 57.2776 13.409 57.1681 13.7172L51.2562 30.2607C51.147 30.5466 51.3437 30.8326 51.6277 30.8326H53.7649C54.0915 30.8326 54.2886 30.6795 54.3969 30.3708L55.6856 26.6417H62.7315L64.0181 30.3708C64.1275 30.6794 64.3241 30.8326 64.6515 30.8326H66.9199ZM84.2363 28.462C85.6318 28.462 86.5704 27.7829 87.3341 26.6194L83.8006 22.8008C82.4474 23.5694 81.5743 24.3364 81.5743 25.8729C81.5745 27.3872 82.7956 28.462 84.2363 28.462ZM83.4297 17.2937C83.4297 16.3283 84.0841 15.6035 85.2182 15.6035C86.353 15.6035 86.92 16.3496 86.92 17.25C86.92 18.2152 86.2651 18.7635 84.7164 19.6638C83.8216 18.698 83.4297 18.0396 83.4297 17.2937ZM73.5929 30.3495C73.5929 30.6344 73.3956 30.8325 73.112 30.8325H70.908C70.6247 30.8325 70.4278 30.6344 70.4278 30.3492V16.1959H65.6508C65.3669 16.1959 65.1709 15.9983 65.1709 15.7133V13.761C65.1709 13.4753 65.3668 13.2773 65.6508 13.2773H78.3698C78.6534 13.2773 78.8496 13.4751 78.8496 13.761V15.7134C78.8496 15.9986 78.6534 16.1959 78.3698 16.1959H73.5929V30.3495Z" fill="#C9C9C9"/>
<path fill-rule="evenodd" clip-rule="evenodd" d="M21.9293 0.0839844C26.0236 0.0839844 29.8215 1.2062 33.0919 3.17872C33.9724 3.70779 34.4075 4.0583 34.4075 4.55928C34.4075 6.65814 28.5519 8.8386 21.0022 8.8386C13.3733 8.8386 9.07324 6.84792 9.07324 4.9965C9.07324 4.36843 9.62737 3.87984 10.6119 3.27014C13.8941 1.24539 17.8063 0.0839844 21.9293 0.0839844ZM36.3405 5.61695C36.4322 5.76156 36.478 5.91588 36.478 6.1236C36.478 8.56239 29.0601 12.8767 17.2518 12.8767C8.57553 12.8767 6.95113 9.63804 6.95113 7.57837C6.95113 6.84212 7.23175 6.08878 7.84977 5.32369C7.88353 5.2782 7.85487 5.26068 7.81592 5.29454C6.68876 6.2557 5.6531 7.33723 4.74458 8.50472C4.31049 9.05686 4.04102 9.54598 4.04102 9.83903C4.04102 14.1074 14.6774 17.2021 24.6228 17.2021C35.2197 17.2021 39.9491 13.7212 39.9491 10.6621C39.9491 9.56884 39.5262 8.93062 38.4442 7.69328C37.7419 6.88836 37.0776 6.23295 36.3745 5.5878C36.3405 5.55961 36.3169 5.58257 36.3405 5.61695ZM0.650524 17.1672C0.861414 16.0513 1.57082 13.8952 2.21081 12.6171C2.22822 12.5821 2.26218 12.5887 2.25136 12.6287C2.14352 13.0659 2.05713 13.486 2.05713 13.9061C2.05713 18.2776 9.26168 21.7398 17.8973 21.7398C25.8699 21.7398 41.6709 18.0652 41.4822 12.3638C41.4762 12.3237 41.5058 12.3186 41.5226 12.3526C42.0306 13.3943 42.6309 14.8778 42.9515 16.1499C43.2383 17.2884 43.2263 18.1333 43.003 18.9335C41.7903 23.2804 34.3049 25.6625 24.6689 25.6625C8.87407 25.6625 2.10277 21.0897 0.764089 18.2317C0.597457 17.8749 0.558081 17.6453 0.650524 17.1672ZM17.5428 30.8338C6.37382 30.8338 1.1074 25.5995 0.152083 22.0275C0.140302 21.9758 0.106445 21.9871 0.106445 22.0336C0.106445 23.2361 0.226059 24.788 0.431855 25.818C0.53003 26.3194 0.935572 27.1063 1.53014 27.7335C4.23467 30.5701 10.9774 34.5448 22.6548 34.5448C38.5648 34.5448 42.2025 29.2121 42.9454 27.4584C43.4766 26.2042 43.7518 23.9376 43.7518 22.0337C43.7518 21.573 43.7403 21.2049 43.723 20.8437C43.723 20.785 43.6893 20.7802 43.6776 20.8374C42.8825 25.1285 29.2893 30.8338 17.5428 30.8338ZM38.2104 36.1033C34.681 39.0191 28.7798 40.4922 23.4095 40.4922C13.2075 40.4922 4.94917 37.3118 2.22702 31.4899C2.20951 31.4446 2.23827 31.4278 2.26703 31.4672C5.18914 35.7291 12.6529 37.9611 19.5895 37.9611C29.4032 37.9611 38.9075 34.9297 42.1896 30.0696C42.2244 30.0173 42.2529 30.0399 42.2362 30.0865C41.8583 31.0414 41.3944 32.0128 40.9201 32.8304C40.0962 34.2514 39.1762 35.3088 38.2104 36.1033ZM21.9294 43.9835C16.8911 43.9835 12.2472 42.252 8.54746 39.3702C8.51308 39.3418 8.53006 39.3072 8.57591 39.33C10.9721 40.6758 15.2153 42.1832 21.9296 42.1832C29.6557 42.1832 34.5619 39.658 36.2833 38.5012C36.3291 38.4739 36.3521 38.5012 36.3056 38.5426C32.4694 41.9237 27.443 43.9835 21.9294 43.9835Z" fill="#C9C9C9"/>
</svg>
