<svg width="173" height="70" viewBox="0 0 173 70" fill="none" xmlns="http://www.w3.org/2000/svg">
<path fill-rule="evenodd" clip-rule="evenodd" d="M127.884 43.2181C128.167 43.5255 127.993 43.8326 127.643 43.8326H124.872C124.501 43.8326 124.305 43.7444 124.065 43.4588L122.407 41.6163C121.295 43.1086 119.745 44.2274 117.171 44.2274C113.986 44.2274 111.477 42.2965 111.477 38.9837C111.477 36.4375 112.83 35.0767 114.881 33.9359C113.876 32.773 113.419 31.5441 113.419 30.4694C113.419 27.7477 115.317 25.8828 118.174 25.8828C121.098 25.8828 122.887 27.617 122.887 30.1838C122.887 32.3782 121.317 33.6059 119.658 34.5282L122.102 37.1842L123.476 34.7695C123.65 34.4847 123.847 34.3746 124.195 34.3746H126.311C126.661 34.3746 126.857 34.6166 126.64 34.9894L124.196 39.2019L127.884 43.2181ZM131.33 43.8325C131.046 43.8325 130.85 43.6344 130.85 43.3495V29.1959H126.072C125.788 29.1959 125.592 28.9986 125.592 28.7134V26.761C125.592 26.4751 125.788 26.2773 126.072 26.2773H138.791C139.075 26.2773 139.27 26.4753 139.27 26.761V28.7133C139.27 28.9983 139.075 29.1959 138.791 29.1959H134.013V43.3492C134.013 43.6344 133.816 43.8325 133.533 43.8325H131.33ZM94.7268 36.7662L92.2185 29.5254L89.6877 36.7662H94.7268ZM99.9199 43.8326C100.225 43.8326 100.4 43.5467 100.291 43.2607L94.3785 26.7172C94.2695 26.4091 94.0513 26.2782 93.7238 26.2782H90.8004C90.4738 26.2782 90.2776 26.409 90.1681 26.7172L84.2562 43.2607C84.147 43.5466 84.3437 43.8326 84.6277 43.8326H86.7649C87.0915 43.8326 87.2886 43.6795 87.3969 43.3708L88.6856 39.6417H95.7315L97.0181 43.3708C97.1275 43.6794 97.3241 43.8326 97.6515 43.8326H99.9199ZM117.236 41.462C118.632 41.462 119.57 40.7829 120.334 39.6194L116.801 35.8008C115.447 36.5694 114.574 37.3364 114.574 38.8729C114.575 40.3872 115.796 41.462 117.236 41.462ZM116.43 30.2937C116.43 29.3283 117.084 28.6035 118.218 28.6035C119.353 28.6035 119.92 29.3496 119.92 30.25C119.92 31.2152 119.265 31.7635 117.716 32.6638C116.822 31.698 116.43 31.0396 116.43 30.2937ZM106.593 43.3495C106.593 43.6344 106.396 43.8325 106.112 43.8325H103.908C103.625 43.8325 103.428 43.6344 103.428 43.3492V29.1959H98.6508C98.3669 29.1959 98.1709 28.9983 98.1709 28.7133V26.761C98.1709 26.4753 98.3668 26.2773 98.6508 26.2773H111.37C111.653 26.2773 111.85 26.4751 111.85 26.761V28.7134C111.85 28.9986 111.653 29.1959 111.37 29.1959H106.593V43.3495Z" fill="#5C5C5C"/>
<path fill-rule="evenodd" clip-rule="evenodd" d="M54.9293 13.084C59.0236 13.084 62.8215 14.2062 66.0919 16.1787C66.9724 16.7078 67.4075 17.0583 67.4075 17.5593C67.4075 19.6581 61.5519 21.8386 54.0022 21.8386C46.3733 21.8386 42.0732 19.8479 42.0732 17.9965C42.0732 17.3684 42.6274 16.8798 43.6119 16.2701C46.8941 14.2454 50.8063 13.084 54.9293 13.084ZM69.3405 18.617C69.4322 18.7616 69.478 18.9159 69.478 19.1236C69.478 21.5624 62.0601 25.8767 50.2518 25.8767C41.5755 25.8767 39.9511 22.638 39.9511 20.5784C39.9511 19.8421 40.2318 19.0888 40.8498 18.3237C40.8835 18.2782 40.8549 18.2607 40.8159 18.2945C39.6888 19.2557 38.6531 20.3372 37.7446 21.5047C37.3105 22.0569 37.041 22.546 37.041 22.839C37.041 27.1074 47.6774 30.2021 57.6228 30.2021C68.2197 30.2021 72.9491 26.7212 72.9491 23.6621C72.9491 22.5688 72.5262 21.9306 71.4442 20.6933C70.7419 19.8884 70.0776 19.233 69.3745 18.5878C69.3405 18.5596 69.3169 18.5826 69.3405 18.617ZM33.6505 30.1672C33.8614 29.0513 34.5708 26.8952 35.2108 25.6171C35.2282 25.5821 35.2622 25.5887 35.2514 25.6287C35.1435 26.0659 35.0571 26.486 35.0571 26.9061C35.0571 31.2776 42.2617 34.7398 50.8973 34.7398C58.8699 34.7398 74.6709 31.0652 74.4822 25.3638C74.4762 25.3237 74.5058 25.3186 74.5226 25.3526C75.0306 26.3943 75.6309 27.8778 75.9515 29.1499C76.2383 30.2884 76.2263 31.1333 76.003 31.9335C74.7903 36.2804 67.3049 38.6625 57.6689 38.6625C41.8741 38.6625 35.1028 34.0897 33.7641 31.2317C33.5975 30.8749 33.5581 30.6453 33.6505 30.1672ZM50.5428 43.8338C39.3738 43.8338 34.1074 38.5995 33.1521 35.0275C33.1403 34.9758 33.1064 34.9871 33.1064 35.0336C33.1064 36.2361 33.2261 37.788 33.4319 38.818C33.53 39.3194 33.9356 40.1063 34.5301 40.7335C37.2347 43.5701 43.9774 47.5448 55.6548 47.5448C71.5648 47.5448 75.2025 42.2121 75.9454 40.4584C76.4766 39.2042 76.7518 36.9376 76.7518 35.0337C76.7518 34.573 76.7403 34.2049 76.723 33.8437C76.723 33.785 76.6893 33.7802 76.6776 33.8374C75.8825 38.1285 62.2893 43.8338 50.5428 43.8338ZM71.2104 49.1033C67.681 52.0191 61.7798 53.4922 56.4095 53.4922C46.2075 53.4922 37.9492 50.3118 35.227 44.4899C35.2095 44.4446 35.2383 44.4278 35.267 44.4672C38.1891 48.7291 45.6529 50.9611 52.5895 50.9611C62.4032 50.9611 71.9075 47.9297 75.1896 43.0696C75.2244 43.0173 75.2529 43.0399 75.2362 43.0865C74.8583 44.0414 74.3944 45.0128 73.9201 45.8304C73.0962 47.2514 72.1762 48.3088 71.2104 49.1033ZM54.9294 56.9835C49.8911 56.9835 45.2472 55.252 41.5475 52.3702C41.5131 52.3418 41.5301 52.3072 41.5759 52.33C43.9721 53.6758 48.2153 55.1832 54.9296 55.1832C62.6557 55.1832 67.5619 52.658 69.2833 51.5012C69.3291 51.4739 69.3521 51.5012 69.3056 51.5426C65.4694 54.9237 60.443 56.9835 54.9294 56.9835Z" fill="#5C5C5C"/>
</svg>
