<svg width="146" height="20" viewBox="0 0 146 20" fill="none" xmlns="http://www.w3.org/2000/svg">
<path fill-rule="evenodd" clip-rule="evenodd" d="M11.7217 3.57987C11.2204 3.37676 10.5942 3.24971 10.0677 3.24971C9.06472 3.24971 8.46318 3.73197 8.18759 4.722L8.08778 5.10271H11.3207L10.4436 8.40388H7.26011L4.52847 18.7109H0.71875L3.45084 8.40388H1.87147L2.74904 5.10271H4.32796L4.45339 4.57036C4.80451 3.0721 5.3548 2.10757 6.03186 1.42175C6.98497 0.457218 8.31302 0 9.94229 0C11.0195 0 11.9222 0.152558 12.5489 0.380711L11.7217 3.57987Z" fill="#C9C9C9"/>
<path fill-rule="evenodd" clip-rule="evenodd" d="M18.4126 13.5826C17.986 15.0549 16.608 16.3245 15.0291 16.3245C13.9515 16.3245 13.2744 15.7157 13.2744 14.8777C13.2744 14.319 13.4749 13.8613 13.8256 13.5065C14.3021 13.0238 15.079 12.7451 16.0061 12.7451C16.9335 12.7451 17.8615 12.9737 18.5124 13.2269L18.4126 13.5826ZM17.5359 4.95117C15.6306 4.95117 13.9267 5.33188 12.5478 5.9157L13.1498 8.9623C14.1272 8.55609 15.4301 8.22547 16.7334 8.22547C18.6135 8.22547 19.265 8.88579 19.265 9.82573C19.265 10.2319 19.1899 10.5361 19.1152 10.8408L19.0644 11.0184C17.9365 10.6632 16.7334 10.4086 15.2799 10.4086C13.4254 10.4086 11.8208 10.9679 10.7684 12.0344C9.96634 12.8464 9.49023 13.938 9.49023 15.3096C9.49023 17.4422 11.0696 18.9651 13.4002 18.9651C14.9796 18.9651 16.3328 18.3048 17.4104 17.1376L17.0094 18.711H20.6942L22.6741 11.1965C22.8494 10.5106 22.9744 9.85123 22.9744 9.13991C22.9744 6.47402 21.1451 4.95117 17.5359 4.95117V4.95117Z" fill="#C9C9C9"/>
<mask id="mask0_3352_128114" style="mask-type:luminance" maskUnits="userSpaceOnUse" x="22" y="4" width="15" height="16">
<path fill-rule="evenodd" clip-rule="evenodd" d="M22.9492 4.84912H36.0832V19.016H22.9492V4.84912Z" fill="white"/>
</mask>
<g mask="url(#mask0_3352_128114)">
<path fill-rule="evenodd" clip-rule="evenodd" d="M34.0277 9.24142C32.7248 8.20084 31.6216 7.79417 30.5192 7.79417C29.5913 7.79417 29.0406 8.22543 29.0406 8.93676C29.0406 9.46957 29.6915 9.85119 30.82 10.3585C32.5742 11.1459 34.5043 12.0849 34.5043 14.218C34.5043 17.1881 32.1984 19.016 28.9897 19.016C26.9599 19.016 24.5286 18.2282 22.9492 16.5533L25.1553 14.243C26.5584 15.6643 28.0627 16.071 29.2658 16.071C30.2679 16.071 30.8694 15.6393 30.8694 14.8783C30.8694 14.3696 30.2432 14.0149 29.3161 13.6082C27.2103 12.6942 25.4057 11.8062 25.4057 9.62213C25.4057 6.90569 27.4607 4.84912 30.7944 4.84912C32.9748 4.84912 34.9799 5.81411 36.0832 6.80414L34.0277 9.24142Z" fill="#C9C9C9"/>
</g>
<path fill-rule="evenodd" clip-rule="evenodd" d="M46.4338 5.10289L45.5571 8.40406H42.3988L40.8946 14.1161C40.8447 14.3192 40.7947 14.5729 40.7947 14.725C40.7947 15.2332 41.1198 15.5378 41.822 15.5378C42.4231 15.5378 43.1505 15.3853 43.7768 15.1066L42.8997 18.3809C42.1475 18.7361 41.1706 18.9396 40.1429 18.9396C37.8365 18.9396 36.709 17.7716 36.709 16.2742C36.709 15.7159 36.8088 15.1826 36.9594 14.5729L38.5887 8.40406H36.985L37.8626 5.10289H39.4658L40.3937 1.62549H44.2034L43.2755 5.10289H46.4338Z" fill="#C9C9C9"/>
<path fill-rule="evenodd" clip-rule="evenodd" d="M59.8164 3.57987C59.3152 3.37676 58.6889 3.24971 58.1625 3.24971C57.1594 3.24971 56.5579 3.73197 56.2823 4.722L56.1825 5.10271H59.4154L58.5383 8.40388H55.3557L52.6232 18.7109H48.8135L51.5456 8.40388H49.9666L50.8438 5.10271H52.4227L52.5481 4.57036C52.8992 3.0721 53.4504 2.10757 54.1266 1.42175C55.0797 0.457218 56.4082 0 58.037 0C59.1142 0 60.0174 0.152558 60.6437 0.380711L59.8164 3.57987Z" fill="#C9C9C9"/>
<path fill-rule="evenodd" clip-rule="evenodd" d="M68.4129 14.6493C67.7857 15.2846 66.9342 15.7159 65.982 15.7159C64.2525 15.7159 63.0741 14.6243 63.0741 12.6187C63.0741 11.5522 63.5754 10.1304 64.5033 9.21598C65.1296 8.58162 65.982 8.1499 66.9342 8.1499C68.6633 8.1499 69.8416 9.24149 69.8416 11.2471C69.8416 12.3136 69.3403 13.7353 68.4129 14.6493M67.1099 4.84912C64.9794 4.84912 63.074 5.7631 61.6709 7.1853C60.217 8.6576 59.3398 10.6632 59.3398 12.7197C59.3398 16.3506 61.8206 19.016 65.8066 19.016C67.9362 19.016 69.8415 18.1025 71.2451 16.6799C72.6991 15.208 73.5762 13.202 73.5762 11.1459C73.5762 7.51547 71.0945 4.84912 67.1099 4.84912" fill="#C9C9C9"/>
<path fill-rule="evenodd" clip-rule="evenodd" d="M83.7518 8.8864H83.5508C81.0193 8.8864 79.0897 10.3587 78.1375 13.888L76.8337 18.7116H73.0244L76.6332 5.10342H80.4438L79.7159 7.84536C81.0696 5.8398 82.6238 4.67216 84.8294 4.84977L83.7518 8.8864Z" fill="#C9C9C9"/>
<path fill-rule="evenodd" clip-rule="evenodd" d="M98.4126 18.813H94.9788L94.6029 10.4606L89.7659 18.813H86.3572L85.8555 5.10332H89.7151L89.6908 13.3546L94.4024 5.05322H97.6861L98.0368 13.3801L102.448 5.10332H106.233L98.4126 18.813Z" fill="#C9C9C9"/>
<path fill-rule="evenodd" clip-rule="evenodd" d="M113.324 13.5826C112.898 15.0549 111.52 16.3245 109.941 16.3245C108.863 16.3245 108.186 15.7157 108.186 14.8777C108.186 14.319 108.387 13.8613 108.738 13.5065C109.213 13.0238 109.991 12.7451 110.918 12.7451C111.845 12.7451 112.773 12.9737 113.424 13.2269L113.324 13.5826ZM112.447 4.95117C110.542 4.95117 108.838 5.33188 107.459 5.9157L108.061 8.9623C109.039 8.55609 110.342 8.22547 111.645 8.22547C113.525 8.22547 114.177 8.88579 114.177 9.82573C114.177 10.2319 114.101 10.5361 114.027 10.8408L113.976 11.0184C112.848 10.6632 111.645 10.4086 110.191 10.4086C108.337 10.4086 106.732 10.9679 105.68 12.0344C104.878 12.8464 104.401 13.938 104.401 15.3096C104.401 17.4422 105.981 18.9651 108.312 18.9651C109.89 18.9651 111.244 18.3048 112.322 17.1376L111.921 18.711H115.605L117.586 11.1965C117.761 10.5106 117.886 9.85123 117.886 9.13991C117.886 6.47402 116.056 4.95117 112.447 4.95117V4.95117Z" fill="#C9C9C9"/>
<path fill-rule="evenodd" clip-rule="evenodd" d="M128.087 8.8864H127.886C125.355 8.8864 123.425 10.3587 122.473 13.888L121.169 18.7116H117.359L120.969 5.10342H124.779L124.051 7.84536C125.405 5.8398 126.959 4.67216 129.164 4.84977L128.087 8.8864Z" fill="#C9C9C9"/>
<path fill-rule="evenodd" clip-rule="evenodd" d="M137.76 14.548C137.033 15.2844 136.105 15.7156 135.153 15.7156C133.449 15.7156 132.346 14.65 132.346 12.8726C132.346 11.3739 132.923 10.1051 133.774 9.24217C134.476 8.53084 135.404 8.09912 136.331 8.09912C138.01 8.09912 139.213 9.26721 139.213 10.9941C139.213 12.3899 138.662 13.634 137.76 14.548V14.548ZM141.871 0.177734L140.041 7.08336C139.164 5.73767 137.935 4.84919 135.831 4.84919C134 4.84919 132.197 5.66161 130.817 7.05831C129.364 8.53061 128.411 10.6382 128.411 13.1256C128.411 16.807 130.642 18.9651 133.575 18.9651C135.078 18.9651 136.206 18.3307 137.359 17.2392L136.959 18.7114H140.768L145.681 0.177734H141.871Z" fill="#C9C9C9"/>
</svg>
