<svg width="173" height="70" viewBox="0 0 173 70" fill="none" xmlns="http://www.w3.org/2000/svg">
<path fill-rule="evenodd" clip-rule="evenodd" d="M25.7217 28.5799C25.2204 28.3768 24.5942 28.2497 24.0677 28.2497C23.0647 28.2497 22.4632 28.732 22.1876 29.722L22.0878 30.1027H25.3207L24.4436 33.4039H21.2601L18.5285 43.7109H14.7188L17.4508 33.4039H15.8715L16.749 30.1027H18.328L18.4534 29.5704C18.8045 28.0721 19.3548 27.1076 20.0319 26.4217C20.985 25.4572 22.313 25 23.9423 25C25.0195 25 25.9222 25.1526 26.5489 25.3807L25.7217 28.5799Z" fill="#5C5C5C"/>
<path fill-rule="evenodd" clip-rule="evenodd" d="M32.4126 38.5826C31.986 40.0549 30.608 41.3245 29.0291 41.3245C27.9515 41.3245 27.2744 40.7157 27.2744 39.8777C27.2744 39.319 27.4749 38.8613 27.8256 38.5065C28.3021 38.0238 29.079 37.7451 30.0061 37.7451C30.9335 37.7451 31.8615 37.9737 32.5124 38.2269L32.4126 38.5826ZM31.5359 29.9512C29.6306 29.9512 27.9267 30.3319 26.5478 30.9157L27.1498 33.9623C28.1272 33.5561 29.4301 33.2255 30.7334 33.2255C32.6135 33.2255 33.265 33.8858 33.265 34.8257C33.265 35.2319 33.1899 35.5361 33.1152 35.8408L33.0644 36.0184C31.9365 35.6632 30.7334 35.4086 29.2799 35.4086C27.4254 35.4086 25.8208 35.9679 24.7684 37.0344C23.9663 37.8464 23.4902 38.938 23.4902 40.3096C23.4902 42.4422 25.0696 43.9651 27.4002 43.9651C28.9796 43.9651 30.3328 43.3048 31.4104 42.1376L31.0094 43.711H34.6942L36.6741 36.1965C36.8494 35.5106 36.9744 34.8512 36.9744 34.1399C36.9744 31.474 35.1451 29.9512 31.5359 29.9512Z" fill="#5C5C5C"/>
<mask id="mask0_3719_155223" style="mask-type:luminance" maskUnits="userSpaceOnUse" x="36" y="29" width="15" height="16">
<path fill-rule="evenodd" clip-rule="evenodd" d="M36.9492 29.8491H50.0832V44.016H36.9492V29.8491Z" fill="white"/>
</mask>
<g mask="url(#mask0_3719_155223)">
<path fill-rule="evenodd" clip-rule="evenodd" d="M48.0277 34.2414C46.7248 33.2008 45.6216 32.7942 44.5192 32.7942C43.5913 32.7942 43.0406 33.2254 43.0406 33.9368C43.0406 34.4696 43.6915 34.8512 44.82 35.3585C46.5742 36.1459 48.5043 37.0849 48.5043 39.218C48.5043 42.1881 46.1984 44.016 42.9897 44.016C40.9599 44.016 38.5286 43.2282 36.9492 41.5533L39.1553 39.243C40.5584 40.6643 42.0627 41.071 43.2658 41.071C44.2679 41.071 44.8694 40.6393 44.8694 39.8783C44.8694 39.3696 44.2432 39.0149 43.3161 38.6082C41.2103 37.6942 39.4057 36.8062 39.4057 34.6221C39.4057 31.9057 41.4607 29.8491 44.7944 29.8491C46.9748 29.8491 48.9799 30.8141 50.0832 31.8041L48.0277 34.2414Z" fill="#5C5C5C"/>
</g>
<path fill-rule="evenodd" clip-rule="evenodd" d="M60.4338 30.1029L59.5571 33.4041H56.3988L54.8946 39.1161C54.8447 39.3192 54.7947 39.5729 54.7947 39.725C54.7947 40.2332 55.1198 40.5378 55.822 40.5378C56.4231 40.5378 57.1505 40.3853 57.7768 40.1066L56.8997 43.3809C56.1475 43.7361 55.1706 43.9396 54.1429 43.9396C51.8365 43.9396 50.709 42.7716 50.709 41.2742C50.709 40.7159 50.8088 40.1826 50.9594 39.5729L52.5887 33.4041H50.985L51.8626 30.1029H53.4658L54.3937 26.6255H58.2034L57.2755 30.1029H60.4338Z" fill="#5C5C5C"/>
<path fill-rule="evenodd" clip-rule="evenodd" d="M73.8164 28.5799C73.3152 28.3768 72.6889 28.2497 72.1625 28.2497C71.1594 28.2497 70.5579 28.732 70.2823 29.722L70.1825 30.1027H73.4154L72.5383 33.4039H69.3557L66.6232 43.7109H62.8135L65.5456 33.4039H63.9666L64.8438 30.1027H66.4227L66.5481 29.5704C66.8992 28.0721 67.4504 27.1076 68.1266 26.4217C69.0797 25.4572 70.4082 25 72.037 25C73.1142 25 74.0174 25.1526 74.6437 25.3807L73.8164 28.5799Z" fill="#5C5C5C"/>
<path fill-rule="evenodd" clip-rule="evenodd" d="M82.4129 39.6493C81.7857 40.2846 80.9342 40.7159 79.982 40.7159C78.2525 40.7159 77.0741 39.6243 77.0741 37.6187C77.0741 36.5522 77.5754 35.1304 78.5033 34.216C79.1296 33.5816 79.982 33.1499 80.9342 33.1499C82.6633 33.1499 83.8416 34.2415 83.8416 36.2471C83.8416 37.3136 83.3403 38.7353 82.4129 39.6493ZM81.1099 29.8491C78.9794 29.8491 77.074 30.7631 75.6709 32.1853C74.217 33.6576 73.3398 35.6632 73.3398 37.7197C73.3398 41.3506 75.8206 44.016 79.8066 44.016C81.9362 44.016 83.8415 43.1025 85.2451 41.6799C86.6991 40.208 87.5762 38.202 87.5762 36.1459C87.5762 32.5155 85.0945 29.8491 81.1099 29.8491Z" fill="#5C5C5C"/>
<path fill-rule="evenodd" clip-rule="evenodd" d="M97.7518 33.8864H97.5508C95.0193 33.8864 93.0897 35.3587 92.1375 38.888L90.8337 43.7116H87.0244L90.6332 30.1034H94.4438L93.7159 32.8454C95.0696 30.8398 96.6238 29.6722 98.8294 29.8498L97.7518 33.8864Z" fill="#5C5C5C"/>
<path fill-rule="evenodd" clip-rule="evenodd" d="M112.413 43.813H108.979L108.603 35.4606L103.766 43.813H100.357L99.8555 30.1033H103.715L103.691 38.3546L108.402 30.0532H111.686L112.037 38.3801L116.448 30.1033H120.233L112.413 43.813Z" fill="#5C5C5C"/>
<path fill-rule="evenodd" clip-rule="evenodd" d="M127.324 38.5826C126.898 40.0549 125.52 41.3245 123.941 41.3245C122.863 41.3245 122.186 40.7157 122.186 39.8777C122.186 39.319 122.387 38.8613 122.738 38.5065C123.213 38.0238 123.991 37.7451 124.918 37.7451C125.845 37.7451 126.773 37.9737 127.424 38.2269L127.324 38.5826ZM126.447 29.9512C124.542 29.9512 122.838 30.3319 121.459 30.9157L122.061 33.9623C123.039 33.5561 124.342 33.2255 125.645 33.2255C127.525 33.2255 128.177 33.8858 128.177 34.8257C128.177 35.2319 128.101 35.5361 128.027 35.8408L127.976 36.0184C126.848 35.6632 125.645 35.4086 124.191 35.4086C122.337 35.4086 120.732 35.9679 119.68 37.0344C118.878 37.8464 118.401 38.938 118.401 40.3096C118.401 42.4422 119.981 43.9651 122.312 43.9651C123.89 43.9651 125.244 43.3048 126.322 42.1376L125.921 43.711H129.605L131.586 36.1965C131.761 35.5106 131.886 34.8512 131.886 34.1399C131.886 31.474 130.056 29.9512 126.447 29.9512Z" fill="#5C5C5C"/>
<path fill-rule="evenodd" clip-rule="evenodd" d="M142.087 33.8864H141.886C139.355 33.8864 137.425 35.3587 136.473 38.888L135.169 43.7116H131.359L134.969 30.1034H138.779L138.051 32.8454C139.405 30.8398 140.959 29.6722 143.164 29.8498L142.087 33.8864Z" fill="#5C5C5C"/>
<path fill-rule="evenodd" clip-rule="evenodd" d="M151.76 39.548C151.033 40.2844 150.105 40.7156 149.153 40.7156C147.449 40.7156 146.346 39.65 146.346 37.8726C146.346 36.3739 146.923 35.1051 147.774 34.2422C148.476 33.5308 149.404 33.0991 150.331 33.0991C152.01 33.0991 153.213 34.2672 153.213 35.9941C153.213 37.3899 152.662 38.634 151.76 39.548ZM155.871 25.1777L154.041 32.0834C153.164 30.7377 151.935 29.8492 149.831 29.8492C148 29.8492 146.197 30.6616 144.817 32.0583C143.364 33.5306 142.411 35.6382 142.411 38.1256C142.411 41.807 144.642 43.9651 147.575 43.9651C149.078 43.9651 150.206 43.3307 151.359 42.2392L150.959 43.7114H154.768L159.681 25.1777H155.871Z" fill="#5C5C5C"/>
</svg>
