<svg width="172" height="70" viewBox="0 0 172 70" fill="none" xmlns="http://www.w3.org/2000/svg">
<path fill-rule="evenodd" clip-rule="evenodd" d="M58.9796 44.3824C58.9796 43.0172 58.9076 42.8718 58.2641 42.6573C58.1218 42.6573 57.8352 42.585 57.6921 42.585C57.6207 42.585 57.5499 42.585 57.5499 42.5124C57.5499 42.4411 57.6207 42.3687 57.8352 42.3687C58.5496 42.3687 59.6229 42.4411 59.6938 42.4411C59.7654 42.4411 60.8376 42.3687 61.3382 42.3687C61.5531 42.3687 61.625 42.4411 61.625 42.5124C61.625 42.585 61.5531 42.585 61.481 42.585C61.3382 42.585 61.2668 42.6573 61.0526 42.6573C60.6234 42.7286 60.4801 43.0172 60.4801 43.6631C60.4085 44.1662 60.4085 44.671 60.4085 45.39V47.3311C60.4085 48.0502 60.4085 48.1228 60.1943 48.2664C59.1216 48.8418 57.6207 48.9849 56.6903 48.9849C55.4039 48.9849 53.0453 48.8418 51.1859 47.1875C50.114 46.2527 49.1846 44.4548 49.1846 42.2964C49.1846 39.636 50.4715 37.6936 51.9733 36.7583C53.4749 35.7525 55.1188 35.6802 56.4055 35.6802C57.4779 35.6802 58.6218 35.8962 58.9796 35.9685C59.3365 36.0393 59.9087 36.1119 60.3384 36.1119C60.4801 36.1119 60.552 36.183 60.552 36.2556C60.552 36.4715 60.4085 36.9746 60.4085 38.7015C60.4085 38.917 60.3384 39.0606 60.2662 39.0606C60.1943 39.0606 60.1234 38.917 60.1234 38.772C60.1234 38.5576 60.0515 38.053 59.7654 37.6226C59.3365 36.9746 57.9775 36.2556 55.8336 36.2556C54.8322 36.2556 53.5456 36.3992 52.2587 37.4063C51.33 38.1979 50.614 39.7073 50.614 41.721C50.614 44.0954 51.8305 45.8928 52.4017 46.4684C53.6886 47.7629 55.2611 48.2664 56.7625 48.2664C57.406 48.2664 58.2641 48.1951 58.6927 47.9065C58.9076 47.7629 58.9796 47.6197 58.9796 47.3311V44.3824Z" fill="#5C5C5C"/>
<path fill-rule="evenodd" clip-rule="evenodd" d="M66.914 38.0527C67.0568 37.6223 67.1287 37.5497 67.1996 37.5497C67.3421 37.4773 67.3421 37.5497 67.5573 38.0527C67.771 38.5573 69.9873 44.5981 70.917 46.8278C71.4176 48.1225 71.7753 48.3384 72.133 48.4816C72.347 48.5542 72.5614 48.5542 72.7042 48.5542C72.7756 48.5542 72.8483 48.5542 72.8483 48.6252C72.8483 48.6978 72.7042 48.7702 72.5614 48.7702C72.347 48.7702 71.2748 48.7702 70.2742 48.6978C69.9873 48.6978 69.8448 48.6978 69.8448 48.6252C69.8448 48.5542 69.916 48.5542 69.9873 48.5542C70.06 48.4816 70.1309 48.3384 70.06 48.1225L68.7007 44.5258C68.7007 44.4545 68.6293 44.4545 68.5584 44.4545H65.4841C65.4124 44.4545 65.4124 44.5258 65.341 44.5981L64.4832 47.1872C64.4113 47.5471 64.3405 47.8357 64.3405 48.1225C64.3405 48.4092 64.6255 48.5542 64.8395 48.5542H64.9838C65.1266 48.5542 65.1266 48.5542 65.1266 48.6252C65.1266 48.6978 65.0547 48.7702 64.9124 48.7702C64.5554 48.7702 63.9827 48.6978 63.8394 48.6978C63.6252 48.6978 62.8389 48.7702 62.1955 48.7702C61.9813 48.7702 61.9092 48.6978 61.9092 48.6252C61.9092 48.5542 61.9813 48.5542 62.0515 48.5542C62.1241 48.5542 62.3381 48.5542 62.4811 48.5542C63.1247 48.4092 63.4108 47.9062 63.6971 47.1872L66.914 38.0527ZM68.4155 43.9517C68.4864 43.9517 68.4864 43.8794 68.4864 43.807L67.1286 39.8522C67.0567 39.636 66.9858 39.636 66.9139 39.8522L65.627 43.807C65.627 43.8794 65.627 43.9517 65.6978 43.9517H68.4155Z" fill="#5C5C5C"/>
<path fill-rule="evenodd" clip-rule="evenodd" d="M76.6367 44.5261C76.6367 45.8928 76.6367 47.0444 76.7086 47.6905C76.7798 48.1228 76.8517 48.4096 77.2806 48.4819C77.495 48.5545 77.7809 48.5545 77.9236 48.5545C77.9956 48.5545 78.0664 48.6255 78.0664 48.6255C78.0664 48.6981 77.9956 48.7705 77.7809 48.7705C77.0661 48.7705 76.1365 48.6981 76.064 48.6981C75.9942 48.6981 75.0645 48.7705 74.6349 48.7705C74.4926 48.7705 74.4204 48.6981 74.4204 48.6255C74.4204 48.6255 74.4204 48.5545 74.564 48.5545C74.6349 48.5545 74.8493 48.5545 74.9926 48.4819C75.2782 48.4096 75.3501 48.1228 75.3501 47.6905C75.422 47.0444 75.422 45.8928 75.422 44.5261V38.3416H73.3479C72.419 38.4127 72.1335 38.4853 71.8463 38.8444C71.7041 39.0606 71.7041 39.2043 71.6324 39.2769C71.5613 39.4198 71.5613 39.4198 71.4894 39.4198C71.418 39.4198 71.418 39.4198 71.418 39.2769C71.418 39.1319 71.7041 37.9099 71.7041 37.7662C71.7757 37.6936 71.8463 37.55 71.8463 37.55C71.9904 37.4776 72.1335 37.6936 72.4909 37.6936C72.9196 37.7662 73.491 37.7662 73.6343 37.7662H78.9966C79.4972 37.7662 79.7825 37.6936 79.9972 37.6936C80.2114 37.6226 80.3544 37.6226 80.4263 37.6226C80.4972 37.6226 80.4972 37.6936 80.4972 37.7662C80.4972 38.1979 80.4263 39.2043 80.4263 39.4198C80.4263 39.5637 80.4263 39.5637 80.3544 39.5637C80.2835 39.5637 80.2835 39.5637 80.2114 39.3474V39.2043C80.1395 38.772 79.8541 38.4127 78.4956 38.3416H76.6367V44.5261Z" fill="#5C5C5C"/>
<path fill-rule="evenodd" clip-rule="evenodd" d="M83.2143 41.937C83.2143 39.636 83.2143 39.2769 83.2143 38.772C83.1429 38.269 83.071 38.053 82.571 37.9822C82.4996 37.9099 82.2137 37.9099 82.0709 37.9099C82.0709 37.9099 81.999 37.9099 81.999 37.8368C81.999 37.7662 82.0709 37.6936 82.2137 37.6936C82.857 37.6936 83.7862 37.7662 83.8576 37.7662C83.929 37.7662 86.7889 37.7662 87.1472 37.7662C87.3608 37.7662 87.6472 37.6936 87.7186 37.6936C87.7892 37.6936 87.8614 37.6226 87.9333 37.6226C88.0042 37.6226 88.0042 37.6936 88.0042 37.7662C88.0042 37.8368 87.9333 37.9822 87.8614 38.4126C87.8614 38.5576 87.8614 39.2043 87.7892 39.3474C87.7892 39.4197 87.7892 39.5637 87.7186 39.5637C87.6472 39.5637 87.5755 39.4929 87.5755 39.3474C87.5755 39.2769 87.5755 38.9883 87.5041 38.8444C87.4322 38.5576 87.2897 38.4126 86.5038 38.3416C86.217 38.269 84.7159 38.269 84.5017 38.269C84.5017 38.269 84.4295 38.3416 84.4295 38.4126V42.4411C84.4295 42.585 84.4295 42.585 84.5017 42.585C84.7159 42.585 86.5038 42.585 86.7889 42.585C87.1472 42.5124 87.3608 42.5124 87.5041 42.3687C87.5755 42.2256 87.6472 42.1525 87.7186 42.1525C87.7186 42.1525 87.7892 42.2256 87.7892 42.2964C87.7892 42.3687 87.7186 42.6573 87.6472 43.0877C87.6472 43.3763 87.5755 43.9517 87.5755 44.023C87.5755 44.1662 87.5755 44.3116 87.5041 44.3116C87.4322 44.3116 87.3608 44.3116 87.3608 44.1662C87.3608 44.023 87.3608 43.8794 87.3608 43.7357C87.2897 43.52 87.1472 43.2314 86.5745 43.2314C86.217 43.1603 84.787 43.1603 84.5726 43.1603C84.5017 43.1603 84.4295 43.1603 84.4295 43.2314V44.5261C84.4295 45.0306 84.4295 46.6844 84.4295 47.0443C84.5017 48.0502 84.7159 48.1951 86.0737 48.1951C86.5038 48.1951 87.075 48.1951 87.5041 48.0502C87.8614 47.9065 88.0042 47.6197 88.1477 46.9712C88.1477 46.8281 88.1477 46.7557 88.2191 46.7557C88.3619 46.7557 88.3619 46.9007 88.3619 46.9712C88.3619 47.1151 88.2191 48.1228 88.1477 48.4095C88.0756 48.7705 87.9333 48.7705 87.3608 48.7705C85.2169 48.7705 84.2143 48.6981 83.8576 48.6981C83.7862 48.6981 83.5725 48.6981 83.2857 48.6981C83.0001 48.7705 82.6423 48.7705 82.4287 48.7705C82.2856 48.7705 82.2137 48.6981 82.2137 48.6255C82.2137 48.6255 82.2137 48.5545 82.3563 48.5545C82.4287 48.5545 82.6423 48.5545 82.7857 48.4819C83.071 48.4095 83.1429 48.1228 83.1429 47.6905C83.2143 47.0443 83.2143 45.8928 83.2143 44.5261V41.937Z" fill="#5C5C5C"/>
<path fill-rule="evenodd" clip-rule="evenodd" d="M90.9346 48.5539C90.7916 48.4813 90.7207 48.409 90.7207 47.9783C90.7207 47.2592 90.7916 46.6839 90.7916 46.4679C90.863 46.3247 90.863 46.2521 90.9346 46.2521C91.0065 46.2521 91.0065 46.2521 91.0065 46.3953C91.0065 46.5402 91.0065 46.7552 91.0777 46.9001C91.2921 47.9783 92.2213 48.409 93.2229 48.409C94.5812 48.409 95.2245 47.4029 95.2245 46.4679C95.2245 45.46 94.7956 44.8864 93.5796 43.8788L92.9365 43.3034C91.4352 42.0088 91.0777 41.1461 91.0777 40.1385C91.0777 38.557 92.2213 37.5494 94.0806 37.5494C94.5812 37.4771 95.0095 37.5494 95.3673 37.693C95.6529 37.693 95.7964 37.7656 95.8678 37.7656C96.0104 37.7656 96.0104 37.7656 96.0104 37.8362C96.0104 37.9093 96.0104 38.4121 96.0104 39.3468C96.0104 39.6354 95.9387 39.7067 95.8678 39.7067C95.7964 39.7067 95.7964 39.6354 95.7243 39.5631C95.7243 39.3468 95.6529 38.9877 95.5822 38.7715C95.5101 38.6278 95.0817 38.0524 93.7948 38.0524C92.7937 38.0524 92.0076 38.6278 92.0076 39.7067C92.0076 40.5707 92.436 41.0737 93.7948 42.1519L94.151 42.5118C95.8678 43.8788 96.2256 44.7415 96.2256 45.8922C96.2256 46.5402 96.0104 47.6191 95.0095 48.3382C94.4376 48.7699 93.6515 48.9844 92.8646 48.9844C92.2213 48.9844 91.578 48.8412 90.9346 48.5539Z" fill="#5C5C5C"/>
<path fill-rule="evenodd" clip-rule="evenodd" d="M104.376 41.7932C104.305 42.0092 104.233 42.3686 104.091 42.7285C103.734 44.0952 103.376 45.3899 103.018 46.7556C102.66 47.8358 102.303 48.4817 102.089 48.698C101.946 48.8416 101.446 49.2734 100.73 49.2734C100.23 49.2734 100.016 48.914 100.016 48.698C100.016 48.4094 100.158 48.3386 100.23 48.2662C100.373 48.1226 100.444 48.1949 100.588 48.3386C100.73 48.6254 101.016 48.8416 101.231 48.8416C101.446 48.8416 101.731 48.6254 102.017 47.8358C102.589 45.8203 102.946 43.7356 103.519 41.7932H102.589C102.447 41.7208 102.518 41.5064 102.66 41.3609H103.661C103.947 40.2825 104.233 39.3473 104.948 38.5574C105.52 37.8366 106.235 37.5498 106.95 37.5498C107.45 37.5498 107.879 37.8366 107.879 38.3414C107.879 38.7013 107.594 39.0605 107.379 39.0605C107.308 39.0605 107.236 38.9168 107.236 38.8442C107.164 38.1252 106.807 37.9097 106.521 37.9097C106.164 37.9097 105.877 38.1978 105.592 38.5574C105.02 39.3473 104.805 40.3549 104.52 41.3609H105.949C106.021 41.5064 106.021 41.6495 105.806 41.7932H104.376Z" fill="#5C5C5C"/>
<path fill-rule="evenodd" clip-rule="evenodd" d="M111.238 42.7284C111.167 43.3761 110.809 44.5259 109.951 45.3898C109.236 46.1812 108.593 46.2525 108.307 46.2525C107.521 46.2525 107.092 45.6766 107.092 44.6708C107.163 43.9515 107.592 42.7284 108.378 42.0091C109.022 41.3609 109.522 41.2178 110.023 41.2178C110.881 41.2178 111.238 41.8655 111.238 42.7284ZM109.093 42.1524C108.378 43.0876 107.95 44.526 107.878 45.1013C107.878 45.5336 108.021 45.8927 108.378 45.8927C108.664 45.8927 108.95 45.7491 109.308 45.2463C109.809 44.5983 110.381 43.0171 110.381 42.3686C110.452 42.0092 110.381 41.577 109.951 41.577C109.736 41.577 109.451 41.6496 109.093 42.1524Z" fill="#5C5C5C"/>
<path fill-rule="evenodd" clip-rule="evenodd" d="M114.099 45.0305C113.956 45.3172 114.027 45.4604 114.17 45.4604C114.313 45.4604 114.814 45.1013 115.385 44.4546C116.458 43.3761 117.101 42.0091 117.459 41.2901C117.745 41.2178 118.03 41.3609 118.03 41.5064C117.959 41.7932 117.173 43.8068 116.672 45.1736C116.601 45.3898 116.601 45.4604 116.743 45.4604C116.958 45.4604 117.601 44.9576 117.888 44.5982C117.959 44.5259 118.103 44.5982 118.103 44.7419C117.816 45.3172 116.672 46.2525 116.029 46.2525C115.886 46.2525 115.671 46.0365 115.743 45.8203L116.53 43.6629V43.5906C115.671 44.7419 114.241 46.2525 113.598 46.2525C113.098 46.2525 113.026 45.749 113.241 45.2462L114.313 42.2962C114.385 42.0817 114.385 42.0091 114.313 42.0091C114.099 42.0091 113.526 42.5122 113.241 42.8008C113.098 42.8008 113.026 42.7284 113.026 42.6571C113.313 42.1523 114.527 41.2178 115.028 41.2178C115.171 41.2178 115.456 41.3609 115.385 41.5769L114.099 45.0305Z" fill="#5C5C5C"/>
<path fill-rule="evenodd" clip-rule="evenodd" d="M121.391 43.8068C122.249 42.5122 123.392 41.2178 124.322 41.2178C124.751 41.2178 124.965 41.4333 124.965 41.8655C124.965 42.0091 124.894 42.4409 124.751 42.6571C124.537 43.3038 123.749 45.2462 123.678 45.3172C123.606 45.4604 123.606 45.5335 123.678 45.5335C123.893 45.5335 124.464 45.1736 124.822 44.7419C124.965 44.7419 124.965 44.8145 124.965 44.8868C124.537 45.6766 123.606 46.2525 122.963 46.2525C122.892 46.2525 122.677 46.1089 122.677 45.9652C122.677 45.8203 122.749 45.749 122.963 45.1736C123.249 44.5982 123.678 43.3761 123.893 42.8008C124.036 42.5848 124.179 42.1523 124.179 41.9368C124.179 41.7932 124.179 41.6495 123.964 41.6495C123.678 41.6495 123.035 42.2254 122.392 43.0876C121.748 43.8792 121.248 44.8145 120.604 46.1089C120.532 46.1812 120.461 46.2525 120.39 46.2525C120.246 46.2525 119.889 46.1812 120.032 45.9652L121.391 42.1523C121.462 42.0091 121.462 41.8655 121.319 41.8655C121.104 41.8655 120.676 42.1523 120.319 42.5122C120.176 42.5122 120.104 42.4409 120.104 42.2962C120.604 41.7208 121.319 41.2178 121.891 41.2178C122.177 41.2178 122.319 41.4333 122.177 41.7208L121.391 43.8068Z" fill="#5C5C5C"/>
<path fill-rule="evenodd" clip-rule="evenodd" d="M131.757 39.1318C132.042 38.4125 132.042 38.1978 131.9 38.1252L131.614 37.9097C131.614 37.9097 131.614 37.8366 131.686 37.7661C131.9 37.6935 132.543 37.5498 133.044 37.5498L133.116 37.6224C132.9 38.2688 132.687 38.7013 132.329 39.7072C131.185 43.017 130.613 44.8868 130.542 45.2462C130.47 45.3899 130.47 45.5335 130.613 45.5335C130.828 45.5335 131.543 44.9576 131.9 44.4546C131.972 44.4546 132.042 44.5259 132.042 44.5982C131.757 45.2462 130.685 46.2526 130.113 46.2526C129.827 46.2526 129.684 46.0366 129.684 45.8927C129.684 45.749 129.755 45.5335 129.827 45.1736L130.256 44.0229V43.9516C129.397 45.1013 128.54 46.2526 127.396 46.2526C126.967 46.2526 126.682 45.8927 126.682 45.3899C126.682 44.5259 127.325 43.0876 128.254 42.2962C129.041 41.5064 129.755 41.2178 130.327 41.2178C130.542 41.2178 130.828 41.2901 130.97 41.5769L131.757 39.1318ZM129.469 42.0818C128.969 42.5123 128.111 43.663 127.754 44.3823C127.396 45.1737 127.396 45.3899 127.396 45.5336C127.396 45.6767 127.54 45.8204 127.611 45.8204C127.825 45.8204 128.398 45.6059 129.184 44.742C130.114 43.8069 130.471 43.0876 130.613 42.441C130.756 41.9369 130.613 41.577 130.328 41.577C130.042 41.577 129.755 41.7932 129.469 42.0818Z" fill="#5C5C5C"/>
<path fill-rule="evenodd" clip-rule="evenodd" d="M137.835 40.9302C137.977 40.8579 138.335 40.9302 138.407 41.0742C138.192 41.5769 137.191 44.166 136.834 45.3173C136.762 45.4604 136.762 45.5335 136.906 45.5335C137.119 45.5335 137.405 45.3899 138.121 44.7419C138.192 44.7419 138.263 44.8145 138.263 44.8868C137.764 45.6059 136.906 46.2526 136.262 46.2526C136.047 46.2526 135.976 46.0366 135.976 45.8927C135.976 45.8203 135.976 45.749 136.047 45.4604L136.477 44.3823H136.405C135.619 45.3899 134.403 46.2526 133.831 46.2526C133.545 46.2526 133.33 45.8927 133.33 45.6059C133.33 45.3173 133.545 44.3115 134.332 43.2312C134.904 42.4409 135.404 42.0092 135.905 41.7208C136.333 41.4333 136.691 41.3609 136.977 41.3609C137.119 41.3609 137.191 41.4333 137.263 41.4333C137.263 41.4333 137.405 41.5769 137.477 41.7208L137.835 40.9302ZM135.762 42.2961C135.047 42.9438 134.261 44.5258 134.261 45.3898C134.261 45.5334 134.404 45.6058 134.475 45.6058C134.618 45.6058 134.976 45.4603 135.62 44.8144C136.477 43.9515 136.977 42.9438 137.192 42.2253C137.12 42.0091 136.906 41.7931 136.62 41.7931C136.334 41.7931 136.119 41.9367 135.762 42.2961Z" fill="#5C5C5C"/>
<path fill-rule="evenodd" clip-rule="evenodd" d="M142.123 41.9368L141.051 45.1013C141.051 45.3173 141.051 45.3899 141.194 45.3899C141.337 45.3899 142.123 44.7419 142.481 44.3115C142.624 44.3115 142.695 44.3823 142.695 44.5259C141.981 45.5335 140.908 46.2526 140.407 46.2526C140.265 46.2526 140.122 46.1089 140.122 45.8927C140.122 45.749 140.122 45.6059 140.265 45.2462L141.337 41.9368H140.479C140.407 41.7932 140.479 41.6495 140.55 41.5769L141.552 41.4333L142.195 40.2825C142.267 40.212 142.553 40.212 142.624 40.3549L142.267 41.5064H143.553C143.624 41.6495 143.553 41.8655 143.41 41.9368H142.123Z" fill="#5C5C5C"/>
<path fill-rule="evenodd" clip-rule="evenodd" d="M146.055 42.2256C146.126 42.0819 146.126 41.937 146.055 41.937C145.983 41.937 145.626 42.0819 145.054 42.585C144.982 42.585 144.911 42.5124 144.911 42.3687C145.554 41.6497 146.484 41.218 146.841 41.218C146.912 41.218 146.983 41.2903 147.056 41.2903C147.127 41.4335 147.127 41.5066 146.983 41.8657L145.554 45.2464C145.554 45.39 145.483 45.5337 145.626 45.5337C145.841 45.5337 146.413 45.1015 146.841 44.5984C146.912 44.671 146.983 44.7421 146.983 44.8147C146.841 45.1738 145.626 46.2527 144.84 46.2527C144.767 46.2527 144.696 46.1814 144.625 46.1091C144.554 46.0367 144.554 45.9654 144.554 45.8205L146.055 42.2256ZM147.556 38.7718C147.556 39.1317 147.342 39.5634 146.912 39.5634C146.626 39.5634 146.555 39.2766 146.555 39.0603C146.555 38.8441 146.698 38.3413 147.127 38.3413C147.413 38.3413 147.556 38.5573 147.556 38.7718Z" fill="#5C5C5C"/>
<path fill-rule="evenodd" clip-rule="evenodd" d="M153.205 42.7284C153.205 43.3761 152.848 44.5259 151.99 45.3898C151.275 46.1812 150.631 46.2525 150.274 46.2525C149.559 46.2525 149.059 45.6766 149.13 44.6708C149.202 43.9515 149.631 42.7284 150.418 42.0091C150.989 41.3609 151.561 41.2178 151.99 41.2178C152.848 41.2178 153.277 41.8655 153.205 42.7284ZM151.06 42.1524C150.418 43.0876 149.917 44.526 149.917 45.1013C149.917 45.5336 150.06 45.8927 150.418 45.8927C150.631 45.8927 150.918 45.7491 151.347 45.2463C151.847 44.5983 152.347 43.0171 152.419 42.3686C152.419 42.0092 152.347 41.577 151.918 41.577C151.704 41.577 151.417 41.6496 151.06 42.1524Z" fill="#5C5C5C"/>
<path fill-rule="evenodd" clip-rule="evenodd" d="M156.421 43.8068C157.279 42.5122 158.423 41.2178 159.281 41.2178C159.781 41.2178 159.996 41.4333 159.996 41.8655C159.996 42.0091 159.852 42.4409 159.781 42.6571C159.567 43.3038 158.708 45.2462 158.708 45.3172C158.637 45.4604 158.637 45.5335 158.708 45.5335C158.923 45.5335 159.496 45.1736 159.781 44.7419C159.996 44.7419 159.996 44.8145 159.996 44.8868C159.567 45.6766 158.637 46.2525 157.994 46.2525C157.851 46.2525 157.708 46.1089 157.708 45.9652C157.708 45.8203 157.708 45.749 157.994 45.1736C158.209 44.5982 158.637 43.3761 158.923 42.8008C158.995 42.5848 159.209 42.1523 159.209 41.9368C159.209 41.7932 159.138 41.6495 158.995 41.6495C158.708 41.6495 157.994 42.2254 157.35 43.0876C156.778 43.8792 156.279 44.8145 155.564 46.1089C155.491 46.1812 155.491 46.2525 155.349 46.2525C155.206 46.2525 154.919 46.1812 154.992 45.9652L156.421 42.1523C156.421 42.0091 156.421 41.8655 156.35 41.8655C156.064 41.8655 155.706 42.1523 155.278 42.5122C155.206 42.5122 155.134 42.4409 155.134 42.2962C155.564 41.7208 156.279 41.2178 156.922 41.2178C157.136 41.2178 157.279 41.4333 157.208 41.7208L156.421 43.8068Z" fill="#5C5C5C"/>
<path fill-rule="evenodd" clip-rule="evenodd" d="M14.5117 24.604C14.5117 21.9431 14.5117 21.5114 14.4403 20.936C14.4403 20.3606 14.2968 20.0733 13.7254 19.9289C13.5818 19.9289 13.3676 19.9289 13.1529 19.9289C13.082 19.9289 13.082 19.8571 13.082 19.7853C13.082 19.7134 13.1529 19.6416 13.297 19.6416C14.0831 19.6416 15.1556 19.7134 15.2259 19.7134C15.5834 19.7134 16.228 19.6416 17.0136 19.6416C19.7308 19.6416 20.3731 21.3677 20.3731 22.2304C20.3731 23.5974 19.5877 24.4604 18.8016 25.3236C20.0163 25.6829 21.66 26.9063 21.66 28.9197C21.66 30.7177 20.3032 32.5877 17.4428 32.5877C17.0136 32.5877 15.2978 32.5154 15.2259 32.5154C15.1556 32.5154 14.0831 32.5154 13.5818 32.5154C13.3676 32.5154 13.297 32.5154 13.297 32.4436C13.297 32.3723 13.3676 32.2991 13.4398 32.2991C13.5818 32.2991 13.7968 32.2991 13.939 32.2286C14.2968 32.156 14.3687 31.7961 14.4403 31.2933C14.5117 30.5735 14.5117 29.2791 14.5117 27.6248V24.604ZM15.8711 24.9636C15.8711 25.1073 15.8711 25.1791 15.942 25.1791C16.0845 25.1791 16.3711 25.2509 16.943 25.2509C17.8725 25.2509 18.1578 25.1791 18.516 24.82C18.8733 24.3882 19.0875 23.8129 19.0875 23.0936C19.0875 21.6555 18.4447 20.1449 16.8711 20.1449C16.6575 20.1449 16.2997 20.1449 16.0136 20.2167C15.8711 20.2885 15.8711 20.2885 15.8711 20.4322V24.9636ZM15.8711 26.7618C15.8711 28.1283 15.8711 30.2144 15.8711 30.5017C15.942 31.2933 15.942 31.5806 16.443 31.7961C16.8711 32.0123 17.5864 32.0841 17.8725 32.0841C18.8024 32.0841 20.2318 31.5806 20.2318 29.639C20.2318 28.6324 19.8744 27.1217 18.6583 26.2583C18.0869 25.8271 17.6578 25.7547 17.2294 25.7547C17.0144 25.6829 16.1562 25.6829 15.942 25.6829C15.8711 25.6829 15.8711 25.7547 15.8711 25.8271V26.7618Z" fill="#5C5C5C"/>
<path fill-rule="evenodd" clip-rule="evenodd" d="M26.5934 28.3442C26.5934 29.7107 26.5934 30.8614 26.6643 31.5086C26.6643 31.8678 26.7364 32.2284 27.1648 32.299C27.3798 32.299 27.7362 32.3721 27.8081 32.3721C27.88 32.3721 27.9507 32.3721 27.9507 32.4434C27.9507 32.5152 27.88 32.5152 27.7362 32.5152C26.9511 32.5152 26.0212 32.5152 25.9496 32.5152C25.8782 32.5152 24.949 32.5152 24.5206 32.5152C24.3776 32.5152 24.3057 32.5152 24.3057 32.4434C24.3057 32.3721 24.3776 32.3721 24.4479 32.3721C24.5912 32.3721 24.7343 32.299 24.8776 32.299C25.1627 32.2284 25.2348 31.8678 25.3062 31.5086C25.3774 30.8614 25.3774 29.7107 25.3774 28.3442V25.7546C25.3774 23.4531 25.3774 23.0937 25.3062 22.5902C25.3062 22.0866 25.1627 21.8711 24.8776 21.7993C24.6626 21.7267 24.5206 21.7267 24.3776 21.7267C24.3057 21.7267 24.3057 21.6557 24.3057 21.6557C24.3057 21.5112 24.3776 21.5112 24.5206 21.5112C24.949 21.5112 25.8782 21.5831 25.9496 21.5831C26.0212 21.5831 26.9511 21.5112 27.3798 21.5112C27.5226 21.5112 27.5934 21.5112 27.5934 21.6557C27.5934 21.6557 27.5226 21.7267 27.4512 21.7267C27.3798 21.7267 27.3089 21.7267 27.0939 21.7267C26.7364 21.7993 26.5934 22.0866 26.5934 22.5902C26.5934 23.0937 26.5934 23.4531 26.5934 25.7546V28.3442Z" fill="#5C5C5C"/>
<path fill-rule="evenodd" clip-rule="evenodd" d="M32.7406 28.3442C32.7406 30.5015 32.8132 31.4368 33.0978 31.6528C33.3127 31.9399 33.6702 32.0122 34.8138 32.0122C35.5291 32.0122 36.1724 32.0122 36.5306 31.5805C36.7443 31.3642 36.8884 31.0046 36.8884 30.7175C36.8884 30.5734 36.9593 30.5015 37.0307 30.5015C37.1021 30.5015 37.1021 30.5734 37.1021 30.7175C37.1021 30.8614 37.0307 31.7959 36.8884 32.2284C36.8162 32.5152 36.7443 32.5876 36.0299 32.5876C33.9571 32.5876 33.0274 32.5152 32.1691 32.5152C32.0977 32.5152 31.883 32.5152 31.5975 32.5152C31.3116 32.5152 30.9539 32.5152 30.7392 32.5152C30.5961 32.5152 30.5242 32.5152 30.5242 32.4434C30.5242 32.3721 30.5961 32.3721 30.6683 32.3721C30.7392 32.3721 30.9539 32.299 31.0967 32.299C31.3838 32.2284 31.4539 31.8678 31.4539 31.5086C31.5975 30.8614 31.5975 29.7107 31.5975 28.3442V25.7546C31.5975 23.4531 31.5975 23.0937 31.5258 22.5902C31.5258 22.0866 31.3838 21.8711 30.9539 21.7267C30.8111 21.7267 30.5961 21.7267 30.4538 21.7267C30.3812 21.7267 30.3105 21.6557 30.3105 21.6557C30.3105 21.5112 30.3812 21.5112 30.5242 21.5112C31.1688 21.5112 32.0977 21.5831 32.1691 21.5831C32.2405 21.5831 33.3127 21.5112 33.7424 21.5112C33.8852 21.5112 33.9571 21.5112 33.9571 21.6557C33.9571 21.6557 33.8852 21.7267 33.8138 21.7267C33.7424 21.7267 33.5274 21.7267 33.3846 21.7267C32.9552 21.7993 32.8132 22.0866 32.8132 22.5902C32.7406 23.0937 32.7406 23.4531 32.7406 25.7546V28.3442Z" fill="#5C5C5C"/>
<path fill-rule="evenodd" clip-rule="evenodd" d="M40.8204 28.3442C40.8204 30.5015 40.8923 31.4368 41.1068 31.6528C41.3215 31.9399 41.6787 32.0122 42.8226 32.0122C43.6087 32.0122 44.252 32.0122 44.5378 31.5805C44.7523 31.3642 44.8961 31.0046 44.9675 30.7175C44.9675 30.5734 44.9675 30.5015 45.0384 30.5015C45.1103 30.5015 45.1822 30.5734 45.1822 30.7175C45.1822 30.8614 45.0384 31.7959 44.9675 32.2284C44.8242 32.5152 44.8242 32.5876 44.0378 32.5876C41.9643 32.5876 41.0343 32.5152 40.1771 32.5152C40.1771 32.5152 39.8913 32.5152 39.6057 32.5152C39.3198 32.5152 39.033 32.5152 38.8183 32.5152C38.6046 32.5152 38.5332 32.5152 38.5332 32.4434C38.5332 32.3721 38.6046 32.3721 38.6755 32.3721C38.8183 32.3721 38.9621 32.299 39.1051 32.299C39.3907 32.2284 39.4626 31.8678 39.5335 31.5086C39.6057 30.8614 39.6057 29.7107 39.6057 28.3442V25.7546C39.6057 23.4531 39.6057 23.0937 39.5335 22.5902C39.5335 22.0866 39.4626 21.8711 38.9621 21.7267C38.8183 21.7267 38.6046 21.7267 38.461 21.7267C38.3896 21.7267 38.3896 21.6557 38.3896 21.6557C38.3896 21.5112 38.461 21.5112 38.6046 21.5112C39.2479 21.5112 40.1049 21.5831 40.1771 21.5831C40.249 21.5831 41.3215 21.5112 41.7506 21.5112C41.8934 21.5112 41.9643 21.5112 41.9643 21.6557L41.8934 21.7267C41.7506 21.7267 41.5356 21.7267 41.3916 21.7267C40.9632 21.7993 40.8923 22.0866 40.8204 22.5902C40.8204 23.0937 40.8204 23.4531 40.8204 25.7546V28.3442Z" fill="#5C5C5C"/>
<path fill-rule="evenodd" clip-rule="evenodd" d="M47.7549 28.7037C47.7549 28.1283 47.9693 27.0494 48.8987 26.0428C49.6851 25.2512 50.471 25.1075 50.6862 25.1075C51.2574 25.1075 51.3295 25.4669 51.4723 25.6111C51.9728 25.1793 52.8298 24.3167 53.1881 23.8131C53.3317 23.5974 53.6167 23.0938 53.6167 22.806C53.6167 22.5903 53.5451 22.5184 53.4744 22.4461C53.3317 22.303 53.3317 22.303 53.3317 22.1585C53.3317 21.7994 53.5451 21.6558 53.8314 21.6558C54.1162 21.6558 54.3314 21.7994 54.3314 22.303C54.3314 22.9502 53.9737 23.741 52.8298 24.8202C51.83 25.8271 49.8277 27.409 48.541 28.272V28.4161C48.541 29.9268 49.7555 30.5016 50.6862 30.5016C51.6862 30.5016 52.9015 29.7826 53.6167 28.488C54.1162 27.6248 54.2601 26.9773 54.2601 25.9702C54.1162 25.8984 53.9028 25.7547 53.6167 25.7547C53.2595 25.7547 52.759 26.1146 52.759 26.5458C52.759 26.69 52.8298 26.8336 52.8298 26.9773C52.9015 27.1217 52.9729 27.2654 52.9729 27.3372C52.9729 27.409 52.9015 27.6971 52.5443 27.6971C52.3296 27.6971 52.0447 27.4809 52.0447 27.193C52.0447 26.8336 52.2582 26.3301 52.8298 25.7547C53.3317 25.3956 53.9028 25.2512 54.0456 25.2512C54.6892 25.2512 55.0467 25.6829 55.6903 26.2583C55.9758 26.4745 55.9758 26.5458 56.1908 26.5458C56.3336 26.5458 56.405 26.4019 56.405 26.1864C56.405 26.0428 56.405 25.9702 56.405 25.8984C56.3336 25.7547 56.3336 25.7547 56.3336 25.6829C56.3336 25.5392 56.4764 25.3956 56.6898 25.3956C57.0483 25.3956 57.1919 25.7547 57.1919 26.0428C57.1919 26.3301 57.0483 26.5458 56.9769 26.69C56.8341 26.7618 56.762 26.7618 56.6197 26.7618C56.405 26.8336 55.9758 26.9773 55.6903 27.0494C55.6181 27.193 55.4751 27.1217 55.4034 27.0494C55.3325 26.9062 54.976 26.4745 54.6183 26.1146C54.6183 26.3301 54.5461 26.9773 54.5461 27.193C54.5461 27.5529 54.2601 28.7755 53.3317 29.8544C52.4721 30.7897 51.2574 31.2207 50.3991 31.2207C48.4691 31.2207 47.7549 29.9986 47.7549 28.7037ZM50.5432 26.3297C50.5432 26.1861 50.5432 26.0424 50.5432 26.0424C50.5432 25.7544 50.3991 25.6107 50.1857 25.6107C49.9707 25.6107 49.6135 25.8267 49.2565 26.3297C48.8269 26.8333 48.6841 27.265 48.541 27.8404C49.4702 27.1927 50.1135 26.6896 50.5432 26.3297Z" fill="#5C5C5C"/>
<path fill-rule="evenodd" clip-rule="evenodd" d="M73.9925 30.2857C74.0644 30.8611 74.1366 31.7956 74.8503 32.0837C75.3511 32.2281 75.7802 32.2281 75.9225 32.2281C76.065 32.2281 76.065 32.2281 76.065 32.2986C76.065 32.3718 75.9225 32.4431 75.7083 32.4431C75.3511 32.4431 73.5636 32.3718 72.9206 32.3718C72.5628 32.2986 72.4919 32.2281 72.4919 32.1555C72.4919 32.0837 72.4919 32.0837 72.5628 32.0837C72.7056 32.0119 72.7056 31.7245 72.635 31.4365L71.8473 22.6616H71.7767L67.702 31.5083C67.3435 32.2281 67.3435 32.4431 67.201 32.4431C67.0582 32.4431 66.9873 32.2281 66.6288 31.6525C66.2004 30.7893 64.77 27.8403 64.6991 27.6966C64.5568 27.4086 62.6975 23.3091 62.4825 22.8056H62.4116L61.7683 30.7172C61.7683 31.0042 61.7683 31.2928 61.7683 31.5801C61.7683 31.8674 61.9106 32.0837 62.1969 32.1555C62.4825 32.1555 62.6975 32.2281 62.8403 32.2281C62.8403 32.2281 62.9119 32.2281 62.9119 32.2986C62.9119 32.4431 62.8403 32.4431 62.6256 32.4431C62.0529 32.4431 61.1959 32.3718 61.0531 32.3718C60.91 32.3718 60.1239 32.4431 59.6943 32.4431C59.5515 32.4431 59.4092 32.4431 59.4092 32.2986C59.4092 32.2281 59.4793 32.2281 59.5515 32.2281C59.6943 32.2281 59.8376 32.2281 60.052 32.1555C60.6239 32.0837 60.6958 31.3639 60.7662 30.7172L61.9106 19.6411C61.9827 19.4254 62.0529 19.353 62.1255 19.353C62.1969 19.353 62.2676 19.4254 62.4116 19.5693L67.4873 30.2857L72.42 19.5693C72.4919 19.4254 72.4919 19.353 72.635 19.353C72.777 19.353 72.777 19.4974 72.8497 19.7848L73.9925 30.2857Z" fill="#5C5C5C"/>
<path fill-rule="evenodd" clip-rule="evenodd" d="M78.4252 25.6106C78.4252 23.3809 78.4252 22.9497 78.4252 22.518C78.4252 22.0144 78.2819 21.7264 77.7819 21.6553C77.7105 21.6553 77.4241 21.5827 77.353 21.5827C77.2816 21.5827 77.21 21.5827 77.21 21.5109C77.21 21.4391 77.2816 21.3672 77.4241 21.3672C78.0675 21.3672 78.9977 21.4391 79.0685 21.4391C79.1407 21.4391 81.9998 21.4391 82.3571 21.4391C82.5718 21.4391 82.8579 21.3672 82.9285 21.3672C83.0009 21.3672 83.0718 21.2954 83.1437 21.2954C83.2151 21.2954 83.2151 21.3672 83.2151 21.4391C83.2151 21.5109 83.1437 21.7264 83.0718 22.0863C83.0718 22.2299 83.0718 22.8774 83.0009 23.0934C83.0009 23.1652 83.0009 23.237 82.9285 23.237C82.8579 23.237 82.7865 23.1652 82.7865 23.0215C82.7865 22.9497 82.7865 22.6616 82.7146 22.518C82.6432 22.3025 82.5004 22.0863 81.7138 22.0144C81.4272 22.0144 79.9268 21.9426 79.7119 21.9426C79.7119 21.9426 79.6412 22.0144 79.6412 22.0863V26.1142C79.6412 26.2578 79.6412 26.3296 79.7119 26.3296C79.9268 26.3296 81.7138 26.3296 81.9998 26.2578C82.3571 26.2578 82.5718 26.186 82.7146 26.0423C82.7865 25.9697 82.8579 25.8979 82.9285 25.8979C82.9285 25.8979 83.0009 25.8979 83.0009 25.9697C83.0009 26.0423 82.9285 26.3296 82.8579 26.8332C82.8579 27.1213 82.7865 27.6243 82.7865 27.7685C82.7865 27.8403 82.7865 27.984 82.7146 27.984C82.6432 27.984 82.5718 27.984 82.5718 27.9121C82.5718 27.7685 82.5718 27.6243 82.5718 27.4086C82.5004 27.1926 82.3571 26.9768 81.7849 26.9058C81.4272 26.8332 79.9982 26.8332 79.7835 26.8332C79.7119 26.8332 79.6412 26.8332 79.6412 26.9058V28.2002C79.6412 28.7032 79.6412 30.4294 79.6412 30.7172C79.7119 31.7245 79.9268 31.8674 81.3565 31.8674C81.7138 31.8674 82.3571 31.8674 82.7146 31.7245C83.0718 31.5801 83.2151 31.2928 83.3584 30.7172C83.3584 30.5012 83.4301 30.5012 83.5015 30.5012C83.5734 30.5012 83.5734 30.573 83.5734 30.7172C83.5734 30.7893 83.4301 31.7956 83.3584 32.0837C83.2865 32.5149 83.1437 32.5149 82.5718 32.5149C80.4274 32.5149 79.4982 32.3718 79.0685 32.3718C78.9977 32.3718 78.783 32.4431 78.4966 32.4431C78.2115 32.4431 77.8538 32.4431 77.6391 32.4431C77.4961 32.4431 77.4241 32.4431 77.4241 32.2986C77.4241 32.2986 77.4241 32.2281 77.5669 32.2281C77.6391 32.2281 77.8538 32.2281 77.9966 32.1555C78.2819 32.0837 78.3543 31.7956 78.3543 31.3639C78.4252 30.7893 78.4252 29.6385 78.4252 28.2002V25.6106Z" fill="#5C5C5C"/>
<path fill-rule="evenodd" clip-rule="evenodd" d="M88.147 28.2002C88.147 30.3575 88.147 31.2928 88.4331 31.5801C88.6468 31.7956 89.0045 31.9395 90.1484 31.9395C90.9347 31.9395 91.5781 31.8674 91.8637 31.5083C92.0786 31.2202 92.2214 30.861 92.293 30.573C92.293 30.5011 92.293 30.4293 92.3644 30.4293C92.4361 30.4293 92.4361 30.5011 92.4361 30.6453C92.4361 30.7892 92.3644 31.6524 92.293 32.0836C92.15 32.443 92.0786 32.5148 91.3644 32.5148C89.2901 32.5148 88.3612 32.3717 87.5034 32.3717C87.4315 32.3717 87.2173 32.443 86.9315 32.443C86.6456 32.443 86.359 32.443 86.1454 32.443C86.0018 32.443 85.8585 32.443 85.8585 32.2986C85.8585 32.2986 85.9304 32.2281 86.0018 32.2281C86.1454 32.2281 86.2882 32.2281 86.4309 32.1555C86.7163 32.0836 86.7882 31.7956 86.8596 31.3638C86.9315 30.7892 86.9315 29.6385 86.9315 28.2002V25.6106C86.9315 23.3809 86.9315 22.9497 86.8596 22.5179C86.8596 22.0144 86.7163 21.7263 86.2882 21.6553C86.1454 21.6553 85.9304 21.5827 85.7876 21.5827C85.7157 21.5827 85.6436 21.5827 85.6436 21.5108C85.6436 21.439 85.7157 21.3672 85.9304 21.3672C86.5737 21.3672 87.4315 21.439 87.5034 21.439C87.5748 21.439 88.6468 21.3672 89.0754 21.3672C89.2189 21.3672 89.2901 21.439 89.2901 21.5108C89.2901 21.5827 89.2189 21.5827 89.2189 21.5827C89.0754 21.5827 88.8617 21.6553 88.7189 21.6553C88.2898 21.7263 88.147 21.9426 88.147 22.5179C88.147 22.9497 88.147 23.3809 88.147 25.6106V28.2002Z" fill="#5C5C5C"/>
<path fill-rule="evenodd" clip-rule="evenodd" d="M96.5126 28.2002C96.5126 29.6385 96.5126 30.7892 96.584 31.3638C96.6551 31.7956 96.727 32.0836 97.1559 32.1555C97.3706 32.2281 97.6564 32.2281 97.7992 32.2281C97.8706 32.2281 97.8706 32.2986 97.8706 32.2986C97.8706 32.3717 97.7992 32.443 97.6564 32.443C96.8703 32.443 96.0118 32.3717 95.9401 32.3717C95.8693 32.3717 94.9396 32.443 94.5112 32.443C94.3677 32.443 94.2963 32.443 94.2963 32.2986C94.2963 32.2986 94.2963 32.2281 94.3677 32.2281C94.5112 32.2281 94.6532 32.2281 94.797 32.1555C95.0831 32.0836 95.1545 31.7956 95.2259 31.3638C95.2966 30.7892 95.2966 29.6385 95.2966 28.2002V25.6106C95.2966 23.3809 95.2966 22.9497 95.2966 22.5179C95.2259 22.0144 95.0831 21.7263 94.797 21.6553C94.6532 21.6553 94.4391 21.5827 94.3677 21.5827C94.2963 21.5827 94.2246 21.5827 94.2246 21.5108C94.2246 21.439 94.2963 21.3672 94.4391 21.3672C94.9396 21.3672 95.8693 21.439 95.9401 21.439C96.0118 21.439 96.8703 21.3672 97.2995 21.3672C97.4418 21.3672 97.5137 21.439 97.5137 21.5108C97.5137 21.5827 97.4418 21.5827 97.4418 21.5827C97.2995 21.5827 97.2273 21.6553 97.0845 21.6553C96.6551 21.7263 96.584 21.9426 96.5126 22.5179C96.5126 22.9497 96.5126 23.3809 96.5126 25.6106V28.2002Z" fill="#5C5C5C"/>
<path fill-rule="evenodd" clip-rule="evenodd" d="M101.874 30.4299C101.945 31.653 102.089 32.0124 102.446 32.156C102.732 32.2286 103.017 32.2286 103.16 32.2286C103.232 32.2286 103.303 32.2992 103.303 32.2992C103.303 32.4436 103.232 32.4436 103.017 32.4436C102.231 32.4436 101.658 32.3723 101.517 32.3723C101.373 32.3723 100.801 32.4436 100.157 32.4436C100.015 32.4436 99.9434 32.4436 99.9434 32.2992C99.9434 32.2992 99.9434 32.2286 100.015 32.2286C100.157 32.2286 100.372 32.2286 100.587 32.156C100.944 32.0842 101.015 31.653 101.015 30.2863V21.9432C101.015 21.3678 101.086 21.2241 101.23 21.2241C101.302 21.2241 101.588 21.5114 101.731 21.6558C101.945 21.9432 104.09 24.2447 106.235 26.6901C107.665 28.2007 109.237 29.9987 109.666 30.5017L109.523 23.0939C109.523 22.0868 109.452 21.7995 108.951 21.6558C108.737 21.6558 108.379 21.5833 108.308 21.5833C108.165 21.5833 108.165 21.5833 108.165 21.5114C108.165 21.4396 108.308 21.3678 108.45 21.3678C109.093 21.3678 109.809 21.4396 109.952 21.4396C110.096 21.4396 110.739 21.4396 111.311 21.4396C111.453 21.4396 111.596 21.4396 111.596 21.5114C111.596 21.5833 111.525 21.6558 111.453 21.6558C111.382 21.6558 111.238 21.6558 111.096 21.6558C110.595 21.7995 110.524 22.0868 110.524 22.9503L110.381 31.3644C110.381 32.2992 110.31 32.5154 110.238 32.5154C110.096 32.5154 109.952 32.3723 109.165 31.5807C109.023 31.437 106.95 29.351 105.448 27.6248C103.804 25.8271 103.232 25.0358 102.089 23.5975L101.874 30.4299Z" fill="#5C5C5C"/>
<path fill-rule="evenodd" clip-rule="evenodd" d="M114.457 25.6105C114.457 23.3808 114.457 22.9496 114.457 22.5178C114.385 22.0143 114.314 21.7262 113.813 21.6552C113.67 21.6552 113.456 21.5826 113.313 21.5826C113.241 21.5826 113.241 21.5826 113.241 21.5107C113.241 21.4389 113.313 21.3671 113.456 21.3671C114.099 21.3671 114.958 21.4389 115.029 21.4389C115.243 21.4389 116.101 21.3671 116.959 21.3671C118.389 21.3671 121.034 21.2953 122.75 23.0932C123.465 23.8125 124.108 25.0351 124.108 26.7612C124.108 28.6318 123.393 29.998 122.607 30.861C121.963 31.58 120.677 32.5871 118.245 32.5871C117.03 32.5871 115.172 32.3716 115.029 32.3716C114.958 32.3716 114.099 32.4429 113.67 32.4429C113.527 32.4429 113.456 32.4429 113.456 32.2985C113.456 32.2985 113.456 32.228 113.527 32.228C113.67 32.228 113.813 32.228 113.957 32.1554C114.242 32.0835 114.314 31.7955 114.385 31.3637C114.457 30.7891 114.457 29.6384 114.457 28.2001V25.6105ZM115.672 27.1925C115.672 28.775 115.672 30.0694 115.672 30.3575C115.672 30.7171 115.743 31.3638 115.815 31.5082C116.029 31.7955 116.602 32.0836 118.245 32.0836C119.604 32.0836 120.819 31.5801 121.677 30.7171C122.463 29.9981 122.821 28.5593 122.821 27.2648C122.821 25.3951 122.035 24.1717 121.463 23.525C120.105 22.0862 118.46 21.8707 116.744 21.8707C116.459 21.8707 115.958 21.9425 115.815 22.0144C115.743 22.0862 115.672 22.158 115.672 22.3024C115.672 22.8055 115.672 24.244 115.672 25.3951V27.1925Z" fill="#5C5C5C"/>
<path fill-rule="evenodd" clip-rule="evenodd" d="M129.04 21.7995C129.255 21.2959 129.326 21.2241 129.397 21.2241C129.469 21.2241 129.541 21.2959 129.684 21.7269C129.898 22.3031 132.186 28.3444 133.044 30.5017C133.543 31.7961 133.973 32.0842 134.259 32.156C134.473 32.2286 134.688 32.2286 134.83 32.2286C134.903 32.2286 134.974 32.2286 134.974 32.2992C134.974 32.4436 134.83 32.4436 134.688 32.4436C134.473 32.4436 133.401 32.4436 132.472 32.4436C132.186 32.3723 132.042 32.3723 132.042 32.2992C132.042 32.2286 132.042 32.2286 132.114 32.2286C132.186 32.156 132.257 32.0842 132.186 31.7961L130.899 28.2007C130.827 28.1284 130.827 28.1284 130.755 28.1284H127.682C127.611 28.1284 127.539 28.2007 127.539 28.272L126.681 30.8616C126.538 31.2208 126.467 31.5807 126.467 31.7961C126.467 32.0842 126.752 32.2286 127.039 32.2286H127.11C127.253 32.2286 127.325 32.2992 127.325 32.2992C127.325 32.4436 127.181 32.4436 127.11 32.4436C126.752 32.4436 126.109 32.3723 125.966 32.3723C125.823 32.3723 125.037 32.4436 124.322 32.4436C124.179 32.4436 124.036 32.4436 124.036 32.2992C124.036 32.2992 124.108 32.2286 124.179 32.2286C124.322 32.2286 124.537 32.2286 124.607 32.2286C125.251 32.0842 125.537 31.5807 125.823 30.8616L129.04 21.7995ZM130.541 27.6248C130.612 27.6248 130.612 27.553 130.612 27.4809L129.254 23.5975C129.183 23.3815 129.111 23.3815 129.04 23.5975L127.753 27.4809C127.753 27.553 127.753 27.6248 127.824 27.6248H130.541Z" fill="#5C5C5C"/>
</svg>
