<svg width="173" height="70" viewBox="0 0 173 70" fill="none" xmlns="http://www.w3.org/2000/svg">
<path fill-rule="evenodd" clip-rule="evenodd" d="M40.2473 30.0761H29.5489V33.2978H37.1364C36.7615 37.8155 33.0578 39.7421 29.5618 39.7421C25.089 39.7421 21.1859 36.1707 21.1859 31.1649C21.1859 26.2886 24.9065 22.5331 29.5716 22.5331C33.1708 22.5331 35.2917 24.8615 35.2917 24.8615L37.5145 22.5255C37.5145 22.5255 34.6614 19.3022 29.458 19.3022C22.832 19.3022 17.7061 24.9774 17.7061 31.1074C17.7061 37.1141 22.5279 42.9712 29.6269 42.9712C35.8705 42.9712 40.4409 38.6306 40.4409 32.212C40.4409 30.8579 40.2471 30.0752 40.2471 30.0752L40.2473 30.0761Z" fill="#5C5C5C"/>
<path fill-rule="evenodd" clip-rule="evenodd" d="M49.0544 30.7308C51.2131 30.7308 53.2588 32.502 53.2588 35.356C53.2588 38.1494 51.2218 39.9711 49.0444 39.9711C46.652 39.9711 44.7646 38.0266 44.7646 35.3338C44.7646 32.6988 46.6286 30.7308 49.0544 30.7308ZM49.0104 27.7427C44.6206 27.7427 41.4746 31.2255 41.4746 35.2875C41.4746 39.4096 44.5261 42.9572 49.062 42.9572C53.1683 42.9572 56.5323 39.7722 56.5323 35.3761C56.5323 30.3376 52.6192 27.7427 49.0104 27.7427Z" fill="#5C5C5C"/>
<path fill-rule="evenodd" clip-rule="evenodd" d="M65.444 30.7308C67.6028 30.7308 69.6485 32.502 69.6485 35.356C69.6485 38.1494 67.6115 39.9711 65.4341 39.9711C63.0417 39.9711 61.1543 38.0266 61.1543 35.3338C61.1543 32.6988 63.0183 30.7308 65.444 30.7308ZM65.4001 27.7427C61.0103 27.7427 57.8643 31.2255 57.8643 35.2875C57.8643 39.4096 60.9157 42.9572 65.4517 42.9572C69.5579 42.9572 72.922 39.7722 72.922 35.3761C72.922 30.3376 69.0088 27.7427 65.4001 27.7427Z" fill="#5C5C5C"/>
<path fill-rule="evenodd" clip-rule="evenodd" d="M81.7677 30.7327C83.7432 30.7327 85.7718 32.4446 85.7718 35.368C85.7718 38.3394 83.7475 39.9771 81.7241 39.9771C79.5759 39.9771 77.5771 38.207 77.5771 35.3962C77.5771 32.4756 79.653 30.7327 81.7676 30.7327H81.7677ZM81.4758 27.7505C77.4465 27.7505 74.2793 31.3319 74.2793 35.3517C74.2793 39.9306 77.9512 42.967 81.4064 42.967C83.5428 42.967 84.6788 42.1065 85.5176 41.1185V42.6186C85.5176 45.2432 83.9473 46.8149 81.5771 46.8149C79.2873 46.8149 78.1389 45.0871 77.7397 44.1067L74.8588 45.3289C75.8808 47.522 77.9382 49.8091 81.6009 49.8091C85.6071 49.8091 88.6605 47.2483 88.6605 41.8776V28.2079H85.5177V29.4965C84.5513 28.4397 83.2297 27.7507 81.4758 27.7507V27.7505Z" fill="#5C5C5C"/>
<path fill-rule="evenodd" clip-rule="evenodd" d="M102.766 30.6581C104.135 30.6581 105.121 31.397 105.54 32.2831L98.8271 35.1303C98.5377 32.926 100.596 30.6581 102.766 30.6581ZM102.635 27.7324C98.8339 27.7324 95.6426 30.8013 95.6426 35.3296C95.6426 40.1212 99.1997 42.963 103 42.963C106.171 42.963 108.118 41.2022 109.28 39.6245L106.688 37.8748C106.016 38.9338 104.892 39.9689 103.016 39.9689C100.908 39.9689 99.9394 38.7978 99.339 37.6634L109.39 33.4308L108.869 32.1904C107.898 29.7614 105.633 27.7329 102.635 27.7329L102.635 27.7324Z" fill="#5C5C5C"/>
<path fill-rule="evenodd" clip-rule="evenodd" d="M90.8506 20.0889H94.1522V42.5116H90.8506V20.0889Z" fill="#5C5C5C"/>
<path fill-rule="evenodd" clip-rule="evenodd" d="M113.65 41.3148C113.289 41.6816 112.855 41.8647 112.35 41.8647C111.844 41.8647 111.411 41.6816 111.049 41.3148C110.688 40.9483 110.508 40.5084 110.508 39.9951C110.508 39.4822 110.688 39.0422 111.049 38.6755C111.411 38.309 111.844 38.1255 112.35 38.1255C112.855 38.1255 113.289 38.309 113.65 38.6755C114.012 39.0422 114.193 39.4822 114.193 39.9951C114.193 40.5084 114.012 40.9483 113.65 41.3148Z" fill="#5C5C5C"/>
<path fill-rule="evenodd" clip-rule="evenodd" d="M120.03 38.4964C120.887 39.3857 121.903 39.8298 123.078 39.8298C124.252 39.8298 125.268 39.3857 126.126 38.4964C126.983 37.6076 127.412 36.4301 127.412 34.9635C127.412 33.4974 126.983 32.3198 126.126 31.4307C125.268 30.5419 124.252 30.0972 123.078 30.0972C121.903 30.0972 120.887 30.5419 120.03 31.4307C119.172 32.3198 118.743 33.4974 118.743 34.9635C118.743 36.4301 119.172 37.6076 120.03 38.4964ZM118.175 29.8364C119.457 28.4712 121.091 27.7881 123.078 27.7881C125.064 27.7881 126.699 28.4712 127.982 29.8364C129.264 31.202 129.905 32.9113 129.905 34.9638C129.905 37.0168 129.264 38.7261 127.982 40.0913C126.699 41.4569 125.064 42.1395 123.078 42.1395C121.091 42.1395 119.457 41.4569 118.175 40.0913C116.892 38.7261 116.251 37.0168 116.251 34.9638C116.251 32.9113 116.892 31.202 118.175 29.8364Z" fill="#5C5C5C"/>
<path fill-rule="evenodd" clip-rule="evenodd" d="M134.402 41.6995H131.909V28.2278H134.294V30.4273H134.402C134.654 29.6945 135.174 29.0895 135.959 28.6128C136.745 28.1363 137.508 27.8979 138.248 27.8979C138.989 27.8979 139.612 28.0079 140.118 28.2278L139.17 30.5923C138.845 30.4642 138.401 30.3998 137.843 30.3998C136.939 30.3998 136.14 30.7619 135.444 31.4858C134.749 32.2101 134.402 33.1586 134.402 34.3314V41.6995Z" fill="#5C5C5C"/>
<path fill-rule="evenodd" clip-rule="evenodd" d="M147.027 39.8298C148.201 39.8298 149.198 39.39 150.02 38.5101C150.842 37.6303 151.253 36.4481 151.253 34.9635C151.253 33.4789 150.842 32.2966 150.02 31.4169C149.198 30.5371 148.201 30.0972 147.027 30.0972C145.871 30.0972 144.877 30.5419 144.047 31.4307C143.216 32.3198 142.801 33.4974 142.801 34.9635C142.801 36.4301 143.216 37.6076 144.047 38.4964C144.877 39.3857 145.871 39.8298 147.027 39.8298ZM146.838 48.0781C145.266 48.0781 143.983 47.6795 142.99 46.8821C141.997 46.0848 141.284 45.1728 140.85 44.1465L143.126 43.1843C143.379 43.9171 143.844 44.5314 144.521 45.0263C145.198 45.5212 145.97 45.7687 146.838 45.7687C148.21 45.7687 149.289 45.3515 150.074 44.5176C150.861 43.6834 151.254 42.552 151.254 41.1222V39.8301H151.146C150.711 40.4899 150.097 41.0398 149.303 41.4797C148.508 41.9196 147.614 42.1395 146.621 42.1395C144.905 42.1395 143.424 41.4522 142.178 40.0775C140.932 38.7029 140.309 36.9983 140.309 34.9638C140.309 32.9293 140.932 31.2248 142.178 29.85C143.424 28.4754 144.905 27.7881 146.621 27.7881C147.614 27.7881 148.508 28.0081 149.303 28.448C150.097 28.8878 150.711 29.4377 151.146 30.0975H151.254V28.228H153.637V41.0123C153.637 43.3217 152.978 45.0766 151.659 46.2773C150.342 47.4775 148.734 48.0781 146.838 48.0781Z" fill="#5C5C5C"/>
</svg>
