<svg width="137" height="31" viewBox="0 0 137 31" fill="none" xmlns="http://www.w3.org/2000/svg">
<path fill-rule="evenodd" clip-rule="evenodd" d="M23.2473 11.0761H12.5489V14.2978H20.1364C19.7615 18.8155 16.0578 20.7421 12.5618 20.7421C8.08899 20.7421 4.18593 17.1707 4.18593 12.1649C4.18593 7.28855 7.90654 3.53308 12.5716 3.53308C16.1708 3.53308 18.2917 5.86151 18.2917 5.86151L20.5145 3.52553C20.5145 3.52553 17.6614 0.302246 12.458 0.302246C5.83203 0.302153 0.706055 5.97737 0.706055 12.1074C0.706055 18.1141 5.52788 23.9712 12.6269 23.9712C18.8705 23.9712 23.4409 19.6306 23.4409 13.212C23.4409 11.8579 23.2471 11.0752 23.2471 11.0752L23.2473 11.0761" fill="#5C5C5C"/>
<path fill-rule="evenodd" clip-rule="evenodd" d="M32.0544 11.7308C34.2131 11.7308 36.2588 13.502 36.2588 16.356C36.2588 19.1494 34.2218 20.9711 32.0444 20.9711C29.652 20.9711 27.7646 19.0266 27.7646 16.3338C27.7646 13.6988 29.6286 11.7308 32.0544 11.7308V11.7308ZM32.0104 8.74268C27.6206 8.74268 24.4746 12.2255 24.4746 16.2875C24.4746 20.4096 27.5261 23.9572 32.062 23.9572C36.1683 23.9572 39.5323 20.7722 39.5323 16.3761C39.5323 11.3376 35.6192 8.74268 32.0104 8.74268V8.74268Z" fill="#5C5C5C"/>
<path fill-rule="evenodd" clip-rule="evenodd" d="M48.444 11.7308C50.6028 11.7308 52.6485 13.502 52.6485 16.356C52.6485 19.1494 50.6115 20.9711 48.4341 20.9711C46.0417 20.9711 44.1543 19.0266 44.1543 16.3338C44.1543 13.6988 46.0183 11.7308 48.444 11.7308V11.7308ZM48.4001 8.74268C44.0103 8.74268 40.8643 12.2255 40.8643 16.2875C40.8643 20.4096 43.9157 23.9572 48.4517 23.9572C52.5579 23.9572 55.922 20.7722 55.922 16.3761C55.922 11.3376 52.0088 8.74268 48.4001 8.74268V8.74268Z" fill="#5C5C5C"/>
<path fill-rule="evenodd" clip-rule="evenodd" d="M64.7677 11.7327C66.7432 11.7327 68.7718 13.4446 68.7718 16.368C68.7718 19.3394 66.7475 20.9771 64.7241 20.9771C62.5759 20.9771 60.5771 19.207 60.5771 16.3962C60.5771 13.4756 62.653 11.7327 64.7676 11.7327H64.7677V11.7327ZM64.4758 8.75049C60.4465 8.75049 57.2793 12.3319 57.2793 16.3517C57.2793 20.9306 60.9512 23.967 64.4064 23.967C66.5428 23.967 67.6788 23.1065 68.5176 22.1185V23.6186C68.5176 26.2432 66.9473 27.8149 64.5771 27.8149C62.2873 27.8149 61.1389 26.0871 60.7397 25.1067L57.8588 26.3289C58.8808 28.522 60.9382 30.8091 64.6009 30.8091C68.6071 30.8091 71.6605 28.2483 71.6605 22.8776V9.20788H68.5177V10.4965C67.5513 9.4397 66.2297 8.75067 64.4758 8.75067V8.75049V8.75049Z" fill="#5C5C5C"/>
<path fill-rule="evenodd" clip-rule="evenodd" d="M85.7657 11.6581C87.1353 11.6581 88.1209 12.397 88.5395 13.2831L81.8271 16.1303C81.5377 13.926 83.5955 11.6581 85.7657 11.6581V11.6581ZM85.6347 8.73242C81.8339 8.73242 78.6426 11.8013 78.6426 16.3296C78.6426 21.1212 82.1997 23.963 85.9998 23.963C89.1714 23.963 91.118 22.2022 92.2797 20.6245L89.6884 18.8748C89.0159 19.9338 87.8918 20.9689 86.0157 20.9689C83.9083 20.9689 82.9394 19.7978 82.339 18.6634L92.3904 14.4308L91.8685 13.1904C90.8975 10.7614 88.6325 8.73289 85.6351 8.73289L85.6347 8.73242V8.73242Z" fill="#5C5C5C"/>
<path fill-rule="evenodd" clip-rule="evenodd" d="M73.8506 1.08887H77.1522V23.5116H73.8506V1.08887Z" fill="#5C5C5C"/>
<path fill-rule="evenodd" clip-rule="evenodd" d="M96.6502 22.3148C96.2886 22.6816 95.8554 22.8647 95.3498 22.8647C94.8441 22.8647 94.4109 22.6816 94.0493 22.3148C93.6877 21.9483 93.5078 21.5084 93.5078 20.9951C93.5078 20.4822 93.6877 20.0422 94.0493 19.6755C94.4109 19.309 94.8441 19.1255 95.3498 19.1255C95.8554 19.1255 96.2886 19.309 96.6502 19.6755C97.0118 20.0422 97.1926 20.4822 97.1926 20.9951C97.1926 21.5084 97.0118 21.9483 96.6502 22.3148" fill="#5C5C5C"/>
<path fill-rule="evenodd" clip-rule="evenodd" d="M103.03 19.4964C103.887 20.3857 104.903 20.8298 106.078 20.8298C107.252 20.8298 108.268 20.3857 109.126 19.4964C109.983 18.6076 110.412 17.4301 110.412 15.9635C110.412 14.4974 109.983 13.3198 109.126 12.4307C108.268 11.5419 107.252 11.0972 106.078 11.0972C104.903 11.0972 103.887 11.5419 103.03 12.4307C102.172 13.3198 101.743 14.4974 101.743 15.9635C101.743 17.4301 102.172 18.6076 103.03 19.4964V19.4964ZM101.175 10.8364C102.457 9.47115 104.091 8.78809 106.078 8.78809C108.064 8.78809 109.699 9.47115 110.982 10.8364C112.264 12.202 112.905 13.9113 112.905 15.9638C112.905 18.0168 112.264 19.7261 110.982 21.0913C109.699 22.4569 108.064 23.1395 106.078 23.1395C104.091 23.1395 102.457 22.4569 101.175 21.0913C99.8916 19.7261 99.251 18.0168 99.251 15.9638C99.251 13.9113 99.8916 12.202 101.175 10.8364V10.8364Z" fill="#5C5C5C"/>
<path fill-rule="evenodd" clip-rule="evenodd" d="M117.402 22.6995H114.909V9.22784H117.294V11.4273H117.402C117.654 10.6945 118.174 10.0895 118.959 9.61278C119.745 9.13629 120.508 8.89795 121.248 8.89795C121.989 8.89795 122.612 9.00794 123.118 9.22784L122.17 11.5923C121.845 11.4642 121.401 11.3998 120.843 11.3998C119.939 11.3998 119.14 11.7619 118.444 12.4858C117.749 13.2101 117.402 14.1586 117.402 15.3314V22.6995" fill="#5C5C5C"/>
<path fill-rule="evenodd" clip-rule="evenodd" d="M130.027 20.8298C131.201 20.8298 132.198 20.39 133.02 19.5101C133.842 18.6303 134.253 17.4481 134.253 15.9635C134.253 14.4789 133.842 13.2966 133.02 12.4169C132.198 11.5371 131.201 11.0972 130.027 11.0972C128.871 11.0972 127.877 11.5419 127.047 12.4307C126.216 13.3198 125.801 14.4974 125.801 15.9635C125.801 17.4301 126.216 18.6076 127.047 19.4964C127.877 20.3857 128.871 20.8298 130.027 20.8298V20.8298ZM129.838 29.0781C128.266 29.0781 126.983 28.6795 125.99 27.8821C124.997 27.0848 124.284 26.1728 123.85 25.1465L126.126 24.1843C126.379 24.9171 126.844 25.5314 127.521 26.0263C128.198 26.5212 128.97 26.7687 129.838 26.7687C131.21 26.7687 132.289 26.3515 133.074 25.5176C133.861 24.6834 134.254 23.552 134.254 22.1222V20.8301H134.146C133.711 21.4899 133.097 22.0398 132.303 22.4797C131.508 22.9196 130.614 23.1395 129.621 23.1395C127.905 23.1395 126.424 22.4522 125.178 21.0775C123.932 19.7029 123.309 17.9983 123.309 15.9638C123.309 13.9293 123.932 12.2248 125.178 10.85C126.424 9.47544 127.905 8.78809 129.621 8.78809C130.614 8.78809 131.508 9.00808 132.303 9.44796C133.097 9.88785 133.711 10.4377 134.146 11.0975H134.254V9.22797H136.637V22.0123C136.637 24.3217 135.978 26.0766 134.659 27.2773C133.342 28.4775 131.734 29.0781 129.838 29.0781V29.0781Z" fill="#5C5C5C"/>
</svg>
