<svg width="20" height="20" viewBox="0 0 20 20" fill="none" xmlns="http://www.w3.org/2000/svg">
<g clip-path="url(#clip0_3587_131481)">
<path d="M5.85842 0.0704259C4.79442 0.120626 4.06782 0.290426 3.43262 0.540026C2.77522 0.796226 2.21802 1.14003 1.66362 1.69643C1.10922 2.25283 0.767816 2.81043 0.513416 3.46883C0.267216 4.10543 0.100416 4.83263 0.0534162 5.89723C0.00641622 6.96183 -0.00398378 7.30403 0.00121621 10.0196C0.00641621 12.7352 0.0184162 13.0756 0.0700162 14.1424C0.120816 15.2062 0.290016 15.9326 0.539616 16.568C0.796216 17.2254 1.13962 17.7824 1.69622 18.337C2.25282 18.8916 2.81002 19.2322 3.47002 19.487C4.10602 19.7328 4.83342 19.9004 5.89782 19.947C6.96222 19.9936 7.30482 20.0044 10.0196 19.9992C12.7344 19.994 13.0762 19.982 14.1428 19.9314C15.2094 19.8808 15.932 19.7104 16.5676 19.462C17.225 19.2048 17.7824 18.862 18.3366 18.3052C18.8908 17.7484 19.232 17.1904 19.4862 16.5316C19.7326 15.8956 19.9 15.1682 19.9462 14.1046C19.9928 13.0372 20.0038 12.6964 19.9986 9.98123C19.9934 7.26603 19.9812 6.92563 19.9306 5.85923C19.88 4.79283 19.7106 4.06863 19.4612 3.43283C19.2042 2.77543 18.8612 2.21883 18.3048 1.66383C17.7484 1.10883 17.19 0.767826 16.5314 0.514226C15.895 0.268026 15.168 0.100226 14.1036 0.0542259C13.0392 0.00822589 12.6966 -0.00357411 9.98082 0.00162589C7.26502 0.00682589 6.92502 0.0184259 5.85842 0.0704259ZM5.97522 18.148C5.00022 18.1056 4.47082 17.9436 4.11802 17.808C3.65082 17.628 3.31802 17.4104 2.96642 17.0622C2.61482 16.714 2.39882 16.38 2.21642 15.9138C2.07942 15.561 1.91442 15.0322 1.86882 14.0572C1.81922 13.0034 1.80882 12.687 1.80302 10.0172C1.79722 7.34743 1.80742 7.03143 1.85362 5.97723C1.89522 5.00303 2.05822 4.47303 2.19362 4.12043C2.37362 3.65263 2.59042 3.32043 2.93942 2.96903C3.28842 2.61763 3.62142 2.40123 4.08802 2.21883C4.44042 2.08123 4.96922 1.91763 5.94382 1.87123C6.99842 1.82123 7.31442 1.81123 9.98382 1.80543C12.6532 1.79963 12.97 1.80963 14.025 1.85603C14.9992 1.89843 15.5294 2.05983 15.8816 2.19603C16.349 2.37603 16.6816 2.59223 17.033 2.94183C17.3844 3.29143 17.601 3.62323 17.7834 4.09083C17.9212 4.44223 18.0848 4.97083 18.1308 5.94603C18.181 7.00063 18.1924 7.31683 18.1972 9.98603C18.202 12.6552 18.1926 12.9722 18.1464 14.026C18.1038 15.001 17.9422 15.5306 17.8064 15.8838C17.6264 16.3508 17.4094 16.6838 17.0602 17.035C16.711 17.3862 16.3784 17.6026 15.9116 17.785C15.5596 17.9224 15.0302 18.0864 14.0564 18.1328C13.0018 18.1824 12.6858 18.1928 10.0154 18.1986C7.34502 18.2044 7.03002 18.1936 5.97542 18.148M14.1274 4.65583C14.1278 4.89318 14.1986 5.12509 14.3308 5.32221C14.463 5.51934 14.6507 5.67283 14.8701 5.76328C15.0896 5.85373 15.3309 5.87707 15.5636 5.83034C15.7963 5.78362 16.01 5.66894 16.1775 5.5008C16.345 5.33265 16.4589 5.11861 16.5048 4.88573C16.5507 4.65285 16.5264 4.41159 16.4352 4.19248C16.3439 3.97337 16.1898 3.78624 15.9921 3.65476C15.7945 3.52328 15.5624 3.45335 15.325 3.45383C15.0068 3.45446 14.7019 3.58145 14.4773 3.80685C14.2527 4.03226 14.1269 4.33764 14.1274 4.65583M4.86542 10.0104C4.87102 12.8464 7.17422 15.1402 10.0096 15.1348C12.845 15.1294 15.1404 12.8264 15.135 9.99043C15.1296 7.15443 12.8258 4.86003 9.99002 4.86563C7.15422 4.87123 4.86002 7.17483 4.86542 10.0104ZM6.66662 10.0068C6.66531 9.34754 6.85954 8.70268 7.22473 8.15378C7.58992 7.60488 8.10968 7.17661 8.71828 6.9231C9.32688 6.6696 9.99698 6.60226 10.6438 6.7296C11.2907 6.85694 11.8853 7.17324 12.3524 7.6385C12.8195 8.10376 13.1382 8.69709 13.2681 9.34345C13.398 9.98981 13.3333 10.6602 13.0822 11.2698C12.8311 11.8794 12.4049 12.4008 11.8574 12.7682C11.31 13.1355 10.6659 13.3323 10.0066 13.3336C9.56885 13.3345 9.1352 13.2492 8.73041 13.0825C8.32563 12.9158 7.95765 12.671 7.64749 12.3621C7.33734 12.0532 7.09107 11.6861 6.92277 11.282C6.75447 10.8779 6.66743 10.4446 6.66662 10.0068" fill="#CFCFCF"/>
</g>
<defs>
<clipPath id="clip0_3587_131481">
<rect width="20" height="20" fill="white"/>
</clipPath>
</defs>
</svg>
