<svg width="16" height="17" viewBox="0 0 16 17" fill="none" xmlns="http://www.w3.org/2000/svg">
<path d="M13.9665 1.5H2.03347C1.46278 1.5 1 1.96278 1 2.53347V14.4665C1 15.0372 1.46278 15.5 2.03347 15.5H13.9665C14.5372 15.5 15 15.0372 15 14.4665V2.53347C15 1.96278 14.5372 1.5 13.9665 1.5ZM5.17278 13.4272H3.06792V6.74028H5.17278V13.4263V13.4272ZM4.12083 5.81375C3.45097 5.81375 2.9075 5.30333 2.9075 4.60528C2.9075 3.90722 3.45097 3.39681 4.12083 3.39681C4.79069 3.39681 5.33417 3.90722 5.33417 4.60528C5.33417 5.30333 4.79069 5.81375 4.12083 5.81375ZM12.9321 13.4321H10.8272V9.78042C10.8272 8.70319 10.3693 8.37069 9.77819 8.37069C9.15403 8.37069 8.54153 8.84028 8.54153 9.80764V13.4331H6.43667V6.74514H8.46083V7.67167H8.48806C8.69125 7.26042 9.40292 6.5575 10.4889 6.5575C11.6633 6.5575 12.9321 7.25458 12.9321 9.29625V13.4321Z" fill="#CFCFCF"/>
</svg>
