<svg width="15" height="14" viewBox="0 0 15 14" fill="none" xmlns="http://www.w3.org/2000/svg">
<path d="M13.8122 0H1.87918C1.30848 0 0.845703 0.462778 0.845703 1.03347V12.9665C0.845703 13.5372 1.30848 14 1.87918 14H13.8122C14.3829 14 14.8457 13.5372 14.8457 12.9665V1.03347C14.8457 0.462778 14.3829 0 13.8122 0ZM5.01848 11.9272H2.91362V5.24028H5.01848V11.9263V11.9272ZM3.96654 4.31375C3.29668 4.31375 2.7532 3.80333 2.7532 3.10528C2.7532 2.40722 3.29668 1.89681 3.96654 1.89681C4.6364 1.89681 5.17987 2.40722 5.17987 3.10528C5.17987 3.80333 4.6364 4.31375 3.96654 4.31375ZM12.7778 11.9321H10.6729V8.28042C10.6729 7.20319 10.215 6.87069 9.6239 6.87069C8.99973 6.87069 8.38723 7.34028 8.38723 8.30764V11.9331H6.28237V5.24514H8.30654V6.17167H8.33376C8.53695 5.76042 9.24862 5.0575 10.3346 5.0575C11.509 5.0575 12.7778 5.75458 12.7778 7.79625V11.9321Z" fill="#5C5C5C"/>
</svg>
