<svg width="173" height="70" viewBox="0 0 173 70" fill="none" xmlns="http://www.w3.org/2000/svg">
<path d="M87.6691 32.1316C86.1892 33.4741 85.6422 36.5057 88.3233 38.2813L98.9938 45.5788L93.8248 33.7665C92.7309 30.9731 89.771 30.3668 87.6691 32.1316Z" fill="#C9C9C9"/>
<path d="M96.8597 26.3821C95.1224 26.4146 92.5164 28.4717 93.6853 31.6224L99.0367 44.2035L100.903 30.9728C101.342 27.6814 98.8437 26.1656 96.8597 26.3821Z" fill="#C9C9C9"/>
<path d="M101.74 30.4641H102.748C102.748 30.4641 103.284 30.4641 103.359 30.7131C102.962 31.0379 101.879 31.0812 102.018 32.8135L103.724 44.1928L109.032 31.5793C110.115 28.7642 107.842 26.4147 105.815 26.339C105.718 26.3281 105.622 26.3281 105.525 26.3281C103.724 26.339 101.643 27.649 101.74 30.4641Z" fill="#C9C9C9"/>
<path d="M108.828 33.8639L103.799 45.5355L114.469 38.2056C116.925 36.4624 116.528 33.6907 115.156 32.3156C114.577 31.666 113.515 31.168 112.4 31.168C111.07 31.168 109.654 31.8717 108.828 33.8639Z" fill="#C9C9C9"/>
<path d="M113.278 39.8619L103.262 46.8345H115.595C118.125 46.8345 119.755 44.236 119.026 41.8432C118.544 40.3383 117.107 39.1689 115.444 39.1689C114.747 39.1689 114.007 39.3855 113.278 39.8619Z" fill="#C9C9C9"/>
<path d="M87.3799 46.8346H99.5304L89.514 39.862C87.1976 38.3787 84.5916 39.2449 83.6586 41.7026C82.865 44.5285 84.849 46.8346 87.3799 46.8346Z" fill="#C9C9C9"/>
<path fill-rule="evenodd" clip-rule="evenodd" d="M79.2073 13.0649V32.6511L83.4863 32.6728L82.5318 41.0313H79.2288V46.8454H69.6092V41.1179L53.2227 41.0962V32.7594L68.4295 13.0649H79.2073ZM64.1397 32.4347H69.4803V25.0723L64.1397 32.4347Z" fill="#C9C9C9"/>
<path d="M53.0947 55.9294V49.0542H54.757L59.5614 54.1971V49.0542H60.9019V55.9294H59.2397L54.5747 50.9273V55.9294" fill="#C9C9C9"/>
<path d="M61.8672 49.0542H68.7843V50.2993H63.2077V51.7068H67.0899L67.0684 52.9519H63.2077V54.7168H68.9666V55.9294H61.8672" fill="#C9C9C9"/>
<path d="M69.4805 49.0864L71.7004 55.9616H73.3948L74.864 50.9487L76.3976 55.9616H78.0598L80.2583 49.0864H78.7033L77.2233 54.0344L75.7005 49.0864H74.0597L72.5369 54.0344L70.9819 49.0864H69.4805Z" fill="#C9C9C9"/>
<path d="M82.9941 49.0864H84.8709L87.4983 52.0639L90.1793 49.0864H91.9488L88.1632 53.3631V55.9616H86.8012V53.2224L82.9941 49.0864Z" fill="#C9C9C9"/>
<path fill-rule="evenodd" clip-rule="evenodd" d="M93.3861 49.5194C94.9411 48.545 97.279 48.6533 98.834 49.5194C101.065 51.0894 101.032 53.9802 98.834 55.4743C97.3004 56.3946 94.8339 56.3946 93.3861 55.4743C91.1126 53.8286 91.1876 51.0894 93.3861 49.5194ZM94.061 54.3052C95.3479 55.0631 96.978 55.0414 98.0825 54.3052C99.2622 53.3307 99.4231 51.7067 98.0825 50.808C97.0637 49.9419 94.8975 49.9635 94.061 50.808C92.9349 51.7608 92.8277 53.19 94.061 54.3052Z" fill="#C9C9C9"/>
<path fill-rule="evenodd" clip-rule="evenodd" d="M107.499 49.0542C110.019 49.6497 109.848 52.8653 107.767 53.3309L109.504 55.9727H107.864L106.04 53.45L103.016 53.4283V55.9619H101.622V49.0542H107.499ZM103.091 52.0533H107.22C108.078 51.9017 108.11 50.7324 107.22 50.4292H103.091V52.0533Z" fill="#C9C9C9"/>
<path d="M110.685 49.0542H112.154V52.2698L116.401 49.0542H118.567L115.049 51.761L118.781 55.9619H116.98L113.902 52.508L112.165 53.8506V55.9619H110.685V49.0542Z" fill="#C9C9C9"/>
</svg>
