<svg width="67" height="44" viewBox="0 0 67 44" fill="none" xmlns="http://www.w3.org/2000/svg">
<path d="M34.6691 19.1316C33.1892 20.4741 32.6422 23.5057 35.3233 25.2813L45.9938 32.5788L40.8248 20.7665C39.7309 17.9731 36.771 17.3668 34.6691 19.1316" fill="#5C5C5C"/>
<path d="M43.8597 13.3821C42.1224 13.4146 39.5164 15.4717 40.6853 18.6224L46.0367 31.2035L47.9027 17.9728C48.3424 14.6814 45.8437 13.1656 43.8597 13.3821" fill="#5C5C5C"/>
<path d="M48.7396 17.4641H49.7476C49.7476 17.4641 50.2838 17.4641 50.3589 17.7131C49.9621 18.0379 48.879 18.0812 49.0184 19.8135L50.7235 31.1928L56.032 18.5793C57.1151 15.7642 54.8416 13.4147 52.8147 13.339C52.7182 13.3281 52.6217 13.3281 52.5252 13.3281C50.7235 13.339 48.643 14.649 48.7396 17.4641" fill="#5C5C5C"/>
<path d="M55.8285 20.8639L50.7988 32.5355L61.4694 25.2056C63.9252 23.4624 63.5284 20.6907 62.1557 19.3156C61.5766 18.666 60.5149 18.168 59.3996 18.168C58.0698 18.168 56.6542 18.8717 55.8285 20.8639" fill="#5C5C5C"/>
<path d="M60.2781 26.8619L50.2617 33.8345H62.5945C65.1254 33.8345 66.7555 31.236 66.0262 28.8432C65.5437 27.3383 64.1066 26.1689 62.4444 26.1689C61.7473 26.1689 61.0073 26.3855 60.2781 26.8619" fill="#5C5C5C"/>
<path d="M34.3799 33.8346H46.5304L36.514 26.862C34.1976 25.3787 31.5916 26.2449 30.6586 28.7026C29.865 31.5285 31.849 33.8346 34.3799 33.8346" fill="#5C5C5C"/>
<path fill-rule="evenodd" clip-rule="evenodd" d="M26.2073 0.0649414V19.6511L30.4863 19.6728L29.5318 28.0313H26.2288V33.8454H16.6092V28.1179L0.222656 28.0962V19.7594L15.4295 0.0649414H26.2073ZM11.1397 19.4347H16.4803V12.0723L11.1397 19.4347Z" fill="#5C5C5C"/>
<path d="M0.0947266 42.9294V36.0542H1.75697L6.5614 41.1971V36.0542H7.90192V42.9294H6.23967L1.57466 37.9273V42.9294" fill="#5C5C5C"/>
<path d="M8.86719 36.0542H15.7843V37.2993H10.2077V38.7068H14.0899L14.0684 39.9519H10.2077V41.7168H15.9666V42.9294H8.86719" fill="#5C5C5C"/>
<path d="M16.4805 36.0864L18.7004 42.9616H20.3948L21.864 37.9487L23.3976 42.9616H25.0598L27.2583 36.0864H25.7033L24.2233 41.0344L22.7005 36.0864H21.0597L19.5369 41.0344L17.9819 36.0864H16.4805Z" fill="#5C5C5C"/>
<path d="M29.9941 36.0864H31.8709L34.4983 39.0639L37.1793 36.0864H38.9488L35.1632 40.3631V42.9616H33.8012V40.2224L29.9941 36.0864Z" fill="#5C5C5C"/>
<path fill-rule="evenodd" clip-rule="evenodd" d="M40.3861 36.5194C41.9411 35.545 44.279 35.6533 45.834 36.5194C48.0646 38.0894 48.0324 40.9802 45.834 42.4743C44.3004 43.3946 41.8339 43.3946 40.3861 42.4743C38.1126 40.8286 38.1876 38.0894 40.3861 36.5194ZM41.061 41.3052C42.3479 42.0631 43.978 42.0414 45.0825 41.3052C46.2622 40.3307 46.4231 38.7067 45.0825 37.808C44.0637 36.9419 41.8975 36.9635 41.061 37.808C39.9349 38.7608 39.8277 40.19 41.061 41.3052Z" fill="#5C5C5C"/>
<path fill-rule="evenodd" clip-rule="evenodd" d="M54.4989 36.0542C57.0191 36.6497 56.8475 39.8653 54.767 40.3309L56.5043 42.9727H54.8635L53.0404 40.45L50.0162 40.4283V42.9619H48.6221V36.0542H54.4989ZM50.0908 39.0533H54.2196C55.0776 38.9017 55.1097 37.7324 54.2196 37.4292H50.0908V39.0533Z" fill="#5C5C5C"/>
<path d="M57.6846 36.0542H59.1538V39.2698L63.4006 36.0542H65.5668L62.0493 38.761L65.7813 42.9619H63.9797L60.9018 39.508L59.1645 40.8506V42.9619H57.6846V36.0542Z" fill="#5C5C5C"/>
</svg>
