<svg width="111" height="50" viewBox="0 0 111 50" fill="none" xmlns="http://www.w3.org/2000/svg">
<path fill-rule="evenodd" clip-rule="evenodd" d="M21.7311 14.4038C27.7123 14.4038 33.3389 18.8419 33.3389 26.3526C33.3389 29.751 32.1828 32.5442 30.3792 34.546L33.0769 37.5876L30.4717 39.8221L27.6661 36.7496C25.8933 37.7893 23.8122 38.3324 21.7157 38.3324C15.7345 38.3324 10.1387 33.8943 10.1387 26.3526C10.1541 18.8419 15.7499 14.4038 21.7311 14.4038ZM21.7311 34.6392C22.8873 34.6392 24.0743 34.4064 25.1379 33.8943L21.3766 29.6889L24.0126 27.4233L27.8048 31.6597C28.776 30.3252 29.3772 28.5872 29.3772 26.3526C29.3772 20.8127 25.585 18.066 21.7157 18.066C17.8927 18.066 14.0851 20.8127 14.0851 26.3526C14.1005 31.8925 17.9081 34.6392 21.7311 34.6392Z" fill="white"/>
<path fill-rule="evenodd" clip-rule="evenodd" d="M42.0024 38.3011C38.2719 38.3011 36.0829 35.5234 36.0829 32.0163V22.0693H39.8134V31.3335C39.8134 33.2733 40.7075 34.9337 42.9736 34.9337C45.1317 34.9337 46.2571 33.475 46.2571 31.4111V22.0693H49.9876V34.9647C49.9876 36.2527 50.0801 37.2614 50.1417 37.851H46.5654C46.5037 37.4941 46.442 36.7493 46.442 36.0975C45.6559 37.5252 43.8368 38.3011 42.0024 38.3011Z" fill="white"/>
<path fill-rule="evenodd" clip-rule="evenodd" d="M55.83 14.0776C57.1866 14.0776 58.2811 15.1794 58.2811 16.545C58.2811 17.9106 57.1866 18.9813 55.83 18.9813C54.5043 18.9813 53.4098 17.9106 53.4098 16.545C53.4098 15.1794 54.5043 14.0776 55.83 14.0776ZM53.9956 37.8511V22.0694H57.6953V37.8355H53.9956V37.8511Z" fill="white"/>
<path fill-rule="evenodd" clip-rule="evenodd" d="M61.7187 37.8514V14.4038H65.4492V37.8514H61.7187Z" fill="white"/>
<path fill-rule="evenodd" clip-rule="evenodd" d="M69.4727 37.8514V14.4038H73.2032V37.8514H69.4727Z" fill="white"/>
<path fill-rule="evenodd" clip-rule="evenodd" d="M87.1696 35.4771C86.8613 35.4771 86.5838 35.3064 86.4604 34.9961L85.7359 33.2736L83.9323 33.6926C83.5161 33.7857 83.0999 33.5219 83.0074 33.1029C82.9149 32.6839 83.177 32.2649 83.5932 32.1718L86.0288 31.6132C86.3988 31.5356 86.7688 31.7218 86.9075 32.0632L87.8787 34.3754C88.0482 34.7633 87.8633 35.2289 87.4625 35.384C87.37 35.4461 87.2775 35.4771 87.1696 35.4771Z" fill="white"/>
<path fill-rule="evenodd" clip-rule="evenodd" d="M83.8707 37.7427C83.7473 37.7427 83.624 37.7117 83.5161 37.6496C83.2695 37.5254 83.0999 37.2616 83.0999 36.9823L83.0074 32.9477C82.992 32.5132 83.3311 32.1562 83.7628 32.1562H83.7782C84.1944 32.1562 84.5335 32.4976 84.5489 32.9166L84.6106 35.5236L86.7533 34.0494C87.1079 33.8011 87.5858 33.8943 87.817 34.2512C88.0637 34.6081 87.9712 35.0891 87.6166 35.3219L84.3023 37.603C84.1636 37.6961 84.0248 37.7427 83.8707 37.7427Z" fill="white"/>
<path fill-rule="evenodd" clip-rule="evenodd" d="M95.3243 11.1294C95.833 11.1294 96.3571 11.2536 96.8504 11.5019C98.4999 12.3553 99.1473 14.3727 98.2995 16.0331L92.7345 26.9577L87.8016 29.2699L86.7841 23.8851L92.3491 12.9605C92.9349 11.7967 94.1065 11.1294 95.3243 11.1294ZM95.3243 9.57764C93.4899 9.57764 91.8096 10.6018 90.9771 12.2467L85.4122 23.1713C85.258 23.4817 85.2118 23.8231 85.2734 24.1645L86.2909 29.5492C86.3833 30.0147 86.6762 30.4182 87.1079 30.6354C87.3237 30.7441 87.5703 30.8061 87.817 30.8061C88.0328 30.8061 88.264 30.7596 88.4644 30.6665L93.3974 28.3543C93.7057 28.2146 93.9677 27.9664 94.1219 27.656L99.6868 16.7314C100.92 14.3261 99.9643 11.3467 97.5749 10.1208C96.8658 9.76385 96.0951 9.57764 95.3243 9.57764Z" fill="white"/>
<path fill-rule="evenodd" clip-rule="evenodd" d="M91.3472 23.078C91.2238 23.078 91.1005 23.0469 90.9926 22.9849C90.7768 22.8762 90.638 22.6745 90.5918 22.4417L89.5744 17.057C89.4973 16.638 89.7748 16.2346 90.191 16.157C90.6072 16.0794 91.008 16.3587 91.0851 16.7777L91.9175 21.1848L95.9564 19.2916C96.3417 19.1054 96.8042 19.2761 96.9738 19.664C97.1588 20.052 96.9892 20.5175 96.6038 20.6882L91.6709 23.0004C91.563 23.0469 91.4551 23.078 91.3472 23.078Z" fill="white"/>
<path fill-rule="evenodd" clip-rule="evenodd" d="M86.1984 33.1494C86.0751 33.1494 85.9672 33.1184 85.8438 33.0563C85.4585 32.8546 85.3197 32.389 85.5047 32.0166L94.3223 14.7141C94.5227 14.3262 94.9852 14.1865 95.3551 14.3727C95.7405 14.5745 95.8793 15.04 95.6943 15.4124L86.8767 32.7149C86.7533 32.9942 86.4913 33.1494 86.1984 33.1494Z" fill="white"/>
<path fill-rule="evenodd" clip-rule="evenodd" d="M83.8707 37.7427H77.3191C76.8875 37.7427 76.5483 37.4013 76.5483 36.9668C76.5483 36.5323 76.8875 36.1909 77.3191 36.1909H83.8707C84.3023 36.1909 84.6414 36.5323 84.6414 36.9668C84.6414 37.4013 84.3023 37.7427 83.8707 37.7427Z" fill="white"/>
</svg>
