<svg xmlns="http://www.w3.org/2000/svg" width="69" height="24" viewBox="0 0 69 24">
    <g fill="#FFF" fill-rule="evenodd">
        <path d="M8.967 3.796c4.573 0 8.874 3.436 8.874 9.251 0 2.631-.884 4.794-2.263 6.343l2.062 2.355-1.991 1.73-2.145-2.379c-1.355.805-2.946 1.226-4.548 1.226-4.572 0-8.85-3.436-8.85-9.275.012-5.815 4.29-9.25 8.861-9.25zm0 15.666c.884 0 1.792-.18 2.605-.576L8.696 15.63l2.015-1.754 2.9 3.28c.742-1.033 1.201-2.379 1.201-4.109 0-4.289-2.899-6.415-5.856-6.415-2.923 0-5.833 2.126-5.833 6.415.011 4.289 2.922 6.415 5.844 6.415zM24.463 22.298c-2.851 0-4.525-2.15-4.525-4.866v-7.7h2.852v7.172c0 1.501.683 2.787 2.416 2.787 1.65 0 2.51-1.13 2.51-2.727V9.73h2.851v9.984c0 .997.07 1.778.118 2.234h-2.734a9.686 9.686 0 0 1-.094-1.357c-.601 1.105-1.992 1.706-3.394 1.706zM35.033 3.544c1.037 0 1.874.853 1.874 1.91a1.869 1.869 0 0 1-1.874 1.886c-1.013 0-1.85-.828-1.85-1.886 0-1.057.837-1.91 1.85-1.91zM33.631 21.95V9.731h2.828v12.206h-2.828v.012zM39.535 21.95V3.795h2.851V21.95zM45.462 21.95V3.795h2.852V21.95zM58.99 20.111a.57.57 0 0 1-.542-.372l-.554-1.334-1.379.325a.593.593 0 0 1-.707-.457.605.605 0 0 1 .448-.72l1.862-.433a.586.586 0 0 1 .671.348l.743 1.79a.59.59 0 0 1-.318.781.383.383 0 0 1-.224.072z"/>
        <path d="M56.468 21.865a.54.54 0 0 1-.271-.072.59.59 0 0 1-.318-.516l-.07-3.124a.583.583 0 0 1 .577-.613h.011c.319 0 .578.265.59.589l.047 2.018 1.638-1.141a.568.568 0 0 1 .813.156.593.593 0 0 1-.153.83l-2.534 1.765a.57.57 0 0 1-.33.108zM65.223 1.261c.39 0 .79.097 1.167.289 1.26.66 1.756 2.222 1.108 3.508l-4.254 8.458-3.771 1.79-.778-4.17L62.95 2.68a2.537 2.537 0 0 1 2.274-1.418zm0-1.2A3.714 3.714 0 0 0 61.9 2.125l-4.254 8.458c-.117.24-.153.505-.106.77l.778 4.168a1.194 1.194 0 0 0 1.167.973c.165 0 .341-.036.495-.108l3.77-1.79c.236-.108.436-.3.554-.54l4.254-8.459c.943-1.862.212-4.168-1.614-5.117a3.792 3.792 0 0 0-1.72-.42z"/>
        <path d="M62.183 10.512a.54.54 0 0 1-.27-.072.59.59 0 0 1-.307-.42l-.778-4.17a.599.599 0 0 1 .471-.696.589.589 0 0 1 .684.48l.636 3.412 3.088-1.465a.573.573 0 0 1 .777.288c.142.3.012.66-.282.793l-3.771 1.79a.623.623 0 0 1-.248.06z"/>
        <path d="M58.247 18.31a.609.609 0 0 1-.53-.877l6.74-13.396a.586.586 0 0 1 .79-.265c.295.157.4.517.26.805l-6.741 13.396a.553.553 0 0 1-.519.336zM56.468 21.865H51.46a.59.59 0 0 1-.59-.6c0-.337.26-.601.59-.601h5.008c.33 0 .59.264.59.6 0 .337-.26.601-.59.601z"/>
    </g>
</svg>
