<svg xmlns="http://www.w3.org/2000/svg" width="92" height="32" viewBox="0 0 92 32">
    <g fill="#027360" fill-rule="evenodd">
        <path d="M11.957 5.062c6.096 0 11.83 4.581 11.83 12.334 0 3.508-1.178 6.391-3.016 8.458l2.75 3.14-2.656 2.306-2.86-3.172c-1.806 1.074-3.927 1.634-6.064 1.634-6.096 0-11.8-4.58-11.8-12.366.016-7.753 5.72-12.334 11.816-12.334zm0 20.888c1.178 0 2.388-.24 3.472-.769l-3.834-4.341 2.687-2.339 3.865 4.373c.99-1.377 1.603-3.171 1.603-5.478 0-5.719-3.865-8.554-7.81-8.554-3.896 0-7.776 2.835-7.776 8.554.015 5.719 3.896 8.554 7.793 8.554zM32.618 29.73c-3.803 0-6.034-2.867-6.034-6.487V12.975h3.803v9.563c0 2.002.91 3.716 3.22 3.716 2.2 0 3.347-1.505 3.347-3.636v-9.643h3.802v13.311c0 1.33.095 2.371.157 2.98h-3.645c-.063-.369-.125-1.138-.125-1.81-.802 1.473-2.656 2.274-4.525 2.274zM46.711 4.725c1.383 0 2.498 1.138 2.498 2.547a2.492 2.492 0 0 1-2.498 2.515c-1.351 0-2.467-1.105-2.467-2.515 0-1.41 1.116-2.547 2.467-2.547zm-1.87 24.54v-16.29h3.771V29.25h-3.77v.016zM52.713 29.266V5.062h3.802v24.204zM60.616 29.266V5.062h3.802v24.204zM78.653 26.815a.76.76 0 0 1-.723-.497l-.738-1.778-1.838.433a.79.79 0 0 1-.943-.609.806.806 0 0 1 .597-.961l2.482-.577a.781.781 0 0 1 .896.465l.99 2.387a.788.788 0 0 1-.424 1.04.51.51 0 0 1-.299.097z"/>
        <path d="M75.29 29.154a.719.719 0 0 1-.36-.096.788.788 0 0 1-.425-.69l-.094-4.164a.777.777 0 0 1 .77-.817h.015c.425 0 .77.352.786.785l.063 2.691 2.184-1.522a.757.757 0 0 1 1.084.208.79.79 0 0 1-.204 1.106l-3.378 2.354a.76.76 0 0 1-.44.145zM86.965 1.682c.518 0 1.052.128 1.555.384 1.681.881 2.341 2.964 1.477 4.678L84.325 18.02l-5.028 2.387-1.037-5.559 5.672-11.277a3.383 3.383 0 0 1 3.033-1.89zm0-1.602a4.951 4.951 0 0 0-4.431 2.755l-5.672 11.277c-.157.32-.204.673-.141 1.025l1.037 5.559a1.592 1.592 0 0 0 1.555 1.297c.22 0 .456-.048.66-.144L85 19.462c.314-.144.581-.4.738-.72l5.672-11.277c1.257-2.483.283-5.559-2.152-6.824a5.055 5.055 0 0 0-2.294-.56z"/>
        <path d="M82.911 14.016a.719.719 0 0 1-.361-.096.786.786 0 0 1-.409-.56L81.104 7.8a.798.798 0 0 1 .629-.93.785.785 0 0 1 .91.642l.85 4.549 4.116-1.954a.763.763 0 0 1 1.037.384c.188.4.015.881-.377 1.057l-5.028 2.387a.831.831 0 0 1-.33.08z"/>
        <path d="M77.663 24.412a.812.812 0 0 1-.707-1.17l8.987-17.86a.781.781 0 0 1 1.053-.352.812.812 0 0 1 .346 1.073l-8.987 17.86a.737.737 0 0 1-.692.45zM75.29 29.154h-6.677a.786.786 0 0 1-.785-.801c0-.449.345-.801.785-.801h6.678c.44 0 .785.352.785.8 0 .45-.345.802-.785.802z"/>
    </g>
</svg>
