<?xml version="1.0" encoding="UTF-8"?>
<svg width="150px" height="51px" viewBox="0 0 150 51" version="1.1" xmlns="http://www.w3.org/2000/svg" xmlns:xlink="http://www.w3.org/1999/xlink">
    <!-- Generator: Sketch 49.2 (51160) - http://www.bohemiancoding.com/sketch -->
    <title>Group 5</title>
    <desc>Created with Sketch.</desc>
    <defs></defs>
    <g id="00-Homepage" stroke="none" stroke-width="1" fill="none" fill-rule="evenodd">
        <g id="00_11-Signed-In-Footer" transform="translate(-69.000000, -75.000000)" fill="#666666">
            <g id="Group-5" transform="translate(69.000000, 75.000000)">
                <path d="M18.9873754,8 C28.7840532,8 38,15.5079365 38,28.2136752 C38,33.9627595 36.1063123,38.6880342 33.1521595,42.0744811 L37.5707641,47.2197802 L33.3036545,51 L28.7083056,45.8021978 C25.8046512,47.5610501 22.3960133,48.4798535 18.9621262,48.4798535 C9.1654485,48.4798535 0,40.971917 0,28.2136752 C0.0252491694,15.5079365 9.19069767,8 18.9873754,8 L18.9873754,8 Z M18.9873754,42.2319902 C20.8810631,42.2319902 22.8252492,41.8382173 24.5674419,40.971917 L18.4066445,33.8577534 L22.7242525,30.0250305 L28.9355482,37.1916972 C30.5262458,34.9340659 31.5109635,31.993895 31.5109635,28.2136752 C31.5109635,18.8418803 25.2996678,14.1953602 18.9621262,14.1953602 C12.7003322,14.1953602 6.46378738,18.8418803 6.46378738,28.2136752 C6.48903654,37.5854701 12.7255814,42.2319902 18.9873754,42.2319902 L18.9873754,42.2319902 Z" id="Shape"></path>
                <path d="M52.6842105,48 C46.5811404,48 43,43.3795411 43,37.5458891 L43,21 L49.1030702,21 L49.1030702,36.4101338 C49.1030702,39.6367113 50.5657895,42.3986616 54.2730263,42.3986616 C57.8037281,42.3986616 59.6447368,39.9722753 59.6447368,36.5391969 L59.6447368,21 L65.747807,21 L65.747807,42.4502868 C65.747807,44.5927342 65.8991228,46.2705545 66,47.251434 L60.1491228,47.251434 C60.0482456,46.6577438 59.9473684,45.418738 59.9473684,44.334608 C58.6611842,46.709369 55.685307,48 52.6842105,48 L52.6842105,48 Z" id="Shape"></path>
                <path d="M74.9746835,8 C77.2025316,8 79,9.8537859 79,12.151436 C79,14.4490862 77.2025316,16.2506527 74.9746835,16.2506527 C72.7974684,16.2506527 71,14.4490862 71,12.151436 C71,9.8537859 72.7974684,8 74.9746835,8 L74.9746835,8 Z M71.9620253,48 L71.9620253,21.4464752 L78.0379747,21.4464752 L78.0379747,47.9738903 L71.9620253,47.9738903 L71.9620253,48 Z" id="Shape"></path>
                <polygon id="Shape" points="85 47 85 8 91 8 91 47"></polygon>
                <polygon id="Shape" points="98 47 98 8 104 8 104 47"></polygon>
                <path d="M127.753042,44 C127.255038,44 126.806835,43.6921555 126.607633,43.1324382 L125.437325,40.0260074 L122.524003,40.7816257 C121.851698,40.9495409 121.179393,40.4737812 121.029992,39.7181629 C120.880591,38.9625445 121.303894,38.2069262 121.976199,38.039011 L125.910428,37.0315199 C126.508033,36.8915906 127.105637,37.227421 127.329739,37.84311 L128.89845,42.0130037 C129.172352,42.7126503 128.87355,43.5522262 128.226145,43.8320848 C128.076744,43.9440283 127.927343,44 127.753042,44 L127.753042,44 Z" id="Shape"></path>
                <path d="M122.396383,48 C122.197016,48 121.99765,47.95 121.823204,47.85 C121.424471,47.65 121.150342,47.225 121.150342,46.775 L121.000817,40.275 C120.975896,39.575 121.524154,39 122.221937,39 L122.246858,39 C122.91972,39 123.467978,39.55 123.492899,40.225 L123.592582,44.425 L127.056576,42.05 C127.629755,41.65 128.4023,41.8 128.776112,42.375 C129.174845,42.95 129.025321,43.725 128.452142,44.1 L123.094166,47.775 C122.869878,47.925 122.645591,48 122.396383,48 L122.396383,48 Z" id="Shape"></path>
                <path d="M141.818813,2.63157895 C142.66784,2.63157895 143.542595,2.84210526 144.365893,3.26315789 C147.118798,4.71052632 148.199377,8.13157895 146.784333,10.9473684 L137.496496,29.4736842 L129.26351,33.3947368 L127.565457,24.2631579 L136.853294,5.73684211 C137.830961,3.76315789 139.786295,2.63157895 141.818813,2.63157895 L141.818813,2.63157895 Z M141.818813,0 C138.757172,0 135.952811,1.73684211 134.563495,4.52631579 L125.275658,23.0526316 C125.018377,23.5789474 124.941193,24.1578947 125.044105,24.7368421 L126.742159,33.8684211 C126.896527,34.6578947 127.385361,35.3421053 128.105747,35.7105263 C128.46594,35.8947368 128.877589,36 129.289238,36 C129.649432,36 130.035353,35.9210526 130.369818,35.7631579 L138.602803,31.8421053 C139.117365,31.6052632 139.554742,31.1842105 139.812023,30.6578947 L149.09986,12.1315789 C151.158106,8.05263158 149.562965,3 145.575113,0.921052632 C144.391621,0.315789474 143.105217,0 141.818813,0 L141.818813,0 L141.818813,0 Z" id="Shape"></path>
                <path d="M134.86185,23 C134.664199,23 134.466547,22.9462888 134.293602,22.8388664 C133.947712,22.6508772 133.725354,22.3017544 133.651234,21.8989203 L132.020609,12.5800266 C131.897077,11.8549253 132.341793,11.1566797 133.008867,11.0224017 C133.675941,10.8881237 134.318308,11.3715245 134.441841,12.0966257 L135.775989,19.7236166 L142.249077,16.4472332 C142.866738,16.124966 143.607931,16.4203776 143.879702,17.0917676 C144.17618,17.7631577 143.904409,18.5688257 143.286748,18.8642373 L135.380685,22.865722 C135.20774,22.9462888 135.034795,23 134.86185,23 L134.86185,23 Z" id="Shape"></path>
                <path d="M126.272493,40 C126.069971,40 125.892765,39.9473366 125.690242,39.8420099 C125.057361,39.499698 124.829524,38.7097474 125.133307,38.0777869 L139.613635,8.71795622 C139.942734,8.05966405 140.702191,7.82267887 141.309758,8.13865911 C141.942639,8.48097104 142.170476,9.27092164 141.866693,9.90288212 L127.386365,39.2627128 C127.183843,39.7366831 126.753483,40 126.272493,40 L126.272493,40 Z" id="Shape"></path>
                <path d="M121.761905,48 L111.238095,48 C110.544762,48 110,47.34 110,46.5 C110,45.66 110.544762,45 111.238095,45 L121.761905,45 C122.455238,45 123,45.66 123,46.5 C123,47.34 122.455238,48 121.761905,48 L121.761905,48 Z" id="Shape"></path>
            </g>
        </g>
    </g>
</svg>