<svg width="147" height="26" viewBox="0 0 147 26" fill="none" xmlns="http://www.w3.org/2000/svg">
<mask id="mask0_3352_128138" style="mask-type:luminance" maskUnits="userSpaceOnUse" x="0" y="1" width="14" height="23">
<path fill-rule="evenodd" clip-rule="evenodd" d="M0.918945 1.42871H13.3839V23.9873H0.918945V1.42871Z" fill="white"/>
</mask>
<g mask="url(#mask0_3352_128138)">
<path fill-rule="evenodd" clip-rule="evenodd" d="M4.78683 8.08689C4.78683 9.0868 4.79709 10.0867 4.78065 11.0864C4.77565 11.3923 4.84797 11.5195 5.17746 11.5018C5.67907 11.4749 6.18488 11.5216 6.68582 11.4891C7.67312 11.4251 8.40416 11.0378 8.70263 10.0337C9.05105 8.86212 9.03698 7.67639 8.80097 6.49001C8.6027 5.49406 8.02707 4.84725 6.99389 4.73378C6.3913 4.66753 5.77834 4.70098 5.17115 4.66819C4.87716 4.65232 4.77565 4.74634 4.78065 5.0513C4.79722 6.06299 4.78683 7.07507 4.78683 8.08689V8.08689ZM0.918945 1.43334C2.9911 1.43797 5.06391 1.40782 7.13475 1.45926C8.48192 1.49272 9.77452 1.79781 10.8762 2.66323C11.7195 3.32552 12.2244 4.20377 12.4854 5.22458C12.9904 7.20047 13.013 9.17941 12.4024 11.1389C12.0582 12.2437 11.3974 13.1182 10.3745 13.6799C10.1613 13.7968 10.2033 13.9268 10.2563 14.091C10.748 15.615 11.2417 17.1383 11.7298 18.6633C12.265 20.3358 12.7956 22.0101 13.3264 23.6841C13.3508 23.7614 13.3587 23.8441 13.384 23.9739H12.5124C11.59 23.9739 10.6677 23.9655 9.74546 23.9795C9.50971 23.9831 9.40821 23.8968 9.34589 23.6796C8.85138 21.9585 8.34807 20.24 7.84923 18.5201C7.50317 17.3275 7.16039 16.134 6.81394 14.9415C6.78777 14.8511 6.7432 14.7662 6.72453 14.7212C6.18519 14.7212 5.67425 14.7368 5.16502 14.7152C4.86327 14.7024 4.78004 14.8091 4.7811 15.1058C4.79069 17.8888 4.78675 20.6719 4.78662 23.455C4.78649 23.9735 4.78622 23.9724 4.2603 23.9742C3.14651 23.9778 2.03273 23.9829 0.918945 23.9873V1.43334Z" fill="#C9C9C9"/>
</g>
<path fill-rule="evenodd" clip-rule="evenodd" d="M78.409 7.49208C79.2505 7.74322 80.0112 7.3523 80.803 7.20947L78.409 7.49208ZM76.5345 18.1037C76.6391 17.3491 76.7344 16.6618 76.8419 15.8853C76.2238 16.3545 75.7032 16.7496 75.1348 17.1813C75.6011 17.4886 76.0227 17.7665 76.5345 18.1037V18.1037ZM82.1218 16.4936C82.9292 14.8401 83.5186 13.2133 83.3614 11.3822C83.2849 10.491 83.1108 9.63843 82.7086 8.84601C82.3473 8.13426 82.4615 8.12329 81.5711 8.32232C81.1986 8.40563 80.7864 8.52042 80.5082 8.75807C80.2466 8.9817 79.9922 9.11699 79.6757 9.16989C79.4202 9.21273 79.1613 9.23416 78.8915 9.26656C78.9473 9.86735 78.9967 10.4574 79.0586 11.0462C79.092 11.3636 79.1963 11.6808 79.1824 11.9943C79.1496 12.7308 79.4623 13.3042 79.9154 13.8362C80.2153 14.1885 80.4955 14.558 80.7914 14.914C81.2165 15.4254 81.6479 15.9315 82.1218 16.4936V16.4936ZM74.6664 0.468656C74.6664 0.703526 74.6559 0.919881 74.6681 1.13478C74.7356 2.31548 74.8199 3.49551 74.8726 4.67687C74.8872 5.00365 74.936 5.22252 75.3233 5.19382C75.3829 5.18946 75.4702 5.23363 75.5061 5.28335C75.8816 5.80625 76.4539 5.96455 77.0235 6.13528C77.1046 6.15948 77.2336 6.24584 77.2285 6.29041C77.218 6.38152 77.1502 6.50927 77.0728 6.54167C76.7818 6.66334 76.4776 6.75274 76.1706 6.85695C76.1631 6.9605 76.1524 7.1069 76.1398 7.2808C76.2255 7.24417 76.3018 7.22063 76.369 7.18161C76.8102 6.92585 77.2394 6.84862 77.6795 7.20119C77.7668 7.27128 77.9284 7.27829 78.0513 7.26678C78.3442 7.23967 78.6334 7.17262 78.926 7.14194C79.9022 7.03958 80.8793 6.94595 81.8557 6.84901C81.5633 3.71967 77.4425 0.0512867 74.6664 0.468656V0.468656ZM78.3959 25.7223C78.1373 25.4225 78.0073 25.0823 78.0283 24.6771C78.0834 23.6156 78.017 22.5662 77.6684 21.5509C77.6454 21.484 77.6094 21.4217 77.5618 21.3194C77.4414 21.4178 77.3112 21.4885 77.2299 21.5966C76.849 22.1032 76.2817 21.9643 75.7761 22.024C75.7238 22.0302 75.6017 21.8662 75.601 21.7804C75.6002 21.6738 75.6851 21.4778 75.7448 21.4732C76.2858 21.4314 76.3572 20.9877 76.4441 20.6134C76.4792 20.4616 76.3361 20.1946 76.1941 20.0879C75.6837 19.7044 75.1549 19.3399 74.6028 19.0209C74.1797 18.7765 73.7145 18.6041 73.2621 18.4135C72.7635 18.2035 72.5408 17.5551 72.8351 17.0932C73.2884 16.3822 73.7152 15.6489 74.2289 14.9844C74.5255 14.6007 75.0047 14.3652 75.3387 14.004C75.6119 13.7087 75.9313 13.3427 75.974 12.9775C76.0187 12.5965 75.8403 12.1207 75.6109 11.7906C75.1983 11.1974 74.7009 10.6553 74.1842 10.1481C73.9936 9.96113 73.6513 9.92463 73.3733 9.8351C72.531 9.56399 71.6836 9.30863 70.8435 9.03064C70.4117 8.88782 70.4059 8.55601 70.669 8.19895C71.0263 7.714 71.4524 7.6086 72.0121 7.63068C72.6023 7.65396 73.1966 7.57263 73.9032 7.53018C73.5114 6.99564 73.151 6.50421 72.7589 5.96941C73.0675 5.77725 73.4168 5.55971 73.7207 5.37046C73.1581 5.30315 72.5885 5.23504 72.0152 5.16641C72.1808 4.49631 73.4663 4.58267 74.6037 4.99845C74.5175 3.39007 74.433 1.8096 74.3478 0.218671C75.3542 0.100311 76.4099 0.257552 77.4354 0.65363C78.4382 1.04085 79.3081 1.64627 80.0438 2.4129C81.1006 3.51452 81.8545 4.82018 82.3585 6.26736C82.5227 6.73908 82.876 6.92991 83.3112 6.67282C83.6733 6.45898 83.9718 6.58766 84.3831 6.65894C84.0111 6.82821 83.7705 7.09575 83.3688 6.94604C83.144 6.8622 82.976 6.94631 82.9919 7.27322C83.0192 7.83262 83.2068 8.33172 83.4377 8.82659C83.7584 9.51453 83.8954 10.2433 83.94 11.0012C84.0632 13.0979 83.4166 14.9745 82.3556 16.7356C82.283 16.8559 82.1351 16.9304 82.0903 16.9685C81.3132 16.0262 80.5868 15.1453 79.7883 14.1767C79.6926 15.3855 79.1322 16.2788 78.5565 17.1613C78.2501 17.6309 78.458 18.0352 78.6353 18.472C78.7839 18.838 78.9142 19.2251 78.9672 19.6147C79.1209 20.7462 79.2114 21.8864 79.3669 23.0178C79.4621 23.7095 79.6346 24.3904 79.7652 25.0774C79.813 25.3287 79.736 25.5477 79.5459 25.7223H78.3959Z" fill="#C9C9C9"/>
<path fill-rule="evenodd" clip-rule="evenodd" d="M59.1272 10.1997V23.9403H55.5729C55.5663 23.7989 55.555 23.6698 55.555 23.5409C55.5542 16.3262 55.5571 9.11149 55.5459 1.89692C55.5452 1.52796 55.6439 1.42851 56.0054 1.43829C56.9508 1.46382 57.8973 1.45681 58.8431 1.44107C59.1298 1.43618 59.2549 1.53523 59.3532 1.80938C60.5667 5.1933 61.7944 8.57206 63.02 11.9516C63.2521 12.5914 63.4903 13.229 63.7272 13.8671C63.7543 13.9397 63.7924 14.0083 63.8911 14.065V13.6461C63.8911 9.73159 63.8959 5.8171 63.8833 1.90274C63.8823 1.54422 63.9646 1.42732 64.3368 1.43763C65.3291 1.46501 66.3227 1.44689 67.359 1.44689C67.369 1.59567 67.3848 1.72223 67.3849 1.84865C67.386 9.08742 67.3835 16.3262 67.3935 23.565C67.394 23.908 67.2842 23.9875 66.9659 23.9805C66.0922 23.9613 65.2176 23.964 64.3436 23.98C64.0945 23.9844 63.9885 23.8936 63.9099 23.6661C63.0984 21.3176 62.2773 18.9724 61.4586 16.6264C60.7347 14.5512 60.0106 12.476 59.2855 10.4012C59.2597 10.3275 59.2216 10.2581 59.1893 10.1868C59.1686 10.1912 59.1478 10.1954 59.1272 10.1997" fill="#C9C9C9"/>
<path fill-rule="evenodd" clip-rule="evenodd" d="M35.3324 7.65829C35.3324 8.53694 35.3388 9.41558 35.3284 10.2941C35.3255 10.5381 35.3962 10.6422 35.6527 10.6316C36.047 10.6152 36.4425 10.6371 36.8371 10.6258C37.7971 10.5983 38.5413 10.1843 38.9523 9.29854C39.4935 8.13213 39.4068 6.94205 38.8805 5.80354C38.525 5.03426 37.8547 4.66926 37.0011 4.6727C36.5584 4.67455 36.115 4.68685 35.673 4.66833C35.4015 4.65696 35.3235 4.75839 35.3273 5.02249C35.3405 5.901 35.3323 6.77965 35.3324 7.65829M35.3323 17.3121C35.3323 18.3479 35.3383 19.3836 35.3279 20.4193C35.3254 20.6693 35.4068 20.7594 35.6577 20.752C36.1601 20.7373 36.6654 20.7771 37.1658 20.7418C38.3536 20.6581 39.2353 20.1915 39.5467 18.8381C39.7424 17.9867 39.7895 17.1347 39.66 16.2765C39.4632 14.9735 38.801 14.2115 37.5592 13.9691C36.9456 13.8493 36.301 13.8946 35.6715 13.8507C35.3975 13.8317 35.3242 13.9429 35.3273 14.205C35.3391 15.2406 35.3321 16.2764 35.3323 17.3121M40.7103 12.1173C41.0934 12.3827 41.5493 12.648 41.9463 12.9835C42.8755 13.7683 43.3493 14.8266 43.5085 16.0055C43.7154 17.5387 43.6599 19.0647 43.1161 20.5411C42.4185 22.4349 41.0546 23.5419 39.0912 23.813C37.9865 23.9655 36.856 23.9475 35.7364 23.9687C34.4675 23.9925 33.1977 23.9605 31.9287 23.9828C31.5669 23.9892 31.4692 23.892 31.4697 23.5238C31.4809 16.3094 31.478 9.09481 31.4788 1.88037C31.4788 1.7513 31.49 1.62236 31.4972 1.46975C31.6409 1.46115 31.7573 1.44819 31.8738 1.44819C33.9454 1.44687 36.0182 1.40349 38.0881 1.46274C39.4463 1.50162 40.7221 1.90153 41.7144 2.91375C42.5491 3.76528 42.9448 4.8337 43.0879 5.99985C43.146 6.47421 43.159 6.95612 43.1628 7.43498C43.1737 8.8204 42.8403 10.1008 41.8828 11.1389C41.5347 11.5164 41.0908 11.8047 40.7103 12.1173" fill="#C9C9C9"/>
<path fill-rule="evenodd" clip-rule="evenodd" d="M138.035 12.8712C138.035 15.4252 138.042 17.9793 138.027 20.5334C138.025 20.8894 138.134 20.9973 138.475 20.9699C139.021 20.926 139.575 20.9534 140.117 20.8805C140.842 20.7829 141.505 20.5046 141.747 19.7326C141.917 19.1928 142.07 18.6186 142.071 18.0595C142.077 14.3883 142.063 10.7165 141.999 7.04585C141.981 6.02438 141.547 5.20948 140.432 4.96323C140.041 4.87688 139.634 4.84104 139.233 4.82411C138.854 4.80824 138.336 4.70509 138.132 4.90346C137.933 5.09746 138.039 5.62354 138.038 6.00401C138.032 8.29306 138.035 10.5821 138.035 12.8712M134.128 24.191C134.12 24.0147 134.109 23.8856 134.109 23.7564C134.108 16.5171 134.111 9.27768 134.1 2.03839C134.099 1.66307 134.208 1.58028 134.563 1.58359C136.383 1.60105 138.204 1.5701 140.024 1.59933C141.248 1.6189 142.447 1.83063 143.503 2.50799C144.775 3.32461 145.443 4.56614 145.708 6.01331C145.864 6.8671 145.923 7.74852 145.93 8.6183C145.955 11.75 145.958 14.8822 145.932 18.0137C145.921 19.356 145.64 20.6548 144.927 21.8149C144.106 23.1498 142.845 23.8124 141.345 24.0418C139.564 24.3145 137.766 24.155 135.976 24.1893C135.369 24.2008 134.762 24.191 134.128 24.191" fill="#C9C9C9"/>
<path fill-rule="evenodd" clip-rule="evenodd" d="M95.586 24.1464V23.685C95.586 20.6858 95.5861 17.6864 95.5857 14.6872C95.5857 14.2167 95.5844 14.2156 95.1152 14.2152C94.0613 14.2146 93.0074 14.2265 91.9537 14.2082C91.6289 14.2027 91.5261 14.2945 91.5274 14.6306C91.5395 17.6661 91.5282 20.7014 91.5425 23.7367C91.5443 24.0984 91.456 24.2084 91.0871 24.2C89.975 24.1747 88.8619 24.1909 87.7148 24.1909V1.59154H88.2827C89.2408 1.59154 90.1989 1.60251 91.1566 1.58519C91.4554 1.57977 91.5416 1.67049 91.5404 1.97082C91.5301 4.75315 91.5412 7.53575 91.5261 10.3181C91.524 10.6849 91.6239 10.789 91.9873 10.7807C93.0407 10.7566 94.095 10.7587 95.1486 10.7799C95.4913 10.7868 95.5955 10.6918 95.5938 10.3387C95.5797 7.59248 95.586 4.84625 95.586 2.09989V1.59154H96.6258C97.4402 1.59154 98.2546 1.59947 99.0687 1.58717C99.3319 1.58307 99.4468 1.6365 99.4465 1.94106C99.4382 9.2404 99.44 16.5397 99.4405 23.8391C99.4405 24.025 99.4622 24.1971 99.1789 24.1942C98.0413 24.1831 96.9036 24.1882 95.766 24.1857C95.7209 24.1856 95.6761 24.1667 95.586 24.1464" fill="#C9C9C9"/>
<path fill-rule="evenodd" clip-rule="evenodd" d="M107.058 12.8775C107.058 14.949 107.042 17.0207 107.066 19.0919C107.076 19.9959 107.397 20.6996 108.139 20.8965C108.638 21.0291 109.195 21.008 109.718 20.9644C110.34 20.9128 110.743 20.5009 110.883 19.9038C111.005 19.3848 111.097 18.8451 111.1 18.3139C111.119 14.7731 111.112 11.2324 111.106 7.69147C111.106 7.26114 111.086 6.82698 111.027 6.40128C110.919 5.61772 110.599 4.9676 109.742 4.7962C109.419 4.73154 109.077 4.74053 108.745 4.74926C108.074 4.76658 107.528 5.02631 107.284 5.69336C107.163 6.02372 107.071 6.38633 107.068 6.73533C107.048 8.78251 107.058 10.8301 107.058 12.8775M114.964 12.8831C114.964 14.8709 114.975 16.8589 114.96 18.8467C114.95 20.0788 114.667 21.2394 113.95 22.2664C113.137 23.4318 111.986 24.066 110.63 24.321C109.98 24.4433 109.301 24.4956 108.64 24.4669C107.088 24.3994 105.658 23.9641 104.56 22.774C103.746 21.8928 103.247 20.824 103.221 19.6396C103.147 16.1381 103.155 12.6348 103.133 9.13224C103.128 8.34908 103.099 7.56433 103.139 6.78328C103.216 5.24473 103.656 3.8441 104.811 2.75043C105.648 1.95774 106.673 1.55611 107.783 1.3875C108.909 1.21624 110.036 1.25816 111.145 1.57661C113.175 2.15995 114.372 3.52327 114.807 5.5686C114.928 6.13673 114.951 6.73329 114.957 7.31729C114.975 9.17244 114.964 11.0279 114.964 12.8831" fill="#C9C9C9"/>
<path fill-rule="evenodd" clip-rule="evenodd" d="M19.8794 12.719C19.8794 14.6463 19.8762 16.5735 19.8828 18.5009C19.8838 18.7986 19.9071 19.1004 19.9607 19.3928C20.0924 20.1105 20.4709 20.6422 21.2144 20.7859C21.5784 20.8562 21.9652 20.836 22.3395 20.8156C23.0335 20.7778 23.6209 20.294 23.7758 19.6173C23.8631 19.2358 23.9232 18.8384 23.9245 18.4479C23.9356 14.9185 23.9341 11.3891 23.9277 7.8597C23.9266 7.29686 23.8971 6.73283 23.8542 6.17145C23.7874 5.29333 23.296 4.72044 22.4434 4.55738C22.131 4.4976 21.7961 4.50355 21.4777 4.5382C20.8594 4.60512 20.3491 4.89038 20.1283 5.50241C19.9931 5.8772 19.8949 6.28809 19.8903 6.68417C19.8667 8.6955 19.8794 10.7074 19.8794 12.719M27.7844 12.6874C27.7844 14.6863 27.7817 16.6852 27.7854 18.684C27.788 20.1372 27.3868 21.4579 26.4218 22.549C25.6814 23.3861 24.7059 23.8798 23.6211 24.1005C22.2618 24.3769 20.8922 24.3831 19.5631 23.9402C17.7463 23.3347 16.6064 22.0674 16.1835 20.1904C16.0453 19.5773 15.9659 18.9374 15.9626 18.3092C15.9427 14.5403 15.9369 10.7712 15.962 7.00226C15.9699 5.80014 16.1709 4.62262 16.8286 3.57087C17.5845 2.36227 18.6717 1.61587 20.0391 1.31779C20.7191 1.16954 21.431 1.08067 22.1245 1.10103C23.7487 1.14891 25.2501 1.57434 26.4047 2.83346C27.1481 3.64413 27.5914 4.61231 27.6958 5.69078C27.796 6.72759 27.7718 7.77762 27.7816 8.82211C27.7936 10.1105 27.7844 11.3989 27.7844 12.6874" fill="#C9C9C9"/>
<path fill-rule="evenodd" clip-rule="evenodd" d="M126.564 12.8904C126.564 10.9269 126.567 8.96344 126.56 6.99984C126.559 6.71432 126.534 6.42417 126.479 6.14447C126.334 5.40958 125.923 4.89501 125.161 4.77943C124.764 4.71912 124.342 4.70907 123.946 4.77347C123.313 4.87663 122.856 5.25697 122.7 5.90643C122.606 6.29814 122.521 6.70467 122.52 7.10471C122.507 10.9352 122.51 14.7659 122.515 18.5964C122.516 18.9183 122.518 19.2541 122.605 19.5584C122.701 19.8943 122.837 20.2541 123.06 20.5109C123.647 21.1849 124.444 21.0945 125.22 20.9774C125.709 20.9036 126.102 20.6274 126.285 20.1738C126.439 19.7944 126.546 19.3683 126.552 18.9613C126.578 16.9379 126.564 14.914 126.564 12.8904M118.658 12.8904C118.658 10.8066 118.622 8.72199 118.668 6.63911C118.71 4.75156 119.481 3.21089 121.082 2.15622C121.738 1.72378 122.489 1.5061 123.256 1.39276C124.468 1.2133 125.676 1.24756 126.857 1.63861C128.7 2.24919 129.833 3.51981 130.262 5.40631C130.402 6.01901 130.476 6.66 130.48 7.2887C130.499 11.0467 130.507 14.8051 130.479 18.563C130.47 19.7885 130.265 20.9852 129.583 22.059C128.759 23.3565 127.558 24.0418 126.098 24.3316C124.865 24.5762 123.636 24.5463 122.425 24.1931C120.444 23.6156 119.259 22.2727 118.814 20.2754C118.688 19.7094 118.67 19.1115 118.664 18.5277C118.646 16.6487 118.658 14.7695 118.658 12.8904" fill="#C9C9C9"/>
<path fill-rule="evenodd" clip-rule="evenodd" d="M51.3364 1.44854V23.9739H50.4651C49.5906 23.9738 48.7159 23.964 47.8419 23.9795C47.5676 23.9844 47.4997 23.8894 47.5 23.626C47.506 16.349 47.5047 9.07202 47.5058 1.79503C47.5058 1.63355 47.4604 1.44524 47.7338 1.44629C48.9187 1.45145 50.1037 1.44854 51.3364 1.44854" fill="#C9C9C9"/>
<path fill-rule="evenodd" clip-rule="evenodd" d="M78.4082 7.49208L80.8022 7.20947C80.0104 7.3523 79.2497 7.74322 78.4082 7.49208" fill="#C9C9C9"/>
</svg>
