<svg width="172" height="70" viewBox="0 0 172 70" fill="none" xmlns="http://www.w3.org/2000/svg">
<mask id="mask0_3352_128136" style="mask-type:luminance" maskUnits="userSpaceOnUse" x="13" y="23" width="14" height="23">
<path fill-rule="evenodd" clip-rule="evenodd" d="M13.9189 23.4287H26.3839V45.9873H13.9189V23.4287Z" fill="white"/>
</mask>
<g mask="url(#mask0_3352_128136)">
<path fill-rule="evenodd" clip-rule="evenodd" d="M17.7868 30.0869C17.7868 31.0868 17.7971 32.0867 17.7807 33.0864C17.7757 33.3923 17.848 33.5195 18.1775 33.5018C18.6791 33.4749 19.1849 33.5216 19.6858 33.4891C20.6731 33.4251 21.4042 33.0378 21.7026 32.0337C22.0511 30.8621 22.037 29.6764 21.801 28.49C21.6027 27.4941 21.0271 26.8472 19.9939 26.7338C19.3913 26.6675 18.7783 26.701 18.1712 26.6682C17.8772 26.6523 17.7757 26.7463 17.7807 27.0513C17.7972 28.063 17.7868 29.0751 17.7868 30.0869ZM13.9189 23.4333C15.9911 23.438 18.0639 23.4078 20.1348 23.4593C21.4819 23.4927 22.7745 23.7978 23.8762 24.6632C24.7195 25.3255 25.2244 26.2038 25.4854 27.2246C25.9904 29.2005 26.013 31.1794 25.4024 33.1389C25.0582 34.2437 24.3974 35.1182 23.3745 35.6799C23.1613 35.7968 23.2033 35.9268 23.2563 36.091C23.748 37.615 24.2417 39.1383 24.7298 40.6633C25.265 42.3358 25.7956 44.0101 26.3264 45.6841C26.3508 45.7614 26.3587 45.8441 26.384 45.9739H25.5124C24.59 45.9739 23.6677 45.9655 22.7455 45.9795C22.5097 45.9831 22.4082 45.8968 22.3459 45.6796C21.8514 43.9585 21.3481 42.24 20.8492 40.5201C20.5032 39.3275 20.1604 38.134 19.8139 36.9415C19.7878 36.8511 19.7432 36.7662 19.7245 36.7212C19.1852 36.7212 18.6743 36.7368 18.165 36.7152C17.8633 36.7024 17.78 36.8091 17.7811 37.1058C17.7907 39.8888 17.7867 42.6719 17.7866 45.455C17.7865 45.9735 17.7862 45.9724 17.2603 45.9742C16.1465 45.9778 15.0327 45.9829 13.9189 45.9873V23.4333Z" fill="#C9C9C9"/>
</g>
<path fill-rule="evenodd" clip-rule="evenodd" d="M91.409 29.4921C92.2505 29.7432 93.0112 29.3523 93.803 29.2095L91.409 29.4921ZM89.5345 40.1037C89.6391 39.3491 89.7344 38.6618 89.8419 37.8853C89.2238 38.3545 88.7032 38.7496 88.1348 39.1813C88.6011 39.4886 89.0227 39.7665 89.5345 40.1037ZM95.1218 38.4936C95.9292 36.8401 96.5186 35.2133 96.3614 33.3822C96.2849 32.491 96.1108 31.6384 95.7086 30.846C95.3473 30.1343 95.4615 30.1233 94.5711 30.3223C94.1986 30.4056 93.7864 30.5204 93.5082 30.7581C93.2466 30.9817 92.9922 31.117 92.6757 31.1699C92.4202 31.2127 92.1613 31.2342 91.8915 31.2666C91.9473 31.8674 91.9967 32.4574 92.0586 33.0462C92.092 33.3636 92.1963 33.6808 92.1824 33.9943C92.1496 34.7308 92.4623 35.3042 92.9154 35.8362C93.2153 36.1885 93.4955 36.558 93.7914 36.914C94.2165 37.4254 94.6479 37.9315 95.1218 38.4936ZM87.6664 22.4687C87.6664 22.7035 87.6559 22.9199 87.6681 23.1348C87.7356 24.3155 87.8199 25.4955 87.8726 26.6769C87.8872 27.0036 87.936 27.2225 88.3233 27.1938C88.3829 27.1895 88.4702 27.2336 88.5061 27.2833C88.8816 27.8063 89.4539 27.9646 90.0235 28.1353C90.1046 28.1595 90.2336 28.2458 90.2285 28.2904C90.218 28.3815 90.1502 28.5093 90.0728 28.5417C89.7818 28.6633 89.4776 28.7527 89.1706 28.8569C89.1631 28.9605 89.1524 29.1069 89.1398 29.2808C89.2255 29.2442 89.3018 29.2206 89.369 29.1816C89.8102 28.9258 90.2394 28.8486 90.6795 29.2012C90.7668 29.2713 90.9284 29.2783 91.0513 29.2668C91.3442 29.2397 91.6334 29.1726 91.926 29.1419C92.9022 29.0396 93.8793 28.946 94.8557 28.849C94.5633 25.7197 90.4425 22.0513 87.6664 22.4687ZM91.3959 47.7223C91.1373 47.4225 91.0073 47.0823 91.0283 46.6771C91.0834 45.6156 91.017 44.5662 90.6684 43.5509C90.6454 43.484 90.6094 43.4217 90.5618 43.3194C90.4414 43.4178 90.3112 43.4885 90.2299 43.5966C89.849 44.1032 89.2817 43.9643 88.7761 44.024C88.7238 44.0302 88.6017 43.8662 88.601 43.7804C88.6002 43.6738 88.6851 43.4778 88.7448 43.4732C89.2858 43.4314 89.3572 42.9877 89.4441 42.6134C89.4792 42.4616 89.3361 42.1946 89.1941 42.0879C88.6837 41.7044 88.1549 41.3399 87.6028 41.0209C87.1797 40.7765 86.7145 40.6041 86.2621 40.4135C85.7635 40.2035 85.5408 39.5551 85.8351 39.0932C86.2884 38.3822 86.7152 37.6489 87.2289 36.9844C87.5255 36.6007 88.0047 36.3652 88.3387 36.004C88.6119 35.7087 88.9313 35.3427 88.974 34.9775C89.0187 34.5965 88.8403 34.1207 88.6109 33.7906C88.1983 33.1974 87.7009 32.6553 87.1842 32.1481C86.9936 31.9611 86.6513 31.9246 86.3733 31.8351C85.531 31.564 84.6836 31.3086 83.8435 31.0306C83.4117 30.8878 83.4059 30.556 83.669 30.1989C84.0263 29.714 84.4524 29.6086 85.0121 29.6307C85.6023 29.654 86.1966 29.5726 86.9032 29.5302C86.5114 28.9956 86.151 28.5042 85.7589 27.9694C86.0675 27.7773 86.4168 27.5597 86.7207 27.3705C86.1581 27.3031 85.5885 27.235 85.0152 27.1664C85.1808 26.4963 86.4663 26.5827 87.6037 26.9985C87.5175 25.3901 87.433 23.8096 87.3478 22.2187C88.3542 22.1003 89.4099 22.2576 90.4354 22.6536C91.4382 23.0408 92.3081 23.6463 93.0438 24.4129C94.1006 25.5145 94.8545 26.8202 95.3585 28.2674C95.5227 28.7391 95.876 28.9299 96.3112 28.6728C96.6733 28.459 96.9718 28.5877 97.3831 28.6589C97.0111 28.8282 96.7705 29.0957 96.3688 28.946C96.144 28.8622 95.976 28.9463 95.9919 29.2732C96.0192 29.8326 96.2068 30.3317 96.4377 30.8266C96.7584 31.5145 96.8954 32.2433 96.94 33.0012C97.0632 35.0979 96.4166 36.9745 95.3556 38.7356C95.283 38.8559 95.1351 38.9304 95.0903 38.9685C94.3132 38.0262 93.5868 37.1453 92.7883 36.1767C92.6926 37.3855 92.1322 38.2788 91.5565 39.1613C91.2501 39.6309 91.458 40.0352 91.6353 40.472C91.7839 40.838 91.9142 41.2251 91.9672 41.6147C92.1209 42.7462 92.2114 43.8864 92.3669 45.0178C92.4621 45.7095 92.6346 46.3904 92.7652 47.0774C92.813 47.3287 92.736 47.5477 92.5459 47.7223H91.3959Z" fill="#C9C9C9"/>
<path fill-rule="evenodd" clip-rule="evenodd" d="M72.1272 32.1997V45.9403H68.5729C68.5663 45.7989 68.555 45.6698 68.555 45.5409C68.5542 38.3262 68.5571 31.1115 68.5459 23.8969C68.5452 23.528 68.6439 23.4285 69.0054 23.4383C69.9508 23.4638 70.8973 23.4568 71.8431 23.4411C72.1298 23.4362 72.2549 23.5352 72.3532 23.8094C73.5667 27.1933 74.7944 30.5721 76.02 33.9516C76.2521 34.5914 76.4903 35.229 76.7272 35.8671C76.7543 35.9397 76.7924 36.0083 76.8911 36.065V35.6461C76.8911 31.7316 76.8959 27.8171 76.8833 23.9027C76.8823 23.5442 76.9646 23.4273 77.3368 23.4376C78.3291 23.465 79.3227 23.4469 80.359 23.4469C80.369 23.5957 80.3848 23.7222 80.3849 23.8487C80.386 31.0874 80.3835 38.3262 80.3935 45.565C80.394 45.908 80.2842 45.9875 79.9659 45.9805C79.0922 45.9613 78.2176 45.9639 77.3436 45.98C77.0945 45.9844 76.9885 45.8936 76.9099 45.6661C76.0984 43.3176 75.2773 40.9724 74.4586 38.6264C73.7347 36.5512 73.0106 34.476 72.2855 32.4012C72.2597 32.3275 72.2216 32.2581 72.1893 32.1868C72.1686 32.1912 72.1478 32.1954 72.1272 32.1997Z" fill="#C9C9C9"/>
<path fill-rule="evenodd" clip-rule="evenodd" d="M48.3324 29.6583C48.3324 30.5369 48.3388 31.4156 48.3284 32.2941C48.3255 32.5381 48.3962 32.6422 48.6527 32.6316C49.047 32.6152 49.4425 32.6371 49.8371 32.6258C50.7971 32.5983 51.5413 32.1843 51.9523 31.2985C52.4935 30.1321 52.4068 28.942 51.8805 27.8035C51.525 27.0343 50.8547 26.6693 50.0011 26.6727C49.5584 26.6745 49.115 26.6868 48.673 26.6683C48.4015 26.657 48.3235 26.7584 48.3273 27.0225C48.3405 27.901 48.3323 28.7796 48.3324 29.6583ZM48.3323 39.3121C48.3323 40.3479 48.3383 41.3836 48.3279 42.4193C48.3254 42.6693 48.4068 42.7594 48.6577 42.752C49.1601 42.7373 49.6654 42.7771 50.1658 42.7418C51.3536 42.6581 52.2353 42.1915 52.5467 40.8381C52.7424 39.9867 52.7895 39.1347 52.66 38.2765C52.4632 36.9735 51.801 36.2115 50.5592 35.9691C49.9456 35.8493 49.301 35.8946 48.6715 35.8507C48.3975 35.8317 48.3242 35.9429 48.3273 36.205C48.3391 37.2406 48.3321 38.2764 48.3323 39.3121ZM53.7103 34.1173C54.0934 34.3827 54.5493 34.648 54.9463 34.9835C55.8755 35.7683 56.3493 36.8266 56.5085 38.0055C56.7154 39.5387 56.6599 41.0647 56.1161 42.5411C55.4185 44.4349 54.0546 45.5419 52.0912 45.813C50.9865 45.9655 49.856 45.9475 48.7364 45.9687C47.4675 45.9925 46.1977 45.9605 44.9287 45.9828C44.5669 45.9892 44.4692 45.892 44.4697 45.5238C44.4809 38.3094 44.478 31.0948 44.4788 23.8804C44.4788 23.7513 44.49 23.6224 44.4972 23.4697C44.6409 23.4612 44.7573 23.4482 44.8738 23.4482C46.9454 23.4469 49.0182 23.4035 51.0881 23.4627C52.4463 23.5016 53.7221 23.9015 54.7144 24.9137C55.5491 25.7653 55.9448 26.8337 56.0879 27.9998C56.146 28.4742 56.159 28.9561 56.1628 29.435C56.1737 30.8204 55.8403 32.1008 54.8828 33.1389C54.5347 33.5164 54.0908 33.8047 53.7103 34.1173Z" fill="#C9C9C9"/>
<path fill-rule="evenodd" clip-rule="evenodd" d="M151.035 34.8712C151.035 37.4252 151.042 39.9793 151.027 42.5334C151.025 42.8894 151.134 42.9973 151.475 42.9699C152.021 42.926 152.575 42.9534 153.117 42.8805C153.842 42.7829 154.505 42.5046 154.747 41.7326C154.917 41.1928 155.07 40.6186 155.071 40.0595C155.077 36.3883 155.063 32.7165 154.999 29.0458C154.981 28.0244 154.547 27.2095 153.432 26.9632C153.041 26.8769 152.634 26.841 152.233 26.8241C151.854 26.8082 151.336 26.7051 151.132 26.9035C150.933 27.0975 151.039 27.6235 151.038 28.004C151.032 30.2931 151.035 32.5821 151.035 34.8712ZM147.128 46.191C147.12 46.0147 147.109 45.8856 147.109 45.7564C147.108 38.5171 147.111 31.2777 147.1 24.0384C147.099 23.6631 147.208 23.5803 147.563 23.5836C149.383 23.601 151.204 23.5701 153.024 23.5993C154.248 23.6189 155.447 23.8306 156.503 24.508C157.775 25.3246 158.443 26.5661 158.708 28.0133C158.864 28.8671 158.923 29.7485 158.93 30.6183C158.955 33.75 158.958 36.8822 158.932 40.0137C158.921 41.356 158.64 42.6548 157.927 43.8149C157.106 45.1498 155.845 45.8124 154.345 46.0418C152.564 46.3145 150.766 46.155 148.976 46.1893C148.369 46.2008 147.762 46.191 147.128 46.191Z" fill="#C9C9C9"/>
<path fill-rule="evenodd" clip-rule="evenodd" d="M108.586 46.1464V45.685C108.586 42.6858 108.586 39.6864 108.586 36.6872C108.586 36.2167 108.584 36.2156 108.115 36.2152C107.061 36.2146 106.007 36.2265 104.954 36.2082C104.629 36.2027 104.526 36.2945 104.527 36.6306C104.54 39.6661 104.528 42.7014 104.543 45.7367C104.544 46.0984 104.456 46.2084 104.087 46.2C102.975 46.1747 101.862 46.1909 100.715 46.1909V23.5915H101.283C102.241 23.5915 103.199 23.6025 104.157 23.5852C104.455 23.5798 104.542 23.6705 104.54 23.9708C104.53 26.7531 104.541 29.5357 104.526 32.3181C104.524 32.6849 104.624 32.789 104.987 32.7807C106.041 32.7566 107.095 32.7587 108.149 32.7799C108.491 32.7868 108.595 32.6918 108.594 32.3387C108.58 29.5925 108.586 26.8463 108.586 24.0999V23.5915H109.626C110.44 23.5915 111.255 23.5995 112.069 23.5872C112.332 23.5831 112.447 23.6365 112.446 23.9411C112.438 31.2404 112.44 38.5397 112.441 45.8391C112.441 46.025 112.462 46.1971 112.179 46.1942C111.041 46.1831 109.904 46.1882 108.766 46.1857C108.721 46.1856 108.676 46.1667 108.586 46.1464Z" fill="#C9C9C9"/>
<path fill-rule="evenodd" clip-rule="evenodd" d="M120.058 34.8775C120.058 36.949 120.042 39.0207 120.066 41.0919C120.076 41.9959 120.397 42.6996 121.139 42.8965C121.638 43.0291 122.195 43.008 122.718 42.9644C123.34 42.9128 123.743 42.5009 123.883 41.9038C124.005 41.3848 124.097 40.8451 124.1 40.3139C124.119 36.7731 124.112 33.2324 124.106 29.6915C124.106 29.2611 124.086 28.827 124.027 28.4013C123.919 27.6177 123.599 26.9676 122.742 26.7962C122.419 26.7315 122.077 26.7405 121.745 26.7493C121.074 26.7666 120.528 27.0263 120.284 27.6934C120.163 28.0237 120.071 28.3863 120.068 28.7353C120.048 30.7825 120.058 32.8301 120.058 34.8775ZM127.964 34.8831C127.964 36.8709 127.975 38.8589 127.96 40.8467C127.95 42.0788 127.667 43.2394 126.95 44.2664C126.137 45.4318 124.986 46.066 123.63 46.321C122.98 46.4433 122.301 46.4956 121.64 46.4669C120.088 46.3994 118.658 45.9641 117.56 44.774C116.746 43.8928 116.247 42.824 116.221 41.6396C116.147 38.1381 116.155 34.6348 116.133 31.1322C116.128 30.3491 116.099 29.5643 116.139 28.7833C116.216 27.2447 116.656 25.8441 117.811 24.7504C118.648 23.9577 119.673 23.5561 120.783 23.3875C121.909 23.2162 123.036 23.2582 124.145 23.5766C126.175 24.1599 127.372 25.5233 127.807 27.5686C127.928 28.1367 127.951 28.7333 127.957 29.3173C127.975 31.1724 127.964 33.0279 127.964 34.8831Z" fill="#C9C9C9"/>
<path fill-rule="evenodd" clip-rule="evenodd" d="M32.8794 34.719C32.8794 36.6463 32.8762 38.5735 32.8828 40.5009C32.8838 40.7986 32.9071 41.1004 32.9607 41.3928C33.0924 42.1105 33.4709 42.6422 34.2144 42.7859C34.5784 42.8562 34.9652 42.836 35.3395 42.8156C36.0335 42.7778 36.6209 42.294 36.7758 41.6173C36.8631 41.2358 36.9232 40.8384 36.9245 40.4479C36.9356 36.9185 36.9341 33.3891 36.9277 29.8597C36.9266 29.2969 36.8971 28.7328 36.8542 28.1714C36.7874 27.2933 36.296 26.7204 35.4434 26.5574C35.131 26.4976 34.7961 26.5036 34.4777 26.5382C33.8594 26.6051 33.3491 26.8904 33.1283 27.5024C32.9931 27.8772 32.8949 28.2881 32.8903 28.6842C32.8667 30.6955 32.8794 32.7074 32.8794 34.719ZM40.7844 34.6874C40.7844 36.6863 40.7817 38.6852 40.7854 40.684C40.788 42.1372 40.3868 43.4578 39.4218 44.549C38.6814 45.3861 37.7059 45.8798 36.6211 46.1005C35.2618 46.3769 33.8922 46.3831 32.5631 45.9402C30.7463 45.3347 29.6064 44.0674 29.1835 42.1904C29.0453 41.5773 28.9659 40.9374 28.9626 40.3092C28.9427 36.5403 28.9369 32.7712 28.962 29.0023C28.9699 27.8001 29.1709 26.6226 29.8286 25.5709C30.5845 24.3623 31.6717 23.6159 33.0391 23.3178C33.7191 23.1695 34.431 23.0807 35.1245 23.101C36.7487 23.1489 38.2501 23.5743 39.4047 24.8335C40.1481 25.6441 40.5914 26.6123 40.6958 27.6908C40.796 28.7276 40.7718 29.7776 40.7816 30.8221C40.7936 32.1105 40.7844 33.3989 40.7844 34.6874Z" fill="#C9C9C9"/>
<path fill-rule="evenodd" clip-rule="evenodd" d="M139.564 34.8904C139.564 32.9269 139.567 30.9634 139.56 28.9998C139.559 28.7143 139.534 28.4242 139.479 28.1445C139.334 27.4096 138.923 26.895 138.161 26.7794C137.764 26.7191 137.342 26.7091 136.946 26.7735C136.313 26.8766 135.856 27.257 135.7 27.9064C135.606 28.2981 135.521 28.7047 135.52 29.1047C135.507 32.9352 135.51 36.7659 135.515 40.5964C135.516 40.9183 135.518 41.2541 135.605 41.5584C135.701 41.8943 135.837 42.2541 136.06 42.5109C136.647 43.1849 137.444 43.0945 138.22 42.9774C138.709 42.9036 139.102 42.6274 139.285 42.1738C139.439 41.7944 139.546 41.3683 139.552 40.9613C139.578 38.9379 139.564 36.914 139.564 34.8904ZM131.658 34.8904C131.658 32.8066 131.622 30.722 131.668 28.6391C131.71 26.7516 132.481 25.2109 134.082 24.1562C134.738 23.7238 135.489 23.5061 136.256 23.3928C137.468 23.2133 138.676 23.2476 139.857 23.6386C141.7 24.2492 142.833 25.5198 143.262 27.4063C143.402 28.019 143.476 28.66 143.48 29.2887C143.499 33.0467 143.507 36.8051 143.479 40.563C143.47 41.7885 143.265 42.9852 142.583 44.059C141.759 45.3565 140.558 46.0418 139.098 46.3316C137.865 46.5762 136.636 46.5463 135.425 46.1931C133.444 45.6156 132.259 44.2727 131.814 42.2754C131.688 41.7094 131.67 41.1115 131.664 40.5277C131.646 38.6487 131.658 36.7695 131.658 34.8904Z" fill="#C9C9C9"/>
<path fill-rule="evenodd" clip-rule="evenodd" d="M64.3364 23.4485V45.9739H63.4651C62.5906 45.9738 61.7159 45.964 60.8419 45.9795C60.5676 45.9844 60.4997 45.8894 60.5 45.626C60.506 38.349 60.5047 31.072 60.5058 23.795C60.5058 23.6336 60.4604 23.4452 60.7338 23.4463C61.9187 23.4515 63.1037 23.4485 64.3364 23.4485Z" fill="#C9C9C9"/>
<path fill-rule="evenodd" clip-rule="evenodd" d="M91.4082 29.4921L93.8022 29.2095C93.0104 29.3523 92.2497 29.7432 91.4082 29.4921Z" fill="#C9C9C9"/>
</svg>
