<svg width="25" height="20" viewBox="0 0 25 20" fill="none" xmlns="http://www.w3.org/2000/svg">
<g clip-path="url(#clip0_3719_155320)">
<path d="M22.4464 5.0286C22.4611 5.24135 22.4611 5.45409 22.4611 5.6688C22.4611 12.211 17.482 19.7561 8.37737 19.7561V19.7521C5.68784 19.7561 3.05418 18.9855 0.790039 17.5325C1.18112 17.5796 1.57416 17.6031 1.96818 17.6041C4.19704 17.6061 6.36219 16.858 8.11567 15.4806C5.99757 15.4404 4.14019 14.059 3.49133 12.0423C4.2333 12.1855 4.99782 12.1561 5.72607 11.957C3.41684 11.4904 1.75549 9.46096 1.75549 7.10409C1.75549 7.08252 1.75549 7.06194 1.75549 7.04135C2.44355 7.42468 3.21395 7.63743 4.00199 7.66096C1.82704 6.20703 1.15661 3.31292 2.47001 1.05017C4.98312 4.14331 8.69102 6.0237 12.6714 6.22272C12.2725 4.50311 12.8174 2.70115 14.1034 1.49233C16.097 -0.382182 19.2325 -0.286103 21.1066 1.70703C22.2151 1.48841 23.2776 1.08154 24.2499 0.505073C23.8804 1.65115 23.107 2.62468 22.074 3.24331C23.0551 3.12762 24.0137 2.86488 24.9164 2.4639C24.2519 3.45998 23.4148 4.32762 22.4464 5.0286Z" fill="#5C5C5C"/>
</g>
<defs>
<clipPath id="clip0_3719_155320">
<rect width="24.3077" height="20" fill="white" transform="translate(0.692383)"/>
</clipPath>
</defs>
</svg>
