<?xml version="1.0" encoding="UTF-8"?>
<svg width="323px" height="301px" viewBox="0 0 323 301" version="1.1" xmlns="http://www.w3.org/2000/svg" xmlns:xlink="http://www.w3.org/1999/xlink">
    <!-- Generator: Sketch 43.2 (39069) - http://www.bohemiancoding.com/sketch -->
    <title>Group 17</title>
    <desc>Created with Sketch.</desc>
    <defs></defs>
    <g id="01-Tools-Landing-Pages" stroke="none" stroke-width="1" fill="none" fill-rule="evenodd">
        <g id="01_05-Lessons-Page" transform="translate(-144.000000, -1056.000000)">
            <g id="Group-17" transform="translate(145.000000, 1056.000000)">
                <rect id="Rectangle-82" fill="#E9E9E9" x="186.776903" y="289.162921" width="6.76115486" height="10.991573"></rect>
                <polygon id="Rectangle-6" fill="#F5BA5B" transform="translate(146.266041, 216.053462) rotate(9.000000) translate(-146.266041, -216.053462) " points="143.308036 214.340469 149.224046 214.340469 148.146506 217.766455 143.825596 217.609609"></polygon>
                <path d="M145.521329,224.904494 C148.049055,224.904494 150.292814,224.267816 150.292814,221.486129 C150.292814,218.704441 148.243687,216.449438 145.715961,216.449438 C143.188235,216.449438 141.139108,218.704441 141.139108,221.486129 C141.139108,224.267816 142.993602,224.904494 145.521329,224.904494 Z" id="Oval-4" fill="#F5BA5B"></path>
                <path d="M98.0525417,258.198477 L100.518115,258.333081 L96.7363297,300.55599 L95.3605506,300.480881 L94.2707561,300.421386 L98.0525417,258.198477 Z" id="Rectangle-39" stroke="#E9E9E9" stroke-width="0.8448"></path>
                <path d="M96.9809651,278.476285 L133.654719,278.476285" id="Line" stroke="#E9E9E9" stroke-width="1.6896" stroke-linecap="square"></path>
                <path d="M130.996541,258.402754 L132.769931,258.218224 L137.238204,300.306592 L134.512849,300.306592 L130.996541,258.402754 Z" id="Rectangle-39-Copy" stroke="#E9E9E9" stroke-width="0.8448"></path>
                <path d="M100.660807,194.897907 C100.802608,193.692264 101.905341,192.571344 103.105293,192.421805 C103.29806,192.391901 103.647521,192.342247 104.152582,192.278195 C104.996518,192.171166 105.968013,192.064071 107.053018,191.964076 C110.154765,191.678217 113.542337,191.50667 117.103202,191.50667 C120.663944,191.50667 124.010063,191.676978 127.042852,191.960756 C128.10359,192.060009 129.049092,192.166303 129.867034,192.272523 C130.356386,192.336071 130.693572,192.385316 130.86627,192.413139 C132.072564,192.573723 133.186588,193.701111 133.334033,194.900121 L138.114588,233.77516 C138.252146,234.893772 137.497678,235.650732 136.37453,235.520432 C136.314219,235.512044 136.180648,235.494395 135.985982,235.469771 C135.662432,235.428846 135.284396,235.383274 134.855173,235.33422 C133.629811,235.194178 132.239359,235.054179 130.710211,234.923535 C126.341764,234.550313 121.735837,234.326385 117.103222,234.326385 C112.470592,234.326385 107.863133,234.550651 103.492137,234.924436 C101.9621,235.055277 100.570695,235.195487 99.3443812,235.33574 C98.9148255,235.384867 98.5364799,235.430508 98.212653,235.471495 C98.0178203,235.496155 97.884131,235.513831 97.8148945,235.523356 C96.7146289,235.65553 95.9568811,234.892184 96.0885202,233.772946 L100.660807,194.897907 Z" id="Rectangle-41" stroke="#E1E1E1" stroke-width="0.8448"></path>
                <rect id="Rectangle" stroke="#F3F3F3" stroke-width="4.224" x="74.7944147" y="15.6400899" width="243.17225" height="154.608392"></rect>
                <rect id="Rectangle-3" fill="#E9E9E9" x="70.992126" y="0" width="251.007874" height="13.5368516"></rect>
                <rect id="Rectangle-67" fill="#FFFFFF" x="81.9790026" y="21.9831461" width="229.338129" height="142.58817"></rect>
                <ellipse id="Oval-13" stroke="#E1E1E1" stroke-width="0.8448" cx="20.2834646" cy="87.0870787" rx="20.2834646" ry="20.2921348"></ellipse>
                <polyline id="Path-15" stroke="#E1E1E1" stroke-width="0.8448" stroke-linecap="round" stroke-linejoin="round" transform="translate(15.635171, 81.168539) scale(-1, 1) translate(-15.635171, -81.168539) " points="10.1417323 72.7134831 10.1417323 89.6235955 21.1286089 83.1687706"></polyline>
                <path d="M43.5578026,242.076501 C44.3165493,243.966914 44.736308,246.046633 44.736308,248.230147 C44.736308,256.927334 38.5405523,263.40617 30.3255703,263.40617 C29.3005462,263.40617 28.2764908,263.40617 26.8783438,263.40617 C25.4801969,263.40617 24.5040704,263.376842 23.8608811,262.571728 C23.2829091,261.84825 23.0471223,260.701883 22.7881665,259.565549 C22.5299682,258.43254 22.2487364,257.309507 21.5823137,256.625584 C20.0240006,255.02635 18.2321771,255.214146 16.736556,254.736683 C16.7240512,254.736795 16.7115181,254.736851 16.6989566,254.736851 C11.7201796,254.736851 7.57547738,244.926648 6.13444828,236.993963 C4.87040416,230.035557 9.46192419,226.820096 12.7645341,224.584309 C12.2420405,221.858663 11.80114,219.384925 13.378931,217.748885 C14.1263932,216.973828 15.4379435,216.281461 17.0186374,215.692849 C16.8691685,214.128914 16.7902012,212.500338 16.7902012,210.827457 C16.7902012,205.84841 18.7125052,203.989463 20.3610831,198.861007 C22.0096611,193.73255 22.8990469,189.172417 25.8050744,189.172417 C29.7541275,189.172417 33.1101116,195.272019 34.3293755,203.763148 C35.6310471,204.361938 37.1477208,206.479845 38.4219277,207.378218 C39.9137584,208.430024 42.5427694,206.98602 43.5401084,208.842494 C45.4053879,212.314576 43.9647461,216.101671 44.7859963,221.821562 C44.929904,222.823859 45.1432644,223.885504 45.4560353,225.0152 C45.80032,226.258721 47.3124719,227.313061 47.3852103,228.617484 C47.6497126,233.360828 45.9055504,238.365665 43.5578026,242.076501 Z" id="Combined-Shape" stroke="#E9E9E9" stroke-width="0.8448"></path>
                <path d="M55.7911337,187.693505 C55.7529673,187.231373 56.1022954,186.856742 56.5697503,186.856742 L94.5820556,186.856742 C95.0502401,186.856742 95.461579,187.229866 95.5010937,187.693505 L98.0246902,217.303686 C98.0640765,217.765818 97.7275049,218.140449 97.2465194,218.140449 L59.1551638,218.140449 C58.6860057,218.140449 58.2748624,217.767325 58.2365715,217.303686 L55.7911337,187.693505 Z" id="Rectangle-66" fill="#00C2A2"></path>
                <path d="M58.3149606,218.985955 L109.868766,218.985955 L109.868766,219.831461 C109.868766,220.298421 109.483438,220.676966 109.016967,220.676966 L59.1667605,220.676966 C58.6963244,220.676966 58.3149606,220.301676 58.3149606,219.831461 L58.3149606,218.985955 Z" id="Rectangle-2" fill="#027360"></path>
                <rect id="Rectangle-70-Copy" fill="#004480" x="163.732633" y="296.545321" width="17.128259" height="3.60917323"></rect>
                <path d="M179.553962,225.195308 C177.926382,233.859277 172.170123,258.005049 172.170123,258.005049 L172.170123,294.235955 L161.782064,294.235955 L158.887139,258.005049 L159.748246,226.922707 C159.748246,226.922707 158.887139,224.174997 158.887139,222.351721 C158.887139,220.675792 159.61469,212.093404 159.732283,210.717189 L159.732283,209.685393 L196.041797,209.685393 C196.041797,209.685393 196.888295,224.082412 196.892873,224.898158 C197.480958,228.020228 197.91022,230.962564 197.91022,232.899614 C197.91022,239.048868 198.966014,258.606394 198.966014,258.606394 L196.183481,293.390449 L187.037238,293.390449 L187.037238,258.606394 C187.037238,258.606394 183.068317,238.208764 180.831178,225.206234 C180.406922,225.202834 179.980881,225.199183 179.553962,225.195308 Z" id="Combined-Shape" fill="#004886"></path>
                <path d="M178.672358,151.770711 L186.068863,154.437886" id="Line" stroke="#E9E9E9" stroke-width="0.8448" stroke-linecap="square"></path>
                <polygon id="Path-19" fill="#012B54" points="177.223596 232.514045 179.170604 224.058989 175.790026 231.436319"></polygon>
                <path d="M28.312336,263.316975 L28.312336,215.239205" id="Line" stroke="#E9E9E9" stroke-width="0.8448" stroke-linecap="round"></path>
                <path d="M16.2877945,229.362173 L28.2360307,241.315516" id="Path-20" stroke="#E9E9E9" stroke-width="0.8448" stroke-linecap="round"></path>
                <path d="M21.8850373,220.322456 L28.1534792,226.593578" id="Path-21" stroke="#E9E9E9" stroke-width="0.8448" stroke-linecap="round"></path>
                <path d="M28.3475503,223.601007 L38.5839682,213.360213" id="Line" stroke="#E9E9E9" stroke-width="0.8448" stroke-linecap="round"></path>
                <path d="M15.6848765,263.374647 L44.3207896,263.374647 L40.3804253,298.886589 L19.6567874,298.886589 L15.6848765,263.374647 Z" id="Rectangle-81" stroke="#E9E9E9" stroke-width="0.8448"></path>
                <rect id="Rectangle-70" fill="#004480" x="29.6347383" y="296.539229" width="17.0967732" height="3.6152654"></rect>
                <rect id="Rectangle-69" fill="#0056A0" x="30.5345685" y="224.233921" width="149.371808" height="72.305308"></rect>
                <rect id="Rectangle-71" fill="#004179" x="30.5345685" y="225.137737" width="149.371808" height="1"></rect>
                <rect id="Rectangle-79" stroke="#00447E" stroke-width="0.8448" x="38.8913826" y="234.248436" width="130.913205" height="53.1800935"></rect>
                <rect id="Rectangle-2" fill="#0072D5" x="28.7349081" y="221.522472" width="152.971129" height="3.6152654"></rect>
                <path d="M16.5084864,268.448034 L29.1293088,268.448034" id="Line" stroke="#E9E9E9" stroke-width="0.8448" stroke-linecap="square"></path>
                <path d="M17.4839239,272.675562 L25.6184383,272.675562" id="Line" stroke="#E9E9E9" stroke-width="0.8448" stroke-linecap="square"></path>
                <path d="M18.3396325,277.748596 L23.0724409,277.748596" id="Line" stroke="#E9E9E9" stroke-width="0.8448" stroke-linecap="square"></path>
                <path d="M103.481835,196.625003 L109.347641,196.950663" id="Line" stroke="#00C2A2" stroke-width="0.8448" stroke-linecap="round"></path>
                <path d="M106.569116,190.420686 L102.741773,194.160884" id="Line" stroke="#00C2A2" stroke-width="0.8448" stroke-linecap="round"></path>
                <path d="M186.627959,295.08803 C186.882802,295.18709 187.420502,296.784237 189.168986,296.784237 C190.91747,296.784237 193.523007,295.703175 193.523007,295.703175 C193.523007,295.703175 196.883102,296.200538 199.738368,296.492387 C202.593634,296.784237 200.905919,296.59699 200.905919,296.59699 C202.537764,296.635263 203.860636,297.990094 203.860636,299.628787 L203.860636,300.164417 C203.860636,300.625897 203.486166,301 203.019937,301 L186.772458,301 C186.308153,301 185.931759,300.627421 185.931759,300.159116 L185.931759,296.04302 C185.931759,296.04302 186.373116,294.98897 186.627959,295.08803 Z" id="Rectangle-59" fill="#014F92"></path>
                <text id="By-the-end-of-class," font-family="AdelleSans-Regular, Adelle Sans" font-size="7.3903104" font-weight="normal" fill="#000000">
                    <tspan x="98.9991147" y="50.4297753">By the end of class, I will be able to combine sentences by:</tspan>
                </text>
                <rect id="Rectangle-42" fill="#F7F7F7" x="98.0367454" y="65.3703248" width="194.383202" height="28.6468113" rx="0.6158592"></rect>
                <rect id="Rectangle-42-Copy" fill="#F7F7F7" x="98.0367454" y="99.024537" width="194.383202" height="28.6468113" rx="0.6158592"></rect>
                <text id="Using-a-time-order-j" font-family="AdelleSans-Regular, Adelle Sans" font-size="8" font-weight="normal">
                    <tspan x="105.723301" y="76.6442461" fill="#000000">Using a </tspan>
                    <tspan x="134.179301" y="76.6442461" font-family="AdelleSans-Bold, Adelle Sans" font-weight="bold" fill="#00C2A2">time order joining word</tspan>
                    <tspan x="219.083301" y="76.6442461" fill="#000000"> to show the order </tspan>
                    <tspan x="177.463301" y="88.6442461" fill="#000000">of events.</tspan>
                </text>
                <text id="Using-a-comma-to-sep" font-family="AdelleSans-Regular, Adelle Sans" font-size="8" font-weight="normal">
                    <tspan x="116.023963" y="116.8232" fill="#000000">Using a </tspan>
                    <tspan x="144.479963" y="116.8232" font-family="AdelleSans-Bold, Adelle Sans" font-weight="bold" fill="#00C2A2">comma</tspan>
                    <tspan x="171.655963" y="116.8232" fill="#000000"> to separate the two main ideas</tspan>
                </text>
                <path d="M229.306742,123.306782 L223.963255,129.2146 L227.487944,134.435393 L233.555065,128.226155 C235.840315,128.18475 237.680793,126.212525 237.680793,123.785651 C237.680793,121.427693 235.943358,119.498929 233.748639,119.353312 C234.142183,118.9312 234.566035,118.447899 235.018618,117.903874 C237.380285,115.065047 238.581247,114.018137 238.008266,113.483824 C237.435285,112.94951 236.439463,113.468839 233.770923,116.330498 C231.779145,118.466418 230.621807,119.936937 230.401147,120.767607 C229.803344,121.449851 229.405648,122.331034 229.306742,123.306782 Z" id="Combined-Shape" fill="#F5BA5B"></path>
                <path d="M181.797052,145.734069 C184.359521,143.830343 186.516721,140.518956 187.057203,136.458524 C187.168628,136.570474 187.288767,136.631483 187.414012,136.631483 C187.995667,136.631483 188.467192,135.315638 188.467192,133.692461 C188.467192,132.069284 187.995667,130.753439 187.414012,130.753439 C187.219642,130.753439 187.03757,130.900376 186.881282,131.156617 C185.774458,125.267104 181.796018,120.907303 177.057743,120.907303 C172.454939,120.907303 168.569142,125.021368 167.336132,130.655277 C167.159643,130.282821 166.939803,130.061904 166.701474,130.061904 C166.119819,130.061904 165.648294,131.377749 165.648294,133.000926 C165.648294,134.624103 166.119819,135.939948 166.701474,135.939948 C166.800867,135.939948 166.897044,135.901526 166.988202,135.829713 C167.412697,140.549404 170.023816,144.337276 173.020553,146.214196 L173.020553,152.191011 L181.797052,152.191011 L181.797052,145.734069 Z" id="Combined-Shape" fill="#F5BA5B"></path>
                <path d="M175.790026,147.278277 C175.790026,147.278277 176.731774,147.698749 177.902887,147.654324 C179.074,147.609899 180.015748,147.117978 180.015748,147.117978" id="Line" stroke="#F8A724" stroke-width="0.66" stroke-linecap="round"></path>
                <path d="M199.501829,173.349787 C198.411057,178.298521 196.478191,187.600081 195.656217,194.860575 C194.479461,205.254866 195.656217,210.788502 195.656217,210.788502 L158.004997,210.788502 L157.549241,201.192883 C157.549241,201.192883 157.670441,189.748626 157.549241,184.111028 C157.463251,180.111228 157.215858,177.202296 157.079373,175.849703 C155.89004,180.986801 154.828296,185.905794 154.546042,187.22126 L154.56742,187.219881 L150.248767,216.449438 L142.829396,214.467753 L145.901548,188.022696 L145.860682,188.024888 C145.860682,188.024888 147.97772,174.671067 150.75576,165.476001 C153.533801,156.280935 154.502479,156.562155 156.835659,154.511606 C157.747996,153.709785 160.689521,152.68616 163.363571,151.872895 C164.985476,151.046658 166.80753,150.524705 168.763868,150.386068 L173.061137,150.08154 C173.061137,150.08154 176.386765,152.922378 178.335112,152.922378 C180.28346,152.922378 184.741491,150.08154 184.741491,150.08154 C184.741491,150.08154 186.284036,149.835559 188.369173,149.639124 C190.346118,149.22578 194.887889,148.023126 199.799955,144.987553 C206.366662,140.929441 202.542491,143.008333 213.534883,134.900787 C224.527275,126.793241 226.300548,125.298968 226.300548,125.298968 C226.665459,125.007061 227.178889,125.070878 227.456094,125.453615 L231.530844,131.079616 C231.804123,131.456931 231.727183,131.988973 231.356174,132.271386 C231.356174,132.271386 211.066626,147.5708 204.760173,155.339055 C201.808271,158.975192 201.176116,165.132953 200.274015,169.873455 C200.28228,169.883593 200.286553,169.888737 200.286553,169.888737 C200.286553,169.888737 200.255524,170.019711 200.198346,170.265681 C199.980812,171.378273 199.752593,172.414703 199.501829,173.349787 Z" id="Combined-Shape" fill="#FDFDFD"></path>
                <path d="M175.652079,152.525763 C175.652079,152.525763 176.532459,152.39715 177.425862,152.483137 C178.319265,152.569124 179.135308,152.847445 179.29146,153.35827 C179.611887,154.406492 179.083581,154.961431 178.750023,155.261896 C178.416465,155.562362 177.149561,156.532058 176.252949,155.539623 C175.356337,154.547189 175.652079,152.525763 175.652079,152.525763 Z" id="Rectangle-78" fill="#5AAEF6" transform="translate(177.498090, 154.214683) rotate(42.000000) translate(-177.498090, -154.214683) "></path>
                <path d="M171.849564,148.808989 C171.849564,148.808989 174.702344,150.345676 177.747415,150.345676 C180.792487,150.345676 183.645267,148.808989 183.645267,148.808989 L185.128871,155.8639 L177.747415,152.970168 L170.676903,156.418539 L171.849564,148.808989 Z" id="Rectangle-77" fill="#FFFFFF"></path>
                <path d="M158.446674,170.059167 C158.473332,170.41417 158.493103,172.621241 158.281519,174.914568 C158.069936,177.207895 157.509706,180.762302 157.509706,180.762302 L157.11551,175.763273 C157.11551,175.763273 158.386921,169.263453 158.446674,170.059167 Z" id="Path-2" fill="#E9E9E9"></path>
                <path d="M207.194471,152.697696 C207.194471,152.697696 204.245639,154.228345 202.793648,155.665407 C201.341656,157.102469 201.39251,159.153577 200.990999,159.834974 C200.405882,160.827964 200.235444,162.45918 200.207643,163.874145 C200.179843,165.28911 200.718575,166.972252 200.718575,166.972252 L201.270581,164.529171 C201.270581,164.529171 202.005849,160.665446 202.793648,159.230585 C203.581446,157.795723 207.194471,152.697696 207.194471,152.697696 Z" id="Path-16" fill="#E9E9E9"></path>
                <path d="M185.945281,253.587016 L186.996302,259.436464 L186.996302,268.404756 C186.996302,268.404756 188.843652,266.037499 188.350997,262.444749 C188.187789,261.254536 188.909182,259.901831 188.83334,258.832589 C188.730252,257.379209 187.846077,256.050973 187.250431,255.259779 C186.301684,253.99956 185.945281,253.587016 185.945281,253.587016 Z" id="Path-3" fill="#013663"></path>
                <path d="M167.783552,135.873105 C168.230745,135.873105 168.183727,134.670389 168.183727,132.102109 C168.183727,129.53383 169.584008,126.825843 168.183727,126.825843 C167.897934,126.825843 167.60572,125.027096 167.349411,125.186984 C167.214482,125.271154 165.508696,125.741478 165.099201,127.130849 C164.689705,128.520221 165.648294,130.508107 165.648294,131.476124 C165.648294,134.044403 167.336359,135.873105 167.783552,135.873105 Z" id="Oval-5" fill="#005298"></path>
                <path d="M168.692948,129.730363 C168.946649,129.730363 171.207409,129.007813 171.761207,128.900677 C172.010791,128.852393 171.733915,129.672099 172.030997,129.730363 C172.32808,129.788626 173.314498,129.273143 173.43168,129.195035 C174.09085,128.755663 175.450989,126.179696 175.450989,124.538669 C175.450989,122.428763 175.672828,121.246006 173.43168,120.644774 C172.748506,120.4615 170.883923,119.851476 169.922236,120.006453 C168.960548,120.16143 167.431997,121.855829 167.230147,122.271664 C166.734417,123.29293 163.874236,125.695018 164.822668,125.695018 C166.855931,125.695018 166.320318,129.730363 168.692948,129.730363 Z" id="Oval-5-Copy" fill="#005298"></path>
                <path d="M176.883261,126.825843 C179.345577,126.825843 181.341679,125.228279 181.341679,123.257584 C181.341679,122.168898 182.161484,120.302727 181.341679,119.345107 C180.521873,118.387487 178.025586,118.641089 177.568732,118.495607 C177.111878,118.350124 173.129178,119.752051 172.701002,120.021364 C171.603981,120.711364 172.424844,121.286889 172.424844,123.257584 C172.424844,125.228279 174.420945,126.825843 176.883261,126.825843 Z" id="Oval-5-Copy-2" fill="#005298"></path>
                <path d="M182.034497,125.980337 C184.044151,125.980337 185.673297,124.350494 185.673297,122.339981 C185.673297,120.807754 185.847777,118.919587 184.50803,118.382483 C184.089827,118.214826 178.745002,119.904999 178.26692,119.904999 C176.257266,119.904999 178.395696,120.329468 178.395696,122.339981 C178.395696,124.350494 180.024842,125.980337 182.034497,125.980337 Z" id="Oval-5-Copy-3" fill="#005298"></path>
                <path d="M186.04246,134.841793 C186.461215,134.841793 187.388457,134.238604 187.994245,132.834241 C188.600033,131.429878 188.677259,130.174986 188.503168,129.583187 C188.375349,129.148684 188.691168,126.671321 188.503168,125.576723 C188.315168,124.482126 186.907259,124.293694 186.783625,124.117605 C186.419222,123.598598 185.678526,123.551483 184.615068,123.551483 C182.748026,123.551483 184.946163,126.570323 184.615068,128.423912 C184.283972,130.2775 185.342665,134.841793 186.04246,134.841793 Z" id="Oval-5-Copy-4" fill="#005298"></path>
                <path d="M177.143237,138.792954 C177.389533,139.091883 177.887737,139.324103 178.73684,139.381632 C180.227954,139.482659 182.035608,141.216395 182.172672,140.622704 C182.309737,140.029014 181.695973,138.005082 180.104182,137.637588 C178.778185,137.331457 177.584226,137.407585 177.143237,137.78473 C176.702248,137.407585 175.508289,137.331457 174.182291,137.637588 C172.590501,138.005082 171.976737,140.029014 172.113802,140.622704 C172.250866,141.216395 174.05852,139.482659 175.549634,139.381632 C176.398737,139.324103 176.896941,139.091883 177.143237,138.792954 Z" id="Combined-Shape" fill="#005298"></path>
                <path d="M172.011815,153.988932 L175.538903,152.191011 C175.538903,152.191011 175.947071,153.19738 175.936329,153.70492 C175.925586,154.212461 175.535163,154.177134 175.404138,154.719279 C175.273113,155.261424 175.936329,155.192839 175.936329,155.863125 C175.936329,156.533412 175.127312,156.835624 175.127312,156.835624 L172.011815,154.896002 L172.011815,153.988932 Z" id="Path-22-Copy" fill="#5AAEF6" transform="translate(173.974176, 154.513318) scale(-1, 1) translate(-173.974176, -154.513318) "></path>
                <path d="M178.786022,154.474222 L181.618855,152.676301 C181.618855,152.676301 182.270586,152.234975 182.270586,152.824999 C182.270586,153.415023 182.721278,153.68267 182.710535,154.19021 C182.699793,154.697751 182.30937,154.662425 182.178344,155.20457 C182.047319,155.746715 182.710535,155.678129 182.710535,156.348416 C182.710535,157.018702 182.008366,157.053715 181.857831,157.243587 C181.707296,157.43346 181.618855,157.725367 181.618855,157.725367 L178.786022,155.381292 L178.786022,154.474222 Z" id="Path-22-Copy" fill="#5AAEF6" transform="translate(180.748373, 155.121567) rotate(11.000000) translate(-180.748373, -155.121567) "></path>
            </g>
        </g>
    </g>
</svg>