<?xml version="1.0" encoding="UTF-8"?>
<svg width="469px" height="310px" viewBox="0 0 469 310" version="1.1" xmlns="http://www.w3.org/2000/svg" xmlns:xlink="http://www.w3.org/1999/xlink">
    <!-- Generator: Sketch 43.2 (39069) - http://www.bohemiancoding.com/sketch -->
    <title>Group 12</title>
    <desc>Created with Sketch.</desc>
    <defs>
        <path d="M35.7106599,2.36875513 C35.7106599,1.0605278 36.7709993,0 38.0846718,0 L433.296039,0 C434.607169,0 435.670051,1.06256319 435.670051,2.36875513 L435.670051,169.859008 L35.7106599,169.859008 L35.7106599,2.36875513 Z" id="path-1"></path>
        <filter x="-2.8%" y="-5.9%" width="105.5%" height="113.0%" filterUnits="objectBoundingBox" id="filter-2">
            <feMorphology radius="0.5" operator="dilate" in="SourceAlpha" result="shadowSpreadOuter1"></feMorphology>
            <feOffset dx="0" dy="1" in="shadowSpreadOuter1" result="shadowOffsetOuter1"></feOffset>
            <feGaussianBlur stdDeviation="3" in="shadowOffsetOuter1" result="shadowBlurOuter1"></feGaussianBlur>
            <feComposite in="shadowBlurOuter1" in2="SourceAlpha" operator="out" result="shadowBlurOuter1"></feComposite>
            <feColorMatrix values="0 0 0 0 0.91372549   0 0 0 0 0.91372549   0 0 0 0 0.91372549  0 0 0 1 0" type="matrix" in="shadowBlurOuter1"></feColorMatrix>
        </filter>
        <rect id="path-3" x="0" y="0" width="14.3017051" height="14.3345149" rx="1.584"></rect>
        <rect id="path-4" x="0" y="0" width="14.3017051" height="14.3345149" rx="1.584"></rect>
        <linearGradient x1="50%" y1="-33.1442967%" x2="50%" y2="63.1815884%" id="linearGradient-5">
            <stop stop-color="#FFFFFF" stop-opacity="0" offset="0%"></stop>
            <stop stop-color="#FFFFFF" stop-opacity="0" offset="35.6008021%"></stop>
            <stop stop-color="#F8F9F9" offset="45.6612723%"></stop>
            <stop stop-color="#F8F9F9" offset="64.2079879%"></stop>
            <stop stop-color="#F8F9F9" offset="100%"></stop>
        </linearGradient>
        <path d="M107.13198,0 L149.39822,0 L149.39822,1.30966057 C149.39822,2.03296614 148.816816,2.61932115 148.086928,2.61932115 L108.443272,2.61932115 C107.719065,2.61932115 107.13198,2.03800889 107.13198,1.30966057 L107.13198,0 Z" id="path-6"></path>
    </defs>
    <g id="01-Tools-Landing-Pages" stroke="none" stroke-width="1" fill="none" fill-rule="evenodd">
        <g id="01_05-Lessons-Page" transform="translate(-86.000000, -1771.000000)">
            <g id="Group-12" transform="translate(86.000000, 1777.000000)">
                <g id="Rectangle-14-Copy-2">
                    <use fill="black" fill-opacity="1" filter="url(#filter-2)" xlink:href="#path-1"></use>
                    <use fill="#FAFAFA" fill-rule="evenodd" xlink:href="#path-1"></use>
                    <path stroke="#E9E9E9" stroke-width="0.792" d="M435.274051,169.463008 L36.1066599,169.463008 L36.1066599,2.36875513 C36.1066599,1.27848697 36.9904512,0.396 38.0846718,0.396 L433.296039,0.396 C434.387904,0.396 435.274051,1.28070902 435.274051,2.36875513 L435.274051,169.463008 Z"></path>
                </g>
                <rect id="Rectangle" fill="#FFFFFF" x="48.4077834" y="11.9060052" width="374.565144" height="147.634465"></rect>
                <g id="Group-8" transform="translate(64.279188, 23.018277)">
                    <rect id="Rectangle-4" fill="#E8FCF8" x="0" y="20.6370757" width="340.441624" height="47.6240209"></rect>
                    <rect id="Rectangle-4-Copy" fill="#E8FCF8" x="0" y="70.6422977" width="340.441624" height="49.2114883"></rect>
                    <text id="Before-a-tsunami-is" font-family="AdelleSans-Bold, Adelle Sans" font-size="11.088" font-weight="bold" fill="#3B3B3B">
                        <tspan x="11.1099831" y="42.3681462">Before</tspan>
                        <tspan x="45.2277591" y="42.3681462" font-family="AdelleSans-Regular, Adelle Sans" font-weight="normal"> a tsunami is over and coastal towns can </tspan>
                        <tspan x="11.1099831" y="59.3681462" font-family="AdelleSans-Regular, Adelle Sans" font-weight="normal">remain flooded for weeks.</tspan>
                    </text>
                    <text id="Answers" font-family="AdelleSans-SemiBold, Adelle Sans" font-size="9.504" font-weight="500" fill="#969696">
                        <tspan x="11.1099831" y="10">Answers</tspan>
                    </text>
                    <text id="Select-to-Display" font-family="AdelleSans-SemiBold, Adelle Sans" font-size="9.504" font-weight="500" fill="#969696">
                        <tspan x="255.529611" y="10">Select to Display</tspan>
                    </text>
                    <polygon id="Path-4-Copy" fill="#C0C0C0" points="332.505922 7.14360313 338.439801 7.14360313 335.472862 10.3597883"></polygon>
                    <polygon id="Path-4-Copy-2" fill="#C0C0C0" points="53.962775 7.14360313 59.8966537 7.14360313 56.9297144 10.3597883"></polygon>
                    <text id="A-tsunami-is-over-bu" font-family="AdelleSans-Regular, Adelle Sans" font-size="11.088" font-weight="normal" fill="#3B3B3B">
                        <tspan x="11.1099831" y="91.5796345">A tsunami is over </tspan>
                        <tspan x="99.3815511" y="91.5796345" font-family="AdelleSans-Bold, Adelle Sans" font-weight="bold">but</tspan>
                        <tspan x="116.922767" y="91.5796345"> coastal towns can remain </tspan>
                        <tspan x="11.1099831" y="108.579634">flooded for weeks.</tspan>
                    </text>
                    <g id="Group-6" transform="translate(288.859560, 38.099217)">
                        <g id="Rectangle-36-Copy-15">
                            <use fill="#FFFFFF" fill-rule="evenodd" xlink:href="#path-3"></use>
                            <rect stroke="#00C2A2" stroke-width="0.792" x="0.396" y="0.396" width="13.5097051" height="13.5425149" rx="1.584"></rect>
                        </g>
                        <polyline id="Path-2-Copy-6" stroke="#00C2A2" stroke-width="0.792" points="3.17428088 7.22153903 5.85425924 9.91094535 10.9847538 4.76240209"></polyline>
                    </g>
                    <g id="Group-7" transform="translate(289.653130, 87.310705)">
                        <g id="Rectangle-36-Copy-18">
                            <use fill="#FFFFFF" fill-rule="evenodd" xlink:href="#path-4"></use>
                            <rect stroke="#00C2A2" stroke-width="0.792" x="0.396" y="0.396" width="13.5097051" height="13.5425149" rx="1.584"></rect>
                        </g>
                        <polyline id="Path-2-Copy-7" stroke="#00C2A2" stroke-width="0.792" points="3.17428088 7.22153903 5.85425924 9.91094535 10.9847538 4.76240209"></polyline>
                    </g>
                </g>
                <rect id="Rectangle-50" fill="#F8F9F9" x="0" y="147.634465" width="469" height="156.365535"></rect>
                <rect id="Rectangle-50" fill="url(#linearGradient-5)" x="15.8714044" y="132.140992" width="440.431472" height="111.122715"></rect>
                <g id="Group-11" transform="translate(107.925550, 145.253264)">
                    <g id="Group-2-Copy" transform="translate(25.394247, 0.000000)">
                        <g id="Group-4">
                            <g id="Group-10">
                                <g id="Group-9">
                                    <g id="Group-5">
                                        <path d="M0,2.37422494 C0,1.06297671 1.06092713,0 2.37058131,0 L203.957676,0 C205.266912,0 206.328257,1.06648837 206.328257,2.37059753 L206.328257,132.564128 C206.328257,133.873373 205.263565,134.934726 203.953692,134.934726 L183.941647,134.934726 L2.37607268,134.934726 C1.06380397,134.934726 0,133.869257 0,132.550129 L0,108.587642 L0,80.0569343 L0,2.37422494 Z" id="Rectangle" fill="#E9E9E9"></path>
                                        <path d="M99.9898477,3.17493473 L107.13198,3.17493473" id="Line" stroke="#C0C0C0" stroke-width="0.792" stroke-linecap="round"></path>
                                        <rect id="Rectangle-Copy-7" fill="#FFFFFF" x="5.17631695" y="5.25785369" width="195.837325" height="125.35431"></rect>
                                    </g>
                                </g>
                            </g>
                            <text id="Before-a-tsunami-is-Copy" font-family="AdelleSans-Bold, Adelle Sans" font-size="9.504" font-weight="bold" line-spacing="11.088" fill="#027360">
                                <tspan x="14.284264" y="67.9425587">Before</tspan>
                                <tspan x="43.613608" y="68.1516467" font-family="AdelleSans-Regular, Adelle Sans" font-weight="normal"> a tsunami is over and coastal </tspan>
                                <tspan x="14.3698" y="79.2396467" font-family="AdelleSans-Regular, Adelle Sans" font-weight="normal">towns can remain flooded for weeks.</tspan>
                            </text>
                            <text id="A-tsunami-is-over-bu" font-family="AdelleSans-Regular, Adelle Sans" font-size="9.504" font-weight="normal" line-spacing="11.088" fill="#027360">
                                <tspan x="14.284264" y="104.663396">A tsunami is over </tspan>
                                <tspan x="89.860072" y="104.454308" font-family="AdelleSans-Bold, Adelle Sans" font-weight="bold">but</tspan>
                                <tspan x="104.980936" y="104.663396"> coastal towns </tspan>
                                <tspan x="14.284264" y="115.751396">can remain flooded for weeks.</tspan>
                            </text>
                            <polygon id="Rectangle-2" fill="#DFFCF7" points="5.17631695 5.25785369 201.00934 5.2928792 201.00934 11.5268352 5.17631695 11.5268352"></polygon>
                        </g>
                        <text id="A-tsunami-is-over.-C" font-family="AdelleSans-Regular, Adelle Sans" font-size="8.712" font-weight="normal" line-spacing="10.296" fill="#3B3B3B">
                            <tspan x="14.284264" y="31.4308094">A tsunami is over.</tspan>
                            <tspan x="14.284264" y="41.7268094">Coastal towns can remain flooded for weeks.</tspan>
                        </text>
                    </g>
                    <g id="Group-2" transform="translate(0.000000, 138.109661)">
                        <path d="M0,0 L257.910321,0 L257.910321,7.1499395 C257.910321,8.02317404 257.193168,8.7310705 256.330204,8.7310705 L1.58011706,8.7310705 C0.707442505,8.7310705 0,8.01657035 0,7.1499395 L0,0 Z" id="Rectangle-32" fill="#E9E9E9"></path>
                        <path d="M0,7.14360313 L257.910321,7.14360313 L257.605843,8.09917014 C257.452738,8.57966917 256.912456,8.9691906 256.425004,8.9691906 L1.68816762,8.9691906 C1.18911325,8.9691906 0.625784395,8.59975574 0.42442159,8.13119983 L0,7.14360313 Z" id="Rectangle-3-Copy" fill="#C0C0C0"></path>
                        <g id="Rectangle-38">
                            <use fill="#C0C0C0" fill-rule="evenodd" xlink:href="#path-6"></use>
                            <path d=""></path>
                        </g>
                    </g>
                </g>
                <g id="Group" transform="translate(365.835871, 190.496084)" stroke="#3ADFBB" stroke-width="6.336">
                    <path d="M0.327779004,43.327506 L14.426087,29.2262939" id="Line" stroke-linecap="square"></path>
                    <path d="M0.327779004,57.6147122 L14.426087,43.5135002" id="Line" stroke-linecap="square" transform="translate(7.538917, 50.402089) scale(1, -1) translate(-7.538917, -50.402089) "></path>
                    <polyline id="Path-13" points="0 43.6553525 45.2335025 43.6553525 45.2335025 0"></polyline>
                </g>
            </g>
        </g>
    </g>
</svg>