<svg width="24" height="24" viewBox="0 0 24 24" fill="none" xmlns="http://www.w3.org/2000/svg">
<path fill-rule="evenodd" clip-rule="evenodd" d="M16 8C16 6.34315 14.6569 5 13 5C11.3431 5 10 6.34315 10 8C10 9.65685 11.3431 11 13 11C14.6569 11 16 9.65685 16 8ZM19 17V19H7V17C7 17 7 13 13 13C19 13 19 17 19 17ZM21 17C20.9528 15.4984 20.3042 14.0787 19.2 13.06C24 13.55 24 17 24 17V19H21V17ZM18 5C17.6979 5.00018 17.3976 5.04741 17.11 5.14C18.3083 6.85839 18.3083 9.14161 17.11 10.86C17.3976 10.9526 17.6979 10.9998 18 11C19.6569 11 21 9.65685 21 8C21 6.34315 19.6569 5 18 5ZM2.5 9H4.5V11.5H7V13.5H4.5V16H2.5V13.5H0V11.5H2.5V9Z" fill="#06806B"/>
</svg>
