<svg width="24" height="25" viewBox="0 0 24 25" fill="none" xmlns="http://www.w3.org/2000/svg">
<path fill-rule="evenodd" clip-rule="evenodd" d="M9.47551 14.5333C6.09596 15.1845 2 17.0192 2 20.0294V22.5H4.47059H19.5294H22V20.0294C22 17.0192 17.904 15.1845 14.5245 14.5333C13.5956 14.3543 12.7207 14.2647 12 14.2647C11.2793 14.2647 10.4044 14.3543 9.47551 14.5333ZM9.76976 11.9763C10.4412 12.3114 11.1986 12.5 12 12.5C12.8014 12.5 13.5588 12.3114 14.2302 11.9763C15.8722 11.1566 17 9.45999 17 7.5C17 4.73858 14.7614 2.5 12 2.5C9.23858 2.5 7 4.73858 7 7.5C7 9.45999 8.12775 11.1566 9.76976 11.9763ZM19.5294 20.0294C19.5294 19.6886 19.1721 18.8534 17.2178 17.9509C15.4599 17.1392 13.3132 16.7353 12 16.7353C10.6868 16.7353 8.54012 17.1392 6.78218 17.9509C4.82786 18.8534 4.47059 19.6886 4.47059 20.0294H19.5294ZM12 4.97059C10.603 4.97059 9.47059 6.10304 9.47059 7.5C9.47059 8.89696 10.603 10.0294 12 10.0294C13.397 10.0294 14.5294 8.89696 14.5294 7.5C14.5294 6.10304 13.397 4.97059 12 4.97059Z" fill="#06806B"/>
</svg>
