<svg width="24" height="24" viewBox="0 0 24 24" fill="none" xmlns="http://www.w3.org/2000/svg">
<path fill-rule="evenodd" clip-rule="evenodd" d="M8.5 8.5C8.5 6.567 10.067 5 12 5C13.933 5 15.5 6.567 15.5 8.5C15.5 10.433 13.933 12 12 12C10.067 12 8.5 10.433 8.5 8.5ZM13.5 8.5C13.5 7.67157 12.8284 7 12 7C11.1716 7 10.5 7.67157 10.5 8.5C10.5 9.32843 11.1716 10 12 10C12.8284 10 13.5 9.32843 13.5 8.5ZM5.5 8C4.11929 8 3 9.11929 3 10.5C3 11.44 3.53 12.25 4.29 12.68C4.65 12.88 5.06 13 5.5 13C5.94 13 6.35 12.88 6.71 12.68C7.08 12.47 7.39 12.17 7.62 11.81C6.89 10.86 6.5 9.7 6.5 8.5V8.22C6.2 8.08 5.86 8 5.5 8ZM17.5 8.22C17.8 8.08 18.14 8 18.5 8C19.8807 8 21 9.11929 21 10.5C21 11.44 20.47 12.25 19.71 12.68C19.35 12.88 18.94 13 18.5 13C18.06 13 17.65 12.88 17.29 12.68C17.1 12.58 16.94 12.45 16.78 12.3C16.63 12.15 16.5 12 16.38 11.81C17.11 10.86 17.5 9.7 17.5 8.5V8.22ZM12 14C9.66 14 5 15.17 5 17.5V19H19V17.5C19 15.17 14.34 14 12 14ZM0 17.5C0 15.76 2.78 14.78 4.71 14.55C3.69 15.22 3 16.06 3 17.07V19H0V17.5ZM19.29 14.55C20.31 15.22 21 16.06 21 17.07V19H24V17.5C24 15.76 21.22 14.78 19.29 14.55ZM16.23 17C15.24 16.5 13.53 16 12 16C10.47 16 8.76 16.5 7.77 17H16.23Z" fill="#06806B"/>
</svg>
