<svg width="24" height="25" viewBox="0 0 24 25" fill="none" xmlns="http://www.w3.org/2000/svg">
<path fill-rule="evenodd" clip-rule="evenodd" d="M19 4.5H14.82C14.4 3.34 13.3 2.5 12 2.5C10.7 2.5 9.6 3.34 9.18 4.5H5C3.89543 4.5 3 5.39543 3 6.5V20.5C3 21.6046 3.89543 22.5 5 22.5H19C20.1046 22.5 21 21.6046 21 20.5V6.5C21 5.39543 20.1046 4.5 19 4.5ZM12 4.5C12.5523 4.5 13 4.94772 13 5.5C13 6.05228 12.5523 6.5 12 6.5C11.4477 6.5 11 6.05228 11 5.5C11 4.94772 11.4477 4.5 12 4.5ZM17 6.5V8.5H7V6.5H5V20.5H19V6.5H17ZM17 10.5V12.5H7V10.5H17ZM17 16.5V14.5H7V16.5H17Z" fill="#06806B"/>
</svg>
