<svg width="24" height="25" viewBox="0 0 24 25" fill="none" xmlns="http://www.w3.org/2000/svg">
<path fill-rule="evenodd" clip-rule="evenodd" d="M8 21.5C8 22.0523 8.44772 22.5 9 22.5H9.5C9.75 22.5 10 22.4 10.2 22.21L13.9 18.5H20C21.1046 18.5 22 17.6046 22 16.5V4.5C22 3.39543 21.1046 2.5 20 2.5H4C2.9 2.5 2 3.39 2 4.5V16.5C2 17.6046 2.89543 18.5 4 18.5H8V21.5ZM10 19.58V16.5H4V4.5H20V16.5H13.08L10 19.58ZM8 14.5V13.5C8 12.17 10.67 11.5 12 11.5C13.33 11.5 16 12.17 16 13.5V14.5H8ZM14 8.5C14 7.39543 13.1046 6.5 12 6.5C10.8954 6.5 10 7.39543 10 8.5C10 9.60457 10.8954 10.5 12 10.5C13.1046 10.5 14 9.60457 14 8.5Z" fill="#06806B"/>
</svg>
