<svg width="24" height="25" viewBox="0 0 24 25" fill="none" xmlns="http://www.w3.org/2000/svg">
<path d="M18.4542 12.1078C18.1944 12.1078 17.9346 12.0212 17.5882 11.9346L16.549 11.5882L15.683 12.4542C15.7696 12.8872 15.8562 13.3202 15.8562 13.7532C15.8562 16.6111 13.518 18.9493 10.6601 18.9493C7.80229 18.9493 5.46405 16.6111 5.46405 13.7532C5.46405 10.8954 7.80229 8.55714 10.6601 8.55714C11.0931 8.55714 11.6127 8.64374 11.9592 8.73034L12.8252 7.86433L12.4788 6.82511C12.3922 6.39211 12.3922 5.8725 12.4788 5.35289C11.8725 5.26629 11.2663 5.17969 10.6601 5.17969C5.89706 5.17969 2 9.07675 2 13.8398C2 18.6029 5.89706 22.4999 10.6601 22.4999C15.4232 22.4999 19.3203 18.6029 19.3203 13.8398C19.3203 13.2336 19.2337 12.6274 19.1471 12.0212C18.8873 12.1078 18.7141 12.1078 18.4542 12.1078Z" fill="#06806B"/>
<path d="M21.9185 6.73817C21.8319 6.47836 21.6587 6.21856 21.3123 6.13196L20.0133 5.69895L20.7927 4.91954C21.1391 4.57313 21.1391 4.05353 20.7927 3.70712C20.4463 3.36072 19.9267 3.36072 19.5803 3.70712L18.8009 4.48653L18.3679 3.18751C18.2813 2.92771 18.0215 2.6679 17.7616 2.5813C17.5018 2.4947 17.1554 2.5813 16.9822 2.84111L14.3842 5.43915C14.1244 5.69895 14.0378 6.04536 14.211 6.30516L14.9038 8.38359L12.3924 10.895C11.8728 10.5486 11.2666 10.3754 10.6603 10.3754C8.75511 10.3754 7.19629 11.9342 7.19629 13.8395C7.19629 15.7447 8.75511 17.3035 10.6603 17.3035C12.5656 17.3035 14.1244 15.7447 14.1244 13.8395C14.1244 13.2333 13.9512 12.6271 13.6048 12.1074L16.0296 9.68261L18.1081 10.3754C18.1947 10.3754 18.2813 10.462 18.3679 10.462C18.6277 10.462 18.8009 10.3754 18.9741 10.2022L21.5721 7.60418C21.9185 7.34438 22.0051 6.99797 21.9185 6.73817Z" fill="#06806B"/>
</svg>
