<svg width="24" height="25" viewBox="0 0 24 25" fill="none" xmlns="http://www.w3.org/2000/svg">
<path fill-rule="evenodd" clip-rule="evenodd" d="M17.39 10.1947C17.39 14.4444 13.9448 17.8895 9.69501 17.8895C5.44517 17.8895 2 14.4444 2 10.1947C2 5.94505 5.44517 2.5 9.69501 2.5C13.9448 2.5 17.39 5.94505 17.39 10.1947ZM5.2 10.1947C5.2 12.6771 7.21246 14.6895 9.69501 14.6895C12.1776 14.6895 14.19 12.6771 14.19 10.1947C14.19 7.71239 12.1776 5.7 9.69501 5.7C7.21246 5.7 5.2 7.71239 5.2 10.1947Z" fill="#06806B"/>
<path d="M13.6688 16.4306C13.044 15.8058 13.044 14.7927 13.6688 14.1679C14.2936 13.543 15.3067 13.543 15.9315 14.1678L21.3633 19.5994C21.9882 20.2242 21.9882 21.2373 21.3634 21.8621C20.7385 22.487 19.7255 22.487 19.1006 21.8622L13.6688 16.4306Z" fill="#06806B"/>
</svg>
