<svg width="24" height="25" viewBox="0 0 24 25" fill="none" xmlns="http://www.w3.org/2000/svg">
<path fill-rule="evenodd" clip-rule="evenodd" d="M20.5 3.4375V16.5625C20.5 16.8555 20.3633 17.1211 20.1523 17.2891C19.9883 17.8906 19.9883 19.6055 20.1523 20.207C20.3633 20.3789 20.5 20.6445 20.5 20.9375V21.5625C20.5 22.082 20.082 22.5 19.5625 22.5H6.75C4.67969 22.5 3 20.8203 3 18.75V6.25C3 4.17969 4.67969 2.5 6.75 2.5H19.5625C20.082 2.5 20.5 2.91797 20.5 3.4375ZM6.75 20H17.8984C17.8242 19.332 17.8242 18.168 17.8984 17.5H6.75C6.0625 17.5 5.5 18.0625 5.5 18.75C5.5 19.4414 6.05859 20 6.75 20ZM6 5C6 4.72386 6.22386 4.5 6.5 4.5C6.77614 4.5 7 4.72386 7 5V15C7 15.2761 6.77614 15.5 6.5 15.5C6.22386 15.5 6 15.2761 6 15V5ZM10.5 7.5C10.2239 7.5 10 7.72386 10 8C10 8.27614 10.2239 8.5 10.5 8.5H16.5C16.7761 8.5 17 8.27614 17 8C17 7.72386 16.7761 7.5 16.5 7.5H10.5Z" fill="#06806B"/>
</svg>
