<svg width="24" height="25" viewBox="0 0 24 25" fill="none" xmlns="http://www.w3.org/2000/svg">
<path fill-rule="evenodd" clip-rule="evenodd" d="M9.17071 7.5H4V14.9293L6.40304 12.183C6.78281 11.749 7.33146 11.5 7.90819 11.5H9.62132H17V9.5H12C10.6938 9.5 9.58254 8.66519 9.17071 7.5ZM19 11.5V9.5C19 8.39543 18.1046 7.5 17 7.5H12C11.4477 7.5 11 7.05228 11 6.5C11 5.94772 10.5523 5.5 10 5.5H4C2.89543 5.5 2 6.39543 2 7.5V17.5C2 18.6046 2.89543 19.5 4 19.5H4.40819H4.62132H17H17.0931H17.3787C17.7765 19.5 18.158 19.342 18.4393 19.0607L23.4393 14.0607C24.3843 13.1157 23.715 11.5 22.3787 11.5H20.5931H19Z" fill="#06806B"/>
</svg>
