<svg width="24" height="25" viewBox="0 0 24 25" fill="none" xmlns="http://www.w3.org/2000/svg">
<path fill-rule="evenodd" clip-rule="evenodd" d="M6 15.5C7.65685 15.5 9 14.1569 9 12.5C9 10.8431 7.65685 9.5 6 9.5C4.34315 9.5 3 10.8431 3 12.5C3 14.1569 4.34315 15.5 6 15.5ZM10.9 13.5C10.4367 15.7822 8.41896 17.5 6 17.5C3.58104 17.5 1.56329 15.7822 1.10002 13.5H0V11.5H1.10002C1.56329 9.21776 3.58104 7.5 6 7.5C8.41896 7.5 10.4367 9.21776 10.9 11.5H13.1C13.5633 9.21776 15.581 7.5 18 7.5C20.419 7.5 22.4367 9.21776 22.9 11.5H24V13.5H22.9C22.4367 15.7822 20.419 17.5 18 17.5C15.581 17.5 13.5633 15.7822 13.1 13.5H10.9ZM18 15.5C19.6569 15.5 21 14.1569 21 12.5C21 10.8431 19.6569 9.5 18 9.5C16.3431 9.5 15 10.8431 15 12.5C15 14.1569 16.3431 15.5 18 15.5Z" fill="#06806B"/>
</svg>
