<svg width="24" height="25" viewBox="0 0 24 25" fill="none" xmlns="http://www.w3.org/2000/svg">
<path d="M17.0299 12.7703C17.7006 12.7703 18.2754 13.0405 18.7545 13.4009C18.8503 13.491 18.9461 13.491 19.0419 13.491C19.1377 13.491 19.2335 13.491 19.3293 13.4009C19.521 13.2207 19.6168 13.1306 19.8084 13.0405C19.9042 12.9505 20 12.8604 20 12.7703V8.98649C20 8.26577 19.3293 7.63514 18.5629 7.63514H14.7305C14.6347 7.54505 14.6347 7.45495 14.5389 7.36486C15.018 6.82432 15.2096 6.19369 15.2096 5.47297C15.2096 3.85135 13.7725 2.5 12.0479 2.5C10.3234 2.5 8.88623 3.85135 8.88623 5.56306C8.88623 6.28378 9.17365 6.91441 9.55689 7.45496C9.46108 7.45496 9.46108 7.54505 9.36527 7.63514H5.53293C4.67066 7.63514 4.09581 8.26577 4.09581 8.98649V12.7703C4.09581 12.8604 4.19162 13.0405 4.28743 13.0405C4.47904 13.1306 4.67066 13.2207 4.76647 13.4009C4.86228 13.491 5.1497 13.491 5.24551 13.4009C5.72455 12.9505 6.2994 12.7703 6.97006 12.7703C8.31138 12.7703 9.46108 13.8514 9.46108 15.1126C9.46108 16.3739 8.31138 17.455 6.97006 17.455C6.2994 17.455 5.72455 17.1847 5.24551 16.8243C5.1497 16.7342 5.05389 16.6441 4.95808 16.6441C4.86228 16.6441 4.76647 16.6441 4.67066 16.7342C4.47904 16.9144 4.38323 17.0045 4.19162 17.0946C4.09581 17.1847 4 17.2748 4 17.3649V21.1486C4 21.8694 4.67066 22.5 5.43713 22.5H18.4671C19.2335 22.5 19.9042 21.8694 19.9042 21.1486V17.3649C19.9042 17.2748 19.8084 17.0946 19.7126 17.0946C19.521 17.0045 19.4251 16.9144 19.2335 16.8243C19.2335 16.7342 19.1377 16.7342 19.0419 16.6441C18.9461 16.6441 18.7545 16.6441 18.6587 16.7342C18.1796 17.1847 17.6048 17.455 16.9341 17.455C15.5928 17.455 14.4431 16.3739 14.4431 15.1126C14.4431 13.8514 15.6886 12.7703 17.0299 12.7703" fill="#06806B"/>
</svg>
