<svg width="24" height="25" viewBox="0 0 24 25" fill="none" xmlns="http://www.w3.org/2000/svg">
<path fill-rule="evenodd" clip-rule="evenodd" d="M11.4544 8.88509L11.4461 8.99848C11.0544 8.9226 10.6023 8.79672 10.1322 8.66586L10.1322 8.66585C9.10362 8.37947 7.98917 8.06918 7.23424 8.20663C5.91824 8.44622 4.65259 9.89039 4.16507 12.3355C3.67754 14.7806 4.29653 16.6966 5.67071 18.7629C7.04488 20.8292 9.32572 22.5 10.3777 22.5C10.7312 22.5 11.1379 22.4885 11.5632 22.4765H11.5632C12.4437 22.4517 13.4033 22.4246 14.1322 22.4926C14.1841 22.4975 14.2369 22.5 14.2905 22.5C15.5272 22.5 17.2706 20.6703 18.3447 19.0222C19.4189 17.3742 20.2939 14.3431 19.9066 12.2017C19.5193 10.0604 18.3274 8.43173 16.4294 8.20663C15.2858 8.071 14.3634 8.40653 13.5609 8.69838C13.2534 8.81025 12.9635 8.91569 12.6855 8.98573L12.6859 8.98099C12.7198 8.53248 12.76 8.18499 12.8008 8.00571C12.9245 7.462 13.2088 6.83936 13.4674 6.53564C13.6903 6.27384 13.6617 5.87835 13.4036 5.65228C13.1455 5.42621 12.7555 5.45519 12.5326 5.71699C12.1316 6.18802 11.7633 6.99438 11.5973 7.72418C11.5384 7.98323 11.4929 8.37609 11.4544 8.88509ZM7 13.5274C7 12.4603 7.14179 11.5594 7.43138 10.8235C7.53302 10.5651 7.83359 10.4348 8.1027 10.5324C8.37181 10.63 8.50757 10.9185 8.40592 11.1768C8.16514 11.7887 8.04174 12.5727 8.04174 13.5274C8.04174 14.4571 8.34189 15.5449 8.95038 16.7874C9.07277 17.0373 8.96095 17.3351 8.70061 17.4526C8.44027 17.5701 8.13001 17.4628 8.00762 17.2129C7.33861 15.8468 7 14.6195 7 13.5274Z" fill="#06806B"/>
<path fill-rule="evenodd" clip-rule="evenodd" d="M7.95597 5.6669C7.43397 5.19688 7.06644 4.61587 6.85339 3.92386C6.79997 3.75036 6.79032 3.56633 6.82531 3.38819C6.9424 2.79207 7.52056 2.40375 8.11668 2.52083L8.11668 2.52082C8.82717 2.66037 9.44342 2.96515 9.96543 3.43517C10.4874 3.90518 10.855 4.48619 11.068 5.1782C11.1214 5.3517 11.1311 5.53573 11.0961 5.71387C10.979 6.30999 10.4008 6.69832 9.80472 6.58123L9.80472 6.58124C9.09422 6.44169 8.47797 6.13691 7.95597 5.6669Z" fill="#06806B"/>
</svg>
