<svg width="24" height="25" viewBox="0 0 24 25" fill="none" xmlns="http://www.w3.org/2000/svg">
<path d="M5.59491 22.5C4.42135 22.5 3.52704 22.1958 2.91198 21.5875C2.30399 20.9863 2 20.1057 2 18.9456V6.05438C2 4.89434 2.30399 4.0137 2.91198 3.41247C3.52704 2.80416 4.42135 2.5 5.59491 2.5H18.4051C19.5786 2.5 20.4694 2.80416 21.0774 3.41247C21.6925 4.0137 22 4.89434 22 6.05438V18.9456C22 20.1057 21.6925 20.9863 21.0774 21.5875C20.4694 22.1958 19.5786 22.5 18.4051 22.5H5.59491ZM17.79 12.4735C17.79 12.141 17.6557 11.8475 17.3871 11.5928L13.6225 7.91114C13.4175 7.71309 13.17 7.61406 12.8802 7.61406C12.5974 7.61406 12.3641 7.70955 12.1803 7.90053C12.0035 8.08444 11.9152 8.3214 11.9152 8.61141C11.9152 8.89434 12.0247 9.13837 12.2439 9.3435L13.527 10.5531L14.7147 11.4867L12.4878 11.3594H7.34465C7.03358 11.3594 6.77907 11.4655 6.58112 11.6777C6.38317 11.8899 6.2842 12.1552 6.2842 12.4735C6.2842 12.7918 6.38317 13.057 6.58112 13.2692C6.77907 13.4814 7.03358 13.5875 7.34465 13.5875H12.4878L14.7253 13.4602L13.5483 14.3939L12.2439 15.6034C12.0247 15.7944 11.9152 16.042 11.9152 16.3462C11.9152 16.6362 12.0035 16.8767 12.1803 17.0676C12.3641 17.2515 12.5974 17.3435 12.8802 17.3435C13.163 17.3435 13.4104 17.2409 13.6225 17.0358L17.3871 13.3647C17.6557 13.103 17.79 12.8059 17.79 12.4735Z" fill="#06806B"/>
</svg>
