<svg width="24" height="25" viewBox="0 0 24 25" fill="none" xmlns="http://www.w3.org/2000/svg">
<path fill-rule="evenodd" clip-rule="evenodd" d="M21.9197 5.7421L23.3339 7.15632L21.9197 8.57053L20.5055 9.98474L19.0913 11.399L12.7273 17.7629L11.3131 19.1771L10.9596 19.5307L5.13181 21.3043L2.82782 22.0056L3.52904 19.7016L5.3027 13.8738L5.65625 13.5203L7.07046 12.1061L13.4344 5.7421L14.8486 4.32789L16.2629 2.91367L17.6771 1.49946L19.0913 2.91367L21.9197 5.7421ZM14.8486 7.15632L8.48468 13.5203L11.3131 16.3487L17.6771 9.98474L14.8486 7.15632ZM19.0913 8.57053L16.2629 5.7421L17.6771 4.32789L20.5055 7.15632L19.0913 8.57053ZM5.83303 19.0004L7.07046 14.9345L9.89889 17.7629L5.83303 19.0004Z" fill="#06806B"/>
</svg>
