<svg width="24" height="25" viewBox="0 0 24 25" fill="none" xmlns="http://www.w3.org/2000/svg">
<path fill-rule="evenodd" clip-rule="evenodd" d="M10.6178 6.69181H12H13.3767L14.716 9.11532H9.27842L10.6178 6.69181ZM8.76276 6.69181H7.04159C6.99114 6.69181 6.94279 6.71199 6.9073 6.74785L4.56449 9.11532H7.42346L7.43017 9.10311L8.76276 6.69181ZM3.26989 10.7389L9.8021 17.8899L7.28067 11.8829C7.12644 11.5155 7.0443 11.1275 7.03316 10.7389H3.26989ZM14.1876 17.9011L20.7301 10.7389H16.9613C16.9501 11.1275 16.868 11.5155 16.7138 11.8829L14.1876 17.9011ZM19.4355 9.11532L17.0927 6.74785C17.0572 6.71199 17.0088 6.69181 16.9584 6.69181H15.2317L16.5643 9.10311L16.571 9.11532H19.4355ZM7.04159 4.5H12H16.9584C17.5941 4.5 18.2034 4.75426 18.6506 5.20614L22.3115 8.90552C23.2035 9.80696 23.2323 11.2494 22.377 12.1858L13.7578 21.6216C12.8138 22.655 11.1862 22.655 10.2422 21.6216L1.62297 12.1858C0.767645 11.2494 0.796469 9.80696 1.68851 8.90552L5.34936 5.20614C5.79653 4.75426 6.40586 4.5 7.04159 4.5ZM15.2167 11.2546L11.9972 18.9247L8.7777 11.2546C8.70807 11.0887 8.66833 10.9143 8.65809 10.7389H15.3363C15.3261 10.9143 15.2864 11.0887 15.2167 11.2546Z" fill="#9F6405"/>
</svg>
