<svg width="24" height="24" viewBox="0 0 24 24" fill="none" xmlns="http://www.w3.org/2000/svg">
<path fill-rule="evenodd" clip-rule="evenodd" d="M4.42784 4.90602C4.42784 4.22227 4.98214 3.66797 5.66589 3.66797H21.7606C22.4444 3.66797 22.9987 4.22227 22.9987 4.90602V19.7627C22.9987 20.4464 22.4444 21.0007 21.7606 21.0007H4.42784V4.90602ZM6.90533 6.1441H20.5239V7.38215H6.90533V6.1441ZM6.90509 9.85827H20.5237V11.0963H6.90509V9.85827ZM20.5231 13.5724H14.3329V14.8105H20.5231V13.5724ZM6.90509 13.5724H13.0954V18.5247H6.90509V13.5724ZM20.5231 17.2866H14.3329V18.5246H20.5231V17.2866ZM1.95095 8.6202C1.26719 8.6202 0.712891 9.1745 0.712891 9.85826V19.7627C0.712891 20.4465 1.26719 21.0008 1.95095 21.0008H3.189V9.85826C3.189 9.1745 2.63471 8.6202 1.95095 8.6202Z" fill="#06806B"/>
</svg>
