<svg width="24" height="25" viewBox="0 0 24 25" fill="none" xmlns="http://www.w3.org/2000/svg">
<path d="M21.6141 5.92857C21.4303 5.92857 21.2464 6.00794 21.0626 6.0873C20.3273 6.48413 19.592 6.64286 18.8567 6.64286C17.478 6.64286 16.0993 6.0873 14.7207 5.61111C13.2501 5.05556 11.7795 4.5 10.3089 4.5C9.38973 4.5 8.65443 4.7381 7.82721 5.13492C7.36765 5.37302 7 5.92857 7 6.40476V12.5952C7 12.9127 7.27574 13.0714 7.45956 13.0714C7.64339 13.0714 7.82721 12.9921 8.01104 12.9127C8.74634 12.5159 9.48164 12.3571 10.2169 12.3571C11.5956 12.3571 12.9743 12.9127 14.353 13.3889C15.7317 13.9444 17.2023 14.5 18.6729 14.5C19.592 14.5 20.4192 14.2619 21.1545 13.8651C21.6141 13.627 21.9817 13.0714 21.9817 12.5952V6.40476C22.0737 6.00794 21.7979 5.92857 21.6141 5.92857" fill="#06806B"/>
<rect x="3" y="2.5" width="2" height="20" rx="1" fill="#06806B"/>
<circle cx="4" cy="4.5" r="2" fill="#06806B"/>
</svg>
