<svg width="24" height="25" viewBox="0 0 24 25" fill="none" xmlns="http://www.w3.org/2000/svg">
<path fill-rule="evenodd" clip-rule="evenodd" d="M12 1.5C5.928 1.5 1 6.428 1 12.5C1 18.572 5.928 23.5 12 23.5C18.072 23.5 23 18.572 23 12.5C23 6.428 18.072 1.5 12 1.5ZM12 21.3C7.149 21.3 3.2 17.351 3.2 12.5C3.2 7.649 7.149 3.7 12 3.7C16.851 3.7 20.8 7.649 20.8 12.5C20.8 17.351 16.851 21.3 12 21.3ZM10.0866 15.4019H12.7319V13.7917C15.0421 13.2432 16.4 11.9161 16.4 9.68659C16.4 6.82011 14.3543 5.9 12.2028 5.9C9.46934 5.9 7.88216 7.29785 7.6 9.54504L10.1924 9.95201C10.404 8.67802 10.9683 8.1118 12.0617 8.1118C12.9611 8.1118 13.596 8.53646 13.596 9.65121C13.596 11.5445 11.7972 12.0223 10.0866 12.1638V15.4019ZM11.3739 19.1C12.4321 19.1 12.9435 18.5869 12.9435 17.6845C12.9435 16.7643 12.4144 16.2512 11.3739 16.2512C10.3158 16.2512 9.80441 16.7643 9.80441 17.6845C9.80441 18.6399 10.3158 19.1 11.3739 19.1Z" fill="#06806B"/>
</svg>
