<svg width="24" height="24" viewBox="0 0 24 24" fill="none" xmlns="http://www.w3.org/2000/svg">
<path fill-rule="evenodd" clip-rule="evenodd" d="M19.7616 2.92909C18.668 2.37185 17.3296 2.80669 16.7724 3.90036L15.5392 6.32069L16.142 8.17608L17.6536 5.20947C17.8649 4.79463 18.3726 4.62969 18.7874 4.84106C19.2023 5.05243 19.3672 5.56007 19.1558 5.97491L17.6443 8.94147L19.4997 8.33861L20.7329 5.91833C21.2901 4.82467 20.8553 3.48634 19.7616 2.92909ZM12.7558 11.7834L14.4567 8.44521L15.0595 10.3006L13.3586 13.6388L12.7558 11.7834ZM14.8609 14.4042L16.5618 11.066L18.4172 10.4631L16.7163 13.8013L14.8609 14.4042ZM10.9365 11.6402L12.2761 15.7633L11.7024 16.8894L9.8752 17.1037C9.49133 17.1487 9.20106 17.4726 9.19813 17.8591L9.17081 21.4574H2.84301C2.37743 21.4574 2 21.8348 2 22.3004C2 22.766 2.37743 23.1434 2.84301 23.1434H9.90995C9.94095 23.1434 9.97157 23.1417 10.0017 23.1385C10.0713 23.1321 10.1411 23.1158 10.2093 23.0887C10.3123 23.0496 10.4057 22.9908 10.4848 22.917L14.0131 20.3124C14.324 20.0829 14.4154 19.6577 14.2262 19.3207L13.2457 17.5742L13.7784 16.5287L17.9015 15.189L22.2351 6.68377C23.2151 4.76044 22.4504 2.40682 20.5271 1.42684C18.6037 0.446846 16.2501 1.21158 15.2701 3.13492L10.9365 11.6402ZM10.8638 20.5415L10.8779 18.6837L11.8697 18.5674L12.3586 19.4381L10.8638 20.5415Z" fill="#06806B"/>
</svg>
