<svg width="24" height="25" viewBox="0 0 24 25" fill="none" xmlns="http://www.w3.org/2000/svg">
<path d="M11.0896 23.5C10.7275 23.5 10.4156 23.396 10.1541 23.1879C9.89255 22.9865 9.72489 22.7113 9.65112 22.3622L9.16827 20.3485C9.03414 20.3015 8.90337 20.2512 8.77595 20.1975C8.64853 20.1505 8.52782 20.1002 8.41381 20.0465L6.67353 21.1238C6.37174 21.3117 6.05319 21.3889 5.71788 21.3554C5.38927 21.3218 5.09755 21.1809 4.84271 20.9325L3.56516 19.6538C3.31702 19.4054 3.17619 19.1101 3.14266 18.7677C3.10913 18.4187 3.18961 18.0965 3.38409 17.8011L4.45039 16.0693C4.39674 15.9485 4.34309 15.831 4.28944 15.7169C4.24249 15.5961 4.20226 15.4719 4.16872 15.3444L2.14678 14.8611C1.79134 14.7873 1.50968 14.6195 1.30178 14.3577C1.10059 14.0959 1 13.7838 1 13.4213V11.6391C1 11.2834 1.10059 10.9746 1.30178 10.7128C1.50968 10.451 1.79134 10.2799 2.14678 10.1993L4.14861 9.72609C4.18884 9.58513 4.23243 9.45423 4.27938 9.33341C4.33303 9.21259 4.38333 9.09847 4.43027 8.99108L3.36397 7.20892C3.16949 6.90687 3.08566 6.59138 3.11248 6.26247C3.14601 5.92685 3.29355 5.63486 3.5551 5.3865L4.85277 4.09771C5.10761 3.86278 5.38927 3.72853 5.69776 3.69497C6.00625 3.65469 6.31139 3.7151 6.61317 3.8762L8.40375 4.98375C8.51776 4.92334 8.63847 4.86629 8.76589 4.81259C8.90001 4.75889 9.03414 4.70854 9.16827 4.66156L9.65112 2.64783C9.72489 2.29878 9.89255 2.02021 10.1541 1.81213C10.4156 1.60404 10.7275 1.5 11.0896 1.5H12.9104C13.2725 1.5 13.5844 1.60404 13.8459 1.81213C14.1075 2.02021 14.2751 2.29878 14.3489 2.64783L14.8317 4.68169C14.9726 4.72868 15.1033 4.77902 15.2241 4.83272C15.3515 4.87971 15.4688 4.93341 15.5761 4.99382L17.3868 3.8762C17.6886 3.7151 17.9937 3.65469 18.3022 3.69497C18.6107 3.73524 18.889 3.86613 19.1372 4.08764L20.4449 5.3865C20.7064 5.63486 20.8506 5.92685 20.8775 6.26247C20.911 6.59138 20.8305 6.90687 20.636 7.20892L19.5597 8.99108C19.6133 9.09847 19.6636 9.21259 19.7106 9.33341C19.7642 9.45423 19.8145 9.58513 19.8615 9.72609L21.8633 10.1993C22.212 10.2799 22.487 10.451 22.6882 10.7128C22.8961 10.9746 23 11.2834 23 11.6391V13.4213C23 13.7838 22.8961 14.0959 22.6882 14.3577C22.487 14.6195 22.212 14.7873 21.8633 14.8611L19.8313 15.3444C19.791 15.4719 19.7474 15.5961 19.7005 15.7169C19.6536 15.831 19.6033 15.9485 19.5496 16.0693L20.6159 17.8011C20.8104 18.0965 20.8909 18.4187 20.8573 18.7677C20.8305 19.1101 20.6897 19.4054 20.4348 19.6538L19.1573 20.9325C18.9025 21.1809 18.6074 21.3218 18.2721 21.3554C17.9435 21.3889 17.6316 21.3117 17.3365 21.1238L15.5761 20.0465C15.4621 20.1002 15.3414 20.1505 15.214 20.1975C15.0933 20.2512 14.9659 20.3015 14.8317 20.3485L14.3489 22.3622C14.2751 22.7113 14.1075 22.9865 13.8459 23.1879C13.5844 23.396 13.2725 23.5 12.9104 23.5H11.0896ZM12.005 15.9787C12.6354 15.9787 13.2122 15.821 13.7353 15.5055C14.265 15.19 14.6842 14.7705 14.9927 14.2469C15.3079 13.7166 15.4655 13.1326 15.4655 12.495C15.4655 11.864 15.3079 11.2867 14.9927 10.7632C14.6842 10.2396 14.265 9.82342 13.7353 9.51464C13.2122 9.19916 12.6354 9.04142 12.005 9.04142C11.3679 9.04142 10.7878 9.19916 10.2647 9.51464C9.74165 9.82342 9.32251 10.2396 9.00732 10.7632C8.69212 11.2867 8.53452 11.864 8.53452 12.495C8.53452 13.1326 8.68877 13.7166 8.99726 14.2469C9.31245 14.7705 9.7316 15.19 10.2547 15.5055C10.7845 15.821 11.3679 15.9787 12.005 15.9787Z" fill="#06806B"/>
</svg>
