<svg width="24" height="24" viewBox="0 0 24 24" fill="none" xmlns="http://www.w3.org/2000/svg">
<path fill-rule="evenodd" clip-rule="evenodd" d="M17 17.5894L12.9024 14.0001L9 14.0001H8V7.00009H12.5057L17 2.68953L17 17.5894ZM6 16.0001H5C3.89543 16.0001 3 15.1047 3 14.0001V7.00009C3 5.89552 3.89543 5.00009 5 5.00009H11.7016L15.6156 1.24612C16.8871 0.0266318 19 0.927773 19 2.68953V7.00009C20.1046 7.00009 21 7.89552 21 9.00009V11.0001C21 12.1047 20.1046 13.0001 19 13.0001V17.5894C19 19.3082 16.9751 20.2264 15.6822 19.0938L12.1503 16.0001H10V21.0001C10 21.5524 9.55228 22.0001 9 22.0001H7C6.44772 22.0001 6 21.5524 6 21.0001V16.0001Z" fill="#06806B"/>
</svg>
