<svg width="24" height="24" viewBox="0 0 24 24" fill="none" xmlns="http://www.w3.org/2000/svg">
<path fill-rule="evenodd" clip-rule="evenodd" d="M11.7687 0.308594C6.92585 0.308866 3 4.23488 3 9.07782C3 13.9208 6.92585 17.8468 11.7687 17.8471H11.7697L11.7697 23.6932L13.2313 23.6932C18.0742 23.6929 22 19.7669 22 14.924C22 10.081 18.0742 6.15501 13.2313 6.15473H13.2303V0.308598L11.7687 0.308594ZM11.7687 14.924V16.3855C7.73303 16.3852 4.46154 13.1136 4.46154 9.07782C4.46154 5.04207 7.73303 1.7704 11.7687 1.77013V3.23168C8.54014 3.23186 5.92291 5.8492 5.92291 9.07783C5.92291 12.3065 8.54014 14.9238 11.7687 14.924ZM7.38445 9.07783C7.38445 6.65639 9.34733 4.6934 11.7687 4.69322V6.15476C10.1544 6.15485 8.84582 7.46352 8.84582 9.07783C8.84582 10.6921 10.1544 12.0008 11.7687 12.0009V13.4624C9.34733 13.4623 7.38445 11.4993 7.38445 9.07783ZM10.3074 9.07783C10.3074 8.2707 10.9616 7.61639 11.7687 7.6163V10.5394C10.9616 10.5393 10.3074 9.88496 10.3074 9.07783ZM13.2313 9.0778V7.61627C17.267 7.61655 20.5385 10.8882 20.5385 14.924C20.5385 18.9597 17.267 22.2314 13.2313 22.2317V20.7701C16.4599 20.7699 19.0771 18.1526 19.0771 14.924C19.0771 11.6953 16.4599 9.07799 13.2313 9.0778ZM17.6156 14.924C17.6156 17.3454 15.6527 19.3084 13.2313 19.3086L13.2313 17.847C14.8456 17.8469 16.1542 16.5383 16.1542 14.924C16.1542 13.3096 14.8456 12.001 13.2313 12.0009V10.5393C15.6527 10.5395 17.6156 12.5025 17.6156 14.924ZM14.6926 14.924C14.6926 15.7311 14.0384 16.3854 13.2313 16.3855V13.4624C14.0384 13.4625 14.6926 14.1168 14.6926 14.924Z" fill="#06806B"/>
</svg>
