<svg width="24" height="24" viewBox="0 0 24 24" fill="none" xmlns="http://www.w3.org/2000/svg">
<path fill-rule="evenodd" clip-rule="evenodd" d="M4 9C4 8.44772 3.55228 8 3 8C2.44772 8 2 8.44772 2 9V11V13V19C2 20.1046 2.89543 21 4 21H20C21.1046 21 22 20.1046 22 19V13V11V9C22 8.44772 21.5523 8 21 8C20.4477 8 20 8.44772 20 9V11V13V16V19H4V16V13V11V9Z" fill="#5C5C5C"/>
<path d="M18 13.305L16.305 15L12 10.695L7.695 15L6 13.305L10.305 9L6 4.695L7.695 3L12 7.305L16.305 3L18 4.695L13.695 9L18 13.305Z" fill="#5C5C5C"/>
</svg>
