<svg width="18" height="18" viewBox="0 0 18 18" fill="none" xmlns="http://www.w3.org/2000/svg">
<path d="M9.30371 15.4619C8.35124 15.4619 7.45345 15.2796 6.61035 14.915C5.77181 14.5505 5.03125 14.0469 4.38867 13.4043C3.74609 12.7617 3.24251 12.0212 2.87793 11.1826C2.51335 10.3395 2.33105 9.44173 2.33105 8.48926C2.33105 7.53678 2.51335 6.64128 2.87793 5.80273C3.24251 4.95964 3.74382 4.2168 4.38184 3.57422C5.02441 2.93164 5.76497 2.42806 6.60352 2.06348C7.44661 1.69889 8.3444 1.5166 9.29688 1.5166C10.2493 1.5166 11.1471 1.69889 11.9902 2.06348C12.8333 2.42806 13.5762 2.93164 14.2188 3.57422C14.8613 4.2168 15.3649 4.95964 15.7295 5.80273C16.0941 6.64128 16.2764 7.53678 16.2764 8.48926C16.2764 9.44173 16.0941 10.3395 15.7295 11.1826C15.3649 12.0212 14.8613 12.7617 14.2188 13.4043C13.5762 14.0469 12.8333 14.5505 11.9902 14.915C11.1517 15.2796 10.2562 15.4619 9.30371 15.4619ZM12.79 9.25488C12.79 8.73991 12.6761 8.28874 12.4482 7.90137C12.2204 7.514 11.8991 7.21322 11.4844 6.99902C11.0697 6.78483 10.5889 6.67773 10.042 6.67773H8.0459L7.33496 6.71191L7.7998 6.34277L8.49023 5.67285C8.59961 5.57715 8.6543 5.45638 8.6543 5.31055C8.6543 5.16016 8.60417 5.03483 8.50391 4.93457C8.4082 4.83431 8.28743 4.78418 8.1416 4.78418C7.99121 4.78418 7.86589 4.83431 7.76562 4.93457L5.98145 6.74609C5.8584 6.87826 5.79688 7.02409 5.79688 7.18359C5.79688 7.34766 5.8584 7.49121 5.98145 7.61426L7.77246 9.44629C7.86816 9.54655 7.99349 9.59668 8.14844 9.59668C8.28971 9.59668 8.4082 9.54655 8.50391 9.44629C8.60417 9.34147 8.6543 9.21615 8.6543 9.07031C8.6543 8.92904 8.59961 8.80371 8.49023 8.69434L7.66309 7.89453L7.3418 7.66895L8.0459 7.69629H10.042C10.5615 7.69629 10.9785 7.83984 11.293 8.12695C11.612 8.41406 11.7715 8.79004 11.7715 9.25488C11.7715 9.76074 11.6097 10.1686 11.2861 10.4785C10.9671 10.7839 10.5501 10.9365 10.0352 10.9365H9.09863C8.93913 10.9365 8.80924 10.9844 8.70898 11.0801C8.61328 11.1712 8.56543 11.292 8.56543 11.4424C8.56543 11.5973 8.61556 11.7227 8.71582 11.8184C8.81608 11.9095 8.94824 11.9551 9.1123 11.9551H10.0352C10.582 11.9551 11.0628 11.8434 11.4775 11.6201C11.8923 11.3968 12.2135 11.0824 12.4414 10.6768C12.6738 10.2712 12.79 9.7972 12.79 9.25488Z" fill="#373737"/>
</svg>
