<svg width="47" height="328" viewBox="0 0 47 328" fill="none" xmlns="http://www.w3.org/2000/svg">
<path opacity="0.5" d="M46 1H47V0H46V1ZM46 320V321H47V320H46ZM0.292893 319.293C-0.0976311 319.683 -0.0976311 320.317 0.292893 320.707L6.65685 327.071C7.04738 327.462 7.68054 327.462 8.07107 327.071C8.46159 326.681 8.46159 326.047 8.07107 325.657L2.41421 320L8.07107 314.343C8.46159 313.953 8.46159 313.319 8.07107 312.929C7.68054 312.538 7.04738 312.538 6.65685 312.929L0.292893 319.293ZM1 2H2.875V0H1V2ZM6.625 2H10.375V0H6.625V2ZM14.125 2H17.875V0H14.125V2ZM21.625 2H25.375V0H21.625V2ZM29.125 2H32.875V0H29.125V2ZM36.625 2H40.375V0H36.625V2ZM44.125 2H46V0H44.125V2ZM45 1V2.99375H47V1H45ZM45 6.98125V10.9688H47V6.98125H45ZM45 14.9563V18.9438H47V14.9563H45ZM45 22.9312V26.9187H47V22.9312H45ZM45 30.9062V34.8937H47V30.9062H45ZM45 38.8812V42.8687H47V38.8812H45ZM45 46.8563V50.8437H47V46.8563H45ZM45 54.8312V58.8187H47V54.8312H45ZM45 62.8062V66.7937H47V62.8062H45ZM45 70.7812V74.7688H47V70.7812H45ZM45 78.7563V82.7438H47V78.7563H45ZM45 86.7313V90.7188H47V86.7313H45ZM45 94.7063V98.6938H47V94.7063H45ZM45 102.681V106.669H47V102.681H45ZM45 110.656V114.644H47V110.656H45ZM45 118.631V122.619H47V118.631H45ZM45 126.606V130.594H47V126.606H45ZM45 134.581V138.569H47V134.581H45ZM45 142.556V146.544H47V142.556H45ZM45 150.531V154.519H47V150.531H45ZM45 158.506V162.494H47V158.506H45ZM45 166.481V170.469H47V166.481H45ZM45 174.456V178.444H47V174.456H45ZM45 182.431V186.419H47V182.431H45ZM45 190.406V194.394H47V190.406H45ZM45 198.381V202.369H47V198.381H45ZM45 206.356V210.344H47V206.356H45ZM45 214.331V218.319H47V214.331H45ZM45 222.306V226.294H47V222.306H45ZM45 230.281V234.269H47V230.281H45ZM45 238.256V242.244H47V238.256H45ZM45 246.231V250.219H47V246.231H45ZM45 254.206V258.194H47V254.206H45ZM45 262.181V266.169H47V262.181H45ZM45 270.156V274.144H47V270.156H45ZM45 278.131V282.119H47V278.131H45ZM45 286.106V290.094H47V286.106H45ZM45 294.081V298.069H47V294.081H45ZM45 302.056V306.044H47V302.056H45ZM45 310.031V314.019H47V310.031H45ZM45 318.006V320H47V318.006H45ZM46 319H44.125V321H46V319ZM40.375 319H36.625V321H40.375V319ZM32.875 319H29.125V321H32.875V319ZM25.375 319H21.625V321H25.375V319ZM17.875 319H14.125V321H17.875V319ZM10.375 319H6.625V321H10.375V319ZM2.875 319H1V321H2.875V319Z" fill="black"/>
</svg>
