<svg width="24" height="24" viewBox="0 0 24 24" fill="none" xmlns="http://www.w3.org/2000/svg">
<path fill-rule="evenodd" clip-rule="evenodd" d="M20.5 2.9375V16.0625C20.5 16.3555 20.3633 16.6211 20.1523 16.7891C19.9883 17.3906 19.9883 19.1055 20.1523 19.707C20.3633 19.8789 20.5 20.1445 20.5 20.4375V21.0625C20.5 21.582 20.082 22 19.5625 22H6.75C4.67969 22 3 20.3203 3 18.25V5.75C3 3.67969 4.67969 2 6.75 2H19.5625C20.082 2 20.5 2.41797 20.5 2.9375ZM6.75 19.5H17.8984C17.8242 18.832 17.8242 17.668 17.8984 17H6.75C6.0625 17 5.5 17.5625 5.5 18.25C5.5 18.9414 6.05859 19.5 6.75 19.5ZM6 4.5C6 4.22386 6.22386 4 6.5 4C6.77614 4 7 4.22386 7 4.5V14.5C7 14.7761 6.77614 15 6.5 15C6.22386 15 6 14.7761 6 14.5V4.5ZM10.5 7C10.2239 7 10 7.22386 10 7.5C10 7.77614 10.2239 8 10.5 8H16.5C16.7761 8 17 7.77614 17 7.5C17 7.22386 16.7761 7 16.5 7H10.5Z" fill="url(#paint0_linear_310_1978)"/>
<defs>
<linearGradient id="paint0_linear_310_1978" x1="11.75" y1="2" x2="11.75" y2="22" gradientUnits="userSpaceOnUse">
<stop stop-color="#00947B"/>
<stop offset="1" stop-color="#00C2A2"/>
</linearGradient>
</defs>
</svg>
