<svg width="27" height="30" viewBox="0 0 27 30" fill="none" xmlns="http://www.w3.org/2000/svg">
<path fill-rule="evenodd" clip-rule="evenodd" d="M26.75 1.40613V21.0936C26.75 21.5331 26.5449 21.9315 26.2285 22.1835C25.9824 23.0858 25.9824 25.6581 26.2285 26.5604C26.5449 26.8182 26.75 27.2167 26.75 27.6561V28.5936C26.75 29.3729 26.123 29.9999 25.3438 29.9999H6.125C3.01953 29.9999 0.5 27.4803 0.5 24.3749V5.62488C0.5 2.51941 3.01953 -0.00012207 6.125 -0.00012207H25.3438C26.123 -0.00012207 26.75 0.626831 26.75 1.40613ZM6.125 26.2499H22.8477C22.7363 25.2479 22.7363 23.5018 22.8477 22.4999H6.125C5.09375 22.4999 4.25 23.3436 4.25 24.3749C4.25 25.412 5.08789 26.2499 6.125 26.2499ZM5 3.74988C5 3.33566 5.33579 2.99988 5.75 2.99988C6.16421 2.99988 6.5 3.33566 6.5 3.74988V18.7499C6.5 19.1641 6.16421 19.4999 5.75 19.4999C5.33579 19.4999 5 19.1641 5 18.7499V3.74988ZM11.5455 7.49988C11.2442 7.49988 11 7.74409 11 8.04533V8.45442C11 8.75567 11.2442 8.99988 11.5455 8.99988H20.9545C21.2558 8.99988 21.5 8.75567 21.5 8.45442V8.04533C21.5 7.74409 21.2558 7.49988 20.9545 7.49988H11.5455Z" fill="white"/>
</svg>
