<svg width="89" height="88" viewBox="0 0 89 88" fill="none" xmlns="http://www.w3.org/2000/svg">
<path fill-rule="evenodd" clip-rule="evenodd" d="M6.16802 77H57.7307V77.0011C58.6636 77.0011 59.4878 76.5233 59.9848 75.798H62.9975C62.3178 78.0839 60.218 79.7511 57.7307 79.7511H6.16802C3.13067 79.7511 0.667969 77.2672 0.667969 74.2029V5.54758C0.667969 2.4839 3.13067 0 6.16802 0H57.7307C60.768 0 63.2307 2.4839 63.2307 5.54758V28.4527C62.3919 27.4154 61.4736 26.4466 60.4807 25.5577V5.54706C60.4807 4.00419 59.2472 2.74951 57.7307 2.74951H6.16802C4.65147 2.74951 3.418 4.00419 3.418 5.54706V74.2024C3.418 75.7453 4.65147 77 6.16802 77ZM51.1995 12.3743H12.6991C11.9395 12.3743 11.3241 12.9902 11.3241 13.7493C11.3241 14.5085 11.9394 15.1243 12.6991 15.1243H51.1995C51.9587 15.1243 52.5745 14.5085 52.5745 13.7493C52.5745 12.9902 51.9586 12.3743 51.1995 12.3743ZM12.6992 42.6246H19.2717C19.3227 41.6931 19.4293 40.7767 19.5797 39.8746H12.6992C11.9395 39.8746 11.3242 40.4905 11.3242 41.2496C11.3242 42.0087 11.9395 42.6246 12.6992 42.6246ZM12.6992 48.1247H19.5797C19.4278 47.2226 19.3213 46.3062 19.2697 45.3747H12.6991C11.9395 45.3747 11.3241 45.9905 11.3241 46.7497C11.3241 47.5088 11.9395 48.1247 12.6992 48.1247ZM11.3241 52.2497C11.3241 51.4906 11.9395 50.8747 12.6991 50.8747H20.207C20.4785 51.8146 20.7982 52.7344 21.1743 53.6247H12.6991C11.9394 53.6247 11.3241 53.0088 11.3241 52.2497ZM12.6991 56.3748C11.9395 56.3748 11.3241 56.9907 11.3241 57.7498C11.3241 58.5089 11.9394 59.1248 12.6991 59.1248H24.3974C23.7236 58.2523 23.1068 57.3344 22.552 56.3748H12.6991ZM12.6991 64.6248C11.9394 64.6248 11.3241 64.009 11.3241 63.2498H11.3238C11.3238 62.4907 11.9392 61.8748 12.6989 61.8748H26.8736C27.9317 62.8883 29.0765 63.8107 30.3008 64.6248H12.6991ZM51.7576 20.5041C49.2986 19.69 46.6714 19.2445 43.938 19.2494H43.9377C41.1026 19.2542 38.382 19.7424 35.8474 20.6244H12.6995C11.9399 20.6244 11.3245 20.0085 11.3245 19.2494C11.3245 18.4903 11.9399 17.8744 12.6995 17.8744H51.1999C51.9591 17.8744 52.5749 18.4902 52.5749 19.2494C52.5749 19.8097 52.2386 20.2904 51.7576 20.5041ZM30.3037 23.3744H12.6999C11.9402 23.3744 11.3249 23.9903 11.3249 24.7494C11.3249 25.5086 11.9402 26.1245 12.6999 26.1245H26.8746C27.9334 25.1104 29.0795 24.1891 30.3044 23.3744H30.3037ZM12.6991 28.8745H24.3988C23.7236 29.747 23.1063 30.6649 22.5508 31.6245H12.6991C11.9394 31.6245 11.3241 31.0086 11.3241 30.2495C11.3241 29.4904 11.9395 28.8745 12.6991 28.8745ZM12.6992 37.1246H20.2064C20.4779 36.1847 20.797 35.2649 21.1737 34.3745H12.6992C11.9396 34.3745 11.3242 34.9904 11.3242 35.7496C11.3242 36.5087 11.9395 37.1246 12.6992 37.1246ZM30.5751 34.3745H51.5435C52.3026 34.3745 52.9185 34.9904 52.9185 35.7495C52.9185 36.5087 52.3026 37.1245 51.5435 37.1245H29.5433C29.3571 37.1245 29.1803 37.0867 29.0179 37.02C29.4495 36.0947 29.9721 35.2113 30.5751 34.3745ZM51.5435 39.8746H27.9966C27.7669 40.7704 27.6136 41.6896 27.5374 42.6246H51.5441C52.3032 42.6246 52.9191 42.0087 52.9191 41.2496C52.9191 40.4905 52.3032 39.8746 51.5441 39.8746H51.5435ZM27.5383 45.3747H51.5434C52.3025 45.3747 52.9184 45.9905 52.9184 46.7497C52.9184 47.5088 52.3025 48.1247 51.5434 48.1247H28.0009C27.7706 47.2349 27.6168 46.3151 27.5383 45.3747ZM51.5433 50.8747H28.9852C29.4326 51.8455 29.9717 52.7659 30.5911 53.6247H51.5433C52.3025 53.6247 52.9183 53.0088 52.9183 52.2497C52.9183 51.4906 52.3025 50.8747 51.5433 50.8747ZM33.0882 56.3748H51.5435H51.5436C52.3027 56.3748 52.9186 56.9907 52.9186 57.7498C52.9186 58.5089 52.3028 59.1248 51.5436 59.1248H37.396C35.8156 58.4338 34.3655 57.5003 33.0882 56.3748ZM51.5433 28.8745H37.3768C35.8245 29.5517 34.3833 30.4804 33.0873 31.6245H51.5433C52.3025 31.6245 52.9183 31.0086 52.9183 30.2495C52.9183 29.4904 52.3024 28.8745 51.5433 28.8745ZM67.4438 57.1066L86.5788 76.0466L86.5783 76.0465C89.0794 78.5247 89.3736 82.3121 87.2349 84.5026C87.0751 84.6665 86.9168 84.832 86.7589 84.997L86.7578 84.9981C85.3072 86.5145 83.886 88 81.5898 88C79.9619 88 78.2486 87.3185 76.8996 85.9827L57.7623 67.0427L58.997 65.7757L55.7814 62.5602C52.3802 64.7273 48.3468 65.9917 44.015 65.9992H43.9752C31.8435 65.9992 21.9998 56.1746 21.9772 44.0364C21.9566 31.8878 31.7893 22.0188 43.9392 21.9987H43.9776C56.1115 21.998 65.9562 31.8248 65.9771 43.9623C65.9834 47.9625 64.9163 51.7117 63.0567 54.947L66.3444 58.2347L67.4438 57.1066ZM43.9757 63.2491H44.0106L44.0102 63.2489C54.6224 63.2313 63.2432 54.5808 63.2274 43.9657C63.2091 33.3696 54.574 24.7484 43.9787 24.7492H43.9452C38.8037 24.7575 33.9732 26.7685 30.3432 30.4108C26.714 34.0526 24.7188 38.8901 24.7277 44.0312C24.7475 54.6279 33.3818 63.2491 43.9757 63.2491ZM61.5082 57.2861C60.4907 58.6262 59.3253 59.847 58.0328 60.9224L60.9164 63.805L64.4261 60.204L61.5082 57.2861ZM84.6706 83.2333C84.8734 83.0049 85.0707 82.7826 85.2662 82.5824L85.2665 82.5825C86.3336 81.4888 86.0477 79.3914 84.6432 78.0006L67.4794 61.0106L61.6361 67.0076L78.8337 84.0285C79.6183 84.8053 80.6227 85.2493 81.59 85.2493C82.8805 85.2493 83.823 84.1879 84.6706 83.2333ZM63.2241 59.5582H63.231V59.5499L63.2241 59.5582Z" fill="#2C7F9B"/>
</svg>
