<svg width="110" height="88" viewBox="0 0 110 88" fill="none" xmlns="http://www.w3.org/2000/svg">
<path fill-rule="evenodd" clip-rule="evenodd" d="M27.9259 22.8716L19.497 19.3626L19.4974 19.3622C18.8272 19.0403 18.2977 18.4836 18.0096 17.7979C17.722 17.1122 17.6952 16.3447 17.9345 15.6406C18.1739 14.9363 18.6632 14.3443 19.3095 13.9762L53.506 0.329729C54.4548 -0.10991 55.5488 -0.10991 56.4975 0.329729L90.6959 13.9771C91.125 14.1446 91.4973 14.4312 91.7694 14.8028C92.0413 15.1744 92.2017 15.6161 92.232 16.0758V35.8335C93.7497 36.37 94.923 37.5948 95.3941 39.1341C95.8651 40.6734 95.5784 42.3448 94.6213 43.639C93.6637 44.9333 92.1495 45.6969 90.5397 45.6969C88.9299 45.6969 87.4152 44.9333 86.4581 43.639C85.5005 42.3448 85.2139 40.6734 85.6849 39.1341C86.1563 37.5949 87.3297 36.3701 88.8474 35.8335V20.0534L82.0783 22.8714V45.6913H78.6937V24.2803L56.3801 33.5702C55.4998 33.9287 54.5143 33.9298 53.6329 33.5737L53.6326 33.574C53.6227 33.5695 31.3108 24.2814 31.3108 24.2814L31.3151 45.6916H27.9305L27.9259 22.8716ZM91.736 39.4174C91.4183 39.1001 90.9882 38.9221 90.539 38.9221C90.0906 38.9224 89.6604 39.1008 89.3431 39.4181C89.0258 39.7354 88.8474 40.1656 88.8467 40.6144C88.8467 41.0632 89.0251 41.4937 89.3424 41.811C89.6601 42.1283 90.0902 42.3066 90.539 42.3066C90.9882 42.3066 91.4183 42.1283 91.736 41.811C92.0533 41.4936 92.2313 41.0632 92.2313 40.6144C92.2313 40.1655 92.0533 39.7351 91.736 39.4174ZM54.921 3.40521L54.8082 3.45528L21.7533 16.6373L54.9255 30.4463C54.9784 30.466 55.0369 30.4646 55.0887 30.4424L88.2509 16.6361L55.0021 3.38406C54.9739 3.38512 54.946 3.39217 54.921 3.40521ZM16.9264 59.4672C16.9264 59.4672 16.9349 60.8428 16.9374 60.9222L13.5536 60.9222C13.5522 60.8425 13.5423 59.4672 13.5423 59.4672C13.5423 53.7374 17.9648 49.0762 23.4008 49.0762C23.4008 49.0762 95.0334 49.0865 95.0521 49.0928C95.343 49.1323 95.6176 49.2515 95.845 49.4366C96.0727 49.622 96.2448 49.8667 96.3428 50.1434C96.5085 50.5605 96.5018 51.0263 96.3241 51.4384C96.1461 51.8505 95.8118 52.1752 95.3948 52.3409C93.0665 53.2671 91.4395 56.0904 91.4395 59.2077C91.4465 59.7848 91.516 60.3598 91.6468 60.9222H88.1927C88.1025 60.3549 88.0566 59.7817 88.0549 59.2077C88.0489 56.7976 88.7797 54.4436 90.1494 52.4608H23.4008C19.8308 52.4608 16.9264 55.6038 16.9264 59.4672ZM30.0405 55.8453C29.4362 55.8453 28.8774 56.1679 28.5753 56.6915C28.2728 57.215 28.2728 57.8602 28.5753 58.3837C28.8775 58.9073 29.4363 59.2299 30.0405 59.2299H40.1941C40.7988 59.2299 41.3576 58.9073 41.6597 58.3837C41.9622 57.8602 41.9622 57.215 41.6597 56.6915C41.3575 56.1679 40.7987 55.8453 40.1941 55.8453H30.0405ZM46.5409 55.8453C45.9362 55.8453 45.3777 56.1679 45.0753 56.6915C44.7732 57.215 44.7732 57.8602 45.0753 58.3837C45.3778 58.9073 45.9362 59.2299 46.5409 59.2299H48.2331C48.8378 59.2299 49.3966 58.9073 49.6987 58.3837C50.0012 57.8602 50.0012 57.215 49.6987 56.6915C49.3965 56.1679 48.8377 55.8453 48.2331 55.8453H46.5409ZM108.099 84.7403C104.981 83.4655 102.629 79.7623 102.629 76.1266C102.629 72.27 104.855 68.7585 108.042 67.5881C108.539 67.4062 108.922 67.0018 109.077 66.4956C109.232 65.9893 109.141 65.4397 108.831 65.0106C108.52 64.5815 108.027 64.3228 107.498 64.3111C107.484 64.3104 12.6313 64.3073 12.6313 64.3073C9.54714 64.2706 6.57479 65.4587 4.36527 67.6107C2.15611 69.7628 0.890108 72.7027 0.845703 75.7869V76.5195C0.890126 79.6037 2.1562 82.5437 4.36527 84.6957C6.5747 86.8477 9.54714 88.0358 12.6313 87.9992L107.669 87.9681C108.168 87.91 108.614 87.6322 108.886 87.2105C109.158 86.7888 109.227 86.2678 109.075 85.7897C108.922 85.3117 108.564 84.927 108.098 84.7405L108.099 84.7403ZM12.6277 84.6145C10.4411 84.6518 8.32893 83.8209 6.75408 82.3035C5.17923 80.7861 4.27028 78.7061 4.22659 76.5195V75.7868C4.27031 73.6002 5.17923 71.5202 6.75408 70.0028C8.32893 68.4854 10.4412 67.6544 12.6277 67.6918H102.292C100.319 70.0599 99.2392 73.0447 99.2405 76.1267C99.2797 79.2416 100.408 82.2443 102.429 84.6145L12.6277 84.6145ZM16.0799 74.4603H41.464C42.0686 74.4603 42.6274 74.7829 42.9296 75.3065C43.2321 75.83 43.2321 76.4752 42.9296 76.9987C42.6275 77.5223 42.0687 77.8449 41.464 77.8449H16.0799C15.4753 77.8449 14.9165 77.5223 14.6144 76.9987C14.3119 76.4752 14.3119 75.83 14.6144 75.3065C14.9165 74.7829 15.4753 74.4603 16.0799 74.4603ZM49.9254 74.4603H48.2331C47.6285 74.4603 47.07 74.7829 46.7676 75.3065C46.4654 75.83 46.4654 76.4752 46.7676 76.9987C47.0701 77.5223 47.6285 77.8449 48.2331 77.8449H49.9254C50.53 77.8449 51.0889 77.5223 51.391 76.9987C51.6935 76.4752 51.6935 75.83 51.391 75.3065C51.0888 74.7829 50.53 74.4603 49.9254 74.4603Z" fill="#2C7F9B"/>
</svg>
