<svg width="1200" height="96" viewBox="0 0 1200 96" fill="none" xmlns="http://www.w3.org/2000/svg">
<path fill-rule="evenodd" clip-rule="evenodd" d="M508.915 28.3364C509.653 28.3364 510.413 28.523 511.129 28.8962C513.521 30.179 514.46 33.2111 513.23 35.7068L510.815 40.6196C510.52 40.4603 510.157 40.4415 509.831 40.6044L505.566 42.6768L509.452 34.7739C509.72 34.2141 509.519 33.5144 508.96 33.2112C508.423 32.9313 507.753 33.1412 507.462 33.7243L503.624 41.5293L502.767 36.8259C502.702 36.46 502.478 36.165 502.184 36.0049L504.601 31.0886C505.45 29.3394 507.149 28.3364 508.915 28.3364ZM500.846 38.7275L501.97 44.8929L497.653 53.6713L496.53 47.5087L500.846 38.7275ZM503.915 46.0338L499.588 54.8333L505.159 52.1268L509.484 43.3285L503.915 46.0338ZM498.966 57.7011C498.69 57.834 498.374 57.9038 498.075 57.9104L496.906 60.2878L498.066 63.1502C498.374 63.6792 498.231 64.3614 497.737 64.698L493.069 68.0275C492.87 68.2202 492.602 68.3368 492.304 68.3368H482.802C482.176 68.3368 481.685 67.8237 481.685 67.1706C481.685 66.5175 482.176 66.0044 482.802 66.0044H491.16L491.058 61.3894L491.054 61.375L491.052 61.363C490.918 60.7333 491.298 60.1035 491.901 59.9636L494.911 59.2482L496.111 56.8081C495.969 56.5691 495.868 56.3029 495.814 56.0217L494.339 47.9284C494.249 47.4152 494.316 46.9021 494.54 46.4356L502.611 30.0156C503.818 27.5433 506.255 26.0039 508.915 26.0039C510.033 26.0039 511.151 26.2838 512.179 26.8202C515.645 28.6628 517.031 33.141 515.242 36.7562L507.171 53.1762C506.948 53.6427 506.568 54.0159 506.121 54.2258L498.966 57.7011ZM455.192 36.4761C455.192 34.4236 453.604 32.7676 451.637 32.7676C449.714 32.7676 448.127 34.4236 448.127 36.4761C448.127 38.5286 449.714 40.1379 451.637 40.1379C453.604 40.1379 455.192 38.5286 455.192 36.4761ZM448.977 44.7793V68.4764H454.342V44.7793H448.977ZM402.184 33.2578C410.859 33.2578 419.019 39.9284 419.019 51.2172C419.019 56.3251 417.342 60.5234 414.726 63.5322L418.639 68.1037L414.861 71.4623L410.792 66.8442C408.221 68.4069 405.202 69.2232 402.162 69.2232C393.488 69.2232 385.372 62.5526 385.372 51.2172C385.394 39.9284 393.51 33.2578 402.184 33.2578ZM402.185 63.6721C403.861 63.6721 405.583 63.3223 407.125 62.5526L401.67 56.2318L405.493 52.8265L410.993 59.1939C412.402 57.1881 413.274 54.5758 413.274 51.2172C413.274 42.8905 407.774 38.7622 402.162 38.7622C396.618 38.7622 391.096 42.8905 391.096 51.2172C391.118 59.5438 396.64 63.6721 402.185 63.6721ZM431.583 69.1766C426.173 69.1766 422.998 65.0016 422.998 59.7304V44.7798H428.408V58.7041C428.408 61.6196 429.705 64.1153 432.991 64.1153C436.121 64.1153 437.753 61.9228 437.753 58.8208V44.7798H443.164V64.1619C443.164 66.0978 443.298 67.6139 443.387 68.5002H438.201C438.111 67.9637 438.022 66.8442 438.022 65.8646C436.882 68.0104 434.243 69.1766 431.583 69.1766ZM460.177 68.5002V33.2578H465.588V68.5002H460.177ZM471.423 33.2578V68.5002H476.833V33.2578H471.423ZM493.309 62.0288L493.377 65.0012L495.707 63.3398L495.009 61.6196L493.309 62.0288Z" fill="#06806B"/>
<path d="M552.181 47.8086C552.181 47.4805 552.298 47.1992 552.532 46.9648C552.767 46.7305 553.042 46.6133 553.358 46.6133H565.241V34.748C565.241 34.4316 565.353 34.1562 565.575 33.9219C565.81 33.6875 566.091 33.5703 566.419 33.5703C566.747 33.5703 567.028 33.6875 567.263 33.9219C567.497 34.1562 567.614 34.4316 567.614 34.748V46.6133H579.462C579.79 46.6133 580.071 46.7305 580.306 46.9648C580.54 47.1992 580.657 47.4805 580.657 47.8086C580.657 48.1367 580.54 48.418 580.306 48.6523C580.071 48.875 579.79 48.9863 579.462 48.9863H567.614V60.8691C567.614 61.1855 567.497 61.4609 567.263 61.6953C567.028 61.9297 566.747 62.0469 566.419 62.0469C566.091 62.0469 565.81 61.9297 565.575 61.6953C565.353 61.4609 565.241 61.1855 565.241 60.8691V48.9863H553.358C553.042 48.9863 552.767 48.875 552.532 48.6523C552.298 48.418 552.181 48.1367 552.181 47.8086Z" fill="#878787"/>
<path fill-rule="evenodd" clip-rule="evenodd" d="M617.966 59.9781L626.3 68.3121L637.868 56.7497H625.754L618.901 49.8967L617.966 50.8256C616.744 52.0468 616.069 53.6643 616.069 55.3986C616.069 57.133 616.744 58.7569 617.966 59.9781ZM618.895 46.1098L623.065 41.9395H614.724L618.895 46.1098ZM634.634 36.0284L626.3 27.6944L614.724 39.2633H626.852L633.705 46.1162L634.634 45.1874C635.855 43.9597 636.53 42.3422 636.53 40.6079C636.53 38.8735 635.855 37.2496 634.634 36.0284ZM620.785 48L626.3 53.5149L631.814 48L626.3 42.4851L620.785 48ZM629.528 54.067H637.881L633.705 49.8903L629.528 54.067ZM636.394 47.2075L635.595 48H635.588L642.838 55.2492C642.922 55.3337 642.922 55.4636 642.838 55.548L626.449 71.9367C626.365 72.0211 626.235 72.0211 626.15 71.9367L616.075 61.8618C614.276 60.0625 613.315 57.6331 613.406 55.0673C613.484 52.7029 614.536 50.4749 616.212 48.799L617.011 48L609.762 40.7508C609.677 40.6664 609.677 40.5364 609.762 40.452L626.15 24.0633C626.228 23.9789 626.365 23.9789 626.449 24.0633L636.53 34.1447C638.336 35.9505 639.291 38.3734 639.2 40.9392C639.122 43.3036 638.07 45.5316 636.394 47.2075ZM661.558 44.3883V52.3781C661.558 54.4112 660.032 55.6194 657.479 55.6194C654.926 55.6194 653.4 54.4047 653.4 52.3781V44.3883C653.4 42.3617 654.926 41.147 657.479 41.147C660.032 41.147 661.558 42.3617 661.558 44.3883ZM657.479 38.2499C652.9 38.2499 650.165 40.4649 650.165 44.1675V52.6054C650.165 56.308 652.9 58.523 657.479 58.523C662.058 58.523 664.793 56.308 664.793 52.6054V44.1675C664.793 40.4584 662.058 38.2499 657.479 38.2499ZM669.464 58.2438H681.052V55.3402H672.698V49.8319H679.597V46.9608H672.698V41.4264H681.052V38.5294H669.464V58.2438ZM693.062 41.4264H690.016V41.4329V48.6432H693.062C695.563 48.6432 696.836 47.5974 696.836 45.5382V44.5314C696.836 42.4398 695.602 41.4264 693.062 41.4264ZM700.071 44.2781V45.6746V45.6811C700.071 48.6627 698.655 50.4814 695.855 51.0985L700.844 58.2503H697.096L697.07 58.2113L692.653 51.4298H690.016V58.2438H686.781V38.5294H693.121C697.798 38.5294 700.071 40.4066 700.071 44.2781ZM713.31 41.4264H716.415C718.954 41.4264 720.189 42.4398 720.189 44.5314V45.8175C720.189 47.8767 718.922 48.9225 716.415 48.9225H713.31V41.4329V41.4264ZM716.473 38.5294H710.081V58.2438H713.316V51.8196H716.473C721.15 51.8196 723.423 49.9358 723.423 46.0709V44.2845C723.423 40.4131 721.15 38.5358 716.473 38.5358V38.5294ZM733.985 41.4264H730.939V41.4329V48.6432H733.985C736.486 48.6432 737.759 47.5974 737.759 45.5382V44.5314C737.759 42.4398 736.525 41.4264 733.985 41.4264ZM740.994 44.2781V45.6746V45.6811C740.994 48.6627 739.578 50.4814 736.778 51.0985L741.767 58.2503H738.019L737.993 58.2113L733.576 51.4298H730.939V58.2438H727.704V38.5294H734.044C738.721 38.5294 740.994 40.4066 740.994 44.2781ZM755.941 44.3883V52.3781C755.941 54.4112 754.415 55.6194 751.862 55.6194C749.309 55.6194 747.782 54.4047 747.782 52.3781V44.3883C747.782 42.3617 749.309 41.147 751.862 41.147C754.415 41.147 755.941 42.3617 755.941 44.3883ZM751.862 38.2499C747.282 38.2499 744.548 40.4649 744.548 44.1675V52.6054C744.548 56.308 747.282 58.523 751.862 58.523C756.441 58.523 759.176 56.308 759.176 52.6054V44.1675C759.176 40.4584 756.441 38.2499 751.862 38.2499ZM769.569 41.4264H764.684H764.671V38.5294H772.823V52.2678C772.823 56.3016 770.595 58.5231 766.542 58.5231C765.282 58.5231 763.249 58.1854 762.235 57.6787L762.177 57.6462L762.917 54.9505L763.002 54.9895C763.515 55.2038 765.015 55.652 766.379 55.652C768.497 55.652 769.569 54.5218 769.569 52.2938V41.4264ZM777.812 58.2438H789.394V55.3402H781.047V49.8319H787.945V46.9608H781.047V41.4264H789.394V38.5294H777.812V58.2438ZM804.769 41.868C803.567 41.5172 801.768 41.147 800.319 41.147V41.1405C797.838 41.1405 796.539 42.1863 796.461 44.2454V52.508C796.539 54.5996 797.806 55.6129 800.319 55.6129C801.775 55.6129 803.574 55.2427 804.769 54.8919L804.847 54.8659L805.555 57.5876L805.49 57.6136C804.191 58.1657 801.606 58.5165 800.404 58.5165C795.708 58.5165 793.226 56.5288 793.226 52.7678V43.9986C793.226 40.2376 795.708 38.2499 800.404 38.2499C801.606 38.2499 804.191 38.6007 805.49 39.1528L805.555 39.1788L804.847 41.894L804.769 41.868ZM808.394 38.5294V41.4264H813.701V58.2438H816.962V41.4264H822.301V38.5294H808.394Z" fill="#373737"/>
<path fill-rule="evenodd" clip-rule="evenodd" d="M617.966 59.9781L626.3 68.3121L637.868 56.7497H625.754L618.901 49.8967L617.966 50.8256C616.744 52.0468 616.069 53.6643 616.069 55.3986C616.069 57.133 616.744 58.7569 617.966 59.9781ZM618.895 46.1098L623.065 41.9395H614.724L618.895 46.1098ZM634.634 36.0284L626.3 27.6944L614.724 39.2633H626.852L633.705 46.1162L634.634 45.1874C635.855 43.9597 636.53 42.3422 636.53 40.6079C636.53 38.8735 635.855 37.2496 634.634 36.0284ZM620.785 48L626.3 53.5149L631.814 48L626.3 42.4851L620.785 48ZM629.528 54.067H637.881L633.705 49.8903L629.528 54.067ZM636.394 47.2075L635.595 48H635.588L642.838 55.2492C642.922 55.3337 642.922 55.4636 642.838 55.548L626.449 71.9367C626.365 72.0211 626.235 72.0211 626.15 71.9367L616.075 61.8618C614.276 60.0625 613.315 57.6331 613.406 55.0673C613.484 52.7029 614.536 50.4749 616.212 48.799L617.011 48L609.762 40.7508C609.677 40.6664 609.677 40.5364 609.762 40.452L626.15 24.0633C626.228 23.9789 626.365 23.9789 626.449 24.0633L636.53 34.1447C638.336 35.9505 639.291 38.3734 639.2 40.9392C639.122 43.3036 638.07 45.5316 636.394 47.2075ZM661.558 44.3883V52.3781C661.558 54.4112 660.032 55.6194 657.479 55.6194C654.926 55.6194 653.4 54.4047 653.4 52.3781V44.3883C653.4 42.3617 654.926 41.147 657.479 41.147C660.032 41.147 661.558 42.3617 661.558 44.3883ZM657.479 38.2499C652.9 38.2499 650.165 40.4649 650.165 44.1675V52.6054C650.165 56.308 652.9 58.523 657.479 58.523C662.058 58.523 664.793 56.308 664.793 52.6054V44.1675C664.793 40.4584 662.058 38.2499 657.479 38.2499ZM669.464 58.2438H681.052V55.3402H672.698V49.8319H679.597V46.9608H672.698V41.4264H681.052V38.5294H669.464V58.2438ZM693.062 41.4264H690.016V41.4329V48.6432H693.062C695.563 48.6432 696.836 47.5974 696.836 45.5382V44.5314C696.836 42.4398 695.602 41.4264 693.062 41.4264ZM700.071 44.2781V45.6746V45.6811C700.071 48.6627 698.655 50.4814 695.855 51.0985L700.844 58.2503H697.096L697.07 58.2113L692.653 51.4298H690.016V58.2438H686.781V38.5294H693.121C697.798 38.5294 700.071 40.4066 700.071 44.2781ZM713.31 41.4264H716.415C718.954 41.4264 720.189 42.4398 720.189 44.5314V45.8175C720.189 47.8767 718.922 48.9225 716.415 48.9225H713.31V41.4329V41.4264ZM716.473 38.5294H710.081V58.2438H713.316V51.8196H716.473C721.15 51.8196 723.423 49.9358 723.423 46.0709V44.2845C723.423 40.4131 721.15 38.5358 716.473 38.5358V38.5294ZM733.985 41.4264H730.939V41.4329V48.6432H733.985C736.486 48.6432 737.759 47.5974 737.759 45.5382V44.5314C737.759 42.4398 736.525 41.4264 733.985 41.4264ZM740.994 44.2781V45.6746V45.6811C740.994 48.6627 739.578 50.4814 736.778 51.0985L741.767 58.2503H738.019L737.993 58.2113L733.576 51.4298H730.939V58.2438H727.704V38.5294H734.044C738.721 38.5294 740.994 40.4066 740.994 44.2781ZM755.941 44.3883V52.3781C755.941 54.4112 754.415 55.6194 751.862 55.6194C749.309 55.6194 747.782 54.4047 747.782 52.3781V44.3883C747.782 42.3617 749.309 41.147 751.862 41.147C754.415 41.147 755.941 42.3617 755.941 44.3883ZM751.862 38.2499C747.282 38.2499 744.548 40.4649 744.548 44.1675V52.6054C744.548 56.308 747.282 58.523 751.862 58.523C756.441 58.523 759.176 56.308 759.176 52.6054V44.1675C759.176 40.4584 756.441 38.2499 751.862 38.2499ZM769.569 41.4264H764.684H764.671V38.5294H772.823V52.2678C772.823 56.3016 770.595 58.5231 766.542 58.5231C765.282 58.5231 763.249 58.1854 762.235 57.6787L762.177 57.6462L762.917 54.9505L763.002 54.9895C763.515 55.2038 765.015 55.652 766.379 55.652C768.497 55.652 769.569 54.5218 769.569 52.2938V41.4264ZM777.812 58.2438H789.394V55.3402H781.047V49.8319H787.945V46.9608H781.047V41.4264H789.394V38.5294H777.812V58.2438ZM804.769 41.868C803.567 41.5172 801.768 41.147 800.319 41.147V41.1405C797.838 41.1405 796.539 42.1863 796.461 44.2454V52.508C796.539 54.5996 797.806 55.6129 800.319 55.6129C801.775 55.6129 803.574 55.2427 804.769 54.8919L804.847 54.8659L805.555 57.5876L805.49 57.6136C804.191 58.1657 801.606 58.5165 800.404 58.5165C795.708 58.5165 793.226 56.5288 793.226 52.7678V43.9986C793.226 40.2376 795.708 38.2499 800.404 38.2499C801.606 38.2499 804.191 38.6007 805.49 39.1528L805.555 39.1788L804.847 41.894L804.769 41.868ZM808.394 38.5294V41.4264H813.701V58.2438H816.962V41.4264H822.301V38.5294H808.394Z" fill="black" fill-opacity="0.2"/>
</svg>
