<svg width="71" height="88" viewBox="0 0 71 88" fill="none" xmlns="http://www.w3.org/2000/svg">
<path fill-rule="evenodd" clip-rule="evenodd" d="M67.6186 1.72022e-05C68.3485 -0.00254953 69.0498 0.282211 69.5717 0.792404L69.5716 0.792192C70.101 1.30436 70.3993 2.01022 70.3978 2.74672V21.313C70.3969 22.0421 70.107 22.741 69.5914 23.2567C69.0758 23.7723 68.3768 24.0622 67.6478 24.0631H44.0756L36.8931 29.9399C36.623 30.1608 36.2792 30.2708 35.9312 30.2479C35.5829 30.2247 35.2566 30.07 35.0182 29.8153C34.7799 29.5604 34.6473 29.2246 34.6473 28.8757V2.77501C34.6524 2.04276 34.9477 1.34267 35.468 0.827891C35.9885 0.312836 36.6917 0.0252265 37.4239 0.0278046L67.616 1.72022e-05H67.6186ZM43.5851 21.313H67.6479L67.6481 2.76179L37.4267 2.77783L37.4009 25.9715L42.7143 21.6239C42.9601 21.4228 43.2677 21.313 43.5851 21.313ZM42.2067 33.6887H9.20587C8.71458 33.6887 8.2608 33.9509 8.01505 34.3763C7.76955 34.8017 7.76955 35.3259 8.01505 35.7513C8.26084 36.1767 8.7146 36.4388 9.20587 36.4388H42.2067C42.698 36.4388 43.1518 36.1767 43.3975 35.7513C43.643 35.3259 43.643 34.8017 43.3975 34.3763C43.1517 33.9509 42.698 33.6887 42.2067 33.6887ZM42.2067 40.5632H9.20587C8.71458 40.5632 8.2608 40.8253 8.01505 41.2507C7.76955 41.6761 7.76955 42.2003 8.01505 42.6257C8.26084 43.0511 8.7146 43.3132 9.20587 43.3132H42.2067C42.698 43.3132 43.1518 43.0511 43.3975 42.6257C43.643 42.2003 43.643 41.6761 43.3975 41.2507C43.1517 40.8253 42.698 40.5632 42.2067 40.5632ZM9.20587 47.4391H42.2067C42.698 47.4391 43.1517 47.7012 43.3975 48.1266C43.643 48.552 43.643 49.0762 43.3975 49.5016C43.1518 49.927 42.698 50.1891 42.2067 50.1891H9.20587C8.7146 50.1891 8.26084 49.927 8.01505 49.5016C7.76955 49.0762 7.76955 48.552 8.01505 48.1266C8.2608 47.7012 8.71458 47.4391 9.20587 47.4391ZM42.2067 54.3135H9.20587C8.71458 54.3135 8.2608 54.5756 8.01505 55.001C7.76955 55.4264 7.76955 55.9506 8.01505 56.376C8.26084 56.8015 8.7146 57.0636 9.20587 57.0636H42.2067C42.698 57.0636 43.1518 56.8015 43.3975 56.376C43.643 55.9506 43.643 55.4264 43.3975 55.001C43.1517 54.5756 42.698 54.3135 42.2067 54.3135ZM9.20587 61.1894H42.2067C42.698 61.1894 43.1517 61.4515 43.3975 61.8769C43.643 62.3024 43.643 62.8266 43.3975 63.252C43.1518 63.6774 42.698 63.9395 42.2067 63.9395H9.20587C8.7146 63.9395 8.26084 63.6774 8.01505 63.252C7.76955 62.8266 7.76955 62.3023 8.01505 61.8769C8.2608 61.4515 8.71458 61.1894 9.20587 61.1894ZM42.2067 68.0639H9.20587C8.71458 68.0639 8.2608 68.326 8.01505 68.7514C7.76955 69.1768 7.76955 69.701 8.01505 70.1264C8.26084 70.5518 8.7146 70.8139 9.20587 70.8139H42.2067C42.698 70.8139 43.1518 70.5518 43.3975 70.1264C43.643 69.701 43.643 69.1768 43.3975 68.7514C43.1517 68.326 42.698 68.0639 42.2067 68.0639ZM42.8939 13.7504H45.6439C46.1352 13.7504 46.589 13.4883 46.8348 13.0629C47.0803 12.6375 47.0803 12.1132 46.8348 11.6878C46.589 11.2624 46.1352 11.0003 45.6439 11.0003H42.8939C42.4026 11.0003 41.9488 11.2624 41.7031 11.6878C41.4576 12.1132 41.4576 12.6374 41.7031 13.0629C41.9488 13.4883 42.4026 13.7504 42.8939 13.7504ZM53.8941 13.7504H51.1441C50.6528 13.7504 50.1991 13.4883 49.9533 13.0629C49.7078 12.6374 49.7078 12.1132 49.9533 11.6878C50.199 11.2624 50.6528 11.0003 51.1441 11.0003H53.8941C54.3854 11.0003 54.8392 11.2624 55.085 11.6878C55.3305 12.1132 55.3305 12.6375 55.085 13.0629C54.8392 13.4883 54.3854 13.7504 53.8941 13.7504ZM59.3943 13.7504H62.1444C62.6356 13.7504 63.0894 13.4883 63.3352 13.0629C63.5807 12.6375 63.5807 12.1132 63.3352 11.6878C63.0894 11.2624 62.6356 11.0003 62.1444 11.0003H59.3943C58.903 11.0003 58.4492 11.2624 58.2035 11.6878C57.958 12.1132 57.958 12.6374 58.2035 13.0629C58.4493 13.4883 58.903 13.7504 59.3943 13.7504ZM40.8317 73.5625H48.394L48.3948 26.8106H51.1448V75.5066L38.6514 88H4.39366C3.29994 87.9989 2.25146 87.5637 1.478 86.7906C0.70484 86.0171 0.269701 84.9686 0.268555 83.8749V20.6233C0.269655 19.5296 0.704825 18.4811 1.478 17.7077C2.25146 16.9345 3.29994 16.4994 4.39366 16.4982H31.8943V19.2483H4.39366C4.02898 19.2486 3.67949 19.3935 3.42167 19.6514C3.16386 19.9092 3.0189 20.2587 3.01862 20.6233V83.8749C3.0189 84.2396 3.16385 84.5891 3.42167 84.8469C3.6795 85.1047 4.02898 85.2497 4.39366 85.25H36.7066V77.6876C36.7077 76.5939 37.1429 75.5454 37.916 74.772C38.6895 73.9988 39.738 73.5637 40.8317 73.5625ZM39.4559 77.688V83.3058L46.4488 76.313H40.831C40.4663 76.3132 40.1168 76.4582 39.859 76.716C39.6012 76.9738 39.4562 77.3233 39.4559 77.688Z" fill="#2C7F9B"/>
</svg>
