<?xml version="1.0" encoding="UTF-8"?>
<svg width="631px" height="404px" viewBox="0 0 631 404" version="1.1" xmlns="http://www.w3.org/2000/svg" xmlns:xlink="http://www.w3.org/1999/xlink">
    <!-- Generator: Sketch 43.2 (39069) - http://www.bohemiancoding.com/sketch -->
    <title>Group 14</title>
    <desc>Created with Sketch.</desc>
    <defs>
        <path d="M0,2.99842243 C0,1.34243945 1.33431682,0 2.99059273,0 L572.009407,0 C573.661066,0 575,1.34975187 575,2.99842243 L575,335 L0,335 L0,2.99842243 Z" id="path-1"></path>
        <filter x="-2.0%" y="-2.8%" width="104.0%" height="106.9%" filterUnits="objectBoundingBox" id="filter-2">
            <feMorphology radius="0.5" operator="dilate" in="SourceAlpha" result="shadowSpreadOuter1"></feMorphology>
            <feOffset dx="0" dy="2" in="shadowSpreadOuter1" result="shadowOffsetOuter1"></feOffset>
            <feGaussianBlur stdDeviation="3" in="shadowOffsetOuter1" result="shadowBlurOuter1"></feGaussianBlur>
            <feComposite in="shadowBlurOuter1" in2="SourceAlpha" operator="out" result="shadowBlurOuter1"></feComposite>
            <feColorMatrix values="0 0 0 0 0.91372549   0 0 0 0 0.91372549   0 0 0 0 0.91372549  0 0 0 1 0" type="matrix" in="shadowBlurOuter1"></feColorMatrix>
        </filter>
        <path d="M208.251526,55 L207,55 L207,75.7024713 L208.430316,75.7024713 L208.430316,65.2320595 L221.875283,65.2320595 L216.32574,60.1160298 L221.875283,55 L208.251526,55 Z" id="path-3"></path>
        <filter x="-6.7%" y="-4.8%" width="113.4%" height="109.7%" filterUnits="objectBoundingBox" id="filter-4">
            <feGaussianBlur stdDeviation="0.5" in="SourceAlpha" result="shadowBlurInner1"></feGaussianBlur>
            <feOffset dx="0" dy="1" in="shadowBlurInner1" result="shadowOffsetInner1"></feOffset>
            <feComposite in="shadowOffsetInner1" in2="SourceAlpha" operator="arithmetic" k2="-1" k3="1" result="shadowInnerInner1"></feComposite>
            <feColorMatrix values="0 0 0 0 0.752941176   0 0 0 0 0.752941176   0 0 0 0 0.752941176  0 0 0 1 0" type="matrix" in="shadowInnerInner1"></feColorMatrix>
        </filter>
        <linearGradient x1="50%" y1="-33.1442967%" x2="50%" y2="63.4646223%" id="linearGradient-5">
            <stop stop-color="#FFFFFF" stop-opacity="0" offset="0%"></stop>
            <stop stop-color="#FFFFFF" stop-opacity="0" offset="35.6008021%"></stop>
            <stop stop-color="#FFFFFF" stop-opacity="0.958192313" offset="45.6612723%"></stop>
            <stop stop-color="#FEFEFE" stop-opacity="0.965664175" offset="64.2079879%"></stop>
            <stop stop-color="#FEFEFE" offset="100%"></stop>
        </linearGradient>
    </defs>
    <g id="V1" stroke="none" stroke-width="1" fill="none" fill-rule="evenodd">
        <g id="12_00-Guide-4" transform="translate(-368.000000, -109.000000)">
            <g id="Group-14" transform="translate(368.000000, 114.000000)">
                <g id="Group" transform="translate(26.000000, 0.000000)">
                    <g id="Rectangle-14-Copy-2">
                        <use fill="black" fill-opacity="1" filter="url(#filter-2)" xlink:href="#path-1"></use>
                        <use fill="#FAFAFA" fill-rule="evenodd" xlink:href="#path-1"></use>
                        <path stroke="#E9E9E9" stroke-width="1" d="M574.5,334.5 L0.5,334.5 L0.5,2.99842243 C0.5,1.61657006 1.61246675,0.5 2.99059273,0.5 L572.009407,0.5 C573.381927,0.5 574.5,1.62288884 574.5,2.99842243 L574.5,334.5 Z"></path>
                    </g>
                    <rect id="Rectangle" fill="#FFFFFF" x="18" y="17" width="538" height="318"></rect>
                    <g id="Group-7" transform="translate(47.000000, 88.000000)">
                        <g id="Group-4">
                            <path d="M0,90.2804878 L476.275387,90.2804878" id="Line-Copy-23" stroke="#E9E9E9" stroke-linecap="square"></path>
                            <path d="M0,138.426829 L476.275387,138.426829" id="Line-Copy-24" stroke="#E9E9E9" stroke-linecap="square"></path>
                            <text id="Enid-Blyton" font-family="AdelleSans-Regular, Adelle Sans" font-size="18" font-weight="normal" fill="#3B3B3B">
                                <tspan x="1" y="119">Enid Blyton</tspan>
                            </text>
                            <path d="M208.25,101 L207,101 L207,121.702471 L208.428571,121.702471 L208.428571,111.23206 L221.857143,111.23206 L216.314367,106.11603 L221.857143,101 L208.25,101 Z" id="Combined-Shape-Copy-24" fill="#5AAEF6"></path>
                            <text id="Margaret-Atwood" font-family="AdelleSans-Regular, Adelle Sans" font-size="18" font-weight="normal" fill="#3B3B3B">
                                <tspan x="1" y="21">Margaret Atwood</tspan>
                            </text>
                            <text id="Jane-Austen" font-family="AdelleSans-Regular, Adelle Sans" font-size="18" font-weight="normal" fill="#3B3B3B">
                                <tspan x="1" y="72">Jane Austen</tspan>
                            </text>
                            <g id="Combined-Shape-Copy-18">
                                <use fill="#E9E9E9" fill-rule="evenodd" xlink:href="#path-3"></use>
                                <use fill="black" fill-opacity="1" filter="url(#filter-4)" xlink:href="#path-3"></use>
                            </g>
                            <path d="M208.251526,4 L207,4 L207,24.7024713 L208.430316,24.7024713 L208.430316,14.2320595 L221.875283,14.2320595 L216.32574,9.11602977 L221.875283,4 L208.251526,4 Z" id="Combined-Shape-Copy-21" fill="#5AAEF6"></path>
                            <path d="M1.43712575,40.9878049 L478.571532,40.9878049" id="Line-Copy-20" stroke="#E9E9E9" stroke-linecap="square"></path>
                        </g>
                    </g>
                    <text id="Students-Copy" font-family="AdelleSans-SemiBold, Adelle Sans" font-size="12" font-weight="500" fill="#C0C0C0">
                        <tspan x="47" y="59">Students</tspan>
                    </text>
                    <text id="Answers-Copy" font-family="AdelleSans-SemiBold, Adelle Sans" font-size="12" font-weight="500" fill="#C0C0C0">
                        <tspan x="318" y="59">Answers</tspan>
                    </text>
                    <text id="Flag-Copy" font-family="AdelleSans-SemiBold, Adelle Sans" font-size="12" font-weight="500" fill="#C0C0C0">
                        <tspan x="247" y="59">Flag</tspan>
                    </text>
                    <polygon id="Path-4" fill="#D8D8D8" points="381 56 390 56 385.5 61"></polygon>
                    <polygon id="Path-4" fill="#D8D8D8" points="111 56 120 56 115.5 61"></polygon>
                    <polygon id="Path-4-Copy" fill="#D8D8D8" points="280 56 289 56 284.5 61"></polygon>
                    <path d="M321.888,97 L319.152,97 L319.152,88.312 L322.14,88.312 C324.192,88.312 324.756,89.248 324.756,90.436 C324.756,91.66 323.976,92.26 323.028,92.476 L323.028,92.5 C324.444,92.68 325.104,93.448 325.104,94.648 C325.104,96.424 323.772,97 321.888,97 Z M320.244,96.076 L321.732,96.076 C322.992,96.076 323.94,95.884 323.94,94.576 C323.94,93.424 323.076,93.028 321.972,93.028 L320.244,93.028 L320.244,96.076 Z M320.244,92.116 L321.504,92.116 C322.452,92.116 323.64,91.852 323.64,90.592 C323.64,89.512 323.016,89.224 321.828,89.224 L320.244,89.224 L320.244,92.116 Z M328.968,97.144 C326.784,97.144 326.124,95.62 326.124,93.928 C326.124,91.672 327.444,90.7 329.028,90.7 C330.756,90.7 331.476,91.84 331.476,93.364 C331.476,93.604 331.464,93.88 331.428,94.168 L327.276,94.168 C327.324,95.74 328.02,96.232 329.004,96.232 C329.88,96.232 330.288,95.836 330.456,95.14 L331.416,95.356 C331.164,96.556 330.204,97.144 328.968,97.144 Z M327.288,93.304 L330.348,93.304 C330.348,92.2 329.928,91.588 328.956,91.588 C328.14,91.588 327.348,92.08 327.288,93.304 Z M336.156,88.024 C335.952,87.928 335.532,87.82 335.028,87.82 C333.852,87.82 333.192,88.48 333.192,89.836 L333.192,90.832 L332.28,90.832 L332.28,91.708 L333.192,91.708 L333.192,97 L334.284,97 L334.284,91.708 L336,91.708 L336,90.832 L334.284,90.832 L334.284,89.8 C334.284,88.936 334.68,88.708 335.244,88.708 C335.532,88.708 335.868,88.78 336.108,88.864 L336.156,88.024 Z M339.444,97.144 C337.308,97.144 336.6,95.764 336.6,93.94 C336.6,91.948 337.632,90.7 339.6,90.7 C341.556,90.7 342.36,91.96 342.36,93.796 C342.36,95.824 341.52,97.144 339.444,97.144 Z M339.504,96.268 C340.572,96.268 341.22,95.62 341.22,93.868 C341.22,92.164 340.62,91.6 339.552,91.6 C338.46,91.6 337.728,92.248 337.728,93.892 C337.728,95.524 338.304,96.268 339.504,96.268 Z M347.196,90.712 C347.124,90.712 347.04,90.7 346.968,90.7 C346.104,90.7 345.456,90.988 344.916,91.72 L344.832,90.832 L343.92,90.832 L343.92,97 L345.012,97 L345.012,92.512 C345.516,92.044 346.428,91.732 347.196,91.84 L347.196,90.712 Z M350.748,97.144 C348.564,97.144 347.904,95.62 347.904,93.928 C347.904,91.672 349.224,90.7 350.808,90.7 C352.536,90.7 353.256,91.84 353.256,93.364 C353.256,93.604 353.244,93.88 353.208,94.168 L349.056,94.168 C349.104,95.74 349.8,96.232 350.784,96.232 C351.66,96.232 352.068,95.836 352.236,95.14 L353.196,95.356 C352.944,96.556 351.984,97.144 350.748,97.144 Z M349.068,93.304 L352.128,93.304 C352.128,92.2 351.708,91.588 350.736,91.588 C349.92,91.588 349.128,92.08 349.068,93.304 Z M361.92,92.824 L361.92,95.836 C361.92,96.172 361.98,96.316 362.292,96.316 C362.4,96.316 362.508,96.292 362.664,96.244 L362.712,96.928 C362.472,97.048 362.16,97.12 361.86,97.12 C361.248,97.12 360.972,96.784 360.912,96.388 C360.432,96.868 359.796,97.144 358.932,97.144 C357.372,97.144 357.108,96.088 357.108,95.488 C357.108,93.844 358.56,93.388 360.3,93.388 C360.492,93.388 360.672,93.4 360.84,93.412 L360.84,92.812 C360.84,92.032 360.624,91.552 359.616,91.552 C358.764,91.552 358.44,91.888 358.308,92.572 L357.348,92.392 C357.54,91.24 358.284,90.7 359.712,90.7 C361.236,90.7 361.92,91.288 361.92,92.824 Z M360.852,95.596 L360.852,94.204 C360.684,94.18 360.456,94.168 360.228,94.168 C359.376,94.168 358.236,94.252 358.236,95.308 C358.236,95.836 358.428,96.292 359.268,96.292 C359.904,96.292 360.516,95.956 360.852,95.596 Z M369.768,95.944 C369.504,96.088 369.06,96.244 368.688,96.244 C367.944,96.244 367.8,95.884 367.8,95.236 L367.8,91.708 L369.504,91.708 L369.504,90.832 L367.8,90.832 L367.8,88.876 L366.708,89.044 L366.708,90.832 L365.76,90.832 L365.76,91.708 L366.708,91.708 L366.708,95.38 C366.708,96.616 367.296,97.144 368.448,97.144 C369.024,97.144 369.66,96.94 369.96,96.736 L369.768,95.944 Z M373.068,90.7 C371.82,90.7 370.788,91.312 370.788,92.56 C370.788,94 372,94.216 373.008,94.42 C373.848,94.588 374.352,94.708 374.352,95.392 C374.352,96.052 373.812,96.28 373.068,96.28 C371.976,96.28 371.7,95.752 371.532,95.092 L370.56,95.356 C370.752,96.592 371.604,97.144 373.02,97.144 C374.52,97.144 375.432,96.448 375.432,95.272 C375.432,93.892 374.364,93.664 373.236,93.424 C372.372,93.244 371.868,93.064 371.868,92.428 C371.868,91.96 372.156,91.564 373.056,91.564 C373.956,91.564 374.196,91.996 374.34,92.704 L375.324,92.488 C375.132,91.396 374.532,90.7 373.068,90.7 Z M376.884,95.02 C376.884,96.4 377.46,97.12 378.768,97.12 C379.62,97.12 380.352,96.784 380.952,96.292 L381.024,97 L381.972,97 L381.972,90.832 L380.88,90.832 L380.88,95.416 C380.556,95.716 379.8,96.172 379.092,96.172 C378.18,96.172 377.976,95.704 377.976,94.852 L377.976,90.832 L376.884,90.832 L376.884,95.02 Z M389.016,92.812 C389.016,91.42 388.44,90.7 387.12,90.7 C386.268,90.7 385.5,91.084 384.9,91.564 L384.84,90.832 L383.88,90.832 L383.88,97 L384.972,97 L384.972,92.404 C385.296,92.116 386.064,91.66 386.772,91.66 C387.612,91.66 387.924,92.128 387.924,92.98 L387.924,97 L389.016,97 L389.016,92.812 Z M395.376,92.824 L395.376,95.836 C395.376,96.172 395.436,96.316 395.748,96.316 C395.856,96.316 395.964,96.292 396.12,96.244 L396.168,96.928 C395.928,97.048 395.616,97.12 395.316,97.12 C394.704,97.12 394.428,96.784 394.368,96.388 C393.888,96.868 393.252,97.144 392.388,97.144 C390.828,97.144 390.564,96.088 390.564,95.488 C390.564,93.844 392.016,93.388 393.756,93.388 C393.948,93.388 394.128,93.4 394.296,93.412 L394.296,92.812 C394.296,92.032 394.08,91.552 393.072,91.552 C392.22,91.552 391.896,91.888 391.764,92.572 L390.804,92.392 C390.996,91.24 391.74,90.7 393.168,90.7 C394.692,90.7 395.376,91.288 395.376,92.824 Z M394.308,95.596 L394.308,94.204 C394.14,94.18 393.912,94.168 393.684,94.168 C392.832,94.168 391.692,94.252 391.692,95.308 C391.692,95.836 391.884,96.292 392.724,96.292 C393.36,96.292 393.972,95.956 394.308,95.596 Z M398.496,92.392 C398.82,92.092 399.576,91.66 400.2,91.66 C400.992,91.66 401.16,92.128 401.16,92.956 L401.16,97 L402.252,97 L402.252,92.8 C402.252,92.644 402.24,92.488 402.228,92.344 C402.588,92.044 403.296,91.66 403.884,91.66 C404.676,91.66 404.844,92.128 404.844,92.956 L404.844,97 L405.936,97 L405.936,92.8 C405.936,91.42 405.48,90.7 404.184,90.7 C403.344,90.7 402.648,91.072 402.048,91.552 C401.808,90.976 401.316,90.7 400.5,90.7 C399.66,90.7 399.012,91.06 398.4,91.528 L398.34,90.832 L397.404,90.832 L397.404,97 L398.496,97 L398.496,92.392 Z M408.888,90.832 L407.796,90.832 L407.796,97 L408.888,97 L408.888,90.832 Z M409.14,88.852 C409.14,88.348 408.852,88.072 408.36,88.072 C407.868,88.072 407.592,88.348 407.592,88.852 C407.592,89.356 407.868,89.644 408.36,89.644 C408.852,89.644 409.14,89.356 409.14,88.852 Z M414.444,90.832 L413.352,90.832 L413.352,97 L414.444,97 L414.444,90.832 Z M414.696,88.852 C414.696,88.348 414.408,88.072 413.916,88.072 C413.424,88.072 413.148,88.348 413.148,88.852 C413.148,89.356 413.424,89.644 413.916,89.644 C414.408,89.644 414.696,89.356 414.696,88.852 Z M418.344,90.7 C417.096,90.7 416.064,91.312 416.064,92.56 C416.064,94 417.276,94.216 418.284,94.42 C419.124,94.588 419.628,94.708 419.628,95.392 C419.628,96.052 419.088,96.28 418.344,96.28 C417.252,96.28 416.976,95.752 416.808,95.092 L415.836,95.356 C416.028,96.592 416.88,97.144 418.296,97.144 C419.796,97.144 420.708,96.448 420.708,95.272 C420.708,93.892 419.64,93.664 418.512,93.424 C417.648,93.244 417.144,93.064 417.144,92.428 C417.144,91.96 417.432,91.564 418.332,91.564 C419.232,91.564 419.472,91.996 419.616,92.704 L420.6,92.488 C420.408,91.396 419.808,90.7 418.344,90.7 Z M427.212,97.144 C425.076,97.144 424.368,95.764 424.368,93.94 C424.368,91.948 425.4,90.7 427.368,90.7 C429.324,90.7 430.128,91.96 430.128,93.796 C430.128,95.824 429.288,97.144 427.212,97.144 Z M427.272,96.268 C428.34,96.268 428.988,95.62 428.988,93.868 C428.988,92.164 428.388,91.6 427.32,91.6 C426.228,91.6 425.496,92.248 425.496,93.892 C425.496,95.524 426.072,96.268 427.272,96.268 Z M434.388,97 L436.704,90.832 L435.588,90.832 L433.8,95.908 L433.788,95.908 L431.976,90.832 L430.788,90.832 L433.14,97 L434.388,97 Z M440.208,97.144 C438.024,97.144 437.364,95.62 437.364,93.928 C437.364,91.672 438.684,90.7 440.268,90.7 C441.996,90.7 442.716,91.84 442.716,93.364 C442.716,93.604 442.704,93.88 442.668,94.168 L438.516,94.168 C438.564,95.74 439.26,96.232 440.244,96.232 C441.12,96.232 441.528,95.836 441.696,95.14 L442.656,95.356 C442.404,96.556 441.444,97.144 440.208,97.144 Z M438.528,93.304 L441.588,93.304 C441.588,92.2 441.168,91.588 440.196,91.588 C439.38,91.588 438.588,92.08 438.528,93.304 Z M447.576,90.712 C447.504,90.712 447.42,90.7 447.348,90.7 C446.484,90.7 445.836,90.988 445.296,91.72 L445.212,90.832 L444.3,90.832 L444.3,97 L445.392,97 L445.392,92.512 C445.896,92.044 446.808,91.732 447.576,91.84 L447.576,90.712 Z M455.748,92.824 L455.748,95.836 C455.748,96.172 455.808,96.316 456.12,96.316 C456.228,96.316 456.336,96.292 456.492,96.244 L456.54,96.928 C456.3,97.048 455.988,97.12 455.688,97.12 C455.076,97.12 454.8,96.784 454.74,96.388 C454.26,96.868 453.624,97.144 452.76,97.144 C451.2,97.144 450.936,96.088 450.936,95.488 C450.936,93.844 452.388,93.388 454.128,93.388 C454.32,93.388 454.5,93.4 454.668,93.412 L454.668,92.812 C454.668,92.032 454.452,91.552 453.444,91.552 C452.592,91.552 452.268,91.888 452.136,92.572 L451.176,92.392 C451.368,91.24 452.112,90.7 453.54,90.7 C455.064,90.7 455.748,91.288 455.748,92.824 Z M454.68,95.596 L454.68,94.204 C454.512,94.18 454.284,94.168 454.056,94.168 C453.204,94.168 452.064,94.252 452.064,95.308 C452.064,95.836 452.256,96.292 453.096,96.292 C453.732,96.292 454.344,95.956 454.68,95.596 Z M462.912,92.812 C462.912,91.42 462.336,90.7 461.016,90.7 C460.164,90.7 459.396,91.084 458.796,91.564 L458.736,90.832 L457.776,90.832 L457.776,97 L458.868,97 L458.868,92.404 C459.192,92.116 459.96,91.66 460.668,91.66 C461.508,91.66 461.82,92.128 461.82,92.98 L461.82,97 L462.912,97 L462.912,92.812 Z M469.788,87.94 L469.788,97 L468.876,97 L468.792,96.34 L468.78,96.328 C468.252,96.808 467.628,97.144 466.74,97.144 C465.336,97.144 464.388,96.256 464.388,94.012 C464.388,91.576 465.624,90.7 466.992,90.7 C467.7,90.7 468.288,90.928 468.72,91.276 L468.72,87.94 L469.788,87.94 Z M468.708,95.476 L468.708,92.176 C468.42,91.96 467.844,91.636 467.136,91.636 C465.948,91.636 465.516,92.584 465.516,94.012 C465.516,95.512 465.984,96.232 467.064,96.232 C467.7,96.232 468.324,95.86 468.708,95.476 Z M476.7,97.144 C477.936,97.144 479.028,96.544 479.232,95.116 L478.272,94.912 C478.116,95.824 477.576,96.232 476.736,96.232 C475.752,96.232 475.008,95.68 475.008,93.844 C475.008,92.092 475.884,91.612 476.772,91.612 C477.636,91.612 478.056,92.08 478.152,92.992 L479.196,92.848 C479.112,91.42 478.2,90.7 476.82,90.7 C474.972,90.7 473.868,91.828 473.868,93.976 C473.868,95.824 474.66,97.144 476.7,97.144 Z M483.168,97.144 C481.032,97.144 480.324,95.764 480.324,93.94 C480.324,91.948 481.356,90.7 483.324,90.7 C485.28,90.7 486.084,91.96 486.084,93.796 C486.084,95.824 485.244,97.144 483.168,97.144 Z M483.228,96.268 C484.296,96.268 484.944,95.62 484.944,93.868 C484.944,92.164 484.344,91.6 483.276,91.6 C482.184,91.6 481.452,92.248 481.452,93.892 C481.452,95.524 482.028,96.268 483.228,96.268 Z M492.156,92.824 L492.156,95.836 C492.156,96.172 492.216,96.316 492.528,96.316 C492.636,96.316 492.744,96.292 492.9,96.244 L492.948,96.928 C492.708,97.048 492.396,97.12 492.096,97.12 C491.484,97.12 491.208,96.784 491.148,96.388 C490.668,96.868 490.032,97.144 489.168,97.144 C487.608,97.144 487.344,96.088 487.344,95.488 C487.344,93.844 488.796,93.388 490.536,93.388 C490.728,93.388 490.908,93.4 491.076,93.412 L491.076,92.812 C491.076,92.032 490.86,91.552 489.852,91.552 C489,91.552 488.676,91.888 488.544,92.572 L487.584,92.392 C487.776,91.24 488.52,90.7 489.948,90.7 C491.472,90.7 492.156,91.288 492.156,92.824 Z M491.088,95.596 L491.088,94.204 C490.92,94.18 490.692,94.168 490.464,94.168 C489.612,94.168 488.472,94.252 488.472,95.308 C488.472,95.836 488.664,96.292 489.504,96.292 C490.14,96.292 490.752,95.956 491.088,95.596 Z M496.188,90.7 C494.94,90.7 493.908,91.312 493.908,92.56 C493.908,94 495.12,94.216 496.128,94.42 C496.968,94.588 497.472,94.708 497.472,95.392 C497.472,96.052 496.932,96.28 496.188,96.28 C495.096,96.28 494.82,95.752 494.652,95.092 L493.68,95.356 C493.872,96.592 494.724,97.144 496.14,97.144 C497.64,97.144 498.552,96.448 498.552,95.272 C498.552,93.892 497.484,93.664 496.356,93.424 C495.492,93.244 494.988,93.064 494.988,92.428 C494.988,91.96 495.276,91.564 496.176,91.564 C497.076,91.564 497.316,91.996 497.46,92.704 L498.444,92.488 C498.252,91.396 497.652,90.7 496.188,90.7 Z M503.28,95.944 C503.016,96.088 502.572,96.244 502.2,96.244 C501.456,96.244 501.312,95.884 501.312,95.236 L501.312,91.708 L503.016,91.708 L503.016,90.832 L501.312,90.832 L501.312,88.876 L500.22,89.044 L500.22,90.832 L499.272,90.832 L499.272,91.708 L500.22,91.708 L500.22,95.38 C500.22,96.616 500.808,97.144 501.96,97.144 C502.536,97.144 503.172,96.94 503.472,96.736 L503.28,95.944 Z M509.088,92.824 L509.088,95.836 C509.088,96.172 509.148,96.316 509.46,96.316 C509.568,96.316 509.676,96.292 509.832,96.244 L509.88,96.928 C509.64,97.048 509.328,97.12 509.028,97.12 C508.416,97.12 508.14,96.784 508.08,96.388 C507.6,96.868 506.964,97.144 506.1,97.144 C504.54,97.144 504.276,96.088 504.276,95.488 C504.276,93.844 505.728,93.388 507.468,93.388 C507.66,93.388 507.84,93.4 508.008,93.412 L508.008,92.812 C508.008,92.032 507.792,91.552 506.784,91.552 C505.932,91.552 505.608,91.888 505.476,92.572 L504.516,92.392 C504.708,91.24 505.452,90.7 506.88,90.7 C508.404,90.7 509.088,91.288 509.088,92.824 Z M508.02,95.596 L508.02,94.204 C507.852,94.18 507.624,94.168 507.396,94.168 C506.544,94.168 505.404,94.252 505.404,95.308 C505.404,95.836 505.596,96.292 506.436,96.292 C507.072,96.292 507.684,95.956 508.02,95.596 Z M512.208,87.94 L511.116,87.94 L511.116,97 L512.208,97 L512.208,87.94 Z M322.224,111.944 C321.96,112.088 321.516,112.244 321.144,112.244 C320.4,112.244 320.256,111.884 320.256,111.236 L320.256,107.708 L321.96,107.708 L321.96,106.832 L320.256,106.832 L320.256,104.876 L319.164,105.044 L319.164,106.832 L318.216,106.832 L318.216,107.708 L319.164,107.708 L319.164,111.38 C319.164,112.616 319.752,113.144 320.904,113.144 C321.48,113.144 322.116,112.94 322.416,112.736 L322.224,111.944 Z M325.98,113.144 C323.844,113.144 323.136,111.764 323.136,109.94 C323.136,107.948 324.168,106.7 326.136,106.7 C328.092,106.7 328.896,107.96 328.896,109.796 C328.896,111.824 328.056,113.144 325.98,113.144 Z M326.04,112.268 C327.108,112.268 327.756,111.62 327.756,109.868 C327.756,108.164 327.156,107.6 326.088,107.6 C324.996,107.6 324.264,108.248 324.264,109.892 C324.264,111.524 324.84,112.268 326.04,112.268 Z M332.784,113 L334.044,108.14 L334.056,108.14 L335.328,113 L336.6,113 L338.52,106.832 L337.464,106.832 L336,111.824 L335.988,111.824 L334.644,106.832 L333.516,106.832 L332.16,111.848 L330.66,106.832 L329.556,106.832 L331.488,113 L332.784,113 Z M344.7,108.812 C344.7,107.42 344.124,106.7 342.804,106.7 C341.952,106.7 341.184,107.084 340.584,107.564 L340.524,106.832 L339.564,106.832 L339.564,113 L340.656,113 L340.656,108.404 C340.98,108.116 341.748,107.66 342.456,107.66 C343.296,107.66 343.608,108.128 343.608,108.98 L343.608,113 L344.7,113 L344.7,108.812 Z M348.552,106.7 C347.304,106.7 346.272,107.312 346.272,108.56 C346.272,110 347.484,110.216 348.492,110.42 C349.332,110.588 349.836,110.708 349.836,111.392 C349.836,112.052 349.296,112.28 348.552,112.28 C347.46,112.28 347.184,111.752 347.016,111.092 L346.044,111.356 C346.236,112.592 347.088,113.144 348.504,113.144 C350.004,113.144 350.916,112.448 350.916,111.272 C350.916,109.892 349.848,109.664 348.72,109.424 C347.856,109.244 347.352,109.064 347.352,108.428 C347.352,107.96 347.64,107.564 348.54,107.564 C349.44,107.564 349.68,107.996 349.824,108.704 L350.808,108.488 C350.616,107.396 350.016,106.7 348.552,106.7 Z M357.408,113.144 C358.644,113.144 359.736,112.544 359.94,111.116 L358.98,110.912 C358.824,111.824 358.284,112.232 357.444,112.232 C356.46,112.232 355.716,111.68 355.716,109.844 C355.716,108.092 356.592,107.612 357.48,107.612 C358.344,107.612 358.764,108.08 358.86,108.992 L359.904,108.848 C359.82,107.42 358.908,106.7 357.528,106.7 C355.68,106.7 354.576,107.828 354.576,109.976 C354.576,111.824 355.368,113.144 357.408,113.144 Z M365.928,108.824 L365.928,111.836 C365.928,112.172 365.988,112.316 366.3,112.316 C366.408,112.316 366.516,112.292 366.672,112.244 L366.72,112.928 C366.48,113.048 366.168,113.12 365.868,113.12 C365.256,113.12 364.98,112.784 364.92,112.388 C364.44,112.868 363.804,113.144 362.94,113.144 C361.38,113.144 361.116,112.088 361.116,111.488 C361.116,109.844 362.568,109.388 364.308,109.388 C364.5,109.388 364.68,109.4 364.848,109.412 L364.848,108.812 C364.848,108.032 364.632,107.552 363.624,107.552 C362.772,107.552 362.448,107.888 362.316,108.572 L361.356,108.392 C361.548,107.24 362.292,106.7 363.72,106.7 C365.244,106.7 365.928,107.288 365.928,108.824 Z M364.86,111.596 L364.86,110.204 C364.692,110.18 364.464,110.168 364.236,110.168 C363.384,110.168 362.244,110.252 362.244,111.308 C362.244,111.836 362.436,112.292 363.276,112.292 C363.912,112.292 364.524,111.956 364.86,111.596 Z M373.092,108.812 C373.092,107.42 372.516,106.7 371.196,106.7 C370.344,106.7 369.576,107.084 368.976,107.564 L368.916,106.832 L367.956,106.832 L367.956,113 L369.048,113 L369.048,108.404 C369.372,108.116 370.14,107.66 370.848,107.66 C371.688,107.66 372,108.128 372,108.98 L372,113 L373.092,113 L373.092,108.812 Z M380.784,106.712 C380.712,106.712 380.628,106.7 380.556,106.7 C379.692,106.7 379.044,106.988 378.504,107.72 L378.42,106.832 L377.508,106.832 L377.508,113 L378.6,113 L378.6,108.512 C379.104,108.044 380.016,107.732 380.784,107.84 L380.784,106.712 Z M384.336,113.144 C382.152,113.144 381.492,111.62 381.492,109.928 C381.492,107.672 382.812,106.7 384.396,106.7 C386.124,106.7 386.844,107.84 386.844,109.364 C386.844,109.604 386.832,109.88 386.796,110.168 L382.644,110.168 C382.692,111.74 383.388,112.232 384.372,112.232 C385.248,112.232 385.656,111.836 385.824,111.14 L386.784,111.356 C386.532,112.556 385.572,113.144 384.336,113.144 Z M382.656,109.304 L385.716,109.304 C385.716,108.2 385.296,107.588 384.324,107.588 C383.508,107.588 382.716,108.08 382.656,109.304 Z M389.52,108.392 C389.844,108.092 390.6,107.66 391.224,107.66 C392.016,107.66 392.184,108.128 392.184,108.956 L392.184,113 L393.276,113 L393.276,108.8 C393.276,108.644 393.264,108.488 393.252,108.344 C393.612,108.044 394.32,107.66 394.908,107.66 C395.7,107.66 395.868,108.128 395.868,108.956 L395.868,113 L396.96,113 L396.96,108.8 C396.96,107.42 396.504,106.7 395.208,106.7 C394.368,106.7 393.672,107.072 393.072,107.552 C392.832,106.976 392.34,106.7 391.524,106.7 C390.684,106.7 390.036,107.06 389.424,107.528 L389.364,106.832 L388.428,106.832 L388.428,113 L389.52,113 L389.52,108.392 Z M403.332,108.824 L403.332,111.836 C403.332,112.172 403.392,112.316 403.704,112.316 C403.812,112.316 403.92,112.292 404.076,112.244 L404.124,112.928 C403.884,113.048 403.572,113.12 403.272,113.12 C402.66,113.12 402.384,112.784 402.324,112.388 C401.844,112.868 401.208,113.144 400.344,113.144 C398.784,113.144 398.52,112.088 398.52,111.488 C398.52,109.844 399.972,109.388 401.712,109.388 C401.904,109.388 402.084,109.4 402.252,109.412 L402.252,108.812 C402.252,108.032 402.036,107.552 401.028,107.552 C400.176,107.552 399.852,107.888 399.72,108.572 L398.76,108.392 C398.952,107.24 399.696,106.7 401.124,106.7 C402.648,106.7 403.332,107.288 403.332,108.824 Z M402.264,111.596 L402.264,110.204 C402.096,110.18 401.868,110.168 401.64,110.168 C400.788,110.168 399.648,110.252 399.648,111.308 C399.648,111.836 399.84,112.292 400.68,112.292 C401.316,112.292 401.928,111.956 402.264,111.596 Z M406.452,106.832 L405.36,106.832 L405.36,113 L406.452,113 L406.452,106.832 Z M406.704,104.852 C406.704,104.348 406.416,104.072 405.924,104.072 C405.432,104.072 405.156,104.348 405.156,104.852 C405.156,105.356 405.432,105.644 405.924,105.644 C406.416,105.644 406.704,105.356 406.704,104.852 Z M413.484,108.812 C413.484,107.42 412.908,106.7 411.588,106.7 C410.736,106.7 409.968,107.084 409.368,107.564 L409.308,106.832 L408.348,106.832 L408.348,113 L409.44,113 L409.44,108.404 C409.764,108.116 410.532,107.66 411.24,107.66 C412.08,107.66 412.392,108.128 412.392,108.98 L412.392,113 L413.484,113 L413.484,108.812 Z M420.936,104.024 C420.732,103.928 420.312,103.82 419.832,103.82 C418.68,103.82 418.032,104.48 418.032,105.836 L418.032,106.832 L417.12,106.832 L417.12,107.708 L418.032,107.708 L418.032,113 L419.124,113 L419.124,107.708 L420.792,107.708 L420.792,106.832 L419.124,106.832 L419.124,105.788 C419.124,104.96 419.496,104.72 420.036,104.72 C420.312,104.72 420.636,104.78 420.888,104.864 L420.936,104.024 Z M422.868,103.94 L421.776,103.94 L421.776,113 L422.868,113 L422.868,103.94 Z M427.224,113.144 C425.088,113.144 424.38,111.764 424.38,109.94 C424.38,107.948 425.412,106.7 427.38,106.7 C429.336,106.7 430.14,107.96 430.14,109.796 C430.14,111.824 429.3,113.144 427.224,113.144 Z M427.284,112.268 C428.352,112.268 429,111.62 429,109.868 C429,108.164 428.4,107.6 427.332,107.6 C426.24,107.6 425.508,108.248 425.508,109.892 C425.508,111.524 426.084,112.268 427.284,112.268 Z M434.16,113.144 C432.024,113.144 431.316,111.764 431.316,109.94 C431.316,107.948 432.348,106.7 434.316,106.7 C436.272,106.7 437.076,107.96 437.076,109.796 C437.076,111.824 436.236,113.144 434.16,113.144 Z M434.22,112.268 C435.288,112.268 435.936,111.62 435.936,109.868 C435.936,108.164 435.336,107.6 434.268,107.6 C433.176,107.6 432.444,108.248 432.444,109.892 C432.444,111.524 433.02,112.268 434.22,112.268 Z M443.664,103.94 L443.664,113 L442.752,113 L442.668,112.34 L442.656,112.328 C442.128,112.808 441.504,113.144 440.616,113.144 C439.212,113.144 438.264,112.256 438.264,110.012 C438.264,107.576 439.5,106.7 440.868,106.7 C441.576,106.7 442.164,106.928 442.596,107.276 L442.596,103.94 L443.664,103.94 Z M442.584,111.476 L442.584,108.176 C442.296,107.96 441.72,107.636 441.012,107.636 C439.824,107.636 439.392,108.584 439.392,110.012 C439.392,111.512 439.86,112.232 440.94,112.232 C441.576,112.232 442.2,111.86 442.584,111.476 Z M448.02,113.144 C445.836,113.144 445.176,111.62 445.176,109.928 C445.176,107.672 446.496,106.7 448.08,106.7 C449.808,106.7 450.528,107.84 450.528,109.364 C450.528,109.604 450.516,109.88 450.48,110.168 L446.328,110.168 C446.376,111.74 447.072,112.232 448.056,112.232 C448.932,112.232 449.34,111.836 449.508,111.14 L450.468,111.356 C450.216,112.556 449.256,113.144 448.02,113.144 Z M446.34,109.304 L449.4,109.304 C449.4,108.2 448.98,107.588 448.008,107.588 C447.192,107.588 446.4,108.08 446.34,109.304 Z M457.14,103.94 L457.14,113 L456.228,113 L456.144,112.34 L456.132,112.328 C455.604,112.808 454.98,113.144 454.092,113.144 C452.688,113.144 451.74,112.256 451.74,110.012 C451.74,107.576 452.976,106.7 454.344,106.7 C455.052,106.7 455.64,106.928 456.072,107.276 L456.072,103.94 L457.14,103.94 Z M456.06,111.476 L456.06,108.176 C455.772,107.96 455.196,107.636 454.488,107.636 C453.3,107.636 452.868,108.584 452.868,110.012 C452.868,111.512 453.336,112.232 454.416,112.232 C455.052,112.232 455.676,111.86 456.06,111.476 Z M464.7,104.024 C464.496,103.928 464.076,103.82 463.572,103.82 C462.396,103.82 461.736,104.48 461.736,105.836 L461.736,106.832 L460.824,106.832 L460.824,107.708 L461.736,107.708 L461.736,113 L462.828,113 L462.828,107.708 L464.544,107.708 L464.544,106.832 L462.828,106.832 L462.828,105.8 C462.828,104.936 463.224,104.708 463.788,104.708 C464.076,104.708 464.412,104.78 464.652,104.864 L464.7,104.024 Z M467.988,113.144 C465.852,113.144 465.144,111.764 465.144,109.94 C465.144,107.948 466.176,106.7 468.144,106.7 C470.1,106.7 470.904,107.96 470.904,109.796 C470.904,111.824 470.064,113.144 467.988,113.144 Z M468.048,112.268 C469.116,112.268 469.764,111.62 469.764,109.868 C469.764,108.164 469.164,107.6 468.096,107.6 C467.004,107.6 466.272,108.248 466.272,109.892 C466.272,111.524 466.848,112.268 468.048,112.268 Z M475.74,106.712 C475.668,106.712 475.584,106.7 475.512,106.7 C474.648,106.7 474,106.988 473.46,107.72 L473.376,106.832 L472.464,106.832 L472.464,113 L473.556,113 L473.556,108.512 C474.06,108.044 474.972,107.732 475.74,107.84 L475.74,106.712 Z M481.728,113 L482.988,108.14 L483,108.14 L484.272,113 L485.544,113 L487.464,106.832 L486.408,106.832 L484.944,111.824 L484.932,111.824 L483.588,106.832 L482.46,106.832 L481.104,111.848 L479.604,106.832 L478.5,106.832 L480.432,113 L481.728,113 Z M490.968,113.144 C488.784,113.144 488.124,111.62 488.124,109.928 C488.124,107.672 489.444,106.7 491.028,106.7 C492.756,106.7 493.476,107.84 493.476,109.364 C493.476,109.604 493.464,109.88 493.428,110.168 L489.276,110.168 C489.324,111.74 490.02,112.232 491.004,112.232 C491.88,112.232 492.288,111.836 492.456,111.14 L493.416,111.356 C493.164,112.556 492.204,113.144 490.968,113.144 Z M489.288,109.304 L492.348,109.304 C492.348,108.2 491.928,107.588 490.956,107.588 C490.14,107.588 489.348,108.08 489.288,109.304 Z M497.52,113.144 C495.336,113.144 494.676,111.62 494.676,109.928 C494.676,107.672 495.996,106.7 497.58,106.7 C499.308,106.7 500.028,107.84 500.028,109.364 C500.028,109.604 500.016,109.88 499.98,110.168 L495.828,110.168 C495.876,111.74 496.572,112.232 497.556,112.232 C498.432,112.232 498.84,111.836 499.008,111.14 L499.968,111.356 C499.716,112.556 498.756,113.144 497.52,113.144 Z M495.84,109.304 L498.9,109.304 C498.9,108.2 498.48,107.588 497.508,107.588 C496.692,107.588 495.9,108.08 495.84,109.304 Z M502.704,103.94 L501.612,103.94 L501.612,113 L502.704,113 L502.704,110.756 L503.652,109.82 L505.548,113 L506.748,113 L504.456,109.052 L506.592,106.832 L505.356,106.832 L502.704,109.544 L502.704,103.94 Z M509.988,106.7 C508.74,106.7 507.708,107.312 507.708,108.56 C507.708,110 508.92,110.216 509.928,110.42 C510.768,110.588 511.272,110.708 511.272,111.392 C511.272,112.052 510.732,112.28 509.988,112.28 C508.896,112.28 508.62,111.752 508.452,111.092 L507.48,111.356 C507.672,112.592 508.524,113.144 509.94,113.144 C511.44,113.144 512.352,112.448 512.352,111.272 C512.352,109.892 511.284,109.664 510.156,109.424 C509.292,109.244 508.788,109.064 508.788,108.428 C508.788,107.96 509.076,107.564 509.976,107.564 C510.876,107.564 511.116,107.996 511.26,108.704 L512.244,108.488 C512.052,107.396 511.452,106.7 509.988,106.7 Z M515.028,112.34 C515.028,111.812 514.74,111.536 514.212,111.536 C513.684,111.536 513.396,111.812 513.396,112.34 C513.396,112.88 513.684,113.144 514.212,113.144 C514.74,113.144 515.028,112.868 515.028,112.34 Z" id="Before-a-tsunami-is" fill="#3B3B3B"></path>
                    <path d="M321.36,186.312 L322.8,186.312 L325.824,195 L324.612,195 L323.736,192.42 L320.4,192.42 L319.548,195 L318.432,195 L321.36,186.312 Z M323.46,191.472 L322.068,187.32 L322.056,187.32 L320.664,191.472 L323.46,191.472 Z M333.036,193.944 C332.772,194.088 332.328,194.244 331.956,194.244 C331.212,194.244 331.068,193.884 331.068,193.236 L331.068,189.708 L332.772,189.708 L332.772,188.832 L331.068,188.832 L331.068,186.876 L329.976,187.044 L329.976,188.832 L329.028,188.832 L329.028,189.708 L329.976,189.708 L329.976,193.38 C329.976,194.616 330.564,195.144 331.716,195.144 C332.292,195.144 332.928,194.94 333.228,194.736 L333.036,193.944 Z M336.336,188.7 C335.088,188.7 334.056,189.312 334.056,190.56 C334.056,192 335.268,192.216 336.276,192.42 C337.116,192.588 337.62,192.708 337.62,193.392 C337.62,194.052 337.08,194.28 336.336,194.28 C335.244,194.28 334.968,193.752 334.8,193.092 L333.828,193.356 C334.02,194.592 334.872,195.144 336.288,195.144 C337.788,195.144 338.7,194.448 338.7,193.272 C338.7,191.892 337.632,191.664 336.504,191.424 C335.64,191.244 335.136,191.064 335.136,190.428 C335.136,189.96 335.424,189.564 336.324,189.564 C337.224,189.564 337.464,189.996 337.608,190.704 L338.592,190.488 C338.4,189.396 337.8,188.7 336.336,188.7 Z M340.152,193.02 C340.152,194.4 340.728,195.12 342.036,195.12 C342.888,195.12 343.62,194.784 344.22,194.292 L344.292,195 L345.24,195 L345.24,188.832 L344.148,188.832 L344.148,193.416 C343.824,193.716 343.068,194.172 342.36,194.172 C341.448,194.172 341.244,193.704 341.244,192.852 L341.244,188.832 L340.152,188.832 L340.152,193.02 Z M352.284,190.812 C352.284,189.42 351.708,188.7 350.388,188.7 C349.536,188.7 348.768,189.084 348.168,189.564 L348.108,188.832 L347.148,188.832 L347.148,195 L348.24,195 L348.24,190.404 C348.564,190.116 349.332,189.66 350.04,189.66 C350.88,189.66 351.192,190.128 351.192,190.98 L351.192,195 L352.284,195 L352.284,190.812 Z M358.644,190.824 L358.644,193.836 C358.644,194.172 358.704,194.316 359.016,194.316 C359.124,194.316 359.232,194.292 359.388,194.244 L359.436,194.928 C359.196,195.048 358.884,195.12 358.584,195.12 C357.972,195.12 357.696,194.784 357.636,194.388 C357.156,194.868 356.52,195.144 355.656,195.144 C354.096,195.144 353.832,194.088 353.832,193.488 C353.832,191.844 355.284,191.388 357.024,191.388 C357.216,191.388 357.396,191.4 357.564,191.412 L357.564,190.812 C357.564,190.032 357.348,189.552 356.34,189.552 C355.488,189.552 355.164,189.888 355.032,190.572 L354.072,190.392 C354.264,189.24 355.008,188.7 356.436,188.7 C357.96,188.7 358.644,189.288 358.644,190.824 Z M357.576,193.596 L357.576,192.204 C357.408,192.18 357.18,192.168 356.952,192.168 C356.1,192.168 354.96,192.252 354.96,193.308 C354.96,193.836 355.152,194.292 355.992,194.292 C356.628,194.292 357.24,193.956 357.576,193.596 Z M361.764,190.392 C362.088,190.092 362.844,189.66 363.468,189.66 C364.26,189.66 364.428,190.128 364.428,190.956 L364.428,195 L365.52,195 L365.52,190.8 C365.52,190.644 365.508,190.488 365.496,190.344 C365.856,190.044 366.564,189.66 367.152,189.66 C367.944,189.66 368.112,190.128 368.112,190.956 L368.112,195 L369.204,195 L369.204,190.8 C369.204,189.42 368.748,188.7 367.452,188.7 C366.612,188.7 365.916,189.072 365.316,189.552 C365.076,188.976 364.584,188.7 363.768,188.7 C362.928,188.7 362.28,189.06 361.668,189.528 L361.608,188.832 L360.672,188.832 L360.672,195 L361.764,195 L361.764,190.392 Z M372.156,188.832 L371.064,188.832 L371.064,195 L372.156,195 L372.156,188.832 Z M372.408,186.852 C372.408,186.348 372.12,186.072 371.628,186.072 C371.136,186.072 370.86,186.348 370.86,186.852 C370.86,187.356 371.136,187.644 371.628,187.644 C372.12,187.644 372.408,187.356 372.408,186.852 Z M377.712,188.832 L376.62,188.832 L376.62,195 L377.712,195 L377.712,188.832 Z M377.964,186.852 C377.964,186.348 377.676,186.072 377.184,186.072 C376.692,186.072 376.416,186.348 376.416,186.852 C376.416,187.356 376.692,187.644 377.184,187.644 C377.676,187.644 377.964,187.356 377.964,186.852 Z M381.612,188.7 C380.364,188.7 379.332,189.312 379.332,190.56 C379.332,192 380.544,192.216 381.552,192.42 C382.392,192.588 382.896,192.708 382.896,193.392 C382.896,194.052 382.356,194.28 381.612,194.28 C380.52,194.28 380.244,193.752 380.076,193.092 L379.104,193.356 C379.296,194.592 380.148,195.144 381.564,195.144 C383.064,195.144 383.976,194.448 383.976,193.272 C383.976,191.892 382.908,191.664 381.78,191.424 C380.916,191.244 380.412,191.064 380.412,190.428 C380.412,189.96 380.7,189.564 381.6,189.564 C382.5,189.564 382.74,189.996 382.884,190.704 L383.868,190.488 C383.676,189.396 383.076,188.7 381.612,188.7 Z M390.48,195.144 C388.344,195.144 387.636,193.764 387.636,191.94 C387.636,189.948 388.668,188.7 390.636,188.7 C392.592,188.7 393.396,189.96 393.396,191.796 C393.396,193.824 392.556,195.144 390.48,195.144 Z M390.54,194.268 C391.608,194.268 392.256,193.62 392.256,191.868 C392.256,190.164 391.656,189.6 390.588,189.6 C389.496,189.6 388.764,190.248 388.764,191.892 C388.764,193.524 389.34,194.268 390.54,194.268 Z M397.656,195 L399.972,188.832 L398.856,188.832 L397.068,193.908 L397.056,193.908 L395.244,188.832 L394.056,188.832 L396.408,195 L397.656,195 Z M403.476,195.144 C401.292,195.144 400.632,193.62 400.632,191.928 C400.632,189.672 401.952,188.7 403.536,188.7 C405.264,188.7 405.984,189.84 405.984,191.364 C405.984,191.604 405.972,191.88 405.936,192.168 L401.784,192.168 C401.832,193.74 402.528,194.232 403.512,194.232 C404.388,194.232 404.796,193.836 404.964,193.14 L405.924,193.356 C405.672,194.556 404.712,195.144 403.476,195.144 Z M401.796,191.304 L404.856,191.304 C404.856,190.2 404.436,189.588 403.464,189.588 C402.648,189.588 401.856,190.08 401.796,191.304 Z M410.844,188.712 C410.772,188.712 410.688,188.7 410.616,188.7 C409.752,188.7 409.104,188.988 408.564,189.72 L408.48,188.832 L407.568,188.832 L407.568,195 L408.66,195 L408.66,190.512 C409.164,190.044 410.076,189.732 410.844,189.84 L410.844,188.712 Z M419.016,190.824 L419.016,193.836 C419.016,194.172 419.076,194.316 419.388,194.316 C419.496,194.316 419.604,194.292 419.76,194.244 L419.808,194.928 C419.568,195.048 419.256,195.12 418.956,195.12 C418.344,195.12 418.068,194.784 418.008,194.388 C417.528,194.868 416.892,195.144 416.028,195.144 C414.468,195.144 414.204,194.088 414.204,193.488 C414.204,191.844 415.656,191.388 417.396,191.388 C417.588,191.388 417.768,191.4 417.936,191.412 L417.936,190.812 C417.936,190.032 417.72,189.552 416.712,189.552 C415.86,189.552 415.536,189.888 415.404,190.572 L414.444,190.392 C414.636,189.24 415.38,188.7 416.808,188.7 C418.332,188.7 419.016,189.288 419.016,190.824 Z M417.948,193.596 L417.948,192.204 C417.78,192.18 417.552,192.168 417.324,192.168 C416.472,192.168 415.332,192.252 415.332,193.308 C415.332,193.836 415.524,194.292 416.364,194.292 C417,194.292 417.612,193.956 417.948,193.596 Z M426.18,190.812 C426.18,189.42 425.604,188.7 424.284,188.7 C423.432,188.7 422.664,189.084 422.064,189.564 L422.004,188.832 L421.044,188.832 L421.044,195 L422.136,195 L422.136,190.404 C422.46,190.116 423.228,189.66 423.936,189.66 C424.776,189.66 425.088,190.128 425.088,190.98 L425.088,195 L426.18,195 L426.18,190.812 Z M433.056,185.94 L433.056,195 L432.144,195 L432.06,194.34 L432.048,194.328 C431.52,194.808 430.896,195.144 430.008,195.144 C428.604,195.144 427.656,194.256 427.656,192.012 C427.656,189.576 428.892,188.7 430.26,188.7 C430.968,188.7 431.556,188.928 431.988,189.276 L431.988,185.94 L433.056,185.94 Z M431.976,193.476 L431.976,190.176 C431.688,189.96 431.112,189.636 430.404,189.636 C429.216,189.636 428.784,190.584 428.784,192.012 C428.784,193.512 429.252,194.232 430.332,194.232 C430.968,194.232 431.592,193.86 431.976,193.476 Z M439.968,195.144 C441.204,195.144 442.296,194.544 442.5,193.116 L441.54,192.912 C441.384,193.824 440.844,194.232 440.004,194.232 C439.02,194.232 438.276,193.68 438.276,191.844 C438.276,190.092 439.152,189.612 440.04,189.612 C440.904,189.612 441.324,190.08 441.42,190.992 L442.464,190.848 C442.38,189.42 441.468,188.7 440.088,188.7 C438.24,188.7 437.136,189.828 437.136,191.976 C437.136,193.824 437.928,195.144 439.968,195.144 Z M446.436,195.144 C444.3,195.144 443.592,193.764 443.592,191.94 C443.592,189.948 444.624,188.7 446.592,188.7 C448.548,188.7 449.352,189.96 449.352,191.796 C449.352,193.824 448.512,195.144 446.436,195.144 Z M446.496,194.268 C447.564,194.268 448.212,193.62 448.212,191.868 C448.212,190.164 447.612,189.6 446.544,189.6 C445.452,189.6 444.72,190.248 444.72,191.892 C444.72,193.524 445.296,194.268 446.496,194.268 Z M455.424,190.824 L455.424,193.836 C455.424,194.172 455.484,194.316 455.796,194.316 C455.904,194.316 456.012,194.292 456.168,194.244 L456.216,194.928 C455.976,195.048 455.664,195.12 455.364,195.12 C454.752,195.12 454.476,194.784 454.416,194.388 C453.936,194.868 453.3,195.144 452.436,195.144 C450.876,195.144 450.612,194.088 450.612,193.488 C450.612,191.844 452.064,191.388 453.804,191.388 C453.996,191.388 454.176,191.4 454.344,191.412 L454.344,190.812 C454.344,190.032 454.128,189.552 453.12,189.552 C452.268,189.552 451.944,189.888 451.812,190.572 L450.852,190.392 C451.044,189.24 451.788,188.7 453.216,188.7 C454.74,188.7 455.424,189.288 455.424,190.824 Z M454.356,193.596 L454.356,192.204 C454.188,192.18 453.96,192.168 453.732,192.168 C452.88,192.168 451.74,192.252 451.74,193.308 C451.74,193.836 451.932,194.292 452.772,194.292 C453.408,194.292 454.02,193.956 454.356,193.596 Z M459.456,188.7 C458.208,188.7 457.176,189.312 457.176,190.56 C457.176,192 458.388,192.216 459.396,192.42 C460.236,192.588 460.74,192.708 460.74,193.392 C460.74,194.052 460.2,194.28 459.456,194.28 C458.364,194.28 458.088,193.752 457.92,193.092 L456.948,193.356 C457.14,194.592 457.992,195.144 459.408,195.144 C460.908,195.144 461.82,194.448 461.82,193.272 C461.82,191.892 460.752,191.664 459.624,191.424 C458.76,191.244 458.256,191.064 458.256,190.428 C458.256,189.96 458.544,189.564 459.444,189.564 C460.344,189.564 460.584,189.996 460.728,190.704 L461.712,190.488 C461.52,189.396 460.92,188.7 459.456,188.7 Z M466.548,193.944 C466.284,194.088 465.84,194.244 465.468,194.244 C464.724,194.244 464.58,193.884 464.58,193.236 L464.58,189.708 L466.284,189.708 L466.284,188.832 L464.58,188.832 L464.58,186.876 L463.488,187.044 L463.488,188.832 L462.54,188.832 L462.54,189.708 L463.488,189.708 L463.488,193.38 C463.488,194.616 464.076,195.144 465.228,195.144 C465.804,195.144 466.44,194.94 466.74,194.736 L466.548,193.944 Z M472.356,190.824 L472.356,193.836 C472.356,194.172 472.416,194.316 472.728,194.316 C472.836,194.316 472.944,194.292 473.1,194.244 L473.148,194.928 C472.908,195.048 472.596,195.12 472.296,195.12 C471.684,195.12 471.408,194.784 471.348,194.388 C470.868,194.868 470.232,195.144 469.368,195.144 C467.808,195.144 467.544,194.088 467.544,193.488 C467.544,191.844 468.996,191.388 470.736,191.388 C470.928,191.388 471.108,191.4 471.276,191.412 L471.276,190.812 C471.276,190.032 471.06,189.552 470.052,189.552 C469.2,189.552 468.876,189.888 468.744,190.572 L467.784,190.392 C467.976,189.24 468.72,188.7 470.148,188.7 C471.672,188.7 472.356,189.288 472.356,190.824 Z M471.288,193.596 L471.288,192.204 C471.12,192.18 470.892,192.168 470.664,192.168 C469.812,192.168 468.672,192.252 468.672,193.308 C468.672,193.836 468.864,194.292 469.704,194.292 C470.34,194.292 470.952,193.956 471.288,193.596 Z M475.476,185.94 L474.384,185.94 L474.384,195 L475.476,195 L475.476,185.94 Z M483.192,193.944 C482.928,194.088 482.484,194.244 482.112,194.244 C481.368,194.244 481.224,193.884 481.224,193.236 L481.224,189.708 L482.928,189.708 L482.928,188.832 L481.224,188.832 L481.224,186.876 L480.132,187.044 L480.132,188.832 L479.184,188.832 L479.184,189.708 L480.132,189.708 L480.132,193.38 C480.132,194.616 480.72,195.144 481.872,195.144 C482.448,195.144 483.084,194.94 483.384,194.736 L483.192,193.944 Z M486.948,195.144 C484.812,195.144 484.104,193.764 484.104,191.94 C484.104,189.948 485.136,188.7 487.104,188.7 C489.06,188.7 489.864,189.96 489.864,191.796 C489.864,193.824 489.024,195.144 486.948,195.144 Z M487.008,194.268 C488.076,194.268 488.724,193.62 488.724,191.868 C488.724,190.164 488.124,189.6 487.056,189.6 C485.964,189.6 485.232,190.248 485.232,191.892 C485.232,193.524 485.808,194.268 487.008,194.268 Z M493.752,195 L495.012,190.14 L495.024,190.14 L496.296,195 L497.568,195 L499.488,188.832 L498.432,188.832 L496.968,193.824 L496.956,193.824 L495.612,188.832 L494.484,188.832 L493.128,193.848 L491.628,188.832 L490.524,188.832 L492.456,195 L493.752,195 Z M505.668,190.812 C505.668,189.42 505.092,188.7 503.772,188.7 C502.92,188.7 502.152,189.084 501.552,189.564 L501.492,188.832 L500.532,188.832 L500.532,195 L501.624,195 L501.624,190.404 C501.948,190.116 502.716,189.66 503.424,189.66 C504.264,189.66 504.576,190.128 504.576,190.98 L504.576,195 L505.668,195 L505.668,190.812 Z M509.52,188.7 C508.272,188.7 507.24,189.312 507.24,190.56 C507.24,192 508.452,192.216 509.46,192.42 C510.3,192.588 510.804,192.708 510.804,193.392 C510.804,194.052 510.264,194.28 509.52,194.28 C508.428,194.28 508.152,193.752 507.984,193.092 L507.012,193.356 C507.204,194.592 508.056,195.144 509.472,195.144 C510.972,195.144 511.884,194.448 511.884,193.272 C511.884,191.892 510.816,191.664 509.688,191.424 C508.824,191.244 508.32,191.064 508.32,190.428 C508.32,189.96 508.608,189.564 509.508,189.564 C510.408,189.564 510.648,189.996 510.792,190.704 L511.776,190.488 C511.584,189.396 510.984,188.7 509.52,188.7 Z M321.42,211.144 C322.656,211.144 323.748,210.544 323.952,209.116 L322.992,208.912 C322.836,209.824 322.296,210.232 321.456,210.232 C320.472,210.232 319.728,209.68 319.728,207.844 C319.728,206.092 320.604,205.612 321.492,205.612 C322.356,205.612 322.776,206.08 322.872,206.992 L323.916,206.848 C323.832,205.42 322.92,204.7 321.54,204.7 C319.692,204.7 318.588,205.828 318.588,207.976 C318.588,209.824 319.38,211.144 321.42,211.144 Z M329.94,206.824 L329.94,209.836 C329.94,210.172 330,210.316 330.312,210.316 C330.42,210.316 330.528,210.292 330.684,210.244 L330.732,210.928 C330.492,211.048 330.18,211.12 329.88,211.12 C329.268,211.12 328.992,210.784 328.932,210.388 C328.452,210.868 327.816,211.144 326.952,211.144 C325.392,211.144 325.128,210.088 325.128,209.488 C325.128,207.844 326.58,207.388 328.32,207.388 C328.512,207.388 328.692,207.4 328.86,207.412 L328.86,206.812 C328.86,206.032 328.644,205.552 327.636,205.552 C326.784,205.552 326.46,205.888 326.328,206.572 L325.368,206.392 C325.56,205.24 326.304,204.7 327.732,204.7 C329.256,204.7 329.94,205.288 329.94,206.824 Z M328.872,209.596 L328.872,208.204 C328.704,208.18 328.476,208.168 328.248,208.168 C327.396,208.168 326.256,208.252 326.256,209.308 C326.256,209.836 326.448,210.292 327.288,210.292 C327.924,210.292 328.536,209.956 328.872,209.596 Z M337.104,206.812 C337.104,205.42 336.528,204.7 335.208,204.7 C334.356,204.7 333.588,205.084 332.988,205.564 L332.928,204.832 L331.968,204.832 L331.968,211 L333.06,211 L333.06,206.404 C333.384,206.116 334.152,205.66 334.86,205.66 C335.7,205.66 336.012,206.128 336.012,206.98 L336.012,211 L337.104,211 L337.104,206.812 Z M344.796,204.712 C344.724,204.712 344.64,204.7 344.568,204.7 C343.704,204.7 343.056,204.988 342.516,205.72 L342.432,204.832 L341.52,204.832 L341.52,211 L342.612,211 L342.612,206.512 C343.116,206.044 344.028,205.732 344.796,205.84 L344.796,204.712 Z M348.348,211.144 C346.164,211.144 345.504,209.62 345.504,207.928 C345.504,205.672 346.824,204.7 348.408,204.7 C350.136,204.7 350.856,205.84 350.856,207.364 C350.856,207.604 350.844,207.88 350.808,208.168 L346.656,208.168 C346.704,209.74 347.4,210.232 348.384,210.232 C349.26,210.232 349.668,209.836 349.836,209.14 L350.796,209.356 C350.544,210.556 349.584,211.144 348.348,211.144 Z M346.668,207.304 L349.728,207.304 C349.728,206.2 349.308,205.588 348.336,205.588 C347.52,205.588 346.728,206.08 346.668,207.304 Z M353.532,206.392 C353.856,206.092 354.612,205.66 355.236,205.66 C356.028,205.66 356.196,206.128 356.196,206.956 L356.196,211 L357.288,211 L357.288,206.8 C357.288,206.644 357.276,206.488 357.264,206.344 C357.624,206.044 358.332,205.66 358.92,205.66 C359.712,205.66 359.88,206.128 359.88,206.956 L359.88,211 L360.972,211 L360.972,206.8 C360.972,205.42 360.516,204.7 359.22,204.7 C358.38,204.7 357.684,205.072 357.084,205.552 C356.844,204.976 356.352,204.7 355.536,204.7 C354.696,204.7 354.048,205.06 353.436,205.528 L353.376,204.832 L352.44,204.832 L352.44,211 L353.532,211 L353.532,206.392 Z M367.344,206.824 L367.344,209.836 C367.344,210.172 367.404,210.316 367.716,210.316 C367.824,210.316 367.932,210.292 368.088,210.244 L368.136,210.928 C367.896,211.048 367.584,211.12 367.284,211.12 C366.672,211.12 366.396,210.784 366.336,210.388 C365.856,210.868 365.22,211.144 364.356,211.144 C362.796,211.144 362.532,210.088 362.532,209.488 C362.532,207.844 363.984,207.388 365.724,207.388 C365.916,207.388 366.096,207.4 366.264,207.412 L366.264,206.812 C366.264,206.032 366.048,205.552 365.04,205.552 C364.188,205.552 363.864,205.888 363.732,206.572 L362.772,206.392 C362.964,205.24 363.708,204.7 365.136,204.7 C366.66,204.7 367.344,205.288 367.344,206.824 Z M366.276,209.596 L366.276,208.204 C366.108,208.18 365.88,208.168 365.652,208.168 C364.8,208.168 363.66,208.252 363.66,209.308 C363.66,209.836 363.852,210.292 364.692,210.292 C365.328,210.292 365.94,209.956 366.276,209.596 Z M370.464,204.832 L369.372,204.832 L369.372,211 L370.464,211 L370.464,204.832 Z M370.716,202.852 C370.716,202.348 370.428,202.072 369.936,202.072 C369.444,202.072 369.168,202.348 369.168,202.852 C369.168,203.356 369.444,203.644 369.936,203.644 C370.428,203.644 370.716,203.356 370.716,202.852 Z M377.496,206.812 C377.496,205.42 376.92,204.7 375.6,204.7 C374.748,204.7 373.98,205.084 373.38,205.564 L373.32,204.832 L372.36,204.832 L372.36,211 L373.452,211 L373.452,206.404 C373.776,206.116 374.544,205.66 375.252,205.66 C376.092,205.66 376.404,206.128 376.404,206.98 L376.404,211 L377.496,211 L377.496,206.812 Z M384.948,202.024 C384.744,201.928 384.324,201.82 383.844,201.82 C382.692,201.82 382.044,202.48 382.044,203.836 L382.044,204.832 L381.132,204.832 L381.132,205.708 L382.044,205.708 L382.044,211 L383.136,211 L383.136,205.708 L384.804,205.708 L384.804,204.832 L383.136,204.832 L383.136,203.788 C383.136,202.96 383.508,202.72 384.048,202.72 C384.324,202.72 384.648,202.78 384.9,202.864 L384.948,202.024 Z M386.88,201.94 L385.788,201.94 L385.788,211 L386.88,211 L386.88,201.94 Z M391.236,211.144 C389.1,211.144 388.392,209.764 388.392,207.94 C388.392,205.948 389.424,204.7 391.392,204.7 C393.348,204.7 394.152,205.96 394.152,207.796 C394.152,209.824 393.312,211.144 391.236,211.144 Z M391.296,210.268 C392.364,210.268 393.012,209.62 393.012,207.868 C393.012,206.164 392.412,205.6 391.344,205.6 C390.252,205.6 389.52,206.248 389.52,207.892 C389.52,209.524 390.096,210.268 391.296,210.268 Z M398.172,211.144 C396.036,211.144 395.328,209.764 395.328,207.94 C395.328,205.948 396.36,204.7 398.328,204.7 C400.284,204.7 401.088,205.96 401.088,207.796 C401.088,209.824 400.248,211.144 398.172,211.144 Z M398.232,210.268 C399.3,210.268 399.948,209.62 399.948,207.868 C399.948,206.164 399.348,205.6 398.28,205.6 C397.188,205.6 396.456,206.248 396.456,207.892 C396.456,209.524 397.032,210.268 398.232,210.268 Z M407.676,201.94 L407.676,211 L406.764,211 L406.68,210.34 L406.668,210.328 C406.14,210.808 405.516,211.144 404.628,211.144 C403.224,211.144 402.276,210.256 402.276,208.012 C402.276,205.576 403.512,204.7 404.88,204.7 C405.588,204.7 406.176,204.928 406.608,205.276 L406.608,201.94 L407.676,201.94 Z M406.596,209.476 L406.596,206.176 C406.308,205.96 405.732,205.636 405.024,205.636 C403.836,205.636 403.404,206.584 403.404,208.012 C403.404,209.512 403.872,210.232 404.952,210.232 C405.588,210.232 406.212,209.86 406.596,209.476 Z M412.032,211.144 C409.848,211.144 409.188,209.62 409.188,207.928 C409.188,205.672 410.508,204.7 412.092,204.7 C413.82,204.7 414.54,205.84 414.54,207.364 C414.54,207.604 414.528,207.88 414.492,208.168 L410.34,208.168 C410.388,209.74 411.084,210.232 412.068,210.232 C412.944,210.232 413.352,209.836 413.52,209.14 L414.48,209.356 C414.228,210.556 413.268,211.144 412.032,211.144 Z M410.352,207.304 L413.412,207.304 C413.412,206.2 412.992,205.588 412.02,205.588 C411.204,205.588 410.412,206.08 410.352,207.304 Z M421.152,201.94 L421.152,211 L420.24,211 L420.156,210.34 L420.144,210.328 C419.616,210.808 418.992,211.144 418.104,211.144 C416.7,211.144 415.752,210.256 415.752,208.012 C415.752,205.576 416.988,204.7 418.356,204.7 C419.064,204.7 419.652,204.928 420.084,205.276 L420.084,201.94 L421.152,201.94 Z M420.072,209.476 L420.072,206.176 C419.784,205.96 419.208,205.636 418.5,205.636 C417.312,205.636 416.88,206.584 416.88,208.012 C416.88,209.512 417.348,210.232 418.428,210.232 C419.064,210.232 419.688,209.86 420.072,209.476 Z M428.712,202.024 C428.508,201.928 428.088,201.82 427.584,201.82 C426.408,201.82 425.748,202.48 425.748,203.836 L425.748,204.832 L424.836,204.832 L424.836,205.708 L425.748,205.708 L425.748,211 L426.84,211 L426.84,205.708 L428.556,205.708 L428.556,204.832 L426.84,204.832 L426.84,203.8 C426.84,202.936 427.236,202.708 427.8,202.708 C428.088,202.708 428.424,202.78 428.664,202.864 L428.712,202.024 Z M432,211.144 C429.864,211.144 429.156,209.764 429.156,207.94 C429.156,205.948 430.188,204.7 432.156,204.7 C434.112,204.7 434.916,205.96 434.916,207.796 C434.916,209.824 434.076,211.144 432,211.144 Z M432.06,210.268 C433.128,210.268 433.776,209.62 433.776,207.868 C433.776,206.164 433.176,205.6 432.108,205.6 C431.016,205.6 430.284,206.248 430.284,207.892 C430.284,209.524 430.86,210.268 432.06,210.268 Z M439.752,204.712 C439.68,204.712 439.596,204.7 439.524,204.7 C438.66,204.7 438.012,204.988 437.472,205.72 L437.388,204.832 L436.476,204.832 L436.476,211 L437.568,211 L437.568,206.512 C438.072,206.044 438.984,205.732 439.752,205.84 L439.752,204.712 Z M445.74,211 L447,206.14 L447.012,206.14 L448.284,211 L449.556,211 L451.476,204.832 L450.42,204.832 L448.956,209.824 L448.944,209.824 L447.6,204.832 L446.472,204.832 L445.116,209.848 L443.616,204.832 L442.512,204.832 L444.444,211 L445.74,211 Z M454.98,211.144 C452.796,211.144 452.136,209.62 452.136,207.928 C452.136,205.672 453.456,204.7 455.04,204.7 C456.768,204.7 457.488,205.84 457.488,207.364 C457.488,207.604 457.476,207.88 457.44,208.168 L453.288,208.168 C453.336,209.74 454.032,210.232 455.016,210.232 C455.892,210.232 456.3,209.836 456.468,209.14 L457.428,209.356 C457.176,210.556 456.216,211.144 454.98,211.144 Z M453.3,207.304 L456.36,207.304 C456.36,206.2 455.94,205.588 454.968,205.588 C454.152,205.588 453.36,206.08 453.3,207.304 Z M461.532,211.144 C459.348,211.144 458.688,209.62 458.688,207.928 C458.688,205.672 460.008,204.7 461.592,204.7 C463.32,204.7 464.04,205.84 464.04,207.364 C464.04,207.604 464.028,207.88 463.992,208.168 L459.84,208.168 C459.888,209.74 460.584,210.232 461.568,210.232 C462.444,210.232 462.852,209.836 463.02,209.14 L463.98,209.356 C463.728,210.556 462.768,211.144 461.532,211.144 Z M459.852,207.304 L462.912,207.304 C462.912,206.2 462.492,205.588 461.52,205.588 C460.704,205.588 459.912,206.08 459.852,207.304 Z M466.716,201.94 L465.624,201.94 L465.624,211 L466.716,211 L466.716,208.756 L467.664,207.82 L469.56,211 L470.76,211 L468.468,207.052 L470.604,204.832 L469.368,204.832 L466.716,207.544 L466.716,201.94 Z M474,204.7 C472.752,204.7 471.72,205.312 471.72,206.56 C471.72,208 472.932,208.216 473.94,208.42 C474.78,208.588 475.284,208.708 475.284,209.392 C475.284,210.052 474.744,210.28 474,210.28 C472.908,210.28 472.632,209.752 472.464,209.092 L471.492,209.356 C471.684,210.592 472.536,211.144 473.952,211.144 C475.452,211.144 476.364,210.448 476.364,209.272 C476.364,207.892 475.296,207.664 474.168,207.424 C473.304,207.244 472.8,207.064 472.8,206.428 C472.8,205.96 473.088,205.564 473.988,205.564 C474.888,205.564 475.128,205.996 475.272,206.704 L476.256,206.488 C476.064,205.396 475.464,204.7 474,204.7 Z M479.04,210.34 C479.04,209.812 478.752,209.536 478.224,209.536 C477.696,209.536 477.408,209.812 477.408,210.34 C477.408,210.88 477.696,211.144 478.224,211.144 C478.752,211.144 479.04,210.868 479.04,210.34 Z" id="A-tsunami-is-over-an" fill="#3B3B3B"></path>
                    <path d="M326.628,149 L328.464,140.312 L327.36,140.312 L325.932,147.8 L325.92,147.8 L324,140.312 L322.776,140.312 L320.856,147.704 L320.844,147.704 L319.356,140.312 L318.204,140.312 L320.1,149 L321.468,149 L323.364,141.86 L323.376,141.86 L325.224,149 L326.628,149 Z M334.764,144.812 C334.764,143.42 334.188,142.7 332.88,142.7 C332.016,142.7 331.308,143.06 330.708,143.528 L330.708,139.94 L329.628,139.94 L329.628,149 L330.72,149 L330.72,144.404 C331.044,144.116 331.812,143.66 332.52,143.66 C333.36,143.66 333.672,144.128 333.672,144.98 L333.672,149 L334.764,149 L334.764,144.812 Z M339.072,149.144 C336.888,149.144 336.228,147.62 336.228,145.928 C336.228,143.672 337.548,142.7 339.132,142.7 C340.86,142.7 341.58,143.84 341.58,145.364 C341.58,145.604 341.568,145.88 341.532,146.168 L337.38,146.168 C337.428,147.74 338.124,148.232 339.108,148.232 C339.984,148.232 340.392,147.836 340.56,147.14 L341.52,147.356 C341.268,148.556 340.308,149.144 339.072,149.144 Z M337.392,145.304 L340.452,145.304 C340.452,144.2 340.032,143.588 339.06,143.588 C338.244,143.588 337.452,144.08 337.392,145.304 Z M348.3,144.812 C348.3,143.42 347.724,142.7 346.404,142.7 C345.552,142.7 344.784,143.084 344.184,143.564 L344.124,142.832 L343.164,142.832 L343.164,149 L344.256,149 L344.256,144.404 C344.58,144.116 345.348,143.66 346.056,143.66 C346.896,143.66 347.208,144.128 347.208,144.98 L347.208,149 L348.3,149 L348.3,144.812 Z M357.228,144.824 L357.228,147.836 C357.228,148.172 357.288,148.316 357.6,148.316 C357.708,148.316 357.816,148.292 357.972,148.244 L358.02,148.928 C357.78,149.048 357.468,149.12 357.168,149.12 C356.556,149.12 356.28,148.784 356.22,148.388 C355.74,148.868 355.104,149.144 354.24,149.144 C352.68,149.144 352.416,148.088 352.416,147.488 C352.416,145.844 353.868,145.388 355.608,145.388 C355.8,145.388 355.98,145.4 356.148,145.412 L356.148,144.812 C356.148,144.032 355.932,143.552 354.924,143.552 C354.072,143.552 353.748,143.888 353.616,144.572 L352.656,144.392 C352.848,143.24 353.592,142.7 355.02,142.7 C356.544,142.7 357.228,143.288 357.228,144.824 Z M356.16,147.596 L356.16,146.204 C355.992,146.18 355.764,146.168 355.536,146.168 C354.684,146.168 353.544,146.252 353.544,147.308 C353.544,147.836 353.736,148.292 354.576,148.292 C355.212,148.292 355.824,147.956 356.16,147.596 Z M365.076,147.944 C364.812,148.088 364.368,148.244 363.996,148.244 C363.252,148.244 363.108,147.884 363.108,147.236 L363.108,143.708 L364.812,143.708 L364.812,142.832 L363.108,142.832 L363.108,140.876 L362.016,141.044 L362.016,142.832 L361.068,142.832 L361.068,143.708 L362.016,143.708 L362.016,147.38 C362.016,148.616 362.604,149.144 363.756,149.144 C364.332,149.144 364.968,148.94 365.268,148.736 L365.076,147.944 Z M368.376,142.7 C367.128,142.7 366.096,143.312 366.096,144.56 C366.096,146 367.308,146.216 368.316,146.42 C369.156,146.588 369.66,146.708 369.66,147.392 C369.66,148.052 369.12,148.28 368.376,148.28 C367.284,148.28 367.008,147.752 366.84,147.092 L365.868,147.356 C366.06,148.592 366.912,149.144 368.328,149.144 C369.828,149.144 370.74,148.448 370.74,147.272 C370.74,145.892 369.672,145.664 368.544,145.424 C367.68,145.244 367.176,145.064 367.176,144.428 C367.176,143.96 367.464,143.564 368.364,143.564 C369.264,143.564 369.504,143.996 369.648,144.704 L370.632,144.488 C370.44,143.396 369.84,142.7 368.376,142.7 Z M372.192,147.02 C372.192,148.4 372.768,149.12 374.076,149.12 C374.928,149.12 375.66,148.784 376.26,148.292 L376.332,149 L377.28,149 L377.28,142.832 L376.188,142.832 L376.188,147.416 C375.864,147.716 375.108,148.172 374.4,148.172 C373.488,148.172 373.284,147.704 373.284,146.852 L373.284,142.832 L372.192,142.832 L372.192,147.02 Z M384.324,144.812 C384.324,143.42 383.748,142.7 382.428,142.7 C381.576,142.7 380.808,143.084 380.208,143.564 L380.148,142.832 L379.188,142.832 L379.188,149 L380.28,149 L380.28,144.404 C380.604,144.116 381.372,143.66 382.08,143.66 C382.92,143.66 383.232,144.128 383.232,144.98 L383.232,149 L384.324,149 L384.324,144.812 Z M390.684,144.824 L390.684,147.836 C390.684,148.172 390.744,148.316 391.056,148.316 C391.164,148.316 391.272,148.292 391.428,148.244 L391.476,148.928 C391.236,149.048 390.924,149.12 390.624,149.12 C390.012,149.12 389.736,148.784 389.676,148.388 C389.196,148.868 388.56,149.144 387.696,149.144 C386.136,149.144 385.872,148.088 385.872,147.488 C385.872,145.844 387.324,145.388 389.064,145.388 C389.256,145.388 389.436,145.4 389.604,145.412 L389.604,144.812 C389.604,144.032 389.388,143.552 388.38,143.552 C387.528,143.552 387.204,143.888 387.072,144.572 L386.112,144.392 C386.304,143.24 387.048,142.7 388.476,142.7 C390,142.7 390.684,143.288 390.684,144.824 Z M389.616,147.596 L389.616,146.204 C389.448,146.18 389.22,146.168 388.992,146.168 C388.14,146.168 387,146.252 387,147.308 C387,147.836 387.192,148.292 388.032,148.292 C388.668,148.292 389.28,147.956 389.616,147.596 Z M393.804,144.392 C394.128,144.092 394.884,143.66 395.508,143.66 C396.3,143.66 396.468,144.128 396.468,144.956 L396.468,149 L397.56,149 L397.56,144.8 C397.56,144.644 397.548,144.488 397.536,144.344 C397.896,144.044 398.604,143.66 399.192,143.66 C399.984,143.66 400.152,144.128 400.152,144.956 L400.152,149 L401.244,149 L401.244,144.8 C401.244,143.42 400.788,142.7 399.492,142.7 C398.652,142.7 397.956,143.072 397.356,143.552 C397.116,142.976 396.624,142.7 395.808,142.7 C394.968,142.7 394.32,143.06 393.708,143.528 L393.648,142.832 L392.712,142.832 L392.712,149 L393.804,149 L393.804,144.392 Z M404.196,142.832 L403.104,142.832 L403.104,149 L404.196,149 L404.196,142.832 Z M404.448,140.852 C404.448,140.348 404.16,140.072 403.668,140.072 C403.176,140.072 402.9,140.348 402.9,140.852 C402.9,141.356 403.176,141.644 403.668,141.644 C404.16,141.644 404.448,141.356 404.448,140.852 Z M409.752,142.832 L408.66,142.832 L408.66,149 L409.752,149 L409.752,142.832 Z M410.004,140.852 C410.004,140.348 409.716,140.072 409.224,140.072 C408.732,140.072 408.456,140.348 408.456,140.852 C408.456,141.356 408.732,141.644 409.224,141.644 C409.716,141.644 410.004,141.356 410.004,140.852 Z M413.652,142.7 C412.404,142.7 411.372,143.312 411.372,144.56 C411.372,146 412.584,146.216 413.592,146.42 C414.432,146.588 414.936,146.708 414.936,147.392 C414.936,148.052 414.396,148.28 413.652,148.28 C412.56,148.28 412.284,147.752 412.116,147.092 L411.144,147.356 C411.336,148.592 412.188,149.144 413.604,149.144 C415.104,149.144 416.016,148.448 416.016,147.272 C416.016,145.892 414.948,145.664 413.82,145.424 C412.956,145.244 412.452,145.064 412.452,144.428 C412.452,143.96 412.74,143.564 413.64,143.564 C414.54,143.564 414.78,143.996 414.924,144.704 L415.908,144.488 C415.716,143.396 415.116,142.7 413.652,142.7 Z M422.52,149.144 C420.384,149.144 419.676,147.764 419.676,145.94 C419.676,143.948 420.708,142.7 422.676,142.7 C424.632,142.7 425.436,143.96 425.436,145.796 C425.436,147.824 424.596,149.144 422.52,149.144 Z M422.58,148.268 C423.648,148.268 424.296,147.62 424.296,145.868 C424.296,144.164 423.696,143.6 422.628,143.6 C421.536,143.6 420.804,144.248 420.804,145.892 C420.804,147.524 421.38,148.268 422.58,148.268 Z M429.696,149 L432.012,142.832 L430.896,142.832 L429.108,147.908 L429.096,147.908 L427.284,142.832 L426.096,142.832 L428.448,149 L429.696,149 Z M435.516,149.144 C433.332,149.144 432.672,147.62 432.672,145.928 C432.672,143.672 433.992,142.7 435.576,142.7 C437.304,142.7 438.024,143.84 438.024,145.364 C438.024,145.604 438.012,145.88 437.976,146.168 L433.824,146.168 C433.872,147.74 434.568,148.232 435.552,148.232 C436.428,148.232 436.836,147.836 437.004,147.14 L437.964,147.356 C437.712,148.556 436.752,149.144 435.516,149.144 Z M433.836,145.304 L436.896,145.304 C436.896,144.2 436.476,143.588 435.504,143.588 C434.688,143.588 433.896,144.08 433.836,145.304 Z M442.884,142.712 C442.812,142.712 442.728,142.7 442.656,142.7 C441.792,142.7 441.144,142.988 440.604,143.72 L440.52,142.832 L439.608,142.832 L439.608,149 L440.7,149 L440.7,144.512 C441.204,144.044 442.116,143.732 442.884,143.84 L442.884,142.712 Z M443.172,150.44 L444.048,150.548 L445.056,147.728 L443.844,147.728 L443.172,150.44 Z M451.608,149.144 C452.844,149.144 453.936,148.544 454.14,147.116 L453.18,146.912 C453.024,147.824 452.484,148.232 451.644,148.232 C450.66,148.232 449.916,147.68 449.916,145.844 C449.916,144.092 450.792,143.612 451.68,143.612 C452.544,143.612 452.964,144.08 453.06,144.992 L454.104,144.848 C454.02,143.42 453.108,142.7 451.728,142.7 C449.88,142.7 448.776,143.828 448.776,145.976 C448.776,147.824 449.568,149.144 451.608,149.144 Z M458.076,149.144 C455.94,149.144 455.232,147.764 455.232,145.94 C455.232,143.948 456.264,142.7 458.232,142.7 C460.188,142.7 460.992,143.96 460.992,145.796 C460.992,147.824 460.152,149.144 458.076,149.144 Z M458.136,148.268 C459.204,148.268 459.852,147.62 459.852,145.868 C459.852,144.164 459.252,143.6 458.184,143.6 C457.092,143.6 456.36,144.248 456.36,145.892 C456.36,147.524 456.936,148.268 458.136,148.268 Z M467.064,144.824 L467.064,147.836 C467.064,148.172 467.124,148.316 467.436,148.316 C467.544,148.316 467.652,148.292 467.808,148.244 L467.856,148.928 C467.616,149.048 467.304,149.12 467.004,149.12 C466.392,149.12 466.116,148.784 466.056,148.388 C465.576,148.868 464.94,149.144 464.076,149.144 C462.516,149.144 462.252,148.088 462.252,147.488 C462.252,145.844 463.704,145.388 465.444,145.388 C465.636,145.388 465.816,145.4 465.984,145.412 L465.984,144.812 C465.984,144.032 465.768,143.552 464.76,143.552 C463.908,143.552 463.584,143.888 463.452,144.572 L462.492,144.392 C462.684,143.24 463.428,142.7 464.856,142.7 C466.38,142.7 467.064,143.288 467.064,144.824 Z M465.996,147.596 L465.996,146.204 C465.828,146.18 465.6,146.168 465.372,146.168 C464.52,146.168 463.38,146.252 463.38,147.308 C463.38,147.836 463.572,148.292 464.412,148.292 C465.048,148.292 465.66,147.956 465.996,147.596 Z M471.096,142.7 C469.848,142.7 468.816,143.312 468.816,144.56 C468.816,146 470.028,146.216 471.036,146.42 C471.876,146.588 472.38,146.708 472.38,147.392 C472.38,148.052 471.84,148.28 471.096,148.28 C470.004,148.28 469.728,147.752 469.56,147.092 L468.588,147.356 C468.78,148.592 469.632,149.144 471.048,149.144 C472.548,149.144 473.46,148.448 473.46,147.272 C473.46,145.892 472.392,145.664 471.264,145.424 C470.4,145.244 469.896,145.064 469.896,144.428 C469.896,143.96 470.184,143.564 471.084,143.564 C471.984,143.564 472.224,143.996 472.368,144.704 L473.352,144.488 C473.16,143.396 472.56,142.7 471.096,142.7 Z M478.188,147.944 C477.924,148.088 477.48,148.244 477.108,148.244 C476.364,148.244 476.22,147.884 476.22,147.236 L476.22,143.708 L477.924,143.708 L477.924,142.832 L476.22,142.832 L476.22,140.876 L475.128,141.044 L475.128,142.832 L474.18,142.832 L474.18,143.708 L475.128,143.708 L475.128,147.38 C475.128,148.616 475.716,149.144 476.868,149.144 C477.444,149.144 478.08,148.94 478.38,148.736 L478.188,147.944 Z M483.996,144.824 L483.996,147.836 C483.996,148.172 484.056,148.316 484.368,148.316 C484.476,148.316 484.584,148.292 484.74,148.244 L484.788,148.928 C484.548,149.048 484.236,149.12 483.936,149.12 C483.324,149.12 483.048,148.784 482.988,148.388 C482.508,148.868 481.872,149.144 481.008,149.144 C479.448,149.144 479.184,148.088 479.184,147.488 C479.184,145.844 480.636,145.388 482.376,145.388 C482.568,145.388 482.748,145.4 482.916,145.412 L482.916,144.812 C482.916,144.032 482.7,143.552 481.692,143.552 C480.84,143.552 480.516,143.888 480.384,144.572 L479.424,144.392 C479.616,143.24 480.36,142.7 481.788,142.7 C483.312,142.7 483.996,143.288 483.996,144.824 Z M482.928,147.596 L482.928,146.204 C482.76,146.18 482.532,146.168 482.304,146.168 C481.452,146.168 480.312,146.252 480.312,147.308 C480.312,147.836 480.504,148.292 481.344,148.292 C481.98,148.292 482.592,147.956 482.928,147.596 Z M487.116,139.94 L486.024,139.94 L486.024,149 L487.116,149 L487.116,139.94 Z M494.832,147.944 C494.568,148.088 494.124,148.244 493.752,148.244 C493.008,148.244 492.864,147.884 492.864,147.236 L492.864,143.708 L494.568,143.708 L494.568,142.832 L492.864,142.832 L492.864,140.876 L491.772,141.044 L491.772,142.832 L490.824,142.832 L490.824,143.708 L491.772,143.708 L491.772,147.38 C491.772,148.616 492.36,149.144 493.512,149.144 C494.088,149.144 494.724,148.94 495.024,148.736 L494.832,147.944 Z M498.588,149.144 C496.452,149.144 495.744,147.764 495.744,145.94 C495.744,143.948 496.776,142.7 498.744,142.7 C500.7,142.7 501.504,143.96 501.504,145.796 C501.504,147.824 500.664,149.144 498.588,149.144 Z M498.648,148.268 C499.716,148.268 500.364,147.62 500.364,145.868 C500.364,144.164 499.764,143.6 498.696,143.6 C497.604,143.6 496.872,144.248 496.872,145.892 C496.872,147.524 497.448,148.268 498.648,148.268 Z M505.392,149 L506.652,144.14 L506.664,144.14 L507.936,149 L509.208,149 L511.128,142.832 L510.072,142.832 L508.608,147.824 L508.596,147.824 L507.252,142.832 L506.124,142.832 L504.768,147.848 L503.268,142.832 L502.164,142.832 L504.096,149 L505.392,149 Z M517.308,144.812 C517.308,143.42 516.732,142.7 515.412,142.7 C514.56,142.7 513.792,143.084 513.192,143.564 L513.132,142.832 L512.172,142.832 L512.172,149 L513.264,149 L513.264,144.404 C513.588,144.116 514.356,143.66 515.064,143.66 C515.904,143.66 516.216,144.128 516.216,144.98 L516.216,149 L517.308,149 L517.308,144.812 Z M521.16,142.7 C519.912,142.7 518.88,143.312 518.88,144.56 C518.88,146 520.092,146.216 521.1,146.42 C521.94,146.588 522.444,146.708 522.444,147.392 C522.444,148.052 521.904,148.28 521.16,148.28 C520.068,148.28 519.792,147.752 519.624,147.092 L518.652,147.356 C518.844,148.592 519.696,149.144 521.112,149.144 C522.612,149.144 523.524,148.448 523.524,147.272 C523.524,145.892 522.456,145.664 521.328,145.424 C520.464,145.244 519.96,145.064 519.96,144.428 C519.96,143.96 520.248,143.564 521.148,143.564 C522.048,143.564 522.288,143.996 522.432,144.704 L523.416,144.488 C523.224,143.396 522.624,142.7 521.16,142.7 Z M321.42,164.144 C322.656,164.144 323.748,163.544 323.952,162.116 L322.992,161.912 C322.836,162.824 322.296,163.232 321.456,163.232 C320.472,163.232 319.728,162.68 319.728,160.844 C319.728,159.092 320.604,158.612 321.492,158.612 C322.356,158.612 322.776,159.08 322.872,159.992 L323.916,159.848 C323.832,158.42 322.92,157.7 321.54,157.7 C319.692,157.7 318.588,158.828 318.588,160.976 C318.588,162.824 319.38,164.144 321.42,164.144 Z M329.94,159.824 L329.94,162.836 C329.94,163.172 330,163.316 330.312,163.316 C330.42,163.316 330.528,163.292 330.684,163.244 L330.732,163.928 C330.492,164.048 330.18,164.12 329.88,164.12 C329.268,164.12 328.992,163.784 328.932,163.388 C328.452,163.868 327.816,164.144 326.952,164.144 C325.392,164.144 325.128,163.088 325.128,162.488 C325.128,160.844 326.58,160.388 328.32,160.388 C328.512,160.388 328.692,160.4 328.86,160.412 L328.86,159.812 C328.86,159.032 328.644,158.552 327.636,158.552 C326.784,158.552 326.46,158.888 326.328,159.572 L325.368,159.392 C325.56,158.24 326.304,157.7 327.732,157.7 C329.256,157.7 329.94,158.288 329.94,159.824 Z M328.872,162.596 L328.872,161.204 C328.704,161.18 328.476,161.168 328.248,161.168 C327.396,161.168 326.256,161.252 326.256,162.308 C326.256,162.836 326.448,163.292 327.288,163.292 C327.924,163.292 328.536,162.956 328.872,162.596 Z M337.104,159.812 C337.104,158.42 336.528,157.7 335.208,157.7 C334.356,157.7 333.588,158.084 332.988,158.564 L332.928,157.832 L331.968,157.832 L331.968,164 L333.06,164 L333.06,159.404 C333.384,159.116 334.152,158.66 334.86,158.66 C335.7,158.66 336.012,159.128 336.012,159.98 L336.012,164 L337.104,164 L337.104,159.812 Z M344.796,157.712 C344.724,157.712 344.64,157.7 344.568,157.7 C343.704,157.7 343.056,157.988 342.516,158.72 L342.432,157.832 L341.52,157.832 L341.52,164 L342.612,164 L342.612,159.512 C343.116,159.044 344.028,158.732 344.796,158.84 L344.796,157.712 Z M348.348,164.144 C346.164,164.144 345.504,162.62 345.504,160.928 C345.504,158.672 346.824,157.7 348.408,157.7 C350.136,157.7 350.856,158.84 350.856,160.364 C350.856,160.604 350.844,160.88 350.808,161.168 L346.656,161.168 C346.704,162.74 347.4,163.232 348.384,163.232 C349.26,163.232 349.668,162.836 349.836,162.14 L350.796,162.356 C350.544,163.556 349.584,164.144 348.348,164.144 Z M346.668,160.304 L349.728,160.304 C349.728,159.2 349.308,158.588 348.336,158.588 C347.52,158.588 346.728,159.08 346.668,160.304 Z M353.532,159.392 C353.856,159.092 354.612,158.66 355.236,158.66 C356.028,158.66 356.196,159.128 356.196,159.956 L356.196,164 L357.288,164 L357.288,159.8 C357.288,159.644 357.276,159.488 357.264,159.344 C357.624,159.044 358.332,158.66 358.92,158.66 C359.712,158.66 359.88,159.128 359.88,159.956 L359.88,164 L360.972,164 L360.972,159.8 C360.972,158.42 360.516,157.7 359.22,157.7 C358.38,157.7 357.684,158.072 357.084,158.552 C356.844,157.976 356.352,157.7 355.536,157.7 C354.696,157.7 354.048,158.06 353.436,158.528 L353.376,157.832 L352.44,157.832 L352.44,164 L353.532,164 L353.532,159.392 Z M367.344,159.824 L367.344,162.836 C367.344,163.172 367.404,163.316 367.716,163.316 C367.824,163.316 367.932,163.292 368.088,163.244 L368.136,163.928 C367.896,164.048 367.584,164.12 367.284,164.12 C366.672,164.12 366.396,163.784 366.336,163.388 C365.856,163.868 365.22,164.144 364.356,164.144 C362.796,164.144 362.532,163.088 362.532,162.488 C362.532,160.844 363.984,160.388 365.724,160.388 C365.916,160.388 366.096,160.4 366.264,160.412 L366.264,159.812 C366.264,159.032 366.048,158.552 365.04,158.552 C364.188,158.552 363.864,158.888 363.732,159.572 L362.772,159.392 C362.964,158.24 363.708,157.7 365.136,157.7 C366.66,157.7 367.344,158.288 367.344,159.824 Z M366.276,162.596 L366.276,161.204 C366.108,161.18 365.88,161.168 365.652,161.168 C364.8,161.168 363.66,161.252 363.66,162.308 C363.66,162.836 363.852,163.292 364.692,163.292 C365.328,163.292 365.94,162.956 366.276,162.596 Z M370.464,157.832 L369.372,157.832 L369.372,164 L370.464,164 L370.464,157.832 Z M370.716,155.852 C370.716,155.348 370.428,155.072 369.936,155.072 C369.444,155.072 369.168,155.348 369.168,155.852 C369.168,156.356 369.444,156.644 369.936,156.644 C370.428,156.644 370.716,156.356 370.716,155.852 Z M377.496,159.812 C377.496,158.42 376.92,157.7 375.6,157.7 C374.748,157.7 373.98,158.084 373.38,158.564 L373.32,157.832 L372.36,157.832 L372.36,164 L373.452,164 L373.452,159.404 C373.776,159.116 374.544,158.66 375.252,158.66 C376.092,158.66 376.404,159.128 376.404,159.98 L376.404,164 L377.496,164 L377.496,159.812 Z M384.948,155.024 C384.744,154.928 384.324,154.82 383.844,154.82 C382.692,154.82 382.044,155.48 382.044,156.836 L382.044,157.832 L381.132,157.832 L381.132,158.708 L382.044,158.708 L382.044,164 L383.136,164 L383.136,158.708 L384.804,158.708 L384.804,157.832 L383.136,157.832 L383.136,156.788 C383.136,155.96 383.508,155.72 384.048,155.72 C384.324,155.72 384.648,155.78 384.9,155.864 L384.948,155.024 Z M386.88,154.94 L385.788,154.94 L385.788,164 L386.88,164 L386.88,154.94 Z M391.236,164.144 C389.1,164.144 388.392,162.764 388.392,160.94 C388.392,158.948 389.424,157.7 391.392,157.7 C393.348,157.7 394.152,158.96 394.152,160.796 C394.152,162.824 393.312,164.144 391.236,164.144 Z M391.296,163.268 C392.364,163.268 393.012,162.62 393.012,160.868 C393.012,159.164 392.412,158.6 391.344,158.6 C390.252,158.6 389.52,159.248 389.52,160.892 C389.52,162.524 390.096,163.268 391.296,163.268 Z M398.172,164.144 C396.036,164.144 395.328,162.764 395.328,160.94 C395.328,158.948 396.36,157.7 398.328,157.7 C400.284,157.7 401.088,158.96 401.088,160.796 C401.088,162.824 400.248,164.144 398.172,164.144 Z M398.232,163.268 C399.3,163.268 399.948,162.62 399.948,160.868 C399.948,159.164 399.348,158.6 398.28,158.6 C397.188,158.6 396.456,159.248 396.456,160.892 C396.456,162.524 397.032,163.268 398.232,163.268 Z M407.676,154.94 L407.676,164 L406.764,164 L406.68,163.34 L406.668,163.328 C406.14,163.808 405.516,164.144 404.628,164.144 C403.224,164.144 402.276,163.256 402.276,161.012 C402.276,158.576 403.512,157.7 404.88,157.7 C405.588,157.7 406.176,157.928 406.608,158.276 L406.608,154.94 L407.676,154.94 Z M406.596,162.476 L406.596,159.176 C406.308,158.96 405.732,158.636 405.024,158.636 C403.836,158.636 403.404,159.584 403.404,161.012 C403.404,162.512 403.872,163.232 404.952,163.232 C405.588,163.232 406.212,162.86 406.596,162.476 Z M412.032,164.144 C409.848,164.144 409.188,162.62 409.188,160.928 C409.188,158.672 410.508,157.7 412.092,157.7 C413.82,157.7 414.54,158.84 414.54,160.364 C414.54,160.604 414.528,160.88 414.492,161.168 L410.34,161.168 C410.388,162.74 411.084,163.232 412.068,163.232 C412.944,163.232 413.352,162.836 413.52,162.14 L414.48,162.356 C414.228,163.556 413.268,164.144 412.032,164.144 Z M410.352,160.304 L413.412,160.304 C413.412,159.2 412.992,158.588 412.02,158.588 C411.204,158.588 410.412,159.08 410.352,160.304 Z M421.152,154.94 L421.152,164 L420.24,164 L420.156,163.34 L420.144,163.328 C419.616,163.808 418.992,164.144 418.104,164.144 C416.7,164.144 415.752,163.256 415.752,161.012 C415.752,158.576 416.988,157.7 418.356,157.7 C419.064,157.7 419.652,157.928 420.084,158.276 L420.084,154.94 L421.152,154.94 Z M420.072,162.476 L420.072,159.176 C419.784,158.96 419.208,158.636 418.5,158.636 C417.312,158.636 416.88,159.584 416.88,161.012 C416.88,162.512 417.348,163.232 418.428,163.232 C419.064,163.232 419.688,162.86 420.072,162.476 Z M428.712,155.024 C428.508,154.928 428.088,154.82 427.584,154.82 C426.408,154.82 425.748,155.48 425.748,156.836 L425.748,157.832 L424.836,157.832 L424.836,158.708 L425.748,158.708 L425.748,164 L426.84,164 L426.84,158.708 L428.556,158.708 L428.556,157.832 L426.84,157.832 L426.84,156.8 C426.84,155.936 427.236,155.708 427.8,155.708 C428.088,155.708 428.424,155.78 428.664,155.864 L428.712,155.024 Z M432,164.144 C429.864,164.144 429.156,162.764 429.156,160.94 C429.156,158.948 430.188,157.7 432.156,157.7 C434.112,157.7 434.916,158.96 434.916,160.796 C434.916,162.824 434.076,164.144 432,164.144 Z M432.06,163.268 C433.128,163.268 433.776,162.62 433.776,160.868 C433.776,159.164 433.176,158.6 432.108,158.6 C431.016,158.6 430.284,159.248 430.284,160.892 C430.284,162.524 430.86,163.268 432.06,163.268 Z M439.752,157.712 C439.68,157.712 439.596,157.7 439.524,157.7 C438.66,157.7 438.012,157.988 437.472,158.72 L437.388,157.832 L436.476,157.832 L436.476,164 L437.568,164 L437.568,159.512 C438.072,159.044 438.984,158.732 439.752,158.84 L439.752,157.712 Z M445.74,164 L447,159.14 L447.012,159.14 L448.284,164 L449.556,164 L451.476,157.832 L450.42,157.832 L448.956,162.824 L448.944,162.824 L447.6,157.832 L446.472,157.832 L445.116,162.848 L443.616,157.832 L442.512,157.832 L444.444,164 L445.74,164 Z M454.98,164.144 C452.796,164.144 452.136,162.62 452.136,160.928 C452.136,158.672 453.456,157.7 455.04,157.7 C456.768,157.7 457.488,158.84 457.488,160.364 C457.488,160.604 457.476,160.88 457.44,161.168 L453.288,161.168 C453.336,162.74 454.032,163.232 455.016,163.232 C455.892,163.232 456.3,162.836 456.468,162.14 L457.428,162.356 C457.176,163.556 456.216,164.144 454.98,164.144 Z M453.3,160.304 L456.36,160.304 C456.36,159.2 455.94,158.588 454.968,158.588 C454.152,158.588 453.36,159.08 453.3,160.304 Z M461.532,164.144 C459.348,164.144 458.688,162.62 458.688,160.928 C458.688,158.672 460.008,157.7 461.592,157.7 C463.32,157.7 464.04,158.84 464.04,160.364 C464.04,160.604 464.028,160.88 463.992,161.168 L459.84,161.168 C459.888,162.74 460.584,163.232 461.568,163.232 C462.444,163.232 462.852,162.836 463.02,162.14 L463.98,162.356 C463.728,163.556 462.768,164.144 461.532,164.144 Z M459.852,160.304 L462.912,160.304 C462.912,159.2 462.492,158.588 461.52,158.588 C460.704,158.588 459.912,159.08 459.852,160.304 Z M466.716,154.94 L465.624,154.94 L465.624,164 L466.716,164 L466.716,161.756 L467.664,160.82 L469.56,164 L470.76,164 L468.468,160.052 L470.604,157.832 L469.368,157.832 L466.716,160.544 L466.716,154.94 Z M474,157.7 C472.752,157.7 471.72,158.312 471.72,159.56 C471.72,161 472.932,161.216 473.94,161.42 C474.78,161.588 475.284,161.708 475.284,162.392 C475.284,163.052 474.744,163.28 474,163.28 C472.908,163.28 472.632,162.752 472.464,162.092 L471.492,162.356 C471.684,163.592 472.536,164.144 473.952,164.144 C475.452,164.144 476.364,163.448 476.364,162.272 C476.364,160.892 475.296,160.664 474.168,160.424 C473.304,160.244 472.8,160.064 472.8,159.428 C472.8,158.96 473.088,158.564 473.988,158.564 C474.888,158.564 475.128,158.996 475.272,159.704 L476.256,159.488 C476.064,158.396 475.464,157.7 474,157.7 Z M479.04,163.34 C479.04,162.812 478.752,162.536 478.224,162.536 C477.696,162.536 477.408,162.812 477.408,163.34 C477.408,163.88 477.696,164.144 478.224,164.144 C478.752,164.144 479.04,163.868 479.04,163.34 Z" id="When-a-tsunami-is-ov" fill="#3B3B3B"></path>
                </g>
                <rect id="Rectangle-50" fill="url(#linearGradient-5)" x="0" y="209" width="631" height="140"></rect>
                <g id="Group-10" transform="translate(129.000000, 251.000000)">
                    <g id="Group-9">
                        <polyline id="Rectangle-39" fill="#E9E9E9" points="278.538531 88.8 282.584959 89.0473423 277.869062 148 275.68897 147.866739 273.822635 147.752658"></polyline>
                        <path d="M278.835695,117.851852 L326.876599,117.851852" id="Line" stroke="#E9E9E9" stroke-linecap="square"></path>
                        <polyline id="Rectangle-39-Copy" fill="#E9E9E9" points="322.015418 89.1709907 325.199706 88.8 330.777743 147.629009 329.258629 147.805996 327.593455 148"></polyline>
                        <path d="M277.573335,5.18246931 C277.75923,3.53120599 279.237956,1.97595989 280.879293,1.73000008 C280.879293,1.73000008 290.174963,0.0362363446 302.849116,0.0362363446 C315.523269,0.0362363446 324.51636,1.7246954 324.51636,1.7246954 C326.135976,1.98310789 327.605872,3.52589628 327.799554,5.17137586 L335.227848,68.280476 C335.42149,69.9256126 334.235832,71.1677293 332.58461,71.0624786 C332.58461,71.0624786 319.13854,70.0675857 302.849116,70.0675857 C286.559692,70.0675857 273.125977,71.0624786 273.125977,71.0624786 C271.473865,71.1711576 270.284664,69.9259556 270.471157,68.2693825 L277.573335,5.18246931 Z" id="Rectangle-41" fill="#E9E9E9"></path>
                        <rect id="Rectangle-2" fill="#E9E9E9" x="262.869729" y="57.0074074" width="2.19058108" height="26.3111111"></rect>
                        <polygon id="Path-17-Copy" fill="#C0C0C0" points="259.583858 57.0074074 259.583858 54.8148148 339.540067 54.8148148 339.540067 57.0074074"></polygon>
                        <path d="M284.227895,66.247619 L284.227895,85.0412698" id="Line" stroke="#E9E9E9" stroke-linecap="square"></path>
                        <path d="M320.372483,66.247619 L320.372483,85.0412698" id="Line" stroke="#E9E9E9" stroke-linecap="square"></path>
                        <g id="Group-5" transform="translate(257.261639, 84.414815)">
                            <g id="Group-9-Copy" transform="translate(43.064299, 3.000000) scale(-1, 1) translate(-43.064299, -3.000000) translate(0.564299, 0.000000)">
                                <polygon id="Path-17" fill="#E9E9E9" points="0 2.74074074 0 1.8189894e-12 84.5992573 1.8189894e-12 84.5992573 2.74074074"></polygon>
                                <path d="M0,2.74074074 L84.5500491,2.74074074 L84.5500491,4.11111111 C84.5500491,4.86794577 83.941759,5.48148148 83.1877241,5.48148148 L1.36232502,5.48148148 C0.609933686,5.48148148 0,4.87322228 0,4.11111111 L0,2.74074074 Z" id="Rectangle-40" fill="#C0C0C0"></path>
                            </g>
                        </g>
                        <polyline id="Rectangle-39" fill="#E9E9E9" points="150.389538 88.8 154.435966 89.0473423 149.720069 148 147.539977 147.866739 145.673642 147.752658"></polyline>
                        <path d="M149.591412,117.851852 L197.632315,117.851852" id="Line" stroke="#E9E9E9" stroke-linecap="square"></path>
                        <polyline id="Rectangle-39-Copy" fill="#E9E9E9" points="193.866425 89.1709907 197.050713 88.8 202.62875 147.629009 201.109636 147.805996 199.444461 148"></polyline>
                        <path d="M148.329051,5.18246931 C148.514947,3.53120599 149.989452,2.00116767 151.630701,1.78187714 C151.630701,1.78187714 161.304567,0.233378621 173.604757,0.233378621 C185.904946,0.233378621 195.256121,1.77469514 195.256121,1.77469514 C196.884549,2.00549353 198.361588,3.52589628 198.55527,5.17137586 L205.983564,68.280476 C206.177206,69.9256126 204.993655,71.0827059 203.358644,70.8805546 C203.358644,70.8805546 189.501404,68.9103045 173.604786,68.9103045 C157.708169,68.9103045 143.852575,70.881859 143.852575,70.881859 C142.216545,71.0902914 141.04038,69.9259556 141.226873,68.2693825 L148.329051,5.18246931 Z" id="Rectangle-41" fill="#E9E9E9"></path>
                        <rect id="Rectangle-2" fill="#E9E9E9" x="133.625446" y="57.0074074" width="2.19058108" height="26.3111111"></rect>
                        <polygon id="Path-17-Copy" fill="#C0C0C0" points="131.434865 57.0074074 131.434865 54.8148148 211.391074 54.8148148 211.391074 57.0074074"></polygon>
                        <path d="M156.078902,66.247619 L156.078902,85.0412698" id="Line" stroke="#E9E9E9" stroke-linecap="square"></path>
                        <path d="M191.128199,66.247619 L191.128199,85.0412698" id="Line" stroke="#E9E9E9" stroke-linecap="square"></path>
                        <g id="Group-5" transform="translate(128.017356, 84.414815)">
                            <g id="Group-9-Copy" transform="translate(43.064299, 3.000000) scale(-1, 1) translate(-43.064299, -3.000000) translate(0.564299, 0.000000)">
                                <polygon id="Path-17" fill="#E9E9E9" points="0 2.74074074 0 1.8189894e-12 84.5992573 1.8189894e-12 84.5992573 2.74074074"></polygon>
                                <path d="M0,2.74074074 L84.5500491,2.74074074 L84.5500491,4.11111111 C84.5500491,4.86794577 83.941759,5.48148148 83.1877241,5.48148148 L1.36232502,5.48148148 C0.609933686,5.48148148 0,4.87322228 0,4.11111111 L0,2.74074074 Z" id="Rectangle-40" fill="#C0C0C0"></path>
                            </g>
                        </g>
                        <g id="Group-2">
                            <polyline id="Rectangle-39-Copy-2" fill="#E9E9E9" points="22.1010911 88.2664045 26.2061628 88.5133398 21.4219199 147.369005 19.210232 147.235964 17.3168483 147.12207"></polyline>
                            <path d="M21.7615055,118.133202 L70.0344907,118.133202" id="Line-Copy" stroke="#E9E9E9" stroke-linecap="square"></path>
                            <polyline id="Rectangle-39-Copy-3" fill="#E9E9E9" points="65.5731271 88.6364314 68.8035643 88.2664045 74.4624416 146.942584 72.9213118 147.119111 71.2320043 147.312611"></polyline>
                            <path d="M20.5367531,5.16884679 C20.7210222,3.52510699 22.190062,2.00152097 23.845168,1.78025015 C23.845168,1.78025015 33.4661618,0.236994621 45.7760555,0.236994621 C58.0859492,0.236994621 67.3849551,1.77306776 67.3849551,1.77306776 C69.018559,2.00476493 70.4995831,3.52973569 70.6917032,5.16884679 L78.1126216,68.4818907 C78.3052843,70.1256305 77.1403597,71.2399956 75.5031294,70.98727 C75.5031294,70.98727 62.1113292,68.5871296 45.7760313,68.5871296 C29.4407334,68.5871296 16.0613799,70.98727 16.0613799,70.98727 C14.4288831,71.247327 13.2553815,70.1210018 13.4391318,68.4818907 L20.5367531,5.16884679 Z" id="Rectangle-41-Copy" fill="#E9E9E9"></path>
                            <rect id="Rectangle-2-Copy" fill="#E9E9E9" x="5.88772961" y="57.0171091" width="2.53980415" height="26.6894789"></rect>
                            <polygon id="Path-17-Copy-2" fill="#C0C0C0" points="3.34792546 57.0171091 3.34792546 54.475254 83.3517561 54.475254 83.3517561 57.0171091"></polygon>
                            <path d="M27.9299087,66.4254701 L27.9299087,85.5743668" id="Line-Copy-2" stroke="#E9E9E9" stroke-linecap="square"></path>
                            <path d="M62.979206,66.4254701 L62.979206,85.5743668" id="Line-Copy-3" stroke="#E9E9E9" stroke-linecap="square"></path>
                            <g id="Group-5-Copy" transform="translate(0.808121, 84.802884)">
                                <g id="Group-9-Copy" transform="translate(42.583439, 3.000000) scale(-1, 1) translate(-42.583439, -3.000000) translate(0.083439, 0.000000)">
                                    <polygon id="Path-17" fill="#E9E9E9" points="0 2.54185513 0 1.8189894e-12 84.2534409 1.8189894e-12 84.2534409 2.54185513"></polygon>
                                    <path d="M0,2.54185513 L84.2044339,2.54185513 L84.2044339,3.81278269 C84.2044339,4.51469661 83.6444595,5.08371026 82.9321722,5.08371026 L1.27226169,5.08371026 C0.569610963,5.08371026 0,4.51959022 0,3.81278269 L0,2.54185513 Z" id="Rectangle-40" fill="#C0C0C0"></path>
                                </g>
                            </g>
                        </g>
                    </g>
                    <path d="M268,49 L296,49 C296,49 295.095316,50.5 295.095316,52 C295.095316,53.5 296,55 296,55 L268,55 L268,49 Z" id="Rectangle-43" fill="#A8E167"></path>
                    <path d="M8,49 L36,49 C36,49 35.0953161,50.5 35.0953161,52 C35.0953161,53.5 36,55 36,55 L8,55 L8,49 Z" id="Rectangle-43-Copy" fill="#F5BA5B"></path>
                    <path d="M10,44 L38,44 C38,44 37.0953161,45.5 37.0953161,47 C37.0953161,48.5 38,50 38,50 L10,50 L10,44 Z" id="Rectangle-43-Copy-2" fill="#F8A724"></path>
                </g>
            </g>
        </g>
    </g>
</svg>