<?xml version="1.0" encoding="UTF-8"?>
<svg width="332px" height="149px" viewBox="0 0 332 149" version="1.1" xmlns="http://www.w3.org/2000/svg" xmlns:xlink="http://www.w3.org/1999/xlink">
    <!-- Generator: Sketch 43.2 (39069) - http://www.bohemiancoding.com/sketch -->
    <title>Group 10</title>
    <desc>Created with Sketch.</desc>
    <defs></defs>
    <g id="V1" stroke="none" stroke-width="1" fill="none" fill-rule="evenodd">
        <g id="12_00-Guide-2-Copy-2" transform="translate(-950.000000, -121.000000)">
            <g id="Group-10" transform="translate(951.000000, 122.000000)">
                <path d="M79.482,59.59 L77.88,59.59 L79.464,47.926 L75.648,47.926 L75.828,46.558 L85.062,46.558 L84.864,47.926 L81.066,47.926 L79.482,59.59 Z M87.546,52.93 L86.61,59.59 L84.972,59.59 L86.88,46 L88.5,46 L87.672,51.616 C88.392,51.004 89.67,50.158 91.092,50.158 C92.964,50.158 93.828,51.202 93.54,53.326 L92.676,59.59 L91.038,59.59 L91.884,53.506 C92.082,52.102 91.632,51.526 90.624,51.526 C89.454,51.526 88.464,52.228 87.546,52.93 Z M99.102,59.806 C96.402,59.806 95.484,57.97 95.484,55.774 C95.484,52.75 97.284,50.158 100.434,50.158 C102.45,50.158 103.404,51.238 103.404,52.552 C103.404,54.1 102.378,54.982 100.992,55.414 C99.624,55.846 98.004,55.936 97.122,55.972 C97.14,57.232 97.446,58.51 99.354,58.51 C100.668,58.51 101.424,57.736 101.712,56.782 L103.062,57.088 C102.522,58.924 100.938,59.806 99.102,59.806 Z M100.326,51.4 C98.436,51.4 97.428,52.948 97.194,54.73 C97.626,54.712 99.138,54.64 100.362,54.262 C101.262,53.974 101.838,53.488 101.838,52.624 C101.838,51.814 101.262,51.4 100.326,51.4 Z M112.728,50.158 C110.946,50.158 109.218,51.004 109.218,52.966 C109.218,54.856 110.73,55.198 112.026,55.558 C113.016,55.828 113.88,56.134 113.88,57.106 C113.88,58.258 112.8,58.582 111.828,58.582 C110.226,58.582 109.776,57.736 109.65,56.692 L108.3,56.998 C108.462,58.834 109.56,59.806 111.738,59.806 C113.97,59.806 115.482,58.744 115.482,56.872 C115.482,54.946 113.808,54.622 112.458,54.226 C111.54,53.956 110.766,53.632 110.766,52.75 C110.766,52.03 111.234,51.346 112.692,51.346 C114.042,51.346 114.51,52.174 114.564,53.2 L115.95,53.002 C115.86,51.382 114.924,50.158 112.728,50.158 Z M122.412,58.078 C121.998,58.312 121.35,58.546 120.756,58.546 C119.658,58.546 119.55,57.934 119.694,56.962 L120.468,51.544 L123.006,51.544 L123.168,50.338 L120.63,50.338 L121.026,47.44 L119.37,47.674 L118.992,50.338 L117.552,50.338 L117.39,51.544 L118.83,51.544 L118.038,57.142 C117.768,58.978 118.614,59.806 120.378,59.806 C121.206,59.806 122.124,59.536 122.628,59.23 L122.412,58.078 Z M127.866,59.806 C125.166,59.806 124.248,57.97 124.248,55.774 C124.248,52.75 126.048,50.158 129.198,50.158 C131.214,50.158 132.168,51.238 132.168,52.552 C132.168,54.1 131.142,54.982 129.756,55.414 C128.388,55.846 126.768,55.936 125.886,55.972 C125.904,57.232 126.21,58.51 128.118,58.51 C129.432,58.51 130.188,57.736 130.476,56.782 L131.826,57.088 C131.286,58.924 129.702,59.806 127.866,59.806 Z M129.09,51.4 C127.2,51.4 126.192,52.948 125.958,54.73 C126.39,54.712 127.902,54.64 129.126,54.262 C130.026,53.974 130.602,53.488 130.602,52.624 C130.602,51.814 130.026,51.4 129.09,51.4 Z M136.362,50.338 L136.164,51.598 C137.082,50.86 138.252,50.158 139.584,50.158 C141.24,50.158 142.41,51.13 142.41,53.668 C142.41,57.988 140.214,59.806 137.874,59.806 C136.722,59.806 135.804,59.338 135.21,58.816 L134.562,63.406 L132.978,63.406 L134.814,50.338 L136.362,50.338 Z M140.7,53.794 C140.7,52.138 140.196,51.508 139.116,51.508 C138.054,51.508 136.704,52.318 136.092,52.858 L135.444,57.52 C135.786,57.826 136.668,58.456 137.676,58.456 C139.998,58.456 140.7,56.098 140.7,53.794 Z M148.386,55.036 L148.602,53.542 L143.724,53.542 L143.508,55.036 L148.386,55.036 Z M151.23,59.59 L149.736,59.59 L151.644,46 L153.246,46 L152.454,51.544 C153.39,50.824 154.452,50.158 155.802,50.158 C157.44,50.158 158.61,51.112 158.61,53.668 C158.61,57.952 156.468,59.806 154.2,59.806 C153.066,59.806 152.148,59.392 151.41,58.762 L151.392,58.762 L151.23,59.59 Z M152.31,52.876 L151.662,57.502 C152.022,57.826 152.832,58.438 153.966,58.438 C156.162,58.438 156.918,56.152 156.918,53.794 C156.918,52.21 156.396,51.508 155.298,51.508 C154.254,51.508 152.922,52.336 152.31,52.876 Z M162.228,59.662 L160.284,50.338 L161.994,50.338 L163.326,57.79 L166.782,50.338 L168.492,50.338 L163.614,60.166 C162.318,62.74 161.67,63.604 159.978,63.604 C159.294,63.604 158.718,63.442 158.376,63.28 L158.664,62.092 C159.006,62.236 159.456,62.362 159.942,62.362 C160.824,62.362 161.31,61.696 162.228,59.662 Z M173.226,55.036 L168.348,55.036 L168.564,53.542 L173.442,53.542 L173.226,55.036 Z M178.698,50.158 C176.916,50.158 175.188,51.004 175.188,52.966 C175.188,54.856 176.7,55.198 177.996,55.558 C178.986,55.828 179.85,56.134 179.85,57.106 C179.85,58.258 178.77,58.582 177.798,58.582 C176.196,58.582 175.746,57.736 175.62,56.692 L174.27,56.998 C174.432,58.834 175.53,59.806 177.708,59.806 C179.94,59.806 181.452,58.744 181.452,56.872 C181.452,54.946 179.778,54.622 178.428,54.226 C177.51,53.956 176.736,53.632 176.736,52.75 C176.736,52.03 177.204,51.346 178.662,51.346 C180.012,51.346 180.48,52.174 180.534,53.2 L181.92,53.002 C181.83,51.382 180.894,50.158 178.698,50.158 Z M188.382,58.078 C187.968,58.312 187.32,58.546 186.726,58.546 C185.628,58.546 185.52,57.934 185.664,56.962 L186.438,51.544 L188.976,51.544 L189.138,50.338 L186.6,50.338 L186.996,47.44 L185.34,47.674 L184.962,50.338 L183.522,50.338 L183.36,51.544 L184.8,51.544 L184.008,57.142 C183.738,58.978 184.584,59.806 186.348,59.806 C187.176,59.806 188.094,59.536 188.598,59.23 L188.382,58.078 Z M193.836,59.806 C191.136,59.806 190.218,57.97 190.218,55.774 C190.218,52.75 192.018,50.158 195.168,50.158 C197.184,50.158 198.138,51.238 198.138,52.552 C198.138,54.1 197.112,54.982 195.726,55.414 C194.358,55.846 192.738,55.936 191.856,55.972 C191.874,57.232 192.18,58.51 194.088,58.51 C195.402,58.51 196.158,57.736 196.446,56.782 L197.796,57.088 C197.256,58.924 195.672,59.806 193.836,59.806 Z M195.06,51.4 C193.17,51.4 192.162,52.948 191.928,54.73 C192.36,54.712 193.872,54.64 195.096,54.262 C195.996,53.974 196.572,53.488 196.572,52.624 C196.572,51.814 195.996,51.4 195.06,51.4 Z M202.332,50.338 L202.134,51.598 C203.052,50.86 204.222,50.158 205.554,50.158 C207.21,50.158 208.38,51.13 208.38,53.668 C208.38,57.988 206.184,59.806 203.844,59.806 C202.692,59.806 201.774,59.338 201.18,58.816 L200.532,63.406 L198.948,63.406 L200.784,50.338 L202.332,50.338 Z M206.67,53.794 C206.67,52.138 206.166,51.508 205.086,51.508 C204.024,51.508 202.674,52.318 202.062,52.858 L201.414,57.52 C201.756,57.826 202.638,58.456 203.646,58.456 C205.968,58.456 206.67,56.098 206.67,53.794 Z M218.406,51.508 C216.192,51.508 215.472,54.046 215.472,55.864 C215.472,57.574 216.156,58.186 217.218,58.186 C218.118,58.186 218.982,57.952 220.044,56.908 L220.656,52.39 C220.206,51.904 219.306,51.508 218.406,51.508 Z M219.648,60.094 L219.954,58.24 C219.162,59.032 217.938,59.518 216.75,59.518 C215.022,59.518 213.816,58.492 213.816,55.99 C213.816,53.398 214.986,50.158 218.334,50.158 C219.378,50.158 220.35,50.626 220.926,51.184 L221.088,50.338 L222.564,50.338 L221.196,60.13 C220.872,62.398 219.342,63.604 216.894,63.604 C214.752,63.604 213.384,62.74 213.204,60.706 L214.734,60.454 C214.824,61.498 215.274,62.308 216.876,62.308 C218.19,62.308 219.378,61.768 219.648,60.094 Z M230.286,57.124 C229.53,57.79 228.396,58.438 227.298,58.438 C226.506,58.438 226.074,58.15 226.002,57.43 C225.948,57.178 225.966,56.836 226.02,56.422 L226.866,50.338 L225.228,50.338 L224.364,56.584 C224.076,58.708 224.922,59.77 226.776,59.77 C228.18,59.77 229.53,59.014 230.25,58.366 L230.088,59.59 L231.564,59.59 L232.86,50.338 L231.222,50.338 L230.286,57.124 Z M237.342,50.338 L235.704,50.338 L234.408,59.59 L236.046,59.59 L237.342,50.338 Z M238.134,47.188 C238.134,46.576 237.774,46.234 237.126,46.234 C236.298,46.234 235.794,46.72 235.794,47.566 C235.794,48.16 236.154,48.52 236.802,48.52 C237.63,48.52 238.134,48.016 238.134,47.188 Z M246.45,59.59 L245.028,59.59 L245.118,58.528 L245.118,58.51 C244.254,59.23 243.156,59.806 241.986,59.806 C240.168,59.806 238.962,58.726 238.962,56.278 C238.962,51.814 241.32,50.158 243.534,50.158 C244.614,50.158 245.442,50.59 246.036,51.112 L246.738,46 L248.358,46 L246.45,59.59 Z M245.136,57.268 L245.82,52.3 C245.442,51.976 244.686,51.454 243.714,51.454 C241.464,51.454 240.618,53.812 240.618,56.188 C240.618,57.628 241.104,58.42 242.274,58.474 C242.634,58.474 242.994,58.42 243.354,58.312 C244.038,58.096 244.686,57.682 245.136,57.268 Z M252.93,59.806 C250.23,59.806 249.312,57.97 249.312,55.774 C249.312,52.75 251.112,50.158 254.262,50.158 C256.278,50.158 257.232,51.238 257.232,52.552 C257.232,54.1 256.206,54.982 254.82,55.414 C253.452,55.846 251.832,55.936 250.95,55.972 C250.968,57.232 251.274,58.51 253.182,58.51 C254.496,58.51 255.252,57.736 255.54,56.782 L256.89,57.088 C256.35,58.924 254.766,59.806 252.93,59.806 Z M254.154,51.4 C252.264,51.4 251.256,52.948 251.022,54.73 C251.454,54.712 252.966,54.64 254.19,54.262 C255.09,53.974 255.666,53.488 255.666,52.624 C255.666,51.814 255.09,51.4 254.154,51.4 Z M265.278,50.338 L265.08,51.598 C265.998,50.86 267.168,50.158 268.5,50.158 C270.156,50.158 271.326,51.13 271.326,53.668 C271.326,57.988 269.13,59.806 266.79,59.806 C265.638,59.806 264.72,59.338 264.126,58.816 L263.478,63.406 L261.894,63.406 L263.73,50.338 L265.278,50.338 Z M269.616,53.794 C269.616,52.138 269.112,51.508 268.032,51.508 C266.97,51.508 265.62,52.318 265.008,52.858 L264.36,57.52 C264.702,57.826 265.584,58.456 266.592,58.456 C268.914,58.456 269.616,56.098 269.616,53.794 Z M275.502,53.146 C276.582,52.21 277.59,51.706 278.796,51.814 L279.03,50.194 C278.886,50.176 278.742,50.176 278.598,50.176 C277.338,50.176 276.528,50.842 275.574,51.904 L275.772,50.338 L274.26,50.338 L272.964,59.59 L274.602,59.59 L275.502,53.146 Z M283.278,59.806 C280.668,59.806 279.552,58.312 279.552,56.044 C279.552,55.648 279.57,55.252 279.624,54.874 C280.002,52.084 281.694,50.158 284.646,50.158 C287.31,50.158 288.264,51.814 288.264,53.92 C288.264,54.316 288.246,54.676 288.192,55.09 C287.832,58.006 286.158,59.806 283.278,59.806 Z M283.422,58.564 C285.078,58.564 286.248,57.376 286.536,54.964 C286.572,54.604 286.59,54.262 286.59,53.902 C286.59,52.264 285.852,51.472 284.448,51.472 C282.774,51.472 281.55,52.606 281.262,54.964 C281.226,55.288 281.208,55.63 281.208,55.972 C281.208,57.664 281.946,58.564 283.422,58.564 Z M293.862,59.59 L298.488,50.338 L296.814,50.338 L293.178,58.024 L293.16,58.024 L291.666,50.338 L289.92,50.338 L292.008,59.59 L293.862,59.59 Z M301.818,50.338 L300.18,50.338 L298.884,59.59 L300.522,59.59 L301.818,50.338 Z M302.61,47.188 C302.61,46.576 302.25,46.234 301.602,46.234 C300.774,46.234 300.27,46.72 300.27,47.566 C300.27,48.16 300.63,48.52 301.278,48.52 C302.106,48.52 302.61,48.016 302.61,47.188 Z M310.926,59.59 L309.504,59.59 L309.594,58.528 L309.594,58.51 C308.73,59.23 307.632,59.806 306.462,59.806 C304.644,59.806 303.438,58.726 303.438,56.278 C303.438,51.814 305.796,50.158 308.01,50.158 C309.09,50.158 309.918,50.59 310.512,51.112 L311.214,46 L312.834,46 L310.926,59.59 Z M309.612,57.268 L310.296,52.3 C309.918,51.976 309.162,51.454 308.19,51.454 C305.94,51.454 305.094,53.812 305.094,56.188 C305.094,57.628 305.58,58.42 306.75,58.474 C307.11,58.474 307.47,58.42 307.83,58.312 C308.514,58.096 309.162,57.682 309.612,57.268 Z M317.406,59.806 C314.706,59.806 313.788,57.97 313.788,55.774 C313.788,52.75 315.588,50.158 318.738,50.158 C320.754,50.158 321.708,51.238 321.708,52.552 C321.708,54.1 320.682,54.982 319.296,55.414 C317.928,55.846 316.308,55.936 315.426,55.972 C315.444,57.232 315.75,58.51 317.658,58.51 C318.972,58.51 319.728,57.736 320.016,56.782 L321.366,57.088 C320.826,58.924 319.242,59.806 317.406,59.806 Z M318.63,51.4 C316.74,51.4 315.732,52.948 315.498,54.73 C315.93,54.712 317.442,54.64 318.666,54.262 C319.566,53.974 320.142,53.488 320.142,52.624 C320.142,51.814 319.566,51.4 318.63,51.4 Z M327.18,50.158 C325.398,50.158 323.67,51.004 323.67,52.966 C323.67,54.856 325.182,55.198 326.478,55.558 C327.468,55.828 328.332,56.134 328.332,57.106 C328.332,58.258 327.252,58.582 326.28,58.582 C324.678,58.582 324.228,57.736 324.102,56.692 L322.752,56.998 C322.914,58.834 324.012,59.806 326.19,59.806 C328.422,59.806 329.934,58.744 329.934,56.872 C329.934,54.946 328.26,54.622 326.91,54.226 C325.992,53.956 325.218,53.632 325.218,52.75 C325.218,52.03 325.686,51.346 327.144,51.346 C328.494,51.346 328.962,52.174 329.016,53.2 L330.402,53.002 C330.312,51.382 329.376,50.158 327.18,50.158 Z M79.428,78.158 C77.646,78.158 75.918,79.004 75.918,80.966 C75.918,82.856 77.43,83.198 78.726,83.558 C79.716,83.828 80.58,84.134 80.58,85.106 C80.58,86.258 79.5,86.582 78.528,86.582 C76.926,86.582 76.476,85.736 76.35,84.692 L75,84.998 C75.162,86.834 76.26,87.806 78.438,87.806 C80.67,87.806 82.182,86.744 82.182,84.872 C82.182,82.946 80.508,82.622 79.158,82.226 C78.24,81.956 77.466,81.632 77.466,80.75 C77.466,80.03 77.934,79.346 79.392,79.346 C80.742,79.346 81.21,80.174 81.264,81.2 L82.65,81.002 C82.56,79.382 81.624,78.158 79.428,78.158 Z M90.336,85.124 C89.58,85.79 88.446,86.438 87.348,86.438 C86.556,86.438 86.124,86.15 86.052,85.43 C85.998,85.178 86.016,84.836 86.07,84.422 L86.916,78.338 L85.278,78.338 L84.414,84.584 C84.126,86.708 84.972,87.77 86.826,87.77 C88.23,87.77 89.58,87.014 90.3,86.366 L90.138,87.59 L91.614,87.59 L92.91,78.338 L91.272,78.338 L90.336,85.124 Z M99.03,79.508 C96.816,79.508 96.096,82.046 96.096,83.864 C96.096,85.574 96.78,86.186 97.842,86.186 C98.742,86.186 99.606,85.952 100.668,84.908 L101.28,80.39 C100.83,79.904 99.93,79.508 99.03,79.508 Z M100.272,88.094 L100.578,86.24 C99.786,87.032 98.562,87.518 97.374,87.518 C95.646,87.518 94.44,86.492 94.44,83.99 C94.44,81.398 95.61,78.158 98.958,78.158 C100.002,78.158 100.974,78.626 101.55,79.184 L101.712,78.338 L103.188,78.338 L101.82,88.13 C101.496,90.398 99.966,91.604 97.518,91.604 C95.376,91.604 94.008,90.74 93.828,88.706 L95.358,88.454 C95.448,89.498 95.898,90.308 97.5,90.308 C98.814,90.308 100.002,89.768 100.272,88.094 Z M109.164,79.508 C106.95,79.508 106.23,82.046 106.23,83.864 C106.23,85.574 106.914,86.186 107.976,86.186 C108.876,86.186 109.74,85.952 110.802,84.908 L111.414,80.39 C110.964,79.904 110.064,79.508 109.164,79.508 Z M110.406,88.094 L110.712,86.24 C109.92,87.032 108.696,87.518 107.508,87.518 C105.78,87.518 104.574,86.492 104.574,83.99 C104.574,81.398 105.744,78.158 109.092,78.158 C110.136,78.158 111.108,78.626 111.684,79.184 L111.846,78.338 L113.322,78.338 L111.954,88.13 C111.63,90.398 110.1,91.604 107.652,91.604 C105.51,91.604 104.142,90.74 103.962,88.706 L105.492,88.454 C105.582,89.498 106.032,90.308 107.634,90.308 C108.948,90.308 110.136,89.768 110.406,88.094 Z M118.416,87.806 C115.716,87.806 114.798,85.97 114.798,83.774 C114.798,80.75 116.598,78.158 119.748,78.158 C121.764,78.158 122.718,79.238 122.718,80.552 C122.718,82.1 121.692,82.982 120.306,83.414 C118.938,83.846 117.318,83.936 116.436,83.972 C116.454,85.232 116.76,86.51 118.668,86.51 C119.982,86.51 120.738,85.736 121.026,84.782 L122.376,85.088 C121.836,86.924 120.252,87.806 118.416,87.806 Z M119.64,79.4 C117.75,79.4 116.742,80.948 116.508,82.73 C116.94,82.712 118.452,82.64 119.676,82.262 C120.576,81.974 121.152,81.488 121.152,80.624 C121.152,79.814 120.576,79.4 119.64,79.4 Z M128.19,78.158 C126.408,78.158 124.68,79.004 124.68,80.966 C124.68,82.856 126.192,83.198 127.488,83.558 C128.478,83.828 129.342,84.134 129.342,85.106 C129.342,86.258 128.262,86.582 127.29,86.582 C125.688,86.582 125.238,85.736 125.112,84.692 L123.762,84.998 C123.924,86.834 125.022,87.806 127.2,87.806 C129.432,87.806 130.944,86.744 130.944,84.872 C130.944,82.946 129.27,82.622 127.92,82.226 C127.002,81.956 126.228,81.632 126.228,80.75 C126.228,80.03 126.696,79.346 128.154,79.346 C129.504,79.346 129.972,80.174 130.026,81.2 L131.412,81.002 C131.322,79.382 130.386,78.158 128.19,78.158 Z M137.874,86.078 C137.46,86.312 136.812,86.546 136.218,86.546 C135.12,86.546 135.012,85.934 135.156,84.962 L135.93,79.544 L138.468,79.544 L138.63,78.338 L136.092,78.338 L136.488,75.44 L134.832,75.674 L134.454,78.338 L133.014,78.338 L132.852,79.544 L134.292,79.544 L133.5,85.142 C133.23,86.978 134.076,87.806 135.84,87.806 C136.668,87.806 137.586,87.536 138.09,87.23 L137.874,86.078 Z M142.572,78.338 L140.934,78.338 L139.638,87.59 L141.276,87.59 L142.572,78.338 Z M143.364,75.188 C143.364,74.576 143.004,74.234 142.356,74.234 C141.528,74.234 141.024,74.72 141.024,75.566 C141.024,76.16 141.384,76.52 142.032,76.52 C142.86,76.52 143.364,76.016 143.364,75.188 Z M147.864,87.806 C145.254,87.806 144.138,86.312 144.138,84.044 C144.138,83.648 144.156,83.252 144.21,82.874 C144.588,80.084 146.28,78.158 149.232,78.158 C151.896,78.158 152.85,79.814 152.85,81.92 C152.85,82.316 152.832,82.676 152.778,83.09 C152.418,86.006 150.744,87.806 147.864,87.806 Z M148.008,86.564 C149.664,86.564 150.834,85.376 151.122,82.964 C151.158,82.604 151.176,82.262 151.176,81.902 C151.176,80.264 150.438,79.472 149.034,79.472 C147.36,79.472 146.136,80.606 145.848,82.964 C145.812,83.288 145.794,83.63 145.794,83.972 C145.794,85.664 146.532,86.564 148.008,86.564 Z M157.08,80.912 C157.746,80.372 158.988,79.526 160.176,79.526 C161.184,79.526 161.616,80.138 161.418,81.506 L160.572,87.59 L162.21,87.59 L163.074,81.326 C163.362,79.202 162.462,78.158 160.662,78.158 C159.186,78.158 157.89,78.986 157.17,79.616 L157.152,79.616 L157.35,78.338 L155.802,78.338 L154.506,87.59 L156.144,87.59 L157.08,80.912 Z M169.104,78.158 C167.322,78.158 165.594,79.004 165.594,80.966 C165.594,82.856 167.106,83.198 168.402,83.558 C169.392,83.828 170.256,84.134 170.256,85.106 C170.256,86.258 169.176,86.582 168.204,86.582 C166.602,86.582 166.152,85.736 166.026,84.692 L164.676,84.998 C164.838,86.834 165.936,87.806 168.114,87.806 C170.346,87.806 171.858,86.744 171.858,84.872 C171.858,82.946 170.184,82.622 168.834,82.226 C167.916,81.956 167.142,81.632 167.142,80.75 C167.142,80.03 167.61,79.346 169.068,79.346 C170.418,79.346 170.886,80.174 170.94,81.2 L172.326,81.002 C172.236,79.382 171.3,78.158 169.104,78.158 Z M184.188,74.144 L183.954,75.35 C183.612,75.224 183.108,75.116 182.676,75.116 C181.848,75.116 181.218,75.458 181.038,76.754 L180.822,78.338 L183.396,78.338 L183.216,79.544 L180.642,79.544 L178.968,91.406 L177.33,91.406 L179.004,79.544 L177.636,79.544 L177.816,78.338 L179.184,78.338 L179.4,76.79 C179.67,74.774 180.786,73.82 182.514,73.82 C183.306,73.82 183.918,74 184.188,74.144 Z M187.086,87.806 C184.476,87.806 183.36,86.312 183.36,84.044 C183.36,83.648 183.378,83.252 183.432,82.874 C183.81,80.084 185.502,78.158 188.454,78.158 C191.118,78.158 192.072,79.814 192.072,81.92 C192.072,82.316 192.054,82.676 192,83.09 C191.64,86.006 189.966,87.806 187.086,87.806 Z M187.23,86.564 C188.886,86.564 190.056,85.376 190.344,82.964 C190.38,82.604 190.398,82.262 190.398,81.902 C190.398,80.264 189.66,79.472 188.256,79.472 C186.582,79.472 185.358,80.606 185.07,82.964 C185.034,83.288 185.016,83.63 185.016,83.972 C185.016,85.664 185.754,86.564 187.23,86.564 Z M196.266,81.146 C197.346,80.21 198.354,79.706 199.56,79.814 L199.794,78.194 C199.65,78.176 199.506,78.176 199.362,78.176 C198.102,78.176 197.292,78.842 196.338,79.904 L196.536,78.338 L195.024,78.338 L193.728,87.59 L195.366,87.59 L196.266,81.146 Z M210.756,74.144 L210.522,75.35 C210.18,75.224 209.676,75.116 209.244,75.116 C208.416,75.116 207.786,75.458 207.606,76.754 L207.39,78.338 L209.964,78.338 L209.784,79.544 L207.21,79.544 L205.536,91.406 L203.898,91.406 L205.572,79.544 L204.204,79.544 L204.384,78.338 L205.752,78.338 L205.968,76.79 C206.238,74.774 207.354,73.82 209.082,73.82 C209.874,73.82 210.486,74 210.756,74.144 Z M218.712,78.338 L217.65,85.844 C217.578,86.348 217.65,86.618 218.1,86.618 C218.262,86.618 218.424,86.6 218.676,86.528 L218.568,87.518 C218.298,87.626 217.866,87.698 217.506,87.698 C216.642,87.698 216.138,87.338 216.156,86.384 C215.382,87.23 214.158,87.806 212.952,87.806 C211.206,87.806 209.964,86.762 209.964,84.224 C209.964,81.182 211.386,78.158 214.482,78.158 C215.544,78.158 216.48,78.644 217.056,79.148 L217.2,78.338 L218.712,78.338 Z M216.156,85.16 L216.822,80.408 C216.354,79.958 215.472,79.508 214.572,79.508 C212.322,79.508 211.62,82.226 211.62,84.08 C211.62,85.844 212.304,86.492 213.402,86.492 C214.266,86.492 215.04,86.186 216.156,85.16 Z M224.22,87.806 C226.11,87.806 227.766,86.906 228.288,84.818 L226.866,84.548 C226.47,85.862 225.588,86.51 224.346,86.51 C223.176,86.51 222.204,85.808 222.204,83.828 C222.204,80.48 223.896,79.472 225.354,79.472 C226.884,79.472 227.262,80.426 227.19,81.884 L228.684,81.776 C228.9,79.688 227.73,78.158 225.534,78.158 C222.6,78.158 220.494,80.228 220.494,83.9 C220.494,86.204 221.61,87.806 224.22,87.806 Z M233.004,78.338 L231.366,78.338 L230.07,87.59 L231.708,87.59 L233.004,78.338 Z M233.796,75.188 C233.796,74.576 233.436,74.234 232.788,74.234 C231.96,74.234 231.456,74.72 231.456,75.566 C231.456,76.16 231.816,76.52 232.464,76.52 C233.292,76.52 233.796,76.016 233.796,75.188 Z M234.516,87.59 L236.154,87.59 L238.062,74 L236.424,74 L234.516,87.59 Z M241.896,78.338 L240.258,78.338 L238.962,87.59 L240.6,87.59 L241.896,78.338 Z M242.688,75.188 C242.688,74.576 242.328,74.234 241.68,74.234 C240.852,74.234 240.348,74.72 240.348,75.566 C240.348,76.16 240.708,76.52 241.356,76.52 C242.184,76.52 242.688,76.016 242.688,75.188 Z M248.502,86.078 C248.088,86.312 247.44,86.546 246.846,86.546 C245.748,86.546 245.64,85.934 245.784,84.962 L246.558,79.544 L249.096,79.544 L249.258,78.338 L246.72,78.338 L247.116,75.44 L245.46,75.674 L245.082,78.338 L243.642,78.338 L243.48,79.544 L244.92,79.544 L244.128,85.142 C243.858,86.978 244.704,87.806 246.468,87.806 C247.296,87.806 248.214,87.536 248.718,87.23 L248.502,86.078 Z M259.104,78.338 L258.042,85.844 C257.97,86.348 258.042,86.618 258.492,86.618 C258.654,86.618 258.816,86.6 259.068,86.528 L258.96,87.518 C258.69,87.626 258.258,87.698 257.898,87.698 C257.034,87.698 256.53,87.338 256.548,86.384 C255.774,87.23 254.55,87.806 253.344,87.806 C251.598,87.806 250.356,86.762 250.356,84.224 C250.356,81.182 251.778,78.158 254.874,78.158 C255.936,78.158 256.872,78.644 257.448,79.148 L257.592,78.338 L259.104,78.338 Z M256.548,85.16 L257.214,80.408 C256.746,79.958 255.864,79.508 254.964,79.508 C252.714,79.508 252.012,82.226 252.012,84.08 C252.012,85.844 252.696,86.492 253.794,86.492 C254.658,86.492 255.432,86.186 256.548,85.16 Z M265.926,86.078 C265.512,86.312 264.864,86.546 264.27,86.546 C263.172,86.546 263.064,85.934 263.208,84.962 L263.982,79.544 L266.52,79.544 L266.682,78.338 L264.144,78.338 L264.54,75.44 L262.884,75.674 L262.506,78.338 L261.066,78.338 L260.904,79.544 L262.344,79.544 L261.552,85.142 C261.282,86.978 262.128,87.806 263.892,87.806 C264.72,87.806 265.638,87.536 266.142,87.23 L265.926,86.078 Z M270.624,78.338 L268.986,78.338 L267.69,87.59 L269.328,87.59 L270.624,78.338 Z M271.416,75.188 C271.416,74.576 271.056,74.234 270.408,74.234 C269.58,74.234 269.076,74.72 269.076,75.566 C269.076,76.16 269.436,76.52 270.084,76.52 C270.912,76.52 271.416,76.016 271.416,75.188 Z M274.746,80.912 C275.412,80.372 276.654,79.526 277.842,79.526 C278.85,79.526 279.282,80.138 279.084,81.506 L278.238,87.59 L279.876,87.59 L280.74,81.326 C281.028,79.202 280.128,78.158 278.328,78.158 C276.852,78.158 275.556,78.986 274.836,79.616 L274.818,79.616 L275.016,78.338 L273.468,78.338 L272.172,87.59 L273.81,87.59 L274.746,80.912 Z M287.184,79.508 C284.97,79.508 284.25,82.046 284.25,83.864 C284.25,85.574 284.934,86.186 285.996,86.186 C286.896,86.186 287.76,85.952 288.822,84.908 L289.434,80.39 C288.984,79.904 288.084,79.508 287.184,79.508 Z M288.426,88.094 L288.732,86.24 C287.94,87.032 286.716,87.518 285.528,87.518 C283.8,87.518 282.594,86.492 282.594,83.99 C282.594,81.398 283.764,78.158 287.112,78.158 C288.156,78.158 289.128,78.626 289.704,79.184 L289.866,78.338 L291.342,78.338 L289.974,88.13 C289.65,90.398 288.12,91.604 285.672,91.604 C283.53,91.604 282.162,90.74 281.982,88.706 L283.512,88.454 C283.602,89.498 284.052,90.308 285.654,90.308 C286.968,90.308 288.156,89.768 288.426,88.094 Z M305.436,78.338 L304.374,85.844 C304.302,86.348 304.374,86.618 304.824,86.618 C304.986,86.618 305.148,86.6 305.4,86.528 L305.292,87.518 C305.022,87.626 304.59,87.698 304.23,87.698 C303.366,87.698 302.862,87.338 302.88,86.384 C302.106,87.23 300.882,87.806 299.676,87.806 C297.93,87.806 296.688,86.762 296.688,84.224 C296.688,81.182 298.11,78.158 301.206,78.158 C302.268,78.158 303.204,78.644 303.78,79.148 L303.924,78.338 L305.436,78.338 Z M302.88,85.16 L303.546,80.408 C303.078,79.958 302.196,79.508 301.296,79.508 C299.046,79.508 298.344,82.226 298.344,84.08 C298.344,85.844 299.028,86.492 300.126,86.492 C300.99,86.492 301.764,86.186 302.88,85.16 Z M79.05,115.806 C80.94,115.806 82.596,114.906 83.118,112.818 L81.696,112.548 C81.3,113.862 80.418,114.51 79.176,114.51 C78.006,114.51 77.034,113.808 77.034,111.828 C77.034,108.48 78.726,107.472 80.184,107.472 C81.714,107.472 82.092,108.426 82.02,109.884 L83.514,109.776 C83.73,107.688 82.56,106.158 80.364,106.158 C77.43,106.158 75.324,108.228 75.324,111.9 C75.324,114.204 76.44,115.806 79.05,115.806 Z M88.68,115.806 C86.07,115.806 84.954,114.312 84.954,112.044 C84.954,111.648 84.972,111.252 85.026,110.874 C85.404,108.084 87.096,106.158 90.048,106.158 C92.712,106.158 93.666,107.814 93.666,109.92 C93.666,110.316 93.648,110.676 93.594,111.09 C93.234,114.006 91.56,115.806 88.68,115.806 Z M88.824,114.564 C90.48,114.564 91.65,113.376 91.938,110.964 C91.974,110.604 91.992,110.262 91.992,109.902 C91.992,108.264 91.254,107.472 89.85,107.472 C88.176,107.472 86.952,108.606 86.664,110.964 C86.628,111.288 86.61,111.63 86.61,111.972 C86.61,113.664 87.348,114.564 88.824,114.564 Z M97.896,108.912 C98.562,108.372 99.804,107.526 100.992,107.526 C102,107.526 102.432,108.138 102.234,109.506 L101.388,115.59 L103.026,115.59 L103.89,109.326 C104.178,107.202 103.278,106.158 101.478,106.158 C100.002,106.158 98.706,106.986 97.986,107.616 L97.968,107.616 L98.166,106.338 L96.618,106.338 L95.322,115.59 L96.96,115.59 L97.896,108.912 Z M109.74,115.59 L114.366,106.338 L112.692,106.338 L109.056,114.024 L109.038,114.024 L107.544,106.338 L105.798,106.338 L107.886,115.59 L109.74,115.59 Z M118.452,115.806 C115.752,115.806 114.834,113.97 114.834,111.774 C114.834,108.75 116.634,106.158 119.784,106.158 C121.8,106.158 122.754,107.238 122.754,108.552 C122.754,110.1 121.728,110.982 120.342,111.414 C118.974,111.846 117.354,111.936 116.472,111.972 C116.49,113.232 116.796,114.51 118.704,114.51 C120.018,114.51 120.774,113.736 121.062,112.782 L122.412,113.088 C121.872,114.924 120.288,115.806 118.452,115.806 Z M119.676,107.4 C117.786,107.4 116.778,108.948 116.544,110.73 C116.976,110.712 118.488,110.64 119.712,110.262 C120.612,109.974 121.188,109.488 121.188,108.624 C121.188,107.814 120.612,107.4 119.676,107.4 Z M126.642,109.146 C127.722,108.21 128.73,107.706 129.936,107.814 L130.17,106.194 C130.026,106.176 129.882,106.176 129.738,106.176 C128.478,106.176 127.668,106.842 126.714,107.904 L126.912,106.338 L125.4,106.338 L124.104,115.59 L125.742,115.59 L126.642,109.146 Z M134.796,106.158 C133.014,106.158 131.286,107.004 131.286,108.966 C131.286,110.856 132.798,111.198 134.094,111.558 C135.084,111.828 135.948,112.134 135.948,113.106 C135.948,114.258 134.868,114.582 133.896,114.582 C132.294,114.582 131.844,113.736 131.718,112.692 L130.368,112.998 C130.53,114.834 131.628,115.806 133.806,115.806 C136.038,115.806 137.55,114.744 137.55,112.872 C137.55,110.946 135.876,110.622 134.526,110.226 C133.608,109.956 132.834,109.632 132.834,108.75 C132.834,108.03 133.302,107.346 134.76,107.346 C136.11,107.346 136.578,108.174 136.632,109.2 L138.018,109.002 C137.928,107.382 136.992,106.158 134.796,106.158 Z M148.224,106.338 L147.162,113.844 C147.09,114.348 147.162,114.618 147.612,114.618 C147.774,114.618 147.936,114.6 148.188,114.528 L148.08,115.518 C147.81,115.626 147.378,115.698 147.018,115.698 C146.154,115.698 145.65,115.338 145.668,114.384 C144.894,115.23 143.67,115.806 142.464,115.806 C140.718,115.806 139.476,114.762 139.476,112.224 C139.476,109.182 140.898,106.158 143.994,106.158 C145.056,106.158 145.992,106.644 146.568,107.148 L146.712,106.338 L148.224,106.338 Z M145.668,113.16 L146.334,108.408 C145.866,107.958 144.984,107.508 144.084,107.508 C141.834,107.508 141.132,110.226 141.132,112.08 C141.132,113.844 141.816,114.492 142.914,114.492 C143.778,114.492 144.552,114.186 145.668,113.16 Z M155.046,114.078 C154.632,114.312 153.984,114.546 153.39,114.546 C152.292,114.546 152.184,113.934 152.328,112.962 L153.102,107.544 L155.64,107.544 L155.802,106.338 L153.264,106.338 L153.66,103.44 L152.004,103.674 L151.626,106.338 L150.186,106.338 L150.024,107.544 L151.464,107.544 L150.672,113.142 C150.402,114.978 151.248,115.806 153.012,115.806 C153.84,115.806 154.758,115.536 155.262,115.23 L155.046,114.078 Z M159.744,106.338 L158.106,106.338 L156.81,115.59 L158.448,115.59 L159.744,106.338 Z M160.536,103.188 C160.536,102.576 160.176,102.234 159.528,102.234 C158.7,102.234 158.196,102.72 158.196,103.566 C158.196,104.16 158.556,104.52 159.204,104.52 C160.032,104.52 160.536,104.016 160.536,103.188 Z M165.036,115.806 C162.426,115.806 161.31,114.312 161.31,112.044 C161.31,111.648 161.328,111.252 161.382,110.874 C161.76,108.084 163.452,106.158 166.404,106.158 C169.068,106.158 170.022,107.814 170.022,109.92 C170.022,110.316 170.004,110.676 169.95,111.09 C169.59,114.006 167.916,115.806 165.036,115.806 Z M165.18,114.564 C166.836,114.564 168.006,113.376 168.294,110.964 C168.33,110.604 168.348,110.262 168.348,109.902 C168.348,108.264 167.61,107.472 166.206,107.472 C164.532,107.472 163.308,108.606 163.02,110.964 C162.984,111.288 162.966,111.63 162.966,111.972 C162.966,113.664 163.704,114.564 165.18,114.564 Z M174.252,108.912 C174.918,108.372 176.16,107.526 177.348,107.526 C178.356,107.526 178.788,108.138 178.59,109.506 L177.744,115.59 L179.382,115.59 L180.246,109.326 C180.534,107.202 179.634,106.158 177.834,106.158 C176.358,106.158 175.062,106.986 174.342,107.616 L174.324,107.616 L174.522,106.338 L172.974,106.338 L171.678,115.59 L173.316,115.59 L174.252,108.912 Z M184.152,114.42 C184.152,113.79 183.792,113.448 183.09,113.448 C182.172,113.448 181.668,113.934 181.668,114.834 C181.668,115.482 182.046,115.806 182.748,115.806 C183.666,115.806 184.152,115.32 184.152,114.42 Z M192.612,110.802 L191.946,115.59 L190.362,115.59 L192.144,102.558 L195.996,102.558 C198.876,102.558 199.974,104.052 199.974,105.816 C199.974,109.182 197.958,110.802 194.52,110.802 L192.612,110.802 Z M192.792,109.47 L194.574,109.47 C196.662,109.47 198.282,108.768 198.282,106.014 C198.282,104.322 197.112,103.89 195.204,103.89 L193.548,103.89 L192.792,109.47 Z M200.838,115.59 L202.476,115.59 L204.384,102 L202.746,102 L200.838,115.59 Z M208.974,115.806 C206.274,115.806 205.356,113.97 205.356,111.774 C205.356,108.75 207.156,106.158 210.306,106.158 C212.322,106.158 213.276,107.238 213.276,108.552 C213.276,110.1 212.25,110.982 210.864,111.414 C209.496,111.846 207.876,111.936 206.994,111.972 C207.012,113.232 207.318,114.51 209.226,114.51 C210.54,114.51 211.296,113.736 211.584,112.782 L212.934,113.088 C212.394,114.924 210.81,115.806 208.974,115.806 Z M210.198,107.4 C208.308,107.4 207.3,108.948 207.066,110.73 C207.498,110.712 209.01,110.64 210.234,110.262 C211.134,109.974 211.71,109.488 211.71,108.624 C211.71,107.814 211.134,107.4 210.198,107.4 Z M223.428,106.338 L222.366,113.844 C222.294,114.348 222.366,114.618 222.816,114.618 C222.978,114.618 223.14,114.6 223.392,114.528 L223.284,115.518 C223.014,115.626 222.582,115.698 222.222,115.698 C221.358,115.698 220.854,115.338 220.872,114.384 C220.098,115.23 218.874,115.806 217.668,115.806 C215.922,115.806 214.68,114.762 214.68,112.224 C214.68,109.182 216.102,106.158 219.198,106.158 C220.26,106.158 221.196,106.644 221.772,107.148 L221.916,106.338 L223.428,106.338 Z M220.872,113.16 L221.538,108.408 C221.07,107.958 220.188,107.508 219.288,107.508 C217.038,107.508 216.336,110.226 216.336,112.08 C216.336,113.844 217.02,114.492 218.118,114.492 C218.982,114.492 219.756,114.186 220.872,113.16 Z M229.314,106.158 C227.532,106.158 225.804,107.004 225.804,108.966 C225.804,110.856 227.316,111.198 228.612,111.558 C229.602,111.828 230.466,112.134 230.466,113.106 C230.466,114.258 229.386,114.582 228.414,114.582 C226.812,114.582 226.362,113.736 226.236,112.692 L224.886,112.998 C225.048,114.834 226.146,115.806 228.324,115.806 C230.556,115.806 232.068,114.744 232.068,112.872 C232.068,110.946 230.394,110.622 229.044,110.226 C228.126,109.956 227.352,109.632 227.352,108.75 C227.352,108.03 227.82,107.346 229.278,107.346 C230.628,107.346 231.096,108.174 231.15,109.2 L232.536,109.002 C232.446,107.382 231.51,106.158 229.314,106.158 Z M237.594,115.806 C234.894,115.806 233.976,113.97 233.976,111.774 C233.976,108.75 235.776,106.158 238.926,106.158 C240.942,106.158 241.896,107.238 241.896,108.552 C241.896,110.1 240.87,110.982 239.484,111.414 C238.116,111.846 236.496,111.936 235.614,111.972 C235.632,113.232 235.938,114.51 237.846,114.51 C239.16,114.51 239.916,113.736 240.204,112.782 L241.554,113.088 C241.014,114.924 239.43,115.806 237.594,115.806 Z M238.818,107.4 C236.928,107.4 235.92,108.948 235.686,110.73 C236.118,110.712 237.63,110.64 238.854,110.262 C239.754,109.974 240.33,109.488 240.33,108.624 C240.33,107.814 239.754,107.4 238.818,107.4 Z M253.704,102.144 L253.47,103.35 C253.128,103.224 252.624,103.116 252.192,103.116 C251.364,103.116 250.734,103.458 250.554,104.754 L250.338,106.338 L252.912,106.338 L252.732,107.544 L250.158,107.544 L248.484,119.406 L246.846,119.406 L248.52,107.544 L247.152,107.544 L247.332,106.338 L248.7,106.338 L248.916,104.79 C249.186,102.774 250.302,101.82 252.03,101.82 C252.822,101.82 253.434,102 253.704,102.144 Z M256.512,115.806 C253.812,115.806 252.894,113.97 252.894,111.774 C252.894,108.75 254.694,106.158 257.844,106.158 C259.86,106.158 260.814,107.238 260.814,108.552 C260.814,110.1 259.788,110.982 258.402,111.414 C257.034,111.846 255.414,111.936 254.532,111.972 C254.55,113.232 254.856,114.51 256.764,114.51 C258.078,114.51 258.834,113.736 259.122,112.782 L260.472,113.088 C259.932,114.924 258.348,115.806 256.512,115.806 Z M257.736,107.4 C255.846,107.4 254.838,108.948 254.604,110.73 C255.036,110.712 256.548,110.64 257.772,110.262 C258.672,109.974 259.248,109.488 259.248,108.624 C259.248,107.814 258.672,107.4 257.736,107.4 Z M265.818,115.806 C263.118,115.806 262.2,113.97 262.2,111.774 C262.2,108.75 264,106.158 267.15,106.158 C269.166,106.158 270.12,107.238 270.12,108.552 C270.12,110.1 269.094,110.982 267.708,111.414 C266.34,111.846 264.72,111.936 263.838,111.972 C263.856,113.232 264.162,114.51 266.07,114.51 C267.384,114.51 268.14,113.736 268.428,112.782 L269.778,113.088 C269.238,114.924 267.654,115.806 265.818,115.806 Z M267.042,107.4 C265.152,107.4 264.144,108.948 263.91,110.73 C264.342,110.712 265.854,110.64 267.078,110.262 C267.978,109.974 268.554,109.488 268.554,108.624 C268.554,107.814 267.978,107.4 267.042,107.4 Z M271.434,115.59 L273.072,115.59 L274.98,102 L273.342,102 L271.434,115.59 Z M286.374,102.144 L286.14,103.35 C285.798,103.224 285.294,103.116 284.862,103.116 C284.034,103.116 283.404,103.458 283.224,104.754 L283.008,106.338 L285.582,106.338 L285.402,107.544 L282.828,107.544 L281.154,119.406 L279.516,119.406 L281.19,107.544 L279.822,107.544 L280.002,106.338 L281.37,106.338 L281.586,104.79 C281.856,102.774 282.972,101.82 284.7,101.82 C285.492,101.82 286.104,102 286.374,102.144 Z M288.066,109.146 L287.166,115.59 L285.528,115.59 L286.824,106.338 L288.336,106.338 L288.138,107.904 C289.092,106.842 289.902,106.176 291.162,106.176 C291.306,106.176 291.45,106.176 291.594,106.194 L291.36,107.814 C290.154,107.706 289.146,108.21 288.066,109.146 Z M295.752,115.806 C293.052,115.806 292.134,113.97 292.134,111.774 C292.134,108.75 293.934,106.158 297.084,106.158 C299.1,106.158 300.054,107.238 300.054,108.552 C300.054,110.1 299.028,110.982 297.642,111.414 C296.274,111.846 294.654,111.936 293.772,111.972 C293.79,113.232 294.096,114.51 296.004,114.51 C297.318,114.51 298.074,113.736 298.362,112.782 L299.712,113.088 C299.172,114.924 297.588,115.806 295.752,115.806 Z M296.976,107.4 C295.086,107.4 294.078,108.948 293.844,110.73 C294.276,110.712 295.788,110.64 297.012,110.262 C297.912,109.974 298.488,109.488 298.488,108.624 C298.488,107.814 297.912,107.4 296.976,107.4 Z M305.058,115.806 C302.358,115.806 301.44,113.97 301.44,111.774 C301.44,108.75 303.24,106.158 306.39,106.158 C308.406,106.158 309.36,107.238 309.36,108.552 C309.36,110.1 308.334,110.982 306.948,111.414 C305.58,111.846 303.96,111.936 303.078,111.972 C303.096,113.232 303.402,114.51 305.31,114.51 C306.624,114.51 307.38,113.736 307.668,112.782 L309.018,113.088 C308.478,114.924 306.894,115.806 305.058,115.806 Z M306.282,107.4 C304.392,107.4 303.384,108.948 303.15,110.73 C303.582,110.712 305.094,110.64 306.318,110.262 C307.218,109.974 307.794,109.488 307.794,108.624 C307.794,107.814 307.218,107.4 306.282,107.4 Z M319.62,114.078 C319.206,114.312 318.558,114.546 317.964,114.546 C316.866,114.546 316.758,113.934 316.902,112.962 L317.676,107.544 L320.214,107.544 L320.376,106.338 L317.838,106.338 L318.234,103.44 L316.578,103.674 L316.2,106.338 L314.76,106.338 L314.598,107.544 L316.038,107.544 L315.246,113.142 C314.976,114.978 315.822,115.806 317.586,115.806 C318.414,115.806 319.332,115.536 319.836,115.23 L319.62,114.078 Z M325.164,115.806 C322.554,115.806 321.438,114.312 321.438,112.044 C321.438,111.648 321.456,111.252 321.51,110.874 C321.888,108.084 323.58,106.158 326.532,106.158 C329.196,106.158 330.15,107.814 330.15,109.92 C330.15,110.316 330.132,110.676 330.078,111.09 C329.718,114.006 328.044,115.806 325.164,115.806 Z M325.308,114.564 C326.964,114.564 328.134,113.376 328.422,110.964 C328.458,110.604 328.476,110.262 328.476,109.902 C328.476,108.264 327.738,107.472 326.334,107.472 C324.66,107.472 323.436,108.606 323.148,110.964 C323.112,111.288 323.094,111.63 323.094,111.972 C323.094,113.664 323.832,114.564 325.308,114.564 Z M78.204,134.338 L76.566,134.338 L75.27,143.59 L76.908,143.59 L78.204,134.338 Z M78.996,131.188 C78.996,130.576 78.636,130.234 77.988,130.234 C77.16,130.234 76.656,130.72 76.656,131.566 C76.656,132.16 77.016,132.52 77.664,132.52 C78.492,132.52 78.996,132.016 78.996,131.188 Z M85.728,134.158 C84.432,134.158 83.316,134.896 82.38,135.67 L82.362,135.67 L82.56,134.338 L81.048,134.338 L79.752,143.59 L81.39,143.59 L82.326,136.912 C82.884,136.444 84.144,135.544 85.206,135.544 C85.998,135.544 86.286,135.886 86.304,136.552 C86.34,136.822 86.304,137.146 86.25,137.524 L85.386,143.59 L87.024,143.59 L87.96,136.84 C88.572,136.336 89.706,135.544 90.696,135.544 C91.488,135.544 91.794,135.886 91.83,136.552 C91.848,136.822 91.83,137.146 91.758,137.524 L90.912,143.59 L92.55,143.59 L93.414,137.308 C93.684,135.418 93.288,134.158 91.236,134.158 C89.958,134.158 88.806,134.842 87.87,135.616 C87.672,134.68 87.024,134.158 85.728,134.158 Z M98.166,134.338 L97.968,135.598 C98.886,134.86 100.056,134.158 101.388,134.158 C103.044,134.158 104.214,135.13 104.214,137.668 C104.214,141.988 102.018,143.806 99.678,143.806 C98.526,143.806 97.608,143.338 97.014,142.816 L96.366,147.406 L94.782,147.406 L96.618,134.338 L98.166,134.338 Z M102.504,137.794 C102.504,136.138 102,135.508 100.92,135.508 C99.858,135.508 98.508,136.318 97.896,136.858 L97.248,141.52 C97.59,141.826 98.472,142.456 99.48,142.456 C101.802,142.456 102.504,140.098 102.504,137.794 Z M108.39,137.146 C109.47,136.21 110.478,135.706 111.684,135.814 L111.918,134.194 C111.774,134.176 111.63,134.176 111.486,134.176 C110.226,134.176 109.416,134.842 108.462,135.904 L108.66,134.338 L107.148,134.338 L105.852,143.59 L107.49,143.59 L108.39,137.146 Z M116.166,143.806 C113.556,143.806 112.44,142.312 112.44,140.044 C112.44,139.648 112.458,139.252 112.512,138.874 C112.89,136.084 114.582,134.158 117.534,134.158 C120.198,134.158 121.152,135.814 121.152,137.92 C121.152,138.316 121.134,138.676 121.08,139.09 C120.72,142.006 119.046,143.806 116.166,143.806 Z M116.31,142.564 C117.966,142.564 119.136,141.376 119.424,138.964 C119.46,138.604 119.478,138.262 119.478,137.902 C119.478,136.264 118.74,135.472 117.336,135.472 C115.662,135.472 114.438,136.606 114.15,138.964 C114.114,139.288 114.096,139.63 114.096,139.972 C114.096,141.664 114.834,142.564 116.31,142.564 Z M126.75,143.59 L131.376,134.338 L129.702,134.338 L126.066,142.024 L126.048,142.024 L124.554,134.338 L122.808,134.338 L124.896,143.59 L126.75,143.59 Z M134.706,134.338 L133.068,134.338 L131.772,143.59 L133.41,143.59 L134.706,134.338 Z M135.498,131.188 C135.498,130.576 135.138,130.234 134.49,130.234 C133.662,130.234 133.158,130.72 133.158,131.566 C133.158,132.16 133.518,132.52 134.166,132.52 C134.994,132.52 135.498,132.016 135.498,131.188 Z M140.376,134.158 C138.594,134.158 136.866,135.004 136.866,136.966 C136.866,138.856 138.378,139.198 139.674,139.558 C140.664,139.828 141.528,140.134 141.528,141.106 C141.528,142.258 140.448,142.582 139.476,142.582 C137.874,142.582 137.424,141.736 137.298,140.692 L135.948,140.998 C136.11,142.834 137.208,143.806 139.386,143.806 C141.618,143.806 143.13,142.744 143.13,140.872 C143.13,138.946 141.456,138.622 140.106,138.226 C139.188,137.956 138.414,137.632 138.414,136.75 C138.414,136.03 138.882,135.346 140.34,135.346 C141.69,135.346 142.158,136.174 142.212,137.2 L143.598,137.002 C143.508,135.382 142.572,134.158 140.376,134.158 Z M148.656,143.806 C145.956,143.806 145.038,141.97 145.038,139.774 C145.038,136.75 146.838,134.158 149.988,134.158 C152.004,134.158 152.958,135.238 152.958,136.552 C152.958,138.1 151.932,138.982 150.546,139.414 C149.178,139.846 147.558,139.936 146.676,139.972 C146.694,141.232 147,142.51 148.908,142.51 C150.222,142.51 150.978,141.736 151.266,140.782 L152.616,141.088 C152.076,142.924 150.492,143.806 148.656,143.806 Z M149.88,135.4 C147.99,135.4 146.982,136.948 146.748,138.73 C147.18,138.712 148.692,138.64 149.916,138.262 C150.816,137.974 151.392,137.488 151.392,136.624 C151.392,135.814 150.816,135.4 149.88,135.4 Z M166.962,134.338 L165.9,141.844 C165.828,142.348 165.9,142.618 166.35,142.618 C166.512,142.618 166.674,142.6 166.926,142.528 L166.818,143.518 C166.548,143.626 166.116,143.698 165.756,143.698 C164.892,143.698 164.388,143.338 164.406,142.384 C163.632,143.23 162.408,143.806 161.202,143.806 C159.456,143.806 158.214,142.762 158.214,140.224 C158.214,137.182 159.636,134.158 162.732,134.158 C163.794,134.158 164.73,134.644 165.306,135.148 L165.45,134.338 L166.962,134.338 Z M164.406,141.16 L165.072,136.408 C164.604,135.958 163.722,135.508 162.822,135.508 C160.572,135.508 159.87,138.226 159.87,140.08 C159.87,141.844 160.554,142.492 161.652,142.492 C162.516,142.492 163.29,142.186 164.406,141.16 Z M171.3,136.912 C171.966,136.372 173.208,135.526 174.396,135.526 C175.404,135.526 175.836,136.138 175.638,137.506 L174.792,143.59 L176.43,143.59 L177.294,137.326 C177.582,135.202 176.682,134.158 174.882,134.158 C173.406,134.158 172.11,134.986 171.39,135.616 L171.372,135.616 L171.57,134.338 L170.022,134.338 L168.726,143.59 L170.364,143.59 L171.3,136.912 Z M186.762,143.59 L185.34,143.59 L185.43,142.528 L185.43,142.51 C184.566,143.23 183.468,143.806 182.298,143.806 C180.48,143.806 179.274,142.726 179.274,140.278 C179.274,135.814 181.632,134.158 183.846,134.158 C184.926,134.158 185.754,134.59 186.348,135.112 L187.05,130 L188.67,130 L186.762,143.59 Z M185.448,141.268 L186.132,136.3 C185.754,135.976 184.998,135.454 184.026,135.454 C181.776,135.454 180.93,137.812 180.93,140.188 C180.93,141.628 181.416,142.42 182.586,142.474 C182.946,142.474 183.306,142.42 183.666,142.312 C184.35,142.096 184.998,141.682 185.448,141.268 Z M197.184,143.806 C199.074,143.806 200.73,142.906 201.252,140.818 L199.83,140.548 C199.434,141.862 198.552,142.51 197.31,142.51 C196.14,142.51 195.168,141.808 195.168,139.828 C195.168,136.48 196.86,135.472 198.318,135.472 C199.848,135.472 200.226,136.426 200.154,137.884 L201.648,137.776 C201.864,135.688 200.694,134.158 198.498,134.158 C195.564,134.158 193.458,136.228 193.458,139.9 C193.458,142.204 194.574,143.806 197.184,143.806 Z M209.352,141.124 C208.596,141.79 207.462,142.438 206.364,142.438 C205.572,142.438 205.14,142.15 205.068,141.43 C205.014,141.178 205.032,140.836 205.086,140.422 L205.932,134.338 L204.294,134.338 L203.43,140.584 C203.142,142.708 203.988,143.77 205.842,143.77 C207.246,143.77 208.596,143.014 209.316,142.366 L209.154,143.59 L210.63,143.59 L211.926,134.338 L210.288,134.338 L209.352,141.124 Z M217.632,134.158 C215.85,134.158 214.122,135.004 214.122,136.966 C214.122,138.856 215.634,139.198 216.93,139.558 C217.92,139.828 218.784,140.134 218.784,141.106 C218.784,142.258 217.704,142.582 216.732,142.582 C215.13,142.582 214.68,141.736 214.554,140.692 L213.204,140.998 C213.366,142.834 214.464,143.806 216.642,143.806 C218.874,143.806 220.386,142.744 220.386,140.872 C220.386,138.946 218.712,138.622 217.362,138.226 C216.444,137.956 215.67,137.632 215.67,136.75 C215.67,136.03 216.138,135.346 217.596,135.346 C218.946,135.346 219.414,136.174 219.468,137.2 L220.854,137.002 C220.764,135.382 219.828,134.158 217.632,134.158 Z M227.316,142.078 C226.902,142.312 226.254,142.546 225.66,142.546 C224.562,142.546 224.454,141.934 224.598,140.962 L225.372,135.544 L227.91,135.544 L228.072,134.338 L225.534,134.338 L225.93,131.44 L224.274,131.674 L223.896,134.338 L222.456,134.338 L222.294,135.544 L223.734,135.544 L222.942,141.142 C222.672,142.978 223.518,143.806 225.282,143.806 C226.11,143.806 227.028,143.536 227.532,143.23 L227.316,142.078 Z M232.86,143.806 C230.25,143.806 229.134,142.312 229.134,140.044 C229.134,139.648 229.152,139.252 229.206,138.874 C229.584,136.084 231.276,134.158 234.228,134.158 C236.892,134.158 237.846,135.814 237.846,137.92 C237.846,138.316 237.828,138.676 237.774,139.09 C237.414,142.006 235.74,143.806 232.86,143.806 Z M233.004,142.564 C234.66,142.564 235.83,141.376 236.118,138.964 C236.154,138.604 236.172,138.262 236.172,137.902 C236.172,136.264 235.434,135.472 234.03,135.472 C232.356,135.472 231.132,136.606 230.844,138.964 C230.808,139.288 230.79,139.63 230.79,139.972 C230.79,141.664 231.528,142.564 233.004,142.564 Z M245.478,134.158 C244.182,134.158 243.066,134.896 242.13,135.67 L242.112,135.67 L242.31,134.338 L240.798,134.338 L239.502,143.59 L241.14,143.59 L242.076,136.912 C242.634,136.444 243.894,135.544 244.956,135.544 C245.748,135.544 246.036,135.886 246.054,136.552 C246.09,136.822 246.054,137.146 246,137.524 L245.136,143.59 L246.774,143.59 L247.71,136.84 C248.322,136.336 249.456,135.544 250.446,135.544 C251.238,135.544 251.544,135.886 251.58,136.552 C251.598,136.822 251.58,137.146 251.508,137.524 L250.662,143.59 L252.3,143.59 L253.164,137.308 C253.434,135.418 253.038,134.158 250.986,134.158 C249.708,134.158 248.556,134.842 247.62,135.616 C247.422,134.68 246.774,134.158 245.478,134.158 Z M257.97,134.338 L256.332,134.338 L255.036,143.59 L256.674,143.59 L257.97,134.338 Z M258.762,131.188 C258.762,130.576 258.402,130.234 257.754,130.234 C256.926,130.234 256.422,130.72 256.422,131.566 C256.422,132.16 256.782,132.52 257.43,132.52 C258.258,132.52 258.762,132.016 258.762,131.188 Z M265.764,143.59 L265.962,142.312 L260.796,142.312 L266.682,135.436 L266.844,134.338 L260.022,134.338 L259.842,135.58 L264.774,135.58 L258.834,142.51 L258.672,143.59 L265.764,143.59 Z M271.362,143.806 C268.662,143.806 267.744,141.97 267.744,139.774 C267.744,136.75 269.544,134.158 272.694,134.158 C274.71,134.158 275.664,135.238 275.664,136.552 C275.664,138.1 274.638,138.982 273.252,139.414 C271.884,139.846 270.264,139.936 269.382,139.972 C269.4,141.232 269.706,142.51 271.614,142.51 C272.928,142.51 273.684,141.736 273.972,140.782 L275.322,141.088 C274.782,142.924 273.198,143.806 271.362,143.806 Z M272.586,135.4 C270.696,135.4 269.688,136.948 269.454,138.73 C269.886,138.712 271.398,138.64 272.622,138.262 C273.522,137.974 274.098,137.488 274.098,136.624 C274.098,135.814 273.522,135.4 272.586,135.4 Z M278.904,140.224 L280.542,130.558 L278.724,130.558 L277.68,140.224 L278.904,140.224 Z M279.174,142.474 C279.174,141.862 278.814,141.52 278.112,141.52 C277.23,141.52 276.726,142.006 276.726,142.87 C276.726,143.482 277.104,143.806 277.806,143.806 C278.688,143.806 279.174,143.338 279.174,142.474 Z" id="The-step-by-step-gui" fill="#EA9A1A"></path>
                <g id="Group-5" stroke="#F5BA5B" stroke-width="2">
                    <path d="M1,10.0108452 C1,10.0108452 27.5288124,9.56702119 47.3275176,14.3577851 C67.1262228,19.148549 82.1908893,30.5074053 82.1908893,30.5074053" id="Line" stroke-linecap="square"></path>
                    <polyline id="Path-9" stroke-linecap="round" stroke-linejoin="round" points="9.43948753 19.8640973 -1.59161573e-12 9.78668831 9.1671701 7.10542736e-13"></polyline>
                </g>
            </g>
        </g>
    </g>
</svg>