<?xml version="1.0" encoding="UTF-8"?>
<svg width="284px" height="181px" viewBox="0 0 284 181" version="1.1" xmlns="http://www.w3.org/2000/svg" xmlns:xlink="http://www.w3.org/1999/xlink">
    <!-- Generator: Sketch 43.2 (39069) - http://www.bohemiancoding.com/sketch -->
    <title>Group 10</title>
    <desc>Created with Sketch.</desc>
    <defs></defs>
    <g id="V1" stroke="none" stroke-width="1" fill="none" fill-rule="evenodd">
        <g id="12_00-Guide-6-Copy" transform="translate(-926.000000, -240.000000)">
            <g id="Group-8" transform="translate(925.000000, 239.000000)">
                <g id="Group-10">
                    <g id="Group-12" transform="translate(31.500000, 32.500000) scale(-1, 1) translate(-31.500000, -32.500000) " stroke="#F5BA5B" stroke-width="2" stroke-linecap="round">
                        <path d="M58.9497563,7.39878426 C58.9497563,7.39878426 38.8726273,11.0332953 21.8130749,28.012913 C4.75352256,44.9925307 0.0246716971,65 0.0246716971,65" id="Line"></path>
                        <polyline id="Path-9" stroke-linejoin="round" transform="translate(57.500000, 7.500000) rotate(-283.000000) translate(-57.500000, -7.500000) " points="51 11 57.5951306 4 64 10.7980587"></polyline>
                    </g>
                    <path d="M62.706,88.906 C62.472,90.598 62.256,92.29 62.004,94 L60.384,94 L61.086,88.942 L57.864,80.968 L59.556,80.968 L62.058,87.412 L62.076,87.412 L66.198,80.968 L67.908,80.968 L62.706,88.906 Z M69.906,94.216 C67.296,94.216 66.18,92.722 66.18,90.454 C66.18,90.058 66.198,89.662 66.252,89.284 C66.63,86.494 68.322,84.568 71.274,84.568 C73.938,84.568 74.892,86.224 74.892,88.33 C74.892,88.726 74.874,89.086 74.82,89.5 C74.46,92.416 72.786,94.216 69.906,94.216 Z M70.05,92.974 C71.706,92.974 72.876,91.786 73.164,89.374 C73.2,89.014 73.218,88.672 73.218,88.312 C73.218,86.674 72.48,85.882 71.076,85.882 C69.402,85.882 68.178,87.016 67.89,89.374 C67.854,89.698 67.836,90.04 67.836,90.382 C67.836,92.074 68.574,92.974 70.05,92.974 Z M82.83,91.534 C82.074,92.2 80.94,92.848 79.842,92.848 C79.05,92.848 78.618,92.56 78.546,91.84 C78.492,91.588 78.51,91.246 78.564,90.832 L79.41,84.748 L77.772,84.748 L76.908,90.994 C76.62,93.118 77.466,94.18 79.32,94.18 C80.724,94.18 82.074,93.424 82.794,92.776 L82.632,94 L84.108,94 L85.404,84.748 L83.766,84.748 L82.83,91.534 Z M94.584,94.216 C96.474,94.216 98.13,93.316 98.652,91.228 L97.23,90.958 C96.834,92.272 95.952,92.92 94.71,92.92 C93.54,92.92 92.568,92.218 92.568,90.238 C92.568,86.89 94.26,85.882 95.718,85.882 C97.248,85.882 97.626,86.836 97.554,88.294 L99.048,88.186 C99.264,86.098 98.094,84.568 95.898,84.568 C92.964,84.568 90.858,86.638 90.858,90.31 C90.858,92.614 91.974,94.216 94.584,94.216 Z M108.984,84.748 L107.922,92.254 C107.85,92.758 107.922,93.028 108.372,93.028 C108.534,93.028 108.696,93.01 108.948,92.938 L108.84,93.928 C108.57,94.036 108.138,94.108 107.778,94.108 C106.914,94.108 106.41,93.748 106.428,92.794 C105.654,93.64 104.43,94.216 103.224,94.216 C101.478,94.216 100.236,93.172 100.236,90.634 C100.236,87.592 101.658,84.568 104.754,84.568 C105.816,84.568 106.752,85.054 107.328,85.558 L107.472,84.748 L108.984,84.748 Z M106.428,91.57 L107.094,86.818 C106.626,86.368 105.744,85.918 104.844,85.918 C102.594,85.918 101.892,88.636 101.892,90.49 C101.892,92.254 102.576,92.902 103.674,92.902 C104.538,92.902 105.312,92.596 106.428,91.57 Z M113.322,87.322 C113.988,86.782 115.23,85.936 116.418,85.936 C117.426,85.936 117.858,86.548 117.66,87.916 L116.814,94 L118.452,94 L119.316,87.736 C119.604,85.612 118.704,84.568 116.904,84.568 C115.428,84.568 114.132,85.396 113.412,86.026 L113.394,86.026 L113.592,84.748 L112.044,84.748 L110.748,94 L112.386,94 L113.322,87.322 Z M129.612,85.918 C127.398,85.918 126.678,88.456 126.678,90.274 C126.678,91.984 127.362,92.596 128.424,92.596 C129.324,92.596 130.188,92.362 131.25,91.318 L131.862,86.8 C131.412,86.314 130.512,85.918 129.612,85.918 Z M130.854,94.504 L131.16,92.65 C130.368,93.442 129.144,93.928 127.956,93.928 C126.228,93.928 125.022,92.902 125.022,90.4 C125.022,87.808 126.192,84.568 129.54,84.568 C130.584,84.568 131.556,85.036 132.132,85.594 L132.294,84.748 L133.77,84.748 L132.402,94.54 C132.078,96.808 130.548,98.014 128.1,98.014 C125.958,98.014 124.59,97.15 124.41,95.116 L125.94,94.864 C126.03,95.908 126.48,96.718 128.082,96.718 C129.396,96.718 130.584,96.178 130.854,94.504 Z M138.558,94.216 C135.858,94.216 134.94,92.38 134.94,90.184 C134.94,87.16 136.74,84.568 139.89,84.568 C141.906,84.568 142.86,85.648 142.86,86.962 C142.86,88.51 141.834,89.392 140.448,89.824 C139.08,90.256 137.46,90.346 136.578,90.382 C136.596,91.642 136.902,92.92 138.81,92.92 C140.124,92.92 140.88,92.146 141.168,91.192 L142.518,91.498 C141.978,93.334 140.394,94.216 138.558,94.216 Z M139.782,85.81 C137.892,85.81 136.884,87.358 136.65,89.14 C137.082,89.122 138.594,89.05 139.818,88.672 C140.718,88.384 141.294,87.898 141.294,87.034 C141.294,86.224 140.718,85.81 139.782,85.81 Z M149.088,92.488 C148.674,92.722 148.026,92.956 147.432,92.956 C146.334,92.956 146.226,92.344 146.37,91.372 L147.144,85.954 L149.682,85.954 L149.844,84.748 L147.306,84.748 L147.702,81.85 L146.046,82.084 L145.668,84.748 L144.228,84.748 L144.066,85.954 L145.506,85.954 L144.714,91.552 C144.444,93.388 145.29,94.216 147.054,94.216 C147.882,94.216 148.8,93.946 149.304,93.64 L149.088,92.488 Z M156.234,94 L154.74,94 L156.648,80.41 L158.25,80.41 L157.458,85.954 C158.394,85.234 159.456,84.568 160.806,84.568 C162.444,84.568 163.614,85.522 163.614,88.078 C163.614,92.362 161.472,94.216 159.204,94.216 C158.07,94.216 157.152,93.802 156.414,93.172 L156.396,93.172 L156.234,94 Z M157.314,87.286 L156.666,91.912 C157.026,92.236 157.836,92.848 158.97,92.848 C161.166,92.848 161.922,90.562 161.922,88.204 C161.922,86.62 161.4,85.918 160.302,85.918 C159.258,85.918 157.926,86.746 157.314,87.286 Z M173.856,84.748 L172.794,92.254 C172.722,92.758 172.794,93.028 173.244,93.028 C173.406,93.028 173.568,93.01 173.82,92.938 L173.712,93.928 C173.442,94.036 173.01,94.108 172.65,94.108 C171.786,94.108 171.282,93.748 171.3,92.794 C170.526,93.64 169.302,94.216 168.096,94.216 C166.35,94.216 165.108,93.172 165.108,90.634 C165.108,87.592 166.53,84.568 169.626,84.568 C170.688,84.568 171.624,85.054 172.2,85.558 L172.344,84.748 L173.856,84.748 Z M171.3,91.57 L171.966,86.818 C171.498,86.368 170.616,85.918 169.716,85.918 C167.466,85.918 166.764,88.636 166.764,90.49 C166.764,92.254 167.448,92.902 168.546,92.902 C169.41,92.902 170.184,92.596 171.3,91.57 Z M179.166,94.216 C181.056,94.216 182.712,93.316 183.234,91.228 L181.812,90.958 C181.416,92.272 180.534,92.92 179.292,92.92 C178.122,92.92 177.15,92.218 177.15,90.238 C177.15,86.89 178.842,85.882 180.3,85.882 C181.83,85.882 182.208,86.836 182.136,88.294 L183.63,88.186 C183.846,86.098 182.676,84.568 180.48,84.568 C177.546,84.568 175.44,86.638 175.44,90.31 C175.44,92.614 176.556,94.216 179.166,94.216 Z M192.756,94 L190.146,88.096 L193.818,84.748 L191.874,84.748 L187.41,88.798 L188.598,80.41 L186.96,80.41 L185.052,94 L186.69,94 L187.158,90.634 L188.796,89.194 L190.956,94 L192.756,94 Z M203.358,92.488 C202.944,92.722 202.296,92.956 201.702,92.956 C200.604,92.956 200.496,92.344 200.64,91.372 L201.414,85.954 L203.952,85.954 L204.114,84.748 L201.576,84.748 L201.972,81.85 L200.316,82.084 L199.938,84.748 L198.498,84.748 L198.336,85.954 L199.776,85.954 L198.984,91.552 C198.714,93.388 199.56,94.216 201.324,94.216 C202.152,94.216 203.07,93.946 203.574,93.64 L203.358,92.488 Z M208.704,94.216 C206.094,94.216 204.978,92.722 204.978,90.454 C204.978,90.058 204.996,89.662 205.05,89.284 C205.428,86.494 207.12,84.568 210.072,84.568 C212.736,84.568 213.69,86.224 213.69,88.33 C213.69,88.726 213.672,89.086 213.618,89.5 C213.258,92.416 211.584,94.216 208.704,94.216 Z M208.848,92.974 C210.504,92.974 211.674,91.786 211.962,89.374 C211.998,89.014 212.016,88.672 212.016,88.312 C212.016,86.674 211.278,85.882 209.874,85.882 C208.2,85.882 206.976,87.016 206.688,89.374 C206.652,89.698 206.634,90.04 206.634,90.382 C206.634,92.074 207.372,92.974 208.848,92.974 Z M224.256,92.488 C223.842,92.722 223.194,92.956 222.6,92.956 C221.502,92.956 221.394,92.344 221.538,91.372 L222.312,85.954 L224.85,85.954 L225.012,84.748 L222.474,84.748 L222.87,81.85 L221.214,82.084 L220.836,84.748 L219.396,84.748 L219.234,85.954 L220.674,85.954 L219.882,91.552 C219.612,93.388 220.458,94.216 222.222,94.216 C223.05,94.216 223.968,93.946 224.472,93.64 L224.256,92.488 Z M228.63,87.34 C229.548,86.638 230.538,85.936 231.708,85.936 C232.716,85.936 233.166,86.512 232.968,87.916 L232.122,94 L233.76,94 L234.624,87.736 C234.912,85.612 234.048,84.568 232.176,84.568 C230.754,84.568 229.476,85.414 228.756,86.026 L229.584,80.41 L227.964,80.41 L226.056,94 L227.694,94 L228.63,87.34 Z M239.43,84.748 L237.792,84.748 L236.496,94 L238.134,94 L239.43,84.748 Z M240.222,81.598 C240.222,80.986 239.862,80.644 239.214,80.644 C238.386,80.644 237.882,81.13 237.882,81.976 C237.882,82.57 238.242,82.93 238.89,82.93 C239.718,82.93 240.222,82.426 240.222,81.598 Z M245.1,84.568 C243.318,84.568 241.59,85.414 241.59,87.376 C241.59,89.266 243.102,89.608 244.398,89.968 C245.388,90.238 246.252,90.544 246.252,91.516 C246.252,92.668 245.172,92.992 244.2,92.992 C242.598,92.992 242.148,92.146 242.022,91.102 L240.672,91.408 C240.834,93.244 241.932,94.216 244.11,94.216 C246.342,94.216 247.854,93.154 247.854,91.282 C247.854,89.356 246.18,89.032 244.83,88.636 C243.912,88.366 243.138,88.042 243.138,87.16 C243.138,86.44 243.606,85.756 245.064,85.756 C246.414,85.756 246.882,86.584 246.936,87.61 L248.322,87.412 C248.232,85.792 247.296,84.568 245.1,84.568 Z M62.238,113.918 C60.024,113.918 59.304,116.456 59.304,118.274 C59.304,119.984 59.988,120.596 61.05,120.596 C61.95,120.596 62.814,120.362 63.876,119.318 L64.488,114.8 C64.038,114.314 63.138,113.918 62.238,113.918 Z M63.48,122.504 L63.786,120.65 C62.994,121.442 61.77,121.928 60.582,121.928 C58.854,121.928 57.648,120.902 57.648,118.4 C57.648,115.808 58.818,112.568 62.166,112.568 C63.21,112.568 64.182,113.036 64.758,113.594 L64.92,112.748 L66.396,112.748 L65.028,122.54 C64.704,124.808 63.174,126.014 60.726,126.014 C58.584,126.014 57.216,125.15 57.036,123.116 L58.566,122.864 C58.656,123.908 59.106,124.718 60.708,124.718 C62.022,124.718 63.21,124.178 63.48,122.504 Z M74.118,119.534 C73.362,120.2 72.228,120.848 71.13,120.848 C70.338,120.848 69.906,120.56 69.834,119.84 C69.78,119.588 69.798,119.246 69.852,118.832 L70.698,112.748 L69.06,112.748 L68.196,118.994 C67.908,121.118 68.754,122.18 70.608,122.18 C72.012,122.18 73.362,121.424 74.082,120.776 L73.92,122 L75.396,122 L76.692,112.748 L75.054,112.748 L74.118,119.534 Z M81.174,112.748 L79.536,112.748 L78.24,122 L79.878,122 L81.174,112.748 Z M81.966,109.598 C81.966,108.986 81.606,108.644 80.958,108.644 C80.13,108.644 79.626,109.13 79.626,109.976 C79.626,110.57 79.986,110.93 80.634,110.93 C81.462,110.93 81.966,110.426 81.966,109.598 Z M90.282,122 L88.86,122 L88.95,120.938 L88.95,120.92 C88.086,121.64 86.988,122.216 85.818,122.216 C84,122.216 82.794,121.136 82.794,118.688 C82.794,114.224 85.152,112.568 87.366,112.568 C88.446,112.568 89.274,113 89.868,113.522 L90.57,108.41 L92.19,108.41 L90.282,122 Z M88.968,119.678 L89.652,114.71 C89.274,114.386 88.518,113.864 87.546,113.864 C85.296,113.864 84.45,116.222 84.45,118.598 C84.45,120.038 84.936,120.83 86.106,120.884 C86.466,120.884 86.826,120.83 87.186,120.722 C87.87,120.506 88.518,120.092 88.968,119.678 Z M96.762,122.216 C94.062,122.216 93.144,120.38 93.144,118.184 C93.144,115.16 94.944,112.568 98.094,112.568 C100.11,112.568 101.064,113.648 101.064,114.962 C101.064,116.51 100.038,117.392 98.652,117.824 C97.284,118.256 95.664,118.346 94.782,118.382 C94.8,119.642 95.106,120.92 97.014,120.92 C98.328,120.92 99.084,120.146 99.372,119.192 L100.722,119.498 C100.182,121.334 98.598,122.216 96.762,122.216 Z M97.986,113.81 C96.096,113.81 95.088,115.358 94.854,117.14 C95.286,117.122 96.798,117.05 98.022,116.672 C98.922,116.384 99.498,115.898 99.498,115.034 C99.498,114.224 98.922,113.81 97.986,113.81 Z M115.068,112.748 L114.006,120.254 C113.934,120.758 114.006,121.028 114.456,121.028 C114.618,121.028 114.78,121.01 115.032,120.938 L114.924,121.928 C114.654,122.036 114.222,122.108 113.862,122.108 C112.998,122.108 112.494,121.748 112.512,120.794 C111.738,121.64 110.514,122.216 109.308,122.216 C107.562,122.216 106.32,121.172 106.32,118.634 C106.32,115.592 107.742,112.568 110.838,112.568 C111.9,112.568 112.836,113.054 113.412,113.558 L113.556,112.748 L115.068,112.748 Z M112.512,119.57 L113.178,114.818 C112.71,114.368 111.828,113.918 110.928,113.918 C108.678,113.918 107.976,116.636 107.976,118.49 C107.976,120.254 108.66,120.902 109.758,120.902 C110.622,120.902 111.396,120.596 112.512,119.57 Z M121.746,120.488 C121.332,120.722 120.684,120.956 120.09,120.956 C118.992,120.956 118.884,120.344 119.028,119.372 L119.802,113.954 L122.34,113.954 L122.502,112.748 L119.964,112.748 L120.36,109.85 L118.704,110.084 L118.326,112.748 L116.886,112.748 L116.724,113.954 L118.164,113.954 L117.372,119.552 C117.102,121.388 117.948,122.216 119.712,122.216 C120.54,122.216 121.458,121.946 121.962,121.64 L121.746,120.488 Z M136.2,112.748 L135.138,120.254 C135.066,120.758 135.138,121.028 135.588,121.028 C135.75,121.028 135.912,121.01 136.164,120.938 L136.056,121.928 C135.786,122.036 135.354,122.108 134.994,122.108 C134.13,122.108 133.626,121.748 133.644,120.794 C132.87,121.64 131.646,122.216 130.44,122.216 C128.694,122.216 127.452,121.172 127.452,118.634 C127.452,115.592 128.874,112.568 131.97,112.568 C133.032,112.568 133.968,113.054 134.544,113.558 L134.688,112.748 L136.2,112.748 Z M133.644,119.57 L134.31,114.818 C133.842,114.368 132.96,113.918 132.06,113.918 C129.81,113.918 129.108,116.636 129.108,118.49 C129.108,120.254 129.792,120.902 130.89,120.902 C131.754,120.902 132.528,120.596 133.644,119.57 Z M140.538,115.322 L139.602,122 L137.964,122 L139.26,112.748 L140.808,112.748 L140.61,114.026 L140.628,114.026 C141.348,113.396 142.644,112.568 144.12,112.568 C145.92,112.568 146.82,113.612 146.532,115.736 L145.668,122 L144.03,122 L144.876,115.916 C145.074,114.548 144.642,113.936 143.634,113.936 C142.446,113.936 141.204,114.782 140.538,115.322 Z M150.132,122.072 L148.188,112.748 L149.898,112.748 L151.23,120.2 L154.686,112.748 L156.396,112.748 L151.518,122.576 C150.222,125.15 149.574,126.014 147.882,126.014 C147.198,126.014 146.622,125.852 146.28,125.69 L146.568,124.502 C146.91,124.646 147.36,124.772 147.846,124.772 C148.728,124.772 149.214,124.106 150.132,122.072 Z M165.702,120.488 C165.288,120.722 164.64,120.956 164.046,120.956 C162.948,120.956 162.84,120.344 162.984,119.372 L163.758,113.954 L166.296,113.954 L166.458,112.748 L163.92,112.748 L164.316,109.85 L162.66,110.084 L162.282,112.748 L160.842,112.748 L160.68,113.954 L162.12,113.954 L161.328,119.552 C161.058,121.388 161.904,122.216 163.668,122.216 C164.496,122.216 165.414,121.946 165.918,121.64 L165.702,120.488 Z M170.4,112.748 L168.762,112.748 L167.466,122 L169.104,122 L170.4,112.748 Z M171.192,109.598 C171.192,108.986 170.832,108.644 170.184,108.644 C169.356,108.644 168.852,109.13 168.852,109.976 C168.852,110.57 169.212,110.93 169.86,110.93 C170.688,110.93 171.192,110.426 171.192,109.598 Z M177.924,112.568 C176.628,112.568 175.512,113.306 174.576,114.08 L174.558,114.08 L174.756,112.748 L173.244,112.748 L171.948,122 L173.586,122 L174.522,115.322 C175.08,114.854 176.34,113.954 177.402,113.954 C178.194,113.954 178.482,114.296 178.5,114.962 C178.536,115.232 178.5,115.556 178.446,115.934 L177.582,122 L179.22,122 L180.156,115.25 C180.768,114.746 181.902,113.954 182.892,113.954 C183.684,113.954 183.99,114.296 184.026,114.962 C184.044,115.232 184.026,115.556 183.954,115.934 L183.108,122 L184.746,122 L185.61,115.718 C185.88,113.828 185.484,112.568 183.432,112.568 C182.154,112.568 181.002,113.252 180.066,114.026 C179.868,113.09 179.22,112.568 177.924,112.568 Z M191.172,122.216 C188.472,122.216 187.554,120.38 187.554,118.184 C187.554,115.16 189.354,112.568 192.504,112.568 C194.52,112.568 195.474,113.648 195.474,114.962 C195.474,116.51 194.448,117.392 193.062,117.824 C191.694,118.256 190.074,118.346 189.192,118.382 C189.21,119.642 189.516,120.92 191.424,120.92 C192.738,120.92 193.494,120.146 193.782,119.192 L195.132,119.498 C194.592,121.334 193.008,122.216 191.172,122.216 Z M192.396,113.81 C190.506,113.81 189.498,115.358 189.264,117.14 C189.696,117.122 191.208,117.05 192.432,116.672 C193.332,116.384 193.908,115.898 193.908,115.034 C193.908,114.224 193.332,113.81 192.396,113.81 Z M202.17,122 L200.676,122 L202.584,108.41 L204.186,108.41 L203.394,113.954 C204.33,113.234 205.392,112.568 206.742,112.568 C208.38,112.568 209.55,113.522 209.55,116.078 C209.55,120.362 207.408,122.216 205.14,122.216 C204.006,122.216 203.088,121.802 202.35,121.172 L202.332,121.172 L202.17,122 Z M203.25,115.286 L202.602,119.912 C202.962,120.236 203.772,120.848 204.906,120.848 C207.102,120.848 207.858,118.562 207.858,116.204 C207.858,114.62 207.336,113.918 206.238,113.918 C205.194,113.918 203.862,114.746 203.25,115.286 Z M212.898,122.072 L210.954,112.748 L212.664,112.748 L213.996,120.2 L217.452,112.748 L219.162,112.748 L214.284,122.576 C212.988,125.15 212.34,126.014 210.648,126.014 C209.964,126.014 209.388,125.852 209.046,125.69 L209.334,124.502 C209.676,124.646 210.126,124.772 210.612,124.772 C211.494,124.772 211.98,124.106 212.898,122.072 Z M227.154,122.216 C229.044,122.216 230.7,121.316 231.222,119.228 L229.8,118.958 C229.404,120.272 228.522,120.92 227.28,120.92 C226.11,120.92 225.138,120.218 225.138,118.238 C225.138,114.89 226.83,113.882 228.288,113.882 C229.818,113.882 230.196,114.836 230.124,116.294 L231.618,116.186 C231.834,114.098 230.664,112.568 228.468,112.568 C225.534,112.568 223.428,114.638 223.428,118.31 C223.428,120.614 224.544,122.216 227.154,122.216 Z M233.004,122 L234.642,122 L236.55,108.41 L234.912,108.41 L233.004,122 Z M240.384,112.748 L238.746,112.748 L237.45,122 L239.088,122 L240.384,112.748 Z M241.176,109.598 C241.176,108.986 240.816,108.644 240.168,108.644 C239.34,108.644 238.836,109.13 238.836,109.976 C238.836,110.57 239.196,110.93 239.844,110.93 C240.672,110.93 241.176,110.426 241.176,109.598 Z M245.676,122.216 C247.566,122.216 249.222,121.316 249.744,119.228 L248.322,118.958 C247.926,120.272 247.044,120.92 245.802,120.92 C244.632,120.92 243.66,120.218 243.66,118.238 C243.66,114.89 245.352,113.882 246.81,113.882 C248.34,113.882 248.718,114.836 248.646,116.294 L250.14,116.186 C250.356,114.098 249.186,112.568 246.99,112.568 C244.056,112.568 241.95,114.638 241.95,118.31 C241.95,120.614 243.066,122.216 245.676,122.216 Z M259.266,122 L256.656,116.096 L260.328,112.748 L258.384,112.748 L253.92,116.798 L255.108,108.41 L253.47,108.41 L251.562,122 L253.2,122 L253.668,118.634 L255.306,117.194 L257.466,122 L259.266,122 Z M263.856,112.748 L262.218,112.748 L260.922,122 L262.56,122 L263.856,112.748 Z M264.648,109.598 C264.648,108.986 264.288,108.644 263.64,108.644 C262.812,108.644 262.308,109.13 262.308,109.976 C262.308,110.57 262.668,110.93 263.316,110.93 C264.144,110.93 264.648,110.426 264.648,109.598 Z M267.978,115.322 C268.644,114.782 269.886,113.936 271.074,113.936 C272.082,113.936 272.514,114.548 272.316,115.916 L271.47,122 L273.108,122 L273.972,115.736 C274.26,113.612 273.36,112.568 271.56,112.568 C270.084,112.568 268.788,113.396 268.068,114.026 L268.05,114.026 L268.248,112.748 L266.7,112.748 L265.404,122 L267.042,122 L267.978,115.322 Z M280.416,113.918 C278.202,113.918 277.482,116.456 277.482,118.274 C277.482,119.984 278.166,120.596 279.228,120.596 C280.128,120.596 280.992,120.362 282.054,119.318 L282.666,114.8 C282.216,114.314 281.316,113.918 280.416,113.918 Z M281.658,122.504 L281.964,120.65 C281.172,121.442 279.948,121.928 278.76,121.928 C277.032,121.928 275.826,120.902 275.826,118.4 C275.826,115.808 276.996,112.568 280.344,112.568 C281.388,112.568 282.36,113.036 282.936,113.594 L283.098,112.748 L284.574,112.748 L283.206,122.54 C282.882,124.808 281.352,126.014 278.904,126.014 C276.762,126.014 275.394,125.15 275.214,123.116 L276.744,122.864 C276.834,123.908 277.284,124.718 278.886,124.718 C280.2,124.718 281.388,124.178 281.658,122.504 Z M62.85,150 L60.078,150 L61.572,139.218 L57.792,139.218 L58.098,136.968 L68.43,136.968 L68.106,139.218 L64.344,139.218 L62.85,150 Z M72.174,147.156 L73.092,140.622 L75.81,140.622 L74.496,150 L72.21,150 L72.246,148.848 C72.228,148.848 72.228,148.83 72.21,148.83 C71.544,149.55 70.338,150.216 69.024,150.216 C67.116,150.216 66.234,149.082 66.522,146.976 L67.404,140.622 L70.122,140.622 L69.294,146.58 C69.186,147.372 69.348,148.056 70.266,148.056 C71.076,148.056 71.67,147.642 72.174,147.156 Z M82.578,147.786 C82.164,148.002 81.66,148.182 81.102,148.182 C80.238,148.182 80.076,147.642 80.202,146.814 L80.814,142.548 L83.298,142.548 L83.55,140.622 L81.066,140.622 L81.516,137.508 L78.744,137.922 L78.348,140.622 L76.944,140.622 L76.692,142.548 L78.096,142.548 L77.448,147.066 C77.142,149.172 78.114,150.216 80.202,150.216 C81.246,150.216 82.344,149.874 82.866,149.568 L82.578,147.786 Z M87.978,150.216 C85.134,150.216 83.892,148.722 83.892,146.22 C83.892,143.034 85.692,140.442 89.328,140.442 C92.316,140.442 93.324,142.17 93.324,144.474 C93.324,147.48 91.65,150.216 87.978,150.216 Z M88.194,148.326 C90.102,148.326 90.498,145.878 90.498,144.384 C90.498,142.944 89.958,142.386 89.004,142.386 C87.096,142.386 86.646,144.708 86.646,146.238 C86.646,147.732 87.204,148.326 88.194,148.326 Z M97.824,144.024 L96.978,150 L94.26,150 L95.574,140.622 L98.058,140.622 L97.86,142.188 L97.896,142.188 C98.634,141.27 99.552,140.442 100.974,140.442 C101.136,140.442 101.298,140.46 101.46,140.478 L101.1,143.016 C99.876,142.944 98.778,143.304 97.824,144.024 Z M105.474,140.622 L104.16,150 L101.442,150 L102.756,140.622 L105.474,140.622 Z M106.176,137.49 C106.176,136.626 105.672,136.158 104.736,136.158 C103.584,136.158 102.864,136.842 102.864,138.012 C102.864,138.858 103.386,139.362 104.304,139.362 C105.474,139.362 106.176,138.66 106.176,137.49 Z M116.112,140.622 L115.104,147.768 C115.032,148.254 115.104,148.47 115.554,148.47 C115.716,148.47 115.878,148.452 116.13,148.38 L115.968,149.856 C115.626,150.018 114.834,150.18 114.294,150.18 C113.232,150.18 112.656,149.802 112.53,148.902 C111.846,149.694 110.784,150.216 109.596,150.216 C107.724,150.216 106.446,149.136 106.446,146.562 C106.446,142.62 108.57,140.442 111,140.442 C112.116,140.442 112.89,140.856 113.43,141.378 L113.574,140.622 L116.112,140.622 Z M112.458,147.372 L113.052,143.106 C112.71,142.782 112.152,142.53 111.576,142.53 C109.83,142.53 109.308,144.744 109.308,146.238 C109.308,147.498 109.794,148.128 110.712,148.128 C111.252,148.128 111.81,147.948 112.458,147.372 Z M117.318,150 L120.036,150 L121.944,136.41 L119.226,136.41 L117.318,150 Z M130.224,150.216 C127.614,150.216 126.498,148.722 126.498,146.454 C126.498,146.058 126.516,145.662 126.57,145.284 C126.948,142.494 128.64,140.568 131.592,140.568 C134.256,140.568 135.21,142.224 135.21,144.33 C135.21,144.726 135.192,145.086 135.138,145.5 C134.778,148.416 133.104,150.216 130.224,150.216 Z M130.368,148.974 C132.024,148.974 133.194,147.786 133.482,145.374 C133.518,145.014 133.536,144.672 133.536,144.312 C133.536,142.674 132.798,141.882 131.394,141.882 C129.72,141.882 128.496,143.016 128.208,145.374 C128.172,145.698 128.154,146.04 128.154,146.382 C128.154,148.074 128.892,148.974 130.368,148.974 Z M139.44,143.322 C140.106,142.782 141.348,141.936 142.536,141.936 C143.544,141.936 143.976,142.548 143.778,143.916 L142.932,150 L144.57,150 L145.434,143.736 C145.722,141.612 144.822,140.568 143.022,140.568 C141.546,140.568 140.25,141.396 139.53,142.026 L139.512,142.026 L139.71,140.748 L138.162,140.748 L136.866,150 L138.504,150 L139.44,143.322 Z M156.252,148.488 C155.838,148.722 155.19,148.956 154.596,148.956 C153.498,148.956 153.39,148.344 153.534,147.372 L154.308,141.954 L156.846,141.954 L157.008,140.748 L154.47,140.748 L154.866,137.85 L153.21,138.084 L152.832,140.748 L151.392,140.748 L151.23,141.954 L152.67,141.954 L151.878,147.552 C151.608,149.388 152.454,150.216 154.218,150.216 C155.046,150.216 155.964,149.946 156.468,149.64 L156.252,148.488 Z M160.626,143.34 C161.544,142.638 162.534,141.936 163.704,141.936 C164.712,141.936 165.162,142.512 164.964,143.916 L164.118,150 L165.756,150 L166.62,143.736 C166.908,141.612 166.044,140.568 164.172,140.568 C162.75,140.568 161.472,141.414 160.752,142.026 L161.58,136.41 L159.96,136.41 L158.052,150 L159.69,150 L160.626,143.34 Z M172.182,150.216 C169.482,150.216 168.564,148.38 168.564,146.184 C168.564,143.16 170.364,140.568 173.514,140.568 C175.53,140.568 176.484,141.648 176.484,142.962 C176.484,144.51 175.458,145.392 174.072,145.824 C172.704,146.256 171.084,146.346 170.202,146.382 C170.22,147.642 170.526,148.92 172.434,148.92 C173.748,148.92 174.504,148.146 174.792,147.192 L176.142,147.498 C175.602,149.334 174.018,150.216 172.182,150.216 Z M173.406,141.81 C171.516,141.81 170.508,143.358 170.274,145.14 C170.706,145.122 172.218,145.05 173.442,144.672 C174.342,144.384 174.918,143.898 174.918,143.034 C174.918,142.224 174.342,141.81 173.406,141.81 Z M193.008,136.968 L191.388,136.968 L190.614,142.62 L184.494,142.62 L185.268,136.968 L183.666,136.968 L181.884,150 L183.504,150 L184.296,143.988 L190.416,143.988 L189.624,150 L191.226,150 L193.008,136.968 Z M198.012,150.216 C195.312,150.216 194.394,148.38 194.394,146.184 C194.394,143.16 196.194,140.568 199.344,140.568 C201.36,140.568 202.314,141.648 202.314,142.962 C202.314,144.51 201.288,145.392 199.902,145.824 C198.534,146.256 196.914,146.346 196.032,146.382 C196.05,147.642 196.356,148.92 198.264,148.92 C199.578,148.92 200.334,148.146 200.622,147.192 L201.972,147.498 C201.432,149.334 199.848,150.216 198.012,150.216 Z M199.236,141.81 C197.346,141.81 196.338,143.358 196.104,145.14 C196.536,145.122 198.048,145.05 199.272,144.672 C200.172,144.384 200.748,143.898 200.748,143.034 C200.748,142.224 200.172,141.81 199.236,141.81 Z M203.628,150 L205.266,150 L207.174,136.41 L205.536,136.41 L203.628,150 Z M210.954,140.748 L210.756,142.008 C211.674,141.27 212.844,140.568 214.176,140.568 C215.832,140.568 217.002,141.54 217.002,144.078 C217.002,148.398 214.806,150.216 212.466,150.216 C211.314,150.216 210.396,149.748 209.802,149.226 L209.154,153.816 L207.57,153.816 L209.406,140.748 L210.954,140.748 Z M215.292,144.204 C215.292,142.548 214.788,141.918 213.708,141.918 C212.646,141.918 211.296,142.728 210.684,143.268 L210.036,147.93 C210.378,148.236 211.26,148.866 212.268,148.866 C214.59,148.866 215.292,146.508 215.292,144.204 Z M65.262,178 L63.84,178 L63.93,176.938 L63.93,176.92 C63.066,177.64 61.968,178.216 60.798,178.216 C58.98,178.216 57.774,177.136 57.774,174.688 C57.774,170.224 60.132,168.568 62.346,168.568 C63.426,168.568 64.254,169 64.848,169.522 L65.55,164.41 L67.17,164.41 L65.262,178 Z M63.948,175.678 L64.632,170.71 C64.254,170.386 63.498,169.864 62.526,169.864 C60.276,169.864 59.43,172.222 59.43,174.598 C59.43,176.038 59.916,176.83 61.086,176.884 C61.446,176.884 61.806,176.83 62.166,176.722 C62.85,176.506 63.498,176.092 63.948,175.678 Z M70.626,171.556 C71.706,170.62 72.714,170.116 73.92,170.224 L74.154,168.604 C74.01,168.586 73.866,168.586 73.722,168.586 C72.462,168.586 71.652,169.252 70.698,170.314 L70.896,168.748 L69.384,168.748 L68.088,178 L69.726,178 L70.626,171.556 Z M78.114,178.216 C75.504,178.216 74.388,176.722 74.388,174.454 C74.388,174.058 74.406,173.662 74.46,173.284 C74.838,170.494 76.53,168.568 79.482,168.568 C82.146,168.568 83.1,170.224 83.1,172.33 C83.1,172.726 83.082,173.086 83.028,173.5 C82.668,176.416 80.994,178.216 78.114,178.216 Z M78.258,176.974 C79.914,176.974 81.084,175.786 81.372,173.374 C81.408,173.014 81.426,172.672 81.426,172.312 C81.426,170.674 80.688,169.882 79.284,169.882 C77.61,169.882 76.386,171.016 76.098,173.374 C76.062,173.698 76.044,174.04 76.044,174.382 C76.044,176.074 76.782,176.974 78.258,176.974 Z M87.6,168.748 L87.402,170.008 C88.32,169.27 89.49,168.568 90.822,168.568 C92.478,168.568 93.648,169.54 93.648,172.078 C93.648,176.398 91.452,178.216 89.112,178.216 C87.96,178.216 87.042,177.748 86.448,177.226 L85.8,181.816 L84.216,181.816 L86.052,168.748 L87.6,168.748 Z M91.938,172.204 C91.938,170.548 91.434,169.918 90.354,169.918 C89.292,169.918 87.942,170.728 87.33,171.268 L86.682,175.93 C87.024,176.236 87.906,176.866 88.914,176.866 C91.236,176.866 91.938,174.508 91.938,172.204 Z M102.846,178 L101.424,178 L101.514,176.938 L101.514,176.92 C100.65,177.64 99.552,178.216 98.382,178.216 C96.564,178.216 95.358,177.136 95.358,174.688 C95.358,170.224 97.716,168.568 99.93,168.568 C101.01,168.568 101.838,169 102.432,169.522 L103.134,164.41 L104.754,164.41 L102.846,178 Z M101.532,175.678 L102.216,170.71 C101.838,170.386 101.082,169.864 100.11,169.864 C97.86,169.864 97.014,172.222 97.014,174.598 C97.014,176.038 97.5,176.83 98.67,176.884 C99.03,176.884 99.39,176.83 99.75,176.722 C100.434,176.506 101.082,176.092 101.532,175.678 Z M109.416,178.216 C106.806,178.216 105.69,176.722 105.69,174.454 C105.69,174.058 105.708,173.662 105.762,173.284 C106.14,170.494 107.832,168.568 110.784,168.568 C113.448,168.568 114.402,170.224 114.402,172.33 C114.402,172.726 114.384,173.086 114.33,173.5 C113.97,176.416 112.296,178.216 109.416,178.216 Z M109.56,176.974 C111.216,176.974 112.386,175.786 112.674,173.374 C112.71,173.014 112.728,172.672 112.728,172.312 C112.728,170.674 111.99,169.882 110.586,169.882 C108.912,169.882 107.688,171.016 107.4,173.374 C107.364,173.698 107.346,174.04 107.346,174.382 C107.346,176.074 108.084,176.974 109.56,176.974 Z M119.28,178 L122.196,170.62 L123.078,178 L125.004,178 L129.036,168.748 L127.398,168.748 L124.302,176.308 L123.348,168.748 L121.602,168.748 L118.542,176.344 L117.498,168.748 L115.878,168.748 L117.318,178 L119.28,178 Z M132.024,171.322 C132.69,170.782 133.932,169.936 135.12,169.936 C136.128,169.936 136.56,170.548 136.362,171.916 L135.516,178 L137.154,178 L138.018,171.736 C138.306,169.612 137.406,168.568 135.606,168.568 C134.13,168.568 132.834,169.396 132.114,170.026 L132.096,170.026 L132.294,168.748 L130.746,168.748 L129.45,178 L131.088,178 L132.024,171.322 Z M141.924,176.83 C141.924,176.2 141.564,175.858 140.862,175.858 C139.944,175.858 139.44,176.344 139.44,177.244 C139.44,177.892 139.818,178.216 140.52,178.216 C141.438,178.216 141.924,177.73 141.924,176.83 Z" id="You-can-get-back-to" fill="#EA9A1A"></path>
                </g>
            </g>
        </g>
    </g>
</svg>