<?xml version="1.0" encoding="UTF-8"?>
<svg width="24px" height="20px" viewBox="0 0 24 20" version="1.1" xmlns="http://www.w3.org/2000/svg" xmlns:xlink="http://www.w3.org/1999/xlink">
    <!-- Generator: Sketch 43.2 (39069) - http://www.bohemiancoding.com/sketch -->
    <title>Group 2</title>
    <desc>Created with Sketch.</desc>
    <defs></defs>
    <g id="V1" stroke="none" stroke-width="1" fill="none" fill-rule="evenodd">
        <g id="12_01-Lobby-Copy" transform="translate(-1168.000000, -25.000000)" fill-rule="nonzero" fill="#FFFFFF">
            <g id="Group-2" transform="translate(1168.000000, 25.000000)">
                <path d="M18.9548796,8.7863545 L18.9548796,11.6153846 C18.9548796,12.0295982 19.290666,12.3653846 19.7048796,12.3653846 C20.1190932,12.3653846 20.4548796,12.0295982 20.4548796,11.6153846 L20.4548796,6.25 L15,6.25 C14.5857864,6.25 14.25,6.58578644 14.25,7 C14.25,7.41421356 14.5857864,7.75 15,7.75 L17.8693437,7.75 L14.4747865,11.0799869 C14.1790945,11.3700543 14.1745348,11.8449062 14.4646023,12.1405982 C14.7546697,12.4362902 15.2295215,12.4408498 15.5252135,12.1507824 L18.9548796,8.7863545 Z" id="Combined-Shape"></path>
                <path d="M1.5,17.6176471 L22.024398,17.6176471 L22.024398,1.5 L1.5,1.5 L1.5,17.6176471 Z M0,1.00093074 C0,0.448131957 0.448925044,0 0.995788439,0 L22.5286096,0 C23.0785684,0 23.524398,0.453717503 23.524398,1.00093074 L23.524398,18.1167163 C23.524398,18.6695151 23.075473,19.1176471 22.5286096,19.1176471 L0.995788439,19.1176471 C0.44582967,19.1176471 0,18.6639296 0,18.1167163 L0,1.00093074 Z" id="Rectangle-28-Copy-4"></path>
                <polygon id="Line-Copy-29" points="0.470541232 4.5 22.701417 4.5 22.701417 3 0.470541232 3"></polygon>
            </g>
        </g>
    </g>
</svg>