<svg xmlns="http://www.w3.org/2000/svg" width="234" height="31" viewBox="0 0 234 31">
    <g fill="none" fill-rule="evenodd">
        <path d="M0-1h234v32H0z"/>
        <path fill="#000" fill-rule="nonzero" d="M17.55 3.26c0-2.517-2.362-3.245-4.305-3.157v.398c1.181 0 2.086.43 2.086 1.213 0 .541-.386 1.236-1.567 1.236A17.665 17.665 0 0 1 9.56 1.924 15.28 15.28 0 0 0 5.144.821a4.195 4.195 0 0 0-4.36 4.16 2.902 2.902 0 0 0 1.964 2.758l.188-.309a1.313 1.313 0 0 1-.728-1.236 1.567 1.567 0 0 1 1.755-1.423c1.59.18 3.155.55 4.657 1.103a39.58 39.58 0 0 0 4.67 1.104v3.873l-1.943 1.6v.155l1.898 1.699v5.407a6.227 6.227 0 0 1-3.145.728 6.37 6.37 0 0 1-4.956-2.02l5.21-2.515V7.22l-6.391 2.813a7.56 7.56 0 0 1 3.366-3.597l-.1-.309C3.456 7.166 0 10.641 0 14.934a8.926 8.926 0 0 0 8.93 8.96 8.147 8.147 0 0 0 8.356-8.287h-.309a8.74 8.74 0 0 1-3.311 3.994v-5.296l2.064-1.633v-.188l-2.02-1.633V6.923a3.676 3.676 0 0 0 3.852-3.664h-.011zM6.512 17.327l-1.545.75a7.634 7.634 0 0 1-1.457-4.832c-.024-.923.1-1.843.364-2.726l2.66-1.18-.022 7.988zm13.466 2.814l-1.7 1.269.21.243.817-.574 2.848 2.604 3.819-2.549-.188-.265-.993.63-1.248-1.237v-8.717l1.038-.761 2.208 1.765v7.724c0 4.812-1.104 5.595-3.234 6.378v.342c3.598.144 6.832-1.103 6.832-7.238v-8.298l1.104-.905-.21-.276-.993.784-3.113-2.693-3.632 2.77V.622h-.264l-4.515 3.024v.275a1.82 1.82 0 0 1 1.214 1.976v14.245zm23.246-1.368L40.1 21.2l-3.234-2.549v-1.511l6.016-4.017v-.187L39.89 8.335l-6.567 3.52v8.342l-1.314 1.004.21.265 1.181-.938 4.305 3.123 5.75-4.535-.231-.342zm-6.358-2.119v-6.201l.21-.144 2.781 4.414-2.991 1.931zM67.551 2.112A3.475 3.475 0 0 0 67.33.93h-.299c-.397 1.103-.883 1.633-2.12 1.633a3.389 3.389 0 0 1-2.394-1.103l-3.654 4.16.298.276L60.2 4.716a4.261 4.261 0 0 0 3.112 1.203v10.593L55.873 3.623a4.04 4.04 0 0 0-3.311-2.427c-1.998 0-3.841 1.732-3.599 4.634h.365c.088-.783.474-1.633 1.357-1.633.734.116 1.36.593 1.667 1.27v4.148c-2.307 0-3.82 1.104-3.82 2.935a2.836 2.836 0 0 0 2.087 2.902v-.275a1.158 1.158 0 0 1-.42-.872c0-.695.508-1.104 1.447-1.104.225.003.45.025.673.067v5.384c-2.704 0-4.79 1.512-4.79 4.05s2.086 3.575 4.271 3.454v-.298c-1.358-.155-2.086-.795-2.086-1.666a1.622 1.622 0 0 1 1.788-1.666 3.566 3.566 0 0 1 2.583 1.313l3.664-4.094-.309-.265-.938 1.103a6.248 6.248 0 0 0-3.775-1.942V5.863L62.981 23.74h.729V5.92a3.918 3.918 0 0 0 3.84-3.807zm9.172 16.662L73.6 21.2l-3.234-2.538v-1.522l6.026-4.017v-.187L73.39 8.335l-6.568 3.52v8.342l-1.302 1.004.22.276 1.17-.938 4.305 3.112 5.751-4.535-.243-.342zm-6.357-2.119v-6.201l.21-.144 2.792 4.414-3.002 1.931zM97.54 9.703l-.938.696-2.417-2.03-2.815 2.548 1.104 1.104v9.589l-3.068-1.987v-7.8l1.004-.696-2.97-2.759-2.725 2.55 1.103 1.103v9.048l-.397.232-2.638-1.854v-7.658c0-1.755-.86-2.273-1.976-2.968-.938-.574-1.357-1.104-1.357-1.931 0-.828.717-1.104 1.103-1.369a1.456 1.456 0 0 1 0-.298c-.97 0-3.664 1.027-3.73 3.476-.022.96.432 1.87 1.214 2.428a2.924 2.924 0 0 1 1.214 2.207v7.349l-1.369 1.103.221.276 1.192-.993 3.311 2.637 3.18-2.152 3.51 2.152 6.754-3.94v-8.518l1.711-1.214-.22-.297v-.034zm23.577-6.995l-1.27 1.103L117 1.406l-4.14 3.111V1.593h-.43l.155 20.58c-.43-.056-1.49-.299-2.462-.453l-.143-17.203a3.012 3.012 0 0 0-3.179-3.023 3.698 3.698 0 0 0-3.841 3.575h.364c.122-.75.519-1.423 1.27-1.423.75 0 1.457.485 1.457 2.206v4.966c-2.296.066-3.665 1.423-3.665 2.968a2.339 2.339 0 0 0 2.086 2.604l.066-.309a.916.916 0 0 1-.673-.871c0-.729.695-1.027 1.667-1.027h.43v7.868a3.63 3.63 0 0 0-2.693 3.542 3.828 3.828 0 0 0 4.183 3.719 21.143 21.143 0 0 0 4.868-.673 25.394 25.394 0 0 1 3.631-.574c.972 0 1.391.452 1.391 1.158a1.214 1.214 0 0 1-.905 1.358v.298c2.097-.387 3.311-1.633 3.311-3.51 0-1.875-1.843-3.078-3.896-3.078a26.398 26.398 0 0 0-4.724.695c-1.343.303-2.71.495-4.084.574-.883 0-1.976-.43-1.976-1.611 0-1.18.883-1.898 3.058-1.898 1.339.023 2.671.193 3.973.508 1.379.4 2.796.656 4.228.761 1.854 0 3.52-.662 3.52-3.31V4.286l1.568-1.27-.298-.308zm-5.22 7.867a2.208 2.208 0 0 1-1.513.728 2.274 2.274 0 0 1-1.545-.728v-5.65l1.302-.882 1.755 1.578v4.954zm0 3.785a2.208 2.208 0 0 0-1.513-.629 2.484 2.484 0 0 0-1.545.629v-3.31c.425.389.97.622 1.545.662a2.208 2.208 0 0 0 1.512-.662v3.31zm0 5.937a1.942 1.942 0 0 1-2.032 2.019c-.21 0-.817 0-1.026-.055v-7.449c.412-.413.962-.66 1.545-.695a2.318 2.318 0 0 1 1.512.695v5.485zm17.373-9.027l-4.128-2.935-6.182 3.542v8.298l-1.269 1.026.188.265.993-.816 4.084 3.001 6.303-3.84.01-8.54zm-6.755 8.022v-9.07l3.212 2.295v9.07l-3.212-2.295zM145.4 8.677h-.243a1.8 1.8 0 0 1-1.104.508 1.987 1.987 0 0 1-1.423-.695h-.243l-2.153 2.361-2.207-2.361-3.742 2.648.177.298 1.004-.662 1.303 1.39v8.022l-1.7 1.27.22.242.817-.574 3.058 2.593 3.962-2.648-.187-.276-1.104.673-1.49-1.335v-8.993a3.312 3.312 0 0 0 2.274 1.302c1.7 0 2.638-1.876 2.814-3.807l-.033.044zm15.31 12.193l-4.327 2.836-5.872-8.827 4.139-6.445h.276a3.389 3.389 0 0 0 2.119.994 2.208 2.208 0 0 0 1.898-1.049h.243c-.143 2.571-1.876 4.017-3.179 4.017a4.416 4.416 0 0 1-2.66-1.026l-.397.573 6.358 9.413 1.269-.784.132.298zm-13.985-.728l-1.7 1.269.22.243.817-.574 2.837 2.604 3.82-2.549-.21-.265-.972.63-1.236-1.237V.623h-.276l-4.603 3.056v.275a1.799 1.799 0 0 1 1.303 1.932v14.256zM181.803 3.26c0-2.516-2.363-3.244-4.327-3.145v.387c1.18 0 2.086.43 2.086 1.213 0 .541-.397 1.236-1.579 1.236a17.775 17.775 0 0 1-4.205-1.026 15.136 15.136 0 0 0-4.415-1.103 4.195 4.195 0 0 0-4.36 4.116 2.902 2.902 0 0 0 1.965 2.758l.176-.309c-.46-.236-.74-.719-.717-1.236a1.567 1.567 0 0 1 1.755-1.423c1.59.185 3.154.555 4.658 1.103 1.527.467 3.083.836 4.658 1.104v3.917l-1.932 1.611v.144l1.932 1.699v5.418a7.198 7.198 0 0 1-8.135-1.302l5.199-2.516V7.22l-6.347 2.813a7.548 7.548 0 0 1 3.311-3.63l-.088-.309c-3.786 1.037-7.23 4.513-7.23 8.828a8.926 8.926 0 0 0 8.919 8.96 8.136 8.136 0 0 0 8.355-8.287h-.298a8.828 8.828 0 0 1-3.31 3.994v-5.285l2.052-1.633v-.188l-2.03-1.633V6.923a3.665 3.665 0 0 0 3.84-3.664h.067zm-11.038 14.07l-1.545.75a7.723 7.723 0 0 1-1.446-4.833 9.046 9.046 0 0 1 .353-2.726l2.67-1.18v7.988h-.032zm15.453-15.25h-.188l-2.539 2.207v.176l2.153 2.428h.21l2.538-2.119v-.154l-2.207-2.45.033-.088zm3.874 18.758l-.971.63-1.237-1.237v-8.739l1.203-.916-.342-.298-.938.729-2.207-2.638-3.588 2.55.21.33.916-.607 1.104 1.39v8.232l-1.634 1.236.177.243.85-.607 2.781 2.538 3.82-2.538-.144-.298zm21.181-.154l-.905.607-1.424-1.214v-8.618l1.303-.971-.21-.276-1.104.85-2.914-2.693-3.752 2.66-2.87-2.66-3.698 2.638-2.207-2.638-3.643 2.55.177.33.905-.607L192.178 12v8.231l-1.004.993 2.914 2.45 2.814-2.538-1.159-1.103v-8.574l1.104-.728 1.965 1.82v7.724l-.96 1.005 2.935 2.45 2.749-2.55-1.104-1.103v-8.684l.971-.63 2.087 1.788v7.559l-.85.883 2.87 2.692 3.896-2.615-.133-.386zm11.038-1.942l-3.124 2.427-3.234-2.538v-1.49l6.027-4.016v-.187l-3.002-4.602-6.568 3.52v8.618l4.415 3.178 5.75-4.535-.264-.375zm-6.402-2.086v-6.201l.21-.144 2.792 4.414-3.002 1.931zm17.98-1.103l-2.45-1.843a6.454 6.454 0 0 0 2.208-4.635v-.816h-.31a1.689 1.689 0 0 1-1.721 1.236 3.025 3.025 0 0 1-2.263-1.203l-5.728 3.068v4.634l2.119 1.666c-2.142 1.898-2.539 3.233-2.539 4.204a2.582 2.582 0 0 0 1.667 2.605l.143-.276c-.33-.211-.522-.58-.507-.971 0-.42.507-1.027 1.479-1.027a3.18 3.18 0 0 1 2.395 1.303l5.519-3.31-.011-4.635zm-1.368-3.818a15.693 15.693 0 0 1-3.896 3.818l-1.391-1.104V9.935a3.752 3.752 0 0 0 5.287 1.755v.044zm-2.208 10.107a4.15 4.15 0 0 0-3.631-2.45 4.493 4.493 0 0 0-2.395.608 14.226 14.226 0 0 1 4.415-4.083l1.578 1.214.033 4.711z"/>
    </g>
</svg>
