<svg xmlns="http://www.w3.org/2000/svg" width="137" height="32" viewBox="0 0 137 32">
    <path fill="#000" fill-rule="nonzero" d="M31.922 30.836c0 .68-.58 1.164-1.16 1.164H1.16C.58 32 0 31.418 0 30.836V1.164C0 .582.58 0 1.16 0h29.505c.677 0 1.257.582 1.257 1.164v29.672zM5.32 25.697l15.768-7.66s.58-.389.58-.68c0-.29-.193-.484-.193-.484l-2.418-2.134s-.194-.194-.194-.387c0-.194.194-.485.194-.485l7.448-8.049-15.187 8.146s-.58.388-.58.678c0 .291.193.485.193.485l2.418 2.134s.194.194.194.387c0 .194-.194.485-.194.485L5.32 25.697zm33.954-.97V7.08h13.253v3.394h-9.383v3.588h8.222v3.394h-8.222v3.684h9.48v3.394h-13.35v.194zm24.57 0v-1.94c-.967 1.261-2.224 2.231-4.159 2.231-3.095 0-6.094-2.424-6.094-6.982v-.097c0-4.46 2.902-6.981 6.094-6.981 2.032 0 3.29.97 4.16 2.036V6.303h3.869V24.63h-3.87v.097zm.097-6.788c0-2.23-1.45-3.684-3.289-3.684-1.74 0-3.289 1.454-3.289 3.684v.097c0 2.23 1.548 3.685 3.29 3.685 1.837 0 3.288-1.551 3.288-3.782zm12.48 6.982c-2.613 0-5.321-.97-7.45-2.812l2.322-2.715c1.548 1.26 3.192 2.133 5.224 2.133 1.548 0 2.515-.582 2.515-1.648v-.097c0-.97-.58-1.455-3.58-2.23-3.578-.873-5.803-1.843-5.803-5.334v-.097c0-3.2 2.515-5.333 6.094-5.333 2.515 0 4.74.776 6.481 2.23l-2.031 2.91c-1.548-1.067-3.096-1.746-4.547-1.746-1.45 0-2.225.679-2.225 1.551v.097c0 1.164.774 1.552 3.773 2.328 3.58.97 5.514 2.23 5.514 5.236v.097c.193 3.49-2.515 5.43-6.288 5.43zm16.54-.194v-1.94c-.87 1.165-2.03 2.134-3.965 2.134-2.902 0-4.547-1.94-4.547-5.042v-8.727h3.773v7.466c0 1.843.87 2.715 2.321 2.715s2.419-.97 2.419-2.715v-7.466h3.772V24.63h-3.772v.097zm14.124-9.794c-2.515 0-4.063 1.552-4.063 4.752v4.945H99.25V11.248h3.773v2.716c.774-1.843 2.031-3.103 4.256-3.006v3.975h-.193zm7.352 13.77c-2.225 0-4.257-.485-5.901-1.455l1.257-2.909c1.355.776 2.709 1.261 4.547 1.261 2.612 0 3.87-1.26 3.87-3.685v-.679c-1.161 1.358-2.322 2.23-4.354 2.23-3.095 0-5.997-2.327-5.997-6.302v-.097c0-3.976 2.902-6.303 5.997-6.303 2.032 0 3.29.872 4.353 2.036v-1.745h3.773V21.43c-.097 5.237-2.515 7.273-7.545 7.273zm3.772-11.442c0-1.843-1.45-3.103-3.289-3.103-1.838 0-3.289 1.26-3.289 3.103v.097c0 1.842 1.451 3.103 3.29 3.103 1.837 0 3.288-1.358 3.288-3.2zm18.573 2.036H127.4c.387 1.745 1.548 2.618 3.29 2.618 1.257 0 2.224-.388 3.288-1.357l2.225 1.939c-1.258 1.551-3.096 2.521-5.514 2.521-4.063 0-7.062-2.812-7.062-6.982v-.097c0-3.878 2.709-6.981 6.675-6.981 4.45 0 6.578 3.49 6.578 7.272v.097c0 .388 0 .582-.097.97zm-6.48-5.236c-1.549 0-2.613 1.163-2.903 2.909h5.707c-.193-1.746-1.16-2.91-2.805-2.91z"/>
</svg>
