<svg xmlns="http://www.w3.org/2000/svg" width="50" height="24" viewBox="0 0 50 24">
    <path fill="#000" fill-rule="nonzero" d="M22.958.372h.709l.083-.33h-8.917l-.083.33h1.292c1.125 0 2.041.787 2.041 2.318 0 .869-.375 1.986-1 3.351l-5.791 12.704-1.417-16.51c-.125-1.283.542-1.863 2-1.863h.833l.084-.33H.208l-.125.33h.792c1 0 1.375.621 1.458 1.78l2.25 21.351h5.292L18.75 4.841C20.125 2.07 21.542.372 22.958.372zm-1.041 23.214c-.792 0-1.292-.248-1.292-1.572 0-1.655.625-4.924 1.292-7.904.083 1.366 1.041 2.731 2.458 2.731.333 0 .625-.041.917-.082-1.334 5.669-1.834 6.827-3.375 6.827zm25.25-11.214c1.666 0 2.75-1.365 2.75-2.938 0-1.324-.959-2.317-2.334-2.317-2.458 0-3.625 1.945-5.666 5.504-.417-2.235-1.459-5.131-4.042-5.131-2.917 0-6.292 4.138-9.375 6.703-1.417 1.2-2.958 1.945-4.208 1.945-1.292 0-2.042-1.283-2.042-3.559.917-3.724 1.375-4.676 2.792-4.676.958 0 1.375.538 1.375 1.656 0 1.2-.25 3.186-.792 5.71 1.375-.414 3.458-2.152 5.208-4.014-.916-2.193-2.916-3.683-5.75-3.683-5.291 0-9.958 4.718-9.958 10.014 0 3.642 2.625 6.414 6.708 6.414 6.75 0 9.584-5.793 9.584-9.848 0-.58-.042-.993-.084-1.531 1.042-1.118 2.375-2.193 3.459-2.193 1.25 0 2.25 3.103 3.208 7.779-.875.952-1.75 2.772-2.167 3.103-.166-1.655-1.291-2.69-2.75-2.69-1.666 0-2.791 1.573-2.791 2.897 0 1.49 1.041 2.483 2.416 2.483 2.875 0 3.667-2.69 5.459-5.09C38.708 21.476 40 24 42.208 24c2.625 0 5.042-2.234 6.292-3.807l-.25-.372c-.792.786-1.583 1.282-2.5 1.282-1.625 0-2.792-3.475-3.667-7.696.542-.704 1.375-2.524 1.959-3.186.375.745 1.208 2.151 3.125 2.151z"/>
</svg>
