<svg xmlns="http://www.w3.org/2000/svg" width="142" height="21" viewBox="0 0 142 21">
    <g fill="none" fill-rule="evenodd">
        <path d="M0 0h142v20.512H0z"/>
        <path fill="#000" fill-rule="nonzero" d="M124.912 2.686c0-1.416.433-1.905 1.155-1.905s1.3.293 1.974 1.905l4.091 9.426v5.958c0 1.416-.577 1.807-2.166 2.002v.39h7.557v-.39c-1.636-.195-2.166-.635-2.166-2.002v-5.958l3.947-9.084c.77-1.758 1.54-2.149 2.696-2.344V.293h-5.536v.39c1.878.196 2.552.733 2.022 2.003l-3.466 8.058-3.562-8.253c-.481-1.124-.192-1.465 1.878-1.758V.342h-11.89v.39c1.877.294 2.455.635 2.455 2.003v11.037L115.188.342h-4.284v.39c1.396.196 1.83.635 1.83 2.003v15.384c0 1.416-.386 1.904-.867 1.904-.433 0-.674-.195-1.3-1.904L104.117.244h-.385l-6.21 17.093c-.673 1.905-1.732 2.54-2.791 2.784v.39h5.68v-.39c-1.974-.195-2.6-.977-2.166-2.247l1.396-3.907h5.872l1.348 3.663c.578 1.66.24 2.15-1.444 2.442v.39h10.782v-.39c-1.877-.293-2.455-.635-2.455-2.002V4.298l10.542 16.214h.626V2.686zm-76.006 7.667c0-6.25 2.936-9.523 6.354-9.523 2.021 0 3.321.44 4.091 1.27.578.586 1.011 1.416 1.492 2.735h.385v-4.2C59.255.245 57.474 0 55.693 0c-5.15 0-10.494 3.37-10.494 10.353 0 6.984 5.343 10.354 10.157 10.354 2.118 0 3.995-.342 5.776-.88l.578-3.955-.337-.098a10.46 10.46 0 0 1-1.54 2.198 6.52 6.52 0 0 1-4.621 1.954c-3.274-.05-6.306-3.224-6.306-9.573zm42.696.587c-.433 0-1.01-.05-1.588-.147V1.026h1.588c2.647 0 3.803 1.416 3.803 4.932 0 3.565-1.204 4.982-3.803 4.982zM29.748.293v4.835h.385c.578-3.077 1.78-4.054 3.803-4.054h.962V18.07c0 1.416-.577 1.807-2.166 2.002v.39h7.557v-.39c-1.636-.195-2.166-.635-2.166-2.002V1.026h.963c2.022 0 3.225.976 3.803 4.053h.385V.244H29.748v.049zM23.73 20.707c3.273 0 6.739-1.905 6.739-5.812 0-2.295-1.204-4.2-3.322-5.372l-3.754-2.1C21.42 6.3 20.843 5.274 20.843 3.81c0-1.66 1.203-2.979 3.465-2.979 1.108 0 1.926.293 2.6.928.577.586 1.155 1.563 1.685 3.321h.336V.635A15.312 15.312 0 0 0 24.55 0c-3.225 0-5.632 2.051-5.632 5.519 0 2.197 1.204 4.2 3.177 5.372l3.466 1.953c1.974 1.123 2.6 2.198 2.6 3.81 0 1.904-1.926 3.272-4.044 3.272-1.396 0-2.551-.489-3.37-1.319-.53-.537-1.107-1.367-1.492-2.442h2.263v-.39c-.626-.147-1.011-.245-1.54-1.515l-4.43-10.695h-.384L10.83 14.016c-.578 1.417-.963 1.66-1.637 1.758v.391h3.85v-.39c-1.395-.147-1.78-.83-1.443-1.71l.674-1.66h3.899l.866 2.05c.385.929-.193 1.173-1.588 1.27v.391h3.08v3.858c1.54.44 3.514.733 5.199.733zm48.906-.195l5.728-16.165.433 13.772c.048 1.367-.481 1.758-2.118 1.953v.39h15.788v-.39c-1.877-.293-2.454-.635-2.454-2.002v-6.496c.625.098 1.251.147 1.732.147 3.803 0 7.076-1.416 7.076-5.714S95.55.293 91.746.293H84.96v.39c1.396.196 1.83.636 1.83 2.003V18.07c0 1.416-.578 2.002-2.167 2.002h-.048c-1.685 0-2.407-.635-2.455-1.953l-.577-15.384c-.048-1.416.433-1.856 1.925-2.051V.293h-4.669l-5.102 14.505L68.593.293h-5.006v.39c1.492.196 1.974.684 1.926 2.052l-.53 14.749c-.048 1.465-.818 2.344-2.214 2.588v.39h5.295v-.39c-1.348-.195-2.118-1.074-2.07-2.588l.433-13.43 5.825 16.409.385.049zm-15.356-4.25c2.552 0 5.825-2.295 5.825-5.909 0-3.565-3.225-5.909-5.825-5.909-2.55 0-5.824 2.296-5.824 5.91 0 3.565 3.225 5.909 5.824 5.909zm0-10.988c1.637 0 2.744 1.368 2.744 5.08 0 3.76-1.155 5.079-2.744 5.079-1.636 0-2.743-1.368-2.743-5.08 0-3.76 1.107-5.079 2.743-5.079zm47.992 7.863h-5.344l2.648-7.423 2.696 7.423zm-89.34-1.514H12.66l1.636-4.053 1.637 4.053zM9.675 12.65h.385V6.593h-.385C9.05 8.742 8.424 9.23 7.268 9.23H5.054V1.026h3.514c2.022 0 3.225.976 3.803 4.053h.385V.244H0v.39c1.396.196 1.83.636 1.83 2.003v15.384c0 1.416-.434 1.807-1.83 2.002v.391h7.51v-.39c-1.878-.294-2.456-.636-2.456-2.003V9.963h2.214c1.108.049 1.781.537 2.407 2.686z"/>
    </g>
</svg>
