<svg xmlns="http://www.w3.org/2000/svg" width="138" height="20" viewBox="0 0 138 20">
    <g fill="#000" fill-rule="evenodd">
        <path d="M25.93 6.868h12.856V.33H25.931zM.22.331v6.537h6.427V19.94h6.428V6.868h6.427V.33H.22M19.502 19.94h19.284v-6.537H25.931V6.868h-6.429V19.94M55.169 5.274h-9.443V7.99h3.158v8.533h3.127V7.99h3.158V5.274M58.73 7.909c-2.223 0-3.867 1.495-3.867 4.403 0 2.588 1.402 4.388 3.948 4.388 1.322 0 2.401-.354 3.449-.964l-1.112-1.848c-.838.433-1.45.594-2.191.594-.79 0-1.338-.418-1.435-1.35h4.963a5.47 5.47 0 0 0 .017-.562c0-3.134-1.45-4.661-3.771-4.661zm-1.208 3.423c.097-.835.467-1.285 1.128-1.285.854 0 1.145.434 1.29 1.285h-2.418zM67.996 14.354c-.789 0-1.192-.692-1.192-2.025 0-1.334.371-2.073 1.113-2.073.627 0 .902.353 1.305 1.093l1.997-1.511c-.74-1.19-1.66-1.929-3.255-1.929-2.707 0-4.028 1.784-4.028 4.371 0 2.845 1.482 4.42 3.964 4.42 1.499 0 2.417-.562 3.4-2.009l-1.837-1.43c-.532.788-.919 1.093-1.467 1.093M77.988 7.909c-1 0-1.596.338-2.128.74v-3.84l-2.9 1.156v10.558h2.9v-4.821c0-1.06.371-1.35.984-1.35.596 0 .967.29.967 1.382v4.79h2.917v-5.16c0-2.217-.887-3.455-2.74-3.455M87.721 13.984c-1.354 0-1.901-1.366-1.901-3.085 0-1.784.563-3.086 1.87-3.086 1.03 0 1.417.659 1.82 1.703l2.836-1.108c-.773-2.122-1.87-3.31-4.641-3.31-3.03 0-5.157 2.184-5.157 5.8 0 3.327 1.79 5.802 5.141 5.802 2.675 0 3.932-1.43 4.69-2.909l-2.644-1.398c-.612 1.06-1.03 1.59-2.014 1.59M97.035 8.697v-.611h-2.9v8.437h2.9v-4.596c0-1.028.435-1.366 1.144-1.366.565 0 .983.305 1.354.707l.677-3.005c-.339-.21-.758-.354-1.37-.354-.74 0-1.305.306-1.805.788M106.446 12.908c0 1.06-.37 1.35-.966 1.35-.597 0-.967-.29-.967-1.383v-4.79h-2.917v5.16c0 2.218.886 3.455 2.74 3.455.983 0 1.595-.338 2.11-.739v.562h2.917V8.086h-2.917v4.822M116.502 7.909c-.999 0-1.595.338-2.127.74v-.563h-2.901v8.437h2.9v-4.821c0-1.06.372-1.35.984-1.35.596 0 .966.29.966 1.382v4.79h2.918v-5.16c0-2.217-.887-3.455-2.74-3.455M125.01 14.354c-.789 0-1.192-.692-1.192-2.025 0-1.334.37-2.073 1.112-2.073.629 0 .903.353 1.306 1.093l1.998-1.511c-.742-1.19-1.66-1.929-3.255-1.929-2.708 0-4.03 1.784-4.03 4.371 0 2.845 1.483 4.42 3.965 4.42 1.499 0 2.418-.562 3.4-2.009l-1.837-1.43c-.531.788-.918 1.093-1.466 1.093M135.002 7.909c-1 0-1.596.338-2.127.74v-3.84l-2.901 1.156v10.558h2.9v-4.821c0-1.06.371-1.35.984-1.35.596 0 .967.29.967 1.382v4.79h2.916v-5.16c0-2.217-.886-3.455-2.74-3.455"/>
    </g>
</svg>
