<svg xmlns="http://www.w3.org/2000/svg" width="210" height="24" viewBox="0 0 210 24">
    <g fill="none" fill-rule="evenodd">
        <path d="M0-4h210v32H0z"/>
        <g fill="#000" fill-rule="nonzero">
            <path d="M4.46 23.926A4.457 4.457 0 0 1 0 19.473a4.457 4.457 0 0 1 4.46-4.453c.9 0 1.738.266 2.438.723l12.152 8.183H4.46zm1.233-10.021a4.448 4.448 0 0 1-1.31-6.157 4.458 4.458 0 0 1 7.811.623l6.21 14.148-12.71-8.614zM37.904 23.93a4.464 4.464 0 0 0 4.471-4.458 4.464 4.464 0 0 0-4.47-4.457c-.902 0-1.742.266-2.444.724L23.28 23.93h14.623zm-1.232-10.025a4.45 4.45 0 0 0 1.313-6.163 4.471 4.471 0 0 0-7.829.623l-6.224 14.162 12.74-8.622zM22.955 5.527c-.319.246-1.192.38-1.002 1.934l1.885 13.179 6.288-14.366A4.453 4.453 0 0 0 27.86.387a4.48 4.48 0 0 0-5.908 2.26 4.428 4.428 0 0 0-.358 2.318l1.185-.002c.671.033 1.025.211.177.564zm-10.72.75A4.451 4.451 0 0 1 14.498.396a4.47 4.47 0 0 1 5.895 2.257c.354.79.469 1.665.33 2.52L18.51 20.63 12.235 6.277zM60.78 1.7h5.201v21.02H61.45l-9.08-12.45v12.45h-5.217V1.7h5.412l8.217 11.65V1.7zm13.907 4.497v3.846h4.01c.913 0 1.593-.18 2.038-.538.446-.358.669-.804.669-1.336 0-1.314-.902-1.972-2.706-1.972h-4.01zm4.516 8.082h-4.516v3.895h4.549c1.89 0 2.836-.641 2.836-1.923 0-.598-.239-1.075-.717-1.434-.478-.358-1.196-.538-2.152-.538zm8.706 2.673c0 1.825-.685 3.242-2.055 4.252-1.369 1.01-3.276 1.516-5.722 1.516H69.177V1.7H79.43c2.63 0 4.598.51 5.902 1.532 1.304 1.02 1.95 2.444 1.94 4.269 0 1.151-.337 2.113-1.011 2.884-.674.771-1.581 1.244-2.723 1.418 1.316.271 2.375.841 3.18 1.71.804.87 1.2 2.016 1.19 3.439zm4.532 3.128c-2.044-2.042-3.065-4.665-3.065-7.87s1.021-5.823 3.065-7.854c2.043-2.031 4.613-3.047 7.71-3.047 3.098 0 5.538.864 7.32 2.59 1.783 1.739 2.772 3.988 2.968 6.747l-5.445.195c-.196-1.336-.68-2.422-1.451-3.259-.772-.836-1.918-1.254-3.44-1.254s-2.717.532-3.587 1.597c-.87 1.064-1.304 2.493-1.304 4.285 0 1.803.435 3.232 1.304 4.285.87 1.054 2.065 1.58 3.587 1.58 1.522-.01 2.668-.428 3.44-1.254.772-.825 1.255-1.906 1.45-3.242l5.446.228c-.196 2.759-1.185 5.002-2.967 6.73-1.783 1.727-4.223 2.59-7.32 2.59-3.098.011-5.668-1.005-7.711-3.047zm31.415-12.14v14.78h-5.217V1.7h8.787l3.098 13.215h.114L133.605 1.7h8.575v21.02h-5.673V7.94h-.13l-3.783 14.78h-4.842l-3.765-14.78h-.13zm21.52-6.24h5.673v21.02h-5.673V1.7zm18.585 6.502l-2.397 6.208h4.94l-2.413-6.208h-.13zM161.026 1.7h6.342l8.38 21.02h-6.032l-1.582-4.074h-8.216l-1.565 4.074h-5.706l8.38-21.02zm21.536 6.24v14.78h-5.217V1.7h8.788l3.097 13.215h.114L192.311 1.7h8.575v21.02h-5.673V7.94h-.13L191.3 22.72h-4.841l-3.766-14.78h-.13zm21.52-6.24h5.673v21.02h-5.673V1.7z"/>
        </g>
    </g>
</svg>
