<svg xmlns="http://www.w3.org/2000/svg" width="232" height="24" viewBox="0 0 232 24">
    <g fill="none" fill-rule="evenodd">
        <path d="M0-4h232v32H0z"/>
        <path fill="#000" fill-rule="nonzero" d="M.065 1.493V0h19.533l.454 8.307H18.69c-.54-3.072-1.351-4.976-2.433-5.711-1.082-.736-3.104-1.103-6.068-1.103L9.54 1.46c-.822.022-1.427.087-1.817.195-.389.108-.584.476-.584 1.103v7.788h1.168c1.406.022 2.456-.308 3.148-.99.692-.681 1.081-1.822 1.168-3.423l1.46-.032v10.675h-1.46c0-1.427-.298-2.569-.892-3.423-.595-.855-1.53-1.282-2.807-1.282l-1.785-.032v8.696c0 .13.006.227.017.292.01.065.027.12.048.163a.574.574 0 0 0 .098.178c.043.054.097.124.162.21.195.13.395.206.6.228l.633.065h.26c.345.065.692.103 1.038.114.346.01.692.016 1.038.016.433 0 .87-.006 1.314-.016.444-.011.892-.06 1.347-.146 1.752-.174 2.974-.79 3.666-1.85.692-1.06 1.222-2.358 1.59-3.894.022-.065.038-.13.049-.195.01-.065.027-.13.048-.194.022-.13.05-.27.082-.422.032-.152.07-.314.113-.487l1.33-.032-.616 8.664H0v-1.46h.973a.612.612 0 0 0 .39 0h.276c.097 0 .2-.011.308-.033a3.07 3.07 0 0 0 .99-.227c.313-.13.513-.379.6-.747.021-.108.038-.221.048-.34.011-.12.017-.244.017-.373V3.148a3.77 3.77 0 0 0-.017-.341 3.77 3.77 0 0 1-.016-.34c-.043-.325-.157-.547-.34-.666-.184-.119-.428-.19-.73-.211-.412-.043-.817-.07-1.217-.081-.4-.01-.806-.016-1.217-.016zM21.017 7.18V6.1h7.92c1.84.016 3.428.288 4.764.816 1.336.528 2.412 1.688 3.228 3.48.112.256.216.508.312.756s.176.5.24.756c.128.496.22.996.276 1.5.056.504.084 1.036.084 1.596 0 .208-.008.424-.024.648l-.048.648a10.042 10.042 0 0 1-1.332 3.828 6.063 6.063 0 0 1-3.012 2.604c-.4.16-.768.288-1.104.384a7.556 7.556 0 0 1-1.008.216c-.384.048-.784.076-1.2.084-.416.008-.872.012-1.368.012H20.97v-1.08h.768c.112.016.224.02.336.012.112-.008.224-.012.336-.012.096 0 .2-.004.312-.012.112-.008.224-.012.336-.012a2.402 2.402 0 0 0 .24-.096.15.15 0 0 1 .06-.036.15.15 0 0 0 .06-.036c.096-.16.16-.332.192-.516s.056-.372.072-.564c0-.064-.004-.128-.012-.192a1.376 1.376 0 0 1-.012-.168V9.053a.839.839 0 0 0 .024-.204v-.204c0-.208-.016-.412-.048-.612s-.104-.38-.216-.54a4.968 4.968 0 0 1-.192-.12.258.258 0 0 0-.144-.048.42.42 0 0 0-.132-.024.42.42 0 0 1-.132-.024h-.144l-1.656-.096zm5.256 1.524v12.66c0 .272.028.472.084.6.056.128.204.232.444.312.096.032.24.056.432.072.192.016.384.024.576.024h1.476c.184 0 .364-.008.54-.024.208 0 .416-.012.624-.036a9 9 0 0 0 .576-.084c.64-.128 1.152-.34 1.536-.636.384-.296.744-.716 1.08-1.26a5.5 5.5 0 0 0 .708-1.644c.152-.6.252-1.204.3-1.812.048-.384.076-.764.084-1.14.008-.376.012-.74.012-1.092 0-.288-.004-.564-.012-.828a9.288 9.288 0 0 0-.06-.804 65.57 65.57 0 0 0-.096-.816c-.144-.992-.392-1.864-.744-2.616s-1.008-1.344-1.968-1.776a5.263 5.263 0 0 0-1.644-.492 13.825 13.825 0 0 0-1.74-.108h-.372c-.152 0-.316.008-.492.024-.192 0-.376.008-.552.024-.176.016-.304.04-.384.072-.144.064-.236.148-.276.252-.04.104-.076.22-.108.348a.577.577 0 0 0-.024.18v.6-.012.024-.012zM37.64 7.18V6.1h8.016v1.08c-.16.032-.324.052-.492.06-.168.008-.34.012-.516.012a3.466 3.466 0 0 0-.576.048 3.77 3.77 0 0 0-.6.048.197.197 0 0 0-.06.012.266.266 0 0 1-.084.012.87.87 0 0 0-.276.156.319.319 0 0 0-.132.252v9.6c0 .752.056 1.472.168 2.16.112.688.464 1.296 1.056 1.824.544.48 1.108.8 1.692.96a7.3 7.3 0 0 0 1.932.24h.144A5.023 5.023 0 0 0 50.119 22a3.97 3.97 0 0 0 1.656-1.572c.112-.176.212-.392.3-.648s.164-.52.228-.792a5.79 5.79 0 0 0 .108-.612c.024-.2.036-.38.036-.54v-7.68c0-1.072-.18-1.816-.54-2.232-.36-.416-1.116-.656-2.268-.72V6.1h6.768v1.08c-1.36.032-2.156.408-2.388 1.128-.232.72-.348 1.624-.348 2.712v5.232c0 .992-.068 1.964-.204 2.916-.136.952-.548 1.836-1.236 2.652a4.692 4.692 0 0 1-2.028 1.44 8.578 8.578 0 0 1-2.46.504 2.373 2.373 0 0 1-.336.024h-.336c-.224 0-.448-.004-.672-.012a5.567 5.567 0 0 1-.648-.06 77.3 77.3 0 0 0-.444-.048c-.152-.016-.3-.04-.444-.072a8.386 8.386 0 0 1-1.644-.48 4.702 4.702 0 0 1-1.404-.912c-.16-.16-.308-.316-.444-.468a3.994 3.994 0 0 1-.348-.444 3.372 3.372 0 0 1-.564-1.14 5.418 5.418 0 0 1-.156-1.38V8.237c0-.16-.012-.312-.036-.456-.024-.144-.132-.272-.324-.384a1.28 1.28 0 0 0-.36-.108 8.003 8.003 0 0 0-.432-.06h-.264c-.08 0-.16-.008-.24-.024h-.24l-.768-.024zm30.33.216l.984-1.512h.888l.336 6.936-1.032.048a2.78 2.78 0 0 0-.06-.204 1.897 1.897 0 0 1-.06-.228c-.096-.288-.188-.58-.276-.876a11.302 11.302 0 0 0-.3-.876 33.695 33.695 0 0 1-.132-.312 4.601 4.601 0 0 0-.132-.288 8.461 8.461 0 0 0-.516-1.008 4.307 4.307 0 0 0-.732-.888 2.157 2.157 0 0 0-.144-.132 2.157 2.157 0 0 1-.144-.132c-.432-.368-.9-.64-1.404-.816a4.806 4.806 0 0 0-1.596-.264c-.944 0-1.776.264-2.496.792a4.755 4.755 0 0 0-1.608 2.088 7.17 7.17 0 0 0-.348 1.008c-.088.336-.164.664-.228.984a12.1 12.1 0 0 0-.216 1.704 32.48 32.48 0 0 0-.048 1.8v.696c.064 1.696.448 3.256 1.152 4.68s2.088 2.136 4.152 2.136c1.664 0 2.924-.516 3.78-1.548.856-1.032 1.404-2.308 1.644-3.828l1.104.168c-.272 1.952-.988 3.484-2.148 4.596-1.16 1.112-2.74 1.668-4.74 1.668-2.416 0-4.364-.852-5.844-2.556-1.48-1.704-2.22-3.716-2.22-6.036 0-1.184.16-2.32.48-3.408a8.228 8.228 0 0 1 1.632-3c.768-.944 1.64-1.684 2.616-2.22.976-.536 2.08-.804 3.312-.804h.204c.072 0 .14.008.204.024a6.543 6.543 0 0 1 2.136.456 5.24 5.24 0 0 1 1.8 1.176v-.024zm4.454 13.08L78.23 5.74h.936l6.36 15.552c.208.512.448.816.72.912.272.096.624.144 1.056.144a.532.532 0 0 0 .168.024h.192v1.056h-7.368v-1.08c.08.016.156.024.228.024h.228a.238.238 0 0 1 .108-.024h.108c.224 0 .452-.008.684-.024.232-.016.452-.048.66-.096h.072a.756.756 0 0 0 .288-.192.46.46 0 0 0 .144-.336.992.992 0 0 0-.012-.132.373.373 0 0 0-.06-.156.167.167 0 0 0-.012-.072.107.107 0 0 1-.012-.048l-1.416-3.504h-6.48l-.132.348a9.29 9.29 0 0 1-.132.324c-.08.208-.156.42-.228.636-.072.216-.148.436-.228.66-.048.112-.088.22-.12.324a13.56 13.56 0 0 1-.096.3l-.048.288a2.067 2.067 0 0 0-.024.336c0 .48.168.812.504.996a2.76 2.76 0 0 0 1.128.324 8.127 8.127 0 0 0 .816.048v1.056h-6.336v-1.08c.656 0 1.18-.16 1.572-.48.392-.32.7-.776.924-1.368v-.024zm2.856-3.912h5.568l-2.832-7.056-2.736 7.056zm11.274-3.84h-.936L86.05 6.1h14.28l.384 6.696h-.96a7.282 7.282 0 0 1-.084-.444 11.663 11.663 0 0 0-.084-.468 16.58 16.58 0 0 0-.348-1.38 8.724 8.724 0 0 0-.492-1.284 3.471 3.471 0 0 0-1.248-1.476c-.544-.36-1.168-.54-1.872-.54h-.144a.453.453 0 0 0-.144.024c-.176.016-.336.06-.48.132a.747.747 0 0 0-.336.348c-.016.112-.028.24-.036.384a7.786 7.786 0 0 0-.012.432v12.432c0 .048-.004.104-.012.168a.52.52 0 0 0 .012.192c0 .176.028.344.084.504.056.16.164.28.324.36.24.112.484.176.732.192.248.016.5.016.756 0h.336l.6-.024v1.08H88.93v-1.08l1.776-.072a.453.453 0 0 0 .144.024h.144a4.97 4.97 0 0 0 .3-.06.946.946 0 0 0 .276-.108.718.718 0 0 0 .228-.348c.04-.136.06-.284.06-.444V8.045c0-.064-.004-.124-.012-.18a.637.637 0 0 0-.348-.504 1.3 1.3 0 0 0-.456-.132.789.789 0 0 0-.192-.024h-.192c-.656 0-1.232.156-1.728.468-.496.312-.912.74-1.248 1.284-.16.224-.296.492-.408.804a9.141 9.141 0 0 0-.288.972 5.128 5.128 0 0 0-.156.576c-.04.192-.076.376-.108.552a4.69 4.69 0 0 0-.048.216 4.69 4.69 0 0 1-.048.216c-.016.08-.028.156-.036.228-.008.072-.02.148-.036.228v-.024zm22.281 10.704h-7.896v-1.08a.892.892 0 0 0 .216.024h.264c.08 0 .16-.004.24-.012.08-.008.168-.012.264-.012.208 0 .408-.008.6-.024s.344-.048.456-.096c.32-.128.504-.284.552-.468a3 3 0 0 0 .072-.732V8.405a3.77 3.77 0 0 0-.012-.312 1.232 1.232 0 0 0-.06-.288.88.88 0 0 0-.072-.156.738.738 0 0 0-.12-.156 1.453 1.453 0 0 0-.708-.252 5.095 5.095 0 0 0-.78-.012h-.66c-.072 0-.148-.008-.228-.024V6.1h7.92v1.08c-.32.016-.644.028-.972.036-.328.008-.652.028-.972.06a1.25 1.25 0 0 0-.372.168c-.088.064-.172.16-.252.288a.107.107 0 0 1-.012.048.188.188 0 0 1-.036.048 6.064 6.064 0 0 0-.048.792v12.852c0 .072.008.148.024.228a.188.188 0 0 1 .036.048.107.107 0 0 1 .012.048l.024.024c.016.048.04.092.072.132.032.04.064.076.096.108.208.16.444.252.708.276.264.024.532.028.804.012h.636c.072 0 .14.008.204.024v1.056zm16.838-8.652c0 .476-.045.964-.132 1.464-.088.504-.22 1.02-.396 1.548-.512 1.504-1.404 2.88-2.676 4.128-1.272 1.248-2.948 1.872-5.028 1.872-2.496 0-4.5-.92-6.012-2.76-1.512-1.84-2.268-3.92-2.268-6.24 0-.464.044-.948.132-1.452.088-.504.22-1.02.396-1.548.512-1.504 1.404-2.884 2.676-4.14 1.272-1.256 2.948-1.884 5.028-1.884 2.496 0 4.5.924 6.012 2.772 1.51 1.844 2.265 3.924 2.268 6.24zm-3.072-.012c0-.416-.016-.924-.048-1.524s-.12-1.22-.264-1.86a7.72 7.72 0 0 0-1.44-3.12c-.72-.944-1.872-1.416-3.456-1.416-1.776 0-3.024.624-3.744 1.872-.72 1.248-1.16 2.624-1.32 4.128a19.139 19.139 0 0 0-.096 1.944c0 .432.016.948.048 1.548.032.6.12 1.22.264 1.86a7.72 7.72 0 0 0 1.44 3.12c.72.944 1.872 1.416 3.456 1.416 1.776 0 3.024-.624 3.744-1.872.72-1.248 1.16-2.624 1.32-4.128a19.139 19.139 0 0 0 .096-1.944v-.024zm9.83 8.664h-6.936v-1.08c.032.016.068.02.108.012a.674.674 0 0 1 .132-.012c.24-.032.476-.068.708-.108.232-.04.46-.1.684-.18.384-.144.66-.412.828-.804.168-.392.284-.804.348-1.236a25.09 25.09 0 0 0 .048-1.416V7.973a1.639 1.639 0 0 0-.732-.564 3.12 3.12 0 0 0-.948-.18c-.096 0-.192-.004-.288-.012a3.466 3.466 0 0 0-.288-.012h-.6V6.1h5.016l9.528 12.936h.048V9.94c-.032-1.008-.236-1.7-.612-2.076-.376-.376-1.084-.596-2.124-.66V6.1h6.744v1.08c-1.168.08-1.912.344-2.232.792-.32.448-.504 1.216-.552 2.304v13.512h-.936L129.622 9.1h-.048v10.128c0 .464.024.908.072 1.332.048.424.232.82.552 1.188.144.112.3.208.468.288.168.08.34.144.516.192a24.337 24.337 0 0 0 .624.096 5.011 5.011 0 0 0 .624.048v1.056zM150.456 1.79V.36h8.907v1.43a6.239 6.239 0 0 1-1.24 0c-.213 0-.42.011-.62.032a6.792 6.792 0 0 0-.621.096.521.521 0 0 1-.08.063.521.521 0 0 0-.08.064.497.497 0 0 0-.174.222.913.913 0 0 0-.048.318c0 .021.01.08.032.175.021.095.042.186.064.27.02.021.031.043.031.064v.063c.022.085.043.16.064.223a.345.345 0 0 0 .064.127l4.58 14.305 3.85-12.747-.955-2.67a.783.783 0 0 0-.477-.382 3.427 3.427 0 0 0-.7-.127.316.316 0 0 0-.143-.032h-.175c-.021-.021-.058-.032-.111-.032h-.143l-.986-.031V.36h9.193v1.43c-.36.022-.726.038-1.097.048-.372.01-.737.048-1.098.111l-.318.16a.24.24 0 0 0-.095.079 1.039 1.039 0 0 0-.064.111 1.649 1.649 0 0 0-.127.35c0 .254.037.498.111.731.074.233.154.477.239.731 0 .021.005.048.016.08.01.031.026.068.047.11l4.263 13.48 3.722-12.653c.021-.063.042-.143.064-.238.02-.095.042-.185.063-.27a.62.62 0 0 0 .048-.127.522.522 0 0 0 .016-.128c.042-.148.074-.291.095-.429.021-.137.032-.26.032-.365 0-.657-.217-1.092-.652-1.304a4 4 0 0 0-1.448-.381c-.106 0-.206-.005-.302-.016a2.741 2.741 0 0 0-.302-.016.894.894 0 0 1-.175-.016.738.738 0 0 0-.143-.016V.36h7.73v1.43c-1.145.064-1.93.44-2.354 1.129-.424.689-.763 1.489-1.018 2.4a.567.567 0 0 0-.048.143.567.567 0 0 1-.047.143l-5.44 18.184h-1.273l-5.217-16.086-4.74 16.086h-1.304l-6.84-20.6-.127-.318a3.789 3.789 0 0 0-.127-.286c-.148-.339-.328-.545-.54-.62-.213-.074-.552-.122-1.019-.143h-.318l-.445-.031zm29.858 5.414V6.1h14.448l.336 6.144h-1.008c-.4-2.272-1-3.68-1.8-4.224s-2.296-.816-4.488-.816l-.48-.024c-.608.016-1.056.064-1.344.144-.288.08-.432.352-.432.816v5.76h.864c1.04.016 1.816-.228 2.328-.732.512-.504.8-1.348.864-2.532l1.08-.024v7.896h-1.08c0-1.056-.22-1.9-.66-2.532-.44-.632-1.132-.948-2.076-.948l-1.32-.024v6.432c0 .096.004.168.012.216.008.048.02.088.036.12.016.048.04.092.072.132l.12.156a.98.98 0 0 0 .444.168l.468.048h.192c.256.048.512.076.768.084.256.008.512.012.768.012.32 0 .644-.004.972-.012.328-.008.66-.044.996-.108 1.296-.128 2.2-.584 2.712-1.368.512-.784.904-1.744 1.176-2.88a.948.948 0 0 0 .036-.144.948.948 0 0 1 .036-.144 10.95 10.95 0 0 1 .144-.672l.984-.024-.456 6.408h-14.76v-1.08h.72a.453.453 0 0 0 .288 0h.204c.072 0 .148-.008.228-.024.256-.016.5-.072.732-.168.232-.096.38-.28.444-.552.016-.08.028-.164.036-.252a3.05 3.05 0 0 0 .012-.276V8.429c0-.08-.004-.164-.012-.252a2.787 2.787 0 0 1-.012-.252c-.032-.24-.116-.404-.252-.492a1.135 1.135 0 0 0-.54-.156 11.586 11.586 0 0 0-.9-.06 33.315 33.315 0 0 0-.9-.012zm16.757 0V6.1h14.448l.336 6.144h-1.008c-.4-2.272-1-3.68-1.8-4.224s-2.296-.816-4.488-.816l-.48-.024c-.608.016-1.056.064-1.344.144-.288.08-.432.352-.432.816v5.76h.864c1.04.016 1.816-.228 2.328-.732.512-.504.8-1.348.864-2.532l1.08-.024v7.896h-1.08c0-1.056-.22-1.9-.66-2.532-.44-.632-1.132-.948-2.076-.948l-1.32-.024v6.432c0 .096.004.168.012.216.008.048.02.088.036.12.016.048.04.092.072.132l.12.156a.98.98 0 0 0 .444.168l.468.048h.192c.256.048.512.076.768.084.256.008.512.012.768.012.32 0 .644-.004.972-.012.328-.008.66-.044.996-.108 1.296-.128 2.2-.584 2.712-1.368.512-.784.904-1.744 1.176-2.88a.948.948 0 0 0 .036-.144.948.948 0 0 1 .036-.144 10.95 10.95 0 0 1 .144-.672l.984-.024-.456 6.408h-14.76v-1.08h.72a.453.453 0 0 0 .288 0h.204c.072 0 .148-.008.228-.024.256-.016.5-.072.732-.168.232-.096.38-.28.444-.552.016-.08.028-.164.036-.252a3.05 3.05 0 0 0 .012-.276V8.429c0-.08-.004-.164-.012-.252a2.787 2.787 0 0 1-.012-.252c-.032-.24-.116-.404-.252-.492a1.135 1.135 0 0 0-.54-.156 11.586 11.586 0 0 0-.9-.06 33.315 33.315 0 0 0-.9-.012zm24.057 16.224h-7.896v-1.08c.336.016.672.02 1.008.012.336-.008.664-.036.984-.084.16-.064.3-.14.42-.228a.522.522 0 0 0 .204-.396 3 3 0 0 0 .024-.372V8.213a1.547 1.547 0 0 0-.048-.384c-.096-.24-.212-.388-.348-.444a2.311 2.311 0 0 0-.54-.132h-.072a6.483 6.483 0 0 0-.804-.048h-.828V6.1h7.896v1.08c-.352.016-.7.028-1.044.036a8.624 8.624 0 0 0-1.02.084 1.34 1.34 0 0 0-.18.108 1.34 1.34 0 0 1-.18.108c-.112.176-.176.36-.192.552a6.933 6.933 0 0 0-.024.576v7.08l6.144-6.216a5.208 5.208 0 0 0 .384-.432 7.17 7.17 0 0 0 .228-.288c.072-.096.132-.192.18-.288.064-.096.112-.192.144-.288a.84.84 0 0 0 .048-.264.556.556 0 0 0-.216-.444 1.024 1.024 0 0 0-.456-.228h-.072c-.08 0-.16-.004-.24-.012a2.41 2.41 0 0 0-.24-.012 9.682 9.682 0 0 0-.96-.048V6.1h7.392v1.08c-.88.048-1.644.244-2.292.588a7.848 7.848 0 0 0-1.86 1.404.181.181 0 0 0-.072.06.582.582 0 0 1-.072.084l-3.408 3.36 5.736 8.304a.42.42 0 0 0 .06.12.63.63 0 0 1 .06.096 6.9 6.9 0 0 1 .192.252c.064.088.136.172.216.252.112.16.248.288.408.384.16.096.328.16.504.192.128.016.252.028.372.036.12.008.244.02.372.036.128 0 .252.004.372.012s.244.012.372.012v1.056h-8.16v-1.08a.49.49 0 0 0 .156.024h.564c.24 0 .484-.012.732-.036.248-.024.484-.068.708-.132a.787.787 0 0 0 .264-.168.15.15 0 0 0 .048-.108v-.108a.714.714 0 0 0-.096-.36l-.192-.336a.954.954 0 0 1-.12-.144.787.787 0 0 0-.096-.12l-4.296-6.312-2.808 2.904v3.66c0 .216.016.436.048.66a3.316 3.316 0 0 0 .144.24.188.188 0 0 1 .036.048c.008.016.02.032.036.048.032.016.06.032.084.048a.785.785 0 0 0 .084.048c.016.016.04.028.072.036.032.008.056.02.072.036.032 0 .068.004.108.012.04.008.076.012.108.012s.068.004.108.012c.04.008.076.012.108.012l1.632.024v1.08z"/>
    </g>
</svg>
