<?xml version="1.0" encoding="UTF-8" standalone="no"?>
<svg width="54px" height="71px" viewBox="0 0 54 71" version="1.1" xmlns="http://www.w3.org/2000/svg" xmlns:xlink="http://www.w3.org/1999/xlink">
    <!-- Generator: Sketch 39.1 (31720) - http://www.bohemiancoding.com/sketch -->
    <title>Group 4</title>
    <desc>Created with Sketch.</desc>
    <defs></defs>
    <g id="Welcome" stroke="none" stroke-width="1" fill="none" fill-rule="evenodd">
        <g id="Activity-Planner---landing-page" transform="translate(-974.000000, -640.000000)">
            <g id="Group-4" transform="translate(975.000000, 641.000000)">
                <path d="M9.86115789,26.3995789 C9.86115789,17.2642105 17.2664211,9.86115789 26.3995789,9.86115789 L26.3995789,0 C11.8432632,0 0,11.8425263 0,26.3995789 C0,40.9558947 11.8432632,52.7991579 26.3995789,52.7991579 L26.3995789,42.938 C17.2664211,42.938 9.86115789,35.5327368 9.86115789,26.3995789" id="Fill-1" fill="#F8F6F6"></path>
                <path d="M19.8611579,25.5384211 C19.8611579,21.8564211 22.8571579,18.8604211 26.5376842,18.8604211 L26.5376842,9 C17.4052632,9 10,16.4030526 10,25.5384211 C10,34.6715789 17.4052632,42.0768421 26.5376842,42.0768421 L26.5376842,32.2149474 C22.8571579,32.2149474 19.8611579,29.2189474 19.8611579,25.5384211" id="Fill-3" fill="#FFFFFF"></path>
                <path d="M42.5384211,42.3995789 C42.5384211,51.5349474 35.1331579,58.938 26,58.938 L26,68.7991579 C40.5563158,68.7991579 52.3995789,56.9566316 52.3995789,42.3995789 C52.3995789,27.8432632 40.5563158,16 26,16 L26,25.8611579 C35.1331579,25.8611579 42.5384211,33.2664211 42.5384211,42.3995789" id="Fill-5" fill="#FFFFFF"></path>
                <path d="M32.6765263,42.5384211 C32.6765263,46.2204211 29.6805263,49.2164211 26,49.2164211 L26,59.0768421 C35.1324211,59.0768421 42.5376842,51.6737895 42.5376842,42.5384211 C42.5376842,33.4052632 35.1324211,26 26,26 L26,35.8618947 C29.6805263,35.8618947 32.6765263,38.8578947 32.6765263,42.5384211" id="Fill-7" fill="#F8F6F6"></path>
                <path d="M26.3995789,52.7991579 C11.8432632,52.7991579 0,40.9558947 0,26.3995789 C0,11.8425263 11.8432632,0 26.3995789,0 L26.3995789,19.7215789 C22.7190526,19.7215789 19.7230526,22.7175789 19.7230526,26.3995789 C19.7230526,30.0801053 22.7190526,33.0768421 26.3995789,33.0768421 L26.3995789,52.7991579 L26.3995789,52.7991579 Z" id="Stroke-9" stroke="#CECECE" stroke-linecap="round" stroke-linejoin="round"></path>
                <path d="M26.5384211,42.0761053 C17.4052632,42.0761053 10,34.6708421 10,25.5376842 C10,16.4023158 17.4052632,9 26.5384211,9" id="Stroke-11" stroke="#CECECE" stroke-linecap="round" stroke-linejoin="round"></path>
                <path d="M26,68.7991579 L26,49.0768421 C29.682,49.0768421 32.678,46.0815789 32.678,42.3995789 C32.678,38.7183158 29.682,35.7230526 26,35.7230526 L26,16 C40.5570526,16 52.3995789,27.844 52.3995789,42.3995789 C52.3995789,56.9558947 40.5570526,68.7991579 26,68.7991579 L26,68.7991579 Z" id="Stroke-13" stroke="#CECECE" stroke-linecap="round" stroke-linejoin="round"></path>
                <path d="M26,26 C35.1353684,26 42.5391579,33.4023158 42.5391579,42.5384211 C42.5391579,51.6708421 35.1353684,59.0761053 26,59.0761053" id="Stroke-15" stroke="#CECECE" stroke-linecap="round" stroke-linejoin="round"></path>
            </g>
        </g>
    </g>
</svg>