<?xml version="1.0" encoding="UTF-8" standalone="no"?>
<svg width="32px" height="18px" viewBox="0 0 32 18" version="1.1" xmlns="http://www.w3.org/2000/svg" xmlns:xlink="http://www.w3.org/1999/xlink">
    <!-- Generator: Sketch 39.1 (31720) - http://www.bohemiancoding.com/sketch -->
    <title>Page 1</title>
    <desc>Created with Sketch.</desc>
    <defs></defs>
    <g id="Welcome" stroke="none" stroke-width="1" fill="none" fill-rule="evenodd">
        <g id="Teacher-Dashboard:-Google-Classroom-Sync" transform="translate(-213.000000, -1180.000000)">
            <g id="Page-1" transform="translate(214.000000, 1181.000000)">
                <g id="Group-4" transform="translate(21.052632, 10.361084)">
                    <path d="M1.74457895,5.16129032 L8.56405263,5.16129032 L8.56405263,3.67122581 C8.56405263,1.74451613 5.90089474,0.182193548 2.61563158,0.182193548 C1.79457895,0.182193548 1.01194737,0.279741935 0.300368421,0.456258065" id="Fill-1" fill="#82BF3C"></path>
                    <path d="M1.74457895,5.16129032 L8.56405263,5.16129032 L8.56405263,3.67122581 C8.56405263,1.74451613 5.90089474,0.182193548 2.61563158,0.182193548 C1.79457895,0.182193548 1.01194737,0.279741935 0.300368421,0.456258065" id="Stroke-3" stroke="#0F0F0F" stroke-linecap="round" stroke-linejoin="round"></path>
                </g>
                <path d="M26.2071053,6.43654194 C26.2071053,7.8011871 25.0786842,8.90776774 23.6871053,8.90776774 C22.295,8.90776774 21.1671053,7.8011871 21.1671053,6.43654194 C21.1671053,5.07189677 22.295,3.96531613 23.6871053,3.96531613 C25.0786842,3.96531613 26.2071053,5.07189677 26.2071053,6.43654194" id="Fill-5" fill="#82BF3C"></path>
                <path d="M26.2071053,6.43654194 C26.2071053,7.8011871 25.0786842,8.90776774 23.6871053,8.90776774 C22.295,8.90776774 21.1671053,7.8011871 21.1671053,6.43654194 C21.1671053,5.07189677 22.295,3.96531613 23.6871053,3.96531613 C25.0786842,3.96531613 26.2071053,5.07189677 26.2071053,6.43654194 L26.2071053,6.43654194 Z" id="Stroke-7" stroke="#0F0F0F" stroke-linecap="round" stroke-linejoin="round"></path>
                <g id="Group-12" transform="translate(0.000000, 10.361084)">
                    <path d="M8.27863158,0.460180645 C7.56284211,0.281083871 6.77547368,0.181987097 5.94810526,0.181987097 C2.66284211,0.181987097 0.000210526319,1.74430968 0.000210526319,3.67101935 L0.000210526319,5.16108387 L6.81968421,5.16108387" id="Fill-9" fill="#82BF3C"></path>
                    <path d="M8.27863158,0.460180645 C7.56284211,0.281083871 6.77547368,0.181987097 5.94810526,0.181987097 C2.66284211,0.181987097 0.000210526319,1.74430968 0.000210526319,3.67101935 L0.000210526319,5.16108387 L6.81968421,5.16108387" id="Stroke-11" stroke="#0F0F0F" stroke-linecap="round" stroke-linejoin="round"></path>
                </g>
                <path d="M8.48689474,6.43654194 C8.48689474,7.8011871 7.35847368,8.90776774 5.96689474,8.90776774 C4.57478947,8.90776774 3.44689474,7.8011871 3.44689474,6.43654194 C3.44689474,5.07189677 4.57478947,3.96531613 5.96689474,3.96531613 C7.35847368,3.96531613 8.48689474,5.07189677 8.48689474,6.43654194" id="Fill-13" fill="#82BF3C"></path>
                <path d="M8.48689474,6.43654194 C8.48689474,7.8011871 7.35847368,8.90776774 5.96689474,8.90776774 C4.57478947,8.90776774 3.44689474,7.8011871 3.44689474,6.43654194 C3.44689474,5.07189677 4.57478947,3.96531613 5.96689474,3.96531613 C7.35847368,3.96531613 8.48689474,5.07189677 8.48689474,6.43654194 L8.48689474,6.43654194 Z" id="Stroke-15" stroke="#0F0F0F" stroke-linecap="round" stroke-linejoin="round"></path>
                <path d="M22.7973684,15.5223742 L22.7973684,13.5208258 C22.7973684,10.9329548 19.2205263,8.83489032 14.8084211,8.83489032 C10.3963158,8.83489032 6.81947368,10.9329548 6.81947368,13.5208258 L6.81947368,15.5223742 L22.7973684,15.5223742 Z" id="Fill-17" fill="#A7D665"></path>
                <path d="M22.7973684,15.5223742 L22.7973684,13.5208258 C22.7973684,10.9329548 19.2205263,8.83489032 14.8084211,8.83489032 C10.3963158,8.83489032 6.81947368,10.9329548 6.81947368,13.5208258 L6.81947368,15.5223742 L22.7973684,15.5223742 L22.7973684,15.5223742 Z" id="Stroke-19" stroke="#0F0F0F" stroke-linecap="round" stroke-linejoin="round"></path>
                <path d="M18.218,3.31922581 C18.218,5.15251613 16.7027368,6.63845161 14.8332632,6.63845161 C12.9637895,6.63845161 11.4485263,5.15251613 11.4485263,3.31922581 C11.4485263,1.48593548 12.9637895,0 14.8332632,0 C16.7027368,0 18.218,1.48593548 18.218,3.31922581" id="Fill-21" fill="#A7D665"></path>
                <path d="M18.218,3.31922581 C18.218,5.15251613 16.7027368,6.63845161 14.8332632,6.63845161 C12.9637895,6.63845161 11.4485263,5.15251613 11.4485263,3.31922581 C11.4485263,1.48593548 12.9637895,0 14.8332632,0 C16.7027368,0 18.218,1.48593548 18.218,3.31922581 L18.218,3.31922581 Z" id="Stroke-23" stroke="#0F0F0F" stroke-linecap="round" stroke-linejoin="round"></path>
            </g>
        </g>
    </g>
</svg>