<svg width="12" height="12" viewBox="0 0 12 12" fill="none" xmlns="http://www.w3.org/2000/svg">
<path d="M6 11.9766C5.18359 11.9766 4.41406 11.8203 3.69141 11.5078C2.97266 11.1953 2.33789 10.7637 1.78711 10.2129C1.23633 9.66211 0.804688 9.02734 0.492188 8.30859C0.179688 7.58594 0.0234375 6.81641 0.0234375 6C0.0234375 5.18359 0.179688 4.41602 0.492188 3.69727C0.804688 2.97461 1.23438 2.33789 1.78125 1.78711C2.33203 1.23633 2.9668 0.804688 3.68555 0.492188C4.4082 0.179688 5.17773 0.0234375 5.99414 0.0234375C6.81055 0.0234375 7.58008 0.179688 8.30273 0.492188C9.02539 0.804688 9.66211 1.23633 10.2129 1.78711C10.7637 2.33789 11.1953 2.97461 11.5078 3.69727C11.8203 4.41602 11.9766 5.18359 11.9766 6C11.9766 6.81641 11.8203 7.58594 11.5078 8.30859C11.1953 9.02734 10.7637 9.66211 10.2129 10.2129C9.66211 10.7637 9.02539 11.1953 8.30273 11.5078C7.58398 11.8203 6.81641 11.9766 6 11.9766ZM5.34375 8.85938C5.44531 8.85938 5.53711 8.83594 5.61914 8.78906C5.70117 8.74219 5.77344 8.67188 5.83594 8.57812L8.58984 4.23633C8.625 4.17773 8.6582 4.11523 8.68945 4.04883C8.7207 3.98242 8.73633 3.91602 8.73633 3.84961C8.73633 3.71289 8.68555 3.60547 8.58398 3.52734C8.48242 3.44531 8.36914 3.4043 8.24414 3.4043C8.07227 3.4043 7.93164 3.49414 7.82227 3.67383L5.32031 7.69336L4.13086 6.1582C4.05664 6.06055 3.98438 5.99414 3.91406 5.95898C3.84766 5.92383 3.77148 5.90625 3.68555 5.90625C3.55273 5.90625 3.44141 5.95508 3.35156 6.05273C3.26172 6.14648 3.2168 6.25977 3.2168 6.39258C3.2168 6.45898 3.22852 6.52539 3.25195 6.5918C3.2793 6.6543 3.31445 6.71484 3.35742 6.77344L4.82812 8.57812C4.90625 8.67969 4.98633 8.75195 5.06836 8.79492C5.15039 8.83789 5.24219 8.85938 5.34375 8.85938Z" fill="#2A5900"/>
</svg>
