<svg width="24" height="22" viewBox="0 0 24 22" fill="none" xmlns="http://www.w3.org/2000/svg">
<path d="M3 10.4762C3.55228 10.4762 4 10.9239 4 11.4762C4 11.989 3.61396 12.4117 3.11662 12.4695L3 12.4762H1C0.447715 12.4762 0 12.0285 0 11.4762C0 10.9634 0.38604 10.5407 0.883379 10.4829L1 10.4762H3Z" fill="#373737"/>
<path d="M3.49803 3.37892C3.84962 3.00975 4.41601 2.9682 4.81562 3.26357L4.91183 3.34444L6.32582 4.6911C6.72576 5.07199 6.74119 5.70497 6.36031 6.1049C6.00872 6.47406 5.44233 6.51562 5.04272 6.22025L4.94651 6.13938L3.53251 4.79271C3.13258 4.41183 3.11715 3.77885 3.49803 3.37892Z" fill="#373737"/>
<path d="M12 0C12.5128 0 12.9355 0.38604 12.9933 0.883379L13 1V2.90476C13 3.45705 12.5523 3.90476 12 3.90476C11.4872 3.90476 11.0645 3.51872 11.0067 3.02138L11 2.90476V1C11 0.447715 11.4477 0 12 0Z" fill="#373737"/>
<path d="M19.0881 3.34444C19.488 2.96355 20.121 2.97899 20.5019 3.37892C20.8535 3.74809 20.8674 4.31582 20.5529 4.70056L20.4674 4.79271L19.0534 6.13938C18.6535 6.52027 18.0205 6.50483 17.6396 6.1049C17.288 5.73573 17.2742 5.16799 17.5887 4.78325L17.6741 4.6911L19.0881 3.34444Z" fill="#373737"/>
<path d="M23 10.4762C23.5523 10.4762 24 10.9239 24 11.4762C24 11.989 23.614 12.4117 23.1166 12.4695L23 12.4762H21C20.4477 12.4762 20 12.0285 20 11.4762C20 10.9634 20.386 10.5407 20.8834 10.4829L21 10.4762H23Z" fill="#373737"/>
<path fill-rule="evenodd" clip-rule="evenodd" d="M5 11.4762C5 7.75651 8.14433 4.7619 12 4.7619C15.8557 4.7619 19 7.75651 19 11.4762C19 14.0923 17.4258 16.4098 15.054 17.5124L15 17.536V21C15 21.5128 14.614 21.9355 14.1166 21.9933L14 22H10C9.44772 22 9 21.5523 9 21V17.536L8.94598 17.5124C6.65321 16.4466 5.10583 14.2454 5.00522 11.7368L5 11.4762ZM17 11.4762C17 8.88349 14.7723 6.7619 12 6.7619C9.22767 6.7619 7 8.88349 7 11.4762C7 13.4746 8.33851 15.243 10.3193 15.9104C10.7261 16.0475 11 16.4289 11 16.8581V20H13V16.8581C13 16.4718 13.2219 16.1243 13.5628 15.9587L13.6807 15.9104C15.6615 15.243 17 13.4746 17 11.4762Z" fill="#373737"/>
</svg>
