<svg width="10" height="10" viewBox="0 0 10 10" fill="none" xmlns="http://www.w3.org/2000/svg">
<path d="M1.50016 3.24998H7.6835L6.92516 4.00831C6.69183 4.24165 6.69183 4.59165 6.92516 4.82498C7.04183 4.94165 7.1585 4.99998 7.3335 4.99998C7.5085 4.99998 7.62516 4.94165 7.74183 4.82498L9.49183 3.07498C9.72516 2.84165 9.72516 2.49165 9.49183 2.25831L7.74183 0.508313C7.5085 0.27498 7.1585 0.27498 6.92516 0.508313C6.69183 0.741646 6.69183 1.09165 6.92516 1.32498L7.6835 2.08331H0.916829C0.566829 2.08331 0.333496 2.31665 0.333496 2.66665V4.41665H1.50016V3.24998Z" fill="#9F6405"/>
<path d="M8.50016 6.75H2.31683L3.07516 5.99167C3.3085 5.75833 3.3085 5.40833 3.07516 5.175C2.84183 4.94167 2.49183 4.94167 2.2585 5.175L0.508496 6.925C0.275163 7.15833 0.275163 7.50833 0.508496 7.74167L2.2585 9.49167C2.37516 9.60833 2.49183 9.66667 2.66683 9.66667C2.84183 9.66667 2.9585 9.60833 3.07516 9.49167C3.3085 9.25833 3.3085 8.90833 3.07516 8.675L2.31683 7.91667H9.0835C9.4335 7.91667 9.66683 7.68333 9.66683 7.33333V5.58333H8.50016V6.75Z" fill="#9F6405"/>
</svg>
