<svg width="96" height="96" viewBox="0 0 96 96" fill="none" xmlns="http://www.w3.org/2000/svg">
<g id="Group 20">
<g id="Group 6">
<path id="Path" d="M32.0982 32.0981C11.2497 52.9466 6.41904 70.6153 12.4588 76.6551C17.9323 82.1286 32.9659 78.6291 51.2521 62.4166L48.4724 59.6369C33.2977 72.904 19.3198 77.9338 15.2499 73.8639C10.6665 69.2805 17.5952 52.1384 34.8668 34.8668C52.1384 17.5952 69.2805 10.6665 73.8639 15.2499C77.2887 18.6747 74.3132 28.5385 66.4563 39.7981C65.8663 40.6361 66.0125 41.7811 66.7927 42.4332C67.5729 43.0854 68.7274 43.0276 69.4498 42.3003C69.5327 42.2176 69.608 42.1275 69.6746 42.0311C79.075 28.5553 81.6898 17.4935 76.6551 12.4588C70.6153 6.41902 52.9466 11.2497 32.0982 32.0981Z" fill="#78BF9C"/>
<path id="Path_2" d="M59.7139 68.0898C58.9368 68.8669 57.6805 68.8706 56.9079 68.098L42.9191 54.1093C42.3959 53.5851 42.211 52.8108 42.44 52.1029C42.669 51.3949 43.2735 50.8718 44.0065 50.7473L60.851 47.8916C61.4826 47.7853 62.1249 47.9899 62.5761 48.4411C63.0272 48.8922 63.2318 49.5345 63.1255 50.1662L60.2699 67.0106C60.2027 67.4193 60.0081 67.7971 59.7139 68.0898Z" fill="#645AED"/>
</g>
<g id="pencil">
<path id="Path_3" d="M78.4578 86.2271L80.5881 80.1622L86.653 78.0319L87.9542 85.2429C88.1979 86.5932 87.0191 87.772 85.6688 87.5283L78.4578 86.2271Z" fill="#989898"/>
<path id="Path_4" d="M63.4578 83.5205L66.9391 66.5139L83.9457 63.0326L86.6523 78.0319L78.4571 86.2271L63.4578 83.5205Z" fill="#FFD999"/>
<path id="Path_5" d="M4.43864 21.7188L22.1446 4.01281C22.9131 3.24434 24.158 3.24434 24.9265 4.01281L36.7305 15.8168L16.2426 36.3046L4.43864 24.5007C3.67014 23.7322 3.67014 22.4872 4.43864 21.7188Z" fill="#EB4F47"/>
<path id="Path_6" d="M36.7304 15.8168L83.9463 63.0326L72.2269 74.7521L25.093 27.4542L36.7304 15.8168Z" fill="#ECB55A"/>
<path id="Rectangle" d="M73.7021 73.2766L26.4861 26.0606L16.2421 36.3045L63.4582 83.5206L73.7021 73.2766Z" fill="#ECB55A"/>
<path id="Rectangle_2" d="M38.1211 17.2076L35.3392 14.4256L14.8512 34.9136L17.6331 37.6955L38.1211 17.2076Z" fill="#C04500"/>
</g>
<g id="Group 5">
<mask id="mask0_12239_12014" style="mask-type:luminance" maskUnits="userSpaceOnUse" x="33" y="34" width="45" height="45">
<rect id="Mask" x="33.7715" y="55.1233" width="28.7354" height="33.3164" transform="rotate(-45 33.7715 55.1233)" fill="white"/>
</mask>
<g mask="url(#mask0_12239_12014)">
<g id="Group 5_2">
<path id="Path_7" d="M32.2993 31.8595C11.4509 52.7079 6.63383 70.3903 12.6864 76.4429C18.1715 81.928 33.2174 78.4407 51.5057 62.2305L48.7201 59.4449C33.5434 72.7099 19.556 77.7302 15.4775 73.6517C10.8844 69.0585 17.8022 51.9056 35.0738 34.634C52.3454 17.3624 69.4984 10.4445 74.0915 15.0377C77.5236 18.4697 74.5554 28.3408 66.7021 39.604C66.1124 40.4423 66.26 41.5886 67.0417 42.2423C67.8234 42.896 68.979 42.8394 69.7014 42.1121C69.7843 42.0294 69.8596 41.9392 69.9262 41.8429C79.3223 28.3627 81.9281 17.2919 76.8827 12.2465C70.8301 6.19398 53.1478 11.011 32.2993 31.8595Z" fill="#499C70"/>
<path id="Path_8" d="M60.0902 68.2655C59.31 69.0457 58.0491 69.0497 57.2738 68.2744L43.2365 54.237C42.7114 53.711 42.526 52.934 42.756 52.2233C42.986 51.5127 43.5929 50.9875 44.3286 50.8624L61.2359 47.9925C61.8699 47.8857 62.5146 48.0909 62.9673 48.5436C63.42 48.9963 63.6252 49.641 63.5184 50.2749L60.6485 67.1822C60.581 67.5925 60.3856 67.9717 60.0902 68.2655Z" fill="#06806B"/>
</g>
</g>
</g>
</g>
</svg>
