<svg width="16" height="16" viewBox="0 0 16 16" fill="none" xmlns="http://www.w3.org/2000/svg">
<path d="M7.99658 15.0615C8.96273 15.0615 9.87191 14.877 10.7241 14.5078C11.5763 14.1432 12.3283 13.6351 12.98 12.9834C13.6317 12.3317 14.1421 11.5798 14.5112 10.7275C14.8804 9.87533 15.0649 8.96615 15.0649 8C15.0649 7.03385 14.8804 6.12467 14.5112 5.27246C14.1421 4.42025 13.6317 3.67057 12.98 3.02344C12.3283 2.37174 11.5763 1.86133 10.7241 1.49219C9.87191 1.12305 8.96045 0.938477 7.98975 0.938477C7.0236 0.938477 6.11442 1.12305 5.26221 1.49219C4.41455 1.86133 3.66488 2.37174 3.01318 3.02344C2.36605 3.67057 1.85791 4.42025 1.48877 5.27246C1.11963 6.12467 0.935059 7.03385 0.935059 8C0.935059 8.96615 1.11963 9.87533 1.48877 10.7275C1.85791 11.5798 2.36605 12.3317 3.01318 12.9834C3.66488 13.6351 4.41683 14.1432 5.26904 14.5078C6.12126 14.877 7.03044 15.0615 7.99658 15.0615ZM8.00342 9.18262C7.5887 9.18262 7.37451 8.97298 7.36084 8.55371L7.26514 5.1084C7.25602 4.90332 7.31982 4.7347 7.45654 4.60254C7.59326 4.46582 7.77327 4.39746 7.99658 4.39746C8.21533 4.39746 8.39535 4.46582 8.53662 4.60254C8.6779 4.7347 8.74398 4.9056 8.73486 5.11523L8.62549 8.54688C8.61637 8.9707 8.40902 9.18262 8.00342 9.18262ZM8.00342 11.5342C7.77555 11.5342 7.57731 11.4613 7.40869 11.3154C7.24463 11.1696 7.1626 10.9827 7.1626 10.7549C7.1626 10.5316 7.24463 10.3447 7.40869 10.1943C7.57275 10.0439 7.771 9.96875 8.00342 9.96875C8.23128 9.96875 8.42725 10.0439 8.59131 10.1943C8.75537 10.3447 8.8374 10.5316 8.8374 10.7549C8.8374 10.9827 8.75537 11.1696 8.59131 11.3154C8.42725 11.4613 8.23128 11.5342 8.00342 11.5342Z" fill="#9F6405"/>
</svg>
