<svg width="140" height="140" viewBox="0 0 140 140" fill="none" xmlns="http://www.w3.org/2000/svg">
<path d="M28.5764 105.938H99.4236C103.196 105.938 106.048 104.948 107.979 102.97C109.91 100.992 110.875 98.1876 110.875 94.5562V45.4438C110.875 41.8124 109.895 39.0077 107.934 37.0296C106.003 35.0515 103.181 34.0625 99.4682 34.0625H28.5764C24.8335 34.0625 21.9818 35.0368 20.0213 36.9853C18.0904 38.9339 17.125 41.7534 17.125 45.4438V94.5562C17.125 98.2466 18.0904 101.066 20.0213 103.015C21.9818 104.963 24.8335 105.938 28.5764 105.938ZM28.7101 103.723C25.6207 103.723 23.274 102.941 21.6699 101.376C20.0955 99.8114 19.3083 97.4938 19.3083 94.4233V45.5767C19.3083 42.5062 20.0955 40.1886 21.6699 38.6239C23.274 37.0591 25.6207 36.2768 28.7101 36.2768H99.3345C102.305 36.2768 104.607 37.0591 106.241 38.6239C107.875 40.1886 108.692 42.5062 108.692 45.5767V94.4233C108.692 97.4938 107.875 99.8114 106.241 101.376C104.607 102.941 102.305 103.723 99.3345 103.723H28.7101ZM64.3565 79.4106C65.4259 79.4106 66.5844 79.1744 67.832 78.7021C69.0796 78.2002 70.3124 77.3587 71.5303 76.1778L109.048 39.9524L107.399 38.2696L69.9262 74.6721C68.9756 75.6169 68.0102 76.2811 67.0299 76.6649C66.0497 77.0192 65.1585 77.1964 64.3565 77.1964C63.5544 77.1964 62.6484 77.0045 61.6384 76.6207C60.6284 76.2368 59.6779 75.5873 58.7867 74.6721L21.3135 38.3139L19.6648 39.9967L57.1826 76.1778C58.4303 77.3587 59.663 78.2002 60.8809 78.7021C62.1286 79.1744 63.2871 79.4106 64.3565 79.4106ZM106.82 101.863L108.38 100.136L76.7436 70.1993L75.0504 71.705L106.82 101.863ZM20.0658 100.402L21.5362 102.218L53.6625 71.705L52.0139 70.1993L20.0658 100.402Z" fill="black"/>
<path d="M107 80C97.064 80 89 88.064 89 98C89 107.936 97.064 116 107 116C116.936 116 125 107.936 125 98C125 88.064 116.936 80 107 80Z" fill="white"/>
<path fill-rule="evenodd" clip-rule="evenodd" d="M89 98C89 88.064 97.064 80 107 80C116.936 80 125 88.064 125 98C125 107.936 116.936 116 107 116C97.064 116 89 107.936 89 98ZM94.4 98L103.4 107L119.6 90.8L117.062 88.244L103.4 101.906L96.938 95.462L94.4 98Z" fill="#06806B"/>
</svg>
