<svg xmlns="http://www.w3.org/2000/svg" width="64" height="64" viewBox="0 0 64 64">
    <g fill="none" fill-rule="evenodd">
        <path d="M0 64h64V0H0z"/>
        <g stroke="#111" stroke-linecap="round" stroke-linejoin="round" stroke-width="2">
            <path d="M14.804 7.414c1.893 1.4 3.346 4.956 3.346 4.956s1.633 1.135 2.145 2.584c.51 1.45.029 3.417.029 3.417s1.449 4.253.766 5.447c-.682 1.193-3.58 1.96-3.58 1.96s-1.192 2.216-3.665 2.642c-1.62.17-3.238 1.278-3.238 3.58s2.3 6.051 2.3 6.051 2.386 1.167 2.727 2.02c.34.853.457 2.838.457 2.838s2.27 4.006.992 6.307c-.408.734-2.3 1.278-2.3 1.278l-2.655 3.982M55.676 13.574c-2.895 1.388-7.96 2.546-7.96 2.546s-3.7 4.12-6.128 3.778c-2.43-.342-4.901-3.068-4.901-3.068s.17-5.028-.597-5.284c-.767-.256-2.811 1.108-4.091.085-1.278-1.023-.541-3.906-.541-3.906s-2.783-.866-3.124-1.804c-.341-.938 1.013-3.025 1.272-3.826M53.99 33.96c.681 1.619-1.28 5.755-2.899 6.562-2.142 1.069-3.603 2.411-4.2 3.349-.596.938-1.38 4.806-3.34 5.573-1.96.767-6.608 5.141-9.08 4.459-2.47-.681-2.47-6.562-.766-9.204 1.017-1.577-.17-5.028-.256-6.222-.085-1.193-3.665-3.409-3.665-4.602 0-1.875 4.091-6.818 4.091-6.818s3.351-1.108 4.375-.852c1.023.256 2.955 1.449 2.955 1.449s3.835.341 5.284 1.108l1.96 1.79c0-.001 4.857 1.789 5.54 3.408z"/>
            <path d="M32 2c16.568 0 30 13.432 30 30 0 16.568-13.432 30-30 30C15.432 62 2 48.568 2 32 2 15.432 15.432 2 32 2z"/>
        </g>
    </g>
</svg>
