<svg width="98" height="97" viewBox="0 0 98 97" fill="none" xmlns="http://www.w3.org/2000/svg">
<path fill-rule="evenodd" clip-rule="evenodd" d="M59.1562 28.4688H37.2812V28.4688C37.2812 23.2906 41.4781 19.0938 46.6562 19.0938H49.7812C54.9594 19.0938 59.1562 23.2906 59.1562 28.4688V28.4688Z" stroke="black" stroke-width="2" stroke-linecap="round" stroke-linejoin="round"/>
<circle cx="48.2188" cy="8.15625" r="6.25" stroke="black" stroke-width="2" stroke-linecap="round" stroke-linejoin="round"/>
<path fill-rule="evenodd" clip-rule="evenodd" d="M23.2188 42.5312H1.34375V42.5312C1.34375 37.3531 5.54063 33.1562 10.7188 33.1562H13.8438C19.0219 33.1562 23.2188 37.3531 23.2188 42.5312V42.5312Z" stroke="black" stroke-width="2" stroke-linecap="round" stroke-linejoin="round"/>
<circle cx="12.2812" cy="22.2188" r="6.25" stroke="black" stroke-width="2" stroke-linecap="round" stroke-linejoin="round"/>
<path fill-rule="evenodd" clip-rule="evenodd" d="M96.6562 42.5312H74.7812V42.5312C74.7812 37.3531 78.9781 33.1562 84.1562 33.1562H87.2812C92.4594 33.1562 96.6562 37.3531 96.6562 42.5312V42.5312Z" stroke="black" stroke-width="2" stroke-linecap="round" stroke-linejoin="round"/>
<circle cx="85.7188" cy="22.2188" r="6.25" stroke="black" stroke-width="2" stroke-linecap="round" stroke-linejoin="round"/>
<circle cx="48.2188" cy="55.0312" r="14.0625" stroke="black" stroke-width="2" stroke-linecap="round" stroke-linejoin="round"/>
<path fill-rule="evenodd" clip-rule="evenodd" d="M52.9062 76.9062H43.5312C33.1766 76.9062 24.7812 85.3016 24.7812 95.6562V95.6562H71.6562V95.6562C71.6562 85.3016 63.2609 76.9062 52.9062 76.9062Z" stroke="black" stroke-width="2" stroke-linecap="round" stroke-linejoin="round"/>
</svg>
