<svg xmlns="http://www.w3.org/2000/svg" xmlns:xlink="http://www.w3.org/1999/xlink" width="64" height="64" viewBox="0 0 64 64">
    <defs>
        <path id="a" d="M0 64h64V0H0z"/>
    </defs>
    <g fill="none" fill-rule="evenodd">
        <path d="M0 64h64V0H0z"/>
        <g stroke="#111" stroke-linecap="round" stroke-linejoin="round" stroke-width="2">
            <path d="M45 31h14v30H5V31h14"/>
            <path d="M45 18v43H19V18"/>
        </g>
        <path stroke="#111" stroke-linecap="round" stroke-linejoin="round" stroke-width="2" d="M17 18l15-5 15 5M31.563 13V3h6.875v5h-6.876M32 18.25a7 7 0 1 1 0 14 7 7 0 0 1 0-14z"/>
        <path stroke="#111" stroke-linecap="round" stroke-linejoin="round" stroke-width="2" d="M32 22.25v3h3"/>
        <mask id="b" fill="#fff">
            <use xlink:href="#a"/>
        </mask>
        <path stroke="#111" stroke-linecap="round" stroke-linejoin="round" stroke-width="2" d="M9 42h6v-6H9zM9 52h6v-6H9zM28 61h8V49h-8zM49 42h6v-6h-6zM49 52h6v-6h-6z" mask="url(#b)"/>
    </g>
</svg>
