<svg xmlns="http://www.w3.org/2000/svg" xmlns:xlink="http://www.w3.org/1999/xlink" width="64" height="64" viewBox="0 0 64 64">
    <defs>
        <path id="a" d="M0 64h64V0H0z"/>
    </defs>
    <g fill="none" fill-rule="evenodd">
        <path d="M0 64h64V0H0z"/>
        <path stroke="#111" stroke-linecap="round" stroke-linejoin="round" stroke-width="2" d="M34.466 6.707L45 14M19 14l10.535-7.293M47 54v-7H31v7M32 2a3 3 0 1 1 0 6 3 3 0 0 1 0-6zM2 14l8 8M62 14l-8 8M62 62l-8-8M2 62l8-8"/>
        <mask id="b" fill="#fff">
            <use xlink:href="#a"/>
        </mask>
        <path stroke="#111" stroke-linecap="round" stroke-linejoin="round" stroke-width="2" d="M2 62h60V14H2z" mask="url(#b)"/>
        <path stroke="#111" stroke-linecap="round" stroke-linejoin="round" stroke-width="2" d="M10 54h44V22H10z" mask="url(#b)"/>
    </g>
</svg>
