<?xml version="1.0" encoding="UTF-8"?>
<svg width="400px" height="168px" viewBox="0 0 400 168" version="1.1" xmlns="http://www.w3.org/2000/svg" xmlns:xlink="http://www.w3.org/1999/xlink">
    <!-- Generator: Sketch 43.2 (39069) - http://www.bohemiancoding.com/sketch -->
    <title>Group 32</title>
    <desc>Created with Sketch.</desc>
    <defs></defs>
    <g id="V1" stroke="none" stroke-width="1" fill="none" fill-rule="evenodd">
        <g id="12_00-Guide-1-Copy-2" transform="translate(-817.000000, -141.000000)">
            <g id="Group-25" transform="translate(505.000000, 100.000000)">
                <g id="Group-32" transform="translate(313.000000, 42.000000)">
                    <path d="M78.792,41.032 C78.864,38.314 77.208,37.324 74.994,37.324 C72.276,37.324 70.35,38.8 70.35,41.212 C70.35,43.66 72.276,44.146 73.968,44.686 C75.264,45.1 76.416,45.532 76.416,46.918 C76.416,48.898 74.742,49.456 73.374,49.456 C71.124,49.456 70.674,48.214 70.53,46.846 L69,47.044 C69.09,49.546 70.602,50.806 73.266,50.806 C75.786,50.806 78.108,49.582 78.108,46.684 C78.108,44.434 76.344,43.84 74.76,43.318 C73.356,42.832 72.024,42.436 72.024,41.032 C72.024,39.718 72.906,38.638 74.922,38.638 C76.884,38.638 77.244,39.916 77.244,41.212 L78.792,41.032 Z M84.822,49.078 C84.408,49.312 83.76,49.546 83.166,49.546 C82.068,49.546 81.96,48.934 82.104,47.962 L82.878,42.544 L85.416,42.544 L85.578,41.338 L83.04,41.338 L83.436,38.44 L81.78,38.674 L81.402,41.338 L79.962,41.338 L79.8,42.544 L81.24,42.544 L80.448,48.142 C80.178,49.978 81.024,50.806 82.788,50.806 C83.616,50.806 84.534,50.536 85.038,50.23 L84.822,49.078 Z M92.904,48.124 C92.148,48.79 91.014,49.438 89.916,49.438 C89.124,49.438 88.692,49.15 88.62,48.43 C88.566,48.178 88.584,47.836 88.638,47.422 L89.484,41.338 L87.846,41.338 L86.982,47.584 C86.694,49.708 87.54,50.77 89.394,50.77 C90.798,50.77 92.148,50.014 92.868,49.366 L92.706,50.59 L94.182,50.59 L95.478,41.338 L93.84,41.338 L92.904,48.124 Z M104.622,50.59 L103.2,50.59 L103.29,49.528 L103.29,49.51 C102.426,50.23 101.328,50.806 100.158,50.806 C98.34,50.806 97.134,49.726 97.134,47.278 C97.134,42.814 99.492,41.158 101.706,41.158 C102.786,41.158 103.614,41.59 104.208,42.112 L104.91,37 L106.53,37 L104.622,50.59 Z M103.308,48.268 L103.992,43.3 C103.614,42.976 102.858,42.454 101.886,42.454 C99.636,42.454 98.79,44.812 98.79,47.188 C98.79,48.628 99.276,49.42 100.446,49.474 C100.806,49.474 101.166,49.42 101.526,49.312 C102.21,49.096 102.858,48.682 103.308,48.268 Z M111.102,50.806 C108.402,50.806 107.484,48.97 107.484,46.774 C107.484,43.75 109.284,41.158 112.434,41.158 C114.45,41.158 115.404,42.238 115.404,43.552 C115.404,45.1 114.378,45.982 112.992,46.414 C111.624,46.846 110.004,46.936 109.122,46.972 C109.14,48.232 109.446,49.51 111.354,49.51 C112.668,49.51 113.424,48.736 113.712,47.782 L115.062,48.088 C114.522,49.924 112.938,50.806 111.102,50.806 Z M112.326,42.4 C110.436,42.4 109.428,43.948 109.194,45.73 C109.626,45.712 111.138,45.64 112.362,45.262 C113.262,44.974 113.838,44.488 113.838,43.624 C113.838,42.814 113.262,42.4 112.326,42.4 Z M119.328,43.912 C119.994,43.372 121.236,42.526 122.424,42.526 C123.432,42.526 123.864,43.138 123.666,44.506 L122.82,50.59 L124.458,50.59 L125.322,44.326 C125.61,42.202 124.71,41.158 122.91,41.158 C121.434,41.158 120.138,41.986 119.418,42.616 L119.4,42.616 L119.598,41.338 L118.05,41.338 L116.754,50.59 L118.392,50.59 L119.328,43.912 Z M132.288,49.078 C131.874,49.312 131.226,49.546 130.632,49.546 C129.534,49.546 129.426,48.934 129.57,47.962 L130.344,42.544 L132.882,42.544 L133.044,41.338 L130.506,41.338 L130.902,38.44 L129.246,38.674 L128.868,41.338 L127.428,41.338 L127.266,42.544 L128.706,42.544 L127.914,48.142 C127.644,49.978 128.49,50.806 130.254,50.806 C131.082,50.806 132,50.536 132.504,50.23 L132.288,49.078 Z M138.21,41.158 C136.428,41.158 134.7,42.004 134.7,43.966 C134.7,45.856 136.212,46.198 137.508,46.558 C138.498,46.828 139.362,47.134 139.362,48.106 C139.362,49.258 138.282,49.582 137.31,49.582 C135.708,49.582 135.258,48.736 135.132,47.692 L133.782,47.998 C133.944,49.834 135.042,50.806 137.22,50.806 C139.452,50.806 140.964,49.744 140.964,47.872 C140.964,45.946 139.29,45.622 137.94,45.226 C137.022,44.956 136.248,44.632 136.248,43.75 C136.248,43.03 136.716,42.346 138.174,42.346 C139.524,42.346 139.992,43.174 140.046,44.2 L141.432,44.002 C141.342,42.382 140.406,41.158 138.21,41.158 Z M150.09,50.59 L153.006,43.21 L153.888,50.59 L155.814,50.59 L159.846,41.338 L158.208,41.338 L155.112,48.898 L154.158,41.338 L152.412,41.338 L149.352,48.934 L148.308,41.338 L146.688,41.338 L148.128,50.59 L150.09,50.59 Z M163.158,41.338 L161.52,41.338 L160.224,50.59 L161.862,50.59 L163.158,41.338 Z M163.95,38.188 C163.95,37.576 163.59,37.234 162.942,37.234 C162.114,37.234 161.61,37.72 161.61,38.566 C161.61,39.16 161.97,39.52 162.618,39.52 C163.446,39.52 163.95,39.016 163.95,38.188 Z M164.67,50.59 L166.308,50.59 L168.216,37 L166.578,37 L164.67,50.59 Z M169.116,50.59 L170.754,50.59 L172.662,37 L171.024,37 L169.116,50.59 Z M181.572,41.158 C179.79,41.158 178.062,42.004 178.062,43.966 C178.062,45.856 179.574,46.198 180.87,46.558 C181.86,46.828 182.724,47.134 182.724,48.106 C182.724,49.258 181.644,49.582 180.672,49.582 C179.07,49.582 178.62,48.736 178.494,47.692 L177.144,47.998 C177.306,49.834 178.404,50.806 180.582,50.806 C182.814,50.806 184.326,49.744 184.326,47.872 C184.326,45.946 182.652,45.622 181.302,45.226 C180.384,44.956 179.61,44.632 179.61,43.75 C179.61,43.03 180.078,42.346 181.536,42.346 C182.886,42.346 183.354,43.174 183.408,44.2 L184.794,44.002 C184.704,42.382 183.768,41.158 181.572,41.158 Z M189.852,50.806 C187.152,50.806 186.234,48.97 186.234,46.774 C186.234,43.75 188.034,41.158 191.184,41.158 C193.2,41.158 194.154,42.238 194.154,43.552 C194.154,45.1 193.128,45.982 191.742,46.414 C190.374,46.846 188.754,46.936 187.872,46.972 C187.89,48.232 188.196,49.51 190.104,49.51 C191.418,49.51 192.174,48.736 192.462,47.782 L193.812,48.088 C193.272,49.924 191.688,50.806 189.852,50.806 Z M191.076,42.4 C189.186,42.4 188.178,43.948 187.944,45.73 C188.376,45.712 189.888,45.64 191.112,45.262 C192.012,44.974 192.588,44.488 192.588,43.624 C192.588,42.814 192.012,42.4 191.076,42.4 Z M199.158,50.806 C196.458,50.806 195.54,48.97 195.54,46.774 C195.54,43.75 197.34,41.158 200.49,41.158 C202.506,41.158 203.46,42.238 203.46,43.552 C203.46,45.1 202.434,45.982 201.048,46.414 C199.68,46.846 198.06,46.936 197.178,46.972 C197.196,48.232 197.502,49.51 199.41,49.51 C200.724,49.51 201.48,48.736 201.768,47.782 L203.118,48.088 C202.578,49.924 200.994,50.806 199.158,50.806 Z M200.382,42.4 C198.492,42.4 197.484,43.948 197.25,45.73 C197.682,45.712 199.194,45.64 200.418,45.262 C201.318,44.974 201.894,44.488 201.894,43.624 C201.894,42.814 201.318,42.4 200.382,42.4 Z M213.72,49.078 C213.306,49.312 212.658,49.546 212.064,49.546 C210.966,49.546 210.858,48.934 211.002,47.962 L211.776,42.544 L214.314,42.544 L214.476,41.338 L211.938,41.338 L212.334,38.44 L210.678,38.674 L210.3,41.338 L208.86,41.338 L208.698,42.544 L210.138,42.544 L209.346,48.142 C209.076,49.978 209.922,50.806 211.686,50.806 C212.514,50.806 213.432,50.536 213.936,50.23 L213.72,49.078 Z M218.094,43.93 C219.012,43.228 220.002,42.526 221.172,42.526 C222.18,42.526 222.63,43.102 222.432,44.506 L221.586,50.59 L223.224,50.59 L224.088,44.326 C224.376,42.202 223.512,41.158 221.64,41.158 C220.218,41.158 218.94,42.004 218.22,42.616 L219.048,37 L217.428,37 L215.52,50.59 L217.158,50.59 L218.094,43.93 Z M229.65,50.806 C226.95,50.806 226.032,48.97 226.032,46.774 C226.032,43.75 227.832,41.158 230.982,41.158 C232.998,41.158 233.952,42.238 233.952,43.552 C233.952,45.1 232.926,45.982 231.54,46.414 C230.172,46.846 228.552,46.936 227.67,46.972 C227.688,48.232 227.994,49.51 229.902,49.51 C231.216,49.51 231.972,48.736 232.26,47.782 L233.61,48.088 C233.07,49.924 231.486,50.806 229.65,50.806 Z M230.874,42.4 C228.984,42.4 227.976,43.948 227.742,45.73 C228.174,45.712 229.686,45.64 230.91,45.262 C231.81,44.974 232.386,44.488 232.386,43.624 C232.386,42.814 231.81,42.4 230.874,42.4 Z M243.276,41.158 C241.494,41.158 239.766,42.004 239.766,43.966 C239.766,45.856 241.278,46.198 242.574,46.558 C243.564,46.828 244.428,47.134 244.428,48.106 C244.428,49.258 243.348,49.582 242.376,49.582 C240.774,49.582 240.324,48.736 240.198,47.692 L238.848,47.998 C239.01,49.834 240.108,50.806 242.286,50.806 C244.518,50.806 246.03,49.744 246.03,47.872 C246.03,45.946 244.356,45.622 243.006,45.226 C242.088,44.956 241.314,44.632 241.314,43.75 C241.314,43.03 241.782,42.346 243.24,42.346 C244.59,42.346 245.058,43.174 245.112,44.2 L246.498,44.002 C246.408,42.382 245.472,41.158 243.276,41.158 Z M247.866,50.59 L249.504,50.59 L251.412,37 L249.774,37 L247.866,50.59 Z M255.246,41.338 L253.608,41.338 L252.312,50.59 L253.95,50.59 L255.246,41.338 Z M256.038,38.188 C256.038,37.576 255.678,37.234 255.03,37.234 C254.202,37.234 253.698,37.72 253.698,38.566 C253.698,39.16 254.058,39.52 254.706,39.52 C255.534,39.52 256.038,39.016 256.038,38.188 Z M264.354,50.59 L262.932,50.59 L263.022,49.528 L263.022,49.51 C262.158,50.23 261.06,50.806 259.89,50.806 C258.072,50.806 256.866,49.726 256.866,47.278 C256.866,42.814 259.224,41.158 261.438,41.158 C262.518,41.158 263.346,41.59 263.94,42.112 L264.642,37 L266.262,37 L264.354,50.59 Z M263.04,48.268 L263.724,43.3 C263.346,42.976 262.59,42.454 261.618,42.454 C259.368,42.454 258.522,44.812 258.522,47.188 C258.522,48.628 259.008,49.42 260.178,49.474 C260.538,49.474 260.898,49.42 261.258,49.312 C261.942,49.096 262.59,48.682 263.04,48.268 Z M270.834,50.806 C268.134,50.806 267.216,48.97 267.216,46.774 C267.216,43.75 269.016,41.158 272.166,41.158 C274.182,41.158 275.136,42.238 275.136,43.552 C275.136,45.1 274.11,45.982 272.724,46.414 C271.356,46.846 269.736,46.936 268.854,46.972 C268.872,48.232 269.178,49.51 271.086,49.51 C272.4,49.51 273.156,48.736 273.444,47.782 L274.794,48.088 C274.254,49.924 272.67,50.806 270.834,50.806 Z M272.058,42.4 C270.168,42.4 269.16,43.948 268.926,45.73 C269.358,45.712 270.87,45.64 272.094,45.262 C272.994,44.974 273.57,44.488 273.57,43.624 C273.57,42.814 272.994,42.4 272.058,42.4 Z M280.608,41.158 C278.826,41.158 277.098,42.004 277.098,43.966 C277.098,45.856 278.61,46.198 279.906,46.558 C280.896,46.828 281.76,47.134 281.76,48.106 C281.76,49.258 280.68,49.582 279.708,49.582 C278.106,49.582 277.656,48.736 277.53,47.692 L276.18,47.998 C276.342,49.834 277.44,50.806 279.618,50.806 C281.85,50.806 283.362,49.744 283.362,47.872 C283.362,45.946 281.688,45.622 280.338,45.226 C279.42,44.956 278.646,44.632 278.646,43.75 C278.646,43.03 279.114,42.346 280.572,42.346 C281.922,42.346 282.39,43.174 282.444,44.2 L283.83,44.002 C283.74,42.382 282.804,41.158 280.608,41.158 Z M292.83,50.806 C290.22,50.806 289.104,49.312 289.104,47.044 C289.104,46.648 289.122,46.252 289.176,45.874 C289.554,43.084 291.246,41.158 294.198,41.158 C296.862,41.158 297.816,42.814 297.816,44.92 C297.816,45.316 297.798,45.676 297.744,46.09 C297.384,49.006 295.71,50.806 292.83,50.806 Z M292.974,49.564 C294.63,49.564 295.8,48.376 296.088,45.964 C296.124,45.604 296.142,45.262 296.142,44.902 C296.142,43.264 295.404,42.472 294,42.472 C292.326,42.472 291.102,43.606 290.814,45.964 C290.778,46.288 290.76,46.63 290.76,46.972 C290.76,48.664 291.498,49.564 292.974,49.564 Z M302.046,43.912 C302.712,43.372 303.954,42.526 305.142,42.526 C306.15,42.526 306.582,43.138 306.384,44.506 L305.538,50.59 L307.176,50.59 L308.04,44.326 C308.328,42.202 307.428,41.158 305.628,41.158 C304.152,41.158 302.856,41.986 302.136,42.616 L302.118,42.616 L302.316,41.338 L300.768,41.338 L299.472,50.59 L301.11,50.59 L302.046,43.912 Z M318.858,49.078 C318.444,49.312 317.796,49.546 317.202,49.546 C316.104,49.546 315.996,48.934 316.14,47.962 L316.914,42.544 L319.452,42.544 L319.614,41.338 L317.076,41.338 L317.472,38.44 L315.816,38.674 L315.438,41.338 L313.998,41.338 L313.836,42.544 L315.276,42.544 L314.484,48.142 C314.214,49.978 315.06,50.806 316.824,50.806 C317.652,50.806 318.57,50.536 319.074,50.23 L318.858,49.078 Z M323.232,43.93 C324.15,43.228 325.14,42.526 326.31,42.526 C327.318,42.526 327.768,43.102 327.57,44.506 L326.724,50.59 L328.362,50.59 L329.226,44.326 C329.514,42.202 328.65,41.158 326.778,41.158 C325.356,41.158 324.078,42.004 323.358,42.616 L324.186,37 L322.566,37 L320.658,50.59 L322.296,50.59 L323.232,43.93 Z M334.788,50.806 C332.088,50.806 331.17,48.97 331.17,46.774 C331.17,43.75 332.97,41.158 336.12,41.158 C338.136,41.158 339.09,42.238 339.09,43.552 C339.09,45.1 338.064,45.982 336.678,46.414 C335.31,46.846 333.69,46.936 332.808,46.972 C332.826,48.232 333.132,49.51 335.04,49.51 C336.354,49.51 337.11,48.736 337.398,47.782 L338.748,48.088 C338.208,49.924 336.624,50.806 334.788,50.806 Z M336.012,42.4 C334.122,42.4 333.114,43.948 332.88,45.73 C333.312,45.712 334.824,45.64 336.048,45.262 C336.948,44.974 337.524,44.488 337.524,43.624 C337.524,42.814 336.948,42.4 336.012,42.4 Z M343.338,41.338 L341.7,41.338 L340.404,50.59 L342.042,50.59 L343.338,41.338 Z M344.13,38.188 C344.13,37.576 343.77,37.234 343.122,37.234 C342.294,37.234 341.79,37.72 341.79,38.566 C341.79,39.16 342.15,39.52 342.798,39.52 C343.626,39.52 344.13,39.016 344.13,38.188 Z M347.424,44.146 C348.504,43.21 349.512,42.706 350.718,42.814 L350.952,41.194 C350.808,41.176 350.664,41.176 350.52,41.176 C349.26,41.176 348.45,41.842 347.496,42.904 L347.694,41.338 L346.182,41.338 L344.886,50.59 L346.524,50.59 L347.424,44.146 Z M77.136,78.59 L75.714,78.59 L75.804,77.528 L75.804,77.51 C74.94,78.23 73.842,78.806 72.672,78.806 C70.854,78.806 69.648,77.726 69.648,75.278 C69.648,70.814 72.006,69.158 74.22,69.158 C75.3,69.158 76.128,69.59 76.722,70.112 L77.424,65 L79.044,65 L77.136,78.59 Z M75.822,76.268 L76.506,71.3 C76.128,70.976 75.372,70.454 74.4,70.454 C72.15,70.454 71.304,72.812 71.304,75.188 C71.304,76.628 71.79,77.42 72.96,77.474 C73.32,77.474 73.68,77.42 74.04,77.312 C74.724,77.096 75.372,76.682 75.822,76.268 Z M83.616,78.806 C80.916,78.806 79.998,76.97 79.998,74.774 C79.998,71.75 81.798,69.158 84.948,69.158 C86.964,69.158 87.918,70.238 87.918,71.552 C87.918,73.1 86.892,73.982 85.506,74.414 C84.138,74.846 82.518,74.936 81.636,74.972 C81.654,76.232 81.96,77.51 83.868,77.51 C85.182,77.51 85.938,76.736 86.226,75.782 L87.576,76.088 C87.036,77.924 85.452,78.806 83.616,78.806 Z M84.84,70.4 C82.95,70.4 81.942,71.948 81.708,73.73 C82.14,73.712 83.652,73.64 84.876,73.262 C85.776,72.974 86.352,72.488 86.352,71.624 C86.352,70.814 85.776,70.4 84.84,70.4 Z M93.21,78.59 L97.836,69.338 L96.162,69.338 L92.526,77.024 L92.508,77.024 L91.014,69.338 L89.268,69.338 L91.356,78.59 L93.21,78.59 Z M101.166,69.338 L99.528,69.338 L98.232,78.59 L99.87,78.59 L101.166,69.338 Z M101.958,66.188 C101.958,65.576 101.598,65.234 100.95,65.234 C100.122,65.234 99.618,65.72 99.618,66.566 C99.618,67.16 99.978,67.52 100.626,67.52 C101.454,67.52 101.958,67.016 101.958,66.188 Z M106.458,78.806 C108.348,78.806 110.004,77.906 110.526,75.818 L109.104,75.548 C108.708,76.862 107.826,77.51 106.584,77.51 C105.414,77.51 104.442,76.808 104.442,74.828 C104.442,71.48 106.134,70.472 107.592,70.472 C109.122,70.472 109.5,71.426 109.428,72.884 L110.922,72.776 C111.138,70.688 109.968,69.158 107.772,69.158 C104.838,69.158 102.732,71.228 102.732,74.9 C102.732,77.204 103.848,78.806 106.458,78.806 Z M115.998,78.806 C113.298,78.806 112.38,76.97 112.38,74.774 C112.38,71.75 114.18,69.158 117.33,69.158 C119.346,69.158 120.3,70.238 120.3,71.552 C120.3,73.1 119.274,73.982 117.888,74.414 C116.52,74.846 114.9,74.936 114.018,74.972 C114.036,76.232 114.342,77.51 116.25,77.51 C117.564,77.51 118.32,76.736 118.608,75.782 L119.958,76.088 C119.418,77.924 117.834,78.806 115.998,78.806 Z M117.222,70.4 C115.332,70.4 114.324,71.948 114.09,73.73 C114.522,73.712 116.034,73.64 117.258,73.262 C118.158,72.974 118.734,72.488 118.734,71.624 C118.734,70.814 118.158,70.4 117.222,70.4 Z M125.772,69.158 C123.99,69.158 122.262,70.004 122.262,71.966 C122.262,73.856 123.774,74.198 125.07,74.558 C126.06,74.828 126.924,75.134 126.924,76.106 C126.924,77.258 125.844,77.582 124.872,77.582 C123.27,77.582 122.82,76.736 122.694,75.692 L121.344,75.998 C121.506,77.834 122.604,78.806 124.782,78.806 C127.014,78.806 128.526,77.744 128.526,75.872 C128.526,73.946 126.852,73.622 125.502,73.226 C124.584,72.956 123.81,72.632 123.81,71.75 C123.81,71.03 124.278,70.346 125.736,70.346 C127.086,70.346 127.554,71.174 127.608,72.2 L128.994,72.002 C128.904,70.382 127.968,69.158 125.772,69.158 Z M129.138,80.732 L130.416,80.894 L132.54,76.718 L130.704,76.718 L129.138,80.732 Z M147.246,69.338 L146.184,76.844 C146.112,77.348 146.184,77.618 146.634,77.618 C146.796,77.618 146.958,77.6 147.21,77.528 L147.102,78.518 C146.832,78.626 146.4,78.698 146.04,78.698 C145.176,78.698 144.672,78.338 144.69,77.384 C143.916,78.23 142.692,78.806 141.486,78.806 C139.74,78.806 138.498,77.762 138.498,75.224 C138.498,72.182 139.92,69.158 143.016,69.158 C144.078,69.158 145.014,69.644 145.59,70.148 L145.734,69.338 L147.246,69.338 Z M144.69,76.16 L145.356,71.408 C144.888,70.958 144.006,70.508 143.106,70.508 C140.856,70.508 140.154,73.226 140.154,75.08 C140.154,76.844 140.838,77.492 141.936,77.492 C142.8,77.492 143.574,77.186 144.69,76.16 Z M151.584,71.912 C152.25,71.372 153.492,70.526 154.68,70.526 C155.688,70.526 156.12,71.138 155.922,72.506 L155.076,78.59 L156.714,78.59 L157.578,72.326 C157.866,70.202 156.966,69.158 155.166,69.158 C153.69,69.158 152.394,69.986 151.674,70.616 L151.656,70.616 L151.854,69.338 L150.306,69.338 L149.01,78.59 L150.648,78.59 L151.584,71.912 Z M167.046,78.59 L165.624,78.59 L165.714,77.528 L165.714,77.51 C164.85,78.23 163.752,78.806 162.582,78.806 C160.764,78.806 159.558,77.726 159.558,75.278 C159.558,70.814 161.916,69.158 164.13,69.158 C165.21,69.158 166.038,69.59 166.632,70.112 L167.334,65 L168.954,65 L167.046,78.59 Z M165.732,76.268 L166.416,71.3 C166.038,70.976 165.282,70.454 164.31,70.454 C162.06,70.454 161.214,72.812 161.214,75.188 C161.214,76.628 161.7,77.42 162.87,77.474 C163.23,77.474 163.59,77.42 163.95,77.312 C164.634,77.096 165.282,76.682 165.732,76.268 Z M175.686,78.662 C174.768,80.696 174.282,81.362 173.4,81.362 C172.914,81.362 172.464,81.236 172.122,81.092 L171.834,82.28 C172.176,82.442 172.752,82.604 173.436,82.604 C175.128,82.604 175.776,81.74 177.072,79.166 L181.95,69.338 L180.24,69.338 L176.784,76.79 L175.452,69.338 L173.742,69.338 L175.686,78.662 Z M186.09,78.806 C183.48,78.806 182.364,77.312 182.364,75.044 C182.364,74.648 182.382,74.252 182.436,73.874 C182.814,71.084 184.506,69.158 187.458,69.158 C190.122,69.158 191.076,70.814 191.076,72.92 C191.076,73.316 191.058,73.676 191.004,74.09 C190.644,77.006 188.97,78.806 186.09,78.806 Z M186.234,77.564 C187.89,77.564 189.06,76.376 189.348,73.964 C189.384,73.604 189.402,73.262 189.402,72.902 C189.402,71.264 188.664,70.472 187.26,70.472 C185.586,70.472 184.362,71.606 184.074,73.964 C184.038,74.288 184.02,74.63 184.02,74.972 C184.02,76.664 184.758,77.564 186.234,77.564 Z M199.014,76.124 C198.258,76.79 197.124,77.438 196.026,77.438 C195.234,77.438 194.802,77.15 194.73,76.43 C194.676,76.178 194.694,75.836 194.748,75.422 L195.594,69.338 L193.956,69.338 L193.092,75.584 C192.804,77.708 193.65,78.77 195.504,78.77 C196.908,78.77 198.258,78.014 198.978,77.366 L198.816,78.59 L200.292,78.59 L201.588,69.338 L199.95,69.338 L199.014,76.124 Z M210.768,78.806 C212.658,78.806 214.314,77.906 214.836,75.818 L213.414,75.548 C213.018,76.862 212.136,77.51 210.894,77.51 C209.724,77.51 208.752,76.808 208.752,74.828 C208.752,71.48 210.444,70.472 211.902,70.472 C213.432,70.472 213.81,71.426 213.738,72.884 L215.232,72.776 C215.448,70.688 214.278,69.158 212.082,69.158 C209.148,69.158 207.042,71.228 207.042,74.9 C207.042,77.204 208.158,78.806 210.768,78.806 Z M225.456,69.338 L224.394,76.844 C224.322,77.348 224.394,77.618 224.844,77.618 C225.006,77.618 225.168,77.6 225.42,77.528 L225.312,78.518 C225.042,78.626 224.61,78.698 224.25,78.698 C223.386,78.698 222.882,78.338 222.9,77.384 C222.126,78.23 220.902,78.806 219.696,78.806 C217.95,78.806 216.708,77.762 216.708,75.224 C216.708,72.182 218.13,69.158 221.226,69.158 C222.288,69.158 223.224,69.644 223.8,70.148 L223.944,69.338 L225.456,69.338 Z M222.9,76.16 L223.566,71.408 C223.098,70.958 222.216,70.508 221.316,70.508 C219.066,70.508 218.364,73.226 218.364,75.08 C218.364,76.844 219.048,77.492 220.146,77.492 C221.01,77.492 221.784,77.186 222.9,76.16 Z M229.794,71.912 C230.46,71.372 231.702,70.526 232.89,70.526 C233.898,70.526 234.33,71.138 234.132,72.506 L233.286,78.59 L234.924,78.59 L235.788,72.326 C236.076,70.202 235.176,69.158 233.376,69.158 C231.9,69.158 230.604,69.986 229.884,70.616 L229.866,70.616 L230.064,69.338 L228.516,69.338 L227.22,78.59 L228.858,78.59 L229.794,71.912 Z M249.108,78.59 L247.686,78.59 L247.776,77.528 L247.776,77.51 C246.912,78.23 245.814,78.806 244.644,78.806 C242.826,78.806 241.62,77.726 241.62,75.278 C241.62,70.814 243.978,69.158 246.192,69.158 C247.272,69.158 248.1,69.59 248.694,70.112 L249.396,65 L251.016,65 L249.108,78.59 Z M247.794,76.268 L248.478,71.3 C248.1,70.976 247.344,70.454 246.372,70.454 C244.122,70.454 243.276,72.812 243.276,75.188 C243.276,76.628 243.762,77.42 244.932,77.474 C245.292,77.474 245.652,77.42 246.012,77.312 C246.696,77.096 247.344,76.682 247.794,76.268 Z M254.832,69.338 L253.194,69.338 L251.898,78.59 L253.536,78.59 L254.832,69.338 Z M255.624,66.188 C255.624,65.576 255.264,65.234 254.616,65.234 C253.788,65.234 253.284,65.72 253.284,66.566 C253.284,67.16 253.644,67.52 254.292,67.52 C255.12,67.52 255.624,67.016 255.624,66.188 Z M260.502,69.158 C258.72,69.158 256.992,70.004 256.992,71.966 C256.992,73.856 258.504,74.198 259.8,74.558 C260.79,74.828 261.654,75.134 261.654,76.106 C261.654,77.258 260.574,77.582 259.602,77.582 C258,77.582 257.55,76.736 257.424,75.692 L256.074,75.998 C256.236,77.834 257.334,78.806 259.512,78.806 C261.744,78.806 263.256,77.744 263.256,75.872 C263.256,73.946 261.582,73.622 260.232,73.226 C259.314,72.956 258.54,72.632 258.54,71.75 C258.54,71.03 259.008,70.346 260.466,70.346 C261.816,70.346 262.284,71.174 262.338,72.2 L263.724,72.002 C263.634,70.382 262.698,69.158 260.502,69.158 Z M267.972,69.338 L267.774,70.598 C268.692,69.86 269.862,69.158 271.194,69.158 C272.85,69.158 274.02,70.13 274.02,72.668 C274.02,76.988 271.824,78.806 269.484,78.806 C268.332,78.806 267.414,78.338 266.82,77.816 L266.172,82.406 L264.588,82.406 L266.424,69.338 L267.972,69.338 Z M272.31,72.794 C272.31,71.138 271.806,70.508 270.726,70.508 C269.664,70.508 268.314,71.318 267.702,71.858 L267.054,76.52 C267.396,76.826 268.278,77.456 269.286,77.456 C271.608,77.456 272.31,75.098 272.31,72.794 Z M275.622,78.59 L277.26,78.59 L279.168,65 L277.53,65 L275.622,78.59 Z M288.906,69.338 L287.844,76.844 C287.772,77.348 287.844,77.618 288.294,77.618 C288.456,77.618 288.618,77.6 288.87,77.528 L288.762,78.518 C288.492,78.626 288.06,78.698 287.7,78.698 C286.836,78.698 286.332,78.338 286.35,77.384 C285.576,78.23 284.352,78.806 283.146,78.806 C281.4,78.806 280.158,77.762 280.158,75.224 C280.158,72.182 281.58,69.158 284.676,69.158 C285.738,69.158 286.674,69.644 287.25,70.148 L287.394,69.338 L288.906,69.338 Z M286.35,76.16 L287.016,71.408 C286.548,70.958 285.666,70.508 284.766,70.508 C282.516,70.508 281.814,73.226 281.814,75.08 C281.814,76.844 282.498,77.492 283.596,77.492 C284.46,77.492 285.234,77.186 286.35,76.16 Z M292.632,78.662 L290.688,69.338 L292.398,69.338 L293.73,76.79 L297.186,69.338 L298.896,69.338 L294.018,79.166 C292.722,81.74 292.074,82.604 290.382,82.604 C289.698,82.604 289.122,82.442 288.78,82.28 L289.068,81.092 C289.41,81.236 289.86,81.362 290.346,81.362 C291.228,81.362 291.714,80.696 292.632,78.662 Z M308.202,77.078 C307.788,77.312 307.14,77.546 306.546,77.546 C305.448,77.546 305.34,76.934 305.484,75.962 L306.258,70.544 L308.796,70.544 L308.958,69.338 L306.42,69.338 L306.816,66.44 L305.16,66.674 L304.782,69.338 L303.342,69.338 L303.18,70.544 L304.62,70.544 L303.828,76.142 C303.558,77.978 304.404,78.806 306.168,78.806 C306.996,78.806 307.914,78.536 308.418,78.23 L308.202,77.078 Z M312.576,71.93 C313.494,71.228 314.484,70.526 315.654,70.526 C316.662,70.526 317.112,71.102 316.914,72.506 L316.068,78.59 L317.706,78.59 L318.57,72.326 C318.858,70.202 317.994,69.158 316.122,69.158 C314.7,69.158 313.422,70.004 312.702,70.616 L313.53,65 L311.91,65 L310.002,78.59 L311.64,78.59 L312.576,71.93 Z M324.132,78.806 C321.432,78.806 320.514,76.97 320.514,74.774 C320.514,71.75 322.314,69.158 325.464,69.158 C327.48,69.158 328.434,70.238 328.434,71.552 C328.434,73.1 327.408,73.982 326.022,74.414 C324.654,74.846 323.034,74.936 322.152,74.972 C322.17,76.232 322.476,77.51 324.384,77.51 C325.698,77.51 326.454,76.736 326.742,75.782 L328.092,76.088 C327.552,77.924 325.968,78.806 324.132,78.806 Z M325.356,70.4 C323.466,70.4 322.458,71.948 322.224,73.73 C322.656,73.712 324.168,73.64 325.392,73.262 C326.292,72.974 326.868,72.488 326.868,71.624 C326.868,70.814 326.292,70.4 325.356,70.4 Z M337.758,69.158 C335.976,69.158 334.248,70.004 334.248,71.966 C334.248,73.856 335.76,74.198 337.056,74.558 C338.046,74.828 338.91,75.134 338.91,76.106 C338.91,77.258 337.83,77.582 336.858,77.582 C335.256,77.582 334.806,76.736 334.68,75.692 L333.33,75.998 C333.492,77.834 334.59,78.806 336.768,78.806 C339,78.806 340.512,77.744 340.512,75.872 C340.512,73.946 338.838,73.622 337.488,73.226 C336.57,72.956 335.796,72.632 335.796,71.75 C335.796,71.03 336.264,70.346 337.722,70.346 C339.072,70.346 339.54,71.174 339.594,72.2 L340.98,72.002 C340.89,70.382 339.954,69.158 337.758,69.158 Z M342.348,78.59 L343.986,78.59 L345.894,65 L344.256,65 L342.348,78.59 Z M349.728,69.338 L348.09,69.338 L346.794,78.59 L348.432,78.59 L349.728,69.338 Z M350.52,66.188 C350.52,65.576 350.16,65.234 349.512,65.234 C348.684,65.234 348.18,65.72 348.18,66.566 C348.18,67.16 348.54,67.52 349.188,67.52 C350.016,67.52 350.52,67.016 350.52,66.188 Z M358.836,78.59 L357.414,78.59 L357.504,77.528 L357.504,77.51 C356.64,78.23 355.542,78.806 354.372,78.806 C352.554,78.806 351.348,77.726 351.348,75.278 C351.348,70.814 353.706,69.158 355.92,69.158 C357,69.158 357.828,69.59 358.422,70.112 L359.124,65 L360.744,65 L358.836,78.59 Z M357.522,76.268 L358.206,71.3 C357.828,70.976 357.072,70.454 356.1,70.454 C353.85,70.454 353.004,72.812 353.004,75.188 C353.004,76.628 353.49,77.42 354.66,77.474 C355.02,77.474 355.38,77.42 355.74,77.312 C356.424,77.096 357.072,76.682 357.522,76.268 Z M365.316,78.806 C362.616,78.806 361.698,76.97 361.698,74.774 C361.698,71.75 363.498,69.158 366.648,69.158 C368.664,69.158 369.618,70.238 369.618,71.552 C369.618,73.1 368.592,73.982 367.206,74.414 C365.838,74.846 364.218,74.936 363.336,74.972 C363.354,76.232 363.66,77.51 365.568,77.51 C366.882,77.51 367.638,76.736 367.926,75.782 L369.276,76.088 C368.736,77.924 367.152,78.806 365.316,78.806 Z M366.54,70.4 C364.65,70.4 363.642,71.948 363.408,73.73 C363.84,73.712 365.352,73.64 366.576,73.262 C367.476,72.974 368.052,72.488 368.052,71.624 C368.052,70.814 367.476,70.4 366.54,70.4 Z M375.09,69.158 C373.308,69.158 371.58,70.004 371.58,71.966 C371.58,73.856 373.092,74.198 374.388,74.558 C375.378,74.828 376.242,75.134 376.242,76.106 C376.242,77.258 375.162,77.582 374.19,77.582 C372.588,77.582 372.138,76.736 372.012,75.692 L370.662,75.998 C370.824,77.834 371.922,78.806 374.1,78.806 C376.332,78.806 377.844,77.744 377.844,75.872 C377.844,73.946 376.17,73.622 374.82,73.226 C373.902,72.956 373.128,72.632 373.128,71.75 C373.128,71.03 373.596,70.346 375.054,70.346 C376.404,70.346 376.872,71.174 376.926,72.2 L378.312,72.002 C378.222,70.382 377.286,69.158 375.09,69.158 Z M72.978,106.59 L75.894,99.21 L76.776,106.59 L78.702,106.59 L82.734,97.338 L81.096,97.338 L78,104.898 L77.046,97.338 L75.3,97.338 L72.24,104.934 L71.196,97.338 L69.576,97.338 L71.016,106.59 L72.978,106.59 Z M86.046,97.338 L84.408,97.338 L83.112,106.59 L84.75,106.59 L86.046,97.338 Z M86.838,94.188 C86.838,93.576 86.478,93.234 85.83,93.234 C85.002,93.234 84.498,93.72 84.498,94.566 C84.498,95.16 84.858,95.52 85.506,95.52 C86.334,95.52 86.838,95.016 86.838,94.188 Z M92.652,105.078 C92.238,105.312 91.59,105.546 90.996,105.546 C89.898,105.546 89.79,104.934 89.934,103.962 L90.708,98.544 L93.246,98.544 L93.408,97.338 L90.87,97.338 L91.266,94.44 L89.61,94.674 L89.232,97.338 L87.792,97.338 L87.63,98.544 L89.07,98.544 L88.278,104.142 C88.008,105.978 88.854,106.806 90.618,106.806 C91.446,106.806 92.364,106.536 92.868,106.23 L92.652,105.078 Z M97.026,99.93 C97.944,99.228 98.934,98.526 100.104,98.526 C101.112,98.526 101.562,99.102 101.364,100.506 L100.518,106.59 L102.156,106.59 L103.02,100.326 C103.308,98.202 102.444,97.158 100.572,97.158 C99.15,97.158 97.872,98.004 97.152,98.616 L97.98,93 L96.36,93 L94.452,106.59 L96.09,106.59 L97.026,99.93 Z M117.582,97.338 L116.52,104.844 C116.448,105.348 116.52,105.618 116.97,105.618 C117.132,105.618 117.294,105.6 117.546,105.528 L117.438,106.518 C117.168,106.626 116.736,106.698 116.376,106.698 C115.512,106.698 115.008,106.338 115.026,105.384 C114.252,106.23 113.028,106.806 111.822,106.806 C110.076,106.806 108.834,105.762 108.834,103.224 C108.834,100.182 110.256,97.158 113.352,97.158 C114.414,97.158 115.35,97.644 115.926,98.148 L116.07,97.338 L117.582,97.338 Z M115.026,104.16 L115.692,99.408 C115.224,98.958 114.342,98.508 113.442,98.508 C111.192,98.508 110.49,101.226 110.49,103.08 C110.49,104.844 111.174,105.492 112.272,105.492 C113.136,105.492 113.91,105.186 115.026,104.16 Z M126.042,97.338 L125.844,98.598 C126.762,97.86 127.932,97.158 129.264,97.158 C130.92,97.158 132.09,98.13 132.09,100.668 C132.09,104.988 129.894,106.806 127.554,106.806 C126.402,106.806 125.484,106.338 124.89,105.816 L124.242,110.406 L122.658,110.406 L124.494,97.338 L126.042,97.338 Z M130.38,100.794 C130.38,99.138 129.876,98.508 128.796,98.508 C127.734,98.508 126.384,99.318 125.772,99.858 L125.124,104.52 C125.466,104.826 126.348,105.456 127.356,105.456 C129.678,105.456 130.38,103.098 130.38,100.794 Z M136.266,100.146 C137.346,99.21 138.354,98.706 139.56,98.814 L139.794,97.194 C139.65,97.176 139.506,97.176 139.362,97.176 C138.102,97.176 137.292,97.842 136.338,98.904 L136.536,97.338 L135.024,97.338 L133.728,106.59 L135.366,106.59 L136.266,100.146 Z M144.042,106.806 C141.432,106.806 140.316,105.312 140.316,103.044 C140.316,102.648 140.334,102.252 140.388,101.874 C140.766,99.084 142.458,97.158 145.41,97.158 C148.074,97.158 149.028,98.814 149.028,100.92 C149.028,101.316 149.01,101.676 148.956,102.09 C148.596,105.006 146.922,106.806 144.042,106.806 Z M144.186,105.564 C145.842,105.564 147.012,104.376 147.3,101.964 C147.336,101.604 147.354,101.262 147.354,100.902 C147.354,99.264 146.616,98.472 145.212,98.472 C143.538,98.472 142.314,99.606 142.026,101.964 C141.99,102.288 141.972,102.63 141.972,102.972 C141.972,104.664 142.71,105.564 144.186,105.564 Z M150.468,107.832 L151.944,97.338 L153.582,97.338 L152.106,107.868 C151.818,109.794 150.882,110.604 149.19,110.604 C148.596,110.604 147.696,110.424 147.408,110.226 L147.75,109.02 C148.11,109.164 148.596,109.29 149.046,109.29 C149.784,109.29 150.306,108.948 150.468,107.832 Z M154.374,94.188 C154.374,93.576 153.996,93.234 153.348,93.234 C152.538,93.234 152.016,93.72 152.016,94.566 C152.016,95.16 152.376,95.52 153.024,95.52 C153.87,95.52 154.374,95.016 154.374,94.188 Z M158.784,106.806 C156.084,106.806 155.166,104.97 155.166,102.774 C155.166,99.75 156.966,97.158 160.116,97.158 C162.132,97.158 163.086,98.238 163.086,99.552 C163.086,101.1 162.06,101.982 160.674,102.414 C159.306,102.846 157.686,102.936 156.804,102.972 C156.822,104.232 157.128,105.51 159.036,105.51 C160.35,105.51 161.106,104.736 161.394,103.782 L162.744,104.088 C162.204,105.924 160.62,106.806 158.784,106.806 Z M160.008,98.4 C158.118,98.4 157.11,99.948 156.876,101.73 C157.308,101.712 158.82,101.64 160.044,101.262 C160.944,100.974 161.52,100.488 161.52,99.624 C161.52,98.814 160.944,98.4 160.008,98.4 Z M168.18,106.806 C170.07,106.806 171.726,105.906 172.248,103.818 L170.826,103.548 C170.43,104.862 169.548,105.51 168.306,105.51 C167.136,105.51 166.164,104.808 166.164,102.828 C166.164,99.48 167.856,98.472 169.314,98.472 C170.844,98.472 171.222,99.426 171.15,100.884 L172.644,100.776 C172.86,98.688 171.69,97.158 169.494,97.158 C166.56,97.158 164.454,99.228 164.454,102.9 C164.454,105.204 165.57,106.806 168.18,106.806 Z M179.124,105.078 C178.71,105.312 178.062,105.546 177.468,105.546 C176.37,105.546 176.262,104.934 176.406,103.962 L177.18,98.544 L179.718,98.544 L179.88,97.338 L177.342,97.338 L177.738,94.44 L176.082,94.674 L175.704,97.338 L174.264,97.338 L174.102,98.544 L175.542,98.544 L174.75,104.142 C174.48,105.978 175.326,106.806 177.09,106.806 C177.918,106.806 178.836,106.536 179.34,106.23 L179.124,105.078 Z M184.668,106.806 C182.058,106.806 180.942,105.312 180.942,103.044 C180.942,102.648 180.96,102.252 181.014,101.874 C181.392,99.084 183.084,97.158 186.036,97.158 C188.7,97.158 189.654,98.814 189.654,100.92 C189.654,101.316 189.636,101.676 189.582,102.09 C189.222,105.006 187.548,106.806 184.668,106.806 Z M184.812,105.564 C186.468,105.564 187.638,104.376 187.926,101.964 C187.962,101.604 187.98,101.262 187.98,100.902 C187.98,99.264 187.242,98.472 185.838,98.472 C184.164,98.472 182.94,99.606 182.652,101.964 C182.616,102.288 182.598,102.63 182.598,102.972 C182.598,104.664 183.336,105.564 184.812,105.564 Z M193.848,100.146 C194.928,99.21 195.936,98.706 197.142,98.814 L197.376,97.194 C197.232,97.176 197.088,97.176 196.944,97.176 C195.684,97.176 194.874,97.842 193.92,98.904 L194.118,97.338 L192.606,97.338 L191.31,106.59 L192.948,106.59 L193.848,100.146 Z M205.476,106.806 C202.866,106.806 201.75,105.312 201.75,103.044 C201.75,102.648 201.768,102.252 201.822,101.874 C202.2,99.084 203.892,97.158 206.844,97.158 C209.508,97.158 210.462,98.814 210.462,100.92 C210.462,101.316 210.444,101.676 210.39,102.09 C210.03,105.006 208.356,106.806 205.476,106.806 Z M205.62,105.564 C207.276,105.564 208.446,104.376 208.734,101.964 C208.77,101.604 208.788,101.262 208.788,100.902 C208.788,99.264 208.05,98.472 206.646,98.472 C204.972,98.472 203.748,99.606 203.46,101.964 C203.424,102.288 203.406,102.63 203.406,102.972 C203.406,104.664 204.144,105.564 205.62,105.564 Z M214.656,100.146 C215.736,99.21 216.744,98.706 217.95,98.814 L218.184,97.194 C218.04,97.176 217.896,97.176 217.752,97.176 C216.492,97.176 215.682,97.842 214.728,98.904 L214.926,97.338 L213.414,97.338 L212.118,106.59 L213.756,106.59 L214.656,100.146 Z M226.662,97.158 C224.88,97.158 223.152,98.004 223.152,99.966 C223.152,101.856 224.664,102.198 225.96,102.558 C226.95,102.828 227.814,103.134 227.814,104.106 C227.814,105.258 226.734,105.582 225.762,105.582 C224.16,105.582 223.71,104.736 223.584,103.692 L222.234,103.998 C222.396,105.834 223.494,106.806 225.672,106.806 C227.904,106.806 229.416,105.744 229.416,103.872 C229.416,101.946 227.742,101.622 226.392,101.226 C225.474,100.956 224.7,100.632 224.7,99.75 C224.7,99.03 225.168,98.346 226.626,98.346 C227.976,98.346 228.444,99.174 228.498,100.2 L229.884,100.002 C229.794,98.382 228.858,97.158 226.662,97.158 Z M237.264,97.158 C235.968,97.158 234.852,97.896 233.916,98.67 L233.898,98.67 L234.096,97.338 L232.584,97.338 L231.288,106.59 L232.926,106.59 L233.862,99.912 C234.42,99.444 235.68,98.544 236.742,98.544 C237.534,98.544 237.822,98.886 237.84,99.552 C237.876,99.822 237.84,100.146 237.786,100.524 L236.922,106.59 L238.56,106.59 L239.496,99.84 C240.108,99.336 241.242,98.544 242.232,98.544 C243.024,98.544 243.33,98.886 243.366,99.552 C243.384,99.822 243.366,100.146 243.294,100.524 L242.448,106.59 L244.086,106.59 L244.95,100.308 C245.22,98.418 244.824,97.158 242.772,97.158 C241.494,97.158 240.342,97.842 239.406,98.616 C239.208,97.68 238.56,97.158 237.264,97.158 Z M255.66,97.338 L254.598,104.844 C254.526,105.348 254.598,105.618 255.048,105.618 C255.21,105.618 255.372,105.6 255.624,105.528 L255.516,106.518 C255.246,106.626 254.814,106.698 254.454,106.698 C253.59,106.698 253.086,106.338 253.104,105.384 C252.33,106.23 251.106,106.806 249.9,106.806 C248.154,106.806 246.912,105.762 246.912,103.224 C246.912,100.182 248.334,97.158 251.43,97.158 C252.492,97.158 253.428,97.644 254.004,98.148 L254.148,97.338 L255.66,97.338 Z M253.104,104.16 L253.77,99.408 C253.302,98.958 252.42,98.508 251.52,98.508 C249.27,98.508 248.568,101.226 248.568,103.08 C248.568,104.844 249.252,105.492 250.35,105.492 C251.214,105.492 251.988,105.186 253.104,104.16 Z M259.962,100.146 C261.042,99.21 262.05,98.706 263.256,98.814 L263.49,97.194 C263.346,97.176 263.202,97.176 263.058,97.176 C261.798,97.176 260.988,97.842 260.034,98.904 L260.232,97.338 L258.72,97.338 L257.424,106.59 L259.062,106.59 L259.962,100.146 Z M269.052,105.078 C268.638,105.312 267.99,105.546 267.396,105.546 C266.298,105.546 266.19,104.934 266.334,103.962 L267.108,98.544 L269.646,98.544 L269.808,97.338 L267.27,97.338 L267.666,94.44 L266.01,94.674 L265.632,97.338 L264.192,97.338 L264.03,98.544 L265.47,98.544 L264.678,104.142 C264.408,105.978 265.254,106.806 267.018,106.806 C267.846,106.806 268.764,106.536 269.268,106.23 L269.052,105.078 Z M272.346,106.59 L270.852,106.59 L272.76,93 L274.362,93 L273.57,98.544 C274.506,97.824 275.568,97.158 276.918,97.158 C278.556,97.158 279.726,98.112 279.726,100.668 C279.726,104.952 277.584,106.806 275.316,106.806 C274.182,106.806 273.264,106.392 272.526,105.762 L272.508,105.762 L272.346,106.59 Z M273.426,99.876 L272.778,104.502 C273.138,104.826 273.948,105.438 275.082,105.438 C277.278,105.438 278.034,103.152 278.034,100.794 C278.034,99.21 277.512,98.508 276.414,98.508 C275.37,98.508 274.038,99.336 273.426,99.876 Z M285.126,106.806 C282.516,106.806 281.4,105.312 281.4,103.044 C281.4,102.648 281.418,102.252 281.472,101.874 C281.85,99.084 283.542,97.158 286.494,97.158 C289.158,97.158 290.112,98.814 290.112,100.92 C290.112,101.316 290.094,101.676 290.04,102.09 C289.68,105.006 288.006,106.806 285.126,106.806 Z M285.27,105.564 C286.926,105.564 288.096,104.376 288.384,101.964 C288.42,101.604 288.438,101.262 288.438,100.902 C288.438,99.264 287.7,98.472 286.296,98.472 C284.622,98.472 283.398,99.606 283.11,101.964 C283.074,102.288 283.056,102.63 283.056,102.972 C283.056,104.664 283.794,105.564 285.27,105.564 Z M300.57,97.338 L299.508,104.844 C299.436,105.348 299.508,105.618 299.958,105.618 C300.12,105.618 300.282,105.6 300.534,105.528 L300.426,106.518 C300.156,106.626 299.724,106.698 299.364,106.698 C298.5,106.698 297.996,106.338 298.014,105.384 C297.24,106.23 296.016,106.806 294.81,106.806 C293.064,106.806 291.822,105.762 291.822,103.224 C291.822,100.182 293.244,97.158 296.34,97.158 C297.402,97.158 298.338,97.644 298.914,98.148 L299.058,97.338 L300.57,97.338 Z M298.014,104.16 L298.68,99.408 C298.212,98.958 297.33,98.508 296.43,98.508 C294.18,98.508 293.478,101.226 293.478,103.08 C293.478,104.844 294.162,105.492 295.26,105.492 C296.124,105.492 296.898,105.186 298.014,104.16 Z M304.872,100.146 C305.952,99.21 306.96,98.706 308.166,98.814 L308.4,97.194 C308.256,97.176 308.112,97.176 307.968,97.176 C306.708,97.176 305.898,97.842 304.944,98.904 L305.142,97.338 L303.63,97.338 L302.334,106.59 L303.972,106.59 L304.872,100.146 Z M316.464,106.59 L315.042,106.59 L315.132,105.528 L315.132,105.51 C314.268,106.23 313.17,106.806 312,106.806 C310.182,106.806 308.976,105.726 308.976,103.278 C308.976,98.814 311.334,97.158 313.548,97.158 C314.628,97.158 315.456,97.59 316.05,98.112 L316.752,93 L318.372,93 L316.464,106.59 Z M315.15,104.268 L315.834,99.3 C315.456,98.976 314.7,98.454 313.728,98.454 C311.478,98.454 310.632,100.812 310.632,103.188 C310.632,104.628 311.118,105.42 312.288,105.474 C312.648,105.474 313.008,105.42 313.368,105.312 C314.052,105.096 314.7,104.682 315.15,104.268 Z M321.288,105.42 C321.288,104.79 320.928,104.448 320.226,104.448 C319.308,104.448 318.804,104.934 318.804,105.834 C318.804,106.482 319.182,106.806 319.884,106.806 C320.802,106.806 321.288,106.32 321.288,105.42 Z M329.1,106.59 L330.882,93.558 L329.28,93.558 L327.498,106.59 L329.1,106.59 Z M338.82,93.144 C338.55,93 337.938,92.82 337.146,92.82 C335.418,92.82 334.302,93.774 334.032,95.79 L333.816,97.338 L332.448,97.338 L332.268,98.544 L333.636,98.544 L331.962,110.406 L333.6,110.406 L335.274,98.544 L337.848,98.544 L338.028,97.338 L335.454,97.338 L335.67,95.754 C335.85,94.458 336.48,94.116 337.308,94.116 C337.74,94.116 338.244,94.224 338.586,94.35 L338.82,93.144 Z M343.788,106.662 C342.87,108.696 342.384,109.362 341.502,109.362 C341.016,109.362 340.566,109.236 340.224,109.092 L339.936,110.28 C340.278,110.442 340.854,110.604 341.538,110.604 C343.23,110.604 343.878,109.74 345.174,107.166 L350.052,97.338 L348.342,97.338 L344.886,104.79 L343.554,97.338 L341.844,97.338 L343.788,106.662 Z M354.192,106.806 C351.582,106.806 350.466,105.312 350.466,103.044 C350.466,102.648 350.484,102.252 350.538,101.874 C350.916,99.084 352.608,97.158 355.56,97.158 C358.224,97.158 359.178,98.814 359.178,100.92 C359.178,101.316 359.16,101.676 359.106,102.09 C358.746,105.006 357.072,106.806 354.192,106.806 Z M354.336,105.564 C355.992,105.564 357.162,104.376 357.45,101.964 C357.486,101.604 357.504,101.262 357.504,100.902 C357.504,99.264 356.766,98.472 355.362,98.472 C353.688,98.472 352.464,99.606 352.176,101.964 C352.14,102.288 352.122,102.63 352.122,102.972 C352.122,104.664 352.86,105.564 354.336,105.564 Z M367.116,104.124 C366.36,104.79 365.226,105.438 364.128,105.438 C363.336,105.438 362.904,105.15 362.832,104.43 C362.778,104.178 362.796,103.836 362.85,103.422 L363.696,97.338 L362.058,97.338 L361.194,103.584 C360.906,105.708 361.752,106.77 363.606,106.77 C365.01,106.77 366.36,106.014 367.08,105.366 L366.918,106.59 L368.394,106.59 L369.69,97.338 L368.052,97.338 L367.116,104.124 Z M373.812,100.146 C374.892,99.21 375.9,98.706 377.106,98.814 L377.34,97.194 C377.196,97.176 377.052,97.176 376.908,97.176 C375.648,97.176 374.838,97.842 373.884,98.904 L374.082,97.338 L372.57,97.338 L371.274,106.59 L372.912,106.59 L373.812,100.146 Z M73.698,125.158 C71.916,125.158 70.188,126.004 70.188,127.966 C70.188,129.856 71.7,130.198 72.996,130.558 C73.986,130.828 74.85,131.134 74.85,132.106 C74.85,133.258 73.77,133.582 72.798,133.582 C71.196,133.582 70.746,132.736 70.62,131.692 L69.27,131.998 C69.432,133.834 70.53,134.806 72.708,134.806 C74.94,134.806 76.452,133.744 76.452,131.872 C76.452,129.946 74.778,129.622 73.428,129.226 C72.51,128.956 71.736,128.632 71.736,127.75 C71.736,127.03 72.204,126.346 73.662,126.346 C75.012,126.346 75.48,127.174 75.534,128.2 L76.92,128.002 C76.83,126.382 75.894,125.158 73.698,125.158 Z M83.382,133.078 C82.968,133.312 82.32,133.546 81.726,133.546 C80.628,133.546 80.52,132.934 80.664,131.962 L81.438,126.544 L83.976,126.544 L84.138,125.338 L81.6,125.338 L81.996,122.44 L80.34,122.674 L79.962,125.338 L78.522,125.338 L78.36,126.544 L79.8,126.544 L79.008,132.142 C78.738,133.978 79.584,134.806 81.348,134.806 C82.176,134.806 83.094,134.536 83.598,134.23 L83.382,133.078 Z M91.464,132.124 C90.708,132.79 89.574,133.438 88.476,133.438 C87.684,133.438 87.252,133.15 87.18,132.43 C87.126,132.178 87.144,131.836 87.198,131.422 L88.044,125.338 L86.406,125.338 L85.542,131.584 C85.254,133.708 86.1,134.77 87.954,134.77 C89.358,134.77 90.708,134.014 91.428,133.366 L91.266,134.59 L92.742,134.59 L94.038,125.338 L92.4,125.338 L91.464,132.124 Z M103.182,134.59 L101.76,134.59 L101.85,133.528 L101.85,133.51 C100.986,134.23 99.888,134.806 98.718,134.806 C96.9,134.806 95.694,133.726 95.694,131.278 C95.694,126.814 98.052,125.158 100.266,125.158 C101.346,125.158 102.174,125.59 102.768,126.112 L103.47,121 L105.09,121 L103.182,134.59 Z M101.868,132.268 L102.552,127.3 C102.174,126.976 101.418,126.454 100.446,126.454 C98.196,126.454 97.35,128.812 97.35,131.188 C97.35,132.628 97.836,133.42 99.006,133.474 C99.366,133.474 99.726,133.42 100.086,133.312 C100.77,133.096 101.418,132.682 101.868,132.268 Z M109.662,134.806 C106.962,134.806 106.044,132.97 106.044,130.774 C106.044,127.75 107.844,125.158 110.994,125.158 C113.01,125.158 113.964,126.238 113.964,127.552 C113.964,129.1 112.938,129.982 111.552,130.414 C110.184,130.846 108.564,130.936 107.682,130.972 C107.7,132.232 108.006,133.51 109.914,133.51 C111.228,133.51 111.984,132.736 112.272,131.782 L113.622,132.088 C113.082,133.924 111.498,134.806 109.662,134.806 Z M110.886,126.4 C108.996,126.4 107.988,127.948 107.754,129.73 C108.186,129.712 109.698,129.64 110.922,129.262 C111.822,128.974 112.398,128.488 112.398,127.624 C112.398,126.814 111.822,126.4 110.886,126.4 Z M117.888,127.912 C118.554,127.372 119.796,126.526 120.984,126.526 C121.992,126.526 122.424,127.138 122.226,128.506 L121.38,134.59 L123.018,134.59 L123.882,128.326 C124.17,126.202 123.27,125.158 121.47,125.158 C119.994,125.158 118.698,125.986 117.978,126.616 L117.96,126.616 L118.158,125.338 L116.61,125.338 L115.314,134.59 L116.952,134.59 L117.888,127.912 Z M130.848,133.078 C130.434,133.312 129.786,133.546 129.192,133.546 C128.094,133.546 127.986,132.934 128.13,131.962 L128.904,126.544 L131.442,126.544 L131.604,125.338 L129.066,125.338 L129.462,122.44 L127.806,122.674 L127.428,125.338 L125.988,125.338 L125.826,126.544 L127.266,126.544 L126.474,132.142 C126.204,133.978 127.05,134.806 128.814,134.806 C129.642,134.806 130.56,134.536 131.064,134.23 L130.848,133.078 Z M136.77,125.158 C134.988,125.158 133.26,126.004 133.26,127.966 C133.26,129.856 134.772,130.198 136.068,130.558 C137.058,130.828 137.922,131.134 137.922,132.106 C137.922,133.258 136.842,133.582 135.87,133.582 C134.268,133.582 133.818,132.736 133.692,131.692 L132.342,131.998 C132.504,133.834 133.602,134.806 135.78,134.806 C138.012,134.806 139.524,133.744 139.524,131.872 C139.524,129.946 137.85,129.622 136.5,129.226 C135.582,128.956 134.808,128.632 134.808,127.75 C134.808,127.03 135.276,126.346 136.734,126.346 C138.084,126.346 138.552,127.174 138.606,128.2 L139.992,128.002 C139.902,126.382 138.966,125.158 136.77,125.158 Z M152.808,134.59 L151.386,134.59 L151.476,133.528 L151.476,133.51 C150.612,134.23 149.514,134.806 148.344,134.806 C146.526,134.806 145.32,133.726 145.32,131.278 C145.32,126.814 147.678,125.158 149.892,125.158 C150.972,125.158 151.8,125.59 152.394,126.112 L153.096,121 L154.716,121 L152.808,134.59 Z M151.494,132.268 L152.178,127.3 C151.8,126.976 151.044,126.454 150.072,126.454 C147.822,126.454 146.976,128.812 146.976,131.188 C146.976,132.628 147.462,133.42 148.632,133.474 C148.992,133.474 149.352,133.42 149.712,133.312 C150.396,133.096 151.044,132.682 151.494,132.268 Z M159.378,134.806 C156.768,134.806 155.652,133.312 155.652,131.044 C155.652,130.648 155.67,130.252 155.724,129.874 C156.102,127.084 157.794,125.158 160.746,125.158 C163.41,125.158 164.364,126.814 164.364,128.92 C164.364,129.316 164.346,129.676 164.292,130.09 C163.932,133.006 162.258,134.806 159.378,134.806 Z M159.522,133.564 C161.178,133.564 162.348,132.376 162.636,129.964 C162.672,129.604 162.69,129.262 162.69,128.902 C162.69,127.264 161.952,126.472 160.548,126.472 C158.874,126.472 157.65,127.606 157.362,129.964 C157.326,130.288 157.308,130.63 157.308,130.972 C157.308,132.664 158.046,133.564 159.522,133.564 Z M168.594,127.912 C169.26,127.372 170.502,126.526 171.69,126.526 C172.698,126.526 173.13,127.138 172.932,128.506 L172.086,134.59 L173.724,134.59 L174.588,128.326 C174.876,126.202 173.976,125.158 172.176,125.158 C170.7,125.158 169.404,125.986 168.684,126.616 L168.666,126.616 L168.864,125.338 L167.316,125.338 L166.02,134.59 L167.658,134.59 L168.594,127.912 Z M177.018,124.69 L178.53,120.802 L180.294,120.802 L178.242,124.852 L177.018,124.69 Z M185.208,133.078 L185.424,134.23 C184.92,134.536 184.002,134.806 183.174,134.806 C181.41,134.806 180.564,133.978 180.834,132.142 L181.626,126.544 L180.186,126.544 L180.348,125.338 L181.788,125.338 L182.166,122.674 L183.822,122.44 L183.426,125.338 L185.964,125.338 L185.802,126.544 L183.264,126.544 L182.49,131.962 C182.346,132.934 182.454,133.546 183.552,133.546 C184.146,133.546 184.794,133.312 185.208,133.078 Z M193.434,127.93 C194.352,127.228 195.342,126.526 196.512,126.526 C197.52,126.526 197.97,127.102 197.772,128.506 L196.926,134.59 L198.564,134.59 L199.428,128.326 C199.716,126.202 198.852,125.158 196.98,125.158 C195.558,125.158 194.28,126.004 193.56,126.616 L194.388,121 L192.768,121 L190.86,134.59 L192.498,134.59 L193.434,127.93 Z M210.138,125.338 L209.076,132.844 C209.004,133.348 209.076,133.618 209.526,133.618 C209.688,133.618 209.85,133.6 210.102,133.528 L209.994,134.518 C209.724,134.626 209.292,134.698 208.932,134.698 C208.068,134.698 207.564,134.338 207.582,133.384 C206.808,134.23 205.584,134.806 204.378,134.806 C202.632,134.806 201.39,133.762 201.39,131.224 C201.39,128.182 202.812,125.158 205.908,125.158 C206.97,125.158 207.906,125.644 208.482,126.148 L208.626,125.338 L210.138,125.338 Z M207.582,132.16 L208.248,127.408 C207.78,126.958 206.898,126.508 205.998,126.508 C203.748,126.508 203.046,129.226 203.046,131.08 C203.046,132.844 203.73,133.492 204.828,133.492 C205.692,133.492 206.466,133.186 207.582,132.16 Z M215.844,134.59 L220.47,125.338 L218.796,125.338 L215.16,133.024 L215.142,133.024 L213.648,125.338 L211.902,125.338 L213.99,134.59 L215.844,134.59 Z M224.556,134.806 C221.856,134.806 220.938,132.97 220.938,130.774 C220.938,127.75 222.738,125.158 225.888,125.158 C227.904,125.158 228.858,126.238 228.858,127.552 C228.858,129.1 227.832,129.982 226.446,130.414 C225.078,130.846 223.458,130.936 222.576,130.972 C222.594,132.232 222.9,133.51 224.808,133.51 C226.122,133.51 226.878,132.736 227.166,131.782 L228.516,132.088 C227.976,133.924 226.392,134.806 224.556,134.806 Z M225.78,126.4 C223.89,126.4 222.882,127.948 222.648,129.73 C223.08,129.712 224.592,129.64 225.816,129.262 C226.716,128.974 227.292,128.488 227.292,127.624 C227.292,126.814 226.716,126.4 225.78,126.4 Z M241.62,134.59 L240.198,134.59 L240.288,133.528 L240.288,133.51 C239.424,134.23 238.326,134.806 237.156,134.806 C235.338,134.806 234.132,133.726 234.132,131.278 C234.132,126.814 236.49,125.158 238.704,125.158 C239.784,125.158 240.612,125.59 241.206,126.112 L241.908,121 L243.528,121 L241.62,134.59 Z M240.306,132.268 L240.99,127.3 C240.612,126.976 239.856,126.454 238.884,126.454 C236.634,126.454 235.788,128.812 235.788,131.188 C235.788,132.628 236.274,133.42 237.444,133.474 C237.804,133.474 238.164,133.42 238.524,133.312 C239.208,133.096 239.856,132.682 240.306,132.268 Z M248.1,134.806 C245.4,134.806 244.482,132.97 244.482,130.774 C244.482,127.75 246.282,125.158 249.432,125.158 C251.448,125.158 252.402,126.238 252.402,127.552 C252.402,129.1 251.376,129.982 249.99,130.414 C248.622,130.846 247.002,130.936 246.12,130.972 C246.138,132.232 246.444,133.51 248.352,133.51 C249.666,133.51 250.422,132.736 250.71,131.782 L252.06,132.088 C251.52,133.924 249.936,134.806 248.1,134.806 Z M249.324,126.4 C247.434,126.4 246.426,127.948 246.192,129.73 C246.624,129.712 248.136,129.64 249.36,129.262 C250.26,128.974 250.836,128.488 250.836,127.624 C250.836,126.814 250.26,126.4 249.324,126.4 Z M257.694,134.59 L262.32,125.338 L260.646,125.338 L257.01,133.024 L256.992,133.024 L255.498,125.338 L253.752,125.338 L255.84,134.59 L257.694,134.59 Z M265.65,125.338 L264.012,125.338 L262.716,134.59 L264.354,134.59 L265.65,125.338 Z M266.442,122.188 C266.442,121.576 266.082,121.234 265.434,121.234 C264.606,121.234 264.102,121.72 264.102,122.566 C264.102,123.16 264.462,123.52 265.11,123.52 C265.938,123.52 266.442,123.016 266.442,122.188 Z M270.942,134.806 C272.832,134.806 274.488,133.906 275.01,131.818 L273.588,131.548 C273.192,132.862 272.31,133.51 271.068,133.51 C269.898,133.51 268.926,132.808 268.926,130.828 C268.926,127.48 270.618,126.472 272.076,126.472 C273.606,126.472 273.984,127.426 273.912,128.884 L275.406,128.776 C275.622,126.688 274.452,125.158 272.256,125.158 C269.322,125.158 267.216,127.228 267.216,130.9 C267.216,133.204 268.332,134.806 270.942,134.806 Z M280.482,134.806 C277.782,134.806 276.864,132.97 276.864,130.774 C276.864,127.75 278.664,125.158 281.814,125.158 C283.83,125.158 284.784,126.238 284.784,127.552 C284.784,129.1 283.758,129.982 282.372,130.414 C281.004,130.846 279.384,130.936 278.502,130.972 C278.52,132.232 278.826,133.51 280.734,133.51 C282.048,133.51 282.804,132.736 283.092,131.782 L284.442,132.088 C283.902,133.924 282.318,134.806 280.482,134.806 Z M281.706,126.4 C279.816,126.4 278.808,127.948 278.574,129.73 C279.006,129.712 280.518,129.64 281.742,129.262 C282.642,128.974 283.218,128.488 283.218,127.624 C283.218,126.814 282.642,126.4 281.706,126.4 Z M290.256,125.158 C288.474,125.158 286.746,126.004 286.746,127.966 C286.746,129.856 288.258,130.198 289.554,130.558 C290.544,130.828 291.408,131.134 291.408,132.106 C291.408,133.258 290.328,133.582 289.356,133.582 C287.754,133.582 287.304,132.736 287.178,131.692 L285.828,131.998 C285.99,133.834 287.088,134.806 289.266,134.806 C291.498,134.806 293.01,133.744 293.01,131.872 C293.01,129.946 291.336,129.622 289.986,129.226 C289.068,128.956 288.294,128.632 288.294,127.75 C288.294,127.03 288.762,126.346 290.22,126.346 C291.57,126.346 292.038,127.174 292.092,128.2 L293.478,128.002 C293.388,126.382 292.452,125.158 290.256,125.158 Z M293.622,136.732 L294.9,136.894 L297.024,132.718 L295.188,132.718 L293.622,136.732 Z M304.89,134.662 C303.972,136.696 303.486,137.362 302.604,137.362 C302.118,137.362 301.668,137.236 301.326,137.092 L301.038,138.28 C301.38,138.442 301.956,138.604 302.64,138.604 C304.332,138.604 304.98,137.74 306.276,135.166 L311.154,125.338 L309.444,125.338 L305.988,132.79 L304.656,125.338 L302.946,125.338 L304.89,134.662 Z M315.294,134.806 C312.684,134.806 311.568,133.312 311.568,131.044 C311.568,130.648 311.586,130.252 311.64,129.874 C312.018,127.084 313.71,125.158 316.662,125.158 C319.326,125.158 320.28,126.814 320.28,128.92 C320.28,129.316 320.262,129.676 320.208,130.09 C319.848,133.006 318.174,134.806 315.294,134.806 Z M315.438,133.564 C317.094,133.564 318.264,132.376 318.552,129.964 C318.588,129.604 318.606,129.262 318.606,128.902 C318.606,127.264 317.868,126.472 316.464,126.472 C314.79,126.472 313.566,127.606 313.278,129.964 C313.242,130.288 313.224,130.63 313.224,130.972 C313.224,132.664 313.962,133.564 315.438,133.564 Z M328.218,132.124 C327.462,132.79 326.328,133.438 325.23,133.438 C324.438,133.438 324.006,133.15 323.934,132.43 C323.88,132.178 323.898,131.836 323.952,131.422 L324.798,125.338 L323.16,125.338 L322.296,131.584 C322.008,133.708 322.854,134.77 324.708,134.77 C326.112,134.77 327.462,134.014 328.182,133.366 L328.02,134.59 L329.496,134.59 L330.792,125.338 L329.154,125.338 L328.218,132.124 Z M339.972,134.806 C341.862,134.806 343.518,133.906 344.04,131.818 L342.618,131.548 C342.222,132.862 341.34,133.51 340.098,133.51 C338.928,133.51 337.956,132.808 337.956,130.828 C337.956,127.48 339.648,126.472 341.106,126.472 C342.636,126.472 343.014,127.426 342.942,128.884 L344.436,128.776 C344.652,126.688 343.482,125.158 341.286,125.158 C338.352,125.158 336.246,127.228 336.246,130.9 C336.246,133.204 337.362,134.806 339.972,134.806 Z M354.66,125.338 L353.598,132.844 C353.526,133.348 353.598,133.618 354.048,133.618 C354.21,133.618 354.372,133.6 354.624,133.528 L354.516,134.518 C354.246,134.626 353.814,134.698 353.454,134.698 C352.59,134.698 352.086,134.338 352.104,133.384 C351.33,134.23 350.106,134.806 348.9,134.806 C347.154,134.806 345.912,133.762 345.912,131.224 C345.912,128.182 347.334,125.158 350.43,125.158 C351.492,125.158 352.428,125.644 353.004,126.148 L353.148,125.338 L354.66,125.338 Z M352.104,132.16 L352.77,127.408 C352.302,126.958 351.42,126.508 350.52,126.508 C348.27,126.508 347.568,129.226 347.568,131.08 C347.568,132.844 348.252,133.492 349.35,133.492 C350.214,133.492 350.988,133.186 352.104,132.16 Z M358.998,127.912 C359.664,127.372 360.906,126.526 362.094,126.526 C363.102,126.526 363.534,127.138 363.336,128.506 L362.49,134.59 L364.128,134.59 L364.992,128.326 C365.28,126.202 364.38,125.158 362.58,125.158 C361.104,125.158 359.808,125.986 359.088,126.616 L359.07,126.616 L359.268,125.338 L357.72,125.338 L356.424,134.59 L358.062,134.59 L358.998,127.912 Z M379.554,125.338 L378.492,132.844 C378.42,133.348 378.492,133.618 378.942,133.618 C379.104,133.618 379.266,133.6 379.518,133.528 L379.41,134.518 C379.14,134.626 378.708,134.698 378.348,134.698 C377.484,134.698 376.98,134.338 376.998,133.384 C376.224,134.23 375,134.806 373.794,134.806 C372.048,134.806 370.806,133.762 370.806,131.224 C370.806,128.182 372.228,125.158 375.324,125.158 C376.386,125.158 377.322,125.644 377.898,126.148 L378.042,125.338 L379.554,125.338 Z M376.998,132.16 L377.664,127.408 C377.196,126.958 376.314,126.508 375.414,126.508 C373.164,126.508 372.462,129.226 372.462,131.08 C372.462,132.844 373.146,133.492 374.244,133.492 C375.108,133.492 375.882,133.186 376.998,132.16 Z M385.44,125.158 C383.658,125.158 381.93,126.004 381.93,127.966 C381.93,129.856 383.442,130.198 384.738,130.558 C385.728,130.828 386.592,131.134 386.592,132.106 C386.592,133.258 385.512,133.582 384.54,133.582 C382.938,133.582 382.488,132.736 382.362,131.692 L381.012,131.998 C381.174,133.834 382.272,134.806 384.45,134.806 C386.682,134.806 388.194,133.744 388.194,131.872 C388.194,129.946 386.52,129.622 385.17,129.226 C384.252,128.956 383.478,128.632 383.478,127.75 C383.478,127.03 383.946,126.346 385.404,126.346 C386.754,126.346 387.222,127.174 387.276,128.2 L388.662,128.002 C388.572,126.382 387.636,125.158 385.44,125.158 Z M397.77,134.59 L395.16,128.686 L398.832,125.338 L396.888,125.338 L392.424,129.388 L393.612,121 L391.974,121 L390.066,134.59 L391.704,134.59 L392.172,131.224 L393.81,129.784 L395.97,134.59 L397.77,134.59 Z M74.634,161.078 C74.22,161.312 73.572,161.546 72.978,161.546 C71.88,161.546 71.772,160.934 71.916,159.962 L72.69,154.544 L75.228,154.544 L75.39,153.338 L72.852,153.338 L73.248,150.44 L71.592,150.674 L71.214,153.338 L69.774,153.338 L69.612,154.544 L71.052,154.544 L70.26,160.142 C69.99,161.978 70.836,162.806 72.6,162.806 C73.428,162.806 74.346,162.536 74.85,162.23 L74.634,161.078 Z M79.008,155.93 C79.926,155.228 80.916,154.526 82.086,154.526 C83.094,154.526 83.544,155.102 83.346,156.506 L82.5,162.59 L84.138,162.59 L85.002,156.326 C85.29,154.202 84.426,153.158 82.554,153.158 C81.132,153.158 79.854,154.004 79.134,154.616 L79.962,149 L78.342,149 L76.434,162.59 L78.072,162.59 L79.008,155.93 Z M90.564,162.806 C87.864,162.806 86.946,160.97 86.946,158.774 C86.946,155.75 88.746,153.158 91.896,153.158 C93.912,153.158 94.866,154.238 94.866,155.552 C94.866,157.1 93.84,157.982 92.454,158.414 C91.086,158.846 89.466,158.936 88.584,158.972 C88.602,160.232 88.908,161.51 90.816,161.51 C92.13,161.51 92.886,160.736 93.174,159.782 L94.524,160.088 C93.984,161.924 92.4,162.806 90.564,162.806 Z M91.788,154.4 C89.898,154.4 88.89,155.948 88.656,157.73 C89.088,157.712 90.6,157.64 91.824,157.262 C92.724,156.974 93.3,156.488 93.3,155.624 C93.3,154.814 92.724,154.4 91.788,154.4 Z M102.192,153.158 C100.896,153.158 99.78,153.896 98.844,154.67 L98.826,154.67 L99.024,153.338 L97.512,153.338 L96.216,162.59 L97.854,162.59 L98.79,155.912 C99.348,155.444 100.608,154.544 101.67,154.544 C102.462,154.544 102.75,154.886 102.768,155.552 C102.804,155.822 102.768,156.146 102.714,156.524 L101.85,162.59 L103.488,162.59 L104.424,155.84 C105.036,155.336 106.17,154.544 107.16,154.544 C107.952,154.544 108.258,154.886 108.294,155.552 C108.312,155.822 108.294,156.146 108.222,156.524 L107.376,162.59 L109.014,162.59 L109.878,156.308 C110.148,154.418 109.752,153.158 107.7,153.158 C106.422,153.158 105.27,153.842 104.334,154.616 C104.136,153.68 103.488,153.158 102.192,153.158 Z M120.696,161.078 C120.282,161.312 119.634,161.546 119.04,161.546 C117.942,161.546 117.834,160.934 117.978,159.962 L118.752,154.544 L121.29,154.544 L121.452,153.338 L118.914,153.338 L119.31,150.44 L117.654,150.674 L117.276,153.338 L115.836,153.338 L115.674,154.544 L117.114,154.544 L116.322,160.142 C116.052,161.978 116.898,162.806 118.662,162.806 C119.49,162.806 120.408,162.536 120.912,162.23 L120.696,161.078 Z M126.24,162.806 C123.63,162.806 122.514,161.312 122.514,159.044 C122.514,158.648 122.532,158.252 122.586,157.874 C122.964,155.084 124.656,153.158 127.608,153.158 C130.272,153.158 131.226,154.814 131.226,156.92 C131.226,157.316 131.208,157.676 131.154,158.09 C130.794,161.006 129.12,162.806 126.24,162.806 Z M126.384,161.564 C128.04,161.564 129.21,160.376 129.498,157.964 C129.534,157.604 129.552,157.262 129.552,156.902 C129.552,155.264 128.814,154.472 127.41,154.472 C125.736,154.472 124.512,155.606 124.224,157.964 C124.188,158.288 124.17,158.63 124.17,158.972 C124.17,160.664 124.908,161.564 126.384,161.564 Z M145.536,153.338 L144.474,160.844 C144.402,161.348 144.474,161.618 144.924,161.618 C145.086,161.618 145.248,161.6 145.5,161.528 L145.392,162.518 C145.122,162.626 144.69,162.698 144.33,162.698 C143.466,162.698 142.962,162.338 142.98,161.384 C142.206,162.23 140.982,162.806 139.776,162.806 C138.03,162.806 136.788,161.762 136.788,159.224 C136.788,156.182 138.21,153.158 141.306,153.158 C142.368,153.158 143.304,153.644 143.88,154.148 L144.024,153.338 L145.536,153.338 Z M142.98,160.16 L143.646,155.408 C143.178,154.958 142.296,154.508 141.396,154.508 C139.146,154.508 138.444,157.226 138.444,159.08 C138.444,160.844 139.128,161.492 140.226,161.492 C141.09,161.492 141.864,161.186 142.98,160.16 Z M149.874,155.912 C150.54,155.372 151.782,154.526 152.97,154.526 C153.978,154.526 154.41,155.138 154.212,156.506 L153.366,162.59 L155.004,162.59 L155.868,156.326 C156.156,154.202 155.256,153.158 153.456,153.158 C151.98,153.158 150.684,153.986 149.964,154.616 L149.946,154.616 L150.144,153.338 L148.596,153.338 L147.3,162.59 L148.938,162.59 L149.874,155.912 Z M161.898,153.158 C160.116,153.158 158.388,154.004 158.388,155.966 C158.388,157.856 159.9,158.198 161.196,158.558 C162.186,158.828 163.05,159.134 163.05,160.106 C163.05,161.258 161.97,161.582 160.998,161.582 C159.396,161.582 158.946,160.736 158.82,159.692 L157.47,159.998 C157.632,161.834 158.73,162.806 160.908,162.806 C163.14,162.806 164.652,161.744 164.652,159.872 C164.652,157.946 162.978,157.622 161.628,157.226 C160.71,156.956 159.936,156.632 159.936,155.75 C159.936,155.03 160.404,154.346 161.862,154.346 C163.212,154.346 163.68,155.174 163.734,156.2 L165.12,156.002 C165.03,154.382 164.094,153.158 161.898,153.158 Z M169.926,162.59 L172.842,155.21 L173.724,162.59 L175.65,162.59 L179.682,153.338 L178.044,153.338 L174.948,160.898 L173.994,153.338 L172.248,153.338 L169.188,160.934 L168.144,153.338 L166.524,153.338 L167.964,162.59 L169.926,162.59 Z M183.75,162.806 C181.05,162.806 180.132,160.97 180.132,158.774 C180.132,155.75 181.932,153.158 185.082,153.158 C187.098,153.158 188.052,154.238 188.052,155.552 C188.052,157.1 187.026,157.982 185.64,158.414 C184.272,158.846 182.652,158.936 181.77,158.972 C181.788,160.232 182.094,161.51 184.002,161.51 C185.316,161.51 186.072,160.736 186.36,159.782 L187.71,160.088 C187.17,161.924 185.586,162.806 183.75,162.806 Z M184.974,154.4 C183.084,154.4 182.076,155.948 181.842,157.73 C182.274,157.712 183.786,157.64 185.01,157.262 C185.91,156.974 186.486,156.488 186.486,155.624 C186.486,154.814 185.91,154.4 184.974,154.4 Z M191.94,156.146 C193.02,155.21 194.028,154.706 195.234,154.814 L195.468,153.194 C195.324,153.176 195.18,153.176 195.036,153.176 C193.776,153.176 192.966,153.842 192.012,154.904 L192.21,153.338 L190.698,153.338 L189.402,162.59 L191.04,162.59 L191.94,156.146 Z M204.882,161.078 C204.468,161.312 203.82,161.546 203.226,161.546 C202.128,161.546 202.02,160.934 202.164,159.962 L202.938,154.544 L205.476,154.544 L205.638,153.338 L203.1,153.338 L203.496,150.44 L201.84,150.674 L201.462,153.338 L200.022,153.338 L199.86,154.544 L201.3,154.544 L200.508,160.142 C200.238,161.978 201.084,162.806 202.848,162.806 C203.676,162.806 204.594,162.536 205.098,162.23 L204.882,161.078 Z M209.256,155.93 C210.174,155.228 211.164,154.526 212.334,154.526 C213.342,154.526 213.792,155.102 213.594,156.506 L212.748,162.59 L214.386,162.59 L215.25,156.326 C215.538,154.202 214.674,153.158 212.802,153.158 C211.38,153.158 210.102,154.004 209.382,154.616 L210.21,149 L208.59,149 L206.682,162.59 L208.32,162.59 L209.256,155.93 Z M220.812,162.806 C218.112,162.806 217.194,160.97 217.194,158.774 C217.194,155.75 218.994,153.158 222.144,153.158 C224.16,153.158 225.114,154.238 225.114,155.552 C225.114,157.1 224.088,157.982 222.702,158.414 C221.334,158.846 219.714,158.936 218.832,158.972 C218.85,160.232 219.156,161.51 221.064,161.51 C222.378,161.51 223.134,160.736 223.422,159.782 L224.772,160.088 C224.232,161.924 222.648,162.806 220.812,162.806 Z M222.036,154.4 C220.146,154.4 219.138,155.948 218.904,157.73 C219.336,157.712 220.848,157.64 222.072,157.262 C222.972,156.974 223.548,156.488 223.548,155.624 C223.548,154.814 222.972,154.4 222.036,154.4 Z M234.96,153.158 C236.022,153.158 236.904,153.59 237.498,154.148 L237.624,153.338 L239.154,153.338 L237.318,166.406 L235.77,166.406 L236.472,161.582 C235.644,162.248 234.546,162.806 233.376,162.806 C231.576,162.806 230.388,161.744 230.388,159.332 C230.388,154.796 232.728,153.158 234.96,153.158 Z M232.044,159.08 C232.044,160.61 232.53,161.456 233.79,161.456 C234.834,161.456 235.914,160.862 236.562,160.25 L237.246,155.264 C236.886,154.922 236.112,154.454 235.14,154.454 C232.908,154.454 232.044,156.668 232.044,159.08 Z M246.93,160.124 C246.174,160.79 245.04,161.438 243.942,161.438 C243.15,161.438 242.718,161.15 242.646,160.43 C242.592,160.178 242.61,159.836 242.664,159.422 L243.51,153.338 L241.872,153.338 L241.008,159.584 C240.72,161.708 241.566,162.77 243.42,162.77 C244.824,162.77 246.174,162.014 246.894,161.366 L246.732,162.59 L248.208,162.59 L249.504,153.338 L247.866,153.338 L246.93,160.124 Z M254.742,162.806 C252.042,162.806 251.124,160.97 251.124,158.774 C251.124,155.75 252.924,153.158 256.074,153.158 C258.09,153.158 259.044,154.238 259.044,155.552 C259.044,157.1 258.018,157.982 256.632,158.414 C255.264,158.846 253.644,158.936 252.762,158.972 C252.78,160.232 253.086,161.51 254.994,161.51 C256.308,161.51 257.064,160.736 257.352,159.782 L258.702,160.088 C258.162,161.924 256.578,162.806 254.742,162.806 Z M255.966,154.4 C254.076,154.4 253.068,155.948 252.834,157.73 C253.266,157.712 254.778,157.64 256.002,157.262 C256.902,156.974 257.478,156.488 257.478,155.624 C257.478,154.814 256.902,154.4 255.966,154.4 Z M264.516,153.158 C262.734,153.158 261.006,154.004 261.006,155.966 C261.006,157.856 262.518,158.198 263.814,158.558 C264.804,158.828 265.668,159.134 265.668,160.106 C265.668,161.258 264.588,161.582 263.616,161.582 C262.014,161.582 261.564,160.736 261.438,159.692 L260.088,159.998 C260.25,161.834 261.348,162.806 263.526,162.806 C265.758,162.806 267.27,161.744 267.27,159.872 C267.27,157.946 265.596,157.622 264.246,157.226 C263.328,156.956 262.554,156.632 262.554,155.75 C262.554,155.03 263.022,154.346 264.48,154.346 C265.83,154.346 266.298,155.174 266.352,156.2 L267.738,156.002 C267.648,154.382 266.712,153.158 264.516,153.158 Z M274.2,161.078 C273.786,161.312 273.138,161.546 272.544,161.546 C271.446,161.546 271.338,160.934 271.482,159.962 L272.256,154.544 L274.794,154.544 L274.956,153.338 L272.418,153.338 L272.814,150.44 L271.158,150.674 L270.78,153.338 L269.34,153.338 L269.178,154.544 L270.618,154.544 L269.826,160.142 C269.556,161.978 270.402,162.806 272.166,162.806 C272.994,162.806 273.912,162.536 274.416,162.23 L274.2,161.078 Z M278.898,153.338 L277.26,153.338 L275.964,162.59 L277.602,162.59 L278.898,153.338 Z M279.69,150.188 C279.69,149.576 279.33,149.234 278.682,149.234 C277.854,149.234 277.35,149.72 277.35,150.566 C277.35,151.16 277.71,151.52 278.358,151.52 C279.186,151.52 279.69,151.016 279.69,150.188 Z M284.19,162.806 C281.58,162.806 280.464,161.312 280.464,159.044 C280.464,158.648 280.482,158.252 280.536,157.874 C280.914,155.084 282.606,153.158 285.558,153.158 C288.222,153.158 289.176,154.814 289.176,156.92 C289.176,157.316 289.158,157.676 289.104,158.09 C288.744,161.006 287.07,162.806 284.19,162.806 Z M284.334,161.564 C285.99,161.564 287.16,160.376 287.448,157.964 C287.484,157.604 287.502,157.262 287.502,156.902 C287.502,155.264 286.764,154.472 285.36,154.472 C283.686,154.472 282.462,155.606 282.174,157.964 C282.138,158.288 282.12,158.63 282.12,158.972 C282.12,160.664 282.858,161.564 284.334,161.564 Z M293.406,155.912 C294.072,155.372 295.314,154.526 296.502,154.526 C297.51,154.526 297.942,155.138 297.744,156.506 L296.898,162.59 L298.536,162.59 L299.4,156.326 C299.688,154.202 298.788,153.158 296.988,153.158 C295.512,153.158 294.216,153.986 293.496,154.616 L293.478,154.616 L293.676,153.338 L292.128,153.338 L290.832,162.59 L292.47,162.59 L293.406,155.912 Z M305.43,153.158 C303.648,153.158 301.92,154.004 301.92,155.966 C301.92,157.856 303.432,158.198 304.728,158.558 C305.718,158.828 306.582,159.134 306.582,160.106 C306.582,161.258 305.502,161.582 304.53,161.582 C302.928,161.582 302.478,160.736 302.352,159.692 L301.002,159.998 C301.164,161.834 302.262,162.806 304.44,162.806 C306.672,162.806 308.184,161.744 308.184,159.872 C308.184,157.946 306.51,157.622 305.16,157.226 C304.242,156.956 303.468,156.632 303.468,155.75 C303.468,155.03 303.936,154.346 305.394,154.346 C306.744,154.346 307.212,155.174 307.266,156.2 L308.652,156.002 C308.562,154.382 307.626,153.158 305.43,153.158 Z M317.652,162.806 C315.042,162.806 313.926,161.312 313.926,159.044 C313.926,158.648 313.944,158.252 313.998,157.874 C314.376,155.084 316.068,153.158 319.02,153.158 C321.684,153.158 322.638,154.814 322.638,156.92 C322.638,157.316 322.62,157.676 322.566,158.09 C322.206,161.006 320.532,162.806 317.652,162.806 Z M317.796,161.564 C319.452,161.564 320.622,160.376 320.91,157.964 C320.946,157.604 320.964,157.262 320.964,156.902 C320.964,155.264 320.226,154.472 318.822,154.472 C317.148,154.472 315.924,155.606 315.636,157.964 C315.6,158.288 315.582,158.63 315.582,158.972 C315.582,160.664 316.32,161.564 317.796,161.564 Z M326.868,155.912 C327.534,155.372 328.776,154.526 329.964,154.526 C330.972,154.526 331.404,155.138 331.206,156.506 L330.36,162.59 L331.998,162.59 L332.862,156.326 C333.15,154.202 332.25,153.158 330.45,153.158 C328.974,153.158 327.678,153.986 326.958,154.616 L326.94,154.616 L327.138,153.338 L325.59,153.338 L324.294,162.59 L325.932,162.59 L326.868,155.912 Z M341.466,153.338 L341.268,154.598 C342.186,153.86 343.356,153.158 344.688,153.158 C346.344,153.158 347.514,154.13 347.514,156.668 C347.514,160.988 345.318,162.806 342.978,162.806 C341.826,162.806 340.908,162.338 340.314,161.816 L339.666,166.406 L338.082,166.406 L339.918,153.338 L341.466,153.338 Z M345.804,156.794 C345.804,155.138 345.3,154.508 344.22,154.508 C343.158,154.508 341.808,155.318 341.196,155.858 L340.548,160.52 C340.89,160.826 341.772,161.456 342.78,161.456 C345.102,161.456 345.804,159.098 345.804,156.794 Z M357.954,153.338 L356.892,160.844 C356.82,161.348 356.892,161.618 357.342,161.618 C357.504,161.618 357.666,161.6 357.918,161.528 L357.81,162.518 C357.54,162.626 357.108,162.698 356.748,162.698 C355.884,162.698 355.38,162.338 355.398,161.384 C354.624,162.23 353.4,162.806 352.194,162.806 C350.448,162.806 349.206,161.762 349.206,159.224 C349.206,156.182 350.628,153.158 353.724,153.158 C354.786,153.158 355.722,153.644 356.298,154.148 L356.442,153.338 L357.954,153.338 Z M355.398,160.16 L356.064,155.408 C355.596,154.958 354.714,154.508 353.814,154.508 C351.564,154.508 350.862,157.226 350.862,159.08 C350.862,160.844 351.546,161.492 352.644,161.492 C353.508,161.492 354.282,161.186 355.398,160.16 Z M362.562,153.338 L362.364,154.598 C363.282,153.86 364.452,153.158 365.784,153.158 C367.44,153.158 368.61,154.13 368.61,156.668 C368.61,160.988 366.414,162.806 364.074,162.806 C362.922,162.806 362.004,162.338 361.41,161.816 L360.762,166.406 L359.178,166.406 L361.014,153.338 L362.562,153.338 Z M366.9,156.794 C366.9,155.138 366.396,154.508 365.316,154.508 C364.254,154.508 362.904,155.318 362.292,155.858 L361.644,160.52 C361.986,160.826 362.868,161.456 363.876,161.456 C366.198,161.456 366.9,159.098 366.9,156.794 Z M373.902,162.806 C371.202,162.806 370.284,160.97 370.284,158.774 C370.284,155.75 372.084,153.158 375.234,153.158 C377.25,153.158 378.204,154.238 378.204,155.552 C378.204,157.1 377.178,157.982 375.792,158.414 C374.424,158.846 372.804,158.936 371.922,158.972 C371.94,160.232 372.246,161.51 374.154,161.51 C375.468,161.51 376.224,160.736 376.512,159.782 L377.862,160.088 C377.322,161.924 375.738,162.806 373.902,162.806 Z M375.126,154.4 C373.236,154.4 372.228,155.948 371.994,157.73 C372.426,157.712 373.938,157.64 375.162,157.262 C376.062,156.974 376.638,156.488 376.638,155.624 C376.638,154.814 376.062,154.4 375.126,154.4 Z M382.092,156.146 C383.172,155.21 384.18,154.706 385.386,154.814 L385.62,153.194 C385.476,153.176 385.332,153.176 385.188,153.176 C383.928,153.176 383.118,153.842 382.164,154.904 L382.362,153.338 L380.85,153.338 L379.554,162.59 L381.192,162.59 L382.092,156.146 Z M388.122,161.42 C388.122,160.79 387.762,160.448 387.06,160.448 C386.142,160.448 385.638,160.934 385.638,161.834 C385.638,162.482 386.016,162.806 386.718,162.806 C387.636,162.806 388.122,162.32 388.122,161.42 Z" id="Students-will-see-th" fill="#EA9A1A"></path>
                    <path d="M1.28469997,17.3967572 C1.28469997,17.3967572 20.8330441,10.8047647 42.4964551,11.4892983 C64.159866,12.173832 75.1526662,16.7276171 75.1526662,16.7276171" id="Line" stroke="#F5BA5B" stroke-width="2" stroke-linecap="square" transform="translate(38.218683, 14.418104) rotate(11.000000) translate(-38.218683, -14.418104) "></path>
                    <polyline id="Path-9" stroke="#F5BA5B" stroke-width="2" stroke-linecap="round" stroke-linejoin="round" transform="translate(6.000000, 10.500000) rotate(-90.000000) translate(-6.000000, -10.500000) " points="-4 16 6.14635484 5 16 15.6826637"></polyline>
                </g>
            </g>
        </g>
    </g>
</svg>