<?xml version="1.0" encoding="UTF-8"?>
<svg width="337px" height="148px" viewBox="0 0 337 148" version="1.1" xmlns="http://www.w3.org/2000/svg" xmlns:xlink="http://www.w3.org/1999/xlink">
    <!-- Generator: Sketch 43.2 (39069) - http://www.bohemiancoding.com/sketch -->
    <title>Group 12</title>
    <desc>Created with Sketch.</desc>
    <defs></defs>
    <g id="V1" stroke="none" stroke-width="1" fill="none" fill-rule="evenodd">
        <g id="12_00-Guide-3-Copy" transform="translate(-862.000000, -159.000000)">
            <g id="Group-12" transform="translate(863.000000, 160.000000)">
                <g id="Group-16">
                    <g id="Group-5" stroke="#F5BA5B" stroke-width="2">
                        <path d="M1,10.0108452 C1,10.0108452 27.5288124,9.56702119 47.3275176,14.3577851 C67.1262228,19.148549 82.1908893,30.5074053 82.1908893,30.5074053" id="Line" stroke-linecap="square"></path>
                        <polyline id="Path-9" stroke-linecap="round" stroke-linejoin="round" points="9.43948753 19.8640973 -1.59161573e-12 9.78668831 9.1671701 7.10542736e-13"></polyline>
                    </g>
                    <path d="M87.648,55.094 C86.982,56.948 85.92,57.884 83.94,57.884 C81.78,57.884 80.538,56.642 80.538,53.798 C80.538,49.46 82.608,47.102 85.56,47.102 C87.684,47.102 88.422,48.362 88.386,50.414 L89.916,50.27 C90.078,47.336 88.386,45.734 85.668,45.734 C81.636,45.734 78.846,48.83 78.846,53.96 C78.846,57.074 80.286,59.216 83.67,59.216 C86.046,59.216 88.278,58.244 89.106,55.382 L87.648,55.094 Z M90.744,59 L92.382,59 L94.29,45.41 L92.652,45.41 L90.744,59 Z M98.124,49.748 L96.486,49.748 L95.19,59 L96.828,59 L98.124,49.748 Z M98.916,46.598 C98.916,45.986 98.556,45.644 97.908,45.644 C97.08,45.644 96.576,46.13 96.576,46.976 C96.576,47.57 96.936,47.93 97.584,47.93 C98.412,47.93 98.916,47.426 98.916,46.598 Z M103.416,59.216 C105.306,59.216 106.962,58.316 107.484,56.228 L106.062,55.958 C105.666,57.272 104.784,57.92 103.542,57.92 C102.372,57.92 101.4,57.218 101.4,55.238 C101.4,51.89 103.092,50.882 104.55,50.882 C106.08,50.882 106.458,51.836 106.386,53.294 L107.88,53.186 C108.096,51.098 106.926,49.568 104.73,49.568 C101.796,49.568 99.69,51.638 99.69,55.31 C99.69,57.614 100.806,59.216 103.416,59.216 Z M117.006,59 L114.396,53.096 L118.068,49.748 L116.124,49.748 L111.66,53.798 L112.848,45.41 L111.21,45.41 L109.302,59 L110.94,59 L111.408,55.634 L113.046,54.194 L115.206,59 L117.006,59 Z M126.294,59.216 C123.684,59.216 122.568,57.722 122.568,55.454 C122.568,55.058 122.586,54.662 122.64,54.284 C123.018,51.494 124.71,49.568 127.662,49.568 C130.326,49.568 131.28,51.224 131.28,53.33 C131.28,53.726 131.262,54.086 131.208,54.5 C130.848,57.416 129.174,59.216 126.294,59.216 Z M126.438,57.974 C128.094,57.974 129.264,56.786 129.552,54.374 C129.588,54.014 129.606,53.672 129.606,53.312 C129.606,51.674 128.868,50.882 127.464,50.882 C125.79,50.882 124.566,52.016 124.278,54.374 C124.242,54.698 124.224,55.04 124.224,55.382 C124.224,57.074 124.962,57.974 126.438,57.974 Z M135.51,52.322 C136.176,51.782 137.418,50.936 138.606,50.936 C139.614,50.936 140.046,51.548 139.848,52.916 L139.002,59 L140.64,59 L141.504,52.736 C141.792,50.612 140.892,49.568 139.092,49.568 C137.616,49.568 136.32,50.396 135.6,51.026 L135.582,51.026 L135.78,49.748 L134.232,49.748 L132.936,59 L134.574,59 L135.51,52.322 Z M152.322,57.488 C151.908,57.722 151.26,57.956 150.666,57.956 C149.568,57.956 149.46,57.344 149.604,56.372 L150.378,50.954 L152.916,50.954 L153.078,49.748 L150.54,49.748 L150.936,46.85 L149.28,47.084 L148.902,49.748 L147.462,49.748 L147.3,50.954 L148.74,50.954 L147.948,56.552 C147.678,58.388 148.524,59.216 150.288,59.216 C151.116,59.216 152.034,58.946 152.538,58.64 L152.322,57.488 Z M156.696,52.34 C157.614,51.638 158.604,50.936 159.774,50.936 C160.782,50.936 161.232,51.512 161.034,52.916 L160.188,59 L161.826,59 L162.69,52.736 C162.978,50.612 162.114,49.568 160.242,49.568 C158.82,49.568 157.542,50.414 156.822,51.026 L157.65,45.41 L156.03,45.41 L154.122,59 L155.76,59 L156.696,52.34 Z M168.252,59.216 C165.552,59.216 164.634,57.38 164.634,55.184 C164.634,52.16 166.434,49.568 169.584,49.568 C171.6,49.568 172.554,50.648 172.554,51.962 C172.554,53.51 171.528,54.392 170.142,54.824 C168.774,55.256 167.154,55.346 166.272,55.382 C166.29,56.642 166.596,57.92 168.504,57.92 C169.818,57.92 170.574,57.146 170.862,56.192 L172.212,56.498 C171.672,58.334 170.088,59.216 168.252,59.216 Z M169.476,50.81 C167.586,50.81 166.578,52.358 166.344,54.14 C166.776,54.122 168.288,54.05 169.512,53.672 C170.412,53.384 170.988,52.898 170.988,52.034 C170.988,51.224 170.412,50.81 169.476,50.81 Z M181.5,59.216 C183.39,59.216 185.046,58.316 185.568,56.228 L184.146,55.958 C183.75,57.272 182.868,57.92 181.626,57.92 C180.456,57.92 179.484,57.218 179.484,55.238 C179.484,51.89 181.176,50.882 182.634,50.882 C184.164,50.882 184.542,51.836 184.47,53.294 L185.964,53.186 C186.18,51.098 185.01,49.568 182.814,49.568 C179.88,49.568 177.774,51.638 177.774,55.31 C177.774,57.614 178.89,59.216 181.5,59.216 Z M189.96,52.34 C190.878,51.638 191.868,50.936 193.038,50.936 C194.046,50.936 194.496,51.512 194.298,52.916 L193.452,59 L195.09,59 L195.954,52.736 C196.242,50.612 195.378,49.568 193.506,49.568 C192.084,49.568 190.806,50.414 190.086,51.026 L190.914,45.41 L189.294,45.41 L187.386,59 L189.024,59 L189.96,52.34 Z M201.516,59.216 C198.816,59.216 197.898,57.38 197.898,55.184 C197.898,52.16 199.698,49.568 202.848,49.568 C204.864,49.568 205.818,50.648 205.818,51.962 C205.818,53.51 204.792,54.392 203.406,54.824 C202.038,55.256 200.418,55.346 199.536,55.382 C199.554,56.642 199.86,57.92 201.768,57.92 C203.082,57.92 203.838,57.146 204.126,56.192 L205.476,56.498 C204.936,58.334 203.352,59.216 201.516,59.216 Z M202.74,50.81 C200.85,50.81 199.842,52.358 199.608,54.14 C200.04,54.122 201.552,54.05 202.776,53.672 C203.676,53.384 204.252,52.898 204.252,52.034 C204.252,51.224 203.676,50.81 202.74,50.81 Z M210.912,59.216 C212.802,59.216 214.458,58.316 214.98,56.228 L213.558,55.958 C213.162,57.272 212.28,57.92 211.038,57.92 C209.868,57.92 208.896,57.218 208.896,55.238 C208.896,51.89 210.588,50.882 212.046,50.882 C213.576,50.882 213.954,51.836 213.882,53.294 L215.376,53.186 C215.592,51.098 214.422,49.568 212.226,49.568 C209.292,49.568 207.186,51.638 207.186,55.31 C207.186,57.614 208.302,59.216 210.912,59.216 Z M224.502,59 L221.892,53.096 L225.564,49.748 L223.62,49.748 L219.156,53.798 L220.344,45.41 L218.706,45.41 L216.798,59 L218.436,59 L218.904,55.634 L220.542,54.194 L222.702,59 L224.502,59 Z M227.688,59 L226.194,59 L228.102,45.41 L229.704,45.41 L228.912,50.954 C229.848,50.234 230.91,49.568 232.26,49.568 C233.898,49.568 235.068,50.522 235.068,53.078 C235.068,57.362 232.926,59.216 230.658,59.216 C229.524,59.216 228.606,58.802 227.868,58.172 L227.85,58.172 L227.688,59 Z M228.768,52.286 L228.12,56.912 C228.48,57.236 229.29,57.848 230.424,57.848 C232.62,57.848 233.376,55.562 233.376,53.204 C233.376,51.62 232.854,50.918 231.756,50.918 C230.712,50.918 229.38,51.746 228.768,52.286 Z M240.468,59.216 C237.858,59.216 236.742,57.722 236.742,55.454 C236.742,55.058 236.76,54.662 236.814,54.284 C237.192,51.494 238.884,49.568 241.836,49.568 C244.5,49.568 245.454,51.224 245.454,53.33 C245.454,53.726 245.436,54.086 245.382,54.5 C245.022,57.416 243.348,59.216 240.468,59.216 Z M240.612,57.974 C242.268,57.974 243.438,56.786 243.726,54.374 C243.762,54.014 243.78,53.672 243.78,53.312 C243.78,51.674 243.042,50.882 241.638,50.882 C239.964,50.882 238.74,52.016 238.452,54.374 C238.416,54.698 238.398,55.04 238.398,55.382 C238.398,57.074 239.136,57.974 240.612,57.974 Z M253.59,59 L251.124,54.284 L254.688,49.748 L252.978,49.748 L250.368,53.168 L248.586,49.748 L246.894,49.748 L249.27,54.176 L245.616,59 L247.308,59 L250.008,55.382 L251.862,59 L253.59,59 Z M258.432,59.216 C255.732,59.216 254.814,57.38 254.814,55.184 C254.814,52.16 256.614,49.568 259.764,49.568 C261.78,49.568 262.734,50.648 262.734,51.962 C262.734,53.51 261.708,54.392 260.322,54.824 C258.954,55.256 257.334,55.346 256.452,55.382 C256.47,56.642 256.776,57.92 258.684,57.92 C259.998,57.92 260.754,57.146 261.042,56.192 L262.392,56.498 C261.852,58.334 260.268,59.216 258.432,59.216 Z M259.656,50.81 C257.766,50.81 256.758,52.358 256.524,54.14 C256.956,54.122 258.468,54.05 259.692,53.672 C260.592,53.384 261.168,52.898 261.168,52.034 C261.168,51.224 260.592,50.81 259.656,50.81 Z M268.17,49.568 C266.388,49.568 264.66,50.414 264.66,52.376 C264.66,54.266 266.172,54.608 267.468,54.968 C268.458,55.238 269.322,55.544 269.322,56.516 C269.322,57.668 268.242,57.992 267.27,57.992 C265.668,57.992 265.218,57.146 265.092,56.102 L263.742,56.408 C263.904,58.244 265.002,59.216 267.18,59.216 C269.412,59.216 270.924,58.154 270.924,56.282 C270.924,54.356 269.25,54.032 267.9,53.636 C266.982,53.366 266.208,53.042 266.208,52.16 C266.208,51.44 266.676,50.756 268.134,50.756 C269.484,50.756 269.952,51.584 270.006,52.61 L271.392,52.412 C271.302,50.792 270.366,49.568 268.17,49.568 Z M281.706,57.488 C281.292,57.722 280.644,57.956 280.05,57.956 C278.952,57.956 278.844,57.344 278.988,56.372 L279.762,50.954 L282.3,50.954 L282.462,49.748 L279.924,49.748 L280.32,46.85 L278.664,47.084 L278.286,49.748 L276.846,49.748 L276.684,50.954 L278.124,50.954 L277.332,56.552 C277.062,58.388 277.908,59.216 279.672,59.216 C280.5,59.216 281.418,58.946 281.922,58.64 L281.706,57.488 Z M287.052,59.216 C284.442,59.216 283.326,57.722 283.326,55.454 C283.326,55.058 283.344,54.662 283.398,54.284 C283.776,51.494 285.468,49.568 288.42,49.568 C291.084,49.568 292.038,51.224 292.038,53.33 C292.038,53.726 292.02,54.086 291.966,54.5 C291.606,57.416 289.932,59.216 287.052,59.216 Z M287.196,57.974 C288.852,57.974 290.022,56.786 290.31,54.374 C290.346,54.014 290.364,53.672 290.364,53.312 C290.364,51.674 289.626,50.882 288.222,50.882 C286.548,50.882 285.324,52.016 285.036,54.374 C285,54.698 284.982,55.04 284.982,55.382 C284.982,57.074 285.72,57.974 287.196,57.974 Z M82.824,77.568 C81.042,77.568 79.314,78.414 79.314,80.376 C79.314,82.266 80.826,82.608 82.122,82.968 C83.112,83.238 83.976,83.544 83.976,84.516 C83.976,85.668 82.896,85.992 81.924,85.992 C80.322,85.992 79.872,85.146 79.746,84.102 L78.396,84.408 C78.558,86.244 79.656,87.216 81.834,87.216 C84.066,87.216 85.578,86.154 85.578,84.282 C85.578,82.356 83.904,82.032 82.554,81.636 C81.636,81.366 80.862,81.042 80.862,80.16 C80.862,79.44 81.33,78.756 82.788,78.756 C84.138,78.756 84.606,79.584 84.66,80.61 L86.046,80.412 C85.956,78.792 85.02,77.568 82.824,77.568 Z M91.104,87.216 C88.404,87.216 87.486,85.38 87.486,83.184 C87.486,80.16 89.286,77.568 92.436,77.568 C94.452,77.568 95.406,78.648 95.406,79.962 C95.406,81.51 94.38,82.392 92.994,82.824 C91.626,83.256 90.006,83.346 89.124,83.382 C89.142,84.642 89.448,85.92 91.356,85.92 C92.67,85.92 93.426,85.146 93.714,84.192 L95.064,84.498 C94.524,86.334 92.94,87.216 91.104,87.216 Z M92.328,78.81 C90.438,78.81 89.43,80.358 89.196,82.14 C89.628,82.122 91.14,82.05 92.364,81.672 C93.264,81.384 93.84,80.898 93.84,80.034 C93.84,79.224 93.264,78.81 92.328,78.81 Z M96.72,87 L98.358,87 L100.266,73.41 L98.628,73.41 L96.72,87 Z M104.856,87.216 C102.156,87.216 101.238,85.38 101.238,83.184 C101.238,80.16 103.038,77.568 106.188,77.568 C108.204,77.568 109.158,78.648 109.158,79.962 C109.158,81.51 108.132,82.392 106.746,82.824 C105.378,83.256 103.758,83.346 102.876,83.382 C102.894,84.642 103.2,85.92 105.108,85.92 C106.422,85.92 107.178,85.146 107.466,84.192 L108.816,84.498 C108.276,86.334 106.692,87.216 104.856,87.216 Z M106.08,78.81 C104.19,78.81 103.182,80.358 102.948,82.14 C103.38,82.122 104.892,82.05 106.116,81.672 C107.016,81.384 107.592,80.898 107.592,80.034 C107.592,79.224 107.016,78.81 106.08,78.81 Z M114.252,87.216 C116.142,87.216 117.798,86.316 118.32,84.228 L116.898,83.958 C116.502,85.272 115.62,85.92 114.378,85.92 C113.208,85.92 112.236,85.218 112.236,83.238 C112.236,79.89 113.928,78.882 115.386,78.882 C116.916,78.882 117.294,79.836 117.222,81.294 L118.716,81.186 C118.932,79.098 117.762,77.568 115.566,77.568 C112.632,77.568 110.526,79.638 110.526,83.31 C110.526,85.614 111.642,87.216 114.252,87.216 Z M125.196,85.488 C124.782,85.722 124.134,85.956 123.54,85.956 C122.442,85.956 122.334,85.344 122.478,84.372 L123.252,78.954 L125.79,78.954 L125.952,77.748 L123.414,77.748 L123.81,74.85 L122.154,75.084 L121.776,77.748 L120.336,77.748 L120.174,78.954 L121.614,78.954 L120.822,84.552 C120.552,86.388 121.398,87.216 123.162,87.216 C123.99,87.216 124.908,86.946 125.412,86.64 L125.196,85.488 Z M135.906,85.488 C135.492,85.722 134.844,85.956 134.25,85.956 C133.152,85.956 133.044,85.344 133.188,84.372 L133.962,78.954 L136.5,78.954 L136.662,77.748 L134.124,77.748 L134.52,74.85 L132.864,75.084 L132.486,77.748 L131.046,77.748 L130.884,78.954 L132.324,78.954 L131.532,84.552 C131.262,86.388 132.108,87.216 133.872,87.216 C134.7,87.216 135.618,86.946 136.122,86.64 L135.906,85.488 Z M140.28,80.34 C141.198,79.638 142.188,78.936 143.358,78.936 C144.366,78.936 144.816,79.512 144.618,80.916 L143.772,87 L145.41,87 L146.274,80.736 C146.562,78.612 145.698,77.568 143.826,77.568 C142.404,77.568 141.126,78.414 140.406,79.026 L141.234,73.41 L139.614,73.41 L137.706,87 L139.344,87 L140.28,80.34 Z M151.836,87.216 C149.136,87.216 148.218,85.38 148.218,83.184 C148.218,80.16 150.018,77.568 153.168,77.568 C155.184,77.568 156.138,78.648 156.138,79.962 C156.138,81.51 155.112,82.392 153.726,82.824 C152.358,83.256 150.738,83.346 149.856,83.382 C149.874,84.642 150.18,85.92 152.088,85.92 C153.402,85.92 154.158,85.146 154.446,84.192 L155.796,84.498 C155.256,86.334 153.672,87.216 151.836,87.216 Z M153.06,78.81 C151.17,78.81 150.162,80.358 149.928,82.14 C150.36,82.122 151.872,82.05 153.096,81.672 C153.996,81.384 154.572,80.898 154.572,80.034 C154.572,79.224 153.996,78.81 153.06,78.81 Z M170.142,77.748 L169.08,85.254 C169.008,85.758 169.08,86.028 169.53,86.028 C169.692,86.028 169.854,86.01 170.106,85.938 L169.998,86.928 C169.728,87.036 169.296,87.108 168.936,87.108 C168.072,87.108 167.568,86.748 167.586,85.794 C166.812,86.64 165.588,87.216 164.382,87.216 C162.636,87.216 161.394,86.172 161.394,83.634 C161.394,80.592 162.816,77.568 165.912,77.568 C166.974,77.568 167.91,78.054 168.486,78.558 L168.63,77.748 L170.142,77.748 Z M167.586,84.57 L168.252,79.818 C167.784,79.368 166.902,78.918 166.002,78.918 C163.752,78.918 163.05,81.636 163.05,83.49 C163.05,85.254 163.734,85.902 164.832,85.902 C165.696,85.902 166.47,85.596 167.586,84.57 Z M174.48,80.322 C175.146,79.782 176.388,78.936 177.576,78.936 C178.584,78.936 179.016,79.548 178.818,80.916 L177.972,87 L179.61,87 L180.474,80.736 C180.762,78.612 179.862,77.568 178.062,77.568 C176.586,77.568 175.29,78.396 174.57,79.026 L174.552,79.026 L174.75,77.748 L173.202,77.748 L171.906,87 L173.544,87 L174.48,80.322 Z M186.504,77.568 C184.722,77.568 182.994,78.414 182.994,80.376 C182.994,82.266 184.506,82.608 185.802,82.968 C186.792,83.238 187.656,83.544 187.656,84.516 C187.656,85.668 186.576,85.992 185.604,85.992 C184.002,85.992 183.552,85.146 183.426,84.102 L182.076,84.408 C182.238,86.244 183.336,87.216 185.514,87.216 C187.746,87.216 189.258,86.154 189.258,84.282 C189.258,82.356 187.584,82.032 186.234,81.636 C185.316,81.366 184.542,81.042 184.542,80.16 C184.542,79.44 185.01,78.756 186.468,78.756 C187.818,78.756 188.286,79.584 188.34,80.61 L189.726,80.412 C189.636,78.792 188.7,77.568 186.504,77.568 Z M194.352,87 L197.268,79.62 L198.15,87 L200.076,87 L204.108,77.748 L202.47,77.748 L199.374,85.308 L198.42,77.748 L196.674,77.748 L193.614,85.344 L192.57,77.748 L190.95,77.748 L192.39,87 L194.352,87 Z M207.996,87.216 C205.296,87.216 204.378,85.38 204.378,83.184 C204.378,80.16 206.178,77.568 209.328,77.568 C211.344,77.568 212.298,78.648 212.298,79.962 C212.298,81.51 211.272,82.392 209.886,82.824 C208.518,83.256 206.898,83.346 206.016,83.382 C206.034,84.642 206.34,85.92 208.248,85.92 C209.562,85.92 210.318,85.146 210.606,84.192 L211.956,84.498 C211.416,86.334 209.832,87.216 207.996,87.216 Z M209.22,78.81 C207.33,78.81 206.322,80.358 206.088,82.14 C206.52,82.122 208.032,82.05 209.256,81.672 C210.156,81.384 210.732,80.898 210.732,80.034 C210.732,79.224 210.156,78.81 209.22,78.81 Z M216.186,80.556 C217.266,79.62 218.274,79.116 219.48,79.224 L219.714,77.604 C219.57,77.586 219.426,77.586 219.282,77.586 C218.022,77.586 217.212,78.252 216.258,79.314 L216.456,77.748 L214.944,77.748 L213.648,87 L215.286,87 L216.186,80.556 Z M226.032,87.072 C225.114,89.106 224.628,89.772 223.746,89.772 C223.26,89.772 222.81,89.646 222.468,89.502 L222.18,90.69 C222.522,90.852 223.098,91.014 223.782,91.014 C225.474,91.014 226.122,90.15 227.418,87.576 L232.296,77.748 L230.586,77.748 L227.13,85.2 L225.798,77.748 L224.088,77.748 L226.032,87.072 Z M236.076,87.216 C233.466,87.216 232.35,85.722 232.35,83.454 C232.35,83.058 232.368,82.662 232.422,82.284 C232.8,79.494 234.492,77.568 237.444,77.568 C240.108,77.568 241.062,79.224 241.062,81.33 C241.062,81.726 241.044,82.086 240.99,82.5 C240.63,85.416 238.956,87.216 236.076,87.216 Z M236.22,85.974 C237.876,85.974 239.046,84.786 239.334,82.374 C239.37,82.014 239.388,81.672 239.388,81.312 C239.388,79.674 238.65,78.882 237.246,78.882 C235.572,78.882 234.348,80.016 234.06,82.374 C234.024,82.698 234.006,83.04 234.006,83.382 C234.006,85.074 234.744,85.974 236.22,85.974 Z M249,84.534 C248.244,85.2 247.11,85.848 246.012,85.848 C245.22,85.848 244.788,85.56 244.716,84.84 C244.662,84.588 244.68,84.246 244.734,83.832 L245.58,77.748 L243.942,77.748 L243.078,83.994 C242.79,86.118 243.636,87.18 245.49,87.18 C246.894,87.18 248.244,86.424 248.964,85.776 L248.802,87 L250.278,87 L251.574,77.748 L249.936,77.748 L249,84.534 Z M260.412,87 L263.328,79.62 L264.21,87 L266.136,87 L270.168,77.748 L268.53,77.748 L265.434,85.308 L264.48,77.748 L262.734,77.748 L259.674,85.344 L258.63,77.748 L257.01,77.748 L258.45,87 L260.412,87 Z M274.146,87.216 C271.536,87.216 270.42,85.722 270.42,83.454 C270.42,83.058 270.438,82.662 270.492,82.284 C270.87,79.494 272.562,77.568 275.514,77.568 C278.178,77.568 279.132,79.224 279.132,81.33 C279.132,81.726 279.114,82.086 279.06,82.5 C278.7,85.416 277.026,87.216 274.146,87.216 Z M274.29,85.974 C275.946,85.974 277.116,84.786 277.404,82.374 C277.44,82.014 277.458,81.672 277.458,81.312 C277.458,79.674 276.72,78.882 275.316,78.882 C273.642,78.882 272.418,80.016 272.13,82.374 C272.094,82.698 272.076,83.04 272.076,83.382 C272.076,85.074 272.814,85.974 274.29,85.974 Z M287.07,84.534 C286.314,85.2 285.18,85.848 284.082,85.848 C283.29,85.848 282.858,85.56 282.786,84.84 C282.732,84.588 282.75,84.246 282.804,83.832 L283.65,77.748 L282.012,77.748 L281.148,83.994 C280.86,86.118 281.706,87.18 283.56,87.18 C284.964,87.18 286.314,86.424 287.034,85.776 L286.872,87 L288.348,87 L289.644,77.748 L288.006,77.748 L287.07,84.534 Z M291.192,87 L292.83,87 L294.738,73.41 L293.1,73.41 L291.192,87 Z M303.234,87 L301.812,87 L301.902,85.938 L301.902,85.92 C301.038,86.64 299.94,87.216 298.77,87.216 C296.952,87.216 295.746,86.136 295.746,83.688 C295.746,79.224 298.104,77.568 300.318,77.568 C301.398,77.568 302.226,78 302.82,78.522 L303.522,73.41 L305.142,73.41 L303.234,87 Z M301.92,84.678 L302.604,79.71 C302.226,79.386 301.47,78.864 300.498,78.864 C298.248,78.864 297.402,81.222 297.402,83.598 C297.402,85.038 297.888,85.83 299.058,85.884 C299.418,85.884 299.778,85.83 300.138,85.722 C300.822,85.506 301.47,85.092 301.92,84.678 Z M309.876,87 L311.514,87 L313.422,73.41 L311.784,73.41 L309.876,87 Z M317.256,77.748 L315.618,77.748 L314.322,87 L315.96,87 L317.256,77.748 Z M318.048,74.598 C318.048,73.986 317.688,73.644 317.04,73.644 C316.212,73.644 315.708,74.13 315.708,74.976 C315.708,75.57 316.068,75.93 316.716,75.93 C317.544,75.93 318.048,75.426 318.048,74.598 Z M326.508,87 L323.898,81.096 L327.57,77.748 L325.626,77.748 L321.162,81.798 L322.35,73.41 L320.712,73.41 L318.804,87 L320.442,87 L320.91,83.634 L322.548,82.194 L324.708,87 L326.508,87 Z M331.404,87.216 C328.704,87.216 327.786,85.38 327.786,83.184 C327.786,80.16 329.586,77.568 332.736,77.568 C334.752,77.568 335.706,78.648 335.706,79.962 C335.706,81.51 334.68,82.392 333.294,82.824 C331.926,83.256 330.306,83.346 329.424,83.382 C329.442,84.642 329.748,85.92 331.656,85.92 C332.97,85.92 333.726,85.146 334.014,84.192 L335.364,84.498 C334.824,86.334 333.24,87.216 331.404,87.216 Z M332.628,78.81 C330.738,78.81 329.73,80.358 329.496,82.14 C329.928,82.122 331.44,82.05 332.664,81.672 C333.564,81.384 334.14,80.898 334.14,80.034 C334.14,79.224 333.564,78.81 332.628,78.81 Z M83.76,113.488 C83.346,113.722 82.698,113.956 82.104,113.956 C81.006,113.956 80.898,113.344 81.042,112.372 L81.816,106.954 L84.354,106.954 L84.516,105.748 L81.978,105.748 L82.374,102.85 L80.718,103.084 L80.34,105.748 L78.9,105.748 L78.738,106.954 L80.178,106.954 L79.386,112.552 C79.116,114.388 79.962,115.216 81.726,115.216 C82.554,115.216 83.472,114.946 83.976,114.64 L83.76,113.488 Z M89.106,115.216 C86.496,115.216 85.38,113.722 85.38,111.454 C85.38,111.058 85.398,110.662 85.452,110.284 C85.83,107.494 87.522,105.568 90.474,105.568 C93.138,105.568 94.092,107.224 94.092,109.33 C94.092,109.726 94.074,110.086 94.02,110.5 C93.66,113.416 91.986,115.216 89.106,115.216 Z M89.25,113.974 C90.906,113.974 92.076,112.786 92.364,110.374 C92.4,110.014 92.418,109.672 92.418,109.312 C92.418,107.674 91.68,106.882 90.276,106.882 C88.602,106.882 87.378,108.016 87.09,110.374 C87.054,110.698 87.036,111.04 87.036,111.382 C87.036,113.074 87.774,113.974 89.25,113.974 Z M107.16,115 L105.738,115 L105.828,113.938 L105.828,113.92 C104.964,114.64 103.866,115.216 102.696,115.216 C100.878,115.216 99.672,114.136 99.672,111.688 C99.672,107.224 102.03,105.568 104.244,105.568 C105.324,105.568 106.152,106 106.746,106.522 L107.448,101.41 L109.068,101.41 L107.16,115 Z M105.846,112.678 L106.53,107.71 C106.152,107.386 105.396,106.864 104.424,106.864 C102.174,106.864 101.328,109.222 101.328,111.598 C101.328,113.038 101.814,113.83 102.984,113.884 C103.344,113.884 103.704,113.83 104.064,113.722 C104.748,113.506 105.396,113.092 105.846,112.678 Z M112.884,105.748 L111.246,105.748 L109.95,115 L111.588,115 L112.884,105.748 Z M113.676,102.598 C113.676,101.986 113.316,101.644 112.668,101.644 C111.84,101.644 111.336,102.13 111.336,102.976 C111.336,103.57 111.696,103.93 112.344,103.93 C113.172,103.93 113.676,103.426 113.676,102.598 Z M118.554,105.568 C116.772,105.568 115.044,106.414 115.044,108.376 C115.044,110.266 116.556,110.608 117.852,110.968 C118.842,111.238 119.706,111.544 119.706,112.516 C119.706,113.668 118.626,113.992 117.654,113.992 C116.052,113.992 115.602,113.146 115.476,112.102 L114.126,112.408 C114.288,114.244 115.386,115.216 117.564,115.216 C119.796,115.216 121.308,114.154 121.308,112.282 C121.308,110.356 119.634,110.032 118.284,109.636 C117.366,109.366 116.592,109.042 116.592,108.16 C116.592,107.44 117.06,106.756 118.518,106.756 C119.868,106.756 120.336,107.584 120.39,108.61 L121.776,108.412 C121.686,106.792 120.75,105.568 118.554,105.568 Z M126.024,105.748 L125.826,107.008 C126.744,106.27 127.914,105.568 129.246,105.568 C130.902,105.568 132.072,106.54 132.072,109.078 C132.072,113.398 129.876,115.216 127.536,115.216 C126.384,115.216 125.466,114.748 124.872,114.226 L124.224,118.816 L122.64,118.816 L124.476,105.748 L126.024,105.748 Z M130.362,109.204 C130.362,107.548 129.858,106.918 128.778,106.918 C127.716,106.918 126.366,107.728 125.754,108.268 L125.106,112.93 C125.448,113.236 126.33,113.866 127.338,113.866 C129.66,113.866 130.362,111.508 130.362,109.204 Z M133.674,115 L135.312,115 L137.22,101.41 L135.582,101.41 L133.674,115 Z M146.958,105.748 L145.896,113.254 C145.824,113.758 145.896,114.028 146.346,114.028 C146.508,114.028 146.67,114.01 146.922,113.938 L146.814,114.928 C146.544,115.036 146.112,115.108 145.752,115.108 C144.888,115.108 144.384,114.748 144.402,113.794 C143.628,114.64 142.404,115.216 141.198,115.216 C139.452,115.216 138.21,114.172 138.21,111.634 C138.21,108.592 139.632,105.568 142.728,105.568 C143.79,105.568 144.726,106.054 145.302,106.558 L145.446,105.748 L146.958,105.748 Z M144.402,112.57 L145.068,107.818 C144.6,107.368 143.718,106.918 142.818,106.918 C140.568,106.918 139.866,109.636 139.866,111.49 C139.866,113.254 140.55,113.902 141.648,113.902 C142.512,113.902 143.286,113.596 144.402,112.57 Z M150.414,115.072 L148.47,105.748 L150.18,105.748 L151.512,113.2 L154.968,105.748 L156.678,105.748 L151.8,115.576 C150.504,118.15 149.856,119.014 148.164,119.014 C147.48,119.014 146.904,118.852 146.562,118.69 L146.85,117.502 C147.192,117.646 147.642,117.772 148.128,117.772 C149.01,117.772 149.496,117.106 150.414,115.072 Z M154.734,117.142 L156.3,113.128 L158.136,113.128 L156.012,117.304 L154.734,117.142 Z M172.842,105.748 L171.78,113.254 C171.708,113.758 171.78,114.028 172.23,114.028 C172.392,114.028 172.554,114.01 172.806,113.938 L172.698,114.928 C172.428,115.036 171.996,115.108 171.636,115.108 C170.772,115.108 170.268,114.748 170.286,113.794 C169.512,114.64 168.288,115.216 167.082,115.216 C165.336,115.216 164.094,114.172 164.094,111.634 C164.094,108.592 165.516,105.568 168.612,105.568 C169.674,105.568 170.61,106.054 171.186,106.558 L171.33,105.748 L172.842,105.748 Z M170.286,112.57 L170.952,107.818 C170.484,107.368 169.602,106.918 168.702,106.918 C166.452,106.918 165.75,109.636 165.75,111.49 C165.75,113.254 166.434,113.902 167.532,113.902 C168.396,113.902 169.17,113.596 170.286,112.57 Z M177.18,108.322 C177.846,107.782 179.088,106.936 180.276,106.936 C181.284,106.936 181.716,107.548 181.518,108.916 L180.672,115 L182.31,115 L183.174,108.736 C183.462,106.612 182.562,105.568 180.762,105.568 C179.286,105.568 177.99,106.396 177.27,107.026 L177.252,107.026 L177.45,105.748 L175.902,105.748 L174.606,115 L176.244,115 L177.18,108.322 Z M192.642,115 L191.22,115 L191.31,113.938 L191.31,113.92 C190.446,114.64 189.348,115.216 188.178,115.216 C186.36,115.216 185.154,114.136 185.154,111.688 C185.154,107.224 187.512,105.568 189.726,105.568 C190.806,105.568 191.634,106 192.228,106.522 L192.93,101.41 L194.55,101.41 L192.642,115 Z M191.328,112.678 L192.012,107.71 C191.634,107.386 190.878,106.864 189.906,106.864 C187.656,106.864 186.81,109.222 186.81,111.598 C186.81,113.038 187.296,113.83 188.466,113.884 C188.826,113.884 189.186,113.83 189.546,113.722 C190.23,113.506 190.878,113.092 191.328,112.678 Z M204.378,113.488 C203.964,113.722 203.316,113.956 202.722,113.956 C201.624,113.956 201.516,113.344 201.66,112.372 L202.434,106.954 L204.972,106.954 L205.134,105.748 L202.596,105.748 L202.992,102.85 L201.336,103.084 L200.958,105.748 L199.518,105.748 L199.356,106.954 L200.796,106.954 L200.004,112.552 C199.734,114.388 200.58,115.216 202.344,115.216 C203.172,115.216 204.09,114.946 204.594,114.64 L204.378,113.488 Z M208.752,108.34 C209.67,107.638 210.66,106.936 211.83,106.936 C212.838,106.936 213.288,107.512 213.09,108.916 L212.244,115 L213.882,115 L214.746,108.736 C215.034,106.612 214.17,105.568 212.298,105.568 C210.876,105.568 209.598,106.414 208.878,107.026 L209.706,101.41 L208.086,101.41 L206.178,115 L207.816,115 L208.752,108.34 Z M220.308,115.216 C217.608,115.216 216.69,113.38 216.69,111.184 C216.69,108.16 218.49,105.568 221.64,105.568 C223.656,105.568 224.61,106.648 224.61,107.962 C224.61,109.51 223.584,110.392 222.198,110.824 C220.83,111.256 219.21,111.346 218.328,111.382 C218.346,112.642 218.652,113.92 220.56,113.92 C221.874,113.92 222.63,113.146 222.918,112.192 L224.268,112.498 C223.728,114.334 222.144,115.216 220.308,115.216 Z M221.532,106.81 C219.642,106.81 218.634,108.358 218.4,110.14 C218.832,110.122 220.344,110.05 221.568,109.672 C222.468,109.384 223.044,108.898 223.044,108.034 C223.044,107.224 222.468,106.81 221.532,106.81 Z M228.534,108.322 C229.2,107.782 230.442,106.936 231.63,106.936 C232.638,106.936 233.07,107.548 232.872,108.916 L232.026,115 L233.664,115 L234.528,108.736 C234.816,106.612 233.916,105.568 232.116,105.568 C230.64,105.568 229.344,106.396 228.624,107.026 L228.606,107.026 L228.804,105.748 L227.256,105.748 L225.96,115 L227.598,115 L228.534,108.322 Z M244.032,115.216 C245.922,115.216 247.578,114.316 248.1,112.228 L246.678,111.958 C246.282,113.272 245.4,113.92 244.158,113.92 C242.988,113.92 242.016,113.218 242.016,111.238 C242.016,107.89 243.708,106.882 245.166,106.882 C246.696,106.882 247.074,107.836 247.002,109.294 L248.496,109.186 C248.712,107.098 247.542,105.568 245.346,105.568 C242.412,105.568 240.306,107.638 240.306,111.31 C240.306,113.614 241.422,115.216 244.032,115.216 Z M249.882,115 L251.52,115 L253.428,101.41 L251.79,101.41 L249.882,115 Z M257.262,105.748 L255.624,105.748 L254.328,115 L255.966,115 L257.262,105.748 Z M258.054,102.598 C258.054,101.986 257.694,101.644 257.046,101.644 C256.218,101.644 255.714,102.13 255.714,102.976 C255.714,103.57 256.074,103.93 256.722,103.93 C257.55,103.93 258.054,103.426 258.054,102.598 Z M262.554,115.216 C264.444,115.216 266.1,114.316 266.622,112.228 L265.2,111.958 C264.804,113.272 263.922,113.92 262.68,113.92 C261.51,113.92 260.538,113.218 260.538,111.238 C260.538,107.89 262.23,106.882 263.688,106.882 C265.218,106.882 265.596,107.836 265.524,109.294 L267.018,109.186 C267.234,107.098 266.064,105.568 263.868,105.568 C260.934,105.568 258.828,107.638 258.828,111.31 C258.828,113.614 259.944,115.216 262.554,115.216 Z M276.144,115 L273.534,109.096 L277.206,105.748 L275.262,105.748 L270.798,109.798 L271.986,101.41 L270.348,101.41 L268.44,115 L270.078,115 L270.546,111.634 L272.184,110.194 L274.344,115 L276.144,115 Z M82.68,143 L78.45,143 L80.268,129.968 L84.786,129.968 C88.71,129.968 90.402,131.984 90.402,135.17 C90.402,139.652 87.972,143 82.68,143 Z M81.546,140.858 L82.86,140.858 C85.956,140.858 87.558,139.04 87.558,135.296 C87.558,132.92 86.442,132.092 84.282,132.092 L82.752,132.092 L81.546,140.858 Z M95.172,133.622 L92.454,133.622 L91.14,143 L93.858,143 L95.172,133.622 Z M95.874,130.49 C95.874,129.626 95.37,129.158 94.434,129.158 C93.282,129.158 92.562,129.842 92.562,131.012 C92.562,131.858 93.084,132.362 94.002,132.362 C95.172,132.362 95.874,131.66 95.874,130.49 Z M100.608,133.442 C98.538,133.442 96.54,134.36 96.54,136.538 C96.54,138.392 97.89,138.896 99.132,139.22 C100.194,139.508 101.166,139.652 101.166,140.426 C101.166,141.11 100.536,141.38 99.672,141.38 C98.358,141.38 98.034,140.624 97.926,139.904 L95.622,140.516 C95.766,142.064 96.882,143.216 99.474,143.216 C101.958,143.216 103.83,142.118 103.83,139.94 C103.83,138.05 102.408,137.582 101.13,137.276 C100.104,137.024 99.168,136.88 99.168,136.142 C99.168,135.638 99.546,135.278 100.482,135.278 C101.472,135.278 101.868,135.89 101.976,136.682 L104.226,136.16 C103.992,134.486 102.804,133.442 100.608,133.442 Z M108.798,133.622 L108.636,134.738 C108.654,134.756 108.672,134.756 108.672,134.756 C109.518,133.892 110.67,133.442 111.786,133.442 C113.442,133.442 114.702,134.432 114.702,137.042 C114.702,141.416 112.524,143.216 110.112,143.216 C108.942,143.216 108.222,142.82 107.7,142.298 L107.07,146.816 L104.424,146.816 L106.296,133.622 L108.798,133.622 Z M111.804,137.384 C111.804,136.07 111.408,135.566 110.562,135.566 C109.914,135.566 109.05,135.998 108.6,136.376 L108.024,140.462 C108.258,140.714 108.906,141.11 109.554,141.11 C111.264,141.11 111.804,139.31 111.804,137.384 Z M115.656,143 L118.374,143 L120.282,129.41 L117.564,129.41 L115.656,143 Z M130.326,133.622 L129.318,140.768 C129.246,141.254 129.318,141.47 129.768,141.47 C129.93,141.47 130.092,141.452 130.344,141.38 L130.182,142.856 C129.84,143.018 129.048,143.18 128.508,143.18 C127.446,143.18 126.87,142.802 126.744,141.902 C126.06,142.694 124.998,143.216 123.81,143.216 C121.938,143.216 120.66,142.136 120.66,139.562 C120.66,135.62 122.784,133.442 125.214,133.442 C126.33,133.442 127.104,133.856 127.644,134.378 L127.788,133.622 L130.326,133.622 Z M126.672,140.372 L127.266,136.106 C126.924,135.782 126.366,135.53 125.79,135.53 C124.044,135.53 123.522,137.744 123.522,139.238 C123.522,140.498 124.008,141.128 124.926,141.128 C125.466,141.128 126.024,140.948 126.672,140.372 Z M133.602,143.18 L131.46,133.622 L134.286,133.622 L135.33,140.264 L135.366,140.264 L138.102,133.622 L140.982,133.622 L136.068,143.648 C134.88,146.078 134.034,147.014 131.982,147.014 C131.262,147.014 130.416,146.816 130.038,146.618 L130.488,144.746 C130.956,144.908 131.406,145.016 131.802,145.016 C132.648,145.016 132.972,144.476 133.602,143.18 Z M150.09,141.488 C149.676,141.722 149.028,141.956 148.434,141.956 C147.336,141.956 147.228,141.344 147.372,140.372 L148.146,134.954 L150.684,134.954 L150.846,133.748 L148.308,133.748 L148.704,130.85 L147.048,131.084 L146.67,133.748 L145.23,133.748 L145.068,134.954 L146.508,134.954 L145.716,140.552 C145.446,142.388 146.292,143.216 148.056,143.216 C148.884,143.216 149.802,142.946 150.306,142.64 L150.09,141.488 Z M155.436,143.216 C152.826,143.216 151.71,141.722 151.71,139.454 C151.71,139.058 151.728,138.662 151.782,138.284 C152.16,135.494 153.852,133.568 156.804,133.568 C159.468,133.568 160.422,135.224 160.422,137.33 C160.422,137.726 160.404,138.086 160.35,138.5 C159.99,141.416 158.316,143.216 155.436,143.216 Z M155.58,141.974 C157.236,141.974 158.406,140.786 158.694,138.374 C158.73,138.014 158.748,137.672 158.748,137.312 C158.748,135.674 158.01,134.882 156.606,134.882 C154.932,134.882 153.708,136.016 153.42,138.374 C153.384,138.698 153.366,139.04 153.366,139.382 C153.366,141.074 154.104,141.974 155.58,141.974 Z M170.052,133.568 C168.27,133.568 166.542,134.414 166.542,136.376 C166.542,138.266 168.054,138.608 169.35,138.968 C170.34,139.238 171.204,139.544 171.204,140.516 C171.204,141.668 170.124,141.992 169.152,141.992 C167.55,141.992 167.1,141.146 166.974,140.102 L165.624,140.408 C165.786,142.244 166.884,143.216 169.062,143.216 C171.294,143.216 172.806,142.154 172.806,140.282 C172.806,138.356 171.132,138.032 169.782,137.636 C168.864,137.366 168.09,137.042 168.09,136.16 C168.09,135.44 168.558,134.756 170.016,134.756 C171.366,134.756 171.834,135.584 171.888,136.61 L173.274,136.412 C173.184,134.792 172.248,133.568 170.052,133.568 Z M177.252,136.34 C178.17,135.638 179.16,134.936 180.33,134.936 C181.338,134.936 181.788,135.512 181.59,136.916 L180.744,143 L182.382,143 L183.246,136.736 C183.534,134.612 182.67,133.568 180.798,133.568 C179.376,133.568 178.098,134.414 177.378,135.026 L178.206,129.41 L176.586,129.41 L174.678,143 L176.316,143 L177.252,136.34 Z M188.898,143.216 C186.288,143.216 185.172,141.722 185.172,139.454 C185.172,139.058 185.19,138.662 185.244,138.284 C185.622,135.494 187.314,133.568 190.266,133.568 C192.93,133.568 193.884,135.224 193.884,137.33 C193.884,137.726 193.866,138.086 193.812,138.5 C193.452,141.416 191.778,143.216 188.898,143.216 Z M189.042,141.974 C190.698,141.974 191.868,140.786 192.156,138.374 C192.192,138.014 192.21,137.672 192.21,137.312 C192.21,135.674 191.472,134.882 190.068,134.882 C188.394,134.882 187.17,136.016 186.882,138.374 C186.846,138.698 186.828,139.04 186.828,139.382 C186.828,141.074 187.566,141.974 189.042,141.974 Z M198.762,143 L201.678,135.62 L202.56,143 L204.486,143 L208.518,133.748 L206.88,133.748 L203.784,141.308 L202.83,133.748 L201.084,133.748 L198.024,141.344 L196.98,133.748 L195.36,133.748 L196.8,143 L198.762,143 Z M217.842,141.488 C217.428,141.722 216.78,141.956 216.186,141.956 C215.088,141.956 214.98,141.344 215.124,140.372 L215.898,134.954 L218.436,134.954 L218.598,133.748 L216.06,133.748 L216.456,130.85 L214.8,131.084 L214.422,133.748 L212.982,133.748 L212.82,134.954 L214.26,134.954 L213.468,140.552 C213.198,142.388 214.044,143.216 215.808,143.216 C216.636,143.216 217.554,142.946 218.058,142.64 L217.842,141.488 Z M222.216,136.34 C223.134,135.638 224.124,134.936 225.294,134.936 C226.302,134.936 226.752,135.512 226.554,136.916 L225.708,143 L227.346,143 L228.21,136.736 C228.498,134.612 227.634,133.568 225.762,133.568 C224.34,133.568 223.062,134.414 222.342,135.026 L223.17,129.41 L221.55,129.41 L219.642,143 L221.28,143 L222.216,136.34 Z M233.772,143.216 C231.072,143.216 230.154,141.38 230.154,139.184 C230.154,136.16 231.954,133.568 235.104,133.568 C237.12,133.568 238.074,134.648 238.074,135.962 C238.074,137.51 237.048,138.392 235.662,138.824 C234.294,139.256 232.674,139.346 231.792,139.382 C231.81,140.642 232.116,141.92 234.024,141.92 C235.338,141.92 236.094,141.146 236.382,140.192 L237.732,140.498 C237.192,142.334 235.608,143.216 233.772,143.216 Z M234.996,134.81 C233.106,134.81 232.098,136.358 231.864,138.14 C232.296,138.122 233.808,138.05 235.032,137.672 C235.932,137.384 236.508,136.898 236.508,136.034 C236.508,135.224 235.932,134.81 234.996,134.81 Z M247.398,133.568 C245.616,133.568 243.888,134.414 243.888,136.376 C243.888,138.266 245.4,138.608 246.696,138.968 C247.686,139.238 248.55,139.544 248.55,140.516 C248.55,141.668 247.47,141.992 246.498,141.992 C244.896,141.992 244.446,141.146 244.32,140.102 L242.97,140.408 C243.132,142.244 244.23,143.216 246.408,143.216 C248.64,143.216 250.152,142.154 250.152,140.282 C250.152,138.356 248.478,138.032 247.128,137.636 C246.21,137.366 245.436,137.042 245.436,136.16 C245.436,135.44 245.904,134.756 247.362,134.756 C248.712,134.756 249.18,135.584 249.234,136.61 L250.62,136.412 C250.53,134.792 249.594,133.568 247.398,133.568 Z M256.866,141.488 C256.452,141.722 255.804,141.956 255.21,141.956 C254.112,141.956 254.004,141.344 254.148,140.372 L254.922,134.954 L257.46,134.954 L257.622,133.748 L255.084,133.748 L255.48,130.85 L253.824,131.084 L253.446,133.748 L252.006,133.748 L251.844,134.954 L253.284,134.954 L252.492,140.552 C252.222,142.388 253.068,143.216 254.832,143.216 C255.66,143.216 256.578,142.946 257.082,142.64 L256.866,141.488 Z M264.642,140.534 C263.886,141.2 262.752,141.848 261.654,141.848 C260.862,141.848 260.43,141.56 260.358,140.84 C260.304,140.588 260.322,140.246 260.376,139.832 L261.222,133.748 L259.584,133.748 L258.72,139.994 C258.432,142.118 259.278,143.18 261.132,143.18 C262.536,143.18 263.886,142.424 264.606,141.776 L264.444,143 L265.92,143 L267.216,133.748 L265.578,133.748 L264.642,140.534 Z M276.36,143 L274.938,143 L275.028,141.938 L275.028,141.92 C274.164,142.64 273.066,143.216 271.896,143.216 C270.078,143.216 268.872,142.136 268.872,139.688 C268.872,135.224 271.23,133.568 273.444,133.568 C274.524,133.568 275.352,134 275.946,134.522 L276.648,129.41 L278.268,129.41 L276.36,143 Z M275.046,140.678 L275.73,135.71 C275.352,135.386 274.596,134.864 273.624,134.864 C271.374,134.864 270.528,137.222 270.528,139.598 C270.528,141.038 271.014,141.83 272.184,141.884 C272.544,141.884 272.904,141.83 273.264,141.722 C273.948,141.506 274.596,141.092 275.046,140.678 Z M282.84,143.216 C280.14,143.216 279.222,141.38 279.222,139.184 C279.222,136.16 281.022,133.568 284.172,133.568 C286.188,133.568 287.142,134.648 287.142,135.962 C287.142,137.51 286.116,138.392 284.73,138.824 C283.362,139.256 281.742,139.346 280.86,139.382 C280.878,140.642 281.184,141.92 283.092,141.92 C284.406,141.92 285.162,141.146 285.45,140.192 L286.8,140.498 C286.26,142.334 284.676,143.216 282.84,143.216 Z M284.064,134.81 C282.174,134.81 281.166,136.358 280.932,138.14 C281.364,138.122 282.876,138.05 284.1,137.672 C285,137.384 285.576,136.898 285.576,136.034 C285.576,135.224 285,134.81 284.064,134.81 Z M291.066,136.322 C291.732,135.782 292.974,134.936 294.162,134.936 C295.17,134.936 295.602,135.548 295.404,136.916 L294.558,143 L296.196,143 L297.06,136.736 C297.348,134.612 296.448,133.568 294.648,133.568 C293.172,133.568 291.876,134.396 291.156,135.026 L291.138,135.026 L291.336,133.748 L289.788,133.748 L288.492,143 L290.13,143 L291.066,136.322 Z M303.792,141.488 C303.378,141.722 302.73,141.956 302.136,141.956 C301.038,141.956 300.93,141.344 301.074,140.372 L301.848,134.954 L304.386,134.954 L304.548,133.748 L302.01,133.748 L302.406,130.85 L300.75,131.084 L300.372,133.748 L298.932,133.748 L298.77,134.954 L300.21,134.954 L299.418,140.552 C299.148,142.388 299.994,143.216 301.758,143.216 C302.586,143.216 303.504,142.946 304.008,142.64 L303.792,141.488 Z M309.57,133.568 C307.788,133.568 306.06,134.414 306.06,136.376 C306.06,138.266 307.572,138.608 308.868,138.968 C309.858,139.238 310.722,139.544 310.722,140.516 C310.722,141.668 309.642,141.992 308.67,141.992 C307.068,141.992 306.618,141.146 306.492,140.102 L305.142,140.408 C305.304,142.244 306.402,143.216 308.58,143.216 C310.812,143.216 312.324,142.154 312.324,140.282 C312.324,138.356 310.65,138.032 309.3,137.636 C308.382,137.366 307.608,137.042 307.608,136.16 C307.608,135.44 308.076,134.756 309.534,134.756 C310.884,134.756 311.352,135.584 311.406,136.61 L312.792,136.412 C312.702,134.792 311.766,133.568 309.57,133.568 Z M316.194,141.83 C316.194,141.2 315.834,140.858 315.132,140.858 C314.214,140.858 313.71,141.344 313.71,142.244 C313.71,142.892 314.088,143.216 314.79,143.216 C315.708,143.216 316.194,142.73 316.194,141.83 Z" id="Click-on-the-checkbo" fill="#EA9A1A"></path>
                </g>
            </g>
        </g>
    </g>
</svg>