<?xml version="1.0" encoding="UTF-8"?>
<svg width="560px" height="156px" viewBox="0 0 560 156" version="1.1" xmlns="http://www.w3.org/2000/svg" xmlns:xlink="http://www.w3.org/1999/xlink">
    <!-- Generator: Sketch 43.2 (39069) - http://www.bohemiancoding.com/sketch -->
    <title>Group 15</title>
    <desc>Created with Sketch.</desc>
    <defs></defs>
    <g id="V1" stroke="none" stroke-width="1" fill="none" fill-rule="evenodd">
        <g id="12_00-Guide-4-Copy" transform="translate(-688.000000, -145.000000)">
            <g id="Group-15" transform="translate(678.000000, 96.000000)">
                <path d="M341.994,103.968 L339.528,103.968 L334.308,115.164 L334.272,115.164 L332.13,103.968 L329.7,103.968 L327.918,117 L329.412,117 L330.96,105.66 L330.978,105.66 L333.174,117 L334.884,117 L340.212,105.678 L340.23,105.678 L338.682,117 L340.212,117 L341.994,103.968 Z M352.128,107.748 L351.066,115.254 C350.994,115.758 351.066,116.028 351.516,116.028 C351.678,116.028 351.84,116.01 352.092,115.938 L351.984,116.928 C351.714,117.036 351.282,117.108 350.922,117.108 C350.058,117.108 349.554,116.748 349.572,115.794 C348.798,116.64 347.574,117.216 346.368,117.216 C344.622,117.216 343.38,116.172 343.38,113.634 C343.38,110.592 344.802,107.568 347.898,107.568 C348.96,107.568 349.896,108.054 350.472,108.558 L350.616,107.748 L352.128,107.748 Z M349.572,114.57 L350.238,109.818 C349.77,109.368 348.888,108.918 347.988,108.918 C345.738,108.918 345.036,111.636 345.036,113.49 C345.036,115.254 345.72,115.902 346.818,115.902 C347.682,115.902 348.456,115.596 349.572,114.57 Z M356.43,110.556 L355.53,117 L353.892,117 L355.188,107.748 L356.7,107.748 L356.502,109.314 C357.456,108.252 358.266,107.586 359.526,107.586 C359.67,107.586 359.814,107.586 359.958,107.604 L359.724,109.224 C358.518,109.116 357.51,109.62 356.43,110.556 Z M364.998,108.918 C362.784,108.918 362.064,111.456 362.064,113.274 C362.064,114.984 362.748,115.596 363.81,115.596 C364.71,115.596 365.574,115.362 366.636,114.318 L367.248,109.8 C366.798,109.314 365.898,108.918 364.998,108.918 Z M366.24,117.504 L366.546,115.65 C365.754,116.442 364.53,116.928 363.342,116.928 C361.614,116.928 360.408,115.902 360.408,113.4 C360.408,110.808 361.578,107.568 364.926,107.568 C365.97,107.568 366.942,108.036 367.518,108.594 L367.68,107.748 L369.156,107.748 L367.788,117.54 C367.464,119.808 365.934,121.014 363.486,121.014 C361.344,121.014 359.976,120.15 359.796,118.116 L361.326,117.864 C361.416,118.908 361.866,119.718 363.468,119.718 C364.782,119.718 365.97,119.178 366.24,117.504 Z M379.398,107.748 L378.336,115.254 C378.264,115.758 378.336,116.028 378.786,116.028 C378.948,116.028 379.11,116.01 379.362,115.938 L379.254,116.928 C378.984,117.036 378.552,117.108 378.192,117.108 C377.328,117.108 376.824,116.748 376.842,115.794 C376.068,116.64 374.844,117.216 373.638,117.216 C371.892,117.216 370.65,116.172 370.65,113.634 C370.65,110.592 372.072,107.568 375.168,107.568 C376.23,107.568 377.166,108.054 377.742,108.558 L377.886,107.748 L379.398,107.748 Z M376.842,114.57 L377.508,109.818 C377.04,109.368 376.158,108.918 375.258,108.918 C373.008,108.918 372.306,111.636 372.306,113.49 C372.306,115.254 372.99,115.902 374.088,115.902 C374.952,115.902 375.726,115.596 376.842,114.57 Z M383.7,110.556 C384.78,109.62 385.788,109.116 386.994,109.224 L387.228,107.604 C387.084,107.586 386.94,107.586 386.796,107.586 C385.536,107.586 384.726,108.252 383.772,109.314 L383.97,107.748 L382.458,107.748 L381.162,117 L382.8,117 L383.7,110.556 Z M391.386,117.216 C388.686,117.216 387.768,115.38 387.768,113.184 C387.768,110.16 389.568,107.568 392.718,107.568 C394.734,107.568 395.688,108.648 395.688,109.962 C395.688,111.51 394.662,112.392 393.276,112.824 C391.908,113.256 390.288,113.346 389.406,113.382 C389.424,114.642 389.73,115.92 391.638,115.92 C392.952,115.92 393.708,115.146 393.996,114.192 L395.346,114.498 C394.806,116.334 393.222,117.216 391.386,117.216 Z M392.61,108.81 C390.72,108.81 389.712,110.358 389.478,112.14 C389.91,112.122 391.422,112.05 392.646,111.672 C393.546,111.384 394.122,110.898 394.122,110.034 C394.122,109.224 393.546,108.81 392.61,108.81 Z M402.096,115.488 C401.682,115.722 401.034,115.956 400.44,115.956 C399.342,115.956 399.234,115.344 399.378,114.372 L400.152,108.954 L402.69,108.954 L402.852,107.748 L400.314,107.748 L400.71,104.85 L399.054,105.084 L398.676,107.748 L397.236,107.748 L397.074,108.954 L398.514,108.954 L397.722,114.552 C397.452,116.388 398.298,117.216 400.062,117.216 C400.89,117.216 401.808,116.946 402.312,116.64 L402.096,115.488 Z M416.55,107.748 L415.488,115.254 C415.416,115.758 415.488,116.028 415.938,116.028 C416.1,116.028 416.262,116.01 416.514,115.938 L416.406,116.928 C416.136,117.036 415.704,117.108 415.344,117.108 C414.48,117.108 413.976,116.748 413.994,115.794 C413.22,116.64 411.996,117.216 410.79,117.216 C409.044,117.216 407.802,116.172 407.802,113.634 C407.802,110.592 409.224,107.568 412.32,107.568 C413.382,107.568 414.318,108.054 414.894,108.558 L415.038,107.748 L416.55,107.748 Z M413.994,114.57 L414.66,109.818 C414.192,109.368 413.31,108.918 412.41,108.918 C410.16,108.918 409.458,111.636 409.458,113.49 C409.458,115.254 410.142,115.902 411.24,115.902 C412.104,115.902 412.878,115.596 413.994,114.57 Z M420.888,110.322 C421.554,109.782 422.796,108.936 423.984,108.936 C424.992,108.936 425.424,109.548 425.226,110.916 L424.38,117 L426.018,117 L426.882,110.736 C427.17,108.612 426.27,107.568 424.47,107.568 C422.994,107.568 421.698,108.396 420.978,109.026 L420.96,109.026 L421.158,107.748 L419.61,107.748 L418.314,117 L419.952,117 L420.888,110.322 Z M436.35,117 L434.928,117 L435.018,115.938 L435.018,115.92 C434.154,116.64 433.056,117.216 431.886,117.216 C430.068,117.216 428.862,116.136 428.862,113.688 C428.862,109.224 431.22,107.568 433.434,107.568 C434.514,107.568 435.342,108 435.936,108.522 L436.638,103.41 L438.258,103.41 L436.35,117 Z M435.036,114.678 L435.72,109.71 C435.342,109.386 434.586,108.864 433.614,108.864 C431.364,108.864 430.518,111.222 430.518,113.598 C430.518,115.038 431.004,115.83 432.174,115.884 C432.534,115.884 432.894,115.83 433.254,115.722 C433.938,115.506 434.586,115.092 435.036,114.678 Z M450.84,117 L451.038,115.65 L445.044,115.65 L445.656,111.114 L451.056,111.114 L451.254,109.764 L445.854,109.764 L446.448,105.318 L452.226,105.318 L452.388,103.968 L445.026,103.968 L443.244,117 L450.84,117 Z M455.628,110.322 C456.294,109.782 457.536,108.936 458.724,108.936 C459.732,108.936 460.164,109.548 459.966,110.916 L459.12,117 L460.758,117 L461.622,110.736 C461.91,108.612 461.01,107.568 459.21,107.568 C457.734,107.568 456.438,108.396 455.718,109.026 L455.7,109.026 L455.898,107.748 L454.35,107.748 L453.054,117 L454.692,117 L455.628,110.322 Z M466.428,107.748 L464.79,107.748 L463.494,117 L465.132,117 L466.428,107.748 Z M467.22,104.598 C467.22,103.986 466.86,103.644 466.212,103.644 C465.384,103.644 464.88,104.13 464.88,104.976 C464.88,105.57 465.24,105.93 465.888,105.93 C466.716,105.93 467.22,105.426 467.22,104.598 Z M475.536,117 L474.114,117 L474.204,115.938 L474.204,115.92 C473.34,116.64 472.242,117.216 471.072,117.216 C469.254,117.216 468.048,116.136 468.048,113.688 C468.048,109.224 470.406,107.568 472.62,107.568 C473.7,107.568 474.528,108 475.122,108.522 L475.824,103.41 L477.444,103.41 L475.536,117 Z M474.222,114.678 L474.906,109.71 C474.528,109.386 473.772,108.864 472.8,108.864 C470.55,108.864 469.704,111.222 469.704,113.598 C469.704,115.038 470.19,115.83 471.36,115.884 C471.72,115.884 472.08,115.83 472.44,115.722 C473.124,115.506 473.772,115.092 474.222,114.678 Z M484.788,110.34 C485.706,109.638 486.696,108.936 487.866,108.936 C488.874,108.936 489.324,109.512 489.126,110.916 L488.28,117 L489.918,117 L490.782,110.736 C491.07,108.612 490.206,107.568 488.334,107.568 C486.912,107.568 485.634,108.414 484.914,109.026 L485.742,103.41 L484.122,103.41 L482.214,117 L483.852,117 L484.788,110.34 Z M501.492,107.748 L500.43,115.254 C500.358,115.758 500.43,116.028 500.88,116.028 C501.042,116.028 501.204,116.01 501.456,115.938 L501.348,116.928 C501.078,117.036 500.646,117.108 500.286,117.108 C499.422,117.108 498.918,116.748 498.936,115.794 C498.162,116.64 496.938,117.216 495.732,117.216 C493.986,117.216 492.744,116.172 492.744,113.634 C492.744,110.592 494.166,107.568 497.262,107.568 C498.324,107.568 499.26,108.054 499.836,108.558 L499.98,107.748 L501.492,107.748 Z M498.936,114.57 L499.602,109.818 C499.134,109.368 498.252,108.918 497.352,108.918 C495.102,108.918 494.4,111.636 494.4,113.49 C494.4,115.254 495.084,115.902 496.182,115.902 C497.046,115.902 497.82,115.596 498.936,114.57 Z M507.198,117 L511.824,107.748 L510.15,107.748 L506.514,115.434 L506.496,115.434 L505.002,107.748 L503.256,107.748 L505.344,117 L507.198,117 Z M515.91,117.216 C513.21,117.216 512.292,115.38 512.292,113.184 C512.292,110.16 514.092,107.568 517.242,107.568 C519.258,107.568 520.212,108.648 520.212,109.962 C520.212,111.51 519.186,112.392 517.8,112.824 C516.432,113.256 514.812,113.346 513.93,113.382 C513.948,114.642 514.254,115.92 516.162,115.92 C517.476,115.92 518.232,115.146 518.52,114.192 L519.87,114.498 C519.33,116.334 517.746,117.216 515.91,117.216 Z M517.134,108.81 C515.244,108.81 514.236,110.358 514.002,112.14 C514.434,112.122 515.946,112.05 517.17,111.672 C518.07,111.384 518.646,110.898 518.646,110.034 C518.646,109.224 518.07,108.81 517.134,108.81 Z M526.908,117 L525.414,117 L527.322,103.41 L528.924,103.41 L528.132,108.954 C529.068,108.234 530.13,107.568 531.48,107.568 C533.118,107.568 534.288,108.522 534.288,111.078 C534.288,115.362 532.146,117.216 529.878,117.216 C528.744,117.216 527.826,116.802 527.088,116.172 L527.07,116.172 L526.908,117 Z M527.988,110.286 L527.34,114.912 C527.7,115.236 528.51,115.848 529.644,115.848 C531.84,115.848 532.596,113.562 532.596,111.204 C532.596,109.62 532.074,108.918 530.976,108.918 C529.932,108.918 528.6,109.746 527.988,110.286 Z M539.598,117.216 C536.898,117.216 535.98,115.38 535.98,113.184 C535.98,110.16 537.78,107.568 540.93,107.568 C542.946,107.568 543.9,108.648 543.9,109.962 C543.9,111.51 542.874,112.392 541.488,112.824 C540.12,113.256 538.5,113.346 537.618,113.382 C537.636,114.642 537.942,115.92 539.85,115.92 C541.164,115.92 541.92,115.146 542.208,114.192 L543.558,114.498 C543.018,116.334 541.434,117.216 539.598,117.216 Z M540.822,108.81 C538.932,108.81 537.924,110.358 537.69,112.14 C538.122,112.122 539.634,112.05 540.858,111.672 C541.758,111.384 542.334,110.898 542.334,110.034 C542.334,109.224 541.758,108.81 540.822,108.81 Z M548.904,117.216 C546.204,117.216 545.286,115.38 545.286,113.184 C545.286,110.16 547.086,107.568 550.236,107.568 C552.252,107.568 553.206,108.648 553.206,109.962 C553.206,111.51 552.18,112.392 550.794,112.824 C549.426,113.256 547.806,113.346 546.924,113.382 C546.942,114.642 547.248,115.92 549.156,115.92 C550.47,115.92 551.226,115.146 551.514,114.192 L552.864,114.498 C552.324,116.334 550.74,117.216 548.904,117.216 Z M550.128,108.81 C548.238,108.81 547.23,110.358 546.996,112.14 C547.428,112.122 548.94,112.05 550.164,111.672 C551.064,111.384 551.64,110.898 551.64,110.034 C551.64,109.224 551.064,108.81 550.128,108.81 Z M557.13,110.322 C557.796,109.782 559.038,108.936 560.226,108.936 C561.234,108.936 561.666,109.548 561.468,110.916 L560.622,117 L562.26,117 L563.124,110.736 C563.412,108.612 562.512,107.568 560.712,107.568 C559.236,107.568 557.94,108.396 557.22,109.026 L557.202,109.026 L557.4,107.748 L555.852,107.748 L554.556,117 L556.194,117 L557.13,110.322 Z M334.182,131.536 L333.966,132.742 C333.606,132.616 333.138,132.526 332.742,132.526 C331.914,132.526 331.338,132.904 331.158,134.146 L330.942,135.748 L333.444,135.748 L333.264,136.954 L330.762,136.954 L329.088,148.816 L327.45,148.816 L329.124,136.954 L327.756,136.954 L327.936,135.748 L329.304,135.748 L329.52,134.2 C329.808,132.184 330.888,131.23 332.598,131.23 C333.318,131.23 333.912,131.392 334.182,131.536 Z M333.822,145 L335.73,131.41 L337.368,131.41 L335.46,145 L333.822,145 Z M347.106,135.748 L346.044,143.254 C345.972,143.758 346.044,144.028 346.494,144.028 C346.656,144.028 346.818,144.01 347.07,143.938 L346.962,144.928 C346.692,145.036 346.26,145.108 345.9,145.108 C345.036,145.108 344.532,144.748 344.55,143.794 C343.776,144.64 342.552,145.216 341.346,145.216 C339.6,145.216 338.358,144.172 338.358,141.634 C338.358,138.592 339.78,135.568 342.876,135.568 C343.938,135.568 344.874,136.054 345.45,136.558 L345.594,135.748 L347.106,135.748 Z M344.55,142.57 L345.216,137.818 C344.748,137.368 343.866,136.918 342.966,136.918 C340.716,136.918 340.014,139.636 340.014,141.49 C340.014,143.254 340.698,143.902 341.796,143.902 C342.66,143.902 343.434,143.596 344.55,142.57 Z M353.406,136.918 C351.192,136.918 350.472,139.456 350.472,141.274 C350.472,142.984 351.156,143.596 352.218,143.596 C353.118,143.596 353.982,143.362 355.044,142.318 L355.656,137.8 C355.206,137.314 354.306,136.918 353.406,136.918 Z M354.648,145.504 L354.954,143.65 C354.162,144.442 352.938,144.928 351.75,144.928 C350.022,144.928 348.816,143.902 348.816,141.4 C348.816,138.808 349.986,135.568 353.334,135.568 C354.378,135.568 355.35,136.036 355.926,136.594 L356.088,135.748 L357.564,135.748 L356.196,145.54 C355.872,147.808 354.342,149.014 351.894,149.014 C349.752,149.014 348.384,148.15 348.204,146.116 L349.734,145.864 C349.824,146.908 350.274,147.718 351.876,147.718 C353.19,147.718 354.378,147.178 354.648,145.504 Z M363.54,136.918 C361.326,136.918 360.606,139.456 360.606,141.274 C360.606,142.984 361.29,143.596 362.352,143.596 C363.252,143.596 364.116,143.362 365.178,142.318 L365.79,137.8 C365.34,137.314 364.44,136.918 363.54,136.918 Z M364.782,145.504 L365.088,143.65 C364.296,144.442 363.072,144.928 361.884,144.928 C360.156,144.928 358.95,143.902 358.95,141.4 C358.95,138.808 360.12,135.568 363.468,135.568 C364.512,135.568 365.484,136.036 366.06,136.594 L366.222,135.748 L367.698,135.748 L366.33,145.54 C366.006,147.808 364.476,149.014 362.028,149.014 C359.886,149.014 358.518,148.15 358.338,146.116 L359.868,145.864 C359.958,146.908 360.408,147.718 362.01,147.718 C363.324,147.718 364.512,147.178 364.782,145.504 Z M372.792,145.216 C370.092,145.216 369.174,143.38 369.174,141.184 C369.174,138.16 370.974,135.568 374.124,135.568 C376.14,135.568 377.094,136.648 377.094,137.962 C377.094,139.51 376.068,140.392 374.682,140.824 C373.314,141.256 371.694,141.346 370.812,141.382 C370.83,142.642 371.136,143.92 373.044,143.92 C374.358,143.92 375.114,143.146 375.402,142.192 L376.752,142.498 C376.212,144.334 374.628,145.216 372.792,145.216 Z M374.016,136.81 C372.126,136.81 371.118,138.358 370.884,140.14 C371.316,140.122 372.828,140.05 374.052,139.672 C374.952,139.384 375.528,138.898 375.528,138.034 C375.528,137.224 374.952,136.81 374.016,136.81 Z M386.004,145 L384.582,145 L384.672,143.938 L384.672,143.92 C383.808,144.64 382.71,145.216 381.54,145.216 C379.722,145.216 378.516,144.136 378.516,141.688 C378.516,137.224 380.874,135.568 383.088,135.568 C384.168,135.568 384.996,136 385.59,136.522 L386.292,131.41 L387.912,131.41 L386.004,145 Z M384.69,142.678 L385.374,137.71 C384.996,137.386 384.24,136.864 383.268,136.864 C381.018,136.864 380.172,139.222 380.172,141.598 C380.172,143.038 380.658,143.83 381.828,143.884 C382.188,143.884 382.548,143.83 382.908,143.722 C383.592,143.506 384.24,143.092 384.69,142.678 Z M399.288,131.554 L399.054,132.76 C398.712,132.634 398.208,132.526 397.776,132.526 C396.948,132.526 396.318,132.868 396.138,134.164 L395.922,135.748 L398.496,135.748 L398.316,136.954 L395.742,136.954 L394.068,148.816 L392.43,148.816 L394.104,136.954 L392.736,136.954 L392.916,135.748 L394.284,135.748 L394.5,134.2 C394.77,132.184 395.886,131.23 397.614,131.23 C398.406,131.23 399.018,131.41 399.288,131.554 Z M402.186,145.216 C399.576,145.216 398.46,143.722 398.46,141.454 C398.46,141.058 398.478,140.662 398.532,140.284 C398.91,137.494 400.602,135.568 403.554,135.568 C406.218,135.568 407.172,137.224 407.172,139.33 C407.172,139.726 407.154,140.086 407.1,140.5 C406.74,143.416 405.066,145.216 402.186,145.216 Z M402.33,143.974 C403.986,143.974 405.156,142.786 405.444,140.374 C405.48,140.014 405.498,139.672 405.498,139.312 C405.498,137.674 404.76,136.882 403.356,136.882 C401.682,136.882 400.458,138.016 400.17,140.374 C400.134,140.698 400.116,141.04 400.116,141.382 C400.116,143.074 400.854,143.974 402.33,143.974 Z M411.366,138.556 C412.446,137.62 413.454,137.116 414.66,137.224 L414.894,135.604 C414.75,135.586 414.606,135.586 414.462,135.586 C413.202,135.586 412.392,136.252 411.438,137.314 L411.636,135.748 L410.124,135.748 L408.828,145 L410.466,145 L411.366,138.556 Z M424.308,143.488 C423.894,143.722 423.246,143.956 422.652,143.956 C421.554,143.956 421.446,143.344 421.59,142.372 L422.364,136.954 L424.902,136.954 L425.064,135.748 L422.526,135.748 L422.922,132.85 L421.266,133.084 L420.888,135.748 L419.448,135.748 L419.286,136.954 L420.726,136.954 L419.934,142.552 C419.664,144.388 420.51,145.216 422.274,145.216 C423.102,145.216 424.02,144.946 424.524,144.64 L424.308,143.488 Z M428.682,138.34 C429.6,137.638 430.59,136.936 431.76,136.936 C432.768,136.936 433.218,137.512 433.02,138.916 L432.174,145 L433.812,145 L434.676,138.736 C434.964,136.612 434.1,135.568 432.228,135.568 C430.806,135.568 429.528,136.414 428.808,137.026 L429.636,131.41 L428.016,131.41 L426.108,145 L427.746,145 L428.682,138.34 Z M439.482,135.748 L437.844,135.748 L436.548,145 L438.186,145 L439.482,135.748 Z M440.274,132.598 C440.274,131.986 439.914,131.644 439.266,131.644 C438.438,131.644 437.934,132.13 437.934,132.976 C437.934,133.57 438.294,133.93 438.942,133.93 C439.77,133.93 440.274,133.426 440.274,132.598 Z M445.152,135.568 C443.37,135.568 441.642,136.414 441.642,138.376 C441.642,140.266 443.154,140.608 444.45,140.968 C445.44,141.238 446.304,141.544 446.304,142.516 C446.304,143.668 445.224,143.992 444.252,143.992 C442.65,143.992 442.2,143.146 442.074,142.102 L440.724,142.408 C440.886,144.244 441.984,145.216 444.162,145.216 C446.394,145.216 447.906,144.154 447.906,142.282 C447.906,140.356 446.232,140.032 444.882,139.636 C443.964,139.366 443.19,139.042 443.19,138.16 C443.19,137.44 443.658,136.756 445.116,136.756 C446.466,136.756 446.934,137.584 446.988,138.61 L448.374,138.412 C448.284,136.792 447.348,135.568 445.152,135.568 Z M458.274,135.568 C459.336,135.568 460.218,136 460.812,136.558 L460.938,135.748 L462.468,135.748 L460.632,148.816 L459.084,148.816 L459.786,143.992 C458.958,144.658 457.86,145.216 456.69,145.216 C454.89,145.216 453.702,144.154 453.702,141.742 C453.702,137.206 456.042,135.568 458.274,135.568 Z M455.358,141.49 C455.358,143.02 455.844,143.866 457.104,143.866 C458.148,143.866 459.228,143.272 459.876,142.66 L460.56,137.674 C460.2,137.332 459.426,136.864 458.454,136.864 C456.222,136.864 455.358,139.078 455.358,141.49 Z M470.244,142.534 C469.488,143.2 468.354,143.848 467.256,143.848 C466.464,143.848 466.032,143.56 465.96,142.84 C465.906,142.588 465.924,142.246 465.978,141.832 L466.824,135.748 L465.186,135.748 L464.322,141.994 C464.034,144.118 464.88,145.18 466.734,145.18 C468.138,145.18 469.488,144.424 470.208,143.776 L470.046,145 L471.522,145 L472.818,135.748 L471.18,135.748 L470.244,142.534 Z M478.056,145.216 C475.356,145.216 474.438,143.38 474.438,141.184 C474.438,138.16 476.238,135.568 479.388,135.568 C481.404,135.568 482.358,136.648 482.358,137.962 C482.358,139.51 481.332,140.392 479.946,140.824 C478.578,141.256 476.958,141.346 476.076,141.382 C476.094,142.642 476.4,143.92 478.308,143.92 C479.622,143.92 480.378,143.146 480.666,142.192 L482.016,142.498 C481.476,144.334 479.892,145.216 478.056,145.216 Z M479.28,136.81 C477.39,136.81 476.382,138.358 476.148,140.14 C476.58,140.122 478.092,140.05 479.316,139.672 C480.216,139.384 480.792,138.898 480.792,138.034 C480.792,137.224 480.216,136.81 479.28,136.81 Z M487.83,135.568 C486.048,135.568 484.32,136.414 484.32,138.376 C484.32,140.266 485.832,140.608 487.128,140.968 C488.118,141.238 488.982,141.544 488.982,142.516 C488.982,143.668 487.902,143.992 486.93,143.992 C485.328,143.992 484.878,143.146 484.752,142.102 L483.402,142.408 C483.564,144.244 484.662,145.216 486.84,145.216 C489.072,145.216 490.584,144.154 490.584,142.282 C490.584,140.356 488.91,140.032 487.56,139.636 C486.642,139.366 485.868,139.042 485.868,138.16 C485.868,137.44 486.336,136.756 487.794,136.756 C489.144,136.756 489.612,137.584 489.666,138.61 L491.052,138.412 C490.962,136.792 490.026,135.568 487.83,135.568 Z M497.514,143.488 C497.1,143.722 496.452,143.956 495.858,143.956 C494.76,143.956 494.652,143.344 494.796,142.372 L495.57,136.954 L498.108,136.954 L498.27,135.748 L495.732,135.748 L496.128,132.85 L494.472,133.084 L494.094,135.748 L492.654,135.748 L492.492,136.954 L493.932,136.954 L493.14,142.552 C492.87,144.388 493.716,145.216 495.48,145.216 C496.308,145.216 497.226,144.946 497.73,144.64 L497.514,143.488 Z M502.212,135.748 L500.574,135.748 L499.278,145 L500.916,145 L502.212,135.748 Z M503.004,132.598 C503.004,131.986 502.644,131.644 501.996,131.644 C501.168,131.644 500.664,132.13 500.664,132.976 C500.664,133.57 501.024,133.93 501.672,133.93 C502.5,133.93 503.004,133.426 503.004,132.598 Z M507.504,145.216 C504.894,145.216 503.778,143.722 503.778,141.454 C503.778,141.058 503.796,140.662 503.85,140.284 C504.228,137.494 505.92,135.568 508.872,135.568 C511.536,135.568 512.49,137.224 512.49,139.33 C512.49,139.726 512.472,140.086 512.418,140.5 C512.058,143.416 510.384,145.216 507.504,145.216 Z M507.648,143.974 C509.304,143.974 510.474,142.786 510.762,140.374 C510.798,140.014 510.816,139.672 510.816,139.312 C510.816,137.674 510.078,136.882 508.674,136.882 C507,136.882 505.776,138.016 505.488,140.374 C505.452,140.698 505.434,141.04 505.434,141.382 C505.434,143.074 506.172,143.974 507.648,143.974 Z M516.72,138.322 C517.386,137.782 518.628,136.936 519.816,136.936 C520.824,136.936 521.256,137.548 521.058,138.916 L520.212,145 L521.85,145 L522.714,138.736 C523.002,136.612 522.102,135.568 520.302,135.568 C518.826,135.568 517.53,136.396 516.81,137.026 L516.792,137.026 L516.99,135.748 L515.442,135.748 L514.146,145 L515.784,145 L516.72,138.322 Z M329.196,173 L327.702,173 L329.61,159.41 L331.212,159.41 L330.42,164.954 C331.356,164.234 332.418,163.568 333.768,163.568 C335.406,163.568 336.576,164.522 336.576,167.078 C336.576,171.362 334.434,173.216 332.166,173.216 C331.032,173.216 330.114,172.802 329.376,172.172 L329.358,172.172 L329.196,173 Z M330.276,166.286 L329.628,170.912 C329.988,171.236 330.798,171.848 331.932,171.848 C334.128,171.848 334.884,169.562 334.884,167.204 C334.884,165.62 334.362,164.918 333.264,164.918 C332.22,164.918 330.888,165.746 330.276,166.286 Z M341.886,173.216 C339.186,173.216 338.268,171.38 338.268,169.184 C338.268,166.16 340.068,163.568 343.218,163.568 C345.234,163.568 346.188,164.648 346.188,165.962 C346.188,167.51 345.162,168.392 343.776,168.824 C342.408,169.256 340.788,169.346 339.906,169.382 C339.924,170.642 340.23,171.92 342.138,171.92 C343.452,171.92 344.208,171.146 344.496,170.192 L345.846,170.498 C345.306,172.334 343.722,173.216 341.886,173.216 Z M343.11,164.81 C341.22,164.81 340.212,166.358 339.978,168.14 C340.41,168.122 341.922,168.05 343.146,167.672 C344.046,167.384 344.622,166.898 344.622,166.034 C344.622,165.224 344.046,164.81 343.11,164.81 Z M351.282,173.216 C353.172,173.216 354.828,172.316 355.35,170.228 L353.928,169.958 C353.532,171.272 352.65,171.92 351.408,171.92 C350.238,171.92 349.266,171.218 349.266,169.238 C349.266,165.89 350.958,164.882 352.416,164.882 C353.946,164.882 354.324,165.836 354.252,167.294 L355.746,167.186 C355.962,165.098 354.792,163.568 352.596,163.568 C349.662,163.568 347.556,165.638 347.556,169.31 C347.556,171.614 348.672,173.216 351.282,173.216 Z M365.97,163.748 L364.908,171.254 C364.836,171.758 364.908,172.028 365.358,172.028 C365.52,172.028 365.682,172.01 365.934,171.938 L365.826,172.928 C365.556,173.036 365.124,173.108 364.764,173.108 C363.9,173.108 363.396,172.748 363.414,171.794 C362.64,172.64 361.416,173.216 360.21,173.216 C358.464,173.216 357.222,172.172 357.222,169.634 C357.222,166.592 358.644,163.568 361.74,163.568 C362.802,163.568 363.738,164.054 364.314,164.558 L364.458,163.748 L365.97,163.748 Z M363.414,170.57 L364.08,165.818 C363.612,165.368 362.73,164.918 361.83,164.918 C359.58,164.918 358.878,167.636 358.878,169.49 C358.878,171.254 359.562,171.902 360.66,171.902 C361.524,171.902 362.298,171.596 363.414,170.57 Z M374.016,170.534 C373.26,171.2 372.126,171.848 371.028,171.848 C370.236,171.848 369.804,171.56 369.732,170.84 C369.678,170.588 369.696,170.246 369.75,169.832 L370.596,163.748 L368.958,163.748 L368.094,169.994 C367.806,172.118 368.652,173.18 370.506,173.18 C371.91,173.18 373.26,172.424 373.98,171.776 L373.818,173 L375.294,173 L376.59,163.748 L374.952,163.748 L374.016,170.534 Z M382.296,163.568 C380.514,163.568 378.786,164.414 378.786,166.376 C378.786,168.266 380.298,168.608 381.594,168.968 C382.584,169.238 383.448,169.544 383.448,170.516 C383.448,171.668 382.368,171.992 381.396,171.992 C379.794,171.992 379.344,171.146 379.218,170.102 L377.868,170.408 C378.03,172.244 379.128,173.216 381.306,173.216 C383.538,173.216 385.05,172.154 385.05,170.282 C385.05,168.356 383.376,168.032 382.026,167.636 C381.108,167.366 380.334,167.042 380.334,166.16 C380.334,165.44 380.802,164.756 382.26,164.756 C383.61,164.756 384.078,165.584 384.132,166.61 L385.518,166.412 C385.428,164.792 384.492,163.568 382.296,163.568 Z M390.576,173.216 C387.876,173.216 386.958,171.38 386.958,169.184 C386.958,166.16 388.758,163.568 391.908,163.568 C393.924,163.568 394.878,164.648 394.878,165.962 C394.878,167.51 393.852,168.392 392.466,168.824 C391.098,169.256 389.478,169.346 388.596,169.382 C388.614,170.642 388.92,171.92 390.828,171.92 C392.142,171.92 392.898,171.146 393.186,170.192 L394.536,170.498 C393.996,172.334 392.412,173.216 390.576,173.216 Z M391.8,164.81 C389.91,164.81 388.902,166.358 388.668,168.14 C389.1,168.122 390.612,168.05 391.836,167.672 C392.736,167.384 393.312,166.898 393.312,166.034 C393.312,165.224 392.736,164.81 391.8,164.81 Z M405.138,171.488 C404.724,171.722 404.076,171.956 403.482,171.956 C402.384,171.956 402.276,171.344 402.42,170.372 L403.194,164.954 L405.732,164.954 L405.894,163.748 L403.356,163.748 L403.752,160.85 L402.096,161.084 L401.718,163.748 L400.278,163.748 L400.116,164.954 L401.556,164.954 L400.764,170.552 C400.494,172.388 401.34,173.216 403.104,173.216 C403.932,173.216 404.85,172.946 405.354,172.64 L405.138,171.488 Z M409.512,166.34 C410.43,165.638 411.42,164.936 412.59,164.936 C413.598,164.936 414.048,165.512 413.85,166.916 L413.004,173 L414.642,173 L415.506,166.736 C415.794,164.612 414.93,163.568 413.058,163.568 C411.636,163.568 410.358,164.414 409.638,165.026 L410.466,159.41 L408.846,159.41 L406.938,173 L408.576,173 L409.512,166.34 Z M421.068,173.216 C418.368,173.216 417.45,171.38 417.45,169.184 C417.45,166.16 419.25,163.568 422.4,163.568 C424.416,163.568 425.37,164.648 425.37,165.962 C425.37,167.51 424.344,168.392 422.958,168.824 C421.59,169.256 419.97,169.346 419.088,169.382 C419.106,170.642 419.412,171.92 421.32,171.92 C422.634,171.92 423.39,171.146 423.678,170.192 L425.028,170.498 C424.488,172.334 422.904,173.216 421.068,173.216 Z M422.292,164.81 C420.402,164.81 419.394,166.358 419.16,168.14 C419.592,168.122 421.104,168.05 422.328,167.672 C423.228,167.384 423.804,166.898 423.804,166.034 C423.804,165.224 423.228,164.81 422.292,164.81 Z M428.682,173.072 L426.738,163.748 L428.448,163.748 L429.78,171.2 L433.236,163.748 L434.946,163.748 L430.068,173.576 C428.772,176.15 428.124,177.014 426.432,177.014 C425.748,177.014 425.172,176.852 424.83,176.69 L425.118,175.502 C425.46,175.646 425.91,175.772 426.396,175.772 C427.278,175.772 427.764,175.106 428.682,173.072 Z M441.768,166.34 C442.686,165.638 443.676,164.936 444.846,164.936 C445.854,164.936 446.304,165.512 446.106,166.916 L445.26,173 L446.898,173 L447.762,166.736 C448.05,164.612 447.186,163.568 445.314,163.568 C443.892,163.568 442.614,164.414 441.894,165.026 L442.722,159.41 L441.102,159.41 L439.194,173 L440.832,173 L441.768,166.34 Z M458.472,163.748 L457.41,171.254 C457.338,171.758 457.41,172.028 457.86,172.028 C458.022,172.028 458.184,172.01 458.436,171.938 L458.328,172.928 C458.058,173.036 457.626,173.108 457.266,173.108 C456.402,173.108 455.898,172.748 455.916,171.794 C455.142,172.64 453.918,173.216 452.712,173.216 C450.966,173.216 449.724,172.172 449.724,169.634 C449.724,166.592 451.146,163.568 454.242,163.568 C455.304,163.568 456.24,164.054 456.816,164.558 L456.96,163.748 L458.472,163.748 Z M455.916,170.57 L456.582,165.818 C456.114,165.368 455.232,164.918 454.332,164.918 C452.082,164.918 451.38,167.636 451.38,169.49 C451.38,171.254 452.064,171.902 453.162,171.902 C454.026,171.902 454.8,171.596 455.916,170.57 Z M464.178,173 L468.804,163.748 L467.13,163.748 L463.494,171.434 L463.476,171.434 L461.982,163.748 L460.236,163.748 L462.324,173 L464.178,173 Z M472.89,173.216 C470.19,173.216 469.272,171.38 469.272,169.184 C469.272,166.16 471.072,163.568 474.222,163.568 C476.238,163.568 477.192,164.648 477.192,165.962 C477.192,167.51 476.166,168.392 474.78,168.824 C473.412,169.256 471.792,169.346 470.91,169.382 C470.928,170.642 471.234,171.92 473.142,171.92 C474.456,171.92 475.212,171.146 475.5,170.192 L476.85,170.498 C476.31,172.334 474.726,173.216 472.89,173.216 Z M474.114,164.81 C472.224,164.81 471.216,166.358 470.982,168.14 C471.414,168.122 472.926,168.05 474.15,167.672 C475.05,167.384 475.626,166.898 475.626,166.034 C475.626,165.224 475.05,164.81 474.114,164.81 Z M484.968,166.322 C485.634,165.782 486.876,164.936 488.064,164.936 C489.072,164.936 489.504,165.548 489.306,166.916 L488.46,173 L490.098,173 L490.962,166.736 C491.25,164.612 490.35,163.568 488.55,163.568 C487.074,163.568 485.778,164.396 485.058,165.026 L485.04,165.026 L485.238,163.748 L483.69,163.748 L482.394,173 L484.032,173 L484.968,166.322 Z M496.614,173.216 C494.004,173.216 492.888,171.722 492.888,169.454 C492.888,169.058 492.906,168.662 492.96,168.284 C493.338,165.494 495.03,163.568 497.982,163.568 C500.646,163.568 501.6,165.224 501.6,167.33 C501.6,167.726 501.582,168.086 501.528,168.5 C501.168,171.416 499.494,173.216 496.614,173.216 Z M496.758,171.974 C498.414,171.974 499.584,170.786 499.872,168.374 C499.908,168.014 499.926,167.672 499.926,167.312 C499.926,165.674 499.188,164.882 497.784,164.882 C496.11,164.882 494.886,166.016 494.598,168.374 C494.562,168.698 494.544,169.04 494.544,169.382 C494.544,171.074 495.282,171.974 496.758,171.974 Z M508.314,171.488 C507.9,171.722 507.252,171.956 506.658,171.956 C505.56,171.956 505.452,171.344 505.596,170.372 L506.37,164.954 L508.908,164.954 L509.07,163.748 L506.532,163.748 L506.928,160.85 L505.272,161.084 L504.894,163.748 L503.454,163.748 L503.292,164.954 L504.732,164.954 L503.94,170.552 C503.67,172.388 504.516,173.216 506.28,173.216 C507.108,173.216 508.026,172.946 508.53,172.64 L508.314,171.488 Z M517.368,173 L520.284,165.62 L521.166,173 L523.092,173 L527.124,163.748 L525.486,163.748 L522.39,171.308 L521.436,163.748 L519.69,163.748 L516.63,171.344 L515.586,163.748 L513.966,163.748 L515.406,173 L517.368,173 Z M530.076,166.556 C531.156,165.62 532.164,165.116 533.37,165.224 L533.604,163.604 C533.46,163.586 533.316,163.586 533.172,163.586 C531.912,163.586 531.102,164.252 530.148,165.314 L530.346,163.748 L528.834,163.748 L527.538,173 L529.176,173 L530.076,166.556 Z M537.006,163.748 L535.368,163.748 L534.072,173 L535.71,173 L537.006,163.748 Z M537.798,160.598 C537.798,159.986 537.438,159.644 536.79,159.644 C535.962,159.644 535.458,160.13 535.458,160.976 C535.458,161.57 535.818,161.93 536.466,161.93 C537.294,161.93 537.798,161.426 537.798,160.598 Z M549.462,171.488 C549.048,171.722 548.4,171.956 547.806,171.956 C546.708,171.956 546.6,171.344 546.744,170.372 L547.518,164.954 L550.056,164.954 L550.218,163.748 L547.68,163.748 L548.076,160.85 L546.42,161.084 L546.042,163.748 L541.83,163.748 L542.226,160.85 L540.57,161.084 L540.192,163.748 L538.752,163.748 L538.59,164.954 L540.03,164.954 L539.238,170.552 C538.968,172.388 539.814,173.216 541.578,173.216 C542.406,173.216 543.324,172.946 543.828,172.64 L543.612,171.488 C543.198,171.722 542.55,171.956 541.956,171.956 C540.858,171.956 540.75,171.344 540.894,170.372 L541.668,164.954 L545.88,164.954 L545.088,170.552 C544.818,172.388 545.664,173.216 547.428,173.216 C548.256,173.216 549.174,172.946 549.678,172.64 L549.462,171.488 Z M554.916,173.216 C552.216,173.216 551.298,171.38 551.298,169.184 C551.298,166.16 553.098,163.568 556.248,163.568 C558.264,163.568 559.218,164.648 559.218,165.962 C559.218,167.51 558.192,168.392 556.806,168.824 C555.438,169.256 553.818,169.346 552.936,169.382 C552.954,170.642 553.26,171.92 555.168,171.92 C556.482,171.92 557.238,171.146 557.526,170.192 L558.876,170.498 C558.336,172.334 556.752,173.216 554.916,173.216 Z M556.14,164.81 C554.25,164.81 553.242,166.358 553.008,168.14 C553.44,168.122 554.952,168.05 556.176,167.672 C557.076,167.384 557.652,166.898 557.652,166.034 C557.652,165.224 557.076,164.81 556.14,164.81 Z M563.142,166.322 C563.808,165.782 565.05,164.936 566.238,164.936 C567.246,164.936 567.678,165.548 567.48,166.916 L566.634,173 L568.272,173 L569.136,166.736 C569.424,164.612 568.524,163.568 566.724,163.568 C565.248,163.568 563.952,164.396 563.232,165.026 L563.214,165.026 L563.412,163.748 L561.864,163.748 L560.568,173 L562.206,173 L563.142,166.322 Z M331.824,191.568 C330.042,191.568 328.314,192.414 328.314,194.376 C328.314,196.266 329.826,196.608 331.122,196.968 C332.112,197.238 332.976,197.544 332.976,198.516 C332.976,199.668 331.896,199.992 330.924,199.992 C329.322,199.992 328.872,199.146 328.746,198.102 L327.396,198.408 C327.558,200.244 328.656,201.216 330.834,201.216 C333.066,201.216 334.578,200.154 334.578,198.282 C334.578,196.356 332.904,196.032 331.554,195.636 C330.636,195.366 329.862,195.042 329.862,194.16 C329.862,193.44 330.33,192.756 331.788,192.756 C333.138,192.756 333.606,193.584 333.66,194.61 L335.046,194.412 C334.956,192.792 334.02,191.568 331.824,191.568 Z M341.508,199.488 C341.094,199.722 340.446,199.956 339.852,199.956 C338.754,199.956 338.646,199.344 338.79,198.372 L339.564,192.954 L342.102,192.954 L342.264,191.748 L339.726,191.748 L340.122,188.85 L338.466,189.084 L338.088,191.748 L336.648,191.748 L336.486,192.954 L337.926,192.954 L337.134,198.552 C336.864,200.388 337.71,201.216 339.474,201.216 C340.302,201.216 341.22,200.946 341.724,200.64 L341.508,199.488 Z M345.846,194.556 C346.926,193.62 347.934,193.116 349.14,193.224 L349.374,191.604 C349.23,191.586 349.086,191.586 348.942,191.586 C347.682,191.586 346.872,192.252 345.918,193.314 L346.116,191.748 L344.604,191.748 L343.308,201 L344.946,201 L345.846,194.556 Z M353.622,201.216 C351.012,201.216 349.896,199.722 349.896,197.454 C349.896,197.058 349.914,196.662 349.968,196.284 C350.346,193.494 352.038,191.568 354.99,191.568 C357.654,191.568 358.608,193.224 358.608,195.33 C358.608,195.726 358.59,196.086 358.536,196.5 C358.176,199.416 356.502,201.216 353.622,201.216 Z M353.766,199.974 C355.422,199.974 356.592,198.786 356.88,196.374 C356.916,196.014 356.934,195.672 356.934,195.312 C356.934,193.674 356.196,192.882 354.792,192.882 C353.118,192.882 351.894,194.016 351.606,196.374 C351.57,196.698 351.552,197.04 351.552,197.382 C351.552,199.074 352.29,199.974 353.766,199.974 Z M362.838,194.322 C363.504,193.782 364.746,192.936 365.934,192.936 C366.942,192.936 367.374,193.548 367.176,194.916 L366.33,201 L367.968,201 L368.832,194.736 C369.12,192.612 368.22,191.568 366.42,191.568 C364.944,191.568 363.648,192.396 362.928,193.026 L362.91,193.026 L363.108,191.748 L361.56,191.748 L360.264,201 L361.902,201 L362.838,194.322 Z M375.276,192.918 C373.062,192.918 372.342,195.456 372.342,197.274 C372.342,198.984 373.026,199.596 374.088,199.596 C374.988,199.596 375.852,199.362 376.914,198.318 L377.526,193.8 C377.076,193.314 376.176,192.918 375.276,192.918 Z M376.518,201.504 L376.824,199.65 C376.032,200.442 374.808,200.928 373.62,200.928 C371.892,200.928 370.686,199.902 370.686,197.4 C370.686,194.808 371.856,191.568 375.204,191.568 C376.248,191.568 377.22,192.036 377.796,192.594 L377.958,191.748 L379.434,191.748 L378.066,201.54 C377.742,203.808 376.212,205.014 373.764,205.014 C371.622,205.014 370.254,204.15 370.074,202.116 L371.604,201.864 C371.694,202.908 372.144,203.718 373.746,203.718 C375.06,203.718 376.248,203.178 376.518,201.504 Z M388.848,191.568 C387.066,191.568 385.338,192.414 385.338,194.376 C385.338,196.266 386.85,196.608 388.146,196.968 C389.136,197.238 390,197.544 390,198.516 C390,199.668 388.92,199.992 387.948,199.992 C386.346,199.992 385.896,199.146 385.77,198.102 L384.42,198.408 C384.582,200.244 385.68,201.216 387.858,201.216 C390.09,201.216 391.602,200.154 391.602,198.282 C391.602,196.356 389.928,196.032 388.578,195.636 C387.66,195.366 386.886,195.042 386.886,194.16 C386.886,193.44 387.354,192.756 388.812,192.756 C390.162,192.756 390.63,193.584 390.684,194.61 L392.07,194.412 C391.98,192.792 391.044,191.568 388.848,191.568 Z M397.128,201.216 C394.428,201.216 393.51,199.38 393.51,197.184 C393.51,194.16 395.31,191.568 398.46,191.568 C400.476,191.568 401.43,192.648 401.43,193.962 C401.43,195.51 400.404,196.392 399.018,196.824 C397.65,197.256 396.03,197.346 395.148,197.382 C395.166,198.642 395.472,199.92 397.38,199.92 C398.694,199.92 399.45,199.146 399.738,198.192 L401.088,198.498 C400.548,200.334 398.964,201.216 397.128,201.216 Z M398.352,192.81 C396.462,192.81 395.454,194.358 395.22,196.14 C395.652,196.122 397.164,196.05 398.388,195.672 C399.288,195.384 399.864,194.898 399.864,194.034 C399.864,193.224 399.288,192.81 398.352,192.81 Z M405.354,194.322 C406.02,193.782 407.262,192.936 408.45,192.936 C409.458,192.936 409.89,193.548 409.692,194.916 L408.846,201 L410.484,201 L411.348,194.736 C411.636,192.612 410.736,191.568 408.936,191.568 C407.46,191.568 406.164,192.396 405.444,193.026 L405.426,193.026 L405.624,191.748 L404.076,191.748 L402.78,201 L404.418,201 L405.354,194.322 Z M418.314,199.488 C417.9,199.722 417.252,199.956 416.658,199.956 C415.56,199.956 415.452,199.344 415.596,198.372 L416.37,192.954 L418.908,192.954 L419.07,191.748 L416.532,191.748 L416.928,188.85 L415.272,189.084 L414.894,191.748 L413.454,191.748 L413.292,192.954 L414.732,192.954 L413.94,198.552 C413.67,200.388 414.516,201.216 416.28,201.216 C417.108,201.216 418.026,200.946 418.53,200.64 L418.314,199.488 Z M423.768,201.216 C421.068,201.216 420.15,199.38 420.15,197.184 C420.15,194.16 421.95,191.568 425.1,191.568 C427.116,191.568 428.07,192.648 428.07,193.962 C428.07,195.51 427.044,196.392 425.658,196.824 C424.29,197.256 422.67,197.346 421.788,197.382 C421.806,198.642 422.112,199.92 424.02,199.92 C425.334,199.92 426.09,199.146 426.378,198.192 L427.728,198.498 C427.188,200.334 425.604,201.216 423.768,201.216 Z M424.992,192.81 C423.102,192.81 422.094,194.358 421.86,196.14 C422.292,196.122 423.804,196.05 425.028,195.672 C425.928,195.384 426.504,194.898 426.504,194.034 C426.504,193.224 425.928,192.81 424.992,192.81 Z M431.994,194.322 C432.66,193.782 433.902,192.936 435.09,192.936 C436.098,192.936 436.53,193.548 436.332,194.916 L435.486,201 L437.124,201 L437.988,194.736 C438.276,192.612 437.376,191.568 435.576,191.568 C434.1,191.568 432.804,192.396 432.084,193.026 L432.066,193.026 L432.264,191.748 L430.716,191.748 L429.42,201 L431.058,201 L431.994,194.322 Z M443.64,201.216 C445.53,201.216 447.186,200.316 447.708,198.228 L446.286,197.958 C445.89,199.272 445.008,199.92 443.766,199.92 C442.596,199.92 441.624,199.218 441.624,197.238 C441.624,193.89 443.316,192.882 444.774,192.882 C446.304,192.882 446.682,193.836 446.61,195.294 L448.104,195.186 C448.32,193.098 447.15,191.568 444.954,191.568 C442.02,191.568 439.914,193.638 439.914,197.31 C439.914,199.614 441.03,201.216 443.64,201.216 Z M453.18,201.216 C450.48,201.216 449.562,199.38 449.562,197.184 C449.562,194.16 451.362,191.568 454.512,191.568 C456.528,191.568 457.482,192.648 457.482,193.962 C457.482,195.51 456.456,196.392 455.07,196.824 C453.702,197.256 452.082,197.346 451.2,197.382 C451.218,198.642 451.524,199.92 453.432,199.92 C454.746,199.92 455.502,199.146 455.79,198.192 L457.14,198.498 C456.6,200.334 455.016,201.216 453.18,201.216 Z M454.404,192.81 C452.514,192.81 451.506,194.358 451.272,196.14 C451.704,196.122 453.216,196.05 454.44,195.672 C455.34,195.384 455.916,194.898 455.916,194.034 C455.916,193.224 455.34,192.81 454.404,192.81 Z M462.954,191.568 C461.172,191.568 459.444,192.414 459.444,194.376 C459.444,196.266 460.956,196.608 462.252,196.968 C463.242,197.238 464.106,197.544 464.106,198.516 C464.106,199.668 463.026,199.992 462.054,199.992 C460.452,199.992 460.002,199.146 459.876,198.102 L458.526,198.408 C458.688,200.244 459.786,201.216 461.964,201.216 C464.196,201.216 465.708,200.154 465.708,198.282 C465.708,196.356 464.034,196.032 462.684,195.636 C461.766,195.366 460.992,195.042 460.992,194.16 C460.992,193.44 461.46,192.756 462.918,192.756 C464.268,192.756 464.736,193.584 464.79,194.61 L466.176,194.412 C466.086,192.792 465.15,191.568 462.954,191.568 Z M469.578,199.83 C469.578,199.2 469.218,198.858 468.516,198.858 C467.598,198.858 467.094,199.344 467.094,200.244 C467.094,200.892 467.472,201.216 468.174,201.216 C469.092,201.216 469.578,200.73 469.578,199.83 Z" id="Margaret-and-Enid-ha" fill="#EA9A1A"></path>
                <g id="Group-10" transform="translate(168.341852, 73.070295) rotate(-5.000000) translate(-168.341852, -73.070295) translate(4.841852, 14.570295)" stroke="#F5BA5B" stroke-width="2">
                    <g id="Group-3" transform="translate(163.437794, 58.375124) rotate(2.000000) translate(-163.437794, -58.375124) translate(2.437794, 5.875124)">
                        <path d="M6.15386379,74.9631193 C6.15386379,74.9631193 64.9017819,38.6606584 162.94837,31.3495583 C260.994958,24.0384582 320.160014,50.8154676 320.160014,50.8154676" id="Line" stroke-linecap="square" transform="translate(163.156939, 52.524056) rotate(11.000000) translate(-163.156939, -52.524056) "></path>
                        <polyline id="Path-9" stroke-linecap="round" stroke-linejoin="round" transform="translate(7.987100, 43.891214) rotate(-123.000000) translate(-7.987100, -43.891214) " points="1.26763794 45.9311954 9.00938509 39.8392187 14.7065623 47.9432085"></polyline>
                    </g>
                </g>
            </g>
        </g>
    </g>
</svg>