<?xml version="1.0" encoding="UTF-8"?>
<svg width="560px" height="148px" viewBox="0 0 560 148" version="1.1" xmlns="http://www.w3.org/2000/svg" xmlns:xlink="http://www.w3.org/1999/xlink">
    <!-- Generator: Sketch 43.2 (39069) - http://www.bohemiancoding.com/sketch -->
    <title>Group 7</title>
    <desc>Created with Sketch.</desc>
    <defs>
        <path d="M395,59.5057624 C395,58.3973339 395.900271,57.4987751 397.000657,57.4987751 L506.842648,57.4987751 L512.566322,53 L518.052419,57.4987751 L523.169465,57.4987751 C524.275136,57.4987751 525.17146,58.3912675 525.17146,59.5057624 L525.17146,140.057347 C525.17146,141.165775 524.270709,142.064334 523.178867,142.064334 L396.992593,142.064334 C395.892114,142.064334 395,141.171842 395,140.057347 L395,59.5057624 Z" id="path-1"></path>
        <filter x="-4.2%" y="-3.9%" width="108.5%" height="112.4%" filterUnits="objectBoundingBox" id="filter-2">
            <feOffset dx="0" dy="2" in="SourceAlpha" result="shadowOffsetOuter1"></feOffset>
            <feGaussianBlur stdDeviation="1.5" in="shadowOffsetOuter1" result="shadowBlurOuter1"></feGaussianBlur>
            <feColorMatrix values="0 0 0 0 0.91372549   0 0 0 0 0.91372549   0 0 0 0 0.91372549  0 0 0 1 0" type="matrix" in="shadowBlurOuter1"></feColorMatrix>
        </filter>
    </defs>
    <g id="V1" stroke="none" stroke-width="1" fill="none" fill-rule="evenodd">
        <g id="12_00-Guide-6" transform="translate(-409.000000, -216.000000)">
            <g id="Group-7" transform="translate(409.000000, 216.000000)">
                <g id="Group-5">
                    <rect id="Rectangle-14-Copy-2" fill="#00C2A2" x="0" y="0" width="560" height="60"></rect>
                    <g id="Group-4" transform="translate(270.000000, 15.000000)" stroke="#FFFFFF">
                        <ellipse id="Oval-3-Copy-8" stroke-width="2" cx="9.94138756" cy="7.19230769" rx="4.94138756" ry="5.19230769"></ellipse>
                        <path d="M19.7655502,25.3846154 C19.7655502,19.6493507 15.3408811,15 9.88277512,15 C4.42466914,15 0,19.6493507 0,25.3846154 C0,31.1198801 19.7655502,31.1198801 19.7655502,25.3846154 Z" id="Oval-3-Copy-9" stroke-width="2"></path>
                        <path d="M20,3 C20,3 21.9037948,5.0397311 21.9037948,7.0794622 C21.9037948,9.1191933 20,11.1589244 20,11.1589244" id="Line-Copy-31" stroke-width="1.5" stroke-linecap="round"></path>
                        <path d="M23,0 C23,0 25.9616097,3.17307692 25.9616097,6.34615385 C25.9616097,9.51923077 23,12.6923077 23,12.6923077" id="Line-Copy-32" stroke-width="1.5" stroke-linecap="round"></path>
                    </g>
                    <g id="Group-3" transform="translate(152.000000, 16.000000)" stroke="#FFFFFF">
                        <polyline id="Path-10-Copy-4" stroke-width="1.5" stroke-linecap="round" points="22 11 28.8612828 11 28.8612828 16.5244392 28.8612828 17.8835165"></polyline>
                        <path d="M27.7177356,12.1472527 L22,17.8835165" id="Line-Copy-30" stroke-width="1.5" stroke-linecap="round"></path>
                        <rect id="Rectangle-28-Copy-4" stroke-width="2" x="1" y="1" width="32.3064138" height="26.512605" rx="1"></rect>
                        <path d="M1.32162263,5 L31.5541498,5" id="Line-Copy-29" stroke-width="2" stroke-linecap="square"></path>
                    </g>
                    <g id="Group-6" transform="translate(381.000000, 15.000000)">
                        <path d="M31.3270392,0 L33.9748677,2.93436293 L31.3270392,2.93436293 L31.3270392,0 Z M33.9748677,26.4092664 L31.3270392,29.3436293 L31.3270392,26.4092664 L33.9748677,26.4092664 Z M5.29005888,2.93436293 L5.29005888,0 L33.9748677,0 L33.9748677,29.3436293 L5.29005888,29.3436293 L5.29005888,26.4092664 L31.3270392,26.4092664 L31.3270392,2.93436293 L5.29005888,2.93436293 Z M33.9748677,26.4092664 L31.3270392,29.3436293 L31.3270392,26.4092664 L33.9748677,26.4092664 Z M31.3270392,0 L33.9748677,2.93436293 L31.3270392,2.93436293 L31.3270392,0 Z M31.3270392,2.93436293 L5.29005888,2.93436293 C5.29005888,2.93436293 4,3.00671782 4,1.50335891 C4,0 5.29005888,0 5.29005888,0 L33.9748677,0 L33.9748677,29.3436293 L5.29005888,29.3436293 C5.29005888,29.3436293 4,29.4793686 4,27.8634063 C4,26.2474439 5.29005888,26.4092664 5.29005888,26.4092664 L31.3270392,26.4092664 L31.3270392,2.93436293 Z" id="Rectangle-11-Copy-4" fill="#FFFFFF" fill-rule="nonzero"></path>
                        <path d="M19.4047619,14.5 L2.64471039,14.5" id="Path-11-Copy-4" stroke="#FFFFFF" stroke-width="3" stroke-linecap="round"></path>
                        <path d="M9.11385478,9.55851397 C9.70967876,9.01692472 9.7586674,8.08927951 9.22327396,7.48656039 C8.68788053,6.88384126 7.77084763,6.83428571 7.17502365,7.37587495 L0,13.8977938 L6.63081565,21.6031669 C7.15675839,22.2143413 8.07290597,22.2785012 8.67708853,21.746472 C9.2812711,21.2144429 9.34469701,20.2876932 8.81875427,19.6765188 L4.06278059,14.1498154 L9.11385478,9.55851397 Z" id="Path-12-Copy-4" fill="#FFFFFF" fill-rule="nonzero"></path>
                    </g>
                    <path d="M68.4341747,16 L62.2120443,21.7186409 L61.4109525,22.454909 L62.2120443,23.1911771 L68.4341747,28.9098181 L52.5989669,28.9098181 L51.5989669,28.9098181 L51.5989669,29.9098181 L51.5989669,44.1669551 L47,44.1669551 L47,16 L51.7138618,16 L68.4341747,16 Z" id="Combined-Shape-Copy-21" stroke="#FFFFFF" stroke-width="2"></path>
                    <rect id="Rectangle-21-Copy-10" fill="#027360" x="492" y="11" width="40" height="40"></rect>
                    <path d="M511.638774,38.1907984 L511.638774,33.5994587 C516.400028,32.6184032 520,30.1069012 520,24.691475 C520,18.8443843 516.167772,17 511.832321,17 C506.064624,17 503.625933,20.2571042 503.006583,23.9458728 C503.006583,23.9458728 502.822092,24.9960668 504.406472,25.4365848 C505.990852,25.8771028 506.29688,24.5345061 506.29688,24.5345061 C507.032358,21.0419486 508.967827,20.0608931 511.600065,20.0608931 C514.271012,20.0608931 516.361318,21.0419486 516.361318,24.8092016 C516.361318,29.5182679 509.19677,30.9508262 509.19677,30.9508262 C508.664135,31.0865897 508.232349,31.644803 508.232349,32.198739 L508.232349,38.1907984 C508.232349,38.1907984 508.239496,39.5521746 510.035909,39.5521746 C511.832321,39.5521746 511.638774,38.1907984 511.638774,38.1907984 Z M512.451671,43.488498 C512.451671,41.8010825 511.522646,40.9377537 509.858143,40.9377537 C508.19364,40.9377537 507.264615,41.8010825 507.264615,43.488498 C507.264615,45.1759134 508.19364,46 509.858143,46 C511.561356,46 512.451671,45.1366712 512.451671,43.488498 Z" id="?-copy-4" fill="#FFFFFF"></path>
                </g>
                <g id="Rectangle-30">
                    <use fill="black" fill-opacity="1" filter="url(#filter-2)" xlink:href="#path-1"></use>
                    <use fill="#FFFFFF" fill-rule="evenodd" xlink:href="#path-1"></use>
                </g>
                <text id="Teacher-FAQ" font-family="AdelleSans-SemiBold, Adelle Sans" font-size="13" font-weight="500" fill="#00C2A2">
                    <tspan x="408" y="124">Teacher FAQ</tspan>
                </text>
                <rect id="Rectangle-22" fill="#FAFAFA" x="400" y="64" width="120" height="28"></rect>
                <text id="How-It-Works" font-family="AdelleSans-SemiBold, Adelle Sans" font-size="13" font-weight="500" fill="#00C2A2">
                    <tspan x="408" y="83">How It Works</tspan>
                </text>
            </g>
        </g>
    </g>
</svg>