<?xml version="1.0" encoding="UTF-8"?>
<svg width="560px" height="148px" viewBox="0 0 560 148" version="1.1" xmlns="http://www.w3.org/2000/svg" xmlns:xlink="http://www.w3.org/1999/xlink">
    <!-- Generator: Sketch 46.2 (44496) - http://www.bohemiancoding.com/sketch -->
    <title>Group 7</title>
    <desc>Created with Sketch.</desc>
    <defs>
        <path d="M395,59.5057624 C395,58.3973339 395.900271,57.4987751 397.000657,57.4987751 L506.842648,57.4987751 L512.566322,53 L518.052419,57.4987751 L529.17896,57.4987751 C530.279387,57.4987751 531.17146,58.3912675 531.17146,59.5057624 L531.17146,140.057347 C531.17146,141.165775 530.283984,142.064334 529.16751,142.064334 L397.003949,142.064334 C395.897199,142.064334 395,141.171842 395,140.057347 L395,59.5057624 Z" id="path-1"></path>
        <filter x="-4.0%" y="-3.9%" width="108.1%" height="112.4%" filterUnits="objectBoundingBox" id="filter-2">
            <feOffset dx="0" dy="2" in="SourceAlpha" result="shadowOffsetOuter1"></feOffset>
            <feGaussianBlur stdDeviation="1.5" in="shadowOffsetOuter1" result="shadowBlurOuter1"></feGaussianBlur>
            <feColorMatrix values="0 0 0 0 0.91372549   0 0 0 0 0.91372549   0 0 0 0 0.91372549  0 0 0 1 0" type="matrix" in="shadowBlurOuter1"></feColorMatrix>
        </filter>
    </defs>
    <g id="V1" stroke="none" stroke-width="1" fill="none" fill-rule="evenodd">
        <g id="12_00-Guide-6-Copy" transform="translate(-409.000000, -169.000000)">
            <g id="Group-7" transform="translate(409.000000, 169.000000)">
                <g id="Group-5">
                    <rect id="Rectangle-14-Copy-2" fill="#00C2A2" x="0" y="0" width="560" height="60"></rect>
                    <g id="Group-4" transform="translate(263.000000, 15.000000)" stroke="#FFFFFF">
                        <ellipse id="Oval-3-Copy-8" stroke-width="2" cx="9.94138756" cy="7.19230769" rx="4.94138756" ry="5.19230769"></ellipse>
                        <path d="M19.7655502,25.3846154 C19.7655502,19.6493507 15.3408811,15 9.88277512,15 C4.42466914,15 0,19.6493507 0,25.3846154 C0,31.1198801 19.7655502,31.1198801 19.7655502,25.3846154 Z" id="Oval-3-Copy-9" stroke-width="2"></path>
                        <path d="M20,3 C20,3 21.9037948,5.0397311 21.9037948,7.0794622 C21.9037948,9.1191933 20,11.1589244 20,11.1589244" id="Line-Copy-31" stroke-width="1.5" stroke-linecap="round"></path>
                        <path d="M23,0 C23,0 25.9616097,3.17307692 25.9616097,6.34615385 C25.9616097,9.51923077 23,12.6923077 23,12.6923077" id="Line-Copy-32" stroke-width="1.5" stroke-linecap="round"></path>
                    </g>
                    <g id="Group-3" transform="translate(152.000000, 16.000000)" stroke="#FFFFFF">
                        <polyline id="Path-10-Copy-4" stroke-width="1.5" stroke-linecap="round" points="22 11 28.8612828 11 28.8612828 16.5244392 28.8612828 17.8835165"></polyline>
                        <path d="M27.7177356,12.1472527 L22,17.8835165" id="Line-Copy-30" stroke-width="1.5" stroke-linecap="round"></path>
                        <rect id="Rectangle-28-Copy-4" stroke-width="2" x="1" y="1" width="32.3064138" height="26.512605" rx="1"></rect>
                        <path d="M1.32162263,5 L31.5541498,5" id="Line-Copy-29" stroke-width="2" stroke-linecap="square"></path>
                    </g>
                    <g id="Group-6" transform="translate(381.000000, 15.000000)">
                        <path d="M31.3270392,0 L33.9748677,2.93436293 L31.3270392,2.93436293 L31.3270392,0 Z M33.9748677,26.4092664 L31.3270392,29.3436293 L31.3270392,26.4092664 L33.9748677,26.4092664 Z M5.29005888,2.93436293 L5.29005888,0 L33.9748677,0 L33.9748677,29.3436293 L5.29005888,29.3436293 L5.29005888,26.4092664 L31.3270392,26.4092664 L31.3270392,2.93436293 L5.29005888,2.93436293 Z M33.9748677,26.4092664 L31.3270392,29.3436293 L31.3270392,26.4092664 L33.9748677,26.4092664 Z M31.3270392,0 L33.9748677,2.93436293 L31.3270392,2.93436293 L31.3270392,0 Z M31.3270392,2.93436293 L5.29005888,2.93436293 C5.29005888,2.93436293 4,3.00671782 4,1.50335891 C4,0 5.29005888,0 5.29005888,0 L33.9748677,0 L33.9748677,29.3436293 L5.29005888,29.3436293 C5.29005888,29.3436293 4,29.4793686 4,27.8634063 C4,26.2474439 5.29005888,26.4092664 5.29005888,26.4092664 L31.3270392,26.4092664 L31.3270392,2.93436293 Z" id="Rectangle-11-Copy-4" fill="#FFFFFF" fill-rule="nonzero"></path>
                        <path d="M19.4047619,14.5 L2.64471039,14.5" id="Path-11-Copy-4" stroke="#FFFFFF" stroke-width="3" stroke-linecap="round"></path>
                        <path d="M9.11385478,9.55851397 C9.70967876,9.01692472 9.7586674,8.08927951 9.22327396,7.48656039 C8.68788053,6.88384126 7.77084763,6.83428571 7.17502365,7.37587495 L0,13.8977938 L6.63081565,21.6031669 C7.15675839,22.2143413 8.07290597,22.2785012 8.67708853,21.746472 C9.2812711,21.2144429 9.34469701,20.2876932 8.81875427,19.6765188 L4.06278059,14.1498154 L9.11385478,9.55851397 Z" id="Path-12-Copy-4" fill="#FFFFFF" fill-rule="nonzero"></path>
                    </g>
                    <path d="M47,16 L47,44.1669551 L51.5989669,44.1669551 L51.5989669,28.9098181 L68.4341747,28.9098181 L61.4109525,22.454909 L68.4341747,16 L47,16 Z" id="Combined-Shape-Copy-21" stroke="#FFFFFF" stroke-width="2"></path>
                    <rect id="Rectangle-21-Copy-10" fill="#027360" x="492" y="11" width="40" height="40"></rect>
                    <path d="M511.638774,38.1907984 L511.638774,33.5994587 C516.400028,32.6184032 520,30.1069012 520,24.691475 C520,18.8443843 516.167772,17 511.832321,17 C506.064624,17 503.625933,20.2571042 503.006583,23.9458728 C503.006583,23.9458728 502.822092,24.9960668 504.406472,25.4365848 C505.990852,25.8771028 506.29688,24.5345061 506.29688,24.5345061 C507.032358,21.0419486 508.967827,20.0608931 511.600065,20.0608931 C514.271012,20.0608931 516.361318,21.0419486 516.361318,24.8092016 C516.361318,29.5182679 509.19677,30.9508262 509.19677,30.9508262 C508.664135,31.0865897 508.232349,31.644803 508.232349,32.198739 L508.232349,38.1907984 C508.232349,38.1907984 508.239496,39.5521746 510.035909,39.5521746 C511.832321,39.5521746 511.638774,38.1907984 511.638774,38.1907984 Z M512.451671,43.488498 C512.451671,41.8010825 511.522646,40.9377537 509.858143,40.9377537 C508.19364,40.9377537 507.264615,41.8010825 507.264615,43.488498 C507.264615,45.1759134 508.19364,46 509.858143,46 C511.561356,46 512.451671,45.1366712 512.451671,43.488498 Z" id="?-copy-4" fill="#FFFFFF"></path>
                </g>
                <g id="Rectangle-30">
                    <use fill="black" fill-opacity="1" filter="url(#filter-2)" xlink:href="#path-1"></use>
                    <use fill="#FFFFFF" fill-rule="evenodd" xlink:href="#path-1"></use>
                </g>
                <path d="M412.875,124.156 C409.924,124.156 408.585,122.128 408.585,119.32 C408.585,116.512 410.132,114.419 413.07,114.419 C416.008,114.419 417.295,116.512 417.295,119.125 C417.295,120.685 416.918,121.907 416.112,122.804 L417.243,124 L416.372,124.806 L415.189,123.558 C414.604,123.948 413.798,124.156 412.875,124.156 Z M412.94,122.921 C413.434,122.921 413.928,122.83 414.331,122.596 L412.719,120.841 L413.59,120.022 L415.15,121.738 C415.553,121.101 415.761,120.295 415.761,119.255 C415.761,116.863 414.682,115.745 413.031,115.745 C411.341,115.745 410.158,116.889 410.158,119.294 C410.158,121.738 411.276,122.921 412.94,122.921 Z M418.79,121.868 C418.79,123.376 419.414,124.143 420.818,124.143 C421.741,124.143 422.534,123.792 423.119,123.259 L423.223,124 L424.523,124 L424.523,117.279 L423.028,117.279 L423.028,122.18 C422.703,122.479 422.001,122.882 421.338,122.882 C420.545,122.882 420.285,122.453 420.285,121.608 L420.285,117.279 L418.79,117.279 L418.79,121.868 Z M427.864,117.279 L426.369,117.279 L426.369,124 L427.864,124 L427.864,117.279 Z M428.098,115.16 C428.098,114.536 427.747,114.185 427.123,114.185 C426.512,114.185 426.148,114.536 426.148,115.16 C426.148,115.797 426.512,116.148 427.123,116.148 C427.747,116.148 428.098,115.797 428.098,115.16 Z M431.205,114.185 L429.71,114.185 L429.71,124 L431.205,124 L431.205,114.185 Z M434.546,114.185 L433.051,114.185 L433.051,124 L434.546,124 L434.546,114.185 Z M440.669,114.588 L439.148,114.588 L439.148,124 L444.829,124 L444.829,122.713 L440.669,122.713 L440.669,114.588 Z M449.002,124.156 C446.584,124.156 445.83,122.492 445.83,120.646 C445.83,118.215 447.286,117.136 449.041,117.136 C450.991,117.136 451.797,118.371 451.797,120.113 C451.797,120.386 451.784,120.698 451.758,121.01 L447.403,121.01 C447.442,122.427 448.118,122.934 449.093,122.934 C449.951,122.934 450.315,122.531 450.471,121.842 L451.745,122.154 C451.485,123.428 450.458,124.156 449.002,124.156 Z M447.429,119.97 L450.25,119.97 C450.25,118.826 449.847,118.319 448.95,118.319 C448.196,118.319 447.494,118.774 447.429,119.97 Z M455.658,117.136 C454.254,117.136 453.071,117.812 453.071,119.216 C453.071,120.815 454.371,121.049 455.463,121.27 C456.321,121.439 456.867,121.556 456.867,122.232 C456.867,122.804 456.347,123.038 455.606,123.038 C454.527,123.038 454.254,122.479 454.085,121.842 L452.811,122.258 C453.019,123.506 453.942,124.156 455.554,124.156 C457.205,124.156 458.323,123.415 458.323,122.024 C458.323,120.49 457.088,120.217 455.931,120.009 C455.047,119.853 454.475,119.671 454.475,119.047 C454.475,118.605 454.813,118.254 455.632,118.254 C456.503,118.254 456.75,118.722 456.906,119.385 L458.206,119.047 C457.946,117.877 457.218,117.136 455.658,117.136 Z M462.067,117.136 C460.663,117.136 459.48,117.812 459.48,119.216 C459.48,120.815 460.78,121.049 461.872,121.27 C462.73,121.439 463.276,121.556 463.276,122.232 C463.276,122.804 462.756,123.038 462.015,123.038 C460.936,123.038 460.663,122.479 460.494,121.842 L459.22,122.258 C459.428,123.506 460.351,124.156 461.963,124.156 C463.614,124.156 464.732,123.415 464.732,122.024 C464.732,120.49 463.497,120.217 462.34,120.009 C461.456,119.853 460.884,119.671 460.884,119.047 C460.884,118.605 461.222,118.254 462.041,118.254 C462.912,118.254 463.159,118.722 463.315,119.385 L464.615,119.047 C464.355,117.877 463.627,117.136 462.067,117.136 Z M468.931,124.156 C466.565,124.156 465.759,122.674 465.759,120.672 C465.759,118.514 466.877,117.136 469.1,117.136 C471.323,117.136 472.207,118.527 472.207,120.516 C472.207,122.726 471.245,124.156 468.931,124.156 Z M469.009,122.999 C470.036,122.999 470.647,122.323 470.647,120.594 C470.647,118.917 470.101,118.345 469.048,118.345 C467.982,118.345 467.319,118.982 467.319,120.62 C467.319,122.258 467.839,122.999 469.009,122.999 Z M479.487,119.424 C479.487,117.903 478.863,117.136 477.407,117.136 C476.484,117.136 475.678,117.5 475.08,117.981 L475.015,117.279 L473.689,117.279 L473.689,124 L475.184,124 L475.184,119.099 C475.509,118.8 476.211,118.384 476.887,118.384 C477.68,118.384 477.992,118.826 477.992,119.671 L477.992,124 L479.487,124 L479.487,119.424 Z M486.702,120.854 L486.702,119.515 L483.179,119.515 L483.179,120.854 L486.702,120.854 Z M494.463,124.156 C491.512,124.156 490.173,122.128 490.173,119.32 C490.173,116.512 491.72,114.419 494.658,114.419 C497.596,114.419 498.883,116.512 498.883,119.125 C498.883,120.685 498.506,121.907 497.7,122.804 L498.831,124 L497.96,124.806 L496.777,123.558 C496.192,123.948 495.386,124.156 494.463,124.156 Z M494.528,122.921 C495.022,122.921 495.516,122.83 495.919,122.596 L494.307,120.841 L495.178,120.022 L496.738,121.738 C497.141,121.101 497.349,120.295 497.349,119.255 C497.349,116.863 496.27,115.745 494.619,115.745 C492.929,115.745 491.746,116.889 491.746,119.294 C491.746,121.738 492.864,122.921 494.528,122.921 Z M506.072,116.72 C506.072,117.5 505.695,118.371 504.07,119.073 L503.706,119.216 C504.265,120.074 504.928,120.893 505.721,121.751 C506.111,121.153 506.241,120.347 506.267,119.463 L507.593,119.463 C507.593,120.516 507.346,121.634 506.67,122.518 C507.008,122.765 507.359,122.921 507.749,122.921 C507.918,122.921 508.1,122.882 508.295,122.804 L508.503,123.922 C508.204,124.065 507.827,124.13 507.515,124.13 C506.787,124.13 506.215,123.883 505.643,123.467 C505.097,123.883 504.265,124.156 503.173,124.156 C501.249,124.156 500.092,123.038 500.092,121.543 C500.092,120.282 500.716,119.502 501.912,118.943 C501.574,118.345 501.431,117.799 501.431,117.188 C501.431,115.836 502.497,114.9 503.979,114.9 C504.967,114.9 506.072,115.303 506.072,116.72 Z M503.433,123.025 C503.94,123.025 504.369,122.921 504.72,122.713 C503.849,121.907 503.095,120.932 502.419,119.866 C501.951,120.165 501.613,120.594 501.613,121.387 C501.613,122.245 502.185,123.025 503.433,123.025 Z M502.887,116.98 C502.887,117.435 503.017,117.864 503.251,118.358 C503.264,118.345 503.602,118.202 503.615,118.202 C504.434,117.838 504.785,117.396 504.785,116.798 C504.785,116.33 504.499,115.966 503.901,115.966 C503.316,115.966 502.887,116.317 502.887,116.98 Z M512.273,114.588 L514.21,114.588 L517.512,124 L515.848,124 L514.964,121.426 L511.545,121.426 L510.687,124 L509.14,124 L512.273,114.588 Z M514.613,120.152 L513.248,115.992 L513.222,115.992 L511.844,120.152 L514.613,120.152 Z" id="Quill-Lesson---Q&amp;A" fill="#00C2A2"></path>
                <rect id="Rectangle-22" fill="#FAFAFA" x="400" y="64" width="126" height="28"></rect>
                <path d="M412.485,83 L412.485,74.862 L415.28,74.862 L415.28,73.588 L408.143,73.588 L408.143,74.862 L410.964,74.862 L410.964,83 L412.485,83 Z M416.333,80.868 C416.333,82.376 416.957,83.143 418.361,83.143 C419.284,83.143 420.077,82.792 420.662,82.259 L420.766,83 L422.066,83 L422.066,76.279 L420.571,76.279 L420.571,81.18 C420.246,81.479 419.544,81.882 418.881,81.882 C418.088,81.882 417.828,81.453 417.828,80.608 L417.828,76.279 L416.333,76.279 L416.333,80.868 Z M427.695,81.622 C427.422,81.778 426.954,81.934 426.551,81.934 C425.823,81.934 425.654,81.583 425.654,80.92 L425.654,77.384 L427.474,77.384 L427.474,76.279 L425.654,76.279 L425.654,74.108 L424.159,74.316 L424.159,76.279 L423.132,76.279 L423.132,77.384 L424.159,77.384 L424.159,81.128 C424.159,82.558 424.835,83.156 426.161,83.156 C426.876,83.156 427.604,82.909 427.942,82.688 L427.695,81.622 Z M431.79,83.156 C429.424,83.156 428.618,81.674 428.618,79.672 C428.618,77.514 429.736,76.136 431.959,76.136 C434.182,76.136 435.066,77.527 435.066,79.516 C435.066,81.726 434.104,83.156 431.79,83.156 Z M431.868,81.999 C432.895,81.999 433.506,81.323 433.506,79.594 C433.506,77.917 432.96,77.345 431.907,77.345 C430.841,77.345 430.178,77.982 430.178,79.62 C430.178,81.258 430.698,81.999 431.868,81.999 Z M440.396,76.149 C440.305,76.149 440.201,76.136 440.123,76.136 C439.135,76.136 438.459,76.526 437.926,77.28 L437.809,76.279 L436.548,76.279 L436.548,83 L438.043,83 L438.043,78.333 C438.602,77.839 439.551,77.54 440.396,77.644 L440.396,76.149 Z M442.957,76.279 L441.462,76.279 L441.462,83 L442.957,83 L442.957,76.279 Z M443.191,74.16 C443.191,73.536 442.84,73.185 442.216,73.185 C441.605,73.185 441.241,73.536 441.241,74.16 C441.241,74.797 441.605,75.148 442.216,75.148 C442.84,75.148 443.191,74.797 443.191,74.16 Z M449.912,78.476 L449.912,81.583 C449.912,81.947 449.977,82.103 450.315,82.103 C450.432,82.103 450.549,82.077 450.718,82.025 L450.77,82.909 C450.51,83.039 450.081,83.13 449.717,83.13 C449.015,83.13 448.703,82.857 448.586,82.337 C448.131,82.831 447.39,83.156 446.454,83.156 C444.764,83.156 444.465,82.012 444.465,81.349 C444.465,79.607 445.947,79.035 447.754,79.035 C448.066,79.035 448.261,79.048 448.443,79.061 L448.443,78.554 C448.443,77.735 448.261,77.267 447.273,77.267 C446.454,77.267 446.181,77.605 446.038,78.307 L444.725,78.073 C444.933,76.812 445.739,76.136 447.39,76.136 C449.106,76.136 449.912,76.799 449.912,78.476 Z M448.456,81.414 L448.456,80.088 C448.326,80.075 448.17,80.062 447.832,80.062 C447.078,80.062 445.986,80.153 445.986,81.141 C445.986,81.609 446.194,82.038 446.987,82.038 C447.598,82.038 448.157,81.726 448.456,81.414 Z M453.448,73.185 L451.953,73.185 L451.953,83 L453.448,83 L453.448,73.185 Z" id="Tutorial" fill="#00C2A2"></path>
            </g>
        </g>
    </g>
</svg>