<svg width="64" height="64" viewBox="0 0 64 64" fill="none" xmlns="http://www.w3.org/2000/svg">
<path fill-rule="evenodd" clip-rule="evenodd" d="M18 3C18 2.44772 18.4477 2 19 2H61C61.5523 2 62 2.44772 62 3V45C62 45.5523 61.5523 46 61 46H58C57.4477 46 57 45.5523 57 45C57 44.4477 57.4477 44 58 44H60V4H20V6C20 6.55228 19.5523 7 19 7C18.4477 7 18 6.55228 18 6V3ZM11 10C10.4477 10 10 10.4477 10 11V14C10 14.5523 10.4477 15 11 15C11.5523 15 12 14.5523 12 14V12H52V52H50C49.4477 52 49 52.4477 49 53C49 53.5523 49.4477 54 50 54H53C53.5523 54 54 53.5523 54 53V11C54 10.4477 53.5523 10 53 10H11ZM3 18C2.44772 18 2 18.4477 2 19V61C2 61.5523 2.44772 62 3 62H45C45.5523 62 46 61.5523 46 61V19C46 18.4477 45.5523 18 45 18H3ZM4 60V20H44V60H4ZM11 28C10.4477 28 10 28.4477 10 29C10 29.5523 10.4477 30 11 30H37C37.5523 30 38 29.5523 38 29C38 28.4477 37.5523 28 37 28H11ZM10 39C10 38.4477 10.4477 38 11 38H37C37.5523 38 38 38.4477 38 39C38 39.5523 37.5523 40 37 40H11C10.4477 40 10 39.5523 10 39ZM11 48C10.4477 48 10 48.4477 10 49C10 49.5523 10.4477 50 11 50H27C27.5523 50 28 49.5523 28 49C28 48.4477 27.5523 48 27 48H11Z" fill="black"/>
</svg>
