<svg width="64" height="64" viewBox="0 0 64 64" fill="none" xmlns="http://www.w3.org/2000/svg">
<path fill-rule="evenodd" clip-rule="evenodd" d="M1 6C1 5.44772 1.44772 5 2 5H62C62.5523 5 63 5.44772 63 6V20V58C63 58.5523 62.5523 59 62 59H24H2C1.44772 59 1 58.5523 1 58V20V6ZM3 7H61V19H24H3V7ZM3 57V21H23V57H3ZM61 21H25V57H61V21ZM9 13C9 12.4477 9.44771 12 10 12H16C16.5523 12 17 12.4477 17 13C17 13.5523 16.5523 14 16 14H10C9.44771 14 9 13.5523 9 13ZM10 26C9.44771 26 9 26.4477 9 27C9 27.5523 9.44771 28 10 28H16C16.5523 28 17 27.5523 17 27C17 26.4477 16.5523 26 16 26H10ZM10 38C9.44771 38 9 38.4477 9 39C9 39.5523 9.44771 40 10 40H14C14.5523 40 15 39.5523 15 39C15 38.4477 14.5523 38 14 38H10ZM9 33C9 32.4477 9.44771 32 10 32H12C12.5523 32 13 32.4477 13 33C13 33.5523 12.5523 34 12 34H10C9.44771 34 9 33.5523 9 33ZM10 44C9.44771 44 9 44.4477 9 45C9 45.5523 9.44771 46 10 46H12C12.5523 46 13 45.5523 13 45C13 44.4477 12.5523 44 12 44H10ZM9 51C9 50.4477 9.44771 50 10 50H16C16.5523 50 17 50.4477 17 51C17 51.5523 16.5523 52 16 52H10C9.44771 52 9 51.5523 9 51ZM32 26C31.4477 26 31 26.4477 31 27C31 27.5523 31.4477 28 32 28H54C54.5523 28 55 27.5523 55 27C55 26.4477 54.5523 26 54 26H32ZM31 51C31 50.4477 31.4477 50 32 50H54C54.5523 50 55 50.4477 55 51C55 51.5523 54.5523 52 54 52H32C31.4477 52 31 51.5523 31 51ZM32 32C31.4477 32 31 32.4477 31 33C31 33.5523 31.4477 34 32 34H54C54.5523 34 55 33.5523 55 33C55 32.4477 54.5523 32 54 32H32ZM31 39C31 38.4477 31.4477 38 32 38H54C54.5523 38 55 38.4477 55 39C55 39.5523 54.5523 40 54 40H32C31.4477 40 31 39.5523 31 39ZM32 44C31.4477 44 31 44.4477 31 45C31 45.5523 31.4477 46 32 46H54C54.5523 46 55 45.5523 55 45C55 44.4477 54.5523 44 54 44H32Z" fill="black"/>
</svg>
