<svg width="64" height="64" viewBox="0 0 64 64" fill="none" xmlns="http://www.w3.org/2000/svg">
<path fill-rule="evenodd" clip-rule="evenodd" d="M28.5 6.5C28.5 4.84315 29.8431 3.5 31.5 3.5C33.1569 3.5 34.5 4.84315 34.5 6.5C34.5 8.15685 33.1569 9.5 31.5 9.5C29.8431 9.5 28.5 8.15685 28.5 6.5ZM31.5 1.5C28.7386 1.5 26.5 3.73858 26.5 6.5C26.5 9.26142 28.7386 11.5 31.5 11.5C34.2614 11.5 36.5 9.26142 36.5 6.5C36.5 3.73858 34.2614 1.5 31.5 1.5ZM30.5 12.5C26.6337 12.5 23.5 15.6337 23.5 19.5C23.5 20.0523 23.9477 20.5 24.5 20.5H39.5V19.5C39.5 15.6337 36.3663 12.5 32.5 12.5H30.5ZM32.5 14.5C34.9192 14.5 36.9368 16.2176 37.4 18.5H25.6C26.0632 16.2176 28.0808 14.5 30.5 14.5H32.5ZM0.5 28.5C0.5 24.6337 3.63372 21.5 7.5 21.5H9.5C13.3663 21.5 16.5 24.6337 16.5 28.5V29.5H1.5C0.947715 29.5 0.5 29.0523 0.5 28.5ZM14.4 27.5C13.9368 25.2176 11.9192 23.5 9.5 23.5H7.5C5.08076 23.5 3.06318 25.2176 2.59999 27.5H14.4ZM5.5 15.5C5.5 13.8431 6.84315 12.5 8.5 12.5C10.1569 12.5 11.5 13.8431 11.5 15.5C11.5 17.1569 10.1569 18.5 8.5 18.5C6.84315 18.5 5.5 17.1569 5.5 15.5ZM8.5 10.5C5.73858 10.5 3.5 12.7386 3.5 15.5C3.5 18.2614 5.73858 20.5 8.5 20.5C11.2614 20.5 13.5 18.2614 13.5 15.5C13.5 12.7386 11.2614 10.5 8.5 10.5ZM47.5 28.5C47.5 24.6337 50.6337 21.5 54.5 21.5H56.5C60.3663 21.5 63.5 24.6337 63.5 28.5V29.5H48.5C47.9477 29.5 47.5 29.0523 47.5 28.5ZM61.4 27.5C60.9368 25.2176 58.9192 23.5 56.5 23.5H54.5C52.0808 23.5 50.0632 25.2176 49.6 27.5H61.4ZM52.5 15.5C52.5 13.8431 53.8431 12.5 55.5 12.5C57.1569 12.5 58.5 13.8431 58.5 15.5C58.5 17.1569 57.1569 18.5 55.5 18.5C53.8431 18.5 52.5 17.1569 52.5 15.5ZM55.5 10.5C52.7386 10.5 50.5 12.7386 50.5 15.5C50.5 18.2614 52.7386 20.5 55.5 20.5C58.2614 20.5 60.5 18.2614 60.5 15.5C60.5 12.7386 58.2614 10.5 55.5 10.5ZM31.5 28.5C27.0817 28.5 23.5 32.0817 23.5 36.5C23.5 40.9183 27.0817 44.5 31.5 44.5C35.9183 44.5 39.5 40.9183 39.5 36.5C39.5 32.0817 35.9183 28.5 31.5 28.5ZM21.5 36.5C21.5 30.9772 25.9772 26.5 31.5 26.5C37.0228 26.5 41.5 30.9772 41.5 36.5C41.5 42.0228 37.0228 46.5 31.5 46.5C25.9772 46.5 21.5 42.0228 21.5 36.5ZM28.5 49.5C21.3207 49.5 15.5 55.3207 15.5 62.5V63.5H47.5V62.5C47.5 55.3207 41.6793 49.5 34.5 49.5H28.5ZM34.5 51.5C40.2376 51.5 44.9499 55.8938 45.4551 61.5H17.5449C18.0501 55.8938 22.7624 51.5 28.5 51.5H34.5Z" fill="black"/>
</svg>
