<svg width="64" height="64" viewBox="0 0 64 64" fill="none" xmlns="http://www.w3.org/2000/svg">
<path fill-rule="evenodd" clip-rule="evenodd" d="M30.9981 6.85208V16.4996C30.9981 16.8569 31.1887 17.187 31.4981 17.3657C31.8075 17.5442 32.1887 17.5442 32.4981 17.3657C32.8075 17.1869 32.9981 16.8569 32.9981 16.4996V6.85208C34.0814 6.52916 34.942 5.7029 35.3087 4.6335C35.6756 3.56432 35.5033 2.38367 34.8462 1.46387C34.1894 0.543865 33.1285 -0.00195312 31.9981 -0.00195312C30.8677 -0.00195312 29.8068 0.543865 29.15 1.46387C28.4929 2.38367 28.3206 3.56432 28.6875 4.6335C29.0541 5.7029 29.9148 6.52915 30.9981 6.85208ZM31.9981 1.99956C32.396 1.99956 32.7775 2.15768 33.0587 2.43894C33.34 2.72019 33.4981 3.10167 33.4981 3.49959C33.4981 3.89751 33.34 4.27896 33.0587 4.56024C32.7775 4.84149 32.396 4.99962 31.9981 4.99962C31.6002 4.99962 31.2187 4.84149 30.9374 4.56024C30.6562 4.27899 30.4981 3.89751 30.4981 3.49959C30.4985 3.10188 30.6566 2.72065 30.9379 2.43937C31.2191 2.15811 31.6004 1.99997 31.9981 1.99956ZM31.9981 46.5C31.7329 46.5 31.4785 46.6054 31.291 46.7929C31.1035 46.9804 30.9981 47.2348 30.9981 47.5V57.1476C29.9148 57.4705 29.0541 58.2968 28.6875 59.3662C28.3206 60.4354 28.4929 61.616 29.15 62.5358C29.8068 63.4558 30.8677 64.0016 31.9981 64.0016C33.1285 64.0016 34.1893 63.4558 34.8462 62.5358C35.5033 61.616 35.6756 60.4354 35.3087 59.3662C34.942 58.2968 34.0814 57.4705 32.9981 57.1476V47.5C32.9981 47.2348 32.8927 46.9805 32.7052 46.7929C32.5177 46.6054 32.2633 46.5 31.9981 46.5ZM33.4981 60.5002C33.4981 60.8981 33.34 61.2795 33.0587 61.5608C32.7775 61.8421 32.396 62.0002 31.9981 62.0002C31.6002 62.0002 31.2187 61.8421 30.9374 61.5608C30.6562 61.2796 30.4981 60.8981 30.4981 60.5002C30.4981 60.1022 30.6562 59.7208 30.9374 59.4395C31.2187 59.1583 31.6002 59.0001 31.9981 59.0001C32.3958 59.0005 32.777 59.1587 33.0583 59.4399C33.3396 59.7212 33.4977 60.1024 33.4981 60.5002ZM13.5074 13.8164C13.4136 13.8164 13.3194 13.8126 13.2246 13.8051L13.2248 13.805C12.1998 13.7238 11.2625 13.1958 10.6618 12.3613C10.0612 11.5269 9.85832 10.4702 10.1066 9.4725C10.3552 8.475 11.03 7.63708 11.9519 7.18165C12.8737 6.72644 13.9494 6.69957 14.8925 7.10874C15.8359 7.5177 16.5515 8.32107 16.8492 9.30524C17.1469 10.2892 16.9967 11.3546 16.4382 12.218L22.699 19.5578C22.9309 19.8297 23 20.2045 22.8807 20.5411C22.761 20.8778 22.4711 21.1251 22.1198 21.1901C21.7685 21.2549 21.4094 21.1274 21.1775 20.8557L14.9103 13.5084C14.4692 13.708 13.9913 13.813 13.5074 13.8164ZM13.4996 8.81592C13.1434 8.8155 12.7988 8.94279 12.5284 9.17467C12.2257 9.43302 12.0379 9.80098 12.0065 10.1974C11.9748 10.5941 12.1023 10.987 12.3607 11.2897C12.6188 11.5924 12.9867 11.7801 13.3834 11.8116C13.7799 11.8422 14.1721 11.7149 14.4753 11.4574C14.778 11.1993 14.9657 10.8316 14.9974 10.4349C15.0288 10.0382 14.9015 9.64551 14.6434 9.3428C14.3851 9.03988 14.0173 8.85217 13.6207 8.82071C13.5803 8.81759 13.5396 8.81592 13.4996 8.81592ZM52.7663 56.3466C53.6254 55.6124 54.0775 54.5087 53.98 53.3826C53.8827 52.2568 53.2477 51.247 52.2752 50.6714C51.3025 50.0957 50.1119 50.0249 49.0779 50.4813L42.8192 43.1437C42.5874 42.872 42.2282 42.7445 41.877 42.8093C41.5257 42.8743 41.2357 43.1216 41.1161 43.4583C40.9967 43.7949 41.0659 44.1697 41.2978 44.4416L47.5585 51.7813C46.9448 52.7299 46.8269 53.9163 47.2417 54.9671C47.6565 56.0179 48.553 56.8039 49.6492 57.0775C50.7453 57.3512 51.9061 57.0787 52.7661 56.3462L52.7663 56.3466ZM49.3536 54.6572C49.0961 54.3541 48.969 53.9614 49.0004 53.5649C49.0319 53.1685 49.2194 52.8008 49.5215 52.5422C49.8242 52.2841 50.2171 52.1568 50.6136 52.1882C51.0102 52.2199 51.378 52.4076 51.6361 52.7103C51.8942 53.013 52.0215 53.4057 51.99 53.8024C51.9586 54.1989 51.7709 54.5666 51.4682 54.8247C51.1655 55.0831 50.7728 55.2104 50.3761 55.1789C49.9796 55.1475 49.6117 54.9597 49.3536 54.6572ZM3.44462 30.4998C3.24398 30.4996 3.04398 30.4819 2.84648 30.4469L2.84679 30.4469C1.94327 30.2869 1.14241 29.7697 0.624706 29.0119C0.0973981 28.2501 -0.108853 27.3111 0.0507313 26.3984C0.202412 25.4875 0.709719 24.6742 1.46076 24.1371C2.20183 23.6021 3.1285 23.3911 4.02807 23.5525C4.93159 23.7125 5.73244 24.2298 6.24994 24.9875C6.57995 25.4642 6.78682 26.0152 6.85245 26.5913L16.1847 28.2486C16.4435 28.2973 16.6726 28.4461 16.8222 28.6625C16.9718 28.8792 17.0299 29.1461 16.9837 29.4055C16.946 29.6352 16.8283 29.8444 16.6514 29.9959C16.4745 30.1473 16.2498 30.2315 16.0168 30.2336C15.96 30.2336 15.9031 30.2284 15.847 30.2184L6.51422 28.5611C6.26153 29.0796 5.88338 29.5269 5.41379 29.8623C4.84046 30.2763 4.1515 30.4992 3.44462 30.4998ZM2.58979 25.7727C2.26814 26.0029 2.05106 26.3516 1.98605 26.7419L1.986 26.7419C1.91725 27.1331 2.00579 27.5356 2.23204 27.8621C2.45354 28.1869 2.79686 28.4085 3.18415 28.4771C3.56959 28.5467 3.96687 28.4562 4.28437 28.2267C4.60601 27.9963 4.8231 27.6477 4.8881 27.2575C4.95664 26.8662 4.86831 26.4637 4.64206 26.1373C4.36915 25.7385 3.91708 25.4998 3.43395 25.4995C3.13086 25.4998 2.83562 25.5954 2.58979 25.7727ZM57.4817 35.4381L48.1492 33.7802C47.8905 33.7358 47.6247 33.7969 47.4111 33.9498C47.1976 34.1025 47.054 34.3342 47.0126 34.5935C46.9663 34.8527 47.0244 35.1196 47.174 35.3363C47.3236 35.5529 47.5528 35.7019 47.8115 35.7504L57.1438 37.4082C57.2094 37.9844 57.4163 38.5355 57.7463 39.0125C58.3832 39.9434 59.4382 40.5003 60.5663 40.5007C61.2734 40.5002 61.9624 40.2771 62.5355 39.8632C63.2865 39.3257 63.7938 38.5123 63.9455 37.6013C64.1051 36.6884 63.8989 35.7492 63.3715 34.9871C62.854 34.2291 62.053 33.7119 61.1495 33.5516C60.2499 33.39 59.323 33.601 58.5822 34.1364C58.1126 34.4719 57.7343 34.9194 57.4817 35.4381ZM59.1081 36.7419C59.1731 36.3515 59.3902 36.003 59.7118 35.7725C59.9577 35.595 60.2531 35.4996 60.556 35.4992C61.0393 35.4994 61.4914 35.7381 61.7641 36.1371C61.9904 36.4638 62.0789 36.8663 62.0102 37.2575C61.9454 37.6479 61.7281 37.9967 61.4064 38.2271C61.0889 38.4567 60.6916 38.5471 60.3062 38.4776C59.9189 38.409 59.5756 38.1873 59.3541 37.8624C59.1278 37.5359 59.0395 37.1332 59.1081 36.7419ZM6.26599 49.4234C5.36999 49.1783 4.60935 48.5849 4.15372 47.7755L4.15346 47.7756C3.69597 46.9678 3.57784 46.0116 3.82534 45.117C4.07286 44.2224 4.66534 43.4626 5.47287 43.0049H5.47328C6.12934 42.6346 6.88704 42.4853 7.63435 42.5794C8.38161 42.6734 9.07894 43.0057 9.62246 43.527L18.0161 38.7707C18.3269 38.5946 18.7082 38.5975 19.0163 38.7788C19.3242 38.9598 19.5123 39.2915 19.5094 39.6488C19.5065 40.0061 19.3134 40.3348 19.0025 40.5108H19.0023L10.6087 45.2674C10.8469 46.3053 10.6 47.3949 9.93747 48.2286C9.27517 49.0622 8.26936 49.5491 7.20455 49.5516C6.88722 49.5514 6.57162 49.5082 6.26599 49.4234ZM6.63623 44.6597C6.20392 44.8347 5.87767 45.2007 5.7533 45.6501C5.64601 46.0334 5.69662 46.4439 5.89391 46.7897C6.12389 47.1953 6.52933 47.4712 6.99119 47.5357C7.45306 47.6003 7.91869 47.4464 8.25098 47.1193C8.58348 46.7922 8.74473 46.3293 8.68765 45.8664C8.63058 45.4036 8.36141 44.9936 7.95954 44.7572C7.55767 44.5207 7.06854 44.4847 6.63623 44.6597ZM44.9939 23.4868C44.7625 23.6172 44.5927 23.8343 44.5216 24.0903C44.4506 24.3461 44.4841 24.6199 44.6152 24.851C44.7462 25.082 44.9637 25.2514 45.2198 25.322C45.4758 25.3926 45.7493 25.3582 45.9802 25.227L54.3754 20.4697C55.0287 21.0959 55.8985 21.446 56.8035 21.447C57.4064 21.447 57.9987 21.2905 58.5229 20.9928H58.5233C59.2804 20.5642 59.8508 19.8691 60.1233 19.0428C60.3956 18.2168 60.3506 17.3186 59.997 16.5238C59.6433 15.7291 59.0062 15.0942 58.2102 14.7436C57.4141 14.3928 56.5158 14.3511 55.6906 14.6265C54.8654 14.9022 54.1724 15.4751 53.7466 16.2336C53.3208 16.9924 53.1929 17.8824 53.3877 18.7303L44.9939 23.4868ZM56.0579 16.6428C56.2825 16.5147 56.5365 16.4474 56.7952 16.4471C56.9309 16.4471 57.0661 16.4657 57.1971 16.5019C57.6465 16.6261 58.0127 16.9524 58.1879 17.3847C58.3629 17.817 58.3271 18.3061 58.0906 18.7082C57.8544 19.1103 57.4444 19.3795 56.9817 19.4367C56.5188 19.4938 56.0556 19.3326 55.7283 19.0003C55.4013 18.6678 55.2473 18.2021 55.3119 17.7403C55.3765 17.2784 55.6521 16.8728 56.0579 16.6428ZM23.508 12.5161C23.0026 12.5155 22.5036 12.4053 22.0451 12.1932C20.9836 11.7039 20.2363 10.7172 20.0534 9.56279C19.8703 8.40843 20.2757 7.23882 21.1336 6.44526C21.9917 5.65169 23.1893 5.33877 24.3259 5.61107C25.4624 5.88355 26.388 6.70543 26.793 7.8017V7.80191C27.053 8.50896 27.078 9.28086 26.8649 10.0034C26.6515 10.7257 26.2111 11.3603 25.609 11.8128L27.5651 17.1107C27.657 17.3595 27.6463 17.6345 27.5353 17.8753C27.4245 18.1164 27.2224 18.3033 26.9734 18.3951C26.7247 18.487 26.4497 18.4764 26.2088 18.3653C25.9678 18.2543 25.7809 18.0522 25.6891 17.8035H25.6893L23.7297 12.4963C23.6997 12.4983 23.6698 12.5019 23.6399 12.5055C23.5959 12.5108 23.552 12.5161 23.508 12.5161ZM23.1786 7.5515C22.7239 7.65438 22.3428 7.96295 22.1476 8.3865C21.9801 8.74757 21.9639 9.16069 22.1026 9.53361C22.2641 9.97111 22.6199 10.3086 23.0651 10.4467C23.5105 10.5851 23.9949 10.5082 24.3755 10.239C24.7564 9.96986 24.9901 9.53883 25.0084 9.073C25.0268 8.60712 24.8272 8.15922 24.4687 7.86109C24.1101 7.56296 23.6334 7.44859 23.1786 7.5515ZM40.488 58.484C41.4354 58.4827 42.3416 58.0975 42.9999 57.4164C43.6581 56.7352 44.0124 55.8164 43.9814 54.8697C43.9506 53.9228 43.5374 53.0291 42.8362 52.3922C42.1349 51.7554 41.2055 51.4299 40.2601 51.4903L38.3049 46.1947C38.1811 45.8595 37.888 45.6159 37.5359 45.5555C37.1836 45.4951 36.8261 45.6272 36.5978 45.902C36.3695 46.1768 36.3051 46.5524 36.4288 46.8874L38.3849 52.1854C37.7828 52.6379 37.3424 53.2723 37.1291 53.9948C36.9157 54.7173 36.9409 55.4892 37.2009 56.1963V56.1965C37.4497 56.8677 37.898 57.4467 38.4857 57.8556C39.0733 58.2646 39.772 58.484 40.488 58.484ZM39.9645 53.5768C40.3378 53.4389 40.7505 53.4552 41.1118 53.6216C41.4733 53.7881 41.7537 54.0912 41.8914 54.4645C42.0293 54.8377 42.0131 55.2504 41.8466 55.6117C41.6801 55.9731 41.377 56.2535 41.0037 56.3914C40.6305 56.5292 40.2178 56.5131 39.8566 56.3467C39.4951 56.1802 39.2147 55.8771 39.0768 55.5037C38.9364 55.1306 38.9511 54.7168 39.118 54.3547C39.2849 53.9927 39.5897 53.7124 39.9645 53.5768ZM10.6805 23.4128C10.0773 23.413 9.48463 23.2564 8.96025 22.958C8.20377 22.5293 7.63402 21.834 7.36214 21.0082C7.09005 20.1822 7.13547 19.2845 7.48922 18.4903C7.8432 17.6959 8.48005 17.0617 9.27589 16.7113C10.0717 16.3609 10.9697 16.3194 11.7945 16.5951C12.6193 16.8705 13.3118 17.4434 13.7374 18.2018C14.1628 18.9601 14.2907 19.8499 14.0959 20.6974L19.0086 23.4832C19.3193 23.6595 19.5124 23.988 19.5151 24.3451C19.5178 24.7024 19.3299 25.0339 19.022 25.2149C18.7143 25.396 18.3332 25.3991 18.0224 25.2231L13.108 22.4362C12.4547 23.062 11.5853 23.412 10.6805 23.4128ZM10.2872 18.4676C9.90359 18.5736 9.57796 18.8276 9.38171 19.1736C9.18567 19.5196 9.13526 19.9294 9.24109 20.3128C9.34712 20.6961 9.60086 21.0218 9.9467 21.2182C10.2927 21.4147 10.7025 21.4653 11.0861 21.3595C11.4696 21.2534 11.7952 20.9995 11.9915 20.6534C12.1878 20.3074 12.2386 19.8974 12.1325 19.5141C12.0265 19.1305 11.7726 18.8047 11.4265 18.6086C11.0805 18.4124 10.6705 18.3615 10.2872 18.4676ZM44.6152 39.1519C44.4843 39.3825 44.4504 39.6556 44.521 39.9112C44.5916 40.1669 44.7608 40.384 44.9916 40.5148L49.9043 43.3006C49.651 44.4023 49.9452 45.5583 50.6943 46.4048C51.4435 47.2513 52.5554 47.6837 53.6795 47.566C54.8037 47.4481 55.8018 46.7948 56.3595 45.8115C56.917 44.8281 56.9654 43.6362 56.4891 42.611C56.0131 41.5858 55.0712 40.8537 53.9602 40.6454C52.8491 40.4371 51.706 40.7781 50.8908 41.561L45.9781 38.775H45.9779C45.7472 38.6441 45.4741 38.6102 45.2185 38.6808C44.9629 38.7516 44.7458 38.921 44.6152 39.1519ZM52.0088 43.3446C52.205 42.9986 52.5307 42.7446 52.9142 42.6386C53.2976 42.5328 53.7076 42.5834 54.0536 42.7796C54.3996 42.9759 54.6536 43.3015 54.7596 43.6851C54.8657 44.0686 54.8148 44.4784 54.6186 44.8244C54.4223 45.1707 54.0967 45.4245 53.7131 45.5305C53.3296 45.6365 52.9198 45.5857 52.5738 45.3894C52.2279 45.193 51.9742 44.8673 51.8682 44.484C51.7623 44.1004 51.8127 43.6909 52.0088 43.3446ZM10.1909 38.8356C9.55004 39.4059 8.72214 39.7209 7.86444 39.7207L7.8646 39.7206C7.02983 39.7204 6.22273 39.4217 5.58876 38.8785C4.95478 38.3354 4.53581 37.5835 4.40769 36.7587C4.27933 35.9339 4.45039 35.0903 4.88935 34.3804C5.3285 33.6704 6.00706 33.1408 6.80226 32.8872C7.59768 32.6335 8.45747 32.6727 9.22643 32.9972C9.9956 33.3218 10.6231 33.9108 10.9962 34.6575L16.5589 33.6848C16.9106 33.6239 17.2679 33.7552 17.4966 34.0289C17.7254 34.3027 17.791 34.6777 17.6687 35.0127C17.5464 35.3479 17.2549 35.5927 16.9037 35.655H16.9035L11.3403 36.6279C11.2407 37.4798 10.8317 38.2654 10.1909 38.8356ZM8.72757 34.9929C8.40213 34.7642 7.99902 34.6744 7.60714 34.7429C7.21546 34.8117 6.86714 35.0331 6.63839 35.3585C6.40985 35.684 6.31985 36.0869 6.38797 36.4788C6.4563 36.8707 6.67776 37.2192 7.00339 37.4479C7.32883 37.6765 7.73194 37.7665 8.12382 37.698C8.51571 37.6296 8.86424 37.4082 9.09299 37.0825C9.32174 36.7571 9.41153 36.354 9.3432 35.9621C9.27467 35.5702 9.0532 35.2217 8.72757 34.9929ZM47.2621 30.3288C47.3202 30.3288 47.3781 30.3238 47.4354 30.3136L53.0098 29.3386V29.3388C53.519 30.3403 54.4802 31.0345 55.591 31.2028C56.7019 31.3709 57.8258 30.9928 58.6087 30.1869C59.3917 29.3813 59.7377 28.2471 59.5377 27.1415C59.3377 26.0358 58.6165 25.0948 57.6006 24.6144C56.585 24.1341 55.4 24.1735 54.4185 24.7204C53.4369 25.2671 52.7798 26.254 52.6537 27.3705L47.0905 28.3434H47.0903C46.7589 28.4015 46.4789 28.6225 46.3451 28.9315C46.2116 29.2404 46.2422 29.5956 46.4268 29.8771C46.6113 30.1585 46.9251 30.3283 47.2618 30.3288L47.2621 30.3288ZM55.8701 26.3005C55.9555 26.2855 56.0422 26.2778 56.1288 26.2778C56.6499 26.2773 57.1338 26.5469 57.4078 26.9902C57.6815 27.4334 57.7059 27.9869 57.4723 28.4526C57.2388 28.9184 56.7804 29.2296 56.2615 29.2753C55.7423 29.3207 55.2369 29.094 54.9257 28.6761C54.6146 28.2582 54.5423 27.7088 54.7348 27.2246C54.9273 26.7405 55.357 26.3907 55.8701 26.3005ZM18.4056 53.2857C17.7683 53.8386 16.9527 54.1428 16.109 54.1422C15.2131 54.1419 14.3517 53.798 13.7018 53.1815C13.0521 52.565 12.6633 51.7228 12.616 50.8284C12.5687 49.9338 12.8662 49.0552 13.4473 48.3736L13.4479 48.373C13.9373 47.8005 14.5981 47.4009 15.3325 47.2334C16.0671 47.0659 16.8358 47.1394 17.5252 47.4432L21.1881 43.1448C21.4198 42.8727 21.779 42.745 22.1304 42.8098C22.4819 42.8746 22.7721 43.1219 22.8917 43.4585C23.0112 43.7952 22.9423 44.1702 22.7104 44.4421L19.0488 48.739C19.5077 49.4471 19.6954 50.2971 19.5771 51.1325C19.459 51.9679 19.0429 52.7327 18.4056 53.2857ZM16.2861 49.1535C15.7886 49.0952 15.2948 49.2892 14.9698 49.6704L14.9699 49.6705C14.7118 49.9731 14.5847 50.366 14.6164 50.7627C14.648 51.1594 14.836 51.5271 15.1389 51.785C15.4415 52.0432 15.8345 52.1703 16.2311 52.1386C16.7305 52.0988 17.177 51.8121 17.4211 51.3748C17.6653 50.9374 17.6751 50.4069 17.4472 49.9609C17.2192 49.5148 16.7836 49.2119 16.2861 49.1535ZM42.0521 21.2015C42.3452 21.2019 42.6238 21.0734 42.8138 20.85L46.4844 16.5425L46.4846 16.5427C47.1706 16.8527 47.9391 16.9304 48.6735 16.7644C49.4079 16.5981 50.0681 16.197 50.5542 15.6218L50.5546 15.6214V15.6212C51.1183 14.9591 51.4155 14.1108 51.3879 13.2416C51.3604 12.3724 51.0102 11.5448 50.4056 10.9195C49.8013 10.2945 48.9856 9.91679 48.1177 9.86015C47.25 9.80348 46.3923 10.072 45.7117 10.6133C45.0311 11.1545 44.5763 11.93 44.4361 12.7881C44.2959 13.6462 44.4803 14.526 44.9532 15.2558L41.2915 19.5527C41.1255 19.7475 41.0405 19.9986 41.054 20.2542C41.0676 20.5098 41.1786 20.7506 41.3644 20.9267C41.5501 21.1029 41.7961 21.2012 42.0522 21.2014L42.0521 21.2015ZM46.749 12.3783C47.006 12.0747 47.3742 11.8866 47.7708 11.8562C47.8119 11.8529 47.8523 11.8514 47.8929 11.8514V11.8512C48.3525 11.8518 48.7863 12.0629 49.0704 12.4241C49.3546 12.7851 49.4575 13.2564 49.35 13.703C49.2425 14.1499 48.9362 14.5226 48.519 14.715C48.1017 14.9072 47.6192 14.8979 47.2098 14.6893C46.8004 14.4808 46.5089 14.0962 46.4192 13.6456C46.3294 13.195 46.4508 12.7281 46.749 12.3783ZM29.0268 20.9992C30.157 20.9965 31.236 21.4707 31.998 22.3055H31.9981C32.7602 21.4707 33.8392 20.9965 34.9694 20.9992C36.3546 20.9867 37.646 21.6978 38.3761 22.8751C39.5115 23.0309 40.5538 23.5873 41.315 24.4438C42.0765 25.3005 42.5067 26.401 42.5283 27.5466V27.5468C42.5281 27.6424 42.5248 27.7389 42.5186 27.8357C43.4629 28.7303 43.9979 29.9738 43.9981 31.2747C43.9909 32.5943 43.4396 33.8527 42.4746 34.7527C42.5104 34.9839 42.5284 35.2175 42.5284 35.4514C42.5067 36.5973 42.0765 37.6978 41.3152 38.5544C40.554 39.4109 39.5119 39.9675 38.3765 40.1236C37.646 41.3007 36.3546 42.0117 34.9693 41.9994C33.8389 42.0022 32.76 41.5278 31.9981 40.693C31.2362 41.5278 30.1572 42.0022 29.0268 41.9994C27.6416 42.0117 26.3501 41.3007 25.6197 40.1236C24.4843 39.9675 23.4422 39.4109 22.6809 38.5544C21.9197 37.6977 21.4895 36.5973 21.4678 35.4514C21.4678 35.2175 21.4857 34.9839 21.5216 34.7527C20.5566 33.8527 20.0053 32.5943 19.998 31.2747C19.9983 29.9739 20.5332 28.7303 21.4776 27.8357C21.4712 27.7387 21.4678 27.6422 21.4678 27.5466C21.4895 26.4007 21.9197 25.3005 22.6812 24.4438C23.4424 23.5873 24.4847 23.0309 25.6201 22.8751C26.3501 21.6978 27.6416 20.9867 29.0268 20.9992ZM30.396 39.4784C30.7653 39.1305 30.9818 38.6502 30.998 38.1429L30.9981 24.8555C30.9818 24.3482 30.7652 23.8682 30.3958 23.5203C30.0264 23.1726 29.5341 22.9853 29.0268 22.9994C28.5208 22.9994 28.0328 23.1876 27.6579 23.5276C28.343 24.1432 28.7447 25.014 28.768 25.9351C28.7795 26.1999 28.6853 26.4586 28.5062 26.6543C28.327 26.8497 28.0774 26.9661 27.8124 26.9778V26.9776C27.7978 26.9784 27.7832 26.9786 27.768 26.9786C27.5105 26.9784 27.263 26.8788 27.0772 26.7007C26.8914 26.5226 26.7812 26.2797 26.7699 26.0224C26.7697 25.7813 26.7057 25.5447 26.5843 25.3365C26.4628 25.1282 26.2884 24.9559 26.0789 24.837C25.3851 24.8843 24.7337 25.1878 24.251 25.6886C23.7684 26.1895 23.4893 26.8518 23.4678 27.5468H23.4676C23.4676 27.566 23.4704 27.5856 23.4732 27.6051C23.4756 27.6216 23.478 27.6381 23.4786 27.6543C23.9108 27.9035 24.4049 28.0247 24.9032 28.0039C25.2591 27.9701 25.6058 28.1285 25.8128 28.4197C26.0201 28.7108 26.0562 29.0904 25.9076 29.4154C25.7591 29.7402 25.4485 29.9612 25.0928 29.9951C24.9722 30.0066 24.8537 30.0118 24.7364 30.0118C24.0157 29.9989 23.3078 29.8187 22.6689 29.4854C22.2116 30.0091 21.9724 30.6881 22.0001 31.3827C22.0281 32.0774 22.321 32.7352 22.8187 33.2206C23.512 32.9598 24.2545 32.8548 24.9931 32.9131C25.3479 32.956 25.6527 33.185 25.7929 33.5135C25.9329 33.8421 25.8872 34.2204 25.6727 34.5062C25.4583 34.7919 25.1077 34.9414 24.7529 34.8985C24.3237 34.8804 23.8954 34.9506 23.4945 35.105C23.4776 35.2198 23.4689 35.3356 23.4679 35.4517C23.4879 36.1294 23.7531 36.7767 24.2143 37.2735C24.6753 37.7704 25.3011 38.0829 25.9755 38.1533C26.347 37.8229 26.5701 37.3571 26.5947 36.8604C26.6222 36.5041 26.8374 36.1896 27.1597 36.0352C27.4818 35.8808 27.862 35.91 28.1568 36.1118C28.4516 36.3137 28.6162 36.6575 28.5889 37.0137C28.5289 37.8964 28.1709 38.7325 27.5735 39.3852C27.9551 39.7777 28.4793 39.9992 29.0268 39.9996C29.5341 40.0138 30.0264 39.8263 30.396 39.4784ZM36.228 26.9791C36.213 26.9791 36.1982 26.9789 36.1837 26.978L36.1837 26.9778C35.9187 26.9662 35.6691 26.8497 35.4899 26.6543C35.3108 26.4587 35.2166 26.1999 35.228 25.9351C35.2514 25.0141 35.6528 24.1432 36.3382 23.5276C35.9632 23.1876 35.4753 22.9995 34.9693 22.9995C34.462 22.9853 33.9697 23.1726 33.6003 23.5203C33.2309 23.8682 33.0143 24.3482 32.998 24.8555V38.1431C33.0143 38.6504 33.2307 39.1306 33.6001 39.4785C33.9697 39.8265 34.462 40.014 34.9693 39.9998C35.5168 39.9994 36.0409 39.7779 36.4226 39.3854C35.8251 38.7327 35.4672 37.8966 35.4072 37.0139C35.3799 36.6576 35.5445 36.3139 35.8393 36.112C36.1341 35.9101 36.5143 35.881 36.8363 36.0354C37.1587 36.1898 37.3739 36.5043 37.4014 36.8606C37.4259 37.3569 37.648 37.8225 38.0184 38.1537C38.6933 38.084 39.3195 37.7714 39.7812 37.2746C40.2428 36.7774 40.5083 36.13 40.5283 35.4518C40.5272 35.336 40.5185 35.2202 40.5018 35.1054C40.1007 34.9512 39.6724 34.8808 39.2432 34.8987C38.8885 34.9416 38.5378 34.792 38.3234 34.5064C38.1089 34.2208 38.0632 33.8422 38.2032 33.5137C38.3434 33.1851 38.6482 32.9562 39.003 32.9133C39.7415 32.8547 40.4843 32.9595 41.1778 33.2206C41.6753 32.735 41.968 32.0774 41.9959 31.3828C42.0237 30.6881 41.7845 30.0093 41.3272 29.4855C40.6882 29.8189 39.9803 29.9991 39.2597 30.012C39.1424 30.012 39.0238 30.0068 38.9032 29.9953C38.5476 29.9616 38.237 29.7405 38.0884 29.4155C37.9399 29.0905 37.9759 28.7109 38.1832 28.4199C38.3903 28.1289 38.737 27.9703 39.0928 28.0041C39.5912 28.0257 40.0853 27.9047 40.5174 27.6551H40.5172L40.5179 27.6451C40.5185 27.637 40.5195 27.6288 40.5206 27.6205L40.5226 27.6065C40.5237 27.5989 40.5247 27.5913 40.5257 27.5838L40.5266 27.5752L40.5276 27.5644C40.528 27.5586 40.5282 27.5528 40.5282 27.547C40.5068 26.8528 40.2283 26.1911 39.7466 25.6905C39.2651 25.1899 38.6147 24.8859 37.9218 24.8374C37.7103 24.9546 37.5343 25.1265 37.412 25.3351C37.2897 25.5434 37.2255 25.7809 37.2262 26.0226C37.2147 26.2799 37.1047 26.5228 36.9189 26.7009C36.733 26.8791 36.4855 26.9787 36.228 26.9789V26.9791ZM27.9735 32.0321C27.7363 32.0941 27.5298 32.2412 27.394 32.4456C27.2579 32.6498 27.2019 32.8971 27.2363 33.14C26.9356 33.3186 26.7502 33.6413 26.7471 33.9911C26.744 34.3406 26.924 34.6667 27.2213 34.8504C27.5188 35.0344 27.8906 35.0496 28.2021 34.8904C28.5884 34.7013 28.8977 34.3848 29.0784 33.9946C29.259 33.6042 29.2996 33.1635 29.1938 32.7467C29.1273 32.4898 28.9611 32.27 28.7321 32.1358C28.5032 32.0017 28.2302 31.9643 27.9735 32.0321ZM36.2489 33.1978C36.2414 33.1603 36.2214 33.1264 36.1923 33.1016L36.1923 33.1015C36.4294 33.222 36.6088 33.4315 36.6917 33.6843C36.7746 33.937 36.7538 34.2122 36.6342 34.4497C36.5156 34.6864 36.3075 34.866 36.0558 34.9485C35.8044 35.031 35.5302 35.0097 35.2944 34.8893C34.9081 34.7001 34.5987 34.3837 34.4181 33.9934C34.2375 33.603 34.1969 33.1624 34.3027 32.7455L36.2373 33.2514C36.2439 33.2343 36.2479 33.2162 36.2489 33.1978ZM34.7373 29.1398C34.4366 29.3184 34.2512 29.6411 34.2481 29.9909C34.245 30.3404 34.425 30.6665 34.7223 30.8502C35.0198 31.0342 35.3916 31.0494 35.7031 30.8902C36.0894 30.7011 36.3987 30.3846 36.5794 29.9944C36.76 29.604 36.8006 29.1633 36.6948 28.7465C36.6079 28.414 36.3565 28.1496 36.0288 28.046C35.7013 27.9425 35.3433 28.0144 35.081 28.2365C34.8189 28.4585 34.6891 28.7996 34.7373 29.1398ZM28.5558 30.949C28.3043 31.0315 28.0302 31.0103 27.7943 30.8898L27.7944 30.8898C27.4081 30.7006 27.0987 30.3841 26.9181 29.9939C26.7375 29.6035 26.6969 29.1629 26.8027 28.746L28.7373 29.2519C28.7439 29.2348 28.7479 29.2167 28.7489 29.1983C28.7414 29.1608 28.7214 29.1269 28.6923 29.1021C28.9293 29.2225 29.1087 29.4321 29.1916 29.6848C29.2745 29.9375 29.2537 30.2128 29.1341 30.4503C29.0156 30.6869 28.8075 30.8665 28.5558 30.949Z" fill="black"/>
</svg>
