<svg width="64" height="64" viewBox="0 0 64 64" fill="none" xmlns="http://www.w3.org/2000/svg">
<path fill-rule="evenodd" clip-rule="evenodd" d="M2 3C2 2.44772 2.44772 2 3 2H61C61.5523 2 62 2.44772 62 3V61C62 61.5523 61.5523 62 61 62H3C2.44772 62 2 61.5523 2 61V3ZM4 4V60H60V4H4ZM11 49C11 48.4477 11.4477 48 12 48H33C33.5523 48 34 48.4477 34 49C34 49.5523 33.5523 50 33 50H12C11.4477 50 11 49.5523 11 49ZM12 38C11.4477 38 11 38.4477 11 39C11 39.5523 11.4477 40 12 40H52C52.5523 40 53 39.5523 53 39C53 38.4477 52.5523 38 52 38H12ZM11 29C11 28.4477 11.4477 28 12 28H52C52.5523 28 53 28.4477 53 29C53 29.5523 52.5523 30 52 30H12C11.4477 30 11 29.5523 11 29ZM14.8733 12.036L17.6893 20H15.8303L15.1703 18.064H12.5193L11.9033 20H10.1543L12.7613 12.036H14.8733ZM13.8283 13.631H13.7843L12.8053 16.711H14.8183L13.8283 13.631ZM20.2963 20H18.6133V12.036H21.6273C23.6623 12.036 24.2783 13.257 24.2783 14.522C24.2783 16.436 23.2333 17.426 21.1653 17.426H20.2963V20ZM20.9783 16.062C21.8473 16.062 22.5403 15.809 22.5403 14.643C22.5403 13.62 21.9353 13.4 21.1103 13.4H20.2963V16.062H20.9783Z" fill="black"/>
</svg>
