<svg width="64" height="64" viewBox="0 0 64 64" fill="none" xmlns="http://www.w3.org/2000/svg">
<path d="M35.5084 34.1436L61.2524 19.8896V43.8965C61.2524 45.8144 60.9074 47.1394 60.3431 47.9935C59.7422 48.903 58.7626 49.7624 57.3295 50.5425L57.3269 50.5439L35.5084 62.5024V34.1436ZM28.744 34.1436V62.5024L6.92763 50.5451C6.92715 50.5448 6.92668 50.5445 6.92621 50.5443C5.51507 49.7661 4.52987 48.9057 3.90592 47.9884C3.34361 47.1342 3 45.8106 3 43.8965V19.8896L28.744 34.1436ZM16.3206 8.20095L42.2832 22.5409L32.1256 28.1143L6.05586 13.8452C6.234 13.7363 6.4243 13.6273 6.62715 13.5185L6.62717 13.5185L6.63529 13.5141L16.3206 8.20095ZM37.4791 2.44252L37.4843 2.44536L57.6452 13.5135C57.8447 13.6233 58.0325 13.7333 58.2088 13.8433L49.4975 18.6429L23.3648 4.32511L26.7695 2.44461C26.7696 2.44457 26.7696 2.44453 26.7697 2.44449C28.5314 1.47381 30.3226 1 32.1552 1C33.9667 1 35.7373 1.47282 37.4791 2.44252Z" stroke="black" stroke-width="2"/>
</svg>
