<svg width="64" height="64" viewBox="0 0 64 64" fill="none" xmlns="http://www.w3.org/2000/svg">
<path fill-rule="evenodd" clip-rule="evenodd" d="M32 1C27.9204 1 24.554 4.05368 24.0619 8H20C19.4477 8 19 8.44772 19 9V17C19 17.5523 19.4477 18 20 18H44C44.5523 18 45 17.5523 45 17V9C45 8.44772 44.5523 8 44 8H39.9381C39.446 4.05368 36.0796 1 32 1ZM26 9C26 5.68629 28.6863 3 32 3C35.3137 3 38 5.68629 38 9C38 9.55228 38.4477 10 39 10H43V16H21V10H25C25.5523 10 26 9.55228 26 9ZM6 11C6 10.4477 6.44772 10 7 10H15C15.5523 10 16 10.4477 16 11C16 11.5523 15.5523 12 15 12H8V61H56V12H49C48.4477 12 48 11.5523 48 11C48 10.4477 48.4477 10 49 10H57C57.5523 10 58 10.4477 58 11V62C58 62.5523 57.5523 63 57 63H7C6.44772 63 6 62.5523 6 62V11ZM40.7071 29.2929C41.0976 29.6834 41.0976 30.3166 40.7071 30.7071L30.7071 40.7071C30.3166 41.0976 29.6834 41.0976 29.2929 40.7071L24.2929 35.7071C23.9024 35.3166 23.9024 34.6834 24.2929 34.2929C24.6834 33.9024 25.3166 33.9024 25.7071 34.2929L30 38.5858L39.2929 29.2929C39.6834 28.9024 40.3166 28.9024 40.7071 29.2929ZM34 9C34 10.1046 33.1046 11 32 11C30.8954 11 30 10.1046 30 9C30 7.89543 30.8954 7 32 7C33.1046 7 34 7.89543 34 9ZM14 17C14 16.4477 13.5523 16 13 16C12.4477 16 12 16.4477 12 17V56C12 56.5523 12.4477 57 13 57H51C51.5523 57 52 56.5523 52 56V17C52 16.4477 51.5523 16 51 16C50.4477 16 50 16.4477 50 17V55H14V17Z" fill="black"/>
</svg>
