<svg width="64" height="64" viewBox="0 0 64 64" fill="none" xmlns="http://www.w3.org/2000/svg">
<path fill-rule="evenodd" clip-rule="evenodd" d="M19 2C19 1.44772 19.4477 1 20 1H60C60.5523 1 61 1.44772 61 2V46C61 46.5523 60.5523 47 60 47C59.4477 47 59 46.5523 59 46V3H20C19.4477 3 19 2.55228 19 2ZM3 18C3 17.4477 3.44772 17 4 17H44C44.5523 17 45 17.4477 45 18V62C45 62.5523 44.5523 63 44 63H4C3.44772 63 3 62.5523 3 62V18ZM5 19V61H43V19H5ZM12 9C11.4477 9 11 9.44771 11 10C11 10.5523 11.4477 11 12 11H51V54C51 54.5523 51.4477 55 52 55C52.5523 55 53 54.5523 53 54V10C53 9.44771 52.5523 9 52 9H12ZM23 30C23 29.4477 23.4477 29 24 29C24.5523 29 25 29.4477 25 30V39H34C34.5523 39 35 39.4477 35 40C35 40.5523 34.5523 41 34 41H25V50C25 50.5523 24.5523 51 24 51C23.4477 51 23 50.5523 23 50V41H14C13.4477 41 13 40.5523 13 40C13 39.4477 13.4477 39 14 39H23V30Z" fill="black"/>
</svg>
