<svg width="64" height="64" viewBox="0 0 64 64" fill="none" xmlns="http://www.w3.org/2000/svg">
<path fill-rule="evenodd" clip-rule="evenodd" d="M33 2C33 1.44772 32.5523 1 32 1C31.4477 1 31 1.44772 31 2V7H17C16.4477 7 16 7.44772 16 8V34C16 34.5523 16.4477 35 17 35C17.5523 35 18 34.5523 18 34V9H32H46V28C46 28.5523 46.4477 29 47 29C47.5523 29 48 28.5523 48 28V8C48 7.44772 47.5523 7 47 7H33V2ZM5 40C5 39.4477 5.44772 39 6 39H28C28.5523 39 29 39.4477 29 40V62C29 62.5523 28.5523 63 28 63H6C5.44772 63 5 62.5523 5 62V40ZM7 41V61H27V41H7ZM36 33C35.4477 33 35 33.4477 35 34V62C35 62.5523 35.4477 63 36 63H58C58.5523 63 59 62.5523 59 62V34C59 33.4477 58.5523 33 58 33H36ZM24 15C24 14.4477 24.4477 14 25 14H39C39.5523 14 40 14.4477 40 15C40 15.5523 39.5523 16 39 16H25C24.4477 16 24 15.5523 24 15ZM25 20C24.4477 20 24 20.4477 24 21C24 21.5523 24.4477 22 25 22H39C39.5523 22 40 21.5523 40 21C40 20.4477 39.5523 20 39 20H25ZM24 27C24 26.4477 24.4477 26 25 26H39C39.5523 26 40 26.4477 40 27C40 27.5523 39.5523 28 39 28H25C24.4477 28 24 27.5523 24 27ZM14 47C13.4477 47 13 47.4477 13 48C13 48.5523 13.4477 49 14 49H20C20.5523 49 21 48.5523 21 48C21 47.4477 20.5523 47 20 47H14ZM43 42C43 41.4477 43.4477 41 44 41H50C50.5523 41 51 41.4477 51 42C51 42.5523 50.5523 43 50 43H44C43.4477 43 43 42.5523 43 42ZM37 61V35H57V61H37ZM44 47C43.4477 47 43 47.4477 43 48C43 48.5523 43.4477 49 44 49H50C50.5523 49 51 48.5523 51 48C51 47.4477 50.5523 47 50 47H44ZM43 54C43 53.4477 43.4477 53 44 53H50C50.5523 53 51 53.4477 51 54C51 54.5523 50.5523 55 50 55H44C43.4477 55 43 54.5523 43 54ZM14 53C13.4477 53 13 53.4477 13 54C13 54.5523 13.4477 55 14 55H20C20.5523 55 21 54.5523 21 54C21 53.4477 20.5523 53 20 53H14Z" fill="black"/>
</svg>
