<svg width="64" height="64" viewBox="0 0 64 64" fill="none" xmlns="http://www.w3.org/2000/svg">
<path fill-rule="evenodd" clip-rule="evenodd" d="M1 2C1 1.44772 1.44772 1 2 1H52C52.5523 1 53 1.44772 53 2V18.5117C54.2721 20.7153 55 23.2727 55 26C55 29.2707 53.9532 32.2969 52.1763 34.7619L62.7073 45.2929C63.0979 45.6834 63.0979 46.3166 62.7073 46.7071C62.3168 47.0976 61.6837 47.0976 61.2931 46.7071L50.8956 36.3096C48.1615 39.1981 44.2912 41 40 41C34.2439 41 29.2451 37.7578 26.7301 33H12C11.4477 33 11 32.5523 11 32C11 31.4477 11.4477 31 12 31H25.8535C25.3008 29.4361 25 27.7532 25 26C25 23.4718 25.6255 21.0897 26.7301 19H12C11.4477 19 11 18.5523 11 18C11 17.4477 11.4477 17 12 17H27.9989C30.7355 13.3567 35.0925 11 40 11C44.3461 11 48.2605 12.8484 51 15.8019V3H3V61H51V44C51 43.4477 51.4477 43 52 43C52.5523 43 53 43.4477 53 44V62C53 62.5523 52.5523 63 52 63H2C1.44772 63 1 62.5523 1 62V2ZM51.1363 19.2893C48.8601 15.5201 44.7243 13 40 13C35.6097 13 31.7276 15.1763 29.3739 18.509C29.3486 18.5518 29.3201 18.5926 29.2889 18.6309C28.0228 20.4677 27.2169 22.6463 27.0379 25H40C40.5523 25 41 25.4477 41 26C41 26.5523 40.5523 27 40 27H27.0379C27.1598 28.6025 27.5722 30.1238 28.2226 31.5113C28.2446 31.5504 28.264 31.5912 28.2806 31.6333C30.3796 35.992 34.8385 39 40 39C47.1797 39 53 33.1797 53 26C53 23.5538 52.3244 21.2655 51.1496 19.3114C51.1451 19.3041 51.1406 19.2967 51.1363 19.2893ZM12 45C11.4477 45 11 45.4477 11 46C11 46.5523 11.4477 47 12 47H40C40.5523 47 41 46.5523 41 46C41 45.4477 40.5523 45 40 45H12Z" fill="black"/>
</svg>
