<svg width="65" height="65" viewBox="0 0 65 65" fill="none" xmlns="http://www.w3.org/2000/svg">
<path d="M34.08 58.1967C33.3838 58.1967 32.6984 58.0008 32.0239 57.6089C31.3494 57.2171 30.7837 56.7273 30.3268 56.1395C29.8699 55.5518 29.6414 54.9531 29.6414 54.3436C29.6414 53.3205 29.8481 52.3627 30.2615 51.4702C30.6967 50.5559 30.9034 49.5545 30.8816 48.4661C30.8816 47.8565 30.3377 47.1708 29.2498 46.4089C28.1837 45.6253 26.5084 44.3736 24.2238 42.6538C22.5485 41.3912 21.7108 39.9327 21.7108 38.2783C21.7108 37.364 21.8631 36.5368 22.1677 35.7967C22.4723 35.0348 22.6246 34.4253 22.6246 33.9681C22.6246 33.5763 22.4397 33.2171 22.0698 32.8906C21.6999 32.5423 21.1995 32.096 20.5685 31.5518L15.412 26.9804C13.1927 25.0212 11.5609 23.1055 10.5165 21.2334C9.47214 19.3613 8.93908 17.5436 8.91733 15.7804C8.91733 14.0171 9.38511 12.3409 10.3207 10.7518L12.181 11.1436C11.3324 12.6892 10.9081 14.2239 10.9081 15.7477C10.9081 17.2715 11.3759 18.828 12.3115 20.4171C13.2471 22.0062 14.7157 23.6933 16.7174 25.4783L21.9719 30.1477C22.0589 30.213 22.146 30.2892 22.233 30.3763C22.3418 30.4634 22.4506 30.5504 22.5593 30.6375C23.3426 31.3123 23.8866 31.8892 24.1912 32.3681C24.4958 32.8253 24.6481 33.3477 24.6481 33.9355C24.6481 34.3926 24.4849 35.1436 24.1585 36.1885C23.8757 37.1246 23.7343 37.8212 23.7343 38.2783C23.7343 39.2361 24.3108 40.1613 25.464 41.0538C25.8121 41.3151 26.1602 41.5763 26.5084 41.8375C26.8782 42.0987 27.2372 42.3491 27.5854 42.5885C29.6306 44.047 31.0231 45.179 31.7628 45.9844C32.5026 46.7681 32.8833 47.5844 32.9051 48.4334C32.9268 49.1518 32.8398 49.8375 32.644 50.4906C32.4699 51.1219 32.2959 51.6987 32.1218 52.2212C31.926 52.8089 31.7954 53.2443 31.7302 53.5273C31.6867 53.7885 31.6649 54.0171 31.6649 54.213C31.6649 54.7137 31.9369 55.1708 32.4808 55.5844C33.0248 55.998 33.5578 56.2048 34.08 56.2048C34.711 56.2048 35.5922 55.6933 36.7235 54.6702C37.8549 53.647 39.0625 52.3409 40.3462 50.7518C41.6299 49.1627 42.8483 47.4865 44.0015 45.7232C45.1546 43.9599 46.1011 42.3164 46.8408 40.7926C47.5806 39.2688 47.9505 38.0824 47.9505 37.2334C47.9505 36.6892 47.6132 36.0035 46.9387 35.1763C46.286 34.3491 45.4592 33.5219 44.4584 32.6946C43.4575 31.8457 42.4567 31.1382 41.4558 30.5722C40.4767 30.0062 39.6717 29.7232 39.0407 29.7232C38.6709 29.7232 38.116 29.9191 37.3763 30.311C36.6583 30.7028 35.8968 31.0946 35.0917 31.4865C34.2867 31.8565 33.5687 32.0416 32.9377 32.0416C32.2197 32.0416 31.3821 31.7912 30.4247 31.2906C29.4674 30.7899 28.5318 30.1477 27.618 29.364C26.7259 28.5586 25.9753 27.7423 25.3661 26.9151C24.7569 26.0878 24.4523 25.3586 24.4523 24.7273C24.4523 24.1613 24.659 23.5953 25.0723 23.0293C25.5075 22.4416 26.0297 21.9518 26.6389 21.5599C27.2699 21.1681 27.89 20.9722 28.4992 20.9722C29.0431 20.9722 29.7394 21.2334 30.5879 21.7559C31.4364 22.2565 32.2632 22.7572 33.0683 23.2579C33.8951 23.7586 34.5369 24.0089 34.9938 24.0089C35.429 24.0089 35.7988 23.8674 36.1035 23.5844C36.4298 23.2797 36.593 22.8987 36.593 22.4416C36.593 21.9844 36.4298 21.4946 36.1035 20.9722C35.7988 20.4497 35.2767 19.677 34.5369 18.6538C34.3628 18.4144 34.2976 18.2076 34.3411 18.0334C34.4064 17.8375 34.5478 17.6633 34.7654 17.511C35.788 16.9885 37.0064 16.3572 38.4206 15.6171C39.8566 14.877 41.2709 14.0497 42.6634 13.1355C44.0559 12.1994 45.2634 11.198 46.286 10.1314C47.3086 9.04294 47.9396 7.91097 48.1789 6.73546L49.9413 7.87832C49.5497 9.11913 48.8317 10.2946 47.7873 11.4048C46.7647 12.4933 45.5898 13.5055 44.2626 14.4416C42.9353 15.3559 41.6299 16.1722 40.3462 16.8906C39.0625 17.6089 37.9637 18.1967 37.0499 18.6538C38.0943 20.0253 38.6165 21.1463 38.6165 22.0171C38.6165 23.2361 38.2575 24.2048 37.5395 24.9232C36.8432 25.6416 35.9076 26.0008 34.7327 26.0008C34.0582 26.0008 33.3185 25.7504 32.5134 25.2497C31.7302 24.7491 30.9795 24.2484 30.2615 23.7477C29.5435 23.2253 28.9561 22.964 28.4992 22.964C28.064 22.964 27.618 23.1491 27.1611 23.5191C26.7042 23.8892 26.4757 24.2919 26.4757 24.7273C26.4757 25.1191 26.715 25.6198 27.1937 26.2293C27.6724 26.8389 28.2707 27.4375 28.9887 28.0253C29.7067 28.5912 30.4247 29.0702 31.1427 29.462C31.8607 29.8538 32.4591 30.0497 32.9377 30.0497C33.5469 30.0497 34.2214 29.8647 34.9612 29.4946C35.7009 29.1028 36.4298 28.711 37.1478 28.3191C37.8658 27.9273 38.4968 27.7314 39.0407 27.7314C39.9763 27.7314 41.0533 28.0688 42.2717 28.7436C43.5119 29.4185 44.7195 30.2674 45.8944 31.2906C47.0693 32.2919 48.0375 33.3259 48.799 34.3926C49.5823 35.4593 49.9739 36.4062 49.9739 37.2334C49.9739 38.3654 49.5605 39.8021 48.7337 41.5436C47.9287 43.2851 46.8843 45.1137 45.6007 47.0293C44.317 48.945 42.9462 50.7518 41.4885 52.4497C40.0525 54.1477 38.6709 55.53 37.3436 56.5967C36.0164 57.6634 34.9285 58.1967 34.08 58.1967ZM32.7093 64.7273C28.3142 64.7273 24.1803 63.8892 20.3074 62.213C16.4563 60.5586 13.0621 58.262 10.1249 55.3232C7.1876 52.3844 4.88129 48.9885 3.20595 45.1355C1.55238 41.2606 0.725586 37.1246 0.725586 32.7273C0.725586 28.33 1.55238 24.2048 3.20595 20.3518C4.88129 16.477 7.1876 13.0702 10.1249 10.1314C13.0621 7.1926 16.4563 4.896 20.3074 3.24158C24.1803 1.56539 28.3142 0.727295 32.7093 0.727295C37.1043 0.727295 41.2274 1.56539 45.0785 3.24158C48.9513 4.896 52.3564 7.1926 55.2937 10.1314C58.2309 13.0702 60.5372 16.477 62.2126 20.3518C63.8879 24.2048 64.7256 28.33 64.7256 32.7273C64.7256 37.1246 63.8879 41.2606 62.2126 45.1355C60.5372 48.9885 58.2309 52.3844 55.2937 55.3232C52.3564 58.262 48.9622 60.5586 45.1111 62.213C41.26 63.8892 37.1261 64.7273 32.7093 64.7273ZM32.7093 62.5069C36.7997 62.5069 40.6399 61.7341 44.2299 60.1885C47.8417 58.6429 51.0074 56.4987 53.7271 53.7559C56.4686 51.013 58.6117 47.8457 60.1565 44.2538C61.7013 40.662 62.4737 36.8198 62.4737 32.7273C62.4737 28.6348 61.7013 24.7926 60.1565 21.2008C58.6117 17.6089 56.4686 14.4416 53.7271 11.6987C51.0074 8.95587 47.8417 6.81165 44.2299 5.26607C40.6399 3.72049 36.7997 2.9477 32.7093 2.9477C28.6188 2.9477 24.7677 3.72049 21.156 5.26607C17.566 6.81165 14.4002 8.95587 11.6588 11.6987C8.93908 14.4416 6.80684 17.6089 5.26205 21.2008C3.73901 24.7926 2.9775 28.6348 2.9775 32.7273C2.9775 36.8198 3.73901 40.662 5.26205 44.2538C6.80684 47.8457 8.94996 51.013 11.6914 53.7559C14.4329 56.4987 17.5986 58.6429 21.1886 60.1885C24.7786 61.7341 28.6188 62.5069 32.7093 62.5069Z" fill="black"/>
</svg>
