<svg width="64" height="64" viewBox="0 0 64 64" fill="none" xmlns="http://www.w3.org/2000/svg">
<path d="M7.37934 54C4.98357 54 3.15474 53.3844 1.89284 52.1533C0.630947 50.94 0 49.1646 0 46.8272V17.1995C0 14.8621 0.621803 13.0779 1.86541 11.8467C3.1273 10.6156 4.91042 10 7.21475 10H56.6207C59.0164 10 60.8453 10.6156 62.1072 11.8467C63.3691 13.0779 64 14.8621 64 17.1995V46.8272C64 49.1646 63.3691 50.94 62.1072 52.1533C60.8636 53.3844 59.0896 54 56.7853 54H7.37934ZM7.40677 52.073H56.5932C58.3489 52.073 59.6931 51.618 60.6258 50.708C61.5585 49.7802 62.0249 48.4688 62.0249 46.7737V17.2263C62.0249 15.5312 61.5585 14.2287 60.6258 13.3187C59.6931 12.3909 58.3489 11.927 56.5932 11.927H7.40677C5.66938 11.927 4.32519 12.3909 3.3742 13.3187C2.44149 14.2287 1.97514 15.5312 1.97514 17.2263V46.747C1.97514 48.4599 2.44149 49.7802 3.3742 50.708C4.32519 51.618 5.66938 52.073 7.40677 52.073ZM31.9589 37.9684C31.2273 37.9684 30.5141 37.8256 29.8191 37.5401C29.1242 37.2547 28.4292 36.7908 27.7342 36.1484L1.64595 13.3455L3.07244 11.9538L29.051 34.7299C30.0386 35.6042 31.0079 36.0414 31.9589 36.0414C32.9464 36.0414 33.9248 35.6042 34.8941 34.7299L60.8727 11.9538L62.2992 13.3455L36.2383 36.1484C35.5068 36.7908 34.8027 37.2547 34.126 37.5401C33.4493 37.8256 32.727 37.9684 31.9589 37.9684ZM3.51136 51.7251L2.1123 50.3066L22.6867 30.3139L24.1132 31.6253L3.51136 51.7251ZM60.4886 51.7251L39.9143 31.6253L41.3408 30.3139L61.8877 50.3066L60.4886 51.7251Z" fill="black"/>
</svg>
