<svg width="64" height="64" viewBox="0 0 64 64" fill="none" xmlns="http://www.w3.org/2000/svg">
<path fill-rule="evenodd" clip-rule="evenodd" d="M26.5471 53.8294V58H17.5471C16.7517 58.0008 15.9892 58.3173 15.4267 58.8796C14.8644 59.4421 14.5479 60.2046 14.5471 61V63C14.5471 63.2652 14.6525 63.5196 14.84 63.7071C15.0275 63.8946 15.2819 64 15.5471 64H43.5471C43.8123 64 44.0667 63.8946 44.2542 63.7071C44.4417 63.5196 44.5471 63.2652 44.5471 63V61C44.5463 60.2046 44.2298 59.4421 43.6676 58.8796C43.1051 58.3173 42.3425 58.0008 41.5471 58H32.5471V53.8294C39.1439 53.084 45.2357 49.9375 49.6613 44.9899C54.0873 40.042 56.5381 33.6385 56.5471 27.0001C56.5471 26.6428 56.3565 26.3128 56.0471 26.1341C55.7378 25.9555 55.3565 25.9555 55.0471 26.1341C54.7378 26.3128 54.5471 26.6428 54.5471 27.0001C54.5471 33.5729 51.9586 39.8811 47.3423 44.5595C42.7259 49.2379 36.4527 51.9099 29.8805 51.9974C23.3082 52.0851 16.9663 49.5809 12.2266 45.0273C7.48703 40.4735 4.73113 34.2363 4.5562 27.6662C4.38078 21.0956 6.80015 14.7206 11.2901 9.92116C15.7801 5.12117 21.9797 2.28277 28.5471 2.01984V5.02544C22.8047 5.28668 17.393 7.78501 13.4693 11.986C9.54575 16.1866 7.4218 21.7561 7.55247 27.5027C7.6833 33.2494 10.0579 38.7166 14.1685 42.7347C18.2791 46.7529 23.7989 49.0025 29.5471 49.0025C35.2954 49.0025 40.8149 46.7527 44.9258 42.7347C49.0362 38.7166 51.4106 33.2494 51.5418 27.5027C51.6724 21.7561 49.5487 16.1865 45.625 11.986C41.7015 7.78511 36.2895 5.28677 30.5471 5.02544V2H31.5471C31.9044 2 32.2344 1.80937 32.4132 1.5C32.5917 1.19062 32.5917 0.809386 32.4132 0.5C32.2344 0.190624 31.9044 0 31.5471 0H29.5471C22.6463 -0.000416579 16.0079 2.64144 10.9941 7.38293C5.98052 12.1246 2.97273 18.6059 2.58873 25.496C2.20478 32.3861 4.47353 39.1616 8.929 44.4304C13.3846 49.6997 19.689 53.0629 26.5466 53.8293L26.5471 53.8294ZM41.5471 60C41.8123 60.0003 42.0665 60.1057 42.254 60.2932C42.4415 60.4807 42.5469 60.7348 42.5471 61.0001V62.0001H16.5471V61.0001C16.5473 60.7348 16.6527 60.4807 16.8402 60.2932C17.0277 60.1057 17.2819 60.0003 17.5471 60H41.5471ZM28.5471 53.9745L28.6329 53.9776C28.9368 53.9887 29.2406 53.9999 29.5471 53.9999C29.8624 53.9999 30.1747 53.9883 30.4872 53.9767H30.4873L30.5471 53.9745V57.9999H28.5471V53.9745ZM17.4474 11.0897C17.7113 11.5518 17.9205 12.0432 18.0705 12.5539C18.1953 13.0378 18.2011 13.5449 18.0876 14.0316C17.9243 14.4918 17.5285 14.8378 16.7632 15.1893L16.3466 15.3776C15.2757 15.7711 14.3109 16.4084 13.5286 17.2387C13.0116 17.7657 12.3307 18.1012 11.5978 18.1901C12.9734 15.4035 14.9755 12.9733 17.4474 11.0899L17.4474 11.0897ZM15.2097 36.1675L15.1922 36.2484C15.0109 36.8975 14.9659 37.5773 15.0599 38.2446C15.1561 38.6792 15.0618 39.134 14.8005 39.4942C14.618 39.6697 14.363 39.7482 14.1134 39.7057C11.1578 36.1315 9.5428 31.638 9.54738 27.0001C9.54801 26.2813 9.58738 25.563 9.66488 24.8482C11.0557 24.9945 12.149 25.4247 12.2182 25.8894C12.1388 26.8501 12.1528 27.8161 12.2597 28.774C12.4353 30.2766 13.5382 31.1989 14.4247 31.9401L14.4249 31.9403C15.2845 32.659 15.8101 33.143 15.8605 33.8015C15.8464 34.2431 15.7422 34.6771 15.5543 35.0769C15.4132 35.4317 15.298 35.7963 15.2097 36.1677L15.2097 36.1675ZM36.3542 13.4246C37.0202 12.5884 36.8098 11.3499 36.6967 10.6848C36.5223 9.65732 36.6711 8.65754 37.0211 8.5017C37.031 8.49724 37.04 8.49167 37.049 8.48609C37.056 8.48175 37.063 8.4774 37.0705 8.47357C39.7959 9.58669 42.2431 11.2848 44.2395 13.4481C46.236 15.6114 47.7329 18.1871 48.6241 20.9927C48.3581 21.072 48.1037 21.1633 47.8658 21.2514C47.3281 21.5197 46.7249 21.6295 46.127 21.5683C45.8924 21.4872 45.6716 21.371 45.472 21.2237C44.992 20.8629 44.4239 20.6375 43.827 20.5708C43.0843 20.5256 42.3645 20.8368 41.8889 21.4089C41.4255 21.9568 41.2497 22.6921 41.4153 23.3902C41.4903 23.6647 41.6032 23.9279 41.7505 24.1714C41.5943 24.1426 41.4407 24.0995 41.2924 24.0426C40.7764 23.8245 40.208 23.7612 39.6568 23.8605C39.0276 23.9978 38.4993 24.4222 38.2295 25.007C37.9278 25.7203 37.9618 26.5314 38.3218 27.217C38.773 28.0789 39.553 28.722 40.4851 29.0005C40.748 29.096 41.0019 29.2149 41.2436 29.3555C41.153 29.4868 41.014 29.652 40.9188 29.7649C40.7893 29.9193 40.6661 30.0676 40.5684 30.2057C40.3878 30.4623 40.1828 30.715 39.9659 30.9825L39.9599 30.9899H39.9601C39.3695 31.6445 38.8922 32.393 38.548 33.2045C38.3099 33.9159 38.1736 34.6576 38.1432 35.4072C38.1182 35.868 38.0547 36.326 37.9534 36.7763C37.8107 37.1713 37.5842 37.5307 37.2899 37.8303C36.6959 38.4866 36.0207 39.0647 35.2809 39.5505C34.9607 39.7751 34.3776 40.1062 34.0766 39.8037C33.5536 39.2224 33.2055 38.5053 33.0722 37.7351C33.0024 37.346 32.967 36.9516 32.9661 36.5564C32.973 35.8901 32.8816 35.2265 32.6947 34.5872C32.6084 34.3468 32.5022 34.1143 32.377 33.8918C32.2741 33.738 32.2039 33.5647 32.1711 33.3826C32.3503 32.3526 32.0086 31.3007 31.2587 30.5724C29.9943 29.4164 27.9762 29.682 27.5306 29.7582C26.8164 29.7426 26.1181 29.5457 25.5006 29.1863L25.3006 29.0959C24.1531 28.5803 23.7512 27.7134 23.9137 26.1053C24.0356 25.2795 24.3977 24.5078 24.9551 23.8864C25.5124 23.2649 26.2404 22.8212 27.0483 22.6105C28.6147 22.2233 30.167 22.6116 32.0312 23.1589H32.031C33.0812 23.3614 34.1475 23.4666 35.2168 23.473L35.3318 23.4787C36.2172 23.5876 37.1093 23.3359 37.8072 22.7805C38.1891 22.4449 38.4299 21.977 38.481 21.4711C38.6062 20.5036 38.2987 19.5303 37.6405 18.8105C36.3197 17.4374 33.9606 17.5222 31.8801 17.597H31.88L31.8798 17.5967C31.2644 17.6311 30.6475 17.632 30.0319 17.599L30.0423 17.582C30.108 17.5405 30.2325 17.4782 30.3196 17.4347H30.3198C30.6382 17.298 30.9276 17.1015 31.1723 16.8563C31.6786 16.1909 31.9557 15.3795 31.9621 14.5434C32.1271 14.2674 33.4165 14.017 34.694 14.1172C34.7165 14.1188 34.739 14.1201 34.7617 14.1203H34.7619C34.8227 14.1201 34.8843 14.1199 34.9473 14.1163C35.4951 14.1034 36.0094 13.8505 36.354 13.4244L36.3542 13.4246ZM29.5473 7.0001C31.41 7.00052 33.2633 7.26198 35.0534 7.77695C34.4536 8.91759 34.6278 10.4466 34.7251 11.0199H34.7249C34.8105 11.3799 34.837 11.7513 34.8034 12.1197H34.8013C33.9317 12.0561 30.2845 11.9311 29.979 14.2863L29.9813 14.2865V14.2868C29.9734 14.3345 29.9682 14.3826 29.9653 14.4307C29.9784 14.7988 29.8928 15.1636 29.7176 15.4876C29.6236 15.5463 29.5261 15.5992 29.4259 15.6461C29.0174 15.8105 28.6622 16.0844 28.3995 16.4378L28.399 16.4385C28.1899 16.7641 27.5561 17.7512 28.0772 18.6663C28.6734 19.7132 30.1201 19.6619 31.9513 19.5957L31.96 19.5954C33.4555 19.5425 35.4991 19.4702 36.1995 20.1978C36.4534 20.4932 36.5601 20.8876 36.4899 21.2709C36.443 21.3405 36.1828 21.5209 35.4326 21.4815L35.3132 21.4757H35.313C34.4024 21.4713 33.4939 21.3928 32.5959 21.2407L32.5946 21.2403C30.8965 20.742 28.7831 20.1219 26.5687 20.6692C25.3608 20.9792 24.2731 21.6432 23.4456 22.5759C22.6179 23.5088 22.0879 24.6676 21.9239 25.9038C21.6762 28.3588 22.5364 30.0469 24.4802 30.9204L24.6746 31.0083C25.6081 31.5258 26.664 31.7819 27.7308 31.7496C27.7686 31.7464 27.8061 31.7414 27.8431 31.7344C28.2888 31.6481 29.4273 31.6083 29.9086 32.0485L29.9086 32.0485C29.9966 32.129 30.2638 32.3734 30.1815 33.1791H30.1817C30.1488 33.7612 30.2992 34.3387 30.6113 34.831C30.6838 34.9579 30.7467 35.0898 30.7996 35.226C30.9196 35.6825 30.9761 36.1533 30.9675 36.6252C30.9702 37.1429 31.0211 37.6589 31.1194 38.1672C31.3317 39.31 31.8667 40.3681 32.6611 41.2164C33.1067 41.6766 33.7209 41.9348 34.3613 41.9308C35.11 41.9008 35.8315 41.6418 36.4284 41.1889C37.3148 40.6035 38.1209 39.9048 38.8263 39.1108C39.3148 38.5889 39.6782 37.9629 39.8894 37.28C40.0209 36.7202 40.1036 36.15 40.1363 35.5758C40.1563 35.0089 40.2521 34.4475 40.4211 33.906C40.6961 33.3002 41.0646 32.7414 41.5132 32.2502C41.7436 31.9662 41.982 31.6725 42.2034 31.3587C42.2652 31.2711 42.3432 31.1787 42.425 31.0818L42.4494 31.0529C42.8601 30.5652 43.4226 29.8966 43.3107 29.0427H43.3109C43.2321 28.5229 42.9319 28.0627 42.4877 27.7813C42.0948 27.5183 41.6712 27.304 41.2265 27.1431C40.6054 26.8954 40.3438 26.776 40.1017 26.3048V26.3046C40.0234 26.165 40.0032 26 40.0457 25.8454L40.0457 25.8452C40.0513 25.8336 40.0572 25.8214 40.1192 25.8069C40.3025 25.8214 40.4823 25.8656 40.6517 25.9375C40.9488 26.0496 41.2584 26.1258 41.5738 26.1639C42.2731 26.2981 42.9946 26.0889 43.514 25.6014C44.3266 24.6916 43.7573 23.6657 43.5141 23.2274L43.514 23.2272C43.4577 23.1318 43.4071 23.0333 43.3623 22.932C43.3425 22.8468 43.3652 22.7572 43.4236 22.6918C43.4967 22.6041 43.6082 22.5581 43.7219 22.5683C43.965 22.6379 44.1927 22.7531 44.3927 22.9077C44.7919 23.1954 45.2417 23.4052 45.7185 23.5262C46.6846 23.6768 47.6737 23.5379 48.5611 23.1271C48.7621 23.0525 48.9494 22.9848 49.1296 22.9281V22.9283C50.004 27.1173 49.5106 31.4766 47.7225 35.364C45.9344 39.2519 42.9456 42.4632 39.1956 44.5256C35.446 46.5879 31.1337 47.3925 26.8926 46.8208C22.6516 46.2491 18.706 44.3314 15.6366 41.3499C15.8666 41.2199 16.076 41.0563 16.2577 40.8647C16.96 40.0417 17.2437 38.9409 17.0264 37.8812C16.9894 37.4741 17.0302 37.0637 17.1469 36.672L17.1644 36.5905H17.1646C17.2339 36.3124 17.3223 36.0395 17.4289 35.7735C17.7279 35.1062 17.8735 34.3801 17.8546 33.6491C17.7367 32.1025 16.612 31.1621 15.7082 30.4064L15.7077 30.406C14.9679 29.7876 14.3293 29.2535 14.246 28.5418V28.5416C14.1519 27.6897 14.1423 26.8305 14.2177 25.9768C14.2208 25.9387 14.2219 25.9005 14.2206 25.8624C14.1512 23.6905 11.5885 23.0555 9.97811 22.8712H9.97832C10.1794 21.916 10.4506 20.977 10.79 20.0616C11.0229 20.1378 11.2652 20.1809 11.51 20.1899C11.5458 20.1914 11.5813 20.1918 11.6173 20.1918C12.9267 20.1005 14.1517 19.512 15.0412 18.547C15.6385 17.9451 16.364 17.4859 17.1635 17.2032C17.3081 17.1385 17.4535 17.073 17.5987 17.0062C18.6735 16.5982 19.5323 15.7645 19.9716 14.7022C20.2135 13.8924 20.2375 13.033 20.041 12.2112C19.8389 11.417 19.5206 10.6572 19.0962 9.9564C21.427 8.52099 24.0298 7.58286 26.7405 7.20121C26.8015 7.6162 26.8297 8.03561 26.8247 8.45497C26.8278 8.9633 26.8169 9.33374 26.6442 9.47246V9.47267C26.4055 9.631 26.1449 9.75371 25.8709 9.83704C25.6832 9.90662 25.4963 9.97662 25.3171 10.0568C24.4186 10.4091 23.5911 10.921 22.8749 11.5679C22.064 12.3741 22.139 13.0798 22.3446 13.5299H22.3444C22.4765 13.8189 22.738 14.0279 23.0488 14.0931C23.3596 14.1583 23.6832 14.0721 23.9201 13.8606C24.1571 13.6489 24.2796 13.3375 24.2501 13.0212C24.2546 13.0166 24.2593 13.0119 24.2642 13.0069C24.2711 12.9999 24.2785 12.9925 24.2865 12.9846H24.2863C24.8348 12.5154 25.4592 12.1429 26.1326 11.8831C26.2639 11.8246 26.4008 11.7739 26.5382 11.723L26.5382 11.723L26.5659 11.7127C27.0448 11.561 27.4953 11.3306 27.8982 11.0306C28.8365 10.2767 28.8294 9.17293 28.8246 8.44312C28.8273 7.96749 28.7969 7.49229 28.7338 7.02082C29.004 7.00999 29.2744 7.0002 29.5473 7.0002L29.5473 7.0001ZM42.5322 37.2459L42.5587 37.2461C43.5753 37.2461 44.5199 36.2489 45.0681 35.3089C45.6793 34.2597 46.0564 32.8487 45.2822 32.0349H45.282C45.0512 31.7924 44.7143 31.6816 44.3845 31.7395C44.0548 31.7974 43.776 32.0163 43.6416 32.323C43.5072 32.6297 43.5351 32.9832 43.716 33.2649C43.668 33.634 43.5397 33.988 43.3401 34.3021C43.143 34.6846 42.8512 35.0102 42.4924 35.2476C42.1445 35.2676 41.832 35.467 41.6676 35.7742C41.5032 36.0815 41.5107 36.4522 41.6872 36.7526C41.8636 37.053 42.1839 37.2399 42.5322 37.2459ZM51.5194 9.8301L51.9877 7.12013L49.876 5.20902C49.6873 5.03838 49.5708 4.80213 49.5502 4.54859C49.5295 4.29527 49.6062 4.04339 49.7648 3.84443C49.9233 3.64547 50.1516 3.51443 50.4033 3.47777L53.3429 3.05152L54.6268 0.544426C54.7102 0.38193 54.8364 0.245264 54.9918 0.149429C55.1473 0.053386 55.3258 0.0019279 55.5085 0.00026123H55.5171C55.6983 0.00026123 55.876 0.0494292 56.0314 0.142554C56.1866 0.235888 56.3139 0.369429 56.3991 0.529429V0.52922L57.7272 3.01732L60.675 3.39836C60.9273 3.43107 61.1575 3.55836 61.3191 3.75482C61.4806 3.95108 61.5614 4.20171 61.5448 4.45525C61.5283 4.70902 61.4156 4.94694 61.23 5.12069L59.1523 7.06362L59.6675 9.76527C59.7141 10.0094 59.6681 10.2621 59.5385 10.4742C59.4087 10.6863 59.2048 10.8426 58.9662 10.9124C58.7277 10.9821 58.4717 10.9607 58.2481 10.8519L58.2479 10.8517L55.5904 9.55925L52.9564 10.8926C52.7347 11.0047 52.4793 11.0303 52.24 10.9645C52.0004 10.8986 51.7939 10.7459 51.6608 10.5363C51.5277 10.3266 51.4773 10.0749 51.5196 9.8301H51.5194ZM54.8877 4.42306C54.74 4.7114 54.4616 4.91036 54.141 4.95682L52.7935 5.15227L53.7377 6.00683C53.9919 6.23664 54.1106 6.58079 54.0523 6.91829L53.8291 8.20933L55.1302 7.55099C55.4091 7.40995 55.7379 7.40744 56.019 7.5439V7.54369L57.3296 8.18119L57.0848 6.89681C57.0204 6.55996 57.1331 6.21348 57.3837 5.97911H57.3839L58.3133 5.10994L56.9598 4.93494C56.6389 4.89348 56.3581 4.69953 56.2058 4.41411V4.41432L55.5354 3.15848L54.8877 4.42306Z" fill="black"/>
</svg>
