<svg width="64" height="64" viewBox="0 0 64 64" fill="none" xmlns="http://www.w3.org/2000/svg">
<path fill-rule="evenodd" clip-rule="evenodd" d="M32.4526 3.1083C32.1682 2.9639 31.8318 2.9639 31.5474 3.1083L1.54737 16.3364C1.21157 16.5068 1 16.8515 1 17.2281C1 17.6047 1.21157 17.9493 1.54737 18.1198L9.57129 21.6578V39.3333C9.57129 42.6674 12.4847 45.3621 16.4319 47.1653C20.4676 49.0089 25.9726 50.1228 31.9999 50.1228C36.3412 50.1228 40.4116 49.5449 43.8571 48.5326V52.0694L38.6822 59.4246C38.4673 59.7299 38.4405 60.1294 38.6125 60.4607C38.7845 60.7921 39.1267 61 39.5 61H50.2143C50.5876 61 50.9298 60.7921 51.1018 60.4607C51.2738 60.1294 51.247 59.7299 51.0321 59.4246L45.8571 52.0694V47.8704C46.4525 47.6493 47.0235 47.4139 47.5678 47.1653C51.515 45.3621 54.4284 42.6674 54.4284 39.3333V21.6579L62.4526 18.1198C62.7884 17.9493 63 17.6047 63 17.2281C63 16.8515 62.7884 16.5068 62.4526 16.3364L32.4526 3.1083ZM52.4284 22.5398L45.7523 25.4835C45.8194 25.6179 45.8571 25.7694 45.8571 25.9298V45.725C46.1588 45.6025 46.4521 45.4761 46.7367 45.3461C50.5451 43.6063 52.4284 41.4063 52.4284 39.3333V22.5398ZM43.8571 26.3192L32.4526 31.3478C32.1682 31.4922 31.8318 31.4922 31.5474 31.3478L11.5713 22.5397V39.3333C11.5713 41.4063 13.4547 43.6063 17.263 45.3461C20.9828 47.0455 26.1921 48.1228 31.9999 48.1228C36.4331 48.1228 40.5176 47.4951 43.8571 46.4421V26.3192ZM32 29.3347L4.20932 17.2281L32 5.12145L59.7907 17.2281L32 29.3347ZM44.8571 54.1238L41.4263 59H48.288L44.8571 54.1238Z" fill="black"/>
</svg>
