<svg width="64" height="64" viewBox="0 0 64 64" fill="none" xmlns="http://www.w3.org/2000/svg">
<path fill-rule="evenodd" clip-rule="evenodd" d="M32.653 4.24259C32.2778 3.91914 31.7223 3.91914 31.3471 4.24259L19 14.8866V8.00021C19 7.44793 18.5523 7.00021 18 7.00021H12C11.4477 7.00021 11 7.44793 11 8.00021V21.7832L2.34708 29.2426C1.92877 29.6032 1.882 30.2346 2.24261 30.6529C2.60322 31.0712 3.23465 31.118 3.65296 30.7574L9 26.1479V59.9998C9 60.5521 9.44772 60.9998 10 60.9998H26.001C26.5533 60.9998 27.001 60.5521 27.001 59.9998V45.9998H37.001V59.9998C37.001 60.5521 37.4487 60.9998 38.001 60.9998H54C54.5523 60.9998 55 60.5521 55 59.9998V26.1479L60.3471 30.7574C60.7654 31.118 61.3968 31.0712 61.7574 30.6529C62.118 30.2346 62.0713 29.6032 61.653 29.2426L32.653 4.24259ZM53 24.4237L32 6.32029L18.6674 17.8139C18.6576 17.8227 18.6477 17.8313 18.6375 17.8397L11 24.4238V58.9998H25.001V44.9998C25.001 44.4475 25.4487 43.9998 26.001 43.9998H38.001C38.5533 43.9998 39.001 44.4475 39.001 44.9998V58.9998H53V24.4237ZM17 16.6108V9.00021H13V20.059L17 16.6108ZM25.001 26C25.001 25.4477 25.4487 25 26.001 25H38.001C38.5533 25 39.001 25.4477 39.001 26V36C39.001 36.5523 38.5533 37 38.001 37H26.001C25.4487 37 25.001 36.5523 25.001 36V26ZM27.001 27V35H37.001V27H27.001Z" fill="black"/>
</svg>
