<svg width="64" height="64" viewBox="0 0 64 64" fill="none" xmlns="http://www.w3.org/2000/svg">
<path fill-rule="evenodd" clip-rule="evenodd" d="M53.9199 10.0789C48.8433 5.00231 40.6122 5.00242 35.5347 10.0788L28.4636 17.1499C23.3871 22.2264 23.3872 30.4576 28.4636 35.535C28.854 35.9256 29.4872 35.9256 29.8778 35.5352C30.2683 35.1447 30.2684 34.5115 29.8779 34.121C25.5823 29.8244 25.5824 22.8595 29.8779 18.5641L36.9489 11.4931C41.2454 7.19755 48.2102 7.19768 52.5056 11.4931C56.8012 15.7896 56.8011 22.7545 52.5056 27.0499L46.8486 32.7069C46.4581 33.0974 46.4581 33.7306 46.8486 34.1211C47.2392 34.5116 47.8723 34.5116 48.2629 34.1211L53.9199 28.4641C58.9964 23.3875 58.9962 15.1563 53.9199 10.0789ZM35.5351 28.4649C35.1445 28.0744 34.5114 28.0744 34.1208 28.4649C33.7303 28.8554 33.7303 29.4886 34.1208 29.8791C38.4162 34.1745 38.4163 41.1394 34.1208 45.436L27.0498 52.5069C22.7544 56.8023 15.7896 56.8024 11.4931 52.5069C7.19764 48.2115 7.19759 41.2466 11.4931 36.95L17.1501 31.2931C17.5406 30.9026 17.5406 30.2694 17.1501 29.8789C16.7595 29.4884 16.1264 29.4884 15.7358 29.8789L10.0788 35.536C5.00238 40.6134 5.00235 48.8446 10.0789 53.9212C15.1564 58.9976 23.3875 58.9977 28.4641 53.9211L35.5351 46.85C40.6115 41.7726 40.6116 33.5415 35.5351 28.4649Z" fill="black"/>
</svg>
