<svg width="64" height="64" viewBox="0 0 64 64" fill="none" xmlns="http://www.w3.org/2000/svg">
<path fill-rule="evenodd" clip-rule="evenodd" d="M22 3C21.8919 3 21.7879 3.01714 21.6904 3.04885L1.71265 9.04217C1.28967 9.16907 1 9.55839 1 10V58C1 58.3161 1.14946 58.6136 1.40307 58.8023C1.65668 58.991 1.98457 59.0487 2.28735 58.9578L21.9528 53.0582L38.6286 59.7285C39.1414 59.9336 39.7234 59.6842 39.9285 59.1714C40.1336 58.6586 39.8842 58.0766 39.3714 57.8715L23 51.323V5.47703L41 12.677V28C41 28.5523 41.4477 29 42 29C42.5523 29 43 28.5523 43 28V12.744L61 7.34403V41C61 41.5523 61.4477 42 62 42C62.5523 42 63 41.5523 63 41V6C63 5.68389 62.8505 5.3864 62.5969 5.19771C62.3433 5.00901 62.0154 4.95134 61.7127 5.04217L42.0471 10.9418L22.3924 3.07994C22.2719 3.02848 22.1393 3 22 3ZM3 10.744L21 5.34403V51.256L3 56.656V10.744ZM54.4534 51.0389C56.0434 49.1314 57 46.6774 57 44C57 37.9249 52.0751 33 46 33C39.9249 33 35 37.9249 35 44C35 50.0751 39.9249 55 46 55C48.6776 55 51.1317 54.0433 53.0392 52.4531L61.2932 60.7071C61.6837 61.0976 62.3169 61.0976 62.7074 60.7071C63.0979 60.3166 63.0979 59.6834 62.7074 59.2929L54.4534 51.0389ZM52.3297 50.398C50.7038 52.0067 48.4679 53 46 53C41.0294 53 37 48.9706 37 44C37 39.0294 41.0294 35 46 35C50.9706 35 55 39.0294 55 44C55 46.4678 54.0068 48.7036 52.3983 50.3294C52.3864 50.3403 52.3747 50.3514 52.3632 50.3629C52.3517 50.3744 52.3405 50.3861 52.3297 50.398Z" fill="black"/>
</svg>
