<svg width="64" height="64" viewBox="0 0 64 64" fill="none" xmlns="http://www.w3.org/2000/svg">
<path d="M10.9999 19C10.9999 19 38.9604 19.0003 40.4399 19C43.77 18.9993 43.6835 24.0403 40.4119 24.123L21.9999 25V59C22.0055 62.9784 15.9164 62.7643 15.9999 58.831V42H10.9999V59C11.0055 62.9784 4.91639 62.7643 4.99987 58.831V25C4.99987 21.6863 7.68617 19 10.9999 19Z" stroke="black" stroke-width="2" stroke-linecap="round" stroke-linejoin="round"/>
<path fill-rule="evenodd" clip-rule="evenodd" d="M9 8C9 5.23858 11.2386 3 14 3C16.7614 3 19 5.23858 19 8C19 10.7614 16.7614 13 14 13C11.2386 13 9 10.7614 9 8ZM14 1C10.134 1 7 4.13401 7 8C7 11.866 10.134 15 14 15C17.866 15 21 11.866 21 8C21 4.13401 17.866 1 14 1ZM35 2C35.5523 2 36 2.44772 36 3V7H59C59.5523 7 60 7.44772 60 8V46C60 46.5523 59.5523 47 59 47H46.8044L55.8481 61.47C56.1408 61.9383 55.9985 62.5553 55.5301 62.848C55.0618 63.1407 54.4448 62.9983 54.1521 62.53L44.4459 47H28C27.4477 47 27 46.5523 27 46C27 45.4477 27.4477 45 28 45H44.9835C44.9912 44.9999 44.999 44.9998 45.0067 44.9999C45.0094 44.9999 45.0122 45 45.0149 45H58V9H35H26C25.4477 9 25 8.55228 25 8C25 7.44772 25.4477 7 26 7H34V3C34 2.44772 34.4477 2 35 2Z" fill="black"/>
</svg>
