<svg width="64" height="64" viewBox="0 0 64 64" fill="none" xmlns="http://www.w3.org/2000/svg">
<path fill-rule="evenodd" clip-rule="evenodd" d="M20.1979 0.866879C13.4202 0.593175 7.70436 5.86713 7.43075 12.646C7.43068 13.0096 7.43254 13.373 7.43441 13.736C7.43709 14.2596 7.43977 14.7822 7.43664 15.3031C7.42881 15.3537 7.42476 15.4055 7.42481 15.4582C7.42484 15.5047 7.42805 15.5505 7.43423 15.5953C7.40193 18.6422 7.13286 21.6222 5.45942 24.3599C5.17138 24.8311 5.31988 25.4466 5.7911 25.7347C6.26233 26.0227 6.87783 25.8742 7.16587 25.403C8.42815 23.3379 9.18412 21.0128 9.38378 18.617C10.8403 22.706 14.6525 25.6686 19.1938 25.8775C24.2251 26.1088 28.6186 22.905 30.1057 18.3367C30.3122 20.7797 30.8449 23.1406 32.2196 25.401C32.5065 25.8729 33.1217 26.0228 33.5936 25.7359C34.0654 25.4489 34.2153 24.8337 33.9284 24.3619C32.249 21.6002 32.0109 18.6501 31.9792 15.5928C31.9851 15.5489 31.9882 15.5041 31.9883 15.4586C31.9883 15.4064 31.9844 15.3552 31.9768 15.3052C31.9741 14.8896 31.9744 14.4721 31.9748 14.0528C31.9749 13.9076 31.975 13.7621 31.975 13.6165C32.2372 6.84666 26.9688 1.14031 20.1979 0.866879ZM29.9757 14.4194C29.975 14.1486 29.975 13.8769 29.975 13.6044V13.5968C29.975 7.9801 25.919 3.09954 20.1172 2.86525C14.4437 2.63614 9.65821 7.05099 9.42912 12.7267C9.40639 13.2899 9.40247 13.8557 9.40575 14.422C13.083 14.1592 16.5223 12.445 18.9497 9.63392C19.1396 9.41397 19.4158 9.28752 19.7064 9.28748C19.997 9.28743 20.2732 9.41379 20.4632 9.63367C22.8844 12.4358 26.3105 14.148 29.9757 14.4194ZM19.7068 11.7578C22.1053 14.1708 25.206 15.7445 28.5448 16.2664C27.8784 20.7516 23.9115 24.0923 19.2857 23.8796C14.9786 23.6815 11.4734 20.4522 10.8491 16.27C14.1955 15.7518 17.304 14.1763 19.7068 11.7578ZM25.2039 28.3567C25.6287 28.4721 25.9411 28.8605 25.9411 29.3218C25.9411 29.6375 25.792 29.9346 25.539 30.1234C25.286 30.3121 24.9588 30.3703 24.6562 30.2804C15.4559 27.5463 5.7814 32.79 3.04783 41.9932C2.66681 43.276 2.43547 44.5975 2.35765 45.9312H22.3174C22.8697 45.9312 23.3174 46.3789 23.3174 46.9312C23.3174 47.4835 22.8697 47.9312 22.3174 47.9312H1.32813C1.06279 47.9312 0.808328 47.8257 0.620772 47.638C0.433215 47.4503 0.32794 47.1958 0.328125 46.9305C0.329432 45.0659 0.599712 43.2112 1.13062 41.4238C4.17642 31.1694 14.9509 25.3227 25.2039 28.3567ZM32.4995 32.8042H32.5003H56.1132C57.3903 32.8042 58.4251 33.8396 58.4251 35.1164V51.8997L63.3934 60.2666L62.5335 60.7772L63.4296 60.3333C63.9963 61.4773 63.5287 62.8644 62.3847 63.4315C62.067 63.589 61.7173 63.6712 61.3628 63.672H27.2532C25.9762 63.6719 24.9414 62.6364 24.9414 61.3597C24.9414 61.0001 25.0253 60.6455 25.1863 60.324C25.197 60.3027 25.2085 60.2817 25.2207 60.2611L30.1885 51.9003V35.1164C30.1885 33.8399 31.2228 32.8046 32.4995 32.8042ZM31.7577 53.1746H56.8561L61.6477 61.2439C61.7077 61.3938 61.6432 61.5668 61.4965 61.6395C61.4538 61.6607 61.4069 61.6718 61.3594 61.672H27.2532C27.0813 61.6719 26.9414 61.5324 26.9414 61.3598C26.9414 61.319 26.9494 61.2788 26.9648 61.2413L31.7577 53.1746ZM56.4251 35.1164V51.1746H32.1885V35.1164C32.1885 34.9437 32.3283 34.8042 32.5003 34.8042H32.501H56.1132C56.2852 34.8042 56.4251 34.9437 56.4251 35.1164ZM42.9951 56.4233C42.4428 56.4233 41.9951 56.871 41.9951 57.4233C41.9951 57.9756 42.4428 58.4233 42.9951 58.4233H45.6188C46.1711 58.4233 46.6188 57.9756 46.6188 57.4233C46.6188 56.871 46.1711 56.4233 45.6188 56.4233H42.9951Z" fill="black"/>
</svg>
