<svg width="64" height="64" viewBox="0 0 64 64" fill="none" xmlns="http://www.w3.org/2000/svg">
<path fill-rule="evenodd" clip-rule="evenodd" d="M2 3C2 2.44772 2.44772 2 3 2H61C61.5523 2 62 2.44772 62 3V61C62 61.5523 61.5523 62 61 62H3C2.44772 62 2 61.5523 2 61V3ZM4 4V60H60V4H4ZM11 49C11 48.4477 11.4477 48 12 48H33C33.5523 48 34 48.4477 34 49C34 49.5523 33.5523 50 33 50H12C11.4477 50 11 49.5523 11 49ZM12 38C11.4477 38 11 38.4477 11 39C11 39.5523 11.4477 40 12 40H52C52.5523 40 53 39.5523 53 39C53 38.4477 52.5523 38 52 38H12ZM11 29C11 28.4477 11.4477 28 12 28H52C52.5523 28 53 28.4477 53 29C53 29.5523 52.5523 30 52 30H12C11.4477 30 11 29.5523 11 29ZM12.683 20H11V12.036H14.014C16.049 12.036 16.665 13.257 16.665 14.522C16.665 16.436 15.62 17.426 13.552 17.426H12.683V20ZM13.365 16.062C14.234 16.062 14.927 15.809 14.927 14.643C14.927 13.62 14.322 13.4 13.497 13.4H12.683V16.062H13.365ZM35.2756 12.036L38.0916 20H36.2326L35.5726 18.064H32.9216L32.3056 20H30.5566L33.1636 12.036H35.2756ZM34.2306 13.631H34.1866L33.2076 16.711H35.2206L34.2306 13.631ZM40.6986 20H39.0156V12.036H42.0296C44.0646 12.036 44.6806 13.257 44.6806 14.522C44.6806 16.436 43.6356 17.426 41.5676 17.426H40.6986V20ZM41.3806 16.062C42.2496 16.062 42.9426 15.809 42.9426 14.643C42.9426 13.62 42.3376 13.4 41.5126 13.4H40.6986V16.062H41.3806ZM27.5068 16.084V17.503H30.4878V16.084H27.5068ZM24.4505 20.132C22.3275 20.132 21.6455 18.702 21.6455 17.151C21.6455 15.083 22.9105 14.148 24.4505 14.148C26.1885 14.148 26.9145 15.204 26.9145 16.799C26.9145 16.986 26.9035 17.349 26.8815 17.547H23.3945C23.4275 18.493 23.8235 18.845 24.5495 18.845C25.1435 18.845 25.3745 18.515 25.4845 18.031L26.8815 18.372C26.6725 19.439 25.8145 20.132 24.4505 20.132ZM25.1985 16.491C25.1985 15.666 24.9015 15.347 24.3625 15.347C23.8895 15.347 23.4275 15.655 23.4165 16.491H25.1985ZM19.3055 16.293C19.7895 15.908 20.5265 15.71 21.2745 15.776V14.159C21.1755 14.148 21.0765 14.148 20.9885 14.148C20.1085 14.148 19.5695 14.61 19.1845 15.171L19.0635 14.269H17.6445V20H19.3055V16.293Z" fill="black"/>
</svg>
