<svg width="64" height="64" viewBox="0 0 64 64" fill="none" xmlns="http://www.w3.org/2000/svg">
<path fill-rule="evenodd" clip-rule="evenodd" d="M15.3807 11.0093C16.1871 10.1944 17.2859 9.73592 18.4323 9.73592H24.8727L19.4617 20.4385C19.3186 20.7215 19.1942 21.0114 19.0884 21.3065H5.19969C5.25231 21.2471 5.30686 21.1888 5.36332 21.1318L15.3807 11.0093ZM21.5119 21.3065L27.3617 9.73592H36.6382L42.4881 21.3065H21.5119ZM43.1259 23.5277H20.8741C20.8239 24.2984 20.9389 25.0793 21.2218 25.8161L32 53.8841L42.7782 25.8161C43.0611 25.0793 43.1761 24.2984 43.1259 23.5277ZM34.5573 53.4208L44.8518 26.6124C45.2334 25.6187 45.3985 24.5682 45.3505 23.5277H59.8337C60.0141 24.7613 59.6573 26.0602 58.7557 27.0472L35.1702 52.8663C34.9801 53.0744 34.7747 53.2592 34.5573 53.4208ZM44.9116 21.3065C44.8058 21.0114 44.6814 20.7215 44.5383 20.4385L39.1273 9.73592H45.5685C46.7149 9.73592 47.8137 10.1944 48.6201 11.0093L58.6375 21.1318C58.6939 21.1888 58.7485 21.2471 58.8011 21.3065H44.9116ZM4.16707 23.5277H18.6495C18.6015 24.5682 18.7666 25.6187 19.1482 26.6124L29.4424 53.42C29.2254 53.2586 29.0204 53.074 28.8306 52.8663L5.24512 27.0472C4.34349 26.0602 3.98666 24.7613 4.16707 23.5277ZM13.8018 9.44681C15.0254 8.21036 16.6927 7.51465 18.4323 7.51465H45.5685C47.3081 7.51465 48.9753 8.21037 50.199 9.44681L60.2163 19.5693C62.6573 22.0359 62.7362 25.9831 60.3957 28.5453L36.8102 54.3644C34.2271 57.1922 29.7737 57.1922 27.1906 54.3644L3.6051 28.5453C1.26457 25.9831 1.34344 22.0359 3.78446 19.5693L13.8018 9.44681Z" fill="black"/>
</svg>
