<svg width="64" height="64" viewBox="0 0 64 64" fill="none" xmlns="http://www.w3.org/2000/svg">
<path fill-rule="evenodd" clip-rule="evenodd" d="M56.539 15.6931L57.2908 14.0568C59.2324 9.83122 57.4973 5.04828 53.6538 3.28233C49.8104 1.51638 45.0511 3.31531 43.1096 7.54091L43.1003 7.56117L43.0984 7.56522L39.1583 16.1405L42.9621 24.4023L49.503 10.1664C49.7106 9.71459 50.2452 9.5166 50.6971 9.72421C51.1489 9.93182 51.3469 10.4664 51.1393 10.9183L44.5777 25.1991L53.3169 22.7057L56.539 15.6931ZM52.3267 24.8609L43.5874 27.3543L37.0859 41.5044L46.3773 37.8093L52.3267 24.8609ZM41.9718 26.5574L38.1681 18.2956L32.196 31.2934L35.4471 40.7579L41.9718 26.5574ZM35.9964 43.8756L47.7126 39.2162L58.9271 14.8086C61.2497 9.75365 59.2254 3.86056 54.4056 1.64603C49.5859 -0.568506 43.7959 1.73412 41.4733 6.78908L41.4621 6.81339L30.2587 31.1967L34.3576 43.1291L32.1686 47.8933L27.5963 48.4813C26.8177 48.5814 26.2494 49.2674 26.2959 50.0511L26.8016 58.5744C26.8723 59.7672 28.2454 60.3981 29.1965 59.6749L35.993 54.5066C36.618 54.0314 36.7683 53.1535 36.3371 52.4974L33.8049 48.6451L35.9964 43.8756ZM34.7754 61.9006C34.7754 62.3979 34.3723 62.801 33.875 62.801H3.90038C3.40311 62.801 3 62.3979 3 61.9006C3 61.4034 3.40311 61.0002 3.90038 61.0002H33.875C34.3723 61.0002 34.7754 61.4034 34.7754 61.9006ZM32.3351 49.6875L28.1105 50.2308L28.5651 57.8928L34.6747 53.2468L32.3351 49.6875Z" fill="black"/>
</svg>
