<svg width="64" height="64" viewBox="0 0 64 64" fill="none" xmlns="http://www.w3.org/2000/svg">
<path fill-rule="evenodd" clip-rule="evenodd" d="M15 9C15 6.23858 17.2386 4 20 4C23.9241 4 26.6605 6.64274 28.4821 9.53316C29.3827 10.9622 30.0235 12.3991 30.4394 13.4832C30.5098 13.6666 30.5736 13.8395 30.6309 14H27H25H20C17.2386 14 15 11.7614 15 9ZM25 16H20H3V24H25V16ZM25 26H1V14H15.101C13.8045 12.7295 13 10.9587 13 9C13 5.13401 16.134 2 20 2C24.9509 2 28.2145 5.35726 30.1741 8.46684C30.9612 9.71576 31.5619 10.9597 31.9999 12.003C32.4379 10.9597 33.0386 9.71576 33.8257 8.46684C35.7854 5.35726 39.0489 2 43.9998 2C47.8658 2 50.9998 5.13401 50.9998 9C50.9998 10.9587 50.1954 12.7295 48.8988 14H63V26H39V59H51C53.2091 59 55 57.2091 55 55V30H57V55C57 58.3137 54.3137 61 51 61H39H25H13C9.68629 61 7 58.3137 7 55V30H9V55C9 57.2091 10.7909 59 13 59H25V26ZM27 59V26H37V59H27ZM37 24H27V16H30.7061H33.2938H37V24ZM39 24H61V16H43.9998H39V24ZM39 14H43.9998C46.7612 14 48.9998 11.7614 48.9998 9C48.9998 6.23858 46.7612 4 43.9998 4C40.0757 4 37.3393 6.64274 35.5177 9.53316C34.6171 10.9622 33.9764 12.3991 33.5604 13.4832C33.49 13.6666 33.4263 13.8395 33.3689 14H37H39Z" fill="black"/>
</svg>
