<svg width="64" height="64" viewBox="0 0 64 64" fill="none" xmlns="http://www.w3.org/2000/svg">
<path fill-rule="evenodd" clip-rule="evenodd" d="M32 1C31.4477 1 31 1.44772 31 2V17.4854L17.4188 27.1863C17.156 27.374 17 27.677 17 28V37H2C1.44772 37 1 37.4477 1 38V62C1 62.5523 1.44772 63 2 63H28H36H62C62.5523 63 63 62.5523 63 62V38C63 37.4477 62.5523 37 62 37H47V28C47 27.677 46.844 27.374 46.5812 27.1863L33 17.4854V11H43C43.5523 11 44 10.5523 44 10V2C44 1.44772 43.5523 1 43 1H32ZM37 61H61V39H46C45.4477 39 45 38.5523 45 38V28.5146L32 19.2289L19 28.5146V38C19 38.5523 18.5523 39 18 39H3V61H27V48C27 47.4477 27.4477 47 28 47H36C36.5523 47 37 47.4477 37 48V61ZM29 61V49H35V61H29ZM42 9H33V3H42V9ZM27 32C27 31.4477 27.4477 31 28 31H36C36.5523 31 37 31.4477 37 32V38C37 38.5523 36.5523 39 36 39H28C27.4477 39 27 38.5523 27 38V32ZM29 33V37H35V33H29ZM10 47C9.44771 47 9 47.4477 9 48V54C9 54.5523 9.44771 55 10 55H18C18.5523 55 19 54.5523 19 54V48C19 47.4477 18.5523 47 18 47H10ZM11 53V49H17V53H11ZM45 48C45 47.4477 45.4477 47 46 47H54C54.5523 47 55 47.4477 55 48V54C55 54.5523 54.5523 55 54 55H46C45.4477 55 45 54.5523 45 54V48ZM47 49V53H53V49H47Z" fill="black"/>
</svg>
