<svg width="64" height="64" viewBox="0 0 64 64" fill="none" xmlns="http://www.w3.org/2000/svg">
<path fill-rule="evenodd" clip-rule="evenodd" d="M30.5625 3C30.5625 2.44772 31.0102 2 31.5625 2H38.4375C38.9898 2 39.4375 2.44772 39.4375 3V8C39.4375 8.55228 38.9898 9 38.4375 9H32.5625V12.1333L47.3165 17.0513C47.8404 17.226 48.1236 17.7923 47.949 18.3162C47.7743 18.8402 47.208 19.1233 46.684 18.9487L46 18.7207V30H59C59.5523 30 60 30.4477 60 31V61C60 61.5523 59.5523 62 59 62H45H36H28H19H5C4.44772 62 4 61.5523 4 61V31C4 30.4477 4.44772 30 5 30H18V18.7208L17.3165 18.9487C16.7926 19.1233 16.2262 18.8402 16.0516 18.3162C15.8769 17.7923 16.1601 17.226 16.684 17.0513L30.5625 12.4252V3ZM35 60V50H29V60H35ZM37 60V49C37 48.4477 36.5523 48 36 48H28C27.4477 48 27 48.4477 27 49V60H20V31V18.0542L32.0003 14.0541L44 18.054V31V60H37ZM32.5625 7H37.4375V4H32.5625V7ZM6 32H18V60H6V32ZM58 60H46V32H58V60ZM26 25.25C26 21.9363 28.6863 19.25 32 19.25C35.3137 19.25 38 21.9363 38 25.25C38 28.5637 35.3137 31.25 32 31.25C28.6863 31.25 26 28.5637 26 25.25ZM32 17.25C27.5817 17.25 24 20.8317 24 25.25C24 29.6683 27.5817 33.25 32 33.25C36.4183 33.25 40 29.6683 40 25.25C40 20.8317 36.4183 17.25 32 17.25ZM32 21.25C32.5523 21.25 33 21.6977 33 22.25V24.25H35C35.5523 24.25 36 24.6977 36 25.25C36 25.8023 35.5523 26.25 35 26.25H32C31.4477 26.25 31 25.8023 31 25.25V22.25C31 21.6977 31.4477 21.25 32 21.25ZM9 35C8.44772 35 8 35.4477 8 36V42C8 42.5523 8.44772 43 9 43H15C15.5523 43 16 42.5523 16 42V36C16 35.4477 15.5523 35 15 35H9ZM10 41V37H14V41H10ZM8 46C8 45.4477 8.44772 45 9 45H15C15.5523 45 16 45.4477 16 46V52C16 52.5523 15.5523 53 15 53H9C8.44772 53 8 52.5523 8 52V46ZM10 47V51H14V47H10ZM48 36C48 35.4477 48.4477 35 49 35H55C55.5523 35 56 35.4477 56 36V42C56 42.5523 55.5523 43 55 43H49C48.4477 43 48 42.5523 48 42V36ZM50 37V41H54V37H50ZM49 45C48.4477 45 48 45.4477 48 46V52C48 52.5523 48.4477 53 49 53H55C55.5523 53 56 52.5523 56 52V46C56 45.4477 55.5523 45 55 45H49ZM50 51V47H54V51H50Z" fill="black"/>
</svg>
