<svg width="90" height="90" viewBox="0 0 90 90" fill="none" xmlns="http://www.w3.org/2000/svg">
<g opacity="0.2">
<path fill-rule="evenodd" clip-rule="evenodd" d="M42.9785 4.21875C42.9785 3.4421 43.6081 2.8125 44.3848 2.8125H54.0527C54.8294 2.8125 55.459 3.4421 55.459 4.21875V11.25C55.459 12.0267 54.8294 12.6562 54.0527 12.6562H45.791V17.0625L66.5388 23.9784C67.2756 24.224 67.6738 25.0204 67.4282 25.7572C67.1826 26.494 66.3862 26.8922 65.6494 26.6466L64.6875 26.3259V42.1875H82.9688C83.7454 42.1875 84.375 42.8171 84.375 43.5938V85.7812C84.375 86.5579 83.7454 87.1875 82.9688 87.1875H63.2812H50.625H39.375H26.7188H7.03125C6.2546 87.1875 5.625 86.5579 5.625 85.7812V43.5938C5.625 42.8171 6.2546 42.1875 7.03125 42.1875H25.3125V26.3262L24.3513 26.6466C23.6145 26.8922 22.8181 26.494 22.5725 25.7572C22.3269 25.0204 22.7251 24.224 23.4619 23.9784L42.9785 17.4729V4.21875ZM49.2188 84.375V70.3125H40.7812V84.375H49.2188ZM52.0312 84.375V68.9062C52.0312 68.1296 51.4016 67.5 50.625 67.5H39.375C38.5984 67.5 37.9688 68.1296 37.9688 68.9062V84.375H28.125V43.5938V25.3887L45.0004 19.7636L61.875 25.3884V43.5938V84.375H52.0312ZM45.791 9.84375H52.6465V5.625H45.791V9.84375ZM8.4375 45H25.3125V84.375H8.4375V45ZM81.5625 84.375H64.6875V45H81.5625V84.375ZM36.5625 35.5078C36.5625 30.8479 40.3401 27.0703 45 27.0703C49.6599 27.0703 53.4375 30.8479 53.4375 35.5078C53.4375 40.1677 49.6599 43.9453 45 43.9453C40.3401 43.9453 36.5625 40.1677 36.5625 35.5078ZM45 24.2578C38.7868 24.2578 33.75 29.2946 33.75 35.5078C33.75 41.721 38.7868 46.7578 45 46.7578C51.2132 46.7578 56.25 41.721 56.25 35.5078C56.25 29.2946 51.2132 24.2578 45 24.2578ZM45 29.8828C45.7766 29.8828 46.4062 30.5124 46.4062 31.2891V34.1016H49.2188C49.9954 34.1016 50.625 34.7312 50.625 35.5078C50.625 36.2845 49.9954 36.9141 49.2188 36.9141H45C44.2234 36.9141 43.5938 36.2845 43.5938 35.5078V31.2891C43.5938 30.5124 44.2234 29.8828 45 29.8828ZM12.6562 49.2188C11.8796 49.2188 11.25 49.8484 11.25 50.625V59.0625C11.25 59.8391 11.8796 60.4688 12.6562 60.4688H21.0938C21.8704 60.4688 22.5 59.8391 22.5 59.0625V50.625C22.5 49.8484 21.8704 49.2188 21.0938 49.2188H12.6562ZM14.0625 57.6562V52.0312H19.6875V57.6562H14.0625ZM11.25 64.6875C11.25 63.9109 11.8796 63.2812 12.6562 63.2812H21.0938C21.8704 63.2812 22.5 63.9109 22.5 64.6875V73.125C22.5 73.9016 21.8704 74.5312 21.0938 74.5312H12.6562C11.8796 74.5312 11.25 73.9016 11.25 73.125V64.6875ZM14.0625 66.0938V71.7188H19.6875V66.0938H14.0625ZM67.5 50.625C67.5 49.8484 68.1296 49.2188 68.9062 49.2188H77.3438C78.1204 49.2188 78.75 49.8484 78.75 50.625V59.0625C78.75 59.8391 78.1204 60.4688 77.3438 60.4688H68.9062C68.1296 60.4688 67.5 59.8391 67.5 59.0625V50.625ZM70.3125 52.0312V57.6562H75.9375V52.0312H70.3125ZM68.9062 63.2812C68.1296 63.2812 67.5 63.9109 67.5 64.6875V73.125C67.5 73.9016 68.1296 74.5312 68.9062 74.5312H77.3438C78.1204 74.5312 78.75 73.9016 78.75 73.125V64.6875C78.75 63.9109 78.1204 63.2812 77.3438 63.2812H68.9062ZM70.3125 71.7188V66.0938H75.9375V71.7188H70.3125Z" fill="white"/>
</g>
</svg>
