<svg width="64" height="64" viewBox="0 0 64 64" fill="none" xmlns="http://www.w3.org/2000/svg">
<path fill-rule="evenodd" clip-rule="evenodd" d="M56.8 1H16.7819C15.0194 1.00521 13.3308 1.70939 12.0867 2.95792C10.8425 4.20645 10.1446 5.89749 10.1456 7.66021V52.9258H1.00001C0.7348 52.9258 0.480427 53.0312 0.292917 53.2187C0.105419 53.4062 0 53.6606 0 53.9258V55.1681C0 59.4863 3.22997 63.0001 7.2 63.0001H44.4C46.3277 62.9787 48.1685 62.1937 49.5184 60.8168C50.8682 59.4401 51.6167 57.5843 51.6 55.6563V38.7481C51.1408 39.1091 50.6313 39.4008 50.0875 39.6139L49.6 41.3199V55.6564C49.6384 57.0602 49.1075 58.4197 48.1283 59.426C47.149 60.4325 45.8044 61.0002 44.4002 61.0002C42.9959 61.0002 41.6513 60.4325 40.6721 59.426C39.6928 58.4198 39.1619 57.0602 39.2002 55.6564V53.926C39.2002 53.6608 39.0948 53.4065 38.9073 53.2189C38.7198 53.0314 38.4654 52.926 38.2002 52.926H12.1453V7.66043C12.1436 6.42795 12.6307 5.24523 13.4999 4.37147C14.369 3.49792 15.5492 3.0048 16.7815 3.00021H51.8418C50.4103 4.36187 49.6001 6.25104 49.6001 8.22688V9.10875C49.976 8.67062 50.3439 8.26021 50.6953 7.88416L50.6955 7.88395C51.0128 7.54895 51.3672 7.25105 51.7518 6.99622C52.1478 5.32624 53.3431 3.95953 54.9456 3.34475C56.5479 2.72998 58.3506 2.94642 59.7618 3.9231C61.1731 4.89978 62.0108 6.51062 62.0002 8.22683V8.35871H59.3774L59.3772 8.3585V8.35871H59.3774C59.79 8.9641 60.0825 9.64296 60.2387 10.3585H63.0001C63.2653 10.3585 63.5197 10.2533 63.7072 10.0656C63.8947 9.87809 64.0001 9.62371 64.0001 9.35849V8.22681C64.0014 6.31433 63.2441 4.47929 61.8943 3.12452C60.5445 1.76974 58.7124 1.00574 56.7999 1.00014L56.8 1ZM37.2003 55.6563C37.1955 57.6718 38.014 59.6018 39.466 61H7.20054C4.33324 61 2.00033 58.3837 2.00033 55.168V54.9259H37.2003V55.6563ZM38.366 12.5C38.1872 12.8094 37.8572 13 37.4999 13H24.4999C24.1427 13 23.8127 12.8094 23.6339 12.5C23.4554 12.1906 23.4554 11.8094 23.6339 11.5C23.8126 11.1906 24.1426 11 24.4999 11H37.4999C37.8572 11 38.1872 11.1906 38.366 11.5C38.5445 11.8094 38.5445 12.1906 38.366 12.5ZM42.8799 43H17.4999C17.1427 43 16.8127 42.8094 16.6339 42.5C16.4554 42.1906 16.4554 41.8094 16.6339 41.5C16.8126 41.1906 17.1426 41 17.4999 41H43.4514L42.8799 43ZM17.4999 48H41.4511L42.0226 46H17.4999C17.1426 46 16.8126 46.1906 16.6339 46.5C16.4554 46.8094 16.4554 47.1906 16.6339 47.5C16.8127 47.8094 17.1427 48 17.4999 48ZM43.9135 38H17.5001H17.4999C17.1427 38 16.8127 37.8094 16.6339 37.5C16.4554 37.1906 16.4554 36.8094 16.6339 36.5C16.8126 36.1906 17.1426 36 17.4999 36H42.8637C43.0747 36.7308 43.432 37.411 43.9135 38ZM17.5002 33H42.3044C42.2194 32.3635 42.1478 31.6961 42.0957 31H17.4999C17.1426 31 16.8126 31.1906 16.6339 31.5C16.4554 31.8094 16.4554 32.1906 16.6339 32.5C16.8127 32.8094 17.1427 33 17.4999 33H17.5002ZM42.007 28H17.4999C17.1427 28 16.8127 27.8094 16.6339 27.5C16.4554 27.1906 16.4554 26.8094 16.6339 26.5C16.8126 26.1906 17.1426 26 17.4999 26H42.1085C42.0512 26.6789 42.0187 27.3467 42.007 28ZM17.4999 23H42.5266C42.6557 22.3379 42.8139 21.6713 43.0007 21H17.4999C17.1426 21 16.8126 21.1906 16.6339 21.5C16.4554 21.8094 16.4554 22.1906 16.6339 22.5C16.8127 22.8094 17.1426 23 17.4999 23ZM16.7931 17.7071C16.6056 17.5196 16.5002 17.2652 16.5002 17L16.5 17C16.5 16.7348 16.6054 16.4804 16.7929 16.2929C16.9804 16.1054 17.2348 16 17.5 16H44.5C44.6413 16.0004 44.7808 16.0308 44.9094 16.0896C44.5994 16.706 44.3087 17.3429 44.0373 18H17.5002C17.235 18 16.9806 17.8946 16.7931 17.7071ZM53.8432 8.17026C54.4938 7.97235 55.1865 7.95714 55.8453 8.12651L55.8453 8.12642C56.4659 8.30413 57.0245 8.65161 57.4582 9.12994C57.8917 9.60808 58.1832 10.1981 58.2994 10.8329H58.2992C59.0103 14.2307 59.539 19.3883 58.0205 24.6627C56.5031 29.9321 53.2804 34.1442 50.8439 36.7502C50.2246 37.426 49.3854 37.8598 48.476 37.9744L44.9616 50.2746C44.8889 50.5296 44.7177 50.7455 44.4858 50.8744C44.2539 51.0034 43.9802 51.0348 43.725 50.9617C43.47 50.8888 43.2544 50.7175 43.1256 50.4855C42.9968 50.2534 42.9656 49.9798 43.0387 49.7246L46.5012 37.6067C45.5622 37.1084 44.9002 36.2109 44.7008 35.167H44.701C43.99 31.7691 43.4612 26.6115 44.9798 21.3371C46.4971 16.0678 49.7198 11.8556 52.1563 9.24962C52.6088 8.74173 53.1926 8.36838 53.8432 8.17026ZM49.3829 35.3846C51.6694 32.9388 54.6909 28.9972 56.0986 24.1094L56.0986 24.1092C57.5034 19.2292 57.0063 14.4188 56.342 11.2426C56.2993 10.9667 56.1793 10.7088 55.9963 10.4982C55.8132 10.2878 55.5743 10.1332 55.3072 10.0526C54.684 9.92632 54.0405 10.1405 53.6174 10.6151H53.6171C51.3306 13.0609 48.3091 17.0025 46.9014 21.8903C45.4966 26.7703 45.9937 31.5807 46.6583 34.7569C46.7175 35.0592 46.8602 35.3388 47.0704 35.5638C47.7077 32.4689 48.7264 28.5978 49.9547 24.6182C50.9679 21.3345 52.0449 18.2274 53.07 15.6326C53.2012 15.3003 53.4998 15.0633 53.8531 15.0108C54.2064 14.9583 54.561 15.0983 54.7833 15.378C55.0054 15.6576 55.0616 16.0347 54.9304 16.367V16.3672C53.9241 18.9149 52.8646 21.972 51.866 25.2083C50.6991 28.9885 49.7274 32.6578 49.0991 35.6355C49.2008 35.5603 49.2958 35.4763 49.3831 35.3846H49.3829Z" fill="black"/>
</svg>
