<svg width="64" height="64" viewBox="0 0 64 64" fill="none" xmlns="http://www.w3.org/2000/svg">
<path fill-rule="evenodd" clip-rule="evenodd" d="M11 5H53V59H11V5ZM13 7V57H51V7H13Z" fill="black"/>
<path fill-rule="evenodd" clip-rule="evenodd" d="M23.9 19C23.9 17.29 25.29 15.9 27 15.9H31V14H27C24.2386 14 22 16.2386 22 19C22 21.7614 24.2386 24 27 24H31V22.1H27C25.29 22.1 23.9 20.71 23.9 19ZM28 20H36V18H28V20ZM33 14H37C39.7614 14 42 16.2386 42 19C42 21.7614 39.7614 24 37 24H33V22.1H37C38.71 22.1 40.1 20.71 40.1 19C40.1 17.29 38.71 15.9 37 15.9H33V14Z" fill="black"/>
<path fill-rule="evenodd" clip-rule="evenodd" d="M21 31H43C43.5523 31 44 31.4477 44 32V50C44 50.5523 43.5523 51 43 51H21C20.4477 51 20 50.5523 20 50V32C20 31.4477 20.4477 31 21 31ZM40 49H42V33H22V49H35V48H40V49ZM30.29 38.71C30.29 37.7656 31.0556 37 32 37C32.95 37 33.71 37.77 33.71 38.71C33.71 39.66 32.95 40.43 32 40.43C31.05 40.43 30.29 39.66 30.29 38.71ZM27 39C26.29 39 25.71 39.58 25.71 40.29C25.71 41 26.29 41.57 27 41.57C27.71 41.57 28.29 41 28.29 40.29C28.29 39.5776 27.7124 39 27 39ZM35.71 40.29C35.71 39.5776 36.2876 39 37 39C37.7124 39 38.29 39.5776 38.29 40.29C38.29 41 37.71 41.57 37 41.57C36.29 41.57 35.71 41 35.71 40.29ZM40 45V44.14C40 43.2 38.45 42.43 37 42.43C36.45 42.43 35.89 42.54 35.4 42.73C34.65 42.04 33.3 41.57 32 41.57C30.7 41.57 29.35 42.04 28.6 42.73C28.11 42.54 27.55 42.43 27 42.43C25.55 42.43 24 43.2 24 44.14V45H28H30H34H36H40Z" fill="black"/>
</svg>
