<svg width="64" height="64" viewBox="0 0 64 64" fill="none" xmlns="http://www.w3.org/2000/svg">
<path fill-rule="evenodd" clip-rule="evenodd" d="M19.9 15C19.9 13.29 21.29 11.9 23 11.9H27V10H23C20.2386 10 18 12.2386 18 15C18 17.7614 20.2386 20 23 20H27V18.1H23C21.29 18.1 19.9 16.71 19.9 15ZM24 16H32V14H24V16ZM29 10H33C35.7614 10 38 12.2386 38 15C38 17.7614 35.7614 20 33 20H29V18.1H33C34.71 18.1 36.1 16.71 36.1 15C36.1 13.29 34.71 11.9 33 11.9H29V10Z" fill="black"/>
<path fill-rule="evenodd" clip-rule="evenodd" d="M17 27H39C39.5523 27 40 27.4477 40 28V46C40 46.5523 39.5523 47 39 47H17C16.4477 47 16 46.5523 16 46V28C16 27.4477 16.4477 27 17 27ZM36 45H38V29H18V45H31V44H36V45ZM26.29 34.71C26.29 33.7656 27.0556 33 28 33C28.95 33 29.71 33.77 29.71 34.71C29.71 35.66 28.95 36.43 28 36.43C27.05 36.43 26.29 35.66 26.29 34.71ZM23 35C22.29 35 21.71 35.58 21.71 36.29C21.71 37 22.29 37.57 23 37.57C23.71 37.57 24.29 37 24.29 36.29C24.29 35.5776 23.7124 35 23 35ZM31.71 36.29C31.71 35.5776 32.2876 35 33 35C33.7124 35 34.29 35.5776 34.29 36.29C34.29 37 33.71 37.57 33 37.57C32.29 37.57 31.71 37 31.71 36.29ZM36 41V40.14C36 39.2 34.45 38.43 33 38.43C32.45 38.43 31.89 38.54 31.4 38.73C30.65 38.04 29.3 37.57 28 37.57C26.7 37.57 25.35 38.04 24.6 38.73C24.11 38.54 23.55 38.43 23 38.43C21.55 38.43 20 39.2 20 40.14V41H24H26H30H32H36Z" fill="black"/>
<path fill-rule="evenodd" clip-rule="evenodd" d="M7 1H49V55H7V1ZM9 3V53H47V3H9ZM11 58C11 57.4477 11.4477 57 12 57H51V2C51 1.44772 51.4477 1 52 1C52.5523 1 53 1.44772 53 2V58C53 58.5523 52.5523 59 52 59H12C11.4477 59 11 58.5523 11 58ZM15 62C15 61.4477 15.4477 61 16 61H55V6C55 5.44772 55.4477 5 56 5C56.5523 5 57 5.44772 57 6V62C57 62.5523 56.5523 63 56 63H16C15.4477 63 15 62.5523 15 62Z" fill="black"/>
</svg>
