<svg width="64" height="64" viewBox="0 0 64 64" fill="none" xmlns="http://www.w3.org/2000/svg">
<path fill-rule="evenodd" clip-rule="evenodd" d="M51.5011 34.5777L62.8974 33.3858L62.8965 33.3853C63.1457 33.3592 63.3955 33.4278 63.5967 33.5772C63.7977 33.7265 63.9357 33.9459 63.9827 34.1921C64.0298 34.4382 63.9828 34.693 63.8511 34.9061L60.1357 40.9147C58.4524 43.6444 56.1947 45.9752 53.5197 47.7451C52.9496 47.5403 52.409 47.2609 51.9122 46.9144H51.9119C51.7749 46.8267 51.6344 46.7376 51.4901 46.6486C54.3256 44.9896 56.7104 42.6592 58.4346 39.8625L61.0785 35.5864L47.9889 36.9552C45.7927 37.1874 43.8414 38.4603 42.7437 40.3766C42.6564 40.5297 42.53 40.657 42.3775 40.7456C42.225 40.8339 42.0518 40.8806 41.8756 40.8806H21.3753C21.213 40.8806 21.053 40.841 20.9095 40.7654C20.7364 40.6712 20.5932 40.5304 20.4966 40.3585C19.4036 38.4514 17.4653 37.1812 15.2803 36.9401V36.9399L2.92778 35.5955L5.56634 39.8624C7.28964 42.6582 9.67343 44.988 12.5082 46.647C12.363 46.7363 12.2217 46.8259 12.0838 46.9143C11.588 47.2601 11.0486 47.5391 10.4799 47.7441C7.80559 45.9744 5.54825 43.6438 3.86495 40.9142L0.149535 34.9057C0.0174544 34.6921 -0.0294208 34.4367 0.0180795 34.1903C0.0655781 33.9438 0.204117 33.724 0.405994 33.5751C0.608079 33.4259 0.858703 33.3582 1.10829 33.3855L11.5003 34.5165V28.8786H5.00909C4.69744 28.8786 4.40348 28.733 4.21431 28.4853C4.02515 28.2374 3.96244 27.9155 4.04452 27.6149C4.1266 27.314 4.34431 27.0688 4.63327 26.9515C5.22015 26.6026 5.65307 26.0442 5.84495 25.3888H5.84474C6.33391 24.0219 6.42997 21.4005 4.11141 16.6774C4.02745 16.5088 3.98953 16.3211 4.00182 16.133C4.01391 15.9451 4.07578 15.7638 4.18099 15.6076C4.45566 15.1947 4.79112 14.7024 11.5005 14.9215V13.0011C11.5005 12.6441 11.6911 12.3138 12.0005 12.1353C12.3098 11.9565 12.6911 11.9565 13.0005 12.1353C13.3098 12.3138 13.5005 12.644 13.5005 13.0011V14.9997C14.7896 15.0576 16.2588 15.1357 17.9434 15.2384C18.1196 15.2491 18.2901 15.3063 18.4369 15.4043C18.584 15.5022 18.7026 15.6374 18.7803 15.7959C20.9232 20.1618 21.5213 23.6553 20.5582 26.1799C20.1745 27.3278 19.3459 28.2739 18.2586 28.8055C18.1392 28.8541 18.0115 28.8789 17.8826 28.8789H13.5005V34.7343L15.4972 34.9516C16.7924 35.0949 18.0405 35.521 19.1528 36.1999C20.2653 36.8789 21.2149 37.7939 21.9345 38.8806H31.0006V36.8802H24.5094C24.1977 36.8802 23.9038 36.7347 23.7146 36.4868C23.5255 36.2391 23.4627 35.9173 23.5448 35.6164C23.6269 35.3158 23.8446 35.0704 24.1336 34.9531C24.7205 34.6043 25.1534 34.0458 25.3453 33.3903H25.345C25.8342 32.0229 25.9303 29.4018 23.6117 24.6789C23.5278 24.5103 23.4898 24.3226 23.5021 24.1347C23.5142 23.9468 23.5761 23.7653 23.6813 23.6093C23.9565 23.1966 24.292 22.7043 31.0008 22.9233V20.8778H24.5096C24.1979 20.8776 23.904 20.7322 23.7148 20.4845C23.5256 20.2366 23.4629 19.9147 23.545 19.6141C23.6271 19.3132 23.8448 19.068 24.1337 18.9507C24.7206 18.6018 25.1535 18.0432 25.3454 17.388H25.3452C25.8344 16.0211 25.9304 13.3997 23.6119 8.67655C23.5279 8.50801 23.49 8.32009 23.5023 8.13218C23.5146 7.94426 23.5765 7.76301 23.6815 7.60676C23.9567 7.19386 24.2921 6.70177 31.0009 6.92073V3.00009C31.0009 2.64282 31.1916 2.31261 31.5009 2.13406C31.8103 1.95531 32.1916 1.95531 32.5009 2.13406C32.8103 2.31257 33.0009 2.6428 33.0009 3.00009V6.99886C34.2901 7.05678 35.7593 7.13491 37.4439 7.23762C37.6201 7.24824 37.7905 7.30554 37.9376 7.40345C38.0845 7.50137 38.203 7.63658 38.2807 7.79512C40.4237 12.161 41.0218 15.6545 40.0587 18.1791C39.6749 19.327 38.8464 20.2731 37.7591 20.8047C37.6397 20.8531 37.512 20.8781 37.383 20.8781H33.001V23.0014C34.2901 23.0593 35.7593 23.1374 37.4439 23.2401C37.6202 23.2509 37.7906 23.308 37.9374 23.4059C38.0845 23.5039 38.2031 23.6391 38.2808 23.7976C40.4237 28.1635 41.0218 31.657 40.0587 34.1816C39.675 35.3297 38.8466 36.2758 37.7591 36.8076C37.6397 36.856 37.512 36.8808 37.3831 36.8808H33.001V38.8812H41.3189C42.0422 37.7939 42.9964 36.8793 44.1134 36.2029C45.2303 35.5262 46.4828 35.1041 47.7813 34.9664L49.5011 34.7866V28.8794H43.0099C42.698 28.8794 42.4041 28.7338 42.2149 28.486C42.0258 28.2382 41.963 27.9163 42.0451 27.6156C42.1272 27.3148 42.3449 27.0696 42.6339 26.9523C43.2208 26.6033 43.6537 26.045 43.8456 25.3896H43.8453C44.3345 24.0226 44.4306 21.4012 42.112 16.6781C42.0281 16.5096 41.9901 16.3218 42.0024 16.1337C42.0147 15.9458 42.0766 15.7646 42.1816 15.6083C42.4568 15.1954 42.7923 14.7031 49.5011 14.9223V13.0019C49.5011 12.6448 49.6917 12.3146 50.0011 12.136C50.3104 11.9573 50.6917 11.9573 51.0011 12.136C51.3104 12.3145 51.5011 12.6448 51.5011 13.0019V15.0004C52.7902 15.0583 54.2594 15.1365 55.944 15.2392C56.1202 15.2498 56.2907 15.3071 56.4377 15.405C56.5846 15.5029 56.7032 15.6381 56.7809 15.7967C58.9238 20.1625 59.5219 23.6561 58.5588 26.1807C58.1751 27.3286 57.3465 28.2746 56.2592 28.8063C56.1398 28.8548 56.0121 28.8796 55.8832 28.8796H51.5011V34.5777ZM7.68815 26.1806C7.59711 26.4206 7.48961 26.654 7.3667 26.8792L17.6331 26.879C18.1489 26.5148 18.5312 25.9917 18.7214 25.3896L18.7216 25.3894C19.192 24.0736 19.2989 21.5962 17.2389 17.2006C12.985 16.9525 8.43045 16.8077 6.43087 16.9081C8.14503 20.7582 8.56837 23.8737 7.68815 26.1806ZM27.1879 18.1795C27.0968 18.4196 26.9893 18.6529 26.8664 18.8781L37.1328 18.8782C37.6486 18.5141 38.0309 17.9907 38.2211 17.3886L38.2213 17.3888C38.6917 16.0726 38.7986 13.5954 36.7386 9.19952C32.4847 8.95139 27.9302 8.80639 25.9306 8.90701C27.6448 12.7571 28.0681 15.8729 27.1879 18.1795ZM26.8665 34.8808L37.1328 34.881C37.6486 34.5166 38.0309 33.9934 38.2211 33.3914H38.2213C38.6917 32.0751 38.7986 29.5974 36.7386 25.202C32.4847 24.9539 27.9302 24.8091 25.9306 24.9095C27.6448 28.7596 28.0681 31.8754 27.1879 34.1821C27.0969 34.4219 26.9894 34.6554 26.8665 34.8808ZM45.6882 26.1811C45.5971 26.4212 45.4896 26.6545 45.3667 26.8797L55.6331 26.8795C56.1489 26.5153 56.5312 25.9922 56.7214 25.3901L56.7216 25.3899C57.192 24.0742 57.2989 21.5967 55.2389 17.2011C50.985 16.953 46.4296 16.8082 44.4309 16.9086C46.145 20.7587 46.5684 23.8743 45.6882 26.1811ZM58.5829 53.9162C59.8621 52.9799 61.4129 52.4889 62.9979 52.5178C63.3548 52.5187 63.6842 52.7095 63.8623 53.0187C64.0404 53.3278 64.0404 53.7085 63.8623 54.0174C63.6842 54.3266 63.3548 54.5174 62.9979 54.5183C61.7955 54.4931 60.6198 54.8745 59.6611 55.601C58.3686 56.5108 56.8267 56.9991 55.2461 56.9991C53.6657 56.9991 52.1236 56.5108 50.8313 55.601C49.8611 54.8972 48.6932 54.5183 47.4947 54.5183C46.2962 54.5183 45.1282 54.8973 44.158 55.601C42.8657 56.5108 41.324 56.9991 39.7436 56.9991C38.1632 56.9991 36.6215 56.5108 35.3292 55.601C34.3596 54.8972 33.1922 54.5183 31.994 54.5183C30.7959 54.5183 29.6284 54.8973 28.6586 55.601C27.38 56.537 25.8299 57.0283 24.2453 56.9991C22.6607 57.0283 21.1103 56.537 19.8315 55.601C18.8732 54.8747 17.6978 54.4931 16.4955 54.5183C15.2936 54.4931 14.1182 54.8747 13.16 55.601C11.8815 56.537 10.3313 57.0283 8.74671 56.9991C7.16213 57.0283 5.61173 56.537 4.33295 55.601C3.37503 54.8745 2.19983 54.4931 0.997965 54.5183C0.641299 54.5174 0.311928 54.3266 0.133592 54.0174C-0.0445307 53.7085 -0.0445307 53.3278 0.133592 53.0187C0.311939 52.7095 0.641299 52.5187 0.997965 52.5178C2.58234 52.4887 4.13274 52.9799 5.4113 53.9162C6.36943 54.6424 7.54485 55.0239 8.74671 54.9987C9.94858 55.0239 11.1238 54.6424 12.0817 53.9162C13.3605 52.9799 14.9109 52.4889 16.4955 52.5178C18.0803 52.4887 19.6307 52.9799 20.9096 53.9162C21.8792 54.6197 23.0467 54.9987 24.2448 54.9987C25.443 54.9987 26.6102 54.6197 27.58 53.9162C28.8719 53.0062 30.4136 52.5178 31.9938 52.5178C33.5738 52.5178 35.1155 53.0062 36.4074 53.9162C37.3776 54.6197 38.5453 54.9987 39.7436 54.9987C40.942 54.9987 42.1099 54.6197 43.0799 53.9162C44.3722 53.0062 45.914 52.5178 47.4947 52.5178C49.075 52.5178 50.617 53.0062 51.9094 53.9162C52.8796 54.6197 54.0475 54.9987 55.2461 54.9987C56.4448 54.9987 57.6127 54.6197 58.5829 53.9162ZM62.9979 57.5198C61.4129 57.4908 59.8621 57.9819 58.5829 58.9179C57.6127 59.6216 56.4448 60.0006 55.2461 60.0006C54.0475 60.0006 52.8796 59.6217 51.9094 58.9179C50.617 58.0081 49.075 57.5198 47.4947 57.5198C45.914 57.5198 44.3722 58.0081 43.0799 58.9179C42.1099 59.6216 40.942 60.0006 39.7436 60.0006C38.5453 60.0006 37.3776 59.6217 36.4074 58.9179C35.1155 58.0081 33.5738 57.5198 31.9938 57.5198C30.4136 57.5198 28.8719 58.0081 27.58 58.9179C26.6102 59.6216 25.443 60.0006 24.2448 60.0006C23.0467 60.0006 21.8792 59.6217 20.9096 58.9179C19.6307 57.9819 18.0803 57.4906 16.4955 57.5198C14.9109 57.4908 13.3605 57.9819 12.0817 58.9179C11.1238 59.6444 9.94858 60.0258 8.74671 60.0006C7.54485 60.0258 6.36943 59.6444 5.4113 58.9179C4.13274 57.9819 2.58234 57.4906 0.997965 57.5198C0.641299 57.5206 0.311939 57.7115 0.133592 58.0206C-0.0445307 58.3298 -0.0445307 58.7104 0.133592 59.0194C0.311928 59.3286 0.641299 59.5194 0.997965 59.5202C2.19983 59.495 3.37503 59.8765 4.33295 60.6029C5.61173 61.539 7.16213 62.0302 8.74671 62.0011C10.3313 62.0302 11.8815 61.539 13.16 60.6029C14.1182 59.8767 15.2936 59.495 16.4955 59.5202C17.6978 59.495 18.8732 59.8767 19.8315 60.6029C21.1103 61.539 22.6607 62.0302 24.2453 62.0011C25.8299 62.0302 27.38 61.539 28.6586 60.6029C29.6284 59.8992 30.7959 59.5202 31.994 59.5202C33.1922 59.5202 34.3596 59.8992 35.3292 60.6029C36.6215 61.5128 38.1632 62.0011 39.7436 62.0011C41.324 62.0011 42.8657 61.5127 44.158 60.6029C45.1282 59.8992 46.2962 59.5202 47.4947 59.5202C48.6932 59.5202 49.8611 59.8992 50.8313 60.6029C52.1236 61.5128 53.6657 62.0011 55.2461 62.0011C56.8267 62.0011 58.3686 61.5127 59.6611 60.6029C60.6198 59.8765 61.7955 59.495 62.9979 59.5202C63.3548 59.5194 63.6842 59.3285 63.8623 59.0194C64.0404 58.7104 64.0404 58.3298 63.8623 58.0206C63.6842 57.7114 63.3548 57.5206 62.9979 57.5198ZM58.5829 48.9157C59.862 47.9794 61.4128 47.4884 62.9979 47.5173C63.3547 47.5182 63.6841 47.709 63.8622 48.0182C64.0404 48.3273 64.0404 48.708 63.8622 49.0169C63.6841 49.3261 63.3547 49.5169 62.9979 49.5178C61.7954 49.4926 60.6198 49.874 59.661 50.6005C58.3685 51.5103 56.8267 51.9986 55.246 51.9986C53.6656 51.9986 52.1235 51.5103 50.8312 50.6005C49.8611 49.8967 48.6931 49.5178 47.4946 49.5178C46.2961 49.5178 45.1282 49.8967 44.158 50.6005C42.8656 51.5103 41.324 51.9986 39.7436 51.9986C38.1631 51.9986 36.6214 51.5103 35.3292 50.6005C34.3596 49.8967 33.1921 49.5178 31.994 49.5178C30.7958 49.5178 29.6284 49.8967 28.6586 50.6005C27.38 51.5365 25.8298 52.0278 24.2452 51.9986C22.6606 52.0278 21.1102 51.5365 19.8315 50.6005C18.8731 49.8742 17.6977 49.4928 16.4954 49.5178C15.2935 49.4927 14.1181 49.8742 13.16 50.6005C11.8814 51.5365 10.3312 52.0278 8.74666 51.9986C7.16207 52.0278 5.61167 51.5365 4.3329 50.6005C3.37498 49.8742 2.19978 49.4926 0.997912 49.5178C0.641251 49.5169 0.311875 49.3261 0.133752 49.0169C-0.044584 48.708 -0.044584 48.3273 0.133752 48.0182C0.311885 47.709 0.641245 47.5182 0.997912 47.5173C2.58229 47.4884 4.13269 47.9794 5.41124 48.9157C6.36938 49.6419 7.54479 50.0234 8.74666 49.9984C9.94853 50.0234 11.1237 49.6419 12.0816 48.9157C13.3604 47.9794 14.9108 47.4884 16.4954 47.5173C18.0802 47.4884 19.6307 47.9794 20.9096 48.9157C21.8792 49.6194 23.0467 49.9984 24.2448 49.9984C25.4429 49.9984 26.6102 49.6194 27.58 48.9157C28.8719 48.0057 30.4135 47.5173 31.9937 47.5173C33.5737 47.5173 35.1154 48.0057 36.4073 48.9157C37.3775 49.6194 38.5452 49.9984 39.7436 49.9984C40.9421 49.9984 42.1098 49.6194 43.0798 48.9157C44.3721 48.0057 45.914 47.5173 47.4946 47.5173C49.075 47.5173 50.6169 48.0057 51.9094 48.9157C52.8796 49.6194 54.0475 49.9984 55.246 49.9984C56.4447 49.9984 57.6127 49.6194 58.5829 48.9157Z" fill="black"/>
</svg>
