<svg width="64" height="64" viewBox="0 0 64 64" fill="none" xmlns="http://www.w3.org/2000/svg">
<path fill-rule="evenodd" clip-rule="evenodd" d="M2 3C2 2.44772 2.44772 2 3 2H61C61.5523 2 62 2.44772 62 3V8.04199C62 8.59428 61.5523 9.04199 61 9.04199C60.4477 9.04199 60 8.59428 60 8.04199V4H4V8.04199C4 8.59428 3.55228 9.04199 3 9.04199C2.44772 9.04199 2 8.59428 2 8.04199V3ZM18.9199 20H20.5809V14.269H18.9199V20ZM19.7559 13.521C20.3829 13.521 20.7569 13.147 20.7569 12.509C20.7569 11.871 20.3829 11.508 19.7559 11.508C19.1179 11.508 18.7549 11.871 18.7549 12.509C18.7549 13.147 19.1179 13.521 19.7559 13.521ZM61.9785 20H63.3645V11.695H61.7695V14.632C61.4065 14.291 60.9555 14.148 60.3175 14.148C59.1295 14.148 57.8975 14.951 57.8975 17.25C57.8975 19.307 58.8105 20.132 60.1525 20.132C60.9115 20.132 61.4505 19.868 61.8465 19.428L61.8795 19.439L61.9785 20ZM60.7905 15.468C61.1645 15.468 61.4945 15.622 61.7145 15.787V18.416C61.4505 18.658 61.0875 18.823 60.7355 18.823C59.9545 18.823 59.6355 18.218 59.6355 17.195C59.6355 16.205 59.9545 15.468 60.7905 15.468ZM55.5243 16.293C56.0083 15.908 56.7453 15.71 57.4933 15.776V14.159C57.3943 14.148 57.2953 14.148 57.2073 14.148C56.3273 14.148 55.7883 14.61 55.4033 15.171L55.2823 14.269H53.8633V20H55.5243V16.293ZM52.3936 18.57C52.3936 18.878 52.4486 19.01 52.7346 19.01C52.8336 19.01 52.9326 18.988 53.0756 18.944L53.1196 19.901C52.8996 20.011 52.4156 20.121 52.0636 20.121C51.4036 20.121 51.0076 19.934 50.8866 19.395C50.5236 19.868 49.9736 20.132 49.1816 20.132C47.7516 20.132 47.4766 19.175 47.4766 18.603C47.4766 16.854 49.2916 16.59 50.7656 16.601V16.392C50.7656 15.743 50.6776 15.347 49.9516 15.347C49.4016 15.347 49.1926 15.578 49.0826 16.139L47.6746 15.864C47.8506 14.786 48.5326 14.148 50.0946 14.148C51.6236 14.148 52.3936 14.742 52.3936 16.172V18.57ZM50.5126 17.569C49.7206 17.591 49.1486 17.745 49.1486 18.328C49.1486 18.658 49.2916 18.955 49.8196 18.955C50.2156 18.955 50.6006 18.757 50.7766 18.581V17.569H50.5126ZM41.1494 17.162C41.1494 18.878 41.8644 20.132 43.9434 20.132C46.0004 20.132 46.8584 18.911 46.8584 17.041C46.8584 15.347 46.0884 14.148 44.0974 14.148C42.1064 14.148 41.1494 15.325 41.1494 17.162ZM45.1314 17.096C45.1314 18.438 44.7464 18.9 44.0204 18.9C43.2064 18.9 42.8874 18.394 42.8874 17.118C42.8874 15.875 43.3054 15.402 44.0534 15.402C44.7904 15.402 45.1314 15.842 45.1314 17.096ZM34.5859 20V12.036H37.7429C39.6239 12.036 40.1519 12.894 40.1519 13.983C40.1519 15.05 39.4479 15.622 38.6449 15.842V15.864C39.9099 16.018 40.4929 16.711 40.4929 17.811C40.4929 19.439 39.2169 20 37.4899 20H34.5859ZM37.1489 18.691C38.0729 18.691 38.6889 18.526 38.6889 17.657C38.6889 16.766 38.0729 16.612 37.3139 16.612H36.2799V18.691H37.1489ZM36.9069 15.325C37.6989 15.325 38.4909 15.182 38.4909 14.258C38.4909 13.4 37.9189 13.345 37.1599 13.345H36.2799V15.325H36.9069ZM32.1482 14.5C31.7742 14.247 31.2572 14.148 30.6302 14.148C28.9912 14.148 28.0782 15.05 28.0782 16.271C28.0782 16.997 28.3972 17.525 28.9142 17.822C28.3752 18.207 28.0232 18.526 28.0232 19.098C28.0232 19.571 28.2982 19.901 28.8592 20.066V20.11C28.2322 20.231 27.8252 20.605 27.8252 21.144C27.8252 21.936 28.4852 22.475 30.5862 22.475C32.2692 22.475 33.5782 21.936 33.5782 20.528C33.5782 19.373 32.8742 18.955 31.6532 18.878L30.0252 18.779C29.6072 18.757 29.5082 18.647 29.5082 18.482C29.5082 18.339 29.6182 18.229 29.7172 18.13C30.0362 18.218 30.2892 18.251 30.6742 18.251C32.1482 18.251 33.1932 17.481 33.1932 16.194C33.1932 15.732 33.0502 15.281 32.7202 14.907C33.0392 14.808 33.3252 14.786 33.6662 14.819V13.73C33.5012 13.664 33.3472 13.631 33.2042 13.631C32.6652 13.631 32.3462 14.071 32.1482 14.5ZM30.6962 15.314C31.3012 15.314 31.6752 15.589 31.6752 16.183C31.6752 16.744 31.2682 17.063 30.6742 17.063C29.9702 17.063 29.6512 16.755 29.6512 16.183C29.6512 15.567 30.1022 15.314 30.6962 15.314ZM31.2572 20.374C31.8512 20.407 31.9612 20.605 31.9612 20.825C31.9612 21.298 31.4552 21.408 30.7182 21.408C29.9482 21.408 29.3212 21.276 29.3212 20.825C29.3212 20.616 29.4532 20.429 29.6622 20.275L31.2572 20.374ZM27.0331 20H25.3721V16.37C25.3721 15.754 25.1301 15.49 24.6131 15.49C24.1621 15.49 23.7111 15.743 23.4911 15.941V20H21.8301V14.269H23.3041L23.3921 14.841C23.8101 14.456 24.4371 14.148 25.2181 14.148C26.4831 14.148 27.0331 14.775 27.0331 16.084V20ZM18.1984 15.776C17.4504 15.71 16.7134 15.908 16.2294 16.293V20H14.5684V14.269H15.9874L16.1084 15.171C16.4934 14.61 17.0324 14.148 17.9124 14.148C18.0004 14.148 18.0994 14.148 18.1984 14.159V15.776ZM9.48905 14.269H8.08105V22.332H9.68705V19.582C10.0501 19.912 10.5011 20.132 11.2051 20.132C12.4701 20.132 13.5371 19.285 13.5371 17.008C13.5371 14.896 12.6021 14.148 11.3811 14.148C10.7431 14.148 10.0831 14.357 9.58805 14.852L9.48905 14.269ZM10.7211 18.801C10.3141 18.801 9.88505 18.57 9.72005 18.416V15.908C9.97305 15.699 10.4021 15.468 10.7871 15.468C11.4581 15.468 11.7991 15.897 11.7991 17.052C11.7991 18.163 11.4911 18.801 10.7211 18.801ZM4.179 13.202C3.365 13.202 2.991 13.543 2.991 14.049C2.991 14.764 3.75 14.984 4.619 15.226C5.774 15.545 7.127 15.952 7.127 17.613C7.127 19.417 5.664 20.132 4.08 20.132C2.65 20.132 1.143 19.67 1 17.602L2.54 17.371C2.672 18.141 2.958 18.79 4.124 18.79C4.828 18.79 5.444 18.548 5.444 17.811C5.444 17.118 4.696 16.909 3.838 16.689L3.81573 16.6831C2.65457 16.3765 1.297 16.018 1.297 14.291C1.297 12.74 2.595 11.893 4.201 11.893C5.62 11.893 6.918 12.333 7.039 14.225L5.488 14.401C5.422 13.653 5.114 13.202 4.179 13.202ZM12 48C11.4477 48 11 48.4477 11 49C11 49.5523 11.4477 50 12 50H33C33.5523 50 34 49.5523 34 49C34 48.4477 33.5523 48 33 48H12ZM11 39C11 38.4477 11.4477 38 12 38H52C52.5523 38 53 38.4477 53 39C53 39.5523 52.5523 40 52 40H12C11.4477 40 11 39.5523 11 39ZM12 28C11.4477 28 11 28.4477 11 29C11 29.5523 11.4477 30 12 30H52C52.5523 30 53 29.5523 53 29C53 28.4477 52.5523 28 52 28H12ZM4 24.0331C4 23.4808 3.55228 23.0331 3 23.0331C2.44772 23.0331 2 23.4808 2 24.0331V61C2 61.5523 2.44772 62 3 62H61C61.5523 62 62 61.5523 62 61V24.0331C62 23.4808 61.5523 23.0331 61 23.0331C60.4477 23.0331 60 23.4808 60 24.0331V60H4V24.0331Z" fill="black"/>
</svg>
