<svg width="65" height="64" viewBox="0 0 65 64" fill="none" xmlns="http://www.w3.org/2000/svg">
<path fill-rule="evenodd" clip-rule="evenodd" d="M46.4047 3.28743C46.0155 2.90419 45.3908 2.90419 45.0015 3.28743L37.8957 10.284C37.8935 10.2861 37.8913 10.2883 37.8891 10.2905L8.44227 39.2842C8.4375 39.2889 8.43276 39.2936 8.42806 39.2984C8.26969 39.4592 8.17687 39.6601 8.14933 39.8679L6.11975 53.8564C6.07455 54.1679 6.17866 54.4825 6.40075 54.7056C6.62283 54.9286 6.93698 55.0341 7.24867 54.9903L21.4583 52.9915C21.6631 52.9648 21.8612 52.8747 22.0206 52.7214C22.0237 52.7185 22.0267 52.7155 22.0297 52.7126L58.5922 16.7126C58.7831 16.5246 58.8906 16.2679 58.8906 16C58.8906 15.7321 58.7831 15.4754 58.5922 15.2874L46.4047 3.28743ZM21.3281 50.5966L49.356 23L38.5938 12.4034L10.5659 40L21.3281 50.5966ZM9.84663 42.0985L8.29048 52.824L19.1836 51.2918L9.84663 42.0985ZM40.0191 11L50.7813 21.5966L56.4653 16L45.7031 5.40338L40.0191 11ZM7.10938 61C6.55709 61 6.10938 61.4477 6.10938 62C6.10938 62.5523 6.55709 63 7.10938 63H57.8906C58.4429 63 58.8906 62.5523 58.8906 62C58.8906 61.4477 58.4429 61 57.8906 61H7.10938Z" fill="black"/>
</svg>
