<svg width="64" height="64" viewBox="0 0 64 64" fill="none" xmlns="http://www.w3.org/2000/svg">
<path d="M9.85816 62C5.95272 62 4 60.5355 4 57.6065C4 55.4377 4.63987 53.1459 5.91962 50.7311C7.22143 48.3164 9.08589 46.0581 11.513 43.9564C13.9622 41.8323 16.9078 40.1107 20.3499 38.7915C23.792 37.45 27.6753 36.7792 32 36.7792C36.3026 36.7792 40.1749 37.45 43.617 38.7915C47.0812 40.1107 50.0268 41.8323 52.4539 43.9564C54.881 46.0581 56.7455 48.3164 58.0473 50.7311C59.3491 53.1459 60 55.4377 60 57.6065C60 60.5355 58.0363 62 54.1087 62H9.85816ZM9.56028 59.6188H54.4728C55.6422 59.6188 56.4476 59.4511 56.8889 59.1157C57.3302 58.8027 57.5508 58.2549 57.5508 57.4723C57.5508 55.5942 56.9771 53.6043 55.8298 51.5025C54.6824 49.3784 53.0055 47.3885 50.7991 45.5327C48.6147 43.6546 45.9338 42.1342 42.7565 40.9715C39.6013 39.7865 36.0158 39.194 32 39.194C27.9842 39.194 24.3877 39.7865 21.2104 40.9715C18.0552 42.1342 15.3743 43.6546 13.1678 45.5327C10.9835 47.3885 9.31757 49.3784 8.17021 51.5025C7.02285 53.6043 6.44917 55.5942 6.44917 57.4723C6.44917 58.2549 6.66982 58.8027 7.11111 59.1157C7.5524 59.4511 8.36879 59.6188 9.56028 59.6188ZM32.0662 31.6814C29.5508 31.6814 27.2782 31.0218 25.2482 29.7026C23.2403 28.3835 21.6407 26.5947 20.4492 24.3365C19.2577 22.0559 18.6619 19.507 18.6619 16.6898C18.6619 14.0067 19.2577 11.5584 20.4492 9.34489C21.6627 7.109 23.2845 5.33147 25.3144 4.0123C27.3444 2.67077 29.595 2 32.0662 2C34.5154 2 36.7549 2.65959 38.7849 3.97876C40.8148 5.29793 42.4255 7.07546 43.617 9.31135C44.8306 11.5249 45.4374 13.9732 45.4374 16.6562C45.4374 19.4734 44.8416 22.0224 43.6501 24.303C42.4807 26.5612 40.881 28.3611 38.8511 29.7026C36.8432 31.0218 34.5816 31.6814 32.0662 31.6814ZM32.0662 29.2666C34.1182 29.2666 35.9716 28.7188 37.6265 27.6233C39.2813 26.5053 40.5831 24.9961 41.5319 23.0956C42.5028 21.1727 42.9882 19.0263 42.9882 16.6562C42.9882 14.4203 42.4917 12.3745 41.4988 10.5187C40.528 8.64058 39.2151 7.15372 37.5603 6.05813C35.9054 4.94019 34.0741 4.38122 32.0662 4.38122C30.0362 4.38122 28.1939 4.94019 26.539 6.05813C24.9062 7.17608 23.5934 8.66294 22.6005 10.5187C21.6076 12.3745 21.1111 14.4315 21.1111 16.6898C21.1111 19.0598 21.5965 21.1951 22.5674 23.0956C23.5382 24.9961 24.8511 26.5053 26.5059 27.6233C28.1608 28.7188 30.0142 29.2666 32.0662 29.2666Z" fill="black"/>
</svg>
