<svg width="64" height="64" viewBox="0 0 64 64" fill="none" xmlns="http://www.w3.org/2000/svg">
<path fill-rule="evenodd" clip-rule="evenodd" d="M32 3C30.8953 3 30 3.89528 30 5C30 5.40447 30.12 5.78086 30.3264 6.09551C30.337 6.10927 30.3473 6.12337 30.3573 6.13781C30.367 6.15186 30.3763 6.16607 30.3852 6.18042C30.7491 6.67735 31.3368 7 32 7C32.6677 7 33.2589 6.67295 33.6221 6.17027C33.6291 6.15935 33.6363 6.14852 33.6437 6.13778C33.6514 6.12676 33.6592 6.11595 33.6671 6.10533C33.8775 5.7887 34 5.40868 34 5C34 3.89528 33.1047 3 32 3ZM28 5C28 5.48629 28.0868 5.9523 28.2456 6.3834L18.6877 13H2C1.44772 13 1 13.4477 1 14V62C1 62.5523 1.44772 63 2 63H62C62.5523 63 63 62.5523 63 62V14C63 13.4477 62.5523 13 62 13H45.3123L35.7545 6.38289C35.9133 5.95193 36 5.4861 36 5C36 2.79072 34.2093 1 32 1C29.7907 1 28 2.79072 28 5ZM44.9856 15C44.9945 15.0001 45.0035 15.0001 45.0125 15H59.5858L53.5858 21H10.4142L4.41421 15H18.9875C18.9965 15.0001 19.0055 15.0001 19.0144 15H44.9856ZM41.7987 13L34.6153 8.02673C33.9141 8.63317 32.9999 9 32 9C31.0003 9 30.0862 8.63331 29.3851 8.02709L22.2015 13H41.7987ZM3 59.5858V16.4142L9 22.4142V53.5858L3 59.5858ZM53.5858 55L59.5858 61H4.41421L10.4142 55H31H47H53.5858ZM61 16.4142V59.5858L55 53.5858V22.4142L61 16.4142ZM53 53H48V47C48 46.4477 47.5523 46 47 46H31C30.4477 46 30 46.4477 30 47V53H11V23H53V53ZM32 48V53H46V48H32Z" fill="black"/>
</svg>
