<svg width="64" height="64" viewBox="0 0 64 64" fill="none" xmlns="http://www.w3.org/2000/svg">
<path fill-rule="evenodd" clip-rule="evenodd" d="M3 28C3 14.1929 14.1929 3 28 3C41.8071 3 53 14.1929 53 28C53 34.8857 50.2162 41.1212 45.7127 45.6425C45.7005 45.6536 45.6885 45.6651 45.6767 45.6769L45.6626 45.6912C45.6558 45.6984 45.649 45.7056 45.6423 45.7129C41.1211 50.2163 34.8856 53 28 53C14.1929 53 3 41.8071 3 28ZM46.3717 47.7861C41.5528 52.2625 35.0961 55 28 55C13.0883 55 1 42.9117 1 28C1 13.0883 13.0883 1 28 1C42.9117 1 55 13.0883 55 28C55 35.0962 52.2625 41.5529 47.7859 46.3719L62.7069 61.2929C63.0974 61.6834 63.0974 62.3166 62.7069 62.7071C62.3164 63.0976 61.6832 63.0976 61.2927 62.7071L46.3717 47.7861ZM17.4355 33.7163C19.4895 32.4903 23.0145 31 28 31C32.9272 31 36.4732 32.501 38.5423 33.7254C40.0684 34.6283 41 36.2615 41 38.035V40C41 40.5523 40.5523 41 40 41H16C15.4477 41 15 40.5523 15 40V38.013C15 36.2505 15.9198 34.6217 17.4352 33.7165L17.4355 33.7163ZM18.4605 35.4337C17.5521 35.9765 17 36.9516 17 38.013V39H39V38.035C39 36.9686 38.4417 35.9897 37.5238 35.4466L37.5237 35.4466C35.7028 34.369 32.5048 33 28 33C23.4317 33 20.2569 34.3615 18.4608 35.4335L18.4605 35.4337ZM23 20C23 17.2386 25.2386 15 28 15C30.7614 15 33 17.2386 33 20C33 22.7614 30.7614 25 28 25C25.2386 25 23 22.7614 23 20ZM28 13C24.134 13 21 16.134 21 20C21 23.866 24.134 27 28 27C31.866 27 35 23.866 35 20C35 16.134 31.866 13 28 13Z" fill="black"/>
</svg>
