<svg xmlns="http://www.w3.org/2000/svg" width="34" height="34" viewBox="0 0 34 34">
    <g fill="none" fill-rule="evenodd" transform="translate(1 1)">
        <circle cx="16" cy="16" r="16" stroke="#CECECE"/>
        <path fill="#111" fill-rule="nonzero" d="M25 10.95c-.675.3-1.35.525-2.1.6.75-.45 1.35-1.2 1.65-2.025-.75.45-1.5.75-2.325.9a3.63 3.63 0 0 0-2.7-1.2A3.681 3.681 0 0 0 15.85 12.9c0 .3 0 .6.075.825-3.15-.15-5.85-1.65-7.65-3.9-.375.6-.525 1.2-.525 1.875 0 1.275.675 2.4 1.65 3.075-.6 0-1.2-.15-1.65-.45v.075c0 1.8 1.275 3.3 2.925 3.6-.3.075-.6.15-.975.15-.225 0-.45 0-.675-.075.45 1.5 1.8 2.55 3.45 2.55C11.2 21.6 9.625 22.2 7.9 22.2c-.3 0-.6 0-.9-.075 1.65 1.05 3.6 1.65 5.625 1.65 6.825 0 10.5-5.625 10.5-10.5v-.45c.75-.525 1.35-1.2 1.875-1.875z"/>
    </g>
</svg>
