<svg width="11" height="12" viewBox="0 0 11 12" fill="none" xmlns="http://www.w3.org/2000/svg">
<path d="M1.33594 11.7061C0.950846 11.7061 0.648275 11.6172 0.428223 11.4395C0.208171 11.2617 0.0981445 11.0184 0.0981445 10.7095C0.0981445 10.3032 0.222982 9.87793 0.472656 9.43359C0.726562 8.98503 1.09049 8.56608 1.56445 8.17676C2.03841 7.78743 2.60758 7.47217 3.27197 7.23096C3.93636 6.98551 4.67904 6.86279 5.5 6.86279C6.3252 6.86279 7.06787 6.98551 7.72803 7.23096C8.39242 7.47217 8.95947 7.78743 9.4292 8.17676C9.90316 8.56608 10.2671 8.98503 10.521 9.43359C10.7749 9.87793 10.9019 10.3032 10.9019 10.7095C10.9019 11.0184 10.7918 11.2617 10.5718 11.4395C10.356 11.6172 10.0534 11.7061 9.66406 11.7061H1.33594ZM5.5 5.75195C5.02604 5.75195 4.59229 5.625 4.19873 5.37109C3.80518 5.11719 3.48991 4.77653 3.25293 4.34912C3.02018 3.92171 2.90381 3.44352 2.90381 2.91455C2.90381 2.39827 3.0223 1.92855 3.25928 1.50537C3.49626 1.08219 3.81152 0.745768 4.20508 0.496094C4.59863 0.246419 5.03027 0.121582 5.5 0.121582C5.97396 0.121582 6.40771 0.246419 6.80127 0.496094C7.19482 0.741536 7.51009 1.07585 7.74707 1.49902C7.98405 1.9222 8.10254 2.38981 8.10254 2.90186C8.10254 3.43506 7.98405 3.91748 7.74707 4.34912C7.51432 4.77653 7.20117 5.11719 6.80762 5.37109C6.41406 5.625 5.97819 5.75195 5.5 5.75195Z" fill="#373737"/>
<path d="M1.33594 11.7061C0.950846 11.7061 0.648275 11.6172 0.428223 11.4395C0.208171 11.2617 0.0981445 11.0184 0.0981445 10.7095C0.0981445 10.3032 0.222982 9.87793 0.472656 9.43359C0.726562 8.98503 1.09049 8.56608 1.56445 8.17676C2.03841 7.78743 2.60758 7.47217 3.27197 7.23096C3.93636 6.98551 4.67904 6.86279 5.5 6.86279C6.3252 6.86279 7.06787 6.98551 7.72803 7.23096C8.39242 7.47217 8.95947 7.78743 9.4292 8.17676C9.90316 8.56608 10.2671 8.98503 10.521 9.43359C10.7749 9.87793 10.9019 10.3032 10.9019 10.7095C10.9019 11.0184 10.7918 11.2617 10.5718 11.4395C10.356 11.6172 10.0534 11.7061 9.66406 11.7061H1.33594ZM5.5 5.75195C5.02604 5.75195 4.59229 5.625 4.19873 5.37109C3.80518 5.11719 3.48991 4.77653 3.25293 4.34912C3.02018 3.92171 2.90381 3.44352 2.90381 2.91455C2.90381 2.39827 3.0223 1.92855 3.25928 1.50537C3.49626 1.08219 3.81152 0.745768 4.20508 0.496094C4.59863 0.246419 5.03027 0.121582 5.5 0.121582C5.97396 0.121582 6.40771 0.246419 6.80127 0.496094C7.19482 0.741536 7.51009 1.07585 7.74707 1.49902C7.98405 1.9222 8.10254 2.38981 8.10254 2.90186C8.10254 3.43506 7.98405 3.91748 7.74707 4.34912C7.51432 4.77653 7.20117 5.11719 6.80762 5.37109C6.41406 5.625 5.97819 5.75195 5.5 5.75195Z" fill="black" fill-opacity="0.2"/>
</svg>
