<svg width="12" height="12" viewBox="0 0 12 12" fill="none" xmlns="http://www.w3.org/2000/svg">
<path d="M11.1139 9C11.3621 8.56984 11.215 8.01992 10.7851 7.7712L8.1679 6.2604C8.07514 6.20648 8.01807 6.10729 8.01807 6C8.01807 5.89271 8.07514 5.79352 8.1679 5.7396L10.7851 4.2288C11.2159 3.98027 11.3636 3.42958 11.1151 2.9988C10.8666 2.56802 10.3159 2.42027 9.8851 2.6688L7.2679 4.182C7.17498 4.23564 7.0605 4.23559 6.96764 4.18185C6.87478 4.12812 6.81769 4.02889 6.8179 3.9216V0.9C6.8179 0.402944 6.41495 0 5.9179 0C5.42084 0 5.0179 0.402944 5.0179 0.9V3.9216C5.01811 4.02889 4.96101 4.12812 4.86815 4.18185C4.77529 4.23559 4.66081 4.23564 4.5679 4.182L1.9507 2.6712C1.51992 2.42267 0.969225 2.57042 0.720697 3.0012C0.472169 3.43198 0.619915 3.98267 1.0507 4.2312L3.6679 5.7396C3.76065 5.79352 3.81773 5.89271 3.81773 6C3.81773 6.10729 3.76065 6.20648 3.6679 6.2604L1.0507 7.7712C0.697121 7.97473 0.524674 8.39064 0.630494 8.78464C0.736313 9.17865 1.09393 9.4522 1.5019 9.4512C1.65951 9.45185 1.81444 9.41042 1.9507 9.3312L4.5679 7.818C4.66081 7.76436 4.77529 7.76441 4.86815 7.81815C4.96101 7.87188 5.01811 7.97111 5.0179 8.0784V11.1C5.0179 11.5971 5.42084 12 5.9179 12C6.41495 12 6.8179 11.5971 6.8179 11.1V8.0784C6.81769 7.97111 6.87478 7.87188 6.96764 7.81815C7.0605 7.76441 7.17498 7.76436 7.2679 7.818L9.8851 9.3288C10.0214 9.40802 10.1763 9.44945 10.3339 9.4488C10.6555 9.4495 10.9529 9.27836 11.1139 9Z" fill="#51BCAB"/>
</svg>
