<svg width="16" height="16" viewBox="0 0 16 16" fill="none" xmlns="http://www.w3.org/2000/svg">
<path fill-rule="evenodd" clip-rule="evenodd" d="M10.9746 1.53174C10.716 1.43476 10.4278 1.56574 10.3308 1.8243C10.2338 2.08285 10.3648 2.37106 10.6234 2.46804L11.2949 2.71992L2.7931 6.58716C2.54174 6.7015 2.43066 6.99796 2.545 7.24932C2.65933 7.50068 2.95579 7.61175 3.20715 7.49742L11.7079 3.63064L11.4564 4.3011C11.3594 4.55965 11.4904 4.84786 11.749 4.94484C12.0075 5.04182 12.2957 4.91084 12.3927 4.65229L13.0683 2.85109C13.0786 2.82361 13.0864 2.79548 13.0917 2.76702C13.1069 2.686 13.1022 2.60058 13.0748 2.51827C13.0692 2.50146 13.0628 2.48489 13.0554 2.46862C13.0484 2.45324 13.0406 2.43829 13.0322 2.42382C12.9829 2.33889 12.9113 2.27314 12.8285 2.23068C12.8115 2.22194 12.7939 2.21413 12.7758 2.20734L10.9746 1.53174ZM3.09961 9.19989C3.09961 8.92375 3.32347 8.69989 3.59961 8.69989H5.99961C6.27575 8.69989 6.49961 8.92375 6.49961 9.19989V12.7999C6.49961 13.076 6.27575 13.2999 5.99961 13.2999H3.59961C3.32347 13.2999 3.09961 13.076 3.09961 12.7999V9.19989ZM4.09961 9.69989V12.2999H5.49961V9.69989H4.09961ZM8.40039 6.29989C8.12425 6.29989 7.90039 6.52375 7.90039 6.79989V12.7999C7.90039 13.076 8.12425 13.2999 8.40039 13.2999H10.8004C11.0765 13.2999 11.3004 13.076 11.3004 12.7999V6.79989C11.3004 6.52375 11.0765 6.29989 10.8004 6.29989H8.40039ZM8.90039 12.2999V7.29989H10.3004V12.2999H8.90039Z" fill="#5C5C5C"/>
</svg>
