<svg width="12" height="12" viewBox="0 0 12 12" fill="none" xmlns="http://www.w3.org/2000/svg">
<path d="M4.90033 10.6425C4.56446 10.6425 4.28458 10.5088 4.06067 10.2416L1.26544 6.8559C1.16793 6.74395 1.09931 6.63561 1.05959 6.53088C1.01986 6.42615 1 6.3178 1 6.20585C1 5.94944 1.08487 5.73817 1.2546 5.57205C1.42795 5.40231 1.64464 5.31744 1.90466 5.31744C2.19357 5.31744 2.43373 5.43481 2.62514 5.66956L4.87866 8.45937L9.30444 1.46587C9.4164 1.29614 9.53196 1.17696 9.65114 1.10834C9.77393 1.03611 9.9238 1 10.1008 1C10.3608 1 10.5757 1.08306 10.7454 1.24919C10.9151 1.41531 11 1.62477 11 1.87757C11 1.97147 10.9837 2.06898 10.9512 2.1701C10.9187 2.27122 10.8682 2.37595 10.7996 2.48429L5.75623 10.2037C5.5576 10.4962 5.2723 10.6425 4.90033 10.6425Z" fill="white"/>
</svg>
