<svg width="17" height="16" viewBox="0 0 17 16" fill="none" xmlns="http://www.w3.org/2000/svg">
<g id="XS / Chevron-Left">
<path id="&#244;&#128;&#134;&#137;" d="M4.5 8C4.50429 7.83406 4.53649 7.68341 4.5966 7.54804C4.6567 7.4083 4.75115 7.27293 4.87994 7.14192L9.74839 2.29476C9.94588 2.09825 10.1841 2 10.4632 2C10.6521 2 10.8238 2.04803 10.9784 2.1441C11.1372 2.23581 11.2639 2.36026 11.3583 2.51747C11.4528 2.67467 11.5 2.84934 11.5 3.04148C11.5 3.33406 11.3884 3.58952 11.1651 3.80786L6.92134 7.99345L11.1651 12.1856C11.3884 12.4127 11.5 12.6703 11.5 12.9585C11.5 13.1507 11.4528 13.3253 11.3583 13.4825C11.2639 13.6397 11.1372 13.7642 10.9784 13.8559C10.8238 13.952 10.6521 14 10.4632 14C10.1841 14 9.94588 13.8996 9.74839 13.6987L4.87994 8.85153C4.74686 8.72052 4.65026 8.58734 4.59016 8.45197C4.53005 8.31223 4.5 8.16157 4.5 8Z" fill="black"/>
</g>
</svg>
