<svg width="16" height="16" viewBox="0 0 16 16" fill="none" xmlns="http://www.w3.org/2000/svg">
<path d="M3.5 7.41551V5.49951C3.5 4.94723 3.94772 4.49951 4.5 4.49951H6.277C6.105 4.20551 6 3.86651 6 3.49951C6 2.39551 6.896 1.49951 8 1.49951C9.104 1.49951 10 2.39551 10 3.49951C10 3.86651 9.895 4.20551 9.723 4.49951H11.5C12.0523 4.49951 12.5 4.94723 12.5 5.49951V7.27751" stroke="#757575" stroke-linecap="round" stroke-linejoin="round"/>
<path d="M3.5 7.27749C3.795 7.10549 4.134 7.00049 4.5 7.00049C5.604 7.00049 6.5 7.89549 6.5 9.00049C6.5 10.1045 5.604 11.0005 4.5 11.0005C4.134 11.0005 3.795 10.8945 3.5 10.7225V12.5005C3.5 13.0528 3.94772 13.5005 4.5 13.5005H11.5C12.0523 13.5005 12.5 13.0528 12.5 12.5005V10.7225" stroke="#757575" stroke-linecap="round" stroke-linejoin="round"/>
<path d="M12.5 7.27749C12.205 7.10549 11.866 7.00049 11.5 7.00049C10.396 7.00049 9.5 7.89549 9.5 9.00049C9.5 10.1045 10.396 11.0005 11.5 11.0005C11.866 11.0005 12.205 10.8945 12.5 10.7225" stroke="#757575" stroke-linecap="round"/>
</svg>
