<svg width="16" height="16" viewBox="0 0 16 16" fill="none" xmlns="http://www.w3.org/2000/svg">
<path fill-rule="evenodd" clip-rule="evenodd" d="M7.45312 4.21144C7.27449 4.19175 7.09297 4.18164 6.90909 4.18164C4.19787 4.18164 2 6.37952 2 9.09073C2 11.8019 4.19787 13.9998 6.90909 13.9998C7.09297 13.9998 7.27449 13.9897 7.45312 13.97V12.8705C7.27543 12.8958 7.09379 12.9089 6.90909 12.9089C4.80037 12.9089 3.09091 11.1995 3.09091 9.09073C3.09091 6.98201 4.80037 5.27255 6.90909 5.27255C7.09379 5.27255 7.27543 5.28566 7.45312 5.31101V4.21144Z" fill="#757575"/>
<path fill-rule="evenodd" clip-rule="evenodd" d="M8.54492 11.7883C8.72418 11.8082 8.90636 11.8184 9.09091 11.8184C11.8021 11.8184 14 9.62048 14 6.90927C14 4.19805 11.8021 2.00018 9.09091 2.00018C8.90636 2.00018 8.72419 2.01036 8.54492 2.0302L8.54492 3.12983C8.72324 3.1043 8.90553 3.09109 9.09091 3.09109C11.1996 3.09109 12.9091 4.80054 12.9091 6.90927C12.9091 9.01799 11.1996 10.7275 9.09091 10.7274C8.90553 10.7274 8.72324 10.7142 8.54492 10.6887L8.54492 11.7883Z" fill="#757575"/>
</svg>
