<svg width="16" height="16" viewBox="0 0 16 16" fill="none" xmlns="http://www.w3.org/2000/svg">
<path fill-rule="evenodd" clip-rule="evenodd" d="M4.29904 6.21717C5.39264 5.46824 6.80212 5.35776 7.99904 5.92717V5.92717C9.19597 5.35776 10.6054 5.46824 11.699 6.21717C12.9082 7.10967 14.4157 10.3255 10.3115 13.6455C9.34154 14.4297 7.99904 13.2605 7.99904 13.2605C7.99904 13.2605 6.65654 14.4272 5.68654 13.6455C1.58238 10.3255 3.08988 7.10967 4.29904 6.21717Z" stroke="#757575" stroke-linecap="round" stroke-linejoin="round"/>
<path d="M7.035 2.26158C6.39855 1.80502 5.62072 1.58915 4.84 1.65241C4.9075 2.43268 5.24942 3.16375 5.805 3.71574C6.44168 4.17184 7.21933 4.38766 8 4.32491C7.93264 3.54461 7.5907 2.81349 7.035 2.26158Z" fill="#757575"/>
</svg>
