<svg width="16" height="16" viewBox="0 0 16 16" fill="none" xmlns="http://www.w3.org/2000/svg">
<path fill-rule="evenodd" clip-rule="evenodd" d="M1.33203 8.00016C1.33203 4.31826 4.3168 1.3335 7.9987 1.3335C9.76681 1.3335 11.4625 2.03588 12.7127 3.28612C13.963 4.53636 14.6654 6.23205 14.6654 8.00016C14.6654 9.76827 13.963 11.464 12.7127 12.7142C11.4625 13.9644 9.76681 14.6668 7.9987 14.6668C6.23059 14.6668 4.5349 13.9644 3.28465 12.7142C2.03441 11.464 1.33203 9.76827 1.33203 8.00016ZM8.66536 10.6668V12.0002H7.33203V10.6668H8.66536ZM7.9974 13.3335C5.0574 13.3335 2.66406 10.9402 2.66406 8.0002C2.66406 5.0602 5.0574 2.66687 7.9974 2.66687C10.9374 2.66687 13.3307 5.0602 13.3307 8.0002C13.3307 10.9402 10.9374 13.3335 7.9974 13.3335ZM5.33203 6.66683C5.33203 5.19407 6.52594 4.00016 7.9987 4.00016C9.47146 4.00016 10.6654 5.19407 10.6654 6.66683C10.6654 7.52211 10.1387 7.98238 9.62587 8.43052C9.13938 8.85567 8.66536 9.26991 8.66536 10.0002H7.33203C7.33203 8.78598 7.96011 8.30456 8.51233 7.88128C8.94552 7.54923 9.33203 7.25297 9.33203 6.66683C9.33203 5.93045 8.73508 5.3335 7.9987 5.3335C7.26232 5.3335 6.66536 5.93045 6.66536 6.66683H5.33203Z" fill="white"/>
</svg>
