<svg width="12" height="12" viewBox="0 0 12 12" fill="none" xmlns="http://www.w3.org/2000/svg">
<path d="M10.7076 1.29243C10.3175 0.902522 9.6853 0.902522 9.29528 1.29243L6.00626 4.58145L2.71724 1.29243C2.32533 0.913918 1.70238 0.919332 1.31711 1.3046C0.931843 1.68987 0.92643 2.31282 1.30494 2.70472L4.59396 5.99374L1.30494 9.28276C1.0453 9.53354 0.941172 9.90489 1.03258 10.2541C1.12398 10.6033 1.3967 10.876 1.7459 10.9674C2.09511 11.0588 2.46646 10.9547 2.71724 10.6951L6.00626 7.40604L9.29528 10.6951C9.68718 11.0736 10.3101 11.0682 10.6954 10.6829C11.0807 10.2976 11.0861 9.67467 10.7076 9.28276L7.41855 5.99374L10.7076 2.70472C11.0975 2.3147 11.0975 1.68246 10.7076 1.29243Z" fill="#9F6405"/>
</svg>
