<svg width="16" height="16" viewBox="0 0 16 16" fill="none" xmlns="http://www.w3.org/2000/svg">
<path fill-rule="evenodd" clip-rule="evenodd" d="M8.00039 0C4.91239 0 2.40039 2.512 2.40039 5.6C2.40039 7.504 3.35239 9.176 4.80039 10.192V12C4.80039 12.44 5.16039 12.8 5.60039 12.8H10.4004C10.8404 12.8 11.2004 12.44 11.2004 12V10.192C12.6484 9.176 13.6004 7.504 13.6004 5.6C13.6004 2.512 11.0884 0 8.00039 0ZM5.59961 15.2C5.59961 15.64 5.95961 16 6.39961 16H9.59961C10.0396 16 10.3996 15.64 10.3996 15.2V14.4H5.59961V15.2ZM9.6 9.36001L10.28 8.88001C11.36 8.12801 12 6.90401 12 5.60001C12 3.39201 10.208 1.60001 8 1.60001C5.792 1.60001 4 3.39201 4 5.60001C4 6.90401 4.64 8.12801 5.72 8.88001L6.4 9.36001V11.2H9.6V9.36001Z" fill="#5C5C5C"/>
</svg>
