<svg width="16" height="16" viewBox="0 0 16 16" fill="none" xmlns="http://www.w3.org/2000/svg">
<path fill-rule="evenodd" clip-rule="evenodd" d="M14.2881 9.62133C14.8888 5.02415 11.0847 1.12654 6.47978 1.72617C4.47764 0.426965 1.97496 -0.7723 0.573457 0.626843C-0.427615 1.62623 -0.0271863 3.52507 1.07399 5.4239C0.573457 6.42329 0.273135 7.52262 0.273135 8.72188C0.273135 12.6195 3.47657 15.7176 7.28064 15.7176C8.48193 15.7176 9.58311 15.4178 10.5842 14.9181C12.0858 15.7176 14.188 16.617 15.3893 15.4178C16.4905 14.3185 16.0901 12.4196 14.2881 9.62133ZM12.3861 8.72188C12.3861 10.221 11.6854 11.6201 10.5842 12.5196C8.0815 10.8206 5.17839 8.02231 3.47657 5.4239C4.37753 4.32458 5.77903 3.62501 7.28064 3.62501C10.0836 3.62501 12.3861 5.9236 12.3861 8.72188ZM3.8773 2.52567C2.67601 2.02598 2.07537 1.92604 1.97526 2.02598C1.89046 2.1953 2.02117 2.57977 2.24569 3.24016L2.24569 3.24016L2.24569 3.24016L2.2457 3.24018C2.28621 3.35935 2.32978 3.4875 2.37569 3.625C2.87622 3.22524 3.37676 2.82549 3.8773 2.52567ZM2.47407 7.42267C4.17589 9.72126 6.27815 11.82 8.58061 13.5189C4.87664 14.5183 1.473 11.1204 2.47407 7.42267ZM12.3867 13.519C13.2877 13.9187 13.8883 14.0186 14.0885 13.9187C14.0885 13.9187 14.0885 13.3191 13.4879 12.1198C13.1876 12.6195 12.7871 13.1192 12.3867 13.519Z" fill="black"/>
</svg>
