<svg width="16" height="17" viewBox="0 0 16 17" fill="none" xmlns="http://www.w3.org/2000/svg">
<path fill-rule="evenodd" clip-rule="evenodd" d="M3.33235 12.3798C3.04835 12.0208 2.70335 11.2868 2.08935 10.3958C1.74135 9.89183 0.87835 8.94283 0.62135 8.46083C0.39835 8.03483 0.42235 7.84383 0.47535 7.49083C0.56935 6.86283 1.21335 6.37383 1.90035 6.43983C2.41935 6.48883 2.85935 6.83183 3.25535 7.15583C3.49435 7.35083 3.78835 7.72983 3.96535 7.94383C4.12835 8.13983 4.16835 8.22083 4.34235 8.45283C4.57235 8.75983 4.64435 8.91183 4.55635 8.57383C4.48535 8.07783 4.36935 7.23083 4.20135 6.48183C4.07335 5.91383 4.04235 5.82483 3.92035 5.38883C3.79135 4.92483 3.72535 4.59983 3.60435 4.10783C3.52035 3.75983 3.36935 3.04883 3.32835 2.64883C3.27135 2.10183 3.24135 1.20983 3.59235 0.799827C3.86735 0.478827 4.49835 0.381827 4.88935 0.579827C5.40135 0.838827 5.69235 1.58283 5.82535 1.87983C6.06435 2.41383 6.21235 3.03083 6.34135 3.84083C6.50535 4.87183 6.80735 6.30283 6.81735 6.60383C6.84135 6.23483 6.74935 5.45783 6.81335 5.10383C6.87135 4.78283 7.14135 4.40983 7.47935 4.30883C7.76535 4.22383 8.10035 4.19283 8.39535 4.25383C8.70835 4.31783 9.03835 4.54183 9.16135 4.75283C9.52335 5.37683 9.53035 6.65183 9.54535 6.58383C9.63135 6.20783 9.61635 5.35483 9.82935 4.99983C9.96935 4.76583 10.3264 4.55483 10.5163 4.52083C10.8103 4.46883 11.1714 4.45283 11.4804 4.51283C11.7294 4.56183 12.0663 4.85783 12.1573 4.99983C12.3753 5.34383 12.4994 6.31683 12.5364 6.65783C12.5514 6.79883 12.6104 6.26583 12.8294 5.92183C13.2354 5.28283 14.6723 5.15883 14.7274 6.56083C14.7523 7.21483 14.7473 7.18483 14.7473 7.62483C14.7473 8.14183 14.7353 8.45283 14.7073 8.82683C14.6763 9.22683 14.5904 10.1308 14.4654 10.5688C14.3793 10.8698 14.0943 11.5468 13.8133 11.9528C13.8133 11.9528 12.7393 13.2028 12.6223 13.7658C12.5043 14.3278 12.5434 14.3318 12.5204 14.7308C12.4974 15.1288 12.6413 15.6528 12.6413 15.6528C12.6413 15.6528 11.8393 15.7568 11.4073 15.6878C11.0163 15.6248 10.5323 14.8468 10.4073 14.6088C10.2353 14.2808 9.86835 14.3438 9.72535 14.5858C9.50035 14.9688 9.01635 15.6558 8.67435 15.6988C8.00635 15.7828 6.62035 15.7298 5.53535 15.7188C5.53535 15.7188 5.72035 14.7078 5.30835 14.3608C5.00335 14.1018 4.47835 13.5768 4.16435 13.3008L3.33235 12.3798Z" fill="white"/>
<path fill-rule="evenodd" clip-rule="evenodd" d="M3.33235 12.3798C3.04835 12.0208 2.70335 11.2868 2.08935 10.3958C1.74135 9.89183 0.87835 8.94283 0.62135 8.46083C0.39835 8.03483 0.42235 7.84383 0.47535 7.49083C0.56935 6.86283 1.21335 6.37383 1.90035 6.43983C2.41935 6.48883 2.85935 6.83183 3.25535 7.15583C3.49435 7.35083 3.78835 7.72983 3.96535 7.94383C4.12835 8.13983 4.16835 8.22083 4.34235 8.45283C4.57235 8.75983 4.64435 8.91183 4.55635 8.57383C4.48535 8.07783 4.36935 7.23083 4.20135 6.48183C4.07335 5.91383 4.04235 5.82483 3.92035 5.38883C3.79135 4.92483 3.72535 4.59983 3.60435 4.10783C3.52035 3.75983 3.36935 3.04883 3.32835 2.64883C3.27135 2.10183 3.24135 1.20983 3.59235 0.799827C3.86735 0.478827 4.49835 0.381827 4.88935 0.579827C5.40135 0.838827 5.69235 1.58283 5.82535 1.87983C6.06435 2.41383 6.21235 3.03083 6.34135 3.84083C6.50535 4.87183 6.80735 6.30283 6.81735 6.60383C6.84135 6.23483 6.74935 5.45783 6.81335 5.10383C6.87135 4.78283 7.14135 4.40983 7.47935 4.30883C7.76535 4.22383 8.10035 4.19283 8.39535 4.25383C8.70835 4.31783 9.03835 4.54183 9.16135 4.75283C9.52335 5.37683 9.53035 6.65183 9.54535 6.58383C9.63135 6.20783 9.61635 5.35483 9.82935 4.99983C9.96935 4.76583 10.3263 4.55483 10.5163 4.52083C10.8103 4.46883 11.1714 4.45283 11.4804 4.51283C11.7294 4.56183 12.0663 4.85783 12.1573 4.99983C12.3753 5.34383 12.4994 6.31683 12.5364 6.65783C12.5514 6.79883 12.6104 6.26583 12.8294 5.92183C13.2354 5.28283 14.6724 5.15883 14.7274 6.56083C14.7524 7.21483 14.7473 7.18483 14.7473 7.62483C14.7473 8.14183 14.7353 8.45283 14.7073 8.82683C14.6763 9.22683 14.5904 10.1308 14.4654 10.5688C14.3794 10.8698 14.0943 11.5468 13.8133 11.9528C13.8133 11.9528 12.7393 13.2028 12.6223 13.7658C12.5043 14.3278 12.5434 14.3318 12.5204 14.7308C12.4974 15.1288 12.6413 15.6528 12.6413 15.6528C12.6413 15.6528 11.8393 15.7568 11.4073 15.6878C11.0163 15.6248 10.5323 14.8468 10.4073 14.6088C10.2353 14.2808 9.86835 14.3438 9.72535 14.5858C9.50035 14.9688 9.01635 15.6558 8.67435 15.6988C8.00635 15.7828 6.62035 15.7298 5.53535 15.7188C5.53535 15.7188 5.72035 14.7078 5.30835 14.3608C5.00335 14.1018 4.47835 13.5768 4.16435 13.3008L3.33235 12.3798V12.3798Z" stroke="black" stroke-width="0.75" stroke-linecap="round" stroke-linejoin="round"/>
<path d="M11.5664 12.7344V9.27539" stroke="black" stroke-width="0.75" stroke-linecap="round"/>
<path d="M9.55116 12.7462L9.53516 9.27319" stroke="black" stroke-width="0.75" stroke-linecap="round"/>
<path d="M7.55469 9.30469L7.57569 12.7307" stroke="black" stroke-width="0.75" stroke-linecap="round"/>
</svg>
