<svg width="14" height="12" viewBox="0 0 14 12" fill="none" xmlns="http://www.w3.org/2000/svg">
<path fill-rule="evenodd" clip-rule="evenodd" d="M9.82923 0C10.2208 0 10.5961 0.156607 10.8715 0.434931L13.1263 2.71349C13.6758 3.26871 13.6935 4.15717 13.1667 4.73389L7.85787 10.5457C7.27643 11.1822 6.27398 11.1822 5.69254 10.5457L0.383702 4.73389C-0.143115 4.15717 -0.12536 3.26871 0.424076 2.71349L2.6789 0.434931C2.95432 0.156607 3.32962 0 3.72119 0H6.77521H9.82923ZM11.355 2.84273L9.91194 1.38451C9.89008 1.36243 9.8603 1.35 9.82923 1.35H8.76784L9.58864 2.83522L9.59277 2.84273H11.355ZM7.62529 1.35H6.77521H5.92352L5.09857 2.84273H8.45024L7.62529 1.35ZM4.78097 1.35H3.72119C3.69012 1.35 3.66033 1.36243 3.63848 1.38451L2.19545 2.84273H3.95604L3.96017 2.83522L4.78097 1.35ZM12.1523 3.84273H9.83317C9.82631 4.08212 9.77572 4.32108 9.68073 4.54739L8.12667 8.24975L12.1523 3.84273ZM5.42078 8.2465L3.86809 4.54739C3.77309 4.32108 3.7225 4.08212 3.71564 3.84273H1.3981L5.42078 8.2465ZM8.75866 4.16036L6.77441 8.8876L4.79015 4.16036C4.74726 4.05818 4.72279 3.95075 4.71648 3.84273H8.83233C8.82602 3.95075 8.80155 4.05818 8.75866 4.16036Z" fill="#C38D33"/>
</svg>
