<svg width="16" height="16" viewBox="0 0 16 16" fill="none" xmlns="http://www.w3.org/2000/svg">
<path d="M12.7076 3.29243C12.3175 2.90252 11.6853 2.90252 11.2953 3.29243L8.00626 6.58145L4.71724 3.29243C4.32533 2.91392 3.70238 2.91933 3.31711 3.3046C2.93184 3.68987 2.92643 4.31282 3.30494 4.70472L6.59396 7.99374L3.30494 11.2828C3.0453 11.5335 2.94117 11.9049 3.03258 12.2541C3.12398 12.6033 3.3967 12.876 3.7459 12.9674C4.09511 13.0588 4.46646 12.9547 4.71724 12.6951L8.00626 9.40604L11.2953 12.6951C11.6872 13.0736 12.3101 13.0682 12.6954 12.6829C13.0807 12.2976 13.0861 11.6747 12.7076 11.2828L9.41855 7.99374L12.7076 4.70472C13.0975 4.3147 13.0975 3.68246 12.7076 3.29243Z" fill="#757575"/>
</svg>
