<svg width="16" height="16" viewBox="0 0 16 16" fill="none" xmlns="http://www.w3.org/2000/svg">
<path d="M13.892 9.71168C13.892 10.5807 13.7113 11.336 13.3498 11.9777C12.9925 12.6234 12.4828 13.1208 11.8209 13.4701C11.159 13.8233 10.3752 14 9.46965 14H7.91025C7.65442 14 7.44122 13.9127 7.27066 13.7381C7.1001 13.5675 7.01482 13.3604 7.01482 13.1168C7.01482 12.8731 7.1001 12.664 7.27066 12.4893C7.44122 12.3188 7.65442 12.2335 7.91025 12.2335H9.36C9.94477 12.2335 10.4463 12.1239 10.8646 11.9046C11.2828 11.6853 11.6037 11.3848 11.827 11.003C12.0504 10.6173 12.162 10.1746 12.162 9.67513C12.162 9.1797 12.0504 8.74112 11.827 8.35939C11.6037 7.9736 11.2828 7.6731 10.8646 7.45787C10.4463 7.23858 9.94477 7.12893 9.36 7.12893H6.01584L3.68284 7.02538L4.01787 6.55025L5.56508 7.82944L6.79553 9.02335C6.87675 9.10457 6.94376 9.19594 6.99655 9.29746C7.04934 9.39492 7.07574 9.51269 7.07574 9.65076C7.07574 9.89036 6.99655 10.0914 6.83817 10.2538C6.6798 10.4122 6.47269 10.4914 6.21685 10.4914C5.97726 10.4914 5.76609 10.4 5.58335 10.2173L2.227 6.89746C2.14173 6.81624 2.07472 6.71878 2.02599 6.60508C1.98132 6.48731 1.95898 6.36751 1.95898 6.24569C1.95898 6.12792 1.98132 6.01015 2.02599 5.89239C2.07472 5.77462 2.14173 5.67513 2.227 5.59391L5.58335 2.27411C5.76609 2.09137 5.97726 2 6.21685 2C6.47269 2 6.6798 2.07919 6.83817 2.23756C6.99655 2.39594 7.07574 2.59695 7.07574 2.84061C7.07574 2.97462 7.04934 3.09239 6.99655 3.19391C6.94376 3.29543 6.87675 3.3868 6.79553 3.46802L5.56508 4.66802L4.01787 5.94112L3.68284 5.47208L6.01584 5.36244H9.41482C10.3285 5.36244 11.1204 5.54721 11.7905 5.91675C12.4646 6.28223 12.9823 6.79188 13.3438 7.44569C13.7092 8.09543 13.892 8.85076 13.892 9.71168Z" fill="black"/>
</svg>
