<svg width="16" height="16" viewBox="0 0 16 16" fill="none" xmlns="http://www.w3.org/2000/svg">
<path fill-rule="evenodd" clip-rule="evenodd" d="M5.48757 11.7655L7.91714 9.9806L10.3422 11.7657L9.37877 8.91395L11.8367 7.15139L8.82842 7.1755L7.91486 4.29466L6.99648 7.17548L3.99306 7.15142L6.44611 8.91394L5.48757 11.7655ZM1.21238 6.81188C1.11813 6.62337 1.10634 6.42897 1.17704 6.22868C1.2438 6.03232 1.36751 5.88701 1.54817 5.79275C1.73275 5.69457 1.96249 5.64744 2.2374 5.65137L5.91335 5.68082L7.03263 2.16983C7.11903 1.89884 7.23488 1.69266 7.38019 1.55128C7.52943 1.40597 7.70812 1.33331 7.91627 1.33331C8.12441 1.33331 8.30114 1.40597 8.44645 1.55128C8.59569 1.69266 8.71351 1.89884 8.79991 2.16983L9.91329 5.68082L13.5892 5.65137C13.8681 5.64744 14.0978 5.69457 14.2785 5.79275C14.4631 5.88701 14.5887 6.03428 14.6555 6.23457C14.7223 6.43486 14.7085 6.6273 14.6143 6.81188C14.5239 6.99647 14.3649 7.16927 14.1371 7.33029L11.1386 9.48048L12.3168 12.9679C12.4071 13.231 12.4346 13.4647 12.3993 13.6689C12.3639 13.8732 12.2618 14.0381 12.0929 14.1638C11.9241 14.2934 11.7375 14.3405 11.5333 14.3052C11.3291 14.2737 11.1131 14.1756 10.8853 14.0106L7.91627 11.8251L4.94134 14.0106C4.71749 14.1756 4.50149 14.2737 4.29334 14.3052C4.08912 14.3405 3.90258 14.2934 3.7337 14.1638C3.56876 14.0381 3.46861 13.8732 3.43326 13.6689C3.39792 13.4647 3.42541 13.231 3.51574 12.9679L4.68803 9.48048L1.69544 7.33029C1.46766 7.16927 1.30664 6.99647 1.21238 6.81188Z" fill="#06806B"/>
</svg>
