<svg width="17" height="16" viewBox="0 0 17 16" fill="none" xmlns="http://www.w3.org/2000/svg">
<path fill-rule="evenodd" clip-rule="evenodd" d="M5.82213 11.7656L8.2517 9.98067L10.6768 11.7658L9.71334 8.91401L12.1713 7.15145L9.16298 7.17556L8.24943 4.29472L7.33104 7.17555L4.32763 7.15148L6.78068 8.91401L5.82213 11.7656ZM1.54695 6.81194C1.45269 6.62344 1.44091 6.42903 1.5116 6.22874C1.57836 6.03238 1.70207 5.88707 1.88273 5.79281C2.06731 5.69463 2.29706 5.6475 2.57197 5.65143L6.24791 5.68089L7.36719 2.16989C7.45359 1.8989 7.56945 1.69272 7.71476 1.55134C7.86399 1.40603 8.04269 1.33337 8.25083 1.33337C8.45898 1.33337 8.63571 1.40603 8.78102 1.55134C8.93025 1.69272 9.04807 1.8989 9.13447 2.16989L10.2479 5.68089L13.9238 5.65143C14.2026 5.6475 14.4324 5.69463 14.613 5.79281C14.7976 5.88707 14.9233 6.03434 14.9901 6.23463C15.0568 6.43493 15.0431 6.62736 14.9488 6.81194C14.8585 6.99653 14.6994 7.16933 14.4717 7.33035L11.4732 9.48054L12.6514 12.968C12.7417 13.2311 12.7692 13.4648 12.7338 13.669C12.6985 13.8732 12.5964 14.0382 12.4275 14.1638C12.2586 14.2934 12.0721 14.3406 11.8679 14.3052C11.6636 14.2738 11.4476 14.1756 11.2199 14.0107L8.25083 11.8251L5.27591 14.0107C5.05205 14.1756 4.83605 14.2738 4.62791 14.3052C4.42369 14.3406 4.23714 14.2934 4.06827 14.1638C3.90332 14.0382 3.80317 13.8732 3.76783 13.669C3.73248 13.4648 3.75997 13.2311 3.8503 12.968L5.0226 9.48054L2.03 7.33035C1.80222 7.16933 1.6412 6.99653 1.54695 6.81194Z" fill="#373737"/>
<path fill-rule="evenodd" clip-rule="evenodd" d="M5.82213 11.7656L8.2517 9.98067L10.6768 11.7658L9.71334 8.91401L12.1713 7.15145L9.16298 7.17556L8.24943 4.29472L7.33104 7.17555L4.32763 7.15148L6.78068 8.91401L5.82213 11.7656ZM1.54695 6.81194C1.45269 6.62344 1.44091 6.42903 1.5116 6.22874C1.57836 6.03238 1.70207 5.88707 1.88273 5.79281C2.06731 5.69463 2.29706 5.6475 2.57197 5.65143L6.24791 5.68089L7.36719 2.16989C7.45359 1.8989 7.56945 1.69272 7.71476 1.55134C7.86399 1.40603 8.04269 1.33337 8.25083 1.33337C8.45898 1.33337 8.63571 1.40603 8.78102 1.55134C8.93025 1.69272 9.04807 1.8989 9.13447 2.16989L10.2479 5.68089L13.9238 5.65143C14.2026 5.6475 14.4324 5.69463 14.613 5.79281C14.7976 5.88707 14.9233 6.03434 14.9901 6.23463C15.0568 6.43493 15.0431 6.62736 14.9488 6.81194C14.8585 6.99653 14.6994 7.16933 14.4717 7.33035L11.4732 9.48054L12.6514 12.968C12.7417 13.2311 12.7692 13.4648 12.7338 13.669C12.6985 13.8732 12.5964 14.0382 12.4275 14.1638C12.2586 14.2934 12.0721 14.3406 11.8679 14.3052C11.6636 14.2738 11.4476 14.1756 11.2199 14.0107L8.25083 11.8251L5.27591 14.0107C5.05205 14.1756 4.83605 14.2738 4.62791 14.3052C4.42369 14.3406 4.23714 14.2934 4.06827 14.1638C3.90332 14.0382 3.80317 13.8732 3.76783 13.669C3.73248 13.4648 3.75997 13.2311 3.8503 12.968L5.0226 9.48054L2.03 7.33035C1.80222 7.16933 1.6412 6.99653 1.54695 6.81194Z" fill="black" fill-opacity="0.2"/>
</svg>
