<svg width="17" height="16" viewBox="0 0 17 16" fill="none" xmlns="http://www.w3.org/2000/svg">
<path fill-rule="evenodd" clip-rule="evenodd" d="M3.66862 2.00033C3.66862 2.49385 3.40049 2.92474 3.00196 3.15528V14.667C3.00196 15.0352 2.70348 15.3337 2.33529 15.3337C1.9671 15.3337 1.66862 15.0352 1.66862 14.667V3.15529C1.27009 2.92475 1.00195 2.49385 1.00195 2.00033C1.00195 1.26395 1.59891 0.666992 2.33529 0.666992C3.07167 0.666992 3.66862 1.26395 3.66862 2.00033ZM14.9806 3.29753C15.1154 3.23932 15.2502 3.18112 15.385 3.18112C15.5198 3.18112 15.722 3.23932 15.6546 3.53033V8.07001C15.6546 8.41922 15.385 8.82663 15.048 9.00123C14.5087 9.29223 13.9021 9.46684 13.2281 9.46684C12.1497 9.46684 11.0712 9.05943 10.0602 8.65202C9.9338 8.60837 9.80742 8.56381 9.68104 8.51925C8.79638 8.20733 7.91173 7.89541 7.02707 7.89541C6.48785 7.89541 5.94863 8.01181 5.40941 8.30282C5.2746 8.36102 5.1398 8.41922 5.00499 8.41922C4.87019 8.41922 4.66798 8.30282 4.66798 8.07001V3.53033C4.66798 3.18112 4.93759 2.77372 5.2746 2.59911C5.88123 2.30811 6.42045 2.1335 7.09447 2.1335C8.17291 2.1335 9.25135 2.54091 10.3298 2.94832C10.4562 2.99197 10.5826 3.03653 10.7089 3.08109C11.5936 3.39301 12.4782 3.70493 13.3629 3.70493C13.9021 3.70493 14.4413 3.58853 14.9806 3.29753Z" fill="#06806B"/>
</svg>
