<svg width="16" height="16" viewBox="0 0 16 16" fill="none" xmlns="http://www.w3.org/2000/svg">
<path fill-rule="evenodd" clip-rule="evenodd" d="M10.7921 9.26939C11.3201 8.45848 11.6269 7.49037 11.6269 6.45062C11.6269 3.5935 9.3105 1.27734 6.45309 1.27734C3.59569 1.27734 1.2793 3.5935 1.2793 6.45062C1.2793 9.30774 3.59569 11.6239 6.45309 11.6239C7.49222 11.6239 8.4598 11.3176 9.27044 10.7903L12.7758 14.2953C13.1959 14.7154 13.877 14.7154 14.2972 14.2953C14.7173 13.8752 14.7172 13.1941 14.2971 12.774L10.7921 9.26939ZM6.45128 9.47245C4.78212 9.47245 3.42903 8.1195 3.42903 6.45058C3.42903 4.78167 4.78212 3.42871 6.45128 3.42871C8.12045 3.42871 9.47354 4.78167 9.47354 6.45058C9.47354 8.1195 8.12045 9.47245 6.45128 9.47245Z" fill="#06806B"/>
</svg>
