<svg width="16" height="16" viewBox="0 0 16 16" fill="none" xmlns="http://www.w3.org/2000/svg">
<path fill-rule="evenodd" clip-rule="evenodd" d="M14.863 3.3011C15.1176 3.36477 15.245 3.55576 15.3086 3.74675C15.3723 3.93775 15.3086 4.1924 15.054 4.3834L13.1439 6.29333C13.0166 6.42065 12.8892 6.48432 12.6982 6.48432C12.6664 6.48432 12.6346 6.4684 12.6027 6.45249C12.5709 6.43657 12.5391 6.42065 12.5072 6.42065L10.9792 5.91134L9.19648 7.69394C9.45115 8.07593 9.57849 8.52158 9.57849 8.96723C9.57849 10.3678 8.43246 11.5138 7.03176 11.5138C5.63105 11.5138 4.48503 10.3678 4.48503 8.96723C4.48503 7.56661 5.63105 6.42065 7.03176 6.42065C7.47743 6.42065 7.92311 6.54798 8.30512 6.80264L10.1515 4.95638L9.64215 3.42843C9.51482 3.23744 9.57849 2.98278 9.76949 2.79179L11.6795 0.881859C11.8069 0.690866 12.0615 0.627202 12.2526 0.690866C12.4436 0.754531 12.6346 0.945524 12.6982 1.13652L13.0166 2.09148L13.5896 1.5185C13.8443 1.26385 14.2263 1.26385 14.4809 1.5185C14.7356 1.77316 14.7356 2.15515 14.4809 2.4098L13.9079 2.98278L14.863 3.3011ZM12.278 7.60589C12.4607 7.65407 12.6118 7.69393 12.763 7.69393C12.954 7.69393 13.0813 7.69393 13.2723 7.63027C13.336 8.07592 13.3997 8.52157 13.3997 8.96722C13.3997 12.4688 10.5346 15.3337 7.03284 15.3337C3.53109 15.3337 0.666016 12.4688 0.666016 8.96722C0.666016 5.46568 3.53109 2.60079 7.03284 2.60079C7.47852 2.60079 7.9242 2.66445 8.36988 2.72812C8.30621 3.1101 8.30621 3.49209 8.36988 3.81041L8.62455 4.57438L7.98787 5.21103C7.73319 5.14736 7.35118 5.0837 7.03284 5.0837C4.93179 5.0837 3.21275 6.80263 3.21275 8.90356C3.21275 11.0045 4.93179 12.7234 7.03284 12.7234C9.1339 12.7234 10.8529 11.0045 10.8529 8.90356C10.8529 8.58524 10.7893 8.26691 10.7256 7.94859L11.3623 7.31195L12.1263 7.56661C12.1795 7.57989 12.2298 7.59318 12.278 7.60589Z" fill="#06806B"/>
</svg>
