<svg width="17" height="16" viewBox="0 0 17 16" fill="none" xmlns="http://www.w3.org/2000/svg">
<path d="M12.024 8.19804C12.5159 8.19804 12.9374 8.39623 13.2887 8.6605C13.359 8.72656 13.4292 8.72656 13.4995 8.72656C13.5697 8.72656 13.64 8.72656 13.7103 8.6605C13.8508 8.52837 13.921 8.4623 14.0616 8.39623C14.1318 8.33017 14.2021 8.2641 14.2021 8.19804V5.42326C14.2021 4.89473 13.7103 4.43227 13.1482 4.43227H10.3378C10.2676 4.3662 10.2676 4.30014 10.1973 4.23407C10.5486 3.83768 10.6891 3.37521 10.6891 2.84668C10.6891 1.65749 9.63522 0.666504 8.37055 0.666504C7.10588 0.666504 6.05198 1.65749 6.05198 2.91275C6.05198 3.44128 6.26276 3.90374 6.5438 4.30014C6.47354 4.30014 6.47354 4.3662 6.40328 4.43227H3.5929C2.96057 4.43227 2.53901 4.89473 2.53901 5.42326V8.19804C2.53901 8.2641 2.60927 8.39623 2.67953 8.39623C2.82005 8.4623 2.96057 8.52837 3.03083 8.6605C3.10109 8.72656 3.31186 8.72656 3.38212 8.6605C3.73342 8.33017 4.15498 8.19804 4.64679 8.19804C5.63043 8.19804 6.47354 8.99083 6.47354 9.91575C6.47354 10.8407 5.63043 11.6335 4.64679 11.6335C4.15498 11.6335 3.73342 11.4353 3.38212 11.171C3.31186 11.1049 3.2416 11.0389 3.17134 11.0389C3.10109 11.0389 3.03083 11.0389 2.96057 11.1049C2.82005 11.2371 2.74979 11.3031 2.60927 11.3692C2.53901 11.4353 2.46875 11.5013 2.46875 11.5674V14.3422C2.46875 14.8707 2.96057 15.3332 3.52264 15.3332H13.0779C13.64 15.3332 14.1318 14.8707 14.1318 14.3422V11.5674C14.1318 11.5013 14.0616 11.3692 13.9913 11.3692C13.8508 11.3031 13.7805 11.2371 13.64 11.171C13.64 11.1049 13.5697 11.1049 13.4995 11.0389C13.4292 11.0389 13.2887 11.0389 13.2185 11.1049C12.8672 11.4353 12.4456 11.6335 11.9538 11.6335C10.9701 11.6335 10.127 10.8407 10.127 9.91575C10.127 8.99083 11.0404 8.19804 12.024 8.19804" fill="#06806B"/>
</svg>
