<svg width="17" height="16" viewBox="0 0 17 16" fill="none" xmlns="http://www.w3.org/2000/svg">
<path fill-rule="evenodd" clip-rule="evenodd" d="M14.3327 1.95801V10.708C14.3327 10.9033 14.2415 11.0804 14.1009 11.1924C13.9915 11.5934 13.9915 12.7367 14.1009 13.1377C14.2415 13.2523 14.3327 13.4294 14.3327 13.6247V14.0413C14.3327 14.3877 14.054 14.6663 13.7077 14.6663H5.16602C3.78581 14.6663 2.66602 13.5465 2.66602 12.1663V3.83301C2.66602 2.4528 3.78581 1.33301 5.16602 1.33301H13.7077C14.054 1.33301 14.3327 1.61165 14.3327 1.95801ZM5.16601 12.9997H12.5983C12.5488 12.5544 12.5488 11.7783 12.5983 11.333H5.16601C4.70768 11.333 4.33268 11.708 4.33268 12.1663C4.33268 12.6273 4.70508 12.9997 5.16601 12.9997ZM4.66667 2.99984C4.66667 2.81574 4.81591 2.6665 5 2.6665C5.1841 2.6665 5.33334 2.81574 5.33334 2.99984V9.6665C5.33334 9.8506 5.1841 9.99984 5 9.99984C4.81591 9.99984 4.66667 9.8506 4.66667 9.6665V2.99984ZM7.66667 4.6665C7.48257 4.6665 7.33334 4.81574 7.33334 4.99984C7.33334 5.18393 7.48257 5.33317 7.66667 5.33317H11.6667C11.8508 5.33317 12 5.18393 12 4.99984C12 4.81574 11.8508 4.6665 11.6667 4.6665H7.66667Z" fill="#06806B"/>
</svg>
