<svg width="17" height="16" viewBox="0 0 17 16" fill="none" xmlns="http://www.w3.org/2000/svg">
<path fill-rule="evenodd" clip-rule="evenodd" d="M4.28181 1.13909C4.45225 1.6927 4.74628 2.15751 5.16388 2.53352C5.58148 2.90953 6.07448 3.15335 6.64288 3.265L6.64288 3.26498C7.11977 3.35865 7.5823 3.04799 7.67597 2.5711C7.70396 2.42859 7.69625 2.28136 7.65351 2.14256C7.48307 1.58895 7.18904 1.12414 6.77144 0.748132C6.35384 0.372122 5.86084 0.128295 5.29244 0.0166527L5.29244 0.0166652C4.81555 -0.0770039 4.35302 0.233659 4.25935 0.710551C4.23136 0.853062 4.23907 1.00029 4.28181 1.13909ZM7.9591 5.19905L7.96576 5.10832C7.99659 4.70113 8.03297 4.38684 8.08011 4.1796C8.21289 3.59575 8.50749 2.95067 8.82832 2.57384C9.00664 2.3644 9.31861 2.34122 9.52512 2.52208C9.73164 2.70293 9.75449 3.01933 9.57617 3.22877C9.3693 3.47174 9.14182 3.96985 9.0429 4.40482C9.01028 4.54825 8.97809 4.82624 8.95093 5.18504L8.95065 5.18872C9.17293 5.13268 9.40476 5.04836 9.6507 4.95891C10.2926 4.72543 11.0306 4.45701 11.9455 4.56551C13.4639 4.74559 14.4174 6.04851 14.7272 7.76158C15.0371 9.47465 14.337 11.8995 13.4778 13.218C12.6185 14.5364 11.2237 16.0002 10.2343 16.0002C10.1915 16.0002 10.1492 15.9982 10.1077 15.9943C9.52458 15.9399 8.75695 15.9615 8.05251 15.9814H8.05248H8.05245H8.05242C7.71227 15.991 7.38686 16.0002 7.10408 16.0002C6.26253 16.0002 4.43786 14.6635 3.33852 13.0105C2.23918 11.3575 1.74399 9.82472 2.13401 7.86862C2.52403 5.91252 3.53654 4.75719 4.58934 4.56551C5.19329 4.45555 6.08485 4.70378 6.90773 4.93289C7.28388 5.03762 7.64568 5.13835 7.9591 5.19905ZM4.74615 6.65891C4.51448 7.24767 4.40105 7.96836 4.40105 8.82206C4.40105 9.69576 4.67194 10.6776 5.20715 11.7704C5.30506 11.9704 5.55327 12.0562 5.76154 11.9622C5.96981 11.8683 6.05927 11.63 5.96136 11.4301C5.47456 10.4361 5.23445 9.56579 5.23445 8.82206C5.23445 8.05831 5.33316 7.43113 5.52578 6.9416C5.6071 6.73493 5.4985 6.50412 5.28321 6.42606C5.06792 6.348 4.82747 6.45225 4.74615 6.65891Z" fill="#06806B"/>
</svg>
