<svg width="16" height="16" viewBox="0 0 16 16" fill="none" xmlns="http://www.w3.org/2000/svg">
<path fill-rule="evenodd" clip-rule="evenodd" d="M4.09961 5.1C4.09961 6.2598 5.03981 7.2 6.19961 7.2C7.35941 7.2 8.29961 6.2598 8.29961 5.1C8.29961 3.9402 7.35941 3 6.19961 3C5.03981 3 4.09961 3.9402 4.09961 5.1Z" stroke="#5C5C5C" stroke-linecap="round" stroke-linejoin="round"/>
<path fill-rule="evenodd" clip-rule="evenodd" d="M9.79961 13.8V12.6C9.79961 10.6118 8.18783 9 6.19961 9C4.21138 9 2.59961 10.6118 2.59961 12.6V13.8H9.79961Z" stroke="#5C5C5C" stroke-linecap="round" stroke-linejoin="round"/>
<path d="M11.1105 3.45947C11.6536 3.89421 11.9463 4.56956 11.8922 5.26312C11.8382 5.95668 11.4444 6.57853 10.8405 6.92387" stroke="#5C5C5C" stroke-linecap="round" stroke-linejoin="round"/>
<path d="M12.1995 13.8001H13.3995V12.6001C13.3999 11.3354 12.7366 10.1633 11.6523 9.51245" stroke="#5C5C5C" stroke-linecap="round" stroke-linejoin="round"/>
</svg>
