<svg width="16" height="16" viewBox="0 0 16 16" fill="none" xmlns="http://www.w3.org/2000/svg">
<path fill-rule="evenodd" clip-rule="evenodd" d="M5.36948 12.899C5.10634 13.1582 4.75098 13.3022 4.38164 13.2993C4.01231 13.2963 3.65928 13.1467 3.40028 12.8834V12.8834C3.1411 12.6203 2.99712 12.2649 3.00004 11.8956C3.00297 11.5263 3.15256 11.1732 3.41588 10.9142L7.48628 6.81022C7.12813 5.78679 7.30566 4.65205 7.95927 3.78692C8.61289 2.92178 9.65593 2.44094 10.7383 2.50582C10.9236 2.51506 11.086 2.63262 11.1527 2.80574C11.2194 2.97886 11.1779 3.17503 11.0467 3.30622L10.2415 4.09822C9.88671 4.44741 9.74519 4.95934 9.87021 5.44117C9.99524 5.923 10.3678 6.30153 10.8476 6.43417C11.3274 6.56681 11.8415 6.43341 12.1963 6.08422L13.0003 5.29222C13.1331 5.16331 13.3293 5.12453 13.5012 5.19323C13.6731 5.26193 13.7885 5.42526 13.7959 5.61022C13.8427 6.69222 13.3458 7.72607 12.4716 8.36542C11.5974 9.00476 10.4616 9.16507 9.44468 8.79262L5.36948 12.899Z" stroke="#5C5C5C" stroke-linecap="round" stroke-linejoin="round"/>
</svg>
