<svg width="80" height="80" viewBox="0 0 80 80" fill="none" xmlns="http://www.w3.org/2000/svg">
<path fill-rule="evenodd" clip-rule="evenodd" d="M50.5198 4.86481C49.7316 9.96594 45.3218 13.8712 40 13.8712C34.6779 13.8712 30.2679 9.96556 29.4801 4.86408C32.812 3.86804 36.3428 3.33301 39.9987 3.33301C43.6554 3.33301 47.1872 3.86831 50.5198 4.86481ZM57.4036 7.71916C54.3549 11.8835 54.7119 17.7622 58.4747 21.525C62.2373 25.2876 68.1158 25.6447 72.2801 22.5964C68.8808 16.3043 63.6955 11.1188 57.4036 7.71916ZM75.1339 29.4799C70.0313 30.2667 66.1244 34.6772 66.1244 40.0001C66.1244 45.323 70.0311 49.7334 75.1337 50.5204C76.1301 47.1879 76.6654 43.6563 76.6654 39.9997C76.6654 36.3434 76.1302 32.8121 75.1339 29.4799ZM72.2786 57.4058C68.1142 54.3567 62.2351 54.7136 58.4722 58.4765C54.7097 62.239 54.3525 68.1175 57.4008 72.2817C63.693 68.8827 68.8787 63.6976 72.2786 57.4058ZM50.5196 75.1346C49.7311 70.0339 45.3215 66.1291 40 66.1291C34.6782 66.1291 30.2685 70.0343 29.4802 75.1353C32.8121 76.1313 36.3429 76.6663 39.9987 76.6663C43.6554 76.6663 47.1871 76.1311 50.5196 75.1346ZM22.5954 72.2811C25.6438 68.1168 25.2866 62.2383 21.524 58.4757C17.7613 54.7129 11.8825 54.3559 7.71818 57.4046C11.1178 63.6965 16.3033 68.8818 22.5954 72.2811ZM4.86373 50.5204C9.96628 49.7334 13.873 45.323 13.873 40.0001C13.873 34.6772 9.96615 30.2667 4.86346 29.4798C3.8672 32.8121 3.33203 36.3434 3.33203 39.9997C3.33203 43.6563 3.86729 47.1879 4.86373 50.5204ZM7.71729 22.5964C11.8815 25.6438 17.7593 25.2864 21.5216 21.5242C25.284 17.7617 25.6413 11.8836 22.5934 7.71936C16.3016 11.119 11.1165 16.3044 7.71729 22.5964ZM43.3816 20.1086C43.3816 21.9793 41.8652 23.4957 39.9945 23.4957C38.1239 23.4957 36.6074 21.9793 36.6074 20.1086C36.6074 18.238 38.1239 16.7215 39.9945 16.7215C41.8652 16.7215 43.3816 18.238 43.3816 20.1086ZM51.6668 28.3288C52.9896 29.6516 55.1341 29.6516 56.4569 28.3288C57.7796 27.0061 57.7796 24.8615 56.4569 23.5388C55.1341 22.216 52.9896 22.216 51.6668 23.5388C50.3441 24.8615 50.3441 27.0061 51.6668 28.3288ZM59.8935 43.3867C58.0229 43.3867 56.5064 41.8702 56.5064 39.9996C56.5064 38.1289 58.0229 36.6125 59.8935 36.6125C61.7641 36.6125 63.2806 38.1289 63.2806 39.9996C63.2806 41.8702 61.7641 43.3867 59.8935 43.3867ZM51.6684 51.6719C50.3457 52.9946 50.3457 55.1392 51.6684 56.4619C52.9911 57.7847 55.1357 57.7847 56.4585 56.4619C57.7812 55.1392 57.7812 52.9946 56.4585 51.6719C55.1357 50.3491 52.9911 50.3491 51.6684 51.6719ZM43.3816 59.8921C43.3816 61.7628 41.8652 63.2792 39.9945 63.2792C38.1239 63.2792 36.6074 61.7628 36.6074 59.8921C36.6074 58.0215 38.1239 56.505 39.9945 56.505C41.8652 56.505 43.3816 58.0215 43.3816 59.8921ZM23.5353 56.462C24.858 57.7847 27.0026 57.7847 28.3254 56.462C29.6481 55.1392 29.6481 52.9946 28.3254 51.6719C27.0026 50.3491 24.858 50.3491 23.5353 51.6719C22.2126 52.9946 22.2126 55.1392 23.5353 56.462ZM20.1018 43.3867C18.2312 43.3867 16.7147 41.8702 16.7147 39.9996C16.7147 38.1289 18.2312 36.6125 20.1018 36.6125C21.9725 36.6125 23.4889 38.1289 23.4889 39.9996C23.4889 41.8702 21.9725 43.3867 20.1018 43.3867ZM23.5369 23.5387C22.2141 24.8615 22.2141 27.0061 23.5369 28.3288C24.8596 29.6515 27.0042 29.6515 28.327 28.3288C29.6497 27.0061 29.6497 24.8615 28.327 23.5387C27.0042 22.216 24.8596 22.216 23.5369 23.5387Z" fill="#E4060F"/>
</svg>
