<svg width="96" height="96" viewBox="0 0 96 96" fill="none" xmlns="http://www.w3.org/2000/svg">
<path fill-rule="evenodd" clip-rule="evenodd" d="M58.327 11.5031C57.5531 16.5114 53.2235 20.3456 47.9985 20.3456C42.7737 20.3456 38.4444 16.5119 37.6701 11.504C40.9422 10.5256 44.4097 10 48 10C51.5892 10 55.0558 10.5253 58.327 11.5031ZM65.0854 14.3048C62.0921 18.3933 62.4426 24.1653 66.1369 27.8597C69.8316 31.5544 75.6043 31.9046 79.693 28.9104C76.3549 22.7329 71.2634 17.642 65.0854 14.3048ZM82.4962 35.6706C77.4868 36.4436 73.6515 40.7736 73.6515 45.9995C73.6515 51.2254 77.4869 55.5555 82.4965 56.3284C83.4746 53.0568 84 49.5897 84 46C84 42.4099 83.4745 38.9425 82.4962 35.6706ZM79.6933 63.0891C75.6046 60.0949 69.832 60.4452 66.1374 64.1399C62.443 67.8343 62.0925 73.6063 65.086 77.6949C71.2639 74.3576 76.3553 69.2666 79.6933 63.0891ZM58.3272 80.4968C57.5537 75.488 53.2239 71.6533 47.9985 71.6533C42.7734 71.6533 38.4438 75.4876 37.67 80.496C40.9421 81.4744 44.4096 82 48 82C51.5893 82 55.0559 81.4747 58.3272 80.4968ZM30.9113 77.6935C33.904 73.6049 33.5533 67.8335 29.8592 64.1394C26.1652 60.4455 20.3941 60.0946 16.3056 63.0869C19.643 69.2645 24.7339 74.3557 30.9113 77.6935ZM13.5033 56.3277C18.5106 55.5529 22.3438 51.2238 22.3438 45.9995C22.3438 40.7752 18.5108 36.4462 13.5036 35.6713C12.5254 38.943 12 42.4101 12 46C12 49.5895 12.5253 53.0563 13.5033 56.3277ZM16.3062 28.9118C20.3947 31.9039 26.1657 31.553 29.8596 27.8592C33.5534 24.1653 33.9044 18.3944 30.9124 14.3059C24.7349 17.6435 19.6439 22.7344 16.3062 28.9118ZM51.3229 26.4691C51.3229 28.3057 49.834 29.7946 47.9974 29.7946C46.1608 29.7946 44.6719 28.3057 44.6719 26.4691C44.6719 24.6324 46.1608 23.1436 47.9974 23.1436C49.834 23.1436 51.3229 24.6324 51.3229 26.4691ZM59.4571 34.5408C60.7558 35.8395 62.8614 35.8395 64.1601 34.5408C65.4588 33.2421 65.4588 31.1365 64.1601 29.8378C62.8614 28.5391 60.7558 28.5391 59.4571 29.8378C58.1584 31.1365 58.1584 33.2421 59.4571 34.5408ZM67.53 49.3249C65.6933 49.3249 64.2044 47.836 64.2044 45.9993C64.2044 44.1627 65.6933 42.6738 67.53 42.6738C69.3666 42.6738 70.8555 44.1627 70.8555 45.9993C70.8555 47.836 69.3666 49.3249 67.53 49.3249ZM59.4572 57.4581C58.1586 58.7568 58.1586 60.8624 59.4572 62.1611C60.7559 63.4598 62.8615 63.4598 64.1602 62.1611C65.4589 60.8624 65.4589 58.7568 64.1602 57.4581C62.8615 56.1594 60.7559 56.1594 59.4572 57.4581ZM51.3229 65.5306C51.3229 67.3672 49.834 68.8561 47.9974 68.8561C46.1608 68.8561 44.6719 67.3672 44.6719 65.5306C44.6719 63.694 46.1608 62.2051 47.9974 62.2051C49.834 62.2051 51.3229 63.694 51.3229 65.5306ZM31.836 62.1609C33.1347 63.4596 35.2403 63.4596 36.539 62.1609C37.8377 60.8622 37.8377 58.7566 36.539 57.4579C35.2403 56.1592 33.1347 56.1592 31.836 57.4579C30.5373 58.7566 30.5373 60.8622 31.836 62.1609ZM28.4675 49.3249C26.6308 49.3249 25.1419 47.836 25.1419 45.9993C25.1419 44.1627 26.6308 42.6738 28.4675 42.6738C30.3041 42.6738 31.793 44.1627 31.793 45.9993C31.793 47.836 30.3041 49.3249 28.4675 49.3249ZM31.8361 29.838C30.5375 31.1367 30.5375 33.2423 31.8361 34.5409C33.1348 35.8396 35.2404 35.8396 36.5391 34.5409C37.8378 33.2423 37.8378 31.1367 36.5391 29.838C35.2404 28.5393 33.1348 28.5393 31.8361 29.838Z" fill="#E4060F"/>
</svg>
