<svg width="17" height="17" viewBox="0 0 17 17" fill="none" xmlns="http://www.w3.org/2000/svg">
<path d="M8.63281 16.3281C7.54427 16.3281 6.51823 16.1198 5.55469 15.7031C4.59635 15.2865 3.75 14.7109 3.01562 13.9766C2.28125 13.2422 1.70573 12.3958 1.28906 11.4375C0.872396 10.474 0.664062 9.44792 0.664062 8.35938C0.664062 7.27083 0.872396 6.2474 1.28906 5.28906C1.70573 4.32552 2.27865 3.47656 3.00781 2.74219C3.74219 2.00781 4.58854 1.43229 5.54688 1.01562C6.51042 0.598958 7.53646 0.390625 8.625 0.390625C9.71354 0.390625 10.7396 0.598958 11.7031 1.01562C12.6667 1.43229 13.5156 2.00781 14.25 2.74219C14.9844 3.47656 15.5599 4.32552 15.9766 5.28906C16.3932 6.2474 16.6016 7.27083 16.6016 8.35938C16.6016 9.44792 16.3932 10.474 15.9766 11.4375C15.5599 12.3958 14.9844 13.2422 14.25 13.9766C13.5156 14.7109 12.6667 15.2865 11.7031 15.7031C10.7448 16.1198 9.72135 16.3281 8.63281 16.3281ZM7.75781 12.1719C7.89323 12.1719 8.01562 12.1406 8.125 12.0781C8.23438 12.0156 8.33073 11.9219 8.41406 11.7969L12.0859 6.00781C12.1328 5.92969 12.1771 5.84635 12.2188 5.75781C12.2604 5.66927 12.2812 5.58073 12.2812 5.49219C12.2812 5.3099 12.2135 5.16667 12.0781 5.0625C11.9427 4.95312 11.7917 4.89844 11.625 4.89844C11.3958 4.89844 11.2083 5.01823 11.0625 5.25781L7.72656 10.6172L6.14062 8.57031C6.04167 8.4401 5.94531 8.35156 5.85156 8.30469C5.76302 8.25781 5.66146 8.23438 5.54688 8.23438C5.36979 8.23438 5.22135 8.29948 5.10156 8.42969C4.98177 8.55469 4.92188 8.70573 4.92188 8.88281C4.92188 8.97135 4.9375 9.0599 4.96875 9.14844C5.00521 9.23177 5.05208 9.3125 5.10938 9.39062L7.07031 11.7969C7.17448 11.9323 7.28125 12.0286 7.39062 12.0859C7.5 12.1432 7.6224 12.1719 7.75781 12.1719Z" fill="#06806B"/>
</svg>
