<svg width="96" height="96" viewBox="0 0 96 96" fill="none" xmlns="http://www.w3.org/2000/svg">
<rect x="8" y="8" width="80" height="80" rx="20" fill="#196AAC"/>
<path fill-rule="evenodd" clip-rule="evenodd" d="M49.5674 73.7236C34.0626 73.7236 22.5469 61.7535 22.5469 46.6218V46.4712C22.5469 31.4898 33.8371 19.2188 50.0193 19.2188C59.9544 19.2188 65.9003 22.5313 70.7927 27.3495L63.4164 35.8564C59.3519 32.1677 55.2125 29.9092 49.944 29.9092C41.0624 29.9092 34.6646 37.2867 34.6646 46.3205V46.4712C34.6646 55.505 40.9118 63.0335 49.944 63.0335C55.9652 63.0335 59.6531 60.6244 63.7929 56.8604L71.1688 64.3132C65.7497 70.1102 59.7285 73.7236 49.5674 73.7236Z" fill="white"/>
</svg>
