<svg width="80" height="80" viewBox="0 0 80 80" fill="none" xmlns="http://www.w3.org/2000/svg">
<rect x="6.66602" y="6.66675" width="66.6667" height="66.6667" rx="16.6667" fill="#196AAC"/>
<path fill-rule="evenodd" clip-rule="evenodd" d="M41.3062 61.4363C28.3855 61.4363 18.7891 51.4612 18.7891 38.8515V38.726C18.7891 26.2415 28.1975 16.0156 41.6827 16.0156C49.962 16.0156 54.9169 18.7761 58.9939 22.7912L52.847 29.8804C49.4599 26.8064 46.0104 24.9243 41.62 24.9243C34.2186 24.9243 28.8872 31.0723 28.8872 38.6004V38.726C28.8872 46.2541 34.0931 52.5279 41.62 52.5279C46.6377 52.5279 49.711 50.5204 53.1608 47.3836L59.3074 53.5943C54.7914 58.4251 49.7737 61.4363 41.3062 61.4363" fill="white"/>
</svg>
