<svg width="96" height="96" viewBox="0 0 96 96" fill="none" xmlns="http://www.w3.org/2000/svg">
<path d="M11.9922 19.0479H83.988V76.9372H11.9922V19.0479Z" fill="#0F9D58"/>
<path fill-rule="evenodd" clip-rule="evenodd" d="M31.991 49.9356C34.4836 49.9356 36.4898 47.9849 36.4898 45.5943C36.4898 43.2036 34.4684 41.2529 31.991 41.2529C29.5136 41.2529 27.4922 43.2036 27.4922 45.5943C27.4922 47.9849 29.5136 49.9356 31.991 49.9356ZM68.4859 45.5943C68.4859 47.9849 66.4796 49.9356 63.9871 49.9356C61.5097 49.9356 59.4883 47.9849 59.4883 45.5943C59.4883 43.2036 61.5097 41.2529 63.9871 41.2529C66.4644 41.2529 68.4859 43.2036 68.4859 45.5943ZM53.9844 58.3399C53.9844 55.2892 59.1671 52.8252 63.9851 52.8252C68.803 52.8252 73.9858 55.2892 73.9858 58.3399V61.5079H53.9844V58.3399ZM21.9922 58.3399C21.9922 55.2892 27.1749 52.8252 31.9929 52.8252C36.8108 52.8252 41.9936 55.2892 41.9936 58.3399V61.5079H21.9922V58.3399Z" fill="#57BB8A"/>
<path fill-rule="evenodd" clip-rule="evenodd" d="M53.9839 40.2699C53.9991 43.4673 51.3089 46.0633 47.9956 46.0633C44.6823 46.0633 41.9922 43.4819 41.9922 40.2846C41.9922 37.0873 44.6671 34.4913 47.9804 34.4913C51.2937 34.4766 53.9839 37.0726 53.9839 40.2699ZM34 57.6502C34 53.3969 41.2497 49.9355 47.9979 49.9355C54.7461 49.9355 61.9959 53.3822 61.9959 57.6502V61.5075H34V57.6502Z" fill="#F7F7F7"/>
<path d="M55.9922 73.0947H73.9874V76.9521H55.9922V73.0947Z" fill="#F1F1F1"/>
<path fill-rule="evenodd" clip-rule="evenodd" d="M10.0035 11.333H85.9965C89.3098 11.333 91.9848 13.929 92 17.1263V78.873C92 82.0703 89.3098 84.6663 85.9965 84.6663H10.0035C6.69016 84.6663 4 82.0703 4 78.8877V17.1263C4 13.929 6.69016 11.333 10.0035 11.333ZM11.9922 76.9519H83.988V19.0479H11.9922V76.9519Z" fill="#F4B400"/>
<path opacity="0.2" d="M85.9965 11.333H10.0035C6.69016 11.333 4 13.929 4 17.1263V17.6103C4 14.413 6.69016 11.817 10.0035 11.817H85.9965C89.3098 11.817 92 14.413 92 17.6103V17.1263C91.9848 13.929 89.3098 11.333 85.9965 11.333Z" fill="white"/>
<path opacity="0.2" d="M85.9965 84.183H10.0035C6.69016 84.183 4 81.587 4 78.3896V78.8736C4 82.071 6.69016 84.667 10.0035 84.667H85.9965C89.3098 84.667 92 82.071 92 78.8736V78.3896C91.9848 81.587 89.3098 84.183 85.9965 84.183Z" fill="#BF360C"/>
<path d="M73.96 76.9521H55.9648L63.9593 84.6668H81.9393L73.96 76.9521Z" fill="url(#paint0_linear_8642_11946)"/>
<path opacity="0.2" d="M11.9922 18.5635H83.988V19.0475H11.9922V18.5635Z" fill="#263238"/>
<path opacity="0.2" d="M11.9922 76.9521H83.988V77.4361H11.9922V76.9521Z" fill="white"/>
<path d="M85.9965 11.333H10.0035C6.69016 11.333 4 13.929 4 17.1263V78.8877C4 82.0703 6.69016 84.6663 10.0035 84.6663H85.9965C89.3098 84.6663 92 82.0703 92 78.873V17.1263C91.9848 13.929 89.3098 11.333 85.9965 11.333Z" fill="url(#paint1_radial_8642_11946)"/>
<defs>
<linearGradient id="paint0_linear_8642_11946" x1="56.0064" y1="77.0546" x2="56.0064" y2="84.7474" gradientUnits="userSpaceOnUse">
<stop stop-color="#BF360C" stop-opacity="0.2"/>
<stop offset="1" stop-color="#BF360C" stop-opacity="0.02"/>
</linearGradient>
<radialGradient id="paint1_radial_8642_11946" cx="0" cy="0" r="1" gradientUnits="userSpaceOnUse" gradientTransform="translate(7.03125 13.0519) scale(105.095 87.5788)">
<stop stop-color="white" stop-opacity="0.1"/>
<stop offset="1" stop-color="white" stop-opacity="0.01"/>
</radialGradient>
</defs>
</svg>
