<svg width="80" height="80" viewBox="0 0 80 80" fill="none" xmlns="http://www.w3.org/2000/svg">
<path d="M9.99219 15.8733H69.9887V64.1144H9.99219V15.8733Z" fill="#0F9D58"/>
<path fill-rule="evenodd" clip-rule="evenodd" d="M26.6585 41.6132C28.7356 41.6132 30.4075 39.9877 30.4075 37.9955C30.4075 36.0032 28.723 34.3777 26.6585 34.3777C24.594 34.3777 22.9095 36.0032 22.9095 37.9955C22.9095 39.9877 24.594 41.6132 26.6585 41.6132ZM57.0742 37.9955C57.0742 39.9877 55.4023 41.6132 53.3252 41.6132C51.2607 41.6132 49.5762 39.9877 49.5762 37.9955C49.5762 36.0032 51.2607 34.3777 53.3252 34.3777C55.3896 34.3777 57.0742 36.0032 57.0742 37.9955ZM44.9863 48.6168C44.9863 46.0746 49.3053 44.0212 53.3202 44.0212C57.3352 44.0212 61.6541 46.0746 61.6541 48.6168V51.2568H44.9863V48.6168ZM18.3262 48.6168C18.3262 46.0746 22.6451 44.0212 26.6601 44.0212C30.675 44.0212 34.994 46.0746 34.994 48.6168V51.2568H18.3262V48.6168Z" fill="#57BB8A"/>
<path fill-rule="evenodd" clip-rule="evenodd" d="M44.9853 33.5585C44.9979 36.223 42.7561 38.3863 39.9951 38.3863C37.234 38.3863 34.9922 36.2352 34.9922 33.5707C34.9922 30.9063 37.2213 28.743 39.9824 28.743C42.7435 28.7307 44.9853 30.8941 44.9853 33.5585ZM28.332 48.0421C28.332 44.4976 34.3735 41.6132 39.997 41.6132C45.6205 41.6132 51.6619 44.4854 51.6619 48.0421V51.2565H28.332V48.0421Z" fill="#F7F7F7"/>
<path d="M46.6602 60.9124H61.6561V64.1268H46.6602V60.9124Z" fill="#F1F1F1"/>
<path fill-rule="evenodd" clip-rule="evenodd" d="M8.33491 9.44434H71.6625C74.4236 9.44434 76.6527 11.6077 76.6654 14.2721V65.7277C76.6654 68.3921 74.4236 70.5554 71.6625 70.5554H8.33491C5.57383 70.5554 3.33203 68.3921 3.33203 65.7399V14.2721C3.33203 11.6077 5.57383 9.44434 8.33491 9.44434ZM9.99219 64.1267H69.9887V15.8734H9.99219V64.1267Z" fill="#F4B400"/>
<path opacity="0.2" d="M71.6625 9.44434H8.33491C5.57383 9.44434 3.33203 11.6077 3.33203 14.2721V14.6754C3.33203 12.011 5.57383 9.84767 8.33491 9.84767H71.6625C74.4236 9.84767 76.6654 12.011 76.6654 14.6754V14.2721C76.6527 11.6077 74.4236 9.44434 71.6625 9.44434Z" fill="white"/>
<path opacity="0.2" d="M71.6625 70.1527H8.33491C5.57383 70.1527 3.33203 67.9894 3.33203 65.325V65.7283C3.33203 68.3927 5.57383 70.5561 8.33491 70.5561H71.6625C74.4236 70.5561 76.6654 68.3927 76.6654 65.7283V65.325C76.6527 67.9894 74.4236 70.1527 71.6625 70.1527Z" fill="#BF360C"/>
<path d="M61.6288 64.127H46.6328L53.2949 70.5558H68.2782L61.6288 64.127Z" fill="url(#paint0_linear_8290_59692)"/>
<path opacity="0.2" d="M9.99219 15.4697H69.9887V15.8731H9.99219V15.4697Z" fill="#263238"/>
<path opacity="0.2" d="M9.99219 64.127H69.9887V64.5303H9.99219V64.127Z" fill="white"/>
<path d="M71.6625 9.44434H8.33491C5.57383 9.44434 3.33203 11.6077 3.33203 14.2721V65.7399C3.33203 68.3921 5.57383 70.5554 8.33491 70.5554H71.6625C74.4236 70.5554 76.6654 68.3921 76.6654 65.7277V14.2721C76.6527 11.6077 74.4236 9.44434 71.6625 9.44434Z" fill="url(#paint1_radial_8290_59692)"/>
<defs>
<linearGradient id="paint0_linear_8290_59692" x1="46.6675" y1="64.2123" x2="46.6675" y2="70.623" gradientUnits="userSpaceOnUse">
<stop stop-color="#BF360C" stop-opacity="0.2"/>
<stop offset="1" stop-color="#BF360C" stop-opacity="0.02"/>
</linearGradient>
<radialGradient id="paint1_radial_8290_59692" cx="0" cy="0" r="1" gradientUnits="userSpaceOnUse" gradientTransform="translate(5.85808 10.8767) scale(87.5788 72.9823)">
<stop stop-color="white" stop-opacity="0.1"/>
<stop offset="1" stop-color="white" stop-opacity="0.01"/>
</radialGradient>
</defs>
</svg>
