<svg width="88" height="74" viewBox="0 0 88 74" fill="none" xmlns="http://www.w3.org/2000/svg">
<path d="M7.99219 8.04785H79.988V65.9372H7.99219V8.04785Z" fill="#0F9D58"/>
<path fill-rule="evenodd" clip-rule="evenodd" d="M27.991 38.9356C30.4836 38.9356 32.4898 36.9849 32.4898 34.5943C32.4898 32.2036 30.4684 30.2529 27.991 30.2529C25.5136 30.2529 23.4922 32.2036 23.4922 34.5943C23.4922 36.9849 25.5136 38.9356 27.991 38.9356ZM64.4859 34.5943C64.4859 36.9849 62.4796 38.9356 59.9871 38.9356C57.5097 38.9356 55.4883 36.9849 55.4883 34.5943C55.4883 32.2036 57.5097 30.2529 59.9871 30.2529C62.4644 30.2529 64.4859 32.2036 64.4859 34.5943ZM49.9844 47.3399C49.9844 44.2892 55.1671 41.8252 59.9851 41.8252C64.803 41.8252 69.9858 44.2892 69.9858 47.3399V50.5079H49.9844V47.3399ZM17.9922 47.3399C17.9922 44.2892 23.1749 41.8252 27.9929 41.8252C32.8108 41.8252 37.9936 44.2892 37.9936 47.3399V50.5079H17.9922V47.3399Z" fill="#57BB8A"/>
<path fill-rule="evenodd" clip-rule="evenodd" d="M49.9839 29.2699C49.9991 32.4673 47.3089 35.0633 43.9956 35.0633C40.6823 35.0633 37.9922 32.4819 37.9922 29.2846C37.9922 26.0873 40.6671 23.4913 43.9804 23.4913C47.2937 23.4766 49.9839 26.0726 49.9839 29.2699ZM30 46.6502C30 42.3969 37.2497 38.9355 43.9979 38.9355C50.7461 38.9355 57.9959 42.3822 57.9959 46.6502V50.5075H30V46.6502Z" fill="#F7F7F7"/>
<path d="M51.9922 62.0947H69.9874V65.9521H51.9922V62.0947Z" fill="#F1F1F1"/>
<path fill-rule="evenodd" clip-rule="evenodd" d="M6.00345 0.333008H81.9965C85.3098 0.333008 87.9848 2.92901 88 6.12634V67.873C88 71.0703 85.3098 73.6663 81.9965 73.6663H6.00345C2.69016 73.6663 0 71.0703 0 67.8877V6.12634C0 2.92901 2.69016 0.333008 6.00345 0.333008ZM7.99219 65.9519H79.988V8.04785H7.99219V65.9519Z" fill="#F4B400"/>
<path opacity="0.2" d="M81.9965 0.333008H6.00345C2.69016 0.333008 0 2.92901 0 6.12634V6.61034C0 3.41301 2.69016 0.817008 6.00345 0.817008H81.9965C85.3098 0.817008 88 3.41301 88 6.61034V6.12634C87.9848 2.92901 85.3098 0.333008 81.9965 0.333008Z" fill="white"/>
<path opacity="0.2" d="M81.9965 73.183H6.00345C2.69016 73.183 0 70.587 0 67.3896V67.8736C0 71.071 2.69016 73.667 6.00345 73.667H81.9965C85.3098 73.667 88 71.071 88 67.8736V67.3896C87.9848 70.587 85.3098 73.183 81.9965 73.183Z" fill="#BF360C"/>
<path d="M69.96 65.9521H51.9648L59.9593 73.6668H77.9393L69.96 65.9521Z" fill="url(#paint0_linear_8560_15687)"/>
<path opacity="0.2" d="M7.99219 7.56348H79.988V8.04748H7.99219V7.56348Z" fill="#263238"/>
<path opacity="0.2" d="M7.99219 65.9521H79.988V66.4361H7.99219V65.9521Z" fill="white"/>
<path d="M81.9965 0.333008H6.00345C2.69016 0.333008 0 2.92901 0 6.12634V67.8877C0 71.0703 2.69016 73.6663 6.00345 73.6663H81.9965C85.3098 73.6663 88 71.0703 88 67.873V6.12634C87.9848 2.92901 85.3098 0.333008 81.9965 0.333008Z" fill="url(#paint1_radial_8560_15687)"/>
<defs>
<linearGradient id="paint0_linear_8560_15687" x1="52.0064" y1="66.0546" x2="52.0064" y2="73.7474" gradientUnits="userSpaceOnUse">
<stop stop-color="#BF360C" stop-opacity="0.2"/>
<stop offset="1" stop-color="#BF360C" stop-opacity="0.02"/>
</linearGradient>
<radialGradient id="paint1_radial_8560_15687" cx="0" cy="0" r="1" gradientUnits="userSpaceOnUse" gradientTransform="translate(3.03125 2.05185) scale(105.095 87.5788)">
<stop stop-color="white" stop-opacity="0.1"/>
<stop offset="1" stop-color="white" stop-opacity="0.01"/>
</radialGradient>
</defs>
</svg>
