<svg width="24" height="24" viewBox="0 0 24 24" fill="none" xmlns="http://www.w3.org/2000/svg">
<g id="Icons/School">
<path id="Subtract" fill-rule="evenodd" clip-rule="evenodd" d="M12 1.5H11.5V5.91452C11.4569 5.93945 11.4152 5.96786 11.3753 5.99976L7.37531 9.19976C7.13809 9.38953 7 9.67684 7 9.98063V13.5H3C2.44772 13.5 2 13.9477 2 14.5V21.5C2 22.0523 2.44772 22.5 3 22.5H10V16.5H14V22.5H21C21.5523 22.5 22 22.0523 22 21.5V14.5C22 13.9477 21.5523 13.5 21 13.5H17V9.98063C17 9.67684 16.8619 9.38953 16.6247 9.19976L12.6247 5.99976C12.5848 5.96786 12.5431 5.93945 12.5 5.91452V4.5H15C15.5523 4.5 16 4.05228 16 3.5V2.5C16 1.94772 15.5523 1.5 15 1.5H12.5H12ZM14 11V13H10V11H14ZM8 16.5H4V18.5H8V16.5ZM16 16.5H20V18.5H16V16.5Z" fill="#5C5C5C"/>
</g>
</svg>
