<?xml version="1.0" encoding="UTF-8"?>
<svg width="34px" height="20px" viewBox="0 0 34 20" version="1.1" xmlns="http://www.w3.org/2000/svg" xmlns:xlink="http://www.w3.org/1999/xlink">
    <!-- Generator: Sketch 43.2 (39069) - http://www.bohemiancoding.com/sketch -->
    <title>Group 46</title>
    <desc>Created with Sketch.</desc>
    <defs></defs>
    <g id="V1" stroke="none" stroke-width="1" fill="none" fill-rule="evenodd">
        <g id="09_12-Lessons-Recommendation-Page" transform="translate(-169.000000, -1311.000000)" fill="#3B3B3B">
            <g id="Group-46" transform="translate(169.000000, 1311.000000)">
                <path d="M17.9605263,9.52380952 C15.4171097,9.52380952 13.3552632,7.39183214 13.3552632,4.76190476 C13.3552632,2.13197738 15.4171097,0 17.9605263,0 C20.5039429,0 22.5657895,2.13197738 22.5657895,4.76190476 C22.5657895,7.39183214 20.5039429,9.52380952 17.9605263,9.52380952 Z M17.5,20 C12.6675084,20 8.75,20 8.75,20 C8.75,15.2661307 12.6675084,11.4285714 17.5,11.4285714 C22.3324916,11.4285714 26.25,15.2661307 26.25,20 C26.25,20 22.3324916,20 17.5,20 Z" id="Combined-Shape-Copy"></path>
                <path d="M6.96428571,13.125 C5.04115132,13.125 3.48214286,11.5859788 3.48214286,9.6875 C3.48214286,7.78902117 5.04115132,6.25 6.96428571,6.25 C8.88742011,6.25 10.4464286,7.78902117 10.4464286,9.6875 C10.4464286,11.5859788 8.88742011,13.125 6.96428571,13.125 Z M6.09375,20 C2.72826481,20 0,20 0,20 C0,16.6776621 2.72826481,13.984375 6.09375,13.984375 C9.45923519,13.984375 12.1875,16.6776621 12.1875,20 C12.1875,20 9.45923519,20 6.09375,20 Z" id="Combined-Shape-Copy-2"></path>
                <path d="M28.5267857,13.125 C26.6036513,13.125 25.0446429,11.5859788 25.0446429,9.6875 C25.0446429,7.78902117 26.6036513,6.25 28.5267857,6.25 C30.4499201,6.25 32.0089286,7.78902117 32.0089286,9.6875 C32.0089286,11.5859788 30.4499201,13.125 28.5267857,13.125 Z M27.65625,20 C24.2907648,20 21.5625,20 21.5625,20 C21.5625,16.6776621 24.2907648,13.984375 27.65625,13.984375 C31.0217352,13.984375 33.75,16.6776621 33.75,20 C33.75,20 31.0217352,20 27.65625,20 Z" id="Combined-Shape-Copy-3"></path>
            </g>
        </g>
    </g>
</svg>