<?xml version="1.0" encoding="UTF-8"?>
<svg width="17px" height="21px" viewBox="0 0 17 21" version="1.1" xmlns="http://www.w3.org/2000/svg" xmlns:xlink="http://www.w3.org/1999/xlink">
    <!-- Generator: Sketch 48.2 (47327) - http://www.bohemiancoding.com/sketch -->
    <title>Page 1 Copy 3</title>
    <desc>Created with Sketch.</desc>
    <defs></defs>
    <g id="09_15-Activity-Analysis---Activity-Page-Copy" stroke="none" stroke-width="1" fill="none" fill-rule="evenodd" transform="translate(-181.000000, -261.000000)">
        <g id="Page-1-Copy-3" transform="translate(181.000000, 261.000000)" fill="#C0C0C0" fill-rule="nonzero">
            <path d="M7.73879716,10.5050807 C6.67521729,10.2417762 5.8827744,9.29506661 5.8827744,8.16552 C5.8827744,7.03570736 6.67516058,6.08902255 7.73879716,5.82574567 L7.73879716,1.62571125 C4.30084072,1.92260621 1.59991807,4.74566055 1.59991807,8.16552 C1.59991807,11.5852546 4.3009006,14.4084147 7.73879716,14.7053268 L7.73879716,10.5050807 Z M8.33879716,15.93112 C3.96404922,15.93112 0.399918065,12.4511419 0.399918065,8.16552 C0.399918065,3.87976443 3.96398103,0.39992 8.33879716,0.39992 C8.670168,0.39992 8.93879716,0.66854915 8.93879716,0.99992 L8.93879716,6.35292 C8.93879716,6.68429085 8.670168,6.95292 8.33879716,6.95292 C7.64380029,6.95292 7.0827744,7.50078291 7.0827744,8.16552 C7.0827744,8.82995709 7.64390269,9.37792 8.33879716,9.37792 C8.670168,9.37792 8.93879716,9.64654915 8.93879716,9.97792 L8.93879716,15.33112 C8.93879716,15.6624908 8.670168,15.93112 8.33879716,15.93112 Z" id="Stroke-9"></path>
            <path d="M8.33879716,12.05446 C8.670168,12.05446 8.93879716,12.3230892 8.93879716,12.65446 C8.93879716,12.9858308 8.670168,13.25446 8.33879716,13.25446 C5.47164523,13.25446 3.14124381,10.9790819 3.14124381,8.16546 C3.14124381,5.35146221 5.47141401,3.07666 8.33879716,3.07666 C8.670168,3.07666 8.93879716,3.34528915 8.93879716,3.67666 C8.93879716,4.00803085 8.670168,4.27666 8.33879716,4.27666 C6.1277829,4.27666 4.34124381,6.02074851 4.34124381,8.16546 C4.34124381,10.3098381 6.12805434,12.05446 8.33879716,12.05446 Z" id="Stroke-11"></path>
            <path d="M15.0776762,12.65442 C15.0776762,9.23473615 12.3767415,6.41152641 8.93879716,6.11461299 L8.93879716,10.3149948 C10.0027049,10.5781589 10.7952296,11.5246413 10.7952296,12.65442 C10.7952296,13.7843378 10.002728,14.7308739 8.93879716,14.9940454 L8.93879716,19.194229 C12.3768013,18.8973326 15.0776762,16.0742287 15.0776762,12.65442 Z M7.73879716,19.82002 L7.73879716,14.46682 C7.73879716,14.1354492 8.00742631,13.86682 8.33879716,13.86682 C9.03421906,13.86682 9.59522959,13.319139 9.59522959,12.65442 C9.59522959,11.9898805 9.03419729,11.44222 8.33879716,11.44222 C8.00742631,11.44222 7.73879716,11.1735908 7.73879716,10.84222 L7.73879716,5.48882 C7.73879716,5.15744915 8.00742631,4.88882 8.33879716,4.88882 C12.7136136,4.88882 16.2776762,8.3688653 16.2776762,12.65442 C16.2776762,16.9401083 12.7136817,20.42002 8.33879716,20.42002 C8.00742631,20.42002 7.73879716,20.1513908 7.73879716,19.82002 Z" id="Stroke-13"></path>
            <path d="M8.33879716,8.76556 C8.00742631,8.76556 7.73879716,8.49693085 7.73879716,8.16556 C7.73879716,7.83418915 8.00742631,7.56556 8.33879716,7.56556 C11.2066614,7.56556 13.5365553,9.84023256 13.5365553,12.65456 C13.5365553,15.4681819 11.2063587,17.74336 8.33879716,17.74336 C8.00742631,17.74336 7.73879716,17.4747308 7.73879716,17.14336 C7.73879716,16.8119892 8.00742631,16.54336 8.33879716,16.54336 C10.5499496,16.54336 12.3365553,14.7989381 12.3365553,12.65456 C12.3365553,10.5095019 10.5502764,8.76556 8.33879716,8.76556 Z" id="Stroke-15"></path>
        </g>
    </g>
</svg>