<?xml version="1.0" encoding="UTF-8"?>
<svg width="26px" height="26px" viewBox="0 0 26 26" version="1.1" xmlns="http://www.w3.org/2000/svg" xmlns:xlink="http://www.w3.org/1999/xlink">
    <!-- Generator: Sketch 48.2 (47327) - http://www.bohemiancoding.com/sketch -->
    <title>Group 18</title>
    <desc>Created with Sketch.</desc>
    <defs></defs>
    <g id="10_03-Explore-All-Activities" stroke="none" stroke-width="1" fill="none" fill-rule="evenodd" transform="translate(-516.000000, -646.000000)">
        <g id="Group-18" transform="translate(516.000000, 646.000000)" fill="#027360">
            <path d="M19.4773536,12.4643014 L18.1788633,12.0302346 L17.0967881,13.1154015 C17.2049956,13.6579849 17.3132032,14.2005683 17.3132032,14.7431517 C17.3132032,18.3242023 14.3916001,21.2541528 10.820752,21.2541528 C7.24990383,21.2541528 4.32830079,18.3242023 4.32830079,14.7431517 C4.32830079,11.1621012 7.24990383,8.23215068 10.820752,8.23215068 C11.3617896,8.23215068 12.0110347,8.34066736 12.4438648,8.44918405 L13.52594,7.36401721 L13.0931099,6.061817 C12.9849024,5.51923358 12.9849024,4.86813347 13.0931099,4.21703337 C12.3356573,4.10851668 11.5782046,4 10.820752,4 C4.86933839,4 0,8.88325079 0,14.8516684 C0,20.820086 4.86933839,25.7033368 10.820752,25.7033368 C16.7721656,25.7033368 21.641504,20.820086 21.641504,14.8516684 C21.641504,14.0920516 21.5332964,13.3324348 21.4250889,12.572818 C21.1004664,12.6813347 20.8840513,12.6813347 20.5594288,12.6813347 C20.2348062,12.6813347 19.9101836,12.572818 19.4773536,12.4643014 Z" id="Fill-1"></path>
            <path d="M24.6378257,4.48987781 L23.0147129,3.94729438 L23.9885806,2.97064423 C24.4214107,2.53657749 24.4214107,1.88547739 23.9885806,1.45141065 C23.5557505,1.01734391 22.9065054,1.01734391 22.4736753,1.45141065 L21.4998077,2.42806081 L20.9587701,0.800310545 C20.8505625,0.474760493 20.52594,0.149210441 20.2013174,0.0406937565 C19.8766949,-0.0678229276 19.4438648,0.0406937565 19.2274497,0.366243809 L15.9812241,3.62174433 C15.6566016,3.94729438 15.5483941,4.38136112 15.7648091,4.70691117 L16.6304693,7.31131159 L12.9666371,10.9856058 C12.317392,10.551539 11.5599394,10.3345057 10.8024868,10.3345057 C8.42192132,10.3345057 6.47418596,12.287806 6.47418596,14.675173 C6.47418596,17.0625401 8.42192132,19.0158404 10.8024868,19.0158404 C13.1830522,19.0158404 15.1307875,17.0625401 15.1307875,14.675173 C15.1307875,13.9155562 14.9143725,13.1918026 14.4815424,12.5407024 L18.037167,8.93906185 L20.6341475,9.80719533 C20.742355,9.80719533 20.8505625,9.91571201 20.9587701,9.91571201 C21.2833926,9.91571201 21.4998077,9.80719533 21.7162227,9.59016196 L24.9624483,6.33466144 C25.3952784,6.00911138 25.5034859,5.57504465 25.3952784,5.24949459 C25.2870708,4.92394454 25.0706558,4.59839449 24.6378257,4.48987781 Z" id="Fill-3"></path>
        </g>
    </g>
</svg>