<?xml version="1.0" encoding="UTF-8"?>
<svg width="23px" height="23px" viewBox="0 0 23 23" version="1.1" xmlns="http://www.w3.org/2000/svg" xmlns:xlink="http://www.w3.org/1999/xlink">
    <!-- Generator: Sketch 48.2 (47327) - http://www.bohemiancoding.com/sketch -->
    <title>Group 14</title>
    <desc>Created with Sketch.</desc>
    <defs></defs>
    <g id="09_15-Activity-Analysis---Activity-Page" stroke="none" stroke-width="1" fill="none" fill-rule="evenodd" transform="translate(-178.000000, -197.000000)">
        <g id="Group-14" transform="translate(178.000000, 197.000000)" fill="#3B3B3B">
            <path d="M17.2299666,11.0261127 L16.0813022,10.6421306 L15.1240818,11.6020859 C15.2198038,12.0820636 15.3155259,12.5620412 15.3155259,13.0420188 C15.3155259,16.2098713 12.7310309,18.8017505 9.57220367,18.8017505 C6.41337646,18.8017505 3.82888147,16.2098713 3.82888147,13.0420188 C3.82888147,9.8741664 6.41337646,7.28228714 9.57220367,7.28228714 C10.0508139,7.28228714 10.6251461,7.37828267 11.0080342,7.4742782 L11.9652546,6.51432291 L11.5823664,5.36237658 C11.4866444,4.88239893 11.4866444,4.30642576 11.5823664,3.73045259 C10.9123122,3.63445707 10.2422579,3.53846154 9.57220367,3.53846154 C4.30749165,3.53846154 0,7.85826031 0,13.1380144 C0,18.4177684 4.30749165,22.7375672 9.57220367,22.7375672 C14.8369157,22.7375672 19.1444073,18.4177684 19.1444073,13.1380144 C19.1444073,12.4660457 19.0486853,11.794077 18.9529633,11.1221083 C18.6657972,11.2181038 18.4743531,11.2181038 18.187187,11.2181038 C17.9000209,11.2181038 17.6128548,11.1221083 17.2299666,11.0261127 Z" id="Fill-1"></path>
            <path d="M21.7949997,3.97181498 L20.3591691,3.49183734 L21.2206675,2.62787759 C21.6035556,2.24389547 21.6035556,1.6679223 21.2206675,1.28394019 C20.8377793,0.899958077 20.2634471,0.899958077 19.8805589,1.28394019 L19.0190606,2.14789994 L18.5404504,0.707967021 C18.4447284,0.419980436 18.1575623,0.131993851 17.8703962,0.0359983231 C17.5832301,-0.0599972052 17.2003419,0.0359983231 17.0088978,0.323984908 L14.1372367,3.20385076 C13.8500706,3.49183734 13.7543486,3.87581945 13.9457927,4.16380604 L14.711569,6.46769872 L11.4704867,9.71803586 C10.8961545,9.33405375 10.2261002,9.14206269 9.55604597,9.14206269 C7.45016116,9.14206269 5.7271645,10.8699822 5.7271645,12.9818838 C5.7271645,15.0937854 7.45016116,16.821705 9.55604597,16.821705 C11.6619308,16.821705 13.3849274,15.0937854 13.3849274,12.9818838 C13.3849274,12.3099151 13.1934834,11.6696715 12.8105952,11.0936983 L15.9559554,7.90763164 L18.2532843,8.67559587 C18.3490064,8.67559587 18.4447284,8.77159139 18.5404504,8.77159139 C18.8276165,8.77159139 19.0190606,8.67559587 19.2105047,8.48360481 L22.0821658,5.60373896 C22.4650539,5.31575238 22.560776,4.93177026 22.4650539,4.64378368 C22.3693319,4.35579709 22.1778878,4.06781051 21.7949997,3.97181498 Z" id="Fill-3"></path>
        </g>
    </g>
</svg>