<?xml version="1.0" encoding="UTF-8"?>
<svg width="23px" height="22px" viewBox="0 0 23 22" version="1.1" xmlns="http://www.w3.org/2000/svg" xmlns:xlink="http://www.w3.org/1999/xlink">
    <!-- Generator: Sketch 48.2 (47327) - http://www.bohemiancoding.com/sketch -->
    <title>Group 15</title>
    <desc>Created with Sketch.</desc>
    <defs></defs>
    <g id="10_03-Explore-All-Activities" stroke="none" stroke-width="1" fill="none" fill-rule="evenodd" transform="translate(-517.000000, -536.000000)">
        <g id="Group-15" transform="translate(517.000000, 536.000000)" fill="#3B3B3B" fill-rule="nonzero">
            <path d="M13,8.5 C13,6.01471863 10.9852814,4 8.5,4 C6.01471863,4 4,6.01471863 4,8.5 C4,10.9852814 6.01471863,13 8.5,13 C10.9852814,13 13,10.9852814 13,8.5 Z M0,8.5 C0,3.80557963 3.80557963,0 8.5,0 C13.1944204,0 17,3.80557963 17,8.5 C17,13.1944204 13.1944204,17 8.5,17 C3.80557963,17 0,13.1944204 0,8.5 Z" id="Oval-4-Copy"></path>
            <path d="M18.7687249,21.4142136 C19.5714693,22.1952621 20.8729751,22.1952621 21.6757195,21.4142136 C22.4784639,20.633165 22.4784639,19.366835 21.6757195,18.5857864 L15.5090528,12.5857864 C14.7063085,11.8047379 13.4048027,11.8047379 12.6020583,12.5857864 C11.7993139,13.366835 11.7993139,14.633165 12.6020583,15.4142136 L18.7687249,21.4142136 Z" id="Line-Copy-2"></path>
        </g>
    </g>
</svg>