<?xml version="1.0" encoding="utf-8"?>
<!-- Generator: Adobe Illustrator 21.0.2, SVG Export Plug-In . SVG Version: 6.00 Build 0)  -->
<svg version="1.1" id="Layer_1" xmlns="http://www.w3.org/2000/svg" xmlns:xlink="http://www.w3.org/1999/xlink" x="0px" y="0px"
	 viewBox="0 0 20 25" style="enable-background:new 0 0 20 25;" xml:space="preserve">
<style type="text/css">
	.st0{fill:#FFFFFF;}
</style>
<title>Group 13 Copy 3</title>
<desc>Created with Sketch.</desc>
<g id="V1">
	<g id="_x31_2_x5F_08-Slide-7-Copy" transform="translate(-1135.000000, -19.000000)">
		<g id="Group-6-Copy-2">
			
				<g id="Group-13-Copy-3" transform="translate(1145.000000, 31.500000) rotate(-180.000000) translate(-1145.000000, -31.500000) translate(1135.000000, 19.000000)">
				<g id="Group-5">
					<g id="Group-13" transform="translate(0.000000, 0.000000)">
						<g id="Group-18" transform="translate(0.000000, 3.000000)">
							<g id="Rectangle-15-Copy_1_">
								<polygon class="st0" points="0,0 6.7,0 6.7,2 2,2 2,15.2 7.7,20 18,20 18,7.3 20,7.3 20,22 6.9,22 0,16.2 								"/>
							</g>
							<polygon id="Path-30-Copy" class="st0" points="7,21 9,21 9,13 1,13 1,15 7,15 							"/>
						</g>
						<path id="Combined-Shape-Copy" class="st0" d="M13,3.8c0,5.6,0,8.4,0,8.4s0.7,0,2,0V3.9L17,6l1.3-1.3L14,0.2L9.5,4.6L10.9,6
							L13,3.8L13,3.8z"/>
					</g>
				</g>
			</g>
		</g>
	</g>
</g>
</svg>
