<?xml version="1.0" encoding="UTF-8"?>
<svg width="20px" height="25px" viewBox="0 0 20 25" version="1.1" xmlns="http://www.w3.org/2000/svg" xmlns:xlink="http://www.w3.org/1999/xlink">
    <!-- Generator: Sketch 46.2 (44496) - http://www.bohemiancoding.com/sketch -->
    <title>Group 13 Copy 3</title>
    <desc>Created with Sketch.</desc>
    <defs></defs>
    <g id="V1" stroke="none" stroke-width="1" fill="none" fill-rule="evenodd">
        <g id="12_08-Slide-7-Copy" transform="translate(-1135.000000, -19.000000)">
            <g id="Group-6-Copy-2">
                <g id="Group-13-Copy-3" transform="translate(1145.000000, 31.500000) rotate(-180.000000) translate(-1145.000000, -31.500000) translate(1135.000000, 19.000000)">
                    <g id="Group-5">
                        <g id="Group-13" transform="translate(0.000000, 0.000000)">
                            <g id="Group-18" transform="translate(0.000000, 3.000000)">
                                <path d="M1,14.7237675 L13.3061972,21 L19,21 L19,6.28165727 L12.7021,1 L1,1 L1,14.7237675 Z" id="Rectangle-15-Copy" stroke="#FFFFFF" stroke-width="2" transform="translate(10.000000, 11.000000) scale(-1, -1) translate(-10.000000, -11.000000) "></path>
                                <polygon id="Path-30-Copy" fill="#FFFFFF" fill-rule="nonzero" transform="translate(5.000000, 17.000000) rotate(-180.000000) translate(-5.000000, -17.000000) " points="2.97603863 13 1 13 1 21 9 21 9 18.9879427 2.97603863 18.9879427"></polygon>
                            </g>
                            <path d="M11.5770076,7.14867036 C17.1571322,7.14867036 19.9471946,7.14867036 19.9471946,7.14867036 C19.9471946,7.14867036 19.9471946,6.48200369 19.9471946,5.14867036 L11.6230967,5.14867036 L13.7141745,3.14031548 L12.3800801,1.80836593 L7.94719457,6.16321696 L12.3047068,10.6060297 L13.7141745,9.29637594 L11.5769923,7.14867036 Z" id="Combined-Shape-Copy" fill="#FFFFFF" fill-rule="nonzero" transform="translate(13.947195, 6.207198) rotate(-270.000000) translate(-13.947195, -6.207198) "></path>
                        </g>
                    </g>
                </g>
            </g>
        </g>
    </g>
</svg>