<?xml version="1.0" encoding="utf-8"?>
<!-- Generator: Adobe Illustrator 21.0.2, SVG Export Plug-In . SVG Version: 6.00 Build 0)  -->
<svg version="1.1" id="Layer_1" xmlns="http://www.w3.org/2000/svg" xmlns:xlink="http://www.w3.org/1999/xlink" x="0px" y="0px"
	 viewBox="0 0 16 19.8" style="enable-background:new 0 0 16 19.8;" xml:space="preserve">
<style type="text/css">
	.st0{fill:#027360;}
</style>
<title>Group 13 Copy 3</title>
<desc>Created with Sketch.</desc>
<g id="V1">
	<g id="_x31_2_x5F_08-Slide-7-Copy" transform="translate(-1135.000000, -19.000000)">
		<g id="Group-6-Copy-2">
			
				<g id="Group-13-Copy-3" transform="translate(1145.000000, 31.500000) rotate(-180.000000) translate(-1145.000000, -31.500000) translate(1135.000000, 19.000000)">
				<g id="Group-5">
					<g id="Group-13" transform="translate(0.000000, 0.000000)">
						<g id="Group-18" transform="translate(0.000000, 3.000000)">
							<g id="Rectangle-15-Copy_1_">
								<polygon class="st0" points="4,4.4 9.4,4.4 9.4,6 5.6,6 5.6,16.6 10.2,20.4 18.4,20.4 18.4,10.2 20,10.2 20,22 9.5,22 
									4,17.4 								"/>
							</g>
							<polygon id="Path-30-Copy" class="st0" points="9.6,21.2 11.2,21.2 11.2,14.8 4.8,14.8 4.8,16.4 9.6,16.4 							"/>
						</g>
						<path id="Combined-Shape-Copy" class="st0" d="M14.4,8c0,4.5,0,6.7,0,6.7s0.6,0,1.6,0V8.1l1.6,1.7l1-1l-3.4-3.6l-3.6,3.5
							l1.1,1.1L14.4,8L14.4,8z"/>
					</g>
				</g>
			</g>
		</g>
	</g>
</g>
</svg>
