<?xml version="1.0" encoding="UTF-8"?>
<svg width="16px" height="18px" viewBox="0 0 16 18" version="1.1" xmlns="http://www.w3.org/2000/svg" xmlns:xlink="http://www.w3.org/1999/xlink">
    <!-- Generator: Sketch 47.1 (45422) - http://www.bohemiancoding.com/sketch -->
    <title>Group 6</title>
    <desc>Created with Sketch.</desc>
    <defs></defs>
    <g id="Customize-Slides" stroke="none" stroke-width="1" fill="none" fill-rule="evenodd">
        <g id="10_07-Lessons-Page" transform="translate(-1117.000000, -747.000000)">
            <g id="Group-6" transform="translate(1125.000000, 755.500000) rotate(-180.000000) translate(-1125.000000, -755.500000) translate(1117.000000, 746.000000)">
                <g id="Group-18" transform="translate(0.259520, 1.057151)">
                    <path d="M0.75,11.0428256 L9.97964789,15.75 L14.25,15.75 L14.25,4.71124295 L9.52657501,0.75 L0.75,0.75 L0.75,11.0428256 Z" id="Rectangle-15-Copy" stroke="#027360" stroke-width="1.5" transform="translate(7.500000, 8.250000) scale(-1, -1) translate(-7.500000, -8.250000) "></path>
                    <polygon id="Path-30-Copy" fill="#027360" fill-rule="nonzero" transform="translate(3.750000, 12.750000) rotate(-180.000000) translate(-3.750000, -12.750000) " points="2.23202897 9.75 0.75 9.75 0.75 15.75 6.75 15.75 6.75 14.240957 2.23202897 14.240957"></polygon>
                </g>
                <path d="M8.27147987,5.2061044 C12.4565759,5.2061044 14.5491239,5.2061044 14.5491239,5.2061044 C14.5491239,5.2061044 14.5491239,4.7061044 14.5491239,3.7061044 L8.30605055,3.7061044 L9.87435886,2.19983824 L8.8737881,1.20087608 L5.54912392,4.46701435 L8.8172581,7.79912392 L9.87435886,6.81688359 L8.27147221,5.2061044 Z" id="Combined-Shape-Copy" fill="#027360" fill-rule="nonzero" transform="translate(10.049124, 4.500000) rotate(-270.000000) translate(-10.049124, -4.500000) "></path>
            </g>
        </g>
    </g>
</svg>