<?xml version="1.0" encoding="utf-8"?>
<!-- Generator: Adobe Illustrator 21.0.2, SVG Export Plug-In . SVG Version: 6.00 Build 0)  -->
<svg version="1.1" id="Layer_1" xmlns="http://www.w3.org/2000/svg" xmlns:xlink="http://www.w3.org/1999/xlink" x="0px" y="0px"
	 viewBox="0 0 16 18" style="enable-background:new 0 0 16 18;" xml:space="preserve">
<style type="text/css">
	.st0{fill:#969696;}
</style>
<title>Group 6</title>
<desc>Created with Sketch.</desc>
<g id="Customize-Slides">
	<g id="E-12_00-Select-Edition" transform="translate(-812.000000, -837.000000)">
		<g id="Group-8" transform="translate(204.000000, 185.000000)">
			<g id="Group-22" transform="translate(595.000000, 604.000000)">
				<g id="Group-21" transform="translate(13.000000, 47.000000)">
					<g id="Group-6" transform="translate(0.000000, 1.000000)">
						<g id="Rectangle-48-Copy_1_">
							<path class="st0" d="M11.2,17.3h-10c-0.7,0-1.2-0.5-1.2-1.2V2c0-0.7,0.5-1.2,1.2-1.2h8.7v1H1.2C1.1,1.8,1,1.8,1,2v14.1
								c0,0.1,0.1,0.2,0.2,0.2h10c0.1,0,0.2-0.1,0.2-0.2V8.4h1v7.7C12.4,16.7,11.8,17.3,11.2,17.3z"/>
						</g>
						
							<rect id="Rectangle-50" x="4.9" y="3.9" transform="matrix(0.6293 -0.7771 0.7771 0.6293 -0.3049 10.1062)" class="st0" width="11" height="3"/>
						<polygon id="Triangle" class="st0" points="4.7,12.4 5.4,9.2 7.8,11.1 						"/>
					</g>
				</g>
			</g>
		</g>
	</g>
</g>
</svg>
