<?xml version="1.0" encoding="UTF-8"?>
<svg width="16px" height="18px" viewBox="0 0 16 18" version="1.1" xmlns="http://www.w3.org/2000/svg" xmlns:xlink="http://www.w3.org/1999/xlink">
    <!-- Generator: Sketch 47.1 (45422) - http://www.bohemiancoding.com/sketch -->
    <title>Group 6</title>
    <desc>Created with Sketch.</desc>
    <defs></defs>
    <g id="Customize-Slides" stroke="none" stroke-width="1" fill="none" fill-rule="evenodd">
        <g id="E-12_00-Select-Edition" transform="translate(-812.000000, -837.000000)">
            <g id="Group-8" transform="translate(204.000000, 185.000000)">
                <g id="Group-22" transform="translate(595.000000, 604.000000)">
                    <g id="Group-21" transform="translate(13.000000, 47.000000)">
                        <g id="Group-6" transform="translate(0.000000, 1.000000)">
                            <path d="M11.8873337,8.51418052 L8.98205311,1.25238095 L1.21,1.25238095 C0.817877828,1.25238095 0.5,1.57025878 0.5,1.96238095 L0.5,16.0566667 C0.5,16.4487888 0.817877828,16.7666667 1.21,16.7666667 L11.1773337,16.7666667 C11.5694559,16.7666667 11.8873337,16.4487888 11.8873337,16.0566667 L11.8873337,8.51418052 Z" id="Rectangle-48-Copy" stroke="#969696"></path>
                            <rect id="Rectangle-50" fill="#969696" transform="translate(10.441607, 5.372715) rotate(39.000000) translate(-10.441607, -5.372715) " x="8.94160651" y="-0.12728528" width="3" height="11"></rect>
                            <polygon id="Triangle" fill="#969696" transform="translate(5.677384, 11.283977) rotate(39.000000) translate(-5.677384, -11.283977) " points="5.64445452 12.7332637 4.12973205 9.83468982 7.22503599 9.83468982"></polygon>
                        </g>
                    </g>
                </g>
            </g>
        </g>
    </g>
</svg>