<?xml version="1.0" encoding="UTF-8"?>
<svg width="18px" height="23px" viewBox="0 0 18 23" version="1.1" xmlns="http://www.w3.org/2000/svg" xmlns:xlink="http://www.w3.org/1999/xlink">
    <!-- Generator: Sketch 48.2 (47327) - http://www.bohemiancoding.com/sketch -->
    <title>Fill 1</title>
    <desc>Created with Sketch.</desc>
    <defs></defs>
    <g id="10_03-Explore-All-Activities" stroke="none" stroke-width="1" fill="none" fill-rule="evenodd" transform="translate(-520.000000, -703.000000)">
        <path d="M534.027551,714.737755 C534.729592,714.737755 535.389796,715.009184 535.887755,715.502041 C535.960204,715.572449 536.059184,715.608163 536.158163,715.612245 C536.260204,715.610204 536.355102,715.568367 536.426531,715.496939 C536.589796,715.328571 536.745918,715.211224 536.985714,715.076531 C537.105102,715.009184 537.178571,714.883673 537.178571,714.744898 L537.178571,710.380612 C537.178571,709.509184 536.471429,708.80102 535.597959,708.80102 L531.444898,708.80102 C531.382653,708.702041 531.319388,708.614286 531.252041,708.530612 C531.733673,707.929592 531.995918,707.186735 531.995918,706.406122 C531.995918,704.527551 530.468367,703 528.589796,703 C526.711224,703 525.183673,704.527551 525.183673,706.406122 C525.183673,707.188776 525.445918,707.931633 525.930612,708.533673 C525.861224,708.619388 525.796939,708.708163 525.736735,708.80102 L521.581633,708.80102 C520.708163,708.80102 520,709.509184 520,710.380612 L520,714.744898 C520,714.890816 520.082653,715.016327 520.202041,715.080612 C520.397959,715.191837 520.580612,715.328571 520.743878,715.487755 C520.892857,715.632653 521.129592,715.631633 521.276531,715.484694 C521.758163,715.003061 522.42449,714.737755 523.152041,714.737755 C524.612245,714.737755 525.80102,715.92551 525.80102,717.385714 C525.80102,718.845918 524.612245,720.034694 523.152041,720.034694 C522.45,720.034694 521.789796,719.762245 521.291837,719.269388 C521.219388,719.19898 521.121429,719.158163 521.021429,719.160204 C520.919388,719.161224 520.82449,719.203061 520.753061,719.27449 C520.589796,719.442857 520.433673,719.562245 520.192857,719.694898 C520.07449,719.762245 520,719.888776 520,720.026531 L520,724.39898 C520,725.270408 520.708163,725.979592 521.581633,725.979592 L535.597959,725.979592 C536.471429,725.979592 537.178571,725.270408 537.178571,724.39898 L537.178571,720.026531 C537.178571,719.888776 537.105102,719.763265 536.985714,719.694898 C536.812245,719.597959 536.647959,719.480612 536.5,719.344898 C536.456122,719.264286 536.382653,719.2 536.291837,719.168367 C536.154082,719.121429 536.003061,719.156122 535.9,719.258163 C535.39898,719.759184 534.733673,720.034694 534.027551,720.034694 C532.566327,720.034694 531.378571,718.845918 531.378571,717.385714 C531.378571,715.92551 532.566327,714.737755 534.027551,714.737755" id="Fill-1" fill="#027360"></path>
    </g>
</svg>