<?xml version="1.0" encoding="UTF-8"?>
<svg width="21px" height="29px" viewBox="0 0 21 29" version="1.1" xmlns="http://www.w3.org/2000/svg" xmlns:xlink="http://www.w3.org/1999/xlink">
    <!-- Generator: Sketch 43.2 (39069) - http://www.bohemiancoding.com/sketch -->
    <title>Fill 1</title>
    <desc>Created with Sketch.</desc>
    <defs></defs>
    <g id="10-Teacher-Dashboard:-Acitivity-Planner" stroke="none" stroke-width="1" fill="none" fill-rule="evenodd">
        <g id="10_01-Assign-A-New-Activity" transform="translate(-211.000000, -788.000000)" fill="#969696">
            <path d="M228.148025,802.348857 C229.006237,802.348857 229.813306,802.680665 230.422037,803.28316 C230.510603,803.369231 230.631601,803.41289 230.752599,803.417879 C230.877339,803.415385 230.993347,803.364241 231.080665,803.276923 C231.280249,803.071102 231.471102,802.927651 231.764241,802.762994 C231.910187,802.680665 232,802.527235 232,802.357588 L232,797.022453 C232,795.957173 231.135551,795.091476 230.067775,795.091476 L224.990852,795.091476 C224.914761,794.970478 224.837422,794.863202 224.755094,794.760915 C225.343867,794.026195 225.664449,793.118087 225.664449,792.163825 C225.664449,789.86736 223.797089,788 221.500624,788 C219.204158,788 217.336798,789.86736 217.336798,792.163825 C217.336798,793.120582 217.65738,794.02869 218.249896,794.764657 C218.165073,794.869439 218.086486,794.977963 218.01289,795.091476 L212.933472,795.091476 C211.865696,795.091476 211,795.957173 211,797.022453 L211,802.357588 C211,802.535967 211.10104,802.689397 211.246985,802.767983 C211.486486,802.90395 211.709771,803.071102 211.909356,803.265696 C212.091476,803.442827 212.380873,803.44158 212.560499,803.261954 C213.149272,802.673181 213.963825,802.348857 214.853222,802.348857 C216.638254,802.348857 218.091476,803.800832 218.091476,805.585863 C218.091476,807.370894 216.638254,808.824116 214.853222,808.824116 C213.99501,808.824116 213.187942,808.49106 212.57921,807.888565 C212.490644,807.802495 212.370894,807.752599 212.248649,807.755094 C212.123909,807.756341 212.0079,807.807484 211.920582,807.894802 C211.720998,808.100624 211.530146,808.24657 211.235759,808.408732 C211.09106,808.49106 211,808.645738 211,808.814137 L211,814.159252 C211,815.224532 211.865696,816.091476 212.933472,816.091476 L230.067775,816.091476 C231.135551,816.091476 232,815.224532 232,814.159252 L232,808.814137 C232,808.645738 231.910187,808.492308 231.764241,808.408732 C231.552183,808.290229 231.351351,808.146778 231.170478,807.980873 C231.11684,807.882328 231.027027,807.803742 230.916008,807.765073 C230.747609,807.707692 230.562994,807.750104 230.437006,807.874844 C229.824532,808.487318 229.011227,808.824116 228.148025,808.824116 C226.361746,808.824116 224.909771,807.370894 224.909771,805.585863 C224.909771,803.800832 226.361746,802.348857 228.148025,802.348857" id="Fill-1"></path>
        </g>
    </g>
</svg>