<?xml version="1.0" encoding="UTF-8"?>
<svg width="27px" height="16px" viewBox="0 0 27 16" version="1.1" xmlns="http://www.w3.org/2000/svg" xmlns:xlink="http://www.w3.org/1999/xlink">
    <!-- Generator: Sketch 43.2 (39069) - http://www.bohemiancoding.com/sketch -->
    <title>Group 34</title>
    <desc>Created with Sketch.</desc>
    <defs></defs>
    <g id="V1" stroke="none" stroke-width="1" fill="none" fill-rule="evenodd">
        <g id="09_12-Lessons-Recommendation-Page" transform="translate(-486.000000, -477.000000)" fill="#348FDF">
            <g id="Group-28" transform="translate(457.000000, 467.000000)">
                <g id="Group-45" transform="translate(29.000000, 6.000000)">
                    <g id="Group-29" transform="translate(0.000000, 4.000000)">
                        <g id="Group-34">
                            <path d="M14.3684211,7.61904762 C12.3336878,7.61904762 10.6842105,5.91346571 10.6842105,3.80952381 C10.6842105,1.70558191 12.3336878,0 14.3684211,0 C16.4031543,0 18.0526316,1.70558191 18.0526316,3.80952381 C18.0526316,5.91346571 16.4031543,7.61904762 14.3684211,7.61904762 Z M14,16 C10.1340068,16 7,16 7,16 C7,12.2129046 10.1340068,9.14285714 14,9.14285714 C17.8659932,9.14285714 21,12.2129046 21,16 C21,16 17.8659932,16 14,16 Z" id="Combined-Shape-Copy"></path>
                            <path d="M5.57142857,10.5 C4.03292105,10.5 2.78571429,9.26878306 2.78571429,7.75 C2.78571429,6.23121694 4.03292105,5 5.57142857,5 C7.10993609,5 8.35714286,6.23121694 8.35714286,7.75 C8.35714286,9.26878306 7.10993609,10.5 5.57142857,10.5 Z M4.875,16 C2.18261184,16 0,16 0,16 C0,13.3421296 2.18261184,11.1875 4.875,11.1875 C7.56738816,11.1875 9.75,13.3421296 9.75,16 C9.75,16 7.56738816,16 4.875,16 Z" id="Combined-Shape-Copy-2"></path>
                            <path d="M22.8214286,10.5 C21.2829211,10.5 20.0357143,9.26878306 20.0357143,7.75 C20.0357143,6.23121694 21.2829211,5 22.8214286,5 C24.3599361,5 25.6071429,6.23121694 25.6071429,7.75 C25.6071429,9.26878306 24.3599361,10.5 22.8214286,10.5 Z M22.125,16 C19.4326118,16 17.25,16 17.25,16 C17.25,13.3421296 19.4326118,11.1875 22.125,11.1875 C24.8173882,11.1875 27,13.3421296 27,16 C27,16 24.8173882,16 22.125,16 Z" id="Combined-Shape-Copy-3"></path>
                        </g>
                    </g>
                </g>
            </g>
        </g>
    </g>
</svg>