<?xml version="1.0" encoding="UTF-8"?>
<svg width="28px" height="33px" viewBox="0 0 28 33" version="1.1" xmlns="http://www.w3.org/2000/svg" xmlns:xlink="http://www.w3.org/1999/xlink">
    <!-- Generator: Sketch 43.2 (39069) - http://www.bohemiancoding.com/sketch -->
    <title>Group 17</title>
    <desc>Created with Sketch.</desc>
    <defs></defs>
    <g id="10-Teacher-Dashboard:-Acitivity-Planner" stroke="none" stroke-width="1" fill="none" fill-rule="evenodd">
        <g id="10_01-Assign-A-New-Activity" transform="translate(-546.000000, -679.000000)" fill="#969696">
            <g id="Group-9" transform="translate(511.000000, 656.000000)">
                <g id="Group-12" transform="translate(35.000000, 20.000000)">
                    <g id="Group-17" transform="translate(0.000000, 2.000000)">
                        <path d="M12.5286345,10.9944408 C12.5575988,10.6714675 12.5907673,10.3524322 12.62843,10.0461754 C12.7300574,9.21978304 12.8502504,8.58057035 13.0181461,8.12607427 C13.4634002,6.92076551 14.4267287,5.62207742 15.4524293,4.88038895 C16.0108959,4.47655943 16.788372,4.60556853 17.1889709,5.16853886 C17.5895698,5.73150918 17.4615928,6.51525531 16.9031262,6.91908483 C16.2870931,7.36454096 15.6261847,8.25552866 15.3505608,9.00164648 C15.2703338,9.2188219 15.177215,9.71404864 15.0984115,10.354846 C15.0739456,10.5537926 15.051383,10.7606747 15.030726,10.9717132 C16.7085478,10.5187939 18.6496556,9.41714725 21.2680909,9.71907535 C24.5158103,10.0935653 26.5552772,12.8030799 27.2179846,16.3655209 C27.880692,19.9279618 26.3833722,24.9706735 24.5454609,27.7124714 C22.7075496,30.4542694 19.7242451,33.4983032 17.6081545,33.4983032 C15.492064,33.4983032 14.725151,32.0377028 14.725151,32.0377028 C14.3718148,31.6230019 13.8375549,31.6038179 13.5054167,32.0377028 C13.5054167,32.0377028 12.7128585,33.4983032 10.9128752,33.4983032 C9.11289198,33.4983032 5.21013441,30.7186351 2.85876822,27.2810781 C0.507402027,23.843521 -0.551756554,20.6559666 0.282450406,16.5881234 C1.11665737,12.5202802 3.2823209,10.1176844 5.53414282,9.71907535 C7.35481319,9.39678712 10.3975432,10.5542045 12.5286345,10.9944408 Z M4.41252495,15.6601269 C4.36087389,15.8301812 4.2904681,16.1190159 4.2221899,16.509741 C4.00526788,17.7510871 3.96453995,19.1498821 4.21022721,20.6206809 C4.39811771,21.7454813 4.84189566,22.8264334 5.46122062,23.8442286 C5.9565994,24.6583313 6.45400823,25.2689006 6.80297178,25.6246873 C7.16539019,25.9941919 7.75633468,25.997567 8.12288325,25.6322259 C8.48943182,25.2668847 8.49277997,24.6711746 8.13036156,24.30167 C8.07407357,24.2442814 7.96088497,24.1187923 7.8098647,23.9334149 C7.55216439,23.6170878 7.29339995,23.256407 7.05238795,22.8603292 C6.54932656,22.0336009 6.19503921,21.1706296 6.05097871,20.3082161 C5.84365778,19.0670961 5.87823645,17.8794968 6.06055122,16.8361922 C6.11496761,16.524792 6.1672564,16.310281 6.19740172,16.2110315 C6.3483128,15.7141765 6.07109213,15.1880718 5.57821202,15.0359437 C5.08533191,14.8838156 4.56343603,15.1632719 4.41252495,15.6601269 Z" id="Combined-Shape" fill-rule="nonzero"></path>
                        <path d="M7.76482264,7.8681129 C10.8445558,7.8681129 12.9667673,5.80178865 12.9667673,5.80178865 C13.1735458,5.62388911 13.1741093,5.33026541 12.9667673,5.1575574 C12.9667673,5.1575574 10.8445558,3.09123315 7.76482264,3.09123315 C4.68508946,3.09123315 2.56287799,5.1575574 2.56287799,5.1575574 C2.35609951,5.33545695 2.35553598,5.62908064 2.56287799,5.80178865 C2.56287799,5.80178865 4.68508946,7.8681129 7.76482264,7.8681129 Z" id="Oval-6" transform="translate(7.764823, 5.479673) rotate(-318.000000) translate(-7.764823, -5.479673) "></path>
                    </g>
                </g>
            </g>
        </g>
    </g>
</svg>