<?xml version="1.0" encoding="UTF-8"?>
<svg width="21px" height="25px" viewBox="0 0 21 25" version="1.1" xmlns="http://www.w3.org/2000/svg" xmlns:xlink="http://www.w3.org/1999/xlink">
    <!-- Generator: Sketch 48.2 (47327) - http://www.bohemiancoding.com/sketch -->
    <title>Group 16</title>
    <desc>Created with Sketch.</desc>
    <defs></defs>
    <g id="10_03-Explore-All-Activities" stroke="none" stroke-width="1" fill="none" fill-rule="evenodd" transform="translate(-518.000000, -480.000000)">
        <g id="Group-16" transform="translate(518.000000, 479.000000)" fill="#3B3B3B">
            <path d="M9.46531453,8.75847099 C9.48719693,8.51641851 9.51225553,8.27731729 9.54070945,8.04779296 C9.61748846,7.42845279 9.70829355,6.94939448 9.83513787,6.60877214 C10.1715248,5.70545283 10.8993142,4.73215033 11.6742255,4.1762915 C12.0961439,3.87364124 12.6835228,3.97032719 12.9861731,4.3922456 C13.2888234,4.81416402 13.1921374,5.40154299 12.770219,5.70419325 C12.3048094,6.03804059 11.8054967,6.70579181 11.5972643,7.26497022 C11.5366533,7.42773246 11.4663025,7.79888041 11.4067669,8.27912632 C11.388283,8.42822696 11.3712371,8.58327488 11.3556309,8.74143784 C12.6232161,8.40199717 14.0897123,7.5763675 16.0679258,7.80264768 C18.5215599,8.08330938 20.062366,10.1139566 20.5630378,12.7838299 C21.0637096,15.4537033 19.9324927,19.2329663 18.5439608,21.2878083 C17.155429,23.3426502 14.9015588,25.6240031 13.302864,25.6240031 C11.7041692,25.6240031 11.296559,24.7034801 11.296559,24.7034801 C10.9213917,24.2975854 10.3768959,24.2865393 10.030612,24.7133101 C10.030612,24.7133101 9.60449475,25.6240031 8.24461729,25.6240031 C6.88473982,25.6240031 3.93622792,23.5407793 2.15978368,20.9645003 C0.383339443,18.3882213 -0.416849045,15.9993068 0.21338973,12.9506595 C0.843628505,9.9020122 2.47977541,8.10138546 4.18101449,7.80264768 C5.55652095,7.56110859 7.85528674,8.42853571 9.46531453,8.75847099 Z M3.33363836,12.255172 C3.29461626,12.3826193 3.24142507,12.5990867 3.18984127,12.8919158 C3.02595788,13.8222433 2.99518815,14.870571 3.18080353,15.972862 C3.32275377,16.8158443 3.65802557,17.6259643 4.12592217,18.3887515 C4.50017812,18.9988813 4.87596775,19.4564728 5.1396078,19.7231173 C5.41341292,20.0000427 5.85986824,20.0025722 6.13679366,19.7287671 C6.41371909,19.454962 6.4162486,19.0085066 6.14244348,18.7315812 C6.09991822,18.6885713 6.01440486,18.5945234 5.90030987,18.4555923 C5.7056187,18.2185208 5.51012359,17.9482083 5.32804035,17.6513676 C4.94798023,17.0317756 4.68031808,16.3850213 4.57148117,15.738685 C4.41485135,14.8085269 4.44097534,13.91848 4.57871315,13.1365749 C4.61982443,12.9031958 4.65932832,12.7424304 4.68210295,12.6680478 C4.79611544,12.2956796 4.58667674,11.9013901 4.21430853,11.7873776 C3.84194031,11.6733651 3.44765085,11.8828038 3.33363836,12.255172 Z" id="Combined-Shape-Copy" fill-rule="nonzero"></path>
            <path d="M6.17397315,5.80005824 C8.50069464,5.80005824 10.014721,4.32183793 10.014721,4.32183793 C10.220256,4.14963705 10.2125615,3.85742477 10.0041051,3.69002139 C10.0041051,3.69002139 8.50069464,2.22002308 6.17397315,2.22002308 C3.84725165,2.22002308 2.33322526,3.6982434 2.33322526,3.6982434 C2.12769025,3.87044427 2.13538478,4.16265656 2.34384121,4.33005993 C2.34384121,4.33005993 3.84725165,5.80005824 6.17397315,5.80005824 Z" id="Oval-6-Copy" transform="translate(6.173973, 4.010041) rotate(-318.000000) translate(-6.173973, -4.010041) "></path>
        </g>
    </g>
</svg>