<?xml version="1.0" encoding="utf-8"?>
<!-- Generator: Adobe Illustrator 21.0.2, SVG Export Plug-In . SVG Version: 6.00 Build 0)  -->
<svg version="1.1" id="Layer_1" xmlns="http://www.w3.org/2000/svg" xmlns:xlink="http://www.w3.org/1999/xlink" x="0px" y="0px"
	 viewBox="0 0 16 20" style="enable-background:new 0 0 16 20;" xml:space="preserve">
<style type="text/css">
	.st0{fill:#969696;}
</style>
<title>Group 11</title>
<desc>Created with Sketch.</desc>
<g id="Customize-Slides">
	<g id="E-12_00-Select-Edition" transform="translate(-812.000000, -800.000000)">
		<g id="Group-8" transform="translate(204.000000, 185.000000)">
			<g id="Group-22" transform="translate(595.000000, 604.000000)">
				<g id="Group-7" transform="translate(13.000000, 11.000000)">
					<g id="Group-11">
						<g id="Rectangle-48_1_">
							<path class="st0" d="M2,17.4H1c-0.6,0-1-0.4-1-1V1c0-0.6,0.4-1,1-1h10.5c0.6,0,1,0.4,1,1v1h-1V1H1v15.4h1V17.4z"/>
						</g>
						<g id="Rectangle-48-Copy">
							<path class="st0" d="M13.8,19.4H4.3c-0.8,0-1.5-0.7-1.5-1.5V4.3c0-0.8,0.7-1.5,1.5-1.5h9.5c0.8,0,1.5,0.7,1.5,1.5v13.7
								C15.3,18.8,14.6,19.4,13.8,19.4z M4.3,3.8C4,3.8,3.8,4,3.8,4.3v13.7c0,0.3,0.2,0.5,0.5,0.5h9.5c0.3,0,0.5-0.2,0.5-0.5V4.3
								c0-0.3-0.2-0.5-0.5-0.5H4.3z"/>
						</g>
					</g>
				</g>
			</g>
		</g>
	</g>
</g>
</svg>
