<?xml version="1.0" encoding="UTF-8"?>
<svg width="43px" height="20px" viewBox="0 0 43 20" version="1.1" xmlns="http://www.w3.org/2000/svg" xmlns:xlink="http://www.w3.org/1999/xlink">
    <!-- Generator: Sketch 46.2 (44496) - http://www.bohemiancoding.com/sketch -->
    <title>Group 46</title>
    <desc>Created with Sketch.</desc>
    <defs></defs>
    <g id="00-Homepage" stroke="none" stroke-width="1" fill="none" fill-rule="evenodd">
        <g id="00_00-Homepage" transform="translate(-1019.000000, -1324.000000)">
            <g id="Group-46" transform="translate(1019.000000, 1324.000000)">
                <path d="M3.23353896,16 L42.0003895,16 C42.5461844,16 43,15.5518945 43,14.9991283 L43,1.00087166 C43,0.444630861 42.5524591,0 42.0003895,0 L0.9996105,0 C0.453815624,0 0,0.448105505 0,1.00087166 L0,14.9991283 C0,15.0428655 0.00276699261,15.0859126 0.00813422531,15.1281078 L0.00813422531,19.2937952 L3.23353896,16 Z" id="Combined-Shape" fill="#6C0045"></path>
                <path d="M16.176,12.688 L16.176,4 L14.496,4 L14.496,10.156 L11.208,4 L9,4 L9,12.688 L10.692,12.688 L10.692,6.556 L14.04,12.688 L16.176,12.688 Z M19.788,9.1 L23.232,9.1 L23.232,7.588 L19.788,7.588 L19.788,5.548 L23.448,5.548 L23.448,4 L17.94,4 L17.94,12.688 L23.664,12.688 L23.664,11.128 L19.788,11.128 L19.788,9.1 Z M33.66,12.688 L35.52,4 L33.66,4 L32.532,10.732 L32.472,10.732 L30.876,4 L28.896,4 L27.348,10.696 L27.3,10.696 L26.076,4 L24.144,4 L26.016,12.688 L28.452,12.688 L29.844,6.7 L29.892,6.7 L31.296,12.688 L33.66,12.688 Z" id="NEW" fill="#FFFFFF"></path>
            </g>
        </g>
    </g>
</svg>