<?xml version="1.0" encoding="UTF-8"?>
<svg width="10px" height="14px" viewBox="0 0 10 14" version="1.1" xmlns="http://www.w3.org/2000/svg" xmlns:xlink="http://www.w3.org/1999/xlink">
    <!-- Generator: Sketch 48.1 (47250) - http://www.bohemiancoding.com/sketch -->
    <title>Group 33</title>
    <desc>Created with Sketch.</desc>
    <defs></defs>
    <g id="15_03-Activity-Score-Student-Report-Download" stroke="none" stroke-width="1" fill="none" fill-rule="evenodd" transform="translate(-924.000000, -342.000000)">
        <g id="Group-20" transform="translate(893.000000, 289.000000)">
            <g id="Group-15">
                <g id="Group-14">
                    <g id="Group-5">
                        <g id="Group-4" transform="translate(15.000000, 46.750000)">
                            <g id="Group-24">
                                <g id="Group-5" transform="translate(21.000000, 13.750000) rotate(-180.000000) translate(-21.000000, -13.750000) translate(16.000000, 6.250000)">
                                    <g id="Group-13">
                                        <g id="Group-18" transform="translate(0.000000, 0.578571)">
                                            <g id="Group-33" transform="translate(0.000000, 0.000000)">
                                                <path d="M0.608256,9.7059529 L6.68587359,12.9679345 L9.391744,12.9679345 L9.391744,5.33433771 L6.3029323,2.608256 L0.608256,2.608256 L0.608256,9.7059529 Z" id="Rectangle-15-Copy" stroke="#666666" stroke-width="1.216512" transform="translate(5.000000, 7.788095) scale(-1, -1) translate(-5.000000, -7.788095) "></path>
                                                <polygon id="Path-30-Copy" fill="#666666" fill-rule="nonzero" transform="translate(2.500000, 10.945238) rotate(-180.000000) translate(-2.500000, -10.945238) " points="1.48801931 8.84047619 0.5 8.84047619 0.5 13.05 4.5 13.05 4.5 11.9912746 1.48801931 11.9912746"></polygon>
                                                <path d="M5.78849615,4.18299083 L6.85708724,5.31309305 L6.15235341,6.00222039 L3.97359728,3.66445464 L6.19004007,1.3729735 L6.85708724,2.07383267 L5.81154837,3.13060988 L9.97359728,3.13060988 C9.97359728,3.83219718 9.97359728,4.18299083 9.97359728,4.18299083 C9.97359728,4.18299083 8.57856527,4.18299083 5.78850125,4.18299083 Z" id="Combined-Shape-Copy" fill="#666666" fill-rule="nonzero" transform="translate(6.973597, 3.687597) rotate(-270.000000) translate(-6.973597, -3.687597) "></path>
                                            </g>
                                        </g>
                                    </g>
                                </g>
                            </g>
                        </g>
                    </g>
                </g>
            </g>
        </g>
    </g>
</svg>