<?xml version="1.0" encoding="UTF-8"?>
<svg width="13px" height="16px" viewBox="0 0 13 16" version="1.1" xmlns="http://www.w3.org/2000/svg" xmlns:xlink="http://www.w3.org/1999/xlink">
    <!-- Generator: Sketch 47.1 (45422) - http://www.bohemiancoding.com/sketch -->
    <title>Combined Shape</title>
    <desc>Created with Sketch.</desc>
    <defs></defs>
    <g id="Customize-Slides" stroke="none" stroke-width="1" fill="none" fill-rule="evenodd">
        <g id="E-12_02-Customize-Edition" transform="translate(-62.000000, -1269.000000)" fill="#969696">
            <g id="Group-36" transform="translate(62.000000, 986.000000)">
                <path d="M1,283 L12,283 C12.5522847,283 13,283.447715 13,284 L13,298 C13,298.552285 12.5522847,299 12,299 L1,299 C0.44771525,299 6.76353751e-17,298.552285 0,298 L0,284 L0,284 C-6.76353751e-17,283.447715 0.44771525,283 1,283 L1,283 Z M1.73333333,286.555556 L11.2666667,286.555556 L11.2666667,285.666667 L1.73333333,285.666667 L1.73333333,286.555556 Z M1.73333333,289.222222 L11.2666667,289.222222 L11.2666667,288.333333 L1.73333333,288.333333 L1.73333333,289.222222 Z M1.73333333,291.888889 L11.2666667,291.888889 L11.2666667,291 L1.73333333,291 L1.73333333,291.888889 Z" id="Combined-Shape"></path>
            </g>
        </g>
    </g>
</svg>