<svg width="313" height="112" viewBox="0 0 313 112" fill="none" xmlns="http://www.w3.org/2000/svg">
<rect x="14.5" y="0.5" width="72" height="31" rx="7.5" fill="white"/>
<rect x="14.5" y="0.5" width="72" height="31" rx="7.5" stroke="#CFCFCF"/>
<path d="M26.8 11.312L29.824 20H28.612L27.736 17.42H24.4L23.548 20H22.432L25.36 11.312H26.8ZM26.068 12.32H26.056L24.664 16.472H27.46L26.068 12.32ZM36.1211 20H35.2091L35.1251 19.34L35.1131 19.328C34.5851 19.808 33.9611 20.144 33.0731 20.144C31.6691 20.144 30.7211 19.256 30.7211 17.012C30.7211 14.576 31.9571 13.7 33.3251 13.7C34.0331 13.7 34.6211 13.928 35.0531 14.276V10.94H36.1211V20ZM35.0411 15.176C34.7531 14.96 34.1771 14.636 33.4691 14.636C32.2811 14.636 31.8491 15.584 31.8491 17.012C31.8491 18.512 32.3171 19.232 33.3971 19.232C34.0331 19.232 34.6571 18.86 35.0411 18.476V15.176ZM37.3589 22.676C36.9629 22.676 36.4109 22.568 36.1949 22.436L36.3149 21.548C36.5549 21.644 36.9149 21.728 37.2149 21.728C37.7069 21.728 38.0189 21.488 38.0189 20.756V13.832H39.1109V20.804C39.1109 22.112 38.4749 22.676 37.3589 22.676ZM39.3629 11.756C39.3629 12.26 39.0869 12.548 38.5949 12.548C38.1029 12.548 37.8149 12.26 37.8149 11.756C37.8149 11.264 38.1029 10.976 38.5949 10.976C39.0869 10.976 39.3629 11.264 39.3629 11.756ZM43.4437 20.144C41.2597 20.144 40.5997 18.62 40.5997 16.928C40.5997 14.672 41.9197 13.7 43.5037 13.7C45.2317 13.7 45.9517 14.84 45.9517 16.364C45.9517 16.604 45.9397 16.88 45.9037 17.168H41.7517C41.7997 18.74 42.4957 19.232 43.4797 19.232C44.3557 19.232 44.7637 18.836 44.9317 18.14L45.8917 18.356C45.6397 19.556 44.6797 20.144 43.4437 20.144ZM44.8237 16.304C44.8237 15.2 44.4037 14.588 43.4317 14.588C42.6157 14.588 41.8237 15.08 41.7637 16.304H44.8237ZM49.9825 20.144C47.9425 20.144 47.1505 18.824 47.1505 16.976C47.1505 14.828 48.2545 13.7 50.1025 13.7C51.4825 13.7 52.3945 14.42 52.4785 15.848L51.4345 15.992C51.3385 15.08 50.9185 14.612 50.0545 14.612C49.1665 14.612 48.2905 15.092 48.2905 16.844C48.2905 18.68 49.0345 19.232 50.0185 19.232C50.8585 19.232 51.3985 18.824 51.5545 17.912L52.5145 18.116C52.3105 19.544 51.2185 20.144 49.9825 20.144ZM57.4355 19.736C57.1355 19.94 56.4995 20.144 55.9235 20.144C54.7715 20.144 54.1835 19.616 54.1835 18.38V14.708H53.2355V13.832H54.1835V12.044L55.2755 11.876V13.832H56.9795V14.708H55.2755V18.236C55.2755 18.884 55.4195 19.244 56.1635 19.244C56.5355 19.244 56.9795 19.088 57.2435 18.944L57.4355 19.736ZM59.6304 20H58.5384V13.832H59.6304V20ZM59.8824 11.852C59.8824 12.356 59.5944 12.644 59.1024 12.644C58.6104 12.644 58.3344 12.356 58.3344 11.852C58.3344 11.348 58.6104 11.072 59.1024 11.072C59.5944 11.072 59.8824 11.348 59.8824 11.852ZM62.9787 20L60.6267 13.832H61.8147L63.6267 18.908H63.6387L65.4267 13.832H66.5427L64.2267 20H62.9787ZM69.9281 20.144C67.7441 20.144 67.0841 18.62 67.0841 16.928C67.0841 14.672 68.4041 13.7 69.9881 13.7C71.7161 13.7 72.4361 14.84 72.4361 16.364C72.4361 16.604 72.4241 16.88 72.3881 17.168H68.2361C68.2841 18.74 68.9801 19.232 69.9641 19.232C70.8401 19.232 71.2481 18.836 71.4161 18.14L72.3761 18.356C72.1241 19.556 71.1641 20.144 69.9281 20.144ZM71.3081 16.304C71.3081 15.2 70.8881 14.588 69.9161 14.588C69.1001 14.588 68.3081 15.08 68.2481 16.304H71.3081ZM75.9994 13.7C77.4634 13.7 78.0634 14.396 78.2554 15.488L77.2714 15.704C77.1274 14.996 76.8874 14.564 75.9874 14.564C75.0874 14.564 74.7994 14.96 74.7994 15.428C74.7994 16.064 75.3034 16.244 76.1674 16.424C77.2954 16.664 78.3634 16.892 78.3634 18.272C78.3634 19.448 77.4514 20.144 75.9514 20.144C74.5354 20.144 73.6834 19.592 73.4914 18.356L74.4634 18.092C74.6314 18.752 74.9074 19.28 75.9994 19.28C76.7434 19.28 77.2834 19.052 77.2834 18.392C77.2834 17.708 76.7794 17.588 75.9394 17.42C74.9314 17.216 73.7194 17 73.7194 15.56C73.7194 14.312 74.7514 13.7 75.9994 13.7Z" fill="black"/>
<rect x="95.5" y="0.5" width="60" height="31" rx="7.5" fill="white"/>
<rect x="95.5" y="0.5" width="60" height="31" rx="7.5" stroke="#CFCFCF"/>
<path d="M107.8 11.312L110.824 20H109.612L108.736 17.42H105.4L104.548 20H103.432L106.36 11.312H107.8ZM107.068 12.32H107.056L105.664 16.472H108.46L107.068 12.32ZM117.121 20H116.209L116.125 19.34L116.113 19.328C115.585 19.808 114.961 20.144 114.073 20.144C112.669 20.144 111.721 19.256 111.721 17.012C111.721 14.576 112.957 13.7 114.325 13.7C115.033 13.7 115.621 13.928 116.053 14.276V10.94H117.121V20ZM116.041 15.176C115.753 14.96 115.177 14.636 114.469 14.636C113.281 14.636 112.849 15.584 112.849 17.012C112.849 18.512 113.317 19.232 114.397 19.232C115.033 19.232 115.657 18.86 116.041 18.476V15.176ZM120.471 20L118.119 13.832H119.307L121.119 18.908H121.131L122.919 13.832H124.035L121.719 20H120.471ZM127.42 20.144C125.236 20.144 124.576 18.62 124.576 16.928C124.576 14.672 125.896 13.7 127.48 13.7C129.208 13.7 129.928 14.84 129.928 16.364C129.928 16.604 129.916 16.88 129.88 17.168H125.728C125.776 18.74 126.472 19.232 127.456 19.232C128.332 19.232 128.74 18.836 128.908 18.14L129.868 18.356C129.616 19.556 128.656 20.144 127.42 20.144ZM128.8 16.304C128.8 15.2 128.38 14.588 127.408 14.588C126.592 14.588 125.8 15.08 125.74 16.304H128.8ZM134.787 14.84C134.019 14.732 133.107 15.044 132.603 15.512V20H131.511V13.832H132.423L132.507 14.72C133.047 13.988 133.695 13.7 134.559 13.7C134.631 13.7 134.679 13.7 134.787 13.712V14.84ZM135.882 20V10.94H136.962V14.516C137.502 14.036 138.15 13.7 139.05 13.7C140.322 13.7 141.294 14.504 141.294 16.772C141.294 19.172 140.118 20.144 138.69 20.144C137.958 20.144 137.346 19.808 136.902 19.46H136.89L136.83 20H135.882ZM136.974 18.584C137.25 18.788 137.85 19.22 138.558 19.22C139.722 19.22 140.166 18.26 140.166 16.76C140.166 15.296 139.722 14.624 138.702 14.624C138.018 14.624 137.334 15.044 136.974 15.392V18.584ZM144.835 13.7C146.299 13.7 146.899 14.396 147.091 15.488L146.107 15.704C145.963 14.996 145.723 14.564 144.823 14.564C143.923 14.564 143.635 14.96 143.635 15.428C143.635 16.064 144.139 16.244 145.003 16.424C146.131 16.664 147.199 16.892 147.199 18.272C147.199 19.448 146.287 20.144 144.787 20.144C143.371 20.144 142.519 19.592 142.327 18.356L143.299 18.092C143.467 18.752 143.743 19.28 144.835 19.28C145.579 19.28 146.119 19.052 146.119 18.392C146.119 17.708 145.615 17.588 144.775 17.42C143.767 17.216 142.555 17 142.555 15.56C142.555 14.312 143.587 13.7 144.835 13.7Z" fill="black"/>
<rect x="164.5" y="0.5" width="68" height="31" rx="7.5" fill="white"/>
<rect x="164.5" y="0.5" width="68" height="31" rx="7.5" stroke="#CFCFCF"/>
<path d="M174.244 20H173.152V11.312H175.984C178.204 11.312 178.876 12.536 178.876 13.916C178.876 15.98 177.652 16.844 175.564 16.844H174.244V20ZM175.48 15.896C176.74 15.896 177.736 15.596 177.736 13.976C177.736 12.728 177.052 12.248 175.66 12.248H174.244V15.896H175.48ZM183.643 14.84C182.875 14.732 181.963 15.044 181.459 15.512V20H180.367V13.832H181.279L181.363 14.72C181.903 13.988 182.551 13.7 183.415 13.7C183.487 13.7 183.535 13.7 183.643 13.712V14.84ZM187.034 20.144C184.898 20.144 184.19 18.764 184.19 16.94C184.19 14.948 185.222 13.7 187.19 13.7C189.146 13.7 189.95 14.96 189.95 16.796C189.95 18.824 189.11 20.144 187.034 20.144ZM187.094 19.268C188.162 19.268 188.81 18.62 188.81 16.868C188.81 15.164 188.21 14.6 187.142 14.6C186.05 14.6 185.318 15.248 185.318 16.892C185.318 18.524 185.894 19.268 187.094 19.268ZM196.647 20H195.555V15.98C195.555 15.128 195.243 14.66 194.403 14.66C193.695 14.66 192.927 15.116 192.603 15.404V20H191.511V13.832H192.471L192.531 14.564C193.131 14.084 193.899 13.7 194.751 13.7C196.071 13.7 196.647 14.42 196.647 15.812V20ZM200.955 20.144C198.819 20.144 198.111 18.764 198.111 16.94C198.111 14.948 199.143 13.7 201.111 13.7C203.067 13.7 203.871 14.96 203.871 16.796C203.871 18.824 203.031 20.144 200.955 20.144ZM201.015 19.268C202.083 19.268 202.731 18.62 202.731 16.868C202.731 15.164 202.131 14.6 201.063 14.6C199.971 14.6 199.239 15.248 199.239 16.892C199.239 18.524 199.815 19.268 201.015 19.268ZM205.409 13.832H206.501V17.852C206.501 18.704 206.705 19.172 207.617 19.172C208.325 19.172 209.081 18.716 209.405 18.416V13.832H210.497V20H209.549L209.477 19.292C208.877 19.784 208.145 20.12 207.293 20.12C205.985 20.12 205.409 19.4 205.409 18.02V13.832ZM217.542 20H216.45V15.98C216.45 15.128 216.138 14.66 215.298 14.66C214.59 14.66 213.822 15.116 213.498 15.404V20H212.406V13.832H213.366L213.426 14.564C214.026 14.084 214.794 13.7 215.646 13.7C216.966 13.7 217.542 14.42 217.542 15.812V20ZM221.394 13.7C222.858 13.7 223.458 14.396 223.65 15.488L222.666 15.704C222.522 14.996 222.282 14.564 221.382 14.564C220.482 14.564 220.194 14.96 220.194 15.428C220.194 16.064 220.698 16.244 221.562 16.424C222.69 16.664 223.758 16.892 223.758 18.272C223.758 19.448 222.846 20.144 221.346 20.144C219.93 20.144 219.078 19.592 218.886 18.356L219.858 18.092C220.026 18.752 220.302 19.28 221.394 19.28C222.138 19.28 222.678 19.052 222.678 18.392C222.678 17.708 222.174 17.588 221.334 17.42C220.326 17.216 219.114 17 219.114 15.56C219.114 14.312 220.146 13.7 221.394 13.7Z" fill="black"/>
<rect x="241.5" y="0.5" width="57" height="31" rx="7.5" fill="white"/>
<rect x="241.5" y="0.5" width="57" height="31" rx="7.5" stroke="#CFCFCF"/>
<path d="M253.8 11.312L256.824 20H255.612L254.736 17.42H251.4L250.548 20H249.432L252.36 11.312H253.8ZM253.068 12.32H253.056L251.664 16.472H254.46L253.068 12.32ZM261.486 14.84C260.718 14.732 259.806 15.044 259.302 15.512V20H258.21V13.832H259.122L259.206 14.72C259.746 13.988 260.394 13.7 261.258 13.7C261.33 13.7 261.378 13.7 261.486 13.712V14.84ZM266.025 19.736C265.725 19.94 265.089 20.144 264.513 20.144C263.361 20.144 262.773 19.616 262.773 18.38V14.708H261.825V13.832H262.773V12.044L263.865 11.876V13.832H265.569V14.708H263.865V18.236C263.865 18.884 264.009 19.244 264.753 19.244C265.125 19.244 265.569 19.088 265.833 18.944L266.025 19.736ZM268.22 20H267.128V13.832H268.22V20ZM268.472 11.852C268.472 12.356 268.184 12.644 267.692 12.644C267.2 12.644 266.924 12.356 266.924 11.852C266.924 11.348 267.2 11.072 267.692 11.072C268.184 11.072 268.472 11.348 268.472 11.852ZM272.565 20.144C270.525 20.144 269.733 18.824 269.733 16.976C269.733 14.828 270.837 13.7 272.685 13.7C274.065 13.7 274.977 14.42 275.061 15.848L274.017 15.992C273.921 15.08 273.501 14.612 272.637 14.612C271.749 14.612 270.873 15.092 270.873 16.844C270.873 18.68 271.617 19.232 272.601 19.232C273.441 19.232 273.981 18.824 274.137 17.912L275.097 18.116C274.893 19.544 273.801 20.144 272.565 20.144ZM277.666 20H276.574V10.94H277.666V20ZM282.022 20.144C279.838 20.144 279.178 18.62 279.178 16.928C279.178 14.672 280.498 13.7 282.082 13.7C283.81 13.7 284.53 14.84 284.53 16.364C284.53 16.604 284.518 16.88 284.482 17.168H280.33C280.378 18.74 281.074 19.232 282.058 19.232C282.934 19.232 283.342 18.836 283.51 18.14L284.47 18.356C284.218 19.556 283.258 20.144 282.022 20.144ZM283.402 16.304C283.402 15.2 282.982 14.588 282.01 14.588C281.194 14.588 280.402 15.08 280.342 16.304H283.402ZM288.093 13.7C289.557 13.7 290.157 14.396 290.349 15.488L289.365 15.704C289.221 14.996 288.981 14.564 288.081 14.564C287.181 14.564 286.893 14.96 286.893 15.428C286.893 16.064 287.397 16.244 288.261 16.424C289.389 16.664 290.457 16.892 290.457 18.272C290.457 19.448 289.545 20.144 288.045 20.144C286.629 20.144 285.777 19.592 285.585 18.356L286.557 18.092C286.725 18.752 287.001 19.28 288.093 19.28C288.837 19.28 289.377 19.052 289.377 18.392C289.377 17.708 288.873 17.588 288.033 17.42C287.025 17.216 285.813 17 285.813 15.56C285.813 14.312 286.845 13.7 288.093 13.7Z" fill="black"/>
<rect x="47.5" y="40.5" width="84" height="31" rx="7.5" fill="white"/>
<rect x="47.5" y="40.5" width="84" height="31" rx="7.5" stroke="#CFCFCF"/>
<path d="M57.244 60H56.152V51.312H58.984C61.204 51.312 61.876 52.536 61.876 53.916C61.876 55.98 60.652 56.844 58.564 56.844H57.244V60ZM58.48 55.896C59.74 55.896 60.736 55.596 60.736 53.976C60.736 52.728 60.052 52.248 58.66 52.248H57.244V55.896H58.48ZM66.6425 54.84C65.8745 54.732 64.9625 55.044 64.4585 55.512V60H63.3665V53.832H64.2785L64.3625 54.72C64.9025 53.988 65.5505 53.7 66.4145 53.7C66.4865 53.7 66.5345 53.7 66.6425 53.712V54.84ZM70.0336 60.144C67.8496 60.144 67.1896 58.62 67.1896 56.928C67.1896 54.672 68.5096 53.7 70.0936 53.7C71.8216 53.7 72.5416 54.84 72.5416 56.364C72.5416 56.604 72.5296 56.88 72.4936 57.168H68.3416C68.3896 58.74 69.0856 59.232 70.0696 59.232C70.9456 59.232 71.3536 58.836 71.5216 58.14L72.4816 58.356C72.2296 59.556 71.2696 60.144 70.0336 60.144ZM71.4136 56.304C71.4136 55.2 70.9936 54.588 70.0216 54.588C69.2056 54.588 68.4136 55.08 68.3536 56.304H71.4136ZM74.1243 53.832H75.0723L75.1323 54.54C75.6963 54.036 76.3923 53.7 77.2683 53.7C78.5643 53.7 79.5243 54.504 79.5243 56.772C79.5243 59.184 78.3363 60.144 76.9563 60.144C76.2123 60.144 75.6243 59.88 75.1803 59.544V62.544H74.1243V53.832ZM75.2163 58.608C75.4803 58.812 76.0923 59.22 76.8003 59.22C77.9763 59.22 78.4083 58.236 78.4083 56.76C78.4083 55.212 77.9283 54.612 76.9443 54.612C76.2603 54.612 75.5763 55.032 75.2163 55.392V58.608ZM83.557 60.144C81.421 60.144 80.713 58.764 80.713 56.94C80.713 54.948 81.745 53.7 83.713 53.7C85.669 53.7 86.473 54.96 86.473 56.796C86.473 58.824 85.633 60.144 83.557 60.144ZM83.617 59.268C84.685 59.268 85.333 58.62 85.333 56.868C85.333 55.164 84.733 54.6 83.665 54.6C82.573 54.6 81.841 55.248 81.841 56.892C81.841 58.524 82.417 59.268 83.617 59.268ZM90.0151 53.7C91.4791 53.7 92.0791 54.396 92.2711 55.488L91.2871 55.704C91.1431 54.996 90.9031 54.564 90.0031 54.564C89.1031 54.564 88.8151 54.96 88.8151 55.428C88.8151 56.064 89.3191 56.244 90.1831 56.424C91.3111 56.664 92.3791 56.892 92.3791 58.272C92.3791 59.448 91.4671 60.144 89.9671 60.144C88.5511 60.144 87.6991 59.592 87.5071 58.356L88.4791 58.092C88.6471 58.752 88.9231 59.28 90.0151 59.28C90.7591 59.28 91.2991 59.052 91.2991 58.392C91.2991 57.708 90.7951 57.588 89.9551 57.42C88.9471 57.216 87.7351 57 87.7351 55.56C87.7351 54.312 88.7671 53.7 90.0151 53.7ZM94.9507 60H93.8587V53.832H94.9507V60ZM95.2027 51.852C95.2027 52.356 94.9147 52.644 94.4227 52.644C93.9307 52.644 93.6547 52.356 93.6547 51.852C93.6547 51.348 93.9307 51.072 94.4227 51.072C94.9147 51.072 95.2027 51.348 95.2027 51.852ZM100.291 59.736C99.991 59.94 99.355 60.144 98.779 60.144C97.627 60.144 97.039 59.616 97.039 58.38V54.708H96.091V53.832H97.039V52.044L98.131 51.876V53.832H99.835V54.708H98.131V58.236C98.131 58.884 98.275 59.244 99.019 59.244C99.391 59.244 99.835 59.088 100.099 58.944L100.291 59.736ZM102.486 60H101.394V53.832H102.486V60ZM102.738 51.852C102.738 52.356 102.45 52.644 101.958 52.644C101.466 52.644 101.19 52.356 101.19 51.852C101.19 51.348 101.466 51.072 101.958 51.072C102.45 51.072 102.738 51.348 102.738 51.852ZM106.842 60.144C104.706 60.144 103.998 58.764 103.998 56.94C103.998 54.948 105.03 53.7 106.998 53.7C108.954 53.7 109.758 54.96 109.758 56.796C109.758 58.824 108.918 60.144 106.842 60.144ZM106.902 59.268C107.97 59.268 108.618 58.62 108.618 56.868C108.618 55.164 108.018 54.6 106.95 54.6C105.858 54.6 105.126 55.248 105.126 56.892C105.126 58.524 105.702 59.268 106.902 59.268ZM116.456 60H115.364V55.98C115.364 55.128 115.052 54.66 114.212 54.66C113.504 54.66 112.736 55.116 112.412 55.404V60H111.32V53.832H112.28L112.34 54.564C112.94 54.084 113.708 53.7 114.56 53.7C115.88 53.7 116.456 54.42 116.456 55.812V60ZM120.308 53.7C121.772 53.7 122.372 54.396 122.564 55.488L121.58 55.704C121.436 54.996 121.196 54.564 120.296 54.564C119.396 54.564 119.108 54.96 119.108 55.428C119.108 56.064 119.612 56.244 120.476 56.424C121.604 56.664 122.672 56.892 122.672 58.272C122.672 59.448 121.76 60.144 120.26 60.144C118.844 60.144 117.992 59.592 117.8 58.356L118.772 58.092C118.94 58.752 119.216 59.28 120.308 59.28C121.052 59.28 121.592 59.052 121.592 58.392C121.592 57.708 121.088 57.588 120.248 57.42C119.24 57.216 118.028 57 118.028 55.56C118.028 54.312 119.06 53.7 120.308 53.7Z" fill="black"/>
<rect x="140.5" y="40.5" width="53" height="31" rx="7.5" fill="white"/>
<rect x="140.5" y="40.5" width="53" height="31" rx="7.5" stroke="#CFCFCF"/>
<path d="M150.784 60V52.272H148.156V51.312H154.492V52.272H151.888V60H150.784ZM156.987 60.144C154.803 60.144 154.143 58.62 154.143 56.928C154.143 54.672 155.463 53.7 157.047 53.7C158.775 53.7 159.495 54.84 159.495 56.364C159.495 56.604 159.483 56.88 159.447 57.168H155.295C155.343 58.74 156.039 59.232 157.023 59.232C157.899 59.232 158.307 58.836 158.475 58.14L159.435 58.356C159.183 59.556 158.223 60.144 156.987 60.144ZM158.367 56.304C158.367 55.2 157.947 54.588 156.975 54.588C156.159 54.588 155.367 55.08 155.307 56.304H158.367ZM166.213 60H165.121V55.98C165.121 55.128 164.809 54.66 163.969 54.66C163.261 54.66 162.493 55.116 162.169 55.404V60H161.077V53.832H162.037L162.097 54.564C162.697 54.084 163.465 53.7 164.317 53.7C165.637 53.7 166.213 54.42 166.213 55.812V60ZM170.066 53.7C171.53 53.7 172.13 54.396 172.322 55.488L171.338 55.704C171.194 54.996 170.954 54.564 170.054 54.564C169.154 54.564 168.866 54.96 168.866 55.428C168.866 56.064 169.37 56.244 170.234 56.424C171.362 56.664 172.43 56.892 172.43 58.272C172.43 59.448 171.518 60.144 170.018 60.144C168.602 60.144 167.75 59.592 167.558 58.356L168.53 58.092C168.698 58.752 168.974 59.28 170.066 59.28C170.81 59.28 171.35 59.052 171.35 58.392C171.35 57.708 170.846 57.588 170.006 57.42C168.998 57.216 167.786 57 167.786 55.56C167.786 54.312 168.818 53.7 170.066 53.7ZM176.37 60.144C174.186 60.144 173.526 58.62 173.526 56.928C173.526 54.672 174.846 53.7 176.43 53.7C178.158 53.7 178.878 54.84 178.878 56.364C178.878 56.604 178.866 56.88 178.83 57.168H174.678C174.726 58.74 175.422 59.232 176.406 59.232C177.282 59.232 177.69 58.836 177.858 58.14L178.818 58.356C178.566 59.556 177.606 60.144 176.37 60.144ZM177.75 56.304C177.75 55.2 177.33 54.588 176.358 54.588C175.542 54.588 174.75 55.08 174.69 56.304H177.75ZM182.441 53.7C183.905 53.7 184.505 54.396 184.697 55.488L183.713 55.704C183.569 54.996 183.329 54.564 182.429 54.564C181.529 54.564 181.241 54.96 181.241 55.428C181.241 56.064 181.745 56.244 182.609 56.424C183.737 56.664 184.805 56.892 184.805 58.272C184.805 59.448 183.893 60.144 182.393 60.144C180.977 60.144 180.125 59.592 179.933 58.356L180.905 58.092C181.073 58.752 181.349 59.28 182.441 59.28C183.185 59.28 183.725 59.052 183.725 58.392C183.725 57.708 183.221 57.588 182.381 57.42C181.373 57.216 180.161 57 180.161 55.56C180.161 54.312 181.193 53.7 182.441 53.7Z" fill="black"/>
<rect x="202.5" y="40.5" width="63" height="31" rx="7.5" fill="white"/>
<rect x="202.5" y="40.5" width="63" height="31" rx="7.5" stroke="#CFCFCF"/>
<path d="M219.612 60H218.568V52.5H218.556L215.928 60H214.776L212.196 52.488H212.172V60H211.152V51.312H212.832L215.388 58.704H215.4L217.956 51.312H219.612V60ZM224.202 60.144C222.066 60.144 221.358 58.764 221.358 56.94C221.358 54.948 222.39 53.7 224.358 53.7C226.314 53.7 227.118 54.96 227.118 56.796C227.118 58.824 226.278 60.144 224.202 60.144ZM224.262 59.268C225.33 59.268 225.978 58.62 225.978 56.868C225.978 55.164 225.378 54.6 224.31 54.6C223.218 54.6 222.486 55.248 222.486 56.892C222.486 58.524 223.062 59.268 224.262 59.268ZM233.707 60H232.795L232.711 59.34L232.699 59.328C232.171 59.808 231.547 60.144 230.659 60.144C229.255 60.144 228.307 59.256 228.307 57.012C228.307 54.576 229.543 53.7 230.911 53.7C231.619 53.7 232.207 53.928 232.639 54.276V50.94H233.707V60ZM232.627 55.176C232.339 54.96 231.763 54.636 231.055 54.636C229.867 54.636 229.435 55.584 229.435 57.012C229.435 58.512 229.903 59.232 230.983 59.232C231.619 59.232 232.243 58.86 232.627 58.476V55.176ZM240.117 58.836C240.117 59.172 240.177 59.316 240.489 59.316C240.597 59.316 240.705 59.292 240.861 59.244L240.909 59.928C240.669 60.048 240.357 60.12 240.057 60.12C239.445 60.12 239.169 59.784 239.109 59.388C238.629 59.868 237.993 60.144 237.129 60.144C235.569 60.144 235.305 59.088 235.305 58.488C235.305 56.844 236.757 56.388 238.497 56.388C238.689 56.388 238.869 56.4 239.037 56.412V55.812C239.037 55.032 238.821 54.552 237.813 54.552C236.961 54.552 236.637 54.888 236.505 55.572L235.545 55.392C235.737 54.24 236.481 53.7 237.909 53.7C239.433 53.7 240.117 54.288 240.117 55.824V58.836ZM239.049 57.204C238.881 57.18 238.653 57.168 238.425 57.168C237.573 57.168 236.433 57.252 236.433 58.308C236.433 58.836 236.625 59.292 237.465 59.292C238.101 59.292 238.713 58.956 239.049 58.596V57.204ZM243.236 60H242.144V50.94H243.236V60ZM246.224 60H245.132V53.832H246.224V60ZM246.476 51.852C246.476 52.356 246.188 52.644 245.696 52.644C245.204 52.644 244.928 52.356 244.928 51.852C244.928 51.348 245.204 51.072 245.696 51.072C246.188 51.072 246.476 51.348 246.476 51.852ZM251.564 59.736C251.264 59.94 250.628 60.144 250.052 60.144C248.9 60.144 248.312 59.616 248.312 58.38V54.708H247.364V53.832H248.312V52.044L249.404 51.876V53.832H251.108V54.708H249.404V58.236C249.404 58.884 249.548 59.244 250.292 59.244C250.664 59.244 251.108 59.088 251.372 58.944L251.564 59.736ZM251.674 53.832H252.886L254.518 58.728H254.53L256.222 53.832H257.338L254.674 60.9C254.182 62.208 253.618 62.676 252.646 62.676C252.19 62.676 251.698 62.556 251.458 62.448L251.59 61.596C251.818 61.68 252.25 61.788 252.574 61.788C253.018 61.788 253.402 61.56 253.678 60.828L253.966 60.072L251.674 53.832Z" fill="black"/>
<rect x="22.5" y="80.5" width="135" height="31" rx="7.5" fill="white"/>
<rect x="22.5" y="80.5" width="135" height="31" rx="7.5" stroke="#CFCFCF"/>
<path d="M36.924 98.824C36.612 99.568 35.52 100.144 34.308 100.144C31.692 100.144 30.6 98.344 30.6 95.764C30.6 92.824 32.136 91.156 34.668 91.156C36.492 91.156 37.728 91.96 37.884 94.048L36.828 94.156C36.684 92.752 35.988 92.116 34.632 92.116C32.796 92.116 31.74 93.412 31.74 95.668C31.74 98.356 32.916 99.208 34.524 99.208C36.084 99.208 36.84 98.152 36.84 97.132V96.388H34.536V95.488H37.884V100H37.08L36.924 98.824ZM42.2679 100.144C40.0839 100.144 39.4239 98.62 39.4239 96.928C39.4239 94.672 40.7439 93.7 42.3279 93.7C44.0559 93.7 44.7759 94.84 44.7759 96.364C44.7759 96.604 44.7639 96.88 44.7279 97.168H40.5759C40.6239 98.74 41.3199 99.232 42.3039 99.232C43.1799 99.232 43.5879 98.836 43.7559 98.14L44.7159 98.356C44.4639 99.556 43.5039 100.144 42.2679 100.144ZM43.6479 96.304C43.6479 95.2 43.2279 94.588 42.2559 94.588C41.4399 94.588 40.6479 95.08 40.5879 96.304H43.6479ZM49.6347 94.84C48.8667 94.732 47.9547 95.044 47.4507 95.512V100H46.3587V93.832H47.2707L47.3547 94.72C47.8947 93.988 48.5427 93.7 49.4067 93.7C49.4787 93.7 49.5267 93.7 49.6347 93.712V94.84ZM50.7058 93.832H51.7978V97.852C51.7978 98.704 52.0018 99.172 52.9138 99.172C53.6218 99.172 54.3778 98.716 54.7018 98.416V93.832H55.7938V100H54.8458L54.7738 99.292C54.1738 99.784 53.4418 100.12 52.5898 100.12C51.2818 100.12 50.7058 99.4 50.7058 98.02V93.832ZM62.8385 100H61.7465V95.98C61.7465 95.128 61.4345 94.66 60.5945 94.66C59.8865 94.66 59.1185 95.116 58.7945 95.404V100H57.7025V93.832H58.6625L58.7225 94.564C59.3225 94.084 60.0905 93.7 60.9425 93.7C62.2625 93.7 62.8385 94.42 62.8385 95.812V100ZM69.7148 100H68.8028L68.7188 99.34L68.7068 99.328C68.1788 99.808 67.5548 100.144 66.6668 100.144C65.2628 100.144 64.3148 99.256 64.3148 97.012C64.3148 94.576 65.5508 93.7 66.9188 93.7C67.6268 93.7 68.2148 93.928 68.6468 94.276V90.94H69.7148V100ZM68.6348 95.176C68.3468 94.96 67.7708 94.636 67.0628 94.636C65.8748 94.636 65.4428 95.584 65.4428 97.012C65.4428 98.512 65.9108 99.232 66.9908 99.232C67.6268 99.232 68.2508 98.86 68.6348 98.476V95.176ZM73.6166 93.7C75.0806 93.7 75.6806 94.396 75.8726 95.488L74.8886 95.704C74.7446 94.996 74.5046 94.564 73.6046 94.564C72.7046 94.564 72.4166 94.96 72.4166 95.428C72.4166 96.064 72.9206 96.244 73.7846 96.424C74.9126 96.664 75.9806 96.892 75.9806 98.272C75.9806 99.448 75.0686 100.144 73.5686 100.144C72.1526 100.144 71.3006 99.592 71.1086 98.356L72.0806 98.092C72.2486 98.752 72.5246 99.28 73.6166 99.28C74.3606 99.28 74.9006 99.052 74.9006 98.392C74.9006 97.708 74.3966 97.588 73.5566 97.42C72.5486 97.216 71.3366 97 71.3366 95.56C71.3366 94.312 72.3686 93.7 73.6166 93.7ZM81.549 100L79.197 93.832H80.385L82.197 98.908H82.209L83.997 93.832H85.113L82.797 100H81.549ZM88.0307 93.7C89.4947 93.7 90.0947 94.396 90.2867 95.488L89.3027 95.704C89.1587 94.996 88.9187 94.564 88.0187 94.564C87.1187 94.564 86.8307 94.96 86.8307 95.428C86.8307 96.064 87.3347 96.244 88.1987 96.424C89.3267 96.664 90.3947 96.892 90.3947 98.272C90.3947 99.448 89.4827 100.144 87.9827 100.144C86.5667 100.144 85.7147 99.592 85.5227 98.356L86.4947 98.092C86.6627 98.752 86.9387 99.28 88.0307 99.28C88.7747 99.28 89.3147 99.052 89.3147 98.392C89.3147 97.708 88.8107 97.588 87.9707 97.42C86.9627 97.216 85.7507 97 85.7507 95.56C85.7507 94.312 86.7827 93.7 88.0307 93.7ZM93.0743 99.34C93.0743 99.868 92.7863 100.144 92.2583 100.144C91.7303 100.144 91.4423 99.88 91.4423 99.34C91.4423 98.812 91.7303 98.536 92.2583 98.536C92.7863 98.536 93.0743 98.812 93.0743 99.34ZM98.5021 100H97.3981V91.312H98.5021V100ZM105.764 100H104.672V95.98C104.672 95.128 104.36 94.66 103.52 94.66C102.812 94.66 102.044 95.116 101.72 95.404V100H100.628V93.832H101.588L101.648 94.564C102.248 94.084 103.016 93.7 103.868 93.7C105.188 93.7 105.764 94.42 105.764 95.812V100ZM112.581 100H111.489V94.708H108.837V100H107.745V94.708H106.833V93.832H107.745V92.836C107.745 91.48 108.393 90.82 109.545 90.82C109.989 90.82 110.313 90.904 110.529 91L110.493 91.852C110.265 91.78 110.013 91.72 109.737 91.72C109.197 91.72 108.837 91.96 108.837 92.788V93.832H112.581V100ZM112.821 91.828C112.821 92.332 112.533 92.608 112.041 92.608C111.561 92.608 111.273 92.332 111.273 91.828C111.273 91.324 111.561 91.048 112.041 91.048C112.533 91.048 112.821 91.324 112.821 91.828ZM119.616 100H118.524V95.98C118.524 95.128 118.212 94.66 117.372 94.66C116.664 94.66 115.896 95.116 115.572 95.404V100H114.48V93.832H115.44L115.5 94.564C116.1 94.084 116.868 93.7 117.72 93.7C119.04 93.7 119.616 94.42 119.616 95.812V100ZM122.556 100H121.464V93.832H122.556V100ZM122.808 91.852C122.808 92.356 122.52 92.644 122.028 92.644C121.536 92.644 121.26 92.356 121.26 91.852C121.26 91.348 121.536 91.072 122.028 91.072C122.52 91.072 122.808 91.348 122.808 91.852ZM127.896 99.736C127.596 99.94 126.96 100.144 126.384 100.144C125.232 100.144 124.644 99.616 124.644 98.38V94.708H123.696V93.832H124.644V92.044L125.736 91.876V93.832H127.44V94.708H125.736V98.236C125.736 98.884 125.88 99.244 126.624 99.244C126.996 99.244 127.44 99.088 127.704 98.944L127.896 99.736ZM130.091 100H128.999V93.832H130.091V100ZM130.343 91.852C130.343 92.356 130.055 92.644 129.563 92.644C129.071 92.644 128.795 92.356 128.795 91.852C128.795 91.348 129.071 91.072 129.563 91.072C130.055 91.072 130.343 91.348 130.343 91.852ZM133.44 100L131.088 93.832H132.276L134.088 98.908H134.1L135.888 93.832H137.004L134.688 100H133.44ZM140.389 100.144C138.205 100.144 137.545 98.62 137.545 96.928C137.545 94.672 138.865 93.7 140.449 93.7C142.177 93.7 142.897 94.84 142.897 96.364C142.897 96.604 142.885 96.88 142.849 97.168H138.697C138.745 98.74 139.441 99.232 140.425 99.232C141.301 99.232 141.709 98.836 141.877 98.14L142.837 98.356C142.585 99.556 141.625 100.144 140.389 100.144ZM141.769 96.304C141.769 95.2 141.349 94.588 140.377 94.588C139.561 94.588 138.769 95.08 138.709 96.304H141.769ZM146.46 93.7C147.924 93.7 148.524 94.396 148.716 95.488L147.732 95.704C147.588 94.996 147.348 94.564 146.448 94.564C145.548 94.564 145.26 94.96 145.26 95.428C145.26 96.064 145.764 96.244 146.628 96.424C147.756 96.664 148.824 96.892 148.824 98.272C148.824 99.448 147.912 100.144 146.412 100.144C144.996 100.144 144.144 99.592 143.952 98.356L144.924 98.092C145.092 98.752 145.368 99.28 146.46 99.28C147.204 99.28 147.744 99.052 147.744 98.392C147.744 97.708 147.24 97.588 146.4 97.42C145.392 97.216 144.18 97 144.18 95.56C144.18 94.312 145.212 93.7 146.46 93.7Z" fill="black"/>
<rect x="166.5" y="80.5" width="124" height="31" rx="7.5" fill="white"/>
<rect x="166.5" y="80.5" width="124" height="31" rx="7.5" stroke="#CFCFCF"/>
<path d="M178.296 99.184C179.688 99.184 180.384 98.62 180.384 96.988V91.312H181.476V97.084C181.476 99.172 180.3 100.144 178.248 100.144C176.016 100.144 175.08 99.088 175.08 97.06V91.312H176.184V96.952C176.184 98.56 176.916 99.184 178.296 99.184ZM188.674 100H187.582V95.98C187.582 95.128 187.27 94.66 186.43 94.66C185.722 94.66 184.954 95.116 184.63 95.404V100H183.538V93.832H184.498L184.558 94.564C185.158 94.084 185.926 93.7 186.778 93.7C188.098 93.7 188.674 94.42 188.674 95.812V100ZM192.971 100.144C190.931 100.144 190.139 98.824 190.139 96.976C190.139 94.828 191.243 93.7 193.091 93.7C194.471 93.7 195.383 94.42 195.467 95.848L194.423 95.992C194.327 95.08 193.907 94.612 193.043 94.612C192.155 94.612 191.279 95.092 191.279 96.844C191.279 98.68 192.023 99.232 193.007 99.232C193.847 99.232 194.387 98.824 194.543 97.912L195.503 98.116C195.299 99.544 194.207 100.144 192.971 100.144ZM199.44 100.144C197.304 100.144 196.596 98.764 196.596 96.94C196.596 94.948 197.628 93.7 199.596 93.7C201.552 93.7 202.356 94.96 202.356 96.796C202.356 98.824 201.516 100.144 199.44 100.144ZM199.5 99.268C200.568 99.268 201.216 98.62 201.216 96.868C201.216 95.164 200.616 94.6 199.548 94.6C198.456 94.6 197.724 95.248 197.724 96.892C197.724 98.524 198.3 99.268 199.5 99.268ZM203.893 93.832H204.985V97.852C204.985 98.704 205.189 99.172 206.101 99.172C206.809 99.172 207.565 98.716 207.889 98.416V93.832H208.981V100H208.033L207.961 99.292C207.361 99.784 206.629 100.12 205.777 100.12C204.469 100.12 203.893 99.4 203.893 98.02V93.832ZM216.026 100H214.934V95.98C214.934 95.128 214.622 94.66 213.782 94.66C213.074 94.66 212.306 95.116 211.982 95.404V100H210.89V93.832H211.85L211.91 94.564C212.51 94.084 213.278 93.7 214.13 93.7C215.45 93.7 216.026 94.42 216.026 95.812V100ZM221.295 99.736C220.995 99.94 220.359 100.144 219.783 100.144C218.631 100.144 218.043 99.616 218.043 98.38V94.708H217.095V93.832H218.043V92.044L219.135 91.876V93.832H220.839V94.708H219.135V98.236C219.135 98.884 219.279 99.244 220.023 99.244C220.395 99.244 220.839 99.088 221.103 98.944L221.295 99.736ZM226.722 98.836C226.722 99.172 226.782 99.316 227.094 99.316C227.202 99.316 227.31 99.292 227.466 99.244L227.514 99.928C227.274 100.048 226.962 100.12 226.662 100.12C226.05 100.12 225.774 99.784 225.714 99.388C225.234 99.868 224.598 100.144 223.734 100.144C222.174 100.144 221.91 99.088 221.91 98.488C221.91 96.844 223.362 96.388 225.102 96.388C225.294 96.388 225.474 96.4 225.642 96.412V95.812C225.642 95.032 225.426 94.552 224.418 94.552C223.566 94.552 223.242 94.888 223.11 95.572L222.15 95.392C222.342 94.24 223.086 93.7 224.514 93.7C226.038 93.7 226.722 94.288 226.722 95.824V98.836ZM225.654 97.204C225.486 97.18 225.258 97.168 225.03 97.168C224.178 97.168 223.038 97.252 223.038 98.308C223.038 98.836 223.23 99.292 224.07 99.292C224.706 99.292 225.318 98.956 225.654 98.596V97.204ZM228.749 100V90.94H229.829V94.516C230.369 94.036 231.017 93.7 231.917 93.7C233.189 93.7 234.161 94.504 234.161 96.772C234.161 99.172 232.985 100.144 231.557 100.144C230.825 100.144 230.213 99.808 229.769 99.46H229.757L229.697 100H228.749ZM229.841 98.584C230.117 98.788 230.717 99.22 231.425 99.22C232.589 99.22 233.033 98.26 233.033 96.76C233.033 95.296 232.589 94.624 231.569 94.624C230.885 94.624 230.201 95.044 229.841 95.392V98.584ZM236.814 100H235.722V90.94H236.814V100ZM241.17 100.144C238.986 100.144 238.326 98.62 238.326 96.928C238.326 94.672 239.646 93.7 241.23 93.7C242.958 93.7 243.678 94.84 243.678 96.364C243.678 96.604 243.666 96.88 243.63 97.168H239.478C239.526 98.74 240.222 99.232 241.206 99.232C242.082 99.232 242.49 98.836 242.658 98.14L243.618 98.356C243.366 99.556 242.406 100.144 241.17 100.144ZM242.55 96.304C242.55 95.2 242.13 94.588 241.158 94.588C240.342 94.588 239.55 95.08 239.49 96.304H242.55ZM253.382 100L249.11 92.716V100H248.078V91.312H249.53L253.694 98.524V91.312H254.714V100H253.382ZM259.299 100.144C257.163 100.144 256.455 98.764 256.455 96.94C256.455 94.948 257.487 93.7 259.455 93.7C261.411 93.7 262.215 94.96 262.215 96.796C262.215 98.824 261.375 100.144 259.299 100.144ZM259.359 99.268C260.427 99.268 261.075 98.62 261.075 96.868C261.075 95.164 260.475 94.6 259.407 94.6C258.315 94.6 257.583 95.248 257.583 96.892C257.583 98.524 258.159 99.268 259.359 99.268ZM263.753 93.832H264.845V97.852C264.845 98.704 265.049 99.172 265.961 99.172C266.669 99.172 267.425 98.716 267.749 98.416V93.832H268.841V100H267.893L267.821 99.292C267.221 99.784 266.489 100.12 265.637 100.12C264.329 100.12 263.753 99.4 263.753 98.02V93.832ZM275.885 100H274.793V95.98C274.793 95.128 274.481 94.66 273.641 94.66C272.933 94.66 272.165 95.116 271.841 95.404V100H270.749V93.832H271.709L271.769 94.564C272.369 94.084 273.137 93.7 273.989 93.7C275.309 93.7 275.885 94.42 275.885 95.812V100ZM279.738 93.7C281.202 93.7 281.802 94.396 281.994 95.488L281.01 95.704C280.866 94.996 280.626 94.564 279.726 94.564C278.826 94.564 278.538 94.96 278.538 95.428C278.538 96.064 279.042 96.244 279.906 96.424C281.034 96.664 282.102 96.892 282.102 98.272C282.102 99.448 281.19 100.144 279.69 100.144C278.274 100.144 277.422 99.592 277.23 98.356L278.202 98.092C278.37 98.752 278.646 99.28 279.738 99.28C280.482 99.28 281.022 99.052 281.022 98.392C281.022 97.708 280.518 97.588 279.678 97.42C278.67 97.216 277.458 97 277.458 95.56C277.458 94.312 278.49 93.7 279.738 93.7Z" fill="black"/>
</svg>
