<svg width="370" height="152" viewBox="0 0 370 152" fill="none" xmlns="http://www.w3.org/2000/svg">
<rect x="61.5" y="0.5" width="148" height="31" rx="7.5" fill="white"/>
<rect x="61.5" y="0.5" width="148" height="31" rx="7.5" stroke="#CFCFCF"/>
<path d="M72.588 12.092C71.256 12.092 70.776 12.68 70.776 13.448C70.776 14.504 71.76 14.804 72.852 15.128C74.124 15.5 75.504 15.908 75.504 17.588C75.504 19.424 74.04 20.144 72.432 20.144C70.62 20.144 69.492 19.424 69.264 17.636L70.32 17.48C70.524 18.404 70.956 19.208 72.444 19.208C73.38 19.208 74.376 18.896 74.376 17.744C74.376 16.664 73.404 16.376 72.336 16.076C71.04 15.716 69.648 15.344 69.648 13.556C69.648 12.068 70.896 11.156 72.576 11.156C74.1 11.156 75.252 11.744 75.432 13.604L74.4 13.724C74.268 12.896 73.932 12.092 72.588 12.092ZM76.9441 13.832H78.0361V17.852C78.0361 18.704 78.2401 19.172 79.1521 19.172C79.8601 19.172 80.6161 18.716 80.9401 18.416V13.832H82.0321V20H81.0841L81.0121 19.292C80.4121 19.784 79.6801 20.12 78.8281 20.12C77.5201 20.12 76.9441 19.4 76.9441 18.02V13.832ZM83.9408 20V10.94H85.0208V14.516C85.5608 14.036 86.2088 13.7 87.1088 13.7C88.3808 13.7 89.3528 14.504 89.3528 16.772C89.3528 19.172 88.1768 20.144 86.7488 20.144C86.0168 20.144 85.4048 19.808 84.9608 19.46H84.9488L84.8888 20H83.9408ZM85.0328 18.584C85.3088 18.788 85.9088 19.22 86.6168 19.22C87.7808 19.22 88.2248 18.26 88.2248 16.76C88.2248 15.296 87.7808 14.624 86.7608 14.624C86.0768 14.624 85.3928 15.044 85.0328 15.392V18.584ZM90.2534 22.676C89.8574 22.676 89.3054 22.568 89.0894 22.436L89.2094 21.548C89.4494 21.644 89.8094 21.728 90.1094 21.728C90.6014 21.728 90.9134 21.488 90.9134 20.756V13.832H92.0054V20.804C92.0054 22.112 91.3694 22.676 90.2534 22.676ZM92.2574 11.756C92.2574 12.26 91.9814 12.548 91.4894 12.548C90.9974 12.548 90.7094 12.26 90.7094 11.756C90.7094 11.264 90.9974 10.976 91.4894 10.976C91.9814 10.976 92.2574 11.264 92.2574 11.756ZM96.3383 20.144C94.1543 20.144 93.4943 18.62 93.4943 16.928C93.4943 14.672 94.8143 13.7 96.3983 13.7C98.1263 13.7 98.8463 14.84 98.8463 16.364C98.8463 16.604 98.8343 16.88 98.7983 17.168H94.6463C94.6943 18.74 95.3903 19.232 96.3743 19.232C97.2503 19.232 97.6583 18.836 97.8263 18.14L98.7863 18.356C98.5343 19.556 97.5743 20.144 96.3383 20.144ZM97.7183 16.304C97.7183 15.2 97.2983 14.588 96.3263 14.588C95.5103 14.588 94.7183 15.08 94.6583 16.304H97.7183ZM102.877 20.144C100.837 20.144 100.045 18.824 100.045 16.976C100.045 14.828 101.149 13.7 102.997 13.7C104.377 13.7 105.289 14.42 105.373 15.848L104.329 15.992C104.233 15.08 103.813 14.612 102.949 14.612C102.061 14.612 101.185 15.092 101.185 16.844C101.185 18.68 101.929 19.232 102.913 19.232C103.753 19.232 104.293 18.824 104.449 17.912L105.409 18.116C105.205 19.544 104.113 20.144 102.877 20.144ZM110.33 19.736C110.03 19.94 109.394 20.144 108.818 20.144C107.666 20.144 107.078 19.616 107.078 18.38V14.708H106.13V13.832H107.078V12.044L108.17 11.876V13.832H109.874V14.708H108.17V18.236C108.17 18.884 108.314 19.244 109.058 19.244C109.43 19.244 109.874 19.088 110.138 18.944L110.33 19.736ZM110.338 16.988V15.944H113.59V16.988H110.338ZM116.345 20L113.417 11.312H114.653L117.113 18.932H117.125L119.501 11.312H120.629L117.845 20H116.345ZM123.666 20.144C121.482 20.144 120.822 18.62 120.822 16.928C120.822 14.672 122.142 13.7 123.726 13.7C125.454 13.7 126.174 14.84 126.174 16.364C126.174 16.604 126.162 16.88 126.126 17.168H121.974C122.022 18.74 122.718 19.232 123.702 19.232C124.578 19.232 124.986 18.836 125.154 18.14L126.114 18.356C125.862 19.556 124.902 20.144 123.666 20.144ZM125.046 16.304C125.046 15.2 124.626 14.588 123.654 14.588C122.838 14.588 122.046 15.08 121.986 16.304H125.046ZM131.033 14.84C130.265 14.732 129.353 15.044 128.849 15.512V20H127.757V13.832H128.669L128.753 14.72C129.293 13.988 129.941 13.7 130.805 13.7C130.877 13.7 130.925 13.7 131.033 13.712V14.84ZM132.128 20V10.94H133.208V14.516C133.748 14.036 134.396 13.7 135.296 13.7C136.568 13.7 137.54 14.504 137.54 16.772C137.54 19.172 136.364 20.144 134.936 20.144C134.204 20.144 133.592 19.808 133.148 19.46H133.136L133.076 20H132.128ZM133.22 18.584C133.496 18.788 134.096 19.22 134.804 19.22C135.968 19.22 136.412 18.26 136.412 16.76C136.412 15.296 135.968 14.624 134.948 14.624C134.264 14.624 133.58 15.044 133.22 15.392V18.584ZM145.566 11.312L148.59 20H147.378L146.502 17.42H143.166L142.314 20H141.198L144.126 11.312H145.566ZM144.834 12.32H144.822L143.43 16.472H146.226L144.834 12.32ZM152.232 13.7C152.988 13.7 153.612 13.856 154.02 14.264C154.212 13.82 154.536 13.484 154.992 13.484C155.184 13.484 155.352 13.52 155.532 13.58V14.384C155.16 14.36 154.644 14.42 154.332 14.516C154.644 14.852 154.812 15.404 154.812 15.908C154.812 17.3 153.696 18.104 152.28 18.104C151.872 18.104 151.452 18.068 151.14 17.96C150.972 18.116 150.756 18.296 150.756 18.548C150.756 18.788 150.888 18.968 151.548 19.016L153.312 19.136C154.584 19.22 155.328 19.532 155.328 20.744C155.328 22.256 153.708 22.712 152.16 22.712C149.856 22.712 149.388 21.92 149.388 21.188C149.388 20.492 149.88 20.012 150.384 19.772V19.76C149.964 19.592 149.712 19.316 149.712 18.872C149.712 18.344 150.096 18.032 150.528 17.696C149.964 17.396 149.616 16.76 149.616 15.968C149.616 14.612 150.636 13.7 152.232 13.7ZM153.756 15.932C153.756 15.008 153.18 14.564 152.244 14.564C151.392 14.564 150.672 14.96 150.672 15.908C150.672 16.712 151.14 17.24 152.232 17.24C153.132 17.24 153.756 16.76 153.756 15.932ZM154.2 20.876C154.2 20.432 154.008 20.168 153.168 20.108L151.128 19.988C150.66 20.3 150.444 20.576 150.444 20.984C150.444 21.5 150.864 21.848 152.292 21.848C153.564 21.848 154.2 21.524 154.2 20.876ZM159.873 14.84C159.105 14.732 158.193 15.044 157.689 15.512V20H156.597V13.832H157.509L157.593 14.72C158.133 13.988 158.781 13.7 159.645 13.7C159.717 13.7 159.765 13.7 159.873 13.712V14.84ZM163.264 20.144C161.08 20.144 160.42 18.62 160.42 16.928C160.42 14.672 161.74 13.7 163.324 13.7C165.052 13.7 165.772 14.84 165.772 16.364C165.772 16.604 165.76 16.88 165.724 17.168H161.572C161.62 18.74 162.316 19.232 163.3 19.232C164.176 19.232 164.584 18.836 164.752 18.14L165.712 18.356C165.46 19.556 164.5 20.144 163.264 20.144ZM164.644 16.304C164.644 15.2 164.224 14.588 163.252 14.588C162.436 14.588 161.644 15.08 161.584 16.304H164.644ZM169.815 20.144C167.631 20.144 166.971 18.62 166.971 16.928C166.971 14.672 168.291 13.7 169.875 13.7C171.603 13.7 172.323 14.84 172.323 16.364C172.323 16.604 172.311 16.88 172.275 17.168H168.123C168.171 18.74 168.867 19.232 169.851 19.232C170.727 19.232 171.135 18.836 171.303 18.14L172.263 18.356C172.011 19.556 171.051 20.144 169.815 20.144ZM171.195 16.304C171.195 15.2 170.775 14.588 169.803 14.588C168.987 14.588 168.195 15.08 168.135 16.304H171.195ZM174.998 20H173.906V13.832H174.842L174.902 14.528C175.514 14.06 176.162 13.7 177.002 13.7C177.818 13.7 178.31 13.976 178.55 14.552C179.15 14.072 179.846 13.7 180.686 13.7C181.982 13.7 182.438 14.42 182.438 15.8V20H181.346V15.956C181.346 15.128 181.178 14.66 180.386 14.66C179.798 14.66 179.09 15.044 178.73 15.344C178.742 15.488 178.754 15.644 178.754 15.8V20H177.662V15.956C177.662 15.128 177.494 14.66 176.702 14.66C176.078 14.66 175.322 15.092 174.998 15.392V20ZM186.76 20.144C184.576 20.144 183.916 18.62 183.916 16.928C183.916 14.672 185.236 13.7 186.82 13.7C188.548 13.7 189.268 14.84 189.268 16.364C189.268 16.604 189.256 16.88 189.22 17.168H185.068C185.116 18.74 185.812 19.232 186.796 19.232C187.672 19.232 188.08 18.836 188.248 18.14L189.208 18.356C188.956 19.556 187.996 20.144 186.76 20.144ZM188.14 16.304C188.14 15.2 187.72 14.588 186.748 14.588C185.932 14.588 185.14 15.08 185.08 16.304H188.14ZM195.987 20H194.895V15.98C194.895 15.128 194.583 14.66 193.743 14.66C193.035 14.66 192.267 15.116 191.943 15.404V20H190.851V13.832H191.811L191.871 14.564C192.471 14.084 193.239 13.7 194.091 13.7C195.411 13.7 195.987 14.42 195.987 15.812V20ZM201.256 19.736C200.956 19.94 200.32 20.144 199.744 20.144C198.592 20.144 198.004 19.616 198.004 18.38V14.708H197.056V13.832H198.004V12.044L199.096 11.876V13.832H200.8V14.708H199.096V18.236C199.096 18.884 199.24 19.244 199.984 19.244C200.356 19.244 200.8 19.088 201.064 18.944L201.256 19.736Z" fill="black"/>
<rect x="218.5" y="0.5" width="90" height="31" rx="7.5" fill="white"/>
<rect x="218.5" y="0.5" width="90" height="31" rx="7.5" stroke="#CFCFCF"/>
<path d="M230.416 20.144C227.692 20.144 226.6 18.392 226.6 15.788C226.6 12.86 228.172 11.156 230.644 11.156C232.468 11.156 233.74 12.044 233.872 14.072L232.84 14.18C232.672 12.824 232.06 12.116 230.632 12.116C228.832 12.116 227.74 13.304 227.74 15.692C227.74 18.188 228.748 19.196 230.488 19.196C231.868 19.196 232.54 18.596 232.816 17.372L233.812 17.576C233.512 19.496 231.94 20.144 230.416 20.144ZM239.793 18.836C239.793 19.172 239.853 19.316 240.165 19.316C240.273 19.316 240.381 19.292 240.537 19.244L240.585 19.928C240.345 20.048 240.033 20.12 239.733 20.12C239.121 20.12 238.845 19.784 238.785 19.388C238.305 19.868 237.669 20.144 236.805 20.144C235.245 20.144 234.981 19.088 234.981 18.488C234.981 16.844 236.433 16.388 238.173 16.388C238.365 16.388 238.545 16.4 238.713 16.412V15.812C238.713 15.032 238.497 14.552 237.489 14.552C236.637 14.552 236.313 14.888 236.181 15.572L235.221 15.392C235.413 14.24 236.157 13.7 237.585 13.7C239.109 13.7 239.793 14.288 239.793 15.824V18.836ZM238.725 17.204C238.557 17.18 238.329 17.168 238.101 17.168C237.249 17.168 236.109 17.252 236.109 18.308C236.109 18.836 236.301 19.292 237.141 19.292C237.777 19.292 238.389 18.956 238.725 18.596V17.204ZM241.82 13.832H242.768L242.828 14.54C243.392 14.036 244.088 13.7 244.964 13.7C246.26 13.7 247.22 14.504 247.22 16.772C247.22 19.184 246.032 20.144 244.652 20.144C243.908 20.144 243.32 19.88 242.876 19.544V22.544H241.82V13.832ZM242.912 18.608C243.176 18.812 243.788 19.22 244.496 19.22C245.672 19.22 246.104 18.236 246.104 16.76C246.104 15.212 245.624 14.612 244.64 14.612C243.956 14.612 243.272 15.032 242.912 15.392V18.608ZM249.884 20H248.792V13.832H249.884V20ZM250.136 11.852C250.136 12.356 249.848 12.644 249.356 12.644C248.864 12.644 248.588 12.356 248.588 11.852C248.588 11.348 248.864 11.072 249.356 11.072C249.848 11.072 250.136 11.348 250.136 11.852ZM255.225 19.736C254.925 19.94 254.289 20.144 253.713 20.144C252.561 20.144 251.973 19.616 251.973 18.38V14.708H251.025V13.832H251.973V12.044L253.065 11.876V13.832H254.769V14.708H253.065V18.236C253.065 18.884 253.209 19.244 253.953 19.244C254.325 19.244 254.769 19.088 255.033 18.944L255.225 19.736ZM260.652 18.836C260.652 19.172 260.712 19.316 261.024 19.316C261.132 19.316 261.24 19.292 261.396 19.244L261.444 19.928C261.204 20.048 260.892 20.12 260.592 20.12C259.98 20.12 259.704 19.784 259.644 19.388C259.164 19.868 258.528 20.144 257.664 20.144C256.104 20.144 255.84 19.088 255.84 18.488C255.84 16.844 257.292 16.388 259.032 16.388C259.224 16.388 259.404 16.4 259.572 16.412V15.812C259.572 15.032 259.356 14.552 258.348 14.552C257.496 14.552 257.172 14.888 257.04 15.572L256.08 15.392C256.272 14.24 257.016 13.7 258.444 13.7C259.968 13.7 260.652 14.288 260.652 15.824V18.836ZM259.584 17.204C259.416 17.18 259.188 17.168 258.96 17.168C258.108 17.168 256.968 17.252 256.968 18.308C256.968 18.836 257.16 19.292 258 19.292C258.636 19.292 259.248 18.956 259.584 18.596V17.204ZM263.771 20H262.679V10.94H263.771V20ZM266.759 20H265.667V13.832H266.759V20ZM267.011 11.852C267.011 12.356 266.723 12.644 266.231 12.644C265.739 12.644 265.463 12.356 265.463 11.852C265.463 11.348 265.739 11.072 266.231 11.072C266.723 11.072 267.011 11.348 267.011 11.852ZM269.292 19.124H272.892V20H268.056V19.256L271.512 14.708H268.104V13.832H272.748V14.624L269.292 19.124ZM278.418 18.836C278.418 19.172 278.478 19.316 278.79 19.316C278.898 19.316 279.006 19.292 279.162 19.244L279.21 19.928C278.97 20.048 278.658 20.12 278.358 20.12C277.746 20.12 277.47 19.784 277.41 19.388C276.93 19.868 276.294 20.144 275.43 20.144C273.87 20.144 273.606 19.088 273.606 18.488C273.606 16.844 275.058 16.388 276.798 16.388C276.99 16.388 277.17 16.4 277.338 16.412V15.812C277.338 15.032 277.122 14.552 276.114 14.552C275.262 14.552 274.938 14.888 274.806 15.572L273.846 15.392C274.038 14.24 274.782 13.7 276.21 13.7C277.734 13.7 278.418 14.288 278.418 15.824V18.836ZM277.35 17.204C277.182 17.18 276.954 17.168 276.726 17.168C275.874 17.168 274.734 17.252 274.734 18.308C274.734 18.836 274.926 19.292 275.766 19.292C276.402 19.292 277.014 18.956 277.35 18.596V17.204ZM283.771 19.736C283.471 19.94 282.835 20.144 282.259 20.144C281.107 20.144 280.519 19.616 280.519 18.38V14.708H279.571V13.832H280.519V12.044L281.611 11.876V13.832H283.315V14.708H281.611V18.236C281.611 18.884 281.755 19.244 282.499 19.244C282.871 19.244 283.315 19.088 283.579 18.944L283.771 19.736ZM285.966 20H284.874V13.832H285.966V20ZM286.218 11.852C286.218 12.356 285.93 12.644 285.438 12.644C284.946 12.644 284.67 12.356 284.67 11.852C284.67 11.348 284.946 11.072 285.438 11.072C285.93 11.072 286.218 11.348 286.218 11.852ZM290.323 20.144C288.187 20.144 287.479 18.764 287.479 16.94C287.479 14.948 288.511 13.7 290.479 13.7C292.435 13.7 293.239 14.96 293.239 16.796C293.239 18.824 292.399 20.144 290.323 20.144ZM290.383 19.268C291.451 19.268 292.099 18.62 292.099 16.868C292.099 15.164 291.499 14.6 290.431 14.6C289.339 14.6 288.607 15.248 288.607 16.892C288.607 18.524 289.183 19.268 290.383 19.268ZM299.936 20H298.844V15.98C298.844 15.128 298.532 14.66 297.692 14.66C296.984 14.66 296.216 15.116 295.892 15.404V20H294.8V13.832H295.76L295.82 14.564C296.42 14.084 297.188 13.7 298.04 13.7C299.36 13.7 299.936 14.42 299.936 15.812V20Z" fill="black"/>
<rect x="67" y="40.5" width="236" height="31" rx="7.5" fill="white"/>
<rect x="67" y="40.5" width="236" height="31" rx="7.5" stroke="#CFCFCF"/>
<path d="M78.916 60.144C76.192 60.144 75.1 58.392 75.1 55.788C75.1 52.86 76.672 51.156 79.144 51.156C80.968 51.156 82.24 52.044 82.372 54.072L81.34 54.18C81.172 52.824 80.56 52.116 79.132 52.116C77.332 52.116 76.24 53.304 76.24 55.692C76.24 58.188 77.248 59.196 78.988 59.196C80.368 59.196 81.04 58.596 81.316 57.372L82.312 57.576C82.012 59.496 80.44 60.144 78.916 60.144ZM86.2406 60.144C84.1046 60.144 83.3966 58.764 83.3966 56.94C83.3966 54.948 84.4286 53.7 86.3966 53.7C88.3526 53.7 89.1566 54.96 89.1566 56.796C89.1566 58.824 88.3166 60.144 86.2406 60.144ZM86.3006 59.268C87.3686 59.268 88.0166 58.62 88.0166 56.868C88.0166 55.164 87.4166 54.6 86.3486 54.6C85.2566 54.6 84.5246 55.248 84.5246 56.892C84.5246 58.524 85.1006 59.268 86.3006 59.268ZM91.8101 60H90.7181V53.832H91.6541L91.7141 54.528C92.3261 54.06 92.9741 53.7 93.8141 53.7C94.6301 53.7 95.1221 53.976 95.3621 54.552C95.9621 54.072 96.6581 53.7 97.4981 53.7C98.7941 53.7 99.2501 54.42 99.2501 55.8V60H98.1581V55.956C98.1581 55.128 97.9901 54.66 97.1981 54.66C96.6101 54.66 95.9021 55.044 95.5421 55.344C95.5541 55.488 95.5661 55.644 95.5661 55.8V60H94.4741V55.956C94.4741 55.128 94.3061 54.66 93.5141 54.66C92.8901 54.66 92.1341 55.092 91.8101 55.392V60ZM101.113 53.832H102.061L102.121 54.54C102.685 54.036 103.381 53.7 104.257 53.7C105.553 53.7 106.513 54.504 106.513 56.772C106.513 59.184 105.325 60.144 103.945 60.144C103.201 60.144 102.613 59.88 102.169 59.544V62.544H101.113V53.832ZM102.205 58.608C102.469 58.812 103.081 59.22 103.789 59.22C104.965 59.22 105.397 58.236 105.397 56.76C105.397 55.212 104.917 54.612 103.933 54.612C103.249 54.612 102.565 55.032 102.205 55.392V58.608ZM110.545 60.144C108.409 60.144 107.701 58.764 107.701 56.94C107.701 54.948 108.733 53.7 110.701 53.7C112.657 53.7 113.461 54.96 113.461 56.796C113.461 58.824 112.621 60.144 110.545 60.144ZM110.605 59.268C111.673 59.268 112.321 58.62 112.321 56.868C112.321 55.164 111.721 54.6 110.653 54.6C109.561 54.6 108.829 55.248 108.829 56.892C108.829 58.524 109.405 59.268 110.605 59.268ZM114.999 53.832H116.091V57.852C116.091 58.704 116.295 59.172 117.207 59.172C117.915 59.172 118.671 58.716 118.995 58.416V53.832H120.087V60H119.139L119.067 59.292C118.467 59.784 117.735 60.12 116.883 60.12C115.575 60.12 114.999 59.4 114.999 58.02V53.832ZM127.131 60H126.039V55.98C126.039 55.128 125.727 54.66 124.887 54.66C124.179 54.66 123.411 55.116 123.087 55.404V60H121.995V53.832H122.955L123.015 54.564C123.615 54.084 124.383 53.7 125.235 53.7C126.555 53.7 127.131 54.42 127.131 55.812V60ZM134.008 60H133.096L133.012 59.34L133 59.328C132.472 59.808 131.848 60.144 130.96 60.144C129.556 60.144 128.608 59.256 128.608 57.012C128.608 54.576 129.844 53.7 131.212 53.7C131.92 53.7 132.508 53.928 132.94 54.276V50.94H134.008V60ZM132.928 55.176C132.64 54.96 132.064 54.636 131.356 54.636C130.168 54.636 129.736 55.584 129.736 57.012C129.736 58.512 130.204 59.232 131.284 59.232C131.92 59.232 132.544 58.86 132.928 58.476V55.176ZM141.158 52.092C139.826 52.092 139.346 52.68 139.346 53.448C139.346 54.504 140.33 54.804 141.422 55.128C142.694 55.5 144.074 55.908 144.074 57.588C144.074 59.424 142.61 60.144 141.002 60.144C139.19 60.144 138.062 59.424 137.834 57.636L138.89 57.48C139.094 58.404 139.526 59.208 141.014 59.208C141.95 59.208 142.946 58.896 142.946 57.744C142.946 56.664 141.974 56.376 140.906 56.076C139.61 55.716 138.218 55.344 138.218 53.556C138.218 52.068 139.466 51.156 141.146 51.156C142.67 51.156 143.822 51.744 144.002 53.604L142.97 53.724C142.838 52.896 142.502 52.092 141.158 52.092ZM145.514 53.832H146.606V57.852C146.606 58.704 146.81 59.172 147.722 59.172C148.43 59.172 149.186 58.716 149.51 58.416V53.832H150.602V60H149.654L149.582 59.292C148.982 59.784 148.25 60.12 147.398 60.12C146.09 60.12 145.514 59.4 145.514 58.02V53.832ZM152.511 60V50.94H153.591V54.516C154.131 54.036 154.779 53.7 155.679 53.7C156.951 53.7 157.923 54.504 157.923 56.772C157.923 59.172 156.747 60.144 155.319 60.144C154.587 60.144 153.975 59.808 153.531 59.46H153.519L153.459 60H152.511ZM153.603 58.584C153.879 58.788 154.479 59.22 155.187 59.22C156.351 59.22 156.795 58.26 156.795 56.76C156.795 55.296 156.351 54.624 155.331 54.624C154.647 54.624 153.963 55.044 153.603 55.392V58.584ZM158.824 62.676C158.428 62.676 157.876 62.568 157.66 62.436L157.78 61.548C158.02 61.644 158.38 61.728 158.68 61.728C159.172 61.728 159.484 61.488 159.484 60.756V53.832H160.576V60.804C160.576 62.112 159.94 62.676 158.824 62.676ZM160.828 51.756C160.828 52.26 160.552 52.548 160.06 52.548C159.568 52.548 159.28 52.26 159.28 51.756C159.28 51.264 159.568 50.976 160.06 50.976C160.552 50.976 160.828 51.264 160.828 51.756ZM164.909 60.144C162.725 60.144 162.065 58.62 162.065 56.928C162.065 54.672 163.385 53.7 164.969 53.7C166.697 53.7 167.417 54.84 167.417 56.364C167.417 56.604 167.405 56.88 167.369 57.168H163.217C163.265 58.74 163.961 59.232 164.945 59.232C165.821 59.232 166.229 58.836 166.397 58.14L167.357 58.356C167.105 59.556 166.145 60.144 164.909 60.144ZM166.289 56.304C166.289 55.2 165.869 54.588 164.897 54.588C164.081 54.588 163.289 55.08 163.229 56.304H166.289ZM171.447 60.144C169.407 60.144 168.615 58.824 168.615 56.976C168.615 54.828 169.719 53.7 171.567 53.7C172.947 53.7 173.859 54.42 173.943 55.848L172.899 55.992C172.803 55.08 172.383 54.612 171.519 54.612C170.631 54.612 169.755 55.092 169.755 56.844C169.755 58.68 170.499 59.232 171.483 59.232C172.323 59.232 172.863 58.824 173.019 57.912L173.979 58.116C173.775 59.544 172.683 60.144 171.447 60.144ZM178.9 59.736C178.6 59.94 177.964 60.144 177.388 60.144C176.236 60.144 175.648 59.616 175.648 58.38V54.708H174.7V53.832H175.648V52.044L176.74 51.876V53.832H178.444V54.708H176.74V58.236C176.74 58.884 176.884 59.244 177.628 59.244C178 59.244 178.444 59.088 178.708 58.944L178.9 59.736ZM182.007 53.7C183.471 53.7 184.071 54.396 184.263 55.488L183.279 55.704C183.135 54.996 182.895 54.564 181.995 54.564C181.095 54.564 180.807 54.96 180.807 55.428C180.807 56.064 181.311 56.244 182.175 56.424C183.303 56.664 184.371 56.892 184.371 58.272C184.371 59.448 183.459 60.144 181.959 60.144C180.543 60.144 179.691 59.592 179.499 58.356L180.471 58.092C180.639 58.752 180.915 59.28 182.007 59.28C182.751 59.28 183.291 59.052 183.291 58.392C183.291 57.708 182.787 57.588 181.947 57.42C180.939 57.216 179.727 57 179.727 55.56C179.727 54.312 180.759 53.7 182.007 53.7ZM185.719 58.728H186.931L185.923 61.548L185.047 61.44L185.719 58.728ZM194.629 60.144C191.941 60.144 190.729 58.26 190.729 55.656C190.729 53.076 192.157 51.156 194.809 51.156C197.437 51.156 198.637 53.076 198.637 55.488C198.637 58.308 197.281 60.144 194.629 60.144ZM194.689 59.172C196.333 59.172 197.509 58.056 197.509 55.596C197.509 53.304 196.429 52.128 194.773 52.128C193.093 52.128 191.881 53.328 191.881 55.644C191.881 57.996 193.009 59.172 194.689 59.172ZM200.206 60V50.94H201.286V54.516C201.826 54.036 202.474 53.7 203.374 53.7C204.646 53.7 205.618 54.504 205.618 56.772C205.618 59.172 204.442 60.144 203.014 60.144C202.282 60.144 201.67 59.808 201.226 59.46H201.214L201.154 60H200.206ZM201.298 58.584C201.574 58.788 202.174 59.22 202.882 59.22C204.046 59.22 204.49 58.26 204.49 56.76C204.49 55.296 204.046 54.624 203.026 54.624C202.342 54.624 201.658 55.044 201.298 55.392V58.584ZM206.519 62.676C206.123 62.676 205.571 62.568 205.355 62.436L205.475 61.548C205.715 61.644 206.075 61.728 206.375 61.728C206.867 61.728 207.179 61.488 207.179 60.756V53.832H208.271V60.804C208.271 62.112 207.635 62.676 206.519 62.676ZM208.523 51.756C208.523 52.26 208.247 52.548 207.755 52.548C207.263 52.548 206.975 52.26 206.975 51.756C206.975 51.264 207.263 50.976 207.755 50.976C208.247 50.976 208.523 51.264 208.523 51.756ZM212.604 60.144C210.42 60.144 209.76 58.62 209.76 56.928C209.76 54.672 211.08 53.7 212.664 53.7C214.392 53.7 215.112 54.84 215.112 56.364C215.112 56.604 215.1 56.88 215.064 57.168H210.912C210.96 58.74 211.656 59.232 212.64 59.232C213.516 59.232 213.924 58.836 214.092 58.14L215.052 58.356C214.8 59.556 213.84 60.144 212.604 60.144ZM213.984 56.304C213.984 55.2 213.564 54.588 212.592 54.588C211.776 54.588 210.984 55.08 210.924 56.304H213.984ZM219.143 60.144C217.103 60.144 216.311 58.824 216.311 56.976C216.311 54.828 217.415 53.7 219.263 53.7C220.643 53.7 221.555 54.42 221.639 55.848L220.595 55.992C220.499 55.08 220.079 54.612 219.215 54.612C218.327 54.612 217.451 55.092 217.451 56.844C217.451 58.68 218.195 59.232 219.179 59.232C220.019 59.232 220.559 58.824 220.715 57.912L221.675 58.116C221.471 59.544 220.379 60.144 219.143 60.144ZM226.596 59.736C226.296 59.94 225.66 60.144 225.084 60.144C223.932 60.144 223.344 59.616 223.344 58.38V54.708H222.396V53.832H223.344V52.044L224.436 51.876V53.832H226.14V54.708H224.436V58.236C224.436 58.884 224.58 59.244 225.324 59.244C225.696 59.244 226.14 59.088 226.404 58.944L226.596 59.736ZM229.703 53.7C231.167 53.7 231.767 54.396 231.959 55.488L230.975 55.704C230.831 54.996 230.591 54.564 229.691 54.564C228.791 54.564 228.503 54.96 228.503 55.428C228.503 56.064 229.007 56.244 229.871 56.424C230.999 56.664 232.067 56.892 232.067 58.272C232.067 59.448 231.155 60.144 229.655 60.144C228.239 60.144 227.387 59.592 227.195 58.356L228.167 58.092C228.335 58.752 228.611 59.28 229.703 59.28C230.447 59.28 230.987 59.052 230.987 58.392C230.987 57.708 230.483 57.588 229.643 57.42C228.635 57.216 227.423 57 227.423 55.56C227.423 54.312 228.455 53.7 229.703 53.7ZM233.414 58.728H234.626L233.618 61.548L232.742 61.44L233.414 58.728ZM240.068 60H238.976V51.312H241.808C244.028 51.312 244.7 52.536 244.7 53.916C244.7 55.98 243.476 56.844 241.388 56.844H240.068V60ZM241.304 55.896C242.564 55.896 243.56 55.596 243.56 53.976C243.56 52.728 242.876 52.248 241.484 52.248H240.068V55.896H241.304ZM249.467 54.84C248.699 54.732 247.787 55.044 247.283 55.512V60H246.191V53.832H247.103L247.187 54.72C247.727 53.988 248.375 53.7 249.239 53.7C249.311 53.7 249.359 53.7 249.467 53.712V54.84ZM252.858 60.144C250.674 60.144 250.014 58.62 250.014 56.928C250.014 54.672 251.334 53.7 252.918 53.7C254.646 53.7 255.366 54.84 255.366 56.364C255.366 56.604 255.354 56.88 255.318 57.168H251.166C251.214 58.74 251.91 59.232 252.894 59.232C253.77 59.232 254.178 58.836 254.346 58.14L255.306 58.356C255.054 59.556 254.094 60.144 252.858 60.144ZM254.238 56.304C254.238 55.2 253.818 54.588 252.846 54.588C252.03 54.588 251.238 55.08 251.178 56.304H254.238ZM261.977 60H261.065L260.981 59.34L260.969 59.328C260.441 59.808 259.817 60.144 258.929 60.144C257.525 60.144 256.577 59.256 256.577 57.012C256.577 54.576 257.813 53.7 259.181 53.7C259.889 53.7 260.477 53.928 260.909 54.276V50.94H261.977V60ZM260.897 55.176C260.609 54.96 260.033 54.636 259.325 54.636C258.137 54.636 257.705 55.584 257.705 57.012C257.705 58.512 258.173 59.232 259.253 59.232C259.889 59.232 260.513 58.86 260.897 58.476V55.176ZM264.966 60H263.874V53.832H264.966V60ZM265.218 51.852C265.218 52.356 264.93 52.644 264.438 52.644C263.946 52.644 263.67 52.356 263.67 51.852C263.67 51.348 263.946 51.072 264.438 51.072C264.93 51.072 265.218 51.348 265.218 51.852ZM269.311 60.144C267.271 60.144 266.479 58.824 266.479 56.976C266.479 54.828 267.583 53.7 269.431 53.7C270.811 53.7 271.723 54.42 271.807 55.848L270.763 55.992C270.667 55.08 270.247 54.612 269.383 54.612C268.495 54.612 267.619 55.092 267.619 56.844C267.619 58.68 268.363 59.232 269.347 59.232C270.187 59.232 270.727 58.824 270.883 57.912L271.843 58.116C271.639 59.544 270.547 60.144 269.311 60.144ZM277.644 58.836C277.644 59.172 277.704 59.316 278.016 59.316C278.124 59.316 278.232 59.292 278.388 59.244L278.436 59.928C278.196 60.048 277.884 60.12 277.584 60.12C276.972 60.12 276.696 59.784 276.636 59.388C276.156 59.868 275.52 60.144 274.656 60.144C273.096 60.144 272.832 59.088 272.832 58.488C272.832 56.844 274.284 56.388 276.024 56.388C276.216 56.388 276.396 56.4 276.564 56.412V55.812C276.564 55.032 276.348 54.552 275.34 54.552C274.488 54.552 274.164 54.888 274.032 55.572L273.072 55.392C273.264 54.24 274.008 53.7 275.436 53.7C276.96 53.7 277.644 54.288 277.644 55.824V58.836ZM276.576 57.204C276.408 57.18 276.18 57.168 275.952 57.168C275.1 57.168 273.96 57.252 273.96 58.308C273.96 58.836 274.152 59.292 274.992 59.292C275.628 59.292 276.24 58.956 276.576 58.596V57.204ZM282.998 59.736C282.698 59.94 282.062 60.144 281.486 60.144C280.334 60.144 279.746 59.616 279.746 58.38V54.708H278.798V53.832H279.746V52.044L280.838 51.876V53.832H282.542V54.708H280.838V58.236C280.838 58.884 280.982 59.244 281.726 59.244C282.098 59.244 282.542 59.088 282.806 58.944L282.998 59.736ZM286.444 60.144C284.26 60.144 283.6 58.62 283.6 56.928C283.6 54.672 284.92 53.7 286.504 53.7C288.232 53.7 288.952 54.84 288.952 56.364C288.952 56.604 288.94 56.88 288.904 57.168H284.752C284.8 58.74 285.496 59.232 286.48 59.232C287.356 59.232 287.764 58.836 287.932 58.14L288.892 58.356C288.64 59.556 287.68 60.144 286.444 60.144ZM287.824 56.304C287.824 55.2 287.404 54.588 286.432 54.588C285.616 54.588 284.824 55.08 284.764 56.304H287.824ZM292.515 53.7C293.979 53.7 294.579 54.396 294.771 55.488L293.787 55.704C293.643 54.996 293.403 54.564 292.503 54.564C291.603 54.564 291.315 54.96 291.315 55.428C291.315 56.064 291.819 56.244 292.683 56.424C293.811 56.664 294.879 56.892 294.879 58.272C294.879 59.448 293.967 60.144 292.467 60.144C291.051 60.144 290.199 59.592 290.007 58.356L290.979 58.092C291.147 58.752 291.423 59.28 292.515 59.28C293.259 59.28 293.799 59.052 293.799 58.392C293.799 57.708 293.295 57.588 292.455 57.42C291.447 57.216 290.235 57 290.235 55.56C290.235 54.312 291.267 53.7 292.515 53.7Z" fill="black"/>
<rect x="51" y="80.5" width="136" height="31" rx="7.5" fill="white"/>
<rect x="51" y="80.5" width="136" height="31" rx="7.5" stroke="#CFCFCF"/>
<path d="M62.916 100.144C60.192 100.144 59.1 98.392 59.1 95.788C59.1 92.86 60.672 91.156 63.144 91.156C64.968 91.156 66.24 92.044 66.372 94.072L65.34 94.18C65.172 92.824 64.56 92.116 63.132 92.116C61.332 92.116 60.24 93.304 60.24 95.692C60.24 98.188 61.248 99.196 62.988 99.196C64.368 99.196 65.04 98.596 65.316 97.372L66.312 97.576C66.012 99.496 64.44 100.144 62.916 100.144ZM70.2406 100.144C68.1046 100.144 67.3966 98.764 67.3966 96.94C67.3966 94.948 68.4286 93.7 70.3966 93.7C72.3526 93.7 73.1566 94.96 73.1566 96.796C73.1566 98.824 72.3166 100.144 70.2406 100.144ZM70.3006 99.268C71.3686 99.268 72.0166 98.62 72.0166 96.868C72.0166 95.164 71.4166 94.6 70.3486 94.6C69.2566 94.6 68.5246 95.248 68.5246 96.892C68.5246 98.524 69.1006 99.268 70.3006 99.268ZM75.8101 100H74.7181V93.832H75.6541L75.7141 94.528C76.3261 94.06 76.9741 93.7 77.8141 93.7C78.6301 93.7 79.1221 93.976 79.3621 94.552C79.9621 94.072 80.6581 93.7 81.4981 93.7C82.7941 93.7 83.2501 94.42 83.2501 95.8V100H82.1581V95.956C82.1581 95.128 81.9901 94.66 81.1981 94.66C80.6101 94.66 79.9021 95.044 79.5421 95.344C79.5541 95.488 79.5661 95.644 79.5661 95.8V100H78.4741V95.956C78.4741 95.128 78.3061 94.66 77.5141 94.66C76.8901 94.66 76.1341 95.092 75.8101 95.392V100ZM85.1126 93.832H86.0606L86.1206 94.54C86.6846 94.036 87.3806 93.7 88.2566 93.7C89.5526 93.7 90.5126 94.504 90.5126 96.772C90.5126 99.184 89.3246 100.144 87.9446 100.144C87.2006 100.144 86.6126 99.88 86.1686 99.544V102.544H85.1126V93.832ZM86.2046 98.608C86.4686 98.812 87.0806 99.22 87.7886 99.22C88.9646 99.22 89.3966 98.236 89.3966 96.76C89.3966 95.212 88.9166 94.612 87.9326 94.612C87.2486 94.612 86.5646 95.032 86.2046 95.392V98.608ZM94.5453 100.144C92.4093 100.144 91.7013 98.764 91.7013 96.94C91.7013 94.948 92.7333 93.7 94.7013 93.7C96.6573 93.7 97.4613 94.96 97.4613 96.796C97.4613 98.824 96.6213 100.144 94.5453 100.144ZM94.6053 99.268C95.6733 99.268 96.3213 98.62 96.3213 96.868C96.3213 95.164 95.7213 94.6 94.6533 94.6C93.5613 94.6 92.8293 95.248 92.8293 96.892C92.8293 98.524 93.4053 99.268 94.6053 99.268ZM98.9988 93.832H100.091V97.852C100.091 98.704 100.295 99.172 101.207 99.172C101.915 99.172 102.671 98.716 102.995 98.416V93.832H104.087V100H103.139L103.067 99.292C102.467 99.784 101.735 100.12 100.883 100.12C99.5748 100.12 98.9988 99.4 98.9988 98.02V93.832ZM111.131 100H110.039V95.98C110.039 95.128 109.727 94.66 108.887 94.66C108.179 94.66 107.411 95.116 107.087 95.404V100H105.995V93.832H106.955L107.015 94.564C107.615 94.084 108.383 93.7 109.235 93.7C110.555 93.7 111.131 94.42 111.131 95.812V100ZM118.008 100H117.096L117.012 99.34L117 99.328C116.472 99.808 115.848 100.144 114.96 100.144C113.556 100.144 112.608 99.256 112.608 97.012C112.608 94.576 113.844 93.7 115.212 93.7C115.92 93.7 116.508 93.928 116.94 94.276V90.94H118.008V100ZM116.928 95.176C116.64 94.96 116.064 94.636 115.356 94.636C114.168 94.636 113.736 95.584 113.736 97.012C113.736 98.512 114.204 99.232 115.284 99.232C115.92 99.232 116.544 98.86 116.928 98.476V95.176ZM125.158 92.092C123.826 92.092 123.346 92.68 123.346 93.448C123.346 94.504 124.33 94.804 125.422 95.128C126.694 95.5 128.074 95.908 128.074 97.588C128.074 99.424 126.61 100.144 125.002 100.144C123.19 100.144 122.062 99.424 121.834 97.636L122.89 97.48C123.094 98.404 123.526 99.208 125.014 99.208C125.95 99.208 126.946 98.896 126.946 97.744C126.946 96.664 125.974 96.376 124.906 96.076C123.61 95.716 122.218 95.344 122.218 93.556C122.218 92.068 123.466 91.156 125.146 91.156C126.67 91.156 127.822 91.744 128.002 93.604L126.97 93.724C126.838 92.896 126.502 92.092 125.158 92.092ZM131.998 100.144C129.814 100.144 129.154 98.62 129.154 96.928C129.154 94.672 130.474 93.7 132.058 93.7C133.786 93.7 134.506 94.84 134.506 96.364C134.506 96.604 134.494 96.88 134.458 97.168H130.306C130.354 98.74 131.05 99.232 132.034 99.232C132.91 99.232 133.318 98.836 133.486 98.14L134.446 98.356C134.194 99.556 133.234 100.144 131.998 100.144ZM133.378 96.304C133.378 95.2 132.958 94.588 131.986 94.588C131.17 94.588 130.378 95.08 130.318 96.304H133.378ZM141.225 100H140.133V95.98C140.133 95.128 139.821 94.66 138.981 94.66C138.273 94.66 137.505 95.116 137.181 95.404V100H136.089V93.832H137.049L137.109 94.564C137.709 94.084 138.477 93.7 139.329 93.7C140.649 93.7 141.225 94.42 141.225 95.812V100ZM146.494 99.736C146.194 99.94 145.558 100.144 144.982 100.144C143.83 100.144 143.242 99.616 143.242 98.38V94.708H142.294V93.832H143.242V92.044L144.334 91.876V93.832H146.038V94.708H144.334V98.236C144.334 98.884 144.478 99.244 145.222 99.244C145.594 99.244 146.038 99.088 146.302 98.944L146.494 99.736ZM149.94 100.144C147.756 100.144 147.096 98.62 147.096 96.928C147.096 94.672 148.416 93.7 150 93.7C151.728 93.7 152.448 94.84 152.448 96.364C152.448 96.604 152.436 96.88 152.4 97.168H148.248C148.296 98.74 148.992 99.232 149.976 99.232C150.852 99.232 151.26 98.836 151.428 98.14L152.388 98.356C152.136 99.556 151.176 100.144 149.94 100.144ZM151.32 96.304C151.32 95.2 150.9 94.588 149.928 94.588C149.112 94.588 148.32 95.08 148.26 96.304H151.32ZM159.167 100H158.075V95.98C158.075 95.128 157.763 94.66 156.923 94.66C156.215 94.66 155.447 95.116 155.123 95.404V100H154.031V93.832H154.991L155.051 94.564C155.651 94.084 156.419 93.7 157.271 93.7C158.591 93.7 159.167 94.42 159.167 95.812V100ZM163.463 100.144C161.423 100.144 160.631 98.824 160.631 96.976C160.631 94.828 161.735 93.7 163.583 93.7C164.963 93.7 165.875 94.42 165.959 95.848L164.915 95.992C164.819 95.08 164.399 94.612 163.535 94.612C162.647 94.612 161.771 95.092 161.771 96.844C161.771 98.68 162.515 99.232 163.499 99.232C164.339 99.232 164.879 98.824 165.035 97.912L165.995 98.116C165.791 99.544 164.699 100.144 163.463 100.144ZM169.932 100.144C167.748 100.144 167.088 98.62 167.088 96.928C167.088 94.672 168.408 93.7 169.992 93.7C171.72 93.7 172.44 94.84 172.44 96.364C172.44 96.604 172.428 96.88 172.392 97.168H168.24C168.288 98.74 168.984 99.232 169.968 99.232C170.844 99.232 171.252 98.836 171.42 98.14L172.38 98.356C172.128 99.556 171.168 100.144 169.932 100.144ZM171.312 96.304C171.312 95.2 170.892 94.588 169.92 94.588C169.104 94.588 168.312 95.08 168.252 96.304H171.312ZM176.003 93.7C177.467 93.7 178.067 94.396 178.259 95.488L177.275 95.704C177.131 94.996 176.891 94.564 175.991 94.564C175.091 94.564 174.803 94.96 174.803 95.428C174.803 96.064 175.307 96.244 176.171 96.424C177.299 96.664 178.367 96.892 178.367 98.272C178.367 99.448 177.455 100.144 175.955 100.144C174.539 100.144 173.687 99.592 173.495 98.356L174.467 98.092C174.635 98.752 174.911 99.28 176.003 99.28C176.747 99.28 177.287 99.052 177.287 98.392C177.287 97.708 176.783 97.588 175.943 97.42C174.935 97.216 173.723 97 173.723 95.56C173.723 94.312 174.755 93.7 176.003 93.7Z" fill="black"/>
<rect x="196" y="80.5" width="123" height="31" rx="7.5" fill="white"/>
<rect x="196" y="80.5" width="123" height="31" rx="7.5" stroke="#CFCFCF"/>
<path d="M207.916 100.144C205.192 100.144 204.1 98.392 204.1 95.788C204.1 92.86 205.672 91.156 208.144 91.156C209.968 91.156 211.24 92.044 211.372 94.072L210.34 94.18C210.172 92.824 209.56 92.116 208.132 92.116C206.332 92.116 205.24 93.304 205.24 95.692C205.24 98.188 206.248 99.196 207.988 99.196C209.368 99.196 210.04 98.596 210.316 97.372L211.312 97.576C211.012 99.496 209.44 100.144 207.916 100.144ZM215.241 100.144C213.105 100.144 212.397 98.764 212.397 96.94C212.397 94.948 213.429 93.7 215.397 93.7C217.353 93.7 218.157 94.96 218.157 96.796C218.157 98.824 217.317 100.144 215.241 100.144ZM215.301 99.268C216.369 99.268 217.017 98.62 217.017 96.868C217.017 95.164 216.417 94.6 215.349 94.6C214.257 94.6 213.525 95.248 213.525 96.892C213.525 98.524 214.101 99.268 215.301 99.268ZM220.81 100H219.718V93.832H220.654L220.714 94.528C221.326 94.06 221.974 93.7 222.814 93.7C223.63 93.7 224.122 93.976 224.362 94.552C224.962 94.072 225.658 93.7 226.498 93.7C227.794 93.7 228.25 94.42 228.25 95.8V100H227.158V95.956C227.158 95.128 226.99 94.66 226.198 94.66C225.61 94.66 224.902 95.044 224.542 95.344C224.554 95.488 224.566 95.644 224.566 95.8V100H223.474V95.956C223.474 95.128 223.306 94.66 222.514 94.66C221.89 94.66 221.134 95.092 220.81 95.392V100ZM230.113 93.832H231.061L231.121 94.54C231.685 94.036 232.381 93.7 233.257 93.7C234.553 93.7 235.513 94.504 235.513 96.772C235.513 99.184 234.325 100.144 232.945 100.144C232.201 100.144 231.613 99.88 231.169 99.544V102.544H230.113V93.832ZM231.205 98.608C231.469 98.812 232.081 99.22 232.789 99.22C233.965 99.22 234.397 98.236 234.397 96.76C234.397 95.212 233.917 94.612 232.933 94.612C232.249 94.612 231.565 95.032 231.205 95.392V98.608ZM238.177 100H237.085V90.94H238.177V100ZM242.534 100.144C240.35 100.144 239.69 98.62 239.69 96.928C239.69 94.672 241.01 93.7 242.594 93.7C244.322 93.7 245.042 94.84 245.042 96.364C245.042 96.604 245.03 96.88 244.994 97.168H240.842C240.89 98.74 241.586 99.232 242.57 99.232C243.446 99.232 243.854 98.836 244.022 98.14L244.982 98.356C244.73 99.556 243.77 100.144 242.534 100.144ZM243.914 96.304C243.914 95.2 243.494 94.588 242.522 94.588C241.706 94.588 240.914 95.08 240.854 96.304H243.914ZM248.911 96.796L251.095 100H249.907L248.263 97.576L246.703 100H245.587L247.663 96.82L245.599 93.832H246.799L248.311 96.076L249.871 93.832H250.987L248.911 96.796ZM257.514 92.092C256.182 92.092 255.702 92.68 255.702 93.448C255.702 94.504 256.686 94.804 257.778 95.128C259.05 95.5 260.43 95.908 260.43 97.588C260.43 99.424 258.966 100.144 257.358 100.144C255.546 100.144 254.418 99.424 254.19 97.636L255.246 97.48C255.45 98.404 255.882 99.208 257.37 99.208C258.306 99.208 259.302 98.896 259.302 97.744C259.302 96.664 258.33 96.376 257.262 96.076C255.966 95.716 254.574 95.344 254.574 93.556C254.574 92.068 255.822 91.156 257.502 91.156C259.026 91.156 260.178 91.744 260.358 93.604L259.326 93.724C259.194 92.896 258.858 92.092 257.514 92.092ZM264.354 100.144C262.17 100.144 261.51 98.62 261.51 96.928C261.51 94.672 262.83 93.7 264.414 93.7C266.142 93.7 266.862 94.84 266.862 96.364C266.862 96.604 266.85 96.88 266.814 97.168H262.662C262.71 98.74 263.406 99.232 264.39 99.232C265.266 99.232 265.674 98.836 265.842 98.14L266.802 98.356C266.55 99.556 265.59 100.144 264.354 100.144ZM265.734 96.304C265.734 95.2 265.314 94.588 264.342 94.588C263.526 94.588 262.734 95.08 262.674 96.304H265.734ZM273.581 100H272.489V95.98C272.489 95.128 272.177 94.66 271.337 94.66C270.629 94.66 269.861 95.116 269.537 95.404V100H268.445V93.832H269.405L269.465 94.564C270.065 94.084 270.833 93.7 271.685 93.7C273.005 93.7 273.581 94.42 273.581 95.812V100ZM278.85 99.736C278.55 99.94 277.914 100.144 277.338 100.144C276.186 100.144 275.598 99.616 275.598 98.38V94.708H274.65V93.832H275.598V92.044L276.69 91.876V93.832H278.394V94.708H276.69V98.236C276.69 98.884 276.834 99.244 277.578 99.244C277.95 99.244 278.394 99.088 278.658 98.944L278.85 99.736ZM282.295 100.144C280.111 100.144 279.451 98.62 279.451 96.928C279.451 94.672 280.771 93.7 282.355 93.7C284.083 93.7 284.803 94.84 284.803 96.364C284.803 96.604 284.791 96.88 284.755 97.168H280.603C280.651 98.74 281.347 99.232 282.331 99.232C283.207 99.232 283.615 98.836 283.783 98.14L284.743 98.356C284.491 99.556 283.531 100.144 282.295 100.144ZM283.675 96.304C283.675 95.2 283.255 94.588 282.283 94.588C281.467 94.588 280.675 95.08 280.615 96.304H283.675ZM291.522 100H290.43V95.98C290.43 95.128 290.118 94.66 289.278 94.66C288.57 94.66 287.802 95.116 287.478 95.404V100H286.386V93.832H287.346L287.406 94.564C288.006 94.084 288.774 93.7 289.626 93.7C290.946 93.7 291.522 94.42 291.522 95.812V100ZM295.818 100.144C293.778 100.144 292.986 98.824 292.986 96.976C292.986 94.828 294.09 93.7 295.938 93.7C297.318 93.7 298.23 94.42 298.314 95.848L297.27 95.992C297.174 95.08 296.754 94.612 295.89 94.612C295.002 94.612 294.126 95.092 294.126 96.844C294.126 98.68 294.87 99.232 295.854 99.232C296.694 99.232 297.234 98.824 297.39 97.912L298.35 98.116C298.146 99.544 297.054 100.144 295.818 100.144ZM302.287 100.144C300.103 100.144 299.443 98.62 299.443 96.928C299.443 94.672 300.763 93.7 302.347 93.7C304.075 93.7 304.795 94.84 304.795 96.364C304.795 96.604 304.783 96.88 304.747 97.168H300.595C300.643 98.74 301.339 99.232 302.323 99.232C303.199 99.232 303.607 98.836 303.775 98.14L304.735 98.356C304.483 99.556 303.523 100.144 302.287 100.144ZM303.667 96.304C303.667 95.2 303.247 94.588 302.275 94.588C301.459 94.588 300.667 95.08 300.607 96.304H303.667ZM308.359 93.7C309.823 93.7 310.423 94.396 310.615 95.488L309.631 95.704C309.487 94.996 309.247 94.564 308.347 94.564C307.447 94.564 307.159 94.96 307.159 95.428C307.159 96.064 307.663 96.244 308.527 96.424C309.655 96.664 310.723 96.892 310.723 98.272C310.723 99.448 309.811 100.144 308.311 100.144C306.895 100.144 306.043 99.592 305.851 98.356L306.823 98.092C306.991 98.752 307.267 99.28 308.359 99.28C309.103 99.28 309.643 99.052 309.643 98.392C309.643 97.708 309.139 97.588 308.299 97.42C307.291 97.216 306.079 97 306.079 95.56C306.079 94.312 307.111 93.7 308.359 93.7Z" fill="black"/>
<rect x="33" y="120.5" width="186" height="31" rx="7.5" fill="white"/>
<rect x="33" y="120.5" width="186" height="31" rx="7.5" stroke="#CFCFCF"/>
<path d="M45.3 131.312L48.324 140H47.112L46.236 137.42H42.9L42.048 140H40.932L43.86 131.312H45.3ZM44.568 132.32H44.556L43.164 136.472H45.96L44.568 132.32ZM54.6211 140H53.7091L53.6251 139.34L53.6131 139.328C53.0851 139.808 52.4611 140.144 51.5731 140.144C50.1691 140.144 49.2211 139.256 49.2211 137.012C49.2211 134.576 50.4571 133.7 51.8251 133.7C52.5331 133.7 53.1211 133.928 53.5531 134.276V130.94H54.6211V140ZM53.5411 135.176C53.2531 134.96 52.6771 134.636 51.9691 134.636C50.7811 134.636 50.3491 135.584 50.3491 137.012C50.3491 138.512 50.8171 139.232 51.8971 139.232C52.5331 139.232 53.1571 138.86 53.5411 138.476V135.176ZM55.8589 142.676C55.4629 142.676 54.9109 142.568 54.6949 142.436L54.8149 141.548C55.0549 141.644 55.4149 141.728 55.7149 141.728C56.2069 141.728 56.5189 141.488 56.5189 140.756V133.832H57.6109V140.804C57.6109 142.112 56.9749 142.676 55.8589 142.676ZM57.8629 131.756C57.8629 132.26 57.5869 132.548 57.0949 132.548C56.6029 132.548 56.3149 132.26 56.3149 131.756C56.3149 131.264 56.6029 130.976 57.0949 130.976C57.5869 130.976 57.8629 131.264 57.8629 131.756ZM61.9437 140.144C59.7597 140.144 59.0997 138.62 59.0997 136.928C59.0997 134.672 60.4197 133.7 62.0037 133.7C63.7317 133.7 64.4517 134.84 64.4517 136.364C64.4517 136.604 64.4397 136.88 64.4037 137.168H60.2517C60.2997 138.74 60.9957 139.232 61.9797 139.232C62.8557 139.232 63.2637 138.836 63.4317 138.14L64.3917 138.356C64.1397 139.556 63.1797 140.144 61.9437 140.144ZM63.3237 136.304C63.3237 135.2 62.9037 134.588 61.9317 134.588C61.1157 134.588 60.3237 135.08 60.2637 136.304H63.3237ZM68.4825 140.144C66.4425 140.144 65.6505 138.824 65.6505 136.976C65.6505 134.828 66.7545 133.7 68.6025 133.7C69.9825 133.7 70.8945 134.42 70.9785 135.848L69.9345 135.992C69.8385 135.08 69.4185 134.612 68.5545 134.612C67.6665 134.612 66.7905 135.092 66.7905 136.844C66.7905 138.68 67.5345 139.232 68.5185 139.232C69.3585 139.232 69.8985 138.824 70.0545 137.912L71.0145 138.116C70.8105 139.544 69.7185 140.144 68.4825 140.144ZM75.9355 139.736C75.6355 139.94 74.9995 140.144 74.4235 140.144C73.2715 140.144 72.6835 139.616 72.6835 138.38V134.708H71.7355V133.832H72.6835V132.044L73.7755 131.876V133.832H75.4795V134.708H73.7755V138.236C73.7755 138.884 73.9195 139.244 74.6635 139.244C75.0355 139.244 75.4795 139.088 75.7435 138.944L75.9355 139.736ZM78.1304 140H77.0384V133.832H78.1304V140ZM78.3824 131.852C78.3824 132.356 78.0944 132.644 77.6024 132.644C77.1104 132.644 76.8344 132.356 76.8344 131.852C76.8344 131.348 77.1104 131.072 77.6024 131.072C78.0944 131.072 78.3824 131.348 78.3824 131.852ZM81.4787 140L79.1267 133.832H80.3147L82.1267 138.908H82.1387L83.9267 133.832H85.0427L82.7267 140H81.4787ZM88.4281 140.144C86.2441 140.144 85.5841 138.62 85.5841 136.928C85.5841 134.672 86.9041 133.7 88.4881 133.7C90.2161 133.7 90.9361 134.84 90.9361 136.364C90.9361 136.604 90.9241 136.88 90.8881 137.168H86.7361C86.7841 138.74 87.4801 139.232 88.4641 139.232C89.3401 139.232 89.7481 138.836 89.9161 138.14L90.8761 138.356C90.6241 139.556 89.6641 140.144 88.4281 140.144ZM89.8081 136.304C89.8081 135.2 89.3881 134.588 88.4161 134.588C87.6001 134.588 86.8081 135.08 86.7481 136.304H89.8081ZM94.4994 133.7C95.9634 133.7 96.5634 134.396 96.7554 135.488L95.7714 135.704C95.6274 134.996 95.3874 134.564 94.4874 134.564C93.5874 134.564 93.2994 134.96 93.2994 135.428C93.2994 136.064 93.8034 136.244 94.6674 136.424C95.7954 136.664 96.8634 136.892 96.8634 138.272C96.8634 139.448 95.9514 140.144 94.4514 140.144C93.0354 140.144 92.1834 139.592 91.9914 138.356L92.9634 138.092C93.1314 138.752 93.4074 139.28 94.4994 139.28C95.2434 139.28 95.7834 139.052 95.7834 138.392C95.7834 137.708 95.2794 137.588 94.4394 137.42C93.4314 137.216 92.2194 137 92.2194 135.56C92.2194 134.312 93.2514 133.7 94.4994 133.7ZM105.84 133.268C105.84 133.976 105.468 134.792 104.04 135.404L103.608 135.596C103.872 136.028 104.208 136.496 104.616 137C104.988 137.468 105.324 137.864 105.636 138.2C106.056 137.612 106.224 136.796 106.248 135.884H107.22C107.208 136.916 106.968 137.984 106.332 138.8C106.68 139.064 107.028 139.232 107.4 139.232C107.58 139.232 107.76 139.196 107.952 139.112L108.144 139.928C107.892 140.072 107.544 140.132 107.28 140.132C106.62 140.132 106.128 139.88 105.612 139.496C105.096 139.892 104.364 140.144 103.392 140.144C101.748 140.144 100.68 139.148 100.68 137.768C100.68 136.604 101.256 135.908 102.3 135.368C101.988 134.792 101.832 134.252 101.832 133.64C101.832 132.488 102.744 131.624 104.028 131.624C104.844 131.624 105.84 131.936 105.84 133.268ZM103.548 139.268C104.112 139.268 104.568 139.136 104.928 138.908C104.4 138.404 103.92 137.816 103.548 137.312C103.212 136.868 102.924 136.472 102.672 136.064C102.144 136.388 101.772 136.832 101.772 137.66C101.772 138.488 102.336 139.268 103.548 139.268ZM102.9 133.52C102.9 133.976 103.02 134.42 103.26 134.912C103.272 134.912 103.668 134.744 103.68 134.744C104.52 134.372 104.88 133.916 104.88 133.316C104.88 132.848 104.58 132.476 103.968 132.476C103.356 132.476 102.9 132.836 102.9 133.52ZM120.647 140H119.603V132.5H119.591L116.963 140H115.811L113.231 132.488H113.207V140H112.187V131.312H113.867L116.423 138.704H116.435L118.991 131.312H120.647V140ZM125.237 140.144C123.101 140.144 122.393 138.764 122.393 136.94C122.393 134.948 123.425 133.7 125.393 133.7C127.349 133.7 128.153 134.96 128.153 136.796C128.153 138.824 127.313 140.144 125.237 140.144ZM125.297 139.268C126.365 139.268 127.013 138.62 127.013 136.868C127.013 135.164 126.413 134.6 125.345 134.6C124.253 134.6 123.521 135.248 123.521 136.892C123.521 138.524 124.097 139.268 125.297 139.268ZM134.742 140H133.83L133.746 139.34L133.734 139.328C133.206 139.808 132.582 140.144 131.694 140.144C130.29 140.144 129.342 139.256 129.342 137.012C129.342 134.576 130.578 133.7 131.946 133.7C132.654 133.7 133.242 133.928 133.674 134.276V130.94H134.742V140ZM133.662 135.176C133.374 134.96 132.798 134.636 132.09 134.636C130.902 134.636 130.47 135.584 130.47 137.012C130.47 138.512 130.938 139.232 132.018 139.232C132.654 139.232 133.278 138.86 133.662 138.476V135.176ZM137.732 140H136.64V133.832H137.732V140ZM137.984 131.852C137.984 132.356 137.696 132.644 137.204 132.644C136.712 132.644 136.436 132.356 136.436 131.852C136.436 131.348 136.712 131.072 137.204 131.072C137.696 131.072 137.984 131.348 137.984 131.852ZM139.76 140V134.708H138.848V133.832H139.76V132.836C139.76 131.48 140.42 130.82 141.596 130.82C142.1 130.82 142.52 130.928 142.724 131.024L142.676 131.864C142.436 131.78 142.1 131.708 141.812 131.708C141.248 131.708 140.852 131.936 140.852 132.8V133.832H142.568V134.708H140.852V140H139.76ZM142.678 133.832H143.89L145.522 138.728H145.534L147.226 133.832H148.342L145.678 140.9C145.186 142.208 144.622 142.676 143.65 142.676C143.194 142.676 142.702 142.556 142.462 142.448L142.594 141.596C142.822 141.68 143.254 141.788 143.578 141.788C144.022 141.788 144.406 141.56 144.682 140.828L144.97 140.072L142.678 133.832ZM150.47 140H149.378V133.832H150.47V140ZM150.722 131.852C150.722 132.356 150.434 132.644 149.942 132.644C149.45 132.644 149.174 132.356 149.174 131.852C149.174 131.348 149.45 131.072 149.942 131.072C150.434 131.072 150.722 131.348 150.722 131.852ZM157.503 140H156.411V135.98C156.411 135.128 156.099 134.66 155.259 134.66C154.551 134.66 153.783 135.116 153.459 135.404V140H152.367V133.832H153.327L153.387 134.564C153.987 134.084 154.755 133.7 155.607 133.7C156.927 133.7 157.503 134.42 157.503 135.812V140ZM161.607 133.7C162.363 133.7 162.987 133.856 163.395 134.264C163.587 133.82 163.911 133.484 164.367 133.484C164.559 133.484 164.727 133.52 164.907 133.58V134.384C164.535 134.36 164.019 134.42 163.707 134.516C164.019 134.852 164.187 135.404 164.187 135.908C164.187 137.3 163.071 138.104 161.655 138.104C161.247 138.104 160.827 138.068 160.515 137.96C160.347 138.116 160.131 138.296 160.131 138.548C160.131 138.788 160.263 138.968 160.923 139.016L162.687 139.136C163.959 139.22 164.703 139.532 164.703 140.744C164.703 142.256 163.083 142.712 161.535 142.712C159.231 142.712 158.763 141.92 158.763 141.188C158.763 140.492 159.255 140.012 159.759 139.772V139.76C159.339 139.592 159.087 139.316 159.087 138.872C159.087 138.344 159.471 138.032 159.903 137.696C159.339 137.396 158.991 136.76 158.991 135.968C158.991 134.612 160.011 133.7 161.607 133.7ZM163.131 135.932C163.131 135.008 162.555 134.564 161.619 134.564C160.767 134.564 160.047 134.96 160.047 135.908C160.047 136.712 160.515 137.24 161.607 137.24C162.507 137.24 163.131 136.76 163.131 135.932ZM163.575 140.876C163.575 140.432 163.383 140.168 162.543 140.108L160.503 139.988C160.035 140.3 159.819 140.576 159.819 140.984C159.819 141.5 160.239 141.848 161.667 141.848C162.939 141.848 163.575 141.524 163.575 140.876ZM169.881 140H168.789V131.312H171.621C173.841 131.312 174.513 132.536 174.513 133.916C174.513 135.98 173.289 136.844 171.201 136.844H169.881V140ZM171.117 135.896C172.377 135.896 173.373 135.596 173.373 133.976C173.373 132.728 172.689 132.248 171.297 132.248H169.881V135.896H171.117ZM181.139 140H180.047V135.98C180.047 135.128 179.735 134.66 178.895 134.66C178.187 134.66 177.419 135.116 177.095 135.404V140H176.003V130.94H177.083V134.528C177.683 134.06 178.391 133.7 179.255 133.7C180.563 133.7 181.139 134.42 181.139 135.812V140ZM186.264 134.84C185.496 134.732 184.584 135.044 184.08 135.512V140H182.988V133.832H183.9L183.984 134.72C184.524 133.988 185.172 133.7 186.036 133.7C186.108 133.7 186.156 133.7 186.264 133.712V134.84ZM191.601 138.836C191.601 139.172 191.661 139.316 191.973 139.316C192.081 139.316 192.189 139.292 192.345 139.244L192.393 139.928C192.153 140.048 191.841 140.12 191.541 140.12C190.929 140.12 190.653 139.784 190.593 139.388C190.113 139.868 189.477 140.144 188.613 140.144C187.053 140.144 186.789 139.088 186.789 138.488C186.789 136.844 188.241 136.388 189.981 136.388C190.173 136.388 190.353 136.4 190.521 136.412V135.812C190.521 135.032 190.305 134.552 189.297 134.552C188.445 134.552 188.121 134.888 187.989 135.572L187.029 135.392C187.221 134.24 187.965 133.7 189.393 133.7C190.917 133.7 191.601 134.288 191.601 135.824V138.836ZM190.533 137.204C190.365 137.18 190.137 137.168 189.909 137.168C189.057 137.168 187.917 137.252 187.917 138.308C187.917 138.836 188.109 139.292 188.949 139.292C189.585 139.292 190.197 138.956 190.533 138.596V137.204ZM195.632 133.7C197.096 133.7 197.696 134.396 197.888 135.488L196.904 135.704C196.76 134.996 196.52 134.564 195.62 134.564C194.72 134.564 194.432 134.96 194.432 135.428C194.432 136.064 194.936 136.244 195.8 136.424C196.928 136.664 197.996 136.892 197.996 138.272C197.996 139.448 197.084 140.144 195.584 140.144C194.168 140.144 193.316 139.592 193.124 138.356L194.096 138.092C194.264 138.752 194.54 139.28 195.632 139.28C196.376 139.28 196.916 139.052 196.916 138.392C196.916 137.708 196.412 137.588 195.572 137.42C194.564 137.216 193.352 137 193.352 135.56C193.352 134.312 194.384 133.7 195.632 133.7ZM201.936 140.144C199.752 140.144 199.092 138.62 199.092 136.928C199.092 134.672 200.412 133.7 201.996 133.7C203.724 133.7 204.444 134.84 204.444 136.364C204.444 136.604 204.432 136.88 204.396 137.168H200.244C200.292 138.74 200.988 139.232 201.972 139.232C202.848 139.232 203.256 138.836 203.424 138.14L204.384 138.356C204.132 139.556 203.172 140.144 201.936 140.144ZM203.316 136.304C203.316 135.2 202.896 134.588 201.924 134.588C201.108 134.588 200.316 135.08 200.256 136.304H203.316ZM208.007 133.7C209.471 133.7 210.071 134.396 210.263 135.488L209.279 135.704C209.135 134.996 208.895 134.564 207.995 134.564C207.095 134.564 206.807 134.96 206.807 135.428C206.807 136.064 207.311 136.244 208.175 136.424C209.303 136.664 210.371 136.892 210.371 138.272C210.371 139.448 209.459 140.144 207.959 140.144C206.543 140.144 205.691 139.592 205.499 138.356L206.471 138.092C206.639 138.752 206.915 139.28 208.007 139.28C208.751 139.28 209.291 139.052 209.291 138.392C209.291 137.708 208.787 137.588 207.947 137.42C206.939 137.216 205.727 137 205.727 135.56C205.727 134.312 206.759 133.7 208.007 133.7Z" fill="black"/>
<rect x="228" y="120.5" width="109" height="31" rx="7.5" fill="white"/>
<rect x="228" y="120.5" width="109" height="31" rx="7.5" stroke="#CFCFCF"/>
<path d="M237.744 140H236.652V131.312H239.484C241.704 131.312 242.376 132.536 242.376 133.916C242.376 135.98 241.152 136.844 239.064 136.844H237.744V140ZM238.98 135.896C240.24 135.896 241.236 135.596 241.236 133.976C241.236 132.728 240.552 132.248 239.16 132.248H237.744V135.896H238.98ZM247.863 138.836C247.863 139.172 247.923 139.316 248.235 139.316C248.343 139.316 248.451 139.292 248.607 139.244L248.655 139.928C248.415 140.048 248.103 140.12 247.803 140.12C247.191 140.12 246.915 139.784 246.855 139.388C246.375 139.868 245.739 140.144 244.875 140.144C243.315 140.144 243.051 139.088 243.051 138.488C243.051 136.844 244.503 136.388 246.243 136.388C246.435 136.388 246.615 136.4 246.783 136.412V135.812C246.783 135.032 246.567 134.552 245.559 134.552C244.707 134.552 244.383 134.888 244.251 135.572L243.291 135.392C243.483 134.24 244.227 133.7 245.655 133.7C247.179 133.7 247.863 134.288 247.863 135.824V138.836ZM246.795 137.204C246.627 137.18 246.399 137.168 246.171 137.168C245.319 137.168 244.179 137.252 244.179 138.308C244.179 138.836 244.371 139.292 245.211 139.292C245.847 139.292 246.459 138.956 246.795 138.596V137.204ZM253.166 134.84C252.398 134.732 251.486 135.044 250.982 135.512V140H249.89V133.832H250.802L250.886 134.72C251.426 133.988 252.074 133.7 252.938 133.7C253.01 133.7 253.058 133.7 253.166 133.712V134.84ZM258.504 138.836C258.504 139.172 258.564 139.316 258.876 139.316C258.984 139.316 259.092 139.292 259.248 139.244L259.296 139.928C259.056 140.048 258.744 140.12 258.444 140.12C257.832 140.12 257.556 139.784 257.496 139.388C257.016 139.868 256.38 140.144 255.516 140.144C253.956 140.144 253.692 139.088 253.692 138.488C253.692 136.844 255.144 136.388 256.884 136.388C257.076 136.388 257.256 136.4 257.424 136.412V135.812C257.424 135.032 257.208 134.552 256.2 134.552C255.348 134.552 255.024 134.888 254.892 135.572L253.932 135.392C254.124 134.24 254.868 133.7 256.296 133.7C257.82 133.7 258.504 134.288 258.504 135.824V138.836ZM257.436 137.204C257.268 137.18 257.04 137.168 256.812 137.168C255.96 137.168 254.82 137.252 254.82 138.308C254.82 138.836 255.012 139.292 255.852 139.292C256.488 139.292 257.1 138.956 257.436 138.596V137.204ZM261.623 140H260.531V130.94H261.623V140ZM264.611 140H263.519V130.94H264.611V140ZM268.967 140.144C266.783 140.144 266.123 138.62 266.123 136.928C266.123 134.672 267.443 133.7 269.027 133.7C270.755 133.7 271.475 134.84 271.475 136.364C271.475 136.604 271.463 136.88 271.427 137.168H267.275C267.323 138.74 268.019 139.232 269.003 139.232C269.879 139.232 270.287 138.836 270.455 138.14L271.415 138.356C271.163 139.556 270.203 140.144 268.967 140.144ZM270.347 136.304C270.347 135.2 269.927 134.588 268.955 134.588C268.139 134.588 267.347 135.08 267.287 136.304H270.347ZM274.15 140H273.058V130.94H274.15V140ZM281.299 132.092C279.967 132.092 279.487 132.68 279.487 133.448C279.487 134.504 280.471 134.804 281.563 135.128C282.835 135.5 284.215 135.908 284.215 137.588C284.215 139.424 282.751 140.144 281.143 140.144C279.331 140.144 278.203 139.424 277.975 137.636L279.031 137.48C279.235 138.404 279.667 139.208 281.155 139.208C282.091 139.208 283.087 138.896 283.087 137.744C283.087 136.664 282.115 136.376 281.047 136.076C279.751 135.716 278.359 135.344 278.359 133.556C278.359 132.068 279.607 131.156 281.287 131.156C282.811 131.156 283.963 131.744 284.143 133.604L283.111 133.724C282.979 132.896 282.643 132.092 281.299 132.092ZM289.123 139.736C288.823 139.94 288.187 140.144 287.611 140.144C286.459 140.144 285.871 139.616 285.871 138.38V134.708H284.923V133.832H285.871V132.044L286.963 131.876V133.832H288.667V134.708H286.963V138.236C286.963 138.884 287.107 139.244 287.851 139.244C288.223 139.244 288.667 139.088 288.931 138.944L289.123 139.736ZM293.502 134.84C292.734 134.732 291.822 135.044 291.318 135.512V140H290.226V133.832H291.138L291.222 134.72C291.762 133.988 292.41 133.7 293.274 133.7C293.346 133.7 293.394 133.7 293.502 133.712V134.84ZM294.573 133.832H295.665V137.852C295.665 138.704 295.869 139.172 296.781 139.172C297.489 139.172 298.245 138.716 298.569 138.416V133.832H299.661V140H298.713L298.641 139.292C298.041 139.784 297.309 140.12 296.457 140.12C295.149 140.12 294.573 139.4 294.573 138.02V133.832ZM304.018 140.144C301.978 140.144 301.186 138.824 301.186 136.976C301.186 134.828 302.29 133.7 304.138 133.7C305.518 133.7 306.43 134.42 306.514 135.848L305.47 135.992C305.374 135.08 304.954 134.612 304.09 134.612C303.202 134.612 302.326 135.092 302.326 136.844C302.326 138.68 303.07 139.232 304.054 139.232C304.894 139.232 305.434 138.824 305.59 137.912L306.55 138.116C306.346 139.544 305.254 140.144 304.018 140.144ZM311.471 139.736C311.171 139.94 310.535 140.144 309.959 140.144C308.807 140.144 308.219 139.616 308.219 138.38V134.708H307.271V133.832H308.219V132.044L309.311 131.876V133.832H311.015V134.708H309.311V138.236C309.311 138.884 309.455 139.244 310.199 139.244C310.571 139.244 311.015 139.088 311.279 138.944L311.471 139.736ZM312.35 133.832H313.442V137.852C313.442 138.704 313.646 139.172 314.558 139.172C315.266 139.172 316.022 138.716 316.346 138.416V133.832H317.438V140H316.49L316.418 139.292C315.818 139.784 315.086 140.12 314.234 140.12C312.926 140.12 312.35 139.4 312.35 138.02V133.832ZM322.623 134.84C321.855 134.732 320.943 135.044 320.439 135.512V140H319.347V133.832H320.259L320.343 134.72C320.883 133.988 321.531 133.7 322.395 133.7C322.467 133.7 322.515 133.7 322.623 133.712V134.84ZM326.014 140.144C323.83 140.144 323.17 138.62 323.17 136.928C323.17 134.672 324.49 133.7 326.074 133.7C327.802 133.7 328.522 134.84 328.522 136.364C328.522 136.604 328.51 136.88 328.474 137.168H324.322C324.37 138.74 325.066 139.232 326.05 139.232C326.926 139.232 327.334 138.836 327.502 138.14L328.462 138.356C328.21 139.556 327.25 140.144 326.014 140.144ZM327.394 136.304C327.394 135.2 326.974 134.588 326.002 134.588C325.186 134.588 324.394 135.08 324.334 136.304H327.394Z" fill="black"/>
</svg>
