<?xml version="1.0" encoding="UTF-8"?>
<svg width="43px" height="20px" viewBox="0 0 43 20" version="1.1" xmlns="http://www.w3.org/2000/svg" xmlns:xlink="http://www.w3.org/1999/xlink">
    <!-- Generator: Sketch 43.1 (39012) - http://www.bohemiancoding.com/sketch -->
    <title>Group 41</title>
    <desc>Created with Sketch.</desc>
    <defs></defs>
    <g id="01-Tools-Landing-Pages" stroke="none" stroke-width="1" fill="none" fill-rule="evenodd">
        <g id="01_00-Diagnostic-Page" transform="translate(-885.000000, -1522.000000)">
            <g id="Group-41" transform="translate(885.000000, 1522.000000)">
                <path d="M3.23353896,16 L42.0003895,16 C42.5461844,16 43,15.5518945 43,14.9991283 L43,1.00087166 C43,0.444630861 42.5524591,0 42.0003895,0 L0.9996105,0 C0.453815624,0 0,0.448105505 0,1.00087166 L0,14.9991283 C0,15.0428655 0.00276699261,15.0859126 0.00813422531,15.1281078 L0.00813422531,19.2937952 L3.23353896,16 Z" id="Combined-Shape" fill="#FF4542"></path>
                <path d="M16.312,12 L16.312,3.312 L14.632,3.312 L14.632,9.468 L11.344,3.312 L9.136,3.312 L9.136,12 L10.828,12 L10.828,5.868 L14.176,12 L16.312,12 Z M19.924,8.412 L23.368,8.412 L23.368,6.9 L19.924,6.9 L19.924,4.86 L23.584,4.86 L23.584,3.312 L18.076,3.312 L18.076,12 L23.8,12 L23.8,10.44 L19.924,10.44 L19.924,8.412 Z M33.796,12 L35.656,3.312 L33.796,3.312 L32.668,10.044 L32.608,10.044 L31.012,3.312 L29.032,3.312 L27.484,10.008 L27.436,10.008 L26.212,3.312 L24.28,3.312 L26.152,12 L28.588,12 L29.98,6.012 L30.028,6.012 L31.432,12 L33.796,12 Z" id="NEW" fill="#FFFFFF"></path>
            </g>
        </g>
    </g>
</svg>