<svg xmlns="http://www.w3.org/2000/svg" xmlns:xlink="http://www.w3.org/1999/xlink" width="447" height="224" viewBox="0 0 447 224">
    <defs>
        <filter id="2cdwpbh17a" width="141.7%" height="141.7%" x="-20.8%" y="-16.7%" filterUnits="objectBoundingBox">
            <feOffset dy="1" in="SourceAlpha" result="shadowOffsetOuter1"/>
            <feGaussianBlur in="shadowOffsetOuter1" result="shadowBlurOuter1" stdDeviation="1.5"/>
            <feColorMatrix in="shadowBlurOuter1" values="0 0 0 0 0 0 0 0 0 0 0 0 0 0 0 0 0 0 0.343613418 0"/>
        </filter>
        <circle id="lek3gorikb" cx="12" cy="12" r="12"/>
    </defs>
    <g fill="none" fill-rule="evenodd">
        <path fill="#F8F6F6" d="M0 0H447V224H0z"/>
        <rect width="384" height="39" x="39" y="78" fill="#348FDF" rx="5"/>
        <rect width="390" height="39" x="33" y="164" fill="#348FDF" rx="5"/>
        <rect width="369" height="39" x="24" y="121" fill="#FFF" stroke="#E0E0E0" rx="5"/>
        <rect width="399" height="55" x="24" y="19" fill="#FFF" stroke="#E0E0E0" rx="5"/>
        <path fill="#FFF" fill-rule="nonzero" d="M59.485 102v-8.138h2.795v-1.274h-7.137v1.274h2.821V102h1.521zm5.356 0v-4.901c.325-.299 1.027-.715 1.703-.715.793 0 1.105.442 1.105 1.287V102h1.495v-4.576c0-1.521-.624-2.288-2.067-2.288-.936 0-1.664.338-2.249.806v-3.757h-1.482V102h1.495zm8.892.156c1.456 0 2.483-.728 2.743-2.002l-1.274-.312c-.156.689-.52 1.092-1.378 1.092-.975 0-1.651-.507-1.69-1.924h4.355c.026-.312.039-.624.039-.897 0-1.742-.806-2.977-2.756-2.977-1.755 0-3.211 1.079-3.211 3.51 0 1.846.754 3.51 3.172 3.51zm1.248-4.186H72.16c.065-1.196.767-1.651 1.521-1.651.897 0 1.3.507 1.3 1.651zm8.567 4.03l1.209-4.927h.026L86.044 102h1.716l2.054-6.721h-1.456l-1.43 5.148h-.013l-1.352-5.148h-1.508l-1.352 5.174h-.013l-1.469-5.174h-1.508L81.767 102h1.781zm9.958.156c2.314 0 3.276-1.43 3.276-3.64 0-1.989-.884-3.38-3.107-3.38-2.223 0-3.341 1.378-3.341 3.536 0 2.002.806 3.484 3.172 3.484zm.078-1.157c-1.17 0-1.69-.741-1.69-2.379s.663-2.275 1.729-2.275c1.053 0 1.599.572 1.599 2.249 0 1.729-.611 2.405-1.638 2.405zM99.759 102v-4.94c.325-.299 1.014-.676 1.573-.676.741 0 .923.455.923 1.248V102h1.495v-4.615c0-.117 0-.247-.013-.351.325-.299.988-.65 1.521-.65.741 0 .936.455.936 1.248V102h1.495v-4.589c0-1.508-.572-2.275-1.95-2.275-.91 0-1.664.364-2.249.871-.286-.624-.832-.871-1.69-.871-.884 0-1.586.351-2.197.832l-.052-.689h-1.287V102h1.495zm12.506.156c1.456 0 2.483-.728 2.743-2.002l-1.274-.312c-.156.689-.52 1.092-1.378 1.092-.975 0-1.651-.507-1.69-1.924h4.355c.026-.312.039-.624.039-.897 0-1.742-.806-2.977-2.756-2.977-1.755 0-3.211 1.079-3.211 3.51 0 1.846.754 3.51 3.172 3.51zm1.248-4.186h-2.821c.065-1.196.767-1.651 1.521-1.651.897 0 1.3.507 1.3 1.651zm4.55 4.03v-4.901c.325-.299 1.027-.715 1.703-.715.793 0 1.105.442 1.105 1.287V102h1.495v-4.576c0-1.521-.624-2.288-2.08-2.288-.923 0-1.729.364-2.327.845l-.065-.702h-1.326V102h1.495zm10.907.156c1.651 0 2.769-.741 2.769-2.132 0-1.534-1.235-1.807-2.392-2.015-.884-.156-1.456-.338-1.456-.962 0-.442.338-.793 1.157-.793.871 0 1.118.468 1.274 1.131l1.3-.338c-.26-1.17-.988-1.911-2.548-1.911-1.404 0-2.587.676-2.587 2.08 0 1.599 1.3 1.833 2.392 2.054.858.169 1.404.286 1.404.962 0 .572-.52.806-1.261.806-1.079 0-1.352-.559-1.521-1.196l-1.274.416c.208 1.248 1.131 1.898 2.743 1.898zm6.968 0c2.314 0 3.276-1.43 3.276-3.64 0-1.989-.884-3.38-3.107-3.38-2.223 0-3.341 1.378-3.341 3.536 0 2.002.806 3.484 3.172 3.484zm.078-1.157c-1.17 0-1.69-.741-1.69-2.379s.663-2.275 1.729-2.275c1.053 0 1.599.572 1.599 2.249 0 1.729-.611 2.405-1.638 2.405zm6.201 1.001v-9.815h-1.495V102h1.495zm5.135 0l2.457-6.721h-1.521l-1.742 5.252h-.026l-1.755-5.252h-1.625l2.483 6.721h1.729zm6.032.156c1.456 0 2.483-.728 2.743-2.002l-1.274-.312c-.156.689-.52 1.092-1.378 1.092-.975 0-1.651-.507-1.69-1.924h4.355c.026-.312.039-.624.039-.897 0-1.742-.806-2.977-2.756-2.977-1.755 0-3.211 1.079-3.211 3.51 0 1.846.754 3.51 3.172 3.51zm1.248-4.186h-2.821c.065-1.196.767-1.651 1.521-1.651.897 0 1.3.507 1.3 1.651zm5.317 4.186c.923 0 1.586-.325 2.119-.832h.026l.104.676h1.248v-9.815h-1.456v3.536c-.455-.39-1.04-.585-1.807-.585-1.456 0-2.834.949-2.834 3.614 0 2.431 1.053 3.406 2.6 3.406zm.481-1.209c-1.079 0-1.534-.754-1.534-2.21 0-1.404.429-2.379 1.599-2.379.637 0 1.17.299 1.456.52v3.38c-.364.377-.949.689-1.521.689zm10.218 1.209c1.456 0 2.483-.728 2.743-2.002l-1.274-.312c-.156.689-.52 1.092-1.378 1.092-.975 0-1.651-.507-1.69-1.924h4.355c.026-.312.039-.624.039-.897 0-1.742-.806-2.977-2.756-2.977-1.755 0-3.211 1.079-3.211 3.51 0 1.846.754 3.51 3.172 3.51zm1.248-4.186h-2.821c.065-1.196.767-1.651 1.521-1.651.897 0 1.3.507 1.3 1.651zm8.814 6.786v-9.477h-1.274l-.117.546c-.455-.442-1.105-.689-1.872-.689-1.443 0-2.834.949-2.834 3.601 0 2.444 1.04 3.419 2.574 3.419.91 0 1.547-.299 2.093-.793v3.393h1.43zm-3.016-3.809c-1.105 0-1.534-.806-1.534-2.236 0-1.404.429-2.353 1.586-2.353.624 0 1.183.325 1.469.559v3.341c-.364.364-.949.689-1.521.689zm6.825 1.196c.923 0 1.716-.351 2.301-.884l.104.741h1.3v-6.721h-1.495v4.901c-.325.299-1.027.702-1.69.702-.793 0-1.053-.429-1.053-1.274v-4.329h-1.495v4.589c0 1.508.624 2.275 2.028 2.275zm7.202.013c.936 0 1.677-.325 2.132-.819.117.52.429.793 1.131.793.364 0 .793-.091 1.053-.221l-.052-.884c-.169.052-.286.078-.403.078-.338 0-.403-.156-.403-.52v-3.107c0-1.677-.806-2.34-2.522-2.34-1.651 0-2.457.676-2.665 1.937l1.313.234c.143-.702.416-1.04 1.235-1.04.988 0 1.17.468 1.17 1.287v.507c-.182-.013-.377-.026-.689-.026-1.807 0-3.289.572-3.289 2.314 0 .663.299 1.807 1.989 1.807zm.533-1.118c-.793 0-1.001-.429-1.001-.897 0-.988 1.092-1.079 1.846-1.079.338 0 .494.013.624.026v1.326c-.299.312-.858.624-1.469.624zm6.942 1.118c.715 0 1.443-.247 1.781-.468l-.247-1.066c-.273.156-.741.312-1.144.312-.728 0-.897-.351-.897-1.014v-3.536h1.82v-1.105h-1.82v-2.171l-1.495.208v1.963h-1.027v1.105h1.027v3.744c0 1.43.676 2.028 2.002 2.028zm3.601-8.008c.624 0 .975-.351.975-.988 0-.624-.351-.975-.975-.975-.611 0-.975.351-.975.975 0 .637.364.988.975.988zm.741 7.852v-6.721h-1.495V102h1.495zm4.628.156c2.314 0 3.276-1.43 3.276-3.64 0-1.989-.884-3.38-3.107-3.38-2.223 0-3.341 1.378-3.341 3.536 0 2.002.806 3.484 3.172 3.484zm.078-1.157c-1.17 0-1.69-.741-1.69-2.379s.663-2.275 1.729-2.275c1.053 0 1.599.572 1.599 2.249 0 1.729-.611 2.405-1.638 2.405zm6.175 1.001v-4.901c.325-.299 1.027-.715 1.703-.715.793 0 1.105.442 1.105 1.287V102h1.495v-4.576c0-1.521-.624-2.288-2.08-2.288-.923 0-1.729.364-2.327.845l-.065-.702h-1.326V102h1.495zm8.333.156c1.651 0 2.769-.741 2.769-2.132 0-1.534-1.235-1.807-2.392-2.015-.884-.156-1.456-.338-1.456-.962 0-.442.338-.793 1.157-.793.871 0 1.118.468 1.274 1.131l1.3-.338c-.26-1.17-.988-1.911-2.548-1.911-1.404 0-2.587.676-2.587 2.08 0 1.599 1.3 1.833 2.392 2.054.858.169 1.404.286 1.404.962 0 .572-.52.806-1.261.806-1.079 0-1.352-.559-1.521-1.196l-1.274.416c.208 1.248 1.131 1.898 2.743 1.898zm10.036 0c1.573 0 2.808-1.053 2.808-3.679 0-2.457-1.079-3.341-2.457-3.341-.91 0-1.599.273-2.171.793v-3.744h-1.469V102h1.274l.091-.559.026-.013c.442.403 1.079.728 1.898.728zm-.286-1.248c-.663 0-1.235-.364-1.508-.572v-3.263c.338-.325.988-.715 1.612-.715 1.04 0 1.443.754 1.443 2.145 0 1.534-.455 2.405-1.547 2.405zm4.914 3.991c1.196 0 1.794-.559 2.34-2.041.871-2.314 1.911-5.109 2.808-7.579h-1.534l-1.651 5.044h-.013l-1.651-5.044h-1.612l2.522 6.825-.273.702c-.273.689-.637.923-1.092.923-.325 0-.767-.104-1.053-.208l-.143 1.118c.273.13.845.26 1.352.26zM247.582 102v-4.901c.325-.299 1.027-.715 1.703-.715.793 0 1.105.442 1.105 1.287V102h1.495v-4.576c0-1.521-.624-2.288-2.067-2.288-.936 0-1.664.338-2.249.806v-3.757h-1.482V102h1.495zm7.761.156c.936 0 1.677-.325 2.132-.819.117.52.429.793 1.131.793.364 0 .793-.091 1.053-.221l-.052-.884c-.169.052-.286.078-.403.078-.338 0-.403-.156-.403-.52v-3.107c0-1.677-.806-2.34-2.522-2.34-1.651 0-2.457.676-2.665 1.937l1.313.234c.143-.702.416-1.04 1.235-1.04.988 0 1.17.468 1.17 1.287v.507c-.182-.013-.377-.026-.689-.026-1.807 0-3.289.572-3.289 2.314 0 .663.299 1.807 1.989 1.807zm.533-1.118c-.793 0-1.001-.429-1.001-.897 0-.988 1.092-1.079 1.846-1.079.338 0 .494.013.624.026v1.326c-.299.312-.858.624-1.469.624zm6.435.962v-4.901c.325-.299 1.027-.715 1.703-.715.793 0 1.105.442 1.105 1.287V102h1.495v-4.576c0-1.521-.624-2.288-2.08-2.288-.923 0-1.729.364-2.327.845l-.065-.702h-1.326V102h1.495zm8.346.156c.923 0 1.586-.325 2.119-.832h.026l.104.676h1.248v-9.815h-1.456v3.536c-.455-.39-1.04-.585-1.807-.585-1.456 0-2.834.949-2.834 3.614 0 2.431 1.053 3.406 2.6 3.406zm.481-1.209c-1.079 0-1.534-.754-1.534-2.21 0-1.404.429-2.379 1.599-2.379.637 0 1.17.299 1.456.52v3.38c-.364.377-.949.689-1.521.689zM281.486 102l1.209-4.927h.026l1.261 4.927h1.716l2.054-6.721h-1.456l-1.43 5.148h-.013l-1.352-5.148h-1.508l-1.352 5.174h-.013l-1.469-5.174h-1.508l2.054 6.721h1.781zm8.71 0v-4.901c.325-.299 1.027-.715 1.703-.715.793 0 1.105.442 1.105 1.287V102h1.495v-4.576c0-1.521-.624-2.288-2.067-2.288-.936 0-1.664.338-2.249.806v-3.757h-1.482V102h1.495zm8.892.156c2.314 0 3.276-1.43 3.276-3.64 0-1.989-.884-3.38-3.107-3.38-2.223 0-3.341 1.378-3.341 3.536 0 2.002.806 3.484 3.172 3.484zm.078-1.157c-1.17 0-1.69-.741-1.69-2.379s.663-2.275 1.729-2.275c1.053 0 1.599.572 1.599 2.249 0 1.729-.611 2.405-1.638 2.405zM309.358 102l1.209-4.927h.026l1.261 4.927h1.716l2.054-6.721h-1.456l-1.43 5.148h-.013l-1.352-5.148h-1.508l-1.352 5.174h-.013l-1.469-5.174h-1.508l2.054 6.721h1.781zm9.958.156c1.456 0 2.483-.728 2.743-2.002l-1.274-.312c-.156.689-.52 1.092-1.378 1.092-.975 0-1.651-.507-1.69-1.924h4.355c.026-.312.039-.624.039-.897 0-1.742-.806-2.977-2.756-2.977-1.755 0-3.211 1.079-3.211 3.51 0 1.846.754 3.51 3.172 3.51zm1.248-4.186h-2.821c.065-1.196.767-1.651 1.521-1.651.897 0 1.3.507 1.3 1.651zm4.55 4.03v-4.667c.559-.494 1.508-.793 2.353-.689v-1.495c-.091 0-.195-.013-.273-.013-.988 0-1.664.39-2.197 1.144l-.117-1.001h-1.261V102h1.495zm5.993.156c1.456 0 2.483-.728 2.743-2.002l-1.274-.312c-.156.689-.52 1.092-1.378 1.092-.975 0-1.651-.507-1.69-1.924h4.355c.026-.312.039-.624.039-.897 0-1.742-.806-2.977-2.756-2.977-1.755 0-3.211 1.079-3.211 3.51 0 1.846.754 3.51 3.172 3.51zm1.248-4.186h-2.821c.065-1.196.767-1.651 1.521-1.651.897 0 1.3.507 1.3 1.651zm8.944 4.03l2.457-6.721h-1.521l-1.742 5.252h-.026l-1.755-5.252h-1.625L339.57 102h1.729zm6.032.156c1.456 0 2.483-.728 2.743-2.002l-1.274-.312c-.156.689-.52 1.092-1.378 1.092-.975 0-1.651-.507-1.69-1.924h4.355c.026-.312.039-.624.039-.897 0-1.742-.806-2.977-2.756-2.977-1.755 0-3.211 1.079-3.211 3.51 0 1.846.754 3.51 3.172 3.51zm1.248-4.186h-2.821c.065-1.196.767-1.651 1.521-1.651.897 0 1.3.507 1.3 1.651zm4.55 4.03v-4.667c.559-.494 1.508-.793 2.353-.689v-1.495c-.091 0-.195-.013-.273-.013-.988 0-1.664.39-2.197 1.144l-.117-1.001h-1.261V102h1.495zm3.822 2.899c1.196 0 1.794-.559 2.34-2.041.871-2.314 1.911-5.109 2.808-7.579h-1.534l-1.651 5.044h-.013l-1.651-5.044h-1.612l2.522 6.825-.273.702c-.273.689-.637.923-1.092.923-.325 0-.767-.104-1.053-.208l-.143 1.118c.273.13.845.26 1.352.26zm10.92-2.743c1.651 0 2.769-.741 2.769-2.132 0-1.534-1.235-1.807-2.392-2.015-.884-.156-1.456-.338-1.456-.962 0-.442.338-.793 1.157-.793.871 0 1.118.468 1.274 1.131l1.3-.338c-.26-1.17-.988-1.911-2.548-1.911-1.404 0-2.587.676-2.587 2.08 0 1.599 1.3 1.833 2.392 2.054.858.169 1.404.286 1.404.962 0 .572-.52.806-1.261.806-1.079 0-1.352-.559-1.521-1.196l-1.274.416c.208 1.248 1.131 1.898 2.743 1.898zm5.668-.156v-2.444l.884-.871L376.36 102h1.638l-2.457-4.303 2.288-2.418h-1.677l-2.613 2.717v-5.811h-1.495V102h1.495zm6.344-7.852c.624 0 .975-.351.975-.988 0-.624-.351-.975-.975-.975-.611 0-.975.351-.975.975 0 .637.364.988.975.988zm.741 7.852v-6.721h-1.495V102h1.495zm3.341 0v-9.815h-1.495V102h1.495zm3.341 0v-9.815h-1.495V102h1.495zm4.628.156c1.456 0 2.483-.728 2.743-2.002l-1.274-.312c-.156.689-.52 1.092-1.378 1.092-.975 0-1.651-.507-1.69-1.924h4.355c.026-.312.039-.624.039-.897 0-1.742-.806-2.977-2.756-2.977-1.755 0-3.211 1.079-3.211 3.51 0 1.846.754 3.51 3.172 3.51zm1.248-4.186h-2.821c.065-1.196.767-1.651 1.521-1.651.897 0 1.3.507 1.3 1.651zm5.317 4.186c.923 0 1.586-.325 2.119-.832h.026l.104.676h1.248v-9.815h-1.456v3.536c-.455-.39-1.04-.585-1.807-.585-1.456 0-2.834.949-2.834 3.614 0 2.431 1.053 3.406 2.6 3.406zm.481-1.209c-1.079 0-1.534-.754-1.534-2.21 0-1.404.429-2.379 1.599-2.379.637 0 1.17.299 1.456.52v3.38c-.364.377-.949.689-1.521.689zm5.499 1.209c.676 0 1.014-.338 1.014-.975 0-.65-.351-.988-1.014-.988-.676 0-1.014.338-1.014.988 0 .65.338.975 1.014.975zM53.485 188v-8.138h2.795v-1.274h-7.137v1.274h2.821V188h1.521zm5.356 0v-4.901c.325-.299 1.027-.715 1.703-.715.793 0 1.105.442 1.105 1.287V188h1.495v-4.576c0-1.521-.624-2.288-2.067-2.288-.936 0-1.664.338-2.249.806v-3.757h-1.482V188h1.495zm8.892.156c1.456 0 2.483-.728 2.743-2.002l-1.274-.312c-.156.689-.52 1.092-1.378 1.092-.975 0-1.651-.507-1.69-1.924h4.355c.026-.312.039-.624.039-.897 0-1.742-.806-2.977-2.756-2.977-1.755 0-3.211 1.079-3.211 3.51 0 1.846.754 3.51 3.172 3.51zm1.248-4.186H66.16c.065-1.196.767-1.651 1.521-1.651.897 0 1.3.507 1.3 1.651zm8.567 4.03l1.209-4.927h.026L80.044 188h1.716l2.054-6.721h-1.456l-1.43 5.148h-.013l-1.352-5.148h-1.508l-1.352 5.174h-.013l-1.469-5.174h-1.508L75.767 188h1.781zm9.958.156c2.314 0 3.276-1.43 3.276-3.64 0-1.989-.884-3.38-3.107-3.38-2.223 0-3.341 1.378-3.341 3.536 0 2.002.806 3.484 3.172 3.484zm.078-1.157c-1.17 0-1.69-.741-1.69-2.379s.663-2.275 1.729-2.275c1.053 0 1.599.572 1.599 2.249 0 1.729-.611 2.405-1.638 2.405zM93.759 188v-4.94c.325-.299 1.014-.676 1.573-.676.741 0 .923.455.923 1.248V188h1.495v-4.615c0-.117 0-.247-.013-.351.325-.299.988-.65 1.521-.65.741 0 .936.455.936 1.248V188h1.495v-4.589c0-1.508-.572-2.275-1.95-2.275-.91 0-1.664.364-2.249.871-.286-.624-.832-.871-1.69-.871-.884 0-1.586.351-2.197.832l-.052-.689h-1.287V188h1.495zm12.506.156c1.456 0 2.483-.728 2.743-2.002l-1.274-.312c-.156.689-.52 1.092-1.378 1.092-.975 0-1.651-.507-1.69-1.924h4.355c.026-.312.039-.624.039-.897 0-1.742-.806-2.977-2.756-2.977-1.755 0-3.211 1.079-3.211 3.51 0 1.846.754 3.51 3.172 3.51zm1.248-4.186h-2.821c.065-1.196.767-1.651 1.521-1.651.897 0 1.3.507 1.3 1.651zm4.55 4.03v-4.901c.325-.299 1.027-.715 1.703-.715.793 0 1.105.442 1.105 1.287V188h1.495v-4.576c0-1.521-.624-2.288-2.08-2.288-.923 0-1.729.364-2.327.845l-.065-.702h-1.326V188h1.495zm6.513 1.716l1.17-3.224h-1.612l-.754 3.094 1.196.13zm8.06-1.716l1.209-4.927h.026l1.261 4.927h1.716l2.054-6.721h-1.456l-1.43 5.148h-.013l-1.352-5.148h-1.508l-1.352 5.174h-.013l-1.469-5.174h-1.508l2.054 6.721h1.781zm8.71 0v-4.901c.325-.299 1.027-.715 1.703-.715.793 0 1.105.442 1.105 1.287V188h1.495v-4.576c0-1.521-.624-2.288-2.067-2.288-.936 0-1.664.338-2.249.806v-3.757h-1.482V188h1.495zm8.892.156c2.314 0 3.276-1.43 3.276-3.64 0-1.989-.884-3.38-3.107-3.38-2.223 0-3.341 1.378-3.341 3.536 0 2.002.806 3.484 3.172 3.484zm.078-1.157c-1.17 0-1.69-.741-1.69-2.379s.663-2.275 1.729-2.275c1.053 0 1.599.572 1.599 2.249 0 1.729-.611 2.405-1.638 2.405zM154.508 188l1.209-4.927h.026l1.261 4.927h1.716l2.054-6.721h-1.456l-1.43 5.148h-.013l-1.352-5.148h-1.508l-1.352 5.174h-.013l-1.469-5.174h-1.508l2.054 6.721h1.781zm9.958.156c1.456 0 2.483-.728 2.743-2.002l-1.274-.312c-.156.689-.52 1.092-1.378 1.092-.975 0-1.651-.507-1.69-1.924h4.355c.026-.312.039-.624.039-.897 0-1.742-.806-2.977-2.756-2.977-1.755 0-3.211 1.079-3.211 3.51 0 1.846.754 3.51 3.172 3.51zm1.248-4.186h-2.821c.065-1.196.767-1.651 1.521-1.651.897 0 1.3.507 1.3 1.651zm4.55 4.03v-4.667c.559-.494 1.508-.793 2.353-.689v-1.495c-.091 0-.195-.013-.273-.013-.988 0-1.664.39-2.197 1.144l-.117-1.001h-1.261V188h1.495zm5.993.156c1.456 0 2.483-.728 2.743-2.002l-1.274-.312c-.156.689-.52 1.092-1.378 1.092-.975 0-1.651-.507-1.69-1.924h4.355c.026-.312.039-.624.039-.897 0-1.742-.806-2.977-2.756-2.977-1.755 0-3.211 1.079-3.211 3.51 0 1.846.754 3.51 3.172 3.51zm1.248-4.186h-2.821c.065-1.196.767-1.651 1.521-1.651.897 0 1.3.507 1.3 1.651zm8.944 4.03l2.457-6.721h-1.521l-1.742 5.252h-.026l-1.755-5.252h-1.625L184.72 188h1.729zm6.032.156c1.456 0 2.483-.728 2.743-2.002l-1.274-.312c-.156.689-.52 1.092-1.378 1.092-.975 0-1.651-.507-1.69-1.924h4.355c.026-.312.039-.624.039-.897 0-1.742-.806-2.977-2.756-2.977-1.755 0-3.211 1.079-3.211 3.51 0 1.846.754 3.51 3.172 3.51zm1.248-4.186h-2.821c.065-1.196.767-1.651 1.521-1.651.897 0 1.3.507 1.3 1.651zm4.55 4.03v-4.667c.559-.494 1.508-.793 2.353-.689v-1.495c-.091 0-.195-.013-.273-.013-.988 0-1.664.39-2.197 1.144l-.117-1.001h-1.261V188h1.495zm3.822 2.899c1.196 0 1.794-.559 2.34-2.041.871-2.314 1.911-5.109 2.808-7.579h-1.534l-1.651 5.044h-.013l-1.651-5.044h-1.612l2.522 6.825-.273.702c-.273.689-.637.923-1.092.923-.325 0-.767-.104-1.053-.208l-.143 1.118c.273.13.845.26 1.352.26zm10.92-2.743c1.651 0 2.769-.741 2.769-2.132 0-1.534-1.235-1.807-2.392-2.015-.884-.156-1.456-.338-1.456-.962 0-.442.338-.793 1.157-.793.871 0 1.118.468 1.274 1.131l1.3-.338c-.26-1.17-.988-1.911-2.548-1.911-1.404 0-2.587.676-2.587 2.08 0 1.599 1.3 1.833 2.392 2.054.858.169 1.404.286 1.404.962 0 .572-.52.806-1.261.806-1.079 0-1.352-.559-1.521-1.196l-1.274.416c.208 1.248 1.131 1.898 2.743 1.898zm5.668-.156v-2.444l.884-.871L221.51 188h1.638l-2.457-4.303 2.288-2.418h-1.677l-2.613 2.717v-5.811h-1.495V188h1.495zm6.344-7.852c.624 0 .975-.351.975-.988 0-.624-.351-.975-.975-.975-.611 0-.975.351-.975.975 0 .637.364.988.975.988zm.741 7.852v-6.721h-1.495V188h1.495zm3.341 0v-9.815h-1.495V188h1.495zm3.341 0v-9.815h-1.495V188h1.495zm4.628.156c1.456 0 2.483-.728 2.743-2.002l-1.274-.312c-.156.689-.52 1.092-1.378 1.092-.975 0-1.651-.507-1.69-1.924h4.355c.026-.312.039-.624.039-.897 0-1.742-.806-2.977-2.756-2.977-1.755 0-3.211 1.079-3.211 3.51 0 1.846.754 3.51 3.172 3.51zm1.248-4.186h-2.821c.065-1.196.767-1.651 1.521-1.651.897 0 1.3.507 1.3 1.651zm5.317 4.186c.923 0 1.586-.325 2.119-.832h.026l.104.676h1.248v-9.815h-1.456v3.536c-.455-.39-1.04-.585-1.807-.585-1.456 0-2.834.949-2.834 3.614 0 2.431 1.053 3.406 2.6 3.406zm.481-1.209c-1.079 0-1.534-.754-1.534-2.21 0-1.404.429-2.379 1.599-2.379.637 0 1.17.299 1.456.52v3.38c-.364.377-.949.689-1.521.689zm5.265 2.769l1.17-3.224h-1.612l-.754 3.094 1.196.13zm7.371-1.56c1.651 0 2.769-.741 2.769-2.132 0-1.534-1.235-1.807-2.392-2.015-.884-.156-1.456-.338-1.456-.962 0-.442.338-.793 1.157-.793.871 0 1.118.468 1.274 1.131l1.3-.338c-.26-1.17-.988-1.911-2.548-1.911-1.404 0-2.587.676-2.587 2.08 0 1.599 1.3 1.833 2.392 2.054.858.169 1.404.286 1.404.962 0 .572-.52.806-1.261.806-1.079 0-1.352-.559-1.521-1.196l-1.274.416c.208 1.248 1.131 1.898 2.743 1.898zm6.968 0c2.314 0 3.276-1.43 3.276-3.64 0-1.989-.884-3.38-3.107-3.38-2.223 0-3.341 1.378-3.341 3.536 0 2.002.806 3.484 3.172 3.484zm.078-1.157c-1.17 0-1.69-.741-1.69-2.379s.663-2.275 1.729-2.275c1.053 0 1.599.572 1.599 2.249 0 1.729-.611 2.405-1.638 2.405zm6.201 1.001v-9.815h-1.495V188h1.495zm5.135 0l2.457-6.721h-1.521l-1.742 5.252h-.026l-1.755-5.252h-1.625l2.483 6.721h1.729zm6.032.156c1.456 0 2.483-.728 2.743-2.002l-1.274-.312c-.156.689-.52 1.092-1.378 1.092-.975 0-1.651-.507-1.69-1.924h4.355c.026-.312.039-.624.039-.897 0-1.742-.806-2.977-2.756-2.977-1.755 0-3.211 1.079-3.211 3.51 0 1.846.754 3.51 3.172 3.51zm1.248-4.186h-2.821c.065-1.196.767-1.651 1.521-1.651.897 0 1.3.507 1.3 1.651zm5.317 4.186c.923 0 1.586-.325 2.119-.832h.026l.104.676h1.248v-9.815h-1.456v3.536c-.455-.39-1.04-.585-1.807-.585-1.456 0-2.834.949-2.834 3.614 0 2.431 1.053 3.406 2.6 3.406zm.481-1.209c-1.079 0-1.534-.754-1.534-2.21 0-1.404.429-2.379 1.599-2.379.637 0 1.17.299 1.456.52v3.38c-.364.377-.949.689-1.521.689zm10.218 1.209c1.456 0 2.483-.728 2.743-2.002l-1.274-.312c-.156.689-.52 1.092-1.378 1.092-.975 0-1.651-.507-1.69-1.924h4.355c.026-.312.039-.624.039-.897 0-1.742-.806-2.977-2.756-2.977-1.755 0-3.211 1.079-3.211 3.51 0 1.846.754 3.51 3.172 3.51zm1.248-4.186h-2.821c.065-1.196.767-1.651 1.521-1.651.897 0 1.3.507 1.3 1.651zm8.814 6.786v-9.477h-1.274l-.117.546c-.455-.442-1.105-.689-1.872-.689-1.443 0-2.834.949-2.834 3.601 0 2.444 1.04 3.419 2.574 3.419.91 0 1.547-.299 2.093-.793v3.393h1.43zm-3.016-3.809c-1.105 0-1.534-.806-1.534-2.236 0-1.404.429-2.353 1.586-2.353.624 0 1.183.325 1.469.559v3.341c-.364.364-.949.689-1.521.689zm6.825 1.196c.923 0 1.716-.351 2.301-.884l.104.741h1.3v-6.721h-1.495v4.901c-.325.299-1.027.702-1.69.702-.793 0-1.053-.429-1.053-1.274v-4.329h-1.495v4.589c0 1.508.624 2.275 2.028 2.275zm7.202.013c.936 0 1.677-.325 2.132-.819.117.52.429.793 1.131.793.364 0 .793-.091 1.053-.221l-.052-.884c-.169.052-.286.078-.403.078-.338 0-.403-.156-.403-.52v-3.107c0-1.677-.806-2.34-2.522-2.34-1.651 0-2.457.676-2.665 1.937l1.313.234c.143-.702.416-1.04 1.235-1.04.988 0 1.17.468 1.17 1.287v.507c-.182-.013-.377-.026-.689-.026-1.807 0-3.289.572-3.289 2.314 0 .663.299 1.807 1.989 1.807zm.533-1.118c-.793 0-1.001-.429-1.001-.897 0-.988 1.092-1.079 1.846-1.079.338 0 .494.013.624.026v1.326c-.299.312-.858.624-1.469.624zm6.942 1.118c.715 0 1.443-.247 1.781-.468l-.247-1.066c-.273.156-.741.312-1.144.312-.728 0-.897-.351-.897-1.014v-3.536h1.82v-1.105h-1.82v-2.171l-1.495.208v1.963h-1.027v1.105h1.027v3.744c0 1.43.676 2.028 2.002 2.028zm3.601-8.008c.624 0 .975-.351.975-.988 0-.624-.351-.975-.975-.975-.611 0-.975.351-.975.975 0 .637.364.988.975.988zm.741 7.852v-6.721h-1.495V188h1.495zm4.628.156c2.314 0 3.276-1.43 3.276-3.64 0-1.989-.884-3.38-3.107-3.38-2.223 0-3.341 1.378-3.341 3.536 0 2.002.806 3.484 3.172 3.484zm.078-1.157c-1.17 0-1.69-.741-1.69-2.379s.663-2.275 1.729-2.275c1.053 0 1.599.572 1.599 2.249 0 1.729-.611 2.405-1.638 2.405zm6.175 1.001v-4.901c.325-.299 1.027-.715 1.703-.715.793 0 1.105.442 1.105 1.287V188h1.495v-4.576c0-1.521-.624-2.288-2.08-2.288-.923 0-1.729.364-2.327.845l-.065-.702h-1.326V188h1.495zm8.333.156c1.651 0 2.769-.741 2.769-2.132 0-1.534-1.235-1.807-2.392-2.015-.884-.156-1.456-.338-1.456-.962 0-.442.338-.793 1.157-.793.871 0 1.118.468 1.274 1.131l1.3-.338c-.26-1.17-.988-1.911-2.548-1.911-1.404 0-2.587.676-2.587 2.08 0 1.599 1.3 1.833 2.392 2.054.858.169 1.404.286 1.404.962 0 .572-.52.806-1.261.806-1.079 0-1.352-.559-1.521-1.196l-1.274.416c.208 1.248 1.131 1.898 2.743 1.898zm10.036 0c1.573 0 2.808-1.053 2.808-3.679 0-2.457-1.079-3.341-2.457-3.341-.91 0-1.599.273-2.171.793v-3.744h-1.469V188h1.274l.091-.559.026-.013c.442.403 1.079.728 1.898.728zm-.286-1.248c-.663 0-1.235-.364-1.508-.572v-3.263c.338-.325.988-.715 1.612-.715 1.04 0 1.443.754 1.443 2.145 0 1.534-.455 2.405-1.547 2.405zm4.914 3.991c1.196 0 1.794-.559 2.34-2.041.871-2.314 1.911-5.109 2.808-7.579h-1.534l-1.651 5.044h-.013l-1.651-5.044h-1.612l2.522 6.825-.273.702c-.273.689-.637.923-1.092.923-.325 0-.767-.104-1.053-.208l-.143 1.118c.273.13.845.26 1.352.26zM375.378 188v-4.901c.325-.299 1.027-.715 1.703-.715.793 0 1.105.442 1.105 1.287V188h1.495v-4.576c0-1.521-.624-2.288-2.067-2.288-.936 0-1.664.338-2.249.806v-3.757h-1.482V188h1.495zm7.761.156c.936 0 1.677-.325 2.132-.819.117.52.429.793 1.131.793.364 0 .793-.091 1.053-.221l-.052-.884c-.169.052-.286.078-.403.078-.338 0-.403-.156-.403-.52v-3.107c0-1.677-.806-2.34-2.522-2.34-1.651 0-2.457.676-2.665 1.937l1.313.234c.143-.702.416-1.04 1.235-1.04.988 0 1.17.468 1.17 1.287v.507c-.182-.013-.377-.026-.689-.026-1.807 0-3.289.572-3.289 2.314 0 .663.299 1.807 1.989 1.807zm.533-1.118c-.793 0-1.001-.429-1.001-.897 0-.988 1.092-1.079 1.846-1.079.338 0 .494.013.624.026v1.326c-.299.312-.858.624-1.469.624zm6.435.962v-4.901c.325-.299 1.027-.715 1.703-.715.793 0 1.105.442 1.105 1.287V188h1.495v-4.576c0-1.521-.624-2.288-2.08-2.288-.923 0-1.729.364-2.327.845l-.065-.702h-1.326V188h1.495zm8.346.156c.923 0 1.586-.325 2.119-.832h.026l.104.676h1.248v-9.815h-1.456v3.536c-.455-.39-1.04-.585-1.807-.585-1.456 0-2.834.949-2.834 3.614 0 2.431 1.053 3.406 2.6 3.406zm.481-1.209c-1.079 0-1.534-.754-1.534-2.21 0-1.404.429-2.379 1.599-2.379.637 0 1.17.299 1.456.52v3.38c-.364.377-.949.689-1.521.689zm5.499 1.209c.676 0 1.014-.338 1.014-.975 0-.65-.351-.988-1.014-.988-.676 0-1.014.338-1.014.988 0 .65.338.975 1.014.975z"/>
        <path fill="#3F3F3F" fill-rule="nonzero" d="M64.212 145v-8.372h2.821v-1.04h-6.864v1.04h2.847V145h1.196zm4.29 0v-4.862c.546-.507 1.534-.845 2.366-.728v-1.222c-.078 0-.169-.013-.247-.013-.936 0-1.638.312-2.223 1.105l-.091-.962h-.988V145h1.183zm3.653 2.899c1.053 0 1.664-.507 2.197-1.924l2.886-7.657h-1.209l-1.833 5.304h-.013l-1.768-5.304h-1.313l2.483 6.76-.312.819c-.299.793-.715 1.04-1.196 1.04-.351 0-.819-.117-1.066-.208l-.143.923c.26.117.793.247 1.287.247zm10.127-.143v-3.25c.481.364 1.118.65 1.924.65 1.495 0 2.782-1.04 2.782-3.653 0-2.457-1.04-3.328-2.444-3.328-.949 0-1.703.364-2.314.91l-.065-.767h-1.027v9.438h1.144zm1.755-3.601c-.767 0-1.43-.442-1.716-.663v-3.484c.39-.39 1.131-.845 1.872-.845 1.066 0 1.586.65 1.586 2.327 0 1.599-.468 2.665-1.742 2.665zm6.669.975c.923 0 1.716-.364 2.366-.897l.078.767h1.027v-6.682h-1.183v4.966c-.351.325-1.17.819-1.937.819-.988 0-1.209-.507-1.209-1.43v-4.355h-1.183v4.537c0 1.495.624 2.275 2.041 2.275zm11.661.026c.624 0 1.313-.221 1.638-.442l-.208-.858c-.286.156-.767.325-1.17.325-.806 0-.962-.39-.962-1.092v-3.822h1.846v-.949h-1.846v-2.119l-1.183.182v1.937h-2.847v-2.119l-1.183.182v1.937h-1.027v.949h1.027v3.978c0 1.339.637 1.911 1.885 1.911.585 0 1.235-.195 1.573-.416l-.221-.858c-.286.156-.741.299-1.105.299-.806 0-.949-.39-.949-1.092v-3.822h2.847v3.978c0 1.339.637 1.911 1.885 1.911zm3.445-8.125c.533 0 .845-.312.845-.858s-.312-.845-.845-.845c-.533 0-.832.299-.832.845s.299.858.832.858zm.572 7.969v-6.682h-1.183V145h1.183zm3.237 0v-4.979c.351-.312 1.183-.806 1.95-.806.91 0 1.248.507 1.248 1.43V145h1.183v-4.537c0-1.508-.624-2.288-2.054-2.288-.923 0-1.755.416-2.405.936l-.065-.793h-1.04V145h1.183zm8.749 2.938c1.677 0 3.432-.494 3.432-2.132 0-1.313-.806-1.651-2.184-1.742l-1.859-.13c-.715-.052-.858-.247-.858-.507 0-.273.234-.455.416-.624.338.117.754.156 1.196.156 1.534 0 2.73-.884 2.73-2.392 0-.546-.169-1.079-.494-1.456.338-.104.871-.169 1.274-.143v-.949c-.195-.065-.377-.104-.585-.104-.494 0-.845.39-1.053.871-.442-.442-1.118-.611-1.937-.611-1.729 0-2.834.988-2.834 2.457 0 .858.377 1.547.988 1.872-.468.364-.884.741-.884 1.313 0 .481.273.741.728.923v.013c-.546.26-1.079.78-1.079 1.534 0 .793.507 1.651 3.003 1.651zm.091-5.954c-1.183 0-1.664-.559-1.664-1.43 0-1.027.754-1.43 1.69-1.43 1.001 0 1.612.455 1.612 1.456 0 .897-.663 1.404-1.638 1.404zm.052 5.018c-1.508 0-1.963-.377-1.963-.936 0-.442.234-.715.741-1.053l2.171.13c.91.065 1.118.325 1.118.806 0 .702-.689 1.053-2.067 1.053zm9.542-1.846c.624 0 1.313-.221 1.638-.442l-.208-.858c-.286.156-.767.325-1.17.325-.806 0-.962-.39-.962-1.092v-3.822h1.846v-.949h-1.846v-2.119l-1.183.182v1.937h-1.027v.949h1.027v3.978c0 1.339.637 1.911 1.885 1.911zm4.017-.156v-4.979c.351-.312 1.183-.806 1.95-.806.91 0 1.248.507 1.248 1.43V145h1.183v-4.537c0-1.508-.624-2.288-2.041-2.288-.936 0-1.703.39-2.353.897v-3.887h-1.17V145h1.183zm9.048.156c1.339 0 2.379-.637 2.652-1.937l-1.04-.234c-.182.754-.624 1.183-1.573 1.183-1.066 0-1.82-.533-1.872-2.236h4.498c.039-.312.052-.611.052-.871 0-1.651-.78-2.886-2.652-2.886-1.716 0-3.146 1.053-3.146 3.497 0 1.833.715 3.484 3.081 3.484zm1.495-4.16H139.3c.065-1.326.923-1.859 1.807-1.859 1.053 0 1.508.663 1.508 1.859zm6.864 6.76v-3.25c.481.364 1.118.65 1.924.65 1.495 0 2.782-1.04 2.782-3.653 0-2.457-1.04-3.328-2.444-3.328-.949 0-1.703.364-2.314.91l-.065-.767h-1.027v9.438h1.144zm1.755-3.601c-.767 0-1.43-.442-1.716-.663v-3.484c.39-.39 1.131-.845 1.872-.845 1.066 0 1.586.65 1.586 2.327 0 1.599-.468 2.665-1.742 2.665zm5.837.845v-4.979c.351-.312 1.183-.806 1.95-.806.91 0 1.248.507 1.248 1.43V145h1.183v-4.537c0-1.508-.624-2.288-2.041-2.288-.936 0-1.703.39-2.353.897v-3.887h-1.17V145h1.183zm7.566 0v-4.862c.546-.507 1.534-.845 2.366-.728v-1.222c-.078 0-.169-.013-.247-.013-.936 0-1.638.312-2.223 1.105l-.091-.962h-.988V145h1.183zm4.914.156c.936 0 1.625-.299 2.145-.819.065.429.364.793 1.027.793.325 0 .663-.078.923-.208l-.052-.741c-.169.052-.286.078-.403.078-.338 0-.403-.156-.403-.52v-3.263c0-1.664-.741-2.301-2.392-2.301-1.547 0-2.353.585-2.561 1.833l1.04.195c.143-.741.494-1.105 1.417-1.105 1.092 0 1.326.52 1.326 1.365v.65c-.182-.013-.377-.026-.585-.026-1.885 0-3.458.494-3.458 2.275 0 .65.286 1.794 1.976 1.794zm.364-.923c-.91 0-1.118-.494-1.118-1.066 0-1.144 1.235-1.235 2.158-1.235.247 0 .494.013.676.039v1.508c-.364.39-1.027.754-1.716.754zm7.189.923c1.625 0 2.613-.754 2.613-2.028 0-1.495-1.157-1.742-2.379-2.002-.936-.195-1.482-.39-1.482-1.079 0-.507.312-.936 1.287-.936.975 0 1.235.468 1.391 1.235l1.066-.234c-.208-1.183-.858-1.937-2.444-1.937-1.352 0-2.47.663-2.47 2.015 0 1.56 1.313 1.794 2.405 2.015.91.182 1.456.312 1.456 1.053 0 .715-.585.962-1.391.962-1.183 0-1.482-.572-1.664-1.287l-1.053.286c.208 1.339 1.131 1.937 2.665 1.937zm6.877 0c1.339 0 2.379-.637 2.652-1.937l-1.04-.234c-.182.754-.624 1.183-1.573 1.183-1.066 0-1.82-.533-1.872-2.236h4.498c.039-.312.052-.611.052-.871 0-1.651-.78-2.886-2.652-2.886-1.716 0-3.146 1.053-3.146 3.497 0 1.833.715 3.484 3.081 3.484zm1.495-4.16h-3.315c.065-1.326.923-1.859 1.807-1.859 1.053 0 1.508.663 1.508 1.859zm6.903 4.004v-4.862c.546-.507 1.534-.845 2.366-.728v-1.222c-.078 0-.169-.013-.247-.013-.936 0-1.638.312-2.223 1.105l-.091-.962h-.988V145h1.183zm4.16-7.969c.533 0 .845-.312.845-.858s-.312-.845-.845-.845c-.533 0-.832.299-.832.845s.299.858.832.858zm.572 7.969v-6.682h-1.183V145h1.183zm4.42 2.938c1.677 0 3.432-.494 3.432-2.132 0-1.313-.806-1.651-2.184-1.742l-1.859-.13c-.715-.052-.858-.247-.858-.507 0-.273.234-.455.416-.624.338.117.754.156 1.196.156 1.534 0 2.73-.884 2.73-2.392 0-.546-.169-1.079-.494-1.456.338-.104.871-.169 1.274-.143v-.949c-.195-.065-.377-.104-.585-.104-.494 0-.845.39-1.053.871-.442-.442-1.118-.611-1.937-.611-1.729 0-2.834.988-2.834 2.457 0 .858.377 1.547.988 1.872-.468.364-.884.741-.884 1.313 0 .481.273.741.728.923v.013c-.546.26-1.079.78-1.079 1.534 0 .793.507 1.651 3.003 1.651zm.091-5.954c-1.183 0-1.664-.559-1.664-1.43 0-1.027.754-1.43 1.69-1.43 1.001 0 1.612.455 1.612 1.456 0 .897-.663 1.404-1.638 1.404zm.052 5.018c-1.508 0-1.963-.377-1.963-.936 0-.442.234-.715.741-1.053l2.171.13c.91.065 1.118.325 1.118.806 0 .702-.689 1.053-2.067 1.053zm5.85-2.002v-4.979c.351-.312 1.183-.806 1.95-.806.91 0 1.248.507 1.248 1.43V145h1.183v-4.537c0-1.508-.624-2.288-2.041-2.288-.936 0-1.703.39-2.353.897v-3.887h-1.17V145h1.183zm8.307.156c.624 0 1.313-.221 1.638-.442l-.208-.858c-.286.156-.767.325-1.17.325-.806 0-.962-.39-.962-1.092v-3.822h1.846v-.949h-1.846v-2.119l-1.183.182v1.937h-1.027v.949h1.027v3.978c0 1.339.637 1.911 1.885 1.911zm7.267 0c.936 0 1.625-.299 2.145-.819.065.429.364.793 1.027.793.325 0 .663-.078.923-.208l-.052-.741c-.169.052-.286.078-.403.078-.338 0-.403-.156-.403-.52v-3.263c0-1.664-.741-2.301-2.392-2.301-1.547 0-2.353.585-2.561 1.833l1.04.195c.143-.741.494-1.105 1.417-1.105 1.092 0 1.326.52 1.326 1.365v.65c-.182-.013-.377-.026-.585-.026-1.885 0-3.458.494-3.458 2.275 0 .65.286 1.794 1.976 1.794zm.364-.923c-.91 0-1.118-.494-1.118-1.066 0-1.144 1.235-1.235 2.158-1.235.247 0 .494.013.676.039v1.508c-.364.39-1.027.754-1.716.754zm11.154.923c.624 0 1.313-.221 1.638-.442l-.221-.858c-.273.156-.754.325-1.157.325-.806 0-.962-.39-.962-1.092v-3.822h1.833v-.949h-1.833v-2.119l-1.183.182v1.937h-2.873v-1.131c0-.897.403-1.157.988-1.157.299 0 .65.065.923.156l.052-.91c-.221-.104-.676-.221-1.196-.221-1.248 0-1.95.715-1.95 2.184v1.079h-.988v.949h.988V145h1.183v-5.733h2.873v3.978c0 1.339.624 1.911 1.885 1.911zm5.369 0c1.339 0 2.379-.637 2.652-1.937l-1.04-.234c-.182.754-.624 1.183-1.573 1.183-1.066 0-1.82-.533-1.872-2.236h4.498c.039-.312.052-.611.052-.871 0-1.651-.78-2.886-2.652-2.886-1.716 0-3.146 1.053-3.146 3.497 0 1.833.715 3.484 3.081 3.484zm1.495-4.16h-3.315c.065-1.326.923-1.859 1.807-1.859 1.053 0 1.508.663 1.508 1.859zm4.121 4.004v-4.862c.546-.507 1.534-.845 2.366-.728v-1.222c-.078 0-.169-.013-.247-.013-.936 0-1.638.312-2.223 1.105l-.091-.962h-.988V145h1.183zm8.424.156c.624 0 1.313-.221 1.638-.442l-.208-.858c-.286.156-.767.325-1.17.325-.806 0-.962-.39-.962-1.092v-3.822h1.846v-.949h-1.846v-2.119l-1.183.182v1.937h-1.027v.949h1.027v3.978c0 1.339.637 1.911 1.885 1.911zm4.017-.156v-4.979c.351-.312 1.183-.806 1.95-.806.91 0 1.248.507 1.248 1.43V145h1.183v-4.537c0-1.508-.624-2.288-2.041-2.288-.936 0-1.703.39-2.353.897v-3.887h-1.17V145h1.183zm9.048.156c1.339 0 2.379-.637 2.652-1.937l-1.04-.234c-.182.754-.624 1.183-1.573 1.183-1.066 0-1.82-.533-1.872-2.236h4.498c.039-.312.052-.611.052-.871 0-1.651-.78-2.886-2.652-2.886-1.716 0-3.146 1.053-3.146 3.497 0 1.833.715 3.484 3.081 3.484zm1.495-4.16h-3.315c.065-1.326.923-1.859 1.807-1.859 1.053 0 1.508.663 1.508 1.859zm8.242 4.004l1.365-5.265h.013l1.378 5.265h1.378l2.08-6.682h-1.144l-1.586 5.408h-.013l-1.456-5.408h-1.222l-1.469 5.434-1.625-5.434h-1.196l2.093 6.682h1.404zm9.88.156c2.249 0 3.159-1.43 3.159-3.627 0-1.989-.871-3.354-2.99-3.354-2.132 0-3.25 1.352-3.25 3.51 0 1.976.767 3.471 3.081 3.471zm.065-.949c-1.3 0-1.924-.806-1.924-2.574 0-1.781.793-2.483 1.976-2.483 1.157 0 1.807.611 1.807 2.457 0 1.898-.702 2.6-1.859 2.6zm5.967.793v-4.862c.546-.507 1.534-.845 2.366-.728v-1.222c-.078 0-.169-.013-.247-.013-.936 0-1.638.312-2.223 1.105l-.091-.962h-.988V145h1.183zm5.512.156c.962 0 1.638-.364 2.21-.884l.013.013.091.715h.988v-9.815h-1.157v3.614c-.468-.377-1.105-.624-1.872-.624-1.482 0-2.821.949-2.821 3.588 0 2.431 1.027 3.393 2.548 3.393zm.351-.988c-1.17 0-1.677-.78-1.677-2.405 0-1.547.468-2.574 1.755-2.574.767 0 1.391.351 1.703.585v3.575c-.416.416-1.092.819-1.781.819zm8.398-7.137c.533 0 .845-.312.845-.858s-.312-.845-.845-.845c-.533 0-.832.299-.832.845s.299.858.832.858zm.572 7.969v-6.682h-1.183V145h1.183zm4.147.156c.624 0 1.313-.221 1.638-.442l-.208-.858c-.286.156-.767.325-1.17.325-.806 0-.962-.39-.962-1.092v-3.822h1.846v-.949h-1.846v-2.119l-1.183.182v1.937h-1.027v.949h1.027v3.978c0 1.339.637 1.911 1.885 1.911zm7.761 0c.962 0 1.638-.364 2.21-.884l.013.013.091.715h.988v-9.815h-1.157v3.614c-.468-.377-1.105-.624-1.872-.624-1.482 0-2.821.949-2.821 3.588 0 2.431 1.027 3.393 2.548 3.393zm.351-.988c-1.17 0-1.677-.78-1.677-2.405 0-1.547.468-2.574 1.755-2.574.767 0 1.391.351 1.703.585v3.575c-.416.416-1.092.819-1.781.819zm7.67.988c1.339 0 2.379-.637 2.652-1.937l-1.04-.234c-.182.754-.624 1.183-1.573 1.183-1.066 0-1.82-.533-1.872-2.236h4.498c.039-.312.052-.611.052-.871 0-1.651-.78-2.886-2.652-2.886-1.716 0-3.146 1.053-3.146 3.497 0 1.833.715 3.484 3.081 3.484zm1.495-4.16h-3.315c.065-1.326.923-1.859 1.807-1.859 1.053 0 1.508.663 1.508 1.859zm5.031 4.16c1.625 0 2.613-.754 2.613-2.028 0-1.495-1.157-1.742-2.379-2.002-.936-.195-1.482-.39-1.482-1.079 0-.507.312-.936 1.287-.936.975 0 1.235.468 1.391 1.235l1.066-.234c-.208-1.183-.858-1.937-2.444-1.937-1.352 0-2.47.663-2.47 2.015 0 1.56 1.313 1.794 2.405 2.015.91.182 1.456.312 1.456 1.053 0 .715-.585.962-1.391.962-1.183 0-1.482-.572-1.664-1.287l-1.053.286c.208 1.339 1.131 1.937 2.665 1.937zm6.864 0c1.339 0 2.522-.65 2.743-2.197l-1.04-.221c-.169.988-.754 1.43-1.664 1.43-1.066 0-1.872-.598-1.872-2.587 0-1.898.949-2.418 1.911-2.418.936 0 1.391.507 1.495 1.495l1.131-.156c-.091-1.547-1.079-2.327-2.574-2.327-2.002 0-3.198 1.222-3.198 3.549 0 2.002.858 3.432 3.068 3.432zm5.525-.156v-4.862c.546-.507 1.534-.845 2.366-.728v-1.222c-.078 0-.169-.013-.247-.013-.936 0-1.638.312-2.223 1.105l-.091-.962h-.988V145h1.183zm4.16-7.969c.533 0 .845-.312.845-.858s-.312-.845-.845-.845c-.533 0-.832.299-.832.845s.299.858.832.858zm.572 7.969v-6.682h-1.183V145h1.183zm5.096.156c1.547 0 2.821-1.053 2.821-3.653 0-2.457-1.053-3.328-2.431-3.328-.975 0-1.677.364-2.262.884v-3.874h-1.17V145h1.027l.065-.585h.013c.481.377 1.144.741 1.937.741zm-.143-1.001c-.767 0-1.417-.468-1.716-.689v-3.458c.39-.377 1.131-.832 1.872-.832 1.105 0 1.586.728 1.586 2.314 0 1.625-.481 2.665-1.742 2.665zm7.319 1.001c1.339 0 2.379-.637 2.652-1.937l-1.04-.234c-.182.754-.624 1.183-1.573 1.183-1.066 0-1.82-.533-1.872-2.236h4.498c.039-.312.052-.611.052-.871 0-1.651-.78-2.886-2.652-2.886-1.716 0-3.146 1.053-3.146 3.497 0 1.833.715 3.484 3.081 3.484zm1.495-4.16H361.6c.065-1.326.923-1.859 1.807-1.859 1.053 0 1.508.663 1.508 1.859zm5.031 4.16c1.625 0 2.613-.754 2.613-2.028 0-1.495-1.157-1.742-2.379-2.002-.936-.195-1.482-.39-1.482-1.079 0-.507.312-.936 1.287-.936.975 0 1.235.468 1.391 1.235l1.066-.234c-.208-1.183-.858-1.937-2.444-1.937-1.352 0-2.47.663-2.47 2.015 0 1.56 1.313 1.794 2.405 2.015.91.182 1.456.312 1.456 1.053 0 .715-.585.962-1.391.962-1.183 0-1.482-.572-1.664-1.287l-1.053.286c.208 1.339 1.131 1.937 2.665 1.937zm4.628 0c.572 0 .884-.299.884-.871 0-.572-.312-.871-.884-.871-.572 0-.884.299-.884.871 0 .585.312.871.884.871z"/>
        <path fill="#EA9A1A" d="M28 121v39c-2.21 0-4-1.79-4-4v-31c0-2.21 1.79-4 4-4z"/>
        <g fill="#EA9A1A" fill-rule="nonzero">
            <path d="M2 5h10.6l-1.3 1.3c-.4.4-.4 1 0 1.4.2.2.4.3.7.3.3 0 .5-.1.7-.3l3-3c.4-.4.4-1 0-1.4l-3-3c-.4-.4-1-.4-1.4 0-.4.4-.4 1 0 1.4L12.6 3H1c-.6 0-1 .4-1 1v3h2V5zM14 11H3.4l1.3-1.3c.4-.4.4-1 0-1.4-.4-.4-1-.4-1.4 0l-3 3c-.4.4-.4 1 0 1.4l3 3c.2.2.4.3.7.3.3 0 .5-.1.7-.3.4-.4.4-1 0-1.4L3.4 13H15c.6 0 1-.4 1-1V9h-2v2z" transform="translate(36 132)"/>
        </g>
        <g transform="translate(22 190)">
            <use fill="#000" filter="url(#2cdwpbh17a)" xlink:href="#lek3gorikb"/>
            <use fill="#FFF" xlink:href="#lek3gorikb"/>
            <g fill="#5AA913" fill-rule="nonzero">
                <path d="M10 0C4.5 0 0 4.5 0 10s4.5 10 10 10 10-4.5 10-10S15.5 0 10 0zM8.75 14.25L4.5 10l1.75-1.75 2.5 2.5 5-5L15.5 7.5l-6.75 6.75z" transform="translate(2 2)"/>
            </g>
        </g>
        <path fill="#3F3F3F" fill-rule="nonzero" d="M168.212 42v-8.372h2.821v-1.04h-6.864v1.04h2.847V42h1.196zm5.226 0v-4.979c.351-.312 1.183-.806 1.95-.806.91 0 1.248.507 1.248 1.43V42h1.183v-4.537c0-1.508-.624-2.288-2.041-2.288-.936 0-1.703.39-2.353.897v-3.887h-1.17V42h1.183zm9.048.156c1.339 0 2.379-.637 2.652-1.937l-1.04-.234c-.182.754-.624 1.183-1.573 1.183-1.066 0-1.82-.533-1.872-2.236h4.498c.039-.312.052-.611.052-.871 0-1.651-.78-2.886-2.652-2.886-1.716 0-3.146 1.053-3.146 3.497 0 1.833.715 3.484 3.081 3.484zm1.495-4.16h-3.315c.065-1.326.923-1.859 1.807-1.859 1.053 0 1.508.663 1.508 1.859zM192.223 42l1.365-5.265h.013L194.979 42h1.378l2.08-6.682h-1.144l-1.586 5.408h-.013l-1.456-5.408h-1.222l-1.469 5.434-1.625-5.434h-1.196L190.819 42h1.404zm9.88.156c2.249 0 3.159-1.43 3.159-3.627 0-1.989-.871-3.354-2.99-3.354-2.132 0-3.25 1.352-3.25 3.51 0 1.976.767 3.471 3.081 3.471zm.065-.949c-1.3 0-1.924-.806-1.924-2.574 0-1.781.793-2.483 1.976-2.483 1.157 0 1.807.611 1.807 2.457 0 1.898-.702 2.6-1.859 2.6zm5.967.793v-4.992c.351-.325 1.17-.793 1.846-.793.858 0 1.04.507 1.04 1.404V42h1.183v-4.55c0-.169-.013-.338-.026-.494.39-.325 1.157-.741 1.794-.741.858 0 1.04.507 1.04 1.404V42h1.183v-4.55c0-1.495-.494-2.275-1.898-2.275-.91 0-1.664.403-2.314.923-.26-.624-.793-.923-1.677-.923-.91 0-1.612.39-2.275.897l-.065-.754h-1.014V42h1.183zm12.74.156c1.339 0 2.379-.637 2.652-1.937l-1.04-.234c-.182.754-.624 1.183-1.573 1.183-1.066 0-1.82-.533-1.872-2.236h4.498c.039-.312.052-.611.052-.871 0-1.651-.78-2.886-2.652-2.886-1.716 0-3.146 1.053-3.146 3.497 0 1.833.715 3.484 3.081 3.484zm1.495-4.16h-3.315c.065-1.326.923-1.859 1.807-1.859 1.053 0 1.508.663 1.508 1.859zM226.491 42v-4.979c.351-.312 1.183-.806 1.95-.806.91 0 1.248.507 1.248 1.43V42h1.183v-4.537c0-1.508-.624-2.288-2.054-2.288-.923 0-1.755.416-2.405.936l-.065-.793h-1.04V42h1.183zm11.284.156c1.625 0 2.613-.754 2.613-2.028 0-1.495-1.157-1.742-2.379-2.002-.936-.195-1.482-.39-1.482-1.079 0-.507.312-.936 1.287-.936.975 0 1.235.468 1.391 1.235l1.066-.234c-.208-1.183-.858-1.937-2.444-1.937-1.352 0-2.47.663-2.47 2.015 0 1.56 1.313 1.794 2.405 2.015.91.182 1.456.312 1.456 1.053 0 .715-.585.962-1.391.962-1.183 0-1.482-.572-1.664-1.287l-1.053.286c.208 1.339 1.131 1.937 2.665 1.937zm6.877 0c2.249 0 3.159-1.43 3.159-3.627 0-1.989-.871-3.354-2.99-3.354-2.132 0-3.25 1.352-3.25 3.51 0 1.976.767 3.471 3.081 3.471zm.065-.949c-1.3 0-1.924-.806-1.924-2.574 0-1.781.793-2.483 1.976-2.483 1.157 0 1.807.611 1.807 2.457 0 1.898-.702 2.6-1.859 2.6zm5.967.793v-9.815h-1.183V42h1.183zm4.979 0l2.509-6.682h-1.209l-1.937 5.499h-.013l-1.963-5.499h-1.287L254.311 42h1.352zm6.045.156c1.339 0 2.379-.637 2.652-1.937l-1.04-.234c-.182.754-.624 1.183-1.573 1.183-1.066 0-1.82-.533-1.872-2.236h4.498c.039-.312.052-.611.052-.871 0-1.651-.78-2.886-2.652-2.886-1.716 0-3.146 1.053-3.146 3.497 0 1.833.715 3.484 3.081 3.484zm1.495-4.16h-3.315c.065-1.326.923-1.859 1.807-1.859 1.053 0 1.508.663 1.508 1.859zm5.083 4.16c.962 0 1.638-.364 2.21-.884l.013.013.091.715h.988v-9.815h-1.157v3.614c-.468-.377-1.105-.624-1.872-.624-1.482 0-2.821.949-2.821 3.588 0 2.431 1.027 3.393 2.548 3.393zm.351-.988c-1.17 0-1.677-.78-1.677-2.405 0-1.547.468-2.574 1.755-2.574.767 0 1.391.351 1.703.585v3.575c-.416.416-1.092.819-1.781.819zm10.452.988c1.339 0 2.379-.637 2.652-1.937l-1.04-.234c-.182.754-.624 1.183-1.573 1.183-1.066 0-1.82-.533-1.872-2.236h4.498c.039-.312.052-.611.052-.871 0-1.651-.78-2.886-2.652-2.886-1.716 0-3.146 1.053-3.146 3.497 0 1.833.715 3.484 3.081 3.484zm1.495-4.16h-3.315c.065-1.326.923-1.859 1.807-1.859 1.053 0 1.508.663 1.508 1.859zm8.385 6.76v-9.438h-1.027l-.104.585c-.468-.416-1.118-.728-1.898-.728-1.482 0-2.821.949-2.821 3.575 0 2.444 1.027 3.406 2.548 3.406.949 0 1.599-.351 2.184-.819v3.419h1.118zm-2.951-3.588c-1.183 0-1.677-.806-1.677-2.418 0-1.547.468-2.561 1.755-2.561.754 0 1.391.403 1.703.65v3.51c-.416.416-1.092.819-1.781.819zm6.994.962c.923 0 1.716-.364 2.366-.897l.078.767h1.027v-6.682H295.3v4.966c-.351.325-1.17.819-1.937.819-.988 0-1.209-.507-1.209-1.43v-4.355h-1.183v4.537c0 1.495.624 2.275 2.041 2.275zm7.189.026c.936 0 1.625-.299 2.145-.819.065.429.364.793 1.027.793.325 0 .663-.078.923-.208l-.052-.741c-.169.052-.286.078-.403.078-.338 0-.403-.156-.403-.52v-3.263c0-1.664-.741-2.301-2.392-2.301-1.547 0-2.353.585-2.561 1.833l1.04.195c.143-.741.494-1.105 1.417-1.105 1.092 0 1.326.52 1.326 1.365v.65c-.182-.013-.377-.026-.585-.026-1.885 0-3.458.494-3.458 2.275 0 .65.286 1.794 1.976 1.794zm.364-.923c-.91 0-1.118-.494-1.118-1.066 0-1.144 1.235-1.235 2.158-1.235.247 0 .494.013.676.039v1.508c-.364.39-1.027.754-1.716.754zm6.929.923c.624 0 1.313-.221 1.638-.442l-.208-.858c-.286.156-.767.325-1.17.325-.806 0-.962-.39-.962-1.092v-3.822h1.846v-.949h-1.846v-2.119l-1.183.182v1.937h-1.027v.949h1.027v3.978c0 1.339.637 1.911 1.885 1.911zm3.445-8.125c.533 0 .845-.312.845-.858s-.312-.845-.845-.845c-.533 0-.832.299-.832.845s.299.858.832.858zm.572 7.969v-6.682h-1.183V42h1.183zm4.719.156c2.249 0 3.159-1.43 3.159-3.627 0-1.989-.871-3.354-2.99-3.354-2.132 0-3.25 1.352-3.25 3.51 0 1.976.767 3.471 3.081 3.471zm.065-.949c-1.3 0-1.924-.806-1.924-2.574 0-1.781.793-2.483 1.976-2.483 1.157 0 1.807.611 1.807 2.457 0 1.898-.702 2.6-1.859 2.6zm5.967.793v-4.979c.351-.312 1.183-.806 1.95-.806.91 0 1.248.507 1.248 1.43V42h1.183v-4.537c0-1.508-.624-2.288-2.054-2.288-.923 0-1.755.416-2.405.936l-.065-.793h-1.04V42h1.183zm8.502.156c1.625 0 2.613-.754 2.613-2.028 0-1.495-1.157-1.742-2.379-2.002-.936-.195-1.482-.39-1.482-1.079 0-.507.312-.936 1.287-.936.975 0 1.235.468 1.391 1.235l1.066-.234c-.208-1.183-.858-1.937-2.444-1.937-1.352 0-2.47.663-2.47 2.015 0 1.56 1.313 1.794 2.405 2.015.91.182 1.456.312 1.456 1.053 0 .715-.585.962-1.391.962-1.183 0-1.482-.572-1.664-1.287l-1.053.286c.208 1.339 1.131 1.937 2.665 1.937zm10.036 0c1.547 0 2.821-1.053 2.821-3.653 0-2.457-1.053-3.328-2.431-3.328-.975 0-1.677.364-2.262.884v-3.874h-1.17V42h1.027l.065-.585h.013c.481.377 1.144.741 1.937.741zm-.143-1.001c-.767 0-1.417-.468-1.716-.689v-3.458c.39-.377 1.131-.832 1.872-.832 1.105 0 1.586.728 1.586 2.314 0 1.625-.481 2.665-1.742 2.665zm4.602 3.744c1.053 0 1.664-.507 2.197-1.924l2.886-7.657h-1.209l-1.833 5.304h-.013l-1.768-5.304h-1.313l2.483 6.76-.312.819c-.299.793-.715 1.04-1.196 1.04-.351 0-.819-.117-1.066-.208l-.143.923c.26.117.793.247 1.287.247zM355.425 42v-4.979c.351-.312 1.183-.806 1.95-.806.91 0 1.248.507 1.248 1.43V42h1.183v-4.537c0-1.508-.624-2.288-2.041-2.288-.936 0-1.703.39-2.353.897v-3.887h-1.17V42h1.183zm8.034.156c.936 0 1.625-.299 2.145-.819.065.429.364.793 1.027.793.325 0 .663-.078.923-.208l-.052-.741c-.169.052-.286.078-.403.078-.338 0-.403-.156-.403-.52v-3.263c0-1.664-.741-2.301-2.392-2.301-1.547 0-2.353.585-2.561 1.833l1.04.195c.143-.741.494-1.105 1.417-1.105 1.092 0 1.326.52 1.326 1.365v.65c-.182-.013-.377-.026-.585-.026-1.885 0-3.458.494-3.458 2.275 0 .65.286 1.794 1.976 1.794zm.364-.923c-.91 0-1.118-.494-1.118-1.066 0-1.144 1.235-1.235 2.158-1.235.247 0 .494.013.676.039v1.508c-.364.39-1.027.754-1.716.754zm6.253.767v-4.979c.351-.312 1.183-.806 1.95-.806.91 0 1.248.507 1.248 1.43V42h1.183v-4.537c0-1.508-.624-2.288-2.054-2.288-.923 0-1.755.416-2.405.936l-.065-.793h-1.04V42h1.183zm8.528.156c.962 0 1.638-.364 2.21-.884l.013.013.091.715h.988v-9.815h-1.157v3.614c-.468-.377-1.105-.624-1.872-.624-1.482 0-2.821.949-2.821 3.588 0 2.431 1.027 3.393 2.548 3.393zm.351-.988c-1.17 0-1.677-.78-1.677-2.405 0-1.547.468-2.574 1.755-2.574.767 0 1.391.351 1.703.585v3.575c-.416.416-1.092.819-1.781.819zm5.421.988c.572 0 .884-.299.884-.871 0-.572-.312-.871-.884-.871-.572 0-.884.299-.884.871 0 .585.312.871.884.871zM168.212 59v-8.372h2.821v-1.04h-6.864v1.04h2.847V59h1.196zm5.226 0v-4.979c.351-.312 1.183-.806 1.95-.806.91 0 1.248.507 1.248 1.43V59h1.183v-4.537c0-1.508-.624-2.288-2.041-2.288-.936 0-1.703.39-2.353.897v-3.887h-1.17V59h1.183zm9.048.156c1.339 0 2.379-.637 2.652-1.937l-1.04-.234c-.182.754-.624 1.183-1.573 1.183-1.066 0-1.82-.533-1.872-2.236h4.498c.039-.312.052-.611.052-.871 0-1.651-.78-2.886-2.652-2.886-1.716 0-3.146 1.053-3.146 3.497 0 1.833.715 3.484 3.081 3.484zm1.495-4.16h-3.315c.065-1.326.923-1.859 1.807-1.859 1.053 0 1.508.663 1.508 1.859zM192.223 59l1.365-5.265h.013L194.979 59h1.378l2.08-6.682h-1.144l-1.586 5.408h-.013l-1.456-5.408h-1.222l-1.469 5.434-1.625-5.434h-1.196L190.819 59h1.404zm9.88.156c2.249 0 3.159-1.43 3.159-3.627 0-1.989-.871-3.354-2.99-3.354-2.132 0-3.25 1.352-3.25 3.51 0 1.976.767 3.471 3.081 3.471zm.065-.949c-1.3 0-1.924-.806-1.924-2.574 0-1.781.793-2.483 1.976-2.483 1.157 0 1.807.611 1.807 2.457 0 1.898-.702 2.6-1.859 2.6zm5.967.793v-4.992c.351-.325 1.17-.793 1.846-.793.858 0 1.04.507 1.04 1.404V59h1.183v-4.55c0-.169-.013-.338-.026-.494.39-.325 1.157-.741 1.794-.741.858 0 1.04.507 1.04 1.404V59h1.183v-4.55c0-1.495-.494-2.275-1.898-2.275-.91 0-1.664.403-2.314.923-.26-.624-.793-.923-1.677-.923-.91 0-1.612.39-2.275.897l-.065-.754h-1.014V59h1.183zm12.74.156c1.339 0 2.379-.637 2.652-1.937l-1.04-.234c-.182.754-.624 1.183-1.573 1.183-1.066 0-1.82-.533-1.872-2.236h4.498c.039-.312.052-.611.052-.871 0-1.651-.78-2.886-2.652-2.886-1.716 0-3.146 1.053-3.146 3.497 0 1.833.715 3.484 3.081 3.484zm1.495-4.16h-3.315c.065-1.326.923-1.859 1.807-1.859 1.053 0 1.508.663 1.508 1.859zM226.491 59v-4.979c.351-.312 1.183-.806 1.95-.806.91 0 1.248.507 1.248 1.43V59h1.183v-4.537c0-1.508-.624-2.288-2.054-2.288-.923 0-1.755.416-2.405.936l-.065-.793h-1.04V59h1.183zm11.687 0l1.365-5.265h.013L240.934 59h1.378l2.08-6.682h-1.144l-1.586 5.408h-.013l-1.456-5.408h-1.222l-1.469 5.434-1.625-5.434h-1.196L236.774 59h1.404zm9.88.156c1.339 0 2.379-.637 2.652-1.937l-1.04-.234c-.182.754-.624 1.183-1.573 1.183-1.066 0-1.82-.533-1.872-2.236h4.498c.039-.312.052-.611.052-.871 0-1.651-.78-2.886-2.652-2.886-1.716 0-3.146 1.053-3.146 3.497 0 1.833.715 3.484 3.081 3.484zm1.495-4.16h-3.315c.065-1.326.923-1.859 1.807-1.859 1.053 0 1.508.663 1.508 1.859zM253.674 59v-4.862c.546-.507 1.534-.845 2.366-.728v-1.222c-.078 0-.169-.013-.247-.013-.936 0-1.638.312-2.223 1.105l-.091-.962h-.988V59h1.183zm6.032.156c1.339 0 2.379-.637 2.652-1.937l-1.04-.234c-.182.754-.624 1.183-1.573 1.183-1.066 0-1.82-.533-1.872-2.236h4.498c.039-.312.052-.611.052-.871 0-1.651-.78-2.886-2.652-2.886-1.716 0-3.146 1.053-3.146 3.497 0 1.833.715 3.484 3.081 3.484zm1.495-4.16h-3.315c.065-1.326.923-1.859 1.807-1.859 1.053 0 1.508.663 1.508 1.859zM269.846 59l2.509-6.682h-1.209l-1.937 5.499h-.013l-1.963-5.499h-1.287L268.494 59h1.352zm6.045.156c1.339 0 2.379-.637 2.652-1.937l-1.04-.234c-.182.754-.624 1.183-1.573 1.183-1.066 0-1.82-.533-1.872-2.236h4.498c.039-.312.052-.611.052-.871 0-1.651-.78-2.886-2.652-2.886-1.716 0-3.146 1.053-3.146 3.497 0 1.833.715 3.484 3.081 3.484zm1.495-4.16h-3.315c.065-1.326.923-1.859 1.807-1.859 1.053 0 1.508.663 1.508 1.859zM281.507 59v-4.862c.546-.507 1.534-.845 2.366-.728v-1.222c-.078 0-.169-.013-.247-.013-.936 0-1.638.312-2.223 1.105l-.091-.962h-.988V59h1.183zm3.653 2.899c1.053 0 1.664-.507 2.197-1.924l2.886-7.657h-1.209l-1.833 5.304h-.013l-1.768-5.304h-1.313l2.483 6.76-.312.819c-.299.793-.715 1.04-1.196 1.04-.351 0-.819-.117-1.066-.208l-.143.923c.26.117.793.247 1.287.247zm11.102-2.743c1.625 0 2.613-.754 2.613-2.028 0-1.495-1.157-1.742-2.379-2.002-.936-.195-1.482-.39-1.482-1.079 0-.507.312-.936 1.287-.936.975 0 1.235.468 1.391 1.235l1.066-.234c-.208-1.183-.858-1.937-2.444-1.937-1.352 0-2.47.663-2.47 2.015 0 1.56 1.313 1.794 2.405 2.015.91.182 1.456.312 1.456 1.053 0 .715-.585.962-1.391.962-1.183 0-1.482-.572-1.664-1.287l-1.053.286c.208 1.339 1.131 1.937 2.665 1.937zm5.395-.156v-2.431l1.027-1.014L304.738 59h1.3l-2.483-4.277 2.314-2.405h-1.339l-2.873 2.938v-6.071h-1.183V59h1.183zm6.331-7.969c.533 0 .845-.312.845-.858s-.312-.845-.845-.845c-.533 0-.832.299-.832.845s.299.858.832.858zM308.56 59v-6.682h-1.183V59h1.183zm3.237 0v-9.815h-1.183V59h1.183zm3.237 0v-9.815h-1.183V59h1.183zm4.719.156c1.339 0 2.379-.637 2.652-1.937l-1.04-.234c-.182.754-.624 1.183-1.573 1.183-1.066 0-1.82-.533-1.872-2.236h4.498c.039-.312.052-.611.052-.871 0-1.651-.78-2.886-2.652-2.886-1.716 0-3.146 1.053-3.146 3.497 0 1.833.715 3.484 3.081 3.484zm1.495-4.16h-3.315c.065-1.326.923-1.859 1.807-1.859 1.053 0 1.508.663 1.508 1.859zm5.083 4.16c.962 0 1.638-.364 2.21-.884l.013.013.091.715h.988v-9.815h-1.157v3.614c-.468-.377-1.105-.624-1.872-.624-1.482 0-2.821.949-2.821 3.588 0 2.431 1.027 3.393 2.548 3.393zm.351-.988c-1.17 0-1.677-.78-1.677-2.405 0-1.547.468-2.574 1.755-2.574.767 0 1.391.351 1.703.585v3.575c-.416.416-1.092.819-1.781.819zm5.421.988c.572 0 .884-.299.884-.871 0-.572-.312-.871-.884-.871-.572 0-.884.299-.884.871 0 .585.312.871.884.871zM44.81 42.156c1.664 0 3.432-.767 3.757-2.899l-1.352-.26c-.273 1.196-.923 1.872-2.327 1.872-1.755 0-2.743-1.001-2.743-3.549 0-2.457 1.092-3.588 2.873-3.588 1.404 0 2.041.689 2.197 2.106l1.404-.13c-.143-2.262-1.56-3.289-3.588-3.289-2.795 0-4.446 1.911-4.446 5.005 0 2.847 1.196 4.732 4.225 4.732zm7.93 0c2.314 0 3.276-1.43 3.276-3.64 0-1.989-.884-3.38-3.107-3.38-2.223 0-3.341 1.378-3.341 3.536 0 2.002.806 3.484 3.172 3.484zm.078-1.157c-1.17 0-1.69-.741-1.69-2.379s.663-2.275 1.729-2.275c1.053 0 1.599.572 1.599 2.249 0 1.729-.611 2.405-1.638 2.405zM58.993 42v-4.94c.325-.299 1.014-.676 1.573-.676.741 0 .923.455.923 1.248V42h1.495v-4.615c0-.117 0-.247-.013-.351.325-.299.988-.65 1.521-.65.741 0 .936.455.936 1.248V42h1.495v-4.589c0-1.508-.572-2.275-1.95-2.275-.91 0-1.664.364-2.249.871-.286-.624-.832-.871-1.69-.871-.884 0-1.586.351-2.197.832l-.052-.689h-1.287V42h1.495zm13 .156c1.573 0 2.808-1.053 2.808-3.679 0-2.457-1.079-3.341-2.457-3.341-.91 0-1.599.273-2.171.793v-3.744h-1.469V42h1.274l.091-.559.026-.013c.442.403 1.079.728 1.898.728zm-.286-1.248c-.663 0-1.235-.364-1.508-.572v-3.263c.338-.325.988-.715 1.612-.715 1.04 0 1.443.754 1.443 2.145 0 1.534-.455 2.405-1.547 2.405zm5.382-6.76c.624 0 .975-.351.975-.988 0-.624-.351-.975-.975-.975-.611 0-.975.351-.975.975 0 .637.364.988.975.988zM77.83 42v-6.721h-1.495V42h1.495zm3.315 0v-4.901c.325-.299 1.027-.715 1.703-.715.793 0 1.105.442 1.105 1.287V42h1.495v-4.576c0-1.521-.624-2.288-2.08-2.288-.923 0-1.729.364-2.327.845l-.065-.702H79.65V42h1.495zm8.892.156c1.456 0 2.483-.728 2.743-2.002l-1.274-.312c-.156.689-.52 1.092-1.378 1.092-.975 0-1.651-.507-1.69-1.924h4.355c.026-.312.039-.624.039-.897 0-1.742-.806-2.977-2.756-2.977-1.755 0-3.211 1.079-3.211 3.51 0 1.846.754 3.51 3.172 3.51zm1.248-4.186h-2.821c.065-1.196.767-1.651 1.521-1.651.897 0 1.3.507 1.3 1.651zm7.904 4.186c.715 0 1.443-.247 1.781-.468l-.247-1.066c-.273.156-.741.312-1.144.312-.728 0-.897-.351-.897-1.014v-3.536h1.82v-1.105h-1.82v-2.171l-1.495.208v1.963H96.16v1.105h1.027v3.744c0 1.43.676 2.028 2.002 2.028zm4.316-.156v-4.901c.325-.299 1.027-.715 1.703-.715.793 0 1.105.442 1.105 1.287V42h1.495v-4.576c0-1.521-.624-2.288-2.067-2.288-.936 0-1.664.338-2.249.806v-3.757h-1.482V42h1.495zm8.892.156c1.456 0 2.483-.728 2.743-2.002l-1.274-.312c-.156.689-.52 1.092-1.378 1.092-.975 0-1.651-.507-1.69-1.924h4.355c.026-.312.039-.624.039-.897 0-1.742-.806-2.977-2.756-2.977-1.755 0-3.211 1.079-3.211 3.51 0 1.846.754 3.51 3.172 3.51zm1.248-4.186h-2.821c.065-1.196.767-1.651 1.521-1.651.897 0 1.3.507 1.3 1.651zM43.172 59.156c1.651 0 2.769-.741 2.769-2.132 0-1.534-1.235-1.807-2.392-2.015-.884-.156-1.456-.338-1.456-.962 0-.442.338-.793 1.157-.793.871 0 1.118.468 1.274 1.131l1.3-.338c-.26-1.17-.988-1.911-2.548-1.911-1.404 0-2.587.676-2.587 2.08 0 1.599 1.3 1.833 2.392 2.054.858.169 1.404.286 1.404.962 0 .572-.52.806-1.261.806-1.079 0-1.352-.559-1.521-1.196l-1.274.416c.208 1.248 1.131 1.898 2.743 1.898zm6.968 0c1.456 0 2.483-.728 2.743-2.002l-1.274-.312c-.156.689-.52 1.092-1.378 1.092-.975 0-1.651-.507-1.69-1.924h4.355c.026-.312.039-.624.039-.897 0-1.742-.806-2.977-2.756-2.977-1.755 0-3.211 1.079-3.211 3.51 0 1.846.754 3.51 3.172 3.51zm1.248-4.186h-2.821c.065-1.196.767-1.651 1.521-1.651.897 0 1.3.507 1.3 1.651zm4.55 4.03v-4.901c.325-.299 1.027-.715 1.703-.715.793 0 1.105.442 1.105 1.287V59h1.495v-4.576c0-1.521-.624-2.288-2.08-2.288-.923 0-1.729.364-2.327.845l-.065-.702h-1.326V59h1.495zm8.216.156c.715 0 1.443-.247 1.781-.468l-.247-1.066c-.273.156-.741.312-1.144.312-.728 0-.897-.351-.897-1.014v-3.536h1.82v-1.105h-1.82v-2.171l-1.495.208v1.963h-1.027v1.105h1.027v3.744c0 1.43.676 2.028 2.002 2.028zm5.499 0c1.456 0 2.483-.728 2.743-2.002l-1.274-.312c-.156.689-.52 1.092-1.378 1.092-.975 0-1.651-.507-1.69-1.924h4.355c.026-.312.039-.624.039-.897 0-1.742-.806-2.977-2.756-2.977-1.755 0-3.211 1.079-3.211 3.51 0 1.846.754 3.51 3.172 3.51zm1.248-4.186H68.08c.065-1.196.767-1.651 1.521-1.651.897 0 1.3.507 1.3 1.651zm4.55 4.03v-4.901c.325-.299 1.027-.715 1.703-.715.793 0 1.105.442 1.105 1.287V59h1.495v-4.576c0-1.521-.624-2.288-2.08-2.288-.923 0-1.729.364-2.327.845l-.065-.702h-1.326V59h1.495zm8.866.156c1.443 0 2.639-.689 2.86-2.301l-1.3-.26c-.156.936-.65 1.339-1.482 1.339-.936 0-1.664-.559-1.664-2.379 0-1.781.832-2.223 1.703-2.223.871 0 1.235.572 1.339 1.456l1.378-.195c-.117-1.586-1.17-2.457-2.652-2.457-2.106 0-3.328 1.261-3.328 3.588 0 2.002.923 3.432 3.146 3.432zm7.059 0c1.456 0 2.483-.728 2.743-2.002l-1.274-.312c-.156.689-.52 1.092-1.378 1.092-.975 0-1.651-.507-1.69-1.924h4.355c.026-.312.039-.624.039-.897 0-1.742-.806-2.977-2.756-2.977-1.755 0-3.211 1.079-3.211 3.51 0 1.846.754 3.51 3.172 3.51zm1.248-4.186h-2.821c.065-1.196.767-1.651 1.521-1.651.897 0 1.3.507 1.3 1.651zm5.265 4.186c1.651 0 2.769-.741 2.769-2.132 0-1.534-1.235-1.807-2.392-2.015-.884-.156-1.456-.338-1.456-.962 0-.442.338-.793 1.157-.793.871 0 1.118.468 1.274 1.131l1.3-.338c-.26-1.17-.988-1.911-2.548-1.911-1.404 0-2.587.676-2.587 2.08 0 1.599 1.3 1.833 2.392 2.054.858.169 1.404.286 1.404.962 0 .572-.52.806-1.261.806-1.079 0-1.352-.559-1.521-1.196l-1.274.416c.208 1.248 1.131 1.898 2.743 1.898z"/>
    </g>
</svg>
