<svg xmlns="http://www.w3.org/2000/svg" width="447" height="224" viewBox="0 0 447 224">
    <g fill="none" fill-rule="evenodd">
        <path fill="#F8F6F6" d="M0 0H447V224H0z"/>
        <rect width="399" height="158" x="24" y="46" fill="#FFF" rx="6"/>
        <path fill="#3F3F3F" fill-rule="nonzero" d="M38.172 94v-7.512h.024L40.776 94h1.152l2.628-7.5h.012V94h1.044v-8.688h-1.656L41.4 92.704h-.012l-2.556-7.392h-1.68V94h1.02zm11.088.144c.864 0 1.5-.276 1.98-.756.06.396.336.732.948.732.3 0 .612-.072.852-.192l-.048-.684c-.156.048-.264.072-.372.072-.312 0-.372-.144-.372-.48v-3.012c0-1.536-.684-2.124-2.208-2.124-1.428 0-2.172.54-2.364 1.692l.96.18c.132-.684.456-1.02 1.308-1.02 1.008 0 1.224.48 1.224 1.26v.6c-.168-.012-.348-.024-.54-.024-1.74 0-3.192.456-3.192 2.1 0 .6.264 1.656 1.824 1.656zm.336-.852c-.84 0-1.032-.456-1.032-.984 0-1.056 1.14-1.14 1.992-1.14.228 0 .456.012.624.036v1.392c-.336.36-.948.696-1.584.696zm4.44 3.384c.972 0 1.536-.468 2.028-1.776l2.664-7.068h-1.116l-1.692 4.896h-.012l-1.632-4.896h-1.212l2.292 6.24-.288.756c-.276.732-.66.96-1.104.96-.324 0-.756-.108-.984-.192l-.132.852c.24.108.732.228 1.188.228zm6.864-2.532c.864 0 1.5-.276 1.98-.756.06.396.336.732.948.732.3 0 .612-.072.852-.192l-.048-.684c-.156.048-.264.072-.372.072-.312 0-.372-.144-.372-.48v-3.012c0-1.536-.684-2.124-2.208-2.124-1.428 0-2.172.54-2.364 1.692l.96.18c.132-.684.456-1.02 1.308-1.02 1.008 0 1.224.48 1.224 1.26v.6c-.168-.012-.348-.024-.54-.024-1.74 0-3.192.456-3.192 2.1 0 .6.264 1.656 1.824 1.656zm.336-.852c-.84 0-1.032-.456-1.032-.984 0-1.056 1.14-1.14 1.992-1.14.228 0 .456.012.624.036v1.392c-.336.36-.948.696-1.584.696zM69.06 94l.852-2.58h3.336l.876 2.58h1.212l-3.024-8.688h-1.44L67.944 94h1.116zm3.912-3.528h-2.796l1.392-4.152h.012l1.392 4.152zM77.82 94v-4.596c.324-.288 1.092-.744 1.8-.744.84 0 1.152.468 1.152 1.32V94h1.092v-4.188c0-1.392-.576-2.112-1.896-2.112-.852 0-1.62.384-2.22.864l-.06-.732h-.96V94h1.092zm8.076 2.712c1.548 0 3.168-.456 3.168-1.968 0-1.212-.744-1.524-2.016-1.608l-1.716-.12c-.66-.048-.792-.228-.792-.468 0-.252.216-.42.384-.576.312.108.696.144 1.104.144 1.416 0 2.52-.816 2.52-2.208 0-.504-.156-.996-.456-1.344.312-.096.804-.156 1.176-.132v-.876c-.18-.06-.348-.096-.54-.096-.456 0-.78.36-.972.804-.408-.408-1.032-.564-1.788-.564-1.596 0-2.616.912-2.616 2.268 0 .792.348 1.428.912 1.728-.432.336-.816.684-.816 1.212 0 .444.252.684.672.852v.012c-.504.24-.996.72-.996 1.416 0 .732.468 1.524 2.772 1.524zm.084-5.496c-1.092 0-1.536-.516-1.536-1.32 0-.948.696-1.32 1.56-1.32.924 0 1.488.42 1.488 1.344 0 .828-.612 1.296-1.512 1.296zm.048 4.632c-1.392 0-1.812-.348-1.812-.864 0-.408.216-.66.684-.972l2.004.12c.84.06 1.032.3 1.032.744 0 .648-.636.972-1.908.972zm6.588-1.704c1.236 0 2.196-.588 2.448-1.788l-.96-.216c-.168.696-.576 1.092-1.452 1.092-.984 0-1.68-.492-1.728-2.064h4.152c.036-.288.048-.564.048-.804 0-1.524-.72-2.664-2.448-2.664-1.584 0-2.904.972-2.904 3.228 0 1.692.66 3.216 2.844 3.216zm1.38-3.84h-3.06c.06-1.224.852-1.716 1.668-1.716.972 0 1.392.612 1.392 1.716zM97.8 94v-9.06h-1.092V94H97.8zm4.356.144c2.076 0 2.916-1.32 2.916-3.348 0-1.836-.804-3.096-2.76-3.096-1.968 0-3 1.248-3 3.24 0 1.824.708 3.204 2.844 3.204zm.06-.876c-1.2 0-1.776-.744-1.776-2.376 0-1.644.732-2.292 1.824-2.292 1.068 0 1.668.564 1.668 2.268 0 1.752-.648 2.4-1.716 2.4zm6.276.852c.852 0 1.584-.336 2.184-.828l.072.708h.948v-6.168h-1.092v4.584c-.324.3-1.08.756-1.788.756-.912 0-1.116-.468-1.116-1.32v-4.02h-1.092v4.188c0 1.38.576 2.1 1.884 2.1zM38.256 127v-8.688h-1.104V127h1.104zm4.08.144c1.5 0 2.412-.696 2.412-1.872 0-1.38-1.068-1.608-2.196-1.848-.864-.18-1.368-.36-1.368-.996 0-.468.288-.864 1.188-.864.9 0 1.14.432 1.284 1.14l.984-.216c-.192-1.092-.792-1.788-2.256-1.788-1.248 0-2.28.612-2.28 1.86 0 1.44 1.212 1.656 2.22 1.86.84.168 1.344.288 1.344.972 0 .66-.54.888-1.284.888-1.092 0-1.368-.528-1.536-1.188l-.972.264c.192 1.236 1.044 1.788 2.46 1.788zm5.292 0c.864 0 1.5-.276 1.98-.756.06.396.336.732.948.732.3 0 .612-.072.852-.192l-.048-.684c-.156.048-.264.072-.372.072-.312 0-.372-.144-.372-.48v-3.012c0-1.536-.684-2.124-2.208-2.124-1.428 0-2.172.54-2.364 1.692l.96.18c.132-.684.456-1.02 1.308-1.02 1.008 0 1.224.48 1.224 1.26v.6c-.168-.012-.348-.024-.54-.024-1.74 0-3.192.456-3.192 2.1 0 .6.264 1.656 1.824 1.656zm.336-.852c-.84 0-1.032-.456-1.032-.984 0-1.056 1.14-1.14 1.992-1.14.228 0 .456.012.624.036v1.392c-.336.36-.948.696-1.584.696zm7.488.852c1.428 0 2.604-.972 2.604-3.372 0-2.268-.972-3.072-2.244-3.072-.9 0-1.548.336-2.088.816v-3.576h-1.08V127h.948l.06-.54h.012c.444.348 1.056.684 1.788.684zm-.132-.924c-.708 0-1.308-.432-1.584-.636v-3.192c.36-.348 1.044-.768 1.728-.768 1.02 0 1.464.672 1.464 2.136 0 1.5-.444 2.46-1.608 2.46zm6.756.924c1.236 0 2.196-.588 2.448-1.788l-.96-.216c-.168.696-.576 1.092-1.452 1.092-.984 0-1.68-.492-1.728-2.064h4.152c.036-.288.048-.564.048-.804 0-1.524-.72-2.664-2.448-2.664-1.584 0-2.904.972-2.904 3.228 0 1.692.66 3.216 2.844 3.216zm1.38-3.84h-3.06c.06-1.224.852-1.716 1.668-1.716.972 0 1.392.612 1.392 1.716zM67.26 127v-9.06h-1.092V127h1.092zm5.04 0l.852-2.58h3.336l.876 2.58h1.212l-3.024-8.688h-1.44L71.184 127H72.3zm3.912-3.528h-2.796l1.392-4.152h.012l1.392 4.152zM81.06 127v-9.06h-1.092V127h1.092zm2.988 0v-9.06h-1.092V127h1.092zm4.356.144c1.236 0 2.196-.588 2.448-1.788l-.96-.216c-.168.696-.576 1.092-1.452 1.092-.984 0-1.68-.492-1.728-2.064h4.152c.036-.288.048-.564.048-.804 0-1.524-.72-2.664-2.448-2.664-1.584 0-2.904.972-2.904 3.228 0 1.692.66 3.216 2.844 3.216zm1.38-3.84h-3.06c.06-1.224.852-1.716 1.668-1.716.972 0 1.392.612 1.392 1.716zM93.588 127v-4.596c.324-.288 1.092-.744 1.8-.744.84 0 1.152.468 1.152 1.32V127h1.092v-4.188c0-1.392-.576-2.112-1.896-2.112-.852 0-1.62.384-2.22.864l-.06-.732h-.96V127h1.092zm7.872.144c.888 0 1.512-.336 2.04-.816l.012.012.084.66h.912v-9.06h-1.068v3.336c-.432-.348-1.02-.576-1.728-.576-1.368 0-2.604.876-2.604 3.312 0 2.244.948 3.132 2.352 3.132zm.324-.912c-1.08 0-1.548-.72-1.548-2.22 0-1.428.432-2.376 1.62-2.376.708 0 1.284.324 1.572.54v3.3c-.384.384-1.008.756-1.644.756zm7.08.912c1.236 0 2.196-.588 2.448-1.788l-.96-.216c-.168.696-.576 1.092-1.452 1.092-.984 0-1.68-.492-1.728-2.064h4.152c.036-.288.048-.564.048-.804 0-1.524-.72-2.664-2.448-2.664-1.584 0-2.904.972-2.904 3.228 0 1.692.66 3.216 2.844 3.216zm1.38-3.84h-3.06c.06-1.224.852-1.716 1.668-1.716.972 0 1.392.612 1.392 1.716zM38.842 35v-4.074h1.932L42.958 35h1.778l-2.422-4.494c1.12-.434 1.876-1.33 1.876-2.842 0-1.428-.784-2.8-3.304-2.8h-3.668V35h1.624zm1.582-5.39h-1.582v-3.402h1.54c1.33 0 2.114.364 2.114 1.568 0 1.442-.882 1.834-2.072 1.834zm8.386 5.558c1.568 0 2.674-.784 2.954-2.156l-1.372-.336c-.168.742-.56 1.176-1.484 1.176-1.05 0-1.778-.546-1.82-2.072h4.69c.028-.336.042-.672.042-.966 0-1.876-.868-3.206-2.968-3.206-1.89 0-3.458 1.162-3.458 3.78 0 1.988.812 3.78 3.416 3.78zm1.344-4.508h-3.038c.07-1.288.826-1.778 1.638-1.778.966 0 1.4.546 1.4 1.778zm6.286 4.508c1.554 0 2.842-.742 3.08-2.478l-1.4-.28c-.168 1.008-.7 1.442-1.596 1.442-1.008 0-1.792-.602-1.792-2.562 0-1.918.896-2.394 1.834-2.394.938 0 1.33.616 1.442 1.568l1.484-.21c-.126-1.708-1.26-2.646-2.856-2.646-2.268 0-3.584 1.358-3.584 3.864 0 2.156.994 3.696 3.388 3.696zm7.602 0c2.492 0 3.528-1.54 3.528-3.92 0-2.142-.952-3.64-3.346-3.64s-3.598 1.484-3.598 3.808c0 2.156.868 3.752 3.416 3.752zm.084-1.246c-1.26 0-1.82-.798-1.82-2.562 0-1.764.714-2.45 1.862-2.45 1.134 0 1.722.616 1.722 2.422 0 1.862-.658 2.59-1.764 2.59zM70.776 35v-5.32c.35-.322 1.092-.728 1.694-.728.798 0 .994.49.994 1.344V35h1.61v-4.97c0-.126 0-.266-.014-.378.35-.322 1.064-.7 1.638-.7.798 0 1.008.49 1.008 1.344V35h1.61v-4.942c0-1.624-.616-2.45-2.1-2.45-.98 0-1.792.392-2.422.938-.308-.672-.896-.938-1.82-.938-.952 0-1.708.378-2.366.896l-.056-.742h-1.386V35h1.61zm12.054 0v-5.32c.35-.322 1.092-.728 1.694-.728.798 0 .994.49.994 1.344V35h1.61v-4.97c0-.126 0-.266-.014-.378.35-.322 1.064-.7 1.638-.7.798 0 1.008.49 1.008 1.344V35h1.61v-4.942c0-1.624-.616-2.45-2.1-2.45-.98 0-1.792.392-2.422.938-.308-.672-.896-.938-1.82-.938-.952 0-1.708.378-2.366.896l-.056-.742H81.22V35h1.61zm13.468.168c1.568 0 2.674-.784 2.954-2.156l-1.372-.336c-.168.742-.56 1.176-1.484 1.176-1.05 0-1.778-.546-1.82-2.072h4.69c.028-.336.042-.672.042-.966 0-1.876-.868-3.206-2.968-3.206-1.89 0-3.458 1.162-3.458 3.78 0 1.988.812 3.78 3.416 3.78zm1.344-4.508h-3.038c.07-1.288.826-1.778 1.638-1.778.966 0 1.4.546 1.4 1.778zm4.9 4.34v-5.278c.35-.322 1.106-.77 1.834-.77.854 0 1.19.476 1.19 1.386V35h1.61v-4.928c0-1.638-.672-2.464-2.24-2.464-.994 0-1.862.392-2.506.91l-.07-.756h-1.428V35h1.61zm8.988.168c.994 0 1.708-.35 2.282-.896h.028l.112.728h1.344V24.43h-1.568v3.808c-.49-.42-1.12-.63-1.946-.63-1.568 0-3.052 1.022-3.052 3.892 0 2.618 1.134 3.668 2.8 3.668zm.518-1.302c-1.162 0-1.652-.812-1.652-2.38 0-1.512.462-2.562 1.722-2.562.686 0 1.26.322 1.568.56v3.64c-.392.406-1.022.742-1.638.742zm8.232 1.302c1.568 0 2.674-.784 2.954-2.156l-1.372-.336c-.168.742-.56 1.176-1.484 1.176-1.05 0-1.778-.546-1.82-2.072h4.69c.028-.336.042-.672.042-.966 0-1.876-.868-3.206-2.968-3.206-1.89 0-3.458 1.162-3.458 3.78 0 1.988.812 3.78 3.416 3.78zm1.344-4.508h-3.038c.07-1.288.826-1.778 1.638-1.778.966 0 1.4.546 1.4 1.778zm5.726 4.508c.994 0 1.708-.35 2.282-.896h.028l.112.728h1.344V24.43h-1.568v3.808c-.49-.42-1.12-.63-1.946-.63-1.568 0-3.052 1.022-3.052 3.892 0 2.618 1.134 3.668 2.8 3.668zm.518-1.302c-1.162 0-1.652-.812-1.652-2.38 0-1.512.462-2.562 1.722-2.562.686 0 1.26.322 1.568.56v3.64c-.392.406-1.022.742-1.638.742zm9.03 1.134l.924-2.772h3.682l.952 2.772h1.792l-3.556-10.136h-2.086L135.232 35h1.666zm4.228-4.144h-2.982l1.484-4.48h.028l1.47 4.48zm7.322 4.312c1.554 0 2.842-.742 3.08-2.478l-1.4-.28c-.168 1.008-.7 1.442-1.596 1.442-1.008 0-1.792-.602-1.792-2.562 0-1.918.896-2.394 1.834-2.394.938 0 1.33.616 1.442 1.568l1.484-.21c-.126-1.708-1.26-2.646-2.856-2.646-2.268 0-3.584 1.358-3.584 3.864 0 2.156.994 3.696 3.388 3.696zm7.028 0c.77 0 1.554-.266 1.918-.504l-.266-1.148c-.294.168-.798.336-1.232.336-.784 0-.966-.378-.966-1.092v-3.808h1.96v-1.19h-1.96v-2.338l-1.61.224v2.114h-1.106v1.19h1.106v4.032c0 1.54.728 2.184 2.156 2.184zm3.878-8.624c.672 0 1.05-.378 1.05-1.064 0-.672-.378-1.05-1.05-1.05-.658 0-1.05.378-1.05 1.05 0 .686.392 1.064 1.05 1.064zm.798 8.456v-7.238h-1.61V35h1.61zm5.53 0l2.646-7.238h-1.638l-1.876 5.656h-.028l-1.89-5.656h-1.75L163.82 35h1.862zm4.508-8.456c.672 0 1.05-.378 1.05-1.064 0-.672-.378-1.05-1.05-1.05-.658 0-1.05.378-1.05 1.05 0 .686.392 1.064 1.05 1.064zm.798 8.456v-7.238h-1.61V35h1.61zm4.41.168c.77 0 1.554-.266 1.918-.504l-.266-1.148c-.294.168-.798.336-1.232.336-.784 0-.966-.378-.966-1.092v-3.808h1.96v-1.19h-1.96v-2.338l-1.61.224v2.114h-1.106v1.19h1.106v4.032c0 1.54.728 2.184 2.156 2.184zm3.36 2.954c1.288 0 1.932-.602 2.52-2.198.938-2.492 2.058-5.502 3.024-8.162h-1.652l-1.778 5.432h-.014l-1.778-5.432h-1.736l2.716 7.35-.294.756c-.294.742-.686.994-1.176.994-.35 0-.826-.112-1.134-.224l-.154 1.204c.294.14.91.28 1.456.28zM189.944 35v-3.542h1.358c2.52 0 3.92-1.092 3.92-3.514 0-1.61-.784-3.08-3.374-3.08h-3.528V35h1.624zm1.218-4.9h-1.218v-3.892h1.4c1.4 0 2.184.462 2.184 1.848 0 1.736-1.05 2.044-2.366 2.044zm6.818 5.068c1.008 0 1.806-.35 2.296-.882.126.56.462.854 1.218.854.392 0 .854-.098 1.134-.238l-.056-.952c-.182.056-.308.084-.434.084-.364 0-.434-.168-.434-.56v-3.346c0-1.806-.868-2.52-2.716-2.52-1.778 0-2.646.728-2.87 2.086l1.414.252c.154-.756.448-1.12 1.33-1.12 1.064 0 1.26.504 1.26 1.386v.546c-.196-.014-.406-.028-.742-.028-1.946 0-3.542.616-3.542 2.492 0 .714.322 1.946 2.142 1.946zm.574-1.204c-.854 0-1.078-.462-1.078-.966 0-1.064 1.176-1.162 1.988-1.162.364 0 .532.014.672.028v1.428c-.322.336-.924.672-1.582.672zm8.176 1.204c1.554 0 2.842-.742 3.08-2.478l-1.4-.28c-.168 1.008-.7 1.442-1.596 1.442-1.008 0-1.792-.602-1.792-2.562 0-1.918.896-2.394 1.834-2.394.938 0 1.33.616 1.442 1.568l1.484-.21c-.126-1.708-1.26-2.646-2.856-2.646-2.268 0-3.584 1.358-3.584 3.864 0 2.156.994 3.696 3.388 3.696zm6.202-.168v-2.632l.952-.938L215.97 35h1.764l-2.646-4.634 2.464-2.604h-1.806l-2.814 2.926V24.43h-1.61V35h1.61zm8.246.168c1.778 0 2.982-.798 2.982-2.296 0-1.652-1.33-1.946-2.576-2.17-.952-.168-1.568-.364-1.568-1.036 0-.476.364-.854 1.246-.854.938 0 1.204.504 1.372 1.218l1.4-.364c-.28-1.26-1.064-2.058-2.744-2.058-1.512 0-2.786.728-2.786 2.24 0 1.722 1.4 1.974 2.576 2.212.924.182 1.512.308 1.512 1.036 0 .616-.56.868-1.358.868-1.162 0-1.456-.602-1.638-1.288l-1.372.448c.224 1.344 1.218 2.044 2.954 2.044zM42.168 160v-.972h-3.912v-7.716h-1.104V160h5.016zm3.768.144c1.236 0 2.196-.588 2.448-1.788l-.96-.216c-.168.696-.576 1.092-1.452 1.092-.984 0-1.68-.492-1.728-2.064h4.152c.036-.288.048-.564.048-.804 0-1.524-.72-2.664-2.448-2.664-1.584 0-2.904.972-2.904 3.228 0 1.692.66 3.216 2.844 3.216zm1.38-3.84h-3.06c.06-1.224.852-1.716 1.668-1.716.972 0 1.392.612 1.392 1.716zm5.172 3.84c2.076 0 2.916-1.32 2.916-3.348 0-1.836-.804-3.096-2.76-3.096-1.968 0-3 1.248-3 3.24 0 1.824.708 3.204 2.844 3.204zm.06-.876c-1.2 0-1.776-.744-1.776-2.376 0-1.644.732-2.292 1.824-2.292 1.068 0 1.668.564 1.668 2.268 0 1.752-.648 2.4-1.716 2.4zm9.9.732v-7.728h2.604v-.96h-6.336v.96h2.628V160h1.104zm5.1.144c2.076 0 2.916-1.32 2.916-3.348 0-1.836-.804-3.096-2.76-3.096-1.968 0-3 1.248-3 3.24 0 1.824.708 3.204 2.844 3.204zm.06-.876c-1.2 0-1.776-.744-1.776-2.376 0-1.644.732-2.292 1.824-2.292 1.068 0 1.668.564 1.668 2.268 0 1.752-.648 2.4-1.716 2.4zm5.508.732v-9.06h-1.092V160h1.092zm3.852.144c1.5 0 2.412-.696 2.412-1.872 0-1.38-1.068-1.608-2.196-1.848-.864-.18-1.368-.36-1.368-.996 0-.468.288-.864 1.188-.864.9 0 1.14.432 1.284 1.14l.984-.216c-.192-1.092-.792-1.788-2.256-1.788-1.248 0-2.28.612-2.28 1.86 0 1.44 1.212 1.656 2.22 1.86.84.168 1.344.288 1.344.972 0 .66-.54.888-1.284.888-1.092 0-1.368-.528-1.536-1.188l-.972.264c.192 1.236 1.044 1.788 2.46 1.788zm5.7 0c.576 0 1.212-.204 1.512-.408l-.192-.792c-.264.144-.708.3-1.08.3-.744 0-.888-.36-.888-1.008v-3.528h1.704v-.876H82.02v-1.956l-1.092.168v1.788h-.948v.876h.948v3.672c0 1.236.588 1.764 1.74 1.764zm4.956 0c2.076 0 2.916-1.32 2.916-3.348 0-1.836-.804-3.096-2.76-3.096-1.968 0-3 1.248-3 3.24 0 1.824.708 3.204 2.844 3.204zm.06-.876c-1.2 0-1.776-.744-1.776-2.376 0-1.644.732-2.292 1.824-2.292 1.068 0 1.668.564 1.668 2.268 0 1.752-.648 2.4-1.716 2.4zm4.272 3.408c.972 0 1.536-.468 2.028-1.776l2.664-7.068h-1.116l-1.692 4.896h-.012l-1.632-4.896h-1.212l2.292 6.24-.288.756c-.276.732-.66.96-1.104.96-.324 0-.756-.108-.984-.192l-.132.852c.24.108.732.228 1.188.228zM42.168 193v-.972h-3.912v-7.716h-1.104V193h5.016zm2.856.144c.864 0 1.5-.276 1.98-.756.06.396.336.732.948.732.3 0 .612-.072.852-.192l-.048-.684c-.156.048-.264.072-.372.072-.312 0-.372-.144-.372-.48v-3.012c0-1.536-.684-2.124-2.208-2.124-1.428 0-2.172.54-2.364 1.692l.96.18c.132-.684.456-1.02 1.308-1.02 1.008 0 1.224.48 1.224 1.26v.6c-.168-.012-.348-.024-.54-.024-1.74 0-3.192.456-3.192 2.1 0 .6.264 1.656 1.824 1.656zm.336-.852c-.84 0-1.032-.456-1.032-.984 0-1.056 1.14-1.14 1.992-1.14.228 0 .456.012.624.036v1.392c-.336.36-.948.696-1.584.696zm5.772.708v-4.596c.324-.288 1.092-.744 1.8-.744.84 0 1.152.468 1.152 1.32V193h1.092v-4.188c0-1.392-.576-2.112-1.896-2.112-.852 0-1.62.384-2.22.864l-.06-.732h-.96V193h1.092zm8.076 2.712c1.548 0 3.168-.456 3.168-1.968 0-1.212-.744-1.524-2.016-1.608l-1.716-.12c-.66-.048-.792-.228-.792-.468 0-.252.216-.42.384-.576.312.108.696.144 1.104.144 1.416 0 2.52-.816 2.52-2.208 0-.504-.156-.996-.456-1.344.312-.096.804-.156 1.176-.132v-.876c-.18-.06-.348-.096-.54-.096-.456 0-.78.36-.972.804-.408-.408-1.032-.564-1.788-.564-1.596 0-2.616.912-2.616 2.268 0 .792.348 1.428.912 1.728-.432.336-.816.684-.816 1.212 0 .444.252.684.672.852v.012c-.504.24-.996.72-.996 1.416 0 .732.468 1.524 2.772 1.524zm.084-5.496c-1.092 0-1.536-.516-1.536-1.32 0-.948.696-1.32 1.56-1.32.924 0 1.488.42 1.488 1.344 0 .828-.612 1.296-1.512 1.296zm.048 4.632c-1.392 0-1.812-.348-1.812-.864 0-.408.216-.66.684-.972l2.004.12c.84.06 1.032.3 1.032.744 0 .648-.636.972-1.908.972zm6.144-1.704c1.5 0 2.412-.696 2.412-1.872 0-1.38-1.068-1.608-2.196-1.848-.864-.18-1.368-.36-1.368-.996 0-.468.288-.864 1.188-.864.9 0 1.14.432 1.284 1.14l.984-.216c-.192-1.092-.792-1.788-2.256-1.788-1.248 0-2.28.612-2.28 1.86 0 1.44 1.212 1.656 2.22 1.86.84.168 1.344.288 1.344.972 0 .66-.54.888-1.284.888-1.092 0-1.368-.528-1.536-1.188l-.972.264c.192 1.236 1.044 1.788 2.46 1.788zm5.7 0c.576 0 1.212-.204 1.512-.408l-.192-.792c-.264.144-.708.3-1.08.3-.744 0-.888-.36-.888-1.008v-3.528h1.704v-.876h-1.704v-1.956l-1.092.168v1.788h-.948v.876h.948v3.672c0 1.236.588 1.764 1.74 1.764zm4.956 0c2.076 0 2.916-1.32 2.916-3.348 0-1.836-.804-3.096-2.76-3.096-1.968 0-3 1.248-3 3.24 0 1.824.708 3.204 2.844 3.204zm.06-.876c-1.2 0-1.776-.744-1.776-2.376 0-1.644.732-2.292 1.824-2.292 1.068 0 1.668.564 1.668 2.268 0 1.752-.648 2.4-1.716 2.4zm5.508.732v-4.596c.324-.288 1.092-.744 1.8-.744.84 0 1.152.468 1.152 1.32V193h1.092v-4.188c0-1.392-.576-2.112-1.896-2.112-.852 0-1.62.384-2.22.864l-.06-.732h-.96V193h1.092zm9.744 0v-3.936h4.224V193h1.104v-8.688h-1.104v3.756h-4.224v-3.756h-1.104V193h1.104zm9.312.12c.852 0 1.584-.336 2.184-.828l.072.708h.948v-6.168h-1.092v4.584c-.324.3-1.08.756-1.788.756-.912 0-1.116-.468-1.116-1.32v-4.02H98.88v4.188c0 1.38.576 2.1 1.884 2.1zm7.296 2.592c1.548 0 3.168-.456 3.168-1.968 0-1.212-.744-1.524-2.016-1.608l-1.716-.12c-.66-.048-.792-.228-.792-.468 0-.252.216-.42.384-.576.312.108.696.144 1.104.144 1.416 0 2.52-.816 2.52-2.208 0-.504-.156-.996-.456-1.344.312-.096.804-.156 1.176-.132v-.876c-.18-.06-.348-.096-.54-.096-.456 0-.78.36-.972.804-.408-.408-1.032-.564-1.788-.564-1.596 0-2.616.912-2.616 2.268 0 .792.348 1.428.912 1.728-.432.336-.816.684-.816 1.212 0 .444.252.684.672.852v.012c-.504.24-.996.72-.996 1.416 0 .732.468 1.524 2.772 1.524zm.084-5.496c-1.092 0-1.536-.516-1.536-1.32 0-.948.696-1.32 1.56-1.32.924 0 1.488.42 1.488 1.344 0 .828-.612 1.296-1.512 1.296zm.048 4.632c-1.392 0-1.812-.348-1.812-.864 0-.408.216-.66.684-.972l2.004.12c.84.06 1.032.3 1.032.744 0 .648-.636.972-1.908.972zm5.4-1.848v-4.596c.324-.288 1.092-.744 1.8-.744.84 0 1.152.468 1.152 1.32V193h1.092v-4.188c0-1.392-.576-2.112-1.884-2.112-.864 0-1.572.36-2.172.828v-3.588h-1.08V193h1.092zm8.352.144c1.236 0 2.196-.588 2.448-1.788l-.96-.216c-.168.696-.576 1.092-1.452 1.092-.984 0-1.68-.492-1.728-2.064h4.152c.036-.288.048-.564.048-.804 0-1.524-.72-2.664-2.448-2.664-1.584 0-2.904.972-2.904 3.228 0 1.692.66 3.216 2.844 3.216zm1.38-3.84h-3.06c.06-1.224.852-1.716 1.668-1.716.972 0 1.392.612 1.392 1.716zm4.644 3.84c1.5 0 2.412-.696 2.412-1.872 0-1.38-1.068-1.608-2.196-1.848-.864-.18-1.368-.36-1.368-.996 0-.468.288-.864 1.188-.864.9 0 1.14.432 1.284 1.14l.984-.216c-.192-1.092-.792-1.788-2.256-1.788-1.248 0-2.28.612-2.28 1.86 0 1.44 1.212 1.656 2.22 1.86.84.168 1.344.288 1.344.972 0 .66-.54.888-1.284.888-1.092 0-1.368-.528-1.536-1.188l-.972.264c.192 1.236 1.044 1.788 2.46 1.788z"/>
        <path fill="#6F6F6F" fill-rule="nonzero" d="M309.244 62v-3.156h1.32c2.088 0 3.312-.864 3.312-2.928 0-1.38-.672-2.604-2.892-2.604h-2.832V62h1.092zm1.236-4.104h-1.236v-3.648h1.416c1.392 0 2.076.48 2.076 1.728 0 1.62-.996 1.92-2.256 1.92zm5.892 4.248c.864 0 1.5-.276 1.98-.756.06.396.336.732.948.732.3 0 .612-.072.852-.192l-.048-.684c-.156.048-.264.072-.372.072-.312 0-.372-.144-.372-.48v-3.012c0-1.536-.684-2.124-2.208-2.124-1.428 0-2.172.54-2.364 1.692l.96.18c.132-.684.456-1.02 1.308-1.02 1.008 0 1.224.48 1.224 1.26v.6c-.168-.012-.348-.024-.54-.024-1.74 0-3.192.456-3.192 2.1 0 .6.264 1.656 1.824 1.656zm.336-.852c-.84 0-1.032-.456-1.032-.984 0-1.056 1.14-1.14 1.992-1.14.228 0 .456.012.624.036v1.392c-.336.36-.948.696-1.584.696zm5.772.708v-4.488c.504-.468 1.416-.78 2.184-.672v-1.128l-.228-.012c-.864 0-1.512.288-2.052 1.02l-.084-.888h-.912V62h1.092zm5.208.144c.576 0 1.212-.204 1.512-.408l-.192-.792c-.264.144-.708.3-1.08.3-.744 0-.888-.36-.888-1.008v-3.528h1.704v-.876h-1.704v-1.956l-1.092.168v1.788H325v.876h.948v3.672c0 1.236.588 1.764 1.74 1.764zm3.18-7.5c.492 0 .78-.288.78-.792s-.288-.78-.78-.78c-.492 0-.768.276-.768.78s.276.792.768.792zm.528 7.356v-6.168h-1.092V62h1.092zm4.344.144c1.236 0 2.328-.6 2.532-2.028l-.96-.204c-.156.912-.696 1.32-1.536 1.32-.984 0-1.728-.552-1.728-2.388 0-1.752.876-2.232 1.764-2.232.864 0 1.284.468 1.38 1.38l1.044-.144c-.084-1.428-.996-2.148-2.376-2.148-1.848 0-2.952 1.128-2.952 3.276 0 1.848.792 3.168 2.832 3.168zm4.572-7.5c.492 0 .78-.288.78-.792s-.288-.78-.78-.78c-.492 0-.768.276-.768.78s.276.792.768.792zM340.84 62v-6.168h-1.092V62h1.092zm2.952 2.544v-3c.444.336 1.032.6 1.776.6 1.38 0 2.568-.96 2.568-3.372 0-2.268-.96-3.072-2.256-3.072-.876 0-1.572.336-2.136.84l-.06-.708h-.948v8.712h1.056zm1.62-3.324c-.708 0-1.32-.408-1.584-.612v-3.216c.36-.36 1.044-.78 1.728-.78.984 0 1.464.6 1.464 2.148 0 1.476-.432 2.46-1.608 2.46zm4.86-6.576c.492 0 .78-.288.78-.792s-.288-.78-.78-.78c-.492 0-.768.276-.768.78s.276.792.768.792zM350.8 62v-6.168h-1.092V62h1.092zm3.42.144c.864 0 1.5-.276 1.98-.756.06.396.336.732.948.732.3 0 .612-.072.852-.192l-.048-.684c-.156.048-.264.072-.372.072-.312 0-.372-.144-.372-.48v-3.012c0-1.536-.684-2.124-2.208-2.124-1.428 0-2.172.54-2.364 1.692l.96.18c.132-.684.456-1.02 1.308-1.02 1.008 0 1.224.48 1.224 1.26v.6c-.168-.012-.348-.024-.54-.024-1.74 0-3.192.456-3.192 2.1 0 .6.264 1.656 1.824 1.656zm.336-.852c-.84 0-1.032-.456-1.032-.984 0-1.056 1.14-1.14 1.992-1.14.228 0 .456.012.624.036v1.392c-.336.36-.948.696-1.584.696zm5.772.708v-9.06h-1.092V62h1.092zm5.736 0v-3.156h1.32c2.088 0 3.312-.864 3.312-2.928 0-1.38-.672-2.604-2.892-2.604h-2.832V62h1.092zm1.236-4.104h-1.236v-3.648h1.416c1.392 0 2.076.48 2.076 1.728 0 1.62-.996 1.92-2.256 1.92zM373.276 62v-4.596c.324-.288 1.092-.744 1.8-.744.84 0 1.152.468 1.152 1.32V62h1.092v-4.188c0-1.392-.576-2.112-1.884-2.112-.864 0-1.572.36-2.172.828V52.94h-1.08V62h1.092zm6.984 0v-4.488c.504-.468 1.416-.78 2.184-.672v-1.128l-.228-.012c-.864 0-1.512.288-2.052 1.02l-.084-.888h-.912V62h1.092zm4.536.144c.864 0 1.5-.276 1.98-.756.06.396.336.732.948.732.3 0 .612-.072.852-.192l-.048-.684c-.156.048-.264.072-.372.072-.312 0-.372-.144-.372-.48v-3.012c0-1.536-.684-2.124-2.208-2.124-1.428 0-2.172.54-2.364 1.692l.96.18c.132-.684.456-1.02 1.308-1.02 1.008 0 1.224.48 1.224 1.26v.6c-.168-.012-.348-.024-.54-.024-1.74 0-3.192.456-3.192 2.1 0 .6.264 1.656 1.824 1.656zm.336-.852c-.84 0-1.032-.456-1.032-.984 0-1.056 1.14-1.14 1.992-1.14.228 0 .456.012.624.036v1.392c-.336.36-.948.696-1.584.696zm6.636.852c1.5 0 2.412-.696 2.412-1.872 0-1.38-1.068-1.608-2.196-1.848-.864-.18-1.368-.36-1.368-.996 0-.468.288-.864 1.188-.864.9 0 1.14.432 1.284 1.14l.984-.216c-.192-1.092-.792-1.788-2.256-1.788-1.248 0-2.28.612-2.28 1.86 0 1.44 1.212 1.656 2.22 1.86.84.168 1.344.288 1.344.972 0 .66-.54.888-1.284.888-1.092 0-1.368-.528-1.536-1.188l-.972.264c.192 1.236 1.044 1.788 2.46 1.788zm6.348 0c1.236 0 2.196-.588 2.448-1.788l-.96-.216c-.168.696-.576 1.092-1.452 1.092-.984 0-1.68-.492-1.728-2.064h4.152c.036-.288.048-.564.048-.804 0-1.524-.72-2.664-2.448-2.664-1.584 0-2.904.972-2.904 3.228 0 1.692.66 3.216 2.844 3.216zm1.38-3.84h-3.06c.06-1.224.852-1.716 1.668-1.716.972 0 1.392.612 1.392 1.716zm4.644 3.84c1.5 0 2.412-.696 2.412-1.872 0-1.38-1.068-1.608-2.196-1.848-.864-.18-1.368-.36-1.368-.996 0-.468.288-.864 1.188-.864.9 0 1.14.432 1.284 1.14l.984-.216c-.192-1.092-.792-1.788-2.256-1.788-1.248 0-2.28.612-2.28 1.86 0 1.44 1.212 1.656 2.22 1.86.84.168 1.344.288 1.344.972 0 .66-.54.888-1.284.888-1.092 0-1.368-.528-1.536-1.188l-.972.264c.192 1.236 1.044 1.788 2.46 1.788zM182.244 62v-3.612h1.956L186.192 62h1.2l-2.136-3.9c1.008-.348 1.68-1.116 1.68-2.424 0-1.188-.648-2.364-2.808-2.364h-2.976V62h1.092zm1.62-4.536h-1.62v-3.216h1.512c1.248 0 2.04.312 2.04 1.488 0 1.344-.792 1.728-1.932 1.728zm6.996 4.68c1.236 0 2.196-.588 2.448-1.788l-.96-.216c-.168.696-.576 1.092-1.452 1.092-.984 0-1.68-.492-1.728-2.064h4.152c.036-.288.048-.564.048-.804 0-1.524-.72-2.664-2.448-2.664-1.584 0-2.904.972-2.904 3.228 0 1.692.66 3.216 2.844 3.216zm1.38-3.84h-3.06c.06-1.224.852-1.716 1.668-1.716.972 0 1.392.612 1.392 1.716zM196.044 62v-9.06h-1.092V62h1.092zm3.42.144c.864 0 1.5-.276 1.98-.756.06.396.336.732.948.732.3 0 .612-.072.852-.192l-.048-.684c-.156.048-.264.072-.372.072-.312 0-.372-.144-.372-.48v-3.012c0-1.536-.684-2.124-2.208-2.124-1.428 0-2.172.54-2.364 1.692l.96.18c.132-.684.456-1.02 1.308-1.02 1.008 0 1.224.48 1.224 1.26v.6c-.168-.012-.348-.024-.54-.024-1.74 0-3.192.456-3.192 2.1 0 .6.264 1.656 1.824 1.656zm.336-.852c-.84 0-1.032-.456-1.032-.984 0-1.056 1.14-1.14 1.992-1.14.228 0 .456.012.624.036v1.392c-.336.36-.948.696-1.584.696zm6.396.852c.576 0 1.212-.204 1.512-.408l-.192-.792c-.264.144-.708.3-1.08.3-.744 0-.888-.36-.888-1.008v-3.528h1.704v-.876h-1.704v-1.956l-1.092.168v1.788h-.948v.876h.948v3.672c0 1.236.588 1.764 1.74 1.764zm3.18-7.5c.492 0 .78-.288.78-.792s-.288-.78-.78-.78c-.492 0-.768.276-.768.78s.276.792.768.792zm.528 7.356v-6.168h-1.092V62h1.092zm4.596 0l2.316-6.168H215.7l-1.788 5.076h-.012l-1.812-5.076H210.9L213.252 62h1.248zm5.58.144c1.236 0 2.196-.588 2.448-1.788l-.96-.216c-.168.696-.576 1.092-1.452 1.092-.984 0-1.68-.492-1.728-2.064h4.152c.036-.288.048-.564.048-.804 0-1.524-.72-2.664-2.448-2.664-1.584 0-2.904.972-2.904 3.228 0 1.692.66 3.216 2.844 3.216zm1.38-3.84h-3.06c.06-1.224.852-1.716 1.668-1.716.972 0 1.392.612 1.392 1.716zm8.724 3.84c1.524 0 3.096-.648 3.396-2.568l-.996-.204c-.276 1.224-.948 1.824-2.328 1.824-1.74 0-2.748-1.008-2.748-3.504 0-2.388 1.092-3.576 2.892-3.576 1.428 0 2.04.708 2.208 2.064l1.032-.108c-.132-2.028-1.404-2.916-3.228-2.916-2.472 0-4.044 1.704-4.044 4.632 0 2.604 1.092 4.356 3.816 4.356zm5.952-.144v-9.06h-1.092V62h1.092zm3.42.144c.864 0 1.5-.276 1.98-.756.06.396.336.732.948.732.3 0 .612-.072.852-.192l-.048-.684c-.156.048-.264.072-.372.072-.312 0-.372-.144-.372-.48v-3.012c0-1.536-.684-2.124-2.208-2.124-1.428 0-2.172.54-2.364 1.692l.96.18c.132-.684.456-1.02 1.308-1.02 1.008 0 1.224.48 1.224 1.26v.6c-.168-.012-.348-.024-.54-.024-1.74 0-3.192.456-3.192 2.1 0 .6.264 1.656 1.824 1.656zm.336-.852c-.84 0-1.032-.456-1.032-.984 0-1.056 1.14-1.14 1.992-1.14.228 0 .456.012.624.036v1.392c-.336.36-.948.696-1.584.696zm6.42.828c.852 0 1.584-.336 2.184-.828l.072.708h.948v-6.168h-1.092v4.584c-.324.3-1.08.756-1.788.756-.912 0-1.116-.468-1.116-1.32v-4.02h-1.092v4.188c0 1.38.576 2.1 1.884 2.1zm7.068.024c1.5 0 2.412-.696 2.412-1.872 0-1.38-1.068-1.608-2.196-1.848-.864-.18-1.368-.36-1.368-.996 0-.468.288-.864 1.188-.864.9 0 1.14.432 1.284 1.14l.984-.216c-.192-1.092-.792-1.788-2.256-1.788-1.248 0-2.28.612-2.28 1.86 0 1.44 1.212 1.656 2.22 1.86.84.168 1.344.288 1.344.972 0 .66-.54.888-1.284.888-1.092 0-1.368-.528-1.536-1.188l-.972.264c.192 1.236 1.044 1.788 2.46 1.788zm6.348 0c1.236 0 2.196-.588 2.448-1.788l-.96-.216c-.168.696-.576 1.092-1.452 1.092-.984 0-1.68-.492-1.728-2.064h4.152c.036-.288.048-.564.048-.804 0-1.524-.72-2.664-2.448-2.664-1.584 0-2.904.972-2.904 3.228 0 1.692.66 3.216 2.844 3.216zm1.38-3.84h-3.06c.06-1.224.852-1.716 1.668-1.716.972 0 1.392.612 1.392 1.716zm4.644 3.84c1.5 0 2.412-.696 2.412-1.872 0-1.38-1.068-1.608-2.196-1.848-.864-.18-1.368-.36-1.368-.996 0-.468.288-.864 1.188-.864.9 0 1.14.432 1.284 1.14l.984-.216c-.192-1.092-.792-1.788-2.256-1.788-1.248 0-2.28.612-2.28 1.86 0 1.44 1.212 1.656 2.22 1.86.84.168 1.344.288 1.344.972 0 .66-.54.888-1.284.888-1.092 0-1.368-.528-1.536-1.188l-.972.264c.192 1.236 1.044 1.788 2.46 1.788zM39.432 62.144c1.608 0 3.072-.72 3.072-2.556 0-1.68-1.38-2.088-2.652-2.46-1.08-.324-2.076-.624-2.076-1.68 0-.768.48-1.356 1.812-1.356 1.344 0 1.68.804 1.812 1.632l1.032-.12c-.18-1.86-1.332-2.448-2.856-2.448-1.68 0-2.928.912-2.928 2.4 0 1.788 1.404 2.16 2.688 2.52 1.068.3 2.04.588 2.04 1.668 0 1.152-.996 1.464-1.932 1.464-1.488 0-1.92-.804-2.124-1.728l-1.056.156c.228 1.788 1.356 2.508 3.168 2.508zm6.468 0c.576 0 1.212-.204 1.512-.408l-.192-.792c-.264.144-.708.3-1.08.3-.744 0-.888-.36-.888-1.008v-3.528h1.704v-.876h-1.704v-1.956l-1.092.168v1.788h-.948v.876h.948v3.672c0 1.236.588 1.764 1.74 1.764zm4.272-.024c.852 0 1.584-.336 2.184-.828l.072.708h.948v-6.168h-1.092v4.584c-.324.3-1.08.756-1.788.756-.912 0-1.116-.468-1.116-1.32v-4.02h-1.092v4.188c0 1.38.576 2.1 1.884 2.1zm7.092.024c.888 0 1.512-.336 2.04-.816l.012.012.084.66h.912v-9.06h-1.068v3.336c-.432-.348-1.02-.576-1.728-.576-1.368 0-2.604.876-2.604 3.312 0 2.244.948 3.132 2.352 3.132zm.324-.912c-1.08 0-1.548-.72-1.548-2.22 0-1.428.432-2.376 1.62-2.376.708 0 1.284.324 1.572.54v3.3c-.384.384-1.008.756-1.644.756zm7.08.912c1.236 0 2.196-.588 2.448-1.788l-.96-.216c-.168.696-.576 1.092-1.452 1.092-.984 0-1.68-.492-1.728-2.064h4.152c.036-.288.048-.564.048-.804 0-1.524-.72-2.664-2.448-2.664-1.584 0-2.904.972-2.904 3.228 0 1.692.66 3.216 2.844 3.216zm1.38-3.84h-3.06c.06-1.224.852-1.716 1.668-1.716.972 0 1.392.612 1.392 1.716zM69.852 62v-4.596c.324-.288 1.092-.744 1.8-.744.84 0 1.152.468 1.152 1.32V62h1.092v-4.188c0-1.392-.576-2.112-1.896-2.112-.852 0-1.62.384-2.22.864l-.06-.732h-.96V62h1.092zm7.668.144c.576 0 1.212-.204 1.512-.408l-.192-.792c-.264.144-.708.3-1.08.3-.744 0-.888-.36-.888-1.008v-3.528h1.704v-.876h-1.704v-1.956l-1.092.168v1.788h-.948v.876h.948v3.672c0 1.236.588 1.764 1.74 1.764z"/>
        <path fill="#E0E0E0" d="M24 72H423V73H24zM24 105H423V106H24zM24 138H423V139H24zM24 171H423V172H24z"/>
        <rect width="14" height="14" x="1" y="1" stroke="#9E9E9E" stroke-width="2" rx="1" transform="translate(216 81)"/>
        <rect width="14" height="14" x="1" y="1" stroke="#9E9E9E" stroke-width="2" rx="1" transform="translate(216 180)"/>
        <path fill="#E0E0E0" d="M290 73H291V204H290zM157 73H158V204H157z"/>
        <path fill="#E1F3F1" d="M291 73H423V105H291zM291 139H423V171H291zM291 172h132v27c0 2.761-2.239 5-5 5H291v-32zM158 139H290V171H158zM158 106H290V138H158z"/>
        <g transform="translate(349 81)">
            <rect width="16" height="16" fill="#06806B" rx="1"/>
            <g>
                <path d="M0 0H12V12H0z" transform="translate(2 2)"/>
                <path fill="#FFF" fill-rule="nonzero" d="M9.82 2.183c.279-.306.753-.33 1.06-.05.278.253.322.668.118.972l-.068.087L5.305 9.38c-.273.3-.728.325-1.031.075l-.079-.075L1.07 5.942c-.279-.306-.256-.78.05-1.06.28-.253.696-.257.98-.026l.08.077L4.75 7.76l5.07-5.577z" transform="translate(2 2)"/>
            </g>
        </g>
        <rect width="14" height="14" x="1" y="1" stroke="#9E9E9E" stroke-width="2" rx="1" transform="translate(349 114)"/>
        <g transform="translate(349 147)">
            <rect width="16" height="16" fill="#06806B" rx="1"/>
            <g>
                <path d="M0 0H12V12H0z" transform="translate(2 2)"/>
                <path fill="#FFF" fill-rule="nonzero" d="M9.82 2.183c.279-.306.753-.33 1.06-.05.278.253.322.668.118.972l-.068.087L5.305 9.38c-.273.3-.728.325-1.031.075l-.079-.075L1.07 5.942c-.279-.306-.256-.78.05-1.06.28-.253.696-.257.98-.026l.08.077L4.75 7.76l5.07-5.577z" transform="translate(2 2)"/>
            </g>
        </g>
        <g transform="translate(349 180)">
            <rect width="16" height="16" fill="#06806B" rx="1"/>
            <g>
                <path d="M0 0H12V12H0z" transform="translate(2 2)"/>
                <path fill="#FFF" fill-rule="nonzero" d="M9.82 2.183c.279-.306.753-.33 1.06-.05.278.253.322.668.118.972l-.068.087L5.305 9.38c-.273.3-.728.325-1.031.075l-.079-.075L1.07 5.942c-.279-.306-.256-.78.05-1.06.28-.253.696-.257.98-.026l.08.077L4.75 7.76l5.07-5.577z" transform="translate(2 2)"/>
            </g>
        </g>
        <g transform="translate(216 147)">
            <rect width="16" height="16" fill="#06806B" rx="1"/>
            <g>
                <path d="M0 0H12V12H0z" transform="translate(2 2)"/>
                <path fill="#FFF" fill-rule="nonzero" d="M9.82 2.183c.279-.306.753-.33 1.06-.05.278.253.322.668.118.972l-.068.087L5.305 9.38c-.273.3-.728.325-1.031.075l-.079-.075L1.07 5.942c-.279-.306-.256-.78.05-1.06.28-.253.696-.257.98-.026l.08.077L4.75 7.76l5.07-5.577z" transform="translate(2 2)"/>
            </g>
        </g>
        <g transform="translate(216 114)">
            <rect width="16" height="16" fill="#06806B" rx="1"/>
            <g>
                <path d="M0 0H12V12H0z" transform="translate(2 2)"/>
                <path fill="#FFF" fill-rule="nonzero" d="M9.82 2.183c.279-.306.753-.33 1.06-.05.278.253.322.668.118.972l-.068.087L5.305 9.38c-.273.3-.728.325-1.031.075l-.079-.075L1.07 5.942c-.279-.306-.256-.78.05-1.06.28-.253.696-.257.98-.026l.08.077L4.75 7.76l5.07-5.577z" transform="translate(2 2)"/>
            </g>
        </g>
        <rect width="399" height="158" x="24" y="46" stroke="#E0E0E0" rx="6"/>
    </g>
</svg>
