<svg xmlns="http://www.w3.org/2000/svg" width="64" height="64" viewBox="0 0 64 64">
    <g fill="none" fill-rule="evenodd">
        <path d="M0 0H64V64H0z"/>
        <path stroke="#000" stroke-linecap="round" stroke-linejoin="round" stroke-width="2" d="M3 3H61V61H3zM12 49L33 49M12 39L52 39M12 29L52 29"/>
        <path fill="#000" fill-rule="nonzero" d="M11.804 20l.627-1.815h2.75L15.808 20h1.76l-2.948-7.854h-1.562L10.11 20h1.694zm2.948-3.168h-1.903l.946-2.816.957 2.816zM20.098 20v-2.805h1.232c.587 0 1.073-.07 1.458-.209.384-.14.692-.328.924-.567.23-.238.392-.515.483-.83.092-.315.138-.645.138-.99 0-.323-.046-.633-.137-.93-.092-.296-.254-.557-.485-.78-.23-.224-.542-.404-.934-.54-.393-.135-.89-.203-1.491-.203h-2.805V20h1.617zm1.177-4.169h-1.177v-2.332h1.166c.286 0 .523.026.71.077.186.051.335.125.445.22.11.095.187.213.231.352.044.14.066.3.066.484 0 .176-.02.34-.06.49-.04.15-.116.276-.226.379-.11.103-.258.183-.445.242-.188.059-.424.088-.71.088z"/>
    </g>
</svg>
