<svg xmlns="http://www.w3.org/2000/svg" width="210" height="36" viewBox="0 0 210 36">
    <path fill="#221F20" d="M43.23 28.22c-4.08 0-5.87-3-5.87-6.74s1.26-7.69 5.58-7.69c1.288-.09 2.553.375 3.477 1.276.924.901 1.42 2.154 1.363 3.444h3.66v-7.09h-3.66v2.22l-.06-.05c-1.29-1.94-3.2-2.59-5.49-2.59-6.13 0-9.15 4.29-9.15 10.15 0 5.58 3.26 9.86 10 9.86 3.78 0 8.32-1.67 8.41-7H47.6c-.008 1.146-.475 2.24-1.296 3.04-.821.798-1.929 1.234-3.074 1.21m16.65-11.8c-4.31 0-7.33 2.7-7.33 7.28s3 7.27 7.33 7.27 7.34-2.7 7.34-7.27c0-4.57-3-7.28-7.34-7.28m0 11.76c-2.49 0-3.28-2.31-3.28-4.48 0-2.17.79-4.5 3.28-4.5 2.49 0 3.29 2.32 3.29 4.5s-.79 4.48-3.29 4.48M73.13 11h-5.81v2.64h1.91V28h-1.91v2.6H75V28h-1.9l.03-17zm9.14 0h-5.81v2.64h1.91V28h-1.91v2.6h7.72V28h-1.91V11zM98.5 21.74c-.508-3.187-3.349-5.47-6.57-5.28-4.34 0-7.28 2.78-7.28 7.1C84.65 28.13 87.2 31 92 31c3.14 0 5.83-1.35 6.48-4.66h-3.65c-.247 1.265-1.418 2.133-2.7 2-.946.073-1.876-.277-2.539-.957-.662-.68-.989-1.619-.891-2.563h10c.025-1.04-.032-2.08-.17-3.11m-9.8.62c-.073-.84.21-1.671.781-2.291.57-.62 1.376-.972 2.219-.969 2 0 3 1.29 3 3.26h-6zm22.2-3.33h-.06c-.931-1.582-2.655-2.527-4.49-2.46-4.43 0-6.28 3.17-6.28 7.22 0 3.49 2.18 6.65 5.87 6.65 1.78.175 3.522-.581 4.61-2V30c.092 1.76-1.241 3.272-3 3.4-1.25 0-2.43-.24-2.55-1.91h-4.25c.22 3.22 2.38 4.51 6.42 4.51 5.52 0 7.28-3.17 7.28-6.66v-9.83h1.91v-2.64h-5.46V19zm-3.46 8.63c-2.2 0-3.32-1.91-3.32-4s.91-4.29 3.38-4.29c2.47 0 3.28 2 3.28 4.14 0 2.14-.93 4.17-3.34 4.17m23.24-5.87c-.504-3.189-3.347-5.474-6.57-5.28-4.35 0-7.28 2.78-7.28 7.1 0 4.57 2.56 7.45 7.37 7.45 3.13 0 5.84-1.35 6.48-4.66H127c-.247 1.265-1.418 2.133-2.7 2-.946.073-1.876-.277-2.539-.957-.662-.68-.989-1.619-.891-2.563h10c.027-1.04-.034-2.08-.18-3.11m-9.8.62c-.073-.84.21-1.671.781-2.291.57-.62 1.376-.972 2.219-.969 2 0 3 1.29 3 3.26h-6zm23.71-1.82v-.06c2.61-.33 3.93-1.82 3.93-4.37 0-4.61-4.1-4.7-7.6-4.7h-9.21v2.77h2.4v13.61h-2.4v2.79h9c3 0 8.36.17 8.36-5.6-.033-2.473-2.047-4.46-4.52-4.46m-6.36-6.34h2.43c1.79 0 3.87.15 3.87 2.46s-2.05 2.77-4 2.77h-2.3V14.2zm2.69 13.61h-2.69v-5.75h2.72c2.06 0 4.17 0 4.17 2.76 0 2.58-1.7 3-4.2 3m16.25-11.35c-4.31 0-7.33 2.7-7.33 7.28s3 7.27 7.33 7.27 7.34-2.7 7.34-7.27c0-4.57-3-7.28-7.34-7.28m0 11.76c-2.49 0-3.28-2.31-3.28-4.48 0-2.17.79-4.5 3.28-4.5 2.49 0 3.28 2.32 3.28 4.5s-.79 4.48-3.28 4.48m21.38-5.75c0-4.16-1.44-6-5.87-6-3.23 0-6.45.65-6.69 4.58h3.67c.12-1.59 1.06-2.23 2.58-2.23s2.65.49 2.65 2.11v1h-1.39c-3.43 0-7.94.12-7.94 4.64 0 2.93 2.22 4.4 4.78 4.4 1.86.17 3.645-.775 4.55-2.41v2h5.37V28h-1.76l.05-5.52zm-7.25 5.9c-1.2 0-2.08-.59-2.08-1.88 0-1.85 1.79-2.17 3.79-2.17h1.88c0 2.35-1.27 4.05-3.59 4.05m16-8.83h-.06v-2.68h-5.54v2.64h1.91V28h-1.91v2.6h8.16V28h-2.36v-4c.15-2.38 1.36-4.28 3.94-4.28.59-.024 1.181.023 1.76.14v-3.22c-.549-.12-1.108-.18-1.67-.18-1.907.066-3.582 1.286-4.23 3.08m20.37 8.3v-17h-5.81v2.64h1.91v5.25h-.06c-.784-1.606-2.468-2.572-4.25-2.44-3.59 0-6.17 2.44-6.17 7.48 0 3.7 1.94 7.07 5.94 7.07 2.017.167 3.936-.9 4.86-2.7h.06v2.29h5.43v-2.59h-1.91zm-7.42.26c-1.67 0-2.91-1.53-2.91-4.49 0-2.26.77-4.49 3.26-4.49 2.49 0 3.4 2 3.4 4.28 0 2.91-.82 4.7-3.75 4.7M24.16 7.67c-.514-.213-1.042-.39-1.58-.53-.8-.222-1.61-.399-2.43-.53-1.17-.2-4.25-.5-4.77-.51-.17 0-.08-.19 0-.29.08-.1.4-.49.59-.74.398-.512.684-1.101.84-1.73.183-.704.247-1.434.19-2.16-.036-.267-.103-.529-.2-.78 0-.12-.09-.31-.22-.37-.13-.045-.27-.045-.4 0-.241.081-.475.181-.7.3-1.425.677-2.63 1.74-3.48 3.07-.318.516-.516 1.097-.58 1.7-.01.177-.01.353 0 .53.005.115-.023.23-.08.33-.087.117-.224.188-.37.19-.3 0-2 .23-2.62.32-1.3.2-2.581.508-3.83.92-.477.162-.94.366-1.38.61h-.07c-.2.11-.4.22-.59.34-.204.129-.398.272-.58.43-.124.102-.24.212-.35.33l-.13.13-.16.15c-.23.268-.431.56-.6.87v.08c-.06.13-.12.26-.17.4-.078.083-.148.174-.21.27-.005.05-.005.1 0 .15-.06.156-.107.316-.14.48-.097.396-.144.802-.14 1.21V13.75c.12.624.321 1.23.6 1.8.47 1.019 1.113 1.95 1.9 2.75.082.124.124.271.12.42.096 1.285.358 2.552.78 3.77 1.257 3.624 3.493 6.83 6.46 9.26 0 0 1 .84 1.41 1.19.56.48 1.58 1.17 1.58 1.17.324.238.718.362 1.12.35.576-.036 1.125-.253 1.57-.62.58-.38 2.9-2.38 2.9-2.38 2.47-2.18 6.41-6.37 6.85-12.72-.003-.157.042-.31.13-.44.744-.812 1.349-1.741 1.79-2.75.592-1.209.805-2.568.61-3.9-.462-1.868-1.84-3.374-3.66-4M13.38 5.14c.02-.303.091-.6.21-.88.271-.7.683-1.336 1.21-1.87.16-.172.342-.323.54-.45.08-.05.22-.14.32-.12.1.02-.17 1-.21 1.07-.226.641-.565 1.237-1 1.76-.193.242-.411.463-.65.66-.07.05-.27.24-.38.2-.11-.04-.08-.29-.07-.37m11.25 8.94l-.23.44S22.76 17 23 18.37c.47 1.72.267 3.555-.57 5.13-.972 2.392-2.36 4.592-4.1 6.5-.42.432-.863.84-1.33 1.22 0 0-2.17 1.78-2.9 1.78-.619-.05-1.198-.324-1.63-.77-.33-.32-1.14-1.18-1.21-1.27-3.91-4.92-4.07-8.93-3.34-11.76.26-.858.82-1.594 1.58-2.07 1.1-.687 2.334-1.134 3.62-1.31.76-.06 1.11-.1 1.87-.12h2.73c.45 0 .9.1 1.34.18.28.06.55.14.83.18.28.04.45 0 .47-.23.01-.043.01-.087 0-.13-.09-.25-.51-.67-2.13-1.08-.37-.082-.743-.143-1.12-.18-.23 0-.48-.05-.73-.06h-2.1c-2.73 0-5.16.29-5.16.29s-4.36.63-4.36-2.56 4-3.87 6.6-4.24h.12l.39-.05H12.68c.43 0 .91-.06 1.38 0h.23c1.003.007 2.005.073 3 .2.728.08 1.45.21 2.16.39 3.45.71 6.75 2.29 5.17 5.8m-.47-6.41c-.514-.213-1.042-.39-1.58-.53-.8-.222-1.61-.399-2.43-.53-1.17-.2-4.25-.5-4.77-.51-.17 0-.08-.19 0-.29.08-.1.4-.49.59-.74.398-.512.684-1.101.84-1.73.202-.746.27-1.52.2-2.29-.036-.267-.103-.529-.2-.78 0-.12-.09-.31-.22-.37-.13-.045-.27-.045-.4 0-.241.081-.475.181-.7.3-1.425.677-2.63 1.74-3.48 3.07-.318.516-.516 1.097-.58 1.7-.01.177-.01.353 0 .53.005.115-.023.23-.08.33-.087.117-.224.188-.37.19-.3 0-2 .23-2.62.32-1.3.2-2.581.508-3.83.92-.477.162-.94.366-1.38.61h-.07c-.2.11-.4.22-.59.34-.204.129-.398.272-.58.43-.124.102-.24.212-.35.33l-.13.13-.16.15c-.23.268-.431.56-.6.87v.08c-.06.13-.12.26-.17.4-.078.083-.148.174-.21.27-.005.05-.005.1 0 .15-.06.156-.107.316-.14.48-.097.396-.144.802-.14 1.21V13.75c.12.624.321 1.23.6 1.8.47 1.019 1.113 1.95 1.9 2.75.082.124.124.271.12.42.096 1.285.358 2.552.78 3.77 1.257 3.624 3.493 6.83 6.46 9.26 0 0 1 .84 1.41 1.19.56.48 1.58 1.17 1.58 1.17.324.238.718.362 1.12.35.576-.036 1.125-.253 1.57-.62.58-.38 2.9-2.38 2.9-2.38 2.47-2.18 6.41-6.37 6.85-12.72-.003-.157.042-.31.13-.44.744-.812 1.349-1.741 1.79-2.75.592-1.209.805-2.568.61-3.9-.462-1.868-1.84-3.374-3.66-4M13.38 5.14c.02-.303.091-.6.21-.88.271-.7.683-1.336 1.21-1.87.16-.172.342-.323.54-.45.08-.05.22-.14.32-.12.1.02-.17 1-.21 1.07-.226.641-.565 1.237-1 1.76-.193.242-.411.463-.65.66-.07.05-.27.24-.38.2-.11-.04-.08-.29-.07-.37m11.25 8.94l-.23.44S22.76 17 23 18.37c.47 1.72.267 3.555-.57 5.13-.972 2.392-2.36 4.592-4.1 6.5-.42.432-.863.84-1.33 1.22 0 0-2.17 1.78-2.9 1.78-.619-.05-1.198-.324-1.63-.77-.33-.32-1.14-1.18-1.21-1.27-3.91-4.92-4.07-8.93-3.34-11.76.26-.858.82-1.594 1.58-2.07 1.1-.687 2.334-1.134 3.62-1.31.76-.06 1.11-.1 1.87-.12h2.73c.45 0 .9.1 1.34.18.28.06.55.14.83.18.28.04.45 0 .47-.23.01-.043.01-.087 0-.13-.09-.25-.51-.67-2.13-1.08-.37-.082-.743-.143-1.12-.18-.23 0-.48-.05-.73-.06h-2.1c-2.73 0-5.16.29-5.16.29s-4.36.63-4.36-2.56 4-3.87 6.6-4.24h.12l.39-.05H12.68c.43 0 .91-.06 1.38 0h.23c1.003.007 2.005.073 3 .2.728.08 1.45.21 2.16.39 3.45.71 6.75 2.29 5.17 5.8"/>
</svg>
