<svg xmlns="http://www.w3.org/2000/svg" width="64" height="64" viewBox="0 0 64 64">
    <g fill="none" fill-rule="evenodd">
        <path d="M0 0H64V64H0z"/>
        <g stroke="#111" stroke-linecap="round" stroke-linejoin="round" stroke-width="2">
            <path d="M50 42L50 60 0 60 0 0 50 0 50 16.785" transform="translate(2 2)"/>
            <g transform="translate(2 2) translate(23 10)">
                <path d="M24.865 22.865L36 34"/>
                <circle cx="14" cy="14" r="14"/>
                <path d="M1 13L12 13"/>
            </g>
            <path d="M10 16L25 16M10 30L24 30" transform="translate(2 2)"/>
        </g>
        <rect width="51" height="19" fill="#000" rx="2" transform="translate(2 43)"/>
        <path fill="#FFF" fill-rule="nonzero" d="M9.24 56.803v-2.86h1c2.28 0 3.42-1.003 3.42-3.009 0-.986-.284-1.722-.854-2.207-.57-.485-1.434-.727-2.59-.727H7v8.803h2.24zm.988-4.747H9.24v-2.182h.976c.466 0 .799.082 1 .247.2.164.3.44.3.826 0 .386-.102.667-.306.844-.205.177-.532.265-.982.265zm6.697 4.747v-3.317c0-.526.14-.896.421-1.11.233-.172.562-.258.988-.258.281 0 .506.024.675.074l.24-1.911c-.184-.041-.389-.062-.614-.062-.385 0-.723.074-1.012.222-.289.148-.542.374-.758.678v-.789h-2.12v6.473h2.18zm6.179.197c.867 0 1.553-.191 2.06-.573.505-.382.822-.952.95-1.708H24.08c-.12.452-.453.678-1 .678-.353 0-.614-.102-.782-.308-.169-.205-.27-.538-.301-.999h4.167v-.702c0-1.028-.267-1.827-.8-2.398-.535-.572-1.28-.857-2.235-.857-1.012 0-1.803.312-2.373.937-.57.625-.855 1.492-.855 2.601 0 1.085.273 1.911.819 2.478.546.567 1.34.851 2.385.851zm1.048-4.18h-2.156c.08-.74.457-1.109 1.132-1.109.337 0 .588.088.753.265.164.177.255.458.27.845zm6.961 1.307v-2.059h-3.998v2.06h3.998zm2.975 2.676l.482-1.69h2.903l.494 1.69h2.397L37.377 48H34.75l-2.987 8.803h2.324zm2.819-3.576h-1.77l.89-3.032.88 3.032zm6.673 3.576v-2.86h1c2.28 0 3.42-1.003 3.42-3.009 0-.986-.285-1.722-.855-2.207-.57-.485-1.433-.727-2.59-.727H41.34v8.803h2.24zm.987-4.747h-.987v-2.182h.975c.466 0 .8.082 1 .247.2.164.301.44.301.826 0 .386-.102.667-.307.844-.205.177-.532.265-.982.265z"/>
    </g>
</svg>
