<svg xmlns="http://www.w3.org/2000/svg" width="104" height="104" viewBox="0 0 104 104">
    <g fill="none" fill-rule="evenodd">
        <g>
            <g transform="translate(-602 -3020) translate(602 3020)">
                <circle cx="52" cy="52" r="52" fill="#F8F6F6"/>
                <g fill-rule="nonzero">
                    <path fill="#72C472" d="M38.754 11.378c-1.174 1.409.427 4.774 0 6.844-.57 2.759-2.738 4.106-1.37 5.475.725.725 2.759 2.855 11.165 5.163.704-6.479-1.417-13.21-6.373-18.166-.353-.353-.718-.686-1.088-1.01-.695.302-1.576.785-2.334 1.694zM8.64 27.804c2.091-.528 4.793-1.926 5.476-5.476.454-2.36.108-5.583 1.369-6.843 1.675-1.675 6.358 1.78 9.581 1.368 2.85-.364 4.341-4.567 4.753-6.2.42-1.662.318-4.432.117-6.189-6.803-1.074-14.01.999-19.242 6.23-4.725 4.725-6.872 11.063-6.452 17.258 1.453.117 3.563.063 4.399-.148z" transform="translate(24 20)"/>
                    <path fill="#BADEFC" d="M48.549 28.86c-8.406-2.308-10.44-4.438-11.164-5.163-1.369-1.369.8-2.716 1.369-5.475.427-2.07-1.174-5.435 0-6.844.758-.91 1.639-1.392 2.334-1.694-3.246-2.844-7.127-4.584-11.152-5.22.201 1.757.303 4.527-.117 6.19-.412 1.632-1.903 5.835-4.753 6.2-3.223.411-7.906-3.044-9.581-1.37-1.26 1.261-.915 4.484-1.37 6.845-.682 3.549-3.384 4.947-5.474 5.475-.836.21-2.946.265-4.4.148.352 5.185 2.499 10.27 6.453 14.224 8.68 8.679 22.802 8.679 31.482 0 3.723-3.723 5.844-8.449 6.373-13.316zm-30.327 8.525c-.684-3.422 3.536-2.852 6.996-9.694 1.447-2.862 6.25-1.962 8.897.684 2.645 2.646 2.92 6.599.684 8.897-4.163 4.278-15.74 4.299-16.577.113z" transform="translate(24 20)"/>
                    <path fill="#72C472" d="M34.115 28.375c-2.646-2.646-7.45-3.546-8.897-.684-3.46 6.842-7.68 6.272-6.996 9.694.837 4.186 12.414 4.165 16.577-.113 2.237-2.298 1.961-6.25-.684-8.897z" transform="translate(24 20)"/>
                    <path fill="#A67C52" d="M55.652 26.423c0-7.37-2.76-14.324-7.605-19.635l4.414-4.414c.544-.543.544-1.424 0-1.967-.543-.544-1.424-.544-1.967 0L46.069 4.83c-1.146-1.039-2.374-2.005-3.697-2.868-.645-.42-1.507-.24-1.926.405-.42.644-.238 1.506.405 1.925C48.377 9.2 52.87 17.474 52.87 26.423c0 14.57-11.86 26.447-26.435 26.447-7.046 0-13.73-2.833-18.644-7.729-.01-.012-.014-.027-.025-.038-.01-.01-.025-.014-.035-.024-1.119-1.121-2.146-2.35-3.062-3.677-.437-.632-1.303-.792-1.935-.355-.633.437-.792 1.303-.356 1.935.754 1.092 1.58 2.116 2.459 3.082l-4.43 4.43c-.544.543-.544 1.424 0 1.967.272.272.628.408.984.408s.712-.136.983-.408l4.432-4.431c4.984 4.525 11.42 7.206 18.237 7.534v5.653h-9.739c-.768 0-1.391.623-1.391 1.392 0 .768.623 1.391 1.391 1.391h22.261c.769 0 1.392-.623 1.392-1.391 0-.769-.623-1.392-1.392-1.392h-9.739V55.56c15.463-.734 27.826-13.501 27.826-29.136z" transform="translate(24 20)"/>
                </g>
            </g>
        </g>
    </g>
</svg>
