<svg xmlns="http://www.w3.org/2000/svg" width="32" height="24" viewBox="0 0 32 24">
    <path fill="#E8E8E8" d="M19.257 1.844c2.788-2.593 7.537-1.907 9.76.838 2.631 3.241 3.156 9.386-1.428 14.882-2.273 2.726-5.014 4.794-8.217 6.201l-1.478-2.38c4.558-2.208 7.964-5.203 8.447-10.223-2.057 0-3.763.074-5.282-.47-1.73-.618-2.781-1.766-3.213-3.083-.684-2.061-.352-4.126 1.411-5.765zm-16.525 0c2.788-2.593 7.536-1.907 9.76.838 2.63 3.241 3.156 9.386-1.428 14.882-2.273 2.726-5.014 4.794-8.218 6.201l-1.477-2.38c4.557-2.208 7.964-5.203 8.447-10.223-2.057 0-3.763.074-5.282-.47-1.73-.618-2.781-1.766-3.213-3.083C.637 5.548.97 3.483 2.731 1.844z"/>
</svg>
