<svg xmlns="http://www.w3.org/2000/svg" width="64" height="64" viewBox="0 0 64 64">
    <g fill="none" fill-rule="evenodd">
        <g>
            <g>
                <g>
                    <path d="M0 0H64V64H0z" transform="translate(-402 -1857) translate(402 1857)"/>
                    <g stroke="#111" stroke-linecap="round" stroke-linejoin="round" stroke-width="2">
                        <g transform="translate(-402 -1857) translate(402 1857) translate(12 10) translate(13)">
                            <path d="M24.865 22.865L36 34"/>
                            <circle cx="14" cy="14" r="14"/>
                            <path d="M1 13L12 13"/>
                        </g>
                        <path d="M0 6L15 6M0 20L14 20" transform="translate(-402 -1857) translate(402 1857) translate(12 10)"/>
                    </g>
                </g>
                <path fill="#000" fill-rule="nonzero" d="M2.47 62.14v-2.55h1.12c.533 0 .975-.063 1.325-.19s.63-.298.84-.515c.21-.217.357-.468.44-.755.083-.287.125-.587.125-.9 0-.293-.042-.575-.125-.845-.083-.27-.23-.507-.44-.71-.21-.203-.493-.367-.85-.49S4.097 55 3.55 55H1v7.14h1.47zm1.07-3.79H2.47v-2.12h1.06c.26 0 .475.023.645.07.17.047.305.113.405.2.1.087.17.193.21.32.04.127.06.273.06.44 0 .16-.018.308-.055.445-.037.137-.105.252-.205.345-.1.093-.235.167-.405.22-.17.053-.385.08-.645.08zm5.15 3.79v-3.02c0-.14.028-.277.085-.41.057-.133.145-.253.265-.36.113-.1.24-.168.38-.205.14-.037.287-.055.44-.055.233 0 .43.02.59.06l.17-1.27c-.067-.013-.143-.025-.23-.035-.087-.01-.197-.015-.33-.015-.273 0-.533.068-.78.205-.247.137-.457.342-.63.615v-.73H7.29v5.22h1.4zm5.22.16c.72 0 1.268-.152 1.645-.455.377-.303.612-.748.705-1.335H14.9c-.1.467-.427.7-.98.7-.4 0-.7-.118-.9-.355-.2-.237-.307-.565-.32-.985h3.62v-.56c0-.78-.202-1.4-.605-1.86-.403-.46-1.005-.69-1.805-.69-.387 0-.74.062-1.06.185-.32.123-.595.305-.825.545-.23.24-.408.532-.535.875-.127.343-.19.735-.19 1.175 0 .88.218 1.56.655 2.04.437.48 1.088.72 1.955.72zm1.06-3.35h-2.25c.007-.16.037-.308.09-.445s.128-.257.225-.36c.097-.103.215-.185.355-.245.14-.06.303-.09.49-.09.373 0 .648.1.825.3.177.2.265.48.265.84zm5.22.89v-1.38H17.2v1.38h2.99zm2.09 2.3l.57-1.65h2.5l.57 1.65h1.6L24.84 55h-1.42l-2.68 7.14h1.54zm2.68-2.88h-1.73l.86-2.56.87 2.56zm4.86 2.88v-2.55h1.12c.533 0 .975-.063 1.325-.19s.63-.298.84-.515c.21-.217.357-.468.44-.755.083-.287.125-.587.125-.9 0-.293-.042-.575-.125-.845-.083-.27-.23-.507-.44-.71-.21-.203-.493-.367-.85-.49S31.447 55 30.9 55h-2.55v7.14h1.47zm1.07-3.79h-1.07v-2.12h1.06c.26 0 .475.023.645.07.17.047.305.113.405.2.1.087.17.193.21.32.04.127.06.273.06.44 0 .16-.018.308-.055.445-.037.137-.105.252-.205.345-.1.093-.235.167-.405.22-.17.053-.385.08-.645.08z" transform="translate(-402 -1857) translate(402 1857)"/>
                <path stroke="#000" stroke-linecap="round" stroke-linejoin="round" stroke-width="2" d="M52 18.695L52 2 2 2 2 50.114 52 50.114 52 41.099" transform="translate(-402 -1857) translate(402 1857)"/>
            </g>
        </g>
    </g>
</svg>
