<svg xmlns="http://www.w3.org/2000/svg" width="64" height="64" viewBox="0 0 64 64">
    <g fill="none" fill-rule="evenodd">
        <g>
            <g>
                <g>
                    <path d="M0 0H64V64H0z" transform="translate(-402 -832) translate(402 832)"/>
                    <path stroke="#000" stroke-linecap="round" stroke-linejoin="round" stroke-width="2" d="M12 49L33 49M12 39L52 39M12 29L52 29" transform="translate(-402 -832) translate(402 832)"/>
                </g>
                <path fill="#000" fill-rule="nonzero" d="M5.07 19.5c.467 0 .873-.055 1.22-.165.347-.11.635-.263.865-.46.23-.197.403-.427.52-.69.117-.263.175-.552.175-.865 0-.647-.18-1.142-.54-1.485-.36-.343-.927-.592-1.7-.745l-.98-.19c-.36-.073-.615-.177-.765-.31-.15-.133-.225-.333-.225-.6 0-.1.02-.197.06-.29.04-.093.11-.175.21-.245.1-.07.232-.127.395-.17.163-.043.372-.065.625-.065.427 0 .745.087.955.26.21.173.352.457.425.85l1.41-.18c-.033-.28-.102-.55-.205-.81s-.262-.488-.475-.685c-.213-.197-.493-.355-.84-.475S5.42 12 4.9 12c-.407 0-.78.045-1.12.135-.34.09-.632.222-.875.395-.243.173-.433.39-.57.65-.137.26-.205.56-.205.9 0 .34.05.633.15.88.1.247.245.455.435.625.19.17.425.308.705.415.28.107.603.193.97.26l.93.17c.373.073.63.192.77.355.14.163.21.338.21.525 0 .133-.022.257-.065.37-.043.113-.115.212-.215.295-.1.083-.23.15-.39.2-.16.05-.357.075-.59.075-.487 0-.855-.1-1.105-.3-.25-.2-.392-.52-.425-.96H2c.04.84.318 1.468.835 1.885.517.417 1.262.625 2.235.625zm5.12 1.76v-2.48c.227.28.468.467.725.56.257.093.515.14.775.14.353 0 .67-.067.95-.2.28-.133.518-.322.715-.565.197-.243.347-.535.45-.875.103-.34.155-.717.155-1.13 0-.86-.18-1.537-.54-2.03-.36-.493-.903-.74-1.63-.74-.693 0-1.24.283-1.64.85v-.69H8.79v7.16h1.4zm1.17-2.91c-.14 0-.278-.018-.415-.055-.137-.037-.272-.115-.405-.235-.127-.127-.218-.292-.275-.495-.057-.203-.085-.475-.085-.815v-.16c0-.3.032-.547.095-.74.063-.193.162-.353.295-.48.12-.1.243-.173.37-.22.127-.047.277-.07.45-.07.153 0 .298.028.435.085.137.057.255.15.355.28.1.13.178.298.235.505.057.207.085.463.085.77 0 .293-.03.543-.09.75-.06.207-.142.375-.245.505-.103.13-.225.225-.365.285-.14.06-.287.09-.44.09zm5.06.97V16.3c0-.14.028-.277.085-.41.057-.133.145-.253.265-.36.113-.1.24-.168.38-.205.14-.037.287-.055.44-.055.233 0 .43.02.59.06l.17-1.27c-.067-.013-.143-.025-.23-.035-.087-.01-.197-.015-.33-.015-.273 0-.533.068-.78.205-.247.137-.457.342-.63.615v-.73h-1.36v5.22h1.4zm4.22-5.88v-1.26H19.2v1.26h1.44zm-.02 5.88V14.1h-1.4v5.22h1.4zm2.65 0v-3.14c0-.153.032-.295.095-.425s.142-.242.235-.335c.113-.1.235-.177.365-.23.13-.053.285-.08.465-.08.233 0 .42.067.56.2.14.133.21.383.21.75v3.26h1.4v-3.45c0-.667-.143-1.155-.43-1.465-.287-.31-.727-.465-1.32-.465-.307 0-.602.07-.885.21-.283.14-.528.363-.735.67v-.72h-1.36v5.22h1.4zm7.02 2.05c.453 0 .838-.062 1.155-.185.317-.123.573-.305.77-.545.197-.24.34-.532.43-.875.09-.343.135-.735.135-1.175V14.1h-1.36v.59c-.22-.287-.462-.483-.725-.59-.263-.107-.535-.16-.815-.16-.353 0-.672.065-.955.195-.283.13-.522.31-.715.54-.193.23-.342.505-.445.825-.103.32-.155.67-.155 1.05 0 .8.182 1.437.545 1.91.363.473.912.71 1.645.71.34 0 .645-.065.915-.195s.492-.322.665-.575v.16c0 .22-.008.433-.025.64-.017.207-.06.39-.13.55-.07.16-.178.288-.325.385-.147.097-.35.145-.61.145-.167 0-.308-.008-.425-.025-.117-.017-.217-.048-.3-.095-.083-.047-.15-.11-.2-.19-.05-.08-.088-.187-.115-.32h-1.42c.033.287.102.538.205.755.103.217.252.397.445.54.193.143.438.25.735.32s.655.105 1.075.105zm-.11-3.31c-.313 0-.575-.115-.785-.345-.21-.23-.315-.622-.315-1.175 0-.26.03-.483.09-.67.06-.187.142-.34.245-.46.103-.12.223-.207.36-.26.137-.053.282-.08.435-.08.14 0 .28.017.42.05.14.033.267.102.38.205.113.103.205.252.275.445.07.193.105.447.105.76v.14c0 .253-.03.468-.09.645s-.143.32-.25.43c-.107.11-.235.19-.385.24-.15.05-.312.075-.485.075zm6.69 1.26c.5 0 .92-.057 1.26-.17.34-.113.615-.267.825-.46.21-.193.36-.423.45-.69.09-.267.135-.55.135-.85 0-.147-.015-.293-.045-.44-.03-.147-.083-.29-.16-.43s-.183-.272-.32-.395-.312-.242-.525-.355c.333-.173.56-.383.68-.63s.18-.51.18-.79c0-.273-.038-.527-.115-.76-.077-.233-.215-.437-.415-.61-.2-.173-.472-.31-.815-.41-.343-.1-.778-.15-1.305-.15h-2.57v7.14h2.74zm0-4.31h-1.3v-1.66h1.08c.453 0 .775.062.965.185.19.123.285.332.285.625 0 .273-.073.483-.22.63-.147.147-.417.22-.81.22zm-.05 3.14h-1.25v-1.94h1.4c.42 0 .713.08.88.24.167.16.25.393.25.7 0 .153-.02.29-.06.41-.04.12-.11.225-.21.315-.1.09-.232.158-.395.205-.163.047-.368.07-.615.07zm6.13 1.33c.4 0 .763-.063 1.09-.19.327-.127.605-.31.835-.55.23-.24.407-.532.53-.875.123-.343.185-.732.185-1.165 0-.427-.06-.812-.18-1.155-.12-.343-.295-.633-.525-.87-.23-.237-.508-.418-.835-.545-.327-.127-.693-.19-1.1-.19-.4 0-.763.063-1.09.19-.327.127-.605.308-.835.545-.23.237-.407.527-.53.87-.123.343-.185.728-.185 1.155 0 .893.23 1.58.69 2.06.46.48 1.11.72 1.95.72zm0-1.12c-.407 0-.707-.142-.9-.425-.193-.283-.29-.695-.29-1.235 0-.533.098-.94.295-1.22.197-.28.495-.42.895-.42s.698.14.895.42c.197.28.295.687.295 1.22 0 .533-.098.943-.295 1.23-.197.287-.495.43-.895.43zm5.11 1.09c.407 0 .738-.073.995-.22.257-.147.488-.337.695-.57v.66h1.32v-3.3c0-.32-.038-.608-.115-.865-.077-.257-.2-.475-.37-.655-.17-.18-.395-.318-.675-.415-.28-.097-.62-.145-1.02-.145-.653 0-1.173.122-1.56.365s-.627.638-.72 1.185l1.28.12c.08-.42.397-.63.95-.63.24 0 .448.06.625.18s.265.34.265.66v.26l-.67.03c-.333.013-.662.047-.985.1-.323.053-.615.143-.875.27-.26.127-.47.303-.63.53-.16.227-.24.52-.24.88 0 .273.047.508.14.705.093.197.218.358.375.485s.34.22.55.28c.21.06.432.09.665.09zm.35-1.05c-.213 0-.38-.05-.5-.15-.12-.1-.18-.237-.18-.41 0-.113.017-.217.05-.31s.098-.175.195-.245.235-.128.415-.175c.18-.047.417-.077.71-.09l.62-.03v.27c0 .213-.04.392-.12.535-.08.143-.183.262-.31.355-.227.167-.52.25-.88.25zm5.25.92V16.3c0-.14.028-.277.085-.41.057-.133.145-.253.265-.36.113-.1.24-.168.38-.205.14-.037.287-.055.44-.055.233 0 .43.02.59.06l.17-1.27c-.067-.013-.143-.025-.23-.035-.087-.01-.197-.015-.33-.015-.273 0-.533.068-.78.205-.247.137-.457.342-.63.615v-.73h-1.36v5.22h1.4zm4.79.16c.68 0 1.22-.283 1.62-.85v.69h1.36v-7.14h-1.4v2.44c-.227-.267-.468-.447-.725-.54-.257-.093-.515-.14-.775-.14-.353 0-.67.067-.95.2-.28.133-.517.322-.71.565-.193.243-.342.533-.445.87-.103.337-.155.708-.155 1.115 0 .873.18 1.557.54 2.05.36.493.907.74 1.64.74zm.38-1.14c-.153 0-.297-.028-.43-.085-.133-.057-.25-.15-.35-.28-.1-.13-.178-.3-.235-.51-.057-.21-.085-.472-.085-.785 0-.287.03-.533.09-.74.06-.207.142-.373.245-.5.103-.127.223-.22.36-.28.137-.06.282-.09.435-.09.14 0 .282.018.425.055.143.037.275.115.395.235.127.127.218.29.275.49.057.2.085.467.085.8v.18c0 .3-.032.545-.095.735-.063.19-.162.352-.295.485-.213.193-.487.29-.82.29z" transform="translate(-402 -832) translate(402 832)"/>
                <path stroke="#000" stroke-linecap="round" stroke-linejoin="round" stroke-width="2" d="M61 8.042L61 3 3 3 3 8.042M61 24.033L61 61 3 61 3 24.033" transform="translate(-402 -832) translate(402 832)"/>
            </g>
        </g>
    </g>
</svg>
