<svg xmlns="http://www.w3.org/2000/svg" width="104" height="104" viewBox="0 0 104 104">
    <g fill="none" fill-rule="evenodd">
        <circle cx="52" cy="52" r="52" fill="#F8F6F6"/>
        <g fill-rule="nonzero">
            <path fill="#A67C52" d="M57.391 54H2.61C1.167 54 0 52.85 0 51.429V7.714c0-1.42 1.167-2.571 2.609-2.571H57.39c1.442 0 2.609 1.15 2.609 2.571V51.43C60 52.849 58.833 54 57.391 54z" transform="translate(22 25)"/>
            <path fill="#87613E" d="M30 47.571s-6.287-2.437-22.174-2.566C7.11 45 6.522 44.43 6.522 43.722V3.857C23.37 3.857 30 6.43 30 6.43V47.57zM30 47.571s6.287-2.437 22.174-2.566c.717-.005 1.304-.576 1.304-1.284V3.857C36.63 3.857 30 6.43 30 6.43V47.57z" transform="translate(22 25)"/>
            <path fill="#EFD358" d="M30 46.286s-8.765-4.88-24.79-5.133c-.714-.011-1.297-.576-1.297-1.28V1.304c0-.717.604-1.304 1.33-1.292C21.247.27 30 5.143 30 5.143v41.143z" transform="translate(22 25)"/>
            <path fill="#E2C447" d="M30 46.286s8.765-4.88 24.79-5.133c.714-.011 1.297-.576 1.297-1.28V1.304c0-.717-.604-1.304-1.33-1.292C38.753.27 30 5.143 30 5.143v41.143z" transform="translate(22 25)"/>
        </g>
    </g>
</svg>
