<svg xmlns="http://www.w3.org/2000/svg" width="447" height="224" viewBox="0 0 447 224">
    <g fill="none" fill-rule="evenodd">
        <path fill="#F8F6F6" d="M0 0H447V224H0z"/>
        <rect width="136" height="176" x="28" y="28" fill="#FFF" stroke="#E0E0E0" opacity=".726" rx="3"/>
        <rect width="136" height="176" x="24" y="24" fill="#FFF" stroke="#E0E0E0" rx="3"/>
        <rect width="211" height="176" x="212" y="24" fill="#FFF" stroke="#E0E0E0" rx="3"/>
        <path fill="#06806B" stroke="#06806B" d="M215 24h205c1.657 0 3 1.343 3 3v29h0-211V27c0-1.657 1.343-3 3-3z"/>
        <path fill="#000" fill-rule="nonzero" d="M44.485 46v-8.138h2.795v-1.274h-7.137v1.274h2.821V46h1.521zm5.473.156c1.456 0 2.483-.728 2.743-2.002l-1.274-.312c-.156.689-.52 1.092-1.378 1.092-.975 0-1.651-.507-1.69-1.924h4.355c.026-.312.039-.624.039-.897 0-1.742-.806-2.977-2.756-2.977-1.755 0-3.211 1.079-3.211 3.51 0 1.846.754 3.51 3.172 3.51zm1.248-4.186h-2.821c.065-1.196.767-1.651 1.521-1.651.897 0 1.3.507 1.3 1.651zm4.576 4.186c.936 0 1.677-.325 2.132-.819.117.52.429.793 1.131.793.364 0 .793-.091 1.053-.221l-.052-.884c-.169.052-.286.078-.403.078-.338 0-.403-.156-.403-.52v-3.107c0-1.677-.806-2.34-2.522-2.34-1.651 0-2.457.676-2.665 1.937l1.313.234c.143-.702.416-1.04 1.235-1.04.988 0 1.17.468 1.17 1.287v.507c-.182-.013-.377-.026-.689-.026-1.807 0-3.289.572-3.289 2.314 0 .663.299 1.807 1.989 1.807zm.533-1.118c-.793 0-1.001-.429-1.001-.897 0-.988 1.092-1.079 1.846-1.079.338 0 .494.013.624.026v1.326c-.299.312-.858.624-1.469.624zm7.592 1.118c1.443 0 2.639-.689 2.86-2.301l-1.3-.26c-.156.936-.65 1.339-1.482 1.339-.936 0-1.664-.559-1.664-2.379 0-1.781.832-2.223 1.703-2.223.871 0 1.235.572 1.339 1.456l1.378-.195c-.117-1.586-1.17-2.457-2.652-2.457-2.106 0-3.328 1.261-3.328 3.588 0 2.002.923 3.432 3.146 3.432zM69.653 46v-4.901c.325-.299 1.027-.715 1.703-.715.793 0 1.105.442 1.105 1.287V46h1.495v-4.576c0-1.521-.624-2.288-2.067-2.288-.936 0-1.664.338-2.249.806v-3.757h-1.482V46h1.495zm8.892.156c1.456 0 2.483-.728 2.743-2.002l-1.274-.312c-.156.689-.52 1.092-1.378 1.092-.975 0-1.651-.507-1.69-1.924h4.355c.026-.312.039-.624.039-.897 0-1.742-.806-2.977-2.756-2.977-1.755 0-3.211 1.079-3.211 3.51 0 1.846.754 3.51 3.172 3.51zm1.248-4.186h-2.821c.065-1.196.767-1.651 1.521-1.651.897 0 1.3.507 1.3 1.651zm4.55 4.03v-4.667c.559-.494 1.508-.793 2.353-.689v-1.495c-.091 0-.195-.013-.273-.013-.988 0-1.664.39-2.197 1.144l-.117-1.001h-1.261V46h1.495zm9.633.156c1.261 0 2.418-.559 2.782-1.378L96.94 46h1.118v-4.888h-3.666v1.144h2.197v.611c0 1.027-.767 2.015-2.275 2.015-1.716 0-2.769-.936-2.769-3.601 0-2.262 1.001-3.575 2.86-3.575 1.43 0 2.067.754 2.197 2.08l1.417-.156c-.169-2.301-1.573-3.211-3.575-3.211-2.847 0-4.472 1.872-4.472 5.005 0 2.769 1.183 4.732 4.004 4.732zm7.93-.013c.923 0 1.716-.351 2.301-.884l.104.741h1.3v-6.721h-1.495v4.901c-.325.299-1.027.702-1.69.702-.793 0-1.053-.429-1.053-1.274v-4.329h-1.495v4.589c0 1.508.624 2.275 2.028 2.275zm6.305-7.995c.624 0 .975-.351.975-.988 0-.624-.351-.975-.975-.975-.611 0-.975.351-.975.975 0 .637.364.988.975.988zm.741 7.852v-6.721h-1.495V46h1.495zm4.082.156c.923 0 1.586-.325 2.119-.832h.026l.104.676h1.248v-9.815h-1.456v3.536c-.455-.39-1.04-.585-1.807-.585-1.456 0-2.834.949-2.834 3.614 0 2.431 1.053 3.406 2.6 3.406zm.481-1.209c-1.079 0-1.534-.754-1.534-2.21 0-1.404.429-2.379 1.599-2.379.637 0 1.17.299 1.456.52v3.38c-.364.377-.949.689-1.521.689zm7.644 1.209c1.456 0 2.483-.728 2.743-2.002l-1.274-.312c-.156.689-.52 1.092-1.378 1.092-.975 0-1.651-.507-1.69-1.924h4.355c.026-.312.039-.624.039-.897 0-1.742-.806-2.977-2.756-2.977-1.755 0-3.211 1.079-3.211 3.51 0 1.846.754 3.51 3.172 3.51zm1.248-4.186h-2.821c.065-1.196.767-1.651 1.521-1.651.897 0 1.3.507 1.3 1.651z"/>
        <path fill="#424242" fill-rule="nonzero" d="M46.168 95v-.972h-3.912v-7.716h-1.104V95h5.016zm2.856.144c.864 0 1.5-.276 1.98-.756.06.396.336.732.948.732.3 0 .612-.072.852-.192l-.048-.684c-.156.048-.264.072-.372.072-.312 0-.372-.144-.372-.48v-3.012c0-1.536-.684-2.124-2.208-2.124-1.428 0-2.172.54-2.364 1.692l.96.18c.132-.684.456-1.02 1.308-1.02 1.008 0 1.224.48 1.224 1.26v.6c-.168-.012-.348-.024-.54-.024-1.74 0-3.192.456-3.192 2.1 0 .6.264 1.656 1.824 1.656zm.336-.852c-.84 0-1.032-.456-1.032-.984 0-1.056 1.14-1.14 1.992-1.14.228 0 .456.012.624.036v1.392c-.336.36-.948.696-1.584.696zm5.772.708v-4.608c.324-.3 1.08-.732 1.704-.732.792 0 .96.468.96 1.296V95h1.092v-4.2c0-.156-.012-.312-.024-.456.36-.3 1.068-.684 1.656-.684.792 0 .96.468.96 1.296V95h1.092v-4.2c0-1.38-.456-2.1-1.752-2.1-.84 0-1.536.372-2.136.852-.24-.576-.732-.852-1.548-.852-.84 0-1.488.36-2.1.828l-.06-.696h-.936V95h1.092zm12.108.144c1.428 0 2.604-.972 2.604-3.372 0-2.268-.972-3.072-2.244-3.072-.9 0-1.548.336-2.088.816V85.94h-1.08V95h.948l.06-.54h.012c.444.348 1.056.684 1.788.684zm-.132-.924c-.708 0-1.308-.432-1.584-.636v-3.192c.36-.348 1.044-.768 1.728-.768 1.02 0 1.464.672 1.464 2.136 0 1.5-.444 2.46-1.608 2.46zm8.796.924c.576 0 1.212-.204 1.512-.408l-.192-.792c-.264.144-.708.3-1.08.3-.744 0-.888-.36-.888-1.008v-3.528h1.704v-.876h-1.704v-1.956l-1.092.168v1.788h-.948v.876h.948v3.672c0 1.236.588 1.764 1.74 1.764zm4.956 0c2.076 0 2.916-1.32 2.916-3.348 0-1.836-.804-3.096-2.76-3.096-1.968 0-3 1.248-3 3.24 0 1.824.708 3.204 2.844 3.204zm.06-.876c-1.2 0-1.776-.744-1.776-2.376 0-1.644.732-2.292 1.824-2.292 1.068 0 1.668.564 1.668 2.268 0 1.752-.648 2.4-1.716 2.4zm-38.016 15.876c.576 0 1.212-.204 1.512-.408l-.192-.792c-.264.144-.708.3-1.08.3-.744 0-.888-.36-.888-1.008v-3.528h1.704v-.876h-1.704v-1.956l-1.092.168v1.788h-.948v.876h.948v3.672c0 1.236.588 1.764 1.74 1.764zm3.708-.144v-4.596c.324-.288 1.092-.744 1.8-.744.84 0 1.152.468 1.152 1.32V110h1.092v-4.188c0-1.392-.576-2.112-1.884-2.112-.864 0-1.572.36-2.172.828v-3.588h-1.08V110h1.092zm8.352.144c1.236 0 2.196-.588 2.448-1.788l-.96-.216c-.168.696-.576 1.092-1.452 1.092-.984 0-1.68-.492-1.728-2.064h4.152c.036-.288.048-.564.048-.804 0-1.524-.72-2.664-2.448-2.664-1.584 0-2.904.972-2.904 3.228 0 1.692.66 3.216 2.844 3.216zm1.38-3.84h-3.06c.06-1.224.852-1.716 1.668-1.716.972 0 1.392.612 1.392 1.716zm7.74 3.84c1.608 0 3.072-.72 3.072-2.556 0-1.68-1.38-2.088-2.652-2.46-1.08-.324-2.076-.624-2.076-1.68 0-.768.48-1.356 1.812-1.356 1.344 0 1.68.804 1.812 1.632l1.032-.12c-.18-1.86-1.332-2.448-2.856-2.448-1.68 0-2.928.912-2.928 2.4 0 1.788 1.404 2.16 2.688 2.52 1.068.3 2.04.588 2.04 1.668 0 1.152-.996 1.464-1.932 1.464-1.488 0-1.92-.804-2.124-1.728l-1.056.156c.228 1.788 1.356 2.508 3.168 2.508zm5.628-.144v-9.06H68.62V110h1.092zm3.42.144c.864 0 1.5-.276 1.98-.756.06.396.336.732.948.732.3 0 .612-.072.852-.192l-.048-.684c-.156.048-.264.072-.372.072-.312 0-.372-.144-.372-.48v-3.012c0-1.536-.684-2.124-2.208-2.124-1.428 0-2.172.54-2.364 1.692l.96.18c.132-.684.456-1.02 1.308-1.02 1.008 0 1.224.48 1.224 1.26v.6c-.168-.012-.348-.024-.54-.024-1.74 0-3.192.456-3.192 2.1 0 .6.264 1.656 1.824 1.656zm.336-.852c-.84 0-1.032-.456-1.032-.984 0-1.056 1.14-1.14 1.992-1.14.228 0 .456.012.624.036v1.392c-.336.36-.948.696-1.584.696zm6.42.828c.852 0 1.584-.336 2.184-.828l.072.708h.948v-6.168H82v4.584c-.324.3-1.08.756-1.788.756-.912 0-1.116-.468-1.116-1.32v-4.02h-1.092v4.188c0 1.38.576 2.1 1.884 2.1zm7.296 2.592c1.548 0 3.168-.456 3.168-1.968 0-1.212-.744-1.524-2.016-1.608l-1.716-.12c-.66-.048-.792-.228-.792-.468 0-.252.216-.42.384-.576.312.108.696.144 1.104.144 1.416 0 2.52-.816 2.52-2.208 0-.504-.156-.996-.456-1.344.312-.096.804-.156 1.176-.132v-.876c-.18-.06-.348-.096-.54-.096-.456 0-.78.36-.972.804-.408-.408-1.032-.564-1.788-.564-1.596 0-2.616.912-2.616 2.268 0 .792.348 1.428.912 1.728-.432.336-.816.684-.816 1.212 0 .444.252.684.672.852v.012c-.504.24-.996.72-.996 1.416 0 .732.468 1.524 2.772 1.524zm.084-5.496c-1.092 0-1.536-.516-1.536-1.32 0-.948.696-1.32 1.56-1.32.924 0 1.488.42 1.488 1.344 0 .828-.612 1.296-1.512 1.296zm.048 4.632c-1.392 0-1.812-.348-1.812-.864 0-.408.216-.66.684-.972l2.004.12c.84.06 1.032.3 1.032.744 0 .648-.636.972-1.908.972zm5.4-1.848v-4.596c.324-.288 1.092-.744 1.8-.744.84 0 1.152.468 1.152 1.32V110h1.092v-4.188c0-1.392-.576-2.112-1.884-2.112-.864 0-1.572.36-2.172.828v-3.588h-1.08V110h1.092zm7.668.144c.576 0 1.212-.204 1.512-.408l-.192-.792c-.264.144-.708.3-1.08.3-.744 0-.888-.36-.888-1.008v-3.528h1.704v-.876h-1.704v-1.956l-1.092.168v1.788h-.948v.876h.948v3.672c0 1.236.588 1.764 1.74 1.764zm4.956 0c1.236 0 2.196-.588 2.448-1.788l-.96-.216c-.168.696-.576 1.092-1.452 1.092-.984 0-1.68-.492-1.728-2.064h4.152c.036-.288.048-.564.048-.804 0-1.524-.72-2.664-2.448-2.664-1.584 0-2.904.972-2.904 3.228 0 1.692.66 3.216 2.844 3.216zm1.38-3.84h-3.06c.06-1.224.852-1.716 1.668-1.716.972 0 1.392.612 1.392 1.716zm3.804 3.696v-4.488c.504-.468 1.416-.78 2.184-.672v-1.128l-.228-.012c-.864 0-1.512.288-2.052 1.02l-.084-.888h-.912V110h1.092zM227.322 74c2.849 0 4.136-1.661 4.136-4.103 0-2.376-1.188-3.861-3.949-3.861h-2.453V74h2.266zm.011-.858h-1.265v-6.248h1.353c1.892 0 2.992.726 2.992 3.146 0 1.947-1.001 3.102-3.08 3.102zm6.853.99c.792 0 1.375-.253 1.815-.693.055.363.308.671.869.671.275 0 .561-.066.781-.176l-.044-.627c-.143.044-.242.066-.341.066-.286 0-.341-.132-.341-.44v-2.761c0-1.408-.627-1.947-2.024-1.947-1.309 0-1.991.495-2.167 1.551l.88.165c.121-.627.418-.935 1.199-.935.924 0 1.122.44 1.122 1.155v.55c-.154-.011-.319-.022-.495-.022-1.595 0-2.926.418-2.926 1.925 0 .55.242 1.518 1.672 1.518zm.308-.781c-.77 0-.946-.418-.946-.902 0-.968 1.045-1.045 1.826-1.045.209 0 .418.011.572.033v1.276c-.308.33-.869.638-1.452.638zm5.291.649v-4.213c.297-.264 1.001-.682 1.65-.682.77 0 1.056.429 1.056 1.21V74h1.001v-3.839c0-1.276-.528-1.936-1.727-1.936-.792 0-1.441.33-1.991.759v-3.289h-.99V74h1.001zm6.402 0v-8.305h-1.001V74h1.001zm5.907.132c.814 0 1.386-.308 1.87-.748l.011.011.077.605h.836v-8.305h-.979v3.058c-.396-.319-.935-.528-1.584-.528-1.254 0-2.387.803-2.387 3.036 0 2.057.869 2.871 2.156 2.871zm.297-.836c-.99 0-1.419-.66-1.419-2.035 0-1.309.396-2.178 1.485-2.178.649 0 1.177.297 1.441.495v3.025c-.352.352-.924.693-1.507.693zm6.49.836c1.903 0 2.673-1.21 2.673-3.069 0-1.683-.737-2.838-2.53-2.838-1.804 0-2.75 1.144-2.75 2.97 0 1.672.649 2.937 2.607 2.937zm.055-.803c-1.1 0-1.628-.682-1.628-2.178 0-1.507.671-2.101 1.672-2.101.979 0 1.529.517 1.529 2.079 0 1.606-.594 2.2-1.573 2.2zm6.303.803c1.133 0 2.013-.539 2.244-1.639l-.88-.198c-.154.638-.528 1.001-1.331 1.001-.902 0-1.54-.451-1.584-1.892h3.806c.033-.264.044-.517.044-.737 0-1.397-.66-2.442-2.244-2.442-1.452 0-2.662.891-2.662 2.959 0 1.551.605 2.948 2.607 2.948zm1.265-3.52h-2.805c.055-1.122.781-1.573 1.529-1.573.891 0 1.276.561 1.276 1.573zm4.257 3.52c1.375 0 2.211-.638 2.211-1.716 0-1.265-.979-1.474-2.013-1.694-.792-.165-1.254-.33-1.254-.913 0-.429.264-.792 1.089-.792s1.045.396 1.177 1.045l.902-.198c-.176-1.001-.726-1.639-2.068-1.639-1.144 0-2.09.561-2.09 1.705 0 1.32 1.111 1.518 2.035 1.705.77.154 1.232.264 1.232.891 0 .605-.495.814-1.177.814-1.001 0-1.254-.484-1.408-1.089l-.891.242c.176 1.133.957 1.639 2.255 1.639zM277.68 74v-4.213c.297-.264 1.001-.682 1.65-.682.77 0 1.056.429 1.056 1.21V74h1.001v-3.839c0-1.276-.528-1.936-1.738-1.936-.781 0-1.485.352-2.035.792l-.055-.671h-.88V74h1.001zm7.656.132c1.903 0 2.673-1.21 2.673-3.069 0-1.683-.737-2.838-2.53-2.838-1.804 0-2.75 1.144-2.75 2.97 0 1.672.649 2.937 2.607 2.937zm.055-.803c-1.1 0-1.628-.682-1.628-2.178 0-1.507.671-2.101 1.672-2.101.979 0 1.529.517 1.529 2.079 0 1.606-.594 2.2-1.573 2.2zm5.709.803c.528 0 1.111-.187 1.386-.374l-.176-.726c-.242.132-.649.275-.99.275-.682 0-.814-.33-.814-.924v-3.234h1.562v-.803h-1.562v-1.793l-1.001.154v1.639h-.869v.803h.869v3.366c0 1.133.539 1.617 1.595 1.617zm5.753-.132v-4.114c.462-.429 1.298-.715 2.002-.616v-1.034c-.066 0-.143-.011-.209-.011-.792 0-1.386.264-1.881.935l-.077-.814h-.836V74h1.001zm5.104.132c1.133 0 2.013-.539 2.244-1.639l-.88-.198c-.154.638-.528 1.001-1.331 1.001-.902 0-1.54-.451-1.584-1.892h3.806c.033-.264.044-.517.044-.737 0-1.397-.66-2.442-2.244-2.442-1.452 0-2.662.891-2.662 2.959 0 1.551.605 2.948 2.607 2.948zm1.265-3.52h-2.805c.055-1.122.781-1.573 1.529-1.573.891 0 1.276.561 1.276 1.573zM307.963 74l2.123-5.654h-1.023l-1.639 4.653h-.011l-1.661-4.653h-1.089L306.819 74h1.144zm5.115.132c1.133 0 2.013-.539 2.244-1.639l-.88-.198c-.154.638-.528 1.001-1.331 1.001-.902 0-1.54-.451-1.584-1.892h3.806c.033-.264.044-.517.044-.737 0-1.397-.66-2.442-2.244-2.442-1.452 0-2.662.891-2.662 2.959 0 1.551.605 2.948 2.607 2.948zm1.265-3.52h-2.805c.055-1.122.781-1.573 1.529-1.573.891 0 1.276.561 1.276 1.573zm3.707 3.52c.792 0 1.375-.253 1.815-.693.055.363.308.671.869.671.275 0 .561-.066.781-.176l-.044-.627c-.143.044-.242.066-.341.066-.286 0-.341-.132-.341-.44v-2.761c0-1.408-.627-1.947-2.024-1.947-1.309 0-1.991.495-2.167 1.551l.88.165c.121-.627.418-.935 1.199-.935.924 0 1.122.44 1.122 1.155v.55c-.154-.011-.319-.022-.495-.022-1.595 0-2.926.418-2.926 1.925 0 .55.242 1.518 1.672 1.518zm.308-.781c-.77 0-.946-.418-.946-.902 0-.968 1.045-1.045 1.826-1.045.209 0 .418.011.572.033v1.276c-.308.33-.869.638-1.452.638zm5.291.649v-8.305h-1.001V74h1.001zm6.226 0l1.155-4.455h.011L332.207 74h1.166l1.76-5.654h-.968l-1.342 4.576h-.011l-1.232-4.576h-1.034l-1.243 4.598-1.375-4.598h-1.012L328.687 74h1.188zm7.216 0v-4.213c.297-.264 1.001-.682 1.65-.682.77 0 1.056.429 1.056 1.21V74h1.001v-3.839c0-1.276-.528-1.936-1.727-1.936-.792 0-1.441.33-1.991.759v-3.289h-.99V74h1.001zm6.798.132c.792 0 1.375-.253 1.815-.693.055.363.308.671.869.671.275 0 .561-.066.781-.176l-.044-.627c-.143.044-.242.066-.341.066-.286 0-.341-.132-.341-.44v-2.761c0-1.408-.627-1.947-2.024-1.947-1.309 0-1.991.495-2.167 1.551l.88.165c.121-.627.418-.935 1.199-.935.924 0 1.122.44 1.122 1.155v.55c-.154-.011-.319-.022-.495-.022-1.595 0-2.926.418-2.926 1.925 0 .55.242 1.518 1.672 1.518zm.308-.781c-.77 0-.946-.418-.946-.902 0-.968 1.045-1.045 1.826-1.045.209 0 .418.011.572.033v1.276c-.308.33-.869.638-1.452.638zm5.863.781c.528 0 1.111-.187 1.386-.374l-.176-.726c-.242.132-.649.275-.99.275-.682 0-.814-.33-.814-.924v-3.234h1.562v-.803h-1.562v-1.793l-1.001.154v1.639h-.869v.803h.869v3.366c0 1.133.539 1.617 1.595 1.617zm6.523 0c.528 0 1.111-.187 1.386-.374l-.176-.726c-.242.132-.649.275-.99.275-.682 0-.814-.33-.814-.924v-3.234h1.562v-.803h-1.562v-1.793l-1.001.154v1.639h-.869v.803h.869v3.366c0 1.133.539 1.617 1.595 1.617zm3.399-.132v-4.213c.297-.264 1.001-.682 1.65-.682.77 0 1.056.429 1.056 1.21V74h1.001v-3.839c0-1.276-.528-1.936-1.727-1.936-.792 0-1.441.33-1.991.759v-3.289h-.99V74h1.001zm7.656.132c1.133 0 2.013-.539 2.244-1.639l-.88-.198c-.154.638-.528 1.001-1.331 1.001-.902 0-1.54-.451-1.584-1.892h3.806c.033-.264.044-.517.044-.737 0-1.397-.66-2.442-2.244-2.442-1.452 0-2.662.891-2.662 2.959 0 1.551.605 2.948 2.607 2.948zm1.265-3.52h-2.805c.055-1.122.781-1.573 1.529-1.573.891 0 1.276.561 1.276 1.573zM225.892 89v-4.213c.297-.264 1.001-.682 1.65-.682.77 0 1.056.429 1.056 1.21V89h1.001v-3.839c0-1.276-.528-1.936-1.727-1.936-.792 0-1.441.33-1.991.759v-3.289h-.99V89h1.001zm7.106.11c.781 0 1.452-.308 2.002-.759l.066.649h.869v-5.654h-1.001v4.202c-.297.275-.99.693-1.639.693-.836 0-1.023-.429-1.023-1.21v-3.685h-1.001v3.839c0 1.265.528 1.925 1.727 1.925zm6.479.022c1.375 0 2.211-.638 2.211-1.716 0-1.265-.979-1.474-2.013-1.694-.792-.165-1.254-.33-1.254-.913 0-.429.264-.792 1.089-.792s1.045.396 1.177 1.045l.902-.198c-.176-1.001-.726-1.639-2.068-1.639-1.144 0-2.09.561-2.09 1.705 0 1.32 1.111 1.518 2.035 1.705.77.154 1.232.264 1.232.891 0 .605-.495.814-1.177.814-1.001 0-1.254-.484-1.408-1.089l-.891.242c.176 1.133.957 1.639 2.255 1.639zm6.138 0c1.309 0 2.387-.891 2.387-3.091 0-2.079-.891-2.816-2.057-2.816-.825 0-1.419.308-1.914.748v-3.278h-.99V89h.869l.055-.495h.011c.407.319.968.627 1.639.627zm-.121-.847c-.649 0-1.199-.396-1.452-.583v-2.926c.33-.319.957-.704 1.584-.704.935 0 1.342.616 1.342 1.958 0 1.375-.407 2.255-1.474 2.255zm5.181.847c.792 0 1.375-.253 1.815-.693.055.363.308.671.869.671.275 0 .561-.066.781-.176l-.044-.627c-.143.044-.242.066-.341.066-.286 0-.341-.132-.341-.44v-2.761c0-1.408-.627-1.947-2.024-1.947-1.309 0-1.991.495-2.167 1.551l.88.165c.121-.627.418-.935 1.199-.935.924 0 1.122.44 1.122 1.155v.55c-.154-.011-.319-.022-.495-.022-1.595 0-2.926.418-2.926 1.925 0 .55.242 1.518 1.672 1.518zm.308-.781c-.77 0-.946-.418-.946-.902 0-.968 1.045-1.045 1.826-1.045.209 0 .418.011.572.033v1.276c-.308.33-.869.638-1.452.638zm5.291.649v-4.213c.297-.264 1.001-.682 1.65-.682.77 0 1.056.429 1.056 1.21V89h1.001v-3.839c0-1.276-.528-1.936-1.738-1.936-.781 0-1.485.352-2.035.792l-.055-.671h-.88V89h1.001zm7.216.132c.814 0 1.386-.308 1.87-.748l.011.011.077.605h.836v-8.305h-.979v3.058c-.396-.319-.935-.528-1.584-.528-1.254 0-2.387.803-2.387 3.036 0 2.057.869 2.871 2.156 2.871zm.297-.836c-.99 0-1.419-.66-1.419-2.035 0-1.309.396-2.178 1.485-2.178.649 0 1.177.297 1.441.495v3.025c-.352.352-.924.693-1.507.693zm8.382.836c1.375 0 2.211-.638 2.211-1.716 0-1.265-.979-1.474-2.013-1.694-.792-.165-1.254-.33-1.254-.913 0-.429.264-.792 1.089-.792s1.045.396 1.177 1.045l.902-.198c-.176-1.001-.726-1.639-2.068-1.639-1.144 0-2.09.561-2.09 1.705 0 1.32 1.111 1.518 2.035 1.705.77.154 1.232.264 1.232.891 0 .605-.495.814-1.177.814-1.001 0-1.254-.484-1.408-1.089l-.891.242c.176 1.133.957 1.639 2.255 1.639zm4.851 0c.792 0 1.375-.253 1.815-.693.055.363.308.671.869.671.275 0 .561-.066.781-.176l-.044-.627c-.143.044-.242.066-.341.066-.286 0-.341-.132-.341-.44v-2.761c0-1.408-.627-1.947-2.024-1.947-1.309 0-1.991.495-2.167 1.551l.88.165c.121-.627.418-.935 1.199-.935.924 0 1.122.44 1.122 1.155v.55c-.154-.011-.319-.022-.495-.022-1.595 0-2.926.418-2.926 1.925 0 .55.242 1.518 1.672 1.518zm.308-.781c-.77 0-.946-.418-.946-.902 0-.968 1.045-1.045 1.826-1.045.209 0 .418.011.572.033v1.276c-.308.33-.869.638-1.452.638zm4.07 3.102c.891 0 1.408-.429 1.859-1.628l2.442-6.479h-1.023l-1.551 4.488h-.011l-1.496-4.488h-1.111l2.101 5.72-.264.693c-.253.671-.605.88-1.012.88-.297 0-.693-.099-.902-.176l-.121.781c.22.099.671.209 1.089.209zm6.919-2.321c1.375 0 2.211-.638 2.211-1.716 0-1.265-.979-1.474-2.013-1.694-.792-.165-1.254-.33-1.254-.913 0-.429.264-.792 1.089-.792s1.045.396 1.177 1.045l.902-.198c-.176-1.001-.726-1.639-2.068-1.639-1.144 0-2.09.561-2.09 1.705 0 1.32 1.111 1.518 2.035 1.705.77.154 1.232.264 1.232.891 0 .605-.495.814-1.177.814-1.001 0-1.254-.484-1.408-1.089l-.891.242c.176 1.133.957 1.639 2.255 1.639zm3.916 0c.484 0 .748-.253.748-.737s-.264-.737-.748-.737-.748.253-.748.737c0 .495.264.737.748.737zM227.322 108c2.849 0 4.136-1.661 4.136-4.103 0-2.376-1.188-3.861-3.949-3.861h-2.453V108h2.266zm.011-.858h-1.265v-6.248h1.353c1.892 0 2.992.726 2.992 3.146 0 1.947-1.001 3.102-3.08 3.102zm6.853.99c.792 0 1.375-.253 1.815-.693.055.363.308.671.869.671.275 0 .561-.066.781-.176l-.044-.627c-.143.044-.242.066-.341.066-.286 0-.341-.132-.341-.44v-2.761c0-1.408-.627-1.947-2.024-1.947-1.309 0-1.991.495-2.167 1.551l.88.165c.121-.627.418-.935 1.199-.935.924 0 1.122.44 1.122 1.155v.55c-.154-.011-.319-.022-.495-.022-1.595 0-2.926.418-2.926 1.925 0 .55.242 1.518 1.672 1.518zm.308-.781c-.77 0-.946-.418-.946-.902 0-.968 1.045-1.045 1.826-1.045.209 0 .418.011.572.033v1.276c-.308.33-.869.638-1.452.638zm5.291.649v-4.213c.297-.264 1.001-.682 1.65-.682.77 0 1.056.429 1.056 1.21V108h1.001v-3.839c0-1.276-.528-1.936-1.727-1.936-.792 0-1.441.33-1.991.759v-3.289h-.99V108h1.001zm6.402 0v-8.305h-1.001V108h1.001zm6.666.132c1.309 0 2.387-.891 2.387-3.091 0-2.079-.891-2.816-2.057-2.816-.825 0-1.419.308-1.914.748v-3.278h-.99V108h.869l.055-.495h.011c.407.319.968.627 1.639.627zm-.121-.847c-.649 0-1.199-.396-1.452-.583v-2.926c.33-.319.957-.704 1.584-.704.935 0 1.342.616 1.342 1.958 0 1.375-.407 2.255-1.474 2.255zm5.643.825c.781 0 1.452-.308 2.002-.759l.066.649h.869v-5.654h-1.001v4.202c-.297.275-.99.693-1.639.693-.836 0-1.023-.429-1.023-1.21v-3.685h-1.001v3.839c0 1.265.528 1.925 1.727 1.925zm5.203-6.853c.451 0 .715-.264.715-.726 0-.462-.264-.715-.715-.715-.451 0-.704.253-.704.715 0 .462.253.726.704.726zm.484 6.743v-5.654h-1.001V108h1.001zm2.739 0v-8.305H265.8V108h1.001zm3.553.132c.814 0 1.386-.308 1.87-.748l.011.011.077.605h.836v-8.305h-.979v3.058c-.396-.319-.935-.528-1.584-.528-1.254 0-2.387.803-2.387 3.036 0 2.057.869 2.871 2.156 2.871zm.297-.836c-.99 0-1.419-.66-1.419-2.035 0-1.309.396-2.178 1.485-2.178.649 0 1.177.297 1.441.495v3.025c-.352.352-.924.693-1.507.693zm6.028.836c1.375 0 2.211-.638 2.211-1.716 0-1.265-.979-1.474-2.013-1.694-.792-.165-1.254-.33-1.254-.913 0-.429.264-.792 1.089-.792s1.045.396 1.177 1.045l.902-.198c-.176-1.001-.726-1.639-2.068-1.639-1.144 0-2.09.561-2.09 1.705 0 1.32 1.111 1.518 2.035 1.705.77.154 1.232.264 1.232.891 0 .605-.495.814-1.177.814-1.001 0-1.254-.484-1.408-1.089l-.891.242c.176 1.133.957 1.639 2.255 1.639zm7.711 0c1.375 0 2.211-.638 2.211-1.716 0-1.265-.979-1.474-2.013-1.694-.792-.165-1.254-.33-1.254-.913 0-.429.264-.792 1.089-.792s1.045.396 1.177 1.045l.902-.198c-.176-1.001-.726-1.639-2.068-1.639-1.144 0-2.09.561-2.09 1.705 0 1.32 1.111 1.518 2.035 1.705.77.154 1.232.264 1.232.891 0 .605-.495.814-1.177.814-1.001 0-1.254-.484-1.408-1.089l-.891.242c.176 1.133.957 1.639 2.255 1.639zm5.269-.022c.781 0 1.452-.308 2.002-.759l.066.649h.869v-5.654h-1.001v4.202c-.297.275-.99.693-1.639.693-.836 0-1.023-.429-1.023-1.21v-3.685h-1.001v3.839c0 1.265.528 1.925 1.727 1.925zm6.479.022c1.375 0 2.211-.638 2.211-1.716 0-1.265-.979-1.474-2.013-1.694-.792-.165-1.254-.33-1.254-.913 0-.429.264-.792 1.089-.792s1.045.396 1.177 1.045l.902-.198c-.176-1.001-.726-1.639-2.068-1.639-1.144 0-2.09.561-2.09 1.705 0 1.32 1.111 1.518 2.035 1.705.77.154 1.232.264 1.232.891 0 .605-.495.814-1.177.814-1.001 0-1.254-.484-1.408-1.089l-.891.242c.176 1.133.957 1.639 2.255 1.639zm4.532 2.2v-2.75c.407.308.946.55 1.628.55 1.265 0 2.354-.88 2.354-3.091 0-2.079-.88-2.816-2.068-2.816-.803 0-1.441.308-1.958.77l-.055-.649h-.869v7.986h.968zm1.485-3.047c-.649 0-1.21-.374-1.452-.561v-2.948c.33-.33.957-.715 1.584-.715.902 0 1.342.55 1.342 1.969 0 1.353-.396 2.255-1.474 2.255zm6.193.847c1.133 0 2.013-.539 2.244-1.639l-.88-.198c-.154.638-.528 1.001-1.331 1.001-.902 0-1.54-.451-1.584-1.892h3.806c.033-.264.044-.517.044-.737 0-1.397-.66-2.442-2.244-2.442-1.452 0-2.662.891-2.662 2.959 0 1.551.605 2.948 2.607 2.948zm1.265-3.52h-2.805c.055-1.122.781-1.573 1.529-1.573.891 0 1.276.561 1.276 1.573zM313.1 108v-4.213c.297-.264 1.001-.682 1.65-.682.77 0 1.056.429 1.056 1.21V108h1.001v-3.839c0-1.276-.528-1.936-1.738-1.936-.781 0-1.485.352-2.035.792l-.055-.671h-.88V108h1.001zm7.194.132c1.375 0 2.211-.638 2.211-1.716 0-1.265-.979-1.474-2.013-1.694-.792-.165-1.254-.33-1.254-.913 0-.429.264-.792 1.089-.792s1.045.396 1.177 1.045l.902-.198c-.176-1.001-.726-1.639-2.068-1.639-1.144 0-2.09.561-2.09 1.705 0 1.32 1.111 1.518 2.035 1.705.77.154 1.232.264 1.232.891 0 .605-.495.814-1.177.814-1.001 0-1.254-.484-1.408-1.089l-.891.242c.176 1.133.957 1.639 2.255 1.639zm5.819 0c1.133 0 2.013-.539 2.244-1.639l-.88-.198c-.154.638-.528 1.001-1.331 1.001-.902 0-1.54-.451-1.584-1.892h3.806c.033-.264.044-.517.044-.737 0-1.397-.66-2.442-2.244-2.442-1.452 0-2.662.891-2.662 2.959 0 1.551.605 2.948 2.607 2.948zm1.265-3.52h-2.805c.055-1.122.781-1.573 1.529-1.573.891 0 1.276.561 1.276 1.573zm6.237 3.52c.792 0 1.375-.253 1.815-.693.055.363.308.671.869.671.275 0 .561-.066.781-.176l-.044-.627c-.143.044-.242.066-.341.066-.286 0-.341-.132-.341-.44v-2.761c0-1.408-.627-1.947-2.024-1.947-1.309 0-1.991.495-2.167 1.551l.88.165c.121-.627.418-.935 1.199-.935.924 0 1.122.44 1.122 1.155v.55c-.154-.011-.319-.022-.495-.022-1.595 0-2.926.418-2.926 1.925 0 .55.242 1.518 1.672 1.518zm.308-.781c-.77 0-.946-.418-.946-.902 0-.968 1.045-1.045 1.826-1.045.209 0 .418.011.572.033v1.276c-.308.33-.869.638-1.452.638zm5.291.649v-4.114c.462-.429 1.298-.715 2.002-.616v-1.034c-.066 0-.143-.011-.209-.011-.792 0-1.386.264-1.881.935l-.077-.814h-.836V108h1.001zm5.104.132c1.903 0 2.673-1.21 2.673-3.069 0-1.683-.737-2.838-2.53-2.838-1.804 0-2.75 1.144-2.75 2.97 0 1.672.649 2.937 2.607 2.937zm.055-.803c-1.1 0-1.628-.682-1.628-2.178 0-1.507.671-2.101 1.672-2.101.979 0 1.529.517 1.529 2.079 0 1.606-.594 2.2-1.573 2.2zm5.753.781c.781 0 1.452-.308 2.002-.759l.066.649h.869v-5.654h-1.001v4.202c-.297.275-.99.693-1.639.693-.836 0-1.023-.429-1.023-1.21v-3.685h-1.001v3.839c0 1.265.528 1.925 1.727 1.925zm5.687-.11v-4.213c.297-.264 1.001-.682 1.65-.682.77 0 1.056.429 1.056 1.21V108h1.001v-3.839c0-1.276-.528-1.936-1.738-1.936-.781 0-1.485.352-2.035.792l-.055-.671h-.88V108h1.001zm7.216.132c.814 0 1.386-.308 1.87-.748l.011.011.077.605h.836v-8.305h-.979v3.058c-.396-.319-.935-.528-1.584-.528-1.254 0-2.387.803-2.387 3.036 0 2.057.869 2.871 2.156 2.871zm.297-.836c-.99 0-1.419-.66-1.419-2.035 0-1.309.396-2.178 1.485-2.178.649 0 1.177.297 1.441.495v3.025c-.352.352-.924.693-1.507.693zM225.991 123v-6.886h.022l2.365 6.886h1.056l2.409-6.875h.011V123h.957v-7.964h-1.518l-2.343 6.776h-.011l-2.343-6.776h-1.54V123h.935zm10.164.132c.792 0 1.375-.253 1.815-.693.055.363.308.671.869.671.275 0 .561-.066.781-.176l-.044-.627c-.143.044-.242.066-.341.066-.286 0-.341-.132-.341-.44v-2.761c0-1.408-.627-1.947-2.024-1.947-1.309 0-1.991.495-2.167 1.551l.88.165c.121-.627.418-.935 1.199-.935.924 0 1.122.44 1.122 1.155v.55c-.154-.011-.319-.022-.495-.022-1.595 0-2.926.418-2.926 1.925 0 .55.242 1.518 1.672 1.518zm.308-.781c-.77 0-.946-.418-.946-.902 0-.968 1.045-1.045 1.826-1.045.209 0 .418.011.572.033v1.276c-.308.33-.869.638-1.452.638zm5.291.649v-4.114c.462-.429 1.298-.715 2.002-.616v-1.034c-.066 0-.143-.011-.209-.011-.792 0-1.386.264-1.881.935l-.077-.814h-.836V123h1.001zm3.091 2.453c.891 0 1.408-.429 1.859-1.628l2.442-6.479h-1.023l-1.551 4.488h-.011l-1.496-4.488h-1.111l2.101 5.72-.264.693c-.253.671-.605.88-1.012.88-.297 0-.693-.099-.902-.176l-.121.781c.22.099.671.209 1.089.209zm5.412-8.393l.902-2.497h-1.078l-.583 2.398.759.099zm2.86 6.072c1.375 0 2.211-.638 2.211-1.716 0-1.265-.979-1.474-2.013-1.694-.792-.165-1.254-.33-1.254-.913 0-.429.264-.792 1.089-.792s1.045.396 1.177 1.045l.902-.198c-.176-1.001-.726-1.639-2.068-1.639-1.144 0-2.09.561-2.09 1.705 0 1.32 1.111 1.518 2.035 1.705.77.154 1.232.264 1.232.891 0 .605-.495.814-1.177.814-1.001 0-1.254-.484-1.408-1.089l-.891.242c.176 1.133.957 1.639 2.255 1.639zm6.919-.132v-4.114c.462-.429 1.298-.715 2.002-.616v-1.034c-.066 0-.143-.011-.209-.011-.792 0-1.386.264-1.881.935l-.077-.814h-.836V123h1.001zm5.104.132c1.133 0 2.013-.539 2.244-1.639l-.88-.198c-.154.638-.528 1.001-1.331 1.001-.902 0-1.54-.451-1.584-1.892h3.806c.033-.264.044-.517.044-.737 0-1.397-.66-2.442-2.244-2.442-1.452 0-2.662.891-2.662 2.959 0 1.551.605 2.948 2.607 2.948zm1.265-3.52H263.6c.055-1.122.781-1.573 1.529-1.573.891 0 1.276.561 1.276 1.573zm3.707 3.52c.792 0 1.375-.253 1.815-.693.055.363.308.671.869.671.275 0 .561-.066.781-.176l-.044-.627c-.143.044-.242.066-.341.066-.286 0-.341-.132-.341-.44v-2.761c0-1.408-.627-1.947-2.024-1.947-1.309 0-1.991.495-2.167 1.551l.88.165c.121-.627.418-.935 1.199-.935.924 0 1.122.44 1.122 1.155v.55c-.154-.011-.319-.022-.495-.022-1.595 0-2.926.418-2.926 1.925 0 .55.242 1.518 1.672 1.518zm.308-.781c-.77 0-.946-.418-.946-.902 0-.968 1.045-1.045 1.826-1.045.209 0 .418.011.572.033v1.276c-.308.33-.869.638-1.452.638zm6.424.781c1.133 0 2.134-.55 2.321-1.859l-.88-.187c-.143.836-.638 1.21-1.408 1.21-.902 0-1.584-.506-1.584-2.189 0-1.606.803-2.046 1.617-2.046.792 0 1.177.429 1.265 1.265l.957-.132c-.077-1.309-.913-1.969-2.178-1.969-1.694 0-2.706 1.034-2.706 3.003 0 1.694.726 2.904 2.596 2.904zm5.445 0c.528 0 1.111-.187 1.386-.374l-.176-.726c-.242.132-.649.275-.99.275-.682 0-.814-.33-.814-.924v-3.234h1.562v-.803h-1.562v-1.793l-1.001.154v1.639h-.869v.803h.869v3.366c0 1.133.539 1.617 1.595 1.617zm2.915-6.875c.451 0 .715-.264.715-.726 0-.462-.264-.715-.715-.715-.451 0-.704.253-.704.715 0 .462.253.726.704.726zm.484 6.743v-5.654h-1.001V123h1.001zm3.993.132c1.903 0 2.673-1.21 2.673-3.069 0-1.683-.737-2.838-2.53-2.838-1.804 0-2.75 1.144-2.75 2.97 0 1.672.649 2.937 2.607 2.937zm.055-.803c-1.1 0-1.628-.682-1.628-2.178 0-1.507.671-2.101 1.672-2.101.979 0 1.529.517 1.529 2.079 0 1.606-.594 2.2-1.573 2.2zm5.049.671v-4.213c.297-.264 1.001-.682 1.65-.682.77 0 1.056.429 1.056 1.21V123h1.001v-3.839c0-1.276-.528-1.936-1.738-1.936-.781 0-1.485.352-2.035.792l-.055-.671h-.88V123h1.001zm5.753.132c.484 0 .748-.253.748-.737s-.264-.737-.748-.737-.748.253-.748.737c0 .495.264.737.748.737z"/>
        <g fill-rule="nonzero">
            <path fill="#737373" d="M2.439 6.903c1.557 0 2.52-.729 2.52-2.358V.279H3.906v4.158c0 1.161-.414 1.584-1.413 1.584-1.008 0-1.44-.477-1.44-1.611V.279H0v4.239c0 1.593.72 2.385 2.439 2.385zm4.914-.108V3.402c.225-.207.711-.495 1.179-.495.549 0 .765.306.765.891v2.997h1.035V3.627c0-1.053-.432-1.584-1.44-1.584-.639 0-1.197.252-1.611.585l-.045-.486h-.918v4.653h1.035zm4.752-5.436c.432 0 .675-.243.675-.684 0-.432-.243-.675-.675-.675-.423 0-.675.243-.675.675 0 .441.252.684.675.684zm.513 5.436V2.142h-1.035v4.653h1.035zm2.835.108c.495 0 .999-.171 1.233-.324l-.171-.738c-.189.108-.513.216-.792.216-.504 0-.621-.243-.621-.702V2.907h1.26v-.765h-1.26V.639l-1.035.144v1.359h-.711v.765h.711v2.592c0 .99.468 1.404 1.386 1.404zm5.904-.108V.279h-.648c-.423.468-1.008.684-1.836.756l.063.837c.297 0 1.089-.117 1.395-.288v5.211h1.026z" transform="translate(40.72 56.205)"/>
            <path fill="#B9B9B9" d="M26.028 5.535c.828 0 1.287-.423 1.287-1.26s-.459-1.251-1.287-1.251c-.819 0-1.278.414-1.278 1.251s.459 1.26 1.278 1.26z" transform="translate(40.72 56.205)"/>
            <path fill="#737373" d="M34.416 6.795v-.891h-2.88V.279h-1.053v6.516h3.933zm2.799.108c1.008 0 1.719-.504 1.899-1.386l-.882-.216c-.108.477-.36.756-.954.756-.675 0-1.143-.351-1.17-1.332h3.015c.018-.216.027-.432.027-.621 0-1.206-.558-2.061-1.908-2.061-1.215 0-2.223.747-2.223 2.43 0 1.278.522 2.43 2.196 2.43zm.864-2.898h-1.953c.045-.828.531-1.143 1.053-1.143.621 0 .9.351.9 1.143zm3.168 2.898c.648 0 1.161-.225 1.476-.567.081.36.297.549.783.549.252 0 .549-.063.729-.153l-.036-.612c-.117.036-.198.054-.279.054-.234 0-.279-.108-.279-.36V3.663c0-1.161-.558-1.62-1.746-1.62-1.143 0-1.701.468-1.845 1.341l.909.162c.099-.486.288-.72.855-.72.684 0 .81.324.81.891v.351c-.126-.009-.261-.018-.477-.018-1.251 0-2.277.396-2.277 1.602 0 .459.207 1.251 1.377 1.251zm.369-.774c-.549 0-.693-.297-.693-.621 0-.684.756-.747 1.278-.747.234 0 .342.009.432.018v.918c-.207.216-.594.432-1.017.432zm4.455.666V3.564c.387-.342 1.044-.549 1.629-.477V2.052c-.063 0-.135-.009-.189-.009-.684 0-1.152.27-1.521.792l-.081-.693h-.873v4.653h1.035zm3.384 0V3.402c.225-.207.711-.495 1.179-.495.549 0 .765.306.765.891v2.997h1.035V3.627c0-1.053-.432-1.584-1.44-1.584-.639 0-1.197.252-1.611.585l-.045-.486h-.918v4.653h1.035zm4.752-5.436c.432 0 .675-.243.675-.684 0-.432-.243-.675-.675-.675-.423 0-.675.243-.675.675 0 .441.252.684.675.684zm.513 5.436V2.142h-1.035v4.653h1.035zm2.295 0V3.402c.225-.207.711-.495 1.179-.495.549 0 .765.306.765.891v2.997h1.035V3.627c0-1.053-.432-1.584-1.44-1.584-.639 0-1.197.252-1.611.585l-.045-.486h-.918v4.653h1.035zm5.967 2.034c1.242 0 2.412-.378 2.412-1.593 0-.855-.576-1.152-1.548-1.215l-1.323-.081c-.396-.027-.477-.144-.477-.306 0-.135.108-.261.225-.351.243.072.486.09.792.09 1.125 0 1.962-.612 1.962-1.665 0-.378-.117-.747-.36-1.026.243-.072.522-.108.81-.09v-.765c-.135-.045-.216-.054-.369-.054-.342 0-.612.261-.774.639-.315-.27-.765-.369-1.305-.369-1.251 0-2.007.711-2.007 1.719 0 .594.27 1.053.684 1.287-.342.261-.657.531-.657.954 0 .36.207.585.549.702v.027c-.432.144-.774.45-.774.936 0 .585.432 1.161 2.16 1.161zm.063-4.257c-.72 0-1.017-.333-1.017-.873 0-.603.441-.855 1.026-.855.621 0 .999.288.999.873 0 .531-.414.855-1.008.855zm.036 3.474c-.873 0-1.26-.171-1.26-.549 0-.252.135-.432.378-.603l1.431.072c.567.027.702.189.702.477 0 .423-.441.603-1.251.603zm7.614-1.143c1.152 0 2.376-.531 2.601-2.007l-.936-.18c-.189.828-.639 1.296-1.611 1.296-1.215 0-1.899-.693-1.899-2.457 0-1.701.756-2.484 1.989-2.484.972 0 1.413.477 1.521 1.458l.972-.09C73.233.873 72.252.162 70.848.162c-1.935 0-3.078 1.323-3.078 3.465 0 1.971.828 3.276 2.925 3.276zm3.843 1.899c.828 0 1.242-.387 1.62-1.413.603-1.602 1.323-3.537 1.944-5.247H77.04l-1.143 3.492h-.009l-1.143-3.492h-1.116l1.746 4.725-.189.486c-.189.477-.441.639-.756.639-.225 0-.531-.072-.729-.144l-.099.774c.189.09.585.18.936.18zm6.021-1.899c.999 0 1.827-.477 1.98-1.593l-.9-.18c-.108.648-.45.927-1.026.927-.648 0-1.152-.387-1.152-1.647 0-1.233.576-1.539 1.179-1.539.603 0 .855.396.927 1.008l.954-.135c-.081-1.098-.81-1.701-1.836-1.701-1.458 0-2.304.873-2.304 2.484 0 1.386.639 2.376 2.178 2.376zm3.996-.108V0H83.52v6.795h1.035zm3.204.108c1.008 0 1.719-.504 1.899-1.386l-.882-.216c-.108.477-.36.756-.954.756-.675 0-1.143-.351-1.17-1.332h3.015c.018-.216.027-.432.027-.621 0-1.206-.558-2.061-1.908-2.061-1.215 0-2.223.747-2.223 2.43 0 1.278.522 2.43 2.196 2.43zm.864-2.898H86.67c.045-.828.531-1.143 1.053-1.143.621 0 .9.351.9 1.143zm7.641 2.79v-.882h-2.745v-.018l1.242-1.422c.918-1.044 1.413-1.701 1.413-2.664 0-1.089-.693-1.647-1.854-1.647-1.062 0-1.917.504-2.079 1.728l.918.162c.099-.621.315-1.044 1.062-1.044.576 0 .909.252.909.837 0 .765-.45 1.305-1.323 2.34L92.34 5.931v.864h3.924z" transform="translate(40.72 56.205)"/>
        </g>
        <path fill="#E2E2E2" style="mix-blend-mode:multiply" d="M40 127H144V133H40zM40 137H125V143H40zM40 157H77V163H40zM40 147H133V153H40z"/>
        <g fill="#B7B7B7" fill-rule="nonzero">
            <path d="M32 6c.552 0 1 .448 1 1 0 .513-.386.936-.883.993L32 8H0c-.552 0-1-.448-1-1 0-.513.386-.936.883-.993L0 6h32z" transform="translate(172 108)"/>
            <path d="M24.293-.707c.36-.36.928-.388 1.32-.083l.094.083 7 7c.36.36.388.928.083 1.32l-.083.094-7 7c-.39.39-1.024.39-1.414 0-.36-.36-.388-.928-.083-1.32l.083-.094L30.585 7 24.293.707c-.36-.36-.388-.928-.083-1.32l.083-.094z" transform="translate(172 108)"/>
        </g>
        <g fill="#FFF">
            <path d="M5.978 2.53c3.048 0 5.916 2.292 5.916 6.168 0 1.754-.59 3.196-1.509 4.229l1.375 1.57-1.327 1.153-1.43-1.586c-.904.537-1.964.817-3.033.817-3.048 0-5.9-2.29-5.9-6.183.009-3.876 2.86-6.167 5.908-6.167zm0 10.445c.59 0 1.194-.12 1.736-.384L5.798 10.42 7.14 9.25l1.933 2.187c.494-.689.8-1.586.8-2.739 0-2.86-1.932-4.277-3.904-4.277-1.948 0-3.888 1.418-3.888 4.277.008 2.86 1.948 4.277 3.896 4.277zM16.309 14.865c-1.901 0-3.017-1.434-3.017-3.244V6.487h1.901v4.782c0 1.001.456 1.858 1.61 1.858 1.1 0 1.674-.753 1.674-1.818V6.487h1.901v6.656c0 .665.047 1.186.079 1.49h-1.823c-.031-.184-.063-.569-.063-.905-.4.737-1.327 1.137-2.262 1.137zM23.356 2.363c.69 0 1.249.568 1.249 1.273s-.558 1.258-1.25 1.258c-.675 0-1.233-.553-1.233-1.258s.558-1.273 1.234-1.273zm-.935 12.27V6.487h1.885v8.138h-1.885v.008zM26.356 14.633L26.356 2.531 28.258 2.531 28.258 14.633zM30.308 14.633L30.308 2.531 32.209 2.531 32.209 14.633zM39.327 13.407c-.158 0-.299-.088-.362-.248l-.37-.889-.918.216c-.212.048-.424-.088-.472-.304-.047-.216.087-.432.299-.48l1.241-.289c.189-.04.377.056.448.232l.495 1.194c.086.2-.008.44-.212.52-.047.032-.094.048-.15.048z" transform="translate(224 32)"/>
            <path d="M37.645 14.577c-.062 0-.125-.016-.18-.048-.126-.064-.212-.2-.212-.345l-.048-2.082c-.007-.224.165-.409.385-.409h.008c.212 0 .385.177.393.393l.031 1.345 1.092-.76c.181-.129.425-.08.542.104.126.184.079.432-.102.552l-1.689 1.178c-.07.048-.141.072-.22.072zM43.482.841c.26 0 .527.064.778.192.84.44 1.17 1.482.738 2.339L42.163 9.01l-2.514 1.194-.519-2.78 2.836-5.638c.299-.6.896-.945 1.516-.945zm0-.801c-.935 0-1.79.529-2.215 1.378L38.43 7.056c-.079.16-.102.337-.07.513l.518 2.779c.047.24.196.448.416.56.11.057.236.089.361.089.11 0 .228-.024.33-.072L42.5 9.73c.157-.072.291-.2.37-.36l2.836-5.639c.628-1.241.14-2.779-1.077-3.412-.361-.184-.754-.28-1.147-.28z" transform="translate(224 32)"/>
            <path d="M41.455 7.008c-.062 0-.125-.016-.18-.048-.11-.056-.18-.16-.204-.28l-.519-2.78c-.04-.216.102-.424.314-.464.212-.04.417.104.456.32l.424 2.275 2.058-.977c.197-.096.432-.008.519.192.094.2.008.44-.189.529L41.62 6.968c-.055.024-.11.04-.165.04z" transform="translate(224 32)"/>
            <path d="M38.832 12.206c-.063 0-.118-.016-.181-.048-.196-.104-.267-.344-.173-.537l4.494-8.93c.102-.2.337-.272.526-.176.196.104.267.344.173.537l-4.494 8.93c-.063.144-.196.224-.345.224zM37.645 14.577h-3.338c-.22 0-.393-.176-.393-.4 0-.225.173-.401.393-.401h3.338c.22 0 .393.176.393.4 0 .225-.173.4-.393.4z" transform="translate(224 32)"/>
        </g>
        <path fill="#FFF" d="M374 38H411V42H374z" opacity=".332"/>
        <rect width="187" height="21" x="224" y="132" fill="#F4F4F4" rx="2"/>
        <path fill="#CFCFCF" fill-rule="nonzero" d="M366 162.5H226c-1.38 0-2.5 1.12-2.5 2.5v20c0 1.38 1.12 2.5 2.5 2.5h140c1.38 0 2.5-1.12 2.5-2.5v-20c0-1.38-1.12-2.5-2.5-2.5zm-140 1h140c.828 0 1.5.672 1.5 1.5v20c0 .828-.672 1.5-1.5 1.5H226c-.828 0-1.5-.672-1.5-1.5v-20c0-.828.672-1.5 1.5-1.5z"/>
        <rect width="37" height="14" x="374" y="173" fill="#06806B" stroke="#06806B" rx="2"/>
        <path fill="#737373" fill-rule="nonzero" d="M247.33 145.108c1.152 0 2.376-.531 2.601-2.007l-.936-.18c-.189.828-.639 1.296-1.611 1.296-1.215 0-1.899-.693-1.899-2.457 0-1.701.756-2.484 1.989-2.484.972 0 1.413.477 1.521 1.458l.972-.09c-.099-1.566-1.08-2.277-2.484-2.277-1.935 0-3.078 1.323-3.078 3.465 0 1.971.828 3.276 2.925 3.276zm5.49 0c1.602 0 2.268-.99 2.268-2.52 0-1.377-.612-2.34-2.151-2.34-1.539 0-2.313.954-2.313 2.448 0 1.386.558 2.412 2.196 2.412zm.054-.801c-.81 0-1.17-.513-1.17-1.647s.459-1.575 1.197-1.575c.729 0 1.107.396 1.107 1.557 0 1.197-.423 1.665-1.134 1.665zm4.275.693v-3.42c.225-.207.702-.468 1.089-.468.513 0 .639.315.639.864V145h1.035v-3.195c0-.081 0-.171-.009-.243.225-.207.684-.45 1.053-.45.513 0 .648.315.648.864V145h1.035v-3.177c0-1.044-.396-1.575-1.35-1.575-.63 0-1.152.252-1.557.603-.198-.432-.576-.603-1.17-.603-.612 0-1.098.243-1.521.576l-.036-.477h-.891V145h1.035zm9 .108c1.089 0 1.944-.729 1.944-2.547 0-1.701-.747-2.313-1.701-2.313-.63 0-1.107.189-1.503.549v-2.592h-1.017V145h.882l.063-.387.018-.009c.306.279.747.504 1.314.504zm-.198-.864c-.459 0-.855-.252-1.044-.396v-2.259c.234-.225.684-.495 1.116-.495.72 0 .999.522.999 1.485 0 1.062-.315 1.665-1.071 1.665zm3.726-4.68c.432 0 .675-.243.675-.684 0-.432-.243-.675-.675-.675-.423 0-.675.243-.675.675 0 .441.252.684.675.684zm.513 5.436v-4.653h-1.035V145h1.035zm2.295 0v-3.393c.225-.207.711-.495 1.179-.495.549 0 .765.306.765.891V145h1.035v-3.168c0-1.053-.432-1.584-1.44-1.584-.639 0-1.197.252-1.611.585l-.045-.486h-.918V145h1.035zm6.156.108c1.008 0 1.719-.504 1.899-1.386l-.882-.216c-.108.477-.36.756-.954.756-.675 0-1.143-.351-1.17-1.332h3.015c.018-.216.027-.432.027-.621 0-1.206-.558-2.061-1.908-2.061-1.215 0-2.223.747-2.223 2.43 0 1.278.522 2.43 2.196 2.43zm.864-2.898h-1.953c.045-.828.531-1.143 1.053-1.143.621 0 .9.351.9 1.143zm5.472 2.898c.495 0 .999-.171 1.233-.324l-.171-.738c-.189.108-.513.216-.792.216-.504 0-.621-.243-.621-.702v-2.448h1.26v-.765h-1.26v-1.503l-1.035.144v1.359h-.711v.765h.711v2.592c0 .99.468 1.404 1.386 1.404zm2.988-.108v-3.393c.225-.207.711-.495 1.179-.495.549 0 .765.306.765.891V145h1.035v-3.168c0-1.053-.432-1.584-1.431-1.584-.648 0-1.152.234-1.557.558v-2.601h-1.026V145h1.035zm6.156.108c1.008 0 1.719-.504 1.899-1.386l-.882-.216c-.108.477-.36.756-.954.756-.675 0-1.143-.351-1.17-1.332h3.015c.018-.216.027-.432.027-.621 0-1.206-.558-2.061-1.908-2.061-1.215 0-2.223.747-2.223 2.43 0 1.278.522 2.43 2.196 2.43zm.864-2.898h-1.953c.045-.828.531-1.143 1.053-1.143.621 0 .9.351.9 1.143zm5.454 2.898c1.143 0 1.917-.513 1.917-1.476 0-1.062-.855-1.251-1.656-1.395-.612-.108-1.008-.234-1.008-.666 0-.306.234-.549.801-.549.603 0 .774.324.882.783l.9-.234c-.18-.81-.684-1.323-1.764-1.323-.972 0-1.791.468-1.791 1.44 0 1.107.9 1.269 1.656 1.422.594.117.972.198.972.666 0 .396-.36.558-.873.558-.747 0-.936-.387-1.053-.828l-.882.288c.144.864.783 1.314 1.899 1.314zm4.824 0c1.008 0 1.719-.504 1.899-1.386l-.882-.216c-.108.477-.36.756-.954.756-.675 0-1.143-.351-1.17-1.332h3.015c.018-.216.027-.432.027-.621 0-1.206-.558-2.061-1.908-2.061-1.215 0-2.223.747-2.223 2.43 0 1.278.522 2.43 2.196 2.43zm.864-2.898h-1.953c.045-.828.531-1.143 1.053-1.143.621 0 .9.351.9 1.143zm3.15 2.79v-3.393c.225-.207.711-.495 1.179-.495.549 0 .765.306.765.891V145h1.035v-3.168c0-1.053-.432-1.584-1.44-1.584-.639 0-1.197.252-1.611.585l-.045-.486h-.918V145h1.035zm5.688.108c.495 0 .999-.171 1.233-.324l-.171-.738c-.189.108-.513.216-.792.216-.504 0-.621-.243-.621-.702v-2.448h1.26v-.765h-1.26v-1.503l-1.035.144v1.359h-.711v.765h.711v2.592c0 .99.468 1.404 1.386 1.404zm3.807 0c1.008 0 1.719-.504 1.899-1.386l-.882-.216c-.108.477-.36.756-.954.756-.675 0-1.143-.351-1.17-1.332h3.015c.018-.216.027-.432.027-.621 0-1.206-.558-2.061-1.908-2.061-1.215 0-2.223.747-2.223 2.43 0 1.278.522 2.43 2.196 2.43zm.864-2.898h-1.953c.045-.828.531-1.143 1.053-1.143.621 0 .9.351.9 1.143zm3.15 2.79v-3.393c.225-.207.711-.495 1.179-.495.549 0 .765.306.765.891V145h1.035v-3.168c0-1.053-.432-1.584-1.44-1.584-.639 0-1.197.252-1.611.585l-.045-.486h-.918V145h1.035zm6.138.108c.999 0 1.827-.477 1.98-1.593l-.9-.18c-.108.648-.45.927-1.026.927-.648 0-1.152-.387-1.152-1.647 0-1.233.576-1.539 1.179-1.539.603 0 .855.396.927 1.008l.954-.135c-.081-1.098-.81-1.701-1.836-1.701-1.458 0-2.304.873-2.304 2.484 0 1.386.639 2.376 2.178 2.376zm4.887 0c1.008 0 1.719-.504 1.899-1.386l-.882-.216c-.108.477-.36.756-.954.756-.675 0-1.143-.351-1.17-1.332h3.015c.018-.216.027-.432.027-.621 0-1.206-.558-2.061-1.908-2.061-1.215 0-2.223.747-2.223 2.43 0 1.278.522 2.43 2.196 2.43zm.864-2.898h-1.953c.045-.828.531-1.143 1.053-1.143.621 0 .9.351.9 1.143zm3.645 2.898c1.143 0 1.917-.513 1.917-1.476 0-1.062-.855-1.251-1.656-1.395-.612-.108-1.008-.234-1.008-.666 0-.306.234-.549.801-.549.603 0 .774.324.882.783l.9-.234c-.18-.81-.684-1.323-1.764-1.323-.972 0-1.791.468-1.791 1.44 0 1.107.9 1.269 1.656 1.422.594.117.972.198.972.666 0 .396-.36.558-.873.558-.747 0-.936-.387-1.053-.828l-.882.288c.144.864.783 1.314 1.899 1.314z"/>
        <g transform="translate(230 137)">
            <circle cx="5" cy="2.667" r="1" fill="#9F9F9F" fill-rule="nonzero"/>
            <circle cx="5" cy="5" r="4.667" stroke="#9F9F9F" stroke-linecap="round" stroke-linejoin="round"/>
            <path stroke="#9F9F9F" stroke-linecap="round" stroke-linejoin="round" d="M5 7.667L5 5"/>
        </g>
        <path fill="#FFF" d="M380 178H405V182H380z" opacity=".328"/>
    </g>
</svg>
