<svg xmlns="http://www.w3.org/2000/svg" width="64" height="64" viewBox="0 0 64 64">
    <g fill="none" fill-rule="evenodd">
        <path d="M0 0H64V64H0z"/>
        <path stroke="#000" stroke-linecap="round" stroke-linejoin="round" stroke-width="2" d="M3 3H61V61H3zM12 49L33 49M12 39L52 39M12 29L52 29"/>
        <path fill="#000" fill-rule="nonzero" d="M12.378 19.795v-2.732h1.2c.571 0 1.044-.067 1.42-.203.374-.136.674-.32.9-.552.224-.232.381-.502.47-.809.09-.307.134-.628.134-.964 0-.314-.044-.616-.133-.905-.09-.29-.247-.543-.472-.76-.225-.219-.528-.394-.91-.526-.383-.132-.866-.198-1.452-.198h-2.732v7.65h1.575zm1.146-4.06h-1.146v-2.271h1.135c.279 0 .51.025.691.075.183.05.327.121.434.214.107.093.182.207.225.343.043.136.065.293.065.471 0 .172-.02.33-.06.477-.039.146-.112.27-.219.37-.107.1-.252.178-.434.235-.182.057-.412.086-.69.086zm5.517 4.06V16.56c0-.15.03-.297.092-.44.06-.142.155-.27.283-.385.122-.107.258-.18.408-.22.15-.039.307-.059.47-.059.25 0 .462.022.633.065l.182-1.36c-.071-.015-.153-.028-.246-.038-.093-.011-.211-.016-.354-.016-.293 0-.571.073-.835.22-.265.146-.49.365-.675.658v-.782h-1.457v5.592h1.5zm5.593.172c.771 0 1.359-.163 1.762-.488.404-.325.655-.802.755-1.43h-1.457c-.107.5-.457.75-1.05.75-.428 0-.75-.127-.964-.38-.214-.254-.328-.606-.343-1.056h3.879v-.6c0-.835-.216-1.5-.649-1.992-.432-.493-1.076-.74-1.933-.74-.415 0-.793.067-1.136.199-.343.132-.637.326-.884.584-.246.257-.437.57-.573.937-.136.368-.203.787-.203 1.259 0 .943.233 1.671.701 2.185.468.515 1.166.772 2.095.772zm1.135-3.59h-2.41c.007-.17.04-.33.096-.476.057-.146.138-.275.241-.386.104-.11.23-.198.38-.262s.326-.097.526-.097c.4 0 .694.108.883.322.19.214.284.514.284.9zm5.593.954v-1.478h-3.204v1.478h3.204zm2.239 2.464l.61-1.767h2.679l.61 1.767h1.714l-2.87-7.649h-1.522l-2.871 7.65h1.65zm2.87-3.085h-1.853l.922-2.743.932 2.743zm5.207 3.085v-2.732h1.2c.572 0 1.045-.067 1.42-.203s.675-.32.9-.552c.225-.232.382-.502.471-.809.09-.307.134-.628.134-.964 0-.314-.045-.616-.134-.905-.09-.29-.246-.543-.471-.76-.225-.219-.529-.394-.91-.526-.383-.132-.867-.198-1.453-.198h-2.731v7.65h1.574zm1.147-4.06h-1.147v-2.271h1.136c.279 0 .509.025.691.075.182.05.327.121.434.214.107.093.182.207.225.343.043.136.064.293.064.471 0 .172-.02.33-.059.477-.039.146-.112.27-.22.37-.107.1-.251.178-.433.235-.182.057-.413.086-.691.086z"/>
    </g>
</svg>
