<svg xmlns="http://www.w3.org/2000/svg" width="447" height="224" viewBox="0 0 447 224">
    <g fill="none" fill-rule="evenodd">
        <path fill="#F8F6F6" d="M0 0H447V224H0z"/>
        <rect width="163" height="30" x="24" y="97" fill="#FFF" stroke="#E0E0E0" rx="4"/>
        <rect width="168" height="30" x="195" y="97" fill="#FFF" stroke="#E0E0E0" rx="4"/>
        <rect width="117" height="30" x="137" y="173" fill="#FFF" stroke="#E0E0E0" rx="4"/>
        <rect width="110" height="30" x="262" y="173" fill="#FFF" stroke="#E0E0E0" rx="4"/>
        <rect width="129" height="30" x="24" y="135" fill="#FFF" stroke="#E0E0E0" rx="4"/>
        <rect width="120" height="30" x="161" y="135" fill="#FFF" stroke="#E0E0E0" rx="4"/>
        <rect width="105" height="30" x="24" y="173" fill="#FFF" stroke="#E0E0E0" rx="4"/>
        <rect width="149" height="30" x="24" y="21" fill="#FFF" stroke="#E0E0E0" rx="4"/>
        <rect width="237" height="30" x="24" y="59" fill="#FFF" stroke="#E0E0E0" rx="4"/>
        <rect width="193" height="30" x="181" y="21" fill="#FFF" stroke="#E0E0E0" rx="4"/>
        <path fill="#3F3F3F" fill-rule="nonzero" d="M36.416 117.144c1.524 0 3.096-.648 3.396-2.568l-.996-.204c-.276 1.224-.948 1.824-2.328 1.824-1.74 0-2.748-1.008-2.748-3.504 0-2.388 1.092-3.576 2.892-3.576 1.428 0 2.04.708 2.208 2.064l1.032-.108c-.132-2.028-1.404-2.916-3.228-2.916-2.472 0-4.044 1.704-4.044 4.632 0 2.604 1.092 4.356 3.816 4.356zm7.32 0c2.076 0 2.916-1.32 2.916-3.348 0-1.836-.804-3.096-2.76-3.096-1.968 0-3 1.248-3 3.24 0 1.824.708 3.204 2.844 3.204zm.06-.876c-1.2 0-1.776-.744-1.776-2.376 0-1.644.732-2.292 1.824-2.292 1.068 0 1.668.564 1.668 2.268 0 1.752-.648 2.4-1.716 2.4zm6.876.876c2.076 0 2.916-1.32 2.916-3.348 0-1.836-.804-3.096-2.76-3.096-1.968 0-3 1.248-3 3.24 0 1.824.708 3.204 2.844 3.204zm.06-.876c-1.2 0-1.776-.744-1.776-2.376 0-1.644.732-2.292 1.824-2.292 1.068 0 1.668.564 1.668 2.268 0 1.752-.648 2.4-1.716 2.4zm5.508.732v-4.488c.504-.468 1.416-.78 2.184-.672v-1.128l-.228-.012c-.864 0-1.512.288-2.052 1.02l-.084-.888h-.912V117h1.092zm5.088.144c.888 0 1.512-.336 2.04-.816l.012.012.084.66h.912v-9.06h-1.068v3.336c-.432-.348-1.02-.576-1.728-.576-1.368 0-2.604.876-2.604 3.312 0 2.244.948 3.132 2.352 3.132zm.324-.912c-1.08 0-1.548-.72-1.548-2.22 0-1.428.432-2.376 1.62-2.376.708 0 1.284.324 1.572.54v3.3c-.384.384-1.008.756-1.644.756zm5.184-6.588c.492 0 .78-.288.78-.792s-.288-.78-.78-.78c-.492 0-.768.276-.768.78s.276.792.768.792zm.528 7.356v-6.168h-1.092V117h1.092zm2.988 0v-4.596c.324-.288 1.092-.744 1.8-.744.84 0 1.152.468 1.152 1.32V117h1.092v-4.188c0-1.392-.576-2.112-1.896-2.112-.852 0-1.62.384-2.22.864l-.06-.732h-.96V117h1.092zm7.416.144c.864 0 1.5-.276 1.98-.756.06.396.336.732.948.732.3 0 .612-.072.852-.192l-.048-.684c-.156.048-.264.072-.372.072-.312 0-.372-.144-.372-.48v-3.012c0-1.536-.684-2.124-2.208-2.124-1.428 0-2.172.54-2.364 1.692l.96.18c.132-.684.456-1.02 1.308-1.02 1.008 0 1.224.48 1.224 1.26v.6c-.168-.012-.348-.024-.54-.024-1.74 0-3.192.456-3.192 2.1 0 .6.264 1.656 1.824 1.656zm.336-.852c-.84 0-1.032-.456-1.032-.984 0-1.056 1.14-1.14 1.992-1.14.228 0 .456.012.624.036v1.392c-.336.36-.948.696-1.584.696zm6.396.852c.576 0 1.212-.204 1.512-.408l-.192-.792c-.264.144-.708.3-1.08.3-.744 0-.888-.36-.888-1.008v-3.528h1.704v-.876h-1.704v-1.956l-1.092.168v1.788h-.948v.876h.948v3.672c0 1.236.588 1.764 1.74 1.764zm3.18-7.5c.492 0 .78-.288.78-.792s-.288-.78-.78-.78c-.492 0-.768.276-.768.78s.276.792.768.792zm.528 7.356v-6.168h-1.092V117h1.092zm2.988 0v-4.596c.324-.288 1.092-.744 1.8-.744.84 0 1.152.468 1.152 1.32V117h1.092v-4.188c0-1.392-.576-2.112-1.896-2.112-.852 0-1.62.384-2.22.864l-.06-.732h-.96V117h1.092zm8.076 2.712c1.548 0 3.168-.456 3.168-1.968 0-1.212-.744-1.524-2.016-1.608l-1.716-.12c-.66-.048-.792-.228-.792-.468 0-.252.216-.42.384-.576.312.108.696.144 1.104.144 1.416 0 2.52-.816 2.52-2.208 0-.504-.156-.996-.456-1.344.312-.096.804-.156 1.176-.132v-.876c-.18-.06-.348-.096-.54-.096-.456 0-.78.36-.972.804-.408-.408-1.032-.564-1.788-.564-1.596 0-2.616.912-2.616 2.268 0 .792.348 1.428.912 1.728-.432.336-.816.684-.816 1.212 0 .444.252.684.672.852v.012c-.504.24-.996.72-.996 1.416 0 .732.468 1.524 2.772 1.524zm.084-5.496c-1.092 0-1.536-.516-1.536-1.32 0-.948.696-1.32 1.56-1.32.924 0 1.488.42 1.488 1.344 0 .828-.612 1.296-1.512 1.296zm.048 4.632c-1.392 0-1.812-.348-1.812-.864 0-.408.216-.66.684-.972l2.004.12c.84.06 1.032.3 1.032.744 0 .648-.636.972-1.908.972zm10.32-1.704c1.524 0 3.096-.648 3.396-2.568l-.996-.204c-.276 1.224-.948 1.824-2.328 1.824-1.74 0-2.748-1.008-2.748-3.504 0-2.388 1.092-3.576 2.892-3.576 1.428 0 2.04.708 2.208 2.064l1.032-.108c-.132-2.028-1.404-2.916-3.228-2.916-2.472 0-4.044 1.704-4.044 4.632 0 2.604 1.092 4.356 3.816 4.356zm7.32 0c2.076 0 2.916-1.32 2.916-3.348 0-1.836-.804-3.096-2.76-3.096-1.968 0-3 1.248-3 3.24 0 1.824.708 3.204 2.844 3.204zm.06-.876c-1.2 0-1.776-.744-1.776-2.376 0-1.644.732-2.292 1.824-2.292 1.068 0 1.668.564 1.668 2.268 0 1.752-.648 2.4-1.716 2.4zm5.508.732v-4.596c.324-.288 1.092-.744 1.8-.744.84 0 1.152.468 1.152 1.32V117h1.092v-4.188c0-1.392-.576-2.112-1.896-2.112-.852 0-1.62.384-2.22.864l-.06-.732h-.96V117h1.092zm6.468-7.452c.492 0 .768-.288.768-.792 0-.492-.276-.78-.768-.78s-.78.288-.78.78c0 .504.288.792.78.792zm-1.236 10.128c1.116 0 1.752-.564 1.752-1.872v-6.972h-1.092v6.924c0 .732-.312.972-.804.972-.3 0-.66-.084-.9-.18l-.12.888c.216.132.768.24 1.164.24zm5.484-2.556c.852 0 1.584-.336 2.184-.828l.072.708h.948v-6.168h-1.092v4.584c-.324.3-1.08.756-1.788.756-.912 0-1.116-.468-1.116-1.32v-4.02h-1.092v4.188c0 1.38.576 2.1 1.884 2.1zm6.204-.12v-4.596c.324-.288 1.092-.744 1.8-.744.84 0 1.152.468 1.152 1.32V117h1.092v-4.188c0-1.392-.576-2.112-1.896-2.112-.852 0-1.62.384-2.22.864l-.06-.732h-.96V117h1.092zm8.34.144c1.236 0 2.328-.6 2.532-2.028l-.96-.204c-.156.912-.696 1.32-1.536 1.32-.984 0-1.728-.552-1.728-2.388 0-1.752.876-2.232 1.764-2.232.864 0 1.284.468 1.38 1.38l1.044-.144c-.084-1.428-.996-2.148-2.376-2.148-1.848 0-2.952 1.128-2.952 3.276 0 1.848.792 3.168 2.832 3.168zm5.94 0c.576 0 1.212-.204 1.512-.408l-.192-.792c-.264.144-.708.3-1.08.3-.744 0-.888-.36-.888-1.008v-3.528h1.704v-.876h-1.704v-1.956l-1.092.168v1.788h-.948v.876h.948v3.672c0 1.236.588 1.764 1.74 1.764zm3.18-7.5c.492 0 .78-.288.78-.792s-.288-.78-.78-.78c-.492 0-.768.276-.768.78s.276.792.768.792zm.528 7.356v-6.168h-1.092V117h1.092zm4.356.144c2.076 0 2.916-1.32 2.916-3.348 0-1.836-.804-3.096-2.76-3.096-1.968 0-3 1.248-3 3.24 0 1.824.708 3.204 2.844 3.204zm.06-.876c-1.2 0-1.776-.744-1.776-2.376 0-1.644.732-2.292 1.824-2.292 1.068 0 1.668.564 1.668 2.268 0 1.752-.648 2.4-1.716 2.4zm5.508.732v-4.596c.324-.288 1.092-.744 1.8-.744.84 0 1.152.468 1.152 1.32V117h1.092v-4.188c0-1.392-.576-2.112-1.896-2.112-.852 0-1.62.384-2.22.864l-.06-.732h-.96V117h1.092zm7.848.144c1.5 0 2.412-.696 2.412-1.872 0-1.38-1.068-1.608-2.196-1.848-.864-.18-1.368-.36-1.368-.996 0-.468.288-.864 1.188-.864.9 0 1.14.432 1.284 1.14l.984-.216c-.192-1.092-.792-1.788-2.256-1.788-1.248 0-2.28.612-2.28 1.86 0 1.44 1.212 1.656 2.22 1.86.84.168 1.344.288 1.344.972 0 .66-.54.888-1.284.888-1.092 0-1.368-.528-1.536-1.188l-.972.264c.192 1.236 1.044 1.788 2.46 1.788zM206.432 117.144c1.608 0 3.072-.72 3.072-2.556 0-1.68-1.38-2.088-2.652-2.46-1.08-.324-2.076-.624-2.076-1.68 0-.768.48-1.356 1.812-1.356 1.344 0 1.68.804 1.812 1.632l1.032-.12c-.18-1.86-1.332-2.448-2.856-2.448-1.68 0-2.928.912-2.928 2.4 0 1.788 1.404 2.16 2.688 2.52 1.068.3 2.04.588 2.04 1.668 0 1.152-.996 1.464-1.932 1.464-1.488 0-1.92-.804-2.124-1.728l-1.056.156c.228 1.788 1.356 2.508 3.168 2.508zm6.396-.024c.852 0 1.584-.336 2.184-.828l.072.708h.948v-6.168h-1.092v4.584c-.324.3-1.08.756-1.788.756-.912 0-1.116-.468-1.116-1.32v-4.02h-1.092v4.188c0 1.38.576 2.1 1.884 2.1zm7.92.024c1.428 0 2.604-.972 2.604-3.372 0-2.268-.972-3.072-2.244-3.072-.9 0-1.548.336-2.088.816v-3.576h-1.08V117h.948l.06-.54h.012c.444.348 1.056.684 1.788.684zm-.132-.924c-.708 0-1.308-.432-1.584-.636v-3.192c.36-.348 1.044-.768 1.728-.768 1.02 0 1.464.672 1.464 2.136 0 1.5-.444 2.46-1.608 2.46zm6.756.924c2.076 0 2.916-1.32 2.916-3.348 0-1.836-.804-3.096-2.76-3.096-1.968 0-3 1.248-3 3.24 0 1.824.708 3.204 2.844 3.204zm.06-.876c-1.2 0-1.776-.744-1.776-2.376 0-1.644.732-2.292 1.824-2.292 1.068 0 1.668.564 1.668 2.268 0 1.752-.648 2.4-1.716 2.4zm5.508.732v-4.488c.504-.468 1.416-.78 2.184-.672v-1.128l-.228-.012c-.864 0-1.512.288-2.052 1.02l-.084-.888h-.912V117h1.092zm5.088.144c.888 0 1.512-.336 2.04-.816l.012.012.084.66h.912v-9.06h-1.068v3.336c-.432-.348-1.02-.576-1.728-.576-1.368 0-2.604.876-2.604 3.312 0 2.244.948 3.132 2.352 3.132zm.324-.912c-1.08 0-1.548-.72-1.548-2.22 0-1.428.432-2.376 1.62-2.376.708 0 1.284.324 1.572.54v3.3c-.384.384-1.008.756-1.644.756zm5.184-6.588c.492 0 .78-.288.78-.792s-.288-.78-.78-.78c-.492 0-.768.276-.768.78s.276.792.768.792zm.528 7.356v-6.168h-1.092V117h1.092zm2.988 0v-4.596c.324-.288 1.092-.744 1.8-.744.84 0 1.152.468 1.152 1.32V117h1.092v-4.188c0-1.392-.576-2.112-1.896-2.112-.852 0-1.62.384-2.22.864l-.06-.732h-.96V117h1.092zm7.416.144c.864 0 1.5-.276 1.98-.756.06.396.336.732.948.732.3 0 .612-.072.852-.192l-.048-.684c-.156.048-.264.072-.372.072-.312 0-.372-.144-.372-.48v-3.012c0-1.536-.684-2.124-2.208-2.124-1.428 0-2.172.54-2.364 1.692l.96.18c.132-.684.456-1.02 1.308-1.02 1.008 0 1.224.48 1.224 1.26v.6c-.168-.012-.348-.024-.54-.024-1.74 0-3.192.456-3.192 2.1 0 .6.264 1.656 1.824 1.656zm.336-.852c-.84 0-1.032-.456-1.032-.984 0-1.056 1.14-1.14 1.992-1.14.228 0 .456.012.624.036v1.392c-.336.36-.948.696-1.584.696zm6.396.852c.576 0 1.212-.204 1.512-.408l-.192-.792c-.264.144-.708.3-1.08.3-.744 0-.888-.36-.888-1.008v-3.528h1.704v-.876h-1.704v-1.956l-1.092.168v1.788h-.948v.876h.948v3.672c0 1.236.588 1.764 1.74 1.764zm3.18-7.5c.492 0 .78-.288.78-.792s-.288-.78-.78-.78c-.492 0-.768.276-.768.78s.276.792.768.792zm.528 7.356v-6.168h-1.092V117h1.092zm2.988 0v-4.596c.324-.288 1.092-.744 1.8-.744.84 0 1.152.468 1.152 1.32V117h1.092v-4.188c0-1.392-.576-2.112-1.896-2.112-.852 0-1.62.384-2.22.864l-.06-.732h-.96V117h1.092zm8.076 2.712c1.548 0 3.168-.456 3.168-1.968 0-1.212-.744-1.524-2.016-1.608l-1.716-.12c-.66-.048-.792-.228-.792-.468 0-.252.216-.42.384-.576.312.108.696.144 1.104.144 1.416 0 2.52-.816 2.52-2.208 0-.504-.156-.996-.456-1.344.312-.096.804-.156 1.176-.132v-.876c-.18-.06-.348-.096-.54-.096-.456 0-.78.36-.972.804-.408-.408-1.032-.564-1.788-.564-1.596 0-2.616.912-2.616 2.268 0 .792.348 1.428.912 1.728-.432.336-.816.684-.816 1.212 0 .444.252.684.672.852v.012c-.504.24-.996.72-.996 1.416 0 .732.468 1.524 2.772 1.524zm.084-5.496c-1.092 0-1.536-.516-1.536-1.32 0-.948.696-1.32 1.56-1.32.924 0 1.488.42 1.488 1.344 0 .828-.612 1.296-1.512 1.296zm.048 4.632c-1.392 0-1.812-.348-1.812-.864 0-.408.216-.66.684-.972l2.004.12c.84.06 1.032.3 1.032.744 0 .648-.636.972-1.908.972zm10.32-1.704c1.524 0 3.096-.648 3.396-2.568l-.996-.204c-.276 1.224-.948 1.824-2.328 1.824-1.74 0-2.748-1.008-2.748-3.504 0-2.388 1.092-3.576 2.892-3.576 1.428 0 2.04.708 2.208 2.064l1.032-.108c-.132-2.028-1.404-2.916-3.228-2.916-2.472 0-4.044 1.704-4.044 4.632 0 2.604 1.092 4.356 3.816 4.356zm7.32 0c2.076 0 2.916-1.32 2.916-3.348 0-1.836-.804-3.096-2.76-3.096-1.968 0-3 1.248-3 3.24 0 1.824.708 3.204 2.844 3.204zm.06-.876c-1.2 0-1.776-.744-1.776-2.376 0-1.644.732-2.292 1.824-2.292 1.068 0 1.668.564 1.668 2.268 0 1.752-.648 2.4-1.716 2.4zm5.508.732v-4.596c.324-.288 1.092-.744 1.8-.744.84 0 1.152.468 1.152 1.32V117h1.092v-4.188c0-1.392-.576-2.112-1.896-2.112-.852 0-1.62.384-2.22.864l-.06-.732h-.96V117h1.092zm6.468-7.452c.492 0 .768-.288.768-.792 0-.492-.276-.78-.768-.78s-.78.288-.78.78c0 .504.288.792.78.792zm-1.236 10.128c1.116 0 1.752-.564 1.752-1.872v-6.972h-1.092v6.924c0 .732-.312.972-.804.972-.3 0-.66-.084-.9-.18l-.12.888c.216.132.768.24 1.164.24zm5.484-2.556c.852 0 1.584-.336 2.184-.828l.072.708h.948v-6.168h-1.092v4.584c-.324.3-1.08.756-1.788.756-.912 0-1.116-.468-1.116-1.32v-4.02h-1.092v4.188c0 1.38.576 2.1 1.884 2.1zm6.204-.12v-4.596c.324-.288 1.092-.744 1.8-.744.84 0 1.152.468 1.152 1.32V117h1.092v-4.188c0-1.392-.576-2.112-1.896-2.112-.852 0-1.62.384-2.22.864l-.06-.732h-.96V117h1.092zm8.34.144c1.236 0 2.328-.6 2.532-2.028l-.96-.204c-.156.912-.696 1.32-1.536 1.32-.984 0-1.728-.552-1.728-2.388 0-1.752.876-2.232 1.764-2.232.864 0 1.284.468 1.38 1.38l1.044-.144c-.084-1.428-.996-2.148-2.376-2.148-1.848 0-2.952 1.128-2.952 3.276 0 1.848.792 3.168 2.832 3.168zm5.94 0c.576 0 1.212-.204 1.512-.408l-.192-.792c-.264.144-.708.3-1.08.3-.744 0-.888-.36-.888-1.008v-3.528h1.704v-.876h-1.704v-1.956l-1.092.168v1.788h-.948v.876h.948v3.672c0 1.236.588 1.764 1.74 1.764zm3.18-7.5c.492 0 .78-.288.78-.792s-.288-.78-.78-.78c-.492 0-.768.276-.768.78s.276.792.768.792zm.528 7.356v-6.168h-1.092V117h1.092zm4.356.144c2.076 0 2.916-1.32 2.916-3.348 0-1.836-.804-3.096-2.76-3.096-1.968 0-3 1.248-3 3.24 0 1.824.708 3.204 2.844 3.204zm.06-.876c-1.2 0-1.776-.744-1.776-2.376 0-1.644.732-2.292 1.824-2.292 1.068 0 1.668.564 1.668 2.268 0 1.752-.648 2.4-1.716 2.4zm5.508.732v-4.596c.324-.288 1.092-.744 1.8-.744.84 0 1.152.468 1.152 1.32V117h1.092v-4.188c0-1.392-.576-2.112-1.896-2.112-.852 0-1.62.384-2.22.864l-.06-.732h-.96V117h1.092zm7.848.144c1.5 0 2.412-.696 2.412-1.872 0-1.38-1.068-1.608-2.196-1.848-.864-.18-1.368-.36-1.368-.996 0-.468.288-.864 1.188-.864.9 0 1.14.432 1.284 1.14l.984-.216c-.192-1.092-.792-1.788-2.256-1.788-1.248 0-2.28.612-2.28 1.86 0 1.44 1.212 1.656 2.22 1.86.84.168 1.344.288 1.344.972 0 .66-.54.888-1.284.888-1.092 0-1.368-.528-1.536-1.188l-.972.264c.192 1.236 1.044 1.788 2.46 1.788zM147.244 193v-3.156h1.32c2.088 0 3.312-.864 3.312-2.928 0-1.38-.672-2.604-2.892-2.604h-2.832V193h1.092zm1.236-4.104h-1.236v-3.648h1.416c1.392 0 2.076.48 2.076 1.728 0 1.62-.996 1.92-2.256 1.92zm5.892 4.248c.864 0 1.5-.276 1.98-.756.06.396.336.732.948.732.3 0 .612-.072.852-.192l-.048-.684c-.156.048-.264.072-.372.072-.312 0-.372-.144-.372-.48v-3.012c0-1.536-.684-2.124-2.208-2.124-1.428 0-2.172.54-2.364 1.692l.96.18c.132-.684.456-1.02 1.308-1.02 1.008 0 1.224.48 1.224 1.26v.6c-.168-.012-.348-.024-.54-.024-1.74 0-3.192.456-3.192 2.1 0 .6.264 1.656 1.824 1.656zm.336-.852c-.84 0-1.032-.456-1.032-.984 0-1.056 1.14-1.14 1.992-1.14.228 0 .456.012.624.036v1.392c-.336.36-.948.696-1.584.696zm5.772.708v-4.488c.504-.468 1.416-.78 2.184-.672v-1.128l-.228-.012c-.864 0-1.512.288-2.052 1.02l-.084-.888h-.912V193h1.092zm5.208.144c.576 0 1.212-.204 1.512-.408l-.192-.792c-.264.144-.708.3-1.08.3-.744 0-.888-.36-.888-1.008v-3.528h1.704v-.876h-1.704v-1.956l-1.092.168v1.788H163v.876h.948v3.672c0 1.236.588 1.764 1.74 1.764zm3.18-7.5c.492 0 .78-.288.78-.792s-.288-.78-.78-.78c-.492 0-.768.276-.768.78s.276.792.768.792zm.528 7.356v-6.168h-1.092V193h1.092zm4.344.144c1.236 0 2.328-.6 2.532-2.028l-.96-.204c-.156.912-.696 1.32-1.536 1.32-.984 0-1.728-.552-1.728-2.388 0-1.752.876-2.232 1.764-2.232.864 0 1.284.468 1.38 1.38l1.044-.144c-.084-1.428-.996-2.148-2.376-2.148-1.848 0-2.952 1.128-2.952 3.276 0 1.848.792 3.168 2.832 3.168zm4.572-7.5c.492 0 .78-.288.78-.792s-.288-.78-.78-.78c-.492 0-.768.276-.768.78s.276.792.768.792zm.528 7.356v-6.168h-1.092V193h1.092zm2.952 2.544v-3c.444.336 1.032.6 1.776.6 1.38 0 2.568-.96 2.568-3.372 0-2.268-.96-3.072-2.256-3.072-.876 0-1.572.336-2.136.84l-.06-.708h-.948v8.712h1.056zm1.62-3.324c-.708 0-1.32-.408-1.584-.612v-3.216c.36-.36 1.044-.78 1.728-.78.984 0 1.464.6 1.464 2.148 0 1.476-.432 2.46-1.608 2.46zm4.86-6.576c.492 0 .78-.288.78-.792s-.288-.78-.78-.78c-.492 0-.768.276-.768.78s.276.792.768.792zM188.8 193v-6.168h-1.092V193h1.092zm3.42.144c.864 0 1.5-.276 1.98-.756.06.396.336.732.948.732.3 0 .612-.072.852-.192l-.048-.684c-.156.048-.264.072-.372.072-.312 0-.372-.144-.372-.48v-3.012c0-1.536-.684-2.124-2.208-2.124-1.428 0-2.172.54-2.364 1.692l.96.18c.132-.684.456-1.02 1.308-1.02 1.008 0 1.224.48 1.224 1.26v.6c-.168-.012-.348-.024-.54-.024-1.74 0-3.192.456-3.192 2.1 0 .6.264 1.656 1.824 1.656zm.336-.852c-.84 0-1.032-.456-1.032-.984 0-1.056 1.14-1.14 1.992-1.14.228 0 .456.012.624.036v1.392c-.336.36-.948.696-1.584.696zm5.772.708v-9.06h-1.092V193h1.092zm5.736 0v-3.156h1.32c2.088 0 3.312-.864 3.312-2.928 0-1.38-.672-2.604-2.892-2.604h-2.832V193h1.092zm1.236-4.104h-1.236v-3.648h1.416c1.392 0 2.076.48 2.076 1.728 0 1.62-.996 1.92-2.256 1.92zm5.976 4.104v-4.596c.324-.288 1.092-.744 1.8-.744.84 0 1.152.468 1.152 1.32V193h1.092v-4.188c0-1.392-.576-2.112-1.884-2.112-.864 0-1.572.36-2.172.828v-3.588h-1.08V193h1.092zm6.984 0v-4.488c.504-.468 1.416-.78 2.184-.672v-1.128l-.228-.012c-.864 0-1.512.288-2.052 1.02l-.084-.888h-.912V193h1.092zm4.536.144c.864 0 1.5-.276 1.98-.756.06.396.336.732.948.732.3 0 .612-.072.852-.192l-.048-.684c-.156.048-.264.072-.372.072-.312 0-.372-.144-.372-.48v-3.012c0-1.536-.684-2.124-2.208-2.124-1.428 0-2.172.54-2.364 1.692l.96.18c.132-.684.456-1.02 1.308-1.02 1.008 0 1.224.48 1.224 1.26v.6c-.168-.012-.348-.024-.54-.024-1.74 0-3.192.456-3.192 2.1 0 .6.264 1.656 1.824 1.656zm.336-.852c-.84 0-1.032-.456-1.032-.984 0-1.056 1.14-1.14 1.992-1.14.228 0 .456.012.624.036v1.392c-.336.36-.948.696-1.584.696zm6.636.852c1.5 0 2.412-.696 2.412-1.872 0-1.38-1.068-1.608-2.196-1.848-.864-.18-1.368-.36-1.368-.996 0-.468.288-.864 1.188-.864.9 0 1.14.432 1.284 1.14l.984-.216c-.192-1.092-.792-1.788-2.256-1.788-1.248 0-2.28.612-2.28 1.86 0 1.44 1.212 1.656 2.22 1.86.84.168 1.344.288 1.344.972 0 .66-.54.888-1.284.888-1.092 0-1.368-.528-1.536-1.188l-.972.264c.192 1.236 1.044 1.788 2.46 1.788zm6.348 0c1.236 0 2.196-.588 2.448-1.788l-.96-.216c-.168.696-.576 1.092-1.452 1.092-.984 0-1.68-.492-1.728-2.064h4.152c.036-.288.048-.564.048-.804 0-1.524-.72-2.664-2.448-2.664-1.584 0-2.904.972-2.904 3.228 0 1.692.66 3.216 2.844 3.216zm1.38-3.84h-3.06c.06-1.224.852-1.716 1.668-1.716.972 0 1.392.612 1.392 1.716zm4.644 3.84c1.5 0 2.412-.696 2.412-1.872 0-1.38-1.068-1.608-2.196-1.848-.864-.18-1.368-.36-1.368-.996 0-.468.288-.864 1.188-.864.9 0 1.14.432 1.284 1.14l.984-.216c-.192-1.092-.792-1.788-2.256-1.788-1.248 0-2.28.612-2.28 1.86 0 1.44 1.212 1.656 2.22 1.86.84.168 1.344.288 1.344.972 0 .66-.54.888-1.284.888-1.092 0-1.368-.528-1.536-1.188l-.972.264c.192 1.236 1.044 1.788 2.46 1.788zM272.244 193v-3.156h1.32c2.088 0 3.312-.864 3.312-2.928 0-1.38-.672-2.604-2.892-2.604h-2.832V193h1.092zm1.236-4.104h-1.236v-3.648h1.416c1.392 0 2.076.48 2.076 1.728 0 1.62-.996 1.92-2.256 1.92zm5.892 4.248c.864 0 1.5-.276 1.98-.756.06.396.336.732.948.732.3 0 .612-.072.852-.192l-.048-.684c-.156.048-.264.072-.372.072-.312 0-.372-.144-.372-.48v-3.012c0-1.536-.684-2.124-2.208-2.124-1.428 0-2.172.54-2.364 1.692l.96.18c.132-.684.456-1.02 1.308-1.02 1.008 0 1.224.48 1.224 1.26v.6c-.168-.012-.348-.024-.54-.024-1.74 0-3.192.456-3.192 2.1 0 .6.264 1.656 1.824 1.656zm.336-.852c-.84 0-1.032-.456-1.032-.984 0-1.056 1.14-1.14 1.992-1.14.228 0 .456.012.624.036v1.392c-.336.36-.948.696-1.584.696zm5.772.708v-4.488c.504-.468 1.416-.78 2.184-.672v-1.128l-.228-.012c-.864 0-1.512.288-2.052 1.02l-.084-.888h-.912V193h1.092zm4.536.144c.864 0 1.5-.276 1.98-.756.06.396.336.732.948.732.3 0 .612-.072.852-.192l-.048-.684c-.156.048-.264.072-.372.072-.312 0-.372-.144-.372-.48v-3.012c0-1.536-.684-2.124-2.208-2.124-1.428 0-2.172.54-2.364 1.692l.96.18c.132-.684.456-1.02 1.308-1.02 1.008 0 1.224.48 1.224 1.26v.6c-.168-.012-.348-.024-.54-.024-1.74 0-3.192.456-3.192 2.1 0 .6.264 1.656 1.824 1.656zm.336-.852c-.84 0-1.032-.456-1.032-.984 0-1.056 1.14-1.14 1.992-1.14.228 0 .456.012.624.036v1.392c-.336.36-.948.696-1.584.696zm5.772.708v-9.06h-1.092V193h1.092zm2.988 0v-9.06h-1.092V193h1.092zm4.356.144c1.236 0 2.196-.588 2.448-1.788l-.96-.216c-.168.696-.576 1.092-1.452 1.092-.984 0-1.68-.492-1.728-2.064h4.152c.036-.288.048-.564.048-.804 0-1.524-.72-2.664-2.448-2.664-1.584 0-2.904.972-2.904 3.228 0 1.692.66 3.216 2.844 3.216zm1.38-3.84h-3.06c.06-1.224.852-1.716 1.668-1.716.972 0 1.392.612 1.392 1.716zm3.804 3.696v-9.06h-1.092V193h1.092zm6.924.144c1.608 0 3.072-.72 3.072-2.556 0-1.68-1.38-2.088-2.652-2.46-1.08-.324-2.076-.624-2.076-1.68 0-.768.48-1.356 1.812-1.356 1.344 0 1.68.804 1.812 1.632l1.032-.12c-.18-1.86-1.332-2.448-2.856-2.448-1.68 0-2.928.912-2.928 2.4 0 1.788 1.404 2.16 2.688 2.52 1.068.3 2.04.588 2.04 1.668 0 1.152-.996 1.464-1.932 1.464-1.488 0-1.92-.804-2.124-1.728l-1.056.156c.228 1.788 1.356 2.508 3.168 2.508zm6.468 0c.576 0 1.212-.204 1.512-.408l-.192-.792c-.264.144-.708.3-1.08.3-.744 0-.888-.36-.888-1.008v-3.528h1.704v-.876h-1.704v-1.956l-1.092.168v1.788h-.948v.876h.948v3.672c0 1.236.588 1.764 1.74 1.764zm3.708-.144v-4.488c.504-.468 1.416-.78 2.184-.672v-1.128l-.228-.012c-.864 0-1.512.288-2.052 1.02l-.084-.888h-.912V193h1.092zm5.136.12c.852 0 1.584-.336 2.184-.828l.072.708h.948v-6.168H333v4.584c-.324.3-1.08.756-1.788.756-.912 0-1.116-.468-1.116-1.32v-4.02h-1.092v4.188c0 1.38.576 2.1 1.884 2.1zm7.56.024c1.236 0 2.328-.6 2.532-2.028l-.96-.204c-.156.912-.696 1.32-1.536 1.32-.984 0-1.728-.552-1.728-2.388 0-1.752.876-2.232 1.764-2.232.864 0 1.284.468 1.38 1.38l1.044-.144c-.084-1.428-.996-2.148-2.376-2.148-1.848 0-2.952 1.128-2.952 3.276 0 1.848.792 3.168 2.832 3.168zm5.94 0c.576 0 1.212-.204 1.512-.408l-.192-.792c-.264.144-.708.3-1.08.3-.744 0-.888-.36-.888-1.008v-3.528h1.704v-.876h-1.704v-1.956l-1.092.168v1.788h-.948v.876h.948v3.672c0 1.236.588 1.764 1.74 1.764zm4.272-.024c.852 0 1.584-.336 2.184-.828l.072.708h.948v-6.168h-1.092v4.584c-.324.3-1.08.756-1.788.756-.912 0-1.116-.468-1.116-1.32v-4.02h-1.092v4.188c0 1.38.576 2.1 1.884 2.1zm6.204-.12v-4.488c.504-.468 1.416-.78 2.184-.672v-1.128l-.228-.012c-.864 0-1.512.288-2.052 1.02l-.084-.888h-.912V193h1.092zm5.568.144c1.236 0 2.196-.588 2.448-1.788l-.96-.216c-.168.696-.576 1.092-1.452 1.092-.984 0-1.68-.492-1.728-2.064h4.152c.036-.288.048-.564.048-.804 0-1.524-.72-2.664-2.448-2.664-1.584 0-2.904.972-2.904 3.228 0 1.692.66 3.216 2.844 3.216zm1.38-3.84h-3.06c.06-1.224.852-1.716 1.668-1.716.972 0 1.392.612 1.392 1.716zM36.416 155.144c1.524 0 3.096-.648 3.396-2.568l-.996-.204c-.276 1.224-.948 1.824-2.328 1.824-1.74 0-2.748-1.008-2.748-3.504 0-2.388 1.092-3.576 2.892-3.576 1.428 0 2.04.708 2.208 2.064l1.032-.108c-.132-2.028-1.404-2.916-3.228-2.916-2.472 0-4.044 1.704-4.044 4.632 0 2.604 1.092 4.356 3.816 4.356zm7.32 0c2.076 0 2.916-1.32 2.916-3.348 0-1.836-.804-3.096-2.76-3.096-1.968 0-3 1.248-3 3.24 0 1.824.708 3.204 2.844 3.204zm.06-.876c-1.2 0-1.776-.744-1.776-2.376 0-1.644.732-2.292 1.824-2.292 1.068 0 1.668.564 1.668 2.268 0 1.752-.648 2.4-1.716 2.4zm5.508.732v-4.596c.324-.288 1.092-.744 1.8-.744.84 0 1.152.468 1.152 1.32V155h1.092v-4.188c0-1.392-.576-2.112-1.896-2.112-.852 0-1.62.384-2.22.864l-.06-.732h-.96V155h1.092zm6.468-7.452c.492 0 .768-.288.768-.792 0-.492-.276-.78-.768-.78s-.78.288-.78.78c0 .504.288.792.78.792zm-1.236 10.128c1.116 0 1.752-.564 1.752-1.872v-6.972h-1.092v6.924c0 .732-.312.972-.804.972-.3 0-.66-.084-.9-.18l-.12.888c.216.132.768.24 1.164.24zm5.484-2.556c.852 0 1.584-.336 2.184-.828l.072.708h.948v-6.168h-1.092v4.584c-.324.3-1.08.756-1.788.756-.912 0-1.116-.468-1.116-1.32v-4.02h-1.092v4.188c0 1.38.576 2.1 1.884 2.1zm6.204-.12v-4.596c.324-.288 1.092-.744 1.8-.744.84 0 1.152.468 1.152 1.32V155h1.092v-4.188c0-1.392-.576-2.112-1.896-2.112-.852 0-1.62.384-2.22.864l-.06-.732h-.96V155h1.092zm8.34.144c1.236 0 2.328-.6 2.532-2.028l-.96-.204c-.156.912-.696 1.32-1.536 1.32-.984 0-1.728-.552-1.728-2.388 0-1.752.876-2.232 1.764-2.232.864 0 1.284.468 1.38 1.38l1.044-.144c-.084-1.428-.996-2.148-2.376-2.148-1.848 0-2.952 1.128-2.952 3.276 0 1.848.792 3.168 2.832 3.168zm5.94 0c.576 0 1.212-.204 1.512-.408l-.192-.792c-.264.144-.708.3-1.08.3-.744 0-.888-.36-.888-1.008v-3.528h1.704v-.876h-1.704v-1.956l-1.092.168v1.788h-.948v.876h.948v3.672c0 1.236.588 1.764 1.74 1.764zm3.18-7.5c.492 0 .78-.288.78-.792s-.288-.78-.78-.78c-.492 0-.768.276-.768.78s.276.792.768.792zm.528 7.356v-6.168H83.12V155h1.092zm4.596 0l2.316-6.168h-1.116l-1.788 5.076h-.012l-1.812-5.076h-1.188L87.56 155h1.248zm5.58.144c1.236 0 2.196-.588 2.448-1.788l-.96-.216c-.168.696-.576 1.092-1.452 1.092-.984 0-1.68-.492-1.728-2.064h4.152c.036-.288.048-.564.048-.804 0-1.524-.72-2.664-2.448-2.664-1.584 0-2.904.972-2.904 3.228 0 1.692.66 3.216 2.844 3.216zm1.38-3.84h-3.06c.06-1.224.852-1.716 1.668-1.716.972 0 1.392.612 1.392 1.716zm5.856 3.696l.852-2.58h3.336l.876 2.58h1.212l-3.024-8.688h-1.44L100.508 155h1.116zm3.912-3.528h-2.796l1.392-4.152h.012l1.392 4.152zm5.616 3.672c.888 0 1.512-.336 2.04-.816l.012.012.084.66h.912v-9.06h-1.068v3.336c-.432-.348-1.02-.576-1.728-.576-1.368 0-2.604.876-2.604 3.312 0 2.244.948 3.132 2.352 3.132zm.324-.912c-1.08 0-1.548-.72-1.548-2.22 0-1.428.432-2.376 1.62-2.376.708 0 1.284.324 1.572.54v3.3c-.384.384-1.008.756-1.644.756zm7.32.768l2.316-6.168h-1.116l-1.788 5.076h-.012l-1.812-5.076h-1.188l2.352 6.168h1.248zm5.58.144c1.236 0 2.196-.588 2.448-1.788l-.96-.216c-.168.696-.576 1.092-1.452 1.092-.984 0-1.68-.492-1.728-2.064h4.152c.036-.288.048-.564.048-.804 0-1.524-.72-2.664-2.448-2.664-1.584 0-2.904.972-2.904 3.228 0 1.692.66 3.216 2.844 3.216zm1.38-3.84h-3.06c.06-1.224.852-1.716 1.668-1.716.972 0 1.392.612 1.392 1.716zM129.56 155v-4.488c.504-.468 1.416-.78 2.184-.672v-1.128l-.228-.012c-.864 0-1.512.288-2.052 1.02l-.084-.888h-.912V155h1.092zm6.084.144c1.428 0 2.604-.972 2.604-3.372 0-2.268-.972-3.072-2.244-3.072-.9 0-1.548.336-2.088.816v-3.576h-1.08V155h.948l.06-.54h.012c.444.348 1.056.684 1.788.684zm-.132-.924c-.708 0-1.308-.432-1.584-.636v-3.192c.36-.348 1.044-.768 1.728-.768 1.02 0 1.464.672 1.464 2.136 0 1.5-.444 2.46-1.608 2.46zm6.228.924c1.5 0 2.412-.696 2.412-1.872 0-1.38-1.068-1.608-2.196-1.848-.864-.18-1.368-.36-1.368-.996 0-.468.288-.864 1.188-.864.9 0 1.14.432 1.284 1.14l.984-.216c-.192-1.092-.792-1.788-2.256-1.788-1.248 0-2.28.612-2.28 1.86 0 1.44 1.212 1.656 2.22 1.86.84.168 1.344.288 1.344.972 0 .66-.54.888-1.284.888-1.092 0-1.368-.528-1.536-1.188l-.972.264c.192 1.236 1.044 1.788 2.46 1.788zM170.548 155l.852-2.58h3.336l.876 2.58h1.212l-3.024-8.688h-1.44L169.432 155h1.116zm3.912-3.528h-2.796l1.392-4.152h.012l1.392 4.152zm4.812 6.072v-3c.444.336 1.032.6 1.776.6 1.38 0 2.568-.96 2.568-3.372 0-2.268-.96-3.072-2.256-3.072-.876 0-1.572.336-2.136.84l-.06-.708h-.948v8.712h1.056zm1.62-3.324c-.708 0-1.32-.408-1.584-.612v-3.216c.36-.36 1.044-.78 1.728-.78.984 0 1.464.6 1.464 2.148 0 1.476-.432 2.46-1.608 2.46zm5.352 3.324v-3c.444.336 1.032.6 1.776.6 1.38 0 2.568-.96 2.568-3.372 0-2.268-.96-3.072-2.256-3.072-.876 0-1.572.336-2.136.84l-.06-.708h-.948v8.712h1.056zm1.62-3.324c-.708 0-1.32-.408-1.584-.612v-3.216c.36-.36 1.044-.78 1.728-.78.984 0 1.464.6 1.464 2.148 0 1.476-.432 2.46-1.608 2.46zm6.756.924c2.076 0 2.916-1.32 2.916-3.348 0-1.836-.804-3.096-2.76-3.096-1.968 0-3 1.248-3 3.24 0 1.824.708 3.204 2.844 3.204zm.06-.876c-1.2 0-1.776-.744-1.776-2.376 0-1.644.732-2.292 1.824-2.292 1.068 0 1.668.564 1.668 2.268 0 1.752-.648 2.4-1.716 2.4zm6.348.876c1.5 0 2.412-.696 2.412-1.872 0-1.38-1.068-1.608-2.196-1.848-.864-.18-1.368-.36-1.368-.996 0-.468.288-.864 1.188-.864.9 0 1.14.432 1.284 1.14l.984-.216c-.192-1.092-.792-1.788-2.256-1.788-1.248 0-2.28.612-2.28 1.86 0 1.44 1.212 1.656 2.22 1.86.84.168 1.344.288 1.344.972 0 .66-.54.888-1.284.888-1.092 0-1.368-.528-1.536-1.188l-.972.264c.192 1.236 1.044 1.788 2.46 1.788zm4.452-7.5c.492 0 .78-.288.78-.792s-.288-.78-.78-.78c-.492 0-.768.276-.768.78s.276.792.768.792zm.528 7.356v-6.168h-1.092V155h1.092zm3.828.144c.576 0 1.212-.204 1.512-.408l-.192-.792c-.264.144-.708.3-1.08.3-.744 0-.888-.36-.888-1.008v-3.528h1.704v-.876h-1.704v-1.956l-1.092.168v1.788h-.948v.876h.948v3.672c0 1.236.588 1.764 1.74 1.764zm3.18-7.5c.492 0 .78-.288.78-.792s-.288-.78-.78-.78c-.492 0-.768.276-.768.78s.276.792.768.792zm.528 7.356v-6.168h-1.092V155h1.092zm4.596 0l2.316-6.168h-1.116l-1.788 5.076h-.012l-1.812-5.076h-1.188l2.352 6.168h1.248zm5.58.144c1.236 0 2.196-.588 2.448-1.788l-.96-.216c-.168.696-.576 1.092-1.452 1.092-.984 0-1.68-.492-1.728-2.064h4.152c.036-.288.048-.564.048-.804 0-1.524-.72-2.664-2.448-2.664-1.584 0-2.904.972-2.904 3.228 0 1.692.66 3.216 2.844 3.216zm1.38-3.84h-3.06c.06-1.224.852-1.716 1.668-1.716.972 0 1.392.612 1.392 1.716zm6.552 3.696v-3.156h1.32c2.088 0 3.312-.864 3.312-2.928 0-1.38-.672-2.604-2.892-2.604h-2.832V155h1.092zm1.236-4.104h-1.236v-3.648h1.416c1.392 0 2.076.48 2.076 1.728 0 1.62-.996 1.92-2.256 1.92zm5.976 4.104v-4.596c.324-.288 1.092-.744 1.8-.744.84 0 1.152.468 1.152 1.32V155h1.092v-4.188c0-1.392-.576-2.112-1.884-2.112-.864 0-1.572.36-2.172.828v-3.588h-1.08V155h1.092zm6.984 0v-4.488c.504-.468 1.416-.78 2.184-.672v-1.128c-.072 0-.156-.012-.228-.012-.864 0-1.512.288-2.052 1.02l-.084-.888h-.912V155h1.092zm4.536.144c.864 0 1.5-.276 1.98-.756.06.396.336.732.948.732.3 0 .612-.072.852-.192l-.048-.684c-.156.048-.264.072-.372.072-.312 0-.372-.144-.372-.48v-3.012c0-1.536-.684-2.124-2.208-2.124-1.428 0-2.172.54-2.364 1.692l.96.18c.132-.684.456-1.02 1.308-1.02 1.008 0 1.224.48 1.224 1.26v.6c-.168-.012-.348-.024-.54-.024-1.74 0-3.192.456-3.192 2.1 0 .6.264 1.656 1.824 1.656zm.336-.852c-.84 0-1.032-.456-1.032-.984 0-1.056 1.14-1.14 1.992-1.14.228 0 .456.012.624.036v1.392c-.336.36-.948.696-1.584.696zm6.636.852c1.5 0 2.412-.696 2.412-1.872 0-1.38-1.068-1.608-2.196-1.848-.864-.18-1.368-.36-1.368-.996 0-.468.288-.864 1.188-.864.9 0 1.14.432 1.284 1.14l.984-.216c-.192-1.092-.792-1.788-2.256-1.788-1.248 0-2.28.612-2.28 1.86 0 1.44 1.212 1.656 2.22 1.86.84.168 1.344.288 1.344.972 0 .66-.54.888-1.284.888-1.092 0-1.368-.528-1.536-1.188l-.972.264c.192 1.236 1.044 1.788 2.46 1.788zm6.348 0c1.236 0 2.196-.588 2.448-1.788l-.96-.216c-.168.696-.576 1.092-1.452 1.092-.984 0-1.68-.492-1.728-2.064h4.152c.036-.288.048-.564.048-.804 0-1.524-.72-2.664-2.448-2.664-1.584 0-2.904.972-2.904 3.228 0 1.692.66 3.216 2.844 3.216zm1.38-3.84h-3.06c.06-1.224.852-1.716 1.668-1.716.972 0 1.392.612 1.392 1.716zm4.644 3.84c1.5 0 2.412-.696 2.412-1.872 0-1.38-1.068-1.608-2.196-1.848-.864-.18-1.368-.36-1.368-.996 0-.468.288-.864 1.188-.864.9 0 1.14.432 1.284 1.14l.984-.216c-.192-1.092-.792-1.788-2.256-1.788-1.248 0-2.28.612-2.28 1.86 0 1.44 1.212 1.656 2.22 1.86.84.168 1.344.288 1.344.972 0 .66-.54.888-1.284.888-1.092 0-1.368-.528-1.536-1.188l-.972.264c.192 1.236 1.044 1.788 2.46 1.788zM34.244 193v-3.612H36.2L38.192 193h1.2l-2.136-3.9c1.008-.348 1.68-1.116 1.68-2.424 0-1.188-.648-2.364-2.808-2.364h-2.976V193h1.092zm1.62-4.536h-1.62v-3.216h1.512c1.248 0 2.04.312 2.04 1.488 0 1.344-.792 1.728-1.932 1.728zm6.996 4.68c1.236 0 2.196-.588 2.448-1.788l-.96-.216c-.168.696-.576 1.092-1.452 1.092-.984 0-1.68-.492-1.728-2.064h4.152c.036-.288.048-.564.048-.804 0-1.524-.72-2.664-2.448-2.664-1.584 0-2.904.972-2.904 3.228 0 1.692.66 3.216 2.844 3.216zm1.38-3.84h-3.06c.06-1.224.852-1.716 1.668-1.716.972 0 1.392.612 1.392 1.716zM48.044 193v-9.06h-1.092V193h1.092zm3.42.144c.864 0 1.5-.276 1.98-.756.06.396.336.732.948.732.3 0 .612-.072.852-.192l-.048-.684c-.156.048-.264.072-.372.072-.312 0-.372-.144-.372-.48v-3.012c0-1.536-.684-2.124-2.208-2.124-1.428 0-2.172.54-2.364 1.692l.96.18c.132-.684.456-1.02 1.308-1.02 1.008 0 1.224.48 1.224 1.26v.6c-.168-.012-.348-.024-.54-.024-1.74 0-3.192.456-3.192 2.1 0 .6.264 1.656 1.824 1.656zm.336-.852c-.84 0-1.032-.456-1.032-.984 0-1.056 1.14-1.14 1.992-1.14.228 0 .456.012.624.036v1.392c-.336.36-.948.696-1.584.696zm6.396.852c.576 0 1.212-.204 1.512-.408l-.192-.792c-.264.144-.708.3-1.08.3-.744 0-.888-.36-.888-1.008v-3.528h1.704v-.876h-1.704v-1.956l-1.092.168v1.788h-.948v.876h.948v3.672c0 1.236.588 1.764 1.74 1.764zm3.18-7.5c.492 0 .78-.288.78-.792s-.288-.78-.78-.78c-.492 0-.768.276-.768.78s.276.792.768.792zm.528 7.356v-6.168h-1.092V193h1.092zm4.596 0l2.316-6.168H67.7l-1.788 5.076H65.9l-1.812-5.076H62.9L65.252 193H66.5zm5.58.144c1.236 0 2.196-.588 2.448-1.788l-.96-.216c-.168.696-.576 1.092-1.452 1.092-.984 0-1.68-.492-1.728-2.064h4.152c.036-.288.048-.564.048-.804 0-1.524-.72-2.664-2.448-2.664-1.584 0-2.904.972-2.904 3.228 0 1.692.66 3.216 2.844 3.216zm1.38-3.84H70.4c.06-1.224.852-1.716 1.668-1.716.972 0 1.392.612 1.392 1.716zm8.724 3.84c1.524 0 3.096-.648 3.396-2.568l-.996-.204c-.276 1.224-.948 1.824-2.328 1.824-1.74 0-2.748-1.008-2.748-3.504 0-2.388 1.092-3.576 2.892-3.576 1.428 0 2.04.708 2.208 2.064l1.032-.108c-.132-2.028-1.404-2.916-3.228-2.916-2.472 0-4.044 1.704-4.044 4.632 0 2.604 1.092 4.356 3.816 4.356zm5.952-.144v-9.06h-1.092V193h1.092zm3.42.144c.864 0 1.5-.276 1.98-.756.06.396.336.732.948.732.3 0 .612-.072.852-.192l-.048-.684c-.156.048-.264.072-.372.072-.312 0-.372-.144-.372-.48v-3.012c0-1.536-.684-2.124-2.208-2.124-1.428 0-2.172.54-2.364 1.692l.96.18c.132-.684.456-1.02 1.308-1.02 1.008 0 1.224.48 1.224 1.26v.6c-.168-.012-.348-.024-.54-.024-1.74 0-3.192.456-3.192 2.1 0 .6.264 1.656 1.824 1.656zm.336-.852c-.84 0-1.032-.456-1.032-.984 0-1.056 1.14-1.14 1.992-1.14.228 0 .456.012.624.036v1.392c-.336.36-.948.696-1.584.696zm6.42.828c.852 0 1.584-.336 2.184-.828l.072.708h.948v-6.168h-1.092v4.584c-.324.3-1.08.756-1.788.756-.912 0-1.116-.468-1.116-1.32v-4.02h-1.092v4.188c0 1.38.576 2.1 1.884 2.1zm7.068.024c1.5 0 2.412-.696 2.412-1.872 0-1.38-1.068-1.608-2.196-1.848-.864-.18-1.368-.36-1.368-.996 0-.468.288-.864 1.188-.864.9 0 1.14.432 1.284 1.14l.984-.216c-.192-1.092-.792-1.788-2.256-1.788-1.248 0-2.28.612-2.28 1.86 0 1.44 1.212 1.656 2.22 1.86.84.168 1.344.288 1.344.972 0 .66-.54.888-1.284.888-1.092 0-1.368-.528-1.536-1.188l-.972.264c.192 1.236 1.044 1.788 2.46 1.788zm6.348 0c1.236 0 2.196-.588 2.448-1.788l-.96-.216c-.168.696-.576 1.092-1.452 1.092-.984 0-1.68-.492-1.728-2.064h4.152c.036-.288.048-.564.048-.804 0-1.524-.72-2.664-2.448-2.664-1.584 0-2.904.972-2.904 3.228 0 1.692.66 3.216 2.844 3.216zm1.38-3.84h-3.06c.06-1.224.852-1.716 1.668-1.716.972 0 1.392.612 1.392 1.716zm4.644 3.84c1.5 0 2.412-.696 2.412-1.872 0-1.38-1.068-1.608-2.196-1.848-.864-.18-1.368-.36-1.368-.996 0-.468.288-.864 1.188-.864.9 0 1.14.432 1.284 1.14l.984-.216c-.192-1.092-.792-1.788-2.256-1.788-1.248 0-2.28.612-2.28 1.86 0 1.44 1.212 1.656 2.22 1.86.84.168 1.344.288 1.344.972 0 .66-.54.888-1.284.888-1.092 0-1.368-.528-1.536-1.188l-.972.264c.192 1.236 1.044 1.788 2.46 1.788zM35.432 41.144c1.608 0 3.072-.72 3.072-2.556 0-1.68-1.38-2.088-2.652-2.46-1.08-.324-2.076-.624-2.076-1.68 0-.768.48-1.356 1.812-1.356 1.344 0 1.68.804 1.812 1.632l1.032-.12c-.18-1.86-1.332-2.448-2.856-2.448-1.68 0-2.928.912-2.928 2.4 0 1.788 1.404 2.16 2.688 2.52 1.068.3 2.04.588 2.04 1.668 0 1.152-.996 1.464-1.932 1.464-1.488 0-1.92-.804-2.124-1.728l-1.056.156c.228 1.788 1.356 2.508 3.168 2.508zm6.396-.024c.852 0 1.584-.336 2.184-.828l.072.708h.948v-6.168H43.94v4.584c-.324.3-1.08.756-1.788.756-.912 0-1.116-.468-1.116-1.32v-4.02h-1.092v4.188c0 1.38.576 2.1 1.884 2.1zm7.92.024c1.428 0 2.604-.972 2.604-3.372 0-2.268-.972-3.072-2.244-3.072-.9 0-1.548.336-2.088.816V31.94h-1.08V41h.948l.06-.54h.012c.444.348 1.056.684 1.788.684zm-.132-.924c-.708 0-1.308-.432-1.584-.636v-3.192c.36-.348 1.044-.768 1.728-.768 1.02 0 1.464.672 1.464 2.136 0 1.5-.444 2.46-1.608 2.46zm4.872-6.672c.492 0 .768-.288.768-.792 0-.492-.276-.78-.768-.78s-.78.288-.78.78c0 .504.288.792.78.792zm-1.236 10.128c1.116 0 1.752-.564 1.752-1.872v-6.972h-1.092v6.924c0 .732-.312.972-.804.972-.3 0-.66-.084-.9-.18l-.12.888c.216.132.768.24 1.164.24zm6.084-2.532c1.236 0 2.196-.588 2.448-1.788l-.96-.216c-.168.696-.576 1.092-1.452 1.092-.984 0-1.68-.492-1.728-2.064h4.152c.036-.288.048-.564.048-.804 0-1.524-.72-2.664-2.448-2.664-1.584 0-2.904.972-2.904 3.228 0 1.692.66 3.216 2.844 3.216zm1.38-3.84h-3.06c.06-1.224.852-1.716 1.668-1.716.972 0 1.392.612 1.392 1.716zm5.16 3.84c1.236 0 2.328-.6 2.532-2.028l-.96-.204c-.156.912-.696 1.32-1.536 1.32-.984 0-1.728-.552-1.728-2.388 0-1.752.876-2.232 1.764-2.232.864 0 1.284.468 1.38 1.38l1.044-.144c-.084-1.428-.996-2.148-2.376-2.148-1.848 0-2.952 1.128-2.952 3.276 0 1.848.792 3.168 2.832 3.168zm5.94 0c.576 0 1.212-.204 1.512-.408l-.192-.792c-.264.144-.708.3-1.08.3-.744 0-.888-.36-.888-1.008v-3.528h1.704v-.876h-1.704v-1.956l-1.092.168v1.788h-.948v.876h.948v3.672c0 1.236.588 1.764 1.74 1.764zm4.776-3.156v-1.044H73.34v1.044h3.252zM80.84 41l2.784-8.688h-1.128l-2.376 7.62h-.012l-2.46-7.62h-1.236L79.34 41h1.5zm5.82.144c1.236 0 2.196-.588 2.448-1.788l-.96-.216c-.168.696-.576 1.092-1.452 1.092-.984 0-1.68-.492-1.728-2.064h4.152c.036-.288.048-.564.048-.804 0-1.524-.72-2.664-2.448-2.664-1.584 0-2.904.972-2.904 3.228 0 1.692.66 3.216 2.844 3.216zm1.38-3.84h-3.06c.06-1.224.852-1.716 1.668-1.716.972 0 1.392.612 1.392 1.716zM91.844 41v-4.488c.504-.468 1.416-.78 2.184-.672v-1.128L93.8 34.7c-.864 0-1.512.288-2.052 1.02l-.084-.888h-.912V41h1.092zm6.084.144c1.428 0 2.604-.972 2.604-3.372 0-2.268-.972-3.072-2.244-3.072-.9 0-1.548.336-2.088.816V31.94h-1.08V41h.948l.06-.54h.012c.444.348 1.056.684 1.788.684zm-.132-.924c-.708 0-1.308-.432-1.584-.636v-3.192c.36-.348 1.044-.768 1.728-.768 1.02 0 1.464.672 1.464 2.136 0 1.5-.444 2.46-1.608 2.46zm7.44.78l.852-2.58h3.336L110.3 41h1.212l-3.024-8.688h-1.44L104.12 41h1.116zm3.912-3.528h-2.796l1.392-4.152h.012l1.392 4.152zm5.94 6.24c1.548 0 3.168-.456 3.168-1.968 0-1.212-.744-1.524-2.016-1.608l-1.716-.12c-.66-.048-.792-.228-.792-.468 0-.252.216-.42.384-.576.312.108.696.144 1.104.144 1.416 0 2.52-.816 2.52-2.208 0-.504-.156-.996-.456-1.344.312-.096.804-.156 1.176-.132v-.876c-.18-.06-.348-.096-.54-.096-.456 0-.78.36-.972.804-.408-.408-1.032-.564-1.788-.564-1.596 0-2.616.912-2.616 2.268 0 .792.348 1.428.912 1.728-.432.336-.816.684-.816 1.212 0 .444.252.684.672.852v.012c-.504.24-.996.72-.996 1.416 0 .732.468 1.524 2.772 1.524zm.084-5.496c-1.092 0-1.536-.516-1.536-1.32 0-.948.696-1.32 1.56-1.32.924 0 1.488.42 1.488 1.344 0 .828-.612 1.296-1.512 1.296zm.048 4.632c-1.392 0-1.812-.348-1.812-.864 0-.408.216-.66.684-.972l2.004.12c.84.06 1.032.3 1.032.744 0 .648-.636.972-1.908.972zm5.4-1.848v-4.488c.504-.468 1.416-.78 2.184-.672v-1.128l-.228-.012c-.864 0-1.512.288-2.052 1.02l-.084-.888h-.912V41h1.092zm5.568.144c1.236 0 2.196-.588 2.448-1.788l-.96-.216c-.168.696-.576 1.092-1.452 1.092-.984 0-1.68-.492-1.728-2.064h4.152c.036-.288.048-.564.048-.804 0-1.524-.72-2.664-2.448-2.664-1.584 0-2.904.972-2.904 3.228 0 1.692.66 3.216 2.844 3.216zm1.38-3.84h-3.06c.06-1.224.852-1.716 1.668-1.716.972 0 1.392.612 1.392 1.716zm5.172 3.84c1.236 0 2.196-.588 2.448-1.788l-.96-.216c-.168.696-.576 1.092-1.452 1.092-.984 0-1.68-.492-1.728-2.064h4.152c.036-.288.048-.564.048-.804 0-1.524-.72-2.664-2.448-2.664-1.584 0-2.904.972-2.904 3.228 0 1.692.66 3.216 2.844 3.216zm1.38-3.84h-3.06c.06-1.224.852-1.716 1.668-1.716.972 0 1.392.612 1.392 1.716zM137.924 41v-4.608c.324-.3 1.08-.732 1.704-.732.792 0 .96.468.96 1.296V41h1.092v-4.2c0-.156-.012-.312-.024-.456.36-.3 1.068-.684 1.656-.684.792 0 .96.468.96 1.296V41h1.092v-4.2c0-1.38-.456-2.1-1.752-2.1-.84 0-1.536.372-2.136.852-.24-.576-.732-.852-1.548-.852-.84 0-1.488.36-2.1.828l-.06-.696h-.936V41h1.092zm11.76.144c1.236 0 2.196-.588 2.448-1.788l-.96-.216c-.168.696-.576 1.092-1.452 1.092-.984 0-1.68-.492-1.728-2.064h4.152c.036-.288.048-.564.048-.804 0-1.524-.72-2.664-2.448-2.664-1.584 0-2.904.972-2.904 3.228 0 1.692.66 3.216 2.844 3.216zm1.38-3.84h-3.06c.06-1.224.852-1.716 1.668-1.716.972 0 1.392.612 1.392 1.716zM154.868 41v-4.596c.324-.288 1.092-.744 1.8-.744.84 0 1.152.468 1.152 1.32V41h1.092v-4.188c0-1.392-.576-2.112-1.896-2.112-.852 0-1.62.384-2.22.864l-.06-.732h-.96V41h1.092zm7.668.144c.576 0 1.212-.204 1.512-.408l-.192-.792c-.264.144-.708.3-1.08.3-.744 0-.888-.36-.888-1.008v-3.528h1.704v-.876h-1.704v-1.956l-1.092.168v1.788h-.948v.876h.948v3.672c0 1.236.588 1.764 1.74 1.764zM36.416 79.144c1.524 0 3.096-.648 3.396-2.568l-.996-.204c-.276 1.224-.948 1.824-2.328 1.824-1.74 0-2.748-1.008-2.748-3.504 0-2.388 1.092-3.576 2.892-3.576 1.428 0 2.04.708 2.208 2.064l1.032-.108c-.132-2.028-1.404-2.916-3.228-2.916-2.472 0-4.044 1.704-4.044 4.632 0 2.604 1.092 4.356 3.816 4.356zm7.32 0c2.076 0 2.916-1.32 2.916-3.348 0-1.836-.804-3.096-2.76-3.096-1.968 0-3 1.248-3 3.24 0 1.824.708 3.204 2.844 3.204zm.06-.876c-1.2 0-1.776-.744-1.776-2.376 0-1.644.732-2.292 1.824-2.292 1.068 0 1.668.564 1.668 2.268 0 1.752-.648 2.4-1.716 2.4zm5.508.732v-4.608c.324-.3 1.08-.732 1.704-.732.792 0 .96.468.96 1.296V79h1.092v-4.2c0-.156-.012-.312-.024-.456.36-.3 1.068-.684 1.656-.684.792 0 .96.468.96 1.296V79h1.092v-4.2c0-1.38-.456-2.1-1.752-2.1-.84 0-1.536.372-2.136.852-.24-.576-.732-.852-1.548-.852-.84 0-1.488.36-2.1.828l-.06-.696h-.936V79h1.092zm10.356 2.544v-3c.444.336 1.032.6 1.776.6 1.38 0 2.568-.96 2.568-3.372 0-2.268-.96-3.072-2.256-3.072-.876 0-1.572.336-2.136.84l-.06-.708h-.948v8.712h1.056zm1.62-3.324c-.708 0-1.32-.408-1.584-.612v-3.216c.36-.36 1.044-.78 1.728-.78.984 0 1.464.6 1.464 2.148 0 1.476-.432 2.46-1.608 2.46zm6.756.924c2.076 0 2.916-1.32 2.916-3.348 0-1.836-.804-3.096-2.76-3.096-1.968 0-3 1.248-3 3.24 0 1.824.708 3.204 2.844 3.204zm.06-.876c-1.2 0-1.776-.744-1.776-2.376 0-1.644.732-2.292 1.824-2.292 1.068 0 1.668.564 1.668 2.268 0 1.752-.648 2.4-1.716 2.4zm6.276.852c.852 0 1.584-.336 2.184-.828l.072.708h.948v-6.168h-1.092v4.584c-.324.3-1.08.756-1.788.756-.912 0-1.116-.468-1.116-1.32v-4.02h-1.092v4.188c0 1.38.576 2.1 1.884 2.1zm6.204-.12v-4.596c.324-.288 1.092-.744 1.8-.744.84 0 1.152.468 1.152 1.32V79h1.092v-4.188c0-1.392-.576-2.112-1.896-2.112-.852 0-1.62.384-2.22.864l-.06-.732h-.96V79h1.092zm7.872.144c.888 0 1.512-.336 2.04-.816l.012.012.084.66h.912v-9.06h-1.068v3.336c-.432-.348-1.02-.576-1.728-.576-1.368 0-2.604.876-2.604 3.312 0 2.244.948 3.132 2.352 3.132zm.324-.912c-1.08 0-1.548-.72-1.548-2.22 0-1.428.432-2.376 1.62-2.376.708 0 1.284.324 1.572.54v3.3c-.384.384-1.008.756-1.644.756zm9.648.912c1.608 0 3.072-.72 3.072-2.556 0-1.68-1.38-2.088-2.652-2.46-1.08-.324-2.076-.624-2.076-1.68 0-.768.48-1.356 1.812-1.356 1.344 0 1.68.804 1.812 1.632l1.032-.12c-.18-1.86-1.332-2.448-2.856-2.448-1.68 0-2.928.912-2.928 2.4 0 1.788 1.404 2.16 2.688 2.52 1.068.3 2.04.588 2.04 1.668 0 1.152-.996 1.464-1.932 1.464-1.488 0-1.92-.804-2.124-1.728l-1.056.156c.228 1.788 1.356 2.508 3.168 2.508zm6.396-.024c.852 0 1.584-.336 2.184-.828l.072.708h.948v-6.168h-1.092v4.584c-.324.3-1.08.756-1.788.756-.912 0-1.116-.468-1.116-1.32v-4.02h-1.092v4.188c0 1.38.576 2.1 1.884 2.1zm7.92.024c1.428 0 2.604-.972 2.604-3.372 0-2.268-.972-3.072-2.244-3.072-.9 0-1.548.336-2.088.816V69.94h-1.08V79h.948l.06-.54h.012c.444.348 1.056.684 1.788.684zm-.132-.924c-.708 0-1.308-.432-1.584-.636v-3.192c.36-.348 1.044-.768 1.728-.768 1.02 0 1.464.672 1.464 2.136 0 1.5-.444 2.46-1.608 2.46zm4.872-6.672c.492 0 .768-.288.768-.792 0-.492-.276-.78-.768-.78s-.78.288-.78.78c0 .504.288.792.78.792zm-1.236 10.128c1.116 0 1.752-.564 1.752-1.872v-6.972H116.9v6.924c0 .732-.312.972-.804.972-.3 0-.66-.084-.9-.18l-.12.888c.216.132.768.24 1.164.24zm6.084-2.532c1.236 0 2.196-.588 2.448-1.788l-.96-.216c-.168.696-.576 1.092-1.452 1.092-.984 0-1.68-.492-1.728-2.064h4.152c.036-.288.048-.564.048-.804 0-1.524-.72-2.664-2.448-2.664-1.584 0-2.904.972-2.904 3.228 0 1.692.66 3.216 2.844 3.216zm1.38-3.84h-3.06c.06-1.224.852-1.716 1.668-1.716.972 0 1.392.612 1.392 1.716zm5.16 3.84c1.236 0 2.328-.6 2.532-2.028l-.96-.204c-.156.912-.696 1.32-1.536 1.32-.984 0-1.728-.552-1.728-2.388 0-1.752.876-2.232 1.764-2.232.864 0 1.284.468 1.38 1.38l1.044-.144c-.084-1.428-.996-2.148-2.376-2.148-1.848 0-2.952 1.128-2.952 3.276 0 1.848.792 3.168 2.832 3.168zm5.94 0c.576 0 1.212-.204 1.512-.408l-.192-.792c-.264.144-.708.3-1.08.3-.744 0-.888-.36-.888-1.008v-3.528h1.704v-.876h-1.704v-1.956l-1.092.168v1.788h-.948v.876h.948v3.672c0 1.236.588 1.764 1.74 1.764zm4.572 0c1.5 0 2.412-.696 2.412-1.872 0-1.38-1.068-1.608-2.196-1.848-.864-.18-1.368-.36-1.368-.996 0-.468.288-.864 1.188-.864.9 0 1.14.432 1.284 1.14l.984-.216c-.192-1.092-.792-1.788-2.256-1.788-1.248 0-2.28.612-2.28 1.86 0 1.44 1.212 1.656 2.22 1.86.84.168 1.344.288 1.344.972 0 .66-.54.888-1.284.888-1.092 0-1.368-.528-1.536-1.188l-.972.264c.192 1.236 1.044 1.788 2.46 1.788zm3.96 1.404l1.008-2.82h-1.212l-.672 2.712.876.108zm8.64-1.404c2.652 0 4.008-1.836 4.008-4.656 0-2.412-1.2-4.332-3.828-4.332-2.652 0-4.08 1.92-4.08 4.5 0 2.604 1.212 4.488 3.9 4.488zm.06-.972c-1.68 0-2.808-1.176-2.808-3.528 0-2.316 1.212-3.516 2.892-3.516 1.656 0 2.736 1.176 2.736 3.468 0 2.46-1.176 3.576-2.82 3.576zm8.328.972c1.428 0 2.604-.972 2.604-3.372 0-2.268-.972-3.072-2.244-3.072-.9 0-1.548.336-2.088.816V69.94h-1.08V79h.948l.06-.54h.012c.444.348 1.056.684 1.788.684zm-.132-.924c-.708 0-1.308-.432-1.584-.636v-3.192c.36-.348 1.044-.768 1.728-.768 1.02 0 1.464.672 1.464 2.136 0 1.5-.444 2.46-1.608 2.46zm4.872-6.672c.492 0 .768-.288.768-.792 0-.492-.276-.78-.768-.78s-.78.288-.78.78c0 .504.288.792.78.792zm-1.236 10.128c1.116 0 1.752-.564 1.752-1.872v-6.972h-1.092v6.924c0 .732-.312.972-.804.972-.3 0-.66-.084-.9-.18l-.12.888c.216.132.768.24 1.164.24zm6.084-2.532c1.236 0 2.196-.588 2.448-1.788l-.96-.216c-.168.696-.576 1.092-1.452 1.092-.984 0-1.68-.492-1.728-2.064h4.152c.036-.288.048-.564.048-.804 0-1.524-.72-2.664-2.448-2.664-1.584 0-2.904.972-2.904 3.228 0 1.692.66 3.216 2.844 3.216zm1.38-3.84h-3.06c.06-1.224.852-1.716 1.668-1.716.972 0 1.392.612 1.392 1.716zm5.16 3.84c1.236 0 2.328-.6 2.532-2.028l-.96-.204c-.156.912-.696 1.32-1.536 1.32-.984 0-1.728-.552-1.728-2.388 0-1.752.876-2.232 1.764-2.232.864 0 1.284.468 1.38 1.38l1.044-.144c-.084-1.428-.996-2.148-2.376-2.148-1.848 0-2.952 1.128-2.952 3.276 0 1.848.792 3.168 2.832 3.168zm5.94 0c.576 0 1.212-.204 1.512-.408l-.192-.792c-.264.144-.708.3-1.08.3-.744 0-.888-.36-.888-1.008v-3.528h1.704v-.876h-1.704v-1.956l-1.092.168v1.788h-.948v.876h.948v3.672c0 1.236.588 1.764 1.74 1.764zm4.572 0c1.5 0 2.412-.696 2.412-1.872 0-1.38-1.068-1.608-2.196-1.848-.864-.18-1.368-.36-1.368-.996 0-.468.288-.864 1.188-.864.9 0 1.14.432 1.284 1.14l.984-.216c-.192-1.092-.792-1.788-2.256-1.788-1.248 0-2.28.612-2.28 1.86 0 1.44 1.212 1.656 2.22 1.86.84.168 1.344.288 1.344.972 0 .66-.54.888-1.284.888-1.092 0-1.368-.528-1.536-1.188l-.972.264c.192 1.236 1.044 1.788 2.46 1.788zm3.96 1.404l1.008-2.82h-1.212l-.672 2.712.876.108zM197.348 79v-3.156h1.32c2.088 0 3.312-.864 3.312-2.928 0-1.38-.672-2.604-2.892-2.604h-2.832V79h1.092zm1.236-4.104h-1.236v-3.648h1.416c1.392 0 2.076.48 2.076 1.728 0 1.62-.996 1.92-2.256 1.92zM204.56 79v-4.488c.504-.468 1.416-.78 2.184-.672v-1.128c-.072 0-.156-.012-.228-.012-.864 0-1.512.288-2.052 1.02l-.084-.888h-.912V79h1.092zm5.568.144c1.236 0 2.196-.588 2.448-1.788l-.96-.216c-.168.696-.576 1.092-1.452 1.092-.984 0-1.68-.492-1.728-2.064h4.152c.036-.288.048-.564.048-.804 0-1.524-.72-2.664-2.448-2.664-1.584 0-2.904.972-2.904 3.228 0 1.692.66 3.216 2.844 3.216zm1.38-3.84h-3.06c.06-1.224.852-1.716 1.668-1.716.972 0 1.392.612 1.392 1.716zm4.692 3.84c.888 0 1.512-.336 2.04-.816l.012.012.084.66h.912v-9.06h-1.068v3.336c-.432-.348-1.02-.576-1.728-.576-1.368 0-2.604.876-2.604 3.312 0 2.244.948 3.132 2.352 3.132zm.324-.912c-1.08 0-1.548-.72-1.548-2.22 0-1.428.432-2.376 1.62-2.376.708 0 1.284.324 1.572.54v3.3c-.384.384-1.008.756-1.644.756zm5.184-6.588c.492 0 .78-.288.78-.792s-.288-.78-.78-.78c-.492 0-.768.276-.768.78s.276.792.768.792zm.528 7.356v-6.168h-1.092V79h1.092zm4.344.144c1.236 0 2.328-.6 2.532-2.028l-.96-.204c-.156.912-.696 1.32-1.536 1.32-.984 0-1.728-.552-1.728-2.388 0-1.752.876-2.232 1.764-2.232.864 0 1.284.468 1.38 1.38l1.044-.144c-.084-1.428-.996-2.148-2.376-2.148-1.848 0-2.952 1.128-2.952 3.276 0 1.848.792 3.168 2.832 3.168zm5.34 0c.864 0 1.5-.276 1.98-.756.06.396.336.732.948.732.3 0 .612-.072.852-.192l-.048-.684c-.156.048-.264.072-.372.072-.312 0-.372-.144-.372-.48v-3.012c0-1.536-.684-2.124-2.208-2.124-1.428 0-2.172.54-2.364 1.692l.96.18c.132-.684.456-1.02 1.308-1.02 1.008 0 1.224.48 1.224 1.26v.6c-.168-.012-.348-.024-.54-.024-1.74 0-3.192.456-3.192 2.1 0 .6.264 1.656 1.824 1.656zm.336-.852c-.84 0-1.032-.456-1.032-.984 0-1.056 1.14-1.14 1.992-1.14.228 0 .456.012.624.036v1.392c-.336.36-.948.696-1.584.696zm6.396.852c.576 0 1.212-.204 1.512-.408l-.192-.792c-.264.144-.708.3-1.08.3-.744 0-.888-.36-.888-1.008v-3.528h1.704v-.876h-1.704v-1.956l-1.092.168v1.788h-.948v.876h.948v3.672c0 1.236.588 1.764 1.74 1.764zm4.956 0c1.236 0 2.196-.588 2.448-1.788l-.96-.216c-.168.696-.576 1.092-1.452 1.092-.984 0-1.68-.492-1.728-2.064h4.152c.036-.288.048-.564.048-.804 0-1.524-.72-2.664-2.448-2.664-1.584 0-2.904.972-2.904 3.228 0 1.692.66 3.216 2.844 3.216zm1.38-3.84h-3.06c.06-1.224.852-1.716 1.668-1.716.972 0 1.392.612 1.392 1.716zm4.644 3.84c1.5 0 2.412-.696 2.412-1.872 0-1.38-1.068-1.608-2.196-1.848-.864-.18-1.368-.36-1.368-.996 0-.468.288-.864 1.188-.864.9 0 1.14.432 1.284 1.14l.984-.216c-.192-1.092-.792-1.788-2.256-1.788-1.248 0-2.28.612-2.28 1.86 0 1.44 1.212 1.656 2.22 1.86.84.168 1.344.288 1.344.972 0 .66-.54.888-1.284.888-1.092 0-1.368-.528-1.536-1.188l-.972.264c.192 1.236 1.044 1.788 2.46 1.788zM191.244 41v-3.156h1.32c2.088 0 3.312-.864 3.312-2.928 0-1.38-.672-2.604-2.892-2.604h-2.832V41h1.092zm1.236-4.104h-1.236v-3.648h1.416c1.392 0 2.076.48 2.076 1.728 0 1.62-.996 1.92-2.256 1.92zM198.456 41v-4.488c.504-.468 1.416-.78 2.184-.672v-1.128l-.228-.012c-.864 0-1.512.288-2.052 1.02l-.084-.888h-.912V41h1.092zm5.568.144c2.076 0 2.916-1.32 2.916-3.348 0-1.836-.804-3.096-2.76-3.096-1.968 0-3 1.248-3 3.24 0 1.824.708 3.204 2.844 3.204zm.06-.876c-1.2 0-1.776-.744-1.776-2.376 0-1.644.732-2.292 1.824-2.292 1.068 0 1.668.564 1.668 2.268 0 1.752-.648 2.4-1.716 2.4zm5.508.732v-4.596c.324-.288 1.092-.744 1.8-.744.84 0 1.152.468 1.152 1.32V41h1.092v-4.188c0-1.392-.576-2.112-1.896-2.112-.852 0-1.62.384-2.22.864l-.06-.732h-.96V41h1.092zm8.352.144c2.076 0 2.916-1.32 2.916-3.348 0-1.836-.804-3.096-2.76-3.096-1.968 0-3 1.248-3 3.24 0 1.824.708 3.204 2.844 3.204zm.06-.876c-1.2 0-1.776-.744-1.776-2.376 0-1.644.732-2.292 1.824-2.292 1.068 0 1.668.564 1.668 2.268 0 1.752-.648 2.4-1.716 2.4zm6.276.852c.852 0 1.584-.336 2.184-.828l.072.708h.948v-6.168h-1.092v4.584c-.324.3-1.08.756-1.788.756-.912 0-1.116-.468-1.116-1.32v-4.02h-1.092v4.188c0 1.38.576 2.1 1.884 2.1zm6.204-.12v-4.596c.324-.288 1.092-.744 1.8-.744.84 0 1.152.468 1.152 1.32V41h1.092v-4.188c0-1.392-.576-2.112-1.896-2.112-.852 0-1.62.384-2.22.864l-.06-.732h-.96V41h1.092zm8.412-3.012v-1.044h-3.252v1.044h3.252zM240.384 41l.852-2.58h3.336l.876 2.58h1.212l-3.024-8.688h-1.44L239.268 41h1.116zm3.912-3.528H241.5l1.392-4.152h.012l1.392 4.152zM249.144 41v-4.596c.324-.288 1.092-.744 1.8-.744.84 0 1.152.468 1.152 1.32V41h1.092v-4.188c0-1.392-.576-2.112-1.896-2.112-.852 0-1.62.384-2.22.864l-.06-.732h-.96V41h1.092zm7.668.144c.576 0 1.212-.204 1.512-.408l-.192-.792c-.264.144-.708.3-1.08.3-.744 0-.888-.36-.888-1.008v-3.528h1.704v-.876h-1.704v-1.956l-1.092.168v1.788h-.948v.876h.948v3.672c0 1.236.588 1.764 1.74 1.764zm4.956 0c1.236 0 2.196-.588 2.448-1.788l-.96-.216c-.168.696-.576 1.092-1.452 1.092-.984 0-1.68-.492-1.728-2.064h4.152c.036-.288.048-.564.048-.804 0-1.524-.72-2.664-2.448-2.664-1.584 0-2.904.972-2.904 3.228 0 1.692.66 3.216 2.844 3.216zm1.38-3.84h-3.06c.06-1.224.852-1.716 1.668-1.716.972 0 1.392.612 1.392 1.716zm5.16 3.84c1.236 0 2.328-.6 2.532-2.028l-.96-.204c-.156.912-.696 1.32-1.536 1.32-.984 0-1.728-.552-1.728-2.388 0-1.752.876-2.232 1.764-2.232.864 0 1.284.468 1.38 1.38l1.044-.144c-.084-1.428-.996-2.148-2.376-2.148-1.848 0-2.952 1.128-2.952 3.276 0 1.848.792 3.168 2.832 3.168zm6.468 0c1.236 0 2.196-.588 2.448-1.788l-.96-.216c-.168.696-.576 1.092-1.452 1.092-.984 0-1.68-.492-1.728-2.064h4.152c.036-.288.048-.564.048-.804 0-1.524-.72-2.664-2.448-2.664-1.584 0-2.904.972-2.904 3.228 0 1.692.66 3.216 2.844 3.216zm1.38-3.84h-3.06c.06-1.224.852-1.716 1.668-1.716.972 0 1.392.612 1.392 1.716zm4.692 3.84c.888 0 1.512-.336 2.04-.816l.012.012.084.66h.912v-9.06h-1.068v3.336c-.432-.348-1.02-.576-1.728-.576-1.368 0-2.604.876-2.604 3.312 0 2.244.948 3.132 2.352 3.132zm.324-.912c-1.08 0-1.548-.72-1.548-2.22 0-1.428.432-2.376 1.62-2.376.708 0 1.284.324 1.572.54v3.3c-.384.384-1.008.756-1.644.756zm7.08.912c1.236 0 2.196-.588 2.448-1.788l-.96-.216c-.168.696-.576 1.092-1.452 1.092-.984 0-1.68-.492-1.728-2.064h4.152c.036-.288.048-.564.048-.804 0-1.524-.72-2.664-2.448-2.664-1.584 0-2.904.972-2.904 3.228 0 1.692.66 3.216 2.844 3.216zm1.38-3.84h-3.06c.06-1.224.852-1.716 1.668-1.716.972 0 1.392.612 1.392 1.716zM293.436 41v-4.596c.324-.288 1.092-.744 1.8-.744.84 0 1.152.468 1.152 1.32V41h1.092v-4.188c0-1.392-.576-2.112-1.896-2.112-.852 0-1.62.384-2.22.864l-.06-.732h-.96V41h1.092zm7.668.144c.576 0 1.212-.204 1.512-.408l-.192-.792c-.264.144-.708.3-1.08.3-.744 0-.888-.36-.888-1.008v-3.528h1.704v-.876h-1.704v-1.956l-1.092.168v1.788h-.948v.876h.948v3.672c0 1.236.588 1.764 1.74 1.764zm5.76-.144l.852-2.58h3.336l.876 2.58h1.212l-3.024-8.688h-1.44L305.748 41h1.116zm3.912-3.528h-2.796l1.392-4.152h.012l1.392 4.152zm5.94 6.24c1.548 0 3.168-.456 3.168-1.968 0-1.212-.744-1.524-2.016-1.608l-1.716-.12c-.66-.048-.792-.228-.792-.468 0-.252.216-.42.384-.576.312.108.696.144 1.104.144 1.416 0 2.52-.816 2.52-2.208 0-.504-.156-.996-.456-1.344.312-.096.804-.156 1.176-.132v-.876c-.18-.06-.348-.096-.54-.096-.456 0-.78.36-.972.804-.408-.408-1.032-.564-1.788-.564-1.596 0-2.616.912-2.616 2.268 0 .792.348 1.428.912 1.728-.432.336-.816.684-.816 1.212 0 .444.252.684.672.852v.012c-.504.24-.996.72-.996 1.416 0 .732.468 1.524 2.772 1.524zm.084-5.496c-1.092 0-1.536-.516-1.536-1.32 0-.948.696-1.32 1.56-1.32.924 0 1.488.42 1.488 1.344 0 .828-.612 1.296-1.512 1.296zm.048 4.632c-1.392 0-1.812-.348-1.812-.864 0-.408.216-.66.684-.972l2.004.12c.84.06 1.032.3 1.032.744 0 .648-.636.972-1.908.972zm5.4-1.848v-4.488c.504-.468 1.416-.78 2.184-.672v-1.128l-.228-.012c-.864 0-1.512.288-2.052 1.02l-.084-.888h-.912V41h1.092zm5.568.144c1.236 0 2.196-.588 2.448-1.788l-.96-.216c-.168.696-.576 1.092-1.452 1.092-.984 0-1.68-.492-1.728-2.064h4.152c.036-.288.048-.564.048-.804 0-1.524-.72-2.664-2.448-2.664-1.584 0-2.904.972-2.904 3.228 0 1.692.66 3.216 2.844 3.216zm1.38-3.84h-3.06c.06-1.224.852-1.716 1.668-1.716.972 0 1.392.612 1.392 1.716zm5.172 3.84c1.236 0 2.196-.588 2.448-1.788l-.96-.216c-.168.696-.576 1.092-1.452 1.092-.984 0-1.68-.492-1.728-2.064h4.152c.036-.288.048-.564.048-.804 0-1.524-.72-2.664-2.448-2.664-1.584 0-2.904.972-2.904 3.228 0 1.692.66 3.216 2.844 3.216zm1.38-3.84h-3.06c.06-1.224.852-1.716 1.668-1.716.972 0 1.392.612 1.392 1.716zM339.552 41v-4.608c.324-.3 1.08-.732 1.704-.732.792 0 .96.468.96 1.296V41h1.092v-4.2c0-.156-.012-.312-.024-.456.36-.3 1.068-.684 1.656-.684.792 0 .96.468.96 1.296V41h1.092v-4.2c0-1.38-.456-2.1-1.752-2.1-.84 0-1.536.372-2.136.852-.24-.576-.732-.852-1.548-.852-.84 0-1.488.36-2.1.828l-.06-.696h-.936V41h1.092zm11.76.144c1.236 0 2.196-.588 2.448-1.788l-.96-.216c-.168.696-.576 1.092-1.452 1.092-.984 0-1.68-.492-1.728-2.064h4.152c.036-.288.048-.564.048-.804 0-1.524-.72-2.664-2.448-2.664-1.584 0-2.904.972-2.904 3.228 0 1.692.66 3.216 2.844 3.216zm1.38-3.84h-3.06c.06-1.224.852-1.716 1.668-1.716.972 0 1.392.612 1.392 1.716zM356.496 41v-4.596c.324-.288 1.092-.744 1.8-.744.84 0 1.152.468 1.152 1.32V41h1.092v-4.188c0-1.392-.576-2.112-1.896-2.112-.852 0-1.62.384-2.22.864l-.06-.732h-.96V41h1.092zm7.668.144c.576 0 1.212-.204 1.512-.408l-.192-.792c-.264.144-.708.3-1.08.3-.744 0-.888-.36-.888-1.008v-3.528h1.704v-.876h-1.704v-1.956l-1.092.168v1.788h-.948v.876h.948v3.672c0 1.236.588 1.764 1.74 1.764z"/>
    </g>
</svg>
