<svg xmlns="http://www.w3.org/2000/svg" width="447" height="224" viewBox="0 0 447 224">
    <g fill="none" fill-rule="evenodd">
        <path fill="#F8F6F6" d="M0 0H447V224H0z"/>
        <rect width="23" height="143" x="86" y="45" fill="#DFC57F" rx="2"/>
        <rect width="35" height="165" x="117" y="23" fill="#46748D" rx="2"/>
        <path fill="#BCE3F8" d="M121 30H122V182H121zM147 30H148V182H147z" opacity=".476"/>
        <rect width="52" height="143" x="160" y="45" fill="#E96264" rx="2"/>
        <rect width="31" height="152" x="220" y="36" fill="#D2E6E1" rx="2"/>
        <rect width="59" height="165" x="259" y="23" fill="#E2CAE0" rx="2"/>
        <path fill="#FFF" fill-rule="nonzero" d="M130.742 49.153c.191.01.408.014.65.014.243 0 .492-.007.748-.02.256-.013.503-.03.741-.052s.448-.046.63-.072v-.338l-2.093-.767v-2.99h7.722c.026.209.068.416.124.624.056.208.123.416.201.624h.377v-3.562h-.377c-.069.148-.132.312-.188.494-.056.182-.102.373-.137.572h-7.709c-.026-.155-.06-.32-.104-.494-.043-.173-.112-.364-.208-.572h-.377v6.54zm-.156 2.523c0 .277.044.524.13.74.087.217.2.406.338.566.14.16.297.29.475.39.178.1.353.167.526.201v.065c-.286.01-.548.022-.786.04-.238.017-.457.069-.656.156v.325c.043.242.108.496.195.76.086.264.186.505.299.722h.273l.13-.898c.156-.008.303-.017.442-.026.138-.008.303-.013.494-.013.442 0 .903.011 1.384.033.481.022.981.032 1.501.032.243 0 .486-.021.729-.065.242-.043.463-.134.663-.273.199-.138.361-.34.487-.604.126-.264.189-.618.189-1.06 0-.494-.057-.942-.17-1.345-.112-.403-.268-.77-.468-1.099-.268.018-.541.059-.818.124-.278.065-.547.14-.807.227v.339l1.56.61c.061.148.098.297.111.449.013.152.02.288.02.41 0 .26-.059.47-.176.63-.117.16-.282.282-.494.364-.212.082-.468.13-.767.143-.299.013-.635.002-1.007-.032-.035-.607-.085-1.14-.15-1.6-.065-.459-.171-.845-.318-1.157-.148-.311-.35-.548-.605-.708-.256-.16-.583-.24-.981-.24-.52 0-.94.166-1.261.5-.321.334-.481.765-.481 1.294zm.806.52c0-.33.102-.59.306-.78.204-.191.492-.287.864-.287.217 0 .41.035.579.104.169.07.31.196.422.378.113.182.195.433.247.753.052.321.078.733.078 1.235h-1.365c-.086-.026-.192-.073-.318-.143-.126-.069-.25-.16-.37-.273-.122-.112-.226-.25-.313-.416-.086-.164-.13-.355-.13-.572zm-.65 6.942h.325c.07-.122.128-.245.176-.371.048-.126.093-.258.136-.397h3.822c.182.053.356.124.52.215.165.091.312.2.442.325.13.126.234.269.312.429.079.16.118.336.118.526 0 .252-.05.455-.15.611-.1.156-.243.276-.429.358-.186.082-.418.139-.696.169-.277.03-.589.046-.936.046h-3.003c-.043-.174-.093-.323-.149-.449-.056-.126-.11-.232-.162-.319h-.326v2.782h.326c.12-.26.225-.541.311-.845h3.692c.442.104.806.271 1.092.501.286.23.43.553.43.968 0 .26-.046.469-.137.624-.091.156-.221.278-.39.364-.169.087-.375.146-.618.176-.242.03-.52.046-.832.046h-3.237c-.069-.252-.173-.508-.312-.768h-.325v2.795h.325c.156-.277.26-.563.312-.858h3.263c.546 0 .997-.036 1.352-.11.356-.074.637-.189.845-.345.208-.156.354-.353.436-.591.082-.238.123-.518.123-.838 0-.52-.147-.954-.442-1.3-.294-.347-.68-.598-1.157-.755.33-.052.598-.134.806-.247.208-.112.371-.25.488-.416.117-.164.197-.342.24-.532.044-.191.065-.39.065-.599 0-.493-.143-.907-.429-1.241-.286-.334-.632-.57-1.04-.709v-.013h1.47v-.324c-.044-.278-.102-.562-.176-.852-.074-.29-.171-.574-.293-.852h-.338l-.104.858h-5.109c-.043-.156-.09-.307-.143-.455-.052-.147-.108-.281-.169-.402h-.325v2.794zm-.117 11.218c0 1.084.295 1.914.884 2.49.59.576 1.457.864 2.6.864 1.119 0 1.946-.21 2.484-.63.537-.42.806-1.025.806-1.814 0-.424-.13-.812-.39-1.163s-.611-.6-1.053-.748v-.026h4.563v-.325c-.061-.286-.126-.595-.195-.929-.07-.334-.16-.635-.273-.904h-.338l-.104.988h-8.49c-.06.096-.12.224-.181.384s-.113.34-.156.54c-.044.199-.08.407-.111.623-.03.217-.045.434-.045.65zm.572.26c0-.25.024-.49.072-.715.048-.225.115-.415.201-.572h3.627c.434.122.791.312 1.073.573.282.26.422.597.422 1.013 0 .278-.065.514-.195.709-.13.195-.307.355-.533.481-.225.126-.49.217-.793.273-.303.056-.624.084-.962.084-.944 0-1.666-.164-2.164-.494-.498-.329-.748-.78-.748-1.352zm-.61 9.62c0 .2.026.395.078.585.052.191.117.367.195.527.078.16.16.303.247.429.086.126.169.223.247.292l.195-.09c-.061-.165-.102-.365-.124-.599-.022-.233-.032-.428-.032-.584 0-.33.108-.577.325-.742.216-.164.585-.247 1.105-.247h3.77v1.95h.65v-1.95h1.703v-.325c-.061-.147-.133-.296-.215-.448-.082-.152-.167-.284-.253-.397h-1.105c-.087-.364-.234-.71-.442-1.04h-.339v1.04h-4.134c-.658 0-1.135.137-1.43.41-.294.273-.442.67-.442 1.19zm0 5.577c0 .936.294 1.682.884 2.236.589.555 1.43.832 2.522.832.51 0 .975-.058 1.39-.175.417-.117.774-.299 1.073-.546.299-.247.53-.566.696-.956.164-.39.247-.853.247-1.39 0-.46-.076-.878-.228-1.255-.152-.377-.373-.7-.663-.969-.29-.268-.646-.474-1.066-.617-.42-.143-.904-.215-1.45-.215-.51 0-.977.063-1.397.189-.42.126-.78.314-1.079.566-.299.25-.529.567-.689.948-.16.382-.24.832-.24 1.352zm.572.221c0-.364.073-.676.22-.936.148-.26.35-.47.605-.63.256-.16.557-.277.903-.351.347-.074.715-.11 1.105-.11.971 0 1.686.155 2.146.467.459.312.688.724.688 1.235 0 .338-.073.629-.22.871-.148.243-.35.442-.605.599-.256.155-.555.27-.897.344-.342.074-.713.11-1.112.11-.97 0-1.685-.149-2.144-.448-.46-.299-.69-.683-.69-1.15zm-.572 9.373c0 .2.026.395.078.585.052.191.117.367.195.527.078.16.16.303.247.429.086.126.169.223.247.293l.195-.091c-.061-.165-.102-.365-.124-.599-.022-.234-.032-.428-.032-.585 0-.329.108-.576.325-.74.216-.165.585-.248 1.105-.248h3.77v1.95h.65v-1.95h1.703v-.325c-.061-.147-.133-.296-.215-.448-.082-.152-.167-.284-.253-.397h-1.105c-.087-.364-.234-.71-.442-1.04h-.339v1.04h-4.134c-.658 0-1.135.137-1.43.41-.294.273-.442.67-.442 1.19zm.156 5.096h.325c.086-.12.151-.244.194-.37.044-.126.083-.258.117-.397h3.796c.182.052.358.13.527.234.169.105.319.23.448.378.13.147.237.311.319.494.082.181.123.385.123.61 0 .503-.192.85-.578 1.04-.386.191-.916.286-1.593.286h-3.041c-.096-.311-.2-.572-.312-.78h-.326v2.808h.326c.086-.13.151-.268.194-.416.044-.147.083-.294.117-.441h3.29c.537 0 .981-.048 1.332-.143.351-.096.63-.234.838-.417.209-.181.354-.409.436-.682.082-.273.123-.583.123-.93 0-.485-.143-.899-.429-1.241-.286-.342-.632-.605-1.04-.787v-.013h4.59v-.325c-.053-.303-.118-.621-.196-.955-.078-.334-.169-.626-.273-.878h-.338l-.104.988h-8.229c-.069-.303-.173-.589-.311-.858h-.326v2.795zm-.156 8.178c0 .233.028.463.084.689.056.225.132.433.228.623.095.191.208.36.338.508.13.147.268.255.416.324l.208-.181c-.14-.157-.252-.39-.338-.703-.087-.312-.13-.62-.13-.922 0-.373.067-.698.201-.975.134-.278.319-.507.553-.69.234-.181.509-.318.825-.409.316-.091.656-.136 1.02-.136v4.056c.174.034.336.058.488.071.152.013.301.02.449.02.468 0 .86-.072 1.176-.215.316-.143.57-.33.76-.559.191-.23.328-.492.41-.787.082-.294.124-.593.124-.897 0-.936-.29-1.66-.871-2.17-.581-.512-1.426-.767-2.535-.767-.52 0-.988.067-1.404.201-.416.134-.774.331-1.073.592-.299.26-.529.584-.689.975-.16.39-.24.84-.24 1.352zm3.978 1.026v-2.86c.84.053 1.427.209 1.761.469.334.26.5.636.5 1.13 0 .443-.164.767-.493.975-.33.208-.772.313-1.326.313-.07 0-.141-.003-.215-.007-.074-.004-.15-.01-.227-.02zm-3.978 8.164c0 .494.06.936.182 1.327.12.39.294.719.52.988.225.268.498.474.819.617.32.143.676.215 1.066.215.476 0 .875-.107 1.196-.319.32-.212.598-.479.832-.8.234-.32.44-.665.617-1.033.178-.368.362-.713.553-1.034.19-.32.407-.587.65-.799.242-.212.541-.319.897-.319.441 0 .786.135 1.033.403.247.27.37.624.37 1.066 0 .27-.017.523-.052.761-.034.238-.086.435-.156.591l-1.78.52v.338c.147.035.318.07.513.104.195.035.396.068.604.098.208.03.41.056.605.078s.366.032.513.032c.122-.25.224-.595.306-1.033.082-.438.123-.92.123-1.45 0-.407-.054-.775-.162-1.105-.108-.329-.262-.613-.462-.851-.199-.238-.442-.423-.728-.553-.286-.13-.61-.194-.975-.194-.502 0-.92.106-1.254.318-.334.212-.62.477-.858.793-.238.316-.444.66-.618 1.033-.173.373-.35.718-.533 1.034-.182.316-.39.58-.624.793-.234.212-.524.319-.87.319-.26 0-.492-.052-.696-.157-.204-.103-.377-.244-.52-.422-.143-.178-.251-.388-.325-.63-.074-.243-.11-.503-.11-.78 0-.33.036-.577.11-.741.074-.165.162-.3.266-.404l1.911-.532v-.338c-.147-.035-.325-.07-.533-.105-.208-.034-.422-.067-.643-.097-.221-.03-.436-.056-.644-.078-.208-.022-.385-.037-.533-.046-.147.183-.286.49-.416.923-.13.434-.195.923-.195 1.47zm.156 7.242h.325c.138-.287.242-.573.311-.859h9.14v-.325c-.053-.32-.118-.65-.196-.987-.078-.338-.169-.62-.273-.845h-.338l-.104.988h-8.229c-.069-.286-.173-.572-.311-.858h-.326v2.885zm-.156 2.794c0 .278.043.525.13.742.086.216.199.405.338.565.138.16.296.29.474.39.178.1.353.167.527.202v.065c-.286.008-.549.021-.787.038-.238.018-.457.07-.656.157v.325c.043.242.108.496.195.76.086.264.186.505.299.721h.273l.13-.897.442-.025c.138-.01.303-.013.494-.013.442 0 .903.01 1.384.032.481.022.981.033 1.501.033.243 0 .486-.022.729-.065.242-.044.463-.135.663-.274.199-.138.361-.34.487-.604.126-.264.189-.617.189-1.06 0-.493-.057-.942-.17-1.345-.112-.403-.268-.77-.468-1.098-.268.017-.541.058-.818.123-.278.065-.547.14-.807.228v.338l1.56.61c.061.148.098.297.111.449.013.152.02.288.02.41 0 .26-.059.47-.176.63-.117.16-.282.282-.494.364-.212.082-.468.13-.767.143-.299.013-.635.002-1.007-.032-.035-.607-.085-1.14-.15-1.6-.065-.459-.171-.844-.318-1.156-.148-.312-.35-.549-.605-.709-.256-.16-.583-.24-.981-.24-.52 0-.94.166-1.261.5-.321.334-.481.765-.481 1.293zm.806.52c0-.329.101-.589.305-.78.204-.19.492-.285.864-.285.217 0 .41.034.579.104.169.069.31.195.423.377.112.182.195.433.247.754.052.32.078.732.078 1.234h-1.365c-.087-.025-.193-.073-.319-.142-.126-.07-.25-.16-.37-.273-.122-.113-.226-.252-.312-.416-.087-.165-.13-.356-.13-.572zm-.806 6.89c0 .26.047.501.143.722.095.221.218.418.37.592.152.173.32.314.507.422.186.108.37.184.553.228v.052l-1.547.09v.326c.043.277.108.543.195.799.086.256.186.51.299.76h.273l.104-.857h5.915v-.325c-.052-.278-.117-.562-.195-.852-.079-.29-.17-.57-.274-.838h-.338l-.104.845h-3.575c-.45-.148-.816-.354-1.098-.618-.282-.264-.422-.591-.422-.982 0-.268.05-.49.149-.662.1-.174.24-.31.422-.41.182-.1.408-.169.676-.208.27-.039.572-.059.91-.059.633 0 1.27.013 1.911.04.642.025 1.287.038 1.938.038v-.324c-.052-.278-.117-.562-.195-.852-.079-.29-.17-.574-.274-.851h-.338l-.104.858c-.52 0-1.042-.013-1.566-.04-.524-.025-1.06-.038-1.606-.038-.537 0-.981.047-1.332.143-.351.095-.63.234-.839.416-.208.181-.353.405-.435.669-.082.264-.124.57-.124.917zm-2.6 7.566c0 .451.045.865.136 1.242.091.377.221.7.39.969.169.268.38.478.63.63.252.152.534.223.846.215.364-.01.66-.115.89-.319.23-.204.416-.457.559-.76.143-.304.256-.631.338-.982.082-.351.162-.676.24-.975.079-.299.167-.548.267-.747.1-.2.236-.3.41-.3.103 0 .203.029.298.085l.26.15c-.017.13-.03.246-.039.35-.008.105-.013.239-.013.404 0 .84.195 1.48.585 1.917.39.438.897.657 1.521.657.512 0 .923-.109 1.235-.326v1.366l.313.168c.12 0 .25-.015.39-.045.138-.03.255-.08.35-.15-.155-.554-.407-1.087-.753-1.598.19-.217.331-.486.422-.806.091-.321.136-.715.136-1.183 0-.425-.052-.798-.156-1.118-.104-.321-.25-.59-.442-.806-.19-.217-.413-.382-.669-.494-.256-.113-.53-.17-.826-.17-.459 0-.87.133-1.235.397-.364.264-.61.644-.74 1.138-.113-.174-.267-.345-.462-.514-.195-.169-.392-.253-.591-.253-.217 0-.401.062-.553.188-.152.126-.27.284-.358.475-.086-.27-.18-.507-.279-.715-.1-.209-.215-.382-.344-.52-.13-.14-.282-.245-.456-.319-.173-.074-.377-.11-.61-.11-.486 0-.889.24-1.21.721-.32.481-.48 1.194-.48 2.138zm5.785-.038c0-.27.04-.494.123-.676.082-.183.193-.328.331-.436.14-.108.302-.186.488-.234.186-.048.383-.071.591-.071.486 0 .86.104 1.125.312.264.208.397.576.397 1.105 0 .51-.137.873-.41 1.085-.273.212-.643.319-1.111.319-.434 0-.798-.109-1.093-.325-.294-.217-.441-.577-.441-1.08zm-5.213.273c0-.624.114-1.101.344-1.43.23-.33.574-.494 1.034-.494.233 0 .461.052.682.156.221.104.431.32.63.65-.086.277-.164.576-.234.897-.069.32-.156.62-.26.897-.104.277-.238.509-.403.695-.164.186-.385.28-.663.28-.155 0-.303-.026-.441-.078-.14-.052-.258-.141-.358-.267-.1-.126-.18-.295-.24-.507-.061-.212-.092-.479-.092-.8zm2.184 6.46h.325c.086-.12.151-.244.194-.37.044-.126.083-.258.117-.396h3.796c.182.052.358.13.527.233.169.105.319.23.448.378.13.147.237.312.319.494.082.181.123.385.123.61 0 .503-.192.85-.578 1.04-.386.191-.916.287-1.593.287h-3.041c-.096-.313-.2-.572-.312-.78h-.326v2.808h.326c.086-.13.151-.27.194-.416.044-.148.083-.295.117-.442h3.29c.537 0 .981-.048 1.332-.143.351-.096.63-.234.838-.416.209-.183.354-.41.436-.683.082-.273.123-.583.123-.93 0-.485-.143-.899-.429-1.241-.286-.342-.632-.604-1.04-.786v-.013h4.59v-.326c-.053-.303-.118-.621-.196-.955-.078-.334-.169-.626-.273-.877h-.338l-.104.988h-8.229c-.069-.304-.173-.59-.311-.858h-.326v2.795zm-.156 7.359c0 .199.026.394.078.584.052.191.117.367.195.527.078.16.16.303.247.429.086.126.169.223.247.293l.195-.091c-.061-.165-.102-.364-.124-.599-.022-.233-.032-.429-.032-.584 0-.33.108-.577.325-.742.216-.164.585-.246 1.105-.246h3.77v1.95h.65v-1.95h1.703v-.326c-.061-.147-.133-.296-.215-.448-.082-.152-.167-.284-.253-.397h-1.105c-.087-.363-.234-.71-.442-1.04h-.339v1.04h-4.134c-.658 0-1.135.137-1.43.41-.294.273-.442.67-.442 1.19zm0 5.642c0 .233.028.463.084.689.056.225.132.433.228.624.095.19.208.36.338.507.13.147.268.255.416.325l.208-.182c-.14-.156-.252-.39-.338-.702-.087-.313-.13-.62-.13-.923 0-.373.067-.698.201-.975.134-.278.319-.507.553-.69.234-.181.509-.318.825-.409.316-.091.656-.136 1.02-.136v4.056c.174.034.336.058.488.071.152.013.301.02.449.02.468 0 .86-.072 1.176-.215.316-.143.57-.33.76-.559.191-.23.328-.492.41-.786.082-.295.124-.594.124-.898 0-.935-.29-1.66-.871-2.17-.581-.512-1.426-.767-2.535-.767-.52 0-.988.067-1.404.201-.416.134-.774.332-1.073.592-.299.26-.529.584-.689.975-.16.39-.24.84-.24 1.352zm3.978 1.026v-2.86c.84.053 1.427.209 1.761.469.334.26.5.637.5 1.13 0 .443-.164.768-.493.976-.33.208-.772.312-1.326.312-.07 0-.141-.003-.215-.007-.074-.004-.15-.01-.227-.02zm-3.822 5.33h.325c.095-.173.166-.346.214-.52.048-.173.08-.346.097-.52h3.861c.312.113.549.241.709.384.16.143.266.262.319.358v1.728h.338c.147-.043.288-.088.422-.136.134-.048.258-.102.37-.162.027-.234.003-.462-.071-.683-.074-.221-.18-.425-.319-.611-.138-.186-.294-.351-.468-.494-.173-.143-.346-.253-.52-.331v-.053h1.378v-.325c-.043-.268-.101-.55-.175-.844-.074-.295-.171-.581-.293-.858h-.338l-.104.858h-5.109c-.034-.14-.073-.278-.117-.416-.043-.14-.108-.286-.195-.442h-.325v3.068z"/>
        <path fill="#806417" fill-rule="nonzero" d="M93.232 58.832h1.62V55.64h6.756v-1.824h-8.376v5.016zm-.144 4.224c0 .552.092 1.056.276 1.512.184.456.458.844.822 1.164.364.32.816.568 1.356.744.54.176 1.166.264 1.878.264s1.338-.088 1.878-.264c.54-.176.992-.424 1.356-.744.364-.32.638-.708.822-1.164.184-.456.276-.96.276-1.512s-.092-1.056-.276-1.512c-.184-.456-.458-.844-.822-1.164-.364-.32-.816-.568-1.356-.744-.54-.176-1.166-.264-1.878-.264s-1.338.088-1.878.264c-.54.176-.992.424-1.356.744-.364.32-.638.708-.822 1.164-.184.456-.276.96-.276 1.512zm1.62 0c0-.552.18-.982.54-1.29.36-.308.876-.462 1.548-.462h1.248c.672 0 1.188.154 1.548.462.36.308.54.738.54 1.29s-.18.982-.54 1.29c-.36.308-.876.462-1.548.462h-1.248c-.672 0-1.188-.154-1.548-.462-.36-.308-.54-.738-.54-1.29zm-1.476 8.4h6.756v2.268h1.62v-6.36h-1.62v2.268h-6.756v1.824zm0 7.188h6.756v2.268h1.62v-6.36h-1.62v2.268h-6.756v1.824zm0 9.216h1.62v-3.876h1.812v3.324h1.608v-3.324h1.716v3.876h1.62v-5.7h-8.376v5.7zm0 3.408h3.072v1.308l-3.072 1.464v2.028l3.288-1.644c.192.512.5.894.924 1.146.424.252.92.378 1.488.378.4 0 .764-.06 1.092-.18.328-.12.61-.29.846-.51.236-.22.418-.486.546-.798.128-.312.192-.66.192-1.044v-3.972h-8.376v1.824zm4.608 1.92v-1.92h2.184v1.92c0 .272-.07.486-.21.642-.14.156-.346.234-.618.234h-.528c-.272 0-.478-.078-.618-.234-.14-.156-.21-.37-.21-.642zm-4.608 7.752h3.288l5.088 2.868v-1.98l-3.336-1.728v-.024l3.336-1.8v-2.04l-5.1 2.868h-3.276v1.836z"/>
        <path fill="#2D5E52" fill-rule="nonzero" d="M231.866 72.119h.234c0-.19.078-.286.234-.286h5.174v2.145c0 .078-.022.154-.065.228-.043.073-.126.11-.247.11v.234h1.82v-.234c-.121 0-.204-.037-.247-.11-.043-.074-.065-.15-.065-.228v-5.772c0-.078.022-.154.065-.228.043-.073.126-.11.247-.11v-.234h-1.82v.234c.121 0 .204.037.247.11.043.074.065.15.065.228v2.145h-5.174c-.078 0-.137-.024-.176-.071-.039-.048-.058-.102-.058-.163h-.234v2.002zm0 5.733h.234c0-.052.015-.097.045-.136.03-.04.08-.059.15-.059h1.963v3.484h-1.963c-.07 0-.12-.02-.15-.058-.03-.04-.045-.085-.045-.137h-.234v1.638h.234c0-.052.015-.097.045-.136.03-.04.08-.059.15-.059h4.862c.07 0 .12.02.15.059.03.039.045.084.045.136h.234v-1.638h-.234c0 .052-.015.098-.046.137-.03.038-.08.058-.149.058h-1.833v-3.484h1.833c.07 0 .12.02.15.059.03.039.045.084.045.136h.234v-1.638h-.234c0 .052-.015.098-.046.137-.03.038-.08.058-.149.058h-4.862c-.07 0-.12-.02-.15-.058-.03-.04-.045-.085-.045-.137h-.234v1.638zm-.143 12.324h1.365v-.234c-.078 0-.14-.035-.189-.104-.047-.07-.071-.156-.071-.26V86.25h1.534v1.898c0 .173-.01.308-.033.403-.021.095-.08.13-.175.104v.26h1.378v-.234c-.095 0-.154-.035-.176-.104-.021-.07-.032-.178-.032-.325V86.25h1.3v3.172c0 .269-.082.403-.247.403v.234h1.443v-.234c-.156 0-.234-.134-.234-.403v-4.615h-.234c0 .043-.015.087-.046.13-.03.043-.08.065-.149.065h-4.862c-.07 0-.12-.022-.15-.065-.03-.043-.045-.087-.045-.13h-.234v4.771c0 .104-.004.19-.013.26s-.052.104-.13.104v.234zm.143 7.826h.234c0-.113.02-.206.058-.28.04-.073.098-.11.176-.11h2.522v2.548c0 .173-.028.308-.085.403-.056.095-.184.143-.383.143v.234h1.872v-.234c-.121 0-.2-.048-.234-.143-.035-.095-.052-.23-.052-.403v-2.548h1.612v4.212c0 .182-.024.31-.072.384-.047.073-.119.11-.214.11v.234h1.716v-.234c-.095 0-.171-.037-.227-.11-.057-.074-.085-.202-.085-.384v-6.032h-.234c0 .225-.078.338-.234.338h-5.902c-.156 0-.234-.113-.234-.338h-.234v2.21zm0 8.021h.234c0-.243.065-.364.195-.364h4.862c.13 0 .195.121.195.364h.234v-1.976h-.234c0 .139-.015.234-.046.286-.03.052-.08.078-.149.078h-4.862c-.07 0-.12-.026-.15-.078-.03-.052-.045-.147-.045-.286h-.234v1.976zm0 3.926h.234c0-.052.015-.106.045-.162.03-.057.08-.085.15-.085h1.859v1.807l-1.534 1.027c-.182.13-.316.195-.403.195-.078 0-.117-.056-.117-.169h-.234v1.989h.234c.026-.095.063-.184.11-.266.048-.083.12-.159.215-.228l1.859-1.274c.043.182.106.36.188.533.083.173.191.332.325.475.135.143.293.257.475.344.182.087.39.13.624.13.615 0 1.05-.217 1.306-.65.256-.433.384-1.036.384-1.807v-3.588h-.234c0 .156-.065.234-.195.234h-4.862c-.13 0-.195-.078-.195-.234h-.234v1.729zm3.25 1.833v-2.054h1.508v2.054c0 .442-.063.765-.189.969-.125.203-.296.305-.513.305-.537 0-.806-.425-.806-1.274zm-3.289 6.877c0 .295.022.609.065.943.043.333.134.639.273.916s.33.51.572.696c.243.186.555.279.936.279s.68-.106.897-.318c.217-.213.381-.48.494-.8.113-.32.193-.667.24-1.04.048-.373.096-.72.144-1.04.047-.32.112-.587.195-.8.082-.212.218-.318.409-.318.121 0 .223.035.306.104.082.07.149.165.201.286.052.121.089.26.11.416.022.156.033.32.033.494 0 .45-.052.858-.156 1.222-.104.364-.23.633-.377.806-.052.07-.104.108-.156.117l-.156.026-.078.234 1.222.65.143-.143c-.026-.052-.05-.095-.071-.13-.022-.035-.033-.087-.033-.156 0-.06.033-.154.098-.28.065-.125.136-.288.214-.487.078-.2.15-.444.215-.734.064-.29.097-.64.097-1.047 0-.832-.165-1.478-.494-1.937-.33-.46-.771-.689-1.326-.689-.373 0-.66.106-.864.319-.204.212-.36.478-.468.799-.109.32-.187.667-.234 1.04-.048.373-.096.72-.143 1.04-.048.32-.115.587-.202.8-.087.212-.225.318-.416.318-.165 0-.297-.06-.396-.182-.1-.121-.178-.269-.234-.442-.057-.173-.094-.349-.111-.526-.017-.178-.026-.328-.026-.449 0-.13.022-.31.065-.54.043-.23.102-.459.175-.688.074-.23.165-.427.273-.592.109-.165.228-.247.358-.247.043 0 .084.002.123.007.04.004.076.006.111.006l.065-.247-1.456-.598-.13.182c.052.043.078.095.078.156 0 .035-.033.134-.098.299l-.05.13c-.05.138-.102.296-.157.475-.074.238-.14.502-.195.793-.057.29-.085.582-.085.877zm.039 7.826h.234c0-.156.065-.234.195-.234h4.329v1.69c0 .07-.017.134-.052.195-.035.06-.091.091-.169.091v.234h1.495v-.234c-.121 0-.204-.03-.247-.091-.043-.06-.065-.126-.065-.195v-4.628c0-.07.022-.134.065-.195.043-.06.126-.091.247-.091v-.234h-1.495v.234c.078 0 .134.03.169.091.035.06.052.126.052.195v1.69h-4.329c-.07 0-.12-.022-.15-.065-.03-.043-.045-.087-.045-.13h-.234v1.677zm0 11.635c0 .477.07.92.208 1.332.139.412.349.77.63 1.073.282.303.638.542 1.067.715.429.173.933.26 1.514.26.58 0 1.086-.087 1.515-.26.429-.173.784-.412 1.066-.715.281-.303.491-.66.63-1.073.139-.411.208-.855.208-1.332v-4.316h-.234c0 .2-.078.299-.234.299h-5.902c-.156 0-.234-.1-.234-.299h-.234v4.316zm1.118-.52v-2.015h4.602v2.015c0 .407-.035.763-.104 1.066-.07.303-.193.555-.37.754-.178.2-.414.349-.709.448-.295.1-.667.15-1.118.15-.45 0-.823-.05-1.118-.15-.295-.1-.53-.249-.708-.448-.178-.2-.302-.45-.371-.754-.07-.303-.104-.659-.104-1.066zm-1.118 6.565h.234c0-.078.009-.139.026-.182.017-.043.06-.065.13-.065.043 0 .093.01.15.033.056.021.119.05.188.084l.702.364v2.782l-.741.351-.169.065c-.043.017-.091.026-.143.026-.07 0-.117-.024-.143-.071-.026-.048-.039-.094-.039-.137h-.195v1.846h.234c.017-.06.043-.117.078-.169.035-.052.091-.1.169-.143l4.42-2.106c.095-.043.18-.084.254-.124.073-.038.136-.058.188-.058.06 0 .095.015.104.046.009.03.022.058.039.084h.234v-1.963h-.234l-.045.071c-.013.022-.046.033-.098.033-.07 0-.14-.015-.214-.045-.074-.03-.172-.072-.293-.124l-4.225-1.937c-.07-.035-.145-.084-.228-.15-.082-.064-.132-.149-.149-.253h-.234v1.742zm2.392 2.6v-1.976l2.184.923-2.184 1.053zm-2.392 7.176h.234c0-.165.065-.247.195-.247h1.95l2.574 1.989c.121.095.24.206.358.332.117.125.175.24.175.344h.234v-1.989h-.234c0 .043-.009.087-.026.13-.017.043-.06.065-.13.065-.052 0-.106-.02-.162-.058l-.254-.176-1.612-1.157 1.716-1.313c.06-.043.113-.082.156-.117s.091-.052.143-.052c.052 0 .093.026.124.078.03.052.045.1.045.143h.234v-2.145h-.234c0 .078-.017.16-.052.247-.035.087-.091.16-.169.221l-2.834 2.21h-2.002c-.13 0-.195-.078-.195-.234h-.234v1.729z"/>
        <path fill="#821079" fill-rule="nonzero" d="M271.19 84.403c.17 0 .339-.169.469-.455.598-1.391 1.858-4.225 2.548-5.642.793-1.56 2.873-3.913 5.017-3.913.793 0 1.3.507 1.3 1.534 0 2.119-2.014 4.576-4.368 5.278-.454-.611-.858-.897-1.546-.897-.599 0-1.028.338-1.028.793 0 .442.43.819 1.314.819.298 0 .597-.026.91-.091.117.182.233.39.364.611.662 1.144 1.26 1.95 2.248 1.95 1.236 0 2.315-1.3 3.212-2.691.038-.065.052-.13.052-.182 0-.143-.118-.26-.26-.26-.079 0-.157.039-.222.143-.832 1.287-1.858 2.431-2.69 2.431-.715 0-1.21-.819-1.716-1.651l-.325-.507c2.534-.806 4.836-3.341 4.836-5.733 0-1.365-.82-2.132-2.094-2.132-1.78 0-3.483 1.404-4.576 2.795.04-.286.065-.572.065-.754 0-.988-.584-1.703-1.442-1.937-.013-.858-.313-1.3-.611-1.3-.17 0-.313.13-.313.286 0 .052.026.13.079.208.065.117.155.299.168.715-2.132.026-4.64 1.898-4.64 3.666 0 .897.533 1.417 1.404 1.417 1.663 0 3.548-2.47 3.86-4.42.507.195.78.65.78 1.352 0 .611-.117 1.261-.559 2.379-.506 1.287-1.209 2.847-1.442 3.289-.767 1.235-1.17 2.067-1.17 2.522 0 .221.142.377.376.377zm-1.832-6.058c-.456 0-.728-.299-.728-.806 0-1.521 2.106-3.133 3.913-3.159-.26 1.69-1.82 3.965-3.185 3.965zm5.498 3.055c-.454 0-.65-.117-.65-.312 0-.143.13-.273.442-.273.286 0 .546.208.82.546-.209.026-.417.039-.612.039zm7.957 2.73c.675 0 1.351-.351 1.898-.897.246.169.584.26.935.26 1.001 0 1.781-.624 2.548-1.794.026-.052.053-.117.053-.169 0-.156-.105-.26-.274-.273-.117 0-.208.143-.208.143-.702 1.066-1.364 1.586-2.027 1.586-.26 0-.481-.078-.625-.208.546-.702.897-1.599.897-2.444 0-1.079-.637-1.703-1.676-1.703-1.522 0-3.29 1.703-3.29 3.64 0 1.222.742 1.859 1.769 1.859zm.026-.546c-.572 0-1.053-.429-1.053-1.274 0-1.586 1.469-3.146 2.534-3.146.599 0 .988.377.988 1.144 0 .689-.246 1.43-.637 2.028-.195.013-.35.169-.35.377 0 .026 0 .052.012.078-.429.481-.962.793-1.495.793zm11.596.546c1.065 0 2.014-1.183 2.82-2.431.04-.065.053-.13.053-.182 0-.143-.118-.26-.26-.26-.079 0-.156.039-.221.143-.741 1.144-1.6 2.21-2.288 2.21-.325 0-.534-.208-.534-.585 0-1.157 1.197-2.262 1.197-3.38 0-.611-.442-1.014-1.04-1.014-.637 0-1.47.767-2.12 1.573.066-.208.105-.377.105-.559 0-.624-.39-1.014-1.027-1.014-.69 0-1.483.676-2.132 1.443l.168-.39c.209-.351.313-.611.313-.767 0-.169-.118-.286-.313-.286-.182 0-.325.117-.416.338-.546 1.313-1.235 3.029-1.742 4.589-.038.13-.051.195-.051.312 0 .182.13.26.26.26.26 0 .338-.221.39-.39.325-1.04.832-2.301 1.352-2.964.572-.728 1.52-1.612 2.131-1.612.26 0 .404.156.404.429 0 .156-.065.429-.17.754-.325.936-.845 2.301-1.144 3.172-.038.13-.078.234-.078.338 0 .195.156.273.286.273.26 0 .339-.221.39-.39.326-1.04.82-2.301 1.34-2.964.572-.728 1.495-1.612 2.04-1.612.248 0 .39.156.39.429 0 .923-1.221 2.171-1.221 3.341 0 .754.442 1.196 1.118 1.196zm4.185 0c1.483 0 2.938-1.027 3.849-2.431.026-.052.052-.117.052-.169 0-.156-.105-.273-.274-.273-.117 0-.208.143-.208.143-.844 1.313-2.287 2.171-3.353 2.171-.767 0-1.287-.403-1.287-1.196 0-.143.012-.299.026-.442 2.106-.195 3.77-1.17 3.77-2.223 0-.689-.455-1.079-1.236-1.079-1.39 0-3.301 1.586-3.301 3.731 0 1.144.702 1.768 1.962 1.768zm-1.065-2.73c.416-1.3 1.599-2.236 2.392-2.236.325 0 .546.182.546.468 0 .78-1.262 1.56-2.938 1.768zm6.096 2.73c.676 0 1.352-.351 1.899-.897.246.169.584.26.935.26 1.001 0 1.781-.624 2.548-1.794.026-.052.053-.117.053-.169 0-.156-.105-.26-.274-.273-.117 0-.208.143-.208.143-.702 1.066-1.364 1.586-2.027 1.586-.26 0-.481-.078-.625-.208.546-.702.897-1.599.897-2.444 0-1.079-.637-1.703-1.676-1.703-1.522 0-3.29 1.703-3.29 3.64 0 1.222.742 1.859 1.769 1.859zm.026-.546c-.572 0-1.053-.429-1.053-1.274 0-1.586 1.47-3.146 2.535-3.146.599 0 .988.377.988 1.144 0 .689-.246 1.43-.637 2.028-.195.013-.35.169-.35.377 0 .026 0 .052.012.078-.429.481-.962.793-1.495.793zM282.774 98.13c1.066 0 2.015-1.183 2.821-2.431.04-.065.053-.13.053-.182 0-.143-.118-.26-.26-.26-.079 0-.156.039-.221.143-.741 1.144-1.6 2.21-2.288 2.21-.39 0-.65-.26-.65-.832 0-.728.467-1.768.87-2.639.364-.585.585-.975.585-1.196 0-.182-.13-.312-.35-.312-.209 0-.443.247-.56.637-.247-.429-.702-.637-1.287-.637-1.599 0-3.587 1.963-3.587 3.887 0 1.04.623 1.612 1.495 1.612.78 0 1.52-.663 2.144-1.521-.012.052-.012.104-.012.169 0 .884.572 1.352 1.248 1.352zm-3.315-.546c-.442 0-.819-.351-.819-1.014 0-1.599 1.625-3.406 2.834-3.406.611 0 .962.273 1.027.715-.325.819-.623 1.443-1.091 2.145-.611.884-1.287 1.56-1.95 1.56zm9.685.546c1.067 0 2.016-1.183 2.822-2.431.038-.065.052-.13.052-.182 0-.143-.118-.26-.26-.26-.079 0-.156.039-.221.143-.741 1.144-1.6 2.21-2.288 2.21-.325 0-.534-.208-.534-.585 0-1.144 1.197-2.249 1.197-3.354 0-.624-.469-1.04-1.106-1.04-.754 0-1.702.689-2.43 1.482l.182-.442c.195-.338.311-.598.311-.754 0-.169-.116-.286-.311-.286-.183 0-.326.117-.417.338-.546 1.313-1.234 3.029-1.741 4.589-.04.13-.053.195-.053.312 0 .182.13.26.26.26.228 0 .316-.17.37-.325l.02-.065c.326-1.04.807-2.314 1.34-2.964.637-.767 1.767-1.612 2.457-1.612.286 0 .454.169.454.455 0 .91-1.221 2.158-1.221 3.315 0 .754.441 1.196 1.118 1.196zm7.047 0c.714 0 1.325-.793 1.325-1.157 0-.13-.103-.221-.207-.221-.065 0-.144.039-.209.156-.22.364-.507.702-.832.702-.35 0-.584-.26-.584-.832 0-.481.312-1.417.805-2.678.377-.975.858-2.132 1.014-2.47.534-.858.793-1.443.793-1.768 0-.182-.13-.312-.35-.312-.17 0-.351.169-.481.455-.325.728-.91 2.184-1.3 3.211-.248-.39-.69-.585-1.262-.585-1.599 0-3.587 1.963-3.587 3.887 0 1.04.623 1.612 1.495 1.612.805 0 1.572-.715 2.21-1.625-.026.078-.026.182-.026.273 0 .884.545 1.352 1.195 1.352zm-3.315-.546c-.455 0-.82-.351-.82-1.014 0-1.599 1.625-3.406 2.834-3.406.611 0 .962.273 1.027.715-.325.819-.623 1.443-1.091 2.145-.611.884-1.287 1.56-1.95 1.56zm-20.157 20.214c1.911 0 3.978-2.392 5.616-5.291 1.716-.611 3.315-1.443 4.225-2.821 0 0 .052-.104.052-.169 0-.156-.104-.26-.273-.26-.117 0-.208.143-.208.143-.741 1.144-1.989 1.859-3.406 2.405 1.586-3.016 2.691-6.396 2.691-8.177 0-1.157-.546-1.807-1.599-1.807-1.079 0-2.665 1.105-3.861 2.535-.182-.039-.377-.065-.559-.065-.962 0-1.664.507-1.664.858 0 .143.117.273.247.273.052 0 .13-.026.208-.091.195-.156.494-.455 1.196-.455.052 0 .104 0 .156.013-.767 1.04-1.287 2.197-1.287 3.211 0 1.456.754 2.119 1.768 2.119 1.066 0 2.106-1.17 2.106-2.6 0-1.443-.65-2.509-1.534-3.016 1.027-1.235 2.314-2.184 3.172-2.184.546 0 .897.403.897 1.209 0 1.755-1.287 5.447-3.003 8.541-3.315 1.053-7.02 1.456-7.02 3.848 0 1.04.871 1.781 2.08 1.781zm3.315-8.164c-.585 0-1.053-.507-1.053-1.482 0-.949.507-2.054 1.222-3.042.676.39 1.222 1.274 1.222 2.509 0 1.131-.689 2.015-1.391 2.015zm-3.302 7.566c-.819 0-1.339-.468-1.339-1.209 0-1.716 2.912-2.21 5.863-3.133-1.43 2.431-3.107 4.342-4.524 4.342zm13.546-5.07c1.066 0 2.015-1.183 2.821-2.431.039-.065.052-.13.052-.182 0-.143-.117-.26-.26-.26-.078 0-.156.039-.221.143-.741 1.144-1.599 2.21-2.288 2.21-.39 0-.65-.26-.65-.832 0-.728.468-1.768.871-2.639.364-.585.585-.975.585-1.196 0-.182-.13-.312-.351-.312-.208 0-.39.247-.689.936-.351.819-.78 1.807-1.235 2.457-.598.858-1.209 1.547-1.794 1.547-.299 0-.546-.208-.546-.78 0-.741.442-1.794.858-2.652.364-.585.559-.975.559-1.196 0-.182-.13-.312-.351-.312-.195 0-.403.325-.806 1.105-.455.897-.975 2.171-.975 3.029 0 .91.481 1.365 1.196 1.365.702 0 1.378-.663 1.989-1.521-.013.052-.013.104-.013.169 0 .884.572 1.352 1.248 1.352zm3.367 0c1.066 0 2.015-1.183 2.821-2.431.039-.065.052-.13.052-.182 0-.143-.117-.26-.26-.26-.078 0-.156.039-.221.143-.741 1.144-1.599 2.21-2.288 2.21-.377 0-.65-.273-.65-.871 0-.793.481-2.093 1.118-3.484.871-1.482 1.651-2.847 1.651-3.38 0-.195-.13-.325-.338-.325-.208 0-.481.455-.819 1.105-.975 1.872-2.314 4.784-2.314 6.045 0 .962.481 1.43 1.248 1.43zm4.784-6.435c.364 0 .585-.377.585-.611 0-.286-.208-.455-.468-.455-.325 0-.598.351-.598.624 0 .286.221.442.481.442zm-1.469 6.435c1.066 0 2.015-1.183 2.821-2.431.039-.065.052-.13.052-.182 0-.143-.117-.26-.26-.26-.078 0-.156.039-.221.143-.741 1.144-1.599 2.21-2.288 2.21-.351 0-.598-.234-.598-.819 0-.78.429-1.794.858-2.652.364-.585.559-.975.559-1.196 0-.182-.13-.312-.351-.312-.195 0-.403.325-.806 1.105-.468.897-.975 2.145-.975 3.029 0 .91.481 1.365 1.209 1.365zm4.186 0c1.482 0 2.938-1.027 3.848-2.431.026-.052.052-.117.052-.169 0-.156-.104-.273-.273-.273-.117 0-.208.143-.208.143-.845 1.313-2.288 2.171-3.354 2.171-.767 0-1.287-.403-1.287-1.196 0-.143.013-.299.026-.442 2.106-.195 3.77-1.17 3.77-2.223 0-.689-.455-1.079-1.235-1.079-1.391 0-3.302 1.586-3.302 3.731 0 1.144.702 1.768 1.963 1.768zm-1.066-2.73c.416-1.3 1.599-2.236 2.392-2.236.325 0 .546.182.546.468 0 .78-1.261 1.56-2.938 1.768zm5.551 2.73c1.053 0 1.963-1.105 2.821-2.444.039-.065.065-.117.065-.208 0-.13-.143-.234-.273-.234-.091 0-.156.052-.221.156-.715 1.183-1.612 2.21-2.301 2.21-.39 0-.676-.247-.676-.845 0-.832.572-2.249 1.222-3.627h.988c.195 0 .325-.091.325-.273 0-.13-.117-.234-.325-.234h-.741l.494-.975c.364-.585.559-.975.559-1.196 0-.182-.13-.312-.351-.312-.195 0-.403.325-.806 1.105-.221.416-.468.897-.702 1.378h-.858c-.208 0-.338.078-.338.247 0 .182.13.26.338.26h.611c-.611 1.326-1.131 2.717-1.131 3.536 0 .962.507 1.456 1.3 1.456z"/>
        <path fill="#FFF" fill-rule="nonzero" d="M179.284 114v-13.304h-4.602v2.412h2.18V114h2.422zm14.08 0c.296 0 .615-.034.955-.102.34-.068.676-.178 1.007-.33.33-.15.648-.343.95-.575.304-.232.571-.513.803-.844.232-.33.418-.713.557-1.146.139-.433.209-.921.209-1.465v-4.37c0-.544-.07-1.033-.21-1.466-.138-.433-.324-.815-.556-1.146-.232-.33-.5-.613-.802-.848-.303-.236-.62-.429-.951-.58-.331-.152-.667-.262-1.007-.33-.34-.068-.659-.102-.955-.102h-4.352c-.414 0-.785.053-1.113.158-.328.105-.617.246-.867.422s-.466.379-.645.608c-.18.229-.325.468-.436.719-.111.25-.193.504-.246.76-.052.257-.079.497-.079.72v1.085c0 .414.053.785.158 1.113.105.328.246.619.422.872.176.254.379.469.608.645.229.176.468.322.719.436.25.115.502.198.756.25.253.053.495.08.724.08h6.4v.974c0 .315-.049.595-.148.84-.099.244-.24.45-.422.62-.182.17-.399.305-.65.404-.25.1-.526.161-.83.186h-6.02V114h6.02zm2.05-7.867h-6.383c-.328 0-.575-.082-.742-.246-.167-.164-.25-.404-.25-.719v-1.085c0-.279.088-.51.264-.696.176-.186.413-.279.71-.279h4.35c.291 0 .562.048.812.144.25.096.467.234.65.413.182.18.326.396.431.65.105.253.158.538.158.853v.965zM181.88 133c.408 0 .776-.053 1.104-.158.328-.105.617-.246.867-.422s.466-.379.645-.607c.18-.23.326-.469.44-.72.115-.25.199-.502.251-.756.053-.253.08-.494.08-.723v-1.076c0-.347-.038-.664-.112-.951-.074-.288-.176-.546-.306-.775-.13-.229-.282-.431-.455-.608-.173-.176-.359-.329-.557-.459.217-.445.325-.97.325-1.577v-1.085c0-.223-.026-.463-.079-.72-.052-.256-.134-.51-.246-.76-.11-.25-.255-.49-.431-.72-.176-.228-.39-.43-.64-.607-.25-.176-.541-.317-.872-.422-.331-.105-.704-.158-1.118-.158h-3.266c-.334 0-.699.06-1.094.181-.396.12-.763.314-1.1.58-.337.266-.618.615-.844 1.048-.226.433-.339.959-.339 1.578v1.085c0 .235.028.485.084.751.055.266.139.53.25.789-.253.167-.47.365-.65.594-.178.229-.325.47-.44.723-.114.254-.198.51-.25.77-.053.26-.08.508-.08.743v1.076c0 .624.114 1.152.34 1.582.225.43.507.779.844 1.048.337.269.703.462 1.1.58.395.117.76.176 1.094.176h5.455zm-1.104-7.867h-3.266c-.303 0-.536-.08-.7-.241-.164-.161-.246-.402-.246-.724v-1.085c0-.316.079-.557.237-.724.157-.167.4-.25.728-.25h3.247c.315 0 .557.083.724.25.167.167.25.414.25.742v1.067c0 .315-.08.555-.241.719-.161.164-.405.246-.733.246zm1.104 5.455h-5.455c-.279 0-.509-.088-.691-.265-.183-.176-.274-.412-.274-.71v-1.075c0-.279.087-.51.26-.696.173-.186.408-.279.705-.279h5.455c.29 0 .521.086.691.256.17.17.255.41.255.719v1.076c0 .278-.08.51-.241.696-.16.185-.396.278-.705.278zM199.46 133v-13.304h-2.43v5.437h-7.376v-5.437h-2.412v6.652c0 .167.031.325.093.473.062.149.147.277.255.385.108.109.237.195.385.26.149.065.31.097.483.097h8.572V133h2.43z"/>
        <path fill="#FFF" d="M160 55H212V56H160zM160 173H212V174H160zM160 59H212V60H160zM160 177H212V178H160z" opacity=".362"/>
        <path fill="#2D5E52" d="M235 47H236V63H235zM235 161H236V177H235z" opacity=".302"/>
        <path stroke="#C993C5" d="M262 26H315V56H262zM262 135H315V154H262zM262 157H315V185H262z" opacity=".751"/>
        <path stroke="#C993C5" d="M265 160H312V182H265zM265 138H312V151H265z" opacity=".39"/>
        <path stroke="#C993C5" d="M262 59H315V132H262z" opacity=".751"/>
        <path stroke="#C993C5" d="M265 62H312V129H265z" opacity=".39"/>
        <path stroke="#C993C5" d="M265 29H312V53H265z" opacity=".392"/>
        <g fill-rule="nonzero">
            <path fill="#92BA92" d="M55.708 16.356c-1.687 2.025.615 6.863 0 9.838-.818 3.966-3.935 5.903-1.967 7.87 1.041 1.042 3.964 4.104 16.048 7.423 1.012-9.314-2.037-18.99-9.162-26.114-.506-.507-1.03-.986-1.562-1.452-1 .434-2.267 1.128-3.357 2.435zM12.421 39.968c3.005-.76 6.89-2.769 7.87-7.87.653-3.394.156-8.027 1.968-9.839 2.408-2.408 9.14 2.56 13.773 1.968 4.097-.524 6.24-6.565 6.833-8.913.603-2.39.458-6.371.168-8.896-9.779-1.546-20.14 1.435-27.66 8.955C8.58 22.165 5.495 31.276 6.098 40.18c2.088.168 5.122.09 6.323-.213z" transform="translate(331 93)"/>
            <path fill="#BADEFC" d="M69.789 41.487c-12.084-3.319-15.007-6.381-16.048-7.422-1.968-1.968 1.149-3.905 1.967-7.87.615-2.976-1.687-7.814 0-9.839 1.09-1.307 2.357-2 3.357-2.435-4.668-4.088-10.246-6.59-16.032-7.503.29 2.525.435 6.507-.168 8.896-.592 2.348-2.736 8.39-6.833 8.913-4.633.592-11.365-4.376-13.773-1.968-1.812 1.812-1.315 6.445-1.967 9.838-.982 5.102-4.866 7.112-7.87 7.87-1.202.304-4.236.382-6.324.214.505 7.453 3.59 14.762 9.275 20.446 12.476 12.477 32.778 12.477 45.254 0 5.352-5.351 8.401-12.144 9.162-19.14zM26.194 53.74c-.983-4.92 5.083-4.1 10.056-13.935 2.08-4.115 8.986-2.82 12.79.983 3.803 3.804 4.2 9.486.983 12.79-5.984 6.149-22.625 6.179-23.829.162z" transform="translate(331 93)"/>
            <path fill="#92BA92" d="M49.04 40.79c-3.804-3.804-10.71-5.099-12.79-.984-4.973 9.836-11.04 9.016-10.056 13.935 1.204 6.017 17.845 5.987 23.83-.162 3.215-3.304 2.82-8.986-.984-12.79z" transform="translate(331 93)"/>
            <path fill="#B5B5B5" d="M80 37.983c0-10.596-3.967-20.591-10.932-28.225l6.345-6.345c.781-.781.781-2.047 0-2.828-.781-.781-2.047-.781-2.828 0l-6.36 6.36c-1.649-1.494-3.414-2.883-5.316-4.124-.927-.603-2.166-.343-2.767.582-.604.926-.343 2.165.582 2.768C69.542 13.227 76 25.119 76 37.983 76 58.928 58.953 76 38 76c-10.128 0-19.738-4.072-26.8-11.11-.016-.016-.02-.039-.037-.055-.015-.015-.035-.02-.05-.033-1.608-1.613-3.084-3.378-4.401-5.286-.629-.91-1.873-1.139-2.782-.511-.91.628-1.138 1.873-.511 2.782 1.083 1.569 2.27 3.041 3.534 4.43L.585 72.585c-.781.781-.781 2.047 0 2.828.39.39.902.586 1.414.586.512 0 1.023-.195 1.414-.586l6.37-6.37C16.949 75.547 26.2 79.402 36 79.872V88H22c-1.105 0-2 .895-2 2s.895 2 2 2h32c1.105 0 2-.895 2-2s-.895-2-2-2H40v-8.135c22.228-1.054 40-19.407 40-41.882z" transform="translate(331 93)"/>
        </g>
        <rect width="383" height="8" x="32" y="193" fill="#EECDB2" stroke="#B48158" rx="3.5"/>
    </g>
</svg>
