<svg xmlns="http://www.w3.org/2000/svg" width="447" height="224" viewBox="0 0 447 224">
    <g fill="none" fill-rule="evenodd">
        <g>
            <g transform="translate(-179 -2716) translate(179 2716)">
                <path fill="#F8F6F6" d="M0 0H447V224H0z"/>
                <g fill="#9B9B9B" fill-rule="nonzero">
                    <path d="M7 6c1.66 0 2.99-1.34 2.99-3S8.66 0 7 0C5.34 0 4 1.34 4 3s1.34 3 3 3zm0 2c-2.33 0-7 1.17-7 3.5V14h14v-2.5C14 9.17 9.33 8 7 8z" transform="translate(24 20)"/>
                </g>
                <path fill="#3F3F3F" fill-rule="nonzero" d="M46.448 31v-8.688h-1.404V31h1.404zm3.972.144c1.524 0 2.556-.684 2.556-1.968 0-1.416-1.14-1.668-2.208-1.86-.816-.144-1.344-.312-1.344-.888 0-.408.312-.732 1.068-.732.804 0 1.032.432 1.176 1.044l1.2-.312c-.24-1.08-.912-1.764-2.352-1.764-1.296 0-2.388.624-2.388 1.92 0 1.476 1.2 1.692 2.208 1.896.792.156 1.296.264 1.296.888 0 .528-.48.744-1.164.744-.996 0-1.248-.516-1.404-1.104l-1.176.384c.192 1.152 1.044 1.752 2.532 1.752zm5.388 0c.864 0 1.548-.3 1.968-.756.108.48.396.732 1.044.732.336 0 .732-.084.972-.204l-.048-.816c-.156.048-.264.072-.372.072-.312 0-.372-.144-.372-.48v-2.868c0-1.548-.744-2.16-2.328-2.16-1.524 0-2.268.624-2.46 1.788l1.212.216c.132-.648.384-.96 1.14-.96.912 0 1.08.432 1.08 1.188v.468c-.168-.012-.348-.024-.636-.024-1.668 0-3.036.528-3.036 2.136 0 .612.276 1.668 1.836 1.668zm.492-1.032c-.732 0-.924-.396-.924-.828 0-.912 1.008-.996 1.704-.996.312 0 .456.012.576.024v1.224c-.276.288-.792.576-1.356.576zm7.608 1.032c1.452 0 2.592-.972 2.592-3.396 0-2.268-.996-3.084-2.268-3.084-.84 0-1.476.252-2.004.732V21.94h-1.356V31h1.176l.084-.516.024-.012c.408.372.996.672 1.752.672zm-.264-1.152c-.612 0-1.14-.336-1.392-.528v-3.012c.312-.3.912-.66 1.488-.66.96 0 1.332.696 1.332 1.98 0 1.416-.42 2.22-1.428 2.22zm6.84 1.152c1.344 0 2.292-.672 2.532-1.848l-1.176-.288c-.144.636-.48 1.008-1.272 1.008-.9 0-1.524-.468-1.56-1.776h4.02c.024-.288.036-.576.036-.828 0-1.608-.744-2.748-2.544-2.748-1.62 0-2.964.996-2.964 3.24 0 1.704.696 3.24 2.928 3.24zm1.152-3.864h-2.604c.06-1.104.708-1.524 1.404-1.524.828 0 1.2.468 1.2 1.524zM75.86 31v-9.06h-1.38V31h1.38zm4.956 0l.792-2.376h3.156L85.58 31h1.536l-3.048-8.688H82.28L79.388 31h1.428zm3.624-3.552h-2.556l1.272-3.84h.024l1.26 3.84zM89.672 31v-9.06h-1.38V31h1.38zm3.084 0v-9.06h-1.38V31h1.38zm4.272.144c1.344 0 2.292-.672 2.532-1.848l-1.176-.288c-.144.636-.48 1.008-1.272 1.008-.9 0-1.524-.468-1.56-1.776h4.02c.024-.288.036-.576.036-.828 0-1.608-.744-2.748-2.544-2.748-1.62 0-2.964.996-2.964 3.24 0 1.704.696 3.24 2.928 3.24zm1.152-3.864h-2.604c.06-1.104.708-1.524 1.404-1.524.828 0 1.2.468 1.2 1.524zm4.2 3.72v-4.524c.3-.276.948-.66 1.572-.66.732 0 1.02.408 1.02 1.188V31h1.38v-4.224c0-1.404-.576-2.112-1.92-2.112-.852 0-1.596.336-2.148.78l-.06-.648H101V31h1.38zm7.704.144c.852 0 1.464-.3 1.956-.768h.024l.096.624h1.152v-9.06h-1.344v3.264c-.42-.36-.96-.54-1.668-.54-1.344 0-2.616.876-2.616 3.336 0 2.244.972 3.144 2.4 3.144zm.444-1.116c-.996 0-1.416-.696-1.416-2.04 0-1.296.396-2.196 1.476-2.196.588 0 1.08.276 1.344.48v3.12c-.336.348-.876.636-1.404.636zm7.056 1.116c1.344 0 2.292-.672 2.532-1.848l-1.176-.288c-.144.636-.48 1.008-1.272 1.008-.9 0-1.524-.468-1.56-1.776h4.02c.024-.288.036-.576.036-.828 0-1.608-.744-2.748-2.544-2.748-1.62 0-2.964.996-2.964 3.24 0 1.704.696 3.24 2.928 3.24zm1.152-3.864h-2.604c.06-1.104.708-1.524 1.404-1.524.828 0 1.2.468 1.2 1.524z"/>
                <rect width="399" height="159" x="24" y="46" fill="#FFF" stroke="#E0E0E0" rx="6"/>
                <path fill="#3F3F3F" fill-rule="nonzero" d="M38.842 69v-3.542H40.2c2.52 0 3.92-1.092 3.92-3.514 0-1.61-.784-3.08-3.374-3.08h-3.528V69h1.624zm1.218-4.9h-1.218v-3.892h1.4c1.4 0 2.184.462 2.184 1.848 0 1.736-1.05 2.044-2.366 2.044zm7.392 5.068c1.008 0 1.806-.35 2.296-.882.126.56.462.854 1.218.854.392 0 .854-.098 1.134-.238l-.056-.952c-.182.056-.308.084-.434.084-.364 0-.434-.168-.434-.56v-3.346c0-1.806-.868-2.52-2.716-2.52-1.778 0-2.646.728-2.87 2.086l1.414.252c.154-.756.448-1.12 1.33-1.12 1.064 0 1.26.504 1.26 1.386v.546c-.196-.014-.406-.028-.742-.028-1.946 0-3.542.616-3.542 2.492 0 .714.322 1.946 2.142 1.946zm.574-1.204c-.854 0-1.078-.462-1.078-.966 0-1.064 1.176-1.162 1.988-1.162.364 0 .532.014.672.028v1.428c-.322.336-.924.672-1.582.672zM54.956 69v-5.026c.602-.532 1.624-.854 2.534-.742v-1.61c-.098 0-.21-.014-.294-.014-1.064 0-1.792.42-2.366 1.232l-.126-1.078h-1.358V69h1.61zm5.46.168c1.008 0 1.806-.35 2.296-.882.126.56.462.854 1.218.854.392 0 .854-.098 1.134-.238l-.056-.952c-.182.056-.308.084-.434.084-.364 0-.434-.168-.434-.56v-3.346c0-1.806-.868-2.52-2.716-2.52-1.778 0-2.646.728-2.87 2.086l1.414.252c.154-.756.448-1.12 1.33-1.12 1.064 0 1.26.504 1.26 1.386v.546c-.196-.014-.406-.028-.742-.028-1.946 0-3.542.616-3.542 2.492 0 .714.322 1.946 2.142 1.946zm.574-1.204c-.854 0-1.078-.462-1.078-.966 0-1.064 1.176-1.162 1.988-1.162.364 0 .532.014.672.028v1.428c-.322.336-.924.672-1.582.672zM67.948 69V58.43h-1.61V69h1.61zm3.598 0V58.43h-1.61V69h1.61zm4.984.168c1.568 0 2.674-.784 2.954-2.156l-1.372-.336c-.168.742-.56 1.176-1.484 1.176-1.05 0-1.778-.546-1.82-2.072h4.69c.028-.336.042-.672.042-.966 0-1.876-.868-3.206-2.968-3.206-1.89 0-3.458 1.162-3.458 3.78 0 1.988.812 3.78 3.416 3.78zm1.344-4.508h-3.038c.07-1.288.826-1.778 1.638-1.778.966 0 1.4.546 1.4 1.778zM82.802 69V58.43h-1.61V69h1.61zm7.868.168c1.932 0 3.696-.868 3.696-3.066 0-3.668-5.418-2.268-5.418-4.718 0-.812.546-1.372 1.876-1.372 1.414 0 1.806.798 1.946 1.764l1.512-.182c-.196-2.254-1.666-2.912-3.444-2.912-2.002 0-3.528 1.064-3.528 2.898 0 3.836 5.418 2.184 5.418 4.746 0 1.204-1.022 1.54-2.03 1.54-1.638 0-2.072-.896-2.296-1.932l-1.512.224c.224 2.296 1.778 3.01 3.78 3.01zm7.7 0c.77 0 1.554-.266 1.918-.504l-.266-1.148c-.294.168-.798.336-1.232.336-.784 0-.966-.378-.966-1.092v-3.808h1.96v-1.19h-1.96v-2.338l-1.61.224v2.114h-1.106v1.19h1.106v4.032c0 1.54.728 2.184 2.156 2.184zm4.648-.168v-5.026c.602-.532 1.624-.854 2.534-.742v-1.61c-.098 0-.21-.014-.294-.014-1.064 0-1.792.42-2.366 1.232l-.126-1.078h-1.358V69h1.61zm5.824.154c.994 0 1.848-.378 2.478-.952l.112.798h1.4v-7.238h-1.61v5.278c-.35.322-1.106.756-1.82.756-.854 0-1.134-.462-1.134-1.372v-4.662h-1.61v4.942c0 1.624.672 2.45 2.184 2.45zm8.946.014c1.554 0 2.842-.742 3.08-2.478l-1.4-.28c-.168 1.008-.7 1.442-1.596 1.442-1.008 0-1.792-.602-1.792-2.562 0-1.918.896-2.394 1.834-2.394.938 0 1.33.616 1.442 1.568l1.484-.21c-.126-1.708-1.26-2.646-2.856-2.646-2.268 0-3.584 1.358-3.584 3.864 0 2.156.994 3.696 3.388 3.696zm7.028 0c.77 0 1.554-.266 1.918-.504l-.266-1.148c-.294.168-.798.336-1.232.336-.784 0-.966-.378-.966-1.092v-3.808h1.96v-1.19h-1.96v-2.338l-1.61.224v2.114h-1.106v1.19h1.106v4.032c0 1.54.728 2.184 2.156 2.184zm5.208-.014c.994 0 1.848-.378 2.478-.952l.112.798h1.4v-7.238h-1.61v5.278c-.35.322-1.106.756-1.82.756-.854 0-1.134-.462-1.134-1.372v-4.662h-1.61v4.942c0 1.624.672 2.45 2.184 2.45zm7.56-.154v-5.026c.602-.532 1.624-.854 2.534-.742v-1.61c-.098 0-.21-.014-.294-.014-1.064 0-1.792.42-2.366 1.232l-.126-1.078h-1.358V69h1.61zm6.678.168c1.568 0 2.674-.784 2.954-2.156l-1.372-.336c-.168.742-.56 1.176-1.484 1.176-1.05 0-1.778-.546-1.82-2.072h4.69c.028-.336.042-.672.042-.966 0-1.876-.868-3.206-2.968-3.206-1.89 0-3.458 1.162-3.458 3.78 0 1.988.812 3.78 3.416 3.78zm1.344-4.508h-3.038c.07-1.288.826-1.778 1.638-1.778.966 0 1.4.546 1.4 1.778zM363.326 69l.852-2.58h3.336l.876 2.58h1.212l-3.024-8.688h-1.44L362.21 69h1.116zm3.912-3.528h-2.796l1.392-4.152h.012l1.392 4.152zM373.694 69l2.316-6.168h-1.116l-1.788 5.076h-.012l-1.812-5.076h-1.188L372.446 69h1.248zm5.544 2.712c1.548 0 3.168-.456 3.168-1.968 0-1.212-.744-1.524-2.016-1.608l-1.716-.12c-.66-.048-.792-.228-.792-.468 0-.252.216-.42.384-.576.312.108.696.144 1.104.144 1.416 0 2.52-.816 2.52-2.208 0-.504-.156-.996-.456-1.344.312-.096.804-.156 1.176-.132v-.876c-.18-.06-.348-.096-.54-.096-.456 0-.78.36-.972.804-.408-.408-1.032-.564-1.788-.564-1.596 0-2.616.912-2.616 2.268 0 .792.348 1.428.912 1.728-.432.336-.816.684-.816 1.212 0 .444.252.684.672.852v.012c-.504.24-.996.72-.996 1.416 0 .732.468 1.524 2.772 1.524zm.084-5.496c-1.092 0-1.536-.516-1.536-1.32 0-.948.696-1.32 1.56-1.32.924 0 1.488.42 1.488 1.344 0 .828-.612 1.296-1.512 1.296zm.048 4.632c-1.392 0-1.812-.348-1.812-.864 0-.408.216-.66.684-.972l2.004.12c.84.06 1.032.3 1.032.744 0 .648-.636.972-1.908.972zm4.692-6.252c.528 0 .816-.276.816-.804s-.288-.804-.816-.804-.816.276-.816.804c0 .54.288.804.816.804zm0 4.548c.528 0 .816-.276.816-.804s-.288-.804-.816-.804-.816.276-.816.804c0 .54.288.804.816.804zm6.276-.144l3.54-7.848v-.84h-5.472v.96h4.32L389.174 69h1.164zm6.984.144c1.776 0 2.88-1.032 2.88-2.388 0-1.356-.78-1.896-1.812-2.352 1.008-.528 1.656-1.212 1.656-2.256 0-1.236-.936-1.992-2.508-1.992-1.536 0-2.688.756-2.688 2.28 0 1.044.684 1.716 1.536 2.112-1.056.48-1.824 1.164-1.824 2.364 0 1.236.828 2.232 2.76 2.232zm.168-5.136c-.756-.384-1.524-.84-1.524-1.728 0-.78.576-1.224 1.512-1.224 1.02 0 1.464.408 1.464 1.152 0 .768-.612 1.368-1.452 1.8zm-.132 4.212c-1.224 0-1.68-.576-1.68-1.38 0-.96.684-1.428 1.548-1.836.84.312 1.836.744 1.836 1.752 0 .756-.456 1.464-1.704 1.464zm5.508-3.708c1.308 0 1.992-.924 1.992-2.268 0-1.26-.552-2.088-1.896-2.088-1.332 0-2.016.924-2.016 2.244 0 1.116.48 2.112 1.92 2.112zm.216 4.68l5.256-8.88h-.972l-5.268 8.88h.984zm-.18-5.472c-.792 0-1.008-.564-1.008-1.392 0-.72.24-1.392 1.032-1.392.78 0 .984.564.984 1.356 0 .876-.228 1.428-1.008 1.428zm4.776 5.424c1.308 0 1.992-.924 1.992-2.268 0-1.26-.552-2.088-1.896-2.088-1.332 0-2.016.924-2.016 2.244 0 1.116.48 2.112 1.92 2.112zm.036-.792c-.792 0-1.008-.564-1.008-1.392 0-.72.24-1.392 1.032-1.392.78 0 .984.564.984 1.356 0 .876-.228 1.428-1.008 1.428zM370.66 31c3.108 0 4.512-1.812 4.512-4.476 0-2.592-1.296-4.212-4.308-4.212h-2.82V31h2.616zm-.012-1.14h-1.2v-6.408h1.308c1.92 0 2.976.744 2.976 3.204 0 2.004-.936 3.204-3.084 3.204zm8.508 1.284c2.136 0 3.024-1.32 3.024-3.36 0-1.836-.816-3.12-2.868-3.12s-3.084 1.272-3.084 3.264c0 1.848.744 3.216 2.928 3.216zm.072-1.068c-1.08 0-1.56-.684-1.56-2.196s.612-2.1 1.596-2.1c.972 0 1.476.528 1.476 2.076 0 1.596-.564 2.22-1.512 2.22zm7.032.924l1.116-4.548h.024L388.564 31h1.584l1.896-6.204H390.7l-1.32 4.752h-.012l-1.248-4.752h-1.392l-1.248 4.776h-.012l-1.356-4.776h-1.392L384.616 31h1.644zm8.04 0v-4.524c.3-.276.948-.66 1.572-.66.732 0 1.02.408 1.02 1.188V31h1.38v-4.224c0-1.404-.576-2.112-1.92-2.112-.852 0-1.596.336-2.148.78l-.06-.648h-1.224V31h1.38zm7.02 0v-9.06h-1.38V31h1.38zm4.272.144c2.136 0 3.024-1.32 3.024-3.36 0-1.836-.816-3.12-2.868-3.12s-3.084 1.272-3.084 3.264c0 1.848.744 3.216 2.928 3.216zm.072-1.068c-1.08 0-1.56-.684-1.56-2.196s.612-2.1 1.596-2.1c.972 0 1.476.528 1.476 2.076 0 1.596-.564 2.22-1.512 2.22zm5.868 1.068c.864 0 1.548-.3 1.968-.756.108.48.396.732 1.044.732.336 0 .732-.084.972-.204l-.048-.816c-.156.048-.264.072-.372.072-.312 0-.372-.144-.372-.48v-2.868c0-1.548-.744-2.16-2.328-2.16-1.524 0-2.268.624-2.46 1.788l1.212.216c.132-.648.384-.96 1.14-.96.912 0 1.08.432 1.08 1.188v.468c-.168-.012-.348-.024-.636-.024-1.668 0-3.036.528-3.036 2.136 0 .612.276 1.668 1.836 1.668zm.492-1.032c-.732 0-.924-.396-.924-.828 0-.912 1.008-.996 1.704-.996.312 0 .456.012.576.024v1.224c-.276.288-.792.576-1.356.576zm6.648 1.032c.852 0 1.464-.3 1.956-.768h.024l.096.624h1.152v-9.06h-1.344v3.264c-.42-.36-.96-.54-1.668-.54-1.344 0-2.616.876-2.616 3.336 0 2.244.972 3.144 2.4 3.144zm.444-1.116c-.996 0-1.416-.696-1.416-2.04 0-1.296.396-2.196 1.476-2.196.588 0 1.08.276 1.344.48v3.12c-.336.348-.876.636-1.404.636zM38.244 125v-3.156h1.32c2.088 0 3.312-.864 3.312-2.928 0-1.38-.672-2.604-2.892-2.604h-2.832V125h1.092zm1.236-4.104h-1.236v-3.648h1.416c1.392 0 2.076.48 2.076 1.728 0 1.62-.996 1.92-2.256 1.92zm6.408 4.248c.864 0 1.5-.276 1.98-.756.06.396.336.732.948.732.3 0 .612-.072.852-.192l-.048-.684c-.156.048-.264.072-.372.072-.312 0-.372-.144-.372-.48v-3.012c0-1.536-.684-2.124-2.208-2.124-1.428 0-2.172.54-2.364 1.692l.96.18c.132-.684.456-1.02 1.308-1.02 1.008 0 1.224.48 1.224 1.26v.6c-.168-.012-.348-.024-.54-.024-1.74 0-3.192.456-3.192 2.1 0 .6.264 1.656 1.824 1.656zm.336-.852c-.84 0-1.032-.456-1.032-.984 0-1.056 1.14-1.14 1.992-1.14.228 0 .456.012.624.036v1.392c-.336.36-.948.696-1.584.696zm5.772.708v-4.488c.504-.468 1.416-.78 2.184-.672v-1.128l-.228-.012c-.864 0-1.512.288-2.052 1.02l-.084-.888h-.912V125h1.092zm4.8.144c.864 0 1.5-.276 1.98-.756.06.396.336.732.948.732.3 0 .612-.072.852-.192l-.048-.684c-.156.048-.264.072-.372.072-.312 0-.372-.144-.372-.48v-3.012c0-1.536-.684-2.124-2.208-2.124-1.428 0-2.172.54-2.364 1.692l.96.18c.132-.684.456-1.02 1.308-1.02 1.008 0 1.224.48 1.224 1.26v.6c-.168-.012-.348-.024-.54-.024-1.74 0-3.192.456-3.192 2.1 0 .6.264 1.656 1.824 1.656zm.336-.852c-.84 0-1.032-.456-1.032-.984 0-1.056 1.14-1.14 1.992-1.14.228 0 .456.012.624.036v1.392c-.336.36-.948.696-1.584.696zm5.772.708v-9.06h-1.092V125h1.092zm2.988 0v-9.06H64.8V125h1.092zm4.356.144c1.236 0 2.196-.588 2.448-1.788l-.96-.216c-.168.696-.576 1.092-1.452 1.092-.984 0-1.68-.492-1.728-2.064h4.152c.036-.288.048-.564.048-.804 0-1.524-.72-2.664-2.448-2.664-1.584 0-2.904.972-2.904 3.228 0 1.692.66 3.216 2.844 3.216zm1.38-3.84h-3.06c.06-1.224.852-1.716 1.668-1.716.972 0 1.392.612 1.392 1.716zM75.432 125v-9.06H74.34V125h1.092zm6.924.144c1.608 0 3.072-.72 3.072-2.556 0-1.68-1.38-2.088-2.652-2.46-1.08-.324-2.076-.624-2.076-1.68 0-.768.48-1.356 1.812-1.356 1.344 0 1.68.804 1.812 1.632l1.032-.12c-.18-1.86-1.332-2.448-2.856-2.448-1.68 0-2.928.912-2.928 2.4 0 1.788 1.404 2.16 2.688 2.52 1.068.3 2.04.588 2.04 1.668 0 1.152-.996 1.464-1.932 1.464-1.488 0-1.92-.804-2.124-1.728l-1.056.156c.228 1.788 1.356 2.508 3.168 2.508zm6.468 0c.576 0 1.212-.204 1.512-.408l-.192-.792c-.264.144-.708.3-1.08.3-.744 0-.888-.36-.888-1.008v-3.528h1.704v-.876h-1.704v-1.956l-1.092.168v1.788h-.948v.876h.948v3.672c0 1.236.588 1.764 1.74 1.764zm3.708-.144v-4.488c.504-.468 1.416-.78 2.184-.672v-1.128l-.228-.012c-.864 0-1.512.288-2.052 1.02l-.084-.888h-.912V125h1.092zm5.136.12c.852 0 1.584-.336 2.184-.828l.072.708h.948v-6.168H99.78v4.584c-.324.3-1.08.756-1.788.756-.912 0-1.116-.468-1.116-1.32v-4.02h-1.092v4.188c0 1.38.576 2.1 1.884 2.1zm7.56.024c1.236 0 2.328-.6 2.532-2.028l-.96-.204c-.156.912-.696 1.32-1.536 1.32-.984 0-1.728-.552-1.728-2.388 0-1.752.876-2.232 1.764-2.232.864 0 1.284.468 1.38 1.38l1.044-.144c-.084-1.428-.996-2.148-2.376-2.148-1.848 0-2.952 1.128-2.952 3.276 0 1.848.792 3.168 2.832 3.168zm5.94 0c.576 0 1.212-.204 1.512-.408l-.192-.792c-.264.144-.708.3-1.08.3-.744 0-.888-.36-.888-1.008v-3.528h1.704v-.876h-1.704v-1.956l-1.092.168v1.788h-.948v.876h.948v3.672c0 1.236.588 1.764 1.74 1.764zm4.476-.024c.852 0 1.584-.336 2.184-.828l.072.708h.948v-6.168h-1.092v4.584c-.324.3-1.08.756-1.788.756-.912 0-1.116-.468-1.116-1.32v-4.02h-1.092v4.188c0 1.38.576 2.1 1.884 2.1zm6.204-.12v-4.488c.504-.468 1.416-.78 2.184-.672v-1.128l-.228-.012c-.864 0-1.512.288-2.052 1.02l-.084-.888h-.912V125h1.092zm5.736.144c1.236 0 2.196-.588 2.448-1.788l-.96-.216c-.168.696-.576 1.092-1.452 1.092-.984 0-1.68-.492-1.728-2.064h4.152c.036-.288.048-.564.048-.804 0-1.524-.72-2.664-2.448-2.664-1.584 0-2.904.972-2.904 3.228 0 1.692.66 3.216 2.844 3.216zm1.38-3.84h-3.06c.06-1.224.852-1.716 1.668-1.716.972 0 1.392.612 1.392 1.716zM38.244 158v-3.156h1.32c2.088 0 3.312-.864 3.312-2.928 0-1.38-.672-2.604-2.892-2.604h-2.832V158h1.092zm1.236-4.104h-1.236v-3.648h1.416c1.392 0 2.076.48 2.076 1.728 0 1.62-.996 1.92-2.256 1.92zm6.408 4.248c.864 0 1.5-.276 1.98-.756.06.396.336.732.948.732.3 0 .612-.072.852-.192l-.048-.684c-.156.048-.264.072-.372.072-.312 0-.372-.144-.372-.48v-3.012c0-1.536-.684-2.124-2.208-2.124-1.428 0-2.172.54-2.364 1.692l.96.18c.132-.684.456-1.02 1.308-1.02 1.008 0 1.224.48 1.224 1.26v.6c-.168-.012-.348-.024-.54-.024-1.74 0-3.192.456-3.192 2.1 0 .6.264 1.656 1.824 1.656zm.336-.852c-.84 0-1.032-.456-1.032-.984 0-1.056 1.14-1.14 1.992-1.14.228 0 .456.012.624.036v1.392c-.336.36-.948.696-1.584.696zm5.772.708v-4.488c.504-.468 1.416-.78 2.184-.672v-1.128l-.228-.012c-.864 0-1.512.288-2.052 1.02l-.084-.888h-.912V158h1.092zm4.8.144c.864 0 1.5-.276 1.98-.756.06.396.336.732.948.732.3 0 .612-.072.852-.192l-.048-.684c-.156.048-.264.072-.372.072-.312 0-.372-.144-.372-.48v-3.012c0-1.536-.684-2.124-2.208-2.124-1.428 0-2.172.54-2.364 1.692l.96.18c.132-.684.456-1.02 1.308-1.02 1.008 0 1.224.48 1.224 1.26v.6c-.168-.012-.348-.024-.54-.024-1.74 0-3.192.456-3.192 2.1 0 .6.264 1.656 1.824 1.656zm.336-.852c-.84 0-1.032-.456-1.032-.984 0-1.056 1.14-1.14 1.992-1.14.228 0 .456.012.624.036v1.392c-.336.36-.948.696-1.584.696zm5.772.708v-9.06h-1.092V158h1.092zm2.988 0v-9.06H64.8V158h1.092zm4.356.144c1.236 0 2.196-.588 2.448-1.788l-.96-.216c-.168.696-.576 1.092-1.452 1.092-.984 0-1.68-.492-1.728-2.064h4.152c.036-.288.048-.564.048-.804 0-1.524-.72-2.664-2.448-2.664-1.584 0-2.904.972-2.904 3.228 0 1.692.66 3.216 2.844 3.216zm1.38-3.84h-3.06c.06-1.224.852-1.716 1.668-1.716.972 0 1.392.612 1.392 1.716zM75.432 158v-9.06H74.34V158h1.092zm6.924.144c1.608 0 3.072-.72 3.072-2.556 0-1.68-1.38-2.088-2.652-2.46-1.08-.324-2.076-.624-2.076-1.68 0-.768.48-1.356 1.812-1.356 1.344 0 1.68.804 1.812 1.632l1.032-.12c-.18-1.86-1.332-2.448-2.856-2.448-1.68 0-2.928.912-2.928 2.4 0 1.788 1.404 2.16 2.688 2.52 1.068.3 2.04.588 2.04 1.668 0 1.152-.996 1.464-1.932 1.464-1.488 0-1.92-.804-2.124-1.728l-1.056.156c.228 1.788 1.356 2.508 3.168 2.508zm6.468 0c.576 0 1.212-.204 1.512-.408l-.192-.792c-.264.144-.708.3-1.08.3-.744 0-.888-.36-.888-1.008v-3.528h1.704v-.876h-1.704v-1.956l-1.092.168v1.788h-.948v.876h.948v3.672c0 1.236.588 1.764 1.74 1.764zm3.708-.144v-4.488c.504-.468 1.416-.78 2.184-.672v-1.128l-.228-.012c-.864 0-1.512.288-2.052 1.02l-.084-.888h-.912V158h1.092zm5.136.12c.852 0 1.584-.336 2.184-.828l.072.708h.948v-6.168H99.78v4.584c-.324.3-1.08.756-1.788.756-.912 0-1.116-.468-1.116-1.32v-4.02h-1.092v4.188c0 1.38.576 2.1 1.884 2.1zm7.56.024c1.236 0 2.328-.6 2.532-2.028l-.96-.204c-.156.912-.696 1.32-1.536 1.32-.984 0-1.728-.552-1.728-2.388 0-1.752.876-2.232 1.764-2.232.864 0 1.284.468 1.38 1.38l1.044-.144c-.084-1.428-.996-2.148-2.376-2.148-1.848 0-2.952 1.128-2.952 3.276 0 1.848.792 3.168 2.832 3.168zm5.94 0c.576 0 1.212-.204 1.512-.408l-.192-.792c-.264.144-.708.3-1.08.3-.744 0-.888-.36-.888-1.008v-3.528h1.704v-.876h-1.704v-1.956l-1.092.168v1.788h-.948v.876h.948v3.672c0 1.236.588 1.764 1.74 1.764zm4.476-.024c.852 0 1.584-.336 2.184-.828l.072.708h.948v-6.168h-1.092v4.584c-.324.3-1.08.756-1.788.756-.912 0-1.116-.468-1.116-1.32v-4.02h-1.092v4.188c0 1.38.576 2.1 1.884 2.1zm6.204-.12v-4.488c.504-.468 1.416-.78 2.184-.672v-1.128l-.228-.012c-.864 0-1.512.288-2.052 1.02l-.084-.888h-.912V158h1.092zm5.736.144c1.236 0 2.196-.588 2.448-1.788l-.96-.216c-.168.696-.576 1.092-1.452 1.092-.984 0-1.68-.492-1.728-2.064h4.152c.036-.288.048-.564.048-.804 0-1.524-.72-2.664-2.448-2.664-1.584 0-2.904.972-2.904 3.228 0 1.692.66 3.216 2.844 3.216zm1.38-3.84h-3.06c.06-1.224.852-1.716 1.668-1.716.972 0 1.392.612 1.392 1.716zm7.608 3.696l1.26-4.86h.012l1.272 4.86h1.272l1.92-6.168h-1.056l-1.464 4.992h-.012l-1.344-4.992h-1.128l-1.356 5.016-1.5-5.016h-1.104l1.932 6.168h1.296zm7.344-7.356c.492 0 .78-.288.78-.792s-.288-.78-.78-.78c-.492 0-.768.276-.768.78s.276.792.768.792zm.528 7.356v-6.168h-1.092V158h1.092zm3.828.144c.576 0 1.212-.204 1.512-.408l-.192-.792c-.264.144-.708.3-1.08.3-.744 0-.888-.36-.888-1.008v-3.528h1.704v-.876h-1.704v-1.956l-1.092.168v1.788h-.948v.876h.948v3.672c0 1.236.588 1.764 1.74 1.764zm3.708-.144v-4.596c.324-.288 1.092-.744 1.8-.744.84 0 1.152.468 1.152 1.32V158h1.092v-4.188c0-1.392-.576-2.112-1.884-2.112-.864 0-1.572.36-2.172.828v-3.588h-1.08V158h1.092zm10.056.144c1.464 0 2.376-.612 2.376-2.34v-6.492h-1.104v6.54c0 1.14-.54 1.356-1.248 1.356-.96 0-1.14-.492-1.224-1.272l-1.056.18c.096 1.428.84 2.028 2.256 2.028zm6.852 0c2.076 0 2.916-1.32 2.916-3.348 0-1.836-.804-3.096-2.76-3.096-1.968 0-3 1.248-3 3.24 0 1.824.708 3.204 2.844 3.204zm.06-.876c-1.2 0-1.776-.744-1.776-2.376 0-1.644.732-2.292 1.824-2.292 1.068 0 1.668.564 1.668 2.268 0 1.752-.648 2.4-1.716 2.4zm4.98-6.624c.492 0 .78-.288.78-.792s-.288-.78-.78-.78c-.492 0-.768.276-.768.78s.276.792.768.792zm.528 7.356v-6.168h-1.092V158h1.092zm2.988 0v-4.596c.324-.288 1.092-.744 1.8-.744.84 0 1.152.468 1.152 1.32V158h1.092v-4.188c0-1.392-.576-2.112-1.896-2.112-.852 0-1.62.384-2.22.864l-.06-.732h-.96V158h1.092zm6.456-7.356c.492 0 .78-.288.78-.792s-.288-.78-.78-.78c-.492 0-.768.276-.768.78s.276.792.768.792zm.528 7.356v-6.168h-1.092V158h1.092zm2.988 0v-4.596c.324-.288 1.092-.744 1.8-.744.84 0 1.152.468 1.152 1.32V158h1.092v-4.188c0-1.392-.576-2.112-1.896-2.112-.852 0-1.62.384-2.22.864l-.06-.732h-.96V158h1.092zm8.076 2.712c1.548 0 3.168-.456 3.168-1.968 0-1.212-.744-1.524-2.016-1.608l-1.716-.12c-.66-.048-.792-.228-.792-.468 0-.252.216-.42.384-.576.312.108.696.144 1.104.144 1.416 0 2.52-.816 2.52-2.208 0-.504-.156-.996-.456-1.344.312-.096.804-.156 1.176-.132v-.876c-.18-.06-.348-.096-.54-.096-.456 0-.78.36-.972.804-.408-.408-1.032-.564-1.788-.564-1.596 0-2.616.912-2.616 2.268 0 .792.348 1.428.912 1.728-.432.336-.816.684-.816 1.212 0 .444.252.684.672.852v.012c-.504.24-.996.72-.996 1.416 0 .732.468 1.524 2.772 1.524zm.084-5.496c-1.092 0-1.536-.516-1.536-1.32 0-.948.696-1.32 1.56-1.32.924 0 1.488.42 1.488 1.344 0 .828-.612 1.296-1.512 1.296zm.048 4.632c-1.392 0-1.812-.348-1.812-.864 0-.408.216-.66.684-.972l2.004.12c.84.06 1.032.3 1.032.744 0 .648-.636.972-1.908.972zm9.372-1.848l1.896-7.14h.012l1.848 7.14h1.404l1.836-8.688h-1.104l-1.428 7.488h-.012l-1.92-7.488h-1.224l-1.92 7.392h-.012l-1.488-7.392h-1.152l1.896 8.688h1.368zm10.62.144c2.076 0 2.916-1.32 2.916-3.348 0-1.836-.804-3.096-2.76-3.096-1.968 0-3 1.248-3 3.24 0 1.824.708 3.204 2.844 3.204zm.06-.876c-1.2 0-1.776-.744-1.776-2.376 0-1.644.732-2.292 1.824-2.292 1.068 0 1.668.564 1.668 2.268 0 1.752-.648 2.4-1.716 2.4zm5.508.732v-4.488c.504-.468 1.416-.78 2.184-.672v-1.128l-.228-.012c-.864 0-1.512.288-2.052 1.02l-.084-.888h-.912V158h1.092zm5.256.144c.888 0 1.512-.336 2.04-.816l.012.012.084.66h.912v-9.06h-1.068v3.336c-.432-.348-1.02-.576-1.728-.576-1.368 0-2.604.876-2.604 3.312 0 2.244.948 3.132 2.352 3.132zm.324-.912c-1.08 0-1.548-.72-1.548-2.22 0-1.428.432-2.376 1.62-2.376.708 0 1.284.324 1.572.54v3.3c-.384.384-1.008.756-1.644.756zm6.576.912c1.5 0 2.412-.696 2.412-1.872 0-1.38-1.068-1.608-2.196-1.848-.864-.18-1.368-.36-1.368-.996 0-.468.288-.864 1.188-.864.9 0 1.14.432 1.284 1.14l.984-.216c-.192-1.092-.792-1.788-2.256-1.788-1.248 0-2.28.612-2.28 1.86 0 1.44 1.212 1.656 2.22 1.86.84.168 1.344.288 1.344.972 0 .66-.54.888-1.284.888-1.092 0-1.368-.528-1.536-1.188l-.972.264c.192 1.236 1.044 1.788 2.46 1.788zM37.548 193l.852-2.58h3.336l.876 2.58h1.212l-3.024-8.688h-1.44L36.432 193h1.116zm3.912-3.528h-2.796l1.392-4.152h.012l1.392 4.152zm5.736 3.672c.888 0 1.512-.336 2.04-.816l.012.012.084.66h.912v-9.06h-1.068v3.336c-.432-.348-1.02-.576-1.728-.576-1.368 0-2.604.876-2.604 3.312 0 2.244.948 3.132 2.352 3.132zm.324-.912c-1.08 0-1.548-.72-1.548-2.22 0-1.428.432-2.376 1.62-2.376.708 0 1.284.324 1.572.54v3.3c-.384.384-1.008.756-1.644.756zm7.32.768l2.316-6.168H56.04l-1.788 5.076h-.012l-1.812-5.076H51.24L53.592 193h1.248zm4.884.144c.864 0 1.5-.276 1.98-.756.06.396.336.732.948.732.3 0 .612-.072.852-.192l-.048-.684c-.156.048-.264.072-.372.072-.312 0-.372-.144-.372-.48v-3.012c0-1.536-.684-2.124-2.208-2.124-1.428 0-2.172.54-2.364 1.692l.96.18c.132-.684.456-1.02 1.308-1.02 1.008 0 1.224.48 1.224 1.26v.6c-.168-.012-.348-.024-.54-.024-1.74 0-3.192.456-3.192 2.1 0 .6.264 1.656 1.824 1.656zm.336-.852c-.84 0-1.032-.456-1.032-.984 0-1.056 1.14-1.14 1.992-1.14.228 0 .456.012.624.036v1.392c-.336.36-.948.696-1.584.696zm5.772.708v-4.596c.324-.288 1.092-.744 1.8-.744.84 0 1.152.468 1.152 1.32V193h1.092v-4.188c0-1.392-.576-2.112-1.896-2.112-.852 0-1.62.384-2.22.864l-.06-.732h-.96V193h1.092zm8.34.144c1.236 0 2.328-.6 2.532-2.028l-.96-.204c-.156.912-.696 1.32-1.536 1.32-.984 0-1.728-.552-1.728-2.388 0-1.752.876-2.232 1.764-2.232.864 0 1.284.468 1.38 1.38l1.044-.144c-.084-1.428-.996-2.148-2.376-2.148-1.848 0-2.952 1.128-2.952 3.276 0 1.848.792 3.168 2.832 3.168zm6.468 0c1.236 0 2.196-.588 2.448-1.788l-.96-.216c-.168.696-.576 1.092-1.452 1.092-.984 0-1.68-.492-1.728-2.064H83.1c.036-.288.048-.564.048-.804 0-1.524-.72-2.664-2.448-2.664-1.584 0-2.904.972-2.904 3.228 0 1.692.66 3.216 2.844 3.216zm1.38-3.84h-3.06c.06-1.224.852-1.716 1.668-1.716.972 0 1.392.612 1.392 1.716zm4.692 3.84c.888 0 1.512-.336 2.04-.816l.012.012.084.66h.912v-9.06h-1.068v3.336c-.432-.348-1.02-.576-1.728-.576-1.368 0-2.604.876-2.604 3.312 0 2.244.948 3.132 2.352 3.132zm.324-.912c-1.08 0-1.548-.72-1.548-2.22 0-1.428.432-2.376 1.62-2.376.708 0 1.284.324 1.572.54v3.3c-.384.384-1.008.756-1.644.756zm8.46.768v-3.156h1.32c2.088 0 3.312-.864 3.312-2.928 0-1.38-.672-2.604-2.892-2.604h-2.832V193h1.092zm1.236-4.104h-1.236v-3.648h1.416c1.392 0 2.076.48 2.076 1.728 0 1.62-.996 1.92-2.256 1.92zm6.408 4.248c.864 0 1.5-.276 1.98-.756.06.396.336.732.948.732.3 0 .612-.072.852-.192l-.048-.684c-.156.048-.264.072-.372.072-.312 0-.372-.144-.372-.48v-3.012c0-1.536-.684-2.124-2.208-2.124-1.428 0-2.172.54-2.364 1.692l.96.18c.132-.684.456-1.02 1.308-1.02 1.008 0 1.224.48 1.224 1.26v.6c-.168-.012-.348-.024-.54-.024-1.74 0-3.192.456-3.192 2.1 0 .6.264 1.656 1.824 1.656zm.336-.852c-.84 0-1.032-.456-1.032-.984 0-1.056 1.14-1.14 1.992-1.14.228 0 .456.012.624.036v1.392c-.336.36-.948.696-1.584.696zm5.772.708v-4.488c.504-.468 1.416-.78 2.184-.672v-1.128l-.228-.012c-.864 0-1.512.288-2.052 1.02l-.084-.888h-.912V193h1.092zm4.8.144c.864 0 1.5-.276 1.98-.756.06.396.336.732.948.732.3 0 .612-.072.852-.192l-.048-.684c-.156.048-.264.072-.372.072-.312 0-.372-.144-.372-.48v-3.012c0-1.536-.684-2.124-2.208-2.124-1.428 0-2.172.54-2.364 1.692l.96.18c.132-.684.456-1.02 1.308-1.02 1.008 0 1.224.48 1.224 1.26v.6c-.168-.012-.348-.024-.54-.024-1.74 0-3.192.456-3.192 2.1 0 .6.264 1.656 1.824 1.656zm.336-.852c-.84 0-1.032-.456-1.032-.984 0-1.056 1.14-1.14 1.992-1.14.228 0 .456.012.624.036v1.392c-.336.36-.948.696-1.584.696zm5.772.708v-9.06h-1.092V193h1.092zm2.988 0v-9.06h-1.092V193h1.092zm4.356.144c1.236 0 2.196-.588 2.448-1.788l-.96-.216c-.168.696-.576 1.092-1.452 1.092-.984 0-1.68-.492-1.728-2.064h4.152c.036-.288.048-.564.048-.804 0-1.524-.72-2.664-2.448-2.664-1.584 0-2.904.972-2.904 3.228 0 1.692.66 3.216 2.844 3.216zm1.38-3.84h-3.06c.06-1.224.852-1.716 1.668-1.716.972 0 1.392.612 1.392 1.716zm3.804 3.696v-9.06h-1.092V193h1.092zm6.924.144c1.608 0 3.072-.72 3.072-2.556 0-1.68-1.38-2.088-2.652-2.46-1.08-.324-2.076-.624-2.076-1.68 0-.768.48-1.356 1.812-1.356 1.344 0 1.68.804 1.812 1.632l1.032-.12c-.18-1.86-1.332-2.448-2.856-2.448-1.68 0-2.928.912-2.928 2.4 0 1.788 1.404 2.16 2.688 2.52 1.068.3 2.04.588 2.04 1.668 0 1.152-.996 1.464-1.932 1.464-1.488 0-1.92-.804-2.124-1.728l-1.056.156c.228 1.788 1.356 2.508 3.168 2.508zm6.468 0c.576 0 1.212-.204 1.512-.408l-.192-.792c-.264.144-.708.3-1.08.3-.744 0-.888-.36-.888-1.008v-3.528h1.704v-.876h-1.704v-1.956l-1.092.168v1.788h-.948v.876h.948v3.672c0 1.236.588 1.764 1.74 1.764zm3.708-.144v-4.488c.504-.468 1.416-.78 2.184-.672v-1.128l-.228-.012c-.864 0-1.512.288-2.052 1.02l-.084-.888h-.912V193h1.092zm5.136.12c.852 0 1.584-.336 2.184-.828l.072.708h.948v-6.168h-1.092v4.584c-.324.3-1.08.756-1.788.756-.912 0-1.116-.468-1.116-1.32v-4.02h-1.092v4.188c0 1.38.576 2.1 1.884 2.1zm7.56.024c1.236 0 2.328-.6 2.532-2.028l-.96-.204c-.156.912-.696 1.32-1.536 1.32-.984 0-1.728-.552-1.728-2.388 0-1.752.876-2.232 1.764-2.232.864 0 1.284.468 1.38 1.38l1.044-.144c-.084-1.428-.996-2.148-2.376-2.148-1.848 0-2.952 1.128-2.952 3.276 0 1.848.792 3.168 2.832 3.168zm5.94 0c.576 0 1.212-.204 1.512-.408l-.192-.792c-.264.144-.708.3-1.08.3-.744 0-.888-.36-.888-1.008v-3.528h1.704v-.876h-1.704v-1.956l-1.092.168v1.788h-.948v.876h.948v3.672c0 1.236.588 1.764 1.74 1.764zm4.476-.024c.852 0 1.584-.336 2.184-.828l.072.708h.948v-6.168h-1.092v4.584c-.324.3-1.08.756-1.788.756-.912 0-1.116-.468-1.116-1.32v-4.02h-1.092v4.188c0 1.38.576 2.1 1.884 2.1zm6.204-.12v-4.488c.504-.468 1.416-.78 2.184-.672v-1.128l-.228-.012c-.864 0-1.512.288-2.052 1.02l-.084-.888h-.912V193h1.092zm5.736.144c1.236 0 2.196-.588 2.448-1.788l-.96-.216c-.168.696-.576 1.092-1.452 1.092-.984 0-1.68-.492-1.728-2.064h4.152c.036-.288.048-.564.048-.804 0-1.524-.72-2.664-2.448-2.664-1.584 0-2.904.972-2.904 3.228 0 1.692.66 3.216 2.844 3.216zm1.38-3.84h-3.06c.06-1.224.852-1.716 1.668-1.716.972 0 1.392.612 1.392 1.716zM390.816 125l3.54-7.848v-.84h-5.472v.96h4.32L389.652 125h1.164zm6.792.144c2.592 0 3.084-2.484 3.084-4.776 0-2.268-.48-4.212-2.724-4.212-1.62 0-2.76 1.044-2.76 2.928 0 1.596.768 2.592 2.292 2.592.912 0 1.728-.456 2.136-.912-.036 1.848-.48 3.48-1.968 3.48-.78 0-1.284-.324-1.512-1.284l-.984.288c.264 1.392 1.224 1.896 2.436 1.896zm.108-4.38c-.948 0-1.416-.6-1.416-1.716 0-1.368.672-1.992 1.584-1.992 1.428 0 1.632 1.452 1.692 2.76-.444.528-1.14.948-1.86.948zm5.928-.252c1.308 0 1.992-.924 1.992-2.268 0-1.26-.552-2.088-1.896-2.088-1.332 0-2.016.924-2.016 2.244 0 1.116.48 2.112 1.92 2.112zm.216 4.68l5.256-8.88h-.972l-5.268 8.88h.984zm-.18-5.472c-.792 0-1.008-.564-1.008-1.392 0-.72.24-1.392 1.032-1.392.78 0 .984.564.984 1.356 0 .876-.228 1.428-1.008 1.428zm4.776 5.424c1.308 0 1.992-.924 1.992-2.268 0-1.26-.552-2.088-1.896-2.088-1.332 0-2.016.924-2.016 2.244 0 1.116.48 2.112 1.92 2.112zm.036-.792c-.792 0-1.008-.564-1.008-1.392 0-.72.24-1.392 1.032-1.392.78 0 .984.564.984 1.356 0 .876-.228 1.428-1.008 1.428zM391.128 158.144c2.592 0 3.084-2.484 3.084-4.776 0-2.268-.48-4.212-2.724-4.212-1.62 0-2.76 1.044-2.76 2.928 0 1.596.768 2.592 2.292 2.592.912 0 1.728-.456 2.136-.912-.036 1.848-.48 3.48-1.968 3.48-.78 0-1.284-.324-1.512-1.284l-.984.288c.264 1.392 1.224 1.896 2.436 1.896zm.108-4.38c-.948 0-1.416-.6-1.416-1.716 0-1.368.672-1.992 1.584-1.992 1.428 0 1.632 1.452 1.692 2.76-.444.528-1.14.948-1.86.948zm6.864 4.38c1.776 0 2.88-1.032 2.88-2.388 0-1.356-.78-1.896-1.812-2.352 1.008-.528 1.656-1.212 1.656-2.256 0-1.236-.936-1.992-2.508-1.992-1.536 0-2.688.756-2.688 2.28 0 1.044.684 1.716 1.536 2.112-1.056.48-1.824 1.164-1.824 2.364 0 1.236.828 2.232 2.76 2.232zm.168-5.136c-.756-.384-1.524-.84-1.524-1.728 0-.78.576-1.224 1.512-1.224 1.02 0 1.464.408 1.464 1.152 0 .768-.612 1.368-1.452 1.8zm-.132 4.212c-1.224 0-1.68-.576-1.68-1.38 0-.96.684-1.428 1.548-1.836.84.312 1.836.744 1.836 1.752 0 .756-.456 1.464-1.704 1.464zm5.508-3.708c1.308 0 1.992-.924 1.992-2.268 0-1.26-.552-2.088-1.896-2.088-1.332 0-2.016.924-2.016 2.244 0 1.116.48 2.112 1.92 2.112zm.216 4.68l5.256-8.88h-.972l-5.268 8.88h.984zm-.18-5.472c-.792 0-1.008-.564-1.008-1.392 0-.72.24-1.392 1.032-1.392.78 0 .984.564.984 1.356 0 .876-.228 1.428-1.008 1.428zm4.776 5.424c1.308 0 1.992-.924 1.992-2.268 0-1.26-.552-2.088-1.896-2.088-1.332 0-2.016.924-2.016 2.244 0 1.116.48 2.112 1.92 2.112zm.036-.792c-.792 0-1.008-.564-1.008-1.392 0-.72.24-1.392 1.032-1.392.78 0 .984.564.984 1.356 0 .876-.228 1.428-1.008 1.428zM391.368 193.144c1.812 0 2.904-1.224 2.904-3.012 0-2.016-1.176-2.652-2.364-2.652-.768 0-1.308.264-1.704.588l.252-2.796h3.3v-.96h-4.152l-.336 4.428.744.336c.42-.396.936-.66 1.548-.66.888 0 1.572.48 1.572 1.752 0 1.476-.888 2.028-1.752 2.028-1.116 0-1.452-.648-1.584-1.332l-1.02.252c.216 1.452 1.344 2.028 2.592 2.028zm6.732 0c1.776 0 2.88-1.032 2.88-2.388 0-1.356-.78-1.896-1.812-2.352 1.008-.528 1.656-1.212 1.656-2.256 0-1.236-.936-1.992-2.508-1.992-1.536 0-2.688.756-2.688 2.28 0 1.044.684 1.716 1.536 2.112-1.056.48-1.824 1.164-1.824 2.364 0 1.236.828 2.232 2.76 2.232zm.168-5.136c-.756-.384-1.524-.84-1.524-1.728 0-.78.576-1.224 1.512-1.224 1.02 0 1.464.408 1.464 1.152 0 .768-.612 1.368-1.452 1.8zm-.132 4.212c-1.224 0-1.68-.576-1.68-1.38 0-.96.684-1.428 1.548-1.836.84.312 1.836.744 1.836 1.752 0 .756-.456 1.464-1.704 1.464zm5.508-3.708c1.308 0 1.992-.924 1.992-2.268 0-1.26-.552-2.088-1.896-2.088-1.332 0-2.016.924-2.016 2.244 0 1.116.48 2.112 1.92 2.112zm.216 4.68l5.256-8.88h-.972l-5.268 8.88h.984zm-.18-5.472c-.792 0-1.008-.564-1.008-1.392 0-.72.24-1.392 1.032-1.392.78 0 .984.564.984 1.356 0 .876-.228 1.428-1.008 1.428zm4.776 5.424c1.308 0 1.992-.924 1.992-2.268 0-1.26-.552-2.088-1.896-2.088-1.332 0-2.016.924-2.016 2.244 0 1.116.48 2.112 1.92 2.112zm.036-.792c-.792 0-1.008-.564-1.008-1.392 0-.72.24-1.392 1.032-1.392.78 0 .984.564.984 1.356 0 .876-.228 1.428-1.008 1.428z"/>
                <path fill="#6F6F6F" fill-rule="nonzero" d="M38.184 96v-7.284L42.456 96h1.332v-8.688h-1.02v7.212l-4.164-7.212h-1.452V96h1.032zm9.252.144c.864 0 1.5-.276 1.98-.756.06.396.336.732.948.732.3 0 .612-.072.852-.192l-.048-.684c-.156.048-.264.072-.372.072-.312 0-.372-.144-.372-.48v-3.012c0-1.536-.684-2.124-2.208-2.124-1.428 0-2.172.54-2.364 1.692l.96.18c.132-.684.456-1.02 1.308-1.02 1.008 0 1.224.48 1.224 1.26v.6c-.168-.012-.348-.024-.54-.024-1.74 0-3.192.456-3.192 2.1 0 .6.264 1.656 1.824 1.656zm.336-.852c-.84 0-1.032-.456-1.032-.984 0-1.056 1.14-1.14 1.992-1.14.228 0 .456.012.624.036v1.392c-.336.36-.948.696-1.584.696zm5.772.708v-4.608c.324-.3 1.08-.732 1.704-.732.792 0 .96.468.96 1.296V96H57.3v-4.2c0-.156-.012-.312-.024-.456.36-.3 1.068-.684 1.656-.684.792 0 .96.468.96 1.296V96h1.092v-4.2c0-1.38-.456-2.1-1.752-2.1-.84 0-1.536.372-2.136.852-.24-.576-.732-.852-1.548-.852-.84 0-1.488.36-2.1.828l-.06-.696h-.936V96h1.092zm11.76.144c1.236 0 2.196-.588 2.448-1.788l-.96-.216c-.168.696-.576 1.092-1.452 1.092-.984 0-1.68-.492-1.728-2.064h4.152c.036-.288.048-.564.048-.804 0-1.524-.72-2.664-2.448-2.664-1.584 0-2.904.972-2.904 3.228 0 1.692.66 3.216 2.844 3.216zm1.38-3.84h-3.06c.06-1.224.852-1.716 1.668-1.716.972 0 1.392.612 1.392 1.716zM281.624 96c3.108 0 4.512-1.812 4.512-4.476 0-2.592-1.296-4.212-4.308-4.212h-2.676V96h2.472zm.012-.936h-1.38v-6.816h1.476c2.064 0 3.264.792 3.264 3.432 0 2.124-1.092 3.384-3.36 3.384zm7.596 1.08c.864 0 1.5-.276 1.98-.756.06.396.336.732.948.732.3 0 .612-.072.852-.192l-.048-.684c-.156.048-.264.072-.372.072-.312 0-.372-.144-.372-.48v-3.012c0-1.536-.684-2.124-2.208-2.124-1.428 0-2.172.54-2.364 1.692l.96.18c.132-.684.456-1.02 1.308-1.02 1.008 0 1.224.48 1.224 1.26v.6c-.168-.012-.348-.024-.54-.024-1.74 0-3.192.456-3.192 2.1 0 .6.264 1.656 1.824 1.656zm.336-.852c-.84 0-1.032-.456-1.032-.984 0-1.056 1.14-1.14 1.992-1.14.228 0 .456.012.624.036v1.392c-.336.36-.948.696-1.584.696zm6.612.852c.576 0 1.212-.204 1.512-.408l-.192-.792c-.264.144-.708.3-1.08.3-.744 0-.888-.36-.888-1.008v-3.528h1.704v-.876h-1.704v-1.956l-1.092.168v1.788h-.948v.876h.948v3.672c0 1.236.588 1.764 1.74 1.764zm5.076 0c1.236 0 2.196-.588 2.448-1.788l-.96-.216c-.168.696-.576 1.092-1.452 1.092-.984 0-1.68-.492-1.728-2.064h4.152c.036-.288.048-.564.048-.804 0-1.524-.72-2.664-2.448-2.664-1.584 0-2.904.972-2.904 3.228 0 1.692.66 3.216 2.844 3.216zm1.38-3.84h-3.06c.06-1.224.852-1.716 1.668-1.716.972 0 1.392.612 1.392 1.716zM382.432 96.144c1.608 0 3.072-.72 3.072-2.556 0-1.68-1.38-2.088-2.652-2.46-1.08-.324-2.076-.624-2.076-1.68 0-.768.48-1.356 1.812-1.356 1.344 0 1.68.804 1.812 1.632l1.032-.12c-.18-1.86-1.332-2.448-2.856-2.448-1.68 0-2.928.912-2.928 2.4 0 1.788 1.404 2.16 2.688 2.52 1.068.3 2.04.588 2.04 1.668 0 1.152-.996 1.464-1.932 1.464-1.488 0-1.92-.804-2.124-1.728l-1.056.156c.228 1.788 1.356 2.508 3.168 2.508zm6.984 0c1.236 0 2.328-.6 2.532-2.028l-.96-.204c-.156.912-.696 1.32-1.536 1.32-.984 0-1.728-.552-1.728-2.388 0-1.752.876-2.232 1.764-2.232.864 0 1.284.468 1.38 1.38l1.044-.144c-.084-1.428-.996-2.148-2.376-2.148-1.848 0-2.952 1.128-2.952 3.276 0 1.848.792 3.168 2.832 3.168zm6.468 0c2.076 0 2.916-1.32 2.916-3.348 0-1.836-.804-3.096-2.76-3.096-1.968 0-3 1.248-3 3.24 0 1.824.708 3.204 2.844 3.204zm.06-.876c-1.2 0-1.776-.744-1.776-2.376 0-1.644.732-2.292 1.824-2.292 1.068 0 1.668.564 1.668 2.268 0 1.752-.648 2.4-1.716 2.4zm5.508.732v-4.488c.504-.468 1.416-.78 2.184-.672v-1.128l-.228-.012c-.864 0-1.512.288-2.052 1.02l-.084-.888h-.912V96h1.092zm5.736.144c1.236 0 2.196-.588 2.448-1.788l-.96-.216c-.168.696-.576 1.092-1.452 1.092-.984 0-1.68-.492-1.728-2.064h4.152c.036-.288.048-.564.048-.804 0-1.524-.72-2.664-2.448-2.664-1.584 0-2.904.972-2.904 3.228 0 1.692.66 3.216 2.844 3.216zm1.38-3.84h-3.06c.06-1.224.852-1.716 1.668-1.716.972 0 1.392.612 1.392 1.716z"/>
                <path fill="#E0E0E0" d="M24 104H423V105H24zM24 137H423V138H24zM24 172H423V173H24z"/>
                <g fill="#9B9B9B" fill-rule="nonzero">
                    <path d="M11 10H1c-.552 0-1 .448-1 1s.448 1 1 1h10c.552 0 1-.448 1-1s-.448-1-1-1zM10 3L7 3 7 0 5 0 5 3 2 3 6 8z" transform="translate(349 21)"/>
                </g>
                <rect width="20" height="20" x="360" y="111" fill="#F5A732" rx="4"/>
                <rect width="20" height="20" x="360" y="144" fill="#58B145" rx="4"/>
                <rect width="20" height="20" x="360" y="179" fill="#E73030" rx="4"/>
                <g>
                    <path d="M0 0H16V16H0z" transform="translate(362 113)"/>
                    <g fill="#FFF" fill-rule="nonzero">
                        <g>
                            <path d="M10.97 6.405c-.174 0-.347-.058-.578-.115L9.7 6.059l-.577.577c.058.289.115.578.115.866 0 1.905-1.558 3.464-3.464 3.464-1.905 0-3.464-1.559-3.464-3.464s1.56-3.464 3.464-3.464c.29 0 .635.058.866.116l.578-.578-.231-.693c-.058-.288-.058-.635 0-.981-.404-.058-.808-.116-1.213-.116C2.598 1.786 0 4.385 0 7.56s2.598 5.773 5.773 5.773c3.176 0 5.774-2.598 5.774-5.773 0-.404-.058-.808-.116-1.213-.173.058-.288.058-.462.058z" transform="translate(362 113) translate(1.333 1.333)"/>
                            <path d="M13.279 2.826c-.058-.173-.173-.347-.404-.404l-.866-.29.52-.519c.23-.23.23-.577 0-.808-.232-.23-.578-.23-.809 0l-.52.52-.288-.866c-.058-.174-.231-.347-.404-.405-.174-.057-.405 0-.52.174L8.256 1.96c-.173.173-.23.404-.115.577l.461 1.386-1.674 1.674c-.346-.231-.75-.346-1.155-.346-1.27 0-2.309 1.039-2.309 2.309 0 1.27 1.04 2.31 2.31 2.31s2.309-1.04 2.309-2.31c0-.404-.116-.808-.347-1.155L9.353 4.79l1.386.462c.057 0 .115.057.173.057.173 0 .288-.057.404-.173l1.732-1.732c.23-.173.289-.404.23-.577z" transform="translate(362 113) translate(1.333 1.333)"/>
                        </g>
                    </g>
                </g>
                <g>
                    <path d="M0 0H16V16H0z" transform="translate(362 146)"/>
                    <g fill="#FFF" fill-rule="nonzero">
                        <g>
                            <path d="M10.97 6.405c-.174 0-.347-.058-.578-.115L9.7 6.059l-.577.577c.058.289.115.578.115.866 0 1.905-1.558 3.464-3.464 3.464-1.905 0-3.464-1.559-3.464-3.464s1.56-3.464 3.464-3.464c.29 0 .635.058.866.116l.578-.578-.231-.693c-.058-.288-.058-.635 0-.981-.404-.058-.808-.116-1.213-.116C2.598 1.786 0 4.385 0 7.56s2.598 5.773 5.773 5.773c3.176 0 5.774-2.598 5.774-5.773 0-.404-.058-.808-.116-1.213-.173.058-.288.058-.462.058z" transform="translate(362 146) translate(1.333 1.333)"/>
                            <path d="M13.279 2.826c-.058-.173-.173-.347-.404-.404l-.866-.29.52-.519c.23-.23.23-.577 0-.808-.232-.23-.578-.23-.809 0l-.52.52-.288-.866c-.058-.174-.231-.347-.404-.405-.174-.057-.405 0-.52.174L8.256 1.96c-.173.173-.23.404-.115.577l.461 1.386-1.674 1.674c-.346-.231-.75-.346-1.155-.346-1.27 0-2.309 1.039-2.309 2.309 0 1.27 1.04 2.31 2.31 2.31s2.309-1.04 2.309-2.31c0-.404-.116-.808-.347-1.155L9.353 4.79l1.386.462c.057 0 .115.057.173.057.173 0 .288-.057.404-.173l1.732-1.732c.23-.173.289-.404.23-.577z" transform="translate(362 146) translate(1.333 1.333)"/>
                        </g>
                    </g>
                </g>
                <g>
                    <path d="M0 0H16V16H0z" transform="translate(362 181)"/>
                    <g fill="#FFF" fill-rule="nonzero">
                        <g>
                            <path d="M10.97 6.405c-.174 0-.347-.058-.578-.115L9.7 6.059l-.577.577c.058.289.115.578.115.866 0 1.905-1.558 3.464-3.464 3.464-1.905 0-3.464-1.559-3.464-3.464s1.56-3.464 3.464-3.464c.29 0 .635.058.866.116l.578-.578-.231-.693c-.058-.288-.058-.635 0-.981-.404-.058-.808-.116-1.213-.116C2.598 1.786 0 4.385 0 7.56s2.598 5.773 5.773 5.773c3.176 0 5.774-2.598 5.774-5.773 0-.404-.058-.808-.116-1.213-.173.058-.288.058-.462.058z" transform="translate(362 181) translate(1.333 1.333)"/>
                            <path d="M13.279 2.826c-.058-.173-.173-.347-.404-.404l-.866-.29.52-.519c.23-.23.23-.577 0-.808-.232-.23-.578-.23-.809 0l-.52.52-.288-.866c-.058-.174-.231-.347-.404-.405-.174-.057-.405 0-.52.174L8.256 1.96c-.173.173-.23.404-.115.577l.461 1.386-1.674 1.674c-.346-.231-.75-.346-1.155-.346-1.27 0-2.309 1.039-2.309 2.309 0 1.27 1.04 2.31 2.31 2.31s2.309-1.04 2.309-2.31c0-.404-.116-.808-.347-1.155L9.353 4.79l1.386.462c.057 0 .115.057.173.057.173 0 .288-.057.404-.173l1.732-1.732c.23-.173.289-.404.23-.577z" transform="translate(362 181) translate(1.333 1.333)"/>
                        </g>
                    </g>
                </g>
                <path fill="#E2E2E2" style="mix-blend-mode:multiply" d="M278 117H310V123H278zM278 150H317V156H278zM278 185H312V191H278z"/>
            </g>
        </g>
    </g>
</svg>
