<?xml version="1.0" encoding="UTF-8" standalone="no"?>
<svg width="29px" height="16px" viewBox="0 0 29 16" version="1.1" xmlns="http://www.w3.org/2000/svg" xmlns:xlink="http://www.w3.org/1999/xlink">
    <!-- Generator: Sketch 39.1 (31720) - http://www.bohemiancoding.com/sketch -->
    <title>Page 1</title>
    <desc>Created with Sketch.</desc>
    <defs></defs>
    <g id="Welcome" stroke="none" stroke-width="1" fill="none" fill-rule="evenodd">
        <g id="sentence-combining---joining-words" transform="translate(-384.000000, -177.000000)" fill="#BCBCBC">
            <g id="Page-1" transform="translate(384.000000, 177.000000)">
                <path d="M3.225525,8.72727273 L27.875525,8.72727273 C29.274775,8.72727273 29.277675,6.54545455 27.875525,6.54545455 L3.225525,6.54545455 C1.826275,6.54545455 1.823375,8.72727273 3.225525,8.72727273" id="Fill-1"></path>
                <path d="M9.403105,0.339345455 C7.63918,2.23825455 5.65848,3.84261818 3.35298,5.04043636 C2.225605,5.62661818 0.427605,6.00770909 0.065105,7.44770909 C-0.295945,8.88334545 0.914805,9.72043636 1.87108,10.5328 C3.92718,12.2789818 6.066655,13.9357091 8.16118,15.6353455 C9.23998,16.5109818 10.787855,14.9764364 9.698905,14.0928 C8.257605,12.9233455 6.816305,11.7538909 5.375005,10.5844364 C4.744255,10.0731636 3.95473,9.59607273 3.40953,8.99025455 C2.432955,7.90516364 2.454705,8.09425455 3.65603,7.31752727 C6.32548,5.59025455 8.73103,4.2608 10.94083,1.88189091 C11.89493,0.855709091 10.360105,-0.690472727 9.403105,0.339345455" id="Fill-1"></path>
            </g>
        </g>
    </g>
</svg>