<?xml version="1.0" encoding="UTF-8"?>
<svg width="24px" height="20px" viewBox="0 0 24 20" version="1.1" xmlns="http://www.w3.org/2000/svg" xmlns:xlink="http://www.w3.org/1999/xlink">
    <!-- Generator: Sketch 43.2 (39069) - http://www.bohemiancoding.com/sketch -->
    <title>Group 4</title>
    <desc>Created with Sketch.</desc>
    <defs></defs>
    <g id="V1" stroke="none" stroke-width="1" fill="none" fill-rule="evenodd">
        <g id="12_01-Lobby-Copy" transform="translate(-1252.000000, -25.000000)" fill-rule="nonzero" fill="#FFFFFF">
            <g id="Group-4" transform="translate(1252.000000, 25.000000)">
                <path d="M21.8410777,0 L23.6666667,2 L21.8410777,2 L21.8410777,0 Z M23.6666667,18 L21.8410777,20 L21.8410777,18 L23.6666667,18 Z M3.88945236,2 L3.88945236,0 L23.6666667,0 L23.6666667,20 L3.88945236,20 L3.88945236,18 L21.8410777,18 L21.8410777,2 L3.88945236,2 Z M23.6666667,18 L21.8410777,20 L21.8410777,18 L23.6666667,18 Z M21.8410777,0 L23.6666667,2 L21.8410777,2 L21.8410777,0 Z M21.8410777,2 L3.88945236,2 C3.88945236,2 3,2.04931557 3,1.02465778 C3,0 3.88945236,0 3.88945236,0 L23.6666667,0 L23.6666667,20 L3.88945236,20 C3.88945236,20 3,20.092517 3,18.9911111 C3,17.8897052 3.88945236,18 3.88945236,18 L21.8410777,18 L21.8410777,2 Z" id="Rectangle-11-Copy-4"></path>
                <path d="M4.38149769,11 L14,11 C14.5522847,11 15,10.5522847 15,10 C15,9.44771525 14.5522847,9 14,9 L4.37228439,9 L6.88312189,6.7438204 C7.29392255,6.37468457 7.32769857,5.74242112 6.95856275,5.33162046 C6.58942692,4.92081979 5.95716347,4.88704377 5.5463628,5.2561796 L0.599424475,9.70138219 L5.17114963,14.9532023 C5.53376952,15.3697659 6.16542257,15.4134959 6.5819862,15.050876 C6.99854983,14.6882561 7.04227987,14.0566031 6.67965998,13.6400395 L4.38149769,11 Z" id="Combined-Shape"></path>
            </g>
        </g>
    </g>
</svg>