<?xml version="1.0" encoding="UTF-8"?>
<svg width="12px" height="20px" viewBox="0 0 12 20" version="1.1" xmlns="http://www.w3.org/2000/svg" xmlns:xlink="http://www.w3.org/1999/xlink">
    <!-- Generator: Sketch 43.2 (39069) - http://www.bohemiancoding.com/sketch -->
    <title>? copy</title>
    <desc>Created with Sketch.</desc>
    <defs></defs>
    <g id="V1" stroke="none" stroke-width="1" fill="none" fill-rule="evenodd">
        <g id="12_01-Lobby-Copy" transform="translate(-1303.000000, -25.000000)" fill="#FFFFFF">
            <path d="M1308.80242,39.04 L1308.80242,35.998 C1312.00042,35.348 1314.41842,33.684 1314.41842,30.096 C1314.41842,26.222 1311.84442,25 1308.93242,25 C1305.05842,25 1303.42042,27.158 1303.00442,29.602 C1303.00442,29.602 1302.8805,30.2978078 1303.94469,30.5896738 C1305.00887,30.8815398 1305.21442,29.992 1305.21442,29.992 C1305.70842,27.678 1307.00842,27.028 1308.77642,27.028 C1310.57042,27.028 1311.97442,27.678 1311.97442,30.174 C1311.97442,33.294 1307.46548,34.1538417 1307.46548,34.1538417 C1306.94023,34.2931123 1306.51442,34.8503396 1306.51442,35.4115195 L1306.51442,39.04 C1306.51442,39.04 1306.51922,39.9419822 1307.72582,39.9419822 C1308.93242,39.9419822 1308.80242,39.04 1308.80242,39.04 Z M1309.34842,42.55 C1309.34842,41.432 1308.72442,40.86 1307.60642,40.86 C1306.48842,40.86 1305.86442,41.432 1305.86442,42.55 C1305.86442,43.668 1306.48842,44.214 1307.60642,44.214 C1308.75042,44.214 1309.34842,43.642 1309.34842,42.55 Z" id="?-copy"></path>
        </g>
    </g>
</svg>