<?xml version="1.0" encoding="UTF-8"?>
<svg width="17px" height="17px" viewBox="0 0 17 17" version="1.1" xmlns="http://www.w3.org/2000/svg" xmlns:xlink="http://www.w3.org/1999/xlink">
    <!-- Generator: Sketch 43.2 (39069) - http://www.bohemiancoding.com/sketch -->
    <title>Group 18</title>
    <desc>Created with Sketch.</desc>
    <defs></defs>
    <g id="V1" stroke="none" stroke-width="1" fill="none" fill-rule="evenodd">
        <g id="12_10-Slide-9" transform="translate(-1253.000000, -924.000000)" fill="#00C2A2">
            <g id="Group-18" transform="translate(1253.000000, 924.000000)">
                <path d="M8.5,16.5 C4.081722,16.5 0.5,12.918278 0.5,8.5 C0.5,4.081722 4.081722,0.5 8.5,0.5 C12.918278,0.5 16.5,4.081722 16.5,8.5 C16.5,12.918278 12.918278,16.5 8.5,16.5 Z M8.5,15.5 C12.3659932,15.5 15.5,12.3659932 15.5,8.5 C15.5,4.63400675 12.3659932,1.5 8.5,1.5 C4.63400675,1.5 1.5,4.63400675 1.5,8.5 C1.5,12.3659932 4.63400675,15.5 8.5,15.5 Z" id="Oval-2" fill-rule="nonzero"></path>
                <circle id="Oval-4" cx="8.5" cy="8.5" r="5.5"></circle>
            </g>
        </g>
    </g>
</svg>