<?xml version="1.0" encoding="UTF-8"?>
<svg width="20px" height="22px" viewBox="0 0 20 22" version="1.1" xmlns="http://www.w3.org/2000/svg" xmlns:xlink="http://www.w3.org/1999/xlink">
    <!-- Generator: Sketch 43.2 (39069) - http://www.bohemiancoding.com/sketch -->
    <title>Group 3</title>
    <desc>Created with Sketch.</desc>
    <defs></defs>
    <g id="V1" stroke="none" stroke-width="1" fill="none" fill-rule="evenodd">
        <g id="12_01-Lobby-Copy" transform="translate(-1212.000000, -24.000000)" fill-rule="nonzero" fill="#FFFFFF">
            <g id="Group-3" transform="translate(1212.000000, 24.000000)">
                <path d="M8.375,9.67307692 C6.0925162,9.67307692 4.25,7.78331672 4.25,5.46153846 C4.25,3.1397602 6.0925162,1.25 8.375,1.25 C10.6574838,1.25 12.5,3.1397602 12.5,5.46153846 C12.5,7.78331672 10.6574838,9.67307692 8.375,9.67307692 Z M8.375,8.17307692 C9.82043826,8.17307692 11,6.96327001 11,5.46153846 C11,3.95980691 9.82043826,2.75 8.375,2.75 C6.92956174,2.75 5.75,3.95980691 5.75,5.46153846 C5.75,6.96327001 6.92956174,8.17307692 8.375,8.17307692 Z" id="Oval-3-Copy-8"></path>
                <path d="M15.25,17.9230769 C15.25,22.7465867 0.25,22.7465867 0.25,17.9230769 C0.25,13.6895438 3.60355517,10.25 7.75,10.25 C11.8964448,10.25 15.25,13.6895438 15.25,17.9230769 Z M13.75,17.9230769 C13.75,14.5095905 11.0593993,11.75 7.75,11.75 C4.44060071,11.75 1.75,14.5095905 1.75,17.9230769 C1.75,20.7465867 13.75,20.7465867 13.75,17.9230769 Z" id="Oval-3-Copy-9"></path>
                <path d="M14.4579402,3.51833501 C14.5893465,3.65575589 14.8036076,3.91716874 15.0177283,4.25305061 C15.3542769,4.78097975 15.5503043,5.2934793 15.5503043,5.71964147 C15.5503043,6.14580363 15.3542769,6.65830318 15.0177283,7.18623232 C14.8036076,7.5221142 14.5893465,7.78352705 14.4579402,7.92094793 C14.1716717,8.22031928 14.1822936,8.69507421 14.481665,8.98134273 C14.7810364,9.26761125 15.2557913,9.2569893 15.5420598,8.95761794 C15.7357296,8.75508364 16.0090825,8.42157491 16.282576,7.99255763 C16.7587176,7.24565483 17.0503043,6.48332244 17.0503043,5.71964147 C17.0503043,4.95596049 16.7587176,4.1936281 16.282576,3.4467253 C16.0090825,3.01770802 15.7357296,2.6841993 15.5420598,2.48166499 C15.2557913,2.18229364 14.7810364,2.17167169 14.481665,2.45794021 C14.1822936,2.74420872 14.1716717,3.21896365 14.4579402,3.51833501 Z" id="Line-Copy-31"></path>
                <path d="M16.4579402,1.51833501 C16.5085342,1.57124474 16.6065556,1.68107468 16.7360056,1.83901223 C16.9551563,2.10639068 17.174801,2.40499815 17.3789756,2.72527804 C17.9413037,3.60737775 18.2727988,4.47404786 18.2727988,5.23076923 C18.2727988,5.9874906 17.9413037,6.85416071 17.3789756,7.73626042 C17.174801,8.05654031 16.9551563,8.35514778 16.7360056,8.62252623 C16.6065556,8.78046379 16.5085342,8.89029372 16.4579402,8.94320346 C16.1716717,9.24257481 16.1822936,9.71732974 16.481665,10.0035983 C16.7810364,10.2898668 17.2557913,10.2792448 17.5420598,9.97987347 C17.6178907,9.90057167 17.741113,9.76250496 17.8961191,9.57338723 C18.1510618,9.2623402 18.4055106,8.91641642 18.6438232,8.54258573 C19.3457444,7.44151236 19.7727988,6.3250094 19.7727988,5.23076923 C19.7727988,4.13652906 19.3457444,3.0200261 18.6438232,1.91895273 C18.4055106,1.54512204 18.1510618,1.19919826 17.8961191,0.888151228 C17.741113,0.699033498 17.6178907,0.560966796 17.5420598,0.481664993 C17.2557913,0.182293635 16.7810364,0.171671686 16.481665,0.457940205 C16.1822936,0.744208725 16.1716717,1.21896365 16.4579402,1.51833501 Z" id="Line-Copy-32"></path>
            </g>
        </g>
    </g>
</svg>