<?xml version="1.0" encoding="UTF-8"?>
<svg width="172px" height="154px" viewBox="0 0 172 154" version="1.1" xmlns="http://www.w3.org/2000/svg" xmlns:xlink="http://www.w3.org/1999/xlink">
    <!-- Generator: Sketch 43.2 (39069) - http://www.bohemiancoding.com/sketch -->
    <title>Group 12</title>
    <desc>Created with Sketch.</desc>
    <defs>
        <path d="M91,58 L91,170 L0,170 L0,50 L0,0 L91,0 L91,1 L182,1 L182,58 L91,58 Z" id="path-1"></path>
    </defs>
    <g id="Students-Slides" stroke="none" stroke-width="1" fill="none" fill-rule="evenodd">
        <g id="S-12_13-Watch-The-Teacher" transform="translate(-573.000000, -213.000000)">
            <g id="Group-12" transform="translate(570.000000, 202.000000)">
                <g id="Group-8">
                    <mask id="mask-2" fill="white">
                        <use xlink:href="#path-1"></use>
                    </mask>
                    <g id="Mask"></g>
                    <g mask="url(#mask-2)">
                        <g transform="translate(77.500000, 70.000000) scale(-1, 1) translate(-77.500000, -70.000000) translate(3.000000, 11.000000)">
                            <rect id="Rectangle" stroke="#027360" stroke-width="4" fill="none" x="2" y="3" width="144" height="113"></rect>
                            <rect id="Rectangle-2" stroke="#027360" stroke-width="4" fill="none" x="20" y="20" width="105" height="74"></rect>
                            <rect id="Rectangle-3" stroke="#027360" stroke-width="4" fill="none" x="73" y="82" width="35" height="12"></rect>
                            <polygon id="Line" stroke="none" fill="#027360" fill-rule="nonzero" points="145.658699 0.704669873 122.483778 19.4845086 125.002125 22.5922293 148.177046 3.81239057"></polygon>
                        </g>
                    </g>
                </g>
                <g id="Group-9" transform="translate(100.000000, 65.000000)">
                    <g id="Group-6" transform="translate(0.000000, 12.000000)">
                        <g id="Group-3" transform="translate(0.000000, 35.000000)" fill-rule="nonzero" fill="#027360">
                            <path d="M71.2307692,36.7196484 C71.2307692,58.4267839 0.769230769,58.4267839 0.769230769,36.7196484 C0.769230769,16.4920299 16.4760364,0 36,0 C55.5239636,0 71.2307692,16.4920299 71.2307692,36.7196484 Z M67.2307692,36.7196484 C67.2307692,18.4065592 53.1817306,3.65517241 36,3.65517241 C18.8182694,3.65517241 4.76923077,18.4065592 4.76923077,36.7196484 C4.76923077,53.5532206 67.2307692,53.5532206 67.2307692,36.7196484 Z" id="Oval-3"></path>
                        </g>
                        <g id="Group-5" transform="translate(20.000000, 0.000000)"></g>
                    </g>
                    <path d="M36.5,51 C22.4167389,51 11,39.5832611 11,25.5 C11,11.4167389 22.4167389,0 36.5,0 C50.5832611,0 62,11.4167389 62,25.5 C62,39.5832611 50.5832611,51 36.5,51 Z M36.5,47 C48.3741221,47 58,37.3741221 58,25.5 C58,13.6258779 48.3741221,4 36.5,4 C24.6258779,4 15,13.6258779 15,25.5 C15,37.3741221 24.6258779,47 36.5,47 Z" id="Oval-2" fill="#027360" fill-rule="nonzero"></path>
                    <g id="Group-7" transform="translate(24.000000, 21.000000)" stroke="#027360" stroke-width="2.5">
                        <ellipse id="Oval-4-Copy" cx="21.9310345" cy="3" rx="3.03448276" ry="3"></ellipse>
                        <ellipse id="Oval-4" cx="3.06896552" cy="3" rx="3.03448276" ry="3"></ellipse>
                    </g>
                </g>
                <path d="M166.166864,110.785537 C162.827194,113.807557 156.502645,116.859304 153.311322,116.757206 L156.399366,119.2553 C160.247211,118.917774 164.319154,116.503412 168.179756,113.010007 C169.457514,111.853782 170.62309,110.619048 171.656536,109.38372 C172.01906,108.950377 172.339923,108.546909 172.616378,108.183081 C172.785638,107.960328 172.904679,107.79707 172.970678,107.703097 L174.565777,105.431872 L171.791847,105.341793 C171.739395,105.34009 171.739395,105.34009 171.502103,105.332452 C171.184382,105.322272 171.184382,105.322272 170.729784,105.307851 C169.925039,105.282403 169.103418,105.256954 168.312834,105.233197 C168.074389,105.226048 168.074389,105.226048 167.834873,105.218934 C166.23232,105.171461 165.028414,105.139402 164.377489,105.128336 C161.817714,105.08482 159.937745,104.45399 158.728434,103.466491 C158.291445,103.109655 157.97632,102.728745 157.794239,102.37859 C157.694439,102.186667 157.668875,102.07261 157.652753,102.155548 L154.91329,101.793083 C154.323446,104.827563 158.291167,108.025301 164.326495,108.127903 C164.960348,108.138679 166.156456,108.170529 167.746041,108.217619 C167.984886,108.224713 167.984886,108.224713 168.222727,108.231844 C168.373206,108.236366 168.524821,108.240949 168.67724,108.245583 C167.904928,109.11496 167.063991,109.97374 166.166864,110.785537 Z" id="Path-5" fill="#027360" fill-rule="nonzero"></path>
                <path d="M150.605247,77.9022295 C150.617914,77.8945473 150.630578,77.8868503 150.643239,77.8791384 L149.082621,75.317016 C145.49887,77.4999196 141.642136,78.3019519 137.123104,78.0091209 C133.617038,77.7819296 130.737793,77.1394698 124.157007,75.3304647 C123.784802,75.2281502 123.784802,75.2281502 123.412009,75.1258403 C120.714914,74.3862363 119.070218,73.9613055 117.324107,73.5748934 L116.675893,76.5040263 C118.360588,76.8768471 119.966525,77.2917637 122.618631,78.0190308 C122.989947,78.1209352 122.989947,78.1209352 123.361828,78.2231607 C130.143256,80.0873206 133.14828,80.7578462 136.929113,81.0028423 C140.939717,81.2627274 144.557962,80.744202 147.936546,79.2834599 C151.297455,84.9487422 153.02504,86.361915 159.843832,89.3114436 L161.034859,86.5579992 C154.842374,83.8793858 153.56002,82.8681219 150.605247,77.9022295 Z" id="Combined-Shape" fill="#027360" fill-rule="nonzero"></path>
            </g>
        </g>
    </g>
</svg>