<svg width="14" height="25" viewBox="0 0 14 25" fill="none" xmlns="http://www.w3.org/2000/svg">
<path d="M0 6.47076C0 5.55207 0.179743 4.69995 0.53923 3.91441C0.905373 3.12886 1.40799 2.44318 2.04708 1.85735C2.69282 1.27152 3.43842 0.815502 4.28388 0.489301C5.12934 0.1631 6.03471 0 7 0C7.95863 0 8.86068 0.1631 9.70613 0.489301C10.5583 0.815502 11.3039 1.27152 11.9429 1.85735C12.5887 2.44318 13.0913 3.12886 13.4508 3.91441C13.8169 4.69995 14 5.5554 14 6.48074C14 7.22634 13.9234 7.89872 13.7703 8.49786C13.6239 9.097 13.4341 9.68616 13.2011 10.2653C12.9681 10.8445 12.7218 11.4769 12.4622 12.1626C12.2092 12.8417 11.9762 13.6305 11.7632 14.5292C11.5502 15.428 11.3904 16.5031 11.2839 17.7546C11.2506 18.0875 11.1341 18.3505 10.9344 18.5435C10.7347 18.7299 10.465 18.8231 10.1255 18.8231H3.86448C3.53162 18.8231 3.26201 18.7299 3.05563 18.5435C2.85592 18.3505 2.74275 18.0875 2.71612 17.7546C2.60961 16.5031 2.44651 15.428 2.22682 14.5292C2.01379 13.6305 1.78079 12.8417 1.52782 12.1626C1.27485 11.4769 1.03186 10.8445 0.798859 10.2653C0.565858 9.67951 0.372801 9.09035 0.219686 8.49786C0.0732287 7.89872 0 7.22301 0 6.47076ZM2.1669 6.47076C2.1669 6.97004 2.22682 7.42606 2.34665 7.8388C2.47313 8.24489 2.63291 8.68093 2.82596 9.14693C3.02568 9.60628 3.23871 10.1555 3.46505 10.7946C3.69805 11.4337 3.92107 12.2259 4.13409 13.1712C4.35378 14.1098 4.54351 15.2715 4.70328 16.6562H9.29672C9.44983 15.2715 9.63623 14.1098 9.85592 13.1712C10.0756 12.2259 10.2986 11.4337 10.525 10.7946C10.758 10.1555 10.971 9.60628 11.1641 9.14693C11.3638 8.68093 11.5235 8.24489 11.6434 7.8388C11.7699 7.42606 11.8331 6.97004 11.8331 6.47076C11.8331 5.83833 11.7033 5.25915 11.4437 4.73324C11.1907 4.20732 10.8412 3.75464 10.3952 3.37518C9.94912 2.98906 9.43319 2.69282 8.84736 2.48645C8.26819 2.28008 7.6524 2.17356 7 2.1669C6.3476 2.1669 5.72848 2.27342 5.14265 2.48645C4.56348 2.69282 4.05088 2.98906 3.60485 3.37518C3.15882 3.75464 2.80599 4.20732 2.54636 4.73324C2.29339 5.25915 2.1669 5.83833 2.1669 6.47076ZM3.71469 21.4194C3.50832 21.4194 3.33191 21.3428 3.18545 21.1897C3.03899 21.0433 2.96576 20.8735 2.96576 20.6805C2.96576 20.4807 3.03899 20.3077 3.18545 20.1612C3.33191 20.0147 3.50832 19.9415 3.71469 19.9415H10.2753C10.4883 19.9415 10.6648 20.0147 10.8046 20.1612C10.951 20.3077 11.0243 20.4807 11.0243 20.6805C11.0243 20.8735 10.951 21.0433 10.8046 21.1897C10.6648 21.3428 10.4883 21.4194 10.2753 21.4194H3.71469ZM7 24.505C6.17451 24.505 5.47551 24.3253 4.903 23.9658C4.33048 23.6063 4.02092 23.1303 3.97432 22.5378H9.99572C9.94246 23.1303 9.63291 23.6063 9.06705 23.9658C8.50785 24.3253 7.81883 24.505 7 24.505Z" fill="#565656"/>
</svg>
