<svg width="19" height="19" viewBox="0 0 19 19" fill="none" xmlns="http://www.w3.org/2000/svg">
<path d="M9.28125 18.5625C10.5586 18.5625 11.7568 18.3193 12.876 17.833C13.9951 17.3525 14.9795 16.6846 15.8291 15.8291C16.6846 14.9795 17.3555 13.9951 17.8418 12.876C18.3281 11.7568 18.5713 10.5586 18.5713 9.28125C18.5713 8.00977 18.3281 6.81445 17.8418 5.69531C17.3555 4.57617 16.6846 3.58887 15.8291 2.7334C14.9795 1.87793 13.9922 1.20996 12.8672 0.729492C11.748 0.243164 10.5527 0 9.28125 0C8.00977 0 6.81152 0.243164 5.68652 0.729492C4.56738 1.20996 3.58008 1.87793 2.72461 2.7334C1.875 3.58887 1.20703 4.57617 0.720703 5.69531C0.240234 6.81445 0 8.00977 0 9.28125C0 10.5586 0.240234 11.7568 0.720703 12.876C1.20703 13.9951 1.87793 14.9795 2.7334 15.8291C3.58887 16.6846 4.57617 17.3525 5.69531 17.833C6.81445 18.3193 8.00977 18.5625 9.28125 18.5625ZM9.06152 11.0127C8.2998 11.0127 7.91895 10.7051 7.91895 10.0898C7.91895 10.0781 7.91895 10.0693 7.91895 10.0635C7.91895 10.0518 7.91895 10.04 7.91895 10.0283C7.91895 9.66504 8.02148 9.36035 8.22656 9.11426C8.43164 8.86816 8.69531 8.63086 9.01758 8.40234C9.38672 8.15039 9.66797 7.93945 9.86133 7.76953C10.0547 7.59961 10.1514 7.38574 10.1514 7.12793C10.1514 6.88184 10.0547 6.67676 9.86133 6.5127C9.67383 6.34863 9.43652 6.2666 9.14941 6.2666C9.00293 6.2666 8.86523 6.29004 8.73633 6.33691C8.60742 6.38379 8.48438 6.4541 8.36719 6.54785C8.25586 6.63574 8.15039 6.75293 8.05078 6.89941L7.94531 7.04004C7.83984 7.18066 7.7168 7.28613 7.57617 7.35645C7.43555 7.42676 7.27148 7.46191 7.08398 7.46191C6.83203 7.46191 6.61816 7.37695 6.44238 7.20703C6.2666 7.03711 6.17871 6.8291 6.17871 6.58301C6.17871 6.48926 6.1875 6.39844 6.20508 6.31055C6.22852 6.22266 6.25781 6.13477 6.29297 6.04688C6.46875 5.5957 6.82324 5.22363 7.35645 4.93066C7.89551 4.63184 8.56055 4.48242 9.35156 4.48242C9.94336 4.48242 10.4795 4.58496 10.96 4.79004C11.4463 4.99512 11.833 5.28516 12.1201 5.66016C12.4072 6.03516 12.5508 6.48047 12.5508 6.99609C12.5508 7.51172 12.4277 7.9248 12.1816 8.23535C11.9355 8.54004 11.5752 8.8418 11.1006 9.14062C10.8369 9.31055 10.6172 9.47754 10.4414 9.6416C10.2715 9.7998 10.166 9.98438 10.125 10.1953C10.125 10.207 10.1221 10.2246 10.1162 10.248C10.1162 10.2656 10.1133 10.2832 10.1074 10.3008C10.0781 10.5059 9.9668 10.6758 9.77344 10.8105C9.58594 10.9453 9.34863 11.0127 9.06152 11.0127ZM9.05273 13.9834C8.70117 13.9834 8.40527 13.8809 8.16504 13.6758C7.9248 13.4707 7.80469 13.2012 7.80469 12.8672C7.80469 12.5332 7.9248 12.2637 8.16504 12.0586C8.40527 11.8477 8.70117 11.7422 9.05273 11.7422C9.4043 11.7422 9.69727 11.8477 9.93164 12.0586C10.166 12.2637 10.2832 12.5332 10.2832 12.8672C10.2832 13.2012 10.1631 13.4707 9.92285 13.6758C9.68848 13.8809 9.39844 13.9834 9.05273 13.9834Z" fill="#06806B"/>
</svg>
