<svg width="141" height="99" viewBox="0 0 141 99" fill="none" xmlns="http://www.w3.org/2000/svg">
<path opacity="0.15" fill-rule="evenodd" clip-rule="evenodd" d="M88.6912 4.99999C88.6912 2.23857 90.9298 0 93.6912 0H102.986C105.748 0 107.986 2.23858 107.986 5V17.5436C108.669 16.8833 109.545 16.409 110.547 16.2212L121.759 14.1184C124.473 13.6093 127.076 15.3987 127.574 18.1149L140.918 90.9718C141.416 93.688 139.619 96.3026 136.905 96.8116L125.692 98.9145C122.978 99.4235 120.375 97.6342 119.877 94.9179L107.986 29.9958V93.5971C107.986 96.3585 105.748 98.597 102.986 98.597H93.6912C90.9298 98.597 88.6912 96.3585 88.6912 93.597V4.99999ZM23.9167 23.1512C23.9167 20.3898 26.1553 18.1512 28.9167 18.1512H43.9994C46.7608 18.1512 48.9994 20.3898 48.9994 23.1512V93.2003C48.9994 95.9618 46.7608 98.2003 43.9994 98.2003H28.9167C26.1553 98.2003 23.9167 95.9618 23.9167 93.2003V23.1512ZM0 44.3276C0 41.5662 2.23858 39.3276 5 39.3276H14.2951C17.0565 39.3276 19.2951 41.5662 19.2951 44.3276V93.8763C19.2951 96.6378 17.0565 98.8763 14.2951 98.8763H5C2.23858 98.8763 0 96.6378 0 93.8763V44.3276ZM58.8126 39.3276C56.0512 39.3276 53.8126 41.5662 53.8126 44.3276V93.8764C53.8126 96.6378 56.0512 98.8764 58.8126 98.8764H78.7189C81.4803 98.8764 83.7189 96.6378 83.7189 93.8764V44.3276C83.7189 41.5662 81.4803 39.3276 78.7189 39.3276H58.8126ZM62.2122 47.3948C60.3252 47.3948 58.7955 48.9246 58.7955 50.8116C58.7955 52.6986 60.3252 54.2283 62.2122 54.2283H75.6386C77.5256 54.2283 79.0553 52.6986 79.0553 50.8116C79.0553 48.9246 77.5256 47.3948 75.6386 47.3948H62.2122ZM58.7955 88.1224C58.7955 86.2354 60.3252 84.7057 62.2122 84.7057H75.6386C77.5256 84.7057 79.0553 86.2354 79.0553 88.1224C79.0553 90.0094 77.5256 91.5391 75.6386 91.5391H62.2122C60.3252 91.5391 58.7955 90.0094 58.7955 88.1224Z" fill="#2C7F9B"/>
</svg>
