<svg width="85" height="112" viewBox="0 0 85 112" fill="none" xmlns="http://www.w3.org/2000/svg">
<path opacity="0.2" d="M45.985 101V58.1857L84.7957 36.6968C84.9318 37.2687 84.9999 37.9632 84.9999 38.7803V72.7295C84.9999 75.562 84.4961 77.7408 83.4884 79.266C82.4806 80.7912 80.901 82.1394 78.7494 83.3105L47.7416 100.305C47.4421 100.469 47.1425 100.605 46.8429 100.714C46.5433 100.85 46.2573 100.946 45.985 101ZM39.285 101C38.9854 100.946 38.6858 100.85 38.3862 100.714C38.1139 100.605 37.8279 100.469 37.5283 100.305L6.52059 83.3105C4.39621 82.1394 2.81655 80.7912 1.78159 79.266C0.773878 77.7408 0.27002 75.562 0.27002 72.7295V38.7803C0.27002 37.9632 0.338108 37.2687 0.474286 36.6968L39.285 58.1857V101ZM42.635 52.1394L3.37488 30.6505C4.083 29.9968 4.99539 29.3704 6.11205 28.7712L20.4107 20.9274L59.8343 42.7022L42.635 52.1394ZM67.0653 38.8212L27.3967 17.0872L34.4234 13.2061C37.0925 11.7354 39.8433 11 42.6758 11C45.4811 11 48.2047 11.7354 50.8465 13.2061L79.1988 28.7712C80.2882 29.3704 81.187 29.9968 81.8951 30.6505L67.0653 38.8212Z" fill="#06806B"/>
</svg>
