<svg width="12" height="12" viewBox="0 0 12 12" fill="none" xmlns="http://www.w3.org/2000/svg">
<path opacity="0.4" d="M0.313641 11.6791C0.173482 11.5389 0.0792369 11.3746 0.0309062 11.1861C-0.0125914 10.9928 -0.0101749 10.8043 0.0381558 10.6207C0.0864865 10.4322 0.175898 10.2727 0.306391 10.1422L4.44591 5.99542L0.306391 1.8559C0.175898 1.72541 0.0864865 1.56591 0.0381558 1.37742C-0.00534181 1.18893 -0.00534181 1.00045 0.0381558 0.811955C0.0864865 0.623466 0.178315 0.459141 0.313641 0.318983C0.4538 0.17399 0.618124 0.0797456 0.806614 0.036248C0.999936 -0.0072496 1.19084 -0.0072496 1.37933 0.036248C1.56782 0.0797456 1.72973 0.169157 1.86506 0.304483L6.00458 4.43676L10.1369 0.304483C10.2722 0.169157 10.4341 0.0797456 10.6226 0.036248C10.8111 -0.0120827 10.9971 -0.0120827 11.1808 0.036248C11.3693 0.0845787 11.536 0.178824 11.681 0.318983C11.8212 0.459141 11.9154 0.623466 11.9638 0.811955C12.0121 1.00045 12.0121 1.18893 11.9638 1.37742C11.9203 1.56108 11.8308 1.72299 11.6955 1.86315L7.56324 5.99542L11.6955 10.1349C11.8308 10.2703 11.9203 10.4322 11.9638 10.6207C12.0072 10.8092 12.0048 10.9976 11.9565 11.1861C11.913 11.3746 11.8212 11.5389 11.681 11.6791C11.5409 11.8193 11.3765 11.9111 11.188 11.9546C10.9996 12.0029 10.8111 12.0053 10.6226 11.9618C10.4341 11.9183 10.2722 11.8265 10.1369 11.6864L6.00458 7.55409L1.86506 11.6936C1.72973 11.8241 1.56782 11.9111 1.37933 11.9546C1.19568 12.0029 1.00719 12.0029 0.813863 11.9546C0.625374 11.9111 0.458633 11.8193 0.313641 11.6791Z" fill="#06806B"/>
</svg>
