<svg width="88" height="88" viewBox="0 0 88 88" xmlns="http://www.w3.org/2000/svg">
    <defs>
        <linearGradient x1="-9.311%" y1="68%" x2="100%" y2="32.754%" id="a">
            <stop stop-color="#B8DB99" stop-opacity=".409" offset="0%"/>
            <stop stop-color="#B8DB99" offset="100%"/>
        </linearGradient>
    </defs>
    <g fill="none" fill-rule="evenodd">
        <path d="M0 0h88v88H0z"/>
        <path d="M45.481 32.91 71.238 7.153v11.704a2.095 2.095 0 0 0 4.19 0V2.095A2.097 2.097 0 0 0 73.334 0H56.571a2.095 2.095 0 0 0 0 4.19h11.704L44 28.466l-11.09-11.09a2.094 2.094 0 0 0-2.963 0L13.185 34.138a2.094 2.094 0 1 0 2.963 2.962l15.28-15.28 11.09 11.09a2.094 2.094 0 0 0 2.963 0z" fill="url(#a)" fill-rule="nonzero"/>
        <path d="M69.846 29.615H85a3 3 0 0 1 3 3V88H66.846V32.615a3 3 0 0 1 3-3z" fill="#4EA500"/>
        <path d="M36.846 46.538H52a3 3 0 0 1 3 3V88H33.846V49.538a3 3 0 0 1 3-3z" fill="#95C966"/>
        <path d="M3.846 62.615H19a3 3 0 0 1 3 3V88H.846V65.615a3 3 0 0 1 3-3z" fill="#B8DB99"/>
    </g>
</svg>
