<svg xmlns="http://www.w3.org/2000/svg" xmlns:xlink="http://www.w3.org/1999/xlink" width="358" height="296" viewBox="0 0 358 296">
    <defs>
        <path id="838igh8voa" d="M0 0H358V296H0z"/>
    </defs>
    <g fill="none" fill-rule="evenodd">
        <g>
            <g transform="translate(-683 -247) translate(683 247)">
                <mask id="b489shzt5b" fill="#fff">
                    <use xlink:href="#838igh8voa"/>
                </mask>
                <g mask="url(#b489shzt5b)">
                    <g>
                        <g opacity=".6">
                            <path fill="#DDE3E9" d="M312.274 85.84c4.548 37.985-105.76 62.761-200.705 45.47C16.624 114.02-26.933 46.497 18.374 10.52 63.68-25.46 307.725 47.855 312.274 85.84z" transform="translate(0 .5) translate(1.86 138.644)"/>
                        </g>
                        <g fill-rule="nonzero">
                            <path fill="#B3B3B3" d="M125.761 134.653c-1.923 0-3.477-1.595-3.477-3.56V59.908c0-1.965 1.554-3.56 3.477-3.56 1.923 0 3.478 1.595 3.478 3.56v71.185c0 1.965-1.555 3.56-3.478 3.56zM3.477 134.653c-1.923 0-3.477-1.603-3.477-3.577V9.463C0 7.49 1.554 5.886 3.477 5.886c1.923 0 3.478 1.603 3.478 3.577v121.613c0 1.974-1.555 3.577-3.478 3.577z" transform="translate(0 .5) translate(207.322 150.808)"/>
                            <path fill="#A67C52" d="M122.284 20.387H215.01100000000002V63.309H122.284z" transform="translate(0 .5) translate(207.322 150.808)"/>
                            <path fill="#5E4027" d="M122.284 13.427H215.01100000000002V20.387H122.284z" transform="translate(0 .5) translate(207.322 150.808)"/>
                            <path fill="#87613E" d="M215.011 14.5H0V3.626C0 1.625 1.597 0 3.565 0h207.88c1.969 0 3.566 1.624 3.566 3.625v10.876z" transform="translate(0 .5) translate(207.322 150.808)"/>
                        </g>
                        <g transform="translate(0 .5) translate(110.062 14.362)">
                            <rect width="169.936" height="175.516" fill="#F2F2F2" rx="4.058"/>
                            <rect width="35.509" height="41.089" x="126.311" y="21.813" fill="#FFF" rx="4.058"/>
                            <g fill="#DDE3E9" transform="translate(131.384 29.422)">
                                <circle cx="12.682" cy="8.116" r="8.116"/>
                                <rect width="25.364" height="3.044" y="18.262" rx="1.522"/>
                                <rect width="17.247" height="3.044" x="4.058" y="23.335" rx="1.522"/>
                            </g>
                            <path fill="#C5CFD6" d="M4.058 0h161.82c2.241 0 4.058 1.817 4.058 4.058v9.638H0V4.058C0 1.817 1.817 0 4.058 0z"/>
                            <g fill="#F2F2F2" transform="translate(4.565 5.073)">
                                <circle cx="2.029" cy="2.029" r="2.029"/>
                                <circle cx="8.116" cy="2.029" r="2.029"/>
                                <circle cx="14.204" cy="2.029" r="2.029"/>
                            </g>
                            <g transform="translate(126.31 66.96)">
                                <rect width="35.509" height="98.411" fill="#FFF" rx="4.058"/>
                                <g transform="translate(9.13 9.13)">
                                    <rect width="17.247" height="13.189" fill="#DDE3E9" rx="2.029"/>
                                    <rect width="17.247" height="12.682" y="17.247" fill="#AFB9C5" rx="2.029"/>
                                    <rect width="17.247" height="12.682" y="33.987" fill="#DDE3E9" rx="2.029"/>
                                    <rect width="17.247" height="12.682" y="67.467" fill="#DDE3E9" rx="2.029"/>
                                    <rect width="17.247" height="12.682" y="50.727" fill="#C5CFD6" rx="2.029"/>
                                </g>
                            </g>
                            <g>
                                <g transform="translate(8.116 22.32)">
                                    <rect width="114.136" height="23.842" fill="#FFF" rx="2.029"/>
                                    <g fill="#DDE3E9" transform="translate(4.565 7.153)">
                                        <rect width="84.715" height="3.576" rx="1.522"/>
                                        <rect width="56.863" height="3.576" y="5.96" rx="1.522"/>
                                    </g>
                                    <g transform="translate(98.388 8.37)">
                                        <circle cx="3.551" cy="3.551" r="3.551" fill="#DDE3E9"/>
                                        <circle cx="3.551" cy="3.551" r="1.522" fill="#F2F2F2"/>
                                    </g>
                                </g>
                                <g transform="translate(8.116 22.32) translate(0 27.9)">
                                    <rect width="114.136" height="19.784" fill="#FFF" rx="2.029"/>
                                    <g fill="#DDE3E9" transform="translate(4.565 5.935)">
                                        <rect width="84.715" height="2.968" rx="1.484"/>
                                        <rect width="56.863" height="2.968" y="4.946" rx="1.484"/>
                                    </g>
                                    <g transform="translate(98.388 6.34)">
                                        <circle cx="3.551" cy="3.551" r="3.551" fill="#DDE3E9"/>
                                        <circle cx="3.551" cy="3.551" r="1.522" fill="#F2F2F2"/>
                                    </g>
                                </g>
                                <g transform="translate(8.116 22.32) translate(0 51.742)">
                                    <rect width="114.136" height="19.784" fill="#FFF" rx="2.029"/>
                                    <g fill="#DDE3E9" transform="translate(4.565 5.935)">
                                        <rect width="84.715" height="2.968" rx="1.484"/>
                                        <rect width="56.863" height="2.968" y="4.946" rx="1.484"/>
                                    </g>
                                    <g transform="translate(98.388 6.34)">
                                        <circle cx="3.551" cy="3.551" r="3.551" fill="#DDE3E9"/>
                                        <circle cx="3.551" cy="3.551" r="1.522" fill="#AFB9C5"/>
                                    </g>
                                </g>
                                <g transform="translate(8.116 22.32) translate(0 123.267)">
                                    <rect width="114.136" height="19.784" fill="#FFF" rx="2.029"/>
                                    <g fill="#DDE3E9" transform="translate(4.565 5.935)">
                                        <rect width="84.715" height="2.968" rx="1.484"/>
                                        <rect width="56.863" height="2.968" y="4.946" rx="1.484"/>
                                    </g>
                                    <g transform="translate(98.388 6.34)">
                                        <circle cx="3.551" cy="3.551" r="3.551" fill="#DDE3E9"/>
                                        <circle cx="3.551" cy="3.551" r="1.522" fill="#F2F2F2"/>
                                    </g>
                                </g>
                                <g transform="translate(8.116 22.32) translate(0 99.425)">
                                    <rect width="114.136" height="19.784" fill="#FFF" rx="2.029"/>
                                    <g fill="#DDE3E9" transform="translate(4.565 5.935)">
                                        <rect width="84.715" height="2.968" rx="1.484"/>
                                        <rect width="56.863" height="2.968" y="4.946" rx="1.484"/>
                                    </g>
                                    <g transform="translate(98.388 6.34)">
                                        <circle cx="3.551" cy="3.551" r="3.551" fill="#DDE3E9"/>
                                        <circle cx="3.551" cy="3.551" r="1.522" fill="#F2F2F2"/>
                                    </g>
                                </g>
                                <g transform="translate(8.116 22.32) translate(0 75.584)">
                                    <rect width="114.136" height="19.784" fill="#FFF" rx="2.029"/>
                                    <g fill="#DDE3E9" transform="translate(4.565 5.935)">
                                        <rect width="84.715" height="2.968" rx="1.484"/>
                                        <rect width="56.863" height="2.968" y="4.946" rx="1.484"/>
                                    </g>
                                    <g transform="translate(98.388 6.34)">
                                        <circle cx="3.551" cy="3.551" r="3.551" fill="#DDE3E9"/>
                                        <circle cx="3.551" cy="3.551" r="1.522" fill="#F2F2F2"/>
                                    </g>
                                </g>
                            </g>
                        </g>
                        <g>
                            <g>
                                <path fill="#915B3C" d="M23.054 5.525c3.502 6.534 3.086 23.107-1.44 24.275-1.805.466-5.65-.675-9.564-3.036l2.456 17.394H0l4.993-23.295C2.208 17.59.323 13.582.64 9.089 1.546-3.856 19.552-1.008 23.054 5.525z" transform="translate(0 .5) translate(14.498 29.001) rotate(15 10.256 88.196) translate(28.581 7.152)"/>
                                <path fill="#191847" d="M47.318.498c3.338 0 6.044 2.708 6.044 6.049 0 3.23-2.53 5.868-5.714 6.04-1.823.562-4.166.976-6.764 1.15.253.949.39 2.027.39 3.245 0 1.076-.12 2.217-.338 3.375-.563-.67-1.316-1.107-2.08-1.107-2.138 0-3.626 1.76-3.626 3.63 0 2.371 1.368 4.087 3.365 4.225-1.798 3.455-4.286 6.058-6.772 6.058-4.72 0-8.077-6.317-8.077-13.109 0-.239.005-.476.014-.71-4.994 3.429-8.842 10.19-15.45 10.19-8.99 0-12.56-18.148 0-18.148 8.542 0 12.744 1.247 16.365 3.09.713-2.014 1.801-3.708 3.132-4.891.317-.358.803-.7 1.429-1.019.39-.214.792-.388 1.205-.52 2.184-.805 5.353-1.373 8.893-1.497.66-.023 1.308-.03 1.94-.021.01-3.332 2.712-6.03 6.044-6.03z" transform="translate(0 .5) translate(14.498 29.001) rotate(15 10.256 88.196)"/>
                            </g>
                            <g>
                                <path fill="#784931" d="M26.364 0L48.504 76.356 58.917 133.685 69.369 133.685 58.936 0z" transform="translate(0 .5) translate(14.498 29.001) translate(0 110.786)"/>
                                <path fill="#915B3C" d="M16.414 0c1.545 39.666.936 61.302.59 64.906-.346 3.603-2.309 27.74-15.684 69.989h10.87c17.714-40.531 23.898-64.667 25.93-69.99C40.15 59.584 46.152 37.949 54.912 0H16.414z" transform="translate(0 .5) translate(14.498 29.001) translate(0 110.786)"/>
                                <path fill="#69A1AC" d="M25.889 0c5.759 26.274 15.719 68.215 29.881 125.821h15.287C72.187 66.694 67.383 27.778 59.065 0H25.889z" transform="translate(0 .5) translate(14.498 29.001) translate(0 110.786)"/>
                                <path fill="#89C5CC" d="M16.337 0c1.513 39.666-2.408 78.745-14.554 126.439h16.31C35.84 86.513 48.56 47.627 57.254 0H16.336z" transform="translate(0 .5) translate(14.498 29.001) translate(0 110.786)"/>
                                <g fill="#191847">
                                    <path d="M0 11.361l.6-9.678c3.512 1.028 7.91.624 13.196-1.21 5.72 4.054 12.928 6.815 21.627 8.281.576.097.965.643.868 1.22-.007.037-.015.075-.026.112l-.875 3.09H1.2L0 11.36z" transform="translate(0 .5) translate(14.498 29.001) translate(0 110.786) translate(0 131.667)"/>
                                </g>
                                <g fill="#191847">
                                    <path d="M0 11.361l.6-9.678c3.512 1.028 7.91.624 13.196-1.21 5.72 4.054 12.928 6.815 21.627 8.281.576.097.965.643.868 1.22-.007.037-.015.075-.026.112l-.875 3.09H1.2L0 11.36z" transform="translate(0 .5) translate(14.498 29.001) translate(0 110.786) translate(56.795 131.667)"/>
                                </g>
                            </g>
                            <g>
                                <path fill="#915B3C" d="M65.59 55.181l19.28 14.17c5.229 1.411 9.598 3.168 13.106 5.27.829.756 1.83 2.286-1.607 2.022l-.574-.043c-3.256-.231-6.516-.28-6.964.828-.474 1.173 1.606 2.577.647 4.16-.639 1.055-3.658-1.591-9.058-7.94L61.33 65.726l4.262-10.544zm37.674-52.11c-2.28 2.588-4.56 5.413-3.91 6.498.65 1.085 3.022.267 3.708 1.986.458 1.146-3.47 1.967-11.786 2.462L73.464 24.51l-5.85-9.752 22.91-6.883C94.798 4.544 98.83 2.11 102.618.57c1.101-.207 2.925-.087.646 2.501z" transform="translate(0 .5) translate(14.498 29.001) rotate(10 -157.801 146.317)"/>
                                <path fill="#2026A2" d="M28.642 22.803c15.212 16.208 33.764 26.786 59.064 36.17l-5.615 11.242c-26.103-2.469-40.059-4.439-51.002-20.67-2.746-4.074-7.659-18.09-10.601-25.37l8.154-1.372z" transform="translate(0 .5) translate(14.498 29.001) rotate(10 -157.801 146.317) rotate(15 54.097 46.509)"/>
                                <path fill="#F2F2F2" d="M6.294 82.3h46.54C42.291 50.122 36.905 28.037 36.677 16.046c-.012-.612-1.14-1.69-1.64-1.548-3.65 1.032-7.555.646-11.717-1.157C12.288 31.1 8.473 52.965 6.294 82.3z" transform="translate(0 .5) translate(14.498 29.001) rotate(10 -157.801 146.317)"/>
                                <path fill="#1F28CF" d="M87.238 7.896l2.464 12.325C70.836 32.364 51.733 41.77 34.994 40.435c7.27 31.205 6.935 56.75-9.113 56.75H1.067c-3.941-26.509 6.417-63.263 16.02-81.802.366-.708 1.147-2.042 2.986-2.042h7.21l.01.029c5.007.04 11.187.41 18.274.43h1.208c11.55-.033 25.402-1.064 40.463-5.904z" transform="translate(0 .5) translate(14.498 29.001) rotate(10 -157.801 146.317)"/>
                            </g>
                        </g>
                        <g transform="translate(0 .5) translate(134.776 51.175)">
                            <path fill="#C5CFD6" d="M25.292 27.31l-.007.017c.003-.005.007-.026.007-.016"/>
                            <path fill="#C5CFD6" d="M25.287 27.318v.005c0-.005.008-.02 0-.005"/>
                            <path fill="#C5CFD6" d="M25.323 27.233l-.025.06.012-.029c-.105.264-.038.092.013-.031"/>
                            <path fill="#C5CFD6" d="M25.3 27.294l-.012.028c-.03.057.012-.028.012-.028M25.288 27.318L25.288 27.318 25.288 27.317zM25.288 27.319l.001-.002-.001.002M25.283 27.326c-.006.012.029-.047 0 0"/>
                            <path fill="#C5CFD6" d="M25.287 27.319l.002-.002s0 .002-.002.002"/>
                            <rect width="50.727" height="31.939" x=".395" y=".526" fill="#DDE3E9" rx="2.029"/>
                            <rect width="24.424" height="3.758" x="4.152" y="6.162" fill="#FFF" rx="1.522"/>
                            <rect width="32.879" height="3.758" x="4.152" y="21.193" fill="#AFB9C5" rx="1.522"/>
                            <rect width="38.515" height="3.758" x="4.152" y="13.678" fill="#AFB9C5" rx="1.522"/>
                        </g>
                        <g fill-rule="nonzero">
                            <path fill="#A67C52" d="M9.917 7.54c-.285 0-.515-.238-.515-.531 0-1.83-1.237-4.188-3.24-4.808-.272-.084-.426-.38-.345-.662.082-.281.369-.44.642-.356 2.454.76 3.973 3.616 3.973 5.826 0 .293-.23.531-.515.531z" transform="translate(0 .5) translate(346.993 127.606)"/>
                            <path fill="#E86C60" d="M12.736 23.781c-.547-.01-1.094-.064-1.633-.16-.318-.058-.64-.093-.963-.106-.323.013-.644.048-.962.107-1.783.274-4.475.687-7.06-3.503-3.156-5.123-2.494-11.031.077-13.132 1.942-1.585 4.046-1.23 5.903-.917.674.134 1.358.214 2.044.237.687-.023 1.37-.103 2.045-.237 1.858-.313 3.96-.668 5.903.917 2.57 2.098 3.233 8.008.072 13.133-1.882 3.053-3.822 3.661-5.426 3.661z" transform="translate(0 .5) translate(346.993 127.606)"/>
                        </g>
                    </g>
                </g>
            </g>
        </g>
    </g>
</svg>
