<svg width="325" height="216" viewBox="0 0 325 216" xmlns="http://www.w3.org/2000/svg" xmlns:xlink="http://www.w3.org/1999/xlink">
    <defs>
        <path id="a" d="M0 0h325v216H0z"/>
    </defs>
    <g fill="none" fill-rule="evenodd">
        <mask id="b" fill="#fff">
            <use xlink:href="#a"/>
        </mask>
        <g mask="url(#b)">
            <g fill-rule="nonzero">
                <path d="M311.217 231.538c-1.429 0-2.583-1.185-2.583-2.645v-52.908c0-1.46 1.154-2.646 2.583-2.646 1.429 0 2.584 1.185 2.584 2.646v52.908c0 1.46-1.155 2.645-2.584 2.645zM247.487 231.538c-1.43 0-2.584-1.185-2.584-2.645v-52.908c0-1.46 1.155-2.646 2.584-2.646 1.428 0 2.583 1.185 2.583 2.646v52.908c0 1.46-1.155 2.645-2.583 2.645zM156.628 231.538c-1.43 0-2.584-1.191-2.584-2.658v-90.388c0-1.468 1.155-2.659 2.584-2.659 1.428 0 2.583 1.191 2.583 2.659v90.388c0 1.467-1.155 2.658-2.583 2.658z" fill="#B3B3B3"/>
                <path fill="#A67C52" d="M244.903 146.61H313.8v31.902h-68.898z"/>
                <path d="M284.878 165.148h-10.622c-1.468 0-2.655-1.159-2.655-2.586 0-1.428 1.187-2.587 2.655-2.587h10.622c1.469 0 2.656 1.159 2.656 2.587 0 1.427-1.187 2.586-2.656 2.586z" fill="#E6E6E6"/>
                <path fill="#5E4027" d="M244.903 141.437H313.8v5.173h-68.898z"/>
                <path d="M313.8 142.236H154.045v-8.083c0-1.488 1.187-2.695 2.649-2.695h154.459c1.462 0 2.649 1.207 2.649 2.695v8.083z" fill="#87613E"/>
            </g>
            <g transform="translate(281.936 95.214)">
                <ellipse fill="#BADEFC" cx="15.454" cy="14.769" rx="12.759" ry="12.773"/>
                <path d="M22.165 6.556c-.689.792.25 2.683 0 3.847-.334 1.55-1.607 2.308-.803 3.077.425.407 1.618 1.604 6.55 2.902.414-3.642-.83-7.425-3.74-10.21a12.97 12.97 0 0 0-.637-.568c-.408.17-.926.441-1.37.952zM5.097 15.83c1.181-.306 2.707-1.115 3.093-3.17.256-1.367.061-3.234.773-3.964.946-.97 3.591 1.032 5.412.793 1.61-.21 2.452-2.645 2.685-3.59.237-.963.18-2.567.066-3.584A12.37 12.37 0 0 0 6.257 5.922c-2.669 2.736-3.881 6.406-3.644 9.994.82.067 2.012.036 2.484-.086z" fill="#72C472" fill-rule="nonzero"/>
                <path d="M27.99 16.619c-4.82-1.328-5.986-2.553-6.402-2.97-.785-.787.459-1.562.785-3.15.245-1.19-.673-3.125 0-3.936.435-.523.94-.8 1.339-.974a12.671 12.671 0 0 0-6.395-3.002c.116 1.01.174 2.603-.067 3.56-.236.939-1.091 3.356-2.726 3.566-1.848.237-4.533-1.751-5.494-.788-.722.725-.524 2.58-.784 3.937-.392 2.041-1.941 2.845-3.14 3.149-.48.121-1.69.152-2.522.085a12.764 12.764 0 0 0 3.7 8.181c4.976 4.993 13.074 4.993 18.051 0a12.756 12.756 0 0 0 3.655-7.658zM10.6 21.522c-.392-1.968 2.028-1.64 4.011-5.576.83-1.646 3.585-1.128 5.102.394 1.517 1.522 1.675 3.795.392 5.117-2.387 2.46-9.025 2.473-9.505.065z" fill="#BADEFC" fill-rule="nonzero"/>
                <path d="M19.422 16.465c-1.506-1.487-4.24-1.993-5.064-.384-1.969 3.844-4.37 3.524-3.981 5.447.476 2.352 7.065 2.34 9.435-.064 1.273-1.291 1.116-3.512-.39-4.999z" fill="#72C472" fill-rule="nonzero"/>
                <path d="M31.865 15.13c0-4.221-1.58-8.203-4.354-11.243l2.527-2.527A.796.796 0 1 0 28.912.233l-2.534 2.534a16.922 16.922 0 0 0-2.117-1.643.796.796 0 1 0-.87 1.334c4.309 2.81 6.881 7.547 6.881 12.671 0 8.342-6.79 15.142-15.136 15.142a15.133 15.133 0 0 1-10.675-4.425c-.006-.007-.008-.016-.014-.022-.006-.006-.014-.008-.02-.013a15.256 15.256 0 0 1-1.753-2.106.797.797 0 1 0-1.312.905c.431.625.904 1.211 1.408 1.764L.233 28.911a.796.796 0 1 0 1.127 1.126L3.897 27.5a16.718 16.718 0 0 0 10.443 4.313v3.238H8.763a.797.797 0 0 0 0 1.593H21.51a.797.797 0 0 0 0-1.593h-5.576v-3.24c8.853-.42 15.932-7.73 15.932-16.682z" fill="#A67C52" fill-rule="nonzero"/>
            </g>
            <g transform="translate(59.935 7.451)">
                <rect fill="#F2F2F2" width="169.936" height="175.516" rx="4.058"/>
                <rect fill="#FFF" x="126.311" y="21.813" width="35.509" height="41.089" rx="4.058"/>
                <g transform="translate(131.384 29.422)" fill="#DDE3E9">
                    <circle cx="12.682" cy="8.116" r="8.116"/>
                    <rect y="18.262" width="25.364" height="3.044" rx="1.522"/>
                    <rect x="4.058" y="23.335" width="17.247" height="3.044" rx="1.522"/>
                </g>
                <path d="M4.058 0h161.82a4.058 4.058 0 0 1 4.058 4.058v9.638H0V4.058A4.058 4.058 0 0 1 4.058 0z" fill="#C5CFD6"/>
                <g transform="translate(4.565 5.073)" fill="#F2F2F2">
                    <circle cx="2.029" cy="2.029" r="2.029"/>
                    <circle cx="8.116" cy="2.029" r="2.029"/>
                    <circle cx="14.204" cy="2.029" r="2.029"/>
                </g>
                <g transform="translate(126.31 66.96)">
                    <rect fill="#FFF" width="35.509" height="98.411" rx="4.058"/>
                    <g transform="translate(9.13 9.13)">
                        <rect fill="#DDE3E9" width="17.247" height="13.189" rx="2.029"/>
                        <rect fill="#AFB9C5" y="17.247" width="17.247" height="12.682" rx="2.029"/>
                        <rect fill="#DDE3E9" y="33.987" width="17.247" height="12.682" rx="2.029"/>
                        <rect fill="#DDE3E9" y="67.467" width="17.247" height="12.682" rx="2.029"/>
                        <rect fill="#C5CFD6" y="50.727" width="17.247" height="12.682" rx="2.029"/>
                    </g>
                </g>
                <g transform="translate(8.116 22.32)">
                    <rect fill="#FFF" width="114.136" height="23.842" rx="2.029"/>
                    <g transform="translate(4.565 7.153)" fill="#DDE3E9">
                        <rect width="84.715" height="3.576" rx="1.522"/>
                        <rect y="5.96" width="56.863" height="3.576" rx="1.522"/>
                    </g>
                    <g transform="translate(98.388 8.37)">
                        <circle fill="#DDE3E9" cx="3.551" cy="3.551" r="3.551"/>
                        <circle fill="#F2F2F2" cx="3.551" cy="3.551" r="1.522"/>
                    </g>
                </g>
                <g transform="translate(8.116 50.22)">
                    <rect fill="#FFF" width="114.136" height="19.784" rx="2.029"/>
                    <g transform="translate(4.565 5.935)" fill="#DDE3E9">
                        <rect width="84.715" height="2.968" rx="1.484"/>
                        <rect y="4.946" width="56.863" height="2.968" rx="1.484"/>
                    </g>
                    <g transform="translate(98.388 6.34)">
                        <circle fill="#DDE3E9" cx="3.551" cy="3.551" r="3.551"/>
                        <circle fill="#F2F2F2" cx="3.551" cy="3.551" r="1.522"/>
                    </g>
                </g>
                <g transform="translate(8.116 74.062)">
                    <rect fill="#FFF" width="114.136" height="19.784" rx="2.029"/>
                    <g transform="translate(4.565 5.935)" fill="#DDE3E9">
                        <rect width="84.715" height="2.968" rx="1.484"/>
                        <rect y="4.946" width="56.863" height="2.968" rx="1.484"/>
                    </g>
                    <g transform="translate(98.388 6.34)">
                        <circle fill="#DDE3E9" cx="3.551" cy="3.551" r="3.551"/>
                        <circle fill="#AFB9C5" cx="3.551" cy="3.551" r="1.522"/>
                    </g>
                </g>
                <g transform="translate(8.116 145.587)">
                    <rect fill="#FFF" width="114.136" height="19.784" rx="2.029"/>
                    <g transform="translate(4.565 5.935)" fill="#DDE3E9">
                        <rect width="84.715" height="2.968" rx="1.484"/>
                        <rect y="4.946" width="56.863" height="2.968" rx="1.484"/>
                    </g>
                    <g transform="translate(98.388 6.34)">
                        <circle fill="#DDE3E9" cx="3.551" cy="3.551" r="3.551"/>
                        <circle fill="#F2F2F2" cx="3.551" cy="3.551" r="1.522"/>
                    </g>
                </g>
                <g transform="translate(8.116 121.745)">
                    <rect fill="#FFF" width="114.136" height="19.784" rx="2.029"/>
                    <g transform="translate(4.565 5.935)" fill="#DDE3E9">
                        <rect width="84.715" height="2.968" rx="1.484"/>
                        <rect y="4.946" width="56.863" height="2.968" rx="1.484"/>
                    </g>
                    <g transform="translate(98.388 6.34)">
                        <circle fill="#DDE3E9" cx="3.551" cy="3.551" r="3.551"/>
                        <circle fill="#F2F2F2" cx="3.551" cy="3.551" r="1.522"/>
                    </g>
                </g>
                <g transform="translate(8.116 97.904)">
                    <rect fill="#FFF" width="114.136" height="19.784" rx="2.029"/>
                    <g transform="translate(4.565 5.935)" fill="#DDE3E9">
                        <rect width="84.715" height="2.968" rx="1.484"/>
                        <rect y="4.946" width="56.863" height="2.968" rx="1.484"/>
                    </g>
                    <g transform="translate(98.388 6.34)">
                        <circle fill="#DDE3E9" cx="3.551" cy="3.551" r="3.551"/>
                        <circle fill="#F2F2F2" cx="3.551" cy="3.551" r="1.522"/>
                    </g>
                </g>
            </g>
            <path d="M62.614 60.22c1.257 5.364-2.23 17.182-5.704 17.15-1.385-.013-3.925-1.571-6.28-4.02l-1.583 12.961-10.41-2.79 8.065-15.762c-1.37-2.885-1.952-6.126-.861-9.291 3.141-9.12 15.516-3.612 16.773 1.752z" fill="#915B3C"/>
            <path d="M61.858 50.646a4.493 4.493 0 0 1 3.174 5.505 4.494 4.494 0 0 1-5.262 3.237c-1.417.054-3.178-.1-5.075-.474-.003.73-.112 1.53-.346 2.404a13.653 13.653 0 0 1-.891 2.359c-.275-.59-.732-1.049-1.28-1.196-1.535-.411-2.942.566-3.301 1.908-.456 1.703.195 3.198 1.603 3.681-1.956 2.135-4.242 3.525-6.026 3.047-3.388-.908-4.582-6.088-3.275-10.964.045-.171.094-.34.146-.507-4.243 1.5-8.306 5.614-13.048 4.343-6.452-1.728-5.524-15.443 3.49-13.028 6.132 1.643 8.907 3.346 11.152 5.366.898-1.308 2.003-2.314 3.184-2.907.298-.197.714-.35 1.227-.46l.017-.003c.311-.076.624-.122.937-.137 1.723-.16 4.11.042 6.68.635.478.11.944.23 1.396.358a4.493 4.493 0 0 1 5.498-3.167z" fill="#191847"/>
            <path fill="#784931" d="m30.36 123.267 16.451 56.751 7.737 42.61h7.767l-7.753-99.36z"/>
            <path d="M22.968 123.267c1.148 29.482.695 45.562.438 48.24-.257 2.68-1.715 20.619-11.654 52.02h8.078c13.161-30.124 17.756-48.063 19.266-52.02 1.51-3.955 5.968-20.035 12.477-48.24H22.968z" fill="#915B3C"/>
            <path d="M30.008 123.267c4.279 19.529 11.68 50.7 22.202 93.516H63.57c.839-43.946-2.73-72.87-8.91-93.516H30.007z" fill="#69A1AC"/>
            <path d="M22.91 123.267c1.125 29.482-1.789 58.527-10.813 93.975h12.119c13.186-29.675 22.637-58.576 29.095-93.975h-30.4z" fill="#89C5CC"/>
            <g>
                <path d="m68.744 111.8 12.278 12.858c3.644 1.709 6.614 3.558 8.91 5.55.509.66 1.044 1.91-1.437 1.272-2.48-.637-5.118-1.195-5.617-.398-.498.798.842 2.093-.063 3.128-.604.69-2.472-1.636-5.604-6.98l-12.947-8.262 4.48-7.168zm34.292-33.281c-2.002 1.6-4.036 3.373-3.7 4.251.336.878 2.177.586 2.457 1.932.187.898-2.793.992-8.942.282l-14.388 5.381-3.02-7.893 17.65-2.082c3.558-1.886 6.822-3.147 9.792-3.785.834-.01 2.153.313.15 1.914z" fill="#915B3C"/>
                <path d="M51.756 80.006C56.91 95.7 66.08 108.654 80.17 122.92l-7.311 5.809c-16.803-9.861-25.582-15.571-27.853-29.942-.57-3.607.524-14.591.828-20.419l5.922 1.637z" fill="#2026A2"/>
                <path d="m21.855 124 34.054 6.004c-3.561-24.913-4.651-41.773-3.27-50.58.07-.449-.617-1.383-1-1.344-2.804.284-5.613-.502-8.425-2.36-10.365 11.576-15.979 27.088-21.36 48.28z" fill="#F2F2F2"/>
                <path d="m90.686 79.983.213 9.338c-15.372 6.455-30.564 10.875-42.64 7.738 1.292 23.778-2.25 42.433-13.993 40.362L16.11 134.22c.537-19.911 12.86-45.477 22.28-57.807.359-.471 1.102-1.347 2.448-1.11l5.276.93.003.022c9.748 1.802 25.27 6.379 44.57 3.729z" fill="#1F28CF"/>
            </g>
            <g transform="translate(93.46 53.17)">
                <path d="m25.292 27.31-.007.017c.003-.005.007-.026.007-.016" fill="#C5CFD6"/>
                <path d="M25.287 27.318v.005c0-.005.008-.02 0-.005M25.323 27.233l-.025.06.012-.029a5.58 5.58 0 0 1 .013-.031" fill="#C5CFD6"/>
                <path d="m25.3 27.294-.012.028c-.03.057.012-.028.012-.028M25.288 27.318zM25.288 27.319l.001-.002-.001.002" fill="#C5CFD6"/>
                <path d="M25.283 27.326c-.006.012.029-.047 0 0" fill="#C5CFD6"/>
                <path d="m25.287 27.319.002-.002s0 .002-.002.002" fill="#C5CFD6"/>
                <rect fill="#DDE3E9" x=".395" y=".526" width="50.727" height="31.939" rx="2.029"/>
                <rect fill="#FFF" x="4.152" y="6.162" width="24.424" height="3.758" rx="1.522"/>
                <rect fill="#AFB9C5" x="4.152" y="21.193" width="32.879" height="3.758" rx="1.522"/>
                <rect fill="#AFB9C5" x="4.152" y="13.678" width="38.515" height="3.758" rx="1.522"/>
            </g>
            <g fill-rule="nonzero">
                <path d="M265.19 119.819a.39.39 0 0 1-.383-.396c0-1.36-.919-3.112-2.407-3.573a.397.397 0 0 1-.256-.492.38.38 0 0 1 .476-.265c1.824.565 2.952 2.688 2.952 4.33a.39.39 0 0 1-.382.396z" fill="#A67C52"/>
                <path d="M267.285 131.89a7.828 7.828 0 0 1-1.214-.119 5.033 5.033 0 0 0-.715-.08c-.24.01-.479.037-.715.08-1.325.204-3.326.51-5.246-2.604-2.345-3.807-1.853-8.198.057-9.76 1.443-1.178 3.006-.913 4.386-.682.501.1 1.01.16 1.52.177a9.399 9.399 0 0 0 1.518-.177c1.38-.232 2.943-.496 4.386.682 1.91 1.56 2.402 5.952.054 9.761-1.398 2.27-2.84 2.721-4.031 2.721z" fill="#E86C60"/>
                <path d="M269.017 114.214v.767c0 1.481-1.156 2.682-2.583 2.682v-.766c0-1.482 1.156-2.683 2.583-2.683z" fill="#72C472"/>
            </g>
        </g>
    </g>
</svg>
