<svg xmlns="http://www.w3.org/2000/svg" width="258" height="24" viewBox="0 0 258 24">
    <g fill="none" fill-rule="evenodd">
        <g>
            <g>
                <g>
                    <g fill="#221F20" fill-rule="nonzero">
                        <path d="M28.82 18.813c-2.72 0-3.913-2-3.913-4.493 0-2.493.84-5.127 3.72-5.127.858-.06 1.702.25 2.318.851.616.6.947 1.436.908 2.296h2.44V7.613h-2.44v1.48l-.04-.033c-.86-1.293-2.133-1.727-3.66-1.727-4.086 0-6.1 2.86-6.1 6.767 0 3.72 2.174 6.573 6.667 6.573 2.52 0 5.547-1.113 5.607-4.666h-2.594c-.005.763-.316 1.493-.864 2.026-.547.532-1.285.823-2.049.807m11.1-7.867c-2.873 0-4.887 1.8-4.887 4.854 0 3.053 2 4.846 4.887 4.846 2.887 0 4.893-1.8 4.893-4.846 0-3.047-2-4.854-4.893-4.854m0 7.84c-1.66 0-2.187-1.54-2.187-2.986 0-1.447.527-3 2.187-3 1.66 0 2.193 1.546 2.193 3 0 1.453-.526 2.986-2.193 2.986m8.833-11.48H44.88v1.76h1.273v9.574H44.88V20.4H50v-1.733h-1.267l.02-11.334zm6.094 0h-3.874v1.76h1.274v9.574h-1.274V20.4h5.147v-1.733h-1.273V7.333zm10.82 7.16c-.34-2.124-2.233-3.646-4.38-3.52-2.894 0-4.854 1.854-4.854 4.734 0 3.046 1.7 4.96 4.9 4.96 2.094 0 3.887-.9 4.32-3.107H63.22c-.165.843-.945 1.422-1.8 1.333-.63.05-1.251-.185-1.693-.638-.441-.453-.659-1.079-.594-1.708H65.8c.017-.693-.021-1.387-.113-2.074m-6.534.414c-.048-.56.14-1.115.521-1.528.38-.413.917-.648 1.48-.646 1.333 0 2 .86 2 2.174h-4zm14.8-2.22h-.04c-.62-1.055-1.77-1.685-2.993-1.64-2.953 0-4.187 2.113-4.187 4.813 0 2.327 1.454 4.433 3.914 4.433 1.186.117 2.348-.387 3.073-1.333V20c.061 1.174-.828 2.181-2 2.267-.833 0-1.62-.16-1.7-1.274h-2.833C67.333 23.14 68.773 24 71.467 24c3.68 0 4.853-2.113 4.853-4.44v-6.553h1.273v-1.76h-3.64v1.42zm-2.306 5.753c-1.467 0-2.214-1.273-2.214-2.667 0-1.393.607-2.86 2.254-2.86 1.646 0 2.186 1.334 2.186 2.76 0 1.427-.62 2.78-2.226 2.78M87.14 14.52c-.336-2.126-2.231-3.65-4.38-3.52-2.9 0-4.853 1.853-4.853 4.733 0 3.047 1.706 4.967 4.913 4.967 2.087 0 3.893-.9 4.32-3.107h-2.473c-.165.844-.946 1.422-1.8 1.334-.631.049-1.251-.185-1.693-.638-.442-.454-.66-1.08-.594-1.709h6.667c.017-.693-.023-1.387-.12-2.073m-6.534.413c-.048-.56.14-1.114.521-1.528.38-.413.917-.647 1.48-.645 1.333 0 2 .86 2 2.173h-4zM96.4 13.707v-.04c1.74-.22 2.62-1.214 2.62-2.914 0-3.073-2.733-3.133-5.067-3.133h-6.14v1.847h1.6v9.073h-1.6v1.86h6c2 0 5.574.113 5.574-3.733-.022-1.649-1.365-2.974-3.014-2.974m-4.24-4.226h1.62c1.194 0 2.58.1 2.58 1.64 0 1.54-1.366 1.846-2.666 1.846h-1.534V9.467zm1.794 9.073h-1.794v-3.833h1.814c1.373 0 2.78 0 2.78 1.84 0 1.72-1.134 2-2.8 2m10.833-7.567c-2.873 0-4.887 1.8-4.887 4.853 0 3.054 2 4.847 4.887 4.847 2.887 0 4.893-1.8 4.893-4.847 0-3.046-2-4.853-4.893-4.853m0 7.84c-1.66 0-2.187-1.54-2.187-2.987 0-1.446.527-3 2.187-3 1.66 0 2.187 1.547 2.187 3 0 1.454-.527 2.987-2.187 2.987m14.253-3.833c0-2.774-.96-4-3.913-4-2.153 0-4.3.433-4.46 3.053h2.447c.08-1.06.706-1.487 1.72-1.487 1.013 0 1.766.327 1.766 1.407v.667h-.926c-2.287 0-5.294.08-5.294 3.093 0 1.953 1.48 2.933 3.187 2.933 1.24.114 2.43-.517 3.033-1.606v1.333h3.58v-1.713h-1.173l.033-3.68zm-4.833 3.933c-.8 0-1.387-.393-1.387-1.253 0-1.234 1.194-1.447 2.527-1.447h1.253c0 1.567-.846 2.7-2.393 2.7m10.667-5.887h-.04v-1.786h-3.694v1.76h1.274v5.66h-1.274V20.4h5.44v-1.733h-1.573V16c.1-1.587.907-2.853 2.627-2.853.393-.016.787.015 1.173.093v-2.147c-.366-.08-.739-.12-1.113-.12-1.272.044-2.388.857-2.82 2.054m13.58 5.533V7.227h-3.874v1.76h1.274v3.5h-.04c-.523-1.07-1.645-1.715-2.834-1.627-2.393 0-4.113 1.627-4.113 4.987 0 2.466 1.293 4.713 3.96 4.713 1.345.111 2.624-.6 3.24-1.8h.04v1.527h3.62V18.56h-1.273zm-4.947.173c-1.113 0-1.94-1.02-1.94-2.993 0-1.507.513-2.993 2.173-2.993 1.66 0 2.267 1.333 2.267 2.853 0 1.94-.547 3.133-2.5 3.133M16.107 5.113c-.343-.142-.695-.26-1.054-.353-.533-.148-1.074-.266-1.62-.353-.78-.134-2.833-.334-3.18-.34-.113 0-.053-.127 0-.194.054-.066.267-.326.394-.493.265-.341.456-.734.56-1.153.122-.47.165-.957.126-1.44-.024-.178-.069-.353-.133-.52 0-.08-.06-.207-.147-.247-.086-.03-.18-.03-.266 0-.161.054-.317.121-.467.2C9.37.671 8.566 1.38 8 2.267c-.212.344-.344.731-.387 1.133-.006.118-.006.236 0 .353.003.077-.015.153-.053.22-.058.079-.15.125-.247.127-.2 0-1.333.153-1.746.213-.867.134-1.721.339-2.554.614-.318.107-.626.243-.92.406h-.046c-.134.074-.267.147-.394.227-.136.086-.265.182-.386.287-.083.068-.16.141-.234.22l-.086.086-.107.1c-.153.179-.288.373-.4.58v.054c-.04.086-.08.173-.113.266-.052.056-.1.116-.14.18-.003.034-.003.067 0 .1-.04.104-.072.211-.094.32-.064.264-.096.535-.093.807V9.167c.08.416.214.82.4 1.2.314.679.742 1.3 1.267 1.833.054.083.082.18.08.28.064.857.238 1.702.52 2.513.838 2.416 2.328 4.553 4.306 6.174 0 0 .667.56.94.793.374.32 1.054.78 1.054.78.216.159.478.241.746.233.384-.024.75-.169 1.047-.413.387-.253 1.933-1.587 1.933-1.587 1.647-1.453 4.274-4.246 4.567-8.48-.002-.104.028-.206.087-.293.496-.541.899-1.16 1.193-1.833.395-.806.537-1.712.407-2.6-.308-1.246-1.227-2.25-2.44-2.667M8.92 3.427c.013-.202.06-.4.14-.587.18-.466.455-.89.807-1.247.107-.114.228-.215.36-.3.053-.033.146-.093.213-.08.067.014-.113.667-.14.714-.15.427-.376.825-.667 1.173-.129.161-.274.309-.433.44-.047.033-.18.16-.253.133-.074-.026-.054-.193-.047-.246m7.5 5.96l-.153.293s-1.074 1.653-.914 2.567c.314 1.146.178 2.37-.38 3.42-.648 1.594-1.573 3.061-2.733 4.333-.28.288-.575.56-.887.813 0 0-1.446 1.187-1.933 1.187-.412-.034-.799-.216-1.087-.513-.22-.214-.76-.787-.806-.847C4.9 17.36 4.793 14.687 5.28 12.8c.173-.572.547-1.062 1.053-1.38.734-.458 1.557-.756 2.414-.873.506-.04.74-.067 1.246-.08H11.813c.3 0 .6.066.894.12.186.04.366.093.553.12.187.026.3 0 .313-.154.007-.028.007-.058 0-.086-.06-.167-.34-.447-1.42-.72-.246-.055-.495-.095-.746-.12-.154 0-.32-.034-.487-.04h-1.4c-1.82 0-3.44.193-3.44.193s-2.907.42-2.907-1.707c0-2.126 2.667-2.58 4.4-2.826h.08l.26-.034h.54c.287 0 .607-.04.92 0h.154c.668.005 1.336.05 2 .134.485.053.966.14 1.44.26 2.3.473 4.5 1.526 3.446 3.866M16.1 5.2c-.342-.142-.694-.26-1.053-.353-.533-.148-1.074-.266-1.62-.354-.78-.133-2.834-.333-3.18-.34-.114 0-.054-.126 0-.193.053-.067.266-.327.393-.493.265-.341.456-.734.56-1.154.134-.497.18-1.014.133-1.526-.024-.178-.069-.353-.133-.52 0-.08-.06-.207-.147-.247-.086-.03-.18-.03-.266 0-.161.054-.317.121-.467.2C9.37.671 8.566 1.38 8 2.267c-.212.344-.344.731-.387 1.133-.006.118-.006.236 0 .353.003.077-.015.153-.053.22-.058.079-.15.125-.247.127-.2 0-1.333.153-1.746.213-.867.134-1.721.339-2.554.614-.318.107-.626.243-.92.406h-.046c-.134.074-.267.147-.394.227-.136.086-.265.182-.386.287-.083.068-.16.141-.234.22l-.086.086-.107.1c-.153.179-.288.373-.4.58v.054c-.04.086-.08.173-.113.266-.052.056-.1.116-.14.18-.003.034-.003.067 0 .1-.04.104-.072.211-.094.32-.064.264-.096.535-.093.807V9.167c.08.416.214.82.4 1.2.314.679.742 1.3 1.267 1.833.054.083.082.18.08.28.064.857.238 1.702.52 2.513.838 2.416 2.328 4.553 4.306 6.174 0 0 .667.56.94.793.374.32 1.054.78 1.054.78.216.159.478.241.746.233.384-.024.75-.169 1.047-.413.387-.253 1.933-1.587 1.933-1.587 1.647-1.453 4.274-4.246 4.567-8.48-.002-.104.028-.206.087-.293.496-.541.899-1.16 1.193-1.833.395-.806.537-1.712.407-2.6-.308-1.246-1.227-2.25-2.44-2.667M8.92 3.427c.013-.202.06-.4.14-.587.18-.466.455-.89.807-1.247.107-.114.228-.215.36-.3.053-.033.146-.093.213-.08.067.014-.113.667-.14.714-.15.427-.376.825-.667 1.173-.129.161-.274.309-.433.44-.047.033-.18.16-.253.133-.074-.026-.054-.193-.047-.246m7.5 5.96l-.153.293s-1.074 1.653-.914 2.567c.314 1.146.178 2.37-.38 3.42-.648 1.594-1.573 3.061-2.733 4.333-.28.288-.575.56-.887.813 0 0-1.446 1.187-1.933 1.187-.412-.034-.799-.216-1.087-.513-.22-.214-.76-.787-.806-.847C4.9 17.36 4.793 14.687 5.28 12.8c.173-.572.547-1.062 1.053-1.38.734-.458 1.557-.756 2.414-.873.506-.04.74-.067 1.246-.08H11.813c.3 0 .6.066.894.12.186.04.366.093.553.12.187.026.3 0 .313-.154.007-.028.007-.058 0-.086-.06-.167-.34-.447-1.42-.72-.246-.055-.495-.095-.746-.12-.154 0-.32-.034-.487-.04h-1.4c-1.82 0-3.44.193-3.44.193s-2.907.42-2.907-1.707c0-2.126 2.667-2.58 4.4-2.826h.08l.26-.034h.54c.287 0 .607-.04.92 0h.154c.668.005 1.336.05 2 .134.485.053.966.14 1.44.26 2.3.473 4.5 1.526 3.446 3.866" transform="translate(-900 -1310) translate(861 1259) translate(39 51)"/>
                    </g>
                    <path fill="#221F20" d="M164 0H165V24H164z" transform="translate(-900 -1310) translate(861 1259) translate(39 51)"/>
                    <g fill="#027360">
                        <g>
                            <path d="M8.967.312c4.573 0 8.874 3.436 8.874 9.251 0 2.631-.884 4.794-2.263 6.343l2.062 2.355-1.991 1.73-2.145-2.379c-1.355.805-2.946 1.226-4.548 1.226-4.572 0-8.85-3.436-8.85-9.275.012-5.815 4.29-9.25 8.861-9.25zm0 15.666c.884 0 1.792-.18 2.605-.576l-2.876-3.256 2.015-1.754 2.9 3.28c.742-1.033 1.201-2.379 1.201-4.109 0-4.289-2.899-6.415-5.856-6.415-2.923 0-5.833 2.126-5.833 6.415.011 4.289 2.922 6.415 5.844 6.415zM24.463 18.814c-2.851 0-4.525-2.15-4.525-4.866v-7.7h2.852v7.171c0 1.502.683 2.788 2.416 2.788 1.65 0 2.51-1.13 2.51-2.727V6.247h2.851v9.984c0 .997.07 1.778.118 2.234h-2.734c-.047-.276-.094-.853-.094-1.357-.601 1.105-1.992 1.706-3.394 1.706zM35.033.06c1.037 0 1.874.853 1.874 1.91s-.837 1.886-1.874 1.886c-1.013 0-1.85-.829-1.85-1.886S34.02.06 35.033.06zm-1.402 18.405V6.247h2.828v12.206h-2.828v.012zM39.535 18.465L39.535.312 42.386.312 42.386 18.465zM45.462 18.465L45.462.312 48.314.312 48.314 18.465z" transform="translate(-900 -1310) translate(861 1259) translate(39 51) translate(189) translate(0 3.484)"/>
                        </g>
                        <path d="M58.99 20.111c-.236 0-.448-.132-.542-.372l-.554-1.334-1.379.325c-.318.072-.636-.133-.707-.457-.07-.324.13-.649.448-.72l1.862-.433c.283-.06.565.084.671.348l.743 1.79c.13.3-.012.661-.318.781-.071.048-.142.072-.224.072z" transform="translate(-900 -1310) translate(861 1259) translate(39 51) translate(189)"/>
                        <path d="M56.468 21.865c-.094 0-.188-.024-.271-.072-.188-.096-.318-.3-.318-.516l-.07-3.124c-.013-.336.247-.613.577-.613h.011c.319 0 .578.265.59.589l.047 2.018 1.638-1.141c.27-.192.636-.12.813.156.188.276.118.649-.153.83l-2.534 1.765c-.106.072-.212.108-.33.108zM65.223 1.261c.39 0 .79.097 1.167.289 1.26.66 1.756 2.222 1.108 3.508l-4.254 8.458-3.771 1.79-.778-4.17L62.95 2.68c.448-.9 1.344-1.418 2.274-1.418zm0-1.2c-1.402 0-2.686.792-3.323 2.065l-4.254 8.458c-.117.24-.153.505-.106.77l.778 4.168c.07.36.295.673.625.84.165.085.353.133.542.133.165 0 .341-.036.495-.108l3.77-1.79c.236-.108.436-.3.554-.54l4.254-8.459c.943-1.862.212-4.168-1.614-5.117-.542-.277-1.131-.42-1.72-.42z" transform="translate(-900 -1310) translate(861 1259) translate(39 51) translate(189)"/>
                        <path d="M62.183 10.512c-.094 0-.188-.024-.27-.072-.166-.084-.272-.24-.307-.42l-.778-4.17c-.059-.324.153-.636.471-.696.319-.06.625.156.684.48l.636 3.412 3.088-1.465c.294-.144.648-.012.777.288.142.3.012.66-.282.793l-3.771 1.79c-.083.036-.165.06-.248.06z" transform="translate(-900 -1310) translate(861 1259) translate(39 51) translate(189)"/>
                        <path d="M58.247 18.31c-.094 0-.176-.025-.27-.073-.295-.156-.401-.517-.26-.805l6.74-13.395c.154-.3.507-.409.79-.265.295.157.4.517.26.805l-6.741 13.396c-.094.216-.295.336-.519.336zM56.468 21.865H51.46c-.33 0-.59-.264-.59-.6 0-.337.26-.601.59-.601h5.008c.33 0 .59.264.59.6 0 .337-.26.601-.59.601z" transform="translate(-900 -1310) translate(861 1259) translate(39 51) translate(189)"/>
                    </g>
                </g>
            </g>
        </g>
    </g>
</svg>
