<svg xmlns="http://www.w3.org/2000/svg" xmlns:xlink="http://www.w3.org/1999/xlink" width="410" height="380" viewBox="0 0 410 380">
    <defs>
        <path id="coy5oai7ka" d="M8 0h394c4.418 0 8 3.582 8 8v372H0V8c0-4.418 3.582-8 8-8z"/>
    </defs>
    <g fill="none" fill-rule="evenodd">
        <g>
            <g transform="translate(-787 -205) translate(787 205)">
                <mask id="4ejnj8l6wb" fill="#fff">
                    <use xlink:href="#coy5oai7ka"/>
                </mask>
                <g mask="url(#4ejnj8l6wb)">
                    <g fill-rule="nonzero">
                        <g>
                            <path fill="#0F1011" d="M57.071 26.177c.2 2.433-2.337 4.698-2.755 6.99-.432 2.373 1.118 5.387.106 7.515-1.026 2.16-4.351 2.86-5.89 4.669-1.538 1.809-1.693 5.205-3.658 6.565-1.938 1.34-5.161.296-7.433 1.104-2.196.783-4.022 3.647-6.456 3.846-2.434.2-4.698-2.337-6.991-2.755-2.372-.432-5.386 1.118-7.514.106-2.159-1.026-2.86-4.351-4.669-5.89-1.81-1.538-5.205-1.693-6.565-3.658-1.341-1.938-.296-5.161-1.105-7.433C3.359 35.041.494 33.214.295 30.78c-.199-2.433 2.337-4.698 2.755-6.99.433-2.373-1.118-5.387-.107-7.515 1.026-2.158 4.352-2.86 5.89-4.669 1.538-1.81 1.694-5.204 3.659-6.565 1.938-1.34 5.162-.296 7.433-1.105C22.12 3.154 23.948.29 26.38.09c2.432-.199 4.698 2.337 6.99 2.755 2.373.433 5.386-1.118 7.515-.106 2.159 1.025 2.86 4.351 4.669 5.89 1.808 1.537 5.204 1.693 6.564 3.658 1.34 1.938.297 5.162 1.105 7.433.784 2.197 3.65 4.024 3.847 6.457z" transform="translate(7 -53) translate(69.625 104.769)"/>
                            <path fill="#B1694A" d="M17.941 54.785s5.13-2.714 3.997-16.678l10.596-1.954s-1.202 12.517 4.154 16.496l-18.747 2.136z" transform="translate(7 -53) translate(69.625 104.769)"/>
                            <path fill="#000" d="M9.322 6.929L.53.189 7.443.121c.197 2.366.834 4.675 1.88 6.807z" opacity=".15" transform="translate(7 -53) translate(69.625 104.769) translate(25.198 43.101)"/>
                            <path fill="#B1694A" d="M15.933 32.69c.73 4.238 3.037 8.25 6.773 9.623 4.072 1.62 8.479 2.218 12.836 1.743 11.598-.941 9.328-27.313 3.827-32.44-5.502-5.127-21.664-1.898-23.638 6.668-1.022 4.43-.493 10.372.202 14.407z" transform="translate(7 -53) translate(69.625 104.769)"/>
                            <g transform="translate(7 -53) translate(69.625 104.769) translate(29.84 24.534)">
                                <circle cx="2.687" cy="3.945" r="1" fill="#0F1011"/>
                                <circle cx="10.267" cy="3.33" r="1" fill="#0F1011"/>
                                <path fill="#0F1011" d="M11.936 1.283h-.006L9.385 1.25c-.12-.002-.234-.05-.318-.137-.083-.085-.13-.2-.128-.32.007-.248.21-.446.458-.446l2.545.034c.242.01.433.211.431.454-.001.242-.195.44-.437.448zM.615 2.201c-.229 0-.42-.171-.448-.398-.026-.227.12-.438.343-.492L3.02.71c.24-.052.477.097.534.335.058.239-.086.48-.323.542L.72 2.19C.686 2.197.65 2.2.615 2.2z"/>
                                <path fill="#FFF" d="M3.124 11.512s3.547.377 6.035-.49c0 0-.022 2.337-2.828 2.564-2.807.228-3.207-2.074-3.207-2.074z"/>
                            </g>
                            <path fill="#0F1011" d="M23.745 21.72c.696 9.929-.396 19.903-3.226 29.446 0 0-8.085-13.942-9.336-25.55C10.011 14.735 18.035 8.318 23.45 7.111c20.59-4.585 22.072 10.456 22.072 10.456-3.747 7.8-24.005 7.763-24.005 7.763" transform="translate(7 -53) translate(69.625 104.769)"/>
                            <path fill="#B1694A" d="M27.67 32.616c.156 2.226-1.51 4.162-3.733 4.342-2.225.18-4.18-1.462-4.386-3.684-.106-1.08.231-2.158.935-2.986.703-.827 1.712-1.334 2.796-1.403 2.903-.092 4.207 1.489 4.389 3.73z" transform="translate(7 -53) translate(69.625 104.769)"/>
                            <path fill="#000" d="M.98 5.299c-.165 0-.304-.12-.328-.283-.024-.162.074-.318.23-.366l1.955-.597L1.473 1.01C1.42.899 1.431.77 1.501.672c.07-.099.188-.152.308-.138.12.014.223.092.27.203l1.517 3.388c.039.087.038.186 0 .273-.04.086-.115.151-.206.18l-2.313.708c-.032.01-.065.014-.098.013z" opacity=".15" transform="translate(7 -53) translate(69.625 104.769) translate(35.807 28.513)"/>
                        </g>
                        <g>
                            <path fill="#B4E2DB" d="M0.615 0H227.959V294.92H0.615z" opacity=".709" transform="translate(7 -53) translate(204.896)"/>
                            <path fill="#FFF" d="M62.889 74.422H203.20000000000002V85.27199999999999H62.889zM62.889 119.126H203.20000000000002V129.976H62.889zM62.889 163.831H203.20000000000002V174.68099999999998H62.889zM62.889 208.536H203.20000000000002V219.386H62.889zM62.889 253.24H203.20000000000002V264.09000000000003H62.889z" transform="translate(7 -53) translate(204.896)"/>
                            <g>
                                <path fill="#FDB754" d="M10.45 66.16c-.587 0-1.153-.224-1.58-.627l-7.905-7.46c-.905-.876-.938-2.318-.073-3.235.866-.917 2.307-.968 3.235-.115l6.196 5.848 13.46-14.836c.55-.626 1.393-.907 2.207-.735.815.172 1.473.769 1.723 1.563.25.794.052 1.66-.518 2.267l-15.04 16.578c-.416.458-.999.73-1.617.753h-.088zM10.45 110.865c-.587 0-1.153-.225-1.58-.628L.965 102.78c-.905-.876-.938-2.318-.073-3.235.866-.917 2.307-.968 3.235-.115l6.196 5.847 13.46-14.835c.554-.61 1.39-.877 2.194-.703.804.174 1.454.764 1.706 1.547.25.783.065 1.642-.488 2.251l-15.041 16.577c-.415.459-.998.73-1.616.754l-.088-.002z" transform="translate(7 -53) translate(204.896) translate(18.567 25.198)"/>
                                <path fill="#FFF" d="M10.45 155.57c-.587 0-1.153-.225-1.58-.628l-7.905-7.458c-.905-.877-.938-2.319-.073-3.236.866-.917 2.307-.968 3.235-.115l6.196 5.847 13.46-14.835c.855-.942 2.312-1.013 3.254-.158.942.854 1.013 2.31.158 3.253l-15.041 16.574c-.416.458-.998.73-1.616.754l-.088.002z" transform="translate(7 -53) translate(204.896) translate(18.567 25.198)"/>
                            </g>
                            <g fill="#FFF">
                                <path d="M10.45 21.312c-.587 0-1.153-.225-1.58-.628L.965 13.226C.04 12.353-.002 10.895.871 9.97c.873-.926 2.33-.968 3.256-.095l6.196 5.847L23.783.887c.55-.626 1.393-.907 2.207-.735.815.171 1.473.769 1.723 1.562.25.794.052 1.661-.518 2.268L12.154 20.559c-.416.458-.998.73-1.616.754l-.088-.001zM10.45 66.017c-.587 0-1.153-.225-1.58-.628L.965 57.93c-.905-.876-.938-2.318-.073-3.235.866-.917 2.307-.968 3.235-.115l6.196 5.847 13.46-14.836c.55-.626 1.393-.906 2.207-.735.815.172 1.473.769 1.723 1.563.25.794.052 1.66-.518 2.267l-15.04 16.578c-.416.458-.999.73-1.617.754l-.088-.001z" transform="translate(7 -53) translate(204.896) translate(18.567 203.57)"/>
                            </g>
                        </g>
                        <path fill="#E1F3F1" d="M582.985 432.446H0c6.388-16.29 18.185-30.11 34.812-34.21 24.327-5.988 50.071 10.48 74.344 4.288 13.792-3.515 24.647-13.756 36.055-22.26 43.039-32.09 102.015-41.571 152.948-24.59 26.624 8.874 50.88 24.391 78.147 30.991 35.262 8.534 72.139 1.459 108.401.29 35.317-1.136 85.92 13.254 98.278 45.491z" opacity=".505" transform="translate(7 -53)"/>
                        <g fill="#B1694A">
                            <path d="M.493 5.827s3.9-4.628 8.048-5.362c4.147-.733 3.112 1.654.647 3.434-2.464 1.78-8.023 5.365-8.023 5.365" transform="translate(7 -53) translate(174.394 183.677)"/>
                            <path d="M3.348 4.422s7.74-3.148 11.058-1.725c0 0 2.891 2.838.057 6.565-2.718 3.575-9.817 4.902-9.817 4.902L3.348 4.422z" transform="translate(7 -53) translate(174.394 183.677)"/>
                        </g>
                        <g>
                            <path fill="#B1694A" d="M73.322 198.494l-13.827-1.645c.622-5.233 1.326-11.52 1.374-12.55v.162h13.925c-.004.417-.004 1.687-1.472 14.033zM17.837 200.158l-13.925-.045s.047-14.38.047-15.649h13.925c0 1.274-.047 15.694-.047 15.694z" transform="translate(7 -53) translate(59.678 226.778)"/>
                            <path fill="#06806B" d="M53.929 194.097l24.53-.418c-1.019-25.836-1.193-55.387-1.467-82.127-.076-6.628-.576-13.245-1.499-19.808-3.945-28.33-6.52-56.5-11.836-84.663l-.177.052-.519-3.534L12.516.485 9.89 33.441S3.319 147.458.322 193.303l24.448 2.066c4.406-44.946 11.223-110.44 15.413-157.659 4.815 22.99 8.087 46.793 12.276 69.586.84 28.53 1.547 58.355 1.47 86.8z" transform="translate(7 -53) translate(59.678 226.778)"/>
                            <path fill="#B8B8B8" d="M34.765 205.544c.757-.003 1.479-.321 1.992-.878.512-.557.77-1.302.711-2.057-.082-1.057-.77-1.97-1.763-2.34l-16.21-5.429c-.635-.21-1.331-.133-1.904.212-2.229 1.546-4.894 2.336-7.605 2.255-2.111-.15-4.138-.89-5.849-2.137-.307-.252-.731-.304-1.09-.133-.358.17-.586.532-.586.928v7.926c0 .472.188.925.523 1.258.335.333.788.52 1.26.517l30.521-.122zM90.288 205.544c.757-.003 1.479-.321 1.992-.878.512-.557.77-1.302.712-2.057-.083-1.057-.77-1.97-1.764-2.34L75.02 194.84c-.635-.21-1.33-.133-1.904.212-2.228 1.546-4.894 2.336-7.604 2.255-2.112-.15-4.138-.89-5.849-2.137-.307-.252-.731-.304-1.09-.133-.358.17-.586.532-.585.928v7.926c0 .472.188.924.522 1.258.334.333.788.52 1.26.517l30.518-.122z" transform="translate(7 -53) translate(59.678 226.778)"/>
                        </g>
                        <path fill="#D1C5A9" d="M140.778 212.531c-2.463 0-4.742-1.3-5.995-3.421l-23.977-40.578 11.989-7.084 21.096 35.697 33.334-11.402 4.509 13.175-38.705 13.237c-.724.249-1.485.376-2.251.376z" transform="translate(7 -53)"/>
                        <path fill="#D1C5A9" d="M125.916 232.597c-2.778 6.385-57.37 9.038-58.1-2.195-.464-7.148 5.836-13.388 5.836-27.32 0-13.931-12.818-31.722-2.374-42.166 3.03-3.03 8.263-4.986 14.641-4.993.478 3.72 23.063 3.733 23.235.086.862.014 1.532.027 1.95.047 22.001.948 12.333 25.986 12.121 44.38-.26 21.525 5.556 25.583 2.691 32.16z" transform="translate(7 -53)"/>
                        <path fill="#FDB754" d="M160.361 218.973c-1.692 0-3.32-.647-4.55-1.808l-32.177-30.362c-2.664-2.513-2.786-6.71-.272-9.373 2.513-2.664 6.71-2.786 9.373-.273l27.26 25.722 56.683-62.464c1.593-1.754 4-2.526 6.315-2.024 2.316.502 4.188 2.2 4.91 4.457.724 2.256.189 4.726-1.404 6.48l-61.227 67.47c-1.197 1.319-2.874 2.1-4.654 2.17-.083.003-.171.005-.257.005z" transform="translate(7 -53)"/>
                        <path fill="#B1694A" d="M109.153 156.01c-.172 3.646-2.155 9.01-8.275 9.415-8.156.537-14.482-5.782-14.96-9.502h.02c8.031 0 18.534.013 23.215.086z" transform="translate(7 -53)"/>
                        <g fill="#B1694A">
                            <path d="M.383 13.439S-1.152 4.705 5.16 3.983c3.984-.455 13.997-5.992 15.897-1.364 1.649 4.015-7.914 8.794-11.339 9.677C6.653 13.088.383 13.44.383 13.44z" transform="translate(7 -53) translate(127.314 193.623)"/>
                            <path d="M3.008 4.679S11.144.217 13.37.322c1.971.092-1.38 3.904-1.38 3.904l-8.98.453z" transform="translate(7 -53) translate(127.314 193.623)"/>
                        </g>
                        <path fill="#D1C5A9" d="M94.897 221.353c-2.852 0-5.437-1.678-6.6-4.283L68.04 171.715l13.201-5.897 17.65 39.52 33.98-10.429 4.244 13.82-40.093 12.307c-.689.21-1.404.317-2.124.317z" transform="translate(7 -53)"/>
                        <path fill="#B1694A" d="M192.755 187.773c.357-.516.31-1.212-.116-1.674-1.006-1.087-2.872-2.81-4.1-2.173-1.75.908-5.253 4.281-4.28 6.034.972 1.754 2.983 3.678 4.283 3.094.983-.444 3.092-3.648 4.213-5.281z" transform="translate(7 -53)"/>
                    </g>
                </g>
            </g>
        </g>
    </g>
</svg>
