<svg width="271" height="32" viewBox="0 0 271 32" fill="none" xmlns="http://www.w3.org/2000/svg">
<path fill-rule="evenodd" clip-rule="evenodd" d="M89.958 6.16815C90.3268 6.16815 90.7069 6.26144 91.0646 6.44803C92.2607 7.08944 92.7302 8.60549 92.1154 9.85332L90.908 12.3098C90.7604 12.2303 90.5789 12.2209 90.4163 12.3023L88.283 13.3387L90.2262 9.38684C90.3604 9.10696 90.2598 8.7571 89.9803 8.60549C89.712 8.46555 89.3767 8.57051 89.2314 8.86206L87.3125 12.7644L86.8839 10.4131C86.8514 10.23 86.7396 10.0824 86.5923 10.0024L87.8005 7.54426C88.2253 6.66961 89.0749 6.16815 89.958 6.16815ZM85.9234 11.3633L86.4855 14.4462L84.327 18.8358L83.7652 15.7543L85.9234 11.3633ZM87.4576 15.0172L85.2944 19.4165L88.08 18.0633L90.2421 13.6646L87.4576 15.0172ZM84.9836 20.8505C84.8456 20.917 84.6874 20.9519 84.5377 20.9552L83.9533 22.1437L84.5339 23.5761C84.6875 23.8405 84.6159 24.181 84.3688 24.3491L82.0345 26.0142C81.9352 26.1103 81.8014 26.1684 81.6525 26.1684L76.9017 26.1684C76.5887 26.1684 76.3428 25.9118 76.3428 25.5853C76.3428 25.2588 76.5887 25.0022 76.9017 25.0022H81.0804L81.0293 22.6942L81.0265 22.6814C80.9594 22.3666 81.1494 22.0517 81.4513 21.9817L82.9559 21.6241L83.5558 20.404C83.4848 20.2845 83.4344 20.1515 83.4075 20.0109L82.6697 15.9642C82.625 15.7076 82.6585 15.4511 82.7703 15.2178L86.8057 7.00781C87.4093 5.77164 88.6277 5.00195 89.958 5.00195C90.5169 5.00195 91.0758 5.1419 91.59 5.41012C93.3226 6.33141 94.0157 8.57051 93.1214 10.3781L89.0861 18.5881C88.9743 18.8214 88.7842 19.0079 88.5607 19.1129L84.9836 20.8505ZM63.0964 10.2382C63.0964 9.21191 62.3028 8.38391 61.3191 8.38391C60.3577 8.38391 59.5641 9.21191 59.5641 10.2382C59.5641 11.2644 60.3577 12.0691 61.3191 12.0691C62.3028 12.0691 63.0964 11.2644 63.0964 10.2382ZM59.9889 14.3898V26.2383H62.6717V14.3898H59.9889ZM36.5926 8.6288C40.9298 8.6288 45.0099 11.9641 45.0099 17.6085C45.0099 20.1625 44.1715 22.2616 42.8637 23.766L44.8199 26.0517L42.9307 27.7311L40.8963 25.422C39.6108 26.2033 38.1017 26.6115 36.5814 26.6115C32.2443 26.6115 28.1865 23.2762 28.1865 17.6085C28.1977 11.9641 32.2554 8.6288 36.5926 8.6288ZM36.5926 23.836C37.431 23.836 38.2917 23.661 39.063 23.2762L36.3355 20.1158L38.247 18.4132L40.9969 21.5969C41.7011 20.594 42.1371 19.2878 42.1371 17.6085C42.1371 13.4452 39.3872 11.381 36.5815 11.381C33.8092 11.381 31.0482 13.4452 31.0482 17.6085C31.0594 21.7718 33.8204 23.836 36.5926 23.836ZM51.2921 26.5882C48.587 26.5882 46.9996 24.5007 46.9996 21.8651V14.3898H49.7048V21.352C49.7048 22.8097 50.3531 24.0575 51.9964 24.0575C53.5613 24.0575 54.3773 22.9613 54.3773 21.4103V14.3898H57.0825V24.0809C57.0825 25.0488 57.1496 25.8068 57.1943 26.25H54.6009C54.5562 25.9818 54.5115 25.422 54.5115 24.9322C53.9414 26.0051 52.6223 26.5882 51.2921 26.5882ZM65.5892 26.25V8.6288H68.2944V26.25H65.5892ZM71.2119 8.6288V26.25H73.9171V8.6288H71.2119ZM82.1551 23.0144L82.189 24.5007L83.3542 23.6699L83.005 22.8097L82.1551 23.0144Z" fill="#06806B"/>
<path d="M111.591 16.1543C111.591 15.9902 111.649 15.8496 111.767 15.7324C111.884 15.6152 112.021 15.5566 112.18 15.5566H118.121V9.62402C118.121 9.46582 118.177 9.32812 118.288 9.21094C118.405 9.09375 118.546 9.03516 118.71 9.03516C118.874 9.03516 119.015 9.09375 119.132 9.21094C119.249 9.32812 119.308 9.46582 119.308 9.62402V15.5566H125.231C125.396 15.5566 125.536 15.6152 125.653 15.7324C125.771 15.8496 125.829 15.9902 125.829 16.1543C125.829 16.3184 125.771 16.459 125.653 16.5762C125.536 16.6875 125.396 16.7432 125.231 16.7432H119.308V22.6846C119.308 22.8428 119.249 22.9805 119.132 23.0977C119.015 23.2148 118.874 23.2734 118.71 23.2734C118.546 23.2734 118.405 23.2148 118.288 23.0977C118.177 22.9805 118.121 22.8428 118.121 22.6846V16.7432H112.18C112.021 16.7432 111.884 16.6875 111.767 16.5762C111.649 16.459 111.591 16.3184 111.591 16.1543Z" fill="#878787"/>
<path fill-rule="evenodd" clip-rule="evenodd" d="M144.483 21.989L148.65 26.156L154.435 20.3749H148.377L144.951 16.9484L144.483 17.4128C143.873 18.0234 143.535 18.8321 143.535 19.6993C143.535 20.5665 143.873 21.3784 144.483 21.989ZM144.948 15.0549L147.033 12.9698H142.863L144.948 15.0549ZM152.817 10.0142L148.65 5.84722L142.863 11.6316H148.926L152.353 15.0581L152.817 14.5937C153.428 13.9798 153.766 13.1711 153.766 12.3039C153.766 11.4368 153.428 10.6248 152.817 10.0142ZM145.893 16L148.65 18.7574L151.408 16L148.65 13.2426L145.893 16ZM150.264 19.0335H154.441L152.353 16.9451L150.264 19.0335ZM153.697 15.6038L153.298 16H153.295L156.919 19.6246C156.962 19.6668 156.962 19.7318 156.919 19.774L148.725 27.9683C148.683 28.0106 148.618 28.0106 148.576 27.9683L143.538 22.9309C142.639 22.0313 142.158 20.8166 142.203 19.5337C142.242 18.3514 142.768 17.2374 143.606 16.3995L144.006 16L140.381 12.3754C140.339 12.3332 140.339 12.2682 140.381 12.226L148.576 4.03167C148.615 3.98944 148.683 3.98944 148.725 4.03167L153.766 9.07233C154.669 9.97524 155.146 11.1867 155.101 12.4696C155.062 13.6518 154.535 14.7658 153.697 15.6038ZM166.279 14.1942V18.189C166.279 19.2056 165.516 19.8097 164.24 19.8097C162.963 19.8097 162.2 19.2024 162.2 18.189V14.1942C162.2 13.1808 162.963 12.5735 164.24 12.5735C165.516 12.5735 166.279 13.1808 166.279 14.1942ZM164.24 11.1249C161.95 11.1249 160.583 12.2325 160.583 14.0837V18.3027C160.583 20.154 161.95 21.2615 164.24 21.2615C166.53 21.2615 167.897 20.154 167.897 18.3027V14.0837C167.897 12.2292 166.53 11.1249 164.24 11.1249ZM170.232 21.1219H176.026V19.6701H171.85V16.9159H175.299V15.4804H171.85V12.7132H176.026V11.2647H170.232V21.1219ZM182.032 12.7132H180.509V12.7165V16.3216H182.032C183.282 16.3216 183.919 15.7987 183.919 14.7691V14.2657C183.919 13.2199 183.302 12.7132 182.032 12.7132ZM185.536 14.139V14.8373V14.8406C185.536 16.3313 184.828 17.2407 183.428 17.5493L185.923 21.1252H184.049L184.036 21.1057L181.827 17.7149H180.509V21.1219H178.891V11.2647H182.061C184.4 11.2647 185.536 12.2033 185.536 14.139ZM192.155 12.7132H193.708C194.978 12.7132 195.595 13.2199 195.595 14.2657V14.9088C195.595 15.9383 194.962 16.4612 193.708 16.4612H192.155V12.7165V12.7132ZM193.737 11.2647H190.541V21.1219H192.159V17.9098H193.737C196.076 17.9098 197.212 16.9679 197.212 15.0354V14.1423C197.212 12.2066 196.076 11.2679 193.737 11.2679V11.2647ZM202.493 12.7132H200.97V12.7165V16.3216H202.493C203.744 16.3216 204.38 15.7987 204.38 14.7691V14.2657C204.38 13.2199 203.763 12.7132 202.493 12.7132ZM205.998 14.139V14.8373V14.8406C205.998 16.3313 205.29 17.2407 203.89 17.5493L206.384 21.1252H204.51L204.497 21.1057L202.289 17.7149H200.97V21.1219H199.352V11.2647H202.522C204.861 11.2647 205.998 12.2033 205.998 14.139ZM213.471 14.1942V18.189C213.471 19.2056 212.708 19.8097 211.431 19.8097C210.155 19.8097 209.392 19.2024 209.392 18.189V14.1942C209.392 13.1808 210.155 12.5735 211.431 12.5735C212.708 12.5735 213.471 13.1808 213.471 14.1942ZM211.431 11.1249C209.141 11.1249 207.774 12.2325 207.774 14.0837V18.3027C207.774 20.154 209.141 21.2615 211.431 21.2615C213.721 21.2615 215.088 20.154 215.088 18.3027V14.0837C215.088 12.2292 213.721 11.1249 211.431 11.1249ZM220.285 12.7132H217.842H217.836V11.2647H221.912V18.1339C221.912 20.1508 220.798 21.2616 218.771 21.2616C218.141 21.2616 217.125 21.0927 216.618 20.8393L216.589 20.8231L216.959 19.4752L217.001 19.4947C217.258 19.6019 218.008 19.826 218.69 19.826C219.749 19.826 220.285 19.2609 220.285 18.1469V12.7132ZM224.407 21.1219H230.197V19.6701H226.024V16.9159H229.473V15.4804H226.024V12.7132H230.197V11.2647H224.407V21.1219ZM237.885 12.934C237.284 12.7586 236.384 12.5735 235.66 12.5735V12.5702C234.42 12.5702 233.77 13.0931 233.731 14.1227V18.254C233.77 19.2998 234.403 19.8065 235.66 19.8065C236.388 19.8065 237.287 19.6213 237.885 19.4459L237.924 19.433L238.278 20.7938L238.246 20.8068C237.596 21.0829 236.303 21.2582 235.702 21.2582C233.354 21.2582 232.114 20.2644 232.114 18.3839V13.9993C232.114 12.1188 233.354 11.1249 235.702 11.1249C236.303 11.1249 237.596 11.3003 238.246 11.5764L238.278 11.5894L237.924 12.947L237.885 12.934ZM239.698 11.2647V12.7132H242.351V21.1219H243.981V12.7132H246.651V11.2647H239.698Z" fill="#373737"/>
<path fill-rule="evenodd" clip-rule="evenodd" d="M144.483 21.989L148.65 26.156L154.435 20.3749H148.377L144.951 16.9484L144.483 17.4128C143.873 18.0234 143.535 18.8321 143.535 19.6993C143.535 20.5665 143.873 21.3784 144.483 21.989ZM144.948 15.0549L147.033 12.9698H142.863L144.948 15.0549ZM152.817 10.0142L148.65 5.84722L142.863 11.6316H148.926L152.353 15.0581L152.817 14.5937C153.428 13.9798 153.766 13.1711 153.766 12.3039C153.766 11.4368 153.428 10.6248 152.817 10.0142ZM145.893 16L148.65 18.7574L151.408 16L148.65 13.2426L145.893 16ZM150.264 19.0335H154.441L152.353 16.9451L150.264 19.0335ZM153.697 15.6038L153.298 16H153.295L156.919 19.6246C156.962 19.6668 156.962 19.7318 156.919 19.774L148.725 27.9683C148.683 28.0106 148.618 28.0106 148.576 27.9683L143.538 22.9309C142.639 22.0313 142.158 20.8166 142.203 19.5337C142.242 18.3514 142.768 17.2374 143.606 16.3995L144.006 16L140.381 12.3754C140.339 12.3332 140.339 12.2682 140.381 12.226L148.576 4.03167C148.615 3.98944 148.683 3.98944 148.725 4.03167L153.766 9.07233C154.669 9.97524 155.146 11.1867 155.101 12.4696C155.062 13.6518 154.535 14.7658 153.697 15.6038ZM166.279 14.1942V18.189C166.279 19.2056 165.516 19.8097 164.24 19.8097C162.963 19.8097 162.2 19.2024 162.2 18.189V14.1942C162.2 13.1808 162.963 12.5735 164.24 12.5735C165.516 12.5735 166.279 13.1808 166.279 14.1942ZM164.24 11.1249C161.95 11.1249 160.583 12.2325 160.583 14.0837V18.3027C160.583 20.154 161.95 21.2615 164.24 21.2615C166.53 21.2615 167.897 20.154 167.897 18.3027V14.0837C167.897 12.2292 166.53 11.1249 164.24 11.1249ZM170.232 21.1219H176.026V19.6701H171.85V16.9159H175.299V15.4804H171.85V12.7132H176.026V11.2647H170.232V21.1219ZM182.032 12.7132H180.509V12.7165V16.3216H182.032C183.282 16.3216 183.919 15.7987 183.919 14.7691V14.2657C183.919 13.2199 183.302 12.7132 182.032 12.7132ZM185.536 14.139V14.8373V14.8406C185.536 16.3313 184.828 17.2407 183.428 17.5493L185.923 21.1252H184.049L184.036 21.1057L181.827 17.7149H180.509V21.1219H178.891V11.2647H182.061C184.4 11.2647 185.536 12.2033 185.536 14.139ZM192.155 12.7132H193.708C194.978 12.7132 195.595 13.2199 195.595 14.2657V14.9088C195.595 15.9383 194.962 16.4612 193.708 16.4612H192.155V12.7165V12.7132ZM193.737 11.2647H190.541V21.1219H192.159V17.9098H193.737C196.076 17.9098 197.212 16.9679 197.212 15.0354V14.1423C197.212 12.2066 196.076 11.2679 193.737 11.2679V11.2647ZM202.493 12.7132H200.97V12.7165V16.3216H202.493C203.744 16.3216 204.38 15.7987 204.38 14.7691V14.2657C204.38 13.2199 203.763 12.7132 202.493 12.7132ZM205.998 14.139V14.8373V14.8406C205.998 16.3313 205.29 17.2407 203.89 17.5493L206.384 21.1252H204.51L204.497 21.1057L202.289 17.7149H200.97V21.1219H199.352V11.2647H202.522C204.861 11.2647 205.998 12.2033 205.998 14.139ZM213.471 14.1942V18.189C213.471 19.2056 212.708 19.8097 211.431 19.8097C210.155 19.8097 209.392 19.2024 209.392 18.189V14.1942C209.392 13.1808 210.155 12.5735 211.431 12.5735C212.708 12.5735 213.471 13.1808 213.471 14.1942ZM211.431 11.1249C209.141 11.1249 207.774 12.2325 207.774 14.0837V18.3027C207.774 20.154 209.141 21.2615 211.431 21.2615C213.721 21.2615 215.088 20.154 215.088 18.3027V14.0837C215.088 12.2292 213.721 11.1249 211.431 11.1249ZM220.285 12.7132H217.842H217.836V11.2647H221.912V18.1339C221.912 20.1508 220.798 21.2616 218.771 21.2616C218.141 21.2616 217.125 21.0927 216.618 20.8393L216.589 20.8231L216.959 19.4752L217.001 19.4947C217.258 19.6019 218.008 19.826 218.69 19.826C219.749 19.826 220.285 19.2609 220.285 18.1469V12.7132ZM224.407 21.1219H230.197V19.6701H226.024V16.9159H229.473V15.4804H226.024V12.7132H230.197V11.2647H224.407V21.1219ZM237.885 12.934C237.284 12.7586 236.384 12.5735 235.66 12.5735V12.5702C234.42 12.5702 233.77 13.0931 233.731 14.1227V18.254C233.77 19.2998 234.403 19.8065 235.66 19.8065C236.388 19.8065 237.287 19.6213 237.885 19.4459L237.924 19.433L238.278 20.7938L238.246 20.8068C237.596 21.0829 236.303 21.2582 235.702 21.2582C233.354 21.2582 232.114 20.2644 232.114 18.3839V13.9993C232.114 12.1188 233.354 11.1249 235.702 11.1249C236.303 11.1249 237.596 11.3003 238.246 11.5764L238.278 11.5894L237.924 12.947L237.885 12.934ZM239.698 11.2647V12.7132H242.351V21.1219H243.981V12.7132H246.651V11.2647H239.698Z" fill="black" fill-opacity="0.2"/>
</svg>
