<svg width="48" height="48" xmlns="http://www.w3.org/2000/svg">
    <g fill="none" fill-rule="evenodd">
        <path d="M0 0h48v48H0z"/>
        <g transform="translate(2 2)" fill-rule="nonzero">
            <path d="M22 44C9.85 44 0 34.15 0 22S9.85 0 22 0s22 9.85 22 22c-.014 12.145-9.855 21.986-22 22z" fill="#FFD764"/>
            <circle fill="#444" cx="31" cy="23" r="3"/>
            <circle fill="#444" cx="13" cy="23" r="3"/>
            <path d="M15.292 35a1 1 0 0 1-.745-1.667 10 10 0 0 1 14.906 0 1 1 0 1 1-1.49 1.334 8 8 0 0 0-11.926 0 1 1 0 0 1-.745.333zM28 19a1 1 0 0 1-.516-1.857l5-3a1 1 0 0 1 1.03 1.714l-5 3A.994.994 0 0 1 28 19zM16 19a.994.994 0 0 1-.514-.143l-5-3a1 1 0 0 1 1.03-1.714l5 3A1 1 0 0 1 16 19z" fill="#444"/>
        </g>
    </g>
</svg>
