<svg width="16" height="16" viewBox="0 0 16 16" xmlns="http://www.w3.org/2000/svg">
    <g fill="none" fill-rule="evenodd">
        <path d="M0 0h16v16H0z"/>
        <path d="M5.6 15.2c0 .44.36.8.8.8h3.2c.44 0 .8-.36.8-.8v-.8H5.6v.8zM8 0a5.606 5.606 0 0 0-5.6 5.6c0 1.904.952 3.576 2.4 4.592V12c0 .44.36.8.8.8h4.8c.44 0 .8-.36.8-.8v-1.808A5.597 5.597 0 0 0 13.6 5.6C13.6 2.512 11.088 0 8 0zm2.28 8.88-.68.48v1.84H6.4V9.36l-.68-.48A3.997 3.997 0 0 1 4 5.6c0-2.208 1.792-4 4-4s4 1.792 4 4c0 1.304-.64 2.528-1.72 3.28z" fill="#5C5C5C" fill-rule="nonzero"/>
    </g>
</svg>
