<svg width="48" height="48" xmlns="http://www.w3.org/2000/svg">
    <g fill="none" fill-rule="evenodd">
        <path d="M0 0h48v48H0z"/>
        <g fill-rule="nonzero">
            <path d="M24 46C11.85 46 2 36.15 2 24S11.85 2 24 2s22 9.85 22 22c-.014 12.145-9.855 21.986-22 22z" fill="#FFD764"/>
            <path d="M14 25a3 3 0 1 1 0-6 3 3 0 0 1 0 6zM34 25a3 3 0 1 1 0-6 3 3 0 0 1 0 6zM24 39a9.023 9.023 0 0 1-7.809-4.537 1 1 0 0 1 1.735-.994 6.99 6.99 0 0 0 12.148 0 1 1 0 0 1 1.735.994A9.023 9.023 0 0 1 24 39z" fill="#444"/>
        </g>
    </g>
</svg>
