<svg width="1260" height="749" viewBox="0 0 1260 749" fill="none" xmlns="http://www.w3.org/2000/svg">
<path d="M0.525 703.825H1259.47V730.6C1259.47 739.589 1252.19 746.875 1243.2 746.875H16.8001C7.81162 746.875 0.525 739.589 0.525 730.6V703.825Z" fill="#E0E0E0" stroke="#D9D9D9" stroke-width="1.05"/>
<path d="M545.475 703.825H714.525V705.4C714.525 714.389 707.239 721.675 698.25 721.675H561.75C552.762 721.675 545.475 714.389 545.475 705.4V703.825Z" fill="white" stroke="#E0E0E0" stroke-width="1.05"/>
<rect width="1000" height="662" transform="translate(130 20)" fill="#EEEEEE"/>
<rect width="1000" height="64" transform="translate(130 20)" fill="#06806B"/>
<path fill-rule="evenodd" clip-rule="evenodd" d="M241.957 41.062C248.053 41.062 253.788 45.6433 253.788 53.3962C253.788 56.9043 252.609 59.7876 250.771 61.854L253.521 64.9936L250.865 67.3003L248.006 64.1286C246.199 65.2019 244.078 65.7625 241.941 65.7625C235.845 65.7625 230.142 61.1812 230.142 53.3962C230.157 45.6433 235.861 41.062 241.957 41.062ZM241.957 61.9501C243.135 61.9501 244.345 61.7098 245.429 61.1812L241.595 56.8402L244.282 54.5015L248.147 58.8746C249.137 57.497 249.75 55.7029 249.75 53.3962C249.75 47.6776 245.885 44.8424 241.941 44.8424C238.045 44.8424 234.164 47.6776 234.164 53.3962C234.18 59.1148 238.06 61.9501 241.957 61.9501Z" fill="white"/>
<path fill-rule="evenodd" clip-rule="evenodd" d="M262.618 65.7304C258.816 65.7304 256.584 62.8631 256.584 59.2429V48.9751H260.387V58.5381C260.387 60.5404 261.298 62.2544 263.608 62.2544C265.807 62.2544 266.954 60.7487 266.954 58.6182V48.9751H270.756V62.2865C270.756 63.616 270.851 64.6572 270.914 65.2659H267.268C267.206 64.8975 267.143 64.1286 267.143 63.4558C266.341 64.9295 264.487 65.7304 262.618 65.7304Z" fill="white"/>
<path fill-rule="evenodd" clip-rule="evenodd" d="M276.711 40.7256C278.094 40.7256 279.209 41.8629 279.209 43.2725C279.209 44.6822 278.094 45.7874 276.711 45.7874C275.36 45.7874 274.244 44.6822 274.244 43.2725C274.244 41.8629 275.36 40.7256 276.711 40.7256ZM274.841 65.2659V48.9751H278.612V65.2499H274.841V65.2659Z" fill="white"/>
<path fill-rule="evenodd" clip-rule="evenodd" d="M282.713 65.2659V41.062H286.515V65.2659H282.713Z" fill="white"/>
<path fill-rule="evenodd" clip-rule="evenodd" d="M290.616 65.2659V41.062H294.418V65.2659H290.616Z" fill="white"/>
<path fill-rule="evenodd" clip-rule="evenodd" d="M308.653 62.8147C308.339 62.8147 308.056 62.6385 307.93 62.3182L307.192 60.5401L305.354 60.9726C304.93 61.0687 304.505 60.7964 304.411 60.3639C304.317 59.9314 304.584 59.4989 305.008 59.4028L307.491 58.8261C307.868 58.7461 308.245 58.9383 308.386 59.2907L309.376 61.6774C309.549 62.0779 309.36 62.5585 308.952 62.7186C308.857 62.7827 308.763 62.8147 308.653 62.8147Z" fill="white"/>
<path fill-rule="evenodd" clip-rule="evenodd" d="M305.291 65.1539C305.165 65.1539 305.039 65.1218 304.929 65.0577C304.678 64.9296 304.505 64.6573 304.505 64.369L304.411 60.2041C304.395 59.7556 304.741 59.3872 305.181 59.3872H305.196C305.62 59.3872 305.966 59.7396 305.982 60.1721L306.045 62.8632L308.229 61.3415C308.59 61.0852 309.077 61.1813 309.313 61.5497C309.564 61.9181 309.47 62.4147 309.108 62.655L305.73 65.0097C305.589 65.1058 305.448 65.1539 305.291 65.1539Z" fill="white"/>
<path fill-rule="evenodd" clip-rule="evenodd" d="M316.964 37.6819C317.483 37.6819 318.017 37.8101 318.52 38.0664C320.201 38.9474 320.861 41.0298 319.997 42.7438L314.325 54.0208L309.297 56.4075L308.26 50.8491L313.932 39.5721C314.529 38.3707 315.723 37.6819 316.964 37.6819ZM316.964 36.0801C315.095 36.0801 313.382 37.1373 312.534 38.8353L306.862 50.1123C306.705 50.4326 306.657 50.785 306.72 51.1375L307.757 56.6959C307.852 57.1764 308.15 57.5929 308.59 57.8172C308.81 57.9293 309.061 57.9934 309.313 57.9934C309.533 57.9934 309.768 57.9453 309.973 57.8492L315 55.4624C315.315 55.3183 315.582 55.062 315.739 54.7416L321.411 43.4646C322.668 40.9817 321.694 37.9062 319.258 36.6407C318.536 36.2723 317.75 36.0801 316.964 36.0801Z" fill="white"/>
<path fill-rule="evenodd" clip-rule="evenodd" d="M312.911 50.016C312.785 50.016 312.659 49.984 312.549 49.9199C312.329 49.8078 312.188 49.5995 312.141 49.3592L311.104 43.8008C311.025 43.3683 311.308 42.9519 311.732 42.8718C312.157 42.7917 312.565 43.08 312.644 43.5125L313.492 48.0617L317.609 46.1075C318.001 45.9153 318.473 46.0915 318.646 46.4919C318.834 46.8924 318.661 47.373 318.268 47.5492L313.241 49.9359C313.131 49.984 313.021 50.016 312.911 50.016Z" fill="white"/>
<path fill-rule="evenodd" clip-rule="evenodd" d="M307.663 60.412C307.538 60.412 307.428 60.38 307.302 60.3159C306.909 60.1077 306.768 59.6271 306.956 59.2427L315.943 41.3821C316.148 40.9816 316.619 40.8374 316.996 41.0297C317.389 41.2379 317.53 41.7185 317.342 42.1029L308.355 59.9635C308.229 60.2518 307.962 60.412 307.663 60.412Z" fill="white"/>
<path fill-rule="evenodd" clip-rule="evenodd" d="M305.291 65.1536H298.613C298.173 65.1536 297.828 64.8012 297.828 64.3527C297.828 63.9042 298.173 63.5518 298.613 63.5518H305.291C305.731 63.5518 306.076 63.9042 306.076 64.3527C306.076 64.8012 305.731 65.1536 305.291 65.1536Z" fill="white"/>
<path d="M938.912 47.228C937.392 47.228 936.768 47.868 936.768 48.796C936.768 50.044 938 50.428 939.36 50.828C941.056 51.324 942.96 51.868 942.96 54.188C942.96 56.7 940.944 57.692 938.736 57.692C936.448 57.692 934.672 56.876 934.416 54.252L936.144 53.996C936.4 55.18 936.896 56.204 938.768 56.204C939.92 56.204 941.088 55.82 941.088 54.444C941.088 53.148 939.872 52.796 938.512 52.428C936.8 51.964 934.896 51.452 934.896 49.02C934.896 46.924 936.64 45.708 938.928 45.708C940.96 45.708 942.64 46.46 942.864 49.036L941.136 49.244C940.976 48.14 940.528 47.228 938.912 47.228ZM951.05 55.756C951.05 56.204 951.13 56.396 951.546 56.396C951.69 56.396 951.834 56.364 952.042 56.3L952.106 57.388C951.786 57.548 951.258 57.66 950.81 57.66C949.946 57.66 949.562 57.324 949.418 56.684C948.858 57.292 947.946 57.692 946.794 57.692C944.714 57.692 944.346 56.284 944.346 55.468C944.346 53.324 946.17 52.62 948.394 52.62C948.778 52.62 949.018 52.636 949.242 52.652V52.028C949.242 51.02 949.018 50.444 947.802 50.444C946.794 50.444 946.458 50.86 946.282 51.724L944.666 51.436C944.922 49.884 945.914 49.052 947.946 49.052C950.058 49.052 951.05 49.868 951.05 51.932V55.756ZM949.258 53.916C949.098 53.9 948.906 53.884 948.49 53.884C947.562 53.884 946.218 53.996 946.218 55.212C946.218 55.788 946.474 56.316 947.45 56.316C948.202 56.316 948.89 55.932 949.258 55.548V53.916ZM955.041 57.5L951.985 49.228H953.985L956.145 55.692H956.177L958.321 49.228H960.193L957.169 57.5H955.041ZM964.655 57.692C961.679 57.692 960.751 55.644 960.751 53.372C960.751 50.38 962.543 49.052 964.703 49.052C967.103 49.052 968.095 50.572 968.095 52.716C968.095 53.052 968.079 53.436 968.047 53.82H962.687C962.735 55.564 963.567 56.188 964.766 56.188C965.823 56.188 966.271 55.692 966.463 54.844L968.031 55.228C967.711 56.796 966.447 57.692 964.655 57.692ZM966.191 52.54C966.191 51.132 965.695 50.508 964.591 50.508C963.663 50.508 962.799 51.068 962.719 52.54H966.191ZM979.706 55.756C979.706 56.204 979.786 56.396 980.202 56.396C980.346 56.396 980.49 56.364 980.698 56.3L980.762 57.388C980.442 57.548 979.914 57.66 979.466 57.66C978.602 57.66 978.218 57.324 978.074 56.684C977.514 57.292 976.602 57.692 975.45 57.692C973.37 57.692 973.002 56.284 973.002 55.468C973.002 53.324 974.826 52.62 977.05 52.62C977.434 52.62 977.674 52.636 977.898 52.652V52.028C977.898 51.02 977.674 50.444 976.458 50.444C975.45 50.444 975.114 50.86 974.938 51.724L973.322 51.436C973.578 49.884 974.57 49.052 976.602 49.052C978.714 49.052 979.706 49.868 979.706 51.932V55.756ZM977.914 53.916C977.754 53.9 977.562 53.884 977.146 53.884C976.218 53.884 974.874 53.996 974.874 55.212C974.874 55.788 975.13 56.316 976.106 56.316C976.858 56.316 977.546 55.932 977.914 55.548V53.916ZM989.319 57.5H987.479V52.172C987.479 51.132 987.095 50.588 986.119 50.588C985.287 50.588 984.423 51.1 984.023 51.468V57.5H982.183V49.228H983.815L983.895 50.092C984.631 49.5 985.623 49.052 986.759 49.052C988.551 49.052 989.319 49.996 989.319 51.868V57.5ZM998.599 57.5H997.063L996.935 56.668H996.903C996.247 57.292 995.431 57.692 994.295 57.692C992.391 57.692 991.095 56.492 991.095 53.5C991.095 50.22 992.791 49.052 994.583 49.052C995.527 49.052 996.247 49.292 996.807 49.772V45.42H998.599V57.5ZM996.759 51.196C996.407 50.924 995.751 50.556 994.967 50.556C993.527 50.556 992.999 51.756 992.999 53.484C992.999 55.276 993.559 56.204 994.887 56.204C995.591 56.204 996.311 55.82 996.759 55.356V51.196ZM1007.73 57.692C1004.76 57.692 1003.83 55.644 1003.83 53.372C1003.83 50.38 1005.62 49.052 1007.78 49.052C1010.18 49.052 1011.17 50.572 1011.17 52.716C1011.17 53.052 1011.16 53.436 1011.12 53.82H1005.76C1005.81 55.564 1006.64 56.188 1007.84 56.188C1008.9 56.188 1009.35 55.692 1009.54 54.844L1011.11 55.228C1010.79 56.796 1009.52 57.692 1007.73 57.692ZM1009.27 52.54C1009.27 51.132 1008.77 50.508 1007.67 50.508C1006.74 50.508 1005.88 51.068 1005.8 52.54H1009.27ZM1016.57 53.244L1019.44 57.5H1017.45L1015.45 54.54L1013.55 57.5H1011.72L1014.48 53.276L1011.71 49.228H1013.71L1015.58 52.06L1017.52 49.228H1019.31L1016.57 53.244ZM1022.63 57.5H1020.79V49.228H1022.63V57.5ZM1022.92 46.62C1022.92 47.404 1022.49 47.836 1021.72 47.836C1020.97 47.836 1020.52 47.404 1020.52 46.62C1020.52 45.852 1020.97 45.42 1021.72 45.42C1022.49 45.42 1022.92 45.852 1022.92 46.62ZM1029.86 57.116C1029.45 57.388 1028.55 57.692 1027.67 57.692C1026.04 57.692 1025.21 56.956 1025.21 55.196V50.588H1023.94V49.228H1025.21V46.812L1027.05 46.556V49.228H1029.29V50.588H1027.05V54.94C1027.05 55.756 1027.25 56.188 1028.15 56.188C1028.65 56.188 1029.22 55.996 1029.56 55.804L1029.86 57.116Z" fill="white"/>
<rect x="230" y="108" width="800" height="8" rx="4" fill="#06806B" fill-opacity="0.24"/>
<rect x="230" y="108" width="600" height="8" rx="4" fill="#06806B"/>
<path d="M931.528 132.283C931.528 131.786 931.556 131.301 931.61 130.827C931.665 130.362 931.777 129.868 931.945 129.344C932.114 128.838 932.335 128.389 932.608 127.997C932.868 127.632 933.226 127.32 933.682 127.061C934.128 126.81 934.648 126.685 935.24 126.685C936.676 126.685 937.523 127.402 937.783 128.838L936.607 129.2C936.484 128.676 936.304 128.307 936.067 128.093C935.835 127.888 935.511 127.785 935.097 127.785C934.65 127.785 934.267 127.913 933.948 128.168C933.629 128.419 933.388 128.758 933.224 129.187C933.142 129.401 933.069 129.619 933.005 129.843C932.946 130.062 932.898 130.283 932.861 130.506C932.788 130.952 932.745 131.429 932.731 131.935C932.991 131.647 933.351 131.395 933.812 131.176C934.267 130.962 934.739 130.854 935.227 130.854C936.092 130.854 936.76 131.117 937.229 131.641C937.694 132.165 937.927 132.873 937.927 133.767C937.927 134.851 937.642 135.692 937.072 136.289C936.503 136.886 935.732 137.185 934.762 137.185C934.137 137.185 933.602 137.057 933.155 136.802C932.709 136.551 932.371 136.189 932.144 135.715C931.929 135.259 931.772 134.744 931.672 134.17C931.581 133.646 931.533 133.017 931.528 132.283ZM932.772 133.069C932.782 133.425 932.811 133.732 932.861 133.992C932.88 134.124 932.905 134.261 932.937 134.402C932.968 134.539 933.007 134.683 933.053 134.833C933.135 135.134 933.246 135.371 933.388 135.544C933.529 135.731 933.716 135.886 933.948 136.009C934.181 136.132 934.452 136.191 934.762 136.187C935.313 136.187 935.757 135.991 936.095 135.599C936.432 135.207 936.598 134.637 936.594 133.89C936.594 132.6 936.045 131.957 934.946 131.962C934.181 131.962 933.456 132.324 932.772 133.049V133.069ZM942.227 133.432C942.227 132.256 942.53 131.326 943.136 130.643C943.733 129.973 944.601 129.638 945.74 129.638C946.843 129.638 947.657 129.959 948.181 130.602C948.705 131.253 948.965 132.14 948.96 133.261C948.96 135.863 947.827 137.166 945.562 137.171H945.549C943.339 137.171 942.231 135.924 942.227 133.432ZM943.56 133.377C943.56 134.329 943.728 135.029 944.065 135.476C944.403 135.922 944.92 136.146 945.617 136.146L945.631 136.159C946.966 136.159 947.634 135.227 947.634 133.363C947.634 132.393 947.474 131.704 947.155 131.299C946.836 130.898 946.346 130.697 945.686 130.697C944.268 130.697 943.56 131.59 943.56 133.377ZM949.753 130.827V129.802H950.812V128.64C950.812 127.072 951.528 126.288 952.959 126.288C953.492 126.288 953.93 126.368 954.271 126.527L954.23 127.505C953.907 127.386 953.583 127.327 953.26 127.327C953.251 127.327 953.239 127.327 953.226 127.327C952.87 127.327 952.59 127.421 952.385 127.607C952.189 127.794 952.091 128.125 952.091 128.599V129.802H954.094V130.827H952.091V137H950.812V130.827H949.753ZM957.607 134.566C957.607 133.372 958.316 132.452 959.733 131.805C958.539 131.253 957.942 130.433 957.942 129.344C957.942 128.496 958.232 127.838 958.811 127.368C959.38 126.912 960.137 126.685 961.08 126.685C961.987 126.685 962.7 126.894 963.22 127.313C963.744 127.733 964.006 128.298 964.006 129.009C964.006 130.093 963.361 130.971 962.071 131.641V131.668C962.782 131.978 963.309 132.326 963.65 132.714C964.006 133.115 964.184 133.675 964.184 134.396C964.184 135.216 963.876 135.883 963.261 136.398C962.636 136.923 961.821 137.185 960.813 137.185C959.729 137.185 958.924 136.941 958.4 136.453C957.867 135.97 957.603 135.341 957.607 134.566ZM958.893 134.525C958.893 135.601 959.547 136.136 960.854 136.132C961.538 136.132 962.042 135.968 962.365 135.64C962.693 135.312 962.857 134.906 962.857 134.423C962.857 134.136 962.796 133.885 962.673 133.671C962.541 133.448 962.358 133.252 962.126 133.083C962.003 133.001 961.889 132.926 961.784 132.857C961.679 132.789 961.575 132.732 961.47 132.687C961.365 132.641 961.251 132.591 961.128 132.536C961.009 132.477 960.87 132.42 960.711 132.365H960.697C960.1 132.643 959.654 132.942 959.357 133.261C959.048 133.589 958.893 134.01 958.893 134.525ZM959.241 129.187C959.241 129.651 959.396 130.03 959.706 130.321C960.011 130.622 960.444 130.916 961.005 131.203C962.135 130.633 962.7 129.934 962.7 129.104C962.7 128.207 962.131 127.758 960.991 127.758C960.44 127.758 960.011 127.885 959.706 128.141C959.396 128.391 959.241 128.74 959.241 129.187ZM968.34 133.5C968.34 132.174 968.629 131.199 969.208 130.574C969.778 129.959 970.507 129.651 971.396 129.651C972.161 129.651 972.842 129.911 973.439 130.431L973.549 129.802H974.656L974.643 139.967H973.439V136.289C972.692 136.877 971.908 137.171 971.088 137.171C969.26 137.171 968.344 135.947 968.34 133.5ZM969.646 133.486C969.646 134.375 969.789 135.034 970.076 135.462C970.363 135.89 970.826 136.104 971.464 136.104C972.157 136.104 972.797 135.811 973.385 135.223L973.371 131.429C972.774 130.964 972.161 130.729 971.532 130.725C970.274 130.725 969.646 131.645 969.646 133.486ZM976.803 129.774H978.074V134.464C978.074 134.988 978.168 135.38 978.354 135.64C978.532 135.89 978.879 136.018 979.394 136.022C979.758 136.022 980.141 135.929 980.542 135.742C980.925 135.564 981.237 135.368 981.479 135.154V129.802H982.75V137H981.643L981.561 136.173C980.777 136.815 979.927 137.137 979.011 137.137C977.543 137.137 976.812 136.321 976.816 134.689L976.803 129.774ZM984.486 133.459C984.486 132.219 984.803 131.281 985.437 130.643C986.07 130.009 986.883 129.692 987.877 129.692C988.839 129.692 989.556 129.973 990.03 130.533C990.504 131.094 990.743 131.846 990.748 132.789C990.748 132.949 990.743 133.106 990.734 133.261C990.725 133.411 990.709 133.562 990.687 133.712H985.847C985.874 134.569 986.065 135.184 986.421 135.558C986.767 135.922 987.253 136.104 987.877 136.104C988.802 136.104 989.367 135.681 989.572 134.833L990.687 135.079C990.545 135.772 990.224 136.291 989.723 136.638C989.208 136.993 988.583 137.171 987.85 137.171L987.809 137.212C987.193 137.212 986.66 137.114 986.209 136.918C985.771 136.722 985.432 136.442 985.19 136.077C984.94 135.694 984.762 135.298 984.657 134.888C984.543 134.459 984.486 133.983 984.486 133.459ZM985.847 132.728L989.401 132.714C989.401 131.379 988.859 130.711 987.774 130.711C987.25 130.711 986.808 130.88 986.448 131.217C986.093 131.554 985.892 132.058 985.847 132.728ZM991.992 135.093L993.127 134.785C993.241 135.25 993.423 135.601 993.674 135.838C993.915 136.07 994.33 136.187 994.918 136.187C995.916 136.187 996.415 135.842 996.415 135.154C996.415 134.79 996.299 134.537 996.066 134.396C995.825 134.254 995.419 134.129 994.85 134.02C994.717 134.001 994.608 133.983 994.521 133.965C994.439 133.942 994.376 133.922 994.33 133.903C994.285 133.885 994.218 133.867 994.132 133.849C994.05 133.83 993.952 133.803 993.838 133.767C993.724 133.73 993.626 133.696 993.544 133.664C993.462 133.628 993.391 133.596 993.332 133.568C993.218 133.514 993.079 133.429 992.915 133.315C992.746 133.201 992.626 133.081 992.553 132.953C992.48 132.812 992.414 132.648 992.354 132.461C992.3 132.265 992.272 132.051 992.272 131.818C992.272 131.126 992.523 130.59 993.024 130.212C993.521 129.838 994.157 129.651 994.932 129.651V129.665C995.743 129.665 996.354 129.843 996.764 130.198C997.165 130.554 997.431 131.071 997.563 131.75L996.415 132.003C996.31 131.547 996.155 131.21 995.95 130.991C995.736 130.777 995.387 130.67 994.904 130.67C993.979 130.67 993.517 131.007 993.517 131.682C993.517 132.037 993.642 132.288 993.893 132.434C994.143 132.593 994.556 132.734 995.13 132.857C995.476 132.93 995.741 132.985 995.923 133.021C996.082 133.058 996.308 133.138 996.6 133.261C996.859 133.375 997.055 133.495 997.188 133.623C997.311 133.755 997.422 133.938 997.522 134.17C997.623 134.411 997.673 134.671 997.673 134.949C997.673 134.963 997.673 134.974 997.673 134.983C997.673 135.667 997.422 136.205 996.921 136.597C996.415 136.989 995.725 137.185 994.85 137.185C993.159 137.185 992.206 136.487 991.992 135.093ZM998.397 130.841V129.815H999.505V127.73L1000.78 127.539V129.815H1002.77V130.841H1000.78V134.956C1000.78 135.366 1000.85 135.66 1000.99 135.838C1001.13 136.025 1001.41 136.118 1001.82 136.118C1002.23 136.118 1002.64 136.002 1003.07 135.77L1003.3 136.72C1003.12 136.843 1002.86 136.954 1002.51 137.055C1002.19 137.146 1001.87 137.194 1001.54 137.198C1000.85 137.198 1000.34 137.03 1000 136.692C999.667 136.355 999.5 135.833 999.505 135.127V130.841H998.397ZM1004.34 127.491V127.464C1004.34 126.858 1004.64 126.555 1005.24 126.555C1005.53 126.555 1005.75 126.634 1005.91 126.794C1006.07 126.953 1006.15 127.177 1006.15 127.464C1006.15 127.742 1006.07 127.972 1005.91 128.154C1005.75 128.323 1005.53 128.407 1005.24 128.407C1004.95 128.407 1004.73 128.327 1004.57 128.168C1004.42 128.018 1004.34 127.792 1004.34 127.491ZM1004.58 137V129.802H1005.86V137H1004.58ZM1007.61 133.432C1007.61 132.256 1007.91 131.326 1008.51 130.643C1009.11 129.973 1009.98 129.638 1011.12 129.638C1012.22 129.638 1013.04 129.959 1013.56 130.602C1014.08 131.253 1014.34 132.14 1014.34 133.261C1014.34 135.863 1013.21 137.166 1010.94 137.171H1010.93C1008.72 137.171 1007.61 135.924 1007.61 133.432ZM1008.94 133.377C1008.94 134.329 1009.11 135.029 1009.44 135.476C1009.78 135.922 1010.3 136.146 1011 136.146L1011.01 136.159C1012.35 136.159 1013.01 135.227 1013.01 133.363C1013.01 132.393 1012.85 131.704 1012.53 131.299C1012.22 130.898 1011.73 130.697 1011.06 130.697C1009.65 130.697 1008.94 131.59 1008.94 133.377ZM1016.15 137V129.802H1017.27L1017.34 130.656C1018.18 129.986 1019.04 129.651 1019.93 129.651C1020.69 129.651 1021.25 129.856 1021.61 130.267C1021.98 130.677 1022.16 131.292 1022.15 132.112L1022.11 137H1020.84V132.311C1020.84 131.777 1020.74 131.39 1020.53 131.148C1020.32 130.898 1019.98 130.772 1019.51 130.772C1019.14 130.772 1018.76 130.866 1018.36 131.053C1017.98 131.23 1017.66 131.426 1017.42 131.641V137H1016.15ZM1023.71 135.093L1024.85 134.785C1024.96 135.25 1025.14 135.601 1025.39 135.838C1025.63 136.07 1026.05 136.187 1026.64 136.187C1027.63 136.187 1028.13 135.842 1028.13 135.154C1028.13 134.79 1028.02 134.537 1027.79 134.396C1027.54 134.254 1027.14 134.129 1026.57 134.02C1026.44 134.001 1026.33 133.983 1026.24 133.965C1026.16 133.942 1026.09 133.922 1026.05 133.903C1026 133.885 1025.94 133.867 1025.85 133.849C1025.77 133.83 1025.67 133.803 1025.56 133.767C1025.44 133.73 1025.34 133.696 1025.26 133.664C1025.18 133.628 1025.11 133.596 1025.05 133.568C1024.94 133.514 1024.8 133.429 1024.63 133.315C1024.47 133.201 1024.34 133.081 1024.27 132.953C1024.2 132.812 1024.13 132.648 1024.07 132.461C1024.02 132.265 1023.99 132.051 1023.99 131.818C1023.99 131.126 1024.24 130.59 1024.74 130.212C1025.24 129.838 1025.88 129.651 1026.65 129.651V129.665C1027.46 129.665 1028.07 129.843 1028.48 130.198C1028.88 130.554 1029.15 131.071 1029.28 131.75L1028.13 132.003C1028.03 131.547 1027.87 131.21 1027.67 130.991C1027.45 130.777 1027.11 130.67 1026.62 130.67C1025.7 130.67 1025.24 131.007 1025.24 131.682C1025.24 132.037 1025.36 132.288 1025.61 132.434C1025.86 132.593 1026.27 132.734 1026.85 132.857C1027.19 132.93 1027.46 132.985 1027.64 133.021C1027.8 133.058 1028.03 133.138 1028.32 133.261C1028.58 133.375 1028.77 133.495 1028.91 133.623C1029.03 133.755 1029.14 133.938 1029.24 134.17C1029.34 134.411 1029.39 134.671 1029.39 134.949C1029.39 134.963 1029.39 134.974 1029.39 134.983C1029.39 135.667 1029.14 136.205 1028.64 136.597C1028.13 136.989 1027.44 137.185 1026.57 137.185C1024.88 137.185 1023.93 136.487 1023.71 135.093Z" fill="#636363"/>
<path d="M231.597 182.468C231.597 178.825 232.495 175.988 234.292 173.957C236.089 171.916 238.55 170.896 241.675 170.896C244.038 170.896 245.928 171.496 247.344 172.697C248.74 173.898 249.517 175.725 249.673 178.176L247.095 178.454C246.87 176.716 246.333 175.427 245.483 174.587C244.604 173.747 243.306 173.327 241.587 173.327C239.282 173.327 237.5 174.074 236.24 175.568C234.98 177.072 234.351 179.294 234.351 182.233C234.351 188.073 236.641 190.993 241.221 190.993C242.959 190.993 244.268 190.622 245.146 189.88C246.045 189.118 246.675 187.966 247.036 186.423L249.526 186.936C249.282 188.479 248.716 189.738 247.827 190.715C246.929 191.711 245.908 192.404 244.766 192.795C243.643 193.176 242.402 193.366 241.045 193.366H241.104C237.822 193.366 235.42 192.404 233.896 190.48C232.354 188.537 231.587 185.866 231.597 182.468ZM252.207 185.354C252.207 182.834 252.856 180.842 254.155 179.377C255.435 177.941 257.295 177.224 259.736 177.224C262.1 177.224 263.843 177.912 264.966 179.289C266.089 180.686 266.646 182.585 266.636 184.987C266.636 190.563 264.209 193.356 259.355 193.366H259.326C254.59 193.366 252.217 190.695 252.207 185.354ZM255.063 185.236C255.063 187.277 255.425 188.776 256.147 189.733C256.87 190.69 257.979 191.169 259.473 191.169L259.502 191.198C262.363 191.198 263.794 189.201 263.794 185.207C263.794 183.127 263.452 181.652 262.769 180.783C262.085 179.924 261.035 179.494 259.619 179.494C256.582 179.494 255.063 181.408 255.063 185.236ZM270.576 193.029V177.604H272.861L273.066 179.831C274.326 178.132 276.035 177.282 278.193 177.282H278.472H278.735V180.124C278.56 180.104 278.403 180.09 278.267 180.08C278.14 180.07 278.037 180.065 277.959 180.065C277.1 180.065 276.25 180.227 275.41 180.549C274.551 180.871 273.848 181.291 273.301 181.809V193.029H270.576ZM280.024 189.25C280.024 185.754 282.681 184.006 287.993 184.006C288.149 184.006 288.345 184.011 288.579 184.021C288.813 184.03 289.072 184.045 289.355 184.064V182.556C289.355 181.521 289.146 180.744 288.726 180.227C288.306 179.709 287.505 179.445 286.323 179.436C285.288 179.436 284.526 179.646 284.038 180.065C283.56 180.485 283.228 181.125 283.042 181.984L280.654 181.545C280.898 180.08 281.499 179.011 282.456 178.337C283.433 177.634 284.8 177.282 286.558 177.282C288.481 177.282 289.883 177.692 290.762 178.513C291.641 179.333 292.08 180.681 292.08 182.556V190.085C292.08 190.524 292.139 190.837 292.256 191.022C292.373 191.198 292.622 191.286 293.003 191.286C293.198 191.286 293.501 191.228 293.911 191.11L294.028 192.824C293.433 193.137 292.749 193.293 291.978 193.293C291.958 193.293 291.934 193.293 291.904 193.293C290.508 193.293 289.717 192.688 289.531 191.477C288.271 192.736 286.621 193.366 284.58 193.366C283.682 193.366 282.9 193.225 282.236 192.941C281.592 192.658 281.123 192.297 280.83 191.857C280.527 191.418 280.317 190.979 280.2 190.539C280.083 190.119 280.024 189.689 280.024 189.25ZM282.837 188.767C282.837 190.407 283.696 191.228 285.415 191.228C286.157 191.228 286.899 191.057 287.642 190.715C288.364 190.373 288.955 189.963 289.414 189.484L289.355 185.954C288.936 185.896 288.413 185.866 287.788 185.866C287.124 185.866 286.553 185.896 286.074 185.954C285.596 186.013 285.088 186.13 284.551 186.306C284.014 186.481 283.594 186.784 283.291 187.214C282.988 187.634 282.837 188.151 282.837 188.767ZM297.148 193V170.354H299.873V193H297.148ZM311.064 193.029V177.604H313.35L313.555 179.831C314.814 178.132 316.523 177.282 318.682 177.282H318.96H319.224V180.124C319.048 180.104 318.892 180.09 318.755 180.08C318.628 180.07 318.525 180.065 318.447 180.065C317.588 180.065 316.738 180.227 315.898 180.549C315.039 180.871 314.336 181.291 313.789 181.809V193.029H311.064ZM320.469 185.412C320.469 182.756 321.147 180.744 322.505 179.377C323.862 178.02 325.605 177.341 327.734 177.341C329.795 177.341 331.333 177.941 332.349 179.143C333.364 180.344 333.877 181.955 333.887 183.977C333.887 184.318 333.877 184.655 333.857 184.987C333.838 185.31 333.804 185.632 333.755 185.954H323.384C323.442 187.79 323.853 189.108 324.614 189.909C325.356 190.69 326.396 191.081 327.734 191.081C329.717 191.081 330.928 190.173 331.367 188.356L333.755 188.884C333.452 190.368 332.764 191.481 331.689 192.224C330.586 192.985 329.248 193.366 327.676 193.366L327.588 193.454C326.27 193.454 325.127 193.244 324.16 192.824C323.223 192.404 322.495 191.804 321.978 191.022C321.44 190.202 321.06 189.353 320.835 188.474C320.591 187.556 320.469 186.535 320.469 185.412ZM323.384 183.845L331.001 183.815C331.001 180.954 329.839 179.523 327.515 179.523C326.392 179.523 325.444 179.885 324.673 180.607C323.911 181.33 323.481 182.409 323.384 183.845ZM336.846 185.412C336.846 182.756 337.524 180.744 338.882 179.377C340.239 178.02 341.982 177.341 344.111 177.341C346.172 177.341 347.71 177.941 348.726 179.143C349.741 180.344 350.254 181.955 350.264 183.977C350.264 184.318 350.254 184.655 350.234 184.987C350.215 185.31 350.181 185.632 350.132 185.954H339.761C339.819 187.79 340.229 189.108 340.991 189.909C341.733 190.69 342.773 191.081 344.111 191.081C346.094 191.081 347.305 190.173 347.744 188.356L350.132 188.884C349.829 190.368 349.141 191.481 348.066 192.224C346.963 192.985 345.625 193.366 344.053 193.366L343.965 193.454C342.646 193.454 341.504 193.244 340.537 192.824C339.6 192.404 338.872 191.804 338.354 191.022C337.817 190.202 337.437 189.353 337.212 188.474C336.968 187.556 336.846 186.535 336.846 185.412ZM339.761 183.845L347.378 183.815C347.378 180.954 346.216 179.523 343.892 179.523C342.769 179.523 341.821 179.885 341.05 180.607C340.288 181.33 339.858 182.409 339.761 183.845ZM352.065 179.772V177.575H354.336V175.085C354.336 171.726 355.869 170.046 358.936 170.046C360.078 170.046 361.016 170.217 361.748 170.559L361.66 172.653C360.967 172.399 360.273 172.272 359.58 172.272C359.561 172.272 359.536 172.272 359.507 172.272C358.745 172.272 358.145 172.473 357.705 172.873C357.285 173.273 357.075 173.981 357.075 174.997V177.575H361.367V179.772H357.075V193H354.336V179.772H352.065ZM361.982 188.913L364.414 188.254C364.658 189.25 365.049 190.002 365.586 190.51C366.104 191.008 366.992 191.257 368.252 191.257C370.391 191.257 371.46 190.52 371.46 189.045C371.46 188.264 371.211 187.722 370.713 187.419C370.195 187.116 369.326 186.848 368.105 186.613C367.822 186.574 367.588 186.535 367.402 186.496C367.227 186.447 367.09 186.403 366.992 186.364C366.895 186.325 366.753 186.286 366.567 186.247C366.392 186.208 366.182 186.149 365.938 186.071C365.693 185.993 365.483 185.92 365.308 185.852C365.132 185.773 364.98 185.705 364.854 185.646C364.609 185.529 364.312 185.349 363.96 185.104C363.599 184.86 363.34 184.602 363.184 184.328C363.027 184.025 362.886 183.674 362.759 183.273C362.642 182.854 362.583 182.395 362.583 181.896C362.583 180.412 363.12 179.265 364.194 178.454C365.259 177.653 366.621 177.253 368.281 177.253V177.282C370.02 177.282 371.328 177.663 372.207 178.425C373.066 179.187 373.638 180.295 373.921 181.75L371.46 182.292C371.235 181.315 370.903 180.593 370.464 180.124C370.005 179.665 369.258 179.436 368.223 179.436C366.24 179.436 365.249 180.158 365.249 181.604C365.249 182.365 365.518 182.902 366.055 183.215C366.592 183.557 367.476 183.859 368.706 184.123C369.448 184.279 370.015 184.396 370.405 184.475C370.747 184.553 371.23 184.724 371.855 184.987C372.412 185.231 372.832 185.49 373.115 185.764C373.379 186.047 373.618 186.438 373.833 186.936C374.048 187.453 374.155 188.01 374.155 188.605C374.155 188.635 374.155 188.659 374.155 188.679C374.155 190.144 373.618 191.296 372.544 192.136C371.46 192.976 369.98 193.396 368.105 193.396C364.482 193.396 362.441 191.901 361.982 188.913ZM383.53 189.25C383.53 185.754 386.187 184.006 391.499 184.006C391.655 184.006 391.851 184.011 392.085 184.021C392.319 184.03 392.578 184.045 392.861 184.064V182.556C392.861 181.521 392.651 180.744 392.231 180.227C391.812 179.709 391.011 179.445 389.829 179.436C388.794 179.436 388.032 179.646 387.544 180.065C387.065 180.485 386.733 181.125 386.548 181.984L384.16 181.545C384.404 180.08 385.005 179.011 385.962 178.337C386.938 177.634 388.306 177.282 390.063 177.282C391.987 177.282 393.389 177.692 394.268 178.513C395.146 179.333 395.586 180.681 395.586 182.556V190.085C395.586 190.524 395.645 190.837 395.762 191.022C395.879 191.198 396.128 191.286 396.509 191.286C396.704 191.286 397.007 191.228 397.417 191.11L397.534 192.824C396.938 193.137 396.255 193.293 395.483 193.293C395.464 193.293 395.439 193.293 395.41 193.293C394.014 193.293 393.223 192.688 393.037 191.477C391.777 192.736 390.127 193.366 388.086 193.366C387.188 193.366 386.406 193.225 385.742 192.941C385.098 192.658 384.629 192.297 384.336 191.857C384.033 191.418 383.823 190.979 383.706 190.539C383.589 190.119 383.53 189.689 383.53 189.25ZM386.343 188.767C386.343 190.407 387.202 191.228 388.921 191.228C389.663 191.228 390.405 191.057 391.147 190.715C391.87 190.373 392.461 189.963 392.92 189.484L392.861 185.954C392.441 185.896 391.919 185.866 391.294 185.866C390.63 185.866 390.059 185.896 389.58 185.954C389.102 186.013 388.594 186.13 388.057 186.306C387.52 186.481 387.1 186.784 386.797 187.214C386.494 187.634 386.343 188.151 386.343 188.767ZM400.684 193.029V177.604H402.969L403.174 179.831C404.434 178.132 406.143 177.282 408.301 177.282H408.579H408.843V180.124C408.667 180.104 408.511 180.09 408.374 180.08C408.247 180.07 408.145 180.065 408.066 180.065C407.207 180.065 406.357 180.227 405.518 180.549C404.658 180.871 403.955 181.291 403.408 181.809V193.029H400.684ZM410.088 185.412C410.088 182.756 410.767 180.744 412.124 179.377C413.481 178.02 415.225 177.341 417.354 177.341C419.414 177.341 420.952 177.941 421.968 179.143C422.983 180.344 423.496 181.955 423.506 183.977C423.506 184.318 423.496 184.655 423.477 184.987C423.457 185.31 423.423 185.632 423.374 185.954H413.003C413.062 187.79 413.472 189.108 414.233 189.909C414.976 190.69 416.016 191.081 417.354 191.081C419.336 191.081 420.547 190.173 420.986 188.356L423.374 188.884C423.071 190.368 422.383 191.481 421.309 192.224C420.205 192.985 418.867 193.366 417.295 193.366L417.207 193.454C415.889 193.454 414.746 193.244 413.779 192.824C412.842 192.404 412.114 191.804 411.597 191.022C411.06 190.202 410.679 189.353 410.454 188.474C410.21 187.556 410.088 186.535 410.088 185.412ZM413.003 183.845L420.62 183.815C420.62 180.954 419.458 179.523 417.134 179.523C416.011 179.523 415.063 179.885 414.292 180.607C413.53 181.33 413.101 182.409 413.003 183.845ZM433.423 172.624V172.565C433.423 171.267 434.062 170.617 435.342 170.617C435.957 170.617 436.436 170.788 436.777 171.13C437.119 171.472 437.29 171.95 437.29 172.565C437.29 173.161 437.119 173.654 436.777 174.045C436.436 174.406 435.957 174.587 435.342 174.587C434.727 174.587 434.248 174.416 433.906 174.074C433.584 173.752 433.423 173.269 433.423 172.624ZM433.936 193V177.575H436.66V193H433.936ZM441.377 193V177.575H443.779L443.926 179.406C445.723 177.971 447.573 177.253 449.478 177.253C451.099 177.253 452.3 177.692 453.081 178.571C453.862 179.45 454.248 180.769 454.238 182.526L454.15 193H451.426V182.951C451.426 181.809 451.206 180.979 450.767 180.461C450.308 179.924 449.575 179.655 448.569 179.655C447.788 179.655 446.968 179.855 446.108 180.256C445.288 180.637 444.619 181.057 444.102 181.516V193H441.377ZM464.346 185.559C464.346 182.697 464.956 180.598 466.177 179.26C467.397 177.922 468.96 177.253 470.864 177.253C472.544 177.253 473.984 177.731 475.186 178.688V170.354H477.852V193.029H475.566L475.361 191.374L475.332 191.345C473.809 192.702 472.109 193.386 470.234 193.396C468.398 193.396 466.958 192.766 465.913 191.506C464.878 190.266 464.355 188.283 464.346 185.559ZM467.144 185.559C467.144 187.482 467.451 188.884 468.066 189.763C468.682 190.661 469.673 191.11 471.04 191.11C472.524 191.11 473.896 190.48 475.156 189.221L475.127 180.974C473.926 180.075 472.612 179.626 471.187 179.626C468.491 179.626 467.144 181.604 467.144 185.559ZM481.821 189.25C481.821 185.754 484.478 184.006 489.79 184.006C489.946 184.006 490.142 184.011 490.376 184.021C490.61 184.03 490.869 184.045 491.152 184.064V182.556C491.152 181.521 490.942 180.744 490.522 180.227C490.103 179.709 489.302 179.445 488.12 179.436C487.085 179.436 486.323 179.646 485.835 180.065C485.356 180.485 485.024 181.125 484.839 181.984L482.451 181.545C482.695 180.08 483.296 179.011 484.253 178.337C485.229 177.634 486.597 177.282 488.354 177.282C490.278 177.282 491.68 177.692 492.559 178.513C493.438 179.333 493.877 180.681 493.877 182.556V190.085C493.877 190.524 493.936 190.837 494.053 191.022C494.17 191.198 494.419 191.286 494.8 191.286C494.995 191.286 495.298 191.228 495.708 191.11L495.825 192.824C495.229 193.137 494.546 193.293 493.774 193.293C493.755 193.293 493.73 193.293 493.701 193.293C492.305 193.293 491.514 192.688 491.328 191.477C490.068 192.736 488.418 193.366 486.377 193.366C485.479 193.366 484.697 193.225 484.033 192.941C483.389 192.658 482.92 192.297 482.627 191.857C482.324 191.418 482.114 190.979 481.997 190.539C481.88 190.119 481.821 189.689 481.821 189.25ZM484.634 188.767C484.634 190.407 485.493 191.228 487.212 191.228C487.954 191.228 488.696 191.057 489.438 190.715C490.161 190.373 490.752 189.963 491.211 189.484L491.152 185.954C490.732 185.896 490.21 185.866 489.585 185.866C488.921 185.866 488.35 185.896 487.871 185.954C487.393 186.013 486.885 186.13 486.348 186.306C485.811 186.481 485.391 186.784 485.088 187.214C484.785 187.634 484.634 188.151 484.634 188.767ZM498.916 193V177.575H501.318L501.465 179.406C503.262 177.971 505.112 177.253 507.017 177.253C508.638 177.253 509.839 177.692 510.62 178.571C511.401 179.45 511.787 180.769 511.777 182.526L511.689 193H508.965V182.951C508.965 181.809 508.745 180.979 508.306 180.461C507.847 179.924 507.114 179.655 506.108 179.655C505.327 179.655 504.507 179.855 503.647 180.256C502.827 180.637 502.158 181.057 501.641 181.516V193H498.916ZM514.868 196.032C514.868 194.489 515.698 193.308 517.358 192.487V192.458C516.245 191.999 515.688 191.291 515.688 190.334C515.688 189.719 515.869 189.177 516.23 188.708C516.592 188.269 517.1 187.79 517.754 187.272C517.012 186.872 516.45 186.301 516.069 185.559C515.669 184.797 515.469 183.928 515.469 182.951C515.469 181.252 516.069 179.87 517.271 178.806C518.452 177.771 520.044 177.253 522.046 177.253V177.37C524.087 177.37 525.576 177.839 526.514 178.776C527.07 177.438 527.881 176.77 528.945 176.77C529.326 176.77 529.775 176.848 530.293 177.004V179.201H529.868C528.911 179.201 528.071 179.309 527.349 179.523C528.11 180.402 528.491 181.516 528.491 182.863C528.491 184.582 527.891 185.93 526.689 186.906C525.508 187.883 523.999 188.376 522.163 188.386C521.001 188.386 520.083 188.264 519.409 188.02L519.219 188.195L519.043 188.386L518.867 188.562C518.77 188.659 518.711 188.728 518.691 188.767C518.652 188.845 518.608 188.918 518.56 188.986C518.521 189.045 518.481 189.133 518.442 189.25C518.423 189.309 518.413 189.396 518.413 189.514C518.413 189.855 518.555 190.119 518.838 190.305C519.102 190.48 519.609 190.598 520.361 190.656L524.653 190.964C526.372 191.081 527.632 191.418 528.433 191.975C529.253 192.551 529.663 193.542 529.663 194.948C529.663 196.169 529.263 197.15 528.462 197.893C527.642 198.654 526.685 199.162 525.591 199.416C524.429 199.699 523.169 199.841 521.812 199.841C517.192 199.841 514.878 198.571 514.868 196.032ZM517.637 195.607C517.637 197.043 519.146 197.766 522.163 197.775C525.347 197.775 526.938 196.965 526.938 195.344H526.968C526.968 194.748 526.787 194.309 526.426 194.025C526.064 193.762 525.386 193.581 524.39 193.483L519.38 193.176C518.765 193.557 518.311 193.938 518.018 194.318C517.754 194.66 517.627 195.09 517.637 195.607ZM518.208 182.893C518.208 185.09 519.487 186.188 522.046 186.188C523.188 186.188 524.106 185.9 524.8 185.324C525.503 184.748 525.854 183.947 525.854 182.922L525.825 182.951C525.825 180.715 524.585 179.597 522.104 179.597C520.942 179.597 520 179.865 519.277 180.402C518.555 180.939 518.198 181.77 518.208 182.893ZM531.436 185.412C531.436 182.756 532.114 180.744 533.472 179.377C534.829 178.02 536.572 177.341 538.701 177.341C540.762 177.341 542.3 177.941 543.315 179.143C544.331 180.344 544.844 181.955 544.854 183.977C544.854 184.318 544.844 184.655 544.824 184.987C544.805 185.31 544.771 185.632 544.722 185.954H534.351C534.409 187.79 534.819 189.108 535.581 189.909C536.323 190.69 537.363 191.081 538.701 191.081C540.684 191.081 541.895 190.173 542.334 188.356L544.722 188.884C544.419 190.368 543.73 191.481 542.656 192.224C541.553 192.985 540.215 193.366 538.643 193.366L538.555 193.454C537.236 193.454 536.094 193.244 535.127 192.824C534.189 192.404 533.462 191.804 532.944 191.022C532.407 190.202 532.026 189.353 531.802 188.474C531.558 187.556 531.436 186.535 531.436 185.412ZM534.351 183.845L541.968 183.815C541.968 180.954 540.806 179.523 538.481 179.523C537.358 179.523 536.411 179.885 535.64 180.607C534.878 181.33 534.448 182.409 534.351 183.845ZM548.896 193.029V177.604H551.182L551.387 179.831C552.646 178.132 554.355 177.282 556.514 177.282H556.792H557.056V180.124C556.88 180.104 556.724 180.09 556.587 180.08C556.46 180.07 556.357 180.065 556.279 180.065C555.42 180.065 554.57 180.227 553.73 180.549C552.871 180.871 552.168 181.291 551.621 181.809V193.029H548.896ZM556.602 191.345C556.602 190.007 557.28 189.338 558.638 189.338C559.995 189.338 560.679 190.007 560.688 191.345C560.688 192.683 560.005 193.356 558.638 193.366C557.28 193.366 556.602 192.692 556.602 191.345ZM230.396 211.679V209.276H246.23V211.679H239.727V231H236.958V211.679H230.396ZM249.043 231V208.354H251.738V217.318C253.496 215.941 255.308 215.253 257.173 215.253C260.317 215.253 261.885 217.011 261.875 220.526L261.816 231H259.092V220.951C259.092 219.809 258.872 218.979 258.433 218.461C257.974 217.924 257.241 217.655 256.235 217.655C255.454 217.655 254.634 217.855 253.774 218.256C252.954 218.637 252.285 219.057 251.768 219.516V231H249.043ZM265.449 223.412C265.449 220.756 266.128 218.744 267.485 217.377C268.843 216.02 270.586 215.341 272.715 215.341C274.775 215.341 276.313 215.941 277.329 217.143C278.345 218.344 278.857 219.955 278.867 221.977C278.867 222.318 278.857 222.655 278.838 222.987C278.818 223.31 278.784 223.632 278.735 223.954H268.364C268.423 225.79 268.833 227.108 269.595 227.909C270.337 228.69 271.377 229.081 272.715 229.081C274.697 229.081 275.908 228.173 276.348 226.356L278.735 226.884C278.433 228.368 277.744 229.481 276.67 230.224C275.566 230.985 274.229 231.366 272.656 231.366L272.568 231.454C271.25 231.454 270.107 231.244 269.141 230.824C268.203 230.404 267.476 229.804 266.958 229.022C266.421 228.202 266.04 227.353 265.815 226.474C265.571 225.556 265.449 224.535 265.449 223.412ZM268.364 221.845L275.981 221.815C275.981 218.954 274.819 217.523 272.495 217.523C271.372 217.523 270.425 217.885 269.653 218.607C268.892 219.33 268.462 220.409 268.364 221.845ZM288.359 223.559C288.359 220.697 288.97 218.598 290.19 217.26C291.411 215.922 292.974 215.253 294.878 215.253C296.558 215.253 297.998 215.731 299.199 216.688V208.354H301.865V231.029H299.58L299.375 229.374L299.346 229.345C297.822 230.702 296.123 231.386 294.248 231.396C292.412 231.396 290.972 230.766 289.927 229.506C288.892 228.266 288.369 226.283 288.359 223.559ZM291.157 223.559C291.157 225.482 291.465 226.884 292.08 227.763C292.695 228.661 293.687 229.11 295.054 229.11C296.538 229.11 297.91 228.48 299.17 227.221L299.141 218.974C297.939 218.075 296.626 217.626 295.2 217.626C292.505 217.626 291.157 219.604 291.157 223.559ZM305.835 227.25C305.835 223.754 308.491 222.006 313.804 222.006C313.96 222.006 314.155 222.011 314.39 222.021C314.624 222.03 314.883 222.045 315.166 222.064V220.556C315.166 219.521 314.956 218.744 314.536 218.227C314.116 217.709 313.315 217.445 312.134 217.436C311.099 217.436 310.337 217.646 309.849 218.065C309.37 218.485 309.038 219.125 308.853 219.984L306.465 219.545C306.709 218.08 307.31 217.011 308.267 216.337C309.243 215.634 310.61 215.282 312.368 215.282C314.292 215.282 315.693 215.692 316.572 216.513C317.451 217.333 317.891 218.681 317.891 220.556V228.085C317.891 228.524 317.949 228.837 318.066 229.022C318.184 229.198 318.433 229.286 318.813 229.286C319.009 229.286 319.312 229.228 319.722 229.11L319.839 230.824C319.243 231.137 318.56 231.293 317.788 231.293C317.769 231.293 317.744 231.293 317.715 231.293C316.318 231.293 315.527 230.688 315.342 229.477C314.082 230.736 312.432 231.366 310.391 231.366C309.492 231.366 308.711 231.225 308.047 230.941C307.402 230.658 306.934 230.297 306.641 229.857C306.338 229.418 306.128 228.979 306.011 228.539C305.894 228.119 305.835 227.689 305.835 227.25ZM308.647 226.767C308.647 228.407 309.507 229.228 311.226 229.228C311.968 229.228 312.71 229.057 313.452 228.715C314.175 228.373 314.766 227.963 315.225 227.484L315.166 223.954C314.746 223.896 314.224 223.866 313.599 223.866C312.935 223.866 312.363 223.896 311.885 223.954C311.406 224.013 310.898 224.13 310.361 224.306C309.824 224.481 309.404 224.784 309.102 225.214C308.799 225.634 308.647 226.151 308.647 226.767ZM322.93 231V215.575H325.332L325.479 217.406C327.275 215.971 329.126 215.253 331.03 215.253C332.651 215.253 333.853 215.692 334.634 216.571C335.415 217.45 335.801 218.769 335.791 220.526L335.703 231H332.979V220.951C332.979 219.809 332.759 218.979 332.319 218.461C331.86 217.924 331.128 217.655 330.122 217.655C329.341 217.655 328.521 217.855 327.661 218.256C326.841 218.637 326.172 219.057 325.654 219.516V231H322.93ZM338.882 234.032C338.882 232.489 339.712 231.308 341.372 230.487V230.458C340.259 229.999 339.702 229.291 339.702 228.334C339.702 227.719 339.883 227.177 340.244 226.708C340.605 226.269 341.113 225.79 341.768 225.272C341.025 224.872 340.464 224.301 340.083 223.559C339.683 222.797 339.482 221.928 339.482 220.951C339.482 219.252 340.083 217.87 341.284 216.806C342.466 215.771 344.058 215.253 346.06 215.253V215.37C348.101 215.37 349.59 215.839 350.527 216.776C351.084 215.438 351.895 214.77 352.959 214.77C353.34 214.77 353.789 214.848 354.307 215.004V217.201H353.882C352.925 217.201 352.085 217.309 351.362 217.523C352.124 218.402 352.505 219.516 352.505 220.863C352.505 222.582 351.904 223.93 350.703 224.906C349.521 225.883 348.013 226.376 346.177 226.386C345.015 226.386 344.097 226.264 343.423 226.02L343.232 226.195L343.057 226.386L342.881 226.562C342.783 226.659 342.725 226.728 342.705 226.767C342.666 226.845 342.622 226.918 342.573 226.986C342.534 227.045 342.495 227.133 342.456 227.25C342.437 227.309 342.427 227.396 342.427 227.514C342.427 227.855 342.568 228.119 342.852 228.305C343.115 228.48 343.623 228.598 344.375 228.656L348.667 228.964C350.386 229.081 351.646 229.418 352.446 229.975C353.267 230.551 353.677 231.542 353.677 232.948C353.677 234.169 353.276 235.15 352.476 235.893C351.655 236.654 350.698 237.162 349.604 237.416C348.442 237.699 347.183 237.841 345.825 237.841C341.206 237.841 338.892 236.571 338.882 234.032ZM341.65 233.607C341.65 235.043 343.159 235.766 346.177 235.775C349.36 235.775 350.952 234.965 350.952 233.344H350.981C350.981 232.748 350.801 232.309 350.439 232.025C350.078 231.762 349.399 231.581 348.403 231.483L343.394 231.176C342.778 231.557 342.324 231.938 342.031 232.318C341.768 232.66 341.641 233.09 341.65 233.607ZM342.222 220.893C342.222 223.09 343.501 224.188 346.06 224.188C347.202 224.188 348.12 223.9 348.813 223.324C349.517 222.748 349.868 221.947 349.868 220.922L349.839 220.951C349.839 218.715 348.599 217.597 346.118 217.597C344.956 217.597 344.014 217.865 343.291 218.402C342.568 218.939 342.212 219.77 342.222 220.893ZM355.449 223.412C355.449 220.756 356.128 218.744 357.485 217.377C358.843 216.02 360.586 215.341 362.715 215.341C364.775 215.341 366.313 215.941 367.329 217.143C368.345 218.344 368.857 219.955 368.867 221.977C368.867 222.318 368.857 222.655 368.838 222.987C368.818 223.31 368.784 223.632 368.735 223.954H358.364C358.423 225.79 358.833 227.108 359.595 227.909C360.337 228.69 361.377 229.081 362.715 229.081C364.697 229.081 365.908 228.173 366.348 226.356L368.735 226.884C368.433 228.368 367.744 229.481 366.67 230.224C365.566 230.985 364.229 231.366 362.656 231.366L362.568 231.454C361.25 231.454 360.107 231.244 359.141 230.824C358.203 230.404 357.476 229.804 356.958 229.022C356.421 228.202 356.04 227.353 355.815 226.474C355.571 225.556 355.449 224.535 355.449 223.412ZM358.364 221.845L365.981 221.815C365.981 218.954 364.819 217.523 362.495 217.523C361.372 217.523 360.425 217.885 359.653 218.607C358.892 219.33 358.462 220.409 358.364 221.845ZM372.91 231.029V215.604H375.195L375.4 217.831C376.66 216.132 378.369 215.282 380.527 215.282H380.806H381.069V218.124C380.894 218.104 380.737 218.09 380.601 218.08C380.474 218.07 380.371 218.065 380.293 218.065C379.434 218.065 378.584 218.227 377.744 218.549C376.885 218.871 376.182 219.291 375.635 219.809V231.029H372.91ZM389.712 210.624V210.565C389.712 209.267 390.352 208.617 391.631 208.617C392.246 208.617 392.725 208.788 393.066 209.13C393.408 209.472 393.579 209.95 393.579 210.565C393.579 211.161 393.408 211.654 393.066 212.045C392.725 212.406 392.246 212.587 391.631 212.587C391.016 212.587 390.537 212.416 390.195 212.074C389.873 211.752 389.712 211.269 389.712 210.624ZM390.225 231V215.575H392.949V231H390.225ZM396.406 226.913L398.838 226.254C399.082 227.25 399.473 228.002 400.01 228.51C400.527 229.008 401.416 229.257 402.676 229.257C404.814 229.257 405.884 228.52 405.884 227.045C405.884 226.264 405.635 225.722 405.137 225.419C404.619 225.116 403.75 224.848 402.529 224.613C402.246 224.574 402.012 224.535 401.826 224.496C401.65 224.447 401.514 224.403 401.416 224.364C401.318 224.325 401.177 224.286 400.991 224.247C400.815 224.208 400.605 224.149 400.361 224.071C400.117 223.993 399.907 223.92 399.731 223.852C399.556 223.773 399.404 223.705 399.277 223.646C399.033 223.529 398.735 223.349 398.384 223.104C398.022 222.86 397.764 222.602 397.607 222.328C397.451 222.025 397.31 221.674 397.183 221.273C397.065 220.854 397.007 220.395 397.007 219.896C397.007 218.412 397.544 217.265 398.618 216.454C399.683 215.653 401.045 215.253 402.705 215.253V215.282C404.443 215.282 405.752 215.663 406.631 216.425C407.49 217.187 408.062 218.295 408.345 219.75L405.884 220.292C405.659 219.315 405.327 218.593 404.888 218.124C404.429 217.665 403.682 217.436 402.646 217.436C400.664 217.436 399.673 218.158 399.673 219.604C399.673 220.365 399.941 220.902 400.479 221.215C401.016 221.557 401.899 221.859 403.13 222.123C403.872 222.279 404.438 222.396 404.829 222.475C405.171 222.553 405.654 222.724 406.279 222.987C406.836 223.231 407.256 223.49 407.539 223.764C407.803 224.047 408.042 224.438 408.257 224.936C408.472 225.453 408.579 226.01 408.579 226.605C408.579 226.635 408.579 226.659 408.579 226.679C408.579 228.144 408.042 229.296 406.968 230.136C405.884 230.976 404.404 231.396 402.529 231.396C398.906 231.396 396.865 229.901 396.406 226.913ZM417.441 226.913L419.873 226.254C420.117 227.25 420.508 228.002 421.045 228.51C421.562 229.008 422.451 229.257 423.711 229.257C425.85 229.257 426.919 228.52 426.919 227.045C426.919 226.264 426.67 225.722 426.172 225.419C425.654 225.116 424.785 224.848 423.564 224.613C423.281 224.574 423.047 224.535 422.861 224.496C422.686 224.447 422.549 224.403 422.451 224.364C422.354 224.325 422.212 224.286 422.026 224.247C421.851 224.208 421.641 224.149 421.396 224.071C421.152 223.993 420.942 223.92 420.767 223.852C420.591 223.773 420.439 223.705 420.312 223.646C420.068 223.529 419.771 223.349 419.419 223.104C419.058 222.86 418.799 222.602 418.643 222.328C418.486 222.025 418.345 221.674 418.218 221.273C418.101 220.854 418.042 220.395 418.042 219.896C418.042 218.412 418.579 217.265 419.653 216.454C420.718 215.653 422.08 215.253 423.74 215.253V215.282C425.479 215.282 426.787 215.663 427.666 216.425C428.525 217.187 429.097 218.295 429.38 219.75L426.919 220.292C426.694 219.315 426.362 218.593 425.923 218.124C425.464 217.665 424.717 217.436 423.682 217.436C421.699 217.436 420.708 218.158 420.708 219.604C420.708 220.365 420.977 220.902 421.514 221.215C422.051 221.557 422.935 221.859 424.165 222.123C424.907 222.279 425.474 222.396 425.864 222.475C426.206 222.553 426.689 222.724 427.314 222.987C427.871 223.231 428.291 223.49 428.574 223.764C428.838 224.047 429.077 224.438 429.292 224.936C429.507 225.453 429.614 226.01 429.614 226.605C429.614 226.635 429.614 226.659 429.614 226.679C429.614 228.144 429.077 229.296 428.003 230.136C426.919 230.976 425.439 231.396 423.564 231.396C419.941 231.396 417.9 229.901 417.441 226.913ZM432.295 223.412C432.295 220.756 432.974 218.744 434.331 217.377C435.688 216.02 437.432 215.341 439.561 215.341C441.621 215.341 443.159 215.941 444.175 217.143C445.19 218.344 445.703 219.955 445.713 221.977C445.713 222.318 445.703 222.655 445.684 222.987C445.664 223.31 445.63 223.632 445.581 223.954H435.21C435.269 225.79 435.679 227.108 436.44 227.909C437.183 228.69 438.223 229.081 439.561 229.081C441.543 229.081 442.754 228.173 443.193 226.356L445.581 226.884C445.278 228.368 444.59 229.481 443.516 230.224C442.412 230.985 441.074 231.366 439.502 231.366L439.414 231.454C438.096 231.454 436.953 231.244 435.986 230.824C435.049 230.404 434.321 229.804 433.804 229.022C433.267 228.202 432.886 227.353 432.661 226.474C432.417 225.556 432.295 224.535 432.295 223.412ZM435.21 221.845L442.827 221.815C442.827 218.954 441.665 217.523 439.341 217.523C438.218 217.523 437.271 217.885 436.499 218.607C435.737 219.33 435.308 220.409 435.21 221.845ZM449.756 231.029V215.604H452.041L452.246 217.831C453.506 216.132 455.215 215.282 457.373 215.282H457.651H457.915V218.124C457.739 218.104 457.583 218.09 457.446 218.08C457.319 218.07 457.217 218.065 457.139 218.065C456.279 218.065 455.43 218.227 454.59 218.549C453.73 218.871 453.027 219.291 452.48 219.809V231.029H449.756ZM460.142 210.624V210.565C460.142 209.267 460.781 208.617 462.061 208.617C462.676 208.617 463.154 208.788 463.496 209.13C463.838 209.472 464.009 209.95 464.009 210.565C464.009 211.161 463.838 211.654 463.496 212.045C463.154 212.406 462.676 212.587 462.061 212.587C461.445 212.587 460.967 212.416 460.625 212.074C460.303 211.752 460.142 211.269 460.142 210.624ZM460.654 231V215.575H463.379V231H460.654ZM467.129 223.354C467.129 220.834 467.778 218.842 469.077 217.377C470.356 215.941 472.217 215.224 474.658 215.224C477.021 215.224 478.765 215.912 479.888 217.289C481.011 218.686 481.567 220.585 481.558 222.987C481.558 228.563 479.131 231.356 474.277 231.366H474.248C469.512 231.366 467.139 228.695 467.129 223.354ZM469.985 223.236C469.985 225.277 470.347 226.776 471.069 227.733C471.792 228.69 472.9 229.169 474.395 229.169L474.424 229.198C477.285 229.198 478.716 227.201 478.716 223.207C478.716 221.127 478.374 219.652 477.69 218.783C477.007 217.924 475.957 217.494 474.541 217.494C471.504 217.494 469.985 219.408 469.985 223.236ZM485.381 215.517H488.105V225.565C488.105 226.688 488.306 227.528 488.706 228.085C489.087 228.622 489.829 228.896 490.933 228.905C491.714 228.905 492.534 228.705 493.394 228.305C494.214 227.924 494.883 227.504 495.4 227.045V215.575H498.125V231H495.752L495.576 229.228C493.896 230.604 492.075 231.293 490.112 231.293C486.968 231.293 485.4 229.545 485.41 226.049L485.381 215.517ZM501.611 226.913L504.043 226.254C504.287 227.25 504.678 228.002 505.215 228.51C505.732 229.008 506.621 229.257 507.881 229.257C510.02 229.257 511.089 228.52 511.089 227.045C511.089 226.264 510.84 225.722 510.342 225.419C509.824 225.116 508.955 224.848 507.734 224.613C507.451 224.574 507.217 224.535 507.031 224.496C506.855 224.447 506.719 224.403 506.621 224.364C506.523 224.325 506.382 224.286 506.196 224.247C506.021 224.208 505.811 224.149 505.566 224.071C505.322 223.993 505.112 223.92 504.937 223.852C504.761 223.773 504.609 223.705 504.482 223.646C504.238 223.529 503.94 223.349 503.589 223.104C503.228 222.86 502.969 222.602 502.812 222.328C502.656 222.025 502.515 221.674 502.388 221.273C502.271 220.854 502.212 220.395 502.212 219.896C502.212 218.412 502.749 217.265 503.823 216.454C504.888 215.653 506.25 215.253 507.91 215.253V215.282C509.648 215.282 510.957 215.663 511.836 216.425C512.695 217.187 513.267 218.295 513.55 219.75L511.089 220.292C510.864 219.315 510.532 218.593 510.093 218.124C509.634 217.665 508.887 217.436 507.852 217.436C505.869 217.436 504.878 218.158 504.878 219.604C504.878 220.365 505.146 220.902 505.684 221.215C506.221 221.557 507.104 221.859 508.335 222.123C509.077 222.279 509.644 222.396 510.034 222.475C510.376 222.553 510.859 222.724 511.484 222.987C512.041 223.231 512.461 223.49 512.744 223.764C513.008 224.047 513.247 224.438 513.462 224.936C513.677 225.453 513.784 226.01 513.784 226.605C513.784 226.635 513.784 226.659 513.784 226.679C513.784 228.144 513.247 229.296 512.173 230.136C511.089 230.976 509.609 231.396 507.734 231.396C504.111 231.396 502.07 229.901 501.611 226.913ZM516.436 229.345C516.436 228.007 517.114 227.338 518.472 227.338C519.829 227.338 520.513 228.007 520.522 229.345C520.522 230.683 519.839 231.356 518.472 231.366C517.114 231.366 516.436 230.692 516.436 229.345ZM230.513 247.276H233.384L237.104 265.763H237.134L241.938 247.276H245L249.805 265.997H249.834L253.394 247.276H256.162L251.577 269H248.062L243.447 251.144H243.403L238.672 269H235.244L230.513 247.276ZM257.568 261.412C257.568 258.756 258.247 256.744 259.604 255.377C260.962 254.02 262.705 253.341 264.834 253.341C266.895 253.341 268.433 253.941 269.448 255.143C270.464 256.344 270.977 257.955 270.986 259.977C270.986 260.318 270.977 260.655 270.957 260.987C270.938 261.31 270.903 261.632 270.854 261.954H260.483C260.542 263.79 260.952 265.108 261.714 265.909C262.456 266.69 263.496 267.081 264.834 267.081C266.816 267.081 268.027 266.173 268.467 264.356L270.854 264.884C270.552 266.368 269.863 267.481 268.789 268.224C267.686 268.985 266.348 269.366 264.775 269.366L264.688 269.454C263.369 269.454 262.227 269.244 261.26 268.824C260.322 268.404 259.595 267.804 259.077 267.022C258.54 266.202 258.159 265.353 257.935 264.474C257.69 263.556 257.568 262.535 257.568 261.412ZM260.483 259.845L268.101 259.815C268.101 256.954 266.938 255.523 264.614 255.523C263.491 255.523 262.544 255.885 261.772 256.607C261.011 257.33 260.581 258.409 260.483 259.845ZM281.387 269V253.575H283.789L283.936 255.406C285.732 253.971 287.583 253.253 289.487 253.253C291.108 253.253 292.31 253.692 293.091 254.571C293.872 255.45 294.258 256.769 294.248 258.526L294.16 269H291.436V258.951C291.436 257.809 291.216 256.979 290.776 256.461C290.317 255.924 289.585 255.655 288.579 255.655C287.798 255.655 286.978 255.855 286.118 256.256C285.298 256.637 284.629 257.057 284.111 257.516V269H281.387ZM297.822 261.412C297.822 258.756 298.501 256.744 299.858 255.377C301.216 254.02 302.959 253.341 305.088 253.341C307.148 253.341 308.687 253.941 309.702 255.143C310.718 256.344 311.23 257.955 311.24 259.977C311.24 260.318 311.23 260.655 311.211 260.987C311.191 261.31 311.157 261.632 311.108 261.954H300.737C300.796 263.79 301.206 265.108 301.968 265.909C302.71 266.69 303.75 267.081 305.088 267.081C307.07 267.081 308.281 266.173 308.721 264.356L311.108 264.884C310.806 266.368 310.117 267.481 309.043 268.224C307.939 268.985 306.602 269.366 305.029 269.366L304.941 269.454C303.623 269.454 302.48 269.244 301.514 268.824C300.576 268.404 299.849 267.804 299.331 267.022C298.794 266.202 298.413 265.353 298.188 264.474C297.944 263.556 297.822 262.535 297.822 261.412ZM300.737 259.845L308.354 259.815C308.354 256.954 307.192 255.523 304.868 255.523C303.745 255.523 302.798 255.885 302.026 256.607C301.265 257.33 300.835 258.409 300.737 259.845ZM314.199 261.412C314.199 258.756 314.878 256.744 316.235 255.377C317.593 254.02 319.336 253.341 321.465 253.341C323.525 253.341 325.063 253.941 326.079 255.143C327.095 256.344 327.607 257.955 327.617 259.977C327.617 260.318 327.607 260.655 327.588 260.987C327.568 261.31 327.534 261.632 327.485 261.954H317.114C317.173 263.79 317.583 265.108 318.345 265.909C319.087 266.69 320.127 267.081 321.465 267.081C323.447 267.081 324.658 266.173 325.098 264.356L327.485 264.884C327.183 266.368 326.494 267.481 325.42 268.224C324.316 268.985 322.979 269.366 321.406 269.366L321.318 269.454C320 269.454 318.857 269.244 317.891 268.824C316.953 268.404 316.226 267.804 315.708 267.022C315.171 266.202 314.79 265.353 314.565 264.474C314.321 263.556 314.199 262.535 314.199 261.412ZM317.114 259.845L324.731 259.815C324.731 256.954 323.569 255.523 321.245 255.523C320.122 255.523 319.175 255.885 318.403 256.607C317.642 257.33 317.212 258.409 317.114 259.845ZM330.693 261.559C330.693 258.697 331.304 256.598 332.524 255.26C333.745 253.922 335.308 253.253 337.212 253.253C338.892 253.253 340.332 253.731 341.533 254.688V246.354H344.199V269.029H341.914L341.709 267.374L341.68 267.345C340.156 268.702 338.457 269.386 336.582 269.396C334.746 269.396 333.306 268.766 332.261 267.506C331.226 266.266 330.703 264.283 330.693 261.559ZM333.491 261.559C333.491 263.482 333.799 264.884 334.414 265.763C335.029 266.661 336.021 267.11 337.388 267.11C338.872 267.11 340.244 266.48 341.504 265.221L341.475 256.974C340.273 256.075 338.96 255.626 337.534 255.626C334.839 255.626 333.491 257.604 333.491 261.559ZM353.472 255.802V253.604H355.845V249.137L358.569 248.727V253.604H362.832V255.802H358.569V264.62C358.569 265.499 358.721 266.129 359.023 266.51C359.326 266.91 359.917 267.11 360.796 267.11C361.675 267.11 362.573 266.861 363.491 266.363L363.975 268.399C363.594 268.663 363.032 268.902 362.29 269.117C361.606 269.312 360.908 269.415 360.195 269.425C358.73 269.425 357.637 269.063 356.914 268.341C356.191 267.618 355.835 266.5 355.845 264.986V255.802H353.472ZM365.439 261.354C365.439 258.834 366.089 256.842 367.388 255.377C368.667 253.941 370.527 253.224 372.969 253.224C375.332 253.224 377.075 253.912 378.198 255.289C379.321 256.686 379.878 258.585 379.868 260.987C379.868 266.563 377.441 269.356 372.588 269.366H372.559C367.822 269.366 365.449 266.695 365.439 261.354ZM368.296 261.236C368.296 263.277 368.657 264.776 369.38 265.733C370.103 266.69 371.211 267.169 372.705 267.169L372.734 267.198C375.596 267.198 377.026 265.201 377.026 261.207C377.026 259.127 376.685 257.652 376.001 256.783C375.317 255.924 374.268 255.494 372.852 255.494C369.814 255.494 368.296 257.408 368.296 261.236ZM390.195 275.357V253.604H392.568L392.715 255.377C394.258 253.98 396.035 253.282 398.047 253.282C401.807 253.282 403.687 255.841 403.687 260.958C403.687 263.8 403.091 265.909 401.899 267.286C400.698 268.663 399.155 269.356 397.271 269.366C395.649 269.366 394.17 268.863 392.832 267.857V275.357H390.195ZM392.92 265.587C394.238 266.603 395.562 267.11 396.89 267.11C399.565 267.11 400.903 265.06 400.903 260.958C400.903 259.054 400.605 257.687 400.01 256.856C399.414 256.017 398.481 255.597 397.212 255.597C396.411 255.597 395.63 255.782 394.868 256.153C394.067 256.554 393.418 257.008 392.92 257.516V265.587ZM407.656 269.029V253.604H409.941L410.146 255.831C411.406 254.132 413.115 253.282 415.273 253.282H415.552H415.815V256.124C415.64 256.104 415.483 256.09 415.347 256.08C415.22 256.07 415.117 256.065 415.039 256.065C414.18 256.065 413.33 256.227 412.49 256.549C411.631 256.871 410.928 257.291 410.381 257.809V269.029H407.656ZM417.119 261.354C417.119 258.834 417.769 256.842 419.067 255.377C420.347 253.941 422.207 253.224 424.648 253.224C427.012 253.224 428.755 253.912 429.878 255.289C431.001 256.686 431.558 258.585 431.548 260.987C431.548 266.563 429.121 269.356 424.268 269.366H424.238C419.502 269.366 417.129 266.695 417.119 261.354ZM419.976 261.236C419.976 263.277 420.337 264.776 421.06 265.733C421.782 266.69 422.891 267.169 424.385 267.169L424.414 267.198C427.275 267.198 428.706 265.201 428.706 261.207C428.706 259.127 428.364 257.652 427.681 256.783C426.997 255.924 425.947 255.494 424.531 255.494C421.494 255.494 419.976 257.408 419.976 261.236ZM433.276 255.802V253.604H435.649V249.137L438.374 248.727V253.604H442.637V255.802H438.374V264.62C438.374 265.499 438.525 266.129 438.828 266.51C439.131 266.91 439.722 267.11 440.601 267.11C441.479 267.11 442.378 266.861 443.296 266.363L443.779 268.399C443.398 268.663 442.837 268.902 442.095 269.117C441.411 269.312 440.713 269.415 440 269.425C438.535 269.425 437.441 269.063 436.719 268.341C435.996 267.618 435.64 266.5 435.649 264.986V255.802H433.276ZM445.186 261.412C445.186 258.756 445.864 256.744 447.222 255.377C448.579 254.02 450.322 253.341 452.451 253.341C454.512 253.341 456.05 253.941 457.065 255.143C458.081 256.344 458.594 257.955 458.604 259.977C458.604 260.318 458.594 260.655 458.574 260.987C458.555 261.31 458.521 261.632 458.472 261.954H448.101C448.159 263.79 448.569 265.108 449.331 265.909C450.073 266.69 451.113 267.081 452.451 267.081C454.434 267.081 455.645 266.173 456.084 264.356L458.472 264.884C458.169 266.368 457.48 267.481 456.406 268.224C455.303 268.985 453.965 269.366 452.393 269.366L452.305 269.454C450.986 269.454 449.844 269.244 448.877 268.824C447.939 268.404 447.212 267.804 446.694 267.022C446.157 266.202 445.776 265.353 445.552 264.474C445.308 263.556 445.186 262.535 445.186 261.412ZM448.101 259.845L455.718 259.815C455.718 256.954 454.556 255.523 452.231 255.523C451.108 255.523 450.161 255.885 449.39 256.607C448.628 257.33 448.198 258.409 448.101 259.845ZM461.621 261.529C461.621 258.873 462.271 256.832 463.569 255.406C464.849 254.01 466.67 253.312 469.033 253.312C470.791 253.312 472.202 253.761 473.267 254.659C474.331 255.558 474.902 256.886 474.98 258.644L472.358 259.01C472.114 256.705 470.967 255.553 468.916 255.553C467.637 255.553 466.577 255.978 465.737 256.827C464.897 257.667 464.478 259.093 464.478 261.104C464.478 265.089 465.918 267.081 468.799 267.081C470.977 267.081 472.266 265.982 472.666 263.785L475.068 264.283C474.824 265.982 474.121 267.257 472.959 268.106C471.777 268.946 470.371 269.366 468.74 269.366L468.711 269.483C466.27 269.483 464.478 268.771 463.335 267.345C462.192 265.948 461.621 264.01 461.621 261.529ZM476.87 255.802V253.604H479.243V249.137L481.968 248.727V253.604H486.23V255.802H481.968V264.62C481.968 265.499 482.119 266.129 482.422 266.51C482.725 266.91 483.315 267.11 484.194 267.11C485.073 267.11 485.972 266.861 486.89 266.363L487.373 268.399C486.992 268.663 486.431 268.902 485.688 269.117C485.005 269.312 484.307 269.415 483.594 269.425C482.129 269.425 481.035 269.063 480.312 268.341C479.59 267.618 479.233 266.5 479.243 264.986V255.802H476.87ZM494.653 255.802V253.604H497.026V249.137L499.751 248.727V253.604H504.014V255.802H499.751V264.62C499.751 265.499 499.902 266.129 500.205 266.51C500.508 266.91 501.099 267.11 501.978 267.11C502.856 267.11 503.755 266.861 504.673 266.363L505.156 268.399C504.775 268.663 504.214 268.902 503.472 269.117C502.788 269.312 502.09 269.415 501.377 269.425C499.912 269.425 498.818 269.063 498.096 268.341C497.373 267.618 497.017 266.5 497.026 264.986V255.802H494.653ZM507.91 269V246.354H510.605V255.318C512.363 253.941 514.175 253.253 516.04 253.253C519.185 253.253 520.752 255.011 520.742 258.526L520.684 269H517.959V258.951C517.959 257.809 517.739 256.979 517.3 256.461C516.841 255.924 516.108 255.655 515.103 255.655C514.321 255.655 513.501 255.855 512.642 256.256C511.821 256.637 511.152 257.057 510.635 257.516V269H507.91ZM524.316 261.412C524.316 258.756 524.995 256.744 526.353 255.377C527.71 254.02 529.453 253.341 531.582 253.341C533.643 253.341 535.181 253.941 536.196 255.143C537.212 256.344 537.725 257.955 537.734 259.977C537.734 260.318 537.725 260.655 537.705 260.987C537.686 261.31 537.651 261.632 537.603 261.954H527.231C527.29 263.79 527.7 265.108 528.462 265.909C529.204 266.69 530.244 267.081 531.582 267.081C533.564 267.081 534.775 266.173 535.215 264.356L537.603 264.884C537.3 266.368 536.611 267.481 535.537 268.224C534.434 268.985 533.096 269.366 531.523 269.366L531.436 269.454C530.117 269.454 528.975 269.244 528.008 268.824C527.07 268.404 526.343 267.804 525.825 267.022C525.288 266.202 524.907 265.353 524.683 264.474C524.438 263.556 524.316 262.535 524.316 261.412ZM527.231 259.845L534.849 259.815C534.849 256.954 533.687 255.523 531.362 255.523C530.239 255.523 529.292 255.885 528.521 256.607C527.759 257.33 527.329 258.409 527.231 259.845ZM541.719 268.912V253.487H544.062L544.209 255.23C546.006 253.854 547.754 253.165 549.453 253.165C551.436 253.165 552.725 253.873 553.32 255.289C555.098 253.873 556.87 253.165 558.638 253.165C560.239 253.165 561.367 253.595 562.021 254.454C562.686 255.333 563.018 256.651 563.018 258.409V268.912H560.293V258.805C560.293 257.682 560.132 256.871 559.81 256.373C559.468 255.855 558.838 255.597 557.92 255.597C557.236 255.597 556.504 255.772 555.723 256.124C554.902 256.505 554.253 256.905 553.774 257.325C553.794 257.569 553.809 257.789 553.818 257.984C553.828 258.17 553.833 258.331 553.833 258.468V268.971H551.108V258.863C551.108 257.74 550.947 256.93 550.625 256.432C550.283 255.914 549.653 255.655 548.735 255.655C547.974 255.655 547.202 255.846 546.421 256.227C545.581 256.627 544.932 257.047 544.473 257.486L544.443 268.912H541.719ZM566.65 267.345C566.65 266.007 567.329 265.338 568.687 265.338C570.044 265.338 570.728 266.007 570.737 267.345C570.737 268.683 570.054 269.356 568.687 269.366C567.329 269.366 566.65 268.692 566.65 267.345Z" fill="#2F2F2F"/>
<rect x="230" y="302" width="800" height="61" rx="8" fill="white"/>
<path opacity="0.5" d="M246.264 326.119V324.518H256.82V326.119H252.484V339H250.639V326.119H246.264ZM255.277 343.082L255.492 341.656C256.052 341.871 256.599 341.979 257.133 341.979C257.96 341.979 258.572 341.445 258.969 340.377L259.457 339.117L255.648 328.736H257.67L260.395 336.9H260.414L263.236 328.736H265.092L260.648 340.523C260.219 341.617 259.753 342.376 259.252 342.799C258.731 343.242 258.064 343.463 257.25 343.463C256.475 343.463 255.818 343.336 255.277 343.082ZM266.801 343.238V328.736H268.383L268.48 329.918C269.509 328.987 270.694 328.521 272.035 328.521C274.542 328.521 275.795 330.227 275.795 333.639C275.795 335.533 275.398 336.939 274.604 337.857C273.803 338.775 272.774 339.238 271.518 339.244C270.437 339.244 269.451 338.909 268.559 338.238V343.238H266.801ZM268.617 336.725C269.496 337.402 270.378 337.74 271.264 337.74C273.048 337.74 273.939 336.373 273.939 333.639C273.939 332.369 273.741 331.458 273.344 330.904C272.947 330.344 272.325 330.064 271.479 330.064C270.945 330.064 270.424 330.188 269.916 330.436C269.382 330.702 268.949 331.005 268.617 331.344V336.725ZM277.719 333.941C277.719 332.171 278.171 330.829 279.076 329.918C279.981 329.013 281.143 328.561 282.562 328.561C283.936 328.561 284.962 328.961 285.639 329.762C286.316 330.562 286.658 331.637 286.664 332.984C286.664 333.212 286.658 333.437 286.645 333.658C286.632 333.873 286.609 334.088 286.576 334.303H279.662C279.701 335.527 279.975 336.406 280.482 336.939C280.977 337.46 281.671 337.721 282.562 337.721C283.884 337.721 284.691 337.115 284.984 335.904L286.576 336.256C286.374 337.245 285.915 337.988 285.199 338.482C284.464 338.99 283.572 339.244 282.523 339.244L282.465 339.303C281.586 339.303 280.824 339.163 280.18 338.883C279.555 338.603 279.07 338.202 278.725 337.682C278.367 337.135 278.113 336.568 277.963 335.982C277.8 335.37 277.719 334.69 277.719 333.941ZM279.662 332.896L284.74 332.877C284.74 330.969 283.965 330.016 282.416 330.016C281.667 330.016 281.036 330.257 280.521 330.738C280.014 331.22 279.727 331.939 279.662 332.896ZM291.801 343.082L292.016 341.656C292.576 341.871 293.122 341.979 293.656 341.979C294.483 341.979 295.095 341.445 295.492 340.377L295.98 339.117L292.172 328.736H294.193L296.918 336.9H296.938L299.76 328.736H301.615L297.172 340.523C296.742 341.617 296.277 342.376 295.775 342.799C295.255 343.242 294.587 343.463 293.773 343.463C292.999 343.463 292.341 343.336 291.801 343.082ZM302.25 333.902C302.25 332.223 302.683 330.895 303.549 329.918C304.402 328.961 305.642 328.482 307.27 328.482C308.845 328.482 310.007 328.941 310.756 329.859C311.505 330.79 311.876 332.057 311.869 333.658C311.869 337.376 310.251 339.238 307.016 339.244H306.996C303.839 339.244 302.257 337.464 302.25 333.902ZM304.154 333.824C304.154 335.185 304.395 336.184 304.877 336.822C305.359 337.46 306.098 337.779 307.094 337.779L307.113 337.799C309.021 337.799 309.975 336.467 309.975 333.805C309.975 332.418 309.747 331.435 309.291 330.855C308.835 330.283 308.135 329.996 307.191 329.996C305.167 329.996 304.154 331.272 304.154 333.824ZM314.418 328.678H316.234V335.377C316.234 336.126 316.368 336.686 316.635 337.057C316.889 337.415 317.383 337.597 318.119 337.604C318.64 337.604 319.187 337.47 319.76 337.203C320.307 336.949 320.753 336.669 321.098 336.363V328.717H322.914V339H321.332L321.215 337.818C320.095 338.736 318.881 339.195 317.572 339.195C315.476 339.195 314.431 338.03 314.438 335.699L314.418 328.678ZM326.117 339.02V328.736H327.641L327.777 330.221C328.617 329.088 329.757 328.521 331.195 328.521H331.381H331.557V330.416C331.439 330.403 331.335 330.393 331.244 330.387C331.16 330.38 331.091 330.377 331.039 330.377C330.466 330.377 329.9 330.484 329.34 330.699C328.767 330.914 328.298 331.194 327.934 331.539V339.02H326.117ZM337.143 336.5C337.143 334.169 338.913 333.004 342.455 333.004C342.559 333.004 342.689 333.007 342.846 333.014C343.002 333.02 343.174 333.03 343.363 333.043V332.037C343.363 331.347 343.223 330.829 342.943 330.484C342.663 330.139 342.13 329.964 341.342 329.957C340.652 329.957 340.144 330.097 339.818 330.377C339.499 330.657 339.278 331.083 339.154 331.656L337.562 331.363C337.725 330.387 338.126 329.674 338.764 329.225C339.415 328.756 340.326 328.521 341.498 328.521C342.781 328.521 343.715 328.795 344.301 329.342C344.887 329.889 345.18 330.787 345.18 332.037V337.057C345.18 337.35 345.219 337.558 345.297 337.682C345.375 337.799 345.541 337.857 345.795 337.857C345.925 337.857 346.127 337.818 346.4 337.74L346.479 338.883C346.081 339.091 345.626 339.195 345.111 339.195C345.098 339.195 345.082 339.195 345.062 339.195C344.132 339.195 343.604 338.792 343.48 337.984C342.641 338.824 341.54 339.244 340.18 339.244C339.581 339.244 339.06 339.15 338.617 338.961C338.188 338.772 337.875 338.531 337.68 338.238C337.478 337.945 337.338 337.652 337.26 337.359C337.182 337.079 337.143 336.793 337.143 336.5ZM339.018 336.178C339.018 337.271 339.59 337.818 340.736 337.818C341.231 337.818 341.726 337.704 342.221 337.477C342.702 337.249 343.096 336.975 343.402 336.656L343.363 334.303C343.083 334.264 342.735 334.244 342.318 334.244C341.876 334.244 341.495 334.264 341.176 334.303C340.857 334.342 340.518 334.42 340.16 334.537C339.802 334.654 339.522 334.856 339.32 335.143C339.118 335.423 339.018 335.768 339.018 336.178ZM348.539 339V328.717H350.141L350.238 329.938C351.436 328.98 352.67 328.502 353.939 328.502C355.02 328.502 355.821 328.795 356.342 329.381C356.863 329.967 357.12 330.846 357.113 332.018L357.055 339H355.238V332.301C355.238 331.539 355.092 330.986 354.799 330.641C354.493 330.283 354.005 330.104 353.334 330.104C352.813 330.104 352.266 330.237 351.693 330.504C351.146 330.758 350.701 331.038 350.355 331.344V339H348.539ZM359.34 336.275L360.961 335.836C361.124 336.5 361.384 337.001 361.742 337.34C362.087 337.672 362.68 337.838 363.52 337.838C364.945 337.838 365.658 337.346 365.658 336.363C365.658 335.842 365.492 335.481 365.16 335.279C364.815 335.077 364.236 334.898 363.422 334.742C363.233 334.716 363.077 334.69 362.953 334.664C362.836 334.632 362.745 334.602 362.68 334.576C362.615 334.55 362.52 334.524 362.396 334.498C362.279 334.472 362.139 334.433 361.977 334.381C361.814 334.329 361.674 334.28 361.557 334.234C361.439 334.182 361.339 334.137 361.254 334.098C361.091 334.02 360.893 333.899 360.658 333.736C360.417 333.574 360.245 333.401 360.141 333.219C360.036 333.017 359.942 332.783 359.857 332.516C359.779 332.236 359.74 331.93 359.74 331.598C359.74 330.608 360.098 329.843 360.814 329.303C361.524 328.769 362.432 328.502 363.539 328.502V328.521C364.698 328.521 365.57 328.775 366.156 329.283C366.729 329.791 367.11 330.53 367.299 331.5L365.658 331.861C365.508 331.21 365.287 330.729 364.994 330.416C364.688 330.11 364.19 329.957 363.5 329.957C362.178 329.957 361.518 330.439 361.518 331.402C361.518 331.91 361.697 332.268 362.055 332.477C362.413 332.704 363.002 332.906 363.822 333.082C364.317 333.186 364.695 333.264 364.955 333.316C365.183 333.368 365.505 333.482 365.922 333.658C366.293 333.821 366.573 333.993 366.762 334.176C366.938 334.365 367.097 334.625 367.24 334.957C367.383 335.302 367.455 335.673 367.455 336.07C367.455 336.09 367.455 336.106 367.455 336.119C367.455 337.096 367.097 337.864 366.381 338.424C365.658 338.984 364.672 339.264 363.422 339.264C361.007 339.264 359.646 338.268 359.34 336.275ZM368.246 328.717H370.092L372.592 337.076L374.848 328.717H376.732L378.969 337.037H378.988L381.43 328.717H383.188L379.984 339H377.865L375.746 330.904H375.727L373.627 339H371.469L368.246 328.717ZM384.027 333.941C384.027 332.171 384.48 330.829 385.385 329.918C386.29 329.013 387.452 328.561 388.871 328.561C390.245 328.561 391.27 328.961 391.947 329.762C392.624 330.562 392.966 331.637 392.973 332.984C392.973 333.212 392.966 333.437 392.953 333.658C392.94 333.873 392.917 334.088 392.885 334.303H385.971C386.01 335.527 386.283 336.406 386.791 336.939C387.286 337.46 387.979 337.721 388.871 337.721C390.193 337.721 391 337.115 391.293 335.904L392.885 336.256C392.683 337.245 392.224 337.988 391.508 338.482C390.772 338.99 389.88 339.244 388.832 339.244L388.773 339.303C387.895 339.303 387.133 339.163 386.488 338.883C385.863 338.603 385.378 338.202 385.033 337.682C384.675 337.135 384.421 336.568 384.271 335.982C384.109 335.37 384.027 334.69 384.027 333.941ZM385.971 332.896L391.049 332.877C391.049 330.969 390.274 330.016 388.725 330.016C387.976 330.016 387.344 330.257 386.83 330.738C386.322 331.22 386.036 331.939 385.971 332.896ZM395.668 339.02V328.736H397.191L397.328 330.221C398.168 329.088 399.307 328.521 400.746 328.521H400.932H401.107V330.416C400.99 330.403 400.886 330.393 400.795 330.387C400.71 330.38 400.642 330.377 400.59 330.377C400.017 330.377 399.451 330.484 398.891 330.699C398.318 330.914 397.849 331.194 397.484 331.539V339.02H395.668ZM407.211 339V323.902H409.008V329.879C410.18 328.961 411.387 328.502 412.631 328.502C414.727 328.502 415.772 329.674 415.766 332.018L415.727 339H413.91V332.301C413.91 331.539 413.764 330.986 413.471 330.641C413.165 330.283 412.676 330.104 412.006 330.104C411.485 330.104 410.938 330.237 410.365 330.504C409.818 330.758 409.372 331.038 409.027 331.344V339H407.211ZM418.148 333.941C418.148 332.171 418.601 330.829 419.506 329.918C420.411 329.013 421.573 328.561 422.992 328.561C424.366 328.561 425.391 328.961 426.068 329.762C426.745 330.562 427.087 331.637 427.094 332.984C427.094 333.212 427.087 333.437 427.074 333.658C427.061 333.873 427.038 334.088 427.006 334.303H420.092C420.131 335.527 420.404 336.406 420.912 336.939C421.407 337.46 422.1 337.721 422.992 337.721C424.314 337.721 425.121 337.115 425.414 335.904L427.006 336.256C426.804 337.245 426.345 337.988 425.629 338.482C424.893 338.99 424.001 339.244 422.953 339.244L422.895 339.303C422.016 339.303 421.254 339.163 420.609 338.883C419.984 338.603 419.499 338.202 419.154 337.682C418.796 337.135 418.542 336.568 418.393 335.982C418.23 335.37 418.148 334.69 418.148 333.941ZM420.092 332.896L425.17 332.877C425.17 330.969 424.395 330.016 422.846 330.016C422.097 330.016 421.465 330.257 420.951 330.738C420.443 331.22 420.157 331.939 420.092 332.896ZM429.789 339.02V328.736H431.312L431.449 330.221C432.289 329.088 433.428 328.521 434.867 328.521H435.053H435.229V330.416C435.111 330.403 435.007 330.393 434.916 330.387C434.831 330.38 434.763 330.377 434.711 330.377C434.138 330.377 433.572 330.484 433.012 330.699C432.439 330.914 431.97 331.194 431.605 331.539V339.02H429.789ZM436.059 333.941C436.059 332.171 436.511 330.829 437.416 329.918C438.321 329.013 439.483 328.561 440.902 328.561C442.276 328.561 443.301 328.961 443.979 329.762C444.656 330.562 444.997 331.637 445.004 332.984C445.004 333.212 444.997 333.437 444.984 333.658C444.971 333.873 444.949 334.088 444.916 334.303H438.002C438.041 335.527 438.314 336.406 438.822 336.939C439.317 337.46 440.01 337.721 440.902 337.721C442.224 337.721 443.031 337.115 443.324 335.904L444.916 336.256C444.714 337.245 444.255 337.988 443.539 338.482C442.803 338.99 441.911 339.244 440.863 339.244L440.805 339.303C439.926 339.303 439.164 339.163 438.52 338.883C437.895 338.603 437.41 338.202 437.064 337.682C436.706 337.135 436.452 336.568 436.303 335.982C436.14 335.37 436.059 334.69 436.059 333.941ZM438.002 332.896L443.08 332.877C443.08 330.969 442.305 330.016 440.756 330.016C440.007 330.016 439.376 330.257 438.861 330.738C438.354 331.22 438.067 331.939 438.002 332.896ZM446.352 337.896C446.352 337.005 446.804 336.559 447.709 336.559C448.614 336.559 449.07 337.005 449.076 337.896C449.076 338.788 448.62 339.238 447.709 339.244C446.804 339.244 446.352 338.795 446.352 337.896Z" fill="black"/>
<rect x="883.5" y="387.5" width="146" height="43" rx="9.5" fill="#E0E0E0"/>
<rect x="883.5" y="387.5" width="146" height="43" rx="9.5" stroke="#CFCFCF"/>
<path d="M908.133 408.867C908.133 406.966 908.612 405.464 909.57 404.359C910.529 403.25 911.917 402.695 913.734 402.695C915.068 402.695 916.138 403.021 916.945 403.672C917.758 404.323 918.211 405.346 918.305 406.742L916.008 406.961C915.924 406.268 915.711 405.724 915.367 405.328C915.018 404.927 914.469 404.727 913.719 404.727H913.688C912.672 404.727 911.919 405.068 911.43 405.75C910.93 406.443 910.68 407.419 910.68 408.68C910.68 410.065 910.914 411.089 911.383 411.75C911.841 412.401 912.576 412.727 913.586 412.727C914.331 412.727 914.914 412.534 915.336 412.148C915.753 411.763 915.958 411.279 915.953 410.695V410.273H913.844V408.469H918.391V414.5H916.594L916.344 413.047C916.099 413.547 915.672 413.94 915.062 414.227C914.453 414.513 913.781 414.656 913.047 414.656C911.37 414.656 910.133 414.135 909.336 413.094C908.534 412.057 908.133 410.648 908.133 408.867ZM919.867 410.375C919.867 408.948 920.25 407.865 921.016 407.125C921.781 406.391 922.763 406.023 923.961 406.023C925.164 406.023 926.065 406.359 926.664 407.031C927.253 407.693 927.547 408.635 927.547 409.859C927.547 410.297 927.531 410.659 927.5 410.945H922.422C922.432 411.617 922.578 412.099 922.859 412.391C923.125 412.677 923.534 412.82 924.086 412.82C924.492 412.82 924.797 412.719 925 412.516C925.214 412.302 925.357 412.008 925.43 411.633L927.461 412.133C927.299 412.924 926.917 413.549 926.312 414.008C925.714 414.466 924.924 414.695 923.945 414.695V414.711C923.19 414.711 922.544 414.594 922.008 414.359C921.466 414.125 921.044 413.799 920.742 413.383C920.445 412.966 920.221 412.508 920.07 412.008C919.935 411.544 919.867 411.021 919.867 410.438C919.867 410.417 919.867 410.396 919.867 410.375ZM922.438 409.414L925.016 409.43C925.016 408.32 924.609 407.766 923.797 407.766C923.411 407.766 923.094 407.898 922.844 408.164C922.599 408.43 922.464 408.846 922.438 409.414ZM928.008 407.922V406.164H929.258V403.703L931.672 403.383V406.164H933.883V407.922H931.672V411.648C931.672 412.044 931.742 412.328 931.883 412.5C932.034 412.682 932.289 412.773 932.648 412.773C933.138 412.773 933.602 412.646 934.039 412.391L934.344 414.117C934.12 414.258 933.779 414.391 933.32 414.516C932.872 414.646 932.404 414.711 931.914 414.711C931.049 414.711 930.388 414.492 929.93 414.055C929.482 413.628 929.258 412.938 929.258 411.984V407.922H928.008ZM937.383 407.922V406.164H938.508V405.203C938.508 404.188 938.779 403.44 939.32 402.961C939.862 402.482 940.615 402.242 941.578 402.242C942.391 402.242 943.003 402.344 943.414 402.547L943.32 404.258C942.951 404.122 942.591 404.055 942.242 404.055C942.227 404.055 942.214 404.055 942.203 404.055C941.766 404.055 941.445 404.151 941.242 404.344C941.029 404.536 940.922 404.898 940.922 405.43V406.164H943.133V407.922H940.922V414.5H938.508V407.922H937.383ZM943.336 410.375C943.336 408.948 943.719 407.865 944.484 407.125C945.25 406.391 946.232 406.023 947.43 406.023C948.633 406.023 949.534 406.359 950.133 407.031C950.721 407.693 951.016 408.635 951.016 409.859C951.016 410.297 951 410.659 950.969 410.945H945.891C945.901 411.617 946.047 412.099 946.328 412.391C946.594 412.677 947.003 412.82 947.555 412.82C947.961 412.82 948.266 412.719 948.469 412.516C948.682 412.302 948.826 412.008 948.898 411.633L950.93 412.133C950.768 412.924 950.385 413.549 949.781 414.008C949.182 414.466 948.393 414.695 947.414 414.695V414.711C946.659 414.711 946.013 414.594 945.477 414.359C944.935 414.125 944.513 413.799 944.211 413.383C943.914 412.966 943.69 412.508 943.539 412.008C943.404 411.544 943.336 411.021 943.336 410.438C943.336 410.417 943.336 410.396 943.336 410.375ZM945.906 409.414L948.484 409.43C948.484 408.32 948.078 407.766 947.266 407.766C946.88 407.766 946.562 407.898 946.312 408.164C946.068 408.43 945.932 408.846 945.906 409.414ZM952.086 410.375C952.086 408.948 952.469 407.865 953.234 407.125C954 406.391 954.982 406.023 956.18 406.023C957.383 406.023 958.284 406.359 958.883 407.031C959.471 407.693 959.766 408.635 959.766 409.859C959.766 410.297 959.75 410.659 959.719 410.945H954.641C954.651 411.617 954.797 412.099 955.078 412.391C955.344 412.677 955.753 412.82 956.305 412.82C956.711 412.82 957.016 412.719 957.219 412.516C957.432 412.302 957.576 412.008 957.648 411.633L959.68 412.133C959.518 412.924 959.135 413.549 958.531 414.008C957.932 414.466 957.143 414.695 956.164 414.695V414.711C955.409 414.711 954.763 414.594 954.227 414.359C953.685 414.125 953.263 413.799 952.961 413.383C952.664 412.966 952.44 412.508 952.289 412.008C952.154 411.544 952.086 411.021 952.086 410.438C952.086 410.417 952.086 410.396 952.086 410.375ZM954.656 409.414L957.234 409.43C957.234 408.32 956.828 407.766 956.016 407.766C955.63 407.766 955.312 407.898 955.062 408.164C954.818 408.43 954.682 408.846 954.656 409.414ZM960.883 410.516C960.883 408.958 961.224 407.818 961.906 407.094C962.589 406.359 963.419 405.99 964.398 405.984C965.305 405.984 966.01 406.221 966.516 406.695V402.422H968.836L968.82 414.5H966.805L966.656 413.688L966.609 413.672C965.99 414.354 965.169 414.695 964.148 414.695C963.122 414.695 962.32 414.359 961.742 413.688C961.164 413.016 960.878 411.958 960.883 410.516ZM963.375 410.422C963.375 412 963.909 412.789 964.977 412.789C965.508 412.789 965.987 412.591 966.414 412.195L966.398 408.375C965.971 408.068 965.523 407.911 965.055 407.906C963.935 407.906 963.375 408.745 963.375 410.422ZM970.719 414.484V402.406H973.086V406.898C973.706 406.279 974.539 405.969 975.586 405.969C976.492 405.969 977.227 406.305 977.789 406.977C978.357 407.659 978.641 408.716 978.641 410.148C978.641 411.716 978.331 412.862 977.711 413.586C977.081 414.32 976.232 414.69 975.164 414.695C974.237 414.695 973.474 414.396 972.875 413.797H972.828L972.719 414.5L970.719 414.484ZM973.117 412.195C973.607 412.56 974.091 412.742 974.57 412.742C975.607 412.742 976.125 411.893 976.125 410.195C976.125 408.669 975.635 407.906 974.656 407.906C974.089 407.906 973.576 408.12 973.117 408.547V412.195ZM979.539 412.484C979.539 410.542 981.091 409.57 984.195 409.57H984.32V409.266C984.32 408.745 984.245 408.362 984.094 408.117C983.943 407.872 983.622 407.75 983.133 407.75C982.727 407.75 982.44 407.836 982.273 408.008C982.091 408.19 981.964 408.482 981.891 408.883L979.836 408.484C980.102 406.823 981.276 405.99 983.359 405.984C984.49 405.984 985.333 406.221 985.891 406.695C986.432 407.164 986.703 407.909 986.703 408.93L986.672 412.422C986.672 412.656 986.703 412.82 986.766 412.914C986.828 413.008 986.961 413.057 987.164 413.062C987.284 413.062 987.451 413.029 987.664 412.961L987.727 414.359C987.279 414.573 986.768 414.68 986.195 414.68C985.216 414.68 984.643 414.326 984.477 413.617C983.935 414.331 983.109 414.69 982 414.695C981.521 414.695 981.099 414.62 980.734 414.469C980.38 414.328 980.125 414.135 979.969 413.891C979.807 413.656 979.695 413.422 979.633 413.188C979.57 412.964 979.539 412.729 979.539 412.484ZM981.953 412.07C981.953 412.674 982.273 412.977 982.914 412.977C982.919 412.977 982.924 412.977 982.93 412.977C983.497 412.977 983.961 412.797 984.32 412.438V410.961H983.938C983.307 410.971 982.815 411.062 982.461 411.234C982.117 411.396 981.948 411.674 981.953 412.07ZM988.367 410.516C988.367 409.099 988.734 407.995 989.469 407.203C990.198 406.427 991.242 406.039 992.602 406.039H992.625C993.641 406.039 994.451 406.31 995.055 406.852C995.674 407.404 996.021 408.177 996.094 409.172L993.93 409.492C993.878 408.924 993.75 408.513 993.547 408.258C993.333 408.003 993.008 407.875 992.57 407.875C992.049 407.875 991.635 408.047 991.328 408.391C991.031 408.719 990.88 409.336 990.875 410.242C990.875 411.159 991.016 411.82 991.297 412.227C991.562 412.622 991.971 412.82 992.523 412.82C992.982 412.82 993.333 412.698 993.578 412.453C993.812 412.219 993.974 411.833 994.062 411.297L996.094 411.688C995.943 412.703 995.536 413.453 994.875 413.938C994.193 414.438 993.346 414.69 992.336 414.695L992.398 414.758C991.055 414.758 990.047 414.372 989.375 413.602C988.703 412.836 988.367 411.807 988.367 410.516ZM997.422 414.5V402.422H999.836V409.078L1002.59 406.164H1005.26L1002.49 409.156L1005.47 414.5H1002.8L1000.63 410.695L999.836 411.477V414.5H997.422Z" fill="#878787"/>
<path fill-rule="evenodd" clip-rule="evenodd" d="M132.3 0.850098C120.702 0.850098 111.3 10.2522 111.3 21.8501V703.3H1148.7V21.8501C1148.7 10.2521 1139.3 0.850098 1127.7 0.850098H132.3ZM135.25 19.8501C132.351 19.8501 130 22.2006 130 25.1001V681.85H1130V25.1001C1130 22.2006 1127.65 19.8501 1124.75 19.8501H135.25Z" fill="#373737"/>
<path fill-rule="evenodd" clip-rule="evenodd" d="M132.3 0.850098C120.702 0.850098 111.3 10.2522 111.3 21.8501V703.3H1148.7V21.8501C1148.7 10.2521 1139.3 0.850098 1127.7 0.850098H132.3ZM135.25 19.8501C132.351 19.8501 130 22.2006 130 25.1001V681.85H1130V25.1001C1130 22.2006 1127.65 19.8501 1124.75 19.8501H135.25Z" fill="black" fill-opacity="0.2"/>
</svg>
