<svg width="1300" height="771" viewBox="0 0 1300 771" fill="none" xmlns="http://www.w3.org/2000/svg">
<path d="M0.541667 725.292H1299.46V752.917C1299.46 762.19 1291.94 769.708 1282.67 769.708H17.3334C8.05961 769.708 0.541667 762.19 0.541667 752.917V725.292Z" fill="#E0E0E0" stroke="#D9D9D9" stroke-width="1.08333"/>
<path d="M562.792 725.292H737.208V726.917C737.208 736.19 729.69 743.708 720.417 743.708H579.583C570.31 743.708 562.792 736.19 562.792 726.917V725.292Z" fill="white" stroke="#E0E0E0" stroke-width="1.08333"/>
<path fill-rule="evenodd" clip-rule="evenodd" d="M136.5 0C124.534 0 114.833 9.7005 114.833 21.6667V724.75H1185.17V21.6667C1185.17 9.7005 1175.47 0 1163.5 0H136.5ZM139.417 20C136.425 20 134 22.4252 134 25.4167V702H1166V25.4167C1166 22.4251 1163.57 20 1160.58 20H139.417Z" fill="#373737"/>
<path fill-rule="evenodd" clip-rule="evenodd" d="M136.5 0C124.534 0 114.833 9.7005 114.833 21.6667V724.75H1185.17V21.6667C1185.17 9.7005 1175.47 0 1163.5 0H136.5ZM139.417 20C136.425 20 134 22.4252 134 25.4167V702H1166V25.4167C1166 22.4251 1163.57 20 1160.58 20H139.417Z" fill="black" fill-opacity="0.2"/>
</svg>
