<?xml version="1.0" encoding="utf-8"?>
<!-- Generator: Adobe Illustrator 21.0.2, SVG Export Plug-In . SVG Version: 6.00 Build 0)  -->
<svg version="1.1" id="Layer_1" xmlns="http://www.w3.org/2000/svg" xmlns:xlink="http://www.w3.org/1999/xlink" x="0px" y="0px"
	 viewBox="0 0 235 167.1" style="enable-background:new 0 0 235 167.1;" xml:space="preserve">
<style type="text/css">
	.st0{clip-path:url(#SVGID_2_);}
	.st1{clip-path:url(#SVGID_4_);fill:none;stroke:#027360;stroke-width:8;stroke-miterlimit:10;}
	.st2{clip-path:url(#SVGID_6_);}
	.st3{clip-path:url(#SVGID_8_);fill:none;stroke:#027360;stroke-width:8;stroke-miterlimit:10;}
	.st4{clip-path:url(#SVGID_10_);}
	.st5{clip-path:url(#SVGID_12_);fill:none;stroke:#027360;stroke-width:8;stroke-miterlimit:10;}
	.st6{clip-path:url(#SVGID_14_);}
	.st7{clip-path:url(#SVGID_16_);fill:#027360;}
	.st8{clip-path:url(#SVGID_18_);}
	.st9{clip-path:url(#SVGID_20_);fill:#027360;}
	.st10{fill:none;stroke:#027360;stroke-width:2.5;stroke-miterlimit:10;}
	.st11{clip-path:url(#SVGID_22_);}
	.st12{clip-path:url(#SVGID_24_);fill:#027360;}
	.st13{clip-path:url(#SVGID_26_);}
	.st14{clip-path:url(#SVGID_28_);fill:#027360;}
	.st15{fill:none;stroke:#FFFFFF;stroke-width:4;stroke-linecap:round;stroke-miterlimit:10;}
	.st16{fill:none;stroke:#FFFFFF;stroke-width:4;stroke-miterlimit:10;}
	.st17{fill:none;stroke:#FFFFFF;stroke-width:3;stroke-linecap:round;stroke-miterlimit:10;}
	.st18{fill:none;}
</style>
<g>
	<defs>
		<polyline id="SVGID_1_" points="-49.9,59.7 -49.9,10.1 -197.9,10.1 -197.9,127.1 -116.5,127.1 		"/>
	</defs>
	<clipPath id="SVGID_2_">
		<use xlink:href="#SVGID_1_"  style="overflow:visible;"/>
	</clipPath>
	<g class="st0">
		<defs>
			<rect id="SVGID_3_" x="-771.9" y="-203.9" width="1322" height="768"/>
		</defs>
		<clipPath id="SVGID_4_">
			<use xlink:href="#SVGID_3_"  style="overflow:visible;"/>
		</clipPath>
		<polyline class="st1" points="-49.9,59.7 -49.9,10.1 -197.9,10.1 -197.9,127.1 -116.5,127.1 		"/>
	</g>
</g>
<g>
	<defs>
		<polyline id="SVGID_5_" points="-67.9,59.8 -67.9,27.1 -176.9,27.1 -176.9,105.1 -116.4,105.1 		"/>
	</defs>
	<clipPath id="SVGID_6_">
		<use xlink:href="#SVGID_5_"  style="overflow:visible;"/>
	</clipPath>
	<g class="st2">
		<defs>
			<rect id="SVGID_7_" x="-771.9" y="-203.9" width="1322" height="768"/>
		</defs>
		<clipPath id="SVGID_8_">
			<use xlink:href="#SVGID_7_"  style="overflow:visible;"/>
		</clipPath>
		<polyline class="st3" points="-67.9,59.8 -67.9,27.1 -176.9,27.1 -176.9,105.1 -116.4,105.1 		"/>
	</g>
</g>
<g>
	<defs>
		<rect id="SVGID_9_" x="-159.9" y="89.1" width="39" height="16"/>
	</defs>
	<clipPath id="SVGID_10_">
		<use xlink:href="#SVGID_9_"  style="overflow:visible;"/>
	</clipPath>
	<g class="st4">
		<defs>
			<rect id="SVGID_11_" x="-771.9" y="-203.9" width="1322" height="768"/>
		</defs>
		<clipPath id="SVGID_12_">
			<use xlink:href="#SVGID_11_"  style="overflow:visible;"/>
		</clipPath>
		<rect x="-159.9" y="89.1" class="st5" width="39" height="16"/>
	</g>
</g>
<g>
	<defs>
		<path id="SVGID_13_" d="M-39.4,150.8c0-18.3-14-33.1-31.2-33.1c-17.2,0-31.2,14.8-31.2,33.1C-101.9,167.7-39.4,167.7-39.4,150.8z
			 M-35.4,150.8c0,21.7-70.5,21.7-70.5,0c0-20.2,15.7-36.7,35.2-36.7C-51.1,114.1-35.4,130.6-35.4,150.8z"/>
	</defs>
	<clipPath id="SVGID_14_">
		<use xlink:href="#SVGID_13_"  style="overflow:visible;"/>
	</clipPath>
	<g class="st6">
		<defs>
			<rect id="SVGID_15_" x="-771.9" y="-203.9" width="1322" height="768"/>
		</defs>
		<clipPath id="SVGID_16_">
			<use xlink:href="#SVGID_15_"  style="overflow:visible;"/>
		</clipPath>
		<rect x="-110.9" y="109.1" class="st7" width="80.5" height="63"/>
	</g>
</g>
<g>
	<defs>
		<path id="SVGID_17_" d="M-69.4,114.1c11.9,0,21.5-9.6,21.5-21.5s-9.6-21.5-21.5-21.5s-21.5,9.6-21.5,21.5S-81.3,114.1-69.4,114.1z
			 M-69.4,118.1c-14.1,0-25.5-11.4-25.5-25.5s11.4-25.5,25.5-25.5s25.5,11.4,25.5,25.5S-55.3,118.1-69.4,118.1z"/>
	</defs>
	<clipPath id="SVGID_18_">
		<use xlink:href="#SVGID_17_"  style="overflow:visible;"/>
	</clipPath>
	<g class="st8">
		<defs>
			<rect id="SVGID_19_" x="-771.9" y="-203.9" width="1322" height="768"/>
		</defs>
		<clipPath id="SVGID_20_">
			<use xlink:href="#SVGID_19_"  style="overflow:visible;"/>
		</clipPath>
		<rect x="-99.9" y="62.1" class="st9" width="61" height="61"/>
	</g>
</g>
<ellipse class="st10" cx="-78.9" cy="91.1" rx="3" ry="3"/>
<ellipse class="st10" cx="-59.9" cy="91.1" rx="3" ry="3"/>
<g>
	<defs>
		<path id="SVGID_21_" d="M-56,79.4C-55.9,79.4-55.9,79.4-56,79.4l-1.4-2.6c-3.4,2.2-7,3-11.3,2.7c-3.3-0.2-6-0.9-12.2-2.7
			c-0.4-0.1-0.4-0.1-0.7-0.2c-2.5-0.7-4.1-1.2-5.7-1.6l-0.6,2.9c1.6,0.4,3.1,0.8,5.6,1.5c0.3,0.1,0.3,0.1,0.7,0.2
			c6.4,1.9,9.2,2.5,12.8,2.8c3.7,0.3,7.1-0.2,10.2-1.7c3.3,5.6,5.1,7,11.9,10l1.2-2.8C-51.7,85.4-53,84.4-56,79.4z"/>
	</defs>
	<clipPath id="SVGID_22_">
		<use xlink:href="#SVGID_21_"  style="overflow:visible;"/>
	</clipPath>
	<g class="st11">
		<defs>
			<rect id="SVGID_23_" x="-771.9" y="-203.9" width="1322" height="768"/>
		</defs>
		<clipPath id="SVGID_24_">
			<use xlink:href="#SVGID_23_"  style="overflow:visible;"/>
		</clipPath>
		<rect x="-92.9" y="70.1" class="st12" width="52.4" height="25.7"/>
	</g>
</g>
<g>
	<defs>
		<polygon id="SVGID_25_" points="-194.7,10.6 -172.4,28.6 -174.9,31.7 -197.2,13.7 		"/>
	</defs>
	<clipPath id="SVGID_26_">
		<use xlink:href="#SVGID_25_"  style="overflow:visible;"/>
	</clipPath>
	<g class="st13">
		<defs>
			<rect id="SVGID_27_" x="-771.9" y="-203.9" width="1322" height="768"/>
		</defs>
		<clipPath id="SVGID_28_">
			<use xlink:href="#SVGID_27_"  style="overflow:visible;"/>
		</clipPath>
		<rect x="-202.2" y="5.6" class="st14" width="34.8" height="31.1"/>
	</g>
</g>
<path class="st15" d="M165.1,70.2c7.1-7,11.2-17,10.3-27.7c-0.2-2.7,0.1,1.1-8.7,7.8c-6,4.6-19.2,5.9-27.8-0.6
	c-8.7-6.6-11.3-19.5-8.1-27c4.8-11.4,8.8-11.8,7.2-11.7c-19,1.7-33.1,18.4-31.4,37.4l0.6,6.7"/>
<path class="st16" d="M67.9,117.5h-63c0-22.7,18.4-41.2,41.2-41.2c6.2,0,12.2,1.4,17.5,3.9c9.6-10,23-16.2,37.9-16.2
	c14.9,0,28.3,6.2,37.9,16.2c5.3-2.5,11.2-3.9,17.5-3.9c22.7,0,41.2,18.4,41.2,41.2h-63H67.9z"/>
<line class="st17" x1="49.7" y1="33.2" x2="45.8" y2="47.8"/>
<line class="st17" x1="55.7" y1="42.1" x2="41" y2="38.2"/>
<line class="st17" x1="225.8" y1="62.5" x2="221.9" y2="77.1"/>
<line class="st17" x1="230.5" y1="71.1" x2="217.1" y2="67.5"/>
<line class="st15" x1="41.2" y1="132.2" x2="156.7" y2="132.2"/>
<line class="st15" x1="20.9" y1="146.3" x2="129.2" y2="146.3"/>
<line class="st15" x1="98" y1="159.6" x2="157.2" y2="159.6"/>
<rect x="-549.6" y="-221.4" class="st18" width="1322" height="768"/>
</svg>
