<?xml version="1.0" encoding="UTF-8"?>
<svg width="15px" height="20px" viewBox="0 0 15 20" version="1.1" xmlns="http://www.w3.org/2000/svg" xmlns:xlink="http://www.w3.org/1999/xlink">
    <!-- Generator: Sketch 49.1 (51147) - http://www.bohemiancoding.com/sketch -->
    <title>Path 2</title>
    <desc>Created with Sketch.</desc>
    <defs></defs>
    <g id="02-Teacher-Center" stroke="none" stroke-width="1" fill="none" fill-rule="evenodd">
        <g id="02_00-Teacher-Center" transform="translate(-180.000000, -1216.000000)" fill="#C0C0C0" fill-rule="nonzero">
            <path d="M185.756624,1225 C186.328488,1225 186.689964,1225.61433 186.412242,1226.11423 L183.692847,1231.00914 L192.342722,1223 L188.756624,1223 C188.123904,1223 187.775494,1222.26477 188.176156,1221.77507 L191.673942,1217.5 L186.72015,1217.5 L182.97015,1225 L185.756624,1225 Z M181.756624,1226.5 C181.199088,1226.5 180.836466,1225.91327 181.085804,1225.41459 L185.585804,1216.41459 C185.712848,1216.1605 185.972545,1216 186.256624,1216 L193.256624,1216 C193.889344,1216 194.237754,1216.73523 193.837092,1217.22493 L190.339306,1221.5 L194.256624,1221.5 C194.938795,1221.5 195.26673,1222.33685 194.76618,1222.80032 L181.26618,1235.30032 C180.640309,1235.87983 179.68677,1235.13139 180.101006,1234.38577 L184.481988,1226.5 L181.756624,1226.5 Z" id="Path-2"></path>
        </g>
    </g>
</svg>