<?xml version="1.0" encoding="UTF-8"?>
<svg width="17px" height="20px" viewBox="0 0 17 20" version="1.1" xmlns="http://www.w3.org/2000/svg" xmlns:xlink="http://www.w3.org/1999/xlink">
    <!-- Generator: Sketch 49.1 (51147) - http://www.bohemiancoding.com/sketch -->
    <title>Group 10</title>
    <desc>Created with Sketch.</desc>
    <defs></defs>
    <g id="02-Teacher-Center" stroke="none" stroke-width="1" fill="none" fill-rule="evenodd">
        <g id="02_00-Teacher-Center" transform="translate(-177.000000, -768.000000)" fill="#C0C0C0" fill-rule="nonzero">
            <g id="Group-10" transform="translate(177.000000, 768.000000)">
                <path d="M4.25,11.35 C3.91862915,11.35 3.65,11.0813708 3.65,10.75 C3.65,10.4186292 3.91862915,10.15 4.25,10.15 L12.25,10.15 C12.5813708,10.15 12.85,10.4186292 12.85,10.75 C12.85,11.0813708 12.5813708,11.35 12.25,11.35 L4.25,11.35 Z" id="Line"></path>
                <path d="M4.25,14.35 C3.91862915,14.35 3.65,14.0813708 3.65,13.75 C3.65,13.4186292 3.91862915,13.15 4.25,13.15 L12.25,13.15 C12.5813708,13.15 12.85,13.4186292 12.85,13.75 C12.85,14.0813708 12.5813708,14.35 12.25,14.35 L4.25,14.35 Z" id="Line"></path>
                <path d="M8.35730982,0 C8.79902972,0 9.2244096,0.167042498 9.5480991,0.467611253 L15.9407909,6.40368083 C16.2973832,6.73480223 16.5000016,7.19944911 16.5000016,7.68606958 L16.5000016,17.7569431 C16.5000016,18.7234414 15.7164999,19.5069431 14.7500016,19.5069431 L1.75,19.5069431 C0.783501688,19.5069431 0,18.7234414 0,17.7569431 L0,1.75 C0,0.783501688 0.783501688,0 1.75,0 L8.35730982,0 Z M8.35730982,1.5 L1.75,1.5 C1.61192881,1.5 1.5,1.61192881 1.5,1.75 L1.5,17.7569431 C1.5,17.8950143 1.61192881,18.0069431 1.75,18.0069431 L14.7500016,18.0069431 C14.8880728,18.0069431 15.0000016,17.8950143 15.0000016,17.7569431 L15.0000016,7.68606958 C15.0000016,7.61655237 14.9710561,7.55017424 14.9201144,7.50287119 L8.52742258,1.56680161 C8.48118122,1.52386321 8.42041266,1.5 8.35730982,1.5 Z" id="Path-5"></path>
                <path d="M8,0.75 L9.5,0.75 L9.5,6.25 C9.5,6.38807119 9.61192881,6.5 9.75,6.5 L15.75,6.5 L15.75,8 L9.75,8 C8.78350169,8 8,7.21649831 8,6.25 L8,0.75 Z" id="Path-6"></path>
            </g>
        </g>
    </g>
</svg>