<?xml version="1.0" encoding="UTF-8"?>
<svg width="16px" height="20px" viewBox="0 0 16 20" version="1.1" xmlns="http://www.w3.org/2000/svg" xmlns:xlink="http://www.w3.org/1999/xlink">
    <!-- Generator: Sketch 49.1 (51147) - http://www.bohemiancoding.com/sketch -->
    <title>Group 14</title>
    <desc>Created with Sketch.</desc>
    <defs></defs>
    <g id="02-Teacher-Center" stroke="none" stroke-width="1" fill="none" fill-rule="evenodd">
        <g id="02_00-Teacher-Center" transform="translate(-177.000000, -315.000000)" fill="#C0C0C0" fill-rule="nonzero">
            <g id="Group-14" transform="translate(177.000000, 315.000000)">
                <g id="icon-clipboard">
                    <g id="Group">
                        <path d="M3.56347439,5.74610245 L12.1158129,5.74610245 C12.0400891,4.85523385 11.6837416,4.17817372 10.8730512,3.95991091 C10.8552339,3.95545657 10.8329621,3.94654788 10.8151448,3.94209354 C10.2806236,3.79064588 9.88864143,3.60801782 9.88864143,3.02004454 L9.88864143,2.10244989 C9.88864143,0.966592428 8.97550111,0.0400890869 7.83964365,0.0400890869 C6.70378619,0.0400890869 5.79064588,0.962138085 5.79064588,2.10244989 L5.79064588,3.02004454 C5.79064588,3.60356347 5.3986637,3.78619154 4.86414254,3.9376392 C4.84632517,3.94209354 4.82405345,3.95545657 4.80178174,3.95991091 C3.99109131,4.17817372 3.6481069,4.85523385 3.56347439,5.74610245 Z M7.83964365,1.48775056 C8.17817372,1.48775056 8.45434298,1.76391982 8.45434298,2.10244989 C8.45434298,2.4454343 8.17817372,2.71714922 7.83964365,2.71714922 C7.50111359,2.71714922 7.22494432,2.44097996 7.22494432,2.10244989 C7.22494432,1.76391982 7.50111359,1.48775056 7.83964365,1.48775056 Z" id="Shape"></path>
                        <path d="M14.4587973,1.42538976 L11.1804009,1.42538976 L11.1804009,2.07126949 C11.1804009,2.54342984 11.5679287,2.89532294 12.0267261,2.89532294 L13.6837416,2.89532294 C13.9821826,2.89532294 14.2227171,3.14922049 14.2360802,3.45211581 L14.2405345,18.0267261 C14.2271715,18.311804 14.0044543,18.5434298 13.7282851,18.5657016 L1.95100223,18.5701559 C1.67483296,18.5478842 1.45657016,18.3162584 1.43875278,18.0311804 L1.43429844,3.45211581 C1.44766147,3.14922049 1.69710468,2.89532294 1.99109131,2.89532294 L3.65256125,2.89532294 C4.11135857,2.89532294 4.49888641,2.54342984 4.49888641,2.07126949 L4.49888641,1.42538976 L1.22048998,1.42538976 C0.547884187,1.42538976 0,2.00890869 0,2.69933185 L0,18.752784 C0,19.4432071 0.547884187,20 1.22048998,20 L7.83964365,20 L14.4587973,20 C15.1314031,20 15.6792873,19.4432071 15.6792873,18.752784 L15.6792873,2.69933185 C15.6792873,2.00890869 15.1314031,1.42538976 14.4587973,1.42538976 Z" id="Shape"></path>
                    </g>
                    <rect id="Rectangle-path" x="2.85077951" y="7.1714922" width="4.98886414" height="1"></rect>
                    <rect id="Rectangle-path" x="2.85077951" y="11.4476615" width="7.12694878" height="1"></rect>
                    <rect id="Rectangle-path" x="2.85077951" y="15.7238307" width="5.74610245" height="1"></rect>
                    <rect id="Rectangle-path" x="2.85077951" y="13.5857461" width="7.83964365" height="1"></rect>
                    <rect id="Rectangle-path" x="2.85077951" y="9.30957684" width="9.26503341" height="1"></rect>
                </g>
            </g>
        </g>
    </g>
</svg>