<?xml version="1.0" encoding="UTF-8"?>
<svg width="22px" height="19px" viewBox="0 0 22 19" version="1.1" xmlns="http://www.w3.org/2000/svg" xmlns:xlink="http://www.w3.org/1999/xlink">
    <!-- Generator: Sketch 49 (51002) - http://www.bohemiancoding.com/sketch -->
    <title>Combined Shape</title>
    <desc>Created with Sketch.</desc>
    <defs></defs>
    <g id="00-Homepage" stroke="none" stroke-width="1" fill="none" fill-rule="evenodd">
        <g id="00_10-Nav-Bar---Signed-In---Support" transform="translate(-773.000000, -330.000000)" fill="#00C2A2" fill-rule="nonzero" stroke="#00C2A2" stroke-width="0.5">
            <path d="M793.999873,344.345483 C793.992941,346.487651 792.152093,348.22219 789.882291,348.22219 C787.608202,348.22219 785.764689,346.481094 785.764689,344.333342 C785.764689,344.218514 785.769959,344.104849 785.780282,343.99255 C785.307598,343.471976 784.727351,343.222242 784.000003,343.222242 C783.272655,343.222242 782.692408,343.471976 782.219724,343.99255 C782.230047,344.104849 782.235317,344.218514 782.235317,344.333342 C782.235317,346.481094 780.391804,348.22219 778.117715,348.22219 C775.843626,348.22219 774.000113,346.481094 774.000113,344.333342 C774.000113,344.196729 774.007572,344.061761 774.022126,343.928782 C773.997532,343.84677 773.99262,343.758166 774.011536,343.66884 L776.426943,332.262748 L779.663939,331.039883 C779.965573,330.925932 780.307904,331.064495 780.428558,331.349372 C780.549212,331.634248 780.402498,331.957562 780.100864,332.071513 L777.455572,333.070846 L775.743494,341.155666 C776.414446,340.707696 777.233535,340.444494 778.117715,340.444494 C779.801101,340.444494 781.248548,341.398554 781.886924,342.765386 C782.484793,342.332227 783.194778,342.111143 784.000003,342.111143 C784.805228,342.111143 785.515213,342.332227 786.113082,342.765386 C786.751458,341.398554 788.198904,340.444494 789.882291,340.444494 C790.724204,340.444494 791.5071,340.683133 792.159284,341.092698 L790.541185,333.069618 L787.899142,332.071513 C787.597508,331.957562 787.450794,331.634248 787.571448,331.349372 C787.692101,331.064495 788.034433,330.925932 788.336067,331.039883 L791.576312,332.263976 L793.731189,342.948583 C793.903536,343.375624 793.998496,343.838736 793.999877,344.32263 C794.000043,344.330272 794.00004,344.337891 793.999873,344.345483 Z M778.117715,347.666493 C780.066934,347.666493 781.647088,346.174124 781.647088,344.333194 C781.647088,342.492264 780.066934,340.999896 778.117715,340.999896 C776.168496,340.999896 774.588342,342.492264 774.588342,344.333194 C774.588342,346.174124 776.168496,347.666493 778.117715,347.666493 Z M789.882291,347.666493 C791.831466,347.666493 793.411585,346.174157 793.411585,344.333268 C793.411585,342.492379 791.831466,341.000043 789.882291,341.000043 C787.933115,341.000043 786.352996,342.492379 786.352996,344.333268 C786.352996,346.174157 787.933115,347.666493 789.882291,347.666493 Z" id="Combined-Shape"></path>
        </g>
    </g>
</svg>