<?xml version="1.0" encoding="UTF-8"?>
<svg width="22px" height="20px" viewBox="0 0 22 20" version="1.1" xmlns="http://www.w3.org/2000/svg" xmlns:xlink="http://www.w3.org/1999/xlink">
    <!-- Generator: Sketch 49 (51002) - http://www.bohemiancoding.com/sketch -->
    <title>Shape</title>
    <desc>Created with Sketch.</desc>
    <defs>
        <linearGradient x1="50%" y1="97.267618%" x2="50%" y2="0%" id="linearGradient-1">
            <stop stop-color="#00C2A2" offset="0%"></stop>
            <stop stop-color="#01A58A" offset="58.0875319%"></stop>
            <stop stop-color="#00947B" offset="100%"></stop>
        </linearGradient>
    </defs>
    <g id="00-Homepage" stroke="none" stroke-width="1" fill="none" fill-rule="evenodd">
        <g id="00_10-Nav-Bar---Signed-In---Support" transform="translate(-773.000000, -246.000000)" fill="url(#linearGradient-1)" fill-rule="nonzero">
            <g id="table" transform="translate(773.000000, 246.000000)">
                <path d="M19.125,0.35 C20.5203637,0.35 21.65,1.4860914 21.65,2.88571429 L21.65,16.7142857 C21.65,18.1139086 20.5203637,19.25 19.125,19.25 L2.875,19.25 C1.47963633,19.25 0.35,18.1139086 0.35,16.7142857 L0.35,2.88571429 C0.35,1.4860914 1.47963633,0.35 2.875,0.35 L19.125,0.35 Z M19.125,1.65 L2.875,1.65 C2.19926992,1.65 1.65,2.2024086 1.65,2.88571429 L1.65,16.7142857 C1.65,17.3975914 2.19926992,17.95 2.875,17.95 L19.125,17.95 C19.8007301,17.95 20.35,17.3975914 20.35,16.7142857 L20.35,2.88571429 C20.35,2.2024086 19.8007301,1.65 19.125,1.65 Z M9.1,12.9642857 L4.15,12.9642857 L4.15,15.4357143 L9.1,15.4357143 L9.1,12.9642857 Z M2.85,16.7357143 L2.85,11.6642857 L10.4,11.6642857 L10.4,16.7357143 L2.85,16.7357143 Z M9.1,9.15 L9.1,6.67857143 L4.15,6.67857143 L4.15,9.15 L9.1,9.15 Z M2.85,10.45 L2.85,5.37857143 L10.4,5.37857143 L10.4,10.45 L2.85,10.45 Z M17.85,12.9642857 L12.9,12.9642857 L12.9,15.4357143 L17.85,15.4357143 L17.85,12.9642857 Z M11.6,16.7357143 L11.6,11.6642857 L19.15,11.6642857 L19.15,16.7357143 L11.6,16.7357143 Z M17.85,6.67857143 L12.9,6.67857143 L12.9,9.15 L17.85,9.15 L17.85,6.67857143 Z M11.6,10.45 L11.6,5.37857143 L19.15,5.37857143 L19.15,10.45 L11.6,10.45 Z" id="Shape"></path>
            </g>
        </g>
    </g>
</svg>