<?xml version="1.0" encoding="UTF-8"?>
<svg width="22px" height="22px" viewBox="0 0 22 22" version="1.1" xmlns="http://www.w3.org/2000/svg" xmlns:xlink="http://www.w3.org/1999/xlink">
    <!-- Generator: Sketch 49 (51002) - http://www.bohemiancoding.com/sketch -->
    <title>question-circle</title>
    <desc>Created with Sketch.</desc>
    <defs>
        <linearGradient x1="50%" y1="97.267618%" x2="50%" y2="4.22247299%" id="linearGradient-1">
            <stop stop-color="#00C2A2" offset="0%"></stop>
            <stop stop-color="#01A58A" offset="58.0875319%"></stop>
            <stop stop-color="#00947B" offset="100%"></stop>
        </linearGradient>
    </defs>
    <g id="00-Homepage" stroke="none" stroke-width="1" fill="none" fill-rule="evenodd">
        <g id="00_10-Nav-Bar---Signed-In---Support" transform="translate(-773.000000, -75.000000)" fill="url(#linearGradient-1)" fill-rule="nonzero">
            <g id="question-circle" transform="translate(773.000000, 75.000000)">
                <path d="M20.45,11 C20.45,5.78233909 16.2181324,1.55 11,1.55 C5.78186763,1.55 1.55,5.78233909 1.55,11 C1.55,16.2197452 5.78072612,20.45 11,20.45 C16.2192739,20.45 20.45,16.2197452 20.45,11 Z M21.55,11 C21.55,16.8272859 16.8267597,21.55 11,21.55 C5.17324033,21.55 0.45,16.8272859 0.45,11 C0.45,5.17485329 5.17432697,0.45 11,0.45 C16.825673,0.45 21.55,5.17485329 21.55,11 Z M11.2683468,3.75645161 C13.9636447,3.75645161 16.5171774,5.86635037 16.5171774,8.41935484 C16.5171774,9.9653364 15.8390742,10.9554251 14.5892186,11.7656541 C14.3622806,11.9127685 13.6194212,12.3415273 13.4947116,12.4233838 C13.238488,12.5915631 13.1629032,12.6828031 13.1629032,12.7204435 L13.1629032,12.7741935 C13.1629032,13.3451679 12.7000066,13.8080645 12.1290323,13.8080645 L9.87096774,13.8080645 C9.29999339,13.8080645 8.83709677,13.3451679 8.83709677,12.7741935 L8.83709677,12.6129032 C8.83709677,11.2454064 9.4957495,10.3779617 10.7218268,9.62912364 C10.8884934,9.52733051 10.9353724,9.50064775 11.3218349,9.284006 C12.1672424,8.81002286 12.3526613,8.6379435 12.3526613,8.39375 C12.3526613,8.02682667 11.7184616,7.61479839 11.06,7.61479839 C10.3029396,7.61479839 9.96884017,7.84986698 9.18132626,8.84871886 C8.83265026,9.29103041 8.19373423,9.37224473 7.74511406,9.03205188 L6.34594631,7.97115377 C5.9095409,7.64023309 5.80725806,7.02656226 6.11164588,6.57153002 C7.37749838,4.67924424 8.98765792,3.75645161 11.2683468,3.75645161 Z M12.8911079,11.5037847 C13.0501745,11.399377 13.7966589,10.968526 13.9908621,10.8426322 C14.9552342,10.2174701 15.4171774,9.54299358 15.4171774,8.41935484 C15.4171774,6.52519515 13.3975586,4.85645161 11.2683468,4.85645161 C9.38808484,4.85645161 8.12133605,5.57092716 7.06022472,7.13229054 L8.35810163,8.11638638 C9.30993364,6.91844503 9.89981348,6.51479839 11.06,6.51479839 C12.251918,6.51479839 13.4526613,7.29489997 13.4526613,8.39375 C13.4526613,9.20477523 13.0562048,9.57270968 11.8597488,10.2435104 C11.4885653,10.4515871 11.4448495,10.4764694 11.2951813,10.5678806 C10.363192,11.1371017 9.93709677,11.6982685 9.93709677,12.6129032 L9.93709677,12.7080645 L12.06296,12.7080645 C12.0676122,12.2019407 12.3581285,11.8536201 12.8911079,11.5037847 Z M10.5001613,14.7564516 C11.5510826,14.7564516 12.4051613,15.6105303 12.4051613,16.6614516 C12.4051613,17.7123518 11.5510743,18.5664517 10.5001613,18.5664517 C9.44924833,18.5664517 8.59516129,17.7123518 8.59516129,16.6614516 C8.59516129,15.6105303 9.44924001,14.7564516 10.5001613,14.7564516 Z M10.5001613,15.8564516 C10.0567532,15.8564516 9.69516129,16.2180436 9.69516129,16.6614516 C9.69516129,17.1048423 10.0567653,17.4664517 10.5001613,17.4664517 C10.9435574,17.4664517 11.3051613,17.1048423 11.3051613,16.6614516 C11.3051613,16.2180436 10.9435694,15.8564516 10.5001613,15.8564516 Z" id="Shape"></path>
            </g>
        </g>
    </g>
</svg>