<?xml version="1.0" encoding="UTF-8"?>
<svg width="15px" height="20px" viewBox="0 0 15 20" version="1.1" xmlns="http://www.w3.org/2000/svg" xmlns:xlink="http://www.w3.org/1999/xlink">
    <!-- Generator: Sketch 49 (51002) - http://www.bohemiancoding.com/sketch -->
    <title>Fill 1</title>
    <desc>Created with Sketch.</desc>
    <defs>
        <linearGradient x1="50%" y1="97.267618%" x2="50%" y2="4.22247299%" id="linearGradient-1">
            <stop stop-color="#00C2A2" offset="0%"></stop>
            <stop stop-color="#01A58A" offset="58.0875319%"></stop>
            <stop stop-color="#00947B" offset="100%"></stop>
        </linearGradient>
    </defs>
    <g id="Posts" stroke="none" stroke-width="1" fill="none" fill-rule="evenodd">
        <g id="00_05-Nav-Bar---Learning-Tools" transform="translate(-518.000000, -332.000000)" fill="url(#linearGradient-1)">
            <g id="Group-16" transform="translate(485.000000, 46.000000)">
                <path d="M46.4149719,296.556213 C46.4761449,296.615663 46.5597192,296.645818 46.6432935,296.649265 C46.7294526,296.647542 46.8095806,296.612216 46.869892,296.551905 C47.0077465,296.409743 47.13957,296.31066 47.3420438,296.19693 C47.44285,296.140065 47.5048845,296.034089 47.5048845,295.916912 L47.5048845,292.231888 C47.5048845,291.496089 46.907802,290.898145 46.1702801,290.898145 L42.6636047,290.898145 C42.6110476,290.814571 42.557629,290.740474 42.500764,290.669823 C42.907435,290.162346 43.1288638,289.535108 43.1288638,288.875991 C43.1288638,287.289802 41.8390621,286 40.2528731,286 C38.666684,286 37.3768823,287.289802 37.3768823,288.875991 C37.3768823,289.536831 37.5983112,290.164069 38.0075669,290.672408 C37.9489787,290.744782 37.8946985,290.81974 37.8438646,290.898145 L34.3354661,290.898145 C33.5979442,290.898145 33,291.496089 33,292.231888 L33,295.916912 C33,296.04012 33.0697889,296.146096 33.170595,296.200376 C33.3360205,296.294289 33.4902453,296.409743 33.6280998,296.544151 C33.7538921,296.666497 33.9537812,296.665635 34.0778503,296.541566 C34.4845213,296.134895 35.0471402,295.910881 35.6614546,295.910881 C36.8943913,295.910881 37.8981449,296.913773 37.8981449,298.14671 C37.8981449,299.379647 36.8943913,300.3834 35.6614546,300.3834 C35.06868,300.3834 34.5112306,300.153355 34.0907742,299.737207 C34.0296012,299.677757 33.9468885,299.643294 33.8624526,299.645017 C33.7762935,299.645878 33.6961655,299.681204 33.6358542,299.741515 C33.4979996,299.883677 33.3661762,299.984484 33.1628407,300.09649 C33.0628961,300.153355 33,300.260193 33,300.376507 L33,304.068425 C33,304.804224 33.5979442,305.403029 34.3354661,305.403029 L46.1702801,305.403029 C46.907802,305.403029 47.5048845,304.804224 47.5048845,304.068425 L47.5048845,300.376507 C47.5048845,300.260193 47.44285,300.154217 47.3420438,300.09649 C47.1955734,300.014639 47.0568572,299.915556 46.9319265,299.800965 C46.8948781,299.732899 46.8328436,299.678619 46.756162,299.651909 C46.6398472,299.612276 46.5123317,299.64157 46.425311,299.727729 C46.0022698,300.150771 45.4405125,300.3834 44.8442915,300.3834 C43.6104932,300.3834 42.6076013,299.379647 42.6076013,298.14671 C42.6076013,296.913773 43.6104932,295.910881 44.8442915,295.910881 C45.4370661,295.910881 45.9945155,296.140065 46.4149719,296.556213 Z" id="Fill-1"></path>
            </g>
        </g>
    </g>
</svg>