<?xml version="1.0" encoding="UTF-8"?>
<svg width="18px" height="22px" viewBox="0 0 18 22" version="1.1" xmlns="http://www.w3.org/2000/svg" xmlns:xlink="http://www.w3.org/1999/xlink">
    <!-- Generator: Sketch 49 (51002) - http://www.bohemiancoding.com/sketch -->
    <title>common_core_icon</title>
    <desc>Created with Sketch.</desc>
    <defs></defs>
    <g id="Posts" stroke="none" stroke-width="1" fill="none" fill-rule="evenodd">
        <g id="00_06-Nav-Bar---Explore-Curriculum" transform="translate(-619.000000, -151.000000)" fill="#00C2A2">
            <g id="common_core_icon" transform="translate(619.000000, 151.000000)">
                <path d="M7.7875,11.1587522 C6.6924671,10.8442076 5.89072931,9.82326095 5.89072931,8.61904762 C5.89072931,7.41455643 6.69241328,6.39362805 7.7875,6.07911314 L7.7875,1.75031186 C4.38100575,2.11385932 1.7125,5.0540211 1.7125,8.61904762 C1.7125,12.1839422 4.38106508,15.1242122 7.7875,15.4877804 L7.7875,11.1587522 Z M8.5,16.9505952 C3.96858069,16.9505952 0.2875,13.2110847 0.2875,8.61904762 C0.2875,4.02686827 3.96851156,0.2875 8.5,0.2875 C8.89350288,0.2875 9.2125,0.606497116 9.2125,1 L9.2125,6.69174415 C9.2125,7.08524704 8.89350288,7.40424415 8.5,7.40424415 C7.85037551,7.40424415 7.31572931,7.94745955 7.31572931,8.61904762 C7.31572931,9.29031672 7.85048016,9.83363846 8.5,9.83363846 C8.89350288,9.83363846 9.2125,10.1526356 9.2125,10.5461385 L9.2125,16.2380952 C9.2125,16.6315981 8.89350288,16.9505952 8.5,16.9505952 Z" id="Combined-Shape" fill-rule="nonzero"></path>
                <path d="M8.5,12.6684524 C8.89350288,12.6684524 9.2125,12.9874495 9.2125,13.3809524 C9.2125,13.7744553 8.89350288,14.0934524 8.5,14.0934524 C5.51534061,14.0934524 3.1,11.6397184 3.1,8.61894153 C3.1,5.59776439 5.51510934,3.14464286 8.5,3.14464286 C8.89350288,3.14464286 9.2125,3.46363997 9.2125,3.85714286 C9.2125,4.25064574 8.89350288,4.56964286 8.5,4.56964286 C6.30713938,4.56964286 4.525,6.37983191 4.525,8.61894153 C4.525,10.8576991 6.30742058,12.6684524 8.5,12.6684524 Z" id="Stroke-11"></path>
                <path d="M16.2875,13.3809524 C16.2875,9.81611028 13.618981,6.87578932 10.2125,6.5122192 L10.2125,10.8413772 C11.307856,11.1557658 12.1096894,12.1764889 12.1096894,13.3809524 C12.1096894,14.5855607 11.307879,15.6063425 10.2125,15.9207404 L10.2125,20.2496885 C13.6190404,19.8861392 16.2875,16.9459264 16.2875,13.3809524 Z M8.7875,21 L8.7875,15.3080432 C8.7875,14.9145403 9.10649712,14.5955432 9.5,14.5955432 C10.1500676,14.5955432 10.6846894,14.0525181 10.6846894,13.3809524 C10.6846894,12.7095783 10.1500475,12.1665742 9.5,12.1665742 C9.10649712,12.1665742 8.7875,11.8475771 8.7875,11.4540742 L8.7875,5.76190476 C8.7875,5.36840188 9.10649712,5.04940476 9.5,5.04940476 C14.0314904,5.04940476 17.7125,8.78898718 17.7125,13.3809524 C17.7125,17.9730598 14.0315595,21.7125 9.5,21.7125 C9.10649712,21.7125 8.7875,21.3935029 8.7875,21 Z" id="Combined-Shape" fill-rule="nonzero"></path>
                <path d="M9.5,9.33154762 C9.10649712,9.33154762 8.7875,9.0125505 8.7875,8.61904762 C8.7875,8.22554473 9.10649712,7.90654762 9.5,7.90654762 C12.4852748,7.90654762 14.9,10.3595393 14.9,13.3810584 C14.9,16.4018283 12.4849689,18.8553571 9.5,18.8553571 C9.10649712,18.8553571 8.7875,18.53636 8.7875,18.1428571 C8.7875,17.7493543 9.10649712,17.4303571 9.5,17.4303571 C11.6928745,17.4303571 13.475,15.6198229 13.475,13.3810584 C13.475,11.1415735 11.6932103,9.33154762 9.5,9.33154762 Z" id="Stroke-15"></path>
            </g>
        </g>
    </g>
</svg>