<?xml version="1.0" encoding="UTF-8"?>
<svg width="13px" height="10px" viewBox="0 0 13 10" version="1.1" xmlns="http://www.w3.org/2000/svg" xmlns:xlink="http://www.w3.org/1999/xlink">
    <!-- Generator: Sketch 49.1 (51147) - http://www.bohemiancoding.com/sketch -->
    <title>Shape</title>
    <desc>Created with Sketch.</desc>
    <defs></defs>
    <g id="00-Homepage" stroke="none" stroke-width="1" fill="none" fill-rule="evenodd">
        <g id="00_13-Nav-Bar---Dashboard-Dropdown" transform="translate(-982.000000, -175.000000)" fill="#00C2A2" fill-rule="nonzero">
            <path d="M994.82008,180.391689 L990.486532,184.725237 C990.099608,185.112161 989.42894,184.841315 989.42894,184.286724 L989.42894,181.81041 L985.920829,181.81041 C985.577757,181.81041 985.301751,181.534404 985.301751,181.191332 L985.301751,178.715019 C985.301751,178.371946 985.577757,178.09594 985.920829,178.09594 L989.42894,178.09594 L989.42894,175.619627 C989.42894,175.067615 990.097029,174.794189 990.486532,175.181113 L994.82008,179.514661 C995.059973,179.757134 995.059973,180.149217 994.82008,180.391689 Z M986.952627,184.596263 L986.952627,183.564465 C986.952627,183.394219 986.813334,183.254926 986.643087,183.254926 L984.476313,183.254926 C984.019743,183.254926 983.650876,182.886059 983.650876,182.429489 L983.650876,177.476862 C983.650876,177.020292 984.019743,176.651424 984.476313,176.651424 L986.643087,176.651424 C986.813334,176.651424 986.952627,176.512132 986.952627,176.341885 L986.952627,175.310088 C986.952627,175.139841 986.813334,175.000549 986.643087,175.000549 L984.476313,175.000549 C983.109182,175.000549 982,176.109731 982,177.476862 L982,182.429489 C982,183.79662 983.109182,184.905802 984.476313,184.905802 L986.643087,184.905802 C986.813334,184.905802 986.952627,184.766509 986.952627,184.596263 Z" id="Shape"></path>
        </g>
    </g>
</svg>