<?xml version="1.0" encoding="UTF-8"?>
<svg width="20px" height="20px" viewBox="0 0 20 20" version="1.1" xmlns="http://www.w3.org/2000/svg" xmlns:xlink="http://www.w3.org/1999/xlink">
    <!-- Generator: Sketch 49 (51002) - http://www.bohemiancoding.com/sketch -->
    <title>Group 11</title>
    <desc>Created with Sketch.</desc>
    <defs></defs>
    <g id="Posts" stroke="none" stroke-width="1" fill="none" fill-rule="evenodd">
        <g id="00_05-Nav-Bar---Learning-Tools" transform="translate(-515.000000, -72.000000)" fill="#00C2A2">
            <g id="Group-16" transform="translate(485.000000, 46.000000)">
                <g id="Group-3" transform="translate(25.000000, 21.000000)">
                    <g id="Group-14" transform="translate(5.000000, 5.000000)">
                        <g id="Group-11">
                            <path d="M14.9825797,9.58792412 L13.983741,9.25402663 L13.1513755,10.0887704 C13.234612,10.5061422 13.3178486,10.9235141 13.3178486,11.3408859 C13.3178486,14.0955402 11.0704616,16.3493483 8.32365537,16.3493483 C5.5768491,16.3493483 3.32946215,14.0955402 3.32946215,11.3408859 C3.32946215,8.58623166 5.5768491,6.3324236 8.32365537,6.3324236 C8.73983814,6.3324236 9.23925746,6.41589797 9.57220367,6.49937235 L10.4045692,5.66462862 L10.071623,4.66293615 C9.98838644,4.24556429 9.98838644,3.74471806 10.071623,3.24387182 C9.48896712,3.16039745 8.90631124,3.07692308 8.32365537,3.07692308 C3.74564492,3.07692308 0,6.83326983 0,11.4243603 C0,16.0154508 3.74564492,19.7717976 8.32365537,19.7717976 C12.9016658,19.7717976 16.6473107,16.0154508 16.6473107,11.4243603 C16.6473107,10.8400397 16.5640742,10.2557191 16.4808376,9.6713985 C16.231128,9.75487287 16.0646549,9.75487287 15.8149452,9.75487287 C15.5652355,9.75487287 15.3155259,9.6713985 14.9825797,9.58792412 Z" id="Fill-1"></path>
                            <path d="M18.9521736,3.45375216 L17.7036253,3.0363803 L18.4527543,2.28511094 C18.7857005,1.95121345 18.7857005,1.45036722 18.4527543,1.11646973 C18.1198081,0.782572241 17.6203888,0.782572241 17.2874426,1.11646973 L16.5383136,1.86773908 L16.1221308,0.615623496 C16.0388943,0.365200379 15.7891846,0.114777262 15.5394749,0.0313028896 C15.2897653,-0.0521714827 14.9568191,0.0313028896 14.7903459,0.281726007 L12.2932493,2.78595718 C12.0435397,3.0363803 11.9603031,3.37027779 12.1267762,3.6207009 L12.7926687,5.62408584 L9.97433627,8.45046597 C9.47491694,8.11656848 8.89226107,7.94961973 8.30960519,7.94961973 C6.47840101,7.94961973 4.98014305,9.45215844 4.98014305,11.2885946 C4.98014305,13.1250308 6.47840101,14.6275695 8.30960519,14.6275695 C10.1408094,14.6275695 11.6390673,13.1250308 11.6390673,11.2885946 C11.6390673,10.704274 11.4725942,10.1475404 11.139648,9.64669419 L13.8747439,6.87620143 L15.8724211,7.54399641 C15.9556577,7.54399641 16.0388943,7.62747078 16.1221308,7.62747078 C16.3718405,7.62747078 16.5383136,7.54399641 16.7047867,7.37704766 L19.2018833,4.87281649 C19.5348295,4.62239337 19.6180661,4.28849588 19.5348295,4.03807276 C19.451593,3.78764965 19.2851198,3.53722653 18.9521736,3.45375216 Z" id="Fill-3"></path>
                        </g>
                    </g>
                </g>
            </g>
        </g>
    </g>
</svg>