<?xml version="1.0" encoding="UTF-8"?>
<svg width="20px" height="16px" viewBox="0 0 20 16" version="1.1" xmlns="http://www.w3.org/2000/svg" xmlns:xlink="http://www.w3.org/1999/xlink">
    <!-- Generator: Sketch 49 (51002) - http://www.bohemiancoding.com/sketch -->
    <title>Group 6</title>
    <desc>Created with Sketch.</desc>
    <defs></defs>
    <g id="00-Homepage" stroke="none" stroke-width="1" fill="none" fill-rule="evenodd">
        <g id="00_08-Nav-Bar---Our-Story" transform="translate(-840.000000, -137.000000)" fill="#00C2A2">
            <g id="Group-6" transform="translate(840.000000, 137.000000)">
                <g id="bullhorn">
                    <g id="Group-3">
                        <path d="M3,10 L6,10 L6,15 C6,15.5522847 5.55228475,16 5,16 L4,16 C3.44771525,16 3,15.5522847 3,15 L3,10 Z" id="Rectangle-3"></path>
                        <path d="M16.5,10 L17.8333333,10 C18.9444444,9.58333333 19.5,8.75 19.5,7.5 C19.5,6.25 18.9444444,5.41666667 17.8333333,5 L16.5,5 L16.5,10 Z" id="Oval"></path>
                        <path d="M1.5,5.72727273 L1.5,9.3030303 L8.5,9.3030303 C8.75376146,9.3030303 9.00337501,9.36740902 9.22548199,9.49014193 L15.5,12.9573444 L15.5,2.42125049 L9.16794597,5.57034688 C8.96041188,5.67355902 8.73178253,5.72727273 8.5,5.72727273 L1.5,5.72727273 Z M1,4.22727273 L8.5,4.22727273 L15.5547027,0.718784225 C16.0492089,0.47285331 16.6494519,0.674363433 16.8953828,1.16886968 C16.9641909,1.30722574 17,1.45964531 17,1.61416699 L17,13.8048963 C17,14.357181 16.5522847,14.8048963 16,14.8048963 C15.8308257,14.8048963 15.6644167,14.7619771 15.5163453,14.6801552 L8.5,10.8030303 L1,10.8030303 C0.44771525,10.8030303 6.76353751e-17,10.3553151 0,9.8030303 L0,5.22727273 C-6.76353751e-17,4.67498798 0.44771525,4.22727273 1,4.22727273 Z" id="Rectangle-2" fill-rule="nonzero"></path>
                    </g>
                </g>
                <rect id="Rectangle-44" x="1" y="5" width="3" height="5"></rect>
            </g>
        </g>
    </g>
</svg>