<?xml version="1.0" encoding="UTF-8"?>
<svg width="14px" height="20px" viewBox="0 0 14 20" version="1.1" xmlns="http://www.w3.org/2000/svg" xmlns:xlink="http://www.w3.org/1999/xlink">
    <!-- Generator: Sketch 49.1 (51147) - http://www.bohemiancoding.com/sketch -->
    <title>Shape</title>
    <desc>Created with Sketch.</desc>
    <defs>
        <linearGradient x1="50%" y1="97.267618%" x2="50%" y2="4.22247299%" id="linearGradient-1">
            <stop stop-color="#00C2A2" offset="0%"></stop>
            <stop stop-color="#01A58A" offset="58.0875319%"></stop>
            <stop stop-color="#00947B" offset="100%"></stop>
        </linearGradient>
    </defs>
    <g id="00-Homepage" stroke="none" stroke-width="1" fill="none" fill-rule="evenodd">
        <g id="00_07-Nav-Bar---Using-Quill" transform="translate(-719.000000, -410.000000)" fill="url(#linearGradient-1)" fill-rule="nonzero">
            <path d="M726.059574,410 C729.628433,410 733.009579,412.793728 733.009579,416.174175 C733.009579,418.221218 732.111699,419.532199 730.456759,420.605028 C730.156269,420.799823 729.172645,421.367545 729.007516,421.475932 C728.668249,421.698619 728.568167,421.81943 728.568167,421.86927 L728.568167,421.940441 C728.568167,422.696471 727.955243,423.309395 727.199213,423.309395 L724.209297,423.309395 C723.453267,423.309395 722.840343,422.696471 722.840343,421.940441 L722.840343,421.726875 C722.840343,419.916165 723.712469,418.767577 725.335925,417.776037 C725.556609,417.641252 725.618681,417.605921 726.130398,417.319064 C727.249807,416.691461 727.495321,416.46361 727.495321,416.140272 C727.495321,415.654427 726.655574,415.108858 725.783701,415.108858 C724.781274,415.108858 724.338891,415.420113 723.296139,416.742698 C722.834456,417.328366 721.988464,417.435902 721.394443,416.985451 L719.541798,415.58071 C718.963951,415.142536 718.828518,414.329971 719.231559,413.72746 C720.907681,411.221875 723.039702,410 726.059574,410 Z M728.208281,420.258285 C728.418902,420.120039 729.407326,419.549546 729.664472,419.38285 C730.941402,418.555069 731.553063,417.661991 731.553063,416.174175 C731.553063,413.666108 728.878875,411.456516 726.059574,411.456516 C723.56991,411.456516 721.892601,412.402557 720.487577,414.469966 L722.206103,415.773013 C723.466429,414.186812 724.247492,413.652342 725.783701,413.652342 C727.361926,413.652342 728.951837,414.685278 728.951837,416.140272 C728.951837,417.214155 728.426887,417.701339 726.842653,418.589549 C726.351167,418.865065 726.293283,418.898012 726.095106,419.01905 C724.861054,419.772758 724.296859,420.515802 724.296859,421.726875 L724.296859,421.852879 L727.111726,421.852879 C727.117886,421.182717 727.50256,420.721504 728.208281,420.258285 Z M725.042416,424.565159 C726.433947,424.565159 727.564837,425.696049 727.564837,427.08758 C727.564837,428.479082 726.433936,429.610001 725.042416,429.610001 C723.650896,429.610001 722.519995,428.479082 722.519995,427.08758 C722.519995,425.696049 723.650885,424.565159 725.042416,424.565159 Z M725.042416,426.021675 C724.455297,426.021675 723.976511,426.500461 723.976511,427.08758 C723.976511,427.674676 724.455313,428.153485 725.042416,428.153485 C725.629519,428.153485 726.108321,427.674676 726.108321,427.08758 C726.108321,426.500461 725.629535,426.021675 725.042416,426.021675 Z" id="Shape"></path>
        </g>
    </g>
</svg>