<?xml version="1.0" encoding="UTF-8"?>
<svg width="21px" height="16px" viewBox="0 0 21 16" version="1.1" xmlns="http://www.w3.org/2000/svg" xmlns:xlink="http://www.w3.org/1999/xlink">
    <!-- Generator: Sketch 49.1 (51147) - http://www.bohemiancoding.com/sketch -->
    <title>Path 4</title>
    <desc>Created with Sketch.</desc>
    <defs>
        <linearGradient x1="50%" y1="100%" x2="50%" y2="0%" id="linearGradient-1">
            <stop stop-color="#00C2A2" offset="0%"></stop>
            <stop stop-color="#01A58A" offset="58.0875319%"></stop>
            <stop stop-color="#00947B" offset="100%"></stop>
        </linearGradient>
    </defs>
    <g id="00-Homepage" stroke="none" stroke-width="1" fill="none" fill-rule="evenodd">
        <g id="00_07-Nav-Bar---Using-Quill" transform="translate(-716.000000, -74.000000)" fill="url(#linearGradient-1)" fill-rule="nonzero">
            <g id="Group-8" transform="translate(686.000000, 46.000000)">
                <path d="M48.3068107,35 C48.6715509,35 49.0271762,35.1139655 49.3239775,35.3259664 C50.1104495,35.8877322 50.29261,36.9806948 49.7308443,37.7671668 L46.1594157,42.7671668 C45.8309205,43.2270601 45.3005465,43.5 44.7353821,43.5 L31.75,43.5 C30.7835017,43.5 30,42.7164983 30,41.75 L30,29.75 C30,28.7835017 30.7835017,28 31.75,28 L36.5292408,28 C37.282494,28 37.951237,28.4820027 38.1894366,29.1966014 L38.7335884,30.8290569 C38.7676169,30.9311425 38.8631516,31 38.9707592,31 L44.25,31 C45.2164983,31 46,31.7835017 46,32.75 L46,35 L48.3068107,35 Z M44.5,32.75 C44.5,32.6119288 44.3880712,32.5 44.25,32.5 L38.9707592,32.5 C38.217506,32.5 37.548763,32.0179973 37.3105634,31.3033986 L36.7664116,29.6709431 C36.7323831,29.5688575 36.6368484,29.5 36.5292408,29.5 L31.75,29.5 C31.6119288,29.5 31.5,29.6119288 31.5,29.75 L31.5,39.3100448 L34.8974748,35.5728226 C35.2291386,35.2079924 35.6993162,35 36.1923699,35 L44.5,35 L44.5,32.75 Z M31.5,41.75 C31.5,41.8880712 31.6119288,42 31.75,42 L44.7353821,42 C44.8161199,42 44.8918876,41.9610086 44.9388155,41.8953095 L48.510244,36.8953095 C48.5904963,36.7829564 48.5644734,36.6268189 48.4521202,36.5465666 C48.40972,36.5162808 48.3589164,36.5 48.3068107,36.5 L36.1923699,36.5 C36.1219336,36.5 36.0547654,36.5297132 36.0073849,36.5818318 L31.5,41.5399552 L31.5,41.75 Z" id="Path-4"></path>
            </g>
        </g>
    </g>
</svg>