<?xml version="1.0" encoding="UTF-8"?>
<svg width="17px" height="21px" viewBox="0 0 17 21" version="1.1" xmlns="http://www.w3.org/2000/svg" xmlns:xlink="http://www.w3.org/1999/xlink">
    <!-- Generator: Sketch 49.1 (51147) - http://www.bohemiancoding.com/sketch -->
    <title>Group 9</title>
    <desc>Created with Sketch.</desc>
    <defs>
        <linearGradient x1="50.0094473%" y1="767.85076%" x2="50%" y2="-836.255647%" id="linearGradient-1">
            <stop stop-color="#00C2A2" offset="0%"></stop>
            <stop stop-color="#01A58A" offset="58.0875319%"></stop>
            <stop stop-color="#00947B" offset="100%"></stop>
        </linearGradient>
        <linearGradient x1="50%" y1="97.267618%" x2="50%" y2="0%" id="linearGradient-2">
            <stop stop-color="#00C2A2" offset="0%"></stop>
            <stop stop-color="#01A58A" offset="58.0875319%"></stop>
            <stop stop-color="#00947B" offset="100%"></stop>
        </linearGradient>
        <linearGradient x1="50%" y1="256.379658%" x2="50%" y2="-8.28075893%" id="linearGradient-3">
            <stop stop-color="#00C2A2" offset="0%"></stop>
            <stop stop-color="#01A58A" offset="58.0875319%"></stop>
            <stop stop-color="#00947B" offset="100%"></stop>
        </linearGradient>
    </defs>
    <g id="00-Homepage" stroke="none" stroke-width="1" fill="none" fill-rule="evenodd">
        <g id="00_07-Nav-Bar---Using-Quill" transform="translate(-718.000000, -242.000000)" fill-rule="nonzero">
            <g id="Group-8" transform="translate(686.000000, 46.000000)">
                <g id="Group-9" transform="translate(32.000000, 196.000000)">
                    <path d="M4.5,12.1 C4.16862915,12.1 3.9,11.8313708 3.9,11.5 C3.9,11.1686292 4.16862915,10.9 4.5,10.9 L12.5,10.9 C12.8313708,10.9 13.1,11.1686292 13.1,11.5 C13.1,11.8313708 12.8313708,12.1 12.5,12.1 L4.5,12.1 Z" id="Line" fill="url(#linearGradient-1)"></path>
                    <path d="M4.5,15.1 C4.16862915,15.1 3.9,14.8313708 3.9,14.5 C3.9,14.1686292 4.16862915,13.9 4.5,13.9 L12.5,13.9 C12.8313708,13.9 13.1,14.1686292 13.1,14.5 C13.1,14.8313708 12.8313708,15.1 12.5,15.1 L4.5,15.1 Z" id="Line" fill="url(#linearGradient-1)"></path>
                    <path d="M8.60730982,0.75 C9.04902972,0.75 9.4744096,0.917042498 9.7980991,1.21761125 L16.1907909,7.15368083 C16.5473832,7.48480223 16.7500016,7.94944911 16.7500016,8.43606958 L16.7500016,18.5069431 C16.7500016,19.4734414 15.9664999,20.2569431 15.0000016,20.2569431 L2,20.2569431 C1.03350169,20.2569431 0.25,19.4734414 0.25,18.5069431 L0.25,2.5 C0.25,1.53350169 1.03350169,0.75 2,0.75 L8.60730982,0.75 Z M8.60730982,2.25 L2,2.25 C1.86192881,2.25 1.75,2.36192881 1.75,2.5 L1.75,18.5069431 C1.75,18.6450143 1.86192881,18.7569431 2,18.7569431 L15.0000016,18.7569431 C15.1380728,18.7569431 15.2500016,18.6450143 15.2500016,18.5069431 L15.2500016,8.43606958 C15.2500016,8.36655237 15.2210561,8.30017424 15.1701144,8.25287119 L8.77742258,2.31680161 C8.73118122,2.27386321 8.67041266,2.25 8.60730982,2.25 Z" id="Path-5" fill="url(#linearGradient-2)"></path>
                    <path d="M8.25,1.5 L9.75,1.5 L9.75,7 C9.75,7.13807119 9.86192881,7.25 10,7.25 L16,7.25 L16,8.75 L10,8.75 C9.03350169,8.75 8.25,7.96649831 8.25,7 L8.25,1.5 Z" id="Path-6" fill="url(#linearGradient-3)"></path>
                </g>
            </g>
        </g>
    </g>
</svg>