<?xml version="1.0" encoding="UTF-8"?>
<svg width="22px" height="20px" viewBox="0 0 22 20" version="1.1" xmlns="http://www.w3.org/2000/svg" xmlns:xlink="http://www.w3.org/1999/xlink">
    <!-- Generator: Sketch 49.1 (51147) - http://www.bohemiancoding.com/sketch -->
    <title>Star 2</title>
    <desc>Created with Sketch.</desc>
    <defs>
        <linearGradient x1="50%" y1="97.267618%" x2="50%" y2="4.22247299%" id="linearGradient-1">
            <stop stop-color="#00C2A2" offset="0%"></stop>
            <stop stop-color="#01A58A" offset="58.0875319%"></stop>
            <stop stop-color="#00947B" offset="100%"></stop>
        </linearGradient>
    </defs>
    <g id="00-Homepage" stroke="none" stroke-width="1" fill="none" fill-rule="evenodd">
        <g id="00_07-Nav-Bar---Using-Quill" transform="translate(-715.000000, -499.000000)" fill="url(#linearGradient-1)" fill-rule="nonzero">
            <g id="Group-8" transform="translate(686.000000, 46.000000)">
                <path d="M39.9999971,468.403312 L45.0591562,471.063069 C45.0834888,471.075862 45.1113598,471.080276 45.1384545,471.075629 C45.2064966,471.063959 45.252195,470.999339 45.2405249,470.931297 L44.2743115,465.297841 L48.3672572,461.308205 C48.3869427,461.289016 48.3997536,461.263873 48.4037066,461.236669 C48.4136338,461.16835 48.3662987,461.10492 48.2979806,461.094993 L42.6416687,460.273083 L40.1120891,455.147595 C40.0999228,455.122943 40.0799694,455.10299 40.0553178,455.090823 C39.9934111,455.060271 39.9184579,455.085688 39.8879051,455.147595 L37.3583255,460.273083 L31.7020136,461.094993 C31.674809,461.098946 31.6496662,461.111757 31.6304776,461.131442 C31.58229,461.180878 31.5833015,461.260017 31.6327369,461.308205 L35.7256827,465.297841 L34.7594692,470.931297 C34.7548221,470.958392 34.7592365,470.986263 34.7720289,471.010595 C34.804154,471.071701 34.8797324,471.095194 34.9408379,471.063069 L39.9999971,468.403312 Z M35.7551849,472.612049 C34.8386013,473.093926 33.7049254,472.741526 33.2230489,471.824942 C33.0311631,471.459954 32.9649481,471.041889 33.0346547,470.635468 L33.8453417,465.9088 L30.4112165,462.561356 C29.6696848,461.838541 29.6545117,460.651454 30.3773265,459.909922 C30.6651551,459.61464 31.0422971,459.422477 31.4503666,459.363181 L36.1962108,458.673569 L38.3186169,454.373105 C38.7769087,453.444504 39.9012072,453.063243 40.8298078,453.521535 C41.1995814,453.704029 41.498883,454.003331 41.6813772,454.373105 L43.8037833,458.673569 L48.5496276,459.363181 C49.5743992,459.512089 50.2844269,460.463544 50.1355189,461.488316 C50.076223,461.896385 49.8840595,462.273527 49.5887777,462.561356 L46.1546525,465.9088 L46.9653395,470.635468 C47.1403914,471.656099 46.4549142,472.625391 45.4342834,472.800443 C45.0278628,472.87015 44.6097977,472.803935 44.2448093,472.612049 L39.9999971,470.380419 L35.7551849,472.612049 Z" id="Star-2"></path>
            </g>
        </g>
    </g>
</svg>