<?xml version="1.0" encoding="UTF-8"?>
<svg width="14px" height="11px" viewBox="0 0 14 11" version="1.1" xmlns="http://www.w3.org/2000/svg" xmlns:xlink="http://www.w3.org/1999/xlink">
    <!-- Generator: Sketch 49.1 (51147) - http://www.bohemiancoding.com/sketch -->
    <title>comments</title>
    <desc>Created with Sketch.</desc>
    <defs>
        <linearGradient x1="50%" y1="97.267618%" x2="50%" y2="4.22247299%" id="linearGradient-1">
            <stop stop-color="#00C2A2" offset="0%"></stop>
            <stop stop-color="#01A58A" offset="58.0875319%"></stop>
            <stop stop-color="#00947B" offset="100%"></stop>
        </linearGradient>
    </defs>
    <g id="00-Homepage" stroke="none" stroke-width="1" fill="none" fill-rule="evenodd">
        <g id="00_13-Nav-Bar---Dashboard-Dropdown" transform="translate(-981.000000, -134.000000)" fill="url(#linearGradient-1)" fill-rule="nonzero">
            <g id="comments" transform="translate(981.000000, 134.000000)">
                <path d="M5.44444176,7.94443705 C4.53057762,7.94443705 3.66948083,7.78005866 2.91318953,7.48992338 C2.1506031,8.08660017 1.21498551,8.4501868 0.221010308,8.55440897 C0.213824144,8.55516199 0.206603879,8.55554329 0.199378374,8.55555133 C0.108572863,8.55555133 0.0265416536,8.49483608 0.0045208311,8.40823543 C-0.0192986016,8.31196117 0.055270806,8.25270426 0.129111047,8.18207235 C0.494107395,7.8311246 0.936589815,7.55523238 1.10964529,6.37624338 C0.413558824,5.7090319 0,4.87622676 0,3.97223068 C0,1.77819357 2.4377731,0 5.44444176,0 C8.45111041,0 10.8888835,1.77816926 10.8888835,3.97223068 C10.8888592,6.16779904 8.45111041,7.94443705 5.44444176,7.94443705 Z M13.8800938,10.5493594 C13.5411773,10.2303005 13.1302921,9.9794916 12.9696082,8.90769005 C14.642024,7.33832971 14.2376527,5.09329957 12.0539211,3.87486267 C12.0546746,3.90728626 12.0555253,3.93968555 12.0555253,3.97223068 C12.0555253,6.94948962 8.90594005,9.23180447 5.14662593,9.1060962 C6.07317756,9.85862013 7.43107966,10.3333317 8.94441572,10.3333317 C9.79301947,10.3333317 10.5925989,10.1839012 11.294859,9.92013746 C12.0029767,10.4625643 12.8717541,10.7930954 13.7947571,10.8878384 C13.8867779,10.8974391 13.9737188,10.8398835 13.9957639,10.75496 C14.0179063,10.6674357 13.9486598,10.6135746 13.8800938,10.5493594 Z" id="Shape"></path>
            </g>
        </g>
    </g>
</svg>