<?xml version="1.0" encoding="UTF-8"?>
<svg width="20px" height="24px" viewBox="0 0 20 24" version="1.1" xmlns="http://www.w3.org/2000/svg" xmlns:xlink="http://www.w3.org/1999/xlink">
    <!-- Generator: Sketch 49 (51002) - http://www.bohemiancoding.com/sketch -->
    <title>Group 11</title>
    <desc>Created with Sketch.</desc>
    <defs></defs>
    <g id="00-Homepage" stroke="none" stroke-width="1" fill="none" fill-rule="evenodd">
        <g id="00_08-Nav-Bar---Our-Story" transform="translate(-840.000000, -70.000000)" fill="#00C2A2">
            <g id="Group-11" transform="translate(840.000000, 70.000000)">
                <path d="M15.7042093,1.30920293 C16.1296928,1.30920293 16.5680698,1.41393916 16.9806598,1.62341163 C18.3602579,2.34347324 18.9017823,4.04543704 18.1926432,5.44628417 L13.5381115,14.6630728 L9.41221085,16.6137851 L8.56124384,12.070851 L13.2157755,2.85406238 C13.7057262,1.87216018 14.6856276,1.30920293 15.7042093,1.30920293 L15.7042093,1.30920293 Z M15.7042093,0 C14.16989,0 12.7645051,0.864073931 12.0682594,2.25182903 L7.41372772,11.4686176 C7.28479333,11.7304582 7.24611301,12.0184829 7.29768677,12.3065075 L8.14865377,16.8494417 C8.22601441,17.2422025 8.47098976,17.5825953 8.83200607,17.7658837 C9.01251422,17.8575279 9.21880925,17.909896 9.42510429,17.909896 C9.60561244,17.909896 9.79901403,17.8706199 9.96662874,17.7920678 L14.0925294,15.8413554 C14.3503982,15.7235271 14.5695867,15.5140547 14.698521,15.2522141 L19.3530527,6.03542549 C20.3845279,4.00616095 19.5851346,1.49249134 17.5866515,0.458221024 C16.9935533,0.157104351 16.3488813,0 15.7042093,0 L15.7042093,0 L15.7042093,0 Z" id="Shape"></path>
                <path d="M11.6989265,10.6023968 L10.8949564,6.31035811 C10.8304892,5.95687332 11.0625711,5.61648055 11.410694,5.55102041 C11.559395,5.52305905 11.3761015,4.93236408 11.5,5 C11.6661593,5.09070605 12.1215835,5.87220815 12.1585135,6.07470158 L12.6528067,8.71435827 L14.8661358,4.33346169 C15.0337505,4.00616095 15.4205537,3.88833269 15.7299962,4.04543704 C16.0523322,4.21563342 16.1683732,4.6083943 16.0136519,4.922603 L13.7722738,9.35901776 L16.2328403,8.19561032 C16.5551763,8.03850597 16.9419795,8.18251829 17.0838074,8.50981902 C17.2385286,8.83711975 17.0967008,9.22988063 16.7743648,9.37389295 L12.8202476,11.2433867 L8.77825663,19.2437987 L9.44787257,20.8518862 C9.62505595,21.1486693 9.54251496,21.5309273 9.25748957,21.7196765 L6.56492346,23.5889956 C6.45040093,23.6968338 6.2961483,23.7620331 6.12438377,23.7620331 L0.644671976,23.7620331 C0.283655669,23.7620331 0,23.4740085 0,23.1074317 C0,22.7408548 0.283655669,22.4528302 0.644671976,22.4528302 L5.46453721,22.4528302 L5.40565222,19.8618456 C5.40450238,19.8570936 5.4034018,19.8523171 5.40235116,19.8475164 C5.32499052,19.4940316 5.54417899,19.1405468 5.89230186,19.0619946 L7.62780201,18.6604736 L11.6989265,10.6023968 Z M8.08718472,20.9572221 L7.68448995,19.9915287 L6.70414233,20.2212473 L6.74326887,21.8898729 L8.08718472,20.9572221 Z" id="Combined-Shape"></path>
            </g>
        </g>
    </g>
</svg>