<?xml version="1.0" encoding="UTF-8"?>
<svg width="21px" height="19px" viewBox="0 0 21 19" version="1.1" xmlns="http://www.w3.org/2000/svg" xmlns:xlink="http://www.w3.org/1999/xlink">
    <!-- Generator: Sketch 49 (51002) - http://www.bohemiancoding.com/sketch -->
    <title>Group 9</title>
    <desc>Created with Sketch.</desc>
    <defs></defs>
    <g id="00-Homepage" stroke="none" stroke-width="1" fill="none" fill-rule="evenodd">
        <g id="00_09-Nav-Bar---Signed-In" transform="translate(-663.000000, -331.000000)" fill="#00C2A2">
            <g id="Group-9" transform="translate(663.000000, 331.000000)">
                <path d="M1.875,13.8100021 C4.71066437,14.0022006 6.54961096,14.2321759 7.45870796,14.5187391 C8.34121135,14.7969195 9.32826838,15.4226176 10.4440813,16.3925313 C11.365091,15.4650091 12.3271012,14.8363739 13.3347703,14.5187391 C14.3896528,14.1862218 16.3030916,13.9515567 19.125,13.7981625 L19.125,1.94582048 C16.3410111,2.16987744 14.5528599,2.38205713 13.8142864,2.57062908 C13.4194959,2.67142668 12.432745,3.19769378 10.9641783,4.11673006 C10.6608945,4.30652656 10.272615,4.29256462 9.98374645,4.08147524 C8.95982644,3.33325038 7.95525087,2.8309626 6.97019735,2.56828166 C6.05783038,2.3249838 4.34913568,2.11089225 1.875,1.93522722 L1.875,13.8100021 Z M13.3813657,0.87502309 C14.3377239,0.630846542 16.4975761,0.386992262 19.9341125,0.127484193 C20.4418767,0.0891406696 20.875,0.49079009 20.875,1 L20.875,14.6304348 C20.875,15.0980304 20.5073589,15.4829942 20.0402585,15.5045082 C16.9067195,15.6488341 14.825044,15.883862 13.8608819,16.1877827 C12.973371,16.4675416 12.0722892,17.1283348 11.1661593,18.1923242 C10.8413283,18.573745 10.2631776,18.60507 9.89903727,18.2609786 C8.68434986,17.1131698 7.68187503,16.4239683 6.93259639,16.1877827 C6.1255171,15.9333773 4.10099482,15.697183 0.946458918,15.5037952 C0.484868297,15.4754975 0.125,15.092892 0.125,14.6304348 L0.125,1 C0.125,0.495269152 0.550864755,0.0952040228 1.05461158,0.126705905 C4.14534803,0.31998557 6.25301989,0.56588062 7.42110699,0.877370515 C8.46245039,1.15506209 9.49839357,1.63993576 10.529051,2.32791178 C11.8872784,1.49694222 12.8116826,1.02047411 13.3813657,0.87502309 Z" id="Combined-Shape" fill-rule="nonzero"></path>
                <polygon id="Line" points="9.625 2.5 11.375 2.5 11.375 17.5838854 9.625 17.5838854"></polygon>
            </g>
        </g>
    </g>
</svg>