<svg width="24" height="20" viewBox="0 0 24 20" fill="none" xmlns="http://www.w3.org/2000/svg">
<g id="Icon - Sidebar">
<path id="Union" fill-rule="evenodd" clip-rule="evenodd" d="M5.50013 4.3472C4.9478 4.34712 4.5 4.79486 4.5 5.3472V14.6515C4.5 15.2038 4.94763 15.6515 5.49987 15.6515L7.99987 15.6519C8.5522 15.652 9 15.2042 9 14.6519V5.34753C9 4.7953 8.55237 4.3476 8.00013 4.34753L5.50013 4.3472ZM19.4458 9.32406C19.6248 9.50259 19.7143 9.72883 19.7143 10.0028C19.7143 10.2767 19.6248 10.503 19.4458 10.6815L16.4881 13.6226C16.2968 13.8166 16.0854 13.9135 15.854 13.9135C15.5732 13.9135 15.351 13.8289 15.1875 13.6596C15.0208 13.4934 14.9375 13.2871 14.9375 13.0409C14.9375 12.8962 14.9668 12.77 15.0255 12.6623C15.0841 12.5545 15.1566 12.4591 15.243 12.376L16.2798 11.3556L16.7879 10.8869L15.8771 10.9308H12.1241C11.8279 10.9308 11.5903 10.8462 11.4113 10.6769C11.2324 10.5076 11.1429 10.2829 11.1429 10.0028C11.1429 9.72268 11.2324 9.49798 11.4113 9.32868C11.5903 9.15938 11.8279 9.07474 12.1241 9.07474H15.8771L16.7857 9.11856L16.2798 8.64996L15.243 7.62495C15.1566 7.54184 15.0841 7.44642 15.0255 7.33868C14.9668 7.23095 14.9375 7.10475 14.9375 6.96008C14.9375 6.71383 15.0208 6.50759 15.1875 6.34138C15.351 6.17208 15.5732 6.08743 15.854 6.08743C15.962 6.08743 16.0715 6.11206 16.1826 6.16131C16.2937 6.21056 16.3955 6.28289 16.4881 6.37831L19.4458 9.32406Z" fill="#06806B"/>
<path id="&#244;&#128;&#143;&#154;" d="M4.32292 19C3.22879 19 2.40144 18.7036 1.84086 18.1109C1.28029 17.5253 1 16.6611 1 15.5185V4.48152C1 3.33173 1.28029 2.46402 1.84086 1.87841C2.40144 1.2928 3.22879 1 4.32292 1H19.6669C20.7678 1 21.5986 1.2928 22.1591 1.87841C22.7197 2.46402 23 3.33173 23 4.48152V15.5185C23 16.6611 22.7197 17.5253 22.1591 18.1109C21.5986 18.7036 20.7678 19 19.6669 19H4.32292ZM4.44449 16.8897H19.5555C20.0215 16.8897 20.3795 16.7611 20.6294 16.504C20.8793 16.2469 21.0042 15.8577 21.0042 15.3364V4.65292C21.0042 4.13873 20.8793 3.75308 20.6294 3.49598C20.3795 3.23889 20.0215 3.11034 19.5555 3.11034H4.44449C3.97172 3.11034 3.61038 3.23889 3.36049 3.49598C3.11735 3.75308 2.99578 4.13873 2.99578 4.65292V15.3364C2.99578 15.8577 3.11735 16.2469 3.36049 16.504C3.61038 16.7611 3.97172 16.8897 4.44449 16.8897Z" fill="#06806B"/>
</g>
</svg>
