<svg width="24" height="20" viewBox="0 0 24 20" fill="none" xmlns="http://www.w3.org/2000/svg">
<g id="Icon - Sidebar">
<path id="&#244;&#128;&#143;&#154;" d="M4.32292 19C3.22879 19 2.40144 18.7036 1.84086 18.1109C1.28029 17.5253 1 16.6611 1 15.5185V4.48152C1 3.33173 1.28029 2.46402 1.84086 1.87841C2.40144 1.2928 3.22879 1 4.32292 1H19.6669C20.7678 1 21.5986 1.2928 22.1591 1.87841C22.7197 2.46402 23 3.33173 23 4.48152V15.5185C23 16.6611 22.7197 17.5253 22.1591 18.1109C21.5986 18.7036 20.7678 19 19.6669 19H4.32292ZM4.44449 16.8897H19.5555C20.0215 16.8897 20.3795 16.7611 20.6294 16.504C20.8793 16.2469 21.0042 15.8577 21.0042 15.3364V4.65292C21.0042 4.13873 20.8793 3.75308 20.6294 3.49598C20.3795 3.23889 20.0215 3.11034 19.5555 3.11034H4.44449C3.97172 3.11034 3.61038 3.23889 3.36049 3.49598C3.11735 3.75308 2.99578 4.13873 2.99578 4.65292V15.3364C2.99578 15.8577 3.11735 16.2469 3.36049 16.504C3.61038 16.7611 3.97172 16.8897 4.44449 16.8897Z" fill="#5C5C5C"/>
<path id="Union" fill-rule="evenodd" clip-rule="evenodd" d="M5.14279 4.34766C4.6694 4.34766 4.28564 4.73141 4.28564 5.2048V14.7949C4.28564 15.2682 4.6694 15.652 5.14279 15.652C5.61617 15.652 5.99993 15.2682 5.99993 14.7949V5.2048C5.99993 4.73141 5.61617 4.34766 5.14279 4.34766ZM8.2684 9.32452C8.08943 9.50305 7.99994 9.72929 7.99994 10.0032C7.99994 10.2772 8.08943 10.5034 8.2684 10.682L11.2261 13.6231C11.4174 13.817 11.6288 13.914 11.8602 13.914C12.141 13.914 12.3632 13.8293 12.5268 13.66C12.6934 13.4938 12.7767 13.2876 12.7767 13.0413C12.7767 12.8967 12.7474 12.7705 12.6888 12.6627C12.6301 12.555 12.5576 12.4596 12.4712 12.3765L11.4344 11.3561L10.9263 10.8874L11.8371 10.9313H15.5901C15.8863 10.9313 16.1239 10.8466 16.3029 10.6773C16.4819 10.5081 16.5714 10.2834 16.5714 10.0032C16.5714 9.72313 16.4819 9.49843 16.3029 9.32914C16.1239 9.15984 15.8863 9.07519 15.5901 9.07519H11.8371L10.9285 9.11902L11.4344 8.65041L12.4712 7.62541C12.5576 7.5423 12.6301 7.44687 12.6888 7.33914C12.7474 7.23141 12.7767 7.10521 12.7767 6.96053C12.7767 6.71429 12.6934 6.50805 12.5268 6.34183C12.3632 6.17254 12.141 6.08789 11.8602 6.08789C11.7522 6.08789 11.6427 6.11252 11.5316 6.16177C11.4205 6.21101 11.3187 6.28335 11.2261 6.37877L8.2684 9.32452Z" fill="#5C5C5C"/>
</g>
</svg>
