<svg width="355" height="253" viewBox="0 0 355 253" fill="none" xmlns="http://www.w3.org/2000/svg">
<rect x="0.5" width="354" height="253" rx="4" fill="white"/>
<rect x="41.5" y="42" width="272" height="39" rx="4" fill="#06806B"/>
<rect x="41.5" y="86" width="272" height="39" rx="4" fill="#06806B"/>
<rect x="41.5" y="130" width="272" height="39" rx="4" fill="#06806B"/>
<rect x="41.5" y="174" width="272" height="39" rx="4" fill="#06806B"/>
<rect x="53.5" y="56" width="226" height="4" rx="2" fill="white"/>
<rect x="53.5" y="100" width="226" height="4" rx="2" fill="white"/>
<rect x="53.5" y="144" width="226" height="4" rx="2" fill="white"/>
<rect x="53.5" y="188" width="226" height="4" rx="2" fill="white"/>
<rect x="53.5" y="63" width="155" height="4" rx="2" fill="white"/>
<rect x="53.5" y="107" width="155" height="4" rx="2" fill="white"/>
<rect x="53.5" y="151" width="155" height="4" rx="2" fill="white"/>
<rect x="53.5" y="195" width="155" height="4" rx="2" fill="white"/>
</svg>
