<svg width="354" height="254" viewBox="0 0 354 254" fill="none" xmlns="http://www.w3.org/2000/svg">
<rect y="0.5" width="354" height="253" rx="4" fill="white"/>
<rect x="42" y="43.5" width="270" height="37" rx="3" fill="white" stroke="#ACB9C1" stroke-width="2"/>
<rect x="42" y="87.5" width="270" height="37" rx="3" fill="white" stroke="#ACB9C1" stroke-width="2"/>
<rect x="42" y="131.5" width="270" height="37" rx="3" fill="white" stroke="#ACB9C1" stroke-width="2"/>
<rect x="42" y="175.5" width="270" height="37" rx="3" fill="white" stroke="#ACB9C1" stroke-width="2"/>
<rect x="53" y="56.5" width="226" height="4" rx="2" fill="#ACB9C1"/>
<rect x="53" y="100.5" width="226" height="4" rx="2" fill="#ACB9C1"/>
<rect x="53" y="144.5" width="226" height="4" rx="2" fill="#ACB9C1"/>
<rect x="53" y="188.5" width="226" height="4" rx="2" fill="#ACB9C1"/>
<rect x="53" y="63.5" width="155" height="4" rx="2" fill="#ACB9C1"/>
<rect x="53" y="107.5" width="155" height="4" rx="2" fill="#ACB9C1"/>
<rect x="53" y="151.5" width="155" height="4" rx="2" fill="#ACB9C1"/>
<rect x="53" y="195.5" width="155" height="4" rx="2" fill="#ACB9C1"/>
</svg>
