<svg width="354" height="254" viewBox="0 0 354 254" fill="none" xmlns="http://www.w3.org/2000/svg">
<rect y="0.5" width="354" height="253" rx="4" fill="white"/>
<rect x="42" y="43.5" width="270" height="37" rx="3" fill="white" stroke="#ACB9C1" stroke-width="2"/>
<rect x="41" y="86.5" width="272" height="39" rx="4" fill="#ACB9C1"/>
<rect x="41" y="130.5" width="272" height="39" rx="4" fill="#ACB9C1"/>
<rect x="41" y="174.5" width="272" height="39" rx="4" fill="#ACB9C1"/>
<rect x="53" y="56.5" width="226" height="4" rx="2" fill="#ACB9C1"/>
<rect x="53" y="63.5" width="155" height="4" rx="2" fill="#ACB9C1"/>
<path d="M172.816 202.478H181.184C181.752 202.478 182.174 202.331 182.449 202.038C182.73 201.751 182.871 201.3 182.871 200.685V194.233C182.871 193.624 182.73 193.176 182.449 192.889C182.174 192.596 181.752 192.449 181.184 192.449L172.992 192.467C172.43 192.467 171.979 192.61 171.639 192.897C171.299 193.185 171.129 193.63 171.129 194.233V200.685C171.129 201.3 171.27 201.751 171.551 202.038C171.832 202.331 172.254 202.478 172.816 202.478ZM172.526 193.038H173.941V190.059C173.941 189.32 174.082 188.702 174.363 188.204C174.645 187.7 175.017 187.322 175.479 187.07C175.948 186.812 176.455 186.684 177 186.684C177.551 186.684 178.058 186.812 178.521 187.07C178.983 187.322 179.355 187.7 179.637 188.204C179.918 188.702 180.059 189.32 180.059 190.059V193.038H181.474V190.243C181.474 189.417 181.351 188.696 181.104 188.081C180.858 187.466 180.524 186.956 180.103 186.552C179.681 186.142 179.2 185.837 178.661 185.638C178.128 185.433 177.574 185.33 177 185.33C176.426 185.33 175.872 185.433 175.339 185.638C174.806 185.837 174.328 186.142 173.906 186.552C173.484 186.956 173.147 187.466 172.896 188.081C172.649 188.696 172.526 189.417 172.526 190.243V193.038Z" fill="white"/>
<path d="M172.816 158.478H181.184C181.752 158.478 182.174 158.331 182.449 158.038C182.73 157.751 182.871 157.3 182.871 156.685V150.233C182.871 149.624 182.73 149.176 182.449 148.889C182.174 148.596 181.752 148.449 181.184 148.449L172.992 148.467C172.43 148.467 171.979 148.61 171.639 148.897C171.299 149.185 171.129 149.63 171.129 150.233V156.685C171.129 157.3 171.27 157.751 171.551 158.038C171.832 158.331 172.254 158.478 172.816 158.478ZM172.526 149.038H173.941V146.059C173.941 145.32 174.082 144.702 174.363 144.204C174.645 143.7 175.017 143.322 175.479 143.07C175.948 142.812 176.455 142.684 177 142.684C177.551 142.684 178.058 142.812 178.521 143.07C178.983 143.322 179.355 143.7 179.637 144.204C179.918 144.702 180.059 145.32 180.059 146.059V149.038H181.474V146.243C181.474 145.417 181.351 144.696 181.104 144.081C180.858 143.466 180.524 142.956 180.103 142.552C179.681 142.142 179.2 141.837 178.661 141.638C178.128 141.433 177.574 141.33 177 141.33C176.426 141.33 175.872 141.433 175.339 141.638C174.806 141.837 174.328 142.142 173.906 142.552C173.484 142.956 173.147 143.466 172.896 144.081C172.649 144.696 172.526 145.417 172.526 146.243V149.038Z" fill="white"/>
<path d="M172.816 114.478H181.184C181.752 114.478 182.174 114.331 182.449 114.038C182.73 113.751 182.871 113.3 182.871 112.685V106.233C182.871 105.624 182.73 105.176 182.449 104.889C182.174 104.596 181.752 104.449 181.184 104.449L172.992 104.467C172.43 104.467 171.979 104.61 171.639 104.897C171.299 105.185 171.129 105.63 171.129 106.233V112.685C171.129 113.3 171.27 113.751 171.551 114.038C171.832 114.331 172.254 114.478 172.816 114.478ZM172.526 105.038H173.941V102.059C173.941 101.32 174.082 100.702 174.363 100.204C174.645 99.7002 175.017 99.3223 175.479 99.0703C175.948 98.8125 176.455 98.6836 177 98.6836C177.551 98.6836 178.058 98.8125 178.521 99.0703C178.983 99.3223 179.355 99.7002 179.637 100.204C179.918 100.702 180.059 101.32 180.059 102.059V105.038H181.474V102.243C181.474 101.417 181.351 100.696 181.104 100.081C180.858 99.4658 180.524 98.9561 180.103 98.5518C179.681 98.1416 179.2 97.8369 178.661 97.6377C178.128 97.4326 177.574 97.3301 177 97.3301C176.426 97.3301 175.872 97.4326 175.339 97.6377C174.806 97.8369 174.328 98.1416 173.906 98.5518C173.484 98.9561 173.147 99.4658 172.896 100.081C172.649 100.696 172.526 101.417 172.526 102.243V105.038Z" fill="white"/>
</svg>
