<svg width="355" height="253" viewBox="0 0 355 253" fill="none" xmlns="http://www.w3.org/2000/svg">
<rect x="0.5" width="354" height="253" rx="4" fill="white"/>
<rect x="41.5" y="42" width="272" height="39" rx="4" fill="#06806B"/>
<rect opacity="0.5" x="41.5" y="86" width="272" height="39" rx="4" fill="#06806B"/>
<rect opacity="0.5" x="41.5" y="130" width="272" height="39" rx="4" fill="#06806B"/>
<rect opacity="0.5" x="41.5" y="174" width="272" height="39" rx="4" fill="#06806B"/>
<rect x="53.5" y="56" width="226" height="4" rx="2" fill="white"/>
<rect x="53.5" y="63" width="155" height="4" rx="2" fill="white"/>
<path d="M173.316 201.978H181.684C182.252 201.978 182.674 201.831 182.949 201.538C183.23 201.251 183.371 200.8 183.371 200.185V193.733C183.371 193.124 183.23 192.676 182.949 192.389C182.674 192.096 182.252 191.949 181.684 191.949L173.492 191.967C172.93 191.967 172.479 192.11 172.139 192.397C171.799 192.685 171.629 193.13 171.629 193.733V200.185C171.629 200.8 171.77 201.251 172.051 201.538C172.332 201.831 172.754 201.978 173.316 201.978ZM173.026 192.538H174.441V189.559C174.441 188.82 174.582 188.202 174.863 187.704C175.145 187.2 175.517 186.822 175.979 186.57C176.448 186.312 176.955 186.184 177.5 186.184C178.051 186.184 178.558 186.312 179.021 186.57C179.483 186.822 179.855 187.2 180.137 187.704C180.418 188.202 180.559 188.82 180.559 189.559V192.538H181.974V189.743C181.974 188.917 181.851 188.196 181.604 187.581C181.358 186.966 181.024 186.456 180.603 186.052C180.181 185.642 179.7 185.337 179.161 185.138C178.628 184.933 178.074 184.83 177.5 184.83C176.926 184.83 176.372 184.933 175.839 185.138C175.306 185.337 174.828 185.642 174.406 186.052C173.984 186.456 173.647 186.966 173.396 187.581C173.149 188.196 173.026 188.917 173.026 189.743V192.538Z" fill="white"/>
<path d="M173.316 157.978H181.684C182.252 157.978 182.674 157.831 182.949 157.538C183.23 157.251 183.371 156.8 183.371 156.185V149.733C183.371 149.124 183.23 148.676 182.949 148.389C182.674 148.096 182.252 147.949 181.684 147.949L173.492 147.967C172.93 147.967 172.479 148.11 172.139 148.397C171.799 148.685 171.629 149.13 171.629 149.733V156.185C171.629 156.8 171.77 157.251 172.051 157.538C172.332 157.831 172.754 157.978 173.316 157.978ZM173.026 148.538H174.441V145.559C174.441 144.82 174.582 144.202 174.863 143.704C175.145 143.2 175.517 142.822 175.979 142.57C176.448 142.312 176.955 142.184 177.5 142.184C178.051 142.184 178.558 142.312 179.021 142.57C179.483 142.822 179.855 143.2 180.137 143.704C180.418 144.202 180.559 144.82 180.559 145.559V148.538H181.974V145.743C181.974 144.917 181.851 144.196 181.604 143.581C181.358 142.966 181.024 142.456 180.603 142.052C180.181 141.642 179.7 141.337 179.161 141.138C178.628 140.933 178.074 140.83 177.5 140.83C176.926 140.83 176.372 140.933 175.839 141.138C175.306 141.337 174.828 141.642 174.406 142.052C173.984 142.456 173.647 142.966 173.396 143.581C173.149 144.196 173.026 144.917 173.026 145.743V148.538Z" fill="white"/>
<path d="M173.316 113.978H181.684C182.252 113.978 182.674 113.831 182.949 113.538C183.23 113.251 183.371 112.8 183.371 112.185V105.733C183.371 105.124 183.23 104.676 182.949 104.389C182.674 104.096 182.252 103.949 181.684 103.949L173.492 103.967C172.93 103.967 172.479 104.11 172.139 104.397C171.799 104.685 171.629 105.13 171.629 105.733V112.185C171.629 112.8 171.77 113.251 172.051 113.538C172.332 113.831 172.754 113.978 173.316 113.978ZM173.026 104.538H174.441V101.559C174.441 100.82 174.582 100.202 174.863 99.7041C175.145 99.2002 175.517 98.8223 175.979 98.5703C176.448 98.3125 176.955 98.1836 177.5 98.1836C178.051 98.1836 178.558 98.3125 179.021 98.5703C179.483 98.8223 179.855 99.2002 180.137 99.7041C180.418 100.202 180.559 100.82 180.559 101.559V104.538H181.974V101.743C181.974 100.917 181.851 100.196 181.604 99.5811C181.358 98.9658 181.024 98.4561 180.603 98.0518C180.181 97.6416 179.7 97.3369 179.161 97.1377C178.628 96.9326 178.074 96.8301 177.5 96.8301C176.926 96.8301 176.372 96.9326 175.839 97.1377C175.306 97.3369 174.828 97.6416 174.406 98.0518C173.984 98.4561 173.647 98.9658 173.396 99.5811C173.149 100.196 173.026 100.917 173.026 101.743V104.538Z" fill="white"/>
</svg>
