<?xml version="1.0" encoding="utf-8"?>
<!-- Generator: Adobe Illustrator 19.0.0, SVG Export Plug-In . SVG Version: 6.00 Build 0)  -->
<svg version="1.1" id="Layer_1" xmlns="http://www.w3.org/2000/svg" xmlns:xlink="http://www.w3.org/1999/xlink" x="0px" y="0px"
	 viewBox="-307 367 665 67" style="enable-background:new -307 367 665 67;" xml:space="preserve">
<style type="text/css">
	.st0{fill:#2F66A8;}
	.st1{fill:#FFFFFF;}
	.st2{font-family:'Roboto-Medium';}
	.st3{font-size:27.17px;}
</style>
<path class="st0" d="M-295.6,367h642.2c6.3,0,11.4,2.8,11.4,6.3v54.4c0,3.5-5.1,6.3-11.4,6.3h-642.2c-6.3,0-11.4-2.8-11.4-6.3v-54.4
	C-307,369.8-301.9,367-295.6,367z"/>
<g>
	<path class="st1" d="M-105.9,421.8h-30.6c-3.3,0-6-2.7-6-6v-30.6c0-3.3,2.7-6,6-6h30.6c3.3,0,6,2.7,6,6v30.6
		C-99.9,419.1-102.6,421.8-105.9,421.8z"/>
	<path class="st0" d="M-119.6,416.1c-8.9,0-15.4-6.8-15.4-15.5v-0.1c0-8.6,6.5-15.6,15.7-15.6c5.7,0,9.1,1.9,11.9,4.6l-4.2,4.9
		c-2.3-2.1-4.7-3.4-7.7-3.4c-5.1,0-8.7,4.2-8.7,9.4v0.1c0,5.2,3.6,9.5,8.7,9.5c3.4,0,5.6-1.4,7.9-3.5l4.2,4.3
		C-110.4,414-113.8,416.1-119.6,416.1z"/>
</g>
<text transform="matrix(1.0096 0 0 1 -65.0007 411.0004)" class="st1 st2 st3">Log In with Clever</text>
</svg>
