<svg xmlns="http://www.w3.org/2000/svg" xmlns:xlink="http://www.w3.org/1999/xlink" preserveAspectRatio="xMidYMid" width="665" height="67" viewBox="0 0 665 67">
  <defs>
    <style>
      .cls-1 {
        fill: #4285f4;
      }

      .cls-1, .cls-2 {
        fill-rule: evenodd;
      }

      .cls-2, .cls-4 {
        fill: #fff;
      }

      .cls-3, .cls-4 {
        font-size: 13px;
      }

      .cls-4 {
        font-family: "Roboto-Medium";
      }
    </style>
  </defs>
  <g>
    <path d="M11.400,0.000 L653.600,0.000 C659.896,0.000 665.000,2.812 665.000,6.281 L665.000,60.719 C665.000,64.188 659.896,67.000 653.600,67.000 L11.400,67.000 C5.104,67.000 0.000,64.188 0.000,60.719 L0.000,6.281 C0.000,2.812 5.104,0.000 11.400,0.000 Z" class="cls-1"/>
    <path d="M192.560,14.644 C192.914,14.869 193.313,15.198 193.756,15.630 C194.181,16.080 194.598,16.635 195.006,17.292 C195.396,17.912 195.741,18.644 196.043,19.489 C196.291,20.334 196.415,21.320 196.415,22.447 C196.381,24.513 195.936,26.165 195.078,27.405 C194.657,28.006 194.211,28.559 193.741,29.067 C193.219,29.574 192.664,30.090 192.076,30.616 C191.739,30.973 191.428,31.377 191.142,31.827 C190.806,32.297 190.638,32.842 190.638,33.461 C190.638,34.062 190.810,34.560 191.155,34.954 C191.448,35.330 191.733,35.658 192.009,35.940 L193.924,37.546 C195.114,38.541 196.158,39.639 197.055,40.841 C197.901,42.062 198.341,43.658 198.375,45.630 C198.375,48.428 197.167,50.907 194.752,53.067 C192.247,55.302 188.633,56.457 183.910,56.532 C179.956,56.494 177.004,55.632 175.054,53.945 C173.086,52.370 172.102,50.487 172.102,48.294 C172.102,47.225 172.422,46.035 173.062,44.723 C173.683,43.410 174.808,42.258 176.436,41.265 C178.264,40.196 180.185,39.484 182.197,39.128 C184.190,38.827 185.845,38.659 187.162,38.621 C186.755,38.074 186.392,37.488 186.073,36.865 C185.702,36.261 185.516,35.534 185.516,34.684 C185.516,34.175 185.587,33.749 185.728,33.410 C185.852,33.051 185.967,32.721 186.073,32.419 C185.432,32.494 184.828,32.532 184.260,32.532 C181.255,32.494 178.964,31.527 177.389,29.631 C175.740,27.866 174.915,25.810 174.915,23.462 C174.915,20.627 176.084,18.055 178.420,15.745 C180.025,14.393 181.693,13.511 183.422,13.097 C185.135,12.741 186.740,12.562 188.238,12.562 L199.527,12.562 L196.041,14.644 L192.560,14.644 ZM194.740,47.888 C194.740,46.423 194.273,45.145 193.338,44.056 C192.350,43.023 190.804,41.755 188.701,40.253 C188.342,40.215 187.920,40.196 187.434,40.196 C187.147,40.159 186.410,40.196 185.223,40.309 C184.055,40.478 182.860,40.750 181.638,41.126 C181.350,41.239 180.946,41.407 180.425,41.633 C179.903,41.877 179.373,42.225 178.834,42.676 C178.313,43.145 177.873,43.727 177.513,44.423 C177.099,45.155 176.893,46.037 176.893,47.071 C176.893,49.099 177.791,50.771 179.589,52.086 C181.296,53.401 183.633,54.077 186.598,54.115 C189.259,54.077 191.290,53.476 192.691,52.311 C194.057,51.165 194.740,49.691 194.740,47.888 ZM186.870,30.959 C188.356,30.903 189.594,30.357 190.585,29.322 C191.062,28.588 191.370,27.836 191.506,27.064 C191.588,26.293 191.629,25.644 191.629,25.116 C191.629,22.839 191.060,20.544 189.921,18.229 C189.388,17.119 188.685,16.216 187.813,15.519 C186.923,14.861 185.901,14.513 184.744,14.475 C183.215,14.513 181.942,15.143 180.929,16.366 C180.074,17.646 179.664,19.076 179.701,20.656 C179.701,22.745 180.298,24.919 181.494,27.177 C182.072,28.231 182.819,29.125 183.734,29.859 C184.648,30.593 185.694,30.959 186.870,30.959 Z" class="cls-2"/>
    <text transform="translate(242 44) scale(2.11 2.09)" class="cls-3"><tspan class="cls-4">Login with Google</tspan></text>
  </g>
</svg>
