<svg width="96" height="96" viewBox="0 0 96 96" fill="none" xmlns="http://www.w3.org/2000/svg">
<g id="XL / Book-Empty">
<g id="book 2">
<g id="book">
<path id="Path" d="M89.087 88.9999H6.91304C4.75193 88.9999 3 87.2514 3 85.0944V18.7004C3 16.5435 4.75193 14.7949 6.91304 14.7949H89.087C91.2481 14.7949 93 16.5435 93 18.7004V85.0944C93 87.2514 91.2481 88.9999 89.087 88.9999Z" fill="#737373"/>
<path id="Path_2" d="M47.9996 79.2363C47.9996 79.2363 38.5689 75.5329 14.7393 75.3387C13.663 75.3299 12.7822 74.463 12.7822 73.3887V12.8423C38.054 12.8423 47.9996 16.7478 47.9996 16.7478V79.2363Z" fill="#B3B3B3"/>
<path id="Path_3" d="M48 79.2363C48 79.2363 57.4307 75.5329 81.2603 75.3387C82.3366 75.3299 83.2174 74.463 83.2174 73.3887V12.8423C57.9456 12.8423 48 16.7478 48 16.7478V79.2363Z" fill="#B3B3B3"/>
<path id="Path_4" d="M47.9996 77.2834C47.9996 77.2834 34.8513 69.8728 10.8147 69.4879C9.74402 69.4707 8.86914 68.6131 8.86914 67.5444V8.96182C8.86914 7.87358 9.77427 6.98236 10.8644 7.00027C34.8694 7.39453 47.9996 14.795 47.9996 14.795V77.2834Z" fill="#E6E6E6"/>
<path id="Path_5" d="M48 77.2834C48 77.2834 61.1483 69.8728 85.1849 69.4879C86.2556 69.4707 87.1304 68.6131 87.1304 67.5444V8.96182C87.1304 7.87358 86.2253 6.98236 85.1351 7.00027C61.1302 7.39453 48 14.795 48 14.795V77.2834Z" fill="#D1D1D1"/>
</g>
</g>
</g>
</svg>
