<svg width="96" height="96" viewBox="0 0 96 96" fill="none" xmlns="http://www.w3.org/2000/svg">
<g id="XL / Clipboard">
<g id="notepad">
<path id="Path" d="M86 94H10C8.896 94 8 93.104 8 92V8C8 6.896 8.896 6 10 6H86C87.104 6 88 6.896 88 8V92C88 93.104 87.104 94 86 94Z" fill="#737373"/>
<path id="Path_2" d="M78 86H18C16.896 86 16 85.104 16 84V16C16 14.896 16.896 14 18 14H78C79.104 14 80 14.896 80 16V84C80 85.104 79.104 86 78 86Z" fill="#E6E6E6"/>
<path id="Path_3" d="M64 22H56C54.896 22 54 21.104 54 20C54 16.692 51.308 14 48 14C44.692 14 42 16.692 42 20C42 21.104 41.104 22 40 22H32C30.896 22 30 21.104 30 20V4C30 2.896 30.896 2 32 2H64C65.104 2 66 2.896 66 4V20C66 21.104 65.104 22 64 22Z" fill="#B3B3B3"/>
<path id="Path_4" d="M66 36H30C28.894 36 28 35.104 28 34C28 32.896 28.894 32 30 32H66C67.106 32 68 32.896 68 34C68 35.104 67.106 36 66 36Z" fill="#B3B3B3"/>
<path id="Path_5" d="M66 52H30C28.894 52 28 51.104 28 50C28 48.896 28.894 48 30 48H66C67.106 48 68 48.896 68 50C68 51.104 67.106 52 66 52Z" fill="#B3B3B3"/>
<path id="Path_6" d="M66 68H30C28.894 68 28 67.104 28 66C28 64.896 28.894 64 30 64H66C67.106 64 68 64.896 68 66C68 67.104 67.106 68 66 68Z" fill="#B3B3B3"/>
</g>
</g>
</svg>
