<svg width="89" height="88" viewBox="0 0 89 88" fill="none" xmlns="http://www.w3.org/2000/svg">
<g id="XL / Comment-Document">
<path id="Union" fill-rule="evenodd" clip-rule="evenodd" d="M75.9337 1.72022e-05C76.6636 -0.00254953 77.3649 0.282211 77.8868 0.792404L77.8867 0.792192C78.4161 1.30436 78.7143 2.01021 78.7129 2.74672V21.313C78.712 22.0421 78.4221 22.741 77.9065 23.2567C77.3909 23.7723 76.6919 24.0622 75.9628 24.063H52.3907L45.2082 29.9399C44.938 30.1608 44.5943 30.2708 44.2462 30.2479C43.8979 30.2247 43.5716 30.07 43.3333 29.8153C43.0949 29.5604 42.9623 29.2246 42.9623 28.8757V2.77501C42.9674 2.04276 43.2628 1.34267 43.783 0.827891C44.3035 0.312836 45.0068 0.0252265 45.739 0.0278046L75.9311 1.72022e-05H75.9337ZM51.9002 21.313H75.9629L75.9632 2.76179L45.7418 2.77783L45.716 25.9715L51.0293 21.6239C51.2751 21.4228 51.5828 21.313 51.9002 21.313ZM50.5214 33.6887H17.5206C17.0293 33.6887 16.5755 33.9509 16.3298 34.3763C16.0843 34.8017 16.0843 35.3259 16.3298 35.7513C16.5756 36.1767 17.0293 36.4388 17.5206 36.4388H50.5214C51.0127 36.4388 51.4665 36.1767 51.7122 35.7513C51.9577 35.3259 51.9577 34.8017 51.7122 34.3763C51.4664 33.9509 51.0127 33.6887 50.5214 33.6887ZM50.5214 40.5632H17.5206C17.0293 40.5632 16.5755 40.8253 16.3298 41.2507C16.0843 41.6761 16.0843 42.2003 16.3298 42.6257C16.5756 43.0511 17.0293 43.3132 17.5206 43.3132H50.5214C51.0127 43.3132 51.4665 43.0511 51.7122 42.6257C51.9577 42.2003 51.9577 41.6761 51.7122 41.2507C51.4664 40.8253 51.0127 40.5632 50.5214 40.5632ZM17.5206 47.4391H50.5214C51.0127 47.4391 51.4664 47.7012 51.7122 48.1266C51.9577 48.552 51.9577 49.0762 51.7122 49.5016C51.4665 49.927 51.0127 50.1891 50.5214 50.1891H17.5206C17.0293 50.1891 16.5756 49.927 16.3298 49.5016C16.0843 49.0762 16.0843 48.552 16.3298 48.1266C16.5755 47.7012 17.0293 47.4391 17.5206 47.4391ZM50.5214 54.3135H17.5206C17.0293 54.3135 16.5755 54.5756 16.3298 55.001C16.0843 55.4264 16.0843 55.9506 16.3298 56.3761C16.5756 56.8015 17.0293 57.0636 17.5206 57.0636H50.5214C51.0127 57.0636 51.4665 56.8015 51.7122 56.3761C51.9577 55.9507 51.9577 55.4264 51.7122 55.001C51.4664 54.5756 51.0127 54.3135 50.5214 54.3135ZM17.5206 61.1894H50.5214C51.0127 61.1894 51.4664 61.4515 51.7122 61.8769C51.9577 62.3024 51.9577 62.8266 51.7122 63.252C51.4665 63.6774 51.0127 63.9395 50.5214 63.9395H17.5206C17.0293 63.9395 16.5756 63.6774 16.3298 63.252C16.0843 62.8266 16.0843 62.3023 16.3298 61.8769C16.5755 61.4515 17.0293 61.1894 17.5206 61.1894ZM50.5214 68.0639H17.5206C17.0293 68.0639 16.5755 68.326 16.3298 68.7514C16.0843 69.1768 16.0843 69.701 16.3298 70.1264C16.5756 70.5518 17.0293 70.8139 17.5206 70.8139H50.5214C51.0127 70.8139 51.4665 70.5518 51.7122 70.1264C51.9577 69.701 51.9577 69.1768 51.7122 68.7514C51.4664 68.326 51.0127 68.0639 50.5214 68.0639ZM51.2082 13.7506H53.9583C54.4496 13.7506 54.9034 13.4884 55.1491 13.063C55.3946 12.6376 55.3946 12.1134 55.1491 11.688C54.9033 11.2626 54.4496 11.0005 53.9583 11.0005H51.2082C50.7169 11.0005 50.2632 11.2626 50.0174 11.688C49.7719 12.1134 49.7719 12.6376 50.0174 13.063C50.2632 13.4884 50.717 13.7506 51.2082 13.7506ZM62.2103 13.7507H59.4602C58.969 13.7507 58.5152 13.4886 58.2694 13.0632C58.0239 12.6378 58.0239 12.1136 58.2694 11.6882C58.5152 11.2628 58.969 11.0007 59.4602 11.0007H62.2103C62.7016 11.0007 63.1553 11.2628 63.4011 11.6882C63.6466 12.1136 63.6466 12.6378 63.4011 13.0632C63.1554 13.4886 62.7016 13.7507 62.2103 13.7507ZM67.7102 13.7501H70.4603C70.9516 13.7501 71.4054 13.488 71.6511 13.0626C71.8966 12.6371 71.8966 12.1129 71.6511 11.6875C71.4053 11.2621 70.9516 11 70.4603 11H67.7102C67.219 11 66.7652 11.2621 66.5194 11.6875C66.2739 12.1129 66.2739 12.6371 66.5194 13.0626C66.7652 13.488 67.219 13.7501 67.7102 13.7501ZM49.1464 73.5625H56.7087L56.7095 26.8106H59.4595V75.5066L46.9662 88H12.7084C11.6147 87.9989 10.5662 87.5637 9.79273 86.7906C9.01957 86.0171 8.58443 84.9686 8.58328 83.8749V20.6233C8.58438 19.5296 9.01955 18.4811 9.79273 17.7077C10.5662 16.9345 11.6147 16.4994 12.7084 16.4982H40.2091V19.2483H12.7084C12.3437 19.2486 11.9942 19.3935 11.7364 19.6514C11.4786 19.9092 11.3336 20.2587 11.3333 20.6233V83.8749C11.3336 84.2396 11.4786 84.5891 11.7364 84.8469C11.9942 85.1047 12.3437 85.2497 12.7084 85.25H45.0213V77.6876C45.0224 76.5939 45.4576 75.5454 46.2308 74.772C47.0042 73.9988 48.0527 73.5637 49.1464 73.5625ZM47.7707 77.688V83.3058L54.7635 76.313H49.1457C48.781 76.3132 48.4315 76.4582 48.1737 76.716C47.9159 76.9738 47.7709 77.3233 47.7707 77.688Z" fill="#2C7F9B"/>
</g>
</svg>
