<svg width="88" height="88" viewBox="0 0 88 88" fill="none" xmlns="http://www.w3.org/2000/svg">
<g id="XL / Comment-Document">
<path id="Union" fill-rule="evenodd" clip-rule="evenodd" d="M75.6004 1.72022e-05C76.3303 -0.00254953 77.0316 0.282211 77.5535 0.792404L77.5534 0.792192C78.0828 1.30436 78.381 2.01021 78.3796 2.74672V21.313C78.3787 22.0421 78.0888 22.741 77.5732 23.2567C77.0576 23.7723 76.3586 24.0622 75.6295 24.063H52.0574L44.8749 29.9399C44.6048 30.1608 44.261 30.2708 43.913 30.2479C43.5646 30.2247 43.2383 30.07 43 29.8153C42.7617 29.5604 42.629 29.2246 42.629 28.8757V2.77501C42.6342 2.04276 42.9295 1.34267 43.4497 0.827891C43.9703 0.312836 44.6735 0.0252265 45.4057 0.0278046L75.5978 1.72022e-05H75.6004ZM51.5669 21.313H75.6296L75.6299 2.76179L45.4085 2.77783L45.3827 25.9715L50.6961 21.6239C50.9418 21.4228 51.2495 21.313 51.5669 21.313ZM50.1881 33.6887H17.1873C16.696 33.6887 16.2422 33.9509 15.9965 34.3763C15.751 34.8017 15.751 35.3259 15.9965 35.7513C16.2423 36.1767 16.696 36.4388 17.1873 36.4388H50.1881C50.6794 36.4388 51.1332 36.1767 51.3789 35.7513C51.6245 35.3259 51.6245 34.8017 51.3789 34.3763C51.1332 33.9509 50.6794 33.6887 50.1881 33.6887ZM50.1881 40.5632H17.1873C16.696 40.5632 16.2422 40.8253 15.9965 41.2507C15.751 41.6761 15.751 42.2003 15.9965 42.6257C16.2423 43.0511 16.696 43.3132 17.1873 43.3132H50.1881C50.6794 43.3132 51.1332 43.0511 51.3789 42.6257C51.6245 42.2003 51.6245 41.6761 51.3789 41.2507C51.1332 40.8253 50.6794 40.5632 50.1881 40.5632ZM17.1873 47.4391H50.1881C50.6794 47.4391 51.1332 47.7012 51.3789 48.1266C51.6245 48.552 51.6245 49.0762 51.3789 49.5016C51.1332 49.927 50.6794 50.1891 50.1881 50.1891H17.1873C16.696 50.1891 16.2423 49.927 15.9965 49.5016C15.751 49.0762 15.751 48.552 15.9965 48.1266C16.2422 47.7012 16.696 47.4391 17.1873 47.4391ZM50.1881 54.3135H17.1873C16.696 54.3135 16.2422 54.5756 15.9965 55.001C15.751 55.4264 15.751 55.9506 15.9965 56.3761C16.2423 56.8015 16.696 57.0636 17.1873 57.0636H50.1881C50.6794 57.0636 51.1332 56.8015 51.3789 56.3761C51.6245 55.9507 51.6245 55.4264 51.3789 55.001C51.1332 54.5756 50.6794 54.3135 50.1881 54.3135ZM17.1873 61.1894H50.1881C50.6794 61.1894 51.1332 61.4515 51.3789 61.8769C51.6245 62.3024 51.6245 62.8266 51.3789 63.252C51.1332 63.6774 50.6794 63.9395 50.1881 63.9395H17.1873C16.696 63.9395 16.2423 63.6774 15.9965 63.252C15.751 62.8266 15.751 62.3023 15.9965 61.8769C16.2422 61.4515 16.696 61.1894 17.1873 61.1894ZM50.1881 68.0639H17.1873C16.696 68.0639 16.2422 68.326 15.9965 68.7514C15.751 69.1768 15.751 69.701 15.9965 70.1264C16.2423 70.5518 16.696 70.8139 17.1873 70.8139H50.1881C50.6794 70.8139 51.1332 70.5518 51.3789 70.1264C51.6245 69.701 51.6245 69.1768 51.3789 68.7514C51.1332 68.326 50.6794 68.0639 50.1881 68.0639ZM50.8749 13.7506H53.625C54.1163 13.7506 54.5701 13.4884 54.8158 13.063C55.0613 12.6376 55.0613 12.1134 54.8158 11.688C54.57 11.2626 54.1163 11.0005 53.625 11.0005H50.8749C50.3837 11.0005 49.9299 11.2626 49.6841 11.688C49.4386 12.1134 49.4386 12.6376 49.6841 13.063C49.9299 13.4884 50.3837 13.7506 50.8749 13.7506ZM61.877 13.7507H59.127C58.6357 13.7507 58.1819 13.4886 57.9361 13.0632C57.6906 12.6378 57.6906 12.1136 57.9361 11.6882C58.1819 11.2628 58.6357 11.0007 59.127 11.0007H61.877C62.3683 11.0007 62.822 11.2628 63.0678 11.6882C63.3133 12.1136 63.3133 12.6378 63.0678 13.0632C62.8221 13.4886 62.3683 13.7507 61.877 13.7507ZM67.377 13.7501H70.127C70.6183 13.7501 71.0721 13.488 71.3178 13.0626C71.5633 12.6371 71.5633 12.1129 71.3178 11.6875C71.072 11.2621 70.6183 11 70.127 11H67.377C66.8857 11 66.4319 11.2621 66.1861 11.6875C65.9406 12.1129 65.9406 12.6371 66.1861 13.0626C66.4319 13.488 66.8857 13.7501 67.377 13.7501ZM48.8131 73.5625H56.3755L56.3762 26.8106H59.1263V75.5066L46.6329 88H12.3751C11.2814 87.9989 10.2329 87.5637 9.45944 86.7906C8.68629 86.0171 8.25115 84.9686 8.25 83.8749V20.6233C8.2511 19.5296 8.68627 18.4811 9.45944 17.7077C10.2329 16.9345 11.2814 16.4994 12.3751 16.4982H39.8758V19.2483H12.3751C12.0104 19.2486 11.6609 19.3935 11.4031 19.6514C11.1453 19.9092 11.0003 20.2587 11.0001 20.6233V83.8749C11.0003 84.2396 11.1453 84.5891 11.4031 84.8469C11.6609 85.1047 12.0104 85.2497 12.3751 85.25H44.688V77.6876C44.6891 76.5939 45.1243 75.5454 45.8975 74.772C46.6709 73.9988 47.7194 73.5637 48.8131 73.5625ZM47.4374 77.688V83.3058L54.4303 76.313H48.8124C48.4477 76.3132 48.0982 76.4582 47.8404 76.716C47.5826 76.9738 47.4377 77.3233 47.4374 77.688Z" fill="black"/>
</g>
</svg>
