<svg width="96" height="96" viewBox="0 0 96 96" fill="none" xmlns="http://www.w3.org/2000/svg">
<g id="XL / Diagnostic">
<g id="grammar-check">
<path id="Path" d="M76 94H4C2.894 94 2 93.106 2 92V4C2 2.894 2.894 2 4 2H76C77.106 2 78 2.894 78 4V92C78 93.106 77.106 94 76 94Z" fill="#E6E6E6"/>
<path id="Path_2" d="M44.01 30H20C18.894 30 18 29.106 18 28C18 26.894 18.894 26 20 26H44.01C45.116 26 46.01 26.894 46.01 28C46.01 29.106 45.116 30 44.01 30Z" fill="#B3B3B3"/>
<path id="Path_3" d="M41.666 50H20C18.894 50 18 49.106 18 48C18 46.894 18.894 46 20 46H41.666C42.772 46 43.666 46.894 43.666 48C43.666 49.106 42.772 50 41.666 50Z" fill="#B3B3B3"/>
<path id="Path_4" d="M60 70H20C18.894 70 18 69.106 18 68C18 66.894 18.894 66 20 66H60C61.106 66 62 66.894 62 68C62 69.106 61.106 70 60 70Z" fill="#B3B3B3"/>
<path id="Path_5" d="M91.9995 70C91.4875 70 90.9755 69.804 90.5855 69.414L74.5855 53.414C73.8035 52.632 73.8035 51.368 74.5855 50.586C75.3675 49.804 76.6315 49.804 77.4135 50.586L93.4135 66.586C94.1955 67.368 94.1955 68.632 93.4135 69.414C93.0235 69.804 92.5115 70 91.9995 70Z" fill="#B3B3B3"/>
<path id="Path_6" d="M60 62C47.87 62 38 52.13 38 40C38 27.87 47.87 18 60 18C72.13 18 82 27.87 82 40C82 52.13 72.13 62 60 62Z" fill="#737373"/>
<path id="Path_7" d="M60.0002 22C50.7362 22 43.1142 29.002 42.1182 38H56.0002C58.2082 38 60.0002 39.792 60.0002 42C60.0002 44.208 58.2082 46 56.0002 46H43.0462C45.5202 52.986 52.1662 58 60.0002 58C69.9422 58 78.0002 49.942 78.0002 40C78.0002 30.058 69.9422 22 60.0002 22Z" fill="#C5C5C5"/>
<path id="Path_8" d="M60 42C60 39.792 58.208 38 56 38H42.118C42.044 38.658 42 39.324 42 40C42 42.108 42.38 44.12 43.046 46H56C58.208 46 60 44.208 60 42Z" fill="#919191"/>
</g>
</g>
</svg>
