<svg width="113" height="88" viewBox="0 0 113 88" fill="none" xmlns="http://www.w3.org/2000/svg">
<g id="XL / Diamond-In-Hand">
<path id="Union" fill-rule="evenodd" clip-rule="evenodd" d="M75.3599 5.89903C75.0292 6.19529 74.594 6.34929 74.1496 6.32692C73.7056 6.34929 73.2704 6.19528 72.9394 5.89903C72.6087 5.60277 72.4089 5.18772 72.3839 4.74517V1.5817C72.4468 0.997299 72.7963 0.48215 73.3172 0.206792C73.8377 -0.0689308 74.4616 -0.0689308 74.9825 0.206792C75.503 0.482093 75.8528 0.997252 75.9154 1.5817V4.74517C75.8904 5.18773 75.6907 5.60277 75.3599 5.89903ZM74.1593 52.8851C73.2514 52.8851 72.3925 52.4745 71.8245 51.768L71.8239 51.768C71.8239 51.768 49.0676 23.5285 49.0496 23.5039C48.6744 22.9869 48.5033 22.3504 48.5684 21.7157C48.6335 21.081 48.9308 20.4922 49.4031 20.0618L56.2228 13.8598C56.5535 13.5584 56.9409 13.3256 57.3624 13.1749H57.3628L65.0436 10.4206C65.4111 10.289 65.7992 10.2215 66.1902 10.2215H82.1277C82.5192 10.2215 82.9073 10.289 83.2755 10.4213L90.9549 13.1749C91.3779 13.326 91.7667 13.5603 92.0978 13.8631V13.8635L98.9142 20.061L98.9149 20.0617C99.3873 20.4922 99.6845 21.081 99.7496 21.7157C99.8147 22.3504 99.6437 22.9869 99.2684 23.5039C99.2505 23.5283 76.4941 51.768 76.4941 51.768C75.9262 52.4745 75.0672 52.8851 74.1593 52.8851ZM68.5234 27.9981L74.3421 45.8828L81.6056 27.9981H68.5234ZM69.2178 20.8872L68.5962 24.4426L81.3881 24.443L80.1963 20.8875L69.2178 20.8872ZM85.7424 27.1402C85.7211 27.2332 79.65 42.21 79.65 42.21L94.4922 23.7923L85.7424 27.1402ZM84.8579 23.6747L93.8406 20.2385L90.8371 17.5069L83.6628 20.1104L84.8579 23.6747ZM82.0909 13.7703L66.191 13.7769L62.0092 15.2806L68.0259 17.3323H80.9056L86.4393 15.3239L82.0909 13.7703ZM65.7352 20.3045L57.4868 17.4915L54.5207 20.1944L65.0885 24.0029L65.7352 20.3045ZM69.9483 43.7966L64.6901 27.6353L53.7461 23.6911L69.9483 43.7966ZM64.3784 5.85572L66.1441 6.86728V6.86765C66.5414 7.08984 67.0053 7.1639 67.4523 7.07591C67.8996 6.98791 68.3002 6.74372 68.5831 6.38734C68.8332 6.03535 68.9178 5.59243 68.8152 5.17369C68.7126 4.75461 68.4326 4.40041 68.0478 4.20277L66.2821 3.1912C65.886 2.96314 65.4206 2.88615 64.9718 2.97451C64.5234 3.06251 64.1221 3.31036 63.8429 3.67115C63.5928 4.02314 63.5082 4.46606 63.6108 4.88518C63.7134 5.30426 63.9933 5.65844 64.3784 5.85572ZM83.7912 5.94253C83.251 6.26009 81.8035 7.11102 81.2238 7.10411C80.6422 7.11035 80.0915 6.84521 79.7347 6.38763C79.4846 6.0356 79.4 5.59268 79.5026 5.1736C79.6052 4.75487 79.8852 4.40068 80.2699 4.20306L82.0357 3.19149C82.4318 2.96307 82.8972 2.88607 83.3459 2.97443C83.7943 3.0628 84.1957 3.31028 84.4749 3.67144C84.725 4.02347 84.8096 4.46639 84.707 4.88547C84.6044 5.30457 84.3241 5.65875 83.9393 5.85602C83.9042 5.87609 83.8547 5.90521 83.7933 5.9413L83.7914 5.94243L83.7912 5.94253ZM105.057 33.3314C105.527 33.3292 105.978 33.1403 106.309 32.807C106.64 32.4738 106.824 32.0228 106.822 31.5538V29.7759C106.827 29.3062 106.643 28.8542 106.311 28.5201C105.98 28.1861 105.528 27.9984 105.057 27.9984C104.585 27.9984 104.133 28.1861 103.802 28.5201C103.47 28.8541 103.286 29.3062 103.291 29.7759V31.5538C103.289 32.0227 103.473 32.4737 103.804 32.807C104.135 33.1404 104.586 33.3292 105.057 33.3314ZM106.309 43.4727C105.978 43.806 105.527 43.9948 105.057 43.997C104.586 43.9948 104.135 43.806 103.804 43.4727C103.473 43.1394 103.289 42.6884 103.291 42.2195V40.4419C103.286 39.9718 103.47 39.5197 103.802 39.1857C104.133 38.8521 104.585 38.664 105.057 38.664C105.528 38.664 105.98 38.8521 106.311 39.1857C106.643 39.5198 106.827 39.9718 106.822 40.4419V42.2195C106.824 42.6885 106.64 43.1394 106.309 43.4727ZM111.234 34.2193H109.468C108.835 34.2255 108.254 34.5658 107.939 35.1132C107.624 35.6606 107.624 36.3334 107.939 36.8808C108.253 37.4282 108.835 37.7685 109.468 37.7747H111.234C111.867 37.7685 112.449 37.4282 112.764 36.8808C113.079 36.3334 113.079 35.6606 112.764 35.1132C112.449 34.5658 111.867 34.2255 111.234 34.2193ZM97.6221 37.2513C97.291 36.9179 97.1063 36.467 97.1085 35.998C97.1063 35.5287 97.291 35.0781 97.6221 34.7448C97.9532 34.4112 98.4038 34.2227 98.8743 34.2202H100.64C101.273 34.2264 101.855 34.5666 102.17 35.1141C102.484 35.6615 102.484 36.3343 102.17 36.8817C101.855 37.4291 101.273 37.7693 100.64 37.7756H98.8743C98.4038 37.7734 97.9531 37.5846 97.6221 37.2513ZM42.3763 33.3314C42.8468 33.3292 43.2974 33.1403 43.6285 32.807C43.9596 32.4738 44.1442 32.0228 44.142 31.5538V29.7759C44.1468 29.3062 43.9628 28.8542 43.631 28.5201C43.2996 28.1861 42.8475 27.9984 42.3763 27.9984C41.9051 27.9984 41.453 28.1861 41.1216 28.5201C40.7898 28.8541 40.6058 29.3062 40.6106 29.7759V31.5538C40.6084 32.0227 40.7931 32.4737 41.1241 32.807C41.4552 33.1404 41.9058 33.3292 42.3763 33.3314ZM43.6285 43.4727C43.2974 43.806 42.8468 43.9948 42.3763 43.997C41.9058 43.9948 41.4552 43.806 41.1241 43.4727C40.7931 43.1394 40.6084 42.6884 40.6106 42.2195V40.4419C40.6058 39.9718 40.7898 39.5197 41.1216 39.1857C41.453 38.8521 41.9051 38.664 42.3763 38.664C42.8475 38.664 43.2996 38.8521 43.631 39.1857C43.9628 39.5198 44.1468 39.9718 44.142 40.4419V42.2195C44.1442 42.6885 43.9595 43.1394 43.6285 43.4727ZM46.791 37.7748H48.5567C49.1898 37.7686 49.7717 37.4283 50.0866 36.8809C50.4011 36.3335 50.4011 35.6607 50.0866 35.1133C49.7717 34.5659 49.1898 34.2256 48.5567 34.2194H46.791C46.1579 34.2256 45.576 34.5659 45.2611 35.1133C44.9466 35.6607 44.9466 36.3335 45.2611 36.8809C45.576 37.4283 46.158 37.7686 46.791 37.7748ZM37.9625 37.7748H36.1968C35.5637 37.7686 34.9818 37.4283 34.6669 36.8809C34.3524 36.3335 34.3524 35.6607 34.6669 35.1133C34.9818 34.5659 35.5637 34.2256 36.1968 34.2194H37.9625C38.5956 34.2256 39.1775 34.5659 39.4924 35.1133C39.8069 35.6607 39.8069 36.3335 39.4924 36.8809C39.1775 37.4283 38.5956 37.7686 37.9625 37.7748ZM15.8907 76.5573C15.8907 77.5292 15.1001 78.3172 14.1249 78.3172C13.1498 78.3172 12.3592 77.5293 12.3592 76.5573C12.3592 75.5853 13.1498 74.7973 14.1249 74.7973C15.1001 74.7973 15.8907 75.5853 15.8907 76.5573ZM99.9565 52.1616C102.168 51.4265 104.594 51.7124 106.573 52.9422L106.572 52.9435C107.541 53.5609 108.322 54.4302 108.831 55.4576C109.34 56.4853 109.557 57.6318 109.46 58.7736C109.322 61.0223 108.111 62.8739 105.76 64.4369L104.871 65.0387C99.6507 68.5693 73.2325 86.4385 73.1921 86.461C71.2164 87.5111 69.0036 88.0402 66.7649 87.9976C64.312 87.9646 61.8831 87.5118 59.5847 86.6582V86.6578C59.5866 86.6586 59.2589 86.5365 37.6363 78.4378C37.0039 78.2193 36.3171 78.2145 35.6815 78.4239L24.1907 82.1729C23.7743 83.0877 23.104 83.8642 22.2594 84.412C21.4144 84.9598 20.4304 85.2553 19.4229 85.2645H8.82865C8.19114 85.2439 7.61066 84.8934 7.29762 84.3398C6.98457 83.7857 6.98457 83.1093 7.29762 82.5552C7.61064 82.0016 8.19116 81.6507 8.82865 81.6305H19.4229C19.8985 81.6225 20.3514 81.4263 20.6824 81.0861C21.0135 80.7454 21.1956 80.2878 21.1886 79.8137V52.5615C21.1956 52.0874 21.0135 51.6298 20.6824 51.2892C20.3514 50.9486 19.8985 50.7528 19.4229 50.7447H1.76582C1.12831 50.7242 0.547826 50.3736 0.234783 49.82C-0.0782609 49.2659 -0.0782609 48.5895 0.234783 48.0355C0.547808 47.4818 1.12833 47.1309 1.76582 47.1108H19.4229C20.4923 47.1214 21.5334 47.4539 22.4099 48.0644C23.2865 48.6749 23.9578 49.5351 24.3352 50.532L24.3356 50.5324L28.7543 49.1673C38.5029 46.1582 48.7035 49.7272 57.7035 52.8764C60.589 53.8858 66.3768 55.6956 66.3768 55.6956C68.3357 56.2867 70.3268 56.764 72.3412 57.1248V57.1245C72.7725 57.1931 73.209 57.2491 73.6462 57.3052C75.4525 57.5369 77.2719 57.7702 78.7927 58.9067C79.712 59.4934 80.4257 60.3503 80.8351 61.3589C81.2441 62.3676 81.3288 63.4778 81.0768 64.5367C80.2793 67.8945 76.2987 70.68 73.0818 71.1749C71.2065 71.4785 69.3099 71.6358 67.4099 71.6461C63.0093 71.6461 57.7439 70.7215 51.1776 67.5128C50.7505 67.2965 50.4243 66.9229 50.2679 66.4715C50.1116 66.0201 50.1373 65.5259 50.3396 65.0928C50.5298 64.6617 50.8881 64.3262 51.3317 64.1634C51.7753 64.0006 52.2661 64.0248 52.6917 64.2305C61.4835 68.5269 67.6672 68.3333 72.5589 67.5821C74.697 67.2532 77.2639 65.2802 77.6457 63.6735C77.7145 63.385 77.8741 62.7107 76.718 61.8468C75.7186 61.1 74.3616 60.9764 73.0853 60.8601C72.6416 60.8197 72.2077 60.7802 71.8019 60.7157C69.6096 60.367 59.5059 57.3443 56.566 56.3162L56.558 56.3134C47.6472 53.1941 38.4308 49.9677 29.7696 52.6479L24.7201 54.208V78.1881L34.5995 74.9645C35.9739 74.5069 37.4633 74.5252 38.8259 75.0169V75.0166C38.8358 75.0207 46.2951 77.8141 52.5174 80.1443C56.9348 81.7985 60.7286 83.2192 60.7913 83.2428C63.8756 84.3978 68.2847 85.012 71.4524 83.2971C72.0936 82.8633 77.2031 79.4067 83.1809 75.3627C92.4265 69.108 103.749 61.4482 103.83 61.3932C105.615 60.2063 105.892 59.2482 105.935 58.5446C105.991 58.0507 105.904 57.5509 105.685 57.1044C105.466 56.6578 105.124 56.2827 104.699 56.0228C103.351 55.2202 101.675 55.1931 100.301 55.9517V55.952C100.212 56.0036 83.8393 67.286 83.8393 67.286C84.1263 66.6814 84.3503 66.0486 84.5074 65.3985C84.7487 64.3895 84.8112 63.3459 84.6913 62.3153L96.6162 54.0572C95.7157 53.4874 94.7122 53.0984 93.662 52.9122H93.6616C91.6803 52.5389 90.1397 52.8766 89.4974 53.3771C89.4581 53.4082 82.7462 57.7677 82.7462 57.7677C82.1981 57.0912 81.5673 56.4859 80.8683 55.9656C80.555 55.7332 80.228 55.5194 79.8892 55.3258L87.4335 50.4284C89.0234 49.2342 91.5807 48.8262 94.2973 49.338C96.4287 49.6812 98.4038 50.6664 99.9565 52.1616Z" fill="black"/>
</g>
</svg>
