<svg width="80" height="88" viewBox="0 0 80 88" fill="none" xmlns="http://www.w3.org/2000/svg">
<path fill-rule="evenodd" clip-rule="evenodd" d="M77.8559 11.2562L57.2384 27.0036L45.745 15.9319L57.1686 2.24739C57.6562 1.62849 57.5865 0.803242 56.9596 0.321908C56.4024 -0.159463 55.4968 -0.0906954 55.0092 0.459443L41.9837 16.0694L43.7252 17.7198C43.6903 17.7198 43.6729 17.737 43.6555 17.7542C43.6381 17.7714 43.6207 17.7886 43.5859 17.7886C38.8493 21.7771 32.0924 22.4648 27.9829 22.4648H26.7987H26.7291C25.4056 22.4648 24.0125 23.3588 23.6642 24.6653L14.0513 56.6423C0.81702 63.1064 0.259772 65.7196 0.0502471 66.7509C-0.089065 67.5761 0.050247 68.3325 0.607495 68.9515C2.75265 71.4002 6.5107 70.728 9.21177 70.2449C9.31733 70.226 9.42129 70.2074 9.52347 70.1893L10.22 70.0517C10.4388 70.0157 10.7149 69.942 11.0582 69.8504L11.0583 69.8504L11.0584 69.8503C11.3709 69.7669 11.739 69.6686 12.1704 69.5704C20.599 67.4386 25.4745 66.9572 26.7287 68.0575C26.736 68.0647 26.7441 68.0719 26.7526 68.0795C26.8253 68.1445 26.9304 68.2383 26.868 68.6076C26.7287 69.6391 25.6838 70.5331 24.4997 71.4958C23.5941 72.2523 22.6886 73.0087 22.0618 73.9715C20.6687 76.1032 20.4597 77.8912 21.3652 79.2666C23.1763 81.8797 28.8182 82.0173 40.1029 79.6792C40.4512 79.6104 40.7994 79.5417 40.9388 79.4729C54.1039 76.9973 62.3928 77.4099 65.5275 80.5732C66.8509 81.8797 67.1993 83.8052 66.5723 86.2808C66.433 87.0372 66.8509 87.725 67.6171 87.9312C67.6987 87.9312 67.7564 87.9548 67.8042 87.9744C67.838 87.9882 67.8669 88 67.8958 88C68.5227 88 69.0799 87.5874 69.2192 86.8997C70.0551 83.4614 69.4281 80.7107 67.4777 78.6477C61.7839 72.8232 46.1582 75.6698 40.6292 76.677L40.3814 76.7222C40.2948 76.7506 40.1963 76.7673 40.0809 76.7869H40.0808C39.9176 76.8145 39.7206 76.8479 39.4758 76.9285C26.2415 79.6792 24.0125 78.1663 23.5942 77.6161C23.3852 77.2723 23.5942 76.3783 24.2908 75.3468C24.7087 74.7279 25.4053 74.109 26.1714 73.4901C27.6343 72.321 29.2363 71.0145 29.5149 68.8827C29.7239 67.3699 29.0273 66.4071 28.4701 65.9258C25.9625 63.7252 19.8328 64.688 11.4042 66.8198C10.6391 67.0258 9.94331 67.1632 9.59459 67.2321L9.59401 67.2322L9.59316 67.2324C9.48868 67.2668 9.36679 67.284 9.2449 67.3011C9.123 67.3183 9.00109 67.3355 8.8966 67.3699C6.94623 67.7825 3.95106 68.3327 2.76687 67.1636C2.97584 66.6823 4.50831 64.1379 16.7679 58.3614L16.9769 58.2239C17.2555 58.0863 17.4645 57.88 17.6038 57.6737L47.6254 48.4593C48.9488 48.0467 49.924 46.6713 49.8544 45.296C49.6454 35.8057 52.7103 31.0614 54.7999 28.998L55.0089 28.7917L56.9592 30.6483L79.4579 13.3879C80.0849 12.9066 80.1545 12.0814 79.7366 11.4625C79.3186 10.9123 78.4131 10.7748 77.8559 11.2562ZM47.1381 45.4332C47.1381 45.5708 46.9988 45.8458 46.8595 45.9146L20.5291 53.9606L36.8981 38.4188C37.1071 38.4876 37.316 38.4876 37.5947 38.4876C39.545 38.4876 41.0775 36.9747 41.0775 35.0492C41.0775 33.1237 39.545 31.6108 37.5947 31.6108C35.6443 31.6108 34.1119 33.1237 34.1119 35.0492C34.1119 35.6681 34.3208 36.2183 34.5995 36.7684L18.2305 52.3102L26.3106 25.4913C26.3802 25.4225 26.5892 25.285 26.7285 25.285H27.9823C32.9976 25.285 40.033 24.391 45.257 19.9899L52.6406 27.2792C49.9936 30.1675 46.9288 35.5313 47.1378 45.4338L47.1381 45.4332ZM60.8583 7.95508C60.301 7.40495 59.4651 7.40495 58.9079 7.95508L53.3354 13.4565C52.7782 14.0066 52.7782 14.8318 53.3354 15.3819C53.614 15.657 53.9623 15.7946 54.3106 15.7946C54.6589 15.7946 55.0072 15.657 55.2858 15.3819L60.8583 9.88057C61.4155 9.33043 61.4155 8.50522 60.8583 7.95508ZM58.7695 19.5084C58.4908 19.7835 58.1426 19.921 57.7943 19.921C57.446 19.921 57.0977 19.7835 56.8191 19.5084C56.2618 18.9583 56.2618 18.1331 56.8191 17.5829L62.3916 12.0815C62.9488 11.5314 63.7847 11.5314 64.3419 12.0815C64.8992 12.6317 64.8992 13.4569 64.3419 14.007L58.7695 19.5084Z" fill="black"/>
</svg>
