<svg width="88" height="88" viewBox="0 0 88 88" fill="none" xmlns="http://www.w3.org/2000/svg">
<g id="XL / Global-Education">
<path id="Union" fill-rule="evenodd" clip-rule="evenodd" d="M29.0459 4.55769C33.4663 1.58772 38.6719 0.00129716 43.9977 0.000724251L43.9974 6.42571e-05C51.019 -0.0153356 57.7629 2.73787 62.7676 7.6626C67.8446 12.6412 70.7363 19.4324 70.8071 26.5428C70.8775 33.6532 68.1213 40.5005 63.1438 45.5785C58.166 50.657 51.3754 53.5502 44.265 53.6224C37.154 53.6943 30.3066 50.9394 25.2271 45.9628C21.4242 42.2346 18.8178 37.458 17.7399 32.2423C16.6619 27.0261 17.1618 21.6081 19.1753 16.6774C21.189 11.7472 24.625 7.52796 29.0459 4.55769ZM32.0149 13.3022C32.8963 9.87834 34.4798 6.67493 36.6646 3.89522C33.0914 5.03848 29.8348 7.001 27.1541 9.62579C28.6122 11.0523 30.2455 12.2878 32.0149 13.3022ZM31.3205 16.0676C29.1205 14.888 27.0967 13.4056 25.3084 11.6639L25.3081 11.664C22.1255 15.58 20.2601 20.4002 19.9783 25.4381H30.2815C30.3394 22.2892 30.6871 19.1524 31.3205 16.0676ZM19.9788 28.188C20.2607 33.2258 22.1262 38.0462 25.3086 41.9618C27.0975 40.2193 29.1222 38.7366 31.3233 37.557C30.6889 34.4728 30.3402 31.3365 30.2818 28.188H19.9788ZM27.1539 43.9998C29.8356 46.626 33.0942 48.589 36.6694 49.732C34.4801 46.9545 32.8926 43.7516 32.0083 40.327C30.2412 41.341 28.6102 42.575 27.1539 43.9998ZM34.531 39.0609C36.2248 45.3111 39.1744 49.7405 42.6225 50.6813V37.1666C39.8359 37.323 37.0976 37.9638 34.531 39.0609ZM33.8981 36.3537C36.676 35.2187 39.6256 34.5613 42.6225 34.4095L42.6224 28.1873H33.0305C33.0903 30.929 33.3805 33.6607 33.8981 36.3537ZM33.0306 25.4372H42.6225L42.6227 19.2151C39.6259 19.0632 36.676 18.4058 33.8983 17.2709C33.3806 19.9639 33.0905 22.6955 33.0306 25.4372ZM34.5295 14.563C37.0965 15.6601 39.8353 16.3015 42.6225 16.4576V2.94342C39.1741 3.88428 36.2234 8.30991 34.5295 14.563ZM60.8412 9.62458C58.1607 6.9998 54.904 5.03728 51.3307 3.89403C53.5155 6.67371 55.099 9.87717 55.9804 13.3012C57.7498 12.2865 59.3831 11.0511 60.8412 9.62458ZM53.4655 14.5628C51.7717 8.30969 48.8208 3.88391 45.3725 2.9432V16.4574C48.1597 16.301 50.8986 15.6599 53.4655 14.5628ZM54.0969 17.2708C51.3193 18.4058 48.3694 19.0632 45.3725 19.215L45.3726 25.4371H54.9646C54.9047 22.6954 54.6145 19.9638 54.0969 17.2708ZM54.9644 28.1873H45.3725L45.3723 34.4097C48.3691 34.5615 51.3187 35.2189 54.0967 36.3536C54.6144 33.6606 54.9045 30.9289 54.9644 28.1873ZM45.3725 37.1661V50.6806V50.6807C48.8203 49.7399 51.7699 45.3104 53.464 39.0604C50.8977 37.9633 48.1594 37.3225 45.3725 37.1661ZM55.9865 40.3267C55.1023 43.7509 53.5147 46.9538 51.3254 49.7316L51.3254 49.7319C54.9005 48.5889 58.1593 46.6258 60.8411 43.9996C59.3848 42.5748 57.7537 41.3407 55.9865 40.3267ZM56.672 37.5565C58.8732 38.7361 60.8978 40.2187 62.6868 41.9613L62.687 41.9616C65.8696 38.0456 67.735 33.2254 68.0168 28.1875H57.7136C57.6551 31.3358 57.3065 34.4722 56.672 37.5565ZM56.6747 16.0667C57.308 19.1518 57.6558 22.2884 57.7137 25.4372L68.0166 25.4371C67.7347 20.3992 65.8693 15.5786 62.6868 11.663C60.8985 13.4047 58.8747 14.8871 56.6747 16.0667ZM73.3579 23.3756H83.1867H83.1905C84.4664 23.3769 85.6895 23.8846 86.5919 24.7866C87.4939 25.689 88.0015 26.9122 88.0029 28.188V77.6876C88.0015 78.9635 87.4939 80.1866 86.5919 81.089C85.6895 81.991 84.4663 82.4986 83.1905 82.5001H4.81246C3.53654 82.4987 2.31343 81.9911 1.41107 81.089C0.509032 80.1866 0.00143258 78.9634 0 77.6876V28.188C0.00139364 26.9121 0.509003 25.689 1.41107 24.7866C2.31343 23.8846 3.53662 23.377 4.81246 23.3756H14.6412C14.5375 24.2842 14.4751 25.2009 14.4542 26.1255H4.8124C4.26556 26.1261 3.74133 26.3435 3.35462 26.7302C2.96791 27.117 2.75048 27.6412 2.74991 28.188V74.2498H85.2492V28.188C85.2486 27.6412 85.0312 27.117 84.6445 26.7302C84.2577 26.3435 83.7336 26.1261 83.1867 26.1255H73.5449C73.5246 25.2003 73.4622 24.2836 73.3579 23.3756ZM84.6444 79.145C85.0312 78.7583 85.2486 78.2341 85.2491 77.6872L85.2455 76.9997H2.74616V77.6872C2.74674 78.2341 2.96416 78.7583 3.35087 79.145C3.73763 79.5317 4.26181 79.7491 4.80865 79.7497H83.1867C83.7335 79.7491 84.2577 79.5317 84.6444 79.145ZM11.6836 85.25H76.3081C76.7993 85.25 77.2531 85.5121 77.4988 85.9375C77.7443 86.3629 77.7443 86.8871 77.4988 87.3125C77.2531 87.7379 76.7993 88 76.3081 88H11.6836C11.1924 88 10.7386 87.7379 10.4928 87.3125C10.2473 86.8871 10.2473 86.3629 10.4928 85.9375C10.7386 85.5121 11.1923 85.25 11.6836 85.25ZM20.6229 71.5001H72.1846C72.5492 71.5001 72.899 71.3552 73.1568 71.0974C73.4146 70.8396 73.5596 70.4898 73.5596 70.1251V60.5002C73.5596 60.4913 73.5583 60.4828 73.5571 60.4743C73.556 60.467 73.555 60.4596 73.5547 60.4521C73.5535 60.4169 73.549 60.3823 73.5445 60.3472L73.5424 60.3309C73.5358 60.2725 73.5252 60.2143 73.5112 60.157C73.5092 60.1492 73.5081 60.1413 73.5071 60.1334C73.5058 60.124 73.5045 60.1145 73.5017 60.1052L68.5566 43.6053L68.5569 43.6056C68.5314 43.5412 68.501 43.4787 68.4658 43.4188C67.8353 44.3395 67.1535 45.2238 66.4236 46.0677L70.3369 59.1253H20.6224C19.8785 59.1267 19.1412 59.2631 18.4462 59.5281L21.6513 46.1595C20.8877 45.2838 20.1755 44.3646 19.5193 43.4058C19.4757 43.4935 19.4419 43.5854 19.4179 43.6802L14.4727 64.305C14.4341 64.4784 14.4295 64.6577 14.4593 64.833C14.447 64.9917 14.4349 65.1509 14.4349 65.3128C14.4367 66.9533 15.0892 68.5259 16.2493 69.6859C17.4092 70.846 18.9819 71.4986 20.6224 71.5003L20.6229 71.5001ZM20.6229 61.8752H70.8103V63.9377H27.4985C27.0073 63.9377 26.5535 64.1998 26.3078 64.6252C26.0623 65.0506 26.0623 65.5748 26.3078 66.0002C26.5535 66.4256 27.0073 66.6877 27.4985 66.6877H70.8103V68.7501H20.6229C19.3948 68.7501 18.2599 68.095 17.646 67.0314C17.0318 65.9678 17.0318 64.6575 17.646 63.5939C18.2599 62.5303 19.3948 61.8752 20.6229 61.8752Z" fill="black"/>
</g>
</svg>
