<svg width="88" height="88" viewBox="0 0 88 88" fill="none" xmlns="http://www.w3.org/2000/svg">
<g id="XL / Lecture-Hall">
<path id="Union" fill-rule="evenodd" clip-rule="evenodd" d="M66.9145 15.9308H1.37505L1.37555 15.931C0.884302 15.931 0.430552 15.6694 0.184768 15.2447C-0.0607298 14.82 -0.0607298 14.2966 0.184768 13.8719C0.430508 13.4472 0.88428 13.1856 1.37555 13.1856H2.75055V1.51693C2.75055 1.02649 3.01266 0.573484 3.43805 0.328105C3.86346 0.0830109 4.38766 0.0830109 4.81305 0.328105C5.23845 0.57344 5.50055 1.02647 5.50055 1.51693V13.1856H8.25055V1.51693C8.25055 1.02649 8.51266 0.573484 8.93805 0.328105C9.36346 0.0830109 9.88766 0.0830109 10.3131 0.328105C10.7384 0.57344 11.0006 1.02647 11.0006 1.51693V13.1856H13.7506V1.51693C13.7506 1.02649 14.0127 0.573484 14.4381 0.328105C14.8635 0.0830109 15.3877 0.0830109 15.8131 0.328105C16.2384 0.57344 16.5006 1.02647 16.5006 1.51693V13.1856H19.2506V1.51693C19.2506 1.02649 19.5127 0.573484 19.9381 0.328105C20.3635 0.0830109 20.8877 0.0830109 21.3131 0.328105C21.7384 0.57344 22.0006 1.02647 22.0006 1.51693V13.1856H24.7506V1.51693C24.7506 1.02649 25.0127 0.573484 25.4381 0.328105C25.8635 0.0830109 26.3877 0.0830109 26.8131 0.328105C27.2384 0.57344 27.5006 1.02647 27.5006 1.51693V13.1856H30.2506V1.51693C30.2016 1.02648 30.4181 0.547135 30.8189 0.259431C31.2199 -0.0282722 31.7439 -0.0806412 32.1939 0.122158C32.6439 0.324957 32.9516 0.751918 33.0006 1.24238C33.1266 0.901228 33.3833 0.624103 33.7138 0.471675C34.0444 0.319244 34.4219 0.303803 34.764 0.429063C35.1057 0.554322 35.3839 0.80971 35.5374 1.13945L40.6662 13.1851H43.4643L38.7755 2.16223C38.5827 1.71095 38.6458 1.19132 38.9405 0.799233C39.2355 0.406857 39.718 0.201519 40.2055 0.260432C40.6934 0.319368 41.1127 0.63337 41.3055 1.08466L46.4549 13.1852H49.363L44.688 2.20335C44.4975 1.75097 44.5634 1.23158 44.8608 0.840642C45.1581 0.449987 45.6417 0.247222 46.1292 0.308709C46.6167 0.3705 47.0344 0.687093 47.2249 1.13953L52.3537 13.1852H55.1518L50.463 2.16231C50.2702 1.71102 50.3332 1.1914 50.628 0.799306C50.923 0.406931 51.4054 0.201592 51.893 0.260505C52.3808 0.319441 52.8002 0.633443 52.993 1.08473L58.1424 13.1853H66.9145C67.4058 13.1853 67.8595 13.447 68.1053 13.8717C68.3508 14.2964 68.3508 14.8197 68.1053 15.2444C67.8596 15.6691 67.4058 15.9308 66.9145 15.9308ZM37.675 13.1853L33 2.20342V13.1853H37.675ZM77.6835 13.1851H86.6214C87.1127 13.1851 87.5664 13.4468 87.8122 13.8715C88.0577 14.2962 88.0577 14.8195 87.8122 15.2442C87.5665 15.6689 87.1127 15.9306 86.6214 15.9306H77.6835C77.1923 15.9306 76.7385 15.6689 76.4928 15.2442C76.2473 14.8195 76.2473 14.2962 76.4928 13.8715C76.7385 13.4468 77.1923 13.1851 77.6835 13.1851ZM2.34715 36.8063C2.08932 37.0637 1.73956 37.2084 1.3749 37.2084L1.37501 37.2084C1.01034 37.2084 0.660572 37.0637 0.402761 36.8063C0.144951 36.5489 0 36.1997 0 35.8356V21.4215C0 20.6934 0.289579 19.995 0.805493 19.4802C1.32117 18.9652 2.02068 18.6761 2.75 18.6761H53.625C54.3544 18.6761 55.0539 18.9652 55.5695 19.4802C56.0854 19.9951 56.375 20.6934 56.375 21.4215V49.563C56.375 50.2912 56.0854 50.9895 55.5695 51.5043C55.0538 52.0194 54.3543 52.3085 53.625 52.3085H35.2755C35.5892 51.5055 35.7499 50.6512 35.7499 49.7895V49.563H53.6249V21.4216H2.74991V35.8357C2.74991 36.1997 2.60496 36.5489 2.34715 36.8063ZM30.0139 34.9141C28.9827 35.944 27.5837 36.5225 26.125 36.5225C24.6664 36.5225 23.2673 35.9439 22.2361 34.9141C21.2045 33.8846 20.625 32.4878 20.625 31.0316C20.625 29.5754 21.2046 28.1785 22.2361 27.149C23.2673 26.1192 24.6664 25.5406 26.125 25.5406C27.5836 25.5406 28.9827 26.1192 30.0139 27.149C31.0455 28.1785 31.625 29.5754 31.625 31.0316C31.625 32.4878 31.0454 33.8846 30.0139 34.9141ZM28.0695 29.0903C27.5538 28.5752 26.8543 28.2861 26.125 28.2861C25.3956 28.2861 24.6961 28.5752 24.1805 29.0903C23.6646 29.6051 23.375 30.3034 23.375 31.0316C23.375 31.7597 23.6646 32.4581 24.1805 32.9729C24.6962 33.4879 25.3956 33.777 26.125 33.777C26.8544 33.777 27.5539 33.4879 28.0695 32.9729C28.5854 32.458 28.875 31.7597 28.875 31.0316C28.875 30.3034 28.5854 29.605 28.0695 29.0903ZM23.375 64.3196C23.7396 64.3196 24.0894 64.1749 24.3472 63.9175C24.605 63.6601 24.75 63.3109 24.75 62.9468V54.3671H27.5V62.9468C27.5 63.4373 27.7621 63.8903 28.1875 64.1357C28.6129 64.3808 29.1371 64.3808 29.5625 64.1357C29.9879 63.8903 30.25 63.4373 30.25 62.9468V54.0925C31.0572 53.7897 31.753 53.2486 32.2443 52.5411C32.7356 51.8335 32.9991 50.993 33 50.1322V44.0716L37.8125 39.267C38.0706 39.0108 38.2167 38.6627 38.2181 38.2992V31.0306C38.2181 30.5401 37.956 30.0871 37.5306 29.8418C37.1052 29.5967 36.581 29.5967 36.1556 29.8418C35.7302 30.0872 35.4681 30.5402 35.4681 31.0306V37.7227L32.6837 40.5025C32.3612 39.7289 31.816 39.068 31.1174 38.6035C30.4187 38.1394 29.5974 37.8925 28.7581 37.8943H23.4919C22.6815 37.8948 21.888 38.1273 21.2057 38.564C20.5236 39.0007 19.9808 39.6233 19.6419 40.3583L14.2175 45.0943C13.919 45.356 13.7486 45.7341 13.75 46.1307V53.6804C13.75 54.1709 14.0121 54.6239 14.4375 54.8692C14.8629 55.1143 15.3871 55.1143 15.8125 54.8692C16.2379 54.6238 16.5 54.1708 16.5 53.6804V46.7549L19.25 44.3527V50.1387C19.2509 50.9996 19.5144 51.84 20.0057 52.5476C20.497 53.2551 21.1928 53.7962 22 54.099V62.946C22 63.3101 22.145 63.6593 22.4028 63.9167C22.6606 64.1741 23.0104 64.3188 23.375 64.3188L23.375 64.3196ZM22 42.1296C22 41.7346 22.1572 41.3557 22.4368 41.0763C22.7167 40.7972 23.0963 40.6401 23.4919 40.6401H28.765C29.1594 40.6419 29.5373 40.7997 29.8154 41.0789C30.0938 41.358 30.25 41.7358 30.25 42.1296V50.1325C30.25 50.5274 30.0927 50.9063 29.8131 51.1858C29.5332 51.4649 29.1537 51.6219 28.7581 51.6219H23.4919C23.0963 51.6219 22.7167 51.4649 22.4368 51.1858C22.1572 50.9064 22 50.5274 22 50.1325L22 42.1296ZM85.25 38.5813H71.5C70.7707 38.5813 70.0712 38.8705 69.5555 39.3855C69.0396 39.9003 68.75 40.5986 68.75 41.3268V60.5451C68.75 61.2732 69.0396 61.9716 69.5555 62.4864C70.0711 63.0015 70.7706 63.2906 71.5 63.2906H85.25C85.9793 63.2906 86.6788 63.0015 87.1945 62.4864C87.7104 61.9716 88 61.2733 88 60.5451V58.088C88 57.5975 87.7379 57.1445 87.3125 56.8991C86.8871 56.654 86.3629 56.654 85.9375 56.8991C85.5121 57.1445 85.25 57.5975 85.25 58.088V60.5451H71.5V46.8177H85.25V52.597C85.25 53.0875 85.5121 53.5405 85.9375 53.7858C86.3629 54.0309 86.8871 54.0309 87.3125 53.7858C87.7379 53.5405 88 53.0875 88 52.597V41.3267C88 40.5985 87.7104 39.9002 87.1945 39.3854C86.6789 38.8703 85.9794 38.5812 85.25 38.5812V38.5813ZM85.25 44.0723H71.5V41.3268H85.25V44.0723ZM71.5 82.2513V86.6234L71.5 86.6238C71.5 86.9879 71.3551 87.3371 71.0973 87.5945C70.8394 87.8519 70.4897 87.9966 70.125 87.9966H59.6406C59.1493 87.9966 58.6955 87.7349 58.4498 87.3102C58.2043 86.8855 58.2043 86.3622 58.4498 85.9375C58.6955 85.5128 59.1493 85.2511 59.6406 85.2511H68.75V82.2516C68.7483 80.1362 67.9061 78.108 66.4085 76.6117C64.9109 75.1152 62.8802 74.2729 60.7612 74.2692H60.2456C58.1255 74.2709 56.0928 75.1126 54.5938 76.6092C53.0948 78.1057 52.2517 80.1351 52.25 82.2516V85.2511H54.1406C54.6319 85.2511 55.0856 85.5128 55.3314 85.9375C55.5769 86.3622 55.5769 86.8855 55.3314 87.3102C55.0857 87.7349 54.6319 87.9966 54.1406 87.9966H50.875C50.5103 87.9966 50.1606 87.8519 49.9028 87.5945C49.6449 87.3371 49.5 86.9879 49.5 86.6238V82.2516C49.5017 79.4066 50.6346 76.6792 52.6493 74.6675C54.6646 72.6562 57.3965 71.5251 60.2459 71.5234H60.7615C63.6095 71.5271 66.3398 72.6587 68.353 74.6701C70.3665 76.6811 71.4983 79.4077 71.5 82.2513ZM1.37499 87.9996H4.64059C5.13187 87.9996 5.58564 87.738 5.83138 87.3133C6.07688 86.8886 6.07688 86.3652 5.83138 85.9405C5.58559 85.5158 5.13184 85.2542 4.64059 85.2542H2.74998V82.2547C2.7517 80.1381 3.59478 78.1088 5.09379 76.6122C6.5928 75.1157 8.62552 74.274 10.7456 74.2723H11.2612C13.3802 74.276 15.4109 75.1182 16.9085 76.6148C18.4061 78.1111 19.2482 80.1393 19.25 82.2547V85.2542H10.1405C9.64926 85.2542 9.19549 85.5158 8.94975 85.9405C8.70425 86.3652 8.70425 86.8886 8.94975 87.3133C9.19553 87.738 9.64928 87.9996 10.1405 87.9996H20.625C20.9897 87.9996 21.3394 87.8549 21.5972 87.5975C21.8551 87.3401 22 86.991 22 86.6269V82.2547C21.9983 79.4111 20.8665 76.6845 18.853 74.6735C16.8398 72.6622 14.1095 71.5305 11.2615 71.5269H10.7459C7.89653 71.5286 5.16457 72.6597 3.1493 74.671C1.13461 76.6826 0.00168667 79.41 0 82.2551V86.6272C0 86.9913 0.144951 87.3405 0.402761 87.5979C0.660572 87.8553 1.01034 88 1.37501 88L1.37499 87.9996ZM35.4955 71.5269H36.0111L36.0111 71.5272C38.8591 71.5309 41.5894 72.6625 43.6026 74.6739C45.6161 76.6849 46.7479 79.4115 46.7496 82.2551V86.6273C46.7496 86.9913 46.6047 87.3405 46.3468 87.5979C46.089 87.8553 45.7393 88 45.3746 88H34.8901C34.3989 88 33.9451 87.7383 33.6993 87.3136C33.4538 86.8889 33.4538 86.3656 33.6993 85.9409C33.9451 85.5162 34.3989 85.2545 34.8901 85.2545H43.9996V82.2551C43.9978 80.1397 43.1557 78.1115 41.6581 76.6152C40.1604 75.1186 38.1298 74.2764 36.0108 74.2726H35.4952C33.3751 74.2743 31.3424 75.116 29.8434 76.6126C28.3444 78.1091 27.5013 80.1385 27.4996 82.2551V85.2545H29.3902C29.8814 85.2545 30.3352 85.5162 30.581 85.9409C30.8265 86.3656 30.8265 86.8889 30.581 87.3136C30.3352 87.7383 29.8815 88 29.3902 88H26.1246C25.7599 88 25.4101 87.8553 25.1523 87.5979C24.8945 87.3405 24.7496 86.9913 24.7496 86.6273V82.2551C24.7513 79.41 25.8842 76.6826 27.8989 74.671C29.9141 72.6597 32.6461 71.5286 35.4955 71.5269ZM73.7367 14.5587C73.7367 15.3168 73.1211 15.9315 72.3617 15.9315C71.6023 15.9315 70.9867 15.3169 70.9867 14.5587C70.9867 13.8006 71.6023 13.186 72.3617 13.186C73.1211 13.186 73.7367 13.8006 73.7367 14.5587ZM7.19411 67.1839C8.32183 66.4354 9.64586 66.0359 11 66.0359H11.0001C12.3541 66.0359 13.6781 66.4354 14.8059 67.1839C15.9337 67.9323 16.8148 68.9968 17.3388 70.2434C15.4567 69.2841 13.3741 68.7831 11.2613 68.7814H10.7456C8.63041 68.7823 6.54526 69.2833 4.66125 70.2434C5.18514 68.9968 6.06632 67.9323 7.19411 67.1839ZM35.75 66.0359C34.3959 66.0359 33.0718 66.4354 31.9441 67.1839C30.8163 67.9323 29.9351 68.9968 29.4112 70.2434C31.2953 69.2833 33.3804 68.7823 35.4956 68.7814H36.0113C38.1241 68.7831 40.2067 69.2841 42.0888 70.2434C41.5648 68.9968 40.6837 67.9323 39.5559 67.1839C38.4281 66.4354 37.1041 66.0359 35.75 66.0359H35.75ZM66.8385 70.2432C64.9565 69.284 62.8739 68.7829 60.761 68.7812H60.2454C58.1302 68.7821 56.045 69.2832 54.161 70.2432C54.864 68.5719 56.2006 67.2461 57.8792 66.5554C59.5576 65.8645 61.4419 65.8645 63.1203 66.5554C64.799 67.246 66.1356 68.5719 66.8385 70.2432ZM2.75 52.3085H11V49.563H2.75V41.3266C2.75 40.8361 2.48789 40.3831 2.0625 40.1377C1.63711 39.8926 1.11291 39.8926 0.6875 40.1377C0.262108 40.3831 0 40.8361 0 41.3266V49.563C0 50.2911 0.289608 50.9895 0.805493 51.5043C1.32111 52.0194 2.02063 52.3085 2.75 52.3085Z" fill="black"/>
</g>
</svg>
