<svg width="96" height="96" viewBox="0 0 96 96" fill="none" xmlns="http://www.w3.org/2000/svg">
<g id="XL / List">
<g id="Illustrations/list">
<g id="list 2">
<path id="Path" d="M84 2H12C10.896 2 10 2.896 10 4V92C10 93.104 10.896 94 12 94H84C85.104 94 86 93.104 86 92V4C86 2.896 85.104 2 84 2Z" fill="#E6E6E6"/>
<path id="Path_2" d="M70 58H40C38.896 58 38 57.104 38 56C38 54.896 38.896 54 40 54H70C71.104 54 72 54.896 72 56C72 57.104 71.104 58 70 58Z" fill="#737373"/>
<path id="Path_3" d="M58 74H40C38.896 74 38 73.104 38 72C38 70.896 38.896 70 40 70H58C59.104 70 60 70.896 60 72C60 73.104 59.104 74 58 74Z" fill="#B3B3B3"/>
<path id="Path_4" d="M62 42H40C38.896 42 38 41.104 38 40C38 38.896 38.896 38 40 38H62C63.104 38 64 38.896 64 40C64 41.104 63.104 42 62 42Z" fill="#B3B3B3"/>
<path id="Path_5" d="M70 26H40C38.896 26 38 25.104 38 24C38 22.896 38.896 22 40 22H70C71.104 22 72 22.896 72 24C72 25.104 71.104 26 70 26Z" fill="#737373"/>
<path id="Path_6" d="M28 44C25.794 44 24 42.206 24 40C24 37.794 25.794 36 28 36C30.206 36 32 37.794 32 40C32 42.206 30.206 44 28 44Z" fill="#B3B3B3"/>
<path id="Path_7" d="M28 60C25.794 60 24 58.206 24 56C24 53.794 25.794 52 28 52C30.206 52 32 53.794 32 56C32 58.206 30.206 60 28 60Z" fill="#737373"/>
<path id="Path_8" d="M28 76C25.794 76 24 74.206 24 72C24 69.794 25.794 68 28 68C30.206 68 32 69.794 32 72C32 74.206 30.206 76 28 76Z" fill="#B3B3B3"/>
<path id="Path_9" d="M28 28C25.794 28 24 26.206 24 24C24 21.794 25.794 20 28 20C30.206 20 32 21.794 32 24C32 26.206 30.206 28 28 28Z" fill="#737373"/>
</g>
</g>
</g>
</svg>
