<svg width="88" height="88" viewBox="0 0 88 88" fill="none" xmlns="http://www.w3.org/2000/svg">
<path d="M86.8072 9.43011L78.6266 1.20699C77.8599 0.435729 76.818 0.00147057 75.7304 3.72764e-06C74.6429 -0.00146311 73.5998 0.43003 72.8309 1.199L10.4534 63.553C10.3397 63.6716 10.2454 63.8077 10.1741 63.9558L0.109346 86.0692C-0.0347562 86.4107 -0.0364798 86.7954 0.104476 87.1384C0.245432 87.4813 0.517597 87.7535 0.860266 87.895C1.20291 88.0362 1.58796 88.035 1.92945 87.8912L24.0172 77.8646H24.0174C24.1673 77.7956 24.3039 77.7008 24.4214 77.585L86.7988 15.231H86.7986C87.5661 14.4615 87.9981 13.4193 87.9995 12.3325C88.001 11.2456 87.5724 10.2022 86.8068 9.43069L86.8072 9.43011ZM73.7537 24.3816L68.6659 29.4675L66.598 27.3887L71.6859 22.3025L73.7537 24.3816ZM64.6579 25.4388L62.59 23.36L67.6778 18.2741L69.7457 20.3529L64.6579 25.4388ZM60.6501 21.4098L58.5822 19.3313L63.67 14.2455L65.7379 16.3243L60.6501 21.4098ZM56.6369 21.2757L66.7199 31.4123L64.6463 33.4851L54.5625 23.3493L56.6369 21.2757ZM52.6176 25.2932L56.6893 29.386L17.4403 68.6211L13.3683 64.528L52.6176 25.2932ZM11.8534 66.9053L21.0776 76.1779L4.13191 83.8701L11.8534 66.9053ZM23.4517 74.6642L19.38 70.571L58.6298 31.3359L62.7017 35.4291L23.4517 74.6642ZM75.6991 22.4365L65.6161 12.3006L67.6897 10.2276L77.7727 20.3642L75.6991 22.4365ZM84.8537 13.2849L79.7178 18.4191L69.6347 8.28252L74.7755 3.14373C75.0308 2.89735 75.372 2.75983 75.7267 2.7604C76.0814 2.76098 76.422 2.89963 76.6764 3.14659L84.857 11.3697H84.8573C85.11 11.6244 85.2515 11.9691 85.2512 12.3277C85.2506 12.6867 85.108 13.0308 84.8544 13.2849H84.8537Z" fill="black"/>
</svg>
