<svg width="110" height="88" viewBox="0 0 110 88" fill="none" xmlns="http://www.w3.org/2000/svg">
<g id="XL / Research-Books">
<path id="Union" fill-rule="evenodd" clip-rule="evenodd" d="M27.7677 22.8716L19.3388 19.3626L19.3392 19.3622C18.669 19.0403 18.1395 18.4836 17.8514 17.7979C17.5637 17.1122 17.537 16.3447 17.7763 15.6406C18.0157 14.9363 18.505 14.3443 19.1513 13.9762L53.3478 0.329729C54.2966 -0.10991 55.3906 -0.10991 56.3393 0.329729L90.5377 13.9771C90.9668 14.1446 91.3391 14.4312 91.6112 14.8028C91.8831 15.1744 92.0435 15.6161 92.0738 16.0758V35.8335C93.5915 36.37 94.7648 37.5948 95.2359 39.1341C95.7069 40.6734 95.4202 42.3448 94.4631 43.639C93.5055 44.9333 91.9913 45.6969 90.3815 45.6969C88.7717 45.6969 87.257 44.9333 86.2999 43.639C85.3423 42.3448 85.0557 40.6734 85.5267 39.1341C85.9981 37.5949 87.1714 36.3701 88.6892 35.8335V20.0534L81.9201 22.8714V45.6913H78.5355V24.2803L56.2219 33.5702C55.3416 33.9287 54.3561 33.9298 53.4747 33.5737L53.4744 33.574C53.4645 33.5695 31.1526 24.2814 31.1526 24.2814L31.1569 45.6916H27.7723L27.7677 22.8716ZM91.5778 39.4174C91.2601 39.1001 90.83 38.9221 90.3808 38.9221C89.9324 38.9224 89.5022 39.1008 89.1849 39.4181C88.8676 39.7354 88.6892 40.1655 88.6885 40.6144C88.6885 41.0632 88.8669 41.4937 89.1842 41.811C89.5019 42.1283 89.932 42.3066 90.3808 42.3066C90.83 42.3066 91.2601 42.1283 91.5778 41.811C91.8951 41.4936 92.0731 41.0632 92.0731 40.6144C92.0731 40.1655 91.8951 39.735 91.5778 39.4174ZM54.7628 3.40521L54.65 3.45528L21.5951 16.6373L54.7673 30.4463C54.8201 30.466 54.8787 30.4646 54.9305 30.4424L88.0927 16.6361L54.8439 3.38406C54.8157 3.38512 54.7878 3.39217 54.7628 3.40521ZM16.7669 59.4673C16.7669 59.4673 16.7753 60.843 16.7778 60.9223L13.394 60.9224C13.3926 60.8427 13.3828 59.4674 13.3828 59.4674C13.3828 53.7376 17.8052 49.0764 23.2413 49.0764C23.2413 49.0764 94.8738 49.0866 94.8925 49.0929C95.1834 49.1324 95.458 49.2516 95.6854 49.4367C95.9132 49.6221 96.0852 49.8668 96.1832 50.1435C96.3489 50.5606 96.3422 51.0264 96.1646 51.4385C95.9865 51.8507 95.6523 52.1754 95.2352 52.3411C92.9069 53.2673 91.2799 56.0905 91.2799 59.2078C91.2869 59.7849 91.3564 60.36 91.4872 60.9223H88.0332C87.9429 60.355 87.8971 59.7818 87.8953 59.2078C87.8894 56.7977 88.6201 54.4437 89.9899 52.4609H23.2412C19.6713 52.4609 16.7669 55.6039 16.7669 59.4673ZM46.3823 55.8453C45.7777 55.8453 45.2192 56.1679 44.9168 56.6914C44.6147 57.215 44.6147 57.8601 44.9168 58.3837C45.2193 58.9072 45.7777 59.2298 46.3823 59.2298H48.0746C48.6793 59.2298 49.2381 58.9072 49.5402 58.3837C49.8427 57.8601 49.8427 57.215 49.5402 56.6914C49.238 56.1679 48.6792 55.8453 48.0746 55.8453H46.3823ZM29.8823 55.8453C29.278 55.8453 28.7192 56.1679 28.4171 56.6915C28.1146 57.215 28.1146 57.8602 28.4171 58.3837C28.7193 58.9073 29.2781 59.2299 29.8823 59.2299H40.0359C40.6406 59.2299 41.1994 58.9073 41.5015 58.3837C41.804 57.8602 41.804 57.215 41.5015 56.6915C41.1993 56.1679 40.6405 55.8453 40.0359 55.8453H29.8823ZM107.941 84.7407C104.822 83.4658 102.47 79.7626 102.47 76.127C102.47 72.2704 104.697 68.7589 107.884 67.5884C108.381 67.4065 108.764 67.0021 108.919 66.4959C109.074 65.9896 108.983 65.44 108.672 65.0109C108.362 64.5819 107.869 64.3231 107.34 64.3115C107.326 64.3108 12.4731 64.3076 12.4731 64.3076C9.38894 64.2709 6.41659 65.4591 4.20707 67.6111C1.99791 69.7631 0.731905 72.7031 0.6875 75.7872V76.5199C0.731922 79.604 1.998 82.544 4.20707 84.696C6.4165 86.8481 9.38894 88.0362 12.4731 87.9995L107.511 87.9685C108.01 87.9103 108.456 87.6325 108.728 87.2108C109 86.7892 109.069 86.2681 108.917 85.7901C108.764 85.312 108.406 84.9274 107.94 84.7409L107.941 84.7407ZM12.4695 84.6148C10.2829 84.6522 8.17073 83.8212 6.59588 82.3038C5.02103 80.7865 4.11207 78.7064 4.06839 76.5198V75.7872C4.11211 73.6006 5.02103 71.5206 6.59588 70.0031C8.17073 68.4858 10.283 67.6547 12.4695 67.6922H102.134C100.161 70.0603 99.081 73.0451 99.0823 76.1271C99.1215 79.2419 100.25 82.2446 102.271 84.6149L12.4695 84.6148ZM15.9211 74.4605H41.3052C41.9098 74.4605 42.4686 74.7831 42.7708 75.3066C43.0733 75.8302 43.0733 76.4753 42.7708 76.9989C42.4687 77.5224 41.9099 77.845 41.3052 77.845H15.9211C15.3165 77.845 14.7577 77.5224 14.4556 76.9989C14.1531 76.4753 14.1531 75.8302 14.4556 75.3066C14.7577 74.7831 15.3165 74.4605 15.9211 74.4605ZM49.7672 74.4601H48.0749C47.4703 74.4601 46.9118 74.7827 46.6094 75.3063C46.3072 75.8298 46.3072 76.475 46.6094 76.9986C46.9119 77.5221 47.4703 77.8447 48.0749 77.8447H49.7672C50.3718 77.8447 50.9307 77.5221 51.2327 76.9986C51.5352 76.475 51.5352 75.8298 51.2327 75.3063C50.9306 74.7827 50.3718 74.4601 49.7672 74.4601Z" fill="#2C7F9B"/>
</g>
</svg>
