<svg width="109" height="88" viewBox="0 0 109 88" fill="none" xmlns="http://www.w3.org/2000/svg">
<g id="XL / Research-Books">
<path id="Union" fill-rule="evenodd" clip-rule="evenodd" d="M27.0802 22.8716L18.6513 19.3626L18.6517 19.3622C17.9815 19.0403 17.452 18.4836 17.1639 17.7979C16.8762 17.1122 16.8495 16.3447 17.0888 15.6406C17.3282 14.9363 17.8175 14.3443 18.4638 13.9762L52.6603 0.329729C53.6091 -0.10991 54.7031 -0.10991 55.6518 0.329729L89.8502 13.9771C90.2793 14.1446 90.6516 14.4312 90.9237 14.8028C91.1956 15.1744 91.356 15.6161 91.3863 16.0758V35.8335C92.904 36.37 94.0773 37.5948 94.5484 39.1341C95.0194 40.6734 94.7327 42.3448 93.7756 43.639C92.818 44.9333 91.3038 45.6969 89.694 45.6969C88.0842 45.6969 86.5695 44.9333 85.6124 43.639C84.6548 42.3448 84.3682 40.6734 84.8392 39.1341C85.3106 37.5949 86.4839 36.3701 88.0017 35.8335V20.0534L81.2326 22.8714V45.6913H77.848V24.2803L55.5344 33.5702C54.6541 33.9287 53.6686 33.9298 52.7872 33.5737L52.7869 33.574C52.777 33.5695 30.4651 24.2814 30.4651 24.2814L30.4694 45.6916H27.0848L27.0802 22.8716ZM90.8903 39.4174C90.5726 39.1001 90.1425 38.9221 89.6933 38.9221C89.2449 38.9224 88.8147 39.1008 88.4974 39.4181C88.1801 39.7354 88.0017 40.1655 88.001 40.6144C88.001 41.0632 88.1794 41.4937 88.4967 41.811C88.8144 42.1283 89.2445 42.3066 89.6933 42.3066C90.1425 42.3066 90.5726 42.1283 90.8903 41.811C91.2076 41.4936 91.3856 41.0632 91.3856 40.6144C91.3856 40.1655 91.2076 39.735 90.8903 39.4174ZM54.0753 3.40521L53.9625 3.45528L20.9076 16.6373L54.0798 30.4463C54.1326 30.466 54.1912 30.4646 54.243 30.4424L87.4052 16.6361L54.1564 3.38406C54.1282 3.38512 54.1003 3.39217 54.0753 3.40521ZM16.0794 59.4673C16.0794 59.4673 16.0878 60.843 16.0903 60.9223L12.7065 60.9224C12.7051 60.8427 12.6953 59.4674 12.6953 59.4674C12.6953 53.7376 17.1177 49.0764 22.5538 49.0764C22.5538 49.0764 94.1863 49.0866 94.205 49.0929C94.4959 49.1324 94.7705 49.2516 94.9979 49.4367C95.2257 49.6221 95.3977 49.8668 95.4957 50.1435C95.6614 50.5606 95.6547 51.0264 95.4771 51.4385C95.299 51.8507 94.9648 52.1754 94.5477 52.3411C92.2194 53.2673 90.5924 56.0905 90.5924 59.2078C90.5994 59.7849 90.6689 60.36 90.7997 60.9223H87.3457C87.2554 60.355 87.2096 59.7818 87.2078 59.2078C87.2019 56.7977 87.9326 54.4437 89.3024 52.4609H22.5537C18.9838 52.4609 16.0794 55.6039 16.0794 59.4673ZM45.6948 55.8453C45.0902 55.8453 44.5317 56.1679 44.2293 56.6914C43.9272 57.215 43.9272 57.8601 44.2293 58.3837C44.5318 58.9072 45.0902 59.2298 45.6948 59.2298H47.3871C47.9918 59.2298 48.5506 58.9072 48.8527 58.3837C49.1552 57.8601 49.1552 57.215 48.8527 56.6914C48.5505 56.1679 47.9917 55.8453 47.3871 55.8453H45.6948ZM29.1948 55.8453C28.5905 55.8453 28.0317 56.1679 27.7296 56.6915C27.4271 57.215 27.4271 57.8602 27.7296 58.3837C28.0318 58.9073 28.5906 59.2299 29.1948 59.2299H39.3484C39.9531 59.2299 40.5119 58.9073 40.814 58.3837C41.1165 57.8602 41.1165 57.215 40.814 56.6915C40.5118 56.1679 39.953 55.8453 39.3484 55.8453H29.1948ZM107.253 84.7407C104.135 83.4658 101.783 79.7626 101.783 76.127C101.783 72.2704 104.009 68.7589 107.196 67.5884C107.693 67.4065 108.077 67.0021 108.231 66.4959C108.386 65.9896 108.295 65.44 107.985 65.0109C107.675 64.5819 107.181 64.3231 106.652 64.3115C106.639 64.3108 11.7856 64.3076 11.7856 64.3076C8.70144 64.2709 5.72909 65.4591 3.51957 67.6111C1.31041 69.7631 0.0444052 72.7031 0 75.7872V76.5199C0.0444224 79.604 1.3105 82.544 3.51957 84.696C5.729 86.8481 8.70144 88.0362 11.7856 87.9995L106.824 87.9685C107.322 87.9103 107.769 87.6325 108.04 87.2108C108.312 86.7892 108.382 86.2681 108.229 85.7901C108.077 85.312 107.718 84.9274 107.253 84.7409L107.253 84.7407ZM11.782 84.6148C9.59537 84.6522 7.48323 83.8212 5.90838 82.3038C4.33353 80.7865 3.42457 78.7064 3.38089 76.5198V75.7872C3.42461 73.6006 4.33353 71.5206 5.90838 70.0031C7.48323 68.4858 9.59546 67.6547 11.782 67.6922H101.446C99.4734 70.0603 98.3935 73.0451 98.3948 76.1271C98.434 79.2419 99.5622 82.2446 101.583 84.6149L11.782 84.6148ZM15.2336 74.4605H40.6177C41.2223 74.4605 41.7811 74.7831 42.0833 75.3066C42.3858 75.8302 42.3858 76.4753 42.0833 76.9989C41.7812 77.5224 41.2224 77.845 40.6177 77.845H15.2336C14.629 77.845 14.0702 77.5224 13.7681 76.9989C13.4656 76.4753 13.4656 75.8302 13.7681 75.3066C14.0702 74.7831 14.629 74.4605 15.2336 74.4605ZM49.0797 74.4601H47.3874C46.7828 74.4601 46.2243 74.7827 45.9219 75.3063C45.6197 75.8298 45.6197 76.475 45.9219 76.9986C46.2244 77.5221 46.7828 77.8447 47.3874 77.8447H49.0797C49.6843 77.8447 50.2432 77.5221 50.5452 76.9986C50.8477 76.475 50.8477 75.8298 50.5452 75.3063C50.2431 74.7827 49.6843 74.4601 49.0797 74.4601Z" fill="black"/>
</g>
</svg>
