<svg width="96" height="96" viewBox="0 0 96 96" fill="none" xmlns="http://www.w3.org/2000/svg">
<path d="M32.0982 32.0981C11.2497 52.9466 6.41904 70.6153 12.4588 76.6551C17.9323 82.1286 32.9659 78.629 51.2521 62.4166L48.4724 59.6369C33.2977 72.904 19.3198 77.9338 15.2499 73.8639C10.6665 69.2805 17.5952 52.1383 34.8668 34.8667C52.1384 17.5951 69.2805 10.6664 73.8639 15.2499C77.2887 18.6747 74.3132 28.5385 66.4563 39.798C65.8663 40.6361 66.0125 41.781 66.7927 42.4332C67.5729 43.0854 68.7274 43.0276 69.4498 42.3003C69.5327 42.2175 69.608 42.1275 69.6746 42.0311C79.075 28.5553 81.6898 17.4935 76.6551 12.4587C70.6153 6.41901 52.9466 11.2497 32.0982 32.0981Z" fill="#78BF9C"/>
<path d="M59.7139 68.0895C58.9368 68.8667 57.6805 68.8704 56.9079 68.0978L42.9191 54.109C42.3959 53.5849 42.211 52.8106 42.44 52.1026C42.669 51.3947 43.2735 50.8715 44.0065 50.7471L60.851 47.8914C61.4826 47.7851 62.1249 47.9897 62.5761 48.4409C63.0272 48.892 63.2318 49.5343 63.1255 50.166L60.2699 67.0104C60.2027 67.4191 60.0081 67.7969 59.7139 68.0895Z" fill="#645AED"/>
<path d="M78.4578 86.2274L80.5881 80.1625L86.653 78.0322L87.9542 85.2432C88.1979 86.5935 87.0191 87.7723 85.6688 87.5286L78.4578 86.2274Z" fill="#989898"/>
<path d="M63.4578 83.5206L66.9391 66.514L83.9457 63.0327L86.6523 78.032L78.4571 86.2272L63.4578 83.5206Z" fill="#FFD999"/>
<path d="M4.43864 21.7188L22.1446 4.01288C22.9131 3.2444 24.158 3.2444 24.9265 4.01288L36.7305 15.8168L16.2426 36.3047L4.43864 24.5007C3.67014 23.7323 3.67014 22.4873 4.43864 21.7188Z" fill="#EB4F47"/>
<path d="M36.7304 15.8169L83.9463 63.0327L72.2269 74.7522L25.093 27.4543L36.7304 15.8169Z" fill="#ECB55A"/>
<path d="M73.7021 73.2769L26.4861 26.0608L16.2421 36.3048L63.4582 83.5208L73.7021 73.2769Z" fill="#C38D33"/>
<path d="M38.1211 17.2075L35.3392 14.4256L14.8512 34.9135L17.6331 37.6955L38.1211 17.2075Z" fill="#C04500"/>
<mask id="mask0_11799_223412" style="mask-type:luminance" maskUnits="userSpaceOnUse" x="33" y="34" width="45" height="45">
<rect x="33.7715" y="55.1235" width="28.7354" height="33.3164" transform="rotate(-45 33.7715 55.1235)" fill="white"/>
</mask>
<g mask="url(#mask0_11799_223412)">
<path d="M32.2993 31.8598C11.4509 52.7083 6.63383 70.3907 12.6864 76.4432C18.1715 81.9284 33.2174 78.441 51.5057 62.2308L48.7201 59.4452C33.5434 72.7103 19.556 77.7306 15.4775 73.6521C10.8844 69.0589 17.8022 51.9059 35.0738 34.6343C52.3454 17.3627 69.4984 10.4449 74.0915 15.038C77.5236 18.4701 74.5554 28.3412 66.7021 39.6044C66.1124 40.4427 66.26 41.589 67.0417 42.2427C67.8234 42.8964 68.979 42.8398 69.7014 42.1124C69.7843 42.0297 69.8596 41.9396 69.9262 41.8432C79.3223 28.3631 81.9281 17.2923 76.8827 12.2469C70.8301 6.19434 53.1478 11.0114 32.2993 31.8598Z" fill="#499C70"/>
<path d="M60.0902 68.2659C59.31 69.0461 58.0491 69.0501 57.2738 68.2748L43.2365 54.2374C42.7114 53.7114 42.526 52.9344 42.756 52.2237C42.986 51.5131 43.5929 50.9879 44.3286 50.8628L61.2359 47.9929C61.8699 47.8861 62.5146 48.0913 62.9673 48.544C63.42 48.9967 63.6252 49.6413 63.5184 50.2753L60.6485 67.1826C60.581 67.5929 60.3856 67.972 60.0902 68.2659Z" fill="#06806B"/>
</g>
</svg>
