<svg width="96" height="96" viewBox="0 0 96 96" fill="none" xmlns="http://www.w3.org/2000/svg">
<g id="XL / Search-Empty">
<g id="Group 3">
<g id="file-search">
<path id="Path" d="M82 94H14C11.79 94 10 92.21 10 90V6C10 3.79 11.79 2 14 2H62L86 26V90C86 92.21 84.21 94 82 94Z" fill="#E6E6E6"/>
<path id="Path_2" d="M62 2V22C62 24.21 63.79 26 66 26H86L62 2Z" fill="#BABABA"/>
<path id="Shape" fill-rule="evenodd" clip-rule="evenodd" d="M58.3484 58.9548L71.2962 71.9027C72.2346 72.841 72.2346 74.3578 71.2962 75.2962C70.8282 75.7642 70.2138 75.9994 69.5994 75.9994C68.985 75.9994 68.3706 75.7642 67.9027 75.2962L54.9548 62.3484C51.7005 64.8779 47.6301 66.3995 43.1998 66.3995C32.6135 66.3995 24 57.786 24 47.1998C24 36.6135 32.6135 28 43.1998 28C53.786 28 62.3995 36.6135 62.3995 47.1998C62.3995 51.6301 60.8779 55.7005 58.3484 58.9548ZM43.1998 32.7999C35.2583 32.7999 28.7999 39.2583 28.7999 47.1998C28.7999 55.1413 35.2583 61.5996 43.1998 61.5996C51.1413 61.5996 57.5996 55.1413 57.5996 47.1998C57.5996 39.2583 51.1413 32.7999 43.1998 32.7999Z" fill="#737373"/>
</g>
<g id="question-mark">
<path id="Path_3" d="M43.9999 49.5H41.9999V48.5C42.0236 47.007 42.8535 45.6437 44.1689 44.937C45.0679 44.294 45.4999 43.943 45.4999 43C45.4999 41.26 43.9339 41 42.9999 41C41.6226 41.1394 40.3592 41.8265 39.4939 42.907L38.0889 41.5C39.3126 40.0271 41.0888 39.1229 42.9999 39C45.7329 39 47.4999 40.57 47.4999 43C47.4761 44.493 46.6462 45.8563 45.3309 46.563C44.4319 47.206 43.9999 47.557 43.9999 48.5V49.5Z" fill="#9A9A9A"/>
<circle id="Oval" cx="43" cy="52.5" r="1.5" fill="#9A9A9A"/>
</g>
</g>
</g>
</svg>
