<svg width="88" height="88" viewBox="0 0 88 88" fill="none" xmlns="http://www.w3.org/2000/svg">
<g id="XL / Search-Document">
<path id="Union" fill-rule="evenodd" clip-rule="evenodd" d="M5.50023 77.003H57.0645V77.0041C57.9975 77.0041 58.8217 76.5263 59.3187 75.8009H62.3316C61.6518 78.087 59.552 79.7542 57.0645 79.7542H5.50023C2.46278 79.7542 0 77.2702 0 74.2058V5.54779C0 2.484 2.46278 0 5.50023 0H57.0645C60.102 0 62.5648 2.484 62.5648 5.54779V28.4539C61.7259 27.4165 60.8075 26.4477 59.8146 25.5587V5.54728C59.8146 4.00434 58.5811 2.74962 57.0645 2.74962H5.50023C3.98363 2.74962 2.75012 4.00434 2.75012 5.54728V74.2053C2.75012 75.7483 3.98363 77.003 5.50023 77.003ZM50.5329 12.3748H12.0313C11.2716 12.3748 10.6562 12.9907 10.6562 13.7498C10.6562 14.509 11.2716 15.1249 12.0313 15.1249H50.5329C51.2921 15.1249 51.908 14.509 51.908 13.7498C51.908 12.9907 51.2921 12.3748 50.5329 12.3748ZM12.0313 42.6263H18.6041C18.6551 41.6947 18.7616 40.7782 18.912 39.8761H12.0313C11.2716 39.8761 10.6562 40.492 10.6562 41.2512C10.6562 42.0103 11.2716 42.6263 12.0313 42.6263ZM12.0314 48.1265H18.9121C18.7602 47.2244 18.6537 46.3079 18.6021 45.3763H12.0313C11.2716 45.3763 10.6562 45.9923 10.6562 46.7514C10.6562 47.5106 11.2716 48.1265 12.0314 48.1265ZM10.6562 52.2519C10.6562 51.4927 11.2716 50.8768 12.0313 50.8768H19.5394C19.811 51.8167 20.1307 52.7365 20.5068 53.6269H12.0313C11.2716 53.6269 10.6562 53.011 10.6562 52.2519ZM12.0313 56.377C11.2716 56.377 10.6562 56.9929 10.6562 57.7521C10.6562 58.5112 11.2716 59.1271 12.0313 59.1271H23.7299C23.0562 58.2546 22.4394 57.3367 21.8845 56.377H12.0313ZM12.0316 64.6278C11.2719 64.6278 10.6565 64.0119 10.6565 63.2528H10.6562C10.6562 62.4936 11.2716 61.8777 12.0313 61.8777H26.2065C27.2647 62.8912 28.4095 63.8136 29.6338 64.6278H12.0316ZM51.0906 20.5048C48.6315 19.6907 46.0043 19.2452 43.2708 19.2501H43.2704C40.4352 19.2549 37.7146 19.7431 35.1799 20.6251H12.0313C11.2716 20.6251 10.6562 20.0092 10.6562 19.2501C10.6562 18.4909 11.2716 17.875 12.0313 17.875H50.5329C51.2921 17.875 51.908 18.4909 51.908 19.2501C51.908 19.8104 51.5716 20.2911 51.0906 20.5048ZM29.6364 23.3753H12.032C11.2723 23.3753 10.6569 23.9912 10.6569 24.7504C10.6569 25.5096 11.2723 26.1255 12.032 26.1255H26.2072C27.266 25.1114 28.4121 24.19 29.6371 23.3753H29.6364ZM12.0313 28.8757H23.7313C23.0561 29.7482 22.4388 30.6661 21.8833 31.6258H12.0313C11.2716 31.6258 10.6562 31.0099 10.6562 30.2507C10.6562 29.4916 11.2716 28.8757 12.0313 28.8757ZM12.0313 37.1258H19.5387C19.8103 36.1859 20.1294 35.2661 20.5061 34.3757H12.0313C11.2716 34.3757 10.6562 34.9916 10.6562 35.7507C10.6562 36.5099 11.2716 37.1258 12.0313 37.1258ZM29.9079 34.3757H50.877C51.6361 34.3757 52.252 34.9916 52.252 35.7507C52.252 36.5099 51.6361 37.1258 50.877 37.1258H28.876C28.6898 37.1258 28.5131 37.088 28.3506 37.0212C28.7823 36.096 29.3048 35.2125 29.9079 34.3757ZM50.877 39.876H27.3295C27.0997 40.7718 26.9464 41.6911 26.8702 42.6261H50.8776C51.6368 42.6261 52.2527 42.0102 52.2527 41.2511C52.2527 40.4919 51.6368 39.876 50.8776 39.876H50.877ZM26.8716 45.3763H50.8774C51.6366 45.3763 52.2525 45.9923 52.2525 46.7514C52.2525 47.5106 51.6366 48.1265 50.8774 48.1265H27.3342C27.1039 47.2367 26.9501 46.3168 26.8716 45.3763ZM50.8773 50.877H28.3184C28.7659 51.8478 29.305 52.7683 29.9243 53.6271H50.8773C51.6365 53.6271 52.2523 53.0112 52.2523 52.2521C52.2523 51.4929 51.6364 50.877 50.8773 50.877ZM32.4213 56.3773H50.8771H50.8773C51.6364 56.3773 52.2523 56.9933 52.2523 57.7524C52.2523 58.5116 51.6364 59.1275 50.8773 59.1275H36.7292C35.1487 58.4365 33.6986 57.5029 32.4213 56.3773ZM50.8766 28.8756H36.7096C35.1572 29.5529 33.716 30.4816 32.42 31.6258H50.8766C51.6357 31.6258 52.2516 31.0099 52.2516 30.2507C52.2516 29.4916 51.6357 28.8756 50.8766 28.8756ZM66.7779 57.1086L85.9136 76.0493L85.9131 76.0492C88.4142 78.5275 88.7084 82.315 86.5696 84.5057C86.4095 84.6699 86.2509 84.8357 86.0926 85.0012C84.6419 86.5176 83.2207 88.0032 80.9244 88.0032C79.2964 88.0032 77.5831 87.3216 76.234 85.9858L57.0962 67.0451L58.3309 65.778L55.1152 62.5624C51.7139 64.7295 47.6804 65.994 43.3484 66.0015H43.3086C31.1765 66.0015 21.3325 56.1765 21.3098 44.0378C21.2893 31.8888 31.1223 22.0194 43.2726 21.9993H43.311C55.4453 21.9986 65.2903 31.8257 65.3112 43.9637C65.3175 47.9641 64.2504 51.7135 62.3907 54.9489L65.6785 58.2367L66.7779 57.1086ZM43.3091 63.2513H43.344L43.3436 63.2511C53.9561 63.2335 62.5772 54.5826 62.5614 43.9671C62.5431 33.3707 53.9077 24.749 43.3121 24.7499H43.2786C38.1369 24.7582 33.3063 26.7692 29.6761 30.4117C26.0469 34.0536 24.0516 38.8913 24.0605 44.0326C24.0803 54.6298 32.7149 63.2513 43.3091 63.2513ZM60.8422 57.288C59.8246 58.6282 58.6592 59.8491 57.3667 60.9245L60.2503 63.8073L63.7601 60.206L60.8422 57.288ZM84.0052 83.2363C84.2081 83.0078 84.4055 82.7855 84.6009 82.5853L84.6012 82.5855C85.6684 81.4917 85.3824 79.3942 83.9779 78.0034L66.8135 61.0127L60.9701 67.01L78.1682 84.0315C78.9528 84.8083 79.9572 85.2524 80.9246 85.2524C82.2152 85.2524 83.1576 84.1909 84.0052 83.2363ZM62.5571 59.5603H62.564V59.552L62.5571 59.5603Z" fill="black"/>
</g>
</svg>
