<svg width="89" height="88" viewBox="0 0 89 88" fill="none" xmlns="http://www.w3.org/2000/svg">
<path fill-rule="evenodd" clip-rule="evenodd" d="M6.16686 77.003H57.7312V77.0041C58.6641 77.0041 59.4883 76.5263 59.9854 75.8009H62.9982C62.3184 78.087 60.2186 79.7542 57.7312 79.7542H6.16686C3.12941 79.7542 0.666626 77.2702 0.666626 74.2058V5.54779C0.666626 2.484 3.12941 0 6.16686 0H57.7312C60.7686 0 63.2314 2.484 63.2314 5.54779V28.4539C62.3926 27.4165 61.4742 26.4477 60.4813 25.5587V5.54728C60.4813 4.00434 59.2478 2.74962 57.7312 2.74962H6.16686C4.65026 2.74962 3.41674 4.00434 3.41674 5.54728V74.2053C3.41674 75.7483 4.65026 77.003 6.16686 77.003ZM51.1996 12.3748H12.6979C11.9382 12.3748 11.3229 12.9907 11.3229 13.7498C11.3229 14.509 11.9382 15.1249 12.6979 15.1249H51.1996C51.9587 15.1249 52.5746 14.509 52.5746 13.7498C52.5746 12.9907 51.9587 12.3748 51.1996 12.3748ZM12.6979 42.6263H19.2707C19.3217 41.6947 19.4283 40.7782 19.5786 39.8761H12.6979C11.9382 39.8761 11.3229 40.492 11.3229 41.2512C11.3229 42.0103 11.9382 42.6263 12.6979 42.6263ZM12.698 48.1265H19.5787C19.4269 47.2244 19.3203 46.3079 19.2687 45.3763H12.6979C11.9382 45.3763 11.3229 45.9923 11.3229 46.7514C11.3229 47.5106 11.9383 48.1265 12.698 48.1265ZM11.3229 52.2519C11.3229 51.4927 11.9382 50.8768 12.6979 50.8768H20.206C20.4776 51.8167 20.7973 52.7365 21.1734 53.6269H12.6979C11.9382 53.6269 11.3229 53.011 11.3229 52.2519ZM12.6979 56.377C11.9382 56.377 11.3229 56.9929 11.3229 57.7521C11.3229 58.5112 11.9382 59.1271 12.6979 59.1271H24.3966C23.7228 58.2546 23.106 57.3367 22.5511 56.377H12.6979ZM12.6982 64.6278C11.9385 64.6278 11.3232 64.0119 11.3232 63.2528H11.3229C11.3229 62.4936 11.9382 61.8777 12.6979 61.8777H26.8731C27.9313 62.8912 29.0761 63.8136 30.3004 64.6278H12.6982ZM51.7573 20.5048C49.2982 19.6907 46.6709 19.2452 43.9374 19.2501H43.937C41.1019 19.2549 38.3812 19.7431 35.8466 20.6251H12.6979C11.9382 20.6251 11.3229 20.0092 11.3229 19.2501C11.3229 18.4909 11.9382 17.875 12.6979 17.875H51.1996C51.9587 17.875 52.5746 18.4909 52.5746 19.2501C52.5746 19.8104 52.2383 20.2911 51.7573 20.5048ZM30.303 23.3753H12.6986C11.9389 23.3753 11.3235 23.9912 11.3235 24.7504C11.3235 25.5096 11.9389 26.1255 12.6986 26.1255H26.8738C27.9326 25.1114 29.0787 24.19 30.3037 23.3753H30.303ZM12.6979 28.8757H24.398C23.7227 29.7482 23.1054 30.6661 22.5499 31.6258H12.6979C11.9382 31.6258 11.3229 31.0099 11.3229 30.2507C11.3229 29.4916 11.9382 28.8757 12.6979 28.8757ZM12.6979 37.1258H20.2053C20.4769 36.1859 20.796 35.2661 21.1727 34.3757H12.6979C11.9382 34.3757 11.3229 34.9916 11.3229 35.7507C11.3229 36.5099 11.9382 37.1258 12.6979 37.1258ZM30.5745 34.3757H51.5436C52.3027 34.3757 52.9186 34.9916 52.9186 35.7507C52.9186 36.5099 52.3028 37.1258 51.5436 37.1258H29.5427C29.3565 37.1258 29.1797 37.088 29.0173 37.0212C29.4489 36.096 29.9715 35.2125 30.5745 34.3757ZM51.5437 39.876H27.9961C27.7663 40.7718 27.6131 41.6911 27.5369 42.6261H51.5443C52.3035 42.6261 52.9193 42.0102 52.9193 41.2511C52.9193 40.4919 52.3034 39.876 51.5443 39.876H51.5437ZM27.5382 45.3763H51.544C52.3032 45.3763 52.9191 45.9923 52.9191 46.7514C52.9191 47.5106 52.3032 48.1265 51.544 48.1265H28.0009C27.7705 47.2367 27.6167 46.3168 27.5382 45.3763ZM51.5439 50.877H28.985C29.4325 51.8478 29.9716 52.7683 30.591 53.6271H51.5439C52.3031 53.6271 52.919 53.0112 52.919 52.2521C52.919 51.4929 52.3031 50.877 51.5439 50.877ZM33.0879 56.3773H51.5437H51.5439C52.303 56.3773 52.9189 56.9933 52.9189 57.7524C52.9189 58.5116 52.3031 59.1275 51.5439 59.1275H37.3958C35.8153 58.4365 34.3653 57.5029 33.0879 56.3773ZM51.5432 28.8756H37.3762C35.8238 29.5529 34.3826 30.4816 33.0866 31.6258H51.5432C52.3024 31.6258 52.9182 31.0099 52.9182 30.2507C52.9182 29.4916 52.3023 28.8756 51.5432 28.8756ZM67.4446 57.1086L86.5802 76.0493L86.5797 76.0492C89.0808 78.5275 89.3751 82.315 87.2363 84.5057C87.0761 84.6699 86.9175 84.8357 86.7592 85.0012C85.3085 86.5176 83.8873 88.0032 81.591 88.0032C79.9631 88.0032 78.2497 87.3216 76.9007 85.9858L57.7628 67.0451L58.9975 65.778L55.7818 62.5624C52.3805 64.7295 48.347 65.994 44.015 66.0015H43.9752C31.8432 66.0015 21.9991 56.1765 21.9765 44.0378C21.9559 31.8888 31.7889 22.0194 43.9393 21.9993H43.9776C56.1119 21.9986 65.9569 31.8257 65.9778 43.9637C65.9841 47.9641 64.917 51.7135 63.0573 54.9489L66.3451 58.2367L67.4446 57.1086ZM43.9757 63.2513H44.0107L44.0102 63.2511C54.6228 63.2335 63.2438 54.5826 63.2281 43.9671C63.2097 33.3707 54.5744 24.749 43.9787 24.7499H43.9452C38.8036 24.7582 33.9729 26.7692 30.3428 30.4117C26.7135 34.0536 24.7182 38.8913 24.7271 44.0326C24.7469 54.6298 33.3815 63.2513 43.9757 63.2513ZM61.5088 57.288C60.4912 58.6282 59.3259 59.8491 58.0333 60.9245L60.917 63.8073L64.4268 60.206L61.5088 57.288ZM84.6719 83.2363C84.8747 83.0078 85.0721 82.7855 85.2675 82.5853L85.2679 82.5855C86.335 81.4917 86.0491 79.3942 84.6445 78.0034L67.4801 61.0127L61.6367 67.01L78.8348 84.0315C79.6194 84.8083 80.6238 85.2524 81.5912 85.2524C82.8818 85.2524 83.8243 84.1909 84.6719 83.2363ZM63.2238 59.5603H63.2306V59.552L63.2238 59.5603Z" fill="#2C7F9B"/>
</svg>
