<svg width="96" height="96" viewBox="0 0 96 96" fill="none" xmlns="http://www.w3.org/2000/svg">
<path d="M60.7163 45.1698C76.4435 45.1698 89.2362 32.2563 89.2362 16.3808L89.2455 4.09035C89.2455 1.92283 87.4988 0.159668 85.3515 0.159668H77.5613C75.4141 0.159668 73.6697 1.92283 73.6697 4.088V5.86998C73.6697 6.83619 72.8336 7.65195 71.8415 7.65195H54.54V44.4998L55.4041 44.6643C57.1671 45.0005 58.9557 45.1698 60.7163 45.1698ZM85.3515 2.29663C86.3297 2.29663 87.1262 3.10063 87.1262 4.088L87.1169 16.3808C87.1169 31.0762 75.272 43.0328 60.714 43.0328C59.3702 43.0328 58.0101 42.9247 56.657 42.7131V9.79126H71.8392C74.0144 9.79126 75.7844 8.03279 75.7844 5.86998V4.088C75.7844 3.10063 76.5809 2.29663 77.559 2.29663H85.3492H85.3515Z" fill="#DF9E3D"/>
<path d="M34.8924 45.1716C36.6508 45.1716 38.4394 45.0024 40.2047 44.6639L41.0664 44.4993V7.65381H23.7649C22.7751 7.65381 21.9367 6.83805 21.9367 5.87184V4.08987C21.9367 1.92235 20.19 0.15918 18.0451 0.15918H10.2549C8.10996 0.15918 6.36328 1.92235 6.36328 4.08987L6.3726 16.3827C6.3726 32.2559 19.1676 45.1716 34.8924 45.1716ZM38.9494 42.7126C37.5963 42.9242 36.2339 43.0347 34.8924 43.0347C20.3344 43.0347 8.48958 31.0781 8.48958 16.3827L8.48259 4.08987C8.48259 3.10249 9.27908 2.29849 10.2549 2.29849H18.0451C19.0232 2.29849 19.8197 3.10249 19.8197 4.09222V5.87419C19.8197 8.03701 21.592 9.79547 23.7672 9.79547H38.9494V42.7173V42.7126Z" fill="#DF9E3D"/>
<path d="M50.8076 49.9468H44.8037V86.6559H50.8076V49.9468Z" fill="#ECB55A"/>
<path d="M50.8076 56.5996H44.8037V60.0437H50.8076V56.5996Z" fill="#C38D33"/>
<path d="M51.8484 49.1494H43.7578V58.466H51.8484V49.1494Z" fill="#C38D33"/>
<path d="M51.8484 56.2778H43.7578V58.4665H51.8484V56.2778Z" fill="#ECB55A"/>
<path d="M34.2141 90.2224C36.9808 90.2224 39.2305 88.0031 39.3237 85.2314H56.2898C56.383 88.0031 58.6327 90.2224 61.4018 90.2224H66.5207V95.5683H29.0928V90.2224H34.2117H34.2141Z" fill="#FFD999"/>
<path d="M65.989 12.1655V41.7044C65.989 49.011 60.1225 54.9352 52.8819 54.9352H42.7302C35.4896 54.9352 29.623 49.011 29.623 41.7044V12.1655H65.989Z" fill="#ECB55A"/>
<path d="M68.8137 6.82178H26.7979V12.525H68.8137V6.82178Z" fill="#ECB55A"/>
<path d="M47.821 19.6675L49.885 26.0198H56.5642L51.1606 29.9457L53.2246 36.2979L47.821 32.372L42.4175 36.2979L44.4814 29.9457L39.0779 26.0198H45.757L47.821 19.6675Z" fill="#DF9E3D"/>
<path d="M65.989 12.1655H29.623V14.8973H65.989V12.1655Z" fill="#C38D33"/>
<path d="M66.66 91.1021V95.6232H50.2446H47.9682H28.9834V91.1021H66.66Z" fill="#ECB55A"/>
</svg>
