<svg width="98" height="88" viewBox="0 0 98 88" fill="none" xmlns="http://www.w3.org/2000/svg">
<rect width="98" height="88" fill="#F1F1F1"/>
<g id="XL / Time-In-Hand">
<path id="Union" fill-rule="evenodd" clip-rule="evenodd" d="M35.1229 7.49968C35.5289 7.49968 35.9183 7.65962 36.2054 7.94441L36.2055 7.94535C36.4926 8.22983 36.6539 8.61545 36.6539 9.01783C36.6539 9.42021 36.4926 9.80616 36.2055 10.0906L34.9917 11.2936L37.1968 13.4787C42.1363 9.05513 48.4622 6.45284 55.1106 6.10926V3.0344H51.2835C50.7366 3.0344 50.2314 2.74518 49.9577 2.2758C49.6844 1.8064 49.6844 1.22798 49.9577 0.7586C50.2313 0.289215 50.7365 0 51.2835 0H61.9995C62.5464 0 63.0516 0.289215 63.3252 0.7586C63.5986 1.228 63.5986 1.80641 63.3252 2.2758C63.0516 2.74518 62.5464 3.0344 61.9995 3.0344H58.1723V6.10926C64.8207 6.45283 71.1466 9.05513 76.0862 13.4787L78.2913 11.2936L77.0774 10.0906C76.6919 9.70716 76.542 9.14931 76.6836 8.62651C76.8251 8.10372 77.2372 7.69535 77.7647 7.555C78.2922 7.41466 78.8551 7.56322 79.242 7.94537L83.8346 12.497C84.2202 12.8804 84.3704 13.4383 84.2284 13.9611C84.0869 14.4839 83.6748 14.8922 83.1473 15.0326C82.6201 15.1729 82.0569 15.0244 81.67 14.6422V14.6425L80.4558 13.4392L78.2508 15.6243C81.6675 19.3773 84.0263 23.956 85.0896 28.8996C86.1532 33.8436 85.8837 38.9775 84.3085 43.7851C82.7332 48.5929 79.9081 52.9046 76.117 56.2861L76.1167 56.2857C75.3503 55.554 74.4643 54.9563 73.496 54.5182C73.5301 54.4894 73.5643 54.4608 73.5986 54.4323L73.6412 54.3969L73.6421 54.3962C73.7346 54.3193 73.8271 54.2424 73.9173 54.1629L71.2578 51.5271C70.8722 51.1436 70.722 50.5858 70.8639 50.063C71.0055 49.5402 71.4176 49.1318 71.9451 48.9915C72.4726 48.8508 73.0355 48.9997 73.4224 49.3818L76.0819 52.0176C79.9731 47.695 82.2758 42.1958 82.6161 36.4127H78.8387C78.2917 36.4127 77.7866 36.1235 77.5129 35.6541C77.2396 35.1847 77.2396 34.6063 77.5129 34.1369C77.7865 33.6676 78.2917 33.3783 78.8387 33.3783H82.617C82.2767 27.5952 79.9737 22.0959 76.0818 17.7734L73.4223 20.4092C73.1356 20.6947 72.7458 20.8552 72.3395 20.8559C71.9329 20.8562 71.5429 20.6962 71.2555 20.4115C70.9682 20.1267 70.8068 19.7401 70.8071 19.3371C70.8077 18.9344 70.9698 18.5482 71.2578 18.264L73.9173 15.6282C69.5558 11.771 64.007 9.4886 58.1719 9.15133V12.8959C58.1719 13.438 57.8801 13.9387 57.4065 14.2099C56.9329 14.4808 56.3493 14.4808 55.8756 14.2099C55.402 13.9387 55.1102 13.438 55.1102 12.8959V9.1519C49.2758 9.48916 43.7274 11.7722 39.3673 15.6297L42.025 18.264C42.4106 18.6475 42.5608 19.2053 42.4188 19.7281C42.2773 20.2509 41.8652 20.6593 41.3377 20.7996C40.8102 20.9403 40.2473 20.7914 39.8604 20.4093V20.4096L37.2009 17.7738C33.3097 22.0956 31.0067 27.5948 30.6657 33.3779H34.444C34.991 33.3779 35.4962 33.6671 35.7698 34.1365C36.0431 34.6059 36.0431 35.1843 35.7698 35.6537C35.4962 36.123 34.991 36.4123 34.444 36.4123H30.6657C30.9441 41.1451 32.5416 45.7089 35.2806 49.5961C34.1838 49.8341 33.1192 50.0955 32.1158 50.362C28.6953 45.0538 27.1281 38.7805 27.655 32.5043C28.1818 26.2284 30.7737 20.2976 35.032 15.6234V15.6231L32.827 13.438L31.6128 14.6413C31.3258 14.9261 30.9364 15.086 30.5304 15.086C30.1243 15.086 29.7349 14.9264 29.4476 14.6416C29.1605 14.3571 28.9995 13.9712 28.9995 13.5688C28.9995 13.1664 29.1609 12.7805 29.4482 12.496L34.0408 7.94441C34.3275 7.65962 34.7169 7.49968 35.1229 7.49968ZM56.641 24.2812C56.235 24.2812 55.8456 24.4412 55.5585 24.7257C55.2715 25.0101 55.1101 25.3961 55.1101 25.7985V34.9017C55.1101 35.304 55.2715 35.69 55.5585 35.9745C55.8456 36.2589 56.235 36.4189 56.641 36.4189H70.4187C70.9656 36.4189 71.4708 36.1297 71.7444 35.6603C72.0178 35.1909 72.0178 34.6125 71.7444 34.1431C71.4708 33.6737 70.9656 33.3845 70.4187 33.3845H58.1718V25.7985C58.1718 25.3961 58.0105 25.0102 57.7234 24.7257C57.4364 24.4412 57.047 24.2812 56.641 24.2812ZM21.4319 51.5859H1.53075C0.983794 51.5859 0.478588 51.8752 0.204994 52.3445C-0.0683312 52.8139 -0.0683312 53.3923 0.204994 53.8617C0.478637 54.3311 0.983819 54.6203 1.53075 54.6203H13.7776V80.4127H1.53075C0.983794 80.4127 0.478588 80.7019 0.204994 81.1713C-0.0683312 81.6407 -0.0683312 82.2191 0.204994 82.6885C0.478637 83.1579 0.983819 83.4471 1.53075 83.4471H21.4319C23.0555 83.4452 24.6119 82.8052 25.7597 81.6676C26.9078 80.53 27.5534 78.9872 27.5553 77.3783V57.6547C27.5534 56.0459 26.9078 54.5031 25.7597 53.3655C24.6119 52.2279 23.0555 51.5878 21.4319 51.5859ZM24.4936 77.3783C24.4926 78.1828 24.1699 78.954 23.5958 79.523C23.022 80.0919 22.2436 80.4118 21.4319 80.4127H16.8393V54.6203H21.4319C22.2435 54.6213 23.0221 54.9412 23.5958 55.5101C24.1699 56.079 24.4926 56.8503 24.4936 57.6547V77.3783ZM44.8405 54.6733C47.7737 54.9628 50.629 55.7771 53.2688 57.0765C54.5375 57.6935 55.8671 58.179 57.2363 58.5257C59.1585 58.8516 61.1059 59.0084 63.0557 58.9945L63.0618 58.9946C66.6769 59.0916 70.7723 59.2015 72.0963 60.8947C72.7045 61.7368 72.8796 62.8121 72.5696 63.8008C72.2041 64.9529 71.1731 65.8202 69.5867 66.3099C65.5153 67.5669 54.3786 68.7279 49.7721 68.1011V68.1015C49.3687 68.0439 48.9586 68.1486 48.6329 68.3919C48.3076 68.635 48.0933 68.9969 48.0378 69.3974C47.9827 69.7976 48.0908 70.2034 48.3383 70.5243C48.5857 70.8454 48.9522 71.0553 49.3566 71.1077C50.5701 71.2516 51.7923 71.317 53.0144 71.3034C58.7223 71.3034 66.9423 70.3049 70.4972 69.2068C73.0464 68.4201 74.8196 66.8236 75.49 64.7121C76.0937 62.7746 75.7324 60.6679 74.5163 59.0368C72.3035 56.206 67.644 56.0817 63.1381 55.9617C61.3809 55.9743 59.6255 55.8403 57.8908 55.5609C56.7273 55.2552 55.5977 54.8348 54.5184 54.3066C51.5715 52.8691 48.3873 51.9695 45.1186 51.6509C40.4855 51.2334 33.9527 52.9166 29.9121 54.1587H29.9124C30.3069 55.1038 30.5365 56.1087 30.5917 57.1299C34.3841 55.9513 40.6546 54.2895 44.8405 54.6733ZM78.4124 60.0239C83.2125 56.5048 89.0151 52.4282 90.8381 51.8909L90.8385 51.8907C93.8781 50.9921 95.6651 52.2352 96.4602 53.0545C97.1994 53.8883 97.6963 54.9051 97.8985 55.9969C98.1004 57.0883 97.9999 58.2139 97.6076 59.2535C95.9592 64.0527 73.7382 81.3547 66.4035 85.3841C63.5718 87.0394 60.3567 87.9409 57.0698 88.0006C53.8844 87.8992 50.7675 87.0603 47.968 85.5507C42.3058 82.987 36.3731 81.0583 30.2786 79.7999C30.5025 79.011 30.617 78.1955 30.6196 77.3759V76.7867C37.0549 78.0754 43.3186 80.0967 49.2854 82.8112C52.7986 84.4716 57.6108 86.7443 64.9181 82.7306C73.2965 78.1281 93.6207 61.4445 94.7089 58.2758C95.1228 57.2296 94.9494 56.0446 94.2531 55.158C93.9023 54.8745 93.4804 54.6911 93.0323 54.6279C92.5841 54.5647 92.1275 54.6238 91.7109 54.7992C90.3752 55.1925 84.4127 59.38 78.8101 63.5173C78.8975 62.3383 78.7626 61.1536 78.4124 60.0239Z" fill="black"/>
</g>
</svg>
