<svg width="24" height="24" viewBox="0 0 24 24" fill="none" xmlns="http://www.w3.org/2000/svg">
<path fill-rule="evenodd" clip-rule="evenodd" d="M7.55425 12.1912C4.64596 12.7096 1 14.2816 1 16.9V17V19H3H10.371C10.121 18.6286 9.90155 18.2335 9.71678 17.8177L9.60742 17.5591L9.38281 17H3V16.9C3 16.5464 3.35658 15.812 5.02293 15.0425C6.5303 14.3464 8.36927 14 9.5 14C9.92836 14 10.4584 14.0497 11.0335 14.1493C11.6002 13.5168 12.2669 12.9792 13.0058 12.5569C12.4789 12.4032 11.9512 12.2813 11.4458 12.1912C10.7309 12.0638 10.0606 12 9.5 12C8.93938 12 8.2691 12.0638 7.55425 12.1912ZM7.76755 10.132C8.29666 10.3685 8.88297 10.5 9.5 10.5C10.117 10.5 10.7033 10.3685 11.2325 10.132C12.7161 9.46889 13.75 7.98018 13.75 6.25C13.75 3.90279 11.8472 2 9.5 2C7.15279 2 5.25 3.90279 5.25 6.25C5.25 7.98018 6.28389 9.46889 7.76755 10.132ZM9.5 4C8.25736 4 7.25 5.00736 7.25 6.25C7.25 7.49264 8.25736 8.5 9.5 8.5C10.7426 8.5 11.75 7.49264 11.75 6.25C11.75 5.00736 10.7426 4 9.5 4ZM11 17C11.94 14.66 14.27 13 17 13C19.73 13 22.06 14.66 23 17C22.06 19.34 19.73 21 17 21C14.27 21 11.94 19.34 11 17ZM14.5 17C14.5 18.3807 15.6193 19.5 17 19.5C18.3807 19.5 19.5 18.3807 19.5 17C19.5 15.6193 18.3807 14.5 17 14.5C15.6193 14.5 14.5 15.6193 14.5 17ZM17 16C17.56 16 18 16.44 18 17C18 17.56 17.56 18 17 18C16.44 18 16 17.56 16 17C16 16.44 16.44 16 17 16Z" fill="black"/>
</svg>
