<svg width="24" height="24" viewBox="0 0 24 24" fill="none" xmlns="http://www.w3.org/2000/svg">
<path fill-rule="evenodd" clip-rule="evenodd" d="M12.5211 11.2609C14.25 11.2609 15.6515 9.85933 15.6515 8.13043C15.6515 6.40154 14.25 5 12.5211 5C10.7922 5 9.39062 6.40154 9.39062 8.13043C9.39062 9.85933 10.7922 11.2609 12.5211 11.2609ZM12.521 7.08694C13.0973 7.08694 13.5645 7.55413 13.5645 8.13042C13.5645 8.70672 13.0973 9.1739 12.521 9.1739C11.9447 9.1739 11.4775 8.70672 11.4775 8.13042C11.4775 7.55413 11.9447 7.08694 12.521 7.08694ZM17.7383 5C17.423 5.00019 17.1097 5.04947 16.8096 5.14609C18.06 6.93919 18.06 9.32168 16.8096 11.1148C17.1097 11.2114 17.423 11.2607 17.7383 11.2609C19.4672 11.2609 20.8687 9.85933 20.8687 8.13043C20.8687 6.40154 19.4672 5 17.7383 5ZM12.5215 13.3478C6.26066 13.3478 6.26066 17.5217 6.26066 17.5217V19.6087H18.7824V17.5217C18.7824 17.5217 18.7824 13.3478 12.5215 13.3478ZM12.5235 15.4348C8.68349 15.4348 8.34958 17.2191 8.34958 17.5217H16.6974C16.6348 17.0626 16.1757 15.4348 12.5235 15.4348ZM24.0009 17.5217V19.6087H20.8704V17.5217C20.8212 15.9548 20.1444 14.4734 18.9922 13.4104C24.0009 13.9217 24.0009 17.5217 24.0009 17.5217ZM7.82609 10.5617L6.61565 9.09044L2.86957 12.8261L1.21043 11.1774L0 12.3878L2.86957 15.5183L7.82609 10.5617Z" fill="black"/>
</svg>
