<svg width="24" height="24" viewBox="0 0 24 24" fill="none" xmlns="http://www.w3.org/2000/svg">
<path fill-rule="evenodd" clip-rule="evenodd" d="M9.47551 14.0333C6.09596 14.6845 2 16.5192 2 19.5294V22H4.47059H19.5294H22V19.5294C22 16.5192 17.904 14.6845 14.5245 14.0333C13.5956 13.8543 12.7207 13.7647 12 13.7647C11.2793 13.7647 10.4044 13.8543 9.47551 14.0333ZM9.76976 11.4763C10.4412 11.8114 11.1986 12 12 12C12.8014 12 13.5588 11.8114 14.2302 11.4763C15.8722 10.6566 17 8.95999 17 7C17 4.23858 14.7614 2 12 2C9.23858 2 7 4.23858 7 7C7 8.95999 8.12775 10.6566 9.76976 11.4763ZM19.5294 19.5294C19.5294 19.1886 19.1721 18.3534 17.2178 17.4509C15.4599 16.6392 13.3132 16.2353 12 16.2353C10.6868 16.2353 8.54012 16.6392 6.78218 17.4509C4.82786 18.3534 4.47059 19.1886 4.47059 19.5294H19.5294ZM12 4.47059C10.603 4.47059 9.47059 5.60304 9.47059 7C9.47059 8.39696 10.603 9.52941 12 9.52941C13.397 9.52941 14.5294 8.39696 14.5294 7C14.5294 5.60304 13.397 4.47059 12 4.47059Z" fill="black"/>
</svg>
