<svg width="24" height="24" viewBox="0 0 24 24" fill="none" xmlns="http://www.w3.org/2000/svg">
<path fill-rule="evenodd" clip-rule="evenodd" d="M15.6525 8.13043C15.6525 6.40154 14.2509 5 12.522 5C10.7931 5 9.3916 6.40154 9.3916 8.13043C9.3916 9.85933 10.7931 11.2609 12.522 11.2609C14.2509 11.2609 15.6525 9.85933 15.6525 8.13043ZM18.7826 17.5217V19.6087H6.26087V17.5217C6.26087 17.5217 6.26087 13.3478 12.5217 13.3478C18.7826 13.3478 18.7826 17.5217 18.7826 17.5217ZM20.8685 17.5217C20.8192 15.9548 20.1425 14.4734 18.9902 13.4104C23.9989 13.9217 23.9989 17.5217 23.9989 17.5217V19.6087H20.8685V17.5217ZM17.7385 5C17.4232 5.00019 17.1099 5.04947 16.8098 5.14609C18.0602 6.93919 18.0602 9.32168 16.8098 11.1148C17.1099 11.2114 17.4232 11.2607 17.7385 11.2609C19.4674 11.2609 20.8689 9.85933 20.8689 8.13043C20.8689 6.40154 19.4674 5 17.7385 5ZM7.82609 10.5617L6.61565 9.09044L2.86957 12.8261L1.21043 11.1774L0 12.3878L2.86957 15.5183L7.82609 10.5617Z" fill="black"/>
</svg>
