<svg width="24" height="24" viewBox="0 0 24 24" fill="none" xmlns="http://www.w3.org/2000/svg">
<path fill-rule="evenodd" clip-rule="evenodd" d="M11.9999 3.44753C11.3014 2.68233 10.3123 2.24766 9.2763 2.25015C8.00651 2.23869 6.82267 2.89049 6.15353 3.96966C5.11274 4.11251 4.1573 4.62257 3.45951 5.40768C2.76153 6.19293 2.36714 7.20145 2.3473 8.25183C2.3473 8.33949 2.35035 8.4279 2.35627 8.5169C1.4906 9.33691 1.0002 10.4768 1 11.6692C1.00668 12.8788 1.51201 14.0323 2.39656 14.8573C2.36371 15.0693 2.34729 15.2834 2.34729 15.4979C2.36715 16.5482 2.7615 17.5569 3.45931 18.3422C4.1571 19.1273 5.11233 19.6376 6.15318 19.7806C6.82271 20.8596 8.00655 21.5114 9.27633 21.5001C10.3125 21.5026 11.3016 21.0678 12 20.3026C12.6984 21.0678 13.6874 21.5026 14.7236 21.5001C15.9934 21.5114 17.1772 20.8596 17.8468 19.7806C18.8876 19.6376 19.8428 19.1273 20.5406 18.3422C21.2384 17.557 21.6328 16.5482 21.6527 15.4979C21.6527 15.2834 21.6362 15.0693 21.6034 14.8573C22.488 14.0323 22.9933 12.8788 22.9999 11.6692C22.9998 10.4768 22.5093 9.33691 21.6437 8.5169C21.6494 8.4281 21.6525 8.33968 21.6527 8.25202V8.25183C21.6328 7.2017 21.2384 6.19298 20.5404 5.40768C19.8426 4.62257 18.8872 4.11252 17.8464 3.96966C17.1772 2.89049 15.9934 2.23871 14.7237 2.25015C13.6877 2.24767 12.6986 2.68232 12 3.44753H11.9999ZM11.0833 17.965C11.0684 18.4301 10.87 18.8703 10.5314 19.1892C10.1926 19.5081 9.74133 19.68 9.2763 19.667C8.7744 19.6666 8.29393 19.4636 7.94408 19.1038C8.49178 18.5055 8.81987 17.7391 8.87487 16.9299C8.89989 16.6034 8.74902 16.2883 8.47879 16.1032C8.20857 15.9182 7.86006 15.8914 7.56482 16.033C7.26938 16.1745 7.07212 16.4628 7.04689 16.7894C7.02436 17.2447 6.81983 17.6717 6.47934 17.9746C5.86114 17.91 5.28748 17.6236 4.86489 17.1681C4.44208 16.7126 4.19898 16.1193 4.18064 15.4981C4.1816 15.3917 4.18962 15.2855 4.20509 15.1803C4.57251 15.0388 4.96516 14.9744 5.35857 14.991C5.68379 15.0304 6.00522 14.8933 6.2017 14.6314C6.3984 14.3694 6.44023 14.0226 6.31189 13.7215C6.18337 13.4203 5.90398 13.2104 5.57876 13.1711C4.90175 13.1176 4.22112 13.2139 3.58556 13.4529C3.12933 13.008 2.86084 12.4051 2.83522 11.7682C2.80982 11.1315 3.02905 10.5091 3.44824 10.029C4.03392 10.3346 4.68287 10.4998 5.34346 10.5116C5.45097 10.5116 5.55964 10.5068 5.67021 10.4963C5.9962 10.4652 6.28093 10.2626 6.41708 9.96486C6.55325 9.66695 6.52021 9.31899 6.33019 9.05221C6.14037 8.78523 5.82258 8.64009 5.4964 8.67103C5.03959 8.69013 4.58662 8.57898 4.19053 8.35058C4.18992 8.33571 4.18774 8.3206 4.18556 8.30547C4.18299 8.28757 4.18041 8.26963 4.18041 8.25204H4.1806C4.20027 7.61497 4.45617 7.00787 4.89848 6.54875C5.34096 6.08966 5.93815 5.81141 6.57404 5.76805C6.76616 5.8771 6.926 6.03503 7.03734 6.226C7.14868 6.41678 7.20731 6.63372 7.2075 6.85466C7.21781 7.09051 7.31883 7.31318 7.48918 7.47648C7.65953 7.63976 7.8864 7.73104 8.12244 7.73123C8.13638 7.73123 8.14974 7.73104 8.16311 7.73028V7.73047C8.40603 7.71977 8.63481 7.61302 8.79906 7.43389C8.96329 7.25457 9.04961 7.01738 9.03911 6.77467C9.01772 5.93036 8.64953 5.13211 8.02145 4.56779C8.36519 4.25612 8.81246 4.08368 9.27632 4.08368C9.74133 4.07069 10.1926 4.24237 10.5312 4.5611C10.8698 4.88002 11.0684 5.32 11.0833 5.78503L11.0833 17.965ZM15.8367 7.73067C15.8501 7.73144 15.8636 7.73163 15.8774 7.73163V7.73144C16.1134 7.73125 16.3403 7.63996 16.5107 7.47668C16.681 7.3134 16.7818 7.09073 16.7923 6.85487C16.7918 6.63334 16.8506 6.41563 16.9627 6.22464C17.0748 6.03348 17.2362 5.87593 17.43 5.76841C18.0652 5.81291 18.6614 6.09154 19.1027 6.55044C19.5442 7.00934 19.7996 7.61587 19.8192 8.2522C19.8192 8.27014 19.8166 8.28843 19.814 8.30668V8.3067V8.30672V8.30673C19.8119 8.32169 19.8098 8.33662 19.8091 8.35132H19.8093C19.4132 8.5801 18.9603 8.69105 18.5034 8.6712C18.1773 8.64026 17.8595 8.78559 17.6696 9.05238C17.4796 9.31916 17.4466 9.6671 17.5828 9.96503C17.7189 10.2629 18.0037 10.4656 18.3296 10.4965C18.4402 10.507 18.5489 10.5118 18.6564 10.5118C19.317 10.4999 19.9659 10.3347 20.5516 10.0292C20.9708 10.5093 21.19 11.1315 21.1646 11.7684C21.139 12.405 20.8707 13.0078 20.4147 13.4529C19.7789 13.2136 19.0981 13.1176 18.4211 13.1712C18.0959 13.2106 17.8165 13.4205 17.688 13.7216C17.5597 14.0228 17.6015 14.3698 17.7982 14.6316C17.9947 14.8934 18.3161 15.0305 18.6413 14.9912C19.0347 14.9748 19.4273 15.0393 19.795 15.1806C19.8103 15.2859 19.8183 15.392 19.8192 15.4982C19.8009 16.1198 19.5576 16.7134 19.1344 17.169C18.7112 17.6245 18.1372 17.911 17.5186 17.9749C17.179 17.6713 16.9755 17.2445 16.9529 16.7896C16.9277 16.463 16.7305 16.1746 16.435 16.0331C16.1398 15.8916 15.7913 15.9183 15.521 16.1034C15.2508 16.2884 15.1 16.6035 15.125 16.9301C15.18 17.7393 15.5081 18.5056 16.0558 19.1039C15.7059 19.4637 15.2254 19.6667 14.7235 19.6671C14.2585 19.6801 13.8073 19.5082 13.4685 19.1893C13.1299 18.8704 12.9315 18.4302 12.9166 17.9652V5.78506C12.9315 5.32005 13.1301 4.88004 13.4687 4.56113C13.8073 4.2424 14.2585 4.07073 14.7235 4.08371C15.1874 4.08371 15.6347 4.25615 15.9784 4.56782C15.3501 5.13214 14.9821 5.9304 14.9608 6.7747C14.9502 7.01743 15.0366 7.25462 15.2008 7.43392C15.365 7.61305 15.5938 7.71981 15.8367 7.7305L15.8367 7.73067ZM8.31179 12.3636C8.09428 12.4205 7.90503 12.5553 7.78052 12.7426C7.65582 12.9298 7.60444 13.1565 7.63596 13.3792C7.36039 13.5428 7.19042 13.8386 7.18756 14.1593C7.18469 14.4797 7.34969 14.7786 7.62221 14.947C7.89491 15.1157 8.23581 15.1296 8.52132 14.9837C8.87538 14.8103 9.15897 14.5202 9.32456 14.1625C9.49013 13.8046 9.52737 13.4007 9.43036 13.0186C9.36944 12.7831 9.21704 12.5817 9.00717 12.4587C8.79729 12.3357 8.54709 12.3015 8.31179 12.3636ZM15.897 13.433C15.8901 13.3986 15.8718 13.3675 15.845 13.3448L15.8451 13.3447C16.0624 13.4551 16.2268 13.6472 16.3028 13.8789C16.3788 14.1106 16.3598 14.3628 16.2501 14.5805C16.1415 14.7975 15.9507 14.9621 15.72 15.0377C15.4895 15.1133 15.2382 15.0939 15.022 14.9835C14.6679 14.8101 14.3843 14.52 14.2188 14.1623C14.0532 13.8044 14.0159 13.4005 14.113 13.0184L15.8863 13.4821C15.8924 13.4664 15.896 13.4498 15.897 13.433ZM14.5109 9.71189C14.2354 9.87556 14.0654 10.1714 14.0625 10.492C14.0597 10.8125 14.2247 11.1113 14.4972 11.2798C14.7699 11.4484 15.1108 11.4623 15.3963 11.3164C15.7503 11.143 16.0339 10.8529 16.1995 10.4952C16.3651 10.1374 16.4023 9.73345 16.3053 9.35134C16.2257 9.04654 15.9952 8.80422 15.6948 8.70928C15.3946 8.61437 15.0665 8.68025 14.826 8.88383C14.5858 9.08741 14.4668 9.40003 14.5109 9.71189ZM8.84499 11.3711C8.6145 11.4467 8.36318 11.4273 8.147 11.3169L8.14703 11.3168C7.79296 11.1434 7.50936 10.8533 7.34379 10.4957C7.17822 10.1378 7.14098 9.73389 7.23799 9.35176L9.01133 9.81544C9.01744 9.79978 9.02107 9.78316 9.02203 9.76636C9.01515 9.73198 8.99682 9.70085 8.97008 9.67813C9.18741 9.78852 9.35183 9.98064 9.42784 10.2123C9.50385 10.444 9.48475 10.6962 9.37514 10.9139C9.26646 11.1309 9.07568 11.2955 8.84499 11.3711Z" fill="black"/>
</svg>
