<svg width="24" height="24" viewBox="0 0 24 24" fill="none" xmlns="http://www.w3.org/2000/svg">
<path fill-rule="evenodd" clip-rule="evenodd" d="M15.157 1.45976C14.9204 2.98989 13.5976 4.16127 12.0012 4.16127C10.4045 4.16127 9.08154 2.98955 8.84519 1.45909C9.84453 1.16043 10.9035 1 12 1C13.0973 1 14.157 1.16067 15.157 1.45976ZM17.2211 2.31565C16.3067 3.56492 16.4139 5.3284 17.5426 6.45716C18.6714 7.58593 20.4349 7.69308 21.6842 6.77859C20.6643 4.89102 19.1087 3.33545 17.2211 2.31565ZM22.5405 8.8437C21.0091 9.07931 19.8365 10.4027 19.8365 11.9999C19.8365 13.5972 21.0092 14.9206 22.5405 15.1562C22.8394 14.1565 23 13.097 23 12C23 10.903 22.8394 9.84347 22.5405 8.8437ZM21.684 17.2218C20.4347 16.3069 18.6708 16.4139 17.5419 17.5428C16.413 18.6717 16.3059 20.4353 17.2206 21.6846C19.1083 20.6649 20.664 19.1094 21.684 17.2218ZM15.1571 22.5402C14.9205 21.01 13.5976 19.8386 12.0012 19.8386C10.4045 19.8386 9.08148 21.0104 8.84517 22.5409C9.84451 22.8396 10.9035 23 12 23C13.0973 23 14.1571 22.8393 15.1571 22.5402ZM6.7789 21.6844C7.69331 20.4351 7.58615 18.6716 6.4574 17.5428C5.32862 16.4141 3.56509 16.3069 2.31581 17.2214C3.33567 19.109 4.89129 20.6646 6.7789 21.6844ZM1.45944 15.156C2.99015 14.9199 4.16211 13.5968 4.16211 11.9999C4.16211 10.4031 2.99016 9.08005 1.45948 8.84389C1.16057 9.84361 1 10.9031 1 12C1 13.0969 1.16056 14.1563 1.45944 15.156ZM2.3156 6.77897C3.56485 7.69304 5.32805 7.58577 6.45666 6.45715C7.58533 5.32849 7.69256 3.56519 6.77837 2.31593C4.89087 3.33581 3.33536 4.89141 2.3156 6.77897ZM13.0147 6.03224C13.0147 6.59344 12.5597 7.04837 11.9986 7.04837C11.4374 7.04837 10.9824 6.59344 10.9824 6.03224C10.9824 5.47105 11.4374 5.01611 11.9986 5.01611C12.5597 5.01611 13.0147 5.47105 13.0147 6.03224ZM15.5002 8.49867C15.8971 8.8955 16.5404 8.8955 16.9373 8.49867C17.3341 8.10185 17.3341 7.45847 16.9373 7.06165C16.5404 6.66483 15.8971 6.66483 15.5002 7.06165C15.1034 7.45847 15.1034 8.10185 15.5002 8.49867ZM17.9682 13.0161C17.4071 13.0161 16.9521 12.5612 16.9521 12C16.9521 11.4388 17.4071 10.9839 17.9682 10.9839C18.5294 10.9839 18.9844 11.4388 18.9844 12C18.9844 12.5612 18.5294 13.0161 17.9682 13.0161ZM15.5007 15.5012C15.1039 15.898 15.1039 16.5414 15.5007 16.9382C15.8975 17.3351 16.5409 17.3351 16.9377 16.9382C17.3346 16.5414 17.3346 15.898 16.9377 15.5012C16.5409 15.1044 15.8975 15.1044 15.5007 15.5012ZM13.0147 17.9678C13.0147 18.529 12.5597 18.9839 11.9986 18.9839C11.4374 18.9839 10.9824 18.529 10.9824 17.9678C10.9824 17.4066 11.4374 16.9517 11.9986 16.9517C12.5597 16.9517 13.0147 17.4066 13.0147 17.9678ZM7.06176 16.9382C7.45858 17.3351 8.10196 17.3351 8.49879 16.9382C8.89561 16.5414 8.89561 15.8981 8.49879 15.5012C8.10196 15.1044 7.45858 15.1044 7.06176 15.5012C6.66494 15.8981 6.66494 16.5414 7.06176 16.9382ZM6.03172 13.0161C5.47053 13.0161 5.01559 12.5612 5.01559 12C5.01559 11.4388 5.47053 10.9839 6.03172 10.9839C6.59292 10.9839 7.04785 11.4388 7.04785 12C7.04785 12.5612 6.59291 13.0161 6.03172 13.0161ZM7.06126 7.06164C6.66444 7.45846 6.66444 8.10184 7.06126 8.49866C7.45809 8.89549 8.10146 8.89549 8.49829 8.49866C8.89511 8.10184 8.89511 7.45846 8.49829 7.06164C8.10146 6.66482 7.45809 6.66482 7.06126 7.06164Z" fill="black"/>
</svg>
