<svg width="24" height="24" viewBox="0 0 24 24" fill="none" xmlns="http://www.w3.org/2000/svg">
<rect x="2" y="2" width="20" height="20" rx="5" fill="#196AAC"/>
<path fill-rule="evenodd" clip-rule="evenodd" d="M12.3919 18.4309C8.51564 18.4309 5.63672 15.4384 5.63672 11.6555V11.6178C5.63672 7.87244 8.45926 4.80469 12.5048 4.80469C14.9886 4.80469 16.4751 5.63282 17.6982 6.83737L15.8541 8.96411C14.838 8.04192 13.8031 7.4773 12.486 7.4773C10.2656 7.4773 8.66615 9.32168 8.66615 11.5801V11.6178C8.66615 13.8762 10.2279 15.7584 12.486 15.7584C13.9913 15.7584 14.9133 15.1561 15.9482 14.2151L17.7922 16.0783C16.4374 17.5275 14.9321 18.4309 12.3919 18.4309Z" fill="white"/>
</svg>
