<svg width="24" height="24" viewBox="0 0 24 24" fill="none" xmlns="http://www.w3.org/2000/svg">
<path fill-rule="evenodd" clip-rule="evenodd" d="M7 2C4.23858 2 2 4.23858 2 7V17C2 19.7614 4.23858 22 7 22H17C19.7614 22 22 19.7614 22 17V7C22 4.23858 19.7614 2 17 2H7ZM5.63672 11.6555C5.63672 15.4384 8.51564 18.431 12.3919 18.431C14.9321 18.431 16.4374 17.5276 17.7922 16.0784L15.9482 14.2152C14.9133 15.1562 13.9913 15.7585 12.486 15.7585C10.2279 15.7585 8.66615 13.8763 8.66615 11.6179V11.5802C8.66615 9.32176 10.2656 7.47738 12.486 7.47738C13.8031 7.47738 14.838 8.04199 15.8541 8.96418L17.6982 6.83745C16.4751 5.6329 14.9886 4.80476 12.5048 4.80476C8.45926 4.80476 5.63672 7.87252 5.63672 11.6179V11.6555Z" fill="black"/>
</svg>
