<svg width="24" height="24" viewBox="0 0 24 24" fill="none" xmlns="http://www.w3.org/2000/svg">
<path fill-rule="evenodd" clip-rule="evenodd" d="M19 4H14.82C14.4 2.84 13.3 2 12 2C10.7 2 9.6 2.84 9.18 4H5C3.89543 4 3 4.89543 3 6V20C3 21.1046 3.89543 22 5 22H19C20.1046 22 21 21.1046 21 20V6C21 4.89543 20.1046 4 19 4ZM12 4C12.5523 4 13 4.44772 13 5C13 5.55228 12.5523 6 12 6C11.4477 6 11 5.55228 11 5C11 4.44772 11.4477 4 12 4ZM17 6V8H7V6H5V20H19V6H17ZM17 10V12H7V10H17ZM17 16V14H7V16H17Z" fill="black"/>
</svg>
