<svg width="24" height="24" viewBox="0 0 24 24" fill="none" xmlns="http://www.w3.org/2000/svg">
<path fill-rule="evenodd" clip-rule="evenodd" d="M14.82 4H19C20.1046 4 21 4.89543 21 6V20C21 21.1046 20.1046 22 19 22H5C3.89543 22 3 21.1046 3 20V6C3 4.89543 3.89543 4 5 4H9.18C9.6 2.84 10.7 2 12 2C13.3 2 14.4 2.84 14.82 4ZM13 5C13 4.44772 12.5523 4 12 4C11.4477 4 11 4.44772 11 5C11 5.55228 11.4477 6 12 6C12.5523 6 13 5.55228 13 5ZM17 8V6H19V20H5V6H7V8H17ZM12.4984 16.2C14.4866 16.1999 16.0982 14.5882 16.0982 12.6C16.0982 10.6118 14.4866 9.00011 12.4984 9V10.8C13.4925 10.8001 14.2982 11.606 14.2982 12.6C14.2982 13.594 13.4925 14.3999 12.4984 14.4V16.2ZM11.5998 18C9.61167 17.9999 8 16.3882 8 14.4C8 12.4119 9.61167 10.8002 11.5998 10.8V12.6C10.6058 12.6002 9.8 13.406 9.8 14.4C9.8 15.3941 10.6058 16.1999 11.5998 16.2V18Z" fill="black"/>
</svg>
