<svg width="24" height="24" viewBox="0 0 24 24" fill="none" xmlns="http://www.w3.org/2000/svg">
<path d="M7.50876 13.4489C7.25004 13.4489 7.03234 13.3605 6.85566 13.1837C6.67897 13.0069 6.59063 12.7891 6.59063 12.5303C6.59063 12.2715 6.67897 12.0537 6.85566 11.8769C7.03234 11.7001 7.25004 11.6117 7.50876 11.6117H11.0771V6.64015C11.0771 6.38763 11.1655 6.17298 11.3422 5.99621C11.5189 5.81944 11.7366 5.73106 11.9953 5.73106C12.254 5.73106 12.4717 5.81944 12.6484 5.99621C12.8251 6.17298 12.9134 6.38763 12.9134 6.64015V12.5303C12.9134 12.7891 12.8251 13.0069 12.6484 13.1837C12.4717 13.3605 12.254 13.4489 11.9953 13.4489H7.50876ZM11.9953 22C10.626 22 9.3387 21.738 8.13346 21.214C6.92822 20.6963 5.86496 19.9766 4.94368 19.0549C4.0224 18.1395 3.29989 17.0789 2.77615 15.8731C2.25872 14.6673 2 13.3763 2 12C2 10.6301 2.25872 9.34217 2.77615 8.13636C3.29989 6.93056 4.01925 5.86679 4.93422 4.94508C5.8555 4.02336 6.91876 3.30366 8.12399 2.78598C9.33554 2.26199 10.626 2 11.9953 2C13.3646 2 14.6518 2.26199 15.8571 2.78598C17.0686 3.30366 18.1319 4.02336 19.0469 4.94508C19.9681 5.86679 20.6906 6.93056 21.2144 8.13636C21.7381 9.34217 22 10.6301 22 12C22 13.3763 21.7381 14.6673 21.2144 15.8731C20.6906 17.0789 19.9681 18.1395 19.0469 19.0549C18.1319 19.9766 17.0718 20.6963 15.8665 21.214C14.6613 21.738 13.3709 22 11.9953 22ZM11.9953 19.5095C13.0364 19.5095 14.0114 19.3138 14.92 18.9223C15.8287 18.5372 16.6269 18.0038 17.3147 17.322C18.0025 16.6338 18.5389 15.8352 18.9238 14.9261C19.315 14.017 19.5106 13.0417 19.5106 12C19.5106 10.9583 19.315 9.98611 18.9238 9.08333C18.5326 8.17424 17.9931 7.37563 17.3053 6.6875C16.6238 5.99937 15.8287 5.46275 14.92 5.07765C14.0114 4.68624 13.0364 4.49053 11.9953 4.49053C10.9541 4.49053 9.97918 4.68624 9.07052 5.07765C8.16817 5.46275 7.37309 5.99937 6.68528 6.6875C5.99748 7.37563 5.46111 8.17424 5.0762 9.08333C4.69128 9.98611 4.49882 10.9583 4.49882 12C4.49882 13.0417 4.69128 14.017 5.0762 14.9261C5.46111 15.8352 5.99748 16.6338 6.68528 17.322C7.37309 18.0038 8.17132 18.5372 9.07998 18.9223C9.98864 19.3138 10.9604 19.5095 11.9953 19.5095Z" fill="black"/>
</svg>
