<svg width="24" height="24" viewBox="0 0 24 24" fill="none" xmlns="http://www.w3.org/2000/svg">
<path fill-rule="evenodd" clip-rule="evenodd" d="M8 21C8 21.5523 8.44772 22 9 22H9.5C9.75 22 10 21.9 10.2 21.71L13.9 18H20C21.1046 18 22 17.1046 22 16V4C22 2.89543 21.1046 2 20 2H4C2.9 2 2 2.89 2 4V16C2 17.1046 2.89543 18 4 18H8V21ZM10 19.08V16H4V4H20V16H13.08L10 19.08ZM8 14V13C8 11.67 10.67 11 12 11C13.33 11 16 11.67 16 13V14H8ZM14 8C14 6.89543 13.1046 6 12 6C10.8954 6 10 6.89543 10 8C10 9.10457 10.8954 10 12 10C13.1046 10 14 9.10457 14 8Z" fill="black"/>
</svg>
