<svg width="24" height="24" viewBox="0 0 24 24" fill="none" xmlns="http://www.w3.org/2000/svg">
<path fill-rule="evenodd" clip-rule="evenodd" d="M12 1C5.92487 1 1 5.92487 1 12C1 18.0751 5.92487 23 12 23C18.0751 23 23 18.0751 23 12C23 5.92487 18.0751 1 12 1ZM11.9997 2.83337C17.0623 2.83337 21.1663 6.93743 21.1663 12C21.1663 17.0627 17.0623 21.1667 11.9997 21.1667C6.93706 21.1667 2.83301 17.0627 2.83301 12C2.83301 6.93743 6.93706 2.83337 11.9997 2.83337ZM12.2685 7.68517C12.5989 7.35473 13.1189 7.32931 13.4785 7.60892L13.5648 7.68517L17.2106 11.3309C17.3891 11.4982 17.5007 11.736 17.5007 12C17.5007 12.2633 17.3896 12.5006 17.2119 12.6678L13.5648 16.3149C13.2069 16.6728 12.6265 16.6728 12.2685 16.3149C11.938 15.9844 11.9126 15.4645 12.1922 15.1049L12.2685 15.0185L14.3698 12.9166H6.50065C5.99439 12.9166 5.58398 12.5062 5.58398 12C5.58398 11.5299 5.93785 11.1424 6.39375 11.0895L6.50065 11.0833H14.3698L12.2685 8.98153C11.938 8.65109 11.9126 8.13113 12.1922 7.77153L12.2685 7.68517Z" fill="#9F6405"/>
</svg>
