<svg width="24" height="24" viewBox="0 0 24 24" fill="none" xmlns="http://www.w3.org/2000/svg">
<path fill-rule="evenodd" clip-rule="evenodd" d="M12 1C5.92487 1 1 5.92487 1 12C1 18.0751 5.92487 23 12 23C18.0751 23 23 18.0751 23 12C23 5.92487 18.0751 1 12 1ZM11.9997 2.83331C17.0623 2.83331 21.1663 6.93737 21.1663 12C21.1663 17.0626 17.0623 21.1666 11.9997 21.1666C6.93706 21.1666 2.83301 17.0626 2.83301 12C2.83301 6.93737 6.93706 2.83331 11.9997 2.83331ZM12.2685 7.68516C12.5989 7.35471 13.1189 7.32929 13.4785 7.6089L13.5648 7.68516L17.2111 11.3314C17.3893 11.4986 17.5007 11.7363 17.5007 12C17.5007 12.2635 17.3894 12.5011 17.2114 12.6683L13.5648 16.3149C13.2069 16.6728 12.6265 16.6728 12.2685 16.3149C11.938 15.9844 11.9126 15.4644 12.1922 15.1048L12.2685 15.0185L14.3698 12.9167H6.50065C5.99439 12.9167 5.58398 12.5063 5.58398 12C5.58398 11.5299 5.93785 11.1424 6.39375 11.0895L6.50065 11.0833H14.3698L12.2685 8.98152C11.938 8.65108 11.9126 8.13111 12.1922 7.77151L12.2685 7.68516Z" fill="black"/>
</svg>
