<svg width="24" height="24" viewBox="0 0 24 24" fill="none" xmlns="http://www.w3.org/2000/svg">
<path fill-rule="evenodd" clip-rule="evenodd" d="M5.96792 3.9979C6.12491 3.83926 6.33883 3.74999 6.56202 3.74999H8.72241L7.07525 7.10769C6.99244 7.2765 6.92521 7.45098 6.87366 7.62906H2.37458L5.96792 3.9979ZM8.21179 7.62906L10.1147 3.74999H13.7807L15.6836 7.62906H8.21179ZM15.8655 8.87905H8.02988C8.0504 8.98982 8.08058 9.09936 8.12047 9.20642L11.9477 19.4782L15.7749 9.20645C15.8148 9.09938 15.845 8.98983 15.8655 8.87905ZM13.8146 18.0478L16.9463 9.64288C17.0388 9.39448 17.0994 9.13792 17.1284 8.87905H22.0987C22.0625 8.98302 22.0051 9.08139 21.9264 9.16756L13.8146 18.0478ZM17.0217 7.62906C16.9702 7.45099 16.9029 7.27652 16.8201 7.10772L15.173 3.74999H17.3331C17.5562 3.74999 17.7702 3.83926 17.9272 3.9979L21.5205 7.62906H17.0217ZM1.79643 8.87905H6.76699C6.79597 9.13791 6.85658 9.39446 6.94913 9.64285L10.081 18.0483L1.96871 9.16756C1.89 9.08139 1.83261 8.98302 1.79643 8.87905ZM4.72402 2.76696C5.20971 2.27616 5.87153 2 6.56202 2H17.3331C18.0236 2 18.6854 2.27616 19.1711 2.76696L23.1473 6.78501C24.1161 7.76409 24.1474 9.33082 23.2184 10.3478L13.8567 20.5964C12.8314 21.7189 11.0637 21.7189 10.0383 20.5964L0.676629 10.3478C-0.25237 9.33082 -0.221063 7.76409 0.747823 6.78501L4.72402 2.76696Z" fill="black"/>
</svg>
