<svg width="24" height="24" viewBox="0 0 24 24" fill="none" xmlns="http://www.w3.org/2000/svg">
<path d="M3.81518 20.4086C2.78719 20.4086 1.99503 20.1335 1.4387 19.5832C0.888421 19.0389 0.613281 18.2528 0.613281 17.2248V7.18376C0.613281 6.15576 0.882374 5.36965 1.42056 4.82542C1.95874 4.27514 2.70858 4 3.67005 4H20.1875C21.2215 4 22.0137 4.27514 22.564 4.82542C23.1143 5.36965 23.3894 6.15576 23.3894 7.18376V17.2248C23.3894 18.2528 23.1203 19.0389 22.5821 19.5832C22.0439 20.1335 21.2971 20.4086 20.3417 20.4086H3.81518ZM3.90589 18.2498H20.0968C20.4596 18.2498 20.7378 18.1531 20.9313 17.9596C21.1308 17.7661 21.2306 17.4818 21.2306 17.1069V7.30168C21.2306 6.93281 21.1308 6.65162 20.9313 6.45812C20.7378 6.26461 20.4596 6.16786 20.0968 6.16786H3.90589C3.54306 6.16786 3.2649 6.26461 3.0714 6.45812C2.87789 6.65162 2.78114 6.93281 2.78114 7.30168V17.1069C2.78114 17.4818 2.87789 17.7661 3.0714 17.9596C3.2649 18.1531 3.54306 18.2498 3.90589 18.2498ZM11.9968 14.8484C11.6521 14.8484 11.3286 14.7879 11.0263 14.667C10.73 14.54 10.4276 14.3344 10.1192 14.0502L1.73803 6.51254L3.0714 5.1701L11.2802 12.5717C11.5161 12.7833 11.7549 12.8891 11.9968 12.8891C12.2447 12.8891 12.4866 12.7833 12.7224 12.5717L20.9313 5.1701L22.2647 6.51254L13.8835 14.0502C13.5751 14.3344 13.2697 14.54 12.9674 14.667C12.671 14.7879 12.3475 14.8484 11.9968 14.8484ZM3.25281 18.8575L1.91037 17.5151L8.26881 11.1567L9.6294 12.4719L3.25281 18.8575ZM20.7589 18.8666L14.3733 12.4719L15.7339 11.1567L22.1014 17.5151L20.7589 18.8666Z" fill="black"/>
</svg>
