<svg width="24" height="24" viewBox="0 0 24 24" fill="none" xmlns="http://www.w3.org/2000/svg">
<path d="M11.9957 21C10.7634 21 9.60483 20.7642 8.52011 20.2926C7.4354 19.8267 6.47847 19.179 5.64931 18.3494C4.82016 17.5256 4.1699 16.571 3.69853 15.4858C3.23284 14.4006 3 13.2386 3 12C3 10.767 3.23284 9.60795 3.69853 8.52273C4.1699 7.4375 4.81732 6.48011 5.64079 5.65057C6.46995 4.82102 7.42688 4.1733 8.51159 3.70739C9.60199 3.2358 10.7634 3 11.9957 3C13.2281 3 14.3867 3.2358 15.4714 3.70739C16.5618 4.1733 17.5187 4.82102 18.3422 5.65057C19.1713 6.48011 19.8216 7.4375 20.2929 8.52273C20.7643 9.60795 21 10.767 21 12C21 13.2386 20.7643 14.4006 20.2929 15.4858C19.8216 16.571 19.1713 17.5256 18.3422 18.3494C17.5187 19.179 16.5646 19.8267 15.4799 20.2926C14.3952 20.7642 13.2338 21 11.9957 21ZM11.9957 18.7585C12.9328 18.7585 13.8102 18.5824 14.628 18.2301C15.4458 17.8835 16.1642 17.4034 16.7832 16.7898C17.4023 16.1705 17.885 15.4517 18.2314 14.6335C18.5835 13.8153 18.7596 12.9375 18.7596 12C18.7596 11.0625 18.5835 10.1875 18.2314 9.375C17.8793 8.55682 17.3938 7.83807 16.7747 7.21875C16.1614 6.59943 15.4458 6.11648 14.628 5.76989C13.8102 5.41761 12.9328 5.24148 11.9957 5.24148C11.0587 5.24148 10.1813 5.41761 9.36346 5.76989C8.55135 6.11648 7.83578 6.59943 7.21675 7.21875C6.59773 7.83807 6.115 8.55682 5.76858 9.375C5.42215 10.1875 5.24894 11.0625 5.24894 12C5.24894 12.9375 5.42215 13.8153 5.76858 14.6335C6.115 15.4517 6.59773 16.1705 7.21675 16.7898C7.83578 17.4034 8.55419 17.8835 9.37198 18.2301C10.1898 18.5824 11.0644 18.7585 11.9957 18.7585ZM12.0043 13.2102C11.4136 13.2102 11.1041 12.9176 11.0757 12.3324L10.9479 8.80398C10.9309 8.50852 11.0189 8.26705 11.212 8.07955C11.4108 7.88636 11.6692 7.78977 11.9872 7.78977C12.3109 7.78977 12.5693 7.88636 12.7624 8.07955C12.9612 8.26705 13.0521 8.51136 13.035 8.8125L12.8987 12.3239C12.876 12.9148 12.5779 13.2102 12.0043 13.2102ZM12.0043 16.1335C11.6805 16.1335 11.408 16.0398 11.1865 15.8523C10.9707 15.6648 10.8628 15.4176 10.8628 15.1108C10.8628 14.804 10.9707 14.5568 11.1865 14.3693C11.408 14.1818 11.6805 14.0881 12.0043 14.0881C12.3223 14.0881 12.5892 14.1818 12.805 14.3693C13.0208 14.5568 13.1287 14.804 13.1287 15.1108C13.1287 15.4176 13.0208 15.6648 12.805 15.8523C12.5892 16.0398 12.3223 16.1335 12.0043 16.1335Z" fill="black"/>
</svg>
