<svg width="24" height="24" viewBox="0 0 24 24" fill="none" xmlns="http://www.w3.org/2000/svg">
<path fill-rule="evenodd" clip-rule="evenodd" d="M4.28 5.55L2 3.27L3.27 2L21 19.73L19.73 21L16.8 18.08L16.38 17.66C15.03 18.2 13.55 18.5 12 18.5C7 18.5 2.73 15.39 1 11C1.78 9.02 3.08 7.3 4.74 6.01L4.28 5.55ZM17 11C17 8.24 14.76 6 12 6C11.35 6 10.74 6.13 10.17 6.36L8.01 4.2C9.25 3.75 10.59 3.5 11.99 3.5C16.99 3.5 21.26 6.61 22.99 11C22.26 12.86 21.07 14.49 19.56 15.75L16.64 12.83C16.87 12.26 17 11.65 17 11ZM7.53 8.8L9.08 10.35C9.03 10.56 9 10.78 9 11C9 12.66 10.34 14 12 14C12.22 14 12.44 13.97 12.65 13.92L14.2 15.47C13.53 15.8 12.79 16 12 16C9.24 16 7 13.76 7 11C7 10.21 7.2 9.47 7.53 8.8ZM14.99 11.17L11.84 8.02L12.01 8.01C13.67 8.01 15.01 9.35 15.01 11.01L14.99 11.17Z" fill="black"/>
</svg>
