<svg width="24" height="24" viewBox="0 0 24 24" fill="none" xmlns="http://www.w3.org/2000/svg">
<path fill-rule="evenodd" clip-rule="evenodd" d="M9.17071 7H4V14.4293L6.40304 11.683C6.78281 11.249 7.33146 11 7.90819 11H9.62132H17V9H12C10.6938 9 9.58254 8.16519 9.17071 7ZM19 11V9C19 7.89543 18.1046 7 17 7H12C11.4477 7 11 6.55228 11 6C11 5.44772 10.5523 5 10 5H4C2.89543 5 2 5.89543 2 7V17C2 18.1046 2.89543 19 4 19H4.40819H4.62132H17H17.0931H17.3787C17.7765 19 18.158 18.842 18.4393 18.5607L23.4393 13.5607C24.3843 12.6157 23.715 11 22.3787 11H20.5931H19Z" fill="black"/>
</svg>
