<svg width="24" height="24" viewBox="0 0 24 24" fill="none" xmlns="http://www.w3.org/2000/svg">
<path fill-rule="evenodd" clip-rule="evenodd" d="M22 12V20C22 21.1046 21.1046 22 20 22H4C2.89543 22 2 21.1046 2 20V12C1.44772 12 1 11.5523 1 11V8C1 6.89543 1.89543 6 3 6H6.17C6.06 5.69 6 5.35 6 5C6 3.34315 7.34315 2 9 2C10 2 10.88 2.5 11.43 3.24V3.23L12 4L12.57 3.23V3.24C13.12 2.5 14 2 15 2C16.6569 2 18 3.34315 18 5C18 5.35 17.94 5.69 17.83 6H21C22.1046 6 23 6.89543 23 8V11C23 11.5523 22.5523 12 22 12ZM4 20H11V12H4V20ZM20 12V20H13V12H20ZM9 4C8.44772 4 8 4.44772 8 5C8 5.55228 8.44772 6 9 6C9.55229 6 10 5.55228 10 5C10 4.44772 9.55229 4 9 4ZM14 5C14 4.44772 14.4477 4 15 4C15.5523 4 16 4.44772 16 5C16 5.55228 15.5523 6 15 6C14.4477 6 14 5.55228 14 5ZM3 8V10H11V8H3ZM13 10V8H21V10H13Z" fill="black"/>
</svg>
