<svg width="24" height="24" viewBox="0 0 24 24" fill="none" xmlns="http://www.w3.org/2000/svg">
<path fill-rule="evenodd" clip-rule="evenodd" d="M6 15C7.65685 15 9 13.6569 9 12C9 10.3431 7.65685 9 6 9C4.34315 9 3 10.3431 3 12C3 13.6569 4.34315 15 6 15ZM10.9 13C10.4367 15.2822 8.41896 17 6 17C3.58104 17 1.56329 15.2822 1.10002 13H0V11H1.10002C1.56329 8.71776 3.58104 7 6 7C8.41896 7 10.4367 8.71776 10.9 11H13.1C13.5633 8.71776 15.581 7 18 7C20.419 7 22.4367 8.71776 22.9 11H24V13H22.9C22.4367 15.2822 20.419 17 18 17C15.581 17 13.5633 15.2822 13.1 13H10.9ZM18 15C19.6569 15 21 13.6569 21 12C21 10.3431 19.6569 9 18 9C16.3431 9 15 10.3431 15 12C15 13.6569 16.3431 15 18 15Z" fill="black"/>
</svg>
