<svg width="24" height="24" viewBox="0 0 24 24" fill="none" xmlns="http://www.w3.org/2000/svg">
<path fill-rule="evenodd" clip-rule="evenodd" d="M12 4C14.2218 4 16.232 4.9058 17.6817 6.36824L15.3675 8.49585L14.2197 7.0201L11.5433 5.57073L11.1957 4.03993C11.4602 4.01352 11.7285 4 12 4ZM15.36 11.2195L18.906 7.95943C19.6014 9.14526 20 10.5261 20 12C20 16.4181 16.4181 20 12 20C11.811 20 11.6235 19.9934 11.4378 19.9805L15.8853 16.2742L19.0199 13.5876L15.36 11.2195ZM14.592 10.7564L12.8984 8.57904L9.79374 6.89768L9.24622 4.48662C8.38214 4.80344 7.58791 5.26507 6.89293 5.84211L9.53605 9.8776L7.25976 12.9935L9.40011 16.0924L8.61124 19.2488C9.35082 19.5952 10.1521 19.8317 10.9941 19.9374V14.7782L9.82031 9.74695L14.592 10.7564ZM5.48965 7.34985C4.55191 8.66035 4 10.2658 4 12C4 14.4492 5.10079 16.6415 6.8346 18.109L7.24051 16.4848L4.80664 12.961L7.10457 9.8155L5.48965 7.34985ZM12 2C17.5227 2 22 6.47733 22 12C22 17.5227 17.5227 22 12 22C6.47733 22 2 17.5227 2 12C2 6.47733 6.47733 2 12 2ZM12.9941 14.5479L12.4823 12.3544L13.8939 12.653L15.6849 13.8119L14.5995 14.7421L12.9941 16.0801V14.5479Z" fill="black"/>
</svg>
