<svg width="24" height="24" viewBox="0 0 24 24" fill="none" xmlns="http://www.w3.org/2000/svg">
<path d="M2.99805 4.76221H20.997V19.2345H2.99805V4.76221Z" fill="#0F9D58"/>
<path fill-rule="evenodd" clip-rule="evenodd" d="M7.99774 12.4841C8.62089 12.4841 9.12244 11.9965 9.12244 11.3988C9.12244 10.8011 8.61709 10.3135 7.99774 10.3135C7.3784 10.3135 6.87305 10.8011 6.87305 11.3988C6.87305 11.9965 7.3784 12.4841 7.99774 12.4841ZM17.1215 11.3988C17.1215 11.9965 16.6199 12.4841 15.9968 12.4841C15.3774 12.4841 14.8721 11.9965 14.8721 11.3988C14.8721 10.8011 15.3774 10.3135 15.9968 10.3135C16.6161 10.3135 17.1215 10.8011 17.1215 11.3988ZM13.4961 14.5851C13.4961 13.8224 14.7918 13.2064 15.9963 13.2064C17.2008 13.2064 18.4964 13.8224 18.4964 14.5851V15.3771H13.4961V14.5851ZM5.49805 14.5851C5.49805 13.8225 6.79373 13.2065 7.99822 13.2065C9.20271 13.2065 10.4984 13.8225 10.4984 14.5851V15.3771H5.49805V14.5851Z" fill="#57BB8A"/>
<path fill-rule="evenodd" clip-rule="evenodd" d="M13.496 10.0677C13.4998 10.8671 12.8272 11.5161 11.9989 11.5161C11.1706 11.5161 10.498 10.8707 10.498 10.0714C10.498 9.27206 11.1668 8.62306 11.9951 8.62306C12.8234 8.6194 13.496 9.2684 13.496 10.0677ZM8.5 14.4127C8.5 13.3494 10.3124 12.4841 11.9995 12.4841C13.6865 12.4841 15.499 13.3457 15.499 14.4127V15.3771H8.5V14.4127Z" fill="#F7F7F7"/>
<path d="M13.998 18.2734H18.4968V19.2378H13.998V18.2734Z" fill="#F1F1F1"/>
<path fill-rule="evenodd" clip-rule="evenodd" d="M2.50086 2.8335H21.4991C22.3275 2.8335 22.9962 3.4825 23 4.28183V19.7185C23 20.5178 22.3275 21.1668 21.4991 21.1668H2.50086C1.67254 21.1668 1 20.5178 1 19.7222V4.28183C1 3.4825 1.67254 2.8335 2.50086 2.8335ZM2.99805 19.2382H20.997V4.76219H2.99805V19.2382Z" fill="#F4B400"/>
<path opacity="0.2" d="M21.4991 2.8335H2.50086C1.67254 2.8335 1 3.4825 1 4.28183V4.40283C1 3.6035 1.67254 2.9545 2.50086 2.9545H21.4991C22.3275 2.9545 23 3.6035 23 4.40283V4.28183C22.9962 3.4825 22.3275 2.8335 21.4991 2.8335Z" fill="white"/>
<path opacity="0.2" d="M21.4991 21.046H2.50086C1.67254 21.046 1 20.397 1 19.5977V19.7187C1 20.518 1.67254 21.167 2.50086 21.167H21.4991C22.3275 21.167 23 20.518 23 19.7187V19.5977C22.9962 20.397 22.3275 21.046 21.4991 21.046Z" fill="#BF360C"/>
<path d="M18.491 19.2383H13.9922L15.9908 21.1669H20.4858L18.491 19.2383Z" fill="url(#paint0_linear_0_68701)"/>
<path opacity="0.2" d="M2.99805 4.64111H20.997V4.76211H2.99805V4.64111Z" fill="#263238"/>
<path opacity="0.2" d="M2.99805 19.2383H20.997V19.3593H2.99805V19.2383Z" fill="white"/>
<path d="M21.4991 2.8335H2.50086C1.67254 2.8335 1 3.4825 1 4.28183V19.7222C1 20.5178 1.67254 21.1668 2.50086 21.1668H21.4991C22.3275 21.1668 23 20.5178 23 19.7185V4.28183C22.9962 3.4825 22.3275 2.8335 21.4991 2.8335Z" fill="url(#paint1_radial_0_68701)"/>
<defs>
<linearGradient id="paint0_linear_0_68701" x1="14.0026" y1="19.2639" x2="14.0026" y2="21.1871" gradientUnits="userSpaceOnUse">
<stop stop-color="#BF360C" stop-opacity="0.2"/>
<stop offset="1" stop-color="#BF360C" stop-opacity="0.02"/>
</linearGradient>
<radialGradient id="paint1_radial_0_68701" cx="0" cy="0" r="1" gradientUnits="userSpaceOnUse" gradientTransform="translate(1.75781 3.26321) scale(26.2736 21.8947)">
<stop stop-color="white" stop-opacity="0.1"/>
<stop offset="1" stop-color="white" stop-opacity="0.01"/>
</radialGradient>
</defs>
</svg>
