<svg width="24" height="24" viewBox="0 0 24 24" fill="none" xmlns="http://www.w3.org/2000/svg">
<path fill-rule="evenodd" clip-rule="evenodd" d="M1 2H23C23.5523 2 24 2.44772 24 3V21C24 21.5523 23.5523 22 23 22H1C0.447715 22 0 21.5523 0 21V3C0 2.44772 0.447715 2 1 2ZM20 20H22V4H2V20H15V19H20V20ZM10.29 9.71C10.29 8.76559 11.0556 8 12 8C12.95 8 13.71 8.77 13.71 9.71C13.71 10.66 12.95 11.43 12 11.43C11.05 11.43 10.29 10.66 10.29 9.71ZM7 10C6.29 10 5.71 10.58 5.71 11.29C5.71 12 6.29 12.57 7 12.57C7.71 12.57 8.29 12 8.29 11.29C8.29 10.5776 7.71245 10 7 10ZM15.71 11.29C15.71 10.5776 16.2876 10 17 10C17.7124 10 18.29 10.5776 18.29 11.29C18.29 12 17.71 12.57 17 12.57C16.29 12.57 15.71 12 15.71 11.29ZM20 16V15.14C20 14.2 18.45 13.43 17 13.43C16.45 13.43 15.89 13.54 15.4 13.73C14.65 13.04 13.3 12.57 12 12.57C10.7 12.57 9.35 13.04 8.6 13.73C8.11 13.54 7.55 13.43 7 13.43C5.55 13.43 4 14.2 4 15.14V16H8H10H14H16H20Z" fill="black"/>
</svg>
