<svg width="24" height="24" viewBox="0 0 24 24" fill="none" xmlns="http://www.w3.org/2000/svg">
<path fill-rule="evenodd" clip-rule="evenodd" d="M13.375 2C13.375 1.44772 12.9273 1 12.375 1C11.8227 1 11.375 1.44772 11.375 2V3.25C11.375 3.80228 11.8227 4.25 12.375 4.25C12.9273 4.25 13.375 3.80228 13.375 3.25V2ZM5.03899 4.03853C5.42951 3.64801 6.06268 3.64801 6.4532 4.03853L7.33758 4.9229C7.7281 5.31343 7.7281 5.94659 7.33758 6.33712C6.94705 6.72764 6.31389 6.72764 5.92336 6.33712L5.03899 5.45274C4.64846 5.06222 4.64846 4.42905 5.03899 4.03853ZM2 11.375C2 10.8227 2.44772 10.375 3 10.375H4.25C4.80228 10.375 5.25 10.8227 5.25 11.375C5.25 11.9273 4.80228 12.375 4.25 12.375H3C2.44772 12.375 2 11.9273 2 11.375ZM19.7106 4.03853C20.1011 4.42905 20.1011 5.06222 19.7106 5.45274L18.8262 6.33712C18.4357 6.72764 17.8026 6.72764 17.412 6.33712C17.0215 5.94659 17.0215 5.31343 17.412 4.9229L18.2964 4.03853C18.6869 3.64801 19.3201 3.64801 19.7106 4.03853ZM20.5 10.375C19.9477 10.375 19.5 10.8227 19.5 11.375C19.5 11.9273 19.9477 12.375 20.5 12.375H21.75C22.3023 12.375 22.75 11.9273 22.75 11.375C22.75 10.8227 22.3023 10.375 21.75 10.375H20.5ZM5.75 11.375C5.75 7.71584 8.71584 4.75 12.375 4.75C16.0342 4.75 19 7.71584 19 11.375C19 13.4542 18.0393 15.3057 16.5445 16.5165C16.0908 16.884 15.875 17.2967 15.875 17.647V18V19.75C15.875 21.4069 14.5319 22.75 12.875 22.75H11.875C10.2181 22.75 8.875 21.4069 8.875 19.75V18V17.647C8.875 17.2967 8.65915 16.884 8.20547 16.5165C6.71067 15.3057 5.75 13.4542 5.75 11.375ZM10.875 19V19.75C10.875 20.3023 11.3227 20.75 11.875 20.75H12.875C13.4273 20.75 13.875 20.3023 13.875 19.75V19H10.875ZM13.9465 17H10.8035C10.6099 16.1343 10.0505 15.4373 9.46436 14.9624C8.41674 14.1138 7.75 12.8237 7.75 11.375C7.75 8.82041 9.82041 6.75 12.375 6.75C14.9296 6.75 17 8.82041 17 11.375C17 12.8237 16.3333 14.1138 15.2856 14.9624C14.6995 15.4373 14.1401 16.1343 13.9465 17Z" fill="black"/>
</svg>
