<svg width="24" height="24" viewBox="0 0 24 24" fill="none" xmlns="http://www.w3.org/2000/svg">
<path d="M5.59491 22C4.42135 22 3.52704 21.6958 2.91198 21.0875C2.30399 20.4863 2 19.6057 2 18.4456V5.55438C2 4.39434 2.30399 3.5137 2.91198 2.91247C3.52704 2.30416 4.42135 2 5.59491 2H18.4051C19.5786 2 20.4694 2.30416 21.0774 2.91247C21.6925 3.5137 22 4.39434 22 5.55438V18.4456C22 19.6057 21.6925 20.4863 21.0774 21.0875C20.4694 21.6958 19.5786 22 18.4051 22H5.59491ZM17.79 11.9735C17.79 11.641 17.6557 11.3475 17.3871 11.0928L13.6225 7.41114C13.4175 7.21309 13.17 7.11406 12.8802 7.11406C12.5974 7.11406 12.3641 7.20955 12.1803 7.40053C12.0035 7.58444 11.9152 7.8214 11.9152 8.11141C11.9152 8.39434 12.0247 8.63837 12.2439 8.8435L13.527 10.0531L14.7147 10.9867L12.4878 10.8594H7.34465C7.03358 10.8594 6.77907 10.9655 6.58112 11.1777C6.38317 11.3899 6.2842 11.6552 6.2842 11.9735C6.2842 12.2918 6.38317 12.557 6.58112 12.7692C6.77907 12.9814 7.03358 13.0875 7.34465 13.0875H12.4878L14.7253 12.9602L13.5483 13.8939L12.2439 15.1034C12.0247 15.2944 11.9152 15.542 11.9152 15.8462C11.9152 16.1362 12.0035 16.3767 12.1803 16.5676C12.3641 16.7515 12.5974 16.8435 12.8802 16.8435C13.163 16.8435 13.4104 16.7409 13.6225 16.5358L17.3871 12.8647C17.6557 12.603 17.79 12.3059 17.79 11.9735Z" fill="black"/>
</svg>
