<svg width="24" height="24" viewBox="0 0 24 24" fill="none" xmlns="http://www.w3.org/2000/svg">
<path fill-rule="evenodd" clip-rule="evenodd" d="M19.5 2C19.7761 2 20 2.22386 20 2.5V11.81C19.42 11.26 18.75 10.81 18 10.5V4.7L15 5.86V10C14.3 10.07 13.62 10.24 13 10.5V5.87L9 4.47V16.13V16.5C9 17.14 9.09 17.76 9.26 18.34L8 17.9L2.66 19.97L2.5 20C2.22386 20 2 19.7761 2 19.5V4.38C2 4.15 2.15 3.97 2.36 3.9L8 2L14 4.1L19.34 2.03L19.5 2ZM20 16.5C20 14 18 12 15.5 12C13 12 11 14 11 16.5C11 19 13 21 15.5 21C16.37 21 17.19 20.75 17.88 20.32L21 23.39L22.39 22L19.31 18.9C19.75 18.2 20 17.38 20 16.5ZM13 16.5C13 15.1193 14.1193 14 15.5 14C16.8807 14 18 15.1193 18 16.5C18 17.8807 16.8807 19 15.5 19C14.1193 19 13 17.8807 13 16.5ZM4 17.31V5.46L7 4.45V16.15L4 17.31Z" fill="black"/>
</svg>
