<svg width="24" height="24" viewBox="0 0 24 24" fill="none" xmlns="http://www.w3.org/2000/svg">
<path fill-rule="evenodd" clip-rule="evenodd" d="M21.9195 5.24241L23.3337 6.65662L21.9195 8.07083L12.7273 17.263L12.7275 17.2632L11.3133 18.6774L11.3131 18.6772L10.9594 19.031L5.13163 20.8046L2.82764 21.5059L3.52885 19.2019L5.30251 13.3741L13.434 5.24262L13.4338 5.24238L14.848 3.82816L14.8482 3.82841L16.2627 2.41398L17.6769 0.999766L19.0911 2.41398L21.9195 5.24241ZM14.8482 6.65683L8.48468 13.0204L11.3131 15.8488L17.6767 9.48526L14.8482 6.65683ZM19.0909 8.07105L16.2625 5.24262L17.6769 3.82819L20.5053 6.65662L19.0909 8.07105ZM7.07028 14.4348L7.07047 14.4346L9.8989 17.263L9.89871 17.2632L5.83284 18.5007L7.07028 14.4348Z" fill="black"/>
</svg>
