<svg width="24" height="24" viewBox="0 0 24 24" fill="none" xmlns="http://www.w3.org/2000/svg">
<path fill-rule="evenodd" clip-rule="evenodd" d="M9.75926 5.34923C9.39983 4.9299 8.76853 4.88134 8.34921 5.24076L1.35418 11.2365C1.32236 11.2634 1.29224 11.2923 1.26402 11.323L1.26229 11.3247C1.14846 11.4485 1.07168 11.5945 1.03195 11.7483C1.01131 11.8279 1.00022 11.9114 1 11.9974C1 11.9983 1 11.9991 1 12C1 12.0012 1 12.0025 1.00001 12.0037C1.00031 12.0892 1.01135 12.1721 1.03183 12.2513C1.079 12.4342 1.17859 12.6062 1.3306 12.7429C1.33833 12.7499 1.34617 12.7568 1.35412 12.7635L8.34921 18.7593L8.44952 18.835C8.86405 19.109 9.42748 19.0379 9.75926 18.6508L9.83498 18.5505C10.109 18.136 10.0379 17.5725 9.65079 17.2408L4.70278 13H22L22.1166 12.9933C22.614 12.9355 23 12.5129 23 12C23 11.4477 22.5523 11 22 11H4.70278L9.65079 6.75927L9.74096 6.67173C10.0752 6.30398 10.091 5.7363 9.75926 5.34923Z" fill="black"/>
</svg>
