<svg width="24" height="24" viewBox="0 0 24 24" fill="none" xmlns="http://www.w3.org/2000/svg">
<path fill-rule="evenodd" clip-rule="evenodd" d="M10.6168 6.19181H12H13.3756L14.715 8.61535H9.27744L10.6168 6.19181ZM8.7618 6.19181H7.04159C6.99114 6.19181 6.94279 6.21199 6.9073 6.24785L4.56446 8.61535H7.42248L7.42919 8.60314L8.7618 6.19181ZM3.26991 10.2389L9.80027 17.3879L7.27969 11.383C7.12547 11.0155 7.04332 10.6276 7.03219 10.2389H3.26991ZM14.1857 17.4032L20.7301 10.2389H16.9602C16.9491 10.6276 16.867 11.0155 16.7127 11.383L14.1857 17.4032ZM19.4355 8.61535L17.0927 6.24785C17.0572 6.21199 17.0088 6.19181 16.9584 6.19181H15.2306L16.5632 8.60314L16.5699 8.61535H19.4355ZM7.04159 4H12H16.9584C17.5941 4 18.2034 4.25426 18.6506 4.70614L22.3115 8.40552C23.2035 9.30696 23.2323 10.7494 22.377 11.6858L13.7578 21.1216C12.8138 22.155 11.1862 22.155 10.2422 21.1216L1.62297 11.6858C0.767645 10.7494 0.796469 9.30696 1.68851 8.40552L5.34936 4.70614C5.79653 4.25426 6.40586 4 7.04159 4ZM15.2157 10.7546L11.9962 18.4246L8.77672 10.7546C8.70709 10.5887 8.66736 10.4143 8.65711 10.2389H15.3353C15.3251 10.4143 15.2853 10.5887 15.2157 10.7546Z" fill="black"/>
</svg>
