<svg width="24" height="24" viewBox="0 0 24 24" fill="none" xmlns="http://www.w3.org/2000/svg">
<path fill-rule="evenodd" clip-rule="evenodd" d="M4.42784 4.90505C4.42784 4.22129 4.98214 3.66699 5.66589 3.66699H21.7606C22.4444 3.66699 22.9987 4.22129 22.9987 4.90505V19.7617C22.9987 20.4455 22.4444 20.9998 21.7606 20.9998H4.42784V4.90505ZM6.90562 6.14313H20.5242V7.38118H6.90562V6.14313ZM6.90538 9.8573H20.524V11.0954H6.90538V9.8573ZM20.5234 13.5715H14.3331V14.8095H20.5234V13.5715ZM6.90538 13.5715H13.0957V18.5237H6.90538V13.5715ZM20.5234 17.2856H14.3331V18.5237H20.5234V17.2856ZM1.95095 8.61923C1.26719 8.61923 0.712891 9.17352 0.712891 9.85728V19.7617C0.712891 20.4455 1.26719 20.9998 1.95095 20.9998H3.189V9.85728C3.189 9.17352 2.63471 8.61923 1.95095 8.61923Z" fill="black"/>
</svg>
