<svg width="24" height="24" viewBox="0 0 24 24" fill="none" xmlns="http://www.w3.org/2000/svg">
<path fill-rule="evenodd" clip-rule="evenodd" d="M22.4787 9.98028C20.0541 7.31278 16.0327 4.49311 11.9993 4.54994C7.96601 4.49219 3.94459 7.31369 1.52001 9.98028C0.831873 10.7496 0.831873 11.9133 1.52001 12.6826C3.91617 15.3217 7.88076 18.1166 11.8518 18.1166H12.1341C16.1188 18.1166 20.0825 15.3217 22.4814 12.6817C23.1686 11.9119 23.1675 10.7486 22.4787 9.98028ZM7.78223 11.3333C7.78223 9.0045 9.67009 7.11664 11.9989 7.11664C14.3277 7.11664 16.2156 9.0045 16.2156 11.3333C16.2156 13.6621 14.3277 15.55 11.9989 15.55C9.67009 15.55 7.78223 13.6621 7.78223 11.3333ZM13.2957 12.6297C14.0117 11.9137 14.0117 10.7529 13.2957 10.0369C12.5798 9.32096 11.4189 9.32096 10.703 10.0369C9.98703 10.7529 9.98703 11.9137 10.703 12.6297C11.4189 13.3456 12.5798 13.3456 13.2957 12.6297Z" fill="black"/>
</svg>
