<svg width="24" height="24" viewBox="0 0 24 24" fill="none" xmlns="http://www.w3.org/2000/svg">
<path fill-rule="evenodd" clip-rule="evenodd" d="M12 1C5.928 1 1 5.928 1 12C1 18.072 5.928 23 12 23C18.072 23 23 18.072 23 12C23 5.928 18.072 1 12 1ZM12 20.8C7.149 20.8 3.2 16.851 3.2 12C3.2 7.149 7.149 3.2 12 3.2C16.851 3.2 20.8 7.149 20.8 12C20.8 16.851 16.851 20.8 12 20.8ZM10.0862 14.9019H12.7315V13.2917C15.0417 12.7432 16.3996 11.4161 16.3996 9.18662C16.3996 6.32013 14.3539 5.40002 12.2024 5.40002C9.46895 5.40002 7.88177 6.79788 7.59961 9.04506L10.192 9.45204C10.4036 8.17804 10.9679 7.61182 12.0613 7.61182C12.9607 7.61182 13.5956 8.03649 13.5956 9.15123C13.5956 11.0445 11.7968 11.5223 10.0862 11.6638V14.9019ZM11.3736 18.6C12.4317 18.6 12.9431 18.0869 12.9431 17.1845C12.9431 16.2644 12.414 15.7512 11.3736 15.7512C10.3154 15.7512 9.80402 16.2644 9.80402 17.1845C9.80402 18.14 10.3154 18.6 11.3736 18.6Z" fill="black"/>
</svg>
