<svg width="24" height="24" viewBox="0 0 24 24" fill="none" xmlns="http://www.w3.org/2000/svg">
<path fill-rule="evenodd" clip-rule="evenodd" d="M15.7218 3.45449C16.1934 2.52896 17.326 2.16096 18.2515 2.63254C19.1771 3.10412 19.5451 4.23671 19.0735 5.16225L18.0299 7.21047L16.4597 7.72064L17.7389 5.21013C17.9177 4.85906 17.7782 4.42946 17.4271 4.25058C17.076 4.07171 16.6464 4.21129 16.4676 4.56236L15.1884 7.07292L14.6782 5.50276L15.7218 3.45449ZM13.7621 7.30067L12.3227 10.1257L12.8329 11.6958L14.2723 8.87084L13.7621 7.30067ZM15.5436 9.51856L14.1042 12.3436L15.6743 11.8334L17.1138 9.00839L15.5436 9.51856ZM11.9168 13.4938L10.7831 10.0045L14.4505 2.80672C15.2798 1.17905 17.2716 0.531881 18.8993 1.36122C20.527 2.19056 21.1741 4.18235 20.3448 5.81002L16.6774 13.0078L13.1881 14.1415L12.7373 15.0263L13.5671 16.5043C13.7272 16.7895 13.6499 17.1493 13.3867 17.3436L10.3167 19.6099C10.2629 19.6496 10.2062 19.6795 10.1483 19.7004C10.056 19.7414 9.95377 19.7642 9.8462 19.7642H6.96615C8.31723 20.9287 10.0764 21.6328 12 21.6328C16.2605 21.6328 19.7143 18.179 19.7143 13.9185C19.7143 12.9468 19.5346 12.017 19.2067 11.1606L20.4971 8.64349C21.4498 10.1748 22 11.9824 22 13.9185C22 19.4414 17.5228 23.9185 12 23.9185C8.0364 23.9185 4.61138 21.6125 2.99337 18.269H5.62857C5.62996 18.271 5.63135 18.273 5.63274 18.2751H9.2891L9.31193 15.2674C9.31442 14.9403 9.56006 14.6662 9.88492 14.6281L11.4312 14.4468L11.9168 13.4938ZM10.7335 15.9652L10.7216 17.5375L11.9865 16.6037L11.5728 15.8668L10.7335 15.9652ZM4.28571 13.9185C4.28571 14.837 4.44623 15.718 4.74073 16.5349H2.34576C2.12029 15.701 2 14.8238 2 13.9185C2 8.39567 6.47715 3.91852 12 3.91852C12.0666 3.91852 12.1331 3.91917 12.1995 3.92047L10.94 6.27646C7.18109 6.79302 4.28571 10.0176 4.28571 13.9185Z" fill="black"/>
</svg>
