<svg width="24" height="24" viewBox="0 0 24 24" fill="none" xmlns="http://www.w3.org/2000/svg">
<path fill-rule="evenodd" clip-rule="evenodd" d="M19.762 2.92909C18.6683 2.37185 17.33 2.80669 16.7728 3.90036L15.5395 6.32069L16.1424 8.17608L17.6539 5.20947C17.8653 4.79463 18.373 4.62969 18.7878 4.84106C19.2026 5.05243 19.3676 5.56007 19.1562 5.97491L17.6447 8.94147L19.5001 8.33861L20.7333 5.91833C21.2905 4.82467 20.8557 3.48634 19.762 2.92909ZM12.7562 11.7834L14.457 8.44521L15.0599 10.3006L13.359 13.6388L12.7562 11.7834ZM14.8613 14.4042L16.5622 11.066L18.4176 10.4631L16.7167 13.8013L14.8613 14.4042ZM10.9368 11.6402L12.2765 15.7633L11.7027 16.8894L9.87557 17.1037C9.4917 17.1488 9.20143 17.4726 9.1985 17.8591L9.17118 21.4574H2.84301C2.37743 21.4574 2 21.8348 2 22.3004C2 22.766 2.37743 23.1434 2.84301 23.1434H9.90995C9.94052 23.1434 9.9707 23.1418 10.0004 23.1386C10.0728 23.1321 10.1454 23.115 10.2162 23.0861C10.3159 23.0472 10.4064 22.9898 10.4835 22.9182L14.0135 20.3124C14.3244 20.0829 14.4158 19.6577 14.2266 19.3207L13.2461 17.5742L13.7788 16.5287L17.9019 15.189L22.2355 6.68377C23.2155 4.76043 22.4508 2.40682 20.5274 1.42684C18.6041 0.446846 16.2505 1.21158 15.2705 3.13492L10.9368 11.6402ZM10.8642 20.5415L10.8783 18.6837L11.8701 18.5674L12.359 19.4381L10.8642 20.5415Z" fill="black"/>
</svg>
