<svg width="24" height="24" viewBox="0 0 24 24" fill="none" xmlns="http://www.w3.org/2000/svg">
<path fill-rule="evenodd" clip-rule="evenodd" d="M17.2929 1.29289C17.6534 0.932409 18.2206 0.90468 18.6129 1.2097L18.7071 1.29289L22.7071 5.29289C23.0676 5.65338 23.0953 6.22061 22.7903 6.6129L22.7071 6.70711L18.7071 10.7071C18.3166 11.0976 17.6834 11.0976 17.2929 10.7071C16.9324 10.3466 16.9047 9.77939 17.2097 9.3871L17.2929 9.29289L19.5852 7H3V12C3 12.5128 2.61396 12.9355 2.11662 12.9933L2 13C1.48716 13 1.06449 12.614 1.00673 12.1166L1 12V6C1 5.48716 1.38604 5.06449 1.88338 5.00673L2 5H19.5852L17.2929 2.70711C16.9324 2.34662 16.9047 1.77939 17.2097 1.3871L17.2929 1.29289ZM22 11C22.5128 11 22.9355 11.386 22.9933 11.8834L23 12V18C23 18.5128 22.614 18.9355 22.1166 18.9933L22 19H4.41476L6.70711 21.2929C7.06759 21.6534 7.09532 22.2206 6.7903 22.6129L6.70711 22.7071C6.34662 23.0676 5.77939 23.0953 5.3871 22.7903L5.29289 22.7071L1.29289 18.7071C0.932409 18.3466 0.90468 17.7794 1.2097 17.3871L1.29289 17.2929L5.29289 13.2929C5.68342 12.9024 6.31658 12.9024 6.70711 13.2929C7.06759 13.6534 7.09532 14.2206 6.7903 14.6129L6.70711 14.7071L4.41476 17H21V12C21 11.4872 21.386 11.0645 21.8834 11.0067L22 11Z" fill="#9F6405"/>
</svg>
