<svg width="24" height="24" viewBox="0 0 24 24" fill="none" xmlns="http://www.w3.org/2000/svg">
<path fill-rule="evenodd" clip-rule="evenodd" d="M16.6 9H6V11H4V8C4 7.4 4.4 7 5 7H16.6L15.3 5.7C14.9 5.3 14.9 4.7 15.3 4.3C15.7 3.9 16.3 3.9 16.7 4.3L19.7 7.3C20.1 7.7 20.1 8.3 19.7 8.7L16.7 11.7C16.5 11.9 16.3 12 16 12C15.7 12 15.5 11.9 15.3 11.7C14.9 11.3 14.9 10.7 15.3 10.3L16.6 9ZM7.4 15H18V13H20V16C20 16.6 19.6 17 19 17H7.4L8.7 18.3C9.1 18.7 9.1 19.3 8.7 19.7C8.5 19.9 8.3 20 8 20C7.7 20 7.5 19.9 7.3 19.7L4.3 16.7C3.9 16.3 3.9 15.7 4.3 15.3L7.3 12.3C7.7 11.9 8.3 11.9 8.7 12.3C9.1 12.7 9.1 13.3 8.7 13.7L7.4 15Z" fill="black"/>
</svg>
