<svg width="24" height="24" viewBox="0 0 24 24" fill="none" xmlns="http://www.w3.org/2000/svg">
<path fill-rule="evenodd" clip-rule="evenodd" d="M12 22C17.5228 22 22 17.5228 22 12C22 6.47715 17.5228 2 12 2C6.47715 2 2 6.47715 2 12C2 17.5228 6.47715 22 12 22ZM12 24C18.6274 24 24 18.6274 24 12C24 5.37258 18.6274 0 12 0C5.37258 0 0 5.37258 0 12C0 18.6274 5.37258 24 12 24ZM13.5 17.6C13.5 18.3732 12.8284 19 12 19C11.1716 19 10.5 18.3732 10.5 17.6C10.5 16.8268 11.1716 16.2 12 16.2C12.8284 16.2 13.5 16.8268 13.5 17.6ZM8.22853 7.4892C8.79153 6.00053 10.3085 5 11.9995 5C14.2055 5 15.9995 6.6744 15.9995 8.73333C15.9995 10.3107 14.9675 11.0023 14.2135 11.5072C13.4815 11.9972 12.9995 12.3201 12.9995 13.4V14.3333H10.9995V13.4C10.9995 11.3625 12.1835 10.5692 13.0475 9.99053C13.7545 9.5164 13.9995 9.3232 13.9995 8.73333C13.9995 7.70387 13.1025 6.86667 11.9995 6.86667C11.1535 6.86667 10.3955 7.36693 10.1125 8.1108L9.77953 8.99093L7.89453 8.3684L8.22853 7.4892Z" fill="#9045C8"/>
</svg>
