<svg width="24" height="24" viewBox="0 0 24 24" fill="none" xmlns="http://www.w3.org/2000/svg">
<path fill-rule="evenodd" clip-rule="evenodd" d="M18.1 10.1C18.1 11.7 17.6 13.1 16.7 14.3L19.7 17.4C20.1 17.8 20.1 18.4 19.7 18.8C19.5 19 19.2 19.1 19 19.1C18.8 19.1 18.5 19 18.3 18.8L15.3 15.8C14.2 16.7 12.7 17.2 11.1 17.2C7.2 17.2 4 14 4 10.1C4 6.2 7.2 3 11.1 3C15 3 18.1 6.2 18.1 10.1ZM6 10.1C6 12.9 8.3 15.1 11.1 15.1C13.9 15.1 16.2 12.9 16.2 10.1C16.2 7.3 13.9 5 11.1 5C8.3 5 6 7.3 6 10.1Z" fill="black"/>
</svg>
