<svg width="24" height="24" viewBox="0 0 24 24" fill="none" xmlns="http://www.w3.org/2000/svg">
<path fill-rule="evenodd" clip-rule="evenodd" d="M14.4483 9.50295C14.4483 12.2337 12.2344 14.4477 9.50325 14.4477C6.77206 14.4477 4.55821 12.2337 4.55821 9.50295C4.55821 6.77216 6.77206 4.55821 9.50325 4.55821C12.2344 4.55821 14.4483 6.77216 14.4483 9.50295ZM14.1253 16.6413C12.7947 17.5045 11.2075 18.0059 9.50325 18.0059C4.80703 18.0059 1 14.199 1 9.50295C1 4.8069 4.80703 1 9.50325 1C14.1995 1 18.0065 4.8069 18.0065 9.50295C18.0065 11.2074 17.505 12.7947 16.6415 14.1254L22.4048 19.8885C23.0996 20.5833 23.0996 21.7098 22.4049 22.4046C21.7101 23.0994 20.5836 23.0994 19.8888 22.4046L14.1253 16.6413Z" fill="black"/>
</svg>
