<svg width="24" height="24" viewBox="0 0 24 24" fill="none" xmlns="http://www.w3.org/2000/svg">
<path d="M11.2957 20H12.7043C12.9033 20 13.0718 19.9439 13.2096 19.8316C13.3474 19.7244 13.4367 19.5713 13.4775 19.3722L13.8756 17.688C14.0236 17.637 14.1691 17.5834 14.312 17.5273C14.4549 17.4711 14.5901 17.4124 14.7177 17.3512L16.1952 18.2545C16.3585 18.3566 16.527 18.4 16.7005 18.3847C16.8791 18.3694 17.0373 18.2928 17.1751 18.155L18.1627 17.1751C18.3005 17.0373 18.377 16.8766 18.3923 16.6928C18.4128 16.5091 18.3668 16.3356 18.2545 16.1722L17.3512 14.71C17.4175 14.5774 17.4762 14.4421 17.5273 14.3043C17.5834 14.1665 17.6345 14.0287 17.6804 13.8909L19.3799 13.4852C19.5738 13.4443 19.7244 13.355 19.8316 13.2172C19.9439 13.0794 20 12.911 20 12.712V11.3263C20 11.1324 19.9439 10.9665 19.8316 10.8287C19.7244 10.6909 19.5738 10.6016 19.3799 10.5608L17.6957 10.155C17.6447 9.99681 17.5885 9.8488 17.5273 9.71101C17.4711 9.57321 17.4175 9.44306 17.3665 9.32057L18.2699 7.83541C18.377 7.67209 18.423 7.50367 18.4077 7.33014C18.3974 7.15152 18.3209 6.9933 18.178 6.8555L17.1751 5.86794C17.0322 5.74035 16.8791 5.66635 16.7158 5.64593C16.5525 5.62041 16.3866 5.65614 16.2182 5.75311L14.7177 6.67943C14.5952 6.61308 14.4625 6.55183 14.3196 6.49569C14.1818 6.43955 14.0338 6.38596 13.8756 6.33493L13.4775 4.62775C13.4367 4.43381 13.3474 4.2807 13.2096 4.16842C13.0718 4.05614 12.9033 4 12.7043 4H11.2957C11.0967 4 10.9282 4.05614 10.7904 4.16842C10.6526 4.2807 10.5608 4.43381 10.5148 4.62775L10.1167 6.31962C9.96874 6.37065 9.82073 6.42679 9.67273 6.48804C9.52982 6.54418 9.39458 6.60542 9.26699 6.67177L7.78182 5.75311C7.6134 5.65614 7.44498 5.61786 7.27656 5.63828C7.11324 5.65869 6.96013 5.73525 6.81722 5.86794L5.82201 6.8555C5.67911 6.9933 5.6 7.15152 5.58469 7.33014C5.56938 7.50367 5.61786 7.67209 5.73014 7.83541L6.62584 9.32057C6.5748 9.44306 6.51866 9.57321 6.45742 9.71101C6.40128 9.8488 6.35024 9.99681 6.30431 10.155L4.6201 10.5608C4.42105 10.6016 4.26794 10.6909 4.16077 10.8287C4.05359 10.9665 4 11.1324 4 11.3263V12.712C4 12.911 4.05359 13.0794 4.16077 13.2172C4.26794 13.355 4.42105 13.4443 4.6201 13.4852L6.31962 13.8909C6.36045 14.0287 6.40893 14.1665 6.46507 14.3043C6.52121 14.4421 6.5799 14.5774 6.64115 14.71L5.74545 16.1722C5.63317 16.3356 5.58469 16.5091 5.6 16.6928C5.62041 16.8766 5.69952 17.0373 5.83732 17.1751L6.81722 18.155C6.95502 18.2928 7.11069 18.3694 7.28421 18.3847C7.46284 18.4 7.63636 18.3566 7.80478 18.2545L9.27464 17.3512C9.40223 17.4124 9.53748 17.4711 9.68038 17.5273C9.82329 17.5834 9.96874 17.637 10.1167 17.688L10.5148 19.3722C10.5608 19.5713 10.6526 19.7244 10.7904 19.8316C10.9282 19.9439 11.0967 20 11.2957 20ZM12 14.7024C11.5049 14.7024 11.0507 14.5799 10.6373 14.3349C10.229 14.09 9.90239 13.7633 9.65742 13.355C9.41754 12.9416 9.29761 12.4874 9.29761 11.9923C9.29761 11.4973 9.4201 11.0482 9.66507 10.645C9.91005 10.2367 10.2367 9.91005 10.645 9.66507C11.0533 9.4201 11.5049 9.29761 12 9.29761C12.4951 9.29761 12.9467 9.4201 13.355 9.66507C13.7684 9.91005 14.0951 10.2367 14.3349 10.645C14.5799 11.0482 14.7024 11.4973 14.7024 11.9923C14.7024 12.4874 14.5799 12.9416 14.3349 13.355C14.0951 13.7633 13.7684 14.09 13.355 14.3349C12.9467 14.5799 12.4951 14.7024 12 14.7024Z" fill="black"/>
</svg>
