<svg width="24" height="24" viewBox="0 0 24 24" fill="none" xmlns="http://www.w3.org/2000/svg">
<path d="M11.0896 23C10.7275 23 10.4156 22.896 10.1541 22.6879C9.89255 22.4865 9.72489 22.2113 9.65112 21.8622L9.16827 19.8485C9.03414 19.8015 8.90337 19.7512 8.77595 19.6975C8.64853 19.6505 8.52782 19.6002 8.41381 19.5465L6.67353 20.6238C6.37174 20.8117 6.05319 20.8889 5.71788 20.8554C5.38927 20.8218 5.09755 20.6809 4.84271 20.4325L3.56516 19.1538C3.31702 18.9054 3.17619 18.6101 3.14266 18.2677C3.10913 17.9187 3.18961 17.5965 3.38409 17.3011L4.45039 15.5693C4.39674 15.4485 4.34309 15.331 4.28944 15.2169C4.24249 15.0961 4.20226 14.9719 4.16872 14.8444L2.14678 14.3611C1.79134 14.2873 1.50968 14.1195 1.30178 13.8577C1.10059 13.5959 1 13.2838 1 12.9213V11.1391C1 10.7834 1.10059 10.4746 1.30178 10.2128C1.50968 9.95103 1.79134 9.77986 2.14678 9.69931L4.14861 9.22609C4.18884 9.08513 4.23243 8.95423 4.27938 8.83341C4.33303 8.71259 4.38333 8.59847 4.43027 8.49108L3.36397 6.70892C3.16949 6.40687 3.08566 6.09138 3.11248 5.76247C3.14601 5.42685 3.29355 5.13486 3.5551 4.8865L4.85277 3.59771C5.10761 3.36278 5.38927 3.22853 5.69776 3.19497C6.00625 3.15469 6.31139 3.2151 6.61317 3.3762L8.40375 4.48375C8.51776 4.42334 8.63847 4.36629 8.76589 4.31259C8.90001 4.25889 9.03414 4.20854 9.16827 4.16156L9.65112 2.14783C9.72489 1.79878 9.89255 1.52021 10.1541 1.31213C10.4156 1.10404 10.7275 1 11.0896 1H12.9104C13.2725 1 13.5844 1.10404 13.8459 1.31213C14.1075 1.52021 14.2751 1.79878 14.3489 2.14783L14.8317 4.18169C14.9726 4.22868 15.1033 4.27902 15.2241 4.33272C15.3515 4.37971 15.4688 4.43341 15.5761 4.49382L17.3868 3.3762C17.6886 3.2151 17.9937 3.15469 18.3022 3.19497C18.6107 3.23524 18.889 3.36613 19.1372 3.58764L20.4449 4.8865C20.7064 5.13486 20.8506 5.42685 20.8775 5.76247C20.911 6.09138 20.8305 6.40687 20.636 6.70892L19.5597 8.49108C19.6133 8.59847 19.6636 8.71259 19.7106 8.83341C19.7642 8.95423 19.8145 9.08513 19.8615 9.22609L21.8633 9.69931C22.212 9.77986 22.487 9.95103 22.6882 10.2128C22.8961 10.4746 23 10.7834 23 11.1391V12.9213C23 13.2838 22.8961 13.5959 22.6882 13.8577C22.487 14.1195 22.212 14.2873 21.8633 14.3611L19.8313 14.8444C19.791 14.9719 19.7474 15.0961 19.7005 15.2169C19.6536 15.331 19.6033 15.4485 19.5496 15.5693L20.6159 17.3011C20.8104 17.5965 20.8909 17.9187 20.8573 18.2677C20.8305 18.6101 20.6897 18.9054 20.4348 19.1538L19.1573 20.4325C18.9025 20.6809 18.6074 20.8218 18.2721 20.8554C17.9435 20.8889 17.6316 20.8117 17.3365 20.6238L15.5761 19.5465C15.4621 19.6002 15.3414 19.6505 15.214 19.6975C15.0933 19.7512 14.9659 19.8015 14.8317 19.8485L14.3489 21.8622C14.2751 22.2113 14.1075 22.4865 13.8459 22.6879C13.5844 22.896 13.2725 23 12.9104 23H11.0896ZM12.005 15.4787C12.6354 15.4787 13.2122 15.321 13.7353 15.0055C14.265 14.69 14.6842 14.2705 14.9927 13.7469C15.3079 13.2166 15.4655 12.6326 15.4655 11.995C15.4655 11.364 15.3079 10.7867 14.9927 10.2632C14.6842 9.73959 14.265 9.32342 13.7353 9.01464C13.2122 8.69916 12.6354 8.54142 12.005 8.54142C11.3679 8.54142 10.7878 8.69916 10.2647 9.01464C9.74165 9.32342 9.32251 9.73959 9.00732 10.2632C8.69212 10.7867 8.53452 11.364 8.53452 11.995C8.53452 12.6326 8.68877 13.2166 8.99726 13.7469C9.31245 14.2705 9.7316 14.69 10.2547 15.0055C10.7845 15.321 11.3679 15.4787 12.005 15.4787Z" fill="black"/>
</svg>
