<svg width="24" height="24" viewBox="0 0 24 24" fill="none" xmlns="http://www.w3.org/2000/svg">
<path fill-rule="evenodd" clip-rule="evenodd" d="M7.052 0.072C8.332 0.014 8.741 0 12 0C15.259 0 15.668 0.014 16.948 0.072C18.898 0.161 20.611 0.639 21.986 2.014C23.361 3.389 23.839 5.102 23.928 7.052C23.986 8.332 24 8.741 24 12C24 15.259 23.986 15.668 23.928 16.948C23.839 18.898 23.361 20.611 21.986 21.986C20.611 23.361 18.898 23.839 16.948 23.928C15.668 23.986 15.259 24 12 24C8.741 24 8.332 23.986 7.052 23.928C5.102 23.839 3.389 23.361 2.014 21.986C0.639 20.611 0.161 18.898 0.072 16.948C0.014 15.668 0 15.259 0 12C0 8.741 0.014 8.332 0.072 7.052C0.161 5.102 0.639 3.389 2.014 2.014C3.389 0.639 5.102 0.161 7.052 0.072ZM16.849 2.232C15.584 2.174 15.204 2.162 12 2.162C8.796 2.162 8.416 2.174 7.151 2.232C5.785 2.294 4.518 2.568 3.543 3.543C2.568 4.518 2.294 5.785 2.232 7.151C2.174 8.416 2.162 8.796 2.162 12C2.162 15.204 2.174 15.584 2.232 16.849C2.294 18.215 2.568 19.482 3.543 20.457C4.518 21.432 5.785 21.706 7.151 21.768C8.416 21.826 8.796 21.838 12 21.838C15.204 21.838 15.584 21.826 16.849 21.768C18.215 21.706 19.482 21.432 20.457 20.457C21.432 19.482 21.706 18.215 21.768 16.849C21.826 15.584 21.838 15.204 21.838 12C21.838 8.796 21.826 8.416 21.768 7.151C21.706 5.785 21.432 4.518 20.457 3.543C19.482 2.568 18.215 2.294 16.849 2.232ZM5.83789 12C5.83789 8.59701 8.59689 5.83801 11.9999 5.83801C15.4029 5.83801 18.1619 8.59701 18.1619 12C18.1619 15.403 15.4029 18.162 11.9999 18.162C8.59689 18.162 5.83789 15.403 5.83789 12ZM7.99989 12C7.99989 14.209 9.79089 16 11.9999 16C14.2089 16 15.9999 14.209 15.9999 12C15.9999 9.79101 14.2089 8.00001 11.9999 8.00001C9.79089 8.00001 7.99989 9.79101 7.99989 12ZM18.4068 7.03399C19.2021 7.03399 19.8468 6.38928 19.8468 5.59399C19.8468 4.7987 19.2021 4.15399 18.4068 4.15399C17.6115 4.15399 16.9668 4.7987 16.9668 5.59399C16.9668 6.38928 17.6115 7.03399 18.4068 7.03399Z" fill="black"/>
</svg>
