<svg width="24" height="24" viewBox="0 0 24 24" fill="none" xmlns="http://www.w3.org/2000/svg">
<path fill-rule="evenodd" clip-rule="evenodd" d="M11.7687 0.307617C6.92585 0.307889 3 4.2339 3 9.07685C3 13.9198 6.92585 17.8458 11.7687 17.8461H11.7697L11.7697 23.6922L13.2313 23.6922C18.0742 23.6919 22 19.7659 22 14.923C22 10.08 18.0742 6.15403 13.2313 6.15376H13.2303V0.307622L11.7687 0.307617ZM11.7687 14.923V16.3845C7.73303 16.3843 4.46154 13.1126 4.46154 9.07685C4.46154 5.04109 7.73303 1.76943 11.7687 1.76916V3.2307C8.54014 3.23088 5.92291 5.84823 5.92291 9.07685C5.92291 12.3055 8.54014 14.9228 11.7687 14.923ZM7.38445 9.07685C7.38445 6.65541 9.34733 4.69242 11.7687 4.69224V6.15378C10.1544 6.15387 8.84582 7.46254 8.84582 9.07686C8.84582 10.6912 10.1544 11.9998 11.7687 11.9999V13.4615C9.34733 13.4613 7.38445 11.4983 7.38445 9.07685ZM10.3074 9.07686C10.3074 8.26973 10.9616 7.61541 11.7687 7.61532V10.5384C10.9616 10.5383 10.3074 9.88399 10.3074 9.07686ZM13.2313 9.07683V7.6153C17.267 7.61557 20.5385 10.8872 20.5385 14.923C20.5385 18.9587 17.267 22.2304 13.2313 22.2307V20.7691C16.4599 20.769 19.0771 18.1516 19.0771 14.923C19.0771 11.6944 16.4599 9.07701 13.2313 9.07683ZM17.6156 14.923C17.6156 17.3444 15.6527 19.3074 13.2313 19.3076L13.2313 17.8461C14.8456 17.846 16.1542 16.5373 16.1542 14.923C16.1542 13.3087 14.8456 12 13.2313 11.9999V10.5384C15.6527 10.5385 17.6156 12.5015 17.6156 14.923ZM14.6926 14.923C14.6926 15.7301 14.0384 16.3844 13.2313 16.3845V13.4614C14.0384 13.4615 14.6926 14.1158 14.6926 14.923Z" fill="black"/>
</svg>
