<svg width="24" height="24" viewBox="0 0 24 24" fill="none" xmlns="http://www.w3.org/2000/svg">
<path fill-rule="evenodd" clip-rule="evenodd" d="M8.23123 17.6483L11.8756 14.9709L15.5132 17.6486L14.068 13.3709L17.7549 10.7271L13.2425 10.7633L11.8722 6.44201L10.4946 10.7633L5.98947 10.7272L9.66905 13.3709L8.23123 17.6483ZM1.81845 10.2179C1.67707 9.93509 1.6594 9.64349 1.76543 9.34305C1.86558 9.0485 2.05114 8.83054 2.32213 8.68916C2.599 8.54188 2.94362 8.47119 3.35599 8.47708L8.8699 8.52127L10.5488 3.25477C10.6784 2.84829 10.8522 2.53902 11.0702 2.32695C11.294 2.10898 11.5621 2 11.8743 2C12.1865 2 12.4516 2.10898 12.6696 2.32695C12.8934 2.53902 13.0701 2.84829 13.1997 3.25477L14.8698 8.52127L20.3837 8.47708C20.802 8.47119 21.1466 8.54188 21.4176 8.68916C21.6945 8.83054 21.883 9.05145 21.9831 9.35189C22.0833 9.65233 22.0627 9.94098 21.9213 10.2179C21.7858 10.4947 21.5472 10.7539 21.2055 10.9955L16.7078 14.2207L18.4751 19.4519C18.6106 19.8466 18.6518 20.1971 18.5988 20.5034C18.5458 20.8098 18.3926 21.0572 18.1393 21.2457C17.886 21.4401 17.6062 21.5108 17.2998 21.4578C16.9935 21.4106 16.6695 21.2634 16.3278 21.0159L11.8743 17.7376L7.41189 21.0159C7.07611 21.2634 6.75211 21.4106 6.43989 21.4578C6.13356 21.5108 5.85374 21.4401 5.60043 21.2457C5.35301 21.0572 5.20279 20.8098 5.14978 20.5034C5.09676 20.1971 5.13799 19.8466 5.27348 19.4519L7.03193 14.2207L2.54304 10.9955C2.20136 10.7539 1.95983 10.4947 1.81845 10.2179Z" fill="black"/>
</svg>
