<svg width="24" height="24" viewBox="0 0 24 24" fill="none" xmlns="http://www.w3.org/2000/svg">
<path fill-rule="evenodd" clip-rule="evenodd" d="M8.5 8.5C8.5 6.567 10.067 5 12 5C13.933 5 15.5 6.567 15.5 8.5C15.5 10.433 13.933 12 12 12C10.067 12 8.5 10.433 8.5 8.5ZM3 10.5C3 9.11929 4.11929 8 5.5 8C5.86 8 6.2 8.08 6.5 8.22V8.5C6.5 9.7 6.89 10.86 7.62 11.81C7.39 12.17 7.08 12.47 6.71 12.68C6.35 12.88 5.94 13 5.5 13C5.06 13 4.65 12.88 4.29 12.68C3.53 12.25 3 11.44 3 10.5ZM18.5 8C18.14 8 17.8 8.08 17.5 8.22V8.5C17.5 9.7 17.11 10.86 16.38 11.81C16.5 12 16.63 12.15 16.78 12.3C16.94 12.45 17.1 12.58 17.29 12.68C17.65 12.88 18.06 13 18.5 13C18.94 13 19.35 12.88 19.71 12.68C20.47 12.25 21 11.44 21 10.5C21 9.11929 19.8807 8 18.5 8ZM5 17.5C5 15.17 9.66 14 12 14C14.34 14 19 15.17 19 17.5V19H5V17.5ZM4.71 14.55C2.78 14.78 0 15.76 0 17.5V19H3V17.07C3 16.06 3.69 15.22 4.71 14.55ZM21 17.07C21 16.06 20.31 15.22 19.29 14.55C21.22 14.78 24 15.76 24 17.5V19H21V17.07Z" fill="black"/>
</svg>
