<svg width="24" height="24" viewBox="0 0 24 24" fill="none" xmlns="http://www.w3.org/2000/svg">
<path fill-rule="evenodd" clip-rule="evenodd" d="M21 4V12.09C21 12.09 20.5972 11.6885 20.0654 11.3747C19.5336 11.0609 19 10.9673 19 10.9673V4H9C9 3.3 8.81 2.61 8.46 2H19C20.1046 2 21 2.89543 21 4ZM14 9V7H2.5C1.39543 7 0.5 7.89543 0.5 9V14H2V22H4V16H6V22H8V9H14ZM7 4C7 5.10457 6.10457 6 5 6C3.89543 6 3 5.10457 3 4C3 2.89543 3.89543 2 5 2C6.10457 2 7 2.89543 7 4ZM11 16C11.9 13.7 14.3 12 17 12C19.7 12 22.1 13.7 23 16C22.1 18.3 19.7 20 17 20C14.3 20 11.9 18.3 11 16ZM18 16C18 15.4 17.6 15 17 15C16.4 15 16 15.4 16 16C16 16.6 16.4 17 17 17C17.6 17 18 16.6 18 16ZM17 18.5C15.6 18.5 14.5 17.4 14.5 16C14.5 14.6 15.6 13.5 17 13.5C18.4 13.5 19.5 14.6 19.5 16C19.5 17.4 18.4 18.5 17 18.5Z" fill="black"/>
</svg>
