<svg width="24" height="24" viewBox="0 0 24 24" fill="none" xmlns="http://www.w3.org/2000/svg">
<path fill-rule="evenodd" clip-rule="evenodd" d="M21.0009 4V6V12.09V14.09C21.0009 15.1946 20.1055 16.09 19.0009 16.09H9.5V14.09H19.0009V10.9673V7.12269V4H9.00094C9.00094 3.3 8.81094 2.61 8.46094 2H19.0009C20.1055 2 21.0009 2.89543 21.0009 4ZM14 7V9H8V22H6V16H4V22H2V14H0.5V9C0.5 7.89543 1.39543 7 2.5 7H14ZM5 6C6.10457 6 7 5.10457 7 4C7 2.89543 6.10457 2 5 2C3.89543 2 3 2.89543 3 4C3 5.10457 3.89543 6 5 6Z" fill="black"/>
</svg>
