<svg width="24" height="24" viewBox="0 0 24 24" fill="none" xmlns="http://www.w3.org/2000/svg">
<path fill-rule="evenodd" clip-rule="evenodd" d="M7 3C7 4.65685 5.65685 6 4 6C2.34315 6 1 4.65685 1 3C1 1.34315 2.34315 0 4 0C5.65685 0 7 1.34315 7 3ZM16 9V7H3C1.89543 7 1 7.89543 1 9V24H3V17H5V24H7V9H16ZM9 2H23C23.5523 2 24 2.44772 24 3V16C24 16.5523 23.5523 17 23 17H18.516L20.919 22.606C21.1365 23.1136 20.9015 23.7014 20.394 23.919C20.2697 23.973 20.1355 24.0006 20 24C19.6 24 19.2386 23.7616 19.081 23.394L16.341 17H9V15H22V4H9V2Z" fill="#9F6405"/>
</svg>
