<svg width="24" height="24" viewBox="0 0 24 24" fill="none" xmlns="http://www.w3.org/2000/svg">
<path fill-rule="evenodd" clip-rule="evenodd" d="M3.2 5.4C4.41503 5.4 5.4 4.41503 5.4 3.2C5.4 1.98497 4.41503 1 3.2 1C1.98497 1 1 1.98497 1 3.2C1 4.41503 1.98497 5.4 3.2 5.4ZM22.5755 4.77138C22.3733 4.77138 22.1711 4.85868 21.9689 4.94598C21.16 5.38249 20.3512 5.55709 19.5424 5.55709C18.2154 5.55709 16.8884 5.08921 15.5614 4.62133C15.3719 4.55449 15.1823 4.48765 14.9927 4.42217C13.3751 3.81106 11.7574 3.19995 10.1397 3.19995C9.1287 3.19995 8.31987 3.46186 7.40993 3.89836C6.90442 4.16027 6.5 4.77138 6.5 5.29519V12.1047C6.5 12.4539 6.80331 12.6285 7.00552 12.6285C7.20773 12.6285 7.40993 12.5412 7.61214 12.4539C8.42097 12.0174 9.2298 11.8428 10.0386 11.8428C11.3656 11.8428 12.6926 12.3107 14.0196 12.7786C14.2092 12.8454 14.3987 12.9123 14.5883 12.9777C16.1049 13.5888 17.7225 14.2 19.3402 14.2C20.3512 14.2 21.2612 13.938 22.07 13.5015C22.5755 13.2396 22.9799 12.6285 22.9799 12.1047V5.29519C23.081 4.85868 22.7777 4.77138 22.5755 4.77138ZM2.09961 8.1C2.09961 7.49249 2.5921 7 3.19961 7C3.80712 7 4.29961 7.49249 4.29961 8.1V22.9C4.29961 23.5075 3.80712 24 3.19961 24C2.5921 24 2.09961 23.5075 2.09961 22.9V8.1Z" fill="white"/>
</svg>
