<svg width="24" height="24" viewBox="0 0 24 24" fill="none" xmlns="http://www.w3.org/2000/svg">
<path fill-rule="evenodd" clip-rule="evenodd" d="M16.1857 13.9035C16.9774 12.6873 17.4374 11.2353 17.4374 9.67593C17.4374 5.39025 13.9628 1.91602 9.67671 1.91602C5.3906 1.91602 1.91602 5.39025 1.91602 9.67593C1.91602 13.9616 5.3906 17.4358 9.67671 17.4358C11.2357 17.4358 12.6872 16.9762 13.9033 16.1851L19.1617 21.443C19.7919 22.0731 20.8136 22.0731 21.4438 21.4429C22.0739 20.8128 22.0739 19.7912 21.4437 19.161L16.1857 13.9035ZM9.67484 14.2087C7.1711 14.2087 5.14146 12.1793 5.14146 9.67588C5.14146 7.17251 7.1711 5.14308 9.67484 5.14308C12.1786 5.14308 14.2082 7.17251 14.2082 9.67588C14.2082 12.1793 12.1786 14.2087 9.67484 14.2087Z" fill="black"/>
</svg>
