<svg width="24" height="24" viewBox="0 0 24 24" fill="none" xmlns="http://www.w3.org/2000/svg">
<path fill-rule="evenodd" clip-rule="evenodd" d="M22.298 4.95148C22.68 5.04699 22.871 5.3335 22.9665 5.62001C23.062 5.90652 22.9665 6.28854 22.5845 6.57505L19.7193 9.44017C19.5283 9.63118 19.3373 9.72669 19.0508 9.72669C19.003 9.72669 18.9552 9.70281 18.9075 9.67893C18.8597 9.65506 18.812 9.63118 18.7642 9.63118L16.4721 8.86715L13.7979 11.5413C14.1799 12.1143 14.371 12.7828 14.371 13.4513C14.371 15.5524 12.6518 17.2715 10.5507 17.2715C8.44958 17.2715 6.73047 15.5524 6.73047 13.4513C6.73047 11.3503 8.44958 9.63118 10.5507 9.63118C11.2193 9.63118 11.8878 9.82219 12.4608 10.2042L15.2305 7.43459L14.4665 5.14249C14.2754 4.85598 14.371 4.47396 14.6575 4.18745L17.5227 1.32233C17.7137 1.03581 18.0957 0.94031 18.3822 1.03581C18.6687 1.13132 18.9552 1.41783 19.0508 1.70434L19.5283 3.1369L20.3878 2.27737C20.7699 1.89535 21.3429 1.89535 21.7249 2.27737C22.1069 2.65938 22.1069 3.23241 21.7249 3.61442L20.8654 4.47396L22.298 4.95148ZM18.4187 11.4092C18.6927 11.4815 18.9194 11.5413 19.1462 11.5413C19.4327 11.5413 19.6237 11.5413 19.9102 11.4458L19.9102 11.4458C20.0057 12.1143 20.1012 12.7828 20.1012 13.4513C20.1012 18.7041 15.8034 23.0018 10.5506 23.0018C5.29777 23.0018 1 18.7041 1 13.4513C1 8.19862 5.29777 3.90094 10.5506 3.90094C11.2191 3.90094 11.8877 3.99644 12.5562 4.09195C12.4607 4.66497 12.4607 5.238 12.5562 5.71552L12.9383 6.86157L11.9832 7.81661C11.6012 7.7211 11.0281 7.6256 10.5506 7.6256C7.39891 7.6256 4.82024 10.2042 4.82024 13.3558C4.82024 16.5075 7.39891 19.0861 10.5506 19.0861C13.7023 19.0861 16.281 16.5075 16.281 13.3558C16.281 12.8783 16.1855 12.4008 16.09 11.9233L17.045 10.9682L18.1911 11.3503C18.2708 11.3702 18.3464 11.3901 18.4187 11.4092Z" fill="#DF9E3D"/>
</svg>
