<svg width="24" height="24" viewBox="0 0 24 24" fill="none" xmlns="http://www.w3.org/2000/svg">
<path fill-rule="evenodd" clip-rule="evenodd" d="M5 3C5 3.74028 4.5978 4.38663 4 4.73244V22C4 22.5523 3.55228 23 3 23C2.44772 23 2 22.5523 2 22V4.73244C1.4022 4.38663 1 3.74028 1 3C1 1.89543 1.89543 1 3 1C4.10457 1 5 1.89543 5 3ZM21.9689 4.94604C22.1711 4.85874 22.3733 4.77144 22.5755 4.77144C22.7777 4.77144 23.081 4.85874 22.9799 5.29525V12.1048C22.9799 12.6286 22.5755 13.2397 22.07 13.5016C21.2612 13.9381 20.3512 14.2 19.3402 14.2C17.7225 14.2 16.1049 13.5889 14.5883 12.9778C14.3987 12.9123 14.2092 12.8455 14.0196 12.7786C12.6926 12.3108 11.3656 11.8429 10.0386 11.8429C9.2298 11.8429 8.42097 12.0175 7.61214 12.454C7.40993 12.5413 7.20773 12.6286 7.00552 12.6286C6.80331 12.6286 6.5 12.454 6.5 12.1048V5.29525C6.5 4.77144 6.90442 4.16033 7.40993 3.89842C8.31987 3.46192 9.1287 3.20001 10.1397 3.20001C11.7574 3.20001 13.3751 3.81112 14.9927 4.42223C15.1823 4.48771 15.3719 4.55455 15.5614 4.62139C16.8884 5.08927 18.2154 5.55716 19.5424 5.55716C20.3512 5.55716 21.16 5.38255 21.9689 4.94604Z" fill="black"/>
</svg>
