<svg width="24" height="24" viewBox="0 0 24 24" fill="none" xmlns="http://www.w3.org/2000/svg">
<path fill-rule="evenodd" clip-rule="evenodd" d="M22.2954 4.95117C22.6774 5.04666 22.8684 5.33315 22.9639 5.61964C23.0594 5.90613 22.9639 6.28812 22.5819 6.57461L19.7168 9.4395C19.5258 9.63049 19.3348 9.72599 19.0483 9.72599C19.0006 9.72599 18.9528 9.70212 18.9051 9.67824C18.8573 9.65437 18.8096 9.63049 18.7618 9.63049L16.4698 8.86652L13.7957 11.5404C14.1777 12.1134 14.3687 12.7819 14.3687 13.4504C14.3687 15.5513 12.6497 17.2702 10.5486 17.2702C8.44756 17.2702 6.72852 15.5513 6.72852 13.4504C6.72852 11.3494 8.44756 9.63049 10.5486 9.63049C11.2171 9.63049 11.8856 9.82149 12.4587 10.2035L15.2282 7.43408L14.4642 5.14216C14.2732 4.85567 14.3687 4.47368 14.6552 4.1872L17.5203 1.3223C17.7113 1.03581 18.0933 0.940315 18.3798 1.03581C18.6663 1.13131 18.9528 1.4178 19.0483 1.70429L19.5258 3.13673L20.3854 2.27727C20.7674 1.89528 21.3404 1.89528 21.7224 2.27727C22.1044 2.65925 22.1044 3.23223 21.7224 3.61422L20.8629 4.47368L22.2954 4.95117ZM18.418 11.4083C18.692 11.4806 18.9187 11.5404 19.1455 11.5404C19.432 11.5404 19.623 11.5404 19.9095 11.4449C20.005 12.1134 20.1005 12.7819 20.1005 13.4503C20.1005 18.7027 15.8029 23 10.5502 23C5.29761 23 1 18.7027 1 13.4503C1 8.19804 5.29761 3.9007 10.5502 3.9007C11.2188 3.9007 11.8873 3.99619 12.5558 4.09169C12.4603 4.66467 12.4603 5.23765 12.5558 5.71513L12.9378 6.86109L11.9828 7.81605C11.6008 7.72056 11.0278 7.62506 10.5502 7.62506C7.39866 7.62506 4.8201 10.2035 4.8201 13.3548C4.8201 16.5062 7.39866 19.0846 10.5502 19.0846C13.7018 19.0846 16.2804 16.5062 16.2804 13.3548C16.2804 12.8774 16.1849 12.3999 16.0894 11.9224L17.0444 10.9674L18.1904 11.3494C18.2702 11.3694 18.3457 11.3893 18.418 11.4083Z" fill="black"/>
</svg>
