<svg width="24" height="24" viewBox="0 0 24 24" fill="none" xmlns="http://www.w3.org/2000/svg">
<path d="M17.5341 12.2973C18.2718 12.2973 18.9042 12.5946 19.4311 12.991C19.5365 13.0901 19.6419 13.0901 19.7473 13.0901C19.8527 13.0901 19.9581 13.0901 20.0634 12.991C20.2742 12.7928 20.3796 12.6937 20.5904 12.5946C20.6958 12.4955 20.8012 12.3964 20.8012 12.2973V8.13514C20.8012 7.34234 20.0634 6.64865 19.2203 6.64865H15.0048C14.8994 6.54955 14.8994 6.45045 14.794 6.35135C15.3209 5.75676 15.5317 5.06306 15.5317 4.27027C15.5317 2.48649 13.9509 1 12.0539 1C10.1569 1 8.57602 2.48649 8.57602 4.36937C8.57602 5.16216 8.89219 5.85586 9.31375 6.45045C9.20836 6.45045 9.20836 6.54955 9.10297 6.64865H4.8874C3.9389 6.64865 3.30656 7.34234 3.30656 8.13514V12.2973C3.30656 12.3964 3.41195 12.5946 3.51734 12.5946C3.72812 12.6937 3.9389 12.7928 4.04429 12.991C4.14967 13.0901 4.46584 13.0901 4.57123 12.991C5.09818 12.4955 5.73051 12.2973 6.46824 12.2973C7.94369 12.2973 9.20836 13.4865 9.20836 14.8739C9.20836 16.2613 7.94369 17.4505 6.46824 17.4505C5.73051 17.4505 5.09818 17.1532 4.57123 16.7568C4.46584 16.6577 4.36045 16.5586 4.25506 16.5586C4.14967 16.5586 4.04429 16.5586 3.9389 16.6577C3.72812 16.8559 3.62273 16.955 3.41195 17.0541C3.30656 17.1532 3.20117 17.2523 3.20117 17.3514V21.5135C3.20117 22.3063 3.9389 23 4.78201 23H19.1149C19.9581 23 20.6958 22.3063 20.6958 21.5135V17.3514C20.6958 17.2523 20.5904 17.0541 20.485 17.0541C20.2742 16.955 20.1688 16.8559 19.9581 16.7568C19.9581 16.6577 19.8527 16.6577 19.7473 16.5586C19.6419 16.5586 19.4311 16.5586 19.3257 16.6577C18.7988 17.1532 18.1664 17.4505 17.4287 17.4505C15.9533 17.4505 14.6886 16.2613 14.6886 14.8739C14.6886 13.4865 16.0587 12.2973 17.5341 12.2973Z" fill="black"/>
</svg>
