<svg width="24" height="24" viewBox="0 0 24 24" fill="none" xmlns="http://www.w3.org/2000/svg">
<path fill-rule="evenodd" clip-rule="evenodd" d="M5.41781 1.70863C5.67347 2.53905 6.1145 3.23626 6.74088 3.80027C7.36727 4.36429 8.10676 4.73003 8.95933 4.89749L8.95934 4.89747C9.67466 5.03798 10.3684 4.57198 10.5089 3.85665C10.5509 3.64288 10.5394 3.42204 10.4753 3.21384C10.2196 2.38342 9.77856 1.68621 9.15218 1.1222C8.52579 0.558182 7.78631 0.192442 6.93373 0.0249791L6.93373 0.0249978C6.2184 -0.115506 5.52462 0.350489 5.38412 1.06583C5.34214 1.27959 5.35371 1.50043 5.41781 1.70863ZM10.9355 7.79811C10.9388 7.75237 10.9421 7.70697 10.9455 7.66196C10.9918 7.05116 11.0463 6.57973 11.117 6.26887C11.3162 5.39311 11.7581 4.42548 12.2393 3.86024C12.5068 3.54608 12.9747 3.51131 13.2845 3.78259C13.5943 4.05387 13.6285 4.52846 13.3611 4.84263C13.0508 5.20708 12.7096 5.95425 12.5612 6.60671C12.5123 6.82185 12.464 7.23883 12.4232 7.77704L12.4228 7.78262C12.7562 7.69857 13.104 7.57209 13.4729 7.43791C14.4357 7.08769 15.5427 6.68506 16.915 6.84781C19.1925 7.11793 20.6228 9.07231 21.0875 11.6419C21.5523 14.2115 20.5022 17.8488 19.2133 19.8265C17.9244 21.8042 15.8323 23.9999 14.3483 23.9999C14.284 23.9999 14.2207 23.9968 14.1583 23.991C13.2837 23.9093 12.1322 23.9418 11.0756 23.9717H11.0755H11.0755C10.5653 23.9861 10.0772 23.9999 9.65302 23.9999C8.39072 23.9999 5.65378 21.9949 4.00481 19.5153C2.35583 17.0358 1.61306 14.7366 2.19808 11.8025C2.78309 8.86833 4.30184 7.13532 5.881 6.84781C6.7869 6.68287 8.12421 7.05521 9.35851 7.39888C9.92271 7.55597 10.4654 7.70707 10.9355 7.79811ZM6.11627 9.98788C5.76878 10.871 5.59863 11.9521 5.59863 13.2326C5.59863 14.5431 6.00496 16.0159 6.80776 17.6552C6.95462 17.955 7.32692 18.0839 7.63932 17.9429C7.95171 17.8019 8.08591 17.4445 7.93904 17.1446C7.20886 15.6536 6.8487 14.3482 6.8487 13.2326C6.8487 12.087 6.99677 11.1462 7.2857 10.4119C7.40767 10.1019 7.24477 9.75569 6.92184 9.6386C6.59891 9.52151 6.23825 9.67789 6.11627 9.98788Z" fill="white"/>
</svg>
