<svg width="24" height="24" viewBox="0 0 24 24" fill="none" xmlns="http://www.w3.org/2000/svg">
<path fill-rule="evenodd" clip-rule="evenodd" d="M5.42172 1.70863C5.67739 2.53905 6.11842 3.23626 6.74482 3.80027C7.37122 4.36429 8.11072 4.73003 8.96332 4.89749L8.96332 4.89747C9.67866 5.03798 10.3725 4.57198 10.513 3.85665C10.5549 3.64288 10.5434 3.42204 10.4793 3.21384C10.2236 2.38342 9.78257 1.68621 9.15617 1.1222C8.52977 0.558182 7.79027 0.192442 6.93767 0.0249791L6.93767 0.0249978C6.22233 -0.115506 5.52853 0.350489 5.38803 1.06583C5.34604 1.27959 5.35762 1.50043 5.42172 1.70863ZM10.9357 7.79823C10.939 7.75251 10.9423 7.70713 10.9457 7.66214C10.992 7.05134 11.0465 6.57992 11.1172 6.26905C11.3164 5.39329 11.7583 4.42566 12.2396 3.86042C12.507 3.54626 12.975 3.51149 13.2848 3.78277C13.5945 4.05405 13.6288 4.52865 13.3613 4.84281C13.051 5.20726 12.7098 5.95443 12.5614 6.60689C12.5125 6.82203 12.4642 7.23902 12.4235 7.77722L12.423 7.78273C12.7565 7.69868 13.1042 7.5722 13.4731 7.43803C14.436 7.0878 15.543 6.68517 16.9153 6.84792C19.1929 7.11804 20.6232 9.07242 21.0879 11.642C21.5527 14.2116 20.5026 17.849 19.2137 19.8266C17.9248 21.8043 15.8326 24 14.3486 24C14.2843 24 14.2209 23.9969 14.1586 23.9911C13.2839 23.9094 12.1325 23.9419 11.0758 23.9718C10.5655 23.9862 10.0774 24 9.65318 24C8.39086 24 5.65386 21.995 4.00485 19.5155C2.35584 17.0359 1.61305 14.7367 2.19808 11.8026C2.78311 8.86844 4.30189 7.13544 5.88109 6.84792C6.787 6.68298 8.12434 7.05533 9.35867 7.39899C9.92289 7.55608 10.4656 7.70718 10.9357 7.79823ZM6.11726 9.98819C5.76976 10.8713 5.59961 11.9524 5.59961 13.2329C5.59961 14.5435 6.00594 16.0162 6.80876 17.6555C6.95563 17.9554 7.32794 18.0842 7.64034 17.9432C7.95274 17.8022 8.08694 17.4448 7.94007 17.1449C7.20988 15.654 6.8497 14.3485 6.8497 13.2329C6.8497 12.0873 6.99777 11.1465 7.28671 10.4122C7.40869 10.1022 7.24578 9.75599 6.92285 9.6389C6.59991 9.52181 6.23924 9.67819 6.11726 9.98819Z" fill="black"/>
</svg>
