<svg width="24" height="24" viewBox="0 0 24 24" fill="none" xmlns="http://www.w3.org/2000/svg">
<path d="M4.99023 21.5586C4.39128 21.5586 3.87044 21.4219 3.42773 21.1484C2.98503 20.8815 2.63997 20.5234 2.39258 20.0742C2.14518 19.625 2.02148 19.1335 2.02148 18.5996C2.02148 18.0788 2.15495 17.584 2.42188 17.1152L9.95117 3.9707C10.2246 3.48242 10.5924 3.11458 11.0547 2.86719C11.5169 2.61328 11.9987 2.48633 12.5 2.48633C13.0013 2.48633 13.4798 2.61003 13.9355 2.85742C14.3913 3.10482 14.7624 3.47591 15.0488 3.9707L22.5684 17.1055C22.7051 17.3464 22.806 17.5938 22.8711 17.8477C22.9362 18.0951 22.9688 18.3457 22.9688 18.5996C22.9688 19.1335 22.8451 19.625 22.5977 20.0742C22.3568 20.5234 22.015 20.8815 21.5723 21.1484C21.1296 21.4219 20.6087 21.5586 20.0098 21.5586H4.99023ZM5.42969 19.1758H19.5605C19.8079 19.1758 20.0033 19.0944 20.1465 18.9316C20.2897 18.7624 20.3613 18.5671 20.3613 18.3457C20.3613 18.196 20.3288 18.0527 20.2637 17.916L13.1738 5.47461C13.1022 5.3444 13.0046 5.25 12.8809 5.19141C12.7572 5.13281 12.6302 5.10352 12.5 5.10352C12.3698 5.10352 12.2396 5.13281 12.1094 5.19141C11.9857 5.24349 11.888 5.33464 11.8164 5.46484L4.73633 17.8965C4.69727 17.9681 4.67122 18.0462 4.6582 18.1309C4.64518 18.209 4.63867 18.2806 4.63867 18.3457C4.63867 18.5671 4.71029 18.7624 4.85352 18.9316C4.99674 19.0944 5.1888 19.1758 5.42969 19.1758ZM12.5195 14.498C11.8424 14.498 11.4876 14.1628 11.4551 13.4922L11.3086 9.44922C11.2891 9.11068 11.39 8.83398 11.6113 8.61914C11.8392 8.39779 12.1354 8.28711 12.5 8.28711C12.8711 8.28711 13.1673 8.39779 13.3887 8.61914C13.6165 8.83398 13.7207 9.11393 13.7012 9.45898L13.5449 13.4824C13.5189 14.1595 13.1771 14.498 12.5195 14.498ZM12.5195 17.8477C12.1484 17.8477 11.8359 17.7402 11.582 17.5254C11.3346 17.3105 11.2109 17.0273 11.2109 16.6758C11.2109 16.3242 11.3346 16.041 11.582 15.8262C11.8359 15.6113 12.1484 15.5039 12.5195 15.5039C12.8841 15.5039 13.1901 15.6113 13.4375 15.8262C13.6849 16.041 13.8086 16.3242 13.8086 16.6758C13.8086 17.0273 13.6849 17.3105 13.4375 17.5254C13.1901 17.7402 12.8841 17.8477 12.5195 17.8477Z" fill="black"/>
</svg>
