<svg xmlns="http://www.w3.org/2000/svg" xmlns:xlink="http://www.w3.org/1999/xlink" width="300" height="204" viewBox="0 0 300 204">
    <defs>
        <linearGradient id="5520x84jbc" x1="50%" x2="50%" y1="1.1%" y2="100%">
            <stop offset="0%" stop-color="#FFF" stop-opacity="0"/>
            <stop offset="100%" stop-color="#FFF"/>
        </linearGradient>
        <path id="c8ma2k6m9a" d="M0 0h300v196c0 4.418-3.582 8-8 8H8c-4.418 0-8-3.582-8-8V0z"/>
    </defs>
    <g fill="none" fill-rule="evenodd">
        <g>
            <g transform="translate(-330.000000, -374.000000) translate(330.000000, 374.000000)">
                <mask id="et06lj904b" fill="#fff">
                    <use xlink:href="#c8ma2k6m9a"/>
                </mask>
                <path fill="#FFF" d="M25 4h252c4.418 0 8 3.582 8 8v192H17V12c0-4.418 3.582-8 8-8z" mask="url(#et06lj904b)"/>
                <path fill="#434343" fill-rule="nonzero" d="M44.064 72l3.712-11.584h-1.504l-3.168 10.16h-.016l-3.28-10.16H38.16L42.064 72h2zm8.448.192c2.768 0 3.888-1.76 3.888-4.464 0-2.448-1.072-4.128-3.68-4.128-2.624 0-4 1.664-4 4.32 0 2.432.944 4.272 3.792 4.272zm.08-1.168c-1.6 0-2.368-.992-2.368-3.168 0-2.192.976-3.056 2.432-3.056 1.424 0 2.224.752 2.224 3.024 0 2.336-.864 3.2-2.288 3.2zm7.344.976V59.92H58.48V72h1.456zm5.792.192c1.648 0 3.104-.8 3.376-2.704l-1.28-.272c-.208 1.216-.928 1.76-2.048 1.76-1.312 0-2.304-.736-2.304-3.184 0-2.336 1.168-2.976 2.352-2.976 1.152 0 1.712.624 1.84 1.84l1.392-.192c-.112-1.904-1.328-2.864-3.168-2.864-2.464 0-3.936 1.504-3.936 4.368 0 2.464 1.056 4.224 3.776 4.224zm7.376 0c1.152 0 2-.368 2.64-1.008.08.528.448.976 1.264.976.4 0 .816-.096 1.136-.256l-.064-.912c-.208.064-.352.096-.496.096-.416 0-.496-.192-.496-.64v-4.016c0-2.048-.912-2.832-2.944-2.832-1.904 0-2.896.72-3.152 2.256l1.28.24c.176-.912.608-1.36 1.744-1.36 1.344 0 1.632.64 1.632 1.68v.8c-.224-.016-.464-.032-.72-.032-2.32 0-4.256.608-4.256 2.8 0 .8.352 2.208 2.432 2.208zm.448-1.136c-1.12 0-1.376-.608-1.376-1.312 0-1.408 1.52-1.52 2.656-1.52.304 0 .608.016.832.048v1.856c-.448.48-1.264.928-2.112.928zm7.696.944v-6.128c.432-.384 1.456-.992 2.4-.992 1.12 0 1.536.624 1.536 1.76V72h1.456v-5.584c0-1.856-.768-2.816-2.528-2.816-1.136 0-2.16.512-2.96 1.152l-.08-.976h-1.28V72h1.456zm11.136.192c2.768 0 3.888-1.76 3.888-4.464 0-2.448-1.072-4.128-3.68-4.128-2.624 0-4 1.664-4 4.32 0 2.432.944 4.272 3.792 4.272zm.08-1.168c-1.6 0-2.368-.992-2.368-3.168 0-2.192.976-3.056 2.432-3.056 1.424 0 2.224.752 2.224 3.024 0 2.336-.864 3.2-2.288 3.2zm9.168 1.168c1.648 0 2.928-.784 3.264-2.384l-1.28-.288c-.224.928-.768 1.456-1.936 1.456-1.312 0-2.24-.656-2.304-2.752h5.536c.048-.384.064-.752.064-1.072 0-2.032-.96-3.552-3.264-3.552-2.112 0-3.872 1.296-3.872 4.304 0 2.256.88 4.288 3.792 4.288zm1.84-5.12h-4.08c.08-1.632 1.136-2.288 2.224-2.288 1.296 0 1.856.816 1.856 2.288zm6.224 5.12c2 0 3.216-.928 3.216-2.496 0-1.84-1.424-2.144-2.928-2.464-1.152-.24-1.824-.48-1.824-1.328 0-.624.384-1.152 1.584-1.152 1.2 0 1.52.576 1.712 1.52l1.312-.288c-.256-1.456-1.056-2.384-3.008-2.384-1.664 0-3.04.816-3.04 2.48 0 1.721 1.299 2.13 2.536 2.393l.284.059.14.028c1.12.224 1.792.384 1.792 1.296 0 .88-.72 1.184-1.712 1.184-1.456 0-1.824-.704-2.048-1.584l-1.296.352c.256 1.648 1.392 2.384 3.28 2.384zm10.736 0c1.152 0 2-.368 2.64-1.008.08.528.448.976 1.264.976.4 0 .816-.096 1.136-.256l-.064-.912c-.208.064-.352.096-.496.096-.416 0-.496-.192-.496-.64v-4.016c0-2.048-.912-2.832-2.944-2.832-1.904 0-2.896.72-3.152 2.256l1.28.24c.176-.912.608-1.36 1.744-1.36 1.344 0 1.632.64 1.632 1.68v.8c-.224-.016-.464-.032-.72-.032-2.32 0-4.256.608-4.256 2.8 0 .8.352 2.208 2.432 2.208zm.448-1.136c-1.12 0-1.376-.608-1.376-1.312 0-1.408 1.52-1.52 2.656-1.52.304 0 .608.016.832.048v1.856c-.448.48-1.264.928-2.112.928zm7.696.944v-5.984c.672-.624 1.888-1.04 2.912-.896v-1.504c-.072-.008-.124-.012-.17-.014l-.134-.002c-1.152 0-2.016.384-2.736 1.36l-.112-1.184h-1.216V72h1.456zm7.648.192c1.648 0 2.928-.784 3.264-2.384l-1.28-.288c-.224.928-.768 1.456-1.936 1.456-1.312 0-2.24-.656-2.304-2.752h5.536c.048-.384.064-.752.064-1.072 0-2.032-.96-3.552-3.264-3.552-2.112 0-3.872 1.296-3.872 4.304 0 2.256.88 4.288 3.792 4.288zm1.84-5.12h-4.08c.08-1.632 1.136-2.288 2.224-2.288 1.296 0 1.856.816 1.856 2.288zM146.656 72V59.92H145.2V72h1.456zm5.808.192c1.648 0 2.928-.784 3.264-2.384l-1.28-.288c-.224.928-.768 1.456-1.936 1.456-1.312 0-2.24-.656-2.304-2.752h5.536c.048-.384.064-.752.064-1.072 0-2.032-.96-3.552-3.264-3.552-2.112 0-3.872 1.296-3.872 4.304 0 2.256.88 4.288 3.792 4.288zm1.84-5.12h-4.08c.08-1.632 1.136-2.288 2.224-2.288 1.296 0 1.856.816 1.856 2.288zm6.224 5.12c2 0 3.216-.928 3.216-2.496 0-1.84-1.424-2.144-2.928-2.464-1.152-.24-1.824-.48-1.824-1.328 0-.624.384-1.152 1.584-1.152 1.2 0 1.52.576 1.712 1.52l1.312-.288c-.256-1.456-1.056-2.384-3.008-2.384-1.664 0-3.04.816-3.04 2.48 0 1.721 1.299 2.13 2.536 2.393l.284.059.14.028c1.12.224 1.792.384 1.792 1.296 0 .88-.72 1.184-1.712 1.184-1.456 0-1.824-.704-2.048-1.584l-1.296.352c.256 1.648 1.392 2.384 3.28 2.384zm7.792 0c2 0 3.216-.928 3.216-2.496 0-1.84-1.424-2.144-2.928-2.464-1.152-.24-1.824-.48-1.824-1.328 0-.624.384-1.152 1.584-1.152 1.2 0 1.52.576 1.712 1.52l1.312-.288c-.256-1.456-1.056-2.384-3.008-2.384-1.664 0-3.04.816-3.04 2.48 0 1.721 1.299 2.13 2.536 2.393l.284.059.14.028c1.12.224 1.792.384 1.792 1.296 0 .88-.72 1.184-1.712 1.184-1.456 0-1.824-.704-2.048-1.584l-1.296.352c.256 1.648 1.392 2.384 3.28 2.384zM180.128 72l1.68-6.48h.016L183.52 72h1.696l2.56-8.224h-1.408l-1.952 6.656h-.016l-1.792-6.656h-1.504l-1.808 6.688-2-6.688h-1.472L178.4 72h1.728zm12.32.192c1.648 0 2.928-.784 3.264-2.384l-1.28-.288c-.224.928-.768 1.456-1.936 1.456-1.312 0-2.24-.656-2.304-2.752h5.536c.048-.384.064-.752.064-1.072 0-2.032-.96-3.552-3.264-3.552-2.112 0-3.872 1.296-3.872 4.304 0 2.256.88 4.288 3.792 4.288zm1.84-5.12h-4.08c.08-1.632 1.136-2.288 2.224-2.288 1.296 0 1.856.816 1.856 2.288zM199.36 72V59.92h-1.456V72h1.456zm3.984 0V59.92h-1.456V72h1.456zm5.888-4.016v-1.392h-4.336v1.392h4.336zM212.384 72v-2.992l1.264-1.248 2.528 4.24h1.6l-3.056-5.264 2.848-2.96h-1.648l-3.536 3.616V59.92h-1.456V72h1.456zm8.496 0v-6.128c.432-.384 1.456-.992 2.4-.992 1.12 0 1.536.624 1.536 1.76V72h1.456v-5.584c0-1.856-.768-2.816-2.528-2.816-1.136 0-2.16.512-2.96 1.152l-.08-.976h-1.28V72h1.456zm11.136.192c2.768 0 3.888-1.76 3.888-4.464 0-2.448-1.072-4.128-3.68-4.128-2.624 0-4 1.664-4 4.32 0 2.432.944 4.272 3.792 4.272zm.08-1.168c-1.6 0-2.368-.992-2.368-3.168 0-2.192.976-3.056 2.432-3.056 1.424 0 2.224.752 2.224 3.024 0 2.336-.864 3.2-2.288 3.2zm8.992.976l1.68-6.48h.016L244.48 72h1.696l2.56-8.224h-1.408l-1.952 6.656h-.016l-1.792-6.656h-1.504l-1.808 6.688-2-6.688h-1.472L239.36 72h1.728zm10.496 0v-6.128c.432-.384 1.456-.992 2.4-.992 1.12 0 1.536.624 1.536 1.76V72h1.456v-5.584c0-1.856-.768-2.816-2.528-2.816-1.136 0-2.16.512-2.96 1.152l-.08-.976h-1.28V72h1.456zM40.928 96v-7.056h2.288v-1.168h-2.288V86.4c0-1.152.528-1.456 1.28-1.456.384 0 .832.096 1.152.208l.064-1.12c-.272-.128-.832-.272-1.504-.272-1.568 0-2.448.88-2.448 2.688v1.328h-1.216v1.168h1.216V96h1.456zm6.88.192c2.768 0 3.888-1.76 3.888-4.464 0-2.448-1.072-4.128-3.68-4.128-2.624 0-4 1.664-4 4.32 0 2.432.944 4.272 3.792 4.272zm.08-1.168c-1.6 0-2.368-.992-2.368-3.168 0-2.192.976-3.056 2.432-3.056 1.424 0 2.224.752 2.224 3.024 0 2.336-.864 3.2-2.288 3.2zm7.344.976v-5.984c.672-.624 1.888-1.04 2.912-.896v-1.504c-.072-.008-.124-.012-.17-.014l-.134-.002c-1.152 0-2.016.384-2.736 1.36l-.112-1.184h-1.216V96h1.456zm10.464.192c.768 0 1.616-.272 2.016-.544l-.256-1.056c-.352.192-.944.4-1.44.4-.992 0-1.184-.48-1.184-1.344v-4.704h2.272v-1.168h-2.272v-2.608l-1.456.224v2.384h-1.264v1.168h1.264v4.896c0 1.648.784 2.352 2.32 2.352zM70.64 96v-6.128c.432-.384 1.456-.992 2.4-.992 1.12 0 1.536.624 1.536 1.76V96h1.456v-5.584c0-1.856-.768-2.816-2.512-2.816-1.152 0-2.096.48-2.896 1.104V83.92h-1.44V96h1.456zm11.136.192c1.648 0 2.928-.784 3.264-2.384l-1.28-.288c-.224.928-.768 1.456-1.936 1.456-1.312 0-2.24-.656-2.304-2.752h5.536c.048-.384.064-.752.064-1.072 0-2.032-.96-3.552-3.264-3.552-2.112 0-3.872 1.296-3.872 4.304 0 2.256.88 4.288 3.792 4.288zm1.84-5.12h-4.08c.08-1.632 1.136-2.288 2.224-2.288 1.296 0 1.856.816 1.856 2.288zm4.368-4.88c.656 0 1.04-.384 1.04-1.056s-.384-1.04-1.04-1.04-1.024.368-1.024 1.04.368 1.056 1.024 1.056zM88.688 96v-8.224h-1.456V96h1.456zm3.984 0v-5.984c.672-.624 1.888-1.04 2.912-.896v-1.504c-.072-.008-.124-.012-.17-.014l-.134-.002c-1.152 0-2.016.384-2.736 1.36l-.112-1.184h-1.216V96h1.456zm11.168.192c1.648 0 2.928-.784 3.264-2.384l-1.28-.288c-.224.928-.768 1.456-1.936 1.456-1.312 0-2.24-.656-2.304-2.752h5.536c.048-.384.064-.752.064-1.072 0-2.032-.96-3.552-3.264-3.552-2.112 0-3.872 1.296-3.872 4.304 0 2.256.88 4.288 3.792 4.288zm1.84-5.12h-4.08c.08-1.632 1.136-2.288 2.224-2.288 1.296 0 1.856.816 1.856 2.288zM110.752 96v-6.128c.432-.384 1.456-.992 2.4-.992 1.12 0 1.536.624 1.536 1.76V96h1.456v-5.584c0-1.856-.768-2.816-2.528-2.816-1.136 0-2.16.512-2.96 1.152l-.08-.976h-1.28V96h1.456zm11.456 0l3.088-8.224h-1.488l-2.384 6.768h-.016l-2.416-6.768h-1.584L120.544 96h1.664zm5.232-9.808c.656 0 1.04-.384 1.04-1.056s-.384-1.04-1.04-1.04-1.024.368-1.024 1.04.368 1.056 1.024 1.056zm.704 9.808v-8.224h-1.456V96h1.456zm3.984 0v-5.984c.672-.624 1.888-1.04 2.912-.896v-1.504c-.072-.008-.124-.012-.17-.014l-.134-.002c-1.152 0-2.016.384-2.736 1.36l-.112-1.184h-1.216V96h1.456zm7.648.192c2.768 0 3.888-1.76 3.888-4.464 0-2.448-1.072-4.128-3.68-4.128-2.624 0-4 1.664-4 4.32 0 2.432.944 4.272 3.792 4.272zm.08-1.168c-1.6 0-2.368-.992-2.368-3.168 0-2.192.976-3.056 2.432-3.056 1.424 0 2.224.752 2.224 3.024 0 2.336-.864 3.2-2.288 3.2zM147.2 96v-6.128c.432-.384 1.456-.992 2.4-.992 1.12 0 1.536.624 1.536 1.76V96h1.456v-5.584c0-1.856-.768-2.816-2.528-2.816-1.136 0-2.16.512-2.96 1.152l-.08-.976h-1.28V96h1.456zm9.312 0v-6.144c.432-.4 1.44-.976 2.272-.976 1.056 0 1.28.624 1.28 1.728V96h1.456v-5.6c0-.208-.016-.416-.032-.608.48-.4 1.424-.912 2.208-.912 1.056 0 1.28.624 1.28 1.728V96h1.456v-5.6c0-1.84-.608-2.8-2.336-2.8-1.12 0-2.048.496-2.848 1.136-.32-.768-.976-1.136-2.064-1.136-1.12 0-1.984.48-2.8 1.104l-.08-.928h-1.248V96h1.456zm15.68.192c1.648 0 2.928-.784 3.264-2.384l-1.28-.288c-.224.928-.768 1.456-1.936 1.456-1.312 0-2.24-.656-2.304-2.752h5.536c.048-.384.064-.752.064-1.072 0-2.032-.96-3.552-3.264-3.552-2.112 0-3.872 1.296-3.872 4.304 0 2.256.88 4.288 3.792 4.288zm1.84-5.12h-4.08c.08-1.632 1.136-2.288 2.224-2.288 1.296 0 1.856.816 1.856 2.288zM179.104 96v-6.128c.432-.384 1.456-.992 2.4-.992 1.12 0 1.536.624 1.536 1.76V96h1.456v-5.584c0-1.856-.768-2.816-2.528-2.816-1.136 0-2.16.512-2.96 1.152l-.08-.976h-1.28V96h1.456zm10.432.192c.768 0 1.616-.272 2.016-.544l-.256-1.056c-.352.192-.944.4-1.44.4-.992 0-1.184-.48-1.184-1.344v-4.704h2.272v-1.168h-2.272v-2.608l-1.456.224v2.384h-1.264v1.168h1.264v4.896c0 1.648.784 2.352 2.32 2.352zm5.52 0c1.152 0 2-.368 2.64-1.008.08.528.448.976 1.264.976.4 0 .816-.096 1.136-.256l-.064-.912c-.208.064-.352.096-.496.096-.416 0-.496-.192-.496-.64v-4.016c0-2.048-.912-2.832-2.944-2.832-1.904 0-2.896.72-3.152 2.256l1.28.24c.176-.912.608-1.36 1.744-1.36 1.344 0 1.632.64 1.632 1.68v.8c-.224-.016-.464-.032-.72-.032-2.32 0-4.256.608-4.256 2.8 0 .8.352 2.208 2.432 2.208zm.448-1.136c-1.12 0-1.376-.608-1.376-1.312 0-1.408 1.52-1.52 2.656-1.52.304 0 .608.016.832.048v1.856c-.448.48-1.264.928-2.112.928zM203.2 96V83.92h-1.456V96h1.456zM43.04 120.192c1.904 0 3.472-1.296 3.472-4.496 0-3.024-1.296-4.096-2.992-4.096-1.2 0-2.064.448-2.784 1.088v-4.768h-1.44V120h1.264l.08-.72h.016c.592.464 1.408.912 2.384.912zm-.176-1.232c-.944 0-1.744-.576-2.112-.848v-4.256c.48-.464 1.392-1.024 2.304-1.024 1.36 0 1.952.896 1.952 2.848 0 2-.592 3.28-2.144 3.28zm9.008 1.232c1.648 0 2.928-.784 3.264-2.384l-1.28-.288c-.224.928-.768 1.456-1.936 1.456-1.312 0-2.24-.656-2.304-2.752h5.536c.048-.384.064-.752.064-1.072 0-2.032-.96-3.552-3.264-3.552-2.112 0-3.872 1.296-3.872 4.304 0 2.256.88 4.288 3.792 4.288zm1.84-5.12h-4.08c.08-1.632 1.136-2.288 2.224-2.288 1.296 0 1.856.816 1.856 2.288zM58.784 120v-6.128c.432-.384 1.456-.992 2.4-.992 1.12 0 1.536.624 1.536 1.76V120h1.456v-5.584c0-1.856-.768-2.816-2.528-2.816-1.136 0-2.16.512-2.96 1.152l-.08-.976h-1.28V120h1.456zm11.136.192c1.648 0 2.928-.784 3.264-2.384l-1.28-.288c-.224.928-.768 1.456-1.936 1.456-1.312 0-2.24-.656-2.304-2.752H73.2c.048-.384.064-.752.064-1.072 0-2.032-.96-3.552-3.264-3.552-2.112 0-3.872 1.296-3.872 4.304 0 2.256.88 4.288 3.792 4.288zm1.84-5.12h-4.08c.08-1.632 1.136-2.288 2.224-2.288 1.296 0 1.856.816 1.856 2.288zM77.008 120v-7.056h3.536V120H82v-8.224h-4.992v-1.392c0-1.104.48-1.424 1.2-1.424.368 0 .704.08 1.008.176l.048-1.136c-.288-.128-.72-.24-1.312-.24-1.536 0-2.4.88-2.4 2.688v1.328h-1.216v1.168h1.216V120h1.456zm4.272-9.856c.656 0 1.04-.368 1.04-1.04s-.384-1.04-1.04-1.04c-.64 0-1.024.368-1.024 1.04s.384 1.04 1.024 1.04zm5.824 10.048c.768 0 1.616-.272 2.016-.544l-.256-1.056c-.352.192-.944.4-1.44.4-.992 0-1.184-.48-1.184-1.344v-4.704h2.272v-1.168H86.24v-2.608l-1.456.224v2.384H83.52v1.168h1.264v4.896c0 1.648.784 2.352 2.32 2.352zm6.096 0c2 0 3.216-.928 3.216-2.496 0-1.84-1.424-2.144-2.928-2.464-1.152-.24-1.824-.48-1.824-1.328 0-.624.384-1.152 1.584-1.152 1.2 0 1.52.576 1.712 1.52l1.312-.288c-.256-1.456-1.056-2.384-3.008-2.384-1.664 0-3.04.816-3.04 2.48 0 1.721 1.299 2.13 2.536 2.393l.284.059.14.028c1.12.224 1.792.384 1.792 1.296 0 .88-.72 1.184-1.712 1.184-1.456 0-1.824-.704-2.048-1.584l-1.296.352c.256 1.648 1.392 2.384 3.28 2.384zm5.696 0c.704 0 1.088-.368 1.088-1.072 0-.704-.384-1.072-1.088-1.072-.704 0-1.088.368-1.088 1.072 0 .72.384 1.072 1.088 1.072zm8.336-.192v-5.248h5.632V120h1.472v-11.584h-1.472v5.008h-5.632v-5.008h-1.472V120h1.472zm13.216.192c2.768 0 3.888-1.76 3.888-4.464 0-2.448-1.072-4.128-3.68-4.128-2.624 0-4 1.664-4 4.32 0 2.432.944 4.272 3.792 4.272zm.08-1.168c-1.6 0-2.368-.992-2.368-3.168 0-2.192.976-3.056 2.432-3.056 1.424 0 2.224.752 2.224 3.024 0 2.336-.864 3.2-2.288 3.2zm8.992.976l1.68-6.48h.016l1.696 6.48h1.696l2.56-8.224h-1.408l-1.952 6.656h-.016L132 111.776h-1.504l-1.808 6.688-2-6.688h-1.472l2.576 8.224h1.728zm12.32.192c1.648 0 2.928-.784 3.264-2.384l-1.28-.288c-.224.928-.768 1.456-1.936 1.456-1.312 0-2.24-.656-2.304-2.752h5.536c.048-.384.064-.752.064-1.072 0-2.032-.96-3.552-3.264-3.552-2.112 0-3.872 1.296-3.872 4.304 0 2.256.88 4.288 3.792 4.288zm1.84-5.12h-4.08c.08-1.632 1.136-2.288 2.224-2.288 1.296 0 1.856.816 1.856 2.288zm7.216 4.928l3.088-8.224h-1.488l-2.384 6.768h-.016l-2.416-6.768h-1.584l3.136 8.224h1.664zm7.76.192c1.648 0 2.928-.784 3.264-2.384l-1.28-.288c-.224.928-.768 1.456-1.936 1.456-1.312 0-2.24-.656-2.304-2.752h5.536c.048-.384.064-.752.064-1.072 0-2.032-.96-3.552-3.264-3.552-2.112 0-3.872 1.296-3.872 4.304 0 2.256.88 4.288 3.792 4.288zm1.84-5.12h-4.08c.08-1.632 1.136-2.288 2.224-2.288 1.296 0 1.856.816 1.856 2.288zm5.072 4.928v-5.984c.672-.624 1.888-1.04 2.912-.896v-1.504c-.072-.008-.124-.012-.17-.014l-.134-.002c-1.152 0-2.016.384-2.736 1.36l-.112-1.184h-1.216V120h1.456zm4.464 2.064l1.344-3.76h-1.616l-.896 3.616 1.168.144zm8.944-1.872c1.152 0 2-.368 2.64-1.008.08.528.448.976 1.264.976.4 0 .816-.096 1.136-.256l-.064-.912c-.208.064-.352.096-.496.096-.416 0-.496-.192-.496-.64v-4.016c0-2.048-.912-2.832-2.944-2.832-1.904 0-2.896.72-3.152 2.256l1.28.24c.176-.912.608-1.36 1.744-1.36 1.344 0 1.632.64 1.632 1.68v.8c-.224-.016-.464-.032-.72-.032-2.32 0-4.256.608-4.256 2.8 0 .8.352 2.208 2.432 2.208zm.448-1.136c-1.12 0-1.376-.608-1.376-1.312 0-1.408 1.52-1.52 2.656-1.52.304 0 .608.016.832.048v1.856c-.448.48-1.264.928-2.112.928zm13.36.944l3.088-8.224h-1.488L192 118.544h-.016l-2.416-6.768h-1.584L191.12 120h1.664zm7.76.192c2.768 0 3.888-1.76 3.888-4.464 0-2.448-1.072-4.128-3.68-4.128-2.624 0-4 1.664-4 4.32 0 2.432.944 4.272 3.792 4.272zm.08-1.168c-1.6 0-2.368-.992-2.368-3.168 0-2.192.976-3.056 2.432-3.056 1.424 0 2.224.752 2.224 3.024 0 2.336-.864 3.2-2.288 3.2zm7.344.976v-12.08h-1.456V120h1.456zm5.792.192c1.648 0 3.104-.8 3.376-2.704l-1.28-.272c-.208 1.216-.928 1.76-2.048 1.76-1.312 0-2.304-.736-2.304-3.184 0-2.336 1.168-2.976 2.352-2.976 1.152 0 1.712.624 1.84 1.84l1.392-.192c-.112-1.904-1.328-2.864-3.168-2.864-2.464 0-3.936 1.504-3.936 4.368 0 2.464 1.056 4.224 3.776 4.224zm7.376 0c1.152 0 2-.368 2.64-1.008.08.528.448.976 1.264.976.4 0 .816-.096 1.136-.256l-.064-.912c-.208.064-.352.096-.496.096-.416 0-.496-.192-.496-.64v-4.016c0-2.048-.912-2.832-2.944-2.832-1.904 0-2.896.72-3.152 2.256l1.28.24c.176-.912.608-1.36 1.744-1.36 1.344 0 1.632.64 1.632 1.68v.8c-.224-.016-.464-.032-.72-.032-2.32 0-4.256.608-4.256 2.8 0 .8.352 2.208 2.432 2.208zm.448-1.136c-1.12 0-1.376-.608-1.376-1.312 0-1.408 1.52-1.52 2.656-1.52.304 0 .608.016.832.048v1.856c-.448.48-1.264.928-2.112.928zm7.696.944v-6.128c.432-.384 1.456-.992 2.4-.992 1.12 0 1.536.624 1.536 1.76V120h1.456v-5.584c0-1.856-.768-2.816-2.528-2.816-1.136 0-2.16.512-2.96 1.152l-.08-.976h-1.28V120h1.456zm8.608-9.808c.656 0 1.04-.384 1.04-1.056s-.384-1.04-1.04-1.04-1.024.368-1.024 1.04.368 1.056 1.024 1.056zm.704 9.808v-8.224h-1.456V120h1.456zm5.792.192c1.648 0 3.104-.8 3.376-2.704l-1.28-.272c-.208 1.216-.928 1.76-2.048 1.76-1.312 0-2.304-.736-2.304-3.184 0-2.336 1.168-2.976 2.352-2.976 1.152 0 1.712.624 1.84 1.84l1.392-.192c-.112-1.904-1.328-2.864-3.168-2.864-2.464 0-3.936 1.504-3.936 4.368 0 2.464 1.056 4.224 3.776 4.224zm-201.808 24c1.648 0 2.928-.784 3.264-2.384l-1.28-.288c-.224.928-.768 1.456-1.936 1.456-1.312 0-2.24-.656-2.304-2.752h5.536c.048-.384.064-.752.064-1.072 0-2.032-.96-3.552-3.264-3.552-2.112 0-3.872 1.296-3.872 4.304 0 2.256.88 4.288 3.792 4.288zm1.84-5.12h-4.08c.08-1.632 1.136-2.288 2.224-2.288 1.296 0 1.856.816 1.856 2.288zM49.488 144v-5.984c.672-.624 1.888-1.04 2.912-.896v-1.504c-.072-.008-.124-.012-.17-.014l-.134-.002c-1.152 0-2.016.384-2.736 1.36l-.112-1.184h-1.216V144h1.456zm6.848.16c1.136 0 2.112-.448 2.912-1.104l.096.944h1.264v-8.224h-1.456v6.112c-.432.4-1.44 1.008-2.384 1.008-1.216 0-1.488-.624-1.488-1.76v-5.36h-1.456v5.584c0 1.84.768 2.8 2.512 2.8zm8.224 3.232v-4c.592.448 1.376.8 2.368.8 1.84 0 3.424-1.28 3.424-4.496 0-3.024-1.28-4.096-3.008-4.096-1.168 0-2.096.448-2.848 1.12l-.08-.944h-1.264v11.616h1.408zm2.16-4.432c-.944 0-1.76-.544-2.112-.816v-4.288c.48-.48 1.392-1.04 2.304-1.04 1.312 0 1.952.8 1.952 2.864 0 1.968-.576 3.28-2.144 3.28zm8.304 1.232c.768 0 1.616-.272 2.016-.544l-.256-1.056c-.352.192-.944.4-1.44.4-.992 0-1.184-.48-1.184-1.344v-4.704h2.272v-1.168H74.16v-2.608l-1.456.224v2.384H71.44v1.168h1.264v4.896c0 1.648.784 2.352 2.32 2.352zm4.24-10c.656 0 1.04-.384 1.04-1.056s-.384-1.04-1.04-1.04-1.024.368-1.024 1.04.368 1.056 1.024 1.056zm.704 9.808v-8.224h-1.456V144h1.456zm5.808.192c2.768 0 3.888-1.76 3.888-4.464 0-2.448-1.072-4.128-3.68-4.128-2.624 0-4 1.664-4 4.32 0 2.432.944 4.272 3.792 4.272zm.08-1.168c-1.6 0-2.368-.992-2.368-3.168 0-2.192.976-3.056 2.432-3.056 1.424 0 2.224.752 2.224 3.024 0 2.336-.864 3.2-2.288 3.2zM93.2 144v-6.128c.432-.384 1.456-.992 2.4-.992 1.12 0 1.536.624 1.536 1.76V144h1.456v-5.584c0-1.856-.768-2.816-2.528-2.816-1.136 0-2.16.512-2.96 1.152l-.08-.976h-1.28V144H93.2zm12.832 0v-5.984c.672-.624 1.888-1.04 2.912-.896v-1.504c-.072-.008-.124-.012-.17-.014l-.134-.002c-1.152 0-2.016.384-2.736 1.36l-.112-1.184h-1.216V144h1.456zm7.648.192c1.648 0 2.928-.784 3.264-2.384l-1.28-.288c-.224.928-.768 1.456-1.936 1.456-1.312 0-2.24-.656-2.304-2.752h5.536c.048-.384.064-.752.064-1.072 0-2.032-.96-3.552-3.264-3.552-2.112 0-3.872 1.296-3.872 4.304 0 2.256.88 4.288 3.792 4.288zm1.84-5.12h-4.08c.08-1.632 1.136-2.288 2.224-2.288 1.296 0 1.856.816 1.856 2.288zm5.072 4.928v-12.08h-1.456V144h1.456zm5.808.192c1.648 0 2.928-.784 3.264-2.384l-1.28-.288c-.224.928-.768 1.456-1.936 1.456-1.312 0-2.24-.656-2.304-2.752h5.536c.048-.384.064-.752.064-1.072 0-2.032-.96-3.552-3.264-3.552-2.112 0-3.872 1.296-3.872 4.304 0 2.256.88 4.288 3.792 4.288zm1.84-5.12h-4.08c.08-1.632 1.136-2.288 2.224-2.288 1.296 0 1.856.816 1.856 2.288zm5.648 5.12c1.152 0 2-.368 2.64-1.008.08.528.448.976 1.264.976.4 0 .816-.096 1.136-.256l-.064-.912c-.208.064-.352.096-.496.096-.416 0-.496-.192-.496-.64v-4.016c0-2.048-.912-2.832-2.944-2.832-1.904 0-2.896.72-3.152 2.256l1.28.24c.176-.912.608-1.36 1.744-1.36 1.344 0 1.632.64 1.632 1.68v.8c-.224-.016-.464-.032-.72-.032-2.32 0-4.256.608-4.256 2.8 0 .8.352 2.208 2.432 2.208zm.448-1.136c-1.12 0-1.376-.608-1.376-1.312 0-1.408 1.52-1.52 2.656-1.52.304 0 .608.016.832.048v1.856c-.448.48-1.264.928-2.112.928zm8.848 1.136c2 0 3.216-.928 3.216-2.496 0-1.84-1.424-2.144-2.928-2.464-1.152-.24-1.824-.48-1.824-1.328 0-.624.384-1.152 1.584-1.152 1.2 0 1.52.576 1.712 1.52l1.312-.288c-.256-1.456-1.056-2.384-3.008-2.384-1.664 0-3.04.816-3.04 2.48 0 1.721 1.299 2.13 2.536 2.393l.284.059.14.028c1.12.224 1.792.384 1.792 1.296 0 .88-.72 1.184-1.712 1.184-1.456 0-1.824-.704-2.048-1.584l-1.296.352c.256 1.648 1.392 2.384 3.28 2.384zm8.464 0c1.648 0 2.928-.784 3.264-2.384l-1.28-.288c-.224.928-.768 1.456-1.936 1.456-1.312 0-2.24-.656-2.304-2.752h5.536c.048-.384.064-.752.064-1.072 0-2.032-.96-3.552-3.264-3.552-2.112 0-3.872 1.296-3.872 4.304 0 2.256.88 4.288 3.792 4.288zm1.84-5.12h-4.08c.08-1.632 1.136-2.288 2.224-2.288 1.296 0 1.856.816 1.856 2.288zm6.224 5.12c2 0 3.216-.928 3.216-2.496 0-1.84-1.424-2.144-2.928-2.464-1.152-.24-1.824-.48-1.824-1.328 0-.624.384-1.152 1.584-1.152 1.2 0 1.52.576 1.712 1.52l1.312-.288c-.256-1.456-1.056-2.384-3.008-2.384-1.664 0-3.04.816-3.04 2.48 0 1.721 1.299 2.13 2.536 2.393l.284.059.14.028c1.12.224 1.792.384 1.792 1.296 0 .88-.72 1.184-1.712 1.184-1.456 0-1.824-.704-2.048-1.584l-1.296.352c.256 1.648 1.392 2.384 3.28 2.384zm10.16-.192v-6.144c.432-.4 1.44-.976 2.272-.976 1.056 0 1.28.624 1.28 1.728V144h1.456v-5.6c0-.208-.016-.416-.032-.608.48-.4 1.424-.912 2.208-.912 1.056 0 1.28.624 1.28 1.728V144h1.456v-5.6c0-1.84-.608-2.8-2.336-2.8-1.12 0-2.048.496-2.848 1.136-.32-.768-.976-1.136-2.064-1.136-1.12 0-1.984.48-2.8 1.104l-.08-.928h-1.248V144h1.456zm13.152-9.808c.656 0 1.04-.384 1.04-1.056s-.384-1.04-1.04-1.04-1.024.368-1.024 1.04.368 1.056 1.024 1.056zm.704 9.808v-8.224h-1.456V144h1.456zm3.984 0v-6.128c.432-.384 1.456-.992 2.4-.992 1.12 0 1.536.624 1.536 1.76V144h1.456v-5.584c0-1.856-.768-2.816-2.528-2.816-1.136 0-2.16.512-2.96 1.152l-.08-.976h-1.28V144h1.456zm11.136.192c1.648 0 2.928-.784 3.264-2.384l-1.28-.288c-.224.928-.768 1.456-1.936 1.456-1.312 0-2.24-.656-2.304-2.752h5.536c.048-.384.064-.752.064-1.072 0-2.032-.96-3.552-3.264-3.552-2.112 0-3.872 1.296-3.872 4.304 0 2.256.88 4.288 3.792 4.288zm1.84-5.12h-4.08c.08-1.632 1.136-2.288 2.224-2.288 1.296 0 1.856.816 1.856 2.288zM205.76 144v-5.984c.672-.624 1.888-1.04 2.912-.896v-1.504c-.072-.008-.124-.012-.17-.014l-.134-.002c-1.152 0-2.016.384-2.736 1.36l-.112-1.184h-1.216V144h1.456zm6.4.192c1.152 0 2-.368 2.64-1.008.08.528.448.976 1.264.976.4 0 .816-.096 1.136-.256l-.064-.912c-.208.064-.352.096-.496.096-.416 0-.496-.192-.496-.64v-4.016c0-2.048-.912-2.832-2.944-2.832-1.904 0-2.896.72-3.152 2.256l1.28.24c.176-.912.608-1.36 1.744-1.36 1.344 0 1.632.64 1.632 1.68v.8c-.224-.016-.464-.032-.72-.032-2.32 0-4.256.608-4.256 2.8 0 .8.352 2.208 2.432 2.208zm.448-1.136c-1.12 0-1.376-.608-1.376-1.312 0-1.408 1.52-1.52 2.656-1.52.304 0 .608.016.832.048v1.856c-.448.48-1.264.928-2.112.928zm7.696.944v-12.08h-1.456V144h1.456zm5.888-4.016v-1.392h-4.336v1.392h4.336zm3.152 4.016v-5.984c.672-.624 1.888-1.04 2.912-.896v-1.504c-.072-.008-.124-.012-.17-.014l-.134-.002c-1.152 0-2.016.384-2.736 1.36l-.112-1.184h-1.216V144h1.456zm5.12-9.808c.656 0 1.04-.384 1.04-1.056s-.384-1.04-1.04-1.04-1.024.368-1.024 1.04.368 1.056 1.024 1.056zm.704 9.808v-8.224h-1.456V144h1.456zm5.792.192c1.648 0 3.104-.8 3.376-2.704l-1.28-.272c-.208 1.216-.928 1.76-2.048 1.76-1.312 0-2.304-.736-2.304-3.184 0-2.336 1.168-2.976 2.352-2.976 1.152 0 1.712.624 1.84 1.84l1.392-.192c-.112-1.904-1.328-2.864-3.168-2.864-2.464 0-3.936 1.504-3.936 4.368 0 2.464 1.056 4.224 3.776 4.224zm6.8-.192v-6.128c.432-.384 1.456-.992 2.4-.992 1.12 0 1.536.624 1.536 1.76V144h1.456v-5.584c0-1.856-.768-2.816-2.512-2.816-1.152 0-2.096.48-2.896 1.104v-4.784h-1.44V144h1.456zM40.752 168v-5.984c.672-.624 1.888-1.04 2.912-.896v-1.504c-.072-.008-.124-.012-.17-.014l-.134-.002c-1.152 0-2.016.384-2.736 1.36l-.112-1.184h-1.216V168h1.456zm7.648.192c2.768 0 3.888-1.76 3.888-4.464 0-2.448-1.072-4.128-3.68-4.128-2.624 0-4 1.664-4 4.32 0 2.432.944 4.272 3.792 4.272zm.08-1.168c-1.6 0-2.368-.992-2.368-3.168 0-2.192.976-3.056 2.432-3.056 1.424 0 2.224.752 2.224 3.024 0 2.336-.864 3.2-2.288 3.2zm9.152 1.168c1.648 0 3.104-.8 3.376-2.704l-1.28-.272c-.208 1.216-.928 1.76-2.048 1.76-1.312 0-2.304-.736-2.304-3.184 0-2.336 1.168-2.976 2.352-2.976 1.152 0 1.712.624 1.84 1.84l1.392-.192c-.112-1.904-1.328-2.864-3.168-2.864-2.464 0-3.936 1.504-3.936 4.368 0 2.464 1.056 4.224 3.776 4.224zm6.8-.192v-2.992l1.264-1.248 2.528 4.24h1.6l-3.056-5.264 2.848-2.96h-1.648l-3.536 3.616v-7.472h-1.456V168h1.456zm9.648.192c2 0 3.216-.928 3.216-2.496 0-1.84-1.424-2.144-2.928-2.464-1.152-.24-1.824-.48-1.824-1.328 0-.624.384-1.152 1.584-1.152 1.2 0 1.52.576 1.712 1.52l1.312-.288c-.256-1.456-1.056-2.384-3.008-2.384-1.664 0-3.04.816-3.04 2.48 0 1.721 1.299 2.13 2.536 2.393l.284.059.14.028c1.12.224 1.792.384 1.792 1.296 0 .88-.72 1.184-1.712 1.184-1.456 0-1.824-.704-2.048-1.584l-1.296.352c.256 1.648 1.392 2.384 3.28 2.384zm5.28 1.872l1.344-3.76h-1.616l-.896 3.616 1.168.144zm10.192-1.872c1.648 0 2.928-.784 3.264-2.384l-1.28-.288c-.224.928-.768 1.456-1.936 1.456-1.312 0-2.24-.656-2.304-2.752h5.536c.048-.384.064-.752.064-1.072 0-2.032-.96-3.552-3.264-3.552-2.112 0-3.872 1.296-3.872 4.304 0 2.256.88 4.288 3.792 4.288zm1.84-5.12h-4.08c.08-1.632 1.136-2.288 2.224-2.288 1.296 0 1.856.816 1.856 2.288zM96.464 168v-6.128c.432-.384 1.456-.992 2.4-.992 1.12 0 1.536.624 1.536 1.76V168h1.456v-5.584c0-1.856-.768-2.816-2.528-2.816-1.136 0-2.16.512-2.96 1.152l-.08-.976h-1.28V168h1.456zm9.312 0v-5.984c.672-.624 1.888-1.04 2.912-.896v-1.504c-.072-.008-.124-.012-.17-.014l-.134-.002c-1.152 0-2.016.384-2.736 1.36l-.112-1.184h-1.216V168h1.456zm5.12-9.808c.656 0 1.04-.384 1.04-1.056s-.384-1.04-1.04-1.04-1.024.368-1.024 1.04.368 1.056 1.024 1.056zM111.6 168v-8.224h-1.456V168h1.456zm5.792.192c1.648 0 3.104-.8 3.376-2.704l-1.28-.272c-.208 1.216-.928 1.76-2.048 1.76-1.312 0-2.304-.736-2.304-3.184 0-2.336 1.168-2.976 2.352-2.976 1.152 0 1.712.624 1.84 1.84l1.392-.192c-.112-1.904-1.328-2.864-3.168-2.864-2.464 0-3.936 1.504-3.936 4.368 0 2.464 1.056 4.224 3.776 4.224zm6.8-.192v-6.128c.432-.384 1.456-.992 2.4-.992 1.12 0 1.536.624 1.536 1.76V168h1.456v-5.584c0-1.856-.768-2.816-2.512-2.816-1.152 0-2.096.48-2.896 1.104v-4.784h-1.44V168h1.456zm8.608-9.808c.656 0 1.04-.384 1.04-1.056s-.384-1.04-1.04-1.04-1.024.368-1.024 1.04.368 1.056 1.024 1.056zm.704 9.808v-8.224h-1.456V168h1.456zm3.984 0v-6.128c.432-.384 1.456-.992 2.4-.992 1.12 0 1.536.624 1.536 1.76V168h1.456v-5.584c0-1.856-.768-2.816-2.528-2.816-1.136 0-2.16.512-2.96 1.152l-.08-.976h-1.28V168h1.456zm10.768 3.616c2.064 0 4.224-.608 4.224-2.624 0-1.616-.992-2.032-2.688-2.144l-2.352-.16c-.88-.064-1.056-.304-1.056-.624 0-.336.288-.576.512-.784.416.144.976.192 1.52.192 1.888 0 3.376-1.072 3.376-2.928 0-.672-.224-1.408-.64-1.856.416-.128 1.104-.208 1.6-.176v-1.072c-.24-.08-.464-.128-.72-.128-.608 0-1.04.448-1.296 1.04-.544-.544-1.376-.752-2.384-.752-2.128 0-3.488 1.216-3.488 3.024 0 1.056.464 1.904 1.216 2.304-.576.448-1.088.864-1.088 1.568 0 .592.336.96.896 1.184v.016c-.672.32-1.328.96-1.328 1.888 0 .976.624 2.032 3.696 2.032zm.096-7.296c-1.456 0-2.08-.704-2.08-1.776 0-1.264.96-1.792 2.096-1.792 1.248 0 2.016.592 2.016 1.824 0 1.104-.832 1.744-2.032 1.744zm.08 6.144c-1.904 0-2.464-.464-2.464-1.152 0-.544.288-.912.912-1.328l2.72.16c1.12.08 1.376.432 1.376 1.024 0 .864-.848 1.296-2.544 1.296zm11.84-2.272c.768 0 1.616-.272 2.016-.544l-.256-1.056c-.352.192-.944.4-1.44.4-.992 0-1.184-.48-1.184-1.344v-4.704h2.272v-1.168h-2.272v-2.608l-1.456.224v2.384h-1.264v1.168h1.264v4.896c0 1.648.784 2.352 2.32 2.352zm4.944-.192v-6.128c.432-.384 1.456-.992 2.4-.992 1.12 0 1.536.624 1.536 1.76V168h1.456v-5.584c0-1.856-.768-2.816-2.512-2.816-1.152 0-2.096.48-2.896 1.104v-4.784h-1.44V168h1.456zm11.136.192c1.648 0 2.928-.784 3.264-2.384l-1.28-.288c-.224.928-.768 1.456-1.936 1.456-1.312 0-2.24-.656-2.304-2.752h5.536c.048-.384.064-.752.064-1.072 0-2.032-.96-3.552-3.264-3.552-2.112 0-3.872 1.296-3.872 4.304 0 2.256.88 4.288 3.792 4.288zm1.84-5.12h-4.08c.08-1.632 1.136-2.288 2.224-2.288 1.296 0 1.856.816 1.856 2.288zm9.744 5.12c2 0 3.216-.928 3.216-2.496 0-1.84-1.424-2.144-2.928-2.464-1.152-.24-1.824-.48-1.824-1.328 0-.624.384-1.152 1.584-1.152 1.2 0 1.52.576 1.712 1.52l1.312-.288c-.256-1.456-1.056-2.384-3.008-2.384-1.664 0-3.04.816-3.04 2.48 0 1.721 1.299 2.13 2.536 2.393l.284.059.14.028c1.12.224 1.792.384 1.792 1.296 0 .88-.72 1.184-1.712 1.184-1.456 0-1.824-.704-2.048-1.584l-1.296.352c.256 1.648 1.392 2.384 3.28 2.384zm8.464 0c2.768 0 3.888-1.76 3.888-4.464 0-2.448-1.072-4.128-3.68-4.128-2.624 0-4 1.664-4 4.32 0 2.432.944 4.272 3.792 4.272zm.08-1.168c-1.6 0-2.368-.992-2.368-3.168 0-2.192.976-3.056 2.432-3.056 1.424 0 2.224.752 2.224 3.024 0 2.336-.864 3.2-2.288 3.2zm6.64-8.832c.656 0 1.04-.384 1.04-1.056s-.384-1.04-1.04-1.04-1.024.368-1.024 1.04.368 1.056 1.024 1.056zm.704 9.808v-8.224h-1.456V168h1.456zm3.984 0v-12.08h-1.456V168h1.456zm6.8-9.808c.656 0 1.04-.384 1.04-1.056s-.384-1.04-1.04-1.04-1.024.368-1.024 1.04.368 1.056 1.024 1.056zm.704 9.808v-8.224h-1.456V168h1.456zm3.984 0v-6.128c.432-.384 1.456-.992 2.4-.992 1.12 0 1.536.624 1.536 1.76V168h1.456v-5.584c0-1.856-.768-2.816-2.528-2.816-1.136 0-2.16.512-2.96 1.152l-.08-.976h-1.28V168h1.456zm13.408.192c1.152 0 2-.368 2.64-1.008.08.528.448.976 1.264.976.4 0 .816-.096 1.136-.256l-.064-.912c-.208.064-.352.096-.496.096-.416 0-.496-.192-.496-.64v-4.016c0-2.048-.912-2.832-2.944-2.832-1.904 0-2.896.72-3.152 2.256l1.28.24c.176-.912.608-1.36 1.744-1.36 1.344 0 1.632.64 1.632 1.68v.8c-.224-.016-.464-.032-.72-.032-2.32 0-4.256.608-4.256 2.8 0 .8.352 2.208 2.432 2.208zm.448-1.136c-1.12 0-1.376-.608-1.376-1.312 0-1.408 1.52-1.52 2.656-1.52.304 0 .608.016.832.048v1.856c-.448.48-1.264.928-2.112.928zm7.696.944v-6.128c.432-.384 1.456-.992 2.4-.992 1.12 0 1.536.624 1.536 1.76V168h1.456v-5.584c0-1.856-.768-2.816-2.528-2.816-1.136 0-2.16.512-2.96 1.152l-.08-.976h-1.28V168h1.456zm-199.52 24.192c1.152 0 2-.368 2.64-1.008.08.528.448.976 1.264.976.4 0 .816-.096 1.136-.256l-.064-.912c-.208.064-.352.096-.496.096-.416 0-.496-.192-.496-.64v-4.016c0-2.048-.912-2.832-2.944-2.832-1.904 0-2.896.72-3.152 2.256l1.28.24c.176-.912.608-1.36 1.744-1.36 1.344 0 1.632.64 1.632 1.68v.8c-.224-.016-.464-.032-.72-.032-2.32 0-4.256.608-4.256 2.8 0 .8.352 2.208 2.432 2.208zm.448-1.136c-1.12 0-1.376-.608-1.376-1.312 0-1.408 1.52-1.52 2.656-1.52.304 0 .608.016.832.048v1.856c-.448.48-1.264.928-2.112.928zm7.696.944v-5.984c.672-.624 1.888-1.04 2.912-.896v-1.504c-.072-.008-.124-.012-.17-.014l-.134-.002c-1.152 0-2.016.384-2.736 1.36l-.112-1.184h-1.216V192h1.456zm7.648.192c1.648 0 2.928-.784 3.264-2.384l-1.28-.288c-.224.928-.768 1.456-1.936 1.456-1.312 0-2.24-.656-2.304-2.752H60.4c.048-.384.064-.752.064-1.072 0-2.032-.96-3.552-3.264-3.552-2.112 0-3.872 1.296-3.872 4.304 0 2.256.88 4.288 3.792 4.288zm1.84-5.12h-4.08c.08-1.632 1.136-2.288 2.224-2.288 1.296 0 1.856.816 1.856 2.288zm5.648 5.12c1.152 0 2-.368 2.64-1.008.08.528.448.976 1.264.976.4 0 .816-.096 1.136-.256l-.064-.912c-.208.064-.352.096-.496.096-.416 0-.496-.192-.496-.64v-4.016c0-2.048-.912-2.832-2.944-2.832-1.904 0-2.896.72-3.152 2.256l1.28.24c.176-.912.608-1.36 1.744-1.36 1.344 0 1.632.64 1.632 1.68v.8c-.224-.016-.464-.032-.72-.032-2.32 0-4.256.608-4.256 2.8 0 .8.352 2.208 2.432 2.208zm.448-1.136c-1.12 0-1.376-.608-1.376-1.312 0-1.408 1.52-1.52 2.656-1.52.304 0 .608.016.832.048v1.856c-.448.48-1.264.928-2.112.928zm11.392.944v-7.056h2.288v-1.168h-2.288V182.4c0-1.152.528-1.456 1.28-1.456.384 0 .832.096 1.152.208l.064-1.12c-.272-.128-.832-.272-1.504-.272-1.568 0-2.448.88-2.448 2.688v1.328h-1.216v1.168h1.216V192h1.456zm6.88.192c2.768 0 3.888-1.76 3.888-4.464 0-2.448-1.072-4.128-3.68-4.128-2.624 0-4 1.664-4 4.32 0 2.432.944 4.272 3.792 4.272zm.08-1.168c-1.6 0-2.368-.992-2.368-3.168 0-2.192.976-3.056 2.432-3.056 1.424 0 2.224.752 2.224 3.024 0 2.336-.864 3.2-2.288 3.2zm7.344.976v-5.984c.672-.624 1.888-1.04 2.912-.896v-1.504c-.072-.008-.124-.012-.17-.014l-.134-.002c-1.152 0-2.016.384-2.736 1.36l-.112-1.184h-1.216V192h1.456zm10.464.192c.768 0 1.616-.272 2.016-.544l-.256-1.056c-.352.192-.944.4-1.44.4-.992 0-1.184-.48-1.184-1.344v-4.704h2.272v-1.168h-2.272v-2.608l-1.456.224v2.384h-1.264v1.168h1.264v4.896c0 1.648.784 2.352 2.32 2.352zm4.944-.192v-6.128c.432-.384 1.456-.992 2.4-.992 1.12 0 1.536.624 1.536 1.76V192h1.456v-5.584c0-1.856-.768-2.816-2.512-2.816-1.152 0-2.096.48-2.896 1.104v-4.784h-1.44V192h1.456zm11.136.192c2.768 0 3.888-1.76 3.888-4.464 0-2.448-1.072-4.128-3.68-4.128-2.624 0-4 1.664-4 4.32 0 2.432.944 4.272 3.792 4.272zm.08-1.168c-1.6 0-2.368-.992-2.368-3.168 0-2.192.976-3.056 2.432-3.056 1.424 0 2.224.752 2.224 3.024 0 2.336-.864 3.2-2.288 3.2zm8.368 1.136c1.136 0 2.112-.448 2.912-1.104l.096.944h1.264v-8.224h-1.456v6.112c-.432.4-1.44 1.008-2.384 1.008-1.216 0-1.488-.624-1.488-1.76v-5.36h-1.456v5.584c0 1.84.768 2.8 2.512 2.8zm9.424.032c2 0 3.216-.928 3.216-2.496 0-1.84-1.424-2.144-2.928-2.464-1.152-.24-1.824-.48-1.824-1.328 0-.624.384-1.152 1.584-1.152 1.2 0 1.52.576 1.712 1.52l1.312-.288c-.256-1.456-1.056-2.384-3.008-2.384-1.664 0-3.04.816-3.04 2.48 0 1.721 1.299 2.13 2.536 2.393l.284.059.14.028c1.12.224 1.792.384 1.792 1.296 0 .88-.72 1.184-1.712 1.184-1.456 0-1.824-.704-2.048-1.584l-1.296.352c.256 1.648 1.392 2.384 3.28 2.384zm7.216 0c1.152 0 2-.368 2.64-1.008.08.528.448.976 1.264.976.4 0 .816-.096 1.136-.256l-.064-.912c-.208.064-.352.096-.496.096-.416 0-.496-.192-.496-.64v-4.016c0-2.048-.912-2.832-2.944-2.832-1.904 0-2.896.72-3.152 2.256l1.28.24c.176-.912.608-1.36 1.744-1.36 1.344 0 1.632.64 1.632 1.68v.8c-.224-.016-.464-.032-.72-.032-2.32 0-4.256.608-4.256 2.8 0 .8.352 2.208 2.432 2.208zm.448-1.136c-1.12 0-1.376-.608-1.376-1.312 0-1.408 1.52-1.52 2.656-1.52.304 0 .608.016.832.048v1.856c-.448.48-1.264.928-2.112.928zm7.696.944v-6.128c.432-.384 1.456-.992 2.4-.992 1.12 0 1.536.624 1.536 1.76V192h1.456v-5.584c0-1.856-.768-2.816-2.528-2.816-1.136 0-2.16.512-2.96 1.152l-.08-.976h-1.28V192h1.456zm10.496.192c1.184 0 2.016-.448 2.72-1.088l.016.016.112.88h1.216v-12.08h-1.424v4.448c-.576-.464-1.36-.768-2.304-.768-1.824 0-3.472 1.168-3.472 4.416 0 2.992 1.264 4.176 3.136 4.176zm.432-1.216c-1.44 0-2.064-.96-2.064-2.96 0-1.904.576-3.168 2.16-3.168.944 0 1.712.432 2.096.72v4.4c-.512.512-1.344 1.008-2.192 1.008zm8.768 1.216c2 0 3.216-.928 3.216-2.496 0-1.84-1.424-2.144-2.928-2.464-1.152-.24-1.824-.48-1.824-1.328 0-.624.384-1.152 1.584-1.152 1.2 0 1.52.576 1.712 1.52l1.312-.288c-.256-1.456-1.056-2.384-3.008-2.384-1.664 0-3.04.816-3.04 2.48 0 1.721 1.299 2.13 2.536 2.393l.284.059.14.028c1.12.224 1.792.384 1.792 1.296 0 .88-.72 1.184-1.712 1.184-1.456 0-1.824-.704-2.048-1.584l-1.296.352c.256 1.648 1.392 2.384 3.28 2.384zm11.984 0c2.768 0 3.888-1.76 3.888-4.464 0-2.448-1.072-4.128-3.68-4.128-2.624 0-4 1.664-4 4.32 0 2.432.944 4.272 3.792 4.272zm.08-1.168c-1.6 0-2.368-.992-2.368-3.168 0-2.192.976-3.056 2.432-3.056 1.424 0 2.224.752 2.224 3.024 0 2.336-.864 3.2-2.288 3.2zm7.52.976v-7.056h2.288v-1.168h-2.288V182.4c0-1.152.528-1.456 1.28-1.456.384 0 .832.096 1.152.208l.064-1.12c-.272-.128-.832-.272-1.504-.272-1.568 0-2.448.88-2.448 2.688v1.328h-1.216v1.168h1.216V192h1.456zm7.248 3.568c1.296 0 2.048-.624 2.704-2.368l3.552-9.424h-1.488l-2.256 6.528h-.016l-2.176-6.528h-1.616l3.056 8.32-.384 1.008c-.368.976-.88 1.28-1.472 1.28-.432 0-1.008-.144-1.312-.256l-.176 1.136c.32.144.976.304 1.584.304zm10.912-3.376c1.648 0 2.928-.784 3.264-2.384l-1.28-.288c-.224.928-.768 1.456-1.936 1.456-1.312 0-2.24-.656-2.304-2.752h5.536c.048-.384.064-.752.064-1.072 0-2.032-.96-3.552-3.264-3.552-2.112 0-3.872 1.296-3.872 4.304 0 2.256.88 4.288 3.792 4.288zm1.84-5.12h-4.08c.08-1.632 1.136-2.288 2.224-2.288 1.296 0 1.856.816 1.856 2.288zm5.648 5.12c1.152 0 2-.368 2.64-1.008.08.528.448.976 1.264.976.4 0 .816-.096 1.136-.256l-.064-.912c-.208.064-.352.096-.496.096-.416 0-.496-.192-.496-.64v-4.016c0-2.048-.912-2.832-2.944-2.832-1.904 0-2.896.72-3.152 2.256l1.28.24c.176-.912.608-1.36 1.744-1.36 1.344 0 1.632.64 1.632 1.68v.8c-.224-.016-.464-.032-.72-.032-2.32 0-4.256.608-4.256 2.8 0 .8.352 2.208 2.432 2.208zm.448-1.136c-1.12 0-1.376-.608-1.376-1.312 0-1.408 1.52-1.52 2.656-1.52.304 0 .608.016.832.048v1.856c-.448.48-1.264.928-2.112.928zm7.696.944v-5.984c.672-.624 1.888-1.04 2.912-.896v-1.504c-.144-.016-.208-.016-.304-.016-1.152 0-2.016.384-2.736 1.36l-.112-1.184h-1.216V192h1.456zm6.976.192c2 0 3.216-.928 3.216-2.496 0-1.84-1.424-2.144-2.928-2.464-1.152-.24-1.824-.48-1.824-1.328 0-.624.384-1.152 1.584-1.152 1.2 0 1.52.576 1.712 1.52l1.312-.288c-.256-1.456-1.056-2.384-3.008-2.384-1.664 0-3.04.816-3.04 2.48 0 1.721 1.299 2.13 2.536 2.393l.284.059.14.028c1.12.224 1.792.384 1.792 1.296 0 .88-.72 1.184-1.712 1.184-1.456 0-1.824-.704-2.048-1.584l-1.296.352c.256 1.648 1.392 2.384 3.28 2.384zm5.696 0c.704 0 1.088-.368 1.088-1.072 0-.704-.384-1.072-1.088-1.072-.704 0-1.088.368-1.088 1.072 0 .72.384 1.072 1.088 1.072zm8.336-.192v-11.584h-1.472V192h1.472zm4.288 0v-6.128c.432-.384 1.456-.992 2.4-.992 1.12 0 1.536.624 1.536 1.76V192h1.456v-5.584c0-1.856-.768-2.816-2.528-2.816-1.136 0-2.16.512-2.96 1.152l-.08-.976h-1.28V192h1.456z" mask="url(#et06lj904b)"/>
                <path fill="#262626" fill-rule="nonzero" d="M44.448 41l3.664-11.584h-1.904l-2.944 9.776h-.048l-3.04-9.776H38.08L41.92 41h2.528zm8.336.192c2.848 0 4.032-1.76 4.032-4.48 0-2.448-1.088-4.16-3.824-4.16-2.736 0-4.112 1.696-4.112 4.352 0 2.464.992 4.288 3.904 4.288zm.096-1.424c-1.44 0-2.08-.912-2.08-2.928s.816-2.8 2.128-2.8c1.296 0 1.968.704 1.968 2.768 0 2.128-.752 2.96-2.016 2.96zm8.24 1.424c.688 0 1.376-.176 1.84-.384l-.336-1.328c-.32.112-.688.208-1.024.208-.896 0-1.104-.432-1.104-1.248v-9.52h-1.84v9.776c0 1.76.832 2.496 2.464 2.496zm6.544 0c1.776 0 3.248-.848 3.52-2.832l-1.6-.32c-.192 1.152-.8 1.648-1.824 1.648-1.152 0-2.048-.688-2.048-2.928 0-2.192 1.024-2.736 2.096-2.736s1.52.704 1.648 1.792l1.696-.24c-.144-1.952-1.44-3.024-3.264-3.024-2.592 0-4.096 1.552-4.096 4.416 0 2.464 1.136 4.224 3.872 4.224zm7.296 0c1.152 0 2.064-.4 2.624-1.008.144.64.528.976 1.392.976.448 0 .976-.112 1.296-.272l-.064-1.088c-.208.064-.352.096-.496.096-.416 0-.496-.192-.496-.64v-3.824c0-2.064-.992-2.88-3.104-2.88-2.032 0-3.024.832-3.28 2.384l1.616.288c.176-.864.512-1.28 1.52-1.28 1.216 0 1.44.576 1.44 1.584v.624c-.224-.016-.464-.032-.848-.032-2.224 0-4.048.704-4.048 2.848 0 .816.368 2.224 2.448 2.224zm.656-1.376c-.976 0-1.232-.528-1.232-1.104 0-1.216 1.344-1.328 2.272-1.328.416 0 .608.016.768.032v1.632c-.368.384-1.056.768-1.808.768zM83.536 41v-6.032c.4-.368 1.264-.88 2.096-.88.976 0 1.36.544 1.36 1.584V41h1.84v-5.632c0-1.872-.768-2.816-2.56-2.816-1.136 0-2.128.448-2.864 1.04l-.08-.864h-1.632V41h1.84zm10.944.192c2.848 0 4.032-1.76 4.032-4.48 0-2.448-1.088-4.16-3.824-4.16-2.736 0-4.112 1.696-4.112 4.352 0 2.464.992 4.288 3.904 4.288zm.096-1.424c-1.44 0-2.08-.912-2.08-2.928s.816-2.8 2.128-2.8c1.296 0 1.968.704 1.968 2.768 0 2.128-.752 2.96-2.016 2.96zm9.216 1.424c1.792 0 3.056-.896 3.376-2.464l-1.568-.384c-.192.848-.64 1.344-1.696 1.344-1.2 0-2.032-.624-2.08-2.368h5.36c.032-.384.048-.768.048-1.104 0-2.144-.992-3.664-3.392-3.664-2.16 0-3.952 1.328-3.952 4.32 0 2.272.928 4.32 3.904 4.32zm1.536-5.152h-3.472c.08-1.472.944-2.032 1.872-2.032 1.104 0 1.6.624 1.6 2.032zm6.528 5.152c2.032 0 3.408-.912 3.408-2.624 0-1.888-1.52-2.224-2.944-2.48-1.088-.192-1.792-.416-1.792-1.184 0-.544.416-.976 1.424-.976 1.072 0 1.376.576 1.568 1.392l1.6-.416c-.32-1.44-1.216-2.352-3.136-2.352-1.728 0-3.184.832-3.184 2.56 0 1.968 1.584 2.272 2.944 2.528 1.056.192 1.728.352 1.728 1.184 0 .704-.64.992-1.552.992-1.328 0-1.664-.688-1.872-1.472l-1.568.512c.256 1.536 1.392 2.336 3.376 2.336zm12.624 0c1.936 0 3.456-1.296 3.456-4.528 0-3.024-1.328-4.112-3.024-4.112-1.12 0-1.968.336-2.672.976V28.92h-1.808V41H122l.112-.688.032-.016c.544.496 1.328.896 2.336.896zm-.352-1.536c-.816 0-1.52-.448-1.856-.704v-4.016c.416-.4 1.216-.88 1.984-.88 1.28 0 1.776.928 1.776 2.64 0 1.888-.56 2.96-1.904 2.96zM131.632 41v-5.744c.688-.608 1.856-.976 2.896-.848v-1.84c-.176-.016-.24-.016-.336-.016-1.216 0-2.048.48-2.704 1.408l-.144-1.232h-1.552V41h1.84zm5.136-9.664c.768 0 1.2-.432 1.2-1.216 0-.768-.432-1.2-1.2-1.2-.752 0-1.2.432-1.2 1.2 0 .784.448 1.216 1.2 1.216zM137.68 41v-8.272h-1.84V41h1.84zm4.08 0v-6.032c.4-.368 1.264-.88 2.096-.88.976 0 1.36.544 1.36 1.584V41h1.84v-5.632c0-1.872-.768-2.816-2.56-2.816-1.136 0-2.128.448-2.864 1.04l-.08-.864h-1.632V41h1.84zm10.608 3.616c2.208 0 4.288-.672 4.288-2.832 0-1.52-1.024-2.048-2.752-2.16l-2.432-.144c-.704-.048-.848-.256-.848-.544 0-.24.192-.496.4-.656.432.128.896.176 1.44.176 2 0 3.536-1.072 3.536-2.944 0-.672-.256-1.408-.736-1.904.432-.128 1.024-.192 1.536-.16v-1.232c-.24-.08-.384-.096-.656-.096-.608 0-1.088.416-1.376 1.088-.56-.48-1.36-.656-2.32-.656-2.224 0-3.568 1.264-3.568 3.056 0 1.056.48 1.872 1.216 2.288-.608.464-1.168.944-1.168 1.696 0 .64.368 1.04.976 1.248v.048c-.768.256-1.376.8-1.376 1.664 0 1.04.768 2.064 3.84 2.064zm.112-7.568c-1.28 0-1.808-.592-1.808-1.552 0-1.072.784-1.52 1.824-1.52 1.104 0 1.776.512 1.776 1.552 0 .944-.736 1.52-1.792 1.52zm-.096 6.192c-1.568 0-2.144-.336-2.144-1.008 0-.448.256-.816.688-1.12l2.608.144c1.008.048 1.232.384 1.232.896 0 .752-.784 1.088-2.384 1.088zM163.408 41v-6.032c.4-.368 1.264-.88 2.096-.88.976 0 1.36.544 1.36 1.584V41h1.84v-5.632c0-1.872-.768-2.816-2.56-2.816-1.136 0-2.128.448-2.864 1.04l-.08-.864h-1.632V41h1.84zm10.944.192c1.792 0 3.056-.896 3.376-2.464l-1.568-.384c-.192.848-.64 1.344-1.696 1.344-1.2 0-2.032-.624-2.08-2.368h5.36c.032-.384.048-.768.048-1.104 0-2.144-.992-3.664-3.392-3.664-2.16 0-3.952 1.328-3.952 4.32 0 2.272.928 4.32 3.904 4.32zm1.536-5.152h-3.472c.08-1.472.944-2.032 1.872-2.032 1.104 0 1.6.624 1.6 2.032zm7.376 4.96l1.488-6.064h.032L186.336 41h2.112l2.528-8.272h-1.792l-1.76 6.336h-.016l-1.664-6.336h-1.856l-1.664 6.368h-.016l-1.808-6.368h-1.856L181.072 41h2.192zm14.8.192c.688 0 1.376-.176 1.84-.384l-.336-1.328c-.32.112-.688.208-1.024.208-.896 0-1.104-.432-1.104-1.248v-9.52h-1.84v9.776c0 1.76.832 2.496 2.464 2.496zm4.08-9.856c.768 0 1.2-.432 1.2-1.216 0-.768-.432-1.2-1.2-1.2-.752 0-1.2.432-1.2 1.2 0 .784.448 1.216 1.2 1.216zm.912 9.664v-8.272h-1.84V41h1.84zm4.32 0v-6.912h2.256v-1.36h-2.256v-1.136c0-1.152.528-1.424 1.28-1.424.384 0 .816.096 1.136.208l.064-1.328c-.272-.128-.88-.288-1.632-.288-1.664 0-2.688.88-2.688 2.784v1.184h-1.184v1.36h1.184V41h1.84zm6.848.192c1.792 0 3.056-.896 3.376-2.464l-1.568-.384c-.192.848-.64 1.344-1.696 1.344-1.2 0-2.032-.624-2.08-2.368h5.36c.032-.384.048-.768.048-1.104 0-2.144-.992-3.664-3.392-3.664-2.16 0-3.952 1.328-3.952 4.32 0 2.272.928 4.32 3.904 4.32zm1.536-5.152h-3.472c.08-1.472.944-2.032 1.872-2.032 1.104 0 1.6.624 1.6 2.032z" mask="url(#et06lj904b)"/>
                <path fill="url(#5520x84jbc)" d="M17 149H285V204H17z" mask="url(#et06lj904b)"/>
                <path fill="#E1F3F1" d="M102 103h150v24h3v24h-6v24h-9v24H37v-72h65v-24z" style="mix-blend-mode:multiply" mask="url(#et06lj904b)"/>
                <g mask="url(#et06lj904b)">
                    <g>
                        <path d="M0 0H32V32H0z" transform="translate(150.000000, 120.000000)"/>
                        <g>
                            <path fill="#FFF" d="M4.34 17.854c-.427-.539-.944-1.64-1.865-2.976-.522-.756-1.817-2.18-2.202-2.903-.335-.639-.299-.925-.22-1.455.142-.942 1.108-1.675 2.138-1.576.779.073 1.439.588 2.033 1.074.358.292.8.86 1.065 1.182.244.294.304.415.565.763.345.46.453.689.321.182-.106-.744-.28-2.015-.532-3.138-.192-.852-.239-.986-.422-1.64-.193-.696-.292-1.183-.474-1.921-.126-.522-.352-1.589-.414-2.189-.085-.82-.13-2.158.396-2.773.413-.482 1.36-.627 1.946-.33.768.388 1.204 1.504 1.404 1.95.358.8.58 1.726.774 2.941.246 1.547.699 3.693.714 4.145.036-.554-.102-1.72-.006-2.25.087-.482.492-1.041.999-1.193.429-.127.931-.174 1.374-.082.47.096.964.432 1.149.748.543.936.553 2.849.576 2.747.129-.564.106-1.844.426-2.376.21-.351.745-.668 1.03-.719.441-.078.983-.102 1.446-.012.374.074.88.518 1.016.73.327.517.513 1.976.568 2.488.023.211.111-.588.44-1.104.609-.959 2.764-1.145 2.847.958.037.981.03.936.03 1.596 0 .776-.018 1.242-.06 1.803-.047.6-.176 1.956-.363 2.613-.13.452-.557 1.467-.978 2.076 0 0-1.611 1.875-1.787 2.72-.177.843-.118.849-.153 1.447-.034.597.182 1.383.182 1.383s-1.203.156-1.851.053c-.587-.095-1.313-1.262-1.5-1.619-.258-.492-.809-.397-1.023-.034-.338.574-1.064 1.605-1.577 1.67-1.002.125-3.08.046-4.708.03 0 0 .277-1.517-.34-2.038-.458-.388-1.246-1.176-1.717-1.59L4.34 17.854z" transform="translate(150.000000, 120.000000) translate(4.657905, 4.716052)"/>
                            <path stroke="#000" stroke-linecap="round" stroke-linejoin="round" stroke-width=".75" d="M4.34 17.854c-.427-.539-.944-1.64-1.865-2.976-.522-.756-1.817-2.18-2.202-2.903-.335-.639-.299-.925-.22-1.455.142-.942 1.108-1.675 2.138-1.576.779.073 1.439.588 2.033 1.074.358.292.8.86 1.065 1.182.244.294.304.415.565.763.345.46.453.689.321.182-.106-.744-.28-2.015-.532-3.138-.192-.852-.239-.986-.422-1.64-.193-.696-.292-1.183-.474-1.921-.126-.522-.352-1.589-.414-2.189-.085-.82-.13-2.158.396-2.773.413-.482 1.36-.627 1.946-.33.768.388 1.204 1.504 1.404 1.95.358.8.58 1.726.774 2.941.246 1.547.699 3.693.714 4.145.036-.554-.102-1.72-.006-2.25.087-.482.492-1.041.999-1.193.429-.127.931-.174 1.374-.082.47.096.964.432 1.149.748.543.936.553 2.849.576 2.747.129-.564.106-1.844.426-2.376.21-.351.745-.668 1.03-.719.441-.078.983-.102 1.446-.012.374.074.88.518 1.016.73.327.517.513 1.976.568 2.488.023.211.111-.588.44-1.104.609-.959 2.764-1.145 2.847.958.037.981.03.936.03 1.596 0 .776-.018 1.242-.06 1.803-.047.6-.176 1.956-.363 2.613-.13.452-.557 1.467-.978 2.076 0 0-1.611 1.875-1.787 2.72-.177.843-.118.849-.153 1.447-.034.597.182 1.383.182 1.383s-1.203.156-1.851.053c-.587-.095-1.313-1.262-1.5-1.619-.258-.492-.809-.397-1.023-.034-.338.574-1.064 1.605-1.577 1.67-1.002.125-3.08.046-4.708.03 0 0 .277-1.517-.34-2.038-.458-.388-1.246-1.176-1.717-1.59L4.34 17.854h0z" transform="translate(150.000000, 120.000000) translate(4.657905, 4.716052)"/>
                            <path stroke="#000" stroke-linecap="round" stroke-width=".75" d="M16.692 18.386L16.692 13.197M13.668 18.403L13.644 13.194M10.674 13.241L10.706 18.38" transform="translate(150.000000, 120.000000) translate(4.657905, 4.716052)"/>
                        </g>
                    </g>
                </g>
            </g>
        </g>
    </g>
</svg>
