<svg xmlns="http://www.w3.org/2000/svg" xmlns:xlink="http://www.w3.org/1999/xlink" width="580" height="270" viewBox="0 0 580 270">
    <defs>
        <path id="dsnp6xr7xa" d="M0 270L580 270 580 0 0 0z"/>
    </defs>
    <g fill="none" fill-rule="evenodd">
        <g>
            <g transform="translate(-515.000000, -222.000000) translate(515.000000, 222.000000)">
                <path fill="#EFD358" d="M347.147 168.582l-94.55-94.55c-1.63-1.633-4.276-1.634-5.909-.003-.458.459-.805 1.018-1.01 1.633l-47.273 141.831c-.73 2.19.454 4.556 2.643 5.285.425.142.87.214 1.319.214.448 0 .895-.073 1.32-.217l141.83-47.273c2.19-.731 3.372-3.098 2.64-5.287-.204-.615-.55-1.174-1.01-1.633"/>
                <path fill="#E2AC4B" d="M246.686 74.033c8.159-8.159 37.263 7.716 65.004 35.457 27.742 27.742 43.617 56.845 35.456 65.004-8.159 8.16-37.262-7.715-65.003-35.456-27.742-27.742-43.617-56.846-35.457-65.005"/>
                <path fill="#51BCAB" d="M319.367 135.241c-2.308-.01-4.169-1.89-4.158-4.198.003-.61.138-1.21.397-1.76 10.514-22.353 36.793-30.087 63.892-18.805 2.13.89 3.137 3.336 2.248 5.466-.889 2.13-3.336 3.137-5.466 2.248-22.777-9.485-44.602-3.46-53.11 14.625-.686 1.482-2.17 2.428-3.803 2.424"/>
                <path fill="#0B9D88" d="M344.44 55.847c6.923 0 12.536 5.613 12.536 12.536 0 6.924-5.613 12.536-12.536 12.536-6.925 0-12.536-5.612-12.536-12.536 0-6.923 5.611-12.536 12.536-12.536"/>
                <path fill="#2BAC9A" d="M361.154 185.385c4.615 0 8.356 3.74 8.356 8.357 0 4.616-3.74 8.357-8.356 8.357s-8.357-3.741-8.357-8.357 3.741-8.357 8.357-8.357"/>
                <path fill="#06806B" d="M433.398 142.395c-3.364 0-6.102 2.737-6.102 6.102 0 3.364 2.738 6.101 6.102 6.101 3.364 0 6.102-2.737 6.102-6.1 0-3.365-2.738-6.102-6.102-6.102m0 13.203c-3.916 0-7.102-3.185-7.102-7.101s3.186-7.102 7.102-7.102c3.916 0 7.102 3.186 7.102 7.102 0 3.916-3.186 7.1-7.102 7.1M278.398 248.395c-3.364 0-6.102 2.737-6.102 6.102 0 3.364 2.738 6.101 6.102 6.101 3.364 0 6.102-2.737 6.102-6.1 0-3.365-2.738-6.102-6.102-6.102m0 13.203c-3.916 0-7.102-3.185-7.102-7.101s3.186-7.102 7.102-7.102c3.916 0 7.102 3.186 7.102 7.102 0 3.916-3.186 7.1-7.102 7.1M232.398 10.396c-3.364 0-6.102 2.736-6.102 6.101 0 3.364 2.738 6.102 6.102 6.102 3.364 0 6.102-2.738 6.102-6.102 0-3.364-2.738-6.101-6.102-6.101m0 13.203c-3.916 0-7.102-3.186-7.102-7.102 0-3.915 3.186-7.101 7.102-7.101 3.916 0 7.102 3.185 7.102 7.101s-3.186 7.102-7.102 7.102M174.398 169.395c-3.364 0-6.102 2.737-6.102 6.102 0 3.364 2.738 6.101 6.102 6.101 3.364 0 6.102-2.737 6.102-6.1 0-3.365-2.738-6.102-6.102-6.102m0 13.203c-3.916 0-7.102-3.185-7.102-7.101s3.186-7.102 7.102-7.102c3.916 0 7.102 3.186 7.102 7.102 0 3.916-3.186 7.1-7.102 7.1"/>
                <path fill="#026F5D" d="M306.832 97.634c4.615 0 8.357 3.74 8.357 8.356 0 4.617-3.742 8.358-8.357 8.358-4.616 0-8.357-3.741-8.357-8.358 0-4.615 3.741-8.356 8.357-8.356"/>
                <path fill="#83CFC3" d="M367.422 135.241c3.462 0 6.268 2.806 6.268 6.268 0 3.461-2.806 6.268-6.268 6.268-3.462 0-6.268-2.807-6.268-6.268 0-3.462 2.806-6.268 6.268-6.268M262.956 43.312c3.462 0 6.268 2.806 6.268 6.268 0 3.46-2.806 6.267-6.268 6.267-3.46 0-6.268-2.806-6.268-6.267 0-3.462 2.807-6.268 6.268-6.268"/>
                <path fill="#06806B" d="M277.582 110.169c-2.308 0-4.18-1.87-4.18-4.18 0-1.313.62-2.552 1.673-3.341 19.226-14.315 25.666-40.217 15.38-61.87-.878-2.132.139-4.575 2.273-5.455 2.09-.861 4.488.098 5.407 2.163 11.89 25.189 4.334 55.267-18.046 71.848-.723.544-1.603.837-2.507.835M551.03 201.498c-.208 0-.419.04-.623.124-.4.165-.713.477-.88.877-.167.399-.168.841-.003 1.241 5.298 11.151 1.95 24.622-7.974 32.011-.406.303-.648.788-.648 1.296 0 .894.728 1.622 1.622 1.622h.005c.353 0 .687-.111.968-.323 11.14-8.253 14.93-23.339 9.013-35.873-.273-.614-.86-.975-1.48-.975m-8.502 38.171h-.005c-1.445-.001-2.62-1.177-2.62-2.622 0-.821.392-1.606 1.05-2.098 9.542-7.104 12.762-20.059 7.658-30.804-.56-1.361.078-2.897 1.415-3.447 1.322-.546 2.812.052 3.394 1.357 6.114 12.955 2.194 28.558-9.325 37.091-.446.336-1.003.523-1.567.523M109.055 17.418c7.54 0 14.97 3.262 20.045 9.36.326.388.822.595 1.33.578.433-.024.831-.214 1.12-.538.29-.322.436-.737.412-1.17v-.001c-.018-.347-.152-.686-.376-.954-8.844-10.673-24.113-13.641-36.309-7.056-.796.408-1.114 1.349-.734 2.147.386.808 1.355 1.149 2.162.766 3.89-2.113 8.137-3.132 12.35-3.132m21.29 10.939c-.77 0-1.514-.343-2.012-.937-7.61-9.144-20.72-11.659-31.174-5.98-1.329.633-2.896.08-3.519-1.226-.614-1.289-.1-2.811 1.171-3.463 12.605-6.805 28.398-3.737 37.543 7.302.361.429.577.978.606 1.541h.001c.037.699-.199 1.372-.667 1.892-.468.522-1.11.829-1.81.868-.046.002-.093.003-.139.003"/>
                <path fill="#51BCAB" d="M207.263 88.558c-1.108 0-2.17-.44-2.954-1.225-8.3-8.016-8.53-21.243-.514-29.543 8.017-8.3 21.243-8.53 29.543-.513.175.169.345.34.514.513 1.603 1.66 1.557 4.306-.103 5.909-1.619 1.564-4.187 1.564-5.806 0-4.96-4.734-12.765-4.734-17.725 0-4.894 4.895-4.894 12.83 0 17.726 1.631 1.632 1.631 4.278 0 5.909-.785.784-1.847 1.224-2.955 1.224"/>
                <path fill="#06806B" d="M535.059 18.648c1.7 0 3.42.494 4.927 1.526 3.894 2.803 4.89 8.134 2.279 12.145-.672 1.018-.42 2.367.573 3.073.49.347 1.086.485 1.677.384.593-.1 1.11-.425 1.458-.915.09-.125.176-.252.26-.38 4.02-6.094 2.333-14.323-3.762-18.345-2.951-1.945-6.485-2.628-9.951-1.917-3.465.71-6.445 2.728-8.394 5.68-.343.502-.47 1.1-.36 1.69.11.59.444 1.103.939 1.443 1.024.698 2.425.438 3.126-.585 1.693-2.47 4.438-3.8 7.228-3.8m9.077 18.16c-.65 0-1.307-.195-1.878-.6-1.433-1.02-1.798-2.968-.83-4.437 2.319-3.56 1.434-8.294-2.016-10.777-3.513-2.405-8.341-1.502-10.756 2.019-1.012 1.477-3.037 1.857-4.515.843-.717-.49-1.198-1.229-1.357-2.082-.16-.854.022-1.718.513-2.433 2.089-3.168 5.295-5.338 9.022-6.1 3.728-.767 7.528-.031 10.703 2.063 6.555 4.323 8.37 13.174 4.046 19.73-.091.139-.185.274-.28.41-.632.89-1.635 1.364-2.652 1.364M159.693 125.87c-2.958 0-5.812.984-8.17 2.844-2.78 2.19-4.538 5.33-4.954 8.842-.416 3.512.56 6.976 2.75 9.754.369.485.896.792 1.492.874.584.081 1.192-.08 1.663-.438.987-.75 1.179-2.163.429-3.15-2.917-3.838-2.17-9.334 1.668-12.253 3.887-2.815 9.26-2.082 12.246 1.66.756.958 2.115 1.144 3.097.423 1-.733 1.217-2.143.484-3.143-.091-.123-.184-.245-.28-.366-2.188-2.778-5.328-4.537-8.841-4.953-.53-.063-1.06-.094-1.584-.094m-8.586 23.334c-.144 0-.288-.01-.432-.029-.86-.118-1.622-.562-2.147-1.252-2.35-2.982-3.4-6.707-2.952-10.485.448-3.778 2.34-7.155 5.327-9.509 2.989-2.356 6.717-3.403 10.492-2.958 3.777.447 7.155 2.34 9.509 5.327.102.13.202.26.299.392 1.06 1.447.746 3.484-.698 4.542-1.418 1.04-3.383.773-4.472-.608-2.65-3.32-7.423-3.97-10.865-1.478-3.39 2.578-4.053 7.446-1.47 10.844 1.085 1.427.807 3.47-.62 4.553-.565.43-1.265.661-1.971.661M20.031 240.093c4.141 0 7.83 2.96 8.6 7.176.75 4.739-2.336 9.2-7.023 10.168-1.197.24-1.977 1.369-1.78 2.57.201 1.223 1.358 2.048 2.584 1.855.15-.026.301-.053.452-.083 7.16-1.435 11.817-8.426 10.383-15.585-.695-3.47-2.699-6.458-5.643-8.42-2.943-1.96-6.474-2.66-9.943-1.963-.599.109-1.112.44-1.454.934-.342.494-.47 1.09-.363 1.68.223 1.22 1.392 2.029 2.616 1.81.527-.095 1.053-.142 1.571-.142m2.016 22.798c-1.563 0-2.944-1.132-3.205-2.722-.286-1.735.841-3.366 2.566-3.712 4.161-.86 6.901-4.821 6.236-9.02-.765-4.19-4.812-6.99-9.005-6.217-1.762.316-3.457-.853-3.778-2.614-.156-.854.03-1.716.524-2.43.493-.713 1.235-1.191 2.088-1.348 3.721-.744 7.52.003 10.685 2.114 3.166 2.109 5.322 5.325 6.07 9.054 1.542 7.7-3.468 15.22-11.167 16.763-.16.032-.323.062-.485.089-.178.029-.355.043-.529.043"/>
                <mask id="fwopwdfheb" fill="#fff">
                    <use xlink:href="#dsnp6xr7xa"/>
                </mask>
                <path fill="#06806B" d="M554.549 148.89L555.549 148.89 555.549 134.987 554.549 134.987z" mask="url(#fwopwdfheb)"/>
                <path fill="#06806B" d="M548.097 142.437L562 142.437 562 141.437 548.097 141.437zM41.148 154.584L36.019 141.661 36.949 141.292 42.078 154.215z" mask="url(#fwopwdfheb)"/>
                <path fill="#06806B" d="M32.772 150.967L32.403 150.037 45.325 144.908 45.694 145.838zM489.726 248.402L488.781 248.076 492.843 236.266 493.788 236.592z" mask="url(#fwopwdfheb)"/>
                <path fill="#06806B" d="M496.646 244.708L485.596 240.907 485.923 239.962 496.971 243.763zM441.726 96.402L440.781 96.076 444.843 84.266 445.788 84.592z" mask="url(#fwopwdfheb)"/>
                <path fill="#06806B" d="M448.646 92.708L437.596 88.907 437.923 87.962 448.971 91.763zM39.637 65.839L30.27 57.58 30.931 56.83 40.298 65.089z" mask="url(#fwopwdfheb)"/>
                <path fill="#06806B" d="M31.795 66.048L31.045 65.386 38.772 56.622 39.522 57.284zM120.918 234.898L119.974 234.571 123.317 224.851 124.263 225.177z" mask="url(#fwopwdfheb)"/>
                <path fill="#06806B" d="M126.502 231.911L117.407 228.782 117.732 227.837 126.827 230.966zM339.866 254.224L338.921 253.898 342.962 242.151 343.907 242.477z" mask="url(#fwopwdfheb)"/>
                <path fill="#06806B" d="M346.746 250.55L335.756 246.77 336.082 245.824 347.072 249.605zM497.984 54.723L498.984 54.723 498.984 40.89 497.984 40.89z" mask="url(#fwopwdfheb)"/>
                <path fill="#06806B" d="M491.534 48.271L505.436 48.271 505.436 47.271 491.534 47.271zM251.984 235.723L252.984 235.723 252.984 221.89 251.984 221.89z" mask="url(#fwopwdfheb)"/>
                <path fill="#06806B" d="M245.533 229.271L259.436 229.271 259.436 228.271 245.533 228.271zM329.139 31.214L322.936 18.849 323.83 18.4 330.034 30.765z" mask="url(#fwopwdfheb)"/>
                <path fill="#06806B" d="M320.479 28.339L320.031 27.444 332.459 21.211 332.908 22.106zM561.915 91.013c-89.486-10.326-159.457-69.04-160.153-69.632l.648-.762c.693.59 70.442 59.11 159.62 69.4l-.115.994z" mask="url(#fwopwdfheb)"/>
                <path fill="#06806B" d="M422.941 81.066c-1.062 0-2.06-.413-2.81-1.163-.752-.75-1.166-1.749-1.167-2.812V33.992h1v43.1c0 .794.311 1.541.873 2.103.562.561 1.31.871 2.103.871h.002c.59 0 1.158-.173 1.646-.498l33.716-22.475.555.832L425.143 80.4c-.653.435-1.414.665-2.2.666h-.002zM473.799 108.636c-.775 0-1.534-.228-2.194-.667-.884-.59-1.487-1.486-1.696-2.527l-9.322-46.577.98-.195 9.323 46.575c.156.78.607 1.45 1.268 1.89.662.44 1.454.6 2.235.44.526-.104 1.014-.35 1.413-.711l31.74-28.85.672.74-31.74 28.85c-.533.483-1.186.812-1.89.953-.262.053-.526.079-.79.079M522.39 122.206c-.775 0-1.534-.228-2.194-.668-.884-.588-1.487-1.485-1.696-2.526l-7.896-39.487.98-.195 7.897 39.485c.156.78.607 1.451 1.268 1.891.662.44 1.457.598 2.235.44.575-.115 1.098-.394 1.514-.808l30.955-30.976.708.707-30.957 30.977c-.556.554-1.255.928-2.024 1.081-.263.053-.527.08-.79.08M16.05 91.02l-.114-.993c89.187-10.291 158.925-68.81 159.62-69.4l.646.762c-.696.591-70.666 59.306-160.152 69.632" mask="url(#fwopwdfheb)"/>
                <path fill="#06806B" d="M155.024 81.073h-.002c-.787 0-1.548-.23-2.2-.666l-33.716-22.474.555-.832 33.715 22.474c.488.326 1.058.498 1.646.498h.002c1.64 0 2.975-1.334 2.976-2.974V34h1v43.1c0 2.191-1.785 3.973-3.976 3.973M104.16 108.643c-.26 0-.522-.025-.785-.078-.705-.143-1.357-.472-1.887-.953l-31.742-28.85.673-.74 31.741 28.85c.396.36.885.606 1.413.712 1.604.328 3.18-.723 3.503-2.332l9.322-46.574.98.195-9.322 46.576c-.379 1.886-2.043 3.194-3.897 3.194M55.575 122.214c-.263 0-.527-.026-.79-.08-.77-.153-1.469-.527-2.023-1.08L21.805 90.078l.707-.707 30.956 30.977c.414.412.938.69 1.513.807.778.159 1.573 0 2.235-.44.661-.44 1.112-1.112 1.268-1.893l7.897-39.483.981.195-7.897 39.485c-.209 1.042-.81 1.94-1.695 2.528-.66.44-1.419.668-2.195.668M73.86 199.44l11.682 34.81c.217.644.661 1.149 1.25 1.417.576.262 1.23.27 1.834.023.421-.172.795-.462 1.083-.837l25.142-32.803c-13.815.29-27.51-.582-40.99-2.61m13.864 37.433c-.46 0-.918-.1-1.348-.296-.844-.386-1.477-1.099-1.783-2.008l-11.846-35.3c-15.287-2.376-30.3-6.237-44.936-11.567l.342-.94c28.091 10.232 57.602 15.028 87.716 14.264l1.047-.026-26.415 34.462c-.395.516-.913.915-1.496 1.154-.417.17-.85.256-1.28.256" mask="url(#fwopwdfheb)"/>
                <path fill="#06806B" d="M46.097 228.602c-.761 0-1.49-.263-2.082-.758-.524-.44-.903-1.03-1.096-1.708l-10.512-36.97.962-.272 10.512 36.969c.138.484.406.904.776 1.214.476.397 1.082.582 1.698.51.677-.074 1.29-.43 1.73-1.003l21.83-28.497.795.608-21.831 28.498c-.607.79-1.464 1.284-2.414 1.388-.123.014-.246.02-.368.02M439.016 202.05l25.143 32.805c.287.374.66.663 1.08.835.608.249 1.259.24 1.836-.023.589-.268 1.033-.772 1.25-1.417l11.68-34.811c-13.481 2.03-27.181 2.897-40.99 2.612m27.126 34.82c-.43 0-.863-.085-1.28-.256-.584-.24-1.101-.638-1.495-1.152L436.95 201l1.045.027c30.124.764 59.626-4.034 87.716-14.265l.342.939c-14.633 5.33-29.65 9.193-44.935 11.568l-11.846 35.3c-.306.91-.94 1.623-1.783 2.008-.43.197-.888.295-1.35.295" mask="url(#fwopwdfheb)"/>
                <path fill="#06806B" d="M507.77 228.602c-.121 0-.244-.007-.368-.021-.95-.104-1.806-.597-2.412-1.387l-21.832-28.5.793-.607 21.832 28.498c.438.572 1.053.928 1.73 1.002.612.07 1.22-.112 1.697-.51.37-.31.638-.73.776-1.214l10.513-36.97.96.274-10.511 36.969c-.193.679-.573 1.27-1.097 1.708-.592.495-1.32.758-2.08.758M529.755 55.582h-1c0-1.331-1.082-2.413-2.413-2.413v-1c1.882 0 3.413 1.531 3.413 3.413M523.928 55.582h-1c0-1.882 1.53-3.413 3.414-3.413v1c-1.331 0-2.414 1.082-2.414 2.413M526.342 58.996c-1.883 0-3.414-1.53-3.414-3.414h1c0 1.331 1.083 2.414 2.414 2.414v1zM526.342 58.996v-1c1.33 0 2.413-1.083 2.413-2.414h1c0 1.883-1.531 3.414-3.413 3.414M73.448 181.306l-.945-.326c.299-.868.264-1.792-.098-2.6-.357-.797-.99-1.386-1.783-1.66l.325-.944c1.058.363 1.9 1.143 2.37 2.195.466 1.04.513 2.226.13 3.335" mask="url(#fwopwdfheb)"/>
                <path fill="#06806B" d="M66.518 178.923l-.945-.326c.381-1.11 1.146-2.015 2.154-2.55 1.02-.538 2.163-.635 3.22-.271l-.325.945c-.794-.273-1.656-.197-2.427.21-.782.416-1.378 1.123-1.677 1.992" mask="url(#fwopwdfheb)"/>
                <path fill="#06806B" d="M68.074 184.127c-2.171-.746-3.293-3.228-2.501-5.529l.945.324c-.612 1.781.232 3.692 1.88 4.26l-.324.945z" mask="url(#fwopwdfheb)"/>
                <path fill="#06806B" d="M69.364 184.344c-.435 0-.87-.072-1.29-.217l.325-.945c.795.27 1.655.197 2.427-.211.782-.415 1.378-1.122 1.677-1.99l.945.324c-.381 1.11-1.146 2.016-2.154 2.55-.613.325-1.272.489-1.93.489M87.895 52.717l-.945-.326c.193-.561.171-1.156-.062-1.677-.228-.51-.632-.886-1.138-1.06l.326-.945c.77.265 1.382.83 1.724 1.596.337.753.371 1.609.095 2.412" mask="url(#fwopwdfheb)"/>
                <path fill="#06806B" d="M83.122 51.074l-.945-.324c.275-.803.828-1.457 1.557-1.843.74-.393 1.571-.463 2.342-.198l-.326.945c-.504-.174-1.054-.125-1.547.136-.504.267-.888.723-1.08 1.284" mask="url(#fwopwdfheb)"/>
                <path fill="#06806B" d="M83.996 54.756c-.77-.265-1.382-.831-1.724-1.596-.337-.753-.371-1.61-.095-2.411l.945.326c-.192.56-.17 1.157.062 1.677.229.509.632.885 1.137 1.059l-.325.945z" mask="url(#fwopwdfheb)"/>
                <path fill="#06806B" d="M84.936 54.914c-.317 0-.634-.053-.94-.158l.325-.946c.505.173 1.054.126 1.548-.134.504-.268.888-.724 1.081-1.284l.945.324c-.275.802-.829 1.457-1.558 1.843-.445.236-.923.355-1.401.355M442.417 237.176l-.945-.326c.578-1.68-.217-3.482-1.773-4.017l.326-.945c2.077.715 3.15 3.087 2.392 5.288" mask="url(#fwopwdfheb)"/>
                <path fill="#06806B" d="M435.832 234.91l-.945-.325c.757-2.2 3.06-3.415 5.137-2.697l-.324.945c-1.559-.53-3.291.397-3.868 2.076" mask="url(#fwopwdfheb)"/>
                <path fill="#06806B" d="M437.28 239.872c-1.014-.348-1.818-1.094-2.269-2.1-.445-.995-.49-2.127-.125-3.188l.946.326c-.282.82-.249 1.691.092 2.453.335.751.932 1.307 1.68 1.564l-.325.945z" mask="url(#fwopwdfheb)"/>
                <path fill="#06806B" d="M438.513 240.08c-.416 0-.831-.069-1.234-.208l.326-.945c.745.256 1.557.186 2.285-.2.738-.39 1.3-1.057 1.582-1.877l.945.325c-.364 1.06-1.095 1.925-2.058 2.436-.587.311-1.216.468-1.846.468" mask="url(#fwopwdfheb)"/>
            </g>
        </g>
    </g>
</svg>
