<svg width="1239" height="1518" viewBox="0 0 1239 1518" fill="none" xmlns="http://www.w3.org/2000/svg">
<g opacity="0.1">
<path d="M153.514 99.0974C155.447 99.0974 157.014 97.5303 157.014 95.5971C157.014 93.6639 155.447 92.0968 153.514 92.0968C151.58 92.0968 150.013 93.6639 150.013 95.5971C150.013 97.5303 151.58 99.0974 153.514 99.0974Z" fill="#6B6B6B"/>
<path d="M174.52 99.0974C176.453 99.0974 178.02 97.5303 178.02 95.5971C178.02 93.6639 176.453 92.0968 174.52 92.0968C172.587 92.0968 171.02 93.6639 171.02 95.5971C171.02 97.5303 172.587 99.0974 174.52 99.0974Z" fill="#6B6B6B"/>
<path d="M158.414 151C152.192 151 146.419 147.378 143.712 141.778C141.542 137.269 139.521 132.439 137.711 127.422C137.701 127.394 137.65 127.254 137.641 127.226C134.21 117.705 131.732 107.792 130.29 97.8139C130.113 97.8653 129.935 97.9119 129.758 97.9539C126.505 98.6727 123.182 99.032 119.85 99.032C116.531 99.032 113.222 98.6727 110.021 97.9679C109.153 97.7766 108.476 97.1185 108.261 96.2551C108.149 95.8024 105.662 85.1521 118.659 77.3535C121.128 75.874 123.789 74.8799 126.598 74.3852C124.577 71.6363 123.042 68.5327 122.104 65.3077C120.974 60.5426 121.646 55.6329 123.98 51.4325C124.442 50.5924 125.147 49.925 126.015 49.5003C126.659 49.1829 127.345 49.0243 128.059 49.0243C128.577 49.0243 129.086 49.1083 129.58 49.281C130.761 49.687 131.713 50.5271 132.259 51.6472C133.02 53.2946 134.047 54.7461 135.312 55.9922C136.912 57.747 138.863 58.9652 141.029 59.5859C141.178 59.1098 141.36 58.6478 141.584 58.2044C142.69 55.9689 144.599 54.2981 146.961 53.5047C147.931 53.178 148.94 53.01 149.952 53.01C150.573 53.01 151.189 53.0706 151.791 53.1966C153.434 50.205 156.085 47.9555 159.347 46.8027C160.855 46.2707 162.418 46 163.996 46C166.077 46 168.093 46.462 169.997 47.3675C172.62 48.6229 174.786 50.6671 176.181 53.1873C176.811 53.0566 177.446 52.9913 178.09 52.9913C180.62 52.9913 182.991 53.99 184.769 55.8055C185.819 56.879 186.584 58.1671 187.023 59.5812C189.179 58.9605 191.097 57.7704 192.623 56.0902C193.968 54.7648 195.004 53.2993 195.75 51.6892C196.315 50.5317 197.267 49.687 198.448 49.281C198.943 49.1129 199.451 49.0243 199.969 49.0243C200.679 49.0243 201.369 49.1829 202.014 49.5003C202.882 49.925 203.586 50.5924 204.053 51.4418C206.387 55.6329 207.063 60.5193 205.953 65.1957C204.982 68.5513 203.47 71.6269 201.43 74.3899C204.23 74.8939 206.937 75.902 209.355 77.3488C222.381 85.1615 219.865 95.8071 219.753 96.2551C219.538 97.1185 218.862 97.7719 217.994 97.9633C214.792 98.668 211.483 99.0274 208.16 99.0274C204.837 99.0274 201.524 98.668 198.322 97.9633C198.121 97.9119 197.921 97.8606 197.725 97.8046C196.287 107.759 193.818 117.649 190.383 127.226C190.379 127.24 190.337 127.352 190.332 127.366C188.521 132.392 186.496 137.241 184.316 141.773C181.604 147.378 175.836 151 169.61 151H158.414ZM142.69 127.431C144.305 131.758 146.06 135.897 147.917 139.743C149.85 143.743 153.971 146.328 158.418 146.328H169.619C174.062 146.328 178.183 143.738 180.12 139.738C181.978 135.883 183.737 131.734 185.352 127.403C180.68 124.412 172.779 122.638 163.94 122.638C155.058 122.647 147.217 124.426 142.69 127.431ZM132.217 92.3114C132.619 92.3114 133.015 92.4141 133.365 92.6148C134.005 92.9788 134.439 93.6276 134.532 94.3556C135.741 104.026 137.944 113.635 141.085 122.946C146.452 119.829 154.843 117.99 163.949 117.99C173.031 117.99 181.478 119.819 186.948 122.932C190.08 113.626 192.278 104.021 193.482 94.3603C193.571 93.6322 194.01 92.9788 194.649 92.6195C194.999 92.4188 195.396 92.3161 195.797 92.3161C196.124 92.3161 196.441 92.3815 196.74 92.5168C197.589 92.8948 198.485 93.1982 199.395 93.4269C202.219 94.0476 205.178 94.3696 208.155 94.3696C210.582 94.3696 213 94.1549 215.366 93.7396C215.389 91.266 214.465 85.8615 206.961 81.3625C204.039 79.6123 200.688 78.6882 197.272 78.6882C196.903 78.6882 196.534 78.6976 196.166 78.7209C196.142 78.7209 196.04 78.7256 196.021 78.7256C195.083 78.7256 194.243 78.1609 193.879 77.2881C192.199 73.2418 189.65 69.5688 186.454 66.5678C185.991 67.4872 185.38 68.332 184.643 69.0554C182.883 70.7822 180.554 71.7296 178.09 71.7296C175.491 71.7016 173.148 70.7075 171.402 68.92C170.501 68.0006 170.515 66.5212 171.435 65.6204C171.878 65.191 172.457 64.953 173.068 64.953C173.703 64.953 174.291 65.2004 174.734 65.6577C175.612 66.5492 176.783 67.0532 178.039 67.0625C179.322 67.0625 180.489 66.5865 181.371 65.7231C182.155 64.953 182.641 63.9263 182.743 62.8062C182.739 62.7875 182.734 62.7642 182.729 62.7455C182.715 62.6895 182.706 62.6335 182.697 62.5775C182.678 62.3535 182.706 62.1948 182.72 62.1294C182.715 62.1014 182.72 62.0174 182.734 61.9054C182.631 60.8086 182.188 59.8286 181.441 59.0678C180.55 58.1577 179.36 57.6537 178.095 57.6537C177.357 57.6537 176.648 57.8217 175.981 58.1577C175.663 58.3211 175.299 58.4051 174.935 58.4051C174.636 58.4051 174.342 58.3491 174.062 58.2371C173.442 57.9851 172.956 57.481 172.737 56.851C171.911 54.5174 170.231 52.6459 167.995 51.5772C166.73 50.9704 165.391 50.6671 164.01 50.6671C162.959 50.6671 161.919 50.8491 160.915 51.2038C158.26 52.1419 156.201 54.2001 155.263 56.8556C155.03 57.4764 154.549 57.9804 153.929 58.2324C153.649 58.3491 153.355 58.4051 153.051 58.4051C152.692 58.4051 152.337 58.3211 152.015 58.1624C151.362 57.8404 150.671 57.677 149.952 57.677C149.444 57.677 148.94 57.761 148.454 57.9244C147.273 58.3211 146.317 59.1565 145.766 60.2766C145.509 60.79 145.355 61.3407 145.299 61.9054C145.318 62.0128 145.318 62.1061 145.323 62.1714C145.341 62.2741 145.346 62.4421 145.337 62.5495C145.332 62.5961 145.323 62.6381 145.313 62.6848C145.341 63.1329 145.407 63.5016 145.523 63.8423C145.925 65.0184 146.76 65.9751 147.875 66.5305C148.529 66.8525 149.224 67.0159 149.948 67.0159C151.198 67.0159 152.379 66.5258 153.261 65.6344C153.7 65.1864 154.293 64.9437 154.918 64.9437C155.539 64.9437 156.122 65.1817 156.561 65.6204C157.476 66.5258 157.485 68.0053 156.58 68.92C154.811 70.7029 152.458 71.6876 149.952 71.6876C148.524 71.6876 147.091 71.3516 145.808 70.7169C143.983 69.8161 142.518 68.3367 141.617 66.5305C138.401 69.5361 135.834 73.2278 134.15 77.2834C133.781 78.1469 132.941 78.7116 132.003 78.7116C131.975 78.7116 131.863 78.7069 131.835 78.7069C131.466 78.6836 131.083 78.6742 130.705 78.6742C127.317 78.6742 123.98 79.603 121.058 81.3531C113.558 85.8522 112.634 91.2567 112.658 93.7302C115.019 94.1503 117.437 94.3603 119.859 94.3603C122.846 94.3603 125.819 94.0383 128.694 93.4035C129.548 93.1889 130.43 92.8855 131.279 92.5075C131.573 92.3768 131.891 92.3114 132.217 92.3114ZM189.982 63.4829C192.768 66.1618 195.069 69.2421 196.856 72.677C198.957 70.1241 200.529 67.1559 201.444 64.0103C202.256 60.5613 201.738 56.8836 199.969 53.7054C199.969 53.7054 199.969 53.7007 199.965 53.7007C198.994 55.7915 197.655 57.691 195.984 59.3292C194.35 61.126 192.292 62.5495 189.982 63.4829ZM128.064 53.696C126.29 56.879 125.777 60.58 126.617 64.1223C127.508 67.1885 129.072 70.1241 131.167 72.6677C132.955 69.2327 135.26 66.1525 138.047 63.4782C135.727 62.5355 133.645 61.0887 131.956 59.2265C130.374 57.6817 129.048 55.8055 128.064 53.696ZM128.064 53.696C128.059 53.6773 128.045 53.6493 128.045 53.6493L128.064 53.696Z" fill="#6B6B6B"/>
<path d="M157.013 138.768C155.725 138.768 154.68 137.722 154.68 136.434V131.767C154.68 130.479 155.725 129.434 157.013 129.434C158.301 129.434 159.347 130.479 159.347 131.767V136.434C159.347 137.722 158.301 138.768 157.013 138.768Z" fill="#6B6B6B"/>
<path d="M171.02 138.768C169.732 138.768 168.686 137.722 168.686 136.434V131.767C168.686 130.479 169.732 129.434 171.02 129.434C172.308 129.434 173.353 130.479 173.353 131.767V136.434C173.353 137.722 172.303 138.768 171.02 138.768Z" fill="#6B6B6B"/>
</g>
<g opacity="0.1">
<path d="M1036 133.698C1034.46 133.698 1033.21 132.45 1033.21 130.912V122.449C1012.8 121.017 997 104.186 997 83.5547C997 82.017 998.248 80.769 999.786 80.769C1013.67 80.769 1026.23 88.0341 1033.21 99.6951V77.8217C1017.49 76.4066 1005.36 63.2636 1005.36 47.3404C1005.36 45.8027 1006.61 44.5547 1008.14 44.5547C1018.17 44.5547 1027.53 49.5634 1033.21 57.6531V42.8554C1022.26 30.9939 1022.58 12.2516 1034.03 0.802286C1034.54 0.295286 1035.26 0 1036 0C1036.74 0 1037.46 0.289714 1037.97 0.802286C1049.42 12.2516 1049.74 30.9994 1038.79 42.8554V57.6531C1044.47 49.5634 1053.83 44.5547 1063.86 44.5547C1065.39 44.5547 1066.64 45.8027 1066.64 47.3404C1066.64 63.2636 1054.51 76.401 1038.79 77.8217V99.6951C1045.77 88.0341 1058.33 80.769 1072.21 80.769C1073.75 80.769 1075 82.017 1075 83.5547C1075 104.18 1059.2 121.011 1038.79 122.449V130.912C1038.79 132.45 1037.54 133.698 1036 133.698ZM1069.3 86.4686C1053.26 87.867 1040.31 100.815 1038.91 116.861C1054.95 115.457 1067.9 102.509 1069.3 86.4686ZM1002.7 86.4686C1004.1 102.509 1017.05 115.457 1033.09 116.861C1031.69 100.821 1018.74 87.8726 1002.7 86.4686ZM1060.9 50.2989C1049.38 51.6471 1040.31 60.7174 1038.96 72.2391C1050.48 70.8909 1059.55 61.8206 1060.9 50.2989ZM1011.1 50.2989C1012.45 61.8206 1021.52 70.8909 1033.04 72.2391C1031.69 60.723 1022.62 51.6471 1011.1 50.2989ZM1036 6.95871C1028.92 15.9454 1028.92 28.5981 1036 37.5849C1043.08 28.5981 1043.08 15.9454 1036 6.95871Z" fill="#6B6B6B"/>
</g>
<path d="M88.0412 1079.13C84.6335 1079.13 81.6161 1076.95 80.54 1073.72L75.5076 1058.62C73.3923 1059.75 71.0554 1060.44 68.65 1060.66C66.7035 1060.66 65.1895 1059.77 64.2769 1058.17C62.6417 1055.3 63.127 1050.54 65.4586 1046.6C66.9883 1044.02 70.5807 1039.71 77.6387 1039.33C77.7495 1039.21 77.8655 1039.1 77.9816 1039C76.8158 1036.7 76.2461 1034.15 76.3305 1031.58C76.378 1030.17 77.5543 1029.03 78.9522 1029.03C79.7593 1029.05 80.4081 1029.35 80.8882 1029.87C81.3682 1030.38 81.6214 1031.05 81.6003 1031.75C81.5423 1033.54 81.9801 1035.35 82.8505 1036.93C82.9982 1036.92 83.1459 1036.91 83.2883 1036.91H101.018C101.16 1036.91 101.297 1036.92 101.445 1036.93C102.316 1035.34 102.759 1033.52 102.706 1031.72C102.685 1031.02 102.938 1030.35 103.418 1029.83C103.903 1029.32 104.552 1029.02 105.259 1029H105.264C106.768 1029 107.933 1030.14 107.976 1031.55C108.055 1034.13 107.485 1036.68 106.319 1038.99C106.441 1039.1 106.562 1039.21 106.673 1039.33C113.731 1039.7 117.323 1044.02 118.853 1046.6C121.184 1050.54 121.675 1055.3 120.04 1058.17C119.132 1059.76 117.619 1060.67 115.888 1060.67C113.293 1060.45 110.935 1059.76 108.799 1058.62L103.771 1073.72C102.69 1076.96 99.678 1079.13 96.265 1079.13H88.0412V1079.13ZM76.9107 1051.86C77.1534 1051.86 77.3961 1051.89 77.6282 1051.96C78.4722 1052.2 79.1368 1052.84 79.4164 1053.67L85.546 1072.05C85.9048 1073.13 86.9123 1073.85 88.0464 1073.85H96.265C97.4044 1073.85 98.4067 1073.13 98.7654 1072.05L104.89 1053.67C105.169 1052.83 105.839 1052.2 106.678 1051.96C106.905 1051.9 107.147 1051.86 107.39 1051.86C108.007 1051.86 108.614 1052.08 109.089 1052.48C110.94 1054.04 113.161 1055.02 115.54 1055.34C115.899 1054.28 115.778 1051.76 114.316 1049.29C113.045 1047.14 110.502 1044.58 105.612 1044.58H105.438C104.489 1044.58 103.687 1044.14 103.191 1043.38C102.706 1042.64 101.888 1042.19 101.002 1042.19H83.2936C82.4127 1042.19 81.6003 1042.64 81.1203 1043.37C80.6455 1044.12 79.7962 1044.58 78.91 1044.58H78.641C73.5452 1044.58 71.0343 1047.53 69.9951 1049.29C68.5128 1051.79 68.4126 1054.37 68.766 1055.35C71.0343 1055.07 73.3448 1054.06 75.2122 1052.48C75.6869 1052.08 76.2936 1051.86 76.9107 1051.86Z" fill="#F0F0F0"/>
<path d="M71.05 1121.33C69.7734 1121.33 68.6815 1120.42 68.4547 1119.16L63.57 1092.32H56.6965C53.9957 1096.38 50.0763 1099.52 45.487 1101.27L46.9113 1104.42C47.5126 1105.74 46.9218 1107.31 45.5978 1107.91C45.2496 1108.07 44.8856 1108.15 44.5111 1108.15C43.4772 1108.15 42.5329 1107.54 42.1057 1106.6L40.3069 1102.62C39.1674 1102.79 38.0175 1102.87 36.8728 1102.87C36.4666 1102.92 35.9918 1102.96 35.5065 1102.97L33.6866 1106.68C33.2383 1107.58 32.3309 1108.15 31.3181 1108.15C30.9172 1108.15 30.5163 1108.05 30.1576 1107.88C29.5246 1107.57 29.0498 1107.03 28.823 1106.36C28.5962 1105.69 28.6384 1104.98 28.9496 1104.34L29.9941 1102.22C27.3565 1101.43 24.93 1100.02 22.9308 1098.13L18.2359 1119.27C17.9669 1120.48 16.9066 1121.33 15.6617 1121.33H5.11155C3.75058 1121.33 2.62171 1120.31 2.48456 1118.96C2.45819 1118.71 0 1093.6 0 1061.89C0.142427 1050.15 9.04676 1040.57 20.7152 1039.58L57.8623 1039.57C59.3182 1039.57 60.4999 1040.75 60.4999 1042.2C60.4999 1043.66 59.3182 1044.84 57.8623 1044.84H29.4297L29.9783 1047.58C31.0702 1053.03 28.5962 1058.61 23.8328 1061.48L17.9616 1065L16.5901 1070.5C15.7039 1074.03 12.5441 1076.49 8.9096 1076.49H5.44388C5.87644 1095.6 7.03168 1110.45 7.51698 1116.05H13.5464L18.3625 1094.38C18.5946 1093.33 19.4334 1092.53 20.5042 1092.35C20.5253 1092.35 21.2005 1092.23 22.2344 1091.86C22.2503 1091.85 22.303 1091.84 22.303 1091.84C25.8584 1090.53 34.1297 1085.9 34.1297 1071.22C34.1297 1069.77 35.3114 1068.58 36.7673 1068.58C38.2232 1068.58 39.4048 1069.77 39.4048 1071.22C39.4048 1085.45 32.5683 1092.13 27.4779 1095.12C29.1606 1096.42 31.1704 1097.27 33.3016 1097.57C33.5337 1097.51 33.771 1097.47 34.0137 1097.47C34.3829 1097.47 34.7364 1097.55 35.0687 1097.7C35.554 1097.7 36.0024 1097.67 36.4402 1097.62C36.4824 1097.61 36.6512 1097.6 36.6934 1097.6H37.0996C43.6143 1097.6 49.6807 1094.07 52.9354 1088.38C53.4049 1087.55 54.2805 1087.05 55.2248 1087.05H65.7749C67.0515 1087.05 68.1434 1087.96 68.3703 1089.21L73.255 1116.06H78.9679V1087.05C78.9679 1085.59 80.1495 1084.41 81.6054 1084.41C83.0614 1084.41 84.243 1085.59 84.243 1087.05V1091.4C87.2023 1090.15 89.6974 1088.01 91.3907 1085.26C91.876 1084.48 92.7148 1084.01 93.6379 1084.01C94.1285 1084.01 94.6032 1084.15 95.02 1084.4C96.2543 1085.16 96.6447 1086.79 95.8851 1088.03C93.2212 1092.35 89.1119 1095.51 84.243 1096.99V1118.7C84.243 1120.15 83.0614 1121.33 81.6054 1121.33H71.05V1121.33ZM8.9096 1071.22C10.1229 1071.22 11.1726 1070.39 11.468 1069.22L13.1033 1062.67C13.2721 1061.98 13.6994 1061.41 14.306 1061.05L21.1161 1056.96C23.9752 1055.24 25.4575 1051.89 24.8034 1048.62L24.0491 1044.84H20.9948C12.138 1045.63 5.38585 1052.96 5.27508 1061.92C5.27508 1064.95 5.29618 1068.07 5.34365 1071.22H8.9096Z" fill="#F0F0F0"/>
<path d="M85.5618 1055.39C83.3727 1055.39 81.6002 1053.62 81.6002 1051.43C81.6002 1051.38 81.6055 1051.31 81.616 1051.24C81.6793 1049.22 83.399 1047.52 85.4827 1047.48C85.5091 1047.48 85.5987 1047.48 85.6251 1047.48C87.7721 1047.52 89.5128 1049.28 89.5128 1051.43C89.5128 1053.61 87.7457 1055.39 85.5724 1055.39C85.5724 1055.39 85.5671 1055.39 85.5618 1055.39Z" fill="#F0F0F0"/>
<path d="M98.7444 1055.39C96.5605 1055.39 94.7881 1053.62 94.7881 1051.43C94.7934 1050.36 95.2101 1049.37 95.9592 1048.62C96.7029 1047.88 97.6947 1047.48 98.7444 1047.48C98.776 1047.48 98.8024 1047.48 98.8341 1047.48C100.928 1047.54 102.595 1049.17 102.69 1051.25C102.701 1051.31 102.706 1051.38 102.706 1051.44C102.706 1053.62 100.934 1055.39 98.7444 1055.39Z" fill="#F0F0F0"/>
<path d="M385.107 713.354C368.743 713.354 353.327 706.122 342.799 693.515C342.66 693.381 342.56 693.247 342.478 693.127C334.457 683.38 330 670.959 330 658.246C330 656.924 331.073 655.85 332.396 655.85H421.033V646.266H407.304C407.112 646.266 406.916 646.242 406.729 646.194C405.703 645.94 404.754 645.432 403.978 644.728C402.713 643.583 401.97 642.011 401.884 640.3C401.803 638.623 402.368 637.008 403.48 635.748L410.097 626.777C409.637 626.538 409.206 626.231 408.813 625.867C406.863 624.051 405.986 620.644 408.425 617.131L419.595 601.936C419.883 601.553 420.208 601.232 420.568 600.958C421.402 600.331 422.394 600 423.438 600C424.943 600 426.376 600.714 427.277 601.917L438.418 617.079C440.886 620.639 440.023 624.051 438.082 625.867C437.685 626.236 437.249 626.547 436.784 626.787L443.459 635.839C444.068 636.519 444.556 637.449 444.805 638.441C445.222 640.099 444.964 641.819 444.082 643.286C443.2 644.752 441.806 645.787 440.148 646.204C439.956 646.252 439.76 646.276 439.568 646.276H425.825V655.86H437.819C439.141 655.86 440.215 656.933 440.215 658.256C440.215 666.958 438.221 675.301 434.292 683.064C434.239 683.203 434.167 683.342 434.081 683.476C427.943 695.345 417.745 704.584 405.353 709.496C405.238 709.554 405.109 709.606 404.975 709.645C398.611 712.103 391.931 713.354 385.107 713.354ZM349.944 694.186C359.322 703.353 371.987 708.562 385.112 708.562C390.853 708.562 396.488 707.594 401.884 705.677V691.79C401.884 685.186 407.261 679.81 413.864 679.81H430.564C433.444 673.767 435.059 667.327 435.375 660.642H363.544V663.038C363.544 667.001 366.769 670.226 370.732 670.226C377.34 670.226 382.711 675.603 382.711 682.206C382.711 688.809 377.34 694.186 370.732 694.186H349.944ZM413.859 684.602C409.896 684.602 406.671 687.827 406.671 691.79V703.688C415.407 699.524 422.858 692.834 427.947 684.602H413.859ZM370.732 689.394C374.695 689.394 377.919 686.169 377.919 682.206C377.919 678.243 374.695 675.018 370.732 675.018C364.123 675.018 358.752 669.641 358.752 663.038V660.642H334.849C335.343 671.175 339.057 681.075 345.641 689.394H370.732ZM439.209 641.474C439.942 641.177 440.354 640.382 440.157 639.601C440.095 639.347 439.966 639.107 439.788 638.911C439.731 638.844 439.673 638.776 439.625 638.709L429.974 625.623C429.265 624.659 429.375 623.308 430.238 622.474C430.688 622.043 431.278 621.803 431.901 621.803C432.442 621.803 432.974 621.99 433.396 622.326C433.645 622.527 433.899 622.628 434.143 622.628C434.383 622.628 434.627 622.532 434.809 622.359C435.356 621.846 435.246 620.912 434.512 619.858L423.424 604.773L412.321 619.915C411.621 620.922 411.525 621.851 412.076 622.364C412.259 622.537 412.503 622.632 412.743 622.632C412.987 622.632 413.236 622.532 413.476 622.335C413.897 621.995 414.429 621.808 414.976 621.808C415.599 621.808 416.183 622.043 416.634 622.474C417.496 623.303 417.616 624.659 416.902 625.627L407.232 638.729C407.174 638.805 407.122 638.867 407.064 638.93C406.796 639.227 406.652 639.639 406.671 640.065C406.69 640.492 406.877 640.89 407.198 641.177C407.337 641.302 407.495 641.402 407.668 641.474H439.209Z" fill="#F0F0F0"/>
<path d="M337.576 653.454C336.991 653.454 336.426 653.239 335.985 652.85C335.506 652.424 335.223 651.839 335.184 651.202C335.146 650.565 335.357 649.947 335.783 649.467L350.945 632.37C351.099 632.197 351.261 632.039 351.429 631.895C352.297 631.162 353.394 630.76 354.53 630.76C355.943 630.76 357.275 631.378 358.186 632.451L361.435 636.285L373.098 622.829C373.247 622.656 373.405 622.498 373.578 622.35C374.455 621.588 375.566 621.176 376.721 621.176C378.116 621.176 379.433 621.779 380.344 622.829L403.451 649.491C404.313 650.488 404.208 652.007 403.211 652.87C402.775 653.248 402.214 653.454 401.639 653.454C400.944 653.454 400.283 653.152 399.828 652.63L376.721 625.963L364.564 639.989L372.624 649.51C373.477 650.522 373.352 652.036 372.346 652.889C371.915 653.253 371.364 653.454 370.798 653.454C370.094 653.454 369.428 653.148 368.968 652.606L354.53 635.552L339.373 652.649C338.913 653.162 338.261 653.454 337.576 653.454Z" fill="#F0F0F0"/>
<path d="M1189.44 1475.24C1188.42 1475.19 1187.55 1474.49 1187.29 1473.49C1185.15 1465.43 1182 1457.66 1177.9 1450.36C1175.28 1454.79 1172.04 1457.3 1168.27 1457.84C1167.77 1457.91 1167.26 1457.95 1166.75 1457.95C1160.44 1457.95 1154.86 1452.47 1152.09 1449.21C1144.99 1440.84 1141.93 1418.49 1148.4 1406.23C1148.74 1405.59 1149.33 1405.15 1150.03 1405.01C1150.17 1404.99 1150.33 1404.97 1150.48 1404.97C1151.03 1404.97 1151.57 1405.17 1152 1405.53C1156.95 1409.71 1162.55 1411.39 1167.98 1413.02C1174.17 1414.89 1180.02 1416.65 1184.39 1421.79C1189.07 1427.3 1190.89 1432.47 1189.8 1437.17C1188.91 1441 1186.07 1444.27 1181.35 1446.92C1184.9 1453.05 1187.81 1459.54 1190.03 1466.23C1191.44 1463.54 1193.37 1460.28 1195.85 1457C1192.05 1453.79 1191.22 1450.52 1191.23 1448.27C1191.24 1444.46 1193.59 1440.7 1197.67 1437.98C1201.22 1435.61 1204.82 1434.68 1208.3 1433.78C1212.16 1432.78 1216.15 1431.75 1220.27 1428.64C1220.67 1428.33 1221.18 1428.16 1221.69 1428.16C1221.92 1428.16 1222.15 1428.19 1222.38 1428.26C1223.1 1428.48 1223.67 1429.04 1223.91 1429.75C1227.49 1440.19 1225.86 1451.83 1219.55 1460.89C1219.49 1460.98 1219.42 1461.08 1219.34 1461.16C1215.94 1464.74 1211.84 1466.79 1208.08 1466.79C1207.45 1466.79 1206.82 1466.74 1206.21 1466.62C1203.21 1466.04 1200.69 1464.18 1198.71 1461.09C1194.14 1467.5 1191.78 1473.65 1191.76 1473.72C1191.42 1474.63 1190.53 1475.24 1189.56 1475.24C1189.54 1475.24 1189.46 1475.24 1189.44 1475.24ZM1201.87 1457.09C1203.3 1459.96 1205.05 1461.6 1207.09 1461.99C1207.42 1462.06 1207.76 1462.09 1208.11 1462.09C1210.52 1462.09 1213.32 1460.62 1215.8 1458.06C1220.52 1451.17 1222.17 1442.4 1220.31 1434.27C1216.5 1436.52 1212.94 1437.44 1209.48 1438.33C1206.24 1439.17 1203.17 1439.96 1200.28 1441.89C1197.57 1443.7 1195.94 1446.09 1195.94 1448.28C1195.93 1450.34 1197.38 1452.1 1198.87 1453.36C1202.25 1449.63 1205.89 1446.79 1209.7 1444.88C1210.02 1444.72 1210.38 1444.64 1210.75 1444.64C1211.64 1444.64 1212.45 1445.14 1212.85 1445.94C1213.44 1447.1 1212.96 1448.52 1211.8 1449.1C1208.34 1450.83 1205 1453.51 1201.87 1457.09ZM1151.43 1411.01C1147.41 1422.06 1150.22 1439.73 1155.68 1446.16C1157.92 1448.81 1162.33 1453.24 1166.73 1453.24C1167.02 1453.24 1167.31 1453.22 1167.6 1453.18C1170.44 1452.78 1172.96 1450.25 1175.08 1445.66C1170.42 1438.34 1164.83 1431.68 1158.48 1425.84C1157.52 1424.96 1157.46 1423.48 1158.34 1422.52C1158.78 1422.03 1159.42 1421.76 1160.07 1421.76C1160.66 1421.76 1161.22 1421.98 1161.66 1422.38C1168.28 1428.46 1174.08 1435.35 1178.92 1442.9C1182.51 1440.92 1184.63 1438.64 1185.21 1436.11C1186.13 1432.16 1183.32 1427.8 1180.81 1424.84C1177.33 1420.76 1172.13 1419.19 1166.62 1417.53C1161.83 1416.09 1156.46 1414.48 1151.43 1411.01Z" fill="#E8E8E8"/>
<path d="M1185.85 1517.68C1179.75 1517.68 1173.04 1515.33 1161.92 1511.41C1158.3 1510.14 1154.25 1508.71 1149.54 1507.12V1508.55C1149.54 1511.15 1147.43 1513.26 1144.83 1513.26H1130.71C1128.11 1513.26 1126 1511.15 1126 1508.55V1475.59C1126 1472.99 1128.11 1470.88 1130.71 1470.88H1144.83C1147.43 1470.88 1149.54 1472.99 1149.54 1475.59H1161.31C1169.69 1475.89 1177.53 1479.23 1183.47 1485.01H1196.44C1196.78 1484.96 1197.12 1484.93 1197.47 1484.93C1200.93 1484.93 1203.88 1487.4 1204.5 1490.81C1204.5 1490.83 1204.5 1490.85 1204.51 1490.86L1221.78 1485.13C1223.23 1484.7 1224.7 1484.49 1226.17 1484.49C1231.03 1484.49 1235.65 1486.8 1238.53 1490.66C1238.95 1491.23 1239.1 1491.93 1238.93 1492.61C1238.77 1493.29 1238.32 1493.86 1237.7 1494.18C1227.19 1499.43 1219.29 1503.69 1212.93 1507.1C1199.85 1514.15 1193.29 1517.68 1185.85 1517.68ZM1149.54 1502.15C1154.93 1503.96 1159.46 1505.56 1163.48 1506.97C1174.43 1510.82 1180.47 1512.94 1185.78 1512.94C1192.17 1512.94 1197.98 1509.82 1210.7 1502.97C1216.49 1499.85 1223.59 1496.03 1232.72 1491.42C1230.86 1489.99 1228.56 1489.19 1226.19 1489.19C1225.17 1489.19 1224.16 1489.34 1223.19 1489.63L1203.24 1496.25C1202.16 1497.75 1200.54 1498.78 1198.74 1499.1C1198.33 1499.18 1197.9 1499.21 1197.48 1499.21C1197.13 1499.21 1196.78 1499.19 1196.44 1499.14H1170.73C1169.43 1499.14 1168.37 1498.08 1168.37 1496.78C1168.37 1495.48 1169.43 1494.43 1170.73 1494.43H1196.62C1196.77 1494.43 1196.91 1494.44 1197.05 1494.47C1197.19 1494.5 1197.33 1494.51 1197.47 1494.51C1197.61 1494.51 1197.75 1494.49 1197.9 1494.47C1198.56 1494.35 1199.12 1493.97 1199.5 1493.39C1199.56 1493.25 1199.64 1493.11 1199.73 1492.97C1199.9 1492.55 1199.94 1492.09 1199.86 1491.65C1199.66 1490.49 1198.65 1489.65 1197.48 1489.65C1197.34 1489.65 1197.19 1489.66 1197.04 1489.68C1196.9 1489.71 1196.77 1489.72 1196.62 1489.72H1182.5C1181.86 1489.72 1181.25 1489.46 1180.81 1489.01C1175.63 1483.66 1168.69 1480.57 1161.25 1480.3H1149.54V1502.15ZM1130.71 1508.55H1144.83V1475.6H1130.71V1508.55Z" fill="#E8E8E8"/>
</svg>
