<svg width="878" height="552" viewBox="0 0 878 552" fill="none" xmlns="http://www.w3.org/2000/svg">
<g opacity="0.1">
<path d="M799.882 61.6941C802.129 61.6941 803.949 59.8732 803.949 57.6271C803.949 55.3809 802.129 53.5601 799.882 53.5601C797.636 53.5601 795.815 55.3809 795.815 57.6271C795.815 59.8732 797.636 61.6941 799.882 61.6941Z" fill="#6B6B6B"/>
<path d="M824.29 61.694C826.536 61.694 828.357 59.8731 828.357 57.627C828.357 55.3808 826.536 53.5599 824.29 53.5599C822.044 53.5599 820.223 55.3808 820.223 57.627C820.223 59.8731 822.044 61.694 824.29 61.694Z" fill="#6B6B6B"/>
<path d="M805.576 122C798.347 122 791.64 117.792 788.494 111.285C785.973 106.046 783.625 100.434 781.521 94.6045C781.51 94.572 781.45 94.4093 781.439 94.3767C777.454 83.3144 774.574 71.7966 772.899 60.2029C772.693 60.2625 772.487 60.3167 772.28 60.3655C768.501 61.2006 764.64 61.6182 760.768 61.6182C756.913 61.6182 753.068 61.2006 749.348 60.3818C748.339 60.1595 747.553 59.3949 747.304 58.3917C747.173 57.8657 744.283 45.4911 759.385 36.4297C762.254 34.7107 765.345 33.5557 768.609 32.9809C766.261 29.7869 764.477 26.1808 763.387 22.4337C762.075 16.8971 762.856 11.1925 765.567 6.31203C766.104 5.33594 766.923 4.56049 767.931 4.06703C768.68 3.69828 769.477 3.51391 770.307 3.51391C770.909 3.51391 771.5 3.61152 772.074 3.81216C773.446 4.28394 774.553 5.26002 775.187 6.56147C776.071 8.47569 777.264 10.1621 778.734 11.61C780.594 13.6489 782.86 15.0643 785.376 15.7855C785.55 15.2324 785.761 14.6955 786.022 14.1804C787.307 11.5829 789.525 9.64157 792.269 8.71971C793.397 8.34012 794.568 8.1449 795.745 8.1449C796.466 8.1449 797.182 8.2154 797.881 8.36181C799.79 4.88586 802.87 2.27211 806.66 0.932705C808.412 0.314517 810.229 0 812.061 0C814.48 0 816.823 0.536848 819.035 1.58885C822.083 3.04756 824.599 5.4227 826.22 8.35096C826.952 8.19913 827.69 8.12321 828.438 8.12321C831.377 8.12321 834.132 9.28367 836.198 11.3931C837.418 12.6403 838.307 14.137 838.817 15.7801C841.322 15.0588 843.551 13.6761 845.324 11.7239C846.886 10.1838 848.09 8.48111 848.958 6.61028C849.614 5.26545 850.72 4.28394 852.092 3.81216C852.667 3.61694 853.258 3.51391 853.86 3.51391C854.684 3.51391 855.486 3.69828 856.235 4.06703C857.243 4.56049 858.062 5.33594 858.605 6.32287C861.316 11.1925 862.102 16.87 860.812 22.3036C859.684 26.2025 857.927 29.7761 855.557 32.9863C858.811 33.572 861.956 34.7433 864.765 36.4243C879.899 45.5019 876.977 57.8711 876.847 58.3917C876.597 59.3949 875.811 60.1541 874.802 60.3764C871.082 61.1952 867.237 61.6128 863.377 61.6128C859.516 61.6128 855.665 61.1952 851.945 60.3764C851.712 60.3167 851.479 60.2571 851.251 60.192C849.581 71.7586 846.713 83.2494 842.721 94.3767C842.716 94.393 842.667 94.5231 842.662 94.5394C840.558 100.38 838.204 106.014 835.672 111.279C832.521 117.792 825.819 122 818.585 122H805.576V122ZM787.307 94.6153C789.183 99.6422 791.222 104.452 793.38 108.92C795.625 113.568 800.413 116.572 805.581 116.572H818.596C823.758 116.572 828.546 113.562 830.797 108.915C832.955 104.436 834.999 99.6151 836.876 94.5828C831.448 91.1069 822.267 89.0462 811.996 89.0462C801.677 89.0571 792.567 91.1231 787.307 94.6153ZM775.138 53.8095C775.605 53.8095 776.066 53.9288 776.472 54.162C777.215 54.5849 777.719 55.3387 777.828 56.1846C779.232 67.4205 781.792 78.5858 785.441 89.4041C791.678 85.7818 801.428 83.6452 812.007 83.6452C822.56 83.6452 832.375 85.7709 838.73 89.3879C842.369 78.575 844.923 67.415 846.322 56.1901C846.425 55.3441 846.935 54.5849 847.678 54.1674C848.084 53.9342 848.545 53.8149 849.012 53.8149C849.391 53.8149 849.76 53.8908 850.107 54.0481C851.094 54.4873 852.135 54.8398 853.193 55.1055C856.473 55.8267 859.911 56.2009 863.371 56.2009C866.191 56.2009 869 55.9515 871.749 55.4688C871.776 52.5948 870.703 46.3153 861.983 41.0878C858.588 39.0543 854.695 37.9806 850.725 37.9806C850.297 37.9806 849.869 37.9915 849.44 38.0186C849.413 38.0186 849.294 38.024 849.272 38.024C848.182 38.024 847.206 37.3679 846.783 36.3538C844.831 31.6523 841.87 27.3847 838.156 23.8979C837.619 24.9661 836.908 25.9476 836.051 26.7882C834.007 28.7946 831.301 29.8954 828.438 29.8954C825.418 29.8628 822.695 28.7078 820.667 26.6309C819.621 25.5626 819.637 23.8436 820.705 22.797C821.22 22.2982 821.893 22.0216 822.603 22.0216C823.341 22.0216 824.024 22.309 824.539 22.8404C825.559 23.8762 826.92 24.4618 828.378 24.4727C829.87 24.4727 831.225 23.9195 832.25 22.9163C833.161 22.0216 833.725 20.8286 833.844 19.5272C833.839 19.5055 833.834 19.4784 833.828 19.4567C833.812 19.3916 833.801 19.3265 833.79 19.2614C833.769 19.0012 833.801 18.8168 833.817 18.7409C833.812 18.7083 833.817 18.6107 833.834 18.4806C833.714 17.2062 833.199 16.0675 832.332 15.1836C831.296 14.1261 829.913 13.5405 828.443 13.5405C827.587 13.5405 826.762 13.7357 825.987 14.1261C825.618 14.3159 825.195 14.4135 824.772 14.4135C824.425 14.4135 824.084 14.3485 823.758 14.2183C823.037 13.9255 822.473 13.3399 822.218 12.6078C821.258 9.89643 819.306 7.72193 816.709 6.48013C815.239 5.77518 813.683 5.4227 812.078 5.4227C810.858 5.4227 809.648 5.63419 808.482 6.04631C805.397 7.13628 803.006 9.52769 801.916 12.6132C801.644 13.3344 801.086 13.9201 800.365 14.2129C800.039 14.3485 799.698 14.4135 799.345 14.4135C798.928 14.4135 798.516 14.3159 798.141 14.1316C797.382 13.7574 796.58 13.5676 795.745 13.5676C795.153 13.5676 794.568 13.6652 794.004 13.855C792.632 14.3159 791.52 15.2866 790.88 16.5881C790.582 17.1845 790.403 17.8244 790.338 18.4806C790.36 18.6053 790.36 18.7138 790.365 18.7897C790.387 18.909 790.392 19.1042 790.381 19.2289C790.376 19.2831 790.365 19.3319 790.354 19.3862C790.387 19.9067 790.463 20.3351 790.598 20.731C791.065 22.0975 792.035 23.2092 793.331 23.8545C794.091 24.2286 794.899 24.4184 795.739 24.4184C797.192 24.4184 798.564 23.8491 799.589 22.8133C800.099 22.2927 800.788 22.0108 801.514 22.0108C802.236 22.0108 802.913 22.2873 803.423 22.797C804.486 23.8491 804.497 25.568 803.445 26.6309C801.39 28.7024 798.657 29.8466 795.745 29.8466C794.085 29.8466 792.42 29.4561 790.929 28.7186C788.809 27.6721 787.106 25.9531 786.06 23.8545C782.323 27.3467 779.341 31.6361 777.383 36.3484C776.955 37.3516 775.979 38.0077 774.889 38.0077C774.856 38.0077 774.726 38.0023 774.694 38.0023C774.265 37.9752 773.821 37.9643 773.381 37.9643C769.444 37.9643 765.567 39.0435 762.173 41.077C753.458 46.3045 752.385 52.584 752.412 55.458C755.156 55.946 757.965 56.1901 760.779 56.1901C764.249 56.1901 767.704 55.8159 771.044 55.0784C772.036 54.829 773.061 54.4765 774.048 54.0372C774.39 53.8854 774.759 53.8095 775.138 53.8095ZM842.255 20.3134C845.492 23.4261 848.166 27.0051 850.243 30.9962C852.683 28.03 854.51 24.5811 855.573 20.9262C856.517 16.9188 855.915 12.6457 853.86 8.95288C853.86 8.95288 853.86 8.94746 853.854 8.94746C852.726 11.3768 851.17 13.5839 849.229 15.4872C847.331 17.575 844.939 19.2289 842.255 20.3134ZM770.312 8.94204C768.251 12.6403 767.655 16.9405 768.631 21.0564C769.667 24.6191 771.483 28.03 773.918 30.9853C775.995 26.9942 778.674 23.4152 781.911 20.308C779.216 19.2126 776.798 17.5316 774.835 15.3679C772.996 13.573 771.456 11.3931 770.312 8.94204ZM770.312 8.94204C770.307 8.92035 770.29 8.88781 770.29 8.88781L770.312 8.94204Z" fill="#6B6B6B"/>
<path d="M803.949 107.787C802.452 107.787 801.237 106.573 801.237 105.076V99.6532C801.237 98.1566 802.452 96.9419 803.949 96.9419C805.445 96.9419 806.66 98.1566 806.66 99.6532V105.076C806.66 106.573 805.445 107.787 803.949 107.787Z" fill="#6B6B6B"/>
<path d="M820.223 107.787C818.726 107.787 817.512 106.573 817.512 105.076V99.6532C817.512 98.1566 818.726 96.9419 820.223 96.9419C821.72 96.9419 822.934 98.1566 822.934 99.6532V105.076C822.934 106.573 821.714 107.787 820.223 107.787Z" fill="#6B6B6B"/>
</g>
<g opacity="0.1">
<path d="M59.3109 161C41.6982 161 25.1066 153.217 13.7756 139.648C13.626 139.504 13.5177 139.359 13.4301 139.23C4.79645 128.74 0 115.372 0 101.689C0 100.266 1.15527 99.1103 2.57874 99.1103H97.9765V88.7954H83.2003C82.994 88.7954 82.7826 88.7696 82.5814 88.718C81.4777 88.4447 80.4566 87.898 79.6211 87.1398C78.2595 85.9072 77.4601 84.2156 77.3672 82.3743C77.2796 80.5692 77.8881 78.8312 79.0847 77.4747L86.2071 67.82C85.712 67.5621 85.2479 67.232 84.8249 66.84C82.7259 64.8854 81.782 61.2184 84.4072 57.438L96.4293 41.0836C96.7387 40.671 97.0894 40.3255 97.4762 40.0315C98.3736 39.3559 99.4412 39 100.566 39C102.185 39 103.727 39.7685 104.697 41.063L116.688 57.3812C119.344 61.2132 118.416 64.8854 116.327 66.84C115.899 67.2372 115.429 67.5724 114.929 67.8303L122.113 77.5727C122.768 78.3051 123.295 79.3056 123.563 80.3732C124.011 82.1577 123.733 84.0093 122.784 85.5874C121.835 87.1656 120.334 88.2796 118.55 88.7283C118.343 88.7799 118.132 88.8057 117.926 88.8057H103.134V99.1207H116.043C117.467 99.1207 118.622 100.276 118.622 101.699C118.622 111.065 116.476 120.045 112.247 128.4C112.19 128.549 112.113 128.699 112.02 128.843C105.414 141.618 94.4385 151.562 81.1013 156.848C80.9775 156.91 80.8382 156.967 80.6938 157.008C73.8447 159.654 66.6552 161 59.3109 161ZM21.4654 140.37C31.5586 150.236 45.1898 155.843 59.3161 155.843C65.4947 155.843 71.5599 154.801 77.3672 152.738V137.791C77.3672 130.684 83.1539 124.898 90.2609 124.898H108.235C111.334 118.394 113.072 111.462 113.413 104.268H36.1023V106.847C36.1023 111.112 39.5733 114.583 43.8385 114.583C50.9507 114.583 56.7322 120.369 56.7322 127.476C56.7322 134.583 50.9507 140.37 43.8385 140.37H21.4654ZM90.2558 130.055C85.9905 130.055 82.5196 133.526 82.5196 137.791V150.597C91.9216 146.116 99.9415 138.916 105.419 130.055H90.2558ZM43.8385 135.213C48.1037 135.213 51.5747 131.742 51.5747 127.476C51.5747 123.211 48.1037 119.74 43.8385 119.74C36.7264 119.74 30.9448 113.954 30.9448 106.847V104.268H5.21936C5.75058 115.604 9.74762 126.259 16.834 135.213H43.8385ZM117.539 83.6379C118.328 83.3182 118.771 82.462 118.56 81.6213C118.493 81.348 118.354 81.0901 118.163 80.8787C118.101 80.8065 118.039 80.7343 117.987 80.6621L107.6 66.577C106.837 65.5403 106.956 64.0859 107.884 63.1885C108.369 62.7244 109.003 62.4665 109.674 62.4665C110.256 62.4665 110.829 62.6676 111.283 63.0287C111.551 63.2453 111.824 63.3536 112.087 63.3536C112.345 63.3536 112.608 63.2504 112.804 63.0648C113.392 62.5129 113.274 61.5072 112.484 60.3726L100.55 44.1368L88.6002 60.4345C87.8472 61.5175 87.7441 62.5181 88.3372 63.0699C88.5332 63.2556 88.7962 63.3587 89.0541 63.3587C89.3171 63.3587 89.5853 63.2504 89.8432 63.039C90.297 62.6728 90.8695 62.4717 91.4575 62.4717C92.1279 62.4717 92.7571 62.7244 93.2419 63.1885C94.1703 64.0808 94.2992 65.5404 93.5308 66.5822L83.123 80.6827C83.0611 80.7652 83.0044 80.8323 82.9425 80.8993C82.6537 81.2191 82.4989 81.6626 82.5196 82.1216C82.5402 82.5806 82.7413 83.0087 83.0869 83.3182C83.2364 83.4523 83.4066 83.5606 83.5923 83.6379H117.539Z" fill="#6B6B6B"/>
<path d="M8.15453 96.5318C7.52532 96.5318 6.91673 96.2997 6.44225 95.8819C5.9265 95.4229 5.62221 94.7937 5.58095 94.1077C5.53969 93.4218 5.76662 92.7565 6.22563 92.2407L22.5439 73.8389C22.7089 73.6532 22.8843 73.483 23.0648 73.3283C23.9983 72.5392 25.1793 72.106 26.4017 72.106C27.9231 72.106 29.3569 72.7713 30.3368 73.9265L33.8336 78.0525L46.3869 63.5703C46.5468 63.3847 46.7169 63.2145 46.9026 63.0546C47.8464 62.2346 49.043 61.791 50.2859 61.791C51.7867 61.791 53.205 62.4409 54.185 63.5703L79.0543 92.2665C79.9826 93.3393 79.8692 94.9742 78.7964 95.9025C78.3271 96.31 77.7237 96.5318 77.1048 96.5318C76.3569 96.5318 75.6452 96.2068 75.1553 95.6447L50.2859 66.9433L37.2014 82.0393L45.8763 92.2872C46.7943 93.3754 46.6602 95.0051 45.5771 95.9232C45.113 96.3151 44.5199 96.5318 43.9113 96.5318C43.1531 96.5318 42.4362 96.2017 41.9411 95.6189L26.4017 77.2634L10.0886 95.6653C9.59346 96.2171 8.89205 96.5318 8.15453 96.5318Z" fill="#6B6B6B"/>
</g>
<g opacity="0.1">
<path d="M708 551.698C706.462 551.698 705.214 550.45 705.214 548.912V540.449C684.801 539.017 669 522.186 669 501.555C669 500.017 670.248 498.769 671.786 498.769C685.67 498.769 698.233 506.034 705.214 517.695V495.822C689.486 494.407 677.357 481.264 677.357 465.34C677.357 463.803 678.605 462.555 680.143 462.555C690.166 462.555 699.531 467.563 705.214 475.653V460.855C694.261 448.994 694.584 430.252 706.028 418.802C706.54 418.295 707.259 418 708 418C708.741 418 709.46 418.29 709.972 418.802C721.422 430.252 721.739 448.999 710.786 460.855V475.653C716.469 467.563 725.829 462.555 735.857 462.555C737.395 462.555 738.643 463.803 738.643 465.34C738.643 481.264 726.514 494.401 710.786 495.822V517.695C717.767 506.034 730.33 498.769 744.214 498.769C745.752 498.769 747 500.017 747 501.555C747 522.18 731.199 539.011 710.786 540.449V548.912C710.786 550.45 709.538 551.698 708 551.698ZM741.3 504.469C725.26 505.867 712.312 518.815 710.908 534.861C726.954 533.457 739.902 520.509 741.3 504.469ZM674.7 504.469C676.104 520.509 689.052 533.457 705.092 534.861C703.688 518.821 690.74 505.873 674.7 504.469ZM732.899 468.299C721.377 469.647 712.307 478.717 710.958 490.239C722.48 488.891 731.55 479.821 732.899 468.299ZM683.101 468.299C684.45 479.821 693.52 488.891 705.042 490.239C703.693 478.723 694.623 469.647 683.101 468.299ZM708 424.959C700.919 433.945 700.919 446.598 708 455.585C715.081 446.598 715.081 433.945 708 424.959Z" fill="#6B6B6B"/>
</g>
</svg>
