<svg width="580" height="270" viewBox="0 0 580 270" fill="none" xmlns="http://www.w3.org/2000/svg">
<g id="no-grades">
<g id="n-check">
<path id="Path" d="M520.28 115.76C520.76 117.68 521 119.84 521 122C521 135.2 510.2 146 497 146C483.8 146 473 135.2 473 122C473 108.8 483.8 98 497 98C501.56 98 505.88 99.2 509.72 101.6" stroke="#06806B"/>
<path id="Path_2" d="M487 117.545L496.6 127L523 101" stroke="#06806B" stroke-linecap="square"/>
</g>
<g id="n-check_2">
<path id="Path_3" d="M122.46 170.32C122.82 171.76 123 173.38 123 175C123 184.9 114.9 193 105 193C95.1 193 87 184.9 87 175C87 165.1 95.1 157 105 157C108.42 157 111.66 157.9 114.54 159.7" stroke="#06806B"/>
<path id="Path_4" d="M98 171.727L105.2 179L125 159" stroke="#06806B" stroke-linecap="square"/>
</g>
<g id="f-check">
<path id="Path_5" fill-rule="evenodd" clip-rule="evenodd" d="M60.6482 88.4004L36.5279 74.1241L42.7828 63.8688L56.5658 72.0267L77.4151 37.8424L87.7524 43.9608L60.6482 88.4004Z" stroke="#06806B" stroke-linecap="square"/>
</g>
<g id="f-check_2">
<path id="Path_6" fill-rule="evenodd" clip-rule="evenodd" d="M520.8 221L511 211.375L515.2 207.25L520.8 212.75L534.8 199L539 203.125L520.8 221Z" stroke="#06806B" stroke-linecap="square"/>
</g>
<g id="d-check">
<path id="Path_7" d="M27 233L39 245L63 221" stroke="#06806B" stroke-linecap="square"/>
</g>
<g id="d-check_2">
<path id="Path_8" d="M423 204L441 222L477 186" stroke="#06806B" stroke-linecap="square"/>
</g>
<g id="d-check_3">
<path id="Path_9" d="M415 61L420 66L430 56" stroke="#06806B" stroke-linecap="square"/>
</g>
<g id="d-check_4">
<path id="Path_10" d="M123 115L128 120L138 110" stroke="#06806B" stroke-linecap="square"/>
</g>
<g id="e-add">
<path id="Path_11" d="M166 45V76" stroke="#06806B" stroke-linecap="square"/>
<path id="Path_12" d="M181 60H150" stroke="#06806B" stroke-linecap="square"/>
</g>
<g id="e-add_2">
<path id="Path_13" d="M156.307 222.463L159.457 236.104" stroke="#06806B" stroke-linecap="square"/>
<path id="Path_14" d="M164.103 227.334L150.462 230.483" stroke="#06806B" stroke-linecap="square"/>
</g>
<g id="e-add_3">
<path id="Path_15" d="M423.5 157V171" stroke="#06806B" stroke-linecap="square"/>
<path id="Path_16" d="M430 163.5H416" stroke="#06806B" stroke-linecap="square"/>
</g>
<g id="e-add_4">
<path id="Path_17" d="M542.707 31.824L535.207 61.9031" stroke="#06806B" stroke-linecap="square"/>
<path id="Path_18" d="M552.904 48.7951L522.824 41.2955" stroke="#06806B" stroke-linecap="square"/>
</g>
<g id="e-add_5">
<path id="Path_19" d="M42.2898 133.882L40.7552 155.828" stroke="#06806B" stroke-linecap="square"/>
<path id="Path_20" d="M51.7436 144.232L29.7972 142.697" stroke="#06806B" stroke-linecap="square"/>
</g>
<g id="Group">
<g id="Layer_3">
<g id="Group_2">
<g id="Group_3">
<g id="Vector" style="mix-blend-mode:multiply" opacity="0.11">
<path d="M381.236 255.297L217.707 255.283L217.975 50.5137L381.503 50.3799L381.236 255.297Z" fill="#363636"/>
</g>
<path id="Vector_2" d="M370.129 37.2589L205.324 37L205 243.135L369.806 243.394L370.129 37.2589Z" fill="#F7F7F7"/>
</g>
<g id="Group_4">
<g id="Group_5">
<path id="Vector_3" d="M235.156 162.215L243.332 170.391L257.48 154.039" stroke="#33A493" stroke-width="4.4937" stroke-miterlimit="10" stroke-linecap="square"/>
<g id="Group_6">
<path id="Vector_4" d="M273.242 156.747H340.03" stroke="#D7D7D7" stroke-width="4.4937" stroke-miterlimit="10" stroke-linecap="square"/>
<path id="Vector_5" d="M273.242 167.802H318.645" stroke="#D7D7D7" stroke-width="4.4937" stroke-miterlimit="10" stroke-linecap="square"/>
</g>
</g>
<g id="Group_7">
<path id="Vector_6" d="M249.285 95.8115H233.895V123.676H249.285V95.8115Z" fill="#E86C60"/>
<path id="Vector_7" d="M272.334 88.4287H256.943V123.677H272.334V88.4287Z" fill="#E86C60"/>
<path id="Vector_8" d="M295.387 80.0771H279.996V123.676H295.387V80.0771Z" fill="#E86C60"/>
<path id="Vector_9" d="M318.432 72.5332H303.041V123.676H318.432V72.5332Z" fill="#E86C60"/>
<path id="Vector_10" d="M341.483 60.9971H326.092V123.676H341.483V60.9971Z" fill="#E86C60"/>
</g>
<g id="Group_8">
<path id="Vector_11" d="M235.156 202.127L243.332 210.303L257.48 193.95" stroke="#33A493" stroke-width="4.4937" stroke-miterlimit="10" stroke-linecap="square"/>
<g id="Group_9">
<path id="Vector_12" d="M273.242 196.659H340.03" stroke="#D7D7D7" stroke-width="4.4937" stroke-miterlimit="10" stroke-linecap="square"/>
<path id="Vector_13" d="M273.242 207.713H327.107" stroke="#D7D7D7" stroke-width="4.4937" stroke-miterlimit="10" stroke-linecap="square"/>
</g>
</g>
</g>
<g id="Group_10">
<g id="Group_11" style="mix-blend-mode:multiply" opacity="0.2">
<path id="Vector_14" opacity="0.59" d="M347.469 224.746C358.413 224.746 368.321 220.31 375.492 213.138C382.664 205.967 387.1 196.058 387.1 185.115C387.1 163.228 369.356 145.483 347.468 145.483C325.579 145.483 307.836 163.227 307.836 185.115C307.836 207.004 325.579 224.747 347.468 224.747L347.469 224.746Z" fill="white" stroke="#363636" stroke-width="0.154331" stroke-miterlimit="10"/>
<path id="Vector_15" d="M347.469 224.746C358.413 224.746 368.321 220.31 375.492 213.138C382.664 205.967 387.1 196.058 387.1 185.115C387.1 163.228 369.356 145.483 347.468 145.483C325.579 145.483 307.836 163.227 307.836 185.115C307.836 207.004 325.579 224.747 347.468 224.747L347.469 224.746Z" stroke="#363636" stroke-width="12.4586" stroke-miterlimit="10" stroke-linecap="round"/>
<path id="Vector_16" d="M416.253 253.405L375.494 213.138" stroke="#363636" stroke-width="12.4586" stroke-miterlimit="10" stroke-linecap="square"/>
</g>
<g id="Group_12">
<path id="Vector_17" opacity="0.59" d="M345.922 212.381C356.866 212.381 366.774 207.945 373.945 200.773C381.117 193.602 385.553 183.693 385.553 172.75C385.553 150.863 367.809 133.118 345.921 133.118C324.032 133.118 306.289 150.861 306.289 172.75C306.289 194.639 324.032 212.382 345.921 212.382L345.922 212.381Z" fill="white"/>
<path id="Vector_18" d="M345.922 212.381C356.866 212.381 366.774 207.945 373.945 200.773C381.117 193.602 385.553 183.693 385.553 172.75C385.553 150.863 367.809 133.118 345.921 133.118C324.032 133.118 306.289 150.861 306.289 172.75C306.289 194.639 324.032 212.382 345.921 212.382L345.922 212.381Z" stroke="#E2AC4B" stroke-width="12.4586" stroke-miterlimit="10" stroke-linecap="round"/>
<path id="Vector_19" d="M414.706 241.039L373.947 200.771" stroke="#E2AC4B" stroke-width="12.4586" stroke-miterlimit="10" stroke-linecap="square"/>
</g>
</g>
</g>
</g>
</g>
</g>
</svg>
