<svg width="1280" height="198" viewBox="0 0 1280 198" fill="none" xmlns="http://www.w3.org/2000/svg">
<g opacity="0.05">
<path fill-rule="evenodd" clip-rule="evenodd" d="M28.1875 169.039V187.086C28.1875 187.489 27.9995 187.854 27.7095 188.085C27.4839 188.912 27.4839 191.27 27.7095 192.097C27.9995 192.333 28.1875 192.699 28.1875 193.102V193.961C28.1875 194.675 27.6128 195.25 26.8984 195.25H9.28125C6.43457 195.25 4.125 192.94 4.125 190.094V172.906C4.125 170.06 6.43457 167.75 9.28125 167.75H26.8984C27.6128 167.75 28.1875 168.325 28.1875 169.039ZM9.28125 191.812H24.6104C24.5083 190.894 24.5083 189.293 24.6104 188.375H9.28125C8.33594 188.375 7.5625 189.148 7.5625 190.094C7.5625 191.044 8.33057 191.812 9.28125 191.812ZM8.25 171.188C8.25 170.808 8.5578 170.5 8.9375 170.5C9.3172 170.5 9.625 170.808 9.625 171.188V184.938C9.625 185.317 9.3172 185.625 8.9375 185.625C8.5578 185.625 8.25 185.317 8.25 184.938V171.188ZM14.25 174.625C13.9739 174.625 13.75 174.849 13.75 175.125V175.5C13.75 175.776 13.9739 176 14.25 176H22.875C23.1511 176 23.375 175.776 23.375 175.5V175.125C23.375 174.849 23.1511 174.625 22.875 174.625H14.25Z" fill="white"/>
<path fill-rule="evenodd" clip-rule="evenodd" d="M124.188 169.039V187.086C124.188 187.489 124 187.854 123.709 188.085C123.484 188.912 123.484 191.27 123.709 192.097C124 192.333 124.188 192.699 124.188 193.102V193.961C124.188 194.675 123.613 195.25 122.898 195.25H105.281C102.435 195.25 100.125 192.94 100.125 190.094V172.906C100.125 170.06 102.435 167.75 105.281 167.75H122.898C123.613 167.75 124.188 168.325 124.188 169.039ZM105.281 191.812H120.61C120.508 190.894 120.508 189.293 120.61 188.375H105.281C104.336 188.375 103.562 189.148 103.562 190.094C103.562 191.044 104.331 191.812 105.281 191.812ZM104.25 171.188C104.25 170.808 104.558 170.5 104.938 170.5C105.317 170.5 105.625 170.808 105.625 171.188V184.938C105.625 185.317 105.317 185.625 104.938 185.625C104.558 185.625 104.25 185.317 104.25 184.938V171.188ZM110.25 174.625C109.974 174.625 109.75 174.849 109.75 175.125V175.5C109.75 175.776 109.974 176 110.25 176H118.875C119.151 176 119.375 175.776 119.375 175.5V175.125C119.375 174.849 119.151 174.625 118.875 174.625H110.25Z" fill="white"/>
<path fill-rule="evenodd" clip-rule="evenodd" d="M220.188 169.039V187.086C220.188 187.489 220 187.854 219.709 188.085C219.484 188.912 219.484 191.27 219.709 192.097C220 192.333 220.188 192.699 220.188 193.102V193.961C220.188 194.675 219.613 195.25 218.898 195.25H201.281C198.435 195.25 196.125 192.94 196.125 190.094V172.906C196.125 170.06 198.435 167.75 201.281 167.75H218.898C219.613 167.75 220.188 168.325 220.188 169.039ZM201.281 191.812H216.61C216.508 190.894 216.508 189.293 216.61 188.375H201.281C200.336 188.375 199.562 189.148 199.562 190.094C199.562 191.044 200.331 191.812 201.281 191.812ZM200.25 171.188C200.25 170.808 200.558 170.5 200.938 170.5C201.317 170.5 201.625 170.808 201.625 171.188V184.938C201.625 185.317 201.317 185.625 200.938 185.625C200.558 185.625 200.25 185.317 200.25 184.938V171.188ZM206.25 174.625C205.974 174.625 205.75 174.849 205.75 175.125V175.5C205.75 175.776 205.974 176 206.25 176H214.875C215.151 176 215.375 175.776 215.375 175.5V175.125C215.375 174.849 215.151 174.625 214.875 174.625H206.25Z" fill="white"/>
<path fill-rule="evenodd" clip-rule="evenodd" d="M316.188 169.039V187.086C316.188 187.489 316 187.854 315.709 188.085C315.484 188.912 315.484 191.27 315.709 192.097C316 192.333 316.188 192.699 316.188 193.102V193.961C316.188 194.675 315.613 195.25 314.898 195.25H297.281C294.435 195.25 292.125 192.94 292.125 190.094V172.906C292.125 170.06 294.435 167.75 297.281 167.75H314.898C315.613 167.75 316.188 168.325 316.188 169.039ZM297.281 191.812H312.61C312.508 190.894 312.508 189.293 312.61 188.375H297.281C296.336 188.375 295.562 189.148 295.562 190.094C295.562 191.044 296.331 191.812 297.281 191.812ZM296.25 171.188C296.25 170.808 296.558 170.5 296.938 170.5C297.317 170.5 297.625 170.808 297.625 171.188V184.938C297.625 185.317 297.317 185.625 296.938 185.625C296.558 185.625 296.25 185.317 296.25 184.938V171.188ZM302.25 174.625C301.974 174.625 301.75 174.849 301.75 175.125V175.5C301.75 175.776 301.974 176 302.25 176H310.875C311.151 176 311.375 175.776 311.375 175.5V175.125C311.375 174.849 311.151 174.625 310.875 174.625H302.25Z" fill="white"/>
<path fill-rule="evenodd" clip-rule="evenodd" d="M412.188 169.039V187.086C412.188 187.489 412 187.854 411.709 188.085C411.484 188.912 411.484 191.27 411.709 192.097C412 192.333 412.188 192.699 412.188 193.102V193.961C412.188 194.675 411.613 195.25 410.898 195.25H393.281C390.435 195.25 388.125 192.94 388.125 190.094V172.906C388.125 170.06 390.435 167.75 393.281 167.75H410.898C411.613 167.75 412.188 168.325 412.188 169.039ZM393.281 191.812H408.61C408.508 190.894 408.508 189.293 408.61 188.375H393.281C392.336 188.375 391.562 189.148 391.562 190.094C391.562 191.044 392.331 191.812 393.281 191.812ZM392.25 171.188C392.25 170.808 392.558 170.5 392.938 170.5C393.317 170.5 393.625 170.808 393.625 171.188V184.938C393.625 185.317 393.317 185.625 392.938 185.625C392.558 185.625 392.25 185.317 392.25 184.938V171.188ZM398.25 174.625C397.974 174.625 397.75 174.849 397.75 175.125V175.5C397.75 175.776 397.974 176 398.25 176H406.875C407.151 176 407.375 175.776 407.375 175.5V175.125C407.375 174.849 407.151 174.625 406.875 174.625H398.25Z" fill="white"/>
<path fill-rule="evenodd" clip-rule="evenodd" d="M508.188 169.039V187.086C508.188 187.489 508 187.854 507.709 188.085C507.484 188.912 507.484 191.27 507.709 192.097C508 192.333 508.188 192.699 508.188 193.102V193.961C508.188 194.675 507.613 195.25 506.898 195.25H489.281C486.435 195.25 484.125 192.94 484.125 190.094V172.906C484.125 170.06 486.435 167.75 489.281 167.75H506.898C507.613 167.75 508.188 168.325 508.188 169.039ZM489.281 191.812H504.61C504.508 190.894 504.508 189.293 504.61 188.375H489.281C488.336 188.375 487.562 189.148 487.562 190.094C487.562 191.044 488.331 191.812 489.281 191.812ZM488.25 171.188C488.25 170.808 488.558 170.5 488.938 170.5C489.317 170.5 489.625 170.808 489.625 171.188V184.938C489.625 185.317 489.317 185.625 488.938 185.625C488.558 185.625 488.25 185.317 488.25 184.938V171.188ZM494.25 174.625C493.974 174.625 493.75 174.849 493.75 175.125V175.5C493.75 175.776 493.974 176 494.25 176H502.875C503.151 176 503.375 175.776 503.375 175.5V175.125C503.375 174.849 503.151 174.625 502.875 174.625H494.25Z" fill="white"/>
<path fill-rule="evenodd" clip-rule="evenodd" d="M604.188 169.039V187.086C604.188 187.489 604 187.854 603.709 188.085C603.484 188.912 603.484 191.27 603.709 192.097C604 192.333 604.188 192.699 604.188 193.102V193.961C604.188 194.675 603.613 195.25 602.898 195.25H585.281C582.435 195.25 580.125 192.94 580.125 190.094V172.906C580.125 170.06 582.435 167.75 585.281 167.75H602.898C603.613 167.75 604.188 168.325 604.188 169.039ZM585.281 191.812H600.61C600.508 190.894 600.508 189.293 600.61 188.375H585.281C584.336 188.375 583.562 189.148 583.562 190.094C583.562 191.044 584.331 191.812 585.281 191.812ZM584.25 171.188C584.25 170.808 584.558 170.5 584.938 170.5C585.317 170.5 585.625 170.808 585.625 171.188V184.938C585.625 185.317 585.317 185.625 584.938 185.625C584.558 185.625 584.25 185.317 584.25 184.938V171.188ZM590.25 174.625C589.974 174.625 589.75 174.849 589.75 175.125V175.5C589.75 175.776 589.974 176 590.25 176H598.875C599.151 176 599.375 175.776 599.375 175.5V175.125C599.375 174.849 599.151 174.625 598.875 174.625H590.25Z" fill="white"/>
<path fill-rule="evenodd" clip-rule="evenodd" d="M700.188 169.039V187.086C700.188 187.489 700 187.854 699.709 188.085C699.484 188.912 699.484 191.27 699.709 192.097C700 192.333 700.188 192.699 700.188 193.102V193.961C700.188 194.675 699.613 195.25 698.898 195.25H681.281C678.435 195.25 676.125 192.94 676.125 190.094V172.906C676.125 170.06 678.435 167.75 681.281 167.75H698.898C699.613 167.75 700.188 168.325 700.188 169.039ZM681.281 191.812H696.61C696.508 190.894 696.508 189.293 696.61 188.375H681.281C680.336 188.375 679.562 189.148 679.562 190.094C679.562 191.044 680.331 191.812 681.281 191.812ZM680.25 171.188C680.25 170.808 680.558 170.5 680.938 170.5C681.317 170.5 681.625 170.808 681.625 171.188V184.938C681.625 185.317 681.317 185.625 680.938 185.625C680.558 185.625 680.25 185.317 680.25 184.938V171.188ZM686.25 174.625C685.974 174.625 685.75 174.849 685.75 175.125V175.5C685.75 175.776 685.974 176 686.25 176H694.875C695.151 176 695.375 175.776 695.375 175.5V175.125C695.375 174.849 695.151 174.625 694.875 174.625H686.25Z" fill="white"/>
<path fill-rule="evenodd" clip-rule="evenodd" d="M796.188 169.039V187.086C796.188 187.489 796 187.854 795.709 188.085C795.484 188.912 795.484 191.27 795.709 192.097C796 192.333 796.188 192.699 796.188 193.102V193.961C796.188 194.675 795.613 195.25 794.898 195.25H777.281C774.435 195.25 772.125 192.94 772.125 190.094V172.906C772.125 170.06 774.435 167.75 777.281 167.75H794.898C795.613 167.75 796.188 168.325 796.188 169.039ZM777.281 191.812H792.61C792.508 190.894 792.508 189.293 792.61 188.375H777.281C776.336 188.375 775.562 189.148 775.562 190.094C775.562 191.044 776.331 191.812 777.281 191.812ZM776.25 171.188C776.25 170.808 776.558 170.5 776.938 170.5C777.317 170.5 777.625 170.808 777.625 171.188V184.938C777.625 185.317 777.317 185.625 776.938 185.625C776.558 185.625 776.25 185.317 776.25 184.938V171.188ZM782.25 174.625C781.974 174.625 781.75 174.849 781.75 175.125V175.5C781.75 175.776 781.974 176 782.25 176H790.875C791.151 176 791.375 175.776 791.375 175.5V175.125C791.375 174.849 791.151 174.625 790.875 174.625H782.25Z" fill="white"/>
<path fill-rule="evenodd" clip-rule="evenodd" d="M892.188 169.039V187.086C892.188 187.489 892 187.854 891.709 188.085C891.484 188.912 891.484 191.27 891.709 192.097C892 192.333 892.188 192.699 892.188 193.102V193.961C892.188 194.675 891.613 195.25 890.898 195.25H873.281C870.435 195.25 868.125 192.94 868.125 190.094V172.906C868.125 170.06 870.435 167.75 873.281 167.75H890.898C891.613 167.75 892.188 168.325 892.188 169.039ZM873.281 191.812H888.61C888.508 190.894 888.508 189.293 888.61 188.375H873.281C872.336 188.375 871.562 189.148 871.562 190.094C871.562 191.044 872.331 191.812 873.281 191.812ZM872.25 171.188C872.25 170.808 872.558 170.5 872.938 170.5C873.317 170.5 873.625 170.808 873.625 171.188V184.938C873.625 185.317 873.317 185.625 872.938 185.625C872.558 185.625 872.25 185.317 872.25 184.938V171.188ZM878.25 174.625C877.974 174.625 877.75 174.849 877.75 175.125V175.5C877.75 175.776 877.974 176 878.25 176H886.875C887.151 176 887.375 175.776 887.375 175.5V175.125C887.375 174.849 887.151 174.625 886.875 174.625H878.25Z" fill="white"/>
<path fill-rule="evenodd" clip-rule="evenodd" d="M988.188 169.039V187.086C988.188 187.489 988 187.854 987.709 188.085C987.484 188.912 987.484 191.27 987.709 192.097C988 192.333 988.188 192.699 988.188 193.102V193.961C988.188 194.675 987.613 195.25 986.898 195.25H969.281C966.435 195.25 964.125 192.94 964.125 190.094V172.906C964.125 170.06 966.435 167.75 969.281 167.75H986.898C987.613 167.75 988.188 168.325 988.188 169.039ZM969.281 191.812H984.61C984.508 190.894 984.508 189.293 984.61 188.375H969.281C968.336 188.375 967.562 189.148 967.562 190.094C967.562 191.044 968.331 191.812 969.281 191.812ZM968.25 171.188C968.25 170.808 968.558 170.5 968.938 170.5C969.317 170.5 969.625 170.808 969.625 171.188V184.938C969.625 185.317 969.317 185.625 968.938 185.625C968.558 185.625 968.25 185.317 968.25 184.938V171.188ZM974.25 174.625C973.974 174.625 973.75 174.849 973.75 175.125V175.5C973.75 175.776 973.974 176 974.25 176H982.875C983.151 176 983.375 175.776 983.375 175.5V175.125C983.375 174.849 983.151 174.625 982.875 174.625H974.25Z" fill="white"/>
<path fill-rule="evenodd" clip-rule="evenodd" d="M1084.19 169.039V187.086C1084.19 187.489 1084 187.854 1083.71 188.085C1083.48 188.912 1083.48 191.27 1083.71 192.097C1084 192.333 1084.19 192.699 1084.19 193.102V193.961C1084.19 194.675 1083.61 195.25 1082.9 195.25H1065.28C1062.43 195.25 1060.12 192.94 1060.12 190.094V172.906C1060.12 170.06 1062.43 167.75 1065.28 167.75H1082.9C1083.61 167.75 1084.19 168.325 1084.19 169.039ZM1065.28 191.812H1080.61C1080.51 190.894 1080.51 189.293 1080.61 188.375H1065.28C1064.34 188.375 1063.56 189.148 1063.56 190.094C1063.56 191.044 1064.33 191.812 1065.28 191.812ZM1064.25 171.188C1064.25 170.808 1064.56 170.5 1064.94 170.5C1065.32 170.5 1065.62 170.808 1065.62 171.188V184.938C1065.62 185.317 1065.32 185.625 1064.94 185.625C1064.56 185.625 1064.25 185.317 1064.25 184.938V171.188ZM1070.25 174.625C1069.97 174.625 1069.75 174.849 1069.75 175.125V175.5C1069.75 175.776 1069.97 176 1070.25 176H1078.88C1079.15 176 1079.38 175.776 1079.38 175.5V175.125C1079.38 174.849 1079.15 174.625 1078.88 174.625H1070.25Z" fill="white"/>
<path fill-rule="evenodd" clip-rule="evenodd" d="M1180.19 169.039V187.086C1180.19 187.489 1180 187.854 1179.71 188.085C1179.48 188.912 1179.48 191.27 1179.71 192.097C1180 192.333 1180.19 192.699 1180.19 193.102V193.961C1180.19 194.675 1179.61 195.25 1178.9 195.25H1161.28C1158.43 195.25 1156.12 192.94 1156.12 190.094V172.906C1156.12 170.06 1158.43 167.75 1161.28 167.75H1178.9C1179.61 167.75 1180.19 168.325 1180.19 169.039ZM1161.28 191.812H1176.61C1176.51 190.894 1176.51 189.293 1176.61 188.375H1161.28C1160.34 188.375 1159.56 189.148 1159.56 190.094C1159.56 191.044 1160.33 191.812 1161.28 191.812ZM1160.25 171.188C1160.25 170.808 1160.56 170.5 1160.94 170.5C1161.32 170.5 1161.62 170.808 1161.62 171.188V184.938C1161.62 185.317 1161.32 185.625 1160.94 185.625C1160.56 185.625 1160.25 185.317 1160.25 184.938V171.188ZM1166.25 174.625C1165.97 174.625 1165.75 174.849 1165.75 175.125V175.5C1165.75 175.776 1165.97 176 1166.25 176H1174.88C1175.15 176 1175.38 175.776 1175.38 175.5V175.125C1175.38 174.849 1175.15 174.625 1174.88 174.625H1166.25Z" fill="white"/>
<path fill-rule="evenodd" clip-rule="evenodd" d="M1276.19 169.039V187.086C1276.19 187.489 1276 187.854 1275.71 188.085C1275.48 188.912 1275.48 191.27 1275.71 192.097C1276 192.333 1276.19 192.699 1276.19 193.102V193.961C1276.19 194.675 1275.61 195.25 1274.9 195.25H1257.28C1254.43 195.25 1252.12 192.94 1252.12 190.094V172.906C1252.12 170.06 1254.43 167.75 1257.28 167.75H1274.9C1275.61 167.75 1276.19 168.325 1276.19 169.039ZM1257.28 191.812H1272.61C1272.51 190.894 1272.51 189.293 1272.61 188.375H1257.28C1256.34 188.375 1255.56 189.148 1255.56 190.094C1255.56 191.044 1256.33 191.812 1257.28 191.812ZM1256.25 171.188C1256.25 170.808 1256.56 170.5 1256.94 170.5C1257.32 170.5 1257.62 170.808 1257.62 171.188V184.938C1257.62 185.317 1257.32 185.625 1256.94 185.625C1256.56 185.625 1256.25 185.317 1256.25 184.938V171.188ZM1262.25 174.625C1261.97 174.625 1261.75 174.849 1261.75 175.125V175.5C1261.75 175.776 1261.97 176 1262.25 176H1270.88C1271.15 176 1271.38 175.776 1271.38 175.5V175.125C1271.38 174.849 1271.15 174.625 1270.88 174.625H1262.25Z" fill="white"/>
<path fill-rule="evenodd" clip-rule="evenodd" d="M76.1875 114.039V132.086C76.1875 132.489 75.9995 132.854 75.7095 133.085C75.4839 133.912 75.4839 136.27 75.7095 137.097C75.9995 137.333 76.1875 137.699 76.1875 138.102V138.961C76.1875 139.675 75.6128 140.25 74.8984 140.25H57.2812C54.4346 140.25 52.125 137.94 52.125 135.094V117.906C52.125 115.06 54.4346 112.75 57.2812 112.75H74.8984C75.6128 112.75 76.1875 113.325 76.1875 114.039ZM57.2812 136.812H72.6104C72.5083 135.894 72.5083 134.293 72.6104 133.375H57.2812C56.3359 133.375 55.5625 134.148 55.5625 135.094C55.5625 136.044 56.3306 136.812 57.2812 136.812ZM56.25 116.188C56.25 115.808 56.5578 115.5 56.9375 115.5C57.3172 115.5 57.625 115.808 57.625 116.188V129.938C57.625 130.317 57.3172 130.625 56.9375 130.625C56.5578 130.625 56.25 130.317 56.25 129.938V116.188ZM62.25 119.625C61.9739 119.625 61.75 119.849 61.75 120.125V120.5C61.75 120.776 61.9739 121 62.25 121H70.875C71.1511 121 71.375 120.776 71.375 120.5V120.125C71.375 119.849 71.1511 119.625 70.875 119.625H62.25Z" fill="white"/>
<path fill-rule="evenodd" clip-rule="evenodd" d="M172.188 114.039V132.086C172.188 132.489 172 132.854 171.709 133.085C171.484 133.912 171.484 136.27 171.709 137.097C172 137.333 172.188 137.699 172.188 138.102V138.961C172.188 139.675 171.613 140.25 170.898 140.25H153.281C150.435 140.25 148.125 137.94 148.125 135.094V117.906C148.125 115.06 150.435 112.75 153.281 112.75H170.898C171.613 112.75 172.188 113.325 172.188 114.039ZM153.281 136.812H168.61C168.508 135.894 168.508 134.293 168.61 133.375H153.281C152.336 133.375 151.562 134.148 151.562 135.094C151.562 136.044 152.331 136.812 153.281 136.812ZM152.25 116.188C152.25 115.808 152.558 115.5 152.938 115.5C153.317 115.5 153.625 115.808 153.625 116.188V129.938C153.625 130.317 153.317 130.625 152.938 130.625C152.558 130.625 152.25 130.317 152.25 129.938V116.188ZM158.25 119.625C157.974 119.625 157.75 119.849 157.75 120.125V120.5C157.75 120.776 157.974 121 158.25 121H166.875C167.151 121 167.375 120.776 167.375 120.5V120.125C167.375 119.849 167.151 119.625 166.875 119.625H158.25Z" fill="white"/>
<path fill-rule="evenodd" clip-rule="evenodd" d="M268.188 114.039V132.086C268.188 132.489 268 132.854 267.709 133.085C267.484 133.912 267.484 136.27 267.709 137.097C268 137.333 268.188 137.699 268.188 138.102V138.961C268.188 139.675 267.613 140.25 266.898 140.25H249.281C246.435 140.25 244.125 137.94 244.125 135.094V117.906C244.125 115.06 246.435 112.75 249.281 112.75H266.898C267.613 112.75 268.188 113.325 268.188 114.039ZM249.281 136.812H264.61C264.508 135.894 264.508 134.293 264.61 133.375H249.281C248.336 133.375 247.562 134.148 247.562 135.094C247.562 136.044 248.331 136.812 249.281 136.812ZM248.25 116.188C248.25 115.808 248.558 115.5 248.938 115.5C249.317 115.5 249.625 115.808 249.625 116.188V129.938C249.625 130.317 249.317 130.625 248.938 130.625C248.558 130.625 248.25 130.317 248.25 129.938V116.188ZM254.25 119.625C253.974 119.625 253.75 119.849 253.75 120.125V120.5C253.75 120.776 253.974 121 254.25 121H262.875C263.151 121 263.375 120.776 263.375 120.5V120.125C263.375 119.849 263.151 119.625 262.875 119.625H254.25Z" fill="white"/>
<path fill-rule="evenodd" clip-rule="evenodd" d="M364.188 114.039V132.086C364.188 132.489 364 132.854 363.709 133.085C363.484 133.912 363.484 136.27 363.709 137.097C364 137.333 364.188 137.699 364.188 138.102V138.961C364.188 139.675 363.613 140.25 362.898 140.25H345.281C342.435 140.25 340.125 137.94 340.125 135.094V117.906C340.125 115.06 342.435 112.75 345.281 112.75H362.898C363.613 112.75 364.188 113.325 364.188 114.039ZM345.281 136.812H360.61C360.508 135.894 360.508 134.293 360.61 133.375H345.281C344.336 133.375 343.562 134.148 343.562 135.094C343.562 136.044 344.331 136.812 345.281 136.812ZM344.25 116.188C344.25 115.808 344.558 115.5 344.938 115.5C345.317 115.5 345.625 115.808 345.625 116.188V129.938C345.625 130.317 345.317 130.625 344.938 130.625C344.558 130.625 344.25 130.317 344.25 129.938V116.188ZM350.25 119.625C349.974 119.625 349.75 119.849 349.75 120.125V120.5C349.75 120.776 349.974 121 350.25 121H358.875C359.151 121 359.375 120.776 359.375 120.5V120.125C359.375 119.849 359.151 119.625 358.875 119.625H350.25Z" fill="white"/>
<path fill-rule="evenodd" clip-rule="evenodd" d="M460.188 114.039V132.086C460.188 132.489 460 132.854 459.709 133.085C459.484 133.912 459.484 136.27 459.709 137.097C460 137.333 460.188 137.699 460.188 138.102V138.961C460.188 139.675 459.613 140.25 458.898 140.25H441.281C438.435 140.25 436.125 137.94 436.125 135.094V117.906C436.125 115.06 438.435 112.75 441.281 112.75H458.898C459.613 112.75 460.188 113.325 460.188 114.039ZM441.281 136.812H456.61C456.508 135.894 456.508 134.293 456.61 133.375H441.281C440.336 133.375 439.562 134.148 439.562 135.094C439.562 136.044 440.331 136.812 441.281 136.812ZM440.25 116.188C440.25 115.808 440.558 115.5 440.938 115.5C441.317 115.5 441.625 115.808 441.625 116.188V129.938C441.625 130.317 441.317 130.625 440.938 130.625C440.558 130.625 440.25 130.317 440.25 129.938V116.188ZM446.25 119.625C445.974 119.625 445.75 119.849 445.75 120.125V120.5C445.75 120.776 445.974 121 446.25 121H454.875C455.151 121 455.375 120.776 455.375 120.5V120.125C455.375 119.849 455.151 119.625 454.875 119.625H446.25Z" fill="white"/>
<path fill-rule="evenodd" clip-rule="evenodd" d="M556.188 114.039V132.086C556.188 132.489 556 132.854 555.709 133.085C555.484 133.912 555.484 136.27 555.709 137.097C556 137.333 556.188 137.699 556.188 138.102V138.961C556.188 139.675 555.613 140.25 554.898 140.25H537.281C534.435 140.25 532.125 137.94 532.125 135.094V117.906C532.125 115.06 534.435 112.75 537.281 112.75H554.898C555.613 112.75 556.188 113.325 556.188 114.039ZM537.281 136.812H552.61C552.508 135.894 552.508 134.293 552.61 133.375H537.281C536.336 133.375 535.562 134.148 535.562 135.094C535.562 136.044 536.331 136.812 537.281 136.812ZM536.25 116.188C536.25 115.808 536.558 115.5 536.938 115.5C537.317 115.5 537.625 115.808 537.625 116.188V129.938C537.625 130.317 537.317 130.625 536.938 130.625C536.558 130.625 536.25 130.317 536.25 129.938V116.188ZM542.25 119.625C541.974 119.625 541.75 119.849 541.75 120.125V120.5C541.75 120.776 541.974 121 542.25 121H550.875C551.151 121 551.375 120.776 551.375 120.5V120.125C551.375 119.849 551.151 119.625 550.875 119.625H542.25Z" fill="white"/>
<path fill-rule="evenodd" clip-rule="evenodd" d="M652.188 114.039V132.086C652.188 132.489 652 132.854 651.709 133.085C651.484 133.912 651.484 136.27 651.709 137.097C652 137.333 652.188 137.699 652.188 138.102V138.961C652.188 139.675 651.613 140.25 650.898 140.25H633.281C630.435 140.25 628.125 137.94 628.125 135.094V117.906C628.125 115.06 630.435 112.75 633.281 112.75H650.898C651.613 112.75 652.188 113.325 652.188 114.039ZM633.281 136.812H648.61C648.508 135.894 648.508 134.293 648.61 133.375H633.281C632.336 133.375 631.562 134.148 631.562 135.094C631.562 136.044 632.331 136.812 633.281 136.812ZM632.25 116.188C632.25 115.808 632.558 115.5 632.938 115.5C633.317 115.5 633.625 115.808 633.625 116.188V129.938C633.625 130.317 633.317 130.625 632.938 130.625C632.558 130.625 632.25 130.317 632.25 129.938V116.188ZM638.25 119.625C637.974 119.625 637.75 119.849 637.75 120.125V120.5C637.75 120.776 637.974 121 638.25 121H646.875C647.151 121 647.375 120.776 647.375 120.5V120.125C647.375 119.849 647.151 119.625 646.875 119.625H638.25Z" fill="white"/>
<path fill-rule="evenodd" clip-rule="evenodd" d="M748.188 114.039V132.086C748.188 132.489 748 132.854 747.709 133.085C747.484 133.912 747.484 136.27 747.709 137.097C748 137.333 748.188 137.699 748.188 138.102V138.961C748.188 139.675 747.613 140.25 746.898 140.25H729.281C726.435 140.25 724.125 137.94 724.125 135.094V117.906C724.125 115.06 726.435 112.75 729.281 112.75H746.898C747.613 112.75 748.188 113.325 748.188 114.039ZM729.281 136.812H744.61C744.508 135.894 744.508 134.293 744.61 133.375H729.281C728.336 133.375 727.562 134.148 727.562 135.094C727.562 136.044 728.331 136.812 729.281 136.812ZM728.25 116.188C728.25 115.808 728.558 115.5 728.938 115.5C729.317 115.5 729.625 115.808 729.625 116.188V129.938C729.625 130.317 729.317 130.625 728.938 130.625C728.558 130.625 728.25 130.317 728.25 129.938V116.188ZM734.25 119.625C733.974 119.625 733.75 119.849 733.75 120.125V120.5C733.75 120.776 733.974 121 734.25 121H742.875C743.151 121 743.375 120.776 743.375 120.5V120.125C743.375 119.849 743.151 119.625 742.875 119.625H734.25Z" fill="white"/>
<path fill-rule="evenodd" clip-rule="evenodd" d="M844.188 114.039V132.086C844.188 132.489 844 132.854 843.709 133.085C843.484 133.912 843.484 136.27 843.709 137.097C844 137.333 844.188 137.699 844.188 138.102V138.961C844.188 139.675 843.613 140.25 842.898 140.25H825.281C822.435 140.25 820.125 137.94 820.125 135.094V117.906C820.125 115.06 822.435 112.75 825.281 112.75H842.898C843.613 112.75 844.188 113.325 844.188 114.039ZM825.281 136.812H840.61C840.508 135.894 840.508 134.293 840.61 133.375H825.281C824.336 133.375 823.562 134.148 823.562 135.094C823.562 136.044 824.331 136.812 825.281 136.812ZM824.25 116.188C824.25 115.808 824.558 115.5 824.938 115.5C825.317 115.5 825.625 115.808 825.625 116.188V129.938C825.625 130.317 825.317 130.625 824.938 130.625C824.558 130.625 824.25 130.317 824.25 129.938V116.188ZM830.25 119.625C829.974 119.625 829.75 119.849 829.75 120.125V120.5C829.75 120.776 829.974 121 830.25 121H838.875C839.151 121 839.375 120.776 839.375 120.5V120.125C839.375 119.849 839.151 119.625 838.875 119.625H830.25Z" fill="white"/>
<path fill-rule="evenodd" clip-rule="evenodd" d="M940.188 114.039V132.086C940.188 132.489 940 132.854 939.709 133.085C939.484 133.912 939.484 136.27 939.709 137.097C940 137.333 940.188 137.699 940.188 138.102V138.961C940.188 139.675 939.613 140.25 938.898 140.25H921.281C918.435 140.25 916.125 137.94 916.125 135.094V117.906C916.125 115.06 918.435 112.75 921.281 112.75H938.898C939.613 112.75 940.188 113.325 940.188 114.039ZM921.281 136.812H936.61C936.508 135.894 936.508 134.293 936.61 133.375H921.281C920.336 133.375 919.562 134.148 919.562 135.094C919.562 136.044 920.331 136.812 921.281 136.812ZM920.25 116.188C920.25 115.808 920.558 115.5 920.938 115.5C921.317 115.5 921.625 115.808 921.625 116.188V129.938C921.625 130.317 921.317 130.625 920.938 130.625C920.558 130.625 920.25 130.317 920.25 129.938V116.188ZM926.25 119.625C925.974 119.625 925.75 119.849 925.75 120.125V120.5C925.75 120.776 925.974 121 926.25 121H934.875C935.151 121 935.375 120.776 935.375 120.5V120.125C935.375 119.849 935.151 119.625 934.875 119.625H926.25Z" fill="white"/>
<path fill-rule="evenodd" clip-rule="evenodd" d="M1036.19 114.039V132.086C1036.19 132.489 1036 132.854 1035.71 133.085C1035.48 133.912 1035.48 136.27 1035.71 137.097C1036 137.333 1036.19 137.699 1036.19 138.102V138.961C1036.19 139.675 1035.61 140.25 1034.9 140.25H1017.28C1014.43 140.25 1012.12 137.94 1012.12 135.094V117.906C1012.12 115.06 1014.43 112.75 1017.28 112.75H1034.9C1035.61 112.75 1036.19 113.325 1036.19 114.039ZM1017.28 136.812H1032.61C1032.51 135.894 1032.51 134.293 1032.61 133.375H1017.28C1016.34 133.375 1015.56 134.148 1015.56 135.094C1015.56 136.044 1016.33 136.812 1017.28 136.812ZM1016.25 116.188C1016.25 115.808 1016.56 115.5 1016.94 115.5C1017.32 115.5 1017.62 115.808 1017.62 116.188V129.938C1017.62 130.317 1017.32 130.625 1016.94 130.625C1016.56 130.625 1016.25 130.317 1016.25 129.938V116.188ZM1022.25 119.625C1021.97 119.625 1021.75 119.849 1021.75 120.125V120.5C1021.75 120.776 1021.97 121 1022.25 121H1030.88C1031.15 121 1031.38 120.776 1031.38 120.5V120.125C1031.38 119.849 1031.15 119.625 1030.88 119.625H1022.25Z" fill="white"/>
<path fill-rule="evenodd" clip-rule="evenodd" d="M1132.19 114.039V132.086C1132.19 132.489 1132 132.854 1131.71 133.085C1131.48 133.912 1131.48 136.27 1131.71 137.097C1132 137.333 1132.19 137.699 1132.19 138.102V138.961C1132.19 139.675 1131.61 140.25 1130.9 140.25H1113.28C1110.43 140.25 1108.12 137.94 1108.12 135.094V117.906C1108.12 115.06 1110.43 112.75 1113.28 112.75H1130.9C1131.61 112.75 1132.19 113.325 1132.19 114.039ZM1113.28 136.812H1128.61C1128.51 135.894 1128.51 134.293 1128.61 133.375H1113.28C1112.34 133.375 1111.56 134.148 1111.56 135.094C1111.56 136.044 1112.33 136.812 1113.28 136.812ZM1112.25 116.188C1112.25 115.808 1112.56 115.5 1112.94 115.5C1113.32 115.5 1113.62 115.808 1113.62 116.188V129.938C1113.62 130.317 1113.32 130.625 1112.94 130.625C1112.56 130.625 1112.25 130.317 1112.25 129.938V116.188ZM1118.25 119.625C1117.97 119.625 1117.75 119.849 1117.75 120.125V120.5C1117.75 120.776 1117.97 121 1118.25 121H1126.88C1127.15 121 1127.38 120.776 1127.38 120.5V120.125C1127.38 119.849 1127.15 119.625 1126.88 119.625H1118.25Z" fill="white"/>
<path fill-rule="evenodd" clip-rule="evenodd" d="M1228.19 114.039V132.086C1228.19 132.489 1228 132.854 1227.71 133.085C1227.48 133.912 1227.48 136.27 1227.71 137.097C1228 137.333 1228.19 137.699 1228.19 138.102V138.961C1228.19 139.675 1227.61 140.25 1226.9 140.25H1209.28C1206.43 140.25 1204.12 137.94 1204.12 135.094V117.906C1204.12 115.06 1206.43 112.75 1209.28 112.75H1226.9C1227.61 112.75 1228.19 113.325 1228.19 114.039ZM1209.28 136.812H1224.61C1224.51 135.894 1224.51 134.293 1224.61 133.375H1209.28C1208.34 133.375 1207.56 134.148 1207.56 135.094C1207.56 136.044 1208.33 136.812 1209.28 136.812ZM1208.25 116.188C1208.25 115.808 1208.56 115.5 1208.94 115.5C1209.32 115.5 1209.62 115.808 1209.62 116.188V129.938C1209.62 130.317 1209.32 130.625 1208.94 130.625C1208.56 130.625 1208.25 130.317 1208.25 129.938V116.188ZM1214.25 119.625C1213.97 119.625 1213.75 119.849 1213.75 120.125V120.5C1213.75 120.776 1213.97 121 1214.25 121H1222.88C1223.15 121 1223.38 120.776 1223.38 120.5V120.125C1223.38 119.849 1223.15 119.625 1222.88 119.625H1214.25Z" fill="white"/>
<path fill-rule="evenodd" clip-rule="evenodd" d="M28.1875 59.0391V77.0859C28.1875 77.4888 27.9995 77.854 27.7095 78.085C27.4839 78.9121 27.4839 81.27 27.7095 82.0972C27.9995 82.3335 28.1875 82.6987 28.1875 83.1016V83.9609C28.1875 84.6753 27.6128 85.25 26.8984 85.25H9.28125C6.43457 85.25 4.125 82.9404 4.125 80.0938V62.9062C4.125 60.0596 6.43457 57.75 9.28125 57.75H26.8984C27.6128 57.75 28.1875 58.3247 28.1875 59.0391ZM9.28125 81.8125H24.6104C24.5083 80.894 24.5083 79.2935 24.6104 78.375H9.28125C8.33594 78.375 7.5625 79.1484 7.5625 80.0938C7.5625 81.0444 8.33057 81.8125 9.28125 81.8125ZM8.25 61.1875C8.25 60.8078 8.5578 60.5 8.9375 60.5C9.3172 60.5 9.625 60.8078 9.625 61.1875V74.9375C9.625 75.3172 9.3172 75.625 8.9375 75.625C8.5578 75.625 8.25 75.3172 8.25 74.9375V61.1875ZM14.25 64.625C13.9739 64.625 13.75 64.8489 13.75 65.125V65.5C13.75 65.7761 13.9739 66 14.25 66H22.875C23.1511 66 23.375 65.7761 23.375 65.5V65.125C23.375 64.8489 23.1511 64.625 22.875 64.625H14.25Z" fill="white"/>
<path fill-rule="evenodd" clip-rule="evenodd" d="M124.188 59.0391V77.0859C124.188 77.4888 124 77.854 123.709 78.085C123.484 78.9121 123.484 81.27 123.709 82.0972C124 82.3335 124.188 82.6987 124.188 83.1016V83.9609C124.188 84.6753 123.613 85.25 122.898 85.25H105.281C102.435 85.25 100.125 82.9404 100.125 80.0938V62.9062C100.125 60.0596 102.435 57.75 105.281 57.75H122.898C123.613 57.75 124.188 58.3247 124.188 59.0391ZM105.281 81.8125H120.61C120.508 80.894 120.508 79.2935 120.61 78.375H105.281C104.336 78.375 103.562 79.1484 103.562 80.0938C103.562 81.0444 104.331 81.8125 105.281 81.8125ZM104.25 61.1875C104.25 60.8078 104.558 60.5 104.938 60.5C105.317 60.5 105.625 60.8078 105.625 61.1875V74.9375C105.625 75.3172 105.317 75.625 104.938 75.625C104.558 75.625 104.25 75.3172 104.25 74.9375V61.1875ZM110.25 64.625C109.974 64.625 109.75 64.8489 109.75 65.125V65.5C109.75 65.7761 109.974 66 110.25 66H118.875C119.151 66 119.375 65.7761 119.375 65.5V65.125C119.375 64.8489 119.151 64.625 118.875 64.625H110.25Z" fill="white"/>
<path fill-rule="evenodd" clip-rule="evenodd" d="M220.188 59.0391V77.0859C220.188 77.4888 220 77.854 219.709 78.085C219.484 78.9121 219.484 81.27 219.709 82.0972C220 82.3335 220.188 82.6987 220.188 83.1016V83.9609C220.188 84.6753 219.613 85.25 218.898 85.25H201.281C198.435 85.25 196.125 82.9404 196.125 80.0938V62.9062C196.125 60.0596 198.435 57.75 201.281 57.75H218.898C219.613 57.75 220.188 58.3247 220.188 59.0391ZM201.281 81.8125H216.61C216.508 80.894 216.508 79.2935 216.61 78.375H201.281C200.336 78.375 199.562 79.1484 199.562 80.0938C199.562 81.0444 200.331 81.8125 201.281 81.8125ZM200.25 61.1875C200.25 60.8078 200.558 60.5 200.938 60.5C201.317 60.5 201.625 60.8078 201.625 61.1875V74.9375C201.625 75.3172 201.317 75.625 200.938 75.625C200.558 75.625 200.25 75.3172 200.25 74.9375V61.1875ZM206.25 64.625C205.974 64.625 205.75 64.8489 205.75 65.125V65.5C205.75 65.7761 205.974 66 206.25 66H214.875C215.151 66 215.375 65.7761 215.375 65.5V65.125C215.375 64.8489 215.151 64.625 214.875 64.625H206.25Z" fill="white"/>
<path fill-rule="evenodd" clip-rule="evenodd" d="M316.188 59.0391V77.0859C316.188 77.4888 316 77.854 315.709 78.085C315.484 78.9121 315.484 81.27 315.709 82.0972C316 82.3335 316.188 82.6987 316.188 83.1016V83.9609C316.188 84.6753 315.613 85.25 314.898 85.25H297.281C294.435 85.25 292.125 82.9404 292.125 80.0938V62.9062C292.125 60.0596 294.435 57.75 297.281 57.75H314.898C315.613 57.75 316.188 58.3247 316.188 59.0391ZM297.281 81.8125H312.61C312.508 80.894 312.508 79.2935 312.61 78.375H297.281C296.336 78.375 295.562 79.1484 295.562 80.0938C295.562 81.0444 296.331 81.8125 297.281 81.8125ZM296.25 61.1875C296.25 60.8078 296.558 60.5 296.938 60.5C297.317 60.5 297.625 60.8078 297.625 61.1875V74.9375C297.625 75.3172 297.317 75.625 296.938 75.625C296.558 75.625 296.25 75.3172 296.25 74.9375V61.1875ZM302.25 64.625C301.974 64.625 301.75 64.8489 301.75 65.125V65.5C301.75 65.7761 301.974 66 302.25 66H310.875C311.151 66 311.375 65.7761 311.375 65.5V65.125C311.375 64.8489 311.151 64.625 310.875 64.625H302.25Z" fill="white"/>
<path fill-rule="evenodd" clip-rule="evenodd" d="M412.188 59.0391V77.0859C412.188 77.4888 412 77.854 411.709 78.085C411.484 78.9121 411.484 81.27 411.709 82.0972C412 82.3335 412.188 82.6987 412.188 83.1016V83.9609C412.188 84.6753 411.613 85.25 410.898 85.25H393.281C390.435 85.25 388.125 82.9404 388.125 80.0938V62.9062C388.125 60.0596 390.435 57.75 393.281 57.75H410.898C411.613 57.75 412.188 58.3247 412.188 59.0391ZM393.281 81.8125H408.61C408.508 80.894 408.508 79.2935 408.61 78.375H393.281C392.336 78.375 391.562 79.1484 391.562 80.0938C391.562 81.0444 392.331 81.8125 393.281 81.8125ZM392.25 61.1875C392.25 60.8078 392.558 60.5 392.938 60.5C393.317 60.5 393.625 60.8078 393.625 61.1875V74.9375C393.625 75.3172 393.317 75.625 392.938 75.625C392.558 75.625 392.25 75.3172 392.25 74.9375V61.1875ZM398.25 64.625C397.974 64.625 397.75 64.8489 397.75 65.125V65.5C397.75 65.7761 397.974 66 398.25 66H406.875C407.151 66 407.375 65.7761 407.375 65.5V65.125C407.375 64.8489 407.151 64.625 406.875 64.625H398.25Z" fill="white"/>
<path fill-rule="evenodd" clip-rule="evenodd" d="M508.188 59.0391V77.0859C508.188 77.4888 508 77.854 507.709 78.085C507.484 78.9121 507.484 81.27 507.709 82.0972C508 82.3335 508.188 82.6987 508.188 83.1016V83.9609C508.188 84.6753 507.613 85.25 506.898 85.25H489.281C486.435 85.25 484.125 82.9404 484.125 80.0938V62.9062C484.125 60.0596 486.435 57.75 489.281 57.75H506.898C507.613 57.75 508.188 58.3247 508.188 59.0391ZM489.281 81.8125H504.61C504.508 80.894 504.508 79.2935 504.61 78.375H489.281C488.336 78.375 487.562 79.1484 487.562 80.0938C487.562 81.0444 488.331 81.8125 489.281 81.8125ZM488.25 61.1875C488.25 60.8078 488.558 60.5 488.938 60.5C489.317 60.5 489.625 60.8078 489.625 61.1875V74.9375C489.625 75.3172 489.317 75.625 488.938 75.625C488.558 75.625 488.25 75.3172 488.25 74.9375V61.1875ZM494.25 64.625C493.974 64.625 493.75 64.8489 493.75 65.125V65.5C493.75 65.7761 493.974 66 494.25 66H502.875C503.151 66 503.375 65.7761 503.375 65.5V65.125C503.375 64.8489 503.151 64.625 502.875 64.625H494.25Z" fill="white"/>
<path fill-rule="evenodd" clip-rule="evenodd" d="M604.188 59.0391V77.0859C604.188 77.4888 604 77.854 603.709 78.085C603.484 78.9121 603.484 81.27 603.709 82.0972C604 82.3335 604.188 82.6987 604.188 83.1016V83.9609C604.188 84.6753 603.613 85.25 602.898 85.25H585.281C582.435 85.25 580.125 82.9404 580.125 80.0938V62.9062C580.125 60.0596 582.435 57.75 585.281 57.75H602.898C603.613 57.75 604.188 58.3247 604.188 59.0391ZM585.281 81.8125H600.61C600.508 80.894 600.508 79.2935 600.61 78.375H585.281C584.336 78.375 583.562 79.1484 583.562 80.0938C583.562 81.0444 584.331 81.8125 585.281 81.8125ZM584.25 61.1875C584.25 60.8078 584.558 60.5 584.938 60.5C585.317 60.5 585.625 60.8078 585.625 61.1875V74.9375C585.625 75.3172 585.317 75.625 584.938 75.625C584.558 75.625 584.25 75.3172 584.25 74.9375V61.1875ZM590.25 64.625C589.974 64.625 589.75 64.8489 589.75 65.125V65.5C589.75 65.7761 589.974 66 590.25 66H598.875C599.151 66 599.375 65.7761 599.375 65.5V65.125C599.375 64.8489 599.151 64.625 598.875 64.625H590.25Z" fill="white"/>
<path fill-rule="evenodd" clip-rule="evenodd" d="M700.188 59.0391V77.0859C700.188 77.4888 700 77.854 699.709 78.085C699.484 78.9121 699.484 81.27 699.709 82.0972C700 82.3335 700.188 82.6987 700.188 83.1016V83.9609C700.188 84.6753 699.613 85.25 698.898 85.25H681.281C678.435 85.25 676.125 82.9404 676.125 80.0938V62.9062C676.125 60.0596 678.435 57.75 681.281 57.75H698.898C699.613 57.75 700.188 58.3247 700.188 59.0391ZM681.281 81.8125H696.61C696.508 80.894 696.508 79.2935 696.61 78.375H681.281C680.336 78.375 679.562 79.1484 679.562 80.0938C679.562 81.0444 680.331 81.8125 681.281 81.8125ZM680.25 61.1875C680.25 60.8078 680.558 60.5 680.938 60.5C681.317 60.5 681.625 60.8078 681.625 61.1875V74.9375C681.625 75.3172 681.317 75.625 680.938 75.625C680.558 75.625 680.25 75.3172 680.25 74.9375V61.1875ZM686.25 64.625C685.974 64.625 685.75 64.8489 685.75 65.125V65.5C685.75 65.7761 685.974 66 686.25 66H694.875C695.151 66 695.375 65.7761 695.375 65.5V65.125C695.375 64.8489 695.151 64.625 694.875 64.625H686.25Z" fill="white"/>
<path fill-rule="evenodd" clip-rule="evenodd" d="M796.188 59.0391V77.0859C796.188 77.4888 796 77.854 795.709 78.085C795.484 78.9121 795.484 81.27 795.709 82.0972C796 82.3335 796.188 82.6987 796.188 83.1016V83.9609C796.188 84.6753 795.613 85.25 794.898 85.25H777.281C774.435 85.25 772.125 82.9404 772.125 80.0938V62.9062C772.125 60.0596 774.435 57.75 777.281 57.75H794.898C795.613 57.75 796.188 58.3247 796.188 59.0391ZM777.281 81.8125H792.61C792.508 80.894 792.508 79.2935 792.61 78.375H777.281C776.336 78.375 775.562 79.1484 775.562 80.0938C775.562 81.0444 776.331 81.8125 777.281 81.8125ZM776.25 61.1875C776.25 60.8078 776.558 60.5 776.938 60.5C777.317 60.5 777.625 60.8078 777.625 61.1875V74.9375C777.625 75.3172 777.317 75.625 776.938 75.625C776.558 75.625 776.25 75.3172 776.25 74.9375V61.1875ZM782.25 64.625C781.974 64.625 781.75 64.8489 781.75 65.125V65.5C781.75 65.7761 781.974 66 782.25 66H790.875C791.151 66 791.375 65.7761 791.375 65.5V65.125C791.375 64.8489 791.151 64.625 790.875 64.625H782.25Z" fill="white"/>
<path fill-rule="evenodd" clip-rule="evenodd" d="M892.188 59.0391V77.0859C892.188 77.4888 892 77.854 891.709 78.085C891.484 78.9121 891.484 81.27 891.709 82.0972C892 82.3335 892.188 82.6987 892.188 83.1016V83.9609C892.188 84.6753 891.613 85.25 890.898 85.25H873.281C870.435 85.25 868.125 82.9404 868.125 80.0938V62.9062C868.125 60.0596 870.435 57.75 873.281 57.75H890.898C891.613 57.75 892.188 58.3247 892.188 59.0391ZM873.281 81.8125H888.61C888.508 80.894 888.508 79.2935 888.61 78.375H873.281C872.336 78.375 871.562 79.1484 871.562 80.0938C871.562 81.0444 872.331 81.8125 873.281 81.8125ZM872.25 61.1875C872.25 60.8078 872.558 60.5 872.938 60.5C873.317 60.5 873.625 60.8078 873.625 61.1875V74.9375C873.625 75.3172 873.317 75.625 872.938 75.625C872.558 75.625 872.25 75.3172 872.25 74.9375V61.1875ZM878.25 64.625C877.974 64.625 877.75 64.8489 877.75 65.125V65.5C877.75 65.7761 877.974 66 878.25 66H886.875C887.151 66 887.375 65.7761 887.375 65.5V65.125C887.375 64.8489 887.151 64.625 886.875 64.625H878.25Z" fill="white"/>
<path fill-rule="evenodd" clip-rule="evenodd" d="M988.188 59.0391V77.0859C988.188 77.4888 988 77.854 987.709 78.085C987.484 78.9121 987.484 81.27 987.709 82.0972C988 82.3335 988.188 82.6987 988.188 83.1016V83.9609C988.188 84.6753 987.613 85.25 986.898 85.25H969.281C966.435 85.25 964.125 82.9404 964.125 80.0938V62.9062C964.125 60.0596 966.435 57.75 969.281 57.75H986.898C987.613 57.75 988.188 58.3247 988.188 59.0391ZM969.281 81.8125H984.61C984.508 80.894 984.508 79.2935 984.61 78.375H969.281C968.336 78.375 967.562 79.1484 967.562 80.0938C967.562 81.0444 968.331 81.8125 969.281 81.8125ZM968.25 61.1875C968.25 60.8078 968.558 60.5 968.938 60.5C969.317 60.5 969.625 60.8078 969.625 61.1875V74.9375C969.625 75.3172 969.317 75.625 968.938 75.625C968.558 75.625 968.25 75.3172 968.25 74.9375V61.1875ZM974.25 64.625C973.974 64.625 973.75 64.8489 973.75 65.125V65.5C973.75 65.7761 973.974 66 974.25 66H982.875C983.151 66 983.375 65.7761 983.375 65.5V65.125C983.375 64.8489 983.151 64.625 982.875 64.625H974.25Z" fill="white"/>
<path fill-rule="evenodd" clip-rule="evenodd" d="M1084.19 59.0391V77.0859C1084.19 77.4888 1084 77.854 1083.71 78.085C1083.48 78.9121 1083.48 81.27 1083.71 82.0972C1084 82.3335 1084.19 82.6987 1084.19 83.1016V83.9609C1084.19 84.6753 1083.61 85.25 1082.9 85.25H1065.28C1062.43 85.25 1060.12 82.9404 1060.12 80.0938V62.9062C1060.12 60.0596 1062.43 57.75 1065.28 57.75H1082.9C1083.61 57.75 1084.19 58.3247 1084.19 59.0391ZM1065.28 81.8125H1080.61C1080.51 80.894 1080.51 79.2935 1080.61 78.375H1065.28C1064.34 78.375 1063.56 79.1484 1063.56 80.0938C1063.56 81.0444 1064.33 81.8125 1065.28 81.8125ZM1064.25 61.1875C1064.25 60.8078 1064.56 60.5 1064.94 60.5C1065.32 60.5 1065.62 60.8078 1065.62 61.1875V74.9375C1065.62 75.3172 1065.32 75.625 1064.94 75.625C1064.56 75.625 1064.25 75.3172 1064.25 74.9375V61.1875ZM1070.25 64.625C1069.97 64.625 1069.75 64.8489 1069.75 65.125V65.5C1069.75 65.7761 1069.97 66 1070.25 66H1078.88C1079.15 66 1079.38 65.7761 1079.38 65.5V65.125C1079.38 64.8489 1079.15 64.625 1078.88 64.625H1070.25Z" fill="white"/>
<path fill-rule="evenodd" clip-rule="evenodd" d="M1180.19 59.0391V77.0859C1180.19 77.4888 1180 77.854 1179.71 78.085C1179.48 78.9121 1179.48 81.27 1179.71 82.0972C1180 82.3335 1180.19 82.6987 1180.19 83.1016V83.9609C1180.19 84.6753 1179.61 85.25 1178.9 85.25H1161.28C1158.43 85.25 1156.12 82.9404 1156.12 80.0938V62.9062C1156.12 60.0596 1158.43 57.75 1161.28 57.75H1178.9C1179.61 57.75 1180.19 58.3247 1180.19 59.0391ZM1161.28 81.8125H1176.61C1176.51 80.894 1176.51 79.2935 1176.61 78.375H1161.28C1160.34 78.375 1159.56 79.1484 1159.56 80.0938C1159.56 81.0444 1160.33 81.8125 1161.28 81.8125ZM1160.25 61.1875C1160.25 60.8078 1160.56 60.5 1160.94 60.5C1161.32 60.5 1161.62 60.8078 1161.62 61.1875V74.9375C1161.62 75.3172 1161.32 75.625 1160.94 75.625C1160.56 75.625 1160.25 75.3172 1160.25 74.9375V61.1875ZM1166.25 64.625C1165.97 64.625 1165.75 64.8489 1165.75 65.125V65.5C1165.75 65.7761 1165.97 66 1166.25 66H1174.88C1175.15 66 1175.38 65.7761 1175.38 65.5V65.125C1175.38 64.8489 1175.15 64.625 1174.88 64.625H1166.25Z" fill="white"/>
<path fill-rule="evenodd" clip-rule="evenodd" d="M1276.19 59.0391V77.0859C1276.19 77.4888 1276 77.854 1275.71 78.085C1275.48 78.9121 1275.48 81.27 1275.71 82.0972C1276 82.3335 1276.19 82.6987 1276.19 83.1016V83.9609C1276.19 84.6753 1275.61 85.25 1274.9 85.25H1257.28C1254.43 85.25 1252.12 82.9404 1252.12 80.0938V62.9062C1252.12 60.0596 1254.43 57.75 1257.28 57.75H1274.9C1275.61 57.75 1276.19 58.3247 1276.19 59.0391ZM1257.28 81.8125H1272.61C1272.51 80.894 1272.51 79.2935 1272.61 78.375H1257.28C1256.34 78.375 1255.56 79.1484 1255.56 80.0938C1255.56 81.0444 1256.33 81.8125 1257.28 81.8125ZM1256.25 61.1875C1256.25 60.8078 1256.56 60.5 1256.94 60.5C1257.32 60.5 1257.62 60.8078 1257.62 61.1875V74.9375C1257.62 75.3172 1257.32 75.625 1256.94 75.625C1256.56 75.625 1256.25 75.3172 1256.25 74.9375V61.1875ZM1262.25 64.625C1261.97 64.625 1261.75 64.8489 1261.75 65.125V65.5C1261.75 65.7761 1261.97 66 1262.25 66H1270.88C1271.15 66 1271.38 65.7761 1271.38 65.5V65.125C1271.38 64.8489 1271.15 64.625 1270.88 64.625H1262.25Z" fill="white"/>
<path fill-rule="evenodd" clip-rule="evenodd" d="M76.1875 4.03906V22.0859C76.1875 22.4888 75.9995 22.854 75.7095 23.085C75.4839 23.9121 75.4839 26.27 75.7095 27.0972C75.9995 27.3335 76.1875 27.6987 76.1875 28.1016V28.9609C76.1875 29.6753 75.6128 30.25 74.8984 30.25H57.2812C54.4346 30.25 52.125 27.9404 52.125 25.0938V7.90625C52.125 5.05957 54.4346 2.75 57.2812 2.75H74.8984C75.6128 2.75 76.1875 3.32471 76.1875 4.03906ZM57.2812 26.8125H72.6104C72.5083 25.894 72.5083 24.2935 72.6104 23.375H57.2812C56.3359 23.375 55.5625 24.1484 55.5625 25.0938C55.5625 26.0444 56.3306 26.8125 57.2812 26.8125ZM56.25 6.1875C56.25 5.8078 56.5578 5.5 56.9375 5.5C57.3172 5.5 57.625 5.8078 57.625 6.1875V19.9375C57.625 20.3172 57.3172 20.625 56.9375 20.625C56.5578 20.625 56.25 20.3172 56.25 19.9375V6.1875ZM62.25 9.625C61.9739 9.625 61.75 9.84886 61.75 10.125V10.5C61.75 10.7761 61.9739 11 62.25 11H70.875C71.1511 11 71.375 10.7761 71.375 10.5V10.125C71.375 9.84886 71.1511 9.625 70.875 9.625H62.25Z" fill="white"/>
<path fill-rule="evenodd" clip-rule="evenodd" d="M172.188 4.03906V22.0859C172.188 22.4888 172 22.854 171.709 23.085C171.484 23.9121 171.484 26.27 171.709 27.0972C172 27.3335 172.188 27.6987 172.188 28.1016V28.9609C172.188 29.6753 171.613 30.25 170.898 30.25H153.281C150.435 30.25 148.125 27.9404 148.125 25.0938V7.90625C148.125 5.05957 150.435 2.75 153.281 2.75H170.898C171.613 2.75 172.188 3.32471 172.188 4.03906ZM153.281 26.8125H168.61C168.508 25.894 168.508 24.2935 168.61 23.375H153.281C152.336 23.375 151.562 24.1484 151.562 25.0938C151.562 26.0444 152.331 26.8125 153.281 26.8125ZM152.25 6.1875C152.25 5.8078 152.558 5.5 152.938 5.5C153.317 5.5 153.625 5.8078 153.625 6.1875V19.9375C153.625 20.3172 153.317 20.625 152.938 20.625C152.558 20.625 152.25 20.3172 152.25 19.9375V6.1875ZM158.25 9.625C157.974 9.625 157.75 9.84886 157.75 10.125V10.5C157.75 10.7761 157.974 11 158.25 11H166.875C167.151 11 167.375 10.7761 167.375 10.5V10.125C167.375 9.84886 167.151 9.625 166.875 9.625H158.25Z" fill="white"/>
<path fill-rule="evenodd" clip-rule="evenodd" d="M268.188 4.03906V22.0859C268.188 22.4888 268 22.854 267.709 23.085C267.484 23.9121 267.484 26.27 267.709 27.0972C268 27.3335 268.188 27.6987 268.188 28.1016V28.9609C268.188 29.6753 267.613 30.25 266.898 30.25H249.281C246.435 30.25 244.125 27.9404 244.125 25.0938V7.90625C244.125 5.05957 246.435 2.75 249.281 2.75H266.898C267.613 2.75 268.188 3.32471 268.188 4.03906ZM249.281 26.8125H264.61C264.508 25.894 264.508 24.2935 264.61 23.375H249.281C248.336 23.375 247.562 24.1484 247.562 25.0938C247.562 26.0444 248.331 26.8125 249.281 26.8125ZM248.25 6.1875C248.25 5.8078 248.558 5.5 248.938 5.5C249.317 5.5 249.625 5.8078 249.625 6.1875V19.9375C249.625 20.3172 249.317 20.625 248.938 20.625C248.558 20.625 248.25 20.3172 248.25 19.9375V6.1875ZM254.25 9.625C253.974 9.625 253.75 9.84886 253.75 10.125V10.5C253.75 10.7761 253.974 11 254.25 11H262.875C263.151 11 263.375 10.7761 263.375 10.5V10.125C263.375 9.84886 263.151 9.625 262.875 9.625H254.25Z" fill="white"/>
<path fill-rule="evenodd" clip-rule="evenodd" d="M364.188 4.03906V22.0859C364.188 22.4888 364 22.854 363.709 23.085C363.484 23.9121 363.484 26.27 363.709 27.0972C364 27.3335 364.188 27.6987 364.188 28.1016V28.9609C364.188 29.6753 363.613 30.25 362.898 30.25H345.281C342.435 30.25 340.125 27.9404 340.125 25.0938V7.90625C340.125 5.05957 342.435 2.75 345.281 2.75H362.898C363.613 2.75 364.188 3.32471 364.188 4.03906ZM345.281 26.8125H360.61C360.508 25.894 360.508 24.2935 360.61 23.375H345.281C344.336 23.375 343.562 24.1484 343.562 25.0938C343.562 26.0444 344.331 26.8125 345.281 26.8125ZM344.25 6.1875C344.25 5.8078 344.558 5.5 344.938 5.5C345.317 5.5 345.625 5.8078 345.625 6.1875V19.9375C345.625 20.3172 345.317 20.625 344.938 20.625C344.558 20.625 344.25 20.3172 344.25 19.9375V6.1875ZM350.25 9.625C349.974 9.625 349.75 9.84886 349.75 10.125V10.5C349.75 10.7761 349.974 11 350.25 11H358.875C359.151 11 359.375 10.7761 359.375 10.5V10.125C359.375 9.84886 359.151 9.625 358.875 9.625H350.25Z" fill="white"/>
<path fill-rule="evenodd" clip-rule="evenodd" d="M460.188 4.03906V22.0859C460.188 22.4888 460 22.854 459.709 23.085C459.484 23.9121 459.484 26.27 459.709 27.0972C460 27.3335 460.188 27.6987 460.188 28.1016V28.9609C460.188 29.6753 459.613 30.25 458.898 30.25H441.281C438.435 30.25 436.125 27.9404 436.125 25.0938V7.90625C436.125 5.05957 438.435 2.75 441.281 2.75H458.898C459.613 2.75 460.188 3.32471 460.188 4.03906ZM441.281 26.8125H456.61C456.508 25.894 456.508 24.2935 456.61 23.375H441.281C440.336 23.375 439.562 24.1484 439.562 25.0938C439.562 26.0444 440.331 26.8125 441.281 26.8125ZM440.25 6.1875C440.25 5.8078 440.558 5.5 440.938 5.5C441.317 5.5 441.625 5.8078 441.625 6.1875V19.9375C441.625 20.3172 441.317 20.625 440.938 20.625C440.558 20.625 440.25 20.3172 440.25 19.9375V6.1875ZM446.25 9.625C445.974 9.625 445.75 9.84886 445.75 10.125V10.5C445.75 10.7761 445.974 11 446.25 11H454.875C455.151 11 455.375 10.7761 455.375 10.5V10.125C455.375 9.84886 455.151 9.625 454.875 9.625H446.25Z" fill="white"/>
<path fill-rule="evenodd" clip-rule="evenodd" d="M556.188 4.03906V22.0859C556.188 22.4888 556 22.854 555.709 23.085C555.484 23.9121 555.484 26.27 555.709 27.0972C556 27.3335 556.188 27.6987 556.188 28.1016V28.9609C556.188 29.6753 555.613 30.25 554.898 30.25H537.281C534.435 30.25 532.125 27.9404 532.125 25.0938V7.90625C532.125 5.05957 534.435 2.75 537.281 2.75H554.898C555.613 2.75 556.188 3.32471 556.188 4.03906ZM537.281 26.8125H552.61C552.508 25.894 552.508 24.2935 552.61 23.375H537.281C536.336 23.375 535.562 24.1484 535.562 25.0938C535.562 26.0444 536.331 26.8125 537.281 26.8125ZM536.25 6.1875C536.25 5.8078 536.558 5.5 536.938 5.5C537.317 5.5 537.625 5.8078 537.625 6.1875V19.9375C537.625 20.3172 537.317 20.625 536.938 20.625C536.558 20.625 536.25 20.3172 536.25 19.9375V6.1875ZM542.25 9.625C541.974 9.625 541.75 9.84886 541.75 10.125V10.5C541.75 10.7761 541.974 11 542.25 11H550.875C551.151 11 551.375 10.7761 551.375 10.5V10.125C551.375 9.84886 551.151 9.625 550.875 9.625H542.25Z" fill="white"/>
<path fill-rule="evenodd" clip-rule="evenodd" d="M652.188 4.03906V22.0859C652.188 22.4888 652 22.854 651.709 23.085C651.484 23.9121 651.484 26.27 651.709 27.0972C652 27.3335 652.188 27.6987 652.188 28.1016V28.9609C652.188 29.6753 651.613 30.25 650.898 30.25H633.281C630.435 30.25 628.125 27.9404 628.125 25.0938V7.90625C628.125 5.05957 630.435 2.75 633.281 2.75H650.898C651.613 2.75 652.188 3.32471 652.188 4.03906ZM633.281 26.8125H648.61C648.508 25.894 648.508 24.2935 648.61 23.375H633.281C632.336 23.375 631.562 24.1484 631.562 25.0938C631.562 26.0444 632.331 26.8125 633.281 26.8125ZM632.25 6.1875C632.25 5.8078 632.558 5.5 632.938 5.5C633.317 5.5 633.625 5.8078 633.625 6.1875V19.9375C633.625 20.3172 633.317 20.625 632.938 20.625C632.558 20.625 632.25 20.3172 632.25 19.9375V6.1875ZM638.25 9.625C637.974 9.625 637.75 9.84886 637.75 10.125V10.5C637.75 10.7761 637.974 11 638.25 11H646.875C647.151 11 647.375 10.7761 647.375 10.5V10.125C647.375 9.84886 647.151 9.625 646.875 9.625H638.25Z" fill="white"/>
<path fill-rule="evenodd" clip-rule="evenodd" d="M748.188 4.03906V22.0859C748.188 22.4888 748 22.854 747.709 23.085C747.484 23.9121 747.484 26.27 747.709 27.0972C748 27.3335 748.188 27.6987 748.188 28.1016V28.9609C748.188 29.6753 747.613 30.25 746.898 30.25H729.281C726.435 30.25 724.125 27.9404 724.125 25.0938V7.90625C724.125 5.05957 726.435 2.75 729.281 2.75H746.898C747.613 2.75 748.188 3.32471 748.188 4.03906ZM729.281 26.8125H744.61C744.508 25.894 744.508 24.2935 744.61 23.375H729.281C728.336 23.375 727.562 24.1484 727.562 25.0938C727.562 26.0444 728.331 26.8125 729.281 26.8125ZM728.25 6.1875C728.25 5.8078 728.558 5.5 728.938 5.5C729.317 5.5 729.625 5.8078 729.625 6.1875V19.9375C729.625 20.3172 729.317 20.625 728.938 20.625C728.558 20.625 728.25 20.3172 728.25 19.9375V6.1875ZM734.25 9.625C733.974 9.625 733.75 9.84886 733.75 10.125V10.5C733.75 10.7761 733.974 11 734.25 11H742.875C743.151 11 743.375 10.7761 743.375 10.5V10.125C743.375 9.84886 743.151 9.625 742.875 9.625H734.25Z" fill="white"/>
<path fill-rule="evenodd" clip-rule="evenodd" d="M844.188 4.03906V22.0859C844.188 22.4888 844 22.854 843.709 23.085C843.484 23.9121 843.484 26.27 843.709 27.0972C844 27.3335 844.188 27.6987 844.188 28.1016V28.9609C844.188 29.6753 843.613 30.25 842.898 30.25H825.281C822.435 30.25 820.125 27.9404 820.125 25.0938V7.90625C820.125 5.05957 822.435 2.75 825.281 2.75H842.898C843.613 2.75 844.188 3.32471 844.188 4.03906ZM825.281 26.8125H840.61C840.508 25.894 840.508 24.2935 840.61 23.375H825.281C824.336 23.375 823.562 24.1484 823.562 25.0938C823.562 26.0444 824.331 26.8125 825.281 26.8125ZM824.25 6.1875C824.25 5.8078 824.558 5.5 824.938 5.5C825.317 5.5 825.625 5.8078 825.625 6.1875V19.9375C825.625 20.3172 825.317 20.625 824.938 20.625C824.558 20.625 824.25 20.3172 824.25 19.9375V6.1875ZM830.25 9.625C829.974 9.625 829.75 9.84886 829.75 10.125V10.5C829.75 10.7761 829.974 11 830.25 11H838.875C839.151 11 839.375 10.7761 839.375 10.5V10.125C839.375 9.84886 839.151 9.625 838.875 9.625H830.25Z" fill="white"/>
<path fill-rule="evenodd" clip-rule="evenodd" d="M940.188 4.03906V22.0859C940.188 22.4888 940 22.854 939.709 23.085C939.484 23.9121 939.484 26.27 939.709 27.0972C940 27.3335 940.188 27.6987 940.188 28.1016V28.9609C940.188 29.6753 939.613 30.25 938.898 30.25H921.281C918.435 30.25 916.125 27.9404 916.125 25.0938V7.90625C916.125 5.05957 918.435 2.75 921.281 2.75H938.898C939.613 2.75 940.188 3.32471 940.188 4.03906ZM921.281 26.8125H936.61C936.508 25.894 936.508 24.2935 936.61 23.375H921.281C920.336 23.375 919.562 24.1484 919.562 25.0938C919.562 26.0444 920.331 26.8125 921.281 26.8125ZM920.25 6.1875C920.25 5.8078 920.558 5.5 920.938 5.5C921.317 5.5 921.625 5.8078 921.625 6.1875V19.9375C921.625 20.3172 921.317 20.625 920.938 20.625C920.558 20.625 920.25 20.3172 920.25 19.9375V6.1875ZM926.25 9.625C925.974 9.625 925.75 9.84886 925.75 10.125V10.5C925.75 10.7761 925.974 11 926.25 11H934.875C935.151 11 935.375 10.7761 935.375 10.5V10.125C935.375 9.84886 935.151 9.625 934.875 9.625H926.25Z" fill="white"/>
<path fill-rule="evenodd" clip-rule="evenodd" d="M1036.19 4.03906V22.0859C1036.19 22.4888 1036 22.854 1035.71 23.085C1035.48 23.9121 1035.48 26.27 1035.71 27.0972C1036 27.3335 1036.19 27.6987 1036.19 28.1016V28.9609C1036.19 29.6753 1035.61 30.25 1034.9 30.25H1017.28C1014.43 30.25 1012.12 27.9404 1012.12 25.0938V7.90625C1012.12 5.05957 1014.43 2.75 1017.28 2.75H1034.9C1035.61 2.75 1036.19 3.32471 1036.19 4.03906ZM1017.28 26.8125H1032.61C1032.51 25.894 1032.51 24.2935 1032.61 23.375H1017.28C1016.34 23.375 1015.56 24.1484 1015.56 25.0938C1015.56 26.0444 1016.33 26.8125 1017.28 26.8125ZM1016.25 6.1875C1016.25 5.8078 1016.56 5.5 1016.94 5.5C1017.32 5.5 1017.62 5.8078 1017.62 6.1875V19.9375C1017.62 20.3172 1017.32 20.625 1016.94 20.625C1016.56 20.625 1016.25 20.3172 1016.25 19.9375V6.1875ZM1022.25 9.625C1021.97 9.625 1021.75 9.84886 1021.75 10.125V10.5C1021.75 10.7761 1021.97 11 1022.25 11H1030.88C1031.15 11 1031.38 10.7761 1031.38 10.5V10.125C1031.38 9.84886 1031.15 9.625 1030.88 9.625H1022.25Z" fill="white"/>
<path fill-rule="evenodd" clip-rule="evenodd" d="M1132.19 4.03906V22.0859C1132.19 22.4888 1132 22.854 1131.71 23.085C1131.48 23.9121 1131.48 26.27 1131.71 27.0972C1132 27.3335 1132.19 27.6987 1132.19 28.1016V28.9609C1132.19 29.6753 1131.61 30.25 1130.9 30.25H1113.28C1110.43 30.25 1108.12 27.9404 1108.12 25.0938V7.90625C1108.12 5.05957 1110.43 2.75 1113.28 2.75H1130.9C1131.61 2.75 1132.19 3.32471 1132.19 4.03906ZM1113.28 26.8125H1128.61C1128.51 25.894 1128.51 24.2935 1128.61 23.375H1113.28C1112.34 23.375 1111.56 24.1484 1111.56 25.0938C1111.56 26.0444 1112.33 26.8125 1113.28 26.8125ZM1112.25 6.1875C1112.25 5.8078 1112.56 5.5 1112.94 5.5C1113.32 5.5 1113.62 5.8078 1113.62 6.1875V19.9375C1113.62 20.3172 1113.32 20.625 1112.94 20.625C1112.56 20.625 1112.25 20.3172 1112.25 19.9375V6.1875ZM1118.25 9.625C1117.97 9.625 1117.75 9.84886 1117.75 10.125V10.5C1117.75 10.7761 1117.97 11 1118.25 11H1126.88C1127.15 11 1127.38 10.7761 1127.38 10.5V10.125C1127.38 9.84886 1127.15 9.625 1126.88 9.625H1118.25Z" fill="white"/>
<path fill-rule="evenodd" clip-rule="evenodd" d="M1228.19 4.03906V22.0859C1228.19 22.4888 1228 22.854 1227.71 23.085C1227.48 23.9121 1227.48 26.27 1227.71 27.0972C1228 27.3335 1228.19 27.6987 1228.19 28.1016V28.9609C1228.19 29.6753 1227.61 30.25 1226.9 30.25H1209.28C1206.43 30.25 1204.12 27.9404 1204.12 25.0938V7.90625C1204.12 5.05957 1206.43 2.75 1209.28 2.75H1226.9C1227.61 2.75 1228.19 3.32471 1228.19 4.03906ZM1209.28 26.8125H1224.61C1224.51 25.894 1224.51 24.2935 1224.61 23.375H1209.28C1208.34 23.375 1207.56 24.1484 1207.56 25.0938C1207.56 26.0444 1208.33 26.8125 1209.28 26.8125ZM1208.25 6.1875C1208.25 5.8078 1208.56 5.5 1208.94 5.5C1209.32 5.5 1209.62 5.8078 1209.62 6.1875V19.9375C1209.62 20.3172 1209.32 20.625 1208.94 20.625C1208.56 20.625 1208.25 20.3172 1208.25 19.9375V6.1875ZM1214.25 9.625C1213.97 9.625 1213.75 9.84886 1213.75 10.125V10.5C1213.75 10.7761 1213.97 11 1214.25 11H1222.88C1223.15 11 1223.38 10.7761 1223.38 10.5V10.125C1223.38 9.84886 1223.15 9.625 1222.88 9.625H1214.25Z" fill="white"/>
</g>
</svg>
