<svg xmlns="http://www.w3.org/2000/svg" xmlns:xlink="http://www.w3.org/1999/xlink" width="580" height="306" viewBox="0 0 580 306">
    <defs>
        <filter id="hb25m2l0fc" width="112.9%" height="337.5%" x="-6.5%" y="-106.2%" filterUnits="objectBoundingBox">
            <feOffset dy="2" in="SourceAlpha" result="shadowOffsetOuter1"/>
            <feGaussianBlur in="shadowOffsetOuter1" result="shadowBlurOuter1" stdDeviation="6"/>
            <feColorMatrix in="shadowBlurOuter1" values="0 0 0 0 0 0 0 0 0 0.325490196 0 0 0 0 0.254901961 0 0 0 0.34914841 0"/>
        </filter>
        <rect id="um1g2j932d" width="294" height="16" x="143" y="129" rx="8"/>
        <path id="flwlojtyfa" d="M0 0L207.204 0 207.204 205.386 0 205.386z"/>
    </defs>
    <g fill="none" fill-rule="evenodd">
        <g>
            <g>
                <path d="M0 0H580V270H0z" transform="translate(-514.000000, -204.000000) translate(514.000000, 222.000000)"/>
                <g stroke="#06806B">
                    <path d="M47.28 17.76c.48 1.92.72 4.08.72 6.24 0 13.2-10.8 24-24 24S0 37.2 0 24 10.8 0 24 0c4.56 0 8.88 1.2 12.72 3.6" transform="translate(-514.000000, -204.000000) translate(514.000000, 222.000000) translate(456.000000, 97.000000)"/>
                    <path stroke-linecap="square" d="M14 19.545L23.6 29 50 3" transform="translate(-514.000000, -204.000000) translate(514.000000, 222.000000) translate(456.000000, 97.000000)"/>
                </g>
                <g stroke="#06806B">
                    <path d="M35.46 13.32c.36 1.44.54 3.06.54 4.68 0 9.9-8.1 18-18 18S0 27.9 0 18 8.1 0 18 0c3.42 0 6.66.9 9.54 2.7" transform="translate(-514.000000, -204.000000) translate(514.000000, 222.000000) translate(87.000000, 157.000000)"/>
                    <path stroke-linecap="square" d="M11 14.727L18.2 22 38 2" transform="translate(-514.000000, -204.000000) translate(514.000000, 222.000000) translate(87.000000, 157.000000)"/>
                </g>
                <g stroke="#06806B" stroke-linecap="square">
                    <path d="M19.95 45L0 25.313 8.55 16.875 19.95 28.125 48.45 0 57 8.438z" transform="translate(-514.000000, -204.000000) translate(514.000000, 222.000000) translate(63.500000, 64.500000) rotate(-14.000000) translate(-63.500000, -64.500000) translate(35.000000, 42.000000)"/>
                </g>
                <g stroke="#06806B" stroke-linecap="square">
                    <path d="M9.8 22L0 12.375 4.2 8.25 9.8 13.75 23.8 0 28 4.125z" transform="translate(-514.000000, -204.000000) translate(514.000000, 222.000000) translate(511.000000, 199.000000)"/>
                </g>
                <g stroke="#06806B" stroke-linecap="square">
                    <path d="M0 12L12 24 36 0" transform="translate(-514.000000, -204.000000) translate(514.000000, 222.000000) translate(27.000000, 221.000000)"/>
                </g>
                <g stroke="#06806B" stroke-linecap="square">
                    <path d="M0 18L18 36 54 0" transform="translate(-514.000000, -204.000000) translate(514.000000, 222.000000) translate(403.000000, 197.000000)"/>
                </g>
                <g stroke="#06806B" stroke-linecap="square">
                    <path d="M0 5L5 10 15 0" transform="translate(-514.000000, -204.000000) translate(514.000000, 222.000000) translate(463.000000, 49.000000)"/>
                </g>
                <g stroke="#06806B" stroke-linecap="square">
                    <path d="M0 5L5 10 15 0" transform="translate(-514.000000, -204.000000) translate(514.000000, 222.000000) translate(125.000000, 92.000000)"/>
                </g>
                <g stroke="#06806B" stroke-linecap="square">
                    <path d="M16 0L16 31M31 15L0 15" transform="translate(-514.000000, -204.000000) translate(514.000000, 222.000000) translate(152.000000, 23.000000)"/>
                </g>
                <g stroke="#06806B" stroke-linecap="square">
                    <path d="M7.5 0L7.5 14M14 6.5L0 6.5" transform="translate(-514.000000, -204.000000) translate(514.000000, 222.000000) translate(124.000000, 246.000000) rotate(-13.000000) translate(-124.000000, -246.000000) translate(117.000000, 239.000000)"/>
                </g>
                <g stroke="#06806B" stroke-linecap="square">
                    <path d="M7.5 0L7.5 14M14 6.5L0 6.5" transform="translate(-514.000000, -204.000000) translate(514.000000, 222.000000) translate(416.000000, 157.000000)"/>
                </g>
                <g stroke="#06806B" stroke-linecap="square">
                    <path d="M17 0L17 31M31 14L0 14" transform="translate(-514.000000, -204.000000) translate(514.000000, 222.000000) translate(537.500000, 46.500000) rotate(14.000000) translate(-537.500000, -46.500000) translate(522.000000, 31.000000)"/>
                </g>
                <g stroke="#06806B" stroke-linecap="square">
                    <path d="M11.848 0L11.848 22M22 9.666L0 9.666" transform="translate(-514.000000, -204.000000) translate(514.000000, 222.000000) translate(40.677159, 144.794843) rotate(4.000000) translate(-40.677159, -144.794843) translate(29.677159, 133.794843)"/>
                </g>
                <g transform="translate(-514.000000, -204.000000) translate(514.000000, 222.000000) translate(173.000000, 18.000000) translate(117.000000, 117.000000) rotate(9.000000) translate(-117.000000, -117.000000) translate(-16.522747, -16.000000)">
                    <circle cx="133.523" cy="133.909" r="99.058" fill="#B4E2DB" transform="translate(133.522747, 133.908789) rotate(21.000000) translate(-133.522747, -133.908789)"/>
                    <g>
                        <g transform="translate(0.000000, 0.000000) translate(133.522747, 133.000000) rotate(21.000000) translate(-133.522747, -133.000000) translate(29.920753, 30.306795)">
                            <mask id="aybmrw49hb" fill="#fff">
                                <use xlink:href="#flwlojtyfa"/>
                            </mask>
                            <path fill="#08907B" d="M106.188 190.41c10.405-.031 20.67-1.114 30.713-3.918 19.492-5.442 34.286-16.8 43.789-34.806 4.766-9.03 7.682-18.682 9.723-28.649 2.426-11.847 2.665-23.691-.02-35.503-5.215-22.948-17.176-41.646-35.922-55.878-13.023-9.888-27.755-15.587-44.125-16.516-13.254-.752-26.281.949-39.012 4.754-11.241 3.36-21.72 8.269-30.974 15.57-8.595 6.781-15.45 14.958-18.97 25.455-3.846 11.467-5.892 23.32-6.38 35.413-.385 9.564.37 19.04 2.676 28.359 4.959 20.036 15.572 36.35 32.365 48.433 16.74 12.044 35.66 17.26 56.137 17.287M101.951 0h6.757c.438.078.873.182 1.313.23 3.65.388 7.328.597 10.946 1.178 13.87 2.227 26.586 7.438 38.192 15.303 17.938 12.158 31.011 28.354 39.587 48.206 4.767 11.037 7.574 22.571 8.289 34.572.413 6.94.07 13.861-1.035 20.748-1.711 10.654-4.354 21.038-8.607 30.978-6.145 14.356-15.067 26.584-27.75 35.878-15.662 11.478-33.584 16.326-52.64 17.791-2.463.19-4.93.336-7.394.502h-7.658c-.476-.076-.95-.178-1.43-.224-4.288-.408-8.61-.596-12.862-1.247-13.882-2.124-26.957-6.637-39.014-13.898-20.338-12.25-34.546-29.56-42.507-51.936-3.258-9.154-5.059-18.62-5.775-28.312-.55-7.433-.514-14.865.373-22.245.763-6.347 1.849-12.671 3.137-18.935C5.27 61.802 7.15 55.132 10.284 48.88c5.932-11.83 14.687-21.15 25.529-28.546C53.761 8.092 73.859 2.179 95.345.488 97.546.315 99.749.162 101.951 0" mask="url(#aybmrw49hb)"/>
                        </g>
                        <path fill="#08907B" d="M95.838 92.538c-2.678 6.926-2.64 37.199-.074 42.43 4.813-2.353 9.565-4.839 14.455-7.02 4.907-2.19 9.95-4.075 15.026-6.13-9.215-10.319-19.051-19.96-29.407-29.28m-7.363 58.791c-2.813 2.107-5.466 4.064-8.083 6.068-1.374 1.052-2.875 1.471-4.544 1.035-1.858-.486-3.101-1.709-3.531-3.573-.469-2.028.079-3.834 1.783-5.107 3.428-2.56 6.829-5.168 10.4-7.517 1.594-1.049 1.95-2.01 1.635-3.864-1.626-9.58-2.536-19.238-2.313-28.966.21-9.14 1.356-18.14 4.448-26.814 1.47-4.126 5.308-5.152 8.635-2.278 13.598 11.746 26.458 24.237 38.247 37.802.5.575.924.678 1.637.493 2.36-.612 4.736-1.164 7.115-1.7 3.003-.676 5.611.853 6.271 3.637.651 2.745-1.05 5.277-4.046 6.001-1.049.254-2.104.478-3.344.757.398.532.678.913.965 1.289 5.569 7.285 10.693 14.85 14.542 23.205.595 1.292 1.142 2.608 1.645 3.939 1.029 2.72-.143 5.49-2.714 6.518-2.62 1.047-5.409-.182-6.513-2.952-4.232-10.61-10.853-19.728-17.89-28.592-.487-.615-.944-.416-1.48-.248-8.329 2.608-16.386 5.885-24.153 9.855-2.907 1.485-5.724 3.143-8.612 4.666-.839.442-1.054.938-.853 1.863 2.537 11.645 5.724 23.103 9.834 34.298.476 1.296.784 2.583.378 3.945-.613 2.057-2.438 3.464-4.583 3.552-2.036.084-4.016-1.125-4.742-3.162-1.544-4.337-3.132-8.669-4.413-13.086-1.94-6.683-3.632-13.437-5.432-20.16-.055-.207-.13-.409-.29-.904" transform="translate(0.000000, 0.000000) translate(116.232649, 133.663793) rotate(21.000000) translate(-116.232649, -133.663793)"/>
                        <path fill="#08907B" d="M181.842 122.45c-.587.377-1.114.709-1.632 1.053-2.319 1.54-4.621 3.107-6.957 4.621-2.418 1.568-5.353 1.016-6.882-1.245-1.572-2.324-.963-5.263 1.477-6.918 2.638-1.79 5.302-3.542 8.05-5.374-.26-.388-.464-.722-.697-1.034-1.532-2.054-3.087-4.091-4.603-6.156-1.762-2.401-1.388-5.358.853-7.024 2.24-1.664 5.204-1.186 6.988 1.159 1.886 2.477 3.742 4.977 5.683 7.564 2.407-1.603 4.725-3.194 7.097-4.699.7-.444 1.528-.81 2.339-.93 2.317-.347 4.358.87 5.2 2.941.857 2.108.209 4.465-1.722 5.84-1.935 1.377-3.939 2.656-5.911 3.981-.332.223-.656.459-1.061.743.44.608.82 1.147 1.215 1.676 1.602 2.14 3.232 4.26 4.806 6.422 1.682 2.31 1.266 5.3-.913 6.943-2.191 1.654-5.152 1.224-6.913-1.064-1.835-2.382-3.614-4.808-5.42-7.214-.309-.41-.63-.812-.997-1.285" transform="translate(0.000000, 0.000000) translate(182.316722, 116.199501) rotate(21.000000) translate(-182.316722, -116.199501)"/>
                    </g>
                </g>
                <g transform="translate(-514.000000, -204.000000) translate(514.000000, 222.000000) translate(290.000000, 137.000000) rotate(-43.000000) translate(-290.000000, -137.000000)">
                    <use fill="#000" filter="url(#hb25m2l0fc)" xlink:href="#um1g2j932d"/>
                    <use fill="#E2AC4B" xlink:href="#um1g2j932d"/>
                </g>
            </g>
        </g>
    </g>
</svg>
