<svg xmlns="http://www.w3.org/2000/svg" viewBox="0 0 79.01 92.4"><defs><style>.cls-1{fill:#969696;}.cls-2{fill:#cbcbcb;}.cls-3{fill:#fff;}.cls-4{fill:#efd356;}</style></defs><g id="Layer_2" data-name="Layer 2"><g id="Layer_1-2" data-name="Layer 1"><rect class="cls-1" y="6.57" width="71.15" height="85.84"/><rect class="cls-2" x="3.95" y="3.05" width="71.15" height="85.84"/><rect class="cls-3" x="7.86" width="71.15" height="85.16"/><path class="cls-4" d="M23.71,49.44c5.22,3.33,8,9.21,10.54,14.61a2.48,2.48,0,0,0,3.13,1,2.55,2.55,0,0,0,1.44-2.95A9.87,9.87,0,0,1,40,57c.86-1.84,1.83-3.64,2.81-5.42,1.89-3.43,4-6.78,6.15-10S53.55,35.08,56,32c2.12-2.59,4.4-6.16,7.62-7.47a2.58,2.58,0,0,0,1.75-3.07,2.52,2.52,0,0,0-3.07-1.75c-4.14,1.68-6.77,5-9.52,8.38S47.19,35.22,44.65,39a128.45,128.45,0,0,0-6.8,11.23c-2.24,4.17-4.54,8.38-3.85,13.25l4.57-1.92c-3-6.27-6.32-12.57-12.34-16.41-2.72-1.73-5.23,2.59-2.52,4.32Z"/><path class="cls-4" d="M27.5,47.68A37.56,37.56,0,0,1,35,64.05c.56,2.86,4.8,2,4.91-.66.06-1.54,1-3,1.67-4.36q1.2-2.33,2.54-4.56c1.79-3,3.75-5.85,5.79-8.65s4.1-5.46,6.19-8.15q1.56-2,3.13-4c.76-1,1.62-2.29,2.83-2.69,3-1,1.74-5.84-1.32-4.82-3.55,1.18-5.57,4.64-7.75,7.45-2.4,3.1-4.82,6.18-7.13,9.35s-4.37,6.16-6.29,9.41c-1,1.69-1.95,3.41-2.81,5.18a14.52,14.52,0,0,0-1.85,5.87l4.91-.67A42.89,42.89,0,0,0,31,44.14a2.53,2.53,0,0,0-3.54,0,2.57,2.57,0,0,0,0,3.54Z"/><path class="cls-4" d="M63.85,29.8a5.71,5.71,0,0,1,3.45-3.36l-2.43-4.18C58.44,29.93,50.53,36.2,44.45,44.19a2.51,2.51,0,0,0,.9,3.42,2.56,2.56,0,0,0,3.42-.9C54.58,39.09,62.25,33.13,68.4,25.8a2.57,2.57,0,0,0,.39-3A2.52,2.52,0,0,0,66,21.62,11,11,0,0,0,59,28.48a2.51,2.51,0,0,0,1.74,3.07,2.56,2.56,0,0,0,3.08-1.75Z"/><path class="cls-4" d="M64.18,24.21h0l-.67.09a2.91,2.91,0,0,1,.59,0l-.66-.09a2.7,2.7,0,0,1,.6.17l-.6-.25a2.51,2.51,0,0,1,.61.36l-.51-.39a2.37,2.37,0,0,1,.5.5l-.39-.51a3,3,0,0,1,.32.54l-.25-.6a2.54,2.54,0,0,1,.16.6L63.83,24a1.77,1.77,0,0,1,0,.46,1.9,1.9,0,0,0,.22,1,1.82,1.82,0,0,0,.52.8,1.85,1.85,0,0,0,.8.52,1.88,1.88,0,0,0,1,.21,2.53,2.53,0,0,0,1.77-.73l.39-.51a2.43,2.43,0,0,0,.34-1.26,4.48,4.48,0,0,0-.11-1.21,4.91,4.91,0,0,0-.4-1.11,2.62,2.62,0,0,0-.3-.51,6.32,6.32,0,0,0-.74-.9,5.72,5.72,0,0,0-2-1.2,5.39,5.39,0,0,0-1.2-.21,4.92,4.92,0,0,0-1.21.11,1.89,1.89,0,0,0-.85.45,1.9,1.9,0,0,0-.65.7,1.79,1.79,0,0,0-.29.93,1.85,1.85,0,0,0,0,1A2.55,2.55,0,0,0,62.25,24l.6.25a2.5,2.5,0,0,0,1.33,0Z"/><path class="cls-4" d="M28,42.5a7,7,0,0,0-1.11.13,1.88,1.88,0,0,0-.45.12,5.05,5.05,0,0,0-1.42.69,7.6,7.6,0,0,0-.83.67,6.09,6.09,0,0,0-.68.84,5.43,5.43,0,0,0-.74,1.46l3.08-1.74h0l.6.25-.06,0,.51.39-.06-.06.39.5a.18.18,0,0,1,0-.07l.25.59a.66.66,0,0,1,0-.15l.09.67v-.17l-.09.67a.75.75,0,0,1,.05-.16l-.25.59a.3.3,0,0,1,.06-.11l-.39.51a.3.3,0,0,1,.08-.08l-.5.39.05,0-.6.25.08,0-.66.09h.06a2.43,2.43,0,0,0,1.26-.34,2.48,2.48,0,0,0,.9-.89,2.05,2.05,0,0,1,.26-.43l-.39.5a2.59,2.59,0,0,1,.4-.41l-.5.39a2.54,2.54,0,0,1,.53-.31l-.6.25a2.66,2.66,0,0,1,.63-.17l-.67.09a2.5,2.5,0,0,1,.61,0l-.67-.09a2.39,2.39,0,0,1,.54.15l-.6-.25a1.76,1.76,0,0,1,.42.24,2,2,0,0,0,.93.3,1.89,1.89,0,0,0,1,0,2.5,2.5,0,0,0,1.74-3.07L30.9,44a2.64,2.64,0,0,0-.89-.9,4.79,4.79,0,0,0-1-.49,2.05,2.05,0,0,0-.5-.14,5.07,5.07,0,0,0-2.29.06,5.24,5.24,0,0,0-2,1.08,4,4,0,0,0-1,1.33l2.16-1.24H25.3l-.67.08c-.14,0-.22.09-.38.15a2.88,2.88,0,0,0-.91.6,2.38,2.38,0,0,0-.48.65,3.34,3.34,0,0,0-.3.76,3.15,3.15,0,0,0,0,1.64,2.8,2.8,0,0,0,1.94,1.93,1.89,1.89,0,0,0,1,0,1.85,1.85,0,0,0,.93-.29l.5-.39a2.55,2.55,0,0,0,.65-1.11.88.88,0,0,1,.05-.15l-.25.6a3.23,3.23,0,0,1,.42-.72l-.39.51a4,4,0,0,1,.58-.59l-.5.4a2.68,2.68,0,0,1,.69-.41l-.6.25a3.09,3.09,0,0,1,.72-.2l-.66.09.34,0a2.59,2.59,0,0,0,1.77-.73A2.75,2.75,0,0,0,30.52,45a2.53,2.53,0,0,0-.73-1.77A2.64,2.64,0,0,0,28,42.5Z"/></g></g></svg>