<svg width="96" height="96" viewBox="0 0 96 96" xmlns="http://www.w3.org/2000/svg">
    <g fill="none" fill-rule="evenodd">
        <path d="M0 0h96v96H0z"/>
        <path d="m76.552 67.737-47.24-47.24a2.087 2.087 0 0 0-3.457.815L2.237 92.174a2.088 2.088 0 0 0 2.639 2.639l70.862-23.619a2.088 2.088 0 0 0 .814-3.457" fill="#EFD358"/>
        <path d="M26.36 20.498c4.076-4.076 18.617 3.855 32.477 17.715 13.86 13.86 21.792 28.401 17.714 32.478-4.076 4.077-18.617-3.855-32.477-17.715-13.86-13.86-21.792-28.401-17.715-32.478" fill="#E2AC4B"/>
        <path d="M62.672 51.08a2.087 2.087 0 0 1-1.879-2.978c5.253-11.168 18.383-15.032 31.922-9.395a2.088 2.088 0 0 1-1.608 3.854c-11.38-4.739-22.284-1.729-26.534 7.307a2.087 2.087 0 0 1-1.9 1.211" fill="#51BCAB"/>
        <path d="M75.2 11.412a6.264 6.264 0 1 1-.001 12.527 6.264 6.264 0 0 1 0-12.527" fill="#0B9D88"/>
        <path d="M83.55 76.132a4.175 4.175 0 1 1 0 8.35 4.175 4.175 0 0 1 0-8.35" fill="#2BAC9A"/>
        <path d="M56.41 32.29a4.175 4.175 0 1 1 0 8.35 4.175 4.175 0 0 1 0-8.35" fill="#026F5D"/>
        <path d="M86.682 51.08a3.131 3.131 0 1 1 0 6.262 3.131 3.131 0 0 1 0-6.263M34.488 5.149a3.131 3.131 0 1 1 0 6.263 3.131 3.131 0 0 1 0-6.263" fill="#83CFC3"/>
        <path d="M41.795 38.552a2.088 2.088 0 0 1-1.252-3.757c9.606-7.152 12.823-20.094 7.685-30.911a2.088 2.088 0 0 1 3.837-1.646c5.94 12.585 2.165 27.613-9.017 35.897-.36.272-.8.418-1.253.417" fill="#06806B"/>
        <path d="M6.663 27.755c-.554 0-1.084-.22-1.476-.612C1.04 23.138.925 16.529 4.93 12.383c4.006-4.147 10.614-4.262 14.76-.257.088.085.173.17.257.257a2.088 2.088 0 0 1-2.952 2.952 6.413 6.413 0 0 0-8.856 0 6.263 6.263 0 0 0 0 8.856 2.088 2.088 0 0 1-1.476 3.564" fill="#51BCAB"/>
    </g>
</svg>
