<svg xmlns="http://www.w3.org/2000/svg" xmlns:xlink="http://www.w3.org/1999/xlink" width="580" height="270" viewBox="0 0 580 270">
    <defs>
        <path id="c4bfjtse1a" d="M0 0H69V80H0z"/>
    </defs>
    <g fill="none" fill-rule="evenodd">
        <g>
            <g>
                <path d="M0 0H580V270H0z" transform="translate(-515.000000, -222.000000) translate(515.000000, 222.000000)"/>
                <g fill-rule="nonzero">
                    <path fill="#06806B" d="M109 0C38.202 0 0 21.798 0 42.308 0 60.895 31.468 80.479 90.043 84v-9.44C41.752 71.323 9.478 56.129 9.478 42.309c0-15.565 40.87-32.906 99.522-32.906 58.651 0 99.522 17.341 99.522 32.906 0 11.63-21.8 23.326-54.259 29.103-2.424.421-4.12 2.614-3.903 5.046.218 2.432 2.276 4.294 4.738 4.285.28 0 .562-.024.838-.075C194.778 73.747 218 59.405 218 42.307 218 21.799 179.798 0 109 0z" transform="translate(-515.000000, -222.000000) translate(515.000000, 222.000000) translate(285.984356, 141.006480) rotate(-45.000000) translate(-285.984356, -141.006480) translate(176.984356, 87.006480)"/>
                    <path fill="#645AED" d="M94.778 108C92.14 108 90 105.873 90 103.25V55.746c.002-1.778 1.002-3.407 2.593-4.22 1.591-.813 3.506-.675 4.962.358l33.449 23.752c1.253.892 1.996 2.33 1.996 3.862s-.743 2.97-1.996 3.862l-33.45 23.752c-.807.58-1.779.89-2.776.888z" transform="translate(-515.000000, -222.000000) translate(515.000000, 222.000000) translate(285.984356, 141.006480) rotate(-45.000000) translate(-285.984356, -141.006480) translate(176.984356, 87.006480)"/>
                </g>
                <g fill-rule="nonzero">
                    <path fill="#888" d="M22.88 198.798l-5.115-14.563-14.563-5.115-3.125 17.315c-.585 3.243 2.245 6.073 5.488 5.488l17.315-3.125z" transform="translate(-515.000000, -222.000000) translate(515.000000, 222.000000) translate(281.000000, 135.000000) scale(-1, 1) translate(-281.000000, -135.000000) translate(180.000000, 34.000000)"/>
                    <path fill="#EAD8C5" d="M58.897 192.299L50.537 151.463 9.701 143.103 3.202 179.12 22.88 198.798z" transform="translate(-515.000000, -222.000000) translate(515.000000, 222.000000) translate(281.000000, 135.000000) scale(-1, 1) translate(-281.000000, -135.000000) translate(180.000000, 34.000000)"/>
                    <path fill="#E86C60" d="M200.616 43.9L158.1 1.384c-1.845-1.845-4.835-1.845-6.68 0l-28.344 28.344 49.196 49.196 28.344-28.344c1.845-1.846 1.845-4.835 0-6.68z" transform="translate(-515.000000, -222.000000) translate(515.000000, 222.000000) translate(281.000000, 135.000000) scale(-1, 1) translate(-281.000000, -135.000000) translate(180.000000, 34.000000)"/>
                    <path fill="#EFB958" d="M123.076 29.728L9.701 143.103 37.842 171.244 151.02 57.672z" transform="translate(-515.000000, -222.000000) translate(515.000000, 222.000000) translate(281.000000, 135.000000) scale(-1, 1) translate(-281.000000, -135.000000) translate(180.000000, 34.000000)"/>
                    <path fill="#D8AC44" d="M23.117 105.919L183.455 105.919 183.455 140.706 23.117 140.706z" transform="translate(-515.000000, -222.000000) translate(515.000000, 222.000000) translate(281.000000, 135.000000) scale(-1, 1) translate(-281.000000, -135.000000) translate(180.000000, 34.000000) translate(103.286203, 123.312528) rotate(-45.000000) translate(-103.286203, -123.312528)"/>
                    <path fill="#C9514B" d="M142.952 19.539L152.399 19.539 152.399 89.112 142.952 89.112z" transform="translate(-515.000000, -222.000000) translate(515.000000, 222.000000) translate(281.000000, 135.000000) scale(-1, 1) translate(-281.000000, -135.000000) translate(180.000000, 34.000000) translate(147.675015, 54.325455) rotate(-45.000000) translate(-147.675015, -54.325455)"/>
                </g>
                <g transform="translate(-515.000000, -222.000000) translate(515.000000, 222.000000) translate(304.500000, 162.000000) rotate(-45.000000) translate(-304.500000, -162.000000) translate(270.000000, 122.000000)">
                    <mask id="e8pzi9vm7b" fill="#fff">
                        <use xlink:href="#c4bfjtse1a"/>
                    </mask>
                    <g fill-rule="nonzero" mask="url(#e8pzi9vm7b)">
                        <g>
                            <path fill="#06806B" d="M109 0C38.202 0 0 21.844 0 42.398c0 18.626 31.468 38.252 90.043 41.78v-9.46c-48.291-3.245-80.565-18.47-80.565-32.32C9.478 26.8 50.348 9.422 109 9.422c58.651 0 99.522 17.378 99.522 32.976 0 11.654-21.8 23.375-54.259 29.165-2.424.422-4.12 2.619-3.903 5.056.218 2.437 2.276 4.303 4.738 4.295.28 0 .562-.025.838-.076C194.778 73.904 218 59.531 218 42.398 218 21.844 179.798 0 109 0z" transform="translate(-72.000000, -42.000000)"/>
                            <path fill="#0B9D88" d="M94.371 109c-2.649 0-4.797-2.134-4.797-4.767V56.565c.002-1.785 1.006-3.42 2.604-4.235 1.597-.816 3.519-.678 4.98.36l33.58 23.833c1.258.896 2.005 2.338 2.005 3.876 0 1.537-.747 2.98-2.004 3.875l-33.58 23.835c-.812.582-1.787.894-2.788.891z" transform="translate(-72.000000, -42.000000)"/>
                        </g>
                    </g>
                </g>
                <g stroke="#06806B" transform="translate(-515.000000, -222.000000) translate(515.000000, 222.000000) translate(502.000000, 180.000000) rotate(-20.000000) translate(-502.000000, -180.000000) translate(478.000000, 156.000000)">
                    <path d="M10 24L34 24"/>
                    <path stroke-linecap="square" d="M26 15L35 23.5 26 32"/>
                    <circle cx="24" cy="24" r="24" stroke-linecap="square"/>
                </g>
                <g stroke="#06806B" transform="translate(-515.000000, -222.000000) translate(515.000000, 222.000000) translate(41.000000, 51.000000) rotate(-10.000000) translate(-41.000000, -51.000000) translate(28.000000, 38.000000)">
                    <path d="M5.859 13.299L18.859 13.299"/>
                    <path stroke-linecap="square" d="M14.302 8.288L19.302 12.788 14.302 17.288"/>
                    <circle cx="13" cy="13" r="13" stroke-linecap="square"/>
                </g>
                <g stroke="#06806B">
                    <path d="M19.798 6.96c-2.624-2.624-6.187-4.1-9.899-4.1-3.712 0-7.275 1.476-9.899 4.1" transform="translate(-515.000000, -222.000000) translate(515.000000, 222.000000) translate(423.500000, 141.244000) scale(-1, 1) rotate(30.000000) translate(-423.500000, -141.244000) translate(413.601000, 137.140000)"/>
                    <path stroke-linecap="square" d="M6.96 8.208L0 6.96 1.247 0" transform="translate(-515.000000, -222.000000) translate(515.000000, 222.000000) translate(423.500000, 141.244000) scale(-1, 1) rotate(30.000000) translate(-423.500000, -141.244000) translate(413.601000, 137.140000)"/>
                </g>
                <g stroke="#06806B">
                    <path d="M19.798 6.96c-2.624-2.624-6.187-4.1-9.899-4.1-3.712 0-7.275 1.476-9.899 4.1" transform="translate(-515.000000, -222.000000) translate(515.000000, 222.000000) translate(137.500000, 227.244000) scale(-1, 1) rotate(30.000000) translate(-137.500000, -227.244000) translate(127.601000, 223.140000)"/>
                    <path stroke-linecap="square" d="M6.96 8.208L0 6.96 1.247 0" transform="translate(-515.000000, -222.000000) translate(515.000000, 222.000000) translate(137.500000, 227.244000) scale(-1, 1) rotate(30.000000) translate(-137.500000, -227.244000) translate(127.601000, 223.140000)"/>
                </g>
                <g stroke="#06806B">
                    <path d="M6.375 33L0 33 0 8 34 8M39.625 8L46 8 46 33 12 33" transform="translate(-515.000000, -222.000000) translate(515.000000, 222.000000) translate(434.000000, 66.000000) rotate(10.000000) translate(-434.000000, -66.000000) translate(411.000000, 45.000000)"/>
                    <path stroke-linecap="square" d="M25 0L33 8.5 25 17M20 25L12 33.5 20 42" transform="translate(-515.000000, -222.000000) translate(515.000000, 222.000000) translate(434.000000, 66.000000) rotate(10.000000) translate(-434.000000, -66.000000) translate(411.000000, 45.000000)"/>
                </g>
                <g stroke="#06806B">
                    <path d="M40 27H13.333C5.97 27 0 20.956 0 13.5h0C0 6.044 5.97 0 13.333 0h13.334" transform="translate(-515.000000, -222.000000) translate(515.000000, 222.000000) translate(76.000000, 175.000000) rotate(3.000000) translate(-76.000000, -175.000000) translate(56.000000, 157.000000)"/>
                    <path stroke-linecap="square" d="M31 17L40 26.5 31 36" transform="translate(-515.000000, -222.000000) translate(515.000000, 222.000000) translate(76.000000, 175.000000) rotate(3.000000) translate(-76.000000, -175.000000) translate(56.000000, 157.000000)"/>
                </g>
                <g stroke="#06806B">
                    <path d="M48 12H26.4C18.446 12 12 18.446 12 26.4V48" transform="translate(-515.000000, -222.000000) translate(515.000000, 222.000000) translate(110.000000, 37.000000)"/>
                    <path stroke-linecap="square" d="M36 24L48 12 36 0M0 36L12 48 24 36" transform="translate(-515.000000, -222.000000) translate(515.000000, 222.000000) translate(110.000000, 37.000000)"/>
                </g>
                <g stroke="#06806B">
                    <path d="M20 4H6c-3.3 0-6 2.7-6 6v1M0 16h14c3.3 0 6-2.7 6-6V9" transform="translate(-515.000000, -222.000000) translate(515.000000, 222.000000) translate(271.500000, 17.000000)"/>
                    <path stroke-linecap="square" d="M16 8L20 4 16 0M4 12L0 16 4 20" transform="translate(-515.000000, -222.000000) translate(515.000000, 222.000000) translate(271.500000, 17.000000)"/>
                </g>
                <g stroke="#06806B" stroke-linecap="round" stroke-linejoin="round">
                    <path d="M0 0L6 5.5 0 11" transform="translate(-515.000000, -222.000000) translate(515.000000, 222.000000) translate(537.500000, 93.000000)"/>
                </g>
                <g stroke="#06806B" stroke-linecap="round" stroke-linejoin="round">
                    <path d="M0 0L6 5.5 0 11" transform="translate(-515.000000, -222.000000) translate(515.000000, 222.000000) translate(283.500000, 236.000000)"/>
                </g>
                <g stroke="#06806B" stroke-linecap="round" stroke-linejoin="round">
                    <path d="M0 0L6 5.5 0 11" transform="translate(-515.000000, -222.000000) translate(515.000000, 222.000000) translate(54.500000, 106.000000)"/>
                </g>
                <g stroke="#06806B" stroke-linecap="round" stroke-linejoin="round">
                    <path d="M0 0L6 5.5 0 11" transform="translate(-515.000000, -222.000000) translate(515.000000, 222.000000) translate(29.500000, 244.500000) rotate(-10.000000) translate(-29.500000, -244.500000) translate(26.500000, 239.000000)"/>
                </g>
                <g stroke="#06806B" stroke-linecap="round" stroke-linejoin="round">
                    <path d="M9 0L0 9M3 0L9 0 9 6" transform="translate(-515.000000, -222.000000) translate(515.000000, 222.000000) translate(543.500000, 26.000000)"/>
                </g>
                <g stroke="#06806B" stroke-linecap="round" stroke-linejoin="round">
                    <path d="M9 0L0 9M3 0L9 0 9 6" transform="translate(-515.000000, -222.000000) translate(515.000000, 222.000000) translate(502.500000, 241.000000)"/>
                </g>
                <g stroke="#06806B">
                    <path d="M0 0L10 10 10 21M13 7L20 0" transform="translate(-515.000000, -222.000000) translate(515.000000, 222.000000) translate(153.500000, 140.000000)"/>
                    <path stroke-linecap="square" d="M0 6L0 0 6 0M20 6L20 0 14 0" transform="translate(-515.000000, -222.000000) translate(515.000000, 222.000000) translate(153.500000, 140.000000)"/>
                </g>
            </g>
        </g>
    </g>
</svg>
