<svg xmlns="http://www.w3.org/2000/svg" width="580" height="270" viewBox="0 0 580 270">
    <g fill="none" fill-rule="evenodd">
        <g>
            <g>
                <path d="M0 0H580V270H0z" transform="translate(-515.000000, -222.000000) translate(515.000000, 222.000000)"/>
                <path fill="#BCBCBC" d="M194.505 200.828c0 2.077-2.196 3.757-4.904 3.757h-1.839c-2.708 0-4.904-1.68-4.904-3.757V136.17c0-2.077 2.196-3.76 4.904-3.76h1.839c2.708 0 4.904 1.683 4.904 3.76v64.658M397.608 200.828c0 2.077-2.196 3.757-4.904 3.757h-1.838c-2.709 0-4.905-1.68-4.905-3.757V136.17c0-2.077 2.196-3.76 4.905-3.76h1.838c2.708 0 4.904 1.683 4.904 3.76v64.658M229.34 105.006c0 2.078-1.893 3.76-4.229 3.76h-16.915c-2.335 0-4.229-1.682-4.229-3.76V71.923c0-2.077 1.894-3.76 4.23-3.76h16.914c2.336 0 4.23 1.683 4.23 3.76v33.083M376.499 105.006c0 2.078-1.894 3.76-4.23 3.76h-16.914c-2.336 0-4.23-1.682-4.23-3.76V71.923c0-2.077 1.894-3.76 4.23-3.76h16.915c2.335 0 4.229 1.683 4.229 3.76v33.083" transform="translate(-515.000000, -222.000000) translate(515.000000, 222.000000)"/>
                <path fill="#D1D1D1" d="M391.043 131.762c-1.77-35.319-46.223-63.6-100.81-63.6s-99.04 28.281-100.81 63.6c-.038.35-.062.702-.062 1.059v101.248c0 6.99 7.328 12.656 16.367 12.656h169.01c9.04 0 16.367-5.666 16.367-12.656V132.821c0-.357-.024-.71-.062-1.06" transform="translate(-515.000000, -222.000000) translate(515.000000, 222.000000)"/>
                <path fill="#BCBCBC" d="M374.739 238.23H205.728c-9.04 0-16.367-3.63-16.367-8.103v8.494c0 4.477 7.328 8.104 16.367 8.104h169.01c9.04 0 16.367-3.627 16.367-8.104v-8.494c0 4.473-7.328 8.104-16.366 8.104M365.756 208.195v-54.457c0-.298-.018-.593-.047-.884-1.325-29.443-34.607-53.017-75.476-53.017-40.87 0-74.15 23.574-75.476 53.017-.029.291-.046.586-.046.884v54.457h151.045" transform="translate(-515.000000, -222.000000) translate(515.000000, 222.000000)"/>
                <path fill="#3D4756" d="M365.756 208.195v-51.067c0-.277-.018-.555-.047-.826-1.325-27.612-34.607-49.715-75.476-49.715-40.87 0-74.15 22.103-75.476 49.715-.029.271-.046.549-.046.826v51.067h151.045" transform="translate(-515.000000, -222.000000) translate(515.000000, 222.000000)"/>
                <path fill="#2D353F" d="M365.71 156.302c-1.326-27.612-34.608-49.715-75.477-49.715-40.87 0-74.15 22.103-75.476 49.715-.029.271-.046.549-.046.826v11.278c0-.28.017-.555.046-.83 1.325-27.608 34.607-49.715 75.476-49.715 40.87 0 74.151 22.107 75.476 49.716.029.274.047.548.047.83v-11.279c0-.277-.018-.555-.047-.826" transform="translate(-515.000000, -222.000000) translate(515.000000, 222.000000)"/>
                <path fill="#BCBCBC" d="M222.815 28.885c0 3.404-2.758 6.164-6.161 6.164-3.403 0-6.161-2.76-6.161-6.164 0-3.4 2.758-6.16 6.16-6.16 3.404 0 6.162 2.76 6.162 6.16" transform="translate(-515.000000, -222.000000) translate(515.000000, 222.000000)"/>
                <path fill="#BCBCBC" d="M220.206 77.754L213.102 77.754 214.827 28.885 218.168 28.885 220.206 77.754M369.973 28.885c0 3.404-2.758 6.164-6.16 6.164-3.404 0-6.162-2.76-6.162-6.164 0-3.4 2.758-6.16 6.161-6.16 3.403 0 6.161 2.76 6.161 6.16" transform="translate(-515.000000, -222.000000) translate(515.000000, 222.000000)"/>
                <path fill="#BCBCBC" d="M367.364 77.754L360.26 77.754 361.985 28.885 365.327 28.885 367.364 77.754" transform="translate(-515.000000, -222.000000) translate(515.000000, 222.000000)"/>
                <path fill="#69FF77" d="M253.181 149.498c0 3.816-3.094 6.91-6.91 6.91-3.817 0-6.911-3.094-6.911-6.91 0-3.817 3.094-6.911 6.91-6.911 3.817 0 6.911 3.094 6.911 6.91M341.012 149.498c0 3.816-3.093 6.91-6.91 6.91s-6.91-3.094-6.91-6.91c0-3.817 3.093-6.911 6.91-6.911s6.91 3.094 6.91 6.91M311.308 173.552c-.897-.027-1.653.685-1.68 1.586-.003.1-.295 7.427-4.955 11.272-4.452 3.672-12.524 4.902-16.442 4.89-3.661.16-11.99-1.218-16.443-4.89-4.66-3.845-4.952-11.173-4.955-11.272-.026-.901-.783-1.613-1.68-1.586-.902.025-1.614.778-1.588 1.68.01.36.314 8.892 6.142 13.7 5.95 4.908 13.625 5.655 17.746 5.655 4.92 0 13.352-.747 19.301-5.655 5.828-4.808 6.133-13.34 6.143-13.7.025-.902-.686-1.655-1.589-1.68" transform="translate(-515.000000, -222.000000) translate(515.000000, 222.000000)"/>
                <g stroke="#06806B" transform="translate(-515.000000, -222.000000) translate(515.000000, 222.000000) translate(429.000000, 184.000000)">
                    <path d="M17 10L8 23M45 14L26 7M46 20L26 40M49 22L47 44M11 26L45 17"/>
                    <circle cx="5.5" cy="27.5" r="5.5"/>
                    <circle cx="49.5" cy="16.5" r="5.5"/>
                    <circle cx="20.5" cy="5.5" r="5.5"/>
                    <circle cx="21.5" cy="44.5" r="5.5"/>
                    <circle cx="46.5" cy="49.5" r="5.5"/>
                </g>
                <g stroke="#06806B" stroke-linecap="square" transform="translate(-515.000000, -222.000000) translate(515.000000, 222.000000) translate(82.500000, 70.500000) rotate(10.000000) translate(-82.500000, -70.500000) translate(57.000000, 45.000000)">
                    <path d="M17 5L17 0M34 5L34 0M26 5L26 0M5 34L0 34M5 17L0 17M5 25L0 25M51 34L46 34M51 17L46 17M51 25L46 25M17 51L17 46M34 51L34 46M26 51L26 46"/>
                    <rect width="42" height="42" x="5" y="4" rx="2"/>
                    <circle cx="33.5" cy="33.5" r="4.5"/>
                </g>
                <g stroke="#06806B" stroke-linecap="square" transform="translate(-515.000000, -222.000000) translate(515.000000, 222.000000) translate(537.500000, 128.500000)">
                    <path d="M10 3L10 0M20 3L20 0M15 3L15 0M3 20L0 20M3 10L0 10M3 15L0 15M30 20L27 20M30 10L27 10M30 15L27 15M10 30L10 27M20 30L20 27M15 30L15 27"/>
                    <rect width="24" height="24" x="3" y="3" rx="2"/>
                    <path d="M8 8H22V22H8z"/>
                </g>
                <g stroke="#06806B" transform="translate(-515.000000, -222.000000) translate(515.000000, 222.000000) translate(73.000000, 186.000000)">
                    <circle cx="5" cy="46" r="4" stroke-linecap="square"/>
                    <circle cx="25" cy="46" r="4" stroke-linecap="square"/>
                    <circle cx="46" cy="46" r="4" stroke-linecap="square"/>
                    <path d="M25 42L25 30M44 43L39 38.406 39 30M7 43L12 38.407 12 30"/>
                    <path stroke-linecap="square" d="M40 10c-.288 0-.573.02-.857.044C37.044 4.029 31.37 0 25 0c-6.37 0-12.044 4.029-14.143 10.044C10.573 10.02 10.288 10 10 10 4.477 10 0 14.477 0 20s4.477 10 10 10h30c5.523 0 10-4.477 10-10s-4.477-10-10-10z"/>
                </g>
                <g stroke="#06806B" stroke-linecap="round" stroke-linejoin="round" transform="translate(-515.000000, -222.000000) translate(515.000000, 222.000000) translate(447.500000, 64.500000) rotate(10.000000) translate(-447.500000, -64.500000) translate(433.000000, 50.000000)">
                    <path d="M8 6L18 6M14 23L6 9M29 10L21 12 17 6 21 0 29 2"/>
                    <circle cx="4" cy="6" r="4"/>
                    <path d="M2 23H25V29H2z"/>
                </g>
                <g stroke="#06806B" stroke-linecap="square" transform="translate(-515.000000, -222.000000) translate(515.000000, 222.000000) translate(280.000000, 20.000000)">
                    <circle cx="11.5" cy="2.5" r="2.5"/>
                    <circle cx="2.5" cy="19.5" r="2.5"/>
                    <circle cx="20.5" cy="19.5" r="2.5"/>
                    <path d="M6 4C1.954 6.61.065 12.01 1.451 17M19 21c-3.33 3.201-8.737 3.93-13 1.752M22 14c-.003-5.273-3.325-9.841-8-11"/>
                </g>
                <g stroke="#06806B" stroke-linecap="square">
                    <path d="M4 4L0 8 4 12M16 4L20 8 16 12M8 16L12 0" transform="translate(-515.000000, -222.000000) translate(515.000000, 222.000000) translate(124.500000, 137.500000)"/>
                </g>
                <g stroke="#06806B" stroke-linecap="square">
                    <path d="M4 4L0 8 4 12M16 4L20 8 16 12M8 16L12 0" transform="translate(-515.000000, -222.000000) translate(515.000000, 222.000000) translate(31.500000, 20.500000) rotate(-10.000000) translate(-31.500000, -20.500000) translate(21.500000, 12.500000)"/>
                </g>
                <g stroke="#06806B" stroke-linecap="square">
                    <path d="M4 4L0 8 4 12M16 4L20 8 16 12M8 16L12 0" transform="translate(-515.000000, -222.000000) translate(515.000000, 222.000000) translate(541.500000, 47.500000) rotate(10.000000) translate(-541.500000, -47.500000) translate(531.500000, 39.500000)"/>
                </g>
                <g stroke="#06806B" stroke-linecap="square">
                    <path d="M4 4L0 8 4 12M16 4L20 8 16 12M8 16L12 0" transform="translate(-515.000000, -222.000000) translate(515.000000, 222.000000) translate(452.500000, 133.500000)"/>
                </g>
                <g stroke="#06806B" stroke-linecap="square">
                    <path d="M4 4L0 8 4 12M16 4L20 8 16 12M8 16L12 0" transform="translate(-515.000000, -222.000000) translate(515.000000, 222.000000) translate(537.500000, 230.500000) rotate(20.000000) translate(-537.500000, -230.500000) translate(527.500000, 222.500000)"/>
                </g>
                <g stroke="#06806B" stroke-linecap="square">
                    <path d="M4 4L0 8 4 12M16 4L20 8 16 12M8 16L12 0" transform="translate(-515.000000, -222.000000) translate(515.000000, 222.000000) translate(21.500000, 243.500000)"/>
                </g>
                <g stroke="#06806B" stroke-linecap="square">
                    <path d="M0 12L32 12M5 4L5 0 9 0M23 0L27 0 27 4M27 20L27 24 23 24M9 24L5 24 5 20" transform="translate(-515.000000, -222.000000) translate(515.000000, 222.000000) translate(30.000000, 142.000000)"/>
                </g>
                <g stroke="#06806B" stroke-linecap="round" stroke-linejoin="round">
                    <path d="M0 0h0c1.657 0 3 1.343 3 3v9c0 1.657-1.343 3-3 3h0M3 12c0 1.657 1.343 3 3 3h0M6 0h0C4.343 0 3 1.343 3 3M0 10L6 10" transform="translate(-515.000000, -222.000000) translate(515.000000, 222.000000) translate(150.000000, 51.500000) rotate(6.000000) translate(-150.000000, -51.500000) translate(147.000000, 44.000000)"/>
                </g>
            </g>
        </g>
    </g>
</svg>
