<svg xmlns="http://www.w3.org/2000/svg" xmlns:xlink="http://www.w3.org/1999/xlink" width="300" height="204" viewBox="0 0 300 204">
    <defs>
        <path id="hg3pytof0a" d="M0 0h300v196c0 4.418-3.582 8-8 8H8c-4.418 0-8-3.582-8-8V0z"/>
        <path id="8n8ni43juc" d="M4 0h260c2.21 0 4 1.79 4 4v196H0V4c0-2.21 1.79-4 4-4z"/>
        <linearGradient id="d1lkxnb5xh" x1="50%" x2="50%" y1="0%" y2="100%">
            <stop offset="0%" stop-color="#FFF" stop-opacity="0"/>
            <stop offset="100%" stop-color="#FFF"/>
        </linearGradient>
        <filter id="01sjrk8f2d" width="109.3%" height="112.5%" x="-4.7%" y="-5.8%" filterUnits="objectBoundingBox">
            <feOffset dy="1" in="SourceAlpha" result="shadowOffsetOuter1"/>
            <feGaussianBlur in="shadowOffsetOuter1" result="shadowBlurOuter1" stdDeviation="4"/>
            <feColorMatrix in="shadowBlurOuter1" result="shadowMatrixOuter1" values="0 0 0 0 0 0 0 0 0 0 0 0 0 0 0 0 0 0 0.2 0"/>
            <feMorphology in="SourceAlpha" radius="1" result="shadowSpreadOuter2"/>
            <feOffset dy="3" in="shadowSpreadOuter2" result="shadowOffsetOuter2"/>
            <feGaussianBlur in="shadowOffsetOuter2" result="shadowBlurOuter2" stdDeviation="1.5"/>
            <feColorMatrix in="shadowBlurOuter2" result="shadowMatrixOuter2" values="0 0 0 0 0 0 0 0 0 0 0 0 0 0 0 0 0 0 0.12 0"/>
            <feOffset dy="3" in="SourceAlpha" result="shadowOffsetOuter3"/>
            <feGaussianBlur in="shadowOffsetOuter3" result="shadowBlurOuter3" stdDeviation="2"/>
            <feColorMatrix in="shadowBlurOuter3" result="shadowMatrixOuter3" values="0 0 0 0 0 0 0 0 0 0 0 0 0 0 0 0 0 0 0.14 0"/>
            <feMerge>
                <feMergeNode in="shadowMatrixOuter1"/>
                <feMergeNode in="shadowMatrixOuter2"/>
                <feMergeNode in="shadowMatrixOuter3"/>
            </feMerge>
        </filter>
        <rect id="1if8ywtrnf" width="244" height="12" x="0" y="0" rx="4"/>
    </defs>
    <g fill="none" fill-rule="evenodd">
        <g>
            <g transform="translate(-980.000000, -374.000000) translate(980.000000, 374.000000)">
                <mask id="iknguxj4mb" fill="#fff">
                    <use xlink:href="#hg3pytof0a"/>
                </mask>
                <g mask="url(#iknguxj4mb)">
                    <g transform="translate(16.000000, 4.000000)">
                        <mask id="40bb6a147e" fill="#fff">
                            <use xlink:href="#8n8ni43juc"/>
                        </mask>
                        <g>
                            <use fill="#000" filter="url(#01sjrk8f2d)" xlink:href="#8n8ni43juc"/>
                            <use fill="#FFF" xlink:href="#8n8ni43juc"/>
                        </g>
                        <path fill="#262626" fill-rule="nonzero" d="M14.856 24v-4.228h4.13V18.4h-4.13v-3.164h4.466v-1.372h-6.104V24h1.638zm6.678-8.456c.672 0 1.05-.378 1.05-1.064 0-.672-.378-1.05-1.05-1.05-.658 0-1.05.378-1.05 1.05 0 .686.392 1.064 1.05 1.064zM22.332 24v-7.238h-1.61V24h1.61zm3.57 0v-5.278c.35-.322 1.106-.77 1.834-.77.854 0 1.19.476 1.19 1.386V24h1.61v-4.928c0-1.638-.672-2.464-2.24-2.464-.994 0-1.862.392-2.506.91l-.07-.756h-1.428V24h1.61zm7.392-8.456c.672 0 1.05-.378 1.05-1.064 0-.672-.378-1.05-1.05-1.05-.658 0-1.05.378-1.05 1.05 0 .686.392 1.064 1.05 1.064zM34.092 24v-7.238h-1.61V24h1.61zm4.382.168c1.778 0 2.982-.798 2.982-2.296 0-1.525-1.133-1.893-2.288-2.116l-.288-.054c-.952-.168-1.568-.364-1.568-1.036 0-.476.364-.854 1.246-.854.938 0 1.204.504 1.372 1.218l1.4-.364c-.28-1.26-1.064-2.058-2.744-2.058-1.512 0-2.786.728-2.786 2.24 0 1.722 1.386 1.988 2.576 2.212.924.168 1.512.308 1.512 1.036 0 .616-.56.868-1.358.868-1.162 0-1.456-.602-1.638-1.288l-1.372.448c.224 1.344 1.218 2.044 2.954 2.044zm6.09-.168v-5.278c.35-.322 1.106-.77 1.834-.77.854 0 1.19.476 1.19 1.386V24h1.61v-4.928c0-1.638-.672-2.464-2.226-2.464-1.008 0-1.792.364-2.422.868V13.43h-1.596V24h1.61zm12.012.168c.77 0 1.554-.266 1.918-.504l-.266-1.148c-.294.168-.798.336-1.232.336-.784 0-.966-.378-.966-1.092v-3.808h1.96v-1.19h-1.96v-2.338l-1.61.224v2.114h-1.106v1.19h1.106v4.032c0 1.54.728 2.184 2.156 2.184zM61.224 24v-5.278c.35-.322 1.106-.77 1.834-.77.854 0 1.19.476 1.19 1.386V24h1.61v-4.928c0-1.638-.672-2.464-2.226-2.464-1.008 0-1.792.364-2.422.868V13.43h-1.596V24h1.61zm9.576.168c1.568 0 2.674-.784 2.954-2.156l-1.372-.336c-.168.742-.56 1.176-1.484 1.176-1.05 0-1.778-.546-1.82-2.072h4.69c.028-.336.042-.672.042-.966 0-1.876-.868-3.206-2.968-3.206-1.89 0-3.458 1.162-3.458 3.78 0 1.988.812 3.78 3.416 3.78zm1.344-4.508h-3.038c.07-1.288.826-1.778 1.638-1.778.966 0 1.4.546 1.4 1.778zm8.722 4.508c1.778 0 2.982-.798 2.982-2.296 0-1.525-1.133-1.893-2.288-2.116l-.288-.054c-.952-.168-1.568-.364-1.568-1.036 0-.476.364-.854 1.246-.854.938 0 1.204.504 1.372 1.218l1.4-.364c-.28-1.26-1.064-2.058-2.744-2.058-1.512 0-2.786.728-2.786 2.24 0 1.722 1.386 1.988 2.576 2.212.924.168 1.512.308 1.512 1.036 0 .616-.56.868-1.358.868-1.162 0-1.456-.602-1.638-1.288l-1.372.448c.224 1.344 1.218 2.044 2.954 2.044zm7.504 0c1.568 0 2.674-.784 2.954-2.156l-1.372-.336c-.168.742-.56 1.176-1.484 1.176-1.05 0-1.778-.546-1.82-2.072h4.69c.028-.336.042-.672.042-.966 0-1.876-.868-3.206-2.968-3.206-1.89 0-3.458 1.162-3.458 3.78 0 1.988.812 3.78 3.416 3.78zm1.344-4.508h-3.038c.07-1.288.826-1.778 1.638-1.778.966 0 1.4.546 1.4 1.778zm4.9 4.34v-5.278c.35-.322 1.106-.77 1.834-.77.854 0 1.19.476 1.19 1.386V24h1.61v-4.928c0-1.638-.672-2.464-2.24-2.464-.994 0-1.862.392-2.506.91l-.07-.756h-1.428V24h1.61zm9.002.168c.77 0 1.554-.266 1.918-.504l-.266-1.148c-.294.168-.798.336-1.232.336-.784 0-.966-.378-.966-1.092v-3.808h1.96v-1.19h-1.96v-2.338l-1.61.224v2.114h-1.106v1.19h1.106v4.032c0 1.54.728 2.184 2.156 2.184zm6.062 0c1.568 0 2.674-.784 2.954-2.156l-1.372-.336c-.168.742-.56 1.176-1.484 1.176-1.05 0-1.778-.546-1.82-2.072h4.69c.028-.336.042-.672.042-.966 0-1.876-.868-3.206-2.968-3.206-1.89 0-3.458 1.162-3.458 3.78 0 1.988.812 3.78 3.416 3.78zm1.344-4.508h-3.038c.07-1.288.826-1.778 1.638-1.778.966 0 1.4.546 1.4 1.778zm4.9 4.34v-5.278c.35-.322 1.106-.77 1.834-.77.854 0 1.19.476 1.19 1.386V24h1.61v-4.928c0-1.638-.672-2.464-2.24-2.464-.994 0-1.862.392-2.506.91l-.07-.756h-1.428V24h1.61zm9.548.168c1.554 0 2.842-.742 3.08-2.478l-1.4-.28c-.168 1.008-.7 1.442-1.596 1.442-1.008 0-1.792-.602-1.792-2.562 0-1.918.896-2.394 1.834-2.394.938 0 1.33.616 1.442 1.568l1.484-.21c-.126-1.708-1.26-2.646-2.856-2.646-2.268 0-3.584 1.358-3.584 3.864 0 2.156.994 3.696 3.388 3.696zm7.602 0c1.568 0 2.674-.784 2.954-2.156l-1.372-.336c-.168.742-.56 1.176-1.484 1.176-1.05 0-1.778-.546-1.82-2.072h4.69c.028-.336.042-.672.042-.966 0-1.876-.868-3.206-2.968-3.206-1.89 0-3.458 1.162-3.458 3.78 0 1.988.812 3.78 3.416 3.78zm1.344-4.508h-3.038c.07-1.288.826-1.778 1.638-1.778.966 0 1.4.546 1.4 1.778zm4.004-.602c.728 0 1.092-.364 1.092-1.05 0-.7-.378-1.064-1.092-1.064-.728 0-1.092.364-1.092 1.064 0 .7.364 1.05 1.092 1.05zm0 5.11c.728 0 1.092-.364 1.092-1.05 0-.7-.378-1.064-1.092-1.064-.728 0-1.092.364-1.092 1.064 0 .7.364 1.05 1.092 1.05z" mask="url(#40bb6a147e)"/>
                        <rect width="244" height="60" x="12" y="34" fill="#F1F3F4" mask="url(#40bb6a147e)" rx="4"/>
                        <g mask="url(#40bb6a147e)">
                            <g fill="#434343" fill-rule="nonzero">
                                <path d="M5.166 10.57L8.414.434H7.098l-2.772 8.89h-.014L1.442.434H0L3.416 10.57h1.75zm7.392.168c2.422 0 3.402-1.54 3.402-3.906 0-2.142-.938-3.612-3.22-3.612-2.296 0-3.5 1.456-3.5 3.78 0 2.128.826 3.738 3.318 3.738zm.07-1.022c-1.4 0-2.072-.868-2.072-2.772 0-1.918.854-2.674 2.128-2.674 1.246 0 1.946.658 1.946 2.646 0 2.044-.756 2.8-2.002 2.8zm6.426.854V0H17.78v10.57h1.274zm5.068.168c1.442 0 2.716-.7 2.954-2.366l-1.12-.238c-.182 1.064-.812 1.54-1.792 1.54-1.148 0-2.016-.644-2.016-2.786 0-2.044 1.022-2.604 2.058-2.604 1.008 0 1.498.546 1.61 1.61l1.218-.168c-.098-1.666-1.162-2.506-2.772-2.506-2.156 0-3.444 1.316-3.444 3.822 0 2.156.924 3.696 3.304 3.696zm6.454 0c1.008 0 1.75-.322 2.31-.882.07.462.392.854 1.106.854.35 0 .714-.084.994-.224l-.056-.798c-.182.056-.308.084-.434.084-.364 0-.434-.168-.434-.56V5.698c0-1.792-.798-2.478-2.576-2.478-1.666 0-2.534.63-2.758 1.974l1.12.21c.154-.798.532-1.19 1.526-1.19 1.176 0 1.428.56 1.428 1.47v.7c-.196-.014-.406-.028-.63-.028-2.03 0-3.724.532-3.724 2.45 0 .7.308 1.932 2.128 1.932zm.392-.994c-.98 0-1.204-.532-1.204-1.148 0-1.232 1.33-1.33 2.324-1.33.266 0 .532.014.728.042v1.624c-.392.42-1.106.812-1.848.812zm6.734.826V5.208c.378-.336 1.274-.868 2.1-.868.98 0 1.344.546 1.344 1.54v4.69h1.274V5.684c0-1.624-.672-2.464-2.212-2.464-.994 0-1.89.448-2.59 1.008l-.07-.854h-1.12v7.196h1.274zm9.744.168c2.422 0 3.402-1.54 3.402-3.906 0-2.142-.938-3.612-3.22-3.612-2.296 0-3.5 1.456-3.5 3.78 0 2.128.826 3.738 3.318 3.738zm.07-1.022c-1.4 0-2.072-.868-2.072-2.772 0-1.918.854-2.674 2.128-2.674 1.246 0 1.946.658 1.946 2.646 0 2.044-.756 2.8-2.002 2.8zm8.022 1.022c1.442 0 2.562-.686 2.856-2.086l-1.12-.252c-.196.812-.672 1.274-1.694 1.274-1.148 0-1.96-.574-2.016-2.408h4.844c.042-.336.056-.658.056-.938 0-1.778-.84-3.108-2.856-3.108-1.848 0-3.388 1.134-3.388 3.766 0 1.974.77 3.752 3.318 3.752zm1.61-4.48h-3.57c.07-1.428.994-2.002 1.946-2.002 1.134 0 1.624.714 1.624 2.002zm5.446 4.48c1.75 0 2.814-.812 2.814-2.184 0-1.61-1.246-1.876-2.562-2.156-1.008-.21-1.596-.42-1.596-1.162 0-.546.336-1.008 1.386-1.008 1.05 0 1.33.504 1.498 1.33l1.148-.252c-.224-1.274-.924-2.086-2.632-2.086-1.456 0-2.66.714-2.66 2.17 0 1.68 1.414 1.932 2.59 2.17.98.196 1.568.336 1.568 1.134 0 .77-.63 1.036-1.498 1.036-1.274 0-1.596-.616-1.792-1.386l-1.134.308c.224 1.442 1.218 2.086 2.87 2.086zm10.472 0c1.442 0 2.716-.7 2.954-2.366l-1.12-.238c-.182 1.064-.812 1.54-1.792 1.54-1.148 0-2.016-.644-2.016-2.786 0-2.044 1.022-2.604 2.058-2.604 1.008 0 1.498.546 1.61 1.61l1.218-.168C75.88 4.06 74.816 3.22 73.206 3.22c-2.156 0-3.444 1.316-3.444 3.822 0 2.156.924 3.696 3.304 3.696zm6.454 0c1.008 0 1.75-.322 2.31-.882.07.462.392.854 1.106.854.35 0 .714-.084.994-.224l-.056-.798c-.182.056-.308.084-.434.084-.364 0-.434-.168-.434-.56V5.698c0-1.792-.798-2.478-2.576-2.478-1.666 0-2.534.63-2.758 1.974l1.12.21c.154-.798.532-1.19 1.526-1.19 1.176 0 1.428.56 1.428 1.47v.7c-.196-.014-.406-.028-.63-.028-2.03 0-3.724.532-3.724 2.45 0 .7.308 1.932 2.128 1.932zm.392-.994c-.98 0-1.204-.532-1.204-1.148 0-1.232 1.33-1.33 2.324-1.33.266 0 .532.014.728.042v1.624c-.392.42-1.106.812-1.848.812zm6.734.826V5.208c.378-.336 1.274-.868 2.1-.868.98 0 1.344.546 1.344 1.54v4.69h1.274V5.684c0-1.624-.672-2.464-2.212-2.464-.994 0-1.89.448-2.59 1.008l-.07-.854h-1.12v7.196h1.274zm12.81.168c1.442 0 2.716-.7 2.954-2.366l-1.12-.238c-.182 1.064-.812 1.54-1.792 1.54-1.148 0-2.016-.644-2.016-2.786 0-2.044 1.022-2.604 2.058-2.604 1.008 0 1.498.546 1.61 1.61l1.218-.168c-.098-1.666-1.162-2.506-2.772-2.506-2.156 0-3.444 1.316-3.444 3.822 0 2.156.924 3.696 3.304 3.696zm6.454 0c1.008 0 1.75-.322 2.31-.882.07.462.392.854 1.106.854.35 0 .714-.084.994-.224l-.056-.798c-.182.056-.308.084-.434.084-.364 0-.434-.168-.434-.56V5.698c0-1.792-.798-2.478-2.576-2.478-1.666 0-2.534.63-2.758 1.974l1.12.21c.154-.798.532-1.19 1.526-1.19 1.176 0 1.428.56 1.428 1.47v.7c-.196-.014-.406-.028-.63-.028-2.03 0-3.724.532-3.724 2.45 0 .7.308 1.932 2.128 1.932zm.392-.994c-.98 0-1.204-.532-1.204-1.148 0-1.232 1.33-1.33 2.324-1.33.266 0 .532.014.728.042v1.624c-.392.42-1.106.812-1.848.812zm7.63.966c.994 0 1.848-.392 2.548-.966l.084.826h1.106V3.374h-1.274v5.348c-.378.35-1.26.882-2.086.882-1.064 0-1.302-.546-1.302-1.54v-4.69h-1.274V8.26c0 1.61.672 2.45 2.198 2.45zm8.246.028c1.75 0 2.814-.812 2.814-2.184 0-1.61-1.246-1.876-2.562-2.156-1.008-.21-1.596-.42-1.596-1.162 0-.546.336-1.008 1.386-1.008 1.05 0 1.33.504 1.498 1.33l1.148-.252c-.224-1.274-.924-2.086-2.632-2.086-1.456 0-2.66.714-2.66 2.17 0 1.68 1.414 1.932 2.59 2.17.98.196 1.568.336 1.568 1.134 0 .77-.63 1.036-1.498 1.036-1.274 0-1.596-.616-1.792-1.386l-1.134.308c.224 1.442 1.218 2.086 2.87 2.086zm7.406 0c1.442 0 2.562-.686 2.856-2.086l-1.12-.252c-.196.812-.672 1.274-1.694 1.274-1.148 0-1.96-.574-2.016-2.408h4.844c.042-.336.056-.658.056-.938 0-1.778-.84-3.108-2.856-3.108-1.848 0-3.388 1.134-3.388 3.766 0 1.974.77 3.752 3.318 3.752zm1.61-4.48h-3.57c.07-1.428.994-2.002 1.946-2.002 1.134 0 1.624.714 1.624 2.002zm7.518 4.312V5.194c.378-.35 1.26-.854 1.988-.854.924 0 1.12.546 1.12 1.512v4.718h1.274v-4.9c0-.182-.014-.364-.028-.532.42-.35 1.246-.798 1.932-.798.924 0 1.12.546 1.12 1.512v4.718h1.274v-4.9c0-1.61-.532-2.45-2.044-2.45-.98 0-1.792.434-2.492.994-.28-.672-.854-.994-1.806-.994-.98 0-1.736.42-2.45.966l-.07-.812h-1.092v7.196h1.274zm12.628.168c1.008 0 1.75-.322 2.31-.882.07.462.392.854 1.106.854.35 0 .714-.084.994-.224l-.056-.798c-.182.056-.308.084-.434.084-.364 0-.434-.168-.434-.56V5.698c0-1.792-.798-2.478-2.576-2.478-1.666 0-2.534.63-2.758 1.974l1.12.21c.154-.798.532-1.19 1.526-1.19 1.176 0 1.428.56 1.428 1.47v.7c-.196-.014-.406-.028-.63-.028-2.03 0-3.724.532-3.724 2.45 0 .7.308 1.932 2.128 1.932zm.392-.994c-.98 0-1.204-.532-1.204-1.148 0-1.232 1.33-1.33 2.324-1.33.266 0 .532.014.728.042v1.624c-.392.42-1.106.812-1.848.812zm7.742.994c1.75 0 2.814-.812 2.814-2.184 0-1.61-1.246-1.876-2.562-2.156-1.008-.21-1.596-.42-1.596-1.162 0-.546.336-1.008 1.386-1.008 1.05 0 1.33.504 1.498 1.33l1.148-.252c-.224-1.274-.924-2.086-2.632-2.086-1.456 0-2.66.714-2.66 2.17 0 1.68 1.414 1.932 2.59 2.17.98.196 1.568.336 1.568 1.134 0 .77-.63 1.036-1.498 1.036-1.274 0-1.596-.616-1.792-1.386l-1.134.308c.224 1.442 1.218 2.086 2.87 2.086zm6.818 0c1.75 0 2.814-.812 2.814-2.184 0-1.61-1.246-1.876-2.562-2.156-1.008-.21-1.596-.42-1.596-1.162 0-.546.336-1.008 1.386-1.008 1.05 0 1.33.504 1.498 1.33l1.148-.252c-.224-1.274-.924-2.086-2.632-2.086-1.456 0-2.66.714-2.66 2.17 0 1.68 1.414 1.932 2.59 2.17.98.196 1.568.336 1.568 1.134 0 .77-.63 1.036-1.498 1.036-1.274 0-1.596-.616-1.792-1.386l-1.134.308c.224 1.442 1.218 2.086 2.87 2.086zm5.194-8.75c.574 0 .91-.336.91-.924 0-.588-.336-.91-.91-.91-.574 0-.896.322-.896.91 0 .588.322.924.896.924zm.616 8.582V3.374h-1.274v7.196h1.274zm5.362 0l2.702-7.196h-1.302l-2.086 5.922h-.014l-2.114-5.922h-1.386l2.744 7.196h1.456zm6.79.168c1.442 0 2.562-.686 2.856-2.086l-1.12-.252c-.196.812-.672 1.274-1.694 1.274-1.148 0-1.96-.574-2.016-2.408h4.844c.042-.336.056-.658.056-.938 0-1.778-.84-3.108-2.856-3.108-1.848 0-3.388 1.134-3.388 3.766 0 1.974.77 3.752 3.318 3.752zm1.61-4.48h-3.57c.07-1.428.994-2.002 1.946-2.002 1.134 0 1.624.714 1.624 2.002zM3.304 28.738c1.036 0 1.764-.392 2.38-.952l.014.014.098.77H6.86V18H5.614v3.892c-.504-.406-1.19-.672-2.016-.672-1.596 0-3.038 1.022-3.038 3.864 0 2.618 1.106 3.654 2.744 3.654zm.378-1.064c-1.26 0-1.806-.84-1.806-2.59 0-1.666.504-2.772 1.89-2.772.826 0 1.498.378 1.834.63v3.85c-.448.448-1.176.882-1.918.882zm7.168 1.064c1.008 0 1.75-.322 2.31-.882.07.462.392.854 1.106.854.35 0 .714-.084.994-.224l-.056-.798c-.182.056-.308.084-.434.084-.364 0-.434-.168-.434-.56v-3.514c0-1.792-.798-2.478-2.576-2.478-1.666 0-2.534.63-2.758 1.974l1.12.21c.154-.798.532-1.19 1.526-1.19 1.176 0 1.428.56 1.428 1.47v.7c-.196-.014-.406-.028-.63-.028-2.03 0-3.724.532-3.724 2.45 0 .7.308 1.932 2.128 1.932zm.392-.994c-.98 0-1.204-.532-1.204-1.148 0-1.232 1.33-1.33 2.324-1.33.266 0 .532.014.728.042v1.624c-.392.42-1.106.812-1.848.812zm6.734.826v-5.376c.378-.35 1.26-.854 1.988-.854.924 0 1.12.546 1.12 1.512v4.718h1.274v-4.9c0-.182-.014-.364-.028-.532.42-.35 1.246-.798 1.932-.798.924 0 1.12.546 1.12 1.512v4.718h1.274v-4.9c0-1.61-.532-2.45-2.044-2.45-.98 0-1.792.434-2.492.994-.28-.672-.854-.994-1.806-.994-.98 0-1.736.42-2.45.966l-.07-.812h-1.092v7.196h1.274zm12.628.168c1.008 0 1.75-.322 2.31-.882.07.462.392.854 1.106.854.35 0 .714-.084.994-.224l-.056-.798c-.182.056-.308.084-.434.084-.364 0-.434-.168-.434-.56v-3.514c0-1.792-.798-2.478-2.576-2.478-1.666 0-2.534.63-2.758 1.974l1.12.21c.154-.798.532-1.19 1.526-1.19 1.176 0 1.428.56 1.428 1.47v.7c-.196-.014-.406-.028-.63-.028-2.03 0-3.724.532-3.724 2.45 0 .7.308 1.932 2.128 1.932zm.392-.994c-.98 0-1.204-.532-1.204-1.148 0-1.232 1.33-1.33 2.324-1.33.266 0 .532.014.728.042v1.624c-.392.42-1.106.812-1.848.812zm8.008 3.99c1.806 0 3.696-.532 3.696-2.296 0-1.414-.868-1.778-2.352-1.876l-2.058-.14c-.77-.056-.924-.266-.924-.546 0-.294.252-.504.448-.686.364.126.854.168 1.33.168 1.652 0 2.954-.938 2.954-2.562 0-.588-.196-1.232-.56-1.624.364-.112.966-.182 1.4-.154v-.938c-.21-.07-.406-.112-.63-.112-.532 0-.91.392-1.134.91-.476-.476-1.204-.658-2.086-.658-1.862 0-3.052 1.064-3.052 2.646 0 .924.406 1.666 1.064 2.016-.504.392-.952.756-.952 1.372 0 .518.294.84.784 1.036v.014c-.588.28-1.162.84-1.162 1.652 0 .854.546 1.778 3.234 1.778zm.084-6.384c-1.274 0-1.82-.616-1.82-1.554 0-1.106.84-1.568 1.834-1.568 1.092 0 1.764.518 1.764 1.596 0 .966-.728 1.526-1.778 1.526zm.07 5.376c-1.666 0-2.156-.406-2.156-1.008 0-.476.252-.798.798-1.162l2.38.14c.98.07 1.204.378 1.204.896 0 .756-.742 1.134-2.226 1.134zm7.896-1.988c1.442 0 2.562-.686 2.856-2.086l-1.12-.252c-.196.812-.672 1.274-1.694 1.274-1.148 0-1.96-.574-2.016-2.408h4.844c.042-.336.056-.658.056-.938 0-1.778-.84-3.108-2.856-3.108-1.848 0-3.388 1.134-3.388 3.766 0 1.974.77 3.752 3.318 3.752zm1.61-4.48h-3.57c.07-1.428.994-2.002 1.946-2.002 1.134 0 1.624.714 1.624 2.002zm3.248 6.118l1.176-3.29h-1.414l-.784 3.164 1.022.126zm9.324-1.638c1.666 0 3.038-1.134 3.038-3.934 0-2.646-1.134-3.584-2.618-3.584-1.05 0-1.806.392-2.436.952V18h-1.26v10.57h1.106l.07-.63h.014c.518.406 1.232.798 2.086.798zm-.154-1.078c-.826 0-1.526-.504-1.848-.742v-3.724c.42-.406 1.218-.896 2.016-.896 1.19 0 1.708.784 1.708 2.492 0 1.75-.518 2.87-1.876 2.87zm7.182 1.05c.994 0 1.848-.392 2.548-.966l.084.826h1.106v-7.196h-1.274v5.348c-.378.35-1.26.882-2.086.882-1.064 0-1.302-.546-1.302-1.54v-4.69h-1.274v4.886c0 1.61.672 2.45 2.198 2.45zm8.218.028c.672 0 1.414-.238 1.764-.476l-.224-.924c-.308.168-.826.35-1.26.35-.868 0-1.036-.42-1.036-1.176v-4.116h1.988v-1.022h-1.988v-2.282l-1.274.196v2.086h-1.106v1.022h1.106v4.284c0 1.442.686 2.058 2.03 2.058zm8.386 0c.672 0 1.414-.238 1.764-.476l-.224-.924c-.308.168-.826.35-1.26.35-.868 0-1.036-.42-1.036-1.176v-4.116H86.1v-1.022h-1.988v-2.282l-1.274.196v2.086h-1.106v1.022h1.106v4.284c0 1.442.686 2.058 2.03 2.058zm4.326-.168v-5.362c.378-.336 1.274-.868 2.1-.868.98 0 1.344.546 1.344 1.54v4.69h1.274v-4.886c0-1.624-.672-2.464-2.198-2.464-1.008 0-1.834.42-2.534.966V18h-1.26v10.57h1.274zm9.744.168c1.442 0 2.562-.686 2.856-2.086l-1.12-.252c-.196.812-.672 1.274-1.694 1.274-1.148 0-1.96-.574-2.016-2.408h4.844c.042-.336.056-.658.056-.938 0-1.778-.84-3.108-2.856-3.108-1.848 0-3.388 1.134-3.388 3.766 0 1.974.77 3.752 3.318 3.752zm1.61-4.48h-3.57c.07-1.428.994-2.002 1.946-2.002 1.134 0 1.624.714 1.624 2.002zm3.276 7.434c1.134 0 1.792-.546 2.366-2.072l3.108-8.246h-1.302l-1.974 5.712h-.014l-1.904-5.712h-1.414l2.674 7.28-.336.882c-.322.854-.77 1.12-1.288 1.12-.378 0-.882-.126-1.148-.224l-.154.994c.28.126.854.266 1.386.266zm11.536-2.954c1.008 0 1.75-.322 2.31-.882.07.462.392.854 1.106.854.35 0 .714-.084.994-.224l-.056-.798c-.182.056-.308.084-.434.084-.364 0-.434-.168-.434-.56v-3.514c0-1.792-.798-2.478-2.576-2.478-1.666 0-2.534.63-2.758 1.974l1.12.21c.154-.798.532-1.19 1.526-1.19 1.176 0 1.428.56 1.428 1.47v.7c-.196-.014-.406-.028-.63-.028-2.03 0-3.724.532-3.724 2.45 0 .7.308 1.932 2.128 1.932zm.392-.994c-.98 0-1.204-.532-1.204-1.148 0-1.232 1.33-1.33 2.324-1.33.266 0 .532.014.728.042v1.624c-.392.42-1.106.812-1.848.812zm6.734.826v-5.236c.588-.546 1.652-.91 2.548-.784v-1.316c-.126-.014-.182-.014-.266-.014-1.008 0-1.764.336-2.394 1.19l-.098-1.036h-1.064v7.196h1.274zm6.692.168c1.442 0 2.562-.686 2.856-2.086l-1.12-.252c-.196.812-.672 1.274-1.694 1.274-1.148 0-1.96-.574-2.016-2.408h4.844c.042-.336.056-.658.056-.938 0-1.778-.84-3.108-2.856-3.108-1.848 0-3.388 1.134-3.388 3.766 0 1.974.77 3.752 3.318 3.752zm1.61-4.48h-3.57c.07-1.428.994-2.002 1.946-2.002 1.134 0 1.624.714 1.624 2.002zm7.518 4.312v-5.362c.378-.336 1.274-.868 2.1-.868.98 0 1.344.546 1.344 1.54v4.69h1.274v-4.886c0-1.624-.672-2.464-2.198-2.464-1.008 0-1.834.42-2.534.966V18h-1.26v10.57h1.274zm9.744.168c1.442 0 2.562-.686 2.856-2.086l-1.12-.252c-.196.812-.672 1.274-1.694 1.274-1.148 0-1.96-.574-2.016-2.408h4.844c.042-.336.056-.658.056-.938 0-1.778-.84-3.108-2.856-3.108-1.848 0-3.388 1.134-3.388 3.766 0 1.974.77 3.752 3.318 3.752zm1.61-4.48h-3.57c.07-1.428.994-2.002 1.946-2.002 1.134 0 1.624.714 1.624 2.002zm4.438 4.312V18h-1.274v10.57h1.274zm3.444 2.968v-3.5c.518.392 1.204.7 2.072.7 1.61 0 2.996-1.12 2.996-3.934 0-2.646-1.12-3.584-2.632-3.584-1.022 0-1.834.392-2.492.98l-.07-.826h-1.106v10.164h1.232zm1.89-3.878c-.826 0-1.54-.476-1.848-.714v-3.752c.42-.42 1.218-.91 2.016-.91 1.148 0 1.708.7 1.708 2.506 0 1.722-.504 2.87-1.876 2.87zm6.44.91v-6.174h2.002v-1.022h-2.002V20.17c0-1.008.462-1.274 1.12-1.274.336 0 .728.084 1.008.182l.056-.98c-.238-.112-.728-.238-1.316-.238-1.372 0-2.142.77-2.142 2.352v1.162h-1.064v1.022h1.064v6.174h1.274zm5.32.14c.994 0 1.848-.392 2.548-.966l.084.826h1.106v-7.196h-1.274v5.348c-.378.35-1.26.882-2.086.882-1.064 0-1.302-.546-1.302-1.54v-4.69h-1.274v4.886c0 1.61.672 2.45 2.198 2.45zm7.238-.14V18h-1.274v10.57h1.274zm2.66.168c.616 0 .952-.322.952-.938 0-.616-.336-.938-.952-.938-.616 0-.952.322-.952.938 0 .63.336.938.952.938zM56.826 29.62L56.826 30.614 78.42 30.614 78.42 29.62z" transform="translate(20.140000, 45.430000)"/>
                            </g>
                        </g>
                        <g mask="url(#40bb6a147e)">
                            <g transform="translate(12.000000, 82.000000)">
                                <mask id="vhk9io4wog" fill="#fff">
                                    <use xlink:href="#1if8ywtrnf"/>
                                </mask>
                                <use fill="#F1F3F4" xlink:href="#1if8ywtrnf"/>
                                <path fill="#FF9F00" d="M0 10H244V12H0z" mask="url(#vhk9io4wog)"/>
                            </g>
                        </g>
                        <g mask="url(#40bb6a147e)">
                            <g transform="translate(12.000000, 105.000000)">
                                <rect width="73" height="20" fill="#CCC" rx="4"/>
                                <rect width="43" height="6" x="15" y="7" fill="#878787" rx="3"/>
                            </g>
                        </g>
                        <rect width="244" height="70" x="12" y="135" fill="#FFF3E0" stroke="#E68F00" mask="url(#40bb6a147e)" rx="4"/>
                        <path fill="#434343" fill-rule="nonzero" d="M28.536 181v-9.016h3.038v-1.12h-7.392v1.12h3.066V181h1.288zm5.628 0v-5.362c.378-.336 1.274-.868 2.1-.868.98 0 1.344.546 1.344 1.54V181h1.274v-4.886c0-1.624-.672-2.464-2.198-2.464-1.008 0-1.834.42-2.534.966v-4.186h-1.26V181h1.274zm8.652.168c1.008 0 1.75-.322 2.31-.882.07.462.392.854 1.106.854.35 0 .714-.084.994-.224l-.056-.798c-.182.056-.308.084-.434.084-.364 0-.434-.168-.434-.56v-3.514c0-1.792-.798-2.478-2.576-2.478-1.666 0-2.534.63-2.758 1.974l1.12.21c.154-.798.532-1.19 1.526-1.19 1.176 0 1.428.56 1.428 1.47v.7c-.196-.014-.406-.028-.63-.028-2.03 0-3.724.532-3.724 2.45 0 .7.308 1.932 2.128 1.932zm.392-.994c-.98 0-1.204-.532-1.204-1.148 0-1.232 1.33-1.33 2.324-1.33.266 0 .532.014.728.042v1.624c-.392.42-1.106.812-1.848.812zm7.714.994c.672 0 1.414-.238 1.764-.476l-.224-.924c-.308.168-.826.35-1.26.35-.868 0-1.036-.42-1.036-1.176v-4.116h1.988v-1.022h-1.988v-2.282l-1.274.196v2.086h-1.106v1.022h1.106v4.284c0 1.442.686 2.058 2.03 2.058zm3.99-6.678v-3.626h-1.26v3.626h1.26zm4.228 6.678c1.75 0 2.814-.812 2.814-2.184 0-1.61-1.246-1.876-2.562-2.156-1.008-.21-1.596-.42-1.596-1.162 0-.546.336-1.008 1.386-1.008 1.05 0 1.33.504 1.498 1.33l1.148-.252c-.224-1.274-.924-2.086-2.632-2.086-1.456 0-2.66.714-2.66 2.17 0 1.68 1.414 1.932 2.59 2.17.98.196 1.568.336 1.568 1.134 0 .77-.63 1.036-1.498 1.036-1.274 0-1.596-.616-1.792-1.386l-1.134.308c.224 1.442 1.218 2.086 2.87 2.086zm9.87 0c.672 0 1.414-.238 1.764-.476l-.224-.924c-.308.168-.826.35-1.26.35-.868 0-1.036-.42-1.036-1.176v-4.116h1.988v-1.022h-1.988v-2.282l-1.274.196v2.086h-1.106v1.022h1.106v4.284c0 1.442.686 2.058 2.03 2.058zm4.326-.168v-5.236c.588-.546 1.652-.91 2.548-.784v-1.316c-.126-.014-.182-.014-.266-.014-1.008 0-1.764.336-2.394 1.19l-.098-1.036h-1.064V181h1.274zm5.992.14c.994 0 1.848-.392 2.548-.966l.084.826h1.106v-7.196h-1.274v5.348c-.378.35-1.26.882-2.086.882-1.064 0-1.302-.546-1.302-1.54v-4.69H77.13v4.886c0 1.61.672 2.45 2.198 2.45zm8.834.028c1.442 0 2.562-.686 2.856-2.086l-1.12-.252c-.196.812-.672 1.274-1.694 1.274-1.148 0-1.96-.574-2.016-2.408h4.844c.042-.336.056-.658.056-.938 0-1.778-.84-3.108-2.856-3.108-1.848 0-3.388 1.134-3.388 3.766 0 1.974.77 3.752 3.318 3.752zm1.61-4.48h-3.57c.07-1.428.994-2.002 1.946-2.002 1.134 0 1.624.714 1.624 2.002zm4.382 1.68l.224-7.504H92.95l.238 7.504h.966zm-.476 2.8c.602 0 .938-.308.938-.896 0-.602-.336-.91-.938-.91-.616 0-.938.308-.938.91 0 .602.322.896.938.896zm7.476-.168v-8.498l4.984 8.498h1.554v-10.136h-1.19v8.414l-4.858-8.414H99.95V181h1.204zm11.886.168c2.422 0 3.402-1.54 3.402-3.906 0-2.142-.938-3.612-3.22-3.612-2.296 0-3.5 1.456-3.5 3.78 0 2.128.826 3.738 3.318 3.738zm.07-1.022c-1.4 0-2.072-.868-2.072-2.772 0-1.918.854-2.674 2.128-2.674 1.246 0 1.946.658 1.946 2.646 0 2.044-.756 2.8-2.002 2.8zm7.868.854l1.47-5.67h.014l1.484 5.67h1.484l2.24-7.196h-1.232l-1.708 5.824h-.014l-1.568-5.824h-1.316l-1.582 5.852-1.75-5.852h-1.288l2.254 7.196h1.512zm14.266.168c1.666 0 3.038-1.134 3.038-3.934 0-2.646-1.134-3.584-2.618-3.584-1.05 0-1.806.392-2.436.952v-4.172h-1.26V181h1.106l.07-.63h.014c.518.406 1.232.798 2.086.798zm-.154-1.078c-.826 0-1.526-.504-1.848-.742v-3.724c.42-.406 1.218-.896 2.016-.896 1.19 0 1.708.784 1.708 2.492 0 1.75-.518 2.87-1.876 2.87zm7.882 1.078c1.442 0 2.562-.686 2.856-2.086l-1.12-.252c-.196.812-.672 1.274-1.694 1.274-1.148 0-1.96-.574-2.016-2.408h4.844c.042-.336.056-.658.056-.938 0-1.778-.84-3.108-2.856-3.108-1.848 0-3.388 1.134-3.388 3.766 0 1.974.77 3.752 3.318 3.752zm1.61-4.48h-3.57c.07-1.428.994-2.002 1.946-2.002 1.134 0 1.624.714 1.624 2.002zM152.1 181v-5.376c.378-.35 1.26-.854 1.988-.854.924 0 1.12.546 1.12 1.512V181h1.274v-4.9c0-.182-.014-.364-.028-.532.42-.35 1.246-.798 1.932-.798.924 0 1.12.546 1.12 1.512V181h1.274v-4.9c0-1.61-.532-2.45-2.044-2.45-.98 0-1.792.434-2.492.994-.28-.672-.854-.994-1.806-.994-.98 0-1.736.42-2.45.966l-.07-.812h-1.092V181h1.274zm13.72.168c2.422 0 3.402-1.54 3.402-3.906 0-2.142-.938-3.612-3.22-3.612-2.296 0-3.5 1.456-3.5 3.78 0 2.128.826 3.738 3.318 3.738zm.07-1.022c-1.4 0-2.072-.868-2.072-2.772 0-1.918.854-2.674 2.128-2.674 1.246 0 1.946.658 1.946 2.646 0 2.044-.756 2.8-2.002 2.8zm6.426.854v-5.236c.588-.546 1.652-.91 2.548-.784v-1.316c-.126-.014-.182-.014-.266-.014-1.008 0-1.764.336-2.394 1.19l-.098-1.036h-1.064V181h1.274zm6.692.168c1.442 0 2.562-.686 2.856-2.086l-1.12-.252c-.196.812-.672 1.274-1.694 1.274-1.148 0-1.96-.574-2.016-2.408h4.844c.042-.336.056-.658.056-.938 0-1.778-.84-3.108-2.856-3.108-1.848 0-3.388 1.134-3.388 3.766 0 1.974.77 3.752 3.318 3.752zm1.61-4.48h-3.57c.07-1.428.994-2.002 1.946-2.002 1.134 0 1.624.714 1.624 2.002zm8.526 4.48c1.75 0 2.814-.812 2.814-2.184 0-1.61-1.246-1.876-2.562-2.156-1.008-.21-1.596-.42-1.596-1.162 0-.546.336-1.008 1.386-1.008 1.05 0 1.33.504 1.498 1.33l1.148-.252c-.224-1.274-.924-2.086-2.632-2.086-1.456 0-2.66.714-2.66 2.17 0 1.68 1.414 1.932 2.59 2.17.98.196 1.568.336 1.568 1.134 0 .77-.63 1.036-1.498 1.036-1.274 0-1.596-.616-1.792-1.386l-1.134.308c.224 1.442 1.218 2.086 2.87 2.086zm5.768 2.8v-3.5c.518.392 1.204.7 2.072.7 1.61 0 2.996-1.12 2.996-3.934 0-2.646-1.12-3.584-2.632-3.584-1.022 0-1.834.392-2.492.98l-.07-.826h-1.106v10.164h1.232zm1.89-3.878c-.826 0-1.54-.476-1.848-.714v-3.752c.42-.42 1.218-.91 2.016-.91 1.148 0 1.708.7 1.708 2.506 0 1.722-.504 2.87-1.876 2.87zm7.882 1.078c1.442 0 2.562-.686 2.856-2.086l-1.12-.252c-.196.812-.672 1.274-1.694 1.274-1.148 0-1.96-.574-2.016-2.408h4.844c.042-.336.056-.658.056-.938 0-1.778-.84-3.108-2.856-3.108-1.848 0-3.388 1.134-3.388 3.766 0 1.974.77 3.752 3.318 3.752zm1.61-4.48h-3.57c.07-1.428.994-2.002 1.946-2.002 1.134 0 1.624.714 1.624 2.002zm6.02 4.48c1.442 0 2.716-.7 2.954-2.366l-1.12-.238c-.182 1.064-.812 1.54-1.792 1.54-1.148 0-2.016-.644-2.016-2.786 0-2.044 1.022-2.604 2.058-2.604 1.008 0 1.498.546 1.61 1.61l1.218-.168c-.098-1.666-1.162-2.506-2.772-2.506-2.156 0-3.444 1.316-3.444 3.822 0 2.156.924 3.696 3.304 3.696zm5.334-8.75c.574 0 .91-.336.91-.924 0-.588-.336-.91-.91-.91-.574 0-.896.322-.896.91 0 .588.322.924.896.924zm.616 8.582v-7.196h-1.274V181h1.274zm3.64 0v-6.174h3.094V181h1.274v-7.196h-4.368v-1.218c0-.966.42-1.246 1.05-1.246.322 0 .616.07.882.154l.042-.994c-.252-.112-.63-.21-1.148-.21-1.344 0-2.1.77-2.1 2.352v1.162h-1.064v1.022h1.064V181h1.274zm3.738-8.624c.574 0 .91-.322.91-.91 0-.588-.336-.91-.91-.91-.56 0-.896.322-.896.91 0 .588.336.91.896.91zm5.698 8.792c1.442 0 2.716-.7 2.954-2.366l-1.12-.238c-.182 1.064-.812 1.54-1.792 1.54-1.148 0-2.016-.644-2.016-2.786 0-2.044 1.022-2.604 2.058-2.604 1.008 0 1.498.546 1.61 1.61l1.218-.168c-.098-1.666-1.162-2.506-2.772-2.506-2.156 0-3.444 1.316-3.444 3.822 0 2.156.924 3.696 3.304 3.696zm5.124 0c.616 0 .952-.322.952-.938 0-.616-.336-.938-.952-.938-.616 0-.952.322-.952.938 0 .63.336.938.952.938zM26.632 199v-4.592h4.928V199h1.288v-10.136H31.56v4.382h-4.928v-4.382h-1.288V199h1.288zm11.564.168c2.422 0 3.402-1.54 3.402-3.906 0-2.142-.938-3.612-3.22-3.612-2.296 0-3.5 1.456-3.5 3.78 0 2.128.826 3.738 3.318 3.738zm.07-1.022c-1.4 0-2.072-.868-2.072-2.772 0-1.918.854-2.674 2.128-2.674 1.246 0 1.946.658 1.946 2.646 0 2.044-.756 2.8-2.002 2.8zm7.868.854l1.47-5.67h.014l1.484 5.67h1.484l2.24-7.196h-1.232l-1.708 5.824h-.014l-1.568-5.824h-1.316l-1.582 5.852-1.75-5.852h-1.288L44.622 199h1.512zm13.3.168c1.036 0 1.764-.392 2.38-.952l.014.014.098.77h1.064v-10.57h-1.246v3.892c-.504-.406-1.19-.672-2.016-.672-1.596 0-3.038 1.022-3.038 3.864 0 2.618 1.106 3.654 2.744 3.654zm.378-1.064c-1.26 0-1.806-.84-1.806-2.59 0-1.666.504-2.772 1.89-2.772.826 0 1.498.378 1.834.63v3.85c-.448.448-1.176.882-1.918.882zm8.26 1.064c2.422 0 3.402-1.54 3.402-3.906 0-2.142-.938-3.612-3.22-3.612-2.296 0-3.5 1.456-3.5 3.78 0 2.128.826 3.738 3.318 3.738zm.07-1.022c-1.4 0-2.072-.868-2.072-2.772 0-1.918.854-2.674 2.128-2.674 1.246 0 1.946.658 1.946 2.646 0 2.044-.756 2.8-2.002 2.8zm11.382.854l2.702-7.196h-1.302l-2.086 5.922h-.014l-2.114-5.922h-1.386L78.068 199h1.456zm6.79.168c2.422 0 3.402-1.54 3.402-3.906 0-2.142-.938-3.612-3.22-3.612-2.296 0-3.5 1.456-3.5 3.78 0 2.128.826 3.738 3.318 3.738zm.07-1.022c-1.4 0-2.072-.868-2.072-2.772 0-1.918.854-2.674 2.128-2.674 1.246 0 1.946.658 1.946 2.646 0 2.044-.756 2.8-2.002 2.8zm6.426.854v-10.57h-1.274V199h1.274zm5.068.168c1.442 0 2.716-.7 2.954-2.366l-1.12-.238c-.182 1.064-.812 1.54-1.792 1.54-1.148 0-2.016-.644-2.016-2.786 0-2.044 1.022-2.604 2.058-2.604 1.008 0 1.498.546 1.61 1.61l1.218-.168c-.098-1.666-1.162-2.506-2.772-2.506-2.156 0-3.444 1.316-3.444 3.822 0 2.156.924 3.696 3.304 3.696zm6.454 0c1.008 0 1.75-.322 2.31-.882.07.462.392.854 1.106.854.35 0 .714-.084.994-.224l-.056-.798c-.182.056-.308.084-.434.084-.364 0-.434-.168-.434-.56v-3.514c0-1.792-.798-2.478-2.576-2.478-1.666 0-2.534.63-2.758 1.974l1.12.21c.154-.798.532-1.19 1.526-1.19 1.176 0 1.428.56 1.428 1.47v.7c-.196-.014-.406-.028-.63-.028-2.03 0-3.724.532-3.724 2.45 0 .7.308 1.932 2.128 1.932zm.392-.994c-.98 0-1.204-.532-1.204-1.148 0-1.232 1.33-1.33 2.324-1.33.266 0 .532.014.728.042v1.624c-.392.42-1.106.812-1.848.812zm6.734.826v-5.362c.378-.336 1.274-.868 2.1-.868.98 0 1.344.546 1.344 1.54V199h1.274v-4.886c0-1.624-.672-2.464-2.212-2.464-.994 0-1.89.448-2.59 1.008l-.07-.854h-1.12V199h1.274zm9.744.168c2.422 0 3.402-1.54 3.402-3.906 0-2.142-.938-3.612-3.22-3.612-2.296 0-3.5 1.456-3.5 3.78 0 2.128.826 3.738 3.318 3.738zm.07-1.022c-1.4 0-2.072-.868-2.072-2.772 0-1.918.854-2.674 2.128-2.674 1.246 0 1.946.658 1.946 2.646 0 2.044-.756 2.8-2.002 2.8zm8.022 1.022c1.442 0 2.562-.686 2.856-2.086l-1.12-.252c-.196.812-.672 1.274-1.694 1.274-1.148 0-1.96-.574-2.016-2.408h4.844c.042-.336.056-.658.056-.938 0-1.778-.84-3.108-2.856-3.108-1.848 0-3.388 1.134-3.388 3.766 0 1.974.77 3.752 3.318 3.752zm1.61-4.48h-3.57c.07-1.428.994-2.002 1.946-2.002 1.134 0 1.624.714 1.624 2.002zm5.446 4.48c1.75 0 2.814-.812 2.814-2.184 0-1.61-1.246-1.876-2.562-2.156-1.008-.21-1.596-.42-1.596-1.162 0-.546.336-1.008 1.386-1.008 1.05 0 1.33.504 1.498 1.33l1.148-.252c-.224-1.274-.924-2.086-2.632-2.086-1.456 0-2.66.714-2.66 2.17 0 1.68 1.414 1.932 2.59 2.17.98.196 1.568.336 1.568 1.134 0 .77-.63 1.036-1.498 1.036-1.274 0-1.596-.616-1.792-1.386l-1.134.308c.224 1.442 1.218 2.086 2.87 2.086zm10.892 0c1.666 0 3.038-1.134 3.038-3.934 0-2.646-1.134-3.584-2.618-3.584-1.05 0-1.806.392-2.436.952v-4.172h-1.26V199h1.106l.07-.63h.014c.518.406 1.232.798 2.086.798zm-.154-1.078c-.826 0-1.526-.504-1.848-.742v-3.724c.42-.406 1.218-.896 2.016-.896 1.19 0 1.708.784 1.708 2.492 0 1.75-.518 2.87-1.876 2.87zm7.882 1.078c1.442 0 2.562-.686 2.856-2.086l-1.12-.252c-.196.812-.672 1.274-1.694 1.274-1.148 0-1.96-.574-2.016-2.408h4.844c.042-.336.056-.658.056-.938 0-1.778-.84-3.108-2.856-3.108-1.848 0-3.388 1.134-3.388 3.766 0 1.974.77 3.752 3.318 3.752zm1.61-4.48h-3.57c.07-1.428.994-2.002 1.946-2.002 1.134 0 1.624.714 1.624 2.002zm4.438 4.312v-5.362c.378-.336 1.274-.868 2.1-.868.98 0 1.344.546 1.344 1.54V199h1.274v-4.886c0-1.624-.672-2.464-2.212-2.464-.994 0-1.89.448-2.59 1.008l-.07-.854h-1.12V199h1.274zm9.744.168c1.442 0 2.562-.686 2.856-2.086l-1.12-.252c-.196.812-.672 1.274-1.694 1.274-1.148 0-1.96-.574-2.016-2.408h4.844c.042-.336.056-.658.056-.938 0-1.778-.84-3.108-2.856-3.108-1.848 0-3.388 1.134-3.388 3.766 0 1.974.77 3.752 3.318 3.752zm1.61-4.48h-3.57c.07-1.428.994-2.002 1.946-2.002 1.134 0 1.624.714 1.624 2.002zm4.592 4.312v-6.174h3.094V199h1.274v-7.196h-4.368v-1.218c0-.966.42-1.246 1.05-1.246.322 0 .616.07.882.154l.042-.994c-.252-.112-.63-.21-1.148-.21-1.344 0-2.1.77-2.1 2.352v1.162h-1.064v1.022h1.064V199h1.274zm3.738-8.624c.574 0 .91-.322.91-.91 0-.588-.336-.91-.91-.91-.56 0-.896.322-.896.91 0 .588.336.91.896.91zm5.096 8.792c.672 0 1.414-.238 1.764-.476l-.224-.924c-.308.168-.826.35-1.26.35-.868 0-1.036-.42-1.036-1.176v-4.116h1.988v-1.022h-1.988v-2.282l-1.274.196v2.086h-1.106v1.022h1.106v4.284c0 1.442.686 2.058 2.03 2.058zm8.386 0c.672 0 1.414-.238 1.764-.476l-.224-.924c-.308.168-.826.35-1.26.35-.868 0-1.036-.42-1.036-1.176v-4.116h1.988v-1.022h-1.988v-2.282l-1.274.196v2.086h-1.106v1.022h1.106v4.284c0 1.442.686 2.058 2.03 2.058zm4.326-.168v-5.362c.378-.336 1.274-.868 2.1-.868.98 0 1.344.546 1.344 1.54V199h1.274v-4.886c0-1.624-.672-2.464-2.198-2.464-1.008 0-1.834.42-2.534.966v-4.186h-1.26V199h1.274zm9.744.168c1.442 0 2.562-.686 2.856-2.086l-1.12-.252c-.196.812-.672 1.274-1.694 1.274-1.148 0-1.96-.574-2.016-2.408h4.844c.042-.336.056-.658.056-.938 0-1.778-.84-3.108-2.856-3.108-1.848 0-3.388 1.134-3.388 3.766 0 1.974.77 3.752 3.318 3.752zm1.61-4.48h-3.57c.07-1.428.994-2.002 1.946-2.002 1.134 0 1.624.714 1.624 2.002z" mask="url(#40bb6a147e)"/>
                        <text font-family="AdelleSans-Semibold, Adelle Sans" font-size="12" font-weight="400" mask="url(#40bb6a147e)">
                            <tspan x="42" y="159" fill="#9D6304">Feedback</tspan>
                        </text>
                        <g mask="url(#40bb6a147e)">
                            <g fill="#CF850C" fill-rule="nonzero">
                                <path d="M1.5 3.75h7.95l-.975.975c-.3.3-.3.75 0 1.05.15.15.3.225.525.225.225 0 .375-.075.525-.225l2.25-2.25c.3-.3.3-.75 0-1.05L9.525.225c-.3-.3-.75-.3-1.05 0-.3.3-.3.75 0 1.05l.975.975H.75C.3 2.25 0 2.55 0 3v2.25h1.5v-1.5zM10.5 8.25H2.55l.975-.975c.3-.3.3-.75 0-1.05-.3-.3-.75-.3-1.05 0l-2.25 2.25c-.3.3-.3.75 0 1.05l2.25 2.25c.15.15.3.225.525.225.225 0 .375-.075.525-.225.3-.3.3-.75 0-1.05L2.55 9.75h8.7c.45 0 .75-.3.75-.75V6.75h-1.5v1.5z" transform="translate(24.000000, 149.000000)"/>
                            </g>
                        </g>
                        <path fill="url(#d1lkxnb5xh)" d="M0 180H268V201H0z" mask="url(#40bb6a147e)"/>
                    </g>
                </g>
            </g>
        </g>
    </g>
</svg>
