<?xml version="1.0" encoding="UTF-8"?>
<svg width="169px" height="58px" viewBox="0 0 169 58" version="1.1" xmlns="http://www.w3.org/2000/svg" xmlns:xlink="http://www.w3.org/1999/xlink">
    <!-- Generator: Sketch 43.2 (39069) - http://www.bohemiancoding.com/sketch -->
    <title>Group 5</title>
    <desc>Created with Sketch.</desc>
    <defs></defs>
    <g id="01-Tools-Landing-Pages" stroke="none" stroke-width="1" fill="none" fill-rule="evenodd">
        <g id="01_05-QuillTimeout" transform="translate(-577.000000, -74.000000)" fill="#00C2A2">
            <g id="Group-5" transform="translate(577.000000, 74.000000)">
                <path d="M21.7040929,9.20646598 C32.9024812,9.20646598 43.4370476,17.6728624 43.4370476,32.0006101 C43.4370476,38.4836199 41.2724106,43.8121211 37.895577,47.6308803 L42.9463965,53.433026 L38.068748,57.695827 L32.8158957,51.8344757 C29.4967858,53.8178622 25.6004393,54.8539597 21.675231,54.8539597 C10.4768427,54.8539597 -1.0658141e-14,46.3875633 -1.0658141e-14,32.0006101 C0.0288618256,17.6728624 10.5057045,9.20646598 21.7040929,9.20646598 L21.7040929,9.20646598 Z M21.7040929,47.808497 C23.8687298,47.808497 26.0910904,47.3644552 28.0825563,46.3875633 L21.0402709,38.3652087 L25.9756431,34.0432022 L33.0756522,42.1247624 C34.8939472,39.5789229 36.0195584,36.263411 36.0195584,32.0006101 C36.0195584,21.432416 28.9195493,16.1927231 21.675231,16.1927231 C14.5174983,16.1927231 7.38862736,21.432416 7.38862736,32.0006101 C7.41748919,42.5688041 14.5463601,47.808497 21.7040929,47.808497 L21.7040929,47.808497 Z" id="Shape"></path>
                <path d="M59.6573936,54.7947541 C52.6728318,54.7947541 48.5744525,49.4958557 48.5744525,42.8056264 L48.5744525,23.8302415 L55.5590143,23.8302415 L55.5590143,41.5031039 C55.5590143,45.2034519 57.2330002,48.3709499 61.4756886,48.3709499 C65.5163442,48.3709499 67.6232574,45.5882881 67.6232574,41.6511178 L67.6232574,23.8302415 L74.6078192,23.8302415 L74.6078192,48.4301555 C74.6078192,50.8871866 74.7809902,52.8113676 74.8964375,53.9362734 L68.2004939,53.9362734 C68.0850466,53.2554093 67.9695993,51.8344757 67.9695993,50.5911587 C66.4976462,53.3146149 63.0919508,54.7947541 59.6573936,54.7947541 L59.6573936,54.7947541 Z" id="Shape"></path>
                <path d="M85.5464511,8.58480751 C88.0862918,8.58480751 90.1354814,10.6866052 90.1354814,13.2916502 C90.1354814,15.8966953 88.0862918,17.9392874 85.5464511,17.9392874 C83.0643341,17.9392874 81.0151445,15.8966953 81.0151445,13.2916502 C81.0151445,10.6866052 83.0643341,8.58480751 85.5464511,8.58480751 L85.5464511,8.58480751 Z M82.1118939,53.9362734 L82.1118939,23.8302415 L89.038732,23.8302415 L89.038732,53.9066706 L82.1118939,53.9066706 L82.1118939,53.9362734 Z" id="Shape"></path>
                <polygon id="Shape" points="96.5716685 53.9362734 96.5716685 9.20646598 103.55623 9.20646598 103.55623 53.9362734"></polygon>
                <polygon id="Shape" points="111.089167 53.9362734 111.089167 9.20646598 118.073729 9.20646598 118.073729 53.9362734"></polygon>
                <path d="M144.222543,49.4070473 C143.645306,49.4070473 143.125793,49.0814167 142.894899,48.489361 L141.538393,45.2034519 L138.161559,46.0027271 C137.38229,46.1803438 136.603021,45.6770965 136.42985,44.8778213 C136.256679,44.0785461 136.74733,43.279271 137.526599,43.1016542 L142.086768,42.035954 C142.779451,41.8879401 143.472135,42.2431735 143.731892,42.8944348 L145.550187,47.3052496 C145.867667,48.0453193 145.521325,48.9334028 144.770917,49.2294306 C144.597746,49.3478418 144.424575,49.4070473 144.222543,49.4070473 L144.222543,49.4070473 Z" id="Shape"></path>
                <path d="M138.046112,53.7290539 C137.815217,53.7290539 137.584323,53.6698483 137.38229,53.5514372 C136.920501,53.3146149 136.603021,52.8113676 136.603021,52.2785174 L136.42985,44.5817935 C136.400988,43.7529155 137.035948,43.0720515 137.844079,43.0720515 L137.872941,43.0720515 C138.65221,43.0720515 139.28717,43.7233127 139.316032,44.5225879 L139.43148,49.4958557 L143.443273,46.6835912 C144.107095,46.2099466 145.001812,46.3875633 145.434739,47.0684274 C145.896529,47.7492914 145.723358,48.6669777 145.059536,49.1110195 L138.854243,53.4626288 C138.594487,53.6402455 138.33473,53.7290539 138.046112,53.7290539 L138.046112,53.7290539 Z" id="Shape"></path>
                <path d="M159.490448,2.96027845 C160.442889,2.96027845 161.424191,3.19710073 162.347769,3.67074528 C165.435984,5.29889843 166.648181,9.14726041 165.060781,12.3147584 L154.641662,33.1551187 L145.405877,37.5659335 L143.500997,27.2937673 L153.920116,6.45340702 C155.016865,4.23319818 157.210364,2.96027845 159.490448,2.96027845 L159.490448,2.96027845 Z M159.490448,0 C156.055891,0 152.909952,1.95378378 151.351414,5.09167894 L140.932295,25.9320392 C140.643676,26.5240949 140.557091,27.1753562 140.672538,27.8266174 L142.577419,38.0987837 C142.75059,38.9868672 143.298964,39.7565396 144.107095,40.1709786 C144.511161,40.3781981 144.97295,40.4966092 145.434739,40.4966092 C145.838805,40.4966092 146.271732,40.4078009 146.646936,40.2301841 L155.88272,35.8193693 C156.459957,35.5529442 156.950608,35.0792996 157.239226,34.487244 L167.658345,13.6468837 C169.967291,9.05845206 168.177858,3.37471743 163.704275,1.03609746 C162.376631,0.355233414 160.93354,0 159.490448,0 L159.490448,0 L159.490448,0 Z" id="Shape"></path>
                <path d="M152.044097,25.7544225 C151.813203,25.7544225 151.582308,25.695217 151.380275,25.5768058 C150.97621,25.3695863 150.716453,24.9847501 150.629868,24.5407084 L148.724987,14.2685421 C148.580678,13.469267 149.100191,12.6995946 149.87946,12.5515806 C150.65873,12.4035667 151.409137,12.9364168 151.553446,13.735692 L153.111985,22.1428828 L160.673783,18.5313431 C161.395329,18.1761097 162.261184,18.5017403 162.578664,19.2418099 C162.925006,19.9818795 162.607526,20.8699631 161.88598,21.1955937 L152.650196,25.6064086 C152.448163,25.695217 152.24613,25.7544225 152.044097,25.7544225 L152.044097,25.7544225 Z" id="Shape"></path>
                <path d="M142.404248,44.9666297 C142.173353,44.9666297 141.97132,44.9074241 141.740426,44.789013 C141.01888,44.4041768 140.759124,43.5160932 141.105465,42.8056264 L157.61443,9.79852167 C157.989633,9.05845206 158.855488,8.792027 159.548172,9.14726041 C160.269718,9.53209661 160.529474,10.4201801 160.183132,11.130647 L143.674168,44.1377517 C143.443273,44.6706018 142.952622,44.9666297 142.404248,44.9666297 L142.404248,44.9666297 Z" id="Shape"></path>
                <path d="M138.046112,53.7290539 L125.779836,53.7290539 C124.971705,53.7290539 124.336745,53.0777926 124.336745,52.2489147 C124.336745,51.4200367 124.971705,50.7687754 125.779836,50.7687754 L138.046112,50.7687754 C138.854243,50.7687754 139.489203,51.4200367 139.489203,52.2489147 C139.489203,53.0777926 138.854243,53.7290539 138.046112,53.7290539 L138.046112,53.7290539 Z" id="Shape"></path>
            </g>
        </g>
    </g>
</svg>