<?xml version="1.0" encoding="UTF-8" standalone="no"?>
<svg width="50px" height="41px" viewBox="0 0 50 41" version="1.1" xmlns="http://www.w3.org/2000/svg" xmlns:xlink="http://www.w3.org/1999/xlink">
    <!-- Generator: Sketch 40 (33762) - http://www.bohemiancoding.com/sketch -->
    <title>Page 1</title>
    <desc>Created with Sketch.</desc>
    <defs></defs>
    <g id="Welcome" stroke="none" stroke-width="1" fill="none" fill-rule="evenodd">
        <g id="Quill-Homepage" transform="translate(-148.000000, -5819.000000)">
            <g id="Page-1" transform="translate(149.000000, 5820.000000)">
                <path d="M47.2621091,31.2801593 L38.6017455,38.895277 C38.2836848,39.1749544 37.8279273,39.2436556 37.4419879,39.0662993 C37.0550788,38.8899174 36.8068364,38.5035338 36.8068364,38.0762219 L36.8068364,32.6366433 L34.1678061,32.6366433 C31.0992,32.6366433 28.1750788,31.3279091 26.1222303,29.035919 L11.796897,13.0397379 C10.5653818,11.6642515 8.8102303,10.8788161 6.96877576,10.8788161 L1.08271515,10.8788161 C0.48489697,10.8788161 4.8484857e-05,10.3920606 4.8484857e-05,9.79080296 L4.8484857e-05,7.61526387 C4.8484857e-05,7.0144935 0.48489697,6.5272507 1.08271515,6.5272507 L6.96877576,6.5272507 C10.0373818,6.5272507 12.9619879,7.8364721 15.0148364,10.1284622 L29.3396848,26.124156 C30.5716848,27.4996425 32.3263515,28.2850779 34.1678061,28.2850779 L36.8068364,28.2850779 L36.8068364,22.8459865 C36.8068364,22.4186746 37.0550788,22.0318038 37.4419879,21.8554219 C37.5845333,21.7896441 37.7382303,21.7579733 37.8890182,21.7579733 C38.1459879,21.7579733 38.4010182,21.8505495 38.6017455,22.0264441 L47.2621091,29.6420491 C47.4977455,29.8491272 47.6320485,30.1478071 47.6320485,30.4611042 C47.6320485,30.7744013 47.4977455,31.0730812 47.2621091,31.2801593" id="Fill-1" fill="#FFFFFF"></path>
                <path d="M47.2621091,31.2801593 L38.6017455,38.895277 C38.2836848,39.1749544 37.8279273,39.2436556 37.4419879,39.0662993 C37.0550788,38.8899174 36.8068364,38.5035338 36.8068364,38.0762219 L36.8068364,32.6366433 L34.1678061,32.6366433 C31.0992,32.6366433 28.1750788,31.3279091 26.1222303,29.035919 L11.796897,13.0397379 C10.5653818,11.6642515 8.8102303,10.8788161 6.96877576,10.8788161 L1.08271515,10.8788161 C0.48489697,10.8788161 4.8484857e-05,10.3920606 4.8484857e-05,9.79080296 L4.8484857e-05,7.61526387 C4.8484857e-05,7.0144935 0.48489697,6.5272507 1.08271515,6.5272507 L6.96877576,6.5272507 C10.0373818,6.5272507 12.9619879,7.8364721 15.0148364,10.1284622 L29.3396848,26.124156 C30.5716848,27.4996425 32.3263515,28.2850779 34.1678061,28.2850779 L36.8068364,28.2850779 L36.8068364,22.8459865 C36.8068364,22.4186746 37.0550788,22.0318038 37.4419879,21.8554219 C37.5845333,21.7896441 37.7382303,21.7579733 37.8890182,21.7579733 C38.1459879,21.7579733 38.4010182,21.8505495 38.6017455,22.0264441 L47.2621091,29.6420491 C47.4977455,29.8491272 47.6320485,30.1478071 47.6320485,30.4611042 C47.6320485,30.7744013 47.4977455,31.0730812 47.2621091,31.2801593 L47.2621091,31.2801593 Z" id="Stroke-3" stroke="#00C2A2" stroke-width="1.5" stroke-linecap="round" stroke-linejoin="round"></path>
                <path d="M47.2621091,7.8838321 L38.6017455,0.268714403 C38.2836848,-0.010962963 37.8279273,-0.0796641975 37.4419879,0.0976921811 C37.0550788,0.274074074 36.8068364,0.660457613 36.8068364,1.08776955 L36.8068364,6.52734815 L34.1678061,6.52734815 C31.0992,6.52734815 28.1750788,7.8360823 26.1222303,10.1280724 L11.796897,26.1242535 C10.5653818,27.4997399 8.8102303,28.2851753 6.96877576,28.2851753 L1.08271515,28.2851753 C0.48489697,28.2851753 4.8484857e-05,28.7719309 4.8484857e-05,29.3727012 L4.8484857e-05,31.5487276 C4.8484857e-05,32.1494979 0.48489697,32.6367407 1.08271515,32.6367407 L6.96877576,32.6367407 C10.0373818,32.6367407 12.9619879,31.3275193 15.0148364,29.0355292 L29.3396848,13.0398354 C30.5716848,11.664349 32.3263515,10.8789136 34.1678061,10.8789136 L36.8068364,10.8789136 L36.8068364,16.3180049 C36.8068364,16.7453169 37.0550788,17.1321877 37.4419879,17.3085695 C37.5845333,17.3743473 37.7382303,17.4060181 37.8890182,17.4060181 C38.1459879,17.4060181 38.4010182,17.313442 38.6017455,17.1375473 L47.2621091,9.52194239 C47.4977455,9.3148642 47.6320485,9.01618436 47.6320485,8.70288724 C47.6320485,8.38959012 47.4977455,8.09091029 47.2621091,7.8838321" id="Fill-5" fill="#FFFFFF"></path>
                <path d="M47.2621091,7.8838321 L38.6017455,0.268714403 C38.2836848,-0.010962963 37.8279273,-0.0796641975 37.4419879,0.0976921811 C37.0550788,0.274074074 36.8068364,0.660457613 36.8068364,1.08776955 L36.8068364,6.52734815 L34.1678061,6.52734815 C31.0992,6.52734815 28.1750788,7.8360823 26.1222303,10.1280724 L11.796897,26.1242535 C10.5653818,27.4997399 8.8102303,28.2851753 6.96877576,28.2851753 L1.08271515,28.2851753 C0.48489697,28.2851753 4.8484857e-05,28.7719309 4.8484857e-05,29.3727012 L4.8484857e-05,31.5487276 C4.8484857e-05,32.1494979 0.48489697,32.6367407 1.08271515,32.6367407 L6.96877576,32.6367407 C10.0373818,32.6367407 12.9619879,31.3275193 15.0148364,29.0355292 L29.3396848,13.0398354 C30.5716848,11.664349 32.3263515,10.8789136 34.1678061,10.8789136 L36.8068364,10.8789136 L36.8068364,16.3180049 C36.8068364,16.7453169 37.0550788,17.1321877 37.4419879,17.3085695 C37.5845333,17.3743473 37.7382303,17.4060181 37.8890182,17.4060181 C38.1459879,17.4060181 38.4010182,17.313442 38.6017455,17.1375473 L47.2621091,9.52194239 C47.4977455,9.3148642 47.6320485,9.01618436 47.6320485,8.70288724 C47.6320485,8.38959012 47.4977455,8.09091029 47.2621091,7.8838321 L47.2621091,7.8838321 Z" id="Stroke-7" stroke="#00C2A2" stroke-width="1.5" stroke-linecap="round" stroke-linejoin="round"></path>
            </g>
        </g>
    </g>
</svg>