<?xml version="1.0" encoding="UTF-8"?>
<svg width="333px" height="160px" viewBox="0 0 333 160" version="1.1" xmlns="http://www.w3.org/2000/svg" xmlns:xlink="http://www.w3.org/1999/xlink">
    <!-- Generator: Sketch 43.2 (39069) - http://www.bohemiancoding.com/sketch -->
    <title>Group 28</title>
    <desc>Created with Sketch.</desc>
    <defs>
        <path d="M16,1.00680574 C16,0.450762286 16.449907,0 16.9970148,0 L95.0029852,0 C95.5536213,0 96,0.440916195 96,1.00994874 L96,39.2607116 L96,52.9984967 C96,53.5516117 95.5454489,54 94.9929553,54 L81.3486777,54 L17.0003217,54 C16.4478593,54 16,53.5493864 16,52.9931943 L16,1.00680574 Z" id="path-1"></path>
        <path d="M95.9867153,52 L113.458838,82.3967691 C114.285245,83.8344938 113.614311,85 111.946145,85 L2.13533599,85 C0.47349164,85 -0.264186239,83.8060169 0.490616289,82.3274245 L15.9723797,52" id="path-2"></path>
        <path d="M16,1.00680574 C16,0.450762286 16.449907,0 16.9970148,0 L95.0029852,0 C95.5536213,0 96,0.440916195 96,1.00994874 L96,39.2607116 L96,52.9984967 C96,53.5516117 95.5454489,54 94.9929553,54 L81.3486777,54 L17.0003217,54 C16.4478593,54 16,53.5493864 16,52.9931943 L16,1.00680574 Z" id="path-3"></path>
        <path d="M95.9867153,52 L113.458838,82.3967691 C114.285245,83.8344938 113.614311,85 111.946145,85 L2.13533599,85 C0.47349164,85 -0.264186239,83.8060169 0.490616289,82.3274245 L15.9723797,52" id="path-4"></path>
        <path d="M16,1.00680574 C16,0.450762286 16.449907,0 16.9970148,0 L95.0029852,0 C95.5536213,0 96,0.440916195 96,1.00994874 L96,39.2607116 L96,52.9984967 C96,53.5516117 95.5454489,54 94.9929553,54 L81.3486777,54 L17.0003217,54 C16.4478593,54 16,53.5493864 16,52.9931943 L16,1.00680574 Z" id="path-5"></path>
        <path d="M95.9867153,52 L113.458838,82.3967691 C114.285245,83.8344938 113.614311,85 111.946145,85 L2.13533599,85 C0.47349164,85 -0.264186239,83.8060169 0.490616289,82.3274245 L15.9723797,52" id="path-6"></path>
    </defs>
    <g id="V1" stroke="none" stroke-width="1" fill="none" fill-rule="evenodd">
        <g id="12_15-ModalPreviewLessons" transform="translate(-519.000000, -207.000000)">
            <g id="Group-28" transform="translate(519.000000, 207.000000)">
                <g id="Group-24" transform="translate(91.000000, 18.000000)" stroke="#E9E9E9">
                    <rect id="Rectangle-55-Copy" transform="translate(179.191441, 12.191441) rotate(-45.000000) translate(-179.191441, -12.191441) " x="174.606324" y="7.60632436" width="9.17023368" height="9.17023368"></rect>
                    <rect id="Rectangle-55-Copy" transform="translate(135.191441, 112.191441) rotate(-45.000000) translate(-135.191441, -112.191441) " x="130.606324" y="107.606324" width="9.17023368" height="9.17023368"></rect>
                    <circle id="Oval-2" cx="61.5" cy="5.5" r="5.5"></circle>
                    <circle id="Oval-2-Copy" cx="99.5" cy="94.5" r="5.5"></circle>
                    <polygon id="Path-14" points="24 100.769028 29.4357406 91 35 101"></polygon>
                    <polygon id="Path-14-Copy" points="108 70.7690279 113.435741 61 119 71"></polygon>
                    <polygon id="Path-14" points="169 93.7690279 174.435741 84 180 94"></polygon>
                    <rect id="Rectangle-55" x="160.5" y="54.5" width="13" height="13"></rect>
                    <path d="M0,20.9782223 L0.91968614,16.2016182 L12.6397884,4.69983645 C13.0336339,4.31332745 13.6749483,4.30387269 14.0797287,4.68581857 L16.910665,7.35705607 C17.3120766,7.7358232 17.320719,8.36467853 16.9401517,8.75129844 L5.32353548,20.5526677 L0,20.9782223 Z" id="Path-5"></path>
                    <path d="M11.2068342,6.45088363 L14.9587834,10.2956008" id="Path-7"></path>
                    <path d="M9.61799856,8.0405607 L13.5031045,12.0352633" id="Path-10"></path>
                    <path d="M1.23711669,16.4555206 L5.13842025,20.4979745" id="Path-11"></path>
                    <path d="M3.1911342,18.2496659 L11.5974694,9.89066125" id="Path-12"></path>
                    <path d="M0,140.978222 L0.91968614,136.201618 L12.6397884,124.699836 C13.0336339,124.313327 13.6749483,124.303873 14.0797287,124.685819 L16.910665,127.357056 C17.3120766,127.735823 17.320719,128.364679 16.9401517,128.751298 L5.32353548,140.552668 L0,140.978222 Z" id="Path-5"></path>
                    <path d="M11.2068342,126.450884 L14.9587834,130.295601" id="Path-7"></path>
                    <path d="M9.61799856,128.040561 L13.5031045,132.035263" id="Path-10"></path>
                    <path d="M1.23711669,136.455521 L5.13842025,140.497975" id="Path-11"></path>
                    <path d="M3.1911342,138.249666 L11.5974694,129.890661" id="Path-12"></path>
                </g>
                <g id="Group-23" transform="translate(219.000000, 63.000000)">
                    <g id="Group-32">
                        <g id="Group-25">
                            <g id="Group-21">
                                <g id="Group-13-Copy-3">
                                    <g id="Rectangle-17">
                                        <use fill="#FFFFFF" fill-rule="evenodd" xlink:href="#path-1"></use>
                                        <path stroke="#00C2A2" stroke-width="1.5" d="M16.75,1.00680574 C16.75,0.864977597 16.8641378,0.75 16.9970148,0.75 L95.0029852,0.75 C95.142405,0.75 95.25,0.858151979 95.25,1.00994874 L95.25,39.2607116 L95.25,52.9984967 C95.25,53.1347809 95.1338508,53.25 94.9929553,53.25 L81.3486777,53.25 L17.0003217,53.25 C16.8630932,53.25 16.75,53.1361853 16.75,52.9931943 L16.75,1.00680574 Z"></path>
                                    </g>
                                    <g id="Rectangle-19">
                                        <use fill="#FFFFFF" fill-rule="evenodd" xlink:href="#path-2"></use>
                                        <path stroke="#00C2A2" stroke-width="1.5" d="M95.5527454,52.75 L112.808602,82.7705256 C113.348575,83.7099328 113.035657,84.25 111.946145,84.25 L2.13533599,84.25 C1.03162598,84.25 0.659525577,83.6460924 1.1586111,82.6684274 L16.4315866,52.75 L95.5527454,52.75 Z"></path>
                                    </g>
                                    <path d="M47.8379879,73.0621435 C48.0578774,72.2146149 48.9853003,71.5 49.8649183,71.5 L65.6575896,71.5 C66.5488341,71.5 67.5215748,72.2146639 67.7872085,73.065248 L69.0887323,77.2328493 C69.3185876,77.9688674 68.9307255,78.5 68.1690124,78.5 L47.7762777,78.5 C47.0035728,78.5 46.5725149,77.9397049 46.7672864,77.1889898 L47.8379879,73.0621435 Z" id="Rectangle-4" stroke="#00C2A2"></path>
                                    <path d="M26.4583333,59.6666667 L37.2760304,59.6666667" id="Line" stroke="#00C2A2"></path>
                                    <path d="M41.4583333,59.6666667 L52.2760304,59.6666667" id="Line-Copy-5" stroke="#00C2A2"></path>
                                    <path d="M58.4583333,59.6666667 L69.2760304,59.6666667" id="Line-Copy-6" stroke="#00C2A2"></path>
                                    <path d="M76.4583333,59.6666667 L87.2760304,59.6666667" id="Line-Copy-7" stroke="#00C2A2"></path>
                                    <path d="M22.5019896,64.6666667 L37.2906209,64.6666667" id="Line-Copy-4" stroke="#00C2A2"></path>
                                    <path d="M74.5019896,64.6666667 L89.2906209,64.6666667" id="Line-Copy-8" stroke="#00C2A2"></path>
                                    <path d="M40.4863024,64.6666667 L71,64.6666667" id="Line-Copy-4" stroke="#00C2A2"></path>
                                </g>
                                <g id="Group-27" transform="translate(43.000000, 16.000000)">
                                    <circle id="Oval-16-Copy-2" fill="#82BF3C" cx="13.5" cy="13.5" r="13.5"></circle>
                                    <polyline id="Path-6-Copy" stroke="#FFFFFF" stroke-width="2" stroke-linecap="round" stroke-linejoin="round" points="7 14.3596463 11.7910694 19.1507157 20.9417851 10"></polyline>
                                </g>
                            </g>
                        </g>
                        <rect id="Rectangle-49-Copy-2" fill="#00C2A2" x="19" y="3" width="74" height="5"></rect>
                    </g>
                    <path d="M17.4936709,51.75 L94.5063291,51.75" id="Line" stroke="#00C2A2" stroke-width="1.5" stroke-linecap="square"></path>
                </g>
                <g id="Group-22" transform="translate(0.000000, 63.000000)">
                    <g id="Group-32-Copy">
                        <g id="Group-25">
                            <g id="Group-21">
                                <g id="Group-13-Copy-3">
                                    <g id="Rectangle-17">
                                        <use fill="#FFFFFF" fill-rule="evenodd" xlink:href="#path-3"></use>
                                        <path stroke="#00C2A2" stroke-width="1.5" d="M16.75,1.00680574 C16.75,0.864977597 16.8641378,0.75 16.9970148,0.75 L95.0029852,0.75 C95.142405,0.75 95.25,0.858151979 95.25,1.00994874 L95.25,39.2607116 L95.25,52.9984967 C95.25,53.1347809 95.1338508,53.25 94.9929553,53.25 L81.3486777,53.25 L17.0003217,53.25 C16.8630932,53.25 16.75,53.1361853 16.75,52.9931943 L16.75,1.00680574 Z"></path>
                                    </g>
                                    <g id="Rectangle-19">
                                        <use fill="#FFFFFF" fill-rule="evenodd" xlink:href="#path-4"></use>
                                        <path stroke="#00C2A2" stroke-width="1.5" d="M95.5527454,52.75 L112.808602,82.7705256 C113.348575,83.7099328 113.035657,84.25 111.946145,84.25 L2.13533599,84.25 C1.03162598,84.25 0.659525577,83.6460924 1.1586111,82.6684274 L16.4315866,52.75 L95.5527454,52.75 Z"></path>
                                    </g>
                                    <path d="M47.8379879,73.0621435 C48.0578774,72.2146149 48.9853003,71.5 49.8649183,71.5 L65.6575896,71.5 C66.5488341,71.5 67.5215748,72.2146639 67.7872085,73.065248 L69.0887323,77.2328493 C69.3185876,77.9688674 68.9307255,78.5 68.1690124,78.5 L47.7762777,78.5 C47.0035728,78.5 46.5725149,77.9397049 46.7672864,77.1889898 L47.8379879,73.0621435 Z" id="Rectangle-4" stroke="#00C2A2"></path>
                                    <path d="M26.4583333,59.6666667 L37.2760304,59.6666667" id="Line" stroke="#00C2A2"></path>
                                    <path d="M41.4583333,59.6666667 L52.2760304,59.6666667" id="Line-Copy-5" stroke="#00C2A2"></path>
                                    <path d="M58.4583333,59.6666667 L69.2760304,59.6666667" id="Line-Copy-6" stroke="#00C2A2"></path>
                                    <path d="M76.4583333,59.6666667 L87.2760304,59.6666667" id="Line-Copy-7" stroke="#00C2A2"></path>
                                    <path d="M22.5019896,64.6666667 L37.2906209,64.6666667" id="Line-Copy-4" stroke="#00C2A2"></path>
                                    <path d="M74.5019896,64.6666667 L89.2906209,64.6666667" id="Line-Copy-8" stroke="#00C2A2"></path>
                                    <path d="M40.4863024,64.6666667 L71,64.6666667" id="Line-Copy-4" stroke="#00C2A2"></path>
                                </g>
                                <g id="Group-27" transform="translate(43.000000, 16.000000)">
                                    <circle id="Oval-16-Copy-2" fill="#82BF3C" cx="13.5" cy="13.5" r="13.5"></circle>
                                    <polyline id="Path-6-Copy" stroke="#FFFFFF" stroke-width="2" stroke-linecap="round" stroke-linejoin="round" points="7 14.3596463 11.7910694 19.1507157 20.9417851 10"></polyline>
                                </g>
                            </g>
                        </g>
                        <rect id="Rectangle-49-Copy-2" fill="#00C2A2" x="19" y="3" width="74" height="5"></rect>
                    </g>
                    <path d="M17.4936709,51.75 L94.5063291,51.75" id="Line" stroke="#00C2A2" stroke-width="1.5" stroke-linecap="square"></path>
                </g>
                <g id="Group-13" transform="translate(109.000000, 0.000000)">
                    <g id="Group-32-Copy-2">
                        <g id="Group-25">
                            <g id="Group-21">
                                <g id="Group-13-Copy-3">
                                    <g id="Rectangle-17">
                                        <use fill="#FFFFFF" fill-rule="evenodd" xlink:href="#path-5"></use>
                                        <path stroke="#00C2A2" stroke-width="1.5" d="M16.75,1.00680574 C16.75,0.864977597 16.8641378,0.75 16.9970148,0.75 L95.0029852,0.75 C95.142405,0.75 95.25,0.858151979 95.25,1.00994874 L95.25,39.2607116 L95.25,52.9984967 C95.25,53.1347809 95.1338508,53.25 94.9929553,53.25 L81.3486777,53.25 L17.0003217,53.25 C16.8630932,53.25 16.75,53.1361853 16.75,52.9931943 L16.75,1.00680574 Z"></path>
                                    </g>
                                    <g id="Rectangle-19">
                                        <use fill="#FFFFFF" fill-rule="evenodd" xlink:href="#path-6"></use>
                                        <path stroke="#00C2A2" stroke-width="1.5" d="M95.5527454,52.75 L112.808602,82.7705256 C113.348575,83.7099328 113.035657,84.25 111.946145,84.25 L2.13533599,84.25 C1.03162598,84.25 0.659525577,83.6460924 1.1586111,82.6684274 L16.4315866,52.75 L95.5527454,52.75 Z"></path>
                                    </g>
                                    <path d="M47.8379879,73.0621435 C48.0578774,72.2146149 48.9853003,71.5 49.8649183,71.5 L65.6575896,71.5 C66.5488341,71.5 67.5215748,72.2146639 67.7872085,73.065248 L69.0887323,77.2328493 C69.3185876,77.9688674 68.9307255,78.5 68.1690124,78.5 L47.7762777,78.5 C47.0035728,78.5 46.5725149,77.9397049 46.7672864,77.1889898 L47.8379879,73.0621435 Z" id="Rectangle-4" stroke="#00C2A2"></path>
                                    <path d="M26.4583333,59.6666667 L37.2760304,59.6666667" id="Line" stroke="#00C2A2"></path>
                                    <path d="M41.4583333,59.6666667 L52.2760304,59.6666667" id="Line-Copy-5" stroke="#00C2A2"></path>
                                    <path d="M58.4583333,59.6666667 L69.2760304,59.6666667" id="Line-Copy-6" stroke="#00C2A2"></path>
                                    <path d="M76.4583333,59.6666667 L87.2760304,59.6666667" id="Line-Copy-7" stroke="#00C2A2"></path>
                                    <path d="M22.5019896,64.6666667 L37.2906209,64.6666667" id="Line-Copy-4" stroke="#00C2A2"></path>
                                    <path d="M74.5019896,64.6666667 L89.2906209,64.6666667" id="Line-Copy-8" stroke="#00C2A2"></path>
                                    <path d="M40.4863024,64.6666667 L71,64.6666667" id="Line-Copy-4" stroke="#00C2A2"></path>
                                </g>
                                <g id="Group-27" transform="translate(43.000000, 16.000000)">
                                    <circle id="Oval-16-Copy-2" fill="#82BF3C" cx="13.5" cy="13.5" r="13.5"></circle>
                                    <polyline id="Path-6-Copy" stroke="#FFFFFF" stroke-width="2" stroke-linecap="round" stroke-linejoin="round" points="7 14.3596463 11.7910694 19.1507157 20.9417851 10"></polyline>
                                </g>
                            </g>
                        </g>
                        <rect id="Rectangle-49-Copy-2" fill="#00C2A2" x="19" y="3" width="74" height="5"></rect>
                    </g>
                    <path d="M17.4936709,51.75 L94.5063291,51.75" id="Line-Copy-9" stroke="#00C2A2" stroke-width="1.5" stroke-linecap="square"></path>
                </g>
            </g>
        </g>
    </g>
</svg>