<?xml version="1.0" encoding="UTF-8"?>
<svg width="188px" height="111px" viewBox="0 0 188 111" version="1.1" xmlns="http://www.w3.org/2000/svg" xmlns:xlink="http://www.w3.org/1999/xlink">
    <!-- Generator: Sketch 43.2 (39069) - http://www.bohemiancoding.com/sketch -->
    <title>Group 2</title>
    <desc>Created with Sketch.</desc>
    <defs>
        <rect id="path-1" x="18" y="9" width="1" height="1"></rect>
        <rect id="path-2" x="10" y="3" width="1" height="1"></rect>
        <rect id="path-3" x="9" y="15" width="1" height="1"></rect>
        <rect id="path-4" x="0" y="0" width="140" height="61" rx="3"></rect>
    </defs>
    <g id="V1" stroke="none" stroke-width="1" fill="none" fill-rule="evenodd">
        <g id="12_16-ModalProjectThisWindow" transform="translate(-589.000000, -224.000000)">
            <g id="Group-2" transform="translate(590.000000, 225.000000)">
                <g id="Group-22" transform="translate(97.000000, 91.000000)">
                    <g id="Rectangle-2-Copy">
                        <use fill="#D8D8D8" fill-rule="evenodd" xlink:href="#path-1"></use>
                        <rect stroke="#E9E9E9" stroke-width="1" x="18.5" y="9.5" width="1" height="1"></rect>
                    </g>
                    <path d="M12.3333333,9.5 L15.6666667,9.5" id="Line-Copy" stroke="#E9E9E9" stroke-linecap="square"></path>
                    <g id="Rectangle-2-Copy">
                        <use fill="#D8D8D8" fill-rule="evenodd" xlink:href="#path-2"></use>
                        <rect stroke="#E9E9E9" stroke-width="1" x="10.5" y="3.5" width="1" height="1"></rect>
                    </g>
                    <path d="M4.33333333,3.5 L7.66666667,3.5" id="Line-Copy" stroke="#E9E9E9" stroke-linecap="square"></path>
                    <rect id="Rectangle" stroke="#E9E9E9" x="0.5" y="0.5" width="14" height="6"></rect>
                    <g id="Rectangle-2">
                        <use fill="#D8D8D8" fill-rule="evenodd" xlink:href="#path-3"></use>
                        <rect stroke="#E9E9E9" stroke-width="1" x="9.5" y="15.5" width="1" height="1"></rect>
                    </g>
                    <path d="M3.33333333,15.5 L6.66666667,15.5" id="Line" stroke="#E9E9E9" stroke-linecap="square"></path>
                    <rect id="Rectangle" stroke="#E9E9E9" x="0.5" y="12.5" width="14" height="6"></rect>
                    <rect id="Rectangle" stroke="#E9E9E9" x="8.5" y="6.5" width="14" height="6"></rect>
                </g>
                <rect id="Rectangle-55-Copy" stroke="#E9E9E9" transform="translate(179.191441, 12.191441) rotate(-45.000000) translate(-179.191441, -12.191441) " x="174.606324" y="7.60632436" width="9.17023368" height="9.17023368"></rect>
                <circle id="Oval-2" stroke="#E9E9E9" cx="61.5" cy="5.5" r="5.5"></circle>
                <circle id="Oval-2-Copy" stroke="#E9E9E9" cx="5.5" cy="59.5" r="5.5"></circle>
                <polygon id="Path-14" stroke="#E9E9E9" points="24 100.769028 29.4357406 91 35 101"></polygon>
                <polygon id="Path-14" stroke="#E9E9E9" points="169 93.7690279 174.435741 84 180 94"></polygon>
                <rect id="Rectangle-55" stroke="#E9E9E9" x="160.5" y="54.5" width="13" height="13"></rect>
                <g id="Group-23" transform="translate(0.000000, 4.000000)" stroke="#E9E9E9">
                    <path d="M0,16.9782223 L0.91968614,12.2016182 L12.6397884,0.699836446 C13.0336339,0.313327449 13.6749483,0.303872686 14.0797287,0.685818573 L16.910665,3.35705607 C17.3120766,3.7358232 17.320719,4.36467853 16.9401517,4.75129844 L5.32353548,16.5526677 L0,16.9782223 Z" id="Path-5"></path>
                    <path d="M11.2068342,2.45088363 L14.9587834,6.29560082" id="Path-7"></path>
                    <path d="M9.61799856,4.0405607 L13.5031045,8.0352633" id="Path-10"></path>
                    <path d="M1.23711669,12.4555206 L5.13842025,16.4979745" id="Path-11"></path>
                    <path d="M3.1911342,14.2496659 L11.5974694,5.89066125" id="Path-12"></path>
                </g>
                <g id="Group-21" transform="translate(24.000000, 10.000000)">
                    <g id="Group-3" transform="translate(0.000000, 7.000000)">
                        <g id="Rectangle-2">
                            <use fill="#FFFFFF" fill-rule="evenodd" xlink:href="#path-4"></use>
                            <rect stroke="#00C2A2" stroke-width="1.5" x="0.75" y="0.75" width="138.5" height="59.5" rx="3"></rect>
                        </g>
                        <path d="M12.6041667,17 L69.3958333,17" id="Line" stroke="#00C2A2" stroke-width="1.5" stroke-linecap="round"></path>
                        <path d="M19.528418,27.75 L69.3580729,27.75" id="Line" stroke="#00C2A2" stroke-width="1.5" stroke-linecap="round"></path>
                    </g>
                    <g id="Group" transform="translate(86.000000, 19.000000)">
                        <circle id="Oval" stroke="#3ADFBB" cx="19" cy="19" r="15"></circle>
                        <circle id="Oval" stroke="#00C2A2" stroke-width="1.5" cx="19" cy="19" r="19"></circle>
                    </g>
                    <path d="M125.5,19.5 L133.985281,11.0147186" id="Line" stroke="#A8E167" stroke-width="2" stroke-linecap="round"></path>
                    <path d="M118.5,14.5 L122.294733,3.11580042" id="Line-Copy-7" stroke="#A8E167" stroke-width="2" stroke-linecap="round"></path>
                    <path d="M108.5,12.5 L108.5,0.5" id="Line-Copy-7" stroke="#A8E167" stroke-width="2" stroke-linecap="round"></path>
                </g>
            </g>
        </g>
    </g>
</svg>