<svg width="90" height="91" viewBox="0 0 90 91" fill="none" xmlns="http://www.w3.org/2000/svg">
<g opacity="0.2">
<path fill-rule="evenodd" clip-rule="evenodd" d="M21.6295 15.9817C22.7635 14.8358 24.3087 14.1911 25.9208 14.1911H34.9777L27.3684 29.2416C27.1672 29.6395 26.9922 30.0472 26.8435 30.4622H7.31245C7.38647 30.3786 7.46318 30.2967 7.5426 30.2165L21.6295 15.9817ZM30.2515 30.4622L38.4779 14.1911H51.523L59.7494 30.4622H30.2515ZM60.6462 33.5858H29.3546C29.284 34.6696 29.4457 35.7677 29.8436 36.8038L45.0004 76.2744L60.1572 36.8038C60.5551 35.7677 60.7168 34.6696 60.6462 33.5858ZM48.5967 75.6229L63.0733 37.9236C63.6099 36.5263 63.8421 35.049 63.7746 33.5858H84.1416C84.3953 35.3205 83.8935 37.147 82.6256 38.535L49.4585 74.8432C49.1912 75.1357 48.9023 75.3957 48.5967 75.6229ZM63.1574 30.4622C63.0087 30.0472 62.8336 29.6395 62.6325 29.2416L55.0232 14.1911H64.0812C65.6933 14.1911 67.2385 14.8358 68.3724 15.9817L82.4594 30.2165C82.5388 30.2967 82.6155 30.3786 82.6895 30.4622H63.1574ZM5.86037 33.5858H26.2262C26.1588 35.049 26.391 36.5263 26.9275 37.9236L41.4038 75.6218C41.0987 75.3948 40.8103 75.1353 40.5435 74.8432L7.37637 38.535C6.10847 37.147 5.60667 35.3205 5.86037 33.5858ZM19.4093 13.7845C21.1299 12.0457 23.4746 11.0674 25.9208 11.0674H64.0812C66.5274 11.0674 68.872 12.0457 70.5927 13.7845L84.6796 28.0192C88.1123 31.488 88.2232 37.0387 84.9319 40.6418L51.7647 76.9499C48.1323 80.9264 41.8697 80.9264 38.2372 76.9499L5.0701 40.6418C1.77872 37.0387 1.88964 31.488 5.32233 28.0192L19.4093 13.7845Z" fill="#C04500"/>
</g>
</svg>
