<svg xmlns="http://www.w3.org/2000/svg" width="162" height="69" viewBox="0 0 162 69">
    <g fill="none" fill-rule="evenodd">
        <rect width="161" height="8" x=".5" y="26.5" fill="#FDF2F4" stroke="#D7D7D7" rx="2"/>
        <rect width="161" height="8" x=".5" y="52.5" fill="#FDF2F4" stroke="#D7D7D7" rx="2"/>
        <rect width="161" height="8" x=".5" y="13.5" fill="#FFF" stroke="#D7D7D7" rx="2"/>
        <rect width="161" height="8" x=".5" y="39.5" fill="#FFF" stroke="#D7D7D7" rx="2"/>
        <path fill="#D7D7D7" d="M4 30h13v1H4zM4 56h17v1H4z"/>
        <path fill="#DFDFDF" stroke="#D7D7D7" d="M4.5 17.5h19v1h-19zM4.5 43.5h5v1h-5z"/>
        <path fill="#D7D7D7" d="M32 30h68v1H32zM32 56h52v1H32z"/>
        <path fill="#DFDFDF" stroke="#D7D7D7" d="M32.5 17.5h48v1h-48zM32.5 43.5h59v1h-59z"/>
        <path fill="#D7D7D7" d="M124 30h28v1h-28zM124 56h24v1h-24z"/>
        <path fill="#DFDFDF" stroke="#D7D7D7" d="M124.5 17.5h19v1h-19zM124.5 43.5h13v1h-13z"/>
        <g stroke-linecap="round" stroke-linejoin="round" stroke-width="2" transform="translate(69 44)">
            <circle cx="12" cy="12" r="12" fill="#FFF" stroke="#58B146"/>
            <path stroke="#111" d="M12 6.667V12h5.333"/>
        </g>
        <g transform="translate(52)">
            <path fill="#333" d="M12.774.367c1.08 0 1.782.513 1.782 1.62 0 .99-.513 1.674-1.413 2.727L11.82 6.262v.018h2.826V7h-3.78v-.684l1.53-1.845c.909-1.089 1.323-1.62 1.323-2.448 0-.693-.396-.963-1.026-.963-.846 0-1.044.459-1.152 1.089l-.747-.135c.171-1.188.945-1.647 1.98-1.647zm2.646 5.229l.774-.162c.117.558.279.972 1.143.972.657 0 1.233-.36 1.233-1.26 0-.927-.549-1.233-1.368-1.233h-.585V3.22h.414c.909 0 1.449-.477 1.449-1.197 0-.54-.252-.972-1.026-.972-.765 0-.99.333-1.152.927l-.729-.162C15.789.727 16.581.367 17.544.367c1.143 0 1.755.612 1.755 1.539 0 .981-.693 1.431-1.269 1.575v.027c.846.153 1.386.657 1.386 1.656 0 1.17-.828 1.944-2.097 1.944-1.017 0-1.773-.432-1.899-1.512zm9.144-4.527c-.999 0-1.359.441-1.359 1.017 0 .792.747 1.017 1.557 1.26.954.279 1.989.585 1.989 1.845 0 1.377-1.098 1.917-2.304 1.917-1.359 0-2.205-.54-2.376-1.881l.792-.117c.153.693.477 1.296 1.593 1.296.702 0 1.449-.234 1.449-1.098 0-.81-.729-1.026-1.53-1.251-.963-.27-2.016-.549-2.016-1.89 0-1.116.936-1.8 2.196-1.8 1.143 0 2.007.441 2.142 1.836l-.774.09c-.099-.621-.351-1.224-1.359-1.224zm5.724 5.139l.144.594c-.225.153-.702.306-1.134.306-.864 0-1.305-.396-1.305-1.323V3.031h-.711v-.657h.711V1.033l.819-.126v1.467h1.278v.657h-1.278v2.646c0 .486.108.756.666.756.279 0 .612-.117.81-.225zm.801-.693V2.374h.819v3.015c0 .639.153.99.837.99.531 0 1.098-.342 1.341-.567V2.374h.819V7h-.711l-.054-.531c-.45.369-.999.621-1.638.621-.981 0-1.413-.54-1.413-1.575zm9.018-5.31V7h-.684l-.063-.495-.009-.009c-.396.36-.864.612-1.53.612-1.053 0-1.764-.666-1.764-2.349 0-1.827.927-2.484 1.953-2.484.531 0 .972.171 1.296.432V.205h.801zm-.81 5.652V3.382a2.033 2.033 0 0 0-1.179-.405c-.891 0-1.215.711-1.215 1.782 0 1.125.351 1.665 1.161 1.665.477 0 .945-.279 1.233-.567zm4.077 1.251c-1.638 0-2.133-1.143-2.133-2.412 0-1.692.99-2.421 2.178-2.421 1.296 0 1.836.855 1.836 1.998 0 .18-.009.387-.036.603h-3.114c.036 1.179.558 1.548 1.296 1.548.657 0 .963-.297 1.089-.819l.72.162c-.189.9-.909 1.341-1.836 1.341zm-1.26-2.88h2.295c0-.828-.315-1.287-1.044-1.287-.612 0-1.206.369-1.251 1.287zm8.181-.369V7h-.819V3.985c0-.639-.234-.99-.864-.99-.531 0-1.107.342-1.35.558V7h-.819V2.374h.72l.045.549c.45-.36 1.026-.648 1.665-.648.99 0 1.422.54 1.422 1.584zm3.708 2.349l.144.594c-.225.153-.702.306-1.134.306-.864 0-1.305-.396-1.305-1.323V3.031h-.711v-.657h.711V1.033l.819-.126v1.467h1.278v.657h-1.278v2.646c0 .486.108.756.666.756.279 0 .612-.117.81-.225zm2.475-3.933c1.098 0 1.548.522 1.692 1.341l-.738.162c-.108-.531-.288-.855-.963-.855s-.891.297-.891.648c0 .477.378.612 1.026.747.846.18 1.647.351 1.647 1.386 0 .882-.684 1.404-1.809 1.404-1.062 0-1.701-.414-1.845-1.341l.729-.198c.126.495.333.891 1.152.891.558 0 .963-.171.963-.666 0-.513-.378-.603-1.008-.729-.756-.153-1.665-.315-1.665-1.395 0-.936.774-1.395 1.71-1.395z"/>
            <circle cx="3" cy="4" r="3" fill="#58B146"/>
        </g>
    </g>
</svg>
