<?xml version="1.0" encoding="UTF-8" standalone="no"?>
<svg width="352px" height="152px" viewBox="0 0 352 152" version="1.1" xmlns="http://www.w3.org/2000/svg" xmlns:xlink="http://www.w3.org/1999/xlink">
    <!-- Generator: Sketch 39.1 (31720) - http://www.bohemiancoding.com/sketch -->
    <title>Group 32 Copy</title>
    <desc>Created with Sketch.</desc>
    <defs>
        <rect id="path-1" x="0" y="0" width="274" height="31.1200008"></rect>
        <mask id="mask-2" maskContentUnits="userSpaceOnUse" maskUnits="objectBoundingBox" x="0" y="0" width="274" height="31.1200008" fill="white">
            <use xlink:href="#path-1"></use>
        </mask>
        <rect id="path-3" x="0" y="0" width="157" height="31.1200008"></rect>
        <mask id="mask-4" maskContentUnits="userSpaceOnUse" maskUnits="objectBoundingBox" x="0" y="0" width="157" height="31.1200008" fill="white">
            <use xlink:href="#path-3"></use>
        </mask>
        <rect id="path-5" x="0" y="0" width="142" height="31.1181102"></rect>
        <mask id="mask-6" maskContentUnits="userSpaceOnUse" maskUnits="objectBoundingBox" x="0" y="0" width="142" height="31.1181102" fill="white">
            <use xlink:href="#path-5"></use>
        </mask>
        <rect id="path-7" x="0" y="0" width="127" height="31.1200008"></rect>
        <mask id="mask-8" maskContentUnits="userSpaceOnUse" maskUnits="objectBoundingBox" x="0" y="0" width="127" height="31.1200008" fill="white">
            <use xlink:href="#path-7"></use>
        </mask>
        <rect id="path-9" x="0" y="0" width="216" height="31.1200008"></rect>
        <mask id="mask-10" maskContentUnits="userSpaceOnUse" maskUnits="objectBoundingBox" x="0" y="0" width="216" height="31.1200008" fill="white">
            <use xlink:href="#path-9"></use>
        </mask>
        <rect id="path-11" x="0" y="0" width="84" height="31.1200008"></rect>
        <mask id="mask-12" maskContentUnits="userSpaceOnUse" maskUnits="objectBoundingBox" x="0" y="0" width="84" height="31.1200008" fill="white">
            <use xlink:href="#path-11"></use>
        </mask>
        <rect id="path-13" x="0" y="0" width="83" height="31.1200008"></rect>
        <mask id="mask-14" maskContentUnits="userSpaceOnUse" maskUnits="objectBoundingBox" x="0" y="0" width="83" height="31.1200008" fill="white">
            <use xlink:href="#path-13"></use>
        </mask>
        <rect id="path-15" x="0" y="0" width="68" height="31.1200008"></rect>
        <mask id="mask-16" maskContentUnits="userSpaceOnUse" maskUnits="objectBoundingBox" x="0" y="0" width="68" height="31.1200008" fill="white">
            <use xlink:href="#path-15"></use>
        </mask>
    </defs>
    <g id="Welcome" stroke="none" stroke-width="1" fill="none" fill-rule="evenodd">
        <g id="Diagnostic---Intro-Slides---1" transform="translate(-485.000000, -169.000000)">
            <g id="Group-32-Copy" transform="translate(485.000000, 169.000000)">
                <g id="Group-12" transform="translate(39.000000, 40.000000)">
                    <g id="Group-6">
                        <use id="Rectangle-34" stroke="#CCCCCC" mask="url(#mask-2)" stroke-width="3" fill="#FAFAFA" xlink:href="#path-1"></use>
                        <path d="M13.0600154,20.168 C14.8380154,20.168 16.6720154,19.412 17.0220154,17.172 L15.8600154,16.934 C15.5380154,18.362 14.7540154,19.062 13.1440154,19.062 C11.1140154,19.062 9.93801536,17.886 9.93801536,14.974 C9.93801536,12.188 11.2120154,10.802 13.3120154,10.802 C14.9780154,10.802 15.6920154,11.628 15.8880154,13.21 L17.0920154,13.084 C16.9380154,10.718 15.4540154,9.682 13.3260154,9.682 C10.4420154,9.682 8.60801536,11.67 8.60801536,15.086 C8.60801536,18.124 9.88201536,20.168 13.0600154,20.168 L13.0600154,20.168 Z M21.6000154,20.168 C24.0220154,20.168 25.0020154,18.628 25.0020154,16.262 C25.0020154,14.12 24.0640154,12.65 21.7820154,12.65 C19.4860154,12.65 18.2820154,14.106 18.2820154,16.43 C18.2820154,18.558 19.1080154,20.168 21.6000154,20.168 L21.6000154,20.168 Z M21.6700154,19.146 C20.2700154,19.146 19.5980154,18.278 19.5980154,16.374 C19.5980154,14.456 20.4520154,13.7 21.7260154,13.7 C22.9720154,13.7 23.6720154,14.358 23.6720154,16.346 C23.6720154,18.39 22.9160154,19.146 21.6700154,19.146 L21.6700154,19.146 Z M28.0960154,14.624 C28.4740154,14.274 29.3560154,13.77 30.0840154,13.77 C31.0080154,13.77 31.2040154,14.316 31.2040154,15.282 L31.2040154,20 L32.4780154,20 L32.4780154,15.1 C32.4780154,14.918 32.4640154,14.736 32.4500154,14.568 C32.8700154,14.218 33.6960154,13.77 34.3820154,13.77 C35.3060154,13.77 35.5020154,14.316 35.5020154,15.282 L35.5020154,20 L36.7760154,20 L36.7760154,15.1 C36.7760154,13.49 36.2440154,12.65 34.7320154,12.65 C33.7520154,12.65 32.9400154,13.084 32.2400154,13.644 C31.9600154,12.972 31.3860154,12.65 30.4340154,12.65 C29.4540154,12.65 28.6980154,13.07 27.9840154,13.616 L27.9140154,12.804 L26.8220154,12.804 L26.8220154,20 L28.0960154,20 L28.0960154,14.624 Z M38.9460154,22.968 L40.1780154,22.968 L40.1780154,19.468 C40.6960154,19.86 41.3820154,20.168 42.2500154,20.168 C43.8600154,20.168 45.2460154,19.048 45.2460154,16.234 C45.2460154,13.588 44.1260154,12.65 42.6140154,12.65 C41.5920154,12.65 40.7800154,13.042 40.1220154,13.63 L40.0520154,12.804 L38.9460154,12.804 L38.9460154,22.968 Z M40.2200154,14.624 C40.6400154,14.204 41.4380154,13.714 42.2360154,13.714 C43.3840154,13.714 43.9440154,14.414 43.9440154,16.22 C43.9440154,17.942 43.4400154,19.09 42.0680154,19.09 C41.2420154,19.09 40.5280154,18.614 40.2200154,18.376 L40.2200154,14.624 Z M49.9500154,20.168 C52.3720154,20.168 53.3520154,18.628 53.3520154,16.262 C53.3520154,14.12 52.4140154,12.65 50.1320154,12.65 C47.8360154,12.65 46.6320154,14.106 46.6320154,16.43 C46.6320154,18.558 47.4580154,20.168 49.9500154,20.168 L49.9500154,20.168 Z M50.0200154,19.146 C48.6200154,19.146 47.9480154,18.278 47.9480154,16.374 C47.9480154,14.456 48.8020154,13.7 50.0760154,13.7 C51.3220154,13.7 52.0220154,14.358 52.0220154,16.346 C52.0220154,18.39 51.2660154,19.146 50.0200154,19.146 L50.0200154,19.146 Z M55.1440154,17.69 C55.1440154,19.3 55.8160154,20.14 57.3420154,20.14 C58.3360154,20.14 59.1900154,19.748 59.8900154,19.174 L59.9740154,20 L61.0800154,20 L61.0800154,12.804 L59.8060154,12.804 L59.8060154,18.152 C59.4280154,18.502 58.5460154,19.034 57.7200154,19.034 C56.6560154,19.034 56.4180154,18.488 56.4180154,17.494 L56.4180154,12.804 L55.1440154,12.804 L55.1440154,17.69 Z M69.2980154,15.114 C69.2980154,13.49 68.6260154,12.65 67.0860154,12.65 C66.0920154,12.65 65.1960154,13.098 64.4960154,13.658 L64.4260154,12.804 L63.3060154,12.804 L63.3060154,20 L64.5800154,20 L64.5800154,14.638 C64.9580154,14.302 65.8540154,13.77 66.6800154,13.77 C67.6600154,13.77 68.0240154,14.316 68.0240154,15.31 L68.0240154,20 L69.2980154,20 L69.2980154,15.114 Z M77.3200154,9.43 L76.0740154,9.43 L76.0740154,13.322 C75.5700154,12.916 74.8840154,12.65 74.0580154,12.65 C72.4620154,12.65 71.0200154,13.672 71.0200154,16.514 C71.0200154,19.132 72.1260154,20.168 73.7640154,20.168 C74.8000154,20.168 75.5280154,19.776 76.1440154,19.216 L76.1580154,19.23 L76.2560154,20 L77.3200154,20 L77.3200154,9.43 Z M76.0600154,18.222 C75.6120154,18.67 74.8840154,19.104 74.1420154,19.104 C72.8820154,19.104 72.3360154,18.264 72.3360154,16.514 C72.3360154,14.848 72.8400154,13.742 74.2260154,13.742 C75.0520154,13.742 75.7240154,14.12 76.0600154,14.372 L76.0600154,18.222 Z M85.5800154,10.774 C87.1480154,10.774 87.5400154,11.712 87.6940154,12.678 L88.8980154,12.538 C88.6880154,10.368 87.3440154,9.682 85.5660154,9.682 C83.6060154,9.682 82.1500154,10.746 82.1500154,12.482 C82.1500154,14.568 83.7880154,15.002 85.2860154,15.422 C86.5320154,15.772 87.6660154,16.108 87.6660154,17.368 C87.6660154,18.712 86.5040154,19.076 85.4120154,19.076 C83.6760154,19.076 83.1720154,18.138 82.9340154,17.06 L81.7020154,17.242 C81.9680154,19.328 83.2840154,20.168 85.3980154,20.168 C87.2740154,20.168 88.9820154,19.328 88.9820154,17.186 C88.9820154,15.226 87.3720154,14.75 85.8880154,14.316 C84.6280154,13.938 83.4660154,13.588 83.4660154,12.356 C83.4660154,11.46 84.0260154,10.774 85.5800154,10.774 L85.5800154,10.774 Z M90.6620154,17.69 C90.6620154,19.3 91.3340154,20.14 92.8600154,20.14 C93.8540154,20.14 94.7080154,19.748 95.4080154,19.174 L95.4920154,20 L96.5980154,20 L96.5980154,12.804 L95.3240154,12.804 L95.3240154,18.152 C94.9460154,18.502 94.0640154,19.034 93.2380154,19.034 C92.1740154,19.034 91.9360154,18.488 91.9360154,17.494 L91.9360154,12.804 L90.6620154,12.804 L90.6620154,17.69 Z M99.9300154,20 L100.000015,19.37 L100.014015,19.37 C100.532015,19.776 101.246015,20.168 102.100015,20.168 C103.766015,20.168 105.138015,19.034 105.138015,16.234 C105.138015,13.588 104.004015,12.65 102.520015,12.65 C101.470015,12.65 100.714015,13.042 100.084015,13.602 L100.084015,9.43 L98.8240154,9.43 L98.8240154,20 L99.9300154,20 Z M100.098015,14.624 C100.518015,14.218 101.316015,13.728 102.114015,13.728 C103.304015,13.728 103.822015,14.512 103.822015,16.22 C103.822015,17.97 103.304015,19.09 101.946015,19.09 C101.120015,19.09 100.420015,18.586 100.098015,18.348 L100.098015,14.624 Z M106.188015,23.122 C107.490015,23.122 108.232015,22.464 108.232015,20.938 L108.232015,12.804 L106.958015,12.804 L106.958015,20.882 C106.958015,21.736 106.594015,22.016 106.020015,22.016 C105.670015,22.016 105.250015,21.918 104.970015,21.806 L104.830015,22.842 C105.082015,22.996 105.726015,23.122 106.188015,23.122 L106.188015,23.122 Z M108.526015,10.382 C108.526015,9.808 108.204015,9.472 107.630015,9.472 C107.056015,9.472 106.720015,9.808 106.720015,10.382 C106.720015,10.97 107.056015,11.306 107.630015,11.306 C108.204015,11.306 108.526015,10.97 108.526015,10.382 L108.526015,10.382 Z M113.286015,20.168 C114.728015,20.168 115.848015,19.482 116.142015,18.082 L115.022015,17.83 C114.826015,18.642 114.350015,19.104 113.328015,19.104 C112.180015,19.104 111.368015,18.53 111.312015,16.696 L116.156015,16.696 C116.198015,16.36 116.212015,16.038 116.212015,15.758 C116.212015,13.98 115.372015,12.65 113.356015,12.65 C111.508015,12.65 109.968015,13.784 109.968015,16.416 C109.968015,18.39 110.738015,20.168 113.286015,20.168 L113.286015,20.168 Z M111.326015,15.688 C111.396015,14.26 112.320015,13.686 113.272015,13.686 C114.406015,13.686 114.896015,14.4 114.896015,15.688 L111.326015,15.688 Z M120.916015,20.168 C122.358015,20.168 123.632015,19.468 123.870015,17.802 L122.750015,17.564 C122.568015,18.628 121.938015,19.104 120.958015,19.104 C119.810015,19.104 118.942015,18.46 118.942015,16.318 C118.942015,14.274 119.964015,13.714 121.000015,13.714 C122.008015,13.714 122.498015,14.26 122.610015,15.324 L123.828015,15.156 C123.730015,13.49 122.666015,12.65 121.056015,12.65 C118.900015,12.65 117.612015,13.966 117.612015,16.472 C117.612015,18.628 118.536015,20.168 120.916015,20.168 L120.916015,20.168 Z M129.386015,18.768 C129.078015,18.936 128.560015,19.118 128.126015,19.118 C127.258015,19.118 127.090015,18.698 127.090015,17.942 L127.090015,13.826 L129.078015,13.826 L129.078015,12.804 L127.090015,12.804 L127.090015,10.522 L125.816015,10.718 L125.816015,12.804 L124.710015,12.804 L124.710015,13.826 L125.816015,13.826 L125.816015,18.11 C125.816015,19.552 126.502015,20.168 127.846015,20.168 C128.518015,20.168 129.260015,19.93 129.610015,19.692 L129.386015,18.768 Z M133.236015,12.65 C131.780015,12.65 130.576015,13.364 130.576015,14.82 C130.576015,16.5 131.990015,16.752 133.166015,16.99 C134.146015,17.186 134.734015,17.326 134.734015,18.124 C134.734015,18.894 134.104015,19.16 133.236015,19.16 C131.962015,19.16 131.640015,18.544 131.444015,17.774 L130.310015,18.082 C130.534015,19.524 131.528015,20.168 133.180015,20.168 C134.930015,20.168 135.994015,19.356 135.994015,17.984 C135.994015,16.374 134.748015,16.108 133.432015,15.828 C132.424015,15.618 131.836015,15.408 131.836015,14.666 C131.836015,14.12 132.172015,13.658 133.222015,13.658 C134.272015,13.658 134.552015,14.162 134.720015,14.988 L135.868015,14.736 C135.644015,13.462 134.944015,12.65 133.236015,12.65 L133.236015,12.65 Z M136.778015,21.68 L137.800015,21.806 L138.976015,18.516 L137.562015,18.516 L136.778015,21.68 Z M147.880015,20.168 C150.974015,20.168 152.556015,18.026 152.556015,14.736 C152.556015,11.922 151.156015,9.682 148.090015,9.682 C144.996015,9.682 143.330015,11.922 143.330015,14.932 C143.330015,17.97 144.744015,20.168 147.880015,20.168 L147.880015,20.168 Z M147.950015,19.034 C145.990015,19.034 144.674015,17.662 144.674015,14.918 C144.674015,12.216 146.088015,10.816 148.048015,10.816 C149.980015,10.816 151.240015,12.188 151.240015,14.862 C151.240015,17.732 149.868015,19.034 147.950015,19.034 L147.950015,19.034 Z M155.496015,20 L155.566015,19.37 L155.580015,19.37 C156.098015,19.776 156.812015,20.168 157.666015,20.168 C159.332015,20.168 160.704015,19.034 160.704015,16.234 C160.704015,13.588 159.570015,12.65 158.086015,12.65 C157.036015,12.65 156.280015,13.042 155.650015,13.602 L155.650015,9.43 L154.390015,9.43 L154.390015,20 L155.496015,20 Z M155.664015,14.624 C156.084015,14.218 156.882015,13.728 157.680015,13.728 C158.870015,13.728 159.388015,14.512 159.388015,16.22 C159.388015,17.97 158.870015,19.09 157.512015,19.09 C156.686015,19.09 155.986015,18.586 155.664015,18.348 L155.664015,14.624 Z M161.754015,23.122 C163.056015,23.122 163.798015,22.464 163.798015,20.938 L163.798015,12.804 L162.524015,12.804 L162.524015,20.882 C162.524015,21.736 162.160015,22.016 161.586015,22.016 C161.236015,22.016 160.816015,21.918 160.536015,21.806 L160.396015,22.842 C160.648015,22.996 161.292015,23.122 161.754015,23.122 L161.754015,23.122 Z M164.092015,10.382 C164.092015,9.808 163.770015,9.472 163.196015,9.472 C162.622015,9.472 162.286015,9.808 162.286015,10.382 C162.286015,10.97 162.622015,11.306 163.196015,11.306 C163.770015,11.306 164.092015,10.97 164.092015,10.382 L164.092015,10.382 Z M168.852015,20.168 C170.294015,20.168 171.414015,19.482 171.708015,18.082 L170.588015,17.83 C170.392015,18.642 169.916015,19.104 168.894015,19.104 C167.746015,19.104 166.934015,18.53 166.878015,16.696 L171.722015,16.696 C171.764015,16.36 171.778015,16.038 171.778015,15.758 C171.778015,13.98 170.938015,12.65 168.922015,12.65 C167.074015,12.65 165.534015,13.784 165.534015,16.416 C165.534015,18.39 166.304015,20.168 168.852015,20.168 L168.852015,20.168 Z M166.892015,15.688 C166.962015,14.26 167.886015,13.686 168.838015,13.686 C169.972015,13.686 170.462015,14.4 170.462015,15.688 L166.892015,15.688 Z M176.482015,20.168 C177.924015,20.168 179.198015,19.468 179.436015,17.802 L178.316015,17.564 C178.134015,18.628 177.504015,19.104 176.524015,19.104 C175.376015,19.104 174.508015,18.46 174.508015,16.318 C174.508015,14.274 175.530015,13.714 176.566015,13.714 C177.574015,13.714 178.064015,14.26 178.176015,15.324 L179.394015,15.156 C179.296015,13.49 178.232015,12.65 176.622015,12.65 C174.466015,12.65 173.178015,13.966 173.178015,16.472 C173.178015,18.628 174.102015,20.168 176.482015,20.168 L176.482015,20.168 Z M184.952015,18.768 C184.644015,18.936 184.126015,19.118 183.692015,19.118 C182.824015,19.118 182.656015,18.698 182.656015,17.942 L182.656015,13.826 L184.644015,13.826 L184.644015,12.804 L182.656015,12.804 L182.656015,10.522 L181.382015,10.718 L181.382015,12.804 L180.276015,12.804 L180.276015,13.826 L181.382015,13.826 L181.382015,18.11 C181.382015,19.552 182.068015,20.168 183.412015,20.168 C184.084015,20.168 184.826015,19.93 185.176015,19.692 L184.952015,18.768 Z M188.802015,12.65 C187.346015,12.65 186.142015,13.364 186.142015,14.82 C186.142015,16.5 187.556015,16.752 188.732015,16.99 C189.712015,17.186 190.300015,17.326 190.300015,18.124 C190.300015,18.894 189.670015,19.16 188.802015,19.16 C187.528015,19.16 187.206015,18.544 187.010015,17.774 L185.876015,18.082 C186.100015,19.524 187.094015,20.168 188.746015,20.168 C190.496015,20.168 191.560015,19.356 191.560015,17.984 C191.560015,16.374 190.314015,16.108 188.998015,15.828 C187.990015,15.618 187.402015,15.408 187.402015,14.666 C187.402015,14.12 187.738015,13.658 188.788015,13.658 C189.838015,13.658 190.118015,14.162 190.286015,14.988 L191.434015,14.736 C191.210015,13.462 190.510015,12.65 188.802015,12.65 L188.802015,12.65 Z M192.344015,21.68 L193.366015,21.806 L194.542015,18.516 L193.128015,18.516 L192.344015,21.68 Z M200.814015,16.318 L202.354015,16.318 C204.790015,16.318 206.218015,15.31 206.218015,12.902 C206.218015,11.292 205.434015,9.864 202.844015,9.864 L199.540015,9.864 L199.540015,20 L200.814015,20 L200.814015,16.318 Z M200.814015,15.212 L200.814015,10.956 L202.466015,10.956 C204.090015,10.956 204.888015,11.516 204.888015,12.972 C204.888015,14.862 203.726015,15.212 202.256015,15.212 L200.814015,15.212 Z M211.776015,12.664 C211.692015,12.664 211.594015,12.65 211.510015,12.65 C210.502015,12.65 209.746015,12.986 209.116015,13.84 L209.018015,12.804 L207.954015,12.804 L207.954015,20 L209.228015,20 L209.228015,14.764 C209.816015,14.218 210.880015,13.854 211.776015,13.98 L211.776015,12.664 Z M215.920015,20.168 C217.362015,20.168 218.482015,19.482 218.776015,18.082 L217.656015,17.83 C217.460015,18.642 216.984015,19.104 215.962015,19.104 C214.814015,19.104 214.002015,18.53 213.946015,16.696 L218.790015,16.696 C218.832015,16.36 218.846015,16.038 218.846015,15.758 C218.846015,13.98 218.006015,12.65 215.990015,12.65 C214.142015,12.65 212.602015,13.784 212.602015,16.416 C212.602015,18.39 213.372015,20.168 215.920015,20.168 L215.920015,20.168 Z M213.960015,15.688 C214.030015,14.26 214.954015,13.686 215.906015,13.686 C217.040015,13.686 217.530015,14.4 217.530015,15.688 L213.960015,15.688 Z M226.560015,9.43 L225.314015,9.43 L225.314015,13.322 C224.810015,12.916 224.124015,12.65 223.298015,12.65 C221.702015,12.65 220.260015,13.672 220.260015,16.514 C220.260015,19.132 221.366015,20.168 223.004015,20.168 C224.040015,20.168 224.768015,19.776 225.384015,19.216 L225.398015,19.23 L225.496015,20 L226.560015,20 L226.560015,9.43 Z M225.300015,18.222 C224.852015,18.67 224.124015,19.104 223.382015,19.104 C222.122015,19.104 221.576015,18.264 221.576015,16.514 C221.576015,14.848 222.080015,13.742 223.466015,13.742 C224.292015,13.742 224.964015,14.12 225.300015,14.372 L225.300015,18.222 Z M230.046015,12.804 L228.772015,12.804 L228.772015,20 L230.046015,20 L230.046015,12.804 Z M230.340015,10.494 C230.340015,9.906 230.004015,9.584 229.430015,9.584 C228.856015,9.584 228.534015,9.906 228.534015,10.494 C228.534015,11.082 228.856015,11.418 229.430015,11.418 C230.004015,11.418 230.340015,11.082 230.340015,10.494 L230.340015,10.494 Z M235.114015,20.168 C236.556015,20.168 237.830015,19.468 238.068015,17.802 L236.948015,17.564 C236.766015,18.628 236.136015,19.104 235.156015,19.104 C234.008015,19.104 233.140015,18.46 233.140015,16.318 C233.140015,14.274 234.162015,13.714 235.198015,13.714 C236.206015,13.714 236.696015,14.26 236.808015,15.324 L238.026015,15.156 C237.928015,13.49 236.864015,12.65 235.254015,12.65 C233.098015,12.65 231.810015,13.966 231.810015,16.472 C231.810015,18.628 232.734015,20.168 235.114015,20.168 L235.114015,20.168 Z M245.054015,15.128 C245.054015,13.336 244.256015,12.65 242.478015,12.65 C240.812015,12.65 239.944015,13.28 239.720015,14.624 L240.840015,14.834 C240.994015,14.036 241.372015,13.644 242.366015,13.644 C243.542015,13.644 243.794015,14.204 243.794015,15.114 L243.794015,15.814 C243.598015,15.8 243.388015,15.786 243.164015,15.786 C241.134015,15.786 239.440015,16.318 239.440015,18.236 C239.440015,18.936 239.748015,20.168 241.568015,20.168 C242.576015,20.168 243.318015,19.846 243.878015,19.286 C243.948015,19.748 244.270015,20.14 244.984015,20.14 C245.334015,20.14 245.698015,20.056 245.978015,19.916 L245.922015,19.118 C245.740015,19.174 245.614015,19.202 245.488015,19.202 C245.124015,19.202 245.054015,19.034 245.054015,18.642 L245.054015,15.128 Z M243.808015,18.362 C243.416015,18.782 242.702015,19.174 241.960015,19.174 C240.980015,19.174 240.756015,18.642 240.756015,18.026 C240.756015,16.794 242.086015,16.696 243.080015,16.696 C243.346015,16.696 243.612015,16.71 243.808015,16.738 L243.808015,18.362 Z M251.214015,18.768 C250.906015,18.936 250.388015,19.118 249.954015,19.118 C249.086015,19.118 248.918015,18.698 248.918015,17.942 L248.918015,13.826 L250.906015,13.826 L250.906015,12.804 L248.918015,12.804 L248.918015,10.522 L247.644015,10.718 L247.644015,12.804 L246.538015,12.804 L246.538015,13.826 L247.644015,13.826 L247.644015,18.11 C247.644015,19.552 248.330015,20.168 249.674015,20.168 C250.346015,20.168 251.088015,19.93 251.438015,19.692 L251.214015,18.768 Z M255.596015,20.168 C257.038015,20.168 258.158015,19.482 258.452015,18.082 L257.332015,17.83 C257.136015,18.642 256.660015,19.104 255.638015,19.104 C254.490015,19.104 253.678015,18.53 253.622015,16.696 L258.466015,16.696 C258.508015,16.36 258.522015,16.038 258.522015,15.758 C258.522015,13.98 257.682015,12.65 255.666015,12.65 C253.818015,12.65 252.278015,13.784 252.278015,16.416 C252.278015,18.39 253.048015,20.168 255.596015,20.168 L255.596015,20.168 Z M253.636015,15.688 C253.706015,14.26 254.630015,13.686 255.582015,13.686 C256.716015,13.686 257.206015,14.4 257.206015,15.688 L253.636015,15.688 Z M262.708015,12.65 C261.252015,12.65 260.048015,13.364 260.048015,14.82 C260.048015,16.5 261.462015,16.752 262.638015,16.99 C263.618015,17.186 264.206015,17.326 264.206015,18.124 C264.206015,18.894 263.576015,19.16 262.708015,19.16 C261.434015,19.16 261.112015,18.544 260.916015,17.774 L259.782015,18.082 C260.006015,19.524 261.000015,20.168 262.652015,20.168 C264.402015,20.168 265.466015,19.356 265.466015,17.984 C265.466015,16.374 264.220015,16.108 262.904015,15.828 C261.896015,15.618 261.308015,15.408 261.308015,14.666 C261.308015,14.12 261.644015,13.658 262.694015,13.658 C263.744015,13.658 264.024015,14.162 264.192015,14.988 L265.340015,14.736 C265.116015,13.462 264.416015,12.65 262.708015,12.65 L262.708015,12.65 Z" id="Compound-Subjects,-O-Copy-4" fill="#000000"></path>
                    </g>
                </g>
                <g id="Group-13" transform="translate(22.000000, 80.000000)">
                    <g id="Group-5">
                        <use id="Rectangle-34-Copy" stroke="#CCCCCC" mask="url(#mask-4)" stroke-width="3" fill="#FAFAFA" xlink:href="#path-3"></use>
                        <path d="M12.886,20.168 C14.664,20.168 16.498,19.412 16.848,17.172 L15.686,16.934 C15.364,18.362 14.58,19.062 12.97,19.062 C10.94,19.062 9.764,17.886 9.764,14.974 C9.764,12.188 11.038,10.802 13.138,10.802 C14.804,10.802 15.518,11.628 15.714,13.21 L16.918,13.084 C16.764,10.718 15.28,9.682 13.152,9.682 C10.268,9.682 8.434,11.67 8.434,15.086 C8.434,18.124 9.708,20.168 12.886,20.168 L12.886,20.168 Z M21.426,20.168 C23.848,20.168 24.828,18.628 24.828,16.262 C24.828,14.12 23.89,12.65 21.608,12.65 C19.312,12.65 18.108,14.106 18.108,16.43 C18.108,18.558 18.934,20.168 21.426,20.168 L21.426,20.168 Z M21.496,19.146 C20.096,19.146 19.424,18.278 19.424,16.374 C19.424,14.456 20.278,13.7 21.552,13.7 C22.798,13.7 23.498,14.358 23.498,16.346 C23.498,18.39 22.742,19.146 21.496,19.146 L21.496,19.146 Z M27.922,14.624 C28.3,14.274 29.182,13.77 29.91,13.77 C30.834,13.77 31.03,14.316 31.03,15.282 L31.03,20 L32.304,20 L32.304,15.1 C32.304,14.918 32.29,14.736 32.276,14.568 C32.696,14.218 33.522,13.77 34.208,13.77 C35.132,13.77 35.328,14.316 35.328,15.282 L35.328,20 L36.602,20 L36.602,15.1 C36.602,13.49 36.07,12.65 34.558,12.65 C33.578,12.65 32.766,13.084 32.066,13.644 C31.786,12.972 31.212,12.65 30.26,12.65 C29.28,12.65 28.524,13.07 27.81,13.616 L27.74,12.804 L26.648,12.804 L26.648,20 L27.922,20 L27.922,14.624 Z M38.772,22.968 L40.004,22.968 L40.004,19.468 C40.522,19.86 41.208,20.168 42.076,20.168 C43.686,20.168 45.072,19.048 45.072,16.234 C45.072,13.588 43.952,12.65 42.44,12.65 C41.418,12.65 40.606,13.042 39.948,13.63 L39.878,12.804 L38.772,12.804 L38.772,22.968 Z M40.046,14.624 C40.466,14.204 41.264,13.714 42.062,13.714 C43.21,13.714 43.77,14.414 43.77,16.22 C43.77,17.942 43.266,19.09 41.894,19.09 C41.068,19.09 40.354,18.614 40.046,18.376 L40.046,14.624 Z M49.776,20.168 C52.198,20.168 53.178,18.628 53.178,16.262 C53.178,14.12 52.24,12.65 49.958,12.65 C47.662,12.65 46.458,14.106 46.458,16.43 C46.458,18.558 47.284,20.168 49.776,20.168 L49.776,20.168 Z M49.846,19.146 C48.446,19.146 47.774,18.278 47.774,16.374 C47.774,14.456 48.628,13.7 49.902,13.7 C51.148,13.7 51.848,14.358 51.848,16.346 C51.848,18.39 51.092,19.146 49.846,19.146 L49.846,19.146 Z M54.97,17.69 C54.97,19.3 55.642,20.14 57.168,20.14 C58.162,20.14 59.016,19.748 59.716,19.174 L59.8,20 L60.906,20 L60.906,12.804 L59.632,12.804 L59.632,18.152 C59.254,18.502 58.372,19.034 57.546,19.034 C56.482,19.034 56.244,18.488 56.244,17.494 L56.244,12.804 L54.97,12.804 L54.97,17.69 Z M69.124,15.114 C69.124,13.49 68.452,12.65 66.912,12.65 C65.918,12.65 65.022,13.098 64.322,13.658 L64.252,12.804 L63.132,12.804 L63.132,20 L64.406,20 L64.406,14.638 C64.784,14.302 65.68,13.77 66.506,13.77 C67.486,13.77 67.85,14.316 67.85,15.31 L67.85,20 L69.124,20 L69.124,15.114 Z M77.146,9.43 L75.9,9.43 L75.9,13.322 C75.396,12.916 74.71,12.65 73.884,12.65 C72.288,12.65 70.846,13.672 70.846,16.514 C70.846,19.132 71.952,20.168 73.59,20.168 C74.626,20.168 75.354,19.776 75.97,19.216 L75.984,19.23 L76.082,20 L77.146,20 L77.146,9.43 Z M75.886,18.222 C75.438,18.67 74.71,19.104 73.968,19.104 C72.708,19.104 72.162,18.264 72.162,16.514 C72.162,14.848 72.666,13.742 74.052,13.742 C74.878,13.742 75.55,14.12 75.886,14.372 L75.886,18.222 Z M85.406,10.774 C86.974,10.774 87.366,11.712 87.52,12.678 L88.724,12.538 C88.514,10.368 87.17,9.682 85.392,9.682 C83.432,9.682 81.976,10.746 81.976,12.482 C81.976,14.568 83.614,15.002 85.112,15.422 C86.358,15.772 87.492,16.108 87.492,17.368 C87.492,18.712 86.33,19.076 85.238,19.076 C83.502,19.076 82.998,18.138 82.76,17.06 L81.528,17.242 C81.794,19.328 83.11,20.168 85.224,20.168 C87.1,20.168 88.808,19.328 88.808,17.186 C88.808,15.226 87.198,14.75 85.714,14.316 C84.454,13.938 83.292,13.588 83.292,12.356 C83.292,11.46 83.852,10.774 85.406,10.774 L85.406,10.774 Z M93.386,20.168 C94.828,20.168 95.948,19.482 96.242,18.082 L95.122,17.83 C94.926,18.642 94.45,19.104 93.428,19.104 C92.28,19.104 91.468,18.53 91.412,16.696 L96.256,16.696 C96.298,16.36 96.312,16.038 96.312,15.758 C96.312,13.98 95.472,12.65 93.456,12.65 C91.608,12.65 90.068,13.784 90.068,16.416 C90.068,18.39 90.838,20.168 93.386,20.168 L93.386,20.168 Z M91.426,15.688 C91.496,14.26 92.42,13.686 93.372,13.686 C94.506,13.686 94.996,14.4 94.996,15.688 L91.426,15.688 Z M104.152,15.114 C104.152,13.49 103.48,12.65 101.94,12.65 C100.946,12.65 100.05,13.098 99.35,13.658 L99.28,12.804 L98.16,12.804 L98.16,20 L99.434,20 L99.434,14.638 C99.812,14.302 100.708,13.77 101.534,13.77 C102.514,13.77 102.878,14.316 102.878,15.31 L102.878,20 L104.152,20 L104.152,15.114 Z M110.102,18.768 C109.794,18.936 109.276,19.118 108.842,19.118 C107.974,19.118 107.806,18.698 107.806,17.942 L107.806,13.826 L109.794,13.826 L109.794,12.804 L107.806,12.804 L107.806,10.522 L106.532,10.718 L106.532,12.804 L105.426,12.804 L105.426,13.826 L106.532,13.826 L106.532,18.11 C106.532,19.552 107.218,20.168 108.562,20.168 C109.234,20.168 109.976,19.93 110.326,19.692 L110.102,18.768 Z M114.484,20.168 C115.926,20.168 117.046,19.482 117.34,18.082 L116.22,17.83 C116.024,18.642 115.548,19.104 114.526,19.104 C113.378,19.104 112.566,18.53 112.51,16.696 L117.354,16.696 C117.396,16.36 117.41,16.038 117.41,15.758 C117.41,13.98 116.57,12.65 114.554,12.65 C112.706,12.65 111.166,13.784 111.166,16.416 C111.166,18.39 111.936,20.168 114.484,20.168 L114.484,20.168 Z M112.524,15.688 C112.594,14.26 113.518,13.686 114.47,13.686 C115.604,13.686 116.094,14.4 116.094,15.688 L112.524,15.688 Z M125.25,15.114 C125.25,13.49 124.578,12.65 123.038,12.65 C122.044,12.65 121.148,13.098 120.448,13.658 L120.378,12.804 L119.258,12.804 L119.258,20 L120.532,20 L120.532,14.638 C120.91,14.302 121.806,13.77 122.632,13.77 C123.612,13.77 123.976,14.316 123.976,15.31 L123.976,20 L125.25,20 L125.25,15.114 Z M130.262,20.168 C131.704,20.168 132.978,19.468 133.216,17.802 L132.096,17.564 C131.914,18.628 131.284,19.104 130.304,19.104 C129.156,19.104 128.288,18.46 128.288,16.318 C128.288,14.274 129.31,13.714 130.346,13.714 C131.354,13.714 131.844,14.26 131.956,15.324 L133.174,15.156 C133.076,13.49 132.012,12.65 130.402,12.65 C128.246,12.65 126.958,13.966 126.958,16.472 C126.958,18.628 127.882,20.168 130.262,20.168 L130.262,20.168 Z M137.808,20.168 C139.25,20.168 140.37,19.482 140.664,18.082 L139.544,17.83 C139.348,18.642 138.872,19.104 137.85,19.104 C136.702,19.104 135.89,18.53 135.834,16.696 L140.678,16.696 C140.72,16.36 140.734,16.038 140.734,15.758 C140.734,13.98 139.894,12.65 137.878,12.65 C136.03,12.65 134.49,13.784 134.49,16.416 C134.49,18.39 135.26,20.168 137.808,20.168 L137.808,20.168 Z M135.848,15.688 C135.918,14.26 136.842,13.686 137.794,13.686 C138.928,13.686 139.418,14.4 139.418,15.688 L135.848,15.688 Z M144.92,12.65 C143.464,12.65 142.26,13.364 142.26,14.82 C142.26,16.5 143.674,16.752 144.85,16.99 C145.83,17.186 146.418,17.326 146.418,18.124 C146.418,18.894 145.788,19.16 144.92,19.16 C143.646,19.16 143.324,18.544 143.128,17.774 L141.994,18.082 C142.218,19.524 143.212,20.168 144.864,20.168 C146.614,20.168 147.678,19.356 147.678,17.984 C147.678,16.374 146.432,16.108 145.116,15.828 C144.108,15.618 143.52,15.408 143.52,14.666 C143.52,14.12 143.856,13.658 144.906,13.658 C145.956,13.658 146.236,14.162 146.404,14.988 L147.552,14.736 C147.328,13.462 146.628,12.65 144.92,12.65 L144.92,12.65 Z" id="Compound-Sentences" fill="#000000"></path>
                    </g>
                    <g id="Group-9" transform="translate(166.000000, 0.000000)">
                        <use id="Rectangle-34-Copy" stroke="#CCCCCC" mask="url(#mask-6)" stroke-width="3" fill="#FAFAFA" xlink:href="#path-5"></use>
                        <path d="M13.603,20.168 C15.381,20.168 17.215,19.412 17.565,17.172 L16.403,16.934 C16.081,18.362 15.297,19.062 13.687,19.062 C11.657,19.062 10.481,17.886 10.481,14.974 C10.481,12.188 11.755,10.802 13.855,10.802 C15.521,10.802 16.235,11.628 16.431,13.21 L17.635,13.084 C17.481,10.718 15.997,9.682 13.869,9.682 C10.985,9.682 9.151,11.67 9.151,15.086 C9.151,18.124 10.425,20.168 13.603,20.168 L13.603,20.168 Z M22.143,20.168 C24.565,20.168 25.545,18.628 25.545,16.262 C25.545,14.12 24.607,12.65 22.325,12.65 C20.029,12.65 18.825,14.106 18.825,16.43 C18.825,18.558 19.651,20.168 22.143,20.168 L22.143,20.168 Z M22.213,19.146 C20.813,19.146 20.141,18.278 20.141,16.374 C20.141,14.456 20.995,13.7 22.269,13.7 C23.515,13.7 24.215,14.358 24.215,16.346 C24.215,18.39 23.459,19.146 22.213,19.146 L22.213,19.146 Z M28.639,14.624 C29.017,14.274 29.899,13.77 30.627,13.77 C31.551,13.77 31.747,14.316 31.747,15.282 L31.747,20 L33.021,20 L33.021,15.1 C33.021,14.918 33.007,14.736 32.993,14.568 C33.413,14.218 34.239,13.77 34.925,13.77 C35.849,13.77 36.045,14.316 36.045,15.282 L36.045,20 L37.319,20 L37.319,15.1 C37.319,13.49 36.787,12.65 35.275,12.65 C34.295,12.65 33.483,13.084 32.783,13.644 C32.503,12.972 31.929,12.65 30.977,12.65 C29.997,12.65 29.241,13.07 28.527,13.616 L28.457,12.804 L27.365,12.804 L27.365,20 L28.639,20 L28.639,14.624 Z M39.489,22.968 L40.721,22.968 L40.721,19.468 C41.239,19.86 41.925,20.168 42.793,20.168 C44.403,20.168 45.789,19.048 45.789,16.234 C45.789,13.588 44.669,12.65 43.157,12.65 C42.135,12.65 41.323,13.042 40.665,13.63 L40.595,12.804 L39.489,12.804 L39.489,22.968 Z M40.763,14.624 C41.183,14.204 41.981,13.714 42.779,13.714 C43.927,13.714 44.487,14.414 44.487,16.22 C44.487,17.942 43.983,19.09 42.611,19.09 C41.785,19.09 41.071,18.614 40.763,18.376 L40.763,14.624 Z M48.897,9.43 L47.623,9.43 L47.623,20 L48.897,20 L48.897,9.43 Z M53.979,20.168 C55.421,20.168 56.541,19.482 56.835,18.082 L55.715,17.83 C55.519,18.642 55.043,19.104 54.021,19.104 C52.873,19.104 52.061,18.53 52.005,16.696 L56.849,16.696 C56.891,16.36 56.905,16.038 56.905,15.758 C56.905,13.98 56.065,12.65 54.049,12.65 C52.201,12.65 50.661,13.784 50.661,16.416 C50.661,18.39 51.431,20.168 53.979,20.168 L53.979,20.168 Z M52.019,15.688 C52.089,14.26 53.013,13.686 53.965,13.686 C55.099,13.686 55.589,14.4 55.589,15.688 L52.019,15.688 Z M64.157,12.804 L62.855,12.804 L61.035,15.422 L59.271,12.804 L57.871,12.804 L60.279,16.29 L57.857,20 L59.159,20 L60.979,17.172 L62.897,20 L64.283,20 L61.735,16.262 L64.157,12.804 Z M71.689,10.774 C73.257,10.774 73.649,11.712 73.803,12.678 L75.007,12.538 C74.797,10.368 73.453,9.682 71.675,9.682 C69.715,9.682 68.259,10.746 68.259,12.482 C68.259,14.568 69.897,15.002 71.395,15.422 C72.641,15.772 73.775,16.108 73.775,17.368 C73.775,18.712 72.613,19.076 71.521,19.076 C69.785,19.076 69.281,18.138 69.043,17.06 L67.811,17.242 C68.077,19.328 69.393,20.168 71.507,20.168 C73.383,20.168 75.091,19.328 75.091,17.186 C75.091,15.226 73.481,14.75 71.997,14.316 C70.737,13.938 69.575,13.588 69.575,12.356 C69.575,11.46 70.135,10.774 71.689,10.774 L71.689,10.774 Z M79.669,20.168 C81.111,20.168 82.231,19.482 82.525,18.082 L81.405,17.83 C81.209,18.642 80.733,19.104 79.711,19.104 C78.563,19.104 77.751,18.53 77.695,16.696 L82.539,16.696 C82.581,16.36 82.595,16.038 82.595,15.758 C82.595,13.98 81.755,12.65 79.739,12.65 C77.891,12.65 76.351,13.784 76.351,16.416 C76.351,18.39 77.121,20.168 79.669,20.168 L79.669,20.168 Z M77.709,15.688 C77.779,14.26 78.703,13.686 79.655,13.686 C80.789,13.686 81.279,14.4 81.279,15.688 L77.709,15.688 Z M90.435,15.114 C90.435,13.49 89.763,12.65 88.223,12.65 C87.229,12.65 86.333,13.098 85.633,13.658 L85.563,12.804 L84.443,12.804 L84.443,20 L85.717,20 L85.717,14.638 C86.095,14.302 86.991,13.77 87.817,13.77 C88.797,13.77 89.161,14.316 89.161,15.31 L89.161,20 L90.435,20 L90.435,15.114 Z M96.385,18.768 C96.077,18.936 95.559,19.118 95.125,19.118 C94.257,19.118 94.089,18.698 94.089,17.942 L94.089,13.826 L96.077,13.826 L96.077,12.804 L94.089,12.804 L94.089,10.522 L92.815,10.718 L92.815,12.804 L91.709,12.804 L91.709,13.826 L92.815,13.826 L92.815,18.11 C92.815,19.552 93.501,20.168 94.845,20.168 C95.517,20.168 96.259,19.93 96.609,19.692 L96.385,18.768 Z M100.767,20.168 C102.209,20.168 103.329,19.482 103.623,18.082 L102.503,17.83 C102.307,18.642 101.831,19.104 100.809,19.104 C99.661,19.104 98.849,18.53 98.793,16.696 L103.637,16.696 C103.679,16.36 103.693,16.038 103.693,15.758 C103.693,13.98 102.853,12.65 100.837,12.65 C98.989,12.65 97.449,13.784 97.449,16.416 C97.449,18.39 98.219,20.168 100.767,20.168 L100.767,20.168 Z M98.807,15.688 C98.877,14.26 99.801,13.686 100.753,13.686 C101.887,13.686 102.377,14.4 102.377,15.688 L98.807,15.688 Z M111.533,15.114 C111.533,13.49 110.861,12.65 109.321,12.65 C108.327,12.65 107.431,13.098 106.731,13.658 L106.661,12.804 L105.541,12.804 L105.541,20 L106.815,20 L106.815,14.638 C107.193,14.302 108.089,13.77 108.915,13.77 C109.895,13.77 110.259,14.316 110.259,15.31 L110.259,20 L111.533,20 L111.533,15.114 Z M116.545,20.168 C117.987,20.168 119.261,19.468 119.499,17.802 L118.379,17.564 C118.197,18.628 117.567,19.104 116.587,19.104 C115.439,19.104 114.571,18.46 114.571,16.318 C114.571,14.274 115.593,13.714 116.629,13.714 C117.637,13.714 118.127,14.26 118.239,15.324 L119.457,15.156 C119.359,13.49 118.295,12.65 116.685,12.65 C114.529,12.65 113.241,13.966 113.241,16.472 C113.241,18.628 114.165,20.168 116.545,20.168 L116.545,20.168 Z M124.091,20.168 C125.533,20.168 126.653,19.482 126.947,18.082 L125.827,17.83 C125.631,18.642 125.155,19.104 124.133,19.104 C122.985,19.104 122.173,18.53 122.117,16.696 L126.961,16.696 C127.003,16.36 127.017,16.038 127.017,15.758 C127.017,13.98 126.177,12.65 124.161,12.65 C122.313,12.65 120.773,13.784 120.773,16.416 C120.773,18.39 121.543,20.168 124.091,20.168 L124.091,20.168 Z M122.131,15.688 C122.201,14.26 123.125,13.686 124.077,13.686 C125.211,13.686 125.701,14.4 125.701,15.688 L122.131,15.688 Z M131.203,12.65 C129.747,12.65 128.543,13.364 128.543,14.82 C128.543,16.5 129.957,16.752 131.133,16.99 C132.113,17.186 132.701,17.326 132.701,18.124 C132.701,18.894 132.071,19.16 131.203,19.16 C129.929,19.16 129.607,18.544 129.411,17.774 L128.277,18.082 C128.501,19.524 129.495,20.168 131.147,20.168 C132.897,20.168 133.961,19.356 133.961,17.984 C133.961,16.374 132.715,16.108 131.399,15.828 C130.391,15.618 129.803,15.408 129.803,14.666 C129.803,14.12 130.139,13.658 131.189,13.658 C132.239,13.658 132.519,14.162 132.687,14.988 L133.835,14.736 C133.611,13.462 132.911,12.65 131.203,12.65 L131.203,12.65 Z" id="Complex-Sentences" fill="#000000"></path>
                    </g>
                </g>
                <g id="Group-14" transform="translate(0.000000, 120.000000)">
                    <g id="Group-4" transform="translate(225.000000, 0.000000)">
                        <use id="Rectangle-34-Copy" stroke="#CCCCCC" mask="url(#mask-8)" stroke-width="3" fill="#FAFAFA" xlink:href="#path-7"></use>
                        <path d="M10.874,16.318 L12.414,16.318 C14.85,16.318 16.278,15.31 16.278,12.902 C16.278,11.292 15.494,9.864 12.904,9.864 L9.6,9.864 L9.6,20 L10.874,20 L10.874,16.318 Z M10.874,15.212 L10.874,10.956 L12.526,10.956 C14.15,10.956 14.948,11.516 14.948,12.972 C14.948,14.862 13.786,15.212 12.316,15.212 L10.874,15.212 Z M23.278,15.128 C23.278,13.336 22.48,12.65 20.702,12.65 C19.036,12.65 18.168,13.28 17.944,14.624 L19.064,14.834 C19.218,14.036 19.596,13.644 20.59,13.644 C21.766,13.644 22.018,14.204 22.018,15.114 L22.018,15.814 C21.822,15.8 21.612,15.786 21.388,15.786 C19.358,15.786 17.664,16.318 17.664,18.236 C17.664,18.936 17.972,20.168 19.792,20.168 C20.8,20.168 21.542,19.846 22.102,19.286 C22.172,19.748 22.494,20.14 23.208,20.14 C23.558,20.14 23.922,20.056 24.202,19.916 L24.146,19.118 C23.964,19.174 23.838,19.202 23.712,19.202 C23.348,19.202 23.278,19.034 23.278,18.642 L23.278,15.128 Z M22.032,18.362 C21.64,18.782 20.926,19.174 20.184,19.174 C19.204,19.174 18.98,18.642 18.98,18.026 C18.98,16.794 20.31,16.696 21.304,16.696 C21.57,16.696 21.836,16.71 22.032,16.738 L22.032,18.362 Z M29.466,12.664 C29.382,12.664 29.284,12.65 29.2,12.65 C28.192,12.65 27.436,12.986 26.806,13.84 L26.708,12.804 L25.644,12.804 L25.644,20 L26.918,20 L26.918,14.764 C27.506,14.218 28.57,13.854 29.466,13.98 L29.466,12.664 Z M36.004,15.128 C36.004,13.336 35.206,12.65 33.428,12.65 C31.762,12.65 30.894,13.28 30.67,14.624 L31.79,14.834 C31.944,14.036 32.322,13.644 33.316,13.644 C34.492,13.644 34.744,14.204 34.744,15.114 L34.744,15.814 C34.548,15.8 34.338,15.786 34.114,15.786 C32.084,15.786 30.39,16.318 30.39,18.236 C30.39,18.936 30.698,20.168 32.518,20.168 C33.526,20.168 34.268,19.846 34.828,19.286 C34.898,19.748 35.22,20.14 35.934,20.14 C36.284,20.14 36.648,20.056 36.928,19.916 L36.872,19.118 C36.69,19.174 36.564,19.202 36.438,19.202 C36.074,19.202 36.004,19.034 36.004,18.642 L36.004,15.128 Z M34.758,18.362 C34.366,18.782 33.652,19.174 32.91,19.174 C31.93,19.174 31.706,18.642 31.706,18.026 C31.706,16.794 33.036,16.696 34.03,16.696 C34.296,16.696 34.562,16.71 34.758,16.738 L34.758,18.362 Z M39.644,9.43 L38.37,9.43 L38.37,20 L39.644,20 L39.644,9.43 Z M43.13,9.43 L41.856,9.43 L41.856,20 L43.13,20 L43.13,9.43 Z M48.212,20.168 C49.654,20.168 50.774,19.482 51.068,18.082 L49.948,17.83 C49.752,18.642 49.276,19.104 48.254,19.104 C47.106,19.104 46.294,18.53 46.238,16.696 L51.082,16.696 C51.124,16.36 51.138,16.038 51.138,15.758 C51.138,13.98 50.298,12.65 48.282,12.65 C46.434,12.65 44.894,13.784 44.894,16.416 C44.894,18.39 45.664,20.168 48.212,20.168 L48.212,20.168 Z M46.252,15.688 C46.322,14.26 47.246,13.686 48.198,13.686 C49.332,13.686 49.822,14.4 49.822,15.688 L46.252,15.688 Z M54.26,9.43 L52.986,9.43 L52.986,20 L54.26,20 L54.26,9.43 Z M62.52,10.774 C64.088,10.774 64.48,11.712 64.634,12.678 L65.838,12.538 C65.628,10.368 64.284,9.682 62.506,9.682 C60.546,9.682 59.09,10.746 59.09,12.482 C59.09,14.568 60.728,15.002 62.226,15.422 C63.472,15.772 64.606,16.108 64.606,17.368 C64.606,18.712 63.444,19.076 62.352,19.076 C60.616,19.076 60.112,18.138 59.874,17.06 L58.642,17.242 C58.908,19.328 60.224,20.168 62.338,20.168 C64.214,20.168 65.922,19.328 65.922,17.186 C65.922,15.226 64.312,14.75 62.828,14.316 C61.568,13.938 60.406,13.588 60.406,12.356 C60.406,11.46 60.966,10.774 62.52,10.774 L62.52,10.774 Z M71.424,18.768 C71.116,18.936 70.598,19.118 70.164,19.118 C69.296,19.118 69.128,18.698 69.128,17.942 L69.128,13.826 L71.116,13.826 L71.116,12.804 L69.128,12.804 L69.128,10.522 L67.854,10.718 L67.854,12.804 L66.748,12.804 L66.748,13.826 L67.854,13.826 L67.854,18.11 C67.854,19.552 68.54,20.168 69.884,20.168 C70.556,20.168 71.298,19.93 71.648,19.692 L71.424,18.768 Z M76.758,12.664 C76.674,12.664 76.576,12.65 76.492,12.65 C75.484,12.65 74.728,12.986 74.098,13.84 L74,12.804 L72.936,12.804 L72.936,20 L74.21,20 L74.21,14.764 C74.798,14.218 75.862,13.854 76.758,13.98 L76.758,12.664 Z M78.004,17.69 C78.004,19.3 78.676,20.14 80.202,20.14 C81.196,20.14 82.05,19.748 82.75,19.174 L82.834,20 L83.94,20 L83.94,12.804 L82.666,12.804 L82.666,18.152 C82.288,18.502 81.406,19.034 80.58,19.034 C79.516,19.034 79.278,18.488 79.278,17.494 L79.278,12.804 L78.004,12.804 L78.004,17.69 Z M89.022,20.168 C90.464,20.168 91.738,19.468 91.976,17.802 L90.856,17.564 C90.674,18.628 90.044,19.104 89.064,19.104 C87.916,19.104 87.048,18.46 87.048,16.318 C87.048,14.274 88.07,13.714 89.106,13.714 C90.114,13.714 90.604,14.26 90.716,15.324 L91.934,15.156 C91.836,13.49 90.772,12.65 89.162,12.65 C87.006,12.65 85.718,13.966 85.718,16.472 C85.718,18.628 86.642,20.168 89.022,20.168 L89.022,20.168 Z M97.492,18.768 C97.184,18.936 96.666,19.118 96.232,19.118 C95.364,19.118 95.196,18.698 95.196,17.942 L95.196,13.826 L97.184,13.826 L97.184,12.804 L95.196,12.804 L95.196,10.522 L93.922,10.718 L93.922,12.804 L92.816,12.804 L92.816,13.826 L93.922,13.826 L93.922,18.11 C93.922,19.552 94.608,20.168 95.952,20.168 C96.624,20.168 97.366,19.93 97.716,19.692 L97.492,18.768 Z M98.976,17.69 C98.976,19.3 99.648,20.14 101.174,20.14 C102.168,20.14 103.022,19.748 103.722,19.174 L103.806,20 L104.912,20 L104.912,12.804 L103.638,12.804 L103.638,18.152 C103.26,18.502 102.378,19.034 101.552,19.034 C100.488,19.034 100.25,18.488 100.25,17.494 L100.25,12.804 L98.976,12.804 L98.976,17.69 Z M110.96,12.664 C110.876,12.664 110.778,12.65 110.694,12.65 C109.686,12.65 108.93,12.986 108.3,13.84 L108.202,12.804 L107.138,12.804 L107.138,20 L108.412,20 L108.412,14.764 C109,14.218 110.064,13.854 110.96,13.98 L110.96,12.664 Z M115.104,20.168 C116.546,20.168 117.666,19.482 117.96,18.082 L116.84,17.83 C116.644,18.642 116.168,19.104 115.146,19.104 C113.998,19.104 113.186,18.53 113.13,16.696 L117.974,16.696 C118.016,16.36 118.03,16.038 118.03,15.758 C118.03,13.98 117.19,12.65 115.174,12.65 C113.326,12.65 111.786,13.784 111.786,16.416 C111.786,18.39 112.556,20.168 115.104,20.168 L115.104,20.168 Z M113.144,15.688 C113.214,14.26 114.138,13.686 115.09,13.686 C116.224,13.686 116.714,14.4 116.714,15.688 L113.144,15.688 Z" id="Parallel-Structure" fill="#000000"></path>
                    </g>
                    <g id="Group-8">
                        <use id="Rectangle-34-Copy" stroke="#CCCCCC" mask="url(#mask-10)" stroke-width="3" fill="#FAFAFA" xlink:href="#path-9"></use>
                        <path d="M11.6841433,9.864 L8.26814334,20 L9.57014334,20 L10.5641433,16.99 L14.4561433,16.99 L15.4781433,20 L16.8921433,20 L13.3641433,9.864 L11.6841433,9.864 Z M14.1341433,15.884 L10.8721433,15.884 L12.4961433,11.04 L12.5101433,11.04 L14.1341433,15.884 Z M18.5161433,22.968 L19.7481433,22.968 L19.7481433,19.468 C20.2661433,19.86 20.9521433,20.168 21.8201433,20.168 C23.4301433,20.168 24.8161433,19.048 24.8161433,16.234 C24.8161433,13.588 23.6961433,12.65 22.1841433,12.65 C21.1621433,12.65 20.3501433,13.042 19.6921433,13.63 L19.6221433,12.804 L18.5161433,12.804 L18.5161433,22.968 Z M19.7901433,14.624 C20.2101433,14.204 21.0081433,13.714 21.8061433,13.714 C22.9541433,13.714 23.5141433,14.414 23.5141433,16.22 C23.5141433,17.942 23.0101433,19.09 21.6381433,19.09 C20.8121433,19.09 20.0981433,18.614 19.7901433,18.376 L19.7901433,14.624 Z M26.6501433,22.968 L27.8821433,22.968 L27.8821433,19.468 C28.4001433,19.86 29.0861433,20.168 29.9541433,20.168 C31.5641433,20.168 32.9501433,19.048 32.9501433,16.234 C32.9501433,13.588 31.8301433,12.65 30.3181433,12.65 C29.2961433,12.65 28.4841433,13.042 27.8261433,13.63 L27.7561433,12.804 L26.6501433,12.804 L26.6501433,22.968 Z M27.9241433,14.624 C28.3441433,14.204 29.1421433,13.714 29.9401433,13.714 C31.0881433,13.714 31.6481433,14.414 31.6481433,16.22 C31.6481433,17.942 31.1441433,19.09 29.7721433,19.09 C28.9461433,19.09 28.2321433,18.614 27.9241433,18.376 L27.9241433,14.624 Z M37.6541433,20.168 C40.0761433,20.168 41.0561433,18.628 41.0561433,16.262 C41.0561433,14.12 40.1181433,12.65 37.8361433,12.65 C35.5401433,12.65 34.3361433,14.106 34.3361433,16.43 C34.3361433,18.558 35.1621433,20.168 37.6541433,20.168 L37.6541433,20.168 Z M37.7241433,19.146 C36.3241433,19.146 35.6521433,18.278 35.6521433,16.374 C35.6521433,14.456 36.5061433,13.7 37.7801433,13.7 C39.0261433,13.7 39.7261433,14.358 39.7261433,16.346 C39.7261433,18.39 38.9701433,19.146 37.7241433,19.146 L37.7241433,19.146 Z M45.2141433,12.65 C43.7581433,12.65 42.5541433,13.364 42.5541433,14.82 C42.5541433,16.5 43.9681433,16.752 45.1441433,16.99 C46.1241433,17.186 46.7121433,17.326 46.7121433,18.124 C46.7121433,18.894 46.0821433,19.16 45.2141433,19.16 C43.9401433,19.16 43.6181433,18.544 43.4221433,17.774 L42.2881433,18.082 C42.5121433,19.524 43.5061433,20.168 45.1581433,20.168 C46.9081433,20.168 47.9721433,19.356 47.9721433,17.984 C47.9721433,16.374 46.7261433,16.108 45.4101433,15.828 C44.4021433,15.618 43.8141433,15.408 43.8141433,14.666 C43.8141433,14.12 44.1501433,13.658 45.2001433,13.658 C46.2501433,13.658 46.5301433,14.162 46.6981433,14.988 L47.8461433,14.736 C47.6221433,13.462 46.9221433,12.65 45.2141433,12.65 L45.2141433,12.65 Z M50.9681433,12.804 L49.6941433,12.804 L49.6941433,20 L50.9681433,20 L50.9681433,12.804 Z M51.2621433,10.494 C51.2621433,9.906 50.9261433,9.584 50.3521433,9.584 C49.7781433,9.584 49.4561433,9.906 49.4561433,10.494 C49.4561433,11.082 49.7781433,11.418 50.3521433,11.418 C50.9261433,11.418 51.2621433,11.082 51.2621433,10.494 L51.2621433,10.494 Z M56.9741433,18.768 C56.6661433,18.936 56.1481433,19.118 55.7141433,19.118 C54.8461433,19.118 54.6781433,18.698 54.6781433,17.942 L54.6781433,13.826 L56.6661433,13.826 L56.6661433,12.804 L54.6781433,12.804 L54.6781433,10.522 L53.4041433,10.718 L53.4041433,12.804 L52.2981433,12.804 L52.2981433,13.826 L53.4041433,13.826 L53.4041433,18.11 C53.4041433,19.552 54.0901433,20.168 55.4341433,20.168 C56.1061433,20.168 56.8481433,19.93 57.1981433,19.692 L56.9741433,18.768 Z M59.7601433,12.804 L58.4861433,12.804 L58.4861433,20 L59.7601433,20 L59.7601433,12.804 Z M60.0541433,10.494 C60.0541433,9.906 59.7181433,9.584 59.1441433,9.584 C58.5701433,9.584 58.2481433,9.906 58.2481433,10.494 C58.2481433,11.082 58.5701433,11.418 59.1441433,11.418 C59.7181433,11.418 60.0541433,11.082 60.0541433,10.494 L60.0541433,10.494 Z M65.1221433,20 L67.8241433,12.804 L66.5221433,12.804 L64.4361433,18.726 L64.4221433,18.726 L62.3081433,12.804 L60.9221433,12.804 L63.6661433,20 L65.1221433,20 Z M71.9121433,20.168 C73.3541433,20.168 74.4741433,19.482 74.7681433,18.082 L73.6481433,17.83 C73.4521433,18.642 72.9761433,19.104 71.9541433,19.104 C70.8061433,19.104 69.9941433,18.53 69.9381433,16.696 L74.7821433,16.696 C74.8241433,16.36 74.8381433,16.038 74.8381433,15.758 C74.8381433,13.98 73.9981433,12.65 71.9821433,12.65 C70.1341433,12.65 68.5941433,13.784 68.5941433,16.416 C68.5941433,18.39 69.3641433,20.168 71.9121433,20.168 L71.9121433,20.168 Z M69.9521433,15.688 C70.0221433,14.26 70.9461433,13.686 71.8981433,13.686 C73.0321433,13.686 73.5221433,14.4 73.5221433,15.688 L69.9521433,15.688 Z M85.3521433,12.146 C85.3521433,10.592 84.1901433,10.228 83.2381433,10.228 C81.7401433,10.228 80.6761433,11.236 80.6761433,12.58 C80.6761433,13.294 80.8581433,13.924 81.2221433,14.596 C80.0041433,15.226 79.3321433,16.038 79.3321433,17.396 C79.3321433,19.006 80.5781433,20.168 82.4961433,20.168 C83.6301433,20.168 84.4841433,19.874 85.0861433,19.412 C85.6881433,19.86 86.2621433,20.154 87.0321433,20.154 C87.3401433,20.154 87.7461433,20.084 88.0401433,19.916 L87.8161433,18.964 C87.5921433,19.062 87.3821433,19.104 87.1721433,19.104 C86.7381433,19.104 86.3321433,18.908 85.9261433,18.6 C86.6681433,17.648 86.9481433,16.402 86.9621433,15.198 L85.8281433,15.198 C85.8001433,16.262 85.6041433,17.214 85.1141433,17.9 C84.7501433,17.508 84.3581433,17.046 83.9241433,16.5 C83.4481433,15.912 83.0561433,15.366 82.7481433,14.862 L83.2521433,14.638 C84.9181433,13.924 85.3521433,12.972 85.3521433,12.146 L85.3521433,12.146 Z M82.6781433,19.146 C81.2641433,19.146 80.6061433,18.236 80.6061433,17.27 C80.6061433,16.304 81.0401433,15.786 81.6561433,15.408 C81.9501433,15.884 82.2861433,16.346 82.6781433,16.864 C83.1121433,17.452 83.6721433,18.138 84.2881433,18.726 C83.8681433,18.992 83.3361433,19.146 82.6781433,19.146 L82.6781433,19.146 Z M81.9221433,12.44 C81.9221433,11.642 82.4541433,11.222 83.1681433,11.222 C83.8821433,11.222 84.2321433,11.656 84.2321433,12.202 C84.2321433,12.902 83.8121433,13.434 82.8321433,13.868 C82.8181433,13.868 82.3561433,14.064 82.3421433,14.064 C82.0621433,13.49 81.9221433,12.972 81.9221433,12.44 L81.9221433,12.44 Z M102.544143,9.864 L100.612143,9.864 L97.6301433,18.488 L97.6161433,18.488 L94.6341433,9.864 L92.6741433,9.864 L92.6741433,20 L93.8641433,20 L93.8641433,11.236 L93.8921433,11.236 L96.9021433,20 L98.2461433,20 L101.312143,11.25 L101.326143,11.25 L101.326143,20 L102.544143,20 L102.544143,9.864 Z M107.892143,20.168 C110.314143,20.168 111.294143,18.628 111.294143,16.262 C111.294143,14.12 110.356143,12.65 108.074143,12.65 C105.778143,12.65 104.574143,14.106 104.574143,16.43 C104.574143,18.558 105.400143,20.168 107.892143,20.168 L107.892143,20.168 Z M107.962143,19.146 C106.562143,19.146 105.890143,18.278 105.890143,16.374 C105.890143,14.456 106.744143,13.7 108.018143,13.7 C109.264143,13.7 109.964143,14.358 109.964143,16.346 C109.964143,18.39 109.208143,19.146 107.962143,19.146 L107.962143,19.146 Z M118.980143,9.43 L117.734143,9.43 L117.734143,13.322 C117.230143,12.916 116.544143,12.65 115.718143,12.65 C114.122143,12.65 112.680143,13.672 112.680143,16.514 C112.680143,19.132 113.786143,20.168 115.424143,20.168 C116.460143,20.168 117.188143,19.776 117.804143,19.216 L117.818143,19.23 L117.916143,20 L118.980143,20 L118.980143,9.43 Z M117.720143,18.222 C117.272143,18.67 116.544143,19.104 115.802143,19.104 C114.542143,19.104 113.996143,18.264 113.996143,16.514 C113.996143,14.848 114.500143,13.742 115.886143,13.742 C116.712143,13.742 117.384143,14.12 117.720143,14.372 L117.720143,18.222 Z M122.466143,12.804 L121.192143,12.804 L121.192143,20 L122.466143,20 L122.466143,12.804 Z M122.760143,10.494 C122.760143,9.906 122.424143,9.584 121.850143,9.584 C121.276143,9.584 120.954143,9.906 120.954143,10.494 C120.954143,11.082 121.276143,11.418 121.850143,11.418 C122.424143,11.418 122.760143,11.082 122.760143,10.494 L122.760143,10.494 Z M128.290143,9.528 C128.052143,9.416 127.562143,9.29 126.974143,9.29 C125.602143,9.29 124.832143,10.06 124.832143,11.642 L124.832143,12.804 L123.768143,12.804 L123.768143,13.826 L124.832143,13.826 L124.832143,20 L126.106143,20 L126.106143,13.826 L128.108143,13.826 L128.108143,12.804 L126.106143,12.804 L126.106143,11.6 C126.106143,10.592 126.568143,10.326 127.226143,10.326 C127.562143,10.326 127.954143,10.41 128.234143,10.508 L128.290143,9.528 Z M130.908143,20.084 L130.572143,20.966 C130.250143,21.82 129.802143,22.086 129.284143,22.086 C128.906143,22.086 128.402143,21.96 128.136143,21.862 L127.982143,22.856 C128.262143,22.982 128.836143,23.122 129.368143,23.122 C130.502143,23.122 131.160143,22.576 131.734143,21.05 L134.842143,12.804 L133.540143,12.804 L131.566143,18.516 L131.552143,18.516 L129.648143,12.804 L128.234143,12.804 L130.908143,20.084 Z M137.320143,12.804 L136.046143,12.804 L136.046143,20 L137.320143,20 L137.320143,12.804 Z M137.614143,10.494 C137.614143,9.906 137.278143,9.584 136.704143,9.584 C136.130143,9.584 135.808143,9.906 135.808143,10.494 C135.808143,11.082 136.130143,11.418 136.704143,11.418 C137.278143,11.418 137.614143,11.082 137.614143,10.494 L137.614143,10.494 Z M145.524143,15.114 C145.524143,13.49 144.852143,12.65 143.312143,12.65 C142.318143,12.65 141.422143,13.098 140.722143,13.658 L140.652143,12.804 L139.532143,12.804 L139.532143,20 L140.806143,20 L140.806143,14.638 C141.184143,14.302 142.080143,13.77 142.906143,13.77 C143.886143,13.77 144.250143,14.316 144.250143,15.31 L144.250143,20 L145.524143,20 L145.524143,15.114 Z M150.312143,12.65 C148.450143,12.65 147.260143,13.714 147.260143,15.296 C147.260143,16.22 147.666143,16.962 148.324143,17.312 C147.820143,17.704 147.372143,18.11 147.372143,18.726 C147.372143,19.244 147.666143,19.524 148.156143,19.72 L148.156143,19.734 C147.568143,20.014 146.994143,20.574 146.994143,21.386 C146.994143,22.24 147.540143,23.164 150.228143,23.164 C152.034143,23.164 153.924143,22.632 153.924143,20.868 C153.924143,19.454 153.056143,19.09 151.572143,18.992 L149.570143,18.852 C148.800143,18.796 148.646143,18.586 148.646143,18.306 C148.646143,18.012 148.898143,17.816 149.094143,17.634 C149.458143,17.76 149.906143,17.802 150.382143,17.802 C152.034143,17.802 153.322143,16.85 153.322143,15.226 C153.322143,14.638 153.140143,14.064 152.790143,13.658 C153.154143,13.546 153.728143,13.476 154.162143,13.504 L154.162143,12.482 C153.952143,12.412 153.756143,12.37 153.532143,12.37 C153.000143,12.37 152.622143,12.79 152.398143,13.308 C151.922143,12.832 151.194143,12.65 150.312143,12.65 L150.312143,12.65 Z M152.090143,15.24 C152.090143,16.206 151.376143,16.752 150.326143,16.752 C149.052143,16.752 148.534143,16.15 148.534143,15.212 C148.534143,14.106 149.346143,13.672 150.354143,13.672 C151.432143,13.672 152.090143,14.162 152.090143,15.24 L152.090143,15.24 Z M152.608143,21.022 C152.608143,21.778 151.866143,22.156 150.382143,22.156 C148.758143,22.156 148.268143,21.75 148.268143,21.148 C148.268143,20.672 148.520143,20.378 149.066143,20.014 L151.404143,20.154 C152.384143,20.224 152.608143,20.504 152.608143,21.022 L152.608143,21.022 Z M159.888143,16.318 L161.428143,16.318 C163.864143,16.318 165.292143,15.31 165.292143,12.902 C165.292143,11.292 164.508143,9.864 161.918143,9.864 L158.614143,9.864 L158.614143,20 L159.888143,20 L159.888143,16.318 Z M159.888143,15.212 L159.888143,10.956 L161.540143,10.956 C163.164143,10.956 163.962143,11.516 163.962143,12.972 C163.962143,14.862 162.800143,15.212 161.330143,15.212 L159.888143,15.212 Z M173.020143,15.114 C173.020143,13.49 172.348143,12.65 170.822143,12.65 C169.814143,12.65 168.988143,13.07 168.288143,13.616 L168.288143,9.43 L167.028143,9.43 L167.028143,20 L168.302143,20 L168.302143,14.638 C168.680143,14.302 169.576143,13.77 170.402143,13.77 C171.382143,13.77 171.746143,14.316 171.746143,15.31 L171.746143,20 L173.020143,20 L173.020143,15.114 Z M178.998143,12.664 C178.914143,12.664 178.816143,12.65 178.732143,12.65 C177.724143,12.65 176.968143,12.986 176.338143,13.84 L176.240143,12.804 L175.176143,12.804 L175.176143,20 L176.450143,20 L176.450143,14.764 C177.038143,14.218 178.102143,13.854 178.998143,13.98 L178.998143,12.664 Z M185.536143,15.128 C185.536143,13.336 184.738143,12.65 182.960143,12.65 C181.294143,12.65 180.426143,13.28 180.202143,14.624 L181.322143,14.834 C181.476143,14.036 181.854143,13.644 182.848143,13.644 C184.024143,13.644 184.276143,14.204 184.276143,15.114 L184.276143,15.814 C184.080143,15.8 183.870143,15.786 183.646143,15.786 C181.616143,15.786 179.922143,16.318 179.922143,18.236 C179.922143,18.936 180.230143,20.168 182.050143,20.168 C183.058143,20.168 183.800143,19.846 184.360143,19.286 C184.430143,19.748 184.752143,20.14 185.466143,20.14 C185.816143,20.14 186.180143,20.056 186.460143,19.916 L186.404143,19.118 C186.222143,19.174 186.096143,19.202 185.970143,19.202 C185.606143,19.202 185.536143,19.034 185.536143,18.642 L185.536143,15.128 Z M184.290143,18.362 C183.898143,18.782 183.184143,19.174 182.442143,19.174 C181.462143,19.174 181.238143,18.642 181.238143,18.026 C181.238143,16.794 182.568143,16.696 183.562143,16.696 C183.828143,16.696 184.094143,16.71 184.290143,16.738 L184.290143,18.362 Z M190.240143,12.65 C188.784143,12.65 187.580143,13.364 187.580143,14.82 C187.580143,16.5 188.994143,16.752 190.170143,16.99 C191.150143,17.186 191.738143,17.326 191.738143,18.124 C191.738143,18.894 191.108143,19.16 190.240143,19.16 C188.966143,19.16 188.644143,18.544 188.448143,17.774 L187.314143,18.082 C187.538143,19.524 188.532143,20.168 190.184143,20.168 C191.934143,20.168 192.998143,19.356 192.998143,17.984 C192.998143,16.374 191.752143,16.108 190.436143,15.828 C189.428143,15.618 188.840143,15.408 188.840143,14.666 C188.840143,14.12 189.176143,13.658 190.226143,13.658 C191.276143,13.658 191.556143,14.162 191.724143,14.988 L192.872143,14.736 C192.648143,13.462 191.948143,12.65 190.240143,12.65 L190.240143,12.65 Z M197.590143,20.168 C199.032143,20.168 200.152143,19.482 200.446143,18.082 L199.326143,17.83 C199.130143,18.642 198.654143,19.104 197.632143,19.104 C196.484143,19.104 195.672143,18.53 195.616143,16.696 L200.460143,16.696 C200.502143,16.36 200.516143,16.038 200.516143,15.758 C200.516143,13.98 199.676143,12.65 197.660143,12.65 C195.812143,12.65 194.272143,13.784 194.272143,16.416 C194.272143,18.39 195.042143,20.168 197.590143,20.168 L197.590143,20.168 Z M195.630143,15.688 C195.700143,14.26 196.624143,13.686 197.576143,13.686 C198.710143,13.686 199.200143,14.4 199.200143,15.688 L195.630143,15.688 Z M204.702143,12.65 C203.246143,12.65 202.042143,13.364 202.042143,14.82 C202.042143,16.5 203.456143,16.752 204.632143,16.99 C205.612143,17.186 206.200143,17.326 206.200143,18.124 C206.200143,18.894 205.570143,19.16 204.702143,19.16 C203.428143,19.16 203.106143,18.544 202.910143,17.774 L201.776143,18.082 C202.000143,19.524 202.994143,20.168 204.646143,20.168 C206.396143,20.168 207.460143,19.356 207.460143,17.984 C207.460143,16.374 206.214143,16.108 204.898143,15.828 C203.890143,15.618 203.302143,15.408 203.302143,14.666 C203.302143,14.12 203.638143,13.658 204.688143,13.658 C205.738143,13.658 206.018143,14.162 206.186143,14.988 L207.334143,14.736 C207.110143,13.462 206.410143,12.65 204.702143,12.65 L204.702143,12.65 Z" id="Appositive-&amp;-Modifyi" fill="#000000"></path>
                    </g>
                </g>
                <g id="Group-31" transform="translate(50.000000, 0.000000)">
                    <g id="Group-11">
                        <use id="Rectangle-34-Copy" stroke="#CCCCCC" mask="url(#mask-12)" stroke-width="3" fill="#FAFAFA" xlink:href="#path-11"></use>
                        <path d="M10.8955904,15.618 L15.1795904,15.618 L15.1795904,14.498 L10.8955904,14.498 L10.8955904,10.984 L15.5295904,10.984 L15.5295904,9.864 L9.60759044,9.864 L9.60759044,20 L10.8955904,20 L10.8955904,15.618 Z M20.8775904,12.664 C20.7935904,12.664 20.6955904,12.65 20.6115904,12.65 C19.6035904,12.65 18.8475904,12.986 18.2175904,13.84 L18.1195904,12.804 L17.0555904,12.804 L17.0555904,20 L18.3295904,20 L18.3295904,14.764 C18.9175904,14.218 19.9815904,13.854 20.8775904,13.98 L20.8775904,12.664 Z M27.4155904,15.128 C27.4155904,13.336 26.6175904,12.65 24.8395904,12.65 C23.1735904,12.65 22.3055904,13.28 22.0815904,14.624 L23.2015904,14.834 C23.3555904,14.036 23.7335904,13.644 24.7275904,13.644 C25.9035904,13.644 26.1555904,14.204 26.1555904,15.114 L26.1555904,15.814 C25.9595904,15.8 25.7495904,15.786 25.5255904,15.786 C23.4955904,15.786 21.8015904,16.318 21.8015904,18.236 C21.8015904,18.936 22.1095904,20.168 23.9295904,20.168 C24.9375904,20.168 25.6795904,19.846 26.2395904,19.286 C26.3095904,19.748 26.6315904,20.14 27.3455904,20.14 C27.6955904,20.14 28.0595904,20.056 28.3395904,19.916 L28.2835904,19.118 C28.1015904,19.174 27.9755904,19.202 27.8495904,19.202 C27.4855904,19.202 27.4155904,19.034 27.4155904,18.642 L27.4155904,15.128 Z M26.1695904,18.362 C25.7775904,18.782 25.0635904,19.174 24.3215904,19.174 C23.3415904,19.174 23.1175904,18.642 23.1175904,18.026 C23.1175904,16.794 24.4475904,16.696 25.4415904,16.696 C25.7075904,16.696 25.9735904,16.71 26.1695904,16.738 L26.1695904,18.362 Z M32.4135904,12.65 C30.5515904,12.65 29.3615904,13.714 29.3615904,15.296 C29.3615904,16.22 29.7675904,16.962 30.4255904,17.312 C29.9215904,17.704 29.4735904,18.11 29.4735904,18.726 C29.4735904,19.244 29.7675904,19.524 30.2575904,19.72 L30.2575904,19.734 C29.6695904,20.014 29.0955904,20.574 29.0955904,21.386 C29.0955904,22.24 29.6415904,23.164 32.3295904,23.164 C34.1355904,23.164 36.0255904,22.632 36.0255904,20.868 C36.0255904,19.454 35.1575904,19.09 33.6735904,18.992 L31.6715904,18.852 C30.9015904,18.796 30.7475904,18.586 30.7475904,18.306 C30.7475904,18.012 30.9995904,17.816 31.1955904,17.634 C31.5595904,17.76 32.0075904,17.802 32.4835904,17.802 C34.1355904,17.802 35.4235904,16.85 35.4235904,15.226 C35.4235904,14.638 35.2415904,14.064 34.8915904,13.658 C35.2555904,13.546 35.8295904,13.476 36.2635904,13.504 L36.2635904,12.482 C36.0535904,12.412 35.8575904,12.37 35.6335904,12.37 C35.1015904,12.37 34.7235904,12.79 34.4995904,13.308 C34.0235904,12.832 33.2955904,12.65 32.4135904,12.65 L32.4135904,12.65 Z M34.1915904,15.24 C34.1915904,16.206 33.4775904,16.752 32.4275904,16.752 C31.1535904,16.752 30.6355904,16.15 30.6355904,15.212 C30.6355904,14.106 31.4475904,13.672 32.4555904,13.672 C33.5335904,13.672 34.1915904,14.162 34.1915904,15.24 L34.1915904,15.24 Z M34.7095904,21.022 C34.7095904,21.778 33.9675904,22.156 32.4835904,22.156 C30.8595904,22.156 30.3695904,21.75 30.3695904,21.148 C30.3695904,20.672 30.6215904,20.378 31.1675904,20.014 L33.5055904,20.154 C34.4855904,20.224 34.7095904,20.504 34.7095904,21.022 L34.7095904,21.022 Z M38.7835904,14.624 C39.1615904,14.274 40.0435904,13.77 40.7715904,13.77 C41.6955904,13.77 41.8915904,14.316 41.8915904,15.282 L41.8915904,20 L43.1655904,20 L43.1655904,15.1 C43.1655904,14.918 43.1515904,14.736 43.1375904,14.568 C43.5575904,14.218 44.3835904,13.77 45.0695904,13.77 C45.9935904,13.77 46.1895904,14.316 46.1895904,15.282 L46.1895904,20 L47.4635904,20 L47.4635904,15.1 C47.4635904,13.49 46.9315904,12.65 45.4195904,12.65 C44.4395904,12.65 43.6275904,13.084 42.9275904,13.644 C42.6475904,12.972 42.0735904,12.65 41.1215904,12.65 C40.1415904,12.65 39.3855904,13.07 38.6715904,13.616 L38.6015904,12.804 L37.5095904,12.804 L37.5095904,20 L38.7835904,20 L38.7835904,14.624 Z M52.5035904,20.168 C53.9455904,20.168 55.0655904,19.482 55.3595904,18.082 L54.2395904,17.83 C54.0435904,18.642 53.5675904,19.104 52.5455904,19.104 C51.3975904,19.104 50.5855904,18.53 50.5295904,16.696 L55.3735904,16.696 C55.4155904,16.36 55.4295904,16.038 55.4295904,15.758 C55.4295904,13.98 54.5895904,12.65 52.5735904,12.65 C50.7255904,12.65 49.1855904,13.784 49.1855904,16.416 C49.1855904,18.39 49.9555904,20.168 52.5035904,20.168 L52.5035904,20.168 Z M50.5435904,15.688 C50.6135904,14.26 51.5375904,13.686 52.4895904,13.686 C53.6235904,13.686 54.1135904,14.4 54.1135904,15.688 L50.5435904,15.688 Z M63.2695904,15.114 C63.2695904,13.49 62.5975904,12.65 61.0575904,12.65 C60.0635904,12.65 59.1675904,13.098 58.4675904,13.658 L58.3975904,12.804 L57.2775904,12.804 L57.2775904,20 L58.5515904,20 L58.5515904,14.638 C58.9295904,14.302 59.8255904,13.77 60.6515904,13.77 C61.6315904,13.77 61.9955904,14.316 61.9955904,15.31 L61.9955904,20 L63.2695904,20 L63.2695904,15.114 Z M69.2195904,18.768 C68.9115904,18.936 68.3935904,19.118 67.9595904,19.118 C67.0915904,19.118 66.9235904,18.698 66.9235904,17.942 L66.9235904,13.826 L68.9115904,13.826 L68.9115904,12.804 L66.9235904,12.804 L66.9235904,10.522 L65.6495904,10.718 L65.6495904,12.804 L64.5435904,12.804 L64.5435904,13.826 L65.6495904,13.826 L65.6495904,18.11 C65.6495904,19.552 66.3355904,20.168 67.6795904,20.168 C68.3515904,20.168 69.0935904,19.93 69.4435904,19.692 L69.2195904,18.768 Z M73.0695904,12.65 C71.6135904,12.65 70.4095904,13.364 70.4095904,14.82 C70.4095904,16.5 71.8235904,16.752 72.9995904,16.99 C73.9795904,17.186 74.5675904,17.326 74.5675904,18.124 C74.5675904,18.894 73.9375904,19.16 73.0695904,19.16 C71.7955904,19.16 71.4735904,18.544 71.2775904,17.774 L70.1435904,18.082 C70.3675904,19.524 71.3615904,20.168 73.0135904,20.168 C74.7635904,20.168 75.8275904,19.356 75.8275904,17.984 C75.8275904,16.374 74.5815904,16.108 73.2655904,15.828 C72.2575904,15.618 71.6695904,15.408 71.6695904,14.666 C71.6695904,14.12 72.0055904,13.658 73.0555904,13.658 C74.1055904,13.658 74.3855904,14.162 74.5535904,14.988 L75.7015904,14.736 C75.4775904,13.462 74.7775904,12.65 73.0695904,12.65 L73.0695904,12.65 Z" id="Fragments" fill="#000000"></path>
                    </g>
                    <g id="Group-10" transform="translate(93.000000, 0.000000)">
                        <use id="Rectangle-34-Copy-2" stroke="#CCCCCC" mask="url(#mask-14)" stroke-width="3" fill="#FAFAFA" xlink:href="#path-13"></use>
                        <path d="M11.9325904,9.864 L8.51659044,20 L9.81859044,20 L10.8125904,16.99 L14.7045904,16.99 L15.7265904,20 L17.1405904,20 L13.6125904,9.864 L11.9325904,9.864 Z M14.3825904,15.884 L11.1205904,15.884 L12.7445904,11.04 L12.7585904,11.04 L14.3825904,15.884 Z M24.6305904,9.43 L23.3845904,9.43 L23.3845904,13.322 C22.8805904,12.916 22.1945904,12.65 21.3685904,12.65 C19.7725904,12.65 18.3305904,13.672 18.3305904,16.514 C18.3305904,19.132 19.4365904,20.168 21.0745904,20.168 C22.1105904,20.168 22.8385904,19.776 23.4545904,19.216 L23.4685904,19.23 L23.5665904,20 L24.6305904,20 L24.6305904,9.43 Z M23.3705904,18.222 C22.9225904,18.67 22.1945904,19.104 21.4525904,19.104 C20.1925904,19.104 19.6465904,18.264 19.6465904,16.514 C19.6465904,14.848 20.1505904,13.742 21.5365904,13.742 C22.3625904,13.742 23.0345904,14.12 23.3705904,14.372 L23.3705904,18.222 Z M26.0725904,23.122 C27.3745904,23.122 28.1165904,22.464 28.1165904,20.938 L28.1165904,12.804 L26.8425904,12.804 L26.8425904,20.882 C26.8425904,21.736 26.4785904,22.016 25.9045904,22.016 C25.5545904,22.016 25.1345904,21.918 24.8545904,21.806 L24.7145904,22.842 C24.9665904,22.996 25.6105904,23.122 26.0725904,23.122 L26.0725904,23.122 Z M28.4105904,10.382 C28.4105904,9.808 28.0885904,9.472 27.5145904,9.472 C26.9405904,9.472 26.6045904,9.808 26.6045904,10.382 C26.6045904,10.97 26.9405904,11.306 27.5145904,11.306 C28.0885904,11.306 28.4105904,10.97 28.4105904,10.382 L28.4105904,10.382 Z M33.1705904,20.168 C34.6125904,20.168 35.7325904,19.482 36.0265904,18.082 L34.9065904,17.83 C34.7105904,18.642 34.2345904,19.104 33.2125904,19.104 C32.0645904,19.104 31.2525904,18.53 31.1965904,16.696 L36.0405904,16.696 C36.0825904,16.36 36.0965904,16.038 36.0965904,15.758 C36.0965904,13.98 35.2565904,12.65 33.2405904,12.65 C31.3925904,12.65 29.8525904,13.784 29.8525904,16.416 C29.8525904,18.39 30.6225904,20.168 33.1705904,20.168 L33.1705904,20.168 Z M31.2105904,15.688 C31.2805904,14.26 32.2045904,13.686 33.1565904,13.686 C34.2905904,13.686 34.7805904,14.4 34.7805904,15.688 L31.2105904,15.688 Z M40.8005904,20.168 C42.2425904,20.168 43.5165904,19.468 43.7545904,17.802 L42.6345904,17.564 C42.4525904,18.628 41.8225904,19.104 40.8425904,19.104 C39.6945904,19.104 38.8265904,18.46 38.8265904,16.318 C38.8265904,14.274 39.8485904,13.714 40.8845904,13.714 C41.8925904,13.714 42.3825904,14.26 42.4945904,15.324 L43.7125904,15.156 C43.6145904,13.49 42.5505904,12.65 40.9405904,12.65 C38.7845904,12.65 37.4965904,13.966 37.4965904,16.472 C37.4965904,18.628 38.4205904,20.168 40.8005904,20.168 L40.8005904,20.168 Z M49.2705904,18.768 C48.9625904,18.936 48.4445904,19.118 48.0105904,19.118 C47.1425904,19.118 46.9745904,18.698 46.9745904,17.942 L46.9745904,13.826 L48.9625904,13.826 L48.9625904,12.804 L46.9745904,12.804 L46.9745904,10.522 L45.7005904,10.718 L45.7005904,12.804 L44.5945904,12.804 L44.5945904,13.826 L45.7005904,13.826 L45.7005904,18.11 C45.7005904,19.552 46.3865904,20.168 47.7305904,20.168 C48.4025904,20.168 49.1445904,19.93 49.4945904,19.692 L49.2705904,18.768 Z M52.0565904,12.804 L50.7825904,12.804 L50.7825904,20 L52.0565904,20 L52.0565904,12.804 Z M52.3505904,10.494 C52.3505904,9.906 52.0145904,9.584 51.4405904,9.584 C50.8665904,9.584 50.5445904,9.906 50.5445904,10.494 C50.5445904,11.082 50.8665904,11.418 51.4405904,11.418 C52.0145904,11.418 52.3505904,11.082 52.3505904,10.494 L52.3505904,10.494 Z M57.4185904,20 L60.1205904,12.804 L58.8185904,12.804 L56.7325904,18.726 L56.7185904,18.726 L54.6045904,12.804 L53.2185904,12.804 L55.9625904,20 L57.4185904,20 Z M64.2085904,20.168 C65.6505904,20.168 66.7705904,19.482 67.0645904,18.082 L65.9445904,17.83 C65.7485904,18.642 65.2725904,19.104 64.2505904,19.104 C63.1025904,19.104 62.2905904,18.53 62.2345904,16.696 L67.0785904,16.696 C67.1205904,16.36 67.1345904,16.038 67.1345904,15.758 C67.1345904,13.98 66.2945904,12.65 64.2785904,12.65 C62.4305904,12.65 60.8905904,13.784 60.8905904,16.416 C60.8905904,18.39 61.6605904,20.168 64.2085904,20.168 L64.2085904,20.168 Z M62.2485904,15.688 C62.3185904,14.26 63.2425904,13.686 64.1945904,13.686 C65.3285904,13.686 65.8185904,14.4 65.8185904,15.688 L62.2485904,15.688 Z M71.3205904,12.65 C69.8645904,12.65 68.6605904,13.364 68.6605904,14.82 C68.6605904,16.5 70.0745904,16.752 71.2505904,16.99 C72.2305904,17.186 72.8185904,17.326 72.8185904,18.124 C72.8185904,18.894 72.1885904,19.16 71.3205904,19.16 C70.0465904,19.16 69.7245904,18.544 69.5285904,17.774 L68.3945904,18.082 C68.6185904,19.524 69.6125904,20.168 71.2645904,20.168 C73.0145904,20.168 74.0785904,19.356 74.0785904,17.984 C74.0785904,16.374 72.8325904,16.108 71.5165904,15.828 C70.5085904,15.618 69.9205904,15.408 69.9205904,14.666 C69.9205904,14.12 70.2565904,13.658 71.3065904,13.658 C72.3565904,13.658 72.6365904,14.162 72.8045904,14.988 L73.9525904,14.736 C73.7285904,13.462 73.0285904,12.65 71.3205904,12.65 L71.3205904,12.65 Z" id="Adjectives" fill="#000000"></path>
                    </g>
                    <g id="Group-26" transform="translate(185.000000, 0.000000)">
                        <use id="Rectangle-34-Copy-9" stroke="#CCCCCC" mask="url(#mask-16)" stroke-width="3" fill="#FAFAFA" xlink:href="#path-15"></use>
                        <path d="M12.191,9.864 L8.775,20 L10.077,20 L11.071,16.99 L14.963,16.99 L15.985,20 L17.399,20 L13.871,9.864 L12.191,9.864 Z M14.641,15.884 L11.379,15.884 L13.003,11.04 L13.017,11.04 L14.641,15.884 Z M24.889,9.43 L23.643,9.43 L23.643,13.322 C23.139,12.916 22.453,12.65 21.627,12.65 C20.031,12.65 18.589,13.672 18.589,16.514 C18.589,19.132 19.695,20.168 21.333,20.168 C22.369,20.168 23.097,19.776 23.713,19.216 L23.727,19.23 L23.825,20 L24.889,20 L24.889,9.43 Z M23.629,18.222 C23.181,18.67 22.453,19.104 21.711,19.104 C20.451,19.104 19.905,18.264 19.905,16.514 C19.905,14.848 20.409,13.742 21.795,13.742 C22.621,13.742 23.293,14.12 23.629,14.372 L23.629,18.222 Z M30.251,20 L32.953,12.804 L31.651,12.804 L29.565,18.726 L29.551,18.726 L27.437,12.804 L26.051,12.804 L28.795,20 L30.251,20 Z M37.041,20.168 C38.483,20.168 39.603,19.482 39.897,18.082 L38.777,17.83 C38.581,18.642 38.105,19.104 37.083,19.104 C35.935,19.104 35.123,18.53 35.067,16.696 L39.911,16.696 C39.953,16.36 39.967,16.038 39.967,15.758 C39.967,13.98 39.127,12.65 37.111,12.65 C35.263,12.65 33.723,13.784 33.723,16.416 C33.723,18.39 34.493,20.168 37.041,20.168 L37.041,20.168 Z M35.081,15.688 C35.151,14.26 36.075,13.686 37.027,13.686 C38.161,13.686 38.651,14.4 38.651,15.688 L35.081,15.688 Z M45.637,12.664 C45.553,12.664 45.455,12.65 45.371,12.65 C44.363,12.65 43.607,12.986 42.977,13.84 L42.879,12.804 L41.815,12.804 L41.815,20 L43.089,20 L43.089,14.764 C43.677,14.218 44.741,13.854 45.637,13.98 L45.637,12.664 Z M48.017,20 L48.087,19.37 L48.101,19.37 C48.619,19.776 49.333,20.168 50.187,20.168 C51.853,20.168 53.225,19.034 53.225,16.234 C53.225,13.588 52.091,12.65 50.607,12.65 C49.557,12.65 48.801,13.042 48.171,13.602 L48.171,9.43 L46.911,9.43 L46.911,20 L48.017,20 Z M48.185,14.624 C48.605,14.218 49.403,13.728 50.201,13.728 C51.391,13.728 51.909,14.512 51.909,16.22 C51.909,17.97 51.391,19.09 50.033,19.09 C49.207,19.09 48.507,18.586 48.185,18.348 L48.185,14.624 Z M57.383,12.65 C55.927,12.65 54.723,13.364 54.723,14.82 C54.723,16.5 56.137,16.752 57.313,16.99 C58.293,17.186 58.881,17.326 58.881,18.124 C58.881,18.894 58.251,19.16 57.383,19.16 C56.109,19.16 55.787,18.544 55.591,17.774 L54.457,18.082 C54.681,19.524 55.675,20.168 57.327,20.168 C59.077,20.168 60.141,19.356 60.141,17.984 C60.141,16.374 58.895,16.108 57.579,15.828 C56.571,15.618 55.983,15.408 55.983,14.666 C55.983,14.12 56.319,13.658 57.369,13.658 C58.419,13.658 58.699,14.162 58.867,14.988 L60.015,14.736 C59.791,13.462 59.091,12.65 57.383,12.65 L57.383,12.65 Z" id="Adverbs" fill="#000000"></path>
                    </g>
                </g>
            </g>
        </g>
    </g>
</svg>