<?xml version="1.0" encoding="UTF-8"?>
<svg width="404px" height="158px" viewBox="0 0 404 158" version="1.1" xmlns="http://www.w3.org/2000/svg" xmlns:xlink="http://www.w3.org/1999/xlink">
    <!-- Generator: Sketch 43.1 (39012) - http://www.bohemiancoding.com/sketch -->
    <title>Group 31</title>
    <desc>Created with Sketch.</desc>
    <defs>
        <rect id="path-1" x="156" y="0" width="84" height="31.1200008"></rect>
        <rect id="path-2" x="250" y="0" width="83" height="31.1200008"></rect>
        <rect id="path-3" x="50" y="0" width="95.5798074" height="31.1200008"></rect>
        <rect id="path-4" x="97" y="126" width="98" height="31.1200008"></rect>
        <rect id="path-5" x="206" y="126" width="109" height="31.1200008"></rect>
        <rect id="path-6" x="51" y="84" width="157" height="31.1200008"></rect>
        <rect id="path-7" x="218" y="84" width="142" height="31.1181102"></rect>
        <rect id="path-8" x="7" y="42" width="98" height="31.1200008"></rect>
        <rect id="path-9" x="115" y="42" width="181" height="31.1200008"></rect>
        <rect id="path-10" x="306" y="42" width="98" height="31.1200008"></rect>
    </defs>
    <g id="01-Tools-Landing-Pages" stroke="none" stroke-width="1" fill="none" fill-rule="evenodd">
        <g id="01_00-Diagnostic-Page" transform="translate(-141.000000, -1509.000000)">
            <g id="Group-31" transform="translate(141.000000, 1509.000000)">
                <g id="Group-26">
                    <g id="Group-6">
                        <g id="Group-40">
                            <g id="Rectangle-34-Copy-8">
                                <use fill="#FFFFFF" fill-rule="evenodd" xlink:href="#path-1"></use>
                                <rect stroke="#CCCCCC" stroke-width="1.5" x="156.75" y="0.75" width="82.5" height="29.6200008"></rect>
                            </g>
                            <path d="M168.92,9.864 L170.6,9.864 L174.128,20 L172.714,20 L171.692,16.99 L167.8,16.99 L166.806,20 L165.504,20 L168.92,9.864 Z M171.37,15.884 L169.746,11.04 L169.732,11.04 L168.108,15.884 L171.37,15.884 Z M181.516889,9.43 L181.516889,20 L180.452889,20 L180.354889,19.23 L180.340889,19.216 C179.724889,19.776 178.996889,20.168 177.960889,20.168 C176.322889,20.168 175.216889,19.132 175.216889,16.514 C175.216889,13.672 176.658889,12.65 178.254889,12.65 C179.080889,12.65 179.766889,12.916 180.270889,13.322 L180.270889,9.43 L181.516889,9.43 Z M180.256889,18.222 L180.256889,14.372 C179.920889,14.12 179.248889,13.742 178.422889,13.742 C177.036889,13.742 176.532889,14.848 176.532889,16.514 C176.532889,18.264 177.078889,19.104 178.338889,19.104 C179.080889,19.104 179.808889,18.67 180.256889,18.222 Z M182.997778,23.122 C184.299778,23.122 185.041778,22.464 185.041778,20.938 L185.041778,12.804 L183.767778,12.804 L183.767778,20.882 C183.767778,21.736 183.403778,22.016 182.829778,22.016 C182.479778,22.016 182.059778,21.918 181.779778,21.806 L181.639778,22.842 C181.891778,22.996 182.535778,23.122 182.997778,23.122 Z M185.335778,10.382 C185.335778,9.808 185.013778,9.472 184.439778,9.472 C183.865778,9.472 183.529778,9.808 183.529778,10.382 C183.529778,10.97 183.865778,11.306 184.439778,11.306 C185.013778,11.306 185.335778,10.97 185.335778,10.382 Z M190.134667,20.168 C187.586667,20.168 186.816667,18.39 186.816667,16.416 C186.816667,13.784 188.356667,12.65 190.204667,12.65 C192.220667,12.65 193.060667,13.98 193.060667,15.758 C193.060667,16.038 193.046667,16.36 193.004667,16.696 L188.160667,16.696 C188.216667,18.53 189.028667,19.104 190.176667,19.104 C191.198667,19.104 191.674667,18.642 191.870667,17.83 L192.990667,18.082 C192.696667,19.482 191.576667,20.168 190.134667,20.168 Z M188.174667,15.688 L191.744667,15.688 C191.744667,14.4 191.254667,13.686 190.120667,13.686 C189.168667,13.686 188.244667,14.26 188.174667,15.688 Z M197.803556,20.168 C199.245556,20.168 200.519556,19.468 200.757556,17.802 L199.637556,17.564 C199.455556,18.628 198.825556,19.104 197.845556,19.104 C196.697556,19.104 195.829556,18.46 195.829556,16.318 C195.829556,14.274 196.851556,13.714 197.887556,13.714 C198.895556,13.714 199.385556,14.26 199.497556,15.324 L200.715556,15.156 C200.617556,13.49 199.553556,12.65 197.943556,12.65 C195.787556,12.65 194.499556,13.966 194.499556,16.472 C194.499556,18.628 195.423556,20.168 197.803556,20.168 Z M206.312444,18.768 C206.004444,18.936 205.486444,19.118 205.052444,19.118 C204.184444,19.118 204.016444,18.698 204.016444,17.942 L204.016444,13.826 L206.004444,13.826 L206.004444,12.804 L204.016444,12.804 L204.016444,10.522 L202.742444,10.718 L202.742444,12.804 L201.636444,12.804 L201.636444,13.826 L202.742444,13.826 L202.742444,18.11 C202.742444,19.552 203.428444,20.168 204.772444,20.168 C205.444444,20.168 206.186444,19.93 206.536444,19.692 L206.312444,18.768 Z M209.137333,12.804 L207.863333,12.804 L207.863333,20 L209.137333,20 L209.137333,12.804 Z M209.431333,10.494 C209.431333,9.906 209.095333,9.584 208.521333,9.584 C207.947333,9.584 207.625333,9.906 207.625333,10.494 C207.625333,11.082 207.947333,11.418 208.521333,11.418 C209.095333,11.418 209.431333,11.082 209.431333,10.494 Z M214.538222,20 L217.240222,12.804 L215.938222,12.804 L213.852222,18.726 L213.838222,18.726 L211.724222,12.804 L210.338222,12.804 L213.082222,20 L214.538222,20 Z M221.087111,20.168 C218.539111,20.168 217.769111,18.39 217.769111,16.416 C217.769111,13.784 219.309111,12.65 221.157111,12.65 C223.173111,12.65 224.013111,13.98 224.013111,15.758 C224.013111,16.038 223.999111,16.36 223.957111,16.696 L219.113111,16.696 C219.169111,18.53 219.981111,19.104 221.129111,19.104 C222.151111,19.104 222.627111,18.642 222.823111,17.83 L223.943111,18.082 C223.649111,19.482 222.529111,20.168 221.087111,20.168 Z M219.127111,15.688 L222.697111,15.688 C222.697111,14.4 222.207111,13.686 221.073111,13.686 C220.121111,13.686 219.197111,14.26 219.127111,15.688 Z M228.21,12.65 C226.754,12.65 225.55,13.364 225.55,14.82 C225.55,16.5 226.964,16.752 228.14,16.99 C229.12,17.186 229.708,17.326 229.708,18.124 C229.708,18.894 229.078,19.16 228.21,19.16 C226.936,19.16 226.614,18.544 226.418,17.774 L225.284,18.082 C225.508,19.524 226.502,20.168 228.154,20.168 C229.904,20.168 230.968,19.356 230.968,17.984 C230.968,16.374 229.722,16.108 228.406,15.828 C227.398,15.618 226.81,15.408 226.81,14.666 C226.81,14.12 227.146,13.658 228.196,13.658 C229.246,13.658 229.526,14.162 229.694,14.988 L230.842,14.736 C230.618,13.462 229.918,12.65 228.21,12.65 Z" id="Adjectives" fill="#414141"></path>
                            <g id="Rectangle-34-Copy-10">
                                <use fill="#FFFFFF" fill-rule="evenodd" xlink:href="#path-2"></use>
                                <rect stroke="#CCCCCC" stroke-width="1.5" x="250.75" y="0.75" width="81.5" height="29.6200008"></rect>
                            </g>
                            <path d="M268.92,9.864 L270.6,9.864 L274.128,20 L272.714,20 L271.692,16.99 L267.8,16.99 L266.806,20 L265.504,20 L268.92,9.864 Z M271.37,15.884 L269.746,11.04 L269.732,11.04 L268.108,15.884 L271.37,15.884 Z M281.516889,9.43 L281.516889,20 L280.452889,20 L280.354889,19.23 L280.340889,19.216 C279.724889,19.776 278.996889,20.168 277.960889,20.168 C276.322889,20.168 275.216889,19.132 275.216889,16.514 C275.216889,13.672 276.658889,12.65 278.254889,12.65 C279.080889,12.65 279.766889,12.916 280.270889,13.322 L280.270889,9.43 L281.516889,9.43 Z M280.256889,18.222 L280.256889,14.372 C279.920889,14.12 279.248889,13.742 278.422889,13.742 C277.036889,13.742 276.532889,14.848 276.532889,16.514 C276.532889,18.264 277.078889,19.104 278.338889,19.104 C279.080889,19.104 279.808889,18.67 280.256889,18.222 Z M286.917778,20 L289.619778,12.804 L288.317778,12.804 L286.231778,18.726 L286.217778,18.726 L284.103778,12.804 L282.717778,12.804 L285.461778,20 L286.917778,20 Z M293.466667,20.168 C290.918667,20.168 290.148667,18.39 290.148667,16.416 C290.148667,13.784 291.688667,12.65 293.536667,12.65 C295.552667,12.65 296.392667,13.98 296.392667,15.758 C296.392667,16.038 296.378667,16.36 296.336667,16.696 L291.492667,16.696 C291.548667,18.53 292.360667,19.104 293.508667,19.104 C294.530667,19.104 295.006667,18.642 295.202667,17.83 L296.322667,18.082 C296.028667,19.482 294.908667,20.168 293.466667,20.168 Z M291.506667,15.688 L295.076667,15.688 C295.076667,14.4 294.586667,13.686 293.452667,13.686 C292.500667,13.686 291.576667,14.26 291.506667,15.688 Z M302.101556,12.664 C302.017556,12.664 301.919556,12.65 301.835556,12.65 C300.827556,12.65 300.071556,12.986 299.441556,13.84 L299.343556,12.804 L298.279556,12.804 L298.279556,20 L299.553556,20 L299.553556,14.764 C300.141556,14.218 301.205556,13.854 302.101556,13.98 L302.101556,12.664 Z M304.520444,20 L303.414444,20 L303.414444,9.43 L304.674444,9.43 L304.674444,13.602 C305.304444,13.042 306.060444,12.65 307.110444,12.65 C308.594444,12.65 309.728444,13.588 309.728444,16.234 C309.728444,19.034 308.356444,20.168 306.690444,20.168 C305.836444,20.168 305.122444,19.776 304.604444,19.37 L304.590444,19.37 L304.520444,20 Z M304.688444,14.624 L304.688444,18.348 C305.010444,18.586 305.710444,19.09 306.536444,19.09 C307.894444,19.09 308.412444,17.97 308.412444,16.22 C308.412444,14.512 307.894444,13.728 306.704444,13.728 C305.906444,13.728 305.108444,14.218 304.688444,14.624 Z M313.897333,12.65 C312.441333,12.65 311.237333,13.364 311.237333,14.82 C311.237333,16.5 312.651333,16.752 313.827333,16.99 C314.807333,17.186 315.395333,17.326 315.395333,18.124 C315.395333,18.894 314.765333,19.16 313.897333,19.16 C312.623333,19.16 312.301333,18.544 312.105333,17.774 L310.971333,18.082 C311.195333,19.524 312.189333,20.168 313.841333,20.168 C315.591333,20.168 316.655333,19.356 316.655333,17.984 C316.655333,16.374 315.409333,16.108 314.093333,15.828 C313.085333,15.618 312.497333,15.408 312.497333,14.666 C312.497333,14.12 312.833333,13.658 313.883333,13.658 C314.933333,13.658 315.213333,14.162 315.381333,14.988 L316.529333,14.736 C316.305333,13.462 315.605333,12.65 313.897333,12.65 Z" id="Adverbs" fill="#414141"></path>
                            <g id="Rectangle-34-Copy-11">
                                <use fill="#FFFFFF" fill-rule="evenodd" xlink:href="#path-3"></use>
                                <rect stroke="#CCCCCC" stroke-width="1.5" x="50.75" y="0.75" width="94.0798074" height="29.6200008"></rect>
                            </g>
                            <path d="M66.632,15.618 L70.916,15.618 L70.916,14.498 L66.632,14.498 L66.632,10.984 L71.266,10.984 L71.266,9.864 L65.344,9.864 L65.344,20 L66.632,20 L66.632,15.618 Z M76.3728889,12.664 C76.2888889,12.664 76.1908889,12.65 76.1068889,12.65 C75.0988889,12.65 74.3428889,12.986 73.7128889,13.84 L73.6148889,12.804 L72.5508889,12.804 L72.5508889,20 L73.8248889,20 L73.8248889,14.764 C74.4128889,14.218 75.4768889,13.854 76.3728889,13.98 L76.3728889,12.664 Z M82.6417778,15.128 L82.6417778,18.642 C82.6417778,19.034 82.7117778,19.202 83.0757778,19.202 C83.2017778,19.202 83.3277778,19.174 83.5097778,19.118 L83.5657778,19.916 C83.2857778,20.056 82.9217778,20.14 82.5717778,20.14 C81.8577778,20.14 81.5357778,19.748 81.4657778,19.286 C80.9057778,19.846 80.1637778,20.168 79.1557778,20.168 C77.3357778,20.168 77.0277778,18.936 77.0277778,18.236 C77.0277778,16.318 78.7217778,15.786 80.7517778,15.786 C80.9757778,15.786 81.1857778,15.8 81.3817778,15.814 L81.3817778,15.114 C81.3817778,14.204 81.1297778,13.644 79.9537778,13.644 C78.9597778,13.644 78.5817778,14.036 78.4277778,14.834 L77.3077778,14.624 C77.5317778,13.28 78.3997778,12.65 80.0657778,12.65 C81.8437778,12.65 82.6417778,13.336 82.6417778,15.128 Z M81.3957778,18.362 L81.3957778,16.738 C81.1997778,16.71 80.9337778,16.696 80.6677778,16.696 C79.6737778,16.696 78.3437778,16.794 78.3437778,18.026 C78.3437778,18.642 78.5677778,19.174 79.5477778,19.174 C80.2897778,19.174 81.0037778,18.782 81.3957778,18.362 Z M87.5666667,12.65 C88.4486667,12.65 89.1766667,12.832 89.6526667,13.308 C89.8766667,12.79 90.2546667,12.37 90.7866667,12.37 C91.0106667,12.37 91.2066667,12.412 91.4166667,12.482 L91.4166667,13.504 C90.9826667,13.476 90.4086667,13.546 90.0446667,13.658 C90.3946667,14.064 90.5766667,14.638 90.5766667,15.226 C90.5766667,16.85 89.2886667,17.802 87.6366667,17.802 C87.1606667,17.802 86.7126667,17.76 86.3486667,17.634 C86.1526667,17.816 85.9006667,18.012 85.9006667,18.306 C85.9006667,18.586 86.0546667,18.796 86.8246667,18.852 L88.8266667,18.992 C90.3106667,19.09 91.1786667,19.454 91.1786667,20.868 C91.1786667,22.632 89.2886667,23.164 87.4826667,23.164 C84.7946667,23.164 84.2486667,22.24 84.2486667,21.386 C84.2486667,20.574 84.8226667,20.014 85.4106667,19.734 L85.4106667,19.72 C84.9206667,19.524 84.6266667,19.244 84.6266667,18.726 C84.6266667,18.11 85.0746667,17.704 85.5786667,17.312 C84.9206667,16.962 84.5146667,16.22 84.5146667,15.296 C84.5146667,13.714 85.7046667,12.65 87.5666667,12.65 Z M89.3446667,15.24 C89.3446667,14.162 88.6866667,13.672 87.6086667,13.672 C86.6006667,13.672 85.7886667,14.106 85.7886667,15.212 C85.7886667,16.15 86.3066667,16.752 87.5806667,16.752 C88.6306667,16.752 89.3446667,16.206 89.3446667,15.24 Z M89.8626667,21.022 C89.8626667,20.504 89.6386667,20.224 88.6586667,20.154 L86.3206667,20.014 C85.7746667,20.378 85.5226667,20.672 85.5226667,21.148 C85.5226667,21.75 86.0126667,22.156 87.6366667,22.156 C89.1206667,22.156 89.8626667,21.778 89.8626667,21.022 Z M93.9755556,14.624 C94.3535556,14.274 95.2355556,13.77 95.9635556,13.77 C96.8875556,13.77 97.0835556,14.316 97.0835556,15.282 L97.0835556,20 L98.3575556,20 L98.3575556,15.1 C98.3575556,14.918 98.3435556,14.736 98.3295556,14.568 C98.7495556,14.218 99.5755556,13.77 100.261556,13.77 C101.185556,13.77 101.381556,14.316 101.381556,15.282 L101.381556,20 L102.655556,20 L102.655556,15.1 C102.655556,13.49 102.123556,12.65 100.611556,12.65 C99.6315556,12.65 98.8195556,13.084 98.1195556,13.644 C97.8395556,12.972 97.2655556,12.65 96.3135556,12.65 C95.3335556,12.65 94.5775556,13.07 93.8635556,13.616 L93.7935556,12.804 L92.7015556,12.804 L92.7015556,20 L93.9755556,20 L93.9755556,14.624 Z M107.734444,20.168 C105.186444,20.168 104.416444,18.39 104.416444,16.416 C104.416444,13.784 105.956444,12.65 107.804444,12.65 C109.820444,12.65 110.660444,13.98 110.660444,15.758 C110.660444,16.038 110.646444,16.36 110.604444,16.696 L105.760444,16.696 C105.816444,18.53 106.628444,19.104 107.776444,19.104 C108.798444,19.104 109.274444,18.642 109.470444,17.83 L110.590444,18.082 C110.296444,19.482 109.176444,20.168 107.734444,20.168 Z M105.774444,15.688 L109.344444,15.688 C109.344444,14.4 108.854444,13.686 107.720444,13.686 C106.768444,13.686 105.844444,14.26 105.774444,15.688 Z M118.539333,15.114 C118.539333,13.49 117.867333,12.65 116.327333,12.65 C115.333333,12.65 114.437333,13.098 113.737333,13.658 L113.667333,12.804 L112.547333,12.804 L112.547333,20 L113.821333,20 L113.821333,14.638 C114.199333,14.302 115.095333,13.77 115.921333,13.77 C116.901333,13.77 117.265333,14.316 117.265333,15.31 L117.265333,20 L118.539333,20 L118.539333,15.114 Z M124.346222,18.768 C124.038222,18.936 123.520222,19.118 123.086222,19.118 C122.218222,19.118 122.050222,18.698 122.050222,17.942 L122.050222,13.826 L124.038222,13.826 L124.038222,12.804 L122.050222,12.804 L122.050222,10.522 L120.776222,10.718 L120.776222,12.804 L119.670222,12.804 L119.670222,13.826 L120.776222,13.826 L120.776222,18.11 C120.776222,19.552 121.462222,20.168 122.806222,20.168 C123.478222,20.168 124.220222,19.93 124.570222,19.692 L124.346222,18.768 Z M128.235111,12.65 C126.779111,12.65 125.575111,13.364 125.575111,14.82 C125.575111,16.5 126.989111,16.752 128.165111,16.99 C129.145111,17.186 129.733111,17.326 129.733111,18.124 C129.733111,18.894 129.103111,19.16 128.235111,19.16 C126.961111,19.16 126.639111,18.544 126.443111,17.774 L125.309111,18.082 C125.533111,19.524 126.527111,20.168 128.179111,20.168 C129.929111,20.168 130.993111,19.356 130.993111,17.984 C130.993111,16.374 129.747111,16.108 128.431111,15.828 C127.423111,15.618 126.835111,15.408 126.835111,14.666 C126.835111,14.12 127.171111,13.658 128.221111,13.658 C129.271111,13.658 129.551111,14.162 129.719111,14.988 L130.867111,14.736 C130.643111,13.462 129.943111,12.65 128.235111,12.65 Z" id="Fragments" fill="#414141"></path>
                            <g id="Rectangle-34-Copy-3">
                                <use fill="#FFFFFF" fill-rule="evenodd" xlink:href="#path-4"></use>
                                <rect stroke="#00C2A2" stroke-width="1.5" x="97.75" y="126.75" width="96.5" height="29.6200008"></rect>
                            </g>
                            <path d="M116.306,146 L119.554,135.864 L118.238,135.864 L115.466,144.754 L115.452,144.754 L112.582,135.864 L111.14,135.864 L114.556,146 L116.306,146 Z M123.134889,146.168 C120.586889,146.168 119.816889,144.39 119.816889,142.416 C119.816889,139.784 121.356889,138.65 123.204889,138.65 C125.220889,138.65 126.060889,139.98 126.060889,141.758 C126.060889,142.038 126.046889,142.36 126.004889,142.696 L121.160889,142.696 C121.216889,144.53 122.028889,145.104 123.176889,145.104 C124.198889,145.104 124.674889,144.642 124.870889,143.83 L125.990889,144.082 C125.696889,145.482 124.576889,146.168 123.134889,146.168 Z M121.174889,141.688 L124.744889,141.688 C124.744889,140.4 124.254889,139.686 123.120889,139.686 C122.168889,139.686 121.244889,140.26 121.174889,141.688 Z M131.769778,138.664 C131.685778,138.664 131.587778,138.65 131.503778,138.65 C130.495778,138.65 129.739778,138.986 129.109778,139.84 L129.011778,138.804 L127.947778,138.804 L127.947778,146 L129.221778,146 L129.221778,140.764 C129.809778,140.218 130.873778,139.854 131.769778,139.98 L131.769778,138.664 Z M134.188667,146 L133.082667,146 L133.082667,135.43 L134.342667,135.43 L134.342667,139.602 C134.972667,139.042 135.728667,138.65 136.778667,138.65 C138.262667,138.65 139.396667,139.588 139.396667,142.234 C139.396667,145.034 138.024667,146.168 136.358667,146.168 C135.504667,146.168 134.790667,145.776 134.272667,145.37 L134.258667,145.37 L134.188667,146 Z M134.356667,140.624 L134.356667,144.348 C134.678667,144.586 135.378667,145.09 136.204667,145.09 C137.562667,145.09 138.080667,143.97 138.080667,142.22 C138.080667,140.512 137.562667,139.728 136.372667,139.728 C135.574667,139.728 134.776667,140.218 134.356667,140.624 Z M147.692444,146 L146.404444,146 L146.404444,136.984 L143.338444,136.984 L143.338444,135.864 L150.730444,135.864 L150.730444,136.984 L147.692444,136.984 L147.692444,146 Z M153.681333,146.168 C151.133333,146.168 150.363333,144.39 150.363333,142.416 C150.363333,139.784 151.903333,138.65 153.751333,138.65 C155.767333,138.65 156.607333,139.98 156.607333,141.758 C156.607333,142.038 156.593333,142.36 156.551333,142.696 L151.707333,142.696 C151.763333,144.53 152.575333,145.104 153.723333,145.104 C154.745333,145.104 155.221333,144.642 155.417333,143.83 L156.537333,144.082 C156.243333,145.482 155.123333,146.168 153.681333,146.168 Z M151.721333,141.688 L155.291333,141.688 C155.291333,140.4 154.801333,139.686 153.667333,139.686 C152.715333,139.686 151.791333,140.26 151.721333,141.688 Z M164.486222,141.114 C164.486222,139.49 163.814222,138.65 162.274222,138.65 C161.280222,138.65 160.384222,139.098 159.684222,139.658 L159.614222,138.804 L158.494222,138.804 L158.494222,146 L159.768222,146 L159.768222,140.638 C160.146222,140.302 161.042222,139.77 161.868222,139.77 C162.848222,139.77 163.212222,140.316 163.212222,141.31 L163.212222,146 L164.486222,146 L164.486222,141.114 Z M169.019111,138.65 C167.563111,138.65 166.359111,139.364 166.359111,140.82 C166.359111,142.5 167.773111,142.752 168.949111,142.99 C169.929111,143.186 170.517111,143.326 170.517111,144.124 C170.517111,144.894 169.887111,145.16 169.019111,145.16 C167.745111,145.16 167.423111,144.544 167.227111,143.774 L166.093111,144.082 C166.317111,145.524 167.311111,146.168 168.963111,146.168 C170.713111,146.168 171.777111,145.356 171.777111,143.984 C171.777111,142.374 170.531111,142.108 169.215111,141.828 C168.207111,141.618 167.619111,141.408 167.619111,140.666 C167.619111,140.12 167.955111,139.658 169.005111,139.658 C170.055111,139.658 170.335111,140.162 170.503111,140.988 L171.651111,140.736 C171.427111,139.462 170.727111,138.65 169.019111,138.65 Z M176.408,146.168 C173.86,146.168 173.09,144.39 173.09,142.416 C173.09,139.784 174.63,138.65 176.478,138.65 C178.494,138.65 179.334,139.98 179.334,141.758 C179.334,142.038 179.32,142.36 179.278,142.696 L174.434,142.696 C174.49,144.53 175.302,145.104 176.45,145.104 C177.472,145.104 177.948,144.642 178.144,143.83 L179.264,144.082 C178.97,145.482 177.85,146.168 176.408,146.168 Z M174.448,141.688 L178.018,141.688 C178.018,140.4 177.528,139.686 176.394,139.686 C175.442,139.686 174.518,140.26 174.448,141.688 Z" id="Verb-Tense" fill="#414141"></path>
                            <g id="Rectangle-34-Copy-11">
                                <use fill="#FFFFFF" fill-rule="evenodd" xlink:href="#path-5"></use>
                                <rect stroke="#00C2A2" stroke-width="1.5" x="206.75" y="126.75" width="107.5" height="29.6200008"></rect>
                            </g>
                            <path d="M222.152,146.168 C223.93,146.168 225.764,145.412 226.114,143.172 L224.952,142.934 C224.63,144.362 223.846,145.062 222.236,145.062 C220.206,145.062 219.03,143.886 219.03,140.974 C219.03,138.188 220.304,136.802 222.404,136.802 C224.07,136.802 224.784,137.628 224.98,139.21 L226.184,139.084 C226.03,136.718 224.546,135.682 222.418,135.682 C219.534,135.682 217.7,137.67 217.7,141.086 C217.7,144.124 218.974,146.168 222.152,146.168 Z M233.124889,141.128 L233.124889,144.642 C233.124889,145.034 233.194889,145.202 233.558889,145.202 C233.684889,145.202 233.810889,145.174 233.992889,145.118 L234.048889,145.916 C233.768889,146.056 233.404889,146.14 233.054889,146.14 C232.340889,146.14 232.018889,145.748 231.948889,145.286 C231.388889,145.846 230.646889,146.168 229.638889,146.168 C227.818889,146.168 227.510889,144.936 227.510889,144.236 C227.510889,142.318 229.204889,141.786 231.234889,141.786 C231.458889,141.786 231.668889,141.8 231.864889,141.814 L231.864889,141.114 C231.864889,140.204 231.612889,139.644 230.436889,139.644 C229.442889,139.644 229.064889,140.036 228.910889,140.834 L227.790889,140.624 C228.014889,139.28 228.882889,138.65 230.548889,138.65 C232.326889,138.65 233.124889,139.336 233.124889,141.128 Z M231.878889,144.362 L231.878889,142.738 C231.682889,142.71 231.416889,142.696 231.150889,142.696 C230.156889,142.696 228.826889,142.794 228.826889,144.026 C228.826889,144.642 229.050889,145.174 230.030889,145.174 C230.772889,145.174 231.486889,144.782 231.878889,144.362 Z M235.529778,148.968 L235.529778,138.804 L236.635778,138.804 L236.705778,139.63 C237.363778,139.042 238.175778,138.65 239.197778,138.65 C240.709778,138.65 241.829778,139.588 241.829778,142.234 C241.829778,145.048 240.443778,146.168 238.833778,146.168 C237.965778,146.168 237.279778,145.86 236.761778,145.468 L236.761778,148.968 L235.529778,148.968 Z M236.803778,140.624 L236.803778,144.376 C237.111778,144.614 237.825778,145.09 238.651778,145.09 C240.023778,145.09 240.527778,143.942 240.527778,142.22 C240.527778,140.414 239.967778,139.714 238.819778,139.714 C238.021778,139.714 237.223778,140.204 236.803778,140.624 Z M244.976667,138.804 L243.702667,138.804 L243.702667,146 L244.976667,146 L244.976667,138.804 Z M245.270667,136.494 C245.270667,135.906 244.934667,135.584 244.360667,135.584 C243.786667,135.584 243.464667,135.906 243.464667,136.494 C243.464667,137.082 243.786667,137.418 244.360667,137.418 C244.934667,137.418 245.270667,137.082 245.270667,136.494 Z M251.021556,144.768 C250.713556,144.936 250.195556,145.118 249.761556,145.118 C248.893556,145.118 248.725556,144.698 248.725556,143.942 L248.725556,139.826 L250.713556,139.826 L250.713556,138.804 L248.725556,138.804 L248.725556,136.522 L247.451556,136.718 L247.451556,138.804 L246.345556,138.804 L246.345556,139.826 L247.451556,139.826 L247.451556,144.11 C247.451556,145.552 248.137556,146.168 249.481556,146.168 C250.153556,146.168 250.895556,145.93 251.245556,145.692 L251.021556,144.768 Z M257.612444,141.128 L257.612444,144.642 C257.612444,145.034 257.682444,145.202 258.046444,145.202 C258.172444,145.202 258.298444,145.174 258.480444,145.118 L258.536444,145.916 C258.256444,146.056 257.892444,146.14 257.542444,146.14 C256.828444,146.14 256.506444,145.748 256.436444,145.286 C255.876444,145.846 255.134444,146.168 254.126444,146.168 C252.306444,146.168 251.998444,144.936 251.998444,144.236 C251.998444,142.318 253.692444,141.786 255.722444,141.786 C255.946444,141.786 256.156444,141.8 256.352444,141.814 L256.352444,141.114 C256.352444,140.204 256.100444,139.644 254.924444,139.644 C253.930444,139.644 253.552444,140.036 253.398444,140.834 L252.278444,140.624 C252.502444,139.28 253.370444,138.65 255.036444,138.65 C256.814444,138.65 257.612444,139.336 257.612444,141.128 Z M256.366444,144.362 L256.366444,142.738 C256.170444,142.71 255.904444,142.696 255.638444,142.696 C254.644444,142.696 253.314444,142.794 253.314444,144.026 C253.314444,144.642 253.538444,145.174 254.518444,145.174 C255.260444,145.174 255.974444,144.782 256.366444,144.362 Z M261.291333,135.43 L260.017333,135.43 L260.017333,146 L261.291333,146 L261.291333,135.43 Z M264.816222,138.804 L263.542222,138.804 L263.542222,146 L264.816222,146 L264.816222,138.804 Z M265.110222,136.494 C265.110222,135.906 264.774222,135.584 264.200222,135.584 C263.626222,135.584 263.304222,135.906 263.304222,136.494 C263.304222,137.082 263.626222,137.418 264.200222,137.418 C264.774222,137.418 265.110222,137.082 265.110222,136.494 Z M271.841111,139.728 L271.841111,138.804 L266.423111,138.804 L266.423111,139.826 L270.399111,139.826 L266.367111,145.132 L266.367111,146 L272.009111,146 L272.009111,144.978 L267.809111,144.978 L271.841111,139.728 Z M278.502,141.128 L278.502,144.642 C278.502,145.034 278.572,145.202 278.936,145.202 C279.062,145.202 279.188,145.174 279.37,145.118 L279.426,145.916 C279.146,146.056 278.782,146.14 278.432,146.14 C277.718,146.14 277.396,145.748 277.326,145.286 C276.766,145.846 276.024,146.168 275.016,146.168 C273.196,146.168 272.888,144.936 272.888,144.236 C272.888,142.318 274.582,141.786 276.612,141.786 C276.836,141.786 277.046,141.8 277.242,141.814 L277.242,141.114 C277.242,140.204 276.99,139.644 275.814,139.644 C274.82,139.644 274.442,140.036 274.288,140.834 L273.168,140.624 C273.392,139.28 274.26,138.65 275.926,138.65 C277.704,138.65 278.502,139.336 278.502,141.128 Z M277.256,144.362 L277.256,142.738 C277.06,142.71 276.794,142.696 276.528,142.696 C275.534,142.696 274.204,142.794 274.204,144.026 C274.204,144.642 274.428,145.174 275.408,145.174 C276.15,145.174 276.864,144.782 277.256,144.362 Z M284.448889,144.768 C284.140889,144.936 283.622889,145.118 283.188889,145.118 C282.320889,145.118 282.152889,144.698 282.152889,143.942 L282.152889,139.826 L284.140889,139.826 L284.140889,138.804 L282.152889,138.804 L282.152889,136.522 L280.878889,136.718 L280.878889,138.804 L279.772889,138.804 L279.772889,139.826 L280.878889,139.826 L280.878889,144.11 C280.878889,145.552 281.564889,146.168 282.908889,146.168 C283.580889,146.168 284.322889,145.93 284.672889,145.692 L284.448889,144.768 Z M287.273778,138.804 L285.999778,138.804 L285.999778,146 L287.273778,146 L287.273778,138.804 Z M287.567778,136.494 C287.567778,135.906 287.231778,135.584 286.657778,135.584 C286.083778,135.584 285.761778,135.906 285.761778,136.494 C285.761778,137.082 286.083778,137.418 286.657778,137.418 C287.231778,137.418 287.567778,137.082 287.567778,136.494 Z M292.394667,146.168 C289.902667,146.168 289.076667,144.558 289.076667,142.43 C289.076667,140.106 290.280667,138.65 292.576667,138.65 C294.858667,138.65 295.796667,140.12 295.796667,142.262 C295.796667,144.628 294.816667,146.168 292.394667,146.168 Z M292.464667,145.146 C293.710667,145.146 294.466667,144.39 294.466667,142.346 C294.466667,140.358 293.766667,139.7 292.520667,139.7 C291.246667,139.7 290.392667,140.456 290.392667,142.374 C290.392667,144.278 291.064667,145.146 292.464667,145.146 Z M303.647556,141.114 C303.647556,139.49 302.975556,138.65 301.435556,138.65 C300.441556,138.65 299.545556,139.098 298.845556,139.658 L298.775556,138.804 L297.655556,138.804 L297.655556,146 L298.929556,146 L298.929556,140.638 C299.307556,140.302 300.203556,139.77 301.029556,139.77 C302.009556,139.77 302.373556,140.316 302.373556,141.31 L302.373556,146 L303.647556,146 L303.647556,141.114 Z" id="Capitalization" fill="#414141"></path>
                            <g id="Rectangle-34-Copy-6">
                                <use fill="#FFFFFF" fill-rule="evenodd" xlink:href="#path-6"></use>
                                <rect stroke="#CCCCCC" stroke-width="1.5" x="51.75" y="84.75" width="155.5" height="29.6200008"></rect>
                            </g>
                            <g id="Rectangle-34-Copy-7">
                                <use fill="#FFFFFF" fill-rule="evenodd" xlink:href="#path-7"></use>
                                <rect stroke="#CCCCCC" stroke-width="1.5" x="218.75" y="84.75" width="140.5" height="29.6181102"></rect>
                            </g>
                            <path d="M64.152,104.168 C65.93,104.168 67.764,103.412 68.114,101.172 L66.952,100.934 C66.63,102.362 65.846,103.062 64.236,103.062 C62.206,103.062 61.03,101.886 61.03,98.974 C61.03,96.188 62.304,94.802 64.404,94.802 C66.07,94.802 66.784,95.628 66.98,97.21 L68.184,97.084 C68.03,94.718 66.546,93.682 64.418,93.682 C61.534,93.682 59.7,95.67 59.7,99.086 C59.7,102.124 60.974,104.168 64.152,104.168 Z M72.7308889,104.168 C70.2388889,104.168 69.4128889,102.558 69.4128889,100.43 C69.4128889,98.106 70.6168889,96.65 72.9128889,96.65 C75.1948889,96.65 76.1328889,98.12 76.1328889,100.262 C76.1328889,102.628 75.1528889,104.168 72.7308889,104.168 Z M72.8008889,103.146 C74.0468889,103.146 74.8028889,102.39 74.8028889,100.346 C74.8028889,98.358 74.1028889,97.7 72.8568889,97.7 C71.5828889,97.7 70.7288889,98.456 70.7288889,100.374 C70.7288889,102.278 71.4008889,103.146 72.8008889,103.146 Z M79.2657778,98.624 C79.6437778,98.274 80.5257778,97.77 81.2537778,97.77 C82.1777778,97.77 82.3737778,98.316 82.3737778,99.282 L82.3737778,104 L83.6477778,104 L83.6477778,99.1 C83.6477778,98.918 83.6337778,98.736 83.6197778,98.568 C84.0397778,98.218 84.8657778,97.77 85.5517778,97.77 C86.4757778,97.77 86.6717778,98.316 86.6717778,99.282 L86.6717778,104 L87.9457778,104 L87.9457778,99.1 C87.9457778,97.49 87.4137778,96.65 85.9017778,96.65 C84.9217778,96.65 84.1097778,97.084 83.4097778,97.644 C83.1297778,96.972 82.5557778,96.65 81.6037778,96.65 C80.6237778,96.65 79.8677778,97.07 79.1537778,97.616 L79.0837778,96.804 L77.9917778,96.804 L77.9917778,104 L79.2657778,104 L79.2657778,98.624 Z M90.1546667,106.968 L90.1546667,96.804 L91.2606667,96.804 L91.3306667,97.63 C91.9886667,97.042 92.8006667,96.65 93.8226667,96.65 C95.3346667,96.65 96.4546667,97.588 96.4546667,100.234 C96.4546667,103.048 95.0686667,104.168 93.4586667,104.168 C92.5906667,104.168 91.9046667,103.86 91.3866667,103.468 L91.3866667,106.968 L90.1546667,106.968 Z M91.4286667,98.624 L91.4286667,102.376 C91.7366667,102.614 92.4506667,103.09 93.2766667,103.09 C94.6486667,103.09 95.1526667,101.942 95.1526667,100.22 C95.1526667,98.414 94.5926667,97.714 93.4446667,97.714 C92.6466667,97.714 91.8486667,98.204 91.4286667,98.624 Z M101.197556,104.168 C98.7055556,104.168 97.8795556,102.558 97.8795556,100.43 C97.8795556,98.106 99.0835556,96.65 101.379556,96.65 C103.661556,96.65 104.599556,98.12 104.599556,100.262 C104.599556,102.628 103.619556,104.168 101.197556,104.168 Z M101.267556,103.146 C102.513556,103.146 103.269556,102.39 103.269556,100.346 C103.269556,98.358 102.569556,97.7 101.323556,97.7 C100.049556,97.7 99.1955556,98.456 99.1955556,100.374 C99.1955556,102.278 99.8675556,103.146 101.267556,103.146 Z M106.430444,101.69 C106.430444,103.3 107.102444,104.14 108.628444,104.14 C109.622444,104.14 110.476444,103.748 111.176444,103.174 L111.260444,104 L112.366444,104 L112.366444,96.804 L111.092444,96.804 L111.092444,102.152 C110.714444,102.502 109.832444,103.034 109.006444,103.034 C107.942444,103.034 107.704444,102.488 107.704444,101.494 L107.704444,96.804 L106.430444,96.804 L106.430444,101.69 Z M120.623333,99.114 C120.623333,97.49 119.951333,96.65 118.411333,96.65 C117.417333,96.65 116.521333,97.098 115.821333,97.658 L115.751333,96.804 L114.631333,96.804 L114.631333,104 L115.905333,104 L115.905333,98.638 C116.283333,98.302 117.179333,97.77 118.005333,97.77 C118.985333,97.77 119.349333,98.316 119.349333,99.31 L119.349333,104 L120.623333,104 L120.623333,99.114 Z M128.684222,93.43 L128.684222,104 L127.620222,104 L127.522222,103.23 L127.508222,103.216 C126.892222,103.776 126.164222,104.168 125.128222,104.168 C123.490222,104.168 122.384222,103.132 122.384222,100.514 C122.384222,97.672 123.826222,96.65 125.422222,96.65 C126.248222,96.65 126.934222,96.916 127.438222,97.322 L127.438222,93.43 L128.684222,93.43 Z M127.424222,102.222 L127.424222,98.372 C127.088222,98.12 126.416222,97.742 125.590222,97.742 C124.204222,97.742 123.700222,98.848 123.700222,100.514 C123.700222,102.264 124.246222,103.104 125.506222,103.104 C126.248222,103.104 126.976222,102.67 127.424222,102.222 Z M137.022,94.774 C138.59,94.774 138.982,95.712 139.136,96.678 L140.34,96.538 C140.13,94.368 138.786,93.682 137.008,93.682 C135.048,93.682 133.592,94.746 133.592,96.482 C133.592,98.568 135.23,99.002 136.728,99.422 C137.974,99.772 139.108,100.108 139.108,101.368 C139.108,102.712 137.946,103.076 136.854,103.076 C135.118,103.076 134.614,102.138 134.376,101.06 L133.144,101.242 C133.41,103.328 134.726,104.168 136.84,104.168 C138.716,104.168 140.424,103.328 140.424,101.186 C140.424,99.226 138.814,98.75 137.33,98.316 C136.07,97.938 134.908,97.588 134.908,96.356 C134.908,95.46 135.468,94.774 137.022,94.774 Z M145.040889,104.168 C142.492889,104.168 141.722889,102.39 141.722889,100.416 C141.722889,97.784 143.262889,96.65 145.110889,96.65 C147.126889,96.65 147.966889,97.98 147.966889,99.758 C147.966889,100.038 147.952889,100.36 147.910889,100.696 L143.066889,100.696 C143.122889,102.53 143.934889,103.104 145.082889,103.104 C146.104889,103.104 146.580889,102.642 146.776889,101.83 L147.896889,102.082 C147.602889,103.482 146.482889,104.168 145.040889,104.168 Z M143.080889,99.688 L146.650889,99.688 C146.650889,98.4 146.160889,97.686 145.026889,97.686 C144.074889,97.686 143.150889,98.26 143.080889,99.688 Z M155.845778,99.114 C155.845778,97.49 155.173778,96.65 153.633778,96.65 C152.639778,96.65 151.743778,97.098 151.043778,97.658 L150.973778,96.804 L149.853778,96.804 L149.853778,104 L151.127778,104 L151.127778,98.638 C151.505778,98.302 152.401778,97.77 153.227778,97.77 C154.207778,97.77 154.571778,98.316 154.571778,99.31 L154.571778,104 L155.845778,104 L155.845778,99.114 Z M161.652667,102.768 C161.344667,102.936 160.826667,103.118 160.392667,103.118 C159.524667,103.118 159.356667,102.698 159.356667,101.942 L159.356667,97.826 L161.344667,97.826 L161.344667,96.804 L159.356667,96.804 L159.356667,94.522 L158.082667,94.718 L158.082667,96.804 L156.976667,96.804 L156.976667,97.826 L158.082667,97.826 L158.082667,102.11 C158.082667,103.552 158.768667,104.168 160.112667,104.168 C160.784667,104.168 161.526667,103.93 161.876667,103.692 L161.652667,102.768 Z M165.933556,104.168 C163.385556,104.168 162.615556,102.39 162.615556,100.416 C162.615556,97.784 164.155556,96.65 166.003556,96.65 C168.019556,96.65 168.859556,97.98 168.859556,99.758 C168.859556,100.038 168.845556,100.36 168.803556,100.696 L163.959556,100.696 C164.015556,102.53 164.827556,103.104 165.975556,103.104 C166.997556,103.104 167.473556,102.642 167.669556,101.83 L168.789556,102.082 C168.495556,103.482 167.375556,104.168 165.933556,104.168 Z M163.973556,99.688 L167.543556,99.688 C167.543556,98.4 167.053556,97.686 165.919556,97.686 C164.967556,97.686 164.043556,98.26 163.973556,99.688 Z M176.738444,99.114 C176.738444,97.49 176.066444,96.65 174.526444,96.65 C173.532444,96.65 172.636444,97.098 171.936444,97.658 L171.866444,96.804 L170.746444,96.804 L170.746444,104 L172.020444,104 L172.020444,98.638 C172.398444,98.302 173.294444,97.77 174.120444,97.77 C175.100444,97.77 175.464444,98.316 175.464444,99.31 L175.464444,104 L176.738444,104 L176.738444,99.114 Z M181.789333,104.168 C183.231333,104.168 184.505333,103.468 184.743333,101.802 L183.623333,101.564 C183.441333,102.628 182.811333,103.104 181.831333,103.104 C180.683333,103.104 179.815333,102.46 179.815333,100.318 C179.815333,98.274 180.837333,97.714 181.873333,97.714 C182.881333,97.714 183.371333,98.26 183.483333,99.324 L184.701333,99.156 C184.603333,97.49 183.539333,96.65 181.929333,96.65 C179.773333,96.65 178.485333,97.966 178.485333,100.472 C178.485333,102.628 179.409333,104.168 181.789333,104.168 Z M189.374222,104.168 C186.826222,104.168 186.056222,102.39 186.056222,100.416 C186.056222,97.784 187.596222,96.65 189.444222,96.65 C191.460222,96.65 192.300222,97.98 192.300222,99.758 C192.300222,100.038 192.286222,100.36 192.244222,100.696 L187.400222,100.696 C187.456222,102.53 188.268222,103.104 189.416222,103.104 C190.438222,103.104 190.914222,102.642 191.110222,101.83 L192.230222,102.082 C191.936222,103.482 190.816222,104.168 189.374222,104.168 Z M187.414222,99.688 L190.984222,99.688 C190.984222,98.4 190.494222,97.686 189.360222,97.686 C188.408222,97.686 187.484222,98.26 187.414222,99.688 Z M196.497111,96.65 C195.041111,96.65 193.837111,97.364 193.837111,98.82 C193.837111,100.5 195.251111,100.752 196.427111,100.99 C197.407111,101.186 197.995111,101.326 197.995111,102.124 C197.995111,102.894 197.365111,103.16 196.497111,103.16 C195.223111,103.16 194.901111,102.544 194.705111,101.774 L193.571111,102.082 C193.795111,103.524 194.789111,104.168 196.441111,104.168 C198.191111,104.168 199.255111,103.356 199.255111,101.984 C199.255111,100.374 198.009111,100.108 196.693111,99.828 C195.685111,99.618 195.097111,99.408 195.097111,98.666 C195.097111,98.12 195.433111,97.658 196.483111,97.658 C197.533111,97.658 197.813111,98.162 197.981111,98.988 L199.129111,98.736 C198.905111,97.462 198.205111,96.65 196.497111,96.65 Z" id="Compound-Sentences" fill="#414141"></path>
                            <path d="M231.152,104.168 C232.93,104.168 234.764,103.412 235.114,101.172 L233.952,100.934 C233.63,102.362 232.846,103.062 231.236,103.062 C229.206,103.062 228.03,101.886 228.03,98.974 C228.03,96.188 229.304,94.802 231.404,94.802 C233.07,94.802 233.784,95.628 233.98,97.21 L235.184,97.084 C235.03,94.718 233.546,93.682 231.418,93.682 C228.534,93.682 226.7,95.67 226.7,99.086 C226.7,102.124 227.974,104.168 231.152,104.168 Z M239.730889,104.168 C237.238889,104.168 236.412889,102.558 236.412889,100.43 C236.412889,98.106 237.616889,96.65 239.912889,96.65 C242.194889,96.65 243.132889,98.12 243.132889,100.262 C243.132889,102.628 242.152889,104.168 239.730889,104.168 Z M239.800889,103.146 C241.046889,103.146 241.802889,102.39 241.802889,100.346 C241.802889,98.358 241.102889,97.7 239.856889,97.7 C238.582889,97.7 237.728889,98.456 237.728889,100.374 C237.728889,102.278 238.400889,103.146 239.800889,103.146 Z M246.265778,98.624 C246.643778,98.274 247.525778,97.77 248.253778,97.77 C249.177778,97.77 249.373778,98.316 249.373778,99.282 L249.373778,104 L250.647778,104 L250.647778,99.1 C250.647778,98.918 250.633778,98.736 250.619778,98.568 C251.039778,98.218 251.865778,97.77 252.551778,97.77 C253.475778,97.77 253.671778,98.316 253.671778,99.282 L253.671778,104 L254.945778,104 L254.945778,99.1 C254.945778,97.49 254.413778,96.65 252.901778,96.65 C251.921778,96.65 251.109778,97.084 250.409778,97.644 C250.129778,96.972 249.555778,96.65 248.603778,96.65 C247.623778,96.65 246.867778,97.07 246.153778,97.616 L246.083778,96.804 L244.991778,96.804 L244.991778,104 L246.265778,104 L246.265778,98.624 Z M257.154667,106.968 L257.154667,96.804 L258.260667,96.804 L258.330667,97.63 C258.988667,97.042 259.800667,96.65 260.822667,96.65 C262.334667,96.65 263.454667,97.588 263.454667,100.234 C263.454667,103.048 262.068667,104.168 260.458667,104.168 C259.590667,104.168 258.904667,103.86 258.386667,103.468 L258.386667,106.968 L257.154667,106.968 Z M258.428667,98.624 L258.428667,102.376 C258.736667,102.614 259.450667,103.09 260.276667,103.09 C261.648667,103.09 262.152667,101.942 262.152667,100.22 C262.152667,98.414 261.592667,97.714 260.444667,97.714 C259.646667,97.714 258.848667,98.204 258.428667,98.624 Z M266.601556,93.43 L265.327556,93.43 L265.327556,104 L266.601556,104 L266.601556,93.43 Z M271.722444,104.168 C269.174444,104.168 268.404444,102.39 268.404444,100.416 C268.404444,97.784 269.944444,96.65 271.792444,96.65 C273.808444,96.65 274.648444,97.98 274.648444,99.758 C274.648444,100.038 274.634444,100.36 274.592444,100.696 L269.748444,100.696 C269.804444,102.53 270.616444,103.104 271.764444,103.104 C272.786444,103.104 273.262444,102.642 273.458444,101.83 L274.578444,102.082 C274.284444,103.482 273.164444,104.168 271.722444,104.168 Z M269.762444,99.688 L273.332444,99.688 C273.332444,98.4 272.842444,97.686 271.708444,97.686 C270.756444,97.686 269.832444,98.26 269.762444,99.688 Z M281.631333,96.804 L280.329333,96.804 L278.509333,99.422 L276.745333,96.804 L275.345333,96.804 L277.753333,100.29 L275.331333,104 L276.633333,104 L278.453333,101.172 L280.371333,104 L281.757333,104 L279.209333,100.262 L281.631333,96.804 Z M289.241111,94.774 C290.809111,94.774 291.201111,95.712 291.355111,96.678 L292.559111,96.538 C292.349111,94.368 291.005111,93.682 289.227111,93.682 C287.267111,93.682 285.811111,94.746 285.811111,96.482 C285.811111,98.568 287.449111,99.002 288.947111,99.422 C290.193111,99.772 291.327111,100.108 291.327111,101.368 C291.327111,102.712 290.165111,103.076 289.073111,103.076 C287.337111,103.076 286.833111,102.138 286.595111,101.06 L285.363111,101.242 C285.629111,103.328 286.945111,104.168 289.059111,104.168 C290.935111,104.168 292.643111,103.328 292.643111,101.186 C292.643111,99.226 291.033111,98.75 289.549111,98.316 C288.289111,97.938 287.127111,97.588 287.127111,96.356 C287.127111,95.46 287.687111,94.774 289.241111,94.774 Z M297.26,104.168 C294.712,104.168 293.942,102.39 293.942,100.416 C293.942,97.784 295.482,96.65 297.33,96.65 C299.346,96.65 300.186,97.98 300.186,99.758 C300.186,100.038 300.172,100.36 300.13,100.696 L295.286,100.696 C295.342,102.53 296.154,103.104 297.302,103.104 C298.324,103.104 298.8,102.642 298.996,101.83 L300.116,102.082 C299.822,103.482 298.702,104.168 297.26,104.168 Z M295.3,99.688 L298.87,99.688 C298.87,98.4 298.38,97.686 297.246,97.686 C296.294,97.686 295.37,98.26 295.3,99.688 Z M308.064889,99.114 C308.064889,97.49 307.392889,96.65 305.852889,96.65 C304.858889,96.65 303.962889,97.098 303.262889,97.658 L303.192889,96.804 L302.072889,96.804 L302.072889,104 L303.346889,104 L303.346889,98.638 C303.724889,98.302 304.620889,97.77 305.446889,97.77 C306.426889,97.77 306.790889,98.316 306.790889,99.31 L306.790889,104 L308.064889,104 L308.064889,99.114 Z M313.871778,102.768 C313.563778,102.936 313.045778,103.118 312.611778,103.118 C311.743778,103.118 311.575778,102.698 311.575778,101.942 L311.575778,97.826 L313.563778,97.826 L313.563778,96.804 L311.575778,96.804 L311.575778,94.522 L310.301778,94.718 L310.301778,96.804 L309.195778,96.804 L309.195778,97.826 L310.301778,97.826 L310.301778,102.11 C310.301778,103.552 310.987778,104.168 312.331778,104.168 C313.003778,104.168 313.745778,103.93 314.095778,103.692 L313.871778,102.768 Z M318.152667,104.168 C315.604667,104.168 314.834667,102.39 314.834667,100.416 C314.834667,97.784 316.374667,96.65 318.222667,96.65 C320.238667,96.65 321.078667,97.98 321.078667,99.758 C321.078667,100.038 321.064667,100.36 321.022667,100.696 L316.178667,100.696 C316.234667,102.53 317.046667,103.104 318.194667,103.104 C319.216667,103.104 319.692667,102.642 319.888667,101.83 L321.008667,102.082 C320.714667,103.482 319.594667,104.168 318.152667,104.168 Z M316.192667,99.688 L319.762667,99.688 C319.762667,98.4 319.272667,97.686 318.138667,97.686 C317.186667,97.686 316.262667,98.26 316.192667,99.688 Z M328.957556,99.114 C328.957556,97.49 328.285556,96.65 326.745556,96.65 C325.751556,96.65 324.855556,97.098 324.155556,97.658 L324.085556,96.804 L322.965556,96.804 L322.965556,104 L324.239556,104 L324.239556,98.638 C324.617556,98.302 325.513556,97.77 326.339556,97.77 C327.319556,97.77 327.683556,98.316 327.683556,99.31 L327.683556,104 L328.957556,104 L328.957556,99.114 Z M334.008444,104.168 C335.450444,104.168 336.724444,103.468 336.962444,101.802 L335.842444,101.564 C335.660444,102.628 335.030444,103.104 334.050444,103.104 C332.902444,103.104 332.034444,102.46 332.034444,100.318 C332.034444,98.274 333.056444,97.714 334.092444,97.714 C335.100444,97.714 335.590444,98.26 335.702444,99.324 L336.920444,99.156 C336.822444,97.49 335.758444,96.65 334.148444,96.65 C331.992444,96.65 330.704444,97.966 330.704444,100.472 C330.704444,102.628 331.628444,104.168 334.008444,104.168 Z M341.593333,104.168 C339.045333,104.168 338.275333,102.39 338.275333,100.416 C338.275333,97.784 339.815333,96.65 341.663333,96.65 C343.679333,96.65 344.519333,97.98 344.519333,99.758 C344.519333,100.038 344.505333,100.36 344.463333,100.696 L339.619333,100.696 C339.675333,102.53 340.487333,103.104 341.635333,103.104 C342.657333,103.104 343.133333,102.642 343.329333,101.83 L344.449333,102.082 C344.155333,103.482 343.035333,104.168 341.593333,104.168 Z M339.633333,99.688 L343.203333,99.688 C343.203333,98.4 342.713333,97.686 341.579333,97.686 C340.627333,97.686 339.703333,98.26 339.633333,99.688 Z M348.716222,96.65 C347.260222,96.65 346.056222,97.364 346.056222,98.82 C346.056222,100.5 347.470222,100.752 348.646222,100.99 C349.626222,101.186 350.214222,101.326 350.214222,102.124 C350.214222,102.894 349.584222,103.16 348.716222,103.16 C347.442222,103.16 347.120222,102.544 346.924222,101.774 L345.790222,102.082 C346.014222,103.524 347.008222,104.168 348.660222,104.168 C350.410222,104.168 351.474222,103.356 351.474222,101.984 C351.474222,100.374 350.228222,100.108 348.912222,99.828 C347.904222,99.618 347.316222,99.408 347.316222,98.666 C347.316222,98.12 347.652222,97.658 348.702222,97.658 C349.752222,97.658 350.032222,98.162 350.200222,98.988 L351.348222,98.736 C351.124222,97.462 350.424222,96.65 348.716222,96.65 Z" id="Complex-Sentences" fill="#414141"></path>
                            <g id="Rectangle-34-Copy-5">
                                <use fill="#FFFFFF" fill-rule="evenodd" xlink:href="#path-8"></use>
                                <rect stroke="#00C2A2" stroke-width="1.5" x="7.75" y="42.75" width="96.5" height="29.6200008"></rect>
                            </g>
                            <g id="Rectangle-34-Copy-12">
                                <use fill="#FFFFFF" fill-rule="evenodd" xlink:href="#path-9"></use>
                                <rect stroke="#00C2A2" stroke-width="1.5" x="115.75" y="42.75" width="179.5" height="29.6200008"></rect>
                            </g>
                            <g id="Rectangle-34-Copy-4">
                                <use fill="#FFFFFF" fill-rule="evenodd" xlink:href="#path-10"></use>
                                <rect stroke="#00C2A2" stroke-width="1.5" x="306.75" y="42.75" width="96.5" height="29.6200008"></rect>
                            </g>
                            <path d="M317.618,58.318 L317.618,62 L316.344,62 L316.344,51.864 L319.648,51.864 C322.238,51.864 323.022,53.292 323.022,54.902 C323.022,57.31 321.594,58.318 319.158,58.318 L317.618,58.318 Z M317.618,57.212 L319.06,57.212 C320.53,57.212 321.692,56.862 321.692,54.972 C321.692,53.516 320.894,52.956 319.27,52.956 L317.618,52.956 L317.618,57.212 Z M328.618889,54.664 C328.534889,54.664 328.436889,54.65 328.352889,54.65 C327.344889,54.65 326.588889,54.986 325.958889,55.84 L325.860889,54.804 L324.796889,54.804 L324.796889,62 L326.070889,62 L326.070889,56.764 C326.658889,56.218 327.722889,55.854 328.618889,55.98 L328.618889,54.664 Z M332.605778,62.168 C330.057778,62.168 329.287778,60.39 329.287778,58.416 C329.287778,55.784 330.827778,54.65 332.675778,54.65 C334.691778,54.65 335.531778,55.98 335.531778,57.758 C335.531778,58.038 335.517778,58.36 335.475778,58.696 L330.631778,58.696 C330.687778,60.53 331.499778,61.104 332.647778,61.104 C333.669778,61.104 334.145778,60.642 334.341778,59.83 L335.461778,60.082 C335.167778,61.482 334.047778,62.168 332.605778,62.168 Z M330.645778,57.688 L334.215778,57.688 C334.215778,56.4 333.725778,55.686 332.591778,55.686 C331.639778,55.686 330.715778,56.26 330.645778,57.688 Z M337.418667,64.968 L337.418667,54.804 L338.524667,54.804 L338.594667,55.63 C339.252667,55.042 340.064667,54.65 341.086667,54.65 C342.598667,54.65 343.718667,55.588 343.718667,58.234 C343.718667,61.048 342.332667,62.168 340.722667,62.168 C339.854667,62.168 339.168667,61.86 338.650667,61.468 L338.650667,64.968 L337.418667,64.968 Z M338.692667,56.624 L338.692667,60.376 C339.000667,60.614 339.714667,61.09 340.540667,61.09 C341.912667,61.09 342.416667,59.942 342.416667,58.22 C342.416667,56.414 341.856667,55.714 340.708667,55.714 C339.910667,55.714 339.112667,56.204 338.692667,56.624 Z M348.461556,62.168 C345.969556,62.168 345.143556,60.558 345.143556,58.43 C345.143556,56.106 346.347556,54.65 348.643556,54.65 C350.925556,54.65 351.863556,56.12 351.863556,58.262 C351.863556,60.628 350.883556,62.168 348.461556,62.168 Z M348.531556,61.146 C349.777556,61.146 350.533556,60.39 350.533556,58.346 C350.533556,56.358 349.833556,55.7 348.587556,55.7 C347.313556,55.7 346.459556,56.456 346.459556,58.374 C346.459556,60.278 347.131556,61.146 348.531556,61.146 Z M356.032444,54.65 C354.576444,54.65 353.372444,55.364 353.372444,56.82 C353.372444,58.5 354.786444,58.752 355.962444,58.99 C356.942444,59.186 357.530444,59.326 357.530444,60.124 C357.530444,60.894 356.900444,61.16 356.032444,61.16 C354.758444,61.16 354.436444,60.544 354.240444,59.774 L353.106444,60.082 C353.330444,61.524 354.324444,62.168 355.976444,62.168 C357.726444,62.168 358.790444,61.356 358.790444,59.984 C358.790444,58.374 357.544444,58.108 356.228444,57.828 C355.220444,57.618 354.632444,57.408 354.632444,56.666 C354.632444,56.12 354.968444,55.658 356.018444,55.658 C357.068444,55.658 357.348444,56.162 357.516444,56.988 L358.664444,56.736 C358.440444,55.462 357.740444,54.65 356.032444,54.65 Z M361.825333,54.804 L360.551333,54.804 L360.551333,62 L361.825333,62 L361.825333,54.804 Z M362.119333,52.494 C362.119333,51.906 361.783333,51.584 361.209333,51.584 C360.635333,51.584 360.313333,51.906 360.313333,52.494 C360.313333,53.082 360.635333,53.418 361.209333,53.418 C361.783333,53.418 362.119333,53.082 362.119333,52.494 Z M367.870222,60.768 C367.562222,60.936 367.044222,61.118 366.610222,61.118 C365.742222,61.118 365.574222,60.698 365.574222,59.942 L365.574222,55.826 L367.562222,55.826 L367.562222,54.804 L365.574222,54.804 L365.574222,52.522 L364.300222,52.718 L364.300222,54.804 L363.194222,54.804 L363.194222,55.826 L364.300222,55.826 L364.300222,60.11 C364.300222,61.552 364.986222,62.168 366.330222,62.168 C367.002222,62.168 367.744222,61.93 368.094222,61.692 L367.870222,60.768 Z M370.695111,54.804 L369.421111,54.804 L369.421111,62 L370.695111,62 L370.695111,54.804 Z M370.989111,52.494 C370.989111,51.906 370.653111,51.584 370.079111,51.584 C369.505111,51.584 369.183111,51.906 369.183111,52.494 C369.183111,53.082 369.505111,53.418 370.079111,53.418 C370.653111,53.418 370.989111,53.082 370.989111,52.494 Z M375.816,62.168 C373.324,62.168 372.498,60.558 372.498,58.43 C372.498,56.106 373.702,54.65 375.998,54.65 C378.28,54.65 379.218,56.12 379.218,58.262 C379.218,60.628 378.238,62.168 375.816,62.168 Z M375.886,61.146 C377.132,61.146 377.888,60.39 377.888,58.346 C377.888,56.358 377.188,55.7 375.942,55.7 C374.668,55.7 373.814,56.456 373.814,58.374 C373.814,60.278 374.486,61.146 375.886,61.146 Z M387.068889,57.114 C387.068889,55.49 386.396889,54.65 384.856889,54.65 C383.862889,54.65 382.966889,55.098 382.266889,55.658 L382.196889,54.804 L381.076889,54.804 L381.076889,62 L382.350889,62 L382.350889,56.638 C382.728889,56.302 383.624889,55.77 384.450889,55.77 C385.430889,55.77 385.794889,56.316 385.794889,57.31 L385.794889,62 L387.068889,62 L387.068889,57.114 Z M391.601778,54.65 C390.145778,54.65 388.941778,55.364 388.941778,56.82 C388.941778,58.5 390.355778,58.752 391.531778,58.99 C392.511778,59.186 393.099778,59.326 393.099778,60.124 C393.099778,60.894 392.469778,61.16 391.601778,61.16 C390.327778,61.16 390.005778,60.544 389.809778,59.774 L388.675778,60.082 C388.899778,61.524 389.893778,62.168 391.545778,62.168 C393.295778,62.168 394.359778,61.356 394.359778,59.984 C394.359778,58.374 393.113778,58.108 391.797778,57.828 C390.789778,57.618 390.201778,57.408 390.201778,56.666 C390.201778,56.12 390.537778,55.658 391.587778,55.658 C392.637778,55.658 392.917778,56.162 393.085778,56.988 L394.233778,56.736 C394.009778,55.462 393.309778,54.65 391.601778,54.65 Z" id="Prepositions" fill="#414141"></path>
                            <path d="M34.92,51.864 L36.6,51.864 L40.128,62 L38.714,62 L37.692,58.99 L33.8,58.99 L32.806,62 L31.504,62 L34.92,51.864 Z M37.37,57.884 L35.746,53.04 L35.732,53.04 L34.108,57.884 L37.37,57.884 Z M45.6128889,54.664 C45.5288889,54.664 45.4308889,54.65 45.3468889,54.65 C44.3388889,54.65 43.5828889,54.986 42.9528889,55.84 L42.8548889,54.804 L41.7908889,54.804 L41.7908889,62 L43.0648889,62 L43.0648889,56.764 C43.6528889,56.218 44.7168889,55.854 45.6128889,55.98 L45.6128889,54.664 Z M50.7197778,60.768 C50.4117778,60.936 49.8937778,61.118 49.4597778,61.118 C48.5917778,61.118 48.4237778,60.698 48.4237778,59.942 L48.4237778,55.826 L50.4117778,55.826 L50.4117778,54.804 L48.4237778,54.804 L48.4237778,52.522 L47.1497778,52.718 L47.1497778,54.804 L46.0437778,54.804 L46.0437778,55.826 L47.1497778,55.826 L47.1497778,60.11 C47.1497778,61.552 47.8357778,62.168 49.1797778,62.168 C49.8517778,62.168 50.5937778,61.93 50.9437778,61.692 L50.7197778,60.768 Z M53.5446667,54.804 L52.2706667,54.804 L52.2706667,62 L53.5446667,62 L53.5446667,54.804 Z M53.8386667,52.494 C53.8386667,51.906 53.5026667,51.584 52.9286667,51.584 C52.3546667,51.584 52.0326667,51.906 52.0326667,52.494 C52.0326667,53.082 52.3546667,53.418 52.9286667,53.418 C53.5026667,53.418 53.8386667,53.082 53.8386667,52.494 Z M58.6515556,62.168 C60.0935556,62.168 61.3675556,61.468 61.6055556,59.802 L60.4855556,59.564 C60.3035556,60.628 59.6735556,61.104 58.6935556,61.104 C57.5455556,61.104 56.6775556,60.46 56.6775556,58.318 C56.6775556,56.274 57.6995556,55.714 58.7355556,55.714 C59.7435556,55.714 60.2335556,56.26 60.3455556,57.324 L61.5635556,57.156 C61.4655556,55.49 60.4015556,54.65 58.7915556,54.65 C56.6355556,54.65 55.3475556,55.966 55.3475556,58.472 C55.3475556,60.628 56.2715556,62.168 58.6515556,62.168 Z M64.6404445,51.43 L63.3664445,51.43 L63.3664445,62 L64.6404445,62 L64.6404445,51.43 Z M69.7613333,62.168 C67.2133333,62.168 66.4433333,60.39 66.4433333,58.416 C66.4433333,55.784 67.9833333,54.65 69.8313333,54.65 C71.8473333,54.65 72.6873333,55.98 72.6873333,57.758 C72.6873333,58.038 72.6733333,58.36 72.6313333,58.696 L67.7873333,58.696 C67.8433333,60.53 68.6553333,61.104 69.8033333,61.104 C70.8253333,61.104 71.3013333,60.642 71.4973333,59.83 L72.6173333,60.082 C72.3233333,61.482 71.2033333,62.168 69.7613333,62.168 Z M67.8013333,57.688 L71.3713333,57.688 C71.3713333,56.4 70.8813333,55.686 69.7473333,55.686 C68.7953333,55.686 67.8713333,56.26 67.8013333,57.688 Z M76.8842222,54.65 C75.4282222,54.65 74.2242222,55.364 74.2242222,56.82 C74.2242222,58.5 75.6382222,58.752 76.8142222,58.99 C77.7942222,59.186 78.3822222,59.326 78.3822222,60.124 C78.3822222,60.894 77.7522222,61.16 76.8842222,61.16 C75.6102222,61.16 75.2882222,60.544 75.0922222,59.774 L73.9582222,60.082 C74.1822222,61.524 75.1762222,62.168 76.8282222,62.168 C78.5782222,62.168 79.6422222,61.356 79.6422222,59.984 C79.6422222,58.374 78.3962222,58.108 77.0802222,57.828 C76.0722222,57.618 75.4842222,57.408 75.4842222,56.666 C75.4842222,56.12 75.8202222,55.658 76.8702222,55.658 C77.9202222,55.658 78.2002222,56.162 78.3682222,56.988 L79.5162222,56.736 C79.2922222,55.462 78.5922222,54.65 76.8842222,54.65 Z" id="Articles" fill="#414141"></path>
                            <path d="M132.186,52.774 C133.754,52.774 134.146,53.712 134.3,54.678 L135.504,54.538 C135.294,52.368 133.95,51.682 132.172,51.682 C130.212,51.682 128.756,52.746 128.756,54.482 C128.756,56.568 130.394,57.002 131.892,57.422 C133.138,57.772 134.272,58.108 134.272,59.368 C134.272,60.712 133.11,61.076 132.018,61.076 C130.282,61.076 129.778,60.138 129.54,59.06 L128.308,59.242 C128.574,61.328 129.89,62.168 132.004,62.168 C133.88,62.168 135.588,61.328 135.588,59.186 C135.588,57.226 133.978,56.75 132.494,56.316 C131.234,55.938 130.072,55.588 130.072,54.356 C130.072,53.46 130.632,52.774 132.186,52.774 Z M137.306889,59.69 C137.306889,61.3 137.978889,62.14 139.504889,62.14 C140.498889,62.14 141.352889,61.748 142.052889,61.174 L142.136889,62 L143.242889,62 L143.242889,54.804 L141.968889,54.804 L141.968889,60.152 C141.590889,60.502 140.708889,61.034 139.882889,61.034 C138.818889,61.034 138.580889,60.488 138.580889,59.494 L138.580889,54.804 L137.306889,54.804 L137.306889,59.69 Z M146.613778,62 L145.507778,62 L145.507778,51.43 L146.767778,51.43 L146.767778,55.602 C147.397778,55.042 148.153778,54.65 149.203778,54.65 C150.687778,54.65 151.821778,55.588 151.821778,58.234 C151.821778,61.034 150.449778,62.168 148.783778,62.168 C147.929778,62.168 147.215778,61.776 146.697778,61.37 L146.683778,61.37 L146.613778,62 Z M146.781778,56.624 L146.781778,60.348 C147.103778,60.586 147.803778,61.09 148.629778,61.09 C149.987778,61.09 150.505778,59.97 150.505778,58.22 C150.505778,56.512 149.987778,55.728 148.797778,55.728 C147.999778,55.728 147.201778,56.218 146.781778,56.624 Z M152.910667,65.122 C152.448667,65.122 151.804667,64.996 151.552667,64.842 L151.692667,63.806 C151.972667,63.918 152.392667,64.016 152.742667,64.016 C153.316667,64.016 153.680667,63.736 153.680667,62.882 L153.680667,54.804 L154.954667,54.804 L154.954667,62.938 C154.954667,64.464 154.212667,65.122 152.910667,65.122 Z M155.248667,52.382 C155.248667,51.808 154.926667,51.472 154.352667,51.472 C153.778667,51.472 153.442667,51.808 153.442667,52.382 C153.442667,52.97 153.778667,53.306 154.352667,53.306 C154.926667,53.306 155.248667,52.97 155.248667,52.382 Z M160.047556,62.168 C157.499556,62.168 156.729556,60.39 156.729556,58.416 C156.729556,55.784 158.269556,54.65 160.117556,54.65 C162.133556,54.65 162.973556,55.98 162.973556,57.758 C162.973556,58.038 162.959556,58.36 162.917556,58.696 L158.073556,58.696 C158.129556,60.53 158.941556,61.104 160.089556,61.104 C161.111556,61.104 161.587556,60.642 161.783556,59.83 L162.903556,60.082 C162.609556,61.482 161.489556,62.168 160.047556,62.168 Z M158.087556,57.688 L161.657556,57.688 C161.657556,56.4 161.167556,55.686 160.033556,55.686 C159.081556,55.686 158.157556,56.26 158.087556,57.688 Z M167.716444,62.168 C169.158444,62.168 170.432444,61.468 170.670444,59.802 L169.550444,59.564 C169.368444,60.628 168.738444,61.104 167.758444,61.104 C166.610444,61.104 165.742444,60.46 165.742444,58.318 C165.742444,56.274 166.764444,55.714 167.800444,55.714 C168.808444,55.714 169.298444,56.26 169.410444,57.324 L170.628444,57.156 C170.530444,55.49 169.466444,54.65 167.856444,54.65 C165.700444,54.65 164.412444,55.966 164.412444,58.472 C164.412444,60.628 165.336444,62.168 167.716444,62.168 Z M176.225333,60.768 C175.917333,60.936 175.399333,61.118 174.965333,61.118 C174.097333,61.118 173.929333,60.698 173.929333,59.942 L173.929333,55.826 L175.917333,55.826 L175.917333,54.804 L173.929333,54.804 L173.929333,52.522 L172.655333,52.718 L172.655333,54.804 L171.549333,54.804 L171.549333,55.826 L172.655333,55.826 L172.655333,60.11 C172.655333,61.552 173.341333,62.168 174.685333,62.168 C175.357333,62.168 176.099333,61.93 176.449333,61.692 L176.225333,60.768 Z M180.296222,58.486 L176.502222,58.486 L176.502222,57.268 L180.296222,57.268 L180.296222,58.486 Z M185.291111,62 L183.541111,62 L180.125111,51.864 L181.567111,51.864 L184.437111,60.754 L184.451111,60.754 L187.223111,51.864 L188.539111,51.864 L185.291111,62 Z M192.12,62.168 C189.572,62.168 188.802,60.39 188.802,58.416 C188.802,55.784 190.342,54.65 192.19,54.65 C194.206,54.65 195.046,55.98 195.046,57.758 C195.046,58.038 195.032,58.36 194.99,58.696 L190.146,58.696 C190.202,60.53 191.014,61.104 192.162,61.104 C193.184,61.104 193.66,60.642 193.856,59.83 L194.976,60.082 C194.682,61.482 193.562,62.168 192.12,62.168 Z M190.16,57.688 L193.73,57.688 C193.73,56.4 193.24,55.686 192.106,55.686 C191.154,55.686 190.23,56.26 190.16,57.688 Z M200.754889,54.664 C200.670889,54.664 200.572889,54.65 200.488889,54.65 C199.480889,54.65 198.724889,54.986 198.094889,55.84 L197.996889,54.804 L196.932889,54.804 L196.932889,62 L198.206889,62 L198.206889,56.764 C198.794889,56.218 199.858889,55.854 200.754889,55.98 L200.754889,54.664 Z M203.173778,62 L202.067778,62 L202.067778,51.43 L203.327778,51.43 L203.327778,55.602 C203.957778,55.042 204.713778,54.65 205.763778,54.65 C207.247778,54.65 208.381778,55.588 208.381778,58.234 C208.381778,61.034 207.009778,62.168 205.343778,62.168 C204.489778,62.168 203.775778,61.776 203.257778,61.37 L203.243778,61.37 L203.173778,62 Z M203.341778,56.624 L203.341778,60.348 C203.663778,60.586 204.363778,61.09 205.189778,61.09 C206.547778,61.09 207.065778,59.97 207.065778,58.22 C207.065778,56.512 206.547778,55.728 205.357778,55.728 C204.559778,55.728 203.761778,56.218 203.341778,56.624 Z M216.061556,51.864 L217.741556,51.864 L221.269556,62 L219.855556,62 L218.833556,58.99 L214.941556,58.99 L213.947556,62 L212.645556,62 L216.061556,51.864 Z M218.511556,57.884 L216.887556,53.04 L216.873556,53.04 L215.249556,57.884 L218.511556,57.884 Z M225.564444,54.65 C226.446444,54.65 227.174444,54.832 227.650444,55.308 C227.874444,54.79 228.252444,54.37 228.784444,54.37 C229.008444,54.37 229.204444,54.412 229.414444,54.482 L229.414444,55.504 C228.980444,55.476 228.406444,55.546 228.042444,55.658 C228.392444,56.064 228.574444,56.638 228.574444,57.226 C228.574444,58.85 227.286444,59.802 225.634444,59.802 C225.158444,59.802 224.710444,59.76 224.346444,59.634 C224.150444,59.816 223.898444,60.012 223.898444,60.306 C223.898444,60.586 224.052444,60.796 224.822444,60.852 L226.824444,60.992 C228.308444,61.09 229.176444,61.454 229.176444,62.868 C229.176444,64.632 227.286444,65.164 225.480444,65.164 C222.792444,65.164 222.246444,64.24 222.246444,63.386 C222.246444,62.574 222.820444,62.014 223.408444,61.734 L223.408444,61.72 C222.918444,61.524 222.624444,61.244 222.624444,60.726 C222.624444,60.11 223.072444,59.704 223.576444,59.312 C222.918444,58.962 222.512444,58.22 222.512444,57.296 C222.512444,55.714 223.702444,54.65 225.564444,54.65 Z M227.342444,57.24 C227.342444,56.162 226.684444,55.672 225.606444,55.672 C224.598444,55.672 223.786444,56.106 223.786444,57.212 C223.786444,58.15 224.304444,58.752 225.578444,58.752 C226.628444,58.752 227.342444,58.206 227.342444,57.24 Z M227.860444,63.022 C227.860444,62.504 227.636444,62.224 226.656444,62.154 L224.318444,62.014 C223.772444,62.378 223.520444,62.672 223.520444,63.148 C223.520444,63.75 224.010444,64.156 225.634444,64.156 C227.118444,64.156 227.860444,63.778 227.860444,63.022 Z M234.521333,54.664 C234.437333,54.664 234.339333,54.65 234.255333,54.65 C233.247333,54.65 232.491333,54.986 231.861333,55.84 L231.763333,54.804 L230.699333,54.804 L230.699333,62 L231.973333,62 L231.973333,56.764 C232.561333,56.218 233.625333,55.854 234.521333,55.98 L234.521333,54.664 Z M238.508222,62.168 C235.960222,62.168 235.190222,60.39 235.190222,58.416 C235.190222,55.784 236.730222,54.65 238.578222,54.65 C240.594222,54.65 241.434222,55.98 241.434222,57.758 C241.434222,58.038 241.420222,58.36 241.378222,58.696 L236.534222,58.696 C236.590222,60.53 237.402222,61.104 238.550222,61.104 C239.572222,61.104 240.048222,60.642 240.244222,59.83 L241.364222,60.082 C241.070222,61.482 239.950222,62.168 238.508222,62.168 Z M236.548222,57.688 L240.118222,57.688 C240.118222,56.4 239.628222,55.686 238.494222,55.686 C237.542222,55.686 236.618222,56.26 236.548222,57.688 Z M246.191111,62.168 C243.643111,62.168 242.873111,60.39 242.873111,58.416 C242.873111,55.784 244.413111,54.65 246.261111,54.65 C248.277111,54.65 249.117111,55.98 249.117111,57.758 C249.117111,58.038 249.103111,58.36 249.061111,58.696 L244.217111,58.696 C244.273111,60.53 245.085111,61.104 246.233111,61.104 C247.255111,61.104 247.731111,60.642 247.927111,59.83 L249.047111,60.082 C248.753111,61.482 247.633111,62.168 246.191111,62.168 Z M244.231111,57.688 L247.801111,57.688 C247.801111,56.4 247.311111,55.686 246.177111,55.686 C245.225111,55.686 244.301111,56.26 244.231111,57.688 Z M252.278,56.624 C252.656,56.274 253.538,55.77 254.266,55.77 C255.19,55.77 255.386,56.316 255.386,57.282 L255.386,62 L256.66,62 L256.66,57.1 C256.66,56.918 256.646,56.736 256.632,56.568 C257.052,56.218 257.878,55.77 258.564,55.77 C259.488,55.77 259.684,56.316 259.684,57.282 L259.684,62 L260.958,62 L260.958,57.1 C260.958,55.49 260.426,54.65 258.914,54.65 C257.934,54.65 257.122,55.084 256.422,55.644 C256.142,54.972 255.568,54.65 254.616,54.65 C253.636,54.65 252.88,55.07 252.166,55.616 L252.096,54.804 L251.004,54.804 L251.004,62 L252.278,62 L252.278,56.624 Z M266.036889,62.168 C263.488889,62.168 262.718889,60.39 262.718889,58.416 C262.718889,55.784 264.258889,54.65 266.106889,54.65 C268.122889,54.65 268.962889,55.98 268.962889,57.758 C268.962889,58.038 268.948889,58.36 268.906889,58.696 L264.062889,58.696 C264.118889,60.53 264.930889,61.104 266.078889,61.104 C267.100889,61.104 267.576889,60.642 267.772889,59.83 L268.892889,60.082 C268.598889,61.482 267.478889,62.168 266.036889,62.168 Z M264.076889,57.688 L267.646889,57.688 C267.646889,56.4 267.156889,55.686 266.022889,55.686 C265.070889,55.686 264.146889,56.26 264.076889,57.688 Z M276.841778,57.114 C276.841778,55.49 276.169778,54.65 274.629778,54.65 C273.635778,54.65 272.739778,55.098 272.039778,55.658 L271.969778,54.804 L270.849778,54.804 L270.849778,62 L272.123778,62 L272.123778,56.638 C272.501778,56.302 273.397778,55.77 274.223778,55.77 C275.203778,55.77 275.567778,56.316 275.567778,57.31 L275.567778,62 L276.841778,62 L276.841778,57.114 Z M282.648667,60.768 C282.340667,60.936 281.822667,61.118 281.388667,61.118 C280.520667,61.118 280.352667,60.698 280.352667,59.942 L280.352667,55.826 L282.340667,55.826 L282.340667,54.804 L280.352667,54.804 L280.352667,52.522 L279.078667,52.718 L279.078667,54.804 L277.972667,54.804 L277.972667,55.826 L279.078667,55.826 L279.078667,60.11 C279.078667,61.552 279.764667,62.168 281.108667,62.168 C281.780667,62.168 282.522667,61.93 282.872667,61.692 L282.648667,60.768 Z" id="Subject-Verb-Agreeme" fill="#414141"></path>
                            <circle id="Oval-5" fill="#00C2A2" cx="7.5" cy="41.5" r="7.5"></circle>
                            <path d="M7.5,37.5 L7.5,45.5" id="Line" stroke="#FFFFFF" stroke-linecap="square"></path>
                            <path d="M3.5,41.5 L11.5,41.5" id="Line" stroke="#FFFFFF" stroke-linecap="square"></path>
                            <circle id="Oval-5" fill="#00C2A2" cx="115.5" cy="41.5" r="7.5"></circle>
                            <path d="M115.5,37.5 L115.5,45.5" id="Line" stroke="#FFFFFF" stroke-linecap="square"></path>
                            <path d="M111.5,41.5 L119.5,41.5" id="Line" stroke="#FFFFFF" stroke-linecap="square"></path>
                            <circle id="Oval-5" fill="#00C2A2" cx="306.5" cy="41.5" r="7.5"></circle>
                            <path d="M306.5,37.5 L306.5,45.5" id="Line" stroke="#FFFFFF" stroke-linecap="square"></path>
                            <path d="M302.5,41.5 L310.5,41.5" id="Line" stroke="#FFFFFF" stroke-linecap="square"></path>
                            <circle id="Oval-5" fill="#00C2A2" cx="97.5" cy="125.5" r="7.5"></circle>
                            <path d="M97.5,121.5 L97.5,129.5" id="Line" stroke="#FFFFFF" stroke-linecap="square"></path>
                            <path d="M93.5,125.5 L101.5,125.5" id="Line" stroke="#FFFFFF" stroke-linecap="square"></path>
                            <circle id="Oval-5" fill="#00C2A2" cx="206.5" cy="125.5" r="7.5"></circle>
                            <path d="M206.5,121.5 L206.5,129.5" id="Line" stroke="#FFFFFF" stroke-linecap="square"></path>
                            <path d="M202.5,125.5 L210.5,125.5" id="Line" stroke="#FFFFFF" stroke-linecap="square"></path>
                        </g>
                    </g>
                    <g id="Group-8" transform="translate(250.000000, 0.000000)"></g>
                    <g id="Group-9" transform="translate(50.000000, 0.000000)"></g>
                </g>
                <g id="Group-14" transform="translate(97.000000, 126.000000)">
                    <g id="Group-11"></g>
                    <g id="Group-9-Copy" transform="translate(109.000000, 0.000000)"></g>
                </g>
                <g id="Group-13" transform="translate(51.000000, 84.000000)"></g>
                <g id="Group-12" transform="translate(7.000000, 42.000000)">
                    <g id="Group-10" transform="translate(24.000000, 0.000000)"></g>
                </g>
            </g>
        </g>
    </g>
</svg>