<?xml version="1.0" encoding="UTF-8" standalone="no"?>
<svg width="312px" height="202px" viewBox="0 0 312 202" version="1.1" xmlns="http://www.w3.org/2000/svg" xmlns:xlink="http://www.w3.org/1999/xlink">
    <!-- Generator: Sketch 39.1 (31720) - http://www.bohemiancoding.com/sketch -->
    <title>Group 4</title>
    <desc>Created with Sketch.</desc>
    <defs>
        <rect id="path-1" x="69" y="34" width="122" height="50"></rect>
        <mask id="mask-2" maskContentUnits="userSpaceOnUse" maskUnits="objectBoundingBox" x="0" y="0" width="122" height="50" fill="white">
            <use xlink:href="#path-1"></use>
        </mask>
        <rect id="path-3" x="190" y="34" width="122" height="50"></rect>
        <mask id="mask-4" maskContentUnits="userSpaceOnUse" maskUnits="objectBoundingBox" x="0" y="0" width="122" height="50" fill="white">
            <use xlink:href="#path-3"></use>
        </mask>
        <rect id="path-5" x="69" y="93" width="122" height="50"></rect>
        <mask id="mask-6" maskContentUnits="userSpaceOnUse" maskUnits="objectBoundingBox" x="0" y="0" width="122" height="50" fill="white">
            <use xlink:href="#path-5"></use>
        </mask>
        <rect id="path-7" x="190" y="93" width="122" height="50"></rect>
        <mask id="mask-8" maskContentUnits="userSpaceOnUse" maskUnits="objectBoundingBox" x="0" y="0" width="122" height="50" fill="white">
            <use xlink:href="#path-7"></use>
        </mask>
        <rect id="path-9" x="69" y="152" width="122" height="50"></rect>
        <mask id="mask-10" maskContentUnits="userSpaceOnUse" maskUnits="objectBoundingBox" x="0" y="0" width="122" height="50" fill="white">
            <use xlink:href="#path-9"></use>
        </mask>
        <rect id="path-11" x="190" y="152" width="122" height="50"></rect>
        <mask id="mask-12" maskContentUnits="userSpaceOnUse" maskUnits="objectBoundingBox" x="0" y="0" width="122" height="50" fill="white">
            <use xlink:href="#path-11"></use>
        </mask>
        <rect id="path-13" x="0" y="0" width="25" height="25"></rect>
        <mask id="mask-14" maskContentUnits="userSpaceOnUse" maskUnits="objectBoundingBox" x="0" y="0" width="25" height="25" fill="white">
            <use xlink:href="#path-13"></use>
        </mask>
        <rect id="path-15" x="0" y="0" width="17" height="17" rx="3"></rect>
        <mask id="mask-16" maskContentUnits="userSpaceOnUse" maskUnits="objectBoundingBox" x="0" y="0" width="17" height="17" fill="white">
            <use xlink:href="#path-15"></use>
        </mask>
        <rect id="path-17" x="0" y="0" width="17" height="17" rx="3"></rect>
        <mask id="mask-18" maskContentUnits="userSpaceOnUse" maskUnits="objectBoundingBox" x="0" y="0" width="17" height="17" fill="white">
            <use xlink:href="#path-17"></use>
        </mask>
        <rect id="path-19" x="0" y="0" width="17" height="17" rx="3"></rect>
        <mask id="mask-20" maskContentUnits="userSpaceOnUse" maskUnits="objectBoundingBox" x="0" y="0" width="17" height="17" fill="white">
            <use xlink:href="#path-19"></use>
        </mask>
        <rect id="path-21" x="0" y="0" width="17" height="17" rx="3"></rect>
        <mask id="mask-22" maskContentUnits="userSpaceOnUse" maskUnits="objectBoundingBox" x="0" y="0" width="17" height="17" fill="white">
            <use xlink:href="#path-21"></use>
        </mask>
        <rect id="path-23" x="0" y="0" width="17" height="17" rx="3"></rect>
        <mask id="mask-24" maskContentUnits="userSpaceOnUse" maskUnits="objectBoundingBox" x="0" y="0" width="17" height="17" fill="white">
            <use xlink:href="#path-23"></use>
        </mask>
        <rect id="path-25" x="0" y="0" width="17" height="17" rx="3"></rect>
        <mask id="mask-26" maskContentUnits="userSpaceOnUse" maskUnits="objectBoundingBox" x="0" y="0" width="17" height="17" fill="white">
            <use xlink:href="#path-25"></use>
        </mask>
    </defs>
    <g id="Welcome" stroke="none" stroke-width="1" fill="none" fill-rule="evenodd">
        <g id="Diagnostic---Intro-Slides---3" transform="translate(-505.000000, -144.000000)">
            <g id="Group-4" transform="translate(505.000000, 144.000000)">
                <use id="Rectangle-33" stroke="#CCCCCC" mask="url(#mask-2)" stroke-width="3" fill="#EAFCFF" xlink:href="#path-1"></use>
                <use id="Rectangle-33" stroke="#CCCCCC" mask="url(#mask-4)" stroke-width="3" fill="#EAFCFF" xlink:href="#path-3"></use>
                <use id="Rectangle-33" stroke="#CCCCCC" mask="url(#mask-6)" stroke-width="3" fill="#EAFCFF" xlink:href="#path-5"></use>
                <use id="Rectangle-33" stroke="#CCCCCC" mask="url(#mask-8)" stroke-width="3" fill="#EAFCFF" xlink:href="#path-7"></use>
                <use id="Rectangle-33" stroke="#CCCCCC" mask="url(#mask-10)" stroke-width="3" fill="#EAFCFF" xlink:href="#path-9"></use>
                <use id="Rectangle-33" stroke="#CCCCCC" mask="url(#mask-12)" stroke-width="3" fill="#EAFCFF" xlink:href="#path-11"></use>
                <path d="M3.264,58.96 L8.08,58.96 L8.08,57.408 L3.264,57.408 L3.264,53.984 L8.4,53.984 L8.4,52.416 L1.392,52.416 L1.392,64 L8.64,64 L8.64,62.432 L3.264,62.432 L3.264,58.96 Z M14.464,64 L17.488,55.728 L15.616,55.728 L13.472,62.192 L13.44,62.192 L11.28,55.728 L9.28,55.728 L12.336,64 L14.464,64 Z M22.112,64.192 C23.904,64.192 25.168,63.296 25.488,61.728 L23.92,61.344 C23.728,62.192 23.28,62.688 22.224,62.688 C21.024,62.688 20.192,62.064 20.144,60.32 L25.504,60.32 C25.536,59.936 25.552,59.552 25.552,59.216 C25.552,57.072 24.56,55.552 22.16,55.552 C20,55.552 18.208,56.88 18.208,59.872 C18.208,62.144 19.136,64.192 22.112,64.192 L22.112,64.192 Z M20.176,59.04 C20.256,57.568 21.12,57.008 22.048,57.008 C23.152,57.008 23.648,57.632 23.648,59.04 L20.176,59.04 Z M29.28,51.92 L27.44,51.92 L27.44,64 L29.28,64 L29.28,51.92 Z M33.536,64.128 L33.2,64.992 C32.864,65.84 32.416,66.128 31.856,66.128 C31.456,66.128 30.912,66 30.56,65.872 L30.384,67.248 C30.72,67.408 31.424,67.568 32.048,67.568 C33.52,67.568 34.256,66.88 34.928,65.056 C36,62.208 37.28,58.768 38.384,55.728 L36.496,55.728 L34.464,61.936 L34.448,61.936 L32.416,55.728 L30.432,55.728 L33.536,64.128 Z M46.688,58.368 C46.688,56.496 45.92,55.552 44.128,55.552 C42.992,55.552 42,56 41.264,56.592 L41.184,55.728 L39.552,55.728 L39.552,64 L41.392,64 L41.392,57.968 C41.792,57.6 42.656,57.088 43.488,57.088 C44.464,57.088 44.848,57.632 44.848,58.672 L44.848,64 L46.688,64 L46.688,58.368 Z" id="Evelyn" fill="#000000"></path>
                <path d="M107.152,55.168 C108.93,55.168 110.764,54.412 111.114,52.172 L109.952,51.934 C109.63,53.362 108.846,54.062 107.236,54.062 C105.206,54.062 104.03,52.886 104.03,49.974 C104.03,47.188 105.304,45.802 107.404,45.802 C109.07,45.802 109.784,46.628 109.98,48.21 L111.184,48.084 C111.03,45.718 109.546,44.682 107.418,44.682 C104.534,44.682 102.7,46.67 102.7,50.086 C102.7,53.124 103.974,55.168 107.152,55.168 L107.152,55.168 Z M115.692,55.168 C118.114,55.168 119.094,53.628 119.094,51.262 C119.094,49.12 118.156,47.65 115.874,47.65 C113.578,47.65 112.374,49.106 112.374,51.43 C112.374,53.558 113.2,55.168 115.692,55.168 L115.692,55.168 Z M115.762,54.146 C114.362,54.146 113.69,53.278 113.69,51.374 C113.69,49.456 114.544,48.7 115.818,48.7 C117.064,48.7 117.764,49.358 117.764,51.346 C117.764,53.39 117.008,54.146 115.762,54.146 L115.762,54.146 Z M122.188,49.624 C122.566,49.274 123.448,48.77 124.176,48.77 C125.1,48.77 125.296,49.316 125.296,50.282 L125.296,55 L126.57,55 L126.57,50.1 C126.57,49.918 126.556,49.736 126.542,49.568 C126.962,49.218 127.788,48.77 128.474,48.77 C129.398,48.77 129.594,49.316 129.594,50.282 L129.594,55 L130.868,55 L130.868,50.1 C130.868,48.49 130.336,47.65 128.824,47.65 C127.844,47.65 127.032,48.084 126.332,48.644 C126.052,47.972 125.478,47.65 124.526,47.65 C123.546,47.65 122.79,48.07 122.076,48.616 L122.006,47.804 L120.914,47.804 L120.914,55 L122.188,55 L122.188,49.624 Z M133.038,57.968 L134.27,57.968 L134.27,54.468 C134.788,54.86 135.474,55.168 136.342,55.168 C137.952,55.168 139.338,54.048 139.338,51.234 C139.338,48.588 138.218,47.65 136.706,47.65 C135.684,47.65 134.872,48.042 134.214,48.63 L134.144,47.804 L133.038,47.804 L133.038,57.968 Z M134.312,49.624 C134.732,49.204 135.53,48.714 136.328,48.714 C137.476,48.714 138.036,49.414 138.036,51.22 C138.036,52.942 137.532,54.09 136.16,54.09 C135.334,54.09 134.62,53.614 134.312,53.376 L134.312,49.624 Z M144.042,55.168 C146.464,55.168 147.444,53.628 147.444,51.262 C147.444,49.12 146.506,47.65 144.224,47.65 C141.928,47.65 140.724,49.106 140.724,51.43 C140.724,53.558 141.55,55.168 144.042,55.168 L144.042,55.168 Z M144.112,54.146 C142.712,54.146 142.04,53.278 142.04,51.374 C142.04,49.456 142.894,48.7 144.168,48.7 C145.414,48.7 146.114,49.358 146.114,51.346 C146.114,53.39 145.358,54.146 144.112,54.146 L144.112,54.146 Z M149.236,52.69 C149.236,54.3 149.908,55.14 151.434,55.14 C152.428,55.14 153.282,54.748 153.982,54.174 L154.066,55 L155.172,55 L155.172,47.804 L153.898,47.804 L153.898,53.152 C153.52,53.502 152.638,54.034 151.812,54.034 C150.748,54.034 150.51,53.488 150.51,52.494 L150.51,47.804 L149.236,47.804 L149.236,52.69 Z M163.39,50.114 C163.39,48.49 162.718,47.65 161.178,47.65 C160.184,47.65 159.288,48.098 158.588,48.658 L158.518,47.804 L157.398,47.804 L157.398,55 L158.672,55 L158.672,49.638 C159.05,49.302 159.946,48.77 160.772,48.77 C161.752,48.77 162.116,49.316 162.116,50.31 L162.116,55 L163.39,55 L163.39,50.114 Z M171.412,44.43 L170.166,44.43 L170.166,48.322 C169.662,47.916 168.976,47.65 168.15,47.65 C166.554,47.65 165.112,48.672 165.112,51.514 C165.112,54.132 166.218,55.168 167.856,55.168 C168.892,55.168 169.62,54.776 170.236,54.216 L170.25,54.23 L170.348,55 L171.412,55 L171.412,44.43 Z M170.152,53.222 C169.704,53.67 168.976,54.104 168.234,54.104 C166.974,54.104 166.428,53.264 166.428,51.514 C166.428,49.848 166.932,48.742 168.318,48.742 C169.144,48.742 169.816,49.12 170.152,49.372 L170.152,53.222 Z M106.186,61.774 C107.754,61.774 108.146,62.712 108.3,63.678 L109.504,63.538 C109.294,61.368 107.95,60.682 106.172,60.682 C104.212,60.682 102.756,61.746 102.756,63.482 C102.756,65.568 104.394,66.002 105.892,66.422 C107.138,66.772 108.272,67.108 108.272,68.368 C108.272,69.712 107.11,70.076 106.018,70.076 C104.282,70.076 103.778,69.138 103.54,68.06 L102.308,68.242 C102.574,70.328 103.89,71.168 106.004,71.168 C107.88,71.168 109.588,70.328 109.588,68.186 C109.588,66.226 107.978,65.75 106.494,65.316 C105.234,64.938 104.072,64.588 104.072,63.356 C104.072,62.46 104.632,61.774 106.186,61.774 L106.186,61.774 Z M114.166,71.168 C115.608,71.168 116.728,70.482 117.022,69.082 L115.902,68.83 C115.706,69.642 115.23,70.104 114.208,70.104 C113.06,70.104 112.248,69.53 112.192,67.696 L117.036,67.696 C117.078,67.36 117.092,67.038 117.092,66.758 C117.092,64.98 116.252,63.65 114.236,63.65 C112.388,63.65 110.848,64.784 110.848,67.416 C110.848,69.39 111.618,71.168 114.166,71.168 L114.166,71.168 Z M112.206,66.688 C112.276,65.26 113.2,64.686 114.152,64.686 C115.286,64.686 115.776,65.4 115.776,66.688 L112.206,66.688 Z M124.932,66.114 C124.932,64.49 124.26,63.65 122.72,63.65 C121.726,63.65 120.83,64.098 120.13,64.658 L120.06,63.804 L118.94,63.804 L118.94,71 L120.214,71 L120.214,65.638 C120.592,65.302 121.488,64.77 122.314,64.77 C123.294,64.77 123.658,65.316 123.658,66.31 L123.658,71 L124.932,71 L124.932,66.114 Z M130.882,69.768 C130.574,69.936 130.056,70.118 129.622,70.118 C128.754,70.118 128.586,69.698 128.586,68.942 L128.586,64.826 L130.574,64.826 L130.574,63.804 L128.586,63.804 L128.586,61.522 L127.312,61.718 L127.312,63.804 L126.206,63.804 L126.206,64.826 L127.312,64.826 L127.312,69.11 C127.312,70.552 127.998,71.168 129.342,71.168 C130.014,71.168 130.756,70.93 131.106,70.692 L130.882,69.768 Z M135.264,71.168 C136.706,71.168 137.826,70.482 138.12,69.082 L137,68.83 C136.804,69.642 136.328,70.104 135.306,70.104 C134.158,70.104 133.346,69.53 133.29,67.696 L138.134,67.696 C138.176,67.36 138.19,67.038 138.19,66.758 C138.19,64.98 137.35,63.65 135.334,63.65 C133.486,63.65 131.946,64.784 131.946,67.416 C131.946,69.39 132.716,71.168 135.264,71.168 L135.264,71.168 Z M133.304,66.688 C133.374,65.26 134.298,64.686 135.25,64.686 C136.384,64.686 136.874,65.4 136.874,66.688 L133.304,66.688 Z M146.03,66.114 C146.03,64.49 145.358,63.65 143.818,63.65 C142.824,63.65 141.928,64.098 141.228,64.658 L141.158,63.804 L140.038,63.804 L140.038,71 L141.312,71 L141.312,65.638 C141.69,65.302 142.586,64.77 143.412,64.77 C144.392,64.77 144.756,65.316 144.756,66.31 L144.756,71 L146.03,71 L146.03,66.114 Z M151.042,71.168 C152.484,71.168 153.758,70.468 153.996,68.802 L152.876,68.564 C152.694,69.628 152.064,70.104 151.084,70.104 C149.936,70.104 149.068,69.46 149.068,67.318 C149.068,65.274 150.09,64.714 151.126,64.714 C152.134,64.714 152.624,65.26 152.736,66.324 L153.954,66.156 C153.856,64.49 152.792,63.65 151.182,63.65 C149.026,63.65 147.738,64.966 147.738,67.472 C147.738,69.628 148.662,71.168 151.042,71.168 L151.042,71.168 Z M158.588,71.168 C160.03,71.168 161.15,70.482 161.444,69.082 L160.324,68.83 C160.128,69.642 159.652,70.104 158.63,70.104 C157.482,70.104 156.67,69.53 156.614,67.696 L161.458,67.696 C161.5,67.36 161.514,67.038 161.514,66.758 C161.514,64.98 160.674,63.65 158.658,63.65 C156.81,63.65 155.27,64.784 155.27,67.416 C155.27,69.39 156.04,71.168 158.588,71.168 L158.588,71.168 Z M156.628,66.688 C156.698,65.26 157.622,64.686 158.574,64.686 C159.708,64.686 160.198,65.4 160.198,66.688 L156.628,66.688 Z M165.7,63.65 C164.244,63.65 163.04,64.364 163.04,65.82 C163.04,67.5 164.454,67.752 165.63,67.99 C166.61,68.186 167.198,68.326 167.198,69.124 C167.198,69.894 166.568,70.16 165.7,70.16 C164.426,70.16 164.104,69.544 163.908,68.774 L162.774,69.082 C162.998,70.524 163.992,71.168 165.644,71.168 C167.394,71.168 168.458,70.356 168.458,68.984 C168.458,67.374 167.212,67.108 165.896,66.828 C164.888,66.618 164.3,66.408 164.3,65.666 C164.3,65.12 164.636,64.658 165.686,64.658 C166.736,64.658 167.016,65.162 167.184,65.988 L168.332,65.736 C168.108,64.462 167.408,63.65 165.7,63.65 L165.7,63.65 Z" id="Compound-Sentences" fill="#000000"></path>
                <g id="Group-5" transform="translate(126.000000, 0.000000)">
                    <use id="Rectangle-33-Copy" stroke="#CCCCCC" mask="url(#mask-14)" stroke-width="3" fill="#EAFCFF" xlink:href="#path-13"></use>
                    <path d="M39.132,12.45 C40.308,12.044 41.092,11.148 41.092,9.622 C41.092,8.236 40.336,6.864 37.816,6.864 L34.344,6.864 L34.344,17 L35.618,17 L35.618,12.786 L37.9,12.786 L40.224,17 L41.624,17 L39.132,12.45 Z M35.618,11.708 L35.618,7.956 L37.382,7.956 C38.838,7.956 39.762,8.32 39.762,9.692 C39.762,11.26 38.838,11.708 37.508,11.708 L35.618,11.708 Z M45.754,17.168 C47.196,17.168 48.316,16.482 48.61,15.082 L47.49,14.83 C47.294,15.642 46.818,16.104 45.796,16.104 C44.648,16.104 43.836,15.53 43.78,13.696 L48.624,13.696 C48.666,13.36 48.68,13.038 48.68,12.758 C48.68,10.98 47.84,9.65 45.824,9.65 C43.976,9.65 42.436,10.784 42.436,13.416 C42.436,15.39 43.206,17.168 45.754,17.168 L45.754,17.168 Z M43.794,12.688 C43.864,11.26 44.788,10.686 45.74,10.686 C46.874,10.686 47.364,11.4 47.364,12.688 L43.794,12.688 Z M53.384,17.168 C54.826,17.168 56.1,16.468 56.338,14.802 L55.218,14.564 C55.036,15.628 54.406,16.104 53.426,16.104 C52.278,16.104 51.41,15.46 51.41,13.318 C51.41,11.274 52.432,10.714 53.468,10.714 C54.476,10.714 54.966,11.26 55.078,12.324 L56.296,12.156 C56.198,10.49 55.134,9.65 53.524,9.65 C51.368,9.65 50.08,10.966 50.08,13.472 C50.08,15.628 51.004,17.168 53.384,17.168 L53.384,17.168 Z M60.93,17.168 C63.352,17.168 64.332,15.628 64.332,13.262 C64.332,11.12 63.394,9.65 61.112,9.65 C58.816,9.65 57.612,11.106 57.612,13.43 C57.612,15.558 58.438,17.168 60.93,17.168 L60.93,17.168 Z M61,16.146 C59.6,16.146 58.928,15.278 58.928,13.374 C58.928,11.456 59.782,10.7 61.056,10.7 C62.302,10.7 63.002,11.358 63.002,13.346 C63.002,15.39 62.246,16.146 61,16.146 L61,16.146 Z M67.426,11.624 C67.804,11.274 68.686,10.77 69.414,10.77 C70.338,10.77 70.534,11.316 70.534,12.282 L70.534,17 L71.808,17 L71.808,12.1 C71.808,11.918 71.794,11.736 71.78,11.568 C72.2,11.218 73.026,10.77 73.712,10.77 C74.636,10.77 74.832,11.316 74.832,12.282 L74.832,17 L76.106,17 L76.106,12.1 C76.106,10.49 75.574,9.65 74.062,9.65 C73.082,9.65 72.27,10.084 71.57,10.644 C71.29,9.972 70.716,9.65 69.764,9.65 C68.784,9.65 68.028,10.07 67.314,10.616 L67.244,9.804 L66.152,9.804 L66.152,17 L67.426,17 L67.426,11.624 Z M79.55,11.624 C79.928,11.274 80.81,10.77 81.538,10.77 C82.462,10.77 82.658,11.316 82.658,12.282 L82.658,17 L83.932,17 L83.932,12.1 C83.932,11.918 83.918,11.736 83.904,11.568 C84.324,11.218 85.15,10.77 85.836,10.77 C86.76,10.77 86.956,11.316 86.956,12.282 L86.956,17 L88.23,17 L88.23,12.1 C88.23,10.49 87.698,9.65 86.186,9.65 C85.206,9.65 84.394,10.084 83.694,10.644 C83.414,9.972 82.84,9.65 81.888,9.65 C80.908,9.65 80.152,10.07 79.438,10.616 L79.368,9.804 L78.276,9.804 L78.276,17 L79.55,17 L79.55,11.624 Z M93.27,17.168 C94.712,17.168 95.832,16.482 96.126,15.082 L95.006,14.83 C94.81,15.642 94.334,16.104 93.312,16.104 C92.164,16.104 91.352,15.53 91.296,13.696 L96.14,13.696 C96.182,13.36 96.196,13.038 96.196,12.758 C96.196,10.98 95.356,9.65 93.34,9.65 C91.492,9.65 89.952,10.784 89.952,13.416 C89.952,15.39 90.722,17.168 93.27,17.168 L93.27,17.168 Z M91.31,12.688 C91.38,11.26 92.304,10.686 93.256,10.686 C94.39,10.686 94.88,11.4 94.88,12.688 L91.31,12.688 Z M104.036,12.114 C104.036,10.49 103.364,9.65 101.824,9.65 C100.83,9.65 99.934,10.098 99.234,10.658 L99.164,9.804 L98.044,9.804 L98.044,17 L99.318,17 L99.318,11.638 C99.696,11.302 100.592,10.77 101.418,10.77 C102.398,10.77 102.762,11.316 102.762,12.31 L102.762,17 L104.036,17 L104.036,12.114 Z M112.058,6.43 L110.812,6.43 L110.812,10.322 C110.308,9.916 109.622,9.65 108.796,9.65 C107.2,9.65 105.758,10.672 105.758,13.514 C105.758,16.132 106.864,17.168 108.502,17.168 C109.538,17.168 110.266,16.776 110.882,16.216 L110.896,16.23 L110.994,17 L112.058,17 L112.058,6.43 Z M110.798,15.222 C110.35,15.67 109.622,16.104 108.88,16.104 C107.62,16.104 107.074,15.264 107.074,13.514 C107.074,11.848 107.578,10.742 108.964,10.742 C109.79,10.742 110.462,11.12 110.798,11.372 L110.798,15.222 Z M117.14,17.168 C118.582,17.168 119.702,16.482 119.996,15.082 L118.876,14.83 C118.68,15.642 118.204,16.104 117.182,16.104 C116.034,16.104 115.222,15.53 115.166,13.696 L120.01,13.696 C120.052,13.36 120.066,13.038 120.066,12.758 C120.066,10.98 119.226,9.65 117.21,9.65 C115.362,9.65 113.822,10.784 113.822,13.416 C113.822,15.39 114.592,17.168 117.14,17.168 L117.14,17.168 Z M115.18,12.688 C115.25,11.26 116.174,10.686 117.126,10.686 C118.26,10.686 118.75,11.4 118.75,12.688 L115.18,12.688 Z M127.78,6.43 L126.534,6.43 L126.534,10.322 C126.03,9.916 125.344,9.65 124.518,9.65 C122.922,9.65 121.48,10.672 121.48,13.514 C121.48,16.132 122.586,17.168 124.224,17.168 C125.26,17.168 125.988,16.776 126.604,16.216 L126.618,16.23 L126.716,17 L127.78,17 L127.78,6.43 Z M126.52,15.222 C126.072,15.67 125.344,16.104 124.602,16.104 C123.342,16.104 122.796,15.264 122.796,13.514 C122.796,11.848 123.3,10.742 124.686,10.742 C125.512,10.742 126.184,11.12 126.52,11.372 L126.52,15.222 Z" id="Recommended" fill="#000000"></path>
                </g>
                <g id="Group-2-Copy-5" transform="translate(78.000000, 51.000000)">
                    <use id="Rectangle-117-Copy-2" stroke="#CECECE" mask="url(#mask-16)" stroke-width="2" fill="#FFFFFF" xlink:href="#path-15"></use>
                    <path d="M7.57942331,11.5359989 C7.41395372,11.5359989 7.24880731,11.4725624 7.12244284,11.345364 L4.08,8.28284279 L4.99396095,7.36252492 L7.57942331,9.96504983 L12.750348,4.76 L13.664309,5.68031787 L8.03640378,11.345364 C7.91003931,11.4725624 7.7448929,11.5359989 7.57942331,11.5359989 L7.57942331,11.5359989 Z" id="Shape-Copy" fill="#000000"></path>
                </g>
                <path d="M225.632,58.618 L229.916,58.618 L229.916,57.498 L225.632,57.498 L225.632,53.984 L230.266,53.984 L230.266,52.864 L224.344,52.864 L224.344,63 L225.632,63 L225.632,58.618 Z M235.614,55.664 C235.53,55.664 235.432,55.65 235.348,55.65 C234.34,55.65 233.584,55.986 232.954,56.84 L232.856,55.804 L231.792,55.804 L231.792,63 L233.066,63 L233.066,57.764 C233.654,57.218 234.718,56.854 235.614,56.98 L235.614,55.664 Z M242.152,58.128 C242.152,56.336 241.354,55.65 239.576,55.65 C237.91,55.65 237.042,56.28 236.818,57.624 L237.938,57.834 C238.092,57.036 238.47,56.644 239.464,56.644 C240.64,56.644 240.892,57.204 240.892,58.114 L240.892,58.814 C240.696,58.8 240.486,58.786 240.262,58.786 C238.232,58.786 236.538,59.318 236.538,61.236 C236.538,61.936 236.846,63.168 238.666,63.168 C239.674,63.168 240.416,62.846 240.976,62.286 C241.046,62.748 241.368,63.14 242.082,63.14 C242.432,63.14 242.796,63.056 243.076,62.916 L243.02,62.118 C242.838,62.174 242.712,62.202 242.586,62.202 C242.222,62.202 242.152,62.034 242.152,61.642 L242.152,58.128 Z M240.906,61.362 C240.514,61.782 239.8,62.174 239.058,62.174 C238.078,62.174 237.854,61.642 237.854,61.026 C237.854,59.794 239.184,59.696 240.178,59.696 C240.444,59.696 240.71,59.71 240.906,59.738 L240.906,61.362 Z M247.15,55.65 C245.288,55.65 244.098,56.714 244.098,58.296 C244.098,59.22 244.504,59.962 245.162,60.312 C244.658,60.704 244.21,61.11 244.21,61.726 C244.21,62.244 244.504,62.524 244.994,62.72 L244.994,62.734 C244.406,63.014 243.832,63.574 243.832,64.386 C243.832,65.24 244.378,66.164 247.066,66.164 C248.872,66.164 250.762,65.632 250.762,63.868 C250.762,62.454 249.894,62.09 248.41,61.992 L246.408,61.852 C245.638,61.796 245.484,61.586 245.484,61.306 C245.484,61.012 245.736,60.816 245.932,60.634 C246.296,60.76 246.744,60.802 247.22,60.802 C248.872,60.802 250.16,59.85 250.16,58.226 C250.16,57.638 249.978,57.064 249.628,56.658 C249.992,56.546 250.566,56.476 251,56.504 L251,55.482 C250.79,55.412 250.594,55.37 250.37,55.37 C249.838,55.37 249.46,55.79 249.236,56.308 C248.76,55.832 248.032,55.65 247.15,55.65 L247.15,55.65 Z M248.928,58.24 C248.928,59.206 248.214,59.752 247.164,59.752 C245.89,59.752 245.372,59.15 245.372,58.212 C245.372,57.106 246.184,56.672 247.192,56.672 C248.27,56.672 248.928,57.162 248.928,58.24 L248.928,58.24 Z M249.446,64.022 C249.446,64.778 248.704,65.156 247.22,65.156 C245.596,65.156 245.106,64.75 245.106,64.148 C245.106,63.672 245.358,63.378 245.904,63.014 L248.242,63.154 C249.222,63.224 249.446,63.504 249.446,64.022 L249.446,64.022 Z M253.52,57.624 C253.898,57.274 254.78,56.77 255.508,56.77 C256.432,56.77 256.628,57.316 256.628,58.282 L256.628,63 L257.902,63 L257.902,58.1 C257.902,57.918 257.888,57.736 257.874,57.568 C258.294,57.218 259.12,56.77 259.806,56.77 C260.73,56.77 260.926,57.316 260.926,58.282 L260.926,63 L262.2,63 L262.2,58.1 C262.2,56.49 261.668,55.65 260.156,55.65 C259.176,55.65 258.364,56.084 257.664,56.644 C257.384,55.972 256.81,55.65 255.858,55.65 C254.878,55.65 254.122,56.07 253.408,56.616 L253.338,55.804 L252.246,55.804 L252.246,63 L253.52,63 L253.52,57.624 Z M267.24,63.168 C268.682,63.168 269.802,62.482 270.096,61.082 L268.976,60.83 C268.78,61.642 268.304,62.104 267.282,62.104 C266.134,62.104 265.322,61.53 265.266,59.696 L270.11,59.696 C270.152,59.36 270.166,59.038 270.166,58.758 C270.166,56.98 269.326,55.65 267.31,55.65 C265.462,55.65 263.922,56.784 263.922,59.416 C263.922,61.39 264.692,63.168 267.24,63.168 L267.24,63.168 Z M265.28,58.688 C265.35,57.26 266.274,56.686 267.226,56.686 C268.36,56.686 268.85,57.4 268.85,58.688 L265.28,58.688 Z M278.006,58.114 C278.006,56.49 277.334,55.65 275.794,55.65 C274.8,55.65 273.904,56.098 273.204,56.658 L273.134,55.804 L272.014,55.804 L272.014,63 L273.288,63 L273.288,57.638 C273.666,57.302 274.562,56.77 275.388,56.77 C276.368,56.77 276.732,57.316 276.732,58.31 L276.732,63 L278.006,63 L278.006,58.114 Z M283.956,61.768 C283.648,61.936 283.13,62.118 282.696,62.118 C281.828,62.118 281.66,61.698 281.66,60.942 L281.66,56.826 L283.648,56.826 L283.648,55.804 L281.66,55.804 L281.66,53.522 L280.386,53.718 L280.386,55.804 L279.28,55.804 L279.28,56.826 L280.386,56.826 L280.386,61.11 C280.386,62.552 281.072,63.168 282.416,63.168 C283.088,63.168 283.83,62.93 284.18,62.692 L283.956,61.768 Z M287.806,55.65 C286.35,55.65 285.146,56.364 285.146,57.82 C285.146,59.5 286.56,59.752 287.736,59.99 C288.716,60.186 289.304,60.326 289.304,61.124 C289.304,61.894 288.674,62.16 287.806,62.16 C286.532,62.16 286.21,61.544 286.014,60.774 L284.88,61.082 C285.104,62.524 286.098,63.168 287.75,63.168 C289.5,63.168 290.564,62.356 290.564,60.984 C290.564,59.374 289.318,59.108 288.002,58.828 C286.994,58.618 286.406,58.408 286.406,57.666 C286.406,57.12 286.742,56.658 287.792,56.658 C288.842,56.658 289.122,57.162 289.29,57.988 L290.438,57.736 C290.214,56.462 289.514,55.65 287.806,55.65 L287.806,55.65 Z" id="Fragments" fill="#000000"></path>
                <g id="Group-2-Copy-5" transform="translate(199.000000, 51.000000)">
                    <use id="Rectangle-117-Copy-2" stroke="#CECECE" mask="url(#mask-18)" stroke-width="2" fill="#FFFFFF" xlink:href="#path-17"></use>
                    <path d="M7.57942331,11.5359989 C7.41395372,11.5359989 7.24880731,11.4725624 7.12244284,11.345364 L4.08,8.28284279 L4.99396095,7.36252492 L7.57942331,9.96504983 L12.750348,4.76 L13.664309,5.68031787 L8.03640378,11.345364 C7.91003931,11.4725624 7.7448929,11.5359989 7.57942331,11.5359989 L7.57942331,11.5359989 Z" id="Shape-Copy" fill="#000000"></path>
                </g>
                <path d="M5.04,120.008 C5.04,121.336 4.448,121.64 3.584,121.64 C2.448,121.64 2.24,120.984 2.144,119.976 L0.336,120.264 C0.432,122.376 1.616,123.192 3.536,123.192 C5.616,123.192 6.912,122.248 6.912,119.96 L6.912,111.416 L5.04,111.416 L5.04,120.008 Z M12.768,123.192 C15.616,123.192 16.8,121.432 16.8,118.712 C16.8,116.264 15.712,114.552 12.976,114.552 C10.24,114.552 8.864,116.248 8.864,118.904 C8.864,121.368 9.856,123.192 12.768,123.192 L12.768,123.192 Z M12.864,121.768 C11.424,121.768 10.784,120.856 10.784,118.84 C10.784,116.824 11.6,116.04 12.912,116.04 C14.208,116.04 14.88,116.744 14.88,118.808 C14.88,120.936 14.128,121.768 12.864,121.768 L12.864,121.768 Z M21.52,114.552 C19.792,114.552 18.336,115.384 18.336,117.112 C18.336,119.08 19.936,119.368 21.28,119.64 C22.336,119.848 23.008,119.992 23.008,120.824 C23.008,121.528 22.368,121.816 21.456,121.816 C20.128,121.816 19.792,121.128 19.584,120.344 L18.016,120.856 C18.272,122.392 19.408,123.192 21.392,123.192 C23.424,123.192 24.8,122.28 24.8,120.568 C24.8,118.68 23.28,118.344 21.856,118.088 C20.768,117.896 20.064,117.672 20.064,116.904 C20.064,116.36 20.48,115.928 21.488,115.928 C22.56,115.928 22.864,116.504 23.056,117.32 L24.656,116.904 C24.336,115.464 23.44,114.552 21.52,114.552 L21.52,114.552 Z M29.968,123.192 C31.76,123.192 33.024,122.296 33.344,120.728 L31.776,120.344 C31.584,121.192 31.136,121.688 30.08,121.688 C28.88,121.688 28.048,121.064 28,119.32 L33.36,119.32 C33.392,118.936 33.408,118.552 33.408,118.216 C33.408,116.072 32.416,114.552 30.016,114.552 C27.856,114.552 26.064,115.88 26.064,118.872 C26.064,121.144 26.992,123.192 29.968,123.192 L29.968,123.192 Z M28.032,118.04 C28.112,116.568 28.976,116.008 29.904,116.008 C31.008,116.008 31.504,116.632 31.504,118.04 L28.032,118.04 Z" id="Jose" fill="#000000"></path>
                <path d="M107.152,114.168 C108.93,114.168 110.764,113.412 111.114,111.172 L109.952,110.934 C109.63,112.362 108.846,113.062 107.236,113.062 C105.206,113.062 104.03,111.886 104.03,108.974 C104.03,106.188 105.304,104.802 107.404,104.802 C109.07,104.802 109.784,105.628 109.98,107.21 L111.184,107.084 C111.03,104.718 109.546,103.682 107.418,103.682 C104.534,103.682 102.7,105.67 102.7,109.086 C102.7,112.124 103.974,114.168 107.152,114.168 L107.152,114.168 Z M115.692,114.168 C118.114,114.168 119.094,112.628 119.094,110.262 C119.094,108.12 118.156,106.65 115.874,106.65 C113.578,106.65 112.374,108.106 112.374,110.43 C112.374,112.558 113.2,114.168 115.692,114.168 L115.692,114.168 Z M115.762,113.146 C114.362,113.146 113.69,112.278 113.69,110.374 C113.69,108.456 114.544,107.7 115.818,107.7 C117.064,107.7 117.764,108.358 117.764,110.346 C117.764,112.39 117.008,113.146 115.762,113.146 L115.762,113.146 Z M122.188,108.624 C122.566,108.274 123.448,107.77 124.176,107.77 C125.1,107.77 125.296,108.316 125.296,109.282 L125.296,114 L126.57,114 L126.57,109.1 C126.57,108.918 126.556,108.736 126.542,108.568 C126.962,108.218 127.788,107.77 128.474,107.77 C129.398,107.77 129.594,108.316 129.594,109.282 L129.594,114 L130.868,114 L130.868,109.1 C130.868,107.49 130.336,106.65 128.824,106.65 C127.844,106.65 127.032,107.084 126.332,107.644 C126.052,106.972 125.478,106.65 124.526,106.65 C123.546,106.65 122.79,107.07 122.076,107.616 L122.006,106.804 L120.914,106.804 L120.914,114 L122.188,114 L122.188,108.624 Z M133.038,116.968 L134.27,116.968 L134.27,113.468 C134.788,113.86 135.474,114.168 136.342,114.168 C137.952,114.168 139.338,113.048 139.338,110.234 C139.338,107.588 138.218,106.65 136.706,106.65 C135.684,106.65 134.872,107.042 134.214,107.63 L134.144,106.804 L133.038,106.804 L133.038,116.968 Z M134.312,108.624 C134.732,108.204 135.53,107.714 136.328,107.714 C137.476,107.714 138.036,108.414 138.036,110.22 C138.036,111.942 137.532,113.09 136.16,113.09 C135.334,113.09 134.62,112.614 134.312,112.376 L134.312,108.624 Z M144.042,114.168 C146.464,114.168 147.444,112.628 147.444,110.262 C147.444,108.12 146.506,106.65 144.224,106.65 C141.928,106.65 140.724,108.106 140.724,110.43 C140.724,112.558 141.55,114.168 144.042,114.168 L144.042,114.168 Z M144.112,113.146 C142.712,113.146 142.04,112.278 142.04,110.374 C142.04,108.456 142.894,107.7 144.168,107.7 C145.414,107.7 146.114,108.358 146.114,110.346 C146.114,112.39 145.358,113.146 144.112,113.146 L144.112,113.146 Z M149.236,111.69 C149.236,113.3 149.908,114.14 151.434,114.14 C152.428,114.14 153.282,113.748 153.982,113.174 L154.066,114 L155.172,114 L155.172,106.804 L153.898,106.804 L153.898,112.152 C153.52,112.502 152.638,113.034 151.812,113.034 C150.748,113.034 150.51,112.488 150.51,111.494 L150.51,106.804 L149.236,106.804 L149.236,111.69 Z M163.39,109.114 C163.39,107.49 162.718,106.65 161.178,106.65 C160.184,106.65 159.288,107.098 158.588,107.658 L158.518,106.804 L157.398,106.804 L157.398,114 L158.672,114 L158.672,108.638 C159.05,108.302 159.946,107.77 160.772,107.77 C161.752,107.77 162.116,108.316 162.116,109.31 L162.116,114 L163.39,114 L163.39,109.114 Z M171.412,103.43 L170.166,103.43 L170.166,107.322 C169.662,106.916 168.976,106.65 168.15,106.65 C166.554,106.65 165.112,107.672 165.112,110.514 C165.112,113.132 166.218,114.168 167.856,114.168 C168.892,114.168 169.62,113.776 170.236,113.216 L170.25,113.23 L170.348,114 L171.412,114 L171.412,103.43 Z M170.152,112.222 C169.704,112.67 168.976,113.104 168.234,113.104 C166.974,113.104 166.428,112.264 166.428,110.514 C166.428,108.848 166.932,107.742 168.318,107.742 C169.144,107.742 169.816,108.12 170.152,108.372 L170.152,112.222 Z M106.186,120.774 C107.754,120.774 108.146,121.712 108.3,122.678 L109.504,122.538 C109.294,120.368 107.95,119.682 106.172,119.682 C104.212,119.682 102.756,120.746 102.756,122.482 C102.756,124.568 104.394,125.002 105.892,125.422 C107.138,125.772 108.272,126.108 108.272,127.368 C108.272,128.712 107.11,129.076 106.018,129.076 C104.282,129.076 103.778,128.138 103.54,127.06 L102.308,127.242 C102.574,129.328 103.89,130.168 106.004,130.168 C107.88,130.168 109.588,129.328 109.588,127.186 C109.588,125.226 107.978,124.75 106.494,124.316 C105.234,123.938 104.072,123.588 104.072,122.356 C104.072,121.46 104.632,120.774 106.186,120.774 L106.186,120.774 Z M114.166,130.168 C115.608,130.168 116.728,129.482 117.022,128.082 L115.902,127.83 C115.706,128.642 115.23,129.104 114.208,129.104 C113.06,129.104 112.248,128.53 112.192,126.696 L117.036,126.696 C117.078,126.36 117.092,126.038 117.092,125.758 C117.092,123.98 116.252,122.65 114.236,122.65 C112.388,122.65 110.848,123.784 110.848,126.416 C110.848,128.39 111.618,130.168 114.166,130.168 L114.166,130.168 Z M112.206,125.688 C112.276,124.26 113.2,123.686 114.152,123.686 C115.286,123.686 115.776,124.4 115.776,125.688 L112.206,125.688 Z M124.932,125.114 C124.932,123.49 124.26,122.65 122.72,122.65 C121.726,122.65 120.83,123.098 120.13,123.658 L120.06,122.804 L118.94,122.804 L118.94,130 L120.214,130 L120.214,124.638 C120.592,124.302 121.488,123.77 122.314,123.77 C123.294,123.77 123.658,124.316 123.658,125.31 L123.658,130 L124.932,130 L124.932,125.114 Z M130.882,128.768 C130.574,128.936 130.056,129.118 129.622,129.118 C128.754,129.118 128.586,128.698 128.586,127.942 L128.586,123.826 L130.574,123.826 L130.574,122.804 L128.586,122.804 L128.586,120.522 L127.312,120.718 L127.312,122.804 L126.206,122.804 L126.206,123.826 L127.312,123.826 L127.312,128.11 C127.312,129.552 127.998,130.168 129.342,130.168 C130.014,130.168 130.756,129.93 131.106,129.692 L130.882,128.768 Z M135.264,130.168 C136.706,130.168 137.826,129.482 138.12,128.082 L137,127.83 C136.804,128.642 136.328,129.104 135.306,129.104 C134.158,129.104 133.346,128.53 133.29,126.696 L138.134,126.696 C138.176,126.36 138.19,126.038 138.19,125.758 C138.19,123.98 137.35,122.65 135.334,122.65 C133.486,122.65 131.946,123.784 131.946,126.416 C131.946,128.39 132.716,130.168 135.264,130.168 L135.264,130.168 Z M133.304,125.688 C133.374,124.26 134.298,123.686 135.25,123.686 C136.384,123.686 136.874,124.4 136.874,125.688 L133.304,125.688 Z M146.03,125.114 C146.03,123.49 145.358,122.65 143.818,122.65 C142.824,122.65 141.928,123.098 141.228,123.658 L141.158,122.804 L140.038,122.804 L140.038,130 L141.312,130 L141.312,124.638 C141.69,124.302 142.586,123.77 143.412,123.77 C144.392,123.77 144.756,124.316 144.756,125.31 L144.756,130 L146.03,130 L146.03,125.114 Z M151.042,130.168 C152.484,130.168 153.758,129.468 153.996,127.802 L152.876,127.564 C152.694,128.628 152.064,129.104 151.084,129.104 C149.936,129.104 149.068,128.46 149.068,126.318 C149.068,124.274 150.09,123.714 151.126,123.714 C152.134,123.714 152.624,124.26 152.736,125.324 L153.954,125.156 C153.856,123.49 152.792,122.65 151.182,122.65 C149.026,122.65 147.738,123.966 147.738,126.472 C147.738,128.628 148.662,130.168 151.042,130.168 L151.042,130.168 Z M158.588,130.168 C160.03,130.168 161.15,129.482 161.444,128.082 L160.324,127.83 C160.128,128.642 159.652,129.104 158.63,129.104 C157.482,129.104 156.67,128.53 156.614,126.696 L161.458,126.696 C161.5,126.36 161.514,126.038 161.514,125.758 C161.514,123.98 160.674,122.65 158.658,122.65 C156.81,122.65 155.27,123.784 155.27,126.416 C155.27,128.39 156.04,130.168 158.588,130.168 L158.588,130.168 Z M156.628,125.688 C156.698,124.26 157.622,123.686 158.574,123.686 C159.708,123.686 160.198,124.4 160.198,125.688 L156.628,125.688 Z M165.7,122.65 C164.244,122.65 163.04,123.364 163.04,124.82 C163.04,126.5 164.454,126.752 165.63,126.99 C166.61,127.186 167.198,127.326 167.198,128.124 C167.198,128.894 166.568,129.16 165.7,129.16 C164.426,129.16 164.104,128.544 163.908,127.774 L162.774,128.082 C162.998,129.524 163.992,130.168 165.644,130.168 C167.394,130.168 168.458,129.356 168.458,127.984 C168.458,126.374 167.212,126.108 165.896,125.828 C164.888,125.618 164.3,125.408 164.3,124.666 C164.3,124.12 164.636,123.658 165.686,123.658 C166.736,123.658 167.016,124.162 167.184,124.988 L168.332,124.736 C168.108,123.462 167.408,122.65 165.7,122.65 L165.7,122.65 Z" id="Compound-Sentences" fill="#000000"></path>
                <g id="Group-2-Copy-5" transform="translate(78.000000, 110.000000)">
                    <use id="Rectangle-117-Copy-2" stroke="#CECECE" mask="url(#mask-20)" stroke-width="2" fill="#FFFFFF" xlink:href="#path-19"></use>
                    <path d="M7.57942331,11.5359989 C7.41395372,11.5359989 7.24880731,11.4725624 7.12244284,11.345364 L4.08,8.28284279 L4.99396095,7.36252492 L7.57942331,9.96504983 L12.750348,4.76 L13.664309,5.68031787 L8.03640378,11.345364 C7.91003931,11.4725624 7.7448929,11.5359989 7.57942331,11.5359989 L7.57942331,11.5359989 Z" id="Shape-Copy" fill="#000000"></path>
                </g>
                <path d="M226.92,103.864 L223.504,114 L224.806,114 L225.8,110.99 L229.692,110.99 L230.714,114 L232.128,114 L228.6,103.864 L226.92,103.864 Z M229.37,109.884 L226.108,109.884 L227.732,105.04 L227.746,105.04 L229.37,109.884 Z M239.618,103.43 L238.372,103.43 L238.372,107.322 C237.868,106.916 237.182,106.65 236.356,106.65 C234.76,106.65 233.318,107.672 233.318,110.514 C233.318,113.132 234.424,114.168 236.062,114.168 C237.098,114.168 237.826,113.776 238.442,113.216 L238.456,113.23 L238.554,114 L239.618,114 L239.618,103.43 Z M238.358,112.222 C237.91,112.67 237.182,113.104 236.44,113.104 C235.18,113.104 234.634,112.264 234.634,110.514 C234.634,108.848 235.138,107.742 236.524,107.742 C237.35,107.742 238.022,108.12 238.358,108.372 L238.358,112.222 Z M244.98,114 L247.682,106.804 L246.38,106.804 L244.294,112.726 L244.28,112.726 L242.166,106.804 L240.78,106.804 L243.524,114 L244.98,114 Z M251.77,114.168 C253.212,114.168 254.332,113.482 254.626,112.082 L253.506,111.83 C253.31,112.642 252.834,113.104 251.812,113.104 C250.664,113.104 249.852,112.53 249.796,110.696 L254.64,110.696 C254.682,110.36 254.696,110.038 254.696,109.758 C254.696,107.98 253.856,106.65 251.84,106.65 C249.992,106.65 248.452,107.784 248.452,110.416 C248.452,112.39 249.222,114.168 251.77,114.168 L251.77,114.168 Z M249.81,109.688 C249.88,108.26 250.804,107.686 251.756,107.686 C252.89,107.686 253.38,108.4 253.38,109.688 L249.81,109.688 Z M260.366,106.664 C260.282,106.664 260.184,106.65 260.1,106.65 C259.092,106.65 258.336,106.986 257.706,107.84 L257.608,106.804 L256.544,106.804 L256.544,114 L257.818,114 L257.818,108.764 C258.406,108.218 259.47,107.854 260.366,107.98 L260.366,106.664 Z M262.746,114 L262.816,113.37 L262.83,113.37 C263.348,113.776 264.062,114.168 264.916,114.168 C266.582,114.168 267.954,113.034 267.954,110.234 C267.954,107.588 266.82,106.65 265.336,106.65 C264.286,106.65 263.53,107.042 262.9,107.602 L262.9,103.43 L261.64,103.43 L261.64,114 L262.746,114 Z M262.914,108.624 C263.334,108.218 264.132,107.728 264.93,107.728 C266.12,107.728 266.638,108.512 266.638,110.22 C266.638,111.97 266.12,113.09 264.762,113.09 C263.936,113.09 263.236,112.586 262.914,112.348 L262.914,108.624 Z M227.186,120.774 C228.754,120.774 229.146,121.712 229.3,122.678 L230.504,122.538 C230.294,120.368 228.95,119.682 227.172,119.682 C225.212,119.682 223.756,120.746 223.756,122.482 C223.756,124.568 225.394,125.002 226.892,125.422 C228.138,125.772 229.272,126.108 229.272,127.368 C229.272,128.712 228.11,129.076 227.018,129.076 C225.282,129.076 224.778,128.138 224.54,127.06 L223.308,127.242 C223.574,129.328 224.89,130.168 227.004,130.168 C228.88,130.168 230.588,129.328 230.588,127.186 C230.588,125.226 228.978,124.75 227.494,124.316 C226.234,123.938 225.072,123.588 225.072,122.356 C225.072,121.46 225.632,120.774 227.186,120.774 L227.186,120.774 Z M236.09,128.768 C235.782,128.936 235.264,129.118 234.83,129.118 C233.962,129.118 233.794,128.698 233.794,127.942 L233.794,123.826 L235.782,123.826 L235.782,122.804 L233.794,122.804 L233.794,120.522 L232.52,120.718 L232.52,122.804 L231.414,122.804 L231.414,123.826 L232.52,123.826 L232.52,128.11 C232.52,129.552 233.206,130.168 234.55,130.168 C235.222,130.168 235.964,129.93 236.314,129.692 L236.09,128.768 Z M241.424,122.664 C241.34,122.664 241.242,122.65 241.158,122.65 C240.15,122.65 239.394,122.986 238.764,123.84 L238.666,122.804 L237.602,122.804 L237.602,130 L238.876,130 L238.876,124.764 C239.464,124.218 240.528,123.854 241.424,123.98 L241.424,122.664 Z M242.67,127.69 C242.67,129.3 243.342,130.14 244.868,130.14 C245.862,130.14 246.716,129.748 247.416,129.174 L247.5,130 L248.606,130 L248.606,122.804 L247.332,122.804 L247.332,128.152 C246.954,128.502 246.072,129.034 245.246,129.034 C244.182,129.034 243.944,128.488 243.944,127.494 L243.944,122.804 L242.67,122.804 L242.67,127.69 Z M253.688,130.168 C255.13,130.168 256.404,129.468 256.642,127.802 L255.522,127.564 C255.34,128.628 254.71,129.104 253.73,129.104 C252.582,129.104 251.714,128.46 251.714,126.318 C251.714,124.274 252.736,123.714 253.772,123.714 C254.78,123.714 255.27,124.26 255.382,125.324 L256.6,125.156 C256.502,123.49 255.438,122.65 253.828,122.65 C251.672,122.65 250.384,123.966 250.384,126.472 C250.384,128.628 251.308,130.168 253.688,130.168 L253.688,130.168 Z M262.158,128.768 C261.85,128.936 261.332,129.118 260.898,129.118 C260.03,129.118 259.862,128.698 259.862,127.942 L259.862,123.826 L261.85,123.826 L261.85,122.804 L259.862,122.804 L259.862,120.522 L258.588,120.718 L258.588,122.804 L257.482,122.804 L257.482,123.826 L258.588,123.826 L258.588,128.11 C258.588,129.552 259.274,130.168 260.618,130.168 C261.29,130.168 262.032,129.93 262.382,129.692 L262.158,128.768 Z M263.642,127.69 C263.642,129.3 264.314,130.14 265.84,130.14 C266.834,130.14 267.688,129.748 268.388,129.174 L268.472,130 L269.578,130 L269.578,122.804 L268.304,122.804 L268.304,128.152 C267.926,128.502 267.044,129.034 266.218,129.034 C265.154,129.034 264.916,128.488 264.916,127.494 L264.916,122.804 L263.642,122.804 L263.642,127.69 Z M275.626,122.664 C275.542,122.664 275.444,122.65 275.36,122.65 C274.352,122.65 273.596,122.986 272.966,123.84 L272.868,122.804 L271.804,122.804 L271.804,130 L273.078,130 L273.078,124.764 C273.666,124.218 274.73,123.854 275.626,123.98 L275.626,122.664 Z M279.77,130.168 C281.212,130.168 282.332,129.482 282.626,128.082 L281.506,127.83 C281.31,128.642 280.834,129.104 279.812,129.104 C278.664,129.104 277.852,128.53 277.796,126.696 L282.64,126.696 C282.682,126.36 282.696,126.038 282.696,125.758 C282.696,123.98 281.856,122.65 279.84,122.65 C277.992,122.65 276.452,123.784 276.452,126.416 C276.452,128.39 277.222,130.168 279.77,130.168 L279.77,130.168 Z M277.81,125.688 C277.88,124.26 278.804,123.686 279.756,123.686 C280.89,123.686 281.38,124.4 281.38,125.688 L277.81,125.688 Z" id="Adverb-Structure" fill="#000000"></path>
                <g id="Group-2-Copy-5" transform="translate(199.000000, 110.000000)">
                    <use id="Rectangle-117-Copy-2" stroke="#CECECE" mask="url(#mask-22)" stroke-width="2" fill="#FFFFFF" xlink:href="#path-21"></use>
                    <path d="M7.57942331,11.5359989 C7.41395372,11.5359989 7.24880731,11.4725624 7.12244284,11.345364 L4.08,8.28284279 L4.99396095,7.36252492 L7.57942331,9.96504983 L12.750348,4.76 L13.664309,5.68031787 L8.03640378,11.345364 C7.91003931,11.4725624 7.7448929,11.5359989 7.57942331,11.5359989 L7.57942331,11.5359989 Z" id="Shape-Copy" fill="#000000"></path>
                </g>
                <path d="M12.032,182 L14.48,170.416 L12.608,170.416 L10.864,180 L10.832,180 L8.432,170.416 L6.4,170.416 L4.048,179.92 L4.016,179.92 L2.176,170.416 L0.208,170.416 L2.736,182 L5.12,182 L7.376,173.088 L7.408,173.088 L9.648,182 L12.032,182 Z M22.16,176.432 C22.16,174.368 21.168,173.552 19.056,173.552 C17.024,173.552 16.032,174.384 15.776,175.936 L17.392,176.224 C17.568,175.36 17.904,174.944 18.912,174.944 C20.128,174.944 20.352,175.52 20.352,176.528 L20.352,177.152 C20.128,177.136 19.888,177.12 19.504,177.12 C17.28,177.12 15.456,177.824 15.456,179.968 C15.456,180.784 15.824,182.192 17.904,182.192 C19.056,182.192 19.968,181.792 20.528,181.184 C20.672,181.824 21.056,182.16 21.92,182.16 C22.368,182.16 22.896,182.048 23.216,181.888 L23.152,180.8 C22.944,180.864 22.8,180.896 22.656,180.896 C22.24,180.896 22.16,180.704 22.16,180.256 L22.16,176.432 Z M20.368,180.048 C20,180.432 19.312,180.816 18.56,180.816 C17.584,180.816 17.328,180.288 17.328,179.712 C17.328,178.496 18.672,178.384 19.6,178.384 C20.016,178.384 20.208,178.4 20.368,178.416 L20.368,180.048 Z M26.512,169.92 L24.672,169.92 L24.672,182 L26.512,182 L26.512,169.92 Z M33.44,180.304 C33.104,180.496 32.528,180.688 32.032,180.688 C31.136,180.688 30.928,180.256 30.928,179.44 L30.928,175.088 L33.168,175.088 L33.168,173.728 L30.928,173.728 L30.928,171.056 L29.088,171.312 L29.088,173.728 L27.824,173.728 L27.824,175.088 L29.088,175.088 L29.088,179.696 C29.088,181.456 29.92,182.192 31.552,182.192 C32.432,182.192 33.328,181.888 33.744,181.616 L33.44,180.304 Z M38.48,182.192 C40.272,182.192 41.536,181.296 41.856,179.728 L40.288,179.344 C40.096,180.192 39.648,180.688 38.592,180.688 C37.392,180.688 36.56,180.064 36.512,178.32 L41.872,178.32 C41.904,177.936 41.92,177.552 41.92,177.216 C41.92,175.072 40.928,173.552 38.528,173.552 C36.368,173.552 34.576,174.88 34.576,177.872 C34.576,180.144 35.504,182.192 38.48,182.192 L38.48,182.192 Z M36.544,177.04 C36.624,175.568 37.488,175.008 38.416,175.008 C39.52,175.008 40.016,175.632 40.016,177.04 L36.544,177.04 Z M48.512,173.568 C48.4,173.568 48.272,173.552 48.176,173.552 C46.96,173.552 46.128,174.032 45.472,174.96 L45.328,173.728 L43.776,173.728 L43.776,182 L45.616,182 L45.616,176.256 C46.304,175.648 47.472,175.28 48.512,175.408 L48.512,173.568 Z" id="Walter" fill="#000000"></path>
                <path d="M104.618,169.318 L106.158,169.318 C108.594,169.318 110.022,168.31 110.022,165.902 C110.022,164.292 109.238,162.864 106.648,162.864 L103.344,162.864 L103.344,173 L104.618,173 L104.618,169.318 Z M104.618,168.212 L104.618,163.956 L106.27,163.956 C107.894,163.956 108.692,164.516 108.692,165.972 C108.692,167.862 107.53,168.212 106.06,168.212 L104.618,168.212 Z M117.022,168.128 C117.022,166.336 116.224,165.65 114.446,165.65 C112.78,165.65 111.912,166.28 111.688,167.624 L112.808,167.834 C112.962,167.036 113.34,166.644 114.334,166.644 C115.51,166.644 115.762,167.204 115.762,168.114 L115.762,168.814 C115.566,168.8 115.356,168.786 115.132,168.786 C113.102,168.786 111.408,169.318 111.408,171.236 C111.408,171.936 111.716,173.168 113.536,173.168 C114.544,173.168 115.286,172.846 115.846,172.286 C115.916,172.748 116.238,173.14 116.952,173.14 C117.302,173.14 117.666,173.056 117.946,172.916 L117.89,172.118 C117.708,172.174 117.582,172.202 117.456,172.202 C117.092,172.202 117.022,172.034 117.022,171.642 L117.022,168.128 Z M115.776,171.362 C115.384,171.782 114.67,172.174 113.928,172.174 C112.948,172.174 112.724,171.642 112.724,171.026 C112.724,169.794 114.054,169.696 115.048,169.696 C115.314,169.696 115.58,169.71 115.776,169.738 L115.776,171.362 Z M123.21,165.664 C123.126,165.664 123.028,165.65 122.944,165.65 C121.936,165.65 121.18,165.986 120.55,166.84 L120.452,165.804 L119.388,165.804 L119.388,173 L120.662,173 L120.662,167.764 C121.25,167.218 122.314,166.854 123.21,166.98 L123.21,165.664 Z M129.748,168.128 C129.748,166.336 128.95,165.65 127.172,165.65 C125.506,165.65 124.638,166.28 124.414,167.624 L125.534,167.834 C125.688,167.036 126.066,166.644 127.06,166.644 C128.236,166.644 128.488,167.204 128.488,168.114 L128.488,168.814 C128.292,168.8 128.082,168.786 127.858,168.786 C125.828,168.786 124.134,169.318 124.134,171.236 C124.134,171.936 124.442,173.168 126.262,173.168 C127.27,173.168 128.012,172.846 128.572,172.286 C128.642,172.748 128.964,173.14 129.678,173.14 C130.028,173.14 130.392,173.056 130.672,172.916 L130.616,172.118 C130.434,172.174 130.308,172.202 130.182,172.202 C129.818,172.202 129.748,172.034 129.748,171.642 L129.748,168.128 Z M128.502,171.362 C128.11,171.782 127.396,172.174 126.654,172.174 C125.674,172.174 125.45,171.642 125.45,171.026 C125.45,169.794 126.78,169.696 127.774,169.696 C128.04,169.696 128.306,169.71 128.502,169.738 L128.502,171.362 Z M133.388,162.43 L132.114,162.43 L132.114,173 L133.388,173 L133.388,162.43 Z M136.874,162.43 L135.6,162.43 L135.6,173 L136.874,173 L136.874,162.43 Z M141.956,173.168 C143.398,173.168 144.518,172.482 144.812,171.082 L143.692,170.83 C143.496,171.642 143.02,172.104 141.998,172.104 C140.85,172.104 140.038,171.53 139.982,169.696 L144.826,169.696 C144.868,169.36 144.882,169.038 144.882,168.758 C144.882,166.98 144.042,165.65 142.026,165.65 C140.178,165.65 138.638,166.784 138.638,169.416 C138.638,171.39 139.408,173.168 141.956,173.168 L141.956,173.168 Z M139.996,168.688 C140.066,167.26 140.99,166.686 141.942,166.686 C143.076,166.686 143.566,167.4 143.566,168.688 L139.996,168.688 Z M148.004,162.43 L146.73,162.43 L146.73,173 L148.004,173 L148.004,162.43 Z M106.186,179.774 C107.754,179.774 108.146,180.712 108.3,181.678 L109.504,181.538 C109.294,179.368 107.95,178.682 106.172,178.682 C104.212,178.682 102.756,179.746 102.756,181.482 C102.756,183.568 104.394,184.002 105.892,184.422 C107.138,184.772 108.272,185.108 108.272,186.368 C108.272,187.712 107.11,188.076 106.018,188.076 C104.282,188.076 103.778,187.138 103.54,186.06 L102.308,186.242 C102.574,188.328 103.89,189.168 106.004,189.168 C107.88,189.168 109.588,188.328 109.588,186.186 C109.588,184.226 107.978,183.75 106.494,183.316 C105.234,182.938 104.072,182.588 104.072,181.356 C104.072,180.46 104.632,179.774 106.186,179.774 L106.186,179.774 Z M115.09,187.768 C114.782,187.936 114.264,188.118 113.83,188.118 C112.962,188.118 112.794,187.698 112.794,186.942 L112.794,182.826 L114.782,182.826 L114.782,181.804 L112.794,181.804 L112.794,179.522 L111.52,179.718 L111.52,181.804 L110.414,181.804 L110.414,182.826 L111.52,182.826 L111.52,187.11 C111.52,188.552 112.206,189.168 113.55,189.168 C114.222,189.168 114.964,188.93 115.314,188.692 L115.09,187.768 Z M120.424,181.664 C120.34,181.664 120.242,181.65 120.158,181.65 C119.15,181.65 118.394,181.986 117.764,182.84 L117.666,181.804 L116.602,181.804 L116.602,189 L117.876,189 L117.876,183.764 C118.464,183.218 119.528,182.854 120.424,182.98 L120.424,181.664 Z M121.67,186.69 C121.67,188.3 122.342,189.14 123.868,189.14 C124.862,189.14 125.716,188.748 126.416,188.174 L126.5,189 L127.606,189 L127.606,181.804 L126.332,181.804 L126.332,187.152 C125.954,187.502 125.072,188.034 124.246,188.034 C123.182,188.034 122.944,187.488 122.944,186.494 L122.944,181.804 L121.67,181.804 L121.67,186.69 Z M132.688,189.168 C134.13,189.168 135.404,188.468 135.642,186.802 L134.522,186.564 C134.34,187.628 133.71,188.104 132.73,188.104 C131.582,188.104 130.714,187.46 130.714,185.318 C130.714,183.274 131.736,182.714 132.772,182.714 C133.78,182.714 134.27,183.26 134.382,184.324 L135.6,184.156 C135.502,182.49 134.438,181.65 132.828,181.65 C130.672,181.65 129.384,182.966 129.384,185.472 C129.384,187.628 130.308,189.168 132.688,189.168 L132.688,189.168 Z M141.158,187.768 C140.85,187.936 140.332,188.118 139.898,188.118 C139.03,188.118 138.862,187.698 138.862,186.942 L138.862,182.826 L140.85,182.826 L140.85,181.804 L138.862,181.804 L138.862,179.522 L137.588,179.718 L137.588,181.804 L136.482,181.804 L136.482,182.826 L137.588,182.826 L137.588,187.11 C137.588,188.552 138.274,189.168 139.618,189.168 C140.29,189.168 141.032,188.93 141.382,188.692 L141.158,187.768 Z M142.642,186.69 C142.642,188.3 143.314,189.14 144.84,189.14 C145.834,189.14 146.688,188.748 147.388,188.174 L147.472,189 L148.578,189 L148.578,181.804 L147.304,181.804 L147.304,187.152 C146.926,187.502 146.044,188.034 145.218,188.034 C144.154,188.034 143.916,187.488 143.916,186.494 L143.916,181.804 L142.642,181.804 L142.642,186.69 Z M154.626,181.664 C154.542,181.664 154.444,181.65 154.36,181.65 C153.352,181.65 152.596,181.986 151.966,182.84 L151.868,181.804 L150.804,181.804 L150.804,189 L152.078,189 L152.078,183.764 C152.666,183.218 153.73,182.854 154.626,182.98 L154.626,181.664 Z M158.77,189.168 C160.212,189.168 161.332,188.482 161.626,187.082 L160.506,186.83 C160.31,187.642 159.834,188.104 158.812,188.104 C157.664,188.104 156.852,187.53 156.796,185.696 L161.64,185.696 C161.682,185.36 161.696,185.038 161.696,184.758 C161.696,182.98 160.856,181.65 158.84,181.65 C156.992,181.65 155.452,182.784 155.452,185.416 C155.452,187.39 156.222,189.168 158.77,189.168 L158.77,189.168 Z M156.81,184.688 C156.88,183.26 157.804,182.686 158.756,182.686 C159.89,182.686 160.38,183.4 160.38,184.688 L156.81,184.688 Z" id="Parallel-Structure" fill="#000000"></path>
                <g id="Group-2-Copy-5" transform="translate(78.000000, 169.000000)">
                    <use id="Rectangle-117-Copy-2" stroke="#CECECE" mask="url(#mask-24)" stroke-width="2" fill="#FFFFFF" xlink:href="#path-23"></use>
                    <path d="M7.57942331,11.5359989 C7.41395372,11.5359989 7.24880731,11.4725624 7.12244284,11.345364 L4.08,8.28284279 L4.99396095,7.36252492 L7.57942331,9.96504983 L12.750348,4.76 L13.664309,5.68031787 L8.03640378,11.345364 C7.91003931,11.4725624 7.7448929,11.5359989 7.57942331,11.5359989 L7.57942331,11.5359989 Z" id="Shape-Copy" fill="#000000"></path>
                </g>
                <path d="M226.92,170.864 L223.504,181 L224.806,181 L225.8,177.99 L229.692,177.99 L230.714,181 L232.128,181 L228.6,170.864 L226.92,170.864 Z M229.37,176.884 L226.108,176.884 L227.732,172.04 L227.746,172.04 L229.37,176.884 Z M239.618,170.43 L238.372,170.43 L238.372,174.322 C237.868,173.916 237.182,173.65 236.356,173.65 C234.76,173.65 233.318,174.672 233.318,177.514 C233.318,180.132 234.424,181.168 236.062,181.168 C237.098,181.168 237.826,180.776 238.442,180.216 L238.456,180.23 L238.554,181 L239.618,181 L239.618,170.43 Z M238.358,179.222 C237.91,179.67 237.182,180.104 236.44,180.104 C235.18,180.104 234.634,179.264 234.634,177.514 C234.634,175.848 235.138,174.742 236.524,174.742 C237.35,174.742 238.022,175.12 238.358,175.372 L238.358,179.222 Z M241.06,184.122 C242.362,184.122 243.104,183.464 243.104,181.938 L243.104,173.804 L241.83,173.804 L241.83,181.882 C241.83,182.736 241.466,183.016 240.892,183.016 C240.542,183.016 240.122,182.918 239.842,182.806 L239.702,183.842 C239.954,183.996 240.598,184.122 241.06,184.122 L241.06,184.122 Z M243.398,171.382 C243.398,170.808 243.076,170.472 242.502,170.472 C241.928,170.472 241.592,170.808 241.592,171.382 C241.592,171.97 241.928,172.306 242.502,172.306 C243.076,172.306 243.398,171.97 243.398,171.382 L243.398,171.382 Z M248.158,181.168 C249.6,181.168 250.72,180.482 251.014,179.082 L249.894,178.83 C249.698,179.642 249.222,180.104 248.2,180.104 C247.052,180.104 246.24,179.53 246.184,177.696 L251.028,177.696 C251.07,177.36 251.084,177.038 251.084,176.758 C251.084,174.98 250.244,173.65 248.228,173.65 C246.38,173.65 244.84,174.784 244.84,177.416 C244.84,179.39 245.61,181.168 248.158,181.168 L248.158,181.168 Z M246.198,176.688 C246.268,175.26 247.192,174.686 248.144,174.686 C249.278,174.686 249.768,175.4 249.768,176.688 L246.198,176.688 Z M255.788,181.168 C257.23,181.168 258.504,180.468 258.742,178.802 L257.622,178.564 C257.44,179.628 256.81,180.104 255.83,180.104 C254.682,180.104 253.814,179.46 253.814,177.318 C253.814,175.274 254.836,174.714 255.872,174.714 C256.88,174.714 257.37,175.26 257.482,176.324 L258.7,176.156 C258.602,174.49 257.538,173.65 255.928,173.65 C253.772,173.65 252.484,174.966 252.484,177.472 C252.484,179.628 253.408,181.168 255.788,181.168 L255.788,181.168 Z M264.258,179.768 C263.95,179.936 263.432,180.118 262.998,180.118 C262.13,180.118 261.962,179.698 261.962,178.942 L261.962,174.826 L263.95,174.826 L263.95,173.804 L261.962,173.804 L261.962,171.522 L260.688,171.718 L260.688,173.804 L259.582,173.804 L259.582,174.826 L260.688,174.826 L260.688,179.11 C260.688,180.552 261.374,181.168 262.718,181.168 C263.39,181.168 264.132,180.93 264.482,180.692 L264.258,179.768 Z M267.044,173.804 L265.77,173.804 L265.77,181 L267.044,181 L267.044,173.804 Z M267.338,171.494 C267.338,170.906 267.002,170.584 266.428,170.584 C265.854,170.584 265.532,170.906 265.532,171.494 C265.532,172.082 265.854,172.418 266.428,172.418 C267.002,172.418 267.338,172.082 267.338,171.494 L267.338,171.494 Z M272.406,181 L275.108,173.804 L273.806,173.804 L271.72,179.726 L271.706,179.726 L269.592,173.804 L268.206,173.804 L270.95,181 L272.406,181 Z M279.196,181.168 C280.638,181.168 281.758,180.482 282.052,179.082 L280.932,178.83 C280.736,179.642 280.26,180.104 279.238,180.104 C278.09,180.104 277.278,179.53 277.222,177.696 L282.066,177.696 C282.108,177.36 282.122,177.038 282.122,176.758 C282.122,174.98 281.282,173.65 279.266,173.65 C277.418,173.65 275.878,174.784 275.878,177.416 C275.878,179.39 276.648,181.168 279.196,181.168 L279.196,181.168 Z M277.236,176.688 C277.306,175.26 278.23,174.686 279.182,174.686 C280.316,174.686 280.806,175.4 280.806,176.688 L277.236,176.688 Z M286.308,173.65 C284.852,173.65 283.648,174.364 283.648,175.82 C283.648,177.5 285.062,177.752 286.238,177.99 C287.218,178.186 287.806,178.326 287.806,179.124 C287.806,179.894 287.176,180.16 286.308,180.16 C285.034,180.16 284.712,179.544 284.516,178.774 L283.382,179.082 C283.606,180.524 284.6,181.168 286.252,181.168 C288.002,181.168 289.066,180.356 289.066,178.984 C289.066,177.374 287.82,177.108 286.504,176.828 C285.496,176.618 284.908,176.408 284.908,175.666 C284.908,175.12 285.244,174.658 286.294,174.658 C287.344,174.658 287.624,175.162 287.792,175.988 L288.94,175.736 C288.716,174.462 288.016,173.65 286.308,173.65 L286.308,173.65 Z" id="Adjectives" fill="#000000"></path>
                <g id="Group-2-Copy-5" transform="translate(199.000000, 169.000000)">
                    <use id="Rectangle-117-Copy-2" stroke="#CECECE" mask="url(#mask-26)" stroke-width="2" fill="#FFFFFF" xlink:href="#path-25"></use>
                    <path d="M7.57942331,11.5359989 C7.41395372,11.5359989 7.24880731,11.4725624 7.12244284,11.345364 L4.08,8.28284279 L4.99396095,7.36252492 L7.57942331,9.96504983 L12.750348,4.76 L13.664309,5.68031787 L8.03640378,11.345364 C7.91003931,11.4725624 7.7448929,11.5359989 7.57942331,11.5359989 L7.57942331,11.5359989 Z" id="Shape-Copy" fill="#000000"></path>
                </g>
            </g>
        </g>
    </g>
</svg>