<svg width="25" height="24" viewBox="0 0 25 24" fill="none" xmlns="http://www.w3.org/2000/svg">
<path fill-rule="evenodd" clip-rule="evenodd" d="M16.9618 2.29773C16.574 2.15226 16.1417 2.34874 15.9962 2.73657C15.8507 3.12439 16.0472 3.55672 16.4351 3.70219L17.4423 4.08L4.68964 9.88087C4.31261 10.0524 4.14599 10.4971 4.31749 10.8741C4.489 11.2511 4.93368 11.4178 5.31072 11.2462L18.0618 5.44609L17.6846 6.45177C17.5391 6.83959 17.7356 7.27192 18.1235 7.41739C18.5113 7.56285 18.9436 7.36638 19.0891 6.97855L20.1025 4.27675C20.1176 4.23653 20.1291 4.19536 20.137 4.15372C20.1606 4.03056 20.1535 3.9005 20.1115 3.77533C20.1033 3.75088 20.0938 3.72675 20.083 3.70306C20.0726 3.67998 20.061 3.65756 20.0483 3.63586C19.9743 3.50847 19.8671 3.40987 19.7428 3.34617C19.7173 3.33304 19.6908 3.32133 19.6636 3.31113L16.9618 2.29773ZM5.14941 13.8C5.14941 13.3857 5.4852 13.05 5.89941 13.05H9.49941C9.91363 13.05 10.2494 13.3857 10.2494 13.8V19.2C10.2494 19.6142 9.91363 19.95 9.49941 19.95H5.89941C5.4852 19.95 5.14941 19.6142 5.14941 19.2V13.8ZM6.64941 14.55V18.45H8.74941V14.55H6.64941ZM13.1006 9.44996C12.6864 9.44996 12.3506 9.78575 12.3506 10.2V19.2C12.3506 19.6142 12.6864 19.95 13.1006 19.95H16.7006C17.1148 19.95 17.4506 19.6142 17.4506 19.2V10.2C17.4506 9.78575 17.1148 9.44996 16.7006 9.44996H13.1006ZM13.8506 18.45V10.95H15.9506V18.45H13.8506Z" fill="#373737"/>
<path fill-rule="evenodd" clip-rule="evenodd" d="M16.9618 2.29773C16.574 2.15226 16.1417 2.34874 15.9962 2.73657C15.8507 3.12439 16.0472 3.55672 16.4351 3.70219L17.4423 4.08L4.68964 9.88087C4.31261 10.0524 4.14599 10.4971 4.31749 10.8741C4.489 11.2511 4.93368 11.4178 5.31072 11.2462L18.0618 5.44609L17.6846 6.45177C17.5391 6.83959 17.7356 7.27192 18.1235 7.41739C18.5113 7.56285 18.9436 7.36638 19.0891 6.97855L20.1025 4.27675C20.1176 4.23653 20.1291 4.19536 20.137 4.15372C20.1606 4.03056 20.1535 3.9005 20.1115 3.77533C20.1033 3.75088 20.0938 3.72675 20.083 3.70306C20.0726 3.67998 20.061 3.65756 20.0483 3.63586C19.9743 3.50847 19.8671 3.40987 19.7428 3.34617C19.7173 3.33304 19.6908 3.32133 19.6636 3.31113L16.9618 2.29773ZM5.14941 13.8C5.14941 13.3857 5.4852 13.05 5.89941 13.05H9.49941C9.91363 13.05 10.2494 13.3857 10.2494 13.8V19.2C10.2494 19.6142 9.91363 19.95 9.49941 19.95H5.89941C5.4852 19.95 5.14941 19.6142 5.14941 19.2V13.8ZM6.64941 14.55V18.45H8.74941V14.55H6.64941ZM13.1006 9.44996C12.6864 9.44996 12.3506 9.78575 12.3506 10.2V19.2C12.3506 19.6142 12.6864 19.95 13.1006 19.95H16.7006C17.1148 19.95 17.4506 19.6142 17.4506 19.2V10.2C17.4506 9.78575 17.1148 9.44996 16.7006 9.44996H13.1006ZM13.8506 18.45V10.95H15.9506V18.45H13.8506Z" fill="black" fill-opacity="0.2"/>
</svg>
