<svg width="24" height="25" viewBox="0 0 24 25" fill="none" xmlns="http://www.w3.org/2000/svg">
<path fill-rule="evenodd" clip-rule="evenodd" d="M13.375 2.5C13.375 1.94772 12.9273 1.5 12.375 1.5C11.8227 1.5 11.375 1.94772 11.375 2.5V3.75C11.375 4.30228 11.8227 4.75 12.375 4.75C12.9273 4.75 13.375 4.30228 13.375 3.75V2.5ZM5.03899 4.53853C5.42951 4.14801 6.06268 4.14801 6.4532 4.53853L7.33758 5.4229C7.7281 5.81343 7.7281 6.44659 7.33758 6.83712C6.94705 7.22764 6.31389 7.22764 5.92336 6.83712L5.03899 5.95274C4.64846 5.56222 4.64846 4.92905 5.03899 4.53853ZM2 11.875C2 11.3227 2.44772 10.875 3 10.875H4.25C4.80228 10.875 5.25 11.3227 5.25 11.875C5.25 12.4273 4.80228 12.875 4.25 12.875H3C2.44772 12.875 2 12.4273 2 11.875ZM19.7106 4.53853C20.1011 4.92905 20.1011 5.56222 19.7106 5.95274L18.8262 6.83712C18.4357 7.22764 17.8026 7.22764 17.412 6.83712C17.0215 6.44659 17.0215 5.81343 17.412 5.4229L18.2964 4.53853C18.6869 4.14801 19.3201 4.14801 19.7106 4.53853ZM20.5 10.875C19.9477 10.875 19.5 11.3227 19.5 11.875C19.5 12.4273 19.9477 12.875 20.5 12.875H21.75C22.3023 12.875 22.75 12.4273 22.75 11.875C22.75 11.3227 22.3023 10.875 21.75 10.875H20.5ZM5.75 11.875C5.75 8.21584 8.71584 5.25 12.375 5.25C16.0342 5.25 19 8.21584 19 11.875C19 13.9542 18.0393 15.8057 16.5445 17.0165C16.0908 17.384 15.875 17.7967 15.875 18.147V18.5V20.25C15.875 21.9069 14.5319 23.25 12.875 23.25H11.875C10.2181 23.25 8.875 21.9069 8.875 20.25V18.5V18.147C8.875 17.7967 8.65915 17.384 8.20547 17.0165C6.71067 15.8057 5.75 13.9542 5.75 11.875ZM10.875 19.5V20.25C10.875 20.8023 11.3227 21.25 11.875 21.25H12.875C13.4273 21.25 13.875 20.8023 13.875 20.25V19.5H10.875ZM13.9465 17.5H10.8035C10.6099 16.6343 10.0505 15.9373 9.46436 15.4624C8.41674 14.6138 7.75 13.3237 7.75 11.875C7.75 9.32041 9.82041 7.25 12.375 7.25C14.9296 7.25 17 9.32041 17 11.875C17 13.3237 16.3333 14.6138 15.2856 15.4624C14.6995 15.9373 14.1401 16.6343 13.9465 17.5Z" fill="#373737"/>
<path fill-rule="evenodd" clip-rule="evenodd" d="M13.375 2.5C13.375 1.94772 12.9273 1.5 12.375 1.5C11.8227 1.5 11.375 1.94772 11.375 2.5V3.75C11.375 4.30228 11.8227 4.75 12.375 4.75C12.9273 4.75 13.375 4.30228 13.375 3.75V2.5ZM5.03899 4.53853C5.42951 4.14801 6.06268 4.14801 6.4532 4.53853L7.33758 5.4229C7.7281 5.81343 7.7281 6.44659 7.33758 6.83712C6.94705 7.22764 6.31389 7.22764 5.92336 6.83712L5.03899 5.95274C4.64846 5.56222 4.64846 4.92905 5.03899 4.53853ZM2 11.875C2 11.3227 2.44772 10.875 3 10.875H4.25C4.80228 10.875 5.25 11.3227 5.25 11.875C5.25 12.4273 4.80228 12.875 4.25 12.875H3C2.44772 12.875 2 12.4273 2 11.875ZM19.7106 4.53853C20.1011 4.92905 20.1011 5.56222 19.7106 5.95274L18.8262 6.83712C18.4357 7.22764 17.8026 7.22764 17.412 6.83712C17.0215 6.44659 17.0215 5.81343 17.412 5.4229L18.2964 4.53853C18.6869 4.14801 19.3201 4.14801 19.7106 4.53853ZM20.5 10.875C19.9477 10.875 19.5 11.3227 19.5 11.875C19.5 12.4273 19.9477 12.875 20.5 12.875H21.75C22.3023 12.875 22.75 12.4273 22.75 11.875C22.75 11.3227 22.3023 10.875 21.75 10.875H20.5ZM5.75 11.875C5.75 8.21584 8.71584 5.25 12.375 5.25C16.0342 5.25 19 8.21584 19 11.875C19 13.9542 18.0393 15.8057 16.5445 17.0165C16.0908 17.384 15.875 17.7967 15.875 18.147V18.5V20.25C15.875 21.9069 14.5319 23.25 12.875 23.25H11.875C10.2181 23.25 8.875 21.9069 8.875 20.25V18.5V18.147C8.875 17.7967 8.65915 17.384 8.20547 17.0165C6.71067 15.8057 5.75 13.9542 5.75 11.875ZM10.875 19.5V20.25C10.875 20.8023 11.3227 21.25 11.875 21.25H12.875C13.4273 21.25 13.875 20.8023 13.875 20.25V19.5H10.875ZM13.9465 17.5H10.8035C10.6099 16.6343 10.0505 15.9373 9.46436 15.4624C8.41674 14.6138 7.75 13.3237 7.75 11.875C7.75 9.32041 9.82041 7.25 12.375 7.25C14.9296 7.25 17 9.32041 17 11.875C17 13.3237 16.3333 14.6138 15.2856 15.4624C14.6995 15.9373 14.1401 16.6343 13.9465 17.5Z" fill="black" fill-opacity="0.2"/>
</svg>
