<svg width="49" height="48" viewBox="0 0 49 48" fill="none" xmlns="http://www.w3.org/2000/svg">
<path fill-rule="evenodd" clip-rule="evenodd" d="M31.1458 2.919C30.6727 5.97955 28.027 8.32257 24.8339 8.32257C21.6408 8.32257 18.9949 5.97939 18.522 2.91869C20.5212 2.32104 22.6398 2 24.8334 2C27.0273 2 29.1463 2.32115 31.1458 2.919ZM35.2754 4.63116C33.4463 7.12972 33.6606 10.6568 35.9182 12.9144C38.1758 15.172 41.7031 15.3862 44.2017 13.557C42.1619 9.78188 39.0506 6.67074 35.2754 4.63116ZM45.9143 17.6874C42.8514 18.1585 40.506 20.8053 40.506 24C40.506 27.1947 42.8514 29.8416 45.9143 30.3126C46.5122 28.313 46.8334 26.194 46.8334 24C46.8334 21.806 46.5122 19.687 45.9143 17.6874ZM44.2014 34.4435C41.7027 32.6137 38.175 32.8277 35.9171 35.0856C33.6594 37.3433 33.4452 40.8707 35.2746 43.3693C39.05 41.3298 42.1615 38.2187 44.2014 34.4435ZM31.1458 45.081C30.6727 42.0204 28.027 39.6774 24.8339 39.6774C21.6408 39.6774 18.9949 42.0206 18.522 45.0813C20.5212 45.679 22.6398 46 24.8334 46C27.0273 46 29.1463 45.6788 31.1458 45.081ZM14.3906 43.3684C16.2192 40.8699 16.0048 37.3431 13.7474 35.0857C11.49 32.8283 7.9633 32.6139 5.46477 34.4424C7.50439 38.2176 10.6155 41.3287 14.3906 43.3684ZM3.75227 30.312C6.81357 29.8396 9.1574 27.1935 9.1574 23.9999C9.1574 20.8064 6.81359 18.1602 3.75231 17.6879C3.1545 19.6873 2.83337 21.8061 2.83337 24C2.83337 26.1938 3.15448 28.3126 3.75227 30.312ZM5.46441 13.5582C7.9629 15.3862 11.4892 15.1716 13.7463 12.9144C16.0036 10.6571 16.2181 7.13055 14.3898 4.63204C10.6148 6.67185 7.50388 9.78309 5.46441 13.5582ZM26.8614 12.0647C26.8614 13.1871 25.9515 14.0969 24.8292 14.0969C23.7068 14.0969 22.7969 13.1871 22.7969 12.0647C22.7969 10.9423 23.7068 10.0324 24.8292 10.0324C25.9515 10.0324 26.8614 10.9423 26.8614 12.0647ZM31.832 16.9973C32.6256 17.791 33.9124 17.791 34.706 16.9973C35.4997 16.2037 35.4997 14.9169 34.706 14.1233C33.9124 13.3296 32.6256 13.3296 31.832 14.1233C31.0383 14.9169 31.0383 16.2037 31.832 16.9973ZM36.7695 26.0323C35.6471 26.0323 34.7372 25.1224 34.7372 24C34.7372 22.8776 35.6471 21.9678 36.7695 21.9678C37.8919 21.9678 38.8017 22.8776 38.8017 24C38.8017 25.1224 37.8919 26.0323 36.7695 26.0323ZM31.8348 31.0026C31.0411 31.7962 31.0411 33.083 31.8348 33.8766C32.6284 34.6703 33.9152 34.6703 34.7088 33.8766C35.5025 33.083 35.5025 31.7962 34.7088 31.0026C33.9152 30.2089 32.6284 30.2089 31.8348 31.0026ZM26.8614 35.9355C26.8614 37.0579 25.9515 37.9678 24.8292 37.9678C23.7068 37.9678 22.7969 37.0579 22.7969 35.9355C22.7969 34.8131 23.7068 33.9032 24.8292 33.9032C25.9515 33.9032 26.8614 34.8131 26.8614 35.9355ZM14.9555 33.8766C15.7491 34.6703 17.0359 34.6703 17.8295 33.8766C18.6232 33.083 18.6232 31.7962 17.8295 31.0026C17.0359 30.2089 15.7491 30.2089 14.9555 31.0026C14.1618 31.7962 14.1618 33.083 14.9555 33.8766ZM12.8952 26.0323C11.7728 26.0323 10.863 25.1224 10.863 24C10.863 22.8776 11.7728 21.9678 12.8952 21.9678C14.0176 21.9678 14.9275 22.8776 14.9275 24C14.9275 25.1224 14.0176 26.0323 12.8952 26.0323ZM14.9542 14.1233C14.1606 14.9169 14.1606 16.2037 14.9542 16.9973C15.7479 17.791 17.0346 17.791 17.8283 16.9973C18.6219 16.2037 18.6219 14.9169 17.8283 14.1233C17.0346 13.3296 15.7479 13.3296 14.9542 14.1233Z" fill="#D9D9D9"/>
</svg>
