<svg width="49" height="48" viewBox="0 0 49 48" fill="none" xmlns="http://www.w3.org/2000/svg">
<path fill-rule="evenodd" clip-rule="evenodd" d="M30.4734 8H38.8334C41.0425 8 42.8334 9.79086 42.8334 12V40C42.8334 42.2091 41.0425 44 38.8334 44H10.8334C8.62423 44 6.83337 42.2091 6.83337 40V12C6.83337 9.79086 8.62423 8 10.8334 8H19.1934C20.0334 5.68 22.2334 4 24.8334 4C27.4334 4 29.6334 5.68 30.4734 8ZM26.8334 10C26.8334 8.89543 25.9379 8 24.8334 8C23.7288 8 22.8334 8.89543 22.8334 10C22.8334 11.1046 23.7288 12 24.8334 12C25.9379 12 26.8334 11.1046 26.8334 10ZM34.8334 16V12H38.8334V40H10.8334V12H14.8334V16H34.8334ZM18.8334 26L15.8334 29L22.8334 36L34.8334 24L31.8334 21L22.8334 30L18.8334 26Z" fill="#D9D9D9"/>
</svg>
