<svg width="49" height="48" viewBox="0 0 49 48" fill="none" xmlns="http://www.w3.org/2000/svg">
<path fill-rule="evenodd" clip-rule="evenodd" d="M33.0904 4.59559C32.3147 4.30465 31.4501 4.69759 31.1591 5.47325C30.8682 6.24891 31.2611 7.11356 32.0368 7.4045L34.0513 8.16012L8.54598 19.7619C7.7919 20.1049 7.45866 20.9942 7.80167 21.7483C8.14469 22.5024 9.03405 22.8356 9.78813 22.4926L35.2903 10.8923L34.5359 12.9037C34.245 13.6793 34.6379 14.544 35.4136 14.8349C36.1893 15.1258 37.0539 14.7329 37.3448 13.9572L39.3716 8.55363C39.4018 8.47318 39.4248 8.39085 39.4407 8.30756C39.4878 8.06124 39.4738 7.80113 39.3896 7.55079C39.3733 7.50187 39.3543 7.45362 39.3328 7.40624C39.3118 7.36009 39.2886 7.31525 39.2633 7.27183C39.1153 7.01706 38.9008 6.81985 38.6524 6.69247C38.6012 6.6662 38.5483 6.64278 38.494 6.62239L33.0904 4.59559ZM9.46552 27.6C9.46552 26.7716 10.1371 26.1 10.9655 26.1H18.1655C18.9939 26.1 19.6655 26.7716 19.6655 27.6V38.4C19.6655 39.2285 18.9939 39.9 18.1655 39.9H10.9655C10.1371 39.9 9.46552 39.2285 9.46552 38.4V27.6ZM12.4655 29.1V36.9H16.6655V29.1H12.4655ZM25.3679 18.9C24.5394 18.9 23.8679 19.5716 23.8679 20.4V38.4C23.8679 39.2285 24.5394 39.9 25.3679 39.9H32.5679C33.3963 39.9 34.0679 39.2285 34.0679 38.4V20.4C34.0679 19.5716 33.3963 18.9 32.5679 18.9H25.3679ZM26.8679 36.9V21.9H31.0679V36.9H26.8679Z" fill="#F1CFBC"/>
</svg>
