<svg width="49" height="48" viewBox="0 0 49 48" fill="none" xmlns="http://www.w3.org/2000/svg">
<path fill-rule="evenodd" clip-rule="evenodd" d="M2.16669 4H46.1667C47.2713 4 48.1667 4.89543 48.1667 6V42C48.1667 43.1046 47.2713 44 46.1667 44H2.16669C1.06212 44 0.166687 43.1046 0.166687 42V6C0.166687 4.89543 1.06212 4 2.16669 4ZM40.1667 40H44.1667V8H4.16669V40H30.1667V38H40.1667V40ZM20.7467 19.42C20.7467 17.5312 22.2779 16 24.1667 16C26.0667 16 27.5867 17.54 27.5867 19.42C27.5867 21.32 26.0667 22.86 24.1667 22.86C22.2667 22.86 20.7467 21.32 20.7467 19.42ZM14.1667 20C12.7467 20 11.5867 21.16 11.5867 22.58C11.5867 24 12.7467 25.14 14.1667 25.14C15.5867 25.14 16.7467 24 16.7467 22.58C16.7467 21.1551 15.5916 20 14.1667 20ZM31.5867 22.58C31.5867 21.1551 32.7418 20 34.1667 20C35.5916 20 36.7467 21.1551 36.7467 22.58C36.7467 24 35.5867 25.14 34.1667 25.14C32.7467 25.14 31.5867 24 31.5867 22.58ZM40.1667 32V30.28C40.1667 28.4 37.0667 26.86 34.1667 26.86C33.0667 26.86 31.9467 27.08 30.9667 27.46C29.4667 26.08 26.7667 25.14 24.1667 25.14C21.5667 25.14 18.8667 26.08 17.3667 27.46C16.3867 27.08 15.2667 26.86 14.1667 26.86C11.2667 26.86 8.16669 28.4 8.16669 30.28V32H16.1667H20.1667H28.1667H32.1667H40.1667Z" fill="#D9D9D9"/>
</svg>
