<svg width="49" height="48" viewBox="0 0 49 48" fill="none" xmlns="http://www.w3.org/2000/svg">
<path fill-rule="evenodd" clip-rule="evenodd" d="M42.1685 8.00012V24.1801L42.1684 28.1801C42.1684 30.3892 40.3776 32.1801 38.1684 32.1801H19.1666V28.1801H38.1684V14.2454L38.1685 8.00012H18.1685C18.1685 6.60012 17.7885 5.22012 17.0885 4.00012H38.1685C40.3776 4.00012 42.1685 5.79098 42.1685 8.00012ZM28.1666 14.0002V18.0002H16.1666V44.0002H12.1666V32.0002H8.16656V44.0002H4.16656V28.0002H1.16656V18.0002C1.16656 15.7911 2.95743 14.0002 5.16656 14.0002H28.1666ZM10.1666 12.0001C12.3757 12.0001 14.1666 10.2093 14.1666 8.00012C14.1666 5.79098 12.3757 4.00012 10.1666 4.00012C7.95744 4.00012 6.16658 5.79098 6.16658 8.00012C6.16658 10.2093 7.95744 12.0001 10.1666 12.0001Z" fill="#D9D9D9"/>
</svg>
