<svg width="49" height="48" viewBox="0 0 49 48" fill="none" xmlns="http://www.w3.org/2000/svg">
<path fill-rule="evenodd" clip-rule="evenodd" d="M17.8334 17C17.8334 13.134 20.9674 10 24.8334 10C28.6994 10 31.8334 13.134 31.8334 17C31.8334 20.866 28.6994 24 24.8334 24C20.9674 24 17.8334 20.866 17.8334 17ZM6.83337 21C6.83337 18.2386 9.07195 16 11.8334 16C12.5534 16 13.2334 16.16 13.8334 16.44V17C13.8334 19.4 14.6134 21.72 16.0734 23.62C15.6134 24.34 14.9934 24.94 14.2534 25.36C13.5334 25.76 12.7134 26 11.8334 26C10.9534 26 10.1334 25.76 9.41337 25.36C7.89337 24.5 6.83337 22.88 6.83337 21ZM37.8334 16C37.1134 16 36.4334 16.16 35.8334 16.44V17C35.8334 19.4 35.0534 21.72 33.5934 23.62C33.8334 24 34.0934 24.3 34.3934 24.6C34.7134 24.9 35.0334 25.16 35.4134 25.36C36.1334 25.76 36.9534 26 37.8334 26C38.7134 26 39.5334 25.76 40.2534 25.36C41.7734 24.5 42.8334 22.88 42.8334 21C42.8334 18.2386 40.5948 16 37.8334 16ZM10.8334 35C10.8334 30.34 20.1534 28 24.8334 28C29.5134 28 38.8334 30.34 38.8334 35V38H10.8334V35ZM10.2534 29.1C6.39337 29.56 0.833374 31.52 0.833374 35V38H6.83337V34.14C6.83337 32.12 8.21337 30.44 10.2534 29.1ZM42.8334 34.14C42.8334 32.12 41.4534 30.44 39.4134 29.1C43.2734 29.56 48.8334 31.52 48.8334 35V38H42.8334V34.14Z" fill="#D9D9D9"/>
</svg>
