<svg width="16" height="16" viewBox="0 0 16 16" fill="none" xmlns="http://www.w3.org/2000/svg">
<path fill-rule="evenodd" clip-rule="evenodd" d="M14.6131 3.49502L15.5559 4.43783L14.6131 5.38064L13.6703 6.32343L13.6704 6.32351L12.7276 7.26632L12.7275 7.26624L8.48476 11.509L8.48484 11.5091L7.54203 12.4519L7.54195 12.4518L7.30633 12.6874L3.42117 13.8698L1.88517 14.3373L2.35265 12.8013L3.53509 8.91617L10.8419 1.6094L11.7847 0.666591L12.7275 1.6094L14.6131 3.49502ZM9.89907 4.43781L5.65633 8.68055L7.54195 10.5662L11.7847 6.32343L9.89907 4.43781ZM10.8419 3.495L12.7275 5.38062L13.6703 4.43783L11.7847 2.55221L10.8419 3.495ZM3.88864 12.3339L4.71357 9.6234L6.5991 11.5089L3.88864 12.3339Z" fill="#5C5C5C"/>
</svg>
