<svg width="49" height="48" viewBox="0 0 49 48" fill="none" xmlns="http://www.w3.org/2000/svg">
<path fill-rule="evenodd" clip-rule="evenodd" d="M24.0372 0.615356C14.3514 0.615901 6.49976 8.46793 6.49976 18.1538C6.49976 27.8397 14.3514 35.6917 24.0372 35.6923H24.0392L24.0392 47.3846L26.9623 47.3846C36.6481 47.384 44.4998 39.532 44.4998 29.8461C44.4998 20.1602 36.6481 12.3082 26.9623 12.3076H26.9603V0.615366L24.0372 0.615356ZM24.0372 29.8461V32.7692C15.9658 32.7687 9.42283 26.2253 9.42283 18.1538C9.42283 10.0823 15.9658 3.53898 24.0372 3.53843V6.46152C17.58 6.46189 12.3456 11.6966 12.3456 18.1538C12.3456 24.6111 17.58 29.8458 24.0372 29.8461ZM15.2687 18.1538C15.2687 13.3109 19.1944 9.38496 24.0372 9.3846V12.3077C20.8086 12.3079 18.1914 14.9252 18.1914 18.1538C18.1914 21.3825 20.8086 23.9998 24.0372 24V26.9231C19.1944 26.9227 15.2687 22.9967 15.2687 18.1538ZM21.1145 18.1538C21.1145 16.5396 22.423 15.2309 24.0372 15.2308V21.0769C22.423 21.0767 21.1145 19.7681 21.1145 18.1538ZM26.9623 18.1538V15.2307C35.0337 15.2313 41.5767 21.7746 41.5767 29.8461C41.5767 37.9176 35.0337 44.4609 26.9623 44.4615V41.5384C33.4195 41.538 38.6539 36.3033 38.6539 29.8461C38.6539 23.3888 33.4195 18.1541 26.9623 18.1538ZM35.7309 29.8461C35.7309 34.689 31.8051 38.615 26.9623 38.6153L26.9623 35.6922C30.1909 35.6921 32.8081 33.0747 32.8081 29.8461C32.8081 26.6174 30.1909 24.0001 26.9623 23.9999V21.0769C31.8051 21.0772 35.7309 25.0032 35.7309 29.8461ZM29.885 29.8461C29.885 31.4603 28.5765 32.769 26.9623 32.7692V26.923C28.5765 26.9232 29.885 28.2318 29.885 29.8461Z" fill="#D9D9D9"/>
</svg>
