<svg width="49" height="48" viewBox="0 0 49 48" fill="none" xmlns="http://www.w3.org/2000/svg">
<path fill-rule="evenodd" clip-rule="evenodd" d="M27.5834 4C27.5834 2.89543 26.6879 2 25.5834 2C24.4788 2 23.5834 2.89543 23.5834 4V6.5C23.5834 7.60457 24.4788 8.5 25.5834 8.5C26.6879 8.5 27.5834 7.60457 27.5834 6.5V4ZM10.9113 8.07706C11.6924 7.29601 12.9587 7.29601 13.7398 8.07706L15.5085 9.84581C16.2896 10.6269 16.2896 11.8932 15.5085 12.6742C14.7275 13.4553 13.4611 13.4553 12.6801 12.6742L10.9113 10.9055C10.1303 10.1244 10.1303 8.85811 10.9113 8.07706ZM4.83337 22.75C4.83337 21.6454 5.7288 20.75 6.83337 20.75H9.33337C10.4379 20.75 11.3334 21.6454 11.3334 22.75C11.3334 23.8546 10.4379 24.75 9.33337 24.75H6.83337C5.7288 24.75 4.83337 23.8546 4.83337 22.75ZM40.2546 8.07706C41.0357 8.85811 41.0357 10.1244 40.2546 10.9055L38.4859 12.6742C37.7048 13.4553 36.4385 13.4553 35.6574 12.6742C34.8764 11.8932 34.8764 10.6269 35.6574 9.84581L37.4262 8.07706C38.2072 7.29601 39.4736 7.29601 40.2546 8.07706ZM41.8334 20.75C40.7288 20.75 39.8334 21.6454 39.8334 22.75C39.8334 23.8546 40.7288 24.75 41.8334 24.75H44.3334C45.4379 24.75 46.3334 23.8546 46.3334 22.75C46.3334 21.6454 45.4379 20.75 44.3334 20.75H41.8334ZM12.3334 22.75C12.3334 15.4317 18.2651 9.5 25.5834 9.5C32.9017 9.5 38.8334 15.4317 38.8334 22.75C38.8334 26.9085 36.912 30.6113 33.9224 33.0331C33.0151 33.7681 32.5834 34.5935 32.5834 35.294V36V39.5C32.5834 42.8137 29.8971 45.5 26.5834 45.5H24.5834C21.2697 45.5 18.5834 42.8137 18.5834 39.5V36V35.294C18.5834 34.5935 18.1517 33.7681 17.2443 33.0331C14.2547 30.6113 12.3334 26.9085 12.3334 22.75ZM22.5834 38V39.5C22.5834 40.6046 23.4788 41.5 24.5834 41.5H26.5834C27.6879 41.5 28.5834 40.6046 28.5834 39.5V38H22.5834ZM28.7264 34H22.4403C22.0531 32.2687 20.9344 30.8745 19.7621 29.9249C17.6668 28.2276 16.3334 25.6473 16.3334 22.75C16.3334 17.6408 20.4742 13.5 25.5834 13.5C30.6926 13.5 34.8334 17.6408 34.8334 22.75C34.8334 25.6473 33.4999 28.2276 31.4047 29.9249C30.2323 30.8745 29.1136 32.2687 28.7264 34Z" fill="#F1CFBC"/>
</svg>
