<svg width="20" height="20" xmlns="http://www.w3.org/2000/svg">
    <defs>
        <linearGradient x1="50%" y1="0%" x2="50%" y2="100%" id="a">
            <stop stop-color="#00947B" offset="0%"/>
            <stop stop-color="#00C2A2" offset="100%"/>
        </linearGradient>
    </defs>
    <path d="m5 15 3.2-6.8L15 5l-3.2 6.8L5 15m5-5.9a.9.9 0 1 0 0 1.8.9.9 0 0 0 0-1.8M10 0a10 10 0 0 1 10 10c0 5.523-4.477 10-10 10a10 10 0 1 1 0-20m0 2a8 8 0 1 0 0 16 8 8 0 0 0 0-16z" fill="url(#a)" fill-rule="nonzero"/>
</svg>
