<?xml version="1.0" encoding="UTF-8"?>
<svg width="20px" height="19px" viewBox="0 0 20 19" version="1.1" xmlns="http://www.w3.org/2000/svg" xmlns:xlink="http://www.w3.org/1999/xlink">
    <!-- Generator: Sketch 49 (51002) - http://www.bohemiancoding.com/sketch -->
    <title>Group 18</title>
    <desc>Created with Sketch.</desc>
    <defs></defs>
    <g id="Posts" stroke="none" stroke-width="1" fill="none" fill-rule="evenodd">
        <g id="00_05-Nav-Bar---Learning-Tools" transform="translate(-515.000000, -268.000000)" fill="#00C2A2">
            <g id="Group-16" transform="translate(485.000000, 46.000000)">
                <g id="Group-9" transform="translate(25.000000, 216.000000)">
                    <g id="Group-15">
                        <g id="Group-13" transform="translate(5.000000, 6.000000)">
                            <g id="Group-18">
                                <path d="M18.9254074,2.9588195 C18.7644074,2.9588195 18.583963,3.02033847 18.3848519,3.14337642 C17.7221852,3.55473823 17.0307407,3.7533778 16.2685185,3.7533778 C14.9867407,3.7533778 13.6590741,3.18043604 12.3757407,2.6252829 C11.0504074,2.05308233 9.6822963,1.46086957 8.30874074,1.46086957 C7.46251852,1.46086957 6.6932963,1.68248611 5.96062963,2.13609588 C5.54685185,2.39032489 5.18518519,3.00996178 5.18518519,3.46283036 L5.18518519,10.0920556 C5.18518519,10.4641342 5.43718519,10.5953253 5.65185185,10.5953253 C5.8112963,10.5953253 5.9932963,10.5345475 6.19240741,10.4122507 C6.85196296,10.0008889 7.54574074,9.80150816 8.30874074,9.80150816 C9.5912963,9.80150816 10.9166296,10.3751911 12.2007407,10.9296031 C13.5268519,11.5003212 14.8941852,12.092534 16.266963,12.092534 C17.1147407,12.092534 17.8831852,11.8723999 18.6142963,11.4173077 C19.0288519,11.1630787 19.3920741,10.5434418 19.3920741,10.0920556 L19.3920741,3.46283036 C19.3920741,3.09149295 19.1392963,2.9588195 18.9254074,2.9588195" id="Fill-42"></path>
                                <path d="M1.48477778,0 C0.666555556,0 0,0.634460734 0,1.41567757 C0,1.87521689 0.231,2.28213154 0.588,2.5408077 C0.588,2.5608199 0.584888889,2.57860852 0.584888889,2.59787952 L0.584888889,17.289055 C0.584888889,17.7611946 0.987,18.1443911 1.48088889,18.1443911 L1.48866667,18.1443911 C1.98177778,18.1443911 2.38466667,17.7611946 2.38466667,17.289055 L2.38466667,2.59787952 C2.38466667,2.57860852 2.38388889,2.5608199 2.38311111,2.5408077 C2.73855556,2.28213154 2.96955556,1.87521689 2.96955556,1.41567757 C2.96955556,0.634460734 2.30455556,0 1.48477778,0" id="Fill-44"></path>
                            </g>
                        </g>
                    </g>
                </g>
            </g>
        </g>
    </g>
</svg>