<?xml version="1.0" encoding="UTF-8"?>
<svg width="21px" height="21px" viewBox="0 0 21 21" version="1.1" xmlns="http://www.w3.org/2000/svg" xmlns:xlink="http://www.w3.org/1999/xlink">
    <!-- Generator: Sketch 49 (51002) - http://www.bohemiancoding.com/sketch -->
    <title>Star 2</title>
    <desc>Created with Sketch.</desc>
    <defs>
        <linearGradient x1="50%" y1="97.267618%" x2="50%" y2="4.22247299%" id="linearGradient-1">
            <stop stop-color="#00C2A2" offset="0%"></stop>
            <stop stop-color="#01A58A" offset="58.0875319%"></stop>
            <stop stop-color="#00947B" offset="100%"></stop>
        </linearGradient>
    </defs>
    <g id="00-Homepage" stroke="none" stroke-width="1" fill="none" fill-rule="evenodd">
        <g id="00_08-Nav-Bar---Our-Story" transform="translate(-839.000000, -382.000000)" fill="url(#linearGradient-1)" fill-rule="nonzero">
            <g id="Group-4" transform="translate(834.000000, 67.000000)">
                <g id="Group-2">
                    <path d="M15.4557069,331.827466 L17.189907,333.345701 C17.3683902,333.501957 17.5876515,333.604201 17.8220776,333.640487 C18.5043089,333.746089 19.1429738,333.278638 19.2485756,332.596407 L19.5921421,330.376825 L21.8376633,330.423904 C22.074829,330.428877 22.3085135,330.366261 22.5114188,330.243372 C23.1019179,329.885738 23.2906922,329.117124 22.933058,328.526625 L21.7695255,326.605487 L23.5199565,325.198158 C23.7048322,325.04952 23.8435964,324.851344 23.9200393,324.626781 C24.142505,323.973252 23.7930591,323.263118 23.1395299,323.040652 L20.9544881,322.296849 L21.5439629,320.289026 C21.6143269,320.049357 21.6112736,319.794105 21.5351968,319.556188 C21.3249348,318.898631 20.6214284,318.536027 19.9638714,318.746289 L17.622309,319.495033 L16.7624561,317.685716 C16.6662039,317.48318 16.5172403,317.310266 16.3311799,317.185099 C15.758375,316.79976 14.9816461,316.951732 14.5963075,317.524537 L13.2710769,319.494489 L11.3609331,318.764514 C11.1722286,318.6924 10.9688572,318.667095 10.7682343,318.690767 C10.0826346,318.771664 9.59242606,319.393033 9.67332298,320.078632 L9.93464689,322.293347 L7.91936595,323.131557 C7.73608323,323.207789 7.57359115,323.326576 7.44533826,323.478085 C6.99930159,324.005003 7.06486887,324.793739 7.5917869,325.239775 L9.17860282,326.583017 L8.15469259,328.682693 C8.05976693,328.877352 8.0170448,329.093334 8.030713,329.309474 C8.07428271,329.998453 8.66813132,330.521661 9.357111,330.478092 L11.3552851,330.351731 L11.9026491,332.731237 C11.9570638,332.967789 12.0791737,333.183382 12.2540712,333.351693 C12.7515021,333.830393 13.5428127,333.815209 14.0215128,333.317778 L15.4557069,331.827466 Z M15.1023268,334.357894 C14.0491866,335.452242 12.3083034,335.485647 11.2139554,334.432507 C10.8291809,334.062222 10.5605391,333.587919 10.4408267,333.067504 L10.1789603,331.929116 L9.45177891,331.975101 C7.93602361,332.070955 6.62955667,330.919897 6.53370332,329.404141 C6.50363326,328.928635 6.59762195,328.453474 6.80645841,328.025225 L7.31901981,326.974144 L6.62264188,326.384659 C5.46342223,325.403378 5.3191742,323.66816 6.30045489,322.50894 C6.58261125,322.175619 6.94009383,321.914289 7.34331581,321.746578 L8.31217648,321.343603 L8.1836572,320.254405 C8.00568398,318.746085 9.08414266,317.379075 10.5924621,317.201102 C11.0338325,317.149022 11.4812495,317.204693 11.8963994,317.363345 L12.6923003,317.667504 L13.3517215,316.687276 C14.1994665,315.427105 15.9082698,315.092768 17.1684406,315.940513 C17.5777735,316.21588 17.9054934,316.596291 18.1172484,317.041869 L18.4143138,317.66696 L19.5070157,317.317554 C20.953641,316.854978 22.501355,317.652707 22.9639315,319.099332 C23.1313004,319.622749 23.1380177,320.184305 22.983217,320.711575 L22.7986886,321.340101 L23.6229017,321.620669 C25.0606658,322.110093 25.8294469,323.672388 25.3400223,325.110153 C25.1718479,325.604192 24.8665667,326.040179 24.4598402,326.367183 L23.7328519,326.951674 L24.2160897,327.74956 C25.0028849,329.048658 24.5875815,330.739609 23.2884836,331.526404 C22.8420918,331.79676 22.3279859,331.934514 21.8062213,331.923575 L20.8736124,331.904022 L20.7309225,332.825858 C20.4985986,334.326767 19.0935357,335.355158 17.5926268,335.122834 C17.0768894,335.043004 16.5945147,334.818069 16.2018515,334.474305 L15.5442931,333.898634 L15.1023268,334.357894 Z" id="Star-2"></path>
                </g>
            </g>
        </g>
    </g>
</svg>