<?xml version="1.0" encoding="UTF-8"?>
<svg width="22px" height="23px" viewBox="0 0 22 23" version="1.1" xmlns="http://www.w3.org/2000/svg" xmlns:xlink="http://www.w3.org/1999/xlink">
    <!-- Generator: Sketch 49 (51002) - http://www.bohemiancoding.com/sketch -->
    <title>Shape</title>
    <desc>Created with Sketch.</desc>
    <defs></defs>
    <g id="00-Homepage" stroke="none" stroke-width="1" fill="none" fill-rule="evenodd">
        <g id="00_10-Nav-Bar---Signed-In---Support" transform="translate(-773.000000, -413.000000)" fill="#00C2A2" fill-rule="nonzero">
            <path d="M790.904924,426.329171 L791.02537,425.680616 C791.186322,424.813951 791.186322,423.926844 791.02537,423.060179 L790.904924,422.411624 L791.495278,422.117323 L793.004577,421.367056 C793.092669,421.315596 793.13207,421.198243 793.087693,421.077316 C792.777681,420.234362 792.225722,419.412494 791.286925,418.288253 C791.218981,418.206536 791.092157,418.184518 790.994367,418.241234 L789.110825,419.328639 L788.640489,418.925914 C787.977616,418.358329 787.209326,417.91408 786.375293,417.618265 L785.792785,417.411661 L785.792785,415.23796 C785.792785,415.125873 785.709347,415.027797 785.596315,415.008127 C784.529868,414.828295 783.430063,414.831533 782.374301,415.011776 C782.269842,415.030102 782.190645,415.125538 782.190645,415.23796 L782.190645,417.41917 L781.60452,417.624169 C780.780169,417.912489 780.011815,418.35782 779.342941,418.930544 L778.872605,419.333269 L778.336358,419.023684 L776.990807,418.246868 C776.889402,418.188636 776.765214,418.210246 776.695318,418.294307 C775.748492,419.428161 775.199938,420.242204 774.888862,421.087982 C774.850897,421.188914 774.894034,421.307685 774.952011,421.342324 L777.07761,422.421081 L776.95806,423.064809 C776.797131,423.931351 776.797131,424.818199 776.957923,425.679877 L777.078432,426.325685 L776.491895,426.621596 L774.997372,427.373739 C774.896413,427.432715 774.851856,427.556519 774.8907,427.662376 C775.199607,428.498852 775.7491,429.313363 776.696505,430.447913 C776.764449,430.529629 776.891273,430.551647 776.991021,430.493805 L778.873891,429.413257 L779.342941,429.814881 C780.005814,430.382466 780.774104,430.826716 781.608137,431.12253 L782.190645,431.329134 L782.190645,433.502835 C782.190645,433.614922 782.274083,433.712998 782.390402,433.733229 C783.452428,433.91648 784.546177,433.914329 785.6045,433.733649 C785.711481,433.714881 785.792785,433.617315 785.792785,433.502835 L785.792785,431.326255 L786.37891,431.121256 C787.203261,430.832936 787.971615,430.387605 788.640489,429.814881 L789.110825,429.412156 L789.647072,429.721741 L790.992623,430.498557 C791.094028,430.55679 791.218216,430.535179 791.288112,430.451118 C792.274368,429.270046 792.806606,428.490729 793.109747,427.666474 C793.150525,427.554334 793.106631,427.432372 793.055547,427.401292 L790.904924,426.329171 Z M793.881668,425.859418 C794.718899,426.340204 795.084622,427.356375 794.753291,428.26752 C794.359736,429.337634 793.739595,430.245661 792.632551,431.571377 C792.01727,432.311377 790.956671,432.495936 790.119402,432.015126 L789.288153,431.53523 C788.746187,431.937007 788.160324,432.276102 787.542785,432.543868 L787.542785,433.502835 C787.542785,434.464339 786.853723,435.291215 785.902959,435.458006 C784.646372,435.672545 783.352452,435.67509 782.091697,435.457547 C781.140069,435.292047 780.440645,434.469916 780.440645,433.502835 L780.440645,432.542139 C779.820331,432.272175 779.234337,431.933753 778.694251,431.534044 L777.865549,432.009616 C777.03341,432.492257 775.966376,432.307008 775.352066,431.568172 C774.286505,430.29213 773.645384,429.341801 773.248447,428.266943 C772.916893,427.363458 773.281963,426.349101 774.161896,425.836993 L775.140332,425.343367 C775.069527,424.69837 775.069689,424.046663 775.14079,423.400137 L774.120282,422.881377 C773.280859,422.399333 772.909989,421.378205 773.248659,420.477906 C773.644892,419.400509 774.285465,418.449911 775.350879,417.174048 C775.96616,416.434048 777.026759,416.249489 777.864028,416.730299 L778.695277,417.210195 C779.237243,416.808418 779.823106,416.469323 780.440645,416.201557 L780.440645,415.23796 C780.440645,414.280014 781.126085,413.454034 782.075842,413.287419 C783.328187,413.073604 784.625906,413.069783 785.891733,413.283248 C786.843361,413.448749 787.542785,414.270879 787.542785,415.23796 L787.542785,416.198656 C788.162583,416.468396 788.748118,416.806479 789.28783,417.205753 L790.117881,416.726549 C790.95002,416.243909 792.017054,416.429158 792.631364,417.167993 C793.688325,418.433737 794.333204,419.393962 794.730353,420.473852 C795.061709,421.376797 794.721195,422.390988 793.836311,422.905679 L792.843212,423.400755 C792.913728,424.045571 792.913708,424.695794 792.84315,425.340606 L793.881668,425.859418 Z M787.134601,427.350612 L787.064901,427.441269 L786.974244,427.510969 C782.597341,430.876068 777.488359,425.767086 780.853459,421.390183 L780.923159,421.299526 L781.013816,421.229826 C785.390719,417.864727 790.499701,422.973709 787.134601,427.350612 Z M782.172231,422.548599 C780.21361,425.245958 783.118469,428.150817 785.815829,426.192197 C787.77445,423.494837 784.869591,420.589978 782.172231,422.548599 Z" id="Shape"></path>
        </g>
    </g>
</svg>