<?xml version="1.0" encoding="UTF-8"?>
<svg width="12px" height="13px" viewBox="0 0 12 13" version="1.1" xmlns="http://www.w3.org/2000/svg" xmlns:xlink="http://www.w3.org/1999/xlink">
    <!-- Generator: Sketch 49.1 (51147) - http://www.bohemiancoding.com/sketch -->
    <title>Shape</title>
    <desc>Created with Sketch.</desc>
    <defs></defs>
    <g id="00-Homepage" stroke="none" stroke-width="1" fill="none" fill-rule="evenodd">
        <g id="00_13-Nav-Bar---Dashboard-Dropdown" transform="translate(-982.000000, -103.000000)" fill="#00C2A2" fill-rule="nonzero">
            <g id="cog" transform="translate(982.000000, 103.000000)">
                <path d="M10.7873878,7.18207513 L11.8644188,7.80376385 C11.9874222,7.8747555 12.0445137,8.02156593 12.0023837,8.15720573 C11.7226124,9.05798337 11.2449541,9.8717716 10.6202327,10.5476707 C10.5239405,10.6519089 10.3682962,10.675562 10.2453846,10.6046359 L9.16916233,9.9830483 C8.71634896,10.3710273 8.1957622,10.6720232 7.63360459,10.8708862 L7.63360459,12.1138593 C7.63360667,12.2558558 7.5351624,12.378877 7.39662036,12.4100074 C6.51317994,12.6083999 5.56435847,12.6186607 4.63633661,12.4101843 C4.49758824,12.3790228 4.39869528,12.2561206 4.39869528,12.1139098 L4.39869528,10.8708862 C3.8365323,10.6720349 3.31594351,10.3710378 2.86313755,9.9830483 L1.78691525,10.6046359 C1.66400363,10.675562 1.50835933,10.6519089 1.4120672,10.5476707 C0.787371007,9.8717716 0.309687425,9.05798337 0.0299161292,8.15720573 C-0.0122138391,8.0215912 0.0448777016,7.87478077 0.167881035,7.80376385 L1.24493734,7.18207513 C1.13675705,6.59564441 1.13675705,5.99437169 1.24493734,5.40794097 L0.167906307,4.78625226 C0.0449029746,4.71526061 -0.0121885662,4.56845018 0.0299414021,4.43281038 C0.309712698,3.53203274 0.787371007,2.71824451 1.41209248,2.04234536 C1.5083846,1.93810717 1.66402891,1.91445411 1.78694052,1.98538019 L2.86316282,2.60696781 C3.31597619,2.21898881 3.83656294,1.91799286 4.39872055,1.71912991 L4.39872055,0.476131565 C4.39871848,0.334135075 4.49716274,0.211113868 4.63570479,0.179983413 C5.5191452,-0.0184090589 6.46796668,-0.0286698671 7.39598854,0.179806503 C7.5347369,0.210968021 7.63362986,0.333870262 7.63362986,0.476081019 L7.63362986,1.71910463 C8.19579284,1.91795595 8.71638164,2.21895308 9.1691876,2.60694254 L10.2454099,1.98535491 C10.3683215,1.91442883 10.5239658,1.9380819 10.6202579,2.04232009 C11.2449541,2.71821923 11.7226377,3.53200746 12.002409,4.43278511 C12.044539,4.56839963 11.9874474,4.71521006 11.8644441,4.78622698 L10.7873878,5.4079157 C10.8955684,5.99435489 10.8955684,6.59563594 10.7873878,7.18207513 Z M8.03799669,6.29499542 C8.03799669,5.18015609 7.1310019,4.2731613 6.01616257,4.2731613 C4.90132324,4.2731613 3.99432846,5.18015609 3.99432846,6.29499542 C3.99432846,7.40983475 4.90132324,8.31682953 6.01616257,8.31682953 C7.1310019,8.31682953 8.03799669,7.40983475 8.03799669,6.29499542 Z" id="Shape"></path>
            </g>
        </g>
    </g>
</svg>