<svg xmlns="http://www.w3.org/2000/svg" width="13" height="13" viewBox="0 0 13 13">
    <defs>
        <linearGradient id="a" x1="50%" x2="50%" y1="97.268%" y2="4.222%">
            <stop offset="0%" stop-color="#00C2A2"/>
            <stop offset="58.088%" stop-color="#01A58A"/>
            <stop offset="100%" stop-color="#00947B"/>
        </linearGradient>
    </defs>
    <path fill="url(#a)" fill-rule="nonzero" d="M11.213 3.25c.08-.244.162-.487.162-.813C11.375 1.058 10.319 0 8.937 0 7.8 0 6.987.65 6.5 1.381 6.013.65 5.2 0 4.062 0c-1.38 0-2.437 1.056-2.437 2.438 0 .325.081.568.163.812H0V6.5h13V3.25h-1.787zM8.938 1.625c.487 0 .812.325.812.813 0 .487-.325.812-.813.812H7.476c.163-.731.569-1.625 1.463-1.625zm-5.688.813c0-.488.325-.813.813-.813.893 0 1.3.894 1.462 1.625H4.062c-.487 0-.812-.325-.812-.813zm7.313 4.874c.487 0 .812.325.812.813v4.063c0 .487-.325.812-.813.812H2.438c-.488 0-.813-.325-.813-.813V8.125c0-.487.325-.813.813-.813h8.124z"/>
</svg>
