<?xml version="1.0" encoding="UTF-8"?>
<svg width="21px" height="16px" viewBox="0 0 21 16" version="1.1" xmlns="http://www.w3.org/2000/svg" xmlns:xlink="http://www.w3.org/1999/xlink">
    <!-- Generator: Sketch 49.1 (51147) - http://www.bohemiancoding.com/sketch -->
    <title>Path 4</title>
    <desc>Created with Sketch.</desc>
    <defs></defs>
    <g id="00-Homepage" stroke="none" stroke-width="1" fill="none" fill-rule="evenodd">
        <g id="00_07-Nav-Bar---Using-Quill" transform="translate(-717.000000, -74.000000)" fill="#00C2A2" fill-rule="nonzero">
            <g id="Group-8" transform="translate(686.000000, 46.000000)">
                <path d="M49.3068107,35 C49.6715509,35 50.0271762,35.1139655 50.3239775,35.3259664 C51.1104495,35.8877322 51.29261,36.9806948 50.7308443,37.7671668 L47.1594157,42.7671668 C46.8309205,43.2270601 46.3005465,43.5 45.7353821,43.5 L32.75,43.5 C31.7835017,43.5 31,42.7164983 31,41.75 L31,29.75 C31,28.7835017 31.7835017,28 32.75,28 L37.5292408,28 C38.282494,28 38.951237,28.4820027 39.1894366,29.1966014 L39.7335884,30.8290569 C39.7676169,30.9311425 39.8631516,31 39.9707592,31 L45.25,31 C46.2164983,31 47,31.7835017 47,32.75 L47,35 L49.3068107,35 Z M45.5,32.75 C45.5,32.6119288 45.3880712,32.5 45.25,32.5 L39.9707592,32.5 C39.217506,32.5 38.548763,32.0179973 38.3105634,31.3033986 L37.7664116,29.6709431 C37.7323831,29.5688575 37.6368484,29.5 37.5292408,29.5 L32.75,29.5 C32.6119288,29.5 32.5,29.6119288 32.5,29.75 L32.5,39.3100448 L35.8974748,35.5728226 C36.2291386,35.2079924 36.6993162,35 37.1923699,35 L45.5,35 L45.5,32.75 Z M32.5,41.75 C32.5,41.8880712 32.6119288,42 32.75,42 L45.7353821,42 C45.8161199,42 45.8918876,41.9610086 45.9388155,41.8953095 L49.510244,36.8953095 C49.5904963,36.7829564 49.5644734,36.6268189 49.4521202,36.5465666 C49.40972,36.5162808 49.3589164,36.5 49.3068107,36.5 L37.1923699,36.5 C37.1219336,36.5 37.0547654,36.5297132 37.0073849,36.5818318 L32.5,41.5399552 L32.5,41.75 Z" id="Path-4"></path>
            </g>
        </g>
    </g>
</svg>