<?xml version="1.0" encoding="UTF-8"?>
<svg width="17px" height="20px" viewBox="0 0 17 20" version="1.1" xmlns="http://www.w3.org/2000/svg" xmlns:xlink="http://www.w3.org/1999/xlink">
    <!-- Generator: Sketch 49 (51002) - http://www.bohemiancoding.com/sketch -->
    <title>Group 10</title>
    <desc>Created with Sketch.</desc>
    <defs></defs>
    <g id="Posts" stroke="none" stroke-width="1" fill="none" fill-rule="evenodd">
        <g id="00_05-Nav-Bar---Learning-Tools" transform="translate(-517.000000, -137.000000)" fill="#00C2A2">
            <g id="Group-16" transform="translate(485.000000, 46.000000)">
                <g id="Group-17" transform="translate(25.000000, 86.000000)">
                    <g id="Group-10" transform="translate(7.000000, 4.000000)">
                        <path d="M8.05672186,6.89020889 C8.06193088,6.81427861 8.06739251,6.7392414 8.07311257,6.66541575 C8.11313315,6.14889231 8.16031447,5.75063085 8.22510244,5.47226467 C8.50119818,4.28599943 8.81360265,3.33939278 9.24604229,2.84307704 C9.60885082,2.4266777 10.2405236,2.38323376 10.656923,2.74604229 C11.0733223,3.10885082 11.1167662,3.74052361 10.7539577,4.15692296 C10.6329003,4.29586194 10.3596635,5.12378777 10.1730387,5.92563453 C10.1452686,6.04495084 10.115207,6.27517958 10.087724,6.57538632 C10.9567812,6.26437223 11.957458,5.88923847 13.2062415,6.03517766 C15.2228854,6.27085292 16.4892752,7.97601363 16.9007778,10.2179407 C17.3122803,12.4598679 16.3825322,15.6333638 15.2412967,17.3588412 C14.1000612,19.0843186 12.2476035,21 10.9336349,21 C9.61966634,21 9.40824502,20.3428615 9.40824502,20.3428615 C9.02297767,19.9431127 8.47647706,19.9287794 8.12734791,20.3511229 C8.12734791,20.3511229 7.89394218,21 6.77625776,21 C5.65857335,21 3.23518898,19.2506901 1.77512799,17.0873553 C0.315067005,14.9240205 -0.342608575,12.9180182 0.175385195,10.3580297 C0.693378965,7.79804117 2.03812946,6.28603163 3.43637927,6.03517766 C4.64850293,5.81771578 6.73294067,6.67073476 8.05672186,6.89020889 Z M2.39902703,10.8386179 C2.377885,10.9345709 2.34930619,11.0961884 2.32168381,11.3140866 C2.23419501,12.0042389 2.21778667,12.781075 2.31684966,13.5985704 C2.39315699,14.2282797 2.57425317,14.8363492 2.8277687,15.4106635 C3.0324762,15.874408 3.23992457,16.2254303 3.38890157,16.4348088 C3.62903984,16.7723092 4.09730847,16.8512367 4.43480881,16.6110984 C4.77230916,16.3709602 4.85123671,15.9026915 4.61109843,15.5651912 C4.51702272,15.4329733 4.35989202,15.1670932 4.20002045,14.80492 C4.00257719,14.3576319 3.86302213,13.8890457 3.80595629,13.4181224 C3.72300706,12.7336023 3.73685584,12.0779456 3.80977468,11.502728 C3.83144922,11.3317491 3.85216735,11.2145849 3.86388994,11.1613821 C3.95301879,10.7568713 3.69735126,10.3566974 3.29284054,10.2675685 C2.88832982,10.1784397 2.48815588,10.4341072 2.39902703,10.8386179 Z" id="Combined-Shape" fill-rule="nonzero"></path>
                        <path d="M5,5 C6.7273153,5 7.76795869,3.83289862 7.76795869,3.83289862 C7.96657262,3.64904379 7.96325162,3.33947372 7.76795869,3.16710138 C7.76795869,3.16710138 6.7273153,2 5,2 C3.2726847,2 2.23204131,3.16710138 2.23204131,3.16710138 C2.03342738,3.35095621 2.03674838,3.66052628 2.23204131,3.83289862 C2.23204131,3.83289862 3.2726847,5 5,5 Z" id="Oval-6" transform="translate(5.000000, 3.500000) rotate(-318.000000) translate(-5.000000, -3.500000) "></path>
                    </g>
                </g>
            </g>
        </g>
    </g>
</svg>