<?xml version="1.0" encoding="UTF-8"?>
<svg width="15px" height="20px" viewBox="0 0 15 20" version="1.1" xmlns="http://www.w3.org/2000/svg" xmlns:xlink="http://www.w3.org/1999/xlink">
    <!-- Generator: Sketch 49 (51002) - http://www.bohemiancoding.com/sketch -->
    <title>Path 2</title>
    <desc>Created with Sketch.</desc>
    <defs></defs>
    <g id="00-Homepage" stroke="none" stroke-width="1" fill="none" fill-rule="evenodd">
        <g id="00_08-Nav-Bar---Our-Story" transform="translate(-841.000000, -196.000000)" fill="#00C2A2" fill-rule="nonzero">
            <path d="M846.756624,205 C847.328488,205 847.689964,205.614334 847.412242,206.114232 L844.692847,211.009144 L853.342722,203 L849.756624,203 C849.123904,203 848.775494,202.26477 849.176156,201.775072 L852.673942,197.5 L847.72015,197.5 L843.97015,205 L846.756624,205 Z M842.756624,206.5 C842.199088,206.5 841.836466,205.913266 842.085804,205.41459 L846.585804,196.41459 C846.712848,196.160502 846.972545,196 847.256624,196 L854.256624,196 C854.889344,196 855.237754,196.73523 854.837092,197.224928 L851.339306,201.5 L855.256624,201.5 C855.938795,201.5 856.26673,202.336848 855.76618,202.800321 L842.26618,215.300321 C841.640309,215.879831 840.68677,215.131393 841.101006,214.385768 L845.481988,206.5 L842.756624,206.5 Z" id="Path-2"></path>
        </g>
    </g>
</svg>