<?xml version="1.0" encoding="UTF-8"?>
<svg width="241px" height="310px" viewBox="0 0 241 310" version="1.1" xmlns="http://www.w3.org/2000/svg" xmlns:xlink="http://www.w3.org/1999/xlink">
    <!-- Generator: Sketch 43.2 (39069) - http://www.bohemiancoding.com/sketch -->
    <title>Group 12</title>
    <desc>Created with Sketch.</desc>
    <defs>
        <path d="M226.671097,275.572252 L226.671097,272.176067 C226.671097,271.633281 226.221856,271.18125 225.667688,271.18125 L66.2682524,271.18125 C66.2682524,271.18125 64.3488183,273.283455 62.1387309,273.283455 C59.9286435,273.283455 57.357531,271.18125 57.357531,271.18125 L50.6012246,271.18125 C50.6012246,271.18125 49.5887097,280.841453 49.5887097,290.501657 C49.5887097,300.16186 50.6012246,309.822063 50.6012246,309.822063 L57.357531,309.822063 C57.357531,309.822063 59.580682,307.838709 62.1387309,307.838709 C64.6967797,307.838709 67.6717389,309.822063 67.6717389,309.822063 L225.676467,309.822063 C226.214984,309.822063 226.671097,309.373168 226.671097,308.819428 L226.671097,305.431062 L71.0905102,305.431062 C71.0905102,305.431062 67.3450253,303.163184 67.3450253,290.501657 C67.3450253,277.840129 71.0905102,275.572252 71.0905102,275.572252 L226.671097,275.572252 Z" id="path-1"></path>
        <path d="M187.69831,4.93987669 L187.69831,1.42108547e-14 L10.63753,1.42108547e-14 L3.46963861,2.62555101e-14 C2.90711496,2.72007538e-14 2.37721827,0.433791887 2.26538253,0.968901299 C2.26538253,0.968901299 0.0439160045,10.8677287 0.0439160045,21.7354575 C0.0439160045,32.6031862 2.26330238,42.491676 2.26330238,42.491676 C2.37581674,43.040668 2.91715509,43.4709149 3.47136518,43.4709149 L12.1867696,43.4709149 L187.69831,43.4709149 L187.69831,38.5310382 L12.1384312,38.5310382 C12.1384312,38.5310382 7.9390297,35.9796755 7.9390297,21.7354575 C7.9390297,7.49123937 12.1384312,4.93987669 12.1384312,4.93987669 L187.69831,4.93987669 Z" id="path-2"></path>
        <path d="M231.456375,192.20177 L231.456375,189.364091 C231.456375,188.261906 230.558681,187.371668 229.451319,187.371668 L63.3473241,187.371668 L54.0085065,187.371668 L48.9188766,187.371668 C47.8244087,187.371668 47.0495001,188.251362 47.1998615,189.336521 C47.1998615,189.336521 48.5541914,197.997892 48.5541914,208.624115 C48.5541914,219.250339 47.2016964,227.897614 47.2016964,227.897614 C47.0552433,228.988787 47.8191293,229.876563 48.9188766,229.876563 L54.0085065,229.876563 L64.8182381,229.876563 L229.454118,229.876563 C230.559816,229.876563 231.456375,228.977272 231.456375,227.867941 L231.456375,225.046461 L59.7186468,225.046461 C59.7186468,225.046461 55.584191,222.551795 55.584191,208.624115 C55.584191,194.696435 59.7186468,192.20177 59.7186468,192.20177 L231.456375,192.20177 Z" id="path-3"></path>
        <path d="M7.42354193,2.34112289 L134.779505,2.34112289 L130.779916,8.73939767 L129.158149,12.6246829 C129.158149,12.6246829 128.590304,18.2240156 129.158149,19.8245458 C129.725994,21.425076 133.310681,28.0229667 133.310681,28.0229667 L9.04530894,28.952982 C9.04530894,28.952982 4.68176012,24.2569677 4.68176012,15.8605772 C4.68176012,7.46418671 7.42354193,2.34112289 7.42354193,2.34112289 Z" id="path-4"></path>
        <path d="M136.9031,3.52578749 L136.9031,1.00146873 C136.9031,0.440544011 136.45321,0 135.898242,0 L7.39963899,0 L3.49878731,0 C3.49878731,0 0,7.75673247 0,15.5134649 C1.8850691e-15,23.2701974 3.49878731,31.0269299 3.49878731,31.0269299 L8.53276335,31.0269299 L135.907035,31.0269299 C136.463445,31.0269299 136.9031,30.5812177 136.9031,30.0314037 L136.9031,27.5011424 L11.2929557,27.5011424 C11.2929557,27.5011424 8.26898654,25.6801329 8.26898654,15.5134649 C8.26898654,5.34679703 11.2929557,3.52578749 11.2929557,3.52578749 L136.9031,3.52578749 Z" id="path-5"></path>
        <path d="M165.421097,4.07298655 L165.421097,0.234186747 L4.13801041,0.234186747 L1.01807128,0.234186747 C1.01807128,0.234186747 0,8.67954631 0,17.1249059 C2.29567889e-15,25.5702654 1.01807128,34.015625 1.01807128,34.015625 L5.54919891,34.015625 L165.421097,34.015625 L165.421097,30.1768252 L8.9867313,30.1768252 C8.9867313,30.1768252 5.22069233,28.1941501 5.22069233,17.1249059 C5.22069233,6.05566165 8.9867313,4.07298655 8.9867313,4.07298655 L165.421097,4.07298655 Z" id="path-6"></path>
        <path d="M2.22146652,0.968901299 C2.33330226,0.433791887 2.86319896,1.2989899e-14 3.42572261,1.20446554e-14 L10.593614,0 L185.650694,0 C186.757307,0 187.515642,0.888046684 187.35609,1.98081482 C187.35609,1.98081482 185.847906,10.8677287 185.847906,21.7354575 C185.847906,32.6031862 187.36013,41.5186092 187.36013,41.5186092 C187.522648,42.5968379 186.751925,43.4709149 185.653079,43.4709149 L12.1428536,43.4709149 L3.42744917,43.4709149 C2.87323909,43.4709149 2.33190073,43.040668 2.21938638,42.491676 C2.21938638,42.491676 2.58896872e-15,32.6031862 0,21.7354575 C0,10.8677287 2.22146652,0.968901299 2.22146652,0.968901299 Z" id="path-7"></path>
        <rect id="path-8" x="97.1774194" y="0" width="20.4072581" height="44.70625"></rect>
        <rect id="path-9" x="71.9112903" y="0" width="20.4072581" height="44.70625"></rect>
        <path d="M226.597504,42.5330196 L226.597504,40.7000977 C226.597504,39.0364815 225.251153,37.7029179 223.590345,37.7029179 L58.4884531,37.7029179 L49.1496355,37.7029179 L44.0600056,37.7029179 C42.9655378,37.7029179 42.1906291,38.5826125 42.3409905,39.6677707 C42.3409905,39.6677707 43.6953204,48.3291416 43.6953204,58.9553652 C43.6953204,69.5815889 42.3428254,78.2288641 42.3428254,78.2288641 C42.1963723,79.3200374 42.9602584,80.2078125 44.0600056,80.2078125 L49.1496355,80.2078125 L59.9593672,80.2078125 L223.598801,80.2078125 C225.25616,80.2078125 226.597504,78.8678822 226.597504,77.2149943 L226.597504,75.3777108 L54.8597758,75.3777108 C54.8597758,75.3777108 50.72532,72.8830451 50.72532,58.9553652 C50.72532,45.0276853 54.8597758,42.5330196 54.8597758,42.5330196 L226.597504,42.5330196 Z" id="path-10"></path>
        <path d="M10.0626549,2.51149678 L168.671258,2.51149678 L163.690186,10.2806727 L161.670444,14.9984233 C161.670444,14.9984233 160.963252,21.797475 161.670444,23.7409365 C162.377635,25.684398 166.84199,33.6959598 166.84199,33.6959598 L12.082397,34.8252412 C12.082397,34.8252412 6.64805094,29.1230538 6.64805094,18.9276437 C6.64805094,8.7322337 10.0626549,2.51149678 10.0626549,2.51149678 Z" id="path-11"></path>
        <path d="M171.251743,5.25310147 L171.251743,1.0015172 C171.251743,0.440729845 170.800036,0 170.242827,0 L9.96865557,0 L5.11055062,0 C5.11055062,0 0.753175032,9.41869823 0.753175032,18.8373965 C0.753175032,28.2560947 5.11055062,37.6747929 5.11055062,37.6747929 L11.3798441,37.6747929 L170.251654,37.6747929 C170.807198,37.6747929 171.251743,37.2295115 171.251743,36.680229 L171.251743,32.4216915 L14.8173765,32.4216915 C14.8173765,32.4216915 11.0513375,30.3581449 11.0513375,18.8373965 C11.0513375,7.31664805 14.8173765,5.25310147 14.8173765,5.25310147 L171.251743,5.25310147 Z" id="path-12"></path>
        <path d="M150.918409,3.84212632 L150.918409,0 L3.80107806,0 C3.80107806,0 0.21251587,8.4526779 0.21251587,16.9053558 C0.21251587,25.3580337 3.80107806,33.8107116 3.80107806,33.8107116 L150.918409,33.8107116 L150.918409,29.9685853 L9.85620596,29.9685853 C9.85620596,29.9685853 6.46024019,27.9841921 6.46024019,16.9053558 C6.46024019,5.82651951 9.85620596,3.84212632 9.85620596,3.84212632 L150.918409,3.84212632 Z" id="path-13"></path>
    </defs>
    <g id="01-Tools-Landing-Pages" stroke="none" stroke-width="1" fill="none" fill-rule="evenodd">
        <g id="01_05-QuillTimeout" transform="translate(-924.000000, -226.000000)">
            <g id="Group-12" transform="translate(923.000000, 225.000000)">
                <g id="Group-6">
                    <path d="M62.2217742,124.428125 L218.677419,124.428125 C218.677419,124.428125 212.282108,131.474219 212.282108,138.520312 C212.282108,145.566406 218.677419,152.6125 218.677419,152.6125 L62.2217742,152.6125 L62.2217742,124.428125 Z" id="Rectangle-23" fill="#FFFFFF"></path>
                    <path d="M53.4758065,191.4875 L218.77845,189.762688 C218.77845,189.762688 215.71779,194.423286 214.538199,196.808035 C213.358608,199.192785 211.80986,207.336079 211.80986,207.336079 L214.538199,218.450451 L219.649194,228.41875 L53.4758065,228.41875 L53.4758065,191.4875 Z" id="Rectangle-20" fill="#FFFFFF"></path>
                    <path d="M65.1370968,274.096875 L224.473825,274.861023 C224.473825,274.861023 218.012116,283.516011 218.012116,291.776948 C218.012116,300.037886 223.53629,307.140625 223.53629,307.140625 L65.1370968,307.140625 L65.1370968,274.096875 Z" id="Rectangle-19" fill="#FFFFFF"></path>
                    <polygon id="Rectangle-17-Copy" fill="#FFFFFF" points="57.3287083 232.30625 234.111422 232.30625 234.111422 271.18125 56.391129 271.18125 62.5182077 258.086316 63.3036341 249.648481 60.9682549 240.220714"></polygon>
                    <g id="Combined-Shape-Copy-2">
                        <use fill="#E4FBF7" fill-rule="evenodd" xlink:href="#path-1"></use>
                        <path stroke="#00C2A2" stroke-width="1" d="M226.171097,275.072252 L71.0905102,275.072252 L70.9509323,275.072252 L70.8315358,275.144546 C70.2732117,275.482609 69.5022089,276.383841 68.7593682,278.089207 C67.5590826,280.844745 66.8450253,284.897886 66.8450253,290.501657 C66.8450253,296.105427 67.5590826,300.158568 68.7593682,302.914106 C69.5022089,304.619472 70.2732117,305.520704 70.8315358,305.858768 L70.9509323,305.931062 L71.0905102,305.931062 L226.171097,305.931062 L226.171097,308.819428 C226.171097,309.093353 225.942512,309.322063 225.676467,309.322063 L67.8191108,309.322063 C67.7174757,309.257953 67.5827907,309.175861 67.4187977,309.080234 C67.0076696,308.840498 66.5557843,308.601012 66.0757852,308.377219 C65.0843798,307.914992 64.1046109,307.580098 63.1754592,307.427819 C62.8177723,307.369198 62.4717797,307.338709 62.1387309,307.338709 C60.9212698,307.338709 59.7057669,307.736511 58.5424703,308.39531 C58.1398915,308.623299 57.7719238,308.867337 57.445232,309.111891 C57.3386283,309.191693 57.248145,309.262548 57.1748728,309.322063 L51.0536452,309.322063 C51.0196015,308.973538 50.981744,308.570345 50.9410135,308.116976 C50.8226447,306.799421 50.7042547,305.331025 50.5937509,303.749583 C50.2780895,299.232089 50.0887097,294.715001 50.0887097,290.501657 L50.0887097,290.501657 C50.0887097,286.288313 50.2780895,281.771224 50.5937509,277.25373 C50.7042547,275.672288 50.8226447,274.203892 50.9410135,272.886337 C50.981744,272.432968 51.0196015,272.029775 51.0536452,271.68125 L57.1843826,271.68125 C57.2688622,271.745994 57.3758071,271.825493 57.5029435,271.916417 C57.8604294,272.172079 58.2533908,272.427506 58.6711412,272.666396 C59.5370459,273.161562 60.3943354,273.521079 61.2127295,273.685857 C61.5312916,273.749997 61.8403068,273.783455 62.1387309,273.783455 C63.2240634,273.783455 64.2962094,273.352881 65.3176438,272.642918 C65.6682371,272.399234 65.9881981,272.138775 66.2721138,271.87789 C66.3516936,271.804765 66.4209308,271.738683 66.4792385,271.68125 L225.667688,271.68125 C225.943859,271.68125 226.171097,271.90758 226.171097,272.176067 L226.171097,275.072252 Z"></path>
                    </g>
                    <path d="M222.962433,275.279518 C222.962433,275.279518 217.705645,283.030647 217.705645,290.623291 C217.705645,298.215935 222.962433,306.267578 222.962433,306.267578" id="Path-13-Copy-2" stroke="#00C2A2"></path>
                    <g id="Group-3" transform="translate(148.000000, 250.381457) rotate(-180.000000) translate(-148.000000, -250.381457) translate(54.000000, 228.381457)">
                        <path d="M183.700781,4.83010166 C183.700781,4.83010166 176.862903,13.6032838 176.862903,22.1970829 C176.862903,30.7908819 183.106024,39.1504821 183.106024,39.1504821" id="Path-13-Copy" stroke="#00C2A2" stroke-linecap="round"></path>
                        <g id="Combined-Shape-Copy">
                            <use fill="#FFFFFF" fill-rule="evenodd" xlink:href="#path-2"></use>
                            <path stroke="#00C2A2" stroke-width="1" d="M187.19831,4.43987669 L12.1384312,4.43987669 L11.998448,4.43987669 L11.8788139,4.51256087 C11.2638226,4.88620118 10.4078808,5.89011926 9.58008359,7.79697969 C8.2381203,10.8882402 7.4390297,15.4394603 7.4390297,21.7354575 C7.4390297,28.0314546 8.2381203,32.5826748 9.58008359,35.6739352 C10.4078808,37.5807957 11.2638226,38.5847137 11.8788139,38.958354 L11.998448,39.0310382 L12.1384312,39.0310382 L187.19831,39.0310382 L187.19831,42.9709149 L12.1867696,42.9709149 L3.47136518,42.9709149 C3.14966822,42.9709149 2.81697841,42.702868 2.75312118,42.3912891 C2.73438776,42.3074258 2.70242711,42.1598082 2.65745066,41.9436841 C2.58218462,41.5820103 2.49823318,41.1605309 2.40776296,40.6836057 C2.14898897,39.3194456 1.89010865,37.7857029 1.6484452,36.1172899 C0.958087094,31.3511475 0.543916005,26.4636816 0.543916005,21.7354575 C0.543916005,17.0072452 0.958475802,12.117844 1.6494826,7.34847469 C1.89137392,5.67892668 2.1504986,4.14396789 2.40951717,2.77859176 C2.50007318,2.30123984 2.58410437,1.87936414 2.65944208,1.51733433 C2.70446177,1.30099551 2.73645352,1.15322375 2.75324823,1.07838672 C2.81877102,0.765139712 3.14656385,0.5 3.46963861,0.5 L10.63753,0.5 L187.19831,0.5 L187.19831,4.43987669 Z"></path>
                        </g>
                    </g>
                    <g id="Combined-Shape-Copy">
                        <use fill="#E4FBF6" fill-rule="evenodd" xlink:href="#path-3"></use>
                        <path stroke="#00C2A2" stroke-width="1" d="M230.956375,191.70177 L59.7186468,191.70177 L59.5794858,191.70177 L59.4603344,191.773664 C58.8533154,192.139929 58.009206,193.123175 57.1932755,194.989801 C55.8712593,198.014213 55.084191,202.466196 55.084191,208.624115 C55.084191,214.782035 55.8712593,219.234017 57.1932755,222.258429 C58.009206,224.125056 58.8533154,225.108301 59.4603344,225.474567 L59.5794858,225.546461 L59.7186468,225.546461 L230.956375,225.546461 L230.956375,227.867941 C230.956375,228.701439 230.283363,229.376563 229.454118,229.376563 L64.8182381,229.376563 L54.0085065,229.376563 L48.9188766,229.376563 C48.1251765,229.376563 47.5905848,228.758874 47.6972528,227.964126 C47.7065709,227.905314 47.7266883,227.771424 47.7547216,227.576458 C47.8012704,227.252722 47.8530913,226.874423 47.908863,226.444812 C48.0680372,225.218688 48.227146,223.826391 48.3756138,222.293913 C48.7997309,217.916197 49.0541914,213.290435 49.0541914,208.624115 C49.0541914,203.957785 48.799386,199.329376 48.3746948,194.947253 C48.2260266,193.413239 48.0667033,192.019295 47.9073148,190.791525 C47.8514683,190.361339 47.799578,189.982507 47.752967,189.658292 C47.7248966,189.463041 47.7047529,189.328948 47.6938589,189.259277 C47.5867683,188.485852 48.1252468,187.871668 48.9188766,187.871668 L54.0085065,187.871668 L63.3473241,187.871668 L229.451319,187.871668 C230.283939,187.871668 230.956375,188.53945 230.956375,189.364091 L230.956375,191.70177 Z"></path>
                    </g>
                    <path d="M64.6582515,245.426563 L131.703836,245.426563" id="Line-Copy-13" stroke="#3ADFBB" opacity="0.57" stroke-linecap="round"></path>
                    <path d="M130.730814,256.453831 L185.15121,256.453831" id="Line-Copy-14" stroke="#3ADFBB" opacity="0.57" stroke-linecap="round"></path>
                    <path d="M177.582321,285.273437 L138.300744,285.273438" id="Line-Copy-17" stroke="#3ADFBB" opacity="0.57" stroke-linecap="round"></path>
                    <path d="M218.31134,297.907812 L165.575584,297.907812" id="Line-Copy-19" stroke="#3ADFBB" opacity="0.57" stroke-linecap="round"></path>
                    <g id="Group-8" transform="translate(24.434009, 241.068047) rotate(97.000000) translate(-24.434009, -241.068047) translate(-44.065991, 225.068047)">
                        <g id="Rectangle-16">
                            <use fill="#FFFFFF" fill-rule="evenodd" xlink:href="#path-4"></use>
                            <path d=""></path>
                        </g>
                        <g id="Combined-Shape">
                            <use fill="#EBFBF8" fill-rule="evenodd" xlink:href="#path-5"></use>
                            <path stroke="#00C2A2" stroke-width="1" d="M136.4031,3.02578749 L11.2929557,3.02578749 L11.1540302,3.02578749 L11.0350178,3.09745577 C10.5667686,3.37943161 9.93077694,4.1187909 9.32297333,5.50653156 C8.3478835,7.73286219 7.76898654,11.0008706 7.76898654,15.5134649 C7.76898654,20.0260593 8.3478835,23.2940677 9.32297333,25.5203983 C9.93077694,26.908139 10.5667686,27.6474983 11.0350178,27.9294741 L11.1540302,28.0011424 L11.2929557,28.0011424 L136.4031,28.0011424 L136.4031,30.0314037 C136.4031,30.3076876 136.184697,30.5269299 135.907035,30.5269299 L8.53276335,30.5269299 L3.82718539,30.5269299 C3.8213755,30.5131854 3.81540428,30.4990337 3.8092762,30.4844775 C3.69156256,30.2048684 3.56015133,29.879917 3.41845959,29.5134351 C3.01287542,28.4644023 2.60702586,27.2947152 2.22821316,26.0349864 C1.14775789,22.441969 0.5,18.8518074 0.5,15.5134649 L0.5,15.5134649 C0.5,12.1751224 1.14775789,8.5849609 2.22821316,4.99194348 C2.60702586,3.73221469 3.01287542,2.56252759 3.41845959,1.51349481 C3.56015133,1.14701286 3.69156256,0.822061469 3.8092762,0.542452364 C3.81540428,0.527896142 3.8213755,0.513744506 3.82718759,0.5 L7.39963899,0.5 L135.898242,0.5 C136.180774,0.5 136.4031,0.720379104 136.4031,1.00146873 L136.4031,3.02578749 Z"></path>
                        </g>
                        <path d="M134.597411,3.32718674 C134.597411,3.32718674 128.748403,10.5755835 128.748403,16.4819422 C128.748403,22.3883009 133.314665,28.1336991 133.314665,28.1336991" id="Path-13" stroke="#00C2A2" stroke-linecap="round"></path>
                    </g>
                    <polygon id="Rectangle-22" fill="#5AAEF6" points="104.979839 244.940625 123.443548 244.940625 123.443548 274.096875 114.211694 263.101278 104.979839 274.096875"></polygon>
                    <g id="Group-7" transform="translate(79.713710, 154.556250)"></g>
                    <g id="Group-4" transform="translate(57.362903, 121.512500)">
                        <g id="Combined-Shape-Copy-2">
                            <use fill="#E4FBF6" fill-rule="evenodd" xlink:href="#path-6"></use>
                            <path stroke="#00C2A2" stroke-width="1" d="M164.921097,3.57298655 L8.9867313,3.57298655 L8.86315548,3.57298655 L8.75380755,3.63055404 C8.19091409,3.92689586 7.4097568,4.72081168 6.65667416,6.22402131 C5.44218325,8.64823656 4.72069233,12.2090125 4.72069233,17.1249059 C4.72069233,22.0407993 5.44218325,25.6015752 6.65667416,28.0257904 C7.4097568,29.5290001 8.19091409,30.3229159 8.75380755,30.6192577 L8.86315548,30.6768252 L8.9867313,30.6768252 L164.921097,30.6768252 L164.921097,33.515625 L5.54919891,33.515625 L1.46393272,33.515625 C1.43119304,33.2227969 1.39506488,32.8873753 1.35634972,32.512689 C1.2374206,31.36169 1.11846362,30.0788478 1.00742877,28.6972217 C0.690271544,24.7507788 0.5,20.8048085 0.5,17.1249059 C0.5,13.4450032 0.690271544,9.49903299 1.00742877,5.55259001 C1.11846362,4.17096393 1.2374206,2.88812178 1.35634972,1.73712275 C1.39506488,1.36243645 1.43119304,1.02701486 1.46393282,0.734186747 L4.13801041,0.734186747 L164.921097,0.734186747 L164.921097,3.57298655 Z"></path>
                        </g>
                    </g>
                    <g id="Group-3" transform="translate(143.141129, 100.212707) rotate(-180.000000) translate(-143.141129, -100.212707) translate(49.141129, 77.712707)">
                        <g id="Combined-Shape-Copy">
                            <use fill="#E4FBF6" fill-rule="evenodd" xlink:href="#path-7"></use>
                            <path stroke="#00C2A2" stroke-width="1" d="M2.71089187,1.07118925 C2.77485501,0.765139712 3.10264784,0.5 3.42572261,0.5 L10.593614,0.5 L185.650694,0.5 C186.449467,0.5 186.977264,1.11458658 186.861335,1.90857702 C186.85099,1.96874046 186.828541,2.1064095 186.797266,2.30679625 C186.745342,2.63948131 186.687539,3.02814006 186.625332,3.46940584 C186.447797,4.72873802 186.270338,6.15803167 186.104748,7.73037029 C185.631716,12.2219888 185.347906,16.9619588 185.347906,21.7354575 C185.347906,26.5089796 185.632475,31.2543016 186.106772,35.7548348 C186.272803,37.3302807 186.450734,38.7629035 186.628741,40.0255646 C186.691113,40.4679927 186.749069,40.8577301 186.80113,41.1913824 C186.832487,41.3923464 186.854993,41.5304255 186.867171,41.6022244 C186.981998,42.3646125 186.450477,42.9709149 185.653079,42.9709149 L12.1428536,42.9709149 L3.42744917,42.9709149 C3.10575221,42.9709149 2.7730624,42.702868 2.70920517,42.3912891 C2.69047175,42.3074258 2.65851111,42.1598082 2.61353466,41.9436841 C2.53826862,41.5820103 2.45431717,41.1605309 2.36384696,40.6836057 C2.10507297,39.3194456 1.84619265,37.7857029 1.60452919,36.1172899 C0.914171089,31.3511475 0.5,26.4636816 0.5,21.7354575 C0.5,17.0072452 0.914559798,12.117844 1.6055666,7.34847469 C1.84745791,5.67892668 2.1065826,4.14396789 2.36560117,2.77859176 C2.45615717,2.30123984 2.54018836,1.87936414 2.61552607,1.51733433 C2.66054577,1.30099551 2.69253751,1.15322375 2.70933222,1.07838672 L2.71089187,1.07118925 Z"></path>
                        </g>
                        <g id="Rectangle">
                            <use fill="#FFFFFF" fill-rule="evenodd" xlink:href="#path-8"></use>
                            <rect stroke="#00C2A2" stroke-width="1" x="97.6774194" y="0.5" width="19.4072581" height="43.70625"></rect>
                        </g>
                        <g id="Rectangle-Copy">
                            <use fill="#FFFFFF" fill-rule="evenodd" xlink:href="#path-9"></use>
                            <rect stroke="#00C2A2" stroke-width="1" x="72.4112903" y="0.5" width="19.4072581" height="43.70625"></rect>
                        </g>
                    </g>
                    <path d="M49.5887097,39.875 L216.000763,39.875 C216.000763,39.875 207.161687,52.7303077 207.161687,58.6038922 C207.161687,64.4774766 213.747144,76.80625 213.747144,76.80625 L49.5887097,76.80625 L49.5887097,39.875 Z" id="Rectangle-18" fill="#FFFFFF"></path>
                    <g id="Combined-Shape-Copy">
                        <use fill="#FFFFFF" fill-rule="evenodd" xlink:href="#path-10"></use>
                        <path stroke="#00C2A2" stroke-width="1" d="M226.097504,42.0330196 L54.8597758,42.0330196 L54.7206148,42.0330196 L54.6014634,42.1049136 C53.9944445,42.4711793 53.1503351,43.4544249 52.3344045,45.321051 C51.0123883,48.345463 50.22532,52.7974457 50.22532,58.9553652 C50.22532,65.1132847 51.0123883,69.5652674 52.3344045,72.5896794 C53.1503351,74.4563056 53.9944445,75.4395511 54.6014634,75.8058168 L54.7206148,75.8777108 L54.8597758,75.8777108 L226.097504,75.8777108 L226.097504,77.2149943 C226.097504,78.5919722 224.979784,79.7078125 223.598801,79.7078125 L59.9593672,79.7078125 L49.1496355,79.7078125 L44.0600056,79.7078125 C43.2663055,79.7078125 42.7317138,79.0901238 42.8383819,78.2953758 C42.8476999,78.2365644 42.8678173,78.1026738 42.8958506,77.9077084 C42.9423994,77.5839721 42.9942204,77.2056729 43.049992,76.776062 C43.2091662,75.5499381 43.368275,74.1576406 43.5167428,72.6251632 C43.9408599,68.2474474 44.1953204,63.6216846 44.1953204,58.9553652 C44.1953204,54.289035 43.940515,49.6606261 43.5158238,45.2785028 C43.3671556,43.7444889 43.2078323,42.3505451 43.0484438,41.1227751 C42.9925973,40.6925893 42.940707,40.3137567 42.894096,39.989542 C42.8660256,39.7942911 42.8458819,39.6601976 42.8349879,39.5905271 C42.7278974,38.8171017 43.2663758,38.2029179 44.0600056,38.2029179 L49.1496355,38.2029179 L58.4884531,38.2029179 L223.590345,38.2029179 C224.978484,38.2029179 226.097504,39.3160858 226.097504,40.7000977 L226.097504,42.0330196 Z"></path>
                    </g>
                    <path d="M210.417339,60.7615305 L171.546371,60.7615305" id="Line" stroke="#3ADFBB" opacity="0.572407156" stroke-linecap="round"></path>
                    <polygon id="Rectangle-22-Copy" fill="#F5BA5B" points="179.806452 60.284375 192.439516 60.284375 192.439516 83.609375 186.122984 79.9861812 179.806452 83.609375"></polygon>
                    <g id="Group-9" transform="translate(147.254032, 19.903125) rotate(-180.000000) translate(-147.254032, -19.903125) translate(61.254032, 0.903125)">
                        <g id="Rectangle-16">
                            <use fill="#FFFFFF" fill-rule="evenodd" xlink:href="#path-11"></use>
                            <path d=""></path>
                        </g>
                        <g id="Combined-Shape">
                            <use fill="#EBFBF8" fill-rule="evenodd" xlink:href="#path-12"></use>
                            <path stroke="#00C2A2" stroke-width="1" d="M170.751743,4.75310147 L14.8173765,4.75310147 L14.6893708,4.75310147 L14.5771124,4.81461181 C14.0145948,5.12283521 13.2350813,5.94739535 12.4838329,7.50810884 C11.2717126,10.0262806 10.5513375,13.7265657 10.5513375,18.8373965 C10.5513375,23.9482272 11.2717126,27.6485123 12.4838329,30.1666841 C13.2350813,31.7273976 14.0145948,32.5519577 14.5771124,32.8601811 L14.6893708,32.9216915 L14.8173765,32.9216915 L170.751743,32.9216915 L170.751743,36.680229 C170.751743,36.9541018 170.530318,37.1747929 170.251654,37.1747929 L11.3798441,37.1747929 L5.43501752,37.1747929 C5.41865924,37.1373241 5.40109146,37.0968717 5.3823558,37.0534809 C5.23537111,36.7130717 5.07133444,36.3175854 4.89450146,35.8716459 C4.38848941,34.5955787 3.88220391,33.1729069 3.40965447,31.6407459 C2.06150994,27.2696172 1.25317503,22.9014703 1.25317503,18.8373965 C1.25317503,14.7733226 2.06150994,10.4051757 3.40965447,6.034047 C3.88220391,4.50188599 4.38848941,3.0792142 4.89450146,1.80314703 C5.07133444,1.35720752 5.23537111,0.96172119 5.3823558,0.621312039 C5.40109146,0.577921196 5.41865924,0.537468806 5.43501752,0.5 L9.96865557,0.5 L170.242827,0.5 C170.527981,0.5 170.751743,0.720946327 170.751743,1.0015172 L170.751743,4.75310147 Z"></path>
                        </g>
                    </g>
                    <path d="M110.324597,23.8302805 L71.453629,23.8302805" id="Line-Copy-3" stroke="#3ADFBB" opacity="0.572407156" stroke-linecap="round"></path>
                    <path d="M129.760081,51.3882059 L90.8891129,51.3882059" id="Line-Copy-10" stroke="#3ADFBB" opacity="0.572407156" stroke-linecap="round"></path>
                    <path d="M119.117968,12.803012 L84.1001904,12.803012" id="Line-Copy-9" stroke="#3ADFBB" opacity="0.572407156" stroke-linecap="round"></path>
                    <path d="M213.332661,143.370905 L174.461694,143.370905" id="Line-Copy-4" stroke="#3ADFBB" opacity="0.572407156" stroke-linecap="round"></path>
                    <path d="M213.332661,216.26153 L174.461694,216.26153" id="Line-Copy-6" stroke="#3ADFBB" opacity="0.57" stroke-linecap="round"></path>
                    <path d="M162.930763,201.692188 L134.488592,201.692188" id="Line-Copy-8" stroke="#3ADFBB" opacity="0.572407156" stroke-linecap="round"></path>
                    <path d="M20.921371,301.795313 L24.8084677,269.723438" id="Line" stroke="#3ADFBB" opacity="0.57" stroke-linecap="round"></path>
                    <path d="M16.0625,274.582813 L18.9778226,249.314063" id="Line" stroke="#3ADFBB" opacity="0.57" stroke-linecap="round"></path>
                    <rect id="Rectangle-24" stroke="#00C2A2" x="64.6653226" y="90.9125" width="9.68951613" height="20.38125" rx="1"></rect>
                    <path d="M71.9395161,5.99581357 C71.9395161,5.99581357 65.4497775,13.564112 65.4497775,20.2621964 C65.4497775,26.9602807 71.3033972,34.0291519 71.3033972,34.0291519" id="Path-13" stroke="#00C2A2" stroke-linecap="round" transform="translate(68.694647, 20.012483) rotate(-180.000000) translate(-68.694647, -20.012483) "></path>
                    <path d="M217.741104,42.5388742 C217.741104,42.5388742 210.903226,51.0636199 210.903226,59.4140621 C210.903226,67.7645044 217.146347,75.8873797 217.146347,75.8873797" id="Path-13-Copy" stroke="#00C2A2" stroke-linecap="round"></path>
                    <path d="M219.033543,125.167149 C219.033543,125.167149 212.846774,131.644713 212.846774,138.507286 C212.846774,145.36986 218.533577,152.045414 218.533577,152.045414" id="Path-13-Copy-2" stroke="#00C2A2"></path>
                    <g id="Group-2" transform="translate(138.318548, 171.571875) rotate(-180.000000) translate(-138.318548, -171.571875) translate(62.818548, 154.571875)">
                        <path d="M3.88709677,3.8875 L148.681452,3.8875 C148.681452,3.8875 141.991681,11.3071096 141.991681,18.4882875 C141.991681,25.6694654 148.681452,32.071875 148.681452,32.071875 L3.88709677,32.071875 L3.88709677,3.8875 Z" id="Rectangle-21" fill="#FFFFFF"></path>
                        <g id="Combined-Shape">
                            <use fill="#E4FBF6" fill-rule="evenodd" xlink:href="#path-13"></use>
                            <path stroke="#00C2A2" stroke-width="1" d="M150.418409,3.34212632 L9.85620596,3.34212632 L9.72083029,3.34212632 L9.60394679,3.41042583 C9.08862121,3.71155035 8.38141288,4.50932644 7.70249497,6.0134789 C6.60958974,8.43482625 5.96024019,11.9918765 5.96024019,16.9053558 C5.96024019,21.8188351 6.60958974,25.3758853 7.70249497,27.7972327 C8.38141288,29.3013852 9.08862121,30.0991612 9.60394679,30.4002858 L9.72083029,30.4685853 L9.85620596,30.4685853 L150.418409,30.4685853 L150.418409,33.3107116 L4.13711715,33.3107116 C4.12896789,33.2902727 4.12050004,33.2689704 4.11171994,33.2468121 C3.99076612,32.9415614 3.85576546,32.5868833 3.71022247,32.1869276 C3.2936922,31.0422921 2.87691581,29.7660875 2.48789838,28.391621 C1.37801063,24.4701938 0.71251587,20.5513451 0.71251587,16.9053558 L0.71251587,16.9053558 C0.71251587,13.2593665 1.37801063,9.34051782 2.48789838,5.41909058 C2.87691581,4.04462408 3.2936922,2.76841947 3.71022247,1.62378401 C3.85576546,1.22382828 3.99076612,0.869150174 4.11171994,0.563899475 C4.12050004,0.541741171 4.12896789,0.520438849 4.13711715,0.5 L150.418409,0.5 L150.418409,3.34212632 Z"></path>
                        </g>
                        <path d="M104.465726,11.1677805 L65.5947581,11.1677805" id="Line-Copy-5" stroke="#3ADFBB" opacity="0.572407156" stroke-linecap="round"></path>
                        <path d="M141.992664,20.8953125 L112.12141,20.8953125" id="Line-Copy-7" stroke="#3ADFBB" opacity="0.572407156" stroke-linecap="round"></path>
                        <path d="M148.075901,3.43542164 C148.075901,3.43542164 141.957673,11.0085771 141.957673,17.6521405 C141.957673,24.2957039 147.085657,30.7582163 147.085657,30.7582163" id="Path-13" stroke="#00C2A2"></path>
                    </g>
                    <path d="M218.712878,191.235749 C218.712878,191.235749 211.875,200.008931 211.875,208.60273 C211.875,217.19653 218.118121,225.55613 218.118121,225.55613" id="Path-13-Copy" stroke="#00C2A2"></path>
                </g>
            </g>
        </g>
    </g>
</svg>