<svg width="37" height="40" viewBox="0 0 37 40" fill="none" xmlns="http://www.w3.org/2000/svg">
<path fill-rule="evenodd" clip-rule="evenodd" d="M24.3627 4H32.7227C34.9318 4 36.7227 5.79086 36.7227 8V36C36.7227 38.2091 34.9318 40 32.7227 40H4.72266C2.51352 40 0.722656 38.2091 0.722656 36V8C0.722656 5.79086 2.51352 4 4.72266 4H13.0827C13.9227 1.68 16.1227 0 18.7227 0C21.3227 0 23.5227 1.68 24.3627 4ZM20.7227 6C20.7227 4.89543 19.8272 4 18.7227 4C17.6181 4 16.7227 4.89543 16.7227 6C16.7227 7.10457 17.6181 8 18.7227 8C19.8272 8 20.7227 7.10457 20.7227 6ZM28.7227 12V8H32.7227V36H4.72266V8H8.72266V12H28.7227ZM8.72266 34H12.7227V20H8.72266V34ZM16.7227 34V14H20.7227V34H16.7227ZM24.7227 34H28.7227V26H24.7227V34Z" fill="#5C5C5C"/>
</svg>
