<svg width="106" height="118" viewBox="0 0 106 118" fill="none" xmlns="http://www.w3.org/2000/svg">
<circle cx="19.3066" cy="14" r="11.25" stroke="#06806B" stroke-width="3.75" stroke-linecap="round" stroke-linejoin="round"/>
<path d="M41.8066 14H103.682V85.25H45.5566" stroke="#06806B" stroke-width="3.75" stroke-linecap="round" stroke-linejoin="round"/>
<path d="M77.4316 85.25L96.1816 115.25" stroke="#06806B" stroke-width="3.75" stroke-linecap="round" stroke-linejoin="round"/>
<path fill-rule="evenodd" clip-rule="evenodd" d="M68.883 34.625H13.683C7.46977 34.625 2.43298 39.6618 2.43298 45.875V109.308C2.36775 112.381 4.6959 114.979 7.75798 115.25C9.30109 115.332 10.8101 114.776 11.9308 113.712C13.0515 112.648 13.6852 111.17 13.683 109.625V77.75H23.058V109.308C22.9927 112.381 25.3209 114.979 28.383 115.25C29.9261 115.332 31.4351 114.776 32.5558 113.712C33.6765 112.648 34.3102 111.17 34.308 109.625V45.875L68.8305 44.2306C71.3081 44.168 73.3657 42.2995 73.6661 39.8394C73.7822 38.4991 73.3306 37.1717 72.4213 36.1803C71.5119 35.189 70.2282 34.6247 68.883 34.625Z" stroke="#06806B" stroke-width="3.75" stroke-linecap="round" stroke-linejoin="round"/>
<path d="M58.6816 14V4.625" stroke="#06806B" stroke-width="3.75" stroke-linecap="round" stroke-linejoin="round"/>
</svg>
