<svg width="105" height="104" viewBox="0 0 105 104" fill="none" xmlns="http://www.w3.org/2000/svg">
<rect x="0.0566406" width="104" height="104" rx="52" fill="#F5F5F5"/>
<path d="M29.4325 43.9141L29.4316 61C29.4316 72.5 39.9255 78.4152 52.87 78.4152C65.8146 78.4152 76.3066 72 76.3066 61L76.3075 56" stroke="#06806B" stroke-width="3" stroke-linecap="round" stroke-linejoin="round"/>
<path d="M66.0566 29L52.8691 22.5L20.0566 39.1557L52.8691 55.8114L62.0566 51.1478" stroke="#06806B" stroke-width="3" stroke-linecap="round" stroke-linejoin="round"/>
<mask id="path-4-inside-1_4580_178371" fill="white">
<path fill-rule="evenodd" clip-rule="evenodd" d="M93.0158 26.2851C93.0414 26.2361 93.0667 26.1868 93.0917 26.1372C95.5942 21.1688 93.7826 15.2069 89.0454 12.8209C84.3084 10.435 78.4399 12.528 75.9372 17.4959L75.936 17.4953L63.853 41.4848L67.8993 54.8011L81.0079 50.1254L93.0158 26.2851Z"/>
</mask>
<path d="M93.0158 26.2851L90.3576 24.8945L90.3468 24.9149L90.3364 24.9356L93.0158 26.2851ZM75.9372 17.4959L74.5876 20.1752L77.2668 21.5246L78.6164 18.8456L75.9372 17.4959ZM75.936 17.4953L77.2856 14.816L74.6062 13.4665L73.2567 16.1458L75.936 17.4953ZM63.853 41.4848L61.1737 40.1352L60.6334 41.2078L60.9826 42.357L63.853 41.4848ZM67.8993 54.8011L65.0289 55.6733L65.9437 58.6838L68.9072 57.6267L67.8993 54.8011ZM81.0079 50.1254L82.0158 52.951L83.147 52.5475L83.6872 51.4749L81.0079 50.1254ZM90.4124 24.7877C90.3944 24.8235 90.3761 24.8591 90.3576 24.8945L95.674 27.6758C95.7067 27.6132 95.7391 27.5501 95.771 27.4867L90.4124 24.7877ZM87.6959 15.5002C90.8344 17.081 92.2309 21.1773 90.4124 24.7877L95.771 27.4867C98.9575 21.1604 96.7307 13.3328 90.3949 10.1416L87.6959 15.5002ZM78.6164 18.8456C80.435 15.2356 84.5574 13.9194 87.6959 15.5002L90.3949 10.1416C84.0594 6.95048 76.4447 9.82042 73.2579 16.1462L78.6164 18.8456ZM74.5865 20.1746L74.5876 20.1752L77.2867 14.8166L77.2856 14.816L74.5865 20.1746ZM66.5323 42.8343L78.6154 18.8448L73.2567 16.1458L61.1737 40.1352L66.5323 42.8343ZM70.7697 53.9289L66.7234 40.6125L60.9826 42.357L65.0289 55.6733L70.7697 53.9289ZM80 47.2997L66.8914 51.9755L68.9072 57.6267L82.0158 52.951L80 47.2997ZM90.3364 24.9356L78.3286 48.7758L83.6872 51.4749L95.6951 27.6346L90.3364 24.9356Z" fill="#06806B" mask="url(#path-4-inside-1_4580_178371)"/>
<path d="M65.7452 59.0888L84.6465 21.5625" stroke="#06806B" stroke-width="3" stroke-linecap="round"/>
<path d="M60.6584 59.5554L65.3766 59.12C65.6025 59.0992 65.8204 59.2089 65.9381 59.4028L68.397 63.4532C68.5588 63.7197 68.4866 64.066 68.2318 64.2457L61.2543 69.1667C60.8665 69.4402 60.3305 69.1703 60.3194 68.6959L60.1199 60.1599C60.1126 59.8481 60.3479 59.584 60.6584 59.5554Z" stroke="#06806B" stroke-width="3" stroke-linecap="round"/>
<path d="M73.1934 28.1523L76.8926 37.0109L86.2127 34.7099" stroke="#06806B" stroke-width="3" stroke-linecap="square"/>
</svg>
