<svg width="121" height="120" viewBox="0 0 121 120" fill="none" xmlns="http://www.w3.org/2000/svg">
<line x1="63.9055" y1="116.063" x2="7.7031" y2="116.063" stroke="#06806B" stroke-width="3.37642" stroke-linecap="round"/>
<mask id="path-2-inside-1_5308_63090" fill="white">
<path fill-rule="evenodd" clip-rule="evenodd" d="M110.876 27.7675L110.877 27.7676L89.8494 73.5317L65.6012 83.1749L57.1234 58.495L78.1073 12.8252C78.1215 12.794 78.1357 12.7629 78.1499 12.7319C82.5048 3.25379 93.3611 -1.06362 102.398 3.08863C111.435 7.24073 115.231 18.2896 110.876 27.7675Z"/>
</mask>
<path d="M110.876 27.7675L107.808 26.358L106.399 29.4259L109.467 30.8355L110.876 27.7675ZM110.877 27.7676L113.945 29.1773L115.354 26.1092L112.286 24.6995L110.877 27.7676ZM89.8494 73.5317L91.0971 76.6691L92.3531 76.1696L92.9175 74.9414L89.8494 73.5317ZM65.6012 83.1749L62.4079 84.2718L63.5584 87.6209L66.8489 86.3123L65.6012 83.1749ZM57.1234 58.495L54.0553 57.0854L53.491 58.3136L53.9301 59.592L57.1234 58.495ZM78.1073 12.8252L81.1754 14.2348L81.179 14.2271L81.1825 14.2193L78.1073 12.8252ZM109.467 30.8355L109.467 30.8357L112.286 24.6995L112.286 24.6994L109.467 30.8355ZM107.809 26.3579L86.7813 72.122L92.9175 74.9414L113.945 29.1773L107.809 26.3579ZM88.6017 70.3943L64.3535 80.0375L66.8489 86.3123L91.0971 76.6691L88.6017 70.3943ZM68.7944 82.078L60.3167 57.3981L53.9301 59.592L62.4079 84.2718L68.7944 82.078ZM60.1915 59.9047L81.1754 14.2348L75.0393 11.4155L54.0553 57.0854L60.1915 59.9047ZM81.1825 14.2193C81.1943 14.1933 81.2061 14.1674 81.218 14.1415L75.0819 11.3222C75.0652 11.3584 75.0486 11.3947 75.0322 11.4311L81.1825 14.2193ZM81.218 14.1415C84.8584 6.21852 93.782 2.84553 100.988 6.15669L103.808 0.0205645C92.9402 -4.97278 80.1513 0.289067 75.0819 11.3222L81.218 14.1415ZM100.988 6.15669C108.195 9.46774 111.448 18.4351 107.808 26.358L113.945 29.177C119.013 18.1441 114.675 5.01373 103.808 0.0205645L100.988 6.15669Z" fill="#06806B" mask="url(#path-2-inside-1_5308_63090)"/>
<path d="M61.8496 91.3577L94.7422 19.7695" stroke="#06806B" stroke-width="3.37642" stroke-linecap="round"/>
<path d="M52.3483 92.5748L61.16 91.4416C61.5819 91.3873 61.9977 91.5784 62.2313 91.9338L67.1112 99.3578C67.4323 99.8464 67.3204 100.5 66.855 100.854L54.1115 110.544C53.4033 111.083 52.3808 110.613 52.3281 109.725L51.38 93.7437C51.3454 93.1601 51.7685 92.6493 52.3483 92.5748Z" stroke="#06806B" stroke-width="3.37642" stroke-linecap="round"/>
<path d="M72.582 31.6289L80.9751 49.859L100.274 44.3527" stroke="#06806B" stroke-width="3.37642" stroke-linecap="square"/>
</svg>
