<svg width="119" height="119" viewBox="0 0 119 119" fill="none" xmlns="http://www.w3.org/2000/svg">
<path fill-rule="evenodd" clip-rule="evenodd" d="M116.64 112.958V112.958C117.243 114.176 116.745 115.652 115.528 116.255C115.19 116.422 114.818 116.51 114.441 116.511H50.4889V116.511C49.1305 116.511 48.0293 115.409 48.0293 114.05C48.0293 113.668 48.1186 113.29 48.2899 112.948L57.8679 96.8281H107.062L116.64 112.958Z" stroke="#AD277B" stroke-width="3" stroke-linecap="round" stroke-linejoin="round"/>
<path fill-rule="evenodd" clip-rule="evenodd" d="M60.3269 62.3828H104.601V62.3828C105.96 62.3828 107.061 63.4843 107.061 64.8431V96.8273H57.8672V64.8431L57.8672 64.8431C57.8672 63.4843 58.9684 62.3828 60.3269 62.3828L60.3269 62.3828Z" stroke="#AD277B" stroke-width="3" stroke-linecap="round" stroke-linejoin="round"/>
<path d="M80.0059 106.667H84.9252" stroke="#AD277B" stroke-width="3" stroke-linecap="round" stroke-linejoin="round"/>
<path d="M61.406 45.6518V45.6518C58.6582 41.1332 57.2903 35.91 57.4705 30.6242V24.4931V24.4931C57.9418 12.8169 48.8609 2.96941 37.1878 2.49802C25.5147 2.02663 15.6697 11.1099 15.1984 22.786C15.1755 23.3548 15.1755 23.9243 15.1984 24.4931V30.634V30.634C15.3664 35.9199 13.9865 41.1398 11.2285 45.6518" stroke="#AD277B" stroke-width="3" stroke-linecap="round" stroke-linejoin="round"/>
<path d="M15.1875 27.9827H15.1875C23.311 27.9761 31.0307 24.4385 36.3408 18.2891V18.2891C41.6524 24.4364 49.371 27.9735 57.494 27.9827" stroke="#AD277B" stroke-width="3" stroke-linecap="round" stroke-linejoin="round"/>
<path d="M54.9506 27.8672V27.8672C54.4776 38.1587 45.7534 46.1181 35.4646 45.645C25.838 45.2023 18.134 37.4963 17.6914 27.8672" stroke="#AD277B" stroke-width="3" stroke-linecap="round" stroke-linejoin="round"/>
<path d="M46.1551 53.9794V53.9794C27.9115 48.5578 8.72812 58.956 3.30792 77.2044C2.36382 80.383 1.88318 83.6811 1.88086 86.9969H41.2357" stroke="#AD277B" stroke-width="3" stroke-linecap="round" stroke-linejoin="round"/>
</svg>
