<svg xmlns="http://www.w3.org/2000/svg" width="56" height="56" viewBox="0 0 56 56">
    <g fill="none" fill-rule="evenodd">
        <path d="M0 0H56V56H0z"/>
        <path fill="#FFF" fill-rule="nonzero" d="M39.737 28.63c1.564 0 2.906.631 4.023 1.472.224.21.448.21.671.21.224 0 .447 0 .67-.21.448-.42.671-.63 1.119-.84.223-.21.447-.421.447-.631V19.8c0-1.68-1.565-3.152-3.354-3.152h-8.942c-.223-.21-.223-.42-.447-.631 1.118-1.261 1.565-2.733 1.565-4.414 0-3.784-3.353-6.937-7.377-6.937-4.024 0-7.377 3.153-7.377 7.147 0 1.681.67 3.153 1.564 4.414-.223 0-.223.21-.447.42H12.91c-2.012 0-3.353 1.472-3.353 3.154v8.829c0 .21.223.63.447.63.447.21.894.42 1.118.841.223.21.894.21 1.118 0 1.117-1.05 2.459-1.471 4.023-1.471 3.13 0 5.813 2.522 5.813 5.465s-2.683 5.466-5.813 5.466c-1.564 0-2.906-.631-4.023-1.472-.224-.21-.448-.42-.671-.42-.224 0-.447 0-.67.21-.448.42-.671.63-1.119.84-.223.21-.447.421-.447.631v8.83c0 1.68 1.565 3.152 3.354 3.152H43.09c1.788 0 3.353-1.471 3.353-3.153v-8.829c0-.21-.223-.63-.447-.63-.447-.21-.67-.42-1.118-.63 0-.211-.223-.211-.447-.421-.223 0-.67 0-.894.21-1.118 1.05-2.46 1.682-4.024 1.682-3.13 0-5.812-2.523-5.812-5.466s2.906-5.465 6.036-5.465"/>
    </g>
</svg>
