<svg xmlns="http://www.w3.org/2000/svg" width="56" height="56" viewBox="0 0 56 56">
    <g fill="none" fill-rule="evenodd">
        <path d="M0 0H56V56H0z"/>
        <g fill="#FFF" transform="translate(4.667 4.667)">
            <path fill-rule="nonzero" d="M45.766 8c-.429 0-.858.185-1.287.37-1.715.926-3.431 1.297-5.147 1.297-3.217 0-6.434-1.297-9.65-2.408-3.432-1.296-6.863-2.592-10.295-2.592-2.144 0-3.86.555-5.79 1.481-1.072.556-1.93 1.852-1.93 2.963v14.445c0 .74.643 1.11 1.072 1.11.429 0 .858-.185 1.287-.37C15.74 23.37 17.457 23 19.173 23c3.217 0 6.434 1.296 9.65 2.407C32.042 26.704 35.473 28 38.904 28c2.145 0 4.075-.556 5.79-1.481 1.073-.556 1.931-1.852 1.931-2.963V9.11C46.84 8.185 46.195 8 45.766 8"/>
            <rect width="4.667" height="46.667" x="2.333" rx="1"/>
            <circle cx="4.667" cy="4.667" r="4.667"/>
        </g>
    </g>
</svg>
