<svg xmlns="http://www.w3.org/2000/svg" width="56" height="56" viewBox="0 0 56 56">
    <g fill="none" fill-rule="evenodd">
        <path d="M0 0H56V56H0z"/>
        <g fill="#FFF" fill-rule="nonzero">
            <path d="M38.393 22.418c-.606 0-1.212-.202-2.02-.404l-2.425-.808-2.021 2.02c.202 1.01.404 2.021.404 3.032 0 6.668-5.456 12.124-12.124 12.124S8.083 32.926 8.083 26.258c0-6.669 5.456-12.125 12.124-12.125 1.01 0 2.223.203 3.031.405l2.02-2.021-.808-2.425c-.202-1.01-.202-2.223 0-3.435-1.414-.202-2.829-.404-4.243-.404C9.093 6.253 0 15.346 0 26.46s9.093 20.207 20.207 20.207 20.207-9.093 20.207-20.207c0-1.415-.202-2.83-.404-4.244-.606.202-1.01.202-1.617.202z" transform="translate(4.667 4.667)"/>
            <path d="M46.476 9.89c-.202-.606-.606-1.212-1.414-1.415l-3.031-1.01 1.818-1.818c.808-.809.808-2.021 0-2.83-.808-.808-2.02-.808-2.829 0l-1.818 1.82-1.01-3.032C37.988 1 37.381.393 36.776.191c-.607-.202-1.415 0-1.819.606l-6.062 6.062c-.606.606-.808 1.414-.404 2.02l1.616 4.85-5.86 5.86c-1.212-.808-2.627-1.212-4.041-1.212-4.446 0-8.083 3.637-8.083 8.083 0 4.445 3.637 8.082 8.083 8.082s8.083-3.637 8.083-8.082c0-1.415-.404-2.83-1.213-4.042l5.658-5.658 4.85 1.617c.202 0 .404.202.606.202.606 0 1.01-.202 1.415-.606l6.062-6.062c.808-.607 1.01-1.415.808-2.021z" transform="translate(4.667 4.667)"/>
        </g>
    </g>
</svg>
