<?xml version="1.0" encoding="UTF-8"?>
<svg width="24px" height="25px" viewBox="0 0 24 25" version="1.1" xmlns="http://www.w3.org/2000/svg" xmlns:xlink="http://www.w3.org/1999/xlink">
    <!-- Generator: Sketch 47.1 (45422) - http://www.bohemiancoding.com/sketch -->
    <title>Group 3</title>
    <desc>Created with Sketch.</desc>
    <defs></defs>
    <g id="09-Teacher-Dashboard:-Student-Reports" stroke="none" stroke-width="1" fill="none" fill-rule="evenodd">
        <g id="09_14-Visual-Overview-Updated" transform="translate(-971.000000, -353.000000)" fill="#AFAFAF">
            <g id="Group-3-Copy-24" transform="translate(971.000000, 353.000000)">
                <g id="Group-4">
                    <g id="Group-3">
                        <path d="M23.3758896,4.11342722 C23.1605716,4.11342722 22.9192489,4.20022309 22.6529618,4.37381484 C21.7667251,4.95419688 20.8420015,5.23445343 19.8226213,5.23445343 C18.1083981,5.23445343 16.3328041,4.42610151 14.6165006,3.64284718 C12.8440272,2.83554099 11.0143436,2 9.17737874,2 C8.0456586,2 7.01691668,2.31267429 6.0370634,2.95266313 C5.48368554,3.31134969 5,4.18558282 5,4.82452593 L5,14.1775655 C5,14.7025237 5.3370196,14.8876185 5.62411037,14.8876185 C5.83734808,14.8876185 6.08075112,14.8018684 6.34703821,14.6293224 C7.2291142,14.0489403 8.15695828,13.767638 9.17737874,13.767638 C10.8926421,13.767638 12.6651155,14.5770357 14.3824592,15.3592443 C16.1559728,16.164459 17.9846162,17 19.8205409,17 C20.9543414,17 21.9820431,16.6894172 22.9598161,16.0473369 C23.5142341,15.6886503 24,14.8144172 24,14.1775655 L24,4.82452593 C24,4.3006135 23.6619402,4.11342722 23.3758896,4.11342722" id="Fill-42"></path>
                        <path d="M2,0 C0.897852279,0 0,0.874183007 0,1.9505719 C0,2.58374183 0.311157674,3.14440359 0.792037716,3.50081699 C0.792037716,3.52839052 0.78784704,3.55290033 0.78784704,3.57945261 L0.78784704,23.8214869 C0.78784704,24.472018 1.32949188,25 1.99476166,25 L2.00523834,25 C2.66946045,25 3.21215296,24.472018 3.21215296,23.8214869 L3.21215296,3.57945261 C3.21215296,3.55290033 3.21110529,3.52839052 3.21005762,3.50081699 C3.68884233,3.14440359 4,2.58374183 4,1.9505719 C4,0.874183007 3.10424306,0 2,0" id="Fill-44"></path>
                    </g>
                </g>
            </g>
        </g>
    </g>
</svg>