<?xml version="1.0" encoding="UTF-8"?>
<svg width="21px" height="29px" viewBox="0 0 21 29" version="1.1" xmlns="http://www.w3.org/2000/svg" xmlns:xlink="http://www.w3.org/1999/xlink">
    <!-- Generator: Sketch 47.1 (45422) - http://www.bohemiancoding.com/sketch -->
    <title>Group 4 Copy 3</title>
    <desc>Created with Sketch.</desc>
    <defs></defs>
    <g id="09-Teacher-Dashboard:-Student-Reports" stroke="none" stroke-width="1" fill="none" fill-rule="evenodd">
        <g id="09_14-Visual-Overview-Updated-Copy" transform="translate(-774.000000, -351.000000)" fill="#AFAFAF">
            <g id="Group-5" transform="translate(774.000000, 351.000000)">
                <g id="Group-4-Copy-3">
                    <path d="M17.1480249,14.3488565 C18.006237,14.3488565 18.8133056,14.6806653 19.4220374,15.2831601 C19.5106029,15.3692308 19.6316008,15.4128898 19.7525988,15.4178794 C19.8773389,15.4153846 19.9933472,15.3642412 20.0806653,15.2769231 C20.2802495,15.0711019 20.4711019,14.9276507 20.7642412,14.7629938 C20.9101871,14.6806653 21,14.5272349 21,14.3575884 L21,9.02245322 C21,7.95717256 20.1355509,7.09147609 19.0677755,7.09147609 L13.9908524,7.09147609 C13.9147609,6.97047817 13.837422,6.86320166 13.7550936,6.76091476 C14.3438669,6.02619543 14.6644491,5.11808732 14.6644491,4.16382536 C14.6644491,1.86735967 12.7970894,0 10.5006237,0 C8.204158,0 6.33679834,1.86735967 6.33679834,4.16382536 C6.33679834,5.12058212 6.65738046,6.02869023 7.24989605,6.76465696 C7.16507277,6.86943867 7.08648649,6.97796258 7.01288981,7.09147609 L1.93347193,7.09147609 C0.865696466,7.09147609 0,7.95717256 0,9.02245322 L0,14.3575884 C0,14.5359667 0.101039501,14.6893971 0.246985447,14.7679834 C0.486486486,14.9039501 0.70977131,15.0711019 0.909355509,15.2656965 C1.09147609,15.4428274 1.38087318,15.44158 1.56049896,15.2619543 C2.14927235,14.6731809 2.96382536,14.3488565 3.85322245,14.3488565 C5.63825364,14.3488565 7.09147609,15.8008316 7.09147609,17.5858628 C7.09147609,19.370894 5.63825364,20.8241164 3.85322245,20.8241164 C2.9950104,20.8241164 2.18794179,20.4910603 1.57920998,19.8885655 C1.49064449,19.8024948 1.37089397,19.7525988 1.24864865,19.7550936 C1.12390852,19.756341 1.00790021,19.8074844 0.920582121,19.8948025 C0.720997921,20.1006237 0.53014553,20.2465696 0.235758836,20.4087318 C0.0910602911,20.4910603 0,20.645738 0,20.8141372 L0,26.1592516 C0,27.2245322 0.865696466,28.0914761 1.93347193,28.0914761 L19.0677755,28.0914761 C20.1355509,28.0914761 21,27.2245322 21,26.1592516 L21,20.8141372 C21,20.645738 20.9101871,20.4923077 20.7642412,20.4087318 C20.552183,20.2902287 20.3513514,20.1467775 20.1704782,19.9808732 C20.1168399,19.8823285 20.027027,19.8037422 19.9160083,19.7650728 C19.7476091,19.7076923 19.5629938,19.750104 19.4370062,19.8748441 C18.8245322,20.4873181 18.0112266,20.8241164 17.1480249,20.8241164 C15.3617464,20.8241164 13.9097713,19.370894 13.9097713,17.5858628 C13.9097713,15.8008316 15.3617464,14.3488565 17.1480249,14.3488565" id="Fill-1"></path>
                </g>
            </g>
        </g>
    </g>
</svg>