<?xml version="1.0" encoding="UTF-8"?>
<svg width="24px" height="28px" viewBox="0 0 24 28" version="1.1" xmlns="http://www.w3.org/2000/svg" xmlns:xlink="http://www.w3.org/1999/xlink">
    <!-- Generator: Sketch 46.2 (44496) - http://www.bohemiancoding.com/sketch -->
    <title>Group 16</title>
    <desc>Created with Sketch.</desc>
    <defs>
        <path d="M10.7485582,8.40359249 C10.7734073,8.12872416 10.8018632,7.8572072 10.8341747,7.59656551 C10.9213629,6.89325936 11.0244787,6.34925355 11.1685197,5.96245193 C11.5505118,4.93666666 12.37697,3.83141035 13.2569384,3.20019192 C13.7360577,2.85651037 14.4030696,2.96630435 14.7467511,3.44542363 C15.0904327,3.9245429 14.9806387,4.59155476 14.5015194,4.93523631 C13.9730127,5.31434442 13.4060066,6.07262487 13.1695434,6.70761293 C13.1007152,6.89244137 13.0208267,7.31390707 12.9532197,7.85926149 C12.9322299,8.0285762 12.912873,8.20464447 12.895151,8.38425009 C14.3345868,7.99879034 15.9999008,7.06122736 18.2463072,7.31818508 C21.0325885,7.63689701 22.7822867,9.94284574 23.3508362,12.9746825 C23.9193857,16.0065193 22.634806,20.2981494 21.0580263,22.631573 C19.4812467,24.9649967 16.9218119,27.55564 15.1063768,27.55564 C13.2909418,27.55564 12.737911,26.4215265 12.737911,26.4215265 C12.3720339,26.012569 11.82683,25.9921006 11.486771,26.4215265 C11.486771,26.4215265 10.9066076,27.55564 9.36236706,27.55564 C7.81812655,27.55564 4.46987523,25.1899867 2.45259263,22.2644331 C0.435310027,19.3388795 -0.473362635,16.6260922 0.242319674,13.1641297 C0.958001984,9.70216733 2.81596668,7.65742372 4.74784832,7.31818508 C6.3098367,7.04389974 8.92025369,8.0289268 10.7485582,8.40359249 Z M3.78559063,12.3743527 C3.74127818,12.5190785 3.68087569,12.764893 3.6222985,13.097422 C3.4361969,14.153877 3.40125562,15.3443299 3.61203548,16.5960621 C3.77323038,17.5533302 4.15395608,18.473281 4.68528696,19.3394817 C5.110282,20.0323288 5.53701867,20.5519574 5.83640126,20.8547518 C6.14732704,21.1692209 6.65430977,21.1720933 6.96877888,20.8611676 C7.283248,20.5502418 7.28612044,20.0432591 6.97519466,19.7287899 C6.92690411,19.6799491 6.82979742,19.5731508 6.7002342,19.4153843 C6.47914812,19.1461722 6.25714909,18.8392126 6.05038023,18.5021282 C5.61879412,17.7985361 5.31484414,17.0640992 5.19125184,16.330137 C5.0133872,15.2738743 5.04305291,14.2631609 5.19946429,13.3752502 C5.24614916,13.1102312 5.29100872,12.9276703 5.31687098,12.8432034 C5.44634052,12.420352 5.20850753,11.9726074 4.78565614,11.8431379 C4.36280475,11.7136683 3.91506017,11.9515013 3.78559063,12.3743527 Z" id="path-1"></path>
        <filter x="-4.3%" y="-4.1%" width="108.5%" height="108.1%" filterUnits="objectBoundingBox" id="filter-2">
            <feGaussianBlur stdDeviation="0.5" in="SourceAlpha" result="shadowBlurInner1"></feGaussianBlur>
            <feOffset dx="0" dy="1" in="shadowBlurInner1" result="shadowOffsetInner1"></feOffset>
            <feComposite in="shadowOffsetInner1" in2="SourceAlpha" operator="arithmetic" k2="-1" k3="1" result="shadowInnerInner1"></feComposite>
            <feColorMatrix values="0 0 0 0 0.671290391   0 0 0 0 0.671290391   0 0 0 0 0.671290391  0 0 0 1 0" type="matrix" in="shadowInnerInner1"></feColorMatrix>
        </filter>
        <path d="M4.22279055,4.88928678 C6.26626178,6.72923654 8.84131163,6.6335143 8.84131163,6.6335143 C9.11581934,6.64190444 9.31199347,6.42024858 9.27128849,6.15597662 C9.27128849,6.15597662 9.09732035,3.58502746 7.05384912,1.7450777 C5.01037789,-0.0948720572 2.43532804,0.00085017839 2.43532804,0.00085017839 C2.16082033,-0.00753995762 1.9646462,0.214115895 2.00535118,0.478387862 C2.00535118,0.478387862 2.17931932,3.04933702 4.22279055,4.88928678 Z" id="path-3"></path>
        <filter x="-13.7%" y="-15.1%" width="127.5%" height="130.1%" filterUnits="objectBoundingBox" id="filter-4">
            <feGaussianBlur stdDeviation="0.5" in="SourceAlpha" result="shadowBlurInner1"></feGaussianBlur>
            <feOffset dx="0" dy="1" in="shadowBlurInner1" result="shadowOffsetInner1"></feOffset>
            <feComposite in="shadowOffsetInner1" in2="SourceAlpha" operator="arithmetic" k2="-1" k3="1" result="shadowInnerInner1"></feComposite>
            <feColorMatrix values="0 0 0 0 0.671290391   0 0 0 0 0.671290391   0 0 0 0 0.671290391  0 0 0 1 0" type="matrix" in="shadowInnerInner1"></feColorMatrix>
        </filter>
    </defs>
    <g id="09-Teacher-Dashboard:-Student-Reports" stroke="none" stroke-width="1" fill="none" fill-rule="evenodd">
        <g id="09_14-Visual-Overview-Updated" transform="translate(-411.000000, -352.000000)">
            <g id="Group-9" transform="translate(411.000000, 352.000000)">
                <g id="Group-6">
                    <g id="Group-13">
                        <g id="Group-16">
                            <g id="Combined-Shape" fill-rule="nonzero">
                                <use fill="#C0C0C0" fill-rule="evenodd" xlink:href="#path-1"></use>
                                <use fill="black" fill-opacity="1" filter="url(#filter-2)" xlink:href="#path-1"></use>
                            </g>
                            <g id="Oval-6">
                                <use fill="#C0C0C0" fill-rule="evenodd" xlink:href="#path-3"></use>
                                <use fill="black" fill-opacity="1" filter="url(#filter-4)" xlink:href="#path-3"></use>
                            </g>
                        </g>
                    </g>
                </g>
            </g>
        </g>
    </g>
</svg>