<?xml version="1.0" encoding="UTF-8"?>
<svg width="22px" height="14px" viewBox="0 0 22 14" version="1.1" xmlns="http://www.w3.org/2000/svg" xmlns:xlink="http://www.w3.org/1999/xlink">
    <!-- Generator: Sketch 49.1 (51147) - http://www.bohemiancoding.com/sketch -->
    <title>Shape</title>
    <desc>Created with Sketch.</desc>
    <defs></defs>
    <g id="02-Teacher-Center" stroke="none" stroke-width="1" fill="none" fill-rule="evenodd">
        <g id="02_00-Teacher-Center" transform="translate(-176.000000, -1216.000000)" fill="#C0C0C0" fill-rule="nonzero">
            <path d="M197.083333,1216 L180.277778,1216 C179.481118,1216 178.80183,1216.4877 178.549556,1217.16667 L176.916667,1217.16667 C176.410399,1217.16667 176,1217.55841 176,1218.04167 L176,1227.95833 C176,1229.08592 176.957611,1230 178.138889,1230 L197.083333,1230 C197.589601,1230 198,1229.60826 198,1229.125 L198,1216.875 C198,1216.39174 197.589601,1216 197.083333,1216 Z M178,1227.71875 L178,1219 L179,1219 L179,1227.71875 C179,1227.87382 178.775688,1228 178.5,1228 C178.224312,1228 178,1227.87382 178,1227.71875 Z M196,1229 L180,1229 C180.014365,1228.90016 180.0222,1228.79822 180.0222,1228.69444 L180.0222,1218 L196,1218 L196,1229 Z M182.45,1224 L187.55,1224 C187.798513,1224 188,1223.8209 188,1223.6 L188,1220.4 C188,1220.1791 187.798513,1220 187.55,1220 L182.45,1220 C182.201488,1220 182,1220.1791 182,1220.4 L182,1223.6 C182,1223.8209 182.201488,1224 182.45,1224 Z M184,1221 L187,1221 L187,1222 L184,1222 L184,1221 Z M182,1226.5 L182,1225.5 C182,1225.22387 182.201488,1225 182.45,1225 L187.55,1225 C187.798513,1225 188,1225.22387 188,1225.5 L188,1226.5 C188,1226.77613 187.798513,1227 187.55,1227 L182.45,1227 C182.201488,1227 182,1226.77613 182,1226.5 Z M189,1226.5 L189,1225.5 C189,1225.22387 189.209883,1225 189.46875,1225 L193.53125,1225 C193.790117,1225 194,1225.22387 194,1225.5 L194,1226.5 C194,1226.77613 193.790117,1227 193.53125,1227 L189.46875,1227 C189.209883,1227 189,1226.77613 189,1226.5 Z M189,1221.5 L189,1220.5 C189,1220.22387 189.209883,1220 189.46875,1220 L193.53125,1220 C193.790117,1220 194,1220.22387 194,1220.5 L194,1221.5 C194,1221.77613 193.790117,1222 193.53125,1222 L189.46875,1222 C189.209883,1222 189,1221.77613 189,1221.5 Z M189,1223.5 L189,1222.5 C189,1222.22387 189.209883,1222 189.46875,1222 L193.53125,1222 C193.790117,1222 194,1222.22387 194,1222.5 L194,1223.5 C194,1223.77613 193.790117,1224 193.53125,1224 L189.46875,1224 C189.209883,1224 189,1223.77613 189,1223.5 Z" id="Shape"></path>
        </g>
    </g>
</svg>