<?xml version="1.0" encoding="UTF-8"?>
<svg width="21px" height="19px" viewBox="0 0 21 19" version="1.1" xmlns="http://www.w3.org/2000/svg" xmlns:xlink="http://www.w3.org/1999/xlink">
    <!-- Generator: Sketch 49.1 (51147) - http://www.bohemiancoding.com/sketch -->
    <title>Group 15</title>
    <desc>Created with Sketch.</desc>
    <defs></defs>
    <g id="02-Teacher-Center" stroke="none" stroke-width="1" fill="none" fill-rule="evenodd">
        <g id="02_00-Teacher-Center" transform="translate(-177.000000, -1216.000000)" fill="#C0C0C0">
            <g id="Group-15" transform="translate(177.000000, 1216.000000)">
                <path d="M1.75,13.6850522 C4.58566437,13.8772507 6.42461096,14.107226 7.33370796,14.3937892 C8.21621135,14.6719696 9.20326838,15.2976677 10.3190813,16.2675814 C11.240091,15.3400592 12.2021012,14.711424 13.2097703,14.3937892 C14.2646528,14.0612719 16.1780916,13.8266068 19,13.6732126 L19,1.8208706 C16.2160111,2.04492756 14.4278599,2.25710725 13.6892864,2.4456792 C13.2944959,2.54647679 12.307745,3.0727439 10.8391783,3.99178018 C10.5358945,4.18157667 10.147615,4.16761474 9.85874645,3.95652536 C8.83482644,3.2083005 7.83025087,2.70601272 6.84519735,2.44333178 C5.93283038,2.20003392 4.22413568,1.98594237 1.75,1.81027733 L1.75,13.6850522 Z M13.2563657,0.750073208 C14.2127239,0.50589666 16.3725761,0.262042379 19.8091125,0.0025343104 C20.3168767,-0.035809213 20.75,0.365840207 20.75,0.875050117 L20.75,14.5054849 C20.75,14.9730805 20.3823589,15.3580443 19.9152585,15.3795583 C16.7817195,15.5238842 14.700044,15.7589121 13.7358819,16.0628328 C12.848371,16.3425917 11.9472892,17.0033849 11.0411593,18.0673743 C10.7163283,18.4487951 10.1381776,18.4801201 9.77403727,18.1360287 C8.55934986,16.9882199 7.55687503,16.2990185 6.80759639,16.0628328 C6.0005171,15.8084274 3.97599482,15.5722331 0.821458918,15.3788453 C0.359868297,15.3505476 0,14.9679421 0,14.5054849 L0,0.875050117 C0,0.370319269 0.425864755,-0.0297458598 0.929611576,0.00175602276 C4.02034803,0.195035688 6.12801989,0.440930738 7.29610699,0.752420632 C8.33745039,1.0301122 9.37339357,1.51498588 10.404051,2.2029619 C11.7622784,1.37199234 12.6866826,0.895524231 13.2563657,0.750073208 Z" id="Combined-Shape" fill-rule="nonzero"></path>
                <polygon id="Line" points="10 2 11.75 2 11.75 17.0838854 10 17.0838854"></polygon>
            </g>
        </g>
    </g>
</svg>