<svg width="20" height="20" viewBox="0 0 20 20" fill="none" xmlns="http://www.w3.org/2000/svg">
<path d="M6.89386 2.55245C6.09585 2.5901 5.5509 2.71746 5.07449 2.90466C4.58144 3.09681 4.16353 3.35466 3.74773 3.77197C3.33192 4.18927 3.07587 4.60748 2.88507 5.10128C2.70041 5.57874 2.57531 6.12414 2.54006 6.9226C2.50481 7.72106 2.49701 7.97772 2.50091 10.0144C2.50481 12.0512 2.51381 12.3065 2.55251 13.1066C2.59061 13.9044 2.71751 14.4492 2.90472 14.9258C3.09717 15.4188 3.35472 15.8366 3.77218 16.2526C4.18963 16.6685 4.60754 16.924 5.10254 17.1151C5.57955 17.2994 6.1251 17.4251 6.92341 17.4601C7.72172 17.495 7.97867 17.5031 10.0148 17.4992C12.0509 17.4953 12.3073 17.4863 13.1072 17.4484C13.9072 17.4104 14.4491 17.2826 14.9259 17.0963C15.4189 16.9034 15.837 16.6463 16.2526 16.2287C16.6683 15.8111 16.9242 15.3926 17.1148 14.8985C17.2996 14.4215 17.4252 13.8759 17.4598 13.0782C17.4948 12.2777 17.503 12.0221 17.4991 9.98564C17.4952 7.94922 17.4861 7.69391 17.4481 6.8941C17.4102 6.09429 17.2831 5.55114 17.0961 5.07428C16.9033 4.58123 16.6461 4.16377 16.2288 3.74752C15.8115 3.33126 15.3927 3.07551 14.8987 2.88531C14.4214 2.70066 13.8761 2.5748 13.0778 2.5403C12.2795 2.5058 12.0226 2.49695 9.9857 2.50085C7.94882 2.50475 7.69382 2.51345 6.89386 2.55245ZM6.98146 16.1108C6.25021 16.079 5.85315 15.9575 5.58855 15.8558C5.23814 15.7208 4.98854 15.5576 4.72484 15.2964C4.46113 15.0353 4.29913 14.7848 4.16233 14.4351C4.05958 14.1705 3.93583 13.7739 3.90163 13.0427C3.86443 12.2523 3.85663 12.015 3.85228 10.0126C3.84793 8.01027 3.85558 7.77326 3.89023 6.9826C3.92143 6.25195 4.04368 5.85444 4.14523 5.58999C4.28023 5.23913 4.44283 4.98998 4.70459 4.72643C4.96634 4.46288 5.21609 4.30057 5.56605 4.16377C5.83035 4.06057 6.22695 3.93787 6.95791 3.90307C7.74887 3.86557 7.98588 3.85807 9.98795 3.85372C11.99 3.84937 12.2276 3.85687 13.0189 3.89167C13.7495 3.92347 14.1472 4.04452 14.4113 4.14667C14.7619 4.28167 15.0114 4.44383 15.2749 4.70603C15.5385 4.96823 15.7009 5.21708 15.8377 5.56779C15.9411 5.83134 16.0638 6.2278 16.0983 6.9592C16.1359 7.75016 16.1445 7.98732 16.1481 9.98924C16.1517 11.9912 16.1446 12.2289 16.11 13.0193C16.078 13.7505 15.9568 14.1477 15.855 14.4126C15.72 14.7629 15.5572 15.0126 15.2953 15.276C15.0334 15.5395 14.784 15.7018 14.4338 15.8386C14.1698 15.9416 13.7728 16.0646 13.0424 16.0994C12.2515 16.1366 12.0145 16.1444 10.0116 16.1488C8.00882 16.1531 7.77257 16.145 6.98161 16.1108M13.0957 5.99154C13.096 6.16956 13.1491 6.34349 13.2482 6.49134C13.3474 6.63919 13.4881 6.75431 13.6527 6.82214C13.8173 6.88998 13.9983 6.90748 14.1729 6.87244C14.3474 6.8374 14.5076 6.75138 14.6333 6.62528C14.7589 6.49917 14.8443 6.33863 14.8787 6.16397C14.9131 5.98931 14.895 5.80837 14.8265 5.64403C14.7581 5.47969 14.6425 5.33934 14.4942 5.24073C14.346 5.14212 14.1719 5.08968 13.9939 5.09003C13.7552 5.09051 13.5266 5.18575 13.3581 5.35481C13.1897 5.52386 13.0953 5.7529 13.0957 5.99154ZM6.1491 10.0075C6.1533 12.1346 7.88072 13.8549 10.0073 13.8509C12.1339 13.8468 13.8554 12.1196 13.8514 9.99254C13.8473 7.86551 12.1195 6.14469 9.9926 6.14889C7.86572 6.15309 6.14505 7.88081 6.1491 10.0075ZM7.50002 10.0048C7.49904 9.51037 7.64471 9.02672 7.91861 8.61504C8.19251 8.20336 8.58233 7.88215 9.03878 7.69202C9.49524 7.50189 9.99782 7.45139 10.483 7.54689C10.9681 7.6424 11.4141 7.87962 11.7644 8.22857C12.1147 8.57752 12.3537 9.02252 12.4512 9.5073C12.5486 9.99207 12.5001 10.4949 12.3118 10.9521C12.1234 11.4093 11.8038 11.8004 11.3932 12.0759C10.9826 12.3514 10.4995 12.499 10.005 12.5C9.67672 12.5007 9.35148 12.4367 9.04789 12.3116C8.7443 12.1866 8.46831 12.003 8.23569 11.7713C8.00307 11.5396 7.81837 11.2643 7.69214 10.9612C7.56591 10.6582 7.50063 10.3332 7.50002 10.0048Z" fill="black"/>
</svg>
