<svg width="20" height="20" viewBox="0 0 20 20" fill="none" xmlns="http://www.w3.org/2000/svg">
<path d="M16.8677 6.47536C16.8782 6.62767 16.8782 6.77998 16.8782 6.9337C16.8782 11.6174 13.3135 17.0192 6.79527 17.0192V17.0163C4.86976 17.0192 2.98425 16.4675 1.36328 15.4273C1.64327 15.461 1.92465 15.4778 2.20674 15.4785C3.80245 15.4799 5.35254 14.9444 6.60791 13.9582C5.0915 13.9294 3.76175 12.9405 3.29721 11.4967C3.82841 11.5992 4.37575 11.5781 4.89712 11.4356C3.24388 11.1015 2.05447 9.64861 2.05447 7.96126C2.05447 7.94582 2.05447 7.93108 2.05447 7.91634C2.54708 8.19078 3.09863 8.34309 3.6628 8.35994C2.1057 7.31904 1.62572 5.24706 2.56602 3.62709C4.36522 5.84156 7.01981 7.18778 9.86948 7.33027C9.58389 6.09915 9.97404 4.80908 10.8947 3.94365C12.322 2.60163 14.5668 2.67042 15.9085 4.09736C16.7021 3.94084 17.4628 3.64955 18.1589 3.23684C17.8943 4.05735 17.3407 4.75433 16.601 5.19722C17.3035 5.1144 17.9897 4.92629 18.636 4.63922C18.1603 5.35234 17.561 5.97351 16.8677 6.47536Z" fill="black"/>
</svg>
