<?xml version="1.0" encoding="UTF-8"?>
<svg width="172px" height="74px" viewBox="0 0 172 74" version="1.1" xmlns="http://www.w3.org/2000/svg" xmlns:xlink="http://www.w3.org/1999/xlink">
    <!-- Generator: Sketch 48.1 (47250) - http://www.bohemiancoding.com/sketch -->
    <title>Group 16</title>
    <desc>Created with Sketch.</desc>
    <defs>
        <rect id="path-1" x="0" y="39" width="172" height="35" rx="3"></rect>
        <rect id="path-2" x="0" y="0" width="172" height="35" rx="3"></rect>
    </defs>
    <g id="09_00-Landing-Page" stroke="none" stroke-width="1" fill="none" fill-rule="evenodd" transform="translate(-237.000000, -643.000000)">
        <g id="Group-16" transform="translate(237.000000, 643.000000)">
            <g id="Rectangle">
                <use fill="#FFFFFF" fill-rule="evenodd" xlink:href="#path-1"></use>
                <rect stroke="#E9E9E9" stroke-width="1" x="0.5" y="39.5" width="171" height="34" rx="3"></rect>
            </g>
            <g id="Group-12">
                <g id="Group-13">
                    <g id="Rectangle">
                        <use fill="#FFFFFF" fill-rule="evenodd" xlink:href="#path-2"></use>
                        <rect stroke="#E9E9E9" stroke-width="1" x="0.5" y="0.5" width="171" height="34" rx="3"></rect>
                    </g>
                    <path d="M3,1 L169,1 C170.104569,1 171,1.8954305 171,3 L171,21 L1,21 L1,3 C1,1.8954305 1.8954305,1 3,1 Z" id="Rectangle-2" fill="#FAFAFA"></path>
                    <path d="M9.68,14.12 C7.41,14.12 6.5,12.66 6.5,10.49 C6.5,8.05 7.81,6.63 9.87,6.63 C11.39,6.63 12.45,7.37 12.56,9.06 L11.7,9.15 C11.56,8.02 11.05,7.43 9.86,7.43 C8.36,7.43 7.45,8.42 7.45,10.41 C7.45,12.49 8.29,13.33 9.74,13.33 C10.89,13.33 11.45,12.83 11.68,11.81 L12.51,11.98 C12.26,13.58 10.95,14.12 9.68,14.12 Z M15.78,14.12 C14,14.12 13.41,12.97 13.41,11.45 C13.41,9.79 14.27,8.75 15.91,8.75 C17.54,8.75 18.21,9.8 18.21,11.33 C18.21,13.02 17.51,14.12 15.78,14.12 Z M15.83,13.39 C16.72,13.39 17.26,12.85 17.26,11.39 C17.26,9.97 16.76,9.5 15.87,9.5 C14.96,9.5 14.35,10.04 14.35,11.41 C14.35,12.77 14.83,13.39 15.83,13.39 Z M20.42,10.16 L20.42,14 L19.51,14 L19.51,8.86 L20.29,8.86 L20.34,9.44 C20.85,9.05 21.39,8.75 22.09,8.75 C22.77,8.75 23.18,8.98 23.38,9.46 C23.88,9.06 24.46,8.75 25.16,8.75 C26.24,8.75 26.62,9.35 26.62,10.5 L26.62,14 L25.71,14 L25.71,10.63 C25.71,9.94 25.57,9.55 24.91,9.55 C24.42,9.55 23.83,9.87 23.53,10.12 C23.54,10.24 23.55,10.37 23.55,10.5 L23.55,14 L22.64,14 L22.64,10.63 C22.64,9.94 22.5,9.55 21.84,9.55 C21.32,9.55 20.69,9.91 20.42,10.16 Z M28.17,16.12 L28.17,8.86 L28.96,8.86 L29.01,9.45 C29.48,9.03 30.06,8.75 30.79,8.75 C31.87,8.75 32.67,9.42 32.67,11.31 C32.67,13.32 31.68,14.12 30.53,14.12 C29.91,14.12 29.42,13.9 29.05,13.62 L29.05,16.12 L28.17,16.12 Z M29.08,10.16 L29.08,12.84 C29.3,13.01 29.81,13.35 30.4,13.35 C31.38,13.35 31.74,12.53 31.74,11.3 C31.74,10.01 31.34,9.51 30.52,9.51 C29.95,9.51 29.38,9.86 29.08,10.16 Z M34.89,6.45 L34.89,14 L33.98,14 L33.98,6.45 L34.89,6.45 Z M38.52,14.12 C36.7,14.12 36.15,12.85 36.15,11.44 C36.15,9.56 37.25,8.75 38.57,8.75 C40.01,8.75 40.61,9.7 40.61,10.97 C40.61,11.17 40.6,11.4 40.57,11.64 L37.11,11.64 C37.15,12.95 37.73,13.36 38.55,13.36 C39.28,13.36 39.62,13.03 39.76,12.45 L40.56,12.63 C40.35,13.63 39.55,14.12 38.52,14.12 Z M37.12,10.92 L39.67,10.92 C39.67,10 39.32,9.49 38.51,9.49 C37.83,9.49 37.17,9.9 37.12,10.92 Z M45.57,8.86 L43.84,11.33 L45.66,14 L44.67,14 L43.3,11.98 L42,14 L41.07,14 L42.8,11.35 L41.08,8.86 L42.08,8.86 L43.34,10.73 L44.64,8.86 L45.57,8.86 Z M50.95,7.41 C49.84,7.41 49.44,7.9 49.44,8.54 C49.44,9.42 50.27,9.67 51.17,9.94 C52.23,10.25 53.38,10.59 53.38,11.99 C53.38,13.52 52.16,14.12 50.82,14.12 C49.31,14.12 48.37,13.52 48.18,12.03 L49.06,11.9 C49.23,12.67 49.59,13.34 50.83,13.34 C51.61,13.34 52.44,13.08 52.44,12.12 C52.44,11.22 51.63,10.98 50.74,10.73 C49.67,10.43 48.5,10.12 48.5,8.63 C48.5,7.39 49.54,6.63 50.94,6.63 C52.21,6.63 53.17,7.12 53.32,8.67 L52.46,8.77 C52.35,8.08 52.07,7.41 50.95,7.41 Z M56.65,14.12 C54.83,14.12 54.28,12.85 54.28,11.44 C54.28,9.56 55.38,8.75 56.7,8.75 C58.14,8.75 58.74,9.7 58.74,10.97 C58.74,11.17 58.73,11.4 58.7,11.64 L55.24,11.64 C55.28,12.95 55.86,13.36 56.68,13.36 C57.41,13.36 57.75,13.03 57.89,12.45 L58.69,12.63 C58.48,13.63 57.68,14.12 56.65,14.12 Z M55.25,10.92 L57.8,10.92 C57.8,10 57.45,9.49 56.64,9.49 C55.96,9.49 55.3,9.9 55.25,10.92 Z M64.34,10.51 L64.34,14 L63.43,14 L63.43,10.65 C63.43,9.94 63.17,9.55 62.47,9.55 C61.88,9.55 61.24,9.93 60.97,10.17 L60.97,14 L60.06,14 L60.06,8.86 L60.86,8.86 L60.91,9.47 C61.41,9.07 62.05,8.75 62.76,8.75 C63.86,8.75 64.34,9.35 64.34,10.51 Z M68.46,13.12 L68.62,13.78 C68.37,13.95 67.84,14.12 67.36,14.12 C66.4,14.12 65.91,13.68 65.91,12.65 L65.91,9.59 L65.12,9.59 L65.12,8.86 L65.91,8.86 L65.91,7.37 L66.82,7.23 L66.82,8.86 L68.24,8.86 L68.24,9.59 L66.82,9.59 L66.82,12.53 C66.82,13.07 66.94,13.37 67.56,13.37 C67.87,13.37 68.24,13.24 68.46,13.12 Z M71.49,14.12 C69.67,14.12 69.12,12.85 69.12,11.44 C69.12,9.56 70.22,8.75 71.54,8.75 C72.98,8.75 73.58,9.7 73.58,10.97 C73.58,11.17 73.57,11.4 73.54,11.64 L70.08,11.64 C70.12,12.95 70.7,13.36 71.52,13.36 C72.25,13.36 72.59,13.03 72.73,12.45 L73.53,12.63 C73.32,13.63 72.52,14.12 71.49,14.12 Z M70.09,10.92 L72.64,10.92 C72.64,10 72.29,9.49 71.48,9.49 C70.8,9.49 70.14,9.9 70.09,10.92 Z M79.18,10.51 L79.18,14 L78.27,14 L78.27,10.65 C78.27,9.94 78.01,9.55 77.31,9.55 C76.72,9.55 76.08,9.93 75.81,10.17 L75.81,14 L74.9,14 L74.9,8.86 L75.7,8.86 L75.75,9.47 C76.25,9.07 76.89,8.75 77.6,8.75 C78.7,8.75 79.18,9.35 79.18,10.51 Z M82.76,14.12 C81.06,14.12 80.4,13.02 80.4,11.48 C80.4,9.69 81.32,8.75 82.86,8.75 C84.01,8.75 84.77,9.35 84.84,10.54 L83.97,10.66 C83.89,9.9 83.54,9.51 82.82,9.51 C82.08,9.51 81.35,9.91 81.35,11.37 C81.35,12.9 81.97,13.36 82.79,13.36 C83.49,13.36 83.94,13.02 84.07,12.26 L84.87,12.43 C84.7,13.62 83.79,14.12 82.76,14.12 Z M88.15,14.12 C86.33,14.12 85.78,12.85 85.78,11.44 C85.78,9.56 86.88,8.75 88.2,8.75 C89.64,8.75 90.24,9.7 90.24,10.97 C90.24,11.17 90.23,11.4 90.2,11.64 L86.74,11.64 C86.78,12.95 87.36,13.36 88.18,13.36 C88.91,13.36 89.25,13.03 89.39,12.45 L90.19,12.63 C89.98,13.63 89.18,14.12 88.15,14.12 Z M86.75,10.92 L89.3,10.92 C89.3,10 88.95,9.49 88.14,9.49 C87.46,9.49 86.8,9.9 86.75,10.92 Z M93.21,8.75 C94.43,8.75 94.93,9.33 95.09,10.24 L94.27,10.42 C94.15,9.83 93.95,9.47 93.2,9.47 C92.45,9.47 92.21,9.8 92.21,10.19 C92.21,10.72 92.63,10.87 93.35,11.02 C94.29,11.22 95.18,11.41 95.18,12.56 C95.18,13.54 94.42,14.12 93.17,14.12 C91.99,14.12 91.28,13.66 91.12,12.63 L91.93,12.41 C92.07,12.96 92.3,13.4 93.21,13.4 C93.83,13.4 94.28,13.21 94.28,12.66 C94.28,12.09 93.86,11.99 93.16,11.85 C92.32,11.68 91.31,11.5 91.31,10.3 C91.31,9.26 92.17,8.75 93.21,8.75 Z M99.61,11.37 L99.61,14 L98.7,14 L98.7,6.76 L101.06,6.76 C102.91,6.76 103.47,7.78 103.47,8.93 C103.47,10.65 102.45,11.37 100.71,11.37 L99.61,11.37 Z M99.61,10.58 L100.64,10.58 C101.69,10.58 102.52,10.33 102.52,8.98 C102.52,7.94 101.95,7.54 100.79,7.54 L99.61,7.54 L99.61,10.58 Z M108.04,10.52 L108.04,13.03 C108.04,13.31 108.09,13.43 108.35,13.43 C108.44,13.43 108.53,13.41 108.66,13.37 L108.7,13.94 C108.5,14.04 108.24,14.1 107.99,14.1 C107.48,14.1 107.25,13.82 107.2,13.49 C106.8,13.89 106.27,14.12 105.55,14.12 C104.25,14.12 104.03,13.24 104.03,12.74 C104.03,11.37 105.24,10.99 106.69,10.99 C106.85,10.99 107,11 107.14,11.01 L107.14,10.51 C107.14,9.86 106.96,9.46 106.12,9.46 C105.41,9.46 105.14,9.74 105.03,10.31 L104.23,10.16 C104.39,9.2 105.01,8.75 106.2,8.75 C107.47,8.75 108.04,9.24 108.04,10.52 Z M107.15,12.83 L107.15,11.67 C107.01,11.65 106.82,11.64 106.63,11.64 C105.92,11.64 104.97,11.71 104.97,12.59 C104.97,13.03 105.13,13.41 105.83,13.41 C106.36,13.41 106.87,13.13 107.15,12.83 Z M111.67,14.12 C109.97,14.12 109.31,13.02 109.31,11.48 C109.31,9.69 110.23,8.75 111.77,8.75 C112.92,8.75 113.68,9.35 113.75,10.54 L112.88,10.66 C112.8,9.9 112.45,9.51 111.73,9.51 C110.99,9.51 110.26,9.91 110.26,11.37 C110.26,12.9 110.88,13.36 111.7,13.36 C112.4,13.36 112.85,13.02 112.98,12.26 L113.78,12.43 C113.61,13.62 112.7,14.12 111.67,14.12 Z M115.92,6.45 L115.92,11.12 L118.13,8.86 L119.16,8.86 L117.38,10.71 L119.29,14 L118.29,14 L116.71,11.35 L115.92,12.13 L115.92,14 L115.01,14 L115.01,6.45 L115.92,6.45 Z" id="Complex-Sentences-Pa" fill="#333333"></path>
                </g>
                <g id="Group-32" transform="translate(6.000000, 27.000000)" fill="#DFDFDF" fill-rule="nonzero">
                    <polygon id="Line" points="-0.75 1.75 -0.75 0.25 30.75 0.25 30.75 1.75"></polygon>
                    <polygon id="Line-Copy" points="46.25 1.75 46.25 0.25 110.75 0.25 110.75 1.75"></polygon>
                    <polygon id="Line-Copy" points="123.25 1.375 123.25 -0.125 158.834851 -0.125 158.834851 1.375"></polygon>
                </g>
            </g>
            <g id="Group-12-Copy" transform="translate(1.000000, 40.000000)">
                <g id="Group-13">
                    <path d="M2,0 L168,-2.22044605e-16 C169.104569,1.5271926e-14 170,0.8954305 170,2 L170,20 L0,20 L-2.22044605e-16,2 C-3.57315355e-16,0.8954305 0.8954305,-1.91384796e-17 2,-2.22044605e-16 Z" id="Rectangle-2" fill="#FAFAFA"></path>
                    <path d="M8.68,14.12 C6.41,14.12 5.5,12.66 5.5,10.49 C5.5,8.05 6.81,6.63 8.87,6.63 C10.39,6.63 11.45,7.37 11.56,9.06 L10.7,9.15 C10.56,8.02 10.05,7.43 8.86,7.43 C7.36,7.43 6.45,8.42 6.45,10.41 C6.45,12.49 7.29,13.33 8.74,13.33 C9.89,13.33 10.45,12.83 10.68,11.81 L11.51,11.98 C11.26,13.58 9.95,14.12 8.68,14.12 Z M14.78,14.12 C13,14.12 12.41,12.97 12.41,11.45 C12.41,9.79 13.27,8.75 14.91,8.75 C16.54,8.75 17.21,9.8 17.21,11.33 C17.21,13.02 16.51,14.12 14.78,14.12 Z M14.83,13.39 C15.72,13.39 16.26,12.85 16.26,11.39 C16.26,9.97 15.76,9.5 14.87,9.5 C13.96,9.5 13.35,10.04 13.35,11.41 C13.35,12.77 13.83,13.39 14.83,13.39 Z M19.42,10.16 L19.42,14 L18.51,14 L18.51,8.86 L19.29,8.86 L19.34,9.44 C19.85,9.05 20.39,8.75 21.09,8.75 C21.77,8.75 22.18,8.98 22.38,9.46 C22.88,9.06 23.46,8.75 24.16,8.75 C25.24,8.75 25.62,9.35 25.62,10.5 L25.62,14 L24.71,14 L24.71,10.63 C24.71,9.94 24.57,9.55 23.91,9.55 C23.42,9.55 22.83,9.87 22.53,10.12 C22.54,10.24 22.55,10.37 22.55,10.5 L22.55,14 L21.64,14 L21.64,10.63 C21.64,9.94 21.5,9.55 20.84,9.55 C20.32,9.55 19.69,9.91 19.42,10.16 Z M27.17,16.12 L27.17,8.86 L27.96,8.86 L28.01,9.45 C28.48,9.03 29.06,8.75 29.79,8.75 C30.87,8.75 31.67,9.42 31.67,11.31 C31.67,13.32 30.68,14.12 29.53,14.12 C28.91,14.12 28.42,13.9 28.05,13.62 L28.05,16.12 L27.17,16.12 Z M28.08,10.16 L28.08,12.84 C28.3,13.01 28.81,13.35 29.4,13.35 C30.38,13.35 30.74,12.53 30.74,11.3 C30.74,10.01 30.34,9.51 29.52,9.51 C28.95,9.51 28.38,9.86 28.08,10.16 Z M35.03,14.12 C33.25,14.12 32.66,12.97 32.66,11.45 C32.66,9.79 33.52,8.75 35.16,8.75 C36.79,8.75 37.46,9.8 37.46,11.33 C37.46,13.02 36.76,14.12 35.03,14.12 Z M35.08,13.39 C35.97,13.39 36.51,12.85 36.51,11.39 C36.51,9.97 36.01,9.5 35.12,9.5 C34.21,9.5 33.6,10.04 33.6,11.41 C33.6,12.77 34.08,13.39 35.08,13.39 Z M38.74,12.35 L38.74,8.86 L39.65,8.86 L39.65,12.21 C39.65,12.92 39.82,13.31 40.58,13.31 C41.17,13.31 41.8,12.93 42.07,12.68 L42.07,8.86 L42.98,8.86 L42.98,14 L42.19,14 L42.13,13.41 C41.63,13.82 41.02,14.1 40.31,14.1 C39.22,14.1 38.74,13.5 38.74,12.35 Z M48.85,10.51 L48.85,14 L47.94,14 L47.94,10.65 C47.94,9.94 47.68,9.55 46.98,9.55 C46.39,9.55 45.75,9.93 45.48,10.17 L45.48,14 L44.57,14 L44.57,8.86 L45.37,8.86 L45.42,9.47 C45.92,9.07 46.56,8.75 47.27,8.75 C48.37,8.75 48.85,9.35 48.85,10.51 Z M54.58,6.45 L54.58,14 L53.82,14 L53.75,13.45 L53.74,13.44 C53.3,13.84 52.78,14.12 52.04,14.12 C50.87,14.12 50.08,13.38 50.08,11.51 C50.08,9.48 51.11,8.75 52.25,8.75 C52.84,8.75 53.33,8.94 53.69,9.23 L53.69,6.45 L54.58,6.45 Z M53.68,12.73 L53.68,9.98 C53.44,9.8 52.96,9.53 52.37,9.53 C51.38,9.53 51.02,10.32 51.02,11.51 C51.02,12.76 51.41,13.36 52.31,13.36 C52.84,13.36 53.36,13.05 53.68,12.73 Z M60.48,7.41 C59.37,7.41 58.97,7.9 58.97,8.54 C58.97,9.42 59.8,9.67 60.7,9.94 C61.76,10.25 62.91,10.59 62.91,11.99 C62.91,13.52 61.69,14.12 60.35,14.12 C58.84,14.12 57.9,13.52 57.71,12.03 L58.59,11.9 C58.76,12.67 59.12,13.34 60.36,13.34 C61.14,13.34 61.97,13.08 61.97,12.12 C61.97,11.22 61.16,10.98 60.27,10.73 C59.2,10.43 58.03,10.12 58.03,8.63 C58.03,7.39 59.07,6.63 60.47,6.63 C61.74,6.63 62.7,7.12 62.85,8.67 L61.99,8.77 C61.88,8.08 61.6,7.41 60.48,7.41 Z M66.18,14.12 C64.36,14.12 63.81,12.85 63.81,11.44 C63.81,9.56 64.91,8.75 66.23,8.75 C67.67,8.75 68.27,9.7 68.27,10.97 C68.27,11.17 68.26,11.4 68.23,11.64 L64.77,11.64 C64.81,12.95 65.39,13.36 66.21,13.36 C66.94,13.36 67.28,13.03 67.42,12.45 L68.22,12.63 C68.01,13.63 67.21,14.12 66.18,14.12 Z M64.78,10.92 L67.33,10.92 C67.33,10 66.98,9.49 66.17,9.49 C65.49,9.49 64.83,9.9 64.78,10.92 Z M73.87,10.51 L73.87,14 L72.96,14 L72.96,10.65 C72.96,9.94 72.7,9.55 72,9.55 C71.41,9.55 70.77,9.93 70.5,10.17 L70.5,14 L69.59,14 L69.59,8.86 L70.39,8.86 L70.44,9.47 C70.94,9.07 71.58,8.75 72.29,8.75 C73.39,8.75 73.87,9.35 73.87,10.51 Z M77.99,13.12 L78.15,13.78 C77.9,13.95 77.37,14.12 76.89,14.12 C75.93,14.12 75.44,13.68 75.44,12.65 L75.44,9.59 L74.65,9.59 L74.65,8.86 L75.44,8.86 L75.44,7.37 L76.35,7.23 L76.35,8.86 L77.77,8.86 L77.77,9.59 L76.35,9.59 L76.35,12.53 C76.35,13.07 76.47,13.37 77.09,13.37 C77.4,13.37 77.77,13.24 77.99,13.12 Z M81.02,14.12 C79.2,14.12 78.65,12.85 78.65,11.44 C78.65,9.56 79.75,8.75 81.07,8.75 C82.51,8.75 83.11,9.7 83.11,10.97 C83.11,11.17 83.1,11.4 83.07,11.64 L79.61,11.64 C79.65,12.95 80.23,13.36 81.05,13.36 C81.78,13.36 82.12,13.03 82.26,12.45 L83.06,12.63 C82.85,13.63 82.05,14.12 81.02,14.12 Z M79.62,10.92 L82.17,10.92 C82.17,10 81.82,9.49 81.01,9.49 C80.33,9.49 79.67,9.9 79.62,10.92 Z M88.71,10.51 L88.71,14 L87.8,14 L87.8,10.65 C87.8,9.94 87.54,9.55 86.84,9.55 C86.25,9.55 85.61,9.93 85.34,10.17 L85.34,14 L84.43,14 L84.43,8.86 L85.23,8.86 L85.28,9.47 C85.78,9.07 86.42,8.75 87.13,8.75 C88.23,8.75 88.71,9.35 88.71,10.51 Z M92.29,14.12 C90.59,14.12 89.93,13.02 89.93,11.48 C89.93,9.69 90.85,8.75 92.39,8.75 C93.54,8.75 94.3,9.35 94.37,10.54 L93.5,10.66 C93.42,9.9 93.07,9.51 92.35,9.51 C91.61,9.51 90.88,9.91 90.88,11.37 C90.88,12.9 91.5,13.36 92.32,13.36 C93.02,13.36 93.47,13.02 93.6,12.26 L94.4,12.43 C94.23,13.62 93.32,14.12 92.29,14.12 Z M97.68,14.12 C95.86,14.12 95.31,12.85 95.31,11.44 C95.31,9.56 96.41,8.75 97.73,8.75 C99.17,8.75 99.77,9.7 99.77,10.97 C99.77,11.17 99.76,11.4 99.73,11.64 L96.27,11.64 C96.31,12.95 96.89,13.36 97.71,13.36 C98.44,13.36 98.78,13.03 98.92,12.45 L99.72,12.63 C99.51,13.63 98.71,14.12 97.68,14.12 Z M96.28,10.92 L98.83,10.92 C98.83,10 98.48,9.49 97.67,9.49 C96.99,9.49 96.33,9.9 96.28,10.92 Z M102.74,8.75 C103.96,8.75 104.46,9.33 104.62,10.24 L103.8,10.42 C103.68,9.83 103.48,9.47 102.73,9.47 C101.98,9.47 101.74,9.8 101.74,10.19 C101.74,10.72 102.16,10.87 102.88,11.02 C103.82,11.22 104.71,11.41 104.71,12.56 C104.71,13.54 103.95,14.12 102.7,14.12 C101.52,14.12 100.81,13.66 100.65,12.63 L101.46,12.41 C101.6,12.96 101.83,13.4 102.74,13.4 C103.36,13.4 103.81,13.21 103.81,12.66 C103.81,12.09 103.39,11.99 102.69,11.85 C101.85,11.68 100.84,11.5 100.84,10.3 C100.84,9.26 101.7,8.75 102.74,8.75 Z M109.14,11.37 L109.14,14 L108.23,14 L108.23,6.76 L110.59,6.76 C112.44,6.76 113,7.78 113,8.93 C113,10.65 111.98,11.37 110.24,11.37 L109.14,11.37 Z M109.14,10.58 L110.17,10.58 C111.22,10.58 112.05,10.33 112.05,8.98 C112.05,7.94 111.48,7.54 110.32,7.54 L109.14,7.54 L109.14,10.58 Z M117.57,10.52 L117.57,13.03 C117.57,13.31 117.62,13.43 117.88,13.43 C117.97,13.43 118.06,13.41 118.19,13.37 L118.23,13.94 C118.03,14.04 117.77,14.1 117.52,14.1 C117.01,14.1 116.78,13.82 116.73,13.49 C116.33,13.89 115.8,14.12 115.08,14.12 C113.78,14.12 113.56,13.24 113.56,12.74 C113.56,11.37 114.77,10.99 116.22,10.99 C116.38,10.99 116.53,11 116.67,11.01 L116.67,10.51 C116.67,9.86 116.49,9.46 115.65,9.46 C114.94,9.46 114.67,9.74 114.56,10.31 L113.76,10.16 C113.92,9.2 114.54,8.75 115.73,8.75 C117,8.75 117.57,9.24 117.57,10.52 Z M116.68,12.83 L116.68,11.67 C116.54,11.65 116.35,11.64 116.16,11.64 C115.45,11.64 114.5,11.71 114.5,12.59 C114.5,13.03 114.66,13.41 115.36,13.41 C115.89,13.41 116.4,13.13 116.68,12.83 Z M121.2,14.12 C119.5,14.12 118.84,13.02 118.84,11.48 C118.84,9.69 119.76,8.75 121.3,8.75 C122.45,8.75 123.21,9.35 123.28,10.54 L122.41,10.66 C122.33,9.9 121.98,9.51 121.26,9.51 C120.52,9.51 119.79,9.91 119.79,11.37 C119.79,12.9 120.41,13.36 121.23,13.36 C121.93,13.36 122.38,13.02 122.51,12.26 L123.31,12.43 C123.14,13.62 122.23,14.12 121.2,14.12 Z M125.45,6.45 L125.45,11.12 L127.66,8.86 L128.69,8.86 L126.91,10.71 L128.82,14 L127.82,14 L126.24,11.35 L125.45,12.13 L125.45,14 L124.54,14 L124.54,6.45 L125.45,6.45 Z" id="Compound-Sentences-P" fill="#333333"></path>
                </g>
                <g id="Group-32" transform="translate(5.000000, 26.000000)" fill="#DFDFDF" fill-rule="nonzero">
                    <polygon id="Line" points="-0.75 1.75 -0.75 0.25 30.75 0.25 30.75 1.75"></polygon>
                    <polygon id="Line-Copy" points="46.25 1.75 46.25 0.25 110.75 0.25 110.75 1.75"></polygon>
                    <polygon id="Line-Copy" points="123.25 1.375 123.25 -0.125 159.668679 -0.125 159.668679 1.375"></polygon>
                </g>
            </g>
            <g id="Group-14" transform="translate(160.000000, 46.000000)" fill="#E8522C" fill-rule="nonzero">
                <polygon id="Shape" points="5.65652958 -0.707106781 7.07074314 0.707106781 0.707106781 7.07074314 -0.707106781 5.65652958"></polygon>
                <polygon id="Shape" points="7.07074314 5.65652958 5.65652958 7.07074314 -0.707106781 0.707106781 0.707106781 -0.707106781"></polygon>
            </g>
            <polygon id="Shape" fill="#58B146" fill-rule="nonzero" points="164.695496 6.38605939 166.274201 7.61394061 159.828283 15.9015493 156.210648 11.2503042 157.789352 10.022423 159.828283 12.6439052"></polygon>
        </g>
    </g>
</svg>