<svg width="200" height="120" viewBox="0 0 200 120" fill="none" xmlns="http://www.w3.org/2000/svg">
<path d="M15.5 30C15.5 28.067 17.067 26.5 19 26.5H181C182.933 26.5 184.5 28.067 184.5 30V93.5H15.5V30Z" fill="white" stroke="#CFCFCF"/>
<path d="M15.5 30C15.5 28.067 17.067 26.5 19 26.5H181C182.933 26.5 184.5 28.067 184.5 30V35.5H15.5V30Z" fill="#F8F8F8" stroke="#CFCFCF"/>
<path d="M15 47.25H185" stroke="#CFCFCF" stroke-width="0.5" stroke-linecap="square"/>
<path d="M15 35.25H185" stroke="#CFCFCF" stroke-width="0.5" stroke-linecap="square"/>
<path d="M20 41.625H34.1797" stroke="#D9D9D9" stroke-width="1.5" stroke-linecap="square"/>
<path d="M51 41.625H123" stroke="#D9D9D9" stroke-width="1.5" stroke-linecap="square"/>
<path d="M143 41.625H175.009" stroke="#D9D9D9" stroke-width="1.5" stroke-linecap="square"/>
<path d="M20 30.625H27.18" stroke="#CFCFCF" stroke-width="1.5" stroke-linecap="square"/>
<path d="M51 30.625H69" stroke="#CFCFCF" stroke-width="1.5" stroke-linecap="square"/>
<path d="M143 30.625H153.01" stroke="#CFCFCF" stroke-width="1.5" stroke-linecap="square"/>
<path d="M20 53.625H31.18" stroke="#D9D9D9" stroke-width="1.5" stroke-linecap="square"/>
<path d="M51 53.625H129" stroke="#D9D9D9" stroke-width="1.5" stroke-linecap="square"/>
<path d="M143 53.625H170.01" stroke="#D9D9D9" stroke-width="1.5" stroke-linecap="square"/>
<path d="M20 64.625H34.1797" stroke="#D9D9D9" stroke-width="1.5" stroke-linecap="square"/>
<path d="M51 64.625H115" stroke="#D9D9D9" stroke-width="1.5" stroke-linecap="square"/>
<path d="M143 64.625H177.01" stroke="#D9D9D9" stroke-width="1.5" stroke-linecap="square"/>
<path d="M20 76.625H29.18" stroke="#D9D9D9" stroke-width="1.5" stroke-linecap="square"/>
<path d="M51 76.625H113" stroke="#D9D9D9" stroke-width="1.5" stroke-linecap="square"/>
<path d="M143 76.625H168.01" stroke="#D9D9D9" stroke-width="1.5" stroke-linecap="square"/>
<path d="M20 87.625H38.18" stroke="#D9D9D9" stroke-width="1.5" stroke-linecap="square"/>
<path d="M51 87.625H119" stroke="#D9D9D9" stroke-width="1.5" stroke-linecap="square"/>
<path d="M143 87.625H171.01" stroke="#D9D9D9" stroke-width="1.5" stroke-linecap="square"/>
<path d="M15 58.25H185" stroke="#CFCFCF" stroke-width="0.5" stroke-linecap="square"/>
<path d="M15 70.25H185" stroke="#CFCFCF" stroke-width="0.5" stroke-linecap="square"/>
<path d="M15 81.25H185" stroke="#CFCFCF" stroke-width="0.5" stroke-linecap="square"/>
<path d="M15 93.25H185" stroke="#CFCFCF" stroke-width="0.5" stroke-linecap="square"/>
<rect x="58.2344" y="15.5" width="83.5313" height="89" rx="3.5" fill="white"/>
<rect x="58.2344" y="15.5" width="83.5313" height="89" rx="3.5" stroke="#AEAEAE"/>
<path fill-rule="evenodd" clip-rule="evenodd" d="M99.2493 41.1393V48.3749C99.2493 48.6428 99.3923 48.8904 99.6243 49.0244C99.8563 49.1583 100.142 49.1583 100.374 49.0244C100.606 48.8903 100.749 48.6428 100.749 48.3749V41.1393C101.562 40.8971 102.207 40.2774 102.482 39.4753C102.757 38.6735 102.628 37.788 102.135 37.0981C101.643 36.4081 100.847 35.9988 99.9993 35.9988C99.1515 35.9988 98.3559 36.4081 97.8632 37.0981C97.3704 37.788 97.2412 38.6735 97.5163 39.4753C97.7913 40.2774 98.4368 40.8971 99.2493 41.1393ZM99.9993 37.4999C100.298 37.4999 100.584 37.6185 100.795 37.8294C101.006 38.0404 101.124 38.3265 101.124 38.6249C101.124 38.9234 101.006 39.2094 100.795 39.4204C100.584 39.6313 100.298 39.7499 99.9993 39.7499C99.7009 39.7499 99.4148 39.6313 99.2038 39.4204C98.9929 39.2095 98.8743 38.9234 98.8743 38.6249C98.8746 38.3266 98.9932 38.0407 99.2041 37.8298C99.4151 37.6188 99.701 37.5002 99.9993 37.4999ZM99.9993 70.8753C99.8004 70.8753 99.6096 70.9544 99.469 71.095C99.3284 71.2356 99.2493 71.4264 99.2493 71.6253V78.8609C98.4368 79.1031 97.7913 79.7228 97.5163 80.5248C97.2412 81.3267 97.3704 82.2122 97.8632 82.902C98.3559 83.592 99.1515 84.0014 99.9993 84.0014C100.847 84.0014 101.643 83.592 102.135 82.902C102.628 82.2122 102.757 81.3267 102.482 80.5248C102.207 79.7228 101.562 79.1031 100.749 78.8609V71.6253C100.749 71.4264 100.67 71.2356 100.53 71.095C100.389 70.9544 100.198 70.8753 99.9993 70.8753ZM101.124 81.3753C101.124 81.6737 101.006 81.9598 100.795 82.1708C100.584 82.3817 100.298 82.5003 99.9993 82.5003C99.7009 82.5003 99.4148 82.3817 99.2038 82.1708C98.9929 81.9599 98.8743 81.6738 98.8743 81.3753C98.8743 81.0769 98.9929 80.7908 99.2038 80.5798C99.4148 80.3689 99.7009 80.2503 99.9993 80.2503C100.298 80.2506 100.583 80.3692 100.794 80.5801C101.005 80.7911 101.124 81.077 101.124 81.3753ZM86.1314 46.3629C86.0611 46.3629 85.9905 46.3601 85.9194 46.3545L85.9195 46.3544C85.1508 46.2935 84.4478 45.8975 83.9973 45.2716C83.5469 44.6458 83.3947 43.8533 83.5809 43.105C83.7673 42.3569 84.2734 41.7285 84.9648 41.3869C85.6562 41.0455 86.463 41.0253 87.1703 41.3322C87.8778 41.6389 88.4146 42.2415 88.6378 42.9796C88.8611 43.7175 88.7485 44.5166 88.3296 45.1641L93.0252 50.6689C93.1991 50.8728 93.251 51.1539 93.1614 51.4064C93.0717 51.6589 92.8542 51.8444 92.5908 51.8932C92.3273 51.9417 92.058 51.8461 91.8841 51.6424L87.1837 46.132C86.8529 46.2817 86.4944 46.3604 86.1314 46.3629ZM86.1257 42.6126C85.8585 42.6123 85.6 42.7077 85.3972 42.8817C85.1702 43.0754 85.0294 43.3514 85.0058 43.6487C84.982 43.9462 85.0777 44.2409 85.2714 44.4679C85.465 44.695 85.741 44.8357 86.0385 44.8593C86.3358 44.8823 86.63 44.7868 86.8574 44.5937C87.0844 44.4001 87.2252 44.1243 87.2489 43.8268C87.2725 43.5293 87.1771 43.2348 86.9835 43.0078C86.7897 42.7806 86.5139 42.6398 86.2164 42.6162C86.1861 42.6138 86.1557 42.6126 86.1257 42.6126ZM115.575 78.2602C116.219 77.7095 116.558 76.8817 116.485 76.0372C116.412 75.1928 115.936 74.4355 115.206 74.0037C114.477 73.572 113.584 73.5189 112.809 73.8612L108.115 68.358C107.941 68.1543 107.671 68.0587 107.408 68.1073C107.144 68.156 106.927 68.3415 106.837 68.594C106.748 68.8465 106.8 69.1276 106.973 69.3315L111.669 74.8362C111.209 75.5476 111.12 76.4374 111.431 77.2255C111.742 78.0136 112.415 78.6032 113.237 78.8083C114.059 79.0136 114.93 78.8093 115.575 78.2599L115.575 78.2602ZM113.015 76.9931C112.822 76.7658 112.727 76.4712 112.75 76.1739C112.774 75.8766 112.915 75.6008 113.141 75.4069C113.368 75.2133 113.663 75.1178 113.96 75.1414C114.258 75.1651 114.534 75.3059 114.727 75.533C114.921 75.76 115.016 76.0545 114.993 76.352C114.969 76.6494 114.828 76.9252 114.601 77.1188C114.374 77.3125 114.08 77.408 113.782 77.3844C113.485 77.3608 113.209 77.22 113.015 76.9931ZM78.5839 58.875C78.4335 58.8748 78.2835 58.8615 78.1353 58.8353L78.1356 58.8353C77.4579 58.7153 76.8573 58.3274 76.469 57.7591C76.0735 57.1877 75.9188 56.4834 76.0385 55.7989C76.1523 55.1158 76.5328 54.5058 77.0961 54.103C77.6519 53.7017 78.3469 53.5435 79.0215 53.6646C79.6992 53.7846 80.2998 54.1725 80.6879 54.7408C80.9354 55.0983 81.0906 55.5116 81.1398 55.9436L88.139 57.1866C88.3331 57.2231 88.505 57.3347 88.6172 57.497C88.7293 57.6595 88.7729 57.8597 88.7383 58.0542C88.71 58.2266 88.6217 58.3834 88.489 58.497C88.3564 58.6106 88.1878 58.6737 88.0131 58.6753C87.9705 58.6753 87.9278 58.6714 87.8858 58.6639L80.8862 57.4209C80.6966 57.8098 80.413 58.1453 80.0608 58.3969C79.6308 58.7073 79.1141 58.8745 78.5839 58.875ZM77.9428 55.3296C77.7016 55.5023 77.5388 55.7639 77.49 56.0565L77.49 56.0565C77.4384 56.35 77.5048 56.6519 77.6745 56.8967C77.8406 57.1403 78.0981 57.3065 78.3886 57.3579C78.6777 57.4101 78.9756 57.3423 79.2138 57.1701C79.455 56.9973 79.6178 56.7359 79.6666 56.4432C79.718 56.1498 79.6517 55.8479 79.482 55.6031C79.2774 55.304 78.9383 55.125 78.5759 55.1248C78.3486 55.125 78.1272 55.1967 77.9428 55.3296ZM119.112 62.5789L112.112 61.3355C111.918 61.3022 111.719 61.348 111.559 61.4627C111.399 61.5772 111.291 61.751 111.26 61.9455C111.225 62.1399 111.269 62.34 111.381 62.5025C111.493 62.665 111.665 62.7767 111.859 62.8131L118.858 64.0564C118.907 64.4886 119.063 64.9019 119.31 65.2597C119.788 65.9578 120.579 66.3755 121.425 66.3758C121.955 66.3755 122.472 66.2081 122.902 65.8977C123.465 65.4946 123.846 64.8846 123.96 64.2013C124.079 63.5166 123.925 62.8122 123.529 62.2406C123.141 61.6722 122.54 61.2842 121.862 61.1641C121.188 61.0428 120.493 61.2011 119.937 61.6027C119.585 61.8542 119.301 62.1899 119.112 62.5789ZM120.331 63.5567C120.38 63.2639 120.543 63.0025 120.784 62.8297C120.969 62.6966 121.19 62.625 121.417 62.6247C121.78 62.6249 122.119 62.8039 122.323 63.1031C122.493 63.3481 122.56 63.65 122.508 63.9435C122.459 64.2363 122.296 64.4978 122.055 64.6707C121.817 64.8429 121.519 64.9107 121.23 64.8585C120.94 64.8071 120.682 64.6408 120.516 64.3971C120.346 64.1522 120.28 63.8502 120.331 63.5567ZM80.7025 73.0684C80.0305 72.8846 79.46 72.4395 79.1183 71.8325L79.1181 71.8325C78.775 71.2267 78.6864 70.5095 78.872 69.8386C79.0576 69.1676 79.502 68.5978 80.1076 68.2545H80.108C80.6 67.9769 81.1683 67.8648 81.7288 67.9355C82.2892 68.0059 82.8122 68.2552 83.2198 68.6461L89.5151 65.0789C89.7482 64.9469 90.0341 64.9491 90.2652 65.085C90.4962 65.2208 90.6373 65.4695 90.6351 65.7375C90.6329 66.0054 90.488 66.252 90.2549 66.384H90.2548L83.9595 69.9514C84.1381 70.7298 83.953 71.547 83.4561 72.1723C82.9594 72.7975 82.205 73.1626 81.4064 73.1645C81.1684 73.1644 80.9317 73.132 80.7025 73.0684ZM80.9802 69.4956C80.6559 69.6269 80.4113 69.9014 80.318 70.2384C80.2375 70.5259 80.2755 70.8338 80.4234 71.0931C80.5959 71.3974 80.9 71.6042 81.2464 71.6527C81.5928 71.7011 81.942 71.5856 82.1912 71.3403C82.4406 71.095 82.5615 70.7478 82.5187 70.4006C82.4759 70.0536 82.2741 69.7461 81.9727 69.5688C81.6713 69.3914 81.3044 69.3644 80.9802 69.4956ZM109.744 53.6161C109.571 53.7139 109.444 53.8767 109.39 54.0687C109.337 54.2606 109.362 54.4659 109.46 54.6392C109.559 54.8125 109.722 54.9395 109.914 54.9925C110.106 55.0455 110.311 55.0197 110.484 54.9212L116.781 51.3533C117.271 51.823 117.923 52.0855 118.602 52.0862C119.054 52.0862 119.498 51.9689 119.891 51.7456H119.891C120.459 51.4242 120.887 50.9028 121.091 50.2831C121.296 49.6636 121.262 48.99 120.997 48.3939C120.731 47.7979 120.254 47.3217 119.657 47.0588C119.06 46.7956 118.386 46.7644 117.767 46.971C117.148 47.1777 116.628 47.6074 116.309 48.1763C115.99 48.7454 115.894 49.4128 116.04 50.0488L109.744 53.6161ZM118.042 48.4831C118.211 48.387 118.401 48.3366 118.595 48.3364C118.697 48.3364 118.799 48.3503 118.897 48.3775C119.234 48.4706 119.509 48.7153 119.64 49.0395C119.771 49.3638 119.744 49.7306 119.567 50.0322C119.39 50.3337 119.082 50.5356 118.735 50.5786C118.388 50.6214 118.041 50.5005 117.795 50.2512C117.55 50.0019 117.435 49.6526 117.483 49.3062C117.531 48.9598 117.738 48.6556 118.042 48.4831ZM93.6337 45.389C93.2546 45.3885 92.8804 45.3059 92.5365 45.1468C91.7404 44.7798 91.18 44.0398 91.0428 43.174C90.9054 42.3083 91.2095 41.4311 91.8529 40.8359C92.4965 40.2407 93.3947 40.006 94.2471 40.2103C95.0995 40.4146 95.7937 41.031 96.0975 41.8532V41.8534C96.2925 42.3837 96.3112 42.9626 96.1514 43.5045C95.9914 44.0462 95.6611 44.5221 95.2095 44.8615L96.6765 48.835C96.7454 49.0215 96.7375 49.2278 96.6542 49.4084C96.5711 49.5892 96.4195 49.7293 96.2328 49.7982C96.0462 49.8671 95.84 49.8592 95.6593 49.7759C95.4786 49.6926 95.3384 49.5411 95.2695 49.3545H95.2697L93.8 45.3742C93.7775 45.3756 93.7551 45.3783 93.7326 45.381C93.6997 45.385 93.6667 45.389 93.6337 45.389ZM93.3867 41.6656C93.0456 41.7427 92.7598 41.9742 92.6134 42.2918C92.4878 42.5626 92.4756 42.8725 92.5797 43.1521C92.7008 43.4803 92.9677 43.7334 93.3016 43.837C93.6356 43.9407 93.9989 43.8831 94.2844 43.6812C94.57 43.4793 94.7453 43.1561 94.759 42.8067C94.7728 42.4573 94.6231 42.1214 94.3542 41.8978C94.0853 41.6742 93.7278 41.5884 93.3867 41.6656ZM106.366 79.8641C107.077 79.8632 107.756 79.5743 108.25 79.0635C108.744 78.5526 109.009 77.8635 108.986 77.1535C108.963 76.4433 108.653 75.773 108.127 75.2954C107.601 74.8177 106.904 74.5737 106.195 74.619L104.729 70.6472C104.636 70.3958 104.416 70.2132 104.152 70.1679C103.888 70.1226 103.62 70.2216 103.448 70.4277C103.277 70.6338 103.229 70.9155 103.322 71.1668L104.789 75.1403C104.337 75.4796 104.007 75.9554 103.847 76.4973C103.687 77.0392 103.706 77.6181 103.901 78.1484V78.1485C104.087 78.652 104.424 79.0862 104.864 79.3929C105.305 79.6996 105.829 79.8641 106.366 79.8641ZM105.973 76.1838C106.253 76.0804 106.563 76.0926 106.834 76.2174C107.105 76.3423 107.315 76.5696 107.419 76.8496C107.522 77.1295 107.51 77.439 107.385 77.7099C107.26 77.981 107.033 78.1913 106.753 78.2948C106.473 78.398 106.163 78.386 105.892 78.2612C105.621 78.1363 105.411 77.909 105.308 77.629C105.202 77.3491 105.213 77.0388 105.339 76.7673C105.464 76.4957 105.692 76.2855 105.973 76.1838ZM84.0115 53.5604C83.5591 53.5606 83.1146 53.4431 82.7213 53.2193C82.154 52.8977 81.7267 52.3763 81.5227 51.757C81.3187 51.1375 81.3527 50.4642 81.6181 49.8685C81.8835 49.2728 82.3612 48.7971 82.9581 48.5343C83.5549 48.2715 84.2284 48.2404 84.847 48.4471C85.4656 48.6537 85.985 49.0834 86.3042 49.6521C86.6232 50.2209 86.7192 50.8882 86.5731 51.5239L90.2576 53.6132C90.4906 53.7454 90.6354 53.9918 90.6375 54.2596C90.6395 54.5276 90.4986 54.7762 90.2676 54.912C90.0369 55.0478 89.7511 55.0501 89.5179 54.9181L85.8321 52.8279C85.3421 53.2973 84.6901 53.5598 84.0115 53.5604ZM83.7165 49.8515C83.4288 49.931 83.1846 50.1215 83.0374 50.381C82.8904 50.6405 82.8526 50.9479 82.932 51.2354C83.0115 51.5229 83.2018 51.7671 83.4612 51.9145C83.7207 52.0618 84.028 52.0998 84.3157 52.0204C84.6034 51.9409 84.8476 51.7504 84.9948 51.4909C85.1419 51.2314 85.1801 50.9239 85.1005 50.6364C85.021 50.3487 84.8306 50.1043 84.571 49.9573C84.3115 49.8101 84.004 49.772 83.7165 49.8515ZM109.459 65.3649C109.361 65.5379 109.336 65.7427 109.389 65.9344C109.442 66.1261 109.569 66.2889 109.742 66.3871L113.426 68.4764C113.236 69.3027 113.457 70.1697 114.019 70.8045C114.581 71.4394 115.415 71.7637 116.258 71.6755C117.101 71.587 117.849 71.097 118.268 70.3595C118.686 69.622 118.722 68.7281 118.365 67.9592C118.008 67.1903 117.302 66.6413 116.468 66.485C115.635 66.3288 114.778 66.5846 114.166 67.1717L110.482 65.0822H110.481C110.309 64.9841 110.104 64.9586 109.912 65.0116C109.72 65.0647 109.557 65.1918 109.459 65.3649ZM115.005 68.5094C115.152 68.2499 115.396 68.0594 115.684 67.9799C115.971 67.9005 116.279 67.9385 116.538 68.0857C116.798 68.2329 116.988 68.4771 117.068 68.7648C117.147 69.0524 117.109 69.3598 116.962 69.6193C116.815 69.879 116.571 70.0693 116.283 70.1488C115.995 70.2283 115.688 70.1902 115.428 70.043C115.169 69.8957 114.979 69.6515 114.899 69.3639C114.82 69.0763 114.858 68.7691 115.005 68.5094ZM83.6425 65.1276C83.1618 65.5552 82.5409 65.7915 81.8976 65.7913L81.8978 65.7913C81.2717 65.7911 80.6664 65.5671 80.1909 65.1597C79.7154 64.7524 79.4012 64.1885 79.3051 63.5699C79.2088 62.9513 79.3371 62.3186 79.6663 61.7861C79.9957 61.2537 80.5046 60.8564 81.101 60.6663C81.6976 60.476 82.3424 60.5054 82.9191 60.7488C83.496 60.9922 83.9667 61.434 84.2465 61.994L88.4185 61.2644C88.6823 61.2188 88.9502 61.3172 89.1218 61.5226C89.2934 61.7279 89.3426 62.0091 89.2509 62.2604C89.1591 62.5118 88.9405 62.6954 88.6771 62.7421H88.6769L84.5045 63.4718C84.4298 64.1107 84.1231 64.6999 83.6425 65.1276ZM82.545 62.2455C82.3009 62.074 81.9986 62.0066 81.7047 62.058C81.4109 62.1096 81.1497 62.2757 80.9781 62.5198C80.8067 62.7638 80.7392 63.066 80.7903 63.3599C80.8415 63.6538 81.0076 63.9152 81.2519 64.0868C81.4959 64.2582 81.7983 64.3257 82.0922 64.2743C82.3861 64.2231 82.6475 64.057 82.8191 63.8127C82.9906 63.5687 83.058 63.2663 83.0067 62.9724C82.9553 62.6785 82.7892 62.4171 82.545 62.2455ZM111.45 58.7473C111.494 58.7473 111.537 58.7436 111.58 58.7359L115.761 58.0047V58.0048C116.143 58.7559 116.864 59.2766 117.697 59.4028C118.53 59.5289 119.373 59.2453 119.96 58.6409C120.547 58.0367 120.807 57.1861 120.657 56.3568C120.507 55.5276 119.966 54.8218 119.204 54.4615C118.442 54.1013 117.553 54.1309 116.817 54.541C116.081 54.951 115.588 55.6912 115.494 56.5286L111.321 57.2582H111.321C111.073 57.3018 110.863 57.4676 110.762 57.6993C110.662 57.931 110.685 58.1974 110.824 58.4085C110.962 58.6196 111.197 58.747 111.45 58.7473L111.45 58.7473ZM117.906 55.7261C117.97 55.7148 118.035 55.709 118.1 55.709C118.491 55.7087 118.854 55.9109 119.059 56.2434C119.265 56.5758 119.283 56.9909 119.108 57.3401C118.933 57.6895 118.589 57.9229 118.2 57.9572C117.81 57.9912 117.431 57.8212 117.198 57.5078C116.964 57.1944 116.91 56.7823 117.055 56.4192C117.199 56.0561 117.521 55.7937 117.906 55.7261ZM89.8027 75.9658C89.3248 76.3805 88.7131 76.6086 88.0803 76.6081C87.4084 76.608 86.7623 76.35 86.2749 75.8876C85.7876 75.4253 85.496 74.7936 85.4606 74.1228C85.4251 73.4519 85.6482 72.793 86.084 72.2817L86.0845 72.2812C86.4515 71.8519 86.9471 71.5522 87.4979 71.4266C88.0488 71.3009 88.6254 71.3561 89.1424 71.5839L91.8896 68.3601C92.0634 68.1561 92.3328 68.0603 92.5964 68.1089C92.8599 68.1575 93.0776 68.343 93.1673 68.5955C93.257 68.8479 93.2053 69.1292 93.0313 69.3331L90.2851 72.5557C90.6293 73.0868 90.7701 73.7243 90.6813 74.3509C90.5927 74.9775 90.2807 75.5511 89.8027 75.9658ZM88.2131 72.8667C87.84 72.8229 87.4697 72.9684 87.2259 73.2543L87.226 73.2544C87.0324 73.4814 86.9371 73.7761 86.9608 74.0736C86.9846 74.3711 87.1255 74.6469 87.3527 74.8403C87.5797 75.0339 87.8744 75.1292 88.1719 75.1055C88.5464 75.0756 88.8812 74.8606 89.0644 74.5327C89.2475 74.2045 89.2548 73.8067 89.0839 73.4722C88.9129 73.1376 88.5862 72.9104 88.2131 72.8667ZM107.539 51.9021C107.759 51.9024 107.968 51.806 108.11 51.6385L110.863 48.4078L110.863 48.408C111.378 48.6405 111.954 48.6988 112.505 48.5742C113.056 48.4496 113.551 48.1488 113.916 47.7174L113.916 47.7171V47.7169C114.339 47.2203 114.561 46.5841 114.541 45.9322C114.52 45.2803 114.258 44.6596 113.804 44.1907C113.351 43.7219 112.739 43.4386 112.088 43.3961C111.437 43.3536 110.794 43.555 110.284 43.961C109.773 44.3669 109.432 44.9485 109.327 45.5921C109.222 46.2357 109.36 46.8955 109.715 47.4429L106.968 50.6655C106.844 50.8116 106.78 50.9999 106.79 51.1916C106.801 51.3833 106.884 51.5639 107.023 51.6959C107.162 51.8281 107.347 51.9019 107.539 51.902L107.539 51.9021ZM111.062 45.2847C111.254 45.0571 111.531 44.916 111.828 44.8931C111.859 44.8906 111.889 44.8896 111.92 44.8896V44.8894C112.264 44.8899 112.59 45.0482 112.803 45.3191C113.016 45.5899 113.093 45.9433 113.012 46.2783C112.932 46.6134 112.702 46.893 112.389 47.0372C112.076 47.1814 111.714 47.1744 111.407 47.018C111.1 46.8616 110.882 46.5731 110.814 46.2352C110.747 45.8972 110.838 45.5471 111.062 45.2847ZM97.7705 51.75C98.6181 51.748 99.4273 52.1036 99.9989 52.7297H99.999C100.571 52.1036 101.38 51.748 102.227 51.75C103.266 51.7406 104.235 52.2739 104.782 53.1569C105.634 53.2738 106.416 53.6911 106.987 54.3334C107.558 54.976 107.88 55.8013 107.897 56.6605V56.6606C107.896 56.7324 107.894 56.8047 107.889 56.8774C108.598 57.5483 108.999 58.4809 108.999 59.4566C108.994 60.4463 108.58 61.39 107.856 62.065C107.883 62.2385 107.897 62.4136 107.897 62.5891C107.88 63.4485 107.558 64.2738 106.987 64.9163C106.416 65.5587 105.634 65.9762 104.783 66.0932C104.235 66.976 103.266 67.5093 102.227 67.5001C101.38 67.5021 100.57 67.1463 99.9989 66.5202C99.4275 67.1463 98.6183 67.5021 97.7705 67.5001C96.7316 67.5093 95.763 66.976 95.2152 66.0932C94.3636 65.9761 93.582 65.5587 93.0111 64.9163C92.4402 64.2738 92.1175 63.4485 92.1012 62.5891C92.1012 62.4136 92.1147 62.2385 92.1416 62.065C91.4178 61.39 91.0044 60.4463 90.9989 59.4566C90.9991 58.481 91.4003 57.5483 92.1086 56.8774C92.1038 56.8046 92.1013 56.7322 92.1013 56.6605C92.1175 55.8011 92.4402 54.9759 93.0113 54.3334C93.5822 53.6911 94.3639 53.2738 95.2155 53.1569C95.7629 52.2739 96.7315 51.7406 97.7705 51.75ZM98.7973 65.6093C99.0744 65.3483 99.2367 64.9882 99.2489 64.6077L99.2489 54.6422C99.2367 54.2617 99.0742 53.9017 98.7972 53.6408C98.5202 53.38 98.151 53.2395 97.7705 53.2502C97.391 53.2502 97.025 53.3913 96.7438 53.6463C97.2577 54.108 97.5589 54.7611 97.5764 55.4519C97.585 55.6505 97.5144 55.8445 97.38 55.9913C97.2456 56.1378 97.0584 56.2252 96.8597 56.2339V56.2338C96.8487 56.2344 96.8378 56.2345 96.8264 56.2345C96.6333 56.2344 96.4476 56.1597 96.3083 56.0261C96.1689 55.8925 96.0862 55.7103 96.0778 55.5173C96.0776 55.3366 96.0297 55.1591 95.9386 55.003C95.8475 54.8467 95.7167 54.7175 95.5595 54.6283C95.0392 54.6638 94.5506 54.8914 94.1886 55.2671C93.8267 55.6427 93.6173 56.1394 93.6012 56.6607H93.6011C93.6011 56.675 93.6032 56.6897 93.6053 56.7043V56.7044V56.7044V56.7044C93.6071 56.7168 93.6089 56.7291 93.6094 56.7413C93.9334 56.9282 94.304 57.0191 94.6778 57.0035C94.9447 56.9782 95.2047 57.0969 95.36 57.3154C95.5155 57.5336 95.5425 57.8183 95.4311 58.0621C95.3197 58.3057 95.0867 58.4714 94.82 58.4969C94.7295 58.5055 94.6406 58.5094 94.5527 58.5094C94.0122 58.4997 93.4812 58.3646 93.002 58.1146C92.6591 58.5074 92.4797 59.0166 92.5005 59.5375C92.5214 60.0586 92.7411 60.5519 93.1144 60.916C93.6344 60.7204 94.1913 60.6416 94.7452 60.6854C95.0113 60.7176 95.2399 60.8893 95.345 61.1357C95.45 61.3821 95.4158 61.6658 95.2549 61.8802C95.0941 62.0944 94.8311 62.2066 94.565 62.1744C94.2432 62.1608 93.9219 62.2135 93.6213 62.3293C93.6086 62.4153 93.6021 62.5022 93.6013 62.5893C93.6163 63.0975 93.8152 63.583 94.1611 63.9557C94.5069 64.3283 94.9762 64.5627 95.482 64.6155C95.7606 64.3677 95.928 64.0183 95.9464 63.6458C95.967 63.3786 96.1284 63.1427 96.3702 63.0269C96.6117 62.9111 96.8969 62.933 97.118 63.0844C97.3391 63.2358 97.4625 63.4936 97.442 63.7608C97.397 64.4228 97.1286 65.0499 96.6805 65.5394C96.9667 65.8338 97.3598 65.9999 97.7705 66.0002C98.1509 66.0108 98.5202 65.8702 98.7973 65.6093ZM103.171 56.2349C103.16 56.2349 103.149 56.2347 103.138 56.2341L103.138 56.2339C102.939 56.2252 102.752 56.1379 102.618 55.9913C102.483 55.8446 102.413 55.6505 102.421 55.4519C102.439 54.7611 102.74 54.108 103.254 53.6463C102.973 53.3913 102.607 53.2502 102.227 53.2502C101.847 53.2396 101.478 53.38 101.201 53.6408C100.924 53.9017 100.761 54.2618 100.749 54.6422V64.6078C100.761 64.9883 100.923 65.3485 101.2 65.6094C101.478 65.8703 101.847 66.011 102.227 66.0003C102.638 66 103.031 65.8339 103.317 65.5395C102.869 65.05 102.601 64.423 102.556 63.7609C102.535 63.4937 102.659 63.2359 102.88 63.0845C103.101 62.9331 103.386 62.9113 103.628 63.027C103.869 63.1428 104.031 63.3788 104.051 63.646C104.07 64.0182 104.236 64.3674 104.514 64.6158C105.02 64.5635 105.49 64.3291 105.836 63.9564C106.182 63.5836 106.382 63.098 106.397 62.5894C106.396 62.5025 106.389 62.4156 106.377 62.3295C106.076 62.2139 105.755 62.1611 105.433 62.1745C105.167 62.2067 104.904 62.0945 104.743 61.8803C104.582 61.6661 104.548 61.3822 104.653 61.1358C104.758 60.8894 104.987 60.7177 105.253 60.6855C105.807 60.6416 106.364 60.7202 106.884 60.916C107.257 60.5518 107.476 60.0586 107.497 59.5377C107.518 59.0166 107.339 58.5075 106.996 58.1147C106.517 58.3647 105.986 58.4999 105.445 58.5096C105.357 58.5096 105.268 58.5056 105.178 58.4971C104.911 58.4717 104.678 58.306 104.567 58.0622C104.455 57.8185 104.482 57.5338 104.638 57.3155C104.793 57.0972 105.053 56.9783 105.32 57.0036C105.694 57.0199 106.064 56.9291 106.388 56.7419H106.388C106.389 56.7348 106.389 56.7276 106.39 56.7204L106.392 56.7054L106.392 56.7054C106.394 56.6905 106.397 56.6755 106.397 56.6608C106.38 56.1402 106.172 55.6439 105.81 55.2684C105.449 54.893 104.961 54.665 104.442 54.6286C104.283 54.7166 104.151 54.8455 104.059 55.0019C103.968 55.1581 103.92 55.3363 103.92 55.5175C103.911 55.7105 103.829 55.8927 103.69 56.0263C103.55 56.1599 103.365 56.2346 103.171 56.2347V56.2349ZM96.9806 60.0245C96.8027 60.0711 96.6478 60.1814 96.5459 60.3347C96.4439 60.4878 96.4019 60.6733 96.4277 60.8555C96.2022 60.9894 96.0631 61.2314 96.0608 61.4937C96.0584 61.7559 96.1934 62.0005 96.4164 62.1383C96.6395 62.2762 96.9184 62.2876 97.1521 62.1683C97.4417 62.0264 97.6738 61.7891 97.8093 61.4964C97.9447 61.2036 97.9752 60.8731 97.8958 60.5605C97.846 60.3678 97.7213 60.203 97.5496 60.1023C97.3778 60.0017 97.1731 59.9737 96.9806 60.0245ZM103.187 60.8995C103.182 60.8714 103.167 60.8459 103.145 60.8273L103.145 60.8273C103.323 60.9176 103.457 61.0748 103.519 61.2643C103.582 61.4539 103.566 61.6603 103.476 61.8384C103.387 62.0159 103.231 62.1506 103.042 62.2125C102.854 62.2743 102.648 62.2584 102.471 62.1681C102.182 62.0262 101.95 61.7889 101.814 61.4962C101.679 61.2034 101.648 60.873 101.728 60.5603L103.179 60.9397C103.184 60.9269 103.186 60.9133 103.187 60.8995ZM102.053 57.8553C101.828 57.9892 101.688 58.2312 101.686 58.4936C101.684 58.7558 101.819 59.0003 102.042 59.1381C102.265 59.2761 102.544 59.2875 102.777 59.1681C103.067 59.0262 103.299 58.7889 103.435 58.4962C103.57 58.2034 103.6 57.873 103.521 57.5603C103.456 57.3109 103.267 57.1127 103.022 57.035C102.776 56.9573 102.508 57.0112 102.311 57.1778C102.114 57.3444 102.017 57.6002 102.053 57.8553ZM97.4171 59.2124C97.2285 59.2743 97.0229 59.2584 96.846 59.1681L96.8461 59.168C96.5564 59.0261 96.3243 58.7888 96.1889 58.4961C96.0534 58.2033 96.0229 57.8729 96.1023 57.5602L97.5532 57.9396C97.5582 57.9268 97.5612 57.9132 97.562 57.8994C97.5563 57.8713 97.5413 57.8459 97.5195 57.8273C97.6973 57.9176 97.8318 58.0748 97.894 58.2643C97.9562 58.4538 97.9406 58.6603 97.8509 58.8384C97.762 59.0159 97.6059 59.1506 97.4171 59.2124Z" fill="#AEAEAE"/>
</svg>
