<svg xmlns="http://www.w3.org/2000/svg" width="496" height="251" viewBox="0 0 496 251">
    <g fill="none" fill-rule="evenodd">
        <path fill="#DDE3E9" d="M374.296 196.392c4.895 33.137-113.819 54.751-215.999 39.667C56.117 220.975 9.243 162.07 58.001 130.684c48.758-31.387 311.4 32.57 316.295 65.708z" opacity=".6"/>
        <path fill="#DDE3E9" d="M5.041 125.67c9.47 15.885 20.498 31.267 27.12 48.635-.266-2.047-.55-4.092-.866-6.134-1.68-10.826-3.77-21.572-5.964-32.306a962.931 962.931 0 0 0-3.512-16.354c-.652-2.925-1.296-5.85-1.962-8.772-.16-.709-.3-1.945-.501-3.197 6.436 21.121 12.643 42.258 17.183 63.887a141.596 141.596 0 0 1 1.519 8.5c.142-.645.281-1.29.434-1.934 1.837-7.714 4.593-15.367 7.874-22.58 1.569-3.449 3.37-6.823 5.492-9.967 1.322-1.96 4.442-4.289 5.649-6.296-6.6 12.105-8.983 27.25-12.793 40.409-.93 3.211-1.866 6.417-2.783 9.63 5.746-11.525 14.662-20.994 27.058-25.097-15.005 9.914-24.005 27.277-30.07 45.034-.02.21-.044.421-.064.632 1.784-3.387 4.032-6.45 7.08-8.596 6.52-4.594 13.754-3.255 20.08.685-4.965-3.156-13.937-.282-18.114 2.925-2.99 2.296-5.546 5.377-7.766 8.382-.531.72-1.257 1.56-2.023 2.457a110.791 110.791 0 0 1-5.305 20.776c.409-1.973.113-5.127.226-6.598.013-.159.023-.318.035-.477a444.986 444.986 0 0 0-1.092 4.456c.697-2.793 1.076-5.709 1.372-8.654.076-1.266.15-2.532.229-3.798a123.081 123.081 0 0 0-.292-7.23c-.593-2.348-1.257-4.563-1.805-6.405-1.978-6.646-4.877-13.012-8.444-18.952-3.256-5.42-7.152-10.33-11.65-14.77-2.425-2.393-4.963-4.672-7.465-6.982-.905-.836-2.522-2.89-3.921-3.96 10.186 5.616 20.67 11.691 28.102 20.74a225.52 225.52 0 0 0-2.819-9.876c-5.078-16.398-11.49-33.393-20.242-48.213z"/>
        <path fill="#C5CFD6" d="M15.218 215.59c0 18.211 1.442 32.974 20.798 32.974 19.356 0 20.799-14.763 20.799-32.973"/>
        <g transform="translate(24.932)">
            <circle cx="26.885" cy="26.885" r="26.885" fill="#F2F2F2"/>
            <circle cx="26.885" cy="5.58" r="1.522" fill="#000" fill-opacity=".1"/>
            <circle cx="5.58" cy="26.885" r="1.522" fill="#000" fill-opacity=".1"/>
            <circle cx="48.191" cy="26.885" r="1.522" fill="#000" fill-opacity=".1"/>
            <circle cx="26.885" cy="48.191" r="1.522" fill="#000" fill-opacity=".1"/>
            <path fill="#AFB9C5" d="M26.885 8.624L27.9 26.378h-2.03zM35.863 35.863l-9.326-7.89 1.435-1.436z"/>
            <circle cx="26.885" cy="27.9" r="2.029" fill="#C5CFD6"/>
        </g>
        <g fill-rule="nonzero">
            <path fill="#B3B3B3" d="M491.622 249.653c-1.683 0-3.043-1.394-3.043-3.112v-62.257c0-1.718 1.36-3.112 3.043-3.112 1.684 0 3.044 1.394 3.044 3.112v62.257c0 1.718-1.36 3.112-3.044 3.112zM416.546 249.653c-1.683 0-3.044-1.394-3.044-3.112v-62.257c0-1.718 1.36-3.112 3.044-3.112 1.683 0 3.044 1.394 3.044 3.112v62.257c0 1.718-1.36 3.112-3.044 3.112zM309.512 249.653c-1.684 0-3.044-1.401-3.044-3.128V140.167c0-1.727 1.36-3.128 3.044-3.128 1.683 0 3.043 1.401 3.043 3.128v106.358c0 1.727-1.36 3.128-3.043 3.128z"/>
            <path fill="#A67C52" d="M413.503 149.72h81.164v37.539h-81.164z"/>
            <path fill="#E6E6E6" d="M460.594 171.533h-12.512c-1.73 0-3.129-1.363-3.129-3.043 0-1.68 1.399-3.044 3.129-3.044h12.512c1.73 0 3.128 1.364 3.128 3.044s-1.398 3.043-3.128 3.043z"/>
            <path fill="#5E4027" d="M413.503 143.633h81.164v6.087h-81.164z"/>
            <path fill="#87613E" d="M494.666 144.573H306.468v-9.512c0-1.75 1.398-3.17 3.12-3.17h181.957c1.723 0 3.121 1.42 3.121 3.17v9.512z"/>
        </g>
        <g transform="translate(457.128 89.242)">
            <circle cx="18.205" cy="17.379" r="15.03" fill="#BADEFC"/>
            <path fill="#72C472" fill-rule="nonzero" d="M26.11 7.715c-.81.931.296 3.157 0 4.526-.393 1.824-1.892 2.716-.946 3.62.501.48 1.907 1.889 7.718 3.415.487-4.285-.98-8.736-4.406-12.014a15.273 15.273 0 0 0-.751-.667c-.481.2-1.09.518-1.614 1.12zM6.005 18.627c1.39-.36 3.189-1.312 3.643-3.73.302-1.61.072-3.805.91-4.664 1.115-1.141 4.231 1.213 6.376.933 1.896-.249 2.889-3.112 3.163-4.225.28-1.133.212-3.02.078-4.217A14.582 14.582 0 0 0 7.37 6.969c-3.144 3.22-4.572 7.538-4.293 11.759.967.08 2.37.043 2.927-.101z"/>
            <path fill="#BADEFC" fill-rule="nonzero" d="M32.973 19.555c-5.678-1.562-7.052-3.004-7.541-3.494-.925-.927.54-1.839.924-3.706.289-1.401-.793-3.679 0-4.632.512-.616 1.108-.942 1.577-1.146A14.935 14.935 0 0 0 20.4 3.044c.136 1.189.205 3.063-.079 4.188-.278 1.106-1.286 3.95-3.21 4.197-2.178.279-5.341-2.06-6.473-.927-.851.853-.618 3.035-.925 4.632-.46 2.402-2.286 3.349-3.698 3.706-.564.143-1.99.18-2.971.1a15.012 15.012 0 0 0 4.358 9.627c5.863 5.874 15.403 5.874 21.266 0a15.003 15.003 0 0 0 4.305-9.012zm-20.486 5.77c-.462-2.316 2.389-1.93 4.726-6.561.977-1.938 4.222-1.328 6.01.463 1.787 1.79 1.973 4.466.462 6.021-2.812 2.895-10.632 2.91-11.198.077z"/>
            <path fill="#72C472" fill-rule="nonzero" d="M22.88 19.374c-1.774-1.75-4.995-2.345-5.966-.452-2.32 4.524-5.149 4.147-4.69 6.41.561 2.767 8.323 2.753 11.115-.075 1.5-1.52 1.315-4.133-.459-5.883z"/>
            <path fill="#A67C52" fill-rule="nonzero" d="M37.538 17.802c0-4.966-1.861-9.65-5.13-13.228L35.387 1.6A.939.939 0 0 0 34.059.275l-2.984 2.98a19.931 19.931 0 0 0-2.495-1.932.938.938 0 0 0-1.025 1.57c5.076 3.306 8.106 8.88 8.106 14.91 0 9.815-7.998 17.816-17.83 17.816a17.837 17.837 0 0 1-12.575-5.206c-.008-.008-.01-.019-.018-.026-.007-.007-.016-.01-.023-.016a17.956 17.956 0 0 1-2.065-2.477.94.94 0 0 0-1.545 1.064 19.755 19.755 0 0 0 1.658 2.076L.275 34.02a.936.936 0 0 0 .663 1.6c.24 0 .48-.092.664-.275l2.99-2.985a19.706 19.706 0 0 0 12.3 5.076v3.808h-6.569a.938.938 0 1 0 0 1.875h15.015a.938.938 0 1 0 0-1.875H18.77v-3.812c10.43-.494 18.77-9.096 18.77-19.629z"/>
        </g>
        <g transform="translate(185.737 1.522)">
            <rect width="169.936" height="175.516" fill="#F2F2F2" rx="4.058"/>
            <rect width="35.509" height="41.089" x="126.311" y="21.813" fill="#FFF" rx="4.058"/>
            <g fill="#DDE3E9" transform="translate(131.384 29.422)">
                <circle cx="12.682" cy="8.116" r="8.116"/>
                <rect width="25.364" height="3.044" y="18.262" rx="1.522"/>
                <rect width="17.247" height="3.044" x="4.058" y="23.335" rx="1.522"/>
            </g>
            <path fill="#C5CFD6" d="M4.058 0h161.82a4.058 4.058 0 0 1 4.058 4.058v9.638H0V4.058A4.058 4.058 0 0 1 4.058 0z"/>
            <g fill="#F2F2F2" transform="translate(4.565 5.073)">
                <circle cx="2.029" cy="2.029" r="2.029"/>
                <circle cx="8.116" cy="2.029" r="2.029"/>
                <circle cx="14.204" cy="2.029" r="2.029"/>
            </g>
            <g transform="translate(126.31 66.96)">
                <rect width="35.509" height="98.411" fill="#FFF" rx="4.058"/>
                <g transform="translate(9.13 9.13)">
                    <rect width="17.247" height="13.189" fill="#DDE3E9" rx="2.029"/>
                    <rect width="17.247" height="12.682" y="17.247" fill="#AFB9C5" rx="2.029"/>
                    <rect width="17.247" height="12.682" y="33.987" fill="#DDE3E9" rx="2.029"/>
                    <rect width="17.247" height="12.682" y="67.467" fill="#DDE3E9" rx="2.029"/>
                    <rect width="17.247" height="12.682" y="50.727" fill="#C5CFD6" rx="2.029"/>
                </g>
            </g>
            <g transform="translate(8.116 22.32)">
                <rect width="114.136" height="23.842" fill="#FFF" rx="2.029"/>
                <g fill="#DDE3E9" transform="translate(4.565 7.153)">
                    <rect width="84.715" height="3.576" rx="1.522"/>
                    <rect width="56.863" height="3.576" y="5.96" rx="1.522"/>
                </g>
                <g transform="translate(98.388 8.37)">
                    <circle cx="3.551" cy="3.551" r="3.551" fill="#DDE3E9"/>
                    <circle cx="3.551" cy="3.551" r="1.522" fill="#F2F2F2"/>
                </g>
            </g>
            <g transform="translate(8.116 50.22)">
                <rect width="114.136" height="19.784" fill="#FFF" rx="2.029"/>
                <g fill="#DDE3E9" transform="translate(4.565 5.935)">
                    <rect width="84.715" height="2.968" rx="1.484"/>
                    <rect width="56.863" height="2.968" y="4.946" rx="1.484"/>
                </g>
                <g transform="translate(98.388 6.34)">
                    <circle cx="3.551" cy="3.551" r="3.551" fill="#DDE3E9"/>
                    <circle cx="3.551" cy="3.551" r="1.522" fill="#F2F2F2"/>
                </g>
            </g>
            <g transform="translate(8.116 74.062)">
                <rect width="114.136" height="19.784" fill="#FFF" rx="2.029"/>
                <g fill="#DDE3E9" transform="translate(4.565 5.935)">
                    <rect width="84.715" height="2.968" rx="1.484"/>
                    <rect width="56.863" height="2.968" y="4.946" rx="1.484"/>
                </g>
                <g transform="translate(98.388 6.34)">
                    <circle cx="3.551" cy="3.551" r="3.551" fill="#DDE3E9"/>
                    <circle cx="3.551" cy="3.551" r="1.522" fill="#AFB9C5"/>
                </g>
            </g>
            <g transform="translate(8.116 145.587)">
                <rect width="114.136" height="19.784" fill="#FFF" rx="2.029"/>
                <g fill="#DDE3E9" transform="translate(4.565 5.935)">
                    <rect width="84.715" height="2.968" rx="1.484"/>
                    <rect width="56.863" height="2.968" y="4.946" rx="1.484"/>
                </g>
                <g transform="translate(98.388 6.34)">
                    <circle cx="3.551" cy="3.551" r="3.551" fill="#DDE3E9"/>
                    <circle cx="3.551" cy="3.551" r="1.522" fill="#F2F2F2"/>
                </g>
            </g>
            <g transform="translate(8.116 121.745)">
                <rect width="114.136" height="19.784" fill="#FFF" rx="2.029"/>
                <g fill="#DDE3E9" transform="translate(4.565 5.935)">
                    <rect width="84.715" height="2.968" rx="1.484"/>
                    <rect width="56.863" height="2.968" y="4.946" rx="1.484"/>
                </g>
                <g transform="translate(98.388 6.34)">
                    <circle cx="3.551" cy="3.551" r="3.551" fill="#DDE3E9"/>
                    <circle cx="3.551" cy="3.551" r="1.522" fill="#F2F2F2"/>
                </g>
            </g>
            <g transform="translate(8.116 97.904)">
                <rect width="114.136" height="19.784" fill="#FFF" rx="2.029"/>
                <g fill="#DDE3E9" transform="translate(4.565 5.935)">
                    <rect width="84.715" height="2.968" rx="1.484"/>
                    <rect width="56.863" height="2.968" y="4.946" rx="1.484"/>
                </g>
                <g transform="translate(98.388 6.34)">
                    <circle cx="3.551" cy="3.551" r="3.551" fill="#DDE3E9"/>
                    <circle cx="3.551" cy="3.551" r="1.522" fill="#F2F2F2"/>
                </g>
            </g>
        </g>
        <path fill="#915B3C" d="M173.757 48.071c1.482 6.313-2.62 20.22-6.712 20.18-1.632-.015-4.625-1.85-7.4-4.73l-1.86 15.25-12.264-3.286 9.495-18.548c-1.614-3.395-2.3-7.21-1.017-10.933 3.698-10.73 18.276-4.245 19.758 2.067z"/>
        <path fill="#191847" d="M172.864 36.805a5.29 5.29 0 0 1-2.46 10.287c-1.668.062-3.74-.119-5.975-.56-.003.858-.131 1.8-.407 2.83a16.047 16.047 0 0 1-1.049 2.774c-.324-.694-.862-1.234-1.508-1.407-1.808-.484-3.464.666-3.888 2.245-.537 2.004.232 3.764 1.89 4.332-2.303 2.51-4.996 4.146-7.097 3.583-3.991-1.07-5.4-7.166-3.862-12.904.054-.2.111-.4.172-.595-4.998 1.764-9.782 6.603-15.369 5.106-7.6-2.036-6.51-18.175 4.108-15.33 7.223 1.935 10.493 3.94 13.137 6.318 1.052-1.53 2.345-2.71 3.728-3.41l.03-.014c.356-.235.857-.417 1.475-.544a5.795 5.795 0 0 1 1.105-.158c2.027-.184 4.832.053 7.85.75.563.13 1.112.271 1.645.422a5.29 5.29 0 0 1 6.475-3.725z"/>
        <path fill="#784931" d="M135.766 122.253l19.379 66.778 9.115 50.138h9.148l-9.132-116.916z"/>
        <path fill="#915B3C" d="M127.057 122.253c1.352 34.69.819 53.612.516 56.764-.303 3.152-2.02 24.26-13.728 61.21h9.515c15.505-35.447 20.917-56.556 22.696-61.21 1.778-4.655 7.03-23.576 14.698-56.764h-33.697z"/>
        <path fill="#69A1AC" d="M135.35 122.253c5.04 22.978 13.759 59.658 26.155 110.038h13.38c.989-51.71-3.215-85.745-10.496-110.038h-29.04z"/>
        <path fill="#89C5CC" d="M126.99 122.253c1.323 34.69-2.109 68.868-12.74 110.579h14.277c15.533-34.918 26.667-68.927 34.275-110.58H126.99z"/>
        <path fill="#191847" d="M112.69 247.34l.525-8.465c3.074.9 6.924.546 11.55-1.058 4.975 3.524 11.237 5.93 18.787 7.218a1.058 1.058 0 0 1 .84 1.332l-.726 2.56H113.74l-1.05-1.587zM162.402 247.34l.525-8.465c3.074.9 6.925.546 11.551-1.058 4.974 3.524 11.237 5.93 18.787 7.218a1.058 1.058 0 0 1 .84 1.332l-.726 2.56h-29.927l-1.05-1.587z"/>
        <g>
            <path fill="#915B3C" d="M180.983 108.761l14.467 15.134c4.293 2.011 7.792 4.188 10.497 6.532.6.777 1.23 2.247-1.692 1.497-2.923-.75-6.03-1.408-6.617-.47-.587.939.992 2.464-.074 3.681-.711.812-2.912-1.926-6.602-8.214l-15.254-9.726 5.275-8.434zm40.388-39.155l-.428.344c-2.21 1.788-4.301 3.687-3.93 4.658.397 1.034 2.565.69 2.896 2.275.22 1.056-3.29 1.166-10.534.329l-16.947 6.329-3.561-9.289 20.793-2.446c4.19-2.218 8.034-3.702 11.534-4.452.98-.011 2.535.37.177 2.252z"/>
            <path fill="#2026A2" d="M160.965 71.345c6.074 18.47 16.88 33.714 33.481 50.506l-8.612 6.833c-19.795-11.607-30.137-18.328-32.817-35.24-.672-4.244.614-17.17.971-24.027l6.977 1.928z"/>
            <path fill="#F2F2F2" d="M125.751 123.106l40.117 7.074c-4.2-29.317-5.489-49.157-3.864-59.52.082-.528-.726-1.627-1.178-1.582-3.303.334-6.611-.592-9.925-2.778-12.207 13.62-18.817 31.871-25.15 56.806z"/>
            <path fill="#1F28CF" d="M206.824 71.326l.252 10.99c-18.106 7.591-36.002 12.79-50.228 9.094 1.528 27.98-2.64 49.932-16.473 47.493l-21.39-3.772c.628-23.43 15.139-53.512 26.232-68.02.423-.553 1.299-1.584 2.884-1.304l6.215 1.096.004.026c11.482 2.121 29.769 7.511 52.504 4.397z"/>
        </g>
        <g transform="translate(214.727 42.686)">
            <path fill="#C5CFD6" d="M25.292 27.31l-.007.017c.003-.005.007-.026.007-.016"/>
            <path fill="#C5CFD6" d="M25.287 27.318v.005c0-.005.008-.02 0-.005M25.323 27.233l-.025.06.012-.029a5.58 5.58 0 0 1 .013-.031"/>
            <path fill="#C5CFD6" d="M25.3 27.294l-.012.028c-.03.057.012-.028.012-.028M25.288 27.318zM25.288 27.319l.001-.002-.001.002M25.283 27.326c-.006.012.029-.047 0 0"/>
            <path fill="#C5CFD6" d="M25.287 27.319l.002-.002s0 .002-.002.002"/>
            <rect width="50.727" height="31.939" x=".395" y=".526" fill="#DDE3E9" rx="2.029"/>
            <rect width="24.424" height="3.758" x="4.152" y="6.162" fill="#FFF" rx="1.522"/>
            <rect width="32.879" height="3.758" x="4.152" y="21.193" fill="#AFB9C5" rx="1.522"/>
            <rect width="38.515" height="3.758" x="4.152" y="13.678" fill="#AFB9C5" rx="1.522"/>
        </g>
        <g fill-rule="nonzero">
            <path fill="#A67C52" d="M437.4 118.195a.458.458 0 0 1-.45-.465c0-1.6-1.082-3.663-2.835-4.205a.468.468 0 0 1-.303-.579.449.449 0 0 1 .562-.312c2.148.665 3.478 3.163 3.478 5.096a.458.458 0 0 1-.451.465z"/>
            <path fill="#E86C60" d="M439.869 132.398a9.232 9.232 0 0 1-1.43-.14 5.935 5.935 0 0 0-.843-.093 5.935 5.935 0 0 0-.842.094c-1.56.24-3.917.601-6.18-3.064-2.762-4.48-2.183-9.647.068-11.484 1.7-1.386 3.541-1.075 5.167-.803.59.118 1.188.187 1.79.208.6-.02 1.199-.09 1.789-.208 1.626-.273 3.466-.584 5.166.803 2.25 1.835 2.83 7.003.064 11.485-1.648 2.67-3.345 3.202-4.75 3.202z"/>
            <path fill="#72C472" d="M441.91 111.6v.902c0 1.743-1.363 3.156-3.044 3.156v-.902c0-1.743 1.363-3.156 3.044-3.156z"/>
        </g>
    </g>
</svg>
