<svg xmlns="http://www.w3.org/2000/svg" width="97" height="96" viewBox="0 0 97 96">
    <g fill="none" fill-rule="evenodd">
        <path d="M0 0H96V96H0z" transform="translate(1)"/>
        <g fill-rule="nonzero">
            <path fill="#737373" d="M78 92H2a2 2 0 01-2-2V6a2 2 0 012-2h76a2 2 0 012 2v84a2 2 0 01-2 2z" transform="translate(1) translate(8 2)"/>
            <path fill="#E6E6E6" d="M70 84H10a2 2 0 01-2-2V14a2 2 0 012-2h60a2 2 0 012 2v68a2 2 0 01-2 2z" transform="translate(1) translate(8 2)"/>
            <path fill="#B3B3B3" d="M56 20h-8a2 2 0 01-2-2c0-3.308-2.692-6-6-6s-6 2.692-6 6a2 2 0 01-2 2h-8a2 2 0 01-2-2V2a2 2 0 012-2h32a2 2 0 012 2v16a2 2 0 01-2 2zM58 34H22a2 2 0 110-4h36a2 2 0 110 4zM58 50H22a2 2 0 110-4h36a2 2 0 110 4zM58 66H22a2 2 0 110-4h36a2 2 0 110 4z" transform="translate(1) translate(8 2)"/>
        </g>
    </g>
</svg>
