<svg xmlns="http://www.w3.org/2000/svg" width="96" height="96" viewBox="0 0 96 96">
    <g fill="none" fill-rule="evenodd">
        <path d="M0 0H96V96H0z"/>
        <g fill-rule="nonzero">
            <path fill="#E6E6E6" d="M74 92H2c-1.106 0-2-.894-2-2V2C0 .894.894 0 2 0h72c1.106 0 2 .894 2 2v88c0 1.106-.894 2-2 2z" transform="translate(2 2)"/>
            <path fill="#B3B3B3" d="M42.01 28H18c-1.106 0-2-.894-2-2 0-1.106.894-2 2-2h24.01c1.106 0 2 .894 2 2 0 1.106-.894 2-2 2zM39.666 48H18c-1.106 0-2-.894-2-2 0-1.106.894-2 2-2h21.666c1.106 0 2 .894 2 2 0 1.106-.894 2-2 2zM58 68H18c-1.106 0-2-.894-2-2 0-1.106.894-2 2-2h40c1.106 0 2 .894 2 2 0 1.106-.894 2-2 2zM90 68c-.512 0-1.024-.196-1.414-.586l-16-16c-.782-.782-.782-2.046 0-2.828s2.046-.782 2.828 0l16 16c.782.782.782 2.046 0 2.828-.39.39-.902.586-1.414.586z" transform="translate(2 2)"/>
            <path fill="#737373" d="M58 60c-12.13 0-22-9.87-22-22s9.87-22 22-22 22 9.87 22 22-9.87 22-22 22z" transform="translate(2 2)"/>
            <path fill="#C5C5C5" d="M58 20c-9.264 0-16.886 7.002-17.882 16H54c2.208 0 4 1.792 4 4s-1.792 4-4 4H41.046C43.52 50.986 50.166 56 58 56c9.942 0 18-8.058 18-18s-8.058-18-18-18z" transform="translate(2 2)"/>
            <path fill="#919191" d="M58 40c0-2.208-1.792-4-4-4H40.118c-.074.658-.118 1.324-.118 2 0 2.108.38 4.12 1.046 6H54c2.208 0 4-1.792 4-4z" transform="translate(2 2)"/>
        </g>
    </g>
</svg>
