<?xml version="1.0" encoding="UTF-8"?>
<svg width="175px" height="111px" viewBox="0 0 175 111" version="1.1" xmlns="http://www.w3.org/2000/svg" xmlns:xlink="http://www.w3.org/1999/xlink">
    <!-- Generator: Sketch 47.1 (45422) - http://www.bohemiancoding.com/sketch -->
    <title>Group 9</title>
    <desc>Created with Sketch.</desc>
    <defs>
        <rect id="path-1" x="115" y="100" width="1" height="1"></rect>
        <rect id="path-2" x="107" y="94" width="1" height="1"></rect>
        <rect id="path-3" x="106" y="106" width="1" height="1"></rect>
        <rect id="path-4" x="70" y="15" width="57" height="35"></rect>
        <rect id="path-5" x="65" y="10" width="57" height="35"></rect>
        <rect id="path-6" x="22.3994054" y="-4.82746831" width="8.21394626" height="75.4172618" rx="1"></rect>
    </defs>
    <g id="Customize-Slides" stroke="none" stroke-width="1" fill="none" fill-rule="evenodd">
        <g id="E-12_05-Name-Edition" transform="translate(-567.000000, -194.000000)">
            <g id="Group-9" transform="translate(568.000000, 195.000000)">
                <circle id="Oval" fill="#3ADFBB" cx="84.5" cy="88.5" r="3.5"></circle>
                <g id="Group-2">
                    <g id="Group-22">
                        <g id="Group">
                            <g id="Rectangle-2-Copy">
                                <use fill="#D8D8D8" fill-rule="evenodd" xlink:href="#path-1"></use>
                                <rect stroke="#E9E9E9" stroke-width="1" x="115.5" y="100.5" width="1" height="1"></rect>
                            </g>
                            <path d="M109.333333,100.5 L112.666667,100.5" id="Line-Copy" stroke="#E9E9E9" stroke-linecap="square"></path>
                            <g id="Rectangle-2-Copy">
                                <use fill="#D8D8D8" fill-rule="evenodd" xlink:href="#path-2"></use>
                                <rect stroke="#E9E9E9" stroke-width="1" x="107.5" y="94.5" width="1" height="1"></rect>
                            </g>
                            <path d="M101.333333,94.5 L104.666667,94.5" id="Line-Copy" stroke="#E9E9E9" stroke-linecap="square"></path>
                            <rect id="Rectangle" stroke="#E9E9E9" x="97.5" y="91.5" width="14" height="6"></rect>
                            <g id="Rectangle-2">
                                <use fill="#D8D8D8" fill-rule="evenodd" xlink:href="#path-3"></use>
                                <rect stroke="#E9E9E9" stroke-width="1" x="106.5" y="106.5" width="1" height="1"></rect>
                            </g>
                            <path d="M100.333333,106.5 L103.666667,106.5" id="Line" stroke="#E9E9E9" stroke-linecap="square"></path>
                            <rect id="Rectangle" stroke="#E9E9E9" x="97.5" y="103.5" width="14" height="6"></rect>
                            <rect id="Rectangle" stroke="#E9E9E9" x="105.5" y="97.5" width="14" height="6"></rect>
                            <rect id="Rectangle-55-Copy" stroke="#E9E9E9" transform="translate(159.191441, 22.191441) rotate(-45.000000) translate(-159.191441, -22.191441) " x="154.606324" y="17.6063244" width="9.17023368" height="9.17023368"></rect>
                            <circle id="Oval-2" stroke="#E9E9E9" cx="61.5" cy="5.5" r="5.5"></circle>
                            <circle id="Oval-2-Copy" stroke="#E9E9E9" cx="5.5" cy="59.5" r="5.5"></circle>
                            <polygon id="Path-14" stroke="#E9E9E9" points="24 100.769028 29.4357406 91 35 101"></polygon>
                            <polygon id="Path-14" stroke="#E9E9E9" points="146 94.7690279 151.435741 85 157 95"></polygon>
                            <rect id="Rectangle-55" stroke="#E9E9E9" x="160.5" y="54.5" width="13" height="13"></rect>
                            <path d="M0,20.9782223 L0.91968614,16.2016182 L12.6397884,4.69983645 C13.0336339,4.31332745 13.6749483,4.30387269 14.0797287,4.68581857 L16.910665,7.35705607 C17.3120766,7.7358232 17.320719,8.36467853 16.9401517,8.75129844 L5.32353548,20.5526677 L0,20.9782223 Z" id="Path-5" stroke="#E9E9E9"></path>
                            <path d="M11.2068342,6.45088363 L14.9587834,10.2956008" id="Path-7" stroke="#E9E9E9"></path>
                            <path d="M9.61799856,8.0405607 L13.5031045,12.0352633" id="Path-10" stroke="#E9E9E9"></path>
                            <path d="M1.23711669,16.4555206 L5.13842025,20.4979745" id="Path-11" stroke="#E9E9E9"></path>
                            <path d="M3.1911342,18.2496659 L11.5974694,9.89066125" id="Path-12" stroke="#E9E9E9"></path>
                        </g>
                    </g>
                    <g id="Group-23" transform="translate(0.000000, 4.000000)"></g>
                </g>
                <g id="Rectangle-46-Copy">
                    <use fill="#FFFFFF" fill-rule="evenodd" xlink:href="#path-4"></use>
                    <rect stroke-opacity="0.333701313" stroke="#3ADFBB" stroke-width="2" x="71" y="16" width="55" height="33"></rect>
                </g>
                <g id="Rectangle-46">
                    <use fill="#FFFFFF" fill-rule="evenodd" xlink:href="#path-5"></use>
                    <rect stroke="#3ADFBB" stroke-width="2" x="66" y="11" width="55" height="33"></rect>
                </g>
                <g id="Group-3" transform="translate(63.265025, 68.768160) rotate(4.000000) translate(-63.265025, -68.768160) translate(36.765025, 35.768160)">
                    <g id="Rectangle-3" transform="translate(26.506378, 32.881163) rotate(37.000000) translate(-26.506378, -32.881163) ">
                        <use fill="#FFFFFF" fill-rule="evenodd" xlink:href="#path-6"></use>
                        <rect stroke="#00C2A2" stroke-width="2" x="23.3994054" y="-3.82746831" width="6.21394626" height="73.4172618" rx="1"></rect>
                    </g>
                    <path d="M34.1151525,18.5196542 L38.5013864,21.9311695" id="Line-2" stroke="#00C2A2" stroke-width="2" stroke-linecap="square"></path>
                </g>
                <polygon id="Star" fill="#00C2A2" transform="translate(120.366016, 60.299556) rotate(-28.000000) translate(-120.366016, -60.299556) " points="120.366016 62.355851 118.336332 63.4229191 118.723967 61.1628325 117.081918 59.5622303 119.351174 59.2324882 120.366016 57.1761935 121.380859 59.2324882 123.650114 59.5622303 122.008065 61.1628325 122.395701 63.4229191"></polygon>
                <polygon id="Star-Copy-2" fill="#A8E067" transform="translate(99.829315, 35.249637) rotate(6.000000) translate(-99.829315, -35.249637) " points="99.8293152 40.1518596 94.9905323 42.6957583 95.9146576 37.3076943 92 33.4918463 97.4099238 32.7057383 99.8293152 27.8035158 102.248707 32.7057383 107.65863 33.4918463 103.743973 37.3076943 104.668098 42.6957583"></polygon>
                <polygon id="Star-Copy" fill="#00C2A2" transform="translate(39.748899, 44.691833) rotate(-28.000000) translate(-39.748899, -44.691833) " points="39.7488989 46.457479 38.0061018 47.3737216 38.3389464 45.4330885 36.928994 44.0587245 38.8775004 43.77559 39.7488989 42.0099436 40.6202975 43.77559 42.5688039 44.0587245 41.1588514 45.4330885 41.4916961 47.3737216"></polygon>
                <rect id="Rectangle-4" fill="#A8E067" x="98" y="63" width="5" height="5"></rect>
                <rect id="Rectangle-4-Copy" fill="#A8E067" x="46" y="57" width="6" height="6"></rect>
                <rect id="Rectangle-3-Copy-2" fill="#027360" transform="translate(65.680226, 33.576433) rotate(20.000000) translate(-65.680226, -33.576433) " x="61.9874031" y="31.1145503" width="7.38564666" height="4.92376444"></rect>
            </g>
        </g>
    </g>
</svg>