<?xml version="1.0" encoding="UTF-8"?>
<svg width="215px" height="93px" viewBox="0 0 215 93" version="1.1" xmlns="http://www.w3.org/2000/svg" xmlns:xlink="http://www.w3.org/1999/xlink">
    <!-- Generator: Sketch 43.2 (39069) - http://www.bohemiancoding.com/sketch -->
    <title>Group 10</title>
    <desc>Created with Sketch.</desc>
    <defs></defs>
    <g id="08-Teacher-Dashboard:-Classes-" stroke="none" stroke-width="1" fill="none" fill-rule="evenodd">
        <g id="08_27-QuillLessonsCardEmpty" transform="translate(-384.000000, -615.000000)">
            <g id="Group-10" transform="translate(382.000000, 615.000000)">
                <g id="Group-16">
                    <g id="Group-9">
                        <polyline id="Rectangle-39" fill="#E9E9E9" points="175.916243 55.1511628 178.698845 55.3075966 175.45587 92.5927212 173.956688 92.5084395 172.673267 92.4362874"></polyline>
                        <path d="M176.312596,73.6612806 L206.852759,73.6612806" id="Line" stroke="#E9E9E9" stroke-linecap="square"></path>
                        <polyline id="Rectangle-39-Copy" fill="#E9E9E9" points="203.970297 55.3857991 206.160033 55.1511628 209.995875 92.3580849 208.951227 92.4700218 207.806139 92.5927212"></polyline>
                        <path d="M175.742985,4.33523246 C175.924687,2.69176739 177.400776,1.14406274 179.040516,0.908678295 C179.040516,0.908678295 183.665914,1.24267046e-15 191.51315,0 C199.360385,0 203.790433,0.901114521 203.790433,0.901114521 C205.421749,1.15426041 206.89758,2.68640978 207.088178,4.33523246 L211.433627,41.9268281 C211.623606,43.5702931 210.44704,44.8119616 208.787131,44.7091087 C208.787131,44.7091087 201.598789,44.1512937 191.51315,44.1512937 C181.42751,44.1512937 174.245971,44.7091087 174.245971,44.7091087 C172.595676,44.8159626 171.404555,43.5756508 171.586849,41.9268281 L175.742985,4.33523246 Z" id="Rectangle-41" fill="#E9E9E9"></path>
                        <path d="M179.751073,42.0420028 L179.751073,53.4297579" id="Line" stroke="#E9E9E9" stroke-linecap="square"></path>
                        <path d="M201.335231,42.0420028 L201.335231,53.4297579" id="Line" stroke="#E9E9E9" stroke-linecap="square"></path>
                        <g id="Group-5" transform="translate(162.564686, 53.142857)">
                            <g id="Group-9-Copy" transform="translate(27.233187, 2.000000) scale(-1, 1) translate(-27.233187, -2.000000) translate(0.233187, 0.000000)">
                                <polygon id="Path-17" fill="#E9E9E9" points="-1.63424829e-13 1.76695527 -1.63424829e-13 1.8189894e-12 53.3721356 1.8189894e-12 53.3721356 1.76695527"></polygon>
                                <path d="M-1.63424829e-13,2.1627907 L53.3410911,2.1627907 L53.3410911,3.04626833 C53.3410911,3.53419955 52.9424036,3.92974596 52.4597607,3.92974596 L0.881330399,3.92974596 C0.39458506,3.92974596 -1.63424829e-13,3.53760132 -1.63424829e-13,3.04626833 L-1.63424829e-13,2.1627907 Z" id="Rectangle-40" fill="#C0C0C0"></path>
                            </g>
                        </g>
                        <polyline id="Rectangle-39" fill="#E9E9E9" points="96.0548564 55.1511628 98.8374587 55.3075966 95.5944835 92.5927212 94.0953019 92.5084395 92.8118812 92.4362874"></polyline>
                        <path d="M95.3720022,74.0755814 L125.912165,74.0755814" id="Line" stroke="#E9E9E9" stroke-linecap="square"></path>
                        <polyline id="Rectangle-39-Copy" fill="#E9E9E9" points="123.029703 55.3857991 125.219439 55.1511628 129.055281 92.3580849 128.010633 92.4700218 126.865545 92.5927212"></polyline>
                        <path d="M94.8064094,4.22317112 C94.987067,2.57772278 96.4553162,1.05220182 98.108994,0.838270143 C98.108994,0.838270143 102.958922,1.08671902e-15 110.574597,0 C118.190272,0 122.843297,0.831375852 122.843297,0.831375852 C124.479358,1.05916431 125.959036,2.58003495 126.147657,4.22317112 L130.497048,42.1120253 C130.685934,43.7574736 129.504982,44.9144507 127.861426,44.7150669 C127.861426,44.7150669 120.417023,43.6001196 110.574615,43.6001196 C100.732208,43.6001196 93.2781621,44.7169917 93.2781621,44.7169917 C91.6440794,44.9237568 90.4660994,43.7551615 90.6465032,42.1120253 L94.8064094,4.22317112 Z" id="Rectangle-41" fill="#E9E9E9"></path>
                        <path d="M99.8896865,42.0420028 L99.8896865,53.4297579" id="Line" stroke="#E9E9E9" stroke-linecap="square"></path>
                        <path d="M121.473845,42.0420028 L121.473845,53.4297579" id="Line" stroke="#E9E9E9" stroke-linecap="square"></path>
                        <g id="Group-5" transform="translate(80.616832, 53.142857)">
                            <g id="Group-9-Copy" transform="translate(27.233187, 2.000000) scale(-1, 1) translate(-27.233187, -2.000000) translate(0.233187, 0.000000)">
                                <polygon id="Path-17" fill="#E9E9E9" points="-5.68434189e-14 1.76695527 -5.68434189e-14 1.8189894e-12 53.3721356 1.8189894e-12 53.3721356 1.76695527"></polygon>
                                <path d="M-5.68434189e-14,2.1627907 L53.3410911,2.1627907 L53.3410911,3.04626833 C53.3410911,3.53419955 52.9424036,3.92974596 52.4597607,3.92974596 L0.881330399,3.92974596 C0.39458506,3.92974596 -5.68434189e-14,3.53760132 -5.68434189e-14,3.04626833 L-5.68434189e-14,2.1627907 Z" id="Rectangle-40" fill="#C0C0C0"></path>
                            </g>
                        </g>
                        <g id="Group-2">
                            <polyline id="Rectangle-39-Copy-2" fill="#E9E9E9" points="14.8909461 55.1511628 17.4819342 55.3063316 14.4622752 92.289959 13.0663295 92.2063587 11.8712871 92.1347902"></polyline>
                            <path d="M14.4304635,73.6514235 L44.8988063,73.6514235" id="Line-Copy" stroke="#E9E9E9" stroke-linecap="square"></path>
                            <polyline id="Rectangle-39-Copy-3" fill="#E9E9E9" points="42.0891089 55.3836797 44.1280561 55.1511628 47.699756 92.0220055 46.7270448 92.1329313 45.6608087 92.2545224"></polyline>
                            <path d="M13.9372253,4.20337298 C14.1222044,2.56059233 15.5953967,1.04221878 17.2540243,0.833273706 C17.2540243,0.833273706 22.2221947,1.0868973e-15 29.9918005,0 C37.7614062,0 42.5285894,0.826482237 42.5285894,0.826482237 C44.1683114,1.04870684 45.6537239,2.55523695 45.8477593,4.20337298 L50.2715825,41.7793134 C50.4649874,43.4220941 49.2952013,44.5397943 47.6534409,44.2985843 C47.6534409,44.2985843 40.3020955,42.949747 29.9917852,42.949747 C19.6814749,42.949747 12.3206047,44.300913 12.3206047,44.300913 C10.6916904,44.5510526 9.5205467,43.4274494 9.70612881,41.7793134 L13.9372253,4.20337298 Z" id="Rectangle-41-Copy" fill="#E9E9E9"></path>
                            <rect id="Rectangle-2-Copy" fill="#E9E9E9" x="5.3960396" y="35.6860465" width="1.60304202" height="16.7710914"></rect>
                            <polygon id="Path-17-Copy-2" fill="#C0C0C0" points="3.23762376 36.201898 3.23762376 34.6046512 53.7334473 34.6046512 53.7334473 36.201898"></polygon>
                            <rect id="Rectangle-2-Copy" fill="#E9E9E9" x="85.2574257" y="35.6860465" width="1.60304202" height="16.7710914"></rect>
                            <polygon id="Path-17-Copy-2" fill="#C0C0C0" points="83.0990099 36.201898 83.0990099 34.6046512 133.594833 34.6046512 133.594833 36.201898"></polygon>
                            <rect id="Rectangle-2-Copy" fill="#E9E9E9" x="166.19802" y="35.6860465" width="1.60304202" height="16.7710914"></rect>
                            <polygon id="Path-17-Copy-2" fill="#C0C0C0" points="164.039604 36.201898 164.039604 34.6046512 214.535427 34.6046512 214.535427 36.201898"></polygon>
                            <path d="M18.6921906,42.0957526 L18.6921906,54.1285053" id="Line-Copy-2" stroke="#E9E9E9" stroke-linecap="square"></path>
                            <path d="M41.3555569,42.0957526 L41.3555569,54.1285053" id="Line-Copy-3" stroke="#E9E9E9" stroke-linecap="square"></path>
                            <g id="Group-5-Copy" transform="translate(0.510060, 53.288299)">
                                <g id="Group-9-Copy" transform="translate(27.881916, 1.500000) scale(-1, 1) translate(-27.881916, -1.500000) translate(0.881916, 0.000000)">
                                    <polygon id="Path-17" fill="#E9E9E9" points="-1.1439738e-12 1.5972468 -1.1439738e-12 1.8189894e-12 53.1780397 1.8189894e-12 53.1780397 1.5972468"></polygon>
                                    <path d="M-1.1439738e-12,1.08139535 L53.1471081,1.08139535 L53.1471081,1.88001875 C53.1471081,2.32108628 52.7936704,2.67864215 52.3545692,2.67864215 L0.792538878,2.67864215 C0.354831742,2.67864215 -1.1439738e-12,2.32416132 -1.1439738e-12,1.88001875 L-1.1439738e-12,1.08139535 Z" id="Rectangle-40" fill="#C0C0C0"></path>
                                </g>
                            </g>
                        </g>
                    </g>
                    <path d="M5.39481959,15.6427824 C5.37719183,15.3648465 5.57816449,15.1395349 5.85803592,15.1395349 L26.6173021,15.1395349 C26.8907572,15.1395349 27.1263329,15.3688391 27.1429349,15.6427824 L28.0649829,30.8572176 C28.0818268,31.1351535 27.8806714,31.3604651 27.6013887,31.3604651 L6.8857881,31.3604651 C6.61290821,31.3604651 6.37715201,31.1311609 6.35977747,30.8572176 L5.39481959,15.6427824 Z" id="Rectangle" fill="#C0C0C0"></path>
                    <path d="M87.4146216,15.6427824 C87.3969938,15.3648465 87.5979665,15.1395349 87.8778379,15.1395349 L108.637104,15.1395349 C108.910559,15.1395349 109.146135,15.3688391 109.162737,15.6427824 L110.084785,30.8572176 C110.101629,31.1351535 109.900473,31.3604651 109.621191,31.3604651 L88.9055901,31.3604651 C88.6327102,31.3604651 88.396954,31.1311609 88.3795795,30.8572176 L87.4146216,15.6427824 Z" id="Rectangle-Copy" fill="#C0C0C0"></path>
                    <path d="M165.117592,15.6427824 C165.099964,15.3648465 165.300937,15.1395349 165.580808,15.1395349 L186.340074,15.1395349 C186.613529,15.1395349 186.849105,15.3688391 186.865707,15.6427824 L187.787755,30.8572176 C187.804599,31.1351535 187.603444,31.3604651 187.324161,31.3604651 L166.60856,31.3604651 C166.33568,31.3604651 166.099924,31.1311609 166.08255,30.8572176 L165.117592,15.6427824 Z" id="Rectangle-Copy-2" fill="#C0C0C0"></path>
                    <rect id="Rectangle-3" fill="#969696" x="6.47524752" y="32.4418605" width="25.9009901" height="1.08139535"></rect>
                    <rect id="Rectangle-3-Copy" fill="#969696" x="88.4950495" y="32.4418605" width="25.9009901" height="1.08139535"></rect>
                    <rect id="Rectangle-3-Copy-2" fill="#969696" x="166.19802" y="32.4418605" width="25.9009901" height="1.08139535"></rect>
                    <polyline id="Path-6-Copy" stroke="#FFFFFF" stroke-linecap="round" stroke-linejoin="round" points="11.8712871 23.2517614 14.83823 26.2247179 20.5049505 20.5465116"></polyline>
                    <polyline id="Path-6-Copy-5" stroke="#FFFFFF" stroke-linecap="round" stroke-linejoin="round" points="93.8910891 23.2517614 96.858032 26.2247179 102.524752 20.5465116"></polyline>
                    <polyline id="Path-6-Copy-6" stroke="#FFFFFF" stroke-linecap="round" stroke-linejoin="round" points="171.594059 23.2517614 174.561002 26.2247179 180.227723 20.5465116"></polyline>
                </g>
            </g>
        </g>
    </g>
</svg>