<?xml version="1.0" encoding="UTF-8"?>
<svg width="89px" height="44px" viewBox="0 0 89 44" version="1.1" xmlns="http://www.w3.org/2000/svg" xmlns:xlink="http://www.w3.org/1999/xlink">
    <!-- Generator: Sketch 47.1 (45422) - http://www.bohemiancoding.com/sketch -->
    <title>Group 22</title>
    <desc>Created with Sketch.</desc>
    <defs></defs>
    <g id="10-Teacher-Dashboard:-Acitivity-Planner" stroke="none" stroke-width="1" fill="none" fill-rule="evenodd">
        <g id="10_10-Empty-state-Explore-All-Activities" transform="translate(-617.000000, -498.000000)">
            <g id="Group-22" transform="translate(617.000000, 498.000000)">
                <g id="Group-16" transform="translate(0.000000, 2.000000)">
                    <rect id="Rectangle-21-Copy-2" fill="#E0E0E0" transform="translate(21.000000, 21.000000) rotate(-8.000000) translate(-21.000000, -21.000000) " x="2.47058824" y="2.47058824" width="37.0588235" height="37.0588235" rx="2"></rect>
                    <path d="M26.7753911,21.0917803 C27.4979542,21.0917803 28.1774575,21.3711434 28.6899732,21.8784079 C28.76454,21.9508742 28.866413,21.9876325 28.968286,21.9918335 C29.0733097,21.989733 29.1709817,21.9466733 29.2444983,21.8731567 C29.4125362,21.6998676 29.5732225,21.5790903 29.8200282,21.440459 C29.9429059,21.3711434 30.018523,21.2419642 30.018523,21.099132 L30.018523,16.6072683 C30.018523,15.7103659 29.2907088,14.9815014 28.3917059,14.9815014 L24.1172413,14.9815014 C24.0531768,14.8796284 23.9880621,14.789308 23.9187465,14.7031886 C24.4144583,14.084599 24.6843692,13.3200265 24.6843692,12.5165952 C24.6843692,10.5831088 23.1121644,9.01090403 21.1786781,9.01090403 C19.2451918,9.01090403 17.672987,10.5831088 17.672987,12.5165952 C17.672987,13.3221269 17.9428979,14.0866995 18.4417605,14.7063393 C18.3703443,14.7945592 18.3041794,14.8859299 18.2422154,14.9815014 L13.9656503,14.9815014 C13.0666475,14.9815014 12.337783,15.7103659 12.337783,16.6072683 L12.337783,21.099132 C12.337783,21.2493159 12.4228522,21.378495 12.5457299,21.44466 C12.7473754,21.5591358 12.9353678,21.6998676 13.1034057,21.8637045 C13.2567404,22.0128382 13.5003953,22.011788 13.6516295,21.8605538 C14.1473413,21.364842 14.8331461,21.0917803 15.5819651,21.0917803 C17.0848542,21.0917803 18.3083804,22.3142562 18.3083804,23.8171454 C18.3083804,25.3200345 17.0848542,26.5435606 15.5819651,26.5435606 C14.859402,26.5435606 14.1798987,26.2631474 13.667383,25.7558829 C13.5928162,25.6834165 13.4919934,25.6414071 13.3890702,25.6435075 C13.2840465,25.6445578 13.1863745,25.6876175 13.1128579,25.7611341 C12.94482,25.9344232 12.7841337,26.0573009 12.5362778,26.1938317 C12.4144503,26.2631474 12.337783,26.3933768 12.337783,26.5351587 L12.337783,31.0354243 C12.337783,31.9323267 13.0666475,32.6622415 13.9656503,32.6622415 L28.3917059,32.6622415 C29.2907088,32.6622415 30.018523,31.9323267 30.018523,31.0354243 L30.018523,26.5351587 C30.018523,26.3933768 29.9429059,26.2641976 29.8200282,26.1938317 C29.6414879,26.0940592 29.4723998,25.9732819 29.3201154,25.8336004 C29.2749552,25.7506317 29.1993381,25.6844668 29.105867,25.6519094 C28.964085,25.6035985 28.80865,25.6393066 28.702576,25.7443303 C28.1869097,26.2599967 27.5021551,26.5435606 26.7753911,26.5435606 C25.2714517,26.5435606 24.0489758,25.3200345 24.0489758,23.8171454 C24.0489758,22.3142562 25.2714517,21.0917803 26.7753911,21.0917803" id="Fill-1" fill="#FFFFFF" transform="translate(21.178153, 20.836573) rotate(-8.000000) translate(-21.178153, -20.836573) "></path>
                </g>
                <g id="Group-21" transform="translate(47.000000, 0.000000)">
                    <rect id="Rectangle-21-Copy" fill="#DEDEDE" transform="translate(20.927880, 20.927880) rotate(8.000000) translate(-20.927880, -20.927880) " x="2.39846873" y="2.39846873" width="37.0588235" height="37.0588235" rx="2"></rect>
                    <g id="Group-20" transform="translate(20.713396, 20.754330) rotate(8.000000) translate(-20.713396, -20.754330) translate(8.213396, 8.254330)" fill-rule="nonzero" fill="#FFFFFF">
                        <path d="M20.3411765,11.8588235 C20.02,11.8588235 19.6988235,11.7517647 19.2705882,11.6447059 L17.9858824,11.2164706 L16.9152941,12.2870588 C17.0223529,12.8223529 17.1294118,13.3576471 17.1294118,13.8929412 C17.1294118,17.4258824 14.2388235,20.3164706 10.7058824,20.3164706 C7.17294118,20.3164706 4.28235294,17.4258824 4.28235294,13.8929412 C4.28235294,10.36 7.17294118,7.46941176 10.7058824,7.46941176 C11.2411765,7.46941176 11.8835294,7.57647059 12.3117647,7.68352941 L13.3823529,6.61294118 L12.9541176,5.32823529 C12.8470588,4.79294118 12.8470588,4.15058824 12.9541176,3.50823529 C12.2047059,3.40117647 11.4552941,3.29411765 10.7058824,3.29411765 C4.81764706,3.29411765 0,8.11176471 0,14 C0,19.8882353 4.81764706,24.7058824 10.7058824,24.7058824 C16.5941176,24.7058824 21.4117647,19.8882353 21.4117647,14 C21.4117647,13.2505882 21.3047059,12.5011765 21.1976471,11.7517647 C20.8764706,11.8588235 20.6623529,11.8588235 20.3411765,11.8588235 Z" id="Shape"></path>
                        <path d="M24.6675245,5.14418886 C24.5611757,4.82516939 24.3484782,4.50614993 23.9230832,4.39981011 L22.3278518,3.868111 L23.2849906,2.91105261 C23.7103857,2.48569332 23.7103857,1.8476544 23.2849906,1.42229511 C22.8595956,0.996935825 22.221503,0.996935825 21.796108,1.42229511 L20.8389691,2.3793535 L20.3072253,0.784256182 C20.2008766,0.465236718 19.8818303,0.146217254 19.562784,0.039877433 C19.2437377,-0.0664623883 18.8183427,0.039877433 18.6056452,0.358896897 L15.4151824,3.54909154 C15.0961361,3.868111 14.9897873,4.29347029 15.2024849,4.61248975 L16.0532749,7.16464546 L12.9691609,10.2485003 C12.3310683,9.823141 11.586627,9.61046135 10.8421857,9.61046135 C8.50251298,9.61046135 6.58823529,11.5245781 6.58823529,13.8640542 C6.58823529,16.2035303 8.50251298,18.1176471 10.8421857,18.1176471 C13.1818584,18.1176471 15.0961361,16.2035303 15.0961361,13.8640542 C15.0961361,13.1196755 14.8834386,12.3752967 14.4580435,11.7372578 L17.4358088,8.75974278 L19.9881791,9.61046135 C20.0945278,9.61046135 20.2008766,9.71680117 20.3072253,9.71680117 C20.6262716,9.71680117 20.8389691,9.61046135 21.0516667,9.39778171 L24.2421295,6.20758707 C24.6675245,5.88856761 24.7738733,5.46320832 24.6675245,5.14418886 Z" id="Shape"></path>
                    </g>
                </g>
                <g id="Group-18" transform="translate(25.000000, 0.000000)">
                    <rect id="Rectangle-21" fill="#D5D5D5" x="0" y="0" width="40" height="40" rx="2"></rect>
                    <g id="Group-3" transform="translate(9.166667, 5.000000)" fill="#FFFFFF">
                        <path d="M9.91511253,9.11790521 C9.9380348,8.86604708 9.96428421,8.61725977 9.99409027,8.37843732 C10.0745179,7.73400743 10.1696381,7.23554229 10.3025101,6.8811212 C10.6548824,5.94120807 11.4172569,4.9284767 12.2289924,4.35009981 C12.6709606,4.03518907 13.2862522,4.1357918 13.6032846,4.5748023 C13.920317,5.0138128 13.8190365,5.62498672 13.3770682,5.93989746 C12.8895421,6.28726909 12.3665017,6.98207118 12.148374,7.56390213 C12.0848827,7.73325793 12.0111888,8.11944123 11.948824,8.61914209 C11.9294618,8.77428286 11.9116058,8.93561183 11.895258,9.10018203 C13.2230797,8.74699049 14.7592648,7.88791423 16.8314843,8.12336111 C19.4017167,8.41539253 21.0157429,10.5283021 21.540207,13.306333 C22.064671,16.084364 20.8796979,20.0167264 19.4251821,22.1548109 C17.9706663,24.2928953 15.6096907,26.6666667 13.9350249,26.6666667 C12.2603591,26.6666667 11.8015996,25.6782337 11.8015996,25.6782337 C11.4263701,25.2695082 10.883542,25.2612979 10.5374915,25.688428 C10.5374915,25.688428 10.0609067,26.6666667 8.63640695,26.6666667 C7.21190721,26.6666667 4.12328008,24.4990507 2.26241803,21.8184056 C0.401555987,19.1377605 -0.436657987,16.6520702 0.223530151,13.479921 C0.883718289,10.3077717 2.59761597,8.43420088 4.37969906,8.12336111 C5.8205705,7.87203717 8.22857516,8.77460411 9.91511253,9.11790521 Z M3.49205506,12.756259 C3.45117861,12.8888693 3.39545974,13.1141057 3.34142463,13.4187975 C3.1697534,14.386813 3.13752147,15.4776088 3.33195741,16.624554 C3.48065322,17.5016859 3.83185736,18.3446242 4.32198872,19.1383122 C4.71402956,19.7731586 5.10767697,20.2492873 5.38384536,20.5267337 C5.67066188,20.8148774 6.13833305,20.8175094 6.42841816,20.5326123 C6.71850326,20.2477153 6.72115298,19.7831739 6.43433646,19.4950301 C6.38979037,19.4502779 6.30021335,19.35242 6.18069649,19.2078607 C5.97675348,18.9611854 5.77196831,18.6799225 5.58123234,18.3710566 C5.18311152,17.7263647 4.90272989,17.0534101 4.78872097,16.3808905 C4.624648,15.4130513 4.65201342,14.4869483 4.79629662,13.6733678 C4.83936154,13.4305344 4.88074268,13.2632564 4.90459958,13.1858605 C5.02403002,12.7984075 4.80463866,12.3881452 4.41457526,12.269514 C4.02451186,12.1508828 3.6114855,12.368806 3.49205506,12.756259 Z" id="Combined-Shape" fill-rule="nonzero"></path>
                        <path d="M5.41666667,5.83333333 C7.58787993,5.83333333 8.9603243,4.48801676 8.9603243,4.48801676 C9.1744295,4.31054001 9.18533286,4.0245676 8.9603243,3.84531657 C8.9603243,3.84531657 7.58787993,2.5 5.41666667,2.5 C3.2454534,2.5 1.87300904,3.84531657 1.87300904,3.84531657 C1.65890384,4.02279333 1.64800047,4.30876573 1.87300904,4.48801676 C1.87300904,4.48801676 3.2454534,5.83333333 5.41666667,5.83333333 Z" id="Oval-6" transform="translate(5.416667, 4.166667) rotate(-318.000000) translate(-5.416667, -4.166667) "></path>
                    </g>
                </g>
            </g>
        </g>
    </g>
</svg>