<svg width="180" height="140" viewBox="0 0 180 140" fill="none" xmlns="http://www.w3.org/2000/svg">
<g id="Group">
<path id="Rectangle 70 Copy" d="M154.828 130.258V128.059H155.328V127.46H155.831V126.96H157.836V127.46H159.841V126.96H161.846V127.46H163.851V126.96H165.856V127.46H167.861V126.96H169.866V127.46H171.871V126.96H173.876V127.46H174.878V128.059H174.378V130.258H174.878V132.456H174.378V134.655H174.878V136.853H174.378V137.452H173.876V137.952H171.871V137.452H169.866V137.952H167.861V137.452H165.856V137.952H163.851V137.452H161.846V137.952H159.841V137.452H157.836V137.952H155.831V137.452H154.828V136.853H155.328V134.655H154.828V132.456H155.328V130.258H154.828Z" fill="#F8F8F8" stroke="#AEAEAE" stroke-dasharray="2"/>
<g id="Group 18">
<path id="Line" d="M66.9162 108.961H109.846" stroke="#EBEBEB" stroke-width="1.44" stroke-linecap="square"/>
<g id="Group 31">
<path id="Rectangle 39" fill-rule="evenodd" clip-rule="evenodd" d="M67.7222 88.8372L71.5964 89.0486L67.0812 139.438L64.9939 139.324L63.207 139.227L67.7222 88.8372Z" fill="#E0E0E0"/>
<path id="Rectangle 39 Copy" fill-rule="evenodd" clip-rule="evenodd" d="M106.203 89.1543L109.252 88.8372L114.592 139.121H110.398L106.203 89.1543Z" fill="#E0E0E0"/>
</g>
<path id="Rectangle 41" fill-rule="evenodd" clip-rule="evenodd" d="M70.8876 9.80455C71.0016 8.83567 71.7488 8.06525 72.7165 7.94141C75.9027 7.53364 83.2623 6.70532 90.4723 6.70532C97.6631 6.70532 104.854 7.52926 107.98 7.93816C108.94 8.06373 109.682 8.82691 109.8 9.78779L115.58 56.7692C115.753 58.173 114.552 59.3683 113.147 59.2098C108.65 58.7025 99.3723 57.7965 90.4723 57.7965C81.5636 57.7965 72.2829 58.7042 67.7941 59.2112C66.3933 59.3694 65.1952 58.1823 65.3599 56.7823L70.8876 9.80455Z" fill="#E0E0E0"/>
</g>
<g id="Group 41">
<g id="Group 28">
<path id="Rectangle 66" fill-rule="evenodd" clip-rule="evenodd" d="M12.3621 0.779283C12.3275 0.359686 12.6587 0 13.0797 0H58.1178C58.4917 0 58.8034 0.28625 58.8352 0.658832L61.8335 35.8234C61.8693 36.2437 61.5379 36.6046 61.1161 36.6046H15.9851C15.6104 36.6046 15.2984 36.3173 15.2675 35.9439L12.3621 0.779283Z" fill="#06806B"/>
<path id="Rectangle 2" fill-rule="evenodd" clip-rule="evenodd" d="M15.332 37.5939H75.6801C75.6801 38.6866 74.7943 39.5725 73.7015 39.5725H17.3107C16.2179 39.5725 15.332 38.6866 15.332 37.5939Z" fill="#099A81"/>
</g>
<circle id="Oval" cx="36.3848" cy="16.3237" r="2.74809" fill="white"/>
</g>
<path id="Path 19" fill-rule="evenodd" clip-rule="evenodd" d="M174.479 54.7969L176.758 44.9038L172.801 53.5359L174.479 54.7969Z" fill="#666666"/>
<g id="Group 17">
<path id="Rectangle 70" d="M5.11328 130.752V128.554H5.61328V127.955H6.11394V127.455H8.11526V127.955H10.1166V127.455H12.1179V127.955H14.1192V127.455H16.1206V127.955H18.1219V127.455H20.1232V127.955H22.1245V127.455H24.1258V127.955H25.1265V128.554H24.6265V130.752H25.1265V132.951H24.6265V135.149H25.1265V137.348H24.6265V137.947H24.1258V138.447H22.1245V137.947H20.1232V138.447H18.1219V137.947H16.1206V138.447H14.1192V137.947H12.1179V138.447H10.1166V137.947H8.11526V138.447H6.11394V137.947H5.11328V137.348H5.61328V135.149H5.11328V132.951H5.61328V130.752H5.11328Z" fill="#F8F8F8" stroke="#AEAEAE" stroke-dasharray="2"/>
<path id="Rectangle 69" d="M2.10547 48.6234V46.6099H2.60547V45.6031H3.11043V46.1031H5.12022V45.6031H7.13002V46.1031H9.13982V45.6031H11.1496V46.1031H13.1594V45.6031H15.1692V46.1031H17.179V45.6031H19.1888V46.1031H21.1986V45.6031H23.2084V46.1031H25.2182V45.6031H27.228V46.1031H29.2378V45.6031H31.2476V46.1031H33.2574V45.6031H35.2672V46.1031H37.277V45.6031H39.2868V46.1031H41.2966V45.6031H43.3064V46.1031H45.3162V45.6031H47.3259V46.1031H49.3357V45.6031H51.3455V46.1031H53.3553V45.6031H55.3651V46.1031H57.3749V45.6031H59.3847V46.1031H61.3945V45.6031H63.4043V46.1031H65.4141V45.6031H67.4239V46.1031H69.4337V45.6031H71.4435V46.1031H73.4533V45.6031H75.4631V46.1031H77.4729V45.6031H79.4827V46.1031H81.4925V45.6031H83.5023V46.1031H85.5121V45.6031H87.5219V46.1031H89.5317V45.6031H91.5415V46.1031H93.5513V45.6031H95.5611V46.1031H97.5709V45.6031H99.5807V46.1031H101.59V45.6031H103.6V46.1031H105.61V45.6031H107.62V46.1031H109.63V45.6031H111.639V46.1031H113.649V45.6031H115.659V46.1031H117.669V45.6031H119.679V46.1031H121.688V45.6031H123.698V46.1031H125.708V45.6031H127.718V46.1031H129.728V45.6031H131.737V46.1031H133.747V45.6031H135.757V46.1031H137.767V45.6031H139.777V46.1031H141.786V45.6031H143.796V46.1031H145.806V45.6031H147.816V46.1031H149.826V45.6031H151.835V46.1031H153.845V45.6031H155.855V46.1031H157.865V45.6031H159.875V46.1031H161.884V45.6031H163.894V46.1031H165.904V45.6031H167.914V46.1031H169.924V45.6031H171.933V46.1031H173.943V45.6031H175.953V46.1031H176.958V46.6099H176.458V48.6234H176.958V50.6369H176.458V52.6505H176.958V54.664H176.458V56.6776H176.958V58.6911H176.458V60.7046H176.958V62.7182H176.458V64.7317H176.958V66.7452H176.458V68.7588H176.958V70.7723H176.458V72.7858H176.958V74.7994H176.458V76.8129H176.958V78.8264H176.458V80.84H176.958V82.8535H176.458V84.867H176.958V86.8806H176.458V88.8941H176.958V90.9076H176.458V92.9212H176.958V94.9347H176.458V96.9482H176.958V98.9618H176.458V100.975H176.958V102.989H176.458V105.002H176.958V107.016H176.458V109.029H176.958V111.043H176.458V113.057H176.958V115.07H176.458V117.084H176.958V119.097H176.458V121.111H176.958V123.124H176.458V125.138H176.958V127.151H176.458V129.165H176.958V131.178H176.458V132.185H175.953V131.685H173.943V132.185H171.933V131.685H169.923V132.185H167.914V131.685H165.904V132.185H163.894V131.685H161.884V132.185H159.874V131.685H157.865V132.185H155.855V131.685H153.845V132.185H151.835V131.685H149.826V132.185H147.816V131.685H145.806V132.185H143.796V131.685H141.786V132.185H139.777V131.685H137.767V132.185H135.757V131.685H133.747V132.185H131.737V131.685H129.728V132.185H127.718V131.685H125.708V132.185H123.698V131.685H121.688V132.185H119.679V131.685H117.669V132.185H115.659V131.685H113.649V132.185H111.639V131.685H109.63V132.185H107.62V131.685H105.61V132.185H103.6V131.685H101.59V132.185H99.5806V131.685H97.5708V132.185H95.561V131.685H93.5512V132.185H91.5414V131.685H89.5316V132.185H87.5218V131.685H85.512V132.185H83.5022V131.685H81.4924V132.185H79.4826V131.685H77.4728V132.185H75.463V131.685H73.4532V132.185H71.4434V131.685H69.4336V132.185H67.4239V131.685H65.4141V132.185H63.4043V131.685H61.3945V132.185H59.3847V131.685H57.3749V132.185H55.3651V131.685H53.3553V132.185H51.3455V131.685H49.3357V132.185H47.3259V131.685H45.3161V132.185H43.3063V131.685H41.2965V132.185H39.2867V131.685H37.2769V132.185H35.2671V131.685H33.2573V132.185H31.2475V131.685H29.2377V132.185H27.2279V131.685H25.2181V132.185H23.2083V131.685H21.1985V132.185H19.1887V131.685H17.1789V132.185H15.1691V131.685H13.1594V132.185H11.1496V131.685H9.13976V132.185H7.12996V131.685H5.12016V132.185H3.11037V131.685H2.10547V131.178H2.60547V129.165H2.10547V127.151H2.60547V125.138H2.10547V123.124H2.60547V121.111H2.10547V119.097H2.60547V117.084H2.10547V115.07H2.60547V113.057H2.10547V111.043H2.60547V109.029H2.10547V107.016H2.60547V105.002H2.10547V102.989H2.60547V100.975H2.10547V98.9618H2.60547V96.9483H2.10547V94.9347H2.60547V92.9212H2.10547V90.9077H2.60547V88.8941H2.10547V86.8806H2.60547V84.8671H2.10547V82.8535H2.60547V80.84H2.10547V78.8265H2.60547V76.8129H2.10547V74.7994H2.60547V72.7859H2.10547V70.7723H2.60547V68.7588H2.10547V66.7453H2.60547V64.7317H2.10547V62.7182H2.60547V60.7047H2.10547V58.6911H2.60547V56.6776H2.10547V54.6641H2.60547V52.6505H2.10547V50.637H2.60547V48.6234H2.10547Z" fill="#F8F8F8" stroke="#AEAEAE" stroke-dasharray="2"/>
<path id="Rectangle 79" d="M162.624 56.8268H164.627V57.3268H165.128V57.8145H165.628V59.7899H165.128V61.7653H165.628V63.7408H165.128V65.7162H165.628V67.6916H165.128V69.667H165.628V71.6425H165.128V73.6179H165.628V75.5933H165.128V77.5688H165.628V79.5442H165.128V81.5196H165.628V83.4951H165.128V85.4705H165.628V87.4459H165.128V89.4213H165.628V91.3968H165.128V93.3722H165.628V95.3476H165.128V97.3231H165.628V99.2985H165.128V101.274H165.628V103.249H165.128V105.225H165.628V107.2H165.128V109.176H165.628V111.151H165.128V113.126H165.628V115.102H165.128V117.077H165.628V119.053H165.128V120.04H164.627V119.54H162.624V120.04H160.621V119.54H158.618V120.04H156.615V119.54H154.612V120.04H152.609V119.54H150.606V120.04H148.603V119.54H146.6V120.04H144.596V119.54H142.593V120.04H140.59V119.54H138.587V120.04H136.584V119.54H134.581V120.04H132.578V119.54H130.575V120.04H128.572V119.54H126.569V120.04H124.566V119.54H122.563V120.04H120.56V119.54H118.557V120.04H116.554V119.54H114.551V120.04H112.548V119.54H110.545V120.04H108.542V119.54H106.539V120.04H104.536V119.54H102.533V120.04H100.53V119.54H98.5266V120.04H96.5236V119.54H94.5206V120.04H92.5175V119.54H90.5145V120.04H88.5114V119.54H86.5084V120.04H84.5054V119.54H82.5023V120.04H80.4993V119.54H78.4963V120.04H76.4932V119.54H74.4902V120.04H72.4872V119.54H70.4841V120.04H68.4811V119.54H66.478V120.04H64.475V119.54H62.472V120.04H60.4689V119.54H58.4659V120.04H56.4629V119.54H54.4598V120.04H52.4568V119.54H50.4537V120.04H48.4507V119.54H46.4477V120.04H44.4446V119.54H42.4416V120.04H40.4386V119.54H38.4355V120.04H36.4325V119.54H34.4295V120.04H32.4264V119.54H30.4234V120.04H28.4203V119.54H26.4173V120.04H24.4143V119.54H22.4112V120.04H20.4082V119.54H18.4052V120.04H16.4021V119.54H14.3991V120.04H12.396V119.54H11.8945V119.053H11.3945V117.077H11.8945V115.102H11.3945V113.126H11.8945V111.151H11.3945V109.176H11.8945V107.2H11.3945V105.225H11.8945V103.249H11.3945V101.274H11.8945V99.2985H11.3945V97.3231H11.8945V95.3476H11.3945V93.3722H11.8945V91.3968H11.3945V89.4213H11.8945V87.4459H11.3945V85.4705H11.8945V83.4951H11.3945V81.5196H11.8945V79.5442H11.3945V77.5688H11.8945V75.5933H11.3945V73.6179H11.8945V71.6425H11.3945V69.6671H11.8945V67.6916H11.3945V65.7162H11.8945V63.7408H11.3945V61.7654H11.8945V59.7899H11.3945V57.8145H11.8945V56.8268H12.3961V57.3268H14.3992V56.8268H16.4022V57.3268H18.4052V56.8268H20.4083V57.3268H22.4113V56.8268H24.4143V57.3268H26.4174V56.8268H28.4204V57.3268H30.4234V56.8268H32.4265V57.3268H34.4295V56.8268H36.4326V57.3268H38.4356V56.8268H40.4386V57.3268H42.4417V56.8268H44.4447V57.3268H46.4477V56.8268H48.4508V57.3268H50.4538V56.8268H52.4569V57.3268H54.4599V56.8268H56.4629V57.3268H58.466V56.8268H60.469V57.3268H62.472V56.8268H64.4751V57.3268H66.4781V56.8268H68.4811V57.3268H70.4842V56.8268H72.4872V57.3268H74.4903V56.8268H76.4933V57.3268H78.4963V56.8268H80.4994V57.3268H82.5024V56.8268H84.5054V57.3268H86.5085V56.8268H88.5115V57.3268H90.5145V56.8268H92.5176V57.3268H94.5206V56.8268H96.5237V57.3268H98.5267V56.8268H100.53V57.3268H102.533V56.8268H104.536V57.3268H106.539V56.8268H108.542V57.3268H110.545V56.8268H112.548V57.3268H114.551V56.8268H116.554V57.3268H118.557V56.8268H120.56V57.3268H122.563V56.8268H124.566V57.3268H126.569V56.8268H128.572V57.3268H130.575V56.8268H132.578V57.3268H134.581V56.8268H136.584V57.3268H138.587V56.8268H140.59V57.3268H142.593V56.8268H144.597V57.3268H146.6V56.8268H148.603V57.3268H150.606V56.8268H152.609V57.3268H154.612V56.8268H156.615V57.3268H158.618V56.8268H160.621V57.3268H162.624V56.8268Z" stroke="#AEAEAE" stroke-dasharray="2"/>
<rect id="Rectangle 2_2" x="0.5" y="42.9305" width="178.066" height="4.60421" fill="#F8F8F8" stroke="#AEAEAE" stroke-dasharray="2"/>
</g>
<g id="apple-2">
<path id="Path" d="M170.146 22.9638C167.416 20.8085 164.344 22.36 161.745 22.36C159.146 22.36 156.071 20.8085 153.344 22.9638C150.838 24.9401 150.007 30.9364 153.386 36.2331C156.629 41.3179 159.898 39.5944 161.748 39.5944C163.598 39.5944 166.868 41.3218 170.11 36.2331C173.487 30.9364 172.659 24.9401 170.146 22.9638Z" fill="#06806B"/>
<path id="Path_2" d="M164.492 16.3236V17.8939C164.492 19.6285 163.086 21.0346 161.352 21.0346V19.4643C161.352 17.7297 162.758 16.3236 164.492 16.3236Z" fill="#06806B"/>
</g>
</g>
</svg>
