<?xml version="1.0" encoding="UTF-8"?>
<svg width="161px" height="100px" viewBox="0 0 161 100" version="1.1" xmlns="http://www.w3.org/2000/svg" xmlns:xlink="http://www.w3.org/1999/xlink">
    <!-- Generator: Sketch 48.2 (47327) - http://www.bohemiancoding.com/sketch -->
    <title>Group 14</title>
    <desc>Created with Sketch.</desc>
    <defs></defs>
    <g id="15_17-Activity-Scores-Empty-State" stroke="none" stroke-width="1" fill="none" fill-rule="evenodd" transform="translate(-582.000000, -437.000000)">
        <g id="Group-14" transform="translate(573.000000, 437.000000)">
            <g id="Group-2">
                <g id="Group-22" transform="translate(9.000000, 0.000000)">
                    <g id="Group-4">
                        <path d="M145.887605,16.3474237 L153.816324,16.3474237 L153.816324,8.34591662 L145.887605,8.34591662 L145.887605,16.3474237 Z M145.077605,7.53591662 L154.626324,7.53591662 L154.626324,17.1574237 L145.077605,17.1574237 L145.077605,7.53591662 Z" id="Rectangle-55-Copy" fill="#E9E9E9" fill-rule="nonzero"></path>
                        <ellipse id="Oval-2" stroke="#E9E9E9" stroke-width="0.81" cx="48.7416667" cy="6.01626016" rx="5.16388889" ry="5.20325203"></ellipse>
                        <path d="M6.16388889,62.7109867 C3.08758513,62.7109867 0.595,60.1994012 0.595,57.1027347 C0.595,54.0060682 3.08758513,51.4944826 6.16388889,51.4944826 C9.24019265,51.4944826 11.7327778,54.0060682 11.7327778,57.1027347 C11.7327778,60.1994012 9.24019265,62.7109867 6.16388889,62.7109867 Z M6.16388889,61.9009867 C8.79145929,61.9009867 10.9227778,59.7534217 10.9227778,57.1027347 C10.9227778,54.4520477 8.79145929,52.3044826 6.16388889,52.3044826 C3.53631848,52.3044826 1.405,54.4520477 1.405,57.1027347 C1.405,59.7534217 3.53631848,61.9009867 6.16388889,61.9009867 Z" id="Oval-2-Copy" fill="#E9E9E9" fill-rule="nonzero"></path>
                        <path d="M23.1666515,95.9438527 L18.6368897,87.7409802 L14.2117529,95.7543892 L23.1666515,95.9438527 Z M18.6368897,86.0653761 L24.5555707,96.78342 L12.8549138,96.5358631 L18.6368897,86.0653761 Z" id="Path-14" fill="#E9E9E9" fill-rule="nonzero"></path>
                        <path d="M159.30554,89.3215319 L154.775779,81.1186594 L150.350642,89.1320684 L159.30554,89.3215319 Z M154.775779,79.4430553 L160.69446,90.1610993 L148.993803,89.9135423 L154.775779,79.4430553 Z" id="Path-14" fill="#E9E9E9" fill-rule="nonzero"></path>
                        <path d="M142.032222,64.3341242 L153.556667,64.3341242 L153.556667,52.7094826 L142.032222,52.7094826 L142.032222,64.3341242 Z M141.222222,51.8994826 L154.366667,51.8994826 L154.366667,65.1441242 L141.222222,65.1441242 L141.222222,51.8994826 Z" id="Rectangle-55" fill="#E9E9E9" fill-rule="nonzero"></path>
                        <path d="M139.686096,31.1768548 C139.463694,30.7887058 139.598058,30.2937558 139.986207,30.0713532 C140.374356,29.8489506 140.869306,29.9833146 141.091708,30.3714636 L145.786153,38.5644608 C146.008555,38.9526098 145.874191,39.4475598 145.486042,39.6699624 C145.097893,39.892365 144.602943,39.758001 144.380541,39.369852 L139.686096,31.1768548 Z" id="Line-2" fill="#3ADFBB" fill-rule="nonzero"></path>
                        <path d="M146.159602,31.8687738 C146.54628,31.6438233 147.042102,31.7749295 147.267053,32.1616075 C147.492003,32.5482855 147.360897,33.0441084 146.974219,33.2690588 L138.843203,37.9992879 C138.456525,38.2242384 137.960702,38.0931322 137.735752,37.7064542 C137.510801,37.3197762 137.641907,36.8239533 138.028585,36.5990029 L146.159602,31.8687738 Z" id="Line-2" fill="#3ADFBB" fill-rule="nonzero"></path>
                        <path d="M13.3749452,9.68281383 C13.1525426,9.2946648 13.2869066,8.79971488 13.6750556,8.57731226 C14.0632047,8.35490963 14.5581546,8.48927364 14.7805572,8.87742268 L19.4750016,17.0704198 C19.6974043,17.4585689 19.5630403,17.9535188 19.1748912,18.1759214 C18.7867422,18.398324 18.2917923,18.26396 18.0693896,17.875811 L13.3749452,9.68281383 Z" id="Line-2" fill="#82BF3C" fill-rule="nonzero"></path>
                        <path d="M20.3461826,10.3143777 C20.7328606,10.0894272 21.2286835,10.2205334 21.4536339,10.6072114 C21.6785844,10.9938894 21.5474782,11.4897123 21.1608002,11.7146627 L13.0297839,16.4448918 C12.6431059,16.6698423 12.147283,16.5387362 11.9223326,16.1520581 C11.6973822,15.7653801 11.8284883,15.2695572 12.2151663,15.0446068 L20.3461826,10.3143777 Z" id="Line-2" fill="#82BF3C" fill-rule="nonzero"></path>
                        <ellipse id="Oval-21" fill="#A8E067" cx="104.969431" cy="2.39467849" rx="1.87777778" ry="1.89209165"></ellipse>
                        <ellipse id="Oval-21-Copy-2" fill="#3ADFBB" cx="139.813889" cy="64.6711013" rx="4.225" ry="4.25720621"></ellipse>
                        <ellipse id="Oval-21-Copy" fill="#3ADFBB" cx="11.1861111" cy="41.0199557" rx="2.34722222" ry="2.36511456"></ellipse>
                    </g>
                </g>
                <g id="Group-23" transform="translate(0.000000, 4.065041)"></g>
            </g>
            <g id="Group-13" transform="translate(37.723073, 12.195122)">
                <path d="M7.4730622,1.62 C7.02571155,1.62 6.6630622,1.98264935 6.6630622,2.43 L6.6630622,85.374878 C6.6630622,85.8222287 7.02571155,86.184878 7.4730622,86.184878 L72.9623445,86.184878 C73.4096951,86.184878 73.7723445,85.8222287 73.7723445,85.374878 L73.7723445,2.43 C73.7723445,1.98264935 73.4096951,1.62 72.9623445,1.62 L7.4730622,1.62 Z M7.4730622,0 L72.9623445,0 C74.3043964,-2.46530942e-16 75.3923445,1.08794806 75.3923445,2.43 L75.3923445,85.374878 C75.3923445,86.71693 74.3043964,87.804878 72.9623445,87.804878 L7.4730622,87.804878 C6.13101026,87.804878 5.0430622,86.71693 5.0430622,85.374878 L5.0430622,2.43 C5.0430622,1.08794806 6.13101026,-1.97558268e-16 7.4730622,0 Z" id="Rectangle-9" fill="#00C2A2" fill-rule="nonzero"></path>
                <g id="Group-5" transform="translate(81.861244, 0.000000)" fill="#00C2A2" fill-rule="nonzero">
                    <path d="M1.98140855,11.103668 C1.74759154,11.3921852 1.62,11.7522765 1.62,12.1236423 L1.62,84.564878 C1.62,85.4595793 2.34529871,86.184878 3.24,86.184878 L14.5494737,86.184878 C15.444175,86.184878 16.1694737,85.4595793 16.1694737,84.564878 L16.1694737,12.1236423 C16.1694737,11.7522765 16.0418821,11.3921852 15.8080651,11.103668 L8.89473684,2.57300603 L1.98140855,11.103668 Z M8.89473684,0 L17.0666566,10.0836937 C17.5342906,10.6607281 17.7894737,11.3809107 17.7894737,12.1236423 L17.7894737,84.564878 C17.7894737,86.3542806 16.3388763,87.804878 14.5494737,87.804878 L3.24,87.804878 C1.45059741,87.804878 6.63227825e-16,86.3542806 4.4408921e-16,84.564878 L-2.66453526e-15,12.1236423 C-2.42565457e-15,11.3809107 0.255183079,10.6607281 0.722817093,10.0836937 L8.89473684,0 Z" id="Rectangle-2"></path>
                    <path d="M0.187596647,11.4956476 L1.42962823,10.4555719 L2.84948953,12.1511336 C3.46509423,12.8862728 4.37469982,13.3109821 5.33355271,13.3109821 L11.8467711,13.3109821 C12.6276154,13.3109821 13.3821928,13.0289879 13.9716591,12.516887 L16.4496392,10.3641335 L17.5120833,11.587086 L15.0341031,13.7398395 C14.1499036,14.5079907 13.0180375,14.9309821 11.8467711,14.9309821 L5.33355271,14.9309821 C3.89527338,14.9309821 2.530865,14.2939182 1.60745794,13.1912093 L0.187596647,11.4956476 Z" id="Path-3"></path>
                    <path d="M0.293033031,77.0474865 L1.32419185,75.798042 L4.1314695,78.1148709 C4.5238393,78.4386913 5.01670611,78.6158071 5.52544346,78.6158071 L12.5684485,78.6158071 C13.1211824,78.6158071 13.6534733,78.4068008 14.0585365,78.0307176 L16.4297328,75.8291672 L17.5319897,77.0163612 L15.1607934,79.2179116 C14.4560944,79.8721934 13.5300541,80.2358071 12.5684485,80.2358071 L5.52544346,80.2358071 C4.64037984,80.2358071 3.78292663,79.9276741 3.10031068,79.3643154 L0.293033031,77.0474865 Z" id="Path-4"></path>
                    <polygon id="Line-13" points="4.04167464 13.3685044 5.66167464 13.3685044 5.66167464 79.3144224 4.04167464 79.3144224"></polygon>
                    <polygon id="Line-14" points="12.9364115 13.3685044 14.5564115 13.3685044 14.5564115 79.3144224 12.9364115 79.3144224"></polygon>
                    <path d="M5.45357585,5.40979841 L6.67561075,4.34629915 C7.47866075,5.26905966 8.21839889,5.69406504 8.89473684,5.69406504 C9.5710748,5.69406504 10.3108129,5.26905966 11.1138629,4.34629915 L12.3358978,5.40979841 C11.2521855,6.65505959 10.1051612,7.31406504 8.89473684,7.31406504 C7.68431244,7.31406504 6.53728822,6.65505959 5.45357585,5.40979841 Z" id="Path-2"></path>
                </g>
                <path d="M1.40430622,12.5986179 C0.956955573,12.5986179 0.59430622,12.2359685 0.59430622,11.7886179 C0.59430622,11.3412672 0.956955573,10.9786179 1.40430622,10.9786179 L10.2990431,10.9786179 C10.7463937,10.9786179 11.1090431,11.3412672 11.1090431,11.7886179 C11.1090431,12.2359685 10.7463937,12.5986179 10.2990431,12.5986179 L1.40430622,12.5986179 Z" id="Line-2" fill="#00C2A2" fill-rule="nonzero"></path>
                <path d="M1.40430622,21.8157182 L10.2990431,21.8157182" id="Line-2-Copy" stroke="#00C2A2" stroke-width="1.62" stroke-linecap="round"></path>
                <path d="M1.40430622,32.6528184 C0.956955573,32.6528184 0.59430622,32.2901691 0.59430622,31.8428184 C0.59430622,31.3954678 0.956955573,31.0328184 1.40430622,31.0328184 L10.2990431,31.0328184 C10.7463937,31.0328184 11.1090431,31.3954678 11.1090431,31.8428184 C11.1090431,32.2901691 10.7463937,32.6528184 10.2990431,32.6528184 L1.40430622,32.6528184 Z" id="Line-2-Copy-2" fill="#00C2A2" fill-rule="nonzero"></path>
                <path d="M1.40430622,42.6799187 C0.956955573,42.6799187 0.59430622,42.3172693 0.59430622,41.8699187 C0.59430622,41.4225681 0.956955573,41.0599187 1.40430622,41.0599187 L10.2990431,41.0599187 C10.7463937,41.0599187 11.1090431,41.4225681 11.1090431,41.8699187 C11.1090431,42.3172693 10.7463937,42.6799187 10.2990431,42.6799187 L1.40430622,42.6799187 Z" id="Line-2-Copy-3" fill="#00C2A2" fill-rule="nonzero"></path>
                <path d="M1.40430622,52.707019 C0.956955573,52.707019 0.59430622,52.3443696 0.59430622,51.897019 C0.59430622,51.4496683 0.956955573,51.087019 1.40430622,51.087019 L10.2990431,51.087019 C10.7463937,51.087019 11.1090431,51.4496683 11.1090431,51.897019 C11.1090431,52.3443696 10.7463937,52.707019 10.2990431,52.707019 L1.40430622,52.707019 Z" id="Line-2-Copy-4" fill="#00C2A2" fill-rule="nonzero"></path>
                <path d="M1.40430622,62.7341192 C0.956955573,62.7341192 0.59430622,62.3714699 0.59430622,61.9241192 C0.59430622,61.4767686 0.956955573,61.1141192 1.40430622,61.1141192 L10.2990431,61.1141192 C10.7463937,61.1141192 11.1090431,61.4767686 11.1090431,61.9241192 C11.1090431,62.3714699 10.7463937,62.7341192 10.2990431,62.7341192 L1.40430622,62.7341192 Z" id="Line-2-Copy-5" fill="#00C2A2" fill-rule="nonzero"></path>
                <path d="M1.40430622,72.7612195 C0.956955573,72.7612195 0.59430622,72.3985702 0.59430622,71.9512195 C0.59430622,71.5038689 0.956955573,71.1412195 1.40430622,71.1412195 L10.2990431,71.1412195 C10.7463937,71.1412195 11.1090431,71.5038689 11.1090431,71.9512195 C11.1090431,72.3985702 10.7463937,72.7612195 10.2990431,72.7612195 L1.40430622,72.7612195 Z" id="Line-2-Copy-6" fill="#00C2A2" fill-rule="nonzero"></path>
                <path d="M20.8110048,12.5986179 C20.3636541,12.5986179 20.0010048,12.2359685 20.0010048,11.7886179 C20.0010048,11.3412672 20.3636541,10.9786179 20.8110048,10.9786179 L63.6979669,10.9786179 C64.1453176,10.9786179 64.5079669,11.3412672 64.5079669,11.7886179 C64.5079669,12.2359685 64.1453176,12.5986179 63.6979669,12.5986179 L20.8110048,12.5986179 Z" id="Line-3" fill="#00C2A2" fill-rule="nonzero"></path>
                <path d="M20.8110048,22.3547154 C20.3636541,22.3547154 20.0010048,21.9920661 20.0010048,21.5447154 C20.0010048,21.0973648 20.3636541,20.7347154 20.8110048,20.7347154 L63.6979669,20.7347154 C64.1453176,20.7347154 64.5079669,21.0973648 64.5079669,21.5447154 C64.5079669,21.9920661 64.1453176,22.3547154 63.6979669,22.3547154 L20.8110048,22.3547154 Z" id="Line-3" fill="#00C2A2" fill-rule="nonzero"></path>
                <path d="M20.8110048,32.9238211 C20.3636541,32.9238211 20.0010048,32.5611718 20.0010048,32.1138211 C20.0010048,31.6664705 20.3636541,31.3038211 20.8110048,31.3038211 L63.6979669,31.3038211 C64.1453176,31.3038211 64.5079669,31.6664705 64.5079669,32.1138211 C64.5079669,32.5611718 64.1453176,32.9238211 63.6979669,32.9238211 L20.8110048,32.9238211 Z" id="Line-3" fill="#00C2A2" fill-rule="nonzero"></path>
                <path d="M20.8110048,43.4929268 C20.3636541,43.4929268 20.0010048,43.1302775 20.0010048,42.6829268 C20.0010048,42.2355762 20.3636541,41.8729268 20.8110048,41.8729268 L63.6979669,41.8729268 C64.1453176,41.8729268 64.5079669,42.2355762 64.5079669,42.6829268 C64.5079669,43.1302775 64.1453176,43.4929268 63.6979669,43.4929268 L20.8110048,43.4929268 Z" id="Line-3" fill="#00C2A2" fill-rule="nonzero"></path>
                <path d="M20.7061847,54.4685366 C20.258834,54.4685366 19.8961847,54.1058872 19.8961847,53.6585366 C19.8961847,53.2111859 20.258834,52.8485366 20.7061847,52.8485366 L52.4743048,52.8485366 C52.9216554,52.8485366 53.2843048,53.2111859 53.2843048,53.6585366 C53.2843048,54.1058872 52.9216554,54.4685366 52.4743048,54.4685366 L20.7061847,54.4685366 Z" id="Line-3" fill="#00C2A2" fill-rule="nonzero"></path>
            </g>
        </g>
    </g>
</svg>