<svg xmlns="http://www.w3.org/2000/svg" xmlns:xlink="http://www.w3.org/1999/xlink" width="580" height="270" viewBox="0 0 580 270">
    <defs>
        <path id="prefix__a" d="M0 270L580 270 580 0 0 0z"/>
    </defs>
    <g fill="none" fill-rule="evenodd">
        <path fill="#06806B" d="M70.48 249.559c-.275 0-.5-.224-.5-.5v-25.311c0-.276.225-.5.5-.5.277 0 .5.224.5.5v25.31c0 .277-.223.5-.5.5M93.562 239.78l-.71-.705c13.159-13.159 13.158-34.566 0-47.722-.194-.195-.194-.51 0-.707.196-.195.513-.195.708 0 13.547 13.546 13.548 35.587.002 49.134M84.775 231.501c-.128 0-.256-.049-.354-.146-.195-.196-.195-.512 0-.708 4.125-4.124 6.395-9.606 6.395-15.438-.001-5.832-2.271-11.314-6.395-15.437-.196-.196-.196-.512 0-.708.195-.195.51-.195.707 0 4.312 4.313 6.687 10.046 6.688 16.145 0 6.099-2.375 11.833-6.687 16.146-.098.097-.226.146-.354.146M47.754 239.927c-.128 0-.256-.05-.354-.146-13.545-13.547-13.545-35.588.001-49.134.196-.196.512-.196.707 0 .196.195.196.51 0 .707-13.156 13.155-13.157 34.562 0 47.719.195.196.195.512 0 .708-.098.097-.226.146-.354.146"/>
        <path fill="#06806B" d="M56.189 231.502c-.086 0-.171-.021-.248-.065-.04-.023-.075-.05-.107-.082-8.903-8.904-8.902-23.388 0-32.291.197-.195.513-.195.709 0 .195.196.195.512 0 .708-8.507 8.506-8.514 22.344-.02 30.859l.02.017c.195.196.195.512 0 .708-.098.097-.226.146-.354.146M70.48 206.382c-4.648 0-8.432 3.783-8.432 8.434 0 4.649 3.784 8.432 8.433 8.432 4.65 0 8.434-3.783 8.434-8.432 0-4.651-3.784-8.434-8.434-8.434m0 17.866c-5.201 0-9.433-4.231-9.433-9.432 0-5.203 4.232-9.434 9.433-9.434 5.202 0 9.434 4.23 9.434 9.434 0 5.2-4.232 9.432-9.434 9.432M522.48 77.559c-.275 0-.5-.224-.5-.5V51.748c0-.276.225-.5.5-.5.277 0 .5.224.5.5v25.31c0 .277-.223.5-.5.5M545.562 67.78l-.71-.705c13.159-13.159 13.158-34.566 0-47.722-.194-.195-.194-.51 0-.707.196-.195.513-.195.708 0 13.547 13.546 13.548 35.587.002 49.134M536.775 59.501c-.128 0-.256-.049-.354-.146-.195-.196-.195-.512 0-.708 4.125-4.124 6.395-9.606 6.395-15.438-.001-5.832-2.271-11.314-6.395-15.437-.196-.196-.196-.512 0-.708.195-.195.51-.195.707 0 4.312 4.313 6.687 10.046 6.688 16.145 0 6.099-2.375 11.833-6.687 16.146-.098.097-.226.146-.354.146M499.754 67.927c-.128 0-.256-.05-.354-.146-13.545-13.547-13.545-35.588.001-49.134.196-.196.512-.196.707 0 .196.195.196.51 0 .707-13.156 13.155-13.157 34.562 0 47.719.195.196.195.512 0 .708-.098.097-.226.146-.354.146"/>
        <path fill="#06806B" d="M508.189 59.502c-.086 0-.171-.021-.248-.065-.04-.023-.075-.05-.107-.082-8.903-8.904-8.902-23.388 0-32.291.197-.195.513-.195.709 0 .195.196.195.512 0 .708-8.507 8.506-8.514 22.344-.02 30.859l.02.017c.195.196.195.512 0 .708-.098.097-.226.146-.354.146M522.48 34.382c-4.648 0-8.432 3.783-8.432 8.434 0 4.649 3.784 8.432 8.433 8.432 4.65 0 8.434-3.783 8.434-8.432 0-4.651-3.784-8.434-8.434-8.434m0 17.866c-5.201 0-9.433-4.231-9.433-9.432 0-5.203 4.232-9.434 9.433-9.434 5.202 0 9.434 4.23 9.434 9.434 0 5.2-4.232 9.432-9.434 9.432M92.6 116.94c-.105 0-.213-.033-.304-.104-.02-.015-.04-.032-.056-.05-5.493-5.495-8.516-12.799-8.515-20.568 0-7.77 3.027-15.077 8.523-20.572.196-.195.512-.195.707 0 .196.195.196.512 0 .707-5.306 5.306-8.23 12.361-8.23 19.865-.001 7.504 2.92 14.56 8.227 19.866l.007.007c.17.175.192.453.038.654-.098.128-.247.195-.397.195"/>
        <path fill="#06806B" d="M99.643 109.905c-.128 0-.256-.049-.354-.146-7.464-7.466-7.464-19.613 0-27.079.196-.195.512-.195.708 0 .195.196.195.512 0 .707-7.075 7.076-7.075 18.59 0 25.664.195.196.195.512 0 .708-.098.097-.226.146-.354.146M106.666 102.875c-.128 0-.256-.049-.354-.146-3.586-3.588-3.586-9.426.001-13.014.196-.195.512-.195.707 0 .196.195.196.512 0 .707-3.198 3.198-3.198 8.401 0 11.599.195.196.195.512 0 .708-.098.097-.226.146-.354.146M133.399 116.791l-.711-.703c10.956-10.958 10.954-28.781 0-39.735-.195-.195-.195-.511 0-.707.195-.195.512-.195.707 0 11.344 11.343 11.346 29.801.004 41.145M126 109.906c-.128 0-.256-.049-.354-.146-.195-.196-.195-.512 0-.708 3.428-3.427 5.316-7.985 5.316-12.832s-1.889-9.405-5.316-12.833c-.196-.195-.196-.51 0-.707.195-.195.511-.195.707 0 3.617 3.617 5.608 8.425 5.61 13.54 0 5.115-1.993 9.923-5.609 13.54-.098.097-.226.146-.354.146M118.976 102.875c-.128 0-.256-.049-.354-.146-.195-.196-.195-.512 0-.708 1.549-1.548 2.403-3.609 2.403-5.799 0-2.191-.854-4.251-2.403-5.8-.196-.195-.196-.512 0-.707.195-.195.51-.195.707 0 1.738 1.738 2.696 4.049 2.696 6.507 0 2.458-.957 4.768-2.695 6.507-.098.097-.226.146-.354.146M112.843 96.1c-.07 0-.13-.01-.19-.04-.06-.02-.12-.06-.16-.11-.05-.04-.09-.1-.11-.16-.03-.06-.04-.12-.04-.19s.01-.13.04-.19c.02-.06.06-.12.11-.16.14-.14.35-.19.54-.11.06.02.12.06.16.11.1.09.15.22.15.35 0 .13-.05.26-.15.35-.09.1-.22.15-.35.15"/>
        <path fill="#06806B" d="M112.844 96.1c-.067 0-.122.056-.122.122 0 .133.242.135.243 0 0-.066-.055-.121-.12-.121m0 1.243c-.62 0-1.123-.503-1.123-1.122 0-.618.503-1.121 1.122-1.121.618 0 1.121.503 1.121 1.12 0 .62-.503 1.123-1.12 1.123M457.6 241.94c-.105 0-.213-.033-.304-.104-.02-.015-.04-.032-.056-.05-5.493-5.495-8.516-12.799-8.515-20.568 0-7.77 3.027-15.077 8.523-20.572.196-.195.512-.195.707 0 .196.195.196.512 0 .707-5.306 5.306-8.23 12.361-8.23 19.865-.001 7.504 2.92 14.56 8.227 19.866l.007.007c.17.175.192.453.038.654-.098.128-.247.195-.397.195"/>
        <path fill="#06806B" d="M464.643 234.905c-.128 0-.256-.049-.354-.146-7.464-7.466-7.464-19.613 0-27.079.196-.195.512-.195.708 0 .195.196.195.512 0 .707-7.075 7.076-7.075 18.59 0 25.664.195.196.195.512 0 .708-.098.097-.226.146-.354.146M471.666 227.875c-.128 0-.256-.049-.354-.146-3.586-3.588-3.586-9.426.001-13.014.196-.195.512-.195.707 0 .196.195.196.512 0 .707-3.198 3.198-3.198 8.401 0 11.599.195.196.195.512 0 .708-.098.097-.226.146-.354.146M498.399 241.791l-.711-.703c10.956-10.958 10.954-28.781 0-39.735-.195-.195-.195-.511 0-.707.195-.195.512-.195.707 0 11.344 11.343 11.346 29.801.004 41.145M491 234.906c-.128 0-.256-.049-.354-.146-.195-.196-.195-.512 0-.708 3.428-3.427 5.316-7.985 5.316-12.832s-1.889-9.405-5.316-12.833c-.196-.195-.196-.51 0-.707.195-.195.511-.195.707 0 3.617 3.617 5.608 8.425 5.61 13.54 0 5.115-1.993 9.923-5.609 13.54-.098.097-.226.146-.354.146M483.976 227.875c-.128 0-.256-.049-.354-.146-.195-.196-.195-.512 0-.708 1.549-1.548 2.403-3.609 2.403-5.799 0-2.191-.854-4.251-2.403-5.8-.196-.195-.196-.512 0-.707.195-.195.51-.195.707 0 1.738 1.738 2.696 4.049 2.696 6.507 0 2.458-.957 4.768-2.695 6.507-.098.097-.226.146-.354.146M477.843 221.1c-.07 0-.13-.01-.19-.04-.06-.02-.12-.06-.16-.11-.05-.04-.09-.1-.11-.16-.03-.06-.04-.12-.04-.19 0-.13.05-.26.15-.35.04-.05.1-.09.16-.11.18-.08.4-.03.54.11.1.09.15.22.15.35 0 .13-.05.26-.15.35-.04.05-.1.09-.16.11-.06.03-.12.04-.19.04"/>
        <path fill="#06806B" d="M477.844 221.1c-.067 0-.122.056-.122.122 0 .133.242.135.243 0 0-.066-.055-.121-.12-.121m0 1.243c-.62 0-1.123-.503-1.123-1.122 0-.618.503-1.121 1.122-1.121.618 0 1.121.503 1.121 1.12 0 .62-.503 1.123-1.12 1.123"/>
        <path fill="#E6E6E6" d="M173 170.125s0 34.125 39 34.125h160.875c18.847 0 34.125-15.278 34.125-34.125H173z"/>
        <path fill="#7A7A7A" d="M387.5 170.125V58c0-10.77-8.73-19.5-19.5-19.5H212c-10.77 0-19.5 8.73-19.5 19.5v112.125h195z"/>
        <path fill="#B3B3B3" d="M260.75 170.125h58.5v9.75c0 2.692-2.183 4.875-4.875 4.875h-48.75c-2.692 0-4.875-2.183-4.875-4.875v-9.75z"/>
        <mask id="prefix__b" fill="#fff">
            <use xlink:href="#prefix__a"/>
        </mask>
        <path fill="#FFF" d="M202.787 160.061L377.213 160.061 377.213 58.313 202.787 58.313z" mask="url(#prefix__b)"/>
        <path fill="#5BAA2D" d="M353.375 233.5c-26.924 0-48.75-21.826-48.75-48.75S326.451 136 353.375 136s48.75 21.826 48.75 48.75c-.03 26.912-21.839 48.721-48.75 48.75" mask="url(#prefix__b)"/>
        <path fill="#FFF" d="M343.625 209.125c-1.293 0-2.533-.514-3.447-1.429l-14.625-14.625c-1.87-1.936-1.817-5.022.12-6.892 1.89-1.825 4.884-1.825 6.773 0l11.18 11.177 30.677-30.677c1.936-1.871 5.023-1.818 6.893.119 1.825 1.889 1.825 4.885 0 6.773l-34.125 34.125c-.914.915-2.153 1.429-3.446 1.429" mask="url(#prefix__b)"/>
        <path fill="#E1F3F1" d="M202.787 75.976L377.213 75.976 377.213 58.313 202.787 58.313z" mask="url(#prefix__b)"/>
        <path fill="#8D8E8E" d="M212.739 69.34L228.896 69.34 228.896 64.896 212.739 64.896zM244.957 69.34L271.112 69.34 271.112 64.896 244.957 64.896zM289.397 69.34L306.666 69.34 306.666 64.896 289.397 64.896zM331.615 69.34L348.884 69.34 348.884 64.896 331.615 64.896z" mask="url(#prefix__b)"/>
        <path fill="#E5E5E5" d="M255.689 103.781h-42.223c-1.156 0-2.092-.937-2.092-2.093V90.32c0-1.155.936-2.092 2.092-2.092h42.223c1.155 0 2.093.937 2.093 2.092v11.37c0 1.155-.938 2.092-2.093 2.092M366.788 103.781h-42.224c-1.155 0-2.09-.937-2.09-2.093V90.32c0-1.155.935-2.092 2.09-2.092h42.224c1.155 0 2.092.937 2.092 2.092v11.37c0 1.155-.937 2.092-2.092 2.092" mask="url(#prefix__b)"/>
        <path fill="#38816B" d="M264.575 101.91V90.097c0-2.259 1.832-4.092 4.092-4.092h42.667c2.26 0 4.093 1.833 4.093 4.092v11.814c0 2.26-1.832 4.092-4.093 4.092h-42.666c-2.261 0-4.093-1.832-4.093-4.093" mask="url(#prefix__b)"/>
        <path fill="#E1F3F1" d="M311.112 103.781h-42.224c-1.155 0-2.091-.937-2.091-2.093V90.32c0-1.155.936-2.092 2.09-2.092h42.225c1.155 0 2.092.937 2.092 2.092v11.37c0 1.155-.937 2.092-2.092 2.092" mask="url(#prefix__b)"/>
        <path fill="#8D8E8E" d="M216.072 98.226L242.227 98.226 242.227 93.782 216.072 93.782zM270.51 98.226L296.666 98.226 296.666 93.782 270.51 93.782zM326.06 98.226L352.215 98.226 352.215 93.782 326.06 93.782z" mask="url(#prefix__b)"/>
        <path fill="#E5E5E5" d="M255.689 128.223h-42.223c-1.156 0-2.092-.937-2.092-2.092v-11.37c0-1.155.936-2.092 2.092-2.092h42.223c1.155 0 2.093.937 2.093 2.093v11.369c0 1.155-.938 2.092-2.093 2.092M366.788 128.223h-42.224c-1.155 0-2.09-.937-2.09-2.092v-11.37c0-1.155.935-2.092 2.09-2.092h42.224c1.155 0 2.092.937 2.092 2.093v11.369c0 1.155-.937 2.092-2.092 2.092M311.112 128.223h-42.224c-1.155 0-2.091-.937-2.091-2.092v-11.37c0-1.155.936-2.092 2.09-2.092h42.225c1.155 0 2.092.937 2.092 2.093v11.369c0 1.155-.937 2.092-2.092 2.092" mask="url(#prefix__b)"/>
        <path fill="#8D8E8E" d="M216.072 122.668L242.227 122.668 242.227 118.224 216.072 118.224zM270.51 122.668L296.666 122.668 296.666 118.224 270.51 118.224z" mask="url(#prefix__b)"/>
        <path fill="#E5E5E5" d="M255.689 152.665h-42.223c-1.156 0-2.092-.937-2.092-2.093v-11.369c0-1.155.936-2.092 2.092-2.092h42.223c1.155 0 2.093.937 2.093 2.092v11.369c0 1.156-.938 2.093-2.093 2.093M311.112 152.665h-42.224c-1.155 0-2.091-.937-2.091-2.093v-11.369c0-1.155.936-2.092 2.09-2.092h42.225c1.155 0 2.092.937 2.092 2.092v11.369c0 1.156-.937 2.093-2.092 2.093" mask="url(#prefix__b)"/>
        <path fill="#8D8E8E" d="M216.072 147.11L242.227 147.11 242.227 142.666 216.072 142.666zM270.51 147.11L296.666 147.11 296.666 142.666 270.51 142.666zM326.06 122.668L352.215 122.668 352.215 118.224 326.06 118.224zM202.946 76.736L377.373 76.736 377.373 75.625 202.946 75.625z" mask="url(#prefix__b)"/>
        <path fill="#06806B" d="M43.001 33.388c-.128 0-.256-.05-.354-.146l-4.307-4.308c-.195-.195-.195-.512 0-.707.195-.195.512-.195.707 0l3.954 3.954 8.261-8.261c.195-.195.511-.195.707 0 .195.196.195.512 0 .707l-8.614 8.615c-.098.097-.226.146-.354.146" mask="url(#prefix__b)"/>
        <path fill="#06806B" d="M45.155 17.235c-6.256 0-11.345 5.09-11.345 11.345 0 6.256 5.089 11.345 11.345 11.345S56.5 34.836 56.5 28.58s-5.09-11.345-11.346-11.345m0 23.69c-6.807 0-12.345-5.538-12.345-12.345s5.538-12.345 12.345-12.345c6.808 0 12.346 5.538 12.346 12.345s-5.538 12.345-12.346 12.345M454.736 108.28c-.133 0-.26-.054-.354-.147l-6.411-6.413c-.195-.195-.195-.51 0-.707.196-.195.512-.195.707 0l6.058 6.06 12.47-12.47c.196-.196.512-.196.708 0 .195.195.195.511 0 .706l-12.824 12.824c-.094.093-.221.146-.354.146" mask="url(#prefix__b)"/>
        <path fill="#06806B" d="M457.942 84.235c-9.446 0-17.132 7.686-17.132 17.132 0 9.447 7.686 17.133 17.132 17.133 9.447 0 17.133-7.686 17.133-17.133 0-9.446-7.686-17.132-17.133-17.132m0 35.265c-9.998 0-18.132-8.135-18.132-18.133s8.134-18.132 18.132-18.132c9.998 0 18.133 8.134 18.133 18.132 0 9.998-8.135 18.133-18.133 18.133M143.452 40.926c-.132 0-.26-.053-.355-.146l-5.14-5.142c-.195-.195-.195-.512 0-.707.195-.195.512-.195.707 0l4.74 4.74 11.651-14.977c.168-.22.484-.258.701-.088.219.169.258.483.089.7l-11.999 15.427c-.088.113-.22.183-.364.192h-.03M547.416 254.926c-.132 0-.26-.053-.354-.146l-4.106-4.108c-.195-.195-.195-.512 0-.707.195-.195.512-.195.707 0l3.706 3.707 9.236-11.874c.17-.22.484-.258.702-.088.218.169.257.484.088.7l-9.584 12.323c-.088.113-.22.183-.364.192h-.03M539.317 131.926c-.132 0-.26-.053-.354-.146l-5.006-5.007c-.196-.196-.196-.512 0-.707.195-.196.51-.196.707 0l4.606 4.606 11.336-14.574c.17-.22.483-.258.7-.088.22.169.259.483.089.7l-11.683 15.023c-.088.113-.221.183-.364.192h-.031M131.657 176.926c-.132 0-.26-.053-.354-.146l-7.346-7.348c-.195-.195-.195-.512 0-.707.195-.195.512-.195.707 0l6.946 6.947 16.796-21.595c.169-.22.484-.258.7-.088.22.169.259.484.089.702l-17.143 22.042c-.088.113-.221.183-.364.192h-.031M453.232 170.648L454.232 170.648 454.232 156.746 453.232 156.746z" mask="url(#prefix__b)"/>
        <path fill="#06806B" d="M446.78 164.197L460.683 164.197 460.683 163.197 446.78 163.197zM25.831 150.343L20.702 137.421 21.632 137.052 26.761 149.974z" mask="url(#prefix__b)"/>
        <path fill="#06806B" d="M17.454 146.727L17.085 145.797 30.008 140.668 30.377 141.598zM411.409 35.162L410.464 34.836 414.526 23.026 415.471 23.352z" mask="url(#prefix__b)"/>
        <path fill="#06806B" d="M418.329 31.467L407.279 27.666 407.606 26.721 418.654 30.522zM49.32 76.599L39.953 68.34 40.615 67.59 49.982 75.849z" mask="url(#prefix__b)"/>
        <path fill="#06806B" d="M41.478 76.807L40.728 76.145 48.456 67.381 49.206 68.043zM393.667 261.482L394.667 261.482 394.667 247.648 393.667 247.648z" mask="url(#prefix__b)"/>
        <path fill="#06806B" d="M387.216 255.031L401.118 255.031 401.118 254.031 387.216 254.031zM228.667 238.482L229.667 238.482 229.667 224.648 228.667 224.648z" mask="url(#prefix__b)"/>
        <path fill="#06806B" d="M222.216 232.031L236.118 232.031 236.118 231.031 222.216 231.031zM278.822 22.973L272.619 10.608 273.513 10.159 279.717 22.524z" mask="url(#prefix__b)"/>
        <path fill="#06806B" d="M270.162 20.099L269.713 19.204 282.141 12.971 282.59 13.866z" mask="url(#prefix__b)"/>
    </g>
</svg>
