<svg xmlns="http://www.w3.org/2000/svg" xmlns:xlink="http://www.w3.org/1999/xlink" width="320" height="149" viewBox="0 0 320 149">
    <defs>
        <path id="prefix__a" d="M0 149L320 149 320 0 0 0z"/>
    </defs>
    <g fill="none" fill-rule="evenodd">
        <path fill="#06806B" d="M28.143 90.09c-4.221 0-7.656 3.435-7.656 7.657 0 4.221 3.435 7.657 7.656 7.657h14.275c6.845 0 12.414-5.57 12.414-12.417 0-6.846-5.569-12.417-12.414-12.417-5.761 0-10.739 3.926-12.103 9.547-.018.073-.065.136-.13.174-.064.037-.143.047-.215.026-.497-.142-1.18-.227-1.827-.227m14.275 15.866H28.143c-4.526 0-8.207-3.683-8.207-8.21 0-4.526 3.681-8.208 8.207-8.208.593 0 1.198.064 1.704.179 1.517-5.725 6.648-9.698 12.571-9.698 7.15 0 12.966 5.817 12.966 12.968 0 7.15-5.816 12.969-12.966 12.969M279.083 15.338c-3.19 0-6.215 1.214-8.55 3.439-2.407 2.294-3.776 5.377-3.855 8.679-.08 3.302 1.14 6.446 3.435 8.854 2.294 2.408 5.376 3.778 8.676 3.857l14.272.343c4.214.11 7.735-3.25 7.837-7.47.101-4.221-3.25-7.737-7.469-7.839-.651-.02-1.332.053-1.833.183-.071.021-.15.007-.214-.032s-.11-.102-.125-.176c-1.23-5.652-6.11-9.696-11.871-9.834-.1-.003-.202-.004-.303-.004zm14.164 25.727c-.067 0-.132-.001-.2-.003l-14.27-.343c-3.449-.083-6.668-1.513-9.064-4.028-2.396-2.515-3.67-5.8-3.587-9.248.083-3.45 1.513-6.669 4.027-9.065 2.515-2.397 5.814-3.678 9.246-3.588 5.923.142 10.956 4.237 12.335 9.997.509-.103 1.114-.152 1.708-.138 4.524.109 8.116 3.88 8.007 8.404-.107 4.458-3.768 8.012-8.202 8.012zM267.274 108.439c-6.335 0-11.546 4.969-11.863 11.312-.006.12-.089.223-.206.254-2.737.703-4.649 3.156-4.649 5.965 0 3.418 2.78 6.199 6.198 6.199h22.658c3.417 0 6.197-2.781 6.197-6.2 0-3.418-2.78-6.199-6.197-6.199h-.081c-.146 0-.267-.113-.275-.258-.399-6.21-5.573-11.073-11.782-11.073m12.138 24.281h-22.658c-3.721 0-6.75-3.028-6.75-6.75 0-2.994 1.992-5.616 4.868-6.447.43-6.541 5.84-11.636 12.402-11.636 6.413 0 11.772 4.957 12.313 11.333 3.641.094 6.574 3.085 6.574 6.75 0 3.722-3.028 6.75-6.749 6.75"/>
        <path fill="#E2AC4B" d="M225.943 53.17c-.34-.339-.832-.468-1.292-.345-2.235.61-4.48.92-6.67.92-13.948 0-25.295-11.35-25.295-25.3 0-2.194.309-4.439.92-6.673.126-.46-.005-.954-.343-1.292-.337-.338-.832-.467-1.292-.343-12.122 3.312-20.587 14.394-20.587 26.95 0 15.42 12.543 27.965 27.958 27.965 12.554 0 23.634-8.467 26.944-20.59.126-.462-.005-.955-.343-1.293"/>
        <path fill="#06806B" d="M215.318 19.123c-2.202 0-3.994-1.792-3.994-3.995 0-.736-.595-1.332-1.331-1.332s-1.331.596-1.331 1.332c0 2.203-1.792 3.995-3.995 3.995-.735 0-1.331.596-1.331 1.332 0 .735.596 1.331 1.331 1.331 2.203 0 3.995 1.792 3.995 3.995 0 .735.595 1.332 1.331 1.332s1.331-.597 1.331-1.332c0-2.203 1.792-3.995 3.994-3.995.736 0 1.332-.596 1.332-1.331 0-.736-.596-1.332-1.332-1.332"/>
        <path fill="#0B9D88" d="M231.294 35.102c-2.202 0-3.993-1.791-3.993-3.994 0-.736-.596-1.332-1.332-1.332-.736 0-1.331.596-1.331 1.332 0 2.203-1.793 3.994-3.994 3.994-.736 0-1.332.597-1.332 1.332 0 .736.596 1.332 1.332 1.332 2.201 0 3.994 1.792 3.994 3.995 0 .735.595 1.332 1.331 1.332s1.332-.597 1.332-1.332c0-2.203 1.791-3.995 3.993-3.995.736 0 1.331-.596 1.331-1.332 0-.735-.595-1.332-1.331-1.332"/>
        <path fill="#06806B" d="M11.306 13.146c-.152 0-.276-.123-.276-.276V8.298c0-.153.124-.276.276-.276.152 0 .276.123.276.276v4.572c0 .153-.124.276-.276.276"/>
        <path fill="#06806B" d="M13.544 10.813H9.067c-.153 0-.276-.123-.276-.276 0-.152.123-.275.276-.275h4.477c.152 0 .276.123.276.275 0 .153-.124.276-.276.276M49.417 46.873c-.152 0-.275-.123-.275-.275 0-.153.123-.276.275-.276 1.739 0 3.154-1.415 3.154-3.155 0-.152.123-.276.276-.276.152 0 .276.124.276.276 0 2.044-1.663 3.706-3.706 3.706"/>
        <path fill="#06806B" d="M56.276 46.873c-2.043 0-3.705-1.662-3.705-3.706 0-.152.123-.276.276-.276.153 0 .276.124.276.276 0 1.74 1.414 3.155 3.153 3.155.152 0 .276.123.276.276 0 .152-.124.275-.276.275M52.847 50.303c-.152 0-.276-.123-.276-.276 0-1.739-1.415-3.154-3.154-3.154-.152 0-.276-.123-.276-.276 0-.152.124-.275.276-.275 2.043 0 3.706 1.662 3.706 3.705 0 .153-.124.276-.276.276"/>
        <path fill="#06806B" d="M52.847 50.303c-.152 0-.276-.123-.276-.276 0-2.043 1.662-3.705 3.705-3.705.152 0 .276.123.276.275 0 .153-.124.276-.276.276-1.74 0-3.153 1.415-3.153 3.154 0 .153-.124.276-.276.276M280.59 66.74c-.152 0-.276-.123-.276-.276 0-.152.124-.276.276-.276 1.738 0 3.153-1.415 3.153-3.154 0-.152.123-.276.276-.276.153 0 .276.124.276.276 0 2.043-1.662 3.706-3.705 3.706"/>
        <path fill="#06806B" d="M287.448 66.74c-2.042 0-3.705-1.663-3.705-3.706 0-.152.124-.276.276-.276.153 0 .276.124.276.276 0 1.74 1.415 3.154 3.153 3.154.152 0 .276.124.276.276 0 .153-.124.276-.276.276M284.02 70.17c-.153 0-.277-.124-.277-.276 0-1.739-1.414-3.154-3.153-3.154-.153 0-.276-.123-.276-.276 0-.152.123-.276.276-.276 2.043 0 3.705 1.663 3.705 3.706 0 .152-.123.276-.276.276"/>
        <path fill="#06806B" d="M284.02 70.17c-.153 0-.277-.124-.277-.276 0-2.043 1.663-3.706 3.705-3.706.152 0 .276.124.276.276 0 .153-.124.276-.276.276-1.739 0-3.153 1.415-3.153 3.154 0 .152-.123.276-.276.276M10.797 128.548c-.153 0-.276-.124-.276-.276 0-.153.123-.276.276-.276 1.738 0 3.153-1.415 3.153-3.155 0-.152.123-.276.276-.276.152 0 .276.124.276.276 0 2.044-1.662 3.707-3.705 3.707"/>
        <path fill="#06806B" d="M17.655 128.548c-2.042 0-3.705-1.663-3.705-3.707 0-.152.124-.276.276-.276.153 0 .276.124.276.276 0 1.74 1.415 3.155 3.153 3.155.152 0 .276.123.276.276 0 .152-.124.276-.276.276M14.226 131.977c-.152 0-.276-.123-.276-.276 0-1.739-1.414-3.154-3.153-3.154-.153 0-.276-.123-.276-.275 0-.153.123-.276.276-.276 2.043 0 3.705 1.662 3.705 3.705 0 .153-.124.276-.276.276"/>
        <path fill="#06806B" d="M14.226 131.977c-.152 0-.276-.123-.276-.276 0-2.043 1.663-3.705 3.705-3.705.152 0 .276.123.276.276 0 .152-.124.275-.276.275-1.739 0-3.153 1.415-3.153 3.154 0 .153-.124.276-.276.276M18.994 40.202c-.48 0-.89-.126-1.187-.422-1.653-1.653 1.91-6.745 3.52-8.857.091-.122.266-.144.386-.052s.144.265.052.386c-3.495 4.588-4.31 7.391-3.568 8.133.635.639 2.54.089 5.093-1.471 2.73-1.668 5.95-4.303 9.065-7.418 6.894-6.895 10.164-12.89 8.892-14.163-.743-.746-3.545.07-8.13 3.57-.121.091-.294.069-.387-.053-.093-.121-.07-.294.051-.386 2.112-1.612 7.202-5.182 8.857-3.52 1.892 1.893-3.036 9.084-8.893 14.942-3.145 3.145-6.4 5.809-9.167 7.499-1.48.903-3.288 1.812-4.584 1.812"/>
        <path fill="#06806B" d="M24.561 34.869c-.053 0-.106-.015-.153-.046-4.06-2.706-5.163-8.212-2.457-12.274 2.705-4.06 8.209-5.164 12.27-2.457.98.651 1.806 1.479 2.458 2.457.084.127.05.298-.077.383-.126.083-.298.05-.382-.077-.612-.918-1.387-1.693-2.305-2.304-3.807-2.539-8.97-1.504-11.505 2.304-2.537 3.81-1.503 8.971 2.304 11.509.127.084.161.256.077.382-.054.08-.14.123-.23.123M29.318 36.308c-.153 0-.276-.123-.276-.275 0-.153.123-.276.276-.276 4.575 0 8.297-3.723 8.297-8.3 0-.151.123-.275.275-.275.153 0 .276.124.276.276 0 4.88-3.969 8.85-8.848 8.85M75.745 78.56c2.205.552 3.575 1.968 4.094 4.234.586-2.264 1.946-3.68 4.065-4.232-2.188-.553-3.563-1.896-4.11-4.015-.55 2.118-1.903 3.46-4.049 4.013m4.055 6.701h-.006c-.149-.003-.269-.124-.27-.273-.037-4.131-2.043-6.14-6.135-6.14-.151 0-.275-.121-.276-.273 0-.152.121-.276.273-.278 4.114-.056 6.121-2.063 6.138-6.137 0-.152.124-.275.276-.275h.001c.153 0 .276.125.275.277-.013 4.042 1.996 6.049 6.14 6.135.152.003.272.128.27.28-.001.151-.125.272-.275.272h-.046c-3.891 0-5.883 2.012-6.09 6.15-.007.148-.129.262-.275.262M305.035 10.685c1.37.42 2.26 1.339 2.66 2.748.436-1.405 1.317-2.322 2.634-2.744-1.363-.416-2.255-1.286-2.67-2.605-.416 1.315-1.293 2.184-2.624 2.601m2.627 4.901h-.006c-.149-.003-.269-.125-.27-.273-.026-2.962-1.404-4.341-4.338-4.341-.151 0-.275-.123-.276-.275 0-.151.121-.276.273-.277 2.91-.04 4.33-1.46 4.341-4.34 0-.152.124-.275.276-.275h.001c.153 0 .276.124.275.277-.009 2.858 1.412 4.276 4.344 4.338.15.002.271.127.27.278-.002.152-.126.274-.276.274h-.032c-2.751 0-4.16 1.423-4.307 4.352-.007.147-.129.262-.275.262M239.607 78.008c2.205.552 3.575 1.968 4.094 4.234.586-2.264 1.946-3.679 4.066-4.232-2.19-.553-3.564-1.896-4.11-4.015-.55 2.118-1.904 3.46-4.05 4.013m4.055 6.701h-.006c-.149-.003-.269-.124-.27-.273-.037-4.13-2.043-6.139-6.135-6.139-.151 0-.275-.122-.276-.274 0-.152.121-.276.273-.278 4.114-.056 6.121-2.063 6.138-6.137 0-.152.124-.275.276-.275.165-.007.277.124.276.277-.013 4.042 1.996 6.049 6.14 6.135.152.003.272.128.27.28-.001.151-.125.272-.275.272-.019-.004-.03 0-.046 0-3.891 0-5.883 2.012-6.09 6.15-.007.148-.129.262-.275.262M90.734 39.803c.968.41 1.715 1.203 2.081 2.165.378-1.045 1.06-1.756 2.043-2.128-.631-.253-1.186-.67-1.611-1.224-.203-.263-.368-.546-.495-.843-.256.603-.662 1.133-1.195 1.543-.257.198-.533.361-.823.487m2.019 4.292h-.027c-.146-.015-.256-.142-.249-.29.008-.155.02-.306.035-.453.016-1.612-1.165-3.03-2.802-3.266-.327.042-.663.044-1 0-.136-.018-.239-.134-.24-.272 0-.138.1-.256.237-.275.332-.047.667-.05 1-.01.546-.083 1.064-.303 1.513-.65.687-.53 1.131-1.292 1.253-2.149-.037-.316-.036-.638.006-.961.017-.138.135-.24.273-.24.14 0 .256.102.274.24.041.32.042.642.003.96.08.56.301 1.091.655 1.55.537.699 1.314 1.146 2.188 1.26.087.01.174.019.26.023.202-.018.406-.027.628-.026.145 0 .265.114.274.259.01.145-.096.272-.24.291-.214.028-.432.038-.645.029-1.85.18-2.865 1.256-3.085 3.27-.003.157-.016.315-.039.473-.019.138-.136.237-.272.237M294.32 97.195c.969.411 1.715 1.204 2.081 2.166.378-1.046 1.06-1.757 2.044-2.129-.632-.252-1.187-.67-1.612-1.224-.203-.262-.368-.545-.495-.842-.255.602-.662 1.132-1.195 1.543-.257.198-.533.36-.823.486m2.02 4.293l-.028-.001c-.146-.014-.256-.141-.249-.289.008-.155.02-.307.036-.454.016-1.612-1.166-3.03-2.803-3.265-.327.043-.663.043-1 0-.136-.019-.239-.135-.24-.273 0-.137.1-.255.237-.275.332-.046.667-.05 1-.01.546-.082 1.064-.303 1.513-.65.687-.53 1.131-1.291 1.253-2.148-.037-.316-.036-.638.006-.962.018-.137.135-.24.274-.24s.256.103.273.241c.042.319.042.642.004.96.078.559.3 1.09.654 1.55.537.698 1.315 1.145 2.189 1.26.086.01.173.018.259.022.202-.018.407-.023.628-.025.145 0 .265.114.275.258.009.145-.096.273-.24.292-.215.027-.432.038-.646.028-1.85.18-2.865 1.256-3.085 3.271-.003.156-.016.315-.038.473-.02.137-.137.237-.273.237M143.126 30.184c1.458.436 2.397 1.408 2.81 2.906.454-1.494 1.385-2.464 2.785-2.902-1.448-.431-2.392-1.352-2.824-2.754-.43 1.399-1.356 2.318-2.771 2.75m2.776 5.095h-.006c-.15-.003-.27-.124-.27-.274-.027-3.094-1.467-4.535-4.532-4.535-.151 0-.275-.122-.276-.274-.001-.152.12-.276.273-.278 3.04-.04 4.523-1.522 4.535-4.534 0-.152.124-.275.276-.275.147-.006.276.124.275.277v.001c-.008 2.987 1.476 4.468 4.538 4.531.152.003.272.128.27.279 0 .152-.124.273-.275.273-.006.002-.02 0-.03 0-2.874 0-4.347 1.487-4.503 4.547-.007.147-.129.262-.275.262"/>
        <path fill="#51BCAB" d="M216.056 108.144H103.944c-1.408 0-2.548-1.14-2.548-2.549s1.14-2.548 2.548-2.548h112.112c1.407 0 2.548 1.14 2.548 2.548 0 1.409-1.14 2.549-2.548 2.549"/>
        <path fill="#08907B" d="M200.768 125.984h-81.536c-1.407 0-2.548-1.14-2.548-2.549 0-1.408 1.14-2.548 2.548-2.548h81.536c1.408 0 2.548 1.14 2.548 2.548 0 1.41-1.14 2.549-2.548 2.549"/>
        <path fill="#E0E0E0" d="M109.946 103.046h100.108c5.208-4.208 8.55-10.637 8.55-17.84 0-12.648-10.287-22.938-22.932-22.938-3.655 0-7.214.872-10.444 2.545-4.938-10.785-15.739-17.836-27.776-17.836-11.325 0-21.663 6.275-26.953 16.168-2.036-.582-4.102-.877-6.171-.877-12.645 0-22.932 10.29-22.932 22.938 0 7.203 3.343 13.632 8.55 17.84"/>
        <mask id="prefix__b" fill="#fff">
            <use xlink:href="#prefix__a"/>
        </mask>
        <path fill="#06806B" d="M15.804 70.942L16.356 70.942 16.356 63.308 15.804 63.308z" mask="url(#prefix__b)"/>
        <path fill="#06806B" d="M12.244 67.382L19.915 67.382 19.915 66.83 12.244 66.83zM122.111 13.82L118.689 6.996 119.182 6.749 122.605 13.572z" mask="url(#prefix__b)"/>
        <path fill="#06806B" d="M117.334 12.233L117.086 11.74 123.942 8.3 124.19 8.794zM63.161 135.467L62.626 135.334 64.472 127.927 65.008 128.06z" mask="url(#prefix__b)"/>
        <path fill="#06806B" d="M67.476 132.874L60.033 131.018 60.167 130.482 67.61 132.338zM308.042 139.09L304.62 132.267 305.113 132.019 308.536 138.843z" mask="url(#prefix__b)"/>
        <path fill="#06806B" d="M303.265 137.504L303.017 137.01 309.873 133.57 310.121 134.064zM147.49 140.746L144.068 133.922 144.562 133.675 147.984 140.498z" mask="url(#prefix__b)"/>
        <path fill="#06806B" d="M142.713 139.159L142.465 138.665 149.322 135.226 149.569 135.72z" mask="url(#prefix__b)"/>
    </g>
</svg>
