<svg xmlns="http://www.w3.org/2000/svg" width="64" height="64" viewBox="0 0 64 64">
    <g fill="none" fill-rule="evenodd">
        <path d="M0 0h64v64H0z"/>
        <g stroke="#000" stroke-linecap="round" stroke-linejoin="round" stroke-width="2">
            <path d="M62.533 60.777a1.312 1.312 0 0 1-1.173 1.895H27.253a1.312 1.312 0 0 1-1.173-1.9l5.108-8.597h26.237l5.108 8.602zM32.5 33.804h23.613c.724 0 1.312.588 1.312 1.312v17.059H31.188V35.116c0-.724.588-1.312 1.312-1.312zM42.995 57.423h2.623M33.074 24.882a14.476 14.476 0 0 1-2.099-8.015v-3.27c.252-6.227-4.591-11.48-10.817-11.73-6.226-.252-11.476 4.592-11.728 10.82-.012.303-.012.606 0 .91v3.275c.09 2.82-.646 5.603-2.117 8.01"/>
            <path d="M8.425 15.457a14.922 14.922 0 0 0 11.282-5.17 14.932 14.932 0 0 0 11.281 5.17M29.632 15.397a9.948 9.948 0 1 1-19.872 0M24.94 29.322C15.21 26.43 4.98 31.976 2.09 41.709a18.388 18.388 0 0 0-.762 5.222h20.99"/>
        </g>
    </g>
</svg>
