<svg xmlns="http://www.w3.org/2000/svg" xmlns:xlink="http://www.w3.org/1999/xlink" width="261" height="196" viewBox="0 0 261 196">
    <defs>
        <linearGradient id="prefix__c" x1="50%" x2="50%" y1="0%" y2="100%">
            <stop offset="0%" stop-color="#FFF" stop-opacity="0"/>
            <stop offset="100%" stop-color="#FFF"/>
        </linearGradient>
        <filter id="prefix__a" width="110.2%" height="114%" x="-5.1%" y="-6.4%" filterUnits="objectBoundingBox">
            <feOffset dy="1" in="SourceAlpha" result="shadowOffsetOuter1"/>
            <feGaussianBlur in="shadowOffsetOuter1" result="shadowBlurOuter1" stdDeviation="4"/>
            <feColorMatrix in="shadowBlurOuter1" result="shadowMatrixOuter1" values="0 0 0 0 0 0 0 0 0 0 0 0 0 0 0 0 0 0 0.2 0"/>
            <feMorphology in="SourceAlpha" radius="1" result="shadowSpreadOuter2"/>
            <feOffset dy="3" in="shadowSpreadOuter2" result="shadowOffsetOuter2"/>
            <feGaussianBlur in="shadowOffsetOuter2" result="shadowBlurOuter2" stdDeviation="1.5"/>
            <feColorMatrix in="shadowBlurOuter2" result="shadowMatrixOuter2" values="0 0 0 0 0 0 0 0 0 0 0 0 0 0 0 0 0 0 0.12 0"/>
            <feOffset dy="3" in="SourceAlpha" result="shadowOffsetOuter3"/>
            <feGaussianBlur in="shadowOffsetOuter3" result="shadowBlurOuter3" stdDeviation="2"/>
            <feColorMatrix in="shadowBlurOuter3" result="shadowMatrixOuter3" values="0 0 0 0 0 0 0 0 0 0 0 0 0 0 0 0 0 0 0.14 0"/>
            <feMerge>
                <feMergeNode in="shadowMatrixOuter1"/>
                <feMergeNode in="shadowMatrixOuter2"/>
                <feMergeNode in="shadowMatrixOuter3"/>
            </feMerge>
        </filter>
        <rect id="prefix__b" width="245" height="179" x="8" y="8" rx="8"/>
    </defs>
    <g fill="none" fill-rule="evenodd">
        <path fill="#FFF" d="M0 0H261V195H0z"/>
        <use fill="#000" filter="url(#prefix__a)" xlink:href="#prefix__b"/>
        <use fill="#FFF" xlink:href="#prefix__b"/>
        <path fill="#F6F6F6" d="M16 8h229c4.418 0 8 3.582 8 8v48H8V16c0-4.418 3.582-8 8-8z"/>
        <path fill="#303030" fill-rule="nonzero" d="M29.432 31v-3.822l3.304-6.314h-2.184l-2.142 4.34h-.07l-2.226-4.34h-2.366l3.514 6.342V31h2.17zm7.098.168c1.736 0 2.828-.882 3.094-2.24l-1.778-.434c-.14.616-.434 1.036-1.19 1.036-.924 0-1.428-.448-1.47-1.652h4.438c.028-.252.042-.714.042-.952 0-2.03-.924-3.374-3.136-3.374-1.96 0-3.57 1.19-3.57 3.822 0 1.974.868 3.794 3.57 3.794zm.952-4.634h-2.268c.014-1.064.602-1.456 1.204-1.456.686 0 1.064.406 1.064 1.456zM43.096 31V20.43h-2.114V31h2.114zm3.752 0V20.43h-2.114V31h2.114zm4.83.168c2.618 0 3.71-1.554 3.71-3.934 0-2.156-.98-3.682-3.514-3.682s-3.752 1.498-3.752 3.836c0 2.184.91 3.78 3.556 3.78zm.098-1.568c-1.036 0-1.442-.644-1.442-2.268 0-1.582.532-2.184 1.484-2.184.938 0 1.372.56 1.372 2.156 0 1.708-.49 2.296-1.414 2.296zM60.47 31l1.078-4.76h.028L62.752 31h2.38l2.17-7.294h-2.058l-1.274 5.096h-.042l-1.288-5.096h-2.072L59.28 28.83h-.028l-1.33-5.124h-2.114L57.964 31h2.506zm10.206.168c1.792 0 3.206-.798 3.206-2.464 0-1.722-1.288-2.002-2.562-2.226-.868-.154-1.484-.266-1.484-.798 0-.42.322-.644.924-.644.77 0 1.078.378 1.26.994l1.736-.546c-.35-1.218-1.26-1.932-2.912-1.932-1.624 0-3.038.77-3.038 2.38 0 1.778 1.358 2.072 2.632 2.31.854.154 1.358.238 1.358.784 0 .448-.336.686-1.05.686-.994 0-1.288-.546-1.456-1.106l-1.722.56c.252 1.204 1.232 2.002 3.108 2.002zm7.098 0c.924 0 1.778-.28 2.142-.518l-.294-1.498c-.28.168-.784.336-1.204.336-.672 0-.854-.336-.854-.98v-3.262h1.932v-1.54h-1.932V21.27l-2.114.28v2.156h-1.092v1.54h1.092v3.556c0 1.666.798 2.366 2.324 2.366zm6.286 0c2.618 0 3.71-1.554 3.71-3.934 0-2.156-.98-3.682-3.514-3.682s-3.752 1.498-3.752 3.836c0 2.184.91 3.78 3.556 3.78zm.098-1.568c-1.036 0-1.442-.644-1.442-2.268 0-1.582.532-2.184 1.484-2.184.938 0 1.372.56 1.372 2.156 0 1.708-.49 2.296-1.414 2.296zm7 1.4v-5.166c.28-.252.854-.574 1.428-.574.658 0 .966.336.966 1.12V31h2.114v-4.984c0-1.666-.7-2.464-2.31-2.464-.994 0-1.792.392-2.324.882l-.112-.728h-1.876V31h2.114zm9.296.168c1.736 0 2.828-.882 3.094-2.24l-1.778-.434c-.14.616-.434 1.036-1.19 1.036-.924 0-1.428-.448-1.47-1.652h4.438c.028-.252.042-.714.042-.952 0-2.03-.924-3.374-3.136-3.374-1.96 0-3.57 1.19-3.57 3.822 0 1.974.868 3.794 3.57 3.794zm.952-4.634h-2.268c.014-1.064.602-1.456 1.204-1.456.686 0 1.064.406 1.064 1.456zM109.512 31v-7.154L113.418 31h2.492V20.864h-1.96v7.182l-3.836-7.182h-2.576V31h1.974zm10.066.168c1.008 0 1.708-.336 2.17-.938.154.686.658.924 1.498.924.448 0 1.064-.14 1.344-.28l-.056-1.218c-.182.056-.308.084-.434.084-.364 0-.434-.168-.434-.56v-3.052c0-1.82-.98-2.576-2.926-2.576-1.988 0-2.856.812-3.08 2.184l1.792.35c.14-.714.406-1.008 1.106-1.008.924 0 1.036.504 1.036 1.33v.266c-1.876-.014-4.186.322-4.186 2.548 0 .728.35 1.946 2.17 1.946zm.812-1.498c-.672 0-.854-.378-.854-.798 0-.742.728-.938 1.736-.966h.336v1.288c-.224.224-.714.476-1.218.476zm7.868 1.498c.924 0 1.778-.28 2.142-.518l-.294-1.498c-.28.168-.784.336-1.204.336-.672 0-.854-.336-.854-.98v-3.262h1.932v-1.54h-1.932V21.27l-2.114.28v2.156h-1.092v1.54h1.092v3.556c0 1.666.798 2.366 2.324 2.366zm4.158-8.414c.798 0 1.274-.476 1.274-1.288s-.476-1.274-1.274-1.274c-.812 0-1.274.462-1.274 1.274s.462 1.288 1.274 1.288zm1.05 8.246v-7.294h-2.114V31h2.114zm4.83.168c2.618 0 3.71-1.554 3.71-3.934 0-2.156-.98-3.682-3.514-3.682s-3.752 1.498-3.752 3.836c0 2.184.91 3.78 3.556 3.78zm.098-1.568c-1.036 0-1.442-.644-1.442-2.268 0-1.582.532-2.184 1.484-2.184.938 0 1.372.56 1.372 2.156 0 1.708-.49 2.296-1.414 2.296zm7 1.4v-5.166c.28-.252.854-.574 1.428-.574.658 0 .966.336.966 1.12V31h2.114v-4.984c0-1.666-.7-2.464-2.31-2.464-.994 0-1.792.392-2.324.882l-.112-.728h-1.876V31h2.114zm7.896.168c1.008 0 1.708-.336 2.17-.938.154.686.658.924 1.498.924.448 0 1.064-.14 1.344-.28l-.056-1.218c-.182.056-.308.084-.434.084-.364 0-.434-.168-.434-.56v-3.052c0-1.82-.98-2.576-2.926-2.576-1.988 0-2.856.812-3.08 2.184l1.792.35c.14-.714.406-1.008 1.106-1.008.924 0 1.036.504 1.036 1.33v.266c-1.876-.014-4.186.322-4.186 2.548 0 .728.35 1.946 2.17 1.946zm.812-1.498c-.672 0-.854-.378-.854-.798 0-.742.728-.938 1.736-.966h.336v1.288c-.224.224-.714.476-1.218.476zM161.41 31V20.43h-2.114V31h2.114zm6.412 0v-3.276h1.106c2.632 0 3.962-1.26 3.962-3.696 0-1.61-.784-3.164-3.374-3.164h-3.836V31h2.142zm.868-5.012h-.868V22.6h1.036c1.05 0 1.82.28 1.82 1.582 0 1.484-.882 1.806-1.988 1.806zm7.294 5.18c1.008 0 1.708-.336 2.17-.938.154.686.658.924 1.498.924.448 0 1.064-.14 1.344-.28l-.056-1.218c-.182.056-.308.084-.434.084-.364 0-.434-.168-.434-.56v-3.052c0-1.82-.98-2.576-2.926-2.576-1.988 0-2.856.812-3.08 2.184l1.792.35c.14-.714.406-1.008 1.106-1.008.924 0 1.036.504 1.036 1.33v.266c-1.876-.014-4.186.322-4.186 2.548 0 .728.35 1.946 2.17 1.946zm.812-1.498c-.672 0-.854-.378-.854-.798 0-.742.728-.938 1.736-.966h.336v1.288c-.224.224-.714.476-1.218.476zm7.266 1.33v-4.718c.616-.49 1.554-.742 2.506-.658v-2.058c-.126 0-.252-.014-.364-.014-1.12 0-1.806.588-2.296 1.302l-.154-1.148h-1.806V31h2.114zm5.53 0v-2.646l.7-.686 1.89 3.332h2.338l-2.604-4.676 2.422-2.618H192l-2.408 2.548V20.43h-2.114V31h2.114z"/>
        <g>
            <path d="M0 0H16V16H0z" transform="translate(24 40)"/>
            <path fill="#878787" fill-rule="nonzero" d="M7.333 11.333h1.334v-4H7.333v4zm.667-10C4.32 1.333 1.333 4.32 1.333 8c0 3.68 2.987 6.667 6.667 6.667 3.68 0 6.667-2.987 6.667-6.667 0-3.68-2.987-6.667-6.667-6.667zm0 12c-2.94 0-5.333-2.393-5.333-5.333C2.667 5.06 5.06 2.667 8 2.667c2.94 0 5.333 2.393 5.333 5.333 0 2.94-2.393 5.333-5.333 5.333zM7.333 6h1.334V4.667H7.333V6z" transform="translate(24 40)"/>
        </g>
        <path fill="#DEDEDE" d="M45 45H220V52H45z"/>
        <g>
            <path fill="#000" fill-rule="nonzero" d="M9.576 15v-1.44H3.384V9.15h5.598V7.71H3.384V3.408h5.958v-1.44H1.728V15h7.848zm6.282 0l3.474-9.252h-1.674l-2.682 7.614h-.018L12.24 5.748h-1.782L13.986 15h1.872zm8.73.216c1.854 0 3.294-.882 3.672-2.682l-1.44-.324c-.252 1.044-.864 1.638-2.178 1.638-1.476 0-2.52-.738-2.592-3.096h6.228c.054-.432.072-.846.072-1.206 0-2.286-1.08-3.996-3.672-3.996-2.376 0-4.356 1.458-4.356 4.842 0 2.538.99 4.824 4.266 4.824zm2.07-5.76h-4.59c.09-1.836 1.278-2.574 2.502-2.574 1.458 0 2.088.918 2.088 2.574zM32.364 15V8.268c.756-.702 2.124-1.17 3.276-1.008V5.568l-.342-.018c-1.296 0-2.268.432-3.078 1.53l-.126-1.332h-1.368V15h1.638zm5.058 4.014c1.458 0 2.304-.702 3.042-2.664L44.46 5.748h-1.674l-2.538 7.344h-.018l-2.448-7.344h-1.818l3.438 9.36-.432 1.134c-.414 1.098-.99 1.44-1.656 1.44-.486 0-1.134-.162-1.476-.288l-.198 1.278c.36.162 1.098.342 1.782.342zm12.582 0c1.458 0 2.304-.702 3.042-2.664l3.996-10.602h-1.674l-2.538 7.344h-.018l-2.448-7.344h-1.818l3.438 9.36-.432 1.134c-.414 1.098-.99 1.44-1.656 1.44-.486 0-1.134-.162-1.476-.288l-.198 1.278c.36.162 1.098.342 1.782.342zm12.276-3.798c1.854 0 3.294-.882 3.672-2.682l-1.44-.324c-.252 1.044-.864 1.638-2.178 1.638-1.476 0-2.52-.738-2.592-3.096h6.228c.054-.432.072-.846.072-1.206 0-2.286-1.08-3.996-3.672-3.996-2.376 0-4.356 1.458-4.356 4.842 0 2.538.99 4.824 4.266 4.824zm2.07-5.76h-4.59c.09-1.836 1.278-2.574 2.502-2.574 1.458 0 2.088.918 2.088 2.574zm6.354 5.76c1.296 0 2.25-.414 2.97-1.134.09.594.504 1.098 1.422 1.098.45 0 .918-.108 1.278-.288l-.072-1.026c-.234.072-.396.108-.558.108-.468 0-.558-.216-.558-.72V8.736c0-2.304-1.026-3.186-3.312-3.186-2.142 0-3.258.81-3.546 2.538l1.44.27c.198-1.026.684-1.53 1.962-1.53 1.512 0 1.836.72 1.836 1.89v.9c-.252-.018-.522-.036-.81-.036-2.61 0-4.788.684-4.788 3.15 0 .9.396 2.484 2.736 2.484zm.504-1.278c-1.26 0-1.548-.684-1.548-1.476 0-1.584 1.71-1.71 2.988-1.71.342 0 .684.018.936.054v2.088c-.504.54-1.422 1.044-2.376 1.044zM79.866 15V8.268c.756-.702 2.124-1.17 3.276-1.008V5.568L82.8 5.55c-1.296 0-2.268.432-3.078 1.53l-.126-1.332h-1.368V15h1.638zm5.022 2.322l1.512-4.23h-1.818l-1.008 4.068 1.314.162zM94.194 15V8.088c.486-.45 1.62-1.098 2.556-1.098 1.188 0 1.44.702 1.44 1.944V15h1.638V8.7c0-.234-.018-.468-.036-.684.54-.45 1.602-1.026 2.484-1.026 1.188 0 1.44.702 1.44 1.944V15h1.638V8.7c0-2.07-.684-3.15-2.628-3.15-1.26 0-2.304.558-3.204 1.278-.36-.864-1.098-1.278-2.322-1.278-1.26 0-2.232.54-3.15 1.242l-.09-1.044h-1.404V15h1.638zM108.99 3.966c.738 0 1.17-.432 1.17-1.188s-.432-1.17-1.17-1.17-1.152.414-1.152 1.17.414 1.188 1.152 1.188zM109.782 15V5.748h-1.638V15h1.638zm4.482 0V1.41h-1.638V15h1.638zm4.482 0V1.41h-1.638V15h1.638zm3.69-11.034c.738 0 1.17-.432 1.17-1.188s-.432-1.17-1.17-1.17-1.152.414-1.152 1.17.414 1.188 1.152 1.188zM123.228 15V5.748h-1.638V15h1.638zm6.534.216c3.114 0 4.374-1.98 4.374-5.022 0-2.754-1.206-4.644-4.14-4.644-2.952 0-4.5 1.872-4.5 4.86 0 2.736 1.062 4.806 4.266 4.806zm.09-1.314c-1.8 0-2.664-1.116-2.664-3.564 0-2.466 1.098-3.438 2.736-3.438 1.602 0 2.502.846 2.502 3.402 0 2.628-.972 3.6-2.574 3.6zM138.114 15V8.106c.486-.432 1.638-1.116 2.7-1.116 1.26 0 1.728.702 1.728 1.98V15h1.638V8.718c0-2.088-.864-3.168-2.844-3.168-1.278 0-2.43.576-3.33 1.296l-.09-1.098h-1.44V15h1.638zm11.772.216c2.25 0 3.618-1.044 3.618-2.808 0-2.07-1.602-2.412-3.294-2.772-1.296-.27-2.052-.54-2.052-1.494 0-.702.432-1.296 1.782-1.296s1.71.648 1.926 1.71l1.476-.324c-.288-1.638-1.188-2.682-3.384-2.682-1.872 0-3.42.918-3.42 2.79 0 2.16 1.818 2.484 3.33 2.79 1.26.252 2.016.432 2.016 1.458 0 .99-.81 1.332-1.926 1.332-1.638 0-2.052-.792-2.304-1.782l-1.458.396c.288 1.854 1.566 2.682 3.69 2.682zm13.374 0c3.114 0 4.374-1.98 4.374-5.022 0-2.754-1.206-4.644-4.14-4.644-2.952 0-4.5 1.872-4.5 4.86 0 2.736 1.062 4.806 4.266 4.806zm.09-1.314c-1.8 0-2.664-1.116-2.664-3.564 0-2.466 1.098-3.438 2.736-3.438 1.602 0 2.502.846 2.502 3.402 0 2.628-.972 3.6-2.574 3.6zM171.81 15V7.062h2.574V5.748h-2.574V4.2c0-1.296.594-1.638 1.44-1.638.432 0 .936.108 1.296.234l.072-1.26c-.306-.144-.936-.306-1.692-.306-1.764 0-2.754.99-2.754 3.024v1.494h-1.368v1.314h1.368V15h1.638zm6.786 0V7.062h2.574V5.748h-2.574V4.2c0-1.296.594-1.638 1.44-1.638.432 0 .936.108 1.296.234l.072-1.26c-.306-.144-.936-.306-1.692-.306-1.764 0-2.754.99-2.754 3.024v1.494h-1.368v1.314h1.368V15h1.638zM3.042 46.816v-4.5c.666.504 1.548.9 2.664.9 2.07 0 3.852-1.44 3.852-5.058 0-3.402-1.44-4.608-3.384-4.608-1.314 0-2.358.504-3.204 1.26l-.09-1.062H1.458v13.068h1.584zm2.43-4.986c-1.062 0-1.98-.612-2.376-.918v-4.824c.54-.54 1.566-1.17 2.592-1.17 1.476 0 2.196.9 2.196 3.222 0 2.214-.648 3.69-2.412 3.69zm10.134 1.386c1.854 0 3.294-.882 3.672-2.682l-1.44-.324c-.252 1.044-.864 1.638-2.178 1.638-1.476 0-2.52-.738-2.592-3.096h6.228c.054-.432.072-.846.072-1.206 0-2.286-1.08-3.996-3.672-3.996-2.376 0-4.356 1.458-4.356 4.842 0 2.538.99 4.824 4.266 4.824zm2.07-5.76h-4.59c.09-1.836 1.278-2.574 2.502-2.574 1.458 0 2.088.918 2.088 2.574zm7.758 5.76c3.114 0 4.374-1.98 4.374-5.022 0-2.754-1.206-4.644-4.14-4.644-2.952 0-4.5 1.872-4.5 4.86 0 2.736 1.062 4.806 4.266 4.806zm.09-1.314c-1.8 0-2.664-1.116-2.664-3.564 0-2.466 1.098-3.438 2.736-3.438 1.602 0 2.502.846 2.502 3.402 0 2.628-.972 3.6-2.574 3.6zm8.208 4.914v-4.5c.666.504 1.548.9 2.664.9 2.07 0 3.852-1.44 3.852-5.058 0-3.402-1.44-4.608-3.384-4.608-1.314 0-2.358.504-3.204 1.26l-.09-1.062h-1.422v13.068h1.584zm2.43-4.986c-1.062 0-1.98-.612-2.376-.918v-4.824c.54-.54 1.566-1.17 2.592-1.17 1.476 0 2.196.9 2.196 3.222 0 2.214-.648 3.69-2.412 3.69zM44.244 43V29.41h-1.638V43h1.638zm6.534.216c1.854 0 3.294-.882 3.672-2.682l-1.44-.324c-.252 1.044-.864 1.638-2.178 1.638-1.476 0-2.52-.738-2.592-3.096h6.228c.054-.432.072-.846.072-1.206 0-2.286-1.08-3.996-3.672-3.996-2.376 0-4.356 1.458-4.356 4.842 0 2.538.99 4.824 4.266 4.824zm2.07-5.76h-4.59c.09-1.836 1.278-2.574 2.502-2.574 1.458 0 2.088.918 2.088 2.574zM64.818 43l3.474-9.252h-1.674l-2.682 7.614h-.018L61.2 33.748h-1.782L62.946 43h1.872zm5.886-11.034c.738 0 1.17-.432 1.17-1.188s-.432-1.17-1.17-1.17-1.152.414-1.152 1.17.414 1.188 1.152 1.188zM71.496 43v-9.252h-1.638V43h1.638zm5.778.216c2.25 0 3.618-1.044 3.618-2.808 0-2.07-1.602-2.412-3.294-2.772-1.296-.27-2.052-.54-2.052-1.494 0-.702.432-1.296 1.782-1.296s1.71.648 1.926 1.71l1.476-.324c-.288-1.638-1.188-2.682-3.384-2.682-1.872 0-3.42.918-3.42 2.79 0 2.16 1.818 2.484 3.33 2.79 1.26.252 2.016.432 2.016 1.458 0 .99-.81 1.332-1.926 1.332-1.638 0-2.052-.792-2.304-1.782l-1.458.396c.288 1.854 1.566 2.682 3.69 2.682zm6.678-11.25c.738 0 1.17-.432 1.17-1.188s-.432-1.17-1.17-1.17-1.152.414-1.152 1.17.414 1.188 1.152 1.188zM84.744 43v-9.252h-1.638V43h1.638zm5.742.216c.864 0 1.818-.306 2.268-.612l-.288-1.188c-.396.216-1.062.45-1.62.45-1.116 0-1.332-.54-1.332-1.512v-5.292h2.556v-1.314h-2.556v-2.934l-1.638.252v2.682h-1.422v1.314h1.422v5.508c0 1.854.882 2.646 2.61 2.646zm12.33-.216v-5.076l4.266-7.956h-1.71l-3.33 6.354h-.036l-3.42-6.354h-1.872l4.446 7.992V43h1.656zm9.324.216c1.854 0 3.294-.882 3.672-2.682l-1.44-.324c-.252 1.044-.864 1.638-2.178 1.638-1.476 0-2.52-.738-2.592-3.096h6.228c.054-.432.072-.846.072-1.206 0-2.286-1.08-3.996-3.672-3.996-2.376 0-4.356 1.458-4.356 4.842 0 2.538.99 4.824 4.266 4.824zm2.07-5.76h-4.59c.09-1.836 1.278-2.574 2.502-2.574 1.458 0 2.088.918 2.088 2.574zM119.916 43V29.41h-1.638V43h1.638zm4.482 0V29.41h-1.638V43h1.638zm6.534.216c3.114 0 4.374-1.98 4.374-5.022 0-2.754-1.206-4.644-4.14-4.644-2.952 0-4.5 1.872-4.5 4.86 0 2.736 1.062 4.806 4.266 4.806zm.09-1.314c-1.8 0-2.664-1.116-2.664-3.564 0-2.466 1.098-3.438 2.736-3.438 1.602 0 2.502.846 2.502 3.402 0 2.628-.972 3.6-2.574 3.6zM141.138 43l1.89-7.29h.018l1.908 7.29h1.908l2.88-9.252h-1.584l-2.196 7.488h-.018l-2.016-7.488h-1.692l-2.034 7.524-2.25-7.524h-1.656L139.194 43h1.944zm13.104.216c2.25 0 3.618-1.044 3.618-2.808 0-2.07-1.602-2.412-3.294-2.772-1.296-.27-2.052-.54-2.052-1.494 0-.702.432-1.296 1.782-1.296s1.71.648 1.926 1.71l1.476-.324c-.288-1.638-1.188-2.682-3.384-2.682-1.872 0-3.42.918-3.42 2.79 0 2.16 1.818 2.484 3.33 2.79 1.26.252 2.016.432 2.016 1.458 0 .99-.81 1.332-1.926 1.332-1.638 0-2.052-.792-2.304-1.782l-1.458.396c.288 1.854 1.566 2.682 3.69 2.682zm8.73 0c.864 0 1.818-.306 2.268-.612l-.288-1.188c-.396.216-1.062.45-1.62.45-1.116 0-1.332-.54-1.332-1.512v-5.292h2.556v-1.314H162v-2.934l-1.638.252v2.682h-1.422v1.314h1.422v5.508c0 1.854.882 2.646 2.61 2.646zm7.614 0c3.114 0 4.374-1.98 4.374-5.022 0-2.754-1.206-4.644-4.14-4.644-2.952 0-4.5 1.872-4.5 4.86 0 2.736 1.062 4.806 4.266 4.806zm.09-1.314c-1.8 0-2.664-1.116-2.664-3.564 0-2.466 1.098-3.438 2.736-3.438 1.602 0 2.502.846 2.502 3.402 0 2.628-.972 3.6-2.574 3.6zM178.938 43v-6.894c.486-.432 1.638-1.116 2.7-1.116 1.26 0 1.728.702 1.728 1.98V43h1.638v-6.282c0-2.088-.864-3.168-2.844-3.168-1.278 0-2.43.576-3.33 1.296l-.09-1.098h-1.44V43h1.638zm12.528.216c1.854 0 3.294-.882 3.672-2.682l-1.44-.324c-.252 1.044-.864 1.638-2.178 1.638-1.476 0-2.52-.738-2.592-3.096h6.228c.054-.432.072-.846.072-1.206 0-2.286-1.08-3.996-3.672-3.996-2.376 0-4.356 1.458-4.356 4.842 0 2.538.99 4.824 4.266 4.824zm2.07-5.76h-4.59c.09-1.836 1.278-2.574 2.502-2.574 1.458 0 2.088.918 2.088 2.574zM3.276 71V60.074L9.684 71h1.998V57.968h-1.53v10.818L3.906 57.968H1.728V71h1.548zm13.878.216c1.296 0 2.25-.414 2.97-1.134.09.594.504 1.098 1.422 1.098.45 0 .918-.108 1.278-.288l-.072-1.026c-.234.072-.396.108-.558.108-.468 0-.558-.216-.558-.72v-4.518c0-2.304-1.026-3.186-3.312-3.186-2.142 0-3.258.81-3.546 2.538l1.44.27c.198-1.026.684-1.53 1.962-1.53 1.512 0 1.836.72 1.836 1.89v.9c-.252-.018-.522-.036-.81-.036-2.61 0-4.788.684-4.788 3.15 0 .9.396 2.484 2.736 2.484zm.504-1.278c-1.26 0-1.548-.684-1.548-1.476 0-1.584 1.71-1.71 2.988-1.71.342 0 .684.018.936.054v2.088c-.504.54-1.422 1.044-2.376 1.044zm9.918 1.278c.864 0 1.818-.306 2.268-.612l-.288-1.188c-.396.216-1.062.45-1.62.45-1.116 0-1.332-.54-1.332-1.512v-5.292h2.556v-1.314h-2.556v-2.934l-1.638.252v2.682h-1.422v1.314h1.422v5.508c0 1.854.882 2.646 2.61 2.646zm4.77-11.25c.738 0 1.17-.432 1.17-1.188s-.432-1.17-1.17-1.17-1.152.414-1.152 1.17.414 1.188 1.152 1.188zM33.138 71v-9.252H31.5V71h1.638zm6.534.216c3.114 0 4.374-1.98 4.374-5.022 0-2.754-1.206-4.644-4.14-4.644-2.952 0-4.5 1.872-4.5 4.86 0 2.736 1.062 4.806 4.266 4.806zm.09-1.314c-1.8 0-2.664-1.116-2.664-3.564 0-2.466 1.098-3.438 2.736-3.438 1.602 0 2.502.846 2.502 3.402 0 2.628-.972 3.6-2.574 3.6zM48.024 71v-6.894c.486-.432 1.638-1.116 2.7-1.116 1.26 0 1.728.702 1.728 1.98V71h1.638v-6.282c0-2.088-.864-3.168-2.844-3.168-1.278 0-2.43.576-3.33 1.296l-.09-1.098h-1.44V71h1.638zm11.124.216c1.296 0 2.25-.414 2.97-1.134.09.594.504 1.098 1.422 1.098.45 0 .918-.108 1.278-.288l-.072-1.026c-.234.072-.396.108-.558.108-.468 0-.558-.216-.558-.72v-4.518c0-2.304-1.026-3.186-3.312-3.186-2.142 0-3.258.81-3.546 2.538l1.44.27c.198-1.026.684-1.53 1.962-1.53 1.512 0 1.836.72 1.836 1.89v.9c-.252-.018-.522-.036-.81-.036-2.61 0-4.788.684-4.788 3.15 0 .9.396 2.484 2.736 2.484zm.504-1.278c-1.26 0-1.548-.684-1.548-1.476 0-1.584 1.71-1.71 2.988-1.71.342 0 .684.018.936.054v2.088c-.504.54-1.422 1.044-2.376 1.044zM68.31 71V57.41h-1.638V71h1.638zm8.28 3.816v-4.5c.666.504 1.548.9 2.664.9 2.07 0 3.852-1.44 3.852-5.058 0-3.402-1.44-4.608-3.384-4.608-1.314 0-2.358.504-3.204 1.26l-.09-1.062h-1.422v13.068h1.584zm2.43-4.986c-1.062 0-1.98-.612-2.376-.918v-4.824c.54-.54 1.566-1.17 2.592-1.17 1.476 0 2.196.9 2.196 3.222 0 2.214-.648 3.69-2.412 3.69zm8.73 1.386c1.296 0 2.25-.414 2.97-1.134.09.594.504 1.098 1.422 1.098.45 0 .918-.108 1.278-.288l-.072-1.026c-.234.072-.396.108-.558.108-.468 0-.558-.216-.558-.72v-4.518c0-2.304-1.026-3.186-3.312-3.186-2.142 0-3.258.81-3.546 2.538l1.44.27c.198-1.026.684-1.53 1.962-1.53 1.512 0 1.836.72 1.836 1.89v.9c-.252-.018-.522-.036-.81-.036-2.61 0-4.788.684-4.788 3.15 0 .9.396 2.484 2.736 2.484zm.504-1.278c-1.26 0-1.548-.684-1.548-1.476 0-1.584 1.71-1.71 2.988-1.71.342 0 .684.018.936.054v2.088c-.504.54-1.422 1.044-2.376 1.044zM96.912 71v-6.732c.756-.702 2.124-1.17 3.276-1.008v-1.692l-.342-.018c-1.296 0-2.268.432-3.078 1.53l-.126-1.332h-1.368V71h1.638zm6.552 0v-3.366l1.422-1.404L107.73 71h1.8l-3.438-5.922 3.204-3.33h-1.854l-3.978 4.068V57.41h-1.638V71h1.638zm8.496.216c.792 0 1.224-.414 1.224-1.206s-.432-1.206-1.224-1.206-1.224.414-1.224 1.206c0 .81.432 1.206 1.224 1.206zM124.668 71l4.176-13.032h-1.692l-3.564 11.43h-.018l-3.69-11.43h-1.854L122.418 71h2.25zm6.66-11.034c.738 0 1.17-.432 1.17-1.188s-.432-1.17-1.17-1.17-1.152.414-1.152 1.17.414 1.188 1.152 1.188zM132.12 71v-9.252h-1.638V71h1.638zm5.778.216c2.25 0 3.618-1.044 3.618-2.808 0-2.07-1.602-2.412-3.294-2.772-1.296-.27-2.052-.54-2.052-1.494 0-.702.432-1.296 1.782-1.296s1.71.648 1.926 1.71l1.476-.324c-.288-1.638-1.188-2.682-3.384-2.682-1.872 0-3.42.918-3.42 2.79 0 2.16 1.818 2.484 3.33 2.79 1.26.252 2.016.432 2.016 1.458 0 .99-.81 1.332-1.926 1.332-1.638 0-2.052-.792-2.304-1.782l-1.458.396c.288 1.854 1.566 2.682 3.69 2.682zm6.678-11.25c.738 0 1.17-.432 1.17-1.188s-.432-1.17-1.17-1.17-1.152.414-1.152 1.17.414 1.188 1.152 1.188zM145.368 71v-9.252h-1.638V71h1.638zm5.742.216c.864 0 1.818-.306 2.268-.612l-.288-1.188c-.396.216-1.062.45-1.62.45-1.116 0-1.332-.54-1.332-1.512v-5.292h2.556v-1.314h-2.556v-2.934l-1.638.252v2.682h-1.422v1.314h1.422v5.508c0 1.854.882 2.646 2.61 2.646zm7.614 0c3.114 0 4.374-1.98 4.374-5.022 0-2.754-1.206-4.644-4.14-4.644-2.952 0-4.5 1.872-4.5 4.86 0 2.736 1.062 4.806 4.266 4.806zm.09-1.314c-1.8 0-2.664-1.116-2.664-3.564 0-2.466 1.098-3.438 2.736-3.438 1.602 0 2.502.846 2.502 3.402 0 2.628-.972 3.6-2.574 3.6zM167.076 71v-6.732c.756-.702 2.124-1.17 3.276-1.008v-1.692l-.342-.018c-1.296 0-2.268.432-3.078 1.53l-.126-1.332h-1.368V71h1.638zm7.848.216c2.25 0 3.618-1.044 3.618-2.808 0-2.07-1.602-2.412-3.294-2.772-1.296-.27-2.052-.54-2.052-1.494 0-.702.432-1.296 1.782-1.296s1.71.648 1.926 1.71l1.476-.324c-.288-1.638-1.188-2.682-3.384-2.682-1.872 0-3.42.918-3.42 2.79 0 2.16 1.818 2.484 3.33 2.79 1.26.252 2.016.432 2.016 1.458 0 .99-.81 1.332-1.926 1.332-1.638 0-2.052-.792-2.304-1.782l-1.458.396c.288 1.854 1.566 2.682 3.69 2.682zm13.374 0c3.114 0 4.374-1.98 4.374-5.022 0-2.754-1.206-4.644-4.14-4.644-2.952 0-4.5 1.872-4.5 4.86 0 2.736 1.062 4.806 4.266 4.806zm.09-1.314c-1.8 0-2.664-1.116-2.664-3.564 0-2.466 1.098-3.438 2.736-3.438 1.602 0 2.502.846 2.502 3.402 0 2.628-.972 3.6-2.574 3.6zm8.46 1.098v-7.938h2.574v-1.314h-2.574V60.2c0-1.296.594-1.638 1.44-1.638.432 0 .936.108 1.296.234l.072-1.26c-.306-.144-.936-.306-1.692-.306-1.764 0-2.754.99-2.754 3.024v1.494h-1.368v1.314h1.368V71h1.638zM4.356 99.216c.864 0 1.818-.306 2.268-.612l-.288-1.188c-.396.216-1.062.45-1.62.45-1.116 0-1.332-.54-1.332-1.512v-5.292H5.94v-1.314H3.384v-2.934l-1.638.252v2.682H.324v1.314h1.422v5.508c0 1.854.882 2.646 2.61 2.646zM9.918 99v-6.894c.486-.432 1.638-1.116 2.7-1.116 1.26 0 1.728.702 1.728 1.98V99h1.638v-6.282c0-2.088-.864-3.168-2.826-3.168-1.296 0-2.358.54-3.258 1.242V85.41H8.28V99h1.638zm12.528.216c1.854 0 3.294-.882 3.672-2.682l-1.44-.324c-.252 1.044-.864 1.638-2.178 1.638-1.476 0-2.52-.738-2.592-3.096h6.228c.054-.432.072-.846.072-1.206 0-2.286-1.08-3.996-3.672-3.996-2.376 0-4.356 1.458-4.356 4.842 0 2.538.99 4.824 4.266 4.824zm2.07-5.76h-4.59c.09-1.836 1.278-2.574 2.502-2.574 1.458 0 2.088.918 2.088 2.574zm9.504 9.36v-4.5c.666.504 1.548.9 2.664.9 2.07 0 3.852-1.44 3.852-5.058 0-3.402-1.44-4.608-3.384-4.608-1.314 0-2.358.504-3.204 1.26l-.09-1.062h-1.422v13.068h1.584zm2.43-4.986c-1.062 0-1.98-.612-2.376-.918v-4.824c.54-.54 1.566-1.17 2.592-1.17 1.476 0 2.196.9 2.196 3.222 0 2.214-.648 3.69-2.412 3.69zm8.73 1.386c1.296 0 2.25-.414 2.97-1.134.09.594.504 1.098 1.422 1.098.45 0 .918-.108 1.278-.288l-.072-1.026c-.234.072-.396.108-.558.108-.468 0-.558-.216-.558-.72v-4.518c0-2.304-1.026-3.186-3.312-3.186-2.142 0-3.258.81-3.546 2.538l1.44.27c.198-1.026.684-1.53 1.962-1.53 1.512 0 1.836.72 1.836 1.89v.9c-.252-.018-.522-.036-.81-.036-2.61 0-4.788.684-4.788 3.15 0 .9.396 2.484 2.736 2.484zm.504-1.278c-1.26 0-1.548-.684-1.548-1.476 0-1.584 1.71-1.71 2.988-1.71.342 0 .684.018.936.054v2.088c-.504.54-1.422 1.044-2.376 1.044zM54.342 99v-6.732c.756-.702 2.124-1.17 3.276-1.008v-1.692c-.108 0-.234-.018-.342-.018-1.296 0-2.268.432-3.078 1.53l-.126-1.332h-1.368V99h1.638zm6.552 0v-3.366l1.422-1.404L65.16 99h1.8l-3.438-5.922 3.204-3.33h-1.854l-3.978 4.068V85.41h-1.638V99h1.638zm14.67.216c.864 0 1.818-.306 2.268-.612l-.288-1.188c-.396.216-1.062.45-1.62.45-1.116 0-1.332-.54-1.332-1.512v-5.292h2.556v-1.314h-2.556v-2.934l-1.638.252v2.682h-1.422v1.314h1.422v5.508c0 1.854.882 2.646 2.61 2.646zm6.21 0c1.296 0 2.25-.414 2.97-1.134.09.594.504 1.098 1.422 1.098.45 0 .918-.108 1.278-.288l-.072-1.026c-.234.072-.396.108-.558.108-.468 0-.558-.216-.558-.72v-4.518c0-2.304-1.026-3.186-3.312-3.186-2.142 0-3.258.81-3.546 2.538l1.44.27c.198-1.026.684-1.53 1.962-1.53 1.512 0 1.836.72 1.836 1.89v.9c-.252-.018-.522-.036-.81-.036-2.61 0-4.788.684-4.788 3.15 0 .9.396 2.484 2.736 2.484zm.504-1.278c-1.26 0-1.548-.684-1.548-1.476 0-1.584 1.71-1.71 2.988-1.71.342 0 .684.018.936.054v2.088c-.504.54-1.422 1.044-2.376 1.044zM90.936 99v-3.366l1.422-1.404L95.202 99h1.8l-3.438-5.922 3.204-3.33h-1.854l-3.978 4.068V85.41h-1.638V99h1.638zm11.61.216c1.854 0 3.294-.882 3.672-2.682l-1.44-.324c-.252 1.044-.864 1.638-2.178 1.638-1.476 0-2.52-.738-2.592-3.096h6.228c.054-.432.072-.846.072-1.206 0-2.286-1.08-3.996-3.672-3.996-2.376 0-4.356 1.458-4.356 4.842 0 2.538.99 4.824 4.266 4.824zm2.07-5.76h-4.59c.09-1.836 1.278-2.574 2.502-2.574 1.458 0 2.088.918 2.088 2.574zm9.504 9.36v-4.5c.666.504 1.548.9 2.664.9 2.07 0 3.852-1.44 3.852-5.058 0-3.402-1.44-4.608-3.384-4.608-1.314 0-2.358.504-3.204 1.26l-.09-1.062h-1.422v13.068h1.584zm2.43-4.986c-1.062 0-1.98-.612-2.376-.918v-4.824c.54-.54 1.566-1.17 2.592-1.17 1.476 0 2.196.9 2.196 3.222 0 2.214-.648 3.69-2.412 3.69zm7.29-9.864c.738 0 1.17-.432 1.17-1.188s-.432-1.17-1.17-1.17-1.152.414-1.152 1.17.414 1.188 1.152 1.188zM124.632 99v-9.252h-1.638V99h1.638zm6.516.216c1.854 0 3.492-.9 3.798-3.042l-1.44-.306c-.234 1.368-1.044 1.98-2.304 1.98-1.476 0-2.592-.828-2.592-3.582 0-2.628 1.314-3.348 2.646-3.348 1.296 0 1.926.702 2.07 2.07l1.566-.216c-.126-2.142-1.494-3.222-3.564-3.222-2.772 0-4.428 1.692-4.428 4.914 0 2.772 1.188 4.752 4.248 4.752zm8.91 0c.864 0 1.818-.306 2.268-.612l-.288-1.188c-.396.216-1.062.45-1.62.45-1.116 0-1.332-.54-1.332-1.512v-5.292h2.556v-1.314h-2.556v-2.934l-1.638.252v2.682h-1.422v1.314h1.422v5.508c0 1.854.882 2.646 2.61 2.646zm6.714-.036c1.278 0 2.376-.504 3.276-1.242l.108 1.062h1.422v-9.252h-1.638v6.876c-.486.45-1.62 1.134-2.682 1.134-1.368 0-1.674-.702-1.674-1.98v-6.03h-1.638v6.282c0 2.07.864 3.15 2.826 3.15zm9.306-.18v-6.732c.756-.702 2.124-1.17 3.276-1.008v-1.692c-.108 0-.234-.018-.342-.018-1.296 0-2.268.432-3.078 1.53l-.126-1.332h-1.368V99h1.638zm8.604.216c1.854 0 3.294-.882 3.672-2.682l-1.44-.324c-.252 1.044-.864 1.638-2.178 1.638-1.476 0-2.52-.738-2.592-3.096h6.228c.054-.432.072-.846.072-1.206 0-2.286-1.08-3.996-3.672-3.996-2.376 0-4.356 1.458-4.356 4.842 0 2.538.99 4.824 4.266 4.824zm2.07-5.76h-4.59c.09-1.836 1.278-2.574 2.502-2.574 1.458 0 2.088.918 2.088 2.574zm7.002 5.76c2.25 0 3.618-1.044 3.618-2.808 0-2.07-1.602-2.412-3.294-2.772-1.296-.27-2.052-.54-2.052-1.494 0-.702.432-1.296 1.782-1.296s1.71.648 1.926 1.71l1.476-.324c-.288-1.638-1.188-2.682-3.384-2.682-1.872 0-3.42.918-3.42 2.79 0 2.16 1.818 2.484 3.33 2.79 1.26.252 2.016.432 2.016 1.458 0 .99-.81 1.332-1.926 1.332-1.638 0-2.052-.792-2.304-1.782l-1.458.396c.288 1.854 1.566 2.682 3.69 2.682zm13.374 0c3.114 0 4.374-1.98 4.374-5.022 0-2.754-1.206-4.644-4.14-4.644-2.952 0-4.5 1.872-4.5 4.86 0 2.736 1.062 4.806 4.266 4.806zm.09-1.314c-1.8 0-2.664-1.116-2.664-3.564 0-2.466 1.098-3.438 2.736-3.438 1.602 0 2.502.846 2.502 3.402 0 2.628-.972 3.6-2.574 3.6zm8.46 1.098v-7.938h2.574v-1.314h-2.574V88.2c0-1.296.594-1.638 1.44-1.638.432 0 .936.108 1.296.234l.072-1.26c-.306-.144-.936-.306-1.692-.306-1.764 0-2.754.99-2.754 3.024v1.494h-1.368v1.314h1.368V99h1.638z" transform="translate(24 83)"/>
            <path fill="#B3D7FF" style="mix-blend-mode:multiply" d="M175 0H183V18H175z" transform="translate(24 83)"/>
            <path fill="#000" fill-rule="nonzero" d="M203 15.979c-.01-.438-.304-.82-.726-.94l-14-4c-.345-.1-.724-.003-.981.254s-.355.632-.255.982l4 14c.121.421.502.715.941.725.456.023.832-.268.97-.684l1.489-4.465 4.855 4.856c.195.195.451.293.707.293.256 0 .512-.098.707-.293l2-2c.391-.391.391-1.023 0-1.414l-4.855-4.856 4.465-1.488c.415-.139.693-.532.683-.97z" transform="translate(24 83)"/>
        </g>
        <path fill="url(#prefix__c)" d="M8 155h245v24c0 4.418-3.582 8-8 8H16c-4.418 0-8-3.582-8-8v-24z"/>
    </g>
</svg>
