<svg xmlns="http://www.w3.org/2000/svg" xmlns:xlink="http://www.w3.org/1999/xlink" width="261" height="196" viewBox="0 0 261 196">
    <defs>
        <filter id="prefix__a" width="110.2%" height="114%" x="-5.1%" y="-6.4%" filterUnits="objectBoundingBox">
            <feOffset dy="1" in="SourceAlpha" result="shadowOffsetOuter1"/>
            <feGaussianBlur in="shadowOffsetOuter1" result="shadowBlurOuter1" stdDeviation="4"/>
            <feColorMatrix in="shadowBlurOuter1" result="shadowMatrixOuter1" values="0 0 0 0 0 0 0 0 0 0 0 0 0 0 0 0 0 0 0.2 0"/>
            <feMorphology in="SourceAlpha" radius="1" result="shadowSpreadOuter2"/>
            <feOffset dy="3" in="shadowSpreadOuter2" result="shadowOffsetOuter2"/>
            <feGaussianBlur in="shadowOffsetOuter2" result="shadowBlurOuter2" stdDeviation="1.5"/>
            <feColorMatrix in="shadowBlurOuter2" result="shadowMatrixOuter2" values="0 0 0 0 0 0 0 0 0 0 0 0 0 0 0 0 0 0 0.12 0"/>
            <feOffset dy="3" in="SourceAlpha" result="shadowOffsetOuter3"/>
            <feGaussianBlur in="shadowOffsetOuter3" result="shadowBlurOuter3" stdDeviation="2"/>
            <feColorMatrix in="shadowBlurOuter3" result="shadowMatrixOuter3" values="0 0 0 0 0 0 0 0 0 0 0 0 0 0 0 0 0 0 0.14 0"/>
            <feMerge>
                <feMergeNode in="shadowMatrixOuter1"/>
                <feMergeNode in="shadowMatrixOuter2"/>
                <feMergeNode in="shadowMatrixOuter3"/>
            </feMerge>
        </filter>
        <filter id="prefix__c" width="106.6%" height="138.9%" x="-3.3%" y="-13.9%" filterUnits="objectBoundingBox">
            <feOffset dy="2" in="SourceAlpha" result="shadowOffsetOuter1"/>
            <feGaussianBlur in="shadowOffsetOuter1" result="shadowBlurOuter1" stdDeviation="2"/>
            <feColorMatrix in="shadowBlurOuter1" result="shadowMatrixOuter1" values="0 0 0 0 0.0392156863 0 0 0 0 0.0392156863 0 0 0 0 0.0392156863 0 0 0 0.2 0"/>
            <feOffset dy="-1" in="SourceAlpha" result="shadowOffsetOuter2"/>
            <feGaussianBlur in="shadowOffsetOuter2" result="shadowBlurOuter2" stdDeviation=".5"/>
            <feColorMatrix in="shadowBlurOuter2" result="shadowMatrixOuter2" values="0 0 0 0 0 0 0 0 0 0 0 0 0 0 0 0 0 0 0.1 0"/>
            <feMerge>
                <feMergeNode in="shadowMatrixOuter1"/>
                <feMergeNode in="shadowMatrixOuter2"/>
            </feMerge>
        </filter>
        <rect id="prefix__b" width="245" height="179" x="8" y="8" rx="8"/>
        <path id="prefix__d" d="M24 133H237V169H24z"/>
    </defs>
    <g fill="none" fill-rule="evenodd">
        <path fill="#FFF" d="M0 0H261V195H0z"/>
        <use fill="#000" filter="url(#prefix__a)" xlink:href="#prefix__b"/>
        <use fill="#FFF" xlink:href="#prefix__b"/>
        <path fill="#F6F6F6" d="M16 8h229c4.418 0 8 3.582 8 8v48H8V16c0-4.418 3.582-8 8-8z"/>
        <path fill="#303030" fill-rule="nonzero" d="M29.208 31.168c1.82 0 3.85-.84 4.172-3.262l-1.946-.336c-.238 1.064-.742 1.82-2.198 1.82-1.596 0-2.478-.966-2.478-3.458 0-2.408.98-3.472 2.632-3.472 1.302 0 1.918.588 2.044 2.03l1.974-.168c-.112-2.548-1.722-3.64-3.99-3.64-3.178 0-4.886 2.142-4.886 5.362 0 3.136 1.316 5.124 4.676 5.124zm7.168 0c1.008 0 1.708-.336 2.17-.938.154.686.658.924 1.498.924.448 0 1.064-.14 1.344-.28l-.056-1.218c-.182.056-.308.084-.434.084-.364 0-.434-.168-.434-.56v-3.052c0-1.82-.98-2.576-2.926-2.576-1.988 0-2.856.812-3.08 2.184l1.792.35c.14-.714.406-1.008 1.106-1.008.924 0 1.036.504 1.036 1.33v.266c-1.876-.014-4.186.322-4.186 2.548 0 .728.35 1.946 2.17 1.946zm.812-1.498c-.672 0-.854-.378-.854-.798 0-.742.728-.938 1.736-.966h.336v1.288c-.224.224-.714.476-1.218.476zm7.224 4.298v-3.5c.462.42 1.036.7 1.932.7 1.61 0 2.968-1.078 2.968-3.976 0-2.688-1.19-3.64-2.744-3.64-.812 0-1.652.266-2.282.896l-.126-.742h-1.792v10.262h2.044zm1.316-4.494c-.518 0-1.064-.294-1.274-.49v-3.192c.322-.266.868-.56 1.358-.56.854 0 1.288.546 1.288 2.016 0 1.414-.392 2.226-1.372 2.226zm6.006-6.72c.798 0 1.274-.476 1.274-1.288s-.476-1.274-1.274-1.274c-.812 0-1.274.462-1.274 1.274s.462 1.288 1.274 1.288zM52.784 31v-7.294H50.67V31h2.114zm4.312.168c.924 0 1.778-.28 2.142-.518l-.294-1.498c-.28.168-.784.336-1.204.336-.672 0-.854-.336-.854-.98v-3.262h1.932v-1.54h-1.932V21.27l-2.114.28v2.156H53.68v1.54h1.092v3.556c0 1.666.798 2.366 2.324 2.366zm4.9 0c1.008 0 1.708-.336 2.17-.938.154.686.658.924 1.498.924.448 0 1.064-.14 1.344-.28l-.056-1.218c-.182.056-.308.084-.434.084-.364 0-.434-.168-.434-.56v-3.052c0-1.82-.98-2.576-2.926-2.576-1.988 0-2.856.812-3.08 2.184l1.792.35c.14-.714.406-1.008 1.106-1.008.924 0 1.036.504 1.036 1.33v.266c-1.876-.014-4.186.322-4.186 2.548 0 .728.35 1.946 2.17 1.946zm.812-1.498c-.672 0-.854-.378-.854-.798 0-.742.728-.938 1.736-.966h.336v1.288c-.224.224-.714.476-1.218.476zM70.116 31V20.43h-2.114V31h2.114zm2.702-8.246c.798 0 1.274-.476 1.274-1.288s-.476-1.274-1.274-1.274c-.812 0-1.274.462-1.274 1.274s.462 1.288 1.274 1.288zM73.868 31v-7.294h-2.114V31h2.114zm7.028 0v-1.694h-3.444l3.248-4.102v-1.498h-5.628v1.582h3.332l-3.36 4.214V31h5.852zm2.94.168c1.008 0 1.708-.336 2.17-.938.154.686.658.924 1.498.924.448 0 1.064-.14 1.344-.28l-.056-1.218c-.182.056-.308.084-.434.084-.364 0-.434-.168-.434-.56v-3.052c0-1.82-.98-2.576-2.926-2.576-1.988 0-2.856.812-3.08 2.184l1.792.35c.14-.714.406-1.008 1.106-1.008.924 0 1.036.504 1.036 1.33v.266c-1.876-.014-4.186.322-4.186 2.548 0 .728.35 1.946 2.17 1.946zm.812-1.498c-.672 0-.854-.378-.854-.798 0-.742.728-.938 1.736-.966h.336v1.288c-.224.224-.714.476-1.218.476zm7.868 1.498c.924 0 1.778-.28 2.142-.518l-.294-1.498c-.28.168-.784.336-1.204.336-.672 0-.854-.336-.854-.98v-3.262h1.932v-1.54h-1.932V21.27l-2.114.28v2.156H89.1v1.54h1.092v3.556c0 1.666.798 2.366 2.324 2.366zm4.158-8.414c.798 0 1.274-.476 1.274-1.288s-.476-1.274-1.274-1.274c-.812 0-1.274.462-1.274 1.274s.462 1.288 1.274 1.288zM97.724 31v-7.294H95.61V31h2.114zm4.83.168c2.618 0 3.71-1.554 3.71-3.934 0-2.156-.98-3.682-3.514-3.682s-3.752 1.498-3.752 3.836c0 2.184.91 3.78 3.556 3.78zm.098-1.568c-1.036 0-1.442-.644-1.442-2.268 0-1.582.532-2.184 1.484-2.184.938 0 1.372.56 1.372 2.156 0 1.708-.49 2.296-1.414 2.296zm7 1.4v-5.166c.28-.252.854-.574 1.428-.574.658 0 .966.336.966 1.12V31h2.114v-4.984c0-1.666-.7-2.464-2.31-2.464-.994 0-1.792.392-2.324.882l-.112-.728h-1.876V31h2.114zM29.148 89.216c2.412 0 4.608-1.08 4.608-3.834 0-2.52-2.07-3.132-3.978-3.69-1.62-.486-3.114-.936-3.114-2.52 0-1.152.72-2.034 2.718-2.034 2.016 0 2.52 1.206 2.718 2.448l1.548-.18c-.27-2.79-1.998-3.672-4.284-3.672-2.52 0-4.392 1.368-4.392 3.6 0 2.682 2.106 3.24 4.032 3.78 1.602.45 3.06.882 3.06 2.502 0 1.728-1.494 2.196-2.898 2.196-2.232 0-2.88-1.206-3.186-2.592l-1.584.234c.342 2.682 2.034 3.762 4.752 3.762zM37.59 89v-6.894c.486-.432 1.638-1.116 2.7-1.116 1.26 0 1.728.702 1.728 1.98V89h1.638v-6.282c0-2.088-.864-3.168-2.826-3.168-1.296 0-2.358.54-3.258 1.242V75.41h-1.62V89h1.638zm12.528.216c1.854 0 3.294-.882 3.672-2.682l-1.44-.324c-.252 1.044-.864 1.638-2.178 1.638-1.476 0-2.52-.738-2.592-3.096h6.228c.054-.432.072-.846.072-1.206 0-2.286-1.08-3.996-3.672-3.996-2.376 0-4.356 1.458-4.356 4.842 0 2.538.99 4.824 4.266 4.824zm2.07-5.76h-4.59c.09-1.836 1.278-2.574 2.502-2.574 1.458 0 2.088.918 2.088 2.574zm8.766-5.49c.738 0 1.17-.432 1.17-1.188s-.432-1.17-1.17-1.17-1.152.414-1.152 1.17.414 1.188 1.152 1.188zM61.746 89v-9.252h-1.638V89h1.638zm5.778.216c2.25 0 3.618-1.044 3.618-2.808 0-2.07-1.602-2.412-3.294-2.772-1.296-.27-2.052-.54-2.052-1.494 0-.702.432-1.296 1.782-1.296s1.71.648 1.926 1.71l1.476-.324c-.288-1.638-1.188-2.682-3.384-2.682-1.872 0-3.42.918-3.42 2.79 0 2.16 1.818 2.484 3.33 2.79 1.26.252 2.016.432 2.016 1.458 0 .99-.81 1.332-1.926 1.332-1.638 0-2.052-.792-2.304-1.782l-1.458.396c.288 1.854 1.566 2.682 3.69 2.682zM79.044 89v-7.938h2.574v-1.314h-2.574V78.2c0-1.296.594-1.638 1.44-1.638.432 0 .936.108 1.296.234l.072-1.26c-.306-.144-.936-.306-1.692-.306-1.764 0-2.754.99-2.754 3.024v1.494h-1.368v1.314h1.368V89h1.638zm5.688 0v-6.732c.756-.702 2.124-1.17 3.276-1.008v-1.692l-.342-.018c-1.296 0-2.268.432-3.078 1.53l-.126-1.332h-1.368V89h1.638zm8.604.216c3.114 0 4.374-1.98 4.374-5.022 0-2.754-1.206-4.644-4.14-4.644-2.952 0-4.5 1.872-4.5 4.86 0 2.736 1.062 4.806 4.266 4.806zm.09-1.314c-1.8 0-2.664-1.116-2.664-3.564 0-2.466 1.098-3.438 2.736-3.438 1.602 0 2.502.846 2.502 3.402 0 2.628-.972 3.6-2.574 3.6zM101.688 89v-6.912c.486-.45 1.62-1.098 2.556-1.098 1.188 0 1.44.702 1.44 1.944V89h1.638v-6.3c0-.234-.018-.468-.036-.684.54-.45 1.602-1.026 2.484-1.026 1.188 0 1.44.702 1.44 1.944V89h1.638v-6.3c0-2.07-.684-3.15-2.628-3.15-1.26 0-2.304.558-3.204 1.278-.36-.864-1.098-1.278-2.322-1.278-1.26 0-2.232.54-3.15 1.242l-.09-1.044h-1.404V89h1.638zm20.088.216c1.296 0 2.25-.414 2.97-1.134.09.594.504 1.098 1.422 1.098.45 0 .918-.108 1.278-.288l-.072-1.026c-.234.072-.396.108-.558.108-.468 0-.558-.216-.558-.72v-4.518c0-2.304-1.026-3.186-3.312-3.186-2.142 0-3.258.81-3.546 2.538l1.44.27c.198-1.026.684-1.53 1.962-1.53 1.512 0 1.836.72 1.836 1.89v.9c-.252-.018-.522-.036-.81-.036-2.61 0-4.788.684-4.788 3.15 0 .9.396 2.484 2.736 2.484zm.504-1.278c-1.26 0-1.548-.684-1.548-1.476 0-1.584 1.71-1.71 2.988-1.71.342 0 .684.018.936.054v2.088c-.504.54-1.422 1.044-2.376 1.044zm9.918 1.278c.864 0 1.818-.306 2.268-.612l-.288-1.188c-.396.216-1.062.45-1.62.45-1.116 0-1.332-.54-1.332-1.512v-5.292h2.556v-1.314h-2.556v-2.934l-1.638.252v2.682h-1.422v1.314h1.422v5.508c0 1.854.882 2.646 2.61 2.646zM137.76 89V75.41h-1.638V89h1.638zm5.13.216c1.296 0 2.25-.414 2.97-1.134.09.594.504 1.098 1.422 1.098.45 0 .918-.108 1.278-.288l-.072-1.026c-.234.072-.396.108-.558.108-.468 0-.558-.216-.558-.72v-4.518c0-2.304-1.026-3.186-3.312-3.186-2.142 0-3.258.81-3.546 2.538l1.44.27c.198-1.026.684-1.53 1.962-1.53 1.512 0 1.836.72 1.836 1.89v.9c-.252-.018-.522-.036-.81-.036-2.61 0-4.788.684-4.788 3.15 0 .9.396 2.484 2.736 2.484zm.504-1.278c-1.26 0-1.548-.684-1.548-1.476 0-1.584 1.71-1.71 2.988-1.71.342 0 .684.018.936.054v2.088c-.504.54-1.422 1.044-2.376 1.044zM152.052 89v-6.894c.486-.432 1.638-1.116 2.7-1.116 1.26 0 1.728.702 1.728 1.98V89h1.638v-6.282c0-2.088-.864-3.168-2.844-3.168-1.278 0-2.43.576-3.33 1.296l-.09-1.098h-1.44V89h1.638zm11.736.216c.864 0 1.818-.306 2.268-.612l-.288-1.188c-.396.216-1.062.45-1.62.45-1.116 0-1.332-.54-1.332-1.512v-5.292h2.556v-1.314h-2.556v-2.934l-1.638.252v2.682h-1.422v1.314h1.422v5.508c0 1.854.882 2.646 2.61 2.646zm6.21 0c1.296 0 2.25-.414 2.97-1.134.09.594.504 1.098 1.422 1.098.45 0 .918-.108 1.278-.288l-.072-1.026c-.234.072-.396.108-.558.108-.468 0-.558-.216-.558-.72v-4.518c0-2.304-1.026-3.186-3.312-3.186-2.142 0-3.258.81-3.546 2.538l1.44.27c.198-1.026.684-1.53 1.962-1.53 1.512 0 1.836.72 1.836 1.89v.9c-.252-.018-.522-.036-.81-.036-2.61 0-4.788.684-4.788 3.15 0 .9.396 2.484 2.736 2.484zm.504-1.278c-1.26 0-1.548-.684-1.548-1.476 0-1.584 1.71-1.71 2.988-1.71.342 0 .684.018.936.054v2.088c-.504.54-1.422 1.044-2.376 1.044zm7.596 1.278c.792 0 1.224-.414 1.224-1.206s-.432-1.206-1.224-1.206-1.224.414-1.224 1.206c0 .81.432 1.206 1.224 1.206z"/>
        <g>
            <path d="M0 0H16V16H0z" transform="translate(24 40)"/>
            <path fill="#878787" fill-rule="nonzero" d="M7.333 11.333h1.334v-4H7.333v4zm.667-10C4.32 1.333 1.333 4.32 1.333 8c0 3.68 2.987 6.667 6.667 6.667 3.68 0 6.667-2.987 6.667-6.667 0-3.68-2.987-6.667-6.667-6.667zm0 12c-2.94 0-5.333-2.393-5.333-5.333C2.667 5.06 5.06 2.667 8 2.667c2.94 0 5.333 2.393 5.333 5.333 0 2.94-2.393 5.333-5.333 5.333zM7.333 6h1.334V4.667H7.333V6z" transform="translate(24 40)"/>
        </g>
        <path fill="#DEDEDE" d="M45 45H220V52H45z"/>
        <use fill="#000" filter="url(#prefix__c)" xlink:href="#prefix__d"/>
        <use fill="#FFF" xlink:href="#prefix__d"/>
        <path fill="#303030" fill-rule="nonzero" d="M37.148 157.216c2.412 0 4.608-1.08 4.608-3.834 0-2.52-2.07-3.132-3.978-3.69-1.62-.486-3.114-.936-3.114-2.52 0-1.152.72-2.034 2.718-2.034 2.016 0 2.52 1.206 2.718 2.448l1.548-.18c-.27-2.79-1.998-3.672-4.284-3.672-2.52 0-4.392 1.368-4.392 3.6 0 2.682 2.106 3.24 4.032 3.78 1.602.45 3.06.882 3.06 2.502 0 1.728-1.494 2.196-2.898 2.196-2.232 0-2.88-1.206-3.186-2.592l-1.584.234c.342 2.682 2.034 3.762 4.752 3.762zM45.59 157v-6.894c.486-.432 1.638-1.116 2.7-1.116 1.26 0 1.728.702 1.728 1.98V157h1.638v-6.282c0-2.088-.864-3.168-2.826-3.168-1.296 0-2.358.54-3.258 1.242v-5.382h-1.62V157h1.638zm12.528.216c1.854 0 3.294-.882 3.672-2.682l-1.44-.324c-.252 1.044-.864 1.638-2.178 1.638-1.476 0-2.52-.738-2.592-3.096h6.228c.054-.432.072-.846.072-1.206 0-2.286-1.08-3.996-3.672-3.996-2.376 0-4.356 1.458-4.356 4.842 0 2.538.99 4.824 4.266 4.824zm2.07-5.76h-4.59c.09-1.836 1.278-2.574 2.502-2.574 1.458 0 2.088.918 2.088 2.574zm8.766-5.49c.738 0 1.17-.432 1.17-1.188s-.432-1.17-1.17-1.17-1.152.414-1.152 1.17.414 1.188 1.152 1.188zM69.746 157v-9.252h-1.638V157h1.638zm5.778.216c2.25 0 3.618-1.044 3.618-2.808 0-2.07-1.602-2.412-3.294-2.772-1.296-.27-2.052-.54-2.052-1.494 0-.702.432-1.296 1.782-1.296s1.71.648 1.926 1.71l1.476-.324c-.288-1.638-1.188-2.682-3.384-2.682-1.872 0-3.42.918-3.42 2.79 0 2.16 1.818 2.484 3.33 2.79 1.26.252 2.016.432 2.016 1.458 0 .99-.81 1.332-1.926 1.332-1.638 0-2.052-.792-2.304-1.782l-1.458.396c.288 1.854 1.566 2.682 3.69 2.682zm11.52-.216v-7.938h2.574v-1.314h-2.574V146.2c0-1.296.594-1.638 1.44-1.638.432 0 .936.108 1.296.234l.072-1.26c-.306-.144-.936-.306-1.692-.306-1.764 0-2.754.99-2.754 3.024v1.494h-1.368v1.314h1.368V157h1.638zm5.688 0v-6.732c.756-.702 2.124-1.17 3.276-1.008v-1.692l-.342-.018c-1.296 0-2.268.432-3.078 1.53l-.126-1.332h-1.368V157h1.638zm8.604.216c3.114 0 4.374-1.98 4.374-5.022 0-2.754-1.206-4.644-4.14-4.644-2.952 0-4.5 1.872-4.5 4.86 0 2.736 1.062 4.806 4.266 4.806zm.09-1.314c-1.8 0-2.664-1.116-2.664-3.564 0-2.466 1.098-3.438 2.736-3.438 1.602 0 2.502.846 2.502 3.402 0 2.628-.972 3.6-2.574 3.6zm8.262 1.098v-6.912c.486-.45 1.62-1.098 2.556-1.098 1.188 0 1.44.702 1.44 1.944V157h1.638v-6.3c0-.234-.018-.468-.036-.684.54-.45 1.602-1.026 2.484-1.026 1.188 0 1.44.702 1.44 1.944V157h1.638v-6.3c0-2.07-.684-3.15-2.628-3.15-1.26 0-2.304.558-3.204 1.278-.36-.864-1.098-1.278-2.322-1.278-1.26 0-2.232.54-3.15 1.242l-.09-1.044h-1.404V157h1.638zm18.666 0l1.278-3.87h5.004l1.314 3.87h1.818l-4.536-13.032h-2.16L126.68 157h1.674zm5.868-5.292h-4.194l2.088-6.228h.018l2.088 6.228zm8.532 5.508c.864 0 1.818-.306 2.268-.612l-.288-1.188c-.396.216-1.062.45-1.62.45-1.116 0-1.332-.54-1.332-1.512v-5.292h2.556v-1.314h-2.556v-2.934l-1.638.252v2.682h-1.422v1.314h1.422v5.508c0 1.854.882 2.646 2.61 2.646zm5.562-.216v-13.59h-1.638V157h1.638zm5.13.216c1.296 0 2.25-.414 2.97-1.134.09.594.504 1.098 1.422 1.098.45 0 .918-.108 1.278-.288l-.072-1.026c-.234.072-.396.108-.558.108-.468 0-.558-.216-.558-.72v-4.518c0-2.304-1.026-3.186-3.312-3.186-2.142 0-3.258.81-3.546 2.538l1.44.27c.198-1.026.684-1.53 1.962-1.53 1.512 0 1.836.72 1.836 1.89v.9c-.252-.018-.522-.036-.81-.036-2.61 0-4.788.684-4.788 3.15 0 .9.396 2.484 2.736 2.484zm.504-1.278c-1.26 0-1.548-.684-1.548-1.476 0-1.584 1.71-1.71 2.988-1.71.342 0 .684.018.936.054v2.088c-.504.54-1.422 1.044-2.376 1.044zm8.658 1.062v-6.894c.486-.432 1.638-1.116 2.7-1.116 1.26 0 1.728.702 1.728 1.98V157h1.638v-6.282c0-2.088-.864-3.168-2.844-3.168-1.278 0-2.43.576-3.33 1.296l-.09-1.098h-1.44V157h1.638zm11.736.216c.864 0 1.818-.306 2.268-.612l-.288-1.188c-.396.216-1.062.45-1.62.45-1.116 0-1.332-.54-1.332-1.512v-5.292h2.556v-1.314h-2.556v-2.934l-1.638.252v2.682h-1.422v1.314h1.422v5.508c0 1.854.882 2.646 2.61 2.646zm6.21 0c1.296 0 2.25-.414 2.97-1.134.09.594.504 1.098 1.422 1.098.45 0 .918-.108 1.278-.288l-.072-1.026c-.234.072-.396.108-.558.108-.468 0-.558-.216-.558-.72v-4.518c0-2.304-1.026-3.186-3.312-3.186-2.142 0-3.258.81-3.546 2.538l1.44.27c.198-1.026.684-1.53 1.962-1.53 1.512 0 1.836.72 1.836 1.89v.9c-.252-.018-.522-.036-.81-.036-2.61 0-4.788.684-4.788 3.15 0 .9.396 2.484 2.736 2.484zm.504-1.278c-1.26 0-1.548-.684-1.548-1.476 0-1.584 1.71-1.71 2.988-1.71.342 0 .684.018.936.054v2.088c-.504.54-1.422 1.044-2.376 1.044zm7.596 1.278c.792 0 1.224-.414 1.224-1.206s-.432-1.206-1.224-1.206-1.224.414-1.224 1.206c0 .81.432 1.206 1.224 1.206z"/>
        <rect width="213" height="24" x="24" y="101" fill="#D3E7BD" rx="3"/>
        <rect width="3" height="24" x="24" y="101" fill="#498A00" rx="1.5"/>
        <path fill="#457818" d="M59 110H219V116H59z" opacity=".507"/>
        <g>
            <path d="M0 0H16V16H0z" transform="translate(35 105)"/>
            <path fill="#498900" fill-rule="nonzero" d="M8 .667C3.952.667.667 3.952.667 8S3.952 15.333 8 15.333 15.333 12.048 15.333 8 12.048.667 8 .667zm-1.467 11L2.867 8 3.9 6.966l2.632 2.625L12.1 4.025l1.034 1.042-6.6 6.6z" transform="translate(35 105)"/>
        </g>
    </g>
</svg>
