<svg xmlns="http://www.w3.org/2000/svg" xmlns:xlink="http://www.w3.org/1999/xlink" width="104" height="79" viewBox="0 0 104 79">
    <defs>
        <path id="geh3hai9ma" d="M6 0h98v79H6c-3.314 0-6-2.686-6-6V6c0-3.314 2.686-6 6-6z"/>
        <path id="mmgsackzzc" d="M0.135 0.192L87.408 0.192 87.408 9.647 0.135 9.647z"/>
        <path id="8zqx65zmke" d="M0.135 0.192L87.408 0.192 87.408 9.647 0.135 9.647z"/>
        <path id="zxvb5lsqzg" d="M.297.846l5.284 15.741c2.052.456 4.184.696 6.372.696 2.837 0 5.58-.403 8.173-1.156L18.204.104.297.846z"/>
        <path id="4iiy1tcsvi" d="M.282 1.073c.33 4.104.604 7.856.83 11.258 4.658 3.128 10.264 4.952 16.296 4.952.231 0 .46-.003.69-.008.991-4.812 2.114-10.506 3.349-17.08L.282 1.074z"/>
        <path id="wg4t8c0nzk" d="M.036.857C1.18 5.2 2.57 10.332 4.206 16.247c2.467.675 5.066 1.036 7.747 1.036 3.7 0 7.238-.686 10.496-1.938-1.222-5.72-2.624-10.757-4.173-15.244L.036.857z"/>
        <path id="1w4tsvkw6m" d="M.24 1.075c.293 3.691.502 7.378.617 11.083 4.707 3.233 10.408 5.125 16.551 5.125.836 0 1.663-.035 2.481-.104C20.96 11.695 21.907 6.037 22.733.142L.24 1.075z"/>
        <path id="2x5b61ximo" d="M4.674 4.116c-.709 2.373-.18 4.75.923 6.84L.116 22.855l7.789 1.745.771-9.628c1.818 1.737 3.745 2.812 4.77 2.78 2.572-.083 4.787-8.924 3.691-12.85-.652-2.338-4.22-4.593-7.433-4.593-2.184 0-4.203 1.042-5.03 3.808z"/>
        <path id="5nt8sz6eeq" d="M23.95 2.901c-.34-.08-.687-.155-1.045-.222-1.91-.358-3.675-.435-4.944-.267-.237.02-.472.064-.706.13-.38.097-.686.223-.902.378-.857.475-1.645 1.253-2.272 2.248-1.722-1.424-3.829-2.598-8.414-3.626-6.744-1.51-7.008 8.655-2.182 9.736 3.548.795 6.427-2.369 9.52-3.608-.033.125-.064.251-.092.38-.817 3.643.227 7.436 2.761 8.003 1.335.3 2.983-.797 4.365-2.435-1.056-.314-1.585-1.4-1.3-2.671.225-1.003 1.235-1.769 2.383-1.512.411.092.763.418.985.845.256-.595.457-1.193.586-1.77.147-.654.203-1.249.18-1.788 1.417.22 2.724.279 3.77.197 1.73.29 3.407-.821 3.795-2.554.4-1.792-.726-3.57-2.518-3.972-.245-.055-.49-.081-.73-.081-1.52 0-2.89 1.047-3.24 2.59z"/>
        <path id="lu4cu8vurs" d="M27.434.14c-2.178.563-4.554 1.595-7.129 3.098L7.31 5.315l2.479 5.742 10.48-4.417c4.57.337 6.773.177 6.607-.48-.249-.988-1.602-.715-1.878-1.354-.275-.639 1.175-2.011 2.607-3.255 1.341-1.165.561-1.414-.05-1.414-.04 0-.081.002-.12.004zM.162 32.63l9.834 5.711c2.481 3.854 3.935 5.516 4.36 4.988.639-.793-.393-1.71-.05-2.314.346-.604 2.315-.272 4.17.123s1.42-.512 1.023-.985c-1.76-1.401-4.014-2.677-6.763-3.829l-9.48-9.13L.162 32.63z"/>
        <path id="2o0y3nmslu" d="M.565 15.393c2.123 10.552 8.794 14.505 21.53 21.28l5.23-4.516C16.461 22.042 9.277 12.75 4.981 1.307L.55.276C.504 4.593.032 12.745.565 15.393z"/>
        <path id="exfso8zncw" d="M.211 36.552l25.381 3.399c-3.401-18.305-4.726-30.732-3.976-37.284.038-.334-.499-1.003-.78-.963-2.067.296-4.169-.2-6.307-1.486C7.216 9.09 3.54 20.725.211 36.552z"/>
        <path id="p4bh936a9y" d="M14.98 1.24C8.39 10.64.06 29.911.275 44.643l13.533 1.812c8.751 1.173 10.798-12.723 9.11-30.258 9.031 1.95 20.136-1.78 31.311-7.02l-.444-6.895C39.585 4.83 27.96 1.92 20.693.887L20.69.871 16.757.344c-.089-.012-.174-.017-.256-.017-.837 0-1.292.585-1.521.912z"/>
    </defs>
    <g fill="none" fill-rule="evenodd">
        <g>
            <g transform="translate(-345 -2047) translate(345 2047)">
                <mask id="4gxlahdnxb" fill="#fff">
                    <use xlink:href="#geh3hai9ma"/>
                </mask>
                <g mask="url(#4gxlahdnxb)">
                    <g>
                        <path fill="#E6CC9C" d="M133.226 42.192c0 16.167-13.106 29.273-29.273 29.273-16.166 0-29.272-13.106-29.272-29.273S87.787 12.92 103.953 12.92c16.167 0 29.273 13.106 29.273 29.273" transform="translate(-30 4) matrix(-1 0 0 1 207.907 0)"/>
                        <g>
                            <path fill="#7A7A7A" d="M63.15 67.828H24.393c-.544 0-.985-.441-.985-.985v-1.847c0-.544.441-.986.985-.986H63.15c.544 0 .985.442.985.986v1.847c0 .544-.441.985-.985.985" transform="translate(-30 4) translate(0 2.182)"/>
                            <path fill="#F2F2F2" d="M83.838 64.556H3.706c-1.972 0-3.57-1.599-3.57-3.57V3.762c0-1.971 1.598-3.57 3.57-3.57h80.132c1.972 0 3.57 1.599 3.57 3.57v57.224c0 1.971-1.598 3.57-3.57 3.57" transform="translate(-30 4) translate(0 2.182)"/>
                            <path fill="#7A7A7A" d="M83.838.192H3.706c-1.972 0-3.57 1.599-3.57 3.57v57.224c0 1.971 1.598 3.57 3.57 3.57h80.132c1.971 0 3.57-1.599 3.57-3.57V3.762c0-1.971-1.599-3.57-3.57-3.57m0 1.818c.965 0 1.752.786 1.752 1.752v57.224c0 .965-.787 1.752-1.752 1.752H3.706c-.967 0-1.753-.787-1.753-1.752V3.762c0-.966.786-1.752 1.753-1.752h80.132" transform="translate(-30 4) translate(0 2.182)"/>
                            <path fill="#8D8E8E" d="M10.707 18.093L77.59 18.093 77.59 14.932 10.707 14.932zM10.707 23.547L55.408 23.547 55.408 20.386 10.707 20.386z" transform="translate(-30 4) translate(0 2.182)"/>
                            <path fill="#CECECE" d="M76.829 38.1H11.577c-.42 0-.76-.342-.76-.762V29.4c0-.42.34-.76.76-.76H76.83c.42 0 .76.34.76.76v7.94c0 .42-.34.76-.76.76" transform="translate(-30 4) translate(0 2.182)"/>
                            <path fill="#8D8E8E" d="M13.674 34.72L72.135 34.72 72.135 32.017 13.674 32.017z" transform="translate(-30 4) translate(0 2.182)"/>
                            <path fill="#CECECE" d="M76.829 50.826H11.577c-.42 0-.76-.34-.76-.76v-7.94c0-.42.34-.76.76-.76H76.83c.42 0 .76.34.76.76v7.94c0 .42-.34.76-.76.76" transform="translate(-30 4) translate(0 2.182)"/>
                            <path fill="#8D8E8E" d="M13.674 47.448L72.135 47.448 72.135 44.745 13.674 44.745z" transform="translate(-30 4) translate(0 2.182)"/>
                        </g>
                        <g>
                            <g transform="translate(-30 4) translate(0 2.182)">
                                <mask id="66w8izsh1d" fill="#fff">
                                    <use xlink:href="#mmgsackzzc"/>
                                </mask>
                                <path fill="#06806B" d="M83.838 64.556H.158c-.012 0-.023-.01-.023-.023V3.763c0-1.972 1.599-3.57 3.57-3.57h80.133c1.972 0 3.57 1.598 3.57 3.57v57.223c0 1.971-1.598 3.57-3.57 3.57" mask="url(#66w8izsh1d)"/>
                            </g>
                            <g transform="translate(-30 4) translate(0 2.182)">
                                <mask id="lkt9liq6lf" fill="#fff">
                                    <use xlink:href="#8zqx65zmke"/>
                                </mask>
                                <path fill="#7A7A7A" d="M83.838.192H3.706c-1.972 0-3.57 1.599-3.57 3.57v60.77c0 .014.01.024.022.024h83.68c1.971 0 3.57-1.599 3.57-3.57V3.762c0-1.971-1.599-3.57-3.57-3.57m0 1.818c.965 0 1.752.786 1.752 1.752v57.224c0 .965-.787 1.752-1.752 1.752H1.953V3.762c0-.966.786-1.752 1.753-1.752h80.132" mask="url(#lkt9liq6lf)"/>
                            </g>
                        </g>
                        <g transform="translate(-30 4) matrix(-1 0 0 1 115.907 54.182)">
                            <mask id="pxna40t4yh" fill="#fff">
                                <use xlink:href="#zxvb5lsqzg"/>
                            </mask>
                            <path fill="#784931" d="M-1.362 -0.681L25.467 -1.793 28.643 74.827 1.814 75.939z" mask="url(#pxna40t4yh)"/>
                        </g>
                        <g transform="translate(-30 4) matrix(-1 0 0 1 121.361 54.182)">
                            <mask id="etn386d4bj" fill="#fff">
                                <use xlink:href="#4iiy1tcsvi"/>
                            </mask>
                            <path fill="#915B3C" d="M-9.676 -0.11L22.974 -1.464 26.177 75.821 -6.473 77.175z" mask="url(#etn386d4bj)"/>
                        </g>
                        <g transform="translate(-30 4) matrix(-1 0 0 1 115.907 54.217)">
                            <mask id="vo55gs63zl" fill="#fff">
                                <use xlink:href="#wg4t8c0nzk"/>
                            </mask>
                            <path fill="#AAA" d="M-1.623 -0.67L26.485 -1.835 29.481 70.466 1.373 71.631z" mask="url(#vo55gs63zl)"/>
                        </g>
                        <g transform="translate(-30 4) matrix(-1 0 0 1 121.361 54.228)">
                            <mask id="9gjyj9475n" fill="#fff">
                                <use xlink:href="#1w4tsvkw6m"/>
                            </mask>
                            <path fill="#C4C4C4" d="M-9.421 -0.121L24.26 -1.517 27.271 71.123 -6.411 72.519z" mask="url(#9gjyj9475n)"/>
                        </g>
                        <g transform="translate(-30 4) matrix(-1 0 0 1 110.452 2.545)">
                            <mask id="bl6h0aknrp" fill="#fff">
                                <use xlink:href="#2x5b61ximo"/>
                            </mask>
                            <path fill="#915B3C" d="M4.216 -2.741L20.958 1.009 14.953 27.812 -1.789 24.061z" mask="url(#bl6h0aknrp)"/>
                        </g>
                        <g transform="translate(-30 4) matrix(-1 0 0 1 122.089 0)">
                            <mask id="1g053q1g8r" fill="#fff">
                                <use xlink:href="#5nt8sz6eeq"/>
                            </mask>
                            <path fill="#38241B" d="M1.399 -7.182L33.069 -0.087 28.446 20.549 -3.223 13.454z" mask="url(#1g053q1g8r)"/>
                        </g>
                        <g transform="translate(-30 4) matrix(-1 0 0 1 90.452 18.182)">
                            <mask id="5d6hbihght" fill="#fff">
                                <use xlink:href="#lu4cu8vurs"/>
                            </mask>
                            <path fill="#915B3C" d="M3.553 -4.703L30.179 -1.138 23.823 46.33 -2.803 42.765z" mask="url(#5d6hbihght)"/>
                        </g>
                        <g transform="translate(-30 4) matrix(-1 0 0 1 105.725 21.09)">
                            <mask id="2pls3pfr3v" fill="#fff">
                                <use xlink:href="#2o0y3nmslu"/>
                            </mask>
                            <path fill="#176BAE" d="M-0.019 -2.505L37.059 12.949 25.806 39.947 -11.272 24.493z" mask="url(#2pls3pfr3v)"/>
                        </g>
                        <g transform="translate(-30 4) matrix(-1 0 0 1 121.725 19.273)">
                            <mask id="7af5na1iyx" fill="#fff">
                                <use xlink:href="#exfso8zncw"/>
                            </mask>
                            <path fill="#F2F2F2" d="M3.874 -2.817L32.416 1.004 26.961 41.742 -1.581 37.92z" mask="url(#7af5na1iyx)"/>
                        </g>
                        <g transform="translate(-30 4) matrix(-1 0 0 1 125.725 18.91)">
                            <mask id="0kpbrm7b1z" fill="#fff">
                                <use xlink:href="#p4bh936a9y"/>
                            </mask>
                            <path fill="#298FE0" d="M4.952 -5.865L56.92 1.094 49.982 52.909 -1.986 45.95z" mask="url(#0kpbrm7b1z)"/>
                        </g>
                    </g>
                </g>
            </g>
        </g>
    </g>
</svg>
