<svg xmlns="http://www.w3.org/2000/svg" width="96" height="96" viewBox="0 0 96 96">
    <g fill="none" fill-rule="evenodd">
        <g>
            <g>
                <path d="M0 0H96V96H0z" transform="translate(-797 -296) translate(797 296)"/>
                <g fill-rule="nonzero">
                    <g>
                        <path fill="#E6E6E6" d="M72 92H4c-2.21 0-4-1.79-4-4V4c0-2.21 1.79-4 4-4h48l24 24v64c0 2.21-1.79 4-4 4z" transform="translate(-797 -296) translate(797 296) translate(10 2)"/>
                        <path fill="#BABABA" d="M52 0v20c0 2.21 1.79 4 4 4h20L52 0z" transform="translate(-797 -296) translate(797 296) translate(10 2)"/>
                        <path fill="#737373" d="M61.296 69.903L48.348 56.955C50.878 53.7 52.4 49.63 52.4 45.2c0-10.587-8.614-19.2-19.2-19.2C22.613 26 14 34.613 14 45.2c0 10.586 8.613 19.2 19.2 19.2 4.43 0 8.5-1.522 11.755-4.052l12.948 12.948c.468.468 1.082.703 1.696.703.615 0 1.23-.235 1.697-.703.939-.938.939-2.455 0-3.393zM18.8 45.2c0-7.942 6.458-14.4 14.4-14.4 7.941 0 14.4 6.458 14.4 14.4 0 7.941-6.459 14.4-14.4 14.4-7.942 0-14.4-6.459-14.4-14.4z" transform="translate(-797 -296) translate(797 296) translate(10 2)"/>
                    </g>
                    <g fill="#9A9A9A" transform="translate(-797 -296) translate(797 296) translate(10 2) translate(28 37)">
                        <path d="M6 10.5H4v-1c.024-1.493.854-2.856 2.169-3.563C7.068 5.294 7.5 4.943 7.5 4c0-1.74-1.566-2-2.5-2-1.377.14-2.64.827-3.506 1.907L.089 2.5C1.313 1.027 3.089.123 5 0c2.733 0 4.5 1.57 4.5 4-.024 1.493-.854 2.856-2.169 3.563C6.432 8.206 6 8.557 6 9.5v1z"/>
                        <circle cx="5" cy="13.5" r="1.5"/>
                    </g>
                </g>
            </g>
        </g>
    </g>
</svg>
