<svg xmlns="http://www.w3.org/2000/svg" xmlns:xlink="http://www.w3.org/1999/xlink" width="224" height="286" viewBox="0 0 224 286">
    <defs>
        <path id="b" d="M0 0h208v270H0z"/>
        <filter id="a" width="112%" height="109.3%" x="-6%" y="-4.3%" filterUnits="objectBoundingBox">
            <feOffset dy="1" in="SourceAlpha" result="shadowOffsetOuter1"/>
            <feGaussianBlur in="shadowOffsetOuter1" result="shadowBlurOuter1" stdDeviation="4"/>
            <feColorMatrix in="shadowBlurOuter1" result="shadowMatrixOuter1" values="0 0 0 0 0 0 0 0 0 0 0 0 0 0 0 0 0 0 0.2 0"/>
            <feMorphology in="SourceAlpha" radius="1" result="shadowSpreadOuter2"/>
            <feOffset dy="3" in="shadowSpreadOuter2" result="shadowOffsetOuter2"/>
            <feGaussianBlur in="shadowOffsetOuter2" result="shadowBlurOuter2" stdDeviation="1.5"/>
            <feColorMatrix in="shadowBlurOuter2" result="shadowMatrixOuter2" values="0 0 0 0 0 0 0 0 0 0 0 0 0 0 0 0 0 0 0.12 0"/>
            <feOffset dy="3" in="SourceAlpha" result="shadowOffsetOuter3"/>
            <feGaussianBlur in="shadowOffsetOuter3" result="shadowBlurOuter3" stdDeviation="2"/>
            <feColorMatrix in="shadowBlurOuter3" result="shadowMatrixOuter3" values="0 0 0 0 0 0 0 0 0 0 0 0 0 0 0 0 0 0 0.14 0"/>
            <feMerge>
                <feMergeNode in="shadowMatrixOuter1"/>
                <feMergeNode in="shadowMatrixOuter2"/>
                <feMergeNode in="shadowMatrixOuter3"/>
            </feMerge>
        </filter>
    </defs>
    <g fill="none" fill-rule="evenodd">
        <path d="M0 0h224v286H0z"/>
        <g transform="translate(8 8)">
            <use fill="#000" filter="url(#a)" xlink:href="#b"/>
            <use fill="#FFF" xlink:href="#b"/>
        </g>
        <g fill="#027360">
            <path d="M23.978 18.53c3.048 0 5.916 2.292 5.916 6.168 0 1.754-.59 3.196-1.509 4.229l1.375 1.57-1.327 1.153-1.43-1.586a5.965 5.965 0 0 1-3.033.817c-3.048 0-5.9-2.29-5.9-6.183.009-3.876 2.86-6.167 5.908-6.167zm0 10.445c.59 0 1.194-.12 1.736-.384l-1.916-2.171 1.343-1.17 1.933 2.187c.494-.689.8-1.586.8-2.739 0-2.86-1.932-4.277-3.904-4.277-1.948 0-3.888 1.418-3.888 4.277.008 2.86 1.948 4.277 3.896 4.277zM34.309 30.865c-1.901 0-3.017-1.434-3.017-3.244v-5.134h1.901v4.782c0 1.001.456 1.858 1.61 1.858 1.1 0 1.674-.753 1.674-1.818v-4.822h1.901v6.656c0 .665.047 1.186.079 1.49h-1.823a6.457 6.457 0 0 1-.063-.905c-.4.737-1.327 1.137-2.262 1.137zM41.356 18.363c.69 0 1.249.568 1.249 1.273s-.558 1.258-1.25 1.258a1.243 1.243 0 0 1-1.233-1.258c0-.705.558-1.273 1.234-1.273zm-.935 12.27v-8.146h1.885v8.138h-1.885v.008zM44.356 30.633V18.53h1.902v12.102zM48.308 30.633V18.53h1.901v12.102zM57.327 29.407a.38.38 0 0 1-.362-.248l-.37-.889-.918.216a.395.395 0 0 1-.472-.304.403.403 0 0 1 .299-.48l1.241-.289a.39.39 0 0 1 .448.232l.495 1.194c.086.2-.008.44-.212.52a.255.255 0 0 1-.15.048z"/>
            <path d="M55.645 30.577a.36.36 0 0 1-.18-.048.394.394 0 0 1-.212-.345l-.048-2.082a.388.388 0 0 1 .385-.409h.008c.212 0 .385.177.393.393l.031 1.345 1.092-.76a.378.378 0 0 1 .542.104.395.395 0 0 1-.102.552l-1.689 1.178a.38.38 0 0 1-.22.072zM61.482 16.841c.26 0 .527.064.778.192.84.44 1.17 1.482.738 2.339l-2.835 5.638-2.514 1.194-.519-2.78 2.836-5.638c.299-.6.896-.945 1.516-.945zm0-.801c-.935 0-1.79.529-2.215 1.378l-2.836 5.638a.824.824 0 0 0-.07.513l.518 2.779a.796.796 0 0 0 .777.649c.11 0 .228-.024.33-.072L60.5 25.73c.157-.072.291-.2.37-.36l2.836-5.639c.628-1.241.14-2.779-1.077-3.412a2.528 2.528 0 0 0-1.147-.28z"/>
            <path d="M59.455 23.008a.36.36 0 0 1-.18-.048.393.393 0 0 1-.204-.28l-.519-2.78a.4.4 0 0 1 .314-.464.393.393 0 0 1 .456.32l.424 2.275 2.058-.977a.382.382 0 0 1 .519.192c.094.2.008.44-.189.529l-2.514 1.193a.416.416 0 0 1-.165.04z"/>
            <path d="M56.832 28.206a.406.406 0 0 1-.354-.585l4.494-8.93a.39.39 0 0 1 .526-.176.406.406 0 0 1 .173.537l-4.494 8.93a.368.368 0 0 1-.345.224zM55.645 30.577h-3.338a.393.393 0 0 1-.393-.4c0-.225.173-.401.393-.401h3.338c.22 0 .393.176.393.4 0 .225-.173.4-.393.4z"/>
        </g>
        <path fill="#D6D6D6" d="M25 61h44v4H25zM25 118h44v4H25zM25 175h44v4H25zM25 232h44v4H25zM110 65h22v4h-22zM110 122h22v4h-22zM110 179h22v4h-22zM110 236h22v4h-22zM110 73h35v4h-35zM110 130h35v4h-35zM110 187h35v4h-35zM110 244h35v4h-35zM110 81h49v4h-49zM110 138h49v4h-49zM110 195h49v4h-49zM110 252h49v4h-49zM161 81h18v4h-18zM161 138h18v4h-18zM161 195h18v4h-18zM161 252h18v4h-18zM147 73h22v4h-22zM147 130h22v4h-22zM147 187h22v4h-22zM147 244h22v4h-22zM171 73h26v4h-26zM171 130h26v4h-26zM171 187h26v4h-26zM171 244h26v4h-26zM134 65h22v4h-22zM134 122h22v4h-22zM134 179h22v4h-22zM134 236h22v4h-22z"/>
        <path stroke="#D6D6D6" d="M106.5 61.5h99v27h-99zM106.5 118.5h99v27h-99zM106.5 175.5h99v27h-99zM106.5 232.5h99v27h-99z"/>
        <path fill="#D6D6D6" d="M25 85h49v4H25zM25 142h49v4H25zM25 199h49v4H25zM25 256h49v4H25zM25 77h18v4H25zM25 134h18v4H25zM25 191h18v4H25zM25 248h18v4H25zM45 77h44v4H45zM45 134h44v4H45zM45 191h44v4H45zM45 248h44v4H45zM25 69h11v4H25zM25 126h11v4H25zM25 183h11v4H25zM25 240h11v4H25zM38 69h43v4H38zM38 126h43v4H38zM38 183h43v4H38zM38 240h43v4H38z"/>
        <path fill="#000" fill-rule="nonzero" d="M24.736 48.208V54h-1.152v-4.544h-.032L22.184 54h-1.112l-1.32-4.552h-.032V54h-1.128v-5.792h1.84l1.224 4.232h.032l1.216-4.232h1.832zm4.732 3.008v1.744c0 .224.04.32.248.32a.834.834 0 0 0 .248-.048l.032.696c-.16.08-.512.16-.768.16-.48 0-.768-.136-.856-.528-.264.344-.664.536-1.24.536-1.04 0-1.24-.696-1.24-1.112 0-1.272 1.32-1.464 2.392-1.456v-.152c0-.472-.064-.76-.592-.76-.4 0-.552.168-.632.576l-1.024-.2c.128-.784.624-1.248 1.76-1.248 1.112 0 1.672.432 1.672 1.472zm-1.176 1.752v-.736H28.1c-.576.016-.992.128-.992.552 0 .24.104.456.488.456.288 0 .568-.144.696-.272zm3.356 1.12l-1.584-4.256h1.304l.872 2.904h.024l.84-2.904h1.24a559.086 559.086 0 0 1-1.656 4.576c-.352.984-.72 1.376-1.568 1.376-.328 0-.736-.088-.912-.176l.088-.872c.224.072.456.128.632.128.28 0 .464-.128.592-.448l.128-.328zm6.7-2.872v1.744c0 .224.04.32.248.32a.834.834 0 0 0 .248-.048l.032.696c-.16.08-.512.16-.768.16-.48 0-.768-.136-.856-.528-.264.344-.664.536-1.24.536-1.04 0-1.24-.696-1.24-1.112 0-1.272 1.32-1.464 2.392-1.456v-.152c0-.472-.064-.76-.592-.76-.4 0-.552.168-.632.576l-1.024-.2c.128-.784.624-1.248 1.76-1.248 1.112 0 1.672.432 1.672 1.472zm-1.176 1.752v-.736h-.192c-.576.016-.992.128-.992.552 0 .24.104.456.488.456.288 0 .568-.144.696-.272zm5.792-4.76H44.5L46.548 54h-1.352l-.48-1.408h-1.928L42.34 54h-1.272l1.896-5.792zm1.496 3.4l-.72-2.24h-.032l-.712 2.24h1.464zm6.708-.456V54H49.96v-2.64c0-.448-.176-.64-.552-.64-.328 0-.656.184-.816.328V54h-1.208v-4.168h1.072l.064.416c.304-.28.76-.504 1.328-.504.92 0 1.32.456 1.32 1.408zm2.916-1.408c.456 0 .832.072 1.104.256.144-.312.376-.632.768-.632.104 0 .216.024.336.072v.792a1.658 1.658 0 0 0-.688.064c.24.272.344.6.344.936 0 .936-.76 1.496-1.832 1.496-.28 0-.464-.024-.696-.088-.072.072-.152.152-.152.256 0 .12.072.2.376.216l1.184.072c.888.056 1.4.36 1.4 1.2 0 1.024-.952 1.416-2.176 1.416-1.528 0-2.008-.392-2.008-.968 0-.392.296-.664.752-.752v-.032c-.408-.12-.608-.36-.608-.704 0-.416.256-.648.648-.928-.376-.216-.608-.6-.608-1.128 0-.888.664-1.544 1.856-1.544zm.76 1.48c0-.432-.272-.632-.712-.632-.432 0-.76.184-.76.632 0 .416.232.64.744.64.432 0 .728-.232.728-.64zm.208 3.376c0-.16-.08-.304-.512-.328l-1.16-.072c-.152.112-.248.248-.248.4 0 .328.456.424 1.016.424.536 0 .904-.08.904-.424zm3.828-.504c-1.544 0-2.04-1.04-2.04-2.168 0-1.504.92-2.184 2.04-2.184 1.264 0 1.792.768 1.792 1.928 0 .136-.008.4-.024.544h-2.536c.024.688.312.944.84.944.432 0 .6-.24.68-.592l1.016.248c-.152.776-.776 1.28-1.768 1.28zm-.752-2.648h1.296c0-.6-.216-.832-.608-.832-.344 0-.68.224-.688.832zm4.804-3.488V54h-1.208v-6.04h1.208zm3.06 6.136c-1.512 0-2.032-.912-2.032-2.16 0-1.336.696-2.192 2.144-2.192 1.448 0 2.008.872 2.008 2.104 0 1.36-.624 2.248-2.12 2.248zm.056-.896c.528 0 .808-.336.808-1.312 0-.912-.248-1.232-.784-1.232-.544 0-.848.344-.848 1.248 0 .928.232 1.296.824 1.296zm3.076-.496v-2.872h1.208v2.632c0 .448.144.648.528.648.312 0 .632-.184.792-.328v-2.952h1.208V54h-1.04l-.088-.448c-.296.336-.76.536-1.328.536-.856 0-1.28-.464-1.28-1.384zM83.4 22.056c-.592 0-.864.248-.864.616 0 1.208 3.008.464 3.008 2.592 0 1.312-1.064 1.832-2.216 1.832-1.04 0-2.136-.336-2.24-1.84l1.12-.168c.096.56.304 1.032 1.152 1.032.512 0 .96-.176.96-.712 0-1.208-3.016-.368-3.016-2.56 0-1.128.944-1.744 2.112-1.744 1.032 0 1.976.32 2.064 1.696l-1.128.128c-.048-.544-.272-.872-.952-.872zm5.732 3.888l.168.856c-.208.136-.696.296-1.224.296-.872 0-1.328-.4-1.328-1.352v-2.032h-.624v-.88h.624V21.6l1.208-.16v1.392h1.104v.88h-1.104v1.864c0 .368.104.56.488.56.24 0 .528-.096.688-.192zm.892-.24v-2.872h1.208v2.632c0 .448.144.648.528.648.312 0 .632-.184.792-.328v-2.952h1.208V27h-1.04l-.088-.448c-.296.336-.76.536-1.328.536-.856 0-1.28-.464-1.28-1.384zm8.756-4.744V27h-1.008l-.072-.408-.024-.008c-.288.32-.68.512-1.232.512-.976 0-1.64-.6-1.64-2.096 0-1.672.896-2.256 1.76-2.256.464 0 .792.104 1.056.352V20.96h1.16zm-1.2 4.888v-1.912c-.16-.12-.4-.232-.672-.232-.608 0-.84.536-.84 1.256 0 .744.232 1.184.8 1.184.256 0 .52-.12.712-.296zm4.268 1.248c-1.544 0-2.04-1.04-2.04-2.168 0-1.504.92-2.184 2.04-2.184 1.264 0 1.792.768 1.792 1.928 0 .136-.008.4-.024.544h-2.536c.024.688.312.944.84.944.432 0 .6-.24.68-.592l1.016.248c-.152.776-.776 1.28-1.768 1.28zm-.752-2.648h1.296c0-.6-.216-.832-.608-.832-.344 0-.68.224-.688.832zm7.356-.296V27h-1.208v-2.64c0-.448-.176-.64-.552-.64-.328 0-.656.184-.816.328V27h-1.208v-4.168h1.072l.064.416c.304-.28.76-.504 1.328-.504.92 0 1.32.456 1.32 1.408zm3.724 1.792l.168.856c-.208.136-.696.296-1.224.296-.872 0-1.328-.4-1.328-1.352v-2.032h-.624v-.88h.624V21.6l1.208-.16v1.392h1.104v.88H111v1.864c0 .368.104.56.488.56.24 0 .528-.096.688-.192zm4.624-3.888c-.592 0-.864.248-.864.616 0 1.208 3.008.464 3.008 2.592 0 1.312-1.064 1.832-2.216 1.832-1.04 0-2.136-.336-2.24-1.84l1.12-.168c.096.56.304 1.032 1.152 1.032.512 0 .96-.176.96-.712 0-1.208-3.016-.368-3.016-2.56 0-1.128.944-1.744 2.112-1.744 1.032 0 1.976.32 2.064 1.696l-1.128.128c-.048-.544-.272-.872-.952-.872zm4.98 5.04c-1.544 0-2.04-1.04-2.04-2.168 0-1.504.92-2.184 2.04-2.184 1.264 0 1.792.768 1.792 1.928 0 .136-.008.4-.024.544h-2.536c.024.688.312.944.84.944.432 0 .6-.24.68-.592l1.016.248c-.152.776-.776 1.28-1.768 1.28zm-.752-2.648h1.296c0-.6-.216-.832-.608-.832-.344 0-.68.224-.688.832zm6.1 1.496l.168.856c-.208.136-.696.296-1.224.296-.872 0-1.328-.4-1.328-1.352v-2.032h-.624v-.88h.624V21.6l1.208-.16v1.392h1.104v.88h-1.104v1.864c0 .368.104.56.488.56.24 0 .528-.096.688-.192zm.892-.24v-2.872h1.208v2.632c0 .448.144.648.528.648.312 0 .632-.184.792-.328v-2.952h1.208V27h-1.04l-.088-.448c-.296.336-.76.536-1.328.536-.856 0-1.28-.464-1.28-1.384zm4.956 2.992v-5.864H134l.072.424c.36-.36.84-.512 1.304-.512.888 0 1.568.544 1.568 2.08 0 1.656-.776 2.272-1.696 2.272-.512 0-.84-.16-1.104-.4v2h-1.168zm1.192-4.672v1.824c.12.112.432.28.728.28.56 0 .784-.464.784-1.272 0-.84-.248-1.152-.736-1.152-.28 0-.592.168-.776.32zm6.888-2.816V27h-1.232v-5.792h1.232zm5.132 2.944V27h-1.208v-2.64c0-.448-.176-.64-.552-.64-.328 0-.656.184-.816.328V27h-1.208v-4.168h1.072l.064.416c.304-.28.76-.504 1.328-.504.92 0 1.32.456 1.32 1.408zm2.78-1.408c.944 0 1.464.408 1.664 1.104l-.992.312c-.104-.352-.28-.568-.72-.568-.344 0-.528.128-.528.368 0 .304.352.368.848.456.728.128 1.464.288 1.464 1.272 0 .952-.808 1.408-1.832 1.408-1.072 0-1.632-.456-1.776-1.144l.984-.32c.096.32.264.632.832.632.408 0 .6-.136.6-.392 0-.312-.288-.36-.776-.448-.728-.136-1.504-.304-1.504-1.32 0-.92.808-1.36 1.736-1.36zm5.236 3.2l.168.856c-.208.136-.696.296-1.224.296-.872 0-1.328-.4-1.328-1.352v-2.032h-.624v-.88h.624V21.6l1.208-.16v1.392h1.104v.88h-1.104v1.864c0 .368.104.56.488.56.24 0 .528-.096.688-.192zm3.628-3.192v1.176c-.544-.048-1.08.096-1.432.376V27h-1.208v-4.168h1.032l.088.656c.28-.408.672-.744 1.312-.744.064 0 .136.008.208.008zm.788 2.952v-2.872h1.208v2.632c0 .448.144.648.528.648.312 0 .632-.184.792-.328v-2.952h1.208V27h-1.04l-.088-.448c-.296.336-.76.536-1.328.536-.856 0-1.28-.464-1.28-1.384zm6.764 1.392c-1.392 0-2.008-.88-2.008-2.112 0-1.432.776-2.24 2.128-2.24 1 0 1.656.56 1.736 1.576l-1.08.16c-.048-.52-.208-.808-.68-.808-.456 0-.84.216-.84 1.184s.312 1.296.824 1.296c.464 0 .704-.232.776-.76l1.016.192c-.144 1.048-.896 1.512-1.872 1.512zm5.436-1.152l.168.856c-.208.136-.696.296-1.224.296-.872 0-1.328-.4-1.328-1.352v-2.032h-.624v-.88h.624V21.6l1.208-.16v1.392h1.104v.88h-1.104v1.864c0 .368.104.56.488.56.24 0 .528-.096.688-.192zm2.22-3.112V27h-1.208v-4.168h1.208zm.128-1.28c0 .464-.272.736-.728.736-.464 0-.728-.272-.728-.736 0-.464.264-.728.728-.728.456 0 .728.264.728.728zm2.932 5.544c-1.512 0-2.032-.912-2.032-2.16 0-1.336.696-2.192 2.144-2.192 1.448 0 2.008.872 2.008 2.104 0 1.36-.624 2.248-2.12 2.248zm.056-.896c.528 0 .808-.336.808-1.312 0-.912-.248-1.232-.784-1.232-.544 0-.848.344-.848 1.248 0 .928.232 1.296.824 1.296zm6.876-2.048V27h-1.208v-2.64c0-.448-.176-.64-.552-.64-.328 0-.656.184-.816.328V27h-1.208v-4.168h1.072l.064.416c.304-.28.76-.504 1.328-.504.92 0 1.32.456 1.32 1.408zm2.78-1.408c.944 0 1.464.408 1.664 1.104l-.992.312c-.104-.352-.28-.568-.72-.568-.344 0-.528.128-.528.368 0 .304.352.368.848.456.728.128 1.464.288 1.464 1.272 0 .952-.808 1.408-1.832 1.408-1.072 0-1.632-.456-1.776-1.144l.984-.32c.096.32.264.632.832.632.408 0 .6-.136.6-.392 0-.312-.288-.36-.776-.448-.728-.136-1.504-.304-1.504-1.32 0-.92.808-1.36 1.736-1.36zM20.464 109.408v-4.2h1.24v4.168c0 1.144-.624 1.72-1.824 1.72-1 0-1.72-.4-1.76-1.64l1.184-.176c.048.48.112.808.592.808.368 0 .568-.168.568-.68zm5.868-1.192v1.744c0 .224.04.32.248.32a.834.834 0 0 0 .248-.048l.032.696c-.16.08-.512.16-.768.16-.48 0-.768-.136-.856-.528-.264.344-.664.536-1.24.536-1.04 0-1.24-.696-1.24-1.112 0-1.272 1.32-1.464 2.392-1.456v-.152c0-.472-.064-.76-.592-.76-.4 0-.552.168-.632.576l-1.024-.2c.128-.784.624-1.248 1.76-1.248 1.112 0 1.672.432 1.672 1.472zm-1.176 1.752v-.736h-.192c-.576.016-.992.128-.992.552 0 .24.104.456.488.456.288 0 .568-.144.696-.272zm3.756-1.952V111h-1.208v-4.168h1.024l.056.392c.328-.272.728-.48 1.264-.48.496 0 .872.144 1.064.52.296-.304.736-.52 1.296-.52.832 0 1.248.456 1.248 1.384V111h-1.208v-2.68c0-.392-.12-.6-.472-.6a1.09 1.09 0 0 0-.688.288c0 .032.008.064.008.104V111h-1.208v-2.68c0-.392-.12-.6-.464-.6-.248 0-.552.136-.712.296zm7.78 3.08c-1.544 0-2.04-1.04-2.04-2.168 0-1.504.92-2.184 2.04-2.184 1.264 0 1.792.768 1.792 1.928 0 .136-.008.4-.024.544h-2.536c.024.688.312.944.84.944.432 0 .6-.24.68-.592l1.016.248c-.152.776-.776 1.28-1.768 1.28zm-.752-2.648h1.296c0-.6-.216-.832-.608-.832-.344 0-.68.224-.688.832zm5.14-1.704c.944 0 1.464.408 1.664 1.104l-.992.312c-.104-.352-.28-.568-.72-.568-.344 0-.528.128-.528.368 0 .304.352.368.848.456.728.128 1.464.288 1.464 1.272 0 .952-.808 1.408-1.832 1.408-1.072 0-1.632-.456-1.776-1.144l.984-.32c.096.32.264.632.832.632.408 0 .6-.136.6-.392 0-.312-.288-.36-.776-.448-.728-.136-1.504-.304-1.504-1.32 0-.92.808-1.36 1.736-1.36zm6.408 2.664v-4.2h1.24v4.168c0 1.144-.624 1.72-1.824 1.72-1 0-1.72-.4-1.76-1.64l1.184-.176c.048.48.112.808.592.808.368 0 .568-.168.568-.68zm4.324 1.688c-1.512 0-2.032-.912-2.032-2.16 0-1.336.696-2.192 2.144-2.192 1.448 0 2.008.872 2.008 2.104 0 1.36-.624 2.248-2.12 2.248zm.056-.896c.528 0 .808-.336.808-1.312 0-.912-.248-1.232-.784-1.232-.544 0-.848.344-.848 1.248 0 .928.232 1.296.824 1.296zm4.068.888l-1.584-4.256h1.304l.872 2.904h.024l.84-2.904h1.24a559.086 559.086 0 0 1-1.656 4.576c-.352.984-.72 1.376-1.568 1.376-.328 0-.736-.088-.912-.176l.088-.872c.224.072.456.128.632.128.28 0 .464-.128.592-.448l.128-.328zm5.116.008c-1.392 0-2.008-.88-2.008-2.112 0-1.432.776-2.24 2.128-2.24 1 0 1.656.56 1.736 1.576l-1.08.16c-.048-.52-.208-.808-.68-.808-.456 0-.84.216-.84 1.184s.312 1.296.824 1.296c.464 0 .704-.232.776-.76l1.016.192c-.144 1.048-.896 1.512-1.872 1.512zm4.684 0c-1.544 0-2.04-1.04-2.04-2.168 0-1.504.92-2.184 2.04-2.184 1.264 0 1.792.768 1.792 1.928 0 .136-.008.4-.024.544h-2.536c.024.688.312.944.84.944.432 0 .6-.24.68-.592l1.016.248c-.152.776-.776 1.28-1.768 1.28zm-.752-2.648h1.296c0-.6-.216-.832-.608-.832-.344 0-.68.224-.688.832zM20.976 168.096c-1.92 0-2.672-1.136-2.672-2.928 0-1.84.976-3.064 2.792-3.064 1.296 0 2.216.624 2.28 2.08l-1.128.096c-.072-.824-.424-1.16-1.168-1.16-.944 0-1.504.608-1.504 1.984 0 1.424.504 1.976 1.416 1.976.832 0 1.12-.432 1.256-1.04l1.112.192c-.184 1.384-1.344 1.864-2.384 1.864zm7.124-2.944V168h-1.208v-2.632c0-.448-.176-.64-.552-.64-.328 0-.656.184-.816.328V168h-1.208v-6.04h1.2v2.256c.296-.232.696-.472 1.288-.472.896 0 1.296.456 1.296 1.408zm4.572.064v1.744c0 .224.04.32.248.32a.834.834 0 0 0 .248-.048l.032.696c-.16.08-.512.16-.768.16-.48 0-.768-.136-.856-.528-.264.344-.664.536-1.24.536-1.04 0-1.24-.696-1.24-1.112 0-1.272 1.32-1.464 2.392-1.456v-.152c0-.472-.064-.76-.592-.76-.4 0-.552.168-.632.576l-1.024-.2c.128-.784.624-1.248 1.76-1.248 1.112 0 1.672.432 1.672 1.472zm-1.176 1.752v-.736h-.192c-.576.016-.992.128-.992.552 0 .24.104.456.488.456.288 0 .568-.144.696-.272zm5.188-3.216v1.176c-.544-.048-1.08.096-1.432.376V168h-1.208v-4.168h1.032l.088.656c.28-.408.672-.744 1.312-.744.064 0 .136.008.208.008zm2.036-1.792V168h-1.208v-6.04h1.208zm3.068 6.136c-1.544 0-2.04-1.04-2.04-2.168 0-1.504.92-2.184 2.04-2.184 1.264 0 1.792.768 1.792 1.928 0 .136-.008.4-.024.544H41.02c.024.688.312.944.84.944.432 0 .6-.24.68-.592l1.016.248c-.152.776-.776 1.28-1.768 1.28zm-.752-2.648h1.296c0-.6-.216-.832-.608-.832-.344 0-.68.224-.688.832zm5.14-1.704c.944 0 1.464.408 1.664 1.104l-.992.312c-.104-.352-.28-.568-.72-.568-.344 0-.528.128-.528.368 0 .304.352.368.848.456.728.128 1.464.288 1.464 1.272 0 .952-.808 1.408-1.832 1.408-1.072 0-1.632-.456-1.776-1.144l.984-.32c.096.32.264.632.832.632.408 0 .6-.136.6-.392 0-.312-.288-.36-.776-.448-.728-.136-1.504-.304-1.504-1.32 0-.92.808-1.36 1.736-1.36zM52.608 168h-1.896v-5.792h2.032c2.008 0 2.872 1.08 2.872 2.808 0 1.776-.936 2.984-3.008 2.984zm-.664-.992h.608c1.336 0 1.8-.728 1.8-1.928 0-1.44-.56-1.88-1.712-1.88h-.696v3.808zm5.956-3.176V168h-1.208v-4.168H57.9zm.128-1.28c0 .464-.272.736-.728.736-.464 0-.728-.272-.728-.736 0-.464.264-.728.728-.728.456 0 .728.264.728.728zm2.908 5.544c-1.392 0-2.008-.88-2.008-2.112 0-1.432.776-2.24 2.128-2.24 1 0 1.656.56 1.736 1.576l-1.08.16c-.048-.52-.208-.808-.68-.808-.456 0-.84.216-.84 1.184s.312 1.296.824 1.296c.464 0 .704-.232.776-.76l1.016.192c-.144 1.048-.896 1.512-1.872 1.512zm4.052-6.136v3.328l1.376-1.456H67.7l-1.384 1.496L67.804 168h-1.336l-1.08-1.904-.4.392V168H63.78v-6.04h1.208zm5.268 6.136c-1.544 0-2.04-1.04-2.04-2.168 0-1.504.92-2.184 2.04-2.184 1.264 0 1.792.768 1.792 1.928 0 .136-.008.4-.024.544h-2.536c.024.688.312.944.84.944.432 0 .6-.24.68-.592l1.016.248c-.152.776-.776 1.28-1.768 1.28zm-.752-2.648H70.8c0-.6-.216-.832-.608-.832-.344 0-.68.224-.688.832zm7.356-.296V168h-1.208v-2.64c0-.448-.176-.64-.552-.64-.328 0-.656.184-.816.328V168h-1.208v-4.168h1.072l.064.416c.304-.28.76-.504 1.328-.504.92 0 1.32.456 1.32 1.408zm2.78-1.408c.944 0 1.464.408 1.664 1.104l-.992.312c-.104-.352-.28-.568-.72-.568-.344 0-.528.128-.528.368 0 .304.352.368.848.456.728.128 1.464.288 1.464 1.272 0 .952-.808 1.408-1.832 1.408-1.072 0-1.632-.456-1.776-1.144l.984-.32c.096.32.264.632.832.632.408 0 .6-.136.6-.392 0-.312-.288-.36-.776-.448-.728-.136-1.504-.304-1.504-1.32 0-.92.808-1.36 1.736-1.36zM23.28 219.208V225h-1.24v-2.376h-2.216V225h-1.232v-5.792h1.232v2.352h2.216v-2.352h1.24zm4.732 3.008v1.744c0 .224.04.32.248.32a.834.834 0 0 0 .248-.048l.032.696c-.16.08-.512.16-.768.16-.48 0-.768-.136-.856-.528-.264.344-.664.536-1.24.536-1.04 0-1.24-.696-1.24-1.112 0-1.272 1.32-1.464 2.392-1.456v-.152c0-.472-.064-.76-.592-.76-.4 0-.552.168-.632.576l-1.024-.2c.128-.784.624-1.248 1.76-1.248 1.112 0 1.672.432 1.672 1.472zm-1.176 1.752v-.736h-.192c-.576.016-.992.128-.992.552 0 .24.104.456.488.456.288 0 .568-.144.696-.272zm5.188-3.216v1.176c-.544-.048-1.08.096-1.432.376V225h-1.208v-4.168h1.032l.088.656c.28-.408.672-.744 1.312-.744.064 0 .136.008.208.008zm.82 5.944v-5.864h1.024l.072.424c.36-.36.84-.512 1.304-.512.888 0 1.568.544 1.568 2.08 0 1.656-.776 2.272-1.696 2.272-.512 0-.84-.16-1.104-.4v2h-1.168zm1.192-4.672v1.824c.12.112.432.28.728.28.56 0 .784-.464.784-1.272 0-.84-.248-1.152-.736-1.152-.28 0-.592.168-.776.32zm5.684 3.072c-1.544 0-2.04-1.04-2.04-2.168 0-1.504.92-2.184 2.04-2.184 1.264 0 1.792.768 1.792 1.928 0 .136-.008.4-.024.544h-2.536c.024.688.312.944.84.944.432 0 .6-.24.68-.592l1.016.248c-.152.776-.776 1.28-1.768 1.28zm-.752-2.648h1.296c0-.6-.216-.832-.608-.832-.344 0-.68.224-.688.832zm6.212-1.696v1.176c-.544-.048-1.08.096-1.432.376V225H42.54v-4.168h1.032l.088.656c.28-.408.672-.744 1.312-.744.064 0 .136.008.208.008zm3.864-1.544v4.752h2.48V225h-3.712v-5.792h1.232zm5.252 5.888c-1.544 0-2.04-1.04-2.04-2.168 0-1.504.92-2.184 2.04-2.184 1.264 0 1.792.768 1.792 1.928 0 .136-.008.4-.024.544h-2.536c.024.688.312.944.84.944.432 0 .6-.24.68-.592l1.016.248c-.152.776-.776 1.28-1.768 1.28zm-.752-2.648h1.296c0-.6-.216-.832-.608-.832-.344 0-.68.224-.688.832zm5.428 2.648c-1.544 0-2.04-1.04-2.04-2.168 0-1.504.92-2.184 2.04-2.184 1.264 0 1.792.768 1.792 1.928 0 .136-.008.4-.024.544h-2.536c.024.688.312.944.84.944.432 0 .6-.24.68-.592l1.016.248c-.152.776-.776 1.28-1.768 1.28zm-.752-2.648h1.296c0-.6-.216-.832-.608-.832-.344 0-.68.224-.688.832z"/>
        <path fill="#636363" fill-rule="nonzero" d="M19.56 65h-.57v-2.895c-.17.095-.61.16-.775.16l-.035-.465c.46-.04.785-.16 1.02-.42h.36V65zm1.748-.315c0 .245-.13.375-.39.375s-.39-.125-.39-.375.13-.38.39-.38c.255 0 .39.13.39.38zm-1.953 4.63c.645 0 1.03.31 1.03.915 0 .535-.275.9-.785 1.48l-.69.79v.01h1.525V73h-2.18v-.48l.815-.97c.485-.575.735-.875.735-1.3 0-.325-.185-.465-.505-.465-.415 0-.535.235-.59.58l-.51-.09c.09-.68.565-.96 1.155-.96zm2.488 3.37c0 .245-.13.375-.39.375s-.39-.125-.39-.375.13-.38.39-.38c.255 0 .39.13.39.38zm-3.688 7.49l.52-.1c.05.315.17.515.59.515.335 0 .615-.18.615-.635 0-.46-.265-.62-.69-.62h-.335v-.455h.23c.475 0 .745-.245.745-.625 0-.275-.12-.475-.505-.475-.38 0-.505.17-.58.485l-.5-.105c.12-.635.59-.845 1.14-.845.66 0 1.015.335 1.015.865 0 .515-.37.775-.69.87v.015c.475.095.76.37.76.915 0 .655-.485 1.08-1.21 1.08-.58 0-1.03-.25-1.105-.885zm3.763.51c0 .245-.13.375-.39.375s-.39-.125-.39-.375.13-.38.39-.38c.255 0 .39.13.39.38zM20.325 89h-.555v-.86h-1.65v-.415l1.5-2.345h.71v2.285h.42v.475h-.425V89zm-1.67-1.335h1.12V85.92l-1.12 1.745zm3.383 1.02c0 .245-.13.375-.39.375s-.39-.125-.39-.375.13-.38.39-.38c.255 0 .39.13.39.38zM19.56 122h-.57v-2.895c-.17.095-.61.16-.775.16l-.035-.465c.46-.04.785-.16 1.02-.42h.36V122zm1.748-.315c0 .245-.13.375-.39.375s-.39-.125-.39-.375.13-.38.39-.38c.255 0 .39.13.39.38zm-1.953 4.63c.645 0 1.03.31 1.03.915 0 .535-.275.9-.785 1.48l-.69.79v.01h1.525v.49h-2.18v-.48l.815-.97c.485-.575.735-.875.735-1.3 0-.325-.185-.465-.505-.465-.415 0-.535.235-.59.58l-.51-.09c.09-.68.565-.96 1.155-.96zm2.488 3.37c0 .245-.13.375-.39.375s-.39-.125-.39-.375.13-.38.39-.38c.255 0 .39.13.39.38zm-3.688 7.49l.52-.1c.05.315.17.515.59.515.335 0 .615-.18.615-.635 0-.46-.265-.62-.69-.62h-.335v-.455h.23c.475 0 .745-.245.745-.625 0-.275-.12-.475-.505-.475-.38 0-.505.17-.58.485l-.5-.105c.12-.635.59-.845 1.14-.845.66 0 1.015.335 1.015.865 0 .515-.37.775-.69.87v.015c.475.095.76.37.76.915 0 .655-.485 1.08-1.21 1.08-.58 0-1.03-.25-1.105-.885zm3.763.51c0 .245-.13.375-.39.375s-.39-.125-.39-.375.13-.38.39-.38c.255 0 .39.13.39.38zM20.325 146h-.555v-.86h-1.65v-.415l1.5-2.345h.71v2.285h.42v.475h-.425v.86zm-1.67-1.335h1.12v-1.745l-1.12 1.745zm3.383 1.02c0 .245-.13.375-.39.375s-.39-.125-.39-.375.13-.38.39-.38c.255 0 .39.13.39.38zM19.56 179h-.57v-2.895c-.17.095-.61.16-.775.16l-.035-.465c.46-.04.785-.16 1.02-.42h.36V179zm1.748-.315c0 .245-.13.375-.39.375s-.39-.125-.39-.375.13-.38.39-.38c.255 0 .39.13.39.38zm-1.953 4.63c.645 0 1.03.31 1.03.915 0 .535-.275.9-.785 1.48l-.69.79v.01h1.525v.49h-2.18v-.48l.815-.97c.485-.575.735-.875.735-1.3 0-.325-.185-.465-.505-.465-.415 0-.535.235-.59.58l-.51-.09c.09-.68.565-.96 1.155-.96zm2.488 3.37c0 .245-.13.375-.39.375s-.39-.125-.39-.375.13-.38.39-.38c.255 0 .39.13.39.38zm-3.688 7.49l.52-.1c.05.315.17.515.59.515.335 0 .615-.18.615-.635 0-.46-.265-.62-.69-.62h-.335v-.455h.23c.475 0 .745-.245.745-.625 0-.275-.12-.475-.505-.475-.38 0-.505.17-.58.485l-.5-.105c.12-.635.59-.845 1.14-.845.66 0 1.015.335 1.015.865 0 .515-.37.775-.69.87v.015c.475.095.76.37.76.915 0 .655-.485 1.08-1.21 1.08-.58 0-1.03-.25-1.105-.885zm3.763.51c0 .245-.13.375-.39.375s-.39-.125-.39-.375.13-.38.39-.38c.255 0 .39.13.39.38zM20.325 203h-.555v-.86h-1.65v-.415l1.5-2.345h.71v2.285h.42v.475h-.425v.86zm-1.67-1.335h1.12v-1.745l-1.12 1.745zm3.383 1.02c0 .245-.13.375-.39.375s-.39-.125-.39-.375.13-.38.39-.38c.255 0 .39.13.39.38zM19.56 236h-.57v-2.895c-.17.095-.61.16-.775.16l-.035-.465c.46-.04.785-.16 1.02-.42h.36V236zm1.748-.315c0 .245-.13.375-.39.375s-.39-.125-.39-.375.13-.38.39-.38c.255 0 .39.13.39.38zm-1.953 4.63c.645 0 1.03.31 1.03.915 0 .535-.275.9-.785 1.48l-.69.79v.01h1.525v.49h-2.18v-.48l.815-.97c.485-.575.735-.875.735-1.3 0-.325-.185-.465-.505-.465-.415 0-.535.235-.59.58l-.51-.09c.09-.68.565-.96 1.155-.96zm2.488 3.37c0 .245-.13.375-.39.375s-.39-.125-.39-.375.13-.38.39-.38c.255 0 .39.13.39.38zm-3.688 7.49l.52-.1c.05.315.17.515.59.515.335 0 .615-.18.615-.635 0-.46-.265-.62-.69-.62h-.335v-.455h.23c.475 0 .745-.245.745-.625 0-.275-.12-.475-.505-.475-.38 0-.505.17-.58.485l-.5-.105c.12-.635.59-.845 1.14-.845.66 0 1.015.335 1.015.865 0 .515-.37.775-.69.87v.015c.475.095.76.37.76.915 0 .655-.485 1.08-1.21 1.08-.58 0-1.03-.25-1.105-.885zm3.763.51c0 .245-.13.375-.39.375s-.39-.125-.39-.375.13-.38.39-.38c.255 0 .39.13.39.38zM20.325 260h-.555v-.86h-1.65v-.415l1.5-2.345h.71v2.285h.42v.475h-.425v.86zm-1.67-1.335h1.12v-1.745l-1.12 1.745zm3.383 1.02c0 .245-.13.375-.39.375s-.39-.125-.39-.375.13-.38.39-.38c.255 0 .39.13.39.38z"/>
        <path fill="#D6D6D6" d="M72 16h1v16h-1z"/>
    </g>
</svg>
