<svg xmlns="http://www.w3.org/2000/svg" xmlns:xlink="http://www.w3.org/1999/xlink" width="224" height="286" viewBox="0 0 224 286">
    <defs>
        <path id="b" d="M8 8h208v270H8z"/>
        <filter id="a" width="112%" height="109.3%" x="-6%" y="-4.3%" filterUnits="objectBoundingBox">
            <feOffset dy="1" in="SourceAlpha" result="shadowOffsetOuter1"/>
            <feGaussianBlur in="shadowOffsetOuter1" result="shadowBlurOuter1" stdDeviation="4"/>
            <feColorMatrix in="shadowBlurOuter1" result="shadowMatrixOuter1" values="0 0 0 0 0 0 0 0 0 0 0 0 0 0 0 0 0 0 0.2 0"/>
            <feMorphology in="SourceAlpha" radius="1" result="shadowSpreadOuter2"/>
            <feOffset dy="3" in="shadowSpreadOuter2" result="shadowOffsetOuter2"/>
            <feGaussianBlur in="shadowOffsetOuter2" result="shadowBlurOuter2" stdDeviation="1.5"/>
            <feColorMatrix in="shadowBlurOuter2" result="shadowMatrixOuter2" values="0 0 0 0 0 0 0 0 0 0 0 0 0 0 0 0 0 0 0.12 0"/>
            <feOffset dy="3" in="SourceAlpha" result="shadowOffsetOuter3"/>
            <feGaussianBlur in="shadowOffsetOuter3" result="shadowBlurOuter3" stdDeviation="2"/>
            <feColorMatrix in="shadowBlurOuter3" result="shadowMatrixOuter3" values="0 0 0 0 0 0 0 0 0 0 0 0 0 0 0 0 0 0 0.14 0"/>
            <feMerge>
                <feMergeNode in="shadowMatrixOuter1"/>
                <feMergeNode in="shadowMatrixOuter2"/>
                <feMergeNode in="shadowMatrixOuter3"/>
            </feMerge>
        </filter>
    </defs>
    <g fill="none" fill-rule="evenodd">
        <path d="M0 0h224v286H0z"/>
        <use fill="#000" filter="url(#a)" xlink:href="#b"/>
        <use fill="#FFF" xlink:href="#b"/>
        <path fill="#636363" fill-rule="nonzero" d="M27.872 94h-.684v-3.474c-.204.114-.732.192-.93.192l-.042-.558c.552-.048.942-.192 1.224-.504h.432V94zm1.872-.378c0 .294-.156.45-.468.45-.312 0-.468-.15-.468-.45 0-.3.156-.456.468-.456.306 0 .468.156.468.456zM27.626 101.578c.774 0 1.236.372 1.236 1.098 0 .642-.33 1.08-.942 1.776l-.828.948v.012h1.83V106h-2.616v-.576l.978-1.164c.582-.69.882-1.05.882-1.56 0-.39-.222-.558-.606-.558-.498 0-.642.282-.708.696l-.612-.108c.108-.816.678-1.152 1.386-1.152zm2.76 4.044c0 .294-.156.45-.468.45-.312 0-.468-.15-.468-.45 0-.3.156-.456.468-.456.306 0 .468.156.468.456zM26.186 117.01l.624-.12c.06.378.204.618.708.618.402 0 .738-.216.738-.762 0-.552-.318-.744-.828-.744h-.402v-.546h.276c.57 0 .894-.294.894-.75 0-.33-.144-.57-.606-.57-.456 0-.606.204-.696.582l-.6-.126c.144-.762.708-1.014 1.368-1.014.792 0 1.218.402 1.218 1.038 0 .618-.444.93-.828 1.044v.018c.57.114.912.444.912 1.098 0 .786-.582 1.296-1.452 1.296-.696 0-1.236-.3-1.326-1.062zm4.29.612c0 .294-.156.45-.468.45-.312 0-.468-.15-.468-.45 0-.3.156-.456.468-.456.306 0 .468.156.468.456zM28.79 130h-.666v-1.032h-1.98v-.498l1.8-2.814h.852v2.742h.504v.57h-.51V130zm-2.004-1.602h1.344v-2.094l-1.344 2.094zm3.834 1.224c0 .294-.156.45-.468.45-.312 0-.468-.15-.468-.45 0-.3.156-.456.468-.456.306 0 .468.156.468.456z"/>
        <path fill="#D6D6D6" d="M35 90h44v4H35z"/>
        <path stroke="#D6D6D6" d="M18.5 53.5h89v90h-89z"/>
        <path fill="#D6D6D6" d="M35 126h49v4H35zM35 114h18v4H35zM55 114h44v4H55zM35 102h11v4H35zM48 102h43v4H48z"/>
        <path fill="#373737" fill-rule="nonzero" d="M33.878 62.484V69h-1.053v-2.844h-2.898V69h-1.053v-6.516h1.053v2.745h2.898v-2.745h1.053zm3.478 6.624c-1.638 0-2.196-1.026-2.196-2.412 0-1.494.774-2.448 2.313-2.448 1.54 0 2.151.963 2.151 2.34 0 1.53-.666 2.52-2.268 2.52zm.054-.801c.711 0 1.134-.468 1.134-1.665 0-1.161-.378-1.557-1.107-1.557-.738 0-1.197.441-1.197 1.575s.36 1.647 1.17 1.647zm5.342.693h-1.233l-1.422-4.653h1.044l1.017 3.582h.009l.936-3.582h1.044l.936 3.564h.009l.99-3.564h1.008L45.668 69H44.48l-.873-3.411h-.018L42.752 69zm9.639-.954l.17.738c-.233.153-.737.324-1.232.324-.918 0-1.386-.414-1.386-1.404v-2.592h-.711v-.765h.71v-1.359l1.036-.144v1.503h1.26v.765h-1.26v2.448c0 .459.117.702.62.702.28 0 .604-.108.793-.216zm2.857 1.062c-1.638 0-2.196-1.026-2.196-2.412 0-1.494.774-2.448 2.313-2.448 1.54 0 2.151.963 2.151 2.34 0 1.53-.666 2.52-2.268 2.52zm.054-.801c.711 0 1.134-.468 1.134-1.665 0-1.161-.378-1.557-1.107-1.557-.738 0-1.197.441-1.197 1.575s.36 1.647 1.17 1.647zm4.833 2.7c-.369 0-.792-.099-.963-.207l.09-.792c.18.072.45.153.702.153.351 0 .603-.171.603-.72v-5.094h1.035v5.157c0 1.062-.567 1.503-1.467 1.503zm1.638-8.172c0 .432-.252.684-.675.684-.432 0-.675-.252-.675-.684 0-.441.243-.684.675-.684.423 0 .675.243.675.684zm3.128 6.273c-1.638 0-2.196-1.026-2.196-2.412 0-1.494.774-2.448 2.313-2.448 1.539 0 2.15.963 2.15 2.34 0 1.53-.665 2.52-2.267 2.52zm.054-.801c.71 0 1.134-.468 1.134-1.665 0-1.161-.378-1.557-1.107-1.557-.738 0-1.197.441-1.197 1.575s.36 1.647 1.17 1.647zm4.405-3.96V69h-1.035v-4.653h1.035zm.162-1.467c0 .441-.243.684-.675.684-.423 0-.675-.243-.675-.684 0-.432.252-.675.675-.675.432 0 .675.243.675.675zm5.225 2.952V69h-1.035v-2.997c0-.585-.216-.891-.765-.891-.468 0-.954.288-1.18.495V69h-1.034v-4.653h.918l.045.486a2.58 2.58 0 0 1 1.61-.585c1.009 0 1.44.531 1.44 1.584zm5.976 3.276c-2.043 0-2.97-1.404-2.97-3.348s1.07-3.393 3.105-3.393c2.034 0 2.925 1.449 2.925 3.258 0 1.08-.261 1.926-.82 2.547l.784.828-.603.558-.82-.864c-.404.27-.962.414-1.601.414zm.045-.855c.342 0 .684-.063.963-.225l-1.116-1.215.603-.567 1.08 1.188c.279-.441.423-.999.423-1.719 0-1.656-.747-2.43-1.89-2.43-1.17 0-1.99.792-1.99 2.457 0 1.692.775 2.511 1.927 2.511zm4.162-.729v-3.177h1.035v2.997c0 .585.18.882.73.882.458 0 .944-.279 1.17-.486v-3.393h1.034V69H88l-.072-.513a2.343 2.343 0 0 1-1.593.612c-.972 0-1.404-.531-1.404-1.575zm6.395-3.177V69H90.29v-4.653h1.035zm.162-1.467c0 .441-.243.684-.675.684-.423 0-.675-.243-.675-.684 0-.432.252-.675.675-.675.432 0 .675.243.675.675zm2.263-.675V69h-1.035v-6.795h1.035zm2.426 0V69H95.14v-6.795h1.035z"/>
        <path fill="#D8D8D8" stroke="#D6D6D6" d="M26.5 78.5h73v1h-73z"/>
        <g>
            <path fill="#636363" fill-rule="nonzero" d="M27.872 193h-.684v-3.474c-.204.114-.732.192-.93.192l-.042-.558c.552-.048.942-.192 1.224-.504h.432V193zm1.872-.378c0 .294-.156.45-.468.45-.312 0-.468-.15-.468-.45 0-.3.156-.456.468-.456.306 0 .468.156.468.456zM27.626 200.578c.774 0 1.236.372 1.236 1.098 0 .642-.33 1.08-.942 1.776l-.828.948v.012h1.83V205h-2.616v-.576l.978-1.164c.582-.69.882-1.05.882-1.56 0-.39-.222-.558-.606-.558-.498 0-.642.282-.708.696l-.612-.108c.108-.816.678-1.152 1.386-1.152zm2.76 4.044c0 .294-.156.45-.468.45-.312 0-.468-.15-.468-.45 0-.3.156-.456.468-.456.306 0 .468.156.468.456zM26.186 216.01l.624-.12c.06.378.204.618.708.618.402 0 .738-.216.738-.762 0-.552-.318-.744-.828-.744h-.402v-.546h.276c.57 0 .894-.294.894-.75 0-.33-.144-.57-.606-.57-.456 0-.606.204-.696.582l-.6-.126c.144-.762.708-1.014 1.368-1.014.792 0 1.218.402 1.218 1.038 0 .618-.444.93-.828 1.044v.018c.57.114.912.444.912 1.098 0 .786-.582 1.296-1.452 1.296-.696 0-1.236-.3-1.326-1.062zm4.29.612c0 .294-.156.45-.468.45-.312 0-.468-.15-.468-.45 0-.3.156-.456.468-.456.306 0 .468.156.468.456zM28.79 229h-.666v-1.032h-1.98v-.498l1.8-2.814h.852v2.742h.504v.57h-.51V229zm-2.004-1.602h1.344v-2.094l-1.344 2.094zm3.834 1.224c0 .294-.156.45-.468.45-.312 0-.468-.15-.468-.45 0-.3.156-.456.468-.456.306 0 .468.156.468.456z"/>
            <path fill="#D6D6D6" d="M35 189h44v4H35z"/>
            <path stroke="#D6D6D6" d="M18.5 152.5h89v90h-89z"/>
            <path fill="#D6D6D6" d="M35 225h49v4H35zM35 213h18v4H35zM55 213h44v4H55zM35 201h11v4H35zM48 201h43v4H48z"/>
            <path fill="#373737" fill-rule="nonzero" d="M33.878 161.484V168h-1.053v-2.844h-2.898V168h-1.053v-6.516h1.053v2.745h2.898v-2.745h1.053zm3.478 6.624c-1.638 0-2.196-1.026-2.196-2.412 0-1.494.774-2.448 2.313-2.448 1.54 0 2.151.963 2.151 2.34 0 1.53-.666 2.52-2.268 2.52zm.054-.801c.711 0 1.134-.468 1.134-1.665 0-1.161-.378-1.557-1.107-1.557-.738 0-1.197.441-1.197 1.575s.36 1.647 1.17 1.647zm5.342.693h-1.233l-1.422-4.653h1.044l1.017 3.582h.009l.936-3.582h1.044l.936 3.564h.009l.99-3.564h1.008L45.668 168H44.48l-.873-3.411h-.018L42.752 168zm9.639-.954l.17.738c-.233.153-.737.324-1.232.324-.918 0-1.386-.414-1.386-1.404v-2.592h-.711v-.765h.71v-1.359l1.036-.144v1.503h1.26v.765h-1.26v2.448c0 .459.117.702.62.702.28 0 .604-.108.793-.216zm2.857 1.062c-1.638 0-2.196-1.026-2.196-2.412 0-1.494.774-2.448 2.313-2.448 1.54 0 2.151.963 2.151 2.34 0 1.53-.666 2.52-2.268 2.52zm.054-.801c.711 0 1.134-.468 1.134-1.665 0-1.161-.378-1.557-1.107-1.557-.738 0-1.197.441-1.197 1.575s.36 1.647 1.17 1.647zm4.833 2.7c-.369 0-.792-.099-.963-.207l.09-.792c.18.072.45.153.702.153.351 0 .603-.171.603-.72v-5.094h1.035v5.157c0 1.062-.567 1.503-1.467 1.503zm1.638-8.172c0 .432-.252.684-.675.684-.432 0-.675-.252-.675-.684 0-.441.243-.684.675-.684.423 0 .675.243.675.684zm3.128 6.273c-1.638 0-2.196-1.026-2.196-2.412 0-1.494.774-2.448 2.313-2.448 1.539 0 2.15.963 2.15 2.34 0 1.53-.665 2.52-2.267 2.52zm.054-.801c.71 0 1.134-.468 1.134-1.665 0-1.161-.378-1.557-1.107-1.557-.738 0-1.197.441-1.197 1.575s.36 1.647 1.17 1.647zm4.405-3.96V168h-1.035v-4.653h1.035zm.162-1.467c0 .441-.243.684-.675.684-.423 0-.675-.243-.675-.684 0-.432.252-.675.675-.675.432 0 .675.243.675.675zm5.225 2.952V168h-1.035v-2.997c0-.585-.216-.891-.765-.891-.468 0-.954.288-1.18.495V168h-1.034v-4.653h.918l.045.486a2.58 2.58 0 0 1 1.61-.585c1.009 0 1.44.531 1.44 1.584zm5.976 3.276c-2.043 0-2.97-1.404-2.97-3.348s1.07-3.393 3.105-3.393c2.034 0 2.925 1.449 2.925 3.258 0 1.08-.261 1.926-.82 2.547l.784.828-.603.558-.82-.864c-.404.27-.962.414-1.601.414zm.045-.855c.342 0 .684-.063.963-.225l-1.116-1.215.603-.567 1.08 1.188c.279-.441.423-.999.423-1.719 0-1.656-.747-2.43-1.89-2.43-1.17 0-1.99.792-1.99 2.457 0 1.692.775 2.511 1.927 2.511zm4.162-.729v-3.177h1.035v2.997c0 .585.18.882.73.882.458 0 .944-.279 1.17-.486v-3.393h1.034V168H88l-.072-.513a2.343 2.343 0 0 1-1.593.612c-.972 0-1.404-.531-1.404-1.575zm6.395-3.177V168H90.29v-4.653h1.035zm.162-1.467c0 .441-.243.684-.675.684-.423 0-.675-.243-.675-.684 0-.432.252-.675.675-.675.432 0 .675.243.675.675zm2.263-.675V168h-1.035v-6.795h1.035zm2.426 0V168H95.14v-6.795h1.035z"/>
            <path fill="#D8D8D8" stroke="#D6D6D6" d="M26.5 177.5h73v1h-73z"/>
        </g>
        <g>
            <path fill="#636363" fill-rule="nonzero" d="M125.872 94h-.684v-3.474c-.204.114-.732.192-.93.192l-.042-.558c.552-.048.942-.192 1.224-.504h.432V94zm1.872-.378c0 .294-.156.45-.468.45-.312 0-.468-.15-.468-.45 0-.3.156-.456.468-.456.306 0 .468.156.468.456zM125.626 101.578c.774 0 1.236.372 1.236 1.098 0 .642-.33 1.08-.942 1.776l-.828.948v.012h1.83V106h-2.616v-.576l.978-1.164c.582-.69.882-1.05.882-1.56 0-.39-.222-.558-.606-.558-.498 0-.642.282-.708.696l-.612-.108c.108-.816.678-1.152 1.386-1.152zm2.76 4.044c0 .294-.156.45-.468.45-.312 0-.468-.15-.468-.45 0-.3.156-.456.468-.456.306 0 .468.156.468.456zM124.186 117.01l.624-.12c.06.378.204.618.708.618.402 0 .738-.216.738-.762 0-.552-.318-.744-.828-.744h-.402v-.546h.276c.57 0 .894-.294.894-.75 0-.33-.144-.57-.606-.57-.456 0-.606.204-.696.582l-.6-.126c.144-.762.708-1.014 1.368-1.014.792 0 1.218.402 1.218 1.038 0 .618-.444.93-.828 1.044v.018c.57.114.912.444.912 1.098 0 .786-.582 1.296-1.452 1.296-.696 0-1.236-.3-1.326-1.062zm4.29.612c0 .294-.156.45-.468.45-.312 0-.468-.15-.468-.45 0-.3.156-.456.468-.456.306 0 .468.156.468.456zM126.79 130h-.666v-1.032h-1.98v-.498l1.8-2.814h.852v2.742h.504v.57h-.51V130zm-2.004-1.602h1.344v-2.094l-1.344 2.094zm3.834 1.224c0 .294-.156.45-.468.45-.312 0-.468-.15-.468-.45 0-.3.156-.456.468-.456.306 0 .468.156.468.456z"/>
            <path fill="#D6D6D6" d="M133 90h44v4h-44z"/>
            <path stroke="#D6D6D6" d="M116.5 53.5h89v90h-89z"/>
            <path fill="#D6D6D6" d="M133 126h49v4h-49zM133 114h18v4h-18zM153 114h44v4h-44zM133 102h11v4h-11zM146 102h43v4h-43z"/>
            <path fill="#373737" fill-rule="nonzero" d="M131.878 62.484V69h-1.053v-2.844h-2.898V69h-1.053v-6.516h1.053v2.745h2.898v-2.745h1.053zm3.478 6.624c-1.638 0-2.196-1.026-2.196-2.412 0-1.494.774-2.448 2.313-2.448 1.54 0 2.151.963 2.151 2.34 0 1.53-.666 2.52-2.268 2.52zm.054-.801c.711 0 1.134-.468 1.134-1.665 0-1.161-.378-1.557-1.107-1.557-.738 0-1.197.441-1.197 1.575s.36 1.647 1.17 1.647zm5.342.693h-1.233l-1.422-4.653h1.044l1.017 3.582h.009l.936-3.582h1.044l.936 3.564h.009l.99-3.564h1.008L143.668 69h-1.188l-.873-3.411h-.018L140.752 69zm9.639-.954l.17.738c-.233.153-.737.324-1.232.324-.918 0-1.386-.414-1.386-1.404v-2.592h-.711v-.765h.71v-1.359l1.036-.144v1.503h1.26v.765h-1.26v2.448c0 .459.117.702.62.702.28 0 .604-.108.793-.216zm2.857 1.062c-1.638 0-2.196-1.026-2.196-2.412 0-1.494.774-2.448 2.313-2.448 1.54 0 2.151.963 2.151 2.34 0 1.53-.666 2.52-2.268 2.52zm.054-.801c.711 0 1.134-.468 1.134-1.665 0-1.161-.378-1.557-1.107-1.557-.738 0-1.197.441-1.197 1.575s.36 1.647 1.17 1.647zm4.833 2.7c-.369 0-.792-.099-.963-.207l.09-.792c.18.072.45.153.702.153.351 0 .603-.171.603-.72v-5.094h1.035v5.157c0 1.062-.567 1.503-1.467 1.503zm1.638-8.172c0 .432-.252.684-.675.684-.432 0-.675-.252-.675-.684 0-.441.243-.684.675-.684.423 0 .675.243.675.684zm3.128 6.273c-1.638 0-2.196-1.026-2.196-2.412 0-1.494.774-2.448 2.313-2.448 1.539 0 2.15.963 2.15 2.34 0 1.53-.665 2.52-2.267 2.52zm.054-.801c.71 0 1.134-.468 1.134-1.665 0-1.161-.378-1.557-1.107-1.557-.738 0-1.197.441-1.197 1.575s.36 1.647 1.17 1.647zm4.405-3.96V69h-1.035v-4.653h1.035zm.162-1.467c0 .441-.243.684-.675.684-.423 0-.675-.243-.675-.684 0-.432.252-.675.675-.675.432 0 .675.243.675.675zm5.225 2.952V69h-1.035v-2.997c0-.585-.216-.891-.765-.891-.468 0-.954.288-1.18.495V69h-1.034v-4.653h.918l.045.486a2.58 2.58 0 0 1 1.61-.585c1.009 0 1.44.531 1.44 1.584zm5.976 3.276c-2.043 0-2.97-1.404-2.97-3.348s1.07-3.393 3.105-3.393c2.034 0 2.925 1.449 2.925 3.258 0 1.08-.261 1.926-.82 2.547l.784.828-.603.558-.82-.864c-.404.27-.962.414-1.601.414zm.045-.855c.342 0 .684-.063.963-.225l-1.116-1.215.603-.567 1.08 1.188c.279-.441.423-.999.423-1.719 0-1.656-.747-2.43-1.89-2.43-1.17 0-1.99.792-1.99 2.457 0 1.692.775 2.511 1.927 2.511zm4.162-.729v-3.177h1.035v2.997c0 .585.18.882.73.882.458 0 .944-.279 1.17-.486v-3.393h1.034V69h-.9l-.072-.513a2.343 2.343 0 0 1-1.593.612c-.972 0-1.404-.531-1.404-1.575zm6.395-3.177V69h-1.035v-4.653h1.035zm.162-1.467c0 .441-.243.684-.675.684-.423 0-.675-.243-.675-.684 0-.432.252-.675.675-.675.432 0 .675.243.675.675zm2.263-.675V69h-1.035v-6.795h1.035zm2.426 0V69h-1.035v-6.795h1.035z"/>
            <path fill="#D8D8D8" stroke="#D6D6D6" d="M124.5 78.5h73v1h-73z"/>
        </g>
        <g>
            <path fill="#636363" fill-rule="nonzero" d="M125.872 193h-.684v-3.474c-.204.114-.732.192-.93.192l-.042-.558c.552-.048.942-.192 1.224-.504h.432V193zm1.872-.378c0 .294-.156.45-.468.45-.312 0-.468-.15-.468-.45 0-.3.156-.456.468-.456.306 0 .468.156.468.456zM125.626 200.578c.774 0 1.236.372 1.236 1.098 0 .642-.33 1.08-.942 1.776l-.828.948v.012h1.83V205h-2.616v-.576l.978-1.164c.582-.69.882-1.05.882-1.56 0-.39-.222-.558-.606-.558-.498 0-.642.282-.708.696l-.612-.108c.108-.816.678-1.152 1.386-1.152zm2.76 4.044c0 .294-.156.45-.468.45-.312 0-.468-.15-.468-.45 0-.3.156-.456.468-.456.306 0 .468.156.468.456zM124.186 216.01l.624-.12c.06.378.204.618.708.618.402 0 .738-.216.738-.762 0-.552-.318-.744-.828-.744h-.402v-.546h.276c.57 0 .894-.294.894-.75 0-.33-.144-.57-.606-.57-.456 0-.606.204-.696.582l-.6-.126c.144-.762.708-1.014 1.368-1.014.792 0 1.218.402 1.218 1.038 0 .618-.444.93-.828 1.044v.018c.57.114.912.444.912 1.098 0 .786-.582 1.296-1.452 1.296-.696 0-1.236-.3-1.326-1.062zm4.29.612c0 .294-.156.45-.468.45-.312 0-.468-.15-.468-.45 0-.3.156-.456.468-.456.306 0 .468.156.468.456zM126.79 229h-.666v-1.032h-1.98v-.498l1.8-2.814h.852v2.742h.504v.57h-.51V229zm-2.004-1.602h1.344v-2.094l-1.344 2.094zm3.834 1.224c0 .294-.156.45-.468.45-.312 0-.468-.15-.468-.45 0-.3.156-.456.468-.456.306 0 .468.156.468.456z"/>
            <path fill="#D6D6D6" d="M133 189h44v4h-44z"/>
            <path stroke="#D6D6D6" d="M116.5 152.5h89v90h-89z"/>
            <path fill="#D6D6D6" d="M133 225h49v4h-49zM133 213h18v4h-18zM153 213h44v4h-44zM133 201h11v4h-11zM146 201h43v4h-43z"/>
            <path fill="#373737" fill-rule="nonzero" d="M131.878 161.484V168h-1.053v-2.844h-2.898V168h-1.053v-6.516h1.053v2.745h2.898v-2.745h1.053zm3.478 6.624c-1.638 0-2.196-1.026-2.196-2.412 0-1.494.774-2.448 2.313-2.448 1.54 0 2.151.963 2.151 2.34 0 1.53-.666 2.52-2.268 2.52zm.054-.801c.711 0 1.134-.468 1.134-1.665 0-1.161-.378-1.557-1.107-1.557-.738 0-1.197.441-1.197 1.575s.36 1.647 1.17 1.647zm5.342.693h-1.233l-1.422-4.653h1.044l1.017 3.582h.009l.936-3.582h1.044l.936 3.564h.009l.99-3.564h1.008L143.668 168h-1.188l-.873-3.411h-.018l-.837 3.411zm9.639-.954l.17.738c-.233.153-.737.324-1.232.324-.918 0-1.386-.414-1.386-1.404v-2.592h-.711v-.765h.71v-1.359l1.036-.144v1.503h1.26v.765h-1.26v2.448c0 .459.117.702.62.702.28 0 .604-.108.793-.216zm2.857 1.062c-1.638 0-2.196-1.026-2.196-2.412 0-1.494.774-2.448 2.313-2.448 1.54 0 2.151.963 2.151 2.34 0 1.53-.666 2.52-2.268 2.52zm.054-.801c.711 0 1.134-.468 1.134-1.665 0-1.161-.378-1.557-1.107-1.557-.738 0-1.197.441-1.197 1.575s.36 1.647 1.17 1.647zm4.833 2.7c-.369 0-.792-.099-.963-.207l.09-.792c.18.072.45.153.702.153.351 0 .603-.171.603-.72v-5.094h1.035v5.157c0 1.062-.567 1.503-1.467 1.503zm1.638-8.172c0 .432-.252.684-.675.684-.432 0-.675-.252-.675-.684 0-.441.243-.684.675-.684.423 0 .675.243.675.684zm3.128 6.273c-1.638 0-2.196-1.026-2.196-2.412 0-1.494.774-2.448 2.313-2.448 1.539 0 2.15.963 2.15 2.34 0 1.53-.665 2.52-2.267 2.52zm.054-.801c.71 0 1.134-.468 1.134-1.665 0-1.161-.378-1.557-1.107-1.557-.738 0-1.197.441-1.197 1.575s.36 1.647 1.17 1.647zm4.405-3.96V168h-1.035v-4.653h1.035zm.162-1.467c0 .441-.243.684-.675.684-.423 0-.675-.243-.675-.684 0-.432.252-.675.675-.675.432 0 .675.243.675.675zm5.225 2.952V168h-1.035v-2.997c0-.585-.216-.891-.765-.891-.468 0-.954.288-1.18.495V168h-1.034v-4.653h.918l.045.486a2.58 2.58 0 0 1 1.61-.585c1.009 0 1.44.531 1.44 1.584zm5.976 3.276c-2.043 0-2.97-1.404-2.97-3.348s1.07-3.393 3.105-3.393c2.034 0 2.925 1.449 2.925 3.258 0 1.08-.261 1.926-.82 2.547l.784.828-.603.558-.82-.864c-.404.27-.962.414-1.601.414zm.045-.855c.342 0 .684-.063.963-.225l-1.116-1.215.603-.567 1.08 1.188c.279-.441.423-.999.423-1.719 0-1.656-.747-2.43-1.89-2.43-1.17 0-1.99.792-1.99 2.457 0 1.692.775 2.511 1.927 2.511zm4.162-.729v-3.177h1.035v2.997c0 .585.18.882.73.882.458 0 .944-.279 1.17-.486v-3.393h1.034V168h-.9l-.072-.513a2.343 2.343 0 0 1-1.593.612c-.972 0-1.404-.531-1.404-1.575zm6.395-3.177V168h-1.035v-4.653h1.035zm.162-1.467c0 .441-.243.684-.675.684-.423 0-.675-.243-.675-.684 0-.432.252-.675.675-.675.432 0 .675.243.675.675zm2.263-.675V168h-1.035v-6.795h1.035zm2.426 0V168h-1.035v-6.795h1.035z"/>
            <path fill="#D8D8D8" stroke="#D6D6D6" d="M124.5 177.5h73v1h-73z"/>
        </g>
        <g fill="#027360">
            <path d="M23.978 18.53c3.048 0 5.916 2.292 5.916 6.168 0 1.754-.59 3.196-1.509 4.229l1.375 1.57-1.327 1.153-1.43-1.586a5.965 5.965 0 0 1-3.033.817c-3.048 0-5.9-2.29-5.9-6.183.009-3.876 2.86-6.167 5.908-6.167zm0 10.445c.59 0 1.194-.12 1.736-.384l-1.916-2.171 1.343-1.17 1.933 2.187c.494-.689.8-1.586.8-2.739 0-2.86-1.932-4.277-3.904-4.277-1.948 0-3.888 1.418-3.888 4.277.008 2.86 1.948 4.277 3.896 4.277zM34.309 30.865c-1.901 0-3.017-1.434-3.017-3.244v-5.134h1.901v4.782c0 1.001.456 1.858 1.61 1.858 1.1 0 1.674-.753 1.674-1.818v-4.822h1.901v6.656c0 .665.047 1.186.079 1.49h-1.823a6.457 6.457 0 0 1-.063-.905c-.4.737-1.327 1.137-2.262 1.137zM41.356 18.363c.69 0 1.249.568 1.249 1.273s-.558 1.258-1.25 1.258a1.243 1.243 0 0 1-1.233-1.258c0-.705.558-1.273 1.234-1.273zm-.935 12.27v-8.146h1.885v8.138h-1.885v.008zM44.356 30.633V18.53h1.902v12.102zM48.308 30.633V18.53h1.901v12.102zM57.327 29.407a.38.38 0 0 1-.362-.248l-.37-.889-.918.216a.395.395 0 0 1-.472-.304.403.403 0 0 1 .299-.48l1.241-.289a.39.39 0 0 1 .448.232l.495 1.194c.086.2-.008.44-.212.52a.255.255 0 0 1-.15.048z"/>
            <path d="M55.645 30.577a.36.36 0 0 1-.18-.048.394.394 0 0 1-.212-.345l-.048-2.082a.388.388 0 0 1 .385-.409h.008c.212 0 .385.177.393.393l.031 1.345 1.092-.76a.378.378 0 0 1 .542.104.395.395 0 0 1-.102.552l-1.689 1.178a.38.38 0 0 1-.22.072zM61.482 16.841c.26 0 .527.064.778.192.84.44 1.17 1.482.738 2.339l-2.835 5.638-2.514 1.194-.519-2.78 2.836-5.638c.299-.6.896-.945 1.516-.945zm0-.801c-.935 0-1.79.529-2.215 1.378l-2.836 5.638a.824.824 0 0 0-.07.513l.518 2.779a.796.796 0 0 0 .777.649c.11 0 .228-.024.33-.072L60.5 25.73c.157-.072.291-.2.37-.36l2.836-5.639c.628-1.241.14-2.779-1.077-3.412a2.528 2.528 0 0 0-1.147-.28z"/>
            <path d="M59.455 23.008a.36.36 0 0 1-.18-.048.393.393 0 0 1-.204-.28l-.519-2.78a.4.4 0 0 1 .314-.464.393.393 0 0 1 .456.32l.424 2.275 2.058-.977a.382.382 0 0 1 .519.192c.094.2.008.44-.189.529l-2.514 1.193a.416.416 0 0 1-.165.04z"/>
            <path d="M56.832 28.206a.406.406 0 0 1-.354-.585l4.494-8.93a.39.39 0 0 1 .526-.176.406.406 0 0 1 .173.537l-4.494 8.93a.368.368 0 0 1-.345.224zM55.645 30.577h-3.338a.393.393 0 0 1-.393-.4c0-.225.173-.401.393-.401h3.338c.22 0 .393.176.393.4 0 .225-.173.4-.393.4z"/>
        </g>
        <path fill="#000" fill-rule="nonzero" d="M83.4 22.056c-.592 0-.864.248-.864.616 0 1.208 3.008.464 3.008 2.592 0 1.312-1.064 1.832-2.216 1.832-1.04 0-2.136-.336-2.24-1.84l1.12-.168c.096.56.304 1.032 1.152 1.032.512 0 .96-.176.96-.712 0-1.208-3.016-.368-3.016-2.56 0-1.128.944-1.744 2.112-1.744 1.032 0 1.976.32 2.064 1.696l-1.128.128c-.048-.544-.272-.872-.952-.872zm5.732 3.888l.168.856c-.208.136-.696.296-1.224.296-.872 0-1.328-.4-1.328-1.352v-2.032h-.624v-.88h.624V21.6l1.208-.16v1.392h1.104v.88h-1.104v1.864c0 .368.104.56.488.56.24 0 .528-.096.688-.192zm.892-.24v-2.872h1.208v2.632c0 .448.144.648.528.648.312 0 .632-.184.792-.328v-2.952h1.208V27h-1.04l-.088-.448c-.296.336-.76.536-1.328.536-.856 0-1.28-.464-1.28-1.384zm8.756-4.744V27h-1.008l-.072-.408-.024-.008c-.288.32-.68.512-1.232.512-.976 0-1.64-.6-1.64-2.096 0-1.672.896-2.256 1.76-2.256.464 0 .792.104 1.056.352V20.96h1.16zm-1.2 4.888v-1.912c-.16-.12-.4-.232-.672-.232-.608 0-.84.536-.84 1.256 0 .744.232 1.184.8 1.184.256 0 .52-.12.712-.296zm4.268 1.248c-1.544 0-2.04-1.04-2.04-2.168 0-1.504.92-2.184 2.04-2.184 1.264 0 1.792.768 1.792 1.928 0 .136-.008.4-.024.544h-2.536c.024.688.312.944.84.944.432 0 .6-.24.68-.592l1.016.248c-.152.776-.776 1.28-1.768 1.28zm-.752-2.648h1.296c0-.6-.216-.832-.608-.832-.344 0-.68.224-.688.832zm7.356-.296V27h-1.208v-2.64c0-.448-.176-.64-.552-.64-.328 0-.656.184-.816.328V27h-1.208v-4.168h1.072l.064.416c.304-.28.76-.504 1.328-.504.92 0 1.32.456 1.32 1.408zm3.724 1.792l.168.856c-.208.136-.696.296-1.224.296-.872 0-1.328-.4-1.328-1.352v-2.032h-.624v-.88h.624V21.6l1.208-.16v1.392h1.104v.88H111v1.864c0 .368.104.56.488.56.24 0 .528-.096.688-.192zm4.624-3.888c-.592 0-.864.248-.864.616 0 1.208 3.008.464 3.008 2.592 0 1.312-1.064 1.832-2.216 1.832-1.04 0-2.136-.336-2.24-1.84l1.12-.168c.096.56.304 1.032 1.152 1.032.512 0 .96-.176.96-.712 0-1.208-3.016-.368-3.016-2.56 0-1.128.944-1.744 2.112-1.744 1.032 0 1.976.32 2.064 1.696l-1.128.128c-.048-.544-.272-.872-.952-.872zm4.98 5.04c-1.544 0-2.04-1.04-2.04-2.168 0-1.504.92-2.184 2.04-2.184 1.264 0 1.792.768 1.792 1.928 0 .136-.008.4-.024.544h-2.536c.024.688.312.944.84.944.432 0 .6-.24.68-.592l1.016.248c-.152.776-.776 1.28-1.768 1.28zm-.752-2.648h1.296c0-.6-.216-.832-.608-.832-.344 0-.68.224-.688.832zm6.1 1.496l.168.856c-.208.136-.696.296-1.224.296-.872 0-1.328-.4-1.328-1.352v-2.032h-.624v-.88h.624V21.6l1.208-.16v1.392h1.104v.88h-1.104v1.864c0 .368.104.56.488.56.24 0 .528-.096.688-.192zm.892-.24v-2.872h1.208v2.632c0 .448.144.648.528.648.312 0 .632-.184.792-.328v-2.952h1.208V27h-1.04l-.088-.448c-.296.336-.76.536-1.328.536-.856 0-1.28-.464-1.28-1.384zm4.956 2.992v-5.864H134l.072.424c.36-.36.84-.512 1.304-.512.888 0 1.568.544 1.568 2.08 0 1.656-.776 2.272-1.696 2.272-.512 0-.84-.16-1.104-.4v2h-1.168zm1.192-4.672v1.824c.12.112.432.28.728.28.56 0 .784-.464.784-1.272 0-.84-.248-1.152-.736-1.152-.28 0-.592.168-.776.32zm6.888-2.816V27h-1.232v-5.792h1.232zm5.132 2.944V27h-1.208v-2.64c0-.448-.176-.64-.552-.64-.328 0-.656.184-.816.328V27h-1.208v-4.168h1.072l.064.416c.304-.28.76-.504 1.328-.504.92 0 1.32.456 1.32 1.408zm2.78-1.408c.944 0 1.464.408 1.664 1.104l-.992.312c-.104-.352-.28-.568-.72-.568-.344 0-.528.128-.528.368 0 .304.352.368.848.456.728.128 1.464.288 1.464 1.272 0 .952-.808 1.408-1.832 1.408-1.072 0-1.632-.456-1.776-1.144l.984-.32c.096.32.264.632.832.632.408 0 .6-.136.6-.392 0-.312-.288-.36-.776-.448-.728-.136-1.504-.304-1.504-1.32 0-.92.808-1.36 1.736-1.36zm5.236 3.2l.168.856c-.208.136-.696.296-1.224.296-.872 0-1.328-.4-1.328-1.352v-2.032h-.624v-.88h.624V21.6l1.208-.16v1.392h1.104v.88h-1.104v1.864c0 .368.104.56.488.56.24 0 .528-.096.688-.192zm3.628-3.192v1.176c-.544-.048-1.08.096-1.432.376V27h-1.208v-4.168h1.032l.088.656c.28-.408.672-.744 1.312-.744.064 0 .136.008.208.008zm.788 2.952v-2.872h1.208v2.632c0 .448.144.648.528.648.312 0 .632-.184.792-.328v-2.952h1.208V27h-1.04l-.088-.448c-.296.336-.76.536-1.328.536-.856 0-1.28-.464-1.28-1.384zm6.764 1.392c-1.392 0-2.008-.88-2.008-2.112 0-1.432.776-2.24 2.128-2.24 1 0 1.656.56 1.736 1.576l-1.08.16c-.048-.52-.208-.808-.68-.808-.456 0-.84.216-.84 1.184s.312 1.296.824 1.296c.464 0 .704-.232.776-.76l1.016.192c-.144 1.048-.896 1.512-1.872 1.512zm5.436-1.152l.168.856c-.208.136-.696.296-1.224.296-.872 0-1.328-.4-1.328-1.352v-2.032h-.624v-.88h.624V21.6l1.208-.16v1.392h1.104v.88h-1.104v1.864c0 .368.104.56.488.56.24 0 .528-.096.688-.192zm2.22-3.112V27h-1.208v-4.168h1.208zm.128-1.28c0 .464-.272.736-.728.736-.464 0-.728-.272-.728-.736 0-.464.264-.728.728-.728.456 0 .728.264.728.728zm2.932 5.544c-1.512 0-2.032-.912-2.032-2.16 0-1.336.696-2.192 2.144-2.192 1.448 0 2.008.872 2.008 2.104 0 1.36-.624 2.248-2.12 2.248zm.056-.896c.528 0 .808-.336.808-1.312 0-.912-.248-1.232-.784-1.232-.544 0-.848.344-.848 1.248 0 .928.232 1.296.824 1.296zm6.876-2.048V27h-1.208v-2.64c0-.448-.176-.64-.552-.64-.328 0-.656.184-.816.328V27h-1.208v-4.168h1.072l.064.416c.304-.28.76-.504 1.328-.504.92 0 1.32.456 1.32 1.408zm2.78-1.408c.944 0 1.464.408 1.664 1.104l-.992.312c-.104-.352-.28-.568-.72-.568-.344 0-.528.128-.528.368 0 .304.352.368.848.456.728.128 1.464.288 1.464 1.272 0 .952-.808 1.408-1.832 1.408-1.072 0-1.632-.456-1.776-1.144l.984-.32c.096.32.264.632.832.632.408 0 .6-.136.6-.392 0-.312-.288-.36-.776-.448-.728-.136-1.504-.304-1.504-1.32 0-.92.808-1.36 1.736-1.36z"/>
        <path fill="#D6D6D6" d="M72 16h1v16h-1z"/>
    </g>
</svg>
