<svg xmlns="http://www.w3.org/2000/svg" width="91" height="91" viewBox="0 0 91 91">
    <g fill="none" fill-rule="evenodd">
        <path d="M0 0H96V96H0z" transform="translate(-3 -2)"/>
        <g fill-rule="nonzero" transform="translate(-3 -2) translate(2 2)">
            <path fill="#DDBE99" d="M71.414 64.586l-44-44c-.486-.486-1.187-.688-1.856-.536-.67.152-1.215.636-1.444 1.284L1.508 85.388c-.434 1.222-.248 2.58.498 3.64.747 1.06 1.961 1.694 3.258 1.698.459 0 .914-.08 1.346-.232l64.056-22.6c.648-.229 1.132-.774 1.284-1.444.152-.67-.05-1.37-.536-1.856v-.008z"/>
            <path fill="#EAD8C5" d="M46.1 39.272l11.12 33.36-6.578 2.322L35.07 28.242l11.03 11.03zm-24.04-12.12l17.266 51.8-6.58 2.322-14.468-43.4 3.782-10.722zm-7.2 60.434L8 67.01l3.78-10.714 9.656 28.968-6.576 2.322z"/>
            <path fill="#867FE8" d="M34 16c-.254 0-.506-.047-.742-.142-.493-.197-.887-.581-1.097-1.069-.209-.487-.216-1.038-.019-1.531l4-10c.41-1.026 1.574-1.526 2.6-1.116 1.026.41 1.526 1.574 1.116 2.6l-4 10C35.554 15.502 34.818 16 34 16z"/>
            <path fill="#ED69AB" d="M78 60c-.96 0-1.785-.68-1.966-1.622-.181-.943.333-1.88 1.224-2.236l10-4c1.026-.41 2.19.09 2.6 1.116.41 1.026-.09 2.19-1.116 2.6l-10 4c-.236.095-.488.143-.742.142z"/>
            <path fill="#FFD764" d="M70 48c-1.105 0-2-.895-2-2s.895-2 2-2c4.418 0 8-3.582 8-8 .007-6.625 5.375-11.993 12-12 1.105 0 2 .895 2 2s-.895 2-2 2c-4.418 0-8 3.582-8 8-.007 6.625-5.375 11.993-12 12z"/>
            <path fill="#47B0EA" d="M46 24c-1.105 0-2-.895-2-2 .007-6.625 5.375-11.993 12-12 2.122 0 4.157-.843 5.657-2.343S64 4.122 64 2c0-1.105.895-2 2-2s2 .895 2 2c-.007 6.625-5.375 11.993-12 12-4.418 0-8 3.582-8 8 0 1.105-.895 2-2 2z"/>
            <circle cx="82" cy="10" r="6" fill="#ED69AB"/>
            <path fill="#867FE8" d="M58 36c-.809 0-1.538-.487-1.847-1.235-.31-.747-.139-1.607.433-2.179l12-12c.785-.758 2.032-.747 2.804.024.771.772.782 2.02.024 2.804l-12 12c-.375.375-.884.586-1.414.586z"/>
        </g>
    </g>
</svg>
