<svg xmlns="http://www.w3.org/2000/svg" xmlns:xlink="http://www.w3.org/1999/xlink" width="580" height="270" viewBox="0 0 580 270">
    <defs>
        <path id="prefix__a" d="M.818 2.326l14.531 43.289c5.641 1.252 11.505 1.913 17.523 1.913 7.801 0 15.342-1.109 22.475-3.179L50.062.286.818 2.326z"/>
        <path id="prefix__c" d="M.775 2.95c.909 11.286 1.662 21.605 2.284 30.961 12.809 8.6 28.225 13.617 44.813 13.617.636 0 1.267-.007 1.899-.022 2.724-13.233 5.812-28.89 9.207-46.968L.775 2.95z"/>
        <path id="prefix__e" d="M.1 2.356c3.144 11.948 6.966 26.056 11.464 42.322 6.786 1.857 13.933 2.85 21.308 2.85 10.173 0 19.903-1.886 28.864-5.329C58.374 26.469 54.52 12.618 50.258.277L.1 2.356z"/>
        <path id="prefix__g" d="M.658 2.956c.809 10.151 1.382 20.29 1.698 30.478 12.946 8.89 28.624 14.094 45.516 14.094 2.299 0 4.573-.096 6.823-.285 2.946-15.082 5.549-30.641 7.821-46.852L.658 2.956z"/>
        <path id="prefix__i" d="M12.854 11.32c-1.95 6.525-.493 13.063 2.538 18.811L.319 62.848l21.419 4.798 2.121-26.475c4.999 4.777 10.3 7.732 13.119 7.643 7.071-.226 13.163-24.539 10.15-35.338C45.335 7.049 35.521.848 26.686.848c-6.006 0-11.559 2.865-13.832 10.472z"/>
        <path id="prefix__k" d="M65.86 7.978c-.93-.222-1.888-.427-2.87-.611-5.253-.985-10.107-1.196-13.597-.735-.651.055-1.299.177-1.942.361-1.045.263-1.887.611-2.48 1.038-2.358 1.305-4.525 3.444-6.247 6.182-4.738-3.917-10.53-7.146-23.141-9.972C-2.963.087-3.689 28.041 9.585 31.014c9.756 2.187 17.674-6.514 26.181-9.921-.092.344-.178.691-.256 1.043-2.245 10.02.624 20.45 7.594 22.011 3.67.823 8.204-2.194 12.002-6.698-2.904-.863-4.357-3.847-3.573-7.346.617-2.758 3.396-4.863 6.553-4.156 1.13.253 2.098 1.148 2.707 2.322.704-1.636 1.258-3.281 1.613-4.868.403-1.796.557-3.432.497-4.916 3.894.603 7.489.767 10.367.541 4.758.801 9.367-2.257 10.434-7.022 1.103-4.929-1.997-9.819-6.925-10.923-.674-.151-1.346-.223-2.008-.223-4.177 0-7.946 2.88-8.911 7.12z"/>
        <path id="prefix__m" d="M75.443.387c-5.99 1.545-12.524 4.385-19.603 8.517l-35.739 5.712 6.816 15.79L55.736 18.26c12.569.928 18.627.486 18.17-1.322-.684-2.714-4.405-1.964-5.163-3.722-.758-1.756 3.231-5.531 7.168-8.951 3.688-3.203 1.544-3.887-.135-3.887-.113 0-.226.004-.333.009zM.446 89.732l27.044 15.706c6.823 10.598 10.82 15.169 11.99 13.716 1.756-2.179-1.082-4.7-.136-6.362.948-1.663 6.363-.75 11.465.337 5.101 1.087 3.906-1.408 2.814-2.707-4.84-3.855-11.04-7.364-18.598-10.53L8.953 74.786.446 89.732z"/>
        <path id="prefix__o" d="M1.554 42.332c5.837 29.018 24.183 39.887 59.205 58.519l14.386-12.419C45.269 60.615 25.513 35.06 13.698 3.592L1.511.761C1.385 12.632.089 35.05 1.554 42.332z"/>
        <path id="prefix__q" d="M.581 100.517l69.798 9.347C61.025 59.527 57.381 25.351 59.444 7.335c.105-.919-1.371-2.76-2.147-2.648C51.615 5.5 45.835 4.137 39.955.6 19.844 24.996 9.735 56.995.581 100.517z"/>
        <path id="prefix__s" d="M41.194 3.408C23.072 29.26.163 82.257.755 122.771l37.216 4.984c24.067 3.224 29.695-34.99 25.054-83.21 24.836 5.363 55.374-4.897 86.106-19.305l-1.223-18.963c-39.047 7.006-71.019-.994-91.003-3.837l-.007-.045L46.082.947c-.244-.033-.479-.048-.704-.048-2.302 0-3.553 1.61-4.184 2.509z"/>
        <path id="prefix__u" d="M0.372 0.528L240.371 0.528 240.371 26.528 0.372 26.528z"/>
        <path id="prefix__w" d="M0.372 0.528L240.371 0.528 240.371 26.528 0.372 26.528z"/>
    </defs>
    <g fill="none" fill-rule="evenodd">
        <path d="M0 270L580 270 580 0 0 0z"/>
        <path fill="#026F5D" d="M265 157.5c0 44.46-36.041 80.5-80.5 80.5-44.46 0-80.5-36.04-80.5-80.5 0-44.459 36.04-80.5 80.5-80.5 44.459 0 80.5 36.041 80.5 80.5"/>
        <g transform="translate(151.628 190.472)">
            <mask id="prefix__b" fill="#fff">
                <use xlink:href="#prefix__a"/>
            </mask>
            <path fill="#784931" d="M-3.744 -1.873L70.035 -4.931 78.768 205.775 4.988 208.833z" mask="url(#prefix__b)"/>
        </g>
        <g transform="translate(136.628 190.472)">
            <mask id="prefix__d" fill="#fff">
                <use xlink:href="#prefix__c"/>
            </mask>
            <path fill="#915B3C" d="M-26.609 -0.304L63.177 -4.025 71.986 208.508 -17.8 212.23z" mask="url(#prefix__d)"/>
        </g>
        <g transform="translate(151.628 190.472)">
            <mask id="prefix__f" fill="#fff">
                <use xlink:href="#prefix__e"/>
            </mask>
            <path fill="#69A1AC" d="M-4.463 -1.843L72.834 -5.047 81.074 193.78 3.777 196.984z" mask="url(#prefix__f)"/>
        </g>
        <g transform="translate(136.628 190.472)">
            <mask id="prefix__h" fill="#fff">
                <use xlink:href="#prefix__g"/>
            </mask>
            <path fill="#89C5CC" d="M-25.907 -0.333L66.716 -4.171 74.995 195.589 -17.629 199.428z" mask="url(#prefix__h)"/>
        </g>
        <g>
            <path fill="#7A7A7A" d="M173.662 186.528H67.082c-1.496 0-2.71-1.214-2.71-2.71v-5.08c0-1.496 1.214-2.71 2.71-2.71h106.58c1.496 0 2.71 1.214 2.71 2.71v5.08c0 1.496-1.214 2.71-2.71 2.71" transform="translate(235.628 47.472)"/>
            <path fill="#F2F2F2" d="M230.554 177.528H10.19c-5.424 0-9.82-4.396-9.82-9.818V10.346c0-5.422 4.396-9.818 9.82-9.818h220.363c5.422 0 9.817 4.396 9.817 9.818V167.71c0 5.422-4.395 9.818-9.817 9.818" transform="translate(235.628 47.472)"/>
            <path fill="#7A7A7A" d="M230.554.528H10.19C4.768.528.37 4.924.37 10.346V167.71c0 5.422 4.397 9.818 9.82 9.818h220.363c5.422 0 9.817-4.396 9.817-9.818V10.346c0-5.422-4.395-9.818-9.817-9.818m0 5c2.655 0 4.817 2.162 4.817 4.818V167.71c0 2.656-2.162 4.818-4.817 4.818H10.19c-2.658 0-4.82-2.162-4.82-4.818V10.346c0-2.656 2.162-4.818 4.82-4.818h220.363" transform="translate(235.628 47.472)"/>
            <path fill="#8D8E8E" d="M29.443 49.755L213.372 49.755 213.372 41.062 29.443 41.062zM29.443 64.755L139.372 64.755 139.372 56.062 29.443 56.062z" transform="translate(235.628 47.472)"/>
            <path fill="#CECECE" d="M211.28 104.772H31.837c-1.156 0-2.093-.937-2.093-2.092V80.847c0-1.154.937-2.091 2.093-2.091H211.28c1.156 0 2.093.936 2.093 2.091v21.834c0 1.154-.937 2.091-2.093 2.091" transform="translate(235.628 47.472)"/>
            <path fill="#6D6D6D" d="M37.603 95.481L198.372 95.481 198.372 88.048 37.603 88.048z" transform="translate(235.628 47.472)"/>
            <path fill="#CECECE" d="M211.28 143.773H31.837c-1.156 0-2.093-.938-2.093-2.093v-21.833c0-1.154.937-2.091 2.093-2.091H211.28c1.156 0 2.093.936 2.093 2.091v21.834c0 1.154-.937 2.091-2.093 2.091" transform="translate(235.628 47.472)"/>
            <path fill="#6D6D6D" d="M37.603 134.481L198.372 134.481 198.372 127.048 37.603 127.048z" transform="translate(235.628 47.472)"/>
        </g>
        <g transform="translate(166.628 48.472)">
            <mask id="prefix__j" fill="#fff">
                <use xlink:href="#prefix__i"/>
            </mask>
            <path fill="#915B3C" d="M11.594 -7.537L57.634 2.776 41.122 76.482 -4.918 66.168z" mask="url(#prefix__j)"/>
        </g>
        <g transform="translate(134.628 41.472)">
            <mask id="prefix__l" fill="#fff">
                <use xlink:href="#prefix__k"/>
            </mask>
            <path fill="#38241B" d="M3.849 -19.751L90.941 -0.24 78.228 56.509 -8.864 36.999z" mask="url(#prefix__l)"/>
        </g>
        <g transform="translate(221.628 91.472)">
            <mask id="prefix__n" fill="#fff">
                <use xlink:href="#prefix__m"/>
            </mask>
            <path fill="#915B3C" d="M9.769 -12.935L82.993 -3.13 65.513 127.408 -7.71 117.603z" mask="url(#prefix__n)"/>
        </g>
        <g transform="translate(179.628 99.472)">
            <mask id="prefix__p" fill="#fff">
                <use xlink:href="#prefix__o"/>
            </mask>
            <path fill="#DA7B33" d="M-0.051 -6.89L101.912 35.609 70.966 109.855 -30.997 67.356z" mask="url(#prefix__p)"/>
        </g>
        <g transform="translate(135.628 94.472)">
            <mask id="prefix__r" fill="#fff">
                <use xlink:href="#prefix__q"/>
            </mask>
            <path fill="#F2F2F2" d="M10.654 -7.748L89.144 2.762 74.143 114.791 -4.347 104.281z" mask="url(#prefix__r)"/>
        </g>
        <g transform="translate(124.628 93.472)">
            <mask id="prefix__t" fill="#fff">
                <use xlink:href="#prefix__s"/>
            </mask>
            <path fill="#F29F42" d="M13.618 -16.129L156.531 3.008 137.451 145.5 -5.462 126.363z" mask="url(#prefix__t)"/>
        </g>
        <g transform="translate(235.628 47.472)">
            <mask id="prefix__v" fill="#fff">
                <use xlink:href="#prefix__u"/>
            </mask>
            <path fill="#0B9D88" d="M230.554 177.528H.435c-.034 0-.064-.028-.064-.063V10.346c0-5.422 4.396-9.818 9.82-9.818h220.363c5.422 0 9.817 4.396 9.817 9.818V167.71c0 5.422-4.395 9.818-9.817 9.818" mask="url(#prefix__v)"/>
            <g>
                <mask id="prefix__x" fill="#fff">
                    <use xlink:href="#prefix__w"/>
                </mask>
                <path fill="#7A7A7A" d="M230.554.528H10.19C4.768.528.37 4.924.37 10.346v167.118c0 .036.03.064.065.064h230.118c5.422 0 9.817-4.396 9.817-9.818V10.346c0-5.422-4.395-9.818-9.817-9.818m0 5c2.655 0 4.817 2.162 4.817 4.818V167.71c0 2.656-2.162 4.818-4.817 4.818H5.37V10.346c0-2.656 2.162-4.818 4.82-4.818h220.363" mask="url(#prefix__x)"/>
            </g>
        </g>
        <g fill="#06806B">
            <path d="M89.872 53.528c-.137 0-.272-.056-.372-.165L71.852 33.755 60.226 45.382c-.196.195-.512.195-.708 0l-32-32c-.195-.196-.195-.512 0-.708.196-.195.512-.195.708 0l31.646 31.647 11.646-11.647c.097-.096.24-.138.367-.146.137.004.267.063.359.165l18 20c.185.206.168.522-.037.707-.096.086-.216.128-.335.128" transform="translate(6.628 9.472)"/>
            <path d="M89.872 53.528h-14c-.276 0-.5-.224-.5-.5s.224-.5.5-.5h13.5v-13.5c0-.276.224-.5.5-.5s.5.224.5.5v14c0 .276-.224.5-.5.5M508.658 35.442c-.18 0-.354-.098-.443-.269-4.69-8.978-12.922-15.866-22.585-18.898-9.665-3.033-20.356-2.083-29.335 2.606-.245.125-.546.034-.675-.21-.128-.247-.033-.548.212-.676 9.211-4.81 20.181-5.784 30.097-2.675 9.915 3.111 18.361 10.18 23.172 19.391.128.245.034.546-.212.674-.074.038-.153.057-.231.057" transform="translate(6.628 9.472)"/>
            <path d="M473.512 28.054c-.077 0-.156-.02-.23-.057l-17.45-9.115c-.118-.061-.207-.167-.246-.294-.04-.126-.028-.263.034-.381l9.116-17.45c.13-.245.432-.337.675-.212.245.128.34.43.212.675l-8.885 17.007 17.005 8.884c.247.128.34.429.212.674-.089.17-.262.269-.442.269M34.633 237.105c-.17 0-.335-.086-.43-.242-.141-.237-.064-.544.172-.687l48.479-29.154c.237-.139.545-.066.686.171.143.236.066.544-.171.686L34.89 237.034c-.081.048-.17.071-.258.071" transform="translate(6.628 9.472)"/>
            <path d="M78.28 227.36c-.04 0-.08-.006-.12-.016-.269-.066-.432-.338-.365-.606l4.71-18.923-18.923-4.71c-.268-.066-.43-.338-.365-.606.067-.269.334-.429.607-.365l19.408 4.831c.268.067.431.338.364.607l-4.83 19.408c-.057.228-.26.38-.486.38M539.872 239.528c-.121 0-.242-.044-.338-.132l-38.327-35.185c-.204-.187-.217-.503-.03-.706.187-.204.505-.216.706-.03l38.327 35.185c.204.186.217.503.03.706-.098.107-.233.162-.368.162" transform="translate(6.628 9.472)"/>
            <path d="M491.833 194.991l3.26 15.188 12.164-13.347-15.424-1.84zm2.976 16.742c-.044 0-.087-.006-.131-.017-.181-.049-.32-.195-.36-.378l-3.61-16.822c-.033-.157.01-.322.12-.44.109-.12.259-.186.429-.16l17.084 2.04c.185.02.344.145.409.32.065.176.027.373-.1.512l-13.472 14.782c-.096.106-.231.163-.37.163zM48.067 88.56c-.064 0-.13-.013-.193-.038l-25.818-10.84c-.255-.106-.375-.4-.267-.654.106-.256.397-.375.654-.269L48.26 87.6c.255.108.375.4.268.654-.08.192-.266.308-.46.308M16.718 75.398c-.064 0-.13-.013-.193-.039l-13.83-5.808c-.255-.106-.375-.4-.268-.654.106-.255.397-.374.654-.268l13.83 5.808c.255.107.375.4.268.654-.08.192-.266.307-.461.307M97.856 109.466c-.064 0-.13-.013-.193-.04L53.406 90.845c-.255-.107-.375-.4-.268-.654.106-.255.398-.375.655-.268l44.256 18.583c.255.107.375.399.268.654-.08.192-.266.307-.46.307M19.205 186.044c-.206 0-.4-.128-.472-.334-.091-.261.045-.546.306-.638l24.838-8.752c.262-.092.547.045.638.306.09.26-.045.546-.306.638l-24.838 8.752c-.055.019-.111.028-.166.028M.576 192.608c-.206 0-.399-.128-.472-.334-.091-.26.045-.546.306-.638l13.307-4.688c.261-.093.546.045.637.306.092.26-.045.545-.305.637l-13.307 4.69c-.055.018-.111.027-.166.027M49.365 175.416c-.206 0-.399-.128-.472-.334-.09-.261.045-.546.306-.638l42.58-15.003c.262-.091.546.045.637.306.092.261-.045.546-.306.638l-42.579 15.003c-.055.019-.11.028-.166.028M520.346 88.56c-.177 0-.347-.093-.438-.258-.134-.24-.046-.546.196-.678l19.584-10.84c.243-.134.548-.047.68.194.133.242.045.547-.196.68l-19.585 10.84c-.077.041-.16.063-.241.063M544.127 75.398c-.176 0-.347-.093-.437-.258-.134-.24-.046-.546.195-.679l10.492-5.808c.243-.13.546-.047.68.195.133.241.046.546-.196.68l-10.492 5.808c-.077.041-.16.062-.242.062M482.576 109.466c-.176 0-.347-.093-.437-.258-.134-.241-.046-.546.195-.68l33.573-18.583c.242-.131.546-.046.68.196.134.24.046.546-.196.679l-33.573 18.584c-.077.04-.16.062-.242.062M542.24 186.044c-.07 0-.143-.015-.21-.047l-18.843-8.752c-.25-.116-.358-.413-.242-.664.115-.251.414-.36.664-.242l18.842 8.752c.25.116.358.413.242.664-.084.182-.265.289-.453.289M556.372 192.608c-.071 0-.143-.015-.211-.047l-10.094-4.688c-.25-.117-.358-.413-.242-.664.116-.25.413-.36.664-.243l10.094 4.69c.25.115.358.412.242.663-.084.182-.265.29-.453.29M519.361 175.416c-.07 0-.143-.015-.21-.047l-32.302-15.003c-.25-.116-.358-.413-.242-.664.115-.25.414-.36.664-.242l32.301 15.003c.25.116.358.413.242.664-.084.182-.265.289-.453.289M169.288 14.224c-.25 0-.467-.188-.496-.443l-1.023-8.943c-.031-.274.166-.522.44-.553.266-.03.523.165.555.44l1.022 8.942c.03.275-.166.523-.44.554-.02.002-.038.003-.058.003" transform="translate(6.628 9.472)"/>
            <path d="M165.438 14.667l4.443 4.241 3.371-5.135-7.814.894zm4.532 5.518c-.128 0-.252-.049-.345-.139l-5.65-5.394c-.14-.133-.19-.337-.128-.52.062-.184.224-.316.417-.338l9.936-1.136c.193-.018.381.07.482.236.102.165.1.374-.008.536l-4.286 6.529c-.08.124-.214.205-.36.223l-.058.003zM436.783 247.605c-.146 0-.293-.064-.392-.189l-5.597-7.047c-.172-.216-.136-.53.081-.702.215-.17.53-.137.702.081l5.598 7.046c.171.216.135.531-.081.703-.092.073-.202.108-.311.108" transform="translate(6.628 9.472)"/>
            <path d="M427.94 235.972l-.145 6.14 6.16-4.891-6.016-1.25zm-.67 7.696c-.076 0-.152-.017-.223-.052-.173-.086-.282-.265-.277-.46l.184-7.807c.004-.148.073-.287.19-.38.115-.091.271-.127.411-.098l7.647 1.588c.19.039.34.185.384.374.045.189-.023.386-.175.507l-7.83 6.22c-.09.07-.2.108-.31.108zM192.909 251.191c-.252 0-.469-.19-.496-.447l-.949-8.95c-.03-.275.17-.52.444-.55.266-.032.521.17.55.444l.949 8.95c.029.275-.17.521-.444.55l-.054.003" transform="translate(6.628 9.472)"/>
            <path d="M191.41 236.55l-3.413 5.109 7.821-.83-4.408-4.278zm-4.422 6.219c-.174 0-.337-.091-.428-.241-.1-.166-.095-.375.012-.537l4.34-6.494c.083-.124.216-.204.363-.22.147-.014.295.035.402.139l5.604 5.44c.139.134.188.338.124.52-.063.185-.226.315-.42.335l-9.944 1.055c-.018.002-.035.003-.053.003zM249.752 247.446c-.17 0-.334-.086-.428-.24l-7.76-12.837c-.142-.236-.067-.544.169-.687.237-.14.544-.067.687.17l7.76 12.835c.142.237.067.544-.17.687-.08.05-.17.072-.258.072" transform="translate(6.628 9.472)"/>
            <path d="M240.3 241.476c-.04 0-.08-.006-.12-.016-.268-.066-.432-.337-.365-.605l1.692-6.864c.065-.268.335-.433.605-.367l6.865 1.692c.268.066.432.338.366.605-.065.269-.335.433-.605.367l-6.38-1.573-1.573 6.38c-.055.228-.26.38-.485.38M295.452 10.126c-.243 0-.457-.179-.493-.427-.041-.273.147-.527.421-.567l14.838-2.195c.271-.043.527.147.567.42.041.274-.147.528-.421.568l-14.838 2.195c-.024.004-.05.006-.074.006" transform="translate(6.628 9.472)"/>
            <path d="M301.13 14.34c-.103 0-.207-.031-.297-.098l-5.678-4.214c-.221-.165-.268-.478-.103-.7l4.214-5.677c.165-.221.477-.268.699-.104.222.164.269.478.104.699l-3.917 5.277 5.277 3.917c.222.164.268.477.103.699-.097.133-.25.202-.401.202M50.713 123.27v19.926l11.07-9.963-11.07-9.963zm-.5 21.55c-.07 0-.138-.016-.203-.043-.181-.081-.297-.26-.297-.457v-22.172c0-.197.116-.376.297-.457.18-.076.39-.047.537.084l12.318 11.087c.106.096.166.23.166.371 0 .142-.06.276-.166.373L50.547 144.69c-.093.084-.213.129-.334.129zM22.19 128.342v9.782l5.435-4.89-5.436-4.892zm-.5 11.405c-.07 0-.139-.014-.204-.043-.18-.081-.297-.26-.297-.457v-12.028c0-.197.116-.376.297-.457.181-.077.391-.047.538.085l6.683 6.015c.104.095.165.23.165.372 0 .14-.06.276-.166.372l-6.683 6.013c-.093.084-.213.128-.334.128zM66.655 10.285l7.255.91.142-7.31-7.397 6.4zM74.4 12.26c-.02 0-.04 0-.062-.004l-8.92-1.118c-.196-.025-.359-.163-.416-.35-.058-.19.002-.396.151-.524l9.095-7.87c.15-.13.361-.158.54-.076.178.084.291.266.287.463L74.9 11.77c-.003.142-.065.276-.173.37-.092.078-.208.121-.327.121zM226.651 6.19l1.152 7.22 7.06-1.904-8.212-5.316zm.746 8.347c-.096 0-.19-.028-.27-.08-.12-.078-.202-.202-.224-.34l-1.417-8.878c-.03-.195.056-.39.222-.498.166-.108.38-.109.544 0l10.096 6.536c.166.107.253.303.223.497-.03.195-.173.354-.364.405l-8.68 2.34c-.043.012-.086.018-.13.018zM505.436 133.233l11.071 9.963V123.27l-11.07 9.963zm11.571 11.586c-.12 0-.24-.044-.334-.128l-12.318-11.086c-.106-.096-.166-.23-.166-.372s.06-.276.166-.372l12.318-11.086c.145-.133.357-.163.537-.085.181.081.297.26.297.457v22.172c0 .197-.116.376-.297.457-.065.028-.133.043-.203.043zM539.596 133.233l5.436 4.891v-9.783l-5.437 4.892zm5.936 6.514c-.123 0-.243-.044-.335-.128l-6.683-6.014c-.106-.096-.166-.23-.166-.372s.06-.276.166-.372l6.683-6.015c.146-.133.356-.164.538-.085.18.081.297.26.297.457v12.03c0 .196-.118.375-.298.456-.066.028-.134.043-.202.043zM133.8 242.15l11.016 6.332-1.991-9.285-9.025 2.953zm11.74 7.825c-.086 0-.172-.022-.25-.066l-12.962-7.45c-.171-.1-.268-.289-.248-.486.02-.197.155-.363.342-.425l10.62-3.475c.135-.044.28-.028.404.042s.21.19.24.33l2.343 10.926c.042.192-.035.392-.194.508-.088.064-.191.096-.295.096zM368.988 14.469l8.97 3.122-4.922-11.714-4.048 8.592zm9.864 4.464c-.054 0-.11-.01-.164-.027l-10.554-3.675c-.133-.047-.242-.15-.296-.28-.055-.13-.052-.278.008-.406l4.764-10.11c.083-.18.27-.298.463-.286.197.004.374.124.45.306l5.79 13.785c.076.18.039.39-.096.536-.096.1-.229.157-.365.157zM341.071 242.435l-.8 9.463 10.126-7.674-9.326-1.79zm-1.394 11.038c-.083 0-.166-.02-.24-.062-.174-.095-.274-.284-.258-.48l.943-11.135c.012-.14.083-.27.196-.356.111-.085.254-.12.396-.093l10.974 2.106c.195.037.35.185.394.377.045.192-.029.393-.186.512l-11.917 9.03c-.089.067-.195.101-.302.101zM534.988 22.469l8.97 3.122-4.922-11.714-4.048 8.592zm9.864 4.464c-.054 0-.11-.01-.164-.027l-10.554-3.675c-.133-.047-.242-.15-.296-.28-.055-.13-.052-.278.008-.406l4.764-10.11c.083-.18.27-.31.463-.286.197.004.374.124.45.306l5.79 13.785c.076.18.039.39-.096.536-.096.1-.229.157-.365.157z" transform="translate(6.628 9.472)"/>
        </g>
    </g>
</svg>
