<?xml version="1.0" encoding="utf-8"?>
<!-- Generator: Adobe Illustrator 21.0.2, SVG Export Plug-In . SVG Version: 6.00 Build 0)  -->
<svg version="1.1" id="Layer_1" xmlns="http://www.w3.org/2000/svg" xmlns:xlink="http://www.w3.org/1999/xlink" x="0px" y="0px"
	 viewBox="0 0 165.8 161.2" style="enable-background:new 0 0 165.8 161.2;" xml:space="preserve">
<style type="text/css">
	.st0{clip-path:url(#SVGID_2_);}
	.st1{clip-path:url(#SVGID_4_);fill:none;stroke:#027360;stroke-width:8;stroke-miterlimit:10;}
	.st2{clip-path:url(#SVGID_6_);}
	.st3{clip-path:url(#SVGID_8_);fill:none;stroke:#027360;stroke-width:8;stroke-miterlimit:10;}
	.st4{clip-path:url(#SVGID_10_);}
	.st5{clip-path:url(#SVGID_12_);fill:none;stroke:#027360;stroke-width:8;stroke-miterlimit:10;}
	.st6{clip-path:url(#SVGID_14_);}
	.st7{clip-path:url(#SVGID_16_);fill:#027360;}
	.st8{clip-path:url(#SVGID_18_);}
	.st9{clip-path:url(#SVGID_20_);fill:#027360;}
	.st10{fill:none;stroke:#027360;stroke-width:2.5;stroke-miterlimit:10;}
	.st11{clip-path:url(#SVGID_22_);}
	.st12{clip-path:url(#SVGID_26_);}
	.st13{clip-path:url(#SVGID_28_);fill:#027360;}
	.st14{fill:none;stroke:#FFFFFF;stroke-width:4;stroke-linecap:round;stroke-miterlimit:10;}
	.st15{fill:none;stroke:#FFFFFF;stroke-width:4;stroke-miterlimit:10;}
	.st16{fill:none;stroke:#FFFFFF;stroke-width:3;stroke-linecap:round;stroke-miterlimit:10;}
	.st17{fill:none;}
</style>
<g>
	<defs>
		<polyline id="SVGID_1_" points="149.7,51.7 149.7,2.1 1.7,2.1 1.7,119.1 83.1,119.1 		"/>
	</defs>
	<clipPath id="SVGID_2_">
		<use xlink:href="#SVGID_1_"  style="overflow:visible;"/>
	</clipPath>
	<g class="st0">
		<defs>
			<rect id="SVGID_3_" x="-572.3" y="-211.9" width="1322" height="768"/>
		</defs>
		<clipPath id="SVGID_4_">
			<use xlink:href="#SVGID_3_"  style="overflow:visible;"/>
		</clipPath>
		<polyline class="st1" points="149.7,51.7 149.7,2.1 1.7,2.1 1.7,119.1 83.1,119.1 		"/>
	</g>
</g>
<g>
	<defs>
		<polyline id="SVGID_5_" points="131.7,51.7 131.7,19.1 22.7,19.1 22.7,97.1 83.2,97.1 		"/>
	</defs>
	<clipPath id="SVGID_6_">
		<use xlink:href="#SVGID_5_"  style="overflow:visible;"/>
	</clipPath>
	<g class="st2">
		<defs>
			<rect id="SVGID_7_" x="-572.3" y="-211.9" width="1322" height="768"/>
		</defs>
		<clipPath id="SVGID_8_">
			<use xlink:href="#SVGID_7_"  style="overflow:visible;"/>
		</clipPath>
		<polyline class="st3" points="131.7,51.7 131.7,19.1 22.7,19.1 22.7,97.1 83.2,97.1 		"/>
	</g>
</g>
<g>
	<defs>
		<rect id="SVGID_9_" x="39.7" y="80.1" width="39" height="16"/>
	</defs>
	<clipPath id="SVGID_10_">
		<use xlink:href="#SVGID_9_"  style="overflow:visible;"/>
	</clipPath>
	<g class="st4">
		<defs>
			<rect id="SVGID_11_" x="-572.3" y="-212.9" width="1322" height="768"/>
		</defs>
		<clipPath id="SVGID_12_">
			<use xlink:href="#SVGID_11_"  style="overflow:visible;"/>
		</clipPath>
		<rect x="39.7" y="80.1" class="st5" width="39" height="16"/>
	</g>
</g>
<g>
	<defs>
		<path id="SVGID_13_" d="M157.1,143.1c0-17.9-14-32.2-31.2-32.2c-17.2,0-31.2,14.4-31.2,32.2C94.7,159.5,157.1,159.5,157.1,143.1z
			 M161.1,142.8c0,21.7-70.5,21.7-70.5,0c0-20.2,15.7-36.7,35.2-36.7C145.4,106.1,161.1,122.5,161.1,142.8z"/>
	</defs>
	<clipPath id="SVGID_14_">
		<use xlink:href="#SVGID_13_"  style="overflow:visible;"/>
	</clipPath>
	<g class="st6">
		<defs>
			<rect id="SVGID_15_" x="-575.3" y="-211.9" width="1322" height="768"/>
		</defs>
		<clipPath id="SVGID_16_">
			<use xlink:href="#SVGID_15_"  style="overflow:visible;"/>
		</clipPath>
		<rect x="85.7" y="101.1" class="st7" width="80.5" height="63"/>
	</g>
</g>
<g>
	<defs>
		<path id="SVGID_17_" d="M127.2,106.1c11.9,0,21.5-9.6,21.5-21.5s-9.6-21.5-21.5-21.5s-21.5,9.6-21.5,21.5S115.3,106.1,127.2,106.1
			z M127.2,110.1c-14.1,0-25.5-11.4-25.5-25.5s11.4-25.5,25.5-25.5s25.5,11.4,25.5,25.5S141.3,110.1,127.2,110.1z"/>
	</defs>
	<clipPath id="SVGID_18_">
		<use xlink:href="#SVGID_17_"  style="overflow:visible;"/>
	</clipPath>
	<g class="st8">
		<defs>
			<rect id="SVGID_19_" x="-575.3" y="-211.9" width="1322" height="768"/>
		</defs>
		<clipPath id="SVGID_20_">
			<use xlink:href="#SVGID_19_"  style="overflow:visible;"/>
		</clipPath>
		<rect x="96.7" y="54.1" class="st9" width="61" height="61"/>
	</g>
</g>
<ellipse class="st10" cx="117.7" cy="81.1" rx="3" ry="3"/>
<ellipse class="st10" cx="136.7" cy="81.1" rx="3" ry="3"/>
<g>
	<defs>
		<path id="SVGID_21_" d="M143.6,71.4C143.6,71.4,143.6,71.4,143.6,71.4l-1.4-2.6c-3.4,2.2-7,3-11.3,2.7c-3.3-0.2-6-0.9-12.2-2.7
			c-0.4-0.1-0.4-0.1-0.7-0.2c-2.5-0.7-4.1-1.2-5.7-1.6l-0.6,2.9c1.6,0.4,3.1,0.8,5.6,1.5c0.3,0.1,0.3,0.1,0.7,0.2
			c6.4,1.9,9.2,2.5,12.8,2.8c3.7,0.3,7.1-0.2,10.2-1.7c3.3,5.6,5.1,7,11.9,10L154,80C147.8,77.4,146.6,76.3,143.6,71.4z"/>
	</defs>
	<clipPath id="SVGID_22_">
		<use xlink:href="#SVGID_21_"  style="overflow:visible;"/>
	</clipPath>
	<g class="st11">
		<defs>
			<rect id="SVGID_23_" x="-572.3" y="-211.9" width="1322" height="768"/>
		</defs>
		<clipPath id="SVGID_24_">
			<use xlink:href="#SVGID_23_"  style="overflow:visible;"/>
		</clipPath>
	</g>
</g>
<g>
	<defs>
		<polygon id="SVGID_25_" points="4.9,2.5 27.2,20.5 24.7,23.6 2.3,5.6 		"/>
	</defs>
	<clipPath id="SVGID_26_">
		<use xlink:href="#SVGID_25_"  style="overflow:visible;"/>
	</clipPath>
	<g class="st12">
		<defs>
			<rect id="SVGID_27_" x="-572.3" y="-211.9" width="1322" height="768"/>
		</defs>
		<clipPath id="SVGID_28_">
			<use xlink:href="#SVGID_27_"  style="overflow:visible;"/>
		</clipPath>
		<rect x="-2.7" y="-2.5" class="st13" width="34.8" height="31.1"/>
	</g>
</g>
<path class="st14" d="M72.5,233.5c7.1-7,11.2-17,10.3-27.7c-0.2-2.7,0.1,1.1-8.7,7.8c-6,4.6-19.2,5.9-27.8-0.6
	c-8.7-6.6-11.3-19.5-8.1-27c4.8-11.4,8.8-11.8,7.2-11.7c-19,1.7-33.1,18.4-31.4,37.4l0.6,6.7"/>
<path class="st15" d="M-24.6,280.7h-63c0-22.7,18.4-41.2,41.2-41.2c6.2,0,12.2,1.4,17.5,3.9c9.6-10,23-16.2,37.9-16.2
	c14.9,0,28.3,6.2,37.9,16.2c5.3-2.5,11.2-3.9,17.5-3.9c22.7,0,41.2,18.4,41.2,41.2h-63H-24.6z"/>
<line class="st16" x1="-42.8" y1="196.4" x2="-46.8" y2="211.1"/>
<line class="st16" x1="-36.9" y1="205.4" x2="-51.5" y2="201.4"/>
<line class="st16" x1="133.2" y1="225.8" x2="129.3" y2="240.4"/>
<line class="st16" x1="137.9" y1="234.4" x2="124.5" y2="230.8"/>
<line class="st14" x1="-51.4" y1="295.4" x2="64.1" y2="295.4"/>
<line class="st14" x1="-71.7" y1="309.6" x2="36.7" y2="309.6"/>
<line class="st14" x1="5.4" y1="322.9" x2="64.6" y2="322.9"/>
<rect x="-552.6" y="-224.4" class="st17" width="1322" height="768"/>
</svg>
