<svg width="200" height="120" viewBox="0 0 200 120" fill="none" xmlns="http://www.w3.org/2000/svg">
<path d="M15.5 30C15.5 28.067 17.067 26.5 19 26.5H181C182.933 26.5 184.5 28.067 184.5 30V93.5H15.5V30Z" fill="white" stroke="#CFCFCF"/>
<path d="M15.5 30C15.5 28.067 17.067 26.5 19 26.5H181C182.933 26.5 184.5 28.067 184.5 30V35.5H15.5V30Z" fill="#F8F8F8" stroke="#CFCFCF"/>
<path d="M15 47.25H185" stroke="#CFCFCF" stroke-width="0.5" stroke-linecap="square"/>
<path d="M15 35.25H185" stroke="#CFCFCF" stroke-width="0.5" stroke-linecap="square"/>
<path d="M20 41.625H34.1797" stroke="#D9D9D9" stroke-width="1.5" stroke-linecap="square"/>
<path d="M51 41.625H123" stroke="#D9D9D9" stroke-width="1.5" stroke-linecap="square"/>
<path d="M143 41.625H175.009" stroke="#D9D9D9" stroke-width="1.5" stroke-linecap="square"/>
<path d="M20 30.625H27.18" stroke="#CFCFCF" stroke-width="1.5" stroke-linecap="square"/>
<path d="M51 30.625H69" stroke="#CFCFCF" stroke-width="1.5" stroke-linecap="square"/>
<path d="M143 30.625H153.01" stroke="#CFCFCF" stroke-width="1.5" stroke-linecap="square"/>
<path d="M20 53.625H31.18" stroke="#D9D9D9" stroke-width="1.5" stroke-linecap="square"/>
<path d="M51 53.625H129" stroke="#D9D9D9" stroke-width="1.5" stroke-linecap="square"/>
<path d="M143 53.625H170.01" stroke="#D9D9D9" stroke-width="1.5" stroke-linecap="square"/>
<path d="M20 64.625H34.1797" stroke="#D9D9D9" stroke-width="1.5" stroke-linecap="square"/>
<path d="M51 64.625H115" stroke="#D9D9D9" stroke-width="1.5" stroke-linecap="square"/>
<path d="M143 64.625H177.01" stroke="#D9D9D9" stroke-width="1.5" stroke-linecap="square"/>
<path d="M20 76.625H29.18" stroke="#D9D9D9" stroke-width="1.5" stroke-linecap="square"/>
<path d="M51 76.625H113" stroke="#D9D9D9" stroke-width="1.5" stroke-linecap="square"/>
<path d="M143 76.625H168.01" stroke="#D9D9D9" stroke-width="1.5" stroke-linecap="square"/>
<path d="M20 87.625H38.18" stroke="#D9D9D9" stroke-width="1.5" stroke-linecap="square"/>
<path d="M51 87.625H119" stroke="#D9D9D9" stroke-width="1.5" stroke-linecap="square"/>
<path d="M143 87.625H171.01" stroke="#D9D9D9" stroke-width="1.5" stroke-linecap="square"/>
<path d="M15 58.25H185" stroke="#CFCFCF" stroke-width="0.5" stroke-linecap="square"/>
<path d="M15 70.25H185" stroke="#CFCFCF" stroke-width="0.5" stroke-linecap="square"/>
<path d="M15 81.25H185" stroke="#CFCFCF" stroke-width="0.5" stroke-linecap="square"/>
<path d="M15 93.25H185" stroke="#CFCFCF" stroke-width="0.5" stroke-linecap="square"/>
<rect x="58.2344" y="15.5" width="83.5313" height="89" rx="3.5" fill="white"/>
<rect x="58.2344" y="15.5" width="83.5313" height="89" rx="3.5" stroke="#AEAEAE"/>
<path fill-rule="evenodd" clip-rule="evenodd" d="M95.9221 76.372V79.5H89.1721C88.5755 79.5006 88.0036 79.738 87.5817 80.1597C87.16 80.5816 86.9227 81.1534 86.9221 81.75V83.25C86.9221 83.4489 87.0011 83.6397 87.1417 83.7803C87.2824 83.9209 87.4732 84 87.6721 84H108.672C108.871 84 109.062 83.9209 109.202 83.7803C109.343 83.6397 109.422 83.4489 109.422 83.25V81.75C109.421 81.1534 109.184 80.5816 108.762 80.1597C108.341 79.738 107.769 79.5006 107.172 79.5H100.422V76.372C105.37 75.813 109.938 73.4531 113.258 69.7425C116.577 66.0315 118.415 61.2289 118.422 56.2501C118.422 55.9821 118.279 55.7346 118.047 55.6005C117.815 55.4666 117.529 55.4666 117.297 55.6005C117.065 55.7346 116.922 55.9821 116.922 56.2501C116.922 61.1797 114.981 65.9109 111.518 69.4197C108.056 72.9284 103.351 74.9324 98.4221 74.998C93.4929 75.0638 88.7365 73.1857 85.1817 69.7705C81.627 66.3551 79.5601 61.6773 79.4289 56.7497C79.2973 51.8217 81.1118 47.0405 84.4793 43.4409C87.8468 39.8409 92.4965 37.7121 97.4221 37.5149V39.7691C93.1153 39.965 89.0565 41.8388 86.1137 44.9895C83.171 48.1399 81.5781 52.3171 81.6761 56.6271C81.7742 60.9371 83.5552 65.0375 86.6381 68.0511C89.721 71.0647 93.8609 72.7519 98.1721 72.7519C102.483 72.7519 106.623 71.0645 109.706 68.0511C112.789 65.0375 114.57 60.9371 114.668 56.6271C114.766 52.3171 113.173 48.1399 110.23 44.9895C107.288 41.8388 103.229 39.9651 98.9221 39.7691V37.5H99.6721C99.94 37.5 100.188 37.357 100.322 37.125C100.455 36.893 100.455 36.607 100.322 36.375C100.188 36.143 99.94 36 99.6721 36H98.1721C92.9965 35.9997 88.0177 37.9811 84.2573 41.5372C80.4971 45.0934 78.2413 49.9544 77.9533 55.122C77.6653 60.2896 79.3669 65.3712 82.7085 69.3228C86.0502 73.2748 90.7785 75.7972 95.9217 76.372L95.9221 76.372ZM107.172 81C107.371 81.0002 107.562 81.0793 107.702 81.2199C107.843 81.3605 107.922 81.5511 107.922 81.75V82.5H88.4221V81.75C88.4222 81.5511 88.5013 81.3605 88.6419 81.2199C88.7825 81.0793 88.9731 81.0002 89.1721 81H107.172ZM97.4221 76.4808L97.4862 76.4832C97.7141 76.4916 97.9421 76.4999 98.1721 76.4999C98.4085 76.4999 98.6427 76.4912 98.877 76.4825L98.8773 76.4825L98.9221 76.4808V79.4999H97.4221V76.4808ZM89.0973 44.3173C89.2952 44.6638 89.4521 45.0324 89.5646 45.4154C89.6582 45.7784 89.6626 46.1587 89.5774 46.5237C89.4549 46.8688 89.1581 47.1284 88.5841 47.392L88.2716 47.5332C87.4685 47.8284 86.7449 48.3063 86.1582 48.929C85.7704 49.3243 85.2598 49.5759 84.7101 49.6426C85.7418 47.5526 87.2434 45.73 89.0973 44.3174L89.0973 44.3173ZM87.419 63.1257L87.4058 63.1863C87.2699 63.6732 87.2362 64.183 87.3066 64.6835C87.3788 65.0094 87.308 65.3505 87.1121 65.6207C86.9752 65.7522 86.784 65.8111 86.5968 65.7793C84.3801 63.0986 83.1688 59.7285 83.1723 56.2501C83.1727 55.711 83.2023 55.1723 83.2604 54.6362C84.3035 54.7458 85.1235 55.0685 85.1754 55.4171C85.1158 56.1376 85.1263 56.8621 85.2065 57.5805C85.3382 58.7075 86.1654 59.3991 86.8302 59.955L86.8304 59.9552C87.4751 60.4943 87.8693 60.8572 87.9071 61.3511C87.8965 61.6824 87.8184 62.0078 87.6774 62.3077C87.5716 62.5738 87.4852 62.8472 87.419 63.1258L87.419 63.1257ZM103.277 46.0685C103.777 45.4413 103.619 44.5124 103.534 44.0136C103.403 43.243 103.515 42.4932 103.778 42.3763C103.785 42.3729 103.792 42.3688 103.798 42.3646C103.804 42.3613 103.809 42.3581 103.815 42.3552C105.859 43.19 107.694 44.4636 109.191 46.0861C110.689 47.7086 111.811 49.6403 112.48 51.7445C112.28 51.804 112.089 51.8725 111.911 51.9386C111.508 52.1398 111.055 52.2221 110.607 52.1762C110.431 52.1154 110.265 52.0282 110.116 51.9178C109.756 51.6472 109.33 51.4781 108.882 51.4281C108.325 51.3942 107.785 51.6276 107.428 52.0567C107.081 52.4676 106.949 53.0191 107.073 53.5426C107.129 53.7486 107.214 53.9459 107.325 54.1285C107.207 54.107 107.092 54.0746 106.981 54.032C106.594 53.8684 106.168 53.8209 105.754 53.8954C105.282 53.9984 104.886 54.3166 104.684 54.7552C104.458 55.2902 104.483 55.8985 104.753 56.4128C105.091 57.0592 105.676 57.5415 106.376 57.7504C106.573 57.822 106.763 57.9112 106.944 58.0167C106.876 58.1151 106.772 58.239 106.701 58.3237C106.604 58.4395 106.511 58.5507 106.438 58.6543C106.303 58.8467 106.149 59.0362 105.986 59.2368L105.986 59.2368L105.982 59.2424H105.982C105.539 59.7333 105.181 60.2948 104.923 60.9033C104.744 61.4369 104.642 61.9932 104.619 62.5554C104.6 62.901 104.553 63.2445 104.477 63.5823C104.37 63.8785 104.2 64.1481 103.979 64.3727C103.534 64.8649 103.027 65.2985 102.472 65.6629C102.232 65.8313 101.795 66.0796 101.569 65.8527C101.177 65.4168 100.916 64.879 100.816 64.3013C100.764 64.0095 100.737 63.7137 100.736 63.4173C100.741 62.9176 100.673 62.4199 100.533 61.9404C100.468 61.7601 100.388 61.5857 100.294 61.4188C100.217 61.3035 100.165 61.1735 100.14 61.037C100.274 60.2645 100.018 59.4756 99.4557 58.9293C98.5074 58.0623 96.9938 58.2615 96.6596 58.3187C96.124 58.307 95.6003 58.1593 95.1372 57.8898L94.9872 57.8219C94.1265 57.4352 93.8251 56.7851 93.947 55.579C94.0384 54.9596 94.31 54.3809 94.7281 53.9148C95.146 53.4487 95.692 53.1159 96.2979 52.9579C97.4728 52.6674 98.637 52.9587 100.035 53.3691H100.035C100.823 53.521 101.622 53.5999 102.424 53.6048L102.511 53.609C103.175 53.6907 103.844 53.502 104.367 53.0854C104.654 52.8337 104.834 52.4828 104.872 52.1034C104.966 51.3777 104.736 50.6477 104.242 50.1079C103.251 49.078 101.482 49.1416 99.9218 49.1977L99.9217 49.1977L99.9216 49.1976C99.46 49.2233 98.9974 49.224 98.5357 49.1993L98.5435 49.1865C98.5927 49.1554 98.6861 49.1087 98.7514 49.076H98.7516C98.9903 48.9735 99.2074 48.8262 99.391 48.6422C99.7706 48.1432 99.9785 47.5346 99.9833 46.9076C100.107 46.7005 101.074 46.5127 102.032 46.5879C102.049 46.5891 102.066 46.5901 102.083 46.5902H102.083C102.129 46.5901 102.175 46.5899 102.222 46.5872C102.633 46.5776 103.019 46.3879 103.277 46.0683L103.277 46.0685ZM98.1722 41.2501C99.5692 41.2504 100.959 41.4465 102.302 41.8327C101.852 42.6882 101.983 43.8349 102.056 44.2649H102.055C102.12 44.5349 102.139 44.8135 102.114 45.0898H102.113C101.461 45.0421 98.7251 44.9483 98.496 46.7148L98.4977 46.7149V46.7151C98.4918 46.7508 98.4879 46.7869 98.4857 46.823C98.4955 47.0991 98.4313 47.3727 98.2999 47.6157C98.2294 47.6597 98.1563 47.6994 98.0812 47.7346C97.7747 47.8579 97.5083 48.0633 97.3113 48.3283L97.3109 48.3289C97.1542 48.5731 96.6788 49.3134 97.0696 49.9997C97.5168 50.7849 98.6018 50.7465 99.9752 50.6968L99.9817 50.6965C101.103 50.6569 102.636 50.6027 103.161 51.1483C103.352 51.3699 103.432 51.6657 103.379 51.9532C103.344 52.0054 103.149 52.1407 102.586 52.1111L102.497 52.1068H102.496C101.814 52.1035 101.132 52.0446 100.459 51.9305L100.458 51.9302C99.1841 51.5565 97.599 51.0914 95.9383 51.5019C95.0324 51.7344 94.2166 52.2324 93.5959 52.9319C92.9751 53.6316 92.5776 54.5007 92.4547 55.4278C92.2689 57.2691 92.914 58.5352 94.3719 59.1903L94.5177 59.2562C95.2178 59.6444 96.0097 59.8364 96.8099 59.8122C96.8381 59.8098 96.8663 59.8061 96.8941 59.8008C97.2283 59.7361 98.0822 59.7062 98.4432 60.0364L98.4432 60.0364C98.5091 60.0967 98.7096 60.2801 98.6478 60.8843H98.648C98.6233 61.3209 98.7361 61.754 98.9702 62.1233C99.0246 62.2184 99.0718 62.3173 99.1114 62.4195C99.2014 62.7619 99.2438 63.115 99.2374 63.4689C99.2394 63.8572 99.2775 64.2442 99.3513 64.6254C99.5105 65.4825 99.9118 66.2761 100.508 66.9123C100.842 67.2575 101.302 67.4511 101.783 67.4481C102.344 67.4256 102.885 67.2314 103.333 66.8917C103.998 66.4526 104.602 65.9286 105.131 65.3331C105.498 64.9417 105.77 64.4722 105.929 63.96C106.027 63.5401 106.089 63.1125 106.114 62.6819C106.129 62.2567 106.201 61.8356 106.328 61.4295C106.534 60.9752 106.81 60.5561 107.147 60.1876C107.319 59.9747 107.498 59.7544 107.664 59.519C107.711 59.4534 107.769 59.3841 107.83 59.3114L107.83 59.3114L107.849 59.2897C108.157 58.9239 108.579 58.4225 108.495 57.782H108.495C108.436 57.3922 108.211 57.047 107.878 56.8359C107.583 56.6388 107.265 56.478 106.932 56.3573C106.466 56.1716 106.27 56.082 106.088 55.7286V55.7284C106.029 55.6237 106.014 55.5 106.046 55.3841L106.046 55.3839C106.05 55.3752 106.055 55.366 106.101 55.3551C106.239 55.3661 106.373 55.3992 106.5 55.4531C106.723 55.5372 106.955 55.5944 107.192 55.623C107.717 55.7236 108.258 55.5667 108.647 55.2011C109.257 54.5187 108.83 53.7493 108.647 53.4206L108.647 53.4204C108.605 53.3489 108.567 53.275 108.533 53.199C108.519 53.1351 108.536 53.0679 108.579 53.0189C108.634 52.9531 108.718 52.9186 108.803 52.9262C108.985 52.9784 109.156 53.0648 109.306 53.1807C109.606 53.3965 109.943 53.5539 110.301 53.6447C111.025 53.7576 111.767 53.6534 112.433 53.3453C112.583 53.2894 112.724 53.2386 112.859 53.1961V53.1962C113.515 56.3379 113.145 59.6074 111.804 62.523C110.463 65.4389 108.221 67.8474 105.408 69.3942C102.596 70.9409 99.362 71.5444 96.1812 71.1156C93.0004 70.6869 90.0412 69.2486 87.7392 67.0124C87.9117 66.9149 88.0687 66.7923 88.205 66.6485C88.7317 66.0313 88.9445 65.2057 88.7816 64.4109C88.7537 64.1056 88.7844 63.7978 88.8719 63.504L88.885 63.4429H88.8851C88.9372 63.2343 89.0034 63.0296 89.0834 62.8301C89.3076 62.3296 89.4169 61.7851 89.4026 61.2368C89.3142 60.0769 88.4707 59.3716 87.7929 58.8048L87.7925 58.8045C87.2376 58.3407 86.7587 57.9401 86.6962 57.4063V57.4062C86.6256 56.7673 86.6184 56.1229 86.675 55.4826C86.6773 55.454 86.6781 55.4254 86.6772 55.3968C86.6251 53.7679 84.7031 53.2917 83.4953 53.1534H83.4955C83.6462 52.437 83.8497 51.7327 84.1042 51.0462C84.2789 51.1034 84.4606 51.1357 84.6442 51.1424C84.671 51.1435 84.6977 51.1438 84.7247 51.1438C85.7067 51.0754 86.6255 50.634 87.2926 49.9102C87.7406 49.4588 88.2847 49.1144 88.8844 48.9024C88.9928 48.8538 89.1019 48.8048 89.2108 48.7546C90.0169 48.4487 90.6609 47.8234 90.9905 47.0267C91.1719 46.4193 91.1898 45.7748 91.0425 45.1584C90.8909 44.5627 90.6522 43.9929 90.3339 43.4673C92.082 42.3907 94.034 41.6871 96.0671 41.4009C96.1129 41.7122 96.134 42.0267 96.1302 42.3412C96.1326 42.7225 96.1244 43.0003 95.9949 43.1043V43.1045C95.8158 43.2233 95.6204 43.3153 95.4149 43.3778C95.2741 43.43 95.134 43.4825 94.9996 43.5426C94.3257 43.8068 93.7051 44.1907 93.1679 44.6759C92.5597 45.2806 92.616 45.8098 92.7702 46.1475H92.77C92.8691 46.3642 93.0652 46.5209 93.2983 46.5698C93.5315 46.6187 93.7741 46.554 93.9518 46.3954C94.1296 46.2367 94.2215 46.0031 94.1993 45.7659C94.2074 45.7576 94.2163 45.7486 94.2266 45.7384H94.2265C94.6379 45.3866 95.1061 45.1072 95.6111 44.9123C95.7097 44.8684 95.8124 44.8304 95.9154 44.7922L95.9154 44.7922L95.9361 44.7845C96.2954 44.6708 96.6332 44.498 96.9353 44.273C97.6391 43.7075 97.6338 42.8797 97.6302 42.3323C97.6322 41.9756 97.6094 41.6192 97.562 41.2656C97.7647 41.2575 97.9675 41.2501 98.1722 41.2501L98.1722 41.2501ZM107.911 63.9345L107.931 63.9346C108.693 63.9346 109.402 63.1866 109.813 62.4816C110.271 61.6948 110.554 60.6365 109.973 60.0262H109.973C109.8 59.8443 109.547 59.7612 109.3 59.8046C109.053 59.848 108.844 60.0123 108.743 60.2422C108.642 60.4722 108.663 60.7374 108.799 60.9486C108.763 61.2255 108.667 61.491 108.517 61.7266C108.369 62.0135 108.15 62.2577 107.881 62.4357C107.62 62.4507 107.386 62.6002 107.262 62.8307C107.139 63.0612 107.145 63.3391 107.277 63.5644C107.409 63.7898 107.65 63.9299 107.911 63.9345ZM114.651 43.3726L115.002 41.3401L113.419 39.9068C113.277 39.7788 113.19 39.6016 113.174 39.4114C113.159 39.2214 113.216 39.0325 113.335 38.8833C113.454 38.7341 113.625 38.6358 113.814 38.6083L116.019 38.2886L116.982 36.4083C117.044 36.2864 117.139 36.1839 117.256 36.1121C117.372 36.04 117.506 36.0014 117.643 36.0002H117.65C117.785 36.0002 117.919 36.0371 118.035 36.1069C118.152 36.1769 118.247 36.2771 118.311 36.3971V36.3969L119.307 38.263L121.518 38.5488C121.707 38.5733 121.88 38.6688 122.001 38.8161C122.122 38.9633 122.183 39.1513 122.17 39.3414C122.158 39.5318 122.073 39.7102 121.934 39.8405L120.376 41.2977L120.762 43.324C120.797 43.5071 120.763 43.6966 120.666 43.8557C120.568 44.0147 120.415 44.1319 120.236 44.1843C120.057 44.2366 119.865 44.2205 119.698 44.139L119.698 44.1388L117.705 43.1694L115.729 44.1694C115.563 44.2535 115.371 44.2727 115.192 44.2233C115.012 44.174 114.857 44.0594 114.757 43.9023C114.657 43.7449 114.62 43.5562 114.651 43.3726H114.651ZM117.177 39.3173C117.067 39.5336 116.858 39.6828 116.617 39.7176L115.607 39.8642L116.315 40.5051C116.506 40.6775 116.595 40.9356 116.551 41.1887L116.384 42.157L117.359 41.6632C117.569 41.5575 117.815 41.5556 118.026 41.6579V41.6578L119.009 42.1359L118.825 41.1726C118.777 40.92 118.862 40.6601 119.05 40.4843H119.05L119.747 39.8325L118.732 39.7012C118.491 39.6701 118.28 39.5246 118.166 39.3106V39.3107L117.663 38.3689L117.177 39.3173Z" fill="#AEAEAE"/>
</svg>
