<?xml version="1.0" encoding="UTF-8"?>
<svg width="72px" height="72px" viewBox="0 0 72 72" version="1.1" xmlns="http://www.w3.org/2000/svg" xmlns:xlink="http://www.w3.org/1999/xlink">
    <title>button-click</title>
    <g id="------↳-Home" stroke="none" stroke-width="1" fill="none" fill-rule="evenodd">
        <g id="Artboard" transform="translate(-653.000000, -223.000000)">
            <g id="button-click" transform="translate(653.000000, 223.000000)">
                <rect id="Rectangle" fill="#E1F3F1" x="0" y="0" width="72" height="72" rx="8"></rect>
                <g id="button-2" transform="translate(13.000000, 15.000000)" fill-rule="nonzero">
                    <path d="M44,29 L2,29 C0.895,29 0,28.105 0,27 L0,2 C0,0.895 0.895,0 2,0 L44,0 C45.105,0 46,0.895 46,2 L46,27 C46,28.105 45.105,29 44,29 Z" id="Path" fill="#06806B"></path>
                    <polygon id="Path" fill="#444444" points="37 24 11 15 19 42 24 33 36 45 40 41 28 29"></polygon>
                    <path d="M36,46 C35.744,46 35.488,45.902 35.293,45.707 L24.23,34.645 L19.874,42.486 C19.679,42.837 19.295,43.034 18.891,42.994 C18.491,42.95 18.156,42.67 18.041,42.284 L10.041,15.284 C9.935,14.925 10.038,14.536 10.309,14.277 C10.58,14.017 10.972,13.932 11.328,14.055 L37.328,23.055 C37.701,23.184 37.963,23.52 37.997,23.913 C38.031,24.306 37.831,24.683 37.486,24.874 L29.645,29.23 L40.707,40.292 C41.098,40.683 41.098,41.315 40.707,41.706 L36.707,45.706 C36.512,45.902 36.256,46 36,46 Z M24,32 C24.264,32 24.519,32.104 24.707,32.293 L36,43.586 L38.586,41 L27.293,29.707 C27.071,29.485 26.966,29.172 27.01,28.861 C27.053,28.55 27.24,28.278 27.515,28.126 L34.558,24.213 L12.512,16.582 L19.283,39.433 L23.127,32.515 C23.279,32.241 23.552,32.054 23.862,32.011 C23.907,32.003 23.954,32 24,32 Z" id="Shape" fill="#E6E6E6"></path>
                </g>
            </g>
        </g>
    </g>
</svg>