<?xml version="1.0" encoding="UTF-8"?>
<svg width="72px" height="72px" viewBox="0 0 72 72" version="1.1" xmlns="http://www.w3.org/2000/svg" xmlns:xlink="http://www.w3.org/1999/xlink">
    <title>clock</title>
    <g id="------↳-Home" stroke="none" stroke-width="1" fill="none" fill-rule="evenodd">
        <g id="Artboard" transform="translate(-504.000000, -223.000000)">
            <g id="clock" transform="translate(504.000000, 223.000000)">
                <rect id="Rectangle" fill="#E1F3F1" x="0" y="0" width="72" height="72" rx="8"></rect>
                <g transform="translate(13.000000, 13.000000)" fill-rule="nonzero">
                    <circle id="Oval" fill="#FFFFFF" cx="23" cy="23" r="21"></circle>
                    <path d="M23,46 C10.31738,46 0,35.68213 0,23 C0,10.31787 10.31738,0 23,0 C35.68262,0 46,10.31787 46,23 C46,35.68213 35.68262,46 23,46 Z M23,4 C12.52344,4 4,12.52344 4,23 C4,33.47656 12.52344,42 23,42 C33.47656,42 42,33.47656 42,23 C42,12.52344 33.47656,4 23,4 Z" id="Shape" fill="#06806B"></path>
                    <path d="M23,24 C22.44727,24 22,23.55225 22,23 L22,10 C22,9.44775 22.44727,9 23,9 C23.55273,9 24,9.44775 24,10 L24,23 C24,23.55225 23.55273,24 23,24 Z" id="Path" fill="#223E49"></path>
                    <path d="M35,24 L23,24 C22.44727,24 22,23.55225 22,23 C22,22.44775 22.44727,22 23,22 L35,22 C35.55273,22 36,22.44775 36,23 C36,23.55225 35.55273,24 35,24 Z" id="Path" fill="#223E49"></path>
                    <path d="M13.99902,35 C13.77636,35 13.55273,34.92578 13.36718,34.77393 C12.93945,34.42432 12.87597,33.79444 13.22558,33.3667 L22.22558,22.3667 C22.57617,21.93994 23.20507,21.87695 23.63281,22.22608 C24.06054,22.57569 24.12402,23.20557 23.77441,23.63331 L14.77441,34.63331 C14.57617,34.875 14.28906,35 13.99902,35 Z" id="Path" fill="#E86C60"></path>
                    <circle id="Oval" fill="#223E49" cx="23" cy="23" r="3"></circle>
                </g>
            </g>
        </g>
    </g>
</svg>