<?xml version="1.0" encoding="UTF-8"?>
<svg width="72px" height="72px" viewBox="0 0 72 72" version="1.1" xmlns="http://www.w3.org/2000/svg" xmlns:xlink="http://www.w3.org/1999/xlink">
    <title>graded-lines</title>
    <g id="------↳-Home" stroke="none" stroke-width="1" fill="none" fill-rule="evenodd">
        <g id="Artboard" transform="translate(-951.000000, -223.000000)">
            <g id="graded-lines" transform="translate(951.000000, 223.000000)">
                <rect id="Rectangle" fill="#E1F3F1" x="0" y="0" width="72" height="72" rx="8"></rect>
                <g id="check-list" transform="translate(15.000000, 14.000000)" fill-rule="nonzero">
                    <path d="M41,5 L18,5 C17.4477153,5 17,5.44771525 17,6 C17,6.55228475 17.4477153,7 18,7 L41,7 C41.5522847,7 42,6.55228475 42,6 C42,5.44771525 41.5522847,5 41,5 Z" id="Path" fill="#444444"></path>
                    <path d="M41,21 L18,21 C17.4477153,21 17,21.4477153 17,22 C17,22.5522847 17.4477153,23 18,23 L41,23 C41.5522847,23 42,22.5522847 42,22 C42,21.4477153 41.5522847,21 41,21 Z" id="Path" fill="#444444"></path>
                    <path d="M41,37 L18,37 C17.4477153,37 17,37.4477153 17,38 C17,38.5522847 17.4477153,39 18,39 L41,39 C41.5522847,39 42,38.5522847 42,38 C42,37.4477153 41.5522847,37 41,37 Z" id="Path" fill="#444444"></path>
                    <rect id="Rectangle" fill="#B3B3B3" x="0" y="0" width="12" height="12" rx="1"></rect>
                    <rect id="Rectangle" fill="#B3B3B3" x="0" y="32" width="12" height="12" rx="1"></rect>
                    <path d="M11.211,16.386 L4.906,24.492 L1.706,21.292 C1.31362111,20.9130278 0.689915223,20.9184476 0.304181425,21.3041814 C-0.0815523739,21.6899152 -0.0869722095,22.3136211 0.292,22.706 L4.292,26.706 C4.47957366,26.8941613 4.73431492,27 5,27 L5.062,27 C5.34817932,26.982148 5.61292714,26.8423087 5.789,26.616 L12.789,17.616 C13.0178659,17.3348759 13.0766708,16.9519072 12.9426933,16.6150684 C12.8087158,16.2782296 12.5029383,16.0402735 12.1435094,15.9931434 C11.7840806,15.9460132 11.4272911,16.0970902 11.211,16.388 L11.211,16.386 Z" id="Path" fill="#48AC48"></path>
                </g>
            </g>
        </g>
    </g>
</svg>