<?xml version="1.0" encoding="UTF-8"?>
<svg width="72px" height="72px" viewBox="0 0 72 72" version="1.1" xmlns="http://www.w3.org/2000/svg" xmlns:xlink="http://www.w3.org/1999/xlink">
    <title>keyboard</title>
    <g id="------↳-Home" stroke="none" stroke-width="1" fill="none" fill-rule="evenodd">
        <g id="Artboard" transform="translate(-57.000000, -223.000000)">
            <g id="keyboard" transform="translate(57.000000, 223.000000)">
                <rect id="Rectangle" fill="#E1F3F1" x="0" y="0" width="72" height="72" rx="8"></rect>
                <g transform="translate(13.000000, 23.000000)" fill-rule="nonzero" id="Path">
                    <path d="M45,0 L1,0 C0.4477966,0 0,0.4477997 0,1 L0,25 C0,25.5522003 0.4477966,26 1,26 L45,26 C45.5521965,26 46,25.5522003 46,25 L46,1 C46,0.4477997 45.5521965,0 45,0 Z" fill="#AFAFAF"></path>
                    <path d="M7,8 L4,8 C3.4476967,8 3,7.5522995 3,7 L3,5 C3,4.4476995 3.4476967,4 4,4 L7,4 C7.5522966,4 8,4.4476995 8,5 L8,7 C8,7.5522995 7.5522966,8 7,8 Z" fill="#FFFFFF"></path>
                    <path d="M14,8 L11,8 C10.4476967,8 10,7.5522995 10,7 L10,5 C10,4.4476995 10.4476967,4 11,4 L14,4 C14.5522966,4 15,4.4476995 15,5 L15,7 C15,7.5522995 14.5522966,8 14,8 Z" fill="#FFFFFF"></path>
                    <path d="M21,8 L18,8 C17.4476967,8 17,7.5522995 17,7 L17,5 C17,4.4476995 17.4476967,4 18,4 L21,4 C21.5522957,4 22,4.4476995 22,5 L22,7 C22,7.5522995 21.5522957,8 21,8 Z" fill="#FFFFFF"></path>
                    <path d="M28,8 L25,8 C24.4476967,8 24,7.5522995 24,7 L24,5 C24,4.4476995 24.4476967,4 25,4 L28,4 C28.5522957,4 29,4.4476995 29,5 L29,7 C29,7.5522995 28.5522957,8 28,8 Z" fill="#FFFFFF"></path>
                    <path d="M35,8 L32,8 C31.4476967,8 31,7.5522995 31,7 L31,5 C31,4.4476995 31.4476967,4 32,4 L35,4 C35.5522957,4 36,4.4476995 36,5 L36,7 C36,7.5522995 35.5522957,8 35,8 Z" fill="#FFFFFF"></path>
                    <path d="M42,8 L39,8 C38.4476967,8 38,7.5522995 38,7 L38,5 C38,4.4476995 38.4476967,4 39,4 L42,4 C42.5522957,4 43,4.4476995 43,5 L43,7 C43,7.5522995 42.5522957,8 42,8 Z" fill="#FFFFFF"></path>
                    <path d="M7,15 L4,15 C3.4476967,15 3,14.5522995 3,14 L3,12 C3,11.4477005 3.4476967,11 4,11 L7,11 C7.5522966,11 8,11.4477005 8,12 L8,14 C8,14.5522995 7.5522966,15 7,15 Z" fill="#FFFFFF"></path>
                    <path d="M14,15 L11,15 C10.4476967,15 10,14.5522995 10,14 L10,12 C10,11.4477005 10.4476967,11 11,11 L14,11 C14.5522966,11 15,11.4477005 15,12 L15,14 C15,14.5522995 14.5522966,15 14,15 Z" fill="#FFFFFF"></path>
                    <path d="M21,15 L18,15 C17.4476967,15 17,14.5522995 17,14 L17,12 C17,11.4477005 17.4476967,11 18,11 L21,11 C21.5522957,11 22,11.4477005 22,12 L22,14 C22,14.5522995 21.5522957,15 21,15 Z" fill="#FFFFFF"></path>
                    <path d="M28,15 L25,15 C24.4476967,15 24,14.5522995 24,14 L24,12 C24,11.4477005 24.4476967,11 25,11 L28,11 C28.5522957,11 29,11.4477005 29,12 L29,14 C29,14.5522995 28.5522957,15 28,15 Z" fill="#FFFFFF"></path>
                    <path d="M42,15 L32,15 C31.4476967,15 31,14.5522995 31,14 L31,12 C31,11.4477005 31.4476967,11 32,11 L42,11 C42.5522957,11 43,11.4477005 43,12 L43,14 C43,14.5522995 42.5522957,15 42,15 Z" fill="#FFFFFF"></path>
                    <path d="M7,22 L4,22 C3.4476967,22 3,21.5522995 3,21 L3,19 C3,18.4477005 3.4476967,18 4,18 L7,18 C7.5522966,18 8,18.4477005 8,19 L8,21 C8,21.5522995 7.5522966,22 7,22 Z" fill="#FFFFFF"></path>
                    <path d="M35,22 L11,22 C10.4476967,22 10,21.5522995 10,21 L10,19 C10,18.4477005 10.4476967,18 11,18 L35,18 C35.5522957,18 36,18.4477005 36,19 L36,21 C36,21.5522995 35.5522957,22 35,22 Z" fill="#FFFFFF"></path>
                    <path d="M42,22 L39,22 C38.4476967,22 38,21.5522995 38,21 L38,19 C38,18.4477005 38.4476967,18 39,18 L42,18 C42.5522957,18 43,18.4477005 43,19 L43,21 C43,21.5522995 42.5522957,22 42,22 Z" fill="#FFFFFF"></path>
                </g>
            </g>
        </g>
    </g>
</svg>