<?xml version="1.0" encoding="UTF-8"?>
<svg width="72px" height="72px" viewBox="0 0 72 72" version="1.1" xmlns="http://www.w3.org/2000/svg" xmlns:xlink="http://www.w3.org/1999/xlink">
    <title>luggage-tag</title>
    <g id="------↳-Home" stroke="none" stroke-width="1" fill="none" fill-rule="evenodd">
        <g id="Artboard" transform="translate(-1398.000000, -223.000000)">
            <g id="luggage-tag" transform="translate(1398.000000, 223.000000)">
                <rect id="Rectangle" fill="#E1F3F1" x="0" y="0" width="72" height="72" rx="8"></rect>
                <g id="label" transform="translate(14.000000, 14.000000)" fill-rule="nonzero">
                    <path d="M43.707,24.293 L19.707,0.293 C19.52,0.105 19.265,0 19,0 L1,0 C0.448,0 0,0.448 0,1 L0,19 C0,19.265 0.105,19.52 0.293,19.707 L24.293,43.707 C24.488,43.902 24.744,44 25,44 C25.256,44 25.512,43.902 25.707,43.707 L43.707,25.707 C44.098,25.316 44.098,24.684 43.707,24.293 Z M10,13 C8.343,13 7,11.657 7,10 C7,8.343 8.343,7 10,7 C11.657,7 13,8.343 13,10 C13,11.657 11.657,13 10,13 Z" id="Shape" fill="#5A7A84"></path>
                    <path d="M10,15 C7.243,15 5,12.757 5,10 C5,7.243 7.243,5 10,5 C12.757,5 15,7.243 15,10 C15,12.757 12.757,15 10,15 Z M10,7 C8.346,7 7,8.346 7,10 C7,11.654 8.346,13 10,13 C11.654,13 13,11.654 13,10 C13,8.346 11.654,7 10,7 Z" id="Shape" fill="#223E49"></path>
                    <path d="M35.293,25.707 L25.707,35.293 C25.316,35.684 24.683,35.684 24.293,35.293 L12.707,23.707 C12.316,23.316 12.316,22.683 12.707,22.293 L22.293,12.707 C22.684,12.316 23.317,12.316 23.707,12.707 L35.293,24.293 C35.683,24.683 35.683,25.317 35.293,25.707 Z" id="Path" fill="#E6E6E6"></path>
                    <path d="M29,26 C28.744,26 28.488,25.902 28.293,25.707 L22.293,19.707 C21.902,19.316 21.902,18.684 22.293,18.293 C22.684,17.902 23.316,17.902 23.707,18.293 L29.707,24.293 C30.098,24.684 30.098,25.316 29.707,25.707 C29.512,25.902 29.256,26 29,26 Z" id="Path" fill="#B3B3B3"></path>
                    <path d="M25,30 C24.744,30 24.488,29.902 24.293,29.707 L18.293,23.707 C17.902,23.316 17.902,22.684 18.293,22.293 C18.684,21.902 19.316,21.902 19.707,22.293 L25.707,28.293 C26.098,28.684 26.098,29.316 25.707,29.707 C25.512,29.902 25.256,30 25,30 Z" id="Path" fill="#B3B3B3"></path>
                    <path d="M14.25,33.664 C13.234,38.49 11.434,41 10,41 C7.64,41 5,34.585 5,26 C5,17.415 7.64,11 10,11 C10.614,11 11.27,11.465 11.895,12.307 C12.452,11.848 12.84,11.2 12.955,10.454 C11.878,9.308 10.818,9 10,9 C5.453,9 3,17.759 3,26 C3,34.241 5.453,43 10,43 C12.529,43 14.677,40.14 15.914,35.328 L14.25,33.664 Z" id="Path" fill="#E86C60"></path>
                </g>
            </g>
        </g>
    </g>
</svg>