<?xml version="1.0" encoding="UTF-8"?>
<svg width="72px" height="72px" viewBox="0 0 72 72" version="1.1" xmlns="http://www.w3.org/2000/svg" xmlns:xlink="http://www.w3.org/1999/xlink">
    <title>projector</title>
    <g id="------↳-Home" stroke="none" stroke-width="1" fill="none" fill-rule="evenodd">
        <g id="Artboard" transform="translate(-206.000000, -223.000000)">
            <g id="projector" transform="translate(206.000000, 223.000000)">
                <rect id="Rectangle" fill="#E1F3F1" x="0" y="0" width="72" height="72" rx="8"></rect>
                <g transform="translate(13.000000, 16.000000)" fill-rule="nonzero">
                    <path d="M43,37 C44.6568542,37 46,35.6568542 46,34 L46,18 C46,16.3431458 44.6568542,15 43,15 L25.479,15 C23.3918979,12.4672857 20.2818648,11.0001831 17,11.0001831 C13.7181352,11.0001831 10.6081021,12.4672857 8.521,15 L3,15 C1.34314575,15 0,16.3431458 0,18 L0,34 C0,35.6568542 1.34314575,37 3,37 L43,37 Z" id="Path" fill="#B3B3B3"></path>
                    <path d="M33,20 L39,20 C39.5522847,20 40,20.4477153 40,21 C40,21.5522847 39.5522847,22 39,22 L33,22 C32.4477153,22 32,21.5522847 32,21 C32,20.4477153 32.4477153,20 33,20 Z M33,25 L39,25 C39.5522847,25 40,25.4477153 40,26 C40,26.5522847 39.5522847,27 39,27 L33,27 C32.4477153,27 32,26.5522847 32,26 C32,25.4477153 32.4477153,25 33,25 Z M33,30 L39,30 C39.5522847,30 40,30.4477153 40,31 C40,31.5522847 39.5522847,32 39,32 L33,32 C32.4477153,32 32,31.5522847 32,31 C32,30.4477153 32.4477153,30 33,30 Z" id="Shape" fill="#666666"></path>
                    <circle id="Oval" fill="#666666" cx="17" cy="22" r="9"></circle>
                    <path d="M17,15 C13.1340068,15 10,18.1340068 10,22 C10,25.8659932 13.1340068,29 17,29 C20.8659932,29 24,25.8659932 24,22 C24,18.1340068 20.8659932,15 17,15 L17,15 Z" id="Path" fill="#444444"></path>
                    <path d="M17,19 C15.3431458,19 14,20.3431458 14,22 C14,22.5522847 13.5522847,23 13,23 C12.4477153,23 12,22.5522847 12,22 C12.0033061,19.2399468 14.2399468,17.0033061 17,17 C17.5522847,17 18,17.4477153 18,18 C18,18.5522847 17.5522847,19 17,19 L17,19 Z" id="Path" fill="#C6C6C6"></path>
                    <path d="M17,7 C16.4477153,7 16,6.55228475 16,6 L16,1 C16,0.44771525 16.4477153,0 17,0 C17.5522847,0 18,0.44771525 18,1 L18,6 C18,6.55228475 17.5522847,7 17,7 Z" id="Path" fill="#2BAC9A"></path>
                    <path d="M10.877,8.21800003 C10.4725709,8.21810177 10.1078963,7.97459074 9.953,7.601 L8.04,2.981 C7.82875109,2.47068889 8.0711889,1.88574893 8.58150001,1.67450001 C9.09181111,1.4632511 9.67675108,1.7056889 9.888,2.216 L11.8,6.835 C11.9016421,7.08005388 11.901742,7.35545409 11.8002776,7.60058161 C11.6988132,7.84570913 11.5041011,8.04047183 11.259,8.142 C11.1377741,8.19178004 11.0080481,8.2175894 10.877,8.21800003 L10.877,8.21800003 Z" id="Path" fill="#2BAC9A"></path>
                    <path d="M5.687,11.6870003 C5.42145868,11.6872088 5.16673769,11.5817946 4.979,11.394 L1.443,7.857 C1.18304342,7.60592553 1.0787874,7.23412211 1.17030284,6.88449268 C1.26181828,6.53486324 1.53486324,6.26181828 1.88449268,6.17030284 C2.23412211,6.0787874 2.60592553,6.18304342 2.857,6.443 L6.394,9.979 C6.68062387,10.2649 6.7665934,10.6954072 6.61175857,11.0694636 C6.45692374,11.44352 6.09183568,11.687319 5.687,11.6870003 L5.687,11.6870003 Z" id="Path" fill="#2BAC9A"></path>
                    <path d="M23.123,8.218 C22.9916153,8.21771876 22.8615373,8.19190695 22.74,8.142 C22.4948989,8.04047183 22.3001868,7.84570913 22.1987224,7.60058161 C22.097258,7.35545409 22.0973579,7.08005388 22.199,6.835 L24.112,2.216 C24.3232489,1.70568889 24.9081889,1.46325108 25.4185,1.6745 C25.9288111,1.88574892 26.1712489,2.47068889 25.96,2.981 L24.047,7.6 C23.8924151,7.97398299 23.5276724,8.218 23.123,8.218 Z" id="Path" fill="#2BAC9A"></path>
                    <path d="M28.313,11.6870003 C27.9081643,11.687319 27.5430763,11.44352 27.3882414,11.0694636 C27.2334066,10.6954072 27.3193761,10.2649 27.606,9.979 L31.143,6.443 C31.3940745,6.18304342 31.7658779,6.0787874 32.1155073,6.17030284 C32.4651368,6.26181828 32.7381817,6.53486324 32.8296972,6.88449268 C32.9212126,7.23412211 32.8169566,7.60592553 32.557,7.857 L29.021,11.394 C28.8332623,11.5817946 28.5785413,11.6872088 28.313,11.6870003 Z" id="Path" fill="#2BAC9A"></path>
                    <path d="M35,40 L39,40 C39.5522847,40 40,39.5522847 40,39 L40,37 L34,37 L34,39 C34,39.5522847 34.4477153,40 35,40 Z" id="Path" fill="#666666"></path>
                    <path d="M7,40 L11,40 C11.5522847,40 12,39.5522847 12,39 L12,37 L6,37 L6,39 C6,39.5522847 6.44771525,40 7,40 Z" id="Path" fill="#666666"></path>
                </g>
            </g>
        </g>
    </g>
</svg>