<?xml version="1.0" encoding="UTF-8"?>
<svg width="72px" height="72px" viewBox="0 0 72 72" version="1.1" xmlns="http://www.w3.org/2000/svg" xmlns:xlink="http://www.w3.org/1999/xlink">
    <title>school-building</title>
    <g id="------↳-Home" stroke="none" stroke-width="1" fill="none" fill-rule="evenodd">
        <g id="Artboard" transform="translate(-1547.000000, -223.000000)">
            <g id="school-building" transform="translate(1547.000000, 223.000000)">
                <rect id="Rectangle" fill="#E1F3F1" x="0" y="0" width="72" height="72" rx="8"></rect>
                <g id="school" transform="translate(15.000000, 13.000000)" fill-rule="nonzero">
                    <path d="M21,14 C20.447,14 20,13.552 20,13 L20,1 C20,0.448 20.448,0 21,0 L21,0 C21.552,0 22,0.448 22,1 L22,13 C22,13.552 21.553,14 21,14 Z" id="Path" fill="#5B5B5B"></path>
                    <path d="M31,10 L22,10 L22,2 L31,2 C31.552,2 32,2.448 32,3 L32,9 C32,9.552 31.552,10 31,10 Z" id="Path" fill="#06806B"></path>
                    <path d="M41,28 L2,28 L1,28 C0.447,28 0,28.448 0,29 L0,45 C0,45.552 0.447,46 1,46 L41,46 C41.553,46 42,45.552 42,45 L42,29 C42,28.448 41.553,28 41,28 Z" id="Path" fill="#444444"></path>
                    <path d="M31.625,20.219 L21.625,12.219 C21.26,11.927 20.74,11.927 20.375,12.219 L10.375,20.219 C10.138,20.409 10,20.696 10,21 L10,28 L32,28 L32,21 C32,20.696 31.862,20.409 31.625,20.219 Z" id="Path" fill="#B3B3B3"></path>
                    <path d="M22,25 L20,25 C19.448,25 19,24.552 19,24 L19,22 C19,21.448 19.448,21 20,21 L22,21 C22.552,21 23,21.448 23,22 L23,24 C23,24.552 22.552,25 22,25 Z" id="Path" fill="#FFFFFF"></path>
                    <path d="M7,39 L5,39 C4.448,39 4,38.552 4,38 L4,36 C4,35.448 4.448,35 5,35 L7,35 C7.552,35 8,35.448 8,36 L8,38 C8,38.552 7.552,39 7,39 Z" id="Path" fill="#BADEFC"></path>
                    <path d="M14,39 L12,39 C11.448,39 11,38.552 11,38 L11,36 C11,35.448 11.448,35 12,35 L14,35 C14.552,35 15,35.448 15,36 L15,38 C15,38.552 14.552,39 14,39 Z" id="Path" fill="#BADEFC"></path>
                    <path d="M30,39 L28,39 C27.448,39 27,38.552 27,38 L27,36 C27,35.448 27.448,35 28,35 L30,35 C30.552,35 31,35.448 31,36 L31,38 C31,38.552 30.552,39 30,39 Z" id="Path" fill="#BADEFC"></path>
                    <path d="M37,39 L35,39 C34.448,39 34,38.552 34,38 L34,36 C34,35.448 34.448,35 35,35 L37,35 C37.552,35 38,35.448 38,36 L38,38 C38,38.552 37.552,39 37,39 Z" id="Path" fill="#BADEFC"></path>
                    <path d="M22,40 L20,40 C19.448,40 19,40.448 19,41 L19,46 L23,46 L23,41 C23,40.448 22.552,40 22,40 Z" id="Path" fill="#E6E6E6"></path>
                </g>
            </g>
        </g>
    </g>
</svg>