<?xml version="1.0" encoding="UTF-8"?>
<svg width="72px" height="72px" viewBox="0 0 72 72" version="1.1" xmlns="http://www.w3.org/2000/svg" xmlns:xlink="http://www.w3.org/1999/xlink">
    <title>scroll</title>
    <g id="------↳-Home" stroke="none" stroke-width="1" fill="none" fill-rule="evenodd">
        <g id="Artboard" transform="translate(-1100.000000, -223.000000)">
            <g id="scroll" transform="translate(1100.000000, 223.000000)">
                <rect id="Rectangle" fill="#E1F3F1" x="0" y="0" width="72" height="72" rx="8"></rect>
                <g id="paper" transform="translate(13.000000, 13.000000)" fill-rule="nonzero">
                    <path d="M35,0 L5,0 C7.761,0 10,2.239 10,5 L10,41 C10,43.761 12.239,46 15,46 L40,46 L40,5 C40,2.239 37.761,0 35,0 Z" id="Path" fill="#DEDEDE"></path>
                    <path d="M33,11 L17,11 C16.448,11 16,10.552 16,10 C16,9.448 16.448,9 17,9 L33,9 C33.552,9 34,9.448 34,10 C34,10.552 33.552,11 33,11 Z" id="Path" fill="#979696"></path>
                    <path d="M33,19 L17,19 C16.448,19 16,18.552 16,18 C16,17.448 16.448,17 17,17 L33,17 C33.552,17 34,17.448 34,18 C34,18.552 33.552,19 33,19 Z" id="Path" fill="#979696"></path>
                    <path d="M33,27 L17,27 C16.448,27 16,26.552 16,26 C16,25.448 16.448,25 17,25 L33,25 C33.552,25 34,25.448 34,26 C34,26.552 33.552,27 33,27 Z" id="Path" fill="#979696"></path>
                    <path d="M24,35 L17,35 C16.448,35 16,34.552 16,34 C16,33.448 16.448,33 17,33 L24,33 C24.552,33 25,33.448 25,34 C25,34.552 24.552,35 24,35 Z" id="Path" fill="#979696"></path>
                    <path d="M5,0 C2.239,0 0,2.239 0,5 L10,5 C10,2.239 7.761,0 5,0 Z" id="Path" fill="#9D9D9D"></path>
                    <path d="M20,41 C20,43.761 17.761,46 15,46 L41,46 C43.761,46 46,43.761 46,41 L20,41 Z" id="Path" fill="#9D9D9D"></path>
                </g>
            </g>
        </g>
    </g>
</svg>