<?xml version="1.0" encoding="UTF-8"?>
<svg width="72px" height="72px" viewBox="0 0 72 72" version="1.1" xmlns="http://www.w3.org/2000/svg" xmlns:xlink="http://www.w3.org/1999/xlink">
    <title>tactic</title>
    <g id="------↳-Home" stroke="none" stroke-width="1" fill="none" fill-rule="evenodd">
        <g id="Artboard" transform="translate(-802.000000, -223.000000)">
            <g id="tactic" transform="translate(802.000000, 223.000000)">
                <rect id="Rectangle" fill="#E1F3F1" x="0" y="0" width="72" height="72" rx="8"></rect>
                <g transform="translate(14.000000, 14.000000)" fill-rule="nonzero">
                    <path d="M2.293,14.707 C2.68349985,15.0973819 3.31650015,15.0973819 3.707,14.707 L9,9.414 L14.293,14.707 C14.6853789,15.0859722 15.3090848,15.0805524 15.6948186,14.6948186 C16.0805524,14.3090848 16.0859722,13.6853789 15.707,13.293 L10.414,8 L15.707,2.707 C15.9669566,2.45592553 16.0712126,2.08412211 15.9796972,1.73449268 C15.8881817,1.38486324 15.6151368,1.11181828 15.2655073,1.02030284 C14.9158779,0.928787403 14.5440745,1.03304342 14.293,1.293 L9,6.586 L3.707,1.293 C3.31462111,0.91402779 2.69091522,0.919447626 2.30518142,1.30518142 C1.91944763,1.69091522 1.91402779,2.31462111 2.293,2.707 L7.586,8 L2.293,13.293 C1.90261806,13.6834999 1.90261806,14.3165001 2.293,14.707 Z" id="Path" fill="#83CFC3"></path>
                    <path d="M42.707,28.293 C42.3165001,27.9026181 41.6834999,27.9026181 41.293,28.293 L36,33.586 L30.707,28.293 C30.3146211,27.9140278 29.6909152,27.9194476 29.3051814,28.3051814 C28.9194476,28.6909152 28.9140278,29.3146211 29.293,29.707 L34.586,35 L29.293,40.293 C29.0330434,40.5440745 28.9287874,40.9158779 29.0203028,41.2655073 C29.1118183,41.6151368 29.3848632,41.8881817 29.7344927,41.9796972 C30.0841221,42.0712126 30.4559255,41.9669566 30.707,41.707 L36,36.414 L41.293,41.707 C41.6853789,42.0859722 42.3090848,42.0805524 42.6948186,41.6948186 C43.0805524,41.3090848 43.0859722,40.6853789 42.707,40.293 L37.414,35 L42.707,29.707 C43.0973819,29.3165001 43.0973819,28.6834999 42.707,28.293 Z" id="Path" fill="#83CFC3"></path>
                    <circle id="Oval" fill="#06806B" cx="9" cy="35" r="9"></circle>
                    <path d="M43,0 L29,0 C28.5956041,0 28.2310659,0.2437275 28.076322,0.617345442 C27.9215781,0.990963384 28.0070921,1.42100575 28.293,1.707 L34.586,8 L20.293,22.293 C20.0330434,22.5440745 19.9287874,22.9158779 20.0203028,23.2655073 C20.1118183,23.6151368 20.3848632,23.8881817 20.7344927,23.9796972 C21.0841221,24.0712126 21.4559255,23.9669566 21.707,23.707 L36,9.414 L42.293,15.707 C42.5789943,15.9929079 43.0090366,16.0784219 43.3826546,15.923678 C43.7562725,15.7689341 44,15.4043959 44,15 L44,1 C44,0.44771525 43.5522847,0 43,0 Z" id="Path" fill="#848484"></path>
                </g>
            </g>
        </g>
    </g>
</svg>