<svg xmlns="http://www.w3.org/2000/svg" xmlns:xlink="http://www.w3.org/1999/xlink" width="72" height="72" viewBox="0 0 72 72">
    <defs>
        <circle id="a" cx="36" cy="36" r="36"/>
    </defs>
    <g fill="none" fill-rule="evenodd">
        <circle cx="36" cy="36" r="36" fill="#ACACAC"/>
        <mask id="b" fill="#fff">
            <use xlink:href="#a"/>
        </mask>
        <g fill="#FFF" fill-rule="nonzero" mask="url(#b)">
            <path d="M39 39h-6c-5.514 0-10 4.486-10 10v.65l.594.264C23.786 49.999 28.375 52 36 52c7.625 0 12.214-2.001 12.406-2.086L49 49.65V49c0-5.514-4.486-10-10-10zM36 37c4.579 0 8-4.751 8-9 0-4.411-3.589-8-8-8s-8 3.589-8 8c0 4.249 3.421 9 8 9z"/>
        </g>
    </g>
</svg>
