<?xml version="1.0" encoding="UTF-8"?>
<svg width="24px" height="24px" viewBox="0 0 24 24" version="1.1" xmlns="http://www.w3.org/2000/svg" xmlns:xlink="http://www.w3.org/1999/xlink">
    <!-- Generator: Sketch 46.2 (44496) - http://www.bohemiancoding.com/sketch -->
    <title>Group 15</title>
    <desc>Created with Sketch.</desc>
    <defs>
        <path d="M17.2230411,14.420255 C18.1370164,12.9879393 18.6666667,11.2865921 18.6666667,9.46153846 C18.6666667,4.36352539 14.5339105,0.230769231 9.43589744,0.230769231 C4.33788436,0.230769231 0.205128205,4.36352539 0.205128205,9.46153846 C0.205128205,14.5595515 4.33788436,18.6923077 9.43589744,18.6923077 C11.2609511,18.6923077 12.9622983,18.1626575 14.394614,17.2486821 L20.3550172,23.2090854 C21.1360658,23.9901339 22.4023957,23.9901339 23.1834443,23.2090854 C23.9644929,22.4280368 23.9644929,21.1617068 23.1834443,20.3806582 L17.2230411,14.420255 Z" id="path-1"></path>
        <filter x="-4.2%" y="-4.2%" width="108.5%" height="108.5%" filterUnits="objectBoundingBox" id="filter-2">
            <feGaussianBlur stdDeviation="0.5" in="SourceAlpha" result="shadowBlurInner1"></feGaussianBlur>
            <feOffset dx="0" dy="1" in="shadowBlurInner1" result="shadowOffsetInner1"></feOffset>
            <feComposite in="shadowOffsetInner1" in2="SourceAlpha" operator="arithmetic" k2="-1" k3="1" result="shadowInnerInner1"></feComposite>
            <feColorMatrix values="0 0 0 0 0.671290391   0 0 0 0 0.671290391   0 0 0 0 0.671290391  0 0 0 1 0" type="matrix" in="shadowInnerInner1"></feColorMatrix>
        </filter>
    </defs>
    <g id="09-Teacher-Dashboard:-Student-Reports" stroke="none" stroke-width="1" fill="none" fill-rule="evenodd">
        <g id="09_14-Visual-Overview-Updated" transform="translate(-214.000000, -354.000000)">
            <g id="Group-10" transform="translate(214.000000, 354.000000)">
                <g id="Group-Copy">
                    <g id="Group-15">
                        <g id="Combined-Shape">
                            <use fill="#C0C0C0" fill-rule="evenodd" xlink:href="#path-1"></use>
                            <use fill="black" fill-opacity="1" filter="url(#filter-2)" xlink:href="#path-1"></use>
                        </g>
                        <circle id="Oval" fill="#F7F2F2" cx="9.5" cy="9.5" r="4.5"></circle>
                    </g>
                </g>
            </g>
        </g>
    </g>
</svg>