<?xml version="1.0" encoding="utf-8"?>
<!-- Generator: Adobe Illustrator 21.0.2, SVG Export Plug-In . SVG Version: 6.00 Build 0)  -->
<svg version="1.1" id="Layer_1" xmlns="http://www.w3.org/2000/svg" xmlns:xlink="http://www.w3.org/1999/xlink" x="0px" y="0px"
	 viewBox="0 0 36 36" style="enable-background:new 0 0 36 36;" xml:space="preserve">
<style type="text/css">
	.st0{fill:none;stroke:#027360;}
	.st1{fill:#027360;}
	.st2{fill:none;}
</style>
<title>Group 19</title>
<desc>Created with Sketch.</desc>
<path id="Rectangle-13-Copy-20" class="st0" d="M3.5,0.5h29c1.7,0,3,1.3,3,3v29c0,1.7-1.3,3-3,3h-29c-1.7,0-3-1.3-3-3v-29
	C0.5,1.8,1.8,0.5,3.5,0.5z"/>
<path class="st1" d="M29.3,26.6l-5.7-5.7l0,0l0,0c1.5-2.2,1.9-5,1.2-7.7C24,9.5,20.8,6.6,17,6.1C10.6,5.2,5.2,10.6,6.1,17
	c0.5,3.8,3.3,7,7.1,8c2.7,0.7,5.4,0.2,7.7-1.2l5.7,5.7c0.4,0.4,0.9,0.6,1.4,0.6s1-0.2,1.4-0.6C30.1,28.6,30.1,27.3,29.3,26.6z
	 M14,21c-1.9-0.6-3.5-2.2-3.8-4.2c-0.8-4,2.7-7.4,6.7-6.6c2,0.4,3.7,1.9,4.2,3.9c0.5,1.6,0.2,3.3-0.7,4.7L20,19.2
	c-0.2,0.3-0.5,0.6-0.8,0.8l-0.5,0.3C17.3,21.2,15.6,21.5,14,21z"/>
<rect x="-542.5" y="-98.3" class="st2" width="1322" height="5184"/>
</svg>
