<?xml version="1.0" encoding="UTF-8"?>
<svg width="25px" height="25px" viewBox="0 0 25 25" version="1.1" xmlns="http://www.w3.org/2000/svg" xmlns:xlink="http://www.w3.org/1999/xlink">
    <!-- Generator: Sketch 47.1 (45422) - http://www.bohemiancoding.com/sketch -->
    <title>Group 15</title>
    <desc>Created with Sketch.</desc>
    <defs></defs>
    <g id="09-Teacher-Dashboard:-Student-Reports" stroke="none" stroke-width="1" fill="none" fill-rule="evenodd">
        <g id="09_14-Visual-Overview-Updated-Copy" transform="translate(-269.000000, -488.000000)" fill-rule="nonzero" fill="#AFAFAF">
            <g id="Group-11" transform="translate(206.000000, 481.000000)">
                <g id="Group-3" transform="translate(55.000000, 0.000000)">
                    <g id="Group-15" transform="translate(8.000000, 7.000000)">
                        <path d="M20.4210526,11.9473684 C20.1052632,11.9473684 19.7894737,11.8421053 19.3684211,11.7368421 L18.1052632,11.3157895 L17.0526316,12.3684211 C17.1578947,12.8947368 17.2631579,13.4210526 17.2631579,13.9473684 C17.2631579,17.4210526 14.4210526,20.2631579 10.9473684,20.2631579 C7.47368421,20.2631579 4.63157895,17.4210526 4.63157895,13.9473684 C4.63157895,10.4736842 7.47368421,7.63157895 10.9473684,7.63157895 C11.4736842,7.63157895 12.1052632,7.73684211 12.5263158,7.84210526 L13.5789474,6.78947368 L13.1578947,5.52631579 C13.0526316,5 13.0526316,4.36842105 13.1578947,3.73684211 C12.4210526,3.63157895 11.6842105,3.52631579 10.9473684,3.52631579 C5.15789474,3.52631579 0.421052632,8.26315789 0.421052632,14.0526316 C0.421052632,19.8421053 5.15789474,24.5789474 10.9473684,24.5789474 C16.7368421,24.5789474 21.4736842,19.8421053 21.4736842,14.0526316 C21.4736842,13.3157895 21.3684211,12.5789474 21.2631579,11.8421053 C20.9473684,11.9473684 20.7368421,11.9473684 20.4210526,11.9473684 Z" id="Shape"></path>
                        <path d="M24.6315789,5.46052632 C24.5263158,5.14473684 24.3157895,4.82894737 23.8947368,4.72368421 L22.3157895,4.19736842 L23.2631579,3.25 C23.6842105,2.82894737 23.6842105,2.19736842 23.2631579,1.77631579 C22.8421053,1.35526316 22.2105263,1.35526316 21.7894737,1.77631579 L20.8421053,2.72368421 L20.3157895,1.14473684 C20.2105263,0.828947368 19.8947368,0.513157895 19.5789474,0.407894737 C19.2631579,0.302631579 18.8421053,0.407894737 18.6315789,0.723684211 L15.4736842,3.88157895 C15.1578947,4.19736842 15.0526316,4.61842105 15.2631579,4.93421053 L16.1052632,7.46052632 L13.0526316,10.5131579 C12.4210526,10.0921053 11.6842105,9.88157895 10.9473684,9.88157895 C8.63157895,9.88157895 6.73684211,11.7763158 6.73684211,14.0921053 C6.73684211,16.4078947 8.63157895,18.3026316 10.9473684,18.3026316 C13.2631579,18.3026316 15.1578947,16.4078947 15.1578947,14.0921053 C15.1578947,13.3552632 14.9473684,12.6184211 14.5263158,11.9868421 L17.4736842,9.03947368 L20,9.88157895 C20.1052632,9.88157895 20.2105263,9.98684211 20.3157895,9.98684211 C20.6315789,9.98684211 20.8421053,9.88157895 21.0526316,9.67105263 L24.2105263,6.51315789 C24.6315789,6.19736842 24.7368421,5.77631579 24.6315789,5.46052632 Z" id="Shape"></path>
                    </g>
                </g>
            </g>
        </g>
    </g>
</svg>