<svg width="12" height="11" viewBox="0 0 12 11" fill="none" xmlns="http://www.w3.org/2000/svg">
<path d="M1.54883 0.847656C1.70117 0.847656 1.82617 0.896484 1.92383 0.994141C2.02539 1.08789 2.07617 1.21094 2.07617 1.36328C2.07617 1.46875 2.07227 1.57422 2.06445 1.67969C2.06055 1.78125 2.05859 1.90234 2.05859 2.04297C2.05859 2.76562 2.15039 3.35156 2.33398 3.80078C2.52148 4.25 2.82617 4.58008 3.24805 4.79102C3.67383 4.99805 4.24609 5.10156 4.96484 5.10156H9.00781L10.4492 5.18945L8.46875 3.37891L7.16797 2.05469C7.125 2.00781 7.08984 1.95313 7.0625 1.89062C7.03906 1.82422 7.02734 1.75586 7.02734 1.68555C7.02734 1.54102 7.07617 1.42188 7.17383 1.32812C7.27539 1.23047 7.39844 1.18164 7.54297 1.18164C7.68359 1.18164 7.81055 1.23438 7.92383 1.33984L11.8145 5.23047C11.9355 5.34375 11.9961 5.47461 11.9961 5.62305C11.9961 5.77148 11.9355 5.9043 11.8145 6.02148L7.93555 9.89453C7.81445 10.0117 7.68359 10.0703 7.54297 10.0703C7.39844 10.0703 7.27539 10.0234 7.17383 9.92969C7.07617 9.83203 7.02734 9.71094 7.02734 9.56641C7.02734 9.49609 7.03906 9.42773 7.0625 9.36133C7.08594 9.29492 7.12109 9.23828 7.16797 9.19141L8.46875 7.86719L10.4434 6.06836L9.00781 6.15039H4.91211C3.52148 6.15039 2.52148 5.83008 1.91211 5.18945C1.30273 4.54492 0.998047 3.51367 0.998047 2.0957C0.998047 1.92383 1.00195 1.76758 1.00977 1.62695C1.01758 1.48633 1.03125 1.37109 1.05078 1.28125C1.06641 1.20313 1.09375 1.13086 1.13281 1.06445C1.17188 0.998047 1.22461 0.945313 1.29102 0.90625C1.36133 0.867187 1.44727 0.847656 1.54883 0.847656Z" fill="#404040"/>
</svg>
