<svg width="9" height="8" viewBox="0 0 9 8" fill="none" xmlns="http://www.w3.org/2000/svg">
<path d="M0.728516 7.86133C0.549479 7.86133 0.40625 7.79785 0.298828 7.6709C0.194661 7.54395 0.142578 7.37467 0.142578 7.16309L0.137695 0.795898C0.137695 0.58431 0.189779 0.415039 0.293945 0.288086C0.401367 0.161133 0.544596 0.0976562 0.723633 0.0976562C0.821289 0.0976562 0.912435 0.117188 0.99707 0.15625C1.08496 0.192057 1.18099 0.234375 1.28516 0.283203L7.55957 3.33008C7.7679 3.43099 7.91113 3.5319 7.98926 3.63281C8.06738 3.73372 8.10645 3.84928 8.10645 3.97949C8.10645 4.1097 8.06738 4.22526 7.98926 4.32617C7.91113 4.42708 7.7679 4.52962 7.55957 4.63379L1.28516 7.67578C1.18424 7.72786 1.08984 7.77181 1.00195 7.80762C0.917318 7.84342 0.826172 7.86133 0.728516 7.86133Z" fill="#5C5C5C"/>
</svg>
