<svg width="65" height="64" viewBox="0 0 65 64" fill="none" xmlns="http://www.w3.org/2000/svg">
<path opacity="0.7" d="M38.7062 33.5239H26.5158C25.6742 33.5239 24.9919 34.2062 24.9919 35.0477V62.4763C24.9919 63.3178 25.6742 64.0001 26.5158 64.0001H38.7062C39.5478 64.0001 40.23 63.3178 40.23 62.4763V35.0477C40.23 34.2062 39.5478 33.5239 38.7062 33.5239Z" fill="#06806B"/>
<path opacity="0.4" d="M14.3252 45.7144H2.13477C1.29325 45.7144 0.610962 46.3966 0.610962 47.2382V62.4763C0.610962 63.3178 1.29325 64.0001 2.13477 64.0001H14.3252C15.1668 64.0001 15.8491 63.3178 15.8491 62.4763V47.2382C15.8491 46.3966 15.1668 45.7144 14.3252 45.7144Z" fill="#06806B"/>
<path d="M63.0871 21.3333H50.8967C50.0551 21.3333 49.3729 22.0155 49.3729 22.8571V62.4761C49.3729 63.3176 50.0551 63.9999 50.8967 63.9999H63.0871C63.9287 63.9999 64.611 63.3176 64.611 62.4761V22.8571C64.611 22.0155 63.9287 21.3333 63.0871 21.3333Z" fill="#06806B"/>
<path d="M33.6881 23.9345L52.4202 5.20238V13.7143C52.4202 14.5558 53.1025 15.2381 53.944 15.2381C54.7855 15.2381 55.4678 14.5558 55.4678 13.7143V1.52381C55.4678 1.32533 55.4273 1.12779 55.3502 0.941501C55.1957 0.569006 54.8988 0.272137 54.5263 0.117653C54.34 0.0405486 54.1425 0 53.944 0H41.7535C40.912 0 40.2297 0.682286 40.2297 1.52381C40.2297 2.36533 40.912 3.04762 41.7535 3.04762H50.2654L32.6107 20.7024L24.5452 12.6369C23.95 12.0417 22.9857 12.0417 22.3904 12.6369L10.2 24.8274C9.60473 25.4226 9.60473 26.3869 10.2 26.9821C10.4976 27.2798 10.8875 27.4286 11.2773 27.4286C11.6672 27.4286 12.0571 27.2798 12.3547 26.9821L23.4678 15.869L31.5333 23.9345C32.1285 24.5298 33.0928 24.5298 33.6881 23.9345Z" fill="#06806B"/>
</svg>
