<svg width="64" height="64" xmlns="http://www.w3.org/2000/svg">
    <g fill-rule="nonzero" fill="none">
        <path d="M38.095 33.524h-12.19c-.842 0-1.524.682-1.524 1.524v27.428c0 .842.682 1.524 1.524 1.524h12.19c.842 0 1.524-.682 1.524-1.524V35.048c0-.842-.682-1.524-1.524-1.524z" fill="#95C966"/>
        <path d="M13.714 45.714H1.524c-.842 0-1.524.683-1.524 1.524v15.238C0 63.318.682 64 1.524 64h12.19c.842 0 1.524-.682 1.524-1.524V47.238c0-.841-.682-1.524-1.524-1.524z" fill="#B8DB99"/>
        <path d="M62.476 21.333h-12.19c-.842 0-1.524.683-1.524 1.524v39.62c0 .84.682 1.523 1.524 1.523h12.19c.842 0 1.524-.682 1.524-1.524V22.857c0-.841-.682-1.524-1.524-1.524z" fill="#4EA500"/>
        <path d="M33.077 23.935 51.81 5.202v8.512a1.524 1.524 0 0 0 3.047 0V1.524A1.525 1.525 0 0 0 53.333 0h-12.19a1.524 1.524 0 0 0 0 3.048h8.512L32 20.702l-8.065-8.065a1.523 1.523 0 0 0-2.155 0L9.59 24.827a1.523 1.523 0 1 0 2.154 2.155L22.857 15.87l8.066 8.066c.595.595 1.56.595 2.154 0z" fill="#B3B3B3"/>
    </g>
</svg>
