<svg width="11" height="12" viewBox="0 0 11 12" fill="none" xmlns="http://www.w3.org/2000/svg">
<path d="M5.15625 11.1562C4.44987 11.1562 3.78581 11.0212 3.16406 10.751C2.54232 10.484 1.99382 10.113 1.51855 9.6377C1.04329 9.16569 0.670573 8.61881 0.400391 7.99707C0.133464 7.37533 0 6.70964 0 6C0 5.29362 0.133464 4.62956 0.400391 4.00781C0.670573 3.38607 1.04167 2.83757 1.51367 2.3623C1.98893 1.88704 2.53743 1.51595 3.15918 1.24902C3.78418 0.978841 4.44987 0.84375 5.15625 0.84375C5.86263 0.84375 6.52669 0.978841 7.14844 1.24902C7.77344 1.51595 8.32194 1.88704 8.79395 2.3623C9.26921 2.83757 9.64193 3.38607 9.91211 4.00781C10.1823 4.62956 10.3174 5.29362 10.3174 6C10.3174 6.70964 10.1823 7.37533 9.91211 7.99707C9.64193 8.61881 9.26921 9.16569 8.79395 9.6377C8.32194 10.113 7.77506 10.484 7.15332 10.751C6.53158 11.0212 5.86589 11.1562 5.15625 11.1562ZM4.61914 8.44629C4.72656 8.44629 4.82422 8.42188 4.91211 8.37305C5.00326 8.32096 5.08138 8.24772 5.14648 8.15332L7.41699 4.68652C7.45605 4.62467 7.48698 4.5612 7.50977 4.49609C7.53581 4.43099 7.54883 4.36751 7.54883 4.30566C7.54883 4.15592 7.49186 4.03223 7.37793 3.93457C7.26725 3.83691 7.13867 3.78809 6.99219 3.78809C6.80013 3.78809 6.639 3.89225 6.50879 4.10059L4.60938 7.12305L3.75488 6.07812C3.68978 5.99674 3.62142 5.93815 3.5498 5.90234C3.48145 5.86654 3.40169 5.84863 3.31055 5.84863C3.16406 5.84863 3.03711 5.90234 2.92969 6.00977C2.82227 6.11393 2.76855 6.24089 2.76855 6.39062C2.76855 6.46224 2.78158 6.5306 2.80762 6.5957C2.83366 6.66081 2.87435 6.72754 2.92969 6.7959L4.07227 8.16309C4.15039 8.25749 4.2334 8.3291 4.32129 8.37793C4.40918 8.4235 4.50846 8.44629 4.61914 8.44629Z" fill="#2A5900"/>
</svg>
