<svg width="96" height="96" viewBox="0 0 96 96" xmlns="http://www.w3.org/2000/svg">
    <g fill="none" fill-rule="evenodd">
        <path d="M0 0h96v96H0z"/>
        <g transform="translate(2 2)" fill-rule="nonzero">
            <path d="m90.053 16.6-56.598-3.904L29.273 0H14.636a2.09 2.09 0 0 0-2.09 2.09v10.455l-10.85 2.091A2.09 2.09 0 0 0 0 16.683v8.408a2.09 2.09 0 0 0 2.09 2.09h12.546v58.546H4.182a2.09 2.09 0 0 0-2.091 2.091v2.091A2.09 2.09 0 0 0 4.18 92H43.91A2.09 2.09 0 0 0 46 89.91v-2.092a2.09 2.09 0 0 0-2.09-2.09H33.454V27.181h56.454A2.09 2.09 0 0 0 92 25.09v-6.407a2.09 2.09 0 0 0-1.947-2.084zM18.818 27.182h10.455v3.222l-10.455 8.962V27.182zm10.455 8.725v16.004l-9.334-8.002 9.334-8.002zM18.818 48.453l9.334 8.002-9.334 8.001V48.453zm10.455 12.545v16.004L19.939 69l9.334-8.002zm-10.455 24.73V73.543l10.455 8.961v3.222H18.818z" fill="#BBB"/>
            <path fill="#5B5B5B" d="M75.273 27.182h4.182v29.273h-4.182z"/>
            <path d="M30.379 16.727 26.247 4.182h-7.429v10.454a2.09 2.09 0 0 0 2.091 2.091h9.47z" fill="#5A7A84"/>
            <rect fill="#B3B3B3" x="64.818" y="56.455" width="25.091" height="14.636" rx="1"/>
        </g>
    </g>
</svg>
