<svg width="12" height="12" viewBox="0 0 12 12" fill="none" xmlns="http://www.w3.org/2000/svg">
<path d="M5.99976 11.9766C6.81616 11.9766 7.58374 11.8203 8.30249 11.5078C9.02515 11.1953 9.66187 10.7637 10.2126 10.2129C10.7634 9.66211 11.1951 9.02734 11.5076 8.30859C11.8201 7.58594 11.9763 6.81641 11.9763 6C11.9763 5.18359 11.8201 4.41602 11.5076 3.69727C11.1951 2.97461 10.7634 2.33789 10.2126 1.78711C9.66187 1.23633 9.02515 0.804688 8.30249 0.492188C7.57983 0.179688 6.8103 0.0234375 5.9939 0.0234375C5.17749 0.0234375 4.40796 0.179688 3.6853 0.492188C2.96655 0.804688 2.33179 1.23633 1.78101 1.78711C1.23413 2.33789 0.804443 2.97461 0.491943 3.69727C0.179443 4.41602 0.0231934 5.18359 0.0231934 6C0.0231934 6.81641 0.179443 7.58594 0.491943 8.30859C0.804443 9.02734 1.23608 9.66211 1.78687 10.2129C2.33765 10.7637 2.97241 11.1953 3.69116 11.5078C4.41382 11.8203 5.18335 11.9766 5.99976 11.9766ZM3.1814 6.87891C2.93921 6.87891 2.73022 6.79297 2.55444 6.62109C2.38257 6.44531 2.29663 6.23633 2.29663 5.99414C2.29663 5.75195 2.38257 5.54492 2.55444 5.37305C2.73022 5.19727 2.93921 5.10938 3.1814 5.10938C3.41968 5.10938 3.62476 5.19727 3.79663 5.37305C3.97241 5.54492 4.0603 5.75195 4.0603 5.99414C4.0603 6.23633 3.97437 6.44531 3.80249 6.62109C3.63062 6.79297 3.42358 6.87891 3.1814 6.87891ZM5.99976 6.87891C5.75757 6.87891 5.55054 6.79297 5.37866 6.62109C5.20679 6.44531 5.12085 6.23633 5.12085 5.99414C5.12085 5.75195 5.20679 5.54492 5.37866 5.37305C5.55054 5.19727 5.75757 5.10938 5.99976 5.10938C6.24585 5.10938 6.45483 5.19727 6.62671 5.37305C6.79858 5.54492 6.88452 5.75195 6.88452 5.99414C6.88452 6.23633 6.79858 6.44531 6.62671 6.62109C6.45483 6.79297 6.24585 6.87891 5.99976 6.87891ZM8.82397 6.87891C8.57788 6.87891 8.3689 6.79297 8.19702 6.62109C8.02515 6.44531 7.93921 6.23633 7.93921 5.99414C7.93921 5.75195 8.02515 5.54492 8.19702 5.37305C8.3689 5.19727 8.57788 5.10938 8.82397 5.10938C9.06226 5.10938 9.26733 5.19727 9.43921 5.37305C9.61499 5.54492 9.70288 5.75195 9.70288 5.99414C9.70288 6.23633 9.61499 6.44531 9.43921 6.62109C9.26733 6.79297 9.06226 6.87891 8.82397 6.87891Z" fill="#808080"/>
</svg>
