<svg width="9" height="10" viewBox="0 0 9 10" fill="none" xmlns="http://www.w3.org/2000/svg">
<path d="M0.211246 8.82739C0.116845 8.73299 0.0533683 8.62231 0.0208162 8.49536C-0.00848068 8.36515 -0.00685307 8.2382 0.025699 8.1145C0.0582511 7.98755 0.118472 7.88013 0.206363 7.79224L2.99445 4.99927L0.206363 2.21118C0.118472 2.12329 0.0582511 2.01587 0.025699 1.88892C-0.00359786 1.76196 -0.00359786 1.63501 0.025699 1.50806C0.0582511 1.3811 0.1201 1.27043 0.211246 1.17603C0.305647 1.07837 0.416324 1.01489 0.543277 0.985596C0.673485 0.956299 0.802066 0.956299 0.929019 0.985596C1.05597 1.01489 1.16502 1.07511 1.25617 1.16626L4.04425 3.94946L6.82746 1.16626C6.9186 1.07511 7.02765 1.01489 7.15461 0.985596C7.28156 0.953044 7.40688 0.953044 7.53058 0.985596C7.65754 1.01815 7.76984 1.08162 7.8675 1.17603C7.9619 1.27043 8.02537 1.3811 8.05793 1.50806C8.09048 1.63501 8.09048 1.76196 8.05793 1.88892C8.02863 2.01261 7.96841 2.12166 7.87726 2.21606L5.09406 4.99927L7.87726 7.78735C7.96841 7.8785 8.02863 7.98755 8.05793 8.1145C8.08722 8.24146 8.08559 8.36841 8.05304 8.49536C8.02375 8.62231 7.9619 8.73299 7.8675 8.82739C7.7731 8.92179 7.66242 8.98364 7.53546 9.01294C7.40851 9.04549 7.28156 9.04712 7.15461 9.01782C7.02765 8.98853 6.9186 8.92668 6.82746 8.83228L4.04425 6.04907L1.25617 8.83716C1.16502 8.92505 1.05597 8.98364 0.929019 9.01294C0.805321 9.04549 0.678368 9.04549 0.54816 9.01294C0.421207 8.98364 0.308902 8.92179 0.211246 8.82739Z" fill="#9F6405"/>
</svg>
