<svg width="12" height="12" viewBox="0 0 12 12" xmlns="http://www.w3.org/2000/svg">
    <g fill="none" fill-rule="evenodd">
        <path d="M0 0h12v12H0z"/>
        <path d="M11.114 9a.9.9 0 0 0-.329-1.229l-2.617-1.51a.301.301 0 0 1 0-.521l2.617-1.511a.9.9 0 0 0-.9-1.56L7.268 4.182a.3.3 0 0 1-.45-.26V.9a.9.9 0 1 0-1.8 0v3.022a.3.3 0 0 1-.45.26l-2.617-1.51a.9.9 0 0 0-.9 1.56L3.668 5.74a.301.301 0 0 1 0 .52L1.051 7.771a.9.9 0 1 0 .9 1.56l2.617-1.513a.3.3 0 0 1 .45.26V11.1a.9.9 0 1 0 1.8 0V8.078a.3.3 0 0 1 .45-.26l2.617 1.51A.899.899 0 0 0 11.114 9z" fill="#51BCAB" fill-rule="nonzero"/>
    </g>
</svg>
