<svg width="17" height="17" viewBox="0 0 17 17" fill="none" xmlns="http://www.w3.org/2000/svg">
<g opacity="0.8">
<path fill-rule="evenodd" clip-rule="evenodd" d="M3.52948 11.8315C3.32332 11.2596 3.21096 10.6429 3.21096 10C3.21096 7.26935 5.23778 5.01209 7.86908 4.65054L8.7507 3.00137C8.70423 3.00046 8.65765 3 8.61096 3C4.74497 3 1.61096 6.13401 1.61096 10C1.61096 10.6337 1.69517 11.2477 1.853 11.8315H3.52948ZM4.15098 13.0453H2.30633C3.43894 15.3858 5.83645 17 8.61096 17C12.477 17 15.611 13.866 15.611 10C15.611 8.64474 15.2258 7.37944 14.559 6.30757L13.6557 8.0696C13.8852 8.66904 14.011 9.31984 14.011 10C14.011 12.9823 11.5933 15.4 8.61096 15.4C6.75834 15.4 5.12361 14.4671 4.15098 13.0453Z" fill="#06806B"/>
<path fill-rule="evenodd" clip-rule="evenodd" d="M12.9853 2.09981C12.3374 1.7697 11.5446 2.0273 11.2145 2.67518L10.4839 4.10896L10.841 5.20808L11.7365 3.45068C11.8617 3.20494 12.1624 3.10723 12.4082 3.23244C12.6539 3.35765 12.7516 3.65838 12.6264 3.90412L11.731 5.66148L12.8301 5.30436L13.5606 3.87061C13.8907 3.22273 13.6331 2.42992 12.9853 2.09981ZM8.83508 7.345L9.84266 5.3675L10.1998 6.46662L9.1922 8.44412L8.83508 7.345ZM10.0821 8.89755L11.0897 6.92003L12.1888 6.5629L11.1812 8.54043L10.0821 8.89755ZM7.75733 7.26018L8.55094 9.70266L8.21103 10.3698L7.12864 10.4967C6.90124 10.5234 6.72929 10.7152 6.72755 10.9442L6.71157 13.0495H3.78623C3.49837 13.0495 3.26501 13.2829 3.26501 13.5708C3.26501 13.8586 3.49837 14.092 3.78623 14.092H7.10306C7.18094 14.092 7.25483 14.0749 7.32119 14.0443C7.35886 14.0299 7.39572 14.0099 7.43088 13.9839L9.57989 12.3975C9.7641 12.2615 9.81822 12.0097 9.70614 11.81L9.1253 10.7754L9.44086 10.1561L11.8833 9.36249L14.4506 4.32405C15.0311 3.18468 14.5781 1.79042 13.4387 1.20988C12.2993 0.629348 10.9051 1.08237 10.3245 2.22174L7.75733 7.26018ZM7.7143 12.5333L7.72266 11.4327L8.31019 11.3638L8.59978 11.8796L7.7143 12.5333Z" fill="#06806B"/>
</g>
</svg>
