<svg width="96" height="96" viewBox="0 0 96 96" xmlns="http://www.w3.org/2000/svg">
    <g fill="none" fill-rule="evenodd">
        <path d="M0 0h96v96H0z"/>
        <g fill-rule="nonzero">
            <path d="M79.126 16.901A43.72 43.72 0 0 0 48.019 4h-.02C23.706 4 4.01 23.688 4 47.982a3.667 3.667 0 1 0 7.333 0C11.343 27.738 27.756 11.333 48 11.333h.018c20.25.005 36.662 16.425 36.657 36.675C84.67 68.258 68.25 84.671 48 84.667h-.016a36.74 36.74 0 0 1-19.69-5.81l5.966-5.06a1.833 1.833 0 0 0-.693-3.166l-20.874-5.814a1.833 1.833 0 0 0-2.311 1.995l2.673 21.256a1.833 1.833 0 0 0 3.004 1.17l6.395-5.426A44.159 44.159 0 0 0 47.978 92h.02a44 44 0 0 0 31.128-75.099z" fill="#AEAEAE"/>
            <path d="M74.25 51.083a2.75 2.75 0 1 0 0-5.5l-23.04-.794-.793-23.039a2.75 2.75 0 0 0-5.5 0L44 48.333A3.667 3.667 0 0 0 47.667 52l26.583-.917z" fill="#363636"/>
        </g>
    </g>
</svg>
