<svg xmlns="http://www.w3.org/2000/svg" xmlns:xlink="http://www.w3.org/1999/xlink" xmlns:lucid="lucid" width="790" height="580"><g transform="translate(-460 -180)" lucid:page-tab-id="0_0"><path d="M0 0h1760v1360H0z" fill="#fff"/><path d="M480 254.4h160v116.54H480z" stroke="#000" stroke-width="2" fill="#fff"/><use xlink:href="#a" transform="matrix(1,0,0,1,480,254.3884892086331) translate(60.025 51.3)"/><use xlink:href="#b" transform="matrix(1,0,0,1,480,254.3884892086331) translate(20.14999999999999 72.9)"/><path d="M1070 297.12h160v116.55h-160z" stroke="#000" stroke-width="2" fill="#fff"/><use xlink:href="#c" transform="matrix(1,0,0,1,1070,297.12230215827344) translate(50.074999999999996 51.3)"/><use xlink:href="#d" transform="matrix(1,0,0,1,1070,297.12230215827344) translate(25.14999999999999 72.9)"/><path d="M608 526.33c17.67 0 32 17.4 32 38.85 0 21.46-14.33 38.85-32 38.85h-96c-17.67 0-32-17.4-32-38.85 0-21.46 14.33-38.85 32-38.85z" stroke="#000" stroke-width="2" fill="#fff"/><use xlink:href="#e" transform="matrix(1,0,0,1,480,526.3309352517986) translate(60.025 42.6)"/><path d="M1198 526.33c17.67 0 32 17.4 32 38.85 0 21.46-14.33 38.85-32 38.85h-96c-17.67 0-32-17.4-32-38.85 0-21.46 14.33-38.85 32-38.85z" stroke="#000" stroke-width="2" fill="#fff"/><use xlink:href="#f" transform="matrix(1,0,0,1,1070,526.3309352517986) translate(50.074999999999996 42.6)"/><path d="M740 506.9h160v116.55H740z" stroke="#000" stroke-width="2" fill="#fff"/><use xlink:href="#g" transform="matrix(1,0,0,1,740,506.9064748201439) translate(17.599999999999994 62.1)"/><use xlink:href="#h" transform="matrix(1,0,0,1,740,506.9064748201439) translate(92.45 62.1)"/><path d="M1150 413.67v112.66" stroke="#000" stroke-width="2" fill="none"/><path/><path/><path d="M1150 297.12v-58.27H920" stroke="#000" stroke-width="2" fill="none"/><path/><path d="M920 239.85h-.06l.06-1v-1z"/><path d="M920 238.85h40-60" stroke="#000" stroke-width="2" fill="none"/><path d="M920 239.85h-.06l.06-1v-1z"/><path d="M560 254.4v-15.55h200" stroke="#000" stroke-width="2" fill="none"/><path/><path d="M760 238.85v1-2h.06z"/><path d="M760 238.85h-20" stroke="#000" stroke-width="2" fill="none"/><path d="M760 238.85v1-2h.06z"/><path d="M560 370.94v154.42" stroke="#000" stroke-width="2" fill="none"/><path/><path d="M561 526.33h-2v-.97h2z"/><path d="M768 312.66h204l68 58.28-68 58.27H768l-68-58.26z" stroke="#000" stroke-width="2" fill="#e5e5e5"/><use xlink:href="#i" transform="matrix(1,0,0,1,700,312.6618705035971) translate(110.175 29.69999999999999)"/><use xlink:href="#j" transform="matrix(1,0,0,1,700,312.6618705035971) translate(157.025 29.69999999999999)"/><use xlink:href="#k" transform="matrix(1,0,0,1,700,312.6618705035971) translate(41.099999999999994 51.29999999999999)"/><use xlink:href="#l" transform="matrix(1,0,0,1,700,312.6618705035971) translate(69.05 51.29999999999999)"/><use xlink:href="#m" transform="matrix(1,0,0,1,700,312.6618705035971) translate(121.05 51.29999999999999)"/><use xlink:href="#n" transform="matrix(1,0,0,1,700,312.6618705035971) translate(187 51.29999999999999)"/><use xlink:href="#o" transform="matrix(1,0,0,1,700,312.6618705035971) translate(235.95000000000002 51.29999999999999)"/><use xlink:href="#p" transform="matrix(1,0,0,1,700,312.6618705035971) translate(255.95000000000002 51.29999999999999)"/><use xlink:href="#q" transform="matrix(1,0,0,1,700,312.6618705035971) translate(289.95000000000005 51.29999999999999)"/><use xlink:href="#r" transform="matrix(1,0,0,1,700,312.6618705035971) translate(36.099999999999994 72.89999999999999)"/><use xlink:href="#n" transform="matrix(1,0,0,1,700,312.6618705035971) translate(66.1 72.89999999999999)"/><use xlink:href="#s" transform="matrix(1,0,0,1,700,312.6618705035971) translate(115.05 72.89999999999999)"/><use xlink:href="#t" transform="matrix(1,0,0,1,700,312.6618705035971) translate(134 72.89999999999999)"/><use xlink:href="#u" transform="matrix(1,0,0,1,700,312.6618705035971) translate(169 72.89999999999999)"/><use xlink:href="#v" transform="matrix(1,0,0,1,700,312.6618705035971) translate(225.95000000000002 72.89999999999999)"/><use xlink:href="#w" transform="matrix(1,0,0,1,700,312.6618705035971) translate(283.9 72.89999999999999)"/><use xlink:href="#x" transform="matrix(1,0,0,1,700,312.6618705035971) translate(71.6 94.5)"/><use xlink:href="#y" transform="matrix(1,0,0,1,700,312.6618705035971) translate(137.55 94.5)"/><use xlink:href="#z" transform="matrix(1,0,0,1,700,312.6618705035971) translate(167.55 94.5)"/><path d="M1070 355.4h-15v15.54h-15" fill="none"/><path d="M1071.5 355.4c0 .82-.67 1.5-1.5 1.5s-1.5-.68-1.5-1.5c0-.83.67-1.5 1.5-1.5s1.5.67 1.5 1.5zm-5.7 0c0 .82-.66 1.5-1.5 1.5-.82 0-1.5-.68-1.5-1.5 0-.83.68-1.5 1.5-1.5.84 0 1.5.67 1.5 1.5zm-5.68 0c0 .82-.68 1.5-1.5 1.5-.83 0-1.5-.68-1.5-1.5 0-.83.67-1.5 1.5-1.5.82 0 1.5.67 1.5 1.5zm-3.62 2.07c0 .83-.67 1.5-1.5 1.5s-1.5-.67-1.5-1.5.67-1.5 1.5-1.5 1.5.67 1.5 1.5zm0 5.7c0 .82-.67 1.5-1.5 1.5s-1.5-.68-1.5-1.5c0-.83.67-1.5 1.5-1.5s1.5.67 1.5 1.5zm0 5.7c0 .82-.67 1.5-1.5 1.5s-1.5-.68-1.5-1.5c0-.84.67-1.5 1.5-1.5s1.5.66 1.5 1.5zm-3.62 2.07c0 .82-.67 1.5-1.5 1.5-.82 0-1.5-.68-1.5-1.5 0-.83.68-1.5 1.5-1.5.83 0 1.5.67 1.5 1.5zm-5.7 0c0 .82-.66 1.5-1.5 1.5-.82 0-1.5-.68-1.5-1.5 0-.83.68-1.5 1.5-1.5.84 0 1.5.67 1.5 1.5z"/><path/><path d="M1040 372.44h-1.75l1.75-1.5-1.75-1.5h1.75z"/><path d="M770 642.2v-8.88h50v-8.9" fill="none"/><path d="M771.5 642.2c0 .84-.67 1.5-1.5 1.5s-1.5-.66-1.5-1.5c0-.82.67-1.5 1.5-1.5s1.5.68 1.5 1.5zm0-6.16c0 .83-.67 1.5-1.5 1.5s-1.5-.67-1.5-1.5c0-.82.67-1.5 1.5-1.5s1.5.68 1.5 1.5zm3.43-2.72c0 .82-.67 1.5-1.5 1.5s-1.5-.68-1.5-1.5c0-.83.67-1.5 1.5-1.5s1.5.67 1.5 1.5zm6.16 0c0 .82-.68 1.5-1.5 1.5-.83 0-1.5-.68-1.5-1.5 0-.83.67-1.5 1.5-1.5.82 0 1.5.67 1.5 1.5zm6.16 0c0 .82-.67 1.5-1.5 1.5s-1.5-.68-1.5-1.5c0-.83.67-1.5 1.5-1.5s1.5.67 1.5 1.5zm6.16 0c0 .82-.67 1.5-1.5 1.5s-1.5-.68-1.5-1.5c0-.83.67-1.5 1.5-1.5s1.5.67 1.5 1.5zm6.16 0c0 .82-.67 1.5-1.5 1.5s-1.5-.68-1.5-1.5c0-.83.67-1.5 1.5-1.5s1.5.67 1.5 1.5zm6.16 0c0 .82-.67 1.5-1.5 1.5s-1.5-.68-1.5-1.5c0-.83.67-1.5 1.5-1.5s1.5.67 1.5 1.5zm6.17 0c0 .82-.67 1.5-1.5 1.5-.82 0-1.5-.68-1.5-1.5 0-.83.68-1.5 1.5-1.5.83 0 1.5.67 1.5 1.5zm6.17 0c0 .82-.67 1.5-1.5 1.5s-1.5-.68-1.5-1.5c0-.83.67-1.5 1.5-1.5s1.5.67 1.5 1.5zm3.43-2.73c0 .8-.67 1.5-1.5 1.5s-1.5-.7-1.5-1.5c0-.84.67-1.5 1.5-1.5s1.5.66 1.5 1.5z"/><path d="M770.98 642.88h-3.26l1.04-1.52zM821.24 625.27l-2.48-1.7.1-.12h3.63z"/><path d="M656 642.88h228l76 48.56L884 740H656l-76-48.56z" stroke="#000" stroke-width="2" fill="#e5e5e5"/><g><use xlink:href="#A" transform="matrix(1,0,0,1,580,642.8776978417267) translate(135.1 20.19999999999999)"/><use xlink:href="#B" transform="matrix(1,0,0,1,580,642.8776978417267) translate(196.95 20.19999999999999)"/><use xlink:href="#k" transform="matrix(1,0,0,1,580,642.8776978417267) translate(46.625 41.79999999999999)"/><use xlink:href="#l" transform="matrix(1,0,0,1,580,642.8776978417267) translate(74.575 41.79999999999999)"/><use xlink:href="#u" transform="matrix(1,0,0,1,580,642.8776978417267) translate(126.575 41.79999999999999)"/><use xlink:href="#C" transform="matrix(1,0,0,1,580,642.8776978417267) translate(183.525 41.79999999999999)"/><use xlink:href="#o" transform="matrix(1,0,0,1,580,642.8776978417267) translate(284.375 41.79999999999999)"/><use xlink:href="#D" transform="matrix(1,0,0,1,580,642.8776978417267) translate(304.375 41.79999999999999)"/><use xlink:href="#E" transform="matrix(1,0,0,1,580,642.8776978417267) translate(21.125 63.39999999999999)"/><use xlink:href="#y" transform="matrix(1,0,0,1,580,642.8776978417267) translate(35.075 63.39999999999999)"/><use xlink:href="#m" transform="matrix(1,0,0,1,580,642.8776978417267) translate(65.075 63.39999999999999)"/><use xlink:href="#n" transform="matrix(1,0,0,1,580,642.8776978417267) translate(131.025 63.39999999999999)"/><use xlink:href="#v" transform="matrix(1,0,0,1,580,642.8776978417267) translate(179.97500000000002 63.39999999999999)"/><use xlink:href="#F" transform="matrix(1,0,0,1,580,642.8776978417267) translate(237.925 63.39999999999999)"/><use xlink:href="#G" transform="matrix(1,0,0,1,580,642.8776978417267) translate(262.925 63.39999999999999)"/><use xlink:href="#H" transform="matrix(1,0,0,1,580,642.8776978417267) translate(343.875 63.39999999999999)"/><use xlink:href="#I" transform="matrix(1,0,0,1,580,642.8776978417267) translate(155.1 85)"/></g><path d="M900 565.18h170" stroke="#000" stroke-width="2" fill="none"/><path/><path d="M1070 565.18v1-2h.06z"/><path d="M740 565.18H640" stroke="#000" stroke-width="2" fill="none"/><path/><path d="M640 566.18h-.06l.06-1v-1z"/><path d="M888 200c17.67 0 32 17.4 32 38.85 0 21.45-14.33 38.85-32 38.85h-96c-17.67 0-32-17.4-32-38.85 0-21.46 14.33-38.85 32-38.85z" stroke="#000" stroke-width="2" fill="#fff"/><g><use xlink:href="#J" transform="matrix(1,0,0,1,760,200) translate(22.64999999999999 21)"/><use xlink:href="#K" transform="matrix(1,0,0,1,760,200) translate(18.549999999999997 42.6)"/><use xlink:href="#L" transform="matrix(1,0,0,1,760,200) translate(66.5 42.6)"/><use xlink:href="#M" transform="matrix(1,0,0,1,760,200) translate(7.074999999999989 64.2)"/><use xlink:href="#N" transform="matrix(1,0,0,1,760,200) translate(57.07499999999999 64.2)"/></g><defs><path d="M238-95c0 69-44 99-111 99C63 4 22-25 22-93v-155h51v151c-1 38 19 59 55 60 90 1 49-130 58-211h52v153" id="O"/><path d="M137-138c1-29-70-34-71-4 15 46 118 7 119 86 1 83-164 76-172 9l43-7c4 19 20 25 44 25 33 8 57-30 24-41C81-84 22-81 20-136c-2-80 154-74 161-7" id="P"/><path d="M185-48c-13 30-37 53-82 52C43 2 14-33 14-96s30-98 90-98c62 0 83 45 84 108H66c0 31 8 55 39 56 18 0 30-7 34-22zm-45-69c5-46-57-63-70-21-2 6-4 13-4 21h74" id="Q"/><path d="M135-150c-39-12-60 13-60 57V0H25l-1-190h47c2 13-1 29 3 40 6-28 27-53 61-41v41" id="R"/><g id="a"><use transform="matrix(0.05,0,0,0.05,0,0)" xlink:href="#O"/><use transform="matrix(0.05,0,0,0.05,12.950000000000001,0)" xlink:href="#P"/><use transform="matrix(0.05,0,0,0.05,22.950000000000003,0)" xlink:href="#Q"/><use transform="matrix(0.05,0,0,0.05,32.95,0)" xlink:href="#R"/></g><path d="M169-182c-1-43-94-46-97-3 18 66 151 10 154 114 3 95-165 93-204 36-6-8-10-19-12-30l50-8c3 46 112 56 116 5-17-69-150-10-154-114-4-87 153-88 188-35 5 8 8 18 10 28" id="S"/><path d="M85 4C-2 5 27-109 22-190h50c7 57-23 150 33 157 60-5 35-97 40-157h50l1 190h-47c-2-12 1-28-3-38-12 25-28 42-61 42" id="T"/><path d="M135-194c52 0 70 43 70 98 0 56-19 99-73 100-30 1-46-15-58-35L72 0H24l1-261h50v104c11-23 29-37 60-37zM114-30c31 0 40-27 40-66 0-37-7-63-39-63s-41 28-41 65c0 36 8 64 40 64" id="U"/><path d="M190-63c-7 42-38 67-86 67-59 0-84-38-90-98-12-110 154-137 174-36l-49 2c-2-19-15-32-35-32-30 0-35 28-38 64-6 74 65 87 74 30" id="V"/><path d="M25-224v-37h50v37H25zM25 0v-190h50V0H25" id="W"/><path d="M135-194c53 0 70 44 70 98 0 56-19 98-73 100-31 1-45-17-59-34 3 33 2 69 2 105H25l-1-265h48c2 10 0 23 3 31 11-24 29-35 60-35zM114-30c33 0 39-31 40-66 0-38-9-64-40-64-56 0-55 130 0 130" id="X"/><path d="M115-3C79 11 28 4 28-45v-112H4v-33h27l15-45h31v45h36v33H77v99c-1 23 16 31 38 25v30" id="Y"/><path d="M110-194c64 0 96 36 96 99 0 64-35 99-97 99-61 0-95-36-95-99 0-62 34-99 96-99zm-1 164c35 0 45-28 45-65 0-40-10-65-43-65-34 0-45 26-45 65 0 36 10 65 43 65" id="Z"/><path d="M135-194c87-1 58 113 63 194h-50c-7-57 23-157-34-157-59 0-34 97-39 157H25l-1-190h47c2 12-1 28 3 38 12-26 28-41 61-42" id="aa"/><g id="b"><use transform="matrix(0.05,0,0,0.05,0,0)" xlink:href="#S"/><use transform="matrix(0.05,0,0,0.05,12,0)" xlink:href="#T"/><use transform="matrix(0.05,0,0,0.05,22.950000000000003,0)" xlink:href="#U"/><use transform="matrix(0.05,0,0,0.05,33.900000000000006,0)" xlink:href="#P"/><use transform="matrix(0.05,0,0,0.05,43.900000000000006,0)" xlink:href="#V"/><use transform="matrix(0.05,0,0,0.05,53.900000000000006,0)" xlink:href="#R"/><use transform="matrix(0.05,0,0,0.05,60.900000000000006,0)" xlink:href="#W"/><use transform="matrix(0.05,0,0,0.05,65.9,0)" xlink:href="#X"/><use transform="matrix(0.05,0,0,0.05,76.85000000000001,0)" xlink:href="#Y"/><use transform="matrix(0.05,0,0,0.05,82.80000000000001,0)" xlink:href="#W"/><use transform="matrix(0.05,0,0,0.05,87.80000000000001,0)" xlink:href="#Z"/><use transform="matrix(0.05,0,0,0.05,98.75000000000001,0)" xlink:href="#aa"/><use transform="matrix(0.05,0,0,0.05,109.7,0)" xlink:href="#P"/></g><path d="M114-157C55-157 80-60 75 0H25v-261h50l-1 109c12-26 28-41 61-42 86-1 58 113 63 194h-50c-7-57 23-157-34-157" id="ab"/><path d="M25 0v-261h50V0H25" id="ac"/><g id="c"><use transform="matrix(0.05,0,0,0.05,0,0)" xlink:href="#S"/><use transform="matrix(0.05,0,0,0.05,12,0)" xlink:href="#V"/><use transform="matrix(0.05,0,0,0.05,22,0)" xlink:href="#ab"/><use transform="matrix(0.05,0,0,0.05,32.95,0)" xlink:href="#Z"/><use transform="matrix(0.05,0,0,0.05,43.900000000000006,0)" xlink:href="#Z"/><use transform="matrix(0.05,0,0,0.05,54.85,0)" xlink:href="#ac"/></g><g id="d"><use transform="matrix(0.05,0,0,0.05,0,0)" xlink:href="#S"/><use transform="matrix(0.05,0,0,0.05,12,0)" xlink:href="#T"/><use transform="matrix(0.05,0,0,0.05,22.950000000000003,0)" xlink:href="#U"/><use transform="matrix(0.05,0,0,0.05,33.900000000000006,0)" xlink:href="#P"/><use transform="matrix(0.05,0,0,0.05,43.900000000000006,0)" xlink:href="#V"/><use transform="matrix(0.05,0,0,0.05,53.900000000000006,0)" xlink:href="#R"/><use transform="matrix(0.05,0,0,0.05,60.900000000000006,0)" xlink:href="#W"/><use transform="matrix(0.05,0,0,0.05,65.9,0)" xlink:href="#X"/><use transform="matrix(0.05,0,0,0.05,76.85000000000001,0)" xlink:href="#Y"/><use transform="matrix(0.05,0,0,0.05,82.80000000000001,0)" xlink:href="#W"/><use transform="matrix(0.05,0,0,0.05,87.80000000000001,0)" xlink:href="#Z"/><use transform="matrix(0.05,0,0,0.05,98.75000000000001,0)" xlink:href="#aa"/></g><g id="e"><use transform="matrix(0.05,0,0,0.05,0,0)" xlink:href="#O"/><use transform="matrix(0.05,0,0,0.05,12.950000000000001,0)" xlink:href="#P"/><use transform="matrix(0.05,0,0,0.05,22.950000000000003,0)" xlink:href="#Q"/><use transform="matrix(0.05,0,0,0.05,32.95,0)" xlink:href="#R"/></g><g id="f"><use transform="matrix(0.05,0,0,0.05,0,0)" xlink:href="#S"/><use transform="matrix(0.05,0,0,0.05,12,0)" xlink:href="#V"/><use transform="matrix(0.05,0,0,0.05,22,0)" xlink:href="#ab"/><use transform="matrix(0.05,0,0,0.05,32.95,0)" xlink:href="#Z"/><use transform="matrix(0.05,0,0,0.05,43.900000000000006,0)" xlink:href="#Z"/><use transform="matrix(0.05,0,0,0.05,54.85,0)" xlink:href="#ac"/></g><g id="g"><use transform="matrix(0.05,0,0,0.05,0,0)" xlink:href="#S"/><use transform="matrix(0.05,0,0,0.05,12,0)" xlink:href="#V"/><use transform="matrix(0.05,0,0,0.05,22,0)" xlink:href="#ab"/><use transform="matrix(0.05,0,0,0.05,32.95,0)" xlink:href="#Z"/><use transform="matrix(0.05,0,0,0.05,43.900000000000006,0)" xlink:href="#Z"/><use transform="matrix(0.05,0,0,0.05,54.85,0)" xlink:href="#ac"/><use transform="matrix(0.05,0,0,0.05,59.85,0)" xlink:href="#P"/></g><g id="h"><use transform="matrix(0.05,0,0,0.05,0,0)" xlink:href="#O"/><use transform="matrix(0.05,0,0,0.05,12.950000000000001,0)" xlink:href="#P"/><use transform="matrix(0.05,0,0,0.05,22.950000000000003,0)" xlink:href="#Q"/><use transform="matrix(0.05,0,0,0.05,32.95,0)" xlink:href="#R"/><use transform="matrix(0.05,0,0,0.05,39.95,0)" xlink:href="#P"/></g><path d="M199 0l-22-63H83L61 0H9l90-248h61L250 0h-51zm-33-102l-36-108c-10 38-24 72-36 108h72" id="ad"/><path d="M121-226c-27-7-43 5-38 36h38v33H83V0H34v-157H6v-33h28c-9-59 32-81 87-68v32" id="ae"/><g id="i"><use transform="matrix(0.05,0,0,0.05,0,0)" xlink:href="#ad"/><use transform="matrix(0.05,0,0,0.05,12.950000000000001,0)" xlink:href="#ae"/><use transform="matrix(0.05,0,0,0.05,18.900000000000002,0)" xlink:href="#Y"/><use transform="matrix(0.05,0,0,0.05,24.85,0)" xlink:href="#Q"/><use transform="matrix(0.05,0,0,0.05,34.85,0)" xlink:href="#R"/></g><path d="M67-125c0 53 21 87 73 88 37 1 54-22 65-47l45 17C233-25 199 4 140 4 58 4 20-42 15-125 8-235 124-281 211-232c18 10 29 29 36 50l-46 12c-8-25-30-41-62-41-52 0-71 34-72 86" id="af"/><path d="M220-157c-53 9-28 100-34 157h-49v-107c1-27-5-49-29-50C55-147 81-57 75 0H25l-1-190h47c2 12-1 28 3 38 10-53 101-56 108 0 13-22 24-43 59-42 82 1 51 116 57 194h-49v-107c-1-25-5-48-29-50" id="ag"/><path d="M35-132v-50h50v50H35zM35 0v-49h50V0H35" id="ah"/><g id="j"><use transform="matrix(0.05,0,0,0.05,0,0)" xlink:href="#af"/><use transform="matrix(0.05,0,0,0.05,12.950000000000001,0)" xlink:href="#Z"/><use transform="matrix(0.05,0,0,0.05,23.900000000000002,0)" xlink:href="#ag"/><use transform="matrix(0.05,0,0,0.05,39.900000000000006,0)" xlink:href="#ag"/><use transform="matrix(0.05,0,0,0.05,55.900000000000006,0)" xlink:href="#W"/><use transform="matrix(0.05,0,0,0.05,60.900000000000006,0)" xlink:href="#Y"/><use transform="matrix(0.05,0,0,0.05,66.85000000000001,0)" xlink:href="#ah"/></g><path d="M206 0h-36l-40-164L89 0H53L-1-190h32L70-26l43-164h34l41 164 42-164h31" id="ai"/><path d="M100-194c63 0 86 42 84 106H49c0 40 14 67 53 68 26 1 43-12 49-29l28 8c-11 28-37 45-77 45C44 4 14-33 15-96c1-61 26-98 85-98zm52 81c6-60-76-77-97-28-3 7-6 17-6 28h103" id="aj"/><g id="k"><use transform="matrix(0.05,0,0,0.05,0,0)" xlink:href="#ai"/><use transform="matrix(0.05,0,0,0.05,12.950000000000001,0)" xlink:href="#aj"/></g><path d="M96-169c-40 0-48 33-48 73s9 75 48 75c24 0 41-14 43-38l32 2c-6 37-31 61-74 61-59 0-76-41-82-99-10-93 101-131 147-64 4 7 5 14 7 22l-32 3c-4-21-16-35-41-35" id="ak"/><path d="M106-169C34-169 62-67 57 0H25v-261h32l-1 103c12-21 28-36 61-36 89 0 53 116 60 194h-32v-121c2-32-8-49-39-48" id="al"/><path d="M143 0L79-87 56-68V0H24v-261h32v163l83-92h37l-77 82L181 0h-38" id="am"/><g id="l"><use transform="matrix(0.05,0,0,0.05,0,0)" xlink:href="#ak"/><use transform="matrix(0.05,0,0,0.05,9,0)" xlink:href="#al"/><use transform="matrix(0.05,0,0,0.05,19,0)" xlink:href="#aj"/><use transform="matrix(0.05,0,0,0.05,29,0)" xlink:href="#ak"/><use transform="matrix(0.05,0,0,0.05,38,0)" xlink:href="#am"/></g><path d="M135-143c-3-34-86-38-87 0 15 53 115 12 119 90S17 21 10-45l28-5c4 36 97 45 98 0-10-56-113-15-118-90-4-57 82-63 122-42 12 7 21 19 24 35" id="an"/><path d="M100-194c62-1 85 37 85 99 1 63-27 99-86 99S16-35 15-95c0-66 28-99 85-99zM99-20c44 1 53-31 53-75 0-43-8-75-51-75s-53 32-53 75 10 74 51 75" id="ao"/><path d="M24 0v-261h32V0H24" id="ap"/><g id="m"><use transform="matrix(0.05,0,0,0.05,0,0)" xlink:href="#an"/><use transform="matrix(0.05,0,0,0.05,9,0)" xlink:href="#ak"/><use transform="matrix(0.05,0,0,0.05,18,0)" xlink:href="#al"/><use transform="matrix(0.05,0,0,0.05,28,0)" xlink:href="#ao"/><use transform="matrix(0.05,0,0,0.05,38,0)" xlink:href="#ao"/><use transform="matrix(0.05,0,0,0.05,48,0)" xlink:href="#ap"/><use transform="matrix(0.05,0,0,0.05,51.95,0)" xlink:href="#an"/></g><path d="M84 4C-5 8 30-112 23-190h32v120c0 31 7 50 39 49 72-2 45-101 50-169h31l1 190h-30c-1-10 1-25-2-33-11 22-28 36-60 37" id="aq"/><path d="M114-163C36-179 61-72 57 0H25l-1-190h30c1 12-1 29 2 39 6-27 23-49 58-41v29" id="ar"/><g id="n"><use transform="matrix(0.05,0,0,0.05,0,0)" xlink:href="#aq"/><use transform="matrix(0.05,0,0,0.05,10,0)" xlink:href="#an"/><use transform="matrix(0.05,0,0,0.05,19,0)" xlink:href="#aj"/><use transform="matrix(0.05,0,0,0.05,29,0)" xlink:href="#ar"/><use transform="matrix(0.05,0,0,0.05,34.95,0)" xlink:href="#an"/></g><path d="M59-47c-2 24 18 29 38 22v24C64 9 27 4 27-40v-127H5v-23h24l9-43h21v43h35v23H59v120" id="as"/><g id="o"><use transform="matrix(0.05,0,0,0.05,0,0)" xlink:href="#as"/><use transform="matrix(0.05,0,0,0.05,5,0)" xlink:href="#ao"/></g><g id="p"><use transform="matrix(0.05,0,0,0.05,0,0)" xlink:href="#an"/><use transform="matrix(0.05,0,0,0.05,9,0)" xlink:href="#aj"/><use transform="matrix(0.05,0,0,0.05,19,0)" xlink:href="#aj"/></g><path d="M24-231v-30h32v30H24zM24 0v-190h32V0H24" id="at"/><path d="M101-234c-31-9-42 10-38 44h38v23H63V0H32v-167H5v-23h27c-7-52 17-82 69-68v24" id="au"/><g id="q"><use transform="matrix(0.05,0,0,0.05,0,0)" xlink:href="#at"/><use transform="matrix(0.05,0,0,0.05,3.95,0)" xlink:href="#au"/></g><g id="r"><use transform="matrix(0.05,0,0,0.05,0,0)" xlink:href="#as"/><use transform="matrix(0.05,0,0,0.05,5,0)" xlink:href="#al"/><use transform="matrix(0.05,0,0,0.05,15,0)" xlink:href="#aj"/></g><path d="M117-194c89-4 53 116 60 194h-32v-121c0-31-8-49-39-48C34-167 62-67 57 0H25l-1-190h30c1 10-1 24 2 32 11-22 29-35 61-36" id="av"/><g id="s"><use transform="matrix(0.05,0,0,0.05,0,0)" xlink:href="#at"/><use transform="matrix(0.05,0,0,0.05,3.95,0)" xlink:href="#av"/></g><path d="M141-36C126-15 110 5 73 4 37 3 15-17 15-53c-1-64 63-63 125-63 3-35-9-54-41-54-24 1-41 7-42 31l-33-3c5-37 33-52 76-52 45 0 72 20 72 64v82c-1 20 7 32 28 27v20c-31 9-61-2-59-35zM48-53c0 20 12 33 32 33 41-3 63-29 60-74-43 2-92-5-92 41" id="aw"/><g id="t"><use transform="matrix(0.05,0,0,0.05,0,0)" xlink:href="#as"/><use transform="matrix(0.05,0,0,0.05,5,0)" xlink:href="#al"/><use transform="matrix(0.05,0,0,0.05,15,0)" xlink:href="#aw"/><use transform="matrix(0.05,0,0,0.05,25,0)" xlink:href="#as"/></g><g id="u"><use transform="matrix(0.05,0,0,0.05,0,0)" xlink:href="#an"/><use transform="matrix(0.05,0,0,0.05,9,0)" xlink:href="#ak"/><use transform="matrix(0.05,0,0,0.05,18,0)" xlink:href="#al"/><use transform="matrix(0.05,0,0,0.05,28,0)" xlink:href="#ao"/><use transform="matrix(0.05,0,0,0.05,38,0)" xlink:href="#ao"/><use transform="matrix(0.05,0,0,0.05,48,0)" xlink:href="#ap"/></g><path d="M85-194c31 0 48 13 60 33l-1-100h32l1 261h-30c-2-10 0-23-3-31C134-8 116 4 85 4 32 4 16-35 15-94c0-66 23-100 70-100zm9 24c-40 0-46 34-46 75 0 40 6 74 45 74 42 0 51-32 51-76 0-42-9-74-50-73" id="ax"/><g id="v"><use transform="matrix(0.05,0,0,0.05,0,0)" xlink:href="#an"/><use transform="matrix(0.05,0,0,0.05,9,0)" xlink:href="#al"/><use transform="matrix(0.05,0,0,0.05,19,0)" xlink:href="#ao"/><use transform="matrix(0.05,0,0,0.05,29,0)" xlink:href="#aq"/><use transform="matrix(0.05,0,0,0.05,39,0)" xlink:href="#ap"/><use transform="matrix(0.05,0,0,0.05,42.95,0)" xlink:href="#ax"/></g><path d="M115-194c53 0 69 39 70 98 0 66-23 100-70 100C84 3 66-7 56-30L54 0H23l1-261h32v101c10-23 28-34 59-34zm-8 174c40 0 45-34 45-75 0-40-5-75-45-74-42 0-51 32-51 76 0 43 10 73 51 73" id="ay"/><g id="w"><use transform="matrix(0.05,0,0,0.05,0,0)" xlink:href="#ay"/><use transform="matrix(0.05,0,0,0.05,10,0)" xlink:href="#aj"/></g><path d="M177-190C167-65 218 103 67 71c-23-6-38-20-44-43l32-5c15 47 100 32 89-28v-30C133-14 115 1 83 1 29 1 15-40 15-95c0-56 16-97 71-98 29-1 48 16 59 35 1-10 0-23 2-32h30zM94-22c36 0 50-32 50-73 0-42-14-75-50-75-39 0-46 34-46 75s6 73 46 73" id="az"/><g id="x"><use transform="matrix(0.05,0,0,0.05,0,0)" xlink:href="#az"/><use transform="matrix(0.05,0,0,0.05,10,0)" xlink:href="#ar"/><use transform="matrix(0.05,0,0,0.05,15.949999999999998,0)" xlink:href="#aw"/><use transform="matrix(0.05,0,0,0.05,25.950000000000003,0)" xlink:href="#av"/><use transform="matrix(0.05,0,0,0.05,35.95,0)" xlink:href="#as"/><use transform="matrix(0.05,0,0,0.05,40.95,0)" xlink:href="#aj"/><use transform="matrix(0.05,0,0,0.05,50.95,0)" xlink:href="#ax"/></g><g id="y"><use transform="matrix(0.05,0,0,0.05,0,0)" xlink:href="#as"/><use transform="matrix(0.05,0,0,0.05,5,0)" xlink:href="#al"/><use transform="matrix(0.05,0,0,0.05,15,0)" xlink:href="#aj"/></g><path d="M115-194c55 1 70 41 70 98S169 2 115 4C84 4 66-9 55-30l1 105H24l-1-265h31l2 30c10-21 28-34 59-34zm-8 174c40 0 45-34 45-75s-6-73-45-74c-42 0-51 32-51 76 0 43 10 73 51 73" id="aA"/><path d="M33 0v-38h34V0H33" id="aB"/><g id="z"><use transform="matrix(0.05,0,0,0.05,0,0)" xlink:href="#an"/><use transform="matrix(0.05,0,0,0.05,9,0)" xlink:href="#aq"/><use transform="matrix(0.05,0,0,0.05,19,0)" xlink:href="#ay"/><use transform="matrix(0.05,0,0,0.05,29,0)" xlink:href="#an"/><use transform="matrix(0.05,0,0,0.05,38,0)" xlink:href="#ak"/><use transform="matrix(0.05,0,0,0.05,47,0)" xlink:href="#ar"/><use transform="matrix(0.05,0,0,0.05,52.95,0)" xlink:href="#at"/><use transform="matrix(0.05,0,0,0.05,56.900000000000006,0)" xlink:href="#aA"/><use transform="matrix(0.05,0,0,0.05,66.9,0)" xlink:href="#as"/><use transform="matrix(0.05,0,0,0.05,71.9,0)" xlink:href="#at"/><use transform="matrix(0.05,0,0,0.05,75.85000000000001,0)" xlink:href="#ao"/><use transform="matrix(0.05,0,0,0.05,85.85000000000001,0)" xlink:href="#av"/><use transform="matrix(0.05,0,0,0.05,95.85000000000001,0)" xlink:href="#aB"/></g><path d="M182-130c37 4 62 22 62 59C244 23 116-4 24 0v-248c84 5 203-23 205 63 0 31-19 50-47 55zM76-148c40-3 101 13 101-30 0-44-60-28-101-31v61zm0 110c48-3 116 14 116-37 0-48-69-32-116-35v72" id="aC"/><g id="A"><use transform="matrix(0.05,0,0,0.05,0,0)" xlink:href="#aC"/><use transform="matrix(0.05,0,0,0.05,12.950000000000001,0)" xlink:href="#Q"/><use transform="matrix(0.05,0,0,0.05,22.950000000000003,0)" xlink:href="#ae"/><use transform="matrix(0.05,0,0,0.05,28.900000000000002,0)" xlink:href="#Z"/><use transform="matrix(0.05,0,0,0.05,39.85,0)" xlink:href="#R"/><use transform="matrix(0.05,0,0,0.05,46.85,0)" xlink:href="#Q"/></g><path d="M133-34C117-15 103 5 69 4 32 3 11-16 11-54c-1-60 55-63 116-61 1-26-3-47-28-47-18 1-26 9-28 27l-52-2c7-38 36-58 82-57s74 22 75 68l1 82c-1 14 12 18 25 15v27c-30 8-71 5-69-32zm-48 3c29 0 43-24 42-57-32 0-66-3-65 30 0 17 8 27 23 27" id="aD"/><path d="M128 0H69L1-190h53L99-40l48-150h52" id="aE"/><g id="B"><use transform="matrix(0.05,0,0,0.05,0,0)" xlink:href="#S"/><use transform="matrix(0.05,0,0,0.05,12,0)" xlink:href="#aD"/><use transform="matrix(0.05,0,0,0.05,22,0)" xlink:href="#aE"/><use transform="matrix(0.05,0,0,0.05,32,0)" xlink:href="#Q"/><use transform="matrix(0.05,0,0,0.05,42,0)" xlink:href="#ah"/></g><g id="C"><use transform="matrix(0.05,0,0,0.05,0,0)" xlink:href="#an"/><use transform="matrix(0.05,0,0,0.05,9,0)" xlink:href="#aq"/><use transform="matrix(0.05,0,0,0.05,19,0)" xlink:href="#ay"/><use transform="matrix(0.05,0,0,0.05,29,0)" xlink:href="#an"/><use transform="matrix(0.05,0,0,0.05,38,0)" xlink:href="#ak"/><use transform="matrix(0.05,0,0,0.05,47,0)" xlink:href="#ar"/><use transform="matrix(0.05,0,0,0.05,52.95,0)" xlink:href="#at"/><use transform="matrix(0.05,0,0,0.05,56.900000000000006,0)" xlink:href="#aA"/><use transform="matrix(0.05,0,0,0.05,66.9,0)" xlink:href="#as"/><use transform="matrix(0.05,0,0,0.05,71.9,0)" xlink:href="#at"/><use transform="matrix(0.05,0,0,0.05,75.85000000000001,0)" xlink:href="#ao"/><use transform="matrix(0.05,0,0,0.05,85.85000000000001,0)" xlink:href="#av"/></g><g id="D"><use transform="matrix(0.05,0,0,0.05,0,0)" xlink:href="#an"/><use transform="matrix(0.05,0,0,0.05,9,0)" xlink:href="#aj"/><use transform="matrix(0.05,0,0,0.05,19,0)" xlink:href="#aj"/></g><g id="E"><use transform="matrix(0.05,0,0,0.05,0,0)" xlink:href="#at"/><use transform="matrix(0.05,0,0,0.05,3.95,0)" xlink:href="#au"/></g><g id="F"><use transform="matrix(0.05,0,0,0.05,0,0)" xlink:href="#ay"/><use transform="matrix(0.05,0,0,0.05,10,0)" xlink:href="#aj"/></g><g id="G"><use transform="matrix(0.05,0,0,0.05,0,0)" xlink:href="#aq"/><use transform="matrix(0.05,0,0,0.05,10,0)" xlink:href="#aA"/><use transform="matrix(0.05,0,0,0.05,20,0)" xlink:href="#az"/><use transform="matrix(0.05,0,0,0.05,30,0)" xlink:href="#ar"/><use transform="matrix(0.05,0,0,0.05,35.95,0)" xlink:href="#aw"/><use transform="matrix(0.05,0,0,0.05,45.95,0)" xlink:href="#ax"/><use transform="matrix(0.05,0,0,0.05,55.95,0)" xlink:href="#aj"/><use transform="matrix(0.05,0,0,0.05,65.95,0)" xlink:href="#ax"/></g><g id="H"><use transform="matrix(0.05,0,0,0.05,0,0)" xlink:href="#as"/><use transform="matrix(0.05,0,0,0.05,5,0)" xlink:href="#ao"/></g><path d="M210-169c-67 3-38 105-44 169h-31v-121c0-29-5-50-35-48C34-165 62-65 56 0H25l-1-190h30c1 10-1 24 2 32 10-44 99-50 107 0 11-21 27-35 58-36 85-2 47 119 55 194h-31v-121c0-29-5-49-35-48" id="aF"/><g id="I"><use transform="matrix(0.05,0,0,0.05,0,0)" xlink:href="#aA"/><use transform="matrix(0.05,0,0,0.05,10,0)" xlink:href="#ar"/><use transform="matrix(0.05,0,0,0.05,15.949999999999998,0)" xlink:href="#aj"/><use transform="matrix(0.05,0,0,0.05,25.950000000000003,0)" xlink:href="#aF"/><use transform="matrix(0.05,0,0,0.05,40.9,0)" xlink:href="#at"/><use transform="matrix(0.05,0,0,0.05,44.85,0)" xlink:href="#aq"/><use transform="matrix(0.05,0,0,0.05,54.85,0)" xlink:href="#aF"/></g><path d="M33-154v-36h34v36H33zM33 0v-36h34V0H33" id="aG"/><g id="J"><use transform="matrix(0.05,0,0,0.05,0,0)" xlink:href="#S"/><use transform="matrix(0.05,0,0,0.05,12,0)" xlink:href="#T"/><use transform="matrix(0.05,0,0,0.05,22.950000000000003,0)" xlink:href="#U"/><use transform="matrix(0.05,0,0,0.05,33.900000000000006,0)" xlink:href="#P"/><use transform="matrix(0.05,0,0,0.05,43.900000000000006,0)" xlink:href="#V"/><use transform="matrix(0.05,0,0,0.05,53.900000000000006,0)" xlink:href="#R"/><use transform="matrix(0.05,0,0,0.05,60.900000000000006,0)" xlink:href="#W"/><use transform="matrix(0.05,0,0,0.05,65.9,0)" xlink:href="#X"/><use transform="matrix(0.05,0,0,0.05,76.85000000000001,0)" xlink:href="#Y"/><use transform="matrix(0.05,0,0,0.05,82.80000000000001,0)" xlink:href="#W"/><use transform="matrix(0.05,0,0,0.05,87.80000000000001,0)" xlink:href="#Z"/><use transform="matrix(0.05,0,0,0.05,98.75000000000001,0)" xlink:href="#aa"/><use transform="matrix(0.05,0,0,0.05,109.7,0)" xlink:href="#aG"/></g><g id="K"><use transform="matrix(0.05,0,0,0.05,0,0)" xlink:href="#al"/><use transform="matrix(0.05,0,0,0.05,10,0)" xlink:href="#ao"/><use transform="matrix(0.05,0,0,0.05,20,0)" xlink:href="#ap"/><use transform="matrix(0.05,0,0,0.05,23.95,0)" xlink:href="#ax"/><use transform="matrix(0.05,0,0,0.05,33.95,0)" xlink:href="#an"/></g><g id="L"><use transform="matrix(0.05,0,0,0.05,0,0)" xlink:href="#aF"/><use transform="matrix(0.05,0,0,0.05,14.950000000000001,0)" xlink:href="#aj"/><use transform="matrix(0.05,0,0,0.05,24.950000000000003,0)" xlink:href="#as"/><use transform="matrix(0.05,0,0,0.05,29.950000000000003,0)" xlink:href="#aw"/><use transform="matrix(0.05,0,0,0.05,39.95,0)" xlink:href="#ax"/><use transform="matrix(0.05,0,0,0.05,49.95,0)" xlink:href="#aw"/><use transform="matrix(0.05,0,0,0.05,59.95,0)" xlink:href="#as"/><use transform="matrix(0.05,0,0,0.05,64.95,0)" xlink:href="#aw"/></g><g id="M"><use transform="matrix(0.05,0,0,0.05,0,0)" xlink:href="#aw"/><use transform="matrix(0.05,0,0,0.05,10,0)" xlink:href="#ay"/><use transform="matrix(0.05,0,0,0.05,20,0)" xlink:href="#ao"/><use transform="matrix(0.05,0,0,0.05,30,0)" xlink:href="#aq"/><use transform="matrix(0.05,0,0,0.05,40,0)" xlink:href="#as"/></g><g id="N"><use transform="matrix(0.05,0,0,0.05,0,0)" xlink:href="#an"/><use transform="matrix(0.05,0,0,0.05,9,0)" xlink:href="#aq"/><use transform="matrix(0.05,0,0,0.05,19,0)" xlink:href="#ay"/><use transform="matrix(0.05,0,0,0.05,29,0)" xlink:href="#an"/><use transform="matrix(0.05,0,0,0.05,38,0)" xlink:href="#ak"/><use transform="matrix(0.05,0,0,0.05,47,0)" xlink:href="#ar"/><use transform="matrix(0.05,0,0,0.05,52.95,0)" xlink:href="#at"/><use transform="matrix(0.05,0,0,0.05,56.900000000000006,0)" xlink:href="#aA"/><use transform="matrix(0.05,0,0,0.05,66.9,0)" xlink:href="#as"/><use transform="matrix(0.05,0,0,0.05,71.9,0)" xlink:href="#at"/><use transform="matrix(0.05,0,0,0.05,75.85000000000001,0)" xlink:href="#ao"/><use transform="matrix(0.05,0,0,0.05,85.85000000000001,0)" xlink:href="#av"/></g></defs></g></svg>
